<svg xmlns="http://www.w3.org/2000/svg" viewBox="0 0 760 640" width="760" height="640"><style>svg {
  display: block;
  min-width: 100%;
  width: 100%;
  min-height: 100%;
}

circle.node {
  stroke: #ccc;
  stroke-width: 1px;
  opacity: 1;
  fill: white;
}

circle.node.label {
    stroke: transparent;
    stroke-width: 0;
    fill: white;
}

circle.outline_node {
    stroke-width: 1px;
    fill: red;
}

circle.protein {
    fill: gray;
    fill-opacity: 0.5;
    stroke-width: 4;
}

circle.hidden_outline {
    stroke-width: 0px;
}


line.link {
  stroke: #999;
  stroke-opacity: 0.8;
  stroke-width: 2;
}

line.basepair {
  stroke: red;
}

line.intermolecule {
  stroke: blue;
}

line.chain_chain {
  stroke-dasharray: 3,3;
}

line.fake {
  stroke: green;
}

.transparent {
    fill: transparent;
    stroke-width: 0;
    stroke-opacity: 0;
    opacity: 0;
    visibility: hidden;
}

.drag_line {
  stroke: #999;
  stroke-width: 2;
  pointer-events: none;
}

.drag_line_hidden {
  stroke: #999;
  stroke-width: 0;
  pointer-events: none;
}

.d3-tip {
    line-height: 1;
    font-weight: bold;
    padding: 6px;
    background: rgba(0, 0, 0, 0.6);
    color: #fff;
    border-radius: 4px;
    pointer-events: none;
          }

text.node-label {
    font-weight: bold;
    font-family: Tahoma, Geneva, sans-serif;
    color: rgb(100,100,100);
    pointer-events: none;
}

text {
    pointer-events: none;
}

g.gnode {

}

circle.outline_node.selected {
    visibility: visible;
}

circle.outline_node {
    visibility: hidden;
}

.brush .extent {
  fill-opacity: .1;
  stroke: #fff;
  shape-rendering: crispEdges;
}

.noselect {
    -webkit-touch-callout: none;
    -webkit-user-select: none;
    -khtml-user-select: none;
    -moz-user-select: none;
    -ms-user-select: none;
    user-select: none;
}

svg {
  display: block;
  min-width: 100%;
  width: 100%;
  min-height: 100%;
}

circle.node {
  stroke: #ccc;
  stroke-width: 1px;
  opacity: 1;
  fill: white;
}

circle.node.label {
    stroke: transparent;
    stroke-width: 0;
    fill: white;
}

circle.outline_node {
    stroke-width: 1px;
    fill: red;
}

circle.protein {
    fill: gray;
    fill-opacity: 0.5;
    stroke-width: 4;
}

circle.hidden_outline {
    stroke-width: 0px;
}


line.link {
  stroke: #999;
  stroke-opacity: 0.8;
  stroke-width: 2;
}

line.basepair {
  stroke: red;
}

line.intermolecule {
  stroke: blue;
}

line.chain_chain {
  stroke-dasharray: 3,3;
}

line.fake {
  stroke: green;
}

.transparent {
    fill: transparent;
    stroke-width: 0;
    stroke-opacity: 0;
    opacity: 0;
    visibility: hidden;
}

.drag_line {
  stroke: #999;
  stroke-width: 2;
  pointer-events: none;
}

.drag_line_hidden {
  stroke: #999;
  stroke-width: 0;
  pointer-events: none;
}

.d3-tip {
    line-height: 1;
    font-weight: bold;
    padding: 6px;
    background: rgba(0, 0, 0, 0.6);
    color: #fff;
    border-radius: 4px;
    pointer-events: none;
          }

text.node-label {
    font-weight: bold;
    font-family: Tahoma, Geneva, sans-serif;
    color: rgb(100,100,100);
    pointer-events: none;
}

text {
    pointer-events: none;
}

g.gnode {

}

circle.outline_node.selected {
    visibility: visible;
}

circle.outline_node {
    visibility: hidden;
}

.brush .extent {
  fill-opacity: .1;
  stroke: #fff;
  shape-rendering: crispEdges;
}

.noselect {
    -webkit-touch-callout: none;
    -webkit-user-select: none;
    -khtml-user-select: none;
    -moz-user-select: none;
    -ms-user-select: none;
    user-select: none;
}
/*# sourceURL=/Users/yumanakamura/ipy_sandbox/sandbox/claude_sandbox/mrna-transformer-worktrees/feat-issue57-switch-derna-knotty/scripts/eval/prerender/forna_vendor/fornac.css*/</style><style></style><g><g class="brush" style="pointer-events: all; -webkit-tap-highlight-color: rgba(0, 0, 0, 0);"><rect class="background" x="0" width="760" y="0" height="640" style="visibility: hidden; cursor: auto;"></rect><rect class="extent" x="0" width="0" y="0" height="0" style="cursor: move;"></rect><g class="resize n" transform="translate(0,0)" style="cursor: ns-resize; display: none;"><rect y="-3" width="0" height="6" style="visibility: hidden;"></rect></g><g class="resize e" transform="translate(0,0)" style="cursor: ew-resize; display: none;"><rect x="-3" width="6" height="0" style="visibility: hidden;"></rect></g><g class="resize s" transform="translate(0,0)" style="cursor: ns-resize; display: none;"><rect y="-3" width="0" height="6" style="visibility: hidden;"></rect></g><g class="resize w" transform="translate(0,0)" style="cursor: ew-resize; display: none;"><rect x="-3" width="6" height="0" style="visibility: hidden;"></rect></g><g class="resize nw" transform="translate(0,0)" style="cursor: nwse-resize; display: none;"><rect x="-3" y="-3" width="6" height="6" style="visibility: hidden;"></rect></g><g class="resize ne" transform="translate(0,0)" style="cursor: nesw-resize; display: none;"><rect x="-3" y="-3" width="6" height="6" style="visibility: hidden;"></rect></g><g class="resize se" transform="translate(0,0)" style="cursor: nwse-resize; display: none;"><rect x="-3" y="-3" width="6" height="6" style="visibility: hidden;"></rect></g><g class="resize sw" transform="translate(0,0)" style="cursor: nesw-resize; display: none;"><rect x="-3" y="-3" width="6" height="6" style="visibility: hidden;"></rect></g></g><g transform="translate(307.40,356.77) scale(1.29)"><g><line class="link basepair" x1="11.97" y1="161.38" x2="26.45" y2="157.53"></line><line class="link backbone" x1="10.54" y1="176.75" x2="11.97" y2="161.38"></line><line class="link basepair" x1="7.97" y1="146.63" x2="22.14" y2="142.41"></line><line class="link backbone" x1="11.97" y1="161.38" x2="7.97" y2="146.63"></line><line class="link basepair" x1="3.32" y1="132.00" x2="17.06" y2="126.96"></line><line class="link backbone" x1="7.97" y1="146.63" x2="3.32" y2="132.00"></line><line class="link basepair" x1="-2.55" y1="118.34" x2="10.70" y2="111.43"></line><line class="link backbone" x1="3.32" y1="132.00" x2="-2.55" y2="118.34"></line><line class="link backbone" x1="-2.55" y1="118.34" x2="-16.70" y2="112.84"></line><line class="link backbone" x1="-16.70" y1="112.84" x2="-21.18" y2="98.39"></line><line class="link backbone" x1="-21.18" y1="98.39" x2="-12.76" y2="85.90"></line><line class="link basepair" x1="2.48" y1="84.69" x2="13.16" y2="95.01"></line><line class="link backbone" x1="-12.76" y1="85.90" x2="2.48" y2="84.69"></line><line class="link basepair" x1="11.92" y1="73.18" x2="23.79" y2="81.41"></line><line class="link backbone" x1="2.48" y1="84.69" x2="11.92" y2="73.18"></line><line class="link basepair" x1="19.72" y1="60.07" x2="32.61" y2="66.73"></line><line class="link backbone" x1="11.92" y1="73.18" x2="19.72" y2="60.07"></line><line class="link basepair" x1="25.82" y1="46.19" x2="39.50" y2="51.24"></line><line class="link backbone" x1="19.72" y1="60.07" x2="25.82" y2="46.19"></line><line class="link basepair" x1="30.37" y1="31.62" x2="44.51" y2="35.33"></line><line class="link backbone" x1="25.82" y1="46.19" x2="30.37" y2="31.62"></line><line class="link basepair" x1="33.62" y1="16.54" x2="48.01" y2="19.17"></line><line class="link backbone" x1="30.37" y1="31.62" x2="33.62" y2="16.54"></line><line class="link basepair" x1="35.96" y1="1.12" x2="50.50" y2="3.13"></line><line class="link backbone" x1="33.62" y1="16.54" x2="35.96" y2="1.12"></line><line class="link basepair" x1="37.98" y1="-14.56" x2="52.50" y2="-12.80"></line><line class="link backbone" x1="35.96" y1="1.12" x2="37.98" y2="-14.56"></line><line class="link basepair" x1="39.85" y1="-30.38" x2="54.37" y2="-28.75"></line><line class="link backbone" x1="37.98" y1="-14.56" x2="39.85" y2="-30.38"></line><line class="link basepair" x1="41.48" y1="-46.12" x2="56.08" y2="-44.75"></line><line class="link backbone" x1="39.85" y1="-30.38" x2="41.48" y2="-46.12"></line><line class="link basepair" x1="42.76" y1="-61.74" x2="57.34" y2="-60.85"></line><line class="link backbone" x1="41.48" y1="-46.12" x2="42.76" y2="-61.74"></line><line class="link basepair" x1="43.21" y1="-77.18" x2="58.19" y2="-77.03"></line><line class="link backbone" x1="42.76" y1="-61.74" x2="43.21" y2="-77.18"></line><line class="link backbone" x1="43.21" y1="-77.18" x2="33.60" y2="-89.26"></line><line class="link backbone" x1="33.60" y1="-89.26" x2="36.87" y2="-103.94"></line><line class="link basepair" x1="50.69" y1="-110.72" x2="64.32" y2="-104.50"></line><line class="link backbone" x1="36.87" y1="-103.94" x2="50.69" y2="-110.72"></line><line class="link basepair" x1="56.79" y1="-124.89" x2="70.35" y2="-119.64"></line><line class="link backbone" x1="50.69" y1="-110.72" x2="56.79" y2="-124.89"></line><line class="link basepair" x1="62.16" y1="-139.78" x2="75.91" y2="-135.06"></line><line class="link backbone" x1="56.79" y1="-124.89" x2="62.16" y2="-139.78"></line><line class="link basepair" x1="67.10" y1="-154.91" x2="81.01" y2="-150.50"></line><line class="link backbone" x1="62.16" y1="-139.78" x2="67.10" y2="-154.91"></line><line class="link basepair" x1="71.81" y1="-170.11" x2="85.75" y2="-165.96"></line><line class="link backbone" x1="67.10" y1="-154.91" x2="71.81" y2="-170.11"></line><line class="link basepair" x1="75.93" y1="-185.27" x2="90.38" y2="-181.29"></line><line class="link backbone" x1="71.81" y1="-170.11" x2="75.93" y2="-185.27"></line><line class="link backbone" x1="75.93" y1="-185.27" x2="65.78" y2="-196.83"></line><line class="link backbone" x1="65.78" y1="-196.83" x2="63.27" y2="-211.67"></line><line class="link backbone" x1="63.27" y1="-211.67" x2="69.22" y2="-225.64"></line><line class="link backbone" x1="69.22" y1="-225.64" x2="81.77" y2="-233.98"></line><line class="link backbone" x1="81.77" y1="-233.98" x2="96.84" y2="-234.22"></line><line class="link backbone" x1="96.84" y1="-234.22" x2="109.77" y2="-226.50"></line><line class="link backbone" x1="109.77" y1="-226.50" x2="116.47" y2="-212.96"></line><line class="link backbone" x1="116.47" y1="-212.96" x2="114.59" y2="-197.88"></line><line class="link backbone" x1="114.59" y1="-197.88" x2="105.02" y2="-186.28"></line><line class="link basepair" x1="90.38" y1="-181.29" x2="75.93" y2="-185.27"></line><line class="link backbone" x1="105.02" y1="-186.28" x2="90.38" y2="-181.29"></line><line class="link basepair" x1="85.75" y1="-165.96" x2="71.81" y2="-170.11"></line><line class="link backbone" x1="90.38" y1="-181.29" x2="85.75" y2="-165.96"></line><line class="link basepair" x1="81.01" y1="-150.50" x2="67.10" y2="-154.91"></line><line class="link backbone" x1="85.75" y1="-165.96" x2="81.01" y2="-150.50"></line><line class="link basepair" x1="75.91" y1="-135.06" x2="62.16" y2="-139.78"></line><line class="link backbone" x1="81.01" y1="-150.50" x2="75.91" y2="-135.06"></line><line class="link basepair" x1="70.35" y1="-119.64" x2="56.79" y2="-124.89"></line><line class="link backbone" x1="75.91" y1="-135.06" x2="70.35" y2="-119.64"></line><line class="link basepair" x1="64.32" y1="-104.50" x2="50.69" y2="-110.72"></line><line class="link backbone" x1="70.35" y1="-119.64" x2="64.32" y2="-104.50"></line><line class="link backbone" x1="64.32" y1="-104.50" x2="67.81" y2="-89.33"></line><line class="link basepair" x1="58.19" y1="-77.03" x2="43.21" y2="-77.18"></line><line class="link backbone" x1="67.81" y1="-89.33" x2="58.19" y2="-77.03"></line><line class="link basepair" x1="57.34" y1="-60.85" x2="42.76" y2="-61.74"></line><line class="link backbone" x1="58.19" y1="-77.03" x2="57.34" y2="-60.85"></line><line class="link basepair" x1="56.08" y1="-44.75" x2="41.48" y2="-46.12"></line><line class="link backbone" x1="57.34" y1="-60.85" x2="56.08" y2="-44.75"></line><line class="link basepair" x1="54.37" y1="-28.75" x2="39.85" y2="-30.38"></line><line class="link backbone" x1="56.08" y1="-44.75" x2="54.37" y2="-28.75"></line><line class="link basepair" x1="52.50" y1="-12.80" x2="37.98" y2="-14.56"></line><line class="link backbone" x1="54.37" y1="-28.75" x2="52.50" y2="-12.80"></line><line class="link basepair" x1="50.50" y1="3.13" x2="35.96" y2="1.12"></line><line class="link backbone" x1="52.50" y1="-12.80" x2="50.50" y2="3.13"></line><line class="link basepair" x1="48.01" y1="19.17" x2="33.62" y2="16.54"></line><line class="link backbone" x1="50.50" y1="3.13" x2="48.01" y2="19.17"></line><line class="link basepair" x1="44.51" y1="35.33" x2="30.37" y2="31.62"></line><line class="link backbone" x1="48.01" y1="19.17" x2="44.51" y2="35.33"></line><line class="link basepair" x1="39.50" y1="51.24" x2="25.82" y2="46.19"></line><line class="link backbone" x1="44.51" y1="35.33" x2="39.50" y2="51.24"></line><line class="link basepair" x1="32.61" y1="66.73" x2="19.72" y2="60.07"></line><line class="link backbone" x1="39.50" y1="51.24" x2="32.61" y2="66.73"></line><line class="link basepair" x1="23.79" y1="81.41" x2="11.92" y2="73.18"></line><line class="link backbone" x1="32.61" y1="66.73" x2="23.79" y2="81.41"></line><line class="link basepair" x1="13.16" y1="95.01" x2="2.48" y2="84.69"></line><line class="link backbone" x1="23.79" y1="81.41" x2="13.16" y2="95.01"></line><line class="link basepair" x1="10.70" y1="111.43" x2="-2.55" y2="118.34"></line><line class="link backbone" x1="13.16" y1="95.01" x2="10.70" y2="111.43"></line><line class="link basepair" x1="17.06" y1="126.96" x2="3.32" y2="132.00"></line><line class="link backbone" x1="10.70" y1="111.43" x2="17.06" y2="126.96"></line><line class="link basepair" x1="22.14" y1="142.41" x2="7.97" y2="146.63"></line><line class="link backbone" x1="17.06" y1="126.96" x2="22.14" y2="142.41"></line><line class="link basepair" x1="26.45" y1="157.53" x2="11.97" y2="161.38"></line><line class="link backbone" x1="22.14" y1="142.41" x2="26.45" y2="157.53"></line><line class="link label_link" x1="11.92" y1="73.18" x2="-1.17" y2="64.72"></line><line class="link label_link" x1="43.21" y1="-77.18" x2="27.63" y2="-77.53"></line><line class="link label_link" x1="63.27" y1="-211.67" x2="48.90" y2="-217.39"></line><line class="link label_link" x1="81.01" y1="-150.50" x2="96.34" y2="-147.58"></line><line class="link label_link" x1="50.50" y1="3.13" x2="65.81" y2="6.02"></line><line class="link label_link" x1="26.45" y1="157.53" x2="33.61" y2="171.33"></line><line class="link fake transparent" x1="2.48" y1="84.69" x2="13.25" y2="83.96"></line><line class="link fake transparent" x1="2.48" y1="84.69" x2="23.79" y2="81.41"></line><line class="link fake transparent" x1="11.92" y1="73.18" x2="13.25" y2="83.96"></line><line class="link fake transparent" x1="23.79" y1="81.41" x2="13.25" y2="83.96"></line><line class="link fake transparent" x1="13.16" y1="95.01" x2="13.25" y2="83.96"></line><line class="link fake transparent" x1="11.92" y1="73.18" x2="22.46" y2="70.57"></line><line class="link fake transparent" x1="19.72" y1="60.07" x2="22.46" y2="70.57"></line><line class="link fake transparent" x1="32.61" y1="66.73" x2="22.46" y2="70.57"></line><line class="link fake transparent" x1="23.79" y1="81.41" x2="22.46" y2="70.57"></line><line class="link fake transparent" x1="19.72" y1="60.07" x2="29.89" y2="56.22"></line><line class="link fake transparent" x1="25.82" y1="46.19" x2="29.89" y2="56.22"></line><line class="link fake transparent" x1="39.50" y1="51.24" x2="29.89" y2="56.22"></line><line class="link fake transparent" x1="32.61" y1="66.73" x2="29.89" y2="56.22"></line><line class="link fake transparent" x1="25.82" y1="46.19" x2="35.47" y2="41.25"></line><line class="link fake transparent" x1="30.37" y1="31.62" x2="35.47" y2="41.25"></line><line class="link fake transparent" x1="44.51" y1="35.33" x2="35.47" y2="41.25"></line><line class="link fake transparent" x1="39.50" y1="51.24" x2="35.47" y2="41.25"></line><line class="link fake transparent" x1="30.37" y1="31.62" x2="39.45" y2="25.74"></line><line class="link fake transparent" x1="33.62" y1="16.54" x2="39.45" y2="25.74"></line><line class="link fake transparent" x1="48.01" y1="19.17" x2="39.45" y2="25.74"></line><line class="link fake transparent" x1="44.51" y1="35.33" x2="39.45" y2="25.74"></line><line class="link fake transparent" x1="33.62" y1="16.54" x2="42.19" y2="10.00"></line><line class="link fake transparent" x1="35.96" y1="1.12" x2="42.19" y2="10.00"></line><line class="link fake transparent" x1="50.50" y1="3.13" x2="42.19" y2="10.00"></line><line class="link fake transparent" x1="48.01" y1="19.17" x2="42.19" y2="10.00"></line><line class="link fake transparent" x1="35.96" y1="1.12" x2="44.27" y2="-5.74"></line><line class="link fake transparent" x1="37.98" y1="-14.56" x2="44.27" y2="-5.74"></line><line class="link fake transparent" x1="52.50" y1="-12.80" x2="44.27" y2="-5.74"></line><line class="link fake transparent" x1="50.50" y1="3.13" x2="44.27" y2="-5.74"></line><line class="link fake transparent" x1="37.98" y1="-14.56" x2="46.19" y2="-21.61"></line><line class="link fake transparent" x1="39.85" y1="-30.38" x2="46.19" y2="-21.61"></line><line class="link fake transparent" x1="54.37" y1="-28.75" x2="46.19" y2="-21.61"></line><line class="link fake transparent" x1="52.50" y1="-12.80" x2="46.19" y2="-21.61"></line><line class="link fake transparent" x1="39.85" y1="-30.38" x2="48.01" y2="-37.50"></line><line class="link fake transparent" x1="41.48" y1="-46.12" x2="48.01" y2="-37.50"></line><line class="link fake transparent" x1="56.08" y1="-44.75" x2="48.01" y2="-37.50"></line><line class="link fake transparent" x1="54.37" y1="-28.75" x2="48.01" y2="-37.50"></line><line class="link fake transparent" x1="41.48" y1="-46.12" x2="49.53" y2="-53.33"></line><line class="link fake transparent" x1="42.76" y1="-61.74" x2="49.53" y2="-53.33"></line><line class="link fake transparent" x1="57.34" y1="-60.85" x2="49.53" y2="-53.33"></line><line class="link fake transparent" x1="56.08" y1="-44.75" x2="49.53" y2="-53.33"></line><line class="link fake transparent" x1="42.76" y1="-61.74" x2="50.56" y2="-69.27"></line><line class="link fake transparent" x1="43.21" y1="-77.18" x2="50.56" y2="-69.27"></line><line class="link fake transparent" x1="58.19" y1="-77.03" x2="50.56" y2="-69.27"></line><line class="link fake transparent" x1="57.34" y1="-60.85" x2="50.56" y2="-69.27"></line><line class="link fake transparent" x1="50.69" y1="-110.72" x2="60.69" y2="-114.75"></line><line class="link fake transparent" x1="56.79" y1="-124.89" x2="60.69" y2="-114.75"></line><line class="link fake transparent" x1="70.35" y1="-119.64" x2="60.69" y2="-114.75"></line><line class="link fake transparent" x1="64.32" y1="-104.50" x2="60.69" y2="-114.75"></line><line class="link fake transparent" x1="56.79" y1="-124.89" x2="66.42" y2="-129.78"></line><line class="link fake transparent" x1="62.16" y1="-139.78" x2="66.42" y2="-129.78"></line><line class="link fake transparent" x1="75.91" y1="-135.06" x2="66.42" y2="-129.78"></line><line class="link fake transparent" x1="70.35" y1="-119.64" x2="66.42" y2="-129.78"></line><line class="link fake transparent" x1="62.16" y1="-139.78" x2="71.62" y2="-145.04"></line><line class="link fake transparent" x1="67.10" y1="-154.91" x2="71.62" y2="-145.04"></line><line class="link fake transparent" x1="81.01" y1="-150.50" x2="71.62" y2="-145.04"></line><line class="link fake transparent" x1="75.91" y1="-135.06" x2="71.62" y2="-145.04"></line><line class="link fake transparent" x1="67.10" y1="-154.91" x2="76.47" y2="-160.35"></line><line class="link fake transparent" x1="71.81" y1="-170.11" x2="76.47" y2="-160.35"></line><line class="link fake transparent" x1="85.75" y1="-165.96" x2="76.47" y2="-160.35"></line><line class="link fake transparent" x1="81.01" y1="-150.50" x2="76.47" y2="-160.35"></line><line class="link fake transparent" x1="71.81" y1="-170.11" x2="81.07" y2="-175.75"></line><line class="link fake transparent" x1="75.93" y1="-185.27" x2="81.07" y2="-175.75"></line><line class="link fake transparent" x1="90.38" y1="-181.29" x2="81.07" y2="-175.75"></line><line class="link fake transparent" x1="85.75" y1="-165.96" x2="81.07" y2="-175.75"></line><line class="link fake transparent" x1="11.97" y1="161.38" x2="17.24" y2="152.06"></line><line class="link fake transparent" x1="7.97" y1="146.63" x2="17.24" y2="152.06"></line><line class="link fake transparent" x1="22.14" y1="142.41" x2="17.24" y2="152.06"></line><line class="link fake transparent" x1="26.45" y1="157.53" x2="17.24" y2="152.06"></line><line class="link fake transparent" x1="7.97" y1="146.63" x2="12.84" y2="136.99"></line><line class="link fake transparent" x1="3.32" y1="132.00" x2="12.84" y2="136.99"></line><line class="link fake transparent" x1="17.06" y1="126.96" x2="12.84" y2="136.99"></line><line class="link fake transparent" x1="22.14" y1="142.41" x2="12.84" y2="136.99"></line><line class="link fake transparent" x1="3.32" y1="132.00" x2="7.51" y2="122.01"></line><line class="link fake transparent" x1="-2.55" y1="118.34" x2="7.51" y2="122.01"></line><line class="link fake transparent" x1="10.70" y1="111.43" x2="7.51" y2="122.01"></line><line class="link fake transparent" x1="17.06" y1="126.96" x2="7.51" y2="122.01"></line><line class="link fake transparent" x1="10.54" y1="176.75" x2="21.55" y2="169.71"></line><line class="link fake transparent" x1="10.54" y1="176.75" x2="26.45" y2="157.53"></line><line class="link fake transparent" x1="11.97" y1="161.38" x2="21.55" y2="169.71"></line><line class="link fake transparent" x1="11.97" y1="161.38" x2="36.52" y2="167.15"></line><line class="link fake transparent" x1="26.45" y1="157.53" x2="21.55" y2="169.71"></line><line class="link fake transparent" x1="26.45" y1="157.53" x2="29.50" y2="182.54"></line><line class="link fake transparent" x1="75.93" y1="-185.27" x2="89.89" y2="-208.25"></line><line class="link fake transparent" x1="75.93" y1="-185.27" x2="96.84" y2="-234.22"></line><line class="link fake transparent" x1="65.78" y1="-196.83" x2="89.89" y2="-208.25"></line><line class="link fake transparent" x1="65.78" y1="-196.83" x2="109.77" y2="-226.50"></line><line class="link fake transparent" x1="63.27" y1="-211.67" x2="89.89" y2="-208.25"></line><line class="link fake transparent" x1="63.27" y1="-211.67" x2="116.47" y2="-212.96"></line><line class="link fake transparent" x1="69.22" y1="-225.64" x2="89.89" y2="-208.25"></line><line class="link fake transparent" x1="69.22" y1="-225.64" x2="114.59" y2="-197.88"></line><line class="link fake transparent" x1="81.77" y1="-233.98" x2="89.89" y2="-208.25"></line><line class="link fake transparent" x1="81.77" y1="-233.98" x2="105.02" y2="-186.28"></line><line class="link fake transparent" x1="96.84" y1="-234.22" x2="89.89" y2="-208.25"></line><line class="link fake transparent" x1="96.84" y1="-234.22" x2="90.38" y2="-181.29"></line><line class="link fake transparent" x1="109.77" y1="-226.50" x2="89.89" y2="-208.25"></line><line class="link fake transparent" x1="109.77" y1="-226.50" x2="75.93" y2="-185.27"></line><line class="link fake transparent" x1="116.47" y1="-212.96" x2="89.89" y2="-208.25"></line><line class="link fake transparent" x1="116.47" y1="-212.96" x2="65.78" y2="-196.83"></line><line class="link fake transparent" x1="114.59" y1="-197.88" x2="89.89" y2="-208.25"></line><line class="link fake transparent" x1="114.59" y1="-197.88" x2="63.27" y2="-211.67"></line><line class="link fake transparent" x1="105.02" y1="-186.28" x2="89.89" y2="-208.25"></line><line class="link fake transparent" x1="105.02" y1="-186.28" x2="69.22" y2="-225.64"></line><line class="link fake transparent" x1="90.38" y1="-181.29" x2="89.89" y2="-208.25"></line><line class="link fake transparent" x1="90.38" y1="-181.29" x2="81.77" y2="-233.98"></line><line class="link fake transparent" x1="43.21" y1="-77.18" x2="50.83" y2="-93.11"></line><line class="link fake transparent" x1="43.21" y1="-77.18" x2="50.69" y2="-110.72"></line><line class="link fake transparent" x1="33.60" y1="-89.26" x2="50.83" y2="-93.11"></line><line class="link fake transparent" x1="33.60" y1="-89.26" x2="64.32" y2="-104.50"></line><line class="link fake transparent" x1="36.87" y1="-103.94" x2="50.83" y2="-93.11"></line><line class="link fake transparent" x1="36.87" y1="-103.94" x2="67.81" y2="-89.33"></line><line class="link fake transparent" x1="50.69" y1="-110.72" x2="50.83" y2="-93.11"></line><line class="link fake transparent" x1="50.69" y1="-110.72" x2="58.19" y2="-77.03"></line><line class="link fake transparent" x1="64.32" y1="-104.50" x2="50.83" y2="-93.11"></line><line class="link fake transparent" x1="64.32" y1="-104.50" x2="43.21" y2="-77.18"></line><line class="link fake transparent" x1="67.81" y1="-89.33" x2="50.83" y2="-93.11"></line><line class="link fake transparent" x1="67.81" y1="-89.33" x2="33.60" y2="-89.26"></line><line class="link fake transparent" x1="58.19" y1="-77.03" x2="50.83" y2="-93.11"></line><line class="link fake transparent" x1="58.19" y1="-77.03" x2="36.87" y2="-103.94"></line><line class="link fake transparent" x1="-2.55" y1="118.34" x2="-3.49" y2="101.00"></line><line class="link fake transparent" x1="-2.55" y1="118.34" x2="-12.76" y2="85.90"></line><line class="link fake transparent" x1="-16.70" y1="112.84" x2="-3.49" y2="101.00"></line><line class="link fake transparent" x1="-16.70" y1="112.84" x2="2.48" y2="84.69"></line><line class="link fake transparent" x1="-21.18" y1="98.39" x2="-3.49" y2="101.00"></line><line class="link fake transparent" x1="-21.18" y1="98.39" x2="13.16" y2="95.01"></line><line class="link fake transparent" x1="-12.76" y1="85.90" x2="-3.49" y2="101.00"></line><line class="link fake transparent" x1="-12.76" y1="85.90" x2="10.70" y2="111.43"></line><line class="link fake transparent" x1="2.48" y1="84.69" x2="-3.49" y2="101.00"></line><line class="link fake transparent" x1="2.48" y1="84.69" x2="-2.55" y2="118.34"></line><line class="link fake transparent" x1="13.16" y1="95.01" x2="-3.49" y2="101.00"></line><line class="link fake transparent" x1="13.16" y1="95.01" x2="-16.70" y2="112.84"></line><line class="link fake transparent" x1="10.70" y1="111.43" x2="-3.49" y2="101.00"></line><line class="link fake transparent" x1="10.70" y1="111.43" x2="-21.18" y2="98.39"></line></g><g><g class="noselect gnode" struct_name="m" transform="translate(10.54,176.75)" r="6.5"><circle class="node" r="6" node_type="nucleotide" style="fill: lightsalmon;"></circle><text text-anchor="middle" font-size="8" font-weight="bold" y="2.5" class="node-label">A</text></g><g class="noselect gnode" struct_name="m" transform="translate(11.97,161.38)" r="6.5"><circle class="node" r="6" node_type="nucleotide" style="fill: lightgreen;"></circle><text text-anchor="middle" font-size="8" font-weight="bold" y="2.5" class="node-label">U</text></g><g class="noselect gnode" struct_name="m" transform="translate(7.97,146.63)" r="6.5"><circle class="node" r="6" node_type="nucleotide" style="fill: lightgreen;"></circle><text text-anchor="middle" font-size="8" font-weight="bold" y="2.5" class="node-label">G</text></g><g class="noselect gnode" struct_name="m" transform="translate(3.32,132.00)" r="6.5"><circle class="node" r="6" node_type="nucleotide" style="fill: lightgreen;"></circle><text text-anchor="middle" font-size="8" font-weight="bold" y="2.5" class="node-label">C</text></g><g class="noselect gnode" struct_name="m" transform="translate(-2.55,118.34)" r="6.5"><circle class="node" r="6" node_type="nucleotide" style="fill: lightgreen;"></circle><text text-anchor="middle" font-size="8" font-weight="bold" y="2.5" class="node-label">C</text></g><g class="noselect gnode" struct_name="m" transform="translate(-16.70,112.84)" r="6.5"><circle class="node" r="6" node_type="nucleotide" style="fill: rgb(219, 219, 141);"></circle><text text-anchor="middle" font-size="8" font-weight="bold" y="2.5" class="node-label">U</text></g><g class="noselect gnode" struct_name="m" transform="translate(-21.18,98.39)" r="6.5"><circle class="node" r="6" node_type="nucleotide" style="fill: rgb(219, 219, 141);"></circle><text text-anchor="middle" font-size="8" font-weight="bold" y="2.5" class="node-label">A</text></g><g class="noselect gnode" struct_name="m" transform="translate(-12.76,85.90)" r="6.5"><circle class="node" r="6" node_type="nucleotide" style="fill: rgb(219, 219, 141);"></circle><text text-anchor="middle" font-size="8" font-weight="bold" y="2.5" class="node-label">U</text></g><g class="noselect gnode" struct_name="m" transform="translate(2.48,84.69)" r="6.5"><circle class="node" r="6" node_type="nucleotide" style="fill: lightgreen;"></circle><text text-anchor="middle" font-size="8" font-weight="bold" y="2.5" class="node-label">C</text></g><g class="noselect gnode" struct_name="m" transform="translate(11.92,73.18)" r="6.5"><circle class="node" r="6" node_type="nucleotide" style="fill: lightgreen;"></circle><text text-anchor="middle" font-size="8" font-weight="bold" y="2.5" class="node-label">C</text></g><g class="noselect gnode" struct_name="m" transform="translate(19.72,60.07)" r="6.5"><circle class="node" r="6" node_type="nucleotide" style="fill: lightgreen;"></circle><text text-anchor="middle" font-size="8" font-weight="bold" y="2.5" class="node-label">A</text></g><g class="noselect gnode" struct_name="m" transform="translate(25.82,46.19)" r="6.5"><circle class="node" r="6" node_type="nucleotide" style="fill: lightgreen;"></circle><text text-anchor="middle" font-size="8" font-weight="bold" y="2.5" class="node-label">G</text></g><g class="noselect gnode" struct_name="m" transform="translate(30.37,31.62)" r="6.5"><circle class="node" r="6" node_type="nucleotide" style="fill: lightgreen;"></circle><text text-anchor="middle" font-size="8" font-weight="bold" y="2.5" class="node-label">A</text></g><g class="noselect gnode" struct_name="m" transform="translate(33.62,16.54)" r="6.5"><circle class="node" r="6" node_type="nucleotide" style="fill: lightgreen;"></circle><text text-anchor="middle" font-size="8" font-weight="bold" y="2.5" class="node-label">A</text></g><g class="noselect gnode" struct_name="m" transform="translate(35.96,1.12)" r="6.5"><circle class="node" r="6" node_type="nucleotide" style="fill: lightgreen;"></circle><text text-anchor="middle" font-size="8" font-weight="bold" y="2.5" class="node-label">C</text></g><g class="noselect gnode" struct_name="m" transform="translate(37.98,-14.56)" r="6.5"><circle class="node" r="6" node_type="nucleotide" style="fill: lightgreen;"></circle><text text-anchor="middle" font-size="8" font-weight="bold" y="2.5" class="node-label">U</text></g><g class="noselect gnode" struct_name="m" transform="translate(39.85,-30.38)" r="6.5"><circle class="node" r="6" node_type="nucleotide" style="fill: lightgreen;"></circle><text text-anchor="middle" font-size="8" font-weight="bold" y="2.5" class="node-label">A</text></g><g class="noselect gnode" struct_name="m" transform="translate(41.48,-46.12)" r="6.5"><circle class="node" r="6" node_type="nucleotide" style="fill: lightgreen;"></circle><text text-anchor="middle" font-size="8" font-weight="bold" y="2.5" class="node-label">C</text></g><g class="noselect gnode" struct_name="m" transform="translate(42.76,-61.74)" r="6.5"><circle class="node" r="6" node_type="nucleotide" style="fill: lightgreen;"></circle><text text-anchor="middle" font-size="8" font-weight="bold" y="2.5" class="node-label">G</text></g><g class="noselect gnode" struct_name="m" transform="translate(43.21,-77.18)" r="6.5"><circle class="node" r="6" node_type="nucleotide" style="fill: lightgreen;"></circle><text text-anchor="middle" font-size="8" font-weight="bold" y="2.5" class="node-label">A</text></g><g class="noselect gnode" struct_name="m" transform="translate(33.60,-89.26)" r="6.5"><circle class="node" r="6" node_type="nucleotide" style="fill: rgb(219, 219, 141);"></circle><text text-anchor="middle" font-size="8" font-weight="bold" y="2.5" class="node-label">A</text></g><g class="noselect gnode" struct_name="m" transform="translate(36.87,-103.94)" r="6.5"><circle class="node" r="6" node_type="nucleotide" style="fill: rgb(219, 219, 141);"></circle><text text-anchor="middle" font-size="8" font-weight="bold" y="2.5" class="node-label">G</text></g><g class="noselect gnode" struct_name="m" transform="translate(50.69,-110.72)" r="6.5"><circle class="node" r="6" node_type="nucleotide" style="fill: lightgreen;"></circle><text text-anchor="middle" font-size="8" font-weight="bold" y="2.5" class="node-label">A</text></g><g class="noselect gnode" struct_name="m" transform="translate(56.79,-124.89)" r="6.5"><circle class="node" r="6" node_type="nucleotide" style="fill: lightgreen;"></circle><text text-anchor="middle" font-size="8" font-weight="bold" y="2.5" class="node-label">C</text></g><g class="noselect gnode" struct_name="m" transform="translate(62.16,-139.78)" r="6.5"><circle class="node" r="6" node_type="nucleotide" style="fill: lightgreen;"></circle><text text-anchor="middle" font-size="8" font-weight="bold" y="2.5" class="node-label">C</text></g><g class="noselect gnode" struct_name="m" transform="translate(67.10,-154.91)" r="6.5"><circle class="node" r="6" node_type="nucleotide" style="fill: lightgreen;"></circle><text text-anchor="middle" font-size="8" font-weight="bold" y="2.5" class="node-label">A</text></g><g class="noselect gnode" struct_name="m" transform="translate(71.81,-170.11)" r="6.5"><circle class="node" r="6" node_type="nucleotide" style="fill: lightgreen;"></circle><text text-anchor="middle" font-size="8" font-weight="bold" y="2.5" class="node-label">G</text></g><g class="noselect gnode" struct_name="m" transform="translate(75.93,-185.27)" r="6.5"><circle class="node" r="6" node_type="nucleotide" style="fill: lightgreen;"></circle><text text-anchor="middle" font-size="8" font-weight="bold" y="2.5" class="node-label">U</text></g><g class="noselect gnode" struct_name="m" transform="translate(65.78,-196.83)" r="6.5"><circle class="node" r="6" node_type="nucleotide" style="fill: lightblue;"></circle><text text-anchor="middle" font-size="8" font-weight="bold" y="2.5" class="node-label">A</text></g><g class="noselect gnode" struct_name="m" transform="translate(63.27,-211.67)" r="6.5"><circle class="node" r="6" node_type="nucleotide" style="fill: lightblue;"></circle><text text-anchor="middle" font-size="8" font-weight="bold" y="2.5" class="node-label">C</text></g><g class="noselect gnode" struct_name="m" transform="translate(69.22,-225.64)" r="6.5"><circle class="node" r="6" node_type="nucleotide" style="fill: lightblue;"></circle><text text-anchor="middle" font-size="8" font-weight="bold" y="2.5" class="node-label">A</text></g><g class="noselect gnode" struct_name="m" transform="translate(81.77,-233.98)" r="6.5"><circle class="node" r="6" node_type="nucleotide" style="fill: lightblue;"></circle><text text-anchor="middle" font-size="8" font-weight="bold" y="2.5" class="node-label">C</text></g><g class="noselect gnode" struct_name="m" transform="translate(96.84,-234.22)" r="6.5"><circle class="node" r="6" node_type="nucleotide" style="fill: lightblue;"></circle><text text-anchor="middle" font-size="8" font-weight="bold" y="2.5" class="node-label">U</text></g><g class="noselect gnode" struct_name="m" transform="translate(109.77,-226.50)" r="6.5"><circle class="node" r="6" node_type="nucleotide" style="fill: lightblue;"></circle><text text-anchor="middle" font-size="8" font-weight="bold" y="2.5" class="node-label">C</text></g><g class="noselect gnode" struct_name="m" transform="translate(116.47,-212.96)" r="6.5"><circle class="node" r="6" node_type="nucleotide" style="fill: lightblue;"></circle><text text-anchor="middle" font-size="8" font-weight="bold" y="2.5" class="node-label">U</text></g><g class="noselect gnode" struct_name="m" transform="translate(114.59,-197.88)" r="6.5"><circle class="node" r="6" node_type="nucleotide" style="fill: lightblue;"></circle><text text-anchor="middle" font-size="8" font-weight="bold" y="2.5" class="node-label">G</text></g><g class="noselect gnode" struct_name="m" transform="translate(105.02,-186.28)" r="6.5"><circle class="node" r="6" node_type="nucleotide" style="fill: lightblue;"></circle><text text-anchor="middle" font-size="8" font-weight="bold" y="2.5" class="node-label">C</text></g><g class="noselect gnode" struct_name="m" transform="translate(90.38,-181.29)" r="6.5"><circle class="node" r="6" node_type="nucleotide" style="fill: lightgreen;"></circle><text text-anchor="middle" font-size="8" font-weight="bold" y="2.5" class="node-label">G</text></g><g class="noselect gnode" struct_name="m" transform="translate(85.75,-165.96)" r="6.5"><circle class="node" r="6" node_type="nucleotide" style="fill: lightgreen;"></circle><text text-anchor="middle" font-size="8" font-weight="bold" y="2.5" class="node-label">C</text></g><g class="noselect gnode" struct_name="m" transform="translate(81.01,-150.50)" r="6.5"><circle class="node" r="6" node_type="nucleotide" style="fill: lightgreen;"></circle><text text-anchor="middle" font-size="8" font-weight="bold" y="2.5" class="node-label">U</text></g><g class="noselect gnode" struct_name="m" transform="translate(75.91,-135.06)" r="6.5"><circle class="node" r="6" node_type="nucleotide" style="fill: lightgreen;"></circle><text text-anchor="middle" font-size="8" font-weight="bold" y="2.5" class="node-label">G</text></g><g class="noselect gnode" struct_name="m" transform="translate(70.35,-119.64)" r="6.5"><circle class="node" r="6" node_type="nucleotide" style="fill: lightgreen;"></circle><text text-anchor="middle" font-size="8" font-weight="bold" y="2.5" class="node-label">G</text></g><g class="noselect gnode" struct_name="m" transform="translate(64.32,-104.50)" r="6.5"><circle class="node" r="6" node_type="nucleotide" style="fill: lightgreen;"></circle><text text-anchor="middle" font-size="8" font-weight="bold" y="2.5" class="node-label">U</text></g><g class="noselect gnode" struct_name="m" transform="translate(67.81,-89.33)" r="6.5"><circle class="node" r="6" node_type="nucleotide" style="fill: rgb(219, 219, 141);"></circle><text text-anchor="middle" font-size="8" font-weight="bold" y="2.5" class="node-label">A</text></g><g class="noselect gnode" struct_name="m" transform="translate(58.19,-77.03)" r="6.5"><circle class="node" r="6" node_type="nucleotide" style="fill: lightgreen;"></circle><text text-anchor="middle" font-size="8" font-weight="bold" y="2.5" class="node-label">U</text></g><g class="noselect gnode" struct_name="m" transform="translate(57.34,-60.85)" r="6.5"><circle class="node" r="6" node_type="nucleotide" style="fill: lightgreen;"></circle><text text-anchor="middle" font-size="8" font-weight="bold" y="2.5" class="node-label">C</text></g><g class="noselect gnode" struct_name="m" transform="translate(56.08,-44.75)" r="6.5"><circle class="node" r="6" node_type="nucleotide" style="fill: lightgreen;"></circle><text text-anchor="middle" font-size="8" font-weight="bold" y="2.5" class="node-label">G</text></g><g class="noselect gnode" struct_name="m" transform="translate(54.37,-28.75)" r="6.5"><circle class="node" r="6" node_type="nucleotide" style="fill: lightgreen;"></circle><text text-anchor="middle" font-size="8" font-weight="bold" y="2.5" class="node-label">U</text></g><g class="noselect gnode" struct_name="m" transform="translate(52.50,-12.80)" r="6.5"><circle class="node" r="6" node_type="nucleotide" style="fill: lightgreen;"></circle><text text-anchor="middle" font-size="8" font-weight="bold" y="2.5" class="node-label">A</text></g><g class="noselect gnode" struct_name="m" transform="translate(50.50,3.13)" r="6.5"><circle class="node" r="6" node_type="nucleotide" style="fill: lightgreen;"></circle><text text-anchor="middle" font-size="8" font-weight="bold" y="2.5" class="node-label">G</text></g><g class="noselect gnode" struct_name="m" transform="translate(48.01,19.17)" r="6.5"><circle class="node" r="6" node_type="nucleotide" style="fill: lightgreen;"></circle><text text-anchor="middle" font-size="8" font-weight="bold" y="2.5" class="node-label">U</text></g><g class="noselect gnode" struct_name="m" transform="translate(44.51,35.33)" r="6.5"><circle class="node" r="6" node_type="nucleotide" style="fill: lightgreen;"></circle><text text-anchor="middle" font-size="8" font-weight="bold" y="2.5" class="node-label">U</text></g><g class="noselect gnode" struct_name="m" transform="translate(39.50,51.24)" r="6.5"><circle class="node" r="6" node_type="nucleotide" style="fill: lightgreen;"></circle><text text-anchor="middle" font-size="8" font-weight="bold" y="2.5" class="node-label">C</text></g><g class="noselect gnode" struct_name="m" transform="translate(32.61,66.73)" r="6.5"><circle class="node" r="6" node_type="nucleotide" style="fill: lightgreen;"></circle><text text-anchor="middle" font-size="8" font-weight="bold" y="2.5" class="node-label">U</text></g><g class="noselect gnode" struct_name="m" transform="translate(23.79,81.41)" r="6.5"><circle class="node" r="6" node_type="nucleotide" style="fill: lightgreen;"></circle><text text-anchor="middle" font-size="8" font-weight="bold" y="2.5" class="node-label">G</text></g><g class="noselect gnode" struct_name="m" transform="translate(13.16,95.01)" r="6.5"><circle class="node" r="6" node_type="nucleotide" style="fill: lightgreen;"></circle><text text-anchor="middle" font-size="8" font-weight="bold" y="2.5" class="node-label">G</text></g><g class="noselect gnode" struct_name="m" transform="translate(10.70,111.43)" r="6.5"><circle class="node" r="6" node_type="nucleotide" style="fill: lightgreen;"></circle><text text-anchor="middle" font-size="8" font-weight="bold" y="2.5" class="node-label">G</text></g><g class="noselect gnode" struct_name="m" transform="translate(17.06,126.96)" r="6.5"><circle class="node" r="6" node_type="nucleotide" style="fill: lightgreen;"></circle><text text-anchor="middle" font-size="8" font-weight="bold" y="2.5" class="node-label">G</text></g><g class="noselect gnode" struct_name="m" transform="translate(22.14,142.41)" r="6.5"><circle class="node" r="6" node_type="nucleotide" style="fill: lightgreen;"></circle><text text-anchor="middle" font-size="8" font-weight="bold" y="2.5" class="node-label">C</text></g><g class="noselect gnode" struct_name="m" transform="translate(26.45,157.53)" r="6.5"><circle class="node" r="6" node_type="nucleotide" style="fill: lightgreen;"></circle><text text-anchor="middle" font-size="8" font-weight="bold" y="2.5" class="node-label">A</text></g><g class="noselect gnode" struct_name="m" transform="translate(-1.17,64.72)" r="6.5"><circle class="node label" r="6" node_type="label"></circle><text text-anchor="middle" font-size="8" font-weight="bold" y="2.5" class="node-label">10</text></g><g class="noselect gnode" struct_name="m" transform="translate(27.63,-77.53)" r="6.5"><circle class="node label" r="6" node_type="label"></circle><text text-anchor="middle" font-size="8" font-weight="bold" y="2.5" class="node-label">20</text></g><g class="noselect gnode" struct_name="m" transform="translate(48.90,-217.39)" r="6.5"><circle class="node label" r="6" node_type="label"></circle><text text-anchor="middle" font-size="8" font-weight="bold" y="2.5" class="node-label">30</text></g><g class="noselect gnode" struct_name="m" transform="translate(96.34,-147.58)" r="6.5"><circle class="node label" r="6" node_type="label"></circle><text text-anchor="middle" font-size="8" font-weight="bold" y="2.5" class="node-label">40</text></g><g class="noselect gnode" struct_name="m" transform="translate(65.81,6.02)" r="6.5"><circle class="node label" r="6" node_type="label"></circle><text text-anchor="middle" font-size="8" font-weight="bold" y="2.5" class="node-label">50</text></g><g class="noselect gnode" struct_name="m" transform="translate(33.61,171.33)" r="6.5"><circle class="node label" r="6" node_type="label"></circle><text text-anchor="middle" font-size="8" font-weight="bold" y="2.5" class="node-label">60</text></g><g class="noselect gnode" transform="translate(13.25,83.96)" r="6.5"><circle class="node" r="0" node_type="middle"></circle><text text-anchor="middle" font-size="8" font-weight="bold" y="2.5" class="node-label"></text></g><g class="noselect gnode" transform="translate(22.46,70.57)" r="6.5"><circle class="node" r="0" node_type="middle"></circle><text text-anchor="middle" font-size="8" font-weight="bold" y="2.5" class="node-label"></text></g><g class="noselect gnode" transform="translate(29.89,56.22)" r="6.5"><circle class="node" r="0" node_type="middle"></circle><text text-anchor="middle" font-size="8" font-weight="bold" y="2.5" class="node-label"></text></g><g class="noselect gnode" transform="translate(35.47,41.25)" r="6.5"><circle class="node" r="0" node_type="middle"></circle><text text-anchor="middle" font-size="8" font-weight="bold" y="2.5" class="node-label"></text></g><g class="noselect gnode" transform="translate(39.45,25.74)" r="6.5"><circle class="node" r="0" node_type="middle"></circle><text text-anchor="middle" font-size="8" font-weight="bold" y="2.5" class="node-label"></text></g><g class="noselect gnode" transform="translate(42.19,10.00)" r="6.5"><circle class="node" r="0" node_type="middle"></circle><text text-anchor="middle" font-size="8" font-weight="bold" y="2.5" class="node-label"></text></g><g class="noselect gnode" transform="translate(44.27,-5.74)" r="6.5"><circle class="node" r="0" node_type="middle"></circle><text text-anchor="middle" font-size="8" font-weight="bold" y="2.5" class="node-label"></text></g><g class="noselect gnode" transform="translate(46.19,-21.61)" r="6.5"><circle class="node" r="0" node_type="middle"></circle><text text-anchor="middle" font-size="8" font-weight="bold" y="2.5" class="node-label"></text></g><g class="noselect gnode" transform="translate(48.01,-37.50)" r="6.5"><circle class="node" r="0" node_type="middle"></circle><text text-anchor="middle" font-size="8" font-weight="bold" y="2.5" class="node-label"></text></g><g class="noselect gnode" transform="translate(49.53,-53.33)" r="6.5"><circle class="node" r="0" node_type="middle"></circle><text text-anchor="middle" font-size="8" font-weight="bold" y="2.5" class="node-label"></text></g><g class="noselect gnode" transform="translate(50.56,-69.27)" r="6.5"><circle class="node" r="0" node_type="middle"></circle><text text-anchor="middle" font-size="8" font-weight="bold" y="2.5" class="node-label"></text></g><g class="noselect gnode" transform="translate(60.69,-114.75)" r="6.5"><circle class="node" r="0" node_type="middle"></circle><text text-anchor="middle" font-size="8" font-weight="bold" y="2.5" class="node-label"></text></g><g class="noselect gnode" transform="translate(66.42,-129.78)" r="6.5"><circle class="node" r="0" node_type="middle"></circle><text text-anchor="middle" font-size="8" font-weight="bold" y="2.5" class="node-label"></text></g><g class="noselect gnode" transform="translate(71.62,-145.04)" r="6.5"><circle class="node" r="0" node_type="middle"></circle><text text-anchor="middle" font-size="8" font-weight="bold" y="2.5" class="node-label"></text></g><g class="noselect gnode" transform="translate(76.47,-160.35)" r="6.5"><circle class="node" r="0" node_type="middle"></circle><text text-anchor="middle" font-size="8" font-weight="bold" y="2.5" class="node-label"></text></g><g class="noselect gnode" transform="translate(81.07,-175.75)" r="6.5"><circle class="node" r="0" node_type="middle"></circle><text text-anchor="middle" font-size="8" font-weight="bold" y="2.5" class="node-label"></text></g><g class="noselect gnode" transform="translate(17.24,152.06)" r="6.5"><circle class="node" r="0" node_type="middle"></circle><text text-anchor="middle" font-size="8" font-weight="bold" y="2.5" class="node-label"></text></g><g class="noselect gnode" transform="translate(12.84,136.99)" r="6.5"><circle class="node" r="0" node_type="middle"></circle><text text-anchor="middle" font-size="8" font-weight="bold" y="2.5" class="node-label"></text></g><g class="noselect gnode" transform="translate(7.51,122.01)" r="6.5"><circle class="node" r="0" node_type="middle"></circle><text text-anchor="middle" font-size="8" font-weight="bold" y="2.5" class="node-label"></text></g><g class="noselect gnode" transform="translate(36.52,167.15)" r="6.5"><circle class="node" r="0" node_type="middle"></circle><text text-anchor="middle" font-size="8" font-weight="bold" y="2.5" class="node-label"></text></g><g class="noselect gnode" transform="translate(29.50,182.54)" r="6.5"><circle class="node" r="0" node_type="middle"></circle><text text-anchor="middle" font-size="8" font-weight="bold" y="2.5" class="node-label"></text></g><g class="noselect gnode" transform="translate(21.55,169.71)" r="6.5"><circle class="node" r="0" node_type="middle"></circle><text text-anchor="middle" font-size="8" font-weight="bold" y="2.5" class="node-label"></text></g><g class="noselect gnode" transform="translate(89.89,-208.25)" r="6.5"><circle class="node" r="0" node_type="middle"></circle><text text-anchor="middle" font-size="8" font-weight="bold" y="2.5" class="node-label"></text></g><g class="noselect gnode" transform="translate(50.83,-93.11)" r="6.5"><circle class="node" r="0" node_type="middle"></circle><text text-anchor="middle" font-size="8" font-weight="bold" y="2.5" class="node-label"></text></g><g class="noselect gnode" transform="translate(-3.49,101.00)" r="6.5"><circle class="node" r="0" node_type="middle"></circle><text text-anchor="middle" font-size="8" font-weight="bold" y="2.5" class="node-label"></text></g></g><line class="drag_line" x1="0" y1="0" x2="0" y2="0"></line></g></g></svg>