<svg xmlns="http://www.w3.org/2000/svg" viewBox="0 0 760 640" width="760" height="640"><style>svg {
  display: block;
  min-width: 100%;
  width: 100%;
  min-height: 100%;
}

circle.node {
  stroke: #ccc;
  stroke-width: 1px;
  opacity: 1;
  fill: white;
}

circle.node.label {
    stroke: transparent;
    stroke-width: 0;
    fill: white;
}

circle.outline_node {
    stroke-width: 1px;
    fill: red;
}

circle.protein {
    fill: gray;
    fill-opacity: 0.5;
    stroke-width: 4;
}

circle.hidden_outline {
    stroke-width: 0px;
}


line.link {
  stroke: #999;
  stroke-opacity: 0.8;
  stroke-width: 2;
}

line.basepair {
  stroke: red;
}

line.intermolecule {
  stroke: blue;
}

line.chain_chain {
  stroke-dasharray: 3,3;
}

line.fake {
  stroke: green;
}

.transparent {
    fill: transparent;
    stroke-width: 0;
    stroke-opacity: 0;
    opacity: 0;
    visibility: hidden;
}

.drag_line {
  stroke: #999;
  stroke-width: 2;
  pointer-events: none;
}

.drag_line_hidden {
  stroke: #999;
  stroke-width: 0;
  pointer-events: none;
}

.d3-tip {
    line-height: 1;
    font-weight: bold;
    padding: 6px;
    background: rgba(0, 0, 0, 0.6);
    color: #fff;
    border-radius: 4px;
    pointer-events: none;
          }

text.node-label {
    font-weight: bold;
    font-family: Tahoma, Geneva, sans-serif;
    color: rgb(100,100,100);
    pointer-events: none;
}

text {
    pointer-events: none;
}

g.gnode {

}

circle.outline_node.selected {
    visibility: visible;
}

circle.outline_node {
    visibility: hidden;
}

.brush .extent {
  fill-opacity: .1;
  stroke: #fff;
  shape-rendering: crispEdges;
}

.noselect {
    -webkit-touch-callout: none;
    -webkit-user-select: none;
    -khtml-user-select: none;
    -moz-user-select: none;
    -ms-user-select: none;
    user-select: none;
}

svg {
  display: block;
  min-width: 100%;
  width: 100%;
  min-height: 100%;
}

circle.node {
  stroke: #ccc;
  stroke-width: 1px;
  opacity: 1;
  fill: white;
}

circle.node.label {
    stroke: transparent;
    stroke-width: 0;
    fill: white;
}

circle.outline_node {
    stroke-width: 1px;
    fill: red;
}

circle.protein {
    fill: gray;
    fill-opacity: 0.5;
    stroke-width: 4;
}

circle.hidden_outline {
    stroke-width: 0px;
}


line.link {
  stroke: #999;
  stroke-opacity: 0.8;
  stroke-width: 2;
}

line.basepair {
  stroke: red;
}

line.intermolecule {
  stroke: blue;
}

line.chain_chain {
  stroke-dasharray: 3,3;
}

line.fake {
  stroke: green;
}

.transparent {
    fill: transparent;
    stroke-width: 0;
    stroke-opacity: 0;
    opacity: 0;
    visibility: hidden;
}

.drag_line {
  stroke: #999;
  stroke-width: 2;
  pointer-events: none;
}

.drag_line_hidden {
  stroke: #999;
  stroke-width: 0;
  pointer-events: none;
}

.d3-tip {
    line-height: 1;
    font-weight: bold;
    padding: 6px;
    background: rgba(0, 0, 0, 0.6);
    color: #fff;
    border-radius: 4px;
    pointer-events: none;
          }

text.node-label {
    font-weight: bold;
    font-family: Tahoma, Geneva, sans-serif;
    color: rgb(100,100,100);
    pointer-events: none;
}

text {
    pointer-events: none;
}

g.gnode {

}

circle.outline_node.selected {
    visibility: visible;
}

circle.outline_node {
    visibility: hidden;
}

.brush .extent {
  fill-opacity: .1;
  stroke: #fff;
  shape-rendering: crispEdges;
}

.noselect {
    -webkit-touch-callout: none;
    -webkit-user-select: none;
    -khtml-user-select: none;
    -moz-user-select: none;
    -ms-user-select: none;
    user-select: none;
}
/*# sourceURL=/Users/yumanakamura/ipy_sandbox/sandbox/claude_sandbox/mrna-transformer-worktrees/feat-issue57-switch-derna-knotty/scripts/eval/prerender/forna_vendor/fornac.css*/</style><style></style><g><g class="brush" style="pointer-events: all; -webkit-tap-highlight-color: rgba(0, 0, 0, 0);"><rect class="background" x="0" width="760" y="0" height="640" style="visibility: hidden; cursor: auto;"></rect><rect class="extent" x="0" width="0" y="0" height="0" style="cursor: move;"></rect><g class="resize n" transform="translate(0,0)" style="cursor: ns-resize; display: none;"><rect y="-3" width="0" height="6" style="visibility: hidden;"></rect></g><g class="resize e" transform="translate(0,0)" style="cursor: ew-resize; display: none;"><rect x="-3" width="6" height="0" style="visibility: hidden;"></rect></g><g class="resize s" transform="translate(0,0)" style="cursor: ns-resize; display: none;"><rect y="-3" width="0" height="6" style="visibility: hidden;"></rect></g><g class="resize w" transform="translate(0,0)" style="cursor: ew-resize; display: none;"><rect x="-3" width="6" height="0" style="visibility: hidden;"></rect></g><g class="resize nw" transform="translate(0,0)" style="cursor: nwse-resize; display: none;"><rect x="-3" y="-3" width="6" height="6" style="visibility: hidden;"></rect></g><g class="resize ne" transform="translate(0,0)" style="cursor: nesw-resize; display: none;"><rect x="-3" y="-3" width="6" height="6" style="visibility: hidden;"></rect></g><g class="resize se" transform="translate(0,0)" style="cursor: nwse-resize; display: none;"><rect x="-3" y="-3" width="6" height="6" style="visibility: hidden;"></rect></g><g class="resize sw" transform="translate(0,0)" style="cursor: nesw-resize; display: none;"><rect x="-3" y="-3" width="6" height="6" style="visibility: hidden;"></rect></g></g><g transform="translate(312.22,238.56) scale(1.29)"><g><line class="link backbone" x1="8.47" y1="269.03" x2="-5.79" y2="264.47"></line><line class="link backbone" x1="-5.79" y1="264.47" x2="-12.61" y2="251.00"></line><line class="link backbone" x1="-12.61" y1="251.00" x2="-7.92" y2="236.72"></line><line class="link basepair" x1="5.77" y1="229.65" x2="19.87" y2="234.57"></line><line class="link backbone" x1="-7.92" y1="236.72" x2="5.77" y2="229.65"></line><line class="link basepair" x1="11.41" y1="214.78" x2="25.13" y2="219.99"></line><line class="link backbone" x1="5.77" y1="229.65" x2="11.41" y2="214.78"></line><line class="link basepair" x1="17.22" y1="199.90" x2="30.84" y2="205.20"></line><line class="link backbone" x1="11.41" y1="214.78" x2="17.22" y2="199.90"></line><line class="link basepair" x1="22.81" y1="185.11" x2="36.74" y2="190.54"></line><line class="link backbone" x1="17.22" y1="199.90" x2="22.81" y2="185.11"></line><line class="link backbone" x1="22.81" y1="185.11" x2="15.70" y2="171.34"></line><line class="link backbone" x1="15.70" y1="171.34" x2="18.75" y2="156.58"></line><line class="link basepair" x1="30.82" y1="146.82" x2="45.75" y2="147.58"></line><line class="link backbone" x1="18.75" y1="156.58" x2="30.82" y2="146.82"></line><line class="link basepair" x1="32.13" y1="130.79" x2="46.69" y2="132.19"></line><line class="link backbone" x1="30.82" y1="146.82" x2="32.13" y2="130.79"></line><line class="link basepair" x1="33.95" y1="114.67" x2="48.61" y2="116.82"></line><line class="link backbone" x1="32.13" y1="130.79" x2="33.95" y2="114.67"></line><line class="link backbone" x1="33.95" y1="114.67" x2="28.45" y2="100.26"></line><line class="link basepair" x1="38.19" y1="88.40" x2="52.76" y2="90.92"></line><line class="link backbone" x1="28.45" y1="100.26" x2="38.19" y2="88.40"></line><line class="link basepair" x1="41.16" y1="72.71" x2="55.66" y2="75.49"></line><line class="link backbone" x1="38.19" y1="88.40" x2="41.16" y2="72.71"></line><line class="link backbone" x1="41.16" y1="72.71" x2="36.09" y2="58.30"></line><line class="link basepair" x1="46.07" y1="46.77" x2="60.63" y2="49.36"></line><line class="link backbone" x1="36.09" y1="58.30" x2="46.07" y2="46.77"></line><line class="link basepair" x1="48.55" y1="31.45" x2="63.02" y2="33.25"></line><line class="link backbone" x1="46.07" y1="46.77" x2="48.55" y2="31.45"></line><line class="link basepair" x1="49.96" y1="16.00" x2="64.51" y2="16.75"></line><line class="link backbone" x1="48.55" y1="31.45" x2="49.96" y2="16.00"></line><line class="link basepair" x1="50.15" y1="0.52" x2="64.67" y2="0.04"></line><line class="link backbone" x1="49.96" y1="16.00" x2="50.15" y2="0.52"></line><line class="link basepair" x1="48.81" y1="-14.61" x2="63.53" y2="-16.59"></line><line class="link backbone" x1="50.15" y1="0.52" x2="48.81" y2="-14.61"></line><line class="link backbone" x1="48.81" y1="-14.61" x2="41.48" y2="-28.14"></line><line class="link basepair" x1="52.29" y1="-39.19" x2="65.82" y2="-33.18"></line><line class="link backbone" x1="41.48" y1="-28.14" x2="52.29" y2="-39.19"></line><line class="link basepair" x1="58.15" y1="-53.65" x2="71.73" y2="-48.64"></line><line class="link backbone" x1="52.29" y1="-39.19" x2="58.15" y2="-53.65"></line><line class="link basepair" x1="63.40" y1="-68.75" x2="77.16" y2="-64.12"></line><line class="link backbone" x1="58.15" y1="-53.65" x2="63.40" y2="-68.75"></line><line class="link basepair" x1="68.29" y1="-83.90" x2="82.18" y2="-79.63"></line><line class="link backbone" x1="63.40" y1="-68.75" x2="68.29" y2="-83.90"></line><line class="link basepair" x1="72.51" y1="-99.01" x2="86.90" y2="-95.03"></line><line class="link backbone" x1="68.29" y1="-83.90" x2="72.51" y2="-99.01"></line><line class="link backbone" x1="72.51" y1="-99.01" x2="63.06" y2="-111.05"></line><line class="link backbone" x1="63.06" y1="-111.05" x2="62.11" y2="-125.96"></line><line class="link backbone" x1="62.11" y1="-125.96" x2="70.27" y2="-138.69"></line><line class="link backbone" x1="70.27" y1="-138.69" x2="84.33" y2="-143.80"></line><line class="link backbone" x1="84.33" y1="-143.80" x2="98.77" y2="-140.11"></line><line class="link backbone" x1="98.77" y1="-140.11" x2="108.47" y2="-128.65"></line><line class="link backbone" x1="108.47" y1="-128.65" x2="109.19" y2="-113.55"></line><line class="link backbone" x1="109.19" y1="-113.55" x2="101.12" y2="-101.02"></line><line class="link basepair" x1="86.90" y1="-95.03" x2="72.51" y2="-99.01"></line><line class="link backbone" x1="101.12" y1="-101.02" x2="86.90" y2="-95.03"></line><line class="link basepair" x1="82.18" y1="-79.63" x2="68.29" y2="-83.90"></line><line class="link backbone" x1="86.90" y1="-95.03" x2="82.18" y2="-79.63"></line><line class="link basepair" x1="77.16" y1="-64.12" x2="63.40" y2="-68.75"></line><line class="link backbone" x1="82.18" y1="-79.63" x2="77.16" y2="-64.12"></line><line class="link basepair" x1="71.73" y1="-48.64" x2="58.15" y2="-53.65"></line><line class="link backbone" x1="77.16" y1="-64.12" x2="71.73" y2="-48.64"></line><line class="link basepair" x1="65.82" y1="-33.18" x2="52.29" y2="-39.19"></line><line class="link backbone" x1="71.73" y1="-48.64" x2="65.82" y2="-33.18"></line><line class="link basepair" x1="63.53" y1="-16.59" x2="48.81" y2="-14.61"></line><line class="link backbone" x1="65.82" y1="-33.18" x2="63.53" y2="-16.59"></line><line class="link basepair" x1="64.67" y1="0.04" x2="50.15" y2="0.52"></line><line class="link backbone" x1="63.53" y1="-16.59" x2="64.67" y2="0.04"></line><line class="link basepair" x1="64.51" y1="16.75" x2="49.96" y2="16.00"></line><line class="link backbone" x1="64.67" y1="0.04" x2="64.51" y2="16.75"></line><line class="link basepair" x1="63.02" y1="33.25" x2="48.55" y2="31.45"></line><line class="link backbone" x1="64.51" y1="16.75" x2="63.02" y2="33.25"></line><line class="link basepair" x1="60.63" y1="49.36" x2="46.07" y2="46.77"></line><line class="link backbone" x1="63.02" y1="33.25" x2="60.63" y2="49.36"></line><line class="link backbone" x1="60.63" y1="49.36" x2="65.72" y2="63.84"></line><line class="link basepair" x1="55.66" y1="75.49" x2="41.16" y2="72.71"></line><line class="link backbone" x1="65.72" y1="63.84" x2="55.66" y2="75.49"></line><line class="link basepair" x1="52.76" y1="90.92" x2="38.19" y2="88.40"></line><line class="link backbone" x1="55.66" y1="75.49" x2="52.76" y2="90.92"></line><line class="link backbone" x1="52.76" y1="90.92" x2="58.24" y2="105.03"></line><line class="link basepair" x1="48.61" y1="116.82" x2="33.95" y2="114.67"></line><line class="link backbone" x1="58.24" y1="105.03" x2="48.61" y2="116.82"></line><line class="link basepair" x1="46.69" y1="132.19" x2="32.13" y2="130.79"></line><line class="link backbone" x1="48.61" y1="116.82" x2="46.69" y2="132.19"></line><line class="link basepair" x1="45.75" y1="147.58" x2="30.82" y2="146.82"></line><line class="link backbone" x1="46.69" y1="132.19" x2="45.75" y2="147.58"></line><line class="link backbone" x1="45.75" y1="147.58" x2="57.17" y2="157.82"></line><line class="link backbone" x1="57.17" y1="157.82" x2="59.33" y2="172.81"></line><line class="link backbone" x1="59.33" y1="172.81" x2="51.33" y2="185.64"></line><line class="link basepair" x1="36.74" y1="190.54" x2="22.81" y2="185.11"></line><line class="link backbone" x1="51.33" y1="185.64" x2="36.74" y2="190.54"></line><line class="link basepair" x1="30.84" y1="205.20" x2="17.22" y2="199.90"></line><line class="link backbone" x1="36.74" y1="190.54" x2="30.84" y2="205.20"></line><line class="link basepair" x1="25.13" y1="219.99" x2="11.41" y2="214.78"></line><line class="link backbone" x1="30.84" y1="205.20" x2="25.13" y2="219.99"></line><line class="link basepair" x1="19.87" y1="234.57" x2="5.77" y2="229.65"></line><line class="link backbone" x1="25.13" y1="219.99" x2="19.87" y2="234.57"></line><line class="link label_link" x1="18.75" y1="156.58" x2="3.93" y2="151.75"></line><line class="link label_link" x1="49.96" y1="16.00" x2="34.36" y2="15.96"></line><line class="link label_link" x1="62.11" y1="-125.96" x2="48.28" y2="-132.87"></line><line class="link label_link" x1="71.73" y1="-48.64" x2="86.81" y2="-44.61"></line><line class="link label_link" x1="58.24" y1="105.03" x2="73.81" y2="105.52"></line><line class="link label_link" x1="19.87" y1="234.57" x2="22.57" y2="249.66"></line><line class="link fake transparent" x1="46.07" y1="46.77" x2="54.79" y2="40.22"></line><line class="link fake transparent" x1="46.07" y1="46.77" x2="63.02" y2="33.25"></line><line class="link fake transparent" x1="48.55" y1="31.45" x2="54.79" y2="40.22"></line><line class="link fake transparent" x1="63.02" y1="33.25" x2="54.79" y2="40.22"></line><line class="link fake transparent" x1="60.63" y1="49.36" x2="54.79" y2="40.22"></line><line class="link fake transparent" x1="48.55" y1="31.45" x2="56.81" y2="24.39"></line><line class="link fake transparent" x1="49.96" y1="16.00" x2="56.81" y2="24.39"></line><line class="link fake transparent" x1="64.51" y1="16.75" x2="56.81" y2="24.39"></line><line class="link fake transparent" x1="63.02" y1="33.25" x2="56.81" y2="24.39"></line><line class="link fake transparent" x1="49.96" y1="16.00" x2="57.67" y2="8.34"></line><line class="link fake transparent" x1="50.15" y1="0.52" x2="57.67" y2="8.34"></line><line class="link fake transparent" x1="64.67" y1="0.04" x2="57.67" y2="8.34"></line><line class="link fake transparent" x1="64.51" y1="16.75" x2="57.67" y2="8.34"></line><line class="link fake transparent" x1="50.15" y1="0.52" x2="57.15" y2="-7.76"></line><line class="link fake transparent" x1="48.81" y1="-14.61" x2="57.15" y2="-7.76"></line><line class="link fake transparent" x1="63.53" y1="-16.59" x2="57.15" y2="-7.76"></line><line class="link fake transparent" x1="64.67" y1="0.04" x2="57.15" y2="-7.76"></line><line class="link fake transparent" x1="52.29" y1="-39.19" x2="62.14" y2="-43.54"></line><line class="link fake transparent" x1="58.15" y1="-53.65" x2="62.14" y2="-43.54"></line><line class="link fake transparent" x1="71.73" y1="-48.64" x2="62.14" y2="-43.54"></line><line class="link fake transparent" x1="65.82" y1="-33.18" x2="62.14" y2="-43.54"></line><line class="link fake transparent" x1="58.15" y1="-53.65" x2="67.69" y2="-58.79"></line><line class="link fake transparent" x1="63.40" y1="-68.75" x2="67.69" y2="-58.79"></line><line class="link fake transparent" x1="77.16" y1="-64.12" x2="67.69" y2="-58.79"></line><line class="link fake transparent" x1="71.73" y1="-48.64" x2="67.69" y2="-58.79"></line><line class="link fake transparent" x1="63.40" y1="-68.75" x2="72.85" y2="-74.08"></line><line class="link fake transparent" x1="68.29" y1="-83.90" x2="72.85" y2="-74.08"></line><line class="link fake transparent" x1="82.18" y1="-79.63" x2="72.85" y2="-74.08"></line><line class="link fake transparent" x1="77.16" y1="-64.12" x2="72.85" y2="-74.08"></line><line class="link fake transparent" x1="68.29" y1="-83.90" x2="77.60" y2="-89.44"></line><line class="link fake transparent" x1="72.51" y1="-99.01" x2="77.60" y2="-89.44"></line><line class="link fake transparent" x1="86.90" y1="-95.03" x2="77.60" y2="-89.44"></line><line class="link fake transparent" x1="82.18" y1="-79.63" x2="77.60" y2="-89.44"></line><line class="link fake transparent" x1="5.77" y1="229.65" x2="15.43" y2="224.77"></line><line class="link fake transparent" x1="11.41" y1="214.78" x2="15.43" y2="224.77"></line><line class="link fake transparent" x1="25.13" y1="219.99" x2="15.43" y2="224.77"></line><line class="link fake transparent" x1="19.87" y1="234.57" x2="15.43" y2="224.77"></line><line class="link fake transparent" x1="11.41" y1="214.78" x2="21.12" y2="209.96"></line><line class="link fake transparent" x1="17.22" y1="199.90" x2="21.12" y2="209.96"></line><line class="link fake transparent" x1="30.84" y1="205.20" x2="21.12" y2="209.96"></line><line class="link fake transparent" x1="25.13" y1="219.99" x2="21.12" y2="209.96"></line><line class="link fake transparent" x1="17.22" y1="199.90" x2="26.96" y2="195.09"></line><line class="link fake transparent" x1="22.81" y1="185.11" x2="26.96" y2="195.09"></line><line class="link fake transparent" x1="36.74" y1="190.54" x2="26.96" y2="195.09"></line><line class="link fake transparent" x1="30.84" y1="205.20" x2="26.96" y2="195.09"></line><line class="link fake transparent" x1="30.82" y1="146.82" x2="38.69" y2="139.41"></line><line class="link fake transparent" x1="32.13" y1="130.79" x2="38.69" y2="139.41"></line><line class="link fake transparent" x1="46.69" y1="132.19" x2="38.69" y2="139.41"></line><line class="link fake transparent" x1="45.75" y1="147.58" x2="38.69" y2="139.41"></line><line class="link fake transparent" x1="32.13" y1="130.79" x2="40.13" y2="123.60"></line><line class="link fake transparent" x1="33.95" y1="114.67" x2="40.13" y2="123.60"></line><line class="link fake transparent" x1="48.61" y1="116.82" x2="40.13" y2="123.60"></line><line class="link fake transparent" x1="46.69" y1="132.19" x2="40.13" y2="123.60"></line><line class="link fake transparent" x1="38.19" y1="88.40" x2="46.86" y2="81.87"></line><line class="link fake transparent" x1="41.16" y1="72.71" x2="46.86" y2="81.87"></line><line class="link fake transparent" x1="55.66" y1="75.49" x2="46.86" y2="81.87"></line><line class="link fake transparent" x1="52.76" y1="90.92" x2="46.86" y2="81.87"></line><line class="link fake transparent" x1="8.47" y1="269.03" x2="6.91" y2="249.38"></line><line class="link fake transparent" x1="8.47" y1="269.03" x2="5.77" y2="229.65"></line><line class="link fake transparent" x1="-5.79" y1="264.47" x2="6.91" y2="249.38"></line><line class="link fake transparent" x1="-5.79" y1="264.47" x2="19.87" y2="234.57"></line><line class="link fake transparent" x1="-12.61" y1="251.00" x2="6.91" y2="249.38"></line><line class="link fake transparent" x1="-12.61" y1="251.00" x2="26.91" y2="248.12"></line><line class="link fake transparent" x1="-7.92" y1="236.72" x2="6.91" y2="249.38"></line><line class="link fake transparent" x1="-7.92" y1="236.72" x2="22.13" y2="262.47"></line><line class="link fake transparent" x1="5.77" y1="229.65" x2="6.91" y2="249.38"></line><line class="link fake transparent" x1="5.77" y1="229.65" x2="8.47" y2="269.03"></line><line class="link fake transparent" x1="19.87" y1="234.57" x2="6.91" y2="249.38"></line><line class="link fake transparent" x1="19.87" y1="234.57" x2="-5.79" y2="264.47"></line><line class="link fake transparent" x1="72.51" y1="-99.01" x2="85.66" y2="-119.54"></line><line class="link fake transparent" x1="72.51" y1="-99.01" x2="98.77" y2="-140.11"></line><line class="link fake transparent" x1="63.06" y1="-111.05" x2="85.66" y2="-119.54"></line><line class="link fake transparent" x1="63.06" y1="-111.05" x2="108.47" y2="-128.65"></line><line class="link fake transparent" x1="62.11" y1="-125.96" x2="85.66" y2="-119.54"></line><line class="link fake transparent" x1="62.11" y1="-125.96" x2="109.19" y2="-113.55"></line><line class="link fake transparent" x1="70.27" y1="-138.69" x2="85.66" y2="-119.54"></line><line class="link fake transparent" x1="70.27" y1="-138.69" x2="101.12" y2="-101.02"></line><line class="link fake transparent" x1="84.33" y1="-143.80" x2="85.66" y2="-119.54"></line><line class="link fake transparent" x1="84.33" y1="-143.80" x2="86.90" y2="-95.03"></line><line class="link fake transparent" x1="98.77" y1="-140.11" x2="85.66" y2="-119.54"></line><line class="link fake transparent" x1="98.77" y1="-140.11" x2="72.51" y2="-99.01"></line><line class="link fake transparent" x1="108.47" y1="-128.65" x2="85.66" y2="-119.54"></line><line class="link fake transparent" x1="108.47" y1="-128.65" x2="63.06" y2="-111.05"></line><line class="link fake transparent" x1="109.19" y1="-113.55" x2="85.66" y2="-119.54"></line><line class="link fake transparent" x1="109.19" y1="-113.55" x2="62.11" y2="-125.96"></line><line class="link fake transparent" x1="101.12" y1="-101.02" x2="85.66" y2="-119.54"></line><line class="link fake transparent" x1="101.12" y1="-101.02" x2="70.27" y2="-138.69"></line><line class="link fake transparent" x1="86.90" y1="-95.03" x2="85.66" y2="-119.54"></line><line class="link fake transparent" x1="86.90" y1="-95.03" x2="84.33" y2="-143.80"></line><line class="link fake transparent" x1="48.81" y1="-14.61" x2="54.70" y2="-26.29"></line><line class="link fake transparent" x1="48.81" y1="-14.61" x2="52.29" y2="-39.19"></line><line class="link fake transparent" x1="41.48" y1="-28.14" x2="54.70" y2="-26.29"></line><line class="link fake transparent" x1="41.48" y1="-28.14" x2="65.82" y2="-33.18"></line><line class="link fake transparent" x1="52.29" y1="-39.19" x2="54.70" y2="-26.29"></line><line class="link fake transparent" x1="52.29" y1="-39.19" x2="63.53" y2="-16.59"></line><line class="link fake transparent" x1="65.82" y1="-33.18" x2="54.70" y2="-26.29"></line><line class="link fake transparent" x1="65.82" y1="-33.18" x2="48.81" y2="-14.61"></line><line class="link fake transparent" x1="63.53" y1="-16.59" x2="54.70" y2="-26.29"></line><line class="link fake transparent" x1="63.53" y1="-16.59" x2="41.48" y2="-28.14"></line><line class="link fake transparent" x1="22.81" y1="185.11" x2="37.54" y2="168.24"></line><line class="link fake transparent" x1="22.81" y1="185.11" x2="45.75" y2="147.58"></line><line class="link fake transparent" x1="15.70" y1="171.34" x2="37.54" y2="168.24"></line><line class="link fake transparent" x1="15.70" y1="171.34" x2="57.17" y2="157.82"></line><line class="link fake transparent" x1="18.75" y1="156.58" x2="37.54" y2="168.24"></line><line class="link fake transparent" x1="18.75" y1="156.58" x2="59.33" y2="172.81"></line><line class="link fake transparent" x1="30.82" y1="146.82" x2="37.54" y2="168.24"></line><line class="link fake transparent" x1="30.82" y1="146.82" x2="51.33" y2="185.64"></line><line class="link fake transparent" x1="45.75" y1="147.58" x2="37.54" y2="168.24"></line><line class="link fake transparent" x1="45.75" y1="147.58" x2="36.74" y2="190.54"></line><line class="link fake transparent" x1="57.17" y1="157.82" x2="37.54" y2="168.24"></line><line class="link fake transparent" x1="57.17" y1="157.82" x2="22.81" y2="185.11"></line><line class="link fake transparent" x1="59.33" y1="172.81" x2="37.54" y2="168.24"></line><line class="link fake transparent" x1="59.33" y1="172.81" x2="15.70" y2="171.34"></line><line class="link fake transparent" x1="51.33" y1="185.64" x2="37.54" y2="168.24"></line><line class="link fake transparent" x1="51.33" y1="185.64" x2="18.75" y2="156.58"></line><line class="link fake transparent" x1="36.74" y1="190.54" x2="37.54" y2="168.24"></line><line class="link fake transparent" x1="36.74" y1="190.54" x2="30.82" y2="146.82"></line><line class="link fake transparent" x1="33.95" y1="114.67" x2="43.27" y2="102.66"></line><line class="link fake transparent" x1="33.95" y1="114.67" x2="52.76" y2="90.92"></line><line class="link fake transparent" x1="28.45" y1="100.26" x2="43.27" y2="102.66"></line><line class="link fake transparent" x1="28.45" y1="100.26" x2="58.24" y2="105.03"></line><line class="link fake transparent" x1="38.19" y1="88.40" x2="43.27" y2="102.66"></line><line class="link fake transparent" x1="38.19" y1="88.40" x2="48.61" y2="116.82"></line><line class="link fake transparent" x1="52.76" y1="90.92" x2="43.27" y2="102.66"></line><line class="link fake transparent" x1="52.76" y1="90.92" x2="33.95" y2="114.67"></line><line class="link fake transparent" x1="58.24" y1="105.03" x2="43.27" y2="102.66"></line><line class="link fake transparent" x1="58.24" y1="105.03" x2="28.45" y2="100.26"></line><line class="link fake transparent" x1="48.61" y1="116.82" x2="43.27" y2="102.66"></line><line class="link fake transparent" x1="48.61" y1="116.82" x2="38.19" y2="88.40"></line><line class="link fake transparent" x1="41.16" y1="72.71" x2="50.94" y2="61.08"></line><line class="link fake transparent" x1="41.16" y1="72.71" x2="60.63" y2="49.36"></line><line class="link fake transparent" x1="36.09" y1="58.30" x2="50.94" y2="61.08"></line><line class="link fake transparent" x1="36.09" y1="58.30" x2="65.72" y2="63.84"></line><line class="link fake transparent" x1="46.07" y1="46.77" x2="50.94" y2="61.08"></line><line class="link fake transparent" x1="46.07" y1="46.77" x2="55.66" y2="75.49"></line><line class="link fake transparent" x1="60.63" y1="49.36" x2="50.94" y2="61.08"></line><line class="link fake transparent" x1="60.63" y1="49.36" x2="41.16" y2="72.71"></line><line class="link fake transparent" x1="65.72" y1="63.84" x2="50.94" y2="61.08"></line><line class="link fake transparent" x1="65.72" y1="63.84" x2="36.09" y2="58.30"></line><line class="link fake transparent" x1="55.66" y1="75.49" x2="50.94" y2="61.08"></line><line class="link fake transparent" x1="55.66" y1="75.49" x2="46.07" y2="46.77"></line></g><g><g class="noselect gnode" struct_name="m" transform="translate(8.47,269.03)" r="6.5"><circle class="node" r="6" node_type="nucleotide" style="fill: lightsalmon;"></circle><text text-anchor="middle" font-size="8" font-weight="bold" y="2.5" class="node-label">U</text></g><g class="noselect gnode" struct_name="m" transform="translate(-5.79,264.47)" r="6.5"><circle class="node" r="6" node_type="nucleotide" style="fill: lightsalmon;"></circle><text text-anchor="middle" font-size="8" font-weight="bold" y="2.5" class="node-label">A</text></g><g class="noselect gnode" struct_name="m" transform="translate(-12.61,251.00)" r="6.5"><circle class="node" r="6" node_type="nucleotide" style="fill: lightsalmon;"></circle><text text-anchor="middle" font-size="8" font-weight="bold" y="2.5" class="node-label">U</text></g><g class="noselect gnode" struct_name="m" transform="translate(-7.92,236.72)" r="6.5"><circle class="node" r="6" node_type="nucleotide" style="fill: lightsalmon;"></circle><text text-anchor="middle" font-size="8" font-weight="bold" y="2.5" class="node-label">U</text></g><g class="noselect gnode" struct_name="m" transform="translate(5.77,229.65)" r="6.5"><circle class="node" r="6" node_type="nucleotide" style="fill: lightgreen;"></circle><text text-anchor="middle" font-size="8" font-weight="bold" y="2.5" class="node-label">C</text></g><g class="noselect gnode" struct_name="m" transform="translate(11.41,214.78)" r="6.5"><circle class="node" r="6" node_type="nucleotide" style="fill: lightgreen;"></circle><text text-anchor="middle" font-size="8" font-weight="bold" y="2.5" class="node-label">G</text></g><g class="noselect gnode" struct_name="m" transform="translate(17.22,199.90)" r="6.5"><circle class="node" r="6" node_type="nucleotide" style="fill: lightgreen;"></circle><text text-anchor="middle" font-size="8" font-weight="bold" y="2.5" class="node-label">U</text></g><g class="noselect gnode" struct_name="m" transform="translate(22.81,185.11)" r="6.5"><circle class="node" r="6" node_type="nucleotide" style="fill: lightgreen;"></circle><text text-anchor="middle" font-size="8" font-weight="bold" y="2.5" class="node-label">G</text></g><g class="noselect gnode" struct_name="m" transform="translate(15.70,171.34)" r="6.5"><circle class="node" r="6" node_type="nucleotide" style="fill: rgb(219, 219, 141);"></circle><text text-anchor="middle" font-size="8" font-weight="bold" y="2.5" class="node-label">U</text></g><g class="noselect gnode" struct_name="m" transform="translate(18.75,156.58)" r="6.5"><circle class="node" r="6" node_type="nucleotide" style="fill: rgb(219, 219, 141);"></circle><text text-anchor="middle" font-size="8" font-weight="bold" y="2.5" class="node-label">U</text></g><g class="noselect gnode" struct_name="m" transform="translate(30.82,146.82)" r="6.5"><circle class="node" r="6" node_type="nucleotide" style="fill: lightgreen;"></circle><text text-anchor="middle" font-size="8" font-weight="bold" y="2.5" class="node-label">U</text></g><g class="noselect gnode" struct_name="m" transform="translate(32.13,130.79)" r="6.5"><circle class="node" r="6" node_type="nucleotide" style="fill: lightgreen;"></circle><text text-anchor="middle" font-size="8" font-weight="bold" y="2.5" class="node-label">C</text></g><g class="noselect gnode" struct_name="m" transform="translate(33.95,114.67)" r="6.5"><circle class="node" r="6" node_type="nucleotide" style="fill: lightgreen;"></circle><text text-anchor="middle" font-size="8" font-weight="bold" y="2.5" class="node-label">C</text></g><g class="noselect gnode" struct_name="m" transform="translate(28.45,100.26)" r="6.5"><circle class="node" r="6" node_type="nucleotide" style="fill: rgb(219, 219, 141);"></circle><text text-anchor="middle" font-size="8" font-weight="bold" y="2.5" class="node-label">U</text></g><g class="noselect gnode" struct_name="m" transform="translate(38.19,88.40)" r="6.5"><circle class="node" r="6" node_type="nucleotide" style="fill: lightgreen;"></circle><text text-anchor="middle" font-size="8" font-weight="bold" y="2.5" class="node-label">U</text></g><g class="noselect gnode" struct_name="m" transform="translate(41.16,72.71)" r="6.5"><circle class="node" r="6" node_type="nucleotide" style="fill: lightgreen;"></circle><text text-anchor="middle" font-size="8" font-weight="bold" y="2.5" class="node-label">C</text></g><g class="noselect gnode" struct_name="m" transform="translate(36.09,58.30)" r="6.5"><circle class="node" r="6" node_type="nucleotide" style="fill: rgb(219, 219, 141);"></circle><text text-anchor="middle" font-size="8" font-weight="bold" y="2.5" class="node-label">C</text></g><g class="noselect gnode" struct_name="m" transform="translate(46.07,46.77)" r="6.5"><circle class="node" r="6" node_type="nucleotide" style="fill: lightgreen;"></circle><text text-anchor="middle" font-size="8" font-weight="bold" y="2.5" class="node-label">G</text></g><g class="noselect gnode" struct_name="m" transform="translate(48.55,31.45)" r="6.5"><circle class="node" r="6" node_type="nucleotide" style="fill: lightgreen;"></circle><text text-anchor="middle" font-size="8" font-weight="bold" y="2.5" class="node-label">A</text></g><g class="noselect gnode" struct_name="m" transform="translate(49.96,16.00)" r="6.5"><circle class="node" r="6" node_type="nucleotide" style="fill: lightgreen;"></circle><text text-anchor="middle" font-size="8" font-weight="bold" y="2.5" class="node-label">U</text></g><g class="noselect gnode" struct_name="m" transform="translate(50.15,0.52)" r="6.5"><circle class="node" r="6" node_type="nucleotide" style="fill: lightgreen;"></circle><text text-anchor="middle" font-size="8" font-weight="bold" y="2.5" class="node-label">G</text></g><g class="noselect gnode" struct_name="m" transform="translate(48.81,-14.61)" r="6.5"><circle class="node" r="6" node_type="nucleotide" style="fill: lightgreen;"></circle><text text-anchor="middle" font-size="8" font-weight="bold" y="2.5" class="node-label">C</text></g><g class="noselect gnode" struct_name="m" transform="translate(41.48,-28.14)" r="6.5"><circle class="node" r="6" node_type="nucleotide" style="fill: rgb(219, 219, 141);"></circle><text text-anchor="middle" font-size="8" font-weight="bold" y="2.5" class="node-label">A</text></g><g class="noselect gnode" struct_name="m" transform="translate(52.29,-39.19)" r="6.5"><circle class="node" r="6" node_type="nucleotide" style="fill: lightgreen;"></circle><text text-anchor="middle" font-size="8" font-weight="bold" y="2.5" class="node-label">C</text></g><g class="noselect gnode" struct_name="m" transform="translate(58.15,-53.65)" r="6.5"><circle class="node" r="6" node_type="nucleotide" style="fill: lightgreen;"></circle><text text-anchor="middle" font-size="8" font-weight="bold" y="2.5" class="node-label">U</text></g><g class="noselect gnode" struct_name="m" transform="translate(63.40,-68.75)" r="6.5"><circle class="node" r="6" node_type="nucleotide" style="fill: lightgreen;"></circle><text text-anchor="middle" font-size="8" font-weight="bold" y="2.5" class="node-label">U</text></g><g class="noselect gnode" struct_name="m" transform="translate(68.29,-83.90)" r="6.5"><circle class="node" r="6" node_type="nucleotide" style="fill: lightgreen;"></circle><text text-anchor="middle" font-size="8" font-weight="bold" y="2.5" class="node-label">G</text></g><g class="noselect gnode" struct_name="m" transform="translate(72.51,-99.01)" r="6.5"><circle class="node" r="6" node_type="nucleotide" style="fill: lightgreen;"></circle><text text-anchor="middle" font-size="8" font-weight="bold" y="2.5" class="node-label">A</text></g><g class="noselect gnode" struct_name="m" transform="translate(63.06,-111.05)" r="6.5"><circle class="node" r="6" node_type="nucleotide" style="fill: lightblue;"></circle><text text-anchor="middle" font-size="8" font-weight="bold" y="2.5" class="node-label">A</text></g><g class="noselect gnode" struct_name="m" transform="translate(62.11,-125.96)" r="6.5"><circle class="node" r="6" node_type="nucleotide" style="fill: lightblue;"></circle><text text-anchor="middle" font-size="8" font-weight="bold" y="2.5" class="node-label">U</text></g><g class="noselect gnode" struct_name="m" transform="translate(70.27,-138.69)" r="6.5"><circle class="node" r="6" node_type="nucleotide" style="fill: lightblue;"></circle><text text-anchor="middle" font-size="8" font-weight="bold" y="2.5" class="node-label">A</text></g><g class="noselect gnode" struct_name="m" transform="translate(84.33,-143.80)" r="6.5"><circle class="node" r="6" node_type="nucleotide" style="fill: lightblue;"></circle><text text-anchor="middle" font-size="8" font-weight="bold" y="2.5" class="node-label">U</text></g><g class="noselect gnode" struct_name="m" transform="translate(98.77,-140.11)" r="6.5"><circle class="node" r="6" node_type="nucleotide" style="fill: lightblue;"></circle><text text-anchor="middle" font-size="8" font-weight="bold" y="2.5" class="node-label">G</text></g><g class="noselect gnode" struct_name="m" transform="translate(108.47,-128.65)" r="6.5"><circle class="node" r="6" node_type="nucleotide" style="fill: lightblue;"></circle><text text-anchor="middle" font-size="8" font-weight="bold" y="2.5" class="node-label">A</text></g><g class="noselect gnode" struct_name="m" transform="translate(109.19,-113.55)" r="6.5"><circle class="node" r="6" node_type="nucleotide" style="fill: lightblue;"></circle><text text-anchor="middle" font-size="8" font-weight="bold" y="2.5" class="node-label">U</text></g><g class="noselect gnode" struct_name="m" transform="translate(101.12,-101.02)" r="6.5"><circle class="node" r="6" node_type="nucleotide" style="fill: lightblue;"></circle><text text-anchor="middle" font-size="8" font-weight="bold" y="2.5" class="node-label">G</text></g><g class="noselect gnode" struct_name="m" transform="translate(86.90,-95.03)" r="6.5"><circle class="node" r="6" node_type="nucleotide" style="fill: lightgreen;"></circle><text text-anchor="middle" font-size="8" font-weight="bold" y="2.5" class="node-label">U</text></g><g class="noselect gnode" struct_name="m" transform="translate(82.18,-79.63)" r="6.5"><circle class="node" r="6" node_type="nucleotide" style="fill: lightgreen;"></circle><text text-anchor="middle" font-size="8" font-weight="bold" y="2.5" class="node-label">C</text></g><g class="noselect gnode" struct_name="m" transform="translate(77.16,-64.12)" r="6.5"><circle class="node" r="6" node_type="nucleotide" style="fill: lightgreen;"></circle><text text-anchor="middle" font-size="8" font-weight="bold" y="2.5" class="node-label">A</text></g><g class="noselect gnode" struct_name="m" transform="translate(71.73,-48.64)" r="6.5"><circle class="node" r="6" node_type="nucleotide" style="fill: lightgreen;"></circle><text text-anchor="middle" font-size="8" font-weight="bold" y="2.5" class="node-label">A</text></g><g class="noselect gnode" struct_name="m" transform="translate(65.82,-33.18)" r="6.5"><circle class="node" r="6" node_type="nucleotide" style="fill: lightgreen;"></circle><text text-anchor="middle" font-size="8" font-weight="bold" y="2.5" class="node-label">G</text></g><g class="noselect gnode" struct_name="m" transform="translate(63.53,-16.59)" r="6.5"><circle class="node" r="6" node_type="nucleotide" style="fill: lightgreen;"></circle><text text-anchor="middle" font-size="8" font-weight="bold" y="2.5" class="node-label">G</text></g><g class="noselect gnode" struct_name="m" transform="translate(64.67,0.04)" r="6.5"><circle class="node" r="6" node_type="nucleotide" style="fill: lightgreen;"></circle><text text-anchor="middle" font-size="8" font-weight="bold" y="2.5" class="node-label">U</text></g><g class="noselect gnode" struct_name="m" transform="translate(64.51,16.75)" r="6.5"><circle class="node" r="6" node_type="nucleotide" style="fill: lightgreen;"></circle><text text-anchor="middle" font-size="8" font-weight="bold" y="2.5" class="node-label">A</text></g><g class="noselect gnode" struct_name="m" transform="translate(63.02,33.25)" r="6.5"><circle class="node" r="6" node_type="nucleotide" style="fill: lightgreen;"></circle><text text-anchor="middle" font-size="8" font-weight="bold" y="2.5" class="node-label">U</text></g><g class="noselect gnode" struct_name="m" transform="translate(60.63,49.36)" r="6.5"><circle class="node" r="6" node_type="nucleotide" style="fill: lightgreen;"></circle><text text-anchor="middle" font-size="8" font-weight="bold" y="2.5" class="node-label">C</text></g><g class="noselect gnode" struct_name="m" transform="translate(65.72,63.84)" r="6.5"><circle class="node" r="6" node_type="nucleotide" style="fill: rgb(219, 219, 141);"></circle><text text-anchor="middle" font-size="8" font-weight="bold" y="2.5" class="node-label">A</text></g><g class="noselect gnode" struct_name="m" transform="translate(55.66,75.49)" r="6.5"><circle class="node" r="6" node_type="nucleotide" style="fill: lightgreen;"></circle><text text-anchor="middle" font-size="8" font-weight="bold" y="2.5" class="node-label">G</text></g><g class="noselect gnode" struct_name="m" transform="translate(52.76,90.92)" r="6.5"><circle class="node" r="6" node_type="nucleotide" style="fill: lightgreen;"></circle><text text-anchor="middle" font-size="8" font-weight="bold" y="2.5" class="node-label">A</text></g><g class="noselect gnode" struct_name="m" transform="translate(58.24,105.03)" r="6.5"><circle class="node" r="6" node_type="nucleotide" style="fill: rgb(219, 219, 141);"></circle><text text-anchor="middle" font-size="8" font-weight="bold" y="2.5" class="node-label">U</text></g><g class="noselect gnode" struct_name="m" transform="translate(48.61,116.82)" r="6.5"><circle class="node" r="6" node_type="nucleotide" style="fill: lightgreen;"></circle><text text-anchor="middle" font-size="8" font-weight="bold" y="2.5" class="node-label">G</text></g><g class="noselect gnode" struct_name="m" transform="translate(46.69,132.19)" r="6.5"><circle class="node" r="6" node_type="nucleotide" style="fill: lightgreen;"></circle><text text-anchor="middle" font-size="8" font-weight="bold" y="2.5" class="node-label">G</text></g><g class="noselect gnode" struct_name="m" transform="translate(45.75,147.58)" r="6.5"><circle class="node" r="6" node_type="nucleotide" style="fill: lightgreen;"></circle><text text-anchor="middle" font-size="8" font-weight="bold" y="2.5" class="node-label">A</text></g><g class="noselect gnode" struct_name="m" transform="translate(57.17,157.82)" r="6.5"><circle class="node" r="6" node_type="nucleotide" style="fill: rgb(219, 219, 141);"></circle><text text-anchor="middle" font-size="8" font-weight="bold" y="2.5" class="node-label">U</text></g><g class="noselect gnode" struct_name="m" transform="translate(59.33,172.81)" r="6.5"><circle class="node" r="6" node_type="nucleotide" style="fill: rgb(219, 219, 141);"></circle><text text-anchor="middle" font-size="8" font-weight="bold" y="2.5" class="node-label">U</text></g><g class="noselect gnode" struct_name="m" transform="translate(51.33,185.64)" r="6.5"><circle class="node" r="6" node_type="nucleotide" style="fill: rgb(219, 219, 141);"></circle><text text-anchor="middle" font-size="8" font-weight="bold" y="2.5" class="node-label">U</text></g><g class="noselect gnode" struct_name="m" transform="translate(36.74,190.54)" r="6.5"><circle class="node" r="6" node_type="nucleotide" style="fill: lightgreen;"></circle><text text-anchor="middle" font-size="8" font-weight="bold" y="2.5" class="node-label">C</text></g><g class="noselect gnode" struct_name="m" transform="translate(30.84,205.20)" r="6.5"><circle class="node" r="6" node_type="nucleotide" style="fill: lightgreen;"></circle><text text-anchor="middle" font-size="8" font-weight="bold" y="2.5" class="node-label">A</text></g><g class="noselect gnode" struct_name="m" transform="translate(25.13,219.99)" r="6.5"><circle class="node" r="6" node_type="nucleotide" style="fill: lightgreen;"></circle><text text-anchor="middle" font-size="8" font-weight="bold" y="2.5" class="node-label">C</text></g><g class="noselect gnode" struct_name="m" transform="translate(19.87,234.57)" r="6.5"><circle class="node" r="6" node_type="nucleotide" style="fill: lightgreen;"></circle><text text-anchor="middle" font-size="8" font-weight="bold" y="2.5" class="node-label">G</text></g><g class="noselect gnode" struct_name="m" transform="translate(3.93,151.75)" r="6.5"><circle class="node label" r="6" node_type="label"></circle><text text-anchor="middle" font-size="8" font-weight="bold" y="2.5" class="node-label">10</text></g><g class="noselect gnode" struct_name="m" transform="translate(34.36,15.96)" r="6.5"><circle class="node label" r="6" node_type="label"></circle><text text-anchor="middle" font-size="8" font-weight="bold" y="2.5" class="node-label">20</text></g><g class="noselect gnode" struct_name="m" transform="translate(48.28,-132.87)" r="6.5"><circle class="node label" r="6" node_type="label"></circle><text text-anchor="middle" font-size="8" font-weight="bold" y="2.5" class="node-label">30</text></g><g class="noselect gnode" struct_name="m" transform="translate(86.81,-44.61)" r="6.5"><circle class="node label" r="6" node_type="label"></circle><text text-anchor="middle" font-size="8" font-weight="bold" y="2.5" class="node-label">40</text></g><g class="noselect gnode" struct_name="m" transform="translate(73.81,105.52)" r="6.5"><circle class="node label" r="6" node_type="label"></circle><text text-anchor="middle" font-size="8" font-weight="bold" y="2.5" class="node-label">50</text></g><g class="noselect gnode" struct_name="m" transform="translate(22.57,249.66)" r="6.5"><circle class="node label" r="6" node_type="label"></circle><text text-anchor="middle" font-size="8" font-weight="bold" y="2.5" class="node-label">60</text></g><g class="noselect gnode" transform="translate(54.79,40.22)" r="6.5"><circle class="node" r="0" node_type="middle"></circle><text text-anchor="middle" font-size="8" font-weight="bold" y="2.5" class="node-label"></text></g><g class="noselect gnode" transform="translate(56.81,24.39)" r="6.5"><circle class="node" r="0" node_type="middle"></circle><text text-anchor="middle" font-size="8" font-weight="bold" y="2.5" class="node-label"></text></g><g class="noselect gnode" transform="translate(57.67,8.34)" r="6.5"><circle class="node" r="0" node_type="middle"></circle><text text-anchor="middle" font-size="8" font-weight="bold" y="2.5" class="node-label"></text></g><g class="noselect gnode" transform="translate(57.15,-7.76)" r="6.5"><circle class="node" r="0" node_type="middle"></circle><text text-anchor="middle" font-size="8" font-weight="bold" y="2.5" class="node-label"></text></g><g class="noselect gnode" transform="translate(62.14,-43.54)" r="6.5"><circle class="node" r="0" node_type="middle"></circle><text text-anchor="middle" font-size="8" font-weight="bold" y="2.5" class="node-label"></text></g><g class="noselect gnode" transform="translate(67.69,-58.79)" r="6.5"><circle class="node" r="0" node_type="middle"></circle><text text-anchor="middle" font-size="8" font-weight="bold" y="2.5" class="node-label"></text></g><g class="noselect gnode" transform="translate(72.85,-74.08)" r="6.5"><circle class="node" r="0" node_type="middle"></circle><text text-anchor="middle" font-size="8" font-weight="bold" y="2.5" class="node-label"></text></g><g class="noselect gnode" transform="translate(77.60,-89.44)" r="6.5"><circle class="node" r="0" node_type="middle"></circle><text text-anchor="middle" font-size="8" font-weight="bold" y="2.5" class="node-label"></text></g><g class="noselect gnode" transform="translate(15.43,224.77)" r="6.5"><circle class="node" r="0" node_type="middle"></circle><text text-anchor="middle" font-size="8" font-weight="bold" y="2.5" class="node-label"></text></g><g class="noselect gnode" transform="translate(21.12,209.96)" r="6.5"><circle class="node" r="0" node_type="middle"></circle><text text-anchor="middle" font-size="8" font-weight="bold" y="2.5" class="node-label"></text></g><g class="noselect gnode" transform="translate(26.96,195.09)" r="6.5"><circle class="node" r="0" node_type="middle"></circle><text text-anchor="middle" font-size="8" font-weight="bold" y="2.5" class="node-label"></text></g><g class="noselect gnode" transform="translate(38.69,139.41)" r="6.5"><circle class="node" r="0" node_type="middle"></circle><text text-anchor="middle" font-size="8" font-weight="bold" y="2.5" class="node-label"></text></g><g class="noselect gnode" transform="translate(40.13,123.60)" r="6.5"><circle class="node" r="0" node_type="middle"></circle><text text-anchor="middle" font-size="8" font-weight="bold" y="2.5" class="node-label"></text></g><g class="noselect gnode" transform="translate(46.86,81.87)" r="6.5"><circle class="node" r="0" node_type="middle"></circle><text text-anchor="middle" font-size="8" font-weight="bold" y="2.5" class="node-label"></text></g><g class="noselect gnode" transform="translate(26.91,248.12)" r="6.5"><circle class="node" r="0" node_type="middle"></circle><text text-anchor="middle" font-size="8" font-weight="bold" y="2.5" class="node-label"></text></g><g class="noselect gnode" transform="translate(22.13,262.47)" r="6.5"><circle class="node" r="0" node_type="middle"></circle><text text-anchor="middle" font-size="8" font-weight="bold" y="2.5" class="node-label"></text></g><g class="noselect gnode" transform="translate(6.91,249.38)" r="6.5"><circle class="node" r="0" node_type="middle"></circle><text text-anchor="middle" font-size="8" font-weight="bold" y="2.5" class="node-label"></text></g><g class="noselect gnode" transform="translate(85.66,-119.54)" r="6.5"><circle class="node" r="0" node_type="middle"></circle><text text-anchor="middle" font-size="8" font-weight="bold" y="2.5" class="node-label"></text></g><g class="noselect gnode" transform="translate(54.70,-26.29)" r="6.5"><circle class="node" r="0" node_type="middle"></circle><text text-anchor="middle" font-size="8" font-weight="bold" y="2.5" class="node-label"></text></g><g class="noselect gnode" transform="translate(37.54,168.24)" r="6.5"><circle class="node" r="0" node_type="middle"></circle><text text-anchor="middle" font-size="8" font-weight="bold" y="2.5" class="node-label"></text></g><g class="noselect gnode" transform="translate(43.27,102.66)" r="6.5"><circle class="node" r="0" node_type="middle"></circle><text text-anchor="middle" font-size="8" font-weight="bold" y="2.5" class="node-label"></text></g><g class="noselect gnode" transform="translate(50.94,61.08)" r="6.5"><circle class="node" r="0" node_type="middle"></circle><text text-anchor="middle" font-size="8" font-weight="bold" y="2.5" class="node-label"></text></g></g><line class="drag_line" x1="0" y1="0" x2="0" y2="0"></line></g></g></svg>