<svg xmlns="http://www.w3.org/2000/svg" viewBox="0 0 760 640" width="760" height="640"><style>svg {
  display: block;
  min-width: 100%;
  width: 100%;
  min-height: 100%;
}

circle.node {
  stroke: #ccc;
  stroke-width: 1px;
  opacity: 1;
  fill: white;
}

circle.node.label {
    stroke: transparent;
    stroke-width: 0;
    fill: white;
}

circle.outline_node {
    stroke-width: 1px;
    fill: red;
}

circle.protein {
    fill: gray;
    fill-opacity: 0.5;
    stroke-width: 4;
}

circle.hidden_outline {
    stroke-width: 0px;
}


line.link {
  stroke: #999;
  stroke-opacity: 0.8;
  stroke-width: 2;
}

line.basepair {
  stroke: red;
}

line.intermolecule {
  stroke: blue;
}

line.chain_chain {
  stroke-dasharray: 3,3;
}

line.fake {
  stroke: green;
}

.transparent {
    fill: transparent;
    stroke-width: 0;
    stroke-opacity: 0;
    opacity: 0;
    visibility: hidden;
}

.drag_line {
  stroke: #999;
  stroke-width: 2;
  pointer-events: none;
}

.drag_line_hidden {
  stroke: #999;
  stroke-width: 0;
  pointer-events: none;
}

.d3-tip {
    line-height: 1;
    font-weight: bold;
    padding: 6px;
    background: rgba(0, 0, 0, 0.6);
    color: #fff;
    border-radius: 4px;
    pointer-events: none;
          }

text.node-label {
    font-weight: bold;
    font-family: Tahoma, Geneva, sans-serif;
    color: rgb(100,100,100);
    pointer-events: none;
}

text {
    pointer-events: none;
}

g.gnode {

}

circle.outline_node.selected {
    visibility: visible;
}

circle.outline_node {
    visibility: hidden;
}

.brush .extent {
  fill-opacity: .1;
  stroke: #fff;
  shape-rendering: crispEdges;
}

.noselect {
    -webkit-touch-callout: none;
    -webkit-user-select: none;
    -khtml-user-select: none;
    -moz-user-select: none;
    -ms-user-select: none;
    user-select: none;
}

svg {
  display: block;
  min-width: 100%;
  width: 100%;
  min-height: 100%;
}

circle.node {
  stroke: #ccc;
  stroke-width: 1px;
  opacity: 1;
  fill: white;
}

circle.node.label {
    stroke: transparent;
    stroke-width: 0;
    fill: white;
}

circle.outline_node {
    stroke-width: 1px;
    fill: red;
}

circle.protein {
    fill: gray;
    fill-opacity: 0.5;
    stroke-width: 4;
}

circle.hidden_outline {
    stroke-width: 0px;
}


line.link {
  stroke: #999;
  stroke-opacity: 0.8;
  stroke-width: 2;
}

line.basepair {
  stroke: red;
}

line.intermolecule {
  stroke: blue;
}

line.chain_chain {
  stroke-dasharray: 3,3;
}

line.fake {
  stroke: green;
}

.transparent {
    fill: transparent;
    stroke-width: 0;
    stroke-opacity: 0;
    opacity: 0;
    visibility: hidden;
}

.drag_line {
  stroke: #999;
  stroke-width: 2;
  pointer-events: none;
}

.drag_line_hidden {
  stroke: #999;
  stroke-width: 0;
  pointer-events: none;
}

.d3-tip {
    line-height: 1;
    font-weight: bold;
    padding: 6px;
    background: rgba(0, 0, 0, 0.6);
    color: #fff;
    border-radius: 4px;
    pointer-events: none;
          }

text.node-label {
    font-weight: bold;
    font-family: Tahoma, Geneva, sans-serif;
    color: rgb(100,100,100);
    pointer-events: none;
}

text {
    pointer-events: none;
}

g.gnode {

}

circle.outline_node.selected {
    visibility: visible;
}

circle.outline_node {
    visibility: hidden;
}

.brush .extent {
  fill-opacity: .1;
  stroke: #fff;
  shape-rendering: crispEdges;
}

.noselect {
    -webkit-touch-callout: none;
    -webkit-user-select: none;
    -khtml-user-select: none;
    -moz-user-select: none;
    -ms-user-select: none;
    user-select: none;
}
/*# sourceURL=/Users/yumanakamura/ipy_sandbox/sandbox/claude_sandbox/mrna-transformer-worktrees/feat-issue57-switch-derna-knotty/scripts/eval/prerender/forna_vendor/fornac.css*/</style><style></style><g><g class="brush" style="pointer-events: all; -webkit-tap-highlight-color: rgba(0, 0, 0, 0);"><rect class="background" x="0" width="760" y="0" height="640" style="visibility: hidden; cursor: auto;"></rect><rect class="extent" x="0" width="0" y="0" height="0" style="cursor: move;"></rect><g class="resize n" transform="translate(0,0)" style="cursor: ns-resize; display: none;"><rect y="-3" width="0" height="6" style="visibility: hidden;"></rect></g><g class="resize e" transform="translate(0,0)" style="cursor: ew-resize; display: none;"><rect x="-3" width="6" height="0" style="visibility: hidden;"></rect></g><g class="resize s" transform="translate(0,0)" style="cursor: ns-resize; display: none;"><rect y="-3" width="0" height="6" style="visibility: hidden;"></rect></g><g class="resize w" transform="translate(0,0)" style="cursor: ew-resize; display: none;"><rect x="-3" width="6" height="0" style="visibility: hidden;"></rect></g><g class="resize nw" transform="translate(0,0)" style="cursor: nwse-resize; display: none;"><rect x="-3" y="-3" width="6" height="6" style="visibility: hidden;"></rect></g><g class="resize ne" transform="translate(0,0)" style="cursor: nesw-resize; display: none;"><rect x="-3" y="-3" width="6" height="6" style="visibility: hidden;"></rect></g><g class="resize se" transform="translate(0,0)" style="cursor: nwse-resize; display: none;"><rect x="-3" y="-3" width="6" height="6" style="visibility: hidden;"></rect></g><g class="resize sw" transform="translate(0,0)" style="cursor: nesw-resize; display: none;"><rect x="-3" y="-3" width="6" height="6" style="visibility: hidden;"></rect></g></g><g transform="translate(323.10,234.63) scale(2.34)"><g><line class="link basepair" x1="0.11" y1="127.62" x2="14.85" y2="130.53"></line><line class="link backbone" x1="-7.83" y1="140.93" x2="0.11" y2="127.62"></line><line class="link basepair" x1="3.08" y1="112.61" x2="17.75" y2="115.32"></line><line class="link backbone" x1="0.11" y1="127.62" x2="3.08" y2="112.61"></line><line class="link backbone" x1="3.08" y1="112.61" x2="-2.10" y2="98.44"></line><line class="link basepair" x1="7.79" y1="86.74" x2="22.37" y2="89.27"></line><line class="link backbone" x1="-2.10" y1="98.44" x2="7.79" y2="86.74"></line><line class="link basepair" x1="10.46" y1="71.18" x2="24.87" y2="73.41"></line><line class="link backbone" x1="7.79" y1="86.74" x2="10.46" y2="71.18"></line><line class="link basepair" x1="12.75" y1="55.45" x2="27.19" y2="57.40"></line><line class="link backbone" x1="10.46" y1="71.18" x2="12.75" y2="55.45"></line><line class="link basepair" x1="14.77" y1="39.60" x2="29.19" y2="41.26"></line><line class="link backbone" x1="12.75" y1="55.45" x2="14.77" y2="39.60"></line><line class="link basepair" x1="16.45" y1="23.66" x2="30.89" y2="25.01"></line><line class="link backbone" x1="14.77" y1="39.60" x2="16.45" y2="23.66"></line><line class="link basepair" x1="17.77" y1="7.68" x2="32.24" y2="8.73"></line><line class="link backbone" x1="16.45" y1="23.66" x2="17.77" y2="7.68"></line><line class="link basepair" x1="18.81" y1="-8.42" x2="33.23" y2="-7.60"></line><line class="link backbone" x1="17.77" y1="7.68" x2="18.81" y2="-8.42"></line><line class="link basepair" x1="19.58" y1="-24.55" x2="34.10" y2="-23.85"></line><line class="link backbone" x1="18.81" y1="-8.42" x2="19.58" y2="-24.55"></line><line class="link basepair" x1="20.31" y1="-40.60" x2="34.90" y2="-39.88"></line><line class="link backbone" x1="19.58" y1="-24.55" x2="20.31" y2="-40.60"></line><line class="link basepair" x1="20.91" y1="-56.31" x2="35.90" y2="-55.54"></line><line class="link backbone" x1="20.31" y1="-40.60" x2="20.91" y2="-56.31"></line><line class="link backbone" x1="20.91" y1="-56.31" x2="16.77" y2="-71.43"></line><line class="link backbone" x1="16.77" y1="-71.43" x2="29.64" y2="-79.69"></line><line class="link backbone" x1="29.64" y1="-79.69" x2="41.59" y2="-70.16"></line><line class="link basepair" x1="35.90" y1="-55.54" x2="20.91" y2="-56.31"></line><line class="link backbone" x1="41.59" y1="-70.16" x2="35.90" y2="-55.54"></line><line class="link basepair" x1="34.90" y1="-39.88" x2="20.31" y2="-40.60"></line><line class="link backbone" x1="35.90" y1="-55.54" x2="34.90" y2="-39.88"></line><line class="link basepair" x1="34.10" y1="-23.85" x2="19.58" y2="-24.55"></line><line class="link backbone" x1="34.90" y1="-39.88" x2="34.10" y2="-23.85"></line><line class="link basepair" x1="33.23" y1="-7.60" x2="18.81" y2="-8.42"></line><line class="link backbone" x1="34.10" y1="-23.85" x2="33.23" y2="-7.60"></line><line class="link basepair" x1="32.24" y1="8.73" x2="17.77" y2="7.68"></line><line class="link backbone" x1="33.23" y1="-7.60" x2="32.24" y2="8.73"></line><line class="link basepair" x1="30.89" y1="25.01" x2="16.45" y2="23.66"></line><line class="link backbone" x1="32.24" y1="8.73" x2="30.89" y2="25.01"></line><line class="link basepair" x1="29.19" y1="41.26" x2="14.77" y2="39.60"></line><line class="link backbone" x1="30.89" y1="25.01" x2="29.19" y2="41.26"></line><line class="link basepair" x1="27.19" y1="57.40" x2="12.75" y2="55.45"></line><line class="link backbone" x1="29.19" y1="41.26" x2="27.19" y2="57.40"></line><line class="link basepair" x1="24.87" y1="73.41" x2="10.46" y2="71.18"></line><line class="link backbone" x1="27.19" y1="57.40" x2="24.87" y2="73.41"></line><line class="link basepair" x1="22.37" y1="89.27" x2="7.79" y2="86.74"></line><line class="link backbone" x1="24.87" y1="73.41" x2="22.37" y2="89.27"></line><line class="link backbone" x1="22.37" y1="89.27" x2="27.60" y2="103.73"></line><line class="link basepair" x1="17.75" y1="115.32" x2="3.08" y2="112.61"></line><line class="link backbone" x1="27.60" y1="103.73" x2="17.75" y2="115.32"></line><line class="link basepair" x1="14.85" y1="130.53" x2="0.11" y2="127.62"></line><line class="link backbone" x1="17.75" y1="115.32" x2="14.85" y2="130.53"></line><line class="link label_link" x1="17.77" y1="7.68" x2="2.17" y2="8.09"></line><line class="link label_link" x1="34.10" y1="-23.85" x2="49.54" y2="-26.06"></line><line class="link label_link" x1="14.85" y1="130.53" x2="18.29" y2="145.71"></line><line class="link fake transparent" x1="7.79" y1="86.74" x2="16.44" y2="80.18"></line><line class="link fake transparent" x1="7.79" y1="86.74" x2="24.87" y2="73.41"></line><line class="link fake transparent" x1="10.46" y1="71.18" x2="16.44" y2="80.18"></line><line class="link fake transparent" x1="24.87" y1="73.41" x2="16.44" y2="80.18"></line><line class="link fake transparent" x1="22.37" y1="89.27" x2="16.44" y2="80.18"></line><line class="link fake transparent" x1="10.46" y1="71.18" x2="18.90" y2="64.35"></line><line class="link fake transparent" x1="12.75" y1="55.45" x2="18.90" y2="64.35"></line><line class="link fake transparent" x1="27.19" y1="57.40" x2="18.90" y2="64.35"></line><line class="link fake transparent" x1="24.87" y1="73.41" x2="18.90" y2="64.35"></line><line class="link fake transparent" x1="12.75" y1="55.45" x2="21.05" y2="48.46"></line><line class="link fake transparent" x1="14.77" y1="39.60" x2="21.05" y2="48.46"></line><line class="link fake transparent" x1="29.19" y1="41.26" x2="21.05" y2="48.46"></line><line class="link fake transparent" x1="27.19" y1="57.40" x2="21.05" y2="48.46"></line><line class="link fake transparent" x1="14.77" y1="39.60" x2="22.91" y2="32.41"></line><line class="link fake transparent" x1="16.45" y1="23.66" x2="22.91" y2="32.41"></line><line class="link fake transparent" x1="30.89" y1="25.01" x2="22.91" y2="32.41"></line><line class="link fake transparent" x1="29.19" y1="41.26" x2="22.91" y2="32.41"></line><line class="link fake transparent" x1="16.45" y1="23.66" x2="24.43" y2="16.32"></line><line class="link fake transparent" x1="17.77" y1="7.68" x2="24.43" y2="16.32"></line><line class="link fake transparent" x1="32.24" y1="8.73" x2="24.43" y2="16.32"></line><line class="link fake transparent" x1="30.89" y1="25.01" x2="24.43" y2="16.32"></line><line class="link fake transparent" x1="17.77" y1="7.68" x2="25.58" y2="0.12"></line><line class="link fake transparent" x1="18.81" y1="-8.42" x2="25.58" y2="0.12"></line><line class="link fake transparent" x1="33.23" y1="-7.60" x2="25.58" y2="0.12"></line><line class="link fake transparent" x1="32.24" y1="8.73" x2="25.58" y2="0.12"></line><line class="link fake transparent" x1="18.81" y1="-8.42" x2="26.45" y2="-16.13"></line><line class="link fake transparent" x1="19.58" y1="-24.55" x2="26.45" y2="-16.13"></line><line class="link fake transparent" x1="34.10" y1="-23.85" x2="26.45" y2="-16.13"></line><line class="link fake transparent" x1="33.23" y1="-7.60" x2="26.45" y2="-16.13"></line><line class="link fake transparent" x1="19.58" y1="-24.55" x2="27.20" y2="-32.26"></line><line class="link fake transparent" x1="20.31" y1="-40.60" x2="27.20" y2="-32.26"></line><line class="link fake transparent" x1="34.90" y1="-39.88" x2="27.20" y2="-32.26"></line><line class="link fake transparent" x1="34.10" y1="-23.85" x2="27.20" y2="-32.26"></line><line class="link fake transparent" x1="20.31" y1="-40.60" x2="27.99" y2="-48.19"></line><line class="link fake transparent" x1="20.91" y1="-56.31" x2="27.99" y2="-48.19"></line><line class="link fake transparent" x1="35.90" y1="-55.54" x2="27.99" y2="-48.19"></line><line class="link fake transparent" x1="34.90" y1="-39.88" x2="27.99" y2="-48.19"></line><line class="link fake transparent" x1="0.11" y1="127.62" x2="8.97" y2="121.58"></line><line class="link fake transparent" x1="3.08" y1="112.61" x2="8.97" y2="121.58"></line><line class="link fake transparent" x1="17.75" y1="115.32" x2="8.97" y2="121.58"></line><line class="link fake transparent" x1="14.85" y1="130.53" x2="8.97" y2="121.58"></line><line class="link fake transparent" x1="-7.83" y1="140.93" x2="5.09" y2="139.35"></line><line class="link fake transparent" x1="-7.83" y1="140.93" x2="14.85" y2="130.53"></line><line class="link fake transparent" x1="0.11" y1="127.62" x2="5.09" y2="139.35"></line><line class="link fake transparent" x1="0.11" y1="127.62" x2="21.43" y2="141.00"></line><line class="link fake transparent" x1="14.85" y1="130.53" x2="5.09" y2="139.35"></line><line class="link fake transparent" x1="14.85" y1="130.53" x2="14.11" y2="155.71"></line><line class="link fake transparent" x1="20.91" y1="-56.31" x2="28.97" y2="-66.59"></line><line class="link fake transparent" x1="20.91" y1="-56.31" x2="29.64" y2="-79.69"></line><line class="link fake transparent" x1="16.77" y1="-71.43" x2="28.97" y2="-66.59"></line><line class="link fake transparent" x1="16.77" y1="-71.43" x2="41.59" y2="-70.16"></line><line class="link fake transparent" x1="29.64" y1="-79.69" x2="28.97" y2="-66.59"></line><line class="link fake transparent" x1="29.64" y1="-79.69" x2="35.90" y2="-55.54"></line><line class="link fake transparent" x1="41.59" y1="-70.16" x2="28.97" y2="-66.59"></line><line class="link fake transparent" x1="41.59" y1="-70.16" x2="20.91" y2="-56.31"></line><line class="link fake transparent" x1="35.90" y1="-55.54" x2="28.97" y2="-66.59"></line><line class="link fake transparent" x1="35.90" y1="-55.54" x2="16.77" y2="-71.43"></line><line class="link fake transparent" x1="3.08" y1="112.61" x2="12.79" y2="101.01"></line><line class="link fake transparent" x1="3.08" y1="112.61" x2="22.37" y2="89.27"></line><line class="link fake transparent" x1="-2.10" y1="98.44" x2="12.79" y2="101.01"></line><line class="link fake transparent" x1="-2.10" y1="98.44" x2="27.60" y2="103.73"></line><line class="link fake transparent" x1="7.79" y1="86.74" x2="12.79" y2="101.01"></line><line class="link fake transparent" x1="7.79" y1="86.74" x2="17.75" y2="115.32"></line><line class="link fake transparent" x1="22.37" y1="89.27" x2="12.79" y2="101.01"></line><line class="link fake transparent" x1="22.37" y1="89.27" x2="3.08" y2="112.61"></line><line class="link fake transparent" x1="27.60" y1="103.73" x2="12.79" y2="101.01"></line><line class="link fake transparent" x1="27.60" y1="103.73" x2="-2.10" y2="98.44"></line><line class="link fake transparent" x1="17.75" y1="115.32" x2="12.79" y2="101.01"></line><line class="link fake transparent" x1="17.75" y1="115.32" x2="7.79" y2="86.74"></line></g><g><g class="noselect gnode" struct_name="m" transform="translate(-7.83,140.93)" r="6.5"><circle class="node" r="6" node_type="nucleotide" style="fill: lightsalmon;"></circle><text text-anchor="middle" font-size="8" font-weight="bold" y="2.5" class="node-label">U</text></g><g class="noselect gnode" struct_name="m" transform="translate(0.11,127.62)" r="6.5"><circle class="node" r="6" node_type="nucleotide" style="fill: lightgreen;"></circle><text text-anchor="middle" font-size="8" font-weight="bold" y="2.5" class="node-label">U</text></g><g class="noselect gnode" struct_name="m" transform="translate(3.08,112.61)" r="6.5"><circle class="node" r="6" node_type="nucleotide" style="fill: lightgreen;"></circle><text text-anchor="middle" font-size="8" font-weight="bold" y="2.5" class="node-label">C</text></g><g class="noselect gnode" struct_name="m" transform="translate(-2.10,98.44)" r="6.5"><circle class="node" r="6" node_type="nucleotide" style="fill: rgb(219, 219, 141);"></circle><text text-anchor="middle" font-size="8" font-weight="bold" y="2.5" class="node-label">G</text></g><g class="noselect gnode" struct_name="m" transform="translate(7.79,86.74)" r="6.5"><circle class="node" r="6" node_type="nucleotide" style="fill: lightgreen;"></circle><text text-anchor="middle" font-size="8" font-weight="bold" y="2.5" class="node-label">G</text></g><g class="noselect gnode" struct_name="m" transform="translate(10.46,71.18)" r="6.5"><circle class="node" r="6" node_type="nucleotide" style="fill: lightgreen;"></circle><text text-anchor="middle" font-size="8" font-weight="bold" y="2.5" class="node-label">A</text></g><g class="noselect gnode" struct_name="m" transform="translate(12.75,55.45)" r="6.5"><circle class="node" r="6" node_type="nucleotide" style="fill: lightgreen;"></circle><text text-anchor="middle" font-size="8" font-weight="bold" y="2.5" class="node-label">A</text></g><g class="noselect gnode" struct_name="m" transform="translate(14.77,39.60)" r="6.5"><circle class="node" r="6" node_type="nucleotide" style="fill: lightgreen;"></circle><text text-anchor="middle" font-size="8" font-weight="bold" y="2.5" class="node-label">A</text></g><g class="noselect gnode" struct_name="m" transform="translate(16.45,23.66)" r="6.5"><circle class="node" r="6" node_type="nucleotide" style="fill: lightgreen;"></circle><text text-anchor="middle" font-size="8" font-weight="bold" y="2.5" class="node-label">G</text></g><g class="noselect gnode" struct_name="m" transform="translate(17.77,7.68)" r="6.5"><circle class="node" r="6" node_type="nucleotide" style="fill: lightgreen;"></circle><text text-anchor="middle" font-size="8" font-weight="bold" y="2.5" class="node-label">G</text></g><g class="noselect gnode" struct_name="m" transform="translate(18.81,-8.42)" r="6.5"><circle class="node" r="6" node_type="nucleotide" style="fill: lightgreen;"></circle><text text-anchor="middle" font-size="8" font-weight="bold" y="2.5" class="node-label">A</text></g><g class="noselect gnode" struct_name="m" transform="translate(19.58,-24.55)" r="6.5"><circle class="node" r="6" node_type="nucleotide" style="fill: lightgreen;"></circle><text text-anchor="middle" font-size="8" font-weight="bold" y="2.5" class="node-label">C</text></g><g class="noselect gnode" struct_name="m" transform="translate(20.31,-40.60)" r="6.5"><circle class="node" r="6" node_type="nucleotide" style="fill: lightgreen;"></circle><text text-anchor="middle" font-size="8" font-weight="bold" y="2.5" class="node-label">G</text></g><g class="noselect gnode" struct_name="m" transform="translate(20.91,-56.31)" r="6.5"><circle class="node" r="6" node_type="nucleotide" style="fill: lightgreen;"></circle><text text-anchor="middle" font-size="8" font-weight="bold" y="2.5" class="node-label">U</text></g><g class="noselect gnode" struct_name="m" transform="translate(16.77,-71.43)" r="6.5"><circle class="node" r="6" node_type="nucleotide" style="fill: lightblue;"></circle><text text-anchor="middle" font-size="8" font-weight="bold" y="2.5" class="node-label">U</text></g><g class="noselect gnode" struct_name="m" transform="translate(29.64,-79.69)" r="6.5"><circle class="node" r="6" node_type="nucleotide" style="fill: lightblue;"></circle><text text-anchor="middle" font-size="8" font-weight="bold" y="2.5" class="node-label">C</text></g><g class="noselect gnode" struct_name="m" transform="translate(41.59,-70.16)" r="6.5"><circle class="node" r="6" node_type="nucleotide" style="fill: lightblue;"></circle><text text-anchor="middle" font-size="8" font-weight="bold" y="2.5" class="node-label">U</text></g><g class="noselect gnode" struct_name="m" transform="translate(35.90,-55.54)" r="6.5"><circle class="node" r="6" node_type="nucleotide" style="fill: lightgreen;"></circle><text text-anchor="middle" font-size="8" font-weight="bold" y="2.5" class="node-label">A</text></g><g class="noselect gnode" struct_name="m" transform="translate(34.90,-39.88)" r="6.5"><circle class="node" r="6" node_type="nucleotide" style="fill: lightgreen;"></circle><text text-anchor="middle" font-size="8" font-weight="bold" y="2.5" class="node-label">U</text></g><g class="noselect gnode" struct_name="m" transform="translate(34.10,-23.85)" r="6.5"><circle class="node" r="6" node_type="nucleotide" style="fill: lightgreen;"></circle><text text-anchor="middle" font-size="8" font-weight="bold" y="2.5" class="node-label">G</text></g><g class="noselect gnode" struct_name="m" transform="translate(33.23,-7.60)" r="6.5"><circle class="node" r="6" node_type="nucleotide" style="fill: lightgreen;"></circle><text text-anchor="middle" font-size="8" font-weight="bold" y="2.5" class="node-label">U</text></g><g class="noselect gnode" struct_name="m" transform="translate(32.24,8.73)" r="6.5"><circle class="node" r="6" node_type="nucleotide" style="fill: lightgreen;"></circle><text text-anchor="middle" font-size="8" font-weight="bold" y="2.5" class="node-label">C</text></g><g class="noselect gnode" struct_name="m" transform="translate(30.89,25.01)" r="6.5"><circle class="node" r="6" node_type="nucleotide" style="fill: lightgreen;"></circle><text text-anchor="middle" font-size="8" font-weight="bold" y="2.5" class="node-label">C</text></g><g class="noselect gnode" struct_name="m" transform="translate(29.19,41.26)" r="6.5"><circle class="node" r="6" node_type="nucleotide" style="fill: lightgreen;"></circle><text text-anchor="middle" font-size="8" font-weight="bold" y="2.5" class="node-label">U</text></g><g class="noselect gnode" struct_name="m" transform="translate(27.19,57.40)" r="6.5"><circle class="node" r="6" node_type="nucleotide" style="fill: lightgreen;"></circle><text text-anchor="middle" font-size="8" font-weight="bold" y="2.5" class="node-label">U</text></g><g class="noselect gnode" struct_name="m" transform="translate(24.87,73.41)" r="6.5"><circle class="node" r="6" node_type="nucleotide" style="fill: lightgreen;"></circle><text text-anchor="middle" font-size="8" font-weight="bold" y="2.5" class="node-label">U</text></g><g class="noselect gnode" struct_name="m" transform="translate(22.37,89.27)" r="6.5"><circle class="node" r="6" node_type="nucleotide" style="fill: lightgreen;"></circle><text text-anchor="middle" font-size="8" font-weight="bold" y="2.5" class="node-label">C</text></g><g class="noselect gnode" struct_name="m" transform="translate(27.60,103.73)" r="6.5"><circle class="node" r="6" node_type="nucleotide" style="fill: rgb(219, 219, 141);"></circle><text text-anchor="middle" font-size="8" font-weight="bold" y="2.5" class="node-label">G</text></g><g class="noselect gnode" struct_name="m" transform="translate(17.75,115.32)" r="6.5"><circle class="node" r="6" node_type="nucleotide" style="fill: lightgreen;"></circle><text text-anchor="middle" font-size="8" font-weight="bold" y="2.5" class="node-label">G</text></g><g class="noselect gnode" struct_name="m" transform="translate(14.85,130.53)" r="6.5"><circle class="node" r="6" node_type="nucleotide" style="fill: lightgreen;"></circle><text text-anchor="middle" font-size="8" font-weight="bold" y="2.5" class="node-label">A</text></g><g class="noselect gnode" struct_name="m" transform="translate(2.17,8.09)" r="6.5"><circle class="node label" r="6" node_type="label"></circle><text text-anchor="middle" font-size="8" font-weight="bold" y="2.5" class="node-label">10</text></g><g class="noselect gnode" struct_name="m" transform="translate(49.54,-26.06)" r="6.5"><circle class="node label" r="6" node_type="label"></circle><text text-anchor="middle" font-size="8" font-weight="bold" y="2.5" class="node-label">20</text></g><g class="noselect gnode" struct_name="m" transform="translate(18.29,145.71)" r="6.5"><circle class="node label" r="6" node_type="label"></circle><text text-anchor="middle" font-size="8" font-weight="bold" y="2.5" class="node-label">30</text></g><g class="noselect gnode" transform="translate(16.44,80.18)" r="6.5"><circle class="node" r="0" node_type="middle"></circle><text text-anchor="middle" font-size="8" font-weight="bold" y="2.5" class="node-label"></text></g><g class="noselect gnode" transform="translate(18.90,64.35)" r="6.5"><circle class="node" r="0" node_type="middle"></circle><text text-anchor="middle" font-size="8" font-weight="bold" y="2.5" class="node-label"></text></g><g class="noselect gnode" transform="translate(21.05,48.46)" r="6.5"><circle class="node" r="0" node_type="middle"></circle><text text-anchor="middle" font-size="8" font-weight="bold" y="2.5" class="node-label"></text></g><g class="noselect gnode" transform="translate(22.91,32.41)" r="6.5"><circle class="node" r="0" node_type="middle"></circle><text text-anchor="middle" font-size="8" font-weight="bold" y="2.5" class="node-label"></text></g><g class="noselect gnode" transform="translate(24.43,16.32)" r="6.5"><circle class="node" r="0" node_type="middle"></circle><text text-anchor="middle" font-size="8" font-weight="bold" y="2.5" class="node-label"></text></g><g class="noselect gnode" transform="translate(25.58,0.12)" r="6.5"><circle class="node" r="0" node_type="middle"></circle><text text-anchor="middle" font-size="8" font-weight="bold" y="2.5" class="node-label"></text></g><g class="noselect gnode" transform="translate(26.45,-16.13)" r="6.5"><circle class="node" r="0" node_type="middle"></circle><text text-anchor="middle" font-size="8" font-weight="bold" y="2.5" class="node-label"></text></g><g class="noselect gnode" transform="translate(27.20,-32.26)" r="6.5"><circle class="node" r="0" node_type="middle"></circle><text text-anchor="middle" font-size="8" font-weight="bold" y="2.5" class="node-label"></text></g><g class="noselect gnode" transform="translate(27.99,-48.19)" r="6.5"><circle class="node" r="0" node_type="middle"></circle><text text-anchor="middle" font-size="8" font-weight="bold" y="2.5" class="node-label"></text></g><g class="noselect gnode" transform="translate(8.97,121.58)" r="6.5"><circle class="node" r="0" node_type="middle"></circle><text text-anchor="middle" font-size="8" font-weight="bold" y="2.5" class="node-label"></text></g><g class="noselect gnode" transform="translate(21.43,141.00)" r="6.5"><circle class="node" r="0" node_type="middle"></circle><text text-anchor="middle" font-size="8" font-weight="bold" y="2.5" class="node-label"></text></g><g class="noselect gnode" transform="translate(14.11,155.71)" r="6.5"><circle class="node" r="0" node_type="middle"></circle><text text-anchor="middle" font-size="8" font-weight="bold" y="2.5" class="node-label"></text></g><g class="noselect gnode" transform="translate(5.09,139.35)" r="6.5"><circle class="node" r="0" node_type="middle"></circle><text text-anchor="middle" font-size="8" font-weight="bold" y="2.5" class="node-label"></text></g><g class="noselect gnode" transform="translate(28.97,-66.59)" r="6.5"><circle class="node" r="0" node_type="middle"></circle><text text-anchor="middle" font-size="8" font-weight="bold" y="2.5" class="node-label"></text></g><g class="noselect gnode" transform="translate(12.79,101.01)" r="6.5"><circle class="node" r="0" node_type="middle"></circle><text text-anchor="middle" font-size="8" font-weight="bold" y="2.5" class="node-label"></text></g></g><line class="drag_line" x1="0" y1="0" x2="0" y2="0"></line></g></g></svg>