<svg xmlns="http://www.w3.org/2000/svg" viewBox="0 0 760 640" width="760" height="640"><style>svg {
  display: block;
  min-width: 100%;
  width: 100%;
  min-height: 100%;
}

circle.node {
  stroke: #ccc;
  stroke-width: 1px;
  opacity: 1;
  fill: white;
}

circle.node.label {
    stroke: transparent;
    stroke-width: 0;
    fill: white;
}

circle.outline_node {
    stroke-width: 1px;
    fill: red;
}

circle.protein {
    fill: gray;
    fill-opacity: 0.5;
    stroke-width: 4;
}

circle.hidden_outline {
    stroke-width: 0px;
}


line.link {
  stroke: #999;
  stroke-opacity: 0.8;
  stroke-width: 2;
}

line.basepair {
  stroke: red;
}

line.intermolecule {
  stroke: blue;
}

line.chain_chain {
  stroke-dasharray: 3,3;
}

line.fake {
  stroke: green;
}

.transparent {
    fill: transparent;
    stroke-width: 0;
    stroke-opacity: 0;
    opacity: 0;
    visibility: hidden;
}

.drag_line {
  stroke: #999;
  stroke-width: 2;
  pointer-events: none;
}

.drag_line_hidden {
  stroke: #999;
  stroke-width: 0;
  pointer-events: none;
}

.d3-tip {
    line-height: 1;
    font-weight: bold;
    padding: 6px;
    background: rgba(0, 0, 0, 0.6);
    color: #fff;
    border-radius: 4px;
    pointer-events: none;
          }

text.node-label {
    font-weight: bold;
    font-family: Tahoma, Geneva, sans-serif;
    color: rgb(100,100,100);
    pointer-events: none;
}

text {
    pointer-events: none;
}

g.gnode {

}

circle.outline_node.selected {
    visibility: visible;
}

circle.outline_node {
    visibility: hidden;
}

.brush .extent {
  fill-opacity: .1;
  stroke: #fff;
  shape-rendering: crispEdges;
}

.noselect {
    -webkit-touch-callout: none;
    -webkit-user-select: none;
    -khtml-user-select: none;
    -moz-user-select: none;
    -ms-user-select: none;
    user-select: none;
}

svg {
  display: block;
  min-width: 100%;
  width: 100%;
  min-height: 100%;
}

circle.node {
  stroke: #ccc;
  stroke-width: 1px;
  opacity: 1;
  fill: white;
}

circle.node.label {
    stroke: transparent;
    stroke-width: 0;
    fill: white;
}

circle.outline_node {
    stroke-width: 1px;
    fill: red;
}

circle.protein {
    fill: gray;
    fill-opacity: 0.5;
    stroke-width: 4;
}

circle.hidden_outline {
    stroke-width: 0px;
}


line.link {
  stroke: #999;
  stroke-opacity: 0.8;
  stroke-width: 2;
}

line.basepair {
  stroke: red;
}

line.intermolecule {
  stroke: blue;
}

line.chain_chain {
  stroke-dasharray: 3,3;
}

line.fake {
  stroke: green;
}

.transparent {
    fill: transparent;
    stroke-width: 0;
    stroke-opacity: 0;
    opacity: 0;
    visibility: hidden;
}

.drag_line {
  stroke: #999;
  stroke-width: 2;
  pointer-events: none;
}

.drag_line_hidden {
  stroke: #999;
  stroke-width: 0;
  pointer-events: none;
}

.d3-tip {
    line-height: 1;
    font-weight: bold;
    padding: 6px;
    background: rgba(0, 0, 0, 0.6);
    color: #fff;
    border-radius: 4px;
    pointer-events: none;
          }

text.node-label {
    font-weight: bold;
    font-family: Tahoma, Geneva, sans-serif;
    color: rgb(100,100,100);
    pointer-events: none;
}

text {
    pointer-events: none;
}

g.gnode {

}

circle.outline_node.selected {
    visibility: visible;
}

circle.outline_node {
    visibility: hidden;
}

.brush .extent {
  fill-opacity: .1;
  stroke: #fff;
  shape-rendering: crispEdges;
}

.noselect {
    -webkit-touch-callout: none;
    -webkit-user-select: none;
    -khtml-user-select: none;
    -moz-user-select: none;
    -ms-user-select: none;
    user-select: none;
}
/*# sourceURL=/Users/yumanakamura/ipy_sandbox/sandbox/claude_sandbox/mrna-transformer-worktrees/feat-issue57-switch-derna-knotty/scripts/eval/prerender/forna_vendor/fornac.css*/</style><style></style><g><g class="brush" style="pointer-events: all; -webkit-tap-highlight-color: rgba(0, 0, 0, 0);"><rect class="background" x="0" width="760" y="0" height="640" style="visibility: hidden; cursor: auto;"></rect><rect class="extent" x="0" width="0" y="0" height="0" style="cursor: move;"></rect><g class="resize n" transform="translate(0,0)" style="cursor: ns-resize; display: none;"><rect y="-3" width="0" height="6" style="visibility: hidden;"></rect></g><g class="resize e" transform="translate(0,0)" style="cursor: ew-resize; display: none;"><rect x="-3" width="6" height="0" style="visibility: hidden;"></rect></g><g class="resize s" transform="translate(0,0)" style="cursor: ns-resize; display: none;"><rect y="-3" width="0" height="6" style="visibility: hidden;"></rect></g><g class="resize w" transform="translate(0,0)" style="cursor: ew-resize; display: none;"><rect x="-3" width="6" height="0" style="visibility: hidden;"></rect></g><g class="resize nw" transform="translate(0,0)" style="cursor: nwse-resize; display: none;"><rect x="-3" y="-3" width="6" height="6" style="visibility: hidden;"></rect></g><g class="resize ne" transform="translate(0,0)" style="cursor: nesw-resize; display: none;"><rect x="-3" y="-3" width="6" height="6" style="visibility: hidden;"></rect></g><g class="resize se" transform="translate(0,0)" style="cursor: nwse-resize; display: none;"><rect x="-3" y="-3" width="6" height="6" style="visibility: hidden;"></rect></g><g class="resize sw" transform="translate(0,0)" style="cursor: nesw-resize; display: none;"><rect x="-3" y="-3" width="6" height="6" style="visibility: hidden;"></rect></g></g><g transform="translate(87.82,-128.41) scale(3.65)"><g><line class="link backbone" x1="45.63" y1="191.68" x2="31.59" y2="196.81"></line><line class="link backbone" x1="31.59" y1="196.81" x2="16.81" y2="194.69"></line><line class="link backbone" x1="16.81" y1="194.69" x2="4.64" y2="186.04"></line><line class="link backbone" x1="4.64" y1="186.04" x2="-2.47" y2="172.92"></line><line class="link backbone" x1="-2.47" y1="172.92" x2="-2.74" y2="157.93"></line><line class="link backbone" x1="-2.74" y1="157.93" x2="4.13" y2="144.61"></line><line class="link backbone" x1="4.13" y1="144.61" x2="16.55" y2="135.97"></line><line class="link backbone" x1="16.55" y1="135.97" x2="31.33" y2="134.00"></line><line class="link basepair" x1="46.07" y1="138.72" x2="56.01" y2="149.79"></line><line class="link backbone" x1="31.33" y1="134.00" x2="46.07" y2="138.72"></line><line class="link basepair" x1="58.62" y1="128.36" x2="67.83" y2="139.55"></line><line class="link backbone" x1="46.07" y1="138.72" x2="58.62" y2="128.36"></line><line class="link basepair" x1="71.27" y1="118.15" x2="80.36" y2="129.44"></line><line class="link backbone" x1="58.62" y1="128.36" x2="71.27" y2="118.15"></line><line class="link basepair" x1="83.77" y1="108.04" x2="93.00" y2="119.22"></line><line class="link backbone" x1="71.27" y1="118.15" x2="83.77" y2="108.04"></line><line class="link basepair" x1="95.55" y1="97.74" x2="105.51" y2="108.89"></line><line class="link backbone" x1="83.77" y1="108.04" x2="95.55" y2="97.74"></line><line class="link backbone" x1="95.55" y1="97.74" x2="98.08" y2="82.50"></line><line class="link backbone" x1="98.08" y1="82.50" x2="111.26" y2="75.07"></line><line class="link basepair" x1="125.48" y1="80.73" x2="129.96" y2="95.15"></line><line class="link backbone" x1="111.26" y1="75.07" x2="125.48" y2="80.73"></line><line class="link backbone" x1="125.48" y1="80.73" x2="132.38" y2="67.23"></line><line class="link backbone" x1="132.38" y1="67.23" x2="146.60" y2="62.49"></line><line class="link backbone" x1="146.60" y1="62.49" x2="159.91" y2="69.41"></line><line class="link backbone" x1="159.91" y1="69.41" x2="164.76" y2="83.54"></line><line class="link backbone" x1="164.76" y1="83.54" x2="158.07" y2="97.01"></line><line class="link backbone" x1="158.07" y1="97.01" x2="143.84" y2="101.71"></line><line class="link basepair" x1="129.96" y1="95.15" x2="125.48" y2="80.73"></line><line class="link backbone" x1="143.84" y1="101.71" x2="129.96" y2="95.15"></line><line class="link backbone" x1="129.96" y1="95.15" x2="121.08" y2="107.79"></line><line class="link basepair" x1="105.51" y1="108.89" x2="95.55" y2="97.74"></line><line class="link backbone" x1="121.08" y1="107.79" x2="105.51" y2="108.89"></line><line class="link basepair" x1="93.00" y1="119.22" x2="83.77" y2="108.04"></line><line class="link backbone" x1="105.51" y1="108.89" x2="93.00" y2="119.22"></line><line class="link basepair" x1="80.36" y1="129.44" x2="71.27" y2="118.15"></line><line class="link backbone" x1="93.00" y1="119.22" x2="80.36" y2="129.44"></line><line class="link basepair" x1="67.83" y1="139.55" x2="58.62" y2="128.36"></line><line class="link backbone" x1="80.36" y1="129.44" x2="67.83" y2="139.55"></line><line class="link basepair" x1="56.01" y1="149.79" x2="46.07" y2="138.72"></line><line class="link backbone" x1="67.83" y1="139.55" x2="56.01" y2="149.79"></line><line class="link label_link" x1="46.07" y1="138.72" x2="39.07" y2="124.86"></line><line class="link label_link" x1="159.91" y1="69.41" x2="170.38" y2="58.10"></line><line class="link label_link" x1="56.01" y1="149.79" x2="50.78" y2="164.27"></line><line class="link fake transparent" x1="46.07" y1="138.72" x2="56.95" y2="139.09"></line><line class="link fake transparent" x1="46.07" y1="138.72" x2="67.83" y2="139.55"></line><line class="link fake transparent" x1="58.62" y1="128.36" x2="56.95" y2="139.09"></line><line class="link fake transparent" x1="67.83" y1="139.55" x2="56.95" y2="139.09"></line><line class="link fake transparent" x1="56.01" y1="149.79" x2="56.95" y2="139.09"></line><line class="link fake transparent" x1="58.62" y1="128.36" x2="69.49" y2="128.86"></line><line class="link fake transparent" x1="71.27" y1="118.15" x2="69.49" y2="128.86"></line><line class="link fake transparent" x1="80.36" y1="129.44" x2="69.49" y2="128.86"></line><line class="link fake transparent" x1="67.83" y1="139.55" x2="69.49" y2="128.86"></line><line class="link fake transparent" x1="71.27" y1="118.15" x2="82.13" y2="118.74"></line><line class="link fake transparent" x1="83.77" y1="108.04" x2="82.13" y2="118.74"></line><line class="link fake transparent" x1="93.00" y1="119.22" x2="82.13" y2="118.74"></line><line class="link fake transparent" x1="80.36" y1="129.44" x2="82.13" y2="118.74"></line><line class="link fake transparent" x1="83.77" y1="108.04" x2="94.63" y2="108.50"></line><line class="link fake transparent" x1="95.55" y1="97.74" x2="94.63" y2="108.50"></line><line class="link fake transparent" x1="105.51" y1="108.89" x2="94.63" y2="108.50"></line><line class="link fake transparent" x1="93.00" y1="119.22" x2="94.63" y2="108.50"></line><line class="link fake transparent" x1="45.63" y1="191.68" x2="28.26" y2="165.10"></line><line class="link fake transparent" x1="45.63" y1="191.68" x2="4.13" y2="144.61"></line><line class="link fake transparent" x1="31.59" y1="196.81" x2="28.26" y2="165.10"></line><line class="link fake transparent" x1="31.59" y1="196.81" x2="16.55" y2="135.97"></line><line class="link fake transparent" x1="16.81" y1="194.69" x2="28.26" y2="165.10"></line><line class="link fake transparent" x1="16.81" y1="194.69" x2="31.33" y2="134.00"></line><line class="link fake transparent" x1="4.64" y1="186.04" x2="28.26" y2="165.10"></line><line class="link fake transparent" x1="4.64" y1="186.04" x2="46.07" y2="138.72"></line><line class="link fake transparent" x1="-2.47" y1="172.92" x2="28.26" y2="165.10"></line><line class="link fake transparent" x1="-2.47" y1="172.92" x2="56.01" y2="149.79"></line><line class="link fake transparent" x1="-2.74" y1="157.93" x2="28.26" y2="165.10"></line><line class="link fake transparent" x1="-2.74" y1="157.93" x2="59.65" y2="165.00"></line><line class="link fake transparent" x1="4.13" y1="144.61" x2="28.26" y2="165.10"></line><line class="link fake transparent" x1="4.13" y1="144.61" x2="56.82" y2="179.16"></line><line class="link fake transparent" x1="16.55" y1="135.97" x2="28.26" y2="165.10"></line><line class="link fake transparent" x1="16.55" y1="135.97" x2="45.63" y2="191.68"></line><line class="link fake transparent" x1="31.33" y1="134.00" x2="28.26" y2="165.10"></line><line class="link fake transparent" x1="31.33" y1="134.00" x2="31.59" y2="196.81"></line><line class="link fake transparent" x1="46.07" y1="138.72" x2="28.26" y2="165.10"></line><line class="link fake transparent" x1="46.07" y1="138.72" x2="16.81" y2="194.69"></line><line class="link fake transparent" x1="56.01" y1="149.79" x2="28.26" y2="165.10"></line><line class="link fake transparent" x1="56.01" y1="149.79" x2="4.64" y2="186.04"></line><line class="link fake transparent" x1="125.48" y1="80.73" x2="145.03" y2="82.21"></line><line class="link fake transparent" x1="125.48" y1="80.73" x2="164.76" y2="83.54"></line><line class="link fake transparent" x1="132.38" y1="67.23" x2="145.03" y2="82.21"></line><line class="link fake transparent" x1="132.38" y1="67.23" x2="158.07" y2="97.01"></line><line class="link fake transparent" x1="146.60" y1="62.49" x2="145.03" y2="82.21"></line><line class="link fake transparent" x1="146.60" y1="62.49" x2="143.84" y2="101.71"></line><line class="link fake transparent" x1="159.91" y1="69.41" x2="145.03" y2="82.21"></line><line class="link fake transparent" x1="159.91" y1="69.41" x2="129.96" y2="95.15"></line><line class="link fake transparent" x1="164.76" y1="83.54" x2="145.03" y2="82.21"></line><line class="link fake transparent" x1="164.76" y1="83.54" x2="125.48" y2="80.73"></line><line class="link fake transparent" x1="158.07" y1="97.01" x2="145.03" y2="82.21"></line><line class="link fake transparent" x1="158.07" y1="97.01" x2="132.38" y2="67.23"></line><line class="link fake transparent" x1="143.84" y1="101.71" x2="145.03" y2="82.21"></line><line class="link fake transparent" x1="143.84" y1="101.71" x2="146.60" y2="62.49"></line><line class="link fake transparent" x1="129.96" y1="95.15" x2="145.03" y2="82.21"></line><line class="link fake transparent" x1="129.96" y1="95.15" x2="159.91" y2="69.41"></line><line class="link fake transparent" x1="95.55" y1="97.74" x2="112.50" y2="92.67"></line><line class="link fake transparent" x1="95.55" y1="97.74" x2="125.48" y2="80.73"></line><line class="link fake transparent" x1="98.08" y1="82.50" x2="112.50" y2="92.67"></line><line class="link fake transparent" x1="98.08" y1="82.50" x2="129.96" y2="95.15"></line><line class="link fake transparent" x1="111.26" y1="75.07" x2="112.50" y2="92.67"></line><line class="link fake transparent" x1="111.26" y1="75.07" x2="121.08" y2="107.79"></line><line class="link fake transparent" x1="125.48" y1="80.73" x2="112.50" y2="92.67"></line><line class="link fake transparent" x1="125.48" y1="80.73" x2="105.51" y2="108.89"></line><line class="link fake transparent" x1="129.96" y1="95.15" x2="112.50" y2="92.67"></line><line class="link fake transparent" x1="129.96" y1="95.15" x2="95.55" y2="97.74"></line><line class="link fake transparent" x1="121.08" y1="107.79" x2="112.50" y2="92.67"></line><line class="link fake transparent" x1="121.08" y1="107.79" x2="98.08" y2="82.50"></line><line class="link fake transparent" x1="105.51" y1="108.89" x2="112.50" y2="92.67"></line><line class="link fake transparent" x1="105.51" y1="108.89" x2="111.26" y2="75.07"></line></g><g><g class="noselect gnode" struct_name="m" transform="translate(45.63,191.68)" r="6.5"><circle class="node" r="6" node_type="nucleotide" style="fill: lightsalmon;"></circle><text text-anchor="middle" font-size="8" font-weight="bold" y="2.5" class="node-label">U</text></g><g class="noselect gnode" struct_name="m" transform="translate(31.59,196.81)" r="6.5"><circle class="node" r="6" node_type="nucleotide" style="fill: lightsalmon;"></circle><text text-anchor="middle" font-size="8" font-weight="bold" y="2.5" class="node-label">C</text></g><g class="noselect gnode" struct_name="m" transform="translate(16.81,194.69)" r="6.5"><circle class="node" r="6" node_type="nucleotide" style="fill: lightsalmon;"></circle><text text-anchor="middle" font-size="8" font-weight="bold" y="2.5" class="node-label">U</text></g><g class="noselect gnode" struct_name="m" transform="translate(4.64,186.04)" r="6.5"><circle class="node" r="6" node_type="nucleotide" style="fill: lightsalmon;"></circle><text text-anchor="middle" font-size="8" font-weight="bold" y="2.5" class="node-label">C</text></g><g class="noselect gnode" struct_name="m" transform="translate(-2.47,172.92)" r="6.5"><circle class="node" r="6" node_type="nucleotide" style="fill: lightsalmon;"></circle><text text-anchor="middle" font-size="8" font-weight="bold" y="2.5" class="node-label">C</text></g><g class="noselect gnode" struct_name="m" transform="translate(-2.74,157.93)" r="6.5"><circle class="node" r="6" node_type="nucleotide" style="fill: lightsalmon;"></circle><text text-anchor="middle" font-size="8" font-weight="bold" y="2.5" class="node-label">U</text></g><g class="noselect gnode" struct_name="m" transform="translate(4.13,144.61)" r="6.5"><circle class="node" r="6" node_type="nucleotide" style="fill: lightsalmon;"></circle><text text-anchor="middle" font-size="8" font-weight="bold" y="2.5" class="node-label">A</text></g><g class="noselect gnode" struct_name="m" transform="translate(16.55,135.97)" r="6.5"><circle class="node" r="6" node_type="nucleotide" style="fill: lightsalmon;"></circle><text text-anchor="middle" font-size="8" font-weight="bold" y="2.5" class="node-label">A</text></g><g class="noselect gnode" struct_name="m" transform="translate(31.33,134.00)" r="6.5"><circle class="node" r="6" node_type="nucleotide" style="fill: lightsalmon;"></circle><text text-anchor="middle" font-size="8" font-weight="bold" y="2.5" class="node-label">A</text></g><g class="noselect gnode" struct_name="m" transform="translate(46.07,138.72)" r="6.5"><circle class="node" r="6" node_type="nucleotide" style="fill: lightgreen;"></circle><text text-anchor="middle" font-size="8" font-weight="bold" y="2.5" class="node-label">C</text></g><g class="noselect gnode" struct_name="m" transform="translate(58.62,128.36)" r="6.5"><circle class="node" r="6" node_type="nucleotide" style="fill: lightgreen;"></circle><text text-anchor="middle" font-size="8" font-weight="bold" y="2.5" class="node-label">C</text></g><g class="noselect gnode" struct_name="m" transform="translate(71.27,118.15)" r="6.5"><circle class="node" r="6" node_type="nucleotide" style="fill: lightgreen;"></circle><text text-anchor="middle" font-size="8" font-weight="bold" y="2.5" class="node-label">A</text></g><g class="noselect gnode" struct_name="m" transform="translate(83.77,108.04)" r="6.5"><circle class="node" r="6" node_type="nucleotide" style="fill: lightgreen;"></circle><text text-anchor="middle" font-size="8" font-weight="bold" y="2.5" class="node-label">A</text></g><g class="noselect gnode" struct_name="m" transform="translate(95.55,97.74)" r="6.5"><circle class="node" r="6" node_type="nucleotide" style="fill: lightgreen;"></circle><text text-anchor="middle" font-size="8" font-weight="bold" y="2.5" class="node-label">U</text></g><g class="noselect gnode" struct_name="m" transform="translate(98.08,82.50)" r="6.5"><circle class="node" r="6" node_type="nucleotide" style="fill: rgb(219, 219, 141);"></circle><text text-anchor="middle" font-size="8" font-weight="bold" y="2.5" class="node-label">G</text></g><g class="noselect gnode" struct_name="m" transform="translate(111.26,75.07)" r="6.5"><circle class="node" r="6" node_type="nucleotide" style="fill: rgb(219, 219, 141);"></circle><text text-anchor="middle" font-size="8" font-weight="bold" y="2.5" class="node-label">A</text></g><g class="noselect gnode" struct_name="m" transform="translate(125.48,80.73)" r="6.5"><circle class="node" r="6" node_type="nucleotide" style="fill: lightgreen;"></circle><text text-anchor="middle" font-size="8" font-weight="bold" y="2.5" class="node-label">C</text></g><g class="noselect gnode" struct_name="m" transform="translate(132.38,67.23)" r="6.5"><circle class="node" r="6" node_type="nucleotide" style="fill: lightblue;"></circle><text text-anchor="middle" font-size="8" font-weight="bold" y="2.5" class="node-label">G</text></g><g class="noselect gnode" struct_name="m" transform="translate(146.60,62.49)" r="6.5"><circle class="node" r="6" node_type="nucleotide" style="fill: lightblue;"></circle><text text-anchor="middle" font-size="8" font-weight="bold" y="2.5" class="node-label">U</text></g><g class="noselect gnode" struct_name="m" transform="translate(159.91,69.41)" r="6.5"><circle class="node" r="6" node_type="nucleotide" style="fill: lightblue;"></circle><text text-anchor="middle" font-size="8" font-weight="bold" y="2.5" class="node-label">A</text></g><g class="noselect gnode" struct_name="m" transform="translate(164.76,83.54)" r="6.5"><circle class="node" r="6" node_type="nucleotide" style="fill: lightblue;"></circle><text text-anchor="middle" font-size="8" font-weight="bold" y="2.5" class="node-label">U</text></g><g class="noselect gnode" struct_name="m" transform="translate(158.07,97.01)" r="6.5"><circle class="node" r="6" node_type="nucleotide" style="fill: lightblue;"></circle><text text-anchor="middle" font-size="8" font-weight="bold" y="2.5" class="node-label">A</text></g><g class="noselect gnode" struct_name="m" transform="translate(143.84,101.71)" r="6.5"><circle class="node" r="6" node_type="nucleotide" style="fill: lightblue;"></circle><text text-anchor="middle" font-size="8" font-weight="bold" y="2.5" class="node-label">A</text></g><g class="noselect gnode" struct_name="m" transform="translate(129.96,95.15)" r="6.5"><circle class="node" r="6" node_type="nucleotide" style="fill: lightgreen;"></circle><text text-anchor="middle" font-size="8" font-weight="bold" y="2.5" class="node-label">G</text></g><g class="noselect gnode" struct_name="m" transform="translate(121.08,107.79)" r="6.5"><circle class="node" r="6" node_type="nucleotide" style="fill: rgb(219, 219, 141);"></circle><text text-anchor="middle" font-size="8" font-weight="bold" y="2.5" class="node-label">A</text></g><g class="noselect gnode" struct_name="m" transform="translate(105.51,108.89)" r="6.5"><circle class="node" r="6" node_type="nucleotide" style="fill: lightgreen;"></circle><text text-anchor="middle" font-size="8" font-weight="bold" y="2.5" class="node-label">A</text></g><g class="noselect gnode" struct_name="m" transform="translate(93.00,119.22)" r="6.5"><circle class="node" r="6" node_type="nucleotide" style="fill: lightgreen;"></circle><text text-anchor="middle" font-size="8" font-weight="bold" y="2.5" class="node-label">U</text></g><g class="noselect gnode" struct_name="m" transform="translate(80.36,129.44)" r="6.5"><circle class="node" r="6" node_type="nucleotide" style="fill: lightgreen;"></circle><text text-anchor="middle" font-size="8" font-weight="bold" y="2.5" class="node-label">U</text></g><g class="noselect gnode" struct_name="m" transform="translate(67.83,139.55)" r="6.5"><circle class="node" r="6" node_type="nucleotide" style="fill: lightgreen;"></circle><text text-anchor="middle" font-size="8" font-weight="bold" y="2.5" class="node-label">G</text></g><g class="noselect gnode" struct_name="m" transform="translate(56.01,149.79)" r="6.5"><circle class="node" r="6" node_type="nucleotide" style="fill: lightgreen;"></circle><text text-anchor="middle" font-size="8" font-weight="bold" y="2.5" class="node-label">G</text></g><g class="noselect gnode" struct_name="m" transform="translate(39.07,124.86)" r="6.5"><circle class="node label" r="6" node_type="label"></circle><text text-anchor="middle" font-size="8" font-weight="bold" y="2.5" class="node-label">10</text></g><g class="noselect gnode" struct_name="m" transform="translate(170.38,58.10)" r="6.5"><circle class="node label" r="6" node_type="label"></circle><text text-anchor="middle" font-size="8" font-weight="bold" y="2.5" class="node-label">20</text></g><g class="noselect gnode" struct_name="m" transform="translate(50.78,164.27)" r="6.5"><circle class="node label" r="6" node_type="label"></circle><text text-anchor="middle" font-size="8" font-weight="bold" y="2.5" class="node-label">30</text></g><g class="noselect gnode" transform="translate(56.95,139.09)" r="6.5"><circle class="node" r="0" node_type="middle"></circle><text text-anchor="middle" font-size="8" font-weight="bold" y="2.5" class="node-label"></text></g><g class="noselect gnode" transform="translate(69.49,128.86)" r="6.5"><circle class="node" r="0" node_type="middle"></circle><text text-anchor="middle" font-size="8" font-weight="bold" y="2.5" class="node-label"></text></g><g class="noselect gnode" transform="translate(82.13,118.74)" r="6.5"><circle class="node" r="0" node_type="middle"></circle><text text-anchor="middle" font-size="8" font-weight="bold" y="2.5" class="node-label"></text></g><g class="noselect gnode" transform="translate(94.63,108.50)" r="6.5"><circle class="node" r="0" node_type="middle"></circle><text text-anchor="middle" font-size="8" font-weight="bold" y="2.5" class="node-label"></text></g><g class="noselect gnode" transform="translate(59.65,165.00)" r="6.5"><circle class="node" r="0" node_type="middle"></circle><text text-anchor="middle" font-size="8" font-weight="bold" y="2.5" class="node-label"></text></g><g class="noselect gnode" transform="translate(56.82,179.16)" r="6.5"><circle class="node" r="0" node_type="middle"></circle><text text-anchor="middle" font-size="8" font-weight="bold" y="2.5" class="node-label"></text></g><g class="noselect gnode" transform="translate(28.26,165.10)" r="6.5"><circle class="node" r="0" node_type="middle"></circle><text text-anchor="middle" font-size="8" font-weight="bold" y="2.5" class="node-label"></text></g><g class="noselect gnode" transform="translate(145.03,82.21)" r="6.5"><circle class="node" r="0" node_type="middle"></circle><text text-anchor="middle" font-size="8" font-weight="bold" y="2.5" class="node-label"></text></g><g class="noselect gnode" transform="translate(112.50,92.67)" r="6.5"><circle class="node" r="0" node_type="middle"></circle><text text-anchor="middle" font-size="8" font-weight="bold" y="2.5" class="node-label"></text></g></g><line class="drag_line" x1="0" y1="0" x2="0" y2="0"></line></g></g></svg>