<svg xmlns="http://www.w3.org/2000/svg" viewBox="-81.0 -173.5 254.7 192.3" width="255" height="192"><style></style><line x1="32.4" y1="-80.9" x2="38.0" y2="-67.0" stroke="#999" stroke-width="1.65" stroke-opacity="0.8"/><line x1="46.3" y1="-86.5" x2="51.9" y2="-72.6" stroke="#999" stroke-width="1.65" stroke-opacity="0.8"/><line x1="60.2" y1="-92.1" x2="65.8" y2="-78.2" stroke="#999" stroke-width="1.65" stroke-opacity="0.8"/><line x1="38.5" y1="-51.8" x2="89.4" y2="-60.8" stroke="#d9534f" stroke-width="1.65" stroke-opacity="0.6"/><line x1="33.8" y1="-37.4" x2="104.3" y2="-59.6" stroke="#d9534f" stroke-width="1.65" stroke-opacity="0.6"/><line x1="24.4" y1="-25.5" x2="118.6" y2="-63.9" stroke="#d9534f" stroke-width="1.65" stroke-opacity="0.6"/><line x1="11.6" y1="-17.5" x2="130.3" y2="-73.0" stroke="#d9534f" stroke-width="1.65" stroke-opacity="0.6"/><line x1="-3.2" y1="-14.3" x2="138.0" y2="-85.8" stroke="#d9534f" stroke-width="1.65" stroke-opacity="0.6"/><line x1="-18.3" y1="-16.5" x2="140.6" y2="-100.5" stroke="#d9534f" stroke-width="1.65" stroke-opacity="0.6"/><line x1="-31.6" y1="-23.6" x2="137.7" y2="-115.1" stroke="#d9534f" stroke-width="1.65" stroke-opacity="0.6"/><line x1="-41.8" y1="-34.9" x2="129.7" y2="-127.7" stroke="#d9534f" stroke-width="1.65" stroke-opacity="0.6"/><line x1="-47.4" y1="-48.9" x2="117.6" y2="-136.5" stroke="#d9534f" stroke-width="1.65" stroke-opacity="0.6"/><line x1="-47.9" y1="-64.1" x2="103.3" y2="-140.5" stroke="#d9534f" stroke-width="1.65" stroke-opacity="0.6"/><line x1="-43.2" y1="-78.5" x2="88.4" y2="-138.9" stroke="#d9534f" stroke-width="1.65" stroke-opacity="0.6"/><line x1="-33.8" y1="-90.4" x2="75.2" y2="-132.1" stroke="#d9534f" stroke-width="1.65" stroke-opacity="0.6"/><line x1="-20.9" y1="-98.4" x2="65.2" y2="-121.0" stroke="#d9534f" stroke-width="1.65" stroke-opacity="0.6"/><line x1="60.2" y1="-92.1" x2="46.3" y2="-86.5" stroke="#999" stroke-width="1.65" stroke-opacity="0.8"/><line x1="46.3" y1="-86.5" x2="32.4" y2="-80.9" stroke="#999" stroke-width="1.65" stroke-opacity="0.8"/><line x1="32.4" y1="-80.9" x2="22.1" y2="-91.9" stroke="#999" stroke-width="1.65" stroke-opacity="0.8"/><line x1="22.1" y1="-91.9" x2="8.8" y2="-99.0" stroke="#999" stroke-width="1.65" stroke-opacity="0.8"/><line x1="8.8" y1="-99.0" x2="-6.1" y2="-101.2" stroke="#999" stroke-width="1.65" stroke-opacity="0.8"/><line x1="-6.1" y1="-101.2" x2="-20.9" y2="-98.4" stroke="#999" stroke-width="1.65" stroke-opacity="0.8"/><line x1="-20.9" y1="-98.4" x2="-33.8" y2="-90.4" stroke="#999" stroke-width="1.65" stroke-opacity="0.8"/><line x1="-33.8" y1="-90.4" x2="-43.2" y2="-78.5" stroke="#999" stroke-width="1.65" stroke-opacity="0.8"/><line x1="-43.2" y1="-78.5" x2="-47.9" y2="-64.1" stroke="#999" stroke-width="1.65" stroke-opacity="0.8"/><line x1="-47.9" y1="-64.1" x2="-47.4" y2="-48.9" stroke="#999" stroke-width="1.65" stroke-opacity="0.8"/><line x1="-47.4" y1="-48.9" x2="-41.8" y2="-34.9" stroke="#999" stroke-width="1.65" stroke-opacity="0.8"/><line x1="-41.8" y1="-34.9" x2="-31.6" y2="-23.6" stroke="#999" stroke-width="1.65" stroke-opacity="0.8"/><line x1="-31.6" y1="-23.6" x2="-18.3" y2="-16.5" stroke="#999" stroke-width="1.65" stroke-opacity="0.8"/><line x1="-18.3" y1="-16.5" x2="-3.2" y2="-14.3" stroke="#999" stroke-width="1.65" stroke-opacity="0.8"/><line x1="-3.2" y1="-14.3" x2="11.6" y2="-17.5" stroke="#999" stroke-width="1.65" stroke-opacity="0.8"/><line x1="11.6" y1="-17.5" x2="24.4" y2="-25.5" stroke="#999" stroke-width="1.65" stroke-opacity="0.8"/><line x1="24.4" y1="-25.5" x2="33.8" y2="-37.4" stroke="#999" stroke-width="1.65" stroke-opacity="0.8"/><line x1="33.8" y1="-37.4" x2="38.5" y2="-51.8" stroke="#999" stroke-width="1.65" stroke-opacity="0.8"/><line x1="38.5" y1="-51.8" x2="38.0" y2="-67.0" stroke="#999" stroke-width="1.65" stroke-opacity="0.8"/><line x1="38.0" y1="-67.0" x2="51.9" y2="-72.6" stroke="#999" stroke-width="1.65" stroke-opacity="0.8"/><line x1="51.9" y1="-72.6" x2="65.8" y2="-78.2" stroke="#999" stroke-width="1.65" stroke-opacity="0.8"/><line x1="65.8" y1="-78.2" x2="75.7" y2="-66.9" stroke="#999" stroke-width="1.65" stroke-opacity="0.8"/><line x1="75.7" y1="-66.9" x2="89.4" y2="-60.8" stroke="#999" stroke-width="1.65" stroke-opacity="0.8"/><line x1="89.4" y1="-60.8" x2="104.3" y2="-59.6" stroke="#999" stroke-width="1.65" stroke-opacity="0.8"/><line x1="104.3" y1="-59.6" x2="118.6" y2="-63.9" stroke="#999" stroke-width="1.65" stroke-opacity="0.8"/><line x1="118.6" y1="-63.9" x2="130.3" y2="-73.0" stroke="#999" stroke-width="1.65" stroke-opacity="0.8"/><line x1="130.3" y1="-73.0" x2="138.0" y2="-85.8" stroke="#999" stroke-width="1.65" stroke-opacity="0.8"/><line x1="138.0" y1="-85.8" x2="140.6" y2="-100.5" stroke="#999" stroke-width="1.65" stroke-opacity="0.8"/><line x1="140.6" y1="-100.5" x2="137.7" y2="-115.1" stroke="#999" stroke-width="1.65" stroke-opacity="0.8"/><line x1="137.7" y1="-115.1" x2="129.7" y2="-127.7" stroke="#999" stroke-width="1.65" stroke-opacity="0.8"/><line x1="129.7" y1="-127.7" x2="117.6" y2="-136.5" stroke="#999" stroke-width="1.65" stroke-opacity="0.8"/><line x1="117.6" y1="-136.5" x2="103.3" y2="-140.5" stroke="#999" stroke-width="1.65" stroke-opacity="0.8"/><line x1="103.3" y1="-140.5" x2="88.4" y2="-138.9" stroke="#999" stroke-width="1.65" stroke-opacity="0.8"/><line x1="88.4" y1="-138.9" x2="75.2" y2="-132.1" stroke="#999" stroke-width="1.65" stroke-opacity="0.8"/><line x1="75.2" y1="-132.1" x2="65.2" y2="-121.0" stroke="#999" stroke-width="1.65" stroke-opacity="0.8"/><text x="53.5" y="-106.1" text-anchor="middle" font-size="7.8" font-family="Tahoma,Geneva,sans-serif" fill="#999">1</text><text x="-65.8" y="-63.9" text-anchor="middle" font-size="7.8" font-family="Tahoma,Geneva,sans-serif" fill="#999">10</text><text x="53.1" y="-54.5" text-anchor="middle" font-size="7.8" font-family="Tahoma,Geneva,sans-serif" fill="#999">20</text><text x="154.4" y="-119.1" text-anchor="middle" font-size="7.8" font-family="Tahoma,Geneva,sans-serif" fill="#999">30</text><circle cx="60.2" cy="-92.1" r="4.51" fill="lightgreen" stroke="#ccc" stroke-width="1.65"/><text x="60.2" y="-89.8" text-anchor="middle" font-size="5.6" font-family="Tahoma,Geneva,sans-serif" font-weight="bold" fill="rgb(100,100,100)">U</text><circle cx="46.3" cy="-86.5" r="4.51" fill="lightgreen" stroke="#ccc" stroke-width="1.65"/><text x="46.3" y="-84.2" text-anchor="middle" font-size="5.6" font-family="Tahoma,Geneva,sans-serif" font-weight="bold" fill="rgb(100,100,100)">U</text><circle cx="32.4" cy="-80.9" r="4.51" fill="lightgreen" stroke="#ccc" stroke-width="1.65"/><text x="32.4" y="-78.6" text-anchor="middle" font-size="5.6" font-family="Tahoma,Geneva,sans-serif" font-weight="bold" fill="rgb(100,100,100)">U</text><circle cx="22.1" cy="-91.9" r="4.51" fill="lightblue" stroke="#ccc" stroke-width="1.65"/><text x="22.1" y="-89.7" text-anchor="middle" font-size="5.6" font-family="Tahoma,Geneva,sans-serif" font-weight="bold" fill="rgb(100,100,100)">A</text><circle cx="8.8" cy="-99.0" r="4.51" fill="lightblue" stroke="#ccc" stroke-width="1.65"/><text x="8.8" y="-96.8" text-anchor="middle" font-size="5.6" font-family="Tahoma,Geneva,sans-serif" font-weight="bold" fill="rgb(100,100,100)">U</text><circle cx="-6.1" cy="-101.2" r="4.51" fill="lightblue" stroke="#ccc" stroke-width="1.65"/><text x="-6.1" y="-98.9" text-anchor="middle" font-size="5.6" font-family="Tahoma,Geneva,sans-serif" font-weight="bold" fill="rgb(100,100,100)">G</text><circle cx="-20.9" cy="-98.4" r="4.51" fill="lightgreen" stroke="#ccc" stroke-width="1.65"/><text x="-20.9" y="-96.2" text-anchor="middle" font-size="5.6" font-family="Tahoma,Geneva,sans-serif" font-weight="bold" fill="rgb(100,100,100)">U</text><circle cx="-33.8" cy="-90.4" r="4.51" fill="lightgreen" stroke="#ccc" stroke-width="1.65"/><text x="-33.8" y="-88.2" text-anchor="middle" font-size="5.6" font-family="Tahoma,Geneva,sans-serif" font-weight="bold" fill="rgb(100,100,100)">G</text><circle cx="-43.2" cy="-78.5" r="4.51" fill="lightgreen" stroke="#ccc" stroke-width="1.65"/><text x="-43.2" y="-76.2" text-anchor="middle" font-size="5.6" font-family="Tahoma,Geneva,sans-serif" font-weight="bold" fill="rgb(100,100,100)">G</text><circle cx="-47.9" cy="-64.1" r="4.51" fill="lightgreen" stroke="#ccc" stroke-width="1.65"/><text x="-47.9" y="-61.8" text-anchor="middle" font-size="5.6" font-family="Tahoma,Geneva,sans-serif" font-weight="bold" fill="rgb(100,100,100)">A</text><circle cx="-47.4" cy="-48.9" r="4.51" fill="lightgreen" stroke="#ccc" stroke-width="1.65"/><text x="-47.4" y="-46.7" text-anchor="middle" font-size="5.6" font-family="Tahoma,Geneva,sans-serif" font-weight="bold" fill="rgb(100,100,100)">U</text><circle cx="-41.8" cy="-34.9" r="4.51" fill="lightgreen" stroke="#ccc" stroke-width="1.65"/><text x="-41.8" y="-32.6" text-anchor="middle" font-size="5.6" font-family="Tahoma,Geneva,sans-serif" font-weight="bold" fill="rgb(100,100,100)">G</text><circle cx="-31.6" cy="-23.6" r="4.51" fill="lightgreen" stroke="#ccc" stroke-width="1.65"/><text x="-31.6" y="-21.3" text-anchor="middle" font-size="5.6" font-family="Tahoma,Geneva,sans-serif" font-weight="bold" fill="rgb(100,100,100)">G</text><circle cx="-18.3" cy="-16.5" r="4.51" fill="lightgreen" stroke="#ccc" stroke-width="1.65"/><text x="-18.3" y="-14.2" text-anchor="middle" font-size="5.6" font-family="Tahoma,Geneva,sans-serif" font-weight="bold" fill="rgb(100,100,100)">G</text><circle cx="-3.2" cy="-14.3" r="4.51" fill="lightgreen" stroke="#ccc" stroke-width="1.65"/><text x="-3.2" y="-12.1" text-anchor="middle" font-size="5.6" font-family="Tahoma,Geneva,sans-serif" font-weight="bold" fill="rgb(100,100,100)">U</text><circle cx="11.6" cy="-17.5" r="4.51" fill="lightgreen" stroke="#ccc" stroke-width="1.65"/><text x="11.6" y="-15.2" text-anchor="middle" font-size="5.6" font-family="Tahoma,Geneva,sans-serif" font-weight="bold" fill="rgb(100,100,100)">U</text><circle cx="24.4" cy="-25.5" r="4.51" fill="lightgreen" stroke="#ccc" stroke-width="1.65"/><text x="24.4" y="-23.2" text-anchor="middle" font-size="5.6" font-family="Tahoma,Geneva,sans-serif" font-weight="bold" fill="rgb(100,100,100)">A</text><circle cx="33.8" cy="-37.4" r="4.51" fill="lightgreen" stroke="#ccc" stroke-width="1.65"/><text x="33.8" y="-35.2" text-anchor="middle" font-size="5.6" font-family="Tahoma,Geneva,sans-serif" font-weight="bold" fill="rgb(100,100,100)">U</text><circle cx="38.5" cy="-51.8" r="4.51" fill="lightgreen" stroke="#ccc" stroke-width="1.65"/><text x="38.5" y="-49.6" text-anchor="middle" font-size="5.6" font-family="Tahoma,Geneva,sans-serif" font-weight="bold" fill="rgb(100,100,100)">U</text><circle cx="38.0" cy="-67.0" r="4.51" fill="lightgreen" stroke="#ccc" stroke-width="1.65"/><text x="38.0" y="-64.7" text-anchor="middle" font-size="5.6" font-family="Tahoma,Geneva,sans-serif" font-weight="bold" fill="rgb(100,100,100)">G</text><circle cx="51.9" cy="-72.6" r="4.51" fill="lightgreen" stroke="#ccc" stroke-width="1.65"/><text x="51.9" y="-70.3" text-anchor="middle" font-size="5.6" font-family="Tahoma,Geneva,sans-serif" font-weight="bold" fill="rgb(100,100,100)">G</text><circle cx="65.8" cy="-78.2" r="4.51" fill="lightgreen" stroke="#ccc" stroke-width="1.65"/><text x="65.8" y="-75.9" text-anchor="middle" font-size="5.6" font-family="Tahoma,Geneva,sans-serif" font-weight="bold" fill="rgb(100,100,100)">A</text><circle cx="75.7" cy="-66.9" r="4.51" fill="lightsalmon" stroke="#ccc" stroke-width="1.65"/><text x="75.7" y="-64.6" text-anchor="middle" font-size="5.6" font-family="Tahoma,Geneva,sans-serif" font-weight="bold" fill="rgb(100,100,100)">U</text><circle cx="89.4" cy="-60.8" r="4.51" fill="lightgreen" stroke="#ccc" stroke-width="1.65"/><text x="89.4" y="-58.6" text-anchor="middle" font-size="5.6" font-family="Tahoma,Geneva,sans-serif" font-weight="bold" fill="rgb(100,100,100)">A</text><circle cx="104.3" cy="-59.6" r="4.51" fill="lightgreen" stroke="#ccc" stroke-width="1.65"/><text x="104.3" y="-57.4" text-anchor="middle" font-size="5.6" font-family="Tahoma,Geneva,sans-serif" font-weight="bold" fill="rgb(100,100,100)">A</text><circle cx="118.6" cy="-63.9" r="4.51" fill="lightgreen" stroke="#ccc" stroke-width="1.65"/><text x="118.6" y="-61.7" text-anchor="middle" font-size="5.6" font-family="Tahoma,Geneva,sans-serif" font-weight="bold" fill="rgb(100,100,100)">U</text><circle cx="130.3" cy="-73.0" r="4.51" fill="lightgreen" stroke="#ccc" stroke-width="1.65"/><text x="130.3" y="-70.8" text-anchor="middle" font-size="5.6" font-family="Tahoma,Geneva,sans-serif" font-weight="bold" fill="rgb(100,100,100)">G</text><circle cx="138.0" cy="-85.8" r="4.51" fill="lightgreen" stroke="#ccc" stroke-width="1.65"/><text x="138.0" y="-83.6" text-anchor="middle" font-size="5.6" font-family="Tahoma,Geneva,sans-serif" font-weight="bold" fill="rgb(100,100,100)">A</text><circle cx="140.6" cy="-100.5" r="4.51" fill="lightgreen" stroke="#ccc" stroke-width="1.65"/><text x="140.6" y="-98.3" text-anchor="middle" font-size="5.6" font-family="Tahoma,Geneva,sans-serif" font-weight="bold" fill="rgb(100,100,100)">U</text><circle cx="137.7" cy="-115.1" r="4.51" fill="lightgreen" stroke="#ccc" stroke-width="1.65"/><text x="137.7" y="-112.9" text-anchor="middle" font-size="5.6" font-family="Tahoma,Geneva,sans-serif" font-weight="bold" fill="rgb(100,100,100)">C</text><circle cx="129.7" cy="-127.7" r="4.51" fill="lightgreen" stroke="#ccc" stroke-width="1.65"/><text x="129.7" y="-125.5" text-anchor="middle" font-size="5.6" font-family="Tahoma,Geneva,sans-serif" font-weight="bold" fill="rgb(100,100,100)">U</text><circle cx="117.6" cy="-136.5" r="4.51" fill="lightgreen" stroke="#ccc" stroke-width="1.65"/><text x="117.6" y="-134.3" text-anchor="middle" font-size="5.6" font-family="Tahoma,Geneva,sans-serif" font-weight="bold" fill="rgb(100,100,100)">A</text><circle cx="103.3" cy="-140.5" r="4.51" fill="lightgreen" stroke="#ccc" stroke-width="1.65"/><text x="103.3" y="-138.2" text-anchor="middle" font-size="5.6" font-family="Tahoma,Geneva,sans-serif" font-weight="bold" fill="rgb(100,100,100)">U</text><circle cx="88.4" cy="-138.9" r="4.51" fill="lightgreen" stroke="#ccc" stroke-width="1.65"/><text x="88.4" y="-136.6" text-anchor="middle" font-size="5.6" font-family="Tahoma,Geneva,sans-serif" font-weight="bold" fill="rgb(100,100,100)">C</text><circle cx="75.2" cy="-132.1" r="4.51" fill="lightgreen" stroke="#ccc" stroke-width="1.65"/><text x="75.2" y="-129.8" text-anchor="middle" font-size="5.6" font-family="Tahoma,Geneva,sans-serif" font-weight="bold" fill="rgb(100,100,100)">U</text><circle cx="65.2" cy="-121.0" r="4.51" fill="lightgreen" stroke="#ccc" stroke-width="1.65"/><text x="65.2" y="-118.7" text-anchor="middle" font-size="5.6" font-family="Tahoma,Geneva,sans-serif" font-weight="bold" fill="rgb(100,100,100)">A</text></svg>