<svg xmlns="http://www.w3.org/2000/svg" viewBox="-19.7 -195.4 191.9 288.9" width="192" height="289"><style></style><line x1="27.4" y1="28.5" x2="40.5" y2="35.8" stroke="#999" stroke-width="1.63" stroke-opacity="0.8"/><line x1="34.7" y1="15.4" x2="47.8" y2="22.7" stroke="#999" stroke-width="1.63" stroke-opacity="0.8"/><line x1="42.0" y1="2.3" x2="55.1" y2="9.6" stroke="#999" stroke-width="1.63" stroke-opacity="0.8"/><line x1="49.4" y1="-10.8" x2="62.5" y2="-3.5" stroke="#999" stroke-width="1.63" stroke-opacity="0.8"/><line x1="56.7" y1="-23.9" x2="69.8" y2="-16.6" stroke="#999" stroke-width="1.63" stroke-opacity="0.8"/><line x1="63.4" y1="-37.3" x2="77.1" y2="-31.1" stroke="#999" stroke-width="1.63" stroke-opacity="0.8"/><line x1="69.6" y1="-51.0" x2="83.3" y2="-44.8" stroke="#999" stroke-width="1.63" stroke-opacity="0.8"/><line x1="75.8" y1="-64.6" x2="89.5" y2="-58.5" stroke="#999" stroke-width="1.63" stroke-opacity="0.8"/><line x1="82.0" y1="-78.3" x2="95.6" y2="-72.1" stroke="#999" stroke-width="1.63" stroke-opacity="0.8"/><line x1="88.1" y1="-92.0" x2="101.8" y2="-85.8" stroke="#999" stroke-width="1.63" stroke-opacity="0.8"/><line x1="98.2" y1="-114.2" x2="111.9" y2="-108.0" stroke="#999" stroke-width="1.63" stroke-opacity="0.8"/><line x1="104.4" y1="-127.9" x2="118.0" y2="-121.7" stroke="#999" stroke-width="1.63" stroke-opacity="0.8"/><line x1="41.3" y1="52.2" x2="132.9" y2="-127.0" stroke="#d9534f" stroke-width="1.63" stroke-opacity="0.6"/><line x1="27.3" y1="60.8" x2="139.6" y2="-141.4" stroke="#d9534f" stroke-width="1.63" stroke-opacity="0.6"/><line x1="13.0" y1="52.8" x2="134.1" y2="-156.2" stroke="#d9534f" stroke-width="1.63" stroke-opacity="0.6"/><line x1="13.1" y1="36.4" x2="119.7" y2="-162.7" stroke="#d9534f" stroke-width="1.63" stroke-opacity="0.6"/><line x1="104.4" y1="-127.9" x2="98.2" y2="-114.2" stroke="#999" stroke-width="1.63" stroke-opacity="0.8"/><line x1="98.2" y1="-114.2" x2="85.5" y2="-106.6" stroke="#999" stroke-width="1.63" stroke-opacity="0.8"/><line x1="85.5" y1="-106.6" x2="88.1" y2="-92.0" stroke="#999" stroke-width="1.63" stroke-opacity="0.8"/><line x1="88.1" y1="-92.0" x2="82.0" y2="-78.3" stroke="#999" stroke-width="1.63" stroke-opacity="0.8"/><line x1="82.0" y1="-78.3" x2="75.8" y2="-64.6" stroke="#999" stroke-width="1.63" stroke-opacity="0.8"/><line x1="75.8" y1="-64.6" x2="69.6" y2="-51.0" stroke="#999" stroke-width="1.63" stroke-opacity="0.8"/><line x1="69.6" y1="-51.0" x2="63.4" y2="-37.3" stroke="#999" stroke-width="1.63" stroke-opacity="0.8"/><line x1="63.4" y1="-37.3" x2="56.7" y2="-23.9" stroke="#999" stroke-width="1.63" stroke-opacity="0.8"/><line x1="56.7" y1="-23.9" x2="49.4" y2="-10.8" stroke="#999" stroke-width="1.63" stroke-opacity="0.8"/><line x1="49.4" y1="-10.8" x2="42.0" y2="2.3" stroke="#999" stroke-width="1.63" stroke-opacity="0.8"/><line x1="42.0" y1="2.3" x2="34.7" y2="15.4" stroke="#999" stroke-width="1.63" stroke-opacity="0.8"/><line x1="34.7" y1="15.4" x2="27.4" y2="28.5" stroke="#999" stroke-width="1.63" stroke-opacity="0.8"/><line x1="27.4" y1="28.5" x2="13.1" y2="36.4" stroke="#999" stroke-width="1.63" stroke-opacity="0.8"/><line x1="13.1" y1="36.4" x2="13.0" y2="52.8" stroke="#999" stroke-width="1.63" stroke-opacity="0.8"/><line x1="13.0" y1="52.8" x2="27.3" y2="60.8" stroke="#999" stroke-width="1.63" stroke-opacity="0.8"/><line x1="27.3" y1="60.8" x2="41.3" y2="52.2" stroke="#999" stroke-width="1.63" stroke-opacity="0.8"/><line x1="41.3" y1="52.2" x2="40.5" y2="35.8" stroke="#999" stroke-width="1.63" stroke-opacity="0.8"/><line x1="40.5" y1="35.8" x2="47.8" y2="22.7" stroke="#999" stroke-width="1.63" stroke-opacity="0.8"/><line x1="47.8" y1="22.7" x2="55.1" y2="9.6" stroke="#999" stroke-width="1.63" stroke-opacity="0.8"/><line x1="55.1" y1="9.6" x2="62.5" y2="-3.5" stroke="#999" stroke-width="1.63" stroke-opacity="0.8"/><line x1="62.5" y1="-3.5" x2="69.8" y2="-16.6" stroke="#999" stroke-width="1.63" stroke-opacity="0.8"/><line x1="69.8" y1="-16.6" x2="84.5" y2="-18.3" stroke="#999" stroke-width="1.63" stroke-opacity="0.8"/><line x1="84.5" y1="-18.3" x2="77.1" y2="-31.1" stroke="#999" stroke-width="1.63" stroke-opacity="0.8"/><line x1="77.1" y1="-31.1" x2="83.3" y2="-44.8" stroke="#999" stroke-width="1.63" stroke-opacity="0.8"/><line x1="83.3" y1="-44.8" x2="89.5" y2="-58.5" stroke="#999" stroke-width="1.63" stroke-opacity="0.8"/><line x1="89.5" y1="-58.5" x2="95.6" y2="-72.1" stroke="#999" stroke-width="1.63" stroke-opacity="0.8"/><line x1="95.6" y1="-72.1" x2="101.8" y2="-85.8" stroke="#999" stroke-width="1.63" stroke-opacity="0.8"/><line x1="101.8" y1="-85.8" x2="114.5" y2="-93.4" stroke="#999" stroke-width="1.63" stroke-opacity="0.8"/><line x1="114.5" y1="-93.4" x2="111.9" y2="-108.0" stroke="#999" stroke-width="1.63" stroke-opacity="0.8"/><line x1="111.9" y1="-108.0" x2="118.0" y2="-121.7" stroke="#999" stroke-width="1.63" stroke-opacity="0.8"/><line x1="118.0" y1="-121.7" x2="132.9" y2="-127.0" stroke="#999" stroke-width="1.63" stroke-opacity="0.8"/><line x1="132.9" y1="-127.0" x2="139.6" y2="-141.4" stroke="#999" stroke-width="1.63" stroke-opacity="0.8"/><line x1="139.6" y1="-141.4" x2="134.1" y2="-156.2" stroke="#999" stroke-width="1.63" stroke-opacity="0.8"/><line x1="134.1" y1="-156.2" x2="119.7" y2="-162.7" stroke="#999" stroke-width="1.63" stroke-opacity="0.8"/><line x1="119.7" y1="-162.7" x2="103.2" y2="-156.4" stroke="#999" stroke-width="1.63" stroke-opacity="0.8"/><text x="88.1" y="-132.5" text-anchor="middle" font-size="7.7" font-family="Tahoma,Geneva,sans-serif" fill="#999">1</text><text x="33.8" y="-16.8" text-anchor="middle" font-size="7.7" font-family="Tahoma,Geneva,sans-serif" fill="#999">10</text><text x="70.7" y="21.0" text-anchor="middle" font-size="7.7" font-family="Tahoma,Geneva,sans-serif" fill="#999">20</text><text x="129.6" y="-103.1" text-anchor="middle" font-size="7.7" font-family="Tahoma,Geneva,sans-serif" fill="#999">30</text><circle cx="104.4" cy="-127.9" r="4.46" fill="lightgreen" stroke="#ccc" stroke-width="1.63"/><text x="104.4" y="-125.6" text-anchor="middle" font-size="5.6" font-family="Tahoma,Geneva,sans-serif" font-weight="bold" fill="rgb(100,100,100)">U</text><circle cx="98.2" cy="-114.2" r="4.46" fill="lightgreen" stroke="#ccc" stroke-width="1.63"/><text x="98.2" y="-112.0" text-anchor="middle" font-size="5.6" font-family="Tahoma,Geneva,sans-serif" font-weight="bold" fill="rgb(100,100,100)">G</text><circle cx="85.5" cy="-106.6" r="4.46" fill="#dbdb8d" stroke="#ccc" stroke-width="1.63"/><text x="85.5" y="-104.3" text-anchor="middle" font-size="5.6" font-family="Tahoma,Geneva,sans-serif" font-weight="bold" fill="rgb(100,100,100)">G</text><circle cx="88.1" cy="-92.0" r="4.46" fill="lightgreen" stroke="#ccc" stroke-width="1.63"/><text x="88.1" y="-89.7" text-anchor="middle" font-size="5.6" font-family="Tahoma,Geneva,sans-serif" font-weight="bold" fill="rgb(100,100,100)">A</text><circle cx="82.0" cy="-78.3" r="4.46" fill="lightgreen" stroke="#ccc" stroke-width="1.63"/><text x="82.0" y="-76.1" text-anchor="middle" font-size="5.6" font-family="Tahoma,Geneva,sans-serif" font-weight="bold" fill="rgb(100,100,100)">A</text><circle cx="75.8" cy="-64.6" r="4.46" fill="lightgreen" stroke="#ccc" stroke-width="1.63"/><text x="75.8" y="-62.4" text-anchor="middle" font-size="5.6" font-family="Tahoma,Geneva,sans-serif" font-weight="bold" fill="rgb(100,100,100)">C</text><circle cx="69.6" cy="-51.0" r="4.46" fill="lightgreen" stroke="#ccc" stroke-width="1.63"/><text x="69.6" y="-48.7" text-anchor="middle" font-size="5.6" font-family="Tahoma,Geneva,sans-serif" font-weight="bold" fill="rgb(100,100,100)">A</text><circle cx="63.4" cy="-37.3" r="4.46" fill="lightgreen" stroke="#ccc" stroke-width="1.63"/><text x="63.4" y="-35.1" text-anchor="middle" font-size="5.6" font-family="Tahoma,Geneva,sans-serif" font-weight="bold" fill="rgb(100,100,100)">G</text><circle cx="56.7" cy="-23.9" r="4.46" fill="lightgreen" stroke="#ccc" stroke-width="1.63"/><text x="56.7" y="-21.7" text-anchor="middle" font-size="5.6" font-family="Tahoma,Geneva,sans-serif" font-weight="bold" fill="rgb(100,100,100)">A</text><circle cx="49.4" cy="-10.8" r="4.46" fill="lightgreen" stroke="#ccc" stroke-width="1.63"/><text x="49.4" y="-8.6" text-anchor="middle" font-size="5.6" font-family="Tahoma,Geneva,sans-serif" font-weight="bold" fill="rgb(100,100,100)">C</text><circle cx="42.0" cy="2.3" r="4.46" fill="lightgreen" stroke="#ccc" stroke-width="1.63"/><text x="42.0" y="4.5" text-anchor="middle" font-size="5.6" font-family="Tahoma,Geneva,sans-serif" font-weight="bold" fill="rgb(100,100,100)">U</text><circle cx="34.7" cy="15.4" r="4.46" fill="lightgreen" stroke="#ccc" stroke-width="1.63"/><text x="34.7" y="17.6" text-anchor="middle" font-size="5.6" font-family="Tahoma,Geneva,sans-serif" font-weight="bold" fill="rgb(100,100,100)">A</text><circle cx="27.4" cy="28.5" r="4.46" fill="lightgreen" stroke="#ccc" stroke-width="1.63"/><text x="27.4" y="30.7" text-anchor="middle" font-size="5.6" font-family="Tahoma,Geneva,sans-serif" font-weight="bold" fill="rgb(100,100,100)">C</text><circle cx="13.1" cy="36.4" r="4.46" fill="lightgreen" stroke="#ccc" stroke-width="1.63"/><text x="13.1" y="38.6" text-anchor="middle" font-size="5.6" font-family="Tahoma,Geneva,sans-serif" font-weight="bold" fill="rgb(100,100,100)">A</text><circle cx="13.0" cy="52.8" r="4.46" fill="lightgreen" stroke="#ccc" stroke-width="1.63"/><text x="13.0" y="55.0" text-anchor="middle" font-size="5.6" font-family="Tahoma,Geneva,sans-serif" font-weight="bold" fill="rgb(100,100,100)">A</text><circle cx="27.3" cy="60.8" r="4.46" fill="lightgreen" stroke="#ccc" stroke-width="1.63"/><text x="27.3" y="63.0" text-anchor="middle" font-size="5.6" font-family="Tahoma,Geneva,sans-serif" font-weight="bold" fill="rgb(100,100,100)">G</text><circle cx="41.3" cy="52.2" r="4.46" fill="lightgreen" stroke="#ccc" stroke-width="1.63"/><text x="41.3" y="54.4" text-anchor="middle" font-size="5.6" font-family="Tahoma,Geneva,sans-serif" font-weight="bold" fill="rgb(100,100,100)">U</text><circle cx="40.5" cy="35.8" r="4.46" fill="lightgreen" stroke="#ccc" stroke-width="1.63"/><text x="40.5" y="38.0" text-anchor="middle" font-size="5.6" font-family="Tahoma,Geneva,sans-serif" font-weight="bold" fill="rgb(100,100,100)">G</text><circle cx="47.8" cy="22.7" r="4.46" fill="lightgreen" stroke="#ccc" stroke-width="1.63"/><text x="47.8" y="24.9" text-anchor="middle" font-size="5.6" font-family="Tahoma,Geneva,sans-serif" font-weight="bold" fill="rgb(100,100,100)">U</text><circle cx="55.1" cy="9.6" r="4.46" fill="lightgreen" stroke="#ccc" stroke-width="1.63"/><text x="55.1" y="11.8" text-anchor="middle" font-size="5.6" font-family="Tahoma,Geneva,sans-serif" font-weight="bold" fill="rgb(100,100,100)">G</text><circle cx="62.5" cy="-3.5" r="4.46" fill="lightgreen" stroke="#ccc" stroke-width="1.63"/><text x="62.5" y="-1.3" text-anchor="middle" font-size="5.6" font-family="Tahoma,Geneva,sans-serif" font-weight="bold" fill="rgb(100,100,100)">G</text><circle cx="69.8" cy="-16.6" r="4.46" fill="lightgreen" stroke="#ccc" stroke-width="1.63"/><text x="69.8" y="-14.4" text-anchor="middle" font-size="5.6" font-family="Tahoma,Geneva,sans-serif" font-weight="bold" fill="rgb(100,100,100)">U</text><circle cx="84.5" cy="-18.3" r="4.46" fill="#dbdb8d" stroke="#ccc" stroke-width="1.63"/><text x="84.5" y="-16.0" text-anchor="middle" font-size="5.6" font-family="Tahoma,Geneva,sans-serif" font-weight="bold" fill="rgb(100,100,100)">A</text><circle cx="77.1" cy="-31.1" r="4.46" fill="lightgreen" stroke="#ccc" stroke-width="1.63"/><text x="77.1" y="-28.9" text-anchor="middle" font-size="5.6" font-family="Tahoma,Geneva,sans-serif" font-weight="bold" fill="rgb(100,100,100)">C</text><circle cx="83.3" cy="-44.8" r="4.46" fill="lightgreen" stroke="#ccc" stroke-width="1.63"/><text x="83.3" y="-42.6" text-anchor="middle" font-size="5.6" font-family="Tahoma,Geneva,sans-serif" font-weight="bold" fill="rgb(100,100,100)">U</text><circle cx="89.5" cy="-58.5" r="4.46" fill="lightgreen" stroke="#ccc" stroke-width="1.63"/><text x="89.5" y="-56.2" text-anchor="middle" font-size="5.6" font-family="Tahoma,Geneva,sans-serif" font-weight="bold" fill="rgb(100,100,100)">G</text><circle cx="95.6" cy="-72.1" r="4.46" fill="lightgreen" stroke="#ccc" stroke-width="1.63"/><text x="95.6" y="-69.9" text-anchor="middle" font-size="5.6" font-family="Tahoma,Geneva,sans-serif" font-weight="bold" fill="rgb(100,100,100)">U</text><circle cx="101.8" cy="-85.8" r="4.46" fill="lightgreen" stroke="#ccc" stroke-width="1.63"/><text x="101.8" y="-83.6" text-anchor="middle" font-size="5.6" font-family="Tahoma,Geneva,sans-serif" font-weight="bold" fill="rgb(100,100,100)">U</text><circle cx="114.5" cy="-93.4" r="4.46" fill="#dbdb8d" stroke="#ccc" stroke-width="1.63"/><text x="114.5" y="-91.2" text-anchor="middle" font-size="5.6" font-family="Tahoma,Geneva,sans-serif" font-weight="bold" fill="rgb(100,100,100)">A</text><circle cx="111.9" cy="-108.0" r="4.46" fill="lightgreen" stroke="#ccc" stroke-width="1.63"/><text x="111.9" y="-105.8" text-anchor="middle" font-size="5.6" font-family="Tahoma,Geneva,sans-serif" font-weight="bold" fill="rgb(100,100,100)">C</text><circle cx="118.0" cy="-121.7" r="4.46" fill="lightgreen" stroke="#ccc" stroke-width="1.63"/><text x="118.0" y="-119.5" text-anchor="middle" font-size="5.6" font-family="Tahoma,Geneva,sans-serif" font-weight="bold" fill="rgb(100,100,100)">A</text><circle cx="132.9" cy="-127.0" r="4.46" fill="lightgreen" stroke="#ccc" stroke-width="1.63"/><text x="132.9" y="-124.8" text-anchor="middle" font-size="5.6" font-family="Tahoma,Geneva,sans-serif" font-weight="bold" fill="rgb(100,100,100)">A</text><circle cx="139.6" cy="-141.4" r="4.46" fill="lightgreen" stroke="#ccc" stroke-width="1.63"/><text x="139.6" y="-139.1" text-anchor="middle" font-size="5.6" font-family="Tahoma,Geneva,sans-serif" font-weight="bold" fill="rgb(100,100,100)">U</text><circle cx="134.1" cy="-156.2" r="4.46" fill="lightgreen" stroke="#ccc" stroke-width="1.63"/><text x="134.1" y="-154.0" text-anchor="middle" font-size="5.6" font-family="Tahoma,Geneva,sans-serif" font-weight="bold" fill="rgb(100,100,100)">U</text><circle cx="119.7" cy="-162.7" r="4.46" fill="lightgreen" stroke="#ccc" stroke-width="1.63"/><text x="119.7" y="-160.5" text-anchor="middle" font-size="5.6" font-family="Tahoma,Geneva,sans-serif" font-weight="bold" fill="rgb(100,100,100)">U</text><circle cx="103.2" cy="-156.4" r="4.46" fill="lightsalmon" stroke="#ccc" stroke-width="1.63"/><text x="103.2" y="-154.2" text-anchor="middle" font-size="5.6" font-family="Tahoma,Geneva,sans-serif" font-weight="bold" fill="rgb(100,100,100)">U</text></svg>