<svg xmlns="http://www.w3.org/2000/svg" viewBox="0 0 760 640" width="760" height="640"><style>svg {
  display: block;
  min-width: 100%;
  width: 100%;
  min-height: 100%;
}

circle.node {
  stroke: #ccc;
  stroke-width: 1px;
  opacity: 1;
  fill: white;
}

circle.node.label {
    stroke: transparent;
    stroke-width: 0;
    fill: white;
}

circle.outline_node {
    stroke-width: 1px;
    fill: red;
}

circle.protein {
    fill: gray;
    fill-opacity: 0.5;
    stroke-width: 4;
}

circle.hidden_outline {
    stroke-width: 0px;
}


line.link {
  stroke: #999;
  stroke-opacity: 0.8;
  stroke-width: 2;
}

line.basepair {
  stroke: red;
}

line.intermolecule {
  stroke: blue;
}

line.chain_chain {
  stroke-dasharray: 3,3;
}

line.fake {
  stroke: green;
}

.transparent {
    fill: transparent;
    stroke-width: 0;
    stroke-opacity: 0;
    opacity: 0;
    visibility: hidden;
}

.drag_line {
  stroke: #999;
  stroke-width: 2;
  pointer-events: none;
}

.drag_line_hidden {
  stroke: #999;
  stroke-width: 0;
  pointer-events: none;
}

.d3-tip {
    line-height: 1;
    font-weight: bold;
    padding: 6px;
    background: rgba(0, 0, 0, 0.6);
    color: #fff;
    border-radius: 4px;
    pointer-events: none;
          }

text.node-label {
    font-weight: bold;
    font-family: Tahoma, Geneva, sans-serif;
    color: rgb(100,100,100);
    pointer-events: none;
}

text {
    pointer-events: none;
}

g.gnode {

}

circle.outline_node.selected {
    visibility: visible;
}

circle.outline_node {
    visibility: hidden;
}

.brush .extent {
  fill-opacity: .1;
  stroke: #fff;
  shape-rendering: crispEdges;
}

.noselect {
    -webkit-touch-callout: none;
    -webkit-user-select: none;
    -khtml-user-select: none;
    -moz-user-select: none;
    -ms-user-select: none;
    user-select: none;
}

svg {
  display: block;
  min-width: 100%;
  width: 100%;
  min-height: 100%;
}

circle.node {
  stroke: #ccc;
  stroke-width: 1px;
  opacity: 1;
  fill: white;
}

circle.node.label {
    stroke: transparent;
    stroke-width: 0;
    fill: white;
}

circle.outline_node {
    stroke-width: 1px;
    fill: red;
}

circle.protein {
    fill: gray;
    fill-opacity: 0.5;
    stroke-width: 4;
}

circle.hidden_outline {
    stroke-width: 0px;
}


line.link {
  stroke: #999;
  stroke-opacity: 0.8;
  stroke-width: 2;
}

line.basepair {
  stroke: red;
}

line.intermolecule {
  stroke: blue;
}

line.chain_chain {
  stroke-dasharray: 3,3;
}

line.fake {
  stroke: green;
}

.transparent {
    fill: transparent;
    stroke-width: 0;
    stroke-opacity: 0;
    opacity: 0;
    visibility: hidden;
}

.drag_line {
  stroke: #999;
  stroke-width: 2;
  pointer-events: none;
}

.drag_line_hidden {
  stroke: #999;
  stroke-width: 0;
  pointer-events: none;
}

.d3-tip {
    line-height: 1;
    font-weight: bold;
    padding: 6px;
    background: rgba(0, 0, 0, 0.6);
    color: #fff;
    border-radius: 4px;
    pointer-events: none;
          }

text.node-label {
    font-weight: bold;
    font-family: Tahoma, Geneva, sans-serif;
    color: rgb(100,100,100);
    pointer-events: none;
}

text {
    pointer-events: none;
}

g.gnode {

}

circle.outline_node.selected {
    visibility: visible;
}

circle.outline_node {
    visibility: hidden;
}

.brush .extent {
  fill-opacity: .1;
  stroke: #fff;
  shape-rendering: crispEdges;
}

.noselect {
    -webkit-touch-callout: none;
    -webkit-user-select: none;
    -khtml-user-select: none;
    -moz-user-select: none;
    -ms-user-select: none;
    user-select: none;
}
/*# sourceURL=/Users/yumanakamura/ipy_sandbox/sandbox/claude_sandbox/mrna-transformer-worktrees/feat-issue57-switch-derna-knotty/scripts/eval/prerender/forna_vendor/fornac.css*/</style><style></style><g><g class="brush" style="pointer-events: all; -webkit-tap-highlight-color: rgba(0, 0, 0, 0);"><rect class="background" x="0" width="760" y="0" height="640" style="visibility: hidden; cursor: auto;"></rect><rect class="extent" x="0" width="0" y="0" height="0" style="cursor: move;"></rect><g class="resize n" transform="translate(0,0)" style="cursor: ns-resize; display: none;"><rect y="-3" width="0" height="6" style="visibility: hidden;"></rect></g><g class="resize e" transform="translate(0,0)" style="cursor: ew-resize; display: none;"><rect x="-3" width="6" height="0" style="visibility: hidden;"></rect></g><g class="resize s" transform="translate(0,0)" style="cursor: ns-resize; display: none;"><rect y="-3" width="0" height="6" style="visibility: hidden;"></rect></g><g class="resize w" transform="translate(0,0)" style="cursor: ew-resize; display: none;"><rect x="-3" width="6" height="0" style="visibility: hidden;"></rect></g><g class="resize nw" transform="translate(0,0)" style="cursor: nwse-resize; display: none;"><rect x="-3" y="-3" width="6" height="6" style="visibility: hidden;"></rect></g><g class="resize ne" transform="translate(0,0)" style="cursor: nesw-resize; display: none;"><rect x="-3" y="-3" width="6" height="6" style="visibility: hidden;"></rect></g><g class="resize se" transform="translate(0,0)" style="cursor: nwse-resize; display: none;"><rect x="-3" y="-3" width="6" height="6" style="visibility: hidden;"></rect></g><g class="resize sw" transform="translate(0,0)" style="cursor: nesw-resize; display: none;"><rect x="-3" y="-3" width="6" height="6" style="visibility: hidden;"></rect></g></g><g transform="translate(217.93,120.57) scale(2.36)"><g><line class="link basepair" x1="99.74" y1="160.01" x2="113.43" y2="154.36"></line><line class="link basepair" x1="93.82" y1="145.07" x2="107.51" y2="139.93"></line><line class="link backbone" x1="99.74" y1="160.01" x2="93.82" y2="145.07"></line><line class="link basepair" x1="88.51" y1="129.39" x2="102.39" y2="125.23"></line><line class="link backbone" x1="93.82" y1="145.07" x2="88.51" y2="129.39"></line><line class="link basepair" x1="84.17" y1="113.24" x2="98.81" y2="110.38"></line><line class="link backbone" x1="88.51" y1="129.39" x2="84.17" y2="113.24"></line><line class="link backbone" x1="84.17" y1="113.24" x2="72.50" y2="102.62"></line><line class="link basepair" x1="73.31" y1="86.85" x2="85.76" y2="78.70"></line><line class="link backbone" x1="72.50" y1="102.62" x2="73.31" y2="86.85"></line><line class="link basepair" x1="65.06" y1="72.08" x2="78.51" y2="65.76"></line><line class="link backbone" x1="73.31" y1="86.85" x2="65.06" y2="72.08"></line><line class="link backbone" x1="65.06" y1="72.08" x2="51.19" y2="64.51"></line><line class="link basepair" x1="48.20" y1="48.91" x2="58.27" y2="38.02"></line><line class="link backbone" x1="51.19" y1="64.51" x2="48.20" y2="48.91"></line><line class="link basepair" x1="36.64" y1="36.61" x2="47.41" y2="27.02"></line><line class="link backbone" x1="48.20" y1="48.91" x2="36.64" y2="36.61"></line><line class="link basepair" x1="25.95" y1="23.73" x2="37.34" y2="14.83"></line><line class="link backbone" x1="36.64" y1="36.61" x2="25.95" y2="23.73"></line><line class="link basepair" x1="16.07" y1="10.63" x2="27.85" y2="2.08"></line><line class="link backbone" x1="25.95" y1="23.73" x2="16.07" y2="10.63"></line><line class="link basepair" x1="6.70" y1="-2.27" x2="19.01" y2="-10.82"></line><line class="link backbone" x1="16.07" y1="10.63" x2="6.70" y2="-2.27"></line><line class="link backbone" x1="6.70" y1="-2.27" x2="-5.85" y2="-11.77"></line><line class="link backbone" x1="-5.85" y1="-11.77" x2="-0.67" y2="-26.12"></line><line class="link backbone" x1="-0.67" y1="-26.12" x2="14.59" y2="-25.89"></line><line class="link basepair" x1="19.01" y1="-10.82" x2="6.70" y2="-2.27"></line><line class="link backbone" x1="14.59" y1="-25.89" x2="19.01" y2="-10.82"></line><line class="link basepair" x1="27.85" y1="2.08" x2="16.07" y2="10.63"></line><line class="link backbone" x1="19.01" y1="-10.82" x2="27.85" y2="2.08"></line><line class="link basepair" x1="37.34" y1="14.83" x2="25.95" y2="23.73"></line><line class="link backbone" x1="27.85" y1="2.08" x2="37.34" y2="14.83"></line><line class="link basepair" x1="47.41" y1="27.02" x2="36.64" y2="36.61"></line><line class="link backbone" x1="37.34" y1="14.83" x2="47.41" y2="27.02"></line><line class="link basepair" x1="58.27" y1="38.02" x2="48.20" y2="48.91"></line><line class="link backbone" x1="47.41" y1="27.02" x2="58.27" y2="38.02"></line><line class="link backbone" x1="58.27" y1="38.02" x2="73.68" y2="38.80"></line><line class="link backbone" x1="73.68" y1="38.80" x2="82.55" y2="50.97"></line><line class="link basepair" x1="78.51" y1="65.76" x2="65.06" y2="72.08"></line><line class="link backbone" x1="82.55" y1="50.97" x2="78.51" y2="65.76"></line><line class="link basepair" x1="85.76" y1="78.70" x2="73.31" y2="86.85"></line><line class="link backbone" x1="78.51" y1="65.76" x2="85.76" y2="78.70"></line><line class="link backbone" x1="85.76" y1="78.70" x2="100.46" y2="82.95"></line><line class="link backbone" x1="100.46" y1="82.95" x2="106.21" y2="96.89"></line><line class="link basepair" x1="98.81" y1="110.38" x2="84.17" y2="113.24"></line><line class="link backbone" x1="106.21" y1="96.89" x2="98.81" y2="110.38"></line><line class="link basepair" x1="102.39" y1="125.23" x2="88.51" y2="129.39"></line><line class="link backbone" x1="98.81" y1="110.38" x2="102.39" y2="125.23"></line><line class="link basepair" x1="107.51" y1="139.93" x2="93.82" y2="145.07"></line><line class="link backbone" x1="102.39" y1="125.23" x2="107.51" y2="139.93"></line><line class="link basepair" x1="113.43" y1="154.36" x2="99.74" y2="160.01"></line><line class="link backbone" x1="107.51" y1="139.93" x2="113.43" y2="154.36"></line><line class="link backbone" x1="113.43" y1="154.36" x2="128.12" y2="158.80"></line><line class="link backbone" x1="128.12" y1="158.80" x2="136.39" y2="171.28"></line><line class="link backbone" x1="136.39" y1="171.28" x2="135.12" y2="186.17"></line><line class="link backbone" x1="135.12" y1="186.17" x2="124.68" y2="196.74"></line><line class="link backbone" x1="124.68" y1="196.74" x2="109.98" y2="198.55"></line><line class="link label_link" x1="36.64" y1="36.61" x2="23.11" y2="44.40"></line><line class="link label_link" x1="47.41" y1="27.02" x2="57.87" y2="15.43"></line><line class="link label_link" x1="107.51" y1="139.93" x2="122.95" y2="138.21"></line><line class="link fake transparent" x1="48.20" y1="48.91" x2="47.44" y2="37.95"></line><line class="link fake transparent" x1="48.20" y1="48.91" x2="47.41" y2="27.02"></line><line class="link fake transparent" x1="36.64" y1="36.61" x2="47.44" y2="37.95"></line><line class="link fake transparent" x1="47.41" y1="27.02" x2="47.44" y2="37.95"></line><line class="link fake transparent" x1="58.27" y1="38.02" x2="47.44" y2="37.95"></line><line class="link fake transparent" x1="36.64" y1="36.61" x2="36.61" y2="25.67"></line><line class="link fake transparent" x1="25.95" y1="23.73" x2="36.61" y2="25.67"></line><line class="link fake transparent" x1="37.34" y1="14.83" x2="36.61" y2="25.67"></line><line class="link fake transparent" x1="47.41" y1="27.02" x2="36.61" y2="25.67"></line><line class="link fake transparent" x1="25.95" y1="23.73" x2="26.64" y2="12.88"></line><line class="link fake transparent" x1="16.07" y1="10.63" x2="26.64" y2="12.88"></line><line class="link fake transparent" x1="27.85" y1="2.08" x2="26.64" y2="12.88"></line><line class="link fake transparent" x1="37.34" y1="14.83" x2="26.64" y2="12.88"></line><line class="link fake transparent" x1="16.07" y1="10.63" x2="17.25" y2="-0.15"></line><line class="link fake transparent" x1="6.70" y1="-2.27" x2="17.25" y2="-0.15"></line><line class="link fake transparent" x1="19.01" y1="-10.82" x2="17.25" y2="-0.15"></line><line class="link fake transparent" x1="27.85" y1="2.08" x2="17.25" y2="-0.15"></line><line class="link fake transparent" x1="99.74" y1="160.01" x2="103.52" y2="150.05"></line><line class="link fake transparent" x1="93.82" y1="145.07" x2="103.52" y2="150.05"></line><line class="link fake transparent" x1="107.51" y1="139.93" x2="103.52" y2="150.05"></line><line class="link fake transparent" x1="113.43" y1="154.36" x2="103.52" y2="150.05"></line><line class="link fake transparent" x1="93.82" y1="145.07" x2="97.79" y2="135.04"></line><line class="link fake transparent" x1="88.51" y1="129.39" x2="97.79" y2="135.04"></line><line class="link fake transparent" x1="102.39" y1="125.23" x2="97.79" y2="135.04"></line><line class="link fake transparent" x1="107.51" y1="139.93" x2="97.79" y2="135.04"></line><line class="link fake transparent" x1="88.51" y1="129.39" x2="93.11" y2="119.58"></line><line class="link fake transparent" x1="84.17" y1="113.24" x2="93.11" y2="119.58"></line><line class="link fake transparent" x1="98.81" y1="110.38" x2="93.11" y2="119.58"></line><line class="link fake transparent" x1="102.39" y1="125.23" x2="93.11" y2="119.58"></line><line class="link fake transparent" x1="73.31" y1="86.85" x2="75.29" y2="76.09"></line><line class="link fake transparent" x1="65.06" y1="72.08" x2="75.29" y2="76.09"></line><line class="link fake transparent" x1="78.51" y1="65.76" x2="75.29" y2="76.09"></line><line class="link fake transparent" x1="85.76" y1="78.70" x2="75.29" y2="76.09"></line><line class="link fake transparent" x1="99.74" y1="160.01" x2="114.97" y2="176.56"></line><line class="link fake transparent" x1="99.74" y1="160.01" x2="135.12" y2="186.17"></line><line class="link fake transparent" x1="113.43" y1="154.36" x2="114.97" y2="176.56"></line><line class="link fake transparent" x1="113.43" y1="154.36" x2="124.68" y2="196.74"></line><line class="link fake transparent" x1="128.12" y1="158.80" x2="114.97" y2="176.56"></line><line class="link fake transparent" x1="128.12" y1="158.80" x2="109.98" y2="198.55"></line><line class="link fake transparent" x1="136.39" y1="171.28" x2="114.97" y2="176.56"></line><line class="link fake transparent" x1="136.39" y1="171.28" x2="97.21" y2="192.82"></line><line class="link fake transparent" x1="135.12" y1="186.17" x2="114.97" y2="176.56"></line><line class="link fake transparent" x1="135.12" y1="186.17" x2="91.13" y2="178.42"></line><line class="link fake transparent" x1="124.68" y1="196.74" x2="114.97" y2="176.56"></line><line class="link fake transparent" x1="124.68" y1="196.74" x2="99.74" y2="160.01"></line><line class="link fake transparent" x1="109.98" y1="198.55" x2="114.97" y2="176.56"></line><line class="link fake transparent" x1="109.98" y1="198.55" x2="113.43" y2="154.36"></line><line class="link fake transparent" x1="6.70" y1="-2.27" x2="6.78" y2="-15.36"></line><line class="link fake transparent" x1="6.70" y1="-2.27" x2="-0.67" y2="-26.12"></line><line class="link fake transparent" x1="-5.85" y1="-11.77" x2="6.78" y2="-15.36"></line><line class="link fake transparent" x1="-5.85" y1="-11.77" x2="14.59" y2="-25.89"></line><line class="link fake transparent" x1="-0.67" y1="-26.12" x2="6.78" y2="-15.36"></line><line class="link fake transparent" x1="-0.67" y1="-26.12" x2="19.01" y2="-10.82"></line><line class="link fake transparent" x1="14.59" y1="-25.89" x2="6.78" y2="-15.36"></line><line class="link fake transparent" x1="14.59" y1="-25.89" x2="6.70" y2="-2.27"></line><line class="link fake transparent" x1="19.01" y1="-10.82" x2="6.78" y2="-15.36"></line><line class="link fake transparent" x1="19.01" y1="-10.82" x2="-5.85" y2="-11.77"></line><line class="link fake transparent" x1="84.17" y1="113.24" x2="88.53" y2="96.04"></line><line class="link fake transparent" x1="84.17" y1="113.24" x2="85.76" y2="78.70"></line><line class="link fake transparent" x1="72.50" y1="102.62" x2="88.53" y2="96.04"></line><line class="link fake transparent" x1="72.50" y1="102.62" x2="100.46" y2="82.95"></line><line class="link fake transparent" x1="73.31" y1="86.85" x2="88.53" y2="96.04"></line><line class="link fake transparent" x1="73.31" y1="86.85" x2="106.21" y2="96.89"></line><line class="link fake transparent" x1="85.76" y1="78.70" x2="88.53" y2="96.04"></line><line class="link fake transparent" x1="85.76" y1="78.70" x2="98.81" y2="110.38"></line><line class="link fake transparent" x1="100.46" y1="82.95" x2="88.53" y2="96.04"></line><line class="link fake transparent" x1="100.46" y1="82.95" x2="84.17" y2="113.24"></line><line class="link fake transparent" x1="106.21" y1="96.89" x2="88.53" y2="96.04"></line><line class="link fake transparent" x1="106.21" y1="96.89" x2="72.50" y2="102.62"></line><line class="link fake transparent" x1="98.81" y1="110.38" x2="88.53" y2="96.04"></line><line class="link fake transparent" x1="98.81" y1="110.38" x2="73.31" y2="86.85"></line><line class="link fake transparent" x1="65.06" y1="72.08" x2="65.15" y2="54.31"></line><line class="link fake transparent" x1="65.06" y1="72.08" x2="58.27" y2="38.02"></line><line class="link fake transparent" x1="51.19" y1="64.51" x2="65.15" y2="54.31"></line><line class="link fake transparent" x1="51.19" y1="64.51" x2="73.68" y2="38.80"></line><line class="link fake transparent" x1="48.20" y1="48.91" x2="65.15" y2="54.31"></line><line class="link fake transparent" x1="48.20" y1="48.91" x2="82.55" y2="50.97"></line><line class="link fake transparent" x1="58.27" y1="38.02" x2="65.15" y2="54.31"></line><line class="link fake transparent" x1="58.27" y1="38.02" x2="78.51" y2="65.76"></line><line class="link fake transparent" x1="73.68" y1="38.80" x2="65.15" y2="54.31"></line><line class="link fake transparent" x1="73.68" y1="38.80" x2="65.06" y2="72.08"></line><line class="link fake transparent" x1="82.55" y1="50.97" x2="65.15" y2="54.31"></line><line class="link fake transparent" x1="82.55" y1="50.97" x2="51.19" y2="64.51"></line><line class="link fake transparent" x1="78.51" y1="65.76" x2="65.15" y2="54.31"></line><line class="link fake transparent" x1="78.51" y1="65.76" x2="48.20" y2="48.91"></line></g><g><g class="noselect gnode" struct_name="m" transform="translate(99.74,160.01)" r="6.5"><circle class="node" r="6" node_type="nucleotide" style="fill: lightgreen;"></circle><text text-anchor="middle" font-size="8" font-weight="bold" y="2.5" class="node-label">A</text></g><g class="noselect gnode" struct_name="m" transform="translate(93.82,145.07)" r="6.5"><circle class="node" r="6" node_type="nucleotide" style="fill: lightgreen;"></circle><text text-anchor="middle" font-size="8" font-weight="bold" y="2.5" class="node-label">C</text></g><g class="noselect gnode" struct_name="m" transform="translate(88.51,129.39)" r="6.5"><circle class="node" r="6" node_type="nucleotide" style="fill: lightgreen;"></circle><text text-anchor="middle" font-size="8" font-weight="bold" y="2.5" class="node-label">U</text></g><g class="noselect gnode" struct_name="m" transform="translate(84.17,113.24)" r="6.5"><circle class="node" r="6" node_type="nucleotide" style="fill: lightgreen;"></circle><text text-anchor="middle" font-size="8" font-weight="bold" y="2.5" class="node-label">C</text></g><g class="noselect gnode" struct_name="m" transform="translate(72.50,102.62)" r="6.5"><circle class="node" r="6" node_type="nucleotide" style="fill: rgb(219, 219, 141);"></circle><text text-anchor="middle" font-size="8" font-weight="bold" y="2.5" class="node-label">A</text></g><g class="noselect gnode" struct_name="m" transform="translate(73.31,86.85)" r="6.5"><circle class="node" r="6" node_type="nucleotide" style="fill: lightgreen;"></circle><text text-anchor="middle" font-size="8" font-weight="bold" y="2.5" class="node-label">U</text></g><g class="noselect gnode" struct_name="m" transform="translate(65.06,72.08)" r="6.5"><circle class="node" r="6" node_type="nucleotide" style="fill: lightgreen;"></circle><text text-anchor="middle" font-size="8" font-weight="bold" y="2.5" class="node-label">G</text></g><g class="noselect gnode" struct_name="m" transform="translate(51.19,64.51)" r="6.5"><circle class="node" r="6" node_type="nucleotide" style="fill: rgb(219, 219, 141);"></circle><text text-anchor="middle" font-size="8" font-weight="bold" y="2.5" class="node-label">G</text></g><g class="noselect gnode" struct_name="m" transform="translate(48.20,48.91)" r="6.5"><circle class="node" r="6" node_type="nucleotide" style="fill: lightgreen;"></circle><text text-anchor="middle" font-size="8" font-weight="bold" y="2.5" class="node-label">C</text></g><g class="noselect gnode" struct_name="m" transform="translate(36.64,36.61)" r="6.5"><circle class="node" r="6" node_type="nucleotide" style="fill: lightgreen;"></circle><text text-anchor="middle" font-size="8" font-weight="bold" y="2.5" class="node-label">U</text></g><g class="noselect gnode" struct_name="m" transform="translate(25.95,23.73)" r="6.5"><circle class="node" r="6" node_type="nucleotide" style="fill: lightgreen;"></circle><text text-anchor="middle" font-size="8" font-weight="bold" y="2.5" class="node-label">G</text></g><g class="noselect gnode" struct_name="m" transform="translate(16.07,10.63)" r="6.5"><circle class="node" r="6" node_type="nucleotide" style="fill: lightgreen;"></circle><text text-anchor="middle" font-size="8" font-weight="bold" y="2.5" class="node-label">G</text></g><g class="noselect gnode" struct_name="m" transform="translate(6.70,-2.27)" r="6.5"><circle class="node" r="6" node_type="nucleotide" style="fill: lightgreen;"></circle><text text-anchor="middle" font-size="8" font-weight="bold" y="2.5" class="node-label">G</text></g><g class="noselect gnode" struct_name="m" transform="translate(-5.85,-11.77)" r="6.5"><circle class="node" r="6" node_type="nucleotide" style="fill: lightblue;"></circle><text text-anchor="middle" font-size="8" font-weight="bold" y="2.5" class="node-label">C</text></g><g class="noselect gnode" struct_name="m" transform="translate(-0.67,-26.12)" r="6.5"><circle class="node" r="6" node_type="nucleotide" style="fill: lightblue;"></circle><text text-anchor="middle" font-size="8" font-weight="bold" y="2.5" class="node-label">U</text></g><g class="noselect gnode" struct_name="m" transform="translate(14.59,-25.89)" r="6.5"><circle class="node" r="6" node_type="nucleotide" style="fill: lightblue;"></circle><text text-anchor="middle" font-size="8" font-weight="bold" y="2.5" class="node-label">U</text></g><g class="noselect gnode" struct_name="m" transform="translate(19.01,-10.82)" r="6.5"><circle class="node" r="6" node_type="nucleotide" style="fill: lightgreen;"></circle><text text-anchor="middle" font-size="8" font-weight="bold" y="2.5" class="node-label">C</text></g><g class="noselect gnode" struct_name="m" transform="translate(27.85,2.08)" r="6.5"><circle class="node" r="6" node_type="nucleotide" style="fill: lightgreen;"></circle><text text-anchor="middle" font-size="8" font-weight="bold" y="2.5" class="node-label">C</text></g><g class="noselect gnode" struct_name="m" transform="translate(37.34,14.83)" r="6.5"><circle class="node" r="6" node_type="nucleotide" style="fill: lightgreen;"></circle><text text-anchor="middle" font-size="8" font-weight="bold" y="2.5" class="node-label">C</text></g><g class="noselect gnode" struct_name="m" transform="translate(47.41,27.02)" r="6.5"><circle class="node" r="6" node_type="nucleotide" style="fill: lightgreen;"></circle><text text-anchor="middle" font-size="8" font-weight="bold" y="2.5" class="node-label">A</text></g><g class="noselect gnode" struct_name="m" transform="translate(58.27,38.02)" r="6.5"><circle class="node" r="6" node_type="nucleotide" style="fill: lightgreen;"></circle><text text-anchor="middle" font-size="8" font-weight="bold" y="2.5" class="node-label">G</text></g><g class="noselect gnode" struct_name="m" transform="translate(73.68,38.80)" r="6.5"><circle class="node" r="6" node_type="nucleotide" style="fill: rgb(219, 219, 141);"></circle><text text-anchor="middle" font-size="8" font-weight="bold" y="2.5" class="node-label">A</text></g><g class="noselect gnode" struct_name="m" transform="translate(82.55,50.97)" r="6.5"><circle class="node" r="6" node_type="nucleotide" style="fill: rgb(219, 219, 141);"></circle><text text-anchor="middle" font-size="8" font-weight="bold" y="2.5" class="node-label">A</text></g><g class="noselect gnode" struct_name="m" transform="translate(78.51,65.76)" r="6.5"><circle class="node" r="6" node_type="nucleotide" style="fill: lightgreen;"></circle><text text-anchor="middle" font-size="8" font-weight="bold" y="2.5" class="node-label">C</text></g><g class="noselect gnode" struct_name="m" transform="translate(85.76,78.70)" r="6.5"><circle class="node" r="6" node_type="nucleotide" style="fill: lightgreen;"></circle><text text-anchor="middle" font-size="8" font-weight="bold" y="2.5" class="node-label">A</text></g><g class="noselect gnode" struct_name="m" transform="translate(100.46,82.95)" r="6.5"><circle class="node" r="6" node_type="nucleotide" style="fill: rgb(219, 219, 141);"></circle><text text-anchor="middle" font-size="8" font-weight="bold" y="2.5" class="node-label">A</text></g><g class="noselect gnode" struct_name="m" transform="translate(106.21,96.89)" r="6.5"><circle class="node" r="6" node_type="nucleotide" style="fill: rgb(219, 219, 141);"></circle><text text-anchor="middle" font-size="8" font-weight="bold" y="2.5" class="node-label">G</text></g><g class="noselect gnode" struct_name="m" transform="translate(98.81,110.38)" r="6.5"><circle class="node" r="6" node_type="nucleotide" style="fill: lightgreen;"></circle><text text-anchor="middle" font-size="8" font-weight="bold" y="2.5" class="node-label">G</text></g><g class="noselect gnode" struct_name="m" transform="translate(102.39,125.23)" r="6.5"><circle class="node" r="6" node_type="nucleotide" style="fill: lightgreen;"></circle><text text-anchor="middle" font-size="8" font-weight="bold" y="2.5" class="node-label">A</text></g><g class="noselect gnode" struct_name="m" transform="translate(107.51,139.93)" r="6.5"><circle class="node" r="6" node_type="nucleotide" style="fill: lightgreen;"></circle><text text-anchor="middle" font-size="8" font-weight="bold" y="2.5" class="node-label">G</text></g><g class="noselect gnode" struct_name="m" transform="translate(113.43,154.36)" r="6.5"><circle class="node" r="6" node_type="nucleotide" style="fill: lightgreen;"></circle><text text-anchor="middle" font-size="8" font-weight="bold" y="2.5" class="node-label">U</text></g><g class="noselect gnode" struct_name="m" transform="translate(128.12,158.80)" r="6.5"><circle class="node" r="6" node_type="nucleotide" style="fill: lightsalmon;"></circle><text text-anchor="middle" font-size="8" font-weight="bold" y="2.5" class="node-label">G</text></g><g class="noselect gnode" struct_name="m" transform="translate(136.39,171.28)" r="6.5"><circle class="node" r="6" node_type="nucleotide" style="fill: lightsalmon;"></circle><text text-anchor="middle" font-size="8" font-weight="bold" y="2.5" class="node-label">G</text></g><g class="noselect gnode" struct_name="m" transform="translate(135.12,186.17)" r="6.5"><circle class="node" r="6" node_type="nucleotide" style="fill: lightsalmon;"></circle><text text-anchor="middle" font-size="8" font-weight="bold" y="2.5" class="node-label">C</text></g><g class="noselect gnode" struct_name="m" transform="translate(124.68,196.74)" r="6.5"><circle class="node" r="6" node_type="nucleotide" style="fill: lightsalmon;"></circle><text text-anchor="middle" font-size="8" font-weight="bold" y="2.5" class="node-label">A</text></g><g class="noselect gnode" struct_name="m" transform="translate(109.98,198.55)" r="6.5"><circle class="node" r="6" node_type="nucleotide" style="fill: lightsalmon;"></circle><text text-anchor="middle" font-size="8" font-weight="bold" y="2.5" class="node-label">A</text></g><g class="noselect gnode" struct_name="m" transform="translate(23.11,44.40)" r="6.5"><circle class="node label" r="6" node_type="label"></circle><text text-anchor="middle" font-size="8" font-weight="bold" y="2.5" class="node-label">10</text></g><g class="noselect gnode" struct_name="m" transform="translate(57.87,15.43)" r="6.5"><circle class="node label" r="6" node_type="label"></circle><text text-anchor="middle" font-size="8" font-weight="bold" y="2.5" class="node-label">20</text></g><g class="noselect gnode" struct_name="m" transform="translate(122.95,138.21)" r="6.5"><circle class="node label" r="6" node_type="label"></circle><text text-anchor="middle" font-size="8" font-weight="bold" y="2.5" class="node-label">30</text></g><g class="noselect gnode" transform="translate(47.44,37.95)" r="6.5"><circle class="node" r="0" node_type="middle"></circle><text text-anchor="middle" font-size="8" font-weight="bold" y="2.5" class="node-label"></text></g><g class="noselect gnode" transform="translate(36.61,25.67)" r="6.5"><circle class="node" r="0" node_type="middle"></circle><text text-anchor="middle" font-size="8" font-weight="bold" y="2.5" class="node-label"></text></g><g class="noselect gnode" transform="translate(26.64,12.88)" r="6.5"><circle class="node" r="0" node_type="middle"></circle><text text-anchor="middle" font-size="8" font-weight="bold" y="2.5" class="node-label"></text></g><g class="noselect gnode" transform="translate(17.25,-0.15)" r="6.5"><circle class="node" r="0" node_type="middle"></circle><text text-anchor="middle" font-size="8" font-weight="bold" y="2.5" class="node-label"></text></g><g class="noselect gnode" transform="translate(103.52,150.05)" r="6.5"><circle class="node" r="0" node_type="middle"></circle><text text-anchor="middle" font-size="8" font-weight="bold" y="2.5" class="node-label"></text></g><g class="noselect gnode" transform="translate(97.79,135.04)" r="6.5"><circle class="node" r="0" node_type="middle"></circle><text text-anchor="middle" font-size="8" font-weight="bold" y="2.5" class="node-label"></text></g><g class="noselect gnode" transform="translate(93.11,119.58)" r="6.5"><circle class="node" r="0" node_type="middle"></circle><text text-anchor="middle" font-size="8" font-weight="bold" y="2.5" class="node-label"></text></g><g class="noselect gnode" transform="translate(75.29,76.09)" r="6.5"><circle class="node" r="0" node_type="middle"></circle><text text-anchor="middle" font-size="8" font-weight="bold" y="2.5" class="node-label"></text></g><g class="noselect gnode" transform="translate(97.21,192.82)" r="6.5"><circle class="node" r="0" node_type="middle"></circle><text text-anchor="middle" font-size="8" font-weight="bold" y="2.5" class="node-label"></text></g><g class="noselect gnode" transform="translate(91.13,178.42)" r="6.5"><circle class="node" r="0" node_type="middle"></circle><text text-anchor="middle" font-size="8" font-weight="bold" y="2.5" class="node-label"></text></g><g class="noselect gnode" transform="translate(114.97,176.56)" r="6.5"><circle class="node" r="0" node_type="middle"></circle><text text-anchor="middle" font-size="8" font-weight="bold" y="2.5" class="node-label"></text></g><g class="noselect gnode" transform="translate(6.78,-15.36)" r="6.5"><circle class="node" r="0" node_type="middle"></circle><text text-anchor="middle" font-size="8" font-weight="bold" y="2.5" class="node-label"></text></g><g class="noselect gnode" transform="translate(88.53,96.04)" r="6.5"><circle class="node" r="0" node_type="middle"></circle><text text-anchor="middle" font-size="8" font-weight="bold" y="2.5" class="node-label"></text></g><g class="noselect gnode" transform="translate(65.15,54.31)" r="6.5"><circle class="node" r="0" node_type="middle"></circle><text text-anchor="middle" font-size="8" font-weight="bold" y="2.5" class="node-label"></text></g></g><line class="drag_line" x1="0" y1="0" x2="0" y2="0"></line></g></g></svg>