<svg xmlns="http://www.w3.org/2000/svg" viewBox="0 0 760 640" width="760" height="640"><style>svg {
  display: block;
  min-width: 100%;
  width: 100%;
  min-height: 100%;
}

circle.node {
  stroke: #ccc;
  stroke-width: 1px;
  opacity: 1;
  fill: white;
}

circle.node.label {
    stroke: transparent;
    stroke-width: 0;
    fill: white;
}

circle.outline_node {
    stroke-width: 1px;
    fill: red;
}

circle.protein {
    fill: gray;
    fill-opacity: 0.5;
    stroke-width: 4;
}

circle.hidden_outline {
    stroke-width: 0px;
}


line.link {
  stroke: #999;
  stroke-opacity: 0.8;
  stroke-width: 2;
}

line.basepair {
  stroke: red;
}

line.intermolecule {
  stroke: blue;
}

line.chain_chain {
  stroke-dasharray: 3,3;
}

line.fake {
  stroke: green;
}

.transparent {
    fill: transparent;
    stroke-width: 0;
    stroke-opacity: 0;
    opacity: 0;
    visibility: hidden;
}

.drag_line {
  stroke: #999;
  stroke-width: 2;
  pointer-events: none;
}

.drag_line_hidden {
  stroke: #999;
  stroke-width: 0;
  pointer-events: none;
}

.d3-tip {
    line-height: 1;
    font-weight: bold;
    padding: 6px;
    background: rgba(0, 0, 0, 0.6);
    color: #fff;
    border-radius: 4px;
    pointer-events: none;
          }

text.node-label {
    font-weight: bold;
    font-family: Tahoma, Geneva, sans-serif;
    color: rgb(100,100,100);
    pointer-events: none;
}

text {
    pointer-events: none;
}

g.gnode {

}

circle.outline_node.selected {
    visibility: visible;
}

circle.outline_node {
    visibility: hidden;
}

.brush .extent {
  fill-opacity: .1;
  stroke: #fff;
  shape-rendering: crispEdges;
}

.noselect {
    -webkit-touch-callout: none;
    -webkit-user-select: none;
    -khtml-user-select: none;
    -moz-user-select: none;
    -ms-user-select: none;
    user-select: none;
}

svg {
  display: block;
  min-width: 100%;
  width: 100%;
  min-height: 100%;
}

circle.node {
  stroke: #ccc;
  stroke-width: 1px;
  opacity: 1;
  fill: white;
}

circle.node.label {
    stroke: transparent;
    stroke-width: 0;
    fill: white;
}

circle.outline_node {
    stroke-width: 1px;
    fill: red;
}

circle.protein {
    fill: gray;
    fill-opacity: 0.5;
    stroke-width: 4;
}

circle.hidden_outline {
    stroke-width: 0px;
}


line.link {
  stroke: #999;
  stroke-opacity: 0.8;
  stroke-width: 2;
}

line.basepair {
  stroke: red;
}

line.intermolecule {
  stroke: blue;
}

line.chain_chain {
  stroke-dasharray: 3,3;
}

line.fake {
  stroke: green;
}

.transparent {
    fill: transparent;
    stroke-width: 0;
    stroke-opacity: 0;
    opacity: 0;
    visibility: hidden;
}

.drag_line {
  stroke: #999;
  stroke-width: 2;
  pointer-events: none;
}

.drag_line_hidden {
  stroke: #999;
  stroke-width: 0;
  pointer-events: none;
}

.d3-tip {
    line-height: 1;
    font-weight: bold;
    padding: 6px;
    background: rgba(0, 0, 0, 0.6);
    color: #fff;
    border-radius: 4px;
    pointer-events: none;
          }

text.node-label {
    font-weight: bold;
    font-family: Tahoma, Geneva, sans-serif;
    color: rgb(100,100,100);
    pointer-events: none;
}

text {
    pointer-events: none;
}

g.gnode {

}

circle.outline_node.selected {
    visibility: visible;
}

circle.outline_node {
    visibility: hidden;
}

.brush .extent {
  fill-opacity: .1;
  stroke: #fff;
  shape-rendering: crispEdges;
}

.noselect {
    -webkit-touch-callout: none;
    -webkit-user-select: none;
    -khtml-user-select: none;
    -moz-user-select: none;
    -ms-user-select: none;
    user-select: none;
}
/*# sourceURL=/Users/yumanakamura/ipy_sandbox/sandbox/claude_sandbox/mrna-transformer-worktrees/feat-issue57-switch-derna-knotty/scripts/eval/prerender/forna_vendor/fornac.css*/</style><style></style><g><g class="brush" style="pointer-events: all; -webkit-tap-highlight-color: rgba(0, 0, 0, 0);"><rect class="background" x="0" width="760" y="0" height="640" style="visibility: hidden; cursor: auto;"></rect><rect class="extent" x="0" width="0" y="0" height="0" style="cursor: move;"></rect><g class="resize n" transform="translate(0,0)" style="cursor: ns-resize; display: none;"><rect y="-3" width="0" height="6" style="visibility: hidden;"></rect></g><g class="resize e" transform="translate(0,0)" style="cursor: ew-resize; display: none;"><rect x="-3" width="6" height="0" style="visibility: hidden;"></rect></g><g class="resize s" transform="translate(0,0)" style="cursor: ns-resize; display: none;"><rect y="-3" width="0" height="6" style="visibility: hidden;"></rect></g><g class="resize w" transform="translate(0,0)" style="cursor: ew-resize; display: none;"><rect x="-3" width="6" height="0" style="visibility: hidden;"></rect></g><g class="resize nw" transform="translate(0,0)" style="cursor: nwse-resize; display: none;"><rect x="-3" y="-3" width="6" height="6" style="visibility: hidden;"></rect></g><g class="resize ne" transform="translate(0,0)" style="cursor: nesw-resize; display: none;"><rect x="-3" y="-3" width="6" height="6" style="visibility: hidden;"></rect></g><g class="resize se" transform="translate(0,0)" style="cursor: nwse-resize; display: none;"><rect x="-3" y="-3" width="6" height="6" style="visibility: hidden;"></rect></g><g class="resize sw" transform="translate(0,0)" style="cursor: nesw-resize; display: none;"><rect x="-3" y="-3" width="6" height="6" style="visibility: hidden;"></rect></g></g><g transform="translate(229.24,-15.44) scale(2.22)"><g><line class="link backbone" x1="27.47" y1="272.85" x2="12.72" y2="274.91"></line><line class="link backbone" x1="12.72" y1="274.91" x2="-0.70" y2="268.42"></line><line class="link backbone" x1="-0.70" y1="268.42" x2="-8.05" y2="255.29"></line><line class="link backbone" x1="-8.05" y1="255.29" x2="-5.61" y2="240.33"></line><line class="link backbone" x1="-5.61" y1="240.33" x2="4.89" y2="229.70"></line><line class="link basepair" x1="20.06" y1="226.63" x2="33.32" y2="233.44"></line><line class="link backbone" x1="4.89" y1="229.70" x2="20.06" y2="226.63"></line><line class="link basepair" x1="27.87" y1="212.59" x2="40.61" y2="219.65"></line><line class="link backbone" x1="20.06" y1="226.63" x2="27.87" y2="212.59"></line><line class="link basepair" x1="35.83" y1="198.51" x2="48.46" y2="205.58"></line><line class="link backbone" x1="27.87" y1="212.59" x2="35.83" y2="198.51"></line><line class="link basepair" x1="43.74" y1="184.35" x2="56.40" y2="191.38"></line><line class="link backbone" x1="35.83" y1="198.51" x2="43.74" y2="184.35"></line><line class="link basepair" x1="51.66" y1="170.10" x2="64.25" y2="177.15"></line><line class="link backbone" x1="43.74" y1="184.35" x2="51.66" y2="170.10"></line><line class="link basepair" x1="59.75" y1="155.83" x2="72.24" y2="163.12"></line><line class="link backbone" x1="51.66" y1="170.10" x2="59.75" y2="155.83"></line><line class="link basepair" x1="68.30" y1="141.75" x2="80.53" y2="149.54"></line><line class="link backbone" x1="59.75" y1="155.83" x2="68.30" y2="141.75"></line><line class="link basepair" x1="77.53" y1="127.97" x2="89.35" y2="136.23"></line><line class="link backbone" x1="68.30" y1="141.75" x2="77.53" y2="127.97"></line><line class="link basepair" x1="87.47" y1="114.51" x2="98.79" y2="123.40"></line><line class="link backbone" x1="77.53" y1="127.97" x2="87.47" y2="114.51"></line><line class="link basepair" x1="98.13" y1="101.56" x2="108.93" y2="111.68"></line><line class="link backbone" x1="87.47" y1="114.51" x2="98.13" y2="101.56"></line><line class="link basepair" x1="105.75" y1="86.71" x2="120.33" y2="89.60"></line><line class="link backbone" x1="98.13" y1="101.56" x2="105.75" y2="86.71"></line><line class="link basepair" x1="109.77" y1="70.85" x2="123.88" y2="74.68"></line><line class="link backbone" x1="105.75" y1="86.71" x2="109.77" y2="70.85"></line><line class="link basepair" x1="114.03" y1="55.51" x2="128.42" y2="59.86"></line><line class="link backbone" x1="109.77" y1="70.85" x2="114.03" y2="55.51"></line><line class="link backbone" x1="114.03" y1="55.51" x2="113.71" y2="39.80"></line><line class="link backbone" x1="113.71" y1="39.80" x2="128.21" y2="34.94"></line><line class="link backbone" x1="128.21" y1="34.94" x2="137.47" y2="47.09"></line><line class="link basepair" x1="128.42" y1="59.86" x2="114.03" y2="55.51"></line><line class="link backbone" x1="137.47" y1="47.09" x2="128.42" y2="59.86"></line><line class="link basepair" x1="123.88" y1="74.68" x2="109.77" y2="70.85"></line><line class="link backbone" x1="128.42" y1="59.86" x2="123.88" y2="74.68"></line><line class="link basepair" x1="120.33" y1="89.60" x2="105.75" y2="86.71"></line><line class="link backbone" x1="123.88" y1="74.68" x2="120.33" y2="89.60"></line><line class="link backbone" x1="120.33" y1="89.60" x2="122.80" y2="104.79"></line><line class="link basepair" x1="108.93" y1="111.68" x2="98.13" y2="101.56"></line><line class="link backbone" x1="122.80" y1="104.79" x2="108.93" y2="111.68"></line><line class="link basepair" x1="98.79" y1="123.40" x2="87.47" y2="114.51"></line><line class="link backbone" x1="108.93" y1="111.68" x2="98.79" y2="123.40"></line><line class="link basepair" x1="89.35" y1="136.23" x2="77.53" y2="127.97"></line><line class="link backbone" x1="98.79" y1="123.40" x2="89.35" y2="136.23"></line><line class="link basepair" x1="80.53" y1="149.54" x2="68.30" y2="141.75"></line><line class="link backbone" x1="89.35" y1="136.23" x2="80.53" y2="149.54"></line><line class="link basepair" x1="72.24" y1="163.12" x2="59.75" y2="155.83"></line><line class="link backbone" x1="80.53" y1="149.54" x2="72.24" y2="163.12"></line><line class="link basepair" x1="64.25" y1="177.15" x2="51.66" y2="170.10"></line><line class="link backbone" x1="72.24" y1="163.12" x2="64.25" y2="177.15"></line><line class="link basepair" x1="56.40" y1="191.38" x2="43.74" y2="184.35"></line><line class="link backbone" x1="64.25" y1="177.15" x2="56.40" y2="191.38"></line><line class="link basepair" x1="48.46" y1="205.58" x2="35.83" y2="198.51"></line><line class="link backbone" x1="56.40" y1="191.38" x2="48.46" y2="205.58"></line><line class="link basepair" x1="40.61" y1="219.65" x2="27.87" y2="212.59"></line><line class="link backbone" x1="48.46" y1="205.58" x2="40.61" y2="219.65"></line><line class="link basepair" x1="33.32" y1="233.44" x2="20.06" y2="226.63"></line><line class="link backbone" x1="40.61" y1="219.65" x2="33.32" y2="233.44"></line><line class="link label_link" x1="43.74" y1="184.35" x2="30.03" y2="176.90"></line><line class="link label_link" x1="113.71" y1="39.80" x2="108.45" y2="25.22"></line><line class="link label_link" x1="80.53" y1="149.54" x2="92.58" y2="159.43"></line><line class="link fake transparent" x1="20.06" y1="226.63" x2="30.34" y2="223.10"></line><line class="link fake transparent" x1="20.06" y1="226.63" x2="40.61" y2="219.65"></line><line class="link fake transparent" x1="27.87" y1="212.59" x2="30.34" y2="223.10"></line><line class="link fake transparent" x1="40.61" y1="219.65" x2="30.34" y2="223.10"></line><line class="link fake transparent" x1="33.32" y1="233.44" x2="30.34" y2="223.10"></line><line class="link fake transparent" x1="27.87" y1="212.59" x2="38.18" y2="209.12"></line><line class="link fake transparent" x1="35.83" y1="198.51" x2="38.18" y2="209.12"></line><line class="link fake transparent" x1="48.46" y1="205.58" x2="38.18" y2="209.12"></line><line class="link fake transparent" x1="40.61" y1="219.65" x2="38.18" y2="209.12"></line><line class="link fake transparent" x1="35.83" y1="198.51" x2="46.13" y2="194.99"></line><line class="link fake transparent" x1="43.74" y1="184.35" x2="46.13" y2="194.99"></line><line class="link fake transparent" x1="56.40" y1="191.38" x2="46.13" y2="194.99"></line><line class="link fake transparent" x1="48.46" y1="205.58" x2="46.13" y2="194.99"></line><line class="link fake transparent" x1="43.74" y1="184.35" x2="54.00" y2="180.75"></line><line class="link fake transparent" x1="51.66" y1="170.10" x2="54.00" y2="180.75"></line><line class="link fake transparent" x1="64.25" y1="177.15" x2="54.00" y2="180.75"></line><line class="link fake transparent" x1="56.40" y1="191.38" x2="54.00" y2="180.75"></line><line class="link fake transparent" x1="51.66" y1="170.10" x2="61.91" y2="166.49"></line><line class="link fake transparent" x1="59.75" y1="155.83" x2="61.91" y2="166.49"></line><line class="link fake transparent" x1="72.24" y1="163.12" x2="61.91" y2="166.49"></line><line class="link fake transparent" x1="64.25" y1="177.15" x2="61.91" y2="166.49"></line><line class="link fake transparent" x1="59.75" y1="155.83" x2="70.06" y2="152.43"></line><line class="link fake transparent" x1="68.30" y1="141.75" x2="70.06" y2="152.43"></line><line class="link fake transparent" x1="80.53" y1="149.54" x2="70.06" y2="152.43"></line><line class="link fake transparent" x1="72.24" y1="163.12" x2="70.06" y2="152.43"></line><line class="link fake transparent" x1="68.30" y1="141.75" x2="78.75" y2="138.77"></line><line class="link fake transparent" x1="77.53" y1="127.97" x2="78.75" y2="138.77"></line><line class="link fake transparent" x1="89.35" y1="136.23" x2="78.75" y2="138.77"></line><line class="link fake transparent" x1="80.53" y1="149.54" x2="78.75" y2="138.77"></line><line class="link fake transparent" x1="77.53" y1="127.97" x2="88.10" y2="125.40"></line><line class="link fake transparent" x1="87.47" y1="114.51" x2="88.10" y2="125.40"></line><line class="link fake transparent" x1="98.79" y1="123.40" x2="88.10" y2="125.40"></line><line class="link fake transparent" x1="89.35" y1="136.23" x2="88.10" y2="125.40"></line><line class="link fake transparent" x1="87.47" y1="114.51" x2="98.14" y2="112.54"></line><line class="link fake transparent" x1="98.13" y1="101.56" x2="98.14" y2="112.54"></line><line class="link fake transparent" x1="108.93" y1="111.68" x2="98.14" y2="112.54"></line><line class="link fake transparent" x1="98.79" y1="123.40" x2="98.14" y2="112.54"></line><line class="link fake transparent" x1="105.75" y1="86.71" x2="114.71" y2="80.41"></line><line class="link fake transparent" x1="109.77" y1="70.85" x2="114.71" y2="80.41"></line><line class="link fake transparent" x1="123.88" y1="74.68" x2="114.71" y2="80.41"></line><line class="link fake transparent" x1="120.33" y1="89.60" x2="114.71" y2="80.41"></line><line class="link fake transparent" x1="109.77" y1="70.85" x2="118.98" y2="65.09"></line><line class="link fake transparent" x1="114.03" y1="55.51" x2="118.98" y2="65.09"></line><line class="link fake transparent" x1="128.42" y1="59.86" x2="118.98" y2="65.09"></line><line class="link fake transparent" x1="123.88" y1="74.68" x2="118.98" y2="65.09"></line><line class="link fake transparent" x1="27.47" y1="272.85" x2="16.26" y2="250.92"></line><line class="link fake transparent" x1="27.47" y1="272.85" x2="4.89" y2="229.70"></line><line class="link fake transparent" x1="12.72" y1="274.91" x2="16.26" y2="250.92"></line><line class="link fake transparent" x1="12.72" y1="274.91" x2="20.06" y2="226.63"></line><line class="link fake transparent" x1="-0.70" y1="268.42" x2="16.26" y2="250.92"></line><line class="link fake transparent" x1="-0.70" y1="268.42" x2="33.32" y2="233.44"></line><line class="link fake transparent" x1="-8.05" y1="255.29" x2="16.26" y2="250.92"></line><line class="link fake transparent" x1="-8.05" y1="255.29" x2="39.89" y2="247.79"></line><line class="link fake transparent" x1="-5.61" y1="240.33" x2="16.26" y2="250.92"></line><line class="link fake transparent" x1="-5.61" y1="240.33" x2="38.18" y2="261.88"></line><line class="link fake transparent" x1="4.89" y1="229.70" x2="16.26" y2="250.92"></line><line class="link fake transparent" x1="4.89" y1="229.70" x2="27.47" y2="272.85"></line><line class="link fake transparent" x1="20.06" y1="226.63" x2="16.26" y2="250.92"></line><line class="link fake transparent" x1="20.06" y1="226.63" x2="12.72" y2="274.91"></line><line class="link fake transparent" x1="33.32" y1="233.44" x2="16.26" y2="250.92"></line><line class="link fake transparent" x1="33.32" y1="233.44" x2="-0.70" y2="268.42"></line><line class="link fake transparent" x1="114.03" y1="55.51" x2="124.35" y2="47.47"></line><line class="link fake transparent" x1="114.03" y1="55.51" x2="128.21" y2="34.94"></line><line class="link fake transparent" x1="113.71" y1="39.80" x2="124.35" y2="47.47"></line><line class="link fake transparent" x1="113.71" y1="39.80" x2="137.47" y2="47.09"></line><line class="link fake transparent" x1="128.21" y1="34.94" x2="124.35" y2="47.47"></line><line class="link fake transparent" x1="128.21" y1="34.94" x2="128.42" y2="59.86"></line><line class="link fake transparent" x1="137.47" y1="47.09" x2="124.35" y2="47.47"></line><line class="link fake transparent" x1="137.47" y1="47.09" x2="114.03" y2="55.51"></line><line class="link fake transparent" x1="128.42" y1="59.86" x2="124.35" y2="47.47"></line><line class="link fake transparent" x1="128.42" y1="59.86" x2="113.71" y2="39.80"></line><line class="link fake transparent" x1="98.13" y1="101.56" x2="110.91" y2="98.73"></line><line class="link fake transparent" x1="98.13" y1="101.56" x2="120.33" y2="89.60"></line><line class="link fake transparent" x1="105.75" y1="86.71" x2="110.91" y2="98.73"></line><line class="link fake transparent" x1="105.75" y1="86.71" x2="122.80" y2="104.79"></line><line class="link fake transparent" x1="120.33" y1="89.60" x2="110.91" y2="98.73"></line><line class="link fake transparent" x1="120.33" y1="89.60" x2="108.93" y2="111.68"></line><line class="link fake transparent" x1="122.80" y1="104.79" x2="110.91" y2="98.73"></line><line class="link fake transparent" x1="122.80" y1="104.79" x2="98.13" y2="101.56"></line><line class="link fake transparent" x1="108.93" y1="111.68" x2="110.91" y2="98.73"></line><line class="link fake transparent" x1="108.93" y1="111.68" x2="105.75" y2="86.71"></line></g><g><g class="noselect gnode" struct_name="m" transform="translate(27.47,272.85)" r="6.5"><circle class="node" r="6" node_type="nucleotide" style="fill: lightsalmon;"></circle><text text-anchor="middle" font-size="8" font-weight="bold" y="2.5" class="node-label">G</text></g><g class="noselect gnode" struct_name="m" transform="translate(12.72,274.91)" r="6.5"><circle class="node" r="6" node_type="nucleotide" style="fill: lightsalmon;"></circle><text text-anchor="middle" font-size="8" font-weight="bold" y="2.5" class="node-label">A</text></g><g class="noselect gnode" struct_name="m" transform="translate(-0.70,268.42)" r="6.5"><circle class="node" r="6" node_type="nucleotide" style="fill: lightsalmon;"></circle><text text-anchor="middle" font-size="8" font-weight="bold" y="2.5" class="node-label">U</text></g><g class="noselect gnode" struct_name="m" transform="translate(-8.05,255.29)" r="6.5"><circle class="node" r="6" node_type="nucleotide" style="fill: lightsalmon;"></circle><text text-anchor="middle" font-size="8" font-weight="bold" y="2.5" class="node-label">U</text></g><g class="noselect gnode" struct_name="m" transform="translate(-5.61,240.33)" r="6.5"><circle class="node" r="6" node_type="nucleotide" style="fill: lightsalmon;"></circle><text text-anchor="middle" font-size="8" font-weight="bold" y="2.5" class="node-label">U</text></g><g class="noselect gnode" struct_name="m" transform="translate(4.89,229.70)" r="6.5"><circle class="node" r="6" node_type="nucleotide" style="fill: lightsalmon;"></circle><text text-anchor="middle" font-size="8" font-weight="bold" y="2.5" class="node-label">U</text></g><g class="noselect gnode" struct_name="m" transform="translate(20.06,226.63)" r="6.5"><circle class="node" r="6" node_type="nucleotide" style="fill: lightgreen;"></circle><text text-anchor="middle" font-size="8" font-weight="bold" y="2.5" class="node-label">U</text></g><g class="noselect gnode" struct_name="m" transform="translate(27.87,212.59)" r="6.5"><circle class="node" r="6" node_type="nucleotide" style="fill: lightgreen;"></circle><text text-anchor="middle" font-size="8" font-weight="bold" y="2.5" class="node-label">G</text></g><g class="noselect gnode" struct_name="m" transform="translate(35.83,198.51)" r="6.5"><circle class="node" r="6" node_type="nucleotide" style="fill: lightgreen;"></circle><text text-anchor="middle" font-size="8" font-weight="bold" y="2.5" class="node-label">G</text></g><g class="noselect gnode" struct_name="m" transform="translate(43.74,184.35)" r="6.5"><circle class="node" r="6" node_type="nucleotide" style="fill: lightgreen;"></circle><text text-anchor="middle" font-size="8" font-weight="bold" y="2.5" class="node-label">G</text></g><g class="noselect gnode" struct_name="m" transform="translate(51.66,170.10)" r="6.5"><circle class="node" r="6" node_type="nucleotide" style="fill: lightgreen;"></circle><text text-anchor="middle" font-size="8" font-weight="bold" y="2.5" class="node-label">G</text></g><g class="noselect gnode" struct_name="m" transform="translate(59.75,155.83)" r="6.5"><circle class="node" r="6" node_type="nucleotide" style="fill: lightgreen;"></circle><text text-anchor="middle" font-size="8" font-weight="bold" y="2.5" class="node-label">A</text></g><g class="noselect gnode" struct_name="m" transform="translate(68.30,141.75)" r="6.5"><circle class="node" r="6" node_type="nucleotide" style="fill: lightgreen;"></circle><text text-anchor="middle" font-size="8" font-weight="bold" y="2.5" class="node-label">U</text></g><g class="noselect gnode" struct_name="m" transform="translate(77.53,127.97)" r="6.5"><circle class="node" r="6" node_type="nucleotide" style="fill: lightgreen;"></circle><text text-anchor="middle" font-size="8" font-weight="bold" y="2.5" class="node-label">G</text></g><g class="noselect gnode" struct_name="m" transform="translate(87.47,114.51)" r="6.5"><circle class="node" r="6" node_type="nucleotide" style="fill: lightgreen;"></circle><text text-anchor="middle" font-size="8" font-weight="bold" y="2.5" class="node-label">U</text></g><g class="noselect gnode" struct_name="m" transform="translate(98.13,101.56)" r="6.5"><circle class="node" r="6" node_type="nucleotide" style="fill: lightgreen;"></circle><text text-anchor="middle" font-size="8" font-weight="bold" y="2.5" class="node-label">U</text></g><g class="noselect gnode" struct_name="m" transform="translate(105.75,86.71)" r="6.5"><circle class="node" r="6" node_type="nucleotide" style="fill: lightgreen;"></circle><text text-anchor="middle" font-size="8" font-weight="bold" y="2.5" class="node-label">U</text></g><g class="noselect gnode" struct_name="m" transform="translate(109.77,70.85)" r="6.5"><circle class="node" r="6" node_type="nucleotide" style="fill: lightgreen;"></circle><text text-anchor="middle" font-size="8" font-weight="bold" y="2.5" class="node-label">G</text></g><g class="noselect gnode" struct_name="m" transform="translate(114.03,55.51)" r="6.5"><circle class="node" r="6" node_type="nucleotide" style="fill: lightgreen;"></circle><text text-anchor="middle" font-size="8" font-weight="bold" y="2.5" class="node-label">C</text></g><g class="noselect gnode" struct_name="m" transform="translate(113.71,39.80)" r="6.5"><circle class="node" r="6" node_type="nucleotide" style="fill: lightblue;"></circle><text text-anchor="middle" font-size="8" font-weight="bold" y="2.5" class="node-label">A</text></g><g class="noselect gnode" struct_name="m" transform="translate(128.21,34.94)" r="6.5"><circle class="node" r="6" node_type="nucleotide" style="fill: lightblue;"></circle><text text-anchor="middle" font-size="8" font-weight="bold" y="2.5" class="node-label">A</text></g><g class="noselect gnode" struct_name="m" transform="translate(137.47,47.09)" r="6.5"><circle class="node" r="6" node_type="nucleotide" style="fill: lightblue;"></circle><text text-anchor="middle" font-size="8" font-weight="bold" y="2.5" class="node-label">A</text></g><g class="noselect gnode" struct_name="m" transform="translate(128.42,59.86)" r="6.5"><circle class="node" r="6" node_type="nucleotide" style="fill: lightgreen;"></circle><text text-anchor="middle" font-size="8" font-weight="bold" y="2.5" class="node-label">G</text></g><g class="noselect gnode" struct_name="m" transform="translate(123.88,74.68)" r="6.5"><circle class="node" r="6" node_type="nucleotide" style="fill: lightgreen;"></circle><text text-anchor="middle" font-size="8" font-weight="bold" y="2.5" class="node-label">C</text></g><g class="noselect gnode" struct_name="m" transform="translate(120.33,89.60)" r="6.5"><circle class="node" r="6" node_type="nucleotide" style="fill: lightgreen;"></circle><text text-anchor="middle" font-size="8" font-weight="bold" y="2.5" class="node-label">A</text></g><g class="noselect gnode" struct_name="m" transform="translate(122.80,104.79)" r="6.5"><circle class="node" r="6" node_type="nucleotide" style="fill: rgb(219, 219, 141);"></circle><text text-anchor="middle" font-size="8" font-weight="bold" y="2.5" class="node-label">U</text></g><g class="noselect gnode" struct_name="m" transform="translate(108.93,111.68)" r="6.5"><circle class="node" r="6" node_type="nucleotide" style="fill: lightgreen;"></circle><text text-anchor="middle" font-size="8" font-weight="bold" y="2.5" class="node-label">A</text></g><g class="noselect gnode" struct_name="m" transform="translate(98.79,123.40)" r="6.5"><circle class="node" r="6" node_type="nucleotide" style="fill: lightgreen;"></circle><text text-anchor="middle" font-size="8" font-weight="bold" y="2.5" class="node-label">A</text></g><g class="noselect gnode" struct_name="m" transform="translate(89.35,136.23)" r="6.5"><circle class="node" r="6" node_type="nucleotide" style="fill: lightgreen;"></circle><text text-anchor="middle" font-size="8" font-weight="bold" y="2.5" class="node-label">U</text></g><g class="noselect gnode" struct_name="m" transform="translate(80.53,149.54)" r="6.5"><circle class="node" r="6" node_type="nucleotide" style="fill: lightgreen;"></circle><text text-anchor="middle" font-size="8" font-weight="bold" y="2.5" class="node-label">A</text></g><g class="noselect gnode" struct_name="m" transform="translate(72.24,163.12)" r="6.5"><circle class="node" r="6" node_type="nucleotide" style="fill: lightgreen;"></circle><text text-anchor="middle" font-size="8" font-weight="bold" y="2.5" class="node-label">U</text></g><g class="noselect gnode" struct_name="m" transform="translate(64.25,177.15)" r="6.5"><circle class="node" r="6" node_type="nucleotide" style="fill: lightgreen;"></circle><text text-anchor="middle" font-size="8" font-weight="bold" y="2.5" class="node-label">U</text></g><g class="noselect gnode" struct_name="m" transform="translate(56.40,191.38)" r="6.5"><circle class="node" r="6" node_type="nucleotide" style="fill: lightgreen;"></circle><text text-anchor="middle" font-size="8" font-weight="bold" y="2.5" class="node-label">C</text></g><g class="noselect gnode" struct_name="m" transform="translate(48.46,205.58)" r="6.5"><circle class="node" r="6" node_type="nucleotide" style="fill: lightgreen;"></circle><text text-anchor="middle" font-size="8" font-weight="bold" y="2.5" class="node-label">C</text></g><g class="noselect gnode" struct_name="m" transform="translate(40.61,219.65)" r="6.5"><circle class="node" r="6" node_type="nucleotide" style="fill: lightgreen;"></circle><text text-anchor="middle" font-size="8" font-weight="bold" y="2.5" class="node-label">C</text></g><g class="noselect gnode" struct_name="m" transform="translate(33.32,233.44)" r="6.5"><circle class="node" r="6" node_type="nucleotide" style="fill: lightgreen;"></circle><text text-anchor="middle" font-size="8" font-weight="bold" y="2.5" class="node-label">A</text></g><g class="noselect gnode" struct_name="m" transform="translate(30.03,176.90)" r="6.5"><circle class="node label" r="6" node_type="label"></circle><text text-anchor="middle" font-size="8" font-weight="bold" y="2.5" class="node-label">10</text></g><g class="noselect gnode" struct_name="m" transform="translate(108.45,25.22)" r="6.5"><circle class="node label" r="6" node_type="label"></circle><text text-anchor="middle" font-size="8" font-weight="bold" y="2.5" class="node-label">20</text></g><g class="noselect gnode" struct_name="m" transform="translate(92.58,159.43)" r="6.5"><circle class="node label" r="6" node_type="label"></circle><text text-anchor="middle" font-size="8" font-weight="bold" y="2.5" class="node-label">30</text></g><g class="noselect gnode" transform="translate(30.34,223.10)" r="6.5"><circle class="node" r="0" node_type="middle"></circle><text text-anchor="middle" font-size="8" font-weight="bold" y="2.5" class="node-label"></text></g><g class="noselect gnode" transform="translate(38.18,209.12)" r="6.5"><circle class="node" r="0" node_type="middle"></circle><text text-anchor="middle" font-size="8" font-weight="bold" y="2.5" class="node-label"></text></g><g class="noselect gnode" transform="translate(46.13,194.99)" r="6.5"><circle class="node" r="0" node_type="middle"></circle><text text-anchor="middle" font-size="8" font-weight="bold" y="2.5" class="node-label"></text></g><g class="noselect gnode" transform="translate(54.00,180.75)" r="6.5"><circle class="node" r="0" node_type="middle"></circle><text text-anchor="middle" font-size="8" font-weight="bold" y="2.5" class="node-label"></text></g><g class="noselect gnode" transform="translate(61.91,166.49)" r="6.5"><circle class="node" r="0" node_type="middle"></circle><text text-anchor="middle" font-size="8" font-weight="bold" y="2.5" class="node-label"></text></g><g class="noselect gnode" transform="translate(70.06,152.43)" r="6.5"><circle class="node" r="0" node_type="middle"></circle><text text-anchor="middle" font-size="8" font-weight="bold" y="2.5" class="node-label"></text></g><g class="noselect gnode" transform="translate(78.75,138.77)" r="6.5"><circle class="node" r="0" node_type="middle"></circle><text text-anchor="middle" font-size="8" font-weight="bold" y="2.5" class="node-label"></text></g><g class="noselect gnode" transform="translate(88.10,125.40)" r="6.5"><circle class="node" r="0" node_type="middle"></circle><text text-anchor="middle" font-size="8" font-weight="bold" y="2.5" class="node-label"></text></g><g class="noselect gnode" transform="translate(98.14,112.54)" r="6.5"><circle class="node" r="0" node_type="middle"></circle><text text-anchor="middle" font-size="8" font-weight="bold" y="2.5" class="node-label"></text></g><g class="noselect gnode" transform="translate(114.71,80.41)" r="6.5"><circle class="node" r="0" node_type="middle"></circle><text text-anchor="middle" font-size="8" font-weight="bold" y="2.5" class="node-label"></text></g><g class="noselect gnode" transform="translate(118.98,65.09)" r="6.5"><circle class="node" r="0" node_type="middle"></circle><text text-anchor="middle" font-size="8" font-weight="bold" y="2.5" class="node-label"></text></g><g class="noselect gnode" transform="translate(39.89,247.79)" r="6.5"><circle class="node" r="0" node_type="middle"></circle><text text-anchor="middle" font-size="8" font-weight="bold" y="2.5" class="node-label"></text></g><g class="noselect gnode" transform="translate(38.18,261.88)" r="6.5"><circle class="node" r="0" node_type="middle"></circle><text text-anchor="middle" font-size="8" font-weight="bold" y="2.5" class="node-label"></text></g><g class="noselect gnode" transform="translate(16.26,250.92)" r="6.5"><circle class="node" r="0" node_type="middle"></circle><text text-anchor="middle" font-size="8" font-weight="bold" y="2.5" class="node-label"></text></g><g class="noselect gnode" transform="translate(124.35,47.47)" r="6.5"><circle class="node" r="0" node_type="middle"></circle><text text-anchor="middle" font-size="8" font-weight="bold" y="2.5" class="node-label"></text></g><g class="noselect gnode" transform="translate(110.91,98.73)" r="6.5"><circle class="node" r="0" node_type="middle"></circle><text text-anchor="middle" font-size="8" font-weight="bold" y="2.5" class="node-label"></text></g></g><line class="drag_line" x1="0" y1="0" x2="0" y2="0"></line></g></g></svg>