<svg xmlns="http://www.w3.org/2000/svg" viewBox="0 0 760 640" width="760" height="640"><style>svg {
  display: block;
  min-width: 100%;
  width: 100%;
  min-height: 100%;
}

circle.node {
  stroke: #ccc;
  stroke-width: 1px;
  opacity: 1;
  fill: white;
}

circle.node.label {
    stroke: transparent;
    stroke-width: 0;
    fill: white;
}

circle.outline_node {
    stroke-width: 1px;
    fill: red;
}

circle.protein {
    fill: gray;
    fill-opacity: 0.5;
    stroke-width: 4;
}

circle.hidden_outline {
    stroke-width: 0px;
}


line.link {
  stroke: #999;
  stroke-opacity: 0.8;
  stroke-width: 2;
}

line.basepair {
  stroke: red;
}

line.intermolecule {
  stroke: blue;
}

line.chain_chain {
  stroke-dasharray: 3,3;
}

line.fake {
  stroke: green;
}

.transparent {
    fill: transparent;
    stroke-width: 0;
    stroke-opacity: 0;
    opacity: 0;
    visibility: hidden;
}

.drag_line {
  stroke: #999;
  stroke-width: 2;
  pointer-events: none;
}

.drag_line_hidden {
  stroke: #999;
  stroke-width: 0;
  pointer-events: none;
}

.d3-tip {
    line-height: 1;
    font-weight: bold;
    padding: 6px;
    background: rgba(0, 0, 0, 0.6);
    color: #fff;
    border-radius: 4px;
    pointer-events: none;
          }

text.node-label {
    font-weight: bold;
    font-family: Tahoma, Geneva, sans-serif;
    color: rgb(100,100,100);
    pointer-events: none;
}

text {
    pointer-events: none;
}

g.gnode {

}

circle.outline_node.selected {
    visibility: visible;
}

circle.outline_node {
    visibility: hidden;
}

.brush .extent {
  fill-opacity: .1;
  stroke: #fff;
  shape-rendering: crispEdges;
}

.noselect {
    -webkit-touch-callout: none;
    -webkit-user-select: none;
    -khtml-user-select: none;
    -moz-user-select: none;
    -ms-user-select: none;
    user-select: none;
}

svg {
  display: block;
  min-width: 100%;
  width: 100%;
  min-height: 100%;
}

circle.node {
  stroke: #ccc;
  stroke-width: 1px;
  opacity: 1;
  fill: white;
}

circle.node.label {
    stroke: transparent;
    stroke-width: 0;
    fill: white;
}

circle.outline_node {
    stroke-width: 1px;
    fill: red;
}

circle.protein {
    fill: gray;
    fill-opacity: 0.5;
    stroke-width: 4;
}

circle.hidden_outline {
    stroke-width: 0px;
}


line.link {
  stroke: #999;
  stroke-opacity: 0.8;
  stroke-width: 2;
}

line.basepair {
  stroke: red;
}

line.intermolecule {
  stroke: blue;
}

line.chain_chain {
  stroke-dasharray: 3,3;
}

line.fake {
  stroke: green;
}

.transparent {
    fill: transparent;
    stroke-width: 0;
    stroke-opacity: 0;
    opacity: 0;
    visibility: hidden;
}

.drag_line {
  stroke: #999;
  stroke-width: 2;
  pointer-events: none;
}

.drag_line_hidden {
  stroke: #999;
  stroke-width: 0;
  pointer-events: none;
}

.d3-tip {
    line-height: 1;
    font-weight: bold;
    padding: 6px;
    background: rgba(0, 0, 0, 0.6);
    color: #fff;
    border-radius: 4px;
    pointer-events: none;
          }

text.node-label {
    font-weight: bold;
    font-family: Tahoma, Geneva, sans-serif;
    color: rgb(100,100,100);
    pointer-events: none;
}

text {
    pointer-events: none;
}

g.gnode {

}

circle.outline_node.selected {
    visibility: visible;
}

circle.outline_node {
    visibility: hidden;
}

.brush .extent {
  fill-opacity: .1;
  stroke: #fff;
  shape-rendering: crispEdges;
}

.noselect {
    -webkit-touch-callout: none;
    -webkit-user-select: none;
    -khtml-user-select: none;
    -moz-user-select: none;
    -ms-user-select: none;
    user-select: none;
}
/*# sourceURL=/Users/yumanakamura/ipy_sandbox/sandbox/claude_sandbox/mrna-transformer-worktrees/feat-issue57-switch-derna-knotty/scripts/eval/prerender/forna_vendor/fornac.css*/</style><style></style><g><g class="brush" style="pointer-events: all; -webkit-tap-highlight-color: rgba(0, 0, 0, 0);"><rect class="background" x="0" width="760" y="0" height="640" style="visibility: hidden; cursor: auto;"></rect><rect class="extent" x="0" width="0" y="0" height="0" style="cursor: move;"></rect><g class="resize n" transform="translate(0,0)" style="cursor: ns-resize; display: none;"><rect y="-3" width="0" height="6" style="visibility: hidden;"></rect></g><g class="resize e" transform="translate(0,0)" style="cursor: ew-resize; display: none;"><rect x="-3" width="6" height="0" style="visibility: hidden;"></rect></g><g class="resize s" transform="translate(0,0)" style="cursor: ns-resize; display: none;"><rect y="-3" width="0" height="6" style="visibility: hidden;"></rect></g><g class="resize w" transform="translate(0,0)" style="cursor: ew-resize; display: none;"><rect x="-3" width="6" height="0" style="visibility: hidden;"></rect></g><g class="resize nw" transform="translate(0,0)" style="cursor: nwse-resize; display: none;"><rect x="-3" y="-3" width="6" height="6" style="visibility: hidden;"></rect></g><g class="resize ne" transform="translate(0,0)" style="cursor: nesw-resize; display: none;"><rect x="-3" y="-3" width="6" height="6" style="visibility: hidden;"></rect></g><g class="resize se" transform="translate(0,0)" style="cursor: nwse-resize; display: none;"><rect x="-3" y="-3" width="6" height="6" style="visibility: hidden;"></rect></g><g class="resize sw" transform="translate(0,0)" style="cursor: nesw-resize; display: none;"><rect x="-3" y="-3" width="6" height="6" style="visibility: hidden;"></rect></g></g><g transform="translate(222.36,299.88) scale(2.27)"><g><line class="link backbone" x1="25.86" y1="128.82" x2="11.06" y2="130.56"></line><line class="link backbone" x1="11.06" y1="130.56" x2="-2.24" y2="123.82"></line><line class="link backbone" x1="-2.24" y1="123.82" x2="-9.29" y2="110.51"></line><line class="link backbone" x1="-9.29" y1="110.51" x2="-6.51" y2="95.61"></line><line class="link backbone" x1="-6.51" y1="95.61" x2="4.21" y2="85.20"></line><line class="link basepair" x1="19.46" y1="82.46" x2="32.53" y2="89.61"></line><line class="link backbone" x1="4.21" y1="85.20" x2="19.46" y2="82.46"></line><line class="link basepair" x1="27.66" y1="68.62" x2="40.22" y2="76.07"></line><line class="link backbone" x1="19.46" y1="82.46" x2="27.66" y2="68.62"></line><line class="link basepair" x1="35.95" y1="54.89" x2="48.44" y2="62.33"></line><line class="link backbone" x1="27.66" y1="68.62" x2="35.95" y2="54.89"></line><line class="link basepair" x1="44.08" y1="41.07" x2="56.67" y2="48.32"></line><line class="link backbone" x1="35.95" y1="54.89" x2="44.08" y2="41.07"></line><line class="link basepair" x1="51.97" y1="27.08" x2="64.65" y2="34.09"></line><line class="link backbone" x1="44.08" y1="41.07" x2="51.97" y2="27.08"></line><line class="link basepair" x1="59.68" y1="12.90" x2="72.44" y2="19.85"></line><line class="link backbone" x1="51.97" y1="27.08" x2="59.68" y2="12.90"></line><line class="link basepair" x1="67.36" y1="-1.27" x2="80.13" y2="5.74"></line><line class="link backbone" x1="59.68" y1="12.90" x2="67.36" y2="-1.27"></line><line class="link basepair" x1="75.30" y1="-15.45" x2="87.91" y2="-8.32"></line><line class="link backbone" x1="67.36" y1="-1.27" x2="75.30" y2="-15.45"></line><line class="link basepair" x1="83.42" y1="-29.60" x2="95.94" y2="-22.27"></line><line class="link backbone" x1="75.30" y1="-15.45" x2="83.42" y2="-29.60"></line><line class="link basepair" x1="91.75" y1="-43.57" x2="104.17" y2="-36.02"></line><line class="link backbone" x1="83.42" y1="-29.60" x2="91.75" y2="-43.57"></line><line class="link basepair" x1="100.23" y1="-57.36" x2="112.60" y2="-49.64"></line><line class="link backbone" x1="91.75" y1="-43.57" x2="100.23" y2="-57.36"></line><line class="link basepair" x1="108.77" y1="-70.94" x2="121.13" y2="-63.09"></line><line class="link backbone" x1="100.23" y1="-57.36" x2="108.77" y2="-70.94"></line><line class="link basepair" x1="117.15" y1="-84.33" x2="129.71" y2="-76.34"></line><line class="link backbone" x1="108.77" y1="-70.94" x2="117.15" y2="-84.33"></line><line class="link backbone" x1="117.15" y1="-84.33" x2="117.87" y2="-99.69"></line><line class="link backbone" x1="117.87" y1="-99.69" x2="131.19" y2="-106.52"></line><line class="link backbone" x1="131.19" y1="-106.52" x2="143.83" y2="-98.50"></line><line class="link backbone" x1="143.83" y1="-98.50" x2="143.31" y2="-83.55"></line><line class="link basepair" x1="129.71" y1="-76.34" x2="117.15" y2="-84.33"></line><line class="link backbone" x1="143.31" y1="-83.55" x2="129.71" y2="-76.34"></line><line class="link basepair" x1="121.13" y1="-63.09" x2="108.77" y2="-70.94"></line><line class="link backbone" x1="129.71" y1="-76.34" x2="121.13" y2="-63.09"></line><line class="link basepair" x1="112.60" y1="-49.64" x2="100.23" y2="-57.36"></line><line class="link backbone" x1="121.13" y1="-63.09" x2="112.60" y2="-49.64"></line><line class="link basepair" x1="104.17" y1="-36.02" x2="91.75" y2="-43.57"></line><line class="link backbone" x1="112.60" y1="-49.64" x2="104.17" y2="-36.02"></line><line class="link basepair" x1="95.94" y1="-22.27" x2="83.42" y2="-29.60"></line><line class="link backbone" x1="104.17" y1="-36.02" x2="95.94" y2="-22.27"></line><line class="link basepair" x1="87.91" y1="-8.32" x2="75.30" y2="-15.45"></line><line class="link backbone" x1="95.94" y1="-22.27" x2="87.91" y2="-8.32"></line><line class="link basepair" x1="80.13" y1="5.74" x2="67.36" y2="-1.27"></line><line class="link backbone" x1="87.91" y1="-8.32" x2="80.13" y2="5.74"></line><line class="link basepair" x1="72.44" y1="19.85" x2="59.68" y2="12.90"></line><line class="link backbone" x1="80.13" y1="5.74" x2="72.44" y2="19.85"></line><line class="link basepair" x1="64.65" y1="34.09" x2="51.97" y2="27.08"></line><line class="link backbone" x1="72.44" y1="19.85" x2="64.65" y2="34.09"></line><line class="link basepair" x1="56.67" y1="48.32" x2="44.08" y2="41.07"></line><line class="link backbone" x1="64.65" y1="34.09" x2="56.67" y2="48.32"></line><line class="link basepair" x1="48.44" y1="62.33" x2="35.95" y2="54.89"></line><line class="link backbone" x1="56.67" y1="48.32" x2="48.44" y2="62.33"></line><line class="link basepair" x1="40.22" y1="76.07" x2="27.66" y2="68.62"></line><line class="link backbone" x1="48.44" y1="62.33" x2="40.22" y2="76.07"></line><line class="link basepair" x1="32.53" y1="89.61" x2="19.46" y2="82.46"></line><line class="link backbone" x1="40.22" y1="76.07" x2="32.53" y2="89.61"></line><line class="link label_link" x1="44.08" y1="41.07" x2="30.31" y2="33.77"></line><line class="link label_link" x1="117.87" y1="-99.69" x2="111.99" y2="-114.04"></line><line class="link label_link" x1="80.13" y1="5.74" x2="92.18" y2="15.68"></line><line class="link fake transparent" x1="19.46" y1="82.46" x2="29.81" y2="79.21"></line><line class="link fake transparent" x1="19.46" y1="82.46" x2="40.22" y2="76.07"></line><line class="link fake transparent" x1="27.66" y1="68.62" x2="29.81" y2="79.21"></line><line class="link fake transparent" x1="40.22" y1="76.07" x2="29.81" y2="79.21"></line><line class="link fake transparent" x1="32.53" y1="89.61" x2="29.81" y2="79.21"></line><line class="link fake transparent" x1="27.66" y1="68.62" x2="38.05" y2="65.54"></line><line class="link fake transparent" x1="35.95" y1="54.89" x2="38.05" y2="65.54"></line><line class="link fake transparent" x1="48.44" y1="62.33" x2="38.05" y2="65.54"></line><line class="link fake transparent" x1="40.22" y1="76.07" x2="38.05" y2="65.54"></line><line class="link fake transparent" x1="35.95" y1="54.89" x2="46.34" y2="51.72"></line><line class="link fake transparent" x1="44.08" y1="41.07" x2="46.34" y2="51.72"></line><line class="link fake transparent" x1="56.67" y1="48.32" x2="46.34" y2="51.72"></line><line class="link fake transparent" x1="48.44" y1="62.33" x2="46.34" y2="51.72"></line><line class="link fake transparent" x1="44.08" y1="41.07" x2="54.42" y2="37.69"></line><line class="link fake transparent" x1="51.97" y1="27.08" x2="54.42" y2="37.69"></line><line class="link fake transparent" x1="64.65" y1="34.09" x2="54.42" y2="37.69"></line><line class="link fake transparent" x1="56.67" y1="48.32" x2="54.42" y2="37.69"></line><line class="link fake transparent" x1="51.97" y1="27.08" x2="62.21" y2="23.49"></line><line class="link fake transparent" x1="59.68" y1="12.90" x2="62.21" y2="23.49"></line><line class="link fake transparent" x1="72.44" y1="19.85" x2="62.21" y2="23.49"></line><line class="link fake transparent" x1="64.65" y1="34.09" x2="62.21" y2="23.49"></line><line class="link fake transparent" x1="59.68" y1="12.90" x2="69.89" y2="9.25"></line><line class="link fake transparent" x1="67.36" y1="-1.27" x2="69.89" y2="9.25"></line><line class="link fake transparent" x1="80.13" y1="5.74" x2="69.89" y2="9.25"></line><line class="link fake transparent" x1="72.44" y1="19.85" x2="69.89" y2="9.25"></line><line class="link fake transparent" x1="67.36" y1="-1.27" x2="77.60" y2="-4.86"></line><line class="link fake transparent" x1="75.30" y1="-15.45" x2="77.60" y2="-4.86"></line><line class="link fake transparent" x1="87.91" y1="-8.32" x2="77.60" y2="-4.86"></line><line class="link fake transparent" x1="80.13" y1="5.74" x2="77.60" y2="-4.86"></line><line class="link fake transparent" x1="75.30" y1="-15.45" x2="85.59" y2="-18.95"></line><line class="link fake transparent" x1="83.42" y1="-29.60" x2="85.59" y2="-18.95"></line><line class="link fake transparent" x1="95.94" y1="-22.27" x2="85.59" y2="-18.95"></line><line class="link fake transparent" x1="87.91" y1="-8.32" x2="85.59" y2="-18.95"></line><line class="link fake transparent" x1="83.42" y1="-29.60" x2="93.77" y2="-32.93"></line><line class="link fake transparent" x1="91.75" y1="-43.57" x2="93.77" y2="-32.93"></line><line class="link fake transparent" x1="104.17" y1="-36.02" x2="93.77" y2="-32.93"></line><line class="link fake transparent" x1="95.94" y1="-22.27" x2="93.77" y2="-32.93"></line><line class="link fake transparent" x1="91.75" y1="-43.57" x2="102.15" y2="-46.69"></line><line class="link fake transparent" x1="100.23" y1="-57.36" x2="102.15" y2="-46.69"></line><line class="link fake transparent" x1="112.60" y1="-49.64" x2="102.15" y2="-46.69"></line><line class="link fake transparent" x1="104.17" y1="-36.02" x2="102.15" y2="-46.69"></line><line class="link fake transparent" x1="100.23" y1="-57.36" x2="110.67" y2="-60.31"></line><line class="link fake transparent" x1="108.77" y1="-70.94" x2="110.67" y2="-60.31"></line><line class="link fake transparent" x1="121.13" y1="-63.09" x2="110.67" y2="-60.31"></line><line class="link fake transparent" x1="112.60" y1="-49.64" x2="110.67" y2="-60.31"></line><line class="link fake transparent" x1="108.77" y1="-70.94" x2="119.21" y2="-73.71"></line><line class="link fake transparent" x1="117.15" y1="-84.33" x2="119.21" y2="-73.71"></line><line class="link fake transparent" x1="129.71" y1="-76.34" x2="119.21" y2="-73.71"></line><line class="link fake transparent" x1="121.13" y1="-63.09" x2="119.21" y2="-73.71"></line><line class="link fake transparent" x1="25.86" y1="128.82" x2="15.10" y2="106.68"></line><line class="link fake transparent" x1="25.86" y1="128.82" x2="4.21" y2="85.20"></line><line class="link fake transparent" x1="11.06" y1="130.56" x2="15.10" y2="106.68"></line><line class="link fake transparent" x1="11.06" y1="130.56" x2="19.46" y2="82.46"></line><line class="link fake transparent" x1="-2.24" y1="123.82" x2="15.10" y2="106.68"></line><line class="link fake transparent" x1="-2.24" y1="123.82" x2="32.53" y2="89.61"></line><line class="link fake transparent" x1="-9.29" y1="110.51" x2="15.10" y2="106.68"></line><line class="link fake transparent" x1="-9.29" y1="110.51" x2="38.80" y2="104.04"></line><line class="link fake transparent" x1="-6.51" y1="95.61" x2="15.10" y2="106.68"></line><line class="link fake transparent" x1="-6.51" y1="95.61" x2="36.77" y2="118.15"></line><line class="link fake transparent" x1="4.21" y1="85.20" x2="15.10" y2="106.68"></line><line class="link fake transparent" x1="4.21" y1="85.20" x2="25.86" y2="128.82"></line><line class="link fake transparent" x1="19.46" y1="82.46" x2="15.10" y2="106.68"></line><line class="link fake transparent" x1="19.46" y1="82.46" x2="11.06" y2="130.56"></line><line class="link fake transparent" x1="32.53" y1="89.61" x2="15.10" y2="106.68"></line><line class="link fake transparent" x1="32.53" y1="89.61" x2="-2.24" y2="123.82"></line><line class="link fake transparent" x1="117.15" y1="-84.33" x2="130.49" y2="-91.44"></line><line class="link fake transparent" x1="117.15" y1="-84.33" x2="143.83" y2="-98.50"></line><line class="link fake transparent" x1="117.87" y1="-99.69" x2="130.49" y2="-91.44"></line><line class="link fake transparent" x1="117.87" y1="-99.69" x2="143.31" y2="-83.55"></line><line class="link fake transparent" x1="131.19" y1="-106.52" x2="130.49" y2="-91.44"></line><line class="link fake transparent" x1="131.19" y1="-106.52" x2="129.71" y2="-76.34"></line><line class="link fake transparent" x1="143.83" y1="-98.50" x2="130.49" y2="-91.44"></line><line class="link fake transparent" x1="143.83" y1="-98.50" x2="117.15" y2="-84.33"></line><line class="link fake transparent" x1="143.31" y1="-83.55" x2="130.49" y2="-91.44"></line><line class="link fake transparent" x1="143.31" y1="-83.55" x2="117.87" y2="-99.69"></line><line class="link fake transparent" x1="129.71" y1="-76.34" x2="130.49" y2="-91.44"></line><line class="link fake transparent" x1="129.71" y1="-76.34" x2="131.19" y2="-106.52"></line></g><g><g class="noselect gnode" struct_name="m" transform="translate(25.86,128.82)" r="6.5"><circle class="node" r="6" node_type="nucleotide" style="fill: lightsalmon;"></circle><text text-anchor="middle" font-size="8" font-weight="bold" y="2.5" class="node-label">U</text></g><g class="noselect gnode" struct_name="m" transform="translate(11.06,130.56)" r="6.5"><circle class="node" r="6" node_type="nucleotide" style="fill: lightsalmon;"></circle><text text-anchor="middle" font-size="8" font-weight="bold" y="2.5" class="node-label">U</text></g><g class="noselect gnode" struct_name="m" transform="translate(-2.24,123.82)" r="6.5"><circle class="node" r="6" node_type="nucleotide" style="fill: lightsalmon;"></circle><text text-anchor="middle" font-size="8" font-weight="bold" y="2.5" class="node-label">U</text></g><g class="noselect gnode" struct_name="m" transform="translate(-9.29,110.51)" r="6.5"><circle class="node" r="6" node_type="nucleotide" style="fill: lightsalmon;"></circle><text text-anchor="middle" font-size="8" font-weight="bold" y="2.5" class="node-label">A</text></g><g class="noselect gnode" struct_name="m" transform="translate(-6.51,95.61)" r="6.5"><circle class="node" r="6" node_type="nucleotide" style="fill: lightsalmon;"></circle><text text-anchor="middle" font-size="8" font-weight="bold" y="2.5" class="node-label">U</text></g><g class="noselect gnode" struct_name="m" transform="translate(4.21,85.20)" r="6.5"><circle class="node" r="6" node_type="nucleotide" style="fill: lightsalmon;"></circle><text text-anchor="middle" font-size="8" font-weight="bold" y="2.5" class="node-label">G</text></g><g class="noselect gnode" struct_name="m" transform="translate(19.46,82.46)" r="6.5"><circle class="node" r="6" node_type="nucleotide" style="fill: lightgreen;"></circle><text text-anchor="middle" font-size="8" font-weight="bold" y="2.5" class="node-label">U</text></g><g class="noselect gnode" struct_name="m" transform="translate(27.66,68.62)" r="6.5"><circle class="node" r="6" node_type="nucleotide" style="fill: lightgreen;"></circle><text text-anchor="middle" font-size="8" font-weight="bold" y="2.5" class="node-label">G</text></g><g class="noselect gnode" struct_name="m" transform="translate(35.95,54.89)" r="6.5"><circle class="node" r="6" node_type="nucleotide" style="fill: lightgreen;"></circle><text text-anchor="middle" font-size="8" font-weight="bold" y="2.5" class="node-label">G</text></g><g class="noselect gnode" struct_name="m" transform="translate(44.08,41.07)" r="6.5"><circle class="node" r="6" node_type="nucleotide" style="fill: lightgreen;"></circle><text text-anchor="middle" font-size="8" font-weight="bold" y="2.5" class="node-label">A</text></g><g class="noselect gnode" struct_name="m" transform="translate(51.97,27.08)" r="6.5"><circle class="node" r="6" node_type="nucleotide" style="fill: lightgreen;"></circle><text text-anchor="middle" font-size="8" font-weight="bold" y="2.5" class="node-label">U</text></g><g class="noselect gnode" struct_name="m" transform="translate(59.68,12.90)" r="6.5"><circle class="node" r="6" node_type="nucleotide" style="fill: lightgreen;"></circle><text text-anchor="middle" font-size="8" font-weight="bold" y="2.5" class="node-label">G</text></g><g class="noselect gnode" struct_name="m" transform="translate(67.36,-1.27)" r="6.5"><circle class="node" r="6" node_type="nucleotide" style="fill: lightgreen;"></circle><text text-anchor="middle" font-size="8" font-weight="bold" y="2.5" class="node-label">G</text></g><g class="noselect gnode" struct_name="m" transform="translate(75.30,-15.45)" r="6.5"><circle class="node" r="6" node_type="nucleotide" style="fill: lightgreen;"></circle><text text-anchor="middle" font-size="8" font-weight="bold" y="2.5" class="node-label">G</text></g><g class="noselect gnode" struct_name="m" transform="translate(83.42,-29.60)" r="6.5"><circle class="node" r="6" node_type="nucleotide" style="fill: lightgreen;"></circle><text text-anchor="middle" font-size="8" font-weight="bold" y="2.5" class="node-label">U</text></g><g class="noselect gnode" struct_name="m" transform="translate(91.75,-43.57)" r="6.5"><circle class="node" r="6" node_type="nucleotide" style="fill: lightgreen;"></circle><text text-anchor="middle" font-size="8" font-weight="bold" y="2.5" class="node-label">U</text></g><g class="noselect gnode" struct_name="m" transform="translate(100.23,-57.36)" r="6.5"><circle class="node" r="6" node_type="nucleotide" style="fill: lightgreen;"></circle><text text-anchor="middle" font-size="8" font-weight="bold" y="2.5" class="node-label">A</text></g><g class="noselect gnode" struct_name="m" transform="translate(108.77,-70.94)" r="6.5"><circle class="node" r="6" node_type="nucleotide" style="fill: lightgreen;"></circle><text text-anchor="middle" font-size="8" font-weight="bold" y="2.5" class="node-label">U</text></g><g class="noselect gnode" struct_name="m" transform="translate(117.15,-84.33)" r="6.5"><circle class="node" r="6" node_type="nucleotide" style="fill: lightgreen;"></circle><text text-anchor="middle" font-size="8" font-weight="bold" y="2.5" class="node-label">U</text></g><g class="noselect gnode" struct_name="m" transform="translate(117.87,-99.69)" r="6.5"><circle class="node" r="6" node_type="nucleotide" style="fill: lightblue;"></circle><text text-anchor="middle" font-size="8" font-weight="bold" y="2.5" class="node-label">G</text></g><g class="noselect gnode" struct_name="m" transform="translate(131.19,-106.52)" r="6.5"><circle class="node" r="6" node_type="nucleotide" style="fill: lightblue;"></circle><text text-anchor="middle" font-size="8" font-weight="bold" y="2.5" class="node-label">G</text></g><g class="noselect gnode" struct_name="m" transform="translate(143.83,-98.50)" r="6.5"><circle class="node" r="6" node_type="nucleotide" style="fill: lightblue;"></circle><text text-anchor="middle" font-size="8" font-weight="bold" y="2.5" class="node-label">A</text></g><g class="noselect gnode" struct_name="m" transform="translate(143.31,-83.55)" r="6.5"><circle class="node" r="6" node_type="nucleotide" style="fill: lightblue;"></circle><text text-anchor="middle" font-size="8" font-weight="bold" y="2.5" class="node-label">U</text></g><g class="noselect gnode" struct_name="m" transform="translate(129.71,-76.34)" r="6.5"><circle class="node" r="6" node_type="nucleotide" style="fill: lightgreen;"></circle><text text-anchor="middle" font-size="8" font-weight="bold" y="2.5" class="node-label">A</text></g><g class="noselect gnode" struct_name="m" transform="translate(121.13,-63.09)" r="6.5"><circle class="node" r="6" node_type="nucleotide" style="fill: lightgreen;"></circle><text text-anchor="middle" font-size="8" font-weight="bold" y="2.5" class="node-label">A</text></g><g class="noselect gnode" struct_name="m" transform="translate(112.60,-49.64)" r="6.5"><circle class="node" r="6" node_type="nucleotide" style="fill: lightgreen;"></circle><text text-anchor="middle" font-size="8" font-weight="bold" y="2.5" class="node-label">U</text></g><g class="noselect gnode" struct_name="m" transform="translate(104.17,-36.02)" r="6.5"><circle class="node" r="6" node_type="nucleotide" style="fill: lightgreen;"></circle><text text-anchor="middle" font-size="8" font-weight="bold" y="2.5" class="node-label">G</text></g><g class="noselect gnode" struct_name="m" transform="translate(95.94,-22.27)" r="6.5"><circle class="node" r="6" node_type="nucleotide" style="fill: lightgreen;"></circle><text text-anchor="middle" font-size="8" font-weight="bold" y="2.5" class="node-label">A</text></g><g class="noselect gnode" struct_name="m" transform="translate(87.91,-8.32)" r="6.5"><circle class="node" r="6" node_type="nucleotide" style="fill: lightgreen;"></circle><text text-anchor="middle" font-size="8" font-weight="bold" y="2.5" class="node-label">U</text></g><g class="noselect gnode" struct_name="m" transform="translate(80.13,5.74)" r="6.5"><circle class="node" r="6" node_type="nucleotide" style="fill: lightgreen;"></circle><text text-anchor="middle" font-size="8" font-weight="bold" y="2.5" class="node-label">C</text></g><g class="noselect gnode" struct_name="m" transform="translate(72.44,19.85)" r="6.5"><circle class="node" r="6" node_type="nucleotide" style="fill: lightgreen;"></circle><text text-anchor="middle" font-size="8" font-weight="bold" y="2.5" class="node-label">U</text></g><g class="noselect gnode" struct_name="m" transform="translate(64.65,34.09)" r="6.5"><circle class="node" r="6" node_type="nucleotide" style="fill: lightgreen;"></circle><text text-anchor="middle" font-size="8" font-weight="bold" y="2.5" class="node-label">A</text></g><g class="noselect gnode" struct_name="m" transform="translate(56.67,48.32)" r="6.5"><circle class="node" r="6" node_type="nucleotide" style="fill: lightgreen;"></circle><text text-anchor="middle" font-size="8" font-weight="bold" y="2.5" class="node-label">U</text></g><g class="noselect gnode" struct_name="m" transform="translate(48.44,62.33)" r="6.5"><circle class="node" r="6" node_type="nucleotide" style="fill: lightgreen;"></circle><text text-anchor="middle" font-size="8" font-weight="bold" y="2.5" class="node-label">C</text></g><g class="noselect gnode" struct_name="m" transform="translate(40.22,76.07)" r="6.5"><circle class="node" r="6" node_type="nucleotide" style="fill: lightgreen;"></circle><text text-anchor="middle" font-size="8" font-weight="bold" y="2.5" class="node-label">U</text></g><g class="noselect gnode" struct_name="m" transform="translate(32.53,89.61)" r="6.5"><circle class="node" r="6" node_type="nucleotide" style="fill: lightgreen;"></circle><text text-anchor="middle" font-size="8" font-weight="bold" y="2.5" class="node-label">A</text></g><g class="noselect gnode" struct_name="m" transform="translate(30.31,33.77)" r="6.5"><circle class="node label" r="6" node_type="label"></circle><text text-anchor="middle" font-size="8" font-weight="bold" y="2.5" class="node-label">10</text></g><g class="noselect gnode" struct_name="m" transform="translate(111.99,-114.04)" r="6.5"><circle class="node label" r="6" node_type="label"></circle><text text-anchor="middle" font-size="8" font-weight="bold" y="2.5" class="node-label">20</text></g><g class="noselect gnode" struct_name="m" transform="translate(92.18,15.68)" r="6.5"><circle class="node label" r="6" node_type="label"></circle><text text-anchor="middle" font-size="8" font-weight="bold" y="2.5" class="node-label">30</text></g><g class="noselect gnode" transform="translate(29.81,79.21)" r="6.5"><circle class="node" r="0" node_type="middle"></circle><text text-anchor="middle" font-size="8" font-weight="bold" y="2.5" class="node-label"></text></g><g class="noselect gnode" transform="translate(38.05,65.54)" r="6.5"><circle class="node" r="0" node_type="middle"></circle><text text-anchor="middle" font-size="8" font-weight="bold" y="2.5" class="node-label"></text></g><g class="noselect gnode" transform="translate(46.34,51.72)" r="6.5"><circle class="node" r="0" node_type="middle"></circle><text text-anchor="middle" font-size="8" font-weight="bold" y="2.5" class="node-label"></text></g><g class="noselect gnode" transform="translate(54.42,37.69)" r="6.5"><circle class="node" r="0" node_type="middle"></circle><text text-anchor="middle" font-size="8" font-weight="bold" y="2.5" class="node-label"></text></g><g class="noselect gnode" transform="translate(62.21,23.49)" r="6.5"><circle class="node" r="0" node_type="middle"></circle><text text-anchor="middle" font-size="8" font-weight="bold" y="2.5" class="node-label"></text></g><g class="noselect gnode" transform="translate(69.89,9.25)" r="6.5"><circle class="node" r="0" node_type="middle"></circle><text text-anchor="middle" font-size="8" font-weight="bold" y="2.5" class="node-label"></text></g><g class="noselect gnode" transform="translate(77.60,-4.86)" r="6.5"><circle class="node" r="0" node_type="middle"></circle><text text-anchor="middle" font-size="8" font-weight="bold" y="2.5" class="node-label"></text></g><g class="noselect gnode" transform="translate(85.59,-18.95)" r="6.5"><circle class="node" r="0" node_type="middle"></circle><text text-anchor="middle" font-size="8" font-weight="bold" y="2.5" class="node-label"></text></g><g class="noselect gnode" transform="translate(93.77,-32.93)" r="6.5"><circle class="node" r="0" node_type="middle"></circle><text text-anchor="middle" font-size="8" font-weight="bold" y="2.5" class="node-label"></text></g><g class="noselect gnode" transform="translate(102.15,-46.69)" r="6.5"><circle class="node" r="0" node_type="middle"></circle><text text-anchor="middle" font-size="8" font-weight="bold" y="2.5" class="node-label"></text></g><g class="noselect gnode" transform="translate(110.67,-60.31)" r="6.5"><circle class="node" r="0" node_type="middle"></circle><text text-anchor="middle" font-size="8" font-weight="bold" y="2.5" class="node-label"></text></g><g class="noselect gnode" transform="translate(119.21,-73.71)" r="6.5"><circle class="node" r="0" node_type="middle"></circle><text text-anchor="middle" font-size="8" font-weight="bold" y="2.5" class="node-label"></text></g><g class="noselect gnode" transform="translate(38.80,104.04)" r="6.5"><circle class="node" r="0" node_type="middle"></circle><text text-anchor="middle" font-size="8" font-weight="bold" y="2.5" class="node-label"></text></g><g class="noselect gnode" transform="translate(36.77,118.15)" r="6.5"><circle class="node" r="0" node_type="middle"></circle><text text-anchor="middle" font-size="8" font-weight="bold" y="2.5" class="node-label"></text></g><g class="noselect gnode" transform="translate(15.10,106.68)" r="6.5"><circle class="node" r="0" node_type="middle"></circle><text text-anchor="middle" font-size="8" font-weight="bold" y="2.5" class="node-label"></text></g><g class="noselect gnode" transform="translate(130.49,-91.44)" r="6.5"><circle class="node" r="0" node_type="middle"></circle><text text-anchor="middle" font-size="8" font-weight="bold" y="2.5" class="node-label"></text></g></g><line class="drag_line" x1="0" y1="0" x2="0" y2="0"></line></g></g></svg>