<svg xmlns="http://www.w3.org/2000/svg" viewBox="0 0 760 640" width="760" height="640"><style>svg {
  display: block;
  min-width: 100%;
  width: 100%;
  min-height: 100%;
}

circle.node {
  stroke: #ccc;
  stroke-width: 1px;
  opacity: 1;
  fill: white;
}

circle.node.label {
    stroke: transparent;
    stroke-width: 0;
    fill: white;
}

circle.outline_node {
    stroke-width: 1px;
    fill: red;
}

circle.protein {
    fill: gray;
    fill-opacity: 0.5;
    stroke-width: 4;
}

circle.hidden_outline {
    stroke-width: 0px;
}


line.link {
  stroke: #999;
  stroke-opacity: 0.8;
  stroke-width: 2;
}

line.basepair {
  stroke: red;
}

line.intermolecule {
  stroke: blue;
}

line.chain_chain {
  stroke-dasharray: 3,3;
}

line.fake {
  stroke: green;
}

.transparent {
    fill: transparent;
    stroke-width: 0;
    stroke-opacity: 0;
    opacity: 0;
    visibility: hidden;
}

.drag_line {
  stroke: #999;
  stroke-width: 2;
  pointer-events: none;
}

.drag_line_hidden {
  stroke: #999;
  stroke-width: 0;
  pointer-events: none;
}

.d3-tip {
    line-height: 1;
    font-weight: bold;
    padding: 6px;
    background: rgba(0, 0, 0, 0.6);
    color: #fff;
    border-radius: 4px;
    pointer-events: none;
          }

text.node-label {
    font-weight: bold;
    font-family: Tahoma, Geneva, sans-serif;
    color: rgb(100,100,100);
    pointer-events: none;
}

text {
    pointer-events: none;
}

g.gnode {

}

circle.outline_node.selected {
    visibility: visible;
}

circle.outline_node {
    visibility: hidden;
}

.brush .extent {
  fill-opacity: .1;
  stroke: #fff;
  shape-rendering: crispEdges;
}

.noselect {
    -webkit-touch-callout: none;
    -webkit-user-select: none;
    -khtml-user-select: none;
    -moz-user-select: none;
    -ms-user-select: none;
    user-select: none;
}

svg {
  display: block;
  min-width: 100%;
  width: 100%;
  min-height: 100%;
}

circle.node {
  stroke: #ccc;
  stroke-width: 1px;
  opacity: 1;
  fill: white;
}

circle.node.label {
    stroke: transparent;
    stroke-width: 0;
    fill: white;
}

circle.outline_node {
    stroke-width: 1px;
    fill: red;
}

circle.protein {
    fill: gray;
    fill-opacity: 0.5;
    stroke-width: 4;
}

circle.hidden_outline {
    stroke-width: 0px;
}


line.link {
  stroke: #999;
  stroke-opacity: 0.8;
  stroke-width: 2;
}

line.basepair {
  stroke: red;
}

line.intermolecule {
  stroke: blue;
}

line.chain_chain {
  stroke-dasharray: 3,3;
}

line.fake {
  stroke: green;
}

.transparent {
    fill: transparent;
    stroke-width: 0;
    stroke-opacity: 0;
    opacity: 0;
    visibility: hidden;
}

.drag_line {
  stroke: #999;
  stroke-width: 2;
  pointer-events: none;
}

.drag_line_hidden {
  stroke: #999;
  stroke-width: 0;
  pointer-events: none;
}

.d3-tip {
    line-height: 1;
    font-weight: bold;
    padding: 6px;
    background: rgba(0, 0, 0, 0.6);
    color: #fff;
    border-radius: 4px;
    pointer-events: none;
          }

text.node-label {
    font-weight: bold;
    font-family: Tahoma, Geneva, sans-serif;
    color: rgb(100,100,100);
    pointer-events: none;
}

text {
    pointer-events: none;
}

g.gnode {

}

circle.outline_node.selected {
    visibility: visible;
}

circle.outline_node {
    visibility: hidden;
}

.brush .extent {
  fill-opacity: .1;
  stroke: #fff;
  shape-rendering: crispEdges;
}

.noselect {
    -webkit-touch-callout: none;
    -webkit-user-select: none;
    -khtml-user-select: none;
    -moz-user-select: none;
    -ms-user-select: none;
    user-select: none;
}
/*# sourceURL=/Users/yumanakamura/ipy_sandbox/sandbox/claude_sandbox/mrna-transformer-worktrees/feat-issue57-switch-derna-knotty/scripts/eval/prerender/forna_vendor/fornac.css*/</style><style></style><g><g class="brush" style="pointer-events: all; -webkit-tap-highlight-color: rgba(0, 0, 0, 0);"><rect class="background" x="0" width="760" y="0" height="640" style="visibility: hidden; cursor: auto;"></rect><rect class="extent" x="0" width="0" y="0" height="0" style="cursor: move;"></rect><g class="resize n" transform="translate(0,0)" style="cursor: ns-resize; display: none;"><rect y="-3" width="0" height="6" style="visibility: hidden;"></rect></g><g class="resize e" transform="translate(0,0)" style="cursor: ew-resize; display: none;"><rect x="-3" width="6" height="0" style="visibility: hidden;"></rect></g><g class="resize s" transform="translate(0,0)" style="cursor: ns-resize; display: none;"><rect y="-3" width="0" height="6" style="visibility: hidden;"></rect></g><g class="resize w" transform="translate(0,0)" style="cursor: ew-resize; display: none;"><rect x="-3" width="6" height="0" style="visibility: hidden;"></rect></g><g class="resize nw" transform="translate(0,0)" style="cursor: nwse-resize; display: none;"><rect x="-3" y="-3" width="6" height="6" style="visibility: hidden;"></rect></g><g class="resize ne" transform="translate(0,0)" style="cursor: nesw-resize; display: none;"><rect x="-3" y="-3" width="6" height="6" style="visibility: hidden;"></rect></g><g class="resize se" transform="translate(0,0)" style="cursor: nwse-resize; display: none;"><rect x="-3" y="-3" width="6" height="6" style="visibility: hidden;"></rect></g><g class="resize sw" transform="translate(0,0)" style="cursor: nesw-resize; display: none;"><rect x="-3" y="-3" width="6" height="6" style="visibility: hidden;"></rect></g></g><g transform="translate(321.38,137.16) scale(2.03)"><g><line class="link basepair" x1="34.72" y1="187.31" x2="49.30" y2="184.08"></line><line class="link backbone" x1="26.58" y1="200.33" x2="34.72" y2="187.31"></line><line class="link basepair" x1="31.31" y1="172.02" x2="45.57" y2="168.66"></line><line class="link backbone" x1="34.72" y1="187.31" x2="31.31" y2="172.02"></line><line class="link basepair" x1="27.64" y1="156.52" x2="41.80" y2="153.10"></line><line class="link backbone" x1="31.31" y1="172.02" x2="27.64" y2="156.52"></line><line class="link basepair" x1="23.85" y1="140.92" x2="37.94" y2="137.37"></line><line class="link backbone" x1="27.64" y1="156.52" x2="23.85" y2="140.92"></line><line class="link basepair" x1="19.82" y1="125.50" x2="33.68" y2="121.45"></line><line class="link backbone" x1="23.85" y1="140.92" x2="19.82" y2="125.50"></line><line class="link basepair" x1="14.87" y1="110.93" x2="28.62" y2="105.45"></line><line class="link backbone" x1="19.82" y1="125.50" x2="14.87" y2="110.93"></line><line class="link backbone" x1="14.87" y1="110.93" x2="4.44" y2="99.59"></line><line class="link basepair" x1="12.18" y1="86.40" x2="26.76" y2="88.60"></line><line class="link backbone" x1="4.44" y1="99.59" x2="12.18" y2="86.40"></line><line class="link basepair" x1="13.40" y1="71.40" x2="28.07" y2="71.71"></line><line class="link backbone" x1="12.18" y1="86.40" x2="13.40" y2="71.40"></line><line class="link backbone" x1="13.40" y1="71.40" x2="5.59" y2="58.37"></line><line class="link basepair" x1="13.08" y1="45.19" x2="27.75" y2="44.68"></line><line class="link backbone" x1="5.59" y1="58.37" x2="13.08" y2="45.19"></line><line class="link basepair" x1="12.08" y1="29.53" x2="26.51" y2="28.18"></line><line class="link backbone" x1="13.08" y1="45.19" x2="12.08" y2="29.53"></line><line class="link basepair" x1="10.20" y1="13.84" x2="24.63" y2="11.89"></line><line class="link backbone" x1="12.08" y1="29.53" x2="10.20" y2="13.84"></line><line class="link basepair" x1="7.81" y1="-1.83" x2="22.21" y2="-4.17"></line><line class="link backbone" x1="10.20" y1="13.84" x2="7.81" y2="-1.83"></line><line class="link basepair" x1="4.94" y1="-17.21" x2="19.72" y2="-19.85"></line><line class="link backbone" x1="7.81" y1="-1.83" x2="4.94" y2="-17.21"></line><line class="link backbone" x1="4.94" y1="-17.21" x2="-2.57" y2="-30.98"></line><line class="link backbone" x1="-2.57" y1="-30.98" x2="8.04" y2="-41.96"></line><line class="link backbone" x1="8.04" y1="-41.96" x2="21.83" y2="-35.47"></line><line class="link basepair" x1="19.72" y1="-19.85" x2="4.94" y2="-17.21"></line><line class="link backbone" x1="21.83" y1="-35.47" x2="19.72" y2="-19.85"></line><line class="link basepair" x1="22.21" y1="-4.17" x2="7.81" y2="-1.83"></line><line class="link backbone" x1="19.72" y1="-19.85" x2="22.21" y2="-4.17"></line><line class="link basepair" x1="24.63" y1="11.89" x2="10.20" y2="13.84"></line><line class="link backbone" x1="22.21" y1="-4.17" x2="24.63" y2="11.89"></line><line class="link basepair" x1="26.51" y1="28.18" x2="12.08" y2="29.53"></line><line class="link backbone" x1="24.63" y1="11.89" x2="26.51" y2="28.18"></line><line class="link basepair" x1="27.75" y1="44.68" x2="13.08" y2="45.19"></line><line class="link backbone" x1="26.51" y1="28.18" x2="27.75" y2="44.68"></line><line class="link backbone" x1="27.75" y1="44.68" x2="35.73" y2="58.06"></line><line class="link basepair" x1="28.07" y1="71.71" x2="13.40" y2="71.40"></line><line class="link backbone" x1="35.73" y1="58.06" x2="28.07" y2="71.71"></line><line class="link basepair" x1="26.76" y1="88.60" x2="12.18" y2="86.40"></line><line class="link backbone" x1="28.07" y1="71.71" x2="26.76" y2="88.60"></line><line class="link basepair" x1="28.62" y1="105.45" x2="14.87" y2="110.93"></line><line class="link backbone" x1="26.76" y1="88.60" x2="28.62" y2="105.45"></line><line class="link basepair" x1="33.68" y1="121.45" x2="19.82" y2="125.50"></line><line class="link backbone" x1="28.62" y1="105.45" x2="33.68" y2="121.45"></line><line class="link basepair" x1="37.94" y1="137.37" x2="23.85" y2="140.92"></line><line class="link backbone" x1="33.68" y1="121.45" x2="37.94" y2="137.37"></line><line class="link basepair" x1="41.80" y1="153.10" x2="27.64" y2="156.52"></line><line class="link backbone" x1="37.94" y1="137.37" x2="41.80" y2="153.10"></line><line class="link basepair" x1="45.57" y1="168.66" x2="31.31" y2="172.02"></line><line class="link backbone" x1="41.80" y1="153.10" x2="45.57" y2="168.66"></line><line class="link basepair" x1="49.30" y1="184.08" x2="34.72" y2="187.31"></line><line class="link backbone" x1="45.57" y1="168.66" x2="49.30" y2="184.08"></line><line class="link backbone" x1="49.30" y1="184.08" x2="62.01" y2="192.82"></line><line class="link backbone" x1="62.01" y1="192.82" x2="65.22" y2="207.45"></line><line class="link backbone" x1="65.22" y1="207.45" x2="56.88" y2="220.02"></line><line class="link label_link" x1="13.40" y1="71.40" x2="-1.95" y2="74.08"></line><line class="link label_link" x1="19.72" y1="-19.85" x2="32.57" y2="-28.59"></line><line class="link label_link" x1="37.94" y1="137.37" x2="53.45" y2="135.74"></line><line class="link fake transparent" x1="13.08" y1="45.19" x2="20.07" y2="36.86"></line><line class="link fake transparent" x1="13.08" y1="45.19" x2="26.51" y2="28.18"></line><line class="link fake transparent" x1="12.08" y1="29.53" x2="20.07" y2="36.86"></line><line class="link fake transparent" x1="26.51" y1="28.18" x2="20.07" y2="36.86"></line><line class="link fake transparent" x1="27.75" y1="44.68" x2="20.07" y2="36.86"></line><line class="link fake transparent" x1="12.08" y1="29.53" x2="18.51" y2="20.77"></line><line class="link fake transparent" x1="10.20" y1="13.84" x2="18.51" y2="20.77"></line><line class="link fake transparent" x1="24.63" y1="11.89" x2="18.51" y2="20.77"></line><line class="link fake transparent" x1="26.51" y1="28.18" x2="18.51" y2="20.77"></line><line class="link fake transparent" x1="10.20" y1="13.84" x2="16.31" y2="4.89"></line><line class="link fake transparent" x1="7.81" y1="-1.83" x2="16.31" y2="4.89"></line><line class="link fake transparent" x1="22.21" y1="-4.17" x2="16.31" y2="4.89"></line><line class="link fake transparent" x1="24.63" y1="11.89" x2="16.31" y2="4.89"></line><line class="link fake transparent" x1="7.81" y1="-1.83" x2="13.71" y2="-10.88"></line><line class="link fake transparent" x1="4.94" y1="-17.21" x2="13.71" y2="-10.88"></line><line class="link fake transparent" x1="19.72" y1="-19.85" x2="13.71" y2="-10.88"></line><line class="link fake transparent" x1="22.21" y1="-4.17" x2="13.71" y2="-10.88"></line><line class="link fake transparent" x1="34.72" y1="187.31" x2="40.27" y2="178.09"></line><line class="link fake transparent" x1="31.31" y1="172.02" x2="40.27" y2="178.09"></line><line class="link fake transparent" x1="45.57" y1="168.66" x2="40.27" y2="178.09"></line><line class="link fake transparent" x1="49.30" y1="184.08" x2="40.27" y2="178.09"></line><line class="link fake transparent" x1="31.31" y1="172.02" x2="36.60" y2="162.65"></line><line class="link fake transparent" x1="27.64" y1="156.52" x2="36.60" y2="162.65"></line><line class="link fake transparent" x1="41.80" y1="153.10" x2="36.60" y2="162.65"></line><line class="link fake transparent" x1="45.57" y1="168.66" x2="36.60" y2="162.65"></line><line class="link fake transparent" x1="27.64" y1="156.52" x2="32.82" y2="147.01"></line><line class="link fake transparent" x1="23.85" y1="140.92" x2="32.82" y2="147.01"></line><line class="link fake transparent" x1="37.94" y1="137.37" x2="32.82" y2="147.01"></line><line class="link fake transparent" x1="41.80" y1="153.10" x2="32.82" y2="147.01"></line><line class="link fake transparent" x1="23.85" y1="140.92" x2="28.94" y2="131.30"></line><line class="link fake transparent" x1="19.82" y1="125.50" x2="28.94" y2="131.30"></line><line class="link fake transparent" x1="33.68" y1="121.45" x2="28.94" y2="131.30"></line><line class="link fake transparent" x1="37.94" y1="137.37" x2="28.94" y2="131.30"></line><line class="link fake transparent" x1="19.82" y1="125.50" x2="24.53" y2="115.68"></line><line class="link fake transparent" x1="14.87" y1="110.93" x2="24.53" y2="115.68"></line><line class="link fake transparent" x1="28.62" y1="105.45" x2="24.53" y2="115.68"></line><line class="link fake transparent" x1="33.68" y1="121.45" x2="24.53" y2="115.68"></line><line class="link fake transparent" x1="12.18" y1="86.40" x2="20.57" y2="79.62"></line><line class="link fake transparent" x1="13.40" y1="71.40" x2="20.57" y2="79.62"></line><line class="link fake transparent" x1="28.07" y1="71.71" x2="20.57" y2="79.62"></line><line class="link fake transparent" x1="26.76" y1="88.60" x2="20.57" y2="79.62"></line><line class="link fake transparent" x1="26.58" y1="200.33" x2="45.87" y2="203.59"></line><line class="link fake transparent" x1="26.58" y1="200.33" x2="65.22" y2="207.45"></line><line class="link fake transparent" x1="34.72" y1="187.31" x2="45.87" y2="203.59"></line><line class="link fake transparent" x1="34.72" y1="187.31" x2="56.88" y2="220.02"></line><line class="link fake transparent" x1="49.30" y1="184.08" x2="45.87" y2="203.59"></line><line class="link fake transparent" x1="49.30" y1="184.08" x2="42.51" y2="223.26"></line><line class="link fake transparent" x1="62.01" y1="192.82" x2="45.87" y2="203.59"></line><line class="link fake transparent" x1="62.01" y1="192.82" x2="29.69" y2="216.37"></line><line class="link fake transparent" x1="65.22" y1="207.45" x2="45.87" y2="203.59"></line><line class="link fake transparent" x1="65.22" y1="207.45" x2="26.58" y2="200.33"></line><line class="link fake transparent" x1="56.88" y1="220.02" x2="45.87" y2="203.59"></line><line class="link fake transparent" x1="56.88" y1="220.02" x2="34.72" y2="187.31"></line><line class="link fake transparent" x1="4.94" y1="-17.21" x2="10.41" y2="-29.05"></line><line class="link fake transparent" x1="4.94" y1="-17.21" x2="8.04" y2="-41.96"></line><line class="link fake transparent" x1="-2.57" y1="-30.98" x2="10.41" y2="-29.05"></line><line class="link fake transparent" x1="-2.57" y1="-30.98" x2="21.83" y2="-35.47"></line><line class="link fake transparent" x1="8.04" y1="-41.96" x2="10.41" y2="-29.05"></line><line class="link fake transparent" x1="8.04" y1="-41.96" x2="19.72" y2="-19.85"></line><line class="link fake transparent" x1="21.83" y1="-35.47" x2="10.41" y2="-29.05"></line><line class="link fake transparent" x1="21.83" y1="-35.47" x2="4.94" y2="-17.21"></line><line class="link fake transparent" x1="19.72" y1="-19.85" x2="10.41" y2="-29.05"></line><line class="link fake transparent" x1="19.72" y1="-19.85" x2="-2.57" y2="-30.98"></line><line class="link fake transparent" x1="14.87" y1="110.93" x2="17.79" y2="98.12"></line><line class="link fake transparent" x1="14.87" y1="110.93" x2="12.18" y2="86.40"></line><line class="link fake transparent" x1="4.44" y1="99.59" x2="17.79" y2="98.12"></line><line class="link fake transparent" x1="4.44" y1="99.59" x2="26.76" y2="88.60"></line><line class="link fake transparent" x1="12.18" y1="86.40" x2="17.79" y2="98.12"></line><line class="link fake transparent" x1="12.18" y1="86.40" x2="28.62" y2="105.45"></line><line class="link fake transparent" x1="26.76" y1="88.60" x2="17.79" y2="98.12"></line><line class="link fake transparent" x1="26.76" y1="88.60" x2="14.87" y2="110.93"></line><line class="link fake transparent" x1="28.62" y1="105.45" x2="17.79" y2="98.12"></line><line class="link fake transparent" x1="28.62" y1="105.45" x2="4.44" y2="99.59"></line><line class="link fake transparent" x1="13.40" y1="71.40" x2="20.78" y2="58.23"></line><line class="link fake transparent" x1="13.40" y1="71.40" x2="27.75" y2="44.68"></line><line class="link fake transparent" x1="5.59" y1="58.37" x2="20.78" y2="58.23"></line><line class="link fake transparent" x1="5.59" y1="58.37" x2="35.73" y2="58.06"></line><line class="link fake transparent" x1="13.08" y1="45.19" x2="20.78" y2="58.23"></line><line class="link fake transparent" x1="13.08" y1="45.19" x2="28.07" y2="71.71"></line><line class="link fake transparent" x1="27.75" y1="44.68" x2="20.78" y2="58.23"></line><line class="link fake transparent" x1="27.75" y1="44.68" x2="13.40" y2="71.40"></line><line class="link fake transparent" x1="35.73" y1="58.06" x2="20.78" y2="58.23"></line><line class="link fake transparent" x1="35.73" y1="58.06" x2="5.59" y2="58.37"></line><line class="link fake transparent" x1="28.07" y1="71.71" x2="20.78" y2="58.23"></line><line class="link fake transparent" x1="28.07" y1="71.71" x2="13.08" y2="45.19"></line></g><g><g class="noselect gnode" struct_name="m" transform="translate(26.58,200.33)" r="6.5"><circle class="node" r="6" node_type="nucleotide" style="fill: lightsalmon;"></circle><text text-anchor="middle" font-size="8" font-weight="bold" y="2.5" class="node-label">C</text></g><g class="noselect gnode" struct_name="m" transform="translate(34.72,187.31)" r="6.5"><circle class="node" r="6" node_type="nucleotide" style="fill: lightgreen;"></circle><text text-anchor="middle" font-size="8" font-weight="bold" y="2.5" class="node-label">A</text></g><g class="noselect gnode" struct_name="m" transform="translate(31.31,172.02)" r="6.5"><circle class="node" r="6" node_type="nucleotide" style="fill: lightgreen;"></circle><text text-anchor="middle" font-size="8" font-weight="bold" y="2.5" class="node-label">C</text></g><g class="noselect gnode" struct_name="m" transform="translate(27.64,156.52)" r="6.5"><circle class="node" r="6" node_type="nucleotide" style="fill: lightgreen;"></circle><text text-anchor="middle" font-size="8" font-weight="bold" y="2.5" class="node-label">A</text></g><g class="noselect gnode" struct_name="m" transform="translate(23.85,140.92)" r="6.5"><circle class="node" r="6" node_type="nucleotide" style="fill: lightgreen;"></circle><text text-anchor="middle" font-size="8" font-weight="bold" y="2.5" class="node-label">U</text></g><g class="noselect gnode" struct_name="m" transform="translate(19.82,125.50)" r="6.5"><circle class="node" r="6" node_type="nucleotide" style="fill: lightgreen;"></circle><text text-anchor="middle" font-size="8" font-weight="bold" y="2.5" class="node-label">G</text></g><g class="noselect gnode" struct_name="m" transform="translate(14.87,110.93)" r="6.5"><circle class="node" r="6" node_type="nucleotide" style="fill: lightgreen;"></circle><text text-anchor="middle" font-size="8" font-weight="bold" y="2.5" class="node-label">G</text></g><g class="noselect gnode" struct_name="m" transform="translate(4.44,99.59)" r="6.5"><circle class="node" r="6" node_type="nucleotide" style="fill: rgb(219, 219, 141);"></circle><text text-anchor="middle" font-size="8" font-weight="bold" y="2.5" class="node-label">A</text></g><g class="noselect gnode" struct_name="m" transform="translate(12.18,86.40)" r="6.5"><circle class="node" r="6" node_type="nucleotide" style="fill: lightgreen;"></circle><text text-anchor="middle" font-size="8" font-weight="bold" y="2.5" class="node-label">G</text></g><g class="noselect gnode" struct_name="m" transform="translate(13.40,71.40)" r="6.5"><circle class="node" r="6" node_type="nucleotide" style="fill: lightgreen;"></circle><text text-anchor="middle" font-size="8" font-weight="bold" y="2.5" class="node-label">A</text></g><g class="noselect gnode" struct_name="m" transform="translate(5.59,58.37)" r="6.5"><circle class="node" r="6" node_type="nucleotide" style="fill: rgb(219, 219, 141);"></circle><text text-anchor="middle" font-size="8" font-weight="bold" y="2.5" class="node-label">U</text></g><g class="noselect gnode" struct_name="m" transform="translate(13.08,45.19)" r="6.5"><circle class="node" r="6" node_type="nucleotide" style="fill: lightgreen;"></circle><text text-anchor="middle" font-size="8" font-weight="bold" y="2.5" class="node-label">G</text></g><g class="noselect gnode" struct_name="m" transform="translate(12.08,29.53)" r="6.5"><circle class="node" r="6" node_type="nucleotide" style="fill: lightgreen;"></circle><text text-anchor="middle" font-size="8" font-weight="bold" y="2.5" class="node-label">U</text></g><g class="noselect gnode" struct_name="m" transform="translate(10.20,13.84)" r="6.5"><circle class="node" r="6" node_type="nucleotide" style="fill: lightgreen;"></circle><text text-anchor="middle" font-size="8" font-weight="bold" y="2.5" class="node-label">G</text></g><g class="noselect gnode" struct_name="m" transform="translate(7.81,-1.83)" r="6.5"><circle class="node" r="6" node_type="nucleotide" style="fill: lightgreen;"></circle><text text-anchor="middle" font-size="8" font-weight="bold" y="2.5" class="node-label">C</text></g><g class="noselect gnode" struct_name="m" transform="translate(4.94,-17.21)" r="6.5"><circle class="node" r="6" node_type="nucleotide" style="fill: lightgreen;"></circle><text text-anchor="middle" font-size="8" font-weight="bold" y="2.5" class="node-label">U</text></g><g class="noselect gnode" struct_name="m" transform="translate(-2.57,-30.98)" r="6.5"><circle class="node" r="6" node_type="nucleotide" style="fill: lightblue;"></circle><text text-anchor="middle" font-size="8" font-weight="bold" y="2.5" class="node-label">G</text></g><g class="noselect gnode" struct_name="m" transform="translate(8.04,-41.96)" r="6.5"><circle class="node" r="6" node_type="nucleotide" style="fill: lightblue;"></circle><text text-anchor="middle" font-size="8" font-weight="bold" y="2.5" class="node-label">U</text></g><g class="noselect gnode" struct_name="m" transform="translate(21.83,-35.47)" r="6.5"><circle class="node" r="6" node_type="nucleotide" style="fill: lightblue;"></circle><text text-anchor="middle" font-size="8" font-weight="bold" y="2.5" class="node-label">A</text></g><g class="noselect gnode" struct_name="m" transform="translate(19.72,-19.85)" r="6.5"><circle class="node" r="6" node_type="nucleotide" style="fill: lightgreen;"></circle><text text-anchor="middle" font-size="8" font-weight="bold" y="2.5" class="node-label">A</text></g><g class="noselect gnode" struct_name="m" transform="translate(22.21,-4.17)" r="6.5"><circle class="node" r="6" node_type="nucleotide" style="fill: lightgreen;"></circle><text text-anchor="middle" font-size="8" font-weight="bold" y="2.5" class="node-label">G</text></g><g class="noselect gnode" struct_name="m" transform="translate(24.63,11.89)" r="6.5"><circle class="node" r="6" node_type="nucleotide" style="fill: lightgreen;"></circle><text text-anchor="middle" font-size="8" font-weight="bold" y="2.5" class="node-label">C</text></g><g class="noselect gnode" struct_name="m" transform="translate(26.51,28.18)" r="6.5"><circle class="node" r="6" node_type="nucleotide" style="fill: lightgreen;"></circle><text text-anchor="middle" font-size="8" font-weight="bold" y="2.5" class="node-label">A</text></g><g class="noselect gnode" struct_name="m" transform="translate(27.75,44.68)" r="6.5"><circle class="node" r="6" node_type="nucleotide" style="fill: lightgreen;"></circle><text text-anchor="middle" font-size="8" font-weight="bold" y="2.5" class="node-label">C</text></g><g class="noselect gnode" struct_name="m" transform="translate(35.73,58.06)" r="6.5"><circle class="node" r="6" node_type="nucleotide" style="fill: rgb(219, 219, 141);"></circle><text text-anchor="middle" font-size="8" font-weight="bold" y="2.5" class="node-label">C</text></g><g class="noselect gnode" struct_name="m" transform="translate(28.07,71.71)" r="6.5"><circle class="node" r="6" node_type="nucleotide" style="fill: lightgreen;"></circle><text text-anchor="middle" font-size="8" font-weight="bold" y="2.5" class="node-label">U</text></g><g class="noselect gnode" struct_name="m" transform="translate(26.76,88.60)" r="6.5"><circle class="node" r="6" node_type="nucleotide" style="fill: lightgreen;"></circle><text text-anchor="middle" font-size="8" font-weight="bold" y="2.5" class="node-label">C</text></g><g class="noselect gnode" struct_name="m" transform="translate(28.62,105.45)" r="6.5"><circle class="node" r="6" node_type="nucleotide" style="fill: lightgreen;"></circle><text text-anchor="middle" font-size="8" font-weight="bold" y="2.5" class="node-label">C</text></g><g class="noselect gnode" struct_name="m" transform="translate(33.68,121.45)" r="6.5"><circle class="node" r="6" node_type="nucleotide" style="fill: lightgreen;"></circle><text text-anchor="middle" font-size="8" font-weight="bold" y="2.5" class="node-label">C</text></g><g class="noselect gnode" struct_name="m" transform="translate(37.94,137.37)" r="6.5"><circle class="node" r="6" node_type="nucleotide" style="fill: lightgreen;"></circle><text text-anchor="middle" font-size="8" font-weight="bold" y="2.5" class="node-label">A</text></g><g class="noselect gnode" struct_name="m" transform="translate(41.80,153.10)" r="6.5"><circle class="node" r="6" node_type="nucleotide" style="fill: lightgreen;"></circle><text text-anchor="middle" font-size="8" font-weight="bold" y="2.5" class="node-label">U</text></g><g class="noselect gnode" struct_name="m" transform="translate(45.57,168.66)" r="6.5"><circle class="node" r="6" node_type="nucleotide" style="fill: lightgreen;"></circle><text text-anchor="middle" font-size="8" font-weight="bold" y="2.5" class="node-label">G</text></g><g class="noselect gnode" struct_name="m" transform="translate(49.30,184.08)" r="6.5"><circle class="node" r="6" node_type="nucleotide" style="fill: lightgreen;"></circle><text text-anchor="middle" font-size="8" font-weight="bold" y="2.5" class="node-label">U</text></g><g class="noselect gnode" struct_name="m" transform="translate(62.01,192.82)" r="6.5"><circle class="node" r="6" node_type="nucleotide" style="fill: lightsalmon;"></circle><text text-anchor="middle" font-size="8" font-weight="bold" y="2.5" class="node-label">U</text></g><g class="noselect gnode" struct_name="m" transform="translate(65.22,207.45)" r="6.5"><circle class="node" r="6" node_type="nucleotide" style="fill: lightsalmon;"></circle><text text-anchor="middle" font-size="8" font-weight="bold" y="2.5" class="node-label">A</text></g><g class="noselect gnode" struct_name="m" transform="translate(56.88,220.02)" r="6.5"><circle class="node" r="6" node_type="nucleotide" style="fill: lightsalmon;"></circle><text text-anchor="middle" font-size="8" font-weight="bold" y="2.5" class="node-label">U</text></g><g class="noselect gnode" struct_name="m" transform="translate(-1.95,74.08)" r="6.5"><circle class="node label" r="6" node_type="label"></circle><text text-anchor="middle" font-size="8" font-weight="bold" y="2.5" class="node-label">10</text></g><g class="noselect gnode" struct_name="m" transform="translate(32.57,-28.59)" r="6.5"><circle class="node label" r="6" node_type="label"></circle><text text-anchor="middle" font-size="8" font-weight="bold" y="2.5" class="node-label">20</text></g><g class="noselect gnode" struct_name="m" transform="translate(53.45,135.74)" r="6.5"><circle class="node label" r="6" node_type="label"></circle><text text-anchor="middle" font-size="8" font-weight="bold" y="2.5" class="node-label">30</text></g><g class="noselect gnode" transform="translate(20.07,36.86)" r="6.5"><circle class="node" r="0" node_type="middle"></circle><text text-anchor="middle" font-size="8" font-weight="bold" y="2.5" class="node-label"></text></g><g class="noselect gnode" transform="translate(18.51,20.77)" r="6.5"><circle class="node" r="0" node_type="middle"></circle><text text-anchor="middle" font-size="8" font-weight="bold" y="2.5" class="node-label"></text></g><g class="noselect gnode" transform="translate(16.31,4.89)" r="6.5"><circle class="node" r="0" node_type="middle"></circle><text text-anchor="middle" font-size="8" font-weight="bold" y="2.5" class="node-label"></text></g><g class="noselect gnode" transform="translate(13.71,-10.88)" r="6.5"><circle class="node" r="0" node_type="middle"></circle><text text-anchor="middle" font-size="8" font-weight="bold" y="2.5" class="node-label"></text></g><g class="noselect gnode" transform="translate(40.27,178.09)" r="6.5"><circle class="node" r="0" node_type="middle"></circle><text text-anchor="middle" font-size="8" font-weight="bold" y="2.5" class="node-label"></text></g><g class="noselect gnode" transform="translate(36.60,162.65)" r="6.5"><circle class="node" r="0" node_type="middle"></circle><text text-anchor="middle" font-size="8" font-weight="bold" y="2.5" class="node-label"></text></g><g class="noselect gnode" transform="translate(32.82,147.01)" r="6.5"><circle class="node" r="0" node_type="middle"></circle><text text-anchor="middle" font-size="8" font-weight="bold" y="2.5" class="node-label"></text></g><g class="noselect gnode" transform="translate(28.94,131.30)" r="6.5"><circle class="node" r="0" node_type="middle"></circle><text text-anchor="middle" font-size="8" font-weight="bold" y="2.5" class="node-label"></text></g><g class="noselect gnode" transform="translate(24.53,115.68)" r="6.5"><circle class="node" r="0" node_type="middle"></circle><text text-anchor="middle" font-size="8" font-weight="bold" y="2.5" class="node-label"></text></g><g class="noselect gnode" transform="translate(20.57,79.62)" r="6.5"><circle class="node" r="0" node_type="middle"></circle><text text-anchor="middle" font-size="8" font-weight="bold" y="2.5" class="node-label"></text></g><g class="noselect gnode" transform="translate(42.51,223.26)" r="6.5"><circle class="node" r="0" node_type="middle"></circle><text text-anchor="middle" font-size="8" font-weight="bold" y="2.5" class="node-label"></text></g><g class="noselect gnode" transform="translate(29.69,216.37)" r="6.5"><circle class="node" r="0" node_type="middle"></circle><text text-anchor="middle" font-size="8" font-weight="bold" y="2.5" class="node-label"></text></g><g class="noselect gnode" transform="translate(45.87,203.59)" r="6.5"><circle class="node" r="0" node_type="middle"></circle><text text-anchor="middle" font-size="8" font-weight="bold" y="2.5" class="node-label"></text></g><g class="noselect gnode" transform="translate(10.41,-29.05)" r="6.5"><circle class="node" r="0" node_type="middle"></circle><text text-anchor="middle" font-size="8" font-weight="bold" y="2.5" class="node-label"></text></g><g class="noselect gnode" transform="translate(17.79,98.12)" r="6.5"><circle class="node" r="0" node_type="middle"></circle><text text-anchor="middle" font-size="8" font-weight="bold" y="2.5" class="node-label"></text></g><g class="noselect gnode" transform="translate(20.78,58.23)" r="6.5"><circle class="node" r="0" node_type="middle"></circle><text text-anchor="middle" font-size="8" font-weight="bold" y="2.5" class="node-label"></text></g></g><line class="drag_line" x1="0" y1="0" x2="0" y2="0"></line></g></g></svg>