<svg xmlns="http://www.w3.org/2000/svg" viewBox="-71.8 -156.3 287.0 154.3" width="287" height="154"><style></style><line x1="-12.5" y1="-116.4" x2="-13.7" y2="-101.4" stroke="#999" stroke-width="1.60" stroke-opacity="0.8"/><line x1="2.5" y1="-115.2" x2="1.3" y2="-100.2" stroke="#999" stroke-width="1.60" stroke-opacity="0.8"/><line x1="17.4" y1="-114.0" x2="16.2" y2="-99.1" stroke="#999" stroke-width="1.60" stroke-opacity="0.8"/><line x1="32.4" y1="-112.8" x2="31.2" y2="-97.9" stroke="#999" stroke-width="1.60" stroke-opacity="0.8"/><line x1="47.3" y1="-111.7" x2="46.2" y2="-96.7" stroke="#999" stroke-width="1.60" stroke-opacity="0.8"/><line x1="62.3" y1="-110.5" x2="61.1" y2="-95.5" stroke="#999" stroke-width="1.60" stroke-opacity="0.8"/><line x1="77.2" y1="-109.3" x2="76.1" y2="-94.4" stroke="#999" stroke-width="1.60" stroke-opacity="0.8"/><line x1="138.8" y1="-62.5" x2="147.6" y2="-74.7" stroke="#999" stroke-width="1.60" stroke-opacity="0.8"/><line x1="126.7" y1="-71.3" x2="135.5" y2="-83.5" stroke="#999" stroke-width="1.60" stroke-opacity="0.8"/><line x1="114.5" y1="-80.2" x2="123.4" y2="-92.3" stroke="#999" stroke-width="1.60" stroke-opacity="0.8"/><line x1="162.8" y1="-78.6" x2="124.6" y2="-100.6" stroke="#d9534f" stroke-width="1.60" stroke-opacity="0.6"/><line x1="176.9" y1="-71.9" x2="123.0" y2="-108.8" stroke="#d9534f" stroke-width="1.60" stroke-opacity="0.6"/><line x1="183.3" y1="-57.6" x2="118.7" y2="-115.9" stroke="#d9534f" stroke-width="1.60" stroke-opacity="0.6"/><line x1="179.0" y1="-42.6" x2="112.3" y2="-121.3" stroke="#d9534f" stroke-width="1.60" stroke-opacity="0.6"/><line x1="166.0" y1="-33.9" x2="104.5" y2="-124.2" stroke="#d9534f" stroke-width="1.60" stroke-opacity="0.6"/><line x1="150.5" y1="-35.6" x2="96.1" y2="-124.3" stroke="#d9534f" stroke-width="1.60" stroke-opacity="0.6"/><line x1="139.7" y1="-46.9" x2="88.2" y2="-121.6" stroke="#d9534f" stroke-width="1.60" stroke-opacity="0.6"/><line x1="77.2" y1="-109.3" x2="62.3" y2="-110.5" stroke="#999" stroke-width="1.60" stroke-opacity="0.8"/><line x1="62.3" y1="-110.5" x2="47.3" y2="-111.7" stroke="#999" stroke-width="1.60" stroke-opacity="0.8"/><line x1="47.3" y1="-111.7" x2="32.4" y2="-112.8" stroke="#999" stroke-width="1.60" stroke-opacity="0.8"/><line x1="32.4" y1="-112.8" x2="17.4" y2="-114.0" stroke="#999" stroke-width="1.60" stroke-opacity="0.8"/><line x1="17.4" y1="-114.0" x2="2.5" y2="-115.2" stroke="#999" stroke-width="1.60" stroke-opacity="0.8"/><line x1="2.5" y1="-115.2" x2="-12.5" y2="-116.4" stroke="#999" stroke-width="1.60" stroke-opacity="0.8"/><line x1="-12.5" y1="-116.4" x2="-25.1" y2="-123.5" stroke="#999" stroke-width="1.60" stroke-opacity="0.8"/><line x1="-25.1" y1="-123.5" x2="-38.7" y2="-118.2" stroke="#999" stroke-width="1.60" stroke-opacity="0.8"/><line x1="-38.7" y1="-118.2" x2="-39.8" y2="-103.7" stroke="#999" stroke-width="1.60" stroke-opacity="0.8"/><line x1="-39.8" y1="-103.7" x2="-27.3" y2="-96.4" stroke="#999" stroke-width="1.60" stroke-opacity="0.8"/><line x1="-27.3" y1="-96.4" x2="-13.7" y2="-101.4" stroke="#999" stroke-width="1.60" stroke-opacity="0.8"/><line x1="-13.7" y1="-101.4" x2="1.3" y2="-100.2" stroke="#999" stroke-width="1.60" stroke-opacity="0.8"/><line x1="1.3" y1="-100.2" x2="16.2" y2="-99.1" stroke="#999" stroke-width="1.60" stroke-opacity="0.8"/><line x1="16.2" y1="-99.1" x2="31.2" y2="-97.9" stroke="#999" stroke-width="1.60" stroke-opacity="0.8"/><line x1="31.2" y1="-97.9" x2="46.2" y2="-96.7" stroke="#999" stroke-width="1.60" stroke-opacity="0.8"/><line x1="46.2" y1="-96.7" x2="61.1" y2="-95.5" stroke="#999" stroke-width="1.60" stroke-opacity="0.8"/><line x1="61.1" y1="-95.5" x2="76.1" y2="-94.4" stroke="#999" stroke-width="1.60" stroke-opacity="0.8"/><line x1="76.1" y1="-94.4" x2="95.3" y2="-87.3" stroke="#999" stroke-width="1.60" stroke-opacity="0.8"/><line x1="95.3" y1="-87.3" x2="114.5" y2="-80.2" stroke="#999" stroke-width="1.60" stroke-opacity="0.8"/><line x1="114.5" y1="-80.2" x2="126.7" y2="-71.3" stroke="#999" stroke-width="1.60" stroke-opacity="0.8"/><line x1="126.7" y1="-71.3" x2="138.8" y2="-62.5" stroke="#999" stroke-width="1.60" stroke-opacity="0.8"/><line x1="138.8" y1="-62.5" x2="139.7" y2="-46.9" stroke="#999" stroke-width="1.60" stroke-opacity="0.8"/><line x1="139.7" y1="-46.9" x2="150.5" y2="-35.6" stroke="#999" stroke-width="1.60" stroke-opacity="0.8"/><line x1="150.5" y1="-35.6" x2="166.0" y2="-33.9" stroke="#999" stroke-width="1.60" stroke-opacity="0.8"/><line x1="166.0" y1="-33.9" x2="179.0" y2="-42.6" stroke="#999" stroke-width="1.60" stroke-opacity="0.8"/><line x1="179.0" y1="-42.6" x2="183.3" y2="-57.6" stroke="#999" stroke-width="1.60" stroke-opacity="0.8"/><line x1="183.3" y1="-57.6" x2="176.9" y2="-71.9" stroke="#999" stroke-width="1.60" stroke-opacity="0.8"/><line x1="176.9" y1="-71.9" x2="162.8" y2="-78.6" stroke="#999" stroke-width="1.60" stroke-opacity="0.8"/><line x1="162.8" y1="-78.6" x2="147.6" y2="-74.7" stroke="#999" stroke-width="1.60" stroke-opacity="0.8"/><line x1="147.6" y1="-74.7" x2="135.5" y2="-83.5" stroke="#999" stroke-width="1.60" stroke-opacity="0.8"/><line x1="135.5" y1="-83.5" x2="123.4" y2="-92.3" stroke="#999" stroke-width="1.60" stroke-opacity="0.8"/><line x1="123.4" y1="-92.3" x2="124.6" y2="-100.6" stroke="#999" stroke-width="1.60" stroke-opacity="0.8"/><line x1="124.6" y1="-100.6" x2="123.0" y2="-108.8" stroke="#999" stroke-width="1.60" stroke-opacity="0.8"/><line x1="123.0" y1="-108.8" x2="118.7" y2="-115.9" stroke="#999" stroke-width="1.60" stroke-opacity="0.8"/><line x1="118.7" y1="-115.9" x2="112.3" y2="-121.3" stroke="#999" stroke-width="1.60" stroke-opacity="0.8"/><line x1="112.3" y1="-121.3" x2="104.5" y2="-124.2" stroke="#999" stroke-width="1.60" stroke-opacity="0.8"/><line x1="104.5" y1="-124.2" x2="96.1" y2="-124.3" stroke="#999" stroke-width="1.60" stroke-opacity="0.8"/><line x1="96.1" y1="-124.3" x2="88.2" y2="-121.6" stroke="#999" stroke-width="1.60" stroke-opacity="0.8"/><text x="78.6" y="-124.1" text-anchor="middle" font-size="7.6" font-family="Tahoma,Geneva,sans-serif" fill="#999">1</text><text x="-55.3" y="-93.0" text-anchor="middle" font-size="7.6" font-family="Tahoma,Geneva,sans-serif" fill="#999">10</text><text x="106.7" y="-62.0" text-anchor="middle" font-size="7.6" font-family="Tahoma,Geneva,sans-serif" fill="#999">20</text><text x="150.7" y="-89.2" text-anchor="middle" font-size="7.6" font-family="Tahoma,Geneva,sans-serif" fill="#999">30</text><circle cx="77.2" cy="-109.3" r="4.36" fill="lightgreen" stroke="#ccc" stroke-width="1.60"/><text x="77.2" y="-107.1" text-anchor="middle" font-size="5.4" font-family="Tahoma,Geneva,sans-serif" font-weight="bold" fill="rgb(100,100,100)">G</text><circle cx="62.3" cy="-110.5" r="4.36" fill="lightgreen" stroke="#ccc" stroke-width="1.60"/><text x="62.3" y="-108.3" text-anchor="middle" font-size="5.4" font-family="Tahoma,Geneva,sans-serif" font-weight="bold" fill="rgb(100,100,100)">A</text><circle cx="47.3" cy="-111.7" r="4.36" fill="lightgreen" stroke="#ccc" stroke-width="1.60"/><text x="47.3" y="-109.5" text-anchor="middle" font-size="5.4" font-family="Tahoma,Geneva,sans-serif" font-weight="bold" fill="rgb(100,100,100)">C</text><circle cx="32.4" cy="-112.8" r="4.36" fill="lightgreen" stroke="#ccc" stroke-width="1.60"/><text x="32.4" y="-110.7" text-anchor="middle" font-size="5.4" font-family="Tahoma,Geneva,sans-serif" font-weight="bold" fill="rgb(100,100,100)">A</text><circle cx="17.4" cy="-114.0" r="4.36" fill="lightgreen" stroke="#ccc" stroke-width="1.60"/><text x="17.4" y="-111.8" text-anchor="middle" font-size="5.4" font-family="Tahoma,Geneva,sans-serif" font-weight="bold" fill="rgb(100,100,100)">A</text><circle cx="2.5" cy="-115.2" r="4.36" fill="lightgreen" stroke="#ccc" stroke-width="1.60"/><text x="2.5" y="-113.0" text-anchor="middle" font-size="5.4" font-family="Tahoma,Geneva,sans-serif" font-weight="bold" fill="rgb(100,100,100)">G</text><circle cx="-12.5" cy="-116.4" r="4.36" fill="lightgreen" stroke="#ccc" stroke-width="1.60"/><text x="-12.5" y="-114.2" text-anchor="middle" font-size="5.4" font-family="Tahoma,Geneva,sans-serif" font-weight="bold" fill="rgb(100,100,100)">U</text><circle cx="-25.1" cy="-123.5" r="4.36" fill="lightblue" stroke="#ccc" stroke-width="1.60"/><text x="-25.1" y="-121.3" text-anchor="middle" font-size="5.4" font-family="Tahoma,Geneva,sans-serif" font-weight="bold" fill="rgb(100,100,100)">G</text><circle cx="-38.7" cy="-118.2" r="4.36" fill="lightblue" stroke="#ccc" stroke-width="1.60"/><text x="-38.7" y="-116.0" text-anchor="middle" font-size="5.4" font-family="Tahoma,Geneva,sans-serif" font-weight="bold" fill="rgb(100,100,100)">U</text><circle cx="-39.8" cy="-103.7" r="4.36" fill="lightblue" stroke="#ccc" stroke-width="1.60"/><text x="-39.8" y="-101.5" text-anchor="middle" font-size="5.4" font-family="Tahoma,Geneva,sans-serif" font-weight="bold" fill="rgb(100,100,100)">A</text><circle cx="-27.3" cy="-96.4" r="4.36" fill="lightblue" stroke="#ccc" stroke-width="1.60"/><text x="-27.3" y="-94.2" text-anchor="middle" font-size="5.4" font-family="Tahoma,Geneva,sans-serif" font-weight="bold" fill="rgb(100,100,100)">U</text><circle cx="-13.7" cy="-101.4" r="4.36" fill="lightgreen" stroke="#ccc" stroke-width="1.60"/><text x="-13.7" y="-99.2" text-anchor="middle" font-size="5.4" font-family="Tahoma,Geneva,sans-serif" font-weight="bold" fill="rgb(100,100,100)">A</text><circle cx="1.3" cy="-100.2" r="4.36" fill="lightgreen" stroke="#ccc" stroke-width="1.60"/><text x="1.3" y="-98.1" text-anchor="middle" font-size="5.4" font-family="Tahoma,Geneva,sans-serif" font-weight="bold" fill="rgb(100,100,100)">C</text><circle cx="16.2" cy="-99.1" r="4.36" fill="lightgreen" stroke="#ccc" stroke-width="1.60"/><text x="16.2" y="-96.9" text-anchor="middle" font-size="5.4" font-family="Tahoma,Geneva,sans-serif" font-weight="bold" fill="rgb(100,100,100)">U</text><circle cx="31.2" cy="-97.9" r="4.36" fill="lightgreen" stroke="#ccc" stroke-width="1.60"/><text x="31.2" y="-95.7" text-anchor="middle" font-size="5.4" font-family="Tahoma,Geneva,sans-serif" font-weight="bold" fill="rgb(100,100,100)">U</text><circle cx="46.2" cy="-96.7" r="4.36" fill="lightgreen" stroke="#ccc" stroke-width="1.60"/><text x="46.2" y="-94.5" text-anchor="middle" font-size="5.4" font-family="Tahoma,Geneva,sans-serif" font-weight="bold" fill="rgb(100,100,100)">G</text><circle cx="61.1" cy="-95.5" r="4.36" fill="lightgreen" stroke="#ccc" stroke-width="1.60"/><text x="61.1" y="-93.4" text-anchor="middle" font-size="5.4" font-family="Tahoma,Geneva,sans-serif" font-weight="bold" fill="rgb(100,100,100)">U</text><circle cx="76.1" cy="-94.4" r="4.36" fill="lightgreen" stroke="#ccc" stroke-width="1.60"/><text x="76.1" y="-92.2" text-anchor="middle" font-size="5.4" font-family="Tahoma,Geneva,sans-serif" font-weight="bold" fill="rgb(100,100,100)">C</text><circle cx="95.3" cy="-87.3" r="4.36" fill="lightsalmon" stroke="#ccc" stroke-width="1.60"/><text x="95.3" y="-85.1" text-anchor="middle" font-size="5.4" font-family="Tahoma,Geneva,sans-serif" font-weight="bold" fill="rgb(100,100,100)">G</text><circle cx="114.5" cy="-80.2" r="4.36" fill="lightgreen" stroke="#ccc" stroke-width="1.60"/><text x="114.5" y="-78.0" text-anchor="middle" font-size="5.4" font-family="Tahoma,Geneva,sans-serif" font-weight="bold" fill="rgb(100,100,100)">A</text><circle cx="126.7" cy="-71.3" r="4.36" fill="lightgreen" stroke="#ccc" stroke-width="1.60"/><text x="126.7" y="-69.2" text-anchor="middle" font-size="5.4" font-family="Tahoma,Geneva,sans-serif" font-weight="bold" fill="rgb(100,100,100)">A</text><circle cx="138.8" cy="-62.5" r="4.36" fill="lightgreen" stroke="#ccc" stroke-width="1.60"/><text x="138.8" y="-60.4" text-anchor="middle" font-size="5.4" font-family="Tahoma,Geneva,sans-serif" font-weight="bold" fill="rgb(100,100,100)">A</text><circle cx="139.7" cy="-46.9" r="4.36" fill="lightgreen" stroke="#ccc" stroke-width="1.60"/><text x="139.7" y="-44.7" text-anchor="middle" font-size="5.4" font-family="Tahoma,Geneva,sans-serif" font-weight="bold" fill="rgb(100,100,100)">U</text><circle cx="150.5" cy="-35.6" r="4.36" fill="lightgreen" stroke="#ccc" stroke-width="1.60"/><text x="150.5" y="-33.4" text-anchor="middle" font-size="5.4" font-family="Tahoma,Geneva,sans-serif" font-weight="bold" fill="rgb(100,100,100)">U</text><circle cx="166.0" cy="-33.9" r="4.36" fill="lightgreen" stroke="#ccc" stroke-width="1.60"/><text x="166.0" y="-31.7" text-anchor="middle" font-size="5.4" font-family="Tahoma,Geneva,sans-serif" font-weight="bold" fill="rgb(100,100,100)">U</text><circle cx="179.0" cy="-42.6" r="4.36" fill="lightgreen" stroke="#ccc" stroke-width="1.60"/><text x="179.0" y="-40.4" text-anchor="middle" font-size="5.4" font-family="Tahoma,Geneva,sans-serif" font-weight="bold" fill="rgb(100,100,100)">G</text><circle cx="183.3" cy="-57.6" r="4.36" fill="lightgreen" stroke="#ccc" stroke-width="1.60"/><text x="183.3" y="-55.5" text-anchor="middle" font-size="5.4" font-family="Tahoma,Geneva,sans-serif" font-weight="bold" fill="rgb(100,100,100)">G</text><circle cx="176.9" cy="-71.9" r="4.36" fill="lightgreen" stroke="#ccc" stroke-width="1.60"/><text x="176.9" y="-69.7" text-anchor="middle" font-size="5.4" font-family="Tahoma,Geneva,sans-serif" font-weight="bold" fill="rgb(100,100,100)">C</text><circle cx="162.8" cy="-78.6" r="4.36" fill="lightgreen" stroke="#ccc" stroke-width="1.60"/><text x="162.8" y="-76.4" text-anchor="middle" font-size="5.4" font-family="Tahoma,Geneva,sans-serif" font-weight="bold" fill="rgb(100,100,100)">A</text><circle cx="147.6" cy="-74.7" r="4.36" fill="lightgreen" stroke="#ccc" stroke-width="1.60"/><text x="147.6" y="-72.5" text-anchor="middle" font-size="5.4" font-family="Tahoma,Geneva,sans-serif" font-weight="bold" fill="rgb(100,100,100)">U</text><circle cx="135.5" cy="-83.5" r="4.36" fill="lightgreen" stroke="#ccc" stroke-width="1.60"/><text x="135.5" y="-81.3" text-anchor="middle" font-size="5.4" font-family="Tahoma,Geneva,sans-serif" font-weight="bold" fill="rgb(100,100,100)">U</text><circle cx="123.4" cy="-92.3" r="4.36" fill="lightgreen" stroke="#ccc" stroke-width="1.60"/><text x="123.4" y="-90.1" text-anchor="middle" font-size="5.4" font-family="Tahoma,Geneva,sans-serif" font-weight="bold" fill="rgb(100,100,100)">U</text><circle cx="124.6" cy="-100.6" r="4.36" fill="lightgreen" stroke="#ccc" stroke-width="1.60"/><text x="124.6" y="-98.4" text-anchor="middle" font-size="5.4" font-family="Tahoma,Geneva,sans-serif" font-weight="bold" fill="rgb(100,100,100)">U</text><circle cx="123.0" cy="-108.8" r="4.36" fill="lightgreen" stroke="#ccc" stroke-width="1.60"/><text x="123.0" y="-106.6" text-anchor="middle" font-size="5.4" font-family="Tahoma,Geneva,sans-serif" font-weight="bold" fill="rgb(100,100,100)">G</text><circle cx="118.7" cy="-115.9" r="4.36" fill="lightgreen" stroke="#ccc" stroke-width="1.60"/><text x="118.7" y="-113.8" text-anchor="middle" font-size="5.4" font-family="Tahoma,Geneva,sans-serif" font-weight="bold" fill="rgb(100,100,100)">C</text><circle cx="112.3" cy="-121.3" r="4.36" fill="lightgreen" stroke="#ccc" stroke-width="1.60"/><text x="112.3" y="-119.1" text-anchor="middle" font-size="5.4" font-family="Tahoma,Geneva,sans-serif" font-weight="bold" fill="rgb(100,100,100)">C</text><circle cx="104.5" cy="-124.2" r="4.36" fill="lightgreen" stroke="#ccc" stroke-width="1.60"/><text x="104.5" y="-122.0" text-anchor="middle" font-size="5.4" font-family="Tahoma,Geneva,sans-serif" font-weight="bold" fill="rgb(100,100,100)">G</text><circle cx="96.1" cy="-124.3" r="4.36" fill="lightgreen" stroke="#ccc" stroke-width="1.60"/><text x="96.1" y="-122.1" text-anchor="middle" font-size="5.4" font-family="Tahoma,Geneva,sans-serif" font-weight="bold" fill="rgb(100,100,100)">A</text><circle cx="88.2" cy="-121.6" r="4.36" fill="lightgreen" stroke="#ccc" stroke-width="1.60"/><text x="88.2" y="-119.4" text-anchor="middle" font-size="5.4" font-family="Tahoma,Geneva,sans-serif" font-weight="bold" fill="rgb(100,100,100)">A</text></svg>