<svg xmlns="http://www.w3.org/2000/svg" viewBox="-108.6 -183.1 294.2 182.3" width="294" height="182"><style></style><line x1="3.3" y1="-89.8" x2="6.0" y2="-75.0" stroke="#999" stroke-width="1.65" stroke-opacity="0.8"/><line x1="18.0" y1="-92.5" x2="20.7" y2="-77.7" stroke="#999" stroke-width="1.65" stroke-opacity="0.8"/><line x1="32.8" y1="-95.2" x2="35.5" y2="-80.5" stroke="#999" stroke-width="1.65" stroke-opacity="0.8"/><line x1="47.5" y1="-97.9" x2="50.2" y2="-83.2" stroke="#999" stroke-width="1.65" stroke-opacity="0.8"/><line x1="-16.9" y1="-38.1" x2="67.2" y2="-59.0" stroke="#d9534f" stroke-width="1.65" stroke-opacity="0.6"/><line x1="-31.5" y1="-33.9" x2="80.1" y2="-51.4" stroke="#d9534f" stroke-width="1.65" stroke-opacity="0.6"/><line x1="-46.6" y1="-35.3" x2="94.6" y2="-47.8" stroke="#d9534f" stroke-width="1.65" stroke-opacity="0.6"/><line x1="-60.2" y1="-42.1" x2="109.6" y2="-48.4" stroke="#d9534f" stroke-width="1.65" stroke-opacity="0.6"/><line x1="-60.1" y1="-108.0" x2="152.5" y2="-102.1" stroke="#d9534f" stroke-width="1.65" stroke-opacity="0.6"/><line x1="-46.4" y1="-114.7" x2="149.8" y2="-116.8" stroke="#d9534f" stroke-width="1.65" stroke-opacity="0.6"/><line x1="-31.3" y1="-116.1" x2="143.0" y2="-130.1" stroke="#d9534f" stroke-width="1.65" stroke-opacity="0.6"/><line x1="-16.7" y1="-111.9" x2="132.8" y2="-141.0" stroke="#d9534f" stroke-width="1.65" stroke-opacity="0.6"/><line x1="47.5" y1="-97.9" x2="32.8" y2="-95.2" stroke="#999" stroke-width="1.65" stroke-opacity="0.8"/><line x1="32.8" y1="-95.2" x2="18.0" y2="-92.5" stroke="#999" stroke-width="1.65" stroke-opacity="0.8"/><line x1="18.0" y1="-92.5" x2="3.3" y2="-89.8" stroke="#999" stroke-width="1.65" stroke-opacity="0.8"/><line x1="3.3" y1="-89.8" x2="-5.0" y2="-102.4" stroke="#999" stroke-width="1.65" stroke-opacity="0.8"/><line x1="-5.0" y1="-102.4" x2="-16.7" y2="-111.9" stroke="#999" stroke-width="1.65" stroke-opacity="0.8"/><line x1="-16.7" y1="-111.9" x2="-31.3" y2="-116.1" stroke="#999" stroke-width="1.65" stroke-opacity="0.8"/><line x1="-31.3" y1="-116.1" x2="-46.4" y2="-114.7" stroke="#999" stroke-width="1.65" stroke-opacity="0.8"/><line x1="-46.4" y1="-114.7" x2="-60.1" y2="-108.0" stroke="#999" stroke-width="1.65" stroke-opacity="0.8"/><line x1="-60.1" y1="-108.0" x2="-70.0" y2="-96.7" stroke="#999" stroke-width="1.65" stroke-opacity="0.8"/><line x1="-70.0" y1="-96.7" x2="-75.5" y2="-82.6" stroke="#999" stroke-width="1.65" stroke-opacity="0.8"/><line x1="-75.5" y1="-82.6" x2="-75.5" y2="-67.6" stroke="#999" stroke-width="1.65" stroke-opacity="0.8"/><line x1="-75.5" y1="-67.6" x2="-70.1" y2="-53.5" stroke="#999" stroke-width="1.65" stroke-opacity="0.8"/><line x1="-70.1" y1="-53.5" x2="-60.2" y2="-42.1" stroke="#999" stroke-width="1.65" stroke-opacity="0.8"/><line x1="-60.2" y1="-42.1" x2="-46.6" y2="-35.3" stroke="#999" stroke-width="1.65" stroke-opacity="0.8"/><line x1="-46.6" y1="-35.3" x2="-31.5" y2="-33.9" stroke="#999" stroke-width="1.65" stroke-opacity="0.8"/><line x1="-31.5" y1="-33.9" x2="-16.9" y2="-38.1" stroke="#999" stroke-width="1.65" stroke-opacity="0.8"/><line x1="-16.9" y1="-38.1" x2="-5.1" y2="-47.4" stroke="#999" stroke-width="1.65" stroke-opacity="0.8"/><line x1="-5.1" y1="-47.4" x2="2.8" y2="-60.3" stroke="#999" stroke-width="1.65" stroke-opacity="0.8"/><line x1="2.8" y1="-60.3" x2="6.0" y2="-75.0" stroke="#999" stroke-width="1.65" stroke-opacity="0.8"/><line x1="6.0" y1="-75.0" x2="20.7" y2="-77.7" stroke="#999" stroke-width="1.65" stroke-opacity="0.8"/><line x1="20.7" y1="-77.7" x2="35.5" y2="-80.5" stroke="#999" stroke-width="1.65" stroke-opacity="0.8"/><line x1="35.5" y1="-80.5" x2="50.2" y2="-83.2" stroke="#999" stroke-width="1.65" stroke-opacity="0.8"/><line x1="50.2" y1="-83.2" x2="56.7" y2="-69.7" stroke="#999" stroke-width="1.65" stroke-opacity="0.8"/><line x1="56.7" y1="-69.7" x2="67.2" y2="-59.0" stroke="#999" stroke-width="1.65" stroke-opacity="0.8"/><line x1="67.2" y1="-59.0" x2="80.1" y2="-51.4" stroke="#999" stroke-width="1.65" stroke-opacity="0.8"/><line x1="80.1" y1="-51.4" x2="94.6" y2="-47.8" stroke="#999" stroke-width="1.65" stroke-opacity="0.8"/><line x1="94.6" y1="-47.8" x2="109.6" y2="-48.4" stroke="#999" stroke-width="1.65" stroke-opacity="0.8"/><line x1="109.6" y1="-48.4" x2="123.9" y2="-52.9" stroke="#999" stroke-width="1.65" stroke-opacity="0.8"/><line x1="123.9" y1="-52.9" x2="136.1" y2="-61.5" stroke="#999" stroke-width="1.65" stroke-opacity="0.8"/><line x1="136.1" y1="-61.5" x2="145.5" y2="-73.2" stroke="#999" stroke-width="1.65" stroke-opacity="0.8"/><line x1="145.5" y1="-73.2" x2="151.2" y2="-87.1" stroke="#999" stroke-width="1.65" stroke-opacity="0.8"/><line x1="151.2" y1="-87.1" x2="152.5" y2="-102.1" stroke="#999" stroke-width="1.65" stroke-opacity="0.8"/><line x1="152.5" y1="-102.1" x2="149.8" y2="-116.8" stroke="#999" stroke-width="1.65" stroke-opacity="0.8"/><line x1="149.8" y1="-116.8" x2="143.0" y2="-130.1" stroke="#999" stroke-width="1.65" stroke-opacity="0.8"/><line x1="143.0" y1="-130.1" x2="132.8" y2="-141.0" stroke="#999" stroke-width="1.65" stroke-opacity="0.8"/><line x1="132.8" y1="-141.0" x2="118.4" y2="-147.5" stroke="#999" stroke-width="1.65" stroke-opacity="0.8"/><line x1="118.4" y1="-147.5" x2="102.8" y2="-150.0" stroke="#999" stroke-width="1.65" stroke-opacity="0.8"/><line x1="102.8" y1="-150.0" x2="87.0" y2="-147.2" stroke="#999" stroke-width="1.65" stroke-opacity="0.8"/><line x1="87.0" y1="-147.2" x2="72.5" y2="-139.8" stroke="#999" stroke-width="1.65" stroke-opacity="0.8"/><line x1="72.5" y1="-139.8" x2="59.2" y2="-129.8" stroke="#999" stroke-width="1.65" stroke-opacity="0.8"/><line x1="59.2" y1="-129.8" x2="45.8" y2="-119.2" stroke="#999" stroke-width="1.65" stroke-opacity="0.8"/><text x="44.2" y="-112.9" text-anchor="middle" font-size="7.8" font-family="Tahoma,Geneva,sans-serif" fill="#999">1</text><text x="-85.4" y="-103.3" text-anchor="middle" font-size="7.8" font-family="Tahoma,Geneva,sans-serif" fill="#999">10</text><text x="18.6" y="-59.3" text-anchor="middle" font-size="7.8" font-family="Tahoma,Geneva,sans-serif" fill="#999">20</text><text x="148.5" y="-45.6" text-anchor="middle" font-size="7.8" font-family="Tahoma,Geneva,sans-serif" fill="#999">30</text><text x="62.9" y="-152.4" text-anchor="middle" font-size="7.8" font-family="Tahoma,Geneva,sans-serif" fill="#999">40</text><circle cx="47.5" cy="-97.9" r="4.51" fill="lightgreen" stroke="#ccc" stroke-width="1.65"/><text x="47.5" y="-95.7" text-anchor="middle" font-size="5.6" font-family="Tahoma,Geneva,sans-serif" font-weight="bold" fill="rgb(100,100,100)">C</text><circle cx="32.8" cy="-95.2" r="4.51" fill="lightgreen" stroke="#ccc" stroke-width="1.65"/><text x="32.8" y="-93.0" text-anchor="middle" font-size="5.6" font-family="Tahoma,Geneva,sans-serif" font-weight="bold" fill="rgb(100,100,100)">A</text><circle cx="18.0" cy="-92.5" r="4.51" fill="lightgreen" stroke="#ccc" stroke-width="1.65"/><text x="18.0" y="-90.2" text-anchor="middle" font-size="5.6" font-family="Tahoma,Geneva,sans-serif" font-weight="bold" fill="rgb(100,100,100)">C</text><circle cx="3.3" cy="-89.8" r="4.51" fill="lightgreen" stroke="#ccc" stroke-width="1.65"/><text x="3.3" y="-87.5" text-anchor="middle" font-size="5.6" font-family="Tahoma,Geneva,sans-serif" font-weight="bold" fill="rgb(100,100,100)">U</text><circle cx="-5.0" cy="-102.4" r="4.51" fill="lightblue" stroke="#ccc" stroke-width="1.65"/><text x="-5.0" y="-100.1" text-anchor="middle" font-size="5.6" font-family="Tahoma,Geneva,sans-serif" font-weight="bold" fill="rgb(100,100,100)">A</text><circle cx="-16.7" cy="-111.9" r="4.51" fill="lightgreen" stroke="#ccc" stroke-width="1.65"/><text x="-16.7" y="-109.6" text-anchor="middle" font-size="5.6" font-family="Tahoma,Geneva,sans-serif" font-weight="bold" fill="rgb(100,100,100)">C</text><circle cx="-31.3" cy="-116.1" r="4.51" fill="lightgreen" stroke="#ccc" stroke-width="1.65"/><text x="-31.3" y="-113.8" text-anchor="middle" font-size="5.6" font-family="Tahoma,Geneva,sans-serif" font-weight="bold" fill="rgb(100,100,100)">G</text><circle cx="-46.4" cy="-114.7" r="4.51" fill="lightgreen" stroke="#ccc" stroke-width="1.65"/><text x="-46.4" y="-112.5" text-anchor="middle" font-size="5.6" font-family="Tahoma,Geneva,sans-serif" font-weight="bold" fill="rgb(100,100,100)">G</text><circle cx="-60.1" cy="-108.0" r="4.51" fill="lightgreen" stroke="#ccc" stroke-width="1.65"/><text x="-60.1" y="-105.8" text-anchor="middle" font-size="5.6" font-family="Tahoma,Geneva,sans-serif" font-weight="bold" fill="rgb(100,100,100)">C</text><circle cx="-70.0" cy="-96.7" r="4.51" fill="lightblue" stroke="#ccc" stroke-width="1.65"/><text x="-70.0" y="-94.4" text-anchor="middle" font-size="5.6" font-family="Tahoma,Geneva,sans-serif" font-weight="bold" fill="rgb(100,100,100)">A</text><circle cx="-75.5" cy="-82.6" r="4.51" fill="lightblue" stroke="#ccc" stroke-width="1.65"/><text x="-75.5" y="-80.4" text-anchor="middle" font-size="5.6" font-family="Tahoma,Geneva,sans-serif" font-weight="bold" fill="rgb(100,100,100)">C</text><circle cx="-75.5" cy="-67.6" r="4.51" fill="lightblue" stroke="#ccc" stroke-width="1.65"/><text x="-75.5" y="-65.3" text-anchor="middle" font-size="5.6" font-family="Tahoma,Geneva,sans-serif" font-weight="bold" fill="rgb(100,100,100)">A</text><circle cx="-70.1" cy="-53.5" r="4.51" fill="lightblue" stroke="#ccc" stroke-width="1.65"/><text x="-70.1" y="-51.3" text-anchor="middle" font-size="5.6" font-family="Tahoma,Geneva,sans-serif" font-weight="bold" fill="rgb(100,100,100)">U</text><circle cx="-60.2" cy="-42.1" r="4.51" fill="lightgreen" stroke="#ccc" stroke-width="1.65"/><text x="-60.2" y="-39.9" text-anchor="middle" font-size="5.6" font-family="Tahoma,Geneva,sans-serif" font-weight="bold" fill="rgb(100,100,100)">A</text><circle cx="-46.6" cy="-35.3" r="4.51" fill="lightgreen" stroke="#ccc" stroke-width="1.65"/><text x="-46.6" y="-33.1" text-anchor="middle" font-size="5.6" font-family="Tahoma,Geneva,sans-serif" font-weight="bold" fill="rgb(100,100,100)">C</text><circle cx="-31.5" cy="-33.9" r="4.51" fill="lightgreen" stroke="#ccc" stroke-width="1.65"/><text x="-31.5" y="-31.7" text-anchor="middle" font-size="5.6" font-family="Tahoma,Geneva,sans-serif" font-weight="bold" fill="rgb(100,100,100)">A</text><circle cx="-16.9" cy="-38.1" r="4.51" fill="lightgreen" stroke="#ccc" stroke-width="1.65"/><text x="-16.9" y="-35.8" text-anchor="middle" font-size="5.6" font-family="Tahoma,Geneva,sans-serif" font-weight="bold" fill="rgb(100,100,100)">U</text><circle cx="-5.1" cy="-47.4" r="4.51" fill="lightblue" stroke="#ccc" stroke-width="1.65"/><text x="-5.1" y="-45.2" text-anchor="middle" font-size="5.6" font-family="Tahoma,Geneva,sans-serif" font-weight="bold" fill="rgb(100,100,100)">U</text><circle cx="2.8" cy="-60.3" r="4.51" fill="lightblue" stroke="#ccc" stroke-width="1.65"/><text x="2.8" y="-58.0" text-anchor="middle" font-size="5.6" font-family="Tahoma,Geneva,sans-serif" font-weight="bold" fill="rgb(100,100,100)">C</text><circle cx="6.0" cy="-75.0" r="4.51" fill="lightgreen" stroke="#ccc" stroke-width="1.65"/><text x="6.0" y="-72.8" text-anchor="middle" font-size="5.6" font-family="Tahoma,Geneva,sans-serif" font-weight="bold" fill="rgb(100,100,100)">A</text><circle cx="20.7" cy="-77.7" r="4.51" fill="lightgreen" stroke="#ccc" stroke-width="1.65"/><text x="20.7" y="-75.5" text-anchor="middle" font-size="5.6" font-family="Tahoma,Geneva,sans-serif" font-weight="bold" fill="rgb(100,100,100)">G</text><circle cx="35.5" cy="-80.5" r="4.51" fill="lightgreen" stroke="#ccc" stroke-width="1.65"/><text x="35.5" y="-78.2" text-anchor="middle" font-size="5.6" font-family="Tahoma,Geneva,sans-serif" font-weight="bold" fill="rgb(100,100,100)">U</text><circle cx="50.2" cy="-83.2" r="4.51" fill="lightgreen" stroke="#ccc" stroke-width="1.65"/><text x="50.2" y="-80.9" text-anchor="middle" font-size="5.6" font-family="Tahoma,Geneva,sans-serif" font-weight="bold" fill="rgb(100,100,100)">G</text><circle cx="56.7" cy="-69.7" r="4.51" fill="lightsalmon" stroke="#ccc" stroke-width="1.65"/><text x="56.7" y="-67.4" text-anchor="middle" font-size="5.6" font-family="Tahoma,Geneva,sans-serif" font-weight="bold" fill="rgb(100,100,100)">U</text><circle cx="67.2" cy="-59.0" r="4.51" fill="lightgreen" stroke="#ccc" stroke-width="1.65"/><text x="67.2" y="-56.7" text-anchor="middle" font-size="5.6" font-family="Tahoma,Geneva,sans-serif" font-weight="bold" fill="rgb(100,100,100)">A</text><circle cx="80.1" cy="-51.4" r="4.51" fill="lightgreen" stroke="#ccc" stroke-width="1.65"/><text x="80.1" y="-49.1" text-anchor="middle" font-size="5.6" font-family="Tahoma,Geneva,sans-serif" font-weight="bold" fill="rgb(100,100,100)">U</text><circle cx="94.6" cy="-47.8" r="4.51" fill="lightgreen" stroke="#ccc" stroke-width="1.65"/><text x="94.6" y="-45.5" text-anchor="middle" font-size="5.6" font-family="Tahoma,Geneva,sans-serif" font-weight="bold" fill="rgb(100,100,100)">G</text><circle cx="109.6" cy="-48.4" r="4.51" fill="lightgreen" stroke="#ccc" stroke-width="1.65"/><text x="109.6" y="-46.1" text-anchor="middle" font-size="5.6" font-family="Tahoma,Geneva,sans-serif" font-weight="bold" fill="rgb(100,100,100)">U</text><circle cx="123.9" cy="-52.9" r="4.51" fill="lightsalmon" stroke="#ccc" stroke-width="1.65"/><text x="123.9" y="-50.6" text-anchor="middle" font-size="5.6" font-family="Tahoma,Geneva,sans-serif" font-weight="bold" fill="rgb(100,100,100)">U</text><circle cx="136.1" cy="-61.5" r="4.51" fill="lightsalmon" stroke="#ccc" stroke-width="1.65"/><text x="136.1" y="-59.3" text-anchor="middle" font-size="5.6" font-family="Tahoma,Geneva,sans-serif" font-weight="bold" fill="rgb(100,100,100)">A</text><circle cx="145.5" cy="-73.2" r="4.51" fill="lightsalmon" stroke="#ccc" stroke-width="1.65"/><text x="145.5" y="-71.0" text-anchor="middle" font-size="5.6" font-family="Tahoma,Geneva,sans-serif" font-weight="bold" fill="rgb(100,100,100)">C</text><circle cx="151.2" cy="-87.1" r="4.51" fill="lightsalmon" stroke="#ccc" stroke-width="1.65"/><text x="151.2" y="-84.9" text-anchor="middle" font-size="5.6" font-family="Tahoma,Geneva,sans-serif" font-weight="bold" fill="rgb(100,100,100)">A</text><circle cx="152.5" cy="-102.1" r="4.51" fill="lightgreen" stroke="#ccc" stroke-width="1.65"/><text x="152.5" y="-99.8" text-anchor="middle" font-size="5.6" font-family="Tahoma,Geneva,sans-serif" font-weight="bold" fill="rgb(100,100,100)">G</text><circle cx="149.8" cy="-116.8" r="4.51" fill="lightgreen" stroke="#ccc" stroke-width="1.65"/><text x="149.8" y="-114.5" text-anchor="middle" font-size="5.6" font-family="Tahoma,Geneva,sans-serif" font-weight="bold" fill="rgb(100,100,100)">C</text><circle cx="143.0" cy="-130.1" r="4.51" fill="lightgreen" stroke="#ccc" stroke-width="1.65"/><text x="143.0" y="-127.9" text-anchor="middle" font-size="5.6" font-family="Tahoma,Geneva,sans-serif" font-weight="bold" fill="rgb(100,100,100)">C</text><circle cx="132.8" cy="-141.0" r="4.51" fill="lightgreen" stroke="#ccc" stroke-width="1.65"/><text x="132.8" y="-138.8" text-anchor="middle" font-size="5.6" font-family="Tahoma,Geneva,sans-serif" font-weight="bold" fill="rgb(100,100,100)">G</text><circle cx="118.4" cy="-147.5" r="4.51" fill="lightsalmon" stroke="#ccc" stroke-width="1.65"/><text x="118.4" y="-145.3" text-anchor="middle" font-size="5.6" font-family="Tahoma,Geneva,sans-serif" font-weight="bold" fill="rgb(100,100,100)">G</text><circle cx="102.8" cy="-150.0" r="4.51" fill="lightsalmon" stroke="#ccc" stroke-width="1.65"/><text x="102.8" y="-147.8" text-anchor="middle" font-size="5.6" font-family="Tahoma,Geneva,sans-serif" font-weight="bold" fill="rgb(100,100,100)">G</text><circle cx="87.0" cy="-147.2" r="4.51" fill="lightsalmon" stroke="#ccc" stroke-width="1.65"/><text x="87.0" y="-145.0" text-anchor="middle" font-size="5.6" font-family="Tahoma,Geneva,sans-serif" font-weight="bold" fill="rgb(100,100,100)">U</text><circle cx="72.5" cy="-139.8" r="4.51" fill="lightsalmon" stroke="#ccc" stroke-width="1.65"/><text x="72.5" y="-137.6" text-anchor="middle" font-size="5.6" font-family="Tahoma,Geneva,sans-serif" font-weight="bold" fill="rgb(100,100,100)">C</text><circle cx="59.2" cy="-129.8" r="4.51" fill="lightsalmon" stroke="#ccc" stroke-width="1.65"/><text x="59.2" y="-127.5" text-anchor="middle" font-size="5.6" font-family="Tahoma,Geneva,sans-serif" font-weight="bold" fill="rgb(100,100,100)">A</text><circle cx="45.8" cy="-119.2" r="4.51" fill="lightsalmon" stroke="#ccc" stroke-width="1.65"/><text x="45.8" y="-116.9" text-anchor="middle" font-size="5.6" font-family="Tahoma,Geneva,sans-serif" font-weight="bold" fill="rgb(100,100,100)">A</text></svg>