<svg xmlns="http://www.w3.org/2000/svg" viewBox="23.7 -228.0 141.6 388.3" width="142" height="388"><style></style><line x1="64.9" y1="100.5" x2="79.7" y2="102.5" stroke="#999" stroke-width="1.65" stroke-opacity="0.8"/><line x1="66.9" y1="85.6" x2="81.8" y2="87.7" stroke="#999" stroke-width="1.65" stroke-opacity="0.8"/><line x1="69.0" y1="70.8" x2="83.8" y2="72.8" stroke="#999" stroke-width="1.65" stroke-opacity="0.8"/><line x1="71.0" y1="55.9" x2="85.9" y2="58.0" stroke="#999" stroke-width="1.65" stroke-opacity="0.8"/><line x1="73.0" y1="41.0" x2="87.9" y2="43.1" stroke="#999" stroke-width="1.65" stroke-opacity="0.8"/><line x1="75.1" y1="26.2" x2="89.9" y2="28.2" stroke="#999" stroke-width="1.65" stroke-opacity="0.8"/><line x1="77.1" y1="11.3" x2="92.0" y2="13.4" stroke="#999" stroke-width="1.65" stroke-opacity="0.8"/><line x1="79.2" y1="-3.5" x2="94.0" y2="-1.5" stroke="#999" stroke-width="1.65" stroke-opacity="0.8"/><line x1="81.2" y1="-18.4" x2="96.1" y2="-16.4" stroke="#999" stroke-width="1.65" stroke-opacity="0.8"/><line x1="83.3" y1="-33.3" x2="98.1" y2="-31.2" stroke="#999" stroke-width="1.65" stroke-opacity="0.8"/><line x1="85.3" y1="-48.1" x2="100.2" y2="-46.1" stroke="#999" stroke-width="1.65" stroke-opacity="0.8"/><line x1="87.3" y1="-63.0" x2="102.2" y2="-60.9" stroke="#999" stroke-width="1.65" stroke-opacity="0.8"/><line x1="89.4" y1="-77.8" x2="104.2" y2="-75.8" stroke="#999" stroke-width="1.65" stroke-opacity="0.8"/><line x1="91.4" y1="-92.7" x2="106.3" y2="-90.7" stroke="#999" stroke-width="1.65" stroke-opacity="0.8"/><line x1="94.1" y1="-108.5" x2="108.8" y2="-105.4" stroke="#999" stroke-width="1.65" stroke-opacity="0.8"/><line x1="97.2" y1="-123.2" x2="111.9" y2="-120.1" stroke="#999" stroke-width="1.65" stroke-opacity="0.8"/><line x1="100.3" y1="-137.9" x2="114.9" y2="-134.8" stroke="#999" stroke-width="1.65" stroke-opacity="0.8"/><line x1="103.3" y1="-152.5" x2="118.0" y2="-149.5" stroke="#999" stroke-width="1.65" stroke-opacity="0.8"/><line x1="106.4" y1="-167.2" x2="121.0" y2="-164.2" stroke="#999" stroke-width="1.65" stroke-opacity="0.8"/><line x1="83.6" y1="119.0" x2="132.4" y2="-176.0" stroke="#d9534f" stroke-width="1.65" stroke-opacity="0.6"/><line x1="68.8" y1="127.3" x2="127.5" y2="-191.7" stroke="#d9534f" stroke-width="1.65" stroke-opacity="0.6"/><line x1="56.7" y1="115.4" x2="111.4" y2="-195.0" stroke="#d9534f" stroke-width="1.65" stroke-opacity="0.6"/><line x1="106.4" y1="-167.2" x2="103.3" y2="-152.5" stroke="#999" stroke-width="1.65" stroke-opacity="0.8"/><line x1="103.3" y1="-152.5" x2="100.3" y2="-137.9" stroke="#999" stroke-width="1.65" stroke-opacity="0.8"/><line x1="100.3" y1="-137.9" x2="97.2" y2="-123.2" stroke="#999" stroke-width="1.65" stroke-opacity="0.8"/><line x1="97.2" y1="-123.2" x2="94.1" y2="-108.5" stroke="#999" stroke-width="1.65" stroke-opacity="0.8"/><line x1="94.1" y1="-108.5" x2="80.3" y2="-102.7" stroke="#999" stroke-width="1.65" stroke-opacity="0.8"/><line x1="80.3" y1="-102.7" x2="91.4" y2="-92.7" stroke="#999" stroke-width="1.65" stroke-opacity="0.8"/><line x1="91.4" y1="-92.7" x2="89.4" y2="-77.8" stroke="#999" stroke-width="1.65" stroke-opacity="0.8"/><line x1="89.4" y1="-77.8" x2="87.3" y2="-63.0" stroke="#999" stroke-width="1.65" stroke-opacity="0.8"/><line x1="87.3" y1="-63.0" x2="85.3" y2="-48.1" stroke="#999" stroke-width="1.65" stroke-opacity="0.8"/><line x1="85.3" y1="-48.1" x2="83.3" y2="-33.3" stroke="#999" stroke-width="1.65" stroke-opacity="0.8"/><line x1="83.3" y1="-33.3" x2="81.2" y2="-18.4" stroke="#999" stroke-width="1.65" stroke-opacity="0.8"/><line x1="81.2" y1="-18.4" x2="79.2" y2="-3.5" stroke="#999" stroke-width="1.65" stroke-opacity="0.8"/><line x1="79.2" y1="-3.5" x2="77.1" y2="11.3" stroke="#999" stroke-width="1.65" stroke-opacity="0.8"/><line x1="77.1" y1="11.3" x2="75.1" y2="26.2" stroke="#999" stroke-width="1.65" stroke-opacity="0.8"/><line x1="75.1" y1="26.2" x2="73.0" y2="41.0" stroke="#999" stroke-width="1.65" stroke-opacity="0.8"/><line x1="73.0" y1="41.0" x2="71.0" y2="55.9" stroke="#999" stroke-width="1.65" stroke-opacity="0.8"/><line x1="71.0" y1="55.9" x2="69.0" y2="70.8" stroke="#999" stroke-width="1.65" stroke-opacity="0.8"/><line x1="69.0" y1="70.8" x2="66.9" y2="85.6" stroke="#999" stroke-width="1.65" stroke-opacity="0.8"/><line x1="66.9" y1="85.6" x2="64.9" y2="100.5" stroke="#999" stroke-width="1.65" stroke-opacity="0.8"/><line x1="64.9" y1="100.5" x2="56.7" y2="115.4" stroke="#999" stroke-width="1.65" stroke-opacity="0.8"/><line x1="56.7" y1="115.4" x2="68.8" y2="127.3" stroke="#999" stroke-width="1.65" stroke-opacity="0.8"/><line x1="68.8" y1="127.3" x2="83.6" y2="119.0" stroke="#999" stroke-width="1.65" stroke-opacity="0.8"/><line x1="83.6" y1="119.0" x2="79.7" y2="102.5" stroke="#999" stroke-width="1.65" stroke-opacity="0.8"/><line x1="79.7" y1="102.5" x2="81.8" y2="87.7" stroke="#999" stroke-width="1.65" stroke-opacity="0.8"/><line x1="81.8" y1="87.7" x2="83.8" y2="72.8" stroke="#999" stroke-width="1.65" stroke-opacity="0.8"/><line x1="83.8" y1="72.8" x2="85.9" y2="58.0" stroke="#999" stroke-width="1.65" stroke-opacity="0.8"/><line x1="85.9" y1="58.0" x2="87.9" y2="43.1" stroke="#999" stroke-width="1.65" stroke-opacity="0.8"/><line x1="87.9" y1="43.1" x2="89.9" y2="28.2" stroke="#999" stroke-width="1.65" stroke-opacity="0.8"/><line x1="89.9" y1="28.2" x2="92.0" y2="13.4" stroke="#999" stroke-width="1.65" stroke-opacity="0.8"/><line x1="92.0" y1="13.4" x2="94.0" y2="-1.5" stroke="#999" stroke-width="1.65" stroke-opacity="0.8"/><line x1="94.0" y1="-1.5" x2="96.1" y2="-16.4" stroke="#999" stroke-width="1.65" stroke-opacity="0.8"/><line x1="96.1" y1="-16.4" x2="98.1" y2="-31.2" stroke="#999" stroke-width="1.65" stroke-opacity="0.8"/><line x1="98.1" y1="-31.2" x2="100.2" y2="-46.1" stroke="#999" stroke-width="1.65" stroke-opacity="0.8"/><line x1="100.2" y1="-46.1" x2="102.2" y2="-60.9" stroke="#999" stroke-width="1.65" stroke-opacity="0.8"/><line x1="102.2" y1="-60.9" x2="104.2" y2="-75.8" stroke="#999" stroke-width="1.65" stroke-opacity="0.8"/><line x1="104.2" y1="-75.8" x2="106.3" y2="-90.7" stroke="#999" stroke-width="1.65" stroke-opacity="0.8"/><line x1="106.3" y1="-90.7" x2="108.8" y2="-105.4" stroke="#999" stroke-width="1.65" stroke-opacity="0.8"/><line x1="108.8" y1="-105.4" x2="111.9" y2="-120.1" stroke="#999" stroke-width="1.65" stroke-opacity="0.8"/><line x1="111.9" y1="-120.1" x2="114.9" y2="-134.8" stroke="#999" stroke-width="1.65" stroke-opacity="0.8"/><line x1="114.9" y1="-134.8" x2="118.0" y2="-149.5" stroke="#999" stroke-width="1.65" stroke-opacity="0.8"/><line x1="118.0" y1="-149.5" x2="121.0" y2="-164.2" stroke="#999" stroke-width="1.65" stroke-opacity="0.8"/><line x1="121.0" y1="-164.2" x2="132.4" y2="-176.0" stroke="#999" stroke-width="1.65" stroke-opacity="0.8"/><line x1="132.4" y1="-176.0" x2="127.5" y2="-191.7" stroke="#999" stroke-width="1.65" stroke-opacity="0.8"/><line x1="127.5" y1="-191.7" x2="111.4" y2="-195.0" stroke="#999" stroke-width="1.65" stroke-opacity="0.8"/><text x="88.7" y="-168.2" text-anchor="middle" font-size="7.8" font-family="Tahoma,Geneva,sans-serif" fill="#999">1</text><text x="67.5" y="-47.8" text-anchor="middle" font-size="7.8" font-family="Tahoma,Geneva,sans-serif" fill="#999">10</text><text x="47.9" y="97.4" text-anchor="middle" font-size="7.8" font-family="Tahoma,Geneva,sans-serif" fill="#999">20</text><text x="109.8" y="18.5" text-anchor="middle" font-size="7.8" font-family="Tahoma,Geneva,sans-serif" fill="#999">30</text><text x="132.5" y="-128.4" text-anchor="middle" font-size="7.8" font-family="Tahoma,Geneva,sans-serif" fill="#999">40</text><circle cx="106.4" cy="-167.2" r="4.50" fill="lightgreen" stroke="#ccc" stroke-width="1.65"/><text x="106.4" y="-165.0" text-anchor="middle" font-size="5.6" font-family="Tahoma,Geneva,sans-serif" font-weight="bold" fill="rgb(100,100,100)">G</text><circle cx="103.3" cy="-152.5" r="4.50" fill="lightgreen" stroke="#ccc" stroke-width="1.65"/><text x="103.3" y="-150.3" text-anchor="middle" font-size="5.6" font-family="Tahoma,Geneva,sans-serif" font-weight="bold" fill="rgb(100,100,100)">G</text><circle cx="100.3" cy="-137.9" r="4.50" fill="lightgreen" stroke="#ccc" stroke-width="1.65"/><text x="100.3" y="-135.6" text-anchor="middle" font-size="5.6" font-family="Tahoma,Geneva,sans-serif" font-weight="bold" fill="rgb(100,100,100)">C</text><circle cx="97.2" cy="-123.2" r="4.50" fill="lightgreen" stroke="#ccc" stroke-width="1.65"/><text x="97.2" y="-120.9" text-anchor="middle" font-size="5.6" font-family="Tahoma,Geneva,sans-serif" font-weight="bold" fill="rgb(100,100,100)">C</text><circle cx="94.1" cy="-108.5" r="4.50" fill="lightgreen" stroke="#ccc" stroke-width="1.65"/><text x="94.1" y="-106.2" text-anchor="middle" font-size="5.6" font-family="Tahoma,Geneva,sans-serif" font-weight="bold" fill="rgb(100,100,100)">A</text><circle cx="80.3" cy="-102.7" r="4.50" fill="#dbdb8d" stroke="#ccc" stroke-width="1.65"/><text x="80.3" y="-100.5" text-anchor="middle" font-size="5.6" font-family="Tahoma,Geneva,sans-serif" font-weight="bold" fill="rgb(100,100,100)">A</text><circle cx="91.4" cy="-92.7" r="4.50" fill="lightgreen" stroke="#ccc" stroke-width="1.65"/><text x="91.4" y="-90.4" text-anchor="middle" font-size="5.6" font-family="Tahoma,Geneva,sans-serif" font-weight="bold" fill="rgb(100,100,100)">U</text><circle cx="89.4" cy="-77.8" r="4.50" fill="lightgreen" stroke="#ccc" stroke-width="1.65"/><text x="89.4" y="-75.6" text-anchor="middle" font-size="5.6" font-family="Tahoma,Geneva,sans-serif" font-weight="bold" fill="rgb(100,100,100)">G</text><circle cx="87.3" cy="-63.0" r="4.50" fill="lightgreen" stroke="#ccc" stroke-width="1.65"/><text x="87.3" y="-60.7" text-anchor="middle" font-size="5.6" font-family="Tahoma,Geneva,sans-serif" font-weight="bold" fill="rgb(100,100,100)">U</text><circle cx="85.3" cy="-48.1" r="4.50" fill="lightgreen" stroke="#ccc" stroke-width="1.65"/><text x="85.3" y="-45.9" text-anchor="middle" font-size="5.6" font-family="Tahoma,Geneva,sans-serif" font-weight="bold" fill="rgb(100,100,100)">G</text><circle cx="83.3" cy="-33.3" r="4.50" fill="lightgreen" stroke="#ccc" stroke-width="1.65"/><text x="83.3" y="-31.0" text-anchor="middle" font-size="5.6" font-family="Tahoma,Geneva,sans-serif" font-weight="bold" fill="rgb(100,100,100)">C</text><circle cx="81.2" cy="-18.4" r="4.50" fill="lightgreen" stroke="#ccc" stroke-width="1.65"/><text x="81.2" y="-16.1" text-anchor="middle" font-size="5.6" font-family="Tahoma,Geneva,sans-serif" font-weight="bold" fill="rgb(100,100,100)">C</text><circle cx="79.2" cy="-3.5" r="4.50" fill="lightgreen" stroke="#ccc" stroke-width="1.65"/><text x="79.2" y="-1.3" text-anchor="middle" font-size="5.6" font-family="Tahoma,Geneva,sans-serif" font-weight="bold" fill="rgb(100,100,100)">G</text><circle cx="77.1" cy="11.3" r="4.50" fill="lightgreen" stroke="#ccc" stroke-width="1.65"/><text x="77.1" y="13.6" text-anchor="middle" font-size="5.6" font-family="Tahoma,Geneva,sans-serif" font-weight="bold" fill="rgb(100,100,100)">A</text><circle cx="75.1" cy="26.2" r="4.50" fill="lightgreen" stroke="#ccc" stroke-width="1.65"/><text x="75.1" y="28.4" text-anchor="middle" font-size="5.6" font-family="Tahoma,Geneva,sans-serif" font-weight="bold" fill="rgb(100,100,100)">G</text><circle cx="73.0" cy="41.0" r="4.50" fill="lightgreen" stroke="#ccc" stroke-width="1.65"/><text x="73.0" y="43.3" text-anchor="middle" font-size="5.6" font-family="Tahoma,Geneva,sans-serif" font-weight="bold" fill="rgb(100,100,100)">A</text><circle cx="71.0" cy="55.9" r="4.50" fill="lightgreen" stroke="#ccc" stroke-width="1.65"/><text x="71.0" y="58.2" text-anchor="middle" font-size="5.6" font-family="Tahoma,Geneva,sans-serif" font-weight="bold" fill="rgb(100,100,100)">C</text><circle cx="69.0" cy="70.8" r="4.50" fill="lightgreen" stroke="#ccc" stroke-width="1.65"/><text x="69.0" y="73.0" text-anchor="middle" font-size="5.6" font-family="Tahoma,Geneva,sans-serif" font-weight="bold" fill="rgb(100,100,100)">A</text><circle cx="66.9" cy="85.6" r="4.50" fill="lightgreen" stroke="#ccc" stroke-width="1.65"/><text x="66.9" y="87.9" text-anchor="middle" font-size="5.6" font-family="Tahoma,Geneva,sans-serif" font-weight="bold" fill="rgb(100,100,100)">U</text><circle cx="64.9" cy="100.5" r="4.50" fill="lightgreen" stroke="#ccc" stroke-width="1.65"/><text x="64.9" y="102.7" text-anchor="middle" font-size="5.6" font-family="Tahoma,Geneva,sans-serif" font-weight="bold" fill="rgb(100,100,100)">G</text><circle cx="56.7" cy="115.4" r="4.50" fill="lightgreen" stroke="#ccc" stroke-width="1.65"/><text x="56.7" y="117.6" text-anchor="middle" font-size="5.6" font-family="Tahoma,Geneva,sans-serif" font-weight="bold" fill="rgb(100,100,100)">G</text><circle cx="68.8" cy="127.3" r="4.50" fill="lightgreen" stroke="#ccc" stroke-width="1.65"/><text x="68.8" y="129.5" text-anchor="middle" font-size="5.6" font-family="Tahoma,Geneva,sans-serif" font-weight="bold" fill="rgb(100,100,100)">C</text><circle cx="83.6" cy="119.0" r="4.50" fill="lightgreen" stroke="#ccc" stroke-width="1.65"/><text x="83.6" y="121.3" text-anchor="middle" font-size="5.6" font-family="Tahoma,Geneva,sans-serif" font-weight="bold" fill="rgb(100,100,100)">U</text><circle cx="79.7" cy="102.5" r="4.50" fill="lightgreen" stroke="#ccc" stroke-width="1.65"/><text x="79.7" y="104.8" text-anchor="middle" font-size="5.6" font-family="Tahoma,Geneva,sans-serif" font-weight="bold" fill="rgb(100,100,100)">C</text><circle cx="81.8" cy="87.7" r="4.50" fill="lightgreen" stroke="#ccc" stroke-width="1.65"/><text x="81.8" y="89.9" text-anchor="middle" font-size="5.6" font-family="Tahoma,Geneva,sans-serif" font-weight="bold" fill="rgb(100,100,100)">G</text><circle cx="83.8" cy="72.8" r="4.50" fill="lightgreen" stroke="#ccc" stroke-width="1.65"/><text x="83.8" y="75.1" text-anchor="middle" font-size="5.6" font-family="Tahoma,Geneva,sans-serif" font-weight="bold" fill="rgb(100,100,100)">U</text><circle cx="85.9" cy="58.0" r="4.50" fill="lightgreen" stroke="#ccc" stroke-width="1.65"/><text x="85.9" y="60.2" text-anchor="middle" font-size="5.6" font-family="Tahoma,Geneva,sans-serif" font-weight="bold" fill="rgb(100,100,100)">G</text><circle cx="87.9" cy="43.1" r="4.50" fill="lightgreen" stroke="#ccc" stroke-width="1.65"/><text x="87.9" y="45.3" text-anchor="middle" font-size="5.6" font-family="Tahoma,Geneva,sans-serif" font-weight="bold" fill="rgb(100,100,100)">U</text><circle cx="89.9" cy="28.2" r="4.50" fill="lightgreen" stroke="#ccc" stroke-width="1.65"/><text x="89.9" y="30.5" text-anchor="middle" font-size="5.6" font-family="Tahoma,Geneva,sans-serif" font-weight="bold" fill="rgb(100,100,100)">U</text><circle cx="92.0" cy="13.4" r="4.50" fill="lightgreen" stroke="#ccc" stroke-width="1.65"/><text x="92.0" y="15.6" text-anchor="middle" font-size="5.6" font-family="Tahoma,Geneva,sans-serif" font-weight="bold" fill="rgb(100,100,100)">U</text><circle cx="94.0" cy="-1.5" r="4.50" fill="lightgreen" stroke="#ccc" stroke-width="1.65"/><text x="94.0" y="0.8" text-anchor="middle" font-size="5.6" font-family="Tahoma,Geneva,sans-serif" font-weight="bold" fill="rgb(100,100,100)">C</text><circle cx="96.1" cy="-16.4" r="4.50" fill="lightgreen" stroke="#ccc" stroke-width="1.65"/><text x="96.1" y="-14.1" text-anchor="middle" font-size="5.6" font-family="Tahoma,Geneva,sans-serif" font-weight="bold" fill="rgb(100,100,100)">G</text><circle cx="98.1" cy="-31.2" r="4.50" fill="lightgreen" stroke="#ccc" stroke-width="1.65"/><text x="98.1" y="-29.0" text-anchor="middle" font-size="5.6" font-family="Tahoma,Geneva,sans-serif" font-weight="bold" fill="rgb(100,100,100)">G</text><circle cx="100.2" cy="-46.1" r="4.50" fill="lightgreen" stroke="#ccc" stroke-width="1.65"/><text x="100.2" y="-43.8" text-anchor="middle" font-size="5.6" font-family="Tahoma,Geneva,sans-serif" font-weight="bold" fill="rgb(100,100,100)">C</text><circle cx="102.2" cy="-60.9" r="4.50" fill="lightgreen" stroke="#ccc" stroke-width="1.65"/><text x="102.2" y="-58.7" text-anchor="middle" font-size="5.6" font-family="Tahoma,Geneva,sans-serif" font-weight="bold" fill="rgb(100,100,100)">A</text><circle cx="104.2" cy="-75.8" r="4.50" fill="lightgreen" stroke="#ccc" stroke-width="1.65"/><text x="104.2" y="-73.5" text-anchor="middle" font-size="5.6" font-family="Tahoma,Geneva,sans-serif" font-weight="bold" fill="rgb(100,100,100)">C</text><circle cx="106.3" cy="-90.7" r="4.50" fill="lightgreen" stroke="#ccc" stroke-width="1.65"/><text x="106.3" y="-88.4" text-anchor="middle" font-size="5.6" font-family="Tahoma,Geneva,sans-serif" font-weight="bold" fill="rgb(100,100,100)">A</text><circle cx="108.8" cy="-105.4" r="4.50" fill="lightgreen" stroke="#ccc" stroke-width="1.65"/><text x="108.8" y="-103.2" text-anchor="middle" font-size="5.6" font-family="Tahoma,Geneva,sans-serif" font-weight="bold" fill="rgb(100,100,100)">U</text><circle cx="111.9" cy="-120.1" r="4.50" fill="lightgreen" stroke="#ccc" stroke-width="1.65"/><text x="111.9" y="-117.9" text-anchor="middle" font-size="5.6" font-family="Tahoma,Geneva,sans-serif" font-weight="bold" fill="rgb(100,100,100)">G</text><circle cx="114.9" cy="-134.8" r="4.50" fill="lightgreen" stroke="#ccc" stroke-width="1.65"/><text x="114.9" y="-132.6" text-anchor="middle" font-size="5.6" font-family="Tahoma,Geneva,sans-serif" font-weight="bold" fill="rgb(100,100,100)">G</text><circle cx="118.0" cy="-149.5" r="4.50" fill="lightgreen" stroke="#ccc" stroke-width="1.65"/><text x="118.0" y="-147.2" text-anchor="middle" font-size="5.6" font-family="Tahoma,Geneva,sans-serif" font-weight="bold" fill="rgb(100,100,100)">U</text><circle cx="121.0" cy="-164.2" r="4.50" fill="lightgreen" stroke="#ccc" stroke-width="1.65"/><text x="121.0" y="-161.9" text-anchor="middle" font-size="5.6" font-family="Tahoma,Geneva,sans-serif" font-weight="bold" fill="rgb(100,100,100)">C</text><circle cx="132.4" cy="-176.0" r="4.50" fill="lightgreen" stroke="#ccc" stroke-width="1.65"/><text x="132.4" y="-173.8" text-anchor="middle" font-size="5.6" font-family="Tahoma,Geneva,sans-serif" font-weight="bold" fill="rgb(100,100,100)">G</text><circle cx="127.5" cy="-191.7" r="4.50" fill="lightgreen" stroke="#ccc" stroke-width="1.65"/><text x="127.5" y="-189.5" text-anchor="middle" font-size="5.6" font-family="Tahoma,Geneva,sans-serif" font-weight="bold" fill="rgb(100,100,100)">G</text><circle cx="111.4" cy="-195.0" r="4.50" fill="lightgreen" stroke="#ccc" stroke-width="1.65"/><text x="111.4" y="-192.8" text-anchor="middle" font-size="5.6" font-family="Tahoma,Geneva,sans-serif" font-weight="bold" fill="rgb(100,100,100)">U</text></svg>