<svg xmlns="http://www.w3.org/2000/svg" viewBox="0 0 760 640" width="760" height="640"><style>svg {
  display: block;
  min-width: 100%;
  width: 100%;
  min-height: 100%;
}

circle.node {
  stroke: #ccc;
  stroke-width: 1px;
  opacity: 1;
  fill: white;
}

circle.node.label {
    stroke: transparent;
    stroke-width: 0;
    fill: white;
}

circle.outline_node {
    stroke-width: 1px;
    fill: red;
}

circle.protein {
    fill: gray;
    fill-opacity: 0.5;
    stroke-width: 4;
}

circle.hidden_outline {
    stroke-width: 0px;
}


line.link {
  stroke: #999;
  stroke-opacity: 0.8;
  stroke-width: 2;
}

line.basepair {
  stroke: red;
}

line.intermolecule {
  stroke: blue;
}

line.chain_chain {
  stroke-dasharray: 3,3;
}

line.fake {
  stroke: green;
}

.transparent {
    fill: transparent;
    stroke-width: 0;
    stroke-opacity: 0;
    opacity: 0;
    visibility: hidden;
}

.drag_line {
  stroke: #999;
  stroke-width: 2;
  pointer-events: none;
}

.drag_line_hidden {
  stroke: #999;
  stroke-width: 0;
  pointer-events: none;
}

.d3-tip {
    line-height: 1;
    font-weight: bold;
    padding: 6px;
    background: rgba(0, 0, 0, 0.6);
    color: #fff;
    border-radius: 4px;
    pointer-events: none;
          }

text.node-label {
    font-weight: bold;
    font-family: Tahoma, Geneva, sans-serif;
    color: rgb(100,100,100);
    pointer-events: none;
}

text {
    pointer-events: none;
}

g.gnode {

}

circle.outline_node.selected {
    visibility: visible;
}

circle.outline_node {
    visibility: hidden;
}

.brush .extent {
  fill-opacity: .1;
  stroke: #fff;
  shape-rendering: crispEdges;
}

.noselect {
    -webkit-touch-callout: none;
    -webkit-user-select: none;
    -khtml-user-select: none;
    -moz-user-select: none;
    -ms-user-select: none;
    user-select: none;
}

svg {
  display: block;
  min-width: 100%;
  width: 100%;
  min-height: 100%;
}

circle.node {
  stroke: #ccc;
  stroke-width: 1px;
  opacity: 1;
  fill: white;
}

circle.node.label {
    stroke: transparent;
    stroke-width: 0;
    fill: white;
}

circle.outline_node {
    stroke-width: 1px;
    fill: red;
}

circle.protein {
    fill: gray;
    fill-opacity: 0.5;
    stroke-width: 4;
}

circle.hidden_outline {
    stroke-width: 0px;
}


line.link {
  stroke: #999;
  stroke-opacity: 0.8;
  stroke-width: 2;
}

line.basepair {
  stroke: red;
}

line.intermolecule {
  stroke: blue;
}

line.chain_chain {
  stroke-dasharray: 3,3;
}

line.fake {
  stroke: green;
}

.transparent {
    fill: transparent;
    stroke-width: 0;
    stroke-opacity: 0;
    opacity: 0;
    visibility: hidden;
}

.drag_line {
  stroke: #999;
  stroke-width: 2;
  pointer-events: none;
}

.drag_line_hidden {
  stroke: #999;
  stroke-width: 0;
  pointer-events: none;
}

.d3-tip {
    line-height: 1;
    font-weight: bold;
    padding: 6px;
    background: rgba(0, 0, 0, 0.6);
    color: #fff;
    border-radius: 4px;
    pointer-events: none;
          }

text.node-label {
    font-weight: bold;
    font-family: Tahoma, Geneva, sans-serif;
    color: rgb(100,100,100);
    pointer-events: none;
}

text {
    pointer-events: none;
}

g.gnode {

}

circle.outline_node.selected {
    visibility: visible;
}

circle.outline_node {
    visibility: hidden;
}

.brush .extent {
  fill-opacity: .1;
  stroke: #fff;
  shape-rendering: crispEdges;
}

.noselect {
    -webkit-touch-callout: none;
    -webkit-user-select: none;
    -khtml-user-select: none;
    -moz-user-select: none;
    -ms-user-select: none;
    user-select: none;
}
/*# sourceURL=/Users/yumanakamura/ipy_sandbox/sandbox/claude_sandbox/mrna-transformer-worktrees/feat-issue57-switch-derna-knotty/scripts/eval/prerender/forna_vendor/fornac.css*/</style><style></style><g><g class="brush" style="pointer-events: all; -webkit-tap-highlight-color: rgba(0, 0, 0, 0);"><rect class="background" x="0" width="760" y="0" height="640" style="visibility: hidden; cursor: auto;"></rect><rect class="extent" x="0" width="0" y="0" height="0" style="cursor: move;"></rect><g class="resize n" transform="translate(0,0)" style="cursor: ns-resize; display: none;"><rect y="-3" width="0" height="6" style="visibility: hidden;"></rect></g><g class="resize e" transform="translate(0,0)" style="cursor: ew-resize; display: none;"><rect x="-3" width="6" height="0" style="visibility: hidden;"></rect></g><g class="resize s" transform="translate(0,0)" style="cursor: ns-resize; display: none;"><rect y="-3" width="0" height="6" style="visibility: hidden;"></rect></g><g class="resize w" transform="translate(0,0)" style="cursor: ew-resize; display: none;"><rect x="-3" width="6" height="0" style="visibility: hidden;"></rect></g><g class="resize nw" transform="translate(0,0)" style="cursor: nwse-resize; display: none;"><rect x="-3" y="-3" width="6" height="6" style="visibility: hidden;"></rect></g><g class="resize ne" transform="translate(0,0)" style="cursor: nesw-resize; display: none;"><rect x="-3" y="-3" width="6" height="6" style="visibility: hidden;"></rect></g><g class="resize se" transform="translate(0,0)" style="cursor: nwse-resize; display: none;"><rect x="-3" y="-3" width="6" height="6" style="visibility: hidden;"></rect></g><g class="resize sw" transform="translate(0,0)" style="cursor: nesw-resize; display: none;"><rect x="-3" y="-3" width="6" height="6" style="visibility: hidden;"></rect></g></g><g transform="translate(77.21,172.58) scale(2.42)"><g><line class="link basepair" x1="68.81" y1="123.93" x2="67.30" y2="109.27"></line><line class="link basepair" x1="54.86" y1="127.64" x2="49.80" y2="114.21"></line><line class="link backbone" x1="68.81" y1="123.93" x2="54.86" y2="127.64"></line><line class="link basepair" x1="40.83" y1="134.20" x2="34.21" y2="121.34"></line><line class="link backbone" x1="54.86" y1="127.64" x2="40.83" y2="134.20"></line><line class="link basepair" x1="27.15" y1="141.95" x2="19.74" y2="129.37"></line><line class="link backbone" x1="40.83" y1="134.20" x2="27.15" y2="141.95"></line><line class="link basepair" x1="13.95" y1="150.22" x2="6.04" y2="137.48"></line><line class="link backbone" x1="27.15" y1="141.95" x2="13.95" y2="150.22"></line><line class="link backbone" x1="13.95" y1="150.22" x2="3.93" y2="162.30"></line><line class="link backbone" x1="3.93" y1="162.30" x2="-10.19" y2="156.48"></line><line class="link backbone" x1="-10.19" y1="156.48" x2="-9.26" y2="141.25"></line><line class="link basepair" x1="6.04" y1="137.48" x2="13.95" y2="150.22"></line><line class="link backbone" x1="-9.26" y1="141.25" x2="6.04" y2="137.48"></line><line class="link basepair" x1="19.74" y1="129.37" x2="27.15" y2="141.95"></line><line class="link backbone" x1="6.04" y1="137.48" x2="19.74" y2="129.37"></line><line class="link basepair" x1="34.21" y1="121.34" x2="40.83" y2="134.20"></line><line class="link backbone" x1="19.74" y1="129.37" x2="34.21" y2="121.34"></line><line class="link basepair" x1="49.80" y1="114.21" x2="54.86" y2="127.64"></line><line class="link backbone" x1="34.21" y1="121.34" x2="49.80" y2="114.21"></line><line class="link basepair" x1="67.30" y1="109.27" x2="68.81" y2="123.93"></line><line class="link backbone" x1="49.80" y1="114.21" x2="67.30" y2="109.27"></line><line class="link basepair" x1="81.21" y1="98.14" x2="95.12" y2="103.03"></line><line class="link backbone" x1="67.30" y1="109.27" x2="81.21" y2="98.14"></line><line class="link basepair" x1="89.53" y1="82.38" x2="101.74" y2="89.98"></line><line class="link backbone" x1="81.21" y1="98.14" x2="89.53" y2="82.38"></line><line class="link basepair" x1="99.42" y1="68.49" x2="110.85" y2="77.33"></line><line class="link backbone" x1="89.53" y1="82.38" x2="99.42" y2="68.49"></line><line class="link basepair" x1="109.97" y1="55.66" x2="120.96" y2="64.97"></line><line class="link backbone" x1="99.42" y1="68.49" x2="109.97" y2="55.66"></line><line class="link basepair" x1="120.69" y1="43.26" x2="131.61" y2="52.67"></line><line class="link backbone" x1="109.97" y1="55.66" x2="120.69" y2="43.26"></line><line class="link basepair" x1="130.80" y1="31.01" x2="142.36" y2="40.35"></line><line class="link backbone" x1="120.69" y1="43.26" x2="130.80" y2="31.01"></line><line class="link backbone" x1="130.80" y1="31.01" x2="126.87" y2="16.36"></line><line class="link backbone" x1="126.87" y1="16.36" x2="131.02" y2="2.19"></line><line class="link backbone" x1="131.02" y1="2.19" x2="143.29" y2="-6.66"></line><line class="link backbone" x1="143.29" y1="-6.66" x2="158.10" y2="-5.98"></line><line class="link basepair" x1="170.57" y1="2.50" x2="175.84" y2="16.40"></line><line class="link backbone" x1="158.10" y1="-5.98" x2="170.57" y2="2.50"></line><line class="link basepair" x1="185.05" y1="-3.36" x2="190.97" y2="9.86"></line><line class="link backbone" x1="170.57" y1="2.50" x2="185.05" y2="-3.36"></line><line class="link basepair" x1="199.24" y1="-10.20" x2="205.81" y2="2.80"></line><line class="link backbone" x1="185.05" y1="-3.36" x2="199.24" y2="-10.20"></line><line class="link basepair" x1="212.88" y1="-17.67" x2="220.11" y2="-4.54"></line><line class="link backbone" x1="199.24" y1="-10.20" x2="212.88" y2="-17.67"></line><line class="link backbone" x1="212.88" y1="-17.67" x2="218.76" y2="-32.01"></line><line class="link backbone" x1="218.76" y1="-32.01" x2="233.29" y2="-36.28"></line><line class="link backbone" x1="233.29" y1="-36.28" x2="245.79" y2="-27.55"></line><line class="link backbone" x1="245.79" y1="-27.55" x2="246.72" y2="-12.33"></line><line class="link backbone" x1="246.72" y1="-12.33" x2="235.51" y2="-2.15"></line><line class="link basepair" x1="220.11" y1="-4.54" x2="212.88" y2="-17.67"></line><line class="link backbone" x1="235.51" y1="-2.15" x2="220.11" y2="-4.54"></line><line class="link basepair" x1="205.81" y1="2.80" x2="199.24" y2="-10.20"></line><line class="link backbone" x1="220.11" y1="-4.54" x2="205.81" y2="2.80"></line><line class="link basepair" x1="190.97" y1="9.86" x2="185.05" y2="-3.36"></line><line class="link backbone" x1="205.81" y1="2.80" x2="190.97" y2="9.86"></line><line class="link basepair" x1="175.84" y1="16.40" x2="170.57" y2="2.50"></line><line class="link backbone" x1="190.97" y1="9.86" x2="175.84" y2="16.40"></line><line class="link backbone" x1="175.84" y1="16.40" x2="170.19" y2="31.09"></line><line class="link backbone" x1="170.19" y1="31.09" x2="158.11" y2="39.70"></line><line class="link basepair" x1="142.36" y1="40.35" x2="130.80" y2="31.01"></line><line class="link backbone" x1="158.11" y1="39.70" x2="142.36" y2="40.35"></line><line class="link basepair" x1="131.61" y1="52.67" x2="120.69" y2="43.26"></line><line class="link backbone" x1="142.36" y1="40.35" x2="131.61" y2="52.67"></line><line class="link basepair" x1="120.96" y1="64.97" x2="109.97" y2="55.66"></line><line class="link backbone" x1="131.61" y1="52.67" x2="120.96" y2="64.97"></line><line class="link basepair" x1="110.85" y1="77.33" x2="99.42" y2="68.49"></line><line class="link backbone" x1="120.96" y1="64.97" x2="110.85" y2="77.33"></line><line class="link basepair" x1="101.74" y1="89.98" x2="89.53" y2="82.38"></line><line class="link backbone" x1="110.85" y1="77.33" x2="101.74" y2="89.98"></line><line class="link basepair" x1="95.12" y1="103.03" x2="81.21" y2="98.14"></line><line class="link backbone" x1="101.74" y1="89.98" x2="95.12" y2="103.03"></line><line class="link backbone" x1="95.12" y1="103.03" x2="101.87" y2="116.00"></line><line class="link label_link" x1="19.74" y1="129.37" x2="8.14" y2="119.00"></line><line class="link label_link" x1="126.87" y1="16.36" x2="113.75" y2="8.05"></line><line class="link label_link" x1="245.79" y1="-27.55" x2="257.55" y2="-37.59"></line><line class="link label_link" x1="131.61" y1="52.67" x2="143.07" y2="63.21"></line><line class="link fake transparent" x1="170.57" y1="2.50" x2="180.59" y2="6.56"></line><line class="link fake transparent" x1="170.57" y1="2.50" x2="190.97" y2="9.86"></line><line class="link fake transparent" x1="185.05" y1="-3.36" x2="180.59" y2="6.56"></line><line class="link fake transparent" x1="190.97" y1="9.86" x2="180.59" y2="6.56"></line><line class="link fake transparent" x1="175.84" y1="16.40" x2="180.59" y2="6.56"></line><line class="link fake transparent" x1="185.05" y1="-3.36" x2="195.36" y2="-0.06"></line><line class="link fake transparent" x1="199.24" y1="-10.20" x2="195.36" y2="-0.06"></line><line class="link fake transparent" x1="205.81" y1="2.80" x2="195.36" y2="-0.06"></line><line class="link fake transparent" x1="190.97" y1="9.86" x2="195.36" y2="-0.06"></line><line class="link fake transparent" x1="199.24" y1="-10.20" x2="209.67" y2="-7.34"></line><line class="link fake transparent" x1="212.88" y1="-17.67" x2="209.67" y2="-7.34"></line><line class="link fake transparent" x1="220.11" y1="-4.54" x2="209.67" y2="-7.34"></line><line class="link fake transparent" x1="205.81" y1="2.80" x2="209.67" y2="-7.34"></line><line class="link fake transparent" x1="68.81" y1="123.93" x2="59.93" y2="117.94"></line><line class="link fake transparent" x1="54.86" y1="127.64" x2="59.93" y2="117.94"></line><line class="link fake transparent" x1="49.80" y1="114.21" x2="59.93" y2="117.94"></line><line class="link fake transparent" x1="67.30" y1="109.27" x2="59.93" y2="117.94"></line><line class="link fake transparent" x1="54.86" y1="127.64" x2="44.72" y2="123.99"></line><line class="link fake transparent" x1="40.83" y1="134.20" x2="44.72" y2="123.99"></line><line class="link fake transparent" x1="34.21" y1="121.34" x2="44.72" y2="123.99"></line><line class="link fake transparent" x1="49.80" y1="114.21" x2="44.72" y2="123.99"></line><line class="link fake transparent" x1="40.83" y1="134.20" x2="30.35" y2="131.56"></line><line class="link fake transparent" x1="27.15" y1="141.95" x2="30.35" y2="131.56"></line><line class="link fake transparent" x1="19.74" y1="129.37" x2="30.35" y2="131.56"></line><line class="link fake transparent" x1="34.21" y1="121.34" x2="30.35" y2="131.56"></line><line class="link fake transparent" x1="27.15" y1="141.95" x2="16.60" y2="139.74"></line><line class="link fake transparent" x1="13.95" y1="150.22" x2="16.60" y2="139.74"></line><line class="link fake transparent" x1="6.04" y1="137.48" x2="16.60" y2="139.74"></line><line class="link fake transparent" x1="19.74" y1="129.37" x2="16.60" y2="139.74"></line><line class="link fake transparent" x1="81.21" y1="98.14" x2="91.29" y2="92.95"></line><line class="link fake transparent" x1="89.53" y1="82.38" x2="91.29" y2="92.95"></line><line class="link fake transparent" x1="101.74" y1="89.98" x2="91.29" y2="92.95"></line><line class="link fake transparent" x1="95.12" y1="103.03" x2="91.29" y2="92.95"></line><line class="link fake transparent" x1="89.53" y1="82.38" x2="100.09" y2="79.31"></line><line class="link fake transparent" x1="99.42" y1="68.49" x2="100.09" y2="79.31"></line><line class="link fake transparent" x1="110.85" y1="77.33" x2="100.09" y2="79.31"></line><line class="link fake transparent" x1="101.74" y1="89.98" x2="100.09" y2="79.31"></line><line class="link fake transparent" x1="99.42" y1="68.49" x2="110.12" y2="66.52"></line><line class="link fake transparent" x1="109.97" y1="55.66" x2="110.12" y2="66.52"></line><line class="link fake transparent" x1="120.96" y1="64.97" x2="110.12" y2="66.52"></line><line class="link fake transparent" x1="110.85" y1="77.33" x2="110.12" y2="66.52"></line><line class="link fake transparent" x1="109.97" y1="55.66" x2="120.76" y2="54.11"></line><line class="link fake transparent" x1="120.69" y1="43.26" x2="120.76" y2="54.11"></line><line class="link fake transparent" x1="131.61" y1="52.67" x2="120.76" y2="54.11"></line><line class="link fake transparent" x1="120.96" y1="64.97" x2="120.76" y2="54.11"></line><line class="link fake transparent" x1="120.69" y1="43.26" x2="131.47" y2="41.80"></line><line class="link fake transparent" x1="130.80" y1="31.01" x2="131.47" y2="41.80"></line><line class="link fake transparent" x1="142.36" y1="40.35" x2="131.47" y2="41.80"></line><line class="link fake transparent" x1="131.61" y1="52.67" x2="131.47" y2="41.80"></line><line class="link fake transparent" x1="68.81" y1="123.93" x2="83.68" y2="115.40"></line><line class="link fake transparent" x1="68.81" y1="123.93" x2="95.12" y2="103.03"></line><line class="link fake transparent" x1="67.30" y1="109.27" x2="83.68" y2="115.40"></line><line class="link fake transparent" x1="67.30" y1="109.27" x2="101.87" y2="116.00"></line><line class="link fake transparent" x1="81.21" y1="98.14" x2="83.68" y2="115.40"></line><line class="link fake transparent" x1="81.21" y1="98.14" x2="97.59" y2="129.64"></line><line class="link fake transparent" x1="95.12" y1="103.03" x2="83.68" y2="115.40"></line><line class="link fake transparent" x1="95.12" y1="103.03" x2="88.35" y2="138.26"></line><line class="link fake transparent" x1="101.87" y1="116.00" x2="83.68" y2="115.40"></line><line class="link fake transparent" x1="101.87" y1="116.00" x2="68.81" y2="123.93"></line><line class="link fake transparent" x1="212.88" y1="-17.67" x2="230.39" y2="-18.88"></line><line class="link fake transparent" x1="212.88" y1="-17.67" x2="245.79" y2="-27.55"></line><line class="link fake transparent" x1="218.76" y1="-32.01" x2="230.39" y2="-18.88"></line><line class="link fake transparent" x1="218.76" y1="-32.01" x2="246.72" y2="-12.33"></line><line class="link fake transparent" x1="233.29" y1="-36.28" x2="230.39" y2="-18.88"></line><line class="link fake transparent" x1="233.29" y1="-36.28" x2="235.51" y2="-2.15"></line><line class="link fake transparent" x1="245.79" y1="-27.55" x2="230.39" y2="-18.88"></line><line class="link fake transparent" x1="245.79" y1="-27.55" x2="220.11" y2="-4.54"></line><line class="link fake transparent" x1="246.72" y1="-12.33" x2="230.39" y2="-18.88"></line><line class="link fake transparent" x1="246.72" y1="-12.33" x2="212.88" y2="-17.67"></line><line class="link fake transparent" x1="235.51" y1="-2.15" x2="230.39" y2="-18.88"></line><line class="link fake transparent" x1="235.51" y1="-2.15" x2="218.76" y2="-32.01"></line><line class="link fake transparent" x1="220.11" y1="-4.54" x2="230.39" y2="-18.88"></line><line class="link fake transparent" x1="220.11" y1="-4.54" x2="233.29" y2="-36.28"></line><line class="link fake transparent" x1="13.95" y1="150.22" x2="0.91" y2="149.52"></line><line class="link fake transparent" x1="13.95" y1="150.22" x2="-10.19" y2="156.48"></line><line class="link fake transparent" x1="3.93" y1="162.30" x2="0.91" y2="149.52"></line><line class="link fake transparent" x1="3.93" y1="162.30" x2="-9.26" y2="141.25"></line><line class="link fake transparent" x1="-10.19" y1="156.48" x2="0.91" y2="149.52"></line><line class="link fake transparent" x1="-10.19" y1="156.48" x2="6.04" y2="137.48"></line><line class="link fake transparent" x1="-9.26" y1="141.25" x2="0.91" y2="149.52"></line><line class="link fake transparent" x1="-9.26" y1="141.25" x2="13.95" y2="150.22"></line><line class="link fake transparent" x1="6.04" y1="137.48" x2="0.91" y2="149.52"></line><line class="link fake transparent" x1="6.04" y1="137.48" x2="3.93" y2="162.30"></line><line class="link fake transparent" x1="130.80" y1="31.01" x2="150.86" y2="16.94"></line><line class="link fake transparent" x1="130.80" y1="31.01" x2="170.57" y2="2.50"></line><line class="link fake transparent" x1="126.87" y1="16.36" x2="150.86" y2="16.94"></line><line class="link fake transparent" x1="126.87" y1="16.36" x2="175.84" y2="16.40"></line><line class="link fake transparent" x1="131.02" y1="2.19" x2="150.86" y2="16.94"></line><line class="link fake transparent" x1="131.02" y1="2.19" x2="170.19" y2="31.09"></line><line class="link fake transparent" x1="143.29" y1="-6.66" x2="150.86" y2="16.94"></line><line class="link fake transparent" x1="143.29" y1="-6.66" x2="158.11" y2="39.70"></line><line class="link fake transparent" x1="158.10" y1="-5.98" x2="150.86" y2="16.94"></line><line class="link fake transparent" x1="158.10" y1="-5.98" x2="142.36" y2="40.35"></line><line class="link fake transparent" x1="170.57" y1="2.50" x2="150.86" y2="16.94"></line><line class="link fake transparent" x1="170.57" y1="2.50" x2="130.80" y2="31.01"></line><line class="link fake transparent" x1="175.84" y1="16.40" x2="150.86" y2="16.94"></line><line class="link fake transparent" x1="175.84" y1="16.40" x2="126.87" y2="16.36"></line><line class="link fake transparent" x1="170.19" y1="31.09" x2="150.86" y2="16.94"></line><line class="link fake transparent" x1="170.19" y1="31.09" x2="131.02" y2="2.19"></line><line class="link fake transparent" x1="158.11" y1="39.70" x2="150.86" y2="16.94"></line><line class="link fake transparent" x1="158.11" y1="39.70" x2="143.29" y2="-6.66"></line><line class="link fake transparent" x1="142.36" y1="40.35" x2="150.86" y2="16.94"></line><line class="link fake transparent" x1="142.36" y1="40.35" x2="158.10" y2="-5.98"></line></g><g><g class="noselect gnode" struct_name="m" transform="translate(68.81,123.93)" r="6.5"><circle class="node" r="6" node_type="nucleotide" style="fill: lightgreen;"></circle><text text-anchor="middle" font-size="8" font-weight="bold" y="2.5" class="node-label">G</text></g><g class="noselect gnode" struct_name="m" transform="translate(54.86,127.64)" r="6.5"><circle class="node" r="6" node_type="nucleotide" style="fill: lightgreen;"></circle><text text-anchor="middle" font-size="8" font-weight="bold" y="2.5" class="node-label">G</text></g><g class="noselect gnode" struct_name="m" transform="translate(40.83,134.20)" r="6.5"><circle class="node" r="6" node_type="nucleotide" style="fill: lightgreen;"></circle><text text-anchor="middle" font-size="8" font-weight="bold" y="2.5" class="node-label">G</text></g><g class="noselect gnode" struct_name="m" transform="translate(27.15,141.95)" r="6.5"><circle class="node" r="6" node_type="nucleotide" style="fill: lightgreen;"></circle><text text-anchor="middle" font-size="8" font-weight="bold" y="2.5" class="node-label">U</text></g><g class="noselect gnode" struct_name="m" transform="translate(13.95,150.22)" r="6.5"><circle class="node" r="6" node_type="nucleotide" style="fill: lightgreen;"></circle><text text-anchor="middle" font-size="8" font-weight="bold" y="2.5" class="node-label">A</text></g><g class="noselect gnode" struct_name="m" transform="translate(3.93,162.30)" r="6.5"><circle class="node" r="6" node_type="nucleotide" style="fill: lightblue;"></circle><text text-anchor="middle" font-size="8" font-weight="bold" y="2.5" class="node-label">U</text></g><g class="noselect gnode" struct_name="m" transform="translate(-10.19,156.48)" r="6.5"><circle class="node" r="6" node_type="nucleotide" style="fill: lightblue;"></circle><text text-anchor="middle" font-size="8" font-weight="bold" y="2.5" class="node-label">U</text></g><g class="noselect gnode" struct_name="m" transform="translate(-9.26,141.25)" r="6.5"><circle class="node" r="6" node_type="nucleotide" style="fill: lightblue;"></circle><text text-anchor="middle" font-size="8" font-weight="bold" y="2.5" class="node-label">C</text></g><g class="noselect gnode" struct_name="m" transform="translate(6.04,137.48)" r="6.5"><circle class="node" r="6" node_type="nucleotide" style="fill: lightgreen;"></circle><text text-anchor="middle" font-size="8" font-weight="bold" y="2.5" class="node-label">U</text></g><g class="noselect gnode" struct_name="m" transform="translate(19.74,129.37)" r="6.5"><circle class="node" r="6" node_type="nucleotide" style="fill: lightgreen;"></circle><text text-anchor="middle" font-size="8" font-weight="bold" y="2.5" class="node-label">A</text></g><g class="noselect gnode" struct_name="m" transform="translate(34.21,121.34)" r="6.5"><circle class="node" r="6" node_type="nucleotide" style="fill: lightgreen;"></circle><text text-anchor="middle" font-size="8" font-weight="bold" y="2.5" class="node-label">C</text></g><g class="noselect gnode" struct_name="m" transform="translate(49.80,114.21)" r="6.5"><circle class="node" r="6" node_type="nucleotide" style="fill: lightgreen;"></circle><text text-anchor="middle" font-size="8" font-weight="bold" y="2.5" class="node-label">C</text></g><g class="noselect gnode" struct_name="m" transform="translate(67.30,109.27)" r="6.5"><circle class="node" r="6" node_type="nucleotide" style="fill: lightgreen;"></circle><text text-anchor="middle" font-size="8" font-weight="bold" y="2.5" class="node-label">C</text></g><g class="noselect gnode" struct_name="m" transform="translate(81.21,98.14)" r="6.5"><circle class="node" r="6" node_type="nucleotide" style="fill: lightgreen;"></circle><text text-anchor="middle" font-size="8" font-weight="bold" y="2.5" class="node-label">U</text></g><g class="noselect gnode" struct_name="m" transform="translate(89.53,82.38)" r="6.5"><circle class="node" r="6" node_type="nucleotide" style="fill: lightgreen;"></circle><text text-anchor="middle" font-size="8" font-weight="bold" y="2.5" class="node-label">A</text></g><g class="noselect gnode" struct_name="m" transform="translate(99.42,68.49)" r="6.5"><circle class="node" r="6" node_type="nucleotide" style="fill: lightgreen;"></circle><text text-anchor="middle" font-size="8" font-weight="bold" y="2.5" class="node-label">C</text></g><g class="noselect gnode" struct_name="m" transform="translate(109.97,55.66)" r="6.5"><circle class="node" r="6" node_type="nucleotide" style="fill: lightgreen;"></circle><text text-anchor="middle" font-size="8" font-weight="bold" y="2.5" class="node-label">C</text></g><g class="noselect gnode" struct_name="m" transform="translate(120.69,43.26)" r="6.5"><circle class="node" r="6" node_type="nucleotide" style="fill: lightgreen;"></circle><text text-anchor="middle" font-size="8" font-weight="bold" y="2.5" class="node-label">A</text></g><g class="noselect gnode" struct_name="m" transform="translate(130.80,31.01)" r="6.5"><circle class="node" r="6" node_type="nucleotide" style="fill: lightgreen;"></circle><text text-anchor="middle" font-size="8" font-weight="bold" y="2.5" class="node-label">C</text></g><g class="noselect gnode" struct_name="m" transform="translate(126.87,16.36)" r="6.5"><circle class="node" r="6" node_type="nucleotide" style="fill: rgb(219, 219, 141);"></circle><text text-anchor="middle" font-size="8" font-weight="bold" y="2.5" class="node-label">G</text></g><g class="noselect gnode" struct_name="m" transform="translate(131.02,2.19)" r="6.5"><circle class="node" r="6" node_type="nucleotide" style="fill: rgb(219, 219, 141);"></circle><text text-anchor="middle" font-size="8" font-weight="bold" y="2.5" class="node-label">U</text></g><g class="noselect gnode" struct_name="m" transform="translate(143.29,-6.66)" r="6.5"><circle class="node" r="6" node_type="nucleotide" style="fill: rgb(219, 219, 141);"></circle><text text-anchor="middle" font-size="8" font-weight="bold" y="2.5" class="node-label">A</text></g><g class="noselect gnode" struct_name="m" transform="translate(158.10,-5.98)" r="6.5"><circle class="node" r="6" node_type="nucleotide" style="fill: rgb(219, 219, 141);"></circle><text text-anchor="middle" font-size="8" font-weight="bold" y="2.5" class="node-label">A</text></g><g class="noselect gnode" struct_name="m" transform="translate(170.57,2.50)" r="6.5"><circle class="node" r="6" node_type="nucleotide" style="fill: lightgreen;"></circle><text text-anchor="middle" font-size="8" font-weight="bold" y="2.5" class="node-label">G</text></g><g class="noselect gnode" struct_name="m" transform="translate(185.05,-3.36)" r="6.5"><circle class="node" r="6" node_type="nucleotide" style="fill: lightgreen;"></circle><text text-anchor="middle" font-size="8" font-weight="bold" y="2.5" class="node-label">C</text></g><g class="noselect gnode" struct_name="m" transform="translate(199.24,-10.20)" r="6.5"><circle class="node" r="6" node_type="nucleotide" style="fill: lightgreen;"></circle><text text-anchor="middle" font-size="8" font-weight="bold" y="2.5" class="node-label">A</text></g><g class="noselect gnode" struct_name="m" transform="translate(212.88,-17.67)" r="6.5"><circle class="node" r="6" node_type="nucleotide" style="fill: lightgreen;"></circle><text text-anchor="middle" font-size="8" font-weight="bold" y="2.5" class="node-label">C</text></g><g class="noselect gnode" struct_name="m" transform="translate(218.76,-32.01)" r="6.5"><circle class="node" r="6" node_type="nucleotide" style="fill: lightblue;"></circle><text text-anchor="middle" font-size="8" font-weight="bold" y="2.5" class="node-label">G</text></g><g class="noselect gnode" struct_name="m" transform="translate(233.29,-36.28)" r="6.5"><circle class="node" r="6" node_type="nucleotide" style="fill: lightblue;"></circle><text text-anchor="middle" font-size="8" font-weight="bold" y="2.5" class="node-label">A</text></g><g class="noselect gnode" struct_name="m" transform="translate(245.79,-27.55)" r="6.5"><circle class="node" r="6" node_type="nucleotide" style="fill: lightblue;"></circle><text text-anchor="middle" font-size="8" font-weight="bold" y="2.5" class="node-label">U</text></g><g class="noselect gnode" struct_name="m" transform="translate(246.72,-12.33)" r="6.5"><circle class="node" r="6" node_type="nucleotide" style="fill: lightblue;"></circle><text text-anchor="middle" font-size="8" font-weight="bold" y="2.5" class="node-label">A</text></g><g class="noselect gnode" struct_name="m" transform="translate(235.51,-2.15)" r="6.5"><circle class="node" r="6" node_type="nucleotide" style="fill: lightblue;"></circle><text text-anchor="middle" font-size="8" font-weight="bold" y="2.5" class="node-label">A</text></g><g class="noselect gnode" struct_name="m" transform="translate(220.11,-4.54)" r="6.5"><circle class="node" r="6" node_type="nucleotide" style="fill: lightgreen;"></circle><text text-anchor="middle" font-size="8" font-weight="bold" y="2.5" class="node-label">G</text></g><g class="noselect gnode" struct_name="m" transform="translate(205.81,2.80)" r="6.5"><circle class="node" r="6" node_type="nucleotide" style="fill: lightgreen;"></circle><text text-anchor="middle" font-size="8" font-weight="bold" y="2.5" class="node-label">U</text></g><g class="noselect gnode" struct_name="m" transform="translate(190.97,9.86)" r="6.5"><circle class="node" r="6" node_type="nucleotide" style="fill: lightgreen;"></circle><text text-anchor="middle" font-size="8" font-weight="bold" y="2.5" class="node-label">G</text></g><g class="noselect gnode" struct_name="m" transform="translate(175.84,16.40)" r="6.5"><circle class="node" r="6" node_type="nucleotide" style="fill: lightgreen;"></circle><text text-anchor="middle" font-size="8" font-weight="bold" y="2.5" class="node-label">C</text></g><g class="noselect gnode" struct_name="m" transform="translate(170.19,31.09)" r="6.5"><circle class="node" r="6" node_type="nucleotide" style="fill: rgb(219, 219, 141);"></circle><text text-anchor="middle" font-size="8" font-weight="bold" y="2.5" class="node-label">A</text></g><g class="noselect gnode" struct_name="m" transform="translate(158.11,39.70)" r="6.5"><circle class="node" r="6" node_type="nucleotide" style="fill: rgb(219, 219, 141);"></circle><text text-anchor="middle" font-size="8" font-weight="bold" y="2.5" class="node-label">A</text></g><g class="noselect gnode" struct_name="m" transform="translate(142.36,40.35)" r="6.5"><circle class="node" r="6" node_type="nucleotide" style="fill: lightgreen;"></circle><text text-anchor="middle" font-size="8" font-weight="bold" y="2.5" class="node-label">G</text></g><g class="noselect gnode" struct_name="m" transform="translate(131.61,52.67)" r="6.5"><circle class="node" r="6" node_type="nucleotide" style="fill: lightgreen;"></circle><text text-anchor="middle" font-size="8" font-weight="bold" y="2.5" class="node-label">U</text></g><g class="noselect gnode" struct_name="m" transform="translate(120.96,64.97)" r="6.5"><circle class="node" r="6" node_type="nucleotide" style="fill: lightgreen;"></circle><text text-anchor="middle" font-size="8" font-weight="bold" y="2.5" class="node-label">G</text></g><g class="noselect gnode" struct_name="m" transform="translate(110.85,77.33)" r="6.5"><circle class="node" r="6" node_type="nucleotide" style="fill: lightgreen;"></circle><text text-anchor="middle" font-size="8" font-weight="bold" y="2.5" class="node-label">G</text></g><g class="noselect gnode" struct_name="m" transform="translate(101.74,89.98)" r="6.5"><circle class="node" r="6" node_type="nucleotide" style="fill: lightgreen;"></circle><text text-anchor="middle" font-size="8" font-weight="bold" y="2.5" class="node-label">U</text></g><g class="noselect gnode" struct_name="m" transform="translate(95.12,103.03)" r="6.5"><circle class="node" r="6" node_type="nucleotide" style="fill: lightgreen;"></circle><text text-anchor="middle" font-size="8" font-weight="bold" y="2.5" class="node-label">A</text></g><g class="noselect gnode" struct_name="m" transform="translate(101.87,116.00)" r="6.5"><circle class="node" r="6" node_type="nucleotide" style="fill: lightsalmon;"></circle><text text-anchor="middle" font-size="8" font-weight="bold" y="2.5" class="node-label">U</text></g><g class="noselect gnode" struct_name="m" transform="translate(8.14,119.00)" r="6.5"><circle class="node label" r="6" node_type="label"></circle><text text-anchor="middle" font-size="8" font-weight="bold" y="2.5" class="node-label">10</text></g><g class="noselect gnode" struct_name="m" transform="translate(113.75,8.05)" r="6.5"><circle class="node label" r="6" node_type="label"></circle><text text-anchor="middle" font-size="8" font-weight="bold" y="2.5" class="node-label">20</text></g><g class="noselect gnode" struct_name="m" transform="translate(257.55,-37.59)" r="6.5"><circle class="node label" r="6" node_type="label"></circle><text text-anchor="middle" font-size="8" font-weight="bold" y="2.5" class="node-label">30</text></g><g class="noselect gnode" struct_name="m" transform="translate(143.07,63.21)" r="6.5"><circle class="node label" r="6" node_type="label"></circle><text text-anchor="middle" font-size="8" font-weight="bold" y="2.5" class="node-label">40</text></g><g class="noselect gnode" transform="translate(180.59,6.56)" r="6.5"><circle class="node" r="0" node_type="middle"></circle><text text-anchor="middle" font-size="8" font-weight="bold" y="2.5" class="node-label"></text></g><g class="noselect gnode" transform="translate(195.36,-0.06)" r="6.5"><circle class="node" r="0" node_type="middle"></circle><text text-anchor="middle" font-size="8" font-weight="bold" y="2.5" class="node-label"></text></g><g class="noselect gnode" transform="translate(209.67,-7.34)" r="6.5"><circle class="node" r="0" node_type="middle"></circle><text text-anchor="middle" font-size="8" font-weight="bold" y="2.5" class="node-label"></text></g><g class="noselect gnode" transform="translate(59.93,117.94)" r="6.5"><circle class="node" r="0" node_type="middle"></circle><text text-anchor="middle" font-size="8" font-weight="bold" y="2.5" class="node-label"></text></g><g class="noselect gnode" transform="translate(44.72,123.99)" r="6.5"><circle class="node" r="0" node_type="middle"></circle><text text-anchor="middle" font-size="8" font-weight="bold" y="2.5" class="node-label"></text></g><g class="noselect gnode" transform="translate(30.35,131.56)" r="6.5"><circle class="node" r="0" node_type="middle"></circle><text text-anchor="middle" font-size="8" font-weight="bold" y="2.5" class="node-label"></text></g><g class="noselect gnode" transform="translate(16.60,139.74)" r="6.5"><circle class="node" r="0" node_type="middle"></circle><text text-anchor="middle" font-size="8" font-weight="bold" y="2.5" class="node-label"></text></g><g class="noselect gnode" transform="translate(91.29,92.95)" r="6.5"><circle class="node" r="0" node_type="middle"></circle><text text-anchor="middle" font-size="8" font-weight="bold" y="2.5" class="node-label"></text></g><g class="noselect gnode" transform="translate(100.09,79.31)" r="6.5"><circle class="node" r="0" node_type="middle"></circle><text text-anchor="middle" font-size="8" font-weight="bold" y="2.5" class="node-label"></text></g><g class="noselect gnode" transform="translate(110.12,66.52)" r="6.5"><circle class="node" r="0" node_type="middle"></circle><text text-anchor="middle" font-size="8" font-weight="bold" y="2.5" class="node-label"></text></g><g class="noselect gnode" transform="translate(120.76,54.11)" r="6.5"><circle class="node" r="0" node_type="middle"></circle><text text-anchor="middle" font-size="8" font-weight="bold" y="2.5" class="node-label"></text></g><g class="noselect gnode" transform="translate(131.47,41.80)" r="6.5"><circle class="node" r="0" node_type="middle"></circle><text text-anchor="middle" font-size="8" font-weight="bold" y="2.5" class="node-label"></text></g><g class="noselect gnode" transform="translate(97.59,129.64)" r="6.5"><circle class="node" r="0" node_type="middle"></circle><text text-anchor="middle" font-size="8" font-weight="bold" y="2.5" class="node-label"></text></g><g class="noselect gnode" transform="translate(88.35,138.26)" r="6.5"><circle class="node" r="0" node_type="middle"></circle><text text-anchor="middle" font-size="8" font-weight="bold" y="2.5" class="node-label"></text></g><g class="noselect gnode" transform="translate(83.68,115.40)" r="6.5"><circle class="node" r="0" node_type="middle"></circle><text text-anchor="middle" font-size="8" font-weight="bold" y="2.5" class="node-label"></text></g><g class="noselect gnode" transform="translate(230.39,-18.88)" r="6.5"><circle class="node" r="0" node_type="middle"></circle><text text-anchor="middle" font-size="8" font-weight="bold" y="2.5" class="node-label"></text></g><g class="noselect gnode" transform="translate(0.91,149.52)" r="6.5"><circle class="node" r="0" node_type="middle"></circle><text text-anchor="middle" font-size="8" font-weight="bold" y="2.5" class="node-label"></text></g><g class="noselect gnode" transform="translate(150.86,16.94)" r="6.5"><circle class="node" r="0" node_type="middle"></circle><text text-anchor="middle" font-size="8" font-weight="bold" y="2.5" class="node-label"></text></g></g><line class="drag_line" x1="0" y1="0" x2="0" y2="0"></line></g></g></svg>