<svg xmlns="http://www.w3.org/2000/svg" viewBox="0 0 760 640" width="760" height="640"><style>svg {
  display: block;
  min-width: 100%;
  width: 100%;
  min-height: 100%;
}

circle.node {
  stroke: #ccc;
  stroke-width: 1px;
  opacity: 1;
  fill: white;
}

circle.node.label {
    stroke: transparent;
    stroke-width: 0;
    fill: white;
}

circle.outline_node {
    stroke-width: 1px;
    fill: red;
}

circle.protein {
    fill: gray;
    fill-opacity: 0.5;
    stroke-width: 4;
}

circle.hidden_outline {
    stroke-width: 0px;
}


line.link {
  stroke: #999;
  stroke-opacity: 0.8;
  stroke-width: 2;
}

line.basepair {
  stroke: red;
}

line.intermolecule {
  stroke: blue;
}

line.chain_chain {
  stroke-dasharray: 3,3;
}

line.fake {
  stroke: green;
}

.transparent {
    fill: transparent;
    stroke-width: 0;
    stroke-opacity: 0;
    opacity: 0;
    visibility: hidden;
}

.drag_line {
  stroke: #999;
  stroke-width: 2;
  pointer-events: none;
}

.drag_line_hidden {
  stroke: #999;
  stroke-width: 0;
  pointer-events: none;
}

.d3-tip {
    line-height: 1;
    font-weight: bold;
    padding: 6px;
    background: rgba(0, 0, 0, 0.6);
    color: #fff;
    border-radius: 4px;
    pointer-events: none;
          }

text.node-label {
    font-weight: bold;
    font-family: Tahoma, Geneva, sans-serif;
    color: rgb(100,100,100);
    pointer-events: none;
}

text {
    pointer-events: none;
}

g.gnode {

}

circle.outline_node.selected {
    visibility: visible;
}

circle.outline_node {
    visibility: hidden;
}

.brush .extent {
  fill-opacity: .1;
  stroke: #fff;
  shape-rendering: crispEdges;
}

.noselect {
    -webkit-touch-callout: none;
    -webkit-user-select: none;
    -khtml-user-select: none;
    -moz-user-select: none;
    -ms-user-select: none;
    user-select: none;
}

svg {
  display: block;
  min-width: 100%;
  width: 100%;
  min-height: 100%;
}

circle.node {
  stroke: #ccc;
  stroke-width: 1px;
  opacity: 1;
  fill: white;
}

circle.node.label {
    stroke: transparent;
    stroke-width: 0;
    fill: white;
}

circle.outline_node {
    stroke-width: 1px;
    fill: red;
}

circle.protein {
    fill: gray;
    fill-opacity: 0.5;
    stroke-width: 4;
}

circle.hidden_outline {
    stroke-width: 0px;
}


line.link {
  stroke: #999;
  stroke-opacity: 0.8;
  stroke-width: 2;
}

line.basepair {
  stroke: red;
}

line.intermolecule {
  stroke: blue;
}

line.chain_chain {
  stroke-dasharray: 3,3;
}

line.fake {
  stroke: green;
}

.transparent {
    fill: transparent;
    stroke-width: 0;
    stroke-opacity: 0;
    opacity: 0;
    visibility: hidden;
}

.drag_line {
  stroke: #999;
  stroke-width: 2;
  pointer-events: none;
}

.drag_line_hidden {
  stroke: #999;
  stroke-width: 0;
  pointer-events: none;
}

.d3-tip {
    line-height: 1;
    font-weight: bold;
    padding: 6px;
    background: rgba(0, 0, 0, 0.6);
    color: #fff;
    border-radius: 4px;
    pointer-events: none;
          }

text.node-label {
    font-weight: bold;
    font-family: Tahoma, Geneva, sans-serif;
    color: rgb(100,100,100);
    pointer-events: none;
}

text {
    pointer-events: none;
}

g.gnode {

}

circle.outline_node.selected {
    visibility: visible;
}

circle.outline_node {
    visibility: hidden;
}

.brush .extent {
  fill-opacity: .1;
  stroke: #fff;
  shape-rendering: crispEdges;
}

.noselect {
    -webkit-touch-callout: none;
    -webkit-user-select: none;
    -khtml-user-select: none;
    -moz-user-select: none;
    -ms-user-select: none;
    user-select: none;
}
/*# sourceURL=/Users/yumanakamura/ipy_sandbox/sandbox/claude_sandbox/mrna-transformer-worktrees/feat-issue57-switch-derna-knotty/scripts/eval/prerender/forna_vendor/fornac.css*/</style><style></style><g><g class="brush" style="pointer-events: all; -webkit-tap-highlight-color: rgba(0, 0, 0, 0);"><rect class="background" x="0" width="760" y="0" height="640" style="visibility: hidden; cursor: auto;"></rect><rect class="extent" x="0" width="0" y="0" height="0" style="cursor: move;"></rect><g class="resize n" transform="translate(0,0)" style="cursor: ns-resize; display: none;"><rect y="-3" width="0" height="6" style="visibility: hidden;"></rect></g><g class="resize e" transform="translate(0,0)" style="cursor: ew-resize; display: none;"><rect x="-3" width="6" height="0" style="visibility: hidden;"></rect></g><g class="resize s" transform="translate(0,0)" style="cursor: ns-resize; display: none;"><rect y="-3" width="0" height="6" style="visibility: hidden;"></rect></g><g class="resize w" transform="translate(0,0)" style="cursor: ew-resize; display: none;"><rect x="-3" width="6" height="0" style="visibility: hidden;"></rect></g><g class="resize nw" transform="translate(0,0)" style="cursor: nwse-resize; display: none;"><rect x="-3" y="-3" width="6" height="6" style="visibility: hidden;"></rect></g><g class="resize ne" transform="translate(0,0)" style="cursor: nesw-resize; display: none;"><rect x="-3" y="-3" width="6" height="6" style="visibility: hidden;"></rect></g><g class="resize se" transform="translate(0,0)" style="cursor: nwse-resize; display: none;"><rect x="-3" y="-3" width="6" height="6" style="visibility: hidden;"></rect></g><g class="resize sw" transform="translate(0,0)" style="cursor: nesw-resize; display: none;"><rect x="-3" y="-3" width="6" height="6" style="visibility: hidden;"></rect></g></g><g transform="translate(343.07,271.90) scale(1.55)"><g><line class="link backbone" x1="6.47" y1="202.18" x2="1.58" y2="187.91"></line><line class="link backbone" x1="1.58" y1="187.91" x2="5.93" y2="173.64"></line><line class="link basepair" x1="17.95" y1="164.14" x2="32.94" y2="163.84"></line><line class="link backbone" x1="5.93" y1="173.64" x2="17.95" y2="164.14"></line><line class="link basepair" x1="17.79" y1="148.43" x2="32.43" y2="148.12"></line><line class="link backbone" x1="17.95" y1="164.14" x2="17.79" y2="148.43"></line><line class="link basepair" x1="17.48" y1="132.45" x2="32.06" y2="132.16"></line><line class="link backbone" x1="17.79" y1="148.43" x2="17.48" y2="132.45"></line><line class="link basepair" x1="17.09" y1="116.49" x2="31.86" y2="116.23"></line><line class="link backbone" x1="17.48" y1="132.45" x2="17.09" y2="116.49"></line><line class="link backbone" x1="17.09" y1="116.49" x2="9.16" y2="103.34"></line><line class="link basepair" x1="16.61" y1="90.01" x2="31.41" y2="89.77"></line><line class="link backbone" x1="9.16" y1="103.34" x2="16.61" y2="90.01"></line><line class="link basepair" x1="16.50" y1="74.10" x2="31.12" y2="73.94"></line><line class="link backbone" x1="16.61" y1="90.01" x2="16.50" y2="74.10"></line><line class="link basepair" x1="16.40" y1="58.06" x2="30.98" y2="58.01"></line><line class="link backbone" x1="16.50" y1="74.10" x2="16.40" y2="58.06"></line><line class="link basepair" x1="16.43" y1="41.91" x2="30.99" y2="42.03"></line><line class="link backbone" x1="16.40" y1="58.06" x2="16.43" y2="41.91"></line><line class="link basepair" x1="16.66" y1="25.72" x2="31.24" y2="26.10"></line><line class="link backbone" x1="16.43" y1="41.91" x2="16.66" y2="25.72"></line><line class="link basepair" x1="17.29" y1="9.50" x2="31.90" y2="10.38"></line><line class="link backbone" x1="16.66" y1="25.72" x2="17.29" y2="9.50"></line><line class="link basepair" x1="18.63" y1="-6.78" x2="33.16" y2="-5.16"></line><line class="link backbone" x1="17.29" y1="9.50" x2="18.63" y2="-6.78"></line><line class="link basepair" x1="20.75" y1="-22.97" x2="35.48" y2="-20.21"></line><line class="link backbone" x1="18.63" y1="-6.78" x2="20.75" y2="-22.97"></line><line class="link backbone" x1="20.75" y1="-22.97" x2="13.76" y2="-36.92"></line><line class="link basepair" x1="20.24" y1="-51.31" x2="34.77" y2="-54.60"></line><line class="link backbone" x1="13.76" y1="-36.92" x2="20.24" y2="-51.31"></line><line class="link basepair" x1="17.50" y1="-67.67" x2="31.75" y2="-69.88"></line><line class="link backbone" x1="20.24" y1="-51.31" x2="17.50" y2="-67.67"></line><line class="link basepair" x1="15.28" y1="-83.96" x2="29.75" y2="-85.68"></line><line class="link backbone" x1="17.50" y1="-67.67" x2="15.28" y2="-83.96"></line><line class="link basepair" x1="13.51" y1="-99.97" x2="28.05" y2="-101.49"></line><line class="link backbone" x1="15.28" y1="-83.96" x2="13.51" y2="-99.97"></line><line class="link basepair" x1="11.72" y1="-115.60" x2="26.69" y2="-117.10"></line><line class="link backbone" x1="13.51" y1="-99.97" x2="11.72" y2="-115.60"></line><line class="link backbone" x1="11.72" y1="-115.60" x2="5.35" y2="-129.87"></line><line class="link backbone" x1="5.35" y1="-129.87" x2="16.82" y2="-140.00"></line><line class="link backbone" x1="16.82" y1="-140.00" x2="30.08" y2="-132.37"></line><line class="link basepair" x1="26.69" y1="-117.10" x2="11.72" y2="-115.60"></line><line class="link backbone" x1="30.08" y1="-132.37" x2="26.69" y2="-117.10"></line><line class="link basepair" x1="28.05" y1="-101.49" x2="13.51" y2="-99.97"></line><line class="link backbone" x1="26.69" y1="-117.10" x2="28.05" y2="-101.49"></line><line class="link basepair" x1="29.75" y1="-85.68" x2="15.28" y2="-83.96"></line><line class="link backbone" x1="28.05" y1="-101.49" x2="29.75" y2="-85.68"></line><line class="link basepair" x1="31.75" y1="-69.88" x2="17.50" y2="-67.67"></line><line class="link backbone" x1="29.75" y1="-85.68" x2="31.75" y2="-69.88"></line><line class="link basepair" x1="34.77" y1="-54.60" x2="20.24" y2="-51.31"></line><line class="link backbone" x1="31.75" y1="-69.88" x2="34.77" y2="-54.60"></line><line class="link backbone" x1="34.77" y1="-54.60" x2="46.97" y2="-45.06"></line><line class="link backbone" x1="46.97" y1="-45.06" x2="47.24" y2="-29.99"></line><line class="link basepair" x1="35.48" y1="-20.21" x2="20.75" y2="-22.97"></line><line class="link backbone" x1="47.24" y1="-29.99" x2="35.48" y2="-20.21"></line><line class="link basepair" x1="33.16" y1="-5.16" x2="18.63" y2="-6.78"></line><line class="link backbone" x1="35.48" y1="-20.21" x2="33.16" y2="-5.16"></line><line class="link basepair" x1="31.90" y1="10.38" x2="17.29" y2="9.50"></line><line class="link backbone" x1="33.16" y1="-5.16" x2="31.90" y2="10.38"></line><line class="link basepair" x1="31.24" y1="26.10" x2="16.66" y2="25.72"></line><line class="link backbone" x1="31.90" y1="10.38" x2="31.24" y2="26.10"></line><line class="link basepair" x1="30.99" y1="42.03" x2="16.43" y2="41.91"></line><line class="link backbone" x1="31.24" y1="26.10" x2="30.99" y2="42.03"></line><line class="link basepair" x1="30.98" y1="58.01" x2="16.40" y2="58.06"></line><line class="link backbone" x1="30.99" y1="42.03" x2="30.98" y2="58.01"></line><line class="link basepair" x1="31.12" y1="73.94" x2="16.50" y2="74.10"></line><line class="link backbone" x1="30.98" y1="58.01" x2="31.12" y2="73.94"></line><line class="link basepair" x1="31.41" y1="89.77" x2="16.61" y2="90.01"></line><line class="link backbone" x1="31.12" y1="73.94" x2="31.41" y2="89.77"></line><line class="link backbone" x1="31.41" y1="89.77" x2="39.30" y2="102.82"></line><line class="link basepair" x1="31.86" y1="116.23" x2="17.09" y2="116.49"></line><line class="link backbone" x1="39.30" y1="102.82" x2="31.86" y2="116.23"></line><line class="link basepair" x1="32.06" y1="132.16" x2="17.48" y2="132.45"></line><line class="link backbone" x1="31.86" y1="116.23" x2="32.06" y2="132.16"></line><line class="link basepair" x1="32.43" y1="148.12" x2="17.79" y2="148.43"></line><line class="link backbone" x1="32.06" y1="132.16" x2="32.43" y2="148.12"></line><line class="link basepair" x1="32.94" y1="163.84" x2="17.95" y2="164.14"></line><line class="link backbone" x1="32.43" y1="148.12" x2="32.94" y2="163.84"></line><line class="link backbone" x1="32.94" y1="163.84" x2="45.33" y2="172.86"></line><line class="link backbone" x1="45.33" y1="172.86" x2="50.25" y2="186.96"></line><line class="link backbone" x1="50.25" y1="186.96" x2="45.91" y2="201.42"></line><line class="link label_link" x1="16.50" y1="74.10" x2="0.92" y2="75.07"></line><line class="link label_link" x1="15.28" y1="-83.96" x2="-0.19" y2="-86.03"></line><line class="link label_link" x1="34.77" y1="-54.60" x2="50.06" y2="-57.51"></line><line class="link label_link" x1="31.41" y1="89.77" x2="46.99" y2="89.39"></line><line class="link fake transparent" x1="16.61" y1="90.01" x2="23.88" y2="81.95"></line><line class="link fake transparent" x1="16.61" y1="90.01" x2="31.12" y2="73.94"></line><line class="link fake transparent" x1="16.50" y1="74.10" x2="23.88" y2="81.95"></line><line class="link fake transparent" x1="31.12" y1="73.94" x2="23.88" y2="81.95"></line><line class="link fake transparent" x1="31.41" y1="89.77" x2="23.88" y2="81.95"></line><line class="link fake transparent" x1="16.50" y1="74.10" x2="23.72" y2="66.01"></line><line class="link fake transparent" x1="16.40" y1="58.06" x2="23.72" y2="66.01"></line><line class="link fake transparent" x1="30.98" y1="58.01" x2="23.72" y2="66.01"></line><line class="link fake transparent" x1="31.12" y1="73.94" x2="23.72" y2="66.01"></line><line class="link fake transparent" x1="16.40" y1="58.06" x2="23.65" y2="50.00"></line><line class="link fake transparent" x1="16.43" y1="41.91" x2="23.65" y2="50.00"></line><line class="link fake transparent" x1="30.99" y1="42.03" x2="23.65" y2="50.00"></line><line class="link fake transparent" x1="30.98" y1="58.01" x2="23.65" y2="50.00"></line><line class="link fake transparent" x1="16.43" y1="41.91" x2="23.75" y2="33.93"></line><line class="link fake transparent" x1="16.66" y1="25.72" x2="23.75" y2="33.93"></line><line class="link fake transparent" x1="31.24" y1="26.10" x2="23.75" y2="33.93"></line><line class="link fake transparent" x1="30.99" y1="42.03" x2="23.75" y2="33.93"></line><line class="link fake transparent" x1="16.66" y1="25.72" x2="24.13" y2="17.88"></line><line class="link fake transparent" x1="17.29" y1="9.50" x2="24.13" y2="17.88"></line><line class="link fake transparent" x1="31.90" y1="10.38" x2="24.13" y2="17.88"></line><line class="link fake transparent" x1="31.24" y1="26.10" x2="24.13" y2="17.88"></line><line class="link fake transparent" x1="17.29" y1="9.50" x2="25.04" y2="1.96"></line><line class="link fake transparent" x1="18.63" y1="-6.78" x2="25.04" y2="1.96"></line><line class="link fake transparent" x1="33.16" y1="-5.16" x2="25.04" y2="1.96"></line><line class="link fake transparent" x1="31.90" y1="10.38" x2="25.04" y2="1.96"></line><line class="link fake transparent" x1="18.63" y1="-6.78" x2="26.76" y2="-13.87"></line><line class="link fake transparent" x1="20.75" y1="-22.97" x2="26.76" y2="-13.87"></line><line class="link fake transparent" x1="35.48" y1="-20.21" x2="26.76" y2="-13.87"></line><line class="link fake transparent" x1="33.16" y1="-5.16" x2="26.76" y2="-13.87"></line><line class="link fake transparent" x1="20.24" y1="-51.31" x2="25.83" y2="-60.72"></line><line class="link fake transparent" x1="17.50" y1="-67.67" x2="25.83" y2="-60.72"></line><line class="link fake transparent" x1="31.75" y1="-69.88" x2="25.83" y2="-60.72"></line><line class="link fake transparent" x1="34.77" y1="-54.60" x2="25.83" y2="-60.72"></line><line class="link fake transparent" x1="17.50" y1="-67.67" x2="23.43" y2="-76.82"></line><line class="link fake transparent" x1="15.28" y1="-83.96" x2="23.43" y2="-76.82"></line><line class="link fake transparent" x1="29.75" y1="-85.68" x2="23.43" y2="-76.82"></line><line class="link fake transparent" x1="31.75" y1="-69.88" x2="23.43" y2="-76.82"></line><line class="link fake transparent" x1="15.28" y1="-83.96" x2="21.60" y2="-92.83"></line><line class="link fake transparent" x1="13.51" y1="-99.97" x2="21.60" y2="-92.83"></line><line class="link fake transparent" x1="28.05" y1="-101.49" x2="21.60" y2="-92.83"></line><line class="link fake transparent" x1="29.75" y1="-85.68" x2="21.60" y2="-92.83"></line><line class="link fake transparent" x1="13.51" y1="-99.97" x2="19.96" y2="-108.67"></line><line class="link fake transparent" x1="11.72" y1="-115.60" x2="19.96" y2="-108.67"></line><line class="link fake transparent" x1="26.69" y1="-117.10" x2="19.96" y2="-108.67"></line><line class="link fake transparent" x1="28.05" y1="-101.49" x2="19.96" y2="-108.67"></line><line class="link fake transparent" x1="17.95" y1="164.14" x2="25.28" y2="156.24"></line><line class="link fake transparent" x1="17.79" y1="148.43" x2="25.28" y2="156.24"></line><line class="link fake transparent" x1="32.43" y1="148.12" x2="25.28" y2="156.24"></line><line class="link fake transparent" x1="32.94" y1="163.84" x2="25.28" y2="156.24"></line><line class="link fake transparent" x1="17.79" y1="148.43" x2="24.93" y2="140.33"></line><line class="link fake transparent" x1="17.48" y1="132.45" x2="24.93" y2="140.33"></line><line class="link fake transparent" x1="32.06" y1="132.16" x2="24.93" y2="140.33"></line><line class="link fake transparent" x1="32.43" y1="148.12" x2="24.93" y2="140.33"></line><line class="link fake transparent" x1="17.48" y1="132.45" x2="24.61" y2="124.34"></line><line class="link fake transparent" x1="17.09" y1="116.49" x2="24.61" y2="124.34"></line><line class="link fake transparent" x1="31.86" y1="116.23" x2="24.61" y2="124.34"></line><line class="link fake transparent" x1="32.06" y1="132.16" x2="24.61" y2="124.34"></line><line class="link fake transparent" x1="6.47" y1="202.18" x2="25.91" y2="187.26"></line><line class="link fake transparent" x1="6.47" y1="202.18" x2="45.33" y2="172.86"></line><line class="link fake transparent" x1="1.58" y1="187.91" x2="25.91" y2="187.26"></line><line class="link fake transparent" x1="1.58" y1="187.91" x2="50.25" y2="186.96"></line><line class="link fake transparent" x1="5.93" y1="173.64" x2="25.91" y2="187.26"></line><line class="link fake transparent" x1="5.93" y1="173.64" x2="45.91" y2="201.42"></line><line class="link fake transparent" x1="17.95" y1="164.14" x2="25.91" y2="187.26"></line><line class="link fake transparent" x1="17.95" y1="164.14" x2="33.86" y2="210.37"></line><line class="link fake transparent" x1="32.94" y1="163.84" x2="25.91" y2="187.26"></line><line class="link fake transparent" x1="32.94" y1="163.84" x2="18.93" y2="210.71"></line><line class="link fake transparent" x1="45.33" y1="172.86" x2="25.91" y2="187.26"></line><line class="link fake transparent" x1="45.33" y1="172.86" x2="6.47" y2="202.18"></line><line class="link fake transparent" x1="50.25" y1="186.96" x2="25.91" y2="187.26"></line><line class="link fake transparent" x1="50.25" y1="186.96" x2="1.58" y2="187.91"></line><line class="link fake transparent" x1="45.91" y1="201.42" x2="25.91" y2="187.26"></line><line class="link fake transparent" x1="45.91" y1="201.42" x2="5.93" y2="173.64"></line><line class="link fake transparent" x1="11.72" y1="-115.60" x2="18.14" y2="-126.96"></line><line class="link fake transparent" x1="11.72" y1="-115.60" x2="16.82" y2="-140.00"></line><line class="link fake transparent" x1="5.35" y1="-129.87" x2="18.14" y2="-126.96"></line><line class="link fake transparent" x1="5.35" y1="-129.87" x2="30.08" y2="-132.37"></line><line class="link fake transparent" x1="16.82" y1="-140.00" x2="18.14" y2="-126.96"></line><line class="link fake transparent" x1="16.82" y1="-140.00" x2="26.69" y2="-117.10"></line><line class="link fake transparent" x1="30.08" y1="-132.37" x2="18.14" y2="-126.96"></line><line class="link fake transparent" x1="30.08" y1="-132.37" x2="11.72" y2="-115.60"></line><line class="link fake transparent" x1="26.69" y1="-117.10" x2="18.14" y2="-126.96"></line><line class="link fake transparent" x1="26.69" y1="-117.10" x2="5.35" y2="-129.87"></line><line class="link fake transparent" x1="20.75" y1="-22.97" x2="31.12" y2="-37.30"></line><line class="link fake transparent" x1="20.75" y1="-22.97" x2="34.77" y2="-54.60"></line><line class="link fake transparent" x1="13.76" y1="-36.92" x2="31.12" y2="-37.30"></line><line class="link fake transparent" x1="13.76" y1="-36.92" x2="46.97" y2="-45.06"></line><line class="link fake transparent" x1="20.24" y1="-51.31" x2="31.12" y2="-37.30"></line><line class="link fake transparent" x1="20.24" y1="-51.31" x2="47.24" y2="-29.99"></line><line class="link fake transparent" x1="34.77" y1="-54.60" x2="31.12" y2="-37.30"></line><line class="link fake transparent" x1="34.77" y1="-54.60" x2="35.48" y2="-20.21"></line><line class="link fake transparent" x1="46.97" y1="-45.06" x2="31.12" y2="-37.30"></line><line class="link fake transparent" x1="46.97" y1="-45.06" x2="20.75" y2="-22.97"></line><line class="link fake transparent" x1="47.24" y1="-29.99" x2="31.12" y2="-37.30"></line><line class="link fake transparent" x1="47.24" y1="-29.99" x2="13.76" y2="-36.92"></line><line class="link fake transparent" x1="35.48" y1="-20.21" x2="31.12" y2="-37.30"></line><line class="link fake transparent" x1="35.48" y1="-20.21" x2="20.24" y2="-51.31"></line><line class="link fake transparent" x1="17.09" y1="116.49" x2="24.23" y2="103.10"></line><line class="link fake transparent" x1="17.09" y1="116.49" x2="31.41" y2="89.77"></line><line class="link fake transparent" x1="9.16" y1="103.34" x2="24.23" y2="103.10"></line><line class="link fake transparent" x1="9.16" y1="103.34" x2="39.30" y2="102.82"></line><line class="link fake transparent" x1="16.61" y1="90.01" x2="24.23" y2="103.10"></line><line class="link fake transparent" x1="16.61" y1="90.01" x2="31.86" y2="116.23"></line><line class="link fake transparent" x1="31.41" y1="89.77" x2="24.23" y2="103.10"></line><line class="link fake transparent" x1="31.41" y1="89.77" x2="17.09" y2="116.49"></line><line class="link fake transparent" x1="39.30" y1="102.82" x2="24.23" y2="103.10"></line><line class="link fake transparent" x1="39.30" y1="102.82" x2="9.16" y2="103.34"></line><line class="link fake transparent" x1="31.86" y1="116.23" x2="24.23" y2="103.10"></line><line class="link fake transparent" x1="31.86" y1="116.23" x2="16.61" y2="90.01"></line></g><g><g class="noselect gnode" struct_name="m" transform="translate(6.47,202.18)" r="6.5"><circle class="node" r="6" node_type="nucleotide" style="fill: lightsalmon;"></circle><text text-anchor="middle" font-size="8" font-weight="bold" y="2.5" class="node-label">A</text></g><g class="noselect gnode" struct_name="m" transform="translate(1.58,187.91)" r="6.5"><circle class="node" r="6" node_type="nucleotide" style="fill: lightsalmon;"></circle><text text-anchor="middle" font-size="8" font-weight="bold" y="2.5" class="node-label">A</text></g><g class="noselect gnode" struct_name="m" transform="translate(5.93,173.64)" r="6.5"><circle class="node" r="6" node_type="nucleotide" style="fill: lightsalmon;"></circle><text text-anchor="middle" font-size="8" font-weight="bold" y="2.5" class="node-label">C</text></g><g class="noselect gnode" struct_name="m" transform="translate(17.95,164.14)" r="6.5"><circle class="node" r="6" node_type="nucleotide" style="fill: lightgreen;"></circle><text text-anchor="middle" font-size="8" font-weight="bold" y="2.5" class="node-label">G</text></g><g class="noselect gnode" struct_name="m" transform="translate(17.79,148.43)" r="6.5"><circle class="node" r="6" node_type="nucleotide" style="fill: lightgreen;"></circle><text text-anchor="middle" font-size="8" font-weight="bold" y="2.5" class="node-label">U</text></g><g class="noselect gnode" struct_name="m" transform="translate(17.48,132.45)" r="6.5"><circle class="node" r="6" node_type="nucleotide" style="fill: lightgreen;"></circle><text text-anchor="middle" font-size="8" font-weight="bold" y="2.5" class="node-label">C</text></g><g class="noselect gnode" struct_name="m" transform="translate(17.09,116.49)" r="6.5"><circle class="node" r="6" node_type="nucleotide" style="fill: lightgreen;"></circle><text text-anchor="middle" font-size="8" font-weight="bold" y="2.5" class="node-label">G</text></g><g class="noselect gnode" struct_name="m" transform="translate(9.16,103.34)" r="6.5"><circle class="node" r="6" node_type="nucleotide" style="fill: rgb(219, 219, 141);"></circle><text text-anchor="middle" font-size="8" font-weight="bold" y="2.5" class="node-label">G</text></g><g class="noselect gnode" struct_name="m" transform="translate(16.61,90.01)" r="6.5"><circle class="node" r="6" node_type="nucleotide" style="fill: lightgreen;"></circle><text text-anchor="middle" font-size="8" font-weight="bold" y="2.5" class="node-label">A</text></g><g class="noselect gnode" struct_name="m" transform="translate(16.50,74.10)" r="6.5"><circle class="node" r="6" node_type="nucleotide" style="fill: lightgreen;"></circle><text text-anchor="middle" font-size="8" font-weight="bold" y="2.5" class="node-label">G</text></g><g class="noselect gnode" struct_name="m" transform="translate(16.40,58.06)" r="6.5"><circle class="node" r="6" node_type="nucleotide" style="fill: lightgreen;"></circle><text text-anchor="middle" font-size="8" font-weight="bold" y="2.5" class="node-label">U</text></g><g class="noselect gnode" struct_name="m" transform="translate(16.43,41.91)" r="6.5"><circle class="node" r="6" node_type="nucleotide" style="fill: lightgreen;"></circle><text text-anchor="middle" font-size="8" font-weight="bold" y="2.5" class="node-label">U</text></g><g class="noselect gnode" struct_name="m" transform="translate(16.66,25.72)" r="6.5"><circle class="node" r="6" node_type="nucleotide" style="fill: lightgreen;"></circle><text text-anchor="middle" font-size="8" font-weight="bold" y="2.5" class="node-label">A</text></g><g class="noselect gnode" struct_name="m" transform="translate(17.29,9.50)" r="6.5"><circle class="node" r="6" node_type="nucleotide" style="fill: lightgreen;"></circle><text text-anchor="middle" font-size="8" font-weight="bold" y="2.5" class="node-label">U</text></g><g class="noselect gnode" struct_name="m" transform="translate(18.63,-6.78)" r="6.5"><circle class="node" r="6" node_type="nucleotide" style="fill: lightgreen;"></circle><text text-anchor="middle" font-size="8" font-weight="bold" y="2.5" class="node-label">U</text></g><g class="noselect gnode" struct_name="m" transform="translate(20.75,-22.97)" r="6.5"><circle class="node" r="6" node_type="nucleotide" style="fill: lightgreen;"></circle><text text-anchor="middle" font-size="8" font-weight="bold" y="2.5" class="node-label">A</text></g><g class="noselect gnode" struct_name="m" transform="translate(13.76,-36.92)" r="6.5"><circle class="node" r="6" node_type="nucleotide" style="fill: rgb(219, 219, 141);"></circle><text text-anchor="middle" font-size="8" font-weight="bold" y="2.5" class="node-label">U</text></g><g class="noselect gnode" struct_name="m" transform="translate(20.24,-51.31)" r="6.5"><circle class="node" r="6" node_type="nucleotide" style="fill: lightgreen;"></circle><text text-anchor="middle" font-size="8" font-weight="bold" y="2.5" class="node-label">G</text></g><g class="noselect gnode" struct_name="m" transform="translate(17.50,-67.67)" r="6.5"><circle class="node" r="6" node_type="nucleotide" style="fill: lightgreen;"></circle><text text-anchor="middle" font-size="8" font-weight="bold" y="2.5" class="node-label">G</text></g><g class="noselect gnode" struct_name="m" transform="translate(15.28,-83.96)" r="6.5"><circle class="node" r="6" node_type="nucleotide" style="fill: lightgreen;"></circle><text text-anchor="middle" font-size="8" font-weight="bold" y="2.5" class="node-label">U</text></g><g class="noselect gnode" struct_name="m" transform="translate(13.51,-99.97)" r="6.5"><circle class="node" r="6" node_type="nucleotide" style="fill: lightgreen;"></circle><text text-anchor="middle" font-size="8" font-weight="bold" y="2.5" class="node-label">G</text></g><g class="noselect gnode" struct_name="m" transform="translate(11.72,-115.60)" r="6.5"><circle class="node" r="6" node_type="nucleotide" style="fill: lightgreen;"></circle><text text-anchor="middle" font-size="8" font-weight="bold" y="2.5" class="node-label">U</text></g><g class="noselect gnode" struct_name="m" transform="translate(5.35,-129.87)" r="6.5"><circle class="node" r="6" node_type="nucleotide" style="fill: lightblue;"></circle><text text-anchor="middle" font-size="8" font-weight="bold" y="2.5" class="node-label">G</text></g><g class="noselect gnode" struct_name="m" transform="translate(16.82,-140.00)" r="6.5"><circle class="node" r="6" node_type="nucleotide" style="fill: lightblue;"></circle><text text-anchor="middle" font-size="8" font-weight="bold" y="2.5" class="node-label">U</text></g><g class="noselect gnode" struct_name="m" transform="translate(30.08,-132.37)" r="6.5"><circle class="node" r="6" node_type="nucleotide" style="fill: lightblue;"></circle><text text-anchor="middle" font-size="8" font-weight="bold" y="2.5" class="node-label">U</text></g><g class="noselect gnode" struct_name="m" transform="translate(26.69,-117.10)" r="6.5"><circle class="node" r="6" node_type="nucleotide" style="fill: lightgreen;"></circle><text text-anchor="middle" font-size="8" font-weight="bold" y="2.5" class="node-label">A</text></g><g class="noselect gnode" struct_name="m" transform="translate(28.05,-101.49)" r="6.5"><circle class="node" r="6" node_type="nucleotide" style="fill: lightgreen;"></circle><text text-anchor="middle" font-size="8" font-weight="bold" y="2.5" class="node-label">C</text></g><g class="noselect gnode" struct_name="m" transform="translate(29.75,-85.68)" r="6.5"><circle class="node" r="6" node_type="nucleotide" style="fill: lightgreen;"></circle><text text-anchor="middle" font-size="8" font-weight="bold" y="2.5" class="node-label">G</text></g><g class="noselect gnode" struct_name="m" transform="translate(31.75,-69.88)" r="6.5"><circle class="node" r="6" node_type="nucleotide" style="fill: lightgreen;"></circle><text text-anchor="middle" font-size="8" font-weight="bold" y="2.5" class="node-label">C</text></g><g class="noselect gnode" struct_name="m" transform="translate(34.77,-54.60)" r="6.5"><circle class="node" r="6" node_type="nucleotide" style="fill: lightgreen;"></circle><text text-anchor="middle" font-size="8" font-weight="bold" y="2.5" class="node-label">C</text></g><g class="noselect gnode" struct_name="m" transform="translate(46.97,-45.06)" r="6.5"><circle class="node" r="6" node_type="nucleotide" style="fill: rgb(219, 219, 141);"></circle><text text-anchor="middle" font-size="8" font-weight="bold" y="2.5" class="node-label">U</text></g><g class="noselect gnode" struct_name="m" transform="translate(47.24,-29.99)" r="6.5"><circle class="node" r="6" node_type="nucleotide" style="fill: rgb(219, 219, 141);"></circle><text text-anchor="middle" font-size="8" font-weight="bold" y="2.5" class="node-label">U</text></g><g class="noselect gnode" struct_name="m" transform="translate(35.48,-20.21)" r="6.5"><circle class="node" r="6" node_type="nucleotide" style="fill: lightgreen;"></circle><text text-anchor="middle" font-size="8" font-weight="bold" y="2.5" class="node-label">U</text></g><g class="noselect gnode" struct_name="m" transform="translate(33.16,-5.16)" r="6.5"><circle class="node" r="6" node_type="nucleotide" style="fill: lightgreen;"></circle><text text-anchor="middle" font-size="8" font-weight="bold" y="2.5" class="node-label">A</text></g><g class="noselect gnode" struct_name="m" transform="translate(31.90,10.38)" r="6.5"><circle class="node" r="6" node_type="nucleotide" style="fill: lightgreen;"></circle><text text-anchor="middle" font-size="8" font-weight="bold" y="2.5" class="node-label">A</text></g><g class="noselect gnode" struct_name="m" transform="translate(31.24,26.10)" r="6.5"><circle class="node" r="6" node_type="nucleotide" style="fill: lightgreen;"></circle><text text-anchor="middle" font-size="8" font-weight="bold" y="2.5" class="node-label">U</text></g><g class="noselect gnode" struct_name="m" transform="translate(30.99,42.03)" r="6.5"><circle class="node" r="6" node_type="nucleotide" style="fill: lightgreen;"></circle><text text-anchor="middle" font-size="8" font-weight="bold" y="2.5" class="node-label">A</text></g><g class="noselect gnode" struct_name="m" transform="translate(30.98,58.01)" r="6.5"><circle class="node" r="6" node_type="nucleotide" style="fill: lightgreen;"></circle><text text-anchor="middle" font-size="8" font-weight="bold" y="2.5" class="node-label">A</text></g><g class="noselect gnode" struct_name="m" transform="translate(31.12,73.94)" r="6.5"><circle class="node" r="6" node_type="nucleotide" style="fill: lightgreen;"></circle><text text-anchor="middle" font-size="8" font-weight="bold" y="2.5" class="node-label">C</text></g><g class="noselect gnode" struct_name="m" transform="translate(31.41,89.77)" r="6.5"><circle class="node" r="6" node_type="nucleotide" style="fill: lightgreen;"></circle><text text-anchor="middle" font-size="8" font-weight="bold" y="2.5" class="node-label">U</text></g><g class="noselect gnode" struct_name="m" transform="translate(39.30,102.82)" r="6.5"><circle class="node" r="6" node_type="nucleotide" style="fill: rgb(219, 219, 141);"></circle><text text-anchor="middle" font-size="8" font-weight="bold" y="2.5" class="node-label">G</text></g><g class="noselect gnode" struct_name="m" transform="translate(31.86,116.23)" r="6.5"><circle class="node" r="6" node_type="nucleotide" style="fill: lightgreen;"></circle><text text-anchor="middle" font-size="8" font-weight="bold" y="2.5" class="node-label">C</text></g><g class="noselect gnode" struct_name="m" transform="translate(32.06,132.16)" r="6.5"><circle class="node" r="6" node_type="nucleotide" style="fill: lightgreen;"></circle><text text-anchor="middle" font-size="8" font-weight="bold" y="2.5" class="node-label">G</text></g><g class="noselect gnode" struct_name="m" transform="translate(32.43,148.12)" r="6.5"><circle class="node" r="6" node_type="nucleotide" style="fill: lightgreen;"></circle><text text-anchor="middle" font-size="8" font-weight="bold" y="2.5" class="node-label">A</text></g><g class="noselect gnode" struct_name="m" transform="translate(32.94,163.84)" r="6.5"><circle class="node" r="6" node_type="nucleotide" style="fill: lightgreen;"></circle><text text-anchor="middle" font-size="8" font-weight="bold" y="2.5" class="node-label">C</text></g><g class="noselect gnode" struct_name="m" transform="translate(45.33,172.86)" r="6.5"><circle class="node" r="6" node_type="nucleotide" style="fill: lightsalmon;"></circle><text text-anchor="middle" font-size="8" font-weight="bold" y="2.5" class="node-label">U</text></g><g class="noselect gnode" struct_name="m" transform="translate(50.25,186.96)" r="6.5"><circle class="node" r="6" node_type="nucleotide" style="fill: lightsalmon;"></circle><text text-anchor="middle" font-size="8" font-weight="bold" y="2.5" class="node-label">G</text></g><g class="noselect gnode" struct_name="m" transform="translate(45.91,201.42)" r="6.5"><circle class="node" r="6" node_type="nucleotide" style="fill: lightsalmon;"></circle><text text-anchor="middle" font-size="8" font-weight="bold" y="2.5" class="node-label">U</text></g><g class="noselect gnode" struct_name="m" transform="translate(0.92,75.07)" r="6.5"><circle class="node label" r="6" node_type="label"></circle><text text-anchor="middle" font-size="8" font-weight="bold" y="2.5" class="node-label">10</text></g><g class="noselect gnode" struct_name="m" transform="translate(-0.19,-86.03)" r="6.5"><circle class="node label" r="6" node_type="label"></circle><text text-anchor="middle" font-size="8" font-weight="bold" y="2.5" class="node-label">20</text></g><g class="noselect gnode" struct_name="m" transform="translate(50.06,-57.51)" r="6.5"><circle class="node label" r="6" node_type="label"></circle><text text-anchor="middle" font-size="8" font-weight="bold" y="2.5" class="node-label">30</text></g><g class="noselect gnode" struct_name="m" transform="translate(46.99,89.39)" r="6.5"><circle class="node label" r="6" node_type="label"></circle><text text-anchor="middle" font-size="8" font-weight="bold" y="2.5" class="node-label">40</text></g><g class="noselect gnode" transform="translate(23.88,81.95)" r="6.5"><circle class="node" r="0" node_type="middle"></circle><text text-anchor="middle" font-size="8" font-weight="bold" y="2.5" class="node-label"></text></g><g class="noselect gnode" transform="translate(23.72,66.01)" r="6.5"><circle class="node" r="0" node_type="middle"></circle><text text-anchor="middle" font-size="8" font-weight="bold" y="2.5" class="node-label"></text></g><g class="noselect gnode" transform="translate(23.65,50.00)" r="6.5"><circle class="node" r="0" node_type="middle"></circle><text text-anchor="middle" font-size="8" font-weight="bold" y="2.5" class="node-label"></text></g><g class="noselect gnode" transform="translate(23.75,33.93)" r="6.5"><circle class="node" r="0" node_type="middle"></circle><text text-anchor="middle" font-size="8" font-weight="bold" y="2.5" class="node-label"></text></g><g class="noselect gnode" transform="translate(24.13,17.88)" r="6.5"><circle class="node" r="0" node_type="middle"></circle><text text-anchor="middle" font-size="8" font-weight="bold" y="2.5" class="node-label"></text></g><g class="noselect gnode" transform="translate(25.04,1.96)" r="6.5"><circle class="node" r="0" node_type="middle"></circle><text text-anchor="middle" font-size="8" font-weight="bold" y="2.5" class="node-label"></text></g><g class="noselect gnode" transform="translate(26.76,-13.87)" r="6.5"><circle class="node" r="0" node_type="middle"></circle><text text-anchor="middle" font-size="8" font-weight="bold" y="2.5" class="node-label"></text></g><g class="noselect gnode" transform="translate(25.83,-60.72)" r="6.5"><circle class="node" r="0" node_type="middle"></circle><text text-anchor="middle" font-size="8" font-weight="bold" y="2.5" class="node-label"></text></g><g class="noselect gnode" transform="translate(23.43,-76.82)" r="6.5"><circle class="node" r="0" node_type="middle"></circle><text text-anchor="middle" font-size="8" font-weight="bold" y="2.5" class="node-label"></text></g><g class="noselect gnode" transform="translate(21.60,-92.83)" r="6.5"><circle class="node" r="0" node_type="middle"></circle><text text-anchor="middle" font-size="8" font-weight="bold" y="2.5" class="node-label"></text></g><g class="noselect gnode" transform="translate(19.96,-108.67)" r="6.5"><circle class="node" r="0" node_type="middle"></circle><text text-anchor="middle" font-size="8" font-weight="bold" y="2.5" class="node-label"></text></g><g class="noselect gnode" transform="translate(25.28,156.24)" r="6.5"><circle class="node" r="0" node_type="middle"></circle><text text-anchor="middle" font-size="8" font-weight="bold" y="2.5" class="node-label"></text></g><g class="noselect gnode" transform="translate(24.93,140.33)" r="6.5"><circle class="node" r="0" node_type="middle"></circle><text text-anchor="middle" font-size="8" font-weight="bold" y="2.5" class="node-label"></text></g><g class="noselect gnode" transform="translate(24.61,124.34)" r="6.5"><circle class="node" r="0" node_type="middle"></circle><text text-anchor="middle" font-size="8" font-weight="bold" y="2.5" class="node-label"></text></g><g class="noselect gnode" transform="translate(33.86,210.37)" r="6.5"><circle class="node" r="0" node_type="middle"></circle><text text-anchor="middle" font-size="8" font-weight="bold" y="2.5" class="node-label"></text></g><g class="noselect gnode" transform="translate(18.93,210.71)" r="6.5"><circle class="node" r="0" node_type="middle"></circle><text text-anchor="middle" font-size="8" font-weight="bold" y="2.5" class="node-label"></text></g><g class="noselect gnode" transform="translate(25.91,187.26)" r="6.5"><circle class="node" r="0" node_type="middle"></circle><text text-anchor="middle" font-size="8" font-weight="bold" y="2.5" class="node-label"></text></g><g class="noselect gnode" transform="translate(18.14,-126.96)" r="6.5"><circle class="node" r="0" node_type="middle"></circle><text text-anchor="middle" font-size="8" font-weight="bold" y="2.5" class="node-label"></text></g><g class="noselect gnode" transform="translate(31.12,-37.30)" r="6.5"><circle class="node" r="0" node_type="middle"></circle><text text-anchor="middle" font-size="8" font-weight="bold" y="2.5" class="node-label"></text></g><g class="noselect gnode" transform="translate(24.23,103.10)" r="6.5"><circle class="node" r="0" node_type="middle"></circle><text text-anchor="middle" font-size="8" font-weight="bold" y="2.5" class="node-label"></text></g></g><line class="drag_line" x1="0" y1="0" x2="0" y2="0"></line></g></g></svg>