<svg xmlns="http://www.w3.org/2000/svg" viewBox="-55.9 -192.6 297.5 212.5" width="298" height="212"><style></style><line x1="78.3" y1="-110.2" x2="76.5" y2="-95.3" stroke="#999" stroke-width="1.66" stroke-opacity="0.8"/><line x1="93.2" y1="-108.4" x2="91.4" y2="-93.5" stroke="#999" stroke-width="1.66" stroke-opacity="0.8"/><line x1="70.4" y1="-81.5" x2="126.6" y2="-56.4" stroke="#d9534f" stroke-width="1.66" stroke-opacity="0.6"/><line x1="60.4" y1="-70.1" x2="128.6" y2="-41.3" stroke="#d9534f" stroke-width="1.66" stroke-opacity="0.6"/><line x1="47.6" y1="-62.2" x2="147.6" y2="-18.3" stroke="#d9534f" stroke-width="1.66" stroke-opacity="0.6"/><line x1="32.9" y1="-58.4" x2="161.9" y2="-13.4" stroke="#d9534f" stroke-width="1.66" stroke-opacity="0.6"/><line x1="17.8" y1="-59.1" x2="177.1" y2="-14.0" stroke="#d9534f" stroke-width="1.66" stroke-opacity="0.6"/><line x1="3.6" y1="-64.2" x2="191.0" y2="-20.1" stroke="#d9534f" stroke-width="1.66" stroke-opacity="0.6"/><line x1="-8.5" y1="-73.2" x2="201.8" y2="-30.8" stroke="#d9534f" stroke-width="1.66" stroke-opacity="0.6"/><line x1="-17.3" y1="-85.5" x2="207.9" y2="-44.7" stroke="#d9534f" stroke-width="1.66" stroke-opacity="0.6"/><line x1="-22.6" y1="-114.9" x2="203.9" y2="-74.2" stroke="#d9534f" stroke-width="1.66" stroke-opacity="0.6"/><line x1="-18.6" y1="-129.5" x2="194.3" y2="-85.9" stroke="#d9534f" stroke-width="1.66" stroke-opacity="0.6"/><line x1="-10.5" y1="-142.2" x2="181.0" y2="-93.3" stroke="#d9534f" stroke-width="1.66" stroke-opacity="0.6"/><line x1="1.1" y1="-151.9" x2="166.0" y2="-95.5" stroke="#d9534f" stroke-width="1.66" stroke-opacity="0.6"/><line x1="130.1" y1="-71.1" x2="138.7" y2="-83.5" stroke="#999" stroke-width="1.66" stroke-opacity="0.8"/><line x1="117.8" y1="-79.6" x2="126.3" y2="-92.0" stroke="#999" stroke-width="1.66" stroke-opacity="0.8"/><line x1="105.5" y1="-88.2" x2="114.0" y2="-100.5" stroke="#999" stroke-width="1.66" stroke-opacity="0.8"/><line x1="15.0" y1="-157.9" x2="136.2" y2="-118.7" stroke="#d9534f" stroke-width="1.66" stroke-opacity="0.6"/><line x1="30.0" y1="-159.4" x2="136.0" y2="-133.7" stroke="#d9534f" stroke-width="1.66" stroke-opacity="0.6"/><line x1="44.9" y1="-156.5" x2="127.4" y2="-146.0" stroke="#d9534f" stroke-width="1.66" stroke-opacity="0.6"/><line x1="58.2" y1="-149.3" x2="113.3" y2="-151.3" stroke="#d9534f" stroke-width="1.66" stroke-opacity="0.6"/><line x1="68.7" y1="-138.5" x2="98.8" y2="-147.8" stroke="#d9534f" stroke-width="1.66" stroke-opacity="0.6"/><line x1="75.7" y1="-125.1" x2="88.7" y2="-136.7" stroke="#d9534f" stroke-width="1.66" stroke-opacity="0.6"/><line x1="93.2" y1="-108.4" x2="78.3" y2="-110.2" stroke="#999" stroke-width="1.66" stroke-opacity="0.8"/><line x1="78.3" y1="-110.2" x2="75.7" y2="-125.1" stroke="#999" stroke-width="1.66" stroke-opacity="0.8"/><line x1="75.7" y1="-125.1" x2="68.7" y2="-138.5" stroke="#999" stroke-width="1.66" stroke-opacity="0.8"/><line x1="68.7" y1="-138.5" x2="58.2" y2="-149.3" stroke="#999" stroke-width="1.66" stroke-opacity="0.8"/><line x1="58.2" y1="-149.3" x2="44.9" y2="-156.5" stroke="#999" stroke-width="1.66" stroke-opacity="0.8"/><line x1="44.9" y1="-156.5" x2="30.0" y2="-159.4" stroke="#999" stroke-width="1.66" stroke-opacity="0.8"/><line x1="30.0" y1="-159.4" x2="15.0" y2="-157.9" stroke="#999" stroke-width="1.66" stroke-opacity="0.8"/><line x1="15.0" y1="-157.9" x2="1.1" y2="-151.9" stroke="#999" stroke-width="1.66" stroke-opacity="0.8"/><line x1="1.1" y1="-151.9" x2="-10.5" y2="-142.2" stroke="#999" stroke-width="1.66" stroke-opacity="0.8"/><line x1="-10.5" y1="-142.2" x2="-18.6" y2="-129.5" stroke="#999" stroke-width="1.66" stroke-opacity="0.8"/><line x1="-18.6" y1="-129.5" x2="-22.6" y2="-114.9" stroke="#999" stroke-width="1.66" stroke-opacity="0.8"/><line x1="-22.6" y1="-114.9" x2="-22.2" y2="-99.8" stroke="#999" stroke-width="1.66" stroke-opacity="0.8"/><line x1="-22.2" y1="-99.8" x2="-17.3" y2="-85.5" stroke="#999" stroke-width="1.66" stroke-opacity="0.8"/><line x1="-17.3" y1="-85.5" x2="-8.5" y2="-73.2" stroke="#999" stroke-width="1.66" stroke-opacity="0.8"/><line x1="-8.5" y1="-73.2" x2="3.6" y2="-64.2" stroke="#999" stroke-width="1.66" stroke-opacity="0.8"/><line x1="3.6" y1="-64.2" x2="17.8" y2="-59.1" stroke="#999" stroke-width="1.66" stroke-opacity="0.8"/><line x1="17.8" y1="-59.1" x2="32.9" y2="-58.4" stroke="#999" stroke-width="1.66" stroke-opacity="0.8"/><line x1="32.9" y1="-58.4" x2="47.6" y2="-62.2" stroke="#999" stroke-width="1.66" stroke-opacity="0.8"/><line x1="47.6" y1="-62.2" x2="60.4" y2="-70.1" stroke="#999" stroke-width="1.66" stroke-opacity="0.8"/><line x1="60.4" y1="-70.1" x2="70.4" y2="-81.5" stroke="#999" stroke-width="1.66" stroke-opacity="0.8"/><line x1="70.4" y1="-81.5" x2="76.5" y2="-95.3" stroke="#999" stroke-width="1.66" stroke-opacity="0.8"/><line x1="76.5" y1="-95.3" x2="91.4" y2="-93.5" stroke="#999" stroke-width="1.66" stroke-opacity="0.8"/><line x1="91.4" y1="-93.5" x2="105.5" y2="-88.2" stroke="#999" stroke-width="1.66" stroke-opacity="0.8"/><line x1="105.5" y1="-88.2" x2="117.8" y2="-79.6" stroke="#999" stroke-width="1.66" stroke-opacity="0.8"/><line x1="117.8" y1="-79.6" x2="130.1" y2="-71.1" stroke="#999" stroke-width="1.66" stroke-opacity="0.8"/><line x1="130.1" y1="-71.1" x2="126.6" y2="-56.4" stroke="#999" stroke-width="1.66" stroke-opacity="0.8"/><line x1="126.6" y1="-56.4" x2="128.6" y2="-41.3" stroke="#999" stroke-width="1.66" stroke-opacity="0.8"/><line x1="128.6" y1="-41.3" x2="136.1" y2="-28.2" stroke="#999" stroke-width="1.66" stroke-opacity="0.8"/><line x1="136.1" y1="-28.2" x2="147.6" y2="-18.3" stroke="#999" stroke-width="1.66" stroke-opacity="0.8"/><line x1="147.6" y1="-18.3" x2="161.9" y2="-13.4" stroke="#999" stroke-width="1.66" stroke-opacity="0.8"/><line x1="161.9" y1="-13.4" x2="177.1" y2="-14.0" stroke="#999" stroke-width="1.66" stroke-opacity="0.8"/><line x1="177.1" y1="-14.0" x2="191.0" y2="-20.1" stroke="#999" stroke-width="1.66" stroke-opacity="0.8"/><line x1="191.0" y1="-20.1" x2="201.8" y2="-30.8" stroke="#999" stroke-width="1.66" stroke-opacity="0.8"/><line x1="201.8" y1="-30.8" x2="207.9" y2="-44.7" stroke="#999" stroke-width="1.66" stroke-opacity="0.8"/><line x1="207.9" y1="-44.7" x2="208.4" y2="-59.8" stroke="#999" stroke-width="1.66" stroke-opacity="0.8"/><line x1="208.4" y1="-59.8" x2="203.9" y2="-74.2" stroke="#999" stroke-width="1.66" stroke-opacity="0.8"/><line x1="203.9" y1="-74.2" x2="194.3" y2="-85.9" stroke="#999" stroke-width="1.66" stroke-opacity="0.8"/><line x1="194.3" y1="-85.9" x2="181.0" y2="-93.3" stroke="#999" stroke-width="1.66" stroke-opacity="0.8"/><line x1="181.0" y1="-93.3" x2="166.0" y2="-95.5" stroke="#999" stroke-width="1.66" stroke-opacity="0.8"/><line x1="166.0" y1="-95.5" x2="151.3" y2="-91.8" stroke="#999" stroke-width="1.66" stroke-opacity="0.8"/><line x1="151.3" y1="-91.8" x2="138.7" y2="-83.5" stroke="#999" stroke-width="1.66" stroke-opacity="0.8"/><line x1="138.7" y1="-83.5" x2="126.3" y2="-92.0" stroke="#999" stroke-width="1.66" stroke-opacity="0.8"/><line x1="126.3" y1="-92.0" x2="114.0" y2="-100.5" stroke="#999" stroke-width="1.66" stroke-opacity="0.8"/><line x1="114.0" y1="-100.5" x2="121.8" y2="-113.7" stroke="#999" stroke-width="1.66" stroke-opacity="0.8"/><line x1="121.8" y1="-113.7" x2="136.2" y2="-118.7" stroke="#999" stroke-width="1.66" stroke-opacity="0.8"/><line x1="136.2" y1="-118.7" x2="136.0" y2="-133.7" stroke="#999" stroke-width="1.66" stroke-opacity="0.8"/><line x1="136.0" y1="-133.7" x2="127.4" y2="-146.0" stroke="#999" stroke-width="1.66" stroke-opacity="0.8"/><line x1="127.4" y1="-146.0" x2="113.3" y2="-151.3" stroke="#999" stroke-width="1.66" stroke-opacity="0.8"/><line x1="113.3" y1="-151.3" x2="98.8" y2="-147.8" stroke="#999" stroke-width="1.66" stroke-opacity="0.8"/><line x1="98.8" y1="-147.8" x2="88.7" y2="-136.7" stroke="#999" stroke-width="1.66" stroke-opacity="0.8"/><text x="95.4" y="-123.6" text-anchor="middle" font-size="7.9" font-family="Tahoma,Geneva,sans-serif" fill="#999">1</text><text x="-24.1" y="-151.4" text-anchor="middle" font-size="7.9" font-family="Tahoma,Geneva,sans-serif" fill="#999">10</text><text x="48.7" y="-81.2" text-anchor="middle" font-size="7.9" font-family="Tahoma,Geneva,sans-serif" fill="#999">20</text><text x="156.6" y="-31.2" text-anchor="middle" font-size="7.9" font-family="Tahoma,Geneva,sans-serif" fill="#999">30</text><text x="166.9" y="-74.6" text-anchor="middle" font-size="7.9" font-family="Tahoma,Geneva,sans-serif" fill="#999">40</text><text x="108.0" y="-129.4" text-anchor="middle" font-size="7.9" font-family="Tahoma,Geneva,sans-serif" fill="#999">50</text><circle cx="93.2" cy="-108.4" r="4.53" fill="lightgreen" stroke="#ccc" stroke-width="1.66"/><text x="93.2" y="-106.1" text-anchor="middle" font-size="5.7" font-family="Tahoma,Geneva,sans-serif" font-weight="bold" fill="rgb(100,100,100)">C</text><circle cx="78.3" cy="-110.2" r="4.53" fill="lightgreen" stroke="#ccc" stroke-width="1.66"/><text x="78.3" y="-107.9" text-anchor="middle" font-size="5.7" font-family="Tahoma,Geneva,sans-serif" font-weight="bold" fill="rgb(100,100,100)">A</text><circle cx="75.7" cy="-125.1" r="4.53" fill="lightgreen" stroke="#ccc" stroke-width="1.66"/><text x="75.7" y="-122.8" text-anchor="middle" font-size="5.7" font-family="Tahoma,Geneva,sans-serif" font-weight="bold" fill="rgb(100,100,100)">C</text><circle cx="68.7" cy="-138.5" r="4.53" fill="lightgreen" stroke="#ccc" stroke-width="1.66"/><text x="68.7" y="-136.2" text-anchor="middle" font-size="5.7" font-family="Tahoma,Geneva,sans-serif" font-weight="bold" fill="rgb(100,100,100)">C</text><circle cx="58.2" cy="-149.3" r="4.53" fill="lightgreen" stroke="#ccc" stroke-width="1.66"/><text x="58.2" y="-147.0" text-anchor="middle" font-size="5.7" font-family="Tahoma,Geneva,sans-serif" font-weight="bold" fill="rgb(100,100,100)">G</text><circle cx="44.9" cy="-156.5" r="4.53" fill="lightgreen" stroke="#ccc" stroke-width="1.66"/><text x="44.9" y="-154.2" text-anchor="middle" font-size="5.7" font-family="Tahoma,Geneva,sans-serif" font-weight="bold" fill="rgb(100,100,100)">G</text><circle cx="30.0" cy="-159.4" r="4.53" fill="lightgreen" stroke="#ccc" stroke-width="1.66"/><text x="30.0" y="-157.2" text-anchor="middle" font-size="5.7" font-family="Tahoma,Geneva,sans-serif" font-weight="bold" fill="rgb(100,100,100)">U</text><circle cx="15.0" cy="-157.9" r="4.53" fill="lightgreen" stroke="#ccc" stroke-width="1.66"/><text x="15.0" y="-155.6" text-anchor="middle" font-size="5.7" font-family="Tahoma,Geneva,sans-serif" font-weight="bold" fill="rgb(100,100,100)">G</text><circle cx="1.1" cy="-151.9" r="4.53" fill="lightgreen" stroke="#ccc" stroke-width="1.66"/><text x="1.1" y="-149.7" text-anchor="middle" font-size="5.7" font-family="Tahoma,Geneva,sans-serif" font-weight="bold" fill="rgb(100,100,100)">G</text><circle cx="-10.5" cy="-142.2" r="4.53" fill="lightgreen" stroke="#ccc" stroke-width="1.66"/><text x="-10.5" y="-139.9" text-anchor="middle" font-size="5.7" font-family="Tahoma,Geneva,sans-serif" font-weight="bold" fill="rgb(100,100,100)">A</text><circle cx="-18.6" cy="-129.5" r="4.53" fill="lightgreen" stroke="#ccc" stroke-width="1.66"/><text x="-18.6" y="-127.2" text-anchor="middle" font-size="5.7" font-family="Tahoma,Geneva,sans-serif" font-weight="bold" fill="rgb(100,100,100)">U</text><circle cx="-22.6" cy="-114.9" r="4.53" fill="lightgreen" stroke="#ccc" stroke-width="1.66"/><text x="-22.6" y="-112.6" text-anchor="middle" font-size="5.7" font-family="Tahoma,Geneva,sans-serif" font-weight="bold" fill="rgb(100,100,100)">G</text><circle cx="-22.2" cy="-99.8" r="4.53" fill="lightblue" stroke="#ccc" stroke-width="1.66"/><text x="-22.2" y="-97.5" text-anchor="middle" font-size="5.7" font-family="Tahoma,Geneva,sans-serif" font-weight="bold" fill="rgb(100,100,100)">G</text><circle cx="-17.3" cy="-85.5" r="4.53" fill="lightgreen" stroke="#ccc" stroke-width="1.66"/><text x="-17.3" y="-83.2" text-anchor="middle" font-size="5.7" font-family="Tahoma,Geneva,sans-serif" font-weight="bold" fill="rgb(100,100,100)">U</text><circle cx="-8.5" cy="-73.2" r="4.53" fill="lightgreen" stroke="#ccc" stroke-width="1.66"/><text x="-8.5" y="-71.0" text-anchor="middle" font-size="5.7" font-family="Tahoma,Geneva,sans-serif" font-weight="bold" fill="rgb(100,100,100)">U</text><circle cx="3.6" cy="-64.2" r="4.53" fill="lightgreen" stroke="#ccc" stroke-width="1.66"/><text x="3.6" y="-61.9" text-anchor="middle" font-size="5.7" font-family="Tahoma,Geneva,sans-serif" font-weight="bold" fill="rgb(100,100,100)">A</text><circle cx="17.8" cy="-59.1" r="4.53" fill="lightgreen" stroke="#ccc" stroke-width="1.66"/><text x="17.8" y="-56.8" text-anchor="middle" font-size="5.7" font-family="Tahoma,Geneva,sans-serif" font-weight="bold" fill="rgb(100,100,100)">A</text><circle cx="32.9" cy="-58.4" r="4.53" fill="lightgreen" stroke="#ccc" stroke-width="1.66"/><text x="32.9" y="-56.1" text-anchor="middle" font-size="5.7" font-family="Tahoma,Geneva,sans-serif" font-weight="bold" fill="rgb(100,100,100)">U</text><circle cx="47.6" cy="-62.2" r="4.53" fill="lightgreen" stroke="#ccc" stroke-width="1.66"/><text x="47.6" y="-59.9" text-anchor="middle" font-size="5.7" font-family="Tahoma,Geneva,sans-serif" font-weight="bold" fill="rgb(100,100,100)">G</text><circle cx="60.4" cy="-70.1" r="4.53" fill="lightgreen" stroke="#ccc" stroke-width="1.66"/><text x="60.4" y="-67.8" text-anchor="middle" font-size="5.7" font-family="Tahoma,Geneva,sans-serif" font-weight="bold" fill="rgb(100,100,100)">G</text><circle cx="70.4" cy="-81.5" r="4.53" fill="lightgreen" stroke="#ccc" stroke-width="1.66"/><text x="70.4" y="-79.2" text-anchor="middle" font-size="5.7" font-family="Tahoma,Geneva,sans-serif" font-weight="bold" fill="rgb(100,100,100)">C</text><circle cx="76.5" cy="-95.3" r="4.53" fill="lightgreen" stroke="#ccc" stroke-width="1.66"/><text x="76.5" y="-93.0" text-anchor="middle" font-size="5.7" font-family="Tahoma,Geneva,sans-serif" font-weight="bold" fill="rgb(100,100,100)">U</text><circle cx="91.4" cy="-93.5" r="4.53" fill="lightgreen" stroke="#ccc" stroke-width="1.66"/><text x="91.4" y="-91.2" text-anchor="middle" font-size="5.7" font-family="Tahoma,Geneva,sans-serif" font-weight="bold" fill="rgb(100,100,100)">G</text><circle cx="105.5" cy="-88.2" r="4.53" fill="lightgreen" stroke="#ccc" stroke-width="1.66"/><text x="105.5" y="-85.9" text-anchor="middle" font-size="5.7" font-family="Tahoma,Geneva,sans-serif" font-weight="bold" fill="rgb(100,100,100)">U</text><circle cx="117.8" cy="-79.6" r="4.53" fill="lightgreen" stroke="#ccc" stroke-width="1.66"/><text x="117.8" y="-77.4" text-anchor="middle" font-size="5.7" font-family="Tahoma,Geneva,sans-serif" font-weight="bold" fill="rgb(100,100,100)">C</text><circle cx="130.1" cy="-71.1" r="4.53" fill="lightgreen" stroke="#ccc" stroke-width="1.66"/><text x="130.1" y="-68.9" text-anchor="middle" font-size="5.7" font-family="Tahoma,Geneva,sans-serif" font-weight="bold" fill="rgb(100,100,100)">A</text><circle cx="126.6" cy="-56.4" r="4.53" fill="lightgreen" stroke="#ccc" stroke-width="1.66"/><text x="126.6" y="-54.1" text-anchor="middle" font-size="5.7" font-family="Tahoma,Geneva,sans-serif" font-weight="bold" fill="rgb(100,100,100)">G</text><circle cx="128.6" cy="-41.3" r="4.53" fill="lightgreen" stroke="#ccc" stroke-width="1.66"/><text x="128.6" y="-39.1" text-anchor="middle" font-size="5.7" font-family="Tahoma,Geneva,sans-serif" font-weight="bold" fill="rgb(100,100,100)">C</text><circle cx="136.1" cy="-28.2" r="4.53" fill="lightblue" stroke="#ccc" stroke-width="1.66"/><text x="136.1" y="-25.9" text-anchor="middle" font-size="5.7" font-family="Tahoma,Geneva,sans-serif" font-weight="bold" fill="rgb(100,100,100)">A</text><circle cx="147.6" cy="-18.3" r="4.53" fill="lightgreen" stroke="#ccc" stroke-width="1.66"/><text x="147.6" y="-16.0" text-anchor="middle" font-size="5.7" font-family="Tahoma,Geneva,sans-serif" font-weight="bold" fill="rgb(100,100,100)">C</text><circle cx="161.9" cy="-13.4" r="4.53" fill="lightgreen" stroke="#ccc" stroke-width="1.66"/><text x="161.9" y="-11.1" text-anchor="middle" font-size="5.7" font-family="Tahoma,Geneva,sans-serif" font-weight="bold" fill="rgb(100,100,100)">A</text><circle cx="177.1" cy="-14.0" r="4.53" fill="lightgreen" stroke="#ccc" stroke-width="1.66"/><text x="177.1" y="-11.8" text-anchor="middle" font-size="5.7" font-family="Tahoma,Geneva,sans-serif" font-weight="bold" fill="rgb(100,100,100)">U</text><circle cx="191.0" cy="-20.1" r="4.53" fill="lightgreen" stroke="#ccc" stroke-width="1.66"/><text x="191.0" y="-17.8" text-anchor="middle" font-size="5.7" font-family="Tahoma,Geneva,sans-serif" font-weight="bold" fill="rgb(100,100,100)">U</text><circle cx="201.8" cy="-30.8" r="4.53" fill="lightgreen" stroke="#ccc" stroke-width="1.66"/><text x="201.8" y="-28.5" text-anchor="middle" font-size="5.7" font-family="Tahoma,Geneva,sans-serif" font-weight="bold" fill="rgb(100,100,100)">A</text><circle cx="207.9" cy="-44.7" r="4.53" fill="lightgreen" stroke="#ccc" stroke-width="1.66"/><text x="207.9" y="-42.4" text-anchor="middle" font-size="5.7" font-family="Tahoma,Geneva,sans-serif" font-weight="bold" fill="rgb(100,100,100)">A</text><circle cx="208.4" cy="-59.8" r="4.53" fill="lightblue" stroke="#ccc" stroke-width="1.66"/><text x="208.4" y="-57.5" text-anchor="middle" font-size="5.7" font-family="Tahoma,Geneva,sans-serif" font-weight="bold" fill="rgb(100,100,100)">G</text><circle cx="203.9" cy="-74.2" r="4.53" fill="lightgreen" stroke="#ccc" stroke-width="1.66"/><text x="203.9" y="-72.0" text-anchor="middle" font-size="5.7" font-family="Tahoma,Geneva,sans-serif" font-weight="bold" fill="rgb(100,100,100)">U</text><circle cx="194.3" cy="-85.9" r="4.53" fill="lightgreen" stroke="#ccc" stroke-width="1.66"/><text x="194.3" y="-83.7" text-anchor="middle" font-size="5.7" font-family="Tahoma,Geneva,sans-serif" font-weight="bold" fill="rgb(100,100,100)">A</text><circle cx="181.0" cy="-93.3" r="4.53" fill="lightgreen" stroke="#ccc" stroke-width="1.66"/><text x="181.0" y="-91.1" text-anchor="middle" font-size="5.7" font-family="Tahoma,Geneva,sans-serif" font-weight="bold" fill="rgb(100,100,100)">U</text><circle cx="166.0" cy="-95.5" r="4.53" fill="lightgreen" stroke="#ccc" stroke-width="1.66"/><text x="166.0" y="-93.2" text-anchor="middle" font-size="5.7" font-family="Tahoma,Geneva,sans-serif" font-weight="bold" fill="rgb(100,100,100)">U</text><circle cx="151.3" cy="-91.8" r="4.53" fill="lightblue" stroke="#ccc" stroke-width="1.66"/><text x="151.3" y="-89.5" text-anchor="middle" font-size="5.7" font-family="Tahoma,Geneva,sans-serif" font-weight="bold" fill="rgb(100,100,100)">A</text><circle cx="138.7" cy="-83.5" r="4.53" fill="lightgreen" stroke="#ccc" stroke-width="1.66"/><text x="138.7" y="-81.2" text-anchor="middle" font-size="5.7" font-family="Tahoma,Geneva,sans-serif" font-weight="bold" fill="rgb(100,100,100)">U</text><circle cx="126.3" cy="-92.0" r="4.53" fill="lightgreen" stroke="#ccc" stroke-width="1.66"/><text x="126.3" y="-89.7" text-anchor="middle" font-size="5.7" font-family="Tahoma,Geneva,sans-serif" font-weight="bold" fill="rgb(100,100,100)">G</text><circle cx="114.0" cy="-100.5" r="4.53" fill="lightgreen" stroke="#ccc" stroke-width="1.66"/><text x="114.0" y="-98.2" text-anchor="middle" font-size="5.7" font-family="Tahoma,Geneva,sans-serif" font-weight="bold" fill="rgb(100,100,100)">A</text><circle cx="121.8" cy="-113.7" r="4.53" fill="lightsalmon" stroke="#ccc" stroke-width="1.66"/><text x="121.8" y="-111.4" text-anchor="middle" font-size="5.7" font-family="Tahoma,Geneva,sans-serif" font-weight="bold" fill="rgb(100,100,100)">A</text><circle cx="136.2" cy="-118.7" r="4.53" fill="lightgreen" stroke="#ccc" stroke-width="1.66"/><text x="136.2" y="-116.4" text-anchor="middle" font-size="5.7" font-family="Tahoma,Geneva,sans-serif" font-weight="bold" fill="rgb(100,100,100)">U</text><circle cx="136.0" cy="-133.7" r="4.53" fill="lightgreen" stroke="#ccc" stroke-width="1.66"/><text x="136.0" y="-131.4" text-anchor="middle" font-size="5.7" font-family="Tahoma,Geneva,sans-serif" font-weight="bold" fill="rgb(100,100,100)">A</text><circle cx="127.4" cy="-146.0" r="4.53" fill="lightgreen" stroke="#ccc" stroke-width="1.66"/><text x="127.4" y="-143.7" text-anchor="middle" font-size="5.7" font-family="Tahoma,Geneva,sans-serif" font-weight="bold" fill="rgb(100,100,100)">C</text><circle cx="113.3" cy="-151.3" r="4.53" fill="lightgreen" stroke="#ccc" stroke-width="1.66"/><text x="113.3" y="-149.0" text-anchor="middle" font-size="5.7" font-family="Tahoma,Geneva,sans-serif" font-weight="bold" fill="rgb(100,100,100)">C</text><circle cx="98.8" cy="-147.8" r="4.53" fill="lightgreen" stroke="#ccc" stroke-width="1.66"/><text x="98.8" y="-145.5" text-anchor="middle" font-size="5.7" font-family="Tahoma,Geneva,sans-serif" font-weight="bold" fill="rgb(100,100,100)">G</text><circle cx="88.7" cy="-136.7" r="4.53" fill="lightgreen" stroke="#ccc" stroke-width="1.66"/><text x="88.7" y="-134.4" text-anchor="middle" font-size="5.7" font-family="Tahoma,Geneva,sans-serif" font-weight="bold" fill="rgb(100,100,100)">G</text></svg>