<svg xmlns="http://www.w3.org/2000/svg" viewBox="0 0 760 640" width="760" height="640"><style>svg {
  display: block;
  min-width: 100%;
  width: 100%;
  min-height: 100%;
}

circle.node {
  stroke: #ccc;
  stroke-width: 1px;
  opacity: 1;
  fill: white;
}

circle.node.label {
    stroke: transparent;
    stroke-width: 0;
    fill: white;
}

circle.outline_node {
    stroke-width: 1px;
    fill: red;
}

circle.protein {
    fill: gray;
    fill-opacity: 0.5;
    stroke-width: 4;
}

circle.hidden_outline {
    stroke-width: 0px;
}


line.link {
  stroke: #999;
  stroke-opacity: 0.8;
  stroke-width: 2;
}

line.basepair {
  stroke: red;
}

line.intermolecule {
  stroke: blue;
}

line.chain_chain {
  stroke-dasharray: 3,3;
}

line.fake {
  stroke: green;
}

.transparent {
    fill: transparent;
    stroke-width: 0;
    stroke-opacity: 0;
    opacity: 0;
    visibility: hidden;
}

.drag_line {
  stroke: #999;
  stroke-width: 2;
  pointer-events: none;
}

.drag_line_hidden {
  stroke: #999;
  stroke-width: 0;
  pointer-events: none;
}

.d3-tip {
    line-height: 1;
    font-weight: bold;
    padding: 6px;
    background: rgba(0, 0, 0, 0.6);
    color: #fff;
    border-radius: 4px;
    pointer-events: none;
          }

text.node-label {
    font-weight: bold;
    font-family: Tahoma, Geneva, sans-serif;
    color: rgb(100,100,100);
    pointer-events: none;
}

text {
    pointer-events: none;
}

g.gnode {

}

circle.outline_node.selected {
    visibility: visible;
}

circle.outline_node {
    visibility: hidden;
}

.brush .extent {
  fill-opacity: .1;
  stroke: #fff;
  shape-rendering: crispEdges;
}

.noselect {
    -webkit-touch-callout: none;
    -webkit-user-select: none;
    -khtml-user-select: none;
    -moz-user-select: none;
    -ms-user-select: none;
    user-select: none;
}

svg {
  display: block;
  min-width: 100%;
  width: 100%;
  min-height: 100%;
}

circle.node {
  stroke: #ccc;
  stroke-width: 1px;
  opacity: 1;
  fill: white;
}

circle.node.label {
    stroke: transparent;
    stroke-width: 0;
    fill: white;
}

circle.outline_node {
    stroke-width: 1px;
    fill: red;
}

circle.protein {
    fill: gray;
    fill-opacity: 0.5;
    stroke-width: 4;
}

circle.hidden_outline {
    stroke-width: 0px;
}


line.link {
  stroke: #999;
  stroke-opacity: 0.8;
  stroke-width: 2;
}

line.basepair {
  stroke: red;
}

line.intermolecule {
  stroke: blue;
}

line.chain_chain {
  stroke-dasharray: 3,3;
}

line.fake {
  stroke: green;
}

.transparent {
    fill: transparent;
    stroke-width: 0;
    stroke-opacity: 0;
    opacity: 0;
    visibility: hidden;
}

.drag_line {
  stroke: #999;
  stroke-width: 2;
  pointer-events: none;
}

.drag_line_hidden {
  stroke: #999;
  stroke-width: 0;
  pointer-events: none;
}

.d3-tip {
    line-height: 1;
    font-weight: bold;
    padding: 6px;
    background: rgba(0, 0, 0, 0.6);
    color: #fff;
    border-radius: 4px;
    pointer-events: none;
          }

text.node-label {
    font-weight: bold;
    font-family: Tahoma, Geneva, sans-serif;
    color: rgb(100,100,100);
    pointer-events: none;
}

text {
    pointer-events: none;
}

g.gnode {

}

circle.outline_node.selected {
    visibility: visible;
}

circle.outline_node {
    visibility: hidden;
}

.brush .extent {
  fill-opacity: .1;
  stroke: #fff;
  shape-rendering: crispEdges;
}

.noselect {
    -webkit-touch-callout: none;
    -webkit-user-select: none;
    -khtml-user-select: none;
    -moz-user-select: none;
    -ms-user-select: none;
    user-select: none;
}
/*# sourceURL=/Users/yumanakamura/ipy_sandbox/sandbox/claude_sandbox/mrna-transformer-worktrees/feat-issue57-switch-derna-knotty/scripts/eval/prerender/forna_vendor/fornac.css*/</style><style></style><g><g class="brush" style="pointer-events: all; -webkit-tap-highlight-color: rgba(0, 0, 0, 0);"><rect class="background" x="0" width="760" y="0" height="640" style="visibility: hidden; cursor: auto;"></rect><rect class="extent" x="0" width="0" y="0" height="0" style="cursor: move;"></rect><g class="resize n" transform="translate(0,0)" style="cursor: ns-resize; display: none;"><rect y="-3" width="0" height="6" style="visibility: hidden;"></rect></g><g class="resize e" transform="translate(0,0)" style="cursor: ew-resize; display: none;"><rect x="-3" width="6" height="0" style="visibility: hidden;"></rect></g><g class="resize s" transform="translate(0,0)" style="cursor: ns-resize; display: none;"><rect y="-3" width="0" height="6" style="visibility: hidden;"></rect></g><g class="resize w" transform="translate(0,0)" style="cursor: ew-resize; display: none;"><rect x="-3" width="6" height="0" style="visibility: hidden;"></rect></g><g class="resize nw" transform="translate(0,0)" style="cursor: nwse-resize; display: none;"><rect x="-3" y="-3" width="6" height="6" style="visibility: hidden;"></rect></g><g class="resize ne" transform="translate(0,0)" style="cursor: nesw-resize; display: none;"><rect x="-3" y="-3" width="6" height="6" style="visibility: hidden;"></rect></g><g class="resize se" transform="translate(0,0)" style="cursor: nwse-resize; display: none;"><rect x="-3" y="-3" width="6" height="6" style="visibility: hidden;"></rect></g><g class="resize sw" transform="translate(0,0)" style="cursor: nesw-resize; display: none;"><rect x="-3" y="-3" width="6" height="6" style="visibility: hidden;"></rect></g></g><g transform="translate(187.65,164.77) scale(1.75)"><g><line class="link basepair" x1="60.35" y1="194.75" x2="58.11" y2="180.26"></line><line class="link basepair" x1="46.97" y1="199.40" x2="40.83" y2="186.41"></line><line class="link backbone" x1="60.35" y1="194.75" x2="46.97" y2="199.40"></line><line class="link basepair" x1="33.80" y1="207.15" x2="25.87" y2="195.02"></line><line class="link backbone" x1="46.97" y1="199.40" x2="33.80" y2="207.15"></line><line class="link basepair" x1="21.44" y1="216.26" x2="12.41" y2="204.31"></line><line class="link backbone" x1="33.80" y1="207.15" x2="21.44" y2="216.26"></line><line class="link backbone" x1="21.44" y1="216.26" x2="17.79" y2="231.31"></line><line class="link backbone" x1="17.79" y1="231.31" x2="4.04" y2="237.73"></line><line class="link backbone" x1="4.04" y1="237.73" x2="-9.60" y2="230.97"></line><line class="link backbone" x1="-9.60" y1="230.97" x2="-12.81" y2="216.09"></line><line class="link backbone" x1="-12.81" y1="216.09" x2="-3.24" y2="204.34"></line><line class="link basepair" x1="12.41" y1="204.31" x2="21.44" y2="216.26"></line><line class="link backbone" x1="-3.24" y1="204.34" x2="12.41" y2="204.31"></line><line class="link basepair" x1="25.87" y1="195.02" x2="33.80" y2="207.15"></line><line class="link backbone" x1="12.41" y1="204.31" x2="25.87" y2="195.02"></line><line class="link basepair" x1="40.83" y1="186.41" x2="46.97" y2="199.40"></line><line class="link backbone" x1="25.87" y1="195.02" x2="40.83" y2="186.41"></line><line class="link basepair" x1="58.11" y1="180.26" x2="60.35" y2="194.75"></line><line class="link backbone" x1="40.83" y1="186.41" x2="58.11" y2="180.26"></line><line class="link basepair" x1="69.02" y1="166.39" x2="83.60" y2="165.99"></line><line class="link backbone" x1="58.11" y1="180.26" x2="69.02" y2="166.39"></line><line class="link basepair" x1="71.53" y1="148.29" x2="85.46" y2="151.65"></line><line class="link backbone" x1="69.02" y1="166.39" x2="71.53" y2="148.29"></line><line class="link basepair" x1="77.11" y1="131.69" x2="90.40" y2="137.27"></line><line class="link backbone" x1="71.53" y1="148.29" x2="77.11" y2="131.69"></line><line class="link basepair" x1="84.87" y1="116.32" x2="97.32" y2="123.66"></line><line class="link backbone" x1="77.11" y1="131.69" x2="84.87" y2="116.32"></line><line class="link basepair" x1="93.93" y1="102.24" x2="105.90" y2="110.76"></line><line class="link backbone" x1="84.87" y1="116.32" x2="93.93" y2="102.24"></line><line class="link backbone" x1="93.93" y1="102.24" x2="95.66" y2="86.87"></line><line class="link basepair" x1="109.88" y1="80.69" x2="121.62" y2="89.57"></line><line class="link backbone" x1="95.66" y1="86.87" x2="109.88" y2="80.69"></line><line class="link basepair" x1="119.84" y1="67.98" x2="131.32" y2="76.84"></line><line class="link backbone" x1="109.88" y1="80.69" x2="119.84" y2="67.98"></line><line class="link basepair" x1="129.54" y1="55.25" x2="141.18" y2="63.96"></line><line class="link backbone" x1="119.84" y1="67.98" x2="129.54" y2="55.25"></line><line class="link basepair" x1="138.95" y1="42.37" x2="150.79" y2="50.83"></line><line class="link backbone" x1="129.54" y1="55.25" x2="138.95" y2="42.37"></line><line class="link basepair" x1="148.20" y1="29.30" x2="160.09" y2="37.60"></line><line class="link backbone" x1="138.95" y1="42.37" x2="148.20" y2="29.30"></line><line class="link basepair" x1="157.22" y1="16.04" x2="169.35" y2="24.35"></line><line class="link backbone" x1="148.20" y1="29.30" x2="157.22" y2="16.04"></line><line class="link backbone" x1="157.22" y1="16.04" x2="158.33" y2="0.71"></line><line class="link basepair" x1="172.19" y1="-5.93" x2="184.35" y2="2.35"></line><line class="link backbone" x1="158.33" y1="0.71" x2="172.19" y2="-5.93"></line><line class="link basepair" x1="181.34" y1="-19.13" x2="193.31" y2="-10.91"></line><line class="link backbone" x1="172.19" y1="-5.93" x2="181.34" y2="-19.13"></line><line class="link basepair" x1="190.22" y1="-32.36" x2="202.48" y2="-23.89"></line><line class="link backbone" x1="181.34" y1="-19.13" x2="190.22" y2="-32.36"></line><line class="link backbone" x1="190.22" y1="-32.36" x2="187.69" y2="-47.55"></line><line class="link backbone" x1="187.69" y1="-47.55" x2="196.27" y2="-59.87"></line><line class="link backbone" x1="196.27" y1="-59.87" x2="211.06" y2="-62.40"></line><line class="link backbone" x1="211.06" y1="-62.40" x2="223.31" y2="-53.89"></line><line class="link backbone" x1="223.31" y1="-53.89" x2="226.12" y2="-39.16"></line><line class="link backbone" x1="226.12" y1="-39.16" x2="217.58" y2="-26.81"></line><line class="link basepair" x1="202.48" y1="-23.89" x2="190.22" y2="-32.36"></line><line class="link backbone" x1="217.58" y1="-26.81" x2="202.48" y2="-23.89"></line><line class="link basepair" x1="193.31" y1="-10.91" x2="181.34" y2="-19.13"></line><line class="link backbone" x1="202.48" y1="-23.89" x2="193.31" y2="-10.91"></line><line class="link basepair" x1="184.35" y1="2.35" x2="172.19" y2="-5.93"></line><line class="link backbone" x1="193.31" y1="-10.91" x2="184.35" y2="2.35"></line><line class="link backbone" x1="184.35" y1="2.35" x2="183.25" y2="17.64"></line><line class="link basepair" x1="169.35" y1="24.35" x2="157.22" y2="16.04"></line><line class="link backbone" x1="183.25" y1="17.64" x2="169.35" y2="24.35"></line><line class="link basepair" x1="160.09" y1="37.60" x2="148.20" y2="29.30"></line><line class="link backbone" x1="169.35" y1="24.35" x2="160.09" y2="37.60"></line><line class="link basepair" x1="150.79" y1="50.83" x2="138.95" y2="42.37"></line><line class="link backbone" x1="160.09" y1="37.60" x2="150.79" y2="50.83"></line><line class="link basepair" x1="141.18" y1="63.96" x2="129.54" y2="55.25"></line><line class="link backbone" x1="150.79" y1="50.83" x2="141.18" y2="63.96"></line><line class="link basepair" x1="131.32" y1="76.84" x2="119.84" y2="67.98"></line><line class="link backbone" x1="141.18" y1="63.96" x2="131.32" y2="76.84"></line><line class="link basepair" x1="121.62" y1="89.57" x2="109.88" y2="80.69"></line><line class="link backbone" x1="131.32" y1="76.84" x2="121.62" y2="89.57"></line><line class="link backbone" x1="121.62" y1="89.57" x2="119.93" y2="104.72"></line><line class="link basepair" x1="105.90" y1="110.76" x2="93.93" y2="102.24"></line><line class="link backbone" x1="119.93" y1="104.72" x2="105.90" y2="110.76"></line><line class="link basepair" x1="97.32" y1="123.66" x2="84.87" y2="116.32"></line><line class="link backbone" x1="105.90" y1="110.76" x2="97.32" y2="123.66"></line><line class="link basepair" x1="90.40" y1="137.27" x2="77.11" y2="131.69"></line><line class="link backbone" x1="97.32" y1="123.66" x2="90.40" y2="137.27"></line><line class="link basepair" x1="85.46" y1="151.65" x2="71.53" y2="148.29"></line><line class="link backbone" x1="90.40" y1="137.27" x2="85.46" y2="151.65"></line><line class="link basepair" x1="83.60" y1="165.99" x2="69.02" y2="166.39"></line><line class="link backbone" x1="85.46" y1="151.65" x2="83.60" y2="165.99"></line><line class="link backbone" x1="83.60" y1="165.99" x2="97.29" y2="172.41"></line><line class="link backbone" x1="97.29" y1="172.41" x2="102.69" y2="186.35"></line><line class="link backbone" x1="102.69" y1="186.35" x2="97.55" y2="200.27"></line><line class="link label_link" x1="12.41" y1="204.31" x2="1.46" y2="193.31"></line><line class="link label_link" x1="109.88" y1="80.69" x2="97.77" y2="70.92"></line><line class="link label_link" x1="187.69" y1="-47.55" x2="179.00" y2="-60.42"></line><line class="link label_link" x1="169.35" y1="24.35" x2="180.86" y2="34.88"></line><line class="link label_link" x1="85.46" y1="151.65" x2="100.54" y2="155.42"></line><line class="link fake transparent" x1="109.88" y1="80.69" x2="120.66" y2="78.77"></line><line class="link fake transparent" x1="109.88" y1="80.69" x2="131.32" y2="76.84"></line><line class="link fake transparent" x1="119.84" y1="67.98" x2="120.66" y2="78.77"></line><line class="link fake transparent" x1="131.32" y1="76.84" x2="120.66" y2="78.77"></line><line class="link fake transparent" x1="121.62" y1="89.57" x2="120.66" y2="78.77"></line><line class="link fake transparent" x1="119.84" y1="67.98" x2="130.53" y2="66.06"></line><line class="link fake transparent" x1="129.54" y1="55.25" x2="130.53" y2="66.06"></line><line class="link fake transparent" x1="141.18" y1="63.96" x2="130.53" y2="66.06"></line><line class="link fake transparent" x1="131.32" y1="76.84" x2="130.53" y2="66.06"></line><line class="link fake transparent" x1="129.54" y1="55.25" x2="140.20" y2="53.15"></line><line class="link fake transparent" x1="138.95" y1="42.37" x2="140.20" y2="53.15"></line><line class="link fake transparent" x1="150.79" y1="50.83" x2="140.20" y2="53.15"></line><line class="link fake transparent" x1="141.18" y1="63.96" x2="140.20" y2="53.15"></line><line class="link fake transparent" x1="138.95" y1="42.37" x2="149.54" y2="40.06"></line><line class="link fake transparent" x1="148.20" y1="29.30" x2="149.54" y2="40.06"></line><line class="link fake transparent" x1="160.09" y1="37.60" x2="149.54" y2="40.06"></line><line class="link fake transparent" x1="150.79" y1="50.83" x2="149.54" y2="40.06"></line><line class="link fake transparent" x1="148.20" y1="29.30" x2="158.72" y2="26.85"></line><line class="link fake transparent" x1="157.22" y1="16.04" x2="158.72" y2="26.85"></line><line class="link fake transparent" x1="169.35" y1="24.35" x2="158.72" y2="26.85"></line><line class="link fake transparent" x1="160.09" y1="37.60" x2="158.72" y2="26.85"></line><line class="link fake transparent" x1="172.19" y1="-5.93" x2="182.80" y2="-8.44"></line><line class="link fake transparent" x1="181.34" y1="-19.13" x2="182.80" y2="-8.44"></line><line class="link fake transparent" x1="193.31" y1="-10.91" x2="182.80" y2="-8.44"></line><line class="link fake transparent" x1="184.35" y1="2.35" x2="182.80" y2="-8.44"></line><line class="link fake transparent" x1="181.34" y1="-19.13" x2="191.88" y2="-21.65"></line><line class="link fake transparent" x1="190.22" y1="-32.36" x2="191.88" y2="-21.65"></line><line class="link fake transparent" x1="202.48" y1="-23.89" x2="191.88" y2="-21.65"></line><line class="link fake transparent" x1="193.31" y1="-10.91" x2="191.88" y2="-21.65"></line><line class="link fake transparent" x1="60.35" y1="194.75" x2="51.21" y2="189.35"></line><line class="link fake transparent" x1="46.97" y1="199.40" x2="51.21" y2="189.35"></line><line class="link fake transparent" x1="40.83" y1="186.41" x2="51.21" y2="189.35"></line><line class="link fake transparent" x1="58.11" y1="180.26" x2="51.21" y2="189.35"></line><line class="link fake transparent" x1="46.97" y1="199.40" x2="36.58" y2="196.59"></line><line class="link fake transparent" x1="33.80" y1="207.15" x2="36.58" y2="196.59"></line><line class="link fake transparent" x1="25.87" y1="195.02" x2="36.58" y2="196.59"></line><line class="link fake transparent" x1="40.83" y1="186.41" x2="36.58" y2="196.59"></line><line class="link fake transparent" x1="33.80" y1="207.15" x2="23.13" y2="205.58"></line><line class="link fake transparent" x1="21.44" y1="216.26" x2="23.13" y2="205.58"></line><line class="link fake transparent" x1="12.41" y1="204.31" x2="23.13" y2="205.58"></line><line class="link fake transparent" x1="25.87" y1="195.02" x2="23.13" y2="205.58"></line><line class="link fake transparent" x1="69.02" y1="166.39" x2="76.51" y2="157.85"></line><line class="link fake transparent" x1="71.53" y1="148.29" x2="76.51" y2="157.85"></line><line class="link fake transparent" x1="85.46" y1="151.65" x2="76.51" y2="157.85"></line><line class="link fake transparent" x1="83.60" y1="165.99" x2="76.51" y2="157.85"></line><line class="link fake transparent" x1="71.53" y1="148.29" x2="80.54" y2="141.97"></line><line class="link fake transparent" x1="77.11" y1="131.69" x2="80.54" y2="141.97"></line><line class="link fake transparent" x1="90.40" y1="137.27" x2="80.54" y2="141.97"></line><line class="link fake transparent" x1="85.46" y1="151.65" x2="80.54" y2="141.97"></line><line class="link fake transparent" x1="77.11" y1="131.69" x2="86.96" y2="126.94"></line><line class="link fake transparent" x1="84.87" y1="116.32" x2="86.96" y2="126.94"></line><line class="link fake transparent" x1="97.32" y1="123.66" x2="86.96" y2="126.94"></line><line class="link fake transparent" x1="90.40" y1="137.27" x2="86.96" y2="126.94"></line><line class="link fake transparent" x1="84.87" y1="116.32" x2="95.18" y2="113.06"></line><line class="link fake transparent" x1="93.93" y1="102.24" x2="95.18" y2="113.06"></line><line class="link fake transparent" x1="105.90" y1="110.76" x2="95.18" y2="113.06"></line><line class="link fake transparent" x1="97.32" y1="123.66" x2="95.18" y2="113.06"></line><line class="link fake transparent" x1="60.35" y1="194.75" x2="79.95" y2="186.39"></line><line class="link fake transparent" x1="60.35" y1="194.75" x2="97.29" y2="172.41"></line><line class="link fake transparent" x1="58.11" y1="180.26" x2="79.95" y2="186.39"></line><line class="link fake transparent" x1="58.11" y1="180.26" x2="102.69" y2="186.35"></line><line class="link fake transparent" x1="69.02" y1="166.39" x2="79.95" y2="186.39"></line><line class="link fake transparent" x1="69.02" y1="166.39" x2="97.55" y2="200.27"></line><line class="link fake transparent" x1="83.60" y1="165.99" x2="79.95" y2="186.39"></line><line class="link fake transparent" x1="83.60" y1="165.99" x2="89.07" y2="210.44"></line><line class="link fake transparent" x1="97.29" y1="172.41" x2="79.95" y2="186.39"></line><line class="link fake transparent" x1="97.29" y1="172.41" x2="71.70" y2="209.23"></line><line class="link fake transparent" x1="102.69" y1="186.35" x2="79.95" y2="186.39"></line><line class="link fake transparent" x1="102.69" y1="186.35" x2="60.35" y2="194.75"></line><line class="link fake transparent" x1="97.55" y1="200.27" x2="79.95" y2="186.39"></line><line class="link fake transparent" x1="97.55" y1="200.27" x2="58.11" y2="180.26"></line><line class="link fake transparent" x1="190.22" y1="-32.36" x2="206.79" y2="-43.17"></line><line class="link fake transparent" x1="190.22" y1="-32.36" x2="223.31" y2="-53.89"></line><line class="link fake transparent" x1="187.69" y1="-47.55" x2="206.79" y2="-43.17"></line><line class="link fake transparent" x1="187.69" y1="-47.55" x2="226.12" y2="-39.16"></line><line class="link fake transparent" x1="196.27" y1="-59.87" x2="206.79" y2="-43.17"></line><line class="link fake transparent" x1="196.27" y1="-59.87" x2="217.58" y2="-26.81"></line><line class="link fake transparent" x1="211.06" y1="-62.40" x2="206.79" y2="-43.17"></line><line class="link fake transparent" x1="211.06" y1="-62.40" x2="202.48" y2="-23.89"></line><line class="link fake transparent" x1="223.31" y1="-53.89" x2="206.79" y2="-43.17"></line><line class="link fake transparent" x1="223.31" y1="-53.89" x2="190.22" y2="-32.36"></line><line class="link fake transparent" x1="226.12" y1="-39.16" x2="206.79" y2="-43.17"></line><line class="link fake transparent" x1="226.12" y1="-39.16" x2="187.69" y2="-47.55"></line><line class="link fake transparent" x1="217.58" y1="-26.81" x2="206.79" y2="-43.17"></line><line class="link fake transparent" x1="217.58" y1="-26.81" x2="196.27" y2="-59.87"></line><line class="link fake transparent" x1="202.48" y1="-23.89" x2="206.79" y2="-43.17"></line><line class="link fake transparent" x1="202.48" y1="-23.89" x2="211.06" y2="-62.40"></line><line class="link fake transparent" x1="21.44" y1="216.26" x2="4.35" y2="220.06"></line><line class="link fake transparent" x1="21.44" y1="216.26" x2="-9.60" y2="230.97"></line><line class="link fake transparent" x1="17.79" y1="231.31" x2="4.35" y2="220.06"></line><line class="link fake transparent" x1="17.79" y1="231.31" x2="-12.81" y2="216.09"></line><line class="link fake transparent" x1="4.04" y1="237.73" x2="4.35" y2="220.06"></line><line class="link fake transparent" x1="4.04" y1="237.73" x2="-3.24" y2="204.34"></line><line class="link fake transparent" x1="-9.60" y1="230.97" x2="4.35" y2="220.06"></line><line class="link fake transparent" x1="-9.60" y1="230.97" x2="12.41" y2="204.31"></line><line class="link fake transparent" x1="-12.81" y1="216.09" x2="4.35" y2="220.06"></line><line class="link fake transparent" x1="-12.81" y1="216.09" x2="21.44" y2="216.26"></line><line class="link fake transparent" x1="-3.24" y1="204.34" x2="4.35" y2="220.06"></line><line class="link fake transparent" x1="-3.24" y1="204.34" x2="17.79" y2="231.31"></line><line class="link fake transparent" x1="12.41" y1="204.31" x2="4.35" y2="220.06"></line><line class="link fake transparent" x1="12.41" y1="204.31" x2="4.04" y2="237.73"></line><line class="link fake transparent" x1="157.22" y1="16.04" x2="170.78" y2="9.19"></line><line class="link fake transparent" x1="157.22" y1="16.04" x2="184.35" y2="2.35"></line><line class="link fake transparent" x1="158.33" y1="0.71" x2="170.78" y2="9.19"></line><line class="link fake transparent" x1="158.33" y1="0.71" x2="183.25" y2="17.64"></line><line class="link fake transparent" x1="172.19" y1="-5.93" x2="170.78" y2="9.19"></line><line class="link fake transparent" x1="172.19" y1="-5.93" x2="169.35" y2="24.35"></line><line class="link fake transparent" x1="184.35" y1="2.35" x2="170.78" y2="9.19"></line><line class="link fake transparent" x1="184.35" y1="2.35" x2="157.22" y2="16.04"></line><line class="link fake transparent" x1="183.25" y1="17.64" x2="170.78" y2="9.19"></line><line class="link fake transparent" x1="183.25" y1="17.64" x2="158.33" y2="0.71"></line><line class="link fake transparent" x1="169.35" y1="24.35" x2="170.78" y2="9.19"></line><line class="link fake transparent" x1="169.35" y1="24.35" x2="172.19" y2="-5.93"></line><line class="link fake transparent" x1="93.93" y1="102.24" x2="107.74" y2="95.76"></line><line class="link fake transparent" x1="93.93" y1="102.24" x2="121.62" y2="89.57"></line><line class="link fake transparent" x1="95.66" y1="86.87" x2="107.74" y2="95.76"></line><line class="link fake transparent" x1="95.66" y1="86.87" x2="119.93" y2="104.72"></line><line class="link fake transparent" x1="109.88" y1="80.69" x2="107.74" y2="95.76"></line><line class="link fake transparent" x1="109.88" y1="80.69" x2="105.90" y2="110.76"></line><line class="link fake transparent" x1="121.62" y1="89.57" x2="107.74" y2="95.76"></line><line class="link fake transparent" x1="121.62" y1="89.57" x2="93.93" y2="102.24"></line><line class="link fake transparent" x1="119.93" y1="104.72" x2="107.74" y2="95.76"></line><line class="link fake transparent" x1="119.93" y1="104.72" x2="95.66" y2="86.87"></line><line class="link fake transparent" x1="105.90" y1="110.76" x2="107.74" y2="95.76"></line><line class="link fake transparent" x1="105.90" y1="110.76" x2="109.88" y2="80.69"></line></g><g><g class="noselect gnode" struct_name="m" transform="translate(60.35,194.75)" r="6.5"><circle class="node" r="6" node_type="nucleotide" style="fill: lightgreen;"></circle><text text-anchor="middle" font-size="8" font-weight="bold" y="2.5" class="node-label">A</text></g><g class="noselect gnode" struct_name="m" transform="translate(46.97,199.40)" r="6.5"><circle class="node" r="6" node_type="nucleotide" style="fill: lightgreen;"></circle><text text-anchor="middle" font-size="8" font-weight="bold" y="2.5" class="node-label">G</text></g><g class="noselect gnode" struct_name="m" transform="translate(33.80,207.15)" r="6.5"><circle class="node" r="6" node_type="nucleotide" style="fill: lightgreen;"></circle><text text-anchor="middle" font-size="8" font-weight="bold" y="2.5" class="node-label">C</text></g><g class="noselect gnode" struct_name="m" transform="translate(21.44,216.26)" r="6.5"><circle class="node" r="6" node_type="nucleotide" style="fill: lightgreen;"></circle><text text-anchor="middle" font-size="8" font-weight="bold" y="2.5" class="node-label">U</text></g><g class="noselect gnode" struct_name="m" transform="translate(17.79,231.31)" r="6.5"><circle class="node" r="6" node_type="nucleotide" style="fill: lightblue;"></circle><text text-anchor="middle" font-size="8" font-weight="bold" y="2.5" class="node-label">U</text></g><g class="noselect gnode" struct_name="m" transform="translate(4.04,237.73)" r="6.5"><circle class="node" r="6" node_type="nucleotide" style="fill: lightblue;"></circle><text text-anchor="middle" font-size="8" font-weight="bold" y="2.5" class="node-label">U</text></g><g class="noselect gnode" struct_name="m" transform="translate(-9.60,230.97)" r="6.5"><circle class="node" r="6" node_type="nucleotide" style="fill: lightblue;"></circle><text text-anchor="middle" font-size="8" font-weight="bold" y="2.5" class="node-label">U</text></g><g class="noselect gnode" struct_name="m" transform="translate(-12.81,216.09)" r="6.5"><circle class="node" r="6" node_type="nucleotide" style="fill: lightblue;"></circle><text text-anchor="middle" font-size="8" font-weight="bold" y="2.5" class="node-label">U</text></g><g class="noselect gnode" struct_name="m" transform="translate(-3.24,204.34)" r="6.5"><circle class="node" r="6" node_type="nucleotide" style="fill: lightblue;"></circle><text text-anchor="middle" font-size="8" font-weight="bold" y="2.5" class="node-label">U</text></g><g class="noselect gnode" struct_name="m" transform="translate(12.41,204.31)" r="6.5"><circle class="node" r="6" node_type="nucleotide" style="fill: lightgreen;"></circle><text text-anchor="middle" font-size="8" font-weight="bold" y="2.5" class="node-label">A</text></g><g class="noselect gnode" struct_name="m" transform="translate(25.87,195.02)" r="6.5"><circle class="node" r="6" node_type="nucleotide" style="fill: lightgreen;"></circle><text text-anchor="middle" font-size="8" font-weight="bold" y="2.5" class="node-label">G</text></g><g class="noselect gnode" struct_name="m" transform="translate(40.83,186.41)" r="6.5"><circle class="node" r="6" node_type="nucleotide" style="fill: lightgreen;"></circle><text text-anchor="middle" font-size="8" font-weight="bold" y="2.5" class="node-label">C</text></g><g class="noselect gnode" struct_name="m" transform="translate(58.11,180.26)" r="6.5"><circle class="node" r="6" node_type="nucleotide" style="fill: lightgreen;"></circle><text text-anchor="middle" font-size="8" font-weight="bold" y="2.5" class="node-label">U</text></g><g class="noselect gnode" struct_name="m" transform="translate(69.02,166.39)" r="6.5"><circle class="node" r="6" node_type="nucleotide" style="fill: lightgreen;"></circle><text text-anchor="middle" font-size="8" font-weight="bold" y="2.5" class="node-label">A</text></g><g class="noselect gnode" struct_name="m" transform="translate(71.53,148.29)" r="6.5"><circle class="node" r="6" node_type="nucleotide" style="fill: lightgreen;"></circle><text text-anchor="middle" font-size="8" font-weight="bold" y="2.5" class="node-label">U</text></g><g class="noselect gnode" struct_name="m" transform="translate(77.11,131.69)" r="6.5"><circle class="node" r="6" node_type="nucleotide" style="fill: lightgreen;"></circle><text text-anchor="middle" font-size="8" font-weight="bold" y="2.5" class="node-label">G</text></g><g class="noselect gnode" struct_name="m" transform="translate(84.87,116.32)" r="6.5"><circle class="node" r="6" node_type="nucleotide" style="fill: lightgreen;"></circle><text text-anchor="middle" font-size="8" font-weight="bold" y="2.5" class="node-label">C</text></g><g class="noselect gnode" struct_name="m" transform="translate(93.93,102.24)" r="6.5"><circle class="node" r="6" node_type="nucleotide" style="fill: lightgreen;"></circle><text text-anchor="middle" font-size="8" font-weight="bold" y="2.5" class="node-label">U</text></g><g class="noselect gnode" struct_name="m" transform="translate(95.66,86.87)" r="6.5"><circle class="node" r="6" node_type="nucleotide" style="fill: rgb(219, 219, 141);"></circle><text text-anchor="middle" font-size="8" font-weight="bold" y="2.5" class="node-label">A</text></g><g class="noselect gnode" struct_name="m" transform="translate(109.88,80.69)" r="6.5"><circle class="node" r="6" node_type="nucleotide" style="fill: lightgreen;"></circle><text text-anchor="middle" font-size="8" font-weight="bold" y="2.5" class="node-label">U</text></g><g class="noselect gnode" struct_name="m" transform="translate(119.84,67.98)" r="6.5"><circle class="node" r="6" node_type="nucleotide" style="fill: lightgreen;"></circle><text text-anchor="middle" font-size="8" font-weight="bold" y="2.5" class="node-label">U</text></g><g class="noselect gnode" struct_name="m" transform="translate(129.54,55.25)" r="6.5"><circle class="node" r="6" node_type="nucleotide" style="fill: lightgreen;"></circle><text text-anchor="middle" font-size="8" font-weight="bold" y="2.5" class="node-label">G</text></g><g class="noselect gnode" struct_name="m" transform="translate(138.95,42.37)" r="6.5"><circle class="node" r="6" node_type="nucleotide" style="fill: lightgreen;"></circle><text text-anchor="middle" font-size="8" font-weight="bold" y="2.5" class="node-label">A</text></g><g class="noselect gnode" struct_name="m" transform="translate(148.20,29.30)" r="6.5"><circle class="node" r="6" node_type="nucleotide" style="fill: lightgreen;"></circle><text text-anchor="middle" font-size="8" font-weight="bold" y="2.5" class="node-label">C</text></g><g class="noselect gnode" struct_name="m" transform="translate(157.22,16.04)" r="6.5"><circle class="node" r="6" node_type="nucleotide" style="fill: lightgreen;"></circle><text text-anchor="middle" font-size="8" font-weight="bold" y="2.5" class="node-label">C</text></g><g class="noselect gnode" struct_name="m" transform="translate(158.33,0.71)" r="6.5"><circle class="node" r="6" node_type="nucleotide" style="fill: rgb(219, 219, 141);"></circle><text text-anchor="middle" font-size="8" font-weight="bold" y="2.5" class="node-label">C</text></g><g class="noselect gnode" struct_name="m" transform="translate(172.19,-5.93)" r="6.5"><circle class="node" r="6" node_type="nucleotide" style="fill: lightgreen;"></circle><text text-anchor="middle" font-size="8" font-weight="bold" y="2.5" class="node-label">U</text></g><g class="noselect gnode" struct_name="m" transform="translate(181.34,-19.13)" r="6.5"><circle class="node" r="6" node_type="nucleotide" style="fill: lightgreen;"></circle><text text-anchor="middle" font-size="8" font-weight="bold" y="2.5" class="node-label">U</text></g><g class="noselect gnode" struct_name="m" transform="translate(190.22,-32.36)" r="6.5"><circle class="node" r="6" node_type="nucleotide" style="fill: lightgreen;"></circle><text text-anchor="middle" font-size="8" font-weight="bold" y="2.5" class="node-label">G</text></g><g class="noselect gnode" struct_name="m" transform="translate(187.69,-47.55)" r="6.5"><circle class="node" r="6" node_type="nucleotide" style="fill: lightblue;"></circle><text text-anchor="middle" font-size="8" font-weight="bold" y="2.5" class="node-label">G</text></g><g class="noselect gnode" struct_name="m" transform="translate(196.27,-59.87)" r="6.5"><circle class="node" r="6" node_type="nucleotide" style="fill: lightblue;"></circle><text text-anchor="middle" font-size="8" font-weight="bold" y="2.5" class="node-label">A</text></g><g class="noselect gnode" struct_name="m" transform="translate(211.06,-62.40)" r="6.5"><circle class="node" r="6" node_type="nucleotide" style="fill: lightblue;"></circle><text text-anchor="middle" font-size="8" font-weight="bold" y="2.5" class="node-label">A</text></g><g class="noselect gnode" struct_name="m" transform="translate(223.31,-53.89)" r="6.5"><circle class="node" r="6" node_type="nucleotide" style="fill: lightblue;"></circle><text text-anchor="middle" font-size="8" font-weight="bold" y="2.5" class="node-label">A</text></g><g class="noselect gnode" struct_name="m" transform="translate(226.12,-39.16)" r="6.5"><circle class="node" r="6" node_type="nucleotide" style="fill: lightblue;"></circle><text text-anchor="middle" font-size="8" font-weight="bold" y="2.5" class="node-label">U</text></g><g class="noselect gnode" struct_name="m" transform="translate(217.58,-26.81)" r="6.5"><circle class="node" r="6" node_type="nucleotide" style="fill: lightblue;"></circle><text text-anchor="middle" font-size="8" font-weight="bold" y="2.5" class="node-label">A</text></g><g class="noselect gnode" struct_name="m" transform="translate(202.48,-23.89)" r="6.5"><circle class="node" r="6" node_type="nucleotide" style="fill: lightgreen;"></circle><text text-anchor="middle" font-size="8" font-weight="bold" y="2.5" class="node-label">C</text></g><g class="noselect gnode" struct_name="m" transform="translate(193.31,-10.91)" r="6.5"><circle class="node" r="6" node_type="nucleotide" style="fill: lightgreen;"></circle><text text-anchor="middle" font-size="8" font-weight="bold" y="2.5" class="node-label">A</text></g><g class="noselect gnode" struct_name="m" transform="translate(184.35,2.35)" r="6.5"><circle class="node" r="6" node_type="nucleotide" style="fill: lightgreen;"></circle><text text-anchor="middle" font-size="8" font-weight="bold" y="2.5" class="node-label">A</text></g><g class="noselect gnode" struct_name="m" transform="translate(183.25,17.64)" r="6.5"><circle class="node" r="6" node_type="nucleotide" style="fill: rgb(219, 219, 141);"></circle><text text-anchor="middle" font-size="8" font-weight="bold" y="2.5" class="node-label">U</text></g><g class="noselect gnode" struct_name="m" transform="translate(169.35,24.35)" r="6.5"><circle class="node" r="6" node_type="nucleotide" style="fill: lightgreen;"></circle><text text-anchor="middle" font-size="8" font-weight="bold" y="2.5" class="node-label">G</text></g><g class="noselect gnode" struct_name="m" transform="translate(160.09,37.60)" r="6.5"><circle class="node" r="6" node_type="nucleotide" style="fill: lightgreen;"></circle><text text-anchor="middle" font-size="8" font-weight="bold" y="2.5" class="node-label">G</text></g><g class="noselect gnode" struct_name="m" transform="translate(150.79,50.83)" r="6.5"><circle class="node" r="6" node_type="nucleotide" style="fill: lightgreen;"></circle><text text-anchor="middle" font-size="8" font-weight="bold" y="2.5" class="node-label">U</text></g><g class="noselect gnode" struct_name="m" transform="translate(141.18,63.96)" r="6.5"><circle class="node" r="6" node_type="nucleotide" style="fill: lightgreen;"></circle><text text-anchor="middle" font-size="8" font-weight="bold" y="2.5" class="node-label">C</text></g><g class="noselect gnode" struct_name="m" transform="translate(131.32,76.84)" r="6.5"><circle class="node" r="6" node_type="nucleotide" style="fill: lightgreen;"></circle><text text-anchor="middle" font-size="8" font-weight="bold" y="2.5" class="node-label">A</text></g><g class="noselect gnode" struct_name="m" transform="translate(121.62,89.57)" r="6.5"><circle class="node" r="6" node_type="nucleotide" style="fill: lightgreen;"></circle><text text-anchor="middle" font-size="8" font-weight="bold" y="2.5" class="node-label">A</text></g><g class="noselect gnode" struct_name="m" transform="translate(119.93,104.72)" r="6.5"><circle class="node" r="6" node_type="nucleotide" style="fill: rgb(219, 219, 141);"></circle><text text-anchor="middle" font-size="8" font-weight="bold" y="2.5" class="node-label">G</text></g><g class="noselect gnode" struct_name="m" transform="translate(105.90,110.76)" r="6.5"><circle class="node" r="6" node_type="nucleotide" style="fill: lightgreen;"></circle><text text-anchor="middle" font-size="8" font-weight="bold" y="2.5" class="node-label">A</text></g><g class="noselect gnode" struct_name="m" transform="translate(97.32,123.66)" r="6.5"><circle class="node" r="6" node_type="nucleotide" style="fill: lightgreen;"></circle><text text-anchor="middle" font-size="8" font-weight="bold" y="2.5" class="node-label">G</text></g><g class="noselect gnode" struct_name="m" transform="translate(90.40,137.27)" r="6.5"><circle class="node" r="6" node_type="nucleotide" style="fill: lightgreen;"></circle><text text-anchor="middle" font-size="8" font-weight="bold" y="2.5" class="node-label">C</text></g><g class="noselect gnode" struct_name="m" transform="translate(85.46,151.65)" r="6.5"><circle class="node" r="6" node_type="nucleotide" style="fill: lightgreen;"></circle><text text-anchor="middle" font-size="8" font-weight="bold" y="2.5" class="node-label">A</text></g><g class="noselect gnode" struct_name="m" transform="translate(83.60,165.99)" r="6.5"><circle class="node" r="6" node_type="nucleotide" style="fill: lightgreen;"></circle><text text-anchor="middle" font-size="8" font-weight="bold" y="2.5" class="node-label">U</text></g><g class="noselect gnode" struct_name="m" transform="translate(97.29,172.41)" r="6.5"><circle class="node" r="6" node_type="nucleotide" style="fill: lightsalmon;"></circle><text text-anchor="middle" font-size="8" font-weight="bold" y="2.5" class="node-label">C</text></g><g class="noselect gnode" struct_name="m" transform="translate(102.69,186.35)" r="6.5"><circle class="node" r="6" node_type="nucleotide" style="fill: lightsalmon;"></circle><text text-anchor="middle" font-size="8" font-weight="bold" y="2.5" class="node-label">A</text></g><g class="noselect gnode" struct_name="m" transform="translate(97.55,200.27)" r="6.5"><circle class="node" r="6" node_type="nucleotide" style="fill: lightsalmon;"></circle><text text-anchor="middle" font-size="8" font-weight="bold" y="2.5" class="node-label">U</text></g><g class="noselect gnode" struct_name="m" transform="translate(1.46,193.31)" r="6.5"><circle class="node label" r="6" node_type="label"></circle><text text-anchor="middle" font-size="8" font-weight="bold" y="2.5" class="node-label">10</text></g><g class="noselect gnode" struct_name="m" transform="translate(97.77,70.92)" r="6.5"><circle class="node label" r="6" node_type="label"></circle><text text-anchor="middle" font-size="8" font-weight="bold" y="2.5" class="node-label">20</text></g><g class="noselect gnode" struct_name="m" transform="translate(179.00,-60.42)" r="6.5"><circle class="node label" r="6" node_type="label"></circle><text text-anchor="middle" font-size="8" font-weight="bold" y="2.5" class="node-label">30</text></g><g class="noselect gnode" struct_name="m" transform="translate(180.86,34.88)" r="6.5"><circle class="node label" r="6" node_type="label"></circle><text text-anchor="middle" font-size="8" font-weight="bold" y="2.5" class="node-label">40</text></g><g class="noselect gnode" struct_name="m" transform="translate(100.54,155.42)" r="6.5"><circle class="node label" r="6" node_type="label"></circle><text text-anchor="middle" font-size="8" font-weight="bold" y="2.5" class="node-label">50</text></g><g class="noselect gnode" transform="translate(120.66,78.77)" r="6.5"><circle class="node" r="0" node_type="middle"></circle><text text-anchor="middle" font-size="8" font-weight="bold" y="2.5" class="node-label"></text></g><g class="noselect gnode" transform="translate(130.53,66.06)" r="6.5"><circle class="node" r="0" node_type="middle"></circle><text text-anchor="middle" font-size="8" font-weight="bold" y="2.5" class="node-label"></text></g><g class="noselect gnode" transform="translate(140.20,53.15)" r="6.5"><circle class="node" r="0" node_type="middle"></circle><text text-anchor="middle" font-size="8" font-weight="bold" y="2.5" class="node-label"></text></g><g class="noselect gnode" transform="translate(149.54,40.06)" r="6.5"><circle class="node" r="0" node_type="middle"></circle><text text-anchor="middle" font-size="8" font-weight="bold" y="2.5" class="node-label"></text></g><g class="noselect gnode" transform="translate(158.72,26.85)" r="6.5"><circle class="node" r="0" node_type="middle"></circle><text text-anchor="middle" font-size="8" font-weight="bold" y="2.5" class="node-label"></text></g><g class="noselect gnode" transform="translate(182.80,-8.44)" r="6.5"><circle class="node" r="0" node_type="middle"></circle><text text-anchor="middle" font-size="8" font-weight="bold" y="2.5" class="node-label"></text></g><g class="noselect gnode" transform="translate(191.88,-21.65)" r="6.5"><circle class="node" r="0" node_type="middle"></circle><text text-anchor="middle" font-size="8" font-weight="bold" y="2.5" class="node-label"></text></g><g class="noselect gnode" transform="translate(51.21,189.35)" r="6.5"><circle class="node" r="0" node_type="middle"></circle><text text-anchor="middle" font-size="8" font-weight="bold" y="2.5" class="node-label"></text></g><g class="noselect gnode" transform="translate(36.58,196.59)" r="6.5"><circle class="node" r="0" node_type="middle"></circle><text text-anchor="middle" font-size="8" font-weight="bold" y="2.5" class="node-label"></text></g><g class="noselect gnode" transform="translate(23.13,205.58)" r="6.5"><circle class="node" r="0" node_type="middle"></circle><text text-anchor="middle" font-size="8" font-weight="bold" y="2.5" class="node-label"></text></g><g class="noselect gnode" transform="translate(76.51,157.85)" r="6.5"><circle class="node" r="0" node_type="middle"></circle><text text-anchor="middle" font-size="8" font-weight="bold" y="2.5" class="node-label"></text></g><g class="noselect gnode" transform="translate(80.54,141.97)" r="6.5"><circle class="node" r="0" node_type="middle"></circle><text text-anchor="middle" font-size="8" font-weight="bold" y="2.5" class="node-label"></text></g><g class="noselect gnode" transform="translate(86.96,126.94)" r="6.5"><circle class="node" r="0" node_type="middle"></circle><text text-anchor="middle" font-size="8" font-weight="bold" y="2.5" class="node-label"></text></g><g class="noselect gnode" transform="translate(95.18,113.06)" r="6.5"><circle class="node" r="0" node_type="middle"></circle><text text-anchor="middle" font-size="8" font-weight="bold" y="2.5" class="node-label"></text></g><g class="noselect gnode" transform="translate(89.07,210.44)" r="6.5"><circle class="node" r="0" node_type="middle"></circle><text text-anchor="middle" font-size="8" font-weight="bold" y="2.5" class="node-label"></text></g><g class="noselect gnode" transform="translate(71.70,209.23)" r="6.5"><circle class="node" r="0" node_type="middle"></circle><text text-anchor="middle" font-size="8" font-weight="bold" y="2.5" class="node-label"></text></g><g class="noselect gnode" transform="translate(79.95,186.39)" r="6.5"><circle class="node" r="0" node_type="middle"></circle><text text-anchor="middle" font-size="8" font-weight="bold" y="2.5" class="node-label"></text></g><g class="noselect gnode" transform="translate(206.79,-43.17)" r="6.5"><circle class="node" r="0" node_type="middle"></circle><text text-anchor="middle" font-size="8" font-weight="bold" y="2.5" class="node-label"></text></g><g class="noselect gnode" transform="translate(4.35,220.06)" r="6.5"><circle class="node" r="0" node_type="middle"></circle><text text-anchor="middle" font-size="8" font-weight="bold" y="2.5" class="node-label"></text></g><g class="noselect gnode" transform="translate(170.78,9.19)" r="6.5"><circle class="node" r="0" node_type="middle"></circle><text text-anchor="middle" font-size="8" font-weight="bold" y="2.5" class="node-label"></text></g><g class="noselect gnode" transform="translate(107.74,95.76)" r="6.5"><circle class="node" r="0" node_type="middle"></circle><text text-anchor="middle" font-size="8" font-weight="bold" y="2.5" class="node-label"></text></g></g><line class="drag_line" x1="0" y1="0" x2="0" y2="0"></line></g></g></svg>