<svg xmlns="http://www.w3.org/2000/svg" viewBox="-73.0 -198.7 359.2 185.1" width="359" height="185"><style></style><line x1="22.0" y1="-133.2" x2="17.3" y2="-119.0" stroke="#999" stroke-width="1.58" stroke-opacity="0.8"/><line x1="36.2" y1="-128.6" x2="31.6" y2="-114.3" stroke="#999" stroke-width="1.58" stroke-opacity="0.8"/><line x1="50.5" y1="-124.0" x2="45.9" y2="-109.7" stroke="#999" stroke-width="1.58" stroke-opacity="0.8"/><line x1="6.4" y1="-108.2" x2="46.5" y2="-87.3" stroke="#d9534f" stroke-width="1.58" stroke-opacity="0.6"/><line x1="-8.2" y1="-103.8" x2="50.2" y2="-76.6" stroke="#d9534f" stroke-width="1.58" stroke-opacity="0.6"/><line x1="-35.2" y1="-116.3" x2="56.1" y2="-66.9" stroke="#d9534f" stroke-width="1.58" stroke-opacity="0.6"/><line x1="-41.3" y1="-130.3" x2="63.8" y2="-58.7" stroke="#d9534f" stroke-width="1.58" stroke-opacity="0.6"/><line x1="-40.2" y1="-145.6" x2="73.0" y2="-52.1" stroke="#d9534f" stroke-width="1.58" stroke-opacity="0.6"/><line x1="-32.1" y1="-158.6" x2="83.3" y2="-47.6" stroke="#d9534f" stroke-width="1.58" stroke-opacity="0.6"/><line x1="-18.9" y1="-166.3" x2="94.4" y2="-45.3" stroke="#d9534f" stroke-width="1.58" stroke-opacity="0.6"/><line x1="-3.6" y1="-167.0" x2="105.6" y2="-45.3" stroke="#d9534f" stroke-width="1.58" stroke-opacity="0.6"/><line x1="10.2" y1="-160.5" x2="116.7" y2="-47.6" stroke="#d9534f" stroke-width="1.58" stroke-opacity="0.6"/><line x1="19.5" y1="-148.3" x2="127.0" y2="-52.1" stroke="#d9534f" stroke-width="1.58" stroke-opacity="0.6"/><line x1="225.5" y1="-132.9" x2="220.8" y2="-147.1" stroke="#999" stroke-width="1.58" stroke-opacity="0.8"/><line x1="211.2" y1="-128.2" x2="206.6" y2="-142.5" stroke="#999" stroke-width="1.58" stroke-opacity="0.8"/><line x1="196.9" y1="-123.6" x2="192.3" y2="-137.9" stroke="#999" stroke-width="1.58" stroke-opacity="0.8"/><line x1="182.7" y1="-119.0" x2="178.0" y2="-133.2" stroke="#999" stroke-width="1.58" stroke-opacity="0.8"/><line x1="168.4" y1="-114.3" x2="163.8" y2="-128.6" stroke="#999" stroke-width="1.58" stroke-opacity="0.8"/><line x1="154.1" y1="-109.7" x2="149.5" y2="-124.0" stroke="#999" stroke-width="1.58" stroke-opacity="0.8"/><line x1="75.3" y1="-147.5" x2="62.9" y2="-135.8" stroke="#999" stroke-width="1.58" stroke-opacity="0.8"/><line x1="62.9" y1="-135.8" x2="50.5" y2="-124.0" stroke="#999" stroke-width="1.58" stroke-opacity="0.8"/><line x1="50.5" y1="-124.0" x2="36.2" y2="-128.6" stroke="#999" stroke-width="1.58" stroke-opacity="0.8"/><line x1="36.2" y1="-128.6" x2="22.0" y2="-133.2" stroke="#999" stroke-width="1.58" stroke-opacity="0.8"/><line x1="22.0" y1="-133.2" x2="19.5" y2="-148.3" stroke="#999" stroke-width="1.58" stroke-opacity="0.8"/><line x1="19.5" y1="-148.3" x2="10.2" y2="-160.5" stroke="#999" stroke-width="1.58" stroke-opacity="0.8"/><line x1="10.2" y1="-160.5" x2="-3.6" y2="-167.0" stroke="#999" stroke-width="1.58" stroke-opacity="0.8"/><line x1="-3.6" y1="-167.0" x2="-18.9" y2="-166.3" stroke="#999" stroke-width="1.58" stroke-opacity="0.8"/><line x1="-18.9" y1="-166.3" x2="-32.1" y2="-158.6" stroke="#999" stroke-width="1.58" stroke-opacity="0.8"/><line x1="-32.1" y1="-158.6" x2="-40.2" y2="-145.6" stroke="#999" stroke-width="1.58" stroke-opacity="0.8"/><line x1="-40.2" y1="-145.6" x2="-41.3" y2="-130.3" stroke="#999" stroke-width="1.58" stroke-opacity="0.8"/><line x1="-41.3" y1="-130.3" x2="-35.2" y2="-116.3" stroke="#999" stroke-width="1.58" stroke-opacity="0.8"/><line x1="-35.2" y1="-116.3" x2="-22.1" y2="-109.1" stroke="#999" stroke-width="1.58" stroke-opacity="0.8"/><line x1="-22.1" y1="-109.1" x2="-8.2" y2="-103.8" stroke="#999" stroke-width="1.58" stroke-opacity="0.8"/><line x1="-8.2" y1="-103.8" x2="6.4" y2="-108.2" stroke="#999" stroke-width="1.58" stroke-opacity="0.8"/><line x1="6.4" y1="-108.2" x2="17.3" y2="-119.0" stroke="#999" stroke-width="1.58" stroke-opacity="0.8"/><line x1="17.3" y1="-119.0" x2="31.6" y2="-114.3" stroke="#999" stroke-width="1.58" stroke-opacity="0.8"/><line x1="31.6" y1="-114.3" x2="45.9" y2="-109.7" stroke="#999" stroke-width="1.58" stroke-opacity="0.8"/><line x1="45.9" y1="-109.7" x2="37.6" y2="-97.4" stroke="#999" stroke-width="1.58" stroke-opacity="0.8"/><line x1="37.6" y1="-97.4" x2="46.5" y2="-87.3" stroke="#999" stroke-width="1.58" stroke-opacity="0.8"/><line x1="46.5" y1="-87.3" x2="50.2" y2="-76.6" stroke="#999" stroke-width="1.58" stroke-opacity="0.8"/><line x1="50.2" y1="-76.6" x2="56.1" y2="-66.9" stroke="#999" stroke-width="1.58" stroke-opacity="0.8"/><line x1="56.1" y1="-66.9" x2="63.8" y2="-58.7" stroke="#999" stroke-width="1.58" stroke-opacity="0.8"/><line x1="63.8" y1="-58.7" x2="73.0" y2="-52.1" stroke="#999" stroke-width="1.58" stroke-opacity="0.8"/><line x1="73.0" y1="-52.1" x2="83.3" y2="-47.6" stroke="#999" stroke-width="1.58" stroke-opacity="0.8"/><line x1="83.3" y1="-47.6" x2="94.4" y2="-45.3" stroke="#999" stroke-width="1.58" stroke-opacity="0.8"/><line x1="94.4" y1="-45.3" x2="105.6" y2="-45.3" stroke="#999" stroke-width="1.58" stroke-opacity="0.8"/><line x1="105.6" y1="-45.3" x2="116.7" y2="-47.6" stroke="#999" stroke-width="1.58" stroke-opacity="0.8"/><line x1="116.7" y1="-47.6" x2="127.0" y2="-52.1" stroke="#999" stroke-width="1.58" stroke-opacity="0.8"/><line x1="127.0" y1="-52.1" x2="141.4" y2="-51.6" stroke="#999" stroke-width="1.58" stroke-opacity="0.8"/><line x1="141.4" y1="-51.6" x2="141.7" y2="-66.1" stroke="#999" stroke-width="1.58" stroke-opacity="0.8"/><line x1="141.7" y1="-66.1" x2="154.5" y2="-72.2" stroke="#999" stroke-width="1.58" stroke-opacity="0.8"/><line x1="154.5" y1="-72.2" x2="163.6" y2="-83.2" stroke="#999" stroke-width="1.58" stroke-opacity="0.8"/><line x1="163.6" y1="-83.2" x2="156.7" y2="-95.7" stroke="#999" stroke-width="1.58" stroke-opacity="0.8"/><line x1="156.7" y1="-95.7" x2="154.1" y2="-109.7" stroke="#999" stroke-width="1.58" stroke-opacity="0.8"/><line x1="154.1" y1="-109.7" x2="168.4" y2="-114.3" stroke="#999" stroke-width="1.58" stroke-opacity="0.8"/><line x1="168.4" y1="-114.3" x2="182.7" y2="-119.0" stroke="#999" stroke-width="1.58" stroke-opacity="0.8"/><line x1="182.7" y1="-119.0" x2="196.9" y2="-123.6" stroke="#999" stroke-width="1.58" stroke-opacity="0.8"/><line x1="196.9" y1="-123.6" x2="211.2" y2="-128.2" stroke="#999" stroke-width="1.58" stroke-opacity="0.8"/><line x1="211.2" y1="-128.2" x2="225.5" y2="-132.9" stroke="#999" stroke-width="1.58" stroke-opacity="0.8"/><line x1="225.5" y1="-132.9" x2="239.4" y2="-129.3" stroke="#999" stroke-width="1.58" stroke-opacity="0.8"/><line x1="239.4" y1="-129.3" x2="252.2" y2="-136.0" stroke="#999" stroke-width="1.58" stroke-opacity="0.8"/><line x1="252.2" y1="-136.0" x2="254.5" y2="-150.2" stroke="#999" stroke-width="1.58" stroke-opacity="0.8"/><line x1="254.5" y1="-150.2" x2="244.3" y2="-160.4" stroke="#999" stroke-width="1.58" stroke-opacity="0.8"/><line x1="244.3" y1="-160.4" x2="230.0" y2="-158.2" stroke="#999" stroke-width="1.58" stroke-opacity="0.8"/><line x1="230.0" y1="-158.2" x2="220.8" y2="-147.1" stroke="#999" stroke-width="1.58" stroke-opacity="0.8"/><line x1="220.8" y1="-147.1" x2="206.6" y2="-142.5" stroke="#999" stroke-width="1.58" stroke-opacity="0.8"/><line x1="206.6" y1="-142.5" x2="192.3" y2="-137.9" stroke="#999" stroke-width="1.58" stroke-opacity="0.8"/><line x1="192.3" y1="-137.9" x2="178.0" y2="-133.2" stroke="#999" stroke-width="1.58" stroke-opacity="0.8"/><line x1="178.0" y1="-133.2" x2="163.8" y2="-128.6" stroke="#999" stroke-width="1.58" stroke-opacity="0.8"/><line x1="163.8" y1="-128.6" x2="149.5" y2="-124.0" stroke="#999" stroke-width="1.58" stroke-opacity="0.8"/><line x1="149.5" y1="-124.0" x2="137.1" y2="-135.8" stroke="#999" stroke-width="1.58" stroke-opacity="0.8"/><line x1="137.1" y1="-135.8" x2="124.7" y2="-147.5" stroke="#999" stroke-width="1.58" stroke-opacity="0.8"/><text x="63.4" y="-157.5" text-anchor="middle" font-size="7.5" font-family="Tahoma,Geneva,sans-serif" fill="#999">1</text><text x="-44.2" y="-168.3" text-anchor="middle" font-size="7.5" font-family="Tahoma,Geneva,sans-serif" fill="#999">10</text><text x="20.3" y="-94.3" text-anchor="middle" font-size="7.5" font-family="Tahoma,Geneva,sans-serif" fill="#999">20</text><text x="129.8" y="-32.4" text-anchor="middle" font-size="7.5" font-family="Tahoma,Geneva,sans-serif" fill="#999">30</text><text x="216.5" y="-109.2" text-anchor="middle" font-size="7.5" font-family="Tahoma,Geneva,sans-serif" fill="#999">40</text><text x="172.7" y="-147.1" text-anchor="middle" font-size="7.5" font-family="Tahoma,Geneva,sans-serif" fill="#999">50</text><circle cx="75.3" cy="-147.5" r="4.32" fill="lightsalmon" stroke="#ccc" stroke-width="1.58"/><text x="75.3" y="-145.4" text-anchor="middle" font-size="5.4" font-family="Tahoma,Geneva,sans-serif" font-weight="bold" fill="rgb(100,100,100)">C</text><circle cx="62.9" cy="-135.8" r="4.32" fill="lightsalmon" stroke="#ccc" stroke-width="1.58"/><text x="62.9" y="-133.6" text-anchor="middle" font-size="5.4" font-family="Tahoma,Geneva,sans-serif" font-weight="bold" fill="rgb(100,100,100)">A</text><circle cx="50.5" cy="-124.0" r="4.32" fill="lightgreen" stroke="#ccc" stroke-width="1.58"/><text x="50.5" y="-121.8" text-anchor="middle" font-size="5.4" font-family="Tahoma,Geneva,sans-serif" font-weight="bold" fill="rgb(100,100,100)">G</text><circle cx="36.2" cy="-128.6" r="4.32" fill="lightgreen" stroke="#ccc" stroke-width="1.58"/><text x="36.2" y="-126.4" text-anchor="middle" font-size="5.4" font-family="Tahoma,Geneva,sans-serif" font-weight="bold" fill="rgb(100,100,100)">C</text><circle cx="22.0" cy="-133.2" r="4.32" fill="lightgreen" stroke="#ccc" stroke-width="1.58"/><text x="22.0" y="-131.1" text-anchor="middle" font-size="5.4" font-family="Tahoma,Geneva,sans-serif" font-weight="bold" fill="rgb(100,100,100)">C</text><circle cx="19.5" cy="-148.3" r="4.32" fill="lightgreen" stroke="#ccc" stroke-width="1.58"/><text x="19.5" y="-146.2" text-anchor="middle" font-size="5.4" font-family="Tahoma,Geneva,sans-serif" font-weight="bold" fill="rgb(100,100,100)">G</text><circle cx="10.2" cy="-160.5" r="4.32" fill="lightgreen" stroke="#ccc" stroke-width="1.58"/><text x="10.2" y="-158.4" text-anchor="middle" font-size="5.4" font-family="Tahoma,Geneva,sans-serif" font-weight="bold" fill="rgb(100,100,100)">A</text><circle cx="-3.6" cy="-167.0" r="4.32" fill="lightgreen" stroke="#ccc" stroke-width="1.58"/><text x="-3.6" y="-164.9" text-anchor="middle" font-size="5.4" font-family="Tahoma,Geneva,sans-serif" font-weight="bold" fill="rgb(100,100,100)">U</text><circle cx="-18.9" cy="-166.3" r="4.32" fill="lightgreen" stroke="#ccc" stroke-width="1.58"/><text x="-18.9" y="-164.1" text-anchor="middle" font-size="5.4" font-family="Tahoma,Geneva,sans-serif" font-weight="bold" fill="rgb(100,100,100)">G</text><circle cx="-32.1" cy="-158.6" r="4.32" fill="lightgreen" stroke="#ccc" stroke-width="1.58"/><text x="-32.1" y="-156.4" text-anchor="middle" font-size="5.4" font-family="Tahoma,Geneva,sans-serif" font-weight="bold" fill="rgb(100,100,100)">U</text><circle cx="-40.2" cy="-145.6" r="4.32" fill="lightgreen" stroke="#ccc" stroke-width="1.58"/><text x="-40.2" y="-143.4" text-anchor="middle" font-size="5.4" font-family="Tahoma,Geneva,sans-serif" font-weight="bold" fill="rgb(100,100,100)">G</text><circle cx="-41.3" cy="-130.3" r="4.32" fill="lightgreen" stroke="#ccc" stroke-width="1.58"/><text x="-41.3" y="-128.1" text-anchor="middle" font-size="5.4" font-family="Tahoma,Geneva,sans-serif" font-weight="bold" fill="rgb(100,100,100)">G</text><circle cx="-35.2" cy="-116.3" r="4.32" fill="lightgreen" stroke="#ccc" stroke-width="1.58"/><text x="-35.2" y="-114.1" text-anchor="middle" font-size="5.4" font-family="Tahoma,Geneva,sans-serif" font-weight="bold" fill="rgb(100,100,100)">U</text><circle cx="-22.1" cy="-109.1" r="4.32" fill="lightblue" stroke="#ccc" stroke-width="1.58"/><text x="-22.1" y="-107.0" text-anchor="middle" font-size="5.4" font-family="Tahoma,Geneva,sans-serif" font-weight="bold" fill="rgb(100,100,100)">A</text><circle cx="-8.2" cy="-103.8" r="4.32" fill="lightgreen" stroke="#ccc" stroke-width="1.58"/><text x="-8.2" y="-101.6" text-anchor="middle" font-size="5.4" font-family="Tahoma,Geneva,sans-serif" font-weight="bold" fill="rgb(100,100,100)">C</text><circle cx="6.4" cy="-108.2" r="4.32" fill="lightgreen" stroke="#ccc" stroke-width="1.58"/><text x="6.4" y="-106.1" text-anchor="middle" font-size="5.4" font-family="Tahoma,Geneva,sans-serif" font-weight="bold" fill="rgb(100,100,100)">U</text><circle cx="17.3" cy="-119.0" r="4.32" fill="lightgreen" stroke="#ccc" stroke-width="1.58"/><text x="17.3" y="-116.8" text-anchor="middle" font-size="5.4" font-family="Tahoma,Geneva,sans-serif" font-weight="bold" fill="rgb(100,100,100)">G</text><circle cx="31.6" cy="-114.3" r="4.32" fill="lightgreen" stroke="#ccc" stroke-width="1.58"/><text x="31.6" y="-112.2" text-anchor="middle" font-size="5.4" font-family="Tahoma,Geneva,sans-serif" font-weight="bold" fill="rgb(100,100,100)">G</text><circle cx="45.9" cy="-109.7" r="4.32" fill="lightgreen" stroke="#ccc" stroke-width="1.58"/><text x="45.9" y="-107.5" text-anchor="middle" font-size="5.4" font-family="Tahoma,Geneva,sans-serif" font-weight="bold" fill="rgb(100,100,100)">U</text><circle cx="37.6" cy="-97.4" r="4.32" fill="lightsalmon" stroke="#ccc" stroke-width="1.58"/><text x="37.6" y="-95.2" text-anchor="middle" font-size="5.4" font-family="Tahoma,Geneva,sans-serif" font-weight="bold" fill="rgb(100,100,100)">C</text><circle cx="46.5" cy="-87.3" r="4.32" fill="lightgreen" stroke="#ccc" stroke-width="1.58"/><text x="46.5" y="-85.1" text-anchor="middle" font-size="5.4" font-family="Tahoma,Geneva,sans-serif" font-weight="bold" fill="rgb(100,100,100)">A</text><circle cx="50.2" cy="-76.6" r="4.32" fill="lightgreen" stroke="#ccc" stroke-width="1.58"/><text x="50.2" y="-74.4" text-anchor="middle" font-size="5.4" font-family="Tahoma,Geneva,sans-serif" font-weight="bold" fill="rgb(100,100,100)">G</text><circle cx="56.1" cy="-66.9" r="4.32" fill="lightgreen" stroke="#ccc" stroke-width="1.58"/><text x="56.1" y="-64.8" text-anchor="middle" font-size="5.4" font-family="Tahoma,Geneva,sans-serif" font-weight="bold" fill="rgb(100,100,100)">A</text><circle cx="63.8" cy="-58.7" r="4.32" fill="lightgreen" stroke="#ccc" stroke-width="1.58"/><text x="63.8" y="-56.5" text-anchor="middle" font-size="5.4" font-family="Tahoma,Geneva,sans-serif" font-weight="bold" fill="rgb(100,100,100)">C</text><circle cx="73.0" cy="-52.1" r="4.32" fill="lightgreen" stroke="#ccc" stroke-width="1.58"/><text x="73.0" y="-50.0" text-anchor="middle" font-size="5.4" font-family="Tahoma,Geneva,sans-serif" font-weight="bold" fill="rgb(100,100,100)">U</text><circle cx="83.3" cy="-47.6" r="4.32" fill="lightgreen" stroke="#ccc" stroke-width="1.58"/><text x="83.3" y="-45.4" text-anchor="middle" font-size="5.4" font-family="Tahoma,Geneva,sans-serif" font-weight="bold" fill="rgb(100,100,100)">A</text><circle cx="94.4" cy="-45.3" r="4.32" fill="lightgreen" stroke="#ccc" stroke-width="1.58"/><text x="94.4" y="-43.1" text-anchor="middle" font-size="5.4" font-family="Tahoma,Geneva,sans-serif" font-weight="bold" fill="rgb(100,100,100)">C</text><circle cx="105.6" cy="-45.3" r="4.32" fill="lightgreen" stroke="#ccc" stroke-width="1.58"/><text x="105.6" y="-43.1" text-anchor="middle" font-size="5.4" font-family="Tahoma,Geneva,sans-serif" font-weight="bold" fill="rgb(100,100,100)">A</text><circle cx="116.7" cy="-47.6" r="4.32" fill="lightgreen" stroke="#ccc" stroke-width="1.58"/><text x="116.7" y="-45.4" text-anchor="middle" font-size="5.4" font-family="Tahoma,Geneva,sans-serif" font-weight="bold" fill="rgb(100,100,100)">U</text><circle cx="127.0" cy="-52.1" r="4.32" fill="lightgreen" stroke="#ccc" stroke-width="1.58"/><text x="127.0" y="-50.0" text-anchor="middle" font-size="5.4" font-family="Tahoma,Geneva,sans-serif" font-weight="bold" fill="rgb(100,100,100)">C</text><circle cx="141.4" cy="-51.6" r="4.32" fill="lightsalmon" stroke="#ccc" stroke-width="1.58"/><text x="141.4" y="-49.4" text-anchor="middle" font-size="5.4" font-family="Tahoma,Geneva,sans-serif" font-weight="bold" fill="rgb(100,100,100)">C</text><circle cx="141.7" cy="-66.1" r="4.32" fill="lightsalmon" stroke="#ccc" stroke-width="1.58"/><text x="141.7" y="-63.9" text-anchor="middle" font-size="5.4" font-family="Tahoma,Geneva,sans-serif" font-weight="bold" fill="rgb(100,100,100)">G</text><circle cx="154.5" cy="-72.2" r="4.32" fill="lightsalmon" stroke="#ccc" stroke-width="1.58"/><text x="154.5" y="-70.1" text-anchor="middle" font-size="5.4" font-family="Tahoma,Geneva,sans-serif" font-weight="bold" fill="rgb(100,100,100)">C</text><circle cx="163.6" cy="-83.2" r="4.32" fill="lightsalmon" stroke="#ccc" stroke-width="1.58"/><text x="163.6" y="-81.0" text-anchor="middle" font-size="5.4" font-family="Tahoma,Geneva,sans-serif" font-weight="bold" fill="rgb(100,100,100)">A</text><circle cx="156.7" cy="-95.7" r="4.32" fill="lightsalmon" stroke="#ccc" stroke-width="1.58"/><text x="156.7" y="-93.5" text-anchor="middle" font-size="5.4" font-family="Tahoma,Geneva,sans-serif" font-weight="bold" fill="rgb(100,100,100)">U</text><circle cx="154.1" cy="-109.7" r="4.32" fill="lightgreen" stroke="#ccc" stroke-width="1.58"/><text x="154.1" y="-107.5" text-anchor="middle" font-size="5.4" font-family="Tahoma,Geneva,sans-serif" font-weight="bold" fill="rgb(100,100,100)">A</text><circle cx="168.4" cy="-114.3" r="4.32" fill="lightgreen" stroke="#ccc" stroke-width="1.58"/><text x="168.4" y="-112.2" text-anchor="middle" font-size="5.4" font-family="Tahoma,Geneva,sans-serif" font-weight="bold" fill="rgb(100,100,100)">U</text><circle cx="182.7" cy="-119.0" r="4.32" fill="lightgreen" stroke="#ccc" stroke-width="1.58"/><text x="182.7" y="-116.8" text-anchor="middle" font-size="5.4" font-family="Tahoma,Geneva,sans-serif" font-weight="bold" fill="rgb(100,100,100)">G</text><circle cx="196.9" cy="-123.6" r="4.32" fill="lightgreen" stroke="#ccc" stroke-width="1.58"/><text x="196.9" y="-121.4" text-anchor="middle" font-size="5.4" font-family="Tahoma,Geneva,sans-serif" font-weight="bold" fill="rgb(100,100,100)">G</text><circle cx="211.2" cy="-128.2" r="4.32" fill="lightgreen" stroke="#ccc" stroke-width="1.58"/><text x="211.2" y="-126.1" text-anchor="middle" font-size="5.4" font-family="Tahoma,Geneva,sans-serif" font-weight="bold" fill="rgb(100,100,100)">G</text><circle cx="225.5" cy="-132.9" r="4.32" fill="lightgreen" stroke="#ccc" stroke-width="1.58"/><text x="225.5" y="-130.7" text-anchor="middle" font-size="5.4" font-family="Tahoma,Geneva,sans-serif" font-weight="bold" fill="rgb(100,100,100)">G</text><circle cx="239.4" cy="-129.3" r="4.32" fill="lightblue" stroke="#ccc" stroke-width="1.58"/><text x="239.4" y="-127.1" text-anchor="middle" font-size="5.4" font-family="Tahoma,Geneva,sans-serif" font-weight="bold" fill="rgb(100,100,100)">G</text><circle cx="252.2" cy="-136.0" r="4.32" fill="lightblue" stroke="#ccc" stroke-width="1.58"/><text x="252.2" y="-133.8" text-anchor="middle" font-size="5.4" font-family="Tahoma,Geneva,sans-serif" font-weight="bold" fill="rgb(100,100,100)">A</text><circle cx="254.5" cy="-150.2" r="4.32" fill="lightblue" stroke="#ccc" stroke-width="1.58"/><text x="254.5" y="-148.0" text-anchor="middle" font-size="5.4" font-family="Tahoma,Geneva,sans-serif" font-weight="bold" fill="rgb(100,100,100)">A</text><circle cx="244.3" cy="-160.4" r="4.32" fill="lightblue" stroke="#ccc" stroke-width="1.58"/><text x="244.3" y="-158.2" text-anchor="middle" font-size="5.4" font-family="Tahoma,Geneva,sans-serif" font-weight="bold" fill="rgb(100,100,100)">A</text><circle cx="230.0" cy="-158.2" r="4.32" fill="lightblue" stroke="#ccc" stroke-width="1.58"/><text x="230.0" y="-156.1" text-anchor="middle" font-size="5.4" font-family="Tahoma,Geneva,sans-serif" font-weight="bold" fill="rgb(100,100,100)">A</text><circle cx="220.8" cy="-147.1" r="4.32" fill="lightgreen" stroke="#ccc" stroke-width="1.58"/><text x="220.8" y="-145.0" text-anchor="middle" font-size="5.4" font-family="Tahoma,Geneva,sans-serif" font-weight="bold" fill="rgb(100,100,100)">C</text><circle cx="206.6" cy="-142.5" r="4.32" fill="lightgreen" stroke="#ccc" stroke-width="1.58"/><text x="206.6" y="-140.3" text-anchor="middle" font-size="5.4" font-family="Tahoma,Geneva,sans-serif" font-weight="bold" fill="rgb(100,100,100)">C</text><circle cx="192.3" cy="-137.9" r="4.32" fill="lightgreen" stroke="#ccc" stroke-width="1.58"/><text x="192.3" y="-135.7" text-anchor="middle" font-size="5.4" font-family="Tahoma,Geneva,sans-serif" font-weight="bold" fill="rgb(100,100,100)">C</text><circle cx="178.0" cy="-133.2" r="4.32" fill="lightgreen" stroke="#ccc" stroke-width="1.58"/><text x="178.0" y="-131.1" text-anchor="middle" font-size="5.4" font-family="Tahoma,Geneva,sans-serif" font-weight="bold" fill="rgb(100,100,100)">C</text><circle cx="163.8" cy="-128.6" r="4.32" fill="lightgreen" stroke="#ccc" stroke-width="1.58"/><text x="163.8" y="-126.4" text-anchor="middle" font-size="5.4" font-family="Tahoma,Geneva,sans-serif" font-weight="bold" fill="rgb(100,100,100)">A</text><circle cx="149.5" cy="-124.0" r="4.32" fill="lightgreen" stroke="#ccc" stroke-width="1.58"/><text x="149.5" y="-121.8" text-anchor="middle" font-size="5.4" font-family="Tahoma,Geneva,sans-serif" font-weight="bold" fill="rgb(100,100,100)">U</text><circle cx="137.1" cy="-135.8" r="4.32" fill="lightsalmon" stroke="#ccc" stroke-width="1.58"/><text x="137.1" y="-133.6" text-anchor="middle" font-size="5.4" font-family="Tahoma,Geneva,sans-serif" font-weight="bold" fill="rgb(100,100,100)">U</text><circle cx="124.7" cy="-147.5" r="4.32" fill="lightsalmon" stroke="#ccc" stroke-width="1.58"/><text x="124.7" y="-145.4" text-anchor="middle" font-size="5.4" font-family="Tahoma,Geneva,sans-serif" font-weight="bold" fill="rgb(100,100,100)">U</text></svg>