<svg xmlns="http://www.w3.org/2000/svg" viewBox="0 0 760 640" width="760" height="640"><style>svg {
  display: block;
  min-width: 100%;
  width: 100%;
  min-height: 100%;
}

circle.node {
  stroke: #ccc;
  stroke-width: 1px;
  opacity: 1;
  fill: white;
}

circle.node.label {
    stroke: transparent;
    stroke-width: 0;
    fill: white;
}

circle.outline_node {
    stroke-width: 1px;
    fill: red;
}

circle.protein {
    fill: gray;
    fill-opacity: 0.5;
    stroke-width: 4;
}

circle.hidden_outline {
    stroke-width: 0px;
}


line.link {
  stroke: #999;
  stroke-opacity: 0.8;
  stroke-width: 2;
}

line.basepair {
  stroke: red;
}

line.intermolecule {
  stroke: blue;
}

line.chain_chain {
  stroke-dasharray: 3,3;
}

line.fake {
  stroke: green;
}

.transparent {
    fill: transparent;
    stroke-width: 0;
    stroke-opacity: 0;
    opacity: 0;
    visibility: hidden;
}

.drag_line {
  stroke: #999;
  stroke-width: 2;
  pointer-events: none;
}

.drag_line_hidden {
  stroke: #999;
  stroke-width: 0;
  pointer-events: none;
}

.d3-tip {
    line-height: 1;
    font-weight: bold;
    padding: 6px;
    background: rgba(0, 0, 0, 0.6);
    color: #fff;
    border-radius: 4px;
    pointer-events: none;
          }

text.node-label {
    font-weight: bold;
    font-family: Tahoma, Geneva, sans-serif;
    color: rgb(100,100,100);
    pointer-events: none;
}

text {
    pointer-events: none;
}

g.gnode {

}

circle.outline_node.selected {
    visibility: visible;
}

circle.outline_node {
    visibility: hidden;
}

.brush .extent {
  fill-opacity: .1;
  stroke: #fff;
  shape-rendering: crispEdges;
}

.noselect {
    -webkit-touch-callout: none;
    -webkit-user-select: none;
    -khtml-user-select: none;
    -moz-user-select: none;
    -ms-user-select: none;
    user-select: none;
}

svg {
  display: block;
  min-width: 100%;
  width: 100%;
  min-height: 100%;
}

circle.node {
  stroke: #ccc;
  stroke-width: 1px;
  opacity: 1;
  fill: white;
}

circle.node.label {
    stroke: transparent;
    stroke-width: 0;
    fill: white;
}

circle.outline_node {
    stroke-width: 1px;
    fill: red;
}

circle.protein {
    fill: gray;
    fill-opacity: 0.5;
    stroke-width: 4;
}

circle.hidden_outline {
    stroke-width: 0px;
}


line.link {
  stroke: #999;
  stroke-opacity: 0.8;
  stroke-width: 2;
}

line.basepair {
  stroke: red;
}

line.intermolecule {
  stroke: blue;
}

line.chain_chain {
  stroke-dasharray: 3,3;
}

line.fake {
  stroke: green;
}

.transparent {
    fill: transparent;
    stroke-width: 0;
    stroke-opacity: 0;
    opacity: 0;
    visibility: hidden;
}

.drag_line {
  stroke: #999;
  stroke-width: 2;
  pointer-events: none;
}

.drag_line_hidden {
  stroke: #999;
  stroke-width: 0;
  pointer-events: none;
}

.d3-tip {
    line-height: 1;
    font-weight: bold;
    padding: 6px;
    background: rgba(0, 0, 0, 0.6);
    color: #fff;
    border-radius: 4px;
    pointer-events: none;
          }

text.node-label {
    font-weight: bold;
    font-family: Tahoma, Geneva, sans-serif;
    color: rgb(100,100,100);
    pointer-events: none;
}

text {
    pointer-events: none;
}

g.gnode {

}

circle.outline_node.selected {
    visibility: visible;
}

circle.outline_node {
    visibility: hidden;
}

.brush .extent {
  fill-opacity: .1;
  stroke: #fff;
  shape-rendering: crispEdges;
}

.noselect {
    -webkit-touch-callout: none;
    -webkit-user-select: none;
    -khtml-user-select: none;
    -moz-user-select: none;
    -ms-user-select: none;
    user-select: none;
}
/*# sourceURL=/Users/yumanakamura/ipy_sandbox/sandbox/claude_sandbox/mrna-transformer-worktrees/feat-issue57-switch-derna-knotty/scripts/eval/prerender/forna_vendor/fornac.css*/</style><style></style><g><g class="brush" style="pointer-events: all; -webkit-tap-highlight-color: rgba(0, 0, 0, 0);"><rect class="background" x="0" width="760" y="0" height="640" style="visibility: hidden; cursor: auto;"></rect><rect class="extent" x="0" width="0" y="0" height="0" style="cursor: move;"></rect><g class="resize n" transform="translate(0,0)" style="cursor: ns-resize; display: none;"><rect y="-3" width="0" height="6" style="visibility: hidden;"></rect></g><g class="resize e" transform="translate(0,0)" style="cursor: ew-resize; display: none;"><rect x="-3" width="6" height="0" style="visibility: hidden;"></rect></g><g class="resize s" transform="translate(0,0)" style="cursor: ns-resize; display: none;"><rect y="-3" width="0" height="6" style="visibility: hidden;"></rect></g><g class="resize w" transform="translate(0,0)" style="cursor: ew-resize; display: none;"><rect x="-3" width="6" height="0" style="visibility: hidden;"></rect></g><g class="resize nw" transform="translate(0,0)" style="cursor: nwse-resize; display: none;"><rect x="-3" y="-3" width="6" height="6" style="visibility: hidden;"></rect></g><g class="resize ne" transform="translate(0,0)" style="cursor: nesw-resize; display: none;"><rect x="-3" y="-3" width="6" height="6" style="visibility: hidden;"></rect></g><g class="resize se" transform="translate(0,0)" style="cursor: nwse-resize; display: none;"><rect x="-3" y="-3" width="6" height="6" style="visibility: hidden;"></rect></g><g class="resize sw" transform="translate(0,0)" style="cursor: nesw-resize; display: none;"><rect x="-3" y="-3" width="6" height="6" style="visibility: hidden;"></rect></g></g><g transform="translate(240.98,189.40) scale(1.49)"><g><line class="link backbone" x1="106.93" y1="210.69" x2="113.42" y2="197.09"></line><line class="link basepair" x1="123.92" y1="186.00" x2="137.12" y2="178.96"></line><line class="link backbone" x1="113.42" y1="197.09" x2="123.92" y2="186.00"></line><line class="link basepair" x1="116.42" y1="172.58" x2="128.72" y2="164.87"></line><line class="link backbone" x1="123.92" y1="186.00" x2="116.42" y2="172.58"></line><line class="link basepair" x1="107.67" y1="159.83" x2="119.28" y2="151.08"></line><line class="link backbone" x1="116.42" y1="172.58" x2="107.67" y2="159.83"></line><line class="link basepair" x1="97.84" y1="147.98" x2="108.53" y2="138.16"></line><line class="link backbone" x1="107.67" y1="159.83" x2="97.84" y2="147.98"></line><line class="link basepair" x1="86.84" y1="137.13" x2="96.40" y2="126.30"></line><line class="link backbone" x1="97.84" y1="147.98" x2="86.84" y2="137.13"></line><line class="link basepair" x1="74.76" y1="127.53" x2="82.82" y2="115.70"></line><line class="link backbone" x1="86.84" y1="137.13" x2="74.76" y2="127.53"></line><line class="link basepair" x1="61.90" y1="120.36" x2="67.30" y2="106.67"></line><line class="link backbone" x1="74.76" y1="127.53" x2="61.90" y2="120.36"></line><line class="link backbone" x1="61.90" y1="120.36" x2="49.27" y2="129.02"></line><line class="link backbone" x1="49.27" y1="129.02" x2="34.30" y2="127.22"></line><line class="link backbone" x1="34.30" y1="127.22" x2="24.24" y2="116.05"></line><line class="link backbone" x1="24.24" y1="116.05" x2="23.12" y2="101.16"></line><line class="link backbone" x1="23.12" y1="101.16" x2="31.80" y2="88.85"></line><line class="link basepair" x1="46.71" y1="85.50" x2="60.40" y2="90.87"></line><line class="link backbone" x1="31.80" y1="88.85" x2="46.71" y2="85.50"></line><line class="link basepair" x1="50.25" y1="71.15" x2="64.32" y2="73.20"></line><line class="link backbone" x1="46.71" y1="85.50" x2="50.25" y2="71.15"></line><line class="link basepair" x1="51.22" y1="55.77" x2="65.57" y2="55.71"></line><line class="link backbone" x1="50.25" y1="71.15" x2="51.22" y2="55.77"></line><line class="link basepair" x1="50.24" y1="40.37" x2="64.57" y2="38.58"></line><line class="link backbone" x1="51.22" y1="55.77" x2="50.24" y2="40.37"></line><line class="link basepair" x1="47.38" y1="25.34" x2="61.38" y2="21.74"></line><line class="link backbone" x1="50.24" y1="40.37" x2="47.38" y2="25.34"></line><line class="link basepair" x1="42.61" y1="10.71" x2="56.15" y2="5.52"></line><line class="link backbone" x1="47.38" y1="25.34" x2="42.61" y2="10.71"></line><line class="link basepair" x1="36.33" y1="-3.55" x2="49.38" y2="-9.82"></line><line class="link backbone" x1="42.61" y1="10.71" x2="36.33" y2="-3.55"></line><line class="link basepair" x1="29.02" y1="-17.62" x2="41.85" y2="-24.47"></line><line class="link backbone" x1="36.33" y1="-3.55" x2="29.02" y2="-17.62"></line><line class="link basepair" x1="21.31" y1="-31.68" x2="34.16" y2="-38.61"></line><line class="link backbone" x1="29.02" y1="-17.62" x2="21.31" y2="-31.68"></line><line class="link basepair" x1="13.69" y1="-45.80" x2="26.68" y2="-52.59"></line><line class="link backbone" x1="21.31" y1="-31.68" x2="13.69" y2="-45.80"></line><line class="link basepair" x1="6.35" y1="-59.83" x2="19.69" y2="-66.51"></line><line class="link backbone" x1="13.69" y1="-45.80" x2="6.35" y2="-59.83"></line><line class="link backbone" x1="6.35" y1="-59.83" x2="-6.40" y2="-68.44"></line><line class="link backbone" x1="-6.40" y1="-68.44" x2="-5.33" y2="-83.39"></line><line class="link backbone" x1="-5.33" y1="-83.39" x2="8.10" y2="-90.02"></line><line class="link backbone" x1="8.10" y1="-90.02" x2="20.59" y2="-81.82"></line><line class="link basepair" x1="19.69" y1="-66.51" x2="6.35" y2="-59.83"></line><line class="link backbone" x1="20.59" y1="-81.82" x2="19.69" y2="-66.51"></line><line class="link basepair" x1="26.68" y1="-52.59" x2="13.69" y2="-45.80"></line><line class="link backbone" x1="19.69" y1="-66.51" x2="26.68" y2="-52.59"></line><line class="link basepair" x1="34.16" y1="-38.61" x2="21.31" y2="-31.68"></line><line class="link backbone" x1="26.68" y1="-52.59" x2="34.16" y2="-38.61"></line><line class="link basepair" x1="41.85" y1="-24.47" x2="29.02" y2="-17.62"></line><line class="link backbone" x1="34.16" y1="-38.61" x2="41.85" y2="-24.47"></line><line class="link basepair" x1="49.38" y1="-9.82" x2="36.33" y2="-3.55"></line><line class="link backbone" x1="41.85" y1="-24.47" x2="49.38" y2="-9.82"></line><line class="link basepair" x1="56.15" y1="5.52" x2="42.61" y2="10.71"></line><line class="link backbone" x1="49.38" y1="-9.82" x2="56.15" y2="5.52"></line><line class="link basepair" x1="61.38" y1="21.74" x2="47.38" y2="25.34"></line><line class="link backbone" x1="56.15" y1="5.52" x2="61.38" y2="21.74"></line><line class="link basepair" x1="64.57" y1="38.58" x2="50.24" y2="40.37"></line><line class="link backbone" x1="61.38" y1="21.74" x2="64.57" y2="38.58"></line><line class="link basepair" x1="65.57" y1="55.71" x2="51.22" y2="55.77"></line><line class="link backbone" x1="64.57" y1="38.58" x2="65.57" y2="55.71"></line><line class="link basepair" x1="64.32" y1="73.20" x2="50.25" y2="71.15"></line><line class="link backbone" x1="65.57" y1="55.71" x2="64.32" y2="73.20"></line><line class="link basepair" x1="60.40" y1="90.87" x2="46.71" y2="85.50"></line><line class="link backbone" x1="64.32" y1="73.20" x2="60.40" y2="90.87"></line><line class="link basepair" x1="67.30" y1="106.67" x2="61.90" y2="120.36"></line><line class="link backbone" x1="60.40" y1="90.87" x2="67.30" y2="106.67"></line><line class="link basepair" x1="82.82" y1="115.70" x2="74.76" y2="127.53"></line><line class="link backbone" x1="67.30" y1="106.67" x2="82.82" y2="115.70"></line><line class="link basepair" x1="96.40" y1="126.30" x2="86.84" y2="137.13"></line><line class="link backbone" x1="82.82" y1="115.70" x2="96.40" y2="126.30"></line><line class="link basepair" x1="108.53" y1="138.16" x2="97.84" y2="147.98"></line><line class="link backbone" x1="96.40" y1="126.30" x2="108.53" y2="138.16"></line><line class="link basepair" x1="119.28" y1="151.08" x2="107.67" y2="159.83"></line><line class="link backbone" x1="108.53" y1="138.16" x2="119.28" y2="151.08"></line><line class="link basepair" x1="128.72" y1="164.87" x2="116.42" y2="172.58"></line><line class="link backbone" x1="119.28" y1="151.08" x2="128.72" y2="164.87"></line><line class="link basepair" x1="137.12" y1="178.96" x2="123.92" y2="186.00"></line><line class="link backbone" x1="128.72" y1="164.87" x2="137.12" y2="178.96"></line><line class="link backbone" x1="137.12" y1="178.96" x2="152.41" y2="177.36"></line><line class="link backbone" x1="152.41" y1="177.36" x2="167.16" y2="180.35"></line><line class="link backbone" x1="167.16" y1="180.35" x2="180.28" y2="187.97"></line><line class="link backbone" x1="180.28" y1="187.97" x2="190.12" y2="199.37"></line><line class="link backbone" x1="190.12" y1="199.37" x2="195.66" y2="213.35"></line><line class="link backbone" x1="195.66" y1="213.35" x2="196.33" y2="228.30"></line><line class="link backbone" x1="196.33" y1="228.30" x2="192.30" y2="242.71"></line><line class="link backbone" x1="192.30" y1="242.71" x2="183.70" y2="254.98"></line><line class="link backbone" x1="183.70" y1="254.98" x2="171.55" y2="263.68"></line><line class="link backbone" x1="171.55" y1="263.68" x2="157.31" y2="268.21"></line><line class="link backbone" x1="157.31" y1="268.21" x2="142.38" y2="268.05"></line><line class="link backbone" x1="142.38" y1="268.05" x2="128.35" y2="262.90"></line><line class="link backbone" x1="128.35" y1="262.90" x2="116.74" y2="253.58"></line><line class="link label_link" x1="49.27" y1="129.02" x2="40.14" y2="116.84"></line><line class="link label_link" x1="42.61" y1="10.71" x2="27.50" y2="14.42"></line><line class="link label_link" x1="19.69" y1="-66.51" x2="32.81" y2="-74.76"></line><line class="link label_link" x1="60.40" y1="90.87" x2="75.21" y2="86.21"></line><line class="link label_link" x1="180.28" y1="187.97" x2="192.87" y2="179.01"></line><line class="link label_link" x1="116.74" y1="253.58" x2="104.91" y2="263.52"></line><line class="link fake transparent" x1="46.71" y1="85.50" x2="56.09" y2="80.32"></line><line class="link fake transparent" x1="46.71" y1="85.50" x2="64.32" y2="73.20"></line><line class="link fake transparent" x1="50.25" y1="71.15" x2="56.09" y2="80.32"></line><line class="link fake transparent" x1="64.32" y1="73.20" x2="56.09" y2="80.32"></line><line class="link fake transparent" x1="60.40" y1="90.87" x2="56.09" y2="80.32"></line><line class="link fake transparent" x1="50.25" y1="71.15" x2="58.37" y2="63.91"></line><line class="link fake transparent" x1="51.22" y1="55.77" x2="58.37" y2="63.91"></line><line class="link fake transparent" x1="65.57" y1="55.71" x2="58.37" y2="63.91"></line><line class="link fake transparent" x1="64.32" y1="73.20" x2="58.37" y2="63.91"></line><line class="link fake transparent" x1="51.22" y1="55.77" x2="58.43" y2="47.57"></line><line class="link fake transparent" x1="50.24" y1="40.37" x2="58.43" y2="47.57"></line><line class="link fake transparent" x1="64.57" y1="38.58" x2="58.43" y2="47.57"></line><line class="link fake transparent" x1="65.57" y1="55.71" x2="58.43" y2="47.57"></line><line class="link fake transparent" x1="50.24" y1="40.37" x2="56.46" y2="31.42"></line><line class="link fake transparent" x1="47.38" y1="25.34" x2="56.46" y2="31.42"></line><line class="link fake transparent" x1="61.38" y1="21.74" x2="56.46" y2="31.42"></line><line class="link fake transparent" x1="64.57" y1="38.58" x2="56.46" y2="31.42"></line><line class="link fake transparent" x1="47.38" y1="25.34" x2="52.37" y2="15.67"></line><line class="link fake transparent" x1="42.61" y1="10.71" x2="52.37" y2="15.67"></line><line class="link fake transparent" x1="56.15" y1="5.52" x2="52.37" y2="15.67"></line><line class="link fake transparent" x1="61.38" y1="21.74" x2="52.37" y2="15.67"></line><line class="link fake transparent" x1="42.61" y1="10.71" x2="46.45" y2="0.60"></line><line class="link fake transparent" x1="36.33" y1="-3.55" x2="46.45" y2="0.60"></line><line class="link fake transparent" x1="49.38" y1="-9.82" x2="46.45" y2="0.60"></line><line class="link fake transparent" x1="56.15" y1="5.52" x2="46.45" y2="0.60"></line><line class="link fake transparent" x1="36.33" y1="-3.55" x2="39.30" y2="-13.96"></line><line class="link fake transparent" x1="29.02" y1="-17.62" x2="39.30" y2="-13.96"></line><line class="link fake transparent" x1="41.85" y1="-24.47" x2="39.30" y2="-13.96"></line><line class="link fake transparent" x1="49.38" y1="-9.82" x2="39.30" y2="-13.96"></line><line class="link fake transparent" x1="29.02" y1="-17.62" x2="31.58" y2="-28.13"></line><line class="link fake transparent" x1="21.31" y1="-31.68" x2="31.58" y2="-28.13"></line><line class="link fake transparent" x1="34.16" y1="-38.61" x2="31.58" y2="-28.13"></line><line class="link fake transparent" x1="41.85" y1="-24.47" x2="31.58" y2="-28.13"></line><line class="link fake transparent" x1="21.31" y1="-31.68" x2="23.87" y2="-42.15"></line><line class="link fake transparent" x1="13.69" y1="-45.80" x2="23.87" y2="-42.15"></line><line class="link fake transparent" x1="26.68" y1="-52.59" x2="23.87" y2="-42.15"></line><line class="link fake transparent" x1="34.16" y1="-38.61" x2="23.87" y2="-42.15"></line><line class="link fake transparent" x1="13.69" y1="-45.80" x2="16.48" y2="-56.20"></line><line class="link fake transparent" x1="6.35" y1="-59.83" x2="16.48" y2="-56.20"></line><line class="link fake transparent" x1="19.69" y1="-66.51" x2="16.48" y2="-56.20"></line><line class="link fake transparent" x1="26.68" y1="-52.59" x2="16.48" y2="-56.20"></line><line class="link fake transparent" x1="123.92" y1="186.00" x2="126.84" y2="175.61"></line><line class="link fake transparent" x1="116.42" y1="172.58" x2="126.84" y2="175.61"></line><line class="link fake transparent" x1="128.72" y1="164.87" x2="126.84" y2="175.61"></line><line class="link fake transparent" x1="137.12" y1="178.96" x2="126.84" y2="175.61"></line><line class="link fake transparent" x1="116.42" y1="172.58" x2="118.32" y2="161.88"></line><line class="link fake transparent" x1="107.67" y1="159.83" x2="118.32" y2="161.88"></line><line class="link fake transparent" x1="119.28" y1="151.08" x2="118.32" y2="161.88"></line><line class="link fake transparent" x1="128.72" y1="164.87" x2="118.32" y2="161.88"></line><line class="link fake transparent" x1="107.67" y1="159.83" x2="108.64" y2="148.99"></line><line class="link fake transparent" x1="97.84" y1="147.98" x2="108.64" y2="148.99"></line><line class="link fake transparent" x1="108.53" y1="138.16" x2="108.64" y2="148.99"></line><line class="link fake transparent" x1="119.28" y1="151.08" x2="108.64" y2="148.99"></line><line class="link fake transparent" x1="97.84" y1="147.98" x2="97.73" y2="137.10"></line><line class="link fake transparent" x1="86.84" y1="137.13" x2="97.73" y2="137.10"></line><line class="link fake transparent" x1="96.40" y1="126.30" x2="97.73" y2="137.10"></line><line class="link fake transparent" x1="108.53" y1="138.16" x2="97.73" y2="137.10"></line><line class="link fake transparent" x1="86.84" y1="137.13" x2="85.54" y2="126.34"></line><line class="link fake transparent" x1="74.76" y1="127.53" x2="85.54" y2="126.34"></line><line class="link fake transparent" x1="82.82" y1="115.70" x2="85.54" y2="126.34"></line><line class="link fake transparent" x1="96.40" y1="126.30" x2="85.54" y2="126.34"></line><line class="link fake transparent" x1="74.76" y1="127.53" x2="72.05" y2="117.00"></line><line class="link fake transparent" x1="61.90" y1="120.36" x2="72.05" y2="117.00"></line><line class="link fake transparent" x1="67.30" y1="106.67" x2="72.05" y2="117.00"></line><line class="link fake transparent" x1="82.82" y1="115.70" x2="72.05" y2="117.00"></line><line class="link fake transparent" x1="106.93" y1="210.69" x2="150.91" y2="222.96"></line><line class="link fake transparent" x1="106.93" y1="210.69" x2="196.33" y2="228.30"></line><line class="link fake transparent" x1="113.42" y1="197.09" x2="150.91" y2="222.96"></line><line class="link fake transparent" x1="113.42" y1="197.09" x2="192.30" y2="242.71"></line><line class="link fake transparent" x1="123.92" y1="186.00" x2="150.91" y2="222.96"></line><line class="link fake transparent" x1="123.92" y1="186.00" x2="183.70" y2="254.98"></line><line class="link fake transparent" x1="137.12" y1="178.96" x2="150.91" y2="222.96"></line><line class="link fake transparent" x1="137.12" y1="178.96" x2="171.55" y2="263.68"></line><line class="link fake transparent" x1="152.41" y1="177.36" x2="150.91" y2="222.96"></line><line class="link fake transparent" x1="152.41" y1="177.36" x2="157.31" y2="268.21"></line><line class="link fake transparent" x1="167.16" y1="180.35" x2="150.91" y2="222.96"></line><line class="link fake transparent" x1="167.16" y1="180.35" x2="142.38" y2="268.05"></line><line class="link fake transparent" x1="180.28" y1="187.97" x2="150.91" y2="222.96"></line><line class="link fake transparent" x1="180.28" y1="187.97" x2="128.35" y2="262.90"></line><line class="link fake transparent" x1="190.12" y1="199.37" x2="150.91" y2="222.96"></line><line class="link fake transparent" x1="190.12" y1="199.37" x2="116.74" y2="253.58"></line><line class="link fake transparent" x1="195.66" y1="213.35" x2="150.91" y2="222.96"></line><line class="link fake transparent" x1="195.66" y1="213.35" x2="108.40" y2="241.23"></line><line class="link fake transparent" x1="196.33" y1="228.30" x2="150.91" y2="222.96"></line><line class="link fake transparent" x1="196.33" y1="228.30" x2="104.71" y2="226.80"></line><line class="link fake transparent" x1="192.30" y1="242.71" x2="150.91" y2="222.96"></line><line class="link fake transparent" x1="192.30" y1="242.71" x2="106.93" y2="210.69"></line><line class="link fake transparent" x1="183.70" y1="254.98" x2="150.91" y2="222.96"></line><line class="link fake transparent" x1="183.70" y1="254.98" x2="113.42" y2="197.09"></line><line class="link fake transparent" x1="171.55" y1="263.68" x2="150.91" y2="222.96"></line><line class="link fake transparent" x1="171.55" y1="263.68" x2="123.92" y2="186.00"></line><line class="link fake transparent" x1="157.31" y1="268.21" x2="150.91" y2="222.96"></line><line class="link fake transparent" x1="157.31" y1="268.21" x2="137.12" y2="178.96"></line><line class="link fake transparent" x1="142.38" y1="268.05" x2="150.91" y2="222.96"></line><line class="link fake transparent" x1="142.38" y1="268.05" x2="152.41" y2="177.36"></line><line class="link fake transparent" x1="128.35" y1="262.90" x2="150.91" y2="222.96"></line><line class="link fake transparent" x1="128.35" y1="262.90" x2="167.16" y2="180.35"></line><line class="link fake transparent" x1="116.74" y1="253.58" x2="150.91" y2="222.96"></line><line class="link fake transparent" x1="116.74" y1="253.58" x2="180.28" y2="187.97"></line><line class="link fake transparent" x1="6.35" y1="-59.83" x2="7.16" y2="-74.95"></line><line class="link fake transparent" x1="6.35" y1="-59.83" x2="8.10" y2="-90.02"></line><line class="link fake transparent" x1="-6.40" y1="-68.44" x2="7.16" y2="-74.95"></line><line class="link fake transparent" x1="-6.40" y1="-68.44" x2="20.59" y2="-81.82"></line><line class="link fake transparent" x1="-5.33" y1="-83.39" x2="7.16" y2="-74.95"></line><line class="link fake transparent" x1="-5.33" y1="-83.39" x2="19.69" y2="-66.51"></line><line class="link fake transparent" x1="8.10" y1="-90.02" x2="7.16" y2="-74.95"></line><line class="link fake transparent" x1="8.10" y1="-90.02" x2="6.35" y2="-59.83"></line><line class="link fake transparent" x1="20.59" y1="-81.82" x2="7.16" y2="-74.95"></line><line class="link fake transparent" x1="20.59" y1="-81.82" x2="-6.40" y2="-68.44"></line><line class="link fake transparent" x1="19.69" y1="-66.51" x2="7.16" y2="-74.95"></line><line class="link fake transparent" x1="19.69" y1="-66.51" x2="-5.33" y2="-83.39"></line><line class="link fake transparent" x1="61.90" y1="120.36" x2="44.82" y2="107.06"></line><line class="link fake transparent" x1="61.90" y1="120.36" x2="23.12" y2="101.16"></line><line class="link fake transparent" x1="49.27" y1="129.02" x2="44.82" y2="107.06"></line><line class="link fake transparent" x1="49.27" y1="129.02" x2="31.80" y2="88.85"></line><line class="link fake transparent" x1="34.30" y1="127.22" x2="44.82" y2="107.06"></line><line class="link fake transparent" x1="34.30" y1="127.22" x2="46.71" y2="85.50"></line><line class="link fake transparent" x1="24.24" y1="116.05" x2="44.82" y2="107.06"></line><line class="link fake transparent" x1="24.24" y1="116.05" x2="60.40" y2="90.87"></line><line class="link fake transparent" x1="23.12" y1="101.16" x2="44.82" y2="107.06"></line><line class="link fake transparent" x1="23.12" y1="101.16" x2="67.30" y2="106.67"></line><line class="link fake transparent" x1="31.80" y1="88.85" x2="44.82" y2="107.06"></line><line class="link fake transparent" x1="31.80" y1="88.85" x2="61.90" y2="120.36"></line><line class="link fake transparent" x1="46.71" y1="85.50" x2="44.82" y2="107.06"></line><line class="link fake transparent" x1="46.71" y1="85.50" x2="49.27" y2="129.02"></line><line class="link fake transparent" x1="60.40" y1="90.87" x2="44.82" y2="107.06"></line><line class="link fake transparent" x1="60.40" y1="90.87" x2="34.30" y2="127.22"></line><line class="link fake transparent" x1="67.30" y1="106.67" x2="44.82" y2="107.06"></line><line class="link fake transparent" x1="67.30" y1="106.67" x2="24.24" y2="116.05"></line></g><g><g class="noselect gnode" struct_name="m" transform="translate(106.93,210.69)" r="6.5"><circle class="node" r="6" node_type="nucleotide" style="fill: lightsalmon;"></circle><text text-anchor="middle" font-size="8" font-weight="bold" y="2.5" class="node-label">G</text></g><g class="noselect gnode" struct_name="m" transform="translate(113.42,197.09)" r="6.5"><circle class="node" r="6" node_type="nucleotide" style="fill: lightsalmon;"></circle><text text-anchor="middle" font-size="8" font-weight="bold" y="2.5" class="node-label">A</text></g><g class="noselect gnode" struct_name="m" transform="translate(123.92,186.00)" r="6.5"><circle class="node" r="6" node_type="nucleotide" style="fill: lightgreen;"></circle><text text-anchor="middle" font-size="8" font-weight="bold" y="2.5" class="node-label">U</text></g><g class="noselect gnode" struct_name="m" transform="translate(116.42,172.58)" r="6.5"><circle class="node" r="6" node_type="nucleotide" style="fill: lightgreen;"></circle><text text-anchor="middle" font-size="8" font-weight="bold" y="2.5" class="node-label">C</text></g><g class="noselect gnode" struct_name="m" transform="translate(107.67,159.83)" r="6.5"><circle class="node" r="6" node_type="nucleotide" style="fill: lightgreen;"></circle><text text-anchor="middle" font-size="8" font-weight="bold" y="2.5" class="node-label">G</text></g><g class="noselect gnode" struct_name="m" transform="translate(97.84,147.98)" r="6.5"><circle class="node" r="6" node_type="nucleotide" style="fill: lightgreen;"></circle><text text-anchor="middle" font-size="8" font-weight="bold" y="2.5" class="node-label">C</text></g><g class="noselect gnode" struct_name="m" transform="translate(86.84,137.13)" r="6.5"><circle class="node" r="6" node_type="nucleotide" style="fill: lightgreen;"></circle><text text-anchor="middle" font-size="8" font-weight="bold" y="2.5" class="node-label">U</text></g><g class="noselect gnode" struct_name="m" transform="translate(74.76,127.53)" r="6.5"><circle class="node" r="6" node_type="nucleotide" style="fill: lightgreen;"></circle><text text-anchor="middle" font-size="8" font-weight="bold" y="2.5" class="node-label">G</text></g><g class="noselect gnode" struct_name="m" transform="translate(61.90,120.36)" r="6.5"><circle class="node" r="6" node_type="nucleotide" style="fill: lightgreen;"></circle><text text-anchor="middle" font-size="8" font-weight="bold" y="2.5" class="node-label">G</text></g><g class="noselect gnode" struct_name="m" transform="translate(49.27,129.02)" r="6.5"><circle class="node" r="6" node_type="nucleotide" style="fill: rgb(219, 219, 141);"></circle><text text-anchor="middle" font-size="8" font-weight="bold" y="2.5" class="node-label">A</text></g><g class="noselect gnode" struct_name="m" transform="translate(34.30,127.22)" r="6.5"><circle class="node" r="6" node_type="nucleotide" style="fill: rgb(219, 219, 141);"></circle><text text-anchor="middle" font-size="8" font-weight="bold" y="2.5" class="node-label">A</text></g><g class="noselect gnode" struct_name="m" transform="translate(24.24,116.05)" r="6.5"><circle class="node" r="6" node_type="nucleotide" style="fill: rgb(219, 219, 141);"></circle><text text-anchor="middle" font-size="8" font-weight="bold" y="2.5" class="node-label">A</text></g><g class="noselect gnode" struct_name="m" transform="translate(23.12,101.16)" r="6.5"><circle class="node" r="6" node_type="nucleotide" style="fill: rgb(219, 219, 141);"></circle><text text-anchor="middle" font-size="8" font-weight="bold" y="2.5" class="node-label">A</text></g><g class="noselect gnode" struct_name="m" transform="translate(31.80,88.85)" r="6.5"><circle class="node" r="6" node_type="nucleotide" style="fill: rgb(219, 219, 141);"></circle><text text-anchor="middle" font-size="8" font-weight="bold" y="2.5" class="node-label">A</text></g><g class="noselect gnode" struct_name="m" transform="translate(46.71,85.50)" r="6.5"><circle class="node" r="6" node_type="nucleotide" style="fill: lightgreen;"></circle><text text-anchor="middle" font-size="8" font-weight="bold" y="2.5" class="node-label">U</text></g><g class="noselect gnode" struct_name="m" transform="translate(50.25,71.15)" r="6.5"><circle class="node" r="6" node_type="nucleotide" style="fill: lightgreen;"></circle><text text-anchor="middle" font-size="8" font-weight="bold" y="2.5" class="node-label">C</text></g><g class="noselect gnode" struct_name="m" transform="translate(51.22,55.77)" r="6.5"><circle class="node" r="6" node_type="nucleotide" style="fill: lightgreen;"></circle><text text-anchor="middle" font-size="8" font-weight="bold" y="2.5" class="node-label">U</text></g><g class="noselect gnode" struct_name="m" transform="translate(50.24,40.37)" r="6.5"><circle class="node" r="6" node_type="nucleotide" style="fill: lightgreen;"></circle><text text-anchor="middle" font-size="8" font-weight="bold" y="2.5" class="node-label">G</text></g><g class="noselect gnode" struct_name="m" transform="translate(47.38,25.34)" r="6.5"><circle class="node" r="6" node_type="nucleotide" style="fill: lightgreen;"></circle><text text-anchor="middle" font-size="8" font-weight="bold" y="2.5" class="node-label">C</text></g><g class="noselect gnode" struct_name="m" transform="translate(42.61,10.71)" r="6.5"><circle class="node" r="6" node_type="nucleotide" style="fill: lightgreen;"></circle><text text-anchor="middle" font-size="8" font-weight="bold" y="2.5" class="node-label">G</text></g><g class="noselect gnode" struct_name="m" transform="translate(36.33,-3.55)" r="6.5"><circle class="node" r="6" node_type="nucleotide" style="fill: lightgreen;"></circle><text text-anchor="middle" font-size="8" font-weight="bold" y="2.5" class="node-label">U</text></g><g class="noselect gnode" struct_name="m" transform="translate(29.02,-17.62)" r="6.5"><circle class="node" r="6" node_type="nucleotide" style="fill: lightgreen;"></circle><text text-anchor="middle" font-size="8" font-weight="bold" y="2.5" class="node-label">A</text></g><g class="noselect gnode" struct_name="m" transform="translate(21.31,-31.68)" r="6.5"><circle class="node" r="6" node_type="nucleotide" style="fill: lightgreen;"></circle><text text-anchor="middle" font-size="8" font-weight="bold" y="2.5" class="node-label">C</text></g><g class="noselect gnode" struct_name="m" transform="translate(13.69,-45.80)" r="6.5"><circle class="node" r="6" node_type="nucleotide" style="fill: lightgreen;"></circle><text text-anchor="middle" font-size="8" font-weight="bold" y="2.5" class="node-label">G</text></g><g class="noselect gnode" struct_name="m" transform="translate(6.35,-59.83)" r="6.5"><circle class="node" r="6" node_type="nucleotide" style="fill: lightgreen;"></circle><text text-anchor="middle" font-size="8" font-weight="bold" y="2.5" class="node-label">A</text></g><g class="noselect gnode" struct_name="m" transform="translate(-6.40,-68.44)" r="6.5"><circle class="node" r="6" node_type="nucleotide" style="fill: lightblue;"></circle><text text-anchor="middle" font-size="8" font-weight="bold" y="2.5" class="node-label">A</text></g><g class="noselect gnode" struct_name="m" transform="translate(-5.33,-83.39)" r="6.5"><circle class="node" r="6" node_type="nucleotide" style="fill: lightblue;"></circle><text text-anchor="middle" font-size="8" font-weight="bold" y="2.5" class="node-label">A</text></g><g class="noselect gnode" struct_name="m" transform="translate(8.10,-90.02)" r="6.5"><circle class="node" r="6" node_type="nucleotide" style="fill: lightblue;"></circle><text text-anchor="middle" font-size="8" font-weight="bold" y="2.5" class="node-label">U</text></g><g class="noselect gnode" struct_name="m" transform="translate(20.59,-81.82)" r="6.5"><circle class="node" r="6" node_type="nucleotide" style="fill: lightblue;"></circle><text text-anchor="middle" font-size="8" font-weight="bold" y="2.5" class="node-label">U</text></g><g class="noselect gnode" struct_name="m" transform="translate(19.69,-66.51)" r="6.5"><circle class="node" r="6" node_type="nucleotide" style="fill: lightgreen;"></circle><text text-anchor="middle" font-size="8" font-weight="bold" y="2.5" class="node-label">U</text></g><g class="noselect gnode" struct_name="m" transform="translate(26.68,-52.59)" r="6.5"><circle class="node" r="6" node_type="nucleotide" style="fill: lightgreen;"></circle><text text-anchor="middle" font-size="8" font-weight="bold" y="2.5" class="node-label">C</text></g><g class="noselect gnode" struct_name="m" transform="translate(34.16,-38.61)" r="6.5"><circle class="node" r="6" node_type="nucleotide" style="fill: lightgreen;"></circle><text text-anchor="middle" font-size="8" font-weight="bold" y="2.5" class="node-label">G</text></g><g class="noselect gnode" struct_name="m" transform="translate(41.85,-24.47)" r="6.5"><circle class="node" r="6" node_type="nucleotide" style="fill: lightgreen;"></circle><text text-anchor="middle" font-size="8" font-weight="bold" y="2.5" class="node-label">U</text></g><g class="noselect gnode" struct_name="m" transform="translate(49.38,-9.82)" r="6.5"><circle class="node" r="6" node_type="nucleotide" style="fill: lightgreen;"></circle><text text-anchor="middle" font-size="8" font-weight="bold" y="2.5" class="node-label">A</text></g><g class="noselect gnode" struct_name="m" transform="translate(56.15,5.52)" r="6.5"><circle class="node" r="6" node_type="nucleotide" style="fill: lightgreen;"></circle><text text-anchor="middle" font-size="8" font-weight="bold" y="2.5" class="node-label">U</text></g><g class="noselect gnode" struct_name="m" transform="translate(61.38,21.74)" r="6.5"><circle class="node" r="6" node_type="nucleotide" style="fill: lightgreen;"></circle><text text-anchor="middle" font-size="8" font-weight="bold" y="2.5" class="node-label">G</text></g><g class="noselect gnode" struct_name="m" transform="translate(64.57,38.58)" r="6.5"><circle class="node" r="6" node_type="nucleotide" style="fill: lightgreen;"></circle><text text-anchor="middle" font-size="8" font-weight="bold" y="2.5" class="node-label">C</text></g><g class="noselect gnode" struct_name="m" transform="translate(65.57,55.71)" r="6.5"><circle class="node" r="6" node_type="nucleotide" style="fill: lightgreen;"></circle><text text-anchor="middle" font-size="8" font-weight="bold" y="2.5" class="node-label">A</text></g><g class="noselect gnode" struct_name="m" transform="translate(64.32,73.20)" r="6.5"><circle class="node" r="6" node_type="nucleotide" style="fill: lightgreen;"></circle><text text-anchor="middle" font-size="8" font-weight="bold" y="2.5" class="node-label">G</text></g><g class="noselect gnode" struct_name="m" transform="translate(60.40,90.87)" r="6.5"><circle class="node" r="6" node_type="nucleotide" style="fill: lightgreen;"></circle><text text-anchor="middle" font-size="8" font-weight="bold" y="2.5" class="node-label">A</text></g><g class="noselect gnode" struct_name="m" transform="translate(67.30,106.67)" r="6.5"><circle class="node" r="6" node_type="nucleotide" style="fill: lightgreen;"></circle><text text-anchor="middle" font-size="8" font-weight="bold" y="2.5" class="node-label">C</text></g><g class="noselect gnode" struct_name="m" transform="translate(82.82,115.70)" r="6.5"><circle class="node" r="6" node_type="nucleotide" style="fill: lightgreen;"></circle><text text-anchor="middle" font-size="8" font-weight="bold" y="2.5" class="node-label">C</text></g><g class="noselect gnode" struct_name="m" transform="translate(96.40,126.30)" r="6.5"><circle class="node" r="6" node_type="nucleotide" style="fill: lightgreen;"></circle><text text-anchor="middle" font-size="8" font-weight="bold" y="2.5" class="node-label">G</text></g><g class="noselect gnode" struct_name="m" transform="translate(108.53,138.16)" r="6.5"><circle class="node" r="6" node_type="nucleotide" style="fill: lightgreen;"></circle><text text-anchor="middle" font-size="8" font-weight="bold" y="2.5" class="node-label">G</text></g><g class="noselect gnode" struct_name="m" transform="translate(119.28,151.08)" r="6.5"><circle class="node" r="6" node_type="nucleotide" style="fill: lightgreen;"></circle><text text-anchor="middle" font-size="8" font-weight="bold" y="2.5" class="node-label">C</text></g><g class="noselect gnode" struct_name="m" transform="translate(128.72,164.87)" r="6.5"><circle class="node" r="6" node_type="nucleotide" style="fill: lightgreen;"></circle><text text-anchor="middle" font-size="8" font-weight="bold" y="2.5" class="node-label">G</text></g><g class="noselect gnode" struct_name="m" transform="translate(137.12,178.96)" r="6.5"><circle class="node" r="6" node_type="nucleotide" style="fill: lightgreen;"></circle><text text-anchor="middle" font-size="8" font-weight="bold" y="2.5" class="node-label">A</text></g><g class="noselect gnode" struct_name="m" transform="translate(152.41,177.36)" r="6.5"><circle class="node" r="6" node_type="nucleotide" style="fill: lightsalmon;"></circle><text text-anchor="middle" font-size="8" font-weight="bold" y="2.5" class="node-label">A</text></g><g class="noselect gnode" struct_name="m" transform="translate(167.16,180.35)" r="6.5"><circle class="node" r="6" node_type="nucleotide" style="fill: lightsalmon;"></circle><text text-anchor="middle" font-size="8" font-weight="bold" y="2.5" class="node-label">U</text></g><g class="noselect gnode" struct_name="m" transform="translate(180.28,187.97)" r="6.5"><circle class="node" r="6" node_type="nucleotide" style="fill: lightsalmon;"></circle><text text-anchor="middle" font-size="8" font-weight="bold" y="2.5" class="node-label">G</text></g><g class="noselect gnode" struct_name="m" transform="translate(190.12,199.37)" r="6.5"><circle class="node" r="6" node_type="nucleotide" style="fill: lightsalmon;"></circle><text text-anchor="middle" font-size="8" font-weight="bold" y="2.5" class="node-label">U</text></g><g class="noselect gnode" struct_name="m" transform="translate(195.66,213.35)" r="6.5"><circle class="node" r="6" node_type="nucleotide" style="fill: lightsalmon;"></circle><text text-anchor="middle" font-size="8" font-weight="bold" y="2.5" class="node-label">C</text></g><g class="noselect gnode" struct_name="m" transform="translate(196.33,228.30)" r="6.5"><circle class="node" r="6" node_type="nucleotide" style="fill: lightsalmon;"></circle><text text-anchor="middle" font-size="8" font-weight="bold" y="2.5" class="node-label">A</text></g><g class="noselect gnode" struct_name="m" transform="translate(192.30,242.71)" r="6.5"><circle class="node" r="6" node_type="nucleotide" style="fill: lightsalmon;"></circle><text text-anchor="middle" font-size="8" font-weight="bold" y="2.5" class="node-label">A</text></g><g class="noselect gnode" struct_name="m" transform="translate(183.70,254.98)" r="6.5"><circle class="node" r="6" node_type="nucleotide" style="fill: lightsalmon;"></circle><text text-anchor="middle" font-size="8" font-weight="bold" y="2.5" class="node-label">A</text></g><g class="noselect gnode" struct_name="m" transform="translate(171.55,263.68)" r="6.5"><circle class="node" r="6" node_type="nucleotide" style="fill: lightsalmon;"></circle><text text-anchor="middle" font-size="8" font-weight="bold" y="2.5" class="node-label">U</text></g><g class="noselect gnode" struct_name="m" transform="translate(157.31,268.21)" r="6.5"><circle class="node" r="6" node_type="nucleotide" style="fill: lightsalmon;"></circle><text text-anchor="middle" font-size="8" font-weight="bold" y="2.5" class="node-label">U</text></g><g class="noselect gnode" struct_name="m" transform="translate(142.38,268.05)" r="6.5"><circle class="node" r="6" node_type="nucleotide" style="fill: lightsalmon;"></circle><text text-anchor="middle" font-size="8" font-weight="bold" y="2.5" class="node-label">U</text></g><g class="noselect gnode" struct_name="m" transform="translate(128.35,262.90)" r="6.5"><circle class="node" r="6" node_type="nucleotide" style="fill: lightsalmon;"></circle><text text-anchor="middle" font-size="8" font-weight="bold" y="2.5" class="node-label">G</text></g><g class="noselect gnode" struct_name="m" transform="translate(116.74,253.58)" r="6.5"><circle class="node" r="6" node_type="nucleotide" style="fill: lightsalmon;"></circle><text text-anchor="middle" font-size="8" font-weight="bold" y="2.5" class="node-label">U</text></g><g class="noselect gnode" struct_name="m" transform="translate(40.14,116.84)" r="6.5"><circle class="node label" r="6" node_type="label"></circle><text text-anchor="middle" font-size="8" font-weight="bold" y="2.5" class="node-label">10</text></g><g class="noselect gnode" struct_name="m" transform="translate(27.50,14.42)" r="6.5"><circle class="node label" r="6" node_type="label"></circle><text text-anchor="middle" font-size="8" font-weight="bold" y="2.5" class="node-label">20</text></g><g class="noselect gnode" struct_name="m" transform="translate(32.81,-74.76)" r="6.5"><circle class="node label" r="6" node_type="label"></circle><text text-anchor="middle" font-size="8" font-weight="bold" y="2.5" class="node-label">30</text></g><g class="noselect gnode" struct_name="m" transform="translate(75.21,86.21)" r="6.5"><circle class="node label" r="6" node_type="label"></circle><text text-anchor="middle" font-size="8" font-weight="bold" y="2.5" class="node-label">40</text></g><g class="noselect gnode" struct_name="m" transform="translate(192.87,179.01)" r="6.5"><circle class="node label" r="6" node_type="label"></circle><text text-anchor="middle" font-size="8" font-weight="bold" y="2.5" class="node-label">50</text></g><g class="noselect gnode" struct_name="m" transform="translate(104.91,263.52)" r="6.5"><circle class="node label" r="6" node_type="label"></circle><text text-anchor="middle" font-size="8" font-weight="bold" y="2.5" class="node-label">60</text></g><g class="noselect gnode" transform="translate(56.09,80.32)" r="6.5"><circle class="node" r="0" node_type="middle"></circle><text text-anchor="middle" font-size="8" font-weight="bold" y="2.5" class="node-label"></text></g><g class="noselect gnode" transform="translate(58.37,63.91)" r="6.5"><circle class="node" r="0" node_type="middle"></circle><text text-anchor="middle" font-size="8" font-weight="bold" y="2.5" class="node-label"></text></g><g class="noselect gnode" transform="translate(58.43,47.57)" r="6.5"><circle class="node" r="0" node_type="middle"></circle><text text-anchor="middle" font-size="8" font-weight="bold" y="2.5" class="node-label"></text></g><g class="noselect gnode" transform="translate(56.46,31.42)" r="6.5"><circle class="node" r="0" node_type="middle"></circle><text text-anchor="middle" font-size="8" font-weight="bold" y="2.5" class="node-label"></text></g><g class="noselect gnode" transform="translate(52.37,15.67)" r="6.5"><circle class="node" r="0" node_type="middle"></circle><text text-anchor="middle" font-size="8" font-weight="bold" y="2.5" class="node-label"></text></g><g class="noselect gnode" transform="translate(46.45,0.60)" r="6.5"><circle class="node" r="0" node_type="middle"></circle><text text-anchor="middle" font-size="8" font-weight="bold" y="2.5" class="node-label"></text></g><g class="noselect gnode" transform="translate(39.30,-13.96)" r="6.5"><circle class="node" r="0" node_type="middle"></circle><text text-anchor="middle" font-size="8" font-weight="bold" y="2.5" class="node-label"></text></g><g class="noselect gnode" transform="translate(31.58,-28.13)" r="6.5"><circle class="node" r="0" node_type="middle"></circle><text text-anchor="middle" font-size="8" font-weight="bold" y="2.5" class="node-label"></text></g><g class="noselect gnode" transform="translate(23.87,-42.15)" r="6.5"><circle class="node" r="0" node_type="middle"></circle><text text-anchor="middle" font-size="8" font-weight="bold" y="2.5" class="node-label"></text></g><g class="noselect gnode" transform="translate(16.48,-56.20)" r="6.5"><circle class="node" r="0" node_type="middle"></circle><text text-anchor="middle" font-size="8" font-weight="bold" y="2.5" class="node-label"></text></g><g class="noselect gnode" transform="translate(126.84,175.61)" r="6.5"><circle class="node" r="0" node_type="middle"></circle><text text-anchor="middle" font-size="8" font-weight="bold" y="2.5" class="node-label"></text></g><g class="noselect gnode" transform="translate(118.32,161.88)" r="6.5"><circle class="node" r="0" node_type="middle"></circle><text text-anchor="middle" font-size="8" font-weight="bold" y="2.5" class="node-label"></text></g><g class="noselect gnode" transform="translate(108.64,148.99)" r="6.5"><circle class="node" r="0" node_type="middle"></circle><text text-anchor="middle" font-size="8" font-weight="bold" y="2.5" class="node-label"></text></g><g class="noselect gnode" transform="translate(97.73,137.10)" r="6.5"><circle class="node" r="0" node_type="middle"></circle><text text-anchor="middle" font-size="8" font-weight="bold" y="2.5" class="node-label"></text></g><g class="noselect gnode" transform="translate(85.54,126.34)" r="6.5"><circle class="node" r="0" node_type="middle"></circle><text text-anchor="middle" font-size="8" font-weight="bold" y="2.5" class="node-label"></text></g><g class="noselect gnode" transform="translate(72.05,117.00)" r="6.5"><circle class="node" r="0" node_type="middle"></circle><text text-anchor="middle" font-size="8" font-weight="bold" y="2.5" class="node-label"></text></g><g class="noselect gnode" transform="translate(108.40,241.23)" r="6.5"><circle class="node" r="0" node_type="middle"></circle><text text-anchor="middle" font-size="8" font-weight="bold" y="2.5" class="node-label"></text></g><g class="noselect gnode" transform="translate(104.71,226.80)" r="6.5"><circle class="node" r="0" node_type="middle"></circle><text text-anchor="middle" font-size="8" font-weight="bold" y="2.5" class="node-label"></text></g><g class="noselect gnode" transform="translate(150.91,222.96)" r="6.5"><circle class="node" r="0" node_type="middle"></circle><text text-anchor="middle" font-size="8" font-weight="bold" y="2.5" class="node-label"></text></g><g class="noselect gnode" transform="translate(7.16,-74.95)" r="6.5"><circle class="node" r="0" node_type="middle"></circle><text text-anchor="middle" font-size="8" font-weight="bold" y="2.5" class="node-label"></text></g><g class="noselect gnode" transform="translate(44.82,107.06)" r="6.5"><circle class="node" r="0" node_type="middle"></circle><text text-anchor="middle" font-size="8" font-weight="bold" y="2.5" class="node-label"></text></g></g><line class="drag_line" x1="0" y1="0" x2="0" y2="0"></line></g></g></svg>