<svg xmlns="http://www.w3.org/2000/svg" viewBox="0 0 760 640" width="760" height="640"><style>svg {
  display: block;
  min-width: 100%;
  width: 100%;
  min-height: 100%;
}

circle.node {
  stroke: #ccc;
  stroke-width: 1px;
  opacity: 1;
  fill: white;
}

circle.node.label {
    stroke: transparent;
    stroke-width: 0;
    fill: white;
}

circle.outline_node {
    stroke-width: 1px;
    fill: red;
}

circle.protein {
    fill: gray;
    fill-opacity: 0.5;
    stroke-width: 4;
}

circle.hidden_outline {
    stroke-width: 0px;
}


line.link {
  stroke: #999;
  stroke-opacity: 0.8;
  stroke-width: 2;
}

line.basepair {
  stroke: red;
}

line.intermolecule {
  stroke: blue;
}

line.chain_chain {
  stroke-dasharray: 3,3;
}

line.fake {
  stroke: green;
}

.transparent {
    fill: transparent;
    stroke-width: 0;
    stroke-opacity: 0;
    opacity: 0;
    visibility: hidden;
}

.drag_line {
  stroke: #999;
  stroke-width: 2;
  pointer-events: none;
}

.drag_line_hidden {
  stroke: #999;
  stroke-width: 0;
  pointer-events: none;
}

.d3-tip {
    line-height: 1;
    font-weight: bold;
    padding: 6px;
    background: rgba(0, 0, 0, 0.6);
    color: #fff;
    border-radius: 4px;
    pointer-events: none;
          }

text.node-label {
    font-weight: bold;
    font-family: Tahoma, Geneva, sans-serif;
    color: rgb(100,100,100);
    pointer-events: none;
}

text {
    pointer-events: none;
}

g.gnode {

}

circle.outline_node.selected {
    visibility: visible;
}

circle.outline_node {
    visibility: hidden;
}

.brush .extent {
  fill-opacity: .1;
  stroke: #fff;
  shape-rendering: crispEdges;
}

.noselect {
    -webkit-touch-callout: none;
    -webkit-user-select: none;
    -khtml-user-select: none;
    -moz-user-select: none;
    -ms-user-select: none;
    user-select: none;
}

svg {
  display: block;
  min-width: 100%;
  width: 100%;
  min-height: 100%;
}

circle.node {
  stroke: #ccc;
  stroke-width: 1px;
  opacity: 1;
  fill: white;
}

circle.node.label {
    stroke: transparent;
    stroke-width: 0;
    fill: white;
}

circle.outline_node {
    stroke-width: 1px;
    fill: red;
}

circle.protein {
    fill: gray;
    fill-opacity: 0.5;
    stroke-width: 4;
}

circle.hidden_outline {
    stroke-width: 0px;
}


line.link {
  stroke: #999;
  stroke-opacity: 0.8;
  stroke-width: 2;
}

line.basepair {
  stroke: red;
}

line.intermolecule {
  stroke: blue;
}

line.chain_chain {
  stroke-dasharray: 3,3;
}

line.fake {
  stroke: green;
}

.transparent {
    fill: transparent;
    stroke-width: 0;
    stroke-opacity: 0;
    opacity: 0;
    visibility: hidden;
}

.drag_line {
  stroke: #999;
  stroke-width: 2;
  pointer-events: none;
}

.drag_line_hidden {
  stroke: #999;
  stroke-width: 0;
  pointer-events: none;
}

.d3-tip {
    line-height: 1;
    font-weight: bold;
    padding: 6px;
    background: rgba(0, 0, 0, 0.6);
    color: #fff;
    border-radius: 4px;
    pointer-events: none;
          }

text.node-label {
    font-weight: bold;
    font-family: Tahoma, Geneva, sans-serif;
    color: rgb(100,100,100);
    pointer-events: none;
}

text {
    pointer-events: none;
}

g.gnode {

}

circle.outline_node.selected {
    visibility: visible;
}

circle.outline_node {
    visibility: hidden;
}

.brush .extent {
  fill-opacity: .1;
  stroke: #fff;
  shape-rendering: crispEdges;
}

.noselect {
    -webkit-touch-callout: none;
    -webkit-user-select: none;
    -khtml-user-select: none;
    -moz-user-select: none;
    -ms-user-select: none;
    user-select: none;
}
/*# sourceURL=/Users/yumanakamura/ipy_sandbox/sandbox/claude_sandbox/mrna-transformer-worktrees/feat-issue57-switch-derna-knotty/scripts/eval/prerender/forna_vendor/fornac.css*/</style><style></style><g><g class="brush" style="pointer-events: all; -webkit-tap-highlight-color: rgba(0, 0, 0, 0);"><rect class="background" x="0" width="760" y="0" height="640" style="visibility: hidden; cursor: auto;"></rect><rect class="extent" x="0" width="0" y="0" height="0" style="cursor: move;"></rect><g class="resize n" transform="translate(0,0)" style="cursor: ns-resize; display: none;"><rect y="-3" width="0" height="6" style="visibility: hidden;"></rect></g><g class="resize e" transform="translate(0,0)" style="cursor: ew-resize; display: none;"><rect x="-3" width="6" height="0" style="visibility: hidden;"></rect></g><g class="resize s" transform="translate(0,0)" style="cursor: ns-resize; display: none;"><rect y="-3" width="0" height="6" style="visibility: hidden;"></rect></g><g class="resize w" transform="translate(0,0)" style="cursor: ew-resize; display: none;"><rect x="-3" width="6" height="0" style="visibility: hidden;"></rect></g><g class="resize nw" transform="translate(0,0)" style="cursor: nwse-resize; display: none;"><rect x="-3" y="-3" width="6" height="6" style="visibility: hidden;"></rect></g><g class="resize ne" transform="translate(0,0)" style="cursor: nesw-resize; display: none;"><rect x="-3" y="-3" width="6" height="6" style="visibility: hidden;"></rect></g><g class="resize se" transform="translate(0,0)" style="cursor: nwse-resize; display: none;"><rect x="-3" y="-3" width="6" height="6" style="visibility: hidden;"></rect></g><g class="resize sw" transform="translate(0,0)" style="cursor: nesw-resize; display: none;"><rect x="-3" y="-3" width="6" height="6" style="visibility: hidden;"></rect></g></g><g transform="translate(119.21,174.02) scale(1.81)"><g><line class="link basepair" x1="59.23" y1="184.00" x2="55.37" y2="169.70"></line><line class="link backbone" x1="72.07" y1="191.51" x2="59.23" y2="184.00"></line><line class="link basepair" x1="45.89" y1="189.57" x2="39.13" y2="176.77"></line><line class="link backbone" x1="59.23" y1="184.00" x2="45.89" y2="189.57"></line><line class="link basepair" x1="32.87" y1="197.68" x2="24.71" y2="185.63"></line><line class="link backbone" x1="45.89" y1="189.57" x2="32.87" y2="197.68"></line><line class="link basepair" x1="20.52" y1="206.92" x2="11.46" y2="194.98"></line><line class="link backbone" x1="32.87" y1="197.68" x2="20.52" y2="206.92"></line><line class="link backbone" x1="20.52" y1="206.92" x2="16.89" y2="221.96"></line><line class="link backbone" x1="16.89" y1="221.96" x2="3.15" y2="228.34"></line><line class="link backbone" x1="3.15" y1="228.34" x2="-10.49" y2="221.56"></line><line class="link backbone" x1="-10.49" y1="221.56" x2="-13.68" y2="206.69"></line><line class="link backbone" x1="-13.68" y1="206.69" x2="-4.16" y2="194.92"></line><line class="link basepair" x1="11.46" y1="194.98" x2="20.52" y2="206.92"></line><line class="link backbone" x1="-4.16" y1="194.92" x2="11.46" y2="194.98"></line><line class="link basepair" x1="24.71" y1="185.63" x2="32.87" y2="197.68"></line><line class="link backbone" x1="11.46" y1="194.98" x2="24.71" y2="185.63"></line><line class="link basepair" x1="39.13" y1="176.77" x2="45.89" y2="189.57"></line><line class="link backbone" x1="24.71" y1="185.63" x2="39.13" y2="176.77"></line><line class="link basepair" x1="55.37" y1="169.70" x2="59.23" y2="184.00"></line><line class="link backbone" x1="39.13" y1="176.77" x2="55.37" y2="169.70"></line><line class="link basepair" x1="67.24" y1="156.87" x2="81.86" y2="159.11"></line><line class="link backbone" x1="55.37" y1="169.70" x2="67.24" y2="156.87"></line><line class="link basepair" x1="72.53" y1="139.89" x2="85.93" y2="145.22"></line><line class="link backbone" x1="67.24" y1="156.87" x2="72.53" y2="139.89"></line><line class="link basepair" x1="79.91" y1="124.53" x2="92.67" y2="131.48"></line><line class="link backbone" x1="72.53" y1="139.89" x2="79.91" y2="124.53"></line><line class="link basepair" x1="88.45" y1="110.31" x2="100.72" y2="118.05"></line><line class="link backbone" x1="79.91" y1="124.53" x2="88.45" y2="110.31"></line><line class="link basepair" x1="97.02" y1="96.81" x2="109.58" y2="104.75"></line><line class="link backbone" x1="88.45" y1="110.31" x2="97.02" y2="96.81"></line><line class="link backbone" x1="97.02" y1="96.81" x2="100.43" y2="81.66"></line><line class="link basepair" x1="115.94" y1="80.49" x2="122.05" y2="94.02"></line><line class="link backbone" x1="100.43" y1="81.66" x2="115.94" y2="80.49"></line><line class="link basepair" x1="129.90" y1="73.80" x2="136.75" y2="86.58"></line><line class="link backbone" x1="115.94" y1="80.49" x2="129.90" y2="73.80"></line><line class="link basepair" x1="143.41" y1="66.00" x2="151.14" y2="78.36"></line><line class="link backbone" x1="129.90" y1="73.80" x2="143.41" y2="66.00"></line><line class="link basepair" x1="156.06" y1="57.32" x2="164.93" y2="68.85"></line><line class="link backbone" x1="143.41" y1="66.00" x2="156.06" y2="57.32"></line><line class="link basepair" x1="167.66" y1="47.35" x2="177.76" y2="57.74"></line><line class="link backbone" x1="156.06" y1="57.32" x2="167.66" y2="47.35"></line><line class="link basepair" x1="177.98" y1="36.04" x2="189.22" y2="45.22"></line><line class="link backbone" x1="167.66" y1="47.35" x2="177.98" y2="36.04"></line><line class="link basepair" x1="187.09" y1="23.59" x2="199.20" y2="31.35"></line><line class="link backbone" x1="177.98" y1="36.04" x2="187.09" y2="23.59"></line><line class="link basepair" x1="194.50" y1="10.19" x2="207.54" y2="16.04"></line><line class="link backbone" x1="187.09" y1="23.59" x2="194.50" y2="10.19"></line><line class="link basepair" x1="199.14" y1="-3.68" x2="213.61" y2="-0.97"></line><line class="link backbone" x1="194.50" y1="10.19" x2="199.14" y2="-3.68"></line><line class="link backbone" x1="199.14" y1="-3.68" x2="188.20" y2="-14.37"></line><line class="link backbone" x1="188.20" y1="-14.37" x2="187.30" y2="-29.40"></line><line class="link backbone" x1="187.30" y1="-29.40" x2="196.15" y2="-41.44"></line><line class="link backbone" x1="196.15" y1="-41.44" x2="210.55" y2="-45.42"></line><line class="link backbone" x1="210.55" y1="-45.42" x2="224.27" y2="-39.25"></line><line class="link basepair" x1="230.34" y1="-25.27" x2="227.74" y2="-10.78"></line><line class="link backbone" x1="224.27" y1="-39.25" x2="230.34" y2="-25.27"></line><line class="link basepair" x1="244.95" y1="-24.69" x2="245.61" y2="-10.34"></line><line class="link backbone" x1="230.34" y1="-25.27" x2="244.95" y2="-24.69"></line><line class="link basepair" x1="260.30" y1="-26.49" x2="262.53" y2="-12.15"></line><line class="link backbone" x1="244.95" y1="-24.69" x2="260.30" y2="-26.49"></line><line class="link basepair" x1="275.51" y1="-29.55" x2="278.61" y2="-15.03"></line><line class="link backbone" x1="260.30" y1="-26.49" x2="275.51" y2="-29.55"></line><line class="link backbone" x1="275.51" y1="-29.55" x2="286.81" y2="-39.93"></line><line class="link backbone" x1="286.81" y1="-39.93" x2="301.06" y2="-35.37"></line><line class="link backbone" x1="301.06" y1="-35.37" x2="304.38" y2="-20.76"></line><line class="link backbone" x1="304.38" y1="-20.76" x2="293.44" y2="-10.53"></line><line class="link basepair" x1="278.61" y1="-15.03" x2="275.51" y2="-29.55"></line><line class="link backbone" x1="293.44" y1="-10.53" x2="278.61" y2="-15.03"></line><line class="link basepair" x1="262.53" y1="-12.15" x2="260.30" y2="-26.49"></line><line class="link backbone" x1="278.61" y1="-15.03" x2="262.53" y2="-12.15"></line><line class="link basepair" x1="245.61" y1="-10.34" x2="244.95" y2="-24.69"></line><line class="link backbone" x1="262.53" y1="-12.15" x2="245.61" y2="-10.34"></line><line class="link basepair" x1="227.74" y1="-10.78" x2="230.34" y2="-25.27"></line><line class="link backbone" x1="245.61" y1="-10.34" x2="227.74" y2="-10.78"></line><line class="link basepair" x1="213.61" y1="-0.97" x2="199.14" y2="-3.68"></line><line class="link backbone" x1="227.74" y1="-10.78" x2="213.61" y2="-0.97"></line><line class="link basepair" x1="207.54" y1="16.04" x2="194.50" y2="10.19"></line><line class="link backbone" x1="213.61" y1="-0.97" x2="207.54" y2="16.04"></line><line class="link basepair" x1="199.20" y1="31.35" x2="187.09" y2="23.59"></line><line class="link backbone" x1="207.54" y1="16.04" x2="199.20" y2="31.35"></line><line class="link basepair" x1="189.22" y1="45.22" x2="177.98" y2="36.04"></line><line class="link backbone" x1="199.20" y1="31.35" x2="189.22" y2="45.22"></line><line class="link basepair" x1="177.76" y1="57.74" x2="167.66" y2="47.35"></line><line class="link backbone" x1="189.22" y1="45.22" x2="177.76" y2="57.74"></line><line class="link basepair" x1="164.93" y1="68.85" x2="156.06" y2="57.32"></line><line class="link backbone" x1="177.76" y1="57.74" x2="164.93" y2="68.85"></line><line class="link basepair" x1="151.14" y1="78.36" x2="143.41" y2="66.00"></line><line class="link backbone" x1="164.93" y1="68.85" x2="151.14" y2="78.36"></line><line class="link basepair" x1="136.75" y1="86.58" x2="129.90" y2="73.80"></line><line class="link backbone" x1="151.14" y1="78.36" x2="136.75" y2="86.58"></line><line class="link basepair" x1="122.05" y1="94.02" x2="115.94" y2="80.49"></line><line class="link backbone" x1="136.75" y1="86.58" x2="122.05" y2="94.02"></line><line class="link basepair" x1="109.58" y1="104.75" x2="97.02" y2="96.81"></line><line class="link backbone" x1="122.05" y1="94.02" x2="109.58" y2="104.75"></line><line class="link basepair" x1="100.72" y1="118.05" x2="88.45" y2="110.31"></line><line class="link backbone" x1="109.58" y1="104.75" x2="100.72" y2="118.05"></line><line class="link basepair" x1="92.67" y1="131.48" x2="79.91" y2="124.53"></line><line class="link backbone" x1="100.72" y1="118.05" x2="92.67" y2="131.48"></line><line class="link basepair" x1="85.93" y1="145.22" x2="72.53" y2="139.89"></line><line class="link backbone" x1="92.67" y1="131.48" x2="85.93" y2="145.22"></line><line class="link basepair" x1="81.86" y1="159.11" x2="67.24" y2="156.87"></line><line class="link backbone" x1="85.93" y1="145.22" x2="81.86" y2="159.11"></line><line class="link label_link" x1="-4.16" y1="194.92" x2="-18.15" y2="188.19"></line><line class="link label_link" x1="100.43" y1="81.66" x2="89.18" y2="70.81"></line><line class="link label_link" x1="188.20" y1="-14.37" x2="174.31" y2="-21.42"></line><line class="link label_link" x1="301.06" y1="-35.37" x2="307.16" y2="-49.55"></line><line class="link label_link" x1="189.22" y1="45.22" x2="198.29" y2="58.02"></line><line class="link label_link" x1="81.86" y1="159.11" x2="96.65" y2="164.21"></line><line class="link fake transparent" x1="115.94" y1="80.49" x2="126.21" y2="83.92"></line><line class="link fake transparent" x1="115.94" y1="80.49" x2="136.75" y2="86.58"></line><line class="link fake transparent" x1="129.90" y1="73.80" x2="126.21" y2="83.92"></line><line class="link fake transparent" x1="136.75" y1="86.58" x2="126.21" y2="83.92"></line><line class="link fake transparent" x1="122.05" y1="94.02" x2="126.21" y2="83.92"></line><line class="link fake transparent" x1="129.90" y1="73.80" x2="140.45" y2="76.46"></line><line class="link fake transparent" x1="143.41" y1="66.00" x2="140.45" y2="76.46"></line><line class="link fake transparent" x1="151.14" y1="78.36" x2="140.45" y2="76.46"></line><line class="link fake transparent" x1="136.75" y1="86.58" x2="140.45" y2="76.46"></line><line class="link fake transparent" x1="143.41" y1="66.00" x2="154.13" y2="67.93"></line><line class="link fake transparent" x1="156.06" y1="57.32" x2="154.13" y2="67.93"></line><line class="link fake transparent" x1="164.93" y1="68.85" x2="154.13" y2="67.93"></line><line class="link fake transparent" x1="151.14" y1="78.36" x2="154.13" y2="67.93"></line><line class="link fake transparent" x1="156.06" y1="57.32" x2="166.92" y2="58.20"></line><line class="link fake transparent" x1="167.66" y1="47.35" x2="166.92" y2="58.20"></line><line class="link fake transparent" x1="177.76" y1="57.74" x2="166.92" y2="58.20"></line><line class="link fake transparent" x1="164.93" y1="68.85" x2="166.92" y2="58.20"></line><line class="link fake transparent" x1="167.66" y1="47.35" x2="178.52" y2="46.90"></line><line class="link fake transparent" x1="177.98" y1="36.04" x2="178.52" y2="46.90"></line><line class="link fake transparent" x1="189.22" y1="45.22" x2="178.52" y2="46.90"></line><line class="link fake transparent" x1="177.76" y1="57.74" x2="178.52" y2="46.90"></line><line class="link fake transparent" x1="177.98" y1="36.04" x2="188.76" y2="34.34"></line><line class="link fake transparent" x1="187.09" y1="23.59" x2="188.76" y2="34.34"></line><line class="link fake transparent" x1="199.20" y1="31.35" x2="188.76" y2="34.34"></line><line class="link fake transparent" x1="189.22" y1="45.22" x2="188.76" y2="34.34"></line><line class="link fake transparent" x1="187.09" y1="23.59" x2="197.57" y2="20.57"></line><line class="link fake transparent" x1="194.50" y1="10.19" x2="197.57" y2="20.57"></line><line class="link fake transparent" x1="207.54" y1="16.04" x2="197.57" y2="20.57"></line><line class="link fake transparent" x1="199.20" y1="31.35" x2="197.57" y2="20.57"></line><line class="link fake transparent" x1="194.50" y1="10.19" x2="204.40" y2="5.65"></line><line class="link fake transparent" x1="199.14" y1="-3.68" x2="204.40" y2="5.65"></line><line class="link fake transparent" x1="213.61" y1="-0.97" x2="204.40" y2="5.65"></line><line class="link fake transparent" x1="207.54" y1="16.04" x2="204.40" y2="5.65"></line><line class="link fake transparent" x1="230.34" y1="-25.27" x2="237.16" y2="-17.08"></line><line class="link fake transparent" x1="244.95" y1="-24.69" x2="237.16" y2="-17.08"></line><line class="link fake transparent" x1="245.61" y1="-10.34" x2="237.16" y2="-17.08"></line><line class="link fake transparent" x1="227.74" y1="-10.78" x2="237.16" y2="-17.08"></line><line class="link fake transparent" x1="244.95" y1="-24.69" x2="253.47" y2="-18.06"></line><line class="link fake transparent" x1="260.30" y1="-26.49" x2="253.47" y2="-18.06"></line><line class="link fake transparent" x1="262.53" y1="-12.15" x2="253.47" y2="-18.06"></line><line class="link fake transparent" x1="245.61" y1="-10.34" x2="253.47" y2="-18.06"></line><line class="link fake transparent" x1="260.30" y1="-26.49" x2="269.34" y2="-20.61"></line><line class="link fake transparent" x1="275.51" y1="-29.55" x2="269.34" y2="-20.61"></line><line class="link fake transparent" x1="278.61" y1="-15.03" x2="269.34" y2="-20.61"></line><line class="link fake transparent" x1="262.53" y1="-12.15" x2="269.34" y2="-20.61"></line><line class="link fake transparent" x1="59.23" y1="184.00" x2="49.53" y2="179.33"></line><line class="link fake transparent" x1="45.89" y1="189.57" x2="49.53" y2="179.33"></line><line class="link fake transparent" x1="39.13" y1="176.77" x2="49.53" y2="179.33"></line><line class="link fake transparent" x1="55.37" y1="169.70" x2="49.53" y2="179.33"></line><line class="link fake transparent" x1="45.89" y1="189.57" x2="35.40" y2="187.10"></line><line class="link fake transparent" x1="32.87" y1="197.68" x2="35.40" y2="187.10"></line><line class="link fake transparent" x1="24.71" y1="185.63" x2="35.40" y2="187.10"></line><line class="link fake transparent" x1="39.13" y1="176.77" x2="35.40" y2="187.10"></line><line class="link fake transparent" x1="32.87" y1="197.68" x2="22.19" y2="196.22"></line><line class="link fake transparent" x1="20.52" y1="206.92" x2="22.19" y2="196.22"></line><line class="link fake transparent" x1="11.46" y1="194.98" x2="22.19" y2="196.22"></line><line class="link fake transparent" x1="24.71" y1="185.63" x2="22.19" y2="196.22"></line><line class="link fake transparent" x1="67.24" y1="156.87" x2="76.15" y2="150.02"></line><line class="link fake transparent" x1="72.53" y1="139.89" x2="76.15" y2="150.02"></line><line class="link fake transparent" x1="85.93" y1="145.22" x2="76.15" y2="150.02"></line><line class="link fake transparent" x1="81.86" y1="159.11" x2="76.15" y2="150.02"></line><line class="link fake transparent" x1="72.53" y1="139.89" x2="82.38" y2="135.05"></line><line class="link fake transparent" x1="79.91" y1="124.53" x2="82.38" y2="135.05"></line><line class="link fake transparent" x1="92.67" y1="131.48" x2="82.38" y2="135.05"></line><line class="link fake transparent" x1="85.93" y1="145.22" x2="82.38" y2="135.05"></line><line class="link fake transparent" x1="79.91" y1="124.53" x2="90.17" y2="120.96"></line><line class="link fake transparent" x1="88.45" y1="110.31" x2="90.17" y2="120.96"></line><line class="link fake transparent" x1="100.72" y1="118.05" x2="90.17" y2="120.96"></line><line class="link fake transparent" x1="92.67" y1="131.48" x2="90.17" y2="120.96"></line><line class="link fake transparent" x1="88.45" y1="110.31" x2="98.92" y2="107.40"></line><line class="link fake transparent" x1="97.02" y1="96.81" x2="98.92" y2="107.40"></line><line class="link fake transparent" x1="109.58" y1="104.75" x2="98.92" y2="107.40"></line><line class="link fake transparent" x1="100.72" y1="118.05" x2="98.92" y2="107.40"></line><line class="link fake transparent" x1="72.07" y1="191.51" x2="72.40" y2="173.51"></line><line class="link fake transparent" x1="72.07" y1="191.51" x2="67.24" y2="156.87"></line><line class="link fake transparent" x1="59.23" y1="184.00" x2="72.40" y2="173.51"></line><line class="link fake transparent" x1="59.23" y1="184.00" x2="81.86" y2="159.11"></line><line class="link fake transparent" x1="55.37" y1="169.70" x2="72.40" y2="173.51"></line><line class="link fake transparent" x1="55.37" y1="169.70" x2="89.68" y2="173.10"></line><line class="link fake transparent" x1="67.24" y1="156.87" x2="72.40" y2="173.51"></line><line class="link fake transparent" x1="67.24" y1="156.87" x2="88.52" y2="185.19"></line><line class="link fake transparent" x1="81.86" y1="159.11" x2="72.40" y2="173.51"></line><line class="link fake transparent" x1="81.86" y1="159.11" x2="72.07" y2="191.51"></line><line class="link fake transparent" x1="275.51" y1="-29.55" x2="289.92" y2="-25.15"></line><line class="link fake transparent" x1="275.51" y1="-29.55" x2="304.38" y2="-20.76"></line><line class="link fake transparent" x1="286.81" y1="-39.93" x2="289.92" y2="-25.15"></line><line class="link fake transparent" x1="286.81" y1="-39.93" x2="293.44" y2="-10.53"></line><line class="link fake transparent" x1="301.06" y1="-35.37" x2="289.92" y2="-25.15"></line><line class="link fake transparent" x1="301.06" y1="-35.37" x2="278.61" y2="-15.03"></line><line class="link fake transparent" x1="304.38" y1="-20.76" x2="289.92" y2="-25.15"></line><line class="link fake transparent" x1="304.38" y1="-20.76" x2="275.51" y2="-29.55"></line><line class="link fake transparent" x1="293.44" y1="-10.53" x2="289.92" y2="-25.15"></line><line class="link fake transparent" x1="293.44" y1="-10.53" x2="286.81" y2="-39.93"></line><line class="link fake transparent" x1="278.61" y1="-15.03" x2="289.92" y2="-25.15"></line><line class="link fake transparent" x1="278.61" y1="-15.03" x2="301.06" y2="-35.37"></line><line class="link fake transparent" x1="20.52" y1="206.92" x2="3.44" y2="210.69"></line><line class="link fake transparent" x1="20.52" y1="206.92" x2="-10.49" y2="221.56"></line><line class="link fake transparent" x1="16.89" y1="221.96" x2="3.44" y2="210.69"></line><line class="link fake transparent" x1="16.89" y1="221.96" x2="-13.68" y2="206.69"></line><line class="link fake transparent" x1="3.15" y1="228.34" x2="3.44" y2="210.69"></line><line class="link fake transparent" x1="3.15" y1="228.34" x2="-4.16" y2="194.92"></line><line class="link fake transparent" x1="-10.49" y1="221.56" x2="3.44" y2="210.69"></line><line class="link fake transparent" x1="-10.49" y1="221.56" x2="11.46" y2="194.98"></line><line class="link fake transparent" x1="-13.68" y1="206.69" x2="3.44" y2="210.69"></line><line class="link fake transparent" x1="-13.68" y1="206.69" x2="20.52" y2="206.92"></line><line class="link fake transparent" x1="-4.16" y1="194.92" x2="3.44" y2="210.69"></line><line class="link fake transparent" x1="-4.16" y1="194.92" x2="16.89" y2="221.96"></line><line class="link fake transparent" x1="11.46" y1="194.98" x2="3.44" y2="210.69"></line><line class="link fake transparent" x1="11.46" y1="194.98" x2="3.15" y2="228.34"></line><line class="link fake transparent" x1="199.14" y1="-3.68" x2="208.86" y2="-22.98"></line><line class="link fake transparent" x1="199.14" y1="-3.68" x2="210.55" y2="-45.42"></line><line class="link fake transparent" x1="188.20" y1="-14.37" x2="208.86" y2="-22.98"></line><line class="link fake transparent" x1="188.20" y1="-14.37" x2="224.27" y2="-39.25"></line><line class="link fake transparent" x1="187.30" y1="-29.40" x2="208.86" y2="-22.98"></line><line class="link fake transparent" x1="187.30" y1="-29.40" x2="230.34" y2="-25.27"></line><line class="link fake transparent" x1="196.15" y1="-41.44" x2="208.86" y2="-22.98"></line><line class="link fake transparent" x1="196.15" y1="-41.44" x2="227.74" y2="-10.78"></line><line class="link fake transparent" x1="210.55" y1="-45.42" x2="208.86" y2="-22.98"></line><line class="link fake transparent" x1="210.55" y1="-45.42" x2="213.61" y2="-0.97"></line><line class="link fake transparent" x1="224.27" y1="-39.25" x2="208.86" y2="-22.98"></line><line class="link fake transparent" x1="224.27" y1="-39.25" x2="199.14" y2="-3.68"></line><line class="link fake transparent" x1="230.34" y1="-25.27" x2="208.86" y2="-22.98"></line><line class="link fake transparent" x1="230.34" y1="-25.27" x2="188.20" y2="-14.37"></line><line class="link fake transparent" x1="227.74" y1="-10.78" x2="208.86" y2="-22.98"></line><line class="link fake transparent" x1="227.74" y1="-10.78" x2="187.30" y2="-29.40"></line><line class="link fake transparent" x1="213.61" y1="-0.97" x2="208.86" y2="-22.98"></line><line class="link fake transparent" x1="213.61" y1="-0.97" x2="196.15" y2="-41.44"></line><line class="link fake transparent" x1="97.02" y1="96.81" x2="109.15" y2="91.71"></line><line class="link fake transparent" x1="97.02" y1="96.81" x2="115.94" y2="80.49"></line><line class="link fake transparent" x1="100.43" y1="81.66" x2="109.15" y2="91.71"></line><line class="link fake transparent" x1="100.43" y1="81.66" x2="122.05" y2="94.02"></line><line class="link fake transparent" x1="115.94" y1="80.49" x2="109.15" y2="91.71"></line><line class="link fake transparent" x1="115.94" y1="80.49" x2="109.58" y2="104.75"></line><line class="link fake transparent" x1="122.05" y1="94.02" x2="109.15" y2="91.71"></line><line class="link fake transparent" x1="122.05" y1="94.02" x2="97.02" y2="96.81"></line><line class="link fake transparent" x1="109.58" y1="104.75" x2="109.15" y2="91.71"></line><line class="link fake transparent" x1="109.58" y1="104.75" x2="100.43" y2="81.66"></line></g><g><g class="noselect gnode" struct_name="m" transform="translate(72.07,191.51)" r="6.5"><circle class="node" r="6" node_type="nucleotide" style="fill: lightsalmon;"></circle><text text-anchor="middle" font-size="8" font-weight="bold" y="2.5" class="node-label">G</text></g><g class="noselect gnode" struct_name="m" transform="translate(59.23,184.00)" r="6.5"><circle class="node" r="6" node_type="nucleotide" style="fill: lightgreen;"></circle><text text-anchor="middle" font-size="8" font-weight="bold" y="2.5" class="node-label">A</text></g><g class="noselect gnode" struct_name="m" transform="translate(45.89,189.57)" r="6.5"><circle class="node" r="6" node_type="nucleotide" style="fill: lightgreen;"></circle><text text-anchor="middle" font-size="8" font-weight="bold" y="2.5" class="node-label">U</text></g><g class="noselect gnode" struct_name="m" transform="translate(32.87,197.68)" r="6.5"><circle class="node" r="6" node_type="nucleotide" style="fill: lightgreen;"></circle><text text-anchor="middle" font-size="8" font-weight="bold" y="2.5" class="node-label">G</text></g><g class="noselect gnode" struct_name="m" transform="translate(20.52,206.92)" r="6.5"><circle class="node" r="6" node_type="nucleotide" style="fill: lightgreen;"></circle><text text-anchor="middle" font-size="8" font-weight="bold" y="2.5" class="node-label">U</text></g><g class="noselect gnode" struct_name="m" transform="translate(16.89,221.96)" r="6.5"><circle class="node" r="6" node_type="nucleotide" style="fill: lightblue;"></circle><text text-anchor="middle" font-size="8" font-weight="bold" y="2.5" class="node-label">G</text></g><g class="noselect gnode" struct_name="m" transform="translate(3.15,228.34)" r="6.5"><circle class="node" r="6" node_type="nucleotide" style="fill: lightblue;"></circle><text text-anchor="middle" font-size="8" font-weight="bold" y="2.5" class="node-label">G</text></g><g class="noselect gnode" struct_name="m" transform="translate(-10.49,221.56)" r="6.5"><circle class="node" r="6" node_type="nucleotide" style="fill: lightblue;"></circle><text text-anchor="middle" font-size="8" font-weight="bold" y="2.5" class="node-label">A</text></g><g class="noselect gnode" struct_name="m" transform="translate(-13.68,206.69)" r="6.5"><circle class="node" r="6" node_type="nucleotide" style="fill: lightblue;"></circle><text text-anchor="middle" font-size="8" font-weight="bold" y="2.5" class="node-label">U</text></g><g class="noselect gnode" struct_name="m" transform="translate(-4.16,194.92)" r="6.5"><circle class="node" r="6" node_type="nucleotide" style="fill: lightblue;"></circle><text text-anchor="middle" font-size="8" font-weight="bold" y="2.5" class="node-label">A</text></g><g class="noselect gnode" struct_name="m" transform="translate(11.46,194.98)" r="6.5"><circle class="node" r="6" node_type="nucleotide" style="fill: lightgreen;"></circle><text text-anchor="middle" font-size="8" font-weight="bold" y="2.5" class="node-label">A</text></g><g class="noselect gnode" struct_name="m" transform="translate(24.71,185.63)" r="6.5"><circle class="node" r="6" node_type="nucleotide" style="fill: lightgreen;"></circle><text text-anchor="middle" font-size="8" font-weight="bold" y="2.5" class="node-label">C</text></g><g class="noselect gnode" struct_name="m" transform="translate(39.13,176.77)" r="6.5"><circle class="node" r="6" node_type="nucleotide" style="fill: lightgreen;"></circle><text text-anchor="middle" font-size="8" font-weight="bold" y="2.5" class="node-label">A</text></g><g class="noselect gnode" struct_name="m" transform="translate(55.37,169.70)" r="6.5"><circle class="node" r="6" node_type="nucleotide" style="fill: lightgreen;"></circle><text text-anchor="middle" font-size="8" font-weight="bold" y="2.5" class="node-label">U</text></g><g class="noselect gnode" struct_name="m" transform="translate(67.24,156.87)" r="6.5"><circle class="node" r="6" node_type="nucleotide" style="fill: lightgreen;"></circle><text text-anchor="middle" font-size="8" font-weight="bold" y="2.5" class="node-label">G</text></g><g class="noselect gnode" struct_name="m" transform="translate(72.53,139.89)" r="6.5"><circle class="node" r="6" node_type="nucleotide" style="fill: lightgreen;"></circle><text text-anchor="middle" font-size="8" font-weight="bold" y="2.5" class="node-label">U</text></g><g class="noselect gnode" struct_name="m" transform="translate(79.91,124.53)" r="6.5"><circle class="node" r="6" node_type="nucleotide" style="fill: lightgreen;"></circle><text text-anchor="middle" font-size="8" font-weight="bold" y="2.5" class="node-label">G</text></g><g class="noselect gnode" struct_name="m" transform="translate(88.45,110.31)" r="6.5"><circle class="node" r="6" node_type="nucleotide" style="fill: lightgreen;"></circle><text text-anchor="middle" font-size="8" font-weight="bold" y="2.5" class="node-label">G</text></g><g class="noselect gnode" struct_name="m" transform="translate(97.02,96.81)" r="6.5"><circle class="node" r="6" node_type="nucleotide" style="fill: lightgreen;"></circle><text text-anchor="middle" font-size="8" font-weight="bold" y="2.5" class="node-label">U</text></g><g class="noselect gnode" struct_name="m" transform="translate(100.43,81.66)" r="6.5"><circle class="node" r="6" node_type="nucleotide" style="fill: rgb(219, 219, 141);"></circle><text text-anchor="middle" font-size="8" font-weight="bold" y="2.5" class="node-label">G</text></g><g class="noselect gnode" struct_name="m" transform="translate(115.94,80.49)" r="6.5"><circle class="node" r="6" node_type="nucleotide" style="fill: lightgreen;"></circle><text text-anchor="middle" font-size="8" font-weight="bold" y="2.5" class="node-label">C</text></g><g class="noselect gnode" struct_name="m" transform="translate(129.90,73.80)" r="6.5"><circle class="node" r="6" node_type="nucleotide" style="fill: lightgreen;"></circle><text text-anchor="middle" font-size="8" font-weight="bold" y="2.5" class="node-label">A</text></g><g class="noselect gnode" struct_name="m" transform="translate(143.41,66.00)" r="6.5"><circle class="node" r="6" node_type="nucleotide" style="fill: lightgreen;"></circle><text text-anchor="middle" font-size="8" font-weight="bold" y="2.5" class="node-label">U</text></g><g class="noselect gnode" struct_name="m" transform="translate(156.06,57.32)" r="6.5"><circle class="node" r="6" node_type="nucleotide" style="fill: lightgreen;"></circle><text text-anchor="middle" font-size="8" font-weight="bold" y="2.5" class="node-label">G</text></g><g class="noselect gnode" struct_name="m" transform="translate(167.66,47.35)" r="6.5"><circle class="node" r="6" node_type="nucleotide" style="fill: lightgreen;"></circle><text text-anchor="middle" font-size="8" font-weight="bold" y="2.5" class="node-label">G</text></g><g class="noselect gnode" struct_name="m" transform="translate(177.98,36.04)" r="6.5"><circle class="node" r="6" node_type="nucleotide" style="fill: lightgreen;"></circle><text text-anchor="middle" font-size="8" font-weight="bold" y="2.5" class="node-label">U</text></g><g class="noselect gnode" struct_name="m" transform="translate(187.09,23.59)" r="6.5"><circle class="node" r="6" node_type="nucleotide" style="fill: lightgreen;"></circle><text text-anchor="middle" font-size="8" font-weight="bold" y="2.5" class="node-label">C</text></g><g class="noselect gnode" struct_name="m" transform="translate(194.50,10.19)" r="6.5"><circle class="node" r="6" node_type="nucleotide" style="fill: lightgreen;"></circle><text text-anchor="middle" font-size="8" font-weight="bold" y="2.5" class="node-label">G</text></g><g class="noselect gnode" struct_name="m" transform="translate(199.14,-3.68)" r="6.5"><circle class="node" r="6" node_type="nucleotide" style="fill: lightgreen;"></circle><text text-anchor="middle" font-size="8" font-weight="bold" y="2.5" class="node-label">A</text></g><g class="noselect gnode" struct_name="m" transform="translate(188.20,-14.37)" r="6.5"><circle class="node" r="6" node_type="nucleotide" style="fill: rgb(219, 219, 141);"></circle><text text-anchor="middle" font-size="8" font-weight="bold" y="2.5" class="node-label">A</text></g><g class="noselect gnode" struct_name="m" transform="translate(187.30,-29.40)" r="6.5"><circle class="node" r="6" node_type="nucleotide" style="fill: rgb(219, 219, 141);"></circle><text text-anchor="middle" font-size="8" font-weight="bold" y="2.5" class="node-label">U</text></g><g class="noselect gnode" struct_name="m" transform="translate(196.15,-41.44)" r="6.5"><circle class="node" r="6" node_type="nucleotide" style="fill: rgb(219, 219, 141);"></circle><text text-anchor="middle" font-size="8" font-weight="bold" y="2.5" class="node-label">A</text></g><g class="noselect gnode" struct_name="m" transform="translate(210.55,-45.42)" r="6.5"><circle class="node" r="6" node_type="nucleotide" style="fill: rgb(219, 219, 141);"></circle><text text-anchor="middle" font-size="8" font-weight="bold" y="2.5" class="node-label">U</text></g><g class="noselect gnode" struct_name="m" transform="translate(224.27,-39.25)" r="6.5"><circle class="node" r="6" node_type="nucleotide" style="fill: rgb(219, 219, 141);"></circle><text text-anchor="middle" font-size="8" font-weight="bold" y="2.5" class="node-label">A</text></g><g class="noselect gnode" struct_name="m" transform="translate(230.34,-25.27)" r="6.5"><circle class="node" r="6" node_type="nucleotide" style="fill: lightgreen;"></circle><text text-anchor="middle" font-size="8" font-weight="bold" y="2.5" class="node-label">U</text></g><g class="noselect gnode" struct_name="m" transform="translate(244.95,-24.69)" r="6.5"><circle class="node" r="6" node_type="nucleotide" style="fill: lightgreen;"></circle><text text-anchor="middle" font-size="8" font-weight="bold" y="2.5" class="node-label">G</text></g><g class="noselect gnode" struct_name="m" transform="translate(260.30,-26.49)" r="6.5"><circle class="node" r="6" node_type="nucleotide" style="fill: lightgreen;"></circle><text text-anchor="middle" font-size="8" font-weight="bold" y="2.5" class="node-label">G</text></g><g class="noselect gnode" struct_name="m" transform="translate(275.51,-29.55)" r="6.5"><circle class="node" r="6" node_type="nucleotide" style="fill: lightgreen;"></circle><text text-anchor="middle" font-size="8" font-weight="bold" y="2.5" class="node-label">C</text></g><g class="noselect gnode" struct_name="m" transform="translate(286.81,-39.93)" r="6.5"><circle class="node" r="6" node_type="nucleotide" style="fill: lightblue;"></circle><text text-anchor="middle" font-size="8" font-weight="bold" y="2.5" class="node-label">G</text></g><g class="noselect gnode" struct_name="m" transform="translate(301.06,-35.37)" r="6.5"><circle class="node" r="6" node_type="nucleotide" style="fill: lightblue;"></circle><text text-anchor="middle" font-size="8" font-weight="bold" y="2.5" class="node-label">U</text></g><g class="noselect gnode" struct_name="m" transform="translate(304.38,-20.76)" r="6.5"><circle class="node" r="6" node_type="nucleotide" style="fill: lightblue;"></circle><text text-anchor="middle" font-size="8" font-weight="bold" y="2.5" class="node-label">G</text></g><g class="noselect gnode" struct_name="m" transform="translate(293.44,-10.53)" r="6.5"><circle class="node" r="6" node_type="nucleotide" style="fill: lightblue;"></circle><text text-anchor="middle" font-size="8" font-weight="bold" y="2.5" class="node-label">G</text></g><g class="noselect gnode" struct_name="m" transform="translate(278.61,-15.03)" r="6.5"><circle class="node" r="6" node_type="nucleotide" style="fill: lightgreen;"></circle><text text-anchor="middle" font-size="8" font-weight="bold" y="2.5" class="node-label">G</text></g><g class="noselect gnode" struct_name="m" transform="translate(262.53,-12.15)" r="6.5"><circle class="node" r="6" node_type="nucleotide" style="fill: lightgreen;"></circle><text text-anchor="middle" font-size="8" font-weight="bold" y="2.5" class="node-label">U</text></g><g class="noselect gnode" struct_name="m" transform="translate(245.61,-10.34)" r="6.5"><circle class="node" r="6" node_type="nucleotide" style="fill: lightgreen;"></circle><text text-anchor="middle" font-size="8" font-weight="bold" y="2.5" class="node-label">C</text></g><g class="noselect gnode" struct_name="m" transform="translate(227.74,-10.78)" r="6.5"><circle class="node" r="6" node_type="nucleotide" style="fill: lightgreen;"></circle><text text-anchor="middle" font-size="8" font-weight="bold" y="2.5" class="node-label">A</text></g><g class="noselect gnode" struct_name="m" transform="translate(213.61,-0.97)" r="6.5"><circle class="node" r="6" node_type="nucleotide" style="fill: lightgreen;"></circle><text text-anchor="middle" font-size="8" font-weight="bold" y="2.5" class="node-label">U</text></g><g class="noselect gnode" struct_name="m" transform="translate(207.54,16.04)" r="6.5"><circle class="node" r="6" node_type="nucleotide" style="fill: lightgreen;"></circle><text text-anchor="middle" font-size="8" font-weight="bold" y="2.5" class="node-label">C</text></g><g class="noselect gnode" struct_name="m" transform="translate(199.20,31.35)" r="6.5"><circle class="node" r="6" node_type="nucleotide" style="fill: lightgreen;"></circle><text text-anchor="middle" font-size="8" font-weight="bold" y="2.5" class="node-label">G</text></g><g class="noselect gnode" struct_name="m" transform="translate(189.22,45.22)" r="6.5"><circle class="node" r="6" node_type="nucleotide" style="fill: lightgreen;"></circle><text text-anchor="middle" font-size="8" font-weight="bold" y="2.5" class="node-label">A</text></g><g class="noselect gnode" struct_name="m" transform="translate(177.76,57.74)" r="6.5"><circle class="node" r="6" node_type="nucleotide" style="fill: lightgreen;"></circle><text text-anchor="middle" font-size="8" font-weight="bold" y="2.5" class="node-label">C</text></g><g class="noselect gnode" struct_name="m" transform="translate(164.93,68.85)" r="6.5"><circle class="node" r="6" node_type="nucleotide" style="fill: lightgreen;"></circle><text text-anchor="middle" font-size="8" font-weight="bold" y="2.5" class="node-label">C</text></g><g class="noselect gnode" struct_name="m" transform="translate(151.14,78.36)" r="6.5"><circle class="node" r="6" node_type="nucleotide" style="fill: lightgreen;"></circle><text text-anchor="middle" font-size="8" font-weight="bold" y="2.5" class="node-label">A</text></g><g class="noselect gnode" struct_name="m" transform="translate(136.75,86.58)" r="6.5"><circle class="node" r="6" node_type="nucleotide" style="fill: lightgreen;"></circle><text text-anchor="middle" font-size="8" font-weight="bold" y="2.5" class="node-label">U</text></g><g class="noselect gnode" struct_name="m" transform="translate(122.05,94.02)" r="6.5"><circle class="node" r="6" node_type="nucleotide" style="fill: lightgreen;"></circle><text text-anchor="middle" font-size="8" font-weight="bold" y="2.5" class="node-label">G</text></g><g class="noselect gnode" struct_name="m" transform="translate(109.58,104.75)" r="6.5"><circle class="node" r="6" node_type="nucleotide" style="fill: lightgreen;"></circle><text text-anchor="middle" font-size="8" font-weight="bold" y="2.5" class="node-label">G</text></g><g class="noselect gnode" struct_name="m" transform="translate(100.72,118.05)" r="6.5"><circle class="node" r="6" node_type="nucleotide" style="fill: lightgreen;"></circle><text text-anchor="middle" font-size="8" font-weight="bold" y="2.5" class="node-label">C</text></g><g class="noselect gnode" struct_name="m" transform="translate(92.67,131.48)" r="6.5"><circle class="node" r="6" node_type="nucleotide" style="fill: lightgreen;"></circle><text text-anchor="middle" font-size="8" font-weight="bold" y="2.5" class="node-label">C</text></g><g class="noselect gnode" struct_name="m" transform="translate(85.93,145.22)" r="6.5"><circle class="node" r="6" node_type="nucleotide" style="fill: lightgreen;"></circle><text text-anchor="middle" font-size="8" font-weight="bold" y="2.5" class="node-label">A</text></g><g class="noselect gnode" struct_name="m" transform="translate(81.86,159.11)" r="6.5"><circle class="node" r="6" node_type="nucleotide" style="fill: lightgreen;"></circle><text text-anchor="middle" font-size="8" font-weight="bold" y="2.5" class="node-label">C</text></g><g class="noselect gnode" struct_name="m" transform="translate(-18.15,188.19)" r="6.5"><circle class="node label" r="6" node_type="label"></circle><text text-anchor="middle" font-size="8" font-weight="bold" y="2.5" class="node-label">10</text></g><g class="noselect gnode" struct_name="m" transform="translate(89.18,70.81)" r="6.5"><circle class="node label" r="6" node_type="label"></circle><text text-anchor="middle" font-size="8" font-weight="bold" y="2.5" class="node-label">20</text></g><g class="noselect gnode" struct_name="m" transform="translate(174.31,-21.42)" r="6.5"><circle class="node label" r="6" node_type="label"></circle><text text-anchor="middle" font-size="8" font-weight="bold" y="2.5" class="node-label">30</text></g><g class="noselect gnode" struct_name="m" transform="translate(307.16,-49.55)" r="6.5"><circle class="node label" r="6" node_type="label"></circle><text text-anchor="middle" font-size="8" font-weight="bold" y="2.5" class="node-label">40</text></g><g class="noselect gnode" struct_name="m" transform="translate(198.29,58.02)" r="6.5"><circle class="node label" r="6" node_type="label"></circle><text text-anchor="middle" font-size="8" font-weight="bold" y="2.5" class="node-label">50</text></g><g class="noselect gnode" struct_name="m" transform="translate(96.65,164.21)" r="6.5"><circle class="node label" r="6" node_type="label"></circle><text text-anchor="middle" font-size="8" font-weight="bold" y="2.5" class="node-label">60</text></g><g class="noselect gnode" transform="translate(126.21,83.92)" r="6.5"><circle class="node" r="0" node_type="middle"></circle><text text-anchor="middle" font-size="8" font-weight="bold" y="2.5" class="node-label"></text></g><g class="noselect gnode" transform="translate(140.45,76.46)" r="6.5"><circle class="node" r="0" node_type="middle"></circle><text text-anchor="middle" font-size="8" font-weight="bold" y="2.5" class="node-label"></text></g><g class="noselect gnode" transform="translate(154.13,67.93)" r="6.5"><circle class="node" r="0" node_type="middle"></circle><text text-anchor="middle" font-size="8" font-weight="bold" y="2.5" class="node-label"></text></g><g class="noselect gnode" transform="translate(166.92,58.20)" r="6.5"><circle class="node" r="0" node_type="middle"></circle><text text-anchor="middle" font-size="8" font-weight="bold" y="2.5" class="node-label"></text></g><g class="noselect gnode" transform="translate(178.52,46.90)" r="6.5"><circle class="node" r="0" node_type="middle"></circle><text text-anchor="middle" font-size="8" font-weight="bold" y="2.5" class="node-label"></text></g><g class="noselect gnode" transform="translate(188.76,34.34)" r="6.5"><circle class="node" r="0" node_type="middle"></circle><text text-anchor="middle" font-size="8" font-weight="bold" y="2.5" class="node-label"></text></g><g class="noselect gnode" transform="translate(197.57,20.57)" r="6.5"><circle class="node" r="0" node_type="middle"></circle><text text-anchor="middle" font-size="8" font-weight="bold" y="2.5" class="node-label"></text></g><g class="noselect gnode" transform="translate(204.40,5.65)" r="6.5"><circle class="node" r="0" node_type="middle"></circle><text text-anchor="middle" font-size="8" font-weight="bold" y="2.5" class="node-label"></text></g><g class="noselect gnode" transform="translate(237.16,-17.08)" r="6.5"><circle class="node" r="0" node_type="middle"></circle><text text-anchor="middle" font-size="8" font-weight="bold" y="2.5" class="node-label"></text></g><g class="noselect gnode" transform="translate(253.47,-18.06)" r="6.5"><circle class="node" r="0" node_type="middle"></circle><text text-anchor="middle" font-size="8" font-weight="bold" y="2.5" class="node-label"></text></g><g class="noselect gnode" transform="translate(269.34,-20.61)" r="6.5"><circle class="node" r="0" node_type="middle"></circle><text text-anchor="middle" font-size="8" font-weight="bold" y="2.5" class="node-label"></text></g><g class="noselect gnode" transform="translate(49.53,179.33)" r="6.5"><circle class="node" r="0" node_type="middle"></circle><text text-anchor="middle" font-size="8" font-weight="bold" y="2.5" class="node-label"></text></g><g class="noselect gnode" transform="translate(35.40,187.10)" r="6.5"><circle class="node" r="0" node_type="middle"></circle><text text-anchor="middle" font-size="8" font-weight="bold" y="2.5" class="node-label"></text></g><g class="noselect gnode" transform="translate(22.19,196.22)" r="6.5"><circle class="node" r="0" node_type="middle"></circle><text text-anchor="middle" font-size="8" font-weight="bold" y="2.5" class="node-label"></text></g><g class="noselect gnode" transform="translate(76.15,150.02)" r="6.5"><circle class="node" r="0" node_type="middle"></circle><text text-anchor="middle" font-size="8" font-weight="bold" y="2.5" class="node-label"></text></g><g class="noselect gnode" transform="translate(82.38,135.05)" r="6.5"><circle class="node" r="0" node_type="middle"></circle><text text-anchor="middle" font-size="8" font-weight="bold" y="2.5" class="node-label"></text></g><g class="noselect gnode" transform="translate(90.17,120.96)" r="6.5"><circle class="node" r="0" node_type="middle"></circle><text text-anchor="middle" font-size="8" font-weight="bold" y="2.5" class="node-label"></text></g><g class="noselect gnode" transform="translate(98.92,107.40)" r="6.5"><circle class="node" r="0" node_type="middle"></circle><text text-anchor="middle" font-size="8" font-weight="bold" y="2.5" class="node-label"></text></g><g class="noselect gnode" transform="translate(89.68,173.10)" r="6.5"><circle class="node" r="0" node_type="middle"></circle><text text-anchor="middle" font-size="8" font-weight="bold" y="2.5" class="node-label"></text></g><g class="noselect gnode" transform="translate(88.52,185.19)" r="6.5"><circle class="node" r="0" node_type="middle"></circle><text text-anchor="middle" font-size="8" font-weight="bold" y="2.5" class="node-label"></text></g><g class="noselect gnode" transform="translate(72.40,173.51)" r="6.5"><circle class="node" r="0" node_type="middle"></circle><text text-anchor="middle" font-size="8" font-weight="bold" y="2.5" class="node-label"></text></g><g class="noselect gnode" transform="translate(289.92,-25.15)" r="6.5"><circle class="node" r="0" node_type="middle"></circle><text text-anchor="middle" font-size="8" font-weight="bold" y="2.5" class="node-label"></text></g><g class="noselect gnode" transform="translate(3.44,210.69)" r="6.5"><circle class="node" r="0" node_type="middle"></circle><text text-anchor="middle" font-size="8" font-weight="bold" y="2.5" class="node-label"></text></g><g class="noselect gnode" transform="translate(208.86,-22.98)" r="6.5"><circle class="node" r="0" node_type="middle"></circle><text text-anchor="middle" font-size="8" font-weight="bold" y="2.5" class="node-label"></text></g><g class="noselect gnode" transform="translate(109.15,91.71)" r="6.5"><circle class="node" r="0" node_type="middle"></circle><text text-anchor="middle" font-size="8" font-weight="bold" y="2.5" class="node-label"></text></g></g><line class="drag_line" x1="0" y1="0" x2="0" y2="0"></line></g></g></svg>