<svg xmlns="http://www.w3.org/2000/svg" viewBox="-95.9 -242.7 325.5 369.7" width="325" height="370"><style></style><line x1="4.9" y1="8.0" x2="16.7" y2="17.4" stroke="#999" stroke-width="1.65" stroke-opacity="0.8"/><line x1="14.2" y1="-3.7" x2="26.0" y2="5.6" stroke="#999" stroke-width="1.65" stroke-opacity="0.8"/><line x1="23.5" y1="-15.5" x2="35.3" y2="-6.2" stroke="#999" stroke-width="1.65" stroke-opacity="0.8"/><line x1="32.8" y1="-27.2" x2="44.6" y2="-17.9" stroke="#999" stroke-width="1.65" stroke-opacity="0.8"/><line x1="49.3" y1="-48.0" x2="61.1" y2="-38.7" stroke="#999" stroke-width="1.65" stroke-opacity="0.8"/><line x1="58.6" y1="-59.8" x2="70.4" y2="-50.5" stroke="#999" stroke-width="1.65" stroke-opacity="0.8"/><line x1="67.9" y1="-71.6" x2="79.7" y2="-62.3" stroke="#999" stroke-width="1.65" stroke-opacity="0.8"/><line x1="77.2" y1="-83.3" x2="89.0" y2="-74.0" stroke="#999" stroke-width="1.65" stroke-opacity="0.8"/><line x1="86.5" y1="-95.1" x2="98.3" y2="-85.8" stroke="#999" stroke-width="1.65" stroke-opacity="0.8"/><line x1="101.7" y1="-114.2" x2="113.5" y2="-104.9" stroke="#999" stroke-width="1.65" stroke-opacity="0.8"/><line x1="111.0" y1="-126.0" x2="122.8" y2="-116.7" stroke="#999" stroke-width="1.65" stroke-opacity="0.8"/><line x1="120.3" y1="-137.7" x2="132.1" y2="-128.4" stroke="#999" stroke-width="1.65" stroke-opacity="0.8"/><line x1="21.0" y1="73.7" x2="196.5" y2="-168.0" stroke="#d9534f" stroke-width="1.65" stroke-opacity="0.6"/><line x1="10.6" y1="84.8" x2="193.4" y2="-182.9" stroke="#d9534f" stroke-width="1.65" stroke-opacity="0.6"/><line x1="-2.8" y1="91.9" x2="185.5" y2="-195.8" stroke="#d9534f" stroke-width="1.65" stroke-opacity="0.6"/><line x1="-45.9" y1="84.3" x2="144.0" y2="-209.5" stroke="#d9534f" stroke-width="1.65" stroke-opacity="0.6"/><line x1="-56.0" y1="73.1" x2="130.0" y2="-203.9" stroke="#d9534f" stroke-width="1.65" stroke-opacity="0.6"/><line x1="110.9" y1="-152.9" x2="120.3" y2="-137.7" stroke="#999" stroke-width="1.65" stroke-opacity="0.8"/><line x1="120.3" y1="-137.7" x2="111.0" y2="-126.0" stroke="#999" stroke-width="1.65" stroke-opacity="0.8"/><line x1="111.0" y1="-126.0" x2="101.7" y2="-114.2" stroke="#999" stroke-width="1.65" stroke-opacity="0.8"/><line x1="101.7" y1="-114.2" x2="87.2" y2="-110.1" stroke="#999" stroke-width="1.65" stroke-opacity="0.8"/><line x1="87.2" y1="-110.1" x2="86.5" y2="-95.1" stroke="#999" stroke-width="1.65" stroke-opacity="0.8"/><line x1="86.5" y1="-95.1" x2="77.2" y2="-83.3" stroke="#999" stroke-width="1.65" stroke-opacity="0.8"/><line x1="77.2" y1="-83.3" x2="67.9" y2="-71.6" stroke="#999" stroke-width="1.65" stroke-opacity="0.8"/><line x1="67.9" y1="-71.6" x2="58.6" y2="-59.8" stroke="#999" stroke-width="1.65" stroke-opacity="0.8"/><line x1="58.6" y1="-59.8" x2="49.3" y2="-48.0" stroke="#999" stroke-width="1.65" stroke-opacity="0.8"/><line x1="49.3" y1="-48.0" x2="35.5" y2="-42.0" stroke="#999" stroke-width="1.65" stroke-opacity="0.8"/><line x1="35.5" y1="-42.0" x2="32.8" y2="-27.2" stroke="#999" stroke-width="1.65" stroke-opacity="0.8"/><line x1="32.8" y1="-27.2" x2="23.5" y2="-15.5" stroke="#999" stroke-width="1.65" stroke-opacity="0.8"/><line x1="23.5" y1="-15.5" x2="14.2" y2="-3.7" stroke="#999" stroke-width="1.65" stroke-opacity="0.8"/><line x1="14.2" y1="-3.7" x2="4.9" y2="8.0" stroke="#999" stroke-width="1.65" stroke-opacity="0.8"/><line x1="4.9" y1="8.0" x2="-9.4" y2="3.3" stroke="#999" stroke-width="1.65" stroke-opacity="0.8"/><line x1="-9.4" y1="3.3" x2="-24.4" y2="3.1" stroke="#999" stroke-width="1.65" stroke-opacity="0.8"/><line x1="-24.4" y1="3.1" x2="-38.7" y2="7.9" stroke="#999" stroke-width="1.65" stroke-opacity="0.8"/><line x1="-38.7" y1="7.9" x2="-50.7" y2="17.0" stroke="#999" stroke-width="1.65" stroke-opacity="0.8"/><line x1="-50.7" y1="17.0" x2="-59.0" y2="29.6" stroke="#999" stroke-width="1.65" stroke-opacity="0.8"/><line x1="-59.0" y1="29.6" x2="-62.9" y2="44.1" stroke="#999" stroke-width="1.65" stroke-opacity="0.8"/><line x1="-62.9" y1="44.1" x2="-61.7" y2="59.1" stroke="#999" stroke-width="1.65" stroke-opacity="0.8"/><line x1="-61.7" y1="59.1" x2="-56.0" y2="73.1" stroke="#999" stroke-width="1.65" stroke-opacity="0.8"/><line x1="-56.0" y1="73.1" x2="-45.9" y2="84.3" stroke="#999" stroke-width="1.65" stroke-opacity="0.8"/><line x1="-45.9" y1="84.3" x2="-32.5" y2="91.3" stroke="#999" stroke-width="1.65" stroke-opacity="0.8"/><line x1="-32.5" y1="91.3" x2="-17.7" y2="93.9" stroke="#999" stroke-width="1.65" stroke-opacity="0.8"/><line x1="-17.7" y1="93.9" x2="-2.8" y2="91.9" stroke="#999" stroke-width="1.65" stroke-opacity="0.8"/><line x1="-2.8" y1="91.9" x2="10.6" y2="84.8" stroke="#999" stroke-width="1.65" stroke-opacity="0.8"/><line x1="10.6" y1="84.8" x2="21.0" y2="73.7" stroke="#999" stroke-width="1.65" stroke-opacity="0.8"/><line x1="21.0" y1="73.7" x2="26.8" y2="59.8" stroke="#999" stroke-width="1.65" stroke-opacity="0.8"/><line x1="26.8" y1="59.8" x2="28.2" y2="44.8" stroke="#999" stroke-width="1.65" stroke-opacity="0.8"/><line x1="28.2" y1="44.8" x2="24.6" y2="30.2" stroke="#999" stroke-width="1.65" stroke-opacity="0.8"/><line x1="24.6" y1="30.2" x2="16.7" y2="17.4" stroke="#999" stroke-width="1.65" stroke-opacity="0.8"/><line x1="16.7" y1="17.4" x2="26.0" y2="5.6" stroke="#999" stroke-width="1.65" stroke-opacity="0.8"/><line x1="26.0" y1="5.6" x2="35.3" y2="-6.2" stroke="#999" stroke-width="1.65" stroke-opacity="0.8"/><line x1="35.3" y1="-6.2" x2="44.6" y2="-17.9" stroke="#999" stroke-width="1.65" stroke-opacity="0.8"/><line x1="44.6" y1="-17.9" x2="58.4" y2="-23.9" stroke="#999" stroke-width="1.65" stroke-opacity="0.8"/><line x1="58.4" y1="-23.9" x2="61.1" y2="-38.7" stroke="#999" stroke-width="1.65" stroke-opacity="0.8"/><line x1="61.1" y1="-38.7" x2="70.4" y2="-50.5" stroke="#999" stroke-width="1.65" stroke-opacity="0.8"/><line x1="70.4" y1="-50.5" x2="79.7" y2="-62.3" stroke="#999" stroke-width="1.65" stroke-opacity="0.8"/><line x1="79.7" y1="-62.3" x2="89.0" y2="-74.0" stroke="#999" stroke-width="1.65" stroke-opacity="0.8"/><line x1="89.0" y1="-74.0" x2="98.3" y2="-85.8" stroke="#999" stroke-width="1.65" stroke-opacity="0.8"/><line x1="98.3" y1="-85.8" x2="112.8" y2="-89.9" stroke="#999" stroke-width="1.65" stroke-opacity="0.8"/><line x1="112.8" y1="-89.9" x2="113.5" y2="-104.9" stroke="#999" stroke-width="1.65" stroke-opacity="0.8"/><line x1="113.5" y1="-104.9" x2="122.8" y2="-116.7" stroke="#999" stroke-width="1.65" stroke-opacity="0.8"/><line x1="122.8" y1="-116.7" x2="132.1" y2="-128.4" stroke="#999" stroke-width="1.65" stroke-opacity="0.8"/><line x1="132.1" y1="-128.4" x2="146.5" y2="-124.0" stroke="#999" stroke-width="1.65" stroke-opacity="0.8"/><line x1="146.5" y1="-124.0" x2="161.5" y2="-124.4" stroke="#999" stroke-width="1.65" stroke-opacity="0.8"/><line x1="161.5" y1="-124.4" x2="175.5" y2="-129.9" stroke="#999" stroke-width="1.65" stroke-opacity="0.8"/><line x1="175.5" y1="-129.9" x2="186.8" y2="-139.9" stroke="#999" stroke-width="1.65" stroke-opacity="0.8"/><line x1="186.8" y1="-139.9" x2="194.0" y2="-153.2" stroke="#999" stroke-width="1.65" stroke-opacity="0.8"/><line x1="194.0" y1="-153.2" x2="196.5" y2="-168.0" stroke="#999" stroke-width="1.65" stroke-opacity="0.8"/><line x1="196.5" y1="-168.0" x2="193.4" y2="-182.9" stroke="#999" stroke-width="1.65" stroke-opacity="0.8"/><line x1="193.4" y1="-182.9" x2="185.5" y2="-195.8" stroke="#999" stroke-width="1.65" stroke-opacity="0.8"/><line x1="185.5" y1="-195.8" x2="173.4" y2="-204.8" stroke="#999" stroke-width="1.65" stroke-opacity="0.8"/><line x1="173.4" y1="-204.8" x2="159.1" y2="-209.6" stroke="#999" stroke-width="1.65" stroke-opacity="0.8"/><line x1="159.1" y1="-209.6" x2="144.0" y2="-209.5" stroke="#999" stroke-width="1.65" stroke-opacity="0.8"/><line x1="144.0" y1="-209.5" x2="130.0" y2="-203.9" stroke="#999" stroke-width="1.65" stroke-opacity="0.8"/><line x1="130.0" y1="-203.9" x2="119.2" y2="-189.7" stroke="#999" stroke-width="1.65" stroke-opacity="0.8"/><line x1="119.2" y1="-189.7" x2="108.5" y2="-175.4" stroke="#999" stroke-width="1.65" stroke-opacity="0.8"/><text x="95.6" y="-140.7" text-anchor="middle" font-size="7.8" font-family="Tahoma,Geneva,sans-serif" fill="#999">1</text><text x="38.3" y="-59.6" text-anchor="middle" font-size="7.8" font-family="Tahoma,Geneva,sans-serif" fill="#999">10</text><text x="-75.5" y="24.9" text-anchor="middle" font-size="7.8" font-family="Tahoma,Geneva,sans-serif" fill="#999">20</text><text x="44.3" y="66.9" text-anchor="middle" font-size="7.8" font-family="Tahoma,Geneva,sans-serif" fill="#999">30</text><text x="93.8" y="-48.3" text-anchor="middle" font-size="7.8" font-family="Tahoma,Geneva,sans-serif" fill="#999">40</text><text x="200.9" y="-126.0" text-anchor="middle" font-size="7.8" font-family="Tahoma,Geneva,sans-serif" fill="#999">50</text><text x="94.0" y="-183.5" text-anchor="middle" font-size="7.8" font-family="Tahoma,Geneva,sans-serif" fill="#999">60</text><circle cx="110.9" cy="-152.9" r="4.51" fill="lightsalmon" stroke="#ccc" stroke-width="1.65"/><text x="110.9" y="-150.7" text-anchor="middle" font-size="5.6" font-family="Tahoma,Geneva,sans-serif" font-weight="bold" fill="rgb(100,100,100)">A</text><circle cx="120.3" cy="-137.7" r="4.51" fill="lightgreen" stroke="#ccc" stroke-width="1.65"/><text x="120.3" y="-135.5" text-anchor="middle" font-size="5.6" font-family="Tahoma,Geneva,sans-serif" font-weight="bold" fill="rgb(100,100,100)">U</text><circle cx="111.0" cy="-126.0" r="4.51" fill="lightgreen" stroke="#ccc" stroke-width="1.65"/><text x="111.0" y="-123.7" text-anchor="middle" font-size="5.6" font-family="Tahoma,Geneva,sans-serif" font-weight="bold" fill="rgb(100,100,100)">G</text><circle cx="101.7" cy="-114.2" r="4.51" fill="lightgreen" stroke="#ccc" stroke-width="1.65"/><text x="101.7" y="-112.0" text-anchor="middle" font-size="5.6" font-family="Tahoma,Geneva,sans-serif" font-weight="bold" fill="rgb(100,100,100)">U</text><circle cx="87.2" cy="-110.1" r="4.51" fill="#dbdb8d" stroke="#ccc" stroke-width="1.65"/><text x="87.2" y="-107.9" text-anchor="middle" font-size="5.6" font-family="Tahoma,Geneva,sans-serif" font-weight="bold" fill="rgb(100,100,100)">G</text><circle cx="86.5" cy="-95.1" r="4.51" fill="lightgreen" stroke="#ccc" stroke-width="1.65"/><text x="86.5" y="-92.8" text-anchor="middle" font-size="5.6" font-family="Tahoma,Geneva,sans-serif" font-weight="bold" fill="rgb(100,100,100)">C</text><circle cx="77.2" cy="-83.3" r="4.51" fill="lightgreen" stroke="#ccc" stroke-width="1.65"/><text x="77.2" y="-81.1" text-anchor="middle" font-size="5.6" font-family="Tahoma,Geneva,sans-serif" font-weight="bold" fill="rgb(100,100,100)">U</text><circle cx="67.9" cy="-71.6" r="4.51" fill="lightgreen" stroke="#ccc" stroke-width="1.65"/><text x="67.9" y="-69.3" text-anchor="middle" font-size="5.6" font-family="Tahoma,Geneva,sans-serif" font-weight="bold" fill="rgb(100,100,100)">C</text><circle cx="58.6" cy="-59.8" r="4.51" fill="lightgreen" stroke="#ccc" stroke-width="1.65"/><text x="58.6" y="-57.5" text-anchor="middle" font-size="5.6" font-family="Tahoma,Geneva,sans-serif" font-weight="bold" fill="rgb(100,100,100)">C</text><circle cx="49.3" cy="-48.0" r="4.51" fill="lightgreen" stroke="#ccc" stroke-width="1.65"/><text x="49.3" y="-45.8" text-anchor="middle" font-size="5.6" font-family="Tahoma,Geneva,sans-serif" font-weight="bold" fill="rgb(100,100,100)">C</text><circle cx="35.5" cy="-42.0" r="4.51" fill="#dbdb8d" stroke="#ccc" stroke-width="1.65"/><text x="35.5" y="-39.8" text-anchor="middle" font-size="5.6" font-family="Tahoma,Geneva,sans-serif" font-weight="bold" fill="rgb(100,100,100)">A</text><circle cx="32.8" cy="-27.2" r="4.51" fill="lightgreen" stroke="#ccc" stroke-width="1.65"/><text x="32.8" y="-25.0" text-anchor="middle" font-size="5.6" font-family="Tahoma,Geneva,sans-serif" font-weight="bold" fill="rgb(100,100,100)">G</text><circle cx="23.5" cy="-15.5" r="4.51" fill="lightgreen" stroke="#ccc" stroke-width="1.65"/><text x="23.5" y="-13.2" text-anchor="middle" font-size="5.6" font-family="Tahoma,Geneva,sans-serif" font-weight="bold" fill="rgb(100,100,100)">U</text><circle cx="14.2" cy="-3.7" r="4.51" fill="lightgreen" stroke="#ccc" stroke-width="1.65"/><text x="14.2" y="-1.5" text-anchor="middle" font-size="5.6" font-family="Tahoma,Geneva,sans-serif" font-weight="bold" fill="rgb(100,100,100)">A</text><circle cx="4.9" cy="8.0" r="4.51" fill="lightgreen" stroke="#ccc" stroke-width="1.65"/><text x="4.9" y="10.3" text-anchor="middle" font-size="5.6" font-family="Tahoma,Geneva,sans-serif" font-weight="bold" fill="rgb(100,100,100)">C</text><circle cx="-9.4" cy="3.3" r="4.51" fill="lightblue" stroke="#ccc" stroke-width="1.65"/><text x="-9.4" y="5.5" text-anchor="middle" font-size="5.6" font-family="Tahoma,Geneva,sans-serif" font-weight="bold" fill="rgb(100,100,100)">A</text><circle cx="-24.4" cy="3.1" r="4.51" fill="lightblue" stroke="#ccc" stroke-width="1.65"/><text x="-24.4" y="5.4" text-anchor="middle" font-size="5.6" font-family="Tahoma,Geneva,sans-serif" font-weight="bold" fill="rgb(100,100,100)">U</text><circle cx="-38.7" cy="7.9" r="4.51" fill="lightblue" stroke="#ccc" stroke-width="1.65"/><text x="-38.7" y="10.1" text-anchor="middle" font-size="5.6" font-family="Tahoma,Geneva,sans-serif" font-weight="bold" fill="rgb(100,100,100)">G</text><circle cx="-50.7" cy="17.0" r="4.51" fill="lightblue" stroke="#ccc" stroke-width="1.65"/><text x="-50.7" y="19.3" text-anchor="middle" font-size="5.6" font-family="Tahoma,Geneva,sans-serif" font-weight="bold" fill="rgb(100,100,100)">C</text><circle cx="-59.0" cy="29.6" r="4.51" fill="lightblue" stroke="#ccc" stroke-width="1.65"/><text x="-59.0" y="31.8" text-anchor="middle" font-size="5.6" font-family="Tahoma,Geneva,sans-serif" font-weight="bold" fill="rgb(100,100,100)">A</text><circle cx="-62.9" cy="44.1" r="4.51" fill="lightblue" stroke="#ccc" stroke-width="1.65"/><text x="-62.9" y="46.4" text-anchor="middle" font-size="5.6" font-family="Tahoma,Geneva,sans-serif" font-weight="bold" fill="rgb(100,100,100)">G</text><circle cx="-61.7" cy="59.1" r="4.51" fill="lightblue" stroke="#ccc" stroke-width="1.65"/><text x="-61.7" y="61.4" text-anchor="middle" font-size="5.6" font-family="Tahoma,Geneva,sans-serif" font-weight="bold" fill="rgb(100,100,100)">A</text><circle cx="-56.0" cy="73.1" r="4.51" fill="lightgreen" stroke="#ccc" stroke-width="1.65"/><text x="-56.0" y="75.4" text-anchor="middle" font-size="5.6" font-family="Tahoma,Geneva,sans-serif" font-weight="bold" fill="rgb(100,100,100)">G</text><circle cx="-45.9" cy="84.3" r="4.51" fill="lightgreen" stroke="#ccc" stroke-width="1.65"/><text x="-45.9" y="86.6" text-anchor="middle" font-size="5.6" font-family="Tahoma,Geneva,sans-serif" font-weight="bold" fill="rgb(100,100,100)">A</text><circle cx="-32.5" cy="91.3" r="4.51" fill="lightblue" stroke="#ccc" stroke-width="1.65"/><text x="-32.5" y="93.6" text-anchor="middle" font-size="5.6" font-family="Tahoma,Geneva,sans-serif" font-weight="bold" fill="rgb(100,100,100)">G</text><circle cx="-17.7" cy="93.9" r="4.51" fill="lightblue" stroke="#ccc" stroke-width="1.65"/><text x="-17.7" y="96.2" text-anchor="middle" font-size="5.6" font-family="Tahoma,Geneva,sans-serif" font-weight="bold" fill="rgb(100,100,100)">A</text><circle cx="-2.8" cy="91.9" r="4.51" fill="lightgreen" stroke="#ccc" stroke-width="1.65"/><text x="-2.8" y="94.1" text-anchor="middle" font-size="5.6" font-family="Tahoma,Geneva,sans-serif" font-weight="bold" fill="rgb(100,100,100)">U</text><circle cx="10.6" cy="84.8" r="4.51" fill="lightgreen" stroke="#ccc" stroke-width="1.65"/><text x="10.6" y="87.0" text-anchor="middle" font-size="5.6" font-family="Tahoma,Geneva,sans-serif" font-weight="bold" fill="rgb(100,100,100)">C</text><circle cx="21.0" cy="73.7" r="4.51" fill="lightgreen" stroke="#ccc" stroke-width="1.65"/><text x="21.0" y="76.0" text-anchor="middle" font-size="5.6" font-family="Tahoma,Geneva,sans-serif" font-weight="bold" fill="rgb(100,100,100)">A</text><circle cx="26.8" cy="59.8" r="4.51" fill="lightblue" stroke="#ccc" stroke-width="1.65"/><text x="26.8" y="62.1" text-anchor="middle" font-size="5.6" font-family="Tahoma,Geneva,sans-serif" font-weight="bold" fill="rgb(100,100,100)">G</text><circle cx="28.2" cy="44.8" r="4.51" fill="lightblue" stroke="#ccc" stroke-width="1.65"/><text x="28.2" y="47.1" text-anchor="middle" font-size="5.6" font-family="Tahoma,Geneva,sans-serif" font-weight="bold" fill="rgb(100,100,100)">G</text><circle cx="24.6" cy="30.2" r="4.51" fill="lightblue" stroke="#ccc" stroke-width="1.65"/><text x="24.6" y="32.4" text-anchor="middle" font-size="5.6" font-family="Tahoma,Geneva,sans-serif" font-weight="bold" fill="rgb(100,100,100)">A</text><circle cx="16.7" cy="17.4" r="4.51" fill="lightgreen" stroke="#ccc" stroke-width="1.65"/><text x="16.7" y="19.6" text-anchor="middle" font-size="5.6" font-family="Tahoma,Geneva,sans-serif" font-weight="bold" fill="rgb(100,100,100)">G</text><circle cx="26.0" cy="5.6" r="4.51" fill="lightgreen" stroke="#ccc" stroke-width="1.65"/><text x="26.0" y="7.9" text-anchor="middle" font-size="5.6" font-family="Tahoma,Geneva,sans-serif" font-weight="bold" fill="rgb(100,100,100)">U</text><circle cx="35.3" cy="-6.2" r="4.51" fill="lightgreen" stroke="#ccc" stroke-width="1.65"/><text x="35.3" y="-3.9" text-anchor="middle" font-size="5.6" font-family="Tahoma,Geneva,sans-serif" font-weight="bold" fill="rgb(100,100,100)">G</text><circle cx="44.6" cy="-17.9" r="4.51" fill="lightgreen" stroke="#ccc" stroke-width="1.65"/><text x="44.6" y="-15.7" text-anchor="middle" font-size="5.6" font-family="Tahoma,Geneva,sans-serif" font-weight="bold" fill="rgb(100,100,100)">C</text><circle cx="58.4" cy="-23.9" r="4.51" fill="#dbdb8d" stroke="#ccc" stroke-width="1.65"/><text x="58.4" y="-21.7" text-anchor="middle" font-size="5.6" font-family="Tahoma,Geneva,sans-serif" font-weight="bold" fill="rgb(100,100,100)">G</text><circle cx="61.1" cy="-38.7" r="4.51" fill="lightgreen" stroke="#ccc" stroke-width="1.65"/><text x="61.1" y="-36.5" text-anchor="middle" font-size="5.6" font-family="Tahoma,Geneva,sans-serif" font-weight="bold" fill="rgb(100,100,100)">G</text><circle cx="70.4" cy="-50.5" r="4.51" fill="lightgreen" stroke="#ccc" stroke-width="1.65"/><text x="70.4" y="-48.2" text-anchor="middle" font-size="5.6" font-family="Tahoma,Geneva,sans-serif" font-weight="bold" fill="rgb(100,100,100)">G</text><circle cx="79.7" cy="-62.3" r="4.51" fill="lightgreen" stroke="#ccc" stroke-width="1.65"/><text x="79.7" y="-60.0" text-anchor="middle" font-size="5.6" font-family="Tahoma,Geneva,sans-serif" font-weight="bold" fill="rgb(100,100,100)">G</text><circle cx="89.0" cy="-74.0" r="4.51" fill="lightgreen" stroke="#ccc" stroke-width="1.65"/><text x="89.0" y="-71.8" text-anchor="middle" font-size="5.6" font-family="Tahoma,Geneva,sans-serif" font-weight="bold" fill="rgb(100,100,100)">A</text><circle cx="98.3" cy="-85.8" r="4.51" fill="lightgreen" stroke="#ccc" stroke-width="1.65"/><text x="98.3" y="-83.5" text-anchor="middle" font-size="5.6" font-family="Tahoma,Geneva,sans-serif" font-weight="bold" fill="rgb(100,100,100)">G</text><circle cx="112.8" cy="-89.9" r="4.51" fill="#dbdb8d" stroke="#ccc" stroke-width="1.65"/><text x="112.8" y="-87.6" text-anchor="middle" font-size="5.6" font-family="Tahoma,Geneva,sans-serif" font-weight="bold" fill="rgb(100,100,100)">G</text><circle cx="113.5" cy="-104.9" r="4.51" fill="lightgreen" stroke="#ccc" stroke-width="1.65"/><text x="113.5" y="-102.7" text-anchor="middle" font-size="5.6" font-family="Tahoma,Geneva,sans-serif" font-weight="bold" fill="rgb(100,100,100)">A</text><circle cx="122.8" cy="-116.7" r="4.51" fill="lightgreen" stroke="#ccc" stroke-width="1.65"/><text x="122.8" y="-114.4" text-anchor="middle" font-size="5.6" font-family="Tahoma,Geneva,sans-serif" font-weight="bold" fill="rgb(100,100,100)">C</text><circle cx="132.1" cy="-128.4" r="4.51" fill="lightgreen" stroke="#ccc" stroke-width="1.65"/><text x="132.1" y="-126.2" text-anchor="middle" font-size="5.6" font-family="Tahoma,Geneva,sans-serif" font-weight="bold" fill="rgb(100,100,100)">A</text><circle cx="146.5" cy="-124.0" r="4.51" fill="lightsalmon" stroke="#ccc" stroke-width="1.65"/><text x="146.5" y="-121.7" text-anchor="middle" font-size="5.6" font-family="Tahoma,Geneva,sans-serif" font-weight="bold" fill="rgb(100,100,100)">A</text><circle cx="161.5" cy="-124.4" r="4.51" fill="lightsalmon" stroke="#ccc" stroke-width="1.65"/><text x="161.5" y="-122.1" text-anchor="middle" font-size="5.6" font-family="Tahoma,Geneva,sans-serif" font-weight="bold" fill="rgb(100,100,100)">U</text><circle cx="175.5" cy="-129.9" r="4.51" fill="lightsalmon" stroke="#ccc" stroke-width="1.65"/><text x="175.5" y="-127.6" text-anchor="middle" font-size="5.6" font-family="Tahoma,Geneva,sans-serif" font-weight="bold" fill="rgb(100,100,100)">A</text><circle cx="186.8" cy="-139.9" r="4.51" fill="lightsalmon" stroke="#ccc" stroke-width="1.65"/><text x="186.8" y="-137.6" text-anchor="middle" font-size="5.6" font-family="Tahoma,Geneva,sans-serif" font-weight="bold" fill="rgb(100,100,100)">A</text><circle cx="194.0" cy="-153.2" r="4.51" fill="lightsalmon" stroke="#ccc" stroke-width="1.65"/><text x="194.0" y="-150.9" text-anchor="middle" font-size="5.6" font-family="Tahoma,Geneva,sans-serif" font-weight="bold" fill="rgb(100,100,100)">A</text><circle cx="196.5" cy="-168.0" r="4.51" fill="lightgreen" stroke="#ccc" stroke-width="1.65"/><text x="196.5" y="-165.8" text-anchor="middle" font-size="5.6" font-family="Tahoma,Geneva,sans-serif" font-weight="bold" fill="rgb(100,100,100)">U</text><circle cx="193.4" cy="-182.9" r="4.51" fill="lightgreen" stroke="#ccc" stroke-width="1.65"/><text x="193.4" y="-180.6" text-anchor="middle" font-size="5.6" font-family="Tahoma,Geneva,sans-serif" font-weight="bold" fill="rgb(100,100,100)">G</text><circle cx="185.5" cy="-195.8" r="4.51" fill="lightgreen" stroke="#ccc" stroke-width="1.65"/><text x="185.5" y="-193.5" text-anchor="middle" font-size="5.6" font-family="Tahoma,Geneva,sans-serif" font-weight="bold" fill="rgb(100,100,100)">G</text><circle cx="173.4" cy="-204.8" r="4.51" fill="lightsalmon" stroke="#ccc" stroke-width="1.65"/><text x="173.4" y="-202.6" text-anchor="middle" font-size="5.6" font-family="Tahoma,Geneva,sans-serif" font-weight="bold" fill="rgb(100,100,100)">G</text><circle cx="159.1" cy="-209.6" r="4.51" fill="lightsalmon" stroke="#ccc" stroke-width="1.65"/><text x="159.1" y="-207.3" text-anchor="middle" font-size="5.6" font-family="Tahoma,Geneva,sans-serif" font-weight="bold" fill="rgb(100,100,100)">A</text><circle cx="144.0" cy="-209.5" r="4.51" fill="lightgreen" stroke="#ccc" stroke-width="1.65"/><text x="144.0" y="-207.3" text-anchor="middle" font-size="5.6" font-family="Tahoma,Geneva,sans-serif" font-weight="bold" fill="rgb(100,100,100)">U</text><circle cx="130.0" cy="-203.9" r="4.51" fill="lightgreen" stroke="#ccc" stroke-width="1.65"/><text x="130.0" y="-201.7" text-anchor="middle" font-size="5.6" font-family="Tahoma,Geneva,sans-serif" font-weight="bold" fill="rgb(100,100,100)">C</text><circle cx="119.2" cy="-189.7" r="4.51" fill="lightsalmon" stroke="#ccc" stroke-width="1.65"/><text x="119.2" y="-187.4" text-anchor="middle" font-size="5.6" font-family="Tahoma,Geneva,sans-serif" font-weight="bold" fill="rgb(100,100,100)">A</text><circle cx="108.5" cy="-175.4" r="4.51" fill="lightsalmon" stroke="#ccc" stroke-width="1.65"/><text x="108.5" y="-173.2" text-anchor="middle" font-size="5.6" font-family="Tahoma,Geneva,sans-serif" font-weight="bold" fill="rgb(100,100,100)">A</text></svg>