<svg xmlns="http://www.w3.org/2000/svg" viewBox="-26.2 -338.3 266.3 436.4" width="266" height="436"><style></style><line x1="31.3" y1="20.6" x2="44.7" y2="27.3" stroke="#999" stroke-width="1.64" stroke-opacity="0.8"/><line x1="38.0" y1="7.1" x2="51.4" y2="13.9" stroke="#999" stroke-width="1.64" stroke-opacity="0.8"/><line x1="44.7" y1="-6.3" x2="58.1" y2="0.4" stroke="#999" stroke-width="1.64" stroke-opacity="0.8"/><line x1="56.6" y1="-30.0" x2="70.0" y2="-23.3" stroke="#999" stroke-width="1.64" stroke-opacity="0.8"/><line x1="63.3" y1="-43.4" x2="76.7" y2="-36.7" stroke="#999" stroke-width="1.64" stroke-opacity="0.8"/><line x1="70.0" y1="-56.8" x2="83.4" y2="-50.1" stroke="#999" stroke-width="1.64" stroke-opacity="0.8"/><line x1="76.7" y1="-70.2" x2="90.1" y2="-63.5" stroke="#999" stroke-width="1.64" stroke-opacity="0.8"/><line x1="83.4" y1="-83.7" x2="96.8" y2="-77.0" stroke="#999" stroke-width="1.64" stroke-opacity="0.8"/><line x1="90.1" y1="-97.1" x2="103.5" y2="-90.4" stroke="#999" stroke-width="1.64" stroke-opacity="0.8"/><line x1="96.5" y1="-110.7" x2="110.2" y2="-104.7" stroke="#999" stroke-width="1.64" stroke-opacity="0.8"/><line x1="102.5" y1="-124.4" x2="116.2" y2="-118.4" stroke="#999" stroke-width="1.64" stroke-opacity="0.8"/><line x1="108.5" y1="-138.2" x2="122.2" y2="-132.2" stroke="#999" stroke-width="1.64" stroke-opacity="0.8"/><line x1="114.5" y1="-151.9" x2="128.2" y2="-145.9" stroke="#999" stroke-width="1.64" stroke-opacity="0.8"/><line x1="120.5" y1="-165.6" x2="134.2" y2="-159.6" stroke="#999" stroke-width="1.64" stroke-opacity="0.8"/><line x1="126.5" y1="-179.4" x2="140.3" y2="-173.4" stroke="#999" stroke-width="1.64" stroke-opacity="0.8"/><line x1="132.5" y1="-193.1" x2="146.3" y2="-187.1" stroke="#999" stroke-width="1.64" stroke-opacity="0.8"/><line x1="138.5" y1="-206.9" x2="152.3" y2="-200.9" stroke="#999" stroke-width="1.64" stroke-opacity="0.8"/><line x1="144.5" y1="-220.6" x2="158.3" y2="-214.6" stroke="#999" stroke-width="1.64" stroke-opacity="0.8"/><line x1="150.5" y1="-234.4" x2="164.3" y2="-228.4" stroke="#999" stroke-width="1.64" stroke-opacity="0.8"/><line x1="156.5" y1="-248.1" x2="170.3" y2="-242.1" stroke="#999" stroke-width="1.64" stroke-opacity="0.8"/><line x1="51.1" y1="41.5" x2="207.2" y2="-279.6" stroke="#d9534f" stroke-width="1.64" stroke-opacity="0.6"/><line x1="46.8" y1="56.6" x2="200.8" y2="-293.5" stroke="#d9534f" stroke-width="1.64" stroke-opacity="0.6"/><line x1="33.8" y1="65.3" x2="188.6" y2="-302.8" stroke="#d9534f" stroke-width="1.64" stroke-opacity="0.6"/><line x1="18.2" y1="63.5" x2="173.5" y2="-305.4" stroke="#d9534f" stroke-width="1.64" stroke-opacity="0.6"/><line x1="7.5" y1="52.1" x2="159.0" y2="-300.7" stroke="#d9534f" stroke-width="1.64" stroke-opacity="0.6"/><line x1="6.6" y1="36.5" x2="148.3" y2="-289.7" stroke="#d9534f" stroke-width="1.64" stroke-opacity="0.6"/><line x1="145.4" y1="-261.9" x2="156.5" y2="-248.1" stroke="#999" stroke-width="1.64" stroke-opacity="0.8"/><line x1="156.5" y1="-248.1" x2="150.5" y2="-234.4" stroke="#999" stroke-width="1.64" stroke-opacity="0.8"/><line x1="150.5" y1="-234.4" x2="144.5" y2="-220.6" stroke="#999" stroke-width="1.64" stroke-opacity="0.8"/><line x1="144.5" y1="-220.6" x2="138.5" y2="-206.9" stroke="#999" stroke-width="1.64" stroke-opacity="0.8"/><line x1="138.5" y1="-206.9" x2="132.5" y2="-193.1" stroke="#999" stroke-width="1.64" stroke-opacity="0.8"/><line x1="132.5" y1="-193.1" x2="126.5" y2="-179.4" stroke="#999" stroke-width="1.64" stroke-opacity="0.8"/><line x1="126.5" y1="-179.4" x2="120.5" y2="-165.6" stroke="#999" stroke-width="1.64" stroke-opacity="0.8"/><line x1="120.5" y1="-165.6" x2="114.5" y2="-151.9" stroke="#999" stroke-width="1.64" stroke-opacity="0.8"/><line x1="114.5" y1="-151.9" x2="108.5" y2="-138.2" stroke="#999" stroke-width="1.64" stroke-opacity="0.8"/><line x1="108.5" y1="-138.2" x2="102.5" y2="-124.4" stroke="#999" stroke-width="1.64" stroke-opacity="0.8"/><line x1="102.5" y1="-124.4" x2="96.5" y2="-110.7" stroke="#999" stroke-width="1.64" stroke-opacity="0.8"/><line x1="96.5" y1="-110.7" x2="90.1" y2="-97.1" stroke="#999" stroke-width="1.64" stroke-opacity="0.8"/><line x1="90.1" y1="-97.1" x2="83.4" y2="-83.7" stroke="#999" stroke-width="1.64" stroke-opacity="0.8"/><line x1="83.4" y1="-83.7" x2="76.7" y2="-70.2" stroke="#999" stroke-width="1.64" stroke-opacity="0.8"/><line x1="76.7" y1="-70.2" x2="70.0" y2="-56.8" stroke="#999" stroke-width="1.64" stroke-opacity="0.8"/><line x1="70.0" y1="-56.8" x2="63.3" y2="-43.4" stroke="#999" stroke-width="1.64" stroke-opacity="0.8"/><line x1="63.3" y1="-43.4" x2="56.6" y2="-30.0" stroke="#999" stroke-width="1.64" stroke-opacity="0.8"/><line x1="56.6" y1="-30.0" x2="44.5" y2="-21.2" stroke="#999" stroke-width="1.64" stroke-opacity="0.8"/><line x1="44.5" y1="-21.2" x2="44.7" y2="-6.3" stroke="#999" stroke-width="1.64" stroke-opacity="0.8"/><line x1="44.7" y1="-6.3" x2="38.0" y2="7.1" stroke="#999" stroke-width="1.64" stroke-opacity="0.8"/><line x1="38.0" y1="7.1" x2="31.3" y2="20.6" stroke="#999" stroke-width="1.64" stroke-opacity="0.8"/><line x1="31.3" y1="20.6" x2="17.2" y2="25.9" stroke="#999" stroke-width="1.64" stroke-opacity="0.8"/><line x1="17.2" y1="25.9" x2="6.6" y2="36.5" stroke="#999" stroke-width="1.64" stroke-opacity="0.8"/><line x1="6.6" y1="36.5" x2="7.5" y2="52.1" stroke="#999" stroke-width="1.64" stroke-opacity="0.8"/><line x1="7.5" y1="52.1" x2="18.2" y2="63.5" stroke="#999" stroke-width="1.64" stroke-opacity="0.8"/><line x1="18.2" y1="63.5" x2="33.8" y2="65.3" stroke="#999" stroke-width="1.64" stroke-opacity="0.8"/><line x1="33.8" y1="65.3" x2="46.8" y2="56.6" stroke="#999" stroke-width="1.64" stroke-opacity="0.8"/><line x1="46.8" y1="56.6" x2="51.1" y2="41.5" stroke="#999" stroke-width="1.64" stroke-opacity="0.8"/><line x1="51.1" y1="41.5" x2="44.7" y2="27.3" stroke="#999" stroke-width="1.64" stroke-opacity="0.8"/><line x1="44.7" y1="27.3" x2="51.4" y2="13.9" stroke="#999" stroke-width="1.64" stroke-opacity="0.8"/><line x1="51.4" y1="13.9" x2="58.1" y2="0.4" stroke="#999" stroke-width="1.64" stroke-opacity="0.8"/><line x1="58.1" y1="0.4" x2="70.2" y2="-8.3" stroke="#999" stroke-width="1.64" stroke-opacity="0.8"/><line x1="70.2" y1="-8.3" x2="70.0" y2="-23.3" stroke="#999" stroke-width="1.64" stroke-opacity="0.8"/><line x1="70.0" y1="-23.3" x2="76.7" y2="-36.7" stroke="#999" stroke-width="1.64" stroke-opacity="0.8"/><line x1="76.7" y1="-36.7" x2="83.4" y2="-50.1" stroke="#999" stroke-width="1.64" stroke-opacity="0.8"/><line x1="83.4" y1="-50.1" x2="90.1" y2="-63.5" stroke="#999" stroke-width="1.64" stroke-opacity="0.8"/><line x1="90.1" y1="-63.5" x2="96.8" y2="-77.0" stroke="#999" stroke-width="1.64" stroke-opacity="0.8"/><line x1="96.8" y1="-77.0" x2="103.5" y2="-90.4" stroke="#999" stroke-width="1.64" stroke-opacity="0.8"/><line x1="103.5" y1="-90.4" x2="118.4" y2="-92.1" stroke="#999" stroke-width="1.64" stroke-opacity="0.8"/><line x1="118.4" y1="-92.1" x2="110.2" y2="-104.7" stroke="#999" stroke-width="1.64" stroke-opacity="0.8"/><line x1="110.2" y1="-104.7" x2="116.2" y2="-118.4" stroke="#999" stroke-width="1.64" stroke-opacity="0.8"/><line x1="116.2" y1="-118.4" x2="122.2" y2="-132.2" stroke="#999" stroke-width="1.64" stroke-opacity="0.8"/><line x1="122.2" y1="-132.2" x2="128.2" y2="-145.9" stroke="#999" stroke-width="1.64" stroke-opacity="0.8"/><line x1="128.2" y1="-145.9" x2="134.2" y2="-159.6" stroke="#999" stroke-width="1.64" stroke-opacity="0.8"/><line x1="134.2" y1="-159.6" x2="140.3" y2="-173.4" stroke="#999" stroke-width="1.64" stroke-opacity="0.8"/><line x1="140.3" y1="-173.4" x2="146.3" y2="-187.1" stroke="#999" stroke-width="1.64" stroke-opacity="0.8"/><line x1="146.3" y1="-187.1" x2="152.3" y2="-200.9" stroke="#999" stroke-width="1.64" stroke-opacity="0.8"/><line x1="152.3" y1="-200.9" x2="158.3" y2="-214.6" stroke="#999" stroke-width="1.64" stroke-opacity="0.8"/><line x1="158.3" y1="-214.6" x2="164.3" y2="-228.4" stroke="#999" stroke-width="1.64" stroke-opacity="0.8"/><line x1="164.3" y1="-228.4" x2="170.3" y2="-242.1" stroke="#999" stroke-width="1.64" stroke-opacity="0.8"/><line x1="170.3" y1="-242.1" x2="185.1" y2="-244.0" stroke="#999" stroke-width="1.64" stroke-opacity="0.8"/><line x1="185.1" y1="-244.0" x2="197.9" y2="-251.8" stroke="#999" stroke-width="1.64" stroke-opacity="0.8"/><line x1="197.9" y1="-251.8" x2="205.5" y2="-264.7" stroke="#999" stroke-width="1.64" stroke-opacity="0.8"/><line x1="205.5" y1="-264.7" x2="207.2" y2="-279.6" stroke="#999" stroke-width="1.64" stroke-opacity="0.8"/><line x1="207.2" y1="-279.6" x2="200.8" y2="-293.5" stroke="#999" stroke-width="1.64" stroke-opacity="0.8"/><line x1="200.8" y1="-293.5" x2="188.6" y2="-302.8" stroke="#999" stroke-width="1.64" stroke-opacity="0.8"/><line x1="188.6" y1="-302.8" x2="173.5" y2="-305.4" stroke="#999" stroke-width="1.64" stroke-opacity="0.8"/><line x1="173.5" y1="-305.4" x2="159.0" y2="-300.7" stroke="#999" stroke-width="1.64" stroke-opacity="0.8"/><line x1="159.0" y1="-300.7" x2="148.3" y2="-289.7" stroke="#999" stroke-width="1.64" stroke-opacity="0.8"/><text x="131.4" y="-247.9" text-anchor="middle" font-size="7.8" font-family="Tahoma,Geneva,sans-serif" fill="#999">1</text><text x="92.1" y="-142.6" text-anchor="middle" font-size="7.8" font-family="Tahoma,Geneva,sans-serif" fill="#999">10</text><text x="27.2" y="-7.5" text-anchor="middle" font-size="7.8" font-family="Tahoma,Geneva,sans-serif" fill="#999">20</text><text x="62.7" y="30.2" text-anchor="middle" font-size="7.8" font-family="Tahoma,Geneva,sans-serif" fill="#999">30</text><text x="134.6" y="-81.8" text-anchor="middle" font-size="7.8" font-family="Tahoma,Geneva,sans-serif" fill="#999">40</text><text x="180.7" y="-218.5" text-anchor="middle" font-size="7.8" font-family="Tahoma,Geneva,sans-serif" fill="#999">50</text><text x="135.5" y="-299.5" text-anchor="middle" font-size="7.8" font-family="Tahoma,Geneva,sans-serif" fill="#999">60</text><circle cx="145.4" cy="-261.9" r="4.48" fill="lightsalmon" stroke="#ccc" stroke-width="1.64"/><text x="145.4" y="-259.7" text-anchor="middle" font-size="5.6" font-family="Tahoma,Geneva,sans-serif" font-weight="bold" fill="rgb(100,100,100)">A</text><circle cx="156.5" cy="-248.1" r="4.48" fill="lightgreen" stroke="#ccc" stroke-width="1.64"/><text x="156.5" y="-245.9" text-anchor="middle" font-size="5.6" font-family="Tahoma,Geneva,sans-serif" font-weight="bold" fill="rgb(100,100,100)">U</text><circle cx="150.5" cy="-234.4" r="4.48" fill="lightgreen" stroke="#ccc" stroke-width="1.64"/><text x="150.5" y="-232.1" text-anchor="middle" font-size="5.6" font-family="Tahoma,Geneva,sans-serif" font-weight="bold" fill="rgb(100,100,100)">G</text><circle cx="144.5" cy="-220.6" r="4.48" fill="lightgreen" stroke="#ccc" stroke-width="1.64"/><text x="144.5" y="-218.4" text-anchor="middle" font-size="5.6" font-family="Tahoma,Geneva,sans-serif" font-weight="bold" fill="rgb(100,100,100)">G</text><circle cx="138.5" cy="-206.9" r="4.48" fill="lightgreen" stroke="#ccc" stroke-width="1.64"/><text x="138.5" y="-204.6" text-anchor="middle" font-size="5.6" font-family="Tahoma,Geneva,sans-serif" font-weight="bold" fill="rgb(100,100,100)">U</text><circle cx="132.5" cy="-193.1" r="4.48" fill="lightgreen" stroke="#ccc" stroke-width="1.64"/><text x="132.5" y="-190.9" text-anchor="middle" font-size="5.6" font-family="Tahoma,Geneva,sans-serif" font-weight="bold" fill="rgb(100,100,100)">C</text><circle cx="126.5" cy="-179.4" r="4.48" fill="lightgreen" stroke="#ccc" stroke-width="1.64"/><text x="126.5" y="-177.1" text-anchor="middle" font-size="5.6" font-family="Tahoma,Geneva,sans-serif" font-weight="bold" fill="rgb(100,100,100)">U</text><circle cx="120.5" cy="-165.6" r="4.48" fill="lightgreen" stroke="#ccc" stroke-width="1.64"/><text x="120.5" y="-163.4" text-anchor="middle" font-size="5.6" font-family="Tahoma,Geneva,sans-serif" font-weight="bold" fill="rgb(100,100,100)">G</text><circle cx="114.5" cy="-151.9" r="4.48" fill="lightgreen" stroke="#ccc" stroke-width="1.64"/><text x="114.5" y="-149.7" text-anchor="middle" font-size="5.6" font-family="Tahoma,Geneva,sans-serif" font-weight="bold" fill="rgb(100,100,100)">C</text><circle cx="108.5" cy="-138.2" r="4.48" fill="lightgreen" stroke="#ccc" stroke-width="1.64"/><text x="108.5" y="-135.9" text-anchor="middle" font-size="5.6" font-family="Tahoma,Geneva,sans-serif" font-weight="bold" fill="rgb(100,100,100)">C</text><circle cx="102.5" cy="-124.4" r="4.48" fill="lightgreen" stroke="#ccc" stroke-width="1.64"/><text x="102.5" y="-122.2" text-anchor="middle" font-size="5.6" font-family="Tahoma,Geneva,sans-serif" font-weight="bold" fill="rgb(100,100,100)">C</text><circle cx="96.5" cy="-110.7" r="4.48" fill="lightgreen" stroke="#ccc" stroke-width="1.64"/><text x="96.5" y="-108.4" text-anchor="middle" font-size="5.6" font-family="Tahoma,Geneva,sans-serif" font-weight="bold" fill="rgb(100,100,100)">G</text><circle cx="90.1" cy="-97.1" r="4.48" fill="lightgreen" stroke="#ccc" stroke-width="1.64"/><text x="90.1" y="-94.8" text-anchor="middle" font-size="5.6" font-family="Tahoma,Geneva,sans-serif" font-weight="bold" fill="rgb(100,100,100)">C</text><circle cx="83.4" cy="-83.7" r="4.48" fill="lightgreen" stroke="#ccc" stroke-width="1.64"/><text x="83.4" y="-81.4" text-anchor="middle" font-size="5.6" font-family="Tahoma,Geneva,sans-serif" font-weight="bold" fill="rgb(100,100,100)">G</text><circle cx="76.7" cy="-70.2" r="4.48" fill="lightgreen" stroke="#ccc" stroke-width="1.64"/><text x="76.7" y="-68.0" text-anchor="middle" font-size="5.6" font-family="Tahoma,Geneva,sans-serif" font-weight="bold" fill="rgb(100,100,100)">G</text><circle cx="70.0" cy="-56.8" r="4.48" fill="lightgreen" stroke="#ccc" stroke-width="1.64"/><text x="70.0" y="-54.6" text-anchor="middle" font-size="5.6" font-family="Tahoma,Geneva,sans-serif" font-weight="bold" fill="rgb(100,100,100)">C</text><circle cx="63.3" cy="-43.4" r="4.48" fill="lightgreen" stroke="#ccc" stroke-width="1.64"/><text x="63.3" y="-41.2" text-anchor="middle" font-size="5.6" font-family="Tahoma,Geneva,sans-serif" font-weight="bold" fill="rgb(100,100,100)">G</text><circle cx="56.6" cy="-30.0" r="4.48" fill="lightgreen" stroke="#ccc" stroke-width="1.64"/><text x="56.6" y="-27.8" text-anchor="middle" font-size="5.6" font-family="Tahoma,Geneva,sans-serif" font-weight="bold" fill="rgb(100,100,100)">C</text><circle cx="44.5" cy="-21.2" r="4.48" fill="#dbdb8d" stroke="#ccc" stroke-width="1.64"/><text x="44.5" y="-19.0" text-anchor="middle" font-size="5.6" font-family="Tahoma,Geneva,sans-serif" font-weight="bold" fill="rgb(100,100,100)">G</text><circle cx="44.7" cy="-6.3" r="4.48" fill="lightgreen" stroke="#ccc" stroke-width="1.64"/><text x="44.7" y="-4.0" text-anchor="middle" font-size="5.6" font-family="Tahoma,Geneva,sans-serif" font-weight="bold" fill="rgb(100,100,100)">A</text><circle cx="38.0" cy="7.1" r="4.48" fill="lightgreen" stroke="#ccc" stroke-width="1.64"/><text x="38.0" y="9.4" text-anchor="middle" font-size="5.6" font-family="Tahoma,Geneva,sans-serif" font-weight="bold" fill="rgb(100,100,100)">U</text><circle cx="31.3" cy="20.6" r="4.48" fill="lightgreen" stroke="#ccc" stroke-width="1.64"/><text x="31.3" y="22.8" text-anchor="middle" font-size="5.6" font-family="Tahoma,Geneva,sans-serif" font-weight="bold" fill="rgb(100,100,100)">A</text><circle cx="17.2" cy="25.9" r="4.48" fill="lightblue" stroke="#ccc" stroke-width="1.64"/><text x="17.2" y="28.1" text-anchor="middle" font-size="5.6" font-family="Tahoma,Geneva,sans-serif" font-weight="bold" fill="rgb(100,100,100)">A</text><circle cx="6.6" cy="36.5" r="4.48" fill="lightgreen" stroke="#ccc" stroke-width="1.64"/><text x="6.6" y="38.8" text-anchor="middle" font-size="5.6" font-family="Tahoma,Geneva,sans-serif" font-weight="bold" fill="rgb(100,100,100)">G</text><circle cx="7.5" cy="52.1" r="4.48" fill="lightgreen" stroke="#ccc" stroke-width="1.64"/><text x="7.5" y="54.4" text-anchor="middle" font-size="5.6" font-family="Tahoma,Geneva,sans-serif" font-weight="bold" fill="rgb(100,100,100)">C</text><circle cx="18.2" cy="63.5" r="4.48" fill="lightgreen" stroke="#ccc" stroke-width="1.64"/><text x="18.2" y="65.7" text-anchor="middle" font-size="5.6" font-family="Tahoma,Geneva,sans-serif" font-weight="bold" fill="rgb(100,100,100)">A</text><circle cx="33.8" cy="65.3" r="4.48" fill="lightgreen" stroke="#ccc" stroke-width="1.64"/><text x="33.8" y="67.5" text-anchor="middle" font-size="5.6" font-family="Tahoma,Geneva,sans-serif" font-weight="bold" fill="rgb(100,100,100)">A</text><circle cx="46.8" cy="56.6" r="4.48" fill="lightgreen" stroke="#ccc" stroke-width="1.64"/><text x="46.8" y="58.8" text-anchor="middle" font-size="5.6" font-family="Tahoma,Geneva,sans-serif" font-weight="bold" fill="rgb(100,100,100)">A</text><circle cx="51.1" cy="41.5" r="4.48" fill="lightgreen" stroke="#ccc" stroke-width="1.64"/><text x="51.1" y="43.8" text-anchor="middle" font-size="5.6" font-family="Tahoma,Geneva,sans-serif" font-weight="bold" fill="rgb(100,100,100)">U</text><circle cx="44.7" cy="27.3" r="4.48" fill="lightgreen" stroke="#ccc" stroke-width="1.64"/><text x="44.7" y="29.5" text-anchor="middle" font-size="5.6" font-family="Tahoma,Geneva,sans-serif" font-weight="bold" fill="rgb(100,100,100)">U</text><circle cx="51.4" cy="13.9" r="4.48" fill="lightgreen" stroke="#ccc" stroke-width="1.64"/><text x="51.4" y="16.1" text-anchor="middle" font-size="5.6" font-family="Tahoma,Geneva,sans-serif" font-weight="bold" fill="rgb(100,100,100)">A</text><circle cx="58.1" cy="0.4" r="4.48" fill="lightgreen" stroke="#ccc" stroke-width="1.64"/><text x="58.1" y="2.7" text-anchor="middle" font-size="5.6" font-family="Tahoma,Geneva,sans-serif" font-weight="bold" fill="rgb(100,100,100)">U</text><circle cx="70.2" cy="-8.3" r="4.48" fill="#dbdb8d" stroke="#ccc" stroke-width="1.64"/><text x="70.2" y="-6.1" text-anchor="middle" font-size="5.6" font-family="Tahoma,Geneva,sans-serif" font-weight="bold" fill="rgb(100,100,100)">G</text><circle cx="70.0" cy="-23.3" r="4.48" fill="lightgreen" stroke="#ccc" stroke-width="1.64"/><text x="70.0" y="-21.0" text-anchor="middle" font-size="5.6" font-family="Tahoma,Geneva,sans-serif" font-weight="bold" fill="rgb(100,100,100)">G</text><circle cx="76.7" cy="-36.7" r="4.48" fill="lightgreen" stroke="#ccc" stroke-width="1.64"/><text x="76.7" y="-34.5" text-anchor="middle" font-size="5.6" font-family="Tahoma,Geneva,sans-serif" font-weight="bold" fill="rgb(100,100,100)">C</text><circle cx="83.4" cy="-50.1" r="4.48" fill="lightgreen" stroke="#ccc" stroke-width="1.64"/><text x="83.4" y="-47.9" text-anchor="middle" font-size="5.6" font-family="Tahoma,Geneva,sans-serif" font-weight="bold" fill="rgb(100,100,100)">G</text><circle cx="90.1" cy="-63.5" r="4.48" fill="lightgreen" stroke="#ccc" stroke-width="1.64"/><text x="90.1" y="-61.3" text-anchor="middle" font-size="5.6" font-family="Tahoma,Geneva,sans-serif" font-weight="bold" fill="rgb(100,100,100)">C</text><circle cx="96.8" cy="-77.0" r="4.48" fill="lightgreen" stroke="#ccc" stroke-width="1.64"/><text x="96.8" y="-74.7" text-anchor="middle" font-size="5.6" font-family="Tahoma,Geneva,sans-serif" font-weight="bold" fill="rgb(100,100,100)">C</text><circle cx="103.5" cy="-90.4" r="4.48" fill="lightgreen" stroke="#ccc" stroke-width="1.64"/><text x="103.5" y="-88.1" text-anchor="middle" font-size="5.6" font-family="Tahoma,Geneva,sans-serif" font-weight="bold" fill="rgb(100,100,100)">G</text><circle cx="118.4" cy="-92.1" r="4.48" fill="#dbdb8d" stroke="#ccc" stroke-width="1.64"/><text x="118.4" y="-89.9" text-anchor="middle" font-size="5.6" font-family="Tahoma,Geneva,sans-serif" font-weight="bold" fill="rgb(100,100,100)">A</text><circle cx="110.2" cy="-104.7" r="4.48" fill="lightgreen" stroke="#ccc" stroke-width="1.64"/><text x="110.2" y="-102.4" text-anchor="middle" font-size="5.6" font-family="Tahoma,Geneva,sans-serif" font-weight="bold" fill="rgb(100,100,100)">C</text><circle cx="116.2" cy="-118.4" r="4.48" fill="lightgreen" stroke="#ccc" stroke-width="1.64"/><text x="116.2" y="-116.2" text-anchor="middle" font-size="5.6" font-family="Tahoma,Geneva,sans-serif" font-weight="bold" fill="rgb(100,100,100)">G</text><circle cx="122.2" cy="-132.2" r="4.48" fill="lightgreen" stroke="#ccc" stroke-width="1.64"/><text x="122.2" y="-129.9" text-anchor="middle" font-size="5.6" font-family="Tahoma,Geneva,sans-serif" font-weight="bold" fill="rgb(100,100,100)">G</text><circle cx="128.2" cy="-145.9" r="4.48" fill="lightgreen" stroke="#ccc" stroke-width="1.64"/><text x="128.2" y="-143.7" text-anchor="middle" font-size="5.6" font-family="Tahoma,Geneva,sans-serif" font-weight="bold" fill="rgb(100,100,100)">G</text><circle cx="134.2" cy="-159.6" r="4.48" fill="lightgreen" stroke="#ccc" stroke-width="1.64"/><text x="134.2" y="-157.4" text-anchor="middle" font-size="5.6" font-family="Tahoma,Geneva,sans-serif" font-weight="bold" fill="rgb(100,100,100)">C</text><circle cx="140.3" cy="-173.4" r="4.48" fill="lightgreen" stroke="#ccc" stroke-width="1.64"/><text x="140.3" y="-171.1" text-anchor="middle" font-size="5.6" font-family="Tahoma,Geneva,sans-serif" font-weight="bold" fill="rgb(100,100,100)">A</text><circle cx="146.3" cy="-187.1" r="4.48" fill="lightgreen" stroke="#ccc" stroke-width="1.64"/><text x="146.3" y="-184.9" text-anchor="middle" font-size="5.6" font-family="Tahoma,Geneva,sans-serif" font-weight="bold" fill="rgb(100,100,100)">G</text><circle cx="152.3" cy="-200.9" r="4.48" fill="lightgreen" stroke="#ccc" stroke-width="1.64"/><text x="152.3" y="-198.6" text-anchor="middle" font-size="5.6" font-family="Tahoma,Geneva,sans-serif" font-weight="bold" fill="rgb(100,100,100)">A</text><circle cx="158.3" cy="-214.6" r="4.48" fill="lightgreen" stroke="#ccc" stroke-width="1.64"/><text x="158.3" y="-212.4" text-anchor="middle" font-size="5.6" font-family="Tahoma,Geneva,sans-serif" font-weight="bold" fill="rgb(100,100,100)">U</text><circle cx="164.3" cy="-228.4" r="4.48" fill="lightgreen" stroke="#ccc" stroke-width="1.64"/><text x="164.3" y="-226.1" text-anchor="middle" font-size="5.6" font-family="Tahoma,Geneva,sans-serif" font-weight="bold" fill="rgb(100,100,100)">C</text><circle cx="170.3" cy="-242.1" r="4.48" fill="lightgreen" stroke="#ccc" stroke-width="1.64"/><text x="170.3" y="-239.9" text-anchor="middle" font-size="5.6" font-family="Tahoma,Geneva,sans-serif" font-weight="bold" fill="rgb(100,100,100)">A</text><circle cx="185.1" cy="-244.0" r="4.48" fill="lightsalmon" stroke="#ccc" stroke-width="1.64"/><text x="185.1" y="-241.7" text-anchor="middle" font-size="5.6" font-family="Tahoma,Geneva,sans-serif" font-weight="bold" fill="rgb(100,100,100)">A</text><circle cx="197.9" cy="-251.8" r="4.48" fill="lightsalmon" stroke="#ccc" stroke-width="1.64"/><text x="197.9" y="-249.6" text-anchor="middle" font-size="5.6" font-family="Tahoma,Geneva,sans-serif" font-weight="bold" fill="rgb(100,100,100)">A</text><circle cx="205.5" cy="-264.7" r="4.48" fill="lightsalmon" stroke="#ccc" stroke-width="1.64"/><text x="205.5" y="-262.5" text-anchor="middle" font-size="5.6" font-family="Tahoma,Geneva,sans-serif" font-weight="bold" fill="rgb(100,100,100)">U</text><circle cx="207.2" cy="-279.6" r="4.48" fill="lightgreen" stroke="#ccc" stroke-width="1.64"/><text x="207.2" y="-277.4" text-anchor="middle" font-size="5.6" font-family="Tahoma,Geneva,sans-serif" font-weight="bold" fill="rgb(100,100,100)">A</text><circle cx="200.8" cy="-293.5" r="4.48" fill="lightgreen" stroke="#ccc" stroke-width="1.64"/><text x="200.8" y="-291.3" text-anchor="middle" font-size="5.6" font-family="Tahoma,Geneva,sans-serif" font-weight="bold" fill="rgb(100,100,100)">U</text><circle cx="188.6" cy="-302.8" r="4.48" fill="lightgreen" stroke="#ccc" stroke-width="1.64"/><text x="188.6" y="-300.6" text-anchor="middle" font-size="5.6" font-family="Tahoma,Geneva,sans-serif" font-weight="bold" fill="rgb(100,100,100)">U</text><circle cx="173.5" cy="-305.4" r="4.48" fill="lightgreen" stroke="#ccc" stroke-width="1.64"/><text x="173.5" y="-303.2" text-anchor="middle" font-size="5.6" font-family="Tahoma,Geneva,sans-serif" font-weight="bold" fill="rgb(100,100,100)">U</text><circle cx="159.0" cy="-300.7" r="4.48" fill="lightgreen" stroke="#ccc" stroke-width="1.64"/><text x="159.0" y="-298.4" text-anchor="middle" font-size="5.6" font-family="Tahoma,Geneva,sans-serif" font-weight="bold" fill="rgb(100,100,100)">G</text><circle cx="148.3" cy="-289.7" r="4.48" fill="lightgreen" stroke="#ccc" stroke-width="1.64"/><text x="148.3" y="-287.5" text-anchor="middle" font-size="5.6" font-family="Tahoma,Geneva,sans-serif" font-weight="bold" fill="rgb(100,100,100)">U</text></svg>