<svg xmlns="http://www.w3.org/2000/svg" viewBox="-155.9 -199.8 355.8 304.3" width="356" height="304"><style></style><line x1="-9.1" y1="-35.6" x2="-0.7" y2="-23.2" stroke="#999" stroke-width="1.65" stroke-opacity="0.8"/><line x1="3.4" y1="-44.0" x2="11.7" y2="-31.6" stroke="#999" stroke-width="1.65" stroke-opacity="0.8"/><line x1="15.8" y1="-52.4" x2="24.2" y2="-39.9" stroke="#999" stroke-width="1.65" stroke-opacity="0.8"/><line x1="28.3" y1="-60.8" x2="36.6" y2="-48.3" stroke="#999" stroke-width="1.65" stroke-opacity="0.8"/><line x1="40.7" y1="-69.1" x2="49.1" y2="-56.7" stroke="#999" stroke-width="1.65" stroke-opacity="0.8"/><line x1="4.6" y1="-9.1" x2="72.9" y2="-38.9" stroke="#d9534f" stroke-width="1.65" stroke-opacity="0.6"/><line x1="6.5" y1="5.8" x2="87.2" y2="-34.4" stroke="#d9534f" stroke-width="1.65" stroke-opacity="0.6"/><line x1="4.9" y1="20.8" x2="102.1" y2="-33.2" stroke="#d9534f" stroke-width="1.65" stroke-opacity="0.6"/><line x1="-0.1" y1="35.1" x2="116.9" y2="-35.3" stroke="#d9534f" stroke-width="1.65" stroke-opacity="0.6"/><line x1="-8.2" y1="47.7" x2="130.9" y2="-40.7" stroke="#d9534f" stroke-width="1.65" stroke-opacity="0.6"/><line x1="-19.1" y1="58.2" x2="143.3" y2="-49.1" stroke="#d9534f" stroke-width="1.65" stroke-opacity="0.6"/><line x1="-46.4" y1="70.3" x2="161.1" y2="-72.9" stroke="#d9534f" stroke-width="1.65" stroke-opacity="0.6"/><line x1="-61.5" y1="71.4" x2="165.6" y2="-87.2" stroke="#d9534f" stroke-width="1.65" stroke-opacity="0.6"/><line x1="-76.3" y1="68.9" x2="166.8" y2="-102.1" stroke="#d9534f" stroke-width="1.65" stroke-opacity="0.6"/><line x1="-119.1" y1="29.4" x2="150.9" y2="-143.3" stroke="#d9534f" stroke-width="1.65" stroke-opacity="0.6"/><line x1="-122.7" y1="14.8" x2="140.0" y2="-153.5" stroke="#d9534f" stroke-width="1.65" stroke-opacity="0.6"/><line x1="-122.9" y1="-0.3" x2="127.1" y2="-161.1" stroke="#d9534f" stroke-width="1.65" stroke-opacity="0.6"/><line x1="-119.6" y1="-15.0" x2="112.8" y2="-165.6" stroke="#d9534f" stroke-width="1.65" stroke-opacity="0.6"/><line x1="-113.0" y1="-28.5" x2="97.9" y2="-166.8" stroke="#d9534f" stroke-width="1.65" stroke-opacity="0.6"/><line x1="-103.4" y1="-40.2" x2="83.1" y2="-164.7" stroke="#d9534f" stroke-width="1.65" stroke-opacity="0.6"/><line x1="-91.4" y1="-49.3" x2="69.1" y2="-159.3" stroke="#d9534f" stroke-width="1.65" stroke-opacity="0.6"/><line x1="-77.6" y1="-55.4" x2="56.7" y2="-150.9" stroke="#d9534f" stroke-width="1.65" stroke-opacity="0.6"/><line x1="-62.8" y1="-58.2" x2="46.5" y2="-140.0" stroke="#d9534f" stroke-width="1.65" stroke-opacity="0.6"/><line x1="34.5" y1="-121.4" x2="36.0" y2="-103.9" stroke="#999" stroke-width="1.65" stroke-opacity="0.8"/><line x1="36.0" y1="-103.9" x2="38.0" y2="-86.4" stroke="#999" stroke-width="1.65" stroke-opacity="0.8"/><line x1="38.0" y1="-86.4" x2="40.7" y2="-69.1" stroke="#999" stroke-width="1.65" stroke-opacity="0.8"/><line x1="40.7" y1="-69.1" x2="28.3" y2="-60.8" stroke="#999" stroke-width="1.65" stroke-opacity="0.8"/><line x1="28.3" y1="-60.8" x2="15.8" y2="-52.4" stroke="#999" stroke-width="1.65" stroke-opacity="0.8"/><line x1="15.8" y1="-52.4" x2="3.4" y2="-44.0" stroke="#999" stroke-width="1.65" stroke-opacity="0.8"/><line x1="3.4" y1="-44.0" x2="-9.1" y2="-35.6" stroke="#999" stroke-width="1.65" stroke-opacity="0.8"/><line x1="-9.1" y1="-35.6" x2="-20.2" y2="-45.8" stroke="#999" stroke-width="1.65" stroke-opacity="0.8"/><line x1="-20.2" y1="-45.8" x2="-33.3" y2="-53.1" stroke="#999" stroke-width="1.65" stroke-opacity="0.8"/><line x1="-33.3" y1="-53.1" x2="-47.8" y2="-57.3" stroke="#999" stroke-width="1.65" stroke-opacity="0.8"/><line x1="-47.8" y1="-57.3" x2="-62.8" y2="-58.2" stroke="#999" stroke-width="1.65" stroke-opacity="0.8"/><line x1="-62.8" y1="-58.2" x2="-77.6" y2="-55.4" stroke="#999" stroke-width="1.65" stroke-opacity="0.8"/><line x1="-77.6" y1="-55.4" x2="-91.4" y2="-49.3" stroke="#999" stroke-width="1.65" stroke-opacity="0.8"/><line x1="-91.4" y1="-49.3" x2="-103.4" y2="-40.2" stroke="#999" stroke-width="1.65" stroke-opacity="0.8"/><line x1="-103.4" y1="-40.2" x2="-113.0" y2="-28.5" stroke="#999" stroke-width="1.65" stroke-opacity="0.8"/><line x1="-113.0" y1="-28.5" x2="-119.6" y2="-15.0" stroke="#999" stroke-width="1.65" stroke-opacity="0.8"/><line x1="-119.6" y1="-15.0" x2="-122.9" y2="-0.3" stroke="#999" stroke-width="1.65" stroke-opacity="0.8"/><line x1="-122.9" y1="-0.3" x2="-122.7" y2="14.8" stroke="#999" stroke-width="1.65" stroke-opacity="0.8"/><line x1="-122.7" y1="14.8" x2="-119.1" y2="29.4" stroke="#999" stroke-width="1.65" stroke-opacity="0.8"/><line x1="-119.1" y1="29.4" x2="-112.1" y2="42.7" stroke="#999" stroke-width="1.65" stroke-opacity="0.8"/><line x1="-112.1" y1="42.7" x2="-102.3" y2="54.1" stroke="#999" stroke-width="1.65" stroke-opacity="0.8"/><line x1="-102.3" y1="54.1" x2="-90.1" y2="63.0" stroke="#999" stroke-width="1.65" stroke-opacity="0.8"/><line x1="-90.1" y1="63.0" x2="-76.3" y2="68.9" stroke="#999" stroke-width="1.65" stroke-opacity="0.8"/><line x1="-76.3" y1="68.9" x2="-61.5" y2="71.4" stroke="#999" stroke-width="1.65" stroke-opacity="0.8"/><line x1="-61.5" y1="71.4" x2="-46.4" y2="70.3" stroke="#999" stroke-width="1.65" stroke-opacity="0.8"/><line x1="-46.4" y1="70.3" x2="-32.1" y2="65.7" stroke="#999" stroke-width="1.65" stroke-opacity="0.8"/><line x1="-32.1" y1="65.7" x2="-19.1" y2="58.2" stroke="#999" stroke-width="1.65" stroke-opacity="0.8"/><line x1="-19.1" y1="58.2" x2="-8.2" y2="47.7" stroke="#999" stroke-width="1.65" stroke-opacity="0.8"/><line x1="-8.2" y1="47.7" x2="-0.1" y2="35.1" stroke="#999" stroke-width="1.65" stroke-opacity="0.8"/><line x1="-0.1" y1="35.1" x2="4.9" y2="20.8" stroke="#999" stroke-width="1.65" stroke-opacity="0.8"/><line x1="4.9" y1="20.8" x2="6.5" y2="5.8" stroke="#999" stroke-width="1.65" stroke-opacity="0.8"/><line x1="6.5" y1="5.8" x2="4.6" y2="-9.1" stroke="#999" stroke-width="1.65" stroke-opacity="0.8"/><line x1="4.6" y1="-9.1" x2="-0.7" y2="-23.2" stroke="#999" stroke-width="1.65" stroke-opacity="0.8"/><line x1="-0.7" y1="-23.2" x2="11.7" y2="-31.6" stroke="#999" stroke-width="1.65" stroke-opacity="0.8"/><line x1="11.7" y1="-31.6" x2="24.2" y2="-39.9" stroke="#999" stroke-width="1.65" stroke-opacity="0.8"/><line x1="24.2" y1="-39.9" x2="36.6" y2="-48.3" stroke="#999" stroke-width="1.65" stroke-opacity="0.8"/><line x1="36.6" y1="-48.3" x2="49.1" y2="-56.7" stroke="#999" stroke-width="1.65" stroke-opacity="0.8"/><line x1="49.1" y1="-56.7" x2="59.9" y2="-46.3" stroke="#999" stroke-width="1.65" stroke-opacity="0.8"/><line x1="59.9" y1="-46.3" x2="72.9" y2="-38.9" stroke="#999" stroke-width="1.65" stroke-opacity="0.8"/><line x1="72.9" y1="-38.9" x2="87.2" y2="-34.4" stroke="#999" stroke-width="1.65" stroke-opacity="0.8"/><line x1="87.2" y1="-34.4" x2="102.1" y2="-33.2" stroke="#999" stroke-width="1.65" stroke-opacity="0.8"/><line x1="102.1" y1="-33.2" x2="116.9" y2="-35.3" stroke="#999" stroke-width="1.65" stroke-opacity="0.8"/><line x1="116.9" y1="-35.3" x2="130.9" y2="-40.7" stroke="#999" stroke-width="1.65" stroke-opacity="0.8"/><line x1="130.9" y1="-40.7" x2="143.3" y2="-49.1" stroke="#999" stroke-width="1.65" stroke-opacity="0.8"/><line x1="143.3" y1="-49.1" x2="153.7" y2="-59.9" stroke="#999" stroke-width="1.65" stroke-opacity="0.8"/><line x1="153.7" y1="-59.9" x2="161.1" y2="-72.9" stroke="#999" stroke-width="1.65" stroke-opacity="0.8"/><line x1="161.1" y1="-72.9" x2="165.6" y2="-87.2" stroke="#999" stroke-width="1.65" stroke-opacity="0.8"/><line x1="165.6" y1="-87.2" x2="166.8" y2="-102.1" stroke="#999" stroke-width="1.65" stroke-opacity="0.8"/><line x1="166.8" y1="-102.1" x2="164.8" y2="-116.9" stroke="#999" stroke-width="1.65" stroke-opacity="0.8"/><line x1="164.8" y1="-116.9" x2="159.4" y2="-130.9" stroke="#999" stroke-width="1.65" stroke-opacity="0.8"/><line x1="159.4" y1="-130.9" x2="150.9" y2="-143.3" stroke="#999" stroke-width="1.65" stroke-opacity="0.8"/><line x1="150.9" y1="-143.3" x2="140.0" y2="-153.5" stroke="#999" stroke-width="1.65" stroke-opacity="0.8"/><line x1="140.0" y1="-153.5" x2="127.1" y2="-161.1" stroke="#999" stroke-width="1.65" stroke-opacity="0.8"/><line x1="127.1" y1="-161.1" x2="112.8" y2="-165.6" stroke="#999" stroke-width="1.65" stroke-opacity="0.8"/><line x1="112.8" y1="-165.6" x2="97.9" y2="-166.8" stroke="#999" stroke-width="1.65" stroke-opacity="0.8"/><line x1="97.9" y1="-166.8" x2="83.1" y2="-164.7" stroke="#999" stroke-width="1.65" stroke-opacity="0.8"/><line x1="83.1" y1="-164.7" x2="69.1" y2="-159.3" stroke="#999" stroke-width="1.65" stroke-opacity="0.8"/><line x1="69.1" y1="-159.3" x2="56.7" y2="-150.9" stroke="#999" stroke-width="1.65" stroke-opacity="0.8"/><line x1="56.7" y1="-150.9" x2="46.5" y2="-140.0" stroke="#999" stroke-width="1.65" stroke-opacity="0.8"/><text x="16.5" y="-117.2" text-anchor="middle" font-size="7.8" font-family="Tahoma,Geneva,sans-serif" fill="#999">1</text><text x="-26.4" y="-67.0" text-anchor="middle" font-size="7.8" font-family="Tahoma,Geneva,sans-serif" fill="#999">10</text><text x="-136.0" y="38.5" text-anchor="middle" font-size="7.8" font-family="Tahoma,Geneva,sans-serif" fill="#999">20</text><text x="-16.3" y="29.9" text-anchor="middle" font-size="7.8" font-family="Tahoma,Geneva,sans-serif" fill="#999">30</text><text x="80.1" y="-52.7" text-anchor="middle" font-size="7.8" font-family="Tahoma,Geneva,sans-serif" fill="#999">40</text><text x="182.3" y="-118.7" text-anchor="middle" font-size="7.8" font-family="Tahoma,Geneva,sans-serif" fill="#999">50</text><text x="59.6" y="-125.0" text-anchor="middle" font-size="7.8" font-family="Tahoma,Geneva,sans-serif" fill="#999">60</text><circle cx="34.5" cy="-121.4" r="4.51" fill="lightsalmon" stroke="#ccc" stroke-width="1.65"/><text x="34.5" y="-119.2" text-anchor="middle" font-size="5.6" font-family="Tahoma,Geneva,sans-serif" font-weight="bold" fill="rgb(100,100,100)">A</text><circle cx="36.0" cy="-103.9" r="4.51" fill="lightsalmon" stroke="#ccc" stroke-width="1.65"/><text x="36.0" y="-101.6" text-anchor="middle" font-size="5.6" font-family="Tahoma,Geneva,sans-serif" font-weight="bold" fill="rgb(100,100,100)">A</text><circle cx="38.0" cy="-86.4" r="4.51" fill="lightsalmon" stroke="#ccc" stroke-width="1.65"/><text x="38.0" y="-84.2" text-anchor="middle" font-size="5.6" font-family="Tahoma,Geneva,sans-serif" font-weight="bold" fill="rgb(100,100,100)">A</text><circle cx="40.7" cy="-69.1" r="4.51" fill="lightgreen" stroke="#ccc" stroke-width="1.65"/><text x="40.7" y="-66.9" text-anchor="middle" font-size="5.6" font-family="Tahoma,Geneva,sans-serif" font-weight="bold" fill="rgb(100,100,100)">G</text><circle cx="28.3" cy="-60.8" r="4.51" fill="lightgreen" stroke="#ccc" stroke-width="1.65"/><text x="28.3" y="-58.5" text-anchor="middle" font-size="5.6" font-family="Tahoma,Geneva,sans-serif" font-weight="bold" fill="rgb(100,100,100)">U</text><circle cx="15.8" cy="-52.4" r="4.51" fill="lightgreen" stroke="#ccc" stroke-width="1.65"/><text x="15.8" y="-50.1" text-anchor="middle" font-size="5.6" font-family="Tahoma,Geneva,sans-serif" font-weight="bold" fill="rgb(100,100,100)">U</text><circle cx="3.4" cy="-44.0" r="4.51" fill="lightgreen" stroke="#ccc" stroke-width="1.65"/><text x="3.4" y="-41.8" text-anchor="middle" font-size="5.6" font-family="Tahoma,Geneva,sans-serif" font-weight="bold" fill="rgb(100,100,100)">C</text><circle cx="-9.1" cy="-35.6" r="4.51" fill="lightgreen" stroke="#ccc" stroke-width="1.65"/><text x="-9.1" y="-33.4" text-anchor="middle" font-size="5.6" font-family="Tahoma,Geneva,sans-serif" font-weight="bold" fill="rgb(100,100,100)">A</text><circle cx="-20.2" cy="-45.8" r="4.51" fill="lightblue" stroke="#ccc" stroke-width="1.65"/><text x="-20.2" y="-43.5" text-anchor="middle" font-size="5.6" font-family="Tahoma,Geneva,sans-serif" font-weight="bold" fill="rgb(100,100,100)">A</text><circle cx="-33.3" cy="-53.1" r="4.51" fill="lightblue" stroke="#ccc" stroke-width="1.65"/><text x="-33.3" y="-50.9" text-anchor="middle" font-size="5.6" font-family="Tahoma,Geneva,sans-serif" font-weight="bold" fill="rgb(100,100,100)">U</text><circle cx="-47.8" cy="-57.3" r="4.51" fill="lightblue" stroke="#ccc" stroke-width="1.65"/><text x="-47.8" y="-55.1" text-anchor="middle" font-size="5.6" font-family="Tahoma,Geneva,sans-serif" font-weight="bold" fill="rgb(100,100,100)">A</text><circle cx="-62.8" cy="-58.2" r="4.51" fill="lightgreen" stroke="#ccc" stroke-width="1.65"/><text x="-62.8" y="-55.9" text-anchor="middle" font-size="5.6" font-family="Tahoma,Geneva,sans-serif" font-weight="bold" fill="rgb(100,100,100)">C</text><circle cx="-77.6" cy="-55.4" r="4.51" fill="lightgreen" stroke="#ccc" stroke-width="1.65"/><text x="-77.6" y="-53.2" text-anchor="middle" font-size="5.6" font-family="Tahoma,Geneva,sans-serif" font-weight="bold" fill="rgb(100,100,100)">G</text><circle cx="-91.4" cy="-49.3" r="4.51" fill="lightgreen" stroke="#ccc" stroke-width="1.65"/><text x="-91.4" y="-47.1" text-anchor="middle" font-size="5.6" font-family="Tahoma,Geneva,sans-serif" font-weight="bold" fill="rgb(100,100,100)">U</text><circle cx="-103.4" cy="-40.2" r="4.51" fill="lightgreen" stroke="#ccc" stroke-width="1.65"/><text x="-103.4" y="-37.9" text-anchor="middle" font-size="5.6" font-family="Tahoma,Geneva,sans-serif" font-weight="bold" fill="rgb(100,100,100)">C</text><circle cx="-113.0" cy="-28.5" r="4.51" fill="lightgreen" stroke="#ccc" stroke-width="1.65"/><text x="-113.0" y="-26.3" text-anchor="middle" font-size="5.6" font-family="Tahoma,Geneva,sans-serif" font-weight="bold" fill="rgb(100,100,100)">U</text><circle cx="-119.6" cy="-15.0" r="4.51" fill="lightgreen" stroke="#ccc" stroke-width="1.65"/><text x="-119.6" y="-12.8" text-anchor="middle" font-size="5.6" font-family="Tahoma,Geneva,sans-serif" font-weight="bold" fill="rgb(100,100,100)">U</text><circle cx="-122.9" cy="-0.3" r="4.51" fill="lightgreen" stroke="#ccc" stroke-width="1.65"/><text x="-122.9" y="1.9" text-anchor="middle" font-size="5.6" font-family="Tahoma,Geneva,sans-serif" font-weight="bold" fill="rgb(100,100,100)">G</text><circle cx="-122.7" cy="14.8" r="4.51" fill="lightgreen" stroke="#ccc" stroke-width="1.65"/><text x="-122.7" y="17.0" text-anchor="middle" font-size="5.6" font-family="Tahoma,Geneva,sans-serif" font-weight="bold" fill="rgb(100,100,100)">C</text><circle cx="-119.1" cy="29.4" r="4.51" fill="lightgreen" stroke="#ccc" stroke-width="1.65"/><text x="-119.1" y="31.6" text-anchor="middle" font-size="5.6" font-family="Tahoma,Geneva,sans-serif" font-weight="bold" fill="rgb(100,100,100)">A</text><circle cx="-112.1" cy="42.7" r="4.51" fill="lightblue" stroke="#ccc" stroke-width="1.65"/><text x="-112.1" y="44.9" text-anchor="middle" font-size="5.6" font-family="Tahoma,Geneva,sans-serif" font-weight="bold" fill="rgb(100,100,100)">G</text><circle cx="-102.3" cy="54.1" r="4.51" fill="lightblue" stroke="#ccc" stroke-width="1.65"/><text x="-102.3" y="56.4" text-anchor="middle" font-size="5.6" font-family="Tahoma,Geneva,sans-serif" font-weight="bold" fill="rgb(100,100,100)">U</text><circle cx="-90.1" cy="63.0" r="4.51" fill="lightblue" stroke="#ccc" stroke-width="1.65"/><text x="-90.1" y="65.2" text-anchor="middle" font-size="5.6" font-family="Tahoma,Geneva,sans-serif" font-weight="bold" fill="rgb(100,100,100)">G</text><circle cx="-76.3" cy="68.9" r="4.51" fill="lightgreen" stroke="#ccc" stroke-width="1.65"/><text x="-76.3" y="71.2" text-anchor="middle" font-size="5.6" font-family="Tahoma,Geneva,sans-serif" font-weight="bold" fill="rgb(100,100,100)">C</text><circle cx="-61.5" cy="71.4" r="4.51" fill="lightgreen" stroke="#ccc" stroke-width="1.65"/><text x="-61.5" y="73.6" text-anchor="middle" font-size="5.6" font-family="Tahoma,Geneva,sans-serif" font-weight="bold" fill="rgb(100,100,100)">U</text><circle cx="-46.4" cy="70.3" r="4.51" fill="lightgreen" stroke="#ccc" stroke-width="1.65"/><text x="-46.4" y="72.6" text-anchor="middle" font-size="5.6" font-family="Tahoma,Geneva,sans-serif" font-weight="bold" fill="rgb(100,100,100)">G</text><circle cx="-32.1" cy="65.7" r="4.51" fill="lightblue" stroke="#ccc" stroke-width="1.65"/><text x="-32.1" y="68.0" text-anchor="middle" font-size="5.6" font-family="Tahoma,Geneva,sans-serif" font-weight="bold" fill="rgb(100,100,100)">G</text><circle cx="-19.1" cy="58.2" r="4.51" fill="lightgreen" stroke="#ccc" stroke-width="1.65"/><text x="-19.1" y="60.4" text-anchor="middle" font-size="5.6" font-family="Tahoma,Geneva,sans-serif" font-weight="bold" fill="rgb(100,100,100)">C</text><circle cx="-8.2" cy="47.7" r="4.51" fill="lightgreen" stroke="#ccc" stroke-width="1.65"/><text x="-8.2" y="50.0" text-anchor="middle" font-size="5.6" font-family="Tahoma,Geneva,sans-serif" font-weight="bold" fill="rgb(100,100,100)">G</text><circle cx="-0.1" cy="35.1" r="4.51" fill="lightgreen" stroke="#ccc" stroke-width="1.65"/><text x="-0.1" y="37.3" text-anchor="middle" font-size="5.6" font-family="Tahoma,Geneva,sans-serif" font-weight="bold" fill="rgb(100,100,100)">U</text><circle cx="4.9" cy="20.8" r="4.51" fill="lightgreen" stroke="#ccc" stroke-width="1.65"/><text x="4.9" y="23.1" text-anchor="middle" font-size="5.6" font-family="Tahoma,Geneva,sans-serif" font-weight="bold" fill="rgb(100,100,100)">C</text><circle cx="6.5" cy="5.8" r="4.51" fill="lightgreen" stroke="#ccc" stroke-width="1.65"/><text x="6.5" y="8.1" text-anchor="middle" font-size="5.6" font-family="Tahoma,Geneva,sans-serif" font-weight="bold" fill="rgb(100,100,100)">G</text><circle cx="4.6" cy="-9.1" r="4.51" fill="lightgreen" stroke="#ccc" stroke-width="1.65"/><text x="4.6" y="-6.8" text-anchor="middle" font-size="5.6" font-family="Tahoma,Geneva,sans-serif" font-weight="bold" fill="rgb(100,100,100)">G</text><circle cx="-0.7" cy="-23.2" r="4.51" fill="lightgreen" stroke="#ccc" stroke-width="1.65"/><text x="-0.7" y="-21.0" text-anchor="middle" font-size="5.6" font-family="Tahoma,Geneva,sans-serif" font-weight="bold" fill="rgb(100,100,100)">U</text><circle cx="11.7" cy="-31.6" r="4.51" fill="lightgreen" stroke="#ccc" stroke-width="1.65"/><text x="11.7" y="-29.3" text-anchor="middle" font-size="5.6" font-family="Tahoma,Geneva,sans-serif" font-weight="bold" fill="rgb(100,100,100)">G</text><circle cx="24.2" cy="-39.9" r="4.51" fill="lightgreen" stroke="#ccc" stroke-width="1.65"/><text x="24.2" y="-37.7" text-anchor="middle" font-size="5.6" font-family="Tahoma,Geneva,sans-serif" font-weight="bold" fill="rgb(100,100,100)">G</text><circle cx="36.6" cy="-48.3" r="4.51" fill="lightgreen" stroke="#ccc" stroke-width="1.65"/><text x="36.6" y="-46.1" text-anchor="middle" font-size="5.6" font-family="Tahoma,Geneva,sans-serif" font-weight="bold" fill="rgb(100,100,100)">A</text><circle cx="49.1" cy="-56.7" r="4.51" fill="lightgreen" stroke="#ccc" stroke-width="1.65"/><text x="49.1" y="-54.4" text-anchor="middle" font-size="5.6" font-family="Tahoma,Geneva,sans-serif" font-weight="bold" fill="rgb(100,100,100)">U</text><circle cx="59.9" cy="-46.3" r="4.51" fill="lightsalmon" stroke="#ccc" stroke-width="1.65"/><text x="59.9" y="-44.1" text-anchor="middle" font-size="5.6" font-family="Tahoma,Geneva,sans-serif" font-weight="bold" fill="rgb(100,100,100)">A</text><circle cx="72.9" cy="-38.9" r="4.51" fill="lightgreen" stroke="#ccc" stroke-width="1.65"/><text x="72.9" y="-36.6" text-anchor="middle" font-size="5.6" font-family="Tahoma,Geneva,sans-serif" font-weight="bold" fill="rgb(100,100,100)">C</text><circle cx="87.2" cy="-34.4" r="4.51" fill="lightgreen" stroke="#ccc" stroke-width="1.65"/><text x="87.2" y="-32.1" text-anchor="middle" font-size="5.6" font-family="Tahoma,Geneva,sans-serif" font-weight="bold" fill="rgb(100,100,100)">U</text><circle cx="102.1" cy="-33.2" r="4.51" fill="lightgreen" stroke="#ccc" stroke-width="1.65"/><text x="102.1" y="-30.9" text-anchor="middle" font-size="5.6" font-family="Tahoma,Geneva,sans-serif" font-weight="bold" fill="rgb(100,100,100)">G</text><circle cx="116.9" cy="-35.3" r="4.51" fill="lightgreen" stroke="#ccc" stroke-width="1.65"/><text x="116.9" y="-33.1" text-anchor="middle" font-size="5.6" font-family="Tahoma,Geneva,sans-serif" font-weight="bold" fill="rgb(100,100,100)">A</text><circle cx="130.9" cy="-40.7" r="4.51" fill="lightgreen" stroke="#ccc" stroke-width="1.65"/><text x="130.9" y="-38.5" text-anchor="middle" font-size="5.6" font-family="Tahoma,Geneva,sans-serif" font-weight="bold" fill="rgb(100,100,100)">C</text><circle cx="143.3" cy="-49.1" r="4.51" fill="lightgreen" stroke="#ccc" stroke-width="1.65"/><text x="143.3" y="-46.8" text-anchor="middle" font-size="5.6" font-family="Tahoma,Geneva,sans-serif" font-weight="bold" fill="rgb(100,100,100)">G</text><circle cx="153.7" cy="-59.9" r="4.51" fill="lightsalmon" stroke="#ccc" stroke-width="1.65"/><text x="153.7" y="-57.6" text-anchor="middle" font-size="5.6" font-family="Tahoma,Geneva,sans-serif" font-weight="bold" fill="rgb(100,100,100)">G</text><circle cx="161.1" cy="-72.9" r="4.51" fill="lightgreen" stroke="#ccc" stroke-width="1.65"/><text x="161.1" y="-70.6" text-anchor="middle" font-size="5.6" font-family="Tahoma,Geneva,sans-serif" font-weight="bold" fill="rgb(100,100,100)">C</text><circle cx="165.6" cy="-87.2" r="4.51" fill="lightgreen" stroke="#ccc" stroke-width="1.65"/><text x="165.6" y="-84.9" text-anchor="middle" font-size="5.6" font-family="Tahoma,Geneva,sans-serif" font-weight="bold" fill="rgb(100,100,100)">A</text><circle cx="166.8" cy="-102.1" r="4.51" fill="lightgreen" stroke="#ccc" stroke-width="1.65"/><text x="166.8" y="-99.8" text-anchor="middle" font-size="5.6" font-family="Tahoma,Geneva,sans-serif" font-weight="bold" fill="rgb(100,100,100)">G</text><circle cx="164.8" cy="-116.9" r="4.51" fill="lightsalmon" stroke="#ccc" stroke-width="1.65"/><text x="164.8" y="-114.7" text-anchor="middle" font-size="5.6" font-family="Tahoma,Geneva,sans-serif" font-weight="bold" fill="rgb(100,100,100)">A</text><circle cx="159.4" cy="-130.9" r="4.51" fill="lightsalmon" stroke="#ccc" stroke-width="1.65"/><text x="159.4" y="-128.7" text-anchor="middle" font-size="5.6" font-family="Tahoma,Geneva,sans-serif" font-weight="bold" fill="rgb(100,100,100)">G</text><circle cx="150.9" cy="-143.3" r="4.51" fill="lightgreen" stroke="#ccc" stroke-width="1.65"/><text x="150.9" y="-141.0" text-anchor="middle" font-size="5.6" font-family="Tahoma,Geneva,sans-serif" font-weight="bold" fill="rgb(100,100,100)">U</text><circle cx="140.0" cy="-153.5" r="4.51" fill="lightgreen" stroke="#ccc" stroke-width="1.65"/><text x="140.0" y="-151.3" text-anchor="middle" font-size="5.6" font-family="Tahoma,Geneva,sans-serif" font-weight="bold" fill="rgb(100,100,100)">G</text><circle cx="127.1" cy="-161.1" r="4.51" fill="lightgreen" stroke="#ccc" stroke-width="1.65"/><text x="127.1" y="-158.8" text-anchor="middle" font-size="5.6" font-family="Tahoma,Geneva,sans-serif" font-weight="bold" fill="rgb(100,100,100)">C</text><circle cx="112.8" cy="-165.6" r="4.51" fill="lightgreen" stroke="#ccc" stroke-width="1.65"/><text x="112.8" y="-163.3" text-anchor="middle" font-size="5.6" font-family="Tahoma,Geneva,sans-serif" font-weight="bold" fill="rgb(100,100,100)">A</text><circle cx="97.9" cy="-166.8" r="4.51" fill="lightgreen" stroke="#ccc" stroke-width="1.65"/><text x="97.9" y="-164.6" text-anchor="middle" font-size="5.6" font-family="Tahoma,Geneva,sans-serif" font-weight="bold" fill="rgb(100,100,100)">A</text><circle cx="83.1" cy="-164.7" r="4.51" fill="lightgreen" stroke="#ccc" stroke-width="1.65"/><text x="83.1" y="-162.4" text-anchor="middle" font-size="5.6" font-family="Tahoma,Geneva,sans-serif" font-weight="bold" fill="rgb(100,100,100)">G</text><circle cx="69.1" cy="-159.3" r="4.51" fill="lightgreen" stroke="#ccc" stroke-width="1.65"/><text x="69.1" y="-157.0" text-anchor="middle" font-size="5.6" font-family="Tahoma,Geneva,sans-serif" font-weight="bold" fill="rgb(100,100,100)">A</text><circle cx="56.7" cy="-150.9" r="4.51" fill="lightgreen" stroke="#ccc" stroke-width="1.65"/><text x="56.7" y="-148.7" text-anchor="middle" font-size="5.6" font-family="Tahoma,Geneva,sans-serif" font-weight="bold" fill="rgb(100,100,100)">U</text><circle cx="46.5" cy="-140.0" r="4.51" fill="lightgreen" stroke="#ccc" stroke-width="1.65"/><text x="46.5" y="-137.8" text-anchor="middle" font-size="5.6" font-family="Tahoma,Geneva,sans-serif" font-weight="bold" fill="rgb(100,100,100)">G</text></svg>