<svg xmlns="http://www.w3.org/2000/svg" viewBox="-41.1 -218.7 314.0 369.9" width="314" height="370"><style></style><line x1="16.4" y1="-172.1" x2="7.4" y2="-160.1" stroke="#999" stroke-width="1.61" stroke-opacity="0.8"/><line x1="28.4" y1="-163.1" x2="19.4" y2="-151.1" stroke="#999" stroke-width="1.61" stroke-opacity="0.8"/><line x1="40.4" y1="-154.1" x2="31.4" y2="-142.1" stroke="#999" stroke-width="1.61" stroke-opacity="0.8"/><line x1="52.4" y1="-145.1" x2="43.4" y2="-133.1" stroke="#999" stroke-width="1.61" stroke-opacity="0.8"/><line x1="64.4" y1="-136.1" x2="55.4" y2="-124.1" stroke="#999" stroke-width="1.61" stroke-opacity="0.8"/><line x1="76.4" y1="-127.1" x2="67.4" y2="-115.1" stroke="#999" stroke-width="1.61" stroke-opacity="0.8"/><line x1="-8.9" y1="-181.7" x2="64.5" y2="-94.4" stroke="#d9534f" stroke-width="1.61" stroke-opacity="0.6"/><line x1="7.4" y1="-186.4" x2="73.7" y2="-75.6" stroke="#d9534f" stroke-width="1.61" stroke-opacity="0.6"/><line x1="206.1" y1="87.3" x2="219.2" y2="79.9" stroke="#999" stroke-width="1.61" stroke-opacity="0.8"/><line x1="198.8" y1="74.3" x2="211.8" y2="66.9" stroke="#999" stroke-width="1.61" stroke-opacity="0.8"/><line x1="191.4" y1="61.2" x2="204.4" y2="53.8" stroke="#999" stroke-width="1.61" stroke-opacity="0.8"/><line x1="184.0" y1="48.2" x2="197.0" y2="40.8" stroke="#999" stroke-width="1.61" stroke-opacity="0.8"/><line x1="176.6" y1="35.1" x2="189.6" y2="27.7" stroke="#999" stroke-width="1.61" stroke-opacity="0.8"/><line x1="168.9" y1="22.2" x2="181.5" y2="14.2" stroke="#999" stroke-width="1.61" stroke-opacity="0.8"/><line x1="160.8" y1="9.6" x2="173.5" y2="1.5" stroke="#999" stroke-width="1.61" stroke-opacity="0.8"/><line x1="152.8" y1="-3.1" x2="165.4" y2="-11.1" stroke="#999" stroke-width="1.61" stroke-opacity="0.8"/><line x1="144.7" y1="-15.7" x2="157.4" y2="-23.8" stroke="#999" stroke-width="1.61" stroke-opacity="0.8"/><line x1="136.7" y1="-28.4" x2="149.3" y2="-36.4" stroke="#999" stroke-width="1.61" stroke-opacity="0.8"/><line x1="128.6" y1="-41.0" x2="141.3" y2="-49.1" stroke="#999" stroke-width="1.61" stroke-opacity="0.8"/><line x1="120.6" y1="-53.7" x2="133.2" y2="-61.7" stroke="#999" stroke-width="1.61" stroke-opacity="0.8"/><line x1="112.5" y1="-66.3" x2="125.2" y2="-74.4" stroke="#999" stroke-width="1.61" stroke-opacity="0.8"/><line x1="82.5" y1="-143.6" x2="76.4" y2="-127.1" stroke="#999" stroke-width="1.61" stroke-opacity="0.8"/><line x1="76.4" y1="-127.1" x2="64.4" y2="-136.1" stroke="#999" stroke-width="1.61" stroke-opacity="0.8"/><line x1="64.4" y1="-136.1" x2="52.4" y2="-145.1" stroke="#999" stroke-width="1.61" stroke-opacity="0.8"/><line x1="52.4" y1="-145.1" x2="40.4" y2="-154.1" stroke="#999" stroke-width="1.61" stroke-opacity="0.8"/><line x1="40.4" y1="-154.1" x2="28.4" y2="-163.1" stroke="#999" stroke-width="1.61" stroke-opacity="0.8"/><line x1="28.4" y1="-163.1" x2="16.4" y2="-172.1" stroke="#999" stroke-width="1.61" stroke-opacity="0.8"/><line x1="16.4" y1="-172.1" x2="7.4" y2="-186.4" stroke="#999" stroke-width="1.61" stroke-opacity="0.8"/><line x1="7.4" y1="-186.4" x2="-8.9" y2="-181.7" stroke="#999" stroke-width="1.61" stroke-opacity="0.8"/><line x1="-8.9" y1="-181.7" x2="-5.2" y2="-167.5" stroke="#999" stroke-width="1.61" stroke-opacity="0.8"/><line x1="-5.2" y1="-167.5" x2="7.4" y2="-160.1" stroke="#999" stroke-width="1.61" stroke-opacity="0.8"/><line x1="7.4" y1="-160.1" x2="19.4" y2="-151.1" stroke="#999" stroke-width="1.61" stroke-opacity="0.8"/><line x1="19.4" y1="-151.1" x2="31.4" y2="-142.1" stroke="#999" stroke-width="1.61" stroke-opacity="0.8"/><line x1="31.4" y1="-142.1" x2="43.4" y2="-133.1" stroke="#999" stroke-width="1.61" stroke-opacity="0.8"/><line x1="43.4" y1="-133.1" x2="55.4" y2="-124.1" stroke="#999" stroke-width="1.61" stroke-opacity="0.8"/><line x1="55.4" y1="-124.1" x2="67.4" y2="-115.1" stroke="#999" stroke-width="1.61" stroke-opacity="0.8"/><line x1="67.4" y1="-115.1" x2="64.5" y2="-94.4" stroke="#999" stroke-width="1.61" stroke-opacity="0.8"/><line x1="64.5" y1="-94.4" x2="73.7" y2="-75.6" stroke="#999" stroke-width="1.61" stroke-opacity="0.8"/><line x1="73.7" y1="-75.6" x2="93.1" y2="-71.0" stroke="#999" stroke-width="1.61" stroke-opacity="0.8"/><line x1="93.1" y1="-71.0" x2="112.5" y2="-66.3" stroke="#999" stroke-width="1.61" stroke-opacity="0.8"/><line x1="112.5" y1="-66.3" x2="120.6" y2="-53.7" stroke="#999" stroke-width="1.61" stroke-opacity="0.8"/><line x1="120.6" y1="-53.7" x2="128.6" y2="-41.0" stroke="#999" stroke-width="1.61" stroke-opacity="0.8"/><line x1="128.6" y1="-41.0" x2="136.7" y2="-28.4" stroke="#999" stroke-width="1.61" stroke-opacity="0.8"/><line x1="136.7" y1="-28.4" x2="144.7" y2="-15.7" stroke="#999" stroke-width="1.61" stroke-opacity="0.8"/><line x1="144.7" y1="-15.7" x2="152.8" y2="-3.1" stroke="#999" stroke-width="1.61" stroke-opacity="0.8"/><line x1="152.8" y1="-3.1" x2="160.8" y2="9.6" stroke="#999" stroke-width="1.61" stroke-opacity="0.8"/><line x1="160.8" y1="9.6" x2="168.9" y2="22.2" stroke="#999" stroke-width="1.61" stroke-opacity="0.8"/><line x1="168.9" y1="22.2" x2="176.6" y2="35.1" stroke="#999" stroke-width="1.61" stroke-opacity="0.8"/><line x1="176.6" y1="35.1" x2="184.0" y2="48.2" stroke="#999" stroke-width="1.61" stroke-opacity="0.8"/><line x1="184.0" y1="48.2" x2="191.4" y2="61.2" stroke="#999" stroke-width="1.61" stroke-opacity="0.8"/><line x1="191.4" y1="61.2" x2="198.8" y2="74.3" stroke="#999" stroke-width="1.61" stroke-opacity="0.8"/><line x1="198.8" y1="74.3" x2="206.1" y2="87.3" stroke="#999" stroke-width="1.61" stroke-opacity="0.8"/><line x1="206.1" y1="87.3" x2="203.5" y2="101.7" stroke="#999" stroke-width="1.61" stroke-opacity="0.8"/><line x1="203.5" y1="101.7" x2="210.2" y2="114.8" stroke="#999" stroke-width="1.61" stroke-opacity="0.8"/><line x1="210.2" y1="114.8" x2="224.3" y2="119.0" stroke="#999" stroke-width="1.61" stroke-opacity="0.8"/><line x1="224.3" y1="119.0" x2="237.0" y2="111.8" stroke="#999" stroke-width="1.61" stroke-opacity="0.8"/><line x1="237.0" y1="111.8" x2="240.6" y2="97.6" stroke="#999" stroke-width="1.61" stroke-opacity="0.8"/><line x1="240.6" y1="97.6" x2="232.9" y2="85.1" stroke="#999" stroke-width="1.61" stroke-opacity="0.8"/><line x1="232.9" y1="85.1" x2="219.2" y2="79.9" stroke="#999" stroke-width="1.61" stroke-opacity="0.8"/><line x1="219.2" y1="79.9" x2="211.8" y2="66.9" stroke="#999" stroke-width="1.61" stroke-opacity="0.8"/><line x1="211.8" y1="66.9" x2="204.4" y2="53.8" stroke="#999" stroke-width="1.61" stroke-opacity="0.8"/><line x1="204.4" y1="53.8" x2="197.0" y2="40.8" stroke="#999" stroke-width="1.61" stroke-opacity="0.8"/><line x1="197.0" y1="40.8" x2="189.6" y2="27.7" stroke="#999" stroke-width="1.61" stroke-opacity="0.8"/><line x1="189.6" y1="27.7" x2="196.2" y2="14.6" stroke="#999" stroke-width="1.61" stroke-opacity="0.8"/><line x1="196.2" y1="14.6" x2="181.5" y2="14.2" stroke="#999" stroke-width="1.61" stroke-opacity="0.8"/><line x1="181.5" y1="14.2" x2="173.5" y2="1.5" stroke="#999" stroke-width="1.61" stroke-opacity="0.8"/><line x1="173.5" y1="1.5" x2="165.4" y2="-11.1" stroke="#999" stroke-width="1.61" stroke-opacity="0.8"/><line x1="165.4" y1="-11.1" x2="157.4" y2="-23.8" stroke="#999" stroke-width="1.61" stroke-opacity="0.8"/><line x1="157.4" y1="-23.8" x2="149.3" y2="-36.4" stroke="#999" stroke-width="1.61" stroke-opacity="0.8"/><line x1="149.3" y1="-36.4" x2="141.3" y2="-49.1" stroke="#999" stroke-width="1.61" stroke-opacity="0.8"/><line x1="141.3" y1="-49.1" x2="133.2" y2="-61.7" stroke="#999" stroke-width="1.61" stroke-opacity="0.8"/><line x1="133.2" y1="-61.7" x2="125.2" y2="-74.4" stroke="#999" stroke-width="1.61" stroke-opacity="0.8"/><line x1="125.2" y1="-74.4" x2="138.1" y2="-81.7" stroke="#999" stroke-width="1.61" stroke-opacity="0.8"/><line x1="138.1" y1="-81.7" x2="147.4" y2="-93.0" stroke="#999" stroke-width="1.61" stroke-opacity="0.8"/><line x1="147.4" y1="-93.0" x2="136.4" y2="-102.8" stroke="#999" stroke-width="1.61" stroke-opacity="0.8"/><line x1="136.4" y1="-102.8" x2="142.9" y2="-115.8" stroke="#999" stroke-width="1.61" stroke-opacity="0.8"/><line x1="142.9" y1="-115.8" x2="131.5" y2="-125.4" stroke="#999" stroke-width="1.61" stroke-opacity="0.8"/><line x1="131.5" y1="-125.4" x2="120.7" y2="-136.1" stroke="#999" stroke-width="1.61" stroke-opacity="0.8"/><line x1="120.7" y1="-136.1" x2="107.1" y2="-143.7" stroke="#999" stroke-width="1.61" stroke-opacity="0.8"/><line x1="107.1" y1="-143.7" x2="98.2" y2="-157.4" stroke="#999" stroke-width="1.61" stroke-opacity="0.8"/><text x="66.1" y="-147.0" text-anchor="middle" font-size="7.6" font-family="Tahoma,Geneva,sans-serif" fill="#999">1</text><text x="-19.2" y="-154.3" text-anchor="middle" font-size="7.6" font-family="Tahoma,Geneva,sans-serif" fill="#999">10</text><text x="103.2" y="-48.8" text-anchor="middle" font-size="7.6" font-family="Tahoma,Geneva,sans-serif" fill="#999">20</text><text x="176.1" y="72.5" text-anchor="middle" font-size="7.6" font-family="Tahoma,Geneva,sans-serif" fill="#999">30</text><text x="227.1" y="60.9" text-anchor="middle" font-size="7.6" font-family="Tahoma,Geneva,sans-serif" fill="#999">40</text><text x="156.1" y="-55.9" text-anchor="middle" font-size="7.6" font-family="Tahoma,Geneva,sans-serif" fill="#999">50</text><text x="112.9" y="-164.3" text-anchor="middle" font-size="7.6" font-family="Tahoma,Geneva,sans-serif" fill="#999">60</text><circle cx="82.5" cy="-143.6" r="4.40" fill="lightsalmon" stroke="#ccc" stroke-width="1.61"/><text x="82.5" y="-141.4" text-anchor="middle" font-size="5.5" font-family="Tahoma,Geneva,sans-serif" font-weight="bold" fill="rgb(100,100,100)">C</text><circle cx="76.4" cy="-127.1" r="4.40" fill="lightgreen" stroke="#ccc" stroke-width="1.61"/><text x="76.4" y="-124.9" text-anchor="middle" font-size="5.5" font-family="Tahoma,Geneva,sans-serif" font-weight="bold" fill="rgb(100,100,100)">A</text><circle cx="64.4" cy="-136.1" r="4.40" fill="lightgreen" stroke="#ccc" stroke-width="1.61"/><text x="64.4" y="-133.9" text-anchor="middle" font-size="5.5" font-family="Tahoma,Geneva,sans-serif" font-weight="bold" fill="rgb(100,100,100)">G</text><circle cx="52.4" cy="-145.1" r="4.40" fill="lightgreen" stroke="#ccc" stroke-width="1.61"/><text x="52.4" y="-142.9" text-anchor="middle" font-size="5.5" font-family="Tahoma,Geneva,sans-serif" font-weight="bold" fill="rgb(100,100,100)">U</text><circle cx="40.4" cy="-154.1" r="4.40" fill="lightgreen" stroke="#ccc" stroke-width="1.61"/><text x="40.4" y="-151.9" text-anchor="middle" font-size="5.5" font-family="Tahoma,Geneva,sans-serif" font-weight="bold" fill="rgb(100,100,100)">U</text><circle cx="28.4" cy="-163.1" r="4.40" fill="lightgreen" stroke="#ccc" stroke-width="1.61"/><text x="28.4" y="-160.9" text-anchor="middle" font-size="5.5" font-family="Tahoma,Geneva,sans-serif" font-weight="bold" fill="rgb(100,100,100)">C</text><circle cx="16.4" cy="-172.1" r="4.40" fill="lightgreen" stroke="#ccc" stroke-width="1.61"/><text x="16.4" y="-169.9" text-anchor="middle" font-size="5.5" font-family="Tahoma,Geneva,sans-serif" font-weight="bold" fill="rgb(100,100,100)">G</text><circle cx="7.4" cy="-186.4" r="4.40" fill="lightgreen" stroke="#ccc" stroke-width="1.61"/><text x="7.4" y="-184.2" text-anchor="middle" font-size="5.5" font-family="Tahoma,Geneva,sans-serif" font-weight="bold" fill="rgb(100,100,100)">A</text><circle cx="-8.9" cy="-181.7" r="4.40" fill="lightgreen" stroke="#ccc" stroke-width="1.61"/><text x="-8.9" y="-179.5" text-anchor="middle" font-size="5.5" font-family="Tahoma,Geneva,sans-serif" font-weight="bold" fill="rgb(100,100,100)">U</text><circle cx="-5.2" cy="-167.5" r="4.40" fill="lightblue" stroke="#ccc" stroke-width="1.61"/><text x="-5.2" y="-165.3" text-anchor="middle" font-size="5.5" font-family="Tahoma,Geneva,sans-serif" font-weight="bold" fill="rgb(100,100,100)">C</text><circle cx="7.4" cy="-160.1" r="4.40" fill="lightgreen" stroke="#ccc" stroke-width="1.61"/><text x="7.4" y="-157.9" text-anchor="middle" font-size="5.5" font-family="Tahoma,Geneva,sans-serif" font-weight="bold" fill="rgb(100,100,100)">C</text><circle cx="19.4" cy="-151.1" r="4.40" fill="lightgreen" stroke="#ccc" stroke-width="1.61"/><text x="19.4" y="-148.9" text-anchor="middle" font-size="5.5" font-family="Tahoma,Geneva,sans-serif" font-weight="bold" fill="rgb(100,100,100)">G</text><circle cx="31.4" cy="-142.1" r="4.40" fill="lightgreen" stroke="#ccc" stroke-width="1.61"/><text x="31.4" y="-139.9" text-anchor="middle" font-size="5.5" font-family="Tahoma,Geneva,sans-serif" font-weight="bold" fill="rgb(100,100,100)">A</text><circle cx="43.4" cy="-133.1" r="4.40" fill="lightgreen" stroke="#ccc" stroke-width="1.61"/><text x="43.4" y="-130.9" text-anchor="middle" font-size="5.5" font-family="Tahoma,Geneva,sans-serif" font-weight="bold" fill="rgb(100,100,100)">A</text><circle cx="55.4" cy="-124.1" r="4.40" fill="lightgreen" stroke="#ccc" stroke-width="1.61"/><text x="55.4" y="-121.9" text-anchor="middle" font-size="5.5" font-family="Tahoma,Geneva,sans-serif" font-weight="bold" fill="rgb(100,100,100)">C</text><circle cx="67.4" cy="-115.1" r="4.40" fill="lightgreen" stroke="#ccc" stroke-width="1.61"/><text x="67.4" y="-112.9" text-anchor="middle" font-size="5.5" font-family="Tahoma,Geneva,sans-serif" font-weight="bold" fill="rgb(100,100,100)">U</text><circle cx="64.5" cy="-94.4" r="4.40" fill="lightgreen" stroke="#ccc" stroke-width="1.61"/><text x="64.5" y="-92.2" text-anchor="middle" font-size="5.5" font-family="Tahoma,Geneva,sans-serif" font-weight="bold" fill="rgb(100,100,100)">A</text><circle cx="73.7" cy="-75.6" r="4.40" fill="lightgreen" stroke="#ccc" stroke-width="1.61"/><text x="73.7" y="-73.4" text-anchor="middle" font-size="5.5" font-family="Tahoma,Geneva,sans-serif" font-weight="bold" fill="rgb(100,100,100)">U</text><circle cx="93.1" cy="-71.0" r="4.40" fill="lightsalmon" stroke="#ccc" stroke-width="1.61"/><text x="93.1" y="-68.8" text-anchor="middle" font-size="5.5" font-family="Tahoma,Geneva,sans-serif" font-weight="bold" fill="rgb(100,100,100)">A</text><circle cx="112.5" cy="-66.3" r="4.40" fill="lightgreen" stroke="#ccc" stroke-width="1.61"/><text x="112.5" y="-64.2" text-anchor="middle" font-size="5.5" font-family="Tahoma,Geneva,sans-serif" font-weight="bold" fill="rgb(100,100,100)">U</text><circle cx="120.6" cy="-53.7" r="4.40" fill="lightgreen" stroke="#ccc" stroke-width="1.61"/><text x="120.6" y="-51.5" text-anchor="middle" font-size="5.5" font-family="Tahoma,Geneva,sans-serif" font-weight="bold" fill="rgb(100,100,100)">C</text><circle cx="128.6" cy="-41.0" r="4.40" fill="lightgreen" stroke="#ccc" stroke-width="1.61"/><text x="128.6" y="-38.8" text-anchor="middle" font-size="5.5" font-family="Tahoma,Geneva,sans-serif" font-weight="bold" fill="rgb(100,100,100)">G</text><circle cx="136.7" cy="-28.4" r="4.40" fill="lightgreen" stroke="#ccc" stroke-width="1.61"/><text x="136.7" y="-26.2" text-anchor="middle" font-size="5.5" font-family="Tahoma,Geneva,sans-serif" font-weight="bold" fill="rgb(100,100,100)">U</text><circle cx="144.7" cy="-15.7" r="4.40" fill="lightgreen" stroke="#ccc" stroke-width="1.61"/><text x="144.7" y="-13.5" text-anchor="middle" font-size="5.5" font-family="Tahoma,Geneva,sans-serif" font-weight="bold" fill="rgb(100,100,100)">G</text><circle cx="152.8" cy="-3.1" r="4.40" fill="lightgreen" stroke="#ccc" stroke-width="1.61"/><text x="152.8" y="-0.9" text-anchor="middle" font-size="5.5" font-family="Tahoma,Geneva,sans-serif" font-weight="bold" fill="rgb(100,100,100)">G</text><circle cx="160.8" cy="9.6" r="4.40" fill="lightgreen" stroke="#ccc" stroke-width="1.61"/><text x="160.8" y="11.8" text-anchor="middle" font-size="5.5" font-family="Tahoma,Geneva,sans-serif" font-weight="bold" fill="rgb(100,100,100)">C</text><circle cx="168.9" cy="22.2" r="4.40" fill="lightgreen" stroke="#ccc" stroke-width="1.61"/><text x="168.9" y="24.4" text-anchor="middle" font-size="5.5" font-family="Tahoma,Geneva,sans-serif" font-weight="bold" fill="rgb(100,100,100)">C</text><circle cx="176.6" cy="35.1" r="4.40" fill="lightgreen" stroke="#ccc" stroke-width="1.61"/><text x="176.6" y="37.3" text-anchor="middle" font-size="5.5" font-family="Tahoma,Geneva,sans-serif" font-weight="bold" fill="rgb(100,100,100)">G</text><circle cx="184.0" cy="48.2" r="4.40" fill="lightgreen" stroke="#ccc" stroke-width="1.61"/><text x="184.0" y="50.4" text-anchor="middle" font-size="5.5" font-family="Tahoma,Geneva,sans-serif" font-weight="bold" fill="rgb(100,100,100)">G</text><circle cx="191.4" cy="61.2" r="4.40" fill="lightgreen" stroke="#ccc" stroke-width="1.61"/><text x="191.4" y="63.4" text-anchor="middle" font-size="5.5" font-family="Tahoma,Geneva,sans-serif" font-weight="bold" fill="rgb(100,100,100)">G</text><circle cx="198.8" cy="74.3" r="4.40" fill="lightgreen" stroke="#ccc" stroke-width="1.61"/><text x="198.8" y="76.5" text-anchor="middle" font-size="5.5" font-family="Tahoma,Geneva,sans-serif" font-weight="bold" fill="rgb(100,100,100)">U</text><circle cx="206.1" cy="87.3" r="4.40" fill="lightgreen" stroke="#ccc" stroke-width="1.61"/><text x="206.1" y="89.5" text-anchor="middle" font-size="5.5" font-family="Tahoma,Geneva,sans-serif" font-weight="bold" fill="rgb(100,100,100)">A</text><circle cx="203.5" cy="101.7" r="4.40" fill="lightblue" stroke="#ccc" stroke-width="1.61"/><text x="203.5" y="103.9" text-anchor="middle" font-size="5.5" font-family="Tahoma,Geneva,sans-serif" font-weight="bold" fill="rgb(100,100,100)">U</text><circle cx="210.2" cy="114.8" r="4.40" fill="lightblue" stroke="#ccc" stroke-width="1.61"/><text x="210.2" y="117.0" text-anchor="middle" font-size="5.5" font-family="Tahoma,Geneva,sans-serif" font-weight="bold" fill="rgb(100,100,100)">U</text><circle cx="224.3" cy="119.0" r="4.40" fill="lightblue" stroke="#ccc" stroke-width="1.61"/><text x="224.3" y="121.2" text-anchor="middle" font-size="5.5" font-family="Tahoma,Geneva,sans-serif" font-weight="bold" fill="rgb(100,100,100)">G</text><circle cx="237.0" cy="111.8" r="4.40" fill="lightblue" stroke="#ccc" stroke-width="1.61"/><text x="237.0" y="114.0" text-anchor="middle" font-size="5.5" font-family="Tahoma,Geneva,sans-serif" font-weight="bold" fill="rgb(100,100,100)">U</text><circle cx="240.6" cy="97.6" r="4.40" fill="lightblue" stroke="#ccc" stroke-width="1.61"/><text x="240.6" y="99.8" text-anchor="middle" font-size="5.5" font-family="Tahoma,Geneva,sans-serif" font-weight="bold" fill="rgb(100,100,100)">C</text><circle cx="232.9" cy="85.1" r="4.40" fill="lightblue" stroke="#ccc" stroke-width="1.61"/><text x="232.9" y="87.3" text-anchor="middle" font-size="5.5" font-family="Tahoma,Geneva,sans-serif" font-weight="bold" fill="rgb(100,100,100)">U</text><circle cx="219.2" cy="79.9" r="4.40" fill="lightgreen" stroke="#ccc" stroke-width="1.61"/><text x="219.2" y="82.1" text-anchor="middle" font-size="5.5" font-family="Tahoma,Geneva,sans-serif" font-weight="bold" fill="rgb(100,100,100)">U</text><circle cx="211.8" cy="66.9" r="4.40" fill="lightgreen" stroke="#ccc" stroke-width="1.61"/><text x="211.8" y="69.1" text-anchor="middle" font-size="5.5" font-family="Tahoma,Geneva,sans-serif" font-weight="bold" fill="rgb(100,100,100)">A</text><circle cx="204.4" cy="53.8" r="4.40" fill="lightgreen" stroke="#ccc" stroke-width="1.61"/><text x="204.4" y="56.0" text-anchor="middle" font-size="5.5" font-family="Tahoma,Geneva,sans-serif" font-weight="bold" fill="rgb(100,100,100)">C</text><circle cx="197.0" cy="40.8" r="4.40" fill="lightgreen" stroke="#ccc" stroke-width="1.61"/><text x="197.0" y="43.0" text-anchor="middle" font-size="5.5" font-family="Tahoma,Geneva,sans-serif" font-weight="bold" fill="rgb(100,100,100)">C</text><circle cx="189.6" cy="27.7" r="4.40" fill="lightgreen" stroke="#ccc" stroke-width="1.61"/><text x="189.6" y="29.9" text-anchor="middle" font-size="5.5" font-family="Tahoma,Geneva,sans-serif" font-weight="bold" fill="rgb(100,100,100)">U</text><circle cx="196.2" cy="14.6" r="4.40" fill="#dbdb8d" stroke="#ccc" stroke-width="1.61"/><text x="196.2" y="16.8" text-anchor="middle" font-size="5.5" font-family="Tahoma,Geneva,sans-serif" font-weight="bold" fill="rgb(100,100,100)">G</text><circle cx="181.5" cy="14.2" r="4.40" fill="lightgreen" stroke="#ccc" stroke-width="1.61"/><text x="181.5" y="16.4" text-anchor="middle" font-size="5.5" font-family="Tahoma,Geneva,sans-serif" font-weight="bold" fill="rgb(100,100,100)">G</text><circle cx="173.5" cy="1.5" r="4.40" fill="lightgreen" stroke="#ccc" stroke-width="1.61"/><text x="173.5" y="3.7" text-anchor="middle" font-size="5.5" font-family="Tahoma,Geneva,sans-serif" font-weight="bold" fill="rgb(100,100,100)">G</text><circle cx="165.4" cy="-11.1" r="4.40" fill="lightgreen" stroke="#ccc" stroke-width="1.61"/><text x="165.4" y="-8.9" text-anchor="middle" font-size="5.5" font-family="Tahoma,Geneva,sans-serif" font-weight="bold" fill="rgb(100,100,100)">C</text><circle cx="157.4" cy="-23.8" r="4.40" fill="lightgreen" stroke="#ccc" stroke-width="1.61"/><text x="157.4" y="-21.6" text-anchor="middle" font-size="5.5" font-family="Tahoma,Geneva,sans-serif" font-weight="bold" fill="rgb(100,100,100)">C</text><circle cx="149.3" cy="-36.4" r="4.40" fill="lightgreen" stroke="#ccc" stroke-width="1.61"/><text x="149.3" y="-34.2" text-anchor="middle" font-size="5.5" font-family="Tahoma,Geneva,sans-serif" font-weight="bold" fill="rgb(100,100,100)">A</text><circle cx="141.3" cy="-49.1" r="4.40" fill="lightgreen" stroke="#ccc" stroke-width="1.61"/><text x="141.3" y="-46.9" text-anchor="middle" font-size="5.5" font-family="Tahoma,Geneva,sans-serif" font-weight="bold" fill="rgb(100,100,100)">U</text><circle cx="133.2" cy="-61.7" r="4.40" fill="lightgreen" stroke="#ccc" stroke-width="1.61"/><text x="133.2" y="-59.5" text-anchor="middle" font-size="5.5" font-family="Tahoma,Geneva,sans-serif" font-weight="bold" fill="rgb(100,100,100)">G</text><circle cx="125.2" cy="-74.4" r="4.40" fill="lightgreen" stroke="#ccc" stroke-width="1.61"/><text x="125.2" y="-72.2" text-anchor="middle" font-size="5.5" font-family="Tahoma,Geneva,sans-serif" font-weight="bold" fill="rgb(100,100,100)">A</text><circle cx="138.1" cy="-81.7" r="4.40" fill="lightsalmon" stroke="#ccc" stroke-width="1.61"/><text x="138.1" y="-79.5" text-anchor="middle" font-size="5.5" font-family="Tahoma,Geneva,sans-serif" font-weight="bold" fill="rgb(100,100,100)">A</text><circle cx="147.4" cy="-93.0" r="4.40" fill="lightsalmon" stroke="#ccc" stroke-width="1.61"/><text x="147.4" y="-90.8" text-anchor="middle" font-size="5.5" font-family="Tahoma,Geneva,sans-serif" font-weight="bold" fill="rgb(100,100,100)">U</text><circle cx="136.4" cy="-102.8" r="4.40" fill="lightsalmon" stroke="#ccc" stroke-width="1.61"/><text x="136.4" y="-100.6" text-anchor="middle" font-size="5.5" font-family="Tahoma,Geneva,sans-serif" font-weight="bold" fill="rgb(100,100,100)">A</text><circle cx="142.9" cy="-115.8" r="4.40" fill="lightsalmon" stroke="#ccc" stroke-width="1.61"/><text x="142.9" y="-113.6" text-anchor="middle" font-size="5.5" font-family="Tahoma,Geneva,sans-serif" font-weight="bold" fill="rgb(100,100,100)">U</text><circle cx="131.5" cy="-125.4" r="4.40" fill="lightsalmon" stroke="#ccc" stroke-width="1.61"/><text x="131.5" y="-123.2" text-anchor="middle" font-size="5.5" font-family="Tahoma,Geneva,sans-serif" font-weight="bold" fill="rgb(100,100,100)">U</text><circle cx="120.7" cy="-136.1" r="4.40" fill="lightsalmon" stroke="#ccc" stroke-width="1.61"/><text x="120.7" y="-133.9" text-anchor="middle" font-size="5.5" font-family="Tahoma,Geneva,sans-serif" font-weight="bold" fill="rgb(100,100,100)">A</text><circle cx="107.1" cy="-143.7" r="4.40" fill="lightsalmon" stroke="#ccc" stroke-width="1.61"/><text x="107.1" y="-141.5" text-anchor="middle" font-size="5.5" font-family="Tahoma,Geneva,sans-serif" font-weight="bold" fill="rgb(100,100,100)">A</text><circle cx="98.2" cy="-157.4" r="4.40" fill="lightsalmon" stroke="#ccc" stroke-width="1.61"/><text x="98.2" y="-155.2" text-anchor="middle" font-size="5.5" font-family="Tahoma,Geneva,sans-serif" font-weight="bold" fill="rgb(100,100,100)">A</text></svg>