<svg xmlns="http://www.w3.org/2000/svg" viewBox="0 0 760 640" width="760" height="640"><style>svg {
  display: block;
  min-width: 100%;
  width: 100%;
  min-height: 100%;
}

circle.node {
  stroke: #ccc;
  stroke-width: 1px;
  opacity: 1;
  fill: white;
}

circle.node.label {
    stroke: transparent;
    stroke-width: 0;
    fill: white;
}

circle.outline_node {
    stroke-width: 1px;
    fill: red;
}

circle.protein {
    fill: gray;
    fill-opacity: 0.5;
    stroke-width: 4;
}

circle.hidden_outline {
    stroke-width: 0px;
}


line.link {
  stroke: #999;
  stroke-opacity: 0.8;
  stroke-width: 2;
}

line.basepair {
  stroke: red;
}

line.intermolecule {
  stroke: blue;
}

line.chain_chain {
  stroke-dasharray: 3,3;
}

line.fake {
  stroke: green;
}

.transparent {
    fill: transparent;
    stroke-width: 0;
    stroke-opacity: 0;
    opacity: 0;
    visibility: hidden;
}

.drag_line {
  stroke: #999;
  stroke-width: 2;
  pointer-events: none;
}

.drag_line_hidden {
  stroke: #999;
  stroke-width: 0;
  pointer-events: none;
}

.d3-tip {
    line-height: 1;
    font-weight: bold;
    padding: 6px;
    background: rgba(0, 0, 0, 0.6);
    color: #fff;
    border-radius: 4px;
    pointer-events: none;
          }

text.node-label {
    font-weight: bold;
    font-family: Tahoma, Geneva, sans-serif;
    color: rgb(100,100,100);
    pointer-events: none;
}

text {
    pointer-events: none;
}

g.gnode {

}

circle.outline_node.selected {
    visibility: visible;
}

circle.outline_node {
    visibility: hidden;
}

.brush .extent {
  fill-opacity: .1;
  stroke: #fff;
  shape-rendering: crispEdges;
}

.noselect {
    -webkit-touch-callout: none;
    -webkit-user-select: none;
    -khtml-user-select: none;
    -moz-user-select: none;
    -ms-user-select: none;
    user-select: none;
}

svg {
  display: block;
  min-width: 100%;
  width: 100%;
  min-height: 100%;
}

circle.node {
  stroke: #ccc;
  stroke-width: 1px;
  opacity: 1;
  fill: white;
}

circle.node.label {
    stroke: transparent;
    stroke-width: 0;
    fill: white;
}

circle.outline_node {
    stroke-width: 1px;
    fill: red;
}

circle.protein {
    fill: gray;
    fill-opacity: 0.5;
    stroke-width: 4;
}

circle.hidden_outline {
    stroke-width: 0px;
}


line.link {
  stroke: #999;
  stroke-opacity: 0.8;
  stroke-width: 2;
}

line.basepair {
  stroke: red;
}

line.intermolecule {
  stroke: blue;
}

line.chain_chain {
  stroke-dasharray: 3,3;
}

line.fake {
  stroke: green;
}

.transparent {
    fill: transparent;
    stroke-width: 0;
    stroke-opacity: 0;
    opacity: 0;
    visibility: hidden;
}

.drag_line {
  stroke: #999;
  stroke-width: 2;
  pointer-events: none;
}

.drag_line_hidden {
  stroke: #999;
  stroke-width: 0;
  pointer-events: none;
}

.d3-tip {
    line-height: 1;
    font-weight: bold;
    padding: 6px;
    background: rgba(0, 0, 0, 0.6);
    color: #fff;
    border-radius: 4px;
    pointer-events: none;
          }

text.node-label {
    font-weight: bold;
    font-family: Tahoma, Geneva, sans-serif;
    color: rgb(100,100,100);
    pointer-events: none;
}

text {
    pointer-events: none;
}

g.gnode {

}

circle.outline_node.selected {
    visibility: visible;
}

circle.outline_node {
    visibility: hidden;
}

.brush .extent {
  fill-opacity: .1;
  stroke: #fff;
  shape-rendering: crispEdges;
}

.noselect {
    -webkit-touch-callout: none;
    -webkit-user-select: none;
    -khtml-user-select: none;
    -moz-user-select: none;
    -ms-user-select: none;
    user-select: none;
}
/*# sourceURL=/Users/yumanakamura/ipy_sandbox/sandbox/claude_sandbox/mrna-transformer-worktrees/feat-issue57-switch-derna-knotty/scripts/eval/prerender/forna_vendor/fornac.css*/</style><style></style><g><g class="brush" style="pointer-events: all; -webkit-tap-highlight-color: rgba(0, 0, 0, 0);"><rect class="background" x="0" width="760" y="0" height="640" style="visibility: hidden; cursor: auto;"></rect><rect class="extent" x="0" width="0" y="0" height="0" style="cursor: move;"></rect><g class="resize n" transform="translate(0,0)" style="cursor: ns-resize; display: none;"><rect y="-3" width="0" height="6" style="visibility: hidden;"></rect></g><g class="resize e" transform="translate(0,0)" style="cursor: ew-resize; display: none;"><rect x="-3" width="6" height="0" style="visibility: hidden;"></rect></g><g class="resize s" transform="translate(0,0)" style="cursor: ns-resize; display: none;"><rect y="-3" width="0" height="6" style="visibility: hidden;"></rect></g><g class="resize w" transform="translate(0,0)" style="cursor: ew-resize; display: none;"><rect x="-3" width="6" height="0" style="visibility: hidden;"></rect></g><g class="resize nw" transform="translate(0,0)" style="cursor: nwse-resize; display: none;"><rect x="-3" y="-3" width="6" height="6" style="visibility: hidden;"></rect></g><g class="resize ne" transform="translate(0,0)" style="cursor: nesw-resize; display: none;"><rect x="-3" y="-3" width="6" height="6" style="visibility: hidden;"></rect></g><g class="resize se" transform="translate(0,0)" style="cursor: nwse-resize; display: none;"><rect x="-3" y="-3" width="6" height="6" style="visibility: hidden;"></rect></g><g class="resize sw" transform="translate(0,0)" style="cursor: nesw-resize; display: none;"><rect x="-3" y="-3" width="6" height="6" style="visibility: hidden;"></rect></g></g><g transform="translate(245.59,227.57) scale(1.48)"><g><line class="link basepair" x1="148.20" y1="203.04" x2="162.27" y2="198.34"></line><line class="link basepair" x1="143.58" y1="187.44" x2="157.88" y2="183.97"></line><line class="link backbone" x1="148.20" y1="203.04" x2="143.58" y2="187.44"></line><line class="link basepair" x1="140.65" y1="170.86" x2="155.17" y2="169.30"></line><line class="link backbone" x1="143.58" y1="187.44" x2="140.65" y2="170.86"></line><line class="link basepair" x1="140.16" y1="153.67" x2="154.65" y2="154.40"></line><line class="link backbone" x1="140.65" y1="170.86" x2="140.16" y2="153.67"></line><line class="link basepair" x1="142.32" y1="136.51" x2="156.62" y2="139.69"></line><line class="link backbone" x1="140.16" y1="153.67" x2="142.32" y2="136.51"></line><line class="link backbone" x1="142.32" y1="136.51" x2="138.55" y2="121.19"></line><line class="link basepair" x1="149.91" y1="109.81" x2="163.69" y2="115.23"></line><line class="link backbone" x1="138.55" y1="121.19" x2="149.91" y2="109.81"></line><line class="link basepair" x1="142.94" y1="94.26" x2="147.68" y2="80.42"></line><line class="link backbone" x1="149.91" y1="109.81" x2="142.94" y2="94.26"></line><line class="link basepair" x1="126.83" y1="85.67" x2="134.63" y2="73.82"></line><line class="link backbone" x1="142.94" y1="94.26" x2="126.83" y2="85.67"></line><line class="link basepair" x1="112.91" y1="74.63" x2="122.66" y2="64.18"></line><line class="link backbone" x1="126.83" y1="85.67" x2="112.91" y2="74.63"></line><line class="link basepair" x1="100.98" y1="61.79" x2="112.19" y2="52.86"></line><line class="link backbone" x1="112.91" y1="74.63" x2="100.98" y2="61.79"></line><line class="link basepair" x1="91.15" y1="47.28" x2="103.74" y2="40.25"></line><line class="link backbone" x1="100.98" y1="61.79" x2="91.15" y2="47.28"></line><line class="link basepair" x1="83.99" y1="31.45" x2="97.68" y2="26.64"></line><line class="link backbone" x1="91.15" y1="47.28" x2="83.99" y2="31.45"></line><line class="link basepair" x1="79.70" y1="14.61" x2="94.02" y2="12.25"></line><line class="link backbone" x1="83.99" y1="31.45" x2="79.70" y2="14.61"></line><line class="link basepair" x1="78.21" y1="-2.62" x2="92.97" y2="-2.37"></line><line class="link backbone" x1="79.70" y1="14.61" x2="78.21" y2="-2.62"></line><line class="link basepair" x1="71.05" y1="-17.62" x2="79.94" y2="-29.38"></line><line class="link backbone" x1="78.21" y1="-2.62" x2="71.05" y2="-17.62"></line><line class="link basepair" x1="58.41" y1="-29.00" x2="68.50" y2="-39.35"></line><line class="link backbone" x1="71.05" y1="-17.62" x2="58.41" y2="-29.00"></line><line class="link basepair" x1="46.90" y1="-41.13" x2="57.69" y2="-50.79"></line><line class="link backbone" x1="58.41" y1="-29.00" x2="46.90" y2="-41.13"></line><line class="link basepair" x1="36.18" y1="-53.67" x2="47.44" y2="-62.85"></line><line class="link backbone" x1="46.90" y1="-41.13" x2="36.18" y2="-53.67"></line><line class="link basepair" x1="26.09" y1="-66.56" x2="37.66" y2="-75.35"></line><line class="link backbone" x1="36.18" y1="-53.67" x2="26.09" y2="-66.56"></line><line class="link basepair" x1="16.40" y1="-79.38" x2="28.43" y2="-88.13"></line><line class="link backbone" x1="26.09" y1="-66.56" x2="16.40" y2="-79.38"></line><line class="link backbone" x1="16.40" y1="-79.38" x2="1.23" y2="-82.11"></line><line class="link backbone" x1="1.23" y1="-82.11" x2="-7.50" y2="-94.27"></line><line class="link backbone" x1="-7.50" y1="-94.27" x2="-4.98" y2="-109.12"></line><line class="link backbone" x1="-4.98" y1="-109.12" x2="7.16" y2="-117.79"></line><line class="link backbone" x1="7.16" y1="-117.79" x2="22.02" y2="-115.49"></line><line class="link backbone" x1="22.02" y1="-115.49" x2="30.77" y2="-103.31"></line><line class="link basepair" x1="28.43" y1="-88.13" x2="16.40" y2="-79.38"></line><line class="link backbone" x1="30.77" y1="-103.31" x2="28.43" y2="-88.13"></line><line class="link basepair" x1="37.66" y1="-75.35" x2="26.09" y2="-66.56"></line><line class="link backbone" x1="28.43" y1="-88.13" x2="37.66" y2="-75.35"></line><line class="link basepair" x1="47.44" y1="-62.85" x2="36.18" y2="-53.67"></line><line class="link backbone" x1="37.66" y1="-75.35" x2="47.44" y2="-62.85"></line><line class="link basepair" x1="57.69" y1="-50.79" x2="46.90" y2="-41.13"></line><line class="link backbone" x1="47.44" y1="-62.85" x2="57.69" y2="-50.79"></line><line class="link basepair" x1="68.50" y1="-39.35" x2="58.41" y2="-29.00"></line><line class="link backbone" x1="57.69" y1="-50.79" x2="68.50" y2="-39.35"></line><line class="link basepair" x1="79.94" y1="-29.38" x2="71.05" y2="-17.62"></line><line class="link backbone" x1="68.50" y1="-39.35" x2="79.94" y2="-29.38"></line><line class="link backbone" x1="79.94" y1="-29.38" x2="94.91" y2="-28.04"></line><line class="link backbone" x1="94.91" y1="-28.04" x2="101.28" y2="-14.83"></line><line class="link basepair" x1="92.97" y1="-2.37" x2="78.21" y2="-2.62"></line><line class="link backbone" x1="101.28" y1="-14.83" x2="92.97" y2="-2.37"></line><line class="link basepair" x1="94.02" y1="12.25" x2="79.70" y2="14.61"></line><line class="link backbone" x1="92.97" y1="-2.37" x2="94.02" y2="12.25"></line><line class="link basepair" x1="97.68" y1="26.64" x2="83.99" y2="31.45"></line><line class="link backbone" x1="94.02" y1="12.25" x2="97.68" y2="26.64"></line><line class="link basepair" x1="103.74" y1="40.25" x2="91.15" y2="47.28"></line><line class="link backbone" x1="97.68" y1="26.64" x2="103.74" y2="40.25"></line><line class="link basepair" x1="112.19" y1="52.86" x2="100.98" y2="61.79"></line><line class="link backbone" x1="103.74" y1="40.25" x2="112.19" y2="52.86"></line><line class="link basepair" x1="122.66" y1="64.18" x2="112.91" y2="74.63"></line><line class="link backbone" x1="112.19" y1="52.86" x2="122.66" y2="64.18"></line><line class="link basepair" x1="134.63" y1="73.82" x2="126.83" y2="85.67"></line><line class="link backbone" x1="122.66" y1="64.18" x2="134.63" y2="73.82"></line><line class="link basepair" x1="147.68" y1="80.42" x2="142.94" y2="94.26"></line><line class="link backbone" x1="134.63" y1="73.82" x2="147.68" y2="80.42"></line><line class="link backbone" x1="147.68" y1="80.42" x2="158.61" y2="69.98"></line><line class="link backbone" x1="158.61" y1="69.98" x2="173.58" y2="67.83"></line><line class="link backbone" x1="173.58" y1="67.83" x2="185.92" y2="76.26"></line><line class="link backbone" x1="185.92" y1="76.26" x2="191.90" y2="89.49"></line><line class="link backbone" x1="191.90" y1="89.49" x2="190.00" y2="104.18"></line><line class="link backbone" x1="190.00" y1="104.18" x2="178.71" y2="114.40"></line><line class="link basepair" x1="163.69" y1="115.23" x2="149.91" y2="109.81"></line><line class="link backbone" x1="178.71" y1="114.40" x2="163.69" y2="115.23"></line><line class="link backbone" x1="163.69" y1="115.23" x2="167.47" y2="129.43"></line><line class="link basepair" x1="156.62" y1="139.69" x2="142.32" y2="136.51"></line><line class="link backbone" x1="167.47" y1="129.43" x2="156.62" y2="139.69"></line><line class="link basepair" x1="154.65" y1="154.40" x2="140.16" y2="153.67"></line><line class="link backbone" x1="156.62" y1="139.69" x2="154.65" y2="154.40"></line><line class="link basepair" x1="155.17" y1="169.30" x2="140.65" y2="170.86"></line><line class="link backbone" x1="154.65" y1="154.40" x2="155.17" y2="169.30"></line><line class="link basepair" x1="157.88" y1="183.97" x2="143.58" y2="187.44"></line><line class="link backbone" x1="155.17" y1="169.30" x2="157.88" y2="183.97"></line><line class="link basepair" x1="162.27" y1="198.34" x2="148.20" y2="203.04"></line><line class="link backbone" x1="157.88" y1="183.97" x2="162.27" y2="198.34"></line><line class="link backbone" x1="162.27" y1="198.34" x2="176.16" y2="204.28"></line><line class="link backbone" x1="176.16" y1="204.28" x2="181.71" y2="218.16"></line><line class="link backbone" x1="181.71" y1="218.16" x2="175.58" y2="231.70"></line><line class="link backbone" x1="175.58" y1="231.70" x2="162.11" y2="237.75"></line><line class="link label_link" x1="112.91" y1="74.63" x2="100.04" y2="83.61"></line><line class="link label_link" x1="26.09" y1="-66.56" x2="13.01" y2="-58.10"></line><line class="link label_link" x1="47.44" y1="-62.85" x2="59.01" y2="-73.28"></line><line class="link label_link" x1="112.19" y1="52.86" x2="121.65" y2="40.51"></line><line class="link label_link" x1="163.69" y1="115.23" x2="173.76" y2="103.52"></line><line class="link label_link" x1="162.11" y1="237.75" x2="159.19" y2="252.87"></line><line class="link fake transparent" x1="142.94" y1="94.26" x2="137.61" y2="84.30"></line><line class="link fake transparent" x1="142.94" y1="94.26" x2="134.63" y2="73.82"></line><line class="link fake transparent" x1="126.83" y1="85.67" x2="137.61" y2="84.30"></line><line class="link fake transparent" x1="134.63" y1="73.82" x2="137.61" y2="84.30"></line><line class="link fake transparent" x1="147.68" y1="80.42" x2="137.61" y2="84.30"></line><line class="link fake transparent" x1="126.83" y1="85.67" x2="123.83" y2="75.07"></line><line class="link fake transparent" x1="112.91" y1="74.63" x2="123.83" y2="75.07"></line><line class="link fake transparent" x1="122.66" y1="64.18" x2="123.83" y2="75.07"></line><line class="link fake transparent" x1="134.63" y1="73.82" x2="123.83" y2="75.07"></line><line class="link fake transparent" x1="112.91" y1="74.63" x2="111.71" y2="63.75"></line><line class="link fake transparent" x1="100.98" y1="61.79" x2="111.71" y2="63.75"></line><line class="link fake transparent" x1="112.19" y1="52.86" x2="111.71" y2="63.75"></line><line class="link fake transparent" x1="122.66" y1="64.18" x2="111.71" y2="63.75"></line><line class="link fake transparent" x1="100.98" y1="61.79" x2="101.39" y2="50.89"></line><line class="link fake transparent" x1="91.15" y1="47.28" x2="101.39" y2="50.89"></line><line class="link fake transparent" x1="103.74" y1="40.25" x2="101.39" y2="50.89"></line><line class="link fake transparent" x1="112.19" y1="52.86" x2="101.39" y2="50.89"></line><line class="link fake transparent" x1="91.15" y1="47.28" x2="93.43" y2="36.67"></line><line class="link fake transparent" x1="83.99" y1="31.45" x2="93.43" y2="36.67"></line><line class="link fake transparent" x1="97.68" y1="26.64" x2="93.43" y2="36.67"></line><line class="link fake transparent" x1="103.74" y1="40.25" x2="93.43" y2="36.67"></line><line class="link fake transparent" x1="83.99" y1="31.45" x2="88.16" y2="21.43"></line><line class="link fake transparent" x1="79.70" y1="14.61" x2="88.16" y2="21.43"></line><line class="link fake transparent" x1="94.02" y1="12.25" x2="88.16" y2="21.43"></line><line class="link fake transparent" x1="97.68" y1="26.64" x2="88.16" y2="21.43"></line><line class="link fake transparent" x1="79.70" y1="14.61" x2="85.61" y2="5.58"></line><line class="link fake transparent" x1="78.21" y1="-2.62" x2="85.61" y2="5.58"></line><line class="link fake transparent" x1="92.97" y1="-2.37" x2="85.61" y2="5.58"></line><line class="link fake transparent" x1="94.02" y1="12.25" x2="85.61" y2="5.58"></line><line class="link fake transparent" x1="71.05" y1="-17.62" x2="69.20" y2="-28.51"></line><line class="link fake transparent" x1="58.41" y1="-29.00" x2="69.20" y2="-28.51"></line><line class="link fake transparent" x1="68.50" y1="-39.35" x2="69.20" y2="-28.51"></line><line class="link fake transparent" x1="79.94" y1="-29.38" x2="69.20" y2="-28.51"></line><line class="link fake transparent" x1="58.41" y1="-29.00" x2="57.68" y2="-39.89"></line><line class="link fake transparent" x1="46.90" y1="-41.13" x2="57.68" y2="-39.89"></line><line class="link fake transparent" x1="57.69" y1="-50.79" x2="57.68" y2="-39.89"></line><line class="link fake transparent" x1="68.50" y1="-39.35" x2="57.68" y2="-39.89"></line><line class="link fake transparent" x1="46.90" y1="-41.13" x2="46.91" y2="-51.97"></line><line class="link fake transparent" x1="36.18" y1="-53.67" x2="46.91" y2="-51.97"></line><line class="link fake transparent" x1="47.44" y1="-62.85" x2="46.91" y2="-51.97"></line><line class="link fake transparent" x1="57.69" y1="-50.79" x2="46.91" y2="-51.97"></line><line class="link fake transparent" x1="36.18" y1="-53.67" x2="36.71" y2="-64.53"></line><line class="link fake transparent" x1="26.09" y1="-66.56" x2="36.71" y2="-64.53"></line><line class="link fake transparent" x1="37.66" y1="-75.35" x2="36.71" y2="-64.53"></line><line class="link fake transparent" x1="47.44" y1="-62.85" x2="36.71" y2="-64.53"></line><line class="link fake transparent" x1="26.09" y1="-66.56" x2="27.04" y2="-77.36"></line><line class="link fake transparent" x1="16.40" y1="-79.38" x2="27.04" y2="-77.36"></line><line class="link fake transparent" x1="28.43" y1="-88.13" x2="27.04" y2="-77.36"></line><line class="link fake transparent" x1="37.66" y1="-75.35" x2="27.04" y2="-77.36"></line><line class="link fake transparent" x1="148.20" y1="203.04" x2="152.63" y2="193.39"></line><line class="link fake transparent" x1="143.58" y1="187.44" x2="152.63" y2="193.39"></line><line class="link fake transparent" x1="157.88" y1="183.97" x2="152.63" y2="193.39"></line><line class="link fake transparent" x1="162.27" y1="198.34" x2="152.63" y2="193.39"></line><line class="link fake transparent" x1="143.58" y1="187.44" x2="148.77" y2="178.05"></line><line class="link fake transparent" x1="140.65" y1="170.86" x2="148.77" y2="178.05"></line><line class="link fake transparent" x1="155.17" y1="169.30" x2="148.77" y2="178.05"></line><line class="link fake transparent" x1="157.88" y1="183.97" x2="148.77" y2="178.05"></line><line class="link fake transparent" x1="140.65" y1="170.86" x2="147.00" y2="162.13"></line><line class="link fake transparent" x1="140.16" y1="153.67" x2="147.00" y2="162.13"></line><line class="link fake transparent" x1="154.65" y1="154.40" x2="147.00" y2="162.13"></line><line class="link fake transparent" x1="155.17" y1="169.30" x2="147.00" y2="162.13"></line><line class="link fake transparent" x1="140.16" y1="153.67" x2="147.78" y2="146.03"></line><line class="link fake transparent" x1="142.32" y1="136.51" x2="147.78" y2="146.03"></line><line class="link fake transparent" x1="156.62" y1="139.69" x2="147.78" y2="146.03"></line><line class="link fake transparent" x1="154.65" y1="154.40" x2="147.78" y2="146.03"></line><line class="link fake transparent" x1="148.20" y1="203.04" x2="161.78" y2="217.82"></line><line class="link fake transparent" x1="148.20" y1="203.04" x2="175.58" y2="231.70"></line><line class="link fake transparent" x1="162.27" y1="198.34" x2="161.78" y2="217.82"></line><line class="link fake transparent" x1="162.27" y1="198.34" x2="162.11" y2="237.75"></line><line class="link fake transparent" x1="176.16" y1="204.28" x2="161.78" y2="217.82"></line><line class="link fake transparent" x1="176.16" y1="204.28" x2="147.95" y2="232.21"></line><line class="link fake transparent" x1="181.71" y1="218.16" x2="161.78" y2="217.82"></line><line class="link fake transparent" x1="181.71" y1="218.16" x2="141.78" y2="219.49"></line><line class="link fake transparent" x1="175.58" y1="231.70" x2="161.78" y2="217.82"></line><line class="link fake transparent" x1="175.58" y1="231.70" x2="148.20" y2="203.04"></line><line class="link fake transparent" x1="162.11" y1="237.75" x2="161.78" y2="217.82"></line><line class="link fake transparent" x1="162.11" y1="237.75" x2="162.27" y2="198.34"></line><line class="link fake transparent" x1="16.40" y1="-79.38" x2="11.74" y2="-98.62"></line><line class="link fake transparent" x1="16.40" y1="-79.38" x2="7.16" y2="-117.79"></line><line class="link fake transparent" x1="1.23" y1="-82.11" x2="11.74" y2="-98.62"></line><line class="link fake transparent" x1="1.23" y1="-82.11" x2="22.02" y2="-115.49"></line><line class="link fake transparent" x1="-7.50" y1="-94.27" x2="11.74" y2="-98.62"></line><line class="link fake transparent" x1="-7.50" y1="-94.27" x2="30.77" y2="-103.31"></line><line class="link fake transparent" x1="-4.98" y1="-109.12" x2="11.74" y2="-98.62"></line><line class="link fake transparent" x1="-4.98" y1="-109.12" x2="28.43" y2="-88.13"></line><line class="link fake transparent" x1="7.16" y1="-117.79" x2="11.74" y2="-98.62"></line><line class="link fake transparent" x1="7.16" y1="-117.79" x2="16.40" y2="-79.38"></line><line class="link fake transparent" x1="22.02" y1="-115.49" x2="11.74" y2="-98.62"></line><line class="link fake transparent" x1="22.02" y1="-115.49" x2="1.23" y2="-82.11"></line><line class="link fake transparent" x1="30.77" y1="-103.31" x2="11.74" y2="-98.62"></line><line class="link fake transparent" x1="30.77" y1="-103.31" x2="-7.50" y2="-94.27"></line><line class="link fake transparent" x1="28.43" y1="-88.13" x2="11.74" y2="-98.62"></line><line class="link fake transparent" x1="28.43" y1="-88.13" x2="-4.98" y2="-109.12"></line><line class="link fake transparent" x1="78.21" y1="-2.62" x2="86.03" y2="-15.60"></line><line class="link fake transparent" x1="78.21" y1="-2.62" x2="94.91" y2="-28.04"></line><line class="link fake transparent" x1="71.05" y1="-17.62" x2="86.03" y2="-15.60"></line><line class="link fake transparent" x1="71.05" y1="-17.62" x2="101.28" y2="-14.83"></line><line class="link fake transparent" x1="79.94" y1="-29.38" x2="86.03" y2="-15.60"></line><line class="link fake transparent" x1="79.94" y1="-29.38" x2="92.97" y2="-2.37"></line><line class="link fake transparent" x1="94.91" y1="-28.04" x2="86.03" y2="-15.60"></line><line class="link fake transparent" x1="94.91" y1="-28.04" x2="78.21" y2="-2.62"></line><line class="link fake transparent" x1="101.28" y1="-14.83" x2="86.03" y2="-15.60"></line><line class="link fake transparent" x1="101.28" y1="-14.83" x2="71.05" y2="-17.62"></line><line class="link fake transparent" x1="92.97" y1="-2.37" x2="86.03" y2="-15.60"></line><line class="link fake transparent" x1="92.97" y1="-2.37" x2="79.94" y2="-29.38"></line><line class="link fake transparent" x1="142.32" y1="136.51" x2="152.71" y2="125.30"></line><line class="link fake transparent" x1="142.32" y1="136.51" x2="163.69" y2="115.23"></line><line class="link fake transparent" x1="138.55" y1="121.19" x2="152.71" y2="125.30"></line><line class="link fake transparent" x1="138.55" y1="121.19" x2="167.47" y2="129.43"></line><line class="link fake transparent" x1="149.91" y1="109.81" x2="152.71" y2="125.30"></line><line class="link fake transparent" x1="149.91" y1="109.81" x2="156.62" y2="139.69"></line><line class="link fake transparent" x1="163.69" y1="115.23" x2="152.71" y2="125.30"></line><line class="link fake transparent" x1="163.69" y1="115.23" x2="142.32" y2="136.51"></line><line class="link fake transparent" x1="167.47" y1="129.43" x2="152.71" y2="125.30"></line><line class="link fake transparent" x1="167.47" y1="129.43" x2="138.55" y2="121.19"></line><line class="link fake transparent" x1="156.62" y1="139.69" x2="152.71" y2="125.30"></line><line class="link fake transparent" x1="156.62" y1="139.69" x2="149.91" y2="109.81"></line><line class="link fake transparent" x1="149.91" y1="109.81" x2="167.90" y2="92.24"></line><line class="link fake transparent" x1="149.91" y1="109.81" x2="185.92" y2="76.26"></line><line class="link fake transparent" x1="142.94" y1="94.26" x2="167.90" y2="92.24"></line><line class="link fake transparent" x1="142.94" y1="94.26" x2="191.90" y2="89.49"></line><line class="link fake transparent" x1="147.68" y1="80.42" x2="167.90" y2="92.24"></line><line class="link fake transparent" x1="147.68" y1="80.42" x2="190.00" y2="104.18"></line><line class="link fake transparent" x1="158.61" y1="69.98" x2="167.90" y2="92.24"></line><line class="link fake transparent" x1="158.61" y1="69.98" x2="178.71" y2="114.40"></line><line class="link fake transparent" x1="173.58" y1="67.83" x2="167.90" y2="92.24"></line><line class="link fake transparent" x1="173.58" y1="67.83" x2="163.69" y2="115.23"></line><line class="link fake transparent" x1="185.92" y1="76.26" x2="167.90" y2="92.24"></line><line class="link fake transparent" x1="185.92" y1="76.26" x2="149.91" y2="109.81"></line><line class="link fake transparent" x1="191.90" y1="89.49" x2="167.90" y2="92.24"></line><line class="link fake transparent" x1="191.90" y1="89.49" x2="142.94" y2="94.26"></line><line class="link fake transparent" x1="190.00" y1="104.18" x2="167.90" y2="92.24"></line><line class="link fake transparent" x1="190.00" y1="104.18" x2="147.68" y2="80.42"></line><line class="link fake transparent" x1="178.71" y1="114.40" x2="167.90" y2="92.24"></line><line class="link fake transparent" x1="178.71" y1="114.40" x2="158.61" y2="69.98"></line><line class="link fake transparent" x1="163.69" y1="115.23" x2="167.90" y2="92.24"></line><line class="link fake transparent" x1="163.69" y1="115.23" x2="173.58" y2="67.83"></line></g><g><g class="noselect gnode" struct_name="m" transform="translate(148.20,203.04)" r="6.5"><circle class="node" r="6" node_type="nucleotide" style="fill: lightgreen;"></circle><text text-anchor="middle" font-size="8" font-weight="bold" y="2.5" class="node-label">G</text></g><g class="noselect gnode" struct_name="m" transform="translate(143.58,187.44)" r="6.5"><circle class="node" r="6" node_type="nucleotide" style="fill: lightgreen;"></circle><text text-anchor="middle" font-size="8" font-weight="bold" y="2.5" class="node-label">C</text></g><g class="noselect gnode" struct_name="m" transform="translate(140.65,170.86)" r="6.5"><circle class="node" r="6" node_type="nucleotide" style="fill: lightgreen;"></circle><text text-anchor="middle" font-size="8" font-weight="bold" y="2.5" class="node-label">C</text></g><g class="noselect gnode" struct_name="m" transform="translate(140.16,153.67)" r="6.5"><circle class="node" r="6" node_type="nucleotide" style="fill: lightgreen;"></circle><text text-anchor="middle" font-size="8" font-weight="bold" y="2.5" class="node-label">A</text></g><g class="noselect gnode" struct_name="m" transform="translate(142.32,136.51)" r="6.5"><circle class="node" r="6" node_type="nucleotide" style="fill: lightgreen;"></circle><text text-anchor="middle" font-size="8" font-weight="bold" y="2.5" class="node-label">U</text></g><g class="noselect gnode" struct_name="m" transform="translate(138.55,121.19)" r="6.5"><circle class="node" r="6" node_type="nucleotide" style="fill: rgb(219, 219, 141);"></circle><text text-anchor="middle" font-size="8" font-weight="bold" y="2.5" class="node-label">G</text></g><g class="noselect gnode" struct_name="m" transform="translate(149.91,109.81)" r="6.5"><circle class="node" r="6" node_type="nucleotide" style="fill: lightgreen;"></circle><text text-anchor="middle" font-size="8" font-weight="bold" y="2.5" class="node-label">U</text></g><g class="noselect gnode" struct_name="m" transform="translate(142.94,94.26)" r="6.5"><circle class="node" r="6" node_type="nucleotide" style="fill: lightgreen;"></circle><text text-anchor="middle" font-size="8" font-weight="bold" y="2.5" class="node-label">G</text></g><g class="noselect gnode" struct_name="m" transform="translate(126.83,85.67)" r="6.5"><circle class="node" r="6" node_type="nucleotide" style="fill: lightgreen;"></circle><text text-anchor="middle" font-size="8" font-weight="bold" y="2.5" class="node-label">G</text></g><g class="noselect gnode" struct_name="m" transform="translate(112.91,74.63)" r="6.5"><circle class="node" r="6" node_type="nucleotide" style="fill: lightgreen;"></circle><text text-anchor="middle" font-size="8" font-weight="bold" y="2.5" class="node-label">U</text></g><g class="noselect gnode" struct_name="m" transform="translate(100.98,61.79)" r="6.5"><circle class="node" r="6" node_type="nucleotide" style="fill: lightgreen;"></circle><text text-anchor="middle" font-size="8" font-weight="bold" y="2.5" class="node-label">C</text></g><g class="noselect gnode" struct_name="m" transform="translate(91.15,47.28)" r="6.5"><circle class="node" r="6" node_type="nucleotide" style="fill: lightgreen;"></circle><text text-anchor="middle" font-size="8" font-weight="bold" y="2.5" class="node-label">C</text></g><g class="noselect gnode" struct_name="m" transform="translate(83.99,31.45)" r="6.5"><circle class="node" r="6" node_type="nucleotide" style="fill: lightgreen;"></circle><text text-anchor="middle" font-size="8" font-weight="bold" y="2.5" class="node-label">C</text></g><g class="noselect gnode" struct_name="m" transform="translate(79.70,14.61)" r="6.5"><circle class="node" r="6" node_type="nucleotide" style="fill: lightgreen;"></circle><text text-anchor="middle" font-size="8" font-weight="bold" y="2.5" class="node-label">A</text></g><g class="noselect gnode" struct_name="m" transform="translate(78.21,-2.62)" r="6.5"><circle class="node" r="6" node_type="nucleotide" style="fill: lightgreen;"></circle><text text-anchor="middle" font-size="8" font-weight="bold" y="2.5" class="node-label">C</text></g><g class="noselect gnode" struct_name="m" transform="translate(71.05,-17.62)" r="6.5"><circle class="node" r="6" node_type="nucleotide" style="fill: lightgreen;"></circle><text text-anchor="middle" font-size="8" font-weight="bold" y="2.5" class="node-label">A</text></g><g class="noselect gnode" struct_name="m" transform="translate(58.41,-29.00)" r="6.5"><circle class="node" r="6" node_type="nucleotide" style="fill: lightgreen;"></circle><text text-anchor="middle" font-size="8" font-weight="bold" y="2.5" class="node-label">U</text></g><g class="noselect gnode" struct_name="m" transform="translate(46.90,-41.13)" r="6.5"><circle class="node" r="6" node_type="nucleotide" style="fill: lightgreen;"></circle><text text-anchor="middle" font-size="8" font-weight="bold" y="2.5" class="node-label">A</text></g><g class="noselect gnode" struct_name="m" transform="translate(36.18,-53.67)" r="6.5"><circle class="node" r="6" node_type="nucleotide" style="fill: lightgreen;"></circle><text text-anchor="middle" font-size="8" font-weight="bold" y="2.5" class="node-label">U</text></g><g class="noselect gnode" struct_name="m" transform="translate(26.09,-66.56)" r="6.5"><circle class="node" r="6" node_type="nucleotide" style="fill: lightgreen;"></circle><text text-anchor="middle" font-size="8" font-weight="bold" y="2.5" class="node-label">U</text></g><g class="noselect gnode" struct_name="m" transform="translate(16.40,-79.38)" r="6.5"><circle class="node" r="6" node_type="nucleotide" style="fill: lightgreen;"></circle><text text-anchor="middle" font-size="8" font-weight="bold" y="2.5" class="node-label">C</text></g><g class="noselect gnode" struct_name="m" transform="translate(1.23,-82.11)" r="6.5"><circle class="node" r="6" node_type="nucleotide" style="fill: lightblue;"></circle><text text-anchor="middle" font-size="8" font-weight="bold" y="2.5" class="node-label">U</text></g><g class="noselect gnode" struct_name="m" transform="translate(-7.50,-94.27)" r="6.5"><circle class="node" r="6" node_type="nucleotide" style="fill: lightblue;"></circle><text text-anchor="middle" font-size="8" font-weight="bold" y="2.5" class="node-label">G</text></g><g class="noselect gnode" struct_name="m" transform="translate(-4.98,-109.12)" r="6.5"><circle class="node" r="6" node_type="nucleotide" style="fill: lightblue;"></circle><text text-anchor="middle" font-size="8" font-weight="bold" y="2.5" class="node-label">U</text></g><g class="noselect gnode" struct_name="m" transform="translate(7.16,-117.79)" r="6.5"><circle class="node" r="6" node_type="nucleotide" style="fill: lightblue;"></circle><text text-anchor="middle" font-size="8" font-weight="bold" y="2.5" class="node-label">C</text></g><g class="noselect gnode" struct_name="m" transform="translate(22.02,-115.49)" r="6.5"><circle class="node" r="6" node_type="nucleotide" style="fill: lightblue;"></circle><text text-anchor="middle" font-size="8" font-weight="bold" y="2.5" class="node-label">A</text></g><g class="noselect gnode" struct_name="m" transform="translate(30.77,-103.31)" r="6.5"><circle class="node" r="6" node_type="nucleotide" style="fill: lightblue;"></circle><text text-anchor="middle" font-size="8" font-weight="bold" y="2.5" class="node-label">U</text></g><g class="noselect gnode" struct_name="m" transform="translate(28.43,-88.13)" r="6.5"><circle class="node" r="6" node_type="nucleotide" style="fill: lightgreen;"></circle><text text-anchor="middle" font-size="8" font-weight="bold" y="2.5" class="node-label">G</text></g><g class="noselect gnode" struct_name="m" transform="translate(37.66,-75.35)" r="6.5"><circle class="node" r="6" node_type="nucleotide" style="fill: lightgreen;"></circle><text text-anchor="middle" font-size="8" font-weight="bold" y="2.5" class="node-label">A</text></g><g class="noselect gnode" struct_name="m" transform="translate(47.44,-62.85)" r="6.5"><circle class="node" r="6" node_type="nucleotide" style="fill: lightgreen;"></circle><text text-anchor="middle" font-size="8" font-weight="bold" y="2.5" class="node-label">A</text></g><g class="noselect gnode" struct_name="m" transform="translate(57.69,-50.79)" r="6.5"><circle class="node" r="6" node_type="nucleotide" style="fill: lightgreen;"></circle><text text-anchor="middle" font-size="8" font-weight="bold" y="2.5" class="node-label">U</text></g><g class="noselect gnode" struct_name="m" transform="translate(68.50,-39.35)" r="6.5"><circle class="node" r="6" node_type="nucleotide" style="fill: lightgreen;"></circle><text text-anchor="middle" font-size="8" font-weight="bold" y="2.5" class="node-label">G</text></g><g class="noselect gnode" struct_name="m" transform="translate(79.94,-29.38)" r="6.5"><circle class="node" r="6" node_type="nucleotide" style="fill: lightgreen;"></circle><text text-anchor="middle" font-size="8" font-weight="bold" y="2.5" class="node-label">U</text></g><g class="noselect gnode" struct_name="m" transform="translate(94.91,-28.04)" r="6.5"><circle class="node" r="6" node_type="nucleotide" style="fill: rgb(219, 219, 141);"></circle><text text-anchor="middle" font-size="8" font-weight="bold" y="2.5" class="node-label">C</text></g><g class="noselect gnode" struct_name="m" transform="translate(101.28,-14.83)" r="6.5"><circle class="node" r="6" node_type="nucleotide" style="fill: rgb(219, 219, 141);"></circle><text text-anchor="middle" font-size="8" font-weight="bold" y="2.5" class="node-label">G</text></g><g class="noselect gnode" struct_name="m" transform="translate(92.97,-2.37)" r="6.5"><circle class="node" r="6" node_type="nucleotide" style="fill: lightgreen;"></circle><text text-anchor="middle" font-size="8" font-weight="bold" y="2.5" class="node-label">G</text></g><g class="noselect gnode" struct_name="m" transform="translate(94.02,12.25)" r="6.5"><circle class="node" r="6" node_type="nucleotide" style="fill: lightgreen;"></circle><text text-anchor="middle" font-size="8" font-weight="bold" y="2.5" class="node-label">U</text></g><g class="noselect gnode" struct_name="m" transform="translate(97.68,26.64)" r="6.5"><circle class="node" r="6" node_type="nucleotide" style="fill: lightgreen;"></circle><text text-anchor="middle" font-size="8" font-weight="bold" y="2.5" class="node-label">G</text></g><g class="noselect gnode" struct_name="m" transform="translate(103.74,40.25)" r="6.5"><circle class="node" r="6" node_type="nucleotide" style="fill: lightgreen;"></circle><text text-anchor="middle" font-size="8" font-weight="bold" y="2.5" class="node-label">G</text></g><g class="noselect gnode" struct_name="m" transform="translate(112.19,52.86)" r="6.5"><circle class="node" r="6" node_type="nucleotide" style="fill: lightgreen;"></circle><text text-anchor="middle" font-size="8" font-weight="bold" y="2.5" class="node-label">G</text></g><g class="noselect gnode" struct_name="m" transform="translate(122.66,64.18)" r="6.5"><circle class="node" r="6" node_type="nucleotide" style="fill: lightgreen;"></circle><text text-anchor="middle" font-size="8" font-weight="bold" y="2.5" class="node-label">A</text></g><g class="noselect gnode" struct_name="m" transform="translate(134.63,73.82)" r="6.5"><circle class="node" r="6" node_type="nucleotide" style="fill: lightgreen;"></circle><text text-anchor="middle" font-size="8" font-weight="bold" y="2.5" class="node-label">C</text></g><g class="noselect gnode" struct_name="m" transform="translate(147.68,80.42)" r="6.5"><circle class="node" r="6" node_type="nucleotide" style="fill: lightgreen;"></circle><text text-anchor="middle" font-size="8" font-weight="bold" y="2.5" class="node-label">U</text></g><g class="noselect gnode" struct_name="m" transform="translate(158.61,69.98)" r="6.5"><circle class="node" r="6" node_type="nucleotide" style="fill: rgb(219, 219, 141);"></circle><text text-anchor="middle" font-size="8" font-weight="bold" y="2.5" class="node-label">U</text></g><g class="noselect gnode" struct_name="m" transform="translate(173.58,67.83)" r="6.5"><circle class="node" r="6" node_type="nucleotide" style="fill: rgb(219, 219, 141);"></circle><text text-anchor="middle" font-size="8" font-weight="bold" y="2.5" class="node-label">U</text></g><g class="noselect gnode" struct_name="m" transform="translate(185.92,76.26)" r="6.5"><circle class="node" r="6" node_type="nucleotide" style="fill: rgb(219, 219, 141);"></circle><text text-anchor="middle" font-size="8" font-weight="bold" y="2.5" class="node-label">U</text></g><g class="noselect gnode" struct_name="m" transform="translate(191.90,89.49)" r="6.5"><circle class="node" r="6" node_type="nucleotide" style="fill: rgb(219, 219, 141);"></circle><text text-anchor="middle" font-size="8" font-weight="bold" y="2.5" class="node-label">A</text></g><g class="noselect gnode" struct_name="m" transform="translate(190.00,104.18)" r="6.5"><circle class="node" r="6" node_type="nucleotide" style="fill: rgb(219, 219, 141);"></circle><text text-anchor="middle" font-size="8" font-weight="bold" y="2.5" class="node-label">U</text></g><g class="noselect gnode" struct_name="m" transform="translate(178.71,114.40)" r="6.5"><circle class="node" r="6" node_type="nucleotide" style="fill: rgb(219, 219, 141);"></circle><text text-anchor="middle" font-size="8" font-weight="bold" y="2.5" class="node-label">U</text></g><g class="noselect gnode" struct_name="m" transform="translate(163.69,115.23)" r="6.5"><circle class="node" r="6" node_type="nucleotide" style="fill: lightgreen;"></circle><text text-anchor="middle" font-size="8" font-weight="bold" y="2.5" class="node-label">G</text></g><g class="noselect gnode" struct_name="m" transform="translate(167.47,129.43)" r="6.5"><circle class="node" r="6" node_type="nucleotide" style="fill: rgb(219, 219, 141);"></circle><text text-anchor="middle" font-size="8" font-weight="bold" y="2.5" class="node-label">G</text></g><g class="noselect gnode" struct_name="m" transform="translate(156.62,139.69)" r="6.5"><circle class="node" r="6" node_type="nucleotide" style="fill: lightgreen;"></circle><text text-anchor="middle" font-size="8" font-weight="bold" y="2.5" class="node-label">A</text></g><g class="noselect gnode" struct_name="m" transform="translate(154.65,154.40)" r="6.5"><circle class="node" r="6" node_type="nucleotide" style="fill: lightgreen;"></circle><text text-anchor="middle" font-size="8" font-weight="bold" y="2.5" class="node-label">U</text></g><g class="noselect gnode" struct_name="m" transform="translate(155.17,169.30)" r="6.5"><circle class="node" r="6" node_type="nucleotide" style="fill: lightgreen;"></circle><text text-anchor="middle" font-size="8" font-weight="bold" y="2.5" class="node-label">G</text></g><g class="noselect gnode" struct_name="m" transform="translate(157.88,183.97)" r="6.5"><circle class="node" r="6" node_type="nucleotide" style="fill: lightgreen;"></circle><text text-anchor="middle" font-size="8" font-weight="bold" y="2.5" class="node-label">G</text></g><g class="noselect gnode" struct_name="m" transform="translate(162.27,198.34)" r="6.5"><circle class="node" r="6" node_type="nucleotide" style="fill: lightgreen;"></circle><text text-anchor="middle" font-size="8" font-weight="bold" y="2.5" class="node-label">C</text></g><g class="noselect gnode" struct_name="m" transform="translate(176.16,204.28)" r="6.5"><circle class="node" r="6" node_type="nucleotide" style="fill: lightsalmon;"></circle><text text-anchor="middle" font-size="8" font-weight="bold" y="2.5" class="node-label">U</text></g><g class="noselect gnode" struct_name="m" transform="translate(181.71,218.16)" r="6.5"><circle class="node" r="6" node_type="nucleotide" style="fill: lightsalmon;"></circle><text text-anchor="middle" font-size="8" font-weight="bold" y="2.5" class="node-label">C</text></g><g class="noselect gnode" struct_name="m" transform="translate(175.58,231.70)" r="6.5"><circle class="node" r="6" node_type="nucleotide" style="fill: lightsalmon;"></circle><text text-anchor="middle" font-size="8" font-weight="bold" y="2.5" class="node-label">A</text></g><g class="noselect gnode" struct_name="m" transform="translate(162.11,237.75)" r="6.5"><circle class="node" r="6" node_type="nucleotide" style="fill: lightsalmon;"></circle><text text-anchor="middle" font-size="8" font-weight="bold" y="2.5" class="node-label">A</text></g><g class="noselect gnode" struct_name="m" transform="translate(100.04,83.61)" r="6.5"><circle class="node label" r="6" node_type="label"></circle><text text-anchor="middle" font-size="8" font-weight="bold" y="2.5" class="node-label">10</text></g><g class="noselect gnode" struct_name="m" transform="translate(13.01,-58.10)" r="6.5"><circle class="node label" r="6" node_type="label"></circle><text text-anchor="middle" font-size="8" font-weight="bold" y="2.5" class="node-label">20</text></g><g class="noselect gnode" struct_name="m" transform="translate(59.01,-73.28)" r="6.5"><circle class="node label" r="6" node_type="label"></circle><text text-anchor="middle" font-size="8" font-weight="bold" y="2.5" class="node-label">30</text></g><g class="noselect gnode" struct_name="m" transform="translate(121.65,40.51)" r="6.5"><circle class="node label" r="6" node_type="label"></circle><text text-anchor="middle" font-size="8" font-weight="bold" y="2.5" class="node-label">40</text></g><g class="noselect gnode" struct_name="m" transform="translate(173.76,103.52)" r="6.5"><circle class="node label" r="6" node_type="label"></circle><text text-anchor="middle" font-size="8" font-weight="bold" y="2.5" class="node-label">50</text></g><g class="noselect gnode" struct_name="m" transform="translate(159.19,252.87)" r="6.5"><circle class="node label" r="6" node_type="label"></circle><text text-anchor="middle" font-size="8" font-weight="bold" y="2.5" class="node-label">60</text></g><g class="noselect gnode" transform="translate(137.61,84.30)" r="6.5"><circle class="node" r="0" node_type="middle"></circle><text text-anchor="middle" font-size="8" font-weight="bold" y="2.5" class="node-label"></text></g><g class="noselect gnode" transform="translate(123.83,75.07)" r="6.5"><circle class="node" r="0" node_type="middle"></circle><text text-anchor="middle" font-size="8" font-weight="bold" y="2.5" class="node-label"></text></g><g class="noselect gnode" transform="translate(111.71,63.75)" r="6.5"><circle class="node" r="0" node_type="middle"></circle><text text-anchor="middle" font-size="8" font-weight="bold" y="2.5" class="node-label"></text></g><g class="noselect gnode" transform="translate(101.39,50.89)" r="6.5"><circle class="node" r="0" node_type="middle"></circle><text text-anchor="middle" font-size="8" font-weight="bold" y="2.5" class="node-label"></text></g><g class="noselect gnode" transform="translate(93.43,36.67)" r="6.5"><circle class="node" r="0" node_type="middle"></circle><text text-anchor="middle" font-size="8" font-weight="bold" y="2.5" class="node-label"></text></g><g class="noselect gnode" transform="translate(88.16,21.43)" r="6.5"><circle class="node" r="0" node_type="middle"></circle><text text-anchor="middle" font-size="8" font-weight="bold" y="2.5" class="node-label"></text></g><g class="noselect gnode" transform="translate(85.61,5.58)" r="6.5"><circle class="node" r="0" node_type="middle"></circle><text text-anchor="middle" font-size="8" font-weight="bold" y="2.5" class="node-label"></text></g><g class="noselect gnode" transform="translate(69.20,-28.51)" r="6.5"><circle class="node" r="0" node_type="middle"></circle><text text-anchor="middle" font-size="8" font-weight="bold" y="2.5" class="node-label"></text></g><g class="noselect gnode" transform="translate(57.68,-39.89)" r="6.5"><circle class="node" r="0" node_type="middle"></circle><text text-anchor="middle" font-size="8" font-weight="bold" y="2.5" class="node-label"></text></g><g class="noselect gnode" transform="translate(46.91,-51.97)" r="6.5"><circle class="node" r="0" node_type="middle"></circle><text text-anchor="middle" font-size="8" font-weight="bold" y="2.5" class="node-label"></text></g><g class="noselect gnode" transform="translate(36.71,-64.53)" r="6.5"><circle class="node" r="0" node_type="middle"></circle><text text-anchor="middle" font-size="8" font-weight="bold" y="2.5" class="node-label"></text></g><g class="noselect gnode" transform="translate(27.04,-77.36)" r="6.5"><circle class="node" r="0" node_type="middle"></circle><text text-anchor="middle" font-size="8" font-weight="bold" y="2.5" class="node-label"></text></g><g class="noselect gnode" transform="translate(152.63,193.39)" r="6.5"><circle class="node" r="0" node_type="middle"></circle><text text-anchor="middle" font-size="8" font-weight="bold" y="2.5" class="node-label"></text></g><g class="noselect gnode" transform="translate(148.77,178.05)" r="6.5"><circle class="node" r="0" node_type="middle"></circle><text text-anchor="middle" font-size="8" font-weight="bold" y="2.5" class="node-label"></text></g><g class="noselect gnode" transform="translate(147.00,162.13)" r="6.5"><circle class="node" r="0" node_type="middle"></circle><text text-anchor="middle" font-size="8" font-weight="bold" y="2.5" class="node-label"></text></g><g class="noselect gnode" transform="translate(147.78,146.03)" r="6.5"><circle class="node" r="0" node_type="middle"></circle><text text-anchor="middle" font-size="8" font-weight="bold" y="2.5" class="node-label"></text></g><g class="noselect gnode" transform="translate(147.95,232.21)" r="6.5"><circle class="node" r="0" node_type="middle"></circle><text text-anchor="middle" font-size="8" font-weight="bold" y="2.5" class="node-label"></text></g><g class="noselect gnode" transform="translate(141.78,219.49)" r="6.5"><circle class="node" r="0" node_type="middle"></circle><text text-anchor="middle" font-size="8" font-weight="bold" y="2.5" class="node-label"></text></g><g class="noselect gnode" transform="translate(161.78,217.82)" r="6.5"><circle class="node" r="0" node_type="middle"></circle><text text-anchor="middle" font-size="8" font-weight="bold" y="2.5" class="node-label"></text></g><g class="noselect gnode" transform="translate(11.74,-98.62)" r="6.5"><circle class="node" r="0" node_type="middle"></circle><text text-anchor="middle" font-size="8" font-weight="bold" y="2.5" class="node-label"></text></g><g class="noselect gnode" transform="translate(86.03,-15.60)" r="6.5"><circle class="node" r="0" node_type="middle"></circle><text text-anchor="middle" font-size="8" font-weight="bold" y="2.5" class="node-label"></text></g><g class="noselect gnode" transform="translate(152.71,125.30)" r="6.5"><circle class="node" r="0" node_type="middle"></circle><text text-anchor="middle" font-size="8" font-weight="bold" y="2.5" class="node-label"></text></g><g class="noselect gnode" transform="translate(167.90,92.24)" r="6.5"><circle class="node" r="0" node_type="middle"></circle><text text-anchor="middle" font-size="8" font-weight="bold" y="2.5" class="node-label"></text></g></g><line class="drag_line" x1="0" y1="0" x2="0" y2="0"></line></g></g></svg>