<svg xmlns="http://www.w3.org/2000/svg" viewBox="-66.1 -185.8 450.3 154.9" width="450" height="155"><style></style><line x1="2.9" y1="-91.9" x2="4.8" y2="-77.0" stroke="#999" stroke-width="1.56" stroke-opacity="0.8"/><line x1="17.8" y1="-93.9" x2="19.7" y2="-79.0" stroke="#999" stroke-width="1.56" stroke-opacity="0.8"/><line x1="32.6" y1="-95.8" x2="34.6" y2="-80.9" stroke="#999" stroke-width="1.56" stroke-opacity="0.8"/><line x1="47.5" y1="-98.1" x2="50.2" y2="-83.3" stroke="#999" stroke-width="1.56" stroke-opacity="0.8"/><line x1="62.2" y1="-100.8" x2="64.9" y2="-86.0" stroke="#999" stroke-width="1.56" stroke-opacity="0.8"/><line x1="77.0" y1="-103.5" x2="79.7" y2="-88.7" stroke="#999" stroke-width="1.56" stroke-opacity="0.8"/><line x1="91.7" y1="-106.2" x2="94.4" y2="-91.4" stroke="#999" stroke-width="1.56" stroke-opacity="0.8"/><line x1="106.4" y1="-109.2" x2="109.9" y2="-94.6" stroke="#999" stroke-width="1.56" stroke-opacity="0.8"/><line x1="121.0" y1="-112.7" x2="124.5" y2="-98.1" stroke="#999" stroke-width="1.56" stroke-opacity="0.8"/><line x1="135.6" y1="-116.1" x2="139.1" y2="-101.5" stroke="#999" stroke-width="1.56" stroke-opacity="0.8"/><line x1="150.2" y1="-119.6" x2="153.7" y2="-105.0" stroke="#999" stroke-width="1.56" stroke-opacity="0.8"/><line x1="164.8" y1="-123.0" x2="168.3" y2="-108.4" stroke="#999" stroke-width="1.56" stroke-opacity="0.8"/><line x1="-20.3" y1="-62.2" x2="330.7" y2="-103.8" stroke="#d9534f" stroke-width="1.56" stroke-opacity="0.6"/><line x1="-32.9" y1="-71.8" x2="346.3" y2="-107.6" stroke="#d9534f" stroke-width="1.56" stroke-opacity="0.6"/><line x1="-34.9" y1="-87.4" x2="352.9" y2="-122.2" stroke="#d9534f" stroke-width="1.56" stroke-opacity="0.6"/><line x1="-25.2" y1="-99.9" x2="345.5" y2="-136.4" stroke="#d9534f" stroke-width="1.56" stroke-opacity="0.6"/><line x1="318.1" y1="-113.8" x2="317.7" y2="-128.8" stroke="#999" stroke-width="1.56" stroke-opacity="0.8"/><line x1="303.1" y1="-113.4" x2="302.7" y2="-128.4" stroke="#999" stroke-width="1.56" stroke-opacity="0.8"/><line x1="288.1" y1="-113.0" x2="287.7" y2="-128.0" stroke="#999" stroke-width="1.56" stroke-opacity="0.8"/><line x1="273.1" y1="-112.6" x2="272.7" y2="-127.6" stroke="#999" stroke-width="1.56" stroke-opacity="0.8"/><line x1="258.1" y1="-112.3" x2="257.7" y2="-127.3" stroke="#999" stroke-width="1.56" stroke-opacity="0.8"/><line x1="243.1" y1="-111.9" x2="242.7" y2="-126.9" stroke="#999" stroke-width="1.56" stroke-opacity="0.8"/><line x1="228.1" y1="-111.5" x2="227.7" y2="-126.5" stroke="#999" stroke-width="1.56" stroke-opacity="0.8"/><line x1="213.1" y1="-111.1" x2="212.7" y2="-126.1" stroke="#999" stroke-width="1.56" stroke-opacity="0.8"/><line x1="198.1" y1="-110.7" x2="197.7" y2="-125.7" stroke="#999" stroke-width="1.56" stroke-opacity="0.8"/><line x1="183.1" y1="-110.3" x2="182.7" y2="-125.3" stroke="#999" stroke-width="1.56" stroke-opacity="0.8"/><line x1="155.7" y1="-137.8" x2="164.8" y2="-123.0" stroke="#999" stroke-width="1.56" stroke-opacity="0.8"/><line x1="164.8" y1="-123.0" x2="150.2" y2="-119.6" stroke="#999" stroke-width="1.56" stroke-opacity="0.8"/><line x1="150.2" y1="-119.6" x2="135.6" y2="-116.1" stroke="#999" stroke-width="1.56" stroke-opacity="0.8"/><line x1="135.6" y1="-116.1" x2="121.0" y2="-112.7" stroke="#999" stroke-width="1.56" stroke-opacity="0.8"/><line x1="121.0" y1="-112.7" x2="106.4" y2="-109.2" stroke="#999" stroke-width="1.56" stroke-opacity="0.8"/><line x1="106.4" y1="-109.2" x2="91.7" y2="-106.2" stroke="#999" stroke-width="1.56" stroke-opacity="0.8"/><line x1="91.7" y1="-106.2" x2="77.0" y2="-103.5" stroke="#999" stroke-width="1.56" stroke-opacity="0.8"/><line x1="77.0" y1="-103.5" x2="62.2" y2="-100.8" stroke="#999" stroke-width="1.56" stroke-opacity="0.8"/><line x1="62.2" y1="-100.8" x2="47.5" y2="-98.1" stroke="#999" stroke-width="1.56" stroke-opacity="0.8"/><line x1="47.5" y1="-98.1" x2="32.6" y2="-95.8" stroke="#999" stroke-width="1.56" stroke-opacity="0.8"/><line x1="32.6" y1="-95.8" x2="17.8" y2="-93.9" stroke="#999" stroke-width="1.56" stroke-opacity="0.8"/><line x1="17.8" y1="-93.9" x2="2.9" y2="-91.9" stroke="#999" stroke-width="1.56" stroke-opacity="0.8"/><line x1="2.9" y1="-91.9" x2="-10.7" y2="-97.3" stroke="#999" stroke-width="1.56" stroke-opacity="0.8"/><line x1="-10.7" y1="-97.3" x2="-25.2" y2="-99.9" stroke="#999" stroke-width="1.56" stroke-opacity="0.8"/><line x1="-25.2" y1="-99.9" x2="-34.9" y2="-87.4" stroke="#999" stroke-width="1.56" stroke-opacity="0.8"/><line x1="-34.9" y1="-87.4" x2="-32.9" y2="-71.8" stroke="#999" stroke-width="1.56" stroke-opacity="0.8"/><line x1="-32.9" y1="-71.8" x2="-20.3" y2="-62.2" stroke="#999" stroke-width="1.56" stroke-opacity="0.8"/><line x1="-20.3" y1="-62.2" x2="-7.0" y2="-68.4" stroke="#999" stroke-width="1.56" stroke-opacity="0.8"/><line x1="-7.0" y1="-68.4" x2="4.8" y2="-77.0" stroke="#999" stroke-width="1.56" stroke-opacity="0.8"/><line x1="4.8" y1="-77.0" x2="19.7" y2="-79.0" stroke="#999" stroke-width="1.56" stroke-opacity="0.8"/><line x1="19.7" y1="-79.0" x2="34.6" y2="-80.9" stroke="#999" stroke-width="1.56" stroke-opacity="0.8"/><line x1="34.6" y1="-80.9" x2="44.2" y2="-70.4" stroke="#999" stroke-width="1.56" stroke-opacity="0.8"/><line x1="44.2" y1="-70.4" x2="50.2" y2="-83.3" stroke="#999" stroke-width="1.56" stroke-opacity="0.8"/><line x1="50.2" y1="-83.3" x2="64.9" y2="-86.0" stroke="#999" stroke-width="1.56" stroke-opacity="0.8"/><line x1="64.9" y1="-86.0" x2="79.7" y2="-88.7" stroke="#999" stroke-width="1.56" stroke-opacity="0.8"/><line x1="79.7" y1="-88.7" x2="94.4" y2="-91.4" stroke="#999" stroke-width="1.56" stroke-opacity="0.8"/><line x1="94.4" y1="-91.4" x2="104.6" y2="-81.4" stroke="#999" stroke-width="1.56" stroke-opacity="0.8"/><line x1="104.6" y1="-81.4" x2="109.9" y2="-94.6" stroke="#999" stroke-width="1.56" stroke-opacity="0.8"/><line x1="109.9" y1="-94.6" x2="124.5" y2="-98.1" stroke="#999" stroke-width="1.56" stroke-opacity="0.8"/><line x1="124.5" y1="-98.1" x2="139.1" y2="-101.5" stroke="#999" stroke-width="1.56" stroke-opacity="0.8"/><line x1="139.1" y1="-101.5" x2="153.7" y2="-105.0" stroke="#999" stroke-width="1.56" stroke-opacity="0.8"/><line x1="153.7" y1="-105.0" x2="168.3" y2="-108.4" stroke="#999" stroke-width="1.56" stroke-opacity="0.8"/><line x1="168.3" y1="-108.4" x2="183.1" y2="-110.3" stroke="#999" stroke-width="1.56" stroke-opacity="0.8"/><line x1="183.1" y1="-110.3" x2="198.1" y2="-110.7" stroke="#999" stroke-width="1.56" stroke-opacity="0.8"/><line x1="198.1" y1="-110.7" x2="213.1" y2="-111.1" stroke="#999" stroke-width="1.56" stroke-opacity="0.8"/><line x1="213.1" y1="-111.1" x2="228.1" y2="-111.5" stroke="#999" stroke-width="1.56" stroke-opacity="0.8"/><line x1="228.1" y1="-111.5" x2="243.1" y2="-111.9" stroke="#999" stroke-width="1.56" stroke-opacity="0.8"/><line x1="243.1" y1="-111.9" x2="258.1" y2="-112.3" stroke="#999" stroke-width="1.56" stroke-opacity="0.8"/><line x1="258.1" y1="-112.3" x2="273.1" y2="-112.6" stroke="#999" stroke-width="1.56" stroke-opacity="0.8"/><line x1="273.1" y1="-112.6" x2="288.1" y2="-113.0" stroke="#999" stroke-width="1.56" stroke-opacity="0.8"/><line x1="288.1" y1="-113.0" x2="303.1" y2="-113.4" stroke="#999" stroke-width="1.56" stroke-opacity="0.8"/><line x1="303.1" y1="-113.4" x2="318.1" y2="-113.8" stroke="#999" stroke-width="1.56" stroke-opacity="0.8"/><line x1="318.1" y1="-113.8" x2="330.7" y2="-103.8" stroke="#999" stroke-width="1.56" stroke-opacity="0.8"/><line x1="330.7" y1="-103.8" x2="346.3" y2="-107.6" stroke="#999" stroke-width="1.56" stroke-opacity="0.8"/><line x1="346.3" y1="-107.6" x2="352.9" y2="-122.2" stroke="#999" stroke-width="1.56" stroke-opacity="0.8"/><line x1="352.9" y1="-122.2" x2="345.5" y2="-136.4" stroke="#999" stroke-width="1.56" stroke-opacity="0.8"/><line x1="345.5" y1="-136.4" x2="331.1" y2="-134.4" stroke="#999" stroke-width="1.56" stroke-opacity="0.8"/><line x1="331.1" y1="-134.4" x2="317.7" y2="-128.8" stroke="#999" stroke-width="1.56" stroke-opacity="0.8"/><line x1="317.7" y1="-128.8" x2="302.7" y2="-128.4" stroke="#999" stroke-width="1.56" stroke-opacity="0.8"/><line x1="302.7" y1="-128.4" x2="287.7" y2="-128.0" stroke="#999" stroke-width="1.56" stroke-opacity="0.8"/><line x1="287.7" y1="-128.0" x2="272.7" y2="-127.6" stroke="#999" stroke-width="1.56" stroke-opacity="0.8"/><line x1="272.7" y1="-127.6" x2="257.7" y2="-127.3" stroke="#999" stroke-width="1.56" stroke-opacity="0.8"/><line x1="257.7" y1="-127.3" x2="242.7" y2="-126.9" stroke="#999" stroke-width="1.56" stroke-opacity="0.8"/><line x1="242.7" y1="-126.9" x2="227.7" y2="-126.5" stroke="#999" stroke-width="1.56" stroke-opacity="0.8"/><line x1="227.7" y1="-126.5" x2="212.7" y2="-126.1" stroke="#999" stroke-width="1.56" stroke-opacity="0.8"/><line x1="212.7" y1="-126.1" x2="197.7" y2="-125.7" stroke="#999" stroke-width="1.56" stroke-opacity="0.8"/><line x1="197.7" y1="-125.7" x2="182.7" y2="-125.3" stroke="#999" stroke-width="1.56" stroke-opacity="0.8"/><line x1="182.7" y1="-125.3" x2="176.3" y2="-140.5" stroke="#999" stroke-width="1.56" stroke-opacity="0.8"/><line x1="176.3" y1="-140.5" x2="167.5" y2="-154.6" stroke="#999" stroke-width="1.56" stroke-opacity="0.8"/><text x="141.2" y="-126.2" text-anchor="middle" font-size="7.4" font-family="Tahoma,Geneva,sans-serif" fill="#999">1</text><text x="44.6" y="-112.3" text-anchor="middle" font-size="7.4" font-family="Tahoma,Geneva,sans-serif" fill="#999">10</text><text x="11.1" y="-58.6" text-anchor="middle" font-size="7.4" font-family="Tahoma,Geneva,sans-serif" fill="#999">20</text><text x="128.4" y="-78.9" text-anchor="middle" font-size="7.4" font-family="Tahoma,Geneva,sans-serif" fill="#999">30</text><text x="273.5" y="-93.0" text-anchor="middle" font-size="7.4" font-family="Tahoma,Geneva,sans-serif" fill="#999">40</text><text x="302.3" y="-142.9" text-anchor="middle" font-size="7.4" font-family="Tahoma,Geneva,sans-serif" fill="#999">50</text><text x="182.0" y="-161.0" text-anchor="middle" font-size="7.4" font-family="Tahoma,Geneva,sans-serif" fill="#999">60</text><circle cx="155.7" cy="-137.8" r="4.26" fill="lightsalmon" stroke="#ccc" stroke-width="1.56"/><text x="155.7" y="-135.7" text-anchor="middle" font-size="5.3" font-family="Tahoma,Geneva,sans-serif" font-weight="bold" fill="rgb(100,100,100)">C</text><circle cx="164.8" cy="-123.0" r="4.26" fill="lightgreen" stroke="#ccc" stroke-width="1.56"/><text x="164.8" y="-120.9" text-anchor="middle" font-size="5.3" font-family="Tahoma,Geneva,sans-serif" font-weight="bold" fill="rgb(100,100,100)">A</text><circle cx="150.2" cy="-119.6" r="4.26" fill="lightgreen" stroke="#ccc" stroke-width="1.56"/><text x="150.2" y="-117.4" text-anchor="middle" font-size="5.3" font-family="Tahoma,Geneva,sans-serif" font-weight="bold" fill="rgb(100,100,100)">C</text><circle cx="135.6" cy="-116.1" r="4.26" fill="lightgreen" stroke="#ccc" stroke-width="1.56"/><text x="135.6" y="-114.0" text-anchor="middle" font-size="5.3" font-family="Tahoma,Geneva,sans-serif" font-weight="bold" fill="rgb(100,100,100)">A</text><circle cx="121.0" cy="-112.7" r="4.26" fill="lightgreen" stroke="#ccc" stroke-width="1.56"/><text x="121.0" y="-110.5" text-anchor="middle" font-size="5.3" font-family="Tahoma,Geneva,sans-serif" font-weight="bold" fill="rgb(100,100,100)">U</text><circle cx="106.4" cy="-109.2" r="4.26" fill="lightgreen" stroke="#ccc" stroke-width="1.56"/><text x="106.4" y="-107.1" text-anchor="middle" font-size="5.3" font-family="Tahoma,Geneva,sans-serif" font-weight="bold" fill="rgb(100,100,100)">G</text><circle cx="91.7" cy="-106.2" r="4.26" fill="lightgreen" stroke="#ccc" stroke-width="1.56"/><text x="91.7" y="-104.0" text-anchor="middle" font-size="5.3" font-family="Tahoma,Geneva,sans-serif" font-weight="bold" fill="rgb(100,100,100)">C</text><circle cx="77.0" cy="-103.5" r="4.26" fill="lightgreen" stroke="#ccc" stroke-width="1.56"/><text x="77.0" y="-101.3" text-anchor="middle" font-size="5.3" font-family="Tahoma,Geneva,sans-serif" font-weight="bold" fill="rgb(100,100,100)">U</text><circle cx="62.2" cy="-100.8" r="4.26" fill="lightgreen" stroke="#ccc" stroke-width="1.56"/><text x="62.2" y="-98.6" text-anchor="middle" font-size="5.3" font-family="Tahoma,Geneva,sans-serif" font-weight="bold" fill="rgb(100,100,100)">C</text><circle cx="47.5" cy="-98.1" r="4.26" fill="lightgreen" stroke="#ccc" stroke-width="1.56"/><text x="47.5" y="-96.0" text-anchor="middle" font-size="5.3" font-family="Tahoma,Geneva,sans-serif" font-weight="bold" fill="rgb(100,100,100)">G</text><circle cx="32.6" cy="-95.8" r="4.26" fill="lightgreen" stroke="#ccc" stroke-width="1.56"/><text x="32.6" y="-93.6" text-anchor="middle" font-size="5.3" font-family="Tahoma,Geneva,sans-serif" font-weight="bold" fill="rgb(100,100,100)">A</text><circle cx="17.8" cy="-93.9" r="4.26" fill="lightgreen" stroke="#ccc" stroke-width="1.56"/><text x="17.8" y="-91.7" text-anchor="middle" font-size="5.3" font-family="Tahoma,Geneva,sans-serif" font-weight="bold" fill="rgb(100,100,100)">G</text><circle cx="2.9" cy="-91.9" r="4.26" fill="lightgreen" stroke="#ccc" stroke-width="1.56"/><text x="2.9" y="-89.8" text-anchor="middle" font-size="5.3" font-family="Tahoma,Geneva,sans-serif" font-weight="bold" fill="rgb(100,100,100)">A</text><circle cx="-10.7" cy="-97.3" r="4.26" fill="lightblue" stroke="#ccc" stroke-width="1.56"/><text x="-10.7" y="-95.1" text-anchor="middle" font-size="5.3" font-family="Tahoma,Geneva,sans-serif" font-weight="bold" fill="rgb(100,100,100)">G</text><circle cx="-25.2" cy="-99.9" r="4.26" fill="lightgreen" stroke="#ccc" stroke-width="1.56"/><text x="-25.2" y="-97.8" text-anchor="middle" font-size="5.3" font-family="Tahoma,Geneva,sans-serif" font-weight="bold" fill="rgb(100,100,100)">U</text><circle cx="-34.9" cy="-87.4" r="4.26" fill="lightgreen" stroke="#ccc" stroke-width="1.56"/><text x="-34.9" y="-85.3" text-anchor="middle" font-size="5.3" font-family="Tahoma,Geneva,sans-serif" font-weight="bold" fill="rgb(100,100,100)">C</text><circle cx="-32.9" cy="-71.8" r="4.26" fill="lightgreen" stroke="#ccc" stroke-width="1.56"/><text x="-32.9" y="-69.6" text-anchor="middle" font-size="5.3" font-family="Tahoma,Geneva,sans-serif" font-weight="bold" fill="rgb(100,100,100)">A</text><circle cx="-20.3" cy="-62.2" r="4.26" fill="lightgreen" stroke="#ccc" stroke-width="1.56"/><text x="-20.3" y="-60.1" text-anchor="middle" font-size="5.3" font-family="Tahoma,Geneva,sans-serif" font-weight="bold" fill="rgb(100,100,100)">U</text><circle cx="-7.0" cy="-68.4" r="4.26" fill="lightblue" stroke="#ccc" stroke-width="1.56"/><text x="-7.0" y="-66.3" text-anchor="middle" font-size="5.3" font-family="Tahoma,Geneva,sans-serif" font-weight="bold" fill="rgb(100,100,100)">A</text><circle cx="4.8" cy="-77.0" r="4.26" fill="lightgreen" stroke="#ccc" stroke-width="1.56"/><text x="4.8" y="-74.9" text-anchor="middle" font-size="5.3" font-family="Tahoma,Geneva,sans-serif" font-weight="bold" fill="rgb(100,100,100)">U</text><circle cx="19.7" cy="-79.0" r="4.26" fill="lightgreen" stroke="#ccc" stroke-width="1.56"/><text x="19.7" y="-76.8" text-anchor="middle" font-size="5.3" font-family="Tahoma,Geneva,sans-serif" font-weight="bold" fill="rgb(100,100,100)">C</text><circle cx="34.6" cy="-80.9" r="4.26" fill="lightgreen" stroke="#ccc" stroke-width="1.56"/><text x="34.6" y="-78.8" text-anchor="middle" font-size="5.3" font-family="Tahoma,Geneva,sans-serif" font-weight="bold" fill="rgb(100,100,100)">U</text><circle cx="44.2" cy="-70.4" r="4.26" fill="#dbdb8d" stroke="#ccc" stroke-width="1.56"/><text x="44.2" y="-68.3" text-anchor="middle" font-size="5.3" font-family="Tahoma,Geneva,sans-serif" font-weight="bold" fill="rgb(100,100,100)">A</text><circle cx="50.2" cy="-83.3" r="4.26" fill="lightgreen" stroke="#ccc" stroke-width="1.56"/><text x="50.2" y="-81.2" text-anchor="middle" font-size="5.3" font-family="Tahoma,Geneva,sans-serif" font-weight="bold" fill="rgb(100,100,100)">C</text><circle cx="64.9" cy="-86.0" r="4.26" fill="lightgreen" stroke="#ccc" stroke-width="1.56"/><text x="64.9" y="-83.9" text-anchor="middle" font-size="5.3" font-family="Tahoma,Geneva,sans-serif" font-weight="bold" fill="rgb(100,100,100)">G</text><circle cx="79.7" cy="-88.7" r="4.26" fill="lightgreen" stroke="#ccc" stroke-width="1.56"/><text x="79.7" y="-86.6" text-anchor="middle" font-size="5.3" font-family="Tahoma,Geneva,sans-serif" font-weight="bold" fill="rgb(100,100,100)">A</text><circle cx="94.4" cy="-91.4" r="4.26" fill="lightgreen" stroke="#ccc" stroke-width="1.56"/><text x="94.4" y="-89.3" text-anchor="middle" font-size="5.3" font-family="Tahoma,Geneva,sans-serif" font-weight="bold" fill="rgb(100,100,100)">G</text><circle cx="104.6" cy="-81.4" r="4.26" fill="#dbdb8d" stroke="#ccc" stroke-width="1.56"/><text x="104.6" y="-79.3" text-anchor="middle" font-size="5.3" font-family="Tahoma,Geneva,sans-serif" font-weight="bold" fill="rgb(100,100,100)">A</text><circle cx="109.9" cy="-94.6" r="4.26" fill="lightgreen" stroke="#ccc" stroke-width="1.56"/><text x="109.9" y="-92.5" text-anchor="middle" font-size="5.3" font-family="Tahoma,Geneva,sans-serif" font-weight="bold" fill="rgb(100,100,100)">C</text><circle cx="124.5" cy="-98.1" r="4.26" fill="lightgreen" stroke="#ccc" stroke-width="1.56"/><text x="124.5" y="-95.9" text-anchor="middle" font-size="5.3" font-family="Tahoma,Geneva,sans-serif" font-weight="bold" fill="rgb(100,100,100)">A</text><circle cx="139.1" cy="-101.5" r="4.26" fill="lightgreen" stroke="#ccc" stroke-width="1.56"/><text x="139.1" y="-99.4" text-anchor="middle" font-size="5.3" font-family="Tahoma,Geneva,sans-serif" font-weight="bold" fill="rgb(100,100,100)">U</text><circle cx="153.7" cy="-105.0" r="4.26" fill="lightgreen" stroke="#ccc" stroke-width="1.56"/><text x="153.7" y="-102.8" text-anchor="middle" font-size="5.3" font-family="Tahoma,Geneva,sans-serif" font-weight="bold" fill="rgb(100,100,100)">G</text><circle cx="168.3" cy="-108.4" r="4.26" fill="lightgreen" stroke="#ccc" stroke-width="1.56"/><text x="168.3" y="-106.3" text-anchor="middle" font-size="5.3" font-family="Tahoma,Geneva,sans-serif" font-weight="bold" fill="rgb(100,100,100)">U</text><circle cx="183.1" cy="-110.3" r="4.26" fill="lightgreen" stroke="#ccc" stroke-width="1.56"/><text x="183.1" y="-108.2" text-anchor="middle" font-size="5.3" font-family="Tahoma,Geneva,sans-serif" font-weight="bold" fill="rgb(100,100,100)">C</text><circle cx="198.1" cy="-110.7" r="4.26" fill="lightgreen" stroke="#ccc" stroke-width="1.56"/><text x="198.1" y="-108.6" text-anchor="middle" font-size="5.3" font-family="Tahoma,Geneva,sans-serif" font-weight="bold" fill="rgb(100,100,100)">A</text><circle cx="213.1" cy="-111.1" r="4.26" fill="lightgreen" stroke="#ccc" stroke-width="1.56"/><text x="213.1" y="-109.0" text-anchor="middle" font-size="5.3" font-family="Tahoma,Geneva,sans-serif" font-weight="bold" fill="rgb(100,100,100)">U</text><circle cx="228.1" cy="-111.5" r="4.26" fill="lightgreen" stroke="#ccc" stroke-width="1.56"/><text x="228.1" y="-109.4" text-anchor="middle" font-size="5.3" font-family="Tahoma,Geneva,sans-serif" font-weight="bold" fill="rgb(100,100,100)">C</text><circle cx="243.1" cy="-111.9" r="4.26" fill="lightgreen" stroke="#ccc" stroke-width="1.56"/><text x="243.1" y="-109.7" text-anchor="middle" font-size="5.3" font-family="Tahoma,Geneva,sans-serif" font-weight="bold" fill="rgb(100,100,100)">C</text><circle cx="258.1" cy="-112.3" r="4.26" fill="lightgreen" stroke="#ccc" stroke-width="1.56"/><text x="258.1" y="-110.1" text-anchor="middle" font-size="5.3" font-family="Tahoma,Geneva,sans-serif" font-weight="bold" fill="rgb(100,100,100)">G</text><circle cx="273.1" cy="-112.6" r="4.26" fill="lightgreen" stroke="#ccc" stroke-width="1.56"/><text x="273.1" y="-110.5" text-anchor="middle" font-size="5.3" font-family="Tahoma,Geneva,sans-serif" font-weight="bold" fill="rgb(100,100,100)">U</text><circle cx="288.1" cy="-113.0" r="4.26" fill="lightgreen" stroke="#ccc" stroke-width="1.56"/><text x="288.1" y="-110.9" text-anchor="middle" font-size="5.3" font-family="Tahoma,Geneva,sans-serif" font-weight="bold" fill="rgb(100,100,100)">G</text><circle cx="303.1" cy="-113.4" r="4.26" fill="lightgreen" stroke="#ccc" stroke-width="1.56"/><text x="303.1" y="-111.3" text-anchor="middle" font-size="5.3" font-family="Tahoma,Geneva,sans-serif" font-weight="bold" fill="rgb(100,100,100)">U</text><circle cx="318.1" cy="-113.8" r="4.26" fill="lightgreen" stroke="#ccc" stroke-width="1.56"/><text x="318.1" y="-111.7" text-anchor="middle" font-size="5.3" font-family="Tahoma,Geneva,sans-serif" font-weight="bold" fill="rgb(100,100,100)">C</text><circle cx="330.7" cy="-103.8" r="4.26" fill="lightgreen" stroke="#ccc" stroke-width="1.56"/><text x="330.7" y="-101.7" text-anchor="middle" font-size="5.3" font-family="Tahoma,Geneva,sans-serif" font-weight="bold" fill="rgb(100,100,100)">G</text><circle cx="346.3" cy="-107.6" r="4.26" fill="lightgreen" stroke="#ccc" stroke-width="1.56"/><text x="346.3" y="-105.5" text-anchor="middle" font-size="5.3" font-family="Tahoma,Geneva,sans-serif" font-weight="bold" fill="rgb(100,100,100)">U</text><circle cx="352.9" cy="-122.2" r="4.26" fill="lightgreen" stroke="#ccc" stroke-width="1.56"/><text x="352.9" y="-120.1" text-anchor="middle" font-size="5.3" font-family="Tahoma,Geneva,sans-serif" font-weight="bold" fill="rgb(100,100,100)">G</text><circle cx="345.5" cy="-136.4" r="4.26" fill="lightgreen" stroke="#ccc" stroke-width="1.56"/><text x="345.5" y="-134.3" text-anchor="middle" font-size="5.3" font-family="Tahoma,Geneva,sans-serif" font-weight="bold" fill="rgb(100,100,100)">A</text><circle cx="331.1" cy="-134.4" r="4.26" fill="lightblue" stroke="#ccc" stroke-width="1.56"/><text x="331.1" y="-132.3" text-anchor="middle" font-size="5.3" font-family="Tahoma,Geneva,sans-serif" font-weight="bold" fill="rgb(100,100,100)">G</text><circle cx="317.7" cy="-128.8" r="4.26" fill="lightgreen" stroke="#ccc" stroke-width="1.56"/><text x="317.7" y="-126.7" text-anchor="middle" font-size="5.3" font-family="Tahoma,Geneva,sans-serif" font-weight="bold" fill="rgb(100,100,100)">G</text><circle cx="302.7" cy="-128.4" r="4.26" fill="lightgreen" stroke="#ccc" stroke-width="1.56"/><text x="302.7" y="-126.3" text-anchor="middle" font-size="5.3" font-family="Tahoma,Geneva,sans-serif" font-weight="bold" fill="rgb(100,100,100)">A</text><circle cx="287.7" cy="-128.0" r="4.26" fill="lightgreen" stroke="#ccc" stroke-width="1.56"/><text x="287.7" y="-125.9" text-anchor="middle" font-size="5.3" font-family="Tahoma,Geneva,sans-serif" font-weight="bold" fill="rgb(100,100,100)">C</text><circle cx="272.7" cy="-127.6" r="4.26" fill="lightgreen" stroke="#ccc" stroke-width="1.56"/><text x="272.7" y="-125.5" text-anchor="middle" font-size="5.3" font-family="Tahoma,Geneva,sans-serif" font-weight="bold" fill="rgb(100,100,100)">A</text><circle cx="257.7" cy="-127.3" r="4.26" fill="lightgreen" stroke="#ccc" stroke-width="1.56"/><text x="257.7" y="-125.1" text-anchor="middle" font-size="5.3" font-family="Tahoma,Geneva,sans-serif" font-weight="bold" fill="rgb(100,100,100)">C</text><circle cx="242.7" cy="-126.9" r="4.26" fill="lightgreen" stroke="#ccc" stroke-width="1.56"/><text x="242.7" y="-124.7" text-anchor="middle" font-size="5.3" font-family="Tahoma,Geneva,sans-serif" font-weight="bold" fill="rgb(100,100,100)">G</text><circle cx="227.7" cy="-126.5" r="4.26" fill="lightgreen" stroke="#ccc" stroke-width="1.56"/><text x="227.7" y="-124.4" text-anchor="middle" font-size="5.3" font-family="Tahoma,Geneva,sans-serif" font-weight="bold" fill="rgb(100,100,100)">G</text><circle cx="212.7" cy="-126.1" r="4.26" fill="lightgreen" stroke="#ccc" stroke-width="1.56"/><text x="212.7" y="-124.0" text-anchor="middle" font-size="5.3" font-family="Tahoma,Geneva,sans-serif" font-weight="bold" fill="rgb(100,100,100)">A</text><circle cx="197.7" cy="-125.7" r="4.26" fill="lightgreen" stroke="#ccc" stroke-width="1.56"/><text x="197.7" y="-123.6" text-anchor="middle" font-size="5.3" font-family="Tahoma,Geneva,sans-serif" font-weight="bold" fill="rgb(100,100,100)">U</text><circle cx="182.7" cy="-125.3" r="4.26" fill="lightgreen" stroke="#ccc" stroke-width="1.56"/><text x="182.7" y="-123.2" text-anchor="middle" font-size="5.3" font-family="Tahoma,Geneva,sans-serif" font-weight="bold" fill="rgb(100,100,100)">G</text><circle cx="176.3" cy="-140.5" r="4.26" fill="lightsalmon" stroke="#ccc" stroke-width="1.56"/><text x="176.3" y="-138.3" text-anchor="middle" font-size="5.3" font-family="Tahoma,Geneva,sans-serif" font-weight="bold" fill="rgb(100,100,100)">C</text><circle cx="167.5" cy="-154.6" r="4.26" fill="lightsalmon" stroke="#ccc" stroke-width="1.56"/><text x="167.5" y="-152.4" text-anchor="middle" font-size="5.3" font-family="Tahoma,Geneva,sans-serif" font-weight="bold" fill="rgb(100,100,100)">U</text></svg>