<svg xmlns="http://www.w3.org/2000/svg" viewBox="-84.1 -228.9 327.3 316.4" width="327" height="316"><style></style><line x1="8.9" y1="-157.2" x2="1.8" y2="-144.0" stroke="#999" stroke-width="1.60" stroke-opacity="0.8"/><line x1="22.1" y1="-150.1" x2="15.0" y2="-136.9" stroke="#999" stroke-width="1.60" stroke-opacity="0.8"/><line x1="35.3" y1="-143.1" x2="28.2" y2="-129.8" stroke="#999" stroke-width="1.60" stroke-opacity="0.8"/><line x1="48.5" y1="-136.0" x2="41.5" y2="-122.8" stroke="#999" stroke-width="1.60" stroke-opacity="0.8"/><line x1="61.8" y1="-128.9" x2="54.7" y2="-115.7" stroke="#999" stroke-width="1.60" stroke-opacity="0.8"/><line x1="-25.6" y1="-197.0" x2="52.4" y2="-94.1" stroke="#d9534f" stroke-width="1.60" stroke-opacity="0.6"/><line x1="-10.4" y1="-195.0" x2="59.9" y2="-73.7" stroke="#d9534f" stroke-width="1.60" stroke-opacity="0.6"/><line x1="2.1" y1="-186.2" x2="75.7" y2="-58.7" stroke="#d9534f" stroke-width="1.60" stroke-opacity="0.6"/><line x1="9.0" y1="-172.5" x2="96.4" y2="-52.2" stroke="#d9534f" stroke-width="1.60" stroke-opacity="0.6"/><line x1="133.3" y1="-29.8" x2="146.2" y2="-37.5" stroke="#999" stroke-width="1.60" stroke-opacity="0.8"/><line x1="125.6" y1="-42.7" x2="138.5" y2="-50.4" stroke="#999" stroke-width="1.60" stroke-opacity="0.8"/><line x1="117.9" y1="-55.5" x2="130.8" y2="-63.2" stroke="#999" stroke-width="1.60" stroke-opacity="0.8"/><line x1="189.9" y1="-33.7" x2="137.8" y2="-70.5" stroke="#d9534f" stroke-width="1.60" stroke-opacity="0.6"/><line x1="201.3" y1="-23.8" x2="143.1" y2="-79.0" stroke="#d9534f" stroke-width="1.60" stroke-opacity="0.6"/><line x1="209.1" y1="-10.8" x2="146.5" y2="-88.5" stroke="#d9534f" stroke-width="1.60" stroke-opacity="0.6"/><line x1="211.2" y1="19.0" x2="147.9" y2="-98.5" stroke="#d9534f" stroke-width="1.60" stroke-opacity="0.6"/><line x1="205.3" y1="32.9" x2="147.2" y2="-108.5" stroke="#d9534f" stroke-width="1.60" stroke-opacity="0.6"/><line x1="195.3" y1="44.4" x2="144.4" y2="-118.2" stroke="#d9534f" stroke-width="1.60" stroke-opacity="0.6"/><line x1="182.4" y1="52.1" x2="133.1" y2="-134.7" stroke="#d9534f" stroke-width="1.60" stroke-opacity="0.6"/><line x1="167.6" y1="55.5" x2="125.1" y2="-140.9" stroke="#d9534f" stroke-width="1.60" stroke-opacity="0.6"/><line x1="152.6" y1="54.2" x2="116.0" y2="-145.2" stroke="#d9534f" stroke-width="1.60" stroke-opacity="0.6"/><line x1="138.6" y1="48.2" x2="106.2" y2="-147.5" stroke="#d9534f" stroke-width="1.60" stroke-opacity="0.6"/><line x1="127.2" y1="38.3" x2="96.1" y2="-147.8" stroke="#d9534f" stroke-width="1.60" stroke-opacity="0.6"/><line x1="119.5" y1="25.3" x2="86.2" y2="-145.9" stroke="#d9534f" stroke-width="1.60" stroke-opacity="0.6"/><line x1="116.1" y1="10.6" x2="76.9" y2="-142.0" stroke="#d9534f" stroke-width="1.60" stroke-opacity="0.6"/><line x1="61.8" y1="-128.9" x2="48.5" y2="-136.0" stroke="#999" stroke-width="1.60" stroke-opacity="0.8"/><line x1="48.5" y1="-136.0" x2="35.3" y2="-143.1" stroke="#999" stroke-width="1.60" stroke-opacity="0.8"/><line x1="35.3" y1="-143.1" x2="22.1" y2="-150.1" stroke="#999" stroke-width="1.60" stroke-opacity="0.8"/><line x1="22.1" y1="-150.1" x2="8.9" y2="-157.2" stroke="#999" stroke-width="1.60" stroke-opacity="0.8"/><line x1="8.9" y1="-157.2" x2="9.0" y2="-172.5" stroke="#999" stroke-width="1.60" stroke-opacity="0.8"/><line x1="9.0" y1="-172.5" x2="2.1" y2="-186.2" stroke="#999" stroke-width="1.60" stroke-opacity="0.8"/><line x1="2.1" y1="-186.2" x2="-10.4" y2="-195.0" stroke="#999" stroke-width="1.60" stroke-opacity="0.8"/><line x1="-10.4" y1="-195.0" x2="-25.6" y2="-197.0" stroke="#999" stroke-width="1.60" stroke-opacity="0.8"/><line x1="-25.6" y1="-197.0" x2="-38.6" y2="-190.4" stroke="#999" stroke-width="1.60" stroke-opacity="0.8"/><line x1="-38.6" y1="-190.4" x2="-48.4" y2="-179.6" stroke="#999" stroke-width="1.60" stroke-opacity="0.8"/><line x1="-48.4" y1="-179.6" x2="-52.2" y2="-165.6" stroke="#999" stroke-width="1.60" stroke-opacity="0.8"/><line x1="-52.2" y1="-165.6" x2="-48.8" y2="-151.4" stroke="#999" stroke-width="1.60" stroke-opacity="0.8"/><line x1="-48.8" y1="-151.4" x2="-39.2" y2="-140.5" stroke="#999" stroke-width="1.60" stroke-opacity="0.8"/><line x1="-39.2" y1="-140.5" x2="-25.5" y2="-135.4" stroke="#999" stroke-width="1.60" stroke-opacity="0.8"/><line x1="-25.5" y1="-135.4" x2="-11.1" y2="-137.1" stroke="#999" stroke-width="1.60" stroke-opacity="0.8"/><line x1="-11.1" y1="-137.1" x2="1.8" y2="-144.0" stroke="#999" stroke-width="1.60" stroke-opacity="0.8"/><line x1="1.8" y1="-144.0" x2="15.0" y2="-136.9" stroke="#999" stroke-width="1.60" stroke-opacity="0.8"/><line x1="15.0" y1="-136.9" x2="28.2" y2="-129.8" stroke="#999" stroke-width="1.60" stroke-opacity="0.8"/><line x1="28.2" y1="-129.8" x2="41.5" y2="-122.8" stroke="#999" stroke-width="1.60" stroke-opacity="0.8"/><line x1="41.5" y1="-122.8" x2="54.7" y2="-115.7" stroke="#999" stroke-width="1.60" stroke-opacity="0.8"/><line x1="54.7" y1="-115.7" x2="52.4" y2="-94.1" stroke="#999" stroke-width="1.60" stroke-opacity="0.8"/><line x1="52.4" y1="-94.1" x2="59.9" y2="-73.7" stroke="#999" stroke-width="1.60" stroke-opacity="0.8"/><line x1="59.9" y1="-73.7" x2="75.7" y2="-58.7" stroke="#999" stroke-width="1.60" stroke-opacity="0.8"/><line x1="75.7" y1="-58.7" x2="96.4" y2="-52.2" stroke="#999" stroke-width="1.60" stroke-opacity="0.8"/><line x1="96.4" y1="-52.2" x2="117.9" y2="-55.5" stroke="#999" stroke-width="1.60" stroke-opacity="0.8"/><line x1="117.9" y1="-55.5" x2="125.6" y2="-42.7" stroke="#999" stroke-width="1.60" stroke-opacity="0.8"/><line x1="125.6" y1="-42.7" x2="133.3" y2="-29.8" stroke="#999" stroke-width="1.60" stroke-opacity="0.8"/><line x1="133.3" y1="-29.8" x2="124.9" y2="-17.6" stroke="#999" stroke-width="1.60" stroke-opacity="0.8"/><line x1="124.9" y1="-17.6" x2="119.1" y2="-4.0" stroke="#999" stroke-width="1.60" stroke-opacity="0.8"/><line x1="119.1" y1="-4.0" x2="116.1" y2="10.6" stroke="#999" stroke-width="1.60" stroke-opacity="0.8"/><line x1="116.1" y1="10.6" x2="119.5" y2="25.3" stroke="#999" stroke-width="1.60" stroke-opacity="0.8"/><line x1="119.5" y1="25.3" x2="127.2" y2="38.3" stroke="#999" stroke-width="1.60" stroke-opacity="0.8"/><line x1="127.2" y1="38.3" x2="138.6" y2="48.2" stroke="#999" stroke-width="1.60" stroke-opacity="0.8"/><line x1="138.6" y1="48.2" x2="152.6" y2="54.2" stroke="#999" stroke-width="1.60" stroke-opacity="0.8"/><line x1="152.6" y1="54.2" x2="167.6" y2="55.5" stroke="#999" stroke-width="1.60" stroke-opacity="0.8"/><line x1="167.6" y1="55.5" x2="182.4" y2="52.1" stroke="#999" stroke-width="1.60" stroke-opacity="0.8"/><line x1="182.4" y1="52.1" x2="195.3" y2="44.4" stroke="#999" stroke-width="1.60" stroke-opacity="0.8"/><line x1="195.3" y1="44.4" x2="205.3" y2="32.9" stroke="#999" stroke-width="1.60" stroke-opacity="0.8"/><line x1="205.3" y1="32.9" x2="211.2" y2="19.0" stroke="#999" stroke-width="1.60" stroke-opacity="0.8"/><line x1="211.2" y1="19.0" x2="211.0" y2="4.1" stroke="#999" stroke-width="1.60" stroke-opacity="0.8"/><line x1="211.0" y1="4.1" x2="209.1" y2="-10.8" stroke="#999" stroke-width="1.60" stroke-opacity="0.8"/><line x1="209.1" y1="-10.8" x2="201.3" y2="-23.8" stroke="#999" stroke-width="1.60" stroke-opacity="0.8"/><line x1="201.3" y1="-23.8" x2="189.9" y2="-33.7" stroke="#999" stroke-width="1.60" stroke-opacity="0.8"/><line x1="189.9" y1="-33.7" x2="175.7" y2="-37.9" stroke="#999" stroke-width="1.60" stroke-opacity="0.8"/><line x1="175.7" y1="-37.9" x2="160.9" y2="-39.2" stroke="#999" stroke-width="1.60" stroke-opacity="0.8"/><line x1="160.9" y1="-39.2" x2="146.2" y2="-37.5" stroke="#999" stroke-width="1.60" stroke-opacity="0.8"/><line x1="146.2" y1="-37.5" x2="138.5" y2="-50.4" stroke="#999" stroke-width="1.60" stroke-opacity="0.8"/><line x1="138.5" y1="-50.4" x2="130.8" y2="-63.2" stroke="#999" stroke-width="1.60" stroke-opacity="0.8"/><line x1="130.8" y1="-63.2" x2="137.8" y2="-70.5" stroke="#999" stroke-width="1.60" stroke-opacity="0.8"/><line x1="137.8" y1="-70.5" x2="143.1" y2="-79.0" stroke="#999" stroke-width="1.60" stroke-opacity="0.8"/><line x1="143.1" y1="-79.0" x2="146.5" y2="-88.5" stroke="#999" stroke-width="1.60" stroke-opacity="0.8"/><line x1="146.5" y1="-88.5" x2="147.9" y2="-98.5" stroke="#999" stroke-width="1.60" stroke-opacity="0.8"/><line x1="147.9" y1="-98.5" x2="147.2" y2="-108.5" stroke="#999" stroke-width="1.60" stroke-opacity="0.8"/><line x1="147.2" y1="-108.5" x2="144.4" y2="-118.2" stroke="#999" stroke-width="1.60" stroke-opacity="0.8"/><line x1="144.4" y1="-118.2" x2="147.4" y2="-132.4" stroke="#999" stroke-width="1.60" stroke-opacity="0.8"/><line x1="147.4" y1="-132.4" x2="133.1" y2="-134.7" stroke="#999" stroke-width="1.60" stroke-opacity="0.8"/><line x1="133.1" y1="-134.7" x2="125.1" y2="-140.9" stroke="#999" stroke-width="1.60" stroke-opacity="0.8"/><line x1="125.1" y1="-140.9" x2="116.0" y2="-145.2" stroke="#999" stroke-width="1.60" stroke-opacity="0.8"/><line x1="116.0" y1="-145.2" x2="106.2" y2="-147.5" stroke="#999" stroke-width="1.60" stroke-opacity="0.8"/><line x1="106.2" y1="-147.5" x2="96.1" y2="-147.8" stroke="#999" stroke-width="1.60" stroke-opacity="0.8"/><line x1="96.1" y1="-147.8" x2="86.2" y2="-145.9" stroke="#999" stroke-width="1.60" stroke-opacity="0.8"/><line x1="86.2" y1="-145.9" x2="76.9" y2="-142.0" stroke="#999" stroke-width="1.60" stroke-opacity="0.8"/><text x="70.0" y="-141.7" text-anchor="middle" font-size="7.6" font-family="Tahoma,Geneva,sans-serif" fill="#999">1</text><text x="-49.2" y="-201.7" text-anchor="middle" font-size="7.6" font-family="Tahoma,Geneva,sans-serif" fill="#999">10</text><text x="33.3" y="-104.8" text-anchor="middle" font-size="7.6" font-family="Tahoma,Geneva,sans-serif" fill="#999">20</text><text x="102.4" y="-6.5" text-anchor="middle" font-size="7.6" font-family="Tahoma,Geneva,sans-serif" fill="#999">30</text><text x="228.3" y="25.1" text-anchor="middle" font-size="7.6" font-family="Tahoma,Geneva,sans-serif" fill="#999">40</text><text x="124.0" y="-78.6" text-anchor="middle" font-size="7.6" font-family="Tahoma,Geneva,sans-serif" fill="#999">50</text><text x="108.4" y="-162.2" text-anchor="middle" font-size="7.6" font-family="Tahoma,Geneva,sans-serif" fill="#999">60</text><circle cx="61.8" cy="-128.9" r="4.36" fill="lightgreen" stroke="#ccc" stroke-width="1.60"/><text x="61.8" y="-126.8" text-anchor="middle" font-size="5.4" font-family="Tahoma,Geneva,sans-serif" font-weight="bold" fill="rgb(100,100,100)">C</text><circle cx="48.5" cy="-136.0" r="4.36" fill="lightgreen" stroke="#ccc" stroke-width="1.60"/><text x="48.5" y="-133.8" text-anchor="middle" font-size="5.4" font-family="Tahoma,Geneva,sans-serif" font-weight="bold" fill="rgb(100,100,100)">U</text><circle cx="35.3" cy="-143.1" r="4.36" fill="lightgreen" stroke="#ccc" stroke-width="1.60"/><text x="35.3" y="-140.9" text-anchor="middle" font-size="5.4" font-family="Tahoma,Geneva,sans-serif" font-weight="bold" fill="rgb(100,100,100)">G</text><circle cx="22.1" cy="-150.1" r="4.36" fill="lightgreen" stroke="#ccc" stroke-width="1.60"/><text x="22.1" y="-148.0" text-anchor="middle" font-size="5.4" font-family="Tahoma,Geneva,sans-serif" font-weight="bold" fill="rgb(100,100,100)">U</text><circle cx="8.9" cy="-157.2" r="4.36" fill="lightgreen" stroke="#ccc" stroke-width="1.60"/><text x="8.9" y="-155.0" text-anchor="middle" font-size="5.4" font-family="Tahoma,Geneva,sans-serif" font-weight="bold" fill="rgb(100,100,100)">U</text><circle cx="9.0" cy="-172.5" r="4.36" fill="lightgreen" stroke="#ccc" stroke-width="1.60"/><text x="9.0" y="-170.3" text-anchor="middle" font-size="5.4" font-family="Tahoma,Geneva,sans-serif" font-weight="bold" fill="rgb(100,100,100)">U</text><circle cx="2.1" cy="-186.2" r="4.36" fill="lightgreen" stroke="#ccc" stroke-width="1.60"/><text x="2.1" y="-184.0" text-anchor="middle" font-size="5.4" font-family="Tahoma,Geneva,sans-serif" font-weight="bold" fill="rgb(100,100,100)">G</text><circle cx="-10.4" cy="-195.0" r="4.36" fill="lightgreen" stroke="#ccc" stroke-width="1.60"/><text x="-10.4" y="-192.8" text-anchor="middle" font-size="5.4" font-family="Tahoma,Geneva,sans-serif" font-weight="bold" fill="rgb(100,100,100)">G</text><circle cx="-25.6" cy="-197.0" r="4.36" fill="lightgreen" stroke="#ccc" stroke-width="1.60"/><text x="-25.6" y="-194.8" text-anchor="middle" font-size="5.4" font-family="Tahoma,Geneva,sans-serif" font-weight="bold" fill="rgb(100,100,100)">U</text><circle cx="-38.6" cy="-190.4" r="4.36" fill="lightblue" stroke="#ccc" stroke-width="1.60"/><text x="-38.6" y="-188.2" text-anchor="middle" font-size="5.4" font-family="Tahoma,Geneva,sans-serif" font-weight="bold" fill="rgb(100,100,100)">C</text><circle cx="-48.4" cy="-179.6" r="4.36" fill="lightblue" stroke="#ccc" stroke-width="1.60"/><text x="-48.4" y="-177.5" text-anchor="middle" font-size="5.4" font-family="Tahoma,Geneva,sans-serif" font-weight="bold" fill="rgb(100,100,100)">C</text><circle cx="-52.2" cy="-165.6" r="4.36" fill="lightblue" stroke="#ccc" stroke-width="1.60"/><text x="-52.2" y="-163.4" text-anchor="middle" font-size="5.4" font-family="Tahoma,Geneva,sans-serif" font-weight="bold" fill="rgb(100,100,100)">G</text><circle cx="-48.8" cy="-151.4" r="4.36" fill="lightblue" stroke="#ccc" stroke-width="1.60"/><text x="-48.8" y="-149.2" text-anchor="middle" font-size="5.4" font-family="Tahoma,Geneva,sans-serif" font-weight="bold" fill="rgb(100,100,100)">U</text><circle cx="-39.2" cy="-140.5" r="4.36" fill="lightblue" stroke="#ccc" stroke-width="1.60"/><text x="-39.2" y="-138.3" text-anchor="middle" font-size="5.4" font-family="Tahoma,Geneva,sans-serif" font-weight="bold" fill="rgb(100,100,100)">U</text><circle cx="-25.5" cy="-135.4" r="4.36" fill="lightblue" stroke="#ccc" stroke-width="1.60"/><text x="-25.5" y="-133.2" text-anchor="middle" font-size="5.4" font-family="Tahoma,Geneva,sans-serif" font-weight="bold" fill="rgb(100,100,100)">U</text><circle cx="-11.1" cy="-137.1" r="4.36" fill="lightblue" stroke="#ccc" stroke-width="1.60"/><text x="-11.1" y="-135.0" text-anchor="middle" font-size="5.4" font-family="Tahoma,Geneva,sans-serif" font-weight="bold" fill="rgb(100,100,100)">C</text><circle cx="1.8" cy="-144.0" r="4.36" fill="lightgreen" stroke="#ccc" stroke-width="1.60"/><text x="1.8" y="-141.8" text-anchor="middle" font-size="5.4" font-family="Tahoma,Geneva,sans-serif" font-weight="bold" fill="rgb(100,100,100)">A</text><circle cx="15.0" cy="-136.9" r="4.36" fill="lightgreen" stroke="#ccc" stroke-width="1.60"/><text x="15.0" y="-134.7" text-anchor="middle" font-size="5.4" font-family="Tahoma,Geneva,sans-serif" font-weight="bold" fill="rgb(100,100,100)">G</text><circle cx="28.2" cy="-129.8" r="4.36" fill="lightgreen" stroke="#ccc" stroke-width="1.60"/><text x="28.2" y="-127.7" text-anchor="middle" font-size="5.4" font-family="Tahoma,Geneva,sans-serif" font-weight="bold" fill="rgb(100,100,100)">C</text><circle cx="41.5" cy="-122.8" r="4.36" fill="lightgreen" stroke="#ccc" stroke-width="1.60"/><text x="41.5" y="-120.6" text-anchor="middle" font-size="5.4" font-family="Tahoma,Geneva,sans-serif" font-weight="bold" fill="rgb(100,100,100)">A</text><circle cx="54.7" cy="-115.7" r="4.36" fill="lightgreen" stroke="#ccc" stroke-width="1.60"/><text x="54.7" y="-113.5" text-anchor="middle" font-size="5.4" font-family="Tahoma,Geneva,sans-serif" font-weight="bold" fill="rgb(100,100,100)">G</text><circle cx="52.4" cy="-94.1" r="4.36" fill="lightgreen" stroke="#ccc" stroke-width="1.60"/><text x="52.4" y="-91.9" text-anchor="middle" font-size="5.4" font-family="Tahoma,Geneva,sans-serif" font-weight="bold" fill="rgb(100,100,100)">A</text><circle cx="59.9" cy="-73.7" r="4.36" fill="lightgreen" stroke="#ccc" stroke-width="1.60"/><text x="59.9" y="-71.5" text-anchor="middle" font-size="5.4" font-family="Tahoma,Geneva,sans-serif" font-weight="bold" fill="rgb(100,100,100)">C</text><circle cx="75.7" cy="-58.7" r="4.36" fill="lightgreen" stroke="#ccc" stroke-width="1.60"/><text x="75.7" y="-56.5" text-anchor="middle" font-size="5.4" font-family="Tahoma,Geneva,sans-serif" font-weight="bold" fill="rgb(100,100,100)">C</text><circle cx="96.4" cy="-52.2" r="4.36" fill="lightgreen" stroke="#ccc" stroke-width="1.60"/><text x="96.4" y="-50.0" text-anchor="middle" font-size="5.4" font-family="Tahoma,Geneva,sans-serif" font-weight="bold" fill="rgb(100,100,100)">A</text><circle cx="117.9" cy="-55.5" r="4.36" fill="lightgreen" stroke="#ccc" stroke-width="1.60"/><text x="117.9" y="-53.4" text-anchor="middle" font-size="5.4" font-family="Tahoma,Geneva,sans-serif" font-weight="bold" fill="rgb(100,100,100)">U</text><circle cx="125.6" cy="-42.7" r="4.36" fill="lightgreen" stroke="#ccc" stroke-width="1.60"/><text x="125.6" y="-40.5" text-anchor="middle" font-size="5.4" font-family="Tahoma,Geneva,sans-serif" font-weight="bold" fill="rgb(100,100,100)">G</text><circle cx="133.3" cy="-29.8" r="4.36" fill="lightgreen" stroke="#ccc" stroke-width="1.60"/><text x="133.3" y="-27.6" text-anchor="middle" font-size="5.4" font-family="Tahoma,Geneva,sans-serif" font-weight="bold" fill="rgb(100,100,100)">C</text><circle cx="124.9" cy="-17.6" r="4.36" fill="lightblue" stroke="#ccc" stroke-width="1.60"/><text x="124.9" y="-15.4" text-anchor="middle" font-size="5.4" font-family="Tahoma,Geneva,sans-serif" font-weight="bold" fill="rgb(100,100,100)">A</text><circle cx="119.1" cy="-4.0" r="4.36" fill="lightblue" stroke="#ccc" stroke-width="1.60"/><text x="119.1" y="-1.8" text-anchor="middle" font-size="5.4" font-family="Tahoma,Geneva,sans-serif" font-weight="bold" fill="rgb(100,100,100)">U</text><circle cx="116.1" cy="10.6" r="4.36" fill="lightgreen" stroke="#ccc" stroke-width="1.60"/><text x="116.1" y="12.8" text-anchor="middle" font-size="5.4" font-family="Tahoma,Geneva,sans-serif" font-weight="bold" fill="rgb(100,100,100)">G</text><circle cx="119.5" cy="25.3" r="4.36" fill="lightgreen" stroke="#ccc" stroke-width="1.60"/><text x="119.5" y="27.5" text-anchor="middle" font-size="5.4" font-family="Tahoma,Geneva,sans-serif" font-weight="bold" fill="rgb(100,100,100)">C</text><circle cx="127.2" cy="38.3" r="4.36" fill="lightgreen" stroke="#ccc" stroke-width="1.60"/><text x="127.2" y="40.5" text-anchor="middle" font-size="5.4" font-family="Tahoma,Geneva,sans-serif" font-weight="bold" fill="rgb(100,100,100)">C</text><circle cx="138.6" cy="48.2" r="4.36" fill="lightgreen" stroke="#ccc" stroke-width="1.60"/><text x="138.6" y="50.4" text-anchor="middle" font-size="5.4" font-family="Tahoma,Geneva,sans-serif" font-weight="bold" fill="rgb(100,100,100)">G</text><circle cx="152.6" cy="54.2" r="4.36" fill="lightgreen" stroke="#ccc" stroke-width="1.60"/><text x="152.6" y="56.4" text-anchor="middle" font-size="5.4" font-family="Tahoma,Geneva,sans-serif" font-weight="bold" fill="rgb(100,100,100)">G</text><circle cx="167.6" cy="55.5" r="4.36" fill="lightgreen" stroke="#ccc" stroke-width="1.60"/><text x="167.6" y="57.7" text-anchor="middle" font-size="5.4" font-family="Tahoma,Geneva,sans-serif" font-weight="bold" fill="rgb(100,100,100)">U</text><circle cx="182.4" cy="52.1" r="4.36" fill="lightgreen" stroke="#ccc" stroke-width="1.60"/><text x="182.4" y="54.3" text-anchor="middle" font-size="5.4" font-family="Tahoma,Geneva,sans-serif" font-weight="bold" fill="rgb(100,100,100)">C</text><circle cx="195.3" cy="44.4" r="4.36" fill="lightgreen" stroke="#ccc" stroke-width="1.60"/><text x="195.3" y="46.5" text-anchor="middle" font-size="5.4" font-family="Tahoma,Geneva,sans-serif" font-weight="bold" fill="rgb(100,100,100)">U</text><circle cx="205.3" cy="32.9" r="4.36" fill="lightgreen" stroke="#ccc" stroke-width="1.60"/><text x="205.3" y="35.1" text-anchor="middle" font-size="5.4" font-family="Tahoma,Geneva,sans-serif" font-weight="bold" fill="rgb(100,100,100)">C</text><circle cx="211.2" cy="19.0" r="4.36" fill="lightgreen" stroke="#ccc" stroke-width="1.60"/><text x="211.2" y="21.2" text-anchor="middle" font-size="5.4" font-family="Tahoma,Geneva,sans-serif" font-weight="bold" fill="rgb(100,100,100)">A</text><circle cx="211.0" cy="4.1" r="4.36" fill="lightblue" stroke="#ccc" stroke-width="1.60"/><text x="211.0" y="6.2" text-anchor="middle" font-size="5.4" font-family="Tahoma,Geneva,sans-serif" font-weight="bold" fill="rgb(100,100,100)">U</text><circle cx="209.1" cy="-10.8" r="4.36" fill="lightgreen" stroke="#ccc" stroke-width="1.60"/><text x="209.1" y="-8.6" text-anchor="middle" font-size="5.4" font-family="Tahoma,Geneva,sans-serif" font-weight="bold" fill="rgb(100,100,100)">C</text><circle cx="201.3" cy="-23.8" r="4.36" fill="lightgreen" stroke="#ccc" stroke-width="1.60"/><text x="201.3" y="-21.6" text-anchor="middle" font-size="5.4" font-family="Tahoma,Geneva,sans-serif" font-weight="bold" fill="rgb(100,100,100)">G</text><circle cx="189.9" cy="-33.7" r="4.36" fill="lightgreen" stroke="#ccc" stroke-width="1.60"/><text x="189.9" y="-31.5" text-anchor="middle" font-size="5.4" font-family="Tahoma,Geneva,sans-serif" font-weight="bold" fill="rgb(100,100,100)">A</text><circle cx="175.7" cy="-37.9" r="4.36" fill="lightblue" stroke="#ccc" stroke-width="1.60"/><text x="175.7" y="-35.7" text-anchor="middle" font-size="5.4" font-family="Tahoma,Geneva,sans-serif" font-weight="bold" fill="rgb(100,100,100)">U</text><circle cx="160.9" cy="-39.2" r="4.36" fill="lightblue" stroke="#ccc" stroke-width="1.60"/><text x="160.9" y="-37.0" text-anchor="middle" font-size="5.4" font-family="Tahoma,Geneva,sans-serif" font-weight="bold" fill="rgb(100,100,100)">A</text><circle cx="146.2" cy="-37.5" r="4.36" fill="lightgreen" stroke="#ccc" stroke-width="1.60"/><text x="146.2" y="-35.3" text-anchor="middle" font-size="5.4" font-family="Tahoma,Geneva,sans-serif" font-weight="bold" fill="rgb(100,100,100)">G</text><circle cx="138.5" cy="-50.4" r="4.36" fill="lightgreen" stroke="#ccc" stroke-width="1.60"/><text x="138.5" y="-48.2" text-anchor="middle" font-size="5.4" font-family="Tahoma,Geneva,sans-serif" font-weight="bold" fill="rgb(100,100,100)">C</text><circle cx="130.8" cy="-63.2" r="4.36" fill="lightgreen" stroke="#ccc" stroke-width="1.60"/><text x="130.8" y="-61.1" text-anchor="middle" font-size="5.4" font-family="Tahoma,Geneva,sans-serif" font-weight="bold" fill="rgb(100,100,100)">A</text><circle cx="137.8" cy="-70.5" r="4.36" fill="lightgreen" stroke="#ccc" stroke-width="1.60"/><text x="137.8" y="-68.3" text-anchor="middle" font-size="5.4" font-family="Tahoma,Geneva,sans-serif" font-weight="bold" fill="rgb(100,100,100)">U</text><circle cx="143.1" cy="-79.0" r="4.36" fill="lightgreen" stroke="#ccc" stroke-width="1.60"/><text x="143.1" y="-76.8" text-anchor="middle" font-size="5.4" font-family="Tahoma,Geneva,sans-serif" font-weight="bold" fill="rgb(100,100,100)">C</text><circle cx="146.5" cy="-88.5" r="4.36" fill="lightgreen" stroke="#ccc" stroke-width="1.60"/><text x="146.5" y="-86.3" text-anchor="middle" font-size="5.4" font-family="Tahoma,Geneva,sans-serif" font-weight="bold" fill="rgb(100,100,100)">G</text><circle cx="147.9" cy="-98.5" r="4.36" fill="lightgreen" stroke="#ccc" stroke-width="1.60"/><text x="147.9" y="-96.3" text-anchor="middle" font-size="5.4" font-family="Tahoma,Geneva,sans-serif" font-weight="bold" fill="rgb(100,100,100)">U</text><circle cx="147.2" cy="-108.5" r="4.36" fill="lightgreen" stroke="#ccc" stroke-width="1.60"/><text x="147.2" y="-106.3" text-anchor="middle" font-size="5.4" font-family="Tahoma,Geneva,sans-serif" font-weight="bold" fill="rgb(100,100,100)">G</text><circle cx="144.4" cy="-118.2" r="4.36" fill="lightgreen" stroke="#ccc" stroke-width="1.60"/><text x="144.4" y="-116.0" text-anchor="middle" font-size="5.4" font-family="Tahoma,Geneva,sans-serif" font-weight="bold" fill="rgb(100,100,100)">A</text><circle cx="147.4" cy="-132.4" r="4.36" fill="lightsalmon" stroke="#ccc" stroke-width="1.60"/><text x="147.4" y="-130.2" text-anchor="middle" font-size="5.4" font-family="Tahoma,Geneva,sans-serif" font-weight="bold" fill="rgb(100,100,100)">C</text><circle cx="133.1" cy="-134.7" r="4.36" fill="lightgreen" stroke="#ccc" stroke-width="1.60"/><text x="133.1" y="-132.5" text-anchor="middle" font-size="5.4" font-family="Tahoma,Geneva,sans-serif" font-weight="bold" fill="rgb(100,100,100)">G</text><circle cx="125.1" cy="-140.9" r="4.36" fill="lightgreen" stroke="#ccc" stroke-width="1.60"/><text x="125.1" y="-138.7" text-anchor="middle" font-size="5.4" font-family="Tahoma,Geneva,sans-serif" font-weight="bold" fill="rgb(100,100,100)">A</text><circle cx="116.0" cy="-145.2" r="4.36" fill="lightgreen" stroke="#ccc" stroke-width="1.60"/><text x="116.0" y="-143.0" text-anchor="middle" font-size="5.4" font-family="Tahoma,Geneva,sans-serif" font-weight="bold" fill="rgb(100,100,100)">C</text><circle cx="106.2" cy="-147.5" r="4.36" fill="lightgreen" stroke="#ccc" stroke-width="1.60"/><text x="106.2" y="-145.4" text-anchor="middle" font-size="5.4" font-family="Tahoma,Geneva,sans-serif" font-weight="bold" fill="rgb(100,100,100)">C</text><circle cx="96.1" cy="-147.8" r="4.36" fill="lightgreen" stroke="#ccc" stroke-width="1.60"/><text x="96.1" y="-145.6" text-anchor="middle" font-size="5.4" font-family="Tahoma,Geneva,sans-serif" font-weight="bold" fill="rgb(100,100,100)">G</text><circle cx="86.2" cy="-145.9" r="4.36" fill="lightgreen" stroke="#ccc" stroke-width="1.60"/><text x="86.2" y="-143.7" text-anchor="middle" font-size="5.4" font-family="Tahoma,Geneva,sans-serif" font-weight="bold" fill="rgb(100,100,100)">G</text><circle cx="76.9" cy="-142.0" r="4.36" fill="lightgreen" stroke="#ccc" stroke-width="1.60"/><text x="76.9" y="-139.8" text-anchor="middle" font-size="5.4" font-family="Tahoma,Geneva,sans-serif" font-weight="bold" fill="rgb(100,100,100)">C</text></svg>