<svg xmlns="http://www.w3.org/2000/svg" viewBox="-167.7 -216.6 384.4 316.9" width="384" height="317"><style></style><line x1="-13.9" y1="-40.6" x2="-6.2" y2="-27.7" stroke="#999" stroke-width="1.65" stroke-opacity="0.8"/><line x1="-1.0" y1="-48.3" x2="6.7" y2="-35.4" stroke="#999" stroke-width="1.65" stroke-opacity="0.8"/><line x1="11.9" y1="-56.0" x2="19.6" y2="-43.1" stroke="#999" stroke-width="1.65" stroke-opacity="0.8"/><line x1="24.7" y1="-63.7" x2="32.4" y2="-50.8" stroke="#999" stroke-width="1.65" stroke-opacity="0.8"/><line x1="-1.5" y1="-13.4" x2="42.3" y2="-39.6" stroke="#d9534f" stroke-width="1.65" stroke-opacity="0.6"/><line x1="-0.1" y1="1.6" x2="54.0" y2="-30.2" stroke="#d9534f" stroke-width="1.65" stroke-opacity="0.6"/><line x1="-2.1" y1="16.5" x2="67.2" y2="-23.1" stroke="#d9534f" stroke-width="1.65" stroke-opacity="0.6"/><line x1="-7.4" y1="30.6" x2="81.5" y2="-18.5" stroke="#d9534f" stroke-width="1.65" stroke-opacity="0.6"/><line x1="-15.7" y1="43.2" x2="96.3" y2="-16.5" stroke="#d9534f" stroke-width="1.65" stroke-opacity="0.6"/><line x1="-26.6" y1="53.6" x2="111.3" y2="-17.2" stroke="#d9534f" stroke-width="1.65" stroke-opacity="0.6"/><line x1="-39.5" y1="61.4" x2="125.9" y2="-20.6" stroke="#d9534f" stroke-width="1.65" stroke-opacity="0.6"/><line x1="-83.8" y1="65.4" x2="139.6" y2="-26.4" stroke="#d9534f" stroke-width="1.65" stroke-opacity="0.6"/><line x1="-97.9" y1="60.1" x2="152.1" y2="-34.7" stroke="#d9534f" stroke-width="1.65" stroke-opacity="0.6"/><line x1="-110.5" y1="51.8" x2="163.0" y2="-45.1" stroke="#d9534f" stroke-width="1.65" stroke-opacity="0.6"/><line x1="-120.9" y1="40.9" x2="171.8" y2="-57.2" stroke="#d9534f" stroke-width="1.65" stroke-opacity="0.6"/><line x1="-128.6" y1="28.0" x2="182.2" y2="-115.0" stroke="#d9534f" stroke-width="1.65" stroke-opacity="0.6"/><line x1="-133.3" y1="13.7" x2="178.2" y2="-129.4" stroke="#d9534f" stroke-width="1.65" stroke-opacity="0.6"/><line x1="-134.6" y1="-1.3" x2="171.7" y2="-142.9" stroke="#d9534f" stroke-width="1.65" stroke-opacity="0.6"/><line x1="-132.6" y1="-16.2" x2="162.9" y2="-155.0" stroke="#d9534f" stroke-width="1.65" stroke-opacity="0.6"/><line x1="-127.3" y1="-30.3" x2="152.1" y2="-165.4" stroke="#d9534f" stroke-width="1.65" stroke-opacity="0.6"/><line x1="-119.0" y1="-42.9" x2="139.5" y2="-173.6" stroke="#d9534f" stroke-width="1.65" stroke-opacity="0.6"/><line x1="-108.2" y1="-53.3" x2="125.8" y2="-179.5" stroke="#d9534f" stroke-width="1.65" stroke-opacity="0.6"/><line x1="-95.2" y1="-61.1" x2="111.2" y2="-182.8" stroke="#d9534f" stroke-width="1.65" stroke-opacity="0.6"/><line x1="-51.0" y1="-65.1" x2="81.4" y2="-181.4" stroke="#d9534f" stroke-width="1.65" stroke-opacity="0.6"/><line x1="-36.9" y1="-59.8" x2="67.1" y2="-176.8" stroke="#d9534f" stroke-width="1.65" stroke-opacity="0.6"/><line x1="-24.3" y1="-51.5" x2="53.9" y2="-169.7" stroke="#d9534f" stroke-width="1.65" stroke-opacity="0.6"/><line x1="24.9" y1="-145.7" x2="22.7" y2="-128.9" stroke="#999" stroke-width="1.65" stroke-opacity="0.8"/><line x1="22.7" y1="-128.9" x2="20.1" y2="-112.4" stroke="#999" stroke-width="1.65" stroke-opacity="0.8"/><line x1="20.1" y1="-112.4" x2="19.2" y2="-95.9" stroke="#999" stroke-width="1.65" stroke-opacity="0.8"/><line x1="19.2" y1="-95.9" x2="20.9" y2="-79.6" stroke="#999" stroke-width="1.65" stroke-opacity="0.8"/><line x1="20.9" y1="-79.6" x2="24.7" y2="-63.7" stroke="#999" stroke-width="1.65" stroke-opacity="0.8"/><line x1="24.7" y1="-63.7" x2="11.9" y2="-56.0" stroke="#999" stroke-width="1.65" stroke-opacity="0.8"/><line x1="11.9" y1="-56.0" x2="-1.0" y2="-48.3" stroke="#999" stroke-width="1.65" stroke-opacity="0.8"/><line x1="-1.0" y1="-48.3" x2="-13.9" y2="-40.6" stroke="#999" stroke-width="1.65" stroke-opacity="0.8"/><line x1="-13.9" y1="-40.6" x2="-24.3" y2="-51.5" stroke="#999" stroke-width="1.65" stroke-opacity="0.8"/><line x1="-24.3" y1="-51.5" x2="-36.9" y2="-59.8" stroke="#999" stroke-width="1.65" stroke-opacity="0.8"/><line x1="-36.9" y1="-59.8" x2="-51.0" y2="-65.1" stroke="#999" stroke-width="1.65" stroke-opacity="0.8"/><line x1="-51.0" y1="-65.1" x2="-65.9" y2="-67.0" stroke="#999" stroke-width="1.65" stroke-opacity="0.8"/><line x1="-65.9" y1="-67.0" x2="-80.9" y2="-65.6" stroke="#999" stroke-width="1.65" stroke-opacity="0.8"/><line x1="-80.9" y1="-65.6" x2="-95.2" y2="-61.1" stroke="#999" stroke-width="1.65" stroke-opacity="0.8"/><line x1="-95.2" y1="-61.1" x2="-108.2" y2="-53.3" stroke="#999" stroke-width="1.65" stroke-opacity="0.8"/><line x1="-108.2" y1="-53.3" x2="-119.0" y2="-42.9" stroke="#999" stroke-width="1.65" stroke-opacity="0.8"/><line x1="-119.0" y1="-42.9" x2="-127.3" y2="-30.3" stroke="#999" stroke-width="1.65" stroke-opacity="0.8"/><line x1="-127.3" y1="-30.3" x2="-132.6" y2="-16.2" stroke="#999" stroke-width="1.65" stroke-opacity="0.8"/><line x1="-132.6" y1="-16.2" x2="-134.6" y2="-1.3" stroke="#999" stroke-width="1.65" stroke-opacity="0.8"/><line x1="-134.6" y1="-1.3" x2="-133.3" y2="13.7" stroke="#999" stroke-width="1.65" stroke-opacity="0.8"/><line x1="-133.3" y1="13.7" x2="-128.6" y2="28.0" stroke="#999" stroke-width="1.65" stroke-opacity="0.8"/><line x1="-128.6" y1="28.0" x2="-120.9" y2="40.9" stroke="#999" stroke-width="1.65" stroke-opacity="0.8"/><line x1="-120.9" y1="40.9" x2="-110.5" y2="51.8" stroke="#999" stroke-width="1.65" stroke-opacity="0.8"/><line x1="-110.5" y1="51.8" x2="-97.9" y2="60.1" stroke="#999" stroke-width="1.65" stroke-opacity="0.8"/><line x1="-97.9" y1="60.1" x2="-83.8" y2="65.4" stroke="#999" stroke-width="1.65" stroke-opacity="0.8"/><line x1="-83.8" y1="65.4" x2="-68.8" y2="67.3" stroke="#999" stroke-width="1.65" stroke-opacity="0.8"/><line x1="-68.8" y1="67.3" x2="-53.9" y2="65.9" stroke="#999" stroke-width="1.65" stroke-opacity="0.8"/><line x1="-53.9" y1="65.9" x2="-39.5" y2="61.4" stroke="#999" stroke-width="1.65" stroke-opacity="0.8"/><line x1="-39.5" y1="61.4" x2="-26.6" y2="53.6" stroke="#999" stroke-width="1.65" stroke-opacity="0.8"/><line x1="-26.6" y1="53.6" x2="-15.7" y2="43.2" stroke="#999" stroke-width="1.65" stroke-opacity="0.8"/><line x1="-15.7" y1="43.2" x2="-7.4" y2="30.6" stroke="#999" stroke-width="1.65" stroke-opacity="0.8"/><line x1="-7.4" y1="30.6" x2="-2.1" y2="16.5" stroke="#999" stroke-width="1.65" stroke-opacity="0.8"/><line x1="-2.1" y1="16.5" x2="-0.1" y2="1.6" stroke="#999" stroke-width="1.65" stroke-opacity="0.8"/><line x1="-0.1" y1="1.6" x2="-1.5" y2="-13.4" stroke="#999" stroke-width="1.65" stroke-opacity="0.8"/><line x1="-1.5" y1="-13.4" x2="-6.2" y2="-27.7" stroke="#999" stroke-width="1.65" stroke-opacity="0.8"/><line x1="-6.2" y1="-27.7" x2="6.7" y2="-35.4" stroke="#999" stroke-width="1.65" stroke-opacity="0.8"/><line x1="6.7" y1="-35.4" x2="19.6" y2="-43.1" stroke="#999" stroke-width="1.65" stroke-opacity="0.8"/><line x1="19.6" y1="-43.1" x2="32.4" y2="-50.8" stroke="#999" stroke-width="1.65" stroke-opacity="0.8"/><line x1="32.4" y1="-50.8" x2="42.3" y2="-39.6" stroke="#999" stroke-width="1.65" stroke-opacity="0.8"/><line x1="42.3" y1="-39.6" x2="54.0" y2="-30.2" stroke="#999" stroke-width="1.65" stroke-opacity="0.8"/><line x1="54.0" y1="-30.2" x2="67.2" y2="-23.1" stroke="#999" stroke-width="1.65" stroke-opacity="0.8"/><line x1="67.2" y1="-23.1" x2="81.5" y2="-18.5" stroke="#999" stroke-width="1.65" stroke-opacity="0.8"/><line x1="81.5" y1="-18.5" x2="96.3" y2="-16.5" stroke="#999" stroke-width="1.65" stroke-opacity="0.8"/><line x1="96.3" y1="-16.5" x2="111.3" y2="-17.2" stroke="#999" stroke-width="1.65" stroke-opacity="0.8"/><line x1="111.3" y1="-17.2" x2="125.9" y2="-20.6" stroke="#999" stroke-width="1.65" stroke-opacity="0.8"/><line x1="125.9" y1="-20.6" x2="139.6" y2="-26.4" stroke="#999" stroke-width="1.65" stroke-opacity="0.8"/><line x1="139.6" y1="-26.4" x2="152.1" y2="-34.7" stroke="#999" stroke-width="1.65" stroke-opacity="0.8"/><line x1="152.1" y1="-34.7" x2="163.0" y2="-45.1" stroke="#999" stroke-width="1.65" stroke-opacity="0.8"/><line x1="163.0" y1="-45.1" x2="171.8" y2="-57.2" stroke="#999" stroke-width="1.65" stroke-opacity="0.8"/><line x1="171.8" y1="-57.2" x2="178.3" y2="-70.7" stroke="#999" stroke-width="1.65" stroke-opacity="0.8"/><line x1="178.3" y1="-70.7" x2="182.3" y2="-85.1" stroke="#999" stroke-width="1.65" stroke-opacity="0.8"/><line x1="182.3" y1="-85.1" x2="183.6" y2="-100.1" stroke="#999" stroke-width="1.65" stroke-opacity="0.8"/><line x1="183.6" y1="-100.1" x2="182.2" y2="-115.0" stroke="#999" stroke-width="1.65" stroke-opacity="0.8"/><line x1="182.2" y1="-115.0" x2="178.2" y2="-129.4" stroke="#999" stroke-width="1.65" stroke-opacity="0.8"/><line x1="178.2" y1="-129.4" x2="171.7" y2="-142.9" stroke="#999" stroke-width="1.65" stroke-opacity="0.8"/><line x1="171.7" y1="-142.9" x2="162.9" y2="-155.0" stroke="#999" stroke-width="1.65" stroke-opacity="0.8"/><line x1="162.9" y1="-155.0" x2="152.1" y2="-165.4" stroke="#999" stroke-width="1.65" stroke-opacity="0.8"/><line x1="152.1" y1="-165.4" x2="139.5" y2="-173.6" stroke="#999" stroke-width="1.65" stroke-opacity="0.8"/><line x1="139.5" y1="-173.6" x2="125.8" y2="-179.5" stroke="#999" stroke-width="1.65" stroke-opacity="0.8"/><line x1="125.8" y1="-179.5" x2="111.2" y2="-182.8" stroke="#999" stroke-width="1.65" stroke-opacity="0.8"/><line x1="111.2" y1="-182.8" x2="96.2" y2="-183.6" stroke="#999" stroke-width="1.65" stroke-opacity="0.8"/><line x1="96.2" y1="-183.6" x2="81.4" y2="-181.4" stroke="#999" stroke-width="1.65" stroke-opacity="0.8"/><line x1="81.4" y1="-181.4" x2="67.1" y2="-176.8" stroke="#999" stroke-width="1.65" stroke-opacity="0.8"/><line x1="67.1" y1="-176.8" x2="53.9" y2="-169.7" stroke="#999" stroke-width="1.65" stroke-opacity="0.8"/><line x1="53.9" y1="-169.7" x2="39.9" y2="-159.9" stroke="#999" stroke-width="1.65" stroke-opacity="0.8"/><text x="7.0" y="-145.3" text-anchor="middle" font-size="7.8" font-family="Tahoma,Geneva,sans-serif" fill="#999">1</text><text x="-35.8" y="-34.9" text-anchor="middle" font-size="7.8" font-family="Tahoma,Geneva,sans-serif" fill="#999">10</text><text x="-152.6" y="1.0" text-anchor="middle" font-size="7.8" font-family="Tahoma,Geneva,sans-serif" fill="#999">20</text><text x="-37.5" y="42.0" text-anchor="middle" font-size="7.8" font-family="Tahoma,Geneva,sans-serif" fill="#999">30</text><text x="54.7" y="-49.9" text-anchor="middle" font-size="7.8" font-family="Tahoma,Geneva,sans-serif" fill="#999">40</text><text x="187.2" y="-45.2" text-anchor="middle" font-size="7.8" font-family="Tahoma,Geneva,sans-serif" fill="#999">50</text><text x="131.3" y="-193.9" text-anchor="middle" font-size="7.8" font-family="Tahoma,Geneva,sans-serif" fill="#999">60</text><circle cx="24.9" cy="-145.7" r="4.51" fill="lightsalmon" stroke="#ccc" stroke-width="1.65"/><text x="24.9" y="-143.4" text-anchor="middle" font-size="5.6" font-family="Tahoma,Geneva,sans-serif" font-weight="bold" fill="rgb(100,100,100)">U</text><circle cx="22.7" cy="-128.9" r="4.51" fill="lightsalmon" stroke="#ccc" stroke-width="1.65"/><text x="22.7" y="-126.6" text-anchor="middle" font-size="5.6" font-family="Tahoma,Geneva,sans-serif" font-weight="bold" fill="rgb(100,100,100)">A</text><circle cx="20.1" cy="-112.4" r="4.51" fill="lightsalmon" stroke="#ccc" stroke-width="1.65"/><text x="20.1" y="-110.1" text-anchor="middle" font-size="5.6" font-family="Tahoma,Geneva,sans-serif" font-weight="bold" fill="rgb(100,100,100)">U</text><circle cx="19.2" cy="-95.9" r="4.51" fill="lightsalmon" stroke="#ccc" stroke-width="1.65"/><text x="19.2" y="-93.6" text-anchor="middle" font-size="5.6" font-family="Tahoma,Geneva,sans-serif" font-weight="bold" fill="rgb(100,100,100)">G</text><circle cx="20.9" cy="-79.6" r="4.51" fill="lightsalmon" stroke="#ccc" stroke-width="1.65"/><text x="20.9" y="-77.3" text-anchor="middle" font-size="5.6" font-family="Tahoma,Geneva,sans-serif" font-weight="bold" fill="rgb(100,100,100)">A</text><circle cx="24.7" cy="-63.7" r="4.51" fill="lightgreen" stroke="#ccc" stroke-width="1.65"/><text x="24.7" y="-61.5" text-anchor="middle" font-size="5.6" font-family="Tahoma,Geneva,sans-serif" font-weight="bold" fill="rgb(100,100,100)">A</text><circle cx="11.9" cy="-56.0" r="4.51" fill="lightgreen" stroke="#ccc" stroke-width="1.65"/><text x="11.9" y="-53.8" text-anchor="middle" font-size="5.6" font-family="Tahoma,Geneva,sans-serif" font-weight="bold" fill="rgb(100,100,100)">C</text><circle cx="-1.0" cy="-48.3" r="4.51" fill="lightgreen" stroke="#ccc" stroke-width="1.65"/><text x="-1.0" y="-46.0" text-anchor="middle" font-size="5.6" font-family="Tahoma,Geneva,sans-serif" font-weight="bold" fill="rgb(100,100,100)">A</text><circle cx="-13.9" cy="-40.6" r="4.51" fill="lightgreen" stroke="#ccc" stroke-width="1.65"/><text x="-13.9" y="-38.3" text-anchor="middle" font-size="5.6" font-family="Tahoma,Geneva,sans-serif" font-weight="bold" fill="rgb(100,100,100)">A</text><circle cx="-24.3" cy="-51.5" r="4.51" fill="lightgreen" stroke="#ccc" stroke-width="1.65"/><text x="-24.3" y="-49.2" text-anchor="middle" font-size="5.6" font-family="Tahoma,Geneva,sans-serif" font-weight="bold" fill="rgb(100,100,100)">A</text><circle cx="-36.9" cy="-59.8" r="4.51" fill="lightgreen" stroke="#ccc" stroke-width="1.65"/><text x="-36.9" y="-57.5" text-anchor="middle" font-size="5.6" font-family="Tahoma,Geneva,sans-serif" font-weight="bold" fill="rgb(100,100,100)">U</text><circle cx="-51.0" cy="-65.1" r="4.51" fill="lightgreen" stroke="#ccc" stroke-width="1.65"/><text x="-51.0" y="-62.8" text-anchor="middle" font-size="5.6" font-family="Tahoma,Geneva,sans-serif" font-weight="bold" fill="rgb(100,100,100)">C</text><circle cx="-65.9" cy="-67.0" r="4.51" fill="lightblue" stroke="#ccc" stroke-width="1.65"/><text x="-65.9" y="-64.7" text-anchor="middle" font-size="5.6" font-family="Tahoma,Geneva,sans-serif" font-weight="bold" fill="rgb(100,100,100)">A</text><circle cx="-80.9" cy="-65.6" r="4.51" fill="lightblue" stroke="#ccc" stroke-width="1.65"/><text x="-80.9" y="-63.3" text-anchor="middle" font-size="5.6" font-family="Tahoma,Geneva,sans-serif" font-weight="bold" fill="rgb(100,100,100)">A</text><circle cx="-95.2" cy="-61.1" r="4.51" fill="lightgreen" stroke="#ccc" stroke-width="1.65"/><text x="-95.2" y="-58.8" text-anchor="middle" font-size="5.6" font-family="Tahoma,Geneva,sans-serif" font-weight="bold" fill="rgb(100,100,100)">G</text><circle cx="-108.2" cy="-53.3" r="4.51" fill="lightgreen" stroke="#ccc" stroke-width="1.65"/><text x="-108.2" y="-51.1" text-anchor="middle" font-size="5.6" font-family="Tahoma,Geneva,sans-serif" font-weight="bold" fill="rgb(100,100,100)">A</text><circle cx="-119.0" cy="-42.9" r="4.51" fill="lightgreen" stroke="#ccc" stroke-width="1.65"/><text x="-119.0" y="-40.7" text-anchor="middle" font-size="5.6" font-family="Tahoma,Geneva,sans-serif" font-weight="bold" fill="rgb(100,100,100)">C</text><circle cx="-127.3" cy="-30.3" r="4.51" fill="lightgreen" stroke="#ccc" stroke-width="1.65"/><text x="-127.3" y="-28.1" text-anchor="middle" font-size="5.6" font-family="Tahoma,Geneva,sans-serif" font-weight="bold" fill="rgb(100,100,100)">A</text><circle cx="-132.6" cy="-16.2" r="4.51" fill="lightgreen" stroke="#ccc" stroke-width="1.65"/><text x="-132.6" y="-14.0" text-anchor="middle" font-size="5.6" font-family="Tahoma,Geneva,sans-serif" font-weight="bold" fill="rgb(100,100,100)">U</text><circle cx="-134.6" cy="-1.3" r="4.51" fill="lightgreen" stroke="#ccc" stroke-width="1.65"/><text x="-134.6" y="0.9" text-anchor="middle" font-size="5.6" font-family="Tahoma,Geneva,sans-serif" font-weight="bold" fill="rgb(100,100,100)">G</text><circle cx="-133.3" cy="13.7" r="4.51" fill="lightgreen" stroke="#ccc" stroke-width="1.65"/><text x="-133.3" y="15.9" text-anchor="middle" font-size="5.6" font-family="Tahoma,Geneva,sans-serif" font-weight="bold" fill="rgb(100,100,100)">G</text><circle cx="-128.6" cy="28.0" r="4.51" fill="lightgreen" stroke="#ccc" stroke-width="1.65"/><text x="-128.6" y="30.3" text-anchor="middle" font-size="5.6" font-family="Tahoma,Geneva,sans-serif" font-weight="bold" fill="rgb(100,100,100)">C</text><circle cx="-120.9" cy="40.9" r="4.51" fill="lightgreen" stroke="#ccc" stroke-width="1.65"/><text x="-120.9" y="43.2" text-anchor="middle" font-size="5.6" font-family="Tahoma,Geneva,sans-serif" font-weight="bold" fill="rgb(100,100,100)">A</text><circle cx="-110.5" cy="51.8" r="4.51" fill="lightgreen" stroke="#ccc" stroke-width="1.65"/><text x="-110.5" y="54.1" text-anchor="middle" font-size="5.6" font-family="Tahoma,Geneva,sans-serif" font-weight="bold" fill="rgb(100,100,100)">G</text><circle cx="-97.9" cy="60.1" r="4.51" fill="lightgreen" stroke="#ccc" stroke-width="1.65"/><text x="-97.9" y="62.4" text-anchor="middle" font-size="5.6" font-family="Tahoma,Geneva,sans-serif" font-weight="bold" fill="rgb(100,100,100)">G</text><circle cx="-83.8" cy="65.4" r="4.51" fill="lightgreen" stroke="#ccc" stroke-width="1.65"/><text x="-83.8" y="67.7" text-anchor="middle" font-size="5.6" font-family="Tahoma,Geneva,sans-serif" font-weight="bold" fill="rgb(100,100,100)">C</text><circle cx="-68.8" cy="67.3" r="4.51" fill="lightblue" stroke="#ccc" stroke-width="1.65"/><text x="-68.8" y="69.5" text-anchor="middle" font-size="5.6" font-family="Tahoma,Geneva,sans-serif" font-weight="bold" fill="rgb(100,100,100)">U</text><circle cx="-53.9" cy="65.9" r="4.51" fill="lightblue" stroke="#ccc" stroke-width="1.65"/><text x="-53.9" y="68.2" text-anchor="middle" font-size="5.6" font-family="Tahoma,Geneva,sans-serif" font-weight="bold" fill="rgb(100,100,100)">G</text><circle cx="-39.5" cy="61.4" r="4.51" fill="lightgreen" stroke="#ccc" stroke-width="1.65"/><text x="-39.5" y="63.6" text-anchor="middle" font-size="5.6" font-family="Tahoma,Geneva,sans-serif" font-weight="bold" fill="rgb(100,100,100)">G</text><circle cx="-26.6" cy="53.6" r="4.51" fill="lightgreen" stroke="#ccc" stroke-width="1.65"/><text x="-26.6" y="55.9" text-anchor="middle" font-size="5.6" font-family="Tahoma,Geneva,sans-serif" font-weight="bold" fill="rgb(100,100,100)">G</text><circle cx="-15.7" cy="43.2" r="4.51" fill="lightgreen" stroke="#ccc" stroke-width="1.65"/><text x="-15.7" y="45.5" text-anchor="middle" font-size="5.6" font-family="Tahoma,Geneva,sans-serif" font-weight="bold" fill="rgb(100,100,100)">A</text><circle cx="-7.4" cy="30.6" r="4.51" fill="lightgreen" stroke="#ccc" stroke-width="1.65"/><text x="-7.4" y="32.9" text-anchor="middle" font-size="5.6" font-family="Tahoma,Geneva,sans-serif" font-weight="bold" fill="rgb(100,100,100)">A</text><circle cx="-2.1" cy="16.5" r="4.51" fill="lightgreen" stroke="#ccc" stroke-width="1.65"/><text x="-2.1" y="18.8" text-anchor="middle" font-size="5.6" font-family="Tahoma,Geneva,sans-serif" font-weight="bold" fill="rgb(100,100,100)">G</text><circle cx="-0.1" cy="1.6" r="4.51" fill="lightgreen" stroke="#ccc" stroke-width="1.65"/><text x="-0.1" y="3.9" text-anchor="middle" font-size="5.6" font-family="Tahoma,Geneva,sans-serif" font-weight="bold" fill="rgb(100,100,100)">C</text><circle cx="-1.5" cy="-13.4" r="4.51" fill="lightgreen" stroke="#ccc" stroke-width="1.65"/><text x="-1.5" y="-11.2" text-anchor="middle" font-size="5.6" font-family="Tahoma,Geneva,sans-serif" font-weight="bold" fill="rgb(100,100,100)">U</text><circle cx="-6.2" cy="-27.7" r="4.51" fill="lightgreen" stroke="#ccc" stroke-width="1.65"/><text x="-6.2" y="-25.5" text-anchor="middle" font-size="5.6" font-family="Tahoma,Geneva,sans-serif" font-weight="bold" fill="rgb(100,100,100)">U</text><circle cx="6.7" cy="-35.4" r="4.51" fill="lightgreen" stroke="#ccc" stroke-width="1.65"/><text x="6.7" y="-33.2" text-anchor="middle" font-size="5.6" font-family="Tahoma,Geneva,sans-serif" font-weight="bold" fill="rgb(100,100,100)">U</text><circle cx="19.6" cy="-43.1" r="4.51" fill="lightgreen" stroke="#ccc" stroke-width="1.65"/><text x="19.6" y="-40.9" text-anchor="middle" font-size="5.6" font-family="Tahoma,Geneva,sans-serif" font-weight="bold" fill="rgb(100,100,100)">G</text><circle cx="32.4" cy="-50.8" r="4.51" fill="lightgreen" stroke="#ccc" stroke-width="1.65"/><text x="32.4" y="-48.6" text-anchor="middle" font-size="5.6" font-family="Tahoma,Geneva,sans-serif" font-weight="bold" fill="rgb(100,100,100)">U</text><circle cx="42.3" cy="-39.6" r="4.51" fill="lightgreen" stroke="#ccc" stroke-width="1.65"/><text x="42.3" y="-37.3" text-anchor="middle" font-size="5.6" font-family="Tahoma,Geneva,sans-serif" font-weight="bold" fill="rgb(100,100,100)">G</text><circle cx="54.0" cy="-30.2" r="4.51" fill="lightgreen" stroke="#ccc" stroke-width="1.65"/><text x="54.0" y="-28.0" text-anchor="middle" font-size="5.6" font-family="Tahoma,Geneva,sans-serif" font-weight="bold" fill="rgb(100,100,100)">G</text><circle cx="67.2" cy="-23.1" r="4.51" fill="lightgreen" stroke="#ccc" stroke-width="1.65"/><text x="67.2" y="-20.9" text-anchor="middle" font-size="5.6" font-family="Tahoma,Geneva,sans-serif" font-weight="bold" fill="rgb(100,100,100)">C</text><circle cx="81.5" cy="-18.5" r="4.51" fill="lightgreen" stroke="#ccc" stroke-width="1.65"/><text x="81.5" y="-16.3" text-anchor="middle" font-size="5.6" font-family="Tahoma,Geneva,sans-serif" font-weight="bold" fill="rgb(100,100,100)">U</text><circle cx="96.3" cy="-16.5" r="4.51" fill="lightgreen" stroke="#ccc" stroke-width="1.65"/><text x="96.3" y="-14.3" text-anchor="middle" font-size="5.6" font-family="Tahoma,Geneva,sans-serif" font-weight="bold" fill="rgb(100,100,100)">U</text><circle cx="111.3" cy="-17.2" r="4.51" fill="lightgreen" stroke="#ccc" stroke-width="1.65"/><text x="111.3" y="-15.0" text-anchor="middle" font-size="5.6" font-family="Tahoma,Geneva,sans-serif" font-weight="bold" fill="rgb(100,100,100)">C</text><circle cx="125.9" cy="-20.6" r="4.51" fill="lightgreen" stroke="#ccc" stroke-width="1.65"/><text x="125.9" y="-18.3" text-anchor="middle" font-size="5.6" font-family="Tahoma,Geneva,sans-serif" font-weight="bold" fill="rgb(100,100,100)">U</text><circle cx="139.6" cy="-26.4" r="4.51" fill="lightgreen" stroke="#ccc" stroke-width="1.65"/><text x="139.6" y="-24.2" text-anchor="middle" font-size="5.6" font-family="Tahoma,Geneva,sans-serif" font-weight="bold" fill="rgb(100,100,100)">G</text><circle cx="152.1" cy="-34.7" r="4.51" fill="lightgreen" stroke="#ccc" stroke-width="1.65"/><text x="152.1" y="-32.5" text-anchor="middle" font-size="5.6" font-family="Tahoma,Geneva,sans-serif" font-weight="bold" fill="rgb(100,100,100)">C</text><circle cx="163.0" cy="-45.1" r="4.51" fill="lightgreen" stroke="#ccc" stroke-width="1.65"/><text x="163.0" y="-42.8" text-anchor="middle" font-size="5.6" font-family="Tahoma,Geneva,sans-serif" font-weight="bold" fill="rgb(100,100,100)">C</text><circle cx="171.8" cy="-57.2" r="4.51" fill="lightgreen" stroke="#ccc" stroke-width="1.65"/><text x="171.8" y="-54.9" text-anchor="middle" font-size="5.6" font-family="Tahoma,Geneva,sans-serif" font-weight="bold" fill="rgb(100,100,100)">U</text><circle cx="178.3" cy="-70.7" r="4.51" fill="lightsalmon" stroke="#ccc" stroke-width="1.65"/><text x="178.3" y="-68.4" text-anchor="middle" font-size="5.6" font-family="Tahoma,Geneva,sans-serif" font-weight="bold" fill="rgb(100,100,100)">U</text><circle cx="182.3" cy="-85.1" r="4.51" fill="lightsalmon" stroke="#ccc" stroke-width="1.65"/><text x="182.3" y="-82.9" text-anchor="middle" font-size="5.6" font-family="Tahoma,Geneva,sans-serif" font-weight="bold" fill="rgb(100,100,100)">A</text><circle cx="183.6" cy="-100.1" r="4.51" fill="lightsalmon" stroke="#ccc" stroke-width="1.65"/><text x="183.6" y="-97.8" text-anchor="middle" font-size="5.6" font-family="Tahoma,Geneva,sans-serif" font-weight="bold" fill="rgb(100,100,100)">A</text><circle cx="182.2" cy="-115.0" r="4.51" fill="lightgreen" stroke="#ccc" stroke-width="1.65"/><text x="182.2" y="-112.7" text-anchor="middle" font-size="5.6" font-family="Tahoma,Geneva,sans-serif" font-weight="bold" fill="rgb(100,100,100)">G</text><circle cx="178.2" cy="-129.4" r="4.51" fill="lightgreen" stroke="#ccc" stroke-width="1.65"/><text x="178.2" y="-127.2" text-anchor="middle" font-size="5.6" font-family="Tahoma,Geneva,sans-serif" font-weight="bold" fill="rgb(100,100,100)">C</text><circle cx="171.7" cy="-142.9" r="4.51" fill="lightgreen" stroke="#ccc" stroke-width="1.65"/><text x="171.7" y="-140.7" text-anchor="middle" font-size="5.6" font-family="Tahoma,Geneva,sans-serif" font-weight="bold" fill="rgb(100,100,100)">C</text><circle cx="162.9" cy="-155.0" r="4.51" fill="lightgreen" stroke="#ccc" stroke-width="1.65"/><text x="162.9" y="-152.8" text-anchor="middle" font-size="5.6" font-family="Tahoma,Geneva,sans-serif" font-weight="bold" fill="rgb(100,100,100)">A</text><circle cx="152.1" cy="-165.4" r="4.51" fill="lightgreen" stroke="#ccc" stroke-width="1.65"/><text x="152.1" y="-163.1" text-anchor="middle" font-size="5.6" font-family="Tahoma,Geneva,sans-serif" font-weight="bold" fill="rgb(100,100,100)">U</text><circle cx="139.5" cy="-173.6" r="4.51" fill="lightgreen" stroke="#ccc" stroke-width="1.65"/><text x="139.5" y="-171.4" text-anchor="middle" font-size="5.6" font-family="Tahoma,Geneva,sans-serif" font-weight="bold" fill="rgb(100,100,100)">G</text><circle cx="125.8" cy="-179.5" r="4.51" fill="lightgreen" stroke="#ccc" stroke-width="1.65"/><text x="125.8" y="-177.2" text-anchor="middle" font-size="5.6" font-family="Tahoma,Geneva,sans-serif" font-weight="bold" fill="rgb(100,100,100)">U</text><circle cx="111.2" cy="-182.8" r="4.51" fill="lightgreen" stroke="#ccc" stroke-width="1.65"/><text x="111.2" y="-180.6" text-anchor="middle" font-size="5.6" font-family="Tahoma,Geneva,sans-serif" font-weight="bold" fill="rgb(100,100,100)">C</text><circle cx="96.2" cy="-183.6" r="4.51" fill="lightsalmon" stroke="#ccc" stroke-width="1.65"/><text x="96.2" y="-181.3" text-anchor="middle" font-size="5.6" font-family="Tahoma,Geneva,sans-serif" font-weight="bold" fill="rgb(100,100,100)">C</text><circle cx="81.4" cy="-181.4" r="4.51" fill="lightgreen" stroke="#ccc" stroke-width="1.65"/><text x="81.4" y="-179.2" text-anchor="middle" font-size="5.6" font-family="Tahoma,Geneva,sans-serif" font-weight="bold" fill="rgb(100,100,100)">G</text><circle cx="67.1" cy="-176.8" r="4.51" fill="lightgreen" stroke="#ccc" stroke-width="1.65"/><text x="67.1" y="-174.6" text-anchor="middle" font-size="5.6" font-family="Tahoma,Geneva,sans-serif" font-weight="bold" fill="rgb(100,100,100)">A</text><circle cx="53.9" cy="-169.7" r="4.51" fill="lightgreen" stroke="#ccc" stroke-width="1.65"/><text x="53.9" y="-167.5" text-anchor="middle" font-size="5.6" font-family="Tahoma,Geneva,sans-serif" font-weight="bold" fill="rgb(100,100,100)">U</text><circle cx="39.9" cy="-159.9" r="4.51" fill="lightsalmon" stroke="#ccc" stroke-width="1.65"/><text x="39.9" y="-157.6" text-anchor="middle" font-size="5.6" font-family="Tahoma,Geneva,sans-serif" font-weight="bold" fill="rgb(100,100,100)">G</text></svg>