<svg xmlns="http://www.w3.org/2000/svg" viewBox="-32.1 -214.9 301.8 407.0" width="302" height="407"><style></style><line x1="29.9" y1="-166.4" x2="20.4" y2="-154.7" stroke="#999" stroke-width="1.61" stroke-opacity="0.8"/><line x1="41.5" y1="-156.9" x2="32.1" y2="-145.3" stroke="#999" stroke-width="1.61" stroke-opacity="0.8"/><line x1="53.2" y1="-147.5" x2="43.8" y2="-135.8" stroke="#999" stroke-width="1.61" stroke-opacity="0.8"/><line x1="64.9" y1="-138.1" x2="55.4" y2="-126.4" stroke="#999" stroke-width="1.61" stroke-opacity="0.8"/><line x1="76.5" y1="-128.6" x2="67.1" y2="-117.0" stroke="#999" stroke-width="1.61" stroke-opacity="0.8"/><line x1="205.3" y1="124.4" x2="219.2" y2="119.0" stroke="#999" stroke-width="1.61" stroke-opacity="0.8"/><line x1="199.8" y1="110.5" x2="213.8" y2="105.0" stroke="#999" stroke-width="1.61" stroke-opacity="0.8"/><line x1="194.3" y1="96.5" x2="208.3" y2="91.0" stroke="#999" stroke-width="1.61" stroke-opacity="0.8"/><line x1="188.8" y1="82.6" x2="202.8" y2="77.1" stroke="#999" stroke-width="1.61" stroke-opacity="0.8"/><line x1="183.3" y1="68.6" x2="197.3" y2="63.1" stroke="#999" stroke-width="1.61" stroke-opacity="0.8"/><line x1="163.1" y1="26.6" x2="176.2" y2="19.2" stroke="#999" stroke-width="1.61" stroke-opacity="0.8"/><line x1="155.8" y1="13.5" x2="168.8" y2="6.1" stroke="#999" stroke-width="1.61" stroke-opacity="0.8"/><line x1="148.4" y1="0.5" x2="161.4" y2="-6.9" stroke="#999" stroke-width="1.61" stroke-opacity="0.8"/><line x1="141.0" y1="-12.6" x2="154.0" y2="-20.0" stroke="#999" stroke-width="1.61" stroke-opacity="0.8"/><line x1="133.6" y1="-25.6" x2="146.6" y2="-33.0" stroke="#999" stroke-width="1.61" stroke-opacity="0.8"/><line x1="126.2" y1="-38.7" x2="139.2" y2="-46.1" stroke="#999" stroke-width="1.61" stroke-opacity="0.8"/><line x1="118.8" y1="-51.7" x2="131.8" y2="-59.1" stroke="#999" stroke-width="1.61" stroke-opacity="0.8"/><line x1="111.4" y1="-64.8" x2="124.4" y2="-72.2" stroke="#999" stroke-width="1.61" stroke-opacity="0.8"/><line x1="218.9" y1="160.0" x2="130.7" y2="-79.3" stroke="#d9534f" stroke-width="1.61" stroke-opacity="0.6"/><line x1="204.4" y1="153.6" x2="135.0" y2="-87.9" stroke="#d9534f" stroke-width="1.61" stroke-opacity="0.6"/><line x1="198.8" y1="138.8" x2="136.9" y2="-97.3" stroke="#d9534f" stroke-width="1.61" stroke-opacity="0.6"/><line x1="91.5" y1="-159.1" x2="85.5" y2="-143.2" stroke="#999" stroke-width="1.61" stroke-opacity="0.8"/><line x1="85.5" y1="-143.2" x2="76.5" y2="-128.6" stroke="#999" stroke-width="1.61" stroke-opacity="0.8"/><line x1="76.5" y1="-128.6" x2="64.9" y2="-138.1" stroke="#999" stroke-width="1.61" stroke-opacity="0.8"/><line x1="64.9" y1="-138.1" x2="53.2" y2="-147.5" stroke="#999" stroke-width="1.61" stroke-opacity="0.8"/><line x1="53.2" y1="-147.5" x2="41.5" y2="-156.9" stroke="#999" stroke-width="1.61" stroke-opacity="0.8"/><line x1="41.5" y1="-156.9" x2="29.9" y2="-166.4" stroke="#999" stroke-width="1.61" stroke-opacity="0.8"/><line x1="29.9" y1="-166.4" x2="23.5" y2="-179.5" stroke="#999" stroke-width="1.61" stroke-opacity="0.8"/><line x1="23.5" y1="-179.5" x2="9.3" y2="-182.8" stroke="#999" stroke-width="1.61" stroke-opacity="0.8"/><line x1="9.3" y1="-182.8" x2="0.1" y2="-171.4" stroke="#999" stroke-width="1.61" stroke-opacity="0.8"/><line x1="0.1" y1="-171.4" x2="6.2" y2="-158.2" stroke="#999" stroke-width="1.61" stroke-opacity="0.8"/><line x1="6.2" y1="-158.2" x2="20.4" y2="-154.7" stroke="#999" stroke-width="1.61" stroke-opacity="0.8"/><line x1="20.4" y1="-154.7" x2="32.1" y2="-145.3" stroke="#999" stroke-width="1.61" stroke-opacity="0.8"/><line x1="32.1" y1="-145.3" x2="43.8" y2="-135.8" stroke="#999" stroke-width="1.61" stroke-opacity="0.8"/><line x1="43.8" y1="-135.8" x2="55.4" y2="-126.4" stroke="#999" stroke-width="1.61" stroke-opacity="0.8"/><line x1="55.4" y1="-126.4" x2="67.1" y2="-117.0" stroke="#999" stroke-width="1.61" stroke-opacity="0.8"/><line x1="67.1" y1="-117.0" x2="76.1" y2="-102.2" stroke="#999" stroke-width="1.61" stroke-opacity="0.8"/><line x1="76.1" y1="-102.2" x2="86.3" y2="-88.4" stroke="#999" stroke-width="1.61" stroke-opacity="0.8"/><line x1="86.3" y1="-88.4" x2="98.3" y2="-76.0" stroke="#999" stroke-width="1.61" stroke-opacity="0.8"/><line x1="98.3" y1="-76.0" x2="111.4" y2="-64.8" stroke="#999" stroke-width="1.61" stroke-opacity="0.8"/><line x1="111.4" y1="-64.8" x2="118.8" y2="-51.7" stroke="#999" stroke-width="1.61" stroke-opacity="0.8"/><line x1="118.8" y1="-51.7" x2="126.2" y2="-38.7" stroke="#999" stroke-width="1.61" stroke-opacity="0.8"/><line x1="126.2" y1="-38.7" x2="133.6" y2="-25.6" stroke="#999" stroke-width="1.61" stroke-opacity="0.8"/><line x1="133.6" y1="-25.6" x2="141.0" y2="-12.6" stroke="#999" stroke-width="1.61" stroke-opacity="0.8"/><line x1="141.0" y1="-12.6" x2="148.4" y2="0.5" stroke="#999" stroke-width="1.61" stroke-opacity="0.8"/><line x1="148.4" y1="0.5" x2="155.8" y2="13.5" stroke="#999" stroke-width="1.61" stroke-opacity="0.8"/><line x1="155.8" y1="13.5" x2="163.1" y2="26.6" stroke="#999" stroke-width="1.61" stroke-opacity="0.8"/><line x1="163.1" y1="26.6" x2="167.6" y2="41.6" stroke="#999" stroke-width="1.61" stroke-opacity="0.8"/><line x1="167.6" y1="41.6" x2="174.3" y2="55.8" stroke="#999" stroke-width="1.61" stroke-opacity="0.8"/><line x1="174.3" y1="55.8" x2="183.3" y2="68.6" stroke="#999" stroke-width="1.61" stroke-opacity="0.8"/><line x1="183.3" y1="68.6" x2="188.8" y2="82.6" stroke="#999" stroke-width="1.61" stroke-opacity="0.8"/><line x1="188.8" y1="82.6" x2="194.3" y2="96.5" stroke="#999" stroke-width="1.61" stroke-opacity="0.8"/><line x1="194.3" y1="96.5" x2="199.8" y2="110.5" stroke="#999" stroke-width="1.61" stroke-opacity="0.8"/><line x1="199.8" y1="110.5" x2="205.3" y2="124.4" stroke="#999" stroke-width="1.61" stroke-opacity="0.8"/><line x1="205.3" y1="124.4" x2="198.8" y2="138.8" stroke="#999" stroke-width="1.61" stroke-opacity="0.8"/><line x1="198.8" y1="138.8" x2="204.4" y2="153.6" stroke="#999" stroke-width="1.61" stroke-opacity="0.8"/><line x1="204.4" y1="153.6" x2="218.9" y2="160.0" stroke="#999" stroke-width="1.61" stroke-opacity="0.8"/><line x1="218.9" y1="160.0" x2="231.7" y2="153.0" stroke="#999" stroke-width="1.61" stroke-opacity="0.8"/><line x1="231.7" y1="153.0" x2="237.6" y2="139.6" stroke="#999" stroke-width="1.61" stroke-opacity="0.8"/><line x1="237.6" y1="139.6" x2="231.9" y2="126.2" stroke="#999" stroke-width="1.61" stroke-opacity="0.8"/><line x1="231.9" y1="126.2" x2="219.2" y2="119.0" stroke="#999" stroke-width="1.61" stroke-opacity="0.8"/><line x1="219.2" y1="119.0" x2="213.8" y2="105.0" stroke="#999" stroke-width="1.61" stroke-opacity="0.8"/><line x1="213.8" y1="105.0" x2="208.3" y2="91.0" stroke="#999" stroke-width="1.61" stroke-opacity="0.8"/><line x1="208.3" y1="91.0" x2="202.8" y2="77.1" stroke="#999" stroke-width="1.61" stroke-opacity="0.8"/><line x1="202.8" y1="77.1" x2="197.3" y2="63.1" stroke="#999" stroke-width="1.61" stroke-opacity="0.8"/><line x1="197.3" y1="63.1" x2="211.2" y2="58.2" stroke="#999" stroke-width="1.61" stroke-opacity="0.8"/><line x1="211.2" y1="58.2" x2="210.1" y2="43.8" stroke="#999" stroke-width="1.61" stroke-opacity="0.8"/><line x1="210.1" y1="43.8" x2="211.6" y2="29.4" stroke="#999" stroke-width="1.61" stroke-opacity="0.8"/><line x1="211.6" y1="29.4" x2="199.4" y2="21.6" stroke="#999" stroke-width="1.61" stroke-opacity="0.8"/><line x1="199.4" y1="21.6" x2="188.9" y2="11.7" stroke="#999" stroke-width="1.61" stroke-opacity="0.8"/><line x1="188.9" y1="11.7" x2="176.2" y2="19.2" stroke="#999" stroke-width="1.61" stroke-opacity="0.8"/><line x1="176.2" y1="19.2" x2="168.8" y2="6.1" stroke="#999" stroke-width="1.61" stroke-opacity="0.8"/><line x1="168.8" y1="6.1" x2="161.4" y2="-6.9" stroke="#999" stroke-width="1.61" stroke-opacity="0.8"/><line x1="161.4" y1="-6.9" x2="154.0" y2="-20.0" stroke="#999" stroke-width="1.61" stroke-opacity="0.8"/><line x1="154.0" y1="-20.0" x2="146.6" y2="-33.0" stroke="#999" stroke-width="1.61" stroke-opacity="0.8"/><line x1="146.6" y1="-33.0" x2="139.2" y2="-46.1" stroke="#999" stroke-width="1.61" stroke-opacity="0.8"/><line x1="139.2" y1="-46.1" x2="131.8" y2="-59.1" stroke="#999" stroke-width="1.61" stroke-opacity="0.8"/><line x1="131.8" y1="-59.1" x2="124.4" y2="-72.2" stroke="#999" stroke-width="1.61" stroke-opacity="0.8"/><line x1="124.4" y1="-72.2" x2="130.7" y2="-79.3" stroke="#999" stroke-width="1.61" stroke-opacity="0.8"/><line x1="130.7" y1="-79.3" x2="135.0" y2="-87.9" stroke="#999" stroke-width="1.61" stroke-opacity="0.8"/><line x1="135.0" y1="-87.9" x2="136.9" y2="-97.3" stroke="#999" stroke-width="1.61" stroke-opacity="0.8"/><line x1="136.9" y1="-97.3" x2="146.2" y2="-108.6" stroke="#999" stroke-width="1.61" stroke-opacity="0.8"/><line x1="146.2" y1="-108.6" x2="135.6" y2="-118.7" stroke="#999" stroke-width="1.61" stroke-opacity="0.8"/><line x1="135.6" y1="-118.7" x2="131.0" y2="-132.7" stroke="#999" stroke-width="1.61" stroke-opacity="0.8"/><line x1="131.0" y1="-132.7" x2="117.6" y2="-139.6" stroke="#999" stroke-width="1.61" stroke-opacity="0.8"/><line x1="117.6" y1="-139.6" x2="111.4" y2="-154.3" stroke="#999" stroke-width="1.61" stroke-opacity="0.8"/><text x="75.1" y="-162.6" text-anchor="middle" font-size="7.6" font-family="Tahoma,Geneva,sans-serif" fill="#999">1</text><text x="-17.3" y="-170.9" text-anchor="middle" font-size="7.6" font-family="Tahoma,Geneva,sans-serif" fill="#999">10</text><text x="98.0" y="-50.8" text-anchor="middle" font-size="7.6" font-family="Tahoma,Geneva,sans-serif" fill="#999">20</text><text x="167.9" y="79.6" text-anchor="middle" font-size="7.6" font-family="Tahoma,Geneva,sans-serif" fill="#999">30</text><text x="245.1" y="117.2" text-anchor="middle" font-size="7.6" font-family="Tahoma,Geneva,sans-serif" fill="#999">40</text><text x="190.8" y="-3.1" text-anchor="middle" font-size="7.6" font-family="Tahoma,Geneva,sans-serif" fill="#999">50</text><text x="118.4" y="-91.0" text-anchor="middle" font-size="7.6" font-family="Tahoma,Geneva,sans-serif" fill="#999">60</text><circle cx="91.5" cy="-159.1" r="4.38" fill="lightsalmon" stroke="#ccc" stroke-width="1.61"/><text x="91.5" y="-156.9" text-anchor="middle" font-size="5.5" font-family="Tahoma,Geneva,sans-serif" font-weight="bold" fill="rgb(100,100,100)">U</text><circle cx="85.5" cy="-143.2" r="4.38" fill="lightsalmon" stroke="#ccc" stroke-width="1.61"/><text x="85.5" y="-141.0" text-anchor="middle" font-size="5.5" font-family="Tahoma,Geneva,sans-serif" font-weight="bold" fill="rgb(100,100,100)">A</text><circle cx="76.5" cy="-128.6" r="4.38" fill="lightgreen" stroke="#ccc" stroke-width="1.61"/><text x="76.5" y="-126.4" text-anchor="middle" font-size="5.5" font-family="Tahoma,Geneva,sans-serif" font-weight="bold" fill="rgb(100,100,100)">C</text><circle cx="64.9" cy="-138.1" r="4.38" fill="lightgreen" stroke="#ccc" stroke-width="1.61"/><text x="64.9" y="-135.9" text-anchor="middle" font-size="5.5" font-family="Tahoma,Geneva,sans-serif" font-weight="bold" fill="rgb(100,100,100)">G</text><circle cx="53.2" cy="-147.5" r="4.38" fill="lightgreen" stroke="#ccc" stroke-width="1.61"/><text x="53.2" y="-145.3" text-anchor="middle" font-size="5.5" font-family="Tahoma,Geneva,sans-serif" font-weight="bold" fill="rgb(100,100,100)">U</text><circle cx="41.5" cy="-156.9" r="4.38" fill="lightgreen" stroke="#ccc" stroke-width="1.61"/><text x="41.5" y="-154.7" text-anchor="middle" font-size="5.5" font-family="Tahoma,Geneva,sans-serif" font-weight="bold" fill="rgb(100,100,100)">U</text><circle cx="29.9" cy="-166.4" r="4.38" fill="lightgreen" stroke="#ccc" stroke-width="1.61"/><text x="29.9" y="-164.2" text-anchor="middle" font-size="5.5" font-family="Tahoma,Geneva,sans-serif" font-weight="bold" fill="rgb(100,100,100)">C</text><circle cx="23.5" cy="-179.5" r="4.38" fill="lightblue" stroke="#ccc" stroke-width="1.61"/><text x="23.5" y="-177.3" text-anchor="middle" font-size="5.5" font-family="Tahoma,Geneva,sans-serif" font-weight="bold" fill="rgb(100,100,100)">A</text><circle cx="9.3" cy="-182.8" r="4.38" fill="lightblue" stroke="#ccc" stroke-width="1.61"/><text x="9.3" y="-180.6" text-anchor="middle" font-size="5.5" font-family="Tahoma,Geneva,sans-serif" font-weight="bold" fill="rgb(100,100,100)">A</text><circle cx="0.1" cy="-171.4" r="4.38" fill="lightblue" stroke="#ccc" stroke-width="1.61"/><text x="0.1" y="-169.2" text-anchor="middle" font-size="5.5" font-family="Tahoma,Geneva,sans-serif" font-weight="bold" fill="rgb(100,100,100)">U</text><circle cx="6.2" cy="-158.2" r="4.38" fill="lightblue" stroke="#ccc" stroke-width="1.61"/><text x="6.2" y="-156.0" text-anchor="middle" font-size="5.5" font-family="Tahoma,Geneva,sans-serif" font-weight="bold" fill="rgb(100,100,100)">G</text><circle cx="20.4" cy="-154.7" r="4.38" fill="lightgreen" stroke="#ccc" stroke-width="1.61"/><text x="20.4" y="-152.5" text-anchor="middle" font-size="5.5" font-family="Tahoma,Geneva,sans-serif" font-weight="bold" fill="rgb(100,100,100)">G</text><circle cx="32.1" cy="-145.3" r="4.38" fill="lightgreen" stroke="#ccc" stroke-width="1.61"/><text x="32.1" y="-143.1" text-anchor="middle" font-size="5.5" font-family="Tahoma,Geneva,sans-serif" font-weight="bold" fill="rgb(100,100,100)">A</text><circle cx="43.8" cy="-135.8" r="4.38" fill="lightgreen" stroke="#ccc" stroke-width="1.61"/><text x="43.8" y="-133.6" text-anchor="middle" font-size="5.5" font-family="Tahoma,Geneva,sans-serif" font-weight="bold" fill="rgb(100,100,100)">A</text><circle cx="55.4" cy="-126.4" r="4.38" fill="lightgreen" stroke="#ccc" stroke-width="1.61"/><text x="55.4" y="-124.2" text-anchor="middle" font-size="5.5" font-family="Tahoma,Geneva,sans-serif" font-weight="bold" fill="rgb(100,100,100)">C</text><circle cx="67.1" cy="-117.0" r="4.38" fill="lightgreen" stroke="#ccc" stroke-width="1.61"/><text x="67.1" y="-114.8" text-anchor="middle" font-size="5.5" font-family="Tahoma,Geneva,sans-serif" font-weight="bold" fill="rgb(100,100,100)">G</text><circle cx="76.1" cy="-102.2" r="4.38" fill="lightsalmon" stroke="#ccc" stroke-width="1.61"/><text x="76.1" y="-100.1" text-anchor="middle" font-size="5.5" font-family="Tahoma,Geneva,sans-serif" font-weight="bold" fill="rgb(100,100,100)">A</text><circle cx="86.3" cy="-88.4" r="4.38" fill="lightsalmon" stroke="#ccc" stroke-width="1.61"/><text x="86.3" y="-86.2" text-anchor="middle" font-size="5.5" font-family="Tahoma,Geneva,sans-serif" font-weight="bold" fill="rgb(100,100,100)">A</text><circle cx="98.3" cy="-76.0" r="4.38" fill="lightsalmon" stroke="#ccc" stroke-width="1.61"/><text x="98.3" y="-73.8" text-anchor="middle" font-size="5.5" font-family="Tahoma,Geneva,sans-serif" font-weight="bold" fill="rgb(100,100,100)">A</text><circle cx="111.4" cy="-64.8" r="4.38" fill="lightgreen" stroke="#ccc" stroke-width="1.61"/><text x="111.4" y="-62.6" text-anchor="middle" font-size="5.5" font-family="Tahoma,Geneva,sans-serif" font-weight="bold" fill="rgb(100,100,100)">A</text><circle cx="118.8" cy="-51.7" r="4.38" fill="lightgreen" stroke="#ccc" stroke-width="1.61"/><text x="118.8" y="-49.5" text-anchor="middle" font-size="5.5" font-family="Tahoma,Geneva,sans-serif" font-weight="bold" fill="rgb(100,100,100)">G</text><circle cx="126.2" cy="-38.7" r="4.38" fill="lightgreen" stroke="#ccc" stroke-width="1.61"/><text x="126.2" y="-36.5" text-anchor="middle" font-size="5.5" font-family="Tahoma,Geneva,sans-serif" font-weight="bold" fill="rgb(100,100,100)">G</text><circle cx="133.6" cy="-25.6" r="4.38" fill="lightgreen" stroke="#ccc" stroke-width="1.61"/><text x="133.6" y="-23.4" text-anchor="middle" font-size="5.5" font-family="Tahoma,Geneva,sans-serif" font-weight="bold" fill="rgb(100,100,100)">A</text><circle cx="141.0" cy="-12.6" r="4.38" fill="lightgreen" stroke="#ccc" stroke-width="1.61"/><text x="141.0" y="-10.4" text-anchor="middle" font-size="5.5" font-family="Tahoma,Geneva,sans-serif" font-weight="bold" fill="rgb(100,100,100)">G</text><circle cx="148.4" cy="0.5" r="4.38" fill="lightgreen" stroke="#ccc" stroke-width="1.61"/><text x="148.4" y="2.7" text-anchor="middle" font-size="5.5" font-family="Tahoma,Geneva,sans-serif" font-weight="bold" fill="rgb(100,100,100)">A</text><circle cx="155.8" cy="13.5" r="4.38" fill="lightgreen" stroke="#ccc" stroke-width="1.61"/><text x="155.8" y="15.7" text-anchor="middle" font-size="5.5" font-family="Tahoma,Geneva,sans-serif" font-weight="bold" fill="rgb(100,100,100)">U</text><circle cx="163.1" cy="26.6" r="4.38" fill="lightgreen" stroke="#ccc" stroke-width="1.61"/><text x="163.1" y="28.8" text-anchor="middle" font-size="5.5" font-family="Tahoma,Geneva,sans-serif" font-weight="bold" fill="rgb(100,100,100)">C</text><circle cx="167.6" cy="41.6" r="4.38" fill="#dbdb8d" stroke="#ccc" stroke-width="1.61"/><text x="167.6" y="43.8" text-anchor="middle" font-size="5.5" font-family="Tahoma,Geneva,sans-serif" font-weight="bold" fill="rgb(100,100,100)">A</text><circle cx="174.3" cy="55.8" r="4.38" fill="#dbdb8d" stroke="#ccc" stroke-width="1.61"/><text x="174.3" y="58.0" text-anchor="middle" font-size="5.5" font-family="Tahoma,Geneva,sans-serif" font-weight="bold" fill="rgb(100,100,100)">A</text><circle cx="183.3" cy="68.6" r="4.38" fill="lightgreen" stroke="#ccc" stroke-width="1.61"/><text x="183.3" y="70.8" text-anchor="middle" font-size="5.5" font-family="Tahoma,Geneva,sans-serif" font-weight="bold" fill="rgb(100,100,100)">C</text><circle cx="188.8" cy="82.6" r="4.38" fill="lightgreen" stroke="#ccc" stroke-width="1.61"/><text x="188.8" y="84.8" text-anchor="middle" font-size="5.5" font-family="Tahoma,Geneva,sans-serif" font-weight="bold" fill="rgb(100,100,100)">U</text><circle cx="194.3" cy="96.5" r="4.38" fill="lightgreen" stroke="#ccc" stroke-width="1.61"/><text x="194.3" y="98.7" text-anchor="middle" font-size="5.5" font-family="Tahoma,Geneva,sans-serif" font-weight="bold" fill="rgb(100,100,100)">G</text><circle cx="199.8" cy="110.5" r="4.38" fill="lightgreen" stroke="#ccc" stroke-width="1.61"/><text x="199.8" y="112.7" text-anchor="middle" font-size="5.5" font-family="Tahoma,Geneva,sans-serif" font-weight="bold" fill="rgb(100,100,100)">C</text><circle cx="205.3" cy="124.4" r="4.38" fill="lightgreen" stroke="#ccc" stroke-width="1.61"/><text x="205.3" y="126.6" text-anchor="middle" font-size="5.5" font-family="Tahoma,Geneva,sans-serif" font-weight="bold" fill="rgb(100,100,100)">A</text><circle cx="198.8" cy="138.8" r="4.38" fill="lightgreen" stroke="#ccc" stroke-width="1.61"/><text x="198.8" y="141.0" text-anchor="middle" font-size="5.5" font-family="Tahoma,Geneva,sans-serif" font-weight="bold" fill="rgb(100,100,100)">A</text><circle cx="204.4" cy="153.6" r="4.38" fill="lightgreen" stroke="#ccc" stroke-width="1.61"/><text x="204.4" y="155.8" text-anchor="middle" font-size="5.5" font-family="Tahoma,Geneva,sans-serif" font-weight="bold" fill="rgb(100,100,100)">C</text><circle cx="218.9" cy="160.0" r="4.38" fill="lightgreen" stroke="#ccc" stroke-width="1.61"/><text x="218.9" y="162.2" text-anchor="middle" font-size="5.5" font-family="Tahoma,Geneva,sans-serif" font-weight="bold" fill="rgb(100,100,100)">U</text><circle cx="231.7" cy="153.0" r="4.38" fill="lightblue" stroke="#ccc" stroke-width="1.61"/><text x="231.7" y="155.2" text-anchor="middle" font-size="5.5" font-family="Tahoma,Geneva,sans-serif" font-weight="bold" fill="rgb(100,100,100)">C</text><circle cx="237.6" cy="139.6" r="4.38" fill="lightblue" stroke="#ccc" stroke-width="1.61"/><text x="237.6" y="141.8" text-anchor="middle" font-size="5.5" font-family="Tahoma,Geneva,sans-serif" font-weight="bold" fill="rgb(100,100,100)">U</text><circle cx="231.9" cy="126.2" r="4.38" fill="lightblue" stroke="#ccc" stroke-width="1.61"/><text x="231.9" y="128.4" text-anchor="middle" font-size="5.5" font-family="Tahoma,Geneva,sans-serif" font-weight="bold" fill="rgb(100,100,100)">A</text><circle cx="219.2" cy="119.0" r="4.38" fill="lightgreen" stroke="#ccc" stroke-width="1.61"/><text x="219.2" y="121.1" text-anchor="middle" font-size="5.5" font-family="Tahoma,Geneva,sans-serif" font-weight="bold" fill="rgb(100,100,100)">U</text><circle cx="213.8" cy="105.0" r="4.38" fill="lightgreen" stroke="#ccc" stroke-width="1.61"/><text x="213.8" y="107.2" text-anchor="middle" font-size="5.5" font-family="Tahoma,Geneva,sans-serif" font-weight="bold" fill="rgb(100,100,100)">G</text><circle cx="208.3" cy="91.0" r="4.38" fill="lightgreen" stroke="#ccc" stroke-width="1.61"/><text x="208.3" y="93.2" text-anchor="middle" font-size="5.5" font-family="Tahoma,Geneva,sans-serif" font-weight="bold" fill="rgb(100,100,100)">C</text><circle cx="202.8" cy="77.1" r="4.38" fill="lightgreen" stroke="#ccc" stroke-width="1.61"/><text x="202.8" y="79.3" text-anchor="middle" font-size="5.5" font-family="Tahoma,Geneva,sans-serif" font-weight="bold" fill="rgb(100,100,100)">A</text><circle cx="197.3" cy="63.1" r="4.38" fill="lightgreen" stroke="#ccc" stroke-width="1.61"/><text x="197.3" y="65.3" text-anchor="middle" font-size="5.5" font-family="Tahoma,Geneva,sans-serif" font-weight="bold" fill="rgb(100,100,100)">G</text><circle cx="211.2" cy="58.2" r="4.38" fill="#dbdb8d" stroke="#ccc" stroke-width="1.61"/><text x="211.2" y="60.4" text-anchor="middle" font-size="5.5" font-family="Tahoma,Geneva,sans-serif" font-weight="bold" fill="rgb(100,100,100)">C</text><circle cx="210.1" cy="43.8" r="4.38" fill="#dbdb8d" stroke="#ccc" stroke-width="1.61"/><text x="210.1" y="46.0" text-anchor="middle" font-size="5.5" font-family="Tahoma,Geneva,sans-serif" font-weight="bold" fill="rgb(100,100,100)">G</text><circle cx="211.6" cy="29.4" r="4.38" fill="#dbdb8d" stroke="#ccc" stroke-width="1.61"/><text x="211.6" y="31.6" text-anchor="middle" font-size="5.5" font-family="Tahoma,Geneva,sans-serif" font-weight="bold" fill="rgb(100,100,100)">G</text><circle cx="199.4" cy="21.6" r="4.38" fill="#dbdb8d" stroke="#ccc" stroke-width="1.61"/><text x="199.4" y="23.8" text-anchor="middle" font-size="5.5" font-family="Tahoma,Geneva,sans-serif" font-weight="bold" fill="rgb(100,100,100)">C</text><circle cx="188.9" cy="11.7" r="4.38" fill="#dbdb8d" stroke="#ccc" stroke-width="1.61"/><text x="188.9" y="13.9" text-anchor="middle" font-size="5.5" font-family="Tahoma,Geneva,sans-serif" font-weight="bold" fill="rgb(100,100,100)">A</text><circle cx="176.2" cy="19.2" r="4.38" fill="lightgreen" stroke="#ccc" stroke-width="1.61"/><text x="176.2" y="21.4" text-anchor="middle" font-size="5.5" font-family="Tahoma,Geneva,sans-serif" font-weight="bold" fill="rgb(100,100,100)">G</text><circle cx="168.8" cy="6.1" r="4.38" fill="lightgreen" stroke="#ccc" stroke-width="1.61"/><text x="168.8" y="8.3" text-anchor="middle" font-size="5.5" font-family="Tahoma,Geneva,sans-serif" font-weight="bold" fill="rgb(100,100,100)">A</text><circle cx="161.4" cy="-6.9" r="4.38" fill="lightgreen" stroke="#ccc" stroke-width="1.61"/><text x="161.4" y="-4.7" text-anchor="middle" font-size="5.5" font-family="Tahoma,Geneva,sans-serif" font-weight="bold" fill="rgb(100,100,100)">U</text><circle cx="154.0" cy="-20.0" r="4.38" fill="lightgreen" stroke="#ccc" stroke-width="1.61"/><text x="154.0" y="-17.8" text-anchor="middle" font-size="5.5" font-family="Tahoma,Geneva,sans-serif" font-weight="bold" fill="rgb(100,100,100)">C</text><circle cx="146.6" cy="-33.0" r="4.38" fill="lightgreen" stroke="#ccc" stroke-width="1.61"/><text x="146.6" y="-30.8" text-anchor="middle" font-size="5.5" font-family="Tahoma,Geneva,sans-serif" font-weight="bold" fill="rgb(100,100,100)">U</text><circle cx="139.2" cy="-46.1" r="4.38" fill="lightgreen" stroke="#ccc" stroke-width="1.61"/><text x="139.2" y="-43.9" text-anchor="middle" font-size="5.5" font-family="Tahoma,Geneva,sans-serif" font-weight="bold" fill="rgb(100,100,100)">C</text><circle cx="131.8" cy="-59.1" r="4.38" fill="lightgreen" stroke="#ccc" stroke-width="1.61"/><text x="131.8" y="-56.9" text-anchor="middle" font-size="5.5" font-family="Tahoma,Geneva,sans-serif" font-weight="bold" fill="rgb(100,100,100)">C</text><circle cx="124.4" cy="-72.2" r="4.38" fill="lightgreen" stroke="#ccc" stroke-width="1.61"/><text x="124.4" y="-70.0" text-anchor="middle" font-size="5.5" font-family="Tahoma,Geneva,sans-serif" font-weight="bold" fill="rgb(100,100,100)">U</text><circle cx="130.7" cy="-79.3" r="4.38" fill="lightgreen" stroke="#ccc" stroke-width="1.61"/><text x="130.7" y="-77.1" text-anchor="middle" font-size="5.5" font-family="Tahoma,Geneva,sans-serif" font-weight="bold" fill="rgb(100,100,100)">G</text><circle cx="135.0" cy="-87.9" r="4.38" fill="lightgreen" stroke="#ccc" stroke-width="1.61"/><text x="135.0" y="-85.7" text-anchor="middle" font-size="5.5" font-family="Tahoma,Geneva,sans-serif" font-weight="bold" fill="rgb(100,100,100)">G</text><circle cx="136.9" cy="-97.3" r="4.38" fill="lightgreen" stroke="#ccc" stroke-width="1.61"/><text x="136.9" y="-95.1" text-anchor="middle" font-size="5.5" font-family="Tahoma,Geneva,sans-serif" font-weight="bold" fill="rgb(100,100,100)">U</text><circle cx="146.2" cy="-108.6" r="4.38" fill="lightsalmon" stroke="#ccc" stroke-width="1.61"/><text x="146.2" y="-106.4" text-anchor="middle" font-size="5.5" font-family="Tahoma,Geneva,sans-serif" font-weight="bold" fill="rgb(100,100,100)">G</text><circle cx="135.6" cy="-118.7" r="4.38" fill="lightsalmon" stroke="#ccc" stroke-width="1.61"/><text x="135.6" y="-116.5" text-anchor="middle" font-size="5.5" font-family="Tahoma,Geneva,sans-serif" font-weight="bold" fill="rgb(100,100,100)">G</text><circle cx="131.0" cy="-132.7" r="4.38" fill="lightsalmon" stroke="#ccc" stroke-width="1.61"/><text x="131.0" y="-130.6" text-anchor="middle" font-size="5.5" font-family="Tahoma,Geneva,sans-serif" font-weight="bold" fill="rgb(100,100,100)">C</text><circle cx="117.6" cy="-139.6" r="4.38" fill="lightsalmon" stroke="#ccc" stroke-width="1.61"/><text x="117.6" y="-137.5" text-anchor="middle" font-size="5.5" font-family="Tahoma,Geneva,sans-serif" font-weight="bold" fill="rgb(100,100,100)">A</text><circle cx="111.4" cy="-154.3" r="4.38" fill="lightsalmon" stroke="#ccc" stroke-width="1.61"/><text x="111.4" y="-152.1" text-anchor="middle" font-size="5.5" font-family="Tahoma,Geneva,sans-serif" font-weight="bold" fill="rgb(100,100,100)">U</text></svg>