<svg xmlns="http://www.w3.org/2000/svg" viewBox="-201.0 -166.1 505.1 149.1" width="505" height="149"><style></style><line x1="-143.6" y1="-85.6" x2="-142.3" y2="-70.7" stroke="#999" stroke-width="1.57" stroke-opacity="0.8"/><line x1="-128.7" y1="-86.9" x2="-127.3" y2="-72.0" stroke="#999" stroke-width="1.57" stroke-opacity="0.8"/><line x1="-113.7" y1="-88.3" x2="-112.4" y2="-73.4" stroke="#999" stroke-width="1.57" stroke-opacity="0.8"/><line x1="-98.8" y1="-89.6" x2="-97.4" y2="-74.7" stroke="#999" stroke-width="1.57" stroke-opacity="0.8"/><line x1="-83.9" y1="-91.0" x2="-82.5" y2="-76.0" stroke="#999" stroke-width="1.57" stroke-opacity="0.8"/><line x1="-57.4" y1="-93.4" x2="-56.1" y2="-78.4" stroke="#999" stroke-width="1.57" stroke-opacity="0.8"/><line x1="-42.5" y1="-94.7" x2="-41.1" y2="-79.8" stroke="#999" stroke-width="1.57" stroke-opacity="0.8"/><line x1="-27.6" y1="-96.1" x2="-26.2" y2="-81.1" stroke="#999" stroke-width="1.57" stroke-opacity="0.8"/><line x1="-12.6" y1="-97.4" x2="-11.3" y2="-82.5" stroke="#999" stroke-width="1.57" stroke-opacity="0.8"/><line x1="2.3" y1="-98.7" x2="3.7" y2="-83.8" stroke="#999" stroke-width="1.57" stroke-opacity="0.8"/><line x1="17.3" y1="-100.1" x2="18.6" y2="-85.1" stroke="#999" stroke-width="1.57" stroke-opacity="0.8"/><line x1="32.2" y1="-101.4" x2="33.5" y2="-86.5" stroke="#999" stroke-width="1.57" stroke-opacity="0.8"/><line x1="47.1" y1="-102.8" x2="48.5" y2="-87.8" stroke="#999" stroke-width="1.57" stroke-opacity="0.8"/><line x1="62.1" y1="-104.1" x2="63.4" y2="-89.2" stroke="#999" stroke-width="1.57" stroke-opacity="0.8"/><line x1="77.0" y1="-105.5" x2="78.4" y2="-90.5" stroke="#999" stroke-width="1.57" stroke-opacity="0.8"/><line x1="236.8" y1="-58.3" x2="240.2" y2="-72.9" stroke="#999" stroke-width="1.57" stroke-opacity="0.8"/><line x1="222.2" y1="-61.7" x2="225.5" y2="-76.3" stroke="#999" stroke-width="1.57" stroke-opacity="0.8"/><line x1="207.6" y1="-65.0" x2="210.9" y2="-79.6" stroke="#999" stroke-width="1.57" stroke-opacity="0.8"/><line x1="193.0" y1="-68.3" x2="196.3" y2="-83.0" stroke="#999" stroke-width="1.57" stroke-opacity="0.8"/><line x1="178.3" y1="-71.7" x2="181.7" y2="-86.3" stroke="#999" stroke-width="1.57" stroke-opacity="0.8"/><line x1="163.7" y1="-75.0" x2="167.0" y2="-89.6" stroke="#999" stroke-width="1.57" stroke-opacity="0.8"/><line x1="148.5" y1="-78.8" x2="152.5" y2="-93.3" stroke="#999" stroke-width="1.57" stroke-opacity="0.8"/><line x1="134.1" y1="-82.8" x2="138.0" y2="-97.3" stroke="#999" stroke-width="1.57" stroke-opacity="0.8"/><line x1="119.6" y1="-86.8" x2="123.6" y2="-101.3" stroke="#999" stroke-width="1.57" stroke-opacity="0.8"/><line x1="254.5" y1="-80.2" x2="119.2" y2="-113.8" stroke="#d9534f" stroke-width="1.57" stroke-opacity="0.6"/><line x1="269.0" y1="-73.5" x2="114.5" y2="-118.6" stroke="#d9534f" stroke-width="1.57" stroke-opacity="0.6"/><line x1="272.6" y1="-57.8" x2="108.7" y2="-122.0" stroke="#d9534f" stroke-width="1.57" stroke-opacity="0.6"/><line x1="77.0" y1="-105.5" x2="62.1" y2="-104.1" stroke="#999" stroke-width="1.57" stroke-opacity="0.8"/><line x1="62.1" y1="-104.1" x2="47.1" y2="-102.8" stroke="#999" stroke-width="1.57" stroke-opacity="0.8"/><line x1="47.1" y1="-102.8" x2="32.2" y2="-101.4" stroke="#999" stroke-width="1.57" stroke-opacity="0.8"/><line x1="32.2" y1="-101.4" x2="17.3" y2="-100.1" stroke="#999" stroke-width="1.57" stroke-opacity="0.8"/><line x1="17.3" y1="-100.1" x2="2.3" y2="-98.7" stroke="#999" stroke-width="1.57" stroke-opacity="0.8"/><line x1="2.3" y1="-98.7" x2="-12.6" y2="-97.4" stroke="#999" stroke-width="1.57" stroke-opacity="0.8"/><line x1="-12.6" y1="-97.4" x2="-27.6" y2="-96.1" stroke="#999" stroke-width="1.57" stroke-opacity="0.8"/><line x1="-27.6" y1="-96.1" x2="-42.5" y2="-94.7" stroke="#999" stroke-width="1.57" stroke-opacity="0.8"/><line x1="-42.5" y1="-94.7" x2="-57.4" y2="-93.4" stroke="#999" stroke-width="1.57" stroke-opacity="0.8"/><line x1="-57.4" y1="-93.4" x2="-71.1" y2="-97.6" stroke="#999" stroke-width="1.57" stroke-opacity="0.8"/><line x1="-71.1" y1="-97.6" x2="-83.9" y2="-91.0" stroke="#999" stroke-width="1.57" stroke-opacity="0.8"/><line x1="-83.9" y1="-91.0" x2="-98.8" y2="-89.6" stroke="#999" stroke-width="1.57" stroke-opacity="0.8"/><line x1="-98.8" y1="-89.6" x2="-113.7" y2="-88.3" stroke="#999" stroke-width="1.57" stroke-opacity="0.8"/><line x1="-113.7" y1="-88.3" x2="-128.7" y2="-86.9" stroke="#999" stroke-width="1.57" stroke-opacity="0.8"/><line x1="-128.7" y1="-86.9" x2="-143.6" y2="-85.6" stroke="#999" stroke-width="1.57" stroke-opacity="0.8"/><line x1="-143.6" y1="-85.6" x2="-157.2" y2="-90.2" stroke="#999" stroke-width="1.57" stroke-opacity="0.8"/><line x1="-157.2" y1="-90.2" x2="-169.5" y2="-82.9" stroke="#999" stroke-width="1.57" stroke-opacity="0.8"/><line x1="-169.5" y1="-82.9" x2="-168.2" y2="-68.7" stroke="#999" stroke-width="1.57" stroke-opacity="0.8"/><line x1="-168.2" y1="-68.7" x2="-154.8" y2="-63.7" stroke="#999" stroke-width="1.57" stroke-opacity="0.8"/><line x1="-154.8" y1="-63.7" x2="-142.3" y2="-70.7" stroke="#999" stroke-width="1.57" stroke-opacity="0.8"/><line x1="-142.3" y1="-70.7" x2="-127.3" y2="-72.0" stroke="#999" stroke-width="1.57" stroke-opacity="0.8"/><line x1="-127.3" y1="-72.0" x2="-112.4" y2="-73.4" stroke="#999" stroke-width="1.57" stroke-opacity="0.8"/><line x1="-112.4" y1="-73.4" x2="-97.4" y2="-74.7" stroke="#999" stroke-width="1.57" stroke-opacity="0.8"/><line x1="-97.4" y1="-74.7" x2="-82.5" y2="-76.0" stroke="#999" stroke-width="1.57" stroke-opacity="0.8"/><line x1="-82.5" y1="-76.0" x2="-68.8" y2="-71.8" stroke="#999" stroke-width="1.57" stroke-opacity="0.8"/><line x1="-68.8" y1="-71.8" x2="-56.1" y2="-78.4" stroke="#999" stroke-width="1.57" stroke-opacity="0.8"/><line x1="-56.1" y1="-78.4" x2="-41.1" y2="-79.8" stroke="#999" stroke-width="1.57" stroke-opacity="0.8"/><line x1="-41.1" y1="-79.8" x2="-26.2" y2="-81.1" stroke="#999" stroke-width="1.57" stroke-opacity="0.8"/><line x1="-26.2" y1="-81.1" x2="-11.3" y2="-82.5" stroke="#999" stroke-width="1.57" stroke-opacity="0.8"/><line x1="-11.3" y1="-82.5" x2="3.7" y2="-83.8" stroke="#999" stroke-width="1.57" stroke-opacity="0.8"/><line x1="3.7" y1="-83.8" x2="18.6" y2="-85.1" stroke="#999" stroke-width="1.57" stroke-opacity="0.8"/><line x1="18.6" y1="-85.1" x2="33.5" y2="-86.5" stroke="#999" stroke-width="1.57" stroke-opacity="0.8"/><line x1="33.5" y1="-86.5" x2="48.5" y2="-87.8" stroke="#999" stroke-width="1.57" stroke-opacity="0.8"/><line x1="48.5" y1="-87.8" x2="63.4" y2="-89.2" stroke="#999" stroke-width="1.57" stroke-opacity="0.8"/><line x1="63.4" y1="-89.2" x2="78.4" y2="-90.5" stroke="#999" stroke-width="1.57" stroke-opacity="0.8"/><line x1="78.4" y1="-90.5" x2="99.0" y2="-88.7" stroke="#999" stroke-width="1.57" stroke-opacity="0.8"/><line x1="99.0" y1="-88.7" x2="119.6" y2="-86.8" stroke="#999" stroke-width="1.57" stroke-opacity="0.8"/><line x1="119.6" y1="-86.8" x2="134.1" y2="-82.8" stroke="#999" stroke-width="1.57" stroke-opacity="0.8"/><line x1="134.1" y1="-82.8" x2="148.5" y2="-78.8" stroke="#999" stroke-width="1.57" stroke-opacity="0.8"/><line x1="148.5" y1="-78.8" x2="153.2" y2="-65.3" stroke="#999" stroke-width="1.57" stroke-opacity="0.8"/><line x1="153.2" y1="-65.3" x2="163.7" y2="-75.0" stroke="#999" stroke-width="1.57" stroke-opacity="0.8"/><line x1="163.7" y1="-75.0" x2="178.3" y2="-71.7" stroke="#999" stroke-width="1.57" stroke-opacity="0.8"/><line x1="178.3" y1="-71.7" x2="193.0" y2="-68.3" stroke="#999" stroke-width="1.57" stroke-opacity="0.8"/><line x1="193.0" y1="-68.3" x2="207.6" y2="-65.0" stroke="#999" stroke-width="1.57" stroke-opacity="0.8"/><line x1="207.6" y1="-65.0" x2="222.2" y2="-61.7" stroke="#999" stroke-width="1.57" stroke-opacity="0.8"/><line x1="222.2" y1="-61.7" x2="236.8" y2="-58.3" stroke="#999" stroke-width="1.57" stroke-opacity="0.8"/><line x1="236.8" y1="-58.3" x2="247.4" y2="-48.7" stroke="#999" stroke-width="1.57" stroke-opacity="0.8"/><line x1="247.4" y1="-48.7" x2="261.8" y2="-48.5" stroke="#999" stroke-width="1.57" stroke-opacity="0.8"/><line x1="261.8" y1="-48.5" x2="272.6" y2="-57.8" stroke="#999" stroke-width="1.57" stroke-opacity="0.8"/><line x1="272.6" y1="-57.8" x2="269.0" y2="-73.5" stroke="#999" stroke-width="1.57" stroke-opacity="0.8"/><line x1="269.0" y1="-73.5" x2="254.5" y2="-80.2" stroke="#999" stroke-width="1.57" stroke-opacity="0.8"/><line x1="254.5" y1="-80.2" x2="240.2" y2="-72.9" stroke="#999" stroke-width="1.57" stroke-opacity="0.8"/><line x1="240.2" y1="-72.9" x2="225.5" y2="-76.3" stroke="#999" stroke-width="1.57" stroke-opacity="0.8"/><line x1="225.5" y1="-76.3" x2="210.9" y2="-79.6" stroke="#999" stroke-width="1.57" stroke-opacity="0.8"/><line x1="210.9" y1="-79.6" x2="196.3" y2="-83.0" stroke="#999" stroke-width="1.57" stroke-opacity="0.8"/><line x1="196.3" y1="-83.0" x2="181.7" y2="-86.3" stroke="#999" stroke-width="1.57" stroke-opacity="0.8"/><line x1="181.7" y1="-86.3" x2="167.0" y2="-89.6" stroke="#999" stroke-width="1.57" stroke-opacity="0.8"/><line x1="167.0" y1="-89.6" x2="152.5" y2="-93.3" stroke="#999" stroke-width="1.57" stroke-opacity="0.8"/><line x1="152.5" y1="-93.3" x2="138.0" y2="-97.3" stroke="#999" stroke-width="1.57" stroke-opacity="0.8"/><line x1="138.0" y1="-97.3" x2="123.6" y2="-101.3" stroke="#999" stroke-width="1.57" stroke-opacity="0.8"/><line x1="123.6" y1="-101.3" x2="133.0" y2="-113.8" stroke="#999" stroke-width="1.57" stroke-opacity="0.8"/><line x1="133.0" y1="-113.8" x2="119.2" y2="-113.8" stroke="#999" stroke-width="1.57" stroke-opacity="0.8"/><line x1="119.2" y1="-113.8" x2="114.5" y2="-118.6" stroke="#999" stroke-width="1.57" stroke-opacity="0.8"/><line x1="114.5" y1="-118.6" x2="108.7" y2="-122.0" stroke="#999" stroke-width="1.57" stroke-opacity="0.8"/><line x1="108.7" y1="-122.0" x2="101.1" y2="-134.6" stroke="#999" stroke-width="1.57" stroke-opacity="0.8"/><line x1="101.1" y1="-134.6" x2="86.7" y2="-130.7" stroke="#999" stroke-width="1.57" stroke-opacity="0.8"/><line x1="86.7" y1="-130.7" x2="71.6" y2="-127.0" stroke="#999" stroke-width="1.57" stroke-opacity="0.8"/><line x1="71.6" y1="-127.0" x2="55.6" y2="-124.6" stroke="#999" stroke-width="1.57" stroke-opacity="0.8"/><text x="75.5" y="-120.0" text-anchor="middle" font-size="7.4" font-family="Tahoma,Geneva,sans-serif" fill="#999">1</text><text x="-55.7" y="-107.9" text-anchor="middle" font-size="7.4" font-family="Tahoma,Geneva,sans-serif" fill="#999">10</text><text x="-153.5" y="-44.0" text-anchor="middle" font-size="7.4" font-family="Tahoma,Geneva,sans-serif" fill="#999">20</text><text x="-9.7" y="-62.7" text-anchor="middle" font-size="7.4" font-family="Tahoma,Geneva,sans-serif" fill="#999">30</text><text x="136.9" y="-63.6" text-anchor="middle" font-size="7.4" font-family="Tahoma,Geneva,sans-serif" fill="#999">40</text><text x="289.1" y="-50.4" text-anchor="middle" font-size="7.4" font-family="Tahoma,Geneva,sans-serif" fill="#999">50</text><text x="142.6" y="-111.2" text-anchor="middle" font-size="7.4" font-family="Tahoma,Geneva,sans-serif" fill="#999">60</text><circle cx="77.0" cy="-105.5" r="4.30" fill="lightgreen" stroke="#ccc" stroke-width="1.57"/><text x="77.0" y="-103.3" text-anchor="middle" font-size="5.4" font-family="Tahoma,Geneva,sans-serif" font-weight="bold" fill="rgb(100,100,100)">A</text><circle cx="62.1" cy="-104.1" r="4.30" fill="lightgreen" stroke="#ccc" stroke-width="1.57"/><text x="62.1" y="-102.0" text-anchor="middle" font-size="5.4" font-family="Tahoma,Geneva,sans-serif" font-weight="bold" fill="rgb(100,100,100)">U</text><circle cx="47.1" cy="-102.8" r="4.30" fill="lightgreen" stroke="#ccc" stroke-width="1.57"/><text x="47.1" y="-100.6" text-anchor="middle" font-size="5.4" font-family="Tahoma,Geneva,sans-serif" font-weight="bold" fill="rgb(100,100,100)">A</text><circle cx="32.2" cy="-101.4" r="4.30" fill="lightgreen" stroke="#ccc" stroke-width="1.57"/><text x="32.2" y="-99.3" text-anchor="middle" font-size="5.4" font-family="Tahoma,Geneva,sans-serif" font-weight="bold" fill="rgb(100,100,100)">A</text><circle cx="17.3" cy="-100.1" r="4.30" fill="lightgreen" stroke="#ccc" stroke-width="1.57"/><text x="17.3" y="-97.9" text-anchor="middle" font-size="5.4" font-family="Tahoma,Geneva,sans-serif" font-weight="bold" fill="rgb(100,100,100)">G</text><circle cx="2.3" cy="-98.7" r="4.30" fill="lightgreen" stroke="#ccc" stroke-width="1.57"/><text x="2.3" y="-96.6" text-anchor="middle" font-size="5.4" font-family="Tahoma,Geneva,sans-serif" font-weight="bold" fill="rgb(100,100,100)">C</text><circle cx="-12.6" cy="-97.4" r="4.30" fill="lightgreen" stroke="#ccc" stroke-width="1.57"/><text x="-12.6" y="-95.2" text-anchor="middle" font-size="5.4" font-family="Tahoma,Geneva,sans-serif" font-weight="bold" fill="rgb(100,100,100)">G</text><circle cx="-27.6" cy="-96.1" r="4.30" fill="lightgreen" stroke="#ccc" stroke-width="1.57"/><text x="-27.6" y="-93.9" text-anchor="middle" font-size="5.4" font-family="Tahoma,Geneva,sans-serif" font-weight="bold" fill="rgb(100,100,100)">C</text><circle cx="-42.5" cy="-94.7" r="4.30" fill="lightgreen" stroke="#ccc" stroke-width="1.57"/><text x="-42.5" y="-92.6" text-anchor="middle" font-size="5.4" font-family="Tahoma,Geneva,sans-serif" font-weight="bold" fill="rgb(100,100,100)">C</text><circle cx="-57.4" cy="-93.4" r="4.30" fill="lightgreen" stroke="#ccc" stroke-width="1.57"/><text x="-57.4" y="-91.2" text-anchor="middle" font-size="5.4" font-family="Tahoma,Geneva,sans-serif" font-weight="bold" fill="rgb(100,100,100)">U</text><circle cx="-71.1" cy="-97.6" r="4.30" fill="#dbdb8d" stroke="#ccc" stroke-width="1.57"/><text x="-71.1" y="-95.4" text-anchor="middle" font-size="5.4" font-family="Tahoma,Geneva,sans-serif" font-weight="bold" fill="rgb(100,100,100)">C</text><circle cx="-83.9" cy="-91.0" r="4.30" fill="lightgreen" stroke="#ccc" stroke-width="1.57"/><text x="-83.9" y="-88.8" text-anchor="middle" font-size="5.4" font-family="Tahoma,Geneva,sans-serif" font-weight="bold" fill="rgb(100,100,100)">U</text><circle cx="-98.8" cy="-89.6" r="4.30" fill="lightgreen" stroke="#ccc" stroke-width="1.57"/><text x="-98.8" y="-87.5" text-anchor="middle" font-size="5.4" font-family="Tahoma,Geneva,sans-serif" font-weight="bold" fill="rgb(100,100,100)">U</text><circle cx="-113.7" cy="-88.3" r="4.30" fill="lightgreen" stroke="#ccc" stroke-width="1.57"/><text x="-113.7" y="-86.1" text-anchor="middle" font-size="5.4" font-family="Tahoma,Geneva,sans-serif" font-weight="bold" fill="rgb(100,100,100)">G</text><circle cx="-128.7" cy="-86.9" r="4.30" fill="lightgreen" stroke="#ccc" stroke-width="1.57"/><text x="-128.7" y="-84.8" text-anchor="middle" font-size="5.4" font-family="Tahoma,Geneva,sans-serif" font-weight="bold" fill="rgb(100,100,100)">G</text><circle cx="-143.6" cy="-85.6" r="4.30" fill="lightgreen" stroke="#ccc" stroke-width="1.57"/><text x="-143.6" y="-83.5" text-anchor="middle" font-size="5.4" font-family="Tahoma,Geneva,sans-serif" font-weight="bold" fill="rgb(100,100,100)">C</text><circle cx="-157.2" cy="-90.2" r="4.30" fill="lightblue" stroke="#ccc" stroke-width="1.57"/><text x="-157.2" y="-88.1" text-anchor="middle" font-size="5.4" font-family="Tahoma,Geneva,sans-serif" font-weight="bold" fill="rgb(100,100,100)">A</text><circle cx="-169.5" cy="-82.9" r="4.30" fill="lightblue" stroke="#ccc" stroke-width="1.57"/><text x="-169.5" y="-80.8" text-anchor="middle" font-size="5.4" font-family="Tahoma,Geneva,sans-serif" font-weight="bold" fill="rgb(100,100,100)">U</text><circle cx="-168.2" cy="-68.7" r="4.30" fill="lightblue" stroke="#ccc" stroke-width="1.57"/><text x="-168.2" y="-66.5" text-anchor="middle" font-size="5.4" font-family="Tahoma,Geneva,sans-serif" font-weight="bold" fill="rgb(100,100,100)">A</text><circle cx="-154.8" cy="-63.7" r="4.30" fill="lightblue" stroke="#ccc" stroke-width="1.57"/><text x="-154.8" y="-61.5" text-anchor="middle" font-size="5.4" font-family="Tahoma,Geneva,sans-serif" font-weight="bold" fill="rgb(100,100,100)">A</text><circle cx="-142.3" cy="-70.7" r="4.30" fill="lightgreen" stroke="#ccc" stroke-width="1.57"/><text x="-142.3" y="-68.5" text-anchor="middle" font-size="5.4" font-family="Tahoma,Geneva,sans-serif" font-weight="bold" fill="rgb(100,100,100)">G</text><circle cx="-127.3" cy="-72.0" r="4.30" fill="lightgreen" stroke="#ccc" stroke-width="1.57"/><text x="-127.3" y="-69.9" text-anchor="middle" font-size="5.4" font-family="Tahoma,Geneva,sans-serif" font-weight="bold" fill="rgb(100,100,100)">C</text><circle cx="-112.4" cy="-73.4" r="4.30" fill="lightgreen" stroke="#ccc" stroke-width="1.57"/><text x="-112.4" y="-71.2" text-anchor="middle" font-size="5.4" font-family="Tahoma,Geneva,sans-serif" font-weight="bold" fill="rgb(100,100,100)">U</text><circle cx="-97.4" cy="-74.7" r="4.30" fill="lightgreen" stroke="#ccc" stroke-width="1.57"/><text x="-97.4" y="-72.6" text-anchor="middle" font-size="5.4" font-family="Tahoma,Geneva,sans-serif" font-weight="bold" fill="rgb(100,100,100)">A</text><circle cx="-82.5" cy="-76.0" r="4.30" fill="lightgreen" stroke="#ccc" stroke-width="1.57"/><text x="-82.5" y="-73.9" text-anchor="middle" font-size="5.4" font-family="Tahoma,Geneva,sans-serif" font-weight="bold" fill="rgb(100,100,100)">A</text><circle cx="-68.8" cy="-71.8" r="4.30" fill="#dbdb8d" stroke="#ccc" stroke-width="1.57"/><text x="-68.8" y="-69.7" text-anchor="middle" font-size="5.4" font-family="Tahoma,Geneva,sans-serif" font-weight="bold" fill="rgb(100,100,100)">A</text><circle cx="-56.1" cy="-78.4" r="4.30" fill="lightgreen" stroke="#ccc" stroke-width="1.57"/><text x="-56.1" y="-76.3" text-anchor="middle" font-size="5.4" font-family="Tahoma,Geneva,sans-serif" font-weight="bold" fill="rgb(100,100,100)">A</text><circle cx="-41.1" cy="-79.8" r="4.30" fill="lightgreen" stroke="#ccc" stroke-width="1.57"/><text x="-41.1" y="-77.6" text-anchor="middle" font-size="5.4" font-family="Tahoma,Geneva,sans-serif" font-weight="bold" fill="rgb(100,100,100)">G</text><circle cx="-26.2" cy="-81.1" r="4.30" fill="lightgreen" stroke="#ccc" stroke-width="1.57"/><text x="-26.2" y="-79.0" text-anchor="middle" font-size="5.4" font-family="Tahoma,Geneva,sans-serif" font-weight="bold" fill="rgb(100,100,100)">G</text><circle cx="-11.3" cy="-82.5" r="4.30" fill="lightgreen" stroke="#ccc" stroke-width="1.57"/><text x="-11.3" y="-80.3" text-anchor="middle" font-size="5.4" font-family="Tahoma,Geneva,sans-serif" font-weight="bold" fill="rgb(100,100,100)">C</text><circle cx="3.7" cy="-83.8" r="4.30" fill="lightgreen" stroke="#ccc" stroke-width="1.57"/><text x="3.7" y="-81.7" text-anchor="middle" font-size="5.4" font-family="Tahoma,Geneva,sans-serif" font-weight="bold" fill="rgb(100,100,100)">G</text><circle cx="18.6" cy="-85.1" r="4.30" fill="lightgreen" stroke="#ccc" stroke-width="1.57"/><text x="18.6" y="-83.0" text-anchor="middle" font-size="5.4" font-family="Tahoma,Geneva,sans-serif" font-weight="bold" fill="rgb(100,100,100)">C</text><circle cx="33.5" cy="-86.5" r="4.30" fill="lightgreen" stroke="#ccc" stroke-width="1.57"/><text x="33.5" y="-84.3" text-anchor="middle" font-size="5.4" font-family="Tahoma,Geneva,sans-serif" font-weight="bold" fill="rgb(100,100,100)">U</text><circle cx="48.5" cy="-87.8" r="4.30" fill="lightgreen" stroke="#ccc" stroke-width="1.57"/><text x="48.5" y="-85.7" text-anchor="middle" font-size="5.4" font-family="Tahoma,Geneva,sans-serif" font-weight="bold" fill="rgb(100,100,100)">U</text><circle cx="63.4" cy="-89.2" r="4.30" fill="lightgreen" stroke="#ccc" stroke-width="1.57"/><text x="63.4" y="-87.0" text-anchor="middle" font-size="5.4" font-family="Tahoma,Geneva,sans-serif" font-weight="bold" fill="rgb(100,100,100)">A</text><circle cx="78.4" cy="-90.5" r="4.30" fill="lightgreen" stroke="#ccc" stroke-width="1.57"/><text x="78.4" y="-88.4" text-anchor="middle" font-size="5.4" font-family="Tahoma,Geneva,sans-serif" font-weight="bold" fill="rgb(100,100,100)">U</text><circle cx="99.0" cy="-88.7" r="4.30" fill="lightsalmon" stroke="#ccc" stroke-width="1.57"/><text x="99.0" y="-86.5" text-anchor="middle" font-size="5.4" font-family="Tahoma,Geneva,sans-serif" font-weight="bold" fill="rgb(100,100,100)">A</text><circle cx="119.6" cy="-86.8" r="4.30" fill="lightgreen" stroke="#ccc" stroke-width="1.57"/><text x="119.6" y="-84.7" text-anchor="middle" font-size="5.4" font-family="Tahoma,Geneva,sans-serif" font-weight="bold" fill="rgb(100,100,100)">A</text><circle cx="134.1" cy="-82.8" r="4.30" fill="lightgreen" stroke="#ccc" stroke-width="1.57"/><text x="134.1" y="-80.7" text-anchor="middle" font-size="5.4" font-family="Tahoma,Geneva,sans-serif" font-weight="bold" fill="rgb(100,100,100)">G</text><circle cx="148.5" cy="-78.8" r="4.30" fill="lightgreen" stroke="#ccc" stroke-width="1.57"/><text x="148.5" y="-76.7" text-anchor="middle" font-size="5.4" font-family="Tahoma,Geneva,sans-serif" font-weight="bold" fill="rgb(100,100,100)">G</text><circle cx="153.2" cy="-65.3" r="4.30" fill="#dbdb8d" stroke="#ccc" stroke-width="1.57"/><text x="153.2" y="-63.1" text-anchor="middle" font-size="5.4" font-family="Tahoma,Geneva,sans-serif" font-weight="bold" fill="rgb(100,100,100)">A</text><circle cx="163.7" cy="-75.0" r="4.30" fill="lightgreen" stroke="#ccc" stroke-width="1.57"/><text x="163.7" y="-72.9" text-anchor="middle" font-size="5.4" font-family="Tahoma,Geneva,sans-serif" font-weight="bold" fill="rgb(100,100,100)">U</text><circle cx="178.3" cy="-71.7" r="4.30" fill="lightgreen" stroke="#ccc" stroke-width="1.57"/><text x="178.3" y="-69.5" text-anchor="middle" font-size="5.4" font-family="Tahoma,Geneva,sans-serif" font-weight="bold" fill="rgb(100,100,100)">C</text><circle cx="193.0" cy="-68.3" r="4.30" fill="lightgreen" stroke="#ccc" stroke-width="1.57"/><text x="193.0" y="-66.2" text-anchor="middle" font-size="5.4" font-family="Tahoma,Geneva,sans-serif" font-weight="bold" fill="rgb(100,100,100)">G</text><circle cx="207.6" cy="-65.0" r="4.30" fill="lightgreen" stroke="#ccc" stroke-width="1.57"/><text x="207.6" y="-62.8" text-anchor="middle" font-size="5.4" font-family="Tahoma,Geneva,sans-serif" font-weight="bold" fill="rgb(100,100,100)">G</text><circle cx="222.2" cy="-61.7" r="4.30" fill="lightgreen" stroke="#ccc" stroke-width="1.57"/><text x="222.2" y="-59.5" text-anchor="middle" font-size="5.4" font-family="Tahoma,Geneva,sans-serif" font-weight="bold" fill="rgb(100,100,100)">G</text><circle cx="236.8" cy="-58.3" r="4.30" fill="lightgreen" stroke="#ccc" stroke-width="1.57"/><text x="236.8" y="-56.2" text-anchor="middle" font-size="5.4" font-family="Tahoma,Geneva,sans-serif" font-weight="bold" fill="rgb(100,100,100)">U</text><circle cx="247.4" cy="-48.7" r="4.30" fill="lightblue" stroke="#ccc" stroke-width="1.57"/><text x="247.4" y="-46.6" text-anchor="middle" font-size="5.4" font-family="Tahoma,Geneva,sans-serif" font-weight="bold" fill="rgb(100,100,100)">G</text><circle cx="261.8" cy="-48.5" r="4.30" fill="lightblue" stroke="#ccc" stroke-width="1.57"/><text x="261.8" y="-46.4" text-anchor="middle" font-size="5.4" font-family="Tahoma,Geneva,sans-serif" font-weight="bold" fill="rgb(100,100,100)">A</text><circle cx="272.6" cy="-57.8" r="4.30" fill="lightgreen" stroke="#ccc" stroke-width="1.57"/><text x="272.6" y="-55.7" text-anchor="middle" font-size="5.4" font-family="Tahoma,Geneva,sans-serif" font-weight="bold" fill="rgb(100,100,100)">U</text><circle cx="269.0" cy="-73.5" r="4.30" fill="lightgreen" stroke="#ccc" stroke-width="1.57"/><text x="269.0" y="-71.3" text-anchor="middle" font-size="5.4" font-family="Tahoma,Geneva,sans-serif" font-weight="bold" fill="rgb(100,100,100)">G</text><circle cx="254.5" cy="-80.2" r="4.30" fill="lightgreen" stroke="#ccc" stroke-width="1.57"/><text x="254.5" y="-78.1" text-anchor="middle" font-size="5.4" font-family="Tahoma,Geneva,sans-serif" font-weight="bold" fill="rgb(100,100,100)">A</text><circle cx="240.2" cy="-72.9" r="4.30" fill="lightgreen" stroke="#ccc" stroke-width="1.57"/><text x="240.2" y="-70.8" text-anchor="middle" font-size="5.4" font-family="Tahoma,Geneva,sans-serif" font-weight="bold" fill="rgb(100,100,100)">A</text><circle cx="225.5" cy="-76.3" r="4.30" fill="lightgreen" stroke="#ccc" stroke-width="1.57"/><text x="225.5" y="-74.1" text-anchor="middle" font-size="5.4" font-family="Tahoma,Geneva,sans-serif" font-weight="bold" fill="rgb(100,100,100)">C</text><circle cx="210.9" cy="-79.6" r="4.30" fill="lightgreen" stroke="#ccc" stroke-width="1.57"/><text x="210.9" y="-77.5" text-anchor="middle" font-size="5.4" font-family="Tahoma,Geneva,sans-serif" font-weight="bold" fill="rgb(100,100,100)">C</text><circle cx="196.3" cy="-83.0" r="4.30" fill="lightgreen" stroke="#ccc" stroke-width="1.57"/><text x="196.3" y="-80.8" text-anchor="middle" font-size="5.4" font-family="Tahoma,Geneva,sans-serif" font-weight="bold" fill="rgb(100,100,100)">U</text><circle cx="181.7" cy="-86.3" r="4.30" fill="lightgreen" stroke="#ccc" stroke-width="1.57"/><text x="181.7" y="-84.1" text-anchor="middle" font-size="5.4" font-family="Tahoma,Geneva,sans-serif" font-weight="bold" fill="rgb(100,100,100)">G</text><circle cx="167.0" cy="-89.6" r="4.30" fill="lightgreen" stroke="#ccc" stroke-width="1.57"/><text x="167.0" y="-87.5" text-anchor="middle" font-size="5.4" font-family="Tahoma,Geneva,sans-serif" font-weight="bold" fill="rgb(100,100,100)">A</text><circle cx="152.5" cy="-93.3" r="4.30" fill="lightgreen" stroke="#ccc" stroke-width="1.57"/><text x="152.5" y="-91.1" text-anchor="middle" font-size="5.4" font-family="Tahoma,Geneva,sans-serif" font-weight="bold" fill="rgb(100,100,100)">C</text><circle cx="138.0" cy="-97.3" r="4.30" fill="lightgreen" stroke="#ccc" stroke-width="1.57"/><text x="138.0" y="-95.1" text-anchor="middle" font-size="5.4" font-family="Tahoma,Geneva,sans-serif" font-weight="bold" fill="rgb(100,100,100)">C</text><circle cx="123.6" cy="-101.3" r="4.30" fill="lightgreen" stroke="#ccc" stroke-width="1.57"/><text x="123.6" y="-99.1" text-anchor="middle" font-size="5.4" font-family="Tahoma,Geneva,sans-serif" font-weight="bold" fill="rgb(100,100,100)">U</text><circle cx="133.0" cy="-113.8" r="4.30" fill="lightsalmon" stroke="#ccc" stroke-width="1.57"/><text x="133.0" y="-111.7" text-anchor="middle" font-size="5.4" font-family="Tahoma,Geneva,sans-serif" font-weight="bold" fill="rgb(100,100,100)">C</text><circle cx="119.2" cy="-113.8" r="4.30" fill="lightgreen" stroke="#ccc" stroke-width="1.57"/><text x="119.2" y="-111.7" text-anchor="middle" font-size="5.4" font-family="Tahoma,Geneva,sans-serif" font-weight="bold" fill="rgb(100,100,100)">U</text><circle cx="114.5" cy="-118.6" r="4.30" fill="lightgreen" stroke="#ccc" stroke-width="1.57"/><text x="114.5" y="-116.5" text-anchor="middle" font-size="5.4" font-family="Tahoma,Geneva,sans-serif" font-weight="bold" fill="rgb(100,100,100)">C</text><circle cx="108.7" cy="-122.0" r="4.30" fill="lightgreen" stroke="#ccc" stroke-width="1.57"/><text x="108.7" y="-119.8" text-anchor="middle" font-size="5.4" font-family="Tahoma,Geneva,sans-serif" font-weight="bold" fill="rgb(100,100,100)">A</text><circle cx="101.1" cy="-134.6" r="4.30" fill="lightsalmon" stroke="#ccc" stroke-width="1.57"/><text x="101.1" y="-132.5" text-anchor="middle" font-size="5.4" font-family="Tahoma,Geneva,sans-serif" font-weight="bold" fill="rgb(100,100,100)">A</text><circle cx="86.7" cy="-130.7" r="4.30" fill="lightsalmon" stroke="#ccc" stroke-width="1.57"/><text x="86.7" y="-128.6" text-anchor="middle" font-size="5.4" font-family="Tahoma,Geneva,sans-serif" font-weight="bold" fill="rgb(100,100,100)">A</text><circle cx="71.6" cy="-127.0" r="4.30" fill="lightsalmon" stroke="#ccc" stroke-width="1.57"/><text x="71.6" y="-124.8" text-anchor="middle" font-size="5.4" font-family="Tahoma,Geneva,sans-serif" font-weight="bold" fill="rgb(100,100,100)">U</text><circle cx="55.6" cy="-124.6" r="4.30" fill="lightsalmon" stroke="#ccc" stroke-width="1.57"/><text x="55.6" y="-122.5" text-anchor="middle" font-size="5.4" font-family="Tahoma,Geneva,sans-serif" font-weight="bold" fill="rgb(100,100,100)">G</text></svg>