<svg xmlns="http://www.w3.org/2000/svg" viewBox="-26.1 -345.3 246.0 510.0" width="246" height="510"><style></style><line x1="25.9" y1="90.9" x2="40.2" y2="95.5" stroke="#999" stroke-width="1.64" stroke-opacity="0.8"/><line x1="30.6" y1="76.6" x2="44.8" y2="81.3" stroke="#999" stroke-width="1.64" stroke-opacity="0.8"/><line x1="35.2" y1="62.4" x2="49.5" y2="67.0" stroke="#999" stroke-width="1.64" stroke-opacity="0.8"/><line x1="39.8" y1="48.1" x2="54.1" y2="52.7" stroke="#999" stroke-width="1.64" stroke-opacity="0.8"/><line x1="44.5" y1="33.8" x2="58.7" y2="38.5" stroke="#999" stroke-width="1.64" stroke-opacity="0.8"/><line x1="52.7" y1="8.6" x2="66.9" y2="13.2" stroke="#999" stroke-width="1.64" stroke-opacity="0.8"/><line x1="57.3" y1="-5.7" x2="71.6" y2="-1.0" stroke="#999" stroke-width="1.64" stroke-opacity="0.8"/><line x1="67.6" y1="-35.0" x2="81.7" y2="-29.8" stroke="#999" stroke-width="1.64" stroke-opacity="0.8"/><line x1="72.9" y1="-49.1" x2="86.9" y2="-43.8" stroke="#999" stroke-width="1.64" stroke-opacity="0.8"/><line x1="78.1" y1="-63.1" x2="92.2" y2="-57.9" stroke="#999" stroke-width="1.64" stroke-opacity="0.8"/><line x1="83.4" y1="-77.2" x2="97.5" y2="-71.9" stroke="#999" stroke-width="1.64" stroke-opacity="0.8"/><line x1="88.7" y1="-91.2" x2="102.7" y2="-85.9" stroke="#999" stroke-width="1.64" stroke-opacity="0.8"/><line x1="97.3" y1="-114.1" x2="111.3" y2="-108.8" stroke="#999" stroke-width="1.64" stroke-opacity="0.8"/><line x1="102.5" y1="-128.1" x2="116.6" y2="-122.8" stroke="#999" stroke-width="1.64" stroke-opacity="0.8"/><line x1="107.8" y1="-142.1" x2="121.9" y2="-136.9" stroke="#999" stroke-width="1.64" stroke-opacity="0.8"/><line x1="112.8" y1="-156.3" x2="127.0" y2="-151.7" stroke="#999" stroke-width="1.64" stroke-opacity="0.8"/><line x1="117.4" y1="-170.6" x2="131.7" y2="-165.9" stroke="#999" stroke-width="1.64" stroke-opacity="0.8"/><line x1="122.0" y1="-184.8" x2="136.3" y2="-180.2" stroke="#999" stroke-width="1.64" stroke-opacity="0.8"/><line x1="126.7" y1="-199.1" x2="140.9" y2="-194.5" stroke="#999" stroke-width="1.64" stroke-opacity="0.8"/><line x1="131.3" y1="-213.4" x2="145.6" y2="-208.7" stroke="#999" stroke-width="1.64" stroke-opacity="0.8"/><line x1="139.5" y1="-238.6" x2="153.8" y2="-234.0" stroke="#999" stroke-width="1.64" stroke-opacity="0.8"/><line x1="144.1" y1="-252.9" x2="158.4" y2="-248.2" stroke="#999" stroke-width="1.64" stroke-opacity="0.8"/><line x1="148.8" y1="-267.1" x2="163.0" y2="-262.5" stroke="#999" stroke-width="1.64" stroke-opacity="0.8"/><line x1="47.6" y1="109.5" x2="187.0" y2="-279.7" stroke="#d9534f" stroke-width="1.64" stroke-opacity="0.6"/><line x1="42.9" y1="124.6" x2="187.1" y2="-295.2" stroke="#d9534f" stroke-width="1.64" stroke-opacity="0.6"/><line x1="28.8" y1="131.8" x2="178.0" y2="-307.7" stroke="#d9534f" stroke-width="1.64" stroke-opacity="0.6"/><line x1="13.8" y1="126.9" x2="163.3" y2="-312.5" stroke="#d9534f" stroke-width="1.64" stroke-opacity="0.6"/><line x1="6.7" y1="112.8" x2="148.5" y2="-307.7" stroke="#d9534f" stroke-width="1.64" stroke-opacity="0.6"/><line x1="11.7" y1="97.8" x2="139.4" y2="-295.1" stroke="#d9534f" stroke-width="1.64" stroke-opacity="0.6"/><line x1="148.8" y1="-267.1" x2="144.1" y2="-252.9" stroke="#999" stroke-width="1.64" stroke-opacity="0.8"/><line x1="144.1" y1="-252.9" x2="139.5" y2="-238.6" stroke="#999" stroke-width="1.64" stroke-opacity="0.8"/><line x1="139.5" y1="-238.6" x2="128.9" y2="-228.1" stroke="#999" stroke-width="1.64" stroke-opacity="0.8"/><line x1="128.9" y1="-228.1" x2="131.3" y2="-213.4" stroke="#999" stroke-width="1.64" stroke-opacity="0.8"/><line x1="131.3" y1="-213.4" x2="126.7" y2="-199.1" stroke="#999" stroke-width="1.64" stroke-opacity="0.8"/><line x1="126.7" y1="-199.1" x2="122.0" y2="-184.8" stroke="#999" stroke-width="1.64" stroke-opacity="0.8"/><line x1="122.0" y1="-184.8" x2="117.4" y2="-170.6" stroke="#999" stroke-width="1.64" stroke-opacity="0.8"/><line x1="117.4" y1="-170.6" x2="112.8" y2="-156.3" stroke="#999" stroke-width="1.64" stroke-opacity="0.8"/><line x1="112.8" y1="-156.3" x2="107.8" y2="-142.1" stroke="#999" stroke-width="1.64" stroke-opacity="0.8"/><line x1="107.8" y1="-142.1" x2="102.5" y2="-128.1" stroke="#999" stroke-width="1.64" stroke-opacity="0.8"/><line x1="102.5" y1="-128.1" x2="97.3" y2="-114.1" stroke="#999" stroke-width="1.64" stroke-opacity="0.8"/><line x1="97.3" y1="-114.1" x2="85.0" y2="-105.6" stroke="#999" stroke-width="1.64" stroke-opacity="0.8"/><line x1="85.0" y1="-105.6" x2="88.7" y2="-91.2" stroke="#999" stroke-width="1.64" stroke-opacity="0.8"/><line x1="88.7" y1="-91.2" x2="83.4" y2="-77.2" stroke="#999" stroke-width="1.64" stroke-opacity="0.8"/><line x1="83.4" y1="-77.2" x2="78.1" y2="-63.1" stroke="#999" stroke-width="1.64" stroke-opacity="0.8"/><line x1="78.1" y1="-63.1" x2="72.9" y2="-49.1" stroke="#999" stroke-width="1.64" stroke-opacity="0.8"/><line x1="72.9" y1="-49.1" x2="67.6" y2="-35.0" stroke="#999" stroke-width="1.64" stroke-opacity="0.8"/><line x1="67.6" y1="-35.0" x2="53.2" y2="-31.1" stroke="#999" stroke-width="1.64" stroke-opacity="0.8"/><line x1="53.2" y1="-31.1" x2="47.9" y2="-17.2" stroke="#999" stroke-width="1.64" stroke-opacity="0.8"/><line x1="47.9" y1="-17.2" x2="57.3" y2="-5.7" stroke="#999" stroke-width="1.64" stroke-opacity="0.8"/><line x1="57.3" y1="-5.7" x2="52.7" y2="8.6" stroke="#999" stroke-width="1.64" stroke-opacity="0.8"/><line x1="52.7" y1="8.6" x2="42.1" y2="19.1" stroke="#999" stroke-width="1.64" stroke-opacity="0.8"/><line x1="42.1" y1="19.1" x2="44.5" y2="33.8" stroke="#999" stroke-width="1.64" stroke-opacity="0.8"/><line x1="44.5" y1="33.8" x2="39.8" y2="48.1" stroke="#999" stroke-width="1.64" stroke-opacity="0.8"/><line x1="39.8" y1="48.1" x2="35.2" y2="62.4" stroke="#999" stroke-width="1.64" stroke-opacity="0.8"/><line x1="35.2" y1="62.4" x2="30.6" y2="76.6" stroke="#999" stroke-width="1.64" stroke-opacity="0.8"/><line x1="30.6" y1="76.6" x2="25.9" y2="90.9" stroke="#999" stroke-width="1.64" stroke-opacity="0.8"/><line x1="25.9" y1="90.9" x2="11.7" y2="97.8" stroke="#999" stroke-width="1.64" stroke-opacity="0.8"/><line x1="11.7" y1="97.8" x2="6.7" y2="112.8" stroke="#999" stroke-width="1.64" stroke-opacity="0.8"/><line x1="6.7" y1="112.8" x2="13.8" y2="126.9" stroke="#999" stroke-width="1.64" stroke-opacity="0.8"/><line x1="13.8" y1="126.9" x2="28.8" y2="131.8" stroke="#999" stroke-width="1.64" stroke-opacity="0.8"/><line x1="28.8" y1="131.8" x2="42.9" y2="124.6" stroke="#999" stroke-width="1.64" stroke-opacity="0.8"/><line x1="42.9" y1="124.6" x2="47.6" y2="109.5" stroke="#999" stroke-width="1.64" stroke-opacity="0.8"/><line x1="47.6" y1="109.5" x2="40.2" y2="95.5" stroke="#999" stroke-width="1.64" stroke-opacity="0.8"/><line x1="40.2" y1="95.5" x2="44.8" y2="81.3" stroke="#999" stroke-width="1.64" stroke-opacity="0.8"/><line x1="44.8" y1="81.3" x2="49.5" y2="67.0" stroke="#999" stroke-width="1.64" stroke-opacity="0.8"/><line x1="49.5" y1="67.0" x2="54.1" y2="52.7" stroke="#999" stroke-width="1.64" stroke-opacity="0.8"/><line x1="54.1" y1="52.7" x2="58.7" y2="38.5" stroke="#999" stroke-width="1.64" stroke-opacity="0.8"/><line x1="58.7" y1="38.5" x2="69.3" y2="27.9" stroke="#999" stroke-width="1.64" stroke-opacity="0.8"/><line x1="69.3" y1="27.9" x2="66.9" y2="13.2" stroke="#999" stroke-width="1.64" stroke-opacity="0.8"/><line x1="66.9" y1="13.2" x2="71.6" y2="-1.0" stroke="#999" stroke-width="1.64" stroke-opacity="0.8"/><line x1="71.6" y1="-1.0" x2="78.3" y2="-14.8" stroke="#999" stroke-width="1.64" stroke-opacity="0.8"/><line x1="78.3" y1="-14.8" x2="81.7" y2="-29.8" stroke="#999" stroke-width="1.64" stroke-opacity="0.8"/><line x1="81.7" y1="-29.8" x2="86.9" y2="-43.8" stroke="#999" stroke-width="1.64" stroke-opacity="0.8"/><line x1="86.9" y1="-43.8" x2="92.2" y2="-57.9" stroke="#999" stroke-width="1.64" stroke-opacity="0.8"/><line x1="92.2" y1="-57.9" x2="97.5" y2="-71.9" stroke="#999" stroke-width="1.64" stroke-opacity="0.8"/><line x1="97.5" y1="-71.9" x2="102.7" y2="-85.9" stroke="#999" stroke-width="1.64" stroke-opacity="0.8"/><line x1="102.7" y1="-85.9" x2="115.0" y2="-94.4" stroke="#999" stroke-width="1.64" stroke-opacity="0.8"/><line x1="115.0" y1="-94.4" x2="111.3" y2="-108.8" stroke="#999" stroke-width="1.64" stroke-opacity="0.8"/><line x1="111.3" y1="-108.8" x2="116.6" y2="-122.8" stroke="#999" stroke-width="1.64" stroke-opacity="0.8"/><line x1="116.6" y1="-122.8" x2="121.9" y2="-136.9" stroke="#999" stroke-width="1.64" stroke-opacity="0.8"/><line x1="121.9" y1="-136.9" x2="136.4" y2="-140.1" stroke="#999" stroke-width="1.64" stroke-opacity="0.8"/><line x1="136.4" y1="-140.1" x2="127.0" y2="-151.7" stroke="#999" stroke-width="1.64" stroke-opacity="0.8"/><line x1="127.0" y1="-151.7" x2="131.7" y2="-165.9" stroke="#999" stroke-width="1.64" stroke-opacity="0.8"/><line x1="131.7" y1="-165.9" x2="136.3" y2="-180.2" stroke="#999" stroke-width="1.64" stroke-opacity="0.8"/><line x1="136.3" y1="-180.2" x2="140.9" y2="-194.5" stroke="#999" stroke-width="1.64" stroke-opacity="0.8"/><line x1="140.9" y1="-194.5" x2="145.6" y2="-208.7" stroke="#999" stroke-width="1.64" stroke-opacity="0.8"/><line x1="145.6" y1="-208.7" x2="156.1" y2="-219.2" stroke="#999" stroke-width="1.64" stroke-opacity="0.8"/><line x1="156.1" y1="-219.2" x2="153.8" y2="-234.0" stroke="#999" stroke-width="1.64" stroke-opacity="0.8"/><line x1="153.8" y1="-234.0" x2="158.4" y2="-248.2" stroke="#999" stroke-width="1.64" stroke-opacity="0.8"/><line x1="158.4" y1="-248.2" x2="163.0" y2="-262.5" stroke="#999" stroke-width="1.64" stroke-opacity="0.8"/><line x1="163.0" y1="-262.5" x2="176.7" y2="-268.8" stroke="#999" stroke-width="1.64" stroke-opacity="0.8"/><line x1="176.7" y1="-268.8" x2="187.0" y2="-279.7" stroke="#999" stroke-width="1.64" stroke-opacity="0.8"/><line x1="187.0" y1="-279.7" x2="187.1" y2="-295.2" stroke="#999" stroke-width="1.64" stroke-opacity="0.8"/><line x1="187.1" y1="-295.2" x2="178.0" y2="-307.7" stroke="#999" stroke-width="1.64" stroke-opacity="0.8"/><line x1="178.0" y1="-307.7" x2="163.3" y2="-312.5" stroke="#999" stroke-width="1.64" stroke-opacity="0.8"/><line x1="163.3" y1="-312.5" x2="148.5" y2="-307.7" stroke="#999" stroke-width="1.64" stroke-opacity="0.8"/><line x1="148.5" y1="-307.7" x2="139.4" y2="-295.1" stroke="#999" stroke-width="1.64" stroke-opacity="0.8"/><text x="131.8" y="-269.9" text-anchor="middle" font-size="7.8" font-family="Tahoma,Geneva,sans-serif" fill="#999">1</text><text x="91.0" y="-145.5" text-anchor="middle" font-size="7.8" font-family="Tahoma,Geneva,sans-serif" fill="#999">10</text><text x="30.2" y="-11.7" text-anchor="middle" font-size="7.8" font-family="Tahoma,Geneva,sans-serif" fill="#999">20</text><text x="-11.2" y="116.8" text-anchor="middle" font-size="7.8" font-family="Tahoma,Geneva,sans-serif" fill="#999">30</text><text x="86.3" y="36.2" text-anchor="middle" font-size="7.8" font-family="Tahoma,Geneva,sans-serif" fill="#999">40</text><text x="129.2" y="-105.1" text-anchor="middle" font-size="7.8" font-family="Tahoma,Geneva,sans-serif" fill="#999">50</text><text x="171.6" y="-229.9" text-anchor="middle" font-size="7.8" font-family="Tahoma,Geneva,sans-serif" fill="#999">60</text><circle cx="148.8" cy="-267.1" r="4.47" fill="lightgreen" stroke="#ccc" stroke-width="1.64"/><text x="148.8" y="-264.9" text-anchor="middle" font-size="5.6" font-family="Tahoma,Geneva,sans-serif" font-weight="bold" fill="rgb(100,100,100)">A</text><circle cx="144.1" cy="-252.9" r="4.47" fill="lightgreen" stroke="#ccc" stroke-width="1.64"/><text x="144.1" y="-250.6" text-anchor="middle" font-size="5.6" font-family="Tahoma,Geneva,sans-serif" font-weight="bold" fill="rgb(100,100,100)">A</text><circle cx="139.5" cy="-238.6" r="4.47" fill="lightgreen" stroke="#ccc" stroke-width="1.64"/><text x="139.5" y="-236.4" text-anchor="middle" font-size="5.6" font-family="Tahoma,Geneva,sans-serif" font-weight="bold" fill="rgb(100,100,100)">C</text><circle cx="128.9" cy="-228.1" r="4.47" fill="#dbdb8d" stroke="#ccc" stroke-width="1.64"/><text x="128.9" y="-225.9" text-anchor="middle" font-size="5.6" font-family="Tahoma,Geneva,sans-serif" font-weight="bold" fill="rgb(100,100,100)">C</text><circle cx="131.3" cy="-213.4" r="4.47" fill="lightgreen" stroke="#ccc" stroke-width="1.64"/><text x="131.3" y="-211.1" text-anchor="middle" font-size="5.6" font-family="Tahoma,Geneva,sans-serif" font-weight="bold" fill="rgb(100,100,100)">C</text><circle cx="126.7" cy="-199.1" r="4.47" fill="lightgreen" stroke="#ccc" stroke-width="1.64"/><text x="126.7" y="-196.9" text-anchor="middle" font-size="5.6" font-family="Tahoma,Geneva,sans-serif" font-weight="bold" fill="rgb(100,100,100)">C</text><circle cx="122.0" cy="-184.8" r="4.47" fill="lightgreen" stroke="#ccc" stroke-width="1.64"/><text x="122.0" y="-182.6" text-anchor="middle" font-size="5.6" font-family="Tahoma,Geneva,sans-serif" font-weight="bold" fill="rgb(100,100,100)">A</text><circle cx="117.4" cy="-170.6" r="4.47" fill="lightgreen" stroke="#ccc" stroke-width="1.64"/><text x="117.4" y="-168.3" text-anchor="middle" font-size="5.6" font-family="Tahoma,Geneva,sans-serif" font-weight="bold" fill="rgb(100,100,100)">U</text><circle cx="112.8" cy="-156.3" r="4.47" fill="lightgreen" stroke="#ccc" stroke-width="1.64"/><text x="112.8" y="-154.1" text-anchor="middle" font-size="5.6" font-family="Tahoma,Geneva,sans-serif" font-weight="bold" fill="rgb(100,100,100)">C</text><circle cx="107.8" cy="-142.1" r="4.47" fill="lightgreen" stroke="#ccc" stroke-width="1.64"/><text x="107.8" y="-139.9" text-anchor="middle" font-size="5.6" font-family="Tahoma,Geneva,sans-serif" font-weight="bold" fill="rgb(100,100,100)">C</text><circle cx="102.5" cy="-128.1" r="4.47" fill="lightgreen" stroke="#ccc" stroke-width="1.64"/><text x="102.5" y="-125.9" text-anchor="middle" font-size="5.6" font-family="Tahoma,Geneva,sans-serif" font-weight="bold" fill="rgb(100,100,100)">C</text><circle cx="97.3" cy="-114.1" r="4.47" fill="lightgreen" stroke="#ccc" stroke-width="1.64"/><text x="97.3" y="-111.8" text-anchor="middle" font-size="5.6" font-family="Tahoma,Geneva,sans-serif" font-weight="bold" fill="rgb(100,100,100)">C</text><circle cx="85.0" cy="-105.6" r="4.47" fill="#dbdb8d" stroke="#ccc" stroke-width="1.64"/><text x="85.0" y="-103.4" text-anchor="middle" font-size="5.6" font-family="Tahoma,Geneva,sans-serif" font-weight="bold" fill="rgb(100,100,100)">G</text><circle cx="88.7" cy="-91.2" r="4.47" fill="lightgreen" stroke="#ccc" stroke-width="1.64"/><text x="88.7" y="-89.0" text-anchor="middle" font-size="5.6" font-family="Tahoma,Geneva,sans-serif" font-weight="bold" fill="rgb(100,100,100)">U</text><circle cx="83.4" cy="-77.2" r="4.47" fill="lightgreen" stroke="#ccc" stroke-width="1.64"/><text x="83.4" y="-74.9" text-anchor="middle" font-size="5.6" font-family="Tahoma,Geneva,sans-serif" font-weight="bold" fill="rgb(100,100,100)">A</text><circle cx="78.1" cy="-63.1" r="4.47" fill="lightgreen" stroke="#ccc" stroke-width="1.64"/><text x="78.1" y="-60.9" text-anchor="middle" font-size="5.6" font-family="Tahoma,Geneva,sans-serif" font-weight="bold" fill="rgb(100,100,100)">U</text><circle cx="72.9" cy="-49.1" r="4.47" fill="lightgreen" stroke="#ccc" stroke-width="1.64"/><text x="72.9" y="-46.8" text-anchor="middle" font-size="5.6" font-family="Tahoma,Geneva,sans-serif" font-weight="bold" fill="rgb(100,100,100)">U</text><circle cx="67.6" cy="-35.0" r="4.47" fill="lightgreen" stroke="#ccc" stroke-width="1.64"/><text x="67.6" y="-32.8" text-anchor="middle" font-size="5.6" font-family="Tahoma,Geneva,sans-serif" font-weight="bold" fill="rgb(100,100,100)">G</text><circle cx="53.2" cy="-31.1" r="4.47" fill="#dbdb8d" stroke="#ccc" stroke-width="1.64"/><text x="53.2" y="-28.9" text-anchor="middle" font-size="5.6" font-family="Tahoma,Geneva,sans-serif" font-weight="bold" fill="rgb(100,100,100)">U</text><circle cx="47.9" cy="-17.2" r="4.47" fill="#dbdb8d" stroke="#ccc" stroke-width="1.64"/><text x="47.9" y="-15.0" text-anchor="middle" font-size="5.6" font-family="Tahoma,Geneva,sans-serif" font-weight="bold" fill="rgb(100,100,100)">U</text><circle cx="57.3" cy="-5.7" r="4.47" fill="lightgreen" stroke="#ccc" stroke-width="1.64"/><text x="57.3" y="-3.4" text-anchor="middle" font-size="5.6" font-family="Tahoma,Geneva,sans-serif" font-weight="bold" fill="rgb(100,100,100)">C</text><circle cx="52.7" cy="8.6" r="4.47" fill="lightgreen" stroke="#ccc" stroke-width="1.64"/><text x="52.7" y="10.8" text-anchor="middle" font-size="5.6" font-family="Tahoma,Geneva,sans-serif" font-weight="bold" fill="rgb(100,100,100)">U</text><circle cx="42.1" cy="19.1" r="4.47" fill="#dbdb8d" stroke="#ccc" stroke-width="1.64"/><text x="42.1" y="21.3" text-anchor="middle" font-size="5.6" font-family="Tahoma,Geneva,sans-serif" font-weight="bold" fill="rgb(100,100,100)">A</text><circle cx="44.5" cy="33.8" r="4.47" fill="lightgreen" stroke="#ccc" stroke-width="1.64"/><text x="44.5" y="36.1" text-anchor="middle" font-size="5.6" font-family="Tahoma,Geneva,sans-serif" font-weight="bold" fill="rgb(100,100,100)">C</text><circle cx="39.8" cy="48.1" r="4.47" fill="lightgreen" stroke="#ccc" stroke-width="1.64"/><text x="39.8" y="50.3" text-anchor="middle" font-size="5.6" font-family="Tahoma,Geneva,sans-serif" font-weight="bold" fill="rgb(100,100,100)">A</text><circle cx="35.2" cy="62.4" r="4.47" fill="lightgreen" stroke="#ccc" stroke-width="1.64"/><text x="35.2" y="64.6" text-anchor="middle" font-size="5.6" font-family="Tahoma,Geneva,sans-serif" font-weight="bold" fill="rgb(100,100,100)">U</text><circle cx="30.6" cy="76.6" r="4.47" fill="lightgreen" stroke="#ccc" stroke-width="1.64"/><text x="30.6" y="78.9" text-anchor="middle" font-size="5.6" font-family="Tahoma,Geneva,sans-serif" font-weight="bold" fill="rgb(100,100,100)">G</text><circle cx="25.9" cy="90.9" r="4.47" fill="lightgreen" stroke="#ccc" stroke-width="1.64"/><text x="25.9" y="93.1" text-anchor="middle" font-size="5.6" font-family="Tahoma,Geneva,sans-serif" font-weight="bold" fill="rgb(100,100,100)">A</text><circle cx="11.7" cy="97.8" r="4.47" fill="lightgreen" stroke="#ccc" stroke-width="1.64"/><text x="11.7" y="100.1" text-anchor="middle" font-size="5.6" font-family="Tahoma,Geneva,sans-serif" font-weight="bold" fill="rgb(100,100,100)">A</text><circle cx="6.7" cy="112.8" r="4.47" fill="lightgreen" stroke="#ccc" stroke-width="1.64"/><text x="6.7" y="115.1" text-anchor="middle" font-size="5.6" font-family="Tahoma,Geneva,sans-serif" font-weight="bold" fill="rgb(100,100,100)">G</text><circle cx="13.8" cy="126.9" r="4.47" fill="lightgreen" stroke="#ccc" stroke-width="1.64"/><text x="13.8" y="129.2" text-anchor="middle" font-size="5.6" font-family="Tahoma,Geneva,sans-serif" font-weight="bold" fill="rgb(100,100,100)">A</text><circle cx="28.8" cy="131.8" r="4.47" fill="lightgreen" stroke="#ccc" stroke-width="1.64"/><text x="28.8" y="134.1" text-anchor="middle" font-size="5.6" font-family="Tahoma,Geneva,sans-serif" font-weight="bold" fill="rgb(100,100,100)">U</text><circle cx="42.9" cy="124.6" r="4.47" fill="lightgreen" stroke="#ccc" stroke-width="1.64"/><text x="42.9" y="126.8" text-anchor="middle" font-size="5.6" font-family="Tahoma,Geneva,sans-serif" font-weight="bold" fill="rgb(100,100,100)">G</text><circle cx="47.6" cy="109.5" r="4.47" fill="lightgreen" stroke="#ccc" stroke-width="1.64"/><text x="47.6" y="111.7" text-anchor="middle" font-size="5.6" font-family="Tahoma,Geneva,sans-serif" font-weight="bold" fill="rgb(100,100,100)">U</text><circle cx="40.2" cy="95.5" r="4.47" fill="lightgreen" stroke="#ccc" stroke-width="1.64"/><text x="40.2" y="97.8" text-anchor="middle" font-size="5.6" font-family="Tahoma,Geneva,sans-serif" font-weight="bold" fill="rgb(100,100,100)">U</text><circle cx="44.8" cy="81.3" r="4.47" fill="lightgreen" stroke="#ccc" stroke-width="1.64"/><text x="44.8" y="83.5" text-anchor="middle" font-size="5.6" font-family="Tahoma,Geneva,sans-serif" font-weight="bold" fill="rgb(100,100,100)">C</text><circle cx="49.5" cy="67.0" r="4.47" fill="lightgreen" stroke="#ccc" stroke-width="1.64"/><text x="49.5" y="69.2" text-anchor="middle" font-size="5.6" font-family="Tahoma,Geneva,sans-serif" font-weight="bold" fill="rgb(100,100,100)">A</text><circle cx="54.1" cy="52.7" r="4.47" fill="lightgreen" stroke="#ccc" stroke-width="1.64"/><text x="54.1" y="55.0" text-anchor="middle" font-size="5.6" font-family="Tahoma,Geneva,sans-serif" font-weight="bold" fill="rgb(100,100,100)">U</text><circle cx="58.7" cy="38.5" r="4.47" fill="lightgreen" stroke="#ccc" stroke-width="1.64"/><text x="58.7" y="40.7" text-anchor="middle" font-size="5.6" font-family="Tahoma,Geneva,sans-serif" font-weight="bold" fill="rgb(100,100,100)">G</text><circle cx="69.3" cy="27.9" r="4.47" fill="#dbdb8d" stroke="#ccc" stroke-width="1.64"/><text x="69.3" y="30.2" text-anchor="middle" font-size="5.6" font-family="Tahoma,Geneva,sans-serif" font-weight="bold" fill="rgb(100,100,100)">C</text><circle cx="66.9" cy="13.2" r="4.47" fill="lightgreen" stroke="#ccc" stroke-width="1.64"/><text x="66.9" y="15.5" text-anchor="middle" font-size="5.6" font-family="Tahoma,Geneva,sans-serif" font-weight="bold" fill="rgb(100,100,100)">A</text><circle cx="71.6" cy="-1.0" r="4.47" fill="lightgreen" stroke="#ccc" stroke-width="1.64"/><text x="71.6" y="1.2" text-anchor="middle" font-size="5.6" font-family="Tahoma,Geneva,sans-serif" font-weight="bold" fill="rgb(100,100,100)">G</text><circle cx="78.3" cy="-14.8" r="4.47" fill="#dbdb8d" stroke="#ccc" stroke-width="1.64"/><text x="78.3" y="-12.6" text-anchor="middle" font-size="5.6" font-family="Tahoma,Geneva,sans-serif" font-weight="bold" fill="rgb(100,100,100)">C</text><circle cx="81.7" cy="-29.8" r="4.47" fill="lightgreen" stroke="#ccc" stroke-width="1.64"/><text x="81.7" y="-27.5" text-anchor="middle" font-size="5.6" font-family="Tahoma,Geneva,sans-serif" font-weight="bold" fill="rgb(100,100,100)">C</text><circle cx="86.9" cy="-43.8" r="4.47" fill="lightgreen" stroke="#ccc" stroke-width="1.64"/><text x="86.9" y="-41.6" text-anchor="middle" font-size="5.6" font-family="Tahoma,Geneva,sans-serif" font-weight="bold" fill="rgb(100,100,100)">A</text><circle cx="92.2" cy="-57.9" r="4.47" fill="lightgreen" stroke="#ccc" stroke-width="1.64"/><text x="92.2" y="-55.6" text-anchor="middle" font-size="5.6" font-family="Tahoma,Geneva,sans-serif" font-weight="bold" fill="rgb(100,100,100)">A</text><circle cx="97.5" cy="-71.9" r="4.47" fill="lightgreen" stroke="#ccc" stroke-width="1.64"/><text x="97.5" y="-69.7" text-anchor="middle" font-size="5.6" font-family="Tahoma,Geneva,sans-serif" font-weight="bold" fill="rgb(100,100,100)">U</text><circle cx="102.7" cy="-85.9" r="4.47" fill="lightgreen" stroke="#ccc" stroke-width="1.64"/><text x="102.7" y="-83.7" text-anchor="middle" font-size="5.6" font-family="Tahoma,Geneva,sans-serif" font-weight="bold" fill="rgb(100,100,100)">A</text><circle cx="115.0" cy="-94.4" r="4.47" fill="#dbdb8d" stroke="#ccc" stroke-width="1.64"/><text x="115.0" y="-92.1" text-anchor="middle" font-size="5.6" font-family="Tahoma,Geneva,sans-serif" font-weight="bold" fill="rgb(100,100,100)">G</text><circle cx="111.3" cy="-108.8" r="4.47" fill="lightgreen" stroke="#ccc" stroke-width="1.64"/><text x="111.3" y="-106.6" text-anchor="middle" font-size="5.6" font-family="Tahoma,Geneva,sans-serif" font-weight="bold" fill="rgb(100,100,100)">G</text><circle cx="116.6" cy="-122.8" r="4.47" fill="lightgreen" stroke="#ccc" stroke-width="1.64"/><text x="116.6" y="-120.6" text-anchor="middle" font-size="5.6" font-family="Tahoma,Geneva,sans-serif" font-weight="bold" fill="rgb(100,100,100)">G</text><circle cx="121.9" cy="-136.9" r="4.47" fill="lightgreen" stroke="#ccc" stroke-width="1.64"/><text x="121.9" y="-134.6" text-anchor="middle" font-size="5.6" font-family="Tahoma,Geneva,sans-serif" font-weight="bold" fill="rgb(100,100,100)">G</text><circle cx="136.4" cy="-140.1" r="4.47" fill="#dbdb8d" stroke="#ccc" stroke-width="1.64"/><text x="136.4" y="-137.8" text-anchor="middle" font-size="5.6" font-family="Tahoma,Geneva,sans-serif" font-weight="bold" fill="rgb(100,100,100)">U</text><circle cx="127.0" cy="-151.7" r="4.47" fill="lightgreen" stroke="#ccc" stroke-width="1.64"/><text x="127.0" y="-149.4" text-anchor="middle" font-size="5.6" font-family="Tahoma,Geneva,sans-serif" font-weight="bold" fill="rgb(100,100,100)">G</text><circle cx="131.7" cy="-165.9" r="4.47" fill="lightgreen" stroke="#ccc" stroke-width="1.64"/><text x="131.7" y="-163.7" text-anchor="middle" font-size="5.6" font-family="Tahoma,Geneva,sans-serif" font-weight="bold" fill="rgb(100,100,100)">A</text><circle cx="136.3" cy="-180.2" r="4.47" fill="lightgreen" stroke="#ccc" stroke-width="1.64"/><text x="136.3" y="-178.0" text-anchor="middle" font-size="5.6" font-family="Tahoma,Geneva,sans-serif" font-weight="bold" fill="rgb(100,100,100)">U</text><circle cx="140.9" cy="-194.5" r="4.47" fill="lightgreen" stroke="#ccc" stroke-width="1.64"/><text x="140.9" y="-192.2" text-anchor="middle" font-size="5.6" font-family="Tahoma,Geneva,sans-serif" font-weight="bold" fill="rgb(100,100,100)">G</text><circle cx="145.6" cy="-208.7" r="4.47" fill="lightgreen" stroke="#ccc" stroke-width="1.64"/><text x="145.6" y="-206.5" text-anchor="middle" font-size="5.6" font-family="Tahoma,Geneva,sans-serif" font-weight="bold" fill="rgb(100,100,100)">G</text><circle cx="156.1" cy="-219.2" r="4.47" fill="#dbdb8d" stroke="#ccc" stroke-width="1.64"/><text x="156.1" y="-217.0" text-anchor="middle" font-size="5.6" font-family="Tahoma,Geneva,sans-serif" font-weight="bold" fill="rgb(100,100,100)">A</text><circle cx="153.8" cy="-234.0" r="4.47" fill="lightgreen" stroke="#ccc" stroke-width="1.64"/><text x="153.8" y="-231.7" text-anchor="middle" font-size="5.6" font-family="Tahoma,Geneva,sans-serif" font-weight="bold" fill="rgb(100,100,100)">G</text><circle cx="158.4" cy="-248.2" r="4.47" fill="lightgreen" stroke="#ccc" stroke-width="1.64"/><text x="158.4" y="-246.0" text-anchor="middle" font-size="5.6" font-family="Tahoma,Geneva,sans-serif" font-weight="bold" fill="rgb(100,100,100)">U</text><circle cx="163.0" cy="-262.5" r="4.47" fill="lightgreen" stroke="#ccc" stroke-width="1.64"/><text x="163.0" y="-260.3" text-anchor="middle" font-size="5.6" font-family="Tahoma,Geneva,sans-serif" font-weight="bold" fill="rgb(100,100,100)">U</text><circle cx="176.7" cy="-268.8" r="4.47" fill="lightsalmon" stroke="#ccc" stroke-width="1.64"/><text x="176.7" y="-266.5" text-anchor="middle" font-size="5.6" font-family="Tahoma,Geneva,sans-serif" font-weight="bold" fill="rgb(100,100,100)">A</text><circle cx="187.0" cy="-279.7" r="4.47" fill="lightgreen" stroke="#ccc" stroke-width="1.64"/><text x="187.0" y="-277.4" text-anchor="middle" font-size="5.6" font-family="Tahoma,Geneva,sans-serif" font-weight="bold" fill="rgb(100,100,100)">A</text><circle cx="187.1" cy="-295.2" r="4.47" fill="lightgreen" stroke="#ccc" stroke-width="1.64"/><text x="187.1" y="-292.9" text-anchor="middle" font-size="5.6" font-family="Tahoma,Geneva,sans-serif" font-weight="bold" fill="rgb(100,100,100)">U</text><circle cx="178.0" cy="-307.7" r="4.47" fill="lightgreen" stroke="#ccc" stroke-width="1.64"/><text x="178.0" y="-305.5" text-anchor="middle" font-size="5.6" font-family="Tahoma,Geneva,sans-serif" font-weight="bold" fill="rgb(100,100,100)">G</text><circle cx="163.3" cy="-312.5" r="4.47" fill="lightgreen" stroke="#ccc" stroke-width="1.64"/><text x="163.3" y="-310.3" text-anchor="middle" font-size="5.6" font-family="Tahoma,Geneva,sans-serif" font-weight="bold" fill="rgb(100,100,100)">U</text><circle cx="148.5" cy="-307.7" r="4.47" fill="lightgreen" stroke="#ccc" stroke-width="1.64"/><text x="148.5" y="-305.5" text-anchor="middle" font-size="5.6" font-family="Tahoma,Geneva,sans-serif" font-weight="bold" fill="rgb(100,100,100)">C</text><circle cx="139.4" cy="-295.1" r="4.47" fill="lightgreen" stroke="#ccc" stroke-width="1.64"/><text x="139.4" y="-292.9" text-anchor="middle" font-size="5.6" font-family="Tahoma,Geneva,sans-serif" font-weight="bold" fill="rgb(100,100,100)">U</text></svg>