<svg xmlns="http://www.w3.org/2000/svg" viewBox="-63.5 -342.9 313.6 493.7" width="314" height="494"><style></style><line x1="-3.5" y1="-284.8" x2="-17.5" y2="-279.4" stroke="#999" stroke-width="1.58" stroke-opacity="0.8"/><line x1="1.9" y1="-270.8" x2="-12.0" y2="-265.4" stroke="#999" stroke-width="1.58" stroke-opacity="0.8"/><line x1="-30.6" y1="-289.2" x2="-18.5" y2="-243.7" stroke="#d9534f" stroke-width="1.58" stroke-opacity="0.6"/><line x1="-28.4" y1="-305.4" x2="-14.9" y2="-236.4" stroke="#d9534f" stroke-width="1.58" stroke-opacity="0.6"/><line x1="-13.1" y1="-311.4" x2="-8.8" y2="-231.0" stroke="#d9534f" stroke-width="1.58" stroke-opacity="0.6"/><line x1="-0.5" y1="-300.9" x2="-1.1" y2="-228.2" stroke="#d9534f" stroke-width="1.58" stroke-opacity="0.6"/><line x1="178.9" y1="78.4" x2="192.3" y2="71.8" stroke="#999" stroke-width="1.58" stroke-opacity="0.8"/><line x1="172.3" y1="64.9" x2="185.7" y2="58.3" stroke="#999" stroke-width="1.58" stroke-opacity="0.8"/><line x1="165.7" y1="51.4" x2="179.2" y2="44.8" stroke="#999" stroke-width="1.58" stroke-opacity="0.8"/><line x1="159.1" y1="38.0" x2="172.6" y2="31.4" stroke="#999" stroke-width="1.58" stroke-opacity="0.8"/><line x1="152.5" y1="24.5" x2="166.0" y2="17.9" stroke="#999" stroke-width="1.58" stroke-opacity="0.8"/><line x1="145.9" y1="11.0" x2="159.4" y2="4.4" stroke="#999" stroke-width="1.58" stroke-opacity="0.8"/><line x1="139.3" y1="-2.5" x2="152.8" y2="-9.1" stroke="#999" stroke-width="1.58" stroke-opacity="0.8"/><line x1="123.2" y1="-35.4" x2="136.7" y2="-42.0" stroke="#999" stroke-width="1.58" stroke-opacity="0.8"/><line x1="116.6" y1="-48.9" x2="130.1" y2="-55.5" stroke="#999" stroke-width="1.58" stroke-opacity="0.8"/><line x1="110.1" y1="-62.4" x2="123.5" y2="-68.9" stroke="#999" stroke-width="1.58" stroke-opacity="0.8"/><line x1="103.5" y1="-75.8" x2="116.9" y2="-82.4" stroke="#999" stroke-width="1.58" stroke-opacity="0.8"/><line x1="81.0" y1="-115.3" x2="93.6" y2="-123.6" stroke="#999" stroke-width="1.58" stroke-opacity="0.8"/><line x1="72.8" y1="-127.9" x2="85.4" y2="-136.1" stroke="#999" stroke-width="1.58" stroke-opacity="0.8"/><line x1="64.6" y1="-140.5" x2="77.2" y2="-148.7" stroke="#999" stroke-width="1.58" stroke-opacity="0.8"/><line x1="56.4" y1="-153.0" x2="69.0" y2="-161.2" stroke="#999" stroke-width="1.58" stroke-opacity="0.8"/><line x1="48.2" y1="-165.6" x2="60.8" y2="-173.8" stroke="#999" stroke-width="1.58" stroke-opacity="0.8"/><line x1="40.0" y1="-178.1" x2="52.5" y2="-186.3" stroke="#999" stroke-width="1.58" stroke-opacity="0.8"/><line x1="31.8" y1="-190.7" x2="44.3" y2="-198.9" stroke="#999" stroke-width="1.58" stroke-opacity="0.8"/><line x1="23.6" y1="-203.3" x2="36.1" y2="-211.5" stroke="#999" stroke-width="1.58" stroke-opacity="0.8"/><line x1="15.4" y1="-215.8" x2="27.9" y2="-224.0" stroke="#999" stroke-width="1.58" stroke-opacity="0.8"/><line x1="7.2" y1="-228.4" x2="19.7" y2="-236.6" stroke="#999" stroke-width="1.58" stroke-opacity="0.8"/><line x1="1.9" y1="-270.8" x2="-3.5" y2="-284.8" stroke="#999" stroke-width="1.58" stroke-opacity="0.8"/><line x1="-3.5" y1="-284.8" x2="-0.5" y2="-300.9" stroke="#999" stroke-width="1.58" stroke-opacity="0.8"/><line x1="-0.5" y1="-300.9" x2="-13.1" y2="-311.4" stroke="#999" stroke-width="1.58" stroke-opacity="0.8"/><line x1="-13.1" y1="-311.4" x2="-28.4" y2="-305.4" stroke="#999" stroke-width="1.58" stroke-opacity="0.8"/><line x1="-28.4" y1="-305.4" x2="-30.6" y2="-289.2" stroke="#999" stroke-width="1.58" stroke-opacity="0.8"/><line x1="-30.6" y1="-289.2" x2="-17.5" y2="-279.4" stroke="#999" stroke-width="1.58" stroke-opacity="0.8"/><line x1="-17.5" y1="-279.4" x2="-12.0" y2="-265.4" stroke="#999" stroke-width="1.58" stroke-opacity="0.8"/><line x1="-12.0" y1="-265.4" x2="-26.5" y2="-262.1" stroke="#999" stroke-width="1.58" stroke-opacity="0.8"/><line x1="-26.5" y1="-262.1" x2="-31.9" y2="-248.9" stroke="#999" stroke-width="1.58" stroke-opacity="0.8"/><line x1="-31.9" y1="-248.9" x2="-18.5" y2="-243.7" stroke="#999" stroke-width="1.58" stroke-opacity="0.8"/><line x1="-18.5" y1="-243.7" x2="-14.9" y2="-236.4" stroke="#999" stroke-width="1.58" stroke-opacity="0.8"/><line x1="-14.9" y1="-236.4" x2="-8.8" y2="-231.0" stroke="#999" stroke-width="1.58" stroke-opacity="0.8"/><line x1="-8.8" y1="-231.0" x2="-1.1" y2="-228.2" stroke="#999" stroke-width="1.58" stroke-opacity="0.8"/><line x1="-1.1" y1="-228.2" x2="7.2" y2="-228.4" stroke="#999" stroke-width="1.58" stroke-opacity="0.8"/><line x1="7.2" y1="-228.4" x2="15.4" y2="-215.8" stroke="#999" stroke-width="1.58" stroke-opacity="0.8"/><line x1="15.4" y1="-215.8" x2="23.6" y2="-203.3" stroke="#999" stroke-width="1.58" stroke-opacity="0.8"/><line x1="23.6" y1="-203.3" x2="31.8" y2="-190.7" stroke="#999" stroke-width="1.58" stroke-opacity="0.8"/><line x1="31.8" y1="-190.7" x2="40.0" y2="-178.1" stroke="#999" stroke-width="1.58" stroke-opacity="0.8"/><line x1="40.0" y1="-178.1" x2="48.2" y2="-165.6" stroke="#999" stroke-width="1.58" stroke-opacity="0.8"/><line x1="48.2" y1="-165.6" x2="56.4" y2="-153.0" stroke="#999" stroke-width="1.58" stroke-opacity="0.8"/><line x1="56.4" y1="-153.0" x2="64.6" y2="-140.5" stroke="#999" stroke-width="1.58" stroke-opacity="0.8"/><line x1="64.6" y1="-140.5" x2="72.8" y2="-127.9" stroke="#999" stroke-width="1.58" stroke-opacity="0.8"/><line x1="72.8" y1="-127.9" x2="81.0" y2="-115.3" stroke="#999" stroke-width="1.58" stroke-opacity="0.8"/><line x1="81.0" y1="-115.3" x2="86.2" y2="-100.9" stroke="#999" stroke-width="1.58" stroke-opacity="0.8"/><line x1="86.2" y1="-100.9" x2="93.7" y2="-87.6" stroke="#999" stroke-width="1.58" stroke-opacity="0.8"/><line x1="93.7" y1="-87.6" x2="103.5" y2="-75.8" stroke="#999" stroke-width="1.58" stroke-opacity="0.8"/><line x1="103.5" y1="-75.8" x2="110.1" y2="-62.4" stroke="#999" stroke-width="1.58" stroke-opacity="0.8"/><line x1="110.1" y1="-62.4" x2="116.6" y2="-48.9" stroke="#999" stroke-width="1.58" stroke-opacity="0.8"/><line x1="116.6" y1="-48.9" x2="123.2" y2="-35.4" stroke="#999" stroke-width="1.58" stroke-opacity="0.8"/><line x1="123.2" y1="-35.4" x2="120.2" y2="-21.4" stroke="#999" stroke-width="1.58" stroke-opacity="0.8"/><line x1="120.2" y1="-21.4" x2="126.3" y2="-8.4" stroke="#999" stroke-width="1.58" stroke-opacity="0.8"/><line x1="126.3" y1="-8.4" x2="139.3" y2="-2.5" stroke="#999" stroke-width="1.58" stroke-opacity="0.8"/><line x1="139.3" y1="-2.5" x2="145.9" y2="11.0" stroke="#999" stroke-width="1.58" stroke-opacity="0.8"/><line x1="145.9" y1="11.0" x2="152.5" y2="24.5" stroke="#999" stroke-width="1.58" stroke-opacity="0.8"/><line x1="152.5" y1="24.5" x2="159.1" y2="38.0" stroke="#999" stroke-width="1.58" stroke-opacity="0.8"/><line x1="159.1" y1="38.0" x2="165.7" y2="51.4" stroke="#999" stroke-width="1.58" stroke-opacity="0.8"/><line x1="165.7" y1="51.4" x2="172.3" y2="64.9" stroke="#999" stroke-width="1.58" stroke-opacity="0.8"/><line x1="172.3" y1="64.9" x2="178.9" y2="78.4" stroke="#999" stroke-width="1.58" stroke-opacity="0.8"/><line x1="178.9" y1="78.4" x2="173.8" y2="91.8" stroke="#999" stroke-width="1.58" stroke-opacity="0.8"/><line x1="173.8" y1="91.8" x2="175.5" y2="106.1" stroke="#999" stroke-width="1.58" stroke-opacity="0.8"/><line x1="175.5" y1="106.1" x2="185.1" y2="116.6" stroke="#999" stroke-width="1.58" stroke-opacity="0.8"/><line x1="185.1" y1="116.6" x2="199.2" y2="119.3" stroke="#999" stroke-width="1.58" stroke-opacity="0.8"/><line x1="199.2" y1="119.3" x2="212.1" y2="113.0" stroke="#999" stroke-width="1.58" stroke-opacity="0.8"/><line x1="212.1" y1="113.0" x2="218.7" y2="100.3" stroke="#999" stroke-width="1.58" stroke-opacity="0.8"/><line x1="218.7" y1="100.3" x2="216.3" y2="86.1" stroke="#999" stroke-width="1.58" stroke-opacity="0.8"/><line x1="216.3" y1="86.1" x2="206.0" y2="76.1" stroke="#999" stroke-width="1.58" stroke-opacity="0.8"/><line x1="206.0" y1="76.1" x2="192.3" y2="71.8" stroke="#999" stroke-width="1.58" stroke-opacity="0.8"/><line x1="192.3" y1="71.8" x2="185.7" y2="58.3" stroke="#999" stroke-width="1.58" stroke-opacity="0.8"/><line x1="185.7" y1="58.3" x2="179.2" y2="44.8" stroke="#999" stroke-width="1.58" stroke-opacity="0.8"/><line x1="179.2" y1="44.8" x2="172.6" y2="31.4" stroke="#999" stroke-width="1.58" stroke-opacity="0.8"/><line x1="172.6" y1="31.4" x2="166.0" y2="17.9" stroke="#999" stroke-width="1.58" stroke-opacity="0.8"/><line x1="166.0" y1="17.9" x2="159.4" y2="4.4" stroke="#999" stroke-width="1.58" stroke-opacity="0.8"/><line x1="159.4" y1="4.4" x2="152.8" y2="-9.1" stroke="#999" stroke-width="1.58" stroke-opacity="0.8"/><line x1="152.8" y1="-9.1" x2="156.1" y2="-23.0" stroke="#999" stroke-width="1.58" stroke-opacity="0.8"/><line x1="156.1" y1="-23.0" x2="149.6" y2="-35.8" stroke="#999" stroke-width="1.58" stroke-opacity="0.8"/><line x1="149.6" y1="-35.8" x2="136.7" y2="-42.0" stroke="#999" stroke-width="1.58" stroke-opacity="0.8"/><line x1="136.7" y1="-42.0" x2="130.1" y2="-55.5" stroke="#999" stroke-width="1.58" stroke-opacity="0.8"/><line x1="130.1" y1="-55.5" x2="123.5" y2="-68.9" stroke="#999" stroke-width="1.58" stroke-opacity="0.8"/><line x1="123.5" y1="-68.9" x2="116.9" y2="-82.4" stroke="#999" stroke-width="1.58" stroke-opacity="0.8"/><line x1="116.9" y1="-82.4" x2="130.3" y2="-88.2" stroke="#999" stroke-width="1.58" stroke-opacity="0.8"/><line x1="130.3" y1="-88.2" x2="127.6" y2="-102.1" stroke="#999" stroke-width="1.58" stroke-opacity="0.8"/><line x1="127.6" y1="-102.1" x2="128.6" y2="-116.2" stroke="#999" stroke-width="1.58" stroke-opacity="0.8"/><line x1="128.6" y1="-116.2" x2="115.9" y2="-122.6" stroke="#999" stroke-width="1.58" stroke-opacity="0.8"/><line x1="115.9" y1="-122.6" x2="105.4" y2="-132.1" stroke="#999" stroke-width="1.58" stroke-opacity="0.8"/><line x1="105.4" y1="-132.1" x2="93.6" y2="-123.6" stroke="#999" stroke-width="1.58" stroke-opacity="0.8"/><line x1="93.6" y1="-123.6" x2="85.4" y2="-136.1" stroke="#999" stroke-width="1.58" stroke-opacity="0.8"/><line x1="85.4" y1="-136.1" x2="77.2" y2="-148.7" stroke="#999" stroke-width="1.58" stroke-opacity="0.8"/><line x1="77.2" y1="-148.7" x2="69.0" y2="-161.2" stroke="#999" stroke-width="1.58" stroke-opacity="0.8"/><line x1="69.0" y1="-161.2" x2="60.8" y2="-173.8" stroke="#999" stroke-width="1.58" stroke-opacity="0.8"/><line x1="60.8" y1="-173.8" x2="52.5" y2="-186.3" stroke="#999" stroke-width="1.58" stroke-opacity="0.8"/><line x1="52.5" y1="-186.3" x2="44.3" y2="-198.9" stroke="#999" stroke-width="1.58" stroke-opacity="0.8"/><line x1="44.3" y1="-198.9" x2="36.1" y2="-211.5" stroke="#999" stroke-width="1.58" stroke-opacity="0.8"/><line x1="36.1" y1="-211.5" x2="27.9" y2="-224.0" stroke="#999" stroke-width="1.58" stroke-opacity="0.8"/><line x1="27.9" y1="-224.0" x2="19.7" y2="-236.6" stroke="#999" stroke-width="1.58" stroke-opacity="0.8"/><text x="17.9" y="-274.5" text-anchor="middle" font-size="7.5" font-family="Tahoma,Geneva,sans-serif" fill="#999">1</text><text x="-47.7" y="-239.4" text-anchor="middle" font-size="7.5" font-family="Tahoma,Geneva,sans-serif" fill="#999">10</text><text x="33.8" y="-153.6" text-anchor="middle" font-size="7.5" font-family="Tahoma,Geneva,sans-serif" fill="#999">20</text><text x="106.2" y="-30.6" text-anchor="middle" font-size="7.5" font-family="Tahoma,Geneva,sans-serif" fill="#999">30</text><text x="156.8" y="92.3" text-anchor="middle" font-size="7.5" font-family="Tahoma,Geneva,sans-serif" fill="#999">40</text><text x="194.6" y="39.9" text-anchor="middle" font-size="7.5" font-family="Tahoma,Geneva,sans-serif" fill="#999">50</text><text x="133.2" y="-74.1" text-anchor="middle" font-size="7.5" font-family="Tahoma,Geneva,sans-serif" fill="#999">60</text><text x="75.1" y="-180.6" text-anchor="middle" font-size="7.5" font-family="Tahoma,Geneva,sans-serif" fill="#999">70</text><circle cx="1.9" cy="-270.8" r="4.30" fill="lightgreen" stroke="#ccc" stroke-width="1.58"/><text x="1.9" y="-268.7" text-anchor="middle" font-size="5.4" font-family="Tahoma,Geneva,sans-serif" font-weight="bold" fill="rgb(100,100,100)">C</text><circle cx="-3.5" cy="-284.8" r="4.30" fill="lightgreen" stroke="#ccc" stroke-width="1.58"/><text x="-3.5" y="-282.7" text-anchor="middle" font-size="5.4" font-family="Tahoma,Geneva,sans-serif" font-weight="bold" fill="rgb(100,100,100)">A</text><circle cx="-0.5" cy="-300.9" r="4.30" fill="lightgreen" stroke="#ccc" stroke-width="1.58"/><text x="-0.5" y="-298.8" text-anchor="middle" font-size="5.4" font-family="Tahoma,Geneva,sans-serif" font-weight="bold" fill="rgb(100,100,100)">G</text><circle cx="-13.1" cy="-311.4" r="4.30" fill="lightgreen" stroke="#ccc" stroke-width="1.58"/><text x="-13.1" y="-309.3" text-anchor="middle" font-size="5.4" font-family="Tahoma,Geneva,sans-serif" font-weight="bold" fill="rgb(100,100,100)">C</text><circle cx="-28.4" cy="-305.4" r="4.30" fill="lightgreen" stroke="#ccc" stroke-width="1.58"/><text x="-28.4" y="-303.3" text-anchor="middle" font-size="5.4" font-family="Tahoma,Geneva,sans-serif" font-weight="bold" fill="rgb(100,100,100)">A</text><circle cx="-30.6" cy="-289.2" r="4.30" fill="lightgreen" stroke="#ccc" stroke-width="1.58"/><text x="-30.6" y="-287.0" text-anchor="middle" font-size="5.4" font-family="Tahoma,Geneva,sans-serif" font-weight="bold" fill="rgb(100,100,100)">U</text><circle cx="-17.5" cy="-279.4" r="4.30" fill="lightgreen" stroke="#ccc" stroke-width="1.58"/><text x="-17.5" y="-277.2" text-anchor="middle" font-size="5.4" font-family="Tahoma,Geneva,sans-serif" font-weight="bold" fill="rgb(100,100,100)">U</text><circle cx="-12.0" cy="-265.4" r="4.30" fill="lightgreen" stroke="#ccc" stroke-width="1.58"/><text x="-12.0" y="-263.2" text-anchor="middle" font-size="5.4" font-family="Tahoma,Geneva,sans-serif" font-weight="bold" fill="rgb(100,100,100)">G</text><circle cx="-26.5" cy="-262.1" r="4.30" fill="lightsalmon" stroke="#ccc" stroke-width="1.58"/><text x="-26.5" y="-259.9" text-anchor="middle" font-size="5.4" font-family="Tahoma,Geneva,sans-serif" font-weight="bold" fill="rgb(100,100,100)">U</text><circle cx="-31.9" cy="-248.9" r="4.30" fill="lightsalmon" stroke="#ccc" stroke-width="1.58"/><text x="-31.9" y="-246.7" text-anchor="middle" font-size="5.4" font-family="Tahoma,Geneva,sans-serif" font-weight="bold" fill="rgb(100,100,100)">U</text><circle cx="-18.5" cy="-243.7" r="4.30" fill="lightgreen" stroke="#ccc" stroke-width="1.58"/><text x="-18.5" y="-241.5" text-anchor="middle" font-size="5.4" font-family="Tahoma,Geneva,sans-serif" font-weight="bold" fill="rgb(100,100,100)">A</text><circle cx="-14.9" cy="-236.4" r="4.30" fill="lightgreen" stroke="#ccc" stroke-width="1.58"/><text x="-14.9" y="-234.3" text-anchor="middle" font-size="5.4" font-family="Tahoma,Geneva,sans-serif" font-weight="bold" fill="rgb(100,100,100)">U</text><circle cx="-8.8" cy="-231.0" r="4.30" fill="lightgreen" stroke="#ccc" stroke-width="1.58"/><text x="-8.8" y="-228.9" text-anchor="middle" font-size="5.4" font-family="Tahoma,Geneva,sans-serif" font-weight="bold" fill="rgb(100,100,100)">G</text><circle cx="-1.1" cy="-228.2" r="4.30" fill="lightgreen" stroke="#ccc" stroke-width="1.58"/><text x="-1.1" y="-226.0" text-anchor="middle" font-size="5.4" font-family="Tahoma,Geneva,sans-serif" font-weight="bold" fill="rgb(100,100,100)">U</text><circle cx="7.2" cy="-228.4" r="4.30" fill="lightgreen" stroke="#ccc" stroke-width="1.58"/><text x="7.2" y="-226.2" text-anchor="middle" font-size="5.4" font-family="Tahoma,Geneva,sans-serif" font-weight="bold" fill="rgb(100,100,100)">C</text><circle cx="15.4" cy="-215.8" r="4.30" fill="lightgreen" stroke="#ccc" stroke-width="1.58"/><text x="15.4" y="-213.7" text-anchor="middle" font-size="5.4" font-family="Tahoma,Geneva,sans-serif" font-weight="bold" fill="rgb(100,100,100)">A</text><circle cx="23.6" cy="-203.3" r="4.30" fill="lightgreen" stroke="#ccc" stroke-width="1.58"/><text x="23.6" y="-201.1" text-anchor="middle" font-size="5.4" font-family="Tahoma,Geneva,sans-serif" font-weight="bold" fill="rgb(100,100,100)">A</text><circle cx="31.8" cy="-190.7" r="4.30" fill="lightgreen" stroke="#ccc" stroke-width="1.58"/><text x="31.8" y="-188.5" text-anchor="middle" font-size="5.4" font-family="Tahoma,Geneva,sans-serif" font-weight="bold" fill="rgb(100,100,100)">G</text><circle cx="40.0" cy="-178.1" r="4.30" fill="lightgreen" stroke="#ccc" stroke-width="1.58"/><text x="40.0" y="-176.0" text-anchor="middle" font-size="5.4" font-family="Tahoma,Geneva,sans-serif" font-weight="bold" fill="rgb(100,100,100)">C</text><circle cx="48.2" cy="-165.6" r="4.30" fill="lightgreen" stroke="#ccc" stroke-width="1.58"/><text x="48.2" y="-163.4" text-anchor="middle" font-size="5.4" font-family="Tahoma,Geneva,sans-serif" font-weight="bold" fill="rgb(100,100,100)">C</text><circle cx="56.4" cy="-153.0" r="4.30" fill="lightgreen" stroke="#ccc" stroke-width="1.58"/><text x="56.4" y="-150.9" text-anchor="middle" font-size="5.4" font-family="Tahoma,Geneva,sans-serif" font-weight="bold" fill="rgb(100,100,100)">C</text><circle cx="64.6" cy="-140.5" r="4.30" fill="lightgreen" stroke="#ccc" stroke-width="1.58"/><text x="64.6" y="-138.3" text-anchor="middle" font-size="5.4" font-family="Tahoma,Geneva,sans-serif" font-weight="bold" fill="rgb(100,100,100)">U</text><circle cx="72.8" cy="-127.9" r="4.30" fill="lightgreen" stroke="#ccc" stroke-width="1.58"/><text x="72.8" y="-125.8" text-anchor="middle" font-size="5.4" font-family="Tahoma,Geneva,sans-serif" font-weight="bold" fill="rgb(100,100,100)">U</text><circle cx="81.0" cy="-115.3" r="4.30" fill="lightgreen" stroke="#ccc" stroke-width="1.58"/><text x="81.0" y="-113.2" text-anchor="middle" font-size="5.4" font-family="Tahoma,Geneva,sans-serif" font-weight="bold" fill="rgb(100,100,100)">C</text><circle cx="86.2" cy="-100.9" r="4.30" fill="#dbdb8d" stroke="#ccc" stroke-width="1.58"/><text x="86.2" y="-98.8" text-anchor="middle" font-size="5.4" font-family="Tahoma,Geneva,sans-serif" font-weight="bold" fill="rgb(100,100,100)">A</text><circle cx="93.7" cy="-87.6" r="4.30" fill="#dbdb8d" stroke="#ccc" stroke-width="1.58"/><text x="93.7" y="-85.5" text-anchor="middle" font-size="5.4" font-family="Tahoma,Geneva,sans-serif" font-weight="bold" fill="rgb(100,100,100)">C</text><circle cx="103.5" cy="-75.8" r="4.30" fill="lightgreen" stroke="#ccc" stroke-width="1.58"/><text x="103.5" y="-73.7" text-anchor="middle" font-size="5.4" font-family="Tahoma,Geneva,sans-serif" font-weight="bold" fill="rgb(100,100,100)">C</text><circle cx="110.1" cy="-62.4" r="4.30" fill="lightgreen" stroke="#ccc" stroke-width="1.58"/><text x="110.1" y="-60.2" text-anchor="middle" font-size="5.4" font-family="Tahoma,Geneva,sans-serif" font-weight="bold" fill="rgb(100,100,100)">U</text><circle cx="116.6" cy="-48.9" r="4.30" fill="lightgreen" stroke="#ccc" stroke-width="1.58"/><text x="116.6" y="-46.7" text-anchor="middle" font-size="5.4" font-family="Tahoma,Geneva,sans-serif" font-weight="bold" fill="rgb(100,100,100)">A</text><circle cx="123.2" cy="-35.4" r="4.30" fill="lightgreen" stroke="#ccc" stroke-width="1.58"/><text x="123.2" y="-33.3" text-anchor="middle" font-size="5.4" font-family="Tahoma,Geneva,sans-serif" font-weight="bold" fill="rgb(100,100,100)">C</text><circle cx="120.2" cy="-21.4" r="4.30" fill="#dbdb8d" stroke="#ccc" stroke-width="1.58"/><text x="120.2" y="-19.2" text-anchor="middle" font-size="5.4" font-family="Tahoma,Geneva,sans-serif" font-weight="bold" fill="rgb(100,100,100)">G</text><circle cx="126.3" cy="-8.4" r="4.30" fill="#dbdb8d" stroke="#ccc" stroke-width="1.58"/><text x="126.3" y="-6.3" text-anchor="middle" font-size="5.4" font-family="Tahoma,Geneva,sans-serif" font-weight="bold" fill="rgb(100,100,100)">A</text><circle cx="139.3" cy="-2.5" r="4.30" fill="lightgreen" stroke="#ccc" stroke-width="1.58"/><text x="139.3" y="-0.3" text-anchor="middle" font-size="5.4" font-family="Tahoma,Geneva,sans-serif" font-weight="bold" fill="rgb(100,100,100)">G</text><circle cx="145.9" cy="11.0" r="4.30" fill="lightgreen" stroke="#ccc" stroke-width="1.58"/><text x="145.9" y="13.2" text-anchor="middle" font-size="5.4" font-family="Tahoma,Geneva,sans-serif" font-weight="bold" fill="rgb(100,100,100)">A</text><circle cx="152.5" cy="24.5" r="4.30" fill="lightgreen" stroke="#ccc" stroke-width="1.58"/><text x="152.5" y="26.6" text-anchor="middle" font-size="5.4" font-family="Tahoma,Geneva,sans-serif" font-weight="bold" fill="rgb(100,100,100)">C</text><circle cx="159.1" cy="38.0" r="4.30" fill="lightgreen" stroke="#ccc" stroke-width="1.58"/><text x="159.1" y="40.1" text-anchor="middle" font-size="5.4" font-family="Tahoma,Geneva,sans-serif" font-weight="bold" fill="rgb(100,100,100)">C</text><circle cx="165.7" cy="51.4" r="4.30" fill="lightgreen" stroke="#ccc" stroke-width="1.58"/><text x="165.7" y="53.6" text-anchor="middle" font-size="5.4" font-family="Tahoma,Geneva,sans-serif" font-weight="bold" fill="rgb(100,100,100)">A</text><circle cx="172.3" cy="64.9" r="4.30" fill="lightgreen" stroke="#ccc" stroke-width="1.58"/><text x="172.3" y="67.1" text-anchor="middle" font-size="5.4" font-family="Tahoma,Geneva,sans-serif" font-weight="bold" fill="rgb(100,100,100)">U</text><circle cx="178.9" cy="78.4" r="4.30" fill="lightgreen" stroke="#ccc" stroke-width="1.58"/><text x="178.9" y="80.5" text-anchor="middle" font-size="5.4" font-family="Tahoma,Geneva,sans-serif" font-weight="bold" fill="rgb(100,100,100)">A</text><circle cx="173.8" cy="91.8" r="4.30" fill="lightblue" stroke="#ccc" stroke-width="1.58"/><text x="173.8" y="94.0" text-anchor="middle" font-size="5.4" font-family="Tahoma,Geneva,sans-serif" font-weight="bold" fill="rgb(100,100,100)">G</text><circle cx="175.5" cy="106.1" r="4.30" fill="lightblue" stroke="#ccc" stroke-width="1.58"/><text x="175.5" y="108.2" text-anchor="middle" font-size="5.4" font-family="Tahoma,Geneva,sans-serif" font-weight="bold" fill="rgb(100,100,100)">A</text><circle cx="185.1" cy="116.6" r="4.30" fill="lightblue" stroke="#ccc" stroke-width="1.58"/><text x="185.1" y="118.8" text-anchor="middle" font-size="5.4" font-family="Tahoma,Geneva,sans-serif" font-weight="bold" fill="rgb(100,100,100)">U</text><circle cx="199.2" cy="119.3" r="4.30" fill="lightblue" stroke="#ccc" stroke-width="1.58"/><text x="199.2" y="121.4" text-anchor="middle" font-size="5.4" font-family="Tahoma,Geneva,sans-serif" font-weight="bold" fill="rgb(100,100,100)">U</text><circle cx="212.1" cy="113.0" r="4.30" fill="lightblue" stroke="#ccc" stroke-width="1.58"/><text x="212.1" y="115.1" text-anchor="middle" font-size="5.4" font-family="Tahoma,Geneva,sans-serif" font-weight="bold" fill="rgb(100,100,100)">G</text><circle cx="218.7" cy="100.3" r="4.30" fill="lightblue" stroke="#ccc" stroke-width="1.58"/><text x="218.7" y="102.4" text-anchor="middle" font-size="5.4" font-family="Tahoma,Geneva,sans-serif" font-weight="bold" fill="rgb(100,100,100)">G</text><circle cx="216.3" cy="86.1" r="4.30" fill="lightblue" stroke="#ccc" stroke-width="1.58"/><text x="216.3" y="88.3" text-anchor="middle" font-size="5.4" font-family="Tahoma,Geneva,sans-serif" font-weight="bold" fill="rgb(100,100,100)">A</text><circle cx="206.0" cy="76.1" r="4.30" fill="lightblue" stroke="#ccc" stroke-width="1.58"/><text x="206.0" y="78.2" text-anchor="middle" font-size="5.4" font-family="Tahoma,Geneva,sans-serif" font-weight="bold" fill="rgb(100,100,100)">A</text><circle cx="192.3" cy="71.8" r="4.30" fill="lightgreen" stroke="#ccc" stroke-width="1.58"/><text x="192.3" y="73.9" text-anchor="middle" font-size="5.4" font-family="Tahoma,Geneva,sans-serif" font-weight="bold" fill="rgb(100,100,100)">U</text><circle cx="185.7" cy="58.3" r="4.30" fill="lightgreen" stroke="#ccc" stroke-width="1.58"/><text x="185.7" y="60.5" text-anchor="middle" font-size="5.4" font-family="Tahoma,Geneva,sans-serif" font-weight="bold" fill="rgb(100,100,100)">A</text><circle cx="179.2" cy="44.8" r="4.30" fill="lightgreen" stroke="#ccc" stroke-width="1.58"/><text x="179.2" y="47.0" text-anchor="middle" font-size="5.4" font-family="Tahoma,Geneva,sans-serif" font-weight="bold" fill="rgb(100,100,100)">U</text><circle cx="172.6" cy="31.4" r="4.30" fill="lightgreen" stroke="#ccc" stroke-width="1.58"/><text x="172.6" y="33.5" text-anchor="middle" font-size="5.4" font-family="Tahoma,Geneva,sans-serif" font-weight="bold" fill="rgb(100,100,100)">G</text><circle cx="166.0" cy="17.9" r="4.30" fill="lightgreen" stroke="#ccc" stroke-width="1.58"/><text x="166.0" y="20.0" text-anchor="middle" font-size="5.4" font-family="Tahoma,Geneva,sans-serif" font-weight="bold" fill="rgb(100,100,100)">G</text><circle cx="159.4" cy="4.4" r="4.30" fill="lightgreen" stroke="#ccc" stroke-width="1.58"/><text x="159.4" y="6.6" text-anchor="middle" font-size="5.4" font-family="Tahoma,Geneva,sans-serif" font-weight="bold" fill="rgb(100,100,100)">U</text><circle cx="152.8" cy="-9.1" r="4.30" fill="lightgreen" stroke="#ccc" stroke-width="1.58"/><text x="152.8" y="-6.9" text-anchor="middle" font-size="5.4" font-family="Tahoma,Geneva,sans-serif" font-weight="bold" fill="rgb(100,100,100)">C</text><circle cx="156.1" cy="-23.0" r="4.30" fill="#dbdb8d" stroke="#ccc" stroke-width="1.58"/><text x="156.1" y="-20.9" text-anchor="middle" font-size="5.4" font-family="Tahoma,Geneva,sans-serif" font-weight="bold" fill="rgb(100,100,100)">G</text><circle cx="149.6" cy="-35.8" r="4.30" fill="#dbdb8d" stroke="#ccc" stroke-width="1.58"/><text x="149.6" y="-33.6" text-anchor="middle" font-size="5.4" font-family="Tahoma,Geneva,sans-serif" font-weight="bold" fill="rgb(100,100,100)">A</text><circle cx="136.7" cy="-42.0" r="4.30" fill="lightgreen" stroke="#ccc" stroke-width="1.58"/><text x="136.7" y="-39.8" text-anchor="middle" font-size="5.4" font-family="Tahoma,Geneva,sans-serif" font-weight="bold" fill="rgb(100,100,100)">G</text><circle cx="130.1" cy="-55.5" r="4.30" fill="lightgreen" stroke="#ccc" stroke-width="1.58"/><text x="130.1" y="-53.3" text-anchor="middle" font-size="5.4" font-family="Tahoma,Geneva,sans-serif" font-weight="bold" fill="rgb(100,100,100)">U</text><circle cx="123.5" cy="-68.9" r="4.30" fill="lightgreen" stroke="#ccc" stroke-width="1.58"/><text x="123.5" y="-66.8" text-anchor="middle" font-size="5.4" font-family="Tahoma,Geneva,sans-serif" font-weight="bold" fill="rgb(100,100,100)">G</text><circle cx="116.9" cy="-82.4" r="4.30" fill="lightgreen" stroke="#ccc" stroke-width="1.58"/><text x="116.9" y="-80.3" text-anchor="middle" font-size="5.4" font-family="Tahoma,Geneva,sans-serif" font-weight="bold" fill="rgb(100,100,100)">G</text><circle cx="130.3" cy="-88.2" r="4.30" fill="#dbdb8d" stroke="#ccc" stroke-width="1.58"/><text x="130.3" y="-86.0" text-anchor="middle" font-size="5.4" font-family="Tahoma,Geneva,sans-serif" font-weight="bold" fill="rgb(100,100,100)">A</text><circle cx="127.6" cy="-102.1" r="4.30" fill="#dbdb8d" stroke="#ccc" stroke-width="1.58"/><text x="127.6" y="-99.9" text-anchor="middle" font-size="5.4" font-family="Tahoma,Geneva,sans-serif" font-weight="bold" fill="rgb(100,100,100)">A</text><circle cx="128.6" cy="-116.2" r="4.30" fill="#dbdb8d" stroke="#ccc" stroke-width="1.58"/><text x="128.6" y="-114.1" text-anchor="middle" font-size="5.4" font-family="Tahoma,Geneva,sans-serif" font-weight="bold" fill="rgb(100,100,100)">U</text><circle cx="115.9" cy="-122.6" r="4.30" fill="#dbdb8d" stroke="#ccc" stroke-width="1.58"/><text x="115.9" y="-120.5" text-anchor="middle" font-size="5.4" font-family="Tahoma,Geneva,sans-serif" font-weight="bold" fill="rgb(100,100,100)">C</text><circle cx="105.4" cy="-132.1" r="4.30" fill="#dbdb8d" stroke="#ccc" stroke-width="1.58"/><text x="105.4" y="-129.9" text-anchor="middle" font-size="5.4" font-family="Tahoma,Geneva,sans-serif" font-weight="bold" fill="rgb(100,100,100)">A</text><circle cx="93.6" cy="-123.6" r="4.30" fill="lightgreen" stroke="#ccc" stroke-width="1.58"/><text x="93.6" y="-121.4" text-anchor="middle" font-size="5.4" font-family="Tahoma,Geneva,sans-serif" font-weight="bold" fill="rgb(100,100,100)">G</text><circle cx="85.4" cy="-136.1" r="4.30" fill="lightgreen" stroke="#ccc" stroke-width="1.58"/><text x="85.4" y="-134.0" text-anchor="middle" font-size="5.4" font-family="Tahoma,Geneva,sans-serif" font-weight="bold" fill="rgb(100,100,100)">A</text><circle cx="77.2" cy="-148.7" r="4.30" fill="lightgreen" stroke="#ccc" stroke-width="1.58"/><text x="77.2" y="-146.5" text-anchor="middle" font-size="5.4" font-family="Tahoma,Geneva,sans-serif" font-weight="bold" fill="rgb(100,100,100)">A</text><circle cx="69.0" cy="-161.2" r="4.30" fill="lightgreen" stroke="#ccc" stroke-width="1.58"/><text x="69.0" y="-159.1" text-anchor="middle" font-size="5.4" font-family="Tahoma,Geneva,sans-serif" font-weight="bold" fill="rgb(100,100,100)">G</text><circle cx="60.8" cy="-173.8" r="4.30" fill="lightgreen" stroke="#ccc" stroke-width="1.58"/><text x="60.8" y="-171.6" text-anchor="middle" font-size="5.4" font-family="Tahoma,Geneva,sans-serif" font-weight="bold" fill="rgb(100,100,100)">G</text><circle cx="52.5" cy="-186.3" r="4.30" fill="lightgreen" stroke="#ccc" stroke-width="1.58"/><text x="52.5" y="-184.2" text-anchor="middle" font-size="5.4" font-family="Tahoma,Geneva,sans-serif" font-weight="bold" fill="rgb(100,100,100)">G</text><circle cx="44.3" cy="-198.9" r="4.30" fill="lightgreen" stroke="#ccc" stroke-width="1.58"/><text x="44.3" y="-196.7" text-anchor="middle" font-size="5.4" font-family="Tahoma,Geneva,sans-serif" font-weight="bold" fill="rgb(100,100,100)">C</text><circle cx="36.1" cy="-211.5" r="4.30" fill="lightgreen" stroke="#ccc" stroke-width="1.58"/><text x="36.1" y="-209.3" text-anchor="middle" font-size="5.4" font-family="Tahoma,Geneva,sans-serif" font-weight="bold" fill="rgb(100,100,100)">U</text><circle cx="27.9" cy="-224.0" r="4.30" fill="lightgreen" stroke="#ccc" stroke-width="1.58"/><text x="27.9" y="-221.9" text-anchor="middle" font-size="5.4" font-family="Tahoma,Geneva,sans-serif" font-weight="bold" fill="rgb(100,100,100)">U</text><circle cx="19.7" cy="-236.6" r="4.30" fill="lightgreen" stroke="#ccc" stroke-width="1.58"/><text x="19.7" y="-234.4" text-anchor="middle" font-size="5.4" font-family="Tahoma,Geneva,sans-serif" font-weight="bold" fill="rgb(100,100,100)">G</text></svg>