<svg xmlns="http://www.w3.org/2000/svg" viewBox="-16.9 -252.6 260.8 526.7" width="261" height="527"><style></style><line x1="42.5" y1="-201.8" x2="29.9" y2="-193.6" stroke="#999" stroke-width="1.66" stroke-opacity="0.8"/><line x1="50.7" y1="-189.2" x2="38.1" y2="-181.0" stroke="#999" stroke-width="1.66" stroke-opacity="0.8"/><line x1="58.9" y1="-176.7" x2="46.3" y2="-168.5" stroke="#999" stroke-width="1.66" stroke-opacity="0.8"/><line x1="67.1" y1="-164.1" x2="54.5" y2="-155.9" stroke="#999" stroke-width="1.66" stroke-opacity="0.8"/><line x1="75.3" y1="-151.6" x2="62.7" y2="-143.4" stroke="#999" stroke-width="1.66" stroke-opacity="0.8"/><line x1="16.2" y1="-203.5" x2="43.2" y2="-93.7" stroke="#d9534f" stroke-width="1.66" stroke-opacity="0.6"/><line x1="21.9" y1="-219.5" x2="48.1" y2="-76.0" stroke="#d9534f" stroke-width="1.66" stroke-opacity="0.6"/><line x1="38.9" y1="-218.4" x2="58.5" y2="-60.7" stroke="#d9534f" stroke-width="1.66" stroke-opacity="0.6"/><line x1="186.0" y1="215.2" x2="200.4" y2="211.0" stroke="#999" stroke-width="1.66" stroke-opacity="0.8"/><line x1="181.7" y1="200.9" x2="196.1" y2="196.6" stroke="#999" stroke-width="1.66" stroke-opacity="0.8"/><line x1="177.5" y1="186.5" x2="191.8" y2="182.2" stroke="#999" stroke-width="1.66" stroke-opacity="0.8"/><line x1="173.2" y1="172.1" x2="187.6" y2="167.8" stroke="#999" stroke-width="1.66" stroke-opacity="0.8"/><line x1="168.9" y1="157.7" x2="183.3" y2="153.5" stroke="#999" stroke-width="1.66" stroke-opacity="0.8"/><line x1="164.6" y1="143.4" x2="179.0" y2="139.1" stroke="#999" stroke-width="1.66" stroke-opacity="0.8"/><line x1="160.3" y1="129.0" x2="174.7" y2="124.7" stroke="#999" stroke-width="1.66" stroke-opacity="0.8"/><line x1="156.1" y1="114.6" x2="170.4" y2="110.3" stroke="#999" stroke-width="1.66" stroke-opacity="0.8"/><line x1="151.8" y1="100.2" x2="166.2" y2="96.0" stroke="#999" stroke-width="1.66" stroke-opacity="0.8"/><line x1="147.5" y1="85.9" x2="161.9" y2="81.6" stroke="#999" stroke-width="1.66" stroke-opacity="0.8"/><line x1="143.2" y1="71.5" x2="157.6" y2="67.2" stroke="#999" stroke-width="1.66" stroke-opacity="0.8"/><line x1="138.9" y1="57.1" x2="153.3" y2="52.8" stroke="#999" stroke-width="1.66" stroke-opacity="0.8"/><line x1="134.7" y1="42.7" x2="149.0" y2="38.5" stroke="#999" stroke-width="1.66" stroke-opacity="0.8"/><line x1="130.4" y1="28.4" x2="144.8" y2="24.1" stroke="#999" stroke-width="1.66" stroke-opacity="0.8"/><line x1="126.1" y1="14.0" x2="140.5" y2="9.7" stroke="#999" stroke-width="1.66" stroke-opacity="0.8"/><line x1="121.8" y1="-0.4" x2="136.2" y2="-4.7" stroke="#999" stroke-width="1.66" stroke-opacity="0.8"/><line x1="117.5" y1="-14.8" x2="131.9" y2="-19.1" stroke="#999" stroke-width="1.66" stroke-opacity="0.8"/><line x1="113.3" y1="-29.2" x2="127.6" y2="-33.4" stroke="#999" stroke-width="1.66" stroke-opacity="0.8"/><line x1="109.0" y1="-43.5" x2="123.4" y2="-47.8" stroke="#999" stroke-width="1.66" stroke-opacity="0.8"/><line x1="75.3" y1="-151.6" x2="67.1" y2="-164.1" stroke="#999" stroke-width="1.66" stroke-opacity="0.8"/><line x1="67.1" y1="-164.1" x2="58.9" y2="-176.7" stroke="#999" stroke-width="1.66" stroke-opacity="0.8"/><line x1="58.9" y1="-176.7" x2="50.7" y2="-189.2" stroke="#999" stroke-width="1.66" stroke-opacity="0.8"/><line x1="50.7" y1="-189.2" x2="42.5" y2="-201.8" stroke="#999" stroke-width="1.66" stroke-opacity="0.8"/><line x1="42.5" y1="-201.8" x2="38.9" y2="-218.4" stroke="#999" stroke-width="1.66" stroke-opacity="0.8"/><line x1="38.9" y1="-218.4" x2="21.9" y2="-219.5" stroke="#999" stroke-width="1.66" stroke-opacity="0.8"/><line x1="21.9" y1="-219.5" x2="16.2" y2="-203.5" stroke="#999" stroke-width="1.66" stroke-opacity="0.8"/><line x1="16.2" y1="-203.5" x2="29.9" y2="-193.6" stroke="#999" stroke-width="1.66" stroke-opacity="0.8"/><line x1="29.9" y1="-193.6" x2="38.1" y2="-181.0" stroke="#999" stroke-width="1.66" stroke-opacity="0.8"/><line x1="38.1" y1="-181.0" x2="46.3" y2="-168.5" stroke="#999" stroke-width="1.66" stroke-opacity="0.8"/><line x1="46.3" y1="-168.5" x2="54.5" y2="-155.9" stroke="#999" stroke-width="1.66" stroke-opacity="0.8"/><line x1="54.5" y1="-155.9" x2="62.7" y2="-143.4" stroke="#999" stroke-width="1.66" stroke-opacity="0.8"/><line x1="62.7" y1="-143.4" x2="55.8" y2="-127.0" stroke="#999" stroke-width="1.66" stroke-opacity="0.8"/><line x1="55.8" y1="-127.0" x2="49.3" y2="-110.4" stroke="#999" stroke-width="1.66" stroke-opacity="0.8"/><line x1="49.3" y1="-110.4" x2="43.2" y2="-93.7" stroke="#999" stroke-width="1.66" stroke-opacity="0.8"/><line x1="43.2" y1="-93.7" x2="48.1" y2="-76.0" stroke="#999" stroke-width="1.66" stroke-opacity="0.8"/><line x1="48.1" y1="-76.0" x2="58.5" y2="-60.7" stroke="#999" stroke-width="1.66" stroke-opacity="0.8"/><line x1="58.5" y1="-60.7" x2="75.2" y2="-54.6" stroke="#999" stroke-width="1.66" stroke-opacity="0.8"/><line x1="75.2" y1="-54.6" x2="92.0" y2="-48.8" stroke="#999" stroke-width="1.66" stroke-opacity="0.8"/><line x1="92.0" y1="-48.8" x2="109.0" y2="-43.5" stroke="#999" stroke-width="1.66" stroke-opacity="0.8"/><line x1="109.0" y1="-43.5" x2="113.3" y2="-29.2" stroke="#999" stroke-width="1.66" stroke-opacity="0.8"/><line x1="113.3" y1="-29.2" x2="117.5" y2="-14.8" stroke="#999" stroke-width="1.66" stroke-opacity="0.8"/><line x1="117.5" y1="-14.8" x2="121.8" y2="-0.4" stroke="#999" stroke-width="1.66" stroke-opacity="0.8"/><line x1="121.8" y1="-0.4" x2="126.1" y2="14.0" stroke="#999" stroke-width="1.66" stroke-opacity="0.8"/><line x1="126.1" y1="14.0" x2="130.4" y2="28.4" stroke="#999" stroke-width="1.66" stroke-opacity="0.8"/><line x1="130.4" y1="28.4" x2="134.7" y2="42.7" stroke="#999" stroke-width="1.66" stroke-opacity="0.8"/><line x1="134.7" y1="42.7" x2="138.9" y2="57.1" stroke="#999" stroke-width="1.66" stroke-opacity="0.8"/><line x1="138.9" y1="57.1" x2="143.2" y2="71.5" stroke="#999" stroke-width="1.66" stroke-opacity="0.8"/><line x1="143.2" y1="71.5" x2="147.5" y2="85.9" stroke="#999" stroke-width="1.66" stroke-opacity="0.8"/><line x1="147.5" y1="85.9" x2="151.8" y2="100.2" stroke="#999" stroke-width="1.66" stroke-opacity="0.8"/><line x1="151.8" y1="100.2" x2="156.1" y2="114.6" stroke="#999" stroke-width="1.66" stroke-opacity="0.8"/><line x1="156.1" y1="114.6" x2="160.3" y2="129.0" stroke="#999" stroke-width="1.66" stroke-opacity="0.8"/><line x1="160.3" y1="129.0" x2="164.6" y2="143.4" stroke="#999" stroke-width="1.66" stroke-opacity="0.8"/><line x1="164.6" y1="143.4" x2="168.9" y2="157.7" stroke="#999" stroke-width="1.66" stroke-opacity="0.8"/><line x1="168.9" y1="157.7" x2="173.2" y2="172.1" stroke="#999" stroke-width="1.66" stroke-opacity="0.8"/><line x1="173.2" y1="172.1" x2="177.5" y2="186.5" stroke="#999" stroke-width="1.66" stroke-opacity="0.8"/><line x1="177.5" y1="186.5" x2="181.7" y2="200.9" stroke="#999" stroke-width="1.66" stroke-opacity="0.8"/><line x1="181.7" y1="200.9" x2="186.0" y2="215.2" stroke="#999" stroke-width="1.66" stroke-opacity="0.8"/><line x1="186.0" y1="215.2" x2="183.3" y2="230.1" stroke="#999" stroke-width="1.66" stroke-opacity="0.8"/><line x1="183.3" y1="230.1" x2="193.7" y2="241.0" stroke="#999" stroke-width="1.66" stroke-opacity="0.8"/><line x1="193.7" y1="241.0" x2="208.1" y2="236.7" stroke="#999" stroke-width="1.66" stroke-opacity="0.8"/><line x1="208.1" y1="236.7" x2="210.8" y2="221.9" stroke="#999" stroke-width="1.66" stroke-opacity="0.8"/><line x1="210.8" y1="221.9" x2="200.4" y2="211.0" stroke="#999" stroke-width="1.66" stroke-opacity="0.8"/><line x1="200.4" y1="211.0" x2="196.1" y2="196.6" stroke="#999" stroke-width="1.66" stroke-opacity="0.8"/><line x1="196.1" y1="196.6" x2="191.8" y2="182.2" stroke="#999" stroke-width="1.66" stroke-opacity="0.8"/><line x1="191.8" y1="182.2" x2="187.6" y2="167.8" stroke="#999" stroke-width="1.66" stroke-opacity="0.8"/><line x1="187.6" y1="167.8" x2="183.3" y2="153.5" stroke="#999" stroke-width="1.66" stroke-opacity="0.8"/><line x1="183.3" y1="153.5" x2="179.0" y2="139.1" stroke="#999" stroke-width="1.66" stroke-opacity="0.8"/><line x1="179.0" y1="139.1" x2="174.7" y2="124.7" stroke="#999" stroke-width="1.66" stroke-opacity="0.8"/><line x1="174.7" y1="124.7" x2="170.4" y2="110.3" stroke="#999" stroke-width="1.66" stroke-opacity="0.8"/><line x1="170.4" y1="110.3" x2="166.2" y2="96.0" stroke="#999" stroke-width="1.66" stroke-opacity="0.8"/><line x1="166.2" y1="96.0" x2="161.9" y2="81.6" stroke="#999" stroke-width="1.66" stroke-opacity="0.8"/><line x1="161.9" y1="81.6" x2="157.6" y2="67.2" stroke="#999" stroke-width="1.66" stroke-opacity="0.8"/><line x1="157.6" y1="67.2" x2="153.3" y2="52.8" stroke="#999" stroke-width="1.66" stroke-opacity="0.8"/><line x1="153.3" y1="52.8" x2="149.0" y2="38.5" stroke="#999" stroke-width="1.66" stroke-opacity="0.8"/><line x1="149.0" y1="38.5" x2="144.8" y2="24.1" stroke="#999" stroke-width="1.66" stroke-opacity="0.8"/><line x1="144.8" y1="24.1" x2="140.5" y2="9.7" stroke="#999" stroke-width="1.66" stroke-opacity="0.8"/><line x1="140.5" y1="9.7" x2="136.2" y2="-4.7" stroke="#999" stroke-width="1.66" stroke-opacity="0.8"/><line x1="136.2" y1="-4.7" x2="131.9" y2="-19.1" stroke="#999" stroke-width="1.66" stroke-opacity="0.8"/><line x1="131.9" y1="-19.1" x2="127.6" y2="-33.4" stroke="#999" stroke-width="1.66" stroke-opacity="0.8"/><line x1="127.6" y1="-33.4" x2="123.4" y2="-47.8" stroke="#999" stroke-width="1.66" stroke-opacity="0.8"/><line x1="123.4" y1="-47.8" x2="136.3" y2="-54.6" stroke="#999" stroke-width="1.66" stroke-opacity="0.8"/><line x1="136.3" y1="-54.6" x2="151.1" y2="-56.6" stroke="#999" stroke-width="1.66" stroke-opacity="0.8"/><line x1="151.1" y1="-56.6" x2="149.4" y2="-71.6" stroke="#999" stroke-width="1.66" stroke-opacity="0.8"/><line x1="149.4" y1="-71.6" x2="162.8" y2="-78.1" stroke="#999" stroke-width="1.66" stroke-opacity="0.8"/><line x1="162.8" y1="-78.1" x2="159.3" y2="-92.6" stroke="#999" stroke-width="1.66" stroke-opacity="0.8"/><line x1="159.3" y1="-92.6" x2="163.8" y2="-106.8" stroke="#999" stroke-width="1.66" stroke-opacity="0.8"/><line x1="163.8" y1="-106.8" x2="158.7" y2="-120.8" stroke="#999" stroke-width="1.66" stroke-opacity="0.8"/><line x1="158.7" y1="-120.8" x2="152.4" y2="-134.3" stroke="#999" stroke-width="1.66" stroke-opacity="0.8"/><line x1="152.4" y1="-134.3" x2="142.2" y2="-145.2" stroke="#999" stroke-width="1.66" stroke-opacity="0.8"/><line x1="142.2" y1="-145.2" x2="129.1" y2="-153.1" stroke="#999" stroke-width="1.66" stroke-opacity="0.8"/><line x1="129.1" y1="-153.1" x2="114.2" y2="-157.7" stroke="#999" stroke-width="1.66" stroke-opacity="0.8"/><line x1="114.2" y1="-157.7" x2="99.1" y2="-163.0" stroke="#999" stroke-width="1.66" stroke-opacity="0.8"/><line x1="99.1" y1="-163.0" x2="85.9" y2="-173.2" stroke="#999" stroke-width="1.66" stroke-opacity="0.8"/><text x="90.4" y="-158.7" text-anchor="middle" font-size="7.8" font-family="Tahoma,Geneva,sans-serif" fill="#999">1</text><text x="23.0" y="-168.4" text-anchor="middle" font-size="7.8" font-family="Tahoma,Geneva,sans-serif" fill="#999">10</text><text x="86.4" y="-28.9" text-anchor="middle" font-size="7.8" font-family="Tahoma,Geneva,sans-serif" fill="#999">20</text><text x="130.2" y="93.8" text-anchor="middle" font-size="7.8" font-family="Tahoma,Geneva,sans-serif" fill="#999">30</text><text x="166.0" y="237.9" text-anchor="middle" font-size="7.8" font-family="Tahoma,Geneva,sans-serif" fill="#999">40</text><text x="192.0" y="122.3" text-anchor="middle" font-size="7.8" font-family="Tahoma,Geneva,sans-serif" fill="#999">50</text><text x="149.2" y="-21.5" text-anchor="middle" font-size="7.8" font-family="Tahoma,Geneva,sans-serif" fill="#999">60</text><text x="167.4" y="-141.7" text-anchor="middle" font-size="7.8" font-family="Tahoma,Geneva,sans-serif" fill="#999">70</text><circle cx="75.3" cy="-151.6" r="4.52" fill="lightgreen" stroke="#ccc" stroke-width="1.66"/><text x="75.3" y="-149.3" text-anchor="middle" font-size="5.6" font-family="Tahoma,Geneva,sans-serif" font-weight="bold" fill="rgb(100,100,100)">G</text><circle cx="67.1" cy="-164.1" r="4.52" fill="lightgreen" stroke="#ccc" stroke-width="1.66"/><text x="67.1" y="-161.9" text-anchor="middle" font-size="5.6" font-family="Tahoma,Geneva,sans-serif" font-weight="bold" fill="rgb(100,100,100)">A</text><circle cx="58.9" cy="-176.7" r="4.52" fill="lightgreen" stroke="#ccc" stroke-width="1.66"/><text x="58.9" y="-174.4" text-anchor="middle" font-size="5.6" font-family="Tahoma,Geneva,sans-serif" font-weight="bold" fill="rgb(100,100,100)">U</text><circle cx="50.7" cy="-189.2" r="4.52" fill="lightgreen" stroke="#ccc" stroke-width="1.66"/><text x="50.7" y="-187.0" text-anchor="middle" font-size="5.6" font-family="Tahoma,Geneva,sans-serif" font-weight="bold" fill="rgb(100,100,100)">G</text><circle cx="42.5" cy="-201.8" r="4.52" fill="lightgreen" stroke="#ccc" stroke-width="1.66"/><text x="42.5" y="-199.5" text-anchor="middle" font-size="5.6" font-family="Tahoma,Geneva,sans-serif" font-weight="bold" fill="rgb(100,100,100)">U</text><circle cx="38.9" cy="-218.4" r="4.52" fill="lightgreen" stroke="#ccc" stroke-width="1.66"/><text x="38.9" y="-216.1" text-anchor="middle" font-size="5.6" font-family="Tahoma,Geneva,sans-serif" font-weight="bold" fill="rgb(100,100,100)">G</text><circle cx="21.9" cy="-219.5" r="4.52" fill="lightgreen" stroke="#ccc" stroke-width="1.66"/><text x="21.9" y="-217.2" text-anchor="middle" font-size="5.6" font-family="Tahoma,Geneva,sans-serif" font-weight="bold" fill="rgb(100,100,100)">A</text><circle cx="16.2" cy="-203.5" r="4.52" fill="lightgreen" stroke="#ccc" stroke-width="1.66"/><text x="16.2" y="-201.3" text-anchor="middle" font-size="5.6" font-family="Tahoma,Geneva,sans-serif" font-weight="bold" fill="rgb(100,100,100)">U</text><circle cx="29.9" cy="-193.6" r="4.52" fill="lightgreen" stroke="#ccc" stroke-width="1.66"/><text x="29.9" y="-191.3" text-anchor="middle" font-size="5.6" font-family="Tahoma,Geneva,sans-serif" font-weight="bold" fill="rgb(100,100,100)">G</text><circle cx="38.1" cy="-181.0" r="4.52" fill="lightgreen" stroke="#ccc" stroke-width="1.66"/><text x="38.1" y="-178.8" text-anchor="middle" font-size="5.6" font-family="Tahoma,Geneva,sans-serif" font-weight="bold" fill="rgb(100,100,100)">C</text><circle cx="46.3" cy="-168.5" r="4.52" fill="lightgreen" stroke="#ccc" stroke-width="1.66"/><text x="46.3" y="-166.2" text-anchor="middle" font-size="5.6" font-family="Tahoma,Geneva,sans-serif" font-weight="bold" fill="rgb(100,100,100)">A</text><circle cx="54.5" cy="-155.9" r="4.52" fill="lightgreen" stroke="#ccc" stroke-width="1.66"/><text x="54.5" y="-153.7" text-anchor="middle" font-size="5.6" font-family="Tahoma,Geneva,sans-serif" font-weight="bold" fill="rgb(100,100,100)">U</text><circle cx="62.7" cy="-143.4" r="4.52" fill="lightgreen" stroke="#ccc" stroke-width="1.66"/><text x="62.7" y="-141.1" text-anchor="middle" font-size="5.6" font-family="Tahoma,Geneva,sans-serif" font-weight="bold" fill="rgb(100,100,100)">C</text><circle cx="55.8" cy="-127.0" r="4.52" fill="lightsalmon" stroke="#ccc" stroke-width="1.66"/><text x="55.8" y="-124.7" text-anchor="middle" font-size="5.6" font-family="Tahoma,Geneva,sans-serif" font-weight="bold" fill="rgb(100,100,100)">A</text><circle cx="49.3" cy="-110.4" r="4.52" fill="lightsalmon" stroke="#ccc" stroke-width="1.66"/><text x="49.3" y="-108.2" text-anchor="middle" font-size="5.6" font-family="Tahoma,Geneva,sans-serif" font-weight="bold" fill="rgb(100,100,100)">G</text><circle cx="43.2" cy="-93.7" r="4.52" fill="lightgreen" stroke="#ccc" stroke-width="1.66"/><text x="43.2" y="-91.4" text-anchor="middle" font-size="5.6" font-family="Tahoma,Geneva,sans-serif" font-weight="bold" fill="rgb(100,100,100)">A</text><circle cx="48.1" cy="-76.0" r="4.52" fill="lightgreen" stroke="#ccc" stroke-width="1.66"/><text x="48.1" y="-73.7" text-anchor="middle" font-size="5.6" font-family="Tahoma,Geneva,sans-serif" font-weight="bold" fill="rgb(100,100,100)">U</text><circle cx="58.5" cy="-60.7" r="4.52" fill="lightgreen" stroke="#ccc" stroke-width="1.66"/><text x="58.5" y="-58.4" text-anchor="middle" font-size="5.6" font-family="Tahoma,Geneva,sans-serif" font-weight="bold" fill="rgb(100,100,100)">U</text><circle cx="75.2" cy="-54.6" r="4.52" fill="lightsalmon" stroke="#ccc" stroke-width="1.66"/><text x="75.2" y="-52.3" text-anchor="middle" font-size="5.6" font-family="Tahoma,Geneva,sans-serif" font-weight="bold" fill="rgb(100,100,100)">C</text><circle cx="92.0" cy="-48.8" r="4.52" fill="lightsalmon" stroke="#ccc" stroke-width="1.66"/><text x="92.0" y="-46.6" text-anchor="middle" font-size="5.6" font-family="Tahoma,Geneva,sans-serif" font-weight="bold" fill="rgb(100,100,100)">A</text><circle cx="109.0" cy="-43.5" r="4.52" fill="lightgreen" stroke="#ccc" stroke-width="1.66"/><text x="109.0" y="-41.3" text-anchor="middle" font-size="5.6" font-family="Tahoma,Geneva,sans-serif" font-weight="bold" fill="rgb(100,100,100)">U</text><circle cx="113.3" cy="-29.2" r="4.52" fill="lightgreen" stroke="#ccc" stroke-width="1.66"/><text x="113.3" y="-26.9" text-anchor="middle" font-size="5.6" font-family="Tahoma,Geneva,sans-serif" font-weight="bold" fill="rgb(100,100,100)">C</text><circle cx="117.5" cy="-14.8" r="4.52" fill="lightgreen" stroke="#ccc" stroke-width="1.66"/><text x="117.5" y="-12.5" text-anchor="middle" font-size="5.6" font-family="Tahoma,Geneva,sans-serif" font-weight="bold" fill="rgb(100,100,100)">A</text><circle cx="121.8" cy="-0.4" r="4.52" fill="lightgreen" stroke="#ccc" stroke-width="1.66"/><text x="121.8" y="1.9" text-anchor="middle" font-size="5.6" font-family="Tahoma,Geneva,sans-serif" font-weight="bold" fill="rgb(100,100,100)">U</text><circle cx="126.1" cy="14.0" r="4.52" fill="lightgreen" stroke="#ccc" stroke-width="1.66"/><text x="126.1" y="16.2" text-anchor="middle" font-size="5.6" font-family="Tahoma,Geneva,sans-serif" font-weight="bold" fill="rgb(100,100,100)">U</text><circle cx="130.4" cy="28.4" r="4.52" fill="lightgreen" stroke="#ccc" stroke-width="1.66"/><text x="130.4" y="30.6" text-anchor="middle" font-size="5.6" font-family="Tahoma,Geneva,sans-serif" font-weight="bold" fill="rgb(100,100,100)">U</text><circle cx="134.7" cy="42.7" r="4.52" fill="lightgreen" stroke="#ccc" stroke-width="1.66"/><text x="134.7" y="45.0" text-anchor="middle" font-size="5.6" font-family="Tahoma,Geneva,sans-serif" font-weight="bold" fill="rgb(100,100,100)">C</text><circle cx="138.9" cy="57.1" r="4.52" fill="lightgreen" stroke="#ccc" stroke-width="1.66"/><text x="138.9" y="59.4" text-anchor="middle" font-size="5.6" font-family="Tahoma,Geneva,sans-serif" font-weight="bold" fill="rgb(100,100,100)">C</text><circle cx="143.2" cy="71.5" r="4.52" fill="lightgreen" stroke="#ccc" stroke-width="1.66"/><text x="143.2" y="73.7" text-anchor="middle" font-size="5.6" font-family="Tahoma,Geneva,sans-serif" font-weight="bold" fill="rgb(100,100,100)">C</text><circle cx="147.5" cy="85.9" r="4.52" fill="lightgreen" stroke="#ccc" stroke-width="1.66"/><text x="147.5" y="88.1" text-anchor="middle" font-size="5.6" font-family="Tahoma,Geneva,sans-serif" font-weight="bold" fill="rgb(100,100,100)">U</text><circle cx="151.8" cy="100.2" r="4.52" fill="lightgreen" stroke="#ccc" stroke-width="1.66"/><text x="151.8" y="102.5" text-anchor="middle" font-size="5.6" font-family="Tahoma,Geneva,sans-serif" font-weight="bold" fill="rgb(100,100,100)">C</text><circle cx="156.1" cy="114.6" r="4.52" fill="lightgreen" stroke="#ccc" stroke-width="1.66"/><text x="156.1" y="116.9" text-anchor="middle" font-size="5.6" font-family="Tahoma,Geneva,sans-serif" font-weight="bold" fill="rgb(100,100,100)">A</text><circle cx="160.3" cy="129.0" r="4.52" fill="lightgreen" stroke="#ccc" stroke-width="1.66"/><text x="160.3" y="131.2" text-anchor="middle" font-size="5.6" font-family="Tahoma,Geneva,sans-serif" font-weight="bold" fill="rgb(100,100,100)">G</text><circle cx="164.6" cy="143.4" r="4.52" fill="lightgreen" stroke="#ccc" stroke-width="1.66"/><text x="164.6" y="145.6" text-anchor="middle" font-size="5.6" font-family="Tahoma,Geneva,sans-serif" font-weight="bold" fill="rgb(100,100,100)">A</text><circle cx="168.9" cy="157.7" r="4.52" fill="lightgreen" stroke="#ccc" stroke-width="1.66"/><text x="168.9" y="160.0" text-anchor="middle" font-size="5.6" font-family="Tahoma,Geneva,sans-serif" font-weight="bold" fill="rgb(100,100,100)">C</text><circle cx="173.2" cy="172.1" r="4.52" fill="lightgreen" stroke="#ccc" stroke-width="1.66"/><text x="173.2" y="174.4" text-anchor="middle" font-size="5.6" font-family="Tahoma,Geneva,sans-serif" font-weight="bold" fill="rgb(100,100,100)">U</text><circle cx="177.5" cy="186.5" r="4.52" fill="lightgreen" stroke="#ccc" stroke-width="1.66"/><text x="177.5" y="188.8" text-anchor="middle" font-size="5.6" font-family="Tahoma,Geneva,sans-serif" font-weight="bold" fill="rgb(100,100,100)">C</text><circle cx="181.7" cy="200.9" r="4.52" fill="lightgreen" stroke="#ccc" stroke-width="1.66"/><text x="181.7" y="203.1" text-anchor="middle" font-size="5.6" font-family="Tahoma,Geneva,sans-serif" font-weight="bold" fill="rgb(100,100,100)">A</text><circle cx="186.0" cy="215.2" r="4.52" fill="lightgreen" stroke="#ccc" stroke-width="1.66"/><text x="186.0" y="217.5" text-anchor="middle" font-size="5.6" font-family="Tahoma,Geneva,sans-serif" font-weight="bold" fill="rgb(100,100,100)">C</text><circle cx="183.3" cy="230.1" r="4.52" fill="lightblue" stroke="#ccc" stroke-width="1.66"/><text x="183.3" y="232.3" text-anchor="middle" font-size="5.6" font-family="Tahoma,Geneva,sans-serif" font-weight="bold" fill="rgb(100,100,100)">G</text><circle cx="193.7" cy="241.0" r="4.52" fill="lightblue" stroke="#ccc" stroke-width="1.66"/><text x="193.7" y="243.2" text-anchor="middle" font-size="5.6" font-family="Tahoma,Geneva,sans-serif" font-weight="bold" fill="rgb(100,100,100)">A</text><circle cx="208.1" cy="236.7" r="4.52" fill="lightblue" stroke="#ccc" stroke-width="1.66"/><text x="208.1" y="239.0" text-anchor="middle" font-size="5.6" font-family="Tahoma,Geneva,sans-serif" font-weight="bold" fill="rgb(100,100,100)">A</text><circle cx="210.8" cy="221.9" r="4.52" fill="lightblue" stroke="#ccc" stroke-width="1.66"/><text x="210.8" y="224.1" text-anchor="middle" font-size="5.6" font-family="Tahoma,Geneva,sans-serif" font-weight="bold" fill="rgb(100,100,100)">G</text><circle cx="200.4" cy="211.0" r="4.52" fill="lightgreen" stroke="#ccc" stroke-width="1.66"/><text x="200.4" y="213.2" text-anchor="middle" font-size="5.6" font-family="Tahoma,Geneva,sans-serif" font-weight="bold" fill="rgb(100,100,100)">G</text><circle cx="196.1" cy="196.6" r="4.52" fill="lightgreen" stroke="#ccc" stroke-width="1.66"/><text x="196.1" y="198.9" text-anchor="middle" font-size="5.6" font-family="Tahoma,Geneva,sans-serif" font-weight="bold" fill="rgb(100,100,100)">U</text><circle cx="191.8" cy="182.2" r="4.52" fill="lightgreen" stroke="#ccc" stroke-width="1.66"/><text x="191.8" y="184.5" text-anchor="middle" font-size="5.6" font-family="Tahoma,Geneva,sans-serif" font-weight="bold" fill="rgb(100,100,100)">G</text><circle cx="187.6" cy="167.8" r="4.52" fill="lightgreen" stroke="#ccc" stroke-width="1.66"/><text x="187.6" y="170.1" text-anchor="middle" font-size="5.6" font-family="Tahoma,Geneva,sans-serif" font-weight="bold" fill="rgb(100,100,100)">A</text><circle cx="183.3" cy="153.5" r="4.52" fill="lightgreen" stroke="#ccc" stroke-width="1.66"/><text x="183.3" y="155.7" text-anchor="middle" font-size="5.6" font-family="Tahoma,Geneva,sans-serif" font-weight="bold" fill="rgb(100,100,100)">G</text><circle cx="179.0" cy="139.1" r="4.52" fill="lightgreen" stroke="#ccc" stroke-width="1.66"/><text x="179.0" y="141.3" text-anchor="middle" font-size="5.6" font-family="Tahoma,Geneva,sans-serif" font-weight="bold" fill="rgb(100,100,100)">U</text><circle cx="174.7" cy="124.7" r="4.52" fill="lightgreen" stroke="#ccc" stroke-width="1.66"/><text x="174.7" y="127.0" text-anchor="middle" font-size="5.6" font-family="Tahoma,Geneva,sans-serif" font-weight="bold" fill="rgb(100,100,100)">C</text><circle cx="170.4" cy="110.3" r="4.52" fill="lightgreen" stroke="#ccc" stroke-width="1.66"/><text x="170.4" y="112.6" text-anchor="middle" font-size="5.6" font-family="Tahoma,Geneva,sans-serif" font-weight="bold" fill="rgb(100,100,100)">U</text><circle cx="166.2" cy="96.0" r="4.52" fill="lightgreen" stroke="#ccc" stroke-width="1.66"/><text x="166.2" y="98.2" text-anchor="middle" font-size="5.6" font-family="Tahoma,Geneva,sans-serif" font-weight="bold" fill="rgb(100,100,100)">G</text><circle cx="161.9" cy="81.6" r="4.52" fill="lightgreen" stroke="#ccc" stroke-width="1.66"/><text x="161.9" y="83.8" text-anchor="middle" font-size="5.6" font-family="Tahoma,Geneva,sans-serif" font-weight="bold" fill="rgb(100,100,100)">A</text><circle cx="157.6" cy="67.2" r="4.52" fill="lightgreen" stroke="#ccc" stroke-width="1.66"/><text x="157.6" y="69.5" text-anchor="middle" font-size="5.6" font-family="Tahoma,Geneva,sans-serif" font-weight="bold" fill="rgb(100,100,100)">G</text><circle cx="153.3" cy="52.8" r="4.52" fill="lightgreen" stroke="#ccc" stroke-width="1.66"/><text x="153.3" y="55.1" text-anchor="middle" font-size="5.6" font-family="Tahoma,Geneva,sans-serif" font-weight="bold" fill="rgb(100,100,100)">G</text><circle cx="149.0" cy="38.5" r="4.52" fill="lightgreen" stroke="#ccc" stroke-width="1.66"/><text x="149.0" y="40.7" text-anchor="middle" font-size="5.6" font-family="Tahoma,Geneva,sans-serif" font-weight="bold" fill="rgb(100,100,100)">G</text><circle cx="144.8" cy="24.1" r="4.52" fill="lightgreen" stroke="#ccc" stroke-width="1.66"/><text x="144.8" y="26.3" text-anchor="middle" font-size="5.6" font-family="Tahoma,Geneva,sans-serif" font-weight="bold" fill="rgb(100,100,100)">A</text><circle cx="140.5" cy="9.7" r="4.52" fill="lightgreen" stroke="#ccc" stroke-width="1.66"/><text x="140.5" y="12.0" text-anchor="middle" font-size="5.6" font-family="Tahoma,Geneva,sans-serif" font-weight="bold" fill="rgb(100,100,100)">G</text><circle cx="136.2" cy="-4.7" r="4.52" fill="lightgreen" stroke="#ccc" stroke-width="1.66"/><text x="136.2" y="-2.4" text-anchor="middle" font-size="5.6" font-family="Tahoma,Geneva,sans-serif" font-weight="bold" fill="rgb(100,100,100)">A</text><circle cx="131.9" cy="-19.1" r="4.52" fill="lightgreen" stroke="#ccc" stroke-width="1.66"/><text x="131.9" y="-16.8" text-anchor="middle" font-size="5.6" font-family="Tahoma,Geneva,sans-serif" font-weight="bold" fill="rgb(100,100,100)">U</text><circle cx="127.6" cy="-33.4" r="4.52" fill="lightgreen" stroke="#ccc" stroke-width="1.66"/><text x="127.6" y="-31.2" text-anchor="middle" font-size="5.6" font-family="Tahoma,Geneva,sans-serif" font-weight="bold" fill="rgb(100,100,100)">G</text><circle cx="123.4" cy="-47.8" r="4.52" fill="lightgreen" stroke="#ccc" stroke-width="1.66"/><text x="123.4" y="-45.5" text-anchor="middle" font-size="5.6" font-family="Tahoma,Geneva,sans-serif" font-weight="bold" fill="rgb(100,100,100)">A</text><circle cx="136.3" cy="-54.6" r="4.52" fill="lightsalmon" stroke="#ccc" stroke-width="1.66"/><text x="136.3" y="-52.3" text-anchor="middle" font-size="5.6" font-family="Tahoma,Geneva,sans-serif" font-weight="bold" fill="rgb(100,100,100)">G</text><circle cx="151.1" cy="-56.6" r="4.52" fill="lightsalmon" stroke="#ccc" stroke-width="1.66"/><text x="151.1" y="-54.3" text-anchor="middle" font-size="5.6" font-family="Tahoma,Geneva,sans-serif" font-weight="bold" fill="rgb(100,100,100)">C</text><circle cx="149.4" cy="-71.6" r="4.52" fill="lightsalmon" stroke="#ccc" stroke-width="1.66"/><text x="149.4" y="-69.4" text-anchor="middle" font-size="5.6" font-family="Tahoma,Geneva,sans-serif" font-weight="bold" fill="rgb(100,100,100)">A</text><circle cx="162.8" cy="-78.1" r="4.52" fill="lightsalmon" stroke="#ccc" stroke-width="1.66"/><text x="162.8" y="-75.8" text-anchor="middle" font-size="5.6" font-family="Tahoma,Geneva,sans-serif" font-weight="bold" fill="rgb(100,100,100)">A</text><circle cx="159.3" cy="-92.6" r="4.52" fill="lightsalmon" stroke="#ccc" stroke-width="1.66"/><text x="159.3" y="-90.4" text-anchor="middle" font-size="5.6" font-family="Tahoma,Geneva,sans-serif" font-weight="bold" fill="rgb(100,100,100)">U</text><circle cx="163.8" cy="-106.8" r="4.52" fill="lightsalmon" stroke="#ccc" stroke-width="1.66"/><text x="163.8" y="-104.6" text-anchor="middle" font-size="5.6" font-family="Tahoma,Geneva,sans-serif" font-weight="bold" fill="rgb(100,100,100)">U</text><circle cx="158.7" cy="-120.8" r="4.52" fill="lightsalmon" stroke="#ccc" stroke-width="1.66"/><text x="158.7" y="-118.5" text-anchor="middle" font-size="5.6" font-family="Tahoma,Geneva,sans-serif" font-weight="bold" fill="rgb(100,100,100)">U</text><circle cx="152.4" cy="-134.3" r="4.52" fill="lightsalmon" stroke="#ccc" stroke-width="1.66"/><text x="152.4" y="-132.0" text-anchor="middle" font-size="5.6" font-family="Tahoma,Geneva,sans-serif" font-weight="bold" fill="rgb(100,100,100)">U</text><circle cx="142.2" cy="-145.2" r="4.52" fill="lightsalmon" stroke="#ccc" stroke-width="1.66"/><text x="142.2" y="-143.0" text-anchor="middle" font-size="5.6" font-family="Tahoma,Geneva,sans-serif" font-weight="bold" fill="rgb(100,100,100)">G</text><circle cx="129.1" cy="-153.1" r="4.52" fill="lightsalmon" stroke="#ccc" stroke-width="1.66"/><text x="129.1" y="-150.8" text-anchor="middle" font-size="5.6" font-family="Tahoma,Geneva,sans-serif" font-weight="bold" fill="rgb(100,100,100)">C</text><circle cx="114.2" cy="-157.7" r="4.52" fill="lightsalmon" stroke="#ccc" stroke-width="1.66"/><text x="114.2" y="-155.4" text-anchor="middle" font-size="5.6" font-family="Tahoma,Geneva,sans-serif" font-weight="bold" fill="rgb(100,100,100)">U</text><circle cx="99.1" cy="-163.0" r="4.52" fill="lightsalmon" stroke="#ccc" stroke-width="1.66"/><text x="99.1" y="-160.7" text-anchor="middle" font-size="5.6" font-family="Tahoma,Geneva,sans-serif" font-weight="bold" fill="rgb(100,100,100)">U</text><circle cx="85.9" cy="-173.2" r="4.52" fill="lightsalmon" stroke="#ccc" stroke-width="1.66"/><text x="85.9" y="-171.0" text-anchor="middle" font-size="5.6" font-family="Tahoma,Geneva,sans-serif" font-weight="bold" fill="rgb(100,100,100)">C</text></svg>