<svg xmlns="http://www.w3.org/2000/svg" viewBox="8.7 -423.4 232.3 549.4" width="232" height="549"><style></style><line x1="57.2" y1="54.4" x2="71.8" y2="57.9" stroke="#999" stroke-width="1.55" stroke-opacity="0.8"/><line x1="60.7" y1="39.8" x2="75.3" y2="43.4" stroke="#999" stroke-width="1.55" stroke-opacity="0.8"/><line x1="64.3" y1="25.3" x2="78.9" y2="28.8" stroke="#999" stroke-width="1.55" stroke-opacity="0.8"/><line x1="67.8" y1="10.7" x2="82.4" y2="14.2" stroke="#999" stroke-width="1.55" stroke-opacity="0.8"/><line x1="71.1" y1="-4.0" x2="85.8" y2="-1.0" stroke="#999" stroke-width="1.55" stroke-opacity="0.8"/><line x1="74.0" y1="-18.7" x2="88.7" y2="-15.7" stroke="#999" stroke-width="1.55" stroke-opacity="0.8"/><line x1="77.0" y1="-33.4" x2="91.7" y2="-30.4" stroke="#999" stroke-width="1.55" stroke-opacity="0.8"/><line x1="80.0" y1="-48.1" x2="94.7" y2="-45.1" stroke="#999" stroke-width="1.55" stroke-opacity="0.8"/><line x1="83.4" y1="-63.3" x2="97.9" y2="-59.8" stroke="#999" stroke-width="1.55" stroke-opacity="0.8"/><line x1="86.9" y1="-77.9" x2="101.5" y2="-74.3" stroke="#999" stroke-width="1.55" stroke-opacity="0.8"/><line x1="90.4" y1="-92.5" x2="105.0" y2="-88.9" stroke="#999" stroke-width="1.55" stroke-opacity="0.8"/><line x1="94.9" y1="-108.0" x2="109.1" y2="-103.3" stroke="#999" stroke-width="1.55" stroke-opacity="0.8"/><line x1="99.6" y1="-122.3" x2="113.8" y2="-117.6" stroke="#999" stroke-width="1.55" stroke-opacity="0.8"/><line x1="104.3" y1="-136.5" x2="118.5" y2="-131.8" stroke="#999" stroke-width="1.55" stroke-opacity="0.8"/><line x1="109.0" y1="-150.8" x2="123.2" y2="-146.1" stroke="#999" stroke-width="1.55" stroke-opacity="0.8"/><line x1="113.7" y1="-165.0" x2="127.9" y2="-160.3" stroke="#999" stroke-width="1.55" stroke-opacity="0.8"/><line x1="118.4" y1="-179.3" x2="132.6" y2="-174.6" stroke="#999" stroke-width="1.55" stroke-opacity="0.8"/><line x1="123.0" y1="-193.5" x2="137.3" y2="-188.8" stroke="#999" stroke-width="1.55" stroke-opacity="0.8"/><line x1="127.7" y1="-207.8" x2="142.0" y2="-203.1" stroke="#999" stroke-width="1.55" stroke-opacity="0.8"/><line x1="132.4" y1="-222.0" x2="146.7" y2="-217.3" stroke="#999" stroke-width="1.55" stroke-opacity="0.8"/><line x1="136.6" y1="-236.4" x2="151.1" y2="-232.9" stroke="#999" stroke-width="1.55" stroke-opacity="0.8"/><line x1="140.1" y1="-251.0" x2="154.7" y2="-247.5" stroke="#999" stroke-width="1.55" stroke-opacity="0.8"/><line x1="143.6" y1="-265.6" x2="158.2" y2="-262.0" stroke="#999" stroke-width="1.55" stroke-opacity="0.8"/><line x1="147.2" y1="-280.1" x2="161.8" y2="-276.6" stroke="#999" stroke-width="1.55" stroke-opacity="0.8"/><line x1="150.7" y1="-294.7" x2="165.3" y2="-291.2" stroke="#999" stroke-width="1.55" stroke-opacity="0.8"/><line x1="154.3" y1="-309.3" x2="168.9" y2="-305.8" stroke="#999" stroke-width="1.55" stroke-opacity="0.8"/><line x1="157.8" y1="-323.9" x2="172.4" y2="-320.3" stroke="#999" stroke-width="1.55" stroke-opacity="0.8"/><line x1="80.2" y1="71.3" x2="208.0" y2="-344.5" stroke="#d9534f" stroke-width="1.55" stroke-opacity="0.6"/><line x1="76.6" y1="86.7" x2="210.1" y2="-359.6" stroke="#d9534f" stroke-width="1.55" stroke-opacity="0.6"/><line x1="63.2" y1="95.0" x2="205.8" y2="-374.2" stroke="#d9534f" stroke-width="1.55" stroke-opacity="0.6"/><line x1="47.8" y1="91.3" x2="195.9" y2="-385.8" stroke="#d9534f" stroke-width="1.55" stroke-opacity="0.6"/><line x1="39.7" y1="77.7" x2="182.2" y2="-392.4" stroke="#d9534f" stroke-width="1.55" stroke-opacity="0.6"/><line x1="135.9" y1="-368.1" x2="142.3" y2="-352.8" stroke="#999" stroke-width="1.55" stroke-opacity="0.8"/><line x1="142.3" y1="-352.8" x2="149.6" y2="-338.1" stroke="#999" stroke-width="1.55" stroke-opacity="0.8"/><line x1="149.6" y1="-338.1" x2="157.8" y2="-323.9" stroke="#999" stroke-width="1.55" stroke-opacity="0.8"/><line x1="157.8" y1="-323.9" x2="154.3" y2="-309.3" stroke="#999" stroke-width="1.55" stroke-opacity="0.8"/><line x1="154.3" y1="-309.3" x2="150.7" y2="-294.7" stroke="#999" stroke-width="1.55" stroke-opacity="0.8"/><line x1="150.7" y1="-294.7" x2="147.2" y2="-280.1" stroke="#999" stroke-width="1.55" stroke-opacity="0.8"/><line x1="147.2" y1="-280.1" x2="143.6" y2="-265.6" stroke="#999" stroke-width="1.55" stroke-opacity="0.8"/><line x1="143.6" y1="-265.6" x2="140.1" y2="-251.0" stroke="#999" stroke-width="1.55" stroke-opacity="0.8"/><line x1="140.1" y1="-251.0" x2="136.6" y2="-236.4" stroke="#999" stroke-width="1.55" stroke-opacity="0.8"/><line x1="136.6" y1="-236.4" x2="132.4" y2="-222.0" stroke="#999" stroke-width="1.55" stroke-opacity="0.8"/><line x1="132.4" y1="-222.0" x2="127.7" y2="-207.8" stroke="#999" stroke-width="1.55" stroke-opacity="0.8"/><line x1="127.7" y1="-207.8" x2="123.0" y2="-193.5" stroke="#999" stroke-width="1.55" stroke-opacity="0.8"/><line x1="123.0" y1="-193.5" x2="118.4" y2="-179.3" stroke="#999" stroke-width="1.55" stroke-opacity="0.8"/><line x1="118.4" y1="-179.3" x2="113.7" y2="-165.0" stroke="#999" stroke-width="1.55" stroke-opacity="0.8"/><line x1="113.7" y1="-165.0" x2="109.0" y2="-150.8" stroke="#999" stroke-width="1.55" stroke-opacity="0.8"/><line x1="109.0" y1="-150.8" x2="104.3" y2="-136.5" stroke="#999" stroke-width="1.55" stroke-opacity="0.8"/><line x1="104.3" y1="-136.5" x2="99.6" y2="-122.3" stroke="#999" stroke-width="1.55" stroke-opacity="0.8"/><line x1="99.6" y1="-122.3" x2="94.9" y2="-108.0" stroke="#999" stroke-width="1.55" stroke-opacity="0.8"/><line x1="94.9" y1="-108.0" x2="81.1" y2="-111.0" stroke="#999" stroke-width="1.55" stroke-opacity="0.8"/><line x1="81.1" y1="-111.0" x2="77.2" y2="-97.3" stroke="#999" stroke-width="1.55" stroke-opacity="0.8"/><line x1="77.2" y1="-97.3" x2="90.4" y2="-92.5" stroke="#999" stroke-width="1.55" stroke-opacity="0.8"/><line x1="90.4" y1="-92.5" x2="86.9" y2="-77.9" stroke="#999" stroke-width="1.55" stroke-opacity="0.8"/><line x1="86.9" y1="-77.9" x2="83.4" y2="-63.3" stroke="#999" stroke-width="1.55" stroke-opacity="0.8"/><line x1="83.4" y1="-63.3" x2="70.2" y2="-58.2" stroke="#999" stroke-width="1.55" stroke-opacity="0.8"/><line x1="70.2" y1="-58.2" x2="80.0" y2="-48.1" stroke="#999" stroke-width="1.55" stroke-opacity="0.8"/><line x1="80.0" y1="-48.1" x2="77.0" y2="-33.4" stroke="#999" stroke-width="1.55" stroke-opacity="0.8"/><line x1="77.0" y1="-33.4" x2="74.0" y2="-18.7" stroke="#999" stroke-width="1.55" stroke-opacity="0.8"/><line x1="74.0" y1="-18.7" x2="71.1" y2="-4.0" stroke="#999" stroke-width="1.55" stroke-opacity="0.8"/><line x1="71.1" y1="-4.0" x2="67.8" y2="10.7" stroke="#999" stroke-width="1.55" stroke-opacity="0.8"/><line x1="67.8" y1="10.7" x2="64.3" y2="25.3" stroke="#999" stroke-width="1.55" stroke-opacity="0.8"/><line x1="64.3" y1="25.3" x2="60.7" y2="39.8" stroke="#999" stroke-width="1.55" stroke-opacity="0.8"/><line x1="60.7" y1="39.8" x2="57.2" y2="54.4" stroke="#999" stroke-width="1.55" stroke-opacity="0.8"/><line x1="57.2" y1="54.4" x2="47.5" y2="65.4" stroke="#999" stroke-width="1.55" stroke-opacity="0.8"/><line x1="47.5" y1="65.4" x2="39.7" y2="77.7" stroke="#999" stroke-width="1.55" stroke-opacity="0.8"/><line x1="39.7" y1="77.7" x2="47.8" y2="91.3" stroke="#999" stroke-width="1.55" stroke-opacity="0.8"/><line x1="47.8" y1="91.3" x2="63.2" y2="95.0" stroke="#999" stroke-width="1.55" stroke-opacity="0.8"/><line x1="63.2" y1="95.0" x2="76.6" y2="86.7" stroke="#999" stroke-width="1.55" stroke-opacity="0.8"/><line x1="76.6" y1="86.7" x2="80.2" y2="71.3" stroke="#999" stroke-width="1.55" stroke-opacity="0.8"/><line x1="80.2" y1="71.3" x2="71.8" y2="57.9" stroke="#999" stroke-width="1.55" stroke-opacity="0.8"/><line x1="71.8" y1="57.9" x2="75.3" y2="43.4" stroke="#999" stroke-width="1.55" stroke-opacity="0.8"/><line x1="75.3" y1="43.4" x2="78.9" y2="28.8" stroke="#999" stroke-width="1.55" stroke-opacity="0.8"/><line x1="78.9" y1="28.8" x2="82.4" y2="14.2" stroke="#999" stroke-width="1.55" stroke-opacity="0.8"/><line x1="82.4" y1="14.2" x2="95.5" y2="9.2" stroke="#999" stroke-width="1.55" stroke-opacity="0.8"/><line x1="95.5" y1="9.2" x2="85.8" y2="-1.0" stroke="#999" stroke-width="1.55" stroke-opacity="0.8"/><line x1="85.8" y1="-1.0" x2="88.7" y2="-15.7" stroke="#999" stroke-width="1.55" stroke-opacity="0.8"/><line x1="88.7" y1="-15.7" x2="91.7" y2="-30.4" stroke="#999" stroke-width="1.55" stroke-opacity="0.8"/><line x1="91.7" y1="-30.4" x2="94.7" y2="-45.1" stroke="#999" stroke-width="1.55" stroke-opacity="0.8"/><line x1="94.7" y1="-45.1" x2="97.9" y2="-59.8" stroke="#999" stroke-width="1.55" stroke-opacity="0.8"/><line x1="97.9" y1="-59.8" x2="101.5" y2="-74.3" stroke="#999" stroke-width="1.55" stroke-opacity="0.8"/><line x1="101.5" y1="-74.3" x2="105.0" y2="-88.9" stroke="#999" stroke-width="1.55" stroke-opacity="0.8"/><line x1="105.0" y1="-88.9" x2="109.1" y2="-103.3" stroke="#999" stroke-width="1.55" stroke-opacity="0.8"/><line x1="109.1" y1="-103.3" x2="113.8" y2="-117.6" stroke="#999" stroke-width="1.55" stroke-opacity="0.8"/><line x1="113.8" y1="-117.6" x2="118.5" y2="-131.8" stroke="#999" stroke-width="1.55" stroke-opacity="0.8"/><line x1="118.5" y1="-131.8" x2="123.2" y2="-146.1" stroke="#999" stroke-width="1.55" stroke-opacity="0.8"/><line x1="123.2" y1="-146.1" x2="127.9" y2="-160.3" stroke="#999" stroke-width="1.55" stroke-opacity="0.8"/><line x1="127.9" y1="-160.3" x2="132.6" y2="-174.6" stroke="#999" stroke-width="1.55" stroke-opacity="0.8"/><line x1="132.6" y1="-174.6" x2="137.3" y2="-188.8" stroke="#999" stroke-width="1.55" stroke-opacity="0.8"/><line x1="137.3" y1="-188.8" x2="142.0" y2="-203.1" stroke="#999" stroke-width="1.55" stroke-opacity="0.8"/><line x1="142.0" y1="-203.1" x2="146.7" y2="-217.3" stroke="#999" stroke-width="1.55" stroke-opacity="0.8"/><line x1="146.7" y1="-217.3" x2="160.6" y2="-214.5" stroke="#999" stroke-width="1.55" stroke-opacity="0.8"/><line x1="160.6" y1="-214.5" x2="164.4" y2="-228.1" stroke="#999" stroke-width="1.55" stroke-opacity="0.8"/><line x1="164.4" y1="-228.1" x2="151.1" y2="-232.9" stroke="#999" stroke-width="1.55" stroke-opacity="0.8"/><line x1="151.1" y1="-232.9" x2="154.7" y2="-247.5" stroke="#999" stroke-width="1.55" stroke-opacity="0.8"/><line x1="154.7" y1="-247.5" x2="158.2" y2="-262.0" stroke="#999" stroke-width="1.55" stroke-opacity="0.8"/><line x1="158.2" y1="-262.0" x2="161.8" y2="-276.6" stroke="#999" stroke-width="1.55" stroke-opacity="0.8"/><line x1="161.8" y1="-276.6" x2="165.3" y2="-291.2" stroke="#999" stroke-width="1.55" stroke-opacity="0.8"/><line x1="165.3" y1="-291.2" x2="168.9" y2="-305.8" stroke="#999" stroke-width="1.55" stroke-opacity="0.8"/><line x1="168.9" y1="-305.8" x2="172.4" y2="-320.3" stroke="#999" stroke-width="1.55" stroke-opacity="0.8"/><line x1="172.4" y1="-320.3" x2="185.8" y2="-325.9" stroke="#999" stroke-width="1.55" stroke-opacity="0.8"/><line x1="185.8" y1="-325.9" x2="197.9" y2="-334.1" stroke="#999" stroke-width="1.55" stroke-opacity="0.8"/><line x1="197.9" y1="-334.1" x2="208.0" y2="-344.5" stroke="#999" stroke-width="1.55" stroke-opacity="0.8"/><line x1="208.0" y1="-344.5" x2="210.1" y2="-359.6" stroke="#999" stroke-width="1.55" stroke-opacity="0.8"/><line x1="210.1" y1="-359.6" x2="205.8" y2="-374.2" stroke="#999" stroke-width="1.55" stroke-opacity="0.8"/><line x1="205.8" y1="-374.2" x2="195.9" y2="-385.8" stroke="#999" stroke-width="1.55" stroke-opacity="0.8"/><line x1="195.9" y1="-385.8" x2="182.2" y2="-392.4" stroke="#999" stroke-width="1.55" stroke-opacity="0.8"/><line x1="182.2" y1="-392.4" x2="165.8" y2="-389.2" stroke="#999" stroke-width="1.55" stroke-opacity="0.8"/><line x1="165.8" y1="-389.2" x2="149.5" y2="-386.0" stroke="#999" stroke-width="1.55" stroke-opacity="0.8"/><text x="120.3" y="-359.0" text-anchor="middle" font-size="7.3" font-family="Tahoma,Geneva,sans-serif" fill="#999">1</text><text x="120.2" y="-238.2" text-anchor="middle" font-size="7.3" font-family="Tahoma,Geneva,sans-serif" fill="#999">10</text><text x="72.3" y="-122.9" text-anchor="middle" font-size="7.3" font-family="Tahoma,Geneva,sans-serif" fill="#999">20</text><text x="51.4" y="9.4" text-anchor="middle" font-size="7.3" font-family="Tahoma,Geneva,sans-serif" fill="#999">30</text><text x="88.4" y="57.6" text-anchor="middle" font-size="7.3" font-family="Tahoma,Geneva,sans-serif" fill="#999">40</text><text x="117.9" y="-67.8" text-anchor="middle" font-size="7.3" font-family="Tahoma,Geneva,sans-serif" fill="#999">50</text><text x="155.5" y="-200.4" text-anchor="middle" font-size="7.3" font-family="Tahoma,Geneva,sans-serif" fill="#999">60</text><text x="193.9" y="-308.5" text-anchor="middle" font-size="7.3" font-family="Tahoma,Geneva,sans-serif" fill="#999">70</text><circle cx="135.9" cy="-368.1" r="4.22" fill="lightsalmon" stroke="#ccc" stroke-width="1.55"/><text x="135.9" y="-366.0" text-anchor="middle" font-size="5.3" font-family="Tahoma,Geneva,sans-serif" font-weight="bold" fill="rgb(100,100,100)">U</text><circle cx="142.3" cy="-352.8" r="4.22" fill="lightsalmon" stroke="#ccc" stroke-width="1.55"/><text x="142.3" y="-350.7" text-anchor="middle" font-size="5.3" font-family="Tahoma,Geneva,sans-serif" font-weight="bold" fill="rgb(100,100,100)">G</text><circle cx="149.6" cy="-338.1" r="4.22" fill="lightsalmon" stroke="#ccc" stroke-width="1.55"/><text x="149.6" y="-335.9" text-anchor="middle" font-size="5.3" font-family="Tahoma,Geneva,sans-serif" font-weight="bold" fill="rgb(100,100,100)">G</text><circle cx="157.8" cy="-323.9" r="4.22" fill="lightgreen" stroke="#ccc" stroke-width="1.55"/><text x="157.8" y="-321.8" text-anchor="middle" font-size="5.3" font-family="Tahoma,Geneva,sans-serif" font-weight="bold" fill="rgb(100,100,100)">G</text><circle cx="154.3" cy="-309.3" r="4.22" fill="lightgreen" stroke="#ccc" stroke-width="1.55"/><text x="154.3" y="-307.2" text-anchor="middle" font-size="5.3" font-family="Tahoma,Geneva,sans-serif" font-weight="bold" fill="rgb(100,100,100)">U</text><circle cx="150.7" cy="-294.7" r="4.22" fill="lightgreen" stroke="#ccc" stroke-width="1.55"/><text x="150.7" y="-292.6" text-anchor="middle" font-size="5.3" font-family="Tahoma,Geneva,sans-serif" font-weight="bold" fill="rgb(100,100,100)">U</text><circle cx="147.2" cy="-280.1" r="4.22" fill="lightgreen" stroke="#ccc" stroke-width="1.55"/><text x="147.2" y="-278.0" text-anchor="middle" font-size="5.3" font-family="Tahoma,Geneva,sans-serif" font-weight="bold" fill="rgb(100,100,100)">C</text><circle cx="143.6" cy="-265.6" r="4.22" fill="lightgreen" stroke="#ccc" stroke-width="1.55"/><text x="143.6" y="-263.5" text-anchor="middle" font-size="5.3" font-family="Tahoma,Geneva,sans-serif" font-weight="bold" fill="rgb(100,100,100)">A</text><circle cx="140.1" cy="-251.0" r="4.22" fill="lightgreen" stroke="#ccc" stroke-width="1.55"/><text x="140.1" y="-248.9" text-anchor="middle" font-size="5.3" font-family="Tahoma,Geneva,sans-serif" font-weight="bold" fill="rgb(100,100,100)">G</text><circle cx="136.6" cy="-236.4" r="4.22" fill="lightgreen" stroke="#ccc" stroke-width="1.55"/><text x="136.6" y="-234.3" text-anchor="middle" font-size="5.3" font-family="Tahoma,Geneva,sans-serif" font-weight="bold" fill="rgb(100,100,100)">U</text><circle cx="132.4" cy="-222.0" r="4.22" fill="lightgreen" stroke="#ccc" stroke-width="1.55"/><text x="132.4" y="-219.9" text-anchor="middle" font-size="5.3" font-family="Tahoma,Geneva,sans-serif" font-weight="bold" fill="rgb(100,100,100)">A</text><circle cx="127.7" cy="-207.8" r="4.22" fill="lightgreen" stroke="#ccc" stroke-width="1.55"/><text x="127.7" y="-205.6" text-anchor="middle" font-size="5.3" font-family="Tahoma,Geneva,sans-serif" font-weight="bold" fill="rgb(100,100,100)">U</text><circle cx="123.0" cy="-193.5" r="4.22" fill="lightgreen" stroke="#ccc" stroke-width="1.55"/><text x="123.0" y="-191.4" text-anchor="middle" font-size="5.3" font-family="Tahoma,Geneva,sans-serif" font-weight="bold" fill="rgb(100,100,100)">A</text><circle cx="118.4" cy="-179.3" r="4.22" fill="lightgreen" stroke="#ccc" stroke-width="1.55"/><text x="118.4" y="-177.1" text-anchor="middle" font-size="5.3" font-family="Tahoma,Geneva,sans-serif" font-weight="bold" fill="rgb(100,100,100)">C</text><circle cx="113.7" cy="-165.0" r="4.22" fill="lightgreen" stroke="#ccc" stroke-width="1.55"/><text x="113.7" y="-162.9" text-anchor="middle" font-size="5.3" font-family="Tahoma,Geneva,sans-serif" font-weight="bold" fill="rgb(100,100,100)">G</text><circle cx="109.0" cy="-150.8" r="4.22" fill="lightgreen" stroke="#ccc" stroke-width="1.55"/><text x="109.0" y="-148.7" text-anchor="middle" font-size="5.3" font-family="Tahoma,Geneva,sans-serif" font-weight="bold" fill="rgb(100,100,100)">U</text><circle cx="104.3" cy="-136.5" r="4.22" fill="lightgreen" stroke="#ccc" stroke-width="1.55"/><text x="104.3" y="-134.4" text-anchor="middle" font-size="5.3" font-family="Tahoma,Geneva,sans-serif" font-weight="bold" fill="rgb(100,100,100)">C</text><circle cx="99.6" cy="-122.3" r="4.22" fill="lightgreen" stroke="#ccc" stroke-width="1.55"/><text x="99.6" y="-120.2" text-anchor="middle" font-size="5.3" font-family="Tahoma,Geneva,sans-serif" font-weight="bold" fill="rgb(100,100,100)">G</text><circle cx="94.9" cy="-108.0" r="4.22" fill="lightgreen" stroke="#ccc" stroke-width="1.55"/><text x="94.9" y="-105.9" text-anchor="middle" font-size="5.3" font-family="Tahoma,Geneva,sans-serif" font-weight="bold" fill="rgb(100,100,100)">A</text><circle cx="81.1" cy="-111.0" r="4.22" fill="#dbdb8d" stroke="#ccc" stroke-width="1.55"/><text x="81.1" y="-108.8" text-anchor="middle" font-size="5.3" font-family="Tahoma,Geneva,sans-serif" font-weight="bold" fill="rgb(100,100,100)">A</text><circle cx="77.2" cy="-97.3" r="4.22" fill="#dbdb8d" stroke="#ccc" stroke-width="1.55"/><text x="77.2" y="-95.2" text-anchor="middle" font-size="5.3" font-family="Tahoma,Geneva,sans-serif" font-weight="bold" fill="rgb(100,100,100)">U</text><circle cx="90.4" cy="-92.5" r="4.22" fill="lightgreen" stroke="#ccc" stroke-width="1.55"/><text x="90.4" y="-90.3" text-anchor="middle" font-size="5.3" font-family="Tahoma,Geneva,sans-serif" font-weight="bold" fill="rgb(100,100,100)">A</text><circle cx="86.9" cy="-77.9" r="4.22" fill="lightgreen" stroke="#ccc" stroke-width="1.55"/><text x="86.9" y="-75.8" text-anchor="middle" font-size="5.3" font-family="Tahoma,Geneva,sans-serif" font-weight="bold" fill="rgb(100,100,100)">U</text><circle cx="83.4" cy="-63.3" r="4.22" fill="lightgreen" stroke="#ccc" stroke-width="1.55"/><text x="83.4" y="-61.2" text-anchor="middle" font-size="5.3" font-family="Tahoma,Geneva,sans-serif" font-weight="bold" fill="rgb(100,100,100)">G</text><circle cx="70.2" cy="-58.2" r="4.22" fill="#dbdb8d" stroke="#ccc" stroke-width="1.55"/><text x="70.2" y="-56.1" text-anchor="middle" font-size="5.3" font-family="Tahoma,Geneva,sans-serif" font-weight="bold" fill="rgb(100,100,100)">C</text><circle cx="80.0" cy="-48.1" r="4.22" fill="lightgreen" stroke="#ccc" stroke-width="1.55"/><text x="80.0" y="-46.0" text-anchor="middle" font-size="5.3" font-family="Tahoma,Geneva,sans-serif" font-weight="bold" fill="rgb(100,100,100)">A</text><circle cx="77.0" cy="-33.4" r="4.22" fill="lightgreen" stroke="#ccc" stroke-width="1.55"/><text x="77.0" y="-31.3" text-anchor="middle" font-size="5.3" font-family="Tahoma,Geneva,sans-serif" font-weight="bold" fill="rgb(100,100,100)">C</text><circle cx="74.0" cy="-18.7" r="4.22" fill="lightgreen" stroke="#ccc" stroke-width="1.55"/><text x="74.0" y="-16.6" text-anchor="middle" font-size="5.3" font-family="Tahoma,Geneva,sans-serif" font-weight="bold" fill="rgb(100,100,100)">A</text><circle cx="71.1" cy="-4.0" r="4.22" fill="lightgreen" stroke="#ccc" stroke-width="1.55"/><text x="71.1" y="-1.9" text-anchor="middle" font-size="5.3" font-family="Tahoma,Geneva,sans-serif" font-weight="bold" fill="rgb(100,100,100)">A</text><circle cx="67.8" cy="10.7" r="4.22" fill="lightgreen" stroke="#ccc" stroke-width="1.55"/><text x="67.8" y="12.8" text-anchor="middle" font-size="5.3" font-family="Tahoma,Geneva,sans-serif" font-weight="bold" fill="rgb(100,100,100)">C</text><circle cx="64.3" cy="25.3" r="4.22" fill="lightgreen" stroke="#ccc" stroke-width="1.55"/><text x="64.3" y="27.4" text-anchor="middle" font-size="5.3" font-family="Tahoma,Geneva,sans-serif" font-weight="bold" fill="rgb(100,100,100)">A</text><circle cx="60.7" cy="39.8" r="4.22" fill="lightgreen" stroke="#ccc" stroke-width="1.55"/><text x="60.7" y="41.9" text-anchor="middle" font-size="5.3" font-family="Tahoma,Geneva,sans-serif" font-weight="bold" fill="rgb(100,100,100)">G</text><circle cx="57.2" cy="54.4" r="4.22" fill="lightgreen" stroke="#ccc" stroke-width="1.55"/><text x="57.2" y="56.5" text-anchor="middle" font-size="5.3" font-family="Tahoma,Geneva,sans-serif" font-weight="bold" fill="rgb(100,100,100)">C</text><circle cx="47.5" cy="65.4" r="4.22" fill="lightblue" stroke="#ccc" stroke-width="1.55"/><text x="47.5" y="67.5" text-anchor="middle" font-size="5.3" font-family="Tahoma,Geneva,sans-serif" font-weight="bold" fill="rgb(100,100,100)">A</text><circle cx="39.7" cy="77.7" r="4.22" fill="lightgreen" stroke="#ccc" stroke-width="1.55"/><text x="39.7" y="79.8" text-anchor="middle" font-size="5.3" font-family="Tahoma,Geneva,sans-serif" font-weight="bold" fill="rgb(100,100,100)">U</text><circle cx="47.8" cy="91.3" r="4.22" fill="lightgreen" stroke="#ccc" stroke-width="1.55"/><text x="47.8" y="93.4" text-anchor="middle" font-size="5.3" font-family="Tahoma,Geneva,sans-serif" font-weight="bold" fill="rgb(100,100,100)">G</text><circle cx="63.2" cy="95.0" r="4.22" fill="lightgreen" stroke="#ccc" stroke-width="1.55"/><text x="63.2" y="97.1" text-anchor="middle" font-size="5.3" font-family="Tahoma,Geneva,sans-serif" font-weight="bold" fill="rgb(100,100,100)">G</text><circle cx="76.6" cy="86.7" r="4.22" fill="lightgreen" stroke="#ccc" stroke-width="1.55"/><text x="76.6" y="88.8" text-anchor="middle" font-size="5.3" font-family="Tahoma,Geneva,sans-serif" font-weight="bold" fill="rgb(100,100,100)">A</text><circle cx="80.2" cy="71.3" r="4.22" fill="lightgreen" stroke="#ccc" stroke-width="1.55"/><text x="80.2" y="73.4" text-anchor="middle" font-size="5.3" font-family="Tahoma,Geneva,sans-serif" font-weight="bold" fill="rgb(100,100,100)">A</text><circle cx="71.8" cy="57.9" r="4.22" fill="lightgreen" stroke="#ccc" stroke-width="1.55"/><text x="71.8" y="60.1" text-anchor="middle" font-size="5.3" font-family="Tahoma,Geneva,sans-serif" font-weight="bold" fill="rgb(100,100,100)">G</text><circle cx="75.3" cy="43.4" r="4.22" fill="lightgreen" stroke="#ccc" stroke-width="1.55"/><text x="75.3" y="45.5" text-anchor="middle" font-size="5.3" font-family="Tahoma,Geneva,sans-serif" font-weight="bold" fill="rgb(100,100,100)">C</text><circle cx="78.9" cy="28.8" r="4.22" fill="lightgreen" stroke="#ccc" stroke-width="1.55"/><text x="78.9" y="30.9" text-anchor="middle" font-size="5.3" font-family="Tahoma,Geneva,sans-serif" font-weight="bold" fill="rgb(100,100,100)">U</text><circle cx="82.4" cy="14.2" r="4.22" fill="lightgreen" stroke="#ccc" stroke-width="1.55"/><text x="82.4" y="16.3" text-anchor="middle" font-size="5.3" font-family="Tahoma,Geneva,sans-serif" font-weight="bold" fill="rgb(100,100,100)">G</text><circle cx="95.5" cy="9.2" r="4.22" fill="#dbdb8d" stroke="#ccc" stroke-width="1.55"/><text x="95.5" y="11.3" text-anchor="middle" font-size="5.3" font-family="Tahoma,Geneva,sans-serif" font-weight="bold" fill="rgb(100,100,100)">A</text><circle cx="85.8" cy="-1.0" r="4.22" fill="lightgreen" stroke="#ccc" stroke-width="1.55"/><text x="85.8" y="1.1" text-anchor="middle" font-size="5.3" font-family="Tahoma,Geneva,sans-serif" font-weight="bold" fill="rgb(100,100,100)">U</text><circle cx="88.7" cy="-15.7" r="4.22" fill="lightgreen" stroke="#ccc" stroke-width="1.55"/><text x="88.7" y="-13.6" text-anchor="middle" font-size="5.3" font-family="Tahoma,Geneva,sans-serif" font-weight="bold" fill="rgb(100,100,100)">U</text><circle cx="91.7" cy="-30.4" r="4.22" fill="lightgreen" stroke="#ccc" stroke-width="1.55"/><text x="91.7" y="-28.3" text-anchor="middle" font-size="5.3" font-family="Tahoma,Geneva,sans-serif" font-weight="bold" fill="rgb(100,100,100)">G</text><circle cx="94.7" cy="-45.1" r="4.22" fill="lightgreen" stroke="#ccc" stroke-width="1.55"/><text x="94.7" y="-43.0" text-anchor="middle" font-size="5.3" font-family="Tahoma,Geneva,sans-serif" font-weight="bold" fill="rgb(100,100,100)">U</text><circle cx="97.9" cy="-59.8" r="4.22" fill="lightgreen" stroke="#ccc" stroke-width="1.55"/><text x="97.9" y="-57.6" text-anchor="middle" font-size="5.3" font-family="Tahoma,Geneva,sans-serif" font-weight="bold" fill="rgb(100,100,100)">C</text><circle cx="101.5" cy="-74.3" r="4.22" fill="lightgreen" stroke="#ccc" stroke-width="1.55"/><text x="101.5" y="-72.2" text-anchor="middle" font-size="5.3" font-family="Tahoma,Geneva,sans-serif" font-weight="bold" fill="rgb(100,100,100)">A</text><circle cx="105.0" cy="-88.9" r="4.22" fill="lightgreen" stroke="#ccc" stroke-width="1.55"/><text x="105.0" y="-86.8" text-anchor="middle" font-size="5.3" font-family="Tahoma,Geneva,sans-serif" font-weight="bold" fill="rgb(100,100,100)">U</text><circle cx="109.1" cy="-103.3" r="4.22" fill="lightgreen" stroke="#ccc" stroke-width="1.55"/><text x="109.1" y="-101.2" text-anchor="middle" font-size="5.3" font-family="Tahoma,Geneva,sans-serif" font-weight="bold" fill="rgb(100,100,100)">U</text><circle cx="113.8" cy="-117.6" r="4.22" fill="lightgreen" stroke="#ccc" stroke-width="1.55"/><text x="113.8" y="-115.5" text-anchor="middle" font-size="5.3" font-family="Tahoma,Geneva,sans-serif" font-weight="bold" fill="rgb(100,100,100)">C</text><circle cx="118.5" cy="-131.8" r="4.22" fill="lightgreen" stroke="#ccc" stroke-width="1.55"/><text x="118.5" y="-129.7" text-anchor="middle" font-size="5.3" font-family="Tahoma,Geneva,sans-serif" font-weight="bold" fill="rgb(100,100,100)">G</text><circle cx="123.2" cy="-146.1" r="4.22" fill="lightgreen" stroke="#ccc" stroke-width="1.55"/><text x="123.2" y="-144.0" text-anchor="middle" font-size="5.3" font-family="Tahoma,Geneva,sans-serif" font-weight="bold" fill="rgb(100,100,100)">A</text><circle cx="127.9" cy="-160.3" r="4.22" fill="lightgreen" stroke="#ccc" stroke-width="1.55"/><text x="127.9" y="-158.2" text-anchor="middle" font-size="5.3" font-family="Tahoma,Geneva,sans-serif" font-weight="bold" fill="rgb(100,100,100)">C</text><circle cx="132.6" cy="-174.6" r="4.22" fill="lightgreen" stroke="#ccc" stroke-width="1.55"/><text x="132.6" y="-172.5" text-anchor="middle" font-size="5.3" font-family="Tahoma,Geneva,sans-serif" font-weight="bold" fill="rgb(100,100,100)">G</text><circle cx="137.3" cy="-188.8" r="4.22" fill="lightgreen" stroke="#ccc" stroke-width="1.55"/><text x="137.3" y="-186.7" text-anchor="middle" font-size="5.3" font-family="Tahoma,Geneva,sans-serif" font-weight="bold" fill="rgb(100,100,100)">U</text><circle cx="142.0" cy="-203.1" r="4.22" fill="lightgreen" stroke="#ccc" stroke-width="1.55"/><text x="142.0" y="-200.9" text-anchor="middle" font-size="5.3" font-family="Tahoma,Geneva,sans-serif" font-weight="bold" fill="rgb(100,100,100)">A</text><circle cx="146.7" cy="-217.3" r="4.22" fill="lightgreen" stroke="#ccc" stroke-width="1.55"/><text x="146.7" y="-215.2" text-anchor="middle" font-size="5.3" font-family="Tahoma,Geneva,sans-serif" font-weight="bold" fill="rgb(100,100,100)">U</text><circle cx="160.6" cy="-214.5" r="4.22" fill="#dbdb8d" stroke="#ccc" stroke-width="1.55"/><text x="160.6" y="-212.4" text-anchor="middle" font-size="5.3" font-family="Tahoma,Geneva,sans-serif" font-weight="bold" fill="rgb(100,100,100)">C</text><circle cx="164.4" cy="-228.1" r="4.22" fill="#dbdb8d" stroke="#ccc" stroke-width="1.55"/><text x="164.4" y="-226.0" text-anchor="middle" font-size="5.3" font-family="Tahoma,Geneva,sans-serif" font-weight="bold" fill="rgb(100,100,100)">G</text><circle cx="151.1" cy="-232.9" r="4.22" fill="lightgreen" stroke="#ccc" stroke-width="1.55"/><text x="151.1" y="-230.8" text-anchor="middle" font-size="5.3" font-family="Tahoma,Geneva,sans-serif" font-weight="bold" fill="rgb(100,100,100)">G</text><circle cx="154.7" cy="-247.5" r="4.22" fill="lightgreen" stroke="#ccc" stroke-width="1.55"/><text x="154.7" y="-245.3" text-anchor="middle" font-size="5.3" font-family="Tahoma,Geneva,sans-serif" font-weight="bold" fill="rgb(100,100,100)">C</text><circle cx="158.2" cy="-262.0" r="4.22" fill="lightgreen" stroke="#ccc" stroke-width="1.55"/><text x="158.2" y="-259.9" text-anchor="middle" font-size="5.3" font-family="Tahoma,Geneva,sans-serif" font-weight="bold" fill="rgb(100,100,100)">U</text><circle cx="161.8" cy="-276.6" r="4.22" fill="lightgreen" stroke="#ccc" stroke-width="1.55"/><text x="161.8" y="-274.5" text-anchor="middle" font-size="5.3" font-family="Tahoma,Geneva,sans-serif" font-weight="bold" fill="rgb(100,100,100)">G</text><circle cx="165.3" cy="-291.2" r="4.22" fill="lightgreen" stroke="#ccc" stroke-width="1.55"/><text x="165.3" y="-289.1" text-anchor="middle" font-size="5.3" font-family="Tahoma,Geneva,sans-serif" font-weight="bold" fill="rgb(100,100,100)">A</text><circle cx="168.9" cy="-305.8" r="4.22" fill="lightgreen" stroke="#ccc" stroke-width="1.55"/><text x="168.9" y="-303.6" text-anchor="middle" font-size="5.3" font-family="Tahoma,Geneva,sans-serif" font-weight="bold" fill="rgb(100,100,100)">G</text><circle cx="172.4" cy="-320.3" r="4.22" fill="lightgreen" stroke="#ccc" stroke-width="1.55"/><text x="172.4" y="-318.2" text-anchor="middle" font-size="5.3" font-family="Tahoma,Geneva,sans-serif" font-weight="bold" fill="rgb(100,100,100)">C</text><circle cx="185.8" cy="-325.9" r="4.22" fill="lightsalmon" stroke="#ccc" stroke-width="1.55"/><text x="185.8" y="-323.8" text-anchor="middle" font-size="5.3" font-family="Tahoma,Geneva,sans-serif" font-weight="bold" fill="rgb(100,100,100)">A</text><circle cx="197.9" cy="-334.1" r="4.22" fill="lightsalmon" stroke="#ccc" stroke-width="1.55"/><text x="197.9" y="-332.0" text-anchor="middle" font-size="5.3" font-family="Tahoma,Geneva,sans-serif" font-weight="bold" fill="rgb(100,100,100)">A</text><circle cx="208.0" cy="-344.5" r="4.22" fill="lightgreen" stroke="#ccc" stroke-width="1.55"/><text x="208.0" y="-342.4" text-anchor="middle" font-size="5.3" font-family="Tahoma,Geneva,sans-serif" font-weight="bold" fill="rgb(100,100,100)">U</text><circle cx="210.1" cy="-359.6" r="4.22" fill="lightgreen" stroke="#ccc" stroke-width="1.55"/><text x="210.1" y="-357.5" text-anchor="middle" font-size="5.3" font-family="Tahoma,Geneva,sans-serif" font-weight="bold" fill="rgb(100,100,100)">U</text><circle cx="205.8" cy="-374.2" r="4.22" fill="lightgreen" stroke="#ccc" stroke-width="1.55"/><text x="205.8" y="-372.1" text-anchor="middle" font-size="5.3" font-family="Tahoma,Geneva,sans-serif" font-weight="bold" fill="rgb(100,100,100)">C</text><circle cx="195.9" cy="-385.8" r="4.22" fill="lightgreen" stroke="#ccc" stroke-width="1.55"/><text x="195.9" y="-383.7" text-anchor="middle" font-size="5.3" font-family="Tahoma,Geneva,sans-serif" font-weight="bold" fill="rgb(100,100,100)">C</text><circle cx="182.2" cy="-392.4" r="4.22" fill="lightgreen" stroke="#ccc" stroke-width="1.55"/><text x="182.2" y="-390.3" text-anchor="middle" font-size="5.3" font-family="Tahoma,Geneva,sans-serif" font-weight="bold" fill="rgb(100,100,100)">A</text><circle cx="165.8" cy="-389.2" r="4.22" fill="lightsalmon" stroke="#ccc" stroke-width="1.55"/><text x="165.8" y="-387.1" text-anchor="middle" font-size="5.3" font-family="Tahoma,Geneva,sans-serif" font-weight="bold" fill="rgb(100,100,100)">A</text><circle cx="149.5" cy="-386.0" r="4.22" fill="lightsalmon" stroke="#ccc" stroke-width="1.55"/><text x="149.5" y="-383.9" text-anchor="middle" font-size="5.3" font-family="Tahoma,Geneva,sans-serif" font-weight="bold" fill="rgb(100,100,100)">A</text></svg>