<svg xmlns="http://www.w3.org/2000/svg" viewBox="-172.4 -243.9 449.2 281.8" width="449" height="282"><style></style><line x1="-101.2" y1="-105.0" x2="-101.5" y2="-90.0" stroke="#999" stroke-width="1.64" stroke-opacity="0.8"/><line x1="-86.2" y1="-104.7" x2="-86.5" y2="-89.7" stroke="#999" stroke-width="1.64" stroke-opacity="0.8"/><line x1="-71.2" y1="-104.4" x2="-71.5" y2="-89.4" stroke="#999" stroke-width="1.64" stroke-opacity="0.8"/><line x1="-56.2" y1="-104.4" x2="-55.9" y2="-89.4" stroke="#999" stroke-width="1.64" stroke-opacity="0.8"/><line x1="-41.2" y1="-104.7" x2="-40.9" y2="-89.7" stroke="#999" stroke-width="1.64" stroke-opacity="0.8"/><line x1="-26.2" y1="-105.0" x2="-25.9" y2="-90.0" stroke="#999" stroke-width="1.64" stroke-opacity="0.8"/><line x1="-11.2" y1="-105.3" x2="-10.9" y2="-90.3" stroke="#999" stroke-width="1.64" stroke-opacity="0.8"/><line x1="3.8" y1="-105.6" x2="4.1" y2="-90.6" stroke="#999" stroke-width="1.64" stroke-opacity="0.8"/><line x1="18.8" y1="-105.9" x2="19.1" y2="-90.9" stroke="#999" stroke-width="1.64" stroke-opacity="0.8"/><line x1="45.3" y1="-106.4" x2="45.6" y2="-91.4" stroke="#999" stroke-width="1.64" stroke-opacity="0.8"/><line x1="60.3" y1="-106.7" x2="60.6" y2="-91.7" stroke="#999" stroke-width="1.64" stroke-opacity="0.8"/><line x1="-128.5" y1="-79.0" x2="72.4" y2="-70.7" stroke="#d9534f" stroke-width="1.64" stroke-opacity="0.6"/><line x1="-139.6" y1="-90.3" x2="82.5" y2="-63.7" stroke="#d9534f" stroke-width="1.64" stroke-opacity="0.6"/><line x1="-139.2" y1="-106.1" x2="94.1" y2="-60.1" stroke="#d9534f" stroke-width="1.64" stroke-opacity="0.6"/><line x1="-127.8" y1="-117.0" x2="106.4" y2="-60.2" stroke="#d9534f" stroke-width="1.64" stroke-opacity="0.6"/><line x1="-112.0" y1="-116.6" x2="118.0" y2="-64.0" stroke="#d9534f" stroke-width="1.64" stroke-opacity="0.6"/><line x1="213.6" y1="-10.3" x2="222.3" y2="-22.5" stroke="#999" stroke-width="1.64" stroke-opacity="0.8"/><line x1="201.4" y1="-19.0" x2="210.1" y2="-31.2" stroke="#999" stroke-width="1.64" stroke-opacity="0.8"/><line x1="189.2" y1="-27.6" x2="197.8" y2="-39.9" stroke="#999" stroke-width="1.64" stroke-opacity="0.8"/><line x1="176.9" y1="-36.3" x2="185.6" y2="-48.6" stroke="#999" stroke-width="1.64" stroke-opacity="0.8"/><line x1="164.7" y1="-45.0" x2="173.4" y2="-57.2" stroke="#999" stroke-width="1.64" stroke-opacity="0.8"/><line x1="152.4" y1="-53.7" x2="161.1" y2="-65.9" stroke="#999" stroke-width="1.64" stroke-opacity="0.8"/><line x1="140.2" y1="-62.3" x2="148.9" y2="-74.6" stroke="#999" stroke-width="1.64" stroke-opacity="0.8"/><line x1="128.0" y1="-71.0" x2="136.6" y2="-83.2" stroke="#999" stroke-width="1.64" stroke-opacity="0.8"/><line x1="168.2" y1="-173.0" x2="156.5" y2="-182.4" stroke="#999" stroke-width="1.64" stroke-opacity="0.8"/><line x1="158.8" y1="-161.3" x2="147.1" y2="-170.7" stroke="#999" stroke-width="1.64" stroke-opacity="0.8"/><line x1="149.4" y1="-149.6" x2="137.7" y2="-159.0" stroke="#999" stroke-width="1.64" stroke-opacity="0.8"/><line x1="140.0" y1="-137.9" x2="128.3" y2="-147.3" stroke="#999" stroke-width="1.64" stroke-opacity="0.8"/><line x1="130.6" y1="-126.2" x2="118.9" y2="-135.6" stroke="#999" stroke-width="1.64" stroke-opacity="0.8"/><line x1="105.1" y1="-152.5" x2="91.6" y2="-142.1" stroke="#999" stroke-width="1.64" stroke-opacity="0.8"/><line x1="91.6" y1="-142.1" x2="78.0" y2="-132.7" stroke="#999" stroke-width="1.64" stroke-opacity="0.8"/><line x1="78.0" y1="-132.7" x2="66.4" y2="-121.5" stroke="#999" stroke-width="1.64" stroke-opacity="0.8"/><line x1="66.4" y1="-121.5" x2="60.3" y2="-106.7" stroke="#999" stroke-width="1.64" stroke-opacity="0.8"/><line x1="60.3" y1="-106.7" x2="45.3" y2="-106.4" stroke="#999" stroke-width="1.64" stroke-opacity="0.8"/><line x1="45.3" y1="-106.4" x2="31.9" y2="-113.0" stroke="#999" stroke-width="1.64" stroke-opacity="0.8"/><line x1="31.9" y1="-113.0" x2="18.8" y2="-105.9" stroke="#999" stroke-width="1.64" stroke-opacity="0.8"/><line x1="18.8" y1="-105.9" x2="3.8" y2="-105.6" stroke="#999" stroke-width="1.64" stroke-opacity="0.8"/><line x1="3.8" y1="-105.6" x2="-11.2" y2="-105.3" stroke="#999" stroke-width="1.64" stroke-opacity="0.8"/><line x1="-11.2" y1="-105.3" x2="-26.2" y2="-105.0" stroke="#999" stroke-width="1.64" stroke-opacity="0.8"/><line x1="-26.2" y1="-105.0" x2="-41.2" y2="-104.7" stroke="#999" stroke-width="1.64" stroke-opacity="0.8"/><line x1="-41.2" y1="-104.7" x2="-56.2" y2="-104.4" stroke="#999" stroke-width="1.64" stroke-opacity="0.8"/><line x1="-56.2" y1="-104.4" x2="-71.2" y2="-104.4" stroke="#999" stroke-width="1.64" stroke-opacity="0.8"/><line x1="-71.2" y1="-104.4" x2="-86.2" y2="-104.7" stroke="#999" stroke-width="1.64" stroke-opacity="0.8"/><line x1="-86.2" y1="-104.7" x2="-101.2" y2="-105.0" stroke="#999" stroke-width="1.64" stroke-opacity="0.8"/><line x1="-101.2" y1="-105.0" x2="-112.0" y2="-116.6" stroke="#999" stroke-width="1.64" stroke-opacity="0.8"/><line x1="-112.0" y1="-116.6" x2="-127.8" y2="-117.0" stroke="#999" stroke-width="1.64" stroke-opacity="0.8"/><line x1="-127.8" y1="-117.0" x2="-139.2" y2="-106.1" stroke="#999" stroke-width="1.64" stroke-opacity="0.8"/><line x1="-139.2" y1="-106.1" x2="-139.6" y2="-90.3" stroke="#999" stroke-width="1.64" stroke-opacity="0.8"/><line x1="-139.6" y1="-90.3" x2="-128.5" y2="-79.0" stroke="#999" stroke-width="1.64" stroke-opacity="0.8"/><line x1="-128.5" y1="-79.0" x2="-113.7" y2="-81.3" stroke="#999" stroke-width="1.64" stroke-opacity="0.8"/><line x1="-113.7" y1="-81.3" x2="-101.5" y2="-90.0" stroke="#999" stroke-width="1.64" stroke-opacity="0.8"/><line x1="-101.5" y1="-90.0" x2="-86.5" y2="-89.7" stroke="#999" stroke-width="1.64" stroke-opacity="0.8"/><line x1="-86.5" y1="-89.7" x2="-71.5" y2="-89.4" stroke="#999" stroke-width="1.64" stroke-opacity="0.8"/><line x1="-71.5" y1="-89.4" x2="-63.7" y2="-76.7" stroke="#999" stroke-width="1.64" stroke-opacity="0.8"/><line x1="-63.7" y1="-76.7" x2="-55.9" y2="-89.4" stroke="#999" stroke-width="1.64" stroke-opacity="0.8"/><line x1="-55.9" y1="-89.4" x2="-40.9" y2="-89.7" stroke="#999" stroke-width="1.64" stroke-opacity="0.8"/><line x1="-40.9" y1="-89.7" x2="-25.9" y2="-90.0" stroke="#999" stroke-width="1.64" stroke-opacity="0.8"/><line x1="-25.9" y1="-90.0" x2="-10.9" y2="-90.3" stroke="#999" stroke-width="1.64" stroke-opacity="0.8"/><line x1="-10.9" y1="-90.3" x2="4.1" y2="-90.6" stroke="#999" stroke-width="1.64" stroke-opacity="0.8"/><line x1="4.1" y1="-90.6" x2="19.1" y2="-90.9" stroke="#999" stroke-width="1.64" stroke-opacity="0.8"/><line x1="19.1" y1="-90.9" x2="32.5" y2="-84.3" stroke="#999" stroke-width="1.64" stroke-opacity="0.8"/><line x1="32.5" y1="-84.3" x2="45.6" y2="-91.4" stroke="#999" stroke-width="1.64" stroke-opacity="0.8"/><line x1="45.6" y1="-91.4" x2="60.6" y2="-91.7" stroke="#999" stroke-width="1.64" stroke-opacity="0.8"/><line x1="60.6" y1="-91.7" x2="59.3" y2="-76.6" stroke="#999" stroke-width="1.64" stroke-opacity="0.8"/><line x1="59.3" y1="-76.6" x2="72.4" y2="-70.7" stroke="#999" stroke-width="1.64" stroke-opacity="0.8"/><line x1="72.4" y1="-70.7" x2="82.5" y2="-63.7" stroke="#999" stroke-width="1.64" stroke-opacity="0.8"/><line x1="82.5" y1="-63.7" x2="94.1" y2="-60.1" stroke="#999" stroke-width="1.64" stroke-opacity="0.8"/><line x1="94.1" y1="-60.1" x2="106.4" y2="-60.2" stroke="#999" stroke-width="1.64" stroke-opacity="0.8"/><line x1="106.4" y1="-60.2" x2="118.0" y2="-64.0" stroke="#999" stroke-width="1.64" stroke-opacity="0.8"/><line x1="118.0" y1="-64.0" x2="128.0" y2="-71.0" stroke="#999" stroke-width="1.64" stroke-opacity="0.8"/><line x1="128.0" y1="-71.0" x2="140.2" y2="-62.3" stroke="#999" stroke-width="1.64" stroke-opacity="0.8"/><line x1="140.2" y1="-62.3" x2="152.4" y2="-53.7" stroke="#999" stroke-width="1.64" stroke-opacity="0.8"/><line x1="152.4" y1="-53.7" x2="164.7" y2="-45.0" stroke="#999" stroke-width="1.64" stroke-opacity="0.8"/><line x1="164.7" y1="-45.0" x2="176.9" y2="-36.3" stroke="#999" stroke-width="1.64" stroke-opacity="0.8"/><line x1="176.9" y1="-36.3" x2="189.2" y2="-27.6" stroke="#999" stroke-width="1.64" stroke-opacity="0.8"/><line x1="189.2" y1="-27.6" x2="201.4" y2="-19.0" stroke="#999" stroke-width="1.64" stroke-opacity="0.8"/><line x1="201.4" y1="-19.0" x2="213.6" y2="-10.3" stroke="#999" stroke-width="1.64" stroke-opacity="0.8"/><line x1="213.6" y1="-10.3" x2="220.7" y2="2.8" stroke="#999" stroke-width="1.64" stroke-opacity="0.8"/><line x1="220.7" y1="2.8" x2="235.4" y2="5.1" stroke="#999" stroke-width="1.64" stroke-opacity="0.8"/><line x1="235.4" y1="5.1" x2="244.1" y2="-7.1" stroke="#999" stroke-width="1.64" stroke-opacity="0.8"/><line x1="244.1" y1="-7.1" x2="237.0" y2="-20.2" stroke="#999" stroke-width="1.64" stroke-opacity="0.8"/><line x1="237.0" y1="-20.2" x2="222.3" y2="-22.5" stroke="#999" stroke-width="1.64" stroke-opacity="0.8"/><line x1="222.3" y1="-22.5" x2="210.1" y2="-31.2" stroke="#999" stroke-width="1.64" stroke-opacity="0.8"/><line x1="210.1" y1="-31.2" x2="197.8" y2="-39.9" stroke="#999" stroke-width="1.64" stroke-opacity="0.8"/><line x1="197.8" y1="-39.9" x2="185.6" y2="-48.6" stroke="#999" stroke-width="1.64" stroke-opacity="0.8"/><line x1="185.6" y1="-48.6" x2="173.4" y2="-57.2" stroke="#999" stroke-width="1.64" stroke-opacity="0.8"/><line x1="173.4" y1="-57.2" x2="161.1" y2="-65.9" stroke="#999" stroke-width="1.64" stroke-opacity="0.8"/><line x1="161.1" y1="-65.9" x2="148.9" y2="-74.6" stroke="#999" stroke-width="1.64" stroke-opacity="0.8"/><line x1="148.9" y1="-74.6" x2="136.6" y2="-83.2" stroke="#999" stroke-width="1.64" stroke-opacity="0.8"/><line x1="136.6" y1="-83.2" x2="133.6" y2="-104.7" stroke="#999" stroke-width="1.64" stroke-opacity="0.8"/><line x1="133.6" y1="-104.7" x2="130.6" y2="-126.2" stroke="#999" stroke-width="1.64" stroke-opacity="0.8"/><line x1="130.6" y1="-126.2" x2="140.0" y2="-137.9" stroke="#999" stroke-width="1.64" stroke-opacity="0.8"/><line x1="140.0" y1="-137.9" x2="149.4" y2="-149.6" stroke="#999" stroke-width="1.64" stroke-opacity="0.8"/><line x1="149.4" y1="-149.6" x2="158.8" y2="-161.3" stroke="#999" stroke-width="1.64" stroke-opacity="0.8"/><line x1="158.8" y1="-161.3" x2="168.2" y2="-173.0" stroke="#999" stroke-width="1.64" stroke-opacity="0.8"/><line x1="168.2" y1="-173.0" x2="182.8" y2="-175.6" stroke="#999" stroke-width="1.64" stroke-opacity="0.8"/><line x1="182.8" y1="-175.6" x2="192.5" y2="-186.9" stroke="#999" stroke-width="1.64" stroke-opacity="0.8"/><line x1="192.5" y1="-186.9" x2="191.2" y2="-201.8" stroke="#999" stroke-width="1.64" stroke-opacity="0.8"/><line x1="191.2" y1="-201.8" x2="179.5" y2="-211.1" stroke="#999" stroke-width="1.64" stroke-opacity="0.8"/><line x1="179.5" y1="-211.1" x2="164.8" y2="-209.2" stroke="#999" stroke-width="1.64" stroke-opacity="0.8"/><line x1="164.8" y1="-209.2" x2="155.8" y2="-197.3" stroke="#999" stroke-width="1.64" stroke-opacity="0.8"/><line x1="155.8" y1="-197.3" x2="156.5" y2="-182.4" stroke="#999" stroke-width="1.64" stroke-opacity="0.8"/><line x1="156.5" y1="-182.4" x2="147.1" y2="-170.7" stroke="#999" stroke-width="1.64" stroke-opacity="0.8"/><line x1="147.1" y1="-170.7" x2="137.7" y2="-159.0" stroke="#999" stroke-width="1.64" stroke-opacity="0.8"/><line x1="137.7" y1="-159.0" x2="128.3" y2="-147.3" stroke="#999" stroke-width="1.64" stroke-opacity="0.8"/><line x1="128.3" y1="-147.3" x2="118.9" y2="-135.6" stroke="#999" stroke-width="1.64" stroke-opacity="0.8"/><text x="94.2" y="-164.0" text-anchor="middle" font-size="7.8" font-family="Tahoma,Geneva,sans-serif" fill="#999">1</text><text x="-11.6" y="-120.5" text-anchor="middle" font-size="7.8" font-family="Tahoma,Geneva,sans-serif" fill="#999">10</text><text x="-156.2" y="-81.1" text-anchor="middle" font-size="7.8" font-family="Tahoma,Geneva,sans-serif" fill="#999">20</text><text x="-10.6" y="-69.7" text-anchor="middle" font-size="7.8" font-family="Tahoma,Geneva,sans-serif" fill="#999">30</text><text x="109.2" y="-39.8" text-anchor="middle" font-size="7.8" font-family="Tahoma,Geneva,sans-serif" fill="#999">40</text><text x="210.4" y="20.2" text-anchor="middle" font-size="7.8" font-family="Tahoma,Geneva,sans-serif" fill="#999">50</text><text x="159.2" y="-86.5" text-anchor="middle" font-size="7.8" font-family="Tahoma,Geneva,sans-serif" fill="#999">60</text><text x="206.9" y="-207.5" text-anchor="middle" font-size="7.8" font-family="Tahoma,Geneva,sans-serif" fill="#999">70</text><circle cx="105.1" cy="-152.5" r="4.47" fill="lightsalmon" stroke="#ccc" stroke-width="1.64"/><text x="105.1" y="-150.3" text-anchor="middle" font-size="5.6" font-family="Tahoma,Geneva,sans-serif" font-weight="bold" fill="rgb(100,100,100)">C</text><circle cx="91.6" cy="-142.1" r="4.47" fill="lightsalmon" stroke="#ccc" stroke-width="1.64"/><text x="91.6" y="-139.9" text-anchor="middle" font-size="5.6" font-family="Tahoma,Geneva,sans-serif" font-weight="bold" fill="rgb(100,100,100)">A</text><circle cx="78.0" cy="-132.7" r="4.47" fill="lightsalmon" stroke="#ccc" stroke-width="1.64"/><text x="78.0" y="-130.4" text-anchor="middle" font-size="5.6" font-family="Tahoma,Geneva,sans-serif" font-weight="bold" fill="rgb(100,100,100)">U</text><circle cx="66.4" cy="-121.5" r="4.47" fill="lightsalmon" stroke="#ccc" stroke-width="1.64"/><text x="66.4" y="-119.2" text-anchor="middle" font-size="5.6" font-family="Tahoma,Geneva,sans-serif" font-weight="bold" fill="rgb(100,100,100)">U</text><circle cx="60.3" cy="-106.7" r="4.47" fill="lightgreen" stroke="#ccc" stroke-width="1.64"/><text x="60.3" y="-104.5" text-anchor="middle" font-size="5.6" font-family="Tahoma,Geneva,sans-serif" font-weight="bold" fill="rgb(100,100,100)">U</text><circle cx="45.3" cy="-106.4" r="4.47" fill="lightgreen" stroke="#ccc" stroke-width="1.64"/><text x="45.3" y="-104.2" text-anchor="middle" font-size="5.6" font-family="Tahoma,Geneva,sans-serif" font-weight="bold" fill="rgb(100,100,100)">C</text><circle cx="31.9" cy="-113.0" r="4.47" fill="#dbdb8d" stroke="#ccc" stroke-width="1.64"/><text x="31.9" y="-110.7" text-anchor="middle" font-size="5.6" font-family="Tahoma,Geneva,sans-serif" font-weight="bold" fill="rgb(100,100,100)">G</text><circle cx="18.8" cy="-105.9" r="4.47" fill="lightgreen" stroke="#ccc" stroke-width="1.64"/><text x="18.8" y="-103.6" text-anchor="middle" font-size="5.6" font-family="Tahoma,Geneva,sans-serif" font-weight="bold" fill="rgb(100,100,100)">U</text><circle cx="3.8" cy="-105.6" r="4.47" fill="lightgreen" stroke="#ccc" stroke-width="1.64"/><text x="3.8" y="-103.4" text-anchor="middle" font-size="5.6" font-family="Tahoma,Geneva,sans-serif" font-weight="bold" fill="rgb(100,100,100)">U</text><circle cx="-11.2" cy="-105.3" r="4.47" fill="lightgreen" stroke="#ccc" stroke-width="1.64"/><text x="-11.2" y="-103.1" text-anchor="middle" font-size="5.6" font-family="Tahoma,Geneva,sans-serif" font-weight="bold" fill="rgb(100,100,100)">A</text><circle cx="-26.2" cy="-105.0" r="4.47" fill="lightgreen" stroke="#ccc" stroke-width="1.64"/><text x="-26.2" y="-102.8" text-anchor="middle" font-size="5.6" font-family="Tahoma,Geneva,sans-serif" font-weight="bold" fill="rgb(100,100,100)">A</text><circle cx="-41.2" cy="-104.7" r="4.47" fill="lightgreen" stroke="#ccc" stroke-width="1.64"/><text x="-41.2" y="-102.5" text-anchor="middle" font-size="5.6" font-family="Tahoma,Geneva,sans-serif" font-weight="bold" fill="rgb(100,100,100)">C</text><circle cx="-56.2" cy="-104.4" r="4.47" fill="lightgreen" stroke="#ccc" stroke-width="1.64"/><text x="-56.2" y="-102.2" text-anchor="middle" font-size="5.6" font-family="Tahoma,Geneva,sans-serif" font-weight="bold" fill="rgb(100,100,100)">A</text><circle cx="-71.2" cy="-104.4" r="4.47" fill="lightgreen" stroke="#ccc" stroke-width="1.64"/><text x="-71.2" y="-102.2" text-anchor="middle" font-size="5.6" font-family="Tahoma,Geneva,sans-serif" font-weight="bold" fill="rgb(100,100,100)">A</text><circle cx="-86.2" cy="-104.7" r="4.47" fill="lightgreen" stroke="#ccc" stroke-width="1.64"/><text x="-86.2" y="-102.5" text-anchor="middle" font-size="5.6" font-family="Tahoma,Geneva,sans-serif" font-weight="bold" fill="rgb(100,100,100)">G</text><circle cx="-101.2" cy="-105.0" r="4.47" fill="lightgreen" stroke="#ccc" stroke-width="1.64"/><text x="-101.2" y="-102.8" text-anchor="middle" font-size="5.6" font-family="Tahoma,Geneva,sans-serif" font-weight="bold" fill="rgb(100,100,100)">U</text><circle cx="-112.0" cy="-116.6" r="4.47" fill="lightgreen" stroke="#ccc" stroke-width="1.64"/><text x="-112.0" y="-114.3" text-anchor="middle" font-size="5.6" font-family="Tahoma,Geneva,sans-serif" font-weight="bold" fill="rgb(100,100,100)">U</text><circle cx="-127.8" cy="-117.0" r="4.47" fill="lightgreen" stroke="#ccc" stroke-width="1.64"/><text x="-127.8" y="-114.8" text-anchor="middle" font-size="5.6" font-family="Tahoma,Geneva,sans-serif" font-weight="bold" fill="rgb(100,100,100)">U</text><circle cx="-139.2" cy="-106.1" r="4.47" fill="lightgreen" stroke="#ccc" stroke-width="1.64"/><text x="-139.2" y="-103.9" text-anchor="middle" font-size="5.6" font-family="Tahoma,Geneva,sans-serif" font-weight="bold" fill="rgb(100,100,100)">C</text><circle cx="-139.6" cy="-90.3" r="4.47" fill="lightgreen" stroke="#ccc" stroke-width="1.64"/><text x="-139.6" y="-88.1" text-anchor="middle" font-size="5.6" font-family="Tahoma,Geneva,sans-serif" font-weight="bold" fill="rgb(100,100,100)">A</text><circle cx="-128.5" cy="-79.0" r="4.47" fill="lightgreen" stroke="#ccc" stroke-width="1.64"/><text x="-128.5" y="-76.8" text-anchor="middle" font-size="5.6" font-family="Tahoma,Geneva,sans-serif" font-weight="bold" fill="rgb(100,100,100)">A</text><circle cx="-113.7" cy="-81.3" r="4.47" fill="lightblue" stroke="#ccc" stroke-width="1.64"/><text x="-113.7" y="-79.1" text-anchor="middle" font-size="5.6" font-family="Tahoma,Geneva,sans-serif" font-weight="bold" fill="rgb(100,100,100)">U</text><circle cx="-101.5" cy="-90.0" r="4.47" fill="lightgreen" stroke="#ccc" stroke-width="1.64"/><text x="-101.5" y="-87.8" text-anchor="middle" font-size="5.6" font-family="Tahoma,Geneva,sans-serif" font-weight="bold" fill="rgb(100,100,100)">A</text><circle cx="-86.5" cy="-89.7" r="4.47" fill="lightgreen" stroke="#ccc" stroke-width="1.64"/><text x="-86.5" y="-87.5" text-anchor="middle" font-size="5.6" font-family="Tahoma,Geneva,sans-serif" font-weight="bold" fill="rgb(100,100,100)">C</text><circle cx="-71.5" cy="-89.4" r="4.47" fill="lightgreen" stroke="#ccc" stroke-width="1.64"/><text x="-71.5" y="-87.2" text-anchor="middle" font-size="5.6" font-family="Tahoma,Geneva,sans-serif" font-weight="bold" fill="rgb(100,100,100)">U</text><circle cx="-63.7" cy="-76.7" r="4.47" fill="#dbdb8d" stroke="#ccc" stroke-width="1.64"/><text x="-63.7" y="-74.5" text-anchor="middle" font-size="5.6" font-family="Tahoma,Geneva,sans-serif" font-weight="bold" fill="rgb(100,100,100)">U</text><circle cx="-55.9" cy="-89.4" r="4.47" fill="lightgreen" stroke="#ccc" stroke-width="1.64"/><text x="-55.9" y="-87.2" text-anchor="middle" font-size="5.6" font-family="Tahoma,Geneva,sans-serif" font-weight="bold" fill="rgb(100,100,100)">U</text><circle cx="-40.9" cy="-89.7" r="4.47" fill="lightgreen" stroke="#ccc" stroke-width="1.64"/><text x="-40.9" y="-87.5" text-anchor="middle" font-size="5.6" font-family="Tahoma,Geneva,sans-serif" font-weight="bold" fill="rgb(100,100,100)">G</text><circle cx="-25.9" cy="-90.0" r="4.47" fill="lightgreen" stroke="#ccc" stroke-width="1.64"/><text x="-25.9" y="-87.8" text-anchor="middle" font-size="5.6" font-family="Tahoma,Geneva,sans-serif" font-weight="bold" fill="rgb(100,100,100)">U</text><circle cx="-10.9" cy="-90.3" r="4.47" fill="lightgreen" stroke="#ccc" stroke-width="1.64"/><text x="-10.9" y="-88.1" text-anchor="middle" font-size="5.6" font-family="Tahoma,Geneva,sans-serif" font-weight="bold" fill="rgb(100,100,100)">U</text><circle cx="4.1" cy="-90.6" r="4.47" fill="lightgreen" stroke="#ccc" stroke-width="1.64"/><text x="4.1" y="-88.4" text-anchor="middle" font-size="5.6" font-family="Tahoma,Geneva,sans-serif" font-weight="bold" fill="rgb(100,100,100)">A</text><circle cx="19.1" cy="-90.9" r="4.47" fill="lightgreen" stroke="#ccc" stroke-width="1.64"/><text x="19.1" y="-88.7" text-anchor="middle" font-size="5.6" font-family="Tahoma,Geneva,sans-serif" font-weight="bold" fill="rgb(100,100,100)">A</text><circle cx="32.5" cy="-84.3" r="4.47" fill="#dbdb8d" stroke="#ccc" stroke-width="1.64"/><text x="32.5" y="-82.1" text-anchor="middle" font-size="5.6" font-family="Tahoma,Geneva,sans-serif" font-weight="bold" fill="rgb(100,100,100)">G</text><circle cx="45.6" cy="-91.4" r="4.47" fill="lightgreen" stroke="#ccc" stroke-width="1.64"/><text x="45.6" y="-89.2" text-anchor="middle" font-size="5.6" font-family="Tahoma,Geneva,sans-serif" font-weight="bold" fill="rgb(100,100,100)">G</text><circle cx="60.6" cy="-91.7" r="4.47" fill="lightgreen" stroke="#ccc" stroke-width="1.64"/><text x="60.6" y="-89.5" text-anchor="middle" font-size="5.6" font-family="Tahoma,Geneva,sans-serif" font-weight="bold" fill="rgb(100,100,100)">A</text><circle cx="59.3" cy="-76.6" r="4.47" fill="lightsalmon" stroke="#ccc" stroke-width="1.64"/><text x="59.3" y="-74.3" text-anchor="middle" font-size="5.6" font-family="Tahoma,Geneva,sans-serif" font-weight="bold" fill="rgb(100,100,100)">U</text><circle cx="72.4" cy="-70.7" r="4.47" fill="lightgreen" stroke="#ccc" stroke-width="1.64"/><text x="72.4" y="-68.4" text-anchor="middle" font-size="5.6" font-family="Tahoma,Geneva,sans-serif" font-weight="bold" fill="rgb(100,100,100)">U</text><circle cx="82.5" cy="-63.7" r="4.47" fill="lightgreen" stroke="#ccc" stroke-width="1.64"/><text x="82.5" y="-61.5" text-anchor="middle" font-size="5.6" font-family="Tahoma,Geneva,sans-serif" font-weight="bold" fill="rgb(100,100,100)">U</text><circle cx="94.1" cy="-60.1" r="4.47" fill="lightgreen" stroke="#ccc" stroke-width="1.64"/><text x="94.1" y="-57.9" text-anchor="middle" font-size="5.6" font-family="Tahoma,Geneva,sans-serif" font-weight="bold" fill="rgb(100,100,100)">G</text><circle cx="106.4" cy="-60.2" r="4.47" fill="lightgreen" stroke="#ccc" stroke-width="1.64"/><text x="106.4" y="-58.0" text-anchor="middle" font-size="5.6" font-family="Tahoma,Geneva,sans-serif" font-weight="bold" fill="rgb(100,100,100)">A</text><circle cx="118.0" cy="-64.0" r="4.47" fill="lightgreen" stroke="#ccc" stroke-width="1.64"/><text x="118.0" y="-61.7" text-anchor="middle" font-size="5.6" font-family="Tahoma,Geneva,sans-serif" font-weight="bold" fill="rgb(100,100,100)">A</text><circle cx="128.0" cy="-71.0" r="4.47" fill="lightgreen" stroke="#ccc" stroke-width="1.64"/><text x="128.0" y="-68.8" text-anchor="middle" font-size="5.6" font-family="Tahoma,Geneva,sans-serif" font-weight="bold" fill="rgb(100,100,100)">C</text><circle cx="140.2" cy="-62.3" r="4.47" fill="lightgreen" stroke="#ccc" stroke-width="1.64"/><text x="140.2" y="-60.1" text-anchor="middle" font-size="5.6" font-family="Tahoma,Geneva,sans-serif" font-weight="bold" fill="rgb(100,100,100)">C</text><circle cx="152.4" cy="-53.7" r="4.47" fill="lightgreen" stroke="#ccc" stroke-width="1.64"/><text x="152.4" y="-51.4" text-anchor="middle" font-size="5.6" font-family="Tahoma,Geneva,sans-serif" font-weight="bold" fill="rgb(100,100,100)">A</text><circle cx="164.7" cy="-45.0" r="4.47" fill="lightgreen" stroke="#ccc" stroke-width="1.64"/><text x="164.7" y="-42.7" text-anchor="middle" font-size="5.6" font-family="Tahoma,Geneva,sans-serif" font-weight="bold" fill="rgb(100,100,100)">U</text><circle cx="176.9" cy="-36.3" r="4.47" fill="lightgreen" stroke="#ccc" stroke-width="1.64"/><text x="176.9" y="-34.1" text-anchor="middle" font-size="5.6" font-family="Tahoma,Geneva,sans-serif" font-weight="bold" fill="rgb(100,100,100)">G</text><circle cx="189.2" cy="-27.6" r="4.47" fill="lightgreen" stroke="#ccc" stroke-width="1.64"/><text x="189.2" y="-25.4" text-anchor="middle" font-size="5.6" font-family="Tahoma,Geneva,sans-serif" font-weight="bold" fill="rgb(100,100,100)">C</text><circle cx="201.4" cy="-19.0" r="4.47" fill="lightgreen" stroke="#ccc" stroke-width="1.64"/><text x="201.4" y="-16.7" text-anchor="middle" font-size="5.6" font-family="Tahoma,Geneva,sans-serif" font-weight="bold" fill="rgb(100,100,100)">G</text><circle cx="213.6" cy="-10.3" r="4.47" fill="lightgreen" stroke="#ccc" stroke-width="1.64"/><text x="213.6" y="-8.1" text-anchor="middle" font-size="5.6" font-family="Tahoma,Geneva,sans-serif" font-weight="bold" fill="rgb(100,100,100)">A</text><circle cx="220.7" cy="2.8" r="4.47" fill="lightblue" stroke="#ccc" stroke-width="1.64"/><text x="220.7" y="5.1" text-anchor="middle" font-size="5.6" font-family="Tahoma,Geneva,sans-serif" font-weight="bold" fill="rgb(100,100,100)">G</text><circle cx="235.4" cy="5.1" r="4.47" fill="lightblue" stroke="#ccc" stroke-width="1.64"/><text x="235.4" y="7.3" text-anchor="middle" font-size="5.6" font-family="Tahoma,Geneva,sans-serif" font-weight="bold" fill="rgb(100,100,100)">A</text><circle cx="244.1" cy="-7.1" r="4.47" fill="lightblue" stroke="#ccc" stroke-width="1.64"/><text x="244.1" y="-4.8" text-anchor="middle" font-size="5.6" font-family="Tahoma,Geneva,sans-serif" font-weight="bold" fill="rgb(100,100,100)">U</text><circle cx="237.0" cy="-20.2" r="4.47" fill="lightblue" stroke="#ccc" stroke-width="1.64"/><text x="237.0" y="-18.0" text-anchor="middle" font-size="5.6" font-family="Tahoma,Geneva,sans-serif" font-weight="bold" fill="rgb(100,100,100)">U</text><circle cx="222.3" cy="-22.5" r="4.47" fill="lightgreen" stroke="#ccc" stroke-width="1.64"/><text x="222.3" y="-20.3" text-anchor="middle" font-size="5.6" font-family="Tahoma,Geneva,sans-serif" font-weight="bold" fill="rgb(100,100,100)">U</text><circle cx="210.1" cy="-31.2" r="4.47" fill="lightgreen" stroke="#ccc" stroke-width="1.64"/><text x="210.1" y="-29.0" text-anchor="middle" font-size="5.6" font-family="Tahoma,Geneva,sans-serif" font-weight="bold" fill="rgb(100,100,100)">C</text><circle cx="197.8" cy="-39.9" r="4.47" fill="lightgreen" stroke="#ccc" stroke-width="1.64"/><text x="197.8" y="-37.6" text-anchor="middle" font-size="5.6" font-family="Tahoma,Geneva,sans-serif" font-weight="bold" fill="rgb(100,100,100)">G</text><circle cx="185.6" cy="-48.6" r="4.47" fill="lightgreen" stroke="#ccc" stroke-width="1.64"/><text x="185.6" y="-46.3" text-anchor="middle" font-size="5.6" font-family="Tahoma,Geneva,sans-serif" font-weight="bold" fill="rgb(100,100,100)">C</text><circle cx="173.4" cy="-57.2" r="4.47" fill="lightgreen" stroke="#ccc" stroke-width="1.64"/><text x="173.4" y="-55.0" text-anchor="middle" font-size="5.6" font-family="Tahoma,Geneva,sans-serif" font-weight="bold" fill="rgb(100,100,100)">A</text><circle cx="161.1" cy="-65.9" r="4.47" fill="lightgreen" stroke="#ccc" stroke-width="1.64"/><text x="161.1" y="-63.7" text-anchor="middle" font-size="5.6" font-family="Tahoma,Geneva,sans-serif" font-weight="bold" fill="rgb(100,100,100)">U</text><circle cx="148.9" cy="-74.6" r="4.47" fill="lightgreen" stroke="#ccc" stroke-width="1.64"/><text x="148.9" y="-72.3" text-anchor="middle" font-size="5.6" font-family="Tahoma,Geneva,sans-serif" font-weight="bold" fill="rgb(100,100,100)">G</text><circle cx="136.6" cy="-83.2" r="4.47" fill="lightgreen" stroke="#ccc" stroke-width="1.64"/><text x="136.6" y="-81.0" text-anchor="middle" font-size="5.6" font-family="Tahoma,Geneva,sans-serif" font-weight="bold" fill="rgb(100,100,100)">G</text><circle cx="133.6" cy="-104.7" r="4.47" fill="lightsalmon" stroke="#ccc" stroke-width="1.64"/><text x="133.6" y="-102.5" text-anchor="middle" font-size="5.6" font-family="Tahoma,Geneva,sans-serif" font-weight="bold" fill="rgb(100,100,100)">A</text><circle cx="130.6" cy="-126.2" r="4.47" fill="lightgreen" stroke="#ccc" stroke-width="1.64"/><text x="130.6" y="-123.9" text-anchor="middle" font-size="5.6" font-family="Tahoma,Geneva,sans-serif" font-weight="bold" fill="rgb(100,100,100)">C</text><circle cx="140.0" cy="-137.9" r="4.47" fill="lightgreen" stroke="#ccc" stroke-width="1.64"/><text x="140.0" y="-135.6" text-anchor="middle" font-size="5.6" font-family="Tahoma,Geneva,sans-serif" font-weight="bold" fill="rgb(100,100,100)">G</text><circle cx="149.4" cy="-149.6" r="4.47" fill="lightgreen" stroke="#ccc" stroke-width="1.64"/><text x="149.4" y="-147.3" text-anchor="middle" font-size="5.6" font-family="Tahoma,Geneva,sans-serif" font-weight="bold" fill="rgb(100,100,100)">A</text><circle cx="158.8" cy="-161.3" r="4.47" fill="lightgreen" stroke="#ccc" stroke-width="1.64"/><text x="158.8" y="-159.0" text-anchor="middle" font-size="5.6" font-family="Tahoma,Geneva,sans-serif" font-weight="bold" fill="rgb(100,100,100)">C</text><circle cx="168.2" cy="-173.0" r="4.47" fill="lightgreen" stroke="#ccc" stroke-width="1.64"/><text x="168.2" y="-170.7" text-anchor="middle" font-size="5.6" font-family="Tahoma,Geneva,sans-serif" font-weight="bold" fill="rgb(100,100,100)">C</text><circle cx="182.8" cy="-175.6" r="4.47" fill="lightblue" stroke="#ccc" stroke-width="1.64"/><text x="182.8" y="-173.4" text-anchor="middle" font-size="5.6" font-family="Tahoma,Geneva,sans-serif" font-weight="bold" fill="rgb(100,100,100)">A</text><circle cx="192.5" cy="-186.9" r="4.47" fill="lightblue" stroke="#ccc" stroke-width="1.64"/><text x="192.5" y="-184.7" text-anchor="middle" font-size="5.6" font-family="Tahoma,Geneva,sans-serif" font-weight="bold" fill="rgb(100,100,100)">A</text><circle cx="191.2" cy="-201.8" r="4.47" fill="lightblue" stroke="#ccc" stroke-width="1.64"/><text x="191.2" y="-199.5" text-anchor="middle" font-size="5.6" font-family="Tahoma,Geneva,sans-serif" font-weight="bold" fill="rgb(100,100,100)">A</text><circle cx="179.5" cy="-211.1" r="4.47" fill="lightblue" stroke="#ccc" stroke-width="1.64"/><text x="179.5" y="-208.8" text-anchor="middle" font-size="5.6" font-family="Tahoma,Geneva,sans-serif" font-weight="bold" fill="rgb(100,100,100)">A</text><circle cx="164.8" cy="-209.2" r="4.47" fill="lightblue" stroke="#ccc" stroke-width="1.64"/><text x="164.8" y="-207.0" text-anchor="middle" font-size="5.6" font-family="Tahoma,Geneva,sans-serif" font-weight="bold" fill="rgb(100,100,100)">A</text><circle cx="155.8" cy="-197.3" r="4.47" fill="lightblue" stroke="#ccc" stroke-width="1.64"/><text x="155.8" y="-195.0" text-anchor="middle" font-size="5.6" font-family="Tahoma,Geneva,sans-serif" font-weight="bold" fill="rgb(100,100,100)">G</text><circle cx="156.5" cy="-182.4" r="4.47" fill="lightgreen" stroke="#ccc" stroke-width="1.64"/><text x="156.5" y="-180.1" text-anchor="middle" font-size="5.6" font-family="Tahoma,Geneva,sans-serif" font-weight="bold" fill="rgb(100,100,100)">G</text><circle cx="147.1" cy="-170.7" r="4.47" fill="lightgreen" stroke="#ccc" stroke-width="1.64"/><text x="147.1" y="-168.4" text-anchor="middle" font-size="5.6" font-family="Tahoma,Geneva,sans-serif" font-weight="bold" fill="rgb(100,100,100)">G</text><circle cx="137.7" cy="-159.0" r="4.47" fill="lightgreen" stroke="#ccc" stroke-width="1.64"/><text x="137.7" y="-156.7" text-anchor="middle" font-size="5.6" font-family="Tahoma,Geneva,sans-serif" font-weight="bold" fill="rgb(100,100,100)">U</text><circle cx="128.3" cy="-147.3" r="4.47" fill="lightgreen" stroke="#ccc" stroke-width="1.64"/><text x="128.3" y="-145.0" text-anchor="middle" font-size="5.6" font-family="Tahoma,Geneva,sans-serif" font-weight="bold" fill="rgb(100,100,100)">C</text><circle cx="118.9" cy="-135.6" r="4.47" fill="lightgreen" stroke="#ccc" stroke-width="1.64"/><text x="118.9" y="-133.3" text-anchor="middle" font-size="5.6" font-family="Tahoma,Geneva,sans-serif" font-weight="bold" fill="rgb(100,100,100)">G</text></svg>