<svg xmlns="http://www.w3.org/2000/svg" viewBox="-171.6 -196.0 472.6 307.0" width="473" height="307"><style></style><line x1="-107.8" y1="39.3" x2="-98.4" y2="50.9" stroke="#999" stroke-width="1.48" stroke-opacity="0.8"/><line x1="-96.2" y1="29.8" x2="-86.7" y2="41.5" stroke="#999" stroke-width="1.48" stroke-opacity="0.8"/><line x1="-84.6" y1="20.4" x2="-75.1" y2="32.0" stroke="#999" stroke-width="1.48" stroke-opacity="0.8"/><line x1="-73.0" y1="10.9" x2="-63.5" y2="22.5" stroke="#999" stroke-width="1.48" stroke-opacity="0.8"/><line x1="-61.3" y1="1.4" x2="-51.8" y2="13.0" stroke="#999" stroke-width="1.48" stroke-opacity="0.8"/><line x1="-49.7" y1="-8.1" x2="-40.2" y2="3.6" stroke="#999" stroke-width="1.48" stroke-opacity="0.8"/><line x1="-38.1" y1="-17.5" x2="-28.6" y2="-5.9" stroke="#999" stroke-width="1.48" stroke-opacity="0.8"/><line x1="-26.4" y1="-27.0" x2="-17.0" y2="-15.4" stroke="#999" stroke-width="1.48" stroke-opacity="0.8"/><line x1="-14.8" y1="-36.5" x2="-5.3" y2="-24.9" stroke="#999" stroke-width="1.48" stroke-opacity="0.8"/><line x1="-3.2" y1="-46.0" x2="6.3" y2="-34.3" stroke="#999" stroke-width="1.48" stroke-opacity="0.8"/><line x1="10.9" y1="-55.8" x2="18.6" y2="-42.9" stroke="#999" stroke-width="1.48" stroke-opacity="0.8"/><line x1="23.8" y1="-63.5" x2="31.5" y2="-50.6" stroke="#999" stroke-width="1.48" stroke-opacity="0.8"/><line x1="36.7" y1="-71.1" x2="44.4" y2="-58.2" stroke="#999" stroke-width="1.48" stroke-opacity="0.8"/><line x1="49.6" y1="-78.8" x2="57.3" y2="-65.9" stroke="#999" stroke-width="1.48" stroke-opacity="0.8"/><line x1="213.0" y1="-82.0" x2="214.3" y2="-96.9" stroke="#999" stroke-width="1.48" stroke-opacity="0.8"/><line x1="198.0" y1="-83.4" x2="199.4" y2="-98.3" stroke="#999" stroke-width="1.48" stroke-opacity="0.8"/><line x1="183.1" y1="-84.8" x2="184.5" y2="-99.7" stroke="#999" stroke-width="1.48" stroke-opacity="0.8"/><line x1="168.2" y1="-86.2" x2="169.5" y2="-101.1" stroke="#999" stroke-width="1.48" stroke-opacity="0.8"/><line x1="153.2" y1="-87.5" x2="154.6" y2="-102.5" stroke="#999" stroke-width="1.48" stroke-opacity="0.8"/><line x1="237.1" y1="-116.0" x2="147.4" y2="-127.2" stroke="#d9534f" stroke-width="1.48" stroke-opacity="0.6"/><line x1="252.4" y1="-114.6" x2="142.5" y2="-134.4" stroke="#d9534f" stroke-width="1.48" stroke-opacity="0.6"/><line x1="264.9" y1="-105.8" x2="136.5" y2="-140.7" stroke="#d9534f" stroke-width="1.48" stroke-opacity="0.6"/><line x1="271.4" y1="-91.8" x2="129.6" y2="-145.9" stroke="#d9534f" stroke-width="1.48" stroke-opacity="0.6"/><line x1="269.9" y1="-76.5" x2="122.0" y2="-150.0" stroke="#d9534f" stroke-width="1.48" stroke-opacity="0.6"/><line x1="261.1" y1="-64.0" x2="105.2" y2="-154.4" stroke="#d9534f" stroke-width="1.48" stroke-opacity="0.6"/><line x1="247.1" y1="-57.6" x2="96.6" y2="-154.5" stroke="#d9534f" stroke-width="1.48" stroke-opacity="0.6"/><line x1="231.8" y1="-59.1" x2="88.0" y2="-153.3" stroke="#d9534f" stroke-width="1.48" stroke-opacity="0.6"/><line x1="219.3" y1="-68.0" x2="79.7" y2="-150.7" stroke="#d9534f" stroke-width="1.48" stroke-opacity="0.6"/><line x1="63.3" y1="-166.3" x2="59.8" y2="-151.7" stroke="#999" stroke-width="1.48" stroke-opacity="0.8"/><line x1="59.8" y1="-151.7" x2="53.0" y2="-139.2" stroke="#999" stroke-width="1.48" stroke-opacity="0.8"/><line x1="53.0" y1="-139.2" x2="48.6" y2="-126.2" stroke="#999" stroke-width="1.48" stroke-opacity="0.8"/><line x1="48.6" y1="-126.2" x2="37.0" y2="-118.8" stroke="#999" stroke-width="1.48" stroke-opacity="0.8"/><line x1="37.0" y1="-118.8" x2="43.8" y2="-107.6" stroke="#999" stroke-width="1.48" stroke-opacity="0.8"/><line x1="43.8" y1="-107.6" x2="37.4" y2="-95.7" stroke="#999" stroke-width="1.48" stroke-opacity="0.8"/><line x1="37.4" y1="-95.7" x2="50.4" y2="-91.4" stroke="#999" stroke-width="1.48" stroke-opacity="0.8"/><line x1="50.4" y1="-91.4" x2="49.6" y2="-78.8" stroke="#999" stroke-width="1.48" stroke-opacity="0.8"/><line x1="49.6" y1="-78.8" x2="36.7" y2="-71.1" stroke="#999" stroke-width="1.48" stroke-opacity="0.8"/><line x1="36.7" y1="-71.1" x2="23.8" y2="-63.5" stroke="#999" stroke-width="1.48" stroke-opacity="0.8"/><line x1="23.8" y1="-63.5" x2="10.9" y2="-55.8" stroke="#999" stroke-width="1.48" stroke-opacity="0.8"/><line x1="10.9" y1="-55.8" x2="6.9" y2="-68.9" stroke="#999" stroke-width="1.48" stroke-opacity="0.8"/><line x1="6.9" y1="-68.9" x2="-5.9" y2="-71.8" stroke="#999" stroke-width="1.48" stroke-opacity="0.8"/><line x1="-5.9" y1="-71.8" x2="-18.4" y2="-67.0" stroke="#999" stroke-width="1.48" stroke-opacity="0.8"/><line x1="-18.4" y1="-67.0" x2="-14.0" y2="-54.4" stroke="#999" stroke-width="1.48" stroke-opacity="0.8"/><line x1="-14.0" y1="-54.4" x2="-3.2" y2="-46.0" stroke="#999" stroke-width="1.48" stroke-opacity="0.8"/><line x1="-3.2" y1="-46.0" x2="-14.8" y2="-36.5" stroke="#999" stroke-width="1.48" stroke-opacity="0.8"/><line x1="-14.8" y1="-36.5" x2="-26.4" y2="-27.0" stroke="#999" stroke-width="1.48" stroke-opacity="0.8"/><line x1="-26.4" y1="-27.0" x2="-38.1" y2="-17.5" stroke="#999" stroke-width="1.48" stroke-opacity="0.8"/><line x1="-38.1" y1="-17.5" x2="-49.7" y2="-8.1" stroke="#999" stroke-width="1.48" stroke-opacity="0.8"/><line x1="-49.7" y1="-8.1" x2="-61.3" y2="1.4" stroke="#999" stroke-width="1.48" stroke-opacity="0.8"/><line x1="-61.3" y1="1.4" x2="-73.0" y2="10.9" stroke="#999" stroke-width="1.48" stroke-opacity="0.8"/><line x1="-73.0" y1="10.9" x2="-84.6" y2="20.4" stroke="#999" stroke-width="1.48" stroke-opacity="0.8"/><line x1="-84.6" y1="20.4" x2="-96.2" y2="29.8" stroke="#999" stroke-width="1.48" stroke-opacity="0.8"/><line x1="-96.2" y1="29.8" x2="-107.8" y2="39.3" stroke="#999" stroke-width="1.48" stroke-opacity="0.8"/><line x1="-107.8" y1="39.3" x2="-121.3" y2="38.9" stroke="#999" stroke-width="1.48" stroke-opacity="0.8"/><line x1="-121.3" y1="38.9" x2="-134.1" y2="43.4" stroke="#999" stroke-width="1.48" stroke-opacity="0.8"/><line x1="-134.1" y1="43.4" x2="-142.0" y2="54.3" stroke="#999" stroke-width="1.48" stroke-opacity="0.8"/><line x1="-142.0" y1="54.3" x2="-141.6" y2="67.8" stroke="#999" stroke-width="1.48" stroke-opacity="0.8"/><line x1="-141.6" y1="67.8" x2="-133.1" y2="78.3" stroke="#999" stroke-width="1.48" stroke-opacity="0.8"/><line x1="-133.1" y1="78.3" x2="-120.0" y2="81.4" stroke="#999" stroke-width="1.48" stroke-opacity="0.8"/><line x1="-120.0" y1="81.4" x2="-107.7" y2="75.8" stroke="#999" stroke-width="1.48" stroke-opacity="0.8"/><line x1="-107.7" y1="75.8" x2="-100.7" y2="64.3" stroke="#999" stroke-width="1.48" stroke-opacity="0.8"/><line x1="-100.7" y1="64.3" x2="-98.4" y2="50.9" stroke="#999" stroke-width="1.48" stroke-opacity="0.8"/><line x1="-98.4" y1="50.9" x2="-86.7" y2="41.5" stroke="#999" stroke-width="1.48" stroke-opacity="0.8"/><line x1="-86.7" y1="41.5" x2="-75.1" y2="32.0" stroke="#999" stroke-width="1.48" stroke-opacity="0.8"/><line x1="-75.1" y1="32.0" x2="-63.5" y2="22.5" stroke="#999" stroke-width="1.48" stroke-opacity="0.8"/><line x1="-63.5" y1="22.5" x2="-51.8" y2="13.0" stroke="#999" stroke-width="1.48" stroke-opacity="0.8"/><line x1="-51.8" y1="13.0" x2="-40.2" y2="3.6" stroke="#999" stroke-width="1.48" stroke-opacity="0.8"/><line x1="-40.2" y1="3.6" x2="-28.6" y2="-5.9" stroke="#999" stroke-width="1.48" stroke-opacity="0.8"/><line x1="-28.6" y1="-5.9" x2="-17.0" y2="-15.4" stroke="#999" stroke-width="1.48" stroke-opacity="0.8"/><line x1="-17.0" y1="-15.4" x2="-5.3" y2="-24.9" stroke="#999" stroke-width="1.48" stroke-opacity="0.8"/><line x1="-5.3" y1="-24.9" x2="6.3" y2="-34.3" stroke="#999" stroke-width="1.48" stroke-opacity="0.8"/><line x1="6.3" y1="-34.3" x2="18.6" y2="-42.9" stroke="#999" stroke-width="1.48" stroke-opacity="0.8"/><line x1="18.6" y1="-42.9" x2="31.5" y2="-50.6" stroke="#999" stroke-width="1.48" stroke-opacity="0.8"/><line x1="31.5" y1="-50.6" x2="44.4" y2="-58.2" stroke="#999" stroke-width="1.48" stroke-opacity="0.8"/><line x1="44.4" y1="-58.2" x2="57.3" y2="-65.9" stroke="#999" stroke-width="1.48" stroke-opacity="0.8"/><line x1="57.3" y1="-65.9" x2="76.9" y2="-68.0" stroke="#999" stroke-width="1.48" stroke-opacity="0.8"/><line x1="76.9" y1="-68.0" x2="96.4" y2="-71.0" stroke="#999" stroke-width="1.48" stroke-opacity="0.8"/><line x1="96.4" y1="-71.0" x2="115.7" y2="-75.3" stroke="#999" stroke-width="1.48" stroke-opacity="0.8"/><line x1="115.7" y1="-75.3" x2="134.6" y2="-81.0" stroke="#999" stroke-width="1.48" stroke-opacity="0.8"/><line x1="134.6" y1="-81.0" x2="153.2" y2="-87.5" stroke="#999" stroke-width="1.48" stroke-opacity="0.8"/><line x1="153.2" y1="-87.5" x2="168.2" y2="-86.2" stroke="#999" stroke-width="1.48" stroke-opacity="0.8"/><line x1="168.2" y1="-86.2" x2="183.1" y2="-84.8" stroke="#999" stroke-width="1.48" stroke-opacity="0.8"/><line x1="183.1" y1="-84.8" x2="198.0" y2="-83.4" stroke="#999" stroke-width="1.48" stroke-opacity="0.8"/><line x1="198.0" y1="-83.4" x2="213.0" y2="-82.0" stroke="#999" stroke-width="1.48" stroke-opacity="0.8"/><line x1="213.0" y1="-82.0" x2="219.3" y2="-68.0" stroke="#999" stroke-width="1.48" stroke-opacity="0.8"/><line x1="219.3" y1="-68.0" x2="231.8" y2="-59.1" stroke="#999" stroke-width="1.48" stroke-opacity="0.8"/><line x1="231.8" y1="-59.1" x2="247.1" y2="-57.6" stroke="#999" stroke-width="1.48" stroke-opacity="0.8"/><line x1="247.1" y1="-57.6" x2="261.1" y2="-64.0" stroke="#999" stroke-width="1.48" stroke-opacity="0.8"/><line x1="261.1" y1="-64.0" x2="269.9" y2="-76.5" stroke="#999" stroke-width="1.48" stroke-opacity="0.8"/><line x1="269.9" y1="-76.5" x2="271.4" y2="-91.8" stroke="#999" stroke-width="1.48" stroke-opacity="0.8"/><line x1="271.4" y1="-91.8" x2="264.9" y2="-105.8" stroke="#999" stroke-width="1.48" stroke-opacity="0.8"/><line x1="264.9" y1="-105.8" x2="252.4" y2="-114.6" stroke="#999" stroke-width="1.48" stroke-opacity="0.8"/><line x1="252.4" y1="-114.6" x2="237.1" y2="-116.0" stroke="#999" stroke-width="1.48" stroke-opacity="0.8"/><line x1="237.1" y1="-116.0" x2="225.6" y2="-106.6" stroke="#999" stroke-width="1.48" stroke-opacity="0.8"/><line x1="225.6" y1="-106.6" x2="214.3" y2="-96.9" stroke="#999" stroke-width="1.48" stroke-opacity="0.8"/><line x1="214.3" y1="-96.9" x2="199.4" y2="-98.3" stroke="#999" stroke-width="1.48" stroke-opacity="0.8"/><line x1="199.4" y1="-98.3" x2="184.5" y2="-99.7" stroke="#999" stroke-width="1.48" stroke-opacity="0.8"/><line x1="184.5" y1="-99.7" x2="169.5" y2="-101.1" stroke="#999" stroke-width="1.48" stroke-opacity="0.8"/><line x1="169.5" y1="-101.1" x2="154.6" y2="-102.5" stroke="#999" stroke-width="1.48" stroke-opacity="0.8"/><line x1="154.6" y1="-102.5" x2="149.2" y2="-113.0" stroke="#999" stroke-width="1.48" stroke-opacity="0.8"/><line x1="149.2" y1="-113.0" x2="159.6" y2="-122.0" stroke="#999" stroke-width="1.48" stroke-opacity="0.8"/><line x1="159.6" y1="-122.0" x2="147.4" y2="-127.2" stroke="#999" stroke-width="1.48" stroke-opacity="0.8"/><line x1="147.4" y1="-127.2" x2="142.5" y2="-134.4" stroke="#999" stroke-width="1.48" stroke-opacity="0.8"/><line x1="142.5" y1="-134.4" x2="136.5" y2="-140.7" stroke="#999" stroke-width="1.48" stroke-opacity="0.8"/><line x1="136.5" y1="-140.7" x2="129.6" y2="-145.9" stroke="#999" stroke-width="1.48" stroke-opacity="0.8"/><line x1="129.6" y1="-145.9" x2="122.0" y2="-150.0" stroke="#999" stroke-width="1.48" stroke-opacity="0.8"/><line x1="122.0" y1="-150.0" x2="116.2" y2="-162.2" stroke="#999" stroke-width="1.48" stroke-opacity="0.8"/><line x1="116.2" y1="-162.2" x2="105.2" y2="-154.4" stroke="#999" stroke-width="1.48" stroke-opacity="0.8"/><line x1="105.2" y1="-154.4" x2="96.6" y2="-154.5" stroke="#999" stroke-width="1.48" stroke-opacity="0.8"/><line x1="96.6" y1="-154.5" x2="88.0" y2="-153.3" stroke="#999" stroke-width="1.48" stroke-opacity="0.8"/><line x1="88.0" y1="-153.3" x2="79.7" y2="-150.7" stroke="#999" stroke-width="1.48" stroke-opacity="0.8"/><text x="47.6" y="-167.6" text-anchor="middle" font-size="7.0" font-family="Tahoma,Geneva,sans-serif" fill="#999">1</text><text x="28.5" y="-82.6" text-anchor="middle" font-size="7.0" font-family="Tahoma,Geneva,sans-serif" fill="#999">10</text><text x="-48.3" y="-27.6" text-anchor="middle" font-size="7.0" font-family="Tahoma,Geneva,sans-serif" fill="#999">20</text><text x="-156.8" y="75.9" text-anchor="middle" font-size="7.0" font-family="Tahoma,Geneva,sans-serif" fill="#999">30</text><text x="-30.0" y="18.6" text-anchor="middle" font-size="7.0" font-family="Tahoma,Geneva,sans-serif" fill="#999">40</text><text x="99.4" y="-52.6" text-anchor="middle" font-size="7.0" font-family="Tahoma,Geneva,sans-serif" fill="#999">50</text><text x="249.8" y="-39.2" text-anchor="middle" font-size="7.0" font-family="Tahoma,Geneva,sans-serif" fill="#999">60</text><text x="186.0" y="-113.4" text-anchor="middle" font-size="7.0" font-family="Tahoma,Geneva,sans-serif" fill="#999">70</text><text x="120.3" y="-175.4" text-anchor="middle" font-size="7.0" font-family="Tahoma,Geneva,sans-serif" fill="#999">80</text><circle cx="63.3" cy="-166.3" r="4.04" fill="lightsalmon" stroke="#ccc" stroke-width="1.48"/><text x="63.3" y="-164.3" text-anchor="middle" font-size="5.1" font-family="Tahoma,Geneva,sans-serif" font-weight="bold" fill="rgb(100,100,100)">G</text><circle cx="59.8" cy="-151.7" r="4.04" fill="lightsalmon" stroke="#ccc" stroke-width="1.48"/><text x="59.8" y="-149.7" text-anchor="middle" font-size="5.1" font-family="Tahoma,Geneva,sans-serif" font-weight="bold" fill="rgb(100,100,100)">A</text><circle cx="53.0" cy="-139.2" r="4.04" fill="lightsalmon" stroke="#ccc" stroke-width="1.48"/><text x="53.0" y="-137.2" text-anchor="middle" font-size="5.1" font-family="Tahoma,Geneva,sans-serif" font-weight="bold" fill="rgb(100,100,100)">G</text><circle cx="48.6" cy="-126.2" r="4.04" fill="lightsalmon" stroke="#ccc" stroke-width="1.48"/><text x="48.6" y="-124.2" text-anchor="middle" font-size="5.1" font-family="Tahoma,Geneva,sans-serif" font-weight="bold" fill="rgb(100,100,100)">A</text><circle cx="37.0" cy="-118.8" r="4.04" fill="lightsalmon" stroke="#ccc" stroke-width="1.48"/><text x="37.0" y="-116.8" text-anchor="middle" font-size="5.1" font-family="Tahoma,Geneva,sans-serif" font-weight="bold" fill="rgb(100,100,100)">U</text><circle cx="43.8" cy="-107.6" r="4.04" fill="lightsalmon" stroke="#ccc" stroke-width="1.48"/><text x="43.8" y="-105.6" text-anchor="middle" font-size="5.1" font-family="Tahoma,Geneva,sans-serif" font-weight="bold" fill="rgb(100,100,100)">G</text><circle cx="37.4" cy="-95.7" r="4.04" fill="lightsalmon" stroke="#ccc" stroke-width="1.48"/><text x="37.4" y="-93.7" text-anchor="middle" font-size="5.1" font-family="Tahoma,Geneva,sans-serif" font-weight="bold" fill="rgb(100,100,100)">G</text><circle cx="50.4" cy="-91.4" r="4.04" fill="lightsalmon" stroke="#ccc" stroke-width="1.48"/><text x="50.4" y="-89.4" text-anchor="middle" font-size="5.1" font-family="Tahoma,Geneva,sans-serif" font-weight="bold" fill="rgb(100,100,100)">A</text><circle cx="49.6" cy="-78.8" r="4.04" fill="lightgreen" stroke="#ccc" stroke-width="1.48"/><text x="49.6" y="-76.8" text-anchor="middle" font-size="5.1" font-family="Tahoma,Geneva,sans-serif" font-weight="bold" fill="rgb(100,100,100)">G</text><circle cx="36.7" cy="-71.1" r="4.04" fill="lightgreen" stroke="#ccc" stroke-width="1.48"/><text x="36.7" y="-69.1" text-anchor="middle" font-size="5.1" font-family="Tahoma,Geneva,sans-serif" font-weight="bold" fill="rgb(100,100,100)">G</text><circle cx="23.8" cy="-63.5" r="4.04" fill="lightgreen" stroke="#ccc" stroke-width="1.48"/><text x="23.8" y="-61.5" text-anchor="middle" font-size="5.1" font-family="Tahoma,Geneva,sans-serif" font-weight="bold" fill="rgb(100,100,100)">G</text><circle cx="10.9" cy="-55.8" r="4.04" fill="lightgreen" stroke="#ccc" stroke-width="1.48"/><text x="10.9" y="-53.8" text-anchor="middle" font-size="5.1" font-family="Tahoma,Geneva,sans-serif" font-weight="bold" fill="rgb(100,100,100)">C</text><circle cx="6.9" cy="-68.9" r="4.04" fill="#dbdb8d" stroke="#ccc" stroke-width="1.48"/><text x="6.9" y="-66.9" text-anchor="middle" font-size="5.1" font-family="Tahoma,Geneva,sans-serif" font-weight="bold" fill="rgb(100,100,100)">A</text><circle cx="-5.9" cy="-71.8" r="4.04" fill="#dbdb8d" stroke="#ccc" stroke-width="1.48"/><text x="-5.9" y="-69.8" text-anchor="middle" font-size="5.1" font-family="Tahoma,Geneva,sans-serif" font-weight="bold" fill="rgb(100,100,100)">U</text><circle cx="-18.4" cy="-67.0" r="4.04" fill="#dbdb8d" stroke="#ccc" stroke-width="1.48"/><text x="-18.4" y="-64.9" text-anchor="middle" font-size="5.1" font-family="Tahoma,Geneva,sans-serif" font-weight="bold" fill="rgb(100,100,100)">U</text><circle cx="-14.0" cy="-54.4" r="4.04" fill="#dbdb8d" stroke="#ccc" stroke-width="1.48"/><text x="-14.0" y="-52.3" text-anchor="middle" font-size="5.1" font-family="Tahoma,Geneva,sans-serif" font-weight="bold" fill="rgb(100,100,100)">U</text><circle cx="-3.2" cy="-46.0" r="4.04" fill="lightgreen" stroke="#ccc" stroke-width="1.48"/><text x="-3.2" y="-43.9" text-anchor="middle" font-size="5.1" font-family="Tahoma,Geneva,sans-serif" font-weight="bold" fill="rgb(100,100,100)">G</text><circle cx="-14.8" cy="-36.5" r="4.04" fill="lightgreen" stroke="#ccc" stroke-width="1.48"/><text x="-14.8" y="-34.5" text-anchor="middle" font-size="5.1" font-family="Tahoma,Geneva,sans-serif" font-weight="bold" fill="rgb(100,100,100)">G</text><circle cx="-26.4" cy="-27.0" r="4.04" fill="lightgreen" stroke="#ccc" stroke-width="1.48"/><text x="-26.4" y="-25.0" text-anchor="middle" font-size="5.1" font-family="Tahoma,Geneva,sans-serif" font-weight="bold" fill="rgb(100,100,100)">G</text><circle cx="-38.1" cy="-17.5" r="4.04" fill="lightgreen" stroke="#ccc" stroke-width="1.48"/><text x="-38.1" y="-15.5" text-anchor="middle" font-size="5.1" font-family="Tahoma,Geneva,sans-serif" font-weight="bold" fill="rgb(100,100,100)">A</text><circle cx="-49.7" cy="-8.1" r="4.04" fill="lightgreen" stroke="#ccc" stroke-width="1.48"/><text x="-49.7" y="-6.0" text-anchor="middle" font-size="5.1" font-family="Tahoma,Geneva,sans-serif" font-weight="bold" fill="rgb(100,100,100)">C</text><circle cx="-61.3" cy="1.4" r="4.04" fill="lightgreen" stroke="#ccc" stroke-width="1.48"/><text x="-61.3" y="3.4" text-anchor="middle" font-size="5.1" font-family="Tahoma,Geneva,sans-serif" font-weight="bold" fill="rgb(100,100,100)">G</text><circle cx="-73.0" cy="10.9" r="4.04" fill="lightgreen" stroke="#ccc" stroke-width="1.48"/><text x="-73.0" y="12.9" text-anchor="middle" font-size="5.1" font-family="Tahoma,Geneva,sans-serif" font-weight="bold" fill="rgb(100,100,100)">U</text><circle cx="-84.6" cy="20.4" r="4.04" fill="lightgreen" stroke="#ccc" stroke-width="1.48"/><text x="-84.6" y="22.4" text-anchor="middle" font-size="5.1" font-family="Tahoma,Geneva,sans-serif" font-weight="bold" fill="rgb(100,100,100)">G</text><circle cx="-96.2" cy="29.8" r="4.04" fill="lightgreen" stroke="#ccc" stroke-width="1.48"/><text x="-96.2" y="31.9" text-anchor="middle" font-size="5.1" font-family="Tahoma,Geneva,sans-serif" font-weight="bold" fill="rgb(100,100,100)">A</text><circle cx="-107.8" cy="39.3" r="4.04" fill="lightgreen" stroke="#ccc" stroke-width="1.48"/><text x="-107.8" y="41.3" text-anchor="middle" font-size="5.1" font-family="Tahoma,Geneva,sans-serif" font-weight="bold" fill="rgb(100,100,100)">A</text><circle cx="-121.3" cy="38.9" r="4.04" fill="lightblue" stroke="#ccc" stroke-width="1.48"/><text x="-121.3" y="40.9" text-anchor="middle" font-size="5.1" font-family="Tahoma,Geneva,sans-serif" font-weight="bold" fill="rgb(100,100,100)">G</text><circle cx="-134.1" cy="43.4" r="4.04" fill="lightblue" stroke="#ccc" stroke-width="1.48"/><text x="-134.1" y="45.5" text-anchor="middle" font-size="5.1" font-family="Tahoma,Geneva,sans-serif" font-weight="bold" fill="rgb(100,100,100)">A</text><circle cx="-142.0" cy="54.3" r="4.04" fill="lightblue" stroke="#ccc" stroke-width="1.48"/><text x="-142.0" y="56.4" text-anchor="middle" font-size="5.1" font-family="Tahoma,Geneva,sans-serif" font-weight="bold" fill="rgb(100,100,100)">U</text><circle cx="-141.6" cy="67.8" r="4.04" fill="lightblue" stroke="#ccc" stroke-width="1.48"/><text x="-141.6" y="69.8" text-anchor="middle" font-size="5.1" font-family="Tahoma,Geneva,sans-serif" font-weight="bold" fill="rgb(100,100,100)">G</text><circle cx="-133.1" cy="78.3" r="4.04" fill="lightblue" stroke="#ccc" stroke-width="1.48"/><text x="-133.1" y="80.3" text-anchor="middle" font-size="5.1" font-family="Tahoma,Geneva,sans-serif" font-weight="bold" fill="rgb(100,100,100)">U</text><circle cx="-120.0" cy="81.4" r="4.04" fill="lightblue" stroke="#ccc" stroke-width="1.48"/><text x="-120.0" y="83.4" text-anchor="middle" font-size="5.1" font-family="Tahoma,Geneva,sans-serif" font-weight="bold" fill="rgb(100,100,100)">G</text><circle cx="-107.7" cy="75.8" r="4.04" fill="lightblue" stroke="#ccc" stroke-width="1.48"/><text x="-107.7" y="77.8" text-anchor="middle" font-size="5.1" font-family="Tahoma,Geneva,sans-serif" font-weight="bold" fill="rgb(100,100,100)">G</text><circle cx="-100.7" cy="64.3" r="4.04" fill="lightblue" stroke="#ccc" stroke-width="1.48"/><text x="-100.7" y="66.3" text-anchor="middle" font-size="5.1" font-family="Tahoma,Geneva,sans-serif" font-weight="bold" fill="rgb(100,100,100)">A</text><circle cx="-98.4" cy="50.9" r="4.04" fill="lightgreen" stroke="#ccc" stroke-width="1.48"/><text x="-98.4" y="53.0" text-anchor="middle" font-size="5.1" font-family="Tahoma,Geneva,sans-serif" font-weight="bold" fill="rgb(100,100,100)">U</text><circle cx="-86.7" cy="41.5" r="4.04" fill="lightgreen" stroke="#ccc" stroke-width="1.48"/><text x="-86.7" y="43.5" text-anchor="middle" font-size="5.1" font-family="Tahoma,Geneva,sans-serif" font-weight="bold" fill="rgb(100,100,100)">U</text><circle cx="-75.1" cy="32.0" r="4.04" fill="lightgreen" stroke="#ccc" stroke-width="1.48"/><text x="-75.1" y="34.0" text-anchor="middle" font-size="5.1" font-family="Tahoma,Geneva,sans-serif" font-weight="bold" fill="rgb(100,100,100)">C</text><circle cx="-63.5" cy="22.5" r="4.04" fill="lightgreen" stroke="#ccc" stroke-width="1.48"/><text x="-63.5" y="24.5" text-anchor="middle" font-size="5.1" font-family="Tahoma,Geneva,sans-serif" font-weight="bold" fill="rgb(100,100,100)">A</text><circle cx="-51.8" cy="13.0" r="4.04" fill="lightgreen" stroke="#ccc" stroke-width="1.48"/><text x="-51.8" y="15.1" text-anchor="middle" font-size="5.1" font-family="Tahoma,Geneva,sans-serif" font-weight="bold" fill="rgb(100,100,100)">C</text><circle cx="-40.2" cy="3.6" r="4.04" fill="lightgreen" stroke="#ccc" stroke-width="1.48"/><text x="-40.2" y="5.6" text-anchor="middle" font-size="5.1" font-family="Tahoma,Geneva,sans-serif" font-weight="bold" fill="rgb(100,100,100)">G</text><circle cx="-28.6" cy="-5.9" r="4.04" fill="lightgreen" stroke="#ccc" stroke-width="1.48"/><text x="-28.6" y="-3.9" text-anchor="middle" font-size="5.1" font-family="Tahoma,Geneva,sans-serif" font-weight="bold" fill="rgb(100,100,100)">U</text><circle cx="-17.0" cy="-15.4" r="4.04" fill="lightgreen" stroke="#ccc" stroke-width="1.48"/><text x="-17.0" y="-13.4" text-anchor="middle" font-size="5.1" font-family="Tahoma,Geneva,sans-serif" font-weight="bold" fill="rgb(100,100,100)">C</text><circle cx="-5.3" cy="-24.9" r="4.04" fill="lightgreen" stroke="#ccc" stroke-width="1.48"/><text x="-5.3" y="-22.8" text-anchor="middle" font-size="5.1" font-family="Tahoma,Geneva,sans-serif" font-weight="bold" fill="rgb(100,100,100)">C</text><circle cx="6.3" cy="-34.3" r="4.04" fill="lightgreen" stroke="#ccc" stroke-width="1.48"/><text x="6.3" y="-32.3" text-anchor="middle" font-size="5.1" font-family="Tahoma,Geneva,sans-serif" font-weight="bold" fill="rgb(100,100,100)">C</text><circle cx="18.6" cy="-42.9" r="4.04" fill="lightgreen" stroke="#ccc" stroke-width="1.48"/><text x="18.6" y="-40.9" text-anchor="middle" font-size="5.1" font-family="Tahoma,Geneva,sans-serif" font-weight="bold" fill="rgb(100,100,100)">G</text><circle cx="31.5" cy="-50.6" r="4.04" fill="lightgreen" stroke="#ccc" stroke-width="1.48"/><text x="31.5" y="-48.6" text-anchor="middle" font-size="5.1" font-family="Tahoma,Geneva,sans-serif" font-weight="bold" fill="rgb(100,100,100)">C</text><circle cx="44.4" cy="-58.2" r="4.04" fill="lightgreen" stroke="#ccc" stroke-width="1.48"/><text x="44.4" y="-56.2" text-anchor="middle" font-size="5.1" font-family="Tahoma,Geneva,sans-serif" font-weight="bold" fill="rgb(100,100,100)">U</text><circle cx="57.3" cy="-65.9" r="4.04" fill="lightgreen" stroke="#ccc" stroke-width="1.48"/><text x="57.3" y="-63.9" text-anchor="middle" font-size="5.1" font-family="Tahoma,Geneva,sans-serif" font-weight="bold" fill="rgb(100,100,100)">C</text><circle cx="76.9" cy="-68.0" r="4.04" fill="lightsalmon" stroke="#ccc" stroke-width="1.48"/><text x="76.9" y="-66.0" text-anchor="middle" font-size="5.1" font-family="Tahoma,Geneva,sans-serif" font-weight="bold" fill="rgb(100,100,100)">A</text><circle cx="96.4" cy="-71.0" r="4.04" fill="lightsalmon" stroke="#ccc" stroke-width="1.48"/><text x="96.4" y="-68.9" text-anchor="middle" font-size="5.1" font-family="Tahoma,Geneva,sans-serif" font-weight="bold" fill="rgb(100,100,100)">A</text><circle cx="115.7" cy="-75.3" r="4.04" fill="lightsalmon" stroke="#ccc" stroke-width="1.48"/><text x="115.7" y="-73.3" text-anchor="middle" font-size="5.1" font-family="Tahoma,Geneva,sans-serif" font-weight="bold" fill="rgb(100,100,100)">C</text><circle cx="134.6" cy="-81.0" r="4.04" fill="lightsalmon" stroke="#ccc" stroke-width="1.48"/><text x="134.6" y="-79.0" text-anchor="middle" font-size="5.1" font-family="Tahoma,Geneva,sans-serif" font-weight="bold" fill="rgb(100,100,100)">A</text><circle cx="153.2" cy="-87.5" r="4.04" fill="lightgreen" stroke="#ccc" stroke-width="1.48"/><text x="153.2" y="-85.5" text-anchor="middle" font-size="5.1" font-family="Tahoma,Geneva,sans-serif" font-weight="bold" fill="rgb(100,100,100)">U</text><circle cx="168.2" cy="-86.2" r="4.04" fill="lightgreen" stroke="#ccc" stroke-width="1.48"/><text x="168.2" y="-84.1" text-anchor="middle" font-size="5.1" font-family="Tahoma,Geneva,sans-serif" font-weight="bold" fill="rgb(100,100,100)">G</text><circle cx="183.1" cy="-84.8" r="4.04" fill="lightgreen" stroke="#ccc" stroke-width="1.48"/><text x="183.1" y="-82.7" text-anchor="middle" font-size="5.1" font-family="Tahoma,Geneva,sans-serif" font-weight="bold" fill="rgb(100,100,100)">U</text><circle cx="198.0" cy="-83.4" r="4.04" fill="lightgreen" stroke="#ccc" stroke-width="1.48"/><text x="198.0" y="-81.4" text-anchor="middle" font-size="5.1" font-family="Tahoma,Geneva,sans-serif" font-weight="bold" fill="rgb(100,100,100)">U</text><circle cx="213.0" cy="-82.0" r="4.04" fill="lightgreen" stroke="#ccc" stroke-width="1.48"/><text x="213.0" y="-80.0" text-anchor="middle" font-size="5.1" font-family="Tahoma,Geneva,sans-serif" font-weight="bold" fill="rgb(100,100,100)">U</text><circle cx="219.3" cy="-68.0" r="4.04" fill="lightgreen" stroke="#ccc" stroke-width="1.48"/><text x="219.3" y="-66.0" text-anchor="middle" font-size="5.1" font-family="Tahoma,Geneva,sans-serif" font-weight="bold" fill="rgb(100,100,100)">A</text><circle cx="231.8" cy="-59.1" r="4.04" fill="lightgreen" stroke="#ccc" stroke-width="1.48"/><text x="231.8" y="-57.1" text-anchor="middle" font-size="5.1" font-family="Tahoma,Geneva,sans-serif" font-weight="bold" fill="rgb(100,100,100)">U</text><circle cx="247.1" cy="-57.6" r="4.04" fill="lightgreen" stroke="#ccc" stroke-width="1.48"/><text x="247.1" y="-55.6" text-anchor="middle" font-size="5.1" font-family="Tahoma,Geneva,sans-serif" font-weight="bold" fill="rgb(100,100,100)">G</text><circle cx="261.1" cy="-64.0" r="4.04" fill="lightgreen" stroke="#ccc" stroke-width="1.48"/><text x="261.1" y="-62.0" text-anchor="middle" font-size="5.1" font-family="Tahoma,Geneva,sans-serif" font-weight="bold" fill="rgb(100,100,100)">A</text><circle cx="269.9" cy="-76.5" r="4.04" fill="lightgreen" stroke="#ccc" stroke-width="1.48"/><text x="269.9" y="-74.5" text-anchor="middle" font-size="5.1" font-family="Tahoma,Geneva,sans-serif" font-weight="bold" fill="rgb(100,100,100)">A</text><circle cx="271.4" cy="-91.8" r="4.04" fill="lightgreen" stroke="#ccc" stroke-width="1.48"/><text x="271.4" y="-89.8" text-anchor="middle" font-size="5.1" font-family="Tahoma,Geneva,sans-serif" font-weight="bold" fill="rgb(100,100,100)">G</text><circle cx="264.9" cy="-105.8" r="4.04" fill="lightgreen" stroke="#ccc" stroke-width="1.48"/><text x="264.9" y="-103.8" text-anchor="middle" font-size="5.1" font-family="Tahoma,Geneva,sans-serif" font-weight="bold" fill="rgb(100,100,100)">U</text><circle cx="252.4" cy="-114.6" r="4.04" fill="lightgreen" stroke="#ccc" stroke-width="1.48"/><text x="252.4" y="-112.6" text-anchor="middle" font-size="5.1" font-family="Tahoma,Geneva,sans-serif" font-weight="bold" fill="rgb(100,100,100)">G</text><circle cx="237.1" cy="-116.0" r="4.04" fill="lightgreen" stroke="#ccc" stroke-width="1.48"/><text x="237.1" y="-114.0" text-anchor="middle" font-size="5.1" font-family="Tahoma,Geneva,sans-serif" font-weight="bold" fill="rgb(100,100,100)">C</text><circle cx="225.6" cy="-106.6" r="4.04" fill="lightblue" stroke="#ccc" stroke-width="1.48"/><text x="225.6" y="-104.6" text-anchor="middle" font-size="5.1" font-family="Tahoma,Geneva,sans-serif" font-weight="bold" fill="rgb(100,100,100)">A</text><circle cx="214.3" cy="-96.9" r="4.04" fill="lightgreen" stroke="#ccc" stroke-width="1.48"/><text x="214.3" y="-94.9" text-anchor="middle" font-size="5.1" font-family="Tahoma,Geneva,sans-serif" font-weight="bold" fill="rgb(100,100,100)">A</text><circle cx="199.4" cy="-98.3" r="4.04" fill="lightgreen" stroke="#ccc" stroke-width="1.48"/><text x="199.4" y="-96.3" text-anchor="middle" font-size="5.1" font-family="Tahoma,Geneva,sans-serif" font-weight="bold" fill="rgb(100,100,100)">A</text><circle cx="184.5" cy="-99.7" r="4.04" fill="lightgreen" stroke="#ccc" stroke-width="1.48"/><text x="184.5" y="-97.7" text-anchor="middle" font-size="5.1" font-family="Tahoma,Geneva,sans-serif" font-weight="bold" fill="rgb(100,100,100)">A</text><circle cx="169.5" cy="-101.1" r="4.04" fill="lightgreen" stroke="#ccc" stroke-width="1.48"/><text x="169.5" y="-99.1" text-anchor="middle" font-size="5.1" font-family="Tahoma,Geneva,sans-serif" font-weight="bold" fill="rgb(100,100,100)">U</text><circle cx="154.6" cy="-102.5" r="4.04" fill="lightgreen" stroke="#ccc" stroke-width="1.48"/><text x="154.6" y="-100.5" text-anchor="middle" font-size="5.1" font-family="Tahoma,Geneva,sans-serif" font-weight="bold" fill="rgb(100,100,100)">G</text><circle cx="149.2" cy="-113.0" r="4.04" fill="lightsalmon" stroke="#ccc" stroke-width="1.48"/><text x="149.2" y="-110.9" text-anchor="middle" font-size="5.1" font-family="Tahoma,Geneva,sans-serif" font-weight="bold" fill="rgb(100,100,100)">A</text><circle cx="159.6" cy="-122.0" r="4.04" fill="lightsalmon" stroke="#ccc" stroke-width="1.48"/><text x="159.6" y="-119.9" text-anchor="middle" font-size="5.1" font-family="Tahoma,Geneva,sans-serif" font-weight="bold" fill="rgb(100,100,100)">C</text><circle cx="147.4" cy="-127.2" r="4.04" fill="lightgreen" stroke="#ccc" stroke-width="1.48"/><text x="147.4" y="-125.2" text-anchor="middle" font-size="5.1" font-family="Tahoma,Geneva,sans-serif" font-weight="bold" fill="rgb(100,100,100)">G</text><circle cx="142.5" cy="-134.4" r="4.04" fill="lightgreen" stroke="#ccc" stroke-width="1.48"/><text x="142.5" y="-132.4" text-anchor="middle" font-size="5.1" font-family="Tahoma,Geneva,sans-serif" font-weight="bold" fill="rgb(100,100,100)">C</text><circle cx="136.5" cy="-140.7" r="4.04" fill="lightgreen" stroke="#ccc" stroke-width="1.48"/><text x="136.5" y="-138.7" text-anchor="middle" font-size="5.1" font-family="Tahoma,Geneva,sans-serif" font-weight="bold" fill="rgb(100,100,100)">G</text><circle cx="129.6" cy="-145.9" r="4.04" fill="lightgreen" stroke="#ccc" stroke-width="1.48"/><text x="129.6" y="-143.9" text-anchor="middle" font-size="5.1" font-family="Tahoma,Geneva,sans-serif" font-weight="bold" fill="rgb(100,100,100)">C</text><circle cx="122.0" cy="-150.0" r="4.04" fill="lightgreen" stroke="#ccc" stroke-width="1.48"/><text x="122.0" y="-148.0" text-anchor="middle" font-size="5.1" font-family="Tahoma,Geneva,sans-serif" font-weight="bold" fill="rgb(100,100,100)">U</text><circle cx="116.2" cy="-162.2" r="4.04" fill="lightsalmon" stroke="#ccc" stroke-width="1.48"/><text x="116.2" y="-160.2" text-anchor="middle" font-size="5.1" font-family="Tahoma,Geneva,sans-serif" font-weight="bold" fill="rgb(100,100,100)">A</text><circle cx="105.2" cy="-154.4" r="4.04" fill="lightgreen" stroke="#ccc" stroke-width="1.48"/><text x="105.2" y="-152.4" text-anchor="middle" font-size="5.1" font-family="Tahoma,Geneva,sans-serif" font-weight="bold" fill="rgb(100,100,100)">U</text><circle cx="96.6" cy="-154.5" r="4.04" fill="lightgreen" stroke="#ccc" stroke-width="1.48"/><text x="96.6" y="-152.5" text-anchor="middle" font-size="5.1" font-family="Tahoma,Geneva,sans-serif" font-weight="bold" fill="rgb(100,100,100)">C</text><circle cx="88.0" cy="-153.3" r="4.04" fill="lightgreen" stroke="#ccc" stroke-width="1.48"/><text x="88.0" y="-151.3" text-anchor="middle" font-size="5.1" font-family="Tahoma,Geneva,sans-serif" font-weight="bold" fill="rgb(100,100,100)">G</text><circle cx="79.7" cy="-150.7" r="4.04" fill="lightgreen" stroke="#ccc" stroke-width="1.48"/><text x="79.7" y="-148.7" text-anchor="middle" font-size="5.1" font-family="Tahoma,Geneva,sans-serif" font-weight="bold" fill="rgb(100,100,100)">U</text></svg>