<svg xmlns="http://www.w3.org/2000/svg" viewBox="-190.3 -208.4 539.1 272.7" width="539" height="273"><style></style><line x1="-130.9" y1="-122.2" x2="-131.4" y2="-107.2" stroke="#999" stroke-width="1.62" stroke-opacity="0.8"/><line x1="-115.9" y1="-121.6" x2="-116.4" y2="-106.7" stroke="#999" stroke-width="1.62" stroke-opacity="0.8"/><line x1="-100.9" y1="-121.1" x2="-101.4" y2="-106.1" stroke="#999" stroke-width="1.62" stroke-opacity="0.8"/><line x1="-85.9" y1="-120.6" x2="-86.5" y2="-105.6" stroke="#999" stroke-width="1.62" stroke-opacity="0.8"/><line x1="-70.4" y1="-119.7" x2="-71.5" y2="-104.8" stroke="#999" stroke-width="1.62" stroke-opacity="0.8"/><line x1="-55.4" y1="-118.7" x2="-56.5" y2="-103.7" stroke="#999" stroke-width="1.62" stroke-opacity="0.8"/><line x1="-40.5" y1="-117.6" x2="-41.6" y2="-102.6" stroke="#999" stroke-width="1.62" stroke-opacity="0.8"/><line x1="-25.5" y1="-116.5" x2="-26.6" y2="-101.6" stroke="#999" stroke-width="1.62" stroke-opacity="0.8"/><line x1="-10.6" y1="-115.5" x2="-11.6" y2="-100.5" stroke="#999" stroke-width="1.62" stroke-opacity="0.8"/><line x1="4.4" y1="-114.4" x2="3.3" y2="-99.4" stroke="#999" stroke-width="1.62" stroke-opacity="0.8"/><line x1="19.4" y1="-113.3" x2="18.3" y2="-98.4" stroke="#999" stroke-width="1.62" stroke-opacity="0.8"/><line x1="34.3" y1="-112.2" x2="33.3" y2="-97.3" stroke="#999" stroke-width="1.62" stroke-opacity="0.8"/><line x1="49.3" y1="-111.2" x2="48.2" y2="-96.2" stroke="#999" stroke-width="1.62" stroke-opacity="0.8"/><line x1="75.7" y1="-109.3" x2="74.7" y2="-94.3" stroke="#999" stroke-width="1.62" stroke-opacity="0.8"/><line x1="90.7" y1="-108.2" x2="89.6" y2="-93.3" stroke="#999" stroke-width="1.62" stroke-opacity="0.8"/><line x1="281.3" y1="12.4" x2="288.5" y2="-0.8" stroke="#999" stroke-width="1.62" stroke-opacity="0.8"/><line x1="268.1" y1="5.2" x2="275.3" y2="-8.0" stroke="#999" stroke-width="1.62" stroke-opacity="0.8"/><line x1="255.0" y1="-2.0" x2="262.1" y2="-15.2" stroke="#999" stroke-width="1.62" stroke-opacity="0.8"/><line x1="231.7" y1="-14.7" x2="238.9" y2="-27.9" stroke="#999" stroke-width="1.62" stroke-opacity="0.8"/><line x1="218.5" y1="-21.9" x2="225.7" y2="-35.1" stroke="#999" stroke-width="1.62" stroke-opacity="0.8"/><line x1="205.3" y1="-29.1" x2="212.5" y2="-42.3" stroke="#999" stroke-width="1.62" stroke-opacity="0.8"/><line x1="191.8" y1="-36.8" x2="199.5" y2="-49.7" stroke="#999" stroke-width="1.62" stroke-opacity="0.8"/><line x1="178.9" y1="-44.4" x2="186.6" y2="-57.3" stroke="#999" stroke-width="1.62" stroke-opacity="0.8"/><line x1="156.1" y1="-58.0" x2="163.8" y2="-70.9" stroke="#999" stroke-width="1.62" stroke-opacity="0.8"/><line x1="143.2" y1="-65.6" x2="150.9" y2="-78.5" stroke="#999" stroke-width="1.62" stroke-opacity="0.8"/><line x1="130.3" y1="-73.3" x2="138.0" y2="-86.2" stroke="#999" stroke-width="1.62" stroke-opacity="0.8"/><line x1="117.4" y1="-80.9" x2="125.1" y2="-93.8" stroke="#999" stroke-width="1.62" stroke-opacity="0.8"/><line x1="104.5" y1="-88.6" x2="112.2" y2="-101.5" stroke="#999" stroke-width="1.62" stroke-opacity="0.8"/><line x1="316.4" y1="6.5" x2="148.6" y2="-124.1" stroke="#d9534f" stroke-width="1.62" stroke-opacity="0.6"/><line x1="315.6" y1="22.6" x2="152.4" y2="-138.6" stroke="#d9534f" stroke-width="1.62" stroke-opacity="0.6"/><line x1="302.5" y1="31.9" x2="150.5" y2="-153.5" stroke="#d9534f" stroke-width="1.62" stroke-opacity="0.6"/><line x1="287.2" y1="27.3" x2="143.2" y2="-166.6" stroke="#d9534f" stroke-width="1.62" stroke-opacity="0.6"/><line x1="70.8" y1="-136.1" x2="83.9" y2="-124.8" stroke="#999" stroke-width="1.62" stroke-opacity="0.8"/><line x1="83.9" y1="-124.8" x2="90.7" y2="-108.2" stroke="#999" stroke-width="1.62" stroke-opacity="0.8"/><line x1="90.7" y1="-108.2" x2="75.7" y2="-109.3" stroke="#999" stroke-width="1.62" stroke-opacity="0.8"/><line x1="75.7" y1="-109.3" x2="62.9" y2="-116.1" stroke="#999" stroke-width="1.62" stroke-opacity="0.8"/><line x1="62.9" y1="-116.1" x2="49.3" y2="-111.2" stroke="#999" stroke-width="1.62" stroke-opacity="0.8"/><line x1="49.3" y1="-111.2" x2="34.3" y2="-112.2" stroke="#999" stroke-width="1.62" stroke-opacity="0.8"/><line x1="34.3" y1="-112.2" x2="19.4" y2="-113.3" stroke="#999" stroke-width="1.62" stroke-opacity="0.8"/><line x1="19.4" y1="-113.3" x2="4.4" y2="-114.4" stroke="#999" stroke-width="1.62" stroke-opacity="0.8"/><line x1="4.4" y1="-114.4" x2="-10.6" y2="-115.5" stroke="#999" stroke-width="1.62" stroke-opacity="0.8"/><line x1="-10.6" y1="-115.5" x2="-25.5" y2="-116.5" stroke="#999" stroke-width="1.62" stroke-opacity="0.8"/><line x1="-25.5" y1="-116.5" x2="-40.5" y2="-117.6" stroke="#999" stroke-width="1.62" stroke-opacity="0.8"/><line x1="-40.5" y1="-117.6" x2="-55.4" y2="-118.7" stroke="#999" stroke-width="1.62" stroke-opacity="0.8"/><line x1="-55.4" y1="-118.7" x2="-70.4" y2="-119.7" stroke="#999" stroke-width="1.62" stroke-opacity="0.8"/><line x1="-70.4" y1="-119.7" x2="-77.5" y2="-132.7" stroke="#999" stroke-width="1.62" stroke-opacity="0.8"/><line x1="-77.5" y1="-132.7" x2="-85.9" y2="-120.6" stroke="#999" stroke-width="1.62" stroke-opacity="0.8"/><line x1="-85.9" y1="-120.6" x2="-100.9" y2="-121.1" stroke="#999" stroke-width="1.62" stroke-opacity="0.8"/><line x1="-100.9" y1="-121.1" x2="-115.9" y2="-121.6" stroke="#999" stroke-width="1.62" stroke-opacity="0.8"/><line x1="-115.9" y1="-121.6" x2="-130.9" y2="-122.2" stroke="#999" stroke-width="1.62" stroke-opacity="0.8"/><line x1="-130.9" y1="-122.2" x2="-143.9" y2="-129.1" stroke="#999" stroke-width="1.62" stroke-opacity="0.8"/><line x1="-143.9" y1="-129.1" x2="-157.4" y2="-123.0" stroke="#999" stroke-width="1.62" stroke-opacity="0.8"/><line x1="-157.4" y1="-123.0" x2="-157.9" y2="-108.3" stroke="#999" stroke-width="1.62" stroke-opacity="0.8"/><line x1="-157.9" y1="-108.3" x2="-144.9" y2="-101.3" stroke="#999" stroke-width="1.62" stroke-opacity="0.8"/><line x1="-144.9" y1="-101.3" x2="-131.4" y2="-107.2" stroke="#999" stroke-width="1.62" stroke-opacity="0.8"/><line x1="-131.4" y1="-107.2" x2="-116.4" y2="-106.7" stroke="#999" stroke-width="1.62" stroke-opacity="0.8"/><line x1="-116.4" y1="-106.7" x2="-101.4" y2="-106.1" stroke="#999" stroke-width="1.62" stroke-opacity="0.8"/><line x1="-101.4" y1="-106.1" x2="-86.5" y2="-105.6" stroke="#999" stroke-width="1.62" stroke-opacity="0.8"/><line x1="-86.5" y1="-105.6" x2="-71.5" y2="-104.8" stroke="#999" stroke-width="1.62" stroke-opacity="0.8"/><line x1="-71.5" y1="-104.8" x2="-56.5" y2="-103.7" stroke="#999" stroke-width="1.62" stroke-opacity="0.8"/><line x1="-56.5" y1="-103.7" x2="-41.6" y2="-102.6" stroke="#999" stroke-width="1.62" stroke-opacity="0.8"/><line x1="-41.6" y1="-102.6" x2="-26.6" y2="-101.6" stroke="#999" stroke-width="1.62" stroke-opacity="0.8"/><line x1="-26.6" y1="-101.6" x2="-11.6" y2="-100.5" stroke="#999" stroke-width="1.62" stroke-opacity="0.8"/><line x1="-11.6" y1="-100.5" x2="3.3" y2="-99.4" stroke="#999" stroke-width="1.62" stroke-opacity="0.8"/><line x1="3.3" y1="-99.4" x2="18.3" y2="-98.4" stroke="#999" stroke-width="1.62" stroke-opacity="0.8"/><line x1="18.3" y1="-98.4" x2="33.3" y2="-97.3" stroke="#999" stroke-width="1.62" stroke-opacity="0.8"/><line x1="33.3" y1="-97.3" x2="48.2" y2="-96.2" stroke="#999" stroke-width="1.62" stroke-opacity="0.8"/><line x1="48.2" y1="-96.2" x2="61.0" y2="-88.8" stroke="#999" stroke-width="1.62" stroke-opacity="0.8"/><line x1="61.0" y1="-88.8" x2="74.7" y2="-94.3" stroke="#999" stroke-width="1.62" stroke-opacity="0.8"/><line x1="74.7" y1="-94.3" x2="89.6" y2="-93.3" stroke="#999" stroke-width="1.62" stroke-opacity="0.8"/><line x1="89.6" y1="-93.3" x2="93.3" y2="-79.0" stroke="#999" stroke-width="1.62" stroke-opacity="0.8"/><line x1="93.3" y1="-79.0" x2="104.5" y2="-88.6" stroke="#999" stroke-width="1.62" stroke-opacity="0.8"/><line x1="104.5" y1="-88.6" x2="117.4" y2="-80.9" stroke="#999" stroke-width="1.62" stroke-opacity="0.8"/><line x1="117.4" y1="-80.9" x2="130.3" y2="-73.3" stroke="#999" stroke-width="1.62" stroke-opacity="0.8"/><line x1="130.3" y1="-73.3" x2="143.2" y2="-65.6" stroke="#999" stroke-width="1.62" stroke-opacity="0.8"/><line x1="143.2" y1="-65.6" x2="156.1" y2="-58.0" stroke="#999" stroke-width="1.62" stroke-opacity="0.8"/><line x1="156.1" y1="-58.0" x2="164.3" y2="-45.7" stroke="#999" stroke-width="1.62" stroke-opacity="0.8"/><line x1="164.3" y1="-45.7" x2="178.9" y2="-44.4" stroke="#999" stroke-width="1.62" stroke-opacity="0.8"/><line x1="178.9" y1="-44.4" x2="191.8" y2="-36.8" stroke="#999" stroke-width="1.62" stroke-opacity="0.8"/><line x1="191.8" y1="-36.8" x2="192.4" y2="-22.1" stroke="#999" stroke-width="1.62" stroke-opacity="0.8"/><line x1="192.4" y1="-22.1" x2="205.3" y2="-29.1" stroke="#999" stroke-width="1.62" stroke-opacity="0.8"/><line x1="205.3" y1="-29.1" x2="218.5" y2="-21.9" stroke="#999" stroke-width="1.62" stroke-opacity="0.8"/><line x1="218.5" y1="-21.9" x2="231.7" y2="-14.7" stroke="#999" stroke-width="1.62" stroke-opacity="0.8"/><line x1="231.7" y1="-14.7" x2="240.2" y2="-2.7" stroke="#999" stroke-width="1.62" stroke-opacity="0.8"/><line x1="240.2" y1="-2.7" x2="255.0" y2="-2.0" stroke="#999" stroke-width="1.62" stroke-opacity="0.8"/><line x1="255.0" y1="-2.0" x2="268.1" y2="5.2" stroke="#999" stroke-width="1.62" stroke-opacity="0.8"/><line x1="268.1" y1="5.2" x2="281.3" y2="12.4" stroke="#999" stroke-width="1.62" stroke-opacity="0.8"/><line x1="281.3" y1="12.4" x2="287.2" y2="27.3" stroke="#999" stroke-width="1.62" stroke-opacity="0.8"/><line x1="287.2" y1="27.3" x2="302.5" y2="31.9" stroke="#999" stroke-width="1.62" stroke-opacity="0.8"/><line x1="302.5" y1="31.9" x2="315.6" y2="22.6" stroke="#999" stroke-width="1.62" stroke-opacity="0.8"/><line x1="315.6" y1="22.6" x2="316.4" y2="6.5" stroke="#999" stroke-width="1.62" stroke-opacity="0.8"/><line x1="316.4" y1="6.5" x2="303.3" y2="-0.5" stroke="#999" stroke-width="1.62" stroke-opacity="0.8"/><line x1="303.3" y1="-0.5" x2="288.5" y2="-0.8" stroke="#999" stroke-width="1.62" stroke-opacity="0.8"/><line x1="288.5" y1="-0.8" x2="275.3" y2="-8.0" stroke="#999" stroke-width="1.62" stroke-opacity="0.8"/><line x1="275.3" y1="-8.0" x2="262.1" y2="-15.2" stroke="#999" stroke-width="1.62" stroke-opacity="0.8"/><line x1="262.1" y1="-15.2" x2="253.6" y2="-27.2" stroke="#999" stroke-width="1.62" stroke-opacity="0.8"/><line x1="253.6" y1="-27.2" x2="238.9" y2="-27.9" stroke="#999" stroke-width="1.62" stroke-opacity="0.8"/><line x1="238.9" y1="-27.9" x2="225.7" y2="-35.1" stroke="#999" stroke-width="1.62" stroke-opacity="0.8"/><line x1="225.7" y1="-35.1" x2="212.5" y2="-42.3" stroke="#999" stroke-width="1.62" stroke-opacity="0.8"/><line x1="212.5" y1="-42.3" x2="199.5" y2="-49.7" stroke="#999" stroke-width="1.62" stroke-opacity="0.8"/><line x1="199.5" y1="-49.7" x2="186.6" y2="-57.3" stroke="#999" stroke-width="1.62" stroke-opacity="0.8"/><line x1="186.6" y1="-57.3" x2="178.5" y2="-69.6" stroke="#999" stroke-width="1.62" stroke-opacity="0.8"/><line x1="178.5" y1="-69.6" x2="163.8" y2="-70.9" stroke="#999" stroke-width="1.62" stroke-opacity="0.8"/><line x1="163.8" y1="-70.9" x2="150.9" y2="-78.5" stroke="#999" stroke-width="1.62" stroke-opacity="0.8"/><line x1="150.9" y1="-78.5" x2="138.0" y2="-86.2" stroke="#999" stroke-width="1.62" stroke-opacity="0.8"/><line x1="138.0" y1="-86.2" x2="125.1" y2="-93.8" stroke="#999" stroke-width="1.62" stroke-opacity="0.8"/><line x1="125.1" y1="-93.8" x2="112.2" y2="-101.5" stroke="#999" stroke-width="1.62" stroke-opacity="0.8"/><line x1="112.2" y1="-101.5" x2="121.6" y2="-113.7" stroke="#999" stroke-width="1.62" stroke-opacity="0.8"/><line x1="121.6" y1="-113.7" x2="136.7" y2="-114.8" stroke="#999" stroke-width="1.62" stroke-opacity="0.8"/><line x1="136.7" y1="-114.8" x2="148.6" y2="-124.1" stroke="#999" stroke-width="1.62" stroke-opacity="0.8"/><line x1="148.6" y1="-124.1" x2="152.4" y2="-138.6" stroke="#999" stroke-width="1.62" stroke-opacity="0.8"/><line x1="152.4" y1="-138.6" x2="150.5" y2="-153.5" stroke="#999" stroke-width="1.62" stroke-opacity="0.8"/><line x1="150.5" y1="-153.5" x2="143.2" y2="-166.6" stroke="#999" stroke-width="1.62" stroke-opacity="0.8"/><line x1="143.2" y1="-166.6" x2="129.3" y2="-173.6" stroke="#999" stroke-width="1.62" stroke-opacity="0.8"/><line x1="129.3" y1="-173.6" x2="113.8" y2="-175.9" stroke="#999" stroke-width="1.62" stroke-opacity="0.8"/><line x1="113.8" y1="-175.9" x2="98.3" y2="-172.3" stroke="#999" stroke-width="1.62" stroke-opacity="0.8"/><line x1="98.3" y1="-172.3" x2="83.7" y2="-165.0" stroke="#999" stroke-width="1.62" stroke-opacity="0.8"/><line x1="83.7" y1="-165.0" x2="68.9" y2="-157.1" stroke="#999" stroke-width="1.62" stroke-opacity="0.8"/><text x="59.2" y="-120.0" text-anchor="middle" font-size="7.7" font-family="Tahoma,Geneva,sans-serif" fill="#999">1</text><text x="-9.3" y="-130.4" text-anchor="middle" font-size="7.7" font-family="Tahoma,Geneva,sans-serif" fill="#999">10</text><text x="-143.4" y="-144.1" text-anchor="middle" font-size="7.7" font-family="Tahoma,Geneva,sans-serif" fill="#999">20</text><text x="-42.8" y="-82.3" text-anchor="middle" font-size="7.7" font-family="Tahoma,Geneva,sans-serif" fill="#999">30</text><text x="88.1" y="-59.4" text-anchor="middle" font-size="7.7" font-family="Tahoma,Geneva,sans-serif" fill="#999">40</text><text x="205.2" y="-8.7" text-anchor="middle" font-size="7.7" font-family="Tahoma,Geneva,sans-serif" fill="#999">50</text><text x="332.0" y="0.9" text-anchor="middle" font-size="7.7" font-family="Tahoma,Geneva,sans-serif" fill="#999">60</text><text x="198.8" y="-67.5" text-anchor="middle" font-size="7.7" font-family="Tahoma,Geneva,sans-serif" fill="#999">70</text><text x="134.7" y="-137.0" text-anchor="middle" font-size="7.7" font-family="Tahoma,Geneva,sans-serif" fill="#999">80</text><circle cx="70.8" cy="-136.1" r="4.42" fill="lightsalmon" stroke="#ccc" stroke-width="1.62"/><text x="70.8" y="-133.9" text-anchor="middle" font-size="5.5" font-family="Tahoma,Geneva,sans-serif" font-weight="bold" fill="rgb(100,100,100)">G</text><circle cx="83.9" cy="-124.8" r="4.42" fill="lightsalmon" stroke="#ccc" stroke-width="1.62"/><text x="83.9" y="-122.6" text-anchor="middle" font-size="5.5" font-family="Tahoma,Geneva,sans-serif" font-weight="bold" fill="rgb(100,100,100)">C</text><circle cx="90.7" cy="-108.2" r="4.42" fill="lightgreen" stroke="#ccc" stroke-width="1.62"/><text x="90.7" y="-106.0" text-anchor="middle" font-size="5.5" font-family="Tahoma,Geneva,sans-serif" font-weight="bold" fill="rgb(100,100,100)">G</text><circle cx="75.7" cy="-109.3" r="4.42" fill="lightgreen" stroke="#ccc" stroke-width="1.62"/><text x="75.7" y="-107.1" text-anchor="middle" font-size="5.5" font-family="Tahoma,Geneva,sans-serif" font-weight="bold" fill="rgb(100,100,100)">G</text><circle cx="62.9" cy="-116.1" r="4.42" fill="#dbdb8d" stroke="#ccc" stroke-width="1.62"/><text x="62.9" y="-113.9" text-anchor="middle" font-size="5.5" font-family="Tahoma,Geneva,sans-serif" font-weight="bold" fill="rgb(100,100,100)">C</text><circle cx="49.3" cy="-111.2" r="4.42" fill="lightgreen" stroke="#ccc" stroke-width="1.62"/><text x="49.3" y="-109.0" text-anchor="middle" font-size="5.5" font-family="Tahoma,Geneva,sans-serif" font-weight="bold" fill="rgb(100,100,100)">G</text><circle cx="34.3" cy="-112.2" r="4.42" fill="lightgreen" stroke="#ccc" stroke-width="1.62"/><text x="34.3" y="-110.0" text-anchor="middle" font-size="5.5" font-family="Tahoma,Geneva,sans-serif" font-weight="bold" fill="rgb(100,100,100)">A</text><circle cx="19.4" cy="-113.3" r="4.42" fill="lightgreen" stroke="#ccc" stroke-width="1.62"/><text x="19.4" y="-111.1" text-anchor="middle" font-size="5.5" font-family="Tahoma,Geneva,sans-serif" font-weight="bold" fill="rgb(100,100,100)">G</text><circle cx="4.4" cy="-114.4" r="4.42" fill="lightgreen" stroke="#ccc" stroke-width="1.62"/><text x="4.4" y="-112.2" text-anchor="middle" font-size="5.5" font-family="Tahoma,Geneva,sans-serif" font-weight="bold" fill="rgb(100,100,100)">C</text><circle cx="-10.6" cy="-115.5" r="4.42" fill="lightgreen" stroke="#ccc" stroke-width="1.62"/><text x="-10.6" y="-113.2" text-anchor="middle" font-size="5.5" font-family="Tahoma,Geneva,sans-serif" font-weight="bold" fill="rgb(100,100,100)">U</text><circle cx="-25.5" cy="-116.5" r="4.42" fill="lightgreen" stroke="#ccc" stroke-width="1.62"/><text x="-25.5" y="-114.3" text-anchor="middle" font-size="5.5" font-family="Tahoma,Geneva,sans-serif" font-weight="bold" fill="rgb(100,100,100)">U</text><circle cx="-40.5" cy="-117.6" r="4.42" fill="lightgreen" stroke="#ccc" stroke-width="1.62"/><text x="-40.5" y="-115.4" text-anchor="middle" font-size="5.5" font-family="Tahoma,Geneva,sans-serif" font-weight="bold" fill="rgb(100,100,100)">C</text><circle cx="-55.4" cy="-118.7" r="4.42" fill="lightgreen" stroke="#ccc" stroke-width="1.62"/><text x="-55.4" y="-116.5" text-anchor="middle" font-size="5.5" font-family="Tahoma,Geneva,sans-serif" font-weight="bold" fill="rgb(100,100,100)">A</text><circle cx="-70.4" cy="-119.7" r="4.42" fill="lightgreen" stroke="#ccc" stroke-width="1.62"/><text x="-70.4" y="-117.5" text-anchor="middle" font-size="5.5" font-family="Tahoma,Geneva,sans-serif" font-weight="bold" fill="rgb(100,100,100)">U</text><circle cx="-77.5" cy="-132.7" r="4.42" fill="#dbdb8d" stroke="#ccc" stroke-width="1.62"/><text x="-77.5" y="-130.5" text-anchor="middle" font-size="5.5" font-family="Tahoma,Geneva,sans-serif" font-weight="bold" fill="rgb(100,100,100)">U</text><circle cx="-85.9" cy="-120.6" r="4.42" fill="lightgreen" stroke="#ccc" stroke-width="1.62"/><text x="-85.9" y="-118.4" text-anchor="middle" font-size="5.5" font-family="Tahoma,Geneva,sans-serif" font-weight="bold" fill="rgb(100,100,100)">A</text><circle cx="-100.9" cy="-121.1" r="4.42" fill="lightgreen" stroke="#ccc" stroke-width="1.62"/><text x="-100.9" y="-118.9" text-anchor="middle" font-size="5.5" font-family="Tahoma,Geneva,sans-serif" font-weight="bold" fill="rgb(100,100,100)">C</text><circle cx="-115.9" cy="-121.6" r="4.42" fill="lightgreen" stroke="#ccc" stroke-width="1.62"/><text x="-115.9" y="-119.4" text-anchor="middle" font-size="5.5" font-family="Tahoma,Geneva,sans-serif" font-weight="bold" fill="rgb(100,100,100)">A</text><circle cx="-130.9" cy="-122.2" r="4.42" fill="lightgreen" stroke="#ccc" stroke-width="1.62"/><text x="-130.9" y="-120.0" text-anchor="middle" font-size="5.5" font-family="Tahoma,Geneva,sans-serif" font-weight="bold" fill="rgb(100,100,100)">A</text><circle cx="-143.9" cy="-129.1" r="4.42" fill="lightblue" stroke="#ccc" stroke-width="1.62"/><text x="-143.9" y="-126.8" text-anchor="middle" font-size="5.5" font-family="Tahoma,Geneva,sans-serif" font-weight="bold" fill="rgb(100,100,100)">U</text><circle cx="-157.4" cy="-123.0" r="4.42" fill="lightblue" stroke="#ccc" stroke-width="1.62"/><text x="-157.4" y="-120.8" text-anchor="middle" font-size="5.5" font-family="Tahoma,Geneva,sans-serif" font-weight="bold" fill="rgb(100,100,100)">U</text><circle cx="-157.9" cy="-108.3" r="4.42" fill="lightblue" stroke="#ccc" stroke-width="1.62"/><text x="-157.9" y="-106.0" text-anchor="middle" font-size="5.5" font-family="Tahoma,Geneva,sans-serif" font-weight="bold" fill="rgb(100,100,100)">U</text><circle cx="-144.9" cy="-101.3" r="4.42" fill="lightblue" stroke="#ccc" stroke-width="1.62"/><text x="-144.9" y="-99.0" text-anchor="middle" font-size="5.5" font-family="Tahoma,Geneva,sans-serif" font-weight="bold" fill="rgb(100,100,100)">U</text><circle cx="-131.4" cy="-107.2" r="4.42" fill="lightgreen" stroke="#ccc" stroke-width="1.62"/><text x="-131.4" y="-105.0" text-anchor="middle" font-size="5.5" font-family="Tahoma,Geneva,sans-serif" font-weight="bold" fill="rgb(100,100,100)">U</text><circle cx="-116.4" cy="-106.7" r="4.42" fill="lightgreen" stroke="#ccc" stroke-width="1.62"/><text x="-116.4" y="-104.4" text-anchor="middle" font-size="5.5" font-family="Tahoma,Geneva,sans-serif" font-weight="bold" fill="rgb(100,100,100)">U</text><circle cx="-101.4" cy="-106.1" r="4.42" fill="lightgreen" stroke="#ccc" stroke-width="1.62"/><text x="-101.4" y="-103.9" text-anchor="middle" font-size="5.5" font-family="Tahoma,Geneva,sans-serif" font-weight="bold" fill="rgb(100,100,100)">G</text><circle cx="-86.5" cy="-105.6" r="4.42" fill="lightgreen" stroke="#ccc" stroke-width="1.62"/><text x="-86.5" y="-103.4" text-anchor="middle" font-size="5.5" font-family="Tahoma,Geneva,sans-serif" font-weight="bold" fill="rgb(100,100,100)">U</text><circle cx="-71.5" cy="-104.8" r="4.42" fill="lightgreen" stroke="#ccc" stroke-width="1.62"/><text x="-71.5" y="-102.6" text-anchor="middle" font-size="5.5" font-family="Tahoma,Geneva,sans-serif" font-weight="bold" fill="rgb(100,100,100)">A</text><circle cx="-56.5" cy="-103.7" r="4.42" fill="lightgreen" stroke="#ccc" stroke-width="1.62"/><text x="-56.5" y="-101.5" text-anchor="middle" font-size="5.5" font-family="Tahoma,Geneva,sans-serif" font-weight="bold" fill="rgb(100,100,100)">U</text><circle cx="-41.6" cy="-102.6" r="4.42" fill="lightgreen" stroke="#ccc" stroke-width="1.62"/><text x="-41.6" y="-100.4" text-anchor="middle" font-size="5.5" font-family="Tahoma,Geneva,sans-serif" font-weight="bold" fill="rgb(100,100,100)">G</text><circle cx="-26.6" cy="-101.6" r="4.42" fill="lightgreen" stroke="#ccc" stroke-width="1.62"/><text x="-26.6" y="-99.4" text-anchor="middle" font-size="5.5" font-family="Tahoma,Geneva,sans-serif" font-weight="bold" fill="rgb(100,100,100)">A</text><circle cx="-11.6" cy="-100.5" r="4.42" fill="lightgreen" stroke="#ccc" stroke-width="1.62"/><text x="-11.6" y="-98.3" text-anchor="middle" font-size="5.5" font-family="Tahoma,Geneva,sans-serif" font-weight="bold" fill="rgb(100,100,100)">G</text><circle cx="3.3" cy="-99.4" r="4.42" fill="lightgreen" stroke="#ccc" stroke-width="1.62"/><text x="3.3" y="-97.2" text-anchor="middle" font-size="5.5" font-family="Tahoma,Geneva,sans-serif" font-weight="bold" fill="rgb(100,100,100)">G</text><circle cx="18.3" cy="-98.4" r="4.42" fill="lightgreen" stroke="#ccc" stroke-width="1.62"/><text x="18.3" y="-96.1" text-anchor="middle" font-size="5.5" font-family="Tahoma,Geneva,sans-serif" font-weight="bold" fill="rgb(100,100,100)">U</text><circle cx="33.3" cy="-97.3" r="4.42" fill="lightgreen" stroke="#ccc" stroke-width="1.62"/><text x="33.3" y="-95.1" text-anchor="middle" font-size="5.5" font-family="Tahoma,Geneva,sans-serif" font-weight="bold" fill="rgb(100,100,100)">U</text><circle cx="48.2" cy="-96.2" r="4.42" fill="lightgreen" stroke="#ccc" stroke-width="1.62"/><text x="48.2" y="-94.0" text-anchor="middle" font-size="5.5" font-family="Tahoma,Geneva,sans-serif" font-weight="bold" fill="rgb(100,100,100)">C</text><circle cx="61.0" cy="-88.8" r="4.42" fill="#dbdb8d" stroke="#ccc" stroke-width="1.62"/><text x="61.0" y="-86.6" text-anchor="middle" font-size="5.5" font-family="Tahoma,Geneva,sans-serif" font-weight="bold" fill="rgb(100,100,100)">A</text><circle cx="74.7" cy="-94.3" r="4.42" fill="lightgreen" stroke="#ccc" stroke-width="1.62"/><text x="74.7" y="-92.1" text-anchor="middle" font-size="5.5" font-family="Tahoma,Geneva,sans-serif" font-weight="bold" fill="rgb(100,100,100)">C</text><circle cx="89.6" cy="-93.3" r="4.42" fill="lightgreen" stroke="#ccc" stroke-width="1.62"/><text x="89.6" y="-91.0" text-anchor="middle" font-size="5.5" font-family="Tahoma,Geneva,sans-serif" font-weight="bold" fill="rgb(100,100,100)">C</text><circle cx="93.3" cy="-79.0" r="4.42" fill="lightsalmon" stroke="#ccc" stroke-width="1.62"/><text x="93.3" y="-76.8" text-anchor="middle" font-size="5.5" font-family="Tahoma,Geneva,sans-serif" font-weight="bold" fill="rgb(100,100,100)">U</text><circle cx="104.5" cy="-88.6" r="4.42" fill="lightgreen" stroke="#ccc" stroke-width="1.62"/><text x="104.5" y="-86.4" text-anchor="middle" font-size="5.5" font-family="Tahoma,Geneva,sans-serif" font-weight="bold" fill="rgb(100,100,100)">U</text><circle cx="117.4" cy="-80.9" r="4.42" fill="lightgreen" stroke="#ccc" stroke-width="1.62"/><text x="117.4" y="-78.7" text-anchor="middle" font-size="5.5" font-family="Tahoma,Geneva,sans-serif" font-weight="bold" fill="rgb(100,100,100)">C</text><circle cx="130.3" cy="-73.3" r="4.42" fill="lightgreen" stroke="#ccc" stroke-width="1.62"/><text x="130.3" y="-71.1" text-anchor="middle" font-size="5.5" font-family="Tahoma,Geneva,sans-serif" font-weight="bold" fill="rgb(100,100,100)">G</text><circle cx="143.2" cy="-65.6" r="4.42" fill="lightgreen" stroke="#ccc" stroke-width="1.62"/><text x="143.2" y="-63.4" text-anchor="middle" font-size="5.5" font-family="Tahoma,Geneva,sans-serif" font-weight="bold" fill="rgb(100,100,100)">G</text><circle cx="156.1" cy="-58.0" r="4.42" fill="lightgreen" stroke="#ccc" stroke-width="1.62"/><text x="156.1" y="-55.8" text-anchor="middle" font-size="5.5" font-family="Tahoma,Geneva,sans-serif" font-weight="bold" fill="rgb(100,100,100)">G</text><circle cx="164.3" cy="-45.7" r="4.42" fill="#dbdb8d" stroke="#ccc" stroke-width="1.62"/><text x="164.3" y="-43.5" text-anchor="middle" font-size="5.5" font-family="Tahoma,Geneva,sans-serif" font-weight="bold" fill="rgb(100,100,100)">C</text><circle cx="178.9" cy="-44.4" r="4.42" fill="lightgreen" stroke="#ccc" stroke-width="1.62"/><text x="178.9" y="-42.2" text-anchor="middle" font-size="5.5" font-family="Tahoma,Geneva,sans-serif" font-weight="bold" fill="rgb(100,100,100)">A</text><circle cx="191.8" cy="-36.8" r="4.42" fill="lightgreen" stroke="#ccc" stroke-width="1.62"/><text x="191.8" y="-34.6" text-anchor="middle" font-size="5.5" font-family="Tahoma,Geneva,sans-serif" font-weight="bold" fill="rgb(100,100,100)">C</text><circle cx="192.4" cy="-22.1" r="4.42" fill="#dbdb8d" stroke="#ccc" stroke-width="1.62"/><text x="192.4" y="-19.8" text-anchor="middle" font-size="5.5" font-family="Tahoma,Geneva,sans-serif" font-weight="bold" fill="rgb(100,100,100)">A</text><circle cx="205.3" cy="-29.1" r="4.42" fill="lightgreen" stroke="#ccc" stroke-width="1.62"/><text x="205.3" y="-26.9" text-anchor="middle" font-size="5.5" font-family="Tahoma,Geneva,sans-serif" font-weight="bold" fill="rgb(100,100,100)">C</text><circle cx="218.5" cy="-21.9" r="4.42" fill="lightgreen" stroke="#ccc" stroke-width="1.62"/><text x="218.5" y="-19.7" text-anchor="middle" font-size="5.5" font-family="Tahoma,Geneva,sans-serif" font-weight="bold" fill="rgb(100,100,100)">G</text><circle cx="231.7" cy="-14.7" r="4.42" fill="lightgreen" stroke="#ccc" stroke-width="1.62"/><text x="231.7" y="-12.5" text-anchor="middle" font-size="5.5" font-family="Tahoma,Geneva,sans-serif" font-weight="bold" fill="rgb(100,100,100)">C</text><circle cx="240.2" cy="-2.7" r="4.42" fill="#dbdb8d" stroke="#ccc" stroke-width="1.62"/><text x="240.2" y="-0.5" text-anchor="middle" font-size="5.5" font-family="Tahoma,Geneva,sans-serif" font-weight="bold" fill="rgb(100,100,100)">C</text><circle cx="255.0" cy="-2.0" r="4.42" fill="lightgreen" stroke="#ccc" stroke-width="1.62"/><text x="255.0" y="0.2" text-anchor="middle" font-size="5.5" font-family="Tahoma,Geneva,sans-serif" font-weight="bold" fill="rgb(100,100,100)">G</text><circle cx="268.1" cy="5.2" r="4.42" fill="lightgreen" stroke="#ccc" stroke-width="1.62"/><text x="268.1" y="7.4" text-anchor="middle" font-size="5.5" font-family="Tahoma,Geneva,sans-serif" font-weight="bold" fill="rgb(100,100,100)">A</text><circle cx="281.3" cy="12.4" r="4.42" fill="lightgreen" stroke="#ccc" stroke-width="1.62"/><text x="281.3" y="14.6" text-anchor="middle" font-size="5.5" font-family="Tahoma,Geneva,sans-serif" font-weight="bold" fill="rgb(100,100,100)">U</text><circle cx="287.2" cy="27.3" r="4.42" fill="lightgreen" stroke="#ccc" stroke-width="1.62"/><text x="287.2" y="29.5" text-anchor="middle" font-size="5.5" font-family="Tahoma,Geneva,sans-serif" font-weight="bold" fill="rgb(100,100,100)">U</text><circle cx="302.5" cy="31.9" r="4.42" fill="lightgreen" stroke="#ccc" stroke-width="1.62"/><text x="302.5" y="34.1" text-anchor="middle" font-size="5.5" font-family="Tahoma,Geneva,sans-serif" font-weight="bold" fill="rgb(100,100,100)">C</text><circle cx="315.6" cy="22.6" r="4.42" fill="lightgreen" stroke="#ccc" stroke-width="1.62"/><text x="315.6" y="24.8" text-anchor="middle" font-size="5.5" font-family="Tahoma,Geneva,sans-serif" font-weight="bold" fill="rgb(100,100,100)">A</text><circle cx="316.4" cy="6.5" r="4.42" fill="lightgreen" stroke="#ccc" stroke-width="1.62"/><text x="316.4" y="8.8" text-anchor="middle" font-size="5.5" font-family="Tahoma,Geneva,sans-serif" font-weight="bold" fill="rgb(100,100,100)">U</text><circle cx="303.3" cy="-0.5" r="4.42" fill="lightblue" stroke="#ccc" stroke-width="1.62"/><text x="303.3" y="1.8" text-anchor="middle" font-size="5.5" font-family="Tahoma,Geneva,sans-serif" font-weight="bold" fill="rgb(100,100,100)">U</text><circle cx="288.5" cy="-0.8" r="4.42" fill="lightgreen" stroke="#ccc" stroke-width="1.62"/><text x="288.5" y="1.4" text-anchor="middle" font-size="5.5" font-family="Tahoma,Geneva,sans-serif" font-weight="bold" fill="rgb(100,100,100)">G</text><circle cx="275.3" cy="-8.0" r="4.42" fill="lightgreen" stroke="#ccc" stroke-width="1.62"/><text x="275.3" y="-5.8" text-anchor="middle" font-size="5.5" font-family="Tahoma,Geneva,sans-serif" font-weight="bold" fill="rgb(100,100,100)">U</text><circle cx="262.1" cy="-15.2" r="4.42" fill="lightgreen" stroke="#ccc" stroke-width="1.62"/><text x="262.1" y="-13.0" text-anchor="middle" font-size="5.5" font-family="Tahoma,Geneva,sans-serif" font-weight="bold" fill="rgb(100,100,100)">C</text><circle cx="253.6" cy="-27.2" r="4.42" fill="#dbdb8d" stroke="#ccc" stroke-width="1.62"/><text x="253.6" y="-25.0" text-anchor="middle" font-size="5.5" font-family="Tahoma,Geneva,sans-serif" font-weight="bold" fill="rgb(100,100,100)">C</text><circle cx="238.9" cy="-27.9" r="4.42" fill="lightgreen" stroke="#ccc" stroke-width="1.62"/><text x="238.9" y="-25.7" text-anchor="middle" font-size="5.5" font-family="Tahoma,Geneva,sans-serif" font-weight="bold" fill="rgb(100,100,100)">G</text><circle cx="225.7" cy="-35.1" r="4.42" fill="lightgreen" stroke="#ccc" stroke-width="1.62"/><text x="225.7" y="-32.9" text-anchor="middle" font-size="5.5" font-family="Tahoma,Geneva,sans-serif" font-weight="bold" fill="rgb(100,100,100)">C</text><circle cx="212.5" cy="-42.3" r="4.42" fill="lightgreen" stroke="#ccc" stroke-width="1.62"/><text x="212.5" y="-40.1" text-anchor="middle" font-size="5.5" font-family="Tahoma,Geneva,sans-serif" font-weight="bold" fill="rgb(100,100,100)">G</text><circle cx="199.5" cy="-49.7" r="4.42" fill="lightgreen" stroke="#ccc" stroke-width="1.62"/><text x="199.5" y="-47.5" text-anchor="middle" font-size="5.5" font-family="Tahoma,Geneva,sans-serif" font-weight="bold" fill="rgb(100,100,100)">G</text><circle cx="186.6" cy="-57.3" r="4.42" fill="lightgreen" stroke="#ccc" stroke-width="1.62"/><text x="186.6" y="-55.1" text-anchor="middle" font-size="5.5" font-family="Tahoma,Geneva,sans-serif" font-weight="bold" fill="rgb(100,100,100)">U</text><circle cx="178.5" cy="-69.6" r="4.42" fill="#dbdb8d" stroke="#ccc" stroke-width="1.62"/><text x="178.5" y="-67.4" text-anchor="middle" font-size="5.5" font-family="Tahoma,Geneva,sans-serif" font-weight="bold" fill="rgb(100,100,100)">U</text><circle cx="163.8" cy="-70.9" r="4.42" fill="lightgreen" stroke="#ccc" stroke-width="1.62"/><text x="163.8" y="-68.7" text-anchor="middle" font-size="5.5" font-family="Tahoma,Geneva,sans-serif" font-weight="bold" fill="rgb(100,100,100)">C</text><circle cx="150.9" cy="-78.5" r="4.42" fill="lightgreen" stroke="#ccc" stroke-width="1.62"/><text x="150.9" y="-76.3" text-anchor="middle" font-size="5.5" font-family="Tahoma,Geneva,sans-serif" font-weight="bold" fill="rgb(100,100,100)">C</text><circle cx="138.0" cy="-86.2" r="4.42" fill="lightgreen" stroke="#ccc" stroke-width="1.62"/><text x="138.0" y="-84.0" text-anchor="middle" font-size="5.5" font-family="Tahoma,Geneva,sans-serif" font-weight="bold" fill="rgb(100,100,100)">C</text><circle cx="125.1" cy="-93.8" r="4.42" fill="lightgreen" stroke="#ccc" stroke-width="1.62"/><text x="125.1" y="-91.6" text-anchor="middle" font-size="5.5" font-family="Tahoma,Geneva,sans-serif" font-weight="bold" fill="rgb(100,100,100)">G</text><circle cx="112.2" cy="-101.5" r="4.42" fill="lightgreen" stroke="#ccc" stroke-width="1.62"/><text x="112.2" y="-99.3" text-anchor="middle" font-size="5.5" font-family="Tahoma,Geneva,sans-serif" font-weight="bold" fill="rgb(100,100,100)">A</text><circle cx="121.6" cy="-113.7" r="4.42" fill="lightsalmon" stroke="#ccc" stroke-width="1.62"/><text x="121.6" y="-111.5" text-anchor="middle" font-size="5.5" font-family="Tahoma,Geneva,sans-serif" font-weight="bold" fill="rgb(100,100,100)">U</text><circle cx="136.7" cy="-114.8" r="4.42" fill="lightsalmon" stroke="#ccc" stroke-width="1.62"/><text x="136.7" y="-112.6" text-anchor="middle" font-size="5.5" font-family="Tahoma,Geneva,sans-serif" font-weight="bold" fill="rgb(100,100,100)">U</text><circle cx="148.6" cy="-124.1" r="4.42" fill="lightgreen" stroke="#ccc" stroke-width="1.62"/><text x="148.6" y="-121.9" text-anchor="middle" font-size="5.5" font-family="Tahoma,Geneva,sans-serif" font-weight="bold" fill="rgb(100,100,100)">A</text><circle cx="152.4" cy="-138.6" r="4.42" fill="lightgreen" stroke="#ccc" stroke-width="1.62"/><text x="152.4" y="-136.4" text-anchor="middle" font-size="5.5" font-family="Tahoma,Geneva,sans-serif" font-weight="bold" fill="rgb(100,100,100)">U</text><circle cx="150.5" cy="-153.5" r="4.42" fill="lightgreen" stroke="#ccc" stroke-width="1.62"/><text x="150.5" y="-151.3" text-anchor="middle" font-size="5.5" font-family="Tahoma,Geneva,sans-serif" font-weight="bold" fill="rgb(100,100,100)">G</text><circle cx="143.2" cy="-166.6" r="4.42" fill="lightgreen" stroke="#ccc" stroke-width="1.62"/><text x="143.2" y="-164.4" text-anchor="middle" font-size="5.5" font-family="Tahoma,Geneva,sans-serif" font-weight="bold" fill="rgb(100,100,100)">A</text><circle cx="129.3" cy="-173.6" r="4.42" fill="lightsalmon" stroke="#ccc" stroke-width="1.62"/><text x="129.3" y="-171.4" text-anchor="middle" font-size="5.5" font-family="Tahoma,Geneva,sans-serif" font-weight="bold" fill="rgb(100,100,100)">C</text><circle cx="113.8" cy="-175.9" r="4.42" fill="lightsalmon" stroke="#ccc" stroke-width="1.62"/><text x="113.8" y="-173.7" text-anchor="middle" font-size="5.5" font-family="Tahoma,Geneva,sans-serif" font-weight="bold" fill="rgb(100,100,100)">U</text><circle cx="98.3" cy="-172.3" r="4.42" fill="lightsalmon" stroke="#ccc" stroke-width="1.62"/><text x="98.3" y="-170.0" text-anchor="middle" font-size="5.5" font-family="Tahoma,Geneva,sans-serif" font-weight="bold" fill="rgb(100,100,100)">U</text><circle cx="83.7" cy="-165.0" r="4.42" fill="lightsalmon" stroke="#ccc" stroke-width="1.62"/><text x="83.7" y="-162.8" text-anchor="middle" font-size="5.5" font-family="Tahoma,Geneva,sans-serif" font-weight="bold" fill="rgb(100,100,100)">A</text><circle cx="68.9" cy="-157.1" r="4.42" fill="lightsalmon" stroke="#ccc" stroke-width="1.62"/><text x="68.9" y="-154.9" text-anchor="middle" font-size="5.5" font-family="Tahoma,Geneva,sans-serif" font-weight="bold" fill="rgb(100,100,100)">U</text></svg>