<svg xmlns="http://www.w3.org/2000/svg" viewBox="-64.1 -424.4 325.4 518.4" width="325" height="518"><style></style><line x1="-3.2" y1="17.7" x2="8.8" y2="26.7" stroke="#999" stroke-width="1.65" stroke-opacity="0.8"/><line x1="5.8" y1="5.7" x2="17.8" y2="14.7" stroke="#999" stroke-width="1.65" stroke-opacity="0.8"/><line x1="15.3" y1="-6.6" x2="27.0" y2="2.8" stroke="#999" stroke-width="1.65" stroke-opacity="0.8"/><line x1="24.8" y1="-18.2" x2="36.4" y2="-8.8" stroke="#999" stroke-width="1.65" stroke-opacity="0.8"/><line x1="34.2" y1="-29.9" x2="45.9" y2="-20.5" stroke="#999" stroke-width="1.65" stroke-opacity="0.8"/><line x1="43.6" y1="-41.6" x2="55.3" y2="-32.2" stroke="#999" stroke-width="1.65" stroke-opacity="0.8"/><line x1="53.0" y1="-53.3" x2="64.7" y2="-43.9" stroke="#999" stroke-width="1.65" stroke-opacity="0.8"/><line x1="69.6" y1="-73.9" x2="81.3" y2="-64.5" stroke="#999" stroke-width="1.65" stroke-opacity="0.8"/><line x1="79.1" y1="-85.6" x2="90.7" y2="-76.2" stroke="#999" stroke-width="1.65" stroke-opacity="0.8"/><line x1="88.5" y1="-97.3" x2="100.1" y2="-87.9" stroke="#999" stroke-width="1.65" stroke-opacity="0.8"/><line x1="96.3" y1="-110.1" x2="110.0" y2="-103.8" stroke="#999" stroke-width="1.65" stroke-opacity="0.8"/><line x1="102.6" y1="-123.7" x2="116.2" y2="-117.5" stroke="#999" stroke-width="1.65" stroke-opacity="0.8"/><line x1="108.8" y1="-137.3" x2="122.5" y2="-131.1" stroke="#999" stroke-width="1.65" stroke-opacity="0.8"/><line x1="115.0" y1="-151.0" x2="128.7" y2="-144.8" stroke="#999" stroke-width="1.65" stroke-opacity="0.8"/><line x1="121.3" y1="-164.6" x2="134.9" y2="-158.4" stroke="#999" stroke-width="1.65" stroke-opacity="0.8"/><line x1="127.5" y1="-178.3" x2="141.1" y2="-172.0" stroke="#999" stroke-width="1.65" stroke-opacity="0.8"/><line x1="133.7" y1="-191.9" x2="147.4" y2="-185.7" stroke="#999" stroke-width="1.65" stroke-opacity="0.8"/><line x1="140.0" y1="-205.6" x2="153.6" y2="-199.3" stroke="#999" stroke-width="1.65" stroke-opacity="0.8"/><line x1="146.2" y1="-219.2" x2="159.8" y2="-213.0" stroke="#999" stroke-width="1.65" stroke-opacity="0.8"/><line x1="152.4" y1="-232.9" x2="166.1" y2="-226.6" stroke="#999" stroke-width="1.65" stroke-opacity="0.8"/><line x1="158.7" y1="-246.5" x2="172.3" y2="-240.3" stroke="#999" stroke-width="1.65" stroke-opacity="0.8"/><line x1="164.9" y1="-260.1" x2="178.5" y2="-253.9" stroke="#999" stroke-width="1.65" stroke-opacity="0.8"/><line x1="169.1" y1="-274.5" x2="184.0" y2="-272.4" stroke="#999" stroke-width="1.65" stroke-opacity="0.8"/><line x1="171.3" y1="-289.4" x2="186.1" y2="-287.3" stroke="#999" stroke-width="1.65" stroke-opacity="0.8"/><line x1="173.4" y1="-304.2" x2="188.2" y2="-302.1" stroke="#999" stroke-width="1.65" stroke-opacity="0.8"/><line x1="175.5" y1="-319.1" x2="190.4" y2="-316.9" stroke="#999" stroke-width="1.65" stroke-opacity="0.8"/><line x1="177.7" y1="-333.9" x2="192.5" y2="-331.8" stroke="#999" stroke-width="1.65" stroke-opacity="0.8"/><line x1="179.8" y1="-348.8" x2="194.6" y2="-346.6" stroke="#999" stroke-width="1.65" stroke-opacity="0.8"/><line x1="223.5" y1="-271.4" x2="208.0" y2="-354.7" stroke="#d9534f" stroke-width="1.65" stroke-opacity="0.6"/><line x1="228.3" y1="-257.2" x2="213.0" y2="-369.5" stroke="#d9534f" stroke-width="1.65" stroke-opacity="0.6"/><line x1="224.1" y1="-242.8" x2="207.3" y2="-384.1" stroke="#d9534f" stroke-width="1.65" stroke-opacity="0.6"/><line x1="212.4" y1="-233.4" x2="193.5" y2="-391.5" stroke="#d9534f" stroke-width="1.65" stroke-opacity="0.6"/><line x1="167.8" y1="-361.9" x2="179.8" y2="-348.8" stroke="#999" stroke-width="1.65" stroke-opacity="0.8"/><line x1="179.8" y1="-348.8" x2="177.7" y2="-333.9" stroke="#999" stroke-width="1.65" stroke-opacity="0.8"/><line x1="177.7" y1="-333.9" x2="175.5" y2="-319.1" stroke="#999" stroke-width="1.65" stroke-opacity="0.8"/><line x1="175.5" y1="-319.1" x2="173.4" y2="-304.2" stroke="#999" stroke-width="1.65" stroke-opacity="0.8"/><line x1="173.4" y1="-304.2" x2="171.3" y2="-289.4" stroke="#999" stroke-width="1.65" stroke-opacity="0.8"/><line x1="171.3" y1="-289.4" x2="169.1" y2="-274.5" stroke="#999" stroke-width="1.65" stroke-opacity="0.8"/><line x1="169.1" y1="-274.5" x2="164.9" y2="-260.1" stroke="#999" stroke-width="1.65" stroke-opacity="0.8"/><line x1="164.9" y1="-260.1" x2="158.7" y2="-246.5" stroke="#999" stroke-width="1.65" stroke-opacity="0.8"/><line x1="158.7" y1="-246.5" x2="152.4" y2="-232.9" stroke="#999" stroke-width="1.65" stroke-opacity="0.8"/><line x1="152.4" y1="-232.9" x2="146.2" y2="-219.2" stroke="#999" stroke-width="1.65" stroke-opacity="0.8"/><line x1="146.2" y1="-219.2" x2="140.0" y2="-205.6" stroke="#999" stroke-width="1.65" stroke-opacity="0.8"/><line x1="140.0" y1="-205.6" x2="133.7" y2="-191.9" stroke="#999" stroke-width="1.65" stroke-opacity="0.8"/><line x1="133.7" y1="-191.9" x2="127.5" y2="-178.3" stroke="#999" stroke-width="1.65" stroke-opacity="0.8"/><line x1="127.5" y1="-178.3" x2="121.3" y2="-164.6" stroke="#999" stroke-width="1.65" stroke-opacity="0.8"/><line x1="121.3" y1="-164.6" x2="115.0" y2="-151.0" stroke="#999" stroke-width="1.65" stroke-opacity="0.8"/><line x1="115.0" y1="-151.0" x2="108.8" y2="-137.3" stroke="#999" stroke-width="1.65" stroke-opacity="0.8"/><line x1="108.8" y1="-137.3" x2="102.6" y2="-123.7" stroke="#999" stroke-width="1.65" stroke-opacity="0.8"/><line x1="102.6" y1="-123.7" x2="96.3" y2="-110.1" stroke="#999" stroke-width="1.65" stroke-opacity="0.8"/><line x1="96.3" y1="-110.1" x2="88.5" y2="-97.3" stroke="#999" stroke-width="1.65" stroke-opacity="0.8"/><line x1="88.5" y1="-97.3" x2="79.1" y2="-85.6" stroke="#999" stroke-width="1.65" stroke-opacity="0.8"/><line x1="79.1" y1="-85.6" x2="69.6" y2="-73.9" stroke="#999" stroke-width="1.65" stroke-opacity="0.8"/><line x1="69.6" y1="-73.9" x2="55.9" y2="-68.0" stroke="#999" stroke-width="1.65" stroke-opacity="0.8"/><line x1="55.9" y1="-68.0" x2="53.0" y2="-53.3" stroke="#999" stroke-width="1.65" stroke-opacity="0.8"/><line x1="53.0" y1="-53.3" x2="43.6" y2="-41.6" stroke="#999" stroke-width="1.65" stroke-opacity="0.8"/><line x1="43.6" y1="-41.6" x2="34.2" y2="-29.9" stroke="#999" stroke-width="1.65" stroke-opacity="0.8"/><line x1="34.2" y1="-29.9" x2="24.8" y2="-18.2" stroke="#999" stroke-width="1.65" stroke-opacity="0.8"/><line x1="24.8" y1="-18.2" x2="15.3" y2="-6.6" stroke="#999" stroke-width="1.65" stroke-opacity="0.8"/><line x1="15.3" y1="-6.6" x2="0.5" y2="-8.3" stroke="#999" stroke-width="1.65" stroke-opacity="0.8"/><line x1="0.5" y1="-8.3" x2="5.8" y2="5.7" stroke="#999" stroke-width="1.65" stroke-opacity="0.8"/><line x1="5.8" y1="5.7" x2="-3.2" y2="17.7" stroke="#999" stroke-width="1.65" stroke-opacity="0.8"/><line x1="-3.2" y1="17.7" x2="-18.0" y2="19.4" stroke="#999" stroke-width="1.65" stroke-opacity="0.8"/><line x1="-18.0" y1="19.4" x2="-29.2" y2="29.4" stroke="#999" stroke-width="1.65" stroke-opacity="0.8"/><line x1="-29.2" y1="29.4" x2="-31.2" y2="44.2" stroke="#999" stroke-width="1.65" stroke-opacity="0.8"/><line x1="-31.2" y1="44.2" x2="-23.1" y2="56.8" stroke="#999" stroke-width="1.65" stroke-opacity="0.8"/><line x1="-23.1" y1="56.8" x2="-8.7" y2="61.1" stroke="#999" stroke-width="1.65" stroke-opacity="0.8"/><line x1="-8.7" y1="61.1" x2="5.0" y2="55.0" stroke="#999" stroke-width="1.65" stroke-opacity="0.8"/><line x1="5.0" y1="55.0" x2="11.4" y2="41.5" stroke="#999" stroke-width="1.65" stroke-opacity="0.8"/><line x1="11.4" y1="41.5" x2="8.8" y2="26.7" stroke="#999" stroke-width="1.65" stroke-opacity="0.8"/><line x1="8.8" y1="26.7" x2="17.8" y2="14.7" stroke="#999" stroke-width="1.65" stroke-opacity="0.8"/><line x1="17.8" y1="14.7" x2="27.0" y2="2.8" stroke="#999" stroke-width="1.65" stroke-opacity="0.8"/><line x1="27.0" y1="2.8" x2="36.4" y2="-8.8" stroke="#999" stroke-width="1.65" stroke-opacity="0.8"/><line x1="36.4" y1="-8.8" x2="45.9" y2="-20.5" stroke="#999" stroke-width="1.65" stroke-opacity="0.8"/><line x1="45.9" y1="-20.5" x2="55.3" y2="-32.2" stroke="#999" stroke-width="1.65" stroke-opacity="0.8"/><line x1="55.3" y1="-32.2" x2="64.7" y2="-43.9" stroke="#999" stroke-width="1.65" stroke-opacity="0.8"/><line x1="64.7" y1="-43.9" x2="78.4" y2="-49.8" stroke="#999" stroke-width="1.65" stroke-opacity="0.8"/><line x1="78.4" y1="-49.8" x2="81.3" y2="-64.5" stroke="#999" stroke-width="1.65" stroke-opacity="0.8"/><line x1="81.3" y1="-64.5" x2="90.7" y2="-76.2" stroke="#999" stroke-width="1.65" stroke-opacity="0.8"/><line x1="90.7" y1="-76.2" x2="100.1" y2="-87.9" stroke="#999" stroke-width="1.65" stroke-opacity="0.8"/><line x1="100.1" y1="-87.9" x2="112.1" y2="-78.3" stroke="#999" stroke-width="1.65" stroke-opacity="0.8"/><line x1="112.1" y1="-78.3" x2="115.4" y2="-63.6" stroke="#999" stroke-width="1.65" stroke-opacity="0.8"/><line x1="115.4" y1="-63.6" x2="130.4" y2="-63.6" stroke="#999" stroke-width="1.65" stroke-opacity="0.8"/><line x1="130.4" y1="-63.6" x2="142.0" y2="-73.1" stroke="#999" stroke-width="1.65" stroke-opacity="0.8"/><line x1="142.0" y1="-73.1" x2="145.3" y2="-87.7" stroke="#999" stroke-width="1.65" stroke-opacity="0.8"/><line x1="145.3" y1="-87.7" x2="138.5" y2="-101.1" stroke="#999" stroke-width="1.65" stroke-opacity="0.8"/><line x1="138.5" y1="-101.1" x2="123.9" y2="-97.4" stroke="#999" stroke-width="1.65" stroke-opacity="0.8"/><line x1="123.9" y1="-97.4" x2="110.0" y2="-103.8" stroke="#999" stroke-width="1.65" stroke-opacity="0.8"/><line x1="110.0" y1="-103.8" x2="116.2" y2="-117.5" stroke="#999" stroke-width="1.65" stroke-opacity="0.8"/><line x1="116.2" y1="-117.5" x2="122.5" y2="-131.1" stroke="#999" stroke-width="1.65" stroke-opacity="0.8"/><line x1="122.5" y1="-131.1" x2="128.7" y2="-144.8" stroke="#999" stroke-width="1.65" stroke-opacity="0.8"/><line x1="128.7" y1="-144.8" x2="134.9" y2="-158.4" stroke="#999" stroke-width="1.65" stroke-opacity="0.8"/><line x1="134.9" y1="-158.4" x2="141.1" y2="-172.0" stroke="#999" stroke-width="1.65" stroke-opacity="0.8"/><line x1="141.1" y1="-172.0" x2="147.4" y2="-185.7" stroke="#999" stroke-width="1.65" stroke-opacity="0.8"/><line x1="147.4" y1="-185.7" x2="153.6" y2="-199.3" stroke="#999" stroke-width="1.65" stroke-opacity="0.8"/><line x1="153.6" y1="-199.3" x2="159.8" y2="-213.0" stroke="#999" stroke-width="1.65" stroke-opacity="0.8"/><line x1="159.8" y1="-213.0" x2="166.1" y2="-226.6" stroke="#999" stroke-width="1.65" stroke-opacity="0.8"/><line x1="166.1" y1="-226.6" x2="172.3" y2="-240.3" stroke="#999" stroke-width="1.65" stroke-opacity="0.8"/><line x1="172.3" y1="-240.3" x2="178.5" y2="-253.9" stroke="#999" stroke-width="1.65" stroke-opacity="0.8"/><line x1="178.5" y1="-253.9" x2="192.4" y2="-247.3" stroke="#999" stroke-width="1.65" stroke-opacity="0.8"/><line x1="192.4" y1="-247.3" x2="197.4" y2="-233.0" stroke="#999" stroke-width="1.65" stroke-opacity="0.8"/><line x1="197.4" y1="-233.0" x2="212.4" y2="-233.4" stroke="#999" stroke-width="1.65" stroke-opacity="0.8"/><line x1="212.4" y1="-233.4" x2="224.1" y2="-242.8" stroke="#999" stroke-width="1.65" stroke-opacity="0.8"/><line x1="224.1" y1="-242.8" x2="228.3" y2="-257.2" stroke="#999" stroke-width="1.65" stroke-opacity="0.8"/><line x1="228.3" y1="-257.2" x2="223.5" y2="-271.4" stroke="#999" stroke-width="1.65" stroke-opacity="0.8"/><line x1="223.5" y1="-271.4" x2="211.1" y2="-279.8" stroke="#999" stroke-width="1.65" stroke-opacity="0.8"/><line x1="211.1" y1="-279.8" x2="199.2" y2="-270.4" stroke="#999" stroke-width="1.65" stroke-opacity="0.8"/><line x1="199.2" y1="-270.4" x2="184.0" y2="-272.4" stroke="#999" stroke-width="1.65" stroke-opacity="0.8"/><line x1="184.0" y1="-272.4" x2="186.1" y2="-287.3" stroke="#999" stroke-width="1.65" stroke-opacity="0.8"/><line x1="186.1" y1="-287.3" x2="188.2" y2="-302.1" stroke="#999" stroke-width="1.65" stroke-opacity="0.8"/><line x1="188.2" y1="-302.1" x2="190.4" y2="-316.9" stroke="#999" stroke-width="1.65" stroke-opacity="0.8"/><line x1="190.4" y1="-316.9" x2="192.5" y2="-331.8" stroke="#999" stroke-width="1.65" stroke-opacity="0.8"/><line x1="192.5" y1="-331.8" x2="194.6" y2="-346.6" stroke="#999" stroke-width="1.65" stroke-opacity="0.8"/><line x1="194.6" y1="-346.6" x2="208.0" y2="-354.7" stroke="#999" stroke-width="1.65" stroke-opacity="0.8"/><line x1="208.0" y1="-354.7" x2="213.0" y2="-369.5" stroke="#999" stroke-width="1.65" stroke-opacity="0.8"/><line x1="213.0" y1="-369.5" x2="207.3" y2="-384.1" stroke="#999" stroke-width="1.65" stroke-opacity="0.8"/><line x1="207.3" y1="-384.1" x2="193.5" y2="-391.5" stroke="#999" stroke-width="1.65" stroke-opacity="0.8"/><line x1="193.5" y1="-391.5" x2="176.1" y2="-387.8" stroke="#999" stroke-width="1.65" stroke-opacity="0.8"/><text x="154.5" y="-347.0" text-anchor="middle" font-size="7.8" font-family="Tahoma,Geneva,sans-serif" fill="#999">1</text><text x="136.1" y="-237.6" text-anchor="middle" font-size="7.8" font-family="Tahoma,Geneva,sans-serif" fill="#999">10</text><text x="73.8" y="-104.9" text-anchor="middle" font-size="7.8" font-family="Tahoma,Geneva,sans-serif" fill="#999">20</text><text x="-12.0" y="5.9" text-anchor="middle" font-size="7.8" font-family="Tahoma,Geneva,sans-serif" fill="#999">30</text><text x="32.1" y="28.3" text-anchor="middle" font-size="7.8" font-family="Tahoma,Geneva,sans-serif" fill="#999">40</text><text x="96.9" y="-66.1" text-anchor="middle" font-size="7.8" font-family="Tahoma,Geneva,sans-serif" fill="#999">50</text><text x="145.0" y="-134.6" text-anchor="middle" font-size="7.8" font-family="Tahoma,Geneva,sans-serif" fill="#999">60</text><text x="187.1" y="-215.6" text-anchor="middle" font-size="7.8" font-family="Tahoma,Geneva,sans-serif" fill="#999">70</text><text x="208.1" y="-311.7" text-anchor="middle" font-size="7.8" font-family="Tahoma,Geneva,sans-serif" fill="#999">80</text><circle cx="167.8" cy="-361.9" r="4.49" fill="lightsalmon" stroke="#ccc" stroke-width="1.65"/><text x="167.8" y="-359.6" text-anchor="middle" font-size="5.6" font-family="Tahoma,Geneva,sans-serif" font-weight="bold" fill="rgb(100,100,100)">U</text><circle cx="179.8" cy="-348.8" r="4.49" fill="lightgreen" stroke="#ccc" stroke-width="1.65"/><text x="179.8" y="-346.5" text-anchor="middle" font-size="5.6" font-family="Tahoma,Geneva,sans-serif" font-weight="bold" fill="rgb(100,100,100)">G</text><circle cx="177.7" cy="-333.9" r="4.49" fill="lightgreen" stroke="#ccc" stroke-width="1.65"/><text x="177.7" y="-331.7" text-anchor="middle" font-size="5.6" font-family="Tahoma,Geneva,sans-serif" font-weight="bold" fill="rgb(100,100,100)">C</text><circle cx="175.5" cy="-319.1" r="4.49" fill="lightgreen" stroke="#ccc" stroke-width="1.65"/><text x="175.5" y="-316.8" text-anchor="middle" font-size="5.6" font-family="Tahoma,Geneva,sans-serif" font-weight="bold" fill="rgb(100,100,100)">C</text><circle cx="173.4" cy="-304.2" r="4.49" fill="lightgreen" stroke="#ccc" stroke-width="1.65"/><text x="173.4" y="-302.0" text-anchor="middle" font-size="5.6" font-family="Tahoma,Geneva,sans-serif" font-weight="bold" fill="rgb(100,100,100)">U</text><circle cx="171.3" cy="-289.4" r="4.49" fill="lightgreen" stroke="#ccc" stroke-width="1.65"/><text x="171.3" y="-287.1" text-anchor="middle" font-size="5.6" font-family="Tahoma,Geneva,sans-serif" font-weight="bold" fill="rgb(100,100,100)">G</text><circle cx="169.1" cy="-274.5" r="4.49" fill="lightgreen" stroke="#ccc" stroke-width="1.65"/><text x="169.1" y="-272.3" text-anchor="middle" font-size="5.6" font-family="Tahoma,Geneva,sans-serif" font-weight="bold" fill="rgb(100,100,100)">A</text><circle cx="164.9" cy="-260.1" r="4.49" fill="lightgreen" stroke="#ccc" stroke-width="1.65"/><text x="164.9" y="-257.9" text-anchor="middle" font-size="5.6" font-family="Tahoma,Geneva,sans-serif" font-weight="bold" fill="rgb(100,100,100)">G</text><circle cx="158.7" cy="-246.5" r="4.49" fill="lightgreen" stroke="#ccc" stroke-width="1.65"/><text x="158.7" y="-244.3" text-anchor="middle" font-size="5.6" font-family="Tahoma,Geneva,sans-serif" font-weight="bold" fill="rgb(100,100,100)">U</text><circle cx="152.4" cy="-232.9" r="4.49" fill="lightgreen" stroke="#ccc" stroke-width="1.65"/><text x="152.4" y="-230.6" text-anchor="middle" font-size="5.6" font-family="Tahoma,Geneva,sans-serif" font-weight="bold" fill="rgb(100,100,100)">G</text><circle cx="146.2" cy="-219.2" r="4.49" fill="lightgreen" stroke="#ccc" stroke-width="1.65"/><text x="146.2" y="-217.0" text-anchor="middle" font-size="5.6" font-family="Tahoma,Geneva,sans-serif" font-weight="bold" fill="rgb(100,100,100)">C</text><circle cx="140.0" cy="-205.6" r="4.49" fill="lightgreen" stroke="#ccc" stroke-width="1.65"/><text x="140.0" y="-203.3" text-anchor="middle" font-size="5.6" font-family="Tahoma,Geneva,sans-serif" font-weight="bold" fill="rgb(100,100,100)">U</text><circle cx="133.7" cy="-191.9" r="4.49" fill="lightgreen" stroke="#ccc" stroke-width="1.65"/><text x="133.7" y="-189.7" text-anchor="middle" font-size="5.6" font-family="Tahoma,Geneva,sans-serif" font-weight="bold" fill="rgb(100,100,100)">C</text><circle cx="127.5" cy="-178.3" r="4.49" fill="lightgreen" stroke="#ccc" stroke-width="1.65"/><text x="127.5" y="-176.0" text-anchor="middle" font-size="5.6" font-family="Tahoma,Geneva,sans-serif" font-weight="bold" fill="rgb(100,100,100)">G</text><circle cx="121.3" cy="-164.6" r="4.49" fill="lightgreen" stroke="#ccc" stroke-width="1.65"/><text x="121.3" y="-162.4" text-anchor="middle" font-size="5.6" font-family="Tahoma,Geneva,sans-serif" font-weight="bold" fill="rgb(100,100,100)">G</text><circle cx="115.0" cy="-151.0" r="4.49" fill="lightgreen" stroke="#ccc" stroke-width="1.65"/><text x="115.0" y="-148.7" text-anchor="middle" font-size="5.6" font-family="Tahoma,Geneva,sans-serif" font-weight="bold" fill="rgb(100,100,100)">U</text><circle cx="108.8" cy="-137.3" r="4.49" fill="lightgreen" stroke="#ccc" stroke-width="1.65"/><text x="108.8" y="-135.1" text-anchor="middle" font-size="5.6" font-family="Tahoma,Geneva,sans-serif" font-weight="bold" fill="rgb(100,100,100)">U</text><circle cx="102.6" cy="-123.7" r="4.49" fill="lightgreen" stroke="#ccc" stroke-width="1.65"/><text x="102.6" y="-121.5" text-anchor="middle" font-size="5.6" font-family="Tahoma,Geneva,sans-serif" font-weight="bold" fill="rgb(100,100,100)">C</text><circle cx="96.3" cy="-110.1" r="4.49" fill="lightgreen" stroke="#ccc" stroke-width="1.65"/><text x="96.3" y="-107.8" text-anchor="middle" font-size="5.6" font-family="Tahoma,Geneva,sans-serif" font-weight="bold" fill="rgb(100,100,100)">C</text><circle cx="88.5" cy="-97.3" r="4.49" fill="lightgreen" stroke="#ccc" stroke-width="1.65"/><text x="88.5" y="-95.1" text-anchor="middle" font-size="5.6" font-family="Tahoma,Geneva,sans-serif" font-weight="bold" fill="rgb(100,100,100)">A</text><circle cx="79.1" cy="-85.6" r="4.49" fill="lightgreen" stroke="#ccc" stroke-width="1.65"/><text x="79.1" y="-83.4" text-anchor="middle" font-size="5.6" font-family="Tahoma,Geneva,sans-serif" font-weight="bold" fill="rgb(100,100,100)">G</text><circle cx="69.6" cy="-73.9" r="4.49" fill="lightgreen" stroke="#ccc" stroke-width="1.65"/><text x="69.6" y="-71.7" text-anchor="middle" font-size="5.6" font-family="Tahoma,Geneva,sans-serif" font-weight="bold" fill="rgb(100,100,100)">G</text><circle cx="55.9" cy="-68.0" r="4.49" fill="#dbdb8d" stroke="#ccc" stroke-width="1.65"/><text x="55.9" y="-65.7" text-anchor="middle" font-size="5.6" font-family="Tahoma,Geneva,sans-serif" font-weight="bold" fill="rgb(100,100,100)">U</text><circle cx="53.0" cy="-53.3" r="4.49" fill="lightgreen" stroke="#ccc" stroke-width="1.65"/><text x="53.0" y="-51.0" text-anchor="middle" font-size="5.6" font-family="Tahoma,Geneva,sans-serif" font-weight="bold" fill="rgb(100,100,100)">G</text><circle cx="43.6" cy="-41.6" r="4.49" fill="lightgreen" stroke="#ccc" stroke-width="1.65"/><text x="43.6" y="-39.4" text-anchor="middle" font-size="5.6" font-family="Tahoma,Geneva,sans-serif" font-weight="bold" fill="rgb(100,100,100)">A</text><circle cx="34.2" cy="-29.9" r="4.49" fill="lightgreen" stroke="#ccc" stroke-width="1.65"/><text x="34.2" y="-27.7" text-anchor="middle" font-size="5.6" font-family="Tahoma,Geneva,sans-serif" font-weight="bold" fill="rgb(100,100,100)">A</text><circle cx="24.8" cy="-18.2" r="4.49" fill="lightgreen" stroke="#ccc" stroke-width="1.65"/><text x="24.8" y="-16.0" text-anchor="middle" font-size="5.6" font-family="Tahoma,Geneva,sans-serif" font-weight="bold" fill="rgb(100,100,100)">C</text><circle cx="15.3" cy="-6.6" r="4.49" fill="lightgreen" stroke="#ccc" stroke-width="1.65"/><text x="15.3" y="-4.3" text-anchor="middle" font-size="5.6" font-family="Tahoma,Geneva,sans-serif" font-weight="bold" fill="rgb(100,100,100)">C</text><circle cx="0.5" cy="-8.3" r="4.49" fill="#dbdb8d" stroke="#ccc" stroke-width="1.65"/><text x="0.5" y="-6.0" text-anchor="middle" font-size="5.6" font-family="Tahoma,Geneva,sans-serif" font-weight="bold" fill="rgb(100,100,100)">A</text><circle cx="5.8" cy="5.7" r="4.49" fill="lightgreen" stroke="#ccc" stroke-width="1.65"/><text x="5.8" y="7.9" text-anchor="middle" font-size="5.6" font-family="Tahoma,Geneva,sans-serif" font-weight="bold" fill="rgb(100,100,100)">C</text><circle cx="-3.2" cy="17.7" r="4.49" fill="lightgreen" stroke="#ccc" stroke-width="1.65"/><text x="-3.2" y="20.0" text-anchor="middle" font-size="5.6" font-family="Tahoma,Geneva,sans-serif" font-weight="bold" fill="rgb(100,100,100)">C</text><circle cx="-18.0" cy="19.4" r="4.49" fill="lightblue" stroke="#ccc" stroke-width="1.65"/><text x="-18.0" y="21.7" text-anchor="middle" font-size="5.6" font-family="Tahoma,Geneva,sans-serif" font-weight="bold" fill="rgb(100,100,100)">A</text><circle cx="-29.2" cy="29.4" r="4.49" fill="lightblue" stroke="#ccc" stroke-width="1.65"/><text x="-29.2" y="31.6" text-anchor="middle" font-size="5.6" font-family="Tahoma,Geneva,sans-serif" font-weight="bold" fill="rgb(100,100,100)">A</text><circle cx="-31.2" cy="44.2" r="4.49" fill="lightblue" stroke="#ccc" stroke-width="1.65"/><text x="-31.2" y="46.5" text-anchor="middle" font-size="5.6" font-family="Tahoma,Geneva,sans-serif" font-weight="bold" fill="rgb(100,100,100)">A</text><circle cx="-23.1" cy="56.8" r="4.49" fill="lightblue" stroke="#ccc" stroke-width="1.65"/><text x="-23.1" y="59.0" text-anchor="middle" font-size="5.6" font-family="Tahoma,Geneva,sans-serif" font-weight="bold" fill="rgb(100,100,100)">A</text><circle cx="-8.7" cy="61.1" r="4.49" fill="lightblue" stroke="#ccc" stroke-width="1.65"/><text x="-8.7" y="63.3" text-anchor="middle" font-size="5.6" font-family="Tahoma,Geneva,sans-serif" font-weight="bold" fill="rgb(100,100,100)">U</text><circle cx="5.0" cy="55.0" r="4.49" fill="lightblue" stroke="#ccc" stroke-width="1.65"/><text x="5.0" y="57.2" text-anchor="middle" font-size="5.6" font-family="Tahoma,Geneva,sans-serif" font-weight="bold" fill="rgb(100,100,100)">G</text><circle cx="11.4" cy="41.5" r="4.49" fill="lightblue" stroke="#ccc" stroke-width="1.65"/><text x="11.4" y="43.7" text-anchor="middle" font-size="5.6" font-family="Tahoma,Geneva,sans-serif" font-weight="bold" fill="rgb(100,100,100)">A</text><circle cx="8.8" cy="26.7" r="4.49" fill="lightgreen" stroke="#ccc" stroke-width="1.65"/><text x="8.8" y="28.9" text-anchor="middle" font-size="5.6" font-family="Tahoma,Geneva,sans-serif" font-weight="bold" fill="rgb(100,100,100)">G</text><circle cx="17.8" cy="14.7" r="4.49" fill="lightgreen" stroke="#ccc" stroke-width="1.65"/><text x="17.8" y="16.9" text-anchor="middle" font-size="5.6" font-family="Tahoma,Geneva,sans-serif" font-weight="bold" fill="rgb(100,100,100)">G</text><circle cx="27.0" cy="2.8" r="4.49" fill="lightgreen" stroke="#ccc" stroke-width="1.65"/><text x="27.0" y="5.1" text-anchor="middle" font-size="5.6" font-family="Tahoma,Geneva,sans-serif" font-weight="bold" fill="rgb(100,100,100)">G</text><circle cx="36.4" cy="-8.8" r="4.49" fill="lightgreen" stroke="#ccc" stroke-width="1.65"/><text x="36.4" y="-6.6" text-anchor="middle" font-size="5.6" font-family="Tahoma,Geneva,sans-serif" font-weight="bold" fill="rgb(100,100,100)">G</text><circle cx="45.9" cy="-20.5" r="4.49" fill="lightgreen" stroke="#ccc" stroke-width="1.65"/><text x="45.9" y="-18.3" text-anchor="middle" font-size="5.6" font-family="Tahoma,Geneva,sans-serif" font-weight="bold" fill="rgb(100,100,100)">U</text><circle cx="55.3" cy="-32.2" r="4.49" fill="lightgreen" stroke="#ccc" stroke-width="1.65"/><text x="55.3" y="-29.9" text-anchor="middle" font-size="5.6" font-family="Tahoma,Geneva,sans-serif" font-weight="bold" fill="rgb(100,100,100)">U</text><circle cx="64.7" cy="-43.9" r="4.49" fill="lightgreen" stroke="#ccc" stroke-width="1.65"/><text x="64.7" y="-41.6" text-anchor="middle" font-size="5.6" font-family="Tahoma,Geneva,sans-serif" font-weight="bold" fill="rgb(100,100,100)">C</text><circle cx="78.4" cy="-49.8" r="4.49" fill="#dbdb8d" stroke="#ccc" stroke-width="1.65"/><text x="78.4" y="-47.6" text-anchor="middle" font-size="5.6" font-family="Tahoma,Geneva,sans-serif" font-weight="bold" fill="rgb(100,100,100)">C</text><circle cx="81.3" cy="-64.5" r="4.49" fill="lightgreen" stroke="#ccc" stroke-width="1.65"/><text x="81.3" y="-62.3" text-anchor="middle" font-size="5.6" font-family="Tahoma,Geneva,sans-serif" font-weight="bold" fill="rgb(100,100,100)">C</text><circle cx="90.7" cy="-76.2" r="4.49" fill="lightgreen" stroke="#ccc" stroke-width="1.65"/><text x="90.7" y="-74.0" text-anchor="middle" font-size="5.6" font-family="Tahoma,Geneva,sans-serif" font-weight="bold" fill="rgb(100,100,100)">C</text><circle cx="100.1" cy="-87.9" r="4.49" fill="lightgreen" stroke="#ccc" stroke-width="1.65"/><text x="100.1" y="-85.6" text-anchor="middle" font-size="5.6" font-family="Tahoma,Geneva,sans-serif" font-weight="bold" fill="rgb(100,100,100)">U</text><circle cx="112.1" cy="-78.3" r="4.49" fill="#dbdb8d" stroke="#ccc" stroke-width="1.65"/><text x="112.1" y="-76.1" text-anchor="middle" font-size="5.6" font-family="Tahoma,Geneva,sans-serif" font-weight="bold" fill="rgb(100,100,100)">A</text><circle cx="115.4" cy="-63.6" r="4.49" fill="#dbdb8d" stroke="#ccc" stroke-width="1.65"/><text x="115.4" y="-61.4" text-anchor="middle" font-size="5.6" font-family="Tahoma,Geneva,sans-serif" font-weight="bold" fill="rgb(100,100,100)">U</text><circle cx="130.4" cy="-63.6" r="4.49" fill="#dbdb8d" stroke="#ccc" stroke-width="1.65"/><text x="130.4" y="-61.3" text-anchor="middle" font-size="5.6" font-family="Tahoma,Geneva,sans-serif" font-weight="bold" fill="rgb(100,100,100)">A</text><circle cx="142.0" cy="-73.1" r="4.49" fill="#dbdb8d" stroke="#ccc" stroke-width="1.65"/><text x="142.0" y="-70.8" text-anchor="middle" font-size="5.6" font-family="Tahoma,Geneva,sans-serif" font-weight="bold" fill="rgb(100,100,100)">C</text><circle cx="145.3" cy="-87.7" r="4.49" fill="#dbdb8d" stroke="#ccc" stroke-width="1.65"/><text x="145.3" y="-85.4" text-anchor="middle" font-size="5.6" font-family="Tahoma,Geneva,sans-serif" font-weight="bold" fill="rgb(100,100,100)">U</text><circle cx="138.5" cy="-101.1" r="4.49" fill="#dbdb8d" stroke="#ccc" stroke-width="1.65"/><text x="138.5" y="-98.8" text-anchor="middle" font-size="5.6" font-family="Tahoma,Geneva,sans-serif" font-weight="bold" fill="rgb(100,100,100)">C</text><circle cx="123.9" cy="-97.4" r="4.49" fill="#dbdb8d" stroke="#ccc" stroke-width="1.65"/><text x="123.9" y="-95.2" text-anchor="middle" font-size="5.6" font-family="Tahoma,Geneva,sans-serif" font-weight="bold" fill="rgb(100,100,100)">A</text><circle cx="110.0" cy="-103.8" r="4.49" fill="lightgreen" stroke="#ccc" stroke-width="1.65"/><text x="110.0" y="-101.6" text-anchor="middle" font-size="5.6" font-family="Tahoma,Geneva,sans-serif" font-weight="bold" fill="rgb(100,100,100)">G</text><circle cx="116.2" cy="-117.5" r="4.49" fill="lightgreen" stroke="#ccc" stroke-width="1.65"/><text x="116.2" y="-115.2" text-anchor="middle" font-size="5.6" font-family="Tahoma,Geneva,sans-serif" font-weight="bold" fill="rgb(100,100,100)">G</text><circle cx="122.5" cy="-131.1" r="4.49" fill="lightgreen" stroke="#ccc" stroke-width="1.65"/><text x="122.5" y="-128.9" text-anchor="middle" font-size="5.6" font-family="Tahoma,Geneva,sans-serif" font-weight="bold" fill="rgb(100,100,100)">G</text><circle cx="128.7" cy="-144.8" r="4.49" fill="lightgreen" stroke="#ccc" stroke-width="1.65"/><text x="128.7" y="-142.5" text-anchor="middle" font-size="5.6" font-family="Tahoma,Geneva,sans-serif" font-weight="bold" fill="rgb(100,100,100)">A</text><circle cx="134.9" cy="-158.4" r="4.49" fill="lightgreen" stroke="#ccc" stroke-width="1.65"/><text x="134.9" y="-156.2" text-anchor="middle" font-size="5.6" font-family="Tahoma,Geneva,sans-serif" font-weight="bold" fill="rgb(100,100,100)">C</text><circle cx="141.1" cy="-172.0" r="4.49" fill="lightgreen" stroke="#ccc" stroke-width="1.65"/><text x="141.1" y="-169.8" text-anchor="middle" font-size="5.6" font-family="Tahoma,Geneva,sans-serif" font-weight="bold" fill="rgb(100,100,100)">U</text><circle cx="147.4" cy="-185.7" r="4.49" fill="lightgreen" stroke="#ccc" stroke-width="1.65"/><text x="147.4" y="-183.4" text-anchor="middle" font-size="5.6" font-family="Tahoma,Geneva,sans-serif" font-weight="bold" fill="rgb(100,100,100)">G</text><circle cx="153.6" cy="-199.3" r="4.49" fill="lightgreen" stroke="#ccc" stroke-width="1.65"/><text x="153.6" y="-197.1" text-anchor="middle" font-size="5.6" font-family="Tahoma,Geneva,sans-serif" font-weight="bold" fill="rgb(100,100,100)">A</text><circle cx="159.8" cy="-213.0" r="4.49" fill="lightgreen" stroke="#ccc" stroke-width="1.65"/><text x="159.8" y="-210.7" text-anchor="middle" font-size="5.6" font-family="Tahoma,Geneva,sans-serif" font-weight="bold" fill="rgb(100,100,100)">G</text><circle cx="166.1" cy="-226.6" r="4.49" fill="lightgreen" stroke="#ccc" stroke-width="1.65"/><text x="166.1" y="-224.4" text-anchor="middle" font-size="5.6" font-family="Tahoma,Geneva,sans-serif" font-weight="bold" fill="rgb(100,100,100)">C</text><circle cx="172.3" cy="-240.3" r="4.49" fill="lightgreen" stroke="#ccc" stroke-width="1.65"/><text x="172.3" y="-238.0" text-anchor="middle" font-size="5.6" font-family="Tahoma,Geneva,sans-serif" font-weight="bold" fill="rgb(100,100,100)">A</text><circle cx="178.5" cy="-253.9" r="4.49" fill="lightgreen" stroke="#ccc" stroke-width="1.65"/><text x="178.5" y="-251.7" text-anchor="middle" font-size="5.6" font-family="Tahoma,Geneva,sans-serif" font-weight="bold" fill="rgb(100,100,100)">U</text><circle cx="192.4" cy="-247.3" r="4.49" fill="#dbdb8d" stroke="#ccc" stroke-width="1.65"/><text x="192.4" y="-245.1" text-anchor="middle" font-size="5.6" font-family="Tahoma,Geneva,sans-serif" font-weight="bold" fill="rgb(100,100,100)">G</text><circle cx="197.4" cy="-233.0" r="4.49" fill="#dbdb8d" stroke="#ccc" stroke-width="1.65"/><text x="197.4" y="-230.8" text-anchor="middle" font-size="5.6" font-family="Tahoma,Geneva,sans-serif" font-weight="bold" fill="rgb(100,100,100)">U</text><circle cx="212.4" cy="-233.4" r="4.49" fill="lightgreen" stroke="#ccc" stroke-width="1.65"/><text x="212.4" y="-231.1" text-anchor="middle" font-size="5.6" font-family="Tahoma,Geneva,sans-serif" font-weight="bold" fill="rgb(100,100,100)">A</text><circle cx="224.1" cy="-242.8" r="4.49" fill="lightgreen" stroke="#ccc" stroke-width="1.65"/><text x="224.1" y="-240.5" text-anchor="middle" font-size="5.6" font-family="Tahoma,Geneva,sans-serif" font-weight="bold" fill="rgb(100,100,100)">U</text><circle cx="228.3" cy="-257.2" r="4.49" fill="lightgreen" stroke="#ccc" stroke-width="1.65"/><text x="228.3" y="-254.9" text-anchor="middle" font-size="5.6" font-family="Tahoma,Geneva,sans-serif" font-weight="bold" fill="rgb(100,100,100)">A</text><circle cx="223.5" cy="-271.4" r="4.49" fill="lightgreen" stroke="#ccc" stroke-width="1.65"/><text x="223.5" y="-269.1" text-anchor="middle" font-size="5.6" font-family="Tahoma,Geneva,sans-serif" font-weight="bold" fill="rgb(100,100,100)">U</text><circle cx="211.1" cy="-279.8" r="4.49" fill="#dbdb8d" stroke="#ccc" stroke-width="1.65"/><text x="211.1" y="-277.5" text-anchor="middle" font-size="5.6" font-family="Tahoma,Geneva,sans-serif" font-weight="bold" fill="rgb(100,100,100)">U</text><circle cx="199.2" cy="-270.4" r="4.49" fill="#dbdb8d" stroke="#ccc" stroke-width="1.65"/><text x="199.2" y="-268.2" text-anchor="middle" font-size="5.6" font-family="Tahoma,Geneva,sans-serif" font-weight="bold" fill="rgb(100,100,100)">A</text><circle cx="184.0" cy="-272.4" r="4.49" fill="lightgreen" stroke="#ccc" stroke-width="1.65"/><text x="184.0" y="-270.2" text-anchor="middle" font-size="5.6" font-family="Tahoma,Geneva,sans-serif" font-weight="bold" fill="rgb(100,100,100)">U</text><circle cx="186.1" cy="-287.3" r="4.49" fill="lightgreen" stroke="#ccc" stroke-width="1.65"/><text x="186.1" y="-285.0" text-anchor="middle" font-size="5.6" font-family="Tahoma,Geneva,sans-serif" font-weight="bold" fill="rgb(100,100,100)">C</text><circle cx="188.2" cy="-302.1" r="4.49" fill="lightgreen" stroke="#ccc" stroke-width="1.65"/><text x="188.2" y="-299.9" text-anchor="middle" font-size="5.6" font-family="Tahoma,Geneva,sans-serif" font-weight="bold" fill="rgb(100,100,100)">A</text><circle cx="190.4" cy="-316.9" r="4.49" fill="lightgreen" stroke="#ccc" stroke-width="1.65"/><text x="190.4" y="-314.7" text-anchor="middle" font-size="5.6" font-family="Tahoma,Geneva,sans-serif" font-weight="bold" fill="rgb(100,100,100)">G</text><circle cx="192.5" cy="-331.8" r="4.49" fill="lightgreen" stroke="#ccc" stroke-width="1.65"/><text x="192.5" y="-329.5" text-anchor="middle" font-size="5.6" font-family="Tahoma,Geneva,sans-serif" font-weight="bold" fill="rgb(100,100,100)">G</text><circle cx="194.6" cy="-346.6" r="4.49" fill="lightgreen" stroke="#ccc" stroke-width="1.65"/><text x="194.6" y="-344.4" text-anchor="middle" font-size="5.6" font-family="Tahoma,Geneva,sans-serif" font-weight="bold" fill="rgb(100,100,100)">U</text><circle cx="208.0" cy="-354.7" r="4.49" fill="lightgreen" stroke="#ccc" stroke-width="1.65"/><text x="208.0" y="-352.5" text-anchor="middle" font-size="5.6" font-family="Tahoma,Geneva,sans-serif" font-weight="bold" fill="rgb(100,100,100)">A</text><circle cx="213.0" cy="-369.5" r="4.49" fill="lightgreen" stroke="#ccc" stroke-width="1.65"/><text x="213.0" y="-367.3" text-anchor="middle" font-size="5.6" font-family="Tahoma,Geneva,sans-serif" font-weight="bold" fill="rgb(100,100,100)">U</text><circle cx="207.3" cy="-384.1" r="4.49" fill="lightgreen" stroke="#ccc" stroke-width="1.65"/><text x="207.3" y="-381.8" text-anchor="middle" font-size="5.6" font-family="Tahoma,Geneva,sans-serif" font-weight="bold" fill="rgb(100,100,100)">G</text><circle cx="193.5" cy="-391.5" r="4.49" fill="lightgreen" stroke="#ccc" stroke-width="1.65"/><text x="193.5" y="-389.3" text-anchor="middle" font-size="5.6" font-family="Tahoma,Geneva,sans-serif" font-weight="bold" fill="rgb(100,100,100)">U</text><circle cx="176.1" cy="-387.8" r="4.49" fill="lightsalmon" stroke="#ccc" stroke-width="1.65"/><text x="176.1" y="-385.6" text-anchor="middle" font-size="5.6" font-family="Tahoma,Geneva,sans-serif" font-weight="bold" fill="rgb(100,100,100)">U</text></svg>