<svg xmlns="http://www.w3.org/2000/svg" viewBox="-93.7 -307.5 463.2 523.8" width="463" height="524"><style></style><line x1="-34.9" y1="-259.3" x2="-45.5" y2="-248.7" stroke="#999" stroke-width="1.64" stroke-opacity="0.8"/><line x1="-24.3" y1="-248.7" x2="-34.9" y2="-238.1" stroke="#999" stroke-width="1.64" stroke-opacity="0.8"/><line x1="-13.5" y1="-237.5" x2="-24.5" y2="-227.3" stroke="#999" stroke-width="1.64" stroke-opacity="0.8"/><line x1="-3.3" y1="-226.5" x2="-14.2" y2="-216.3" stroke="#999" stroke-width="1.64" stroke-opacity="0.8"/><line x1="7.0" y1="-215.6" x2="-4.0" y2="-205.3" stroke="#999" stroke-width="1.64" stroke-opacity="0.8"/><line x1="17.2" y1="-204.6" x2="6.2" y2="-194.4" stroke="#999" stroke-width="1.64" stroke-opacity="0.8"/><line x1="27.4" y1="-193.6" x2="16.4" y2="-183.4" stroke="#999" stroke-width="1.64" stroke-opacity="0.8"/><line x1="-61.0" y1="-255.6" x2="11.3" y2="-168.2" stroke="#d9534f" stroke-width="1.64" stroke-opacity="0.6"/><line x1="-58.6" y1="-272.4" x2="14.5" y2="-152.3" stroke="#d9534f" stroke-width="1.64" stroke-opacity="0.6"/><line x1="-41.8" y1="-274.8" x2="25.3" y2="-140.2" stroke="#d9534f" stroke-width="1.64" stroke-opacity="0.6"/><line x1="308.4" y1="162.8" x2="320.1" y2="153.4" stroke="#999" stroke-width="1.64" stroke-opacity="0.8"/><line x1="299.0" y1="151.2" x2="310.7" y2="141.7" stroke="#999" stroke-width="1.64" stroke-opacity="0.8"/><line x1="282.4" y1="130.5" x2="294.1" y2="121.1" stroke="#999" stroke-width="1.64" stroke-opacity="0.8"/><line x1="273.0" y1="118.8" x2="284.6" y2="109.4" stroke="#999" stroke-width="1.64" stroke-opacity="0.8"/><line x1="263.5" y1="107.1" x2="275.2" y2="97.7" stroke="#999" stroke-width="1.64" stroke-opacity="0.8"/><line x1="254.1" y1="95.5" x2="265.8" y2="86.1" stroke="#999" stroke-width="1.64" stroke-opacity="0.8"/><line x1="244.7" y1="83.8" x2="256.4" y2="74.4" stroke="#999" stroke-width="1.64" stroke-opacity="0.8"/><line x1="235.3" y1="72.1" x2="247.0" y2="62.7" stroke="#999" stroke-width="1.64" stroke-opacity="0.8"/><line x1="225.9" y1="60.4" x2="237.6" y2="51.0" stroke="#999" stroke-width="1.64" stroke-opacity="0.8"/><line x1="216.5" y1="48.7" x2="228.2" y2="39.3" stroke="#999" stroke-width="1.64" stroke-opacity="0.8"/><line x1="207.1" y1="37.1" x2="218.8" y2="27.7" stroke="#999" stroke-width="1.64" stroke-opacity="0.8"/><line x1="197.7" y1="25.4" x2="209.3" y2="16.0" stroke="#999" stroke-width="1.64" stroke-opacity="0.8"/><line x1="188.3" y1="13.7" x2="199.9" y2="4.3" stroke="#999" stroke-width="1.64" stroke-opacity="0.8"/><line x1="178.6" y1="2.2" x2="190.0" y2="-7.6" stroke="#999" stroke-width="1.64" stroke-opacity="0.8"/><line x1="168.8" y1="-9.1" x2="180.1" y2="-19.0" stroke="#999" stroke-width="1.64" stroke-opacity="0.8"/><line x1="159.0" y1="-20.5" x2="170.3" y2="-30.3" stroke="#999" stroke-width="1.64" stroke-opacity="0.8"/><line x1="141.6" y1="-40.5" x2="153.0" y2="-50.3" stroke="#999" stroke-width="1.64" stroke-opacity="0.8"/><line x1="131.8" y1="-51.9" x2="143.1" y2="-61.7" stroke="#999" stroke-width="1.64" stroke-opacity="0.8"/><line x1="122.0" y1="-63.2" x2="133.3" y2="-73.0" stroke="#999" stroke-width="1.64" stroke-opacity="0.8"/><line x1="112.1" y1="-74.5" x2="123.5" y2="-84.4" stroke="#999" stroke-width="1.64" stroke-opacity="0.8"/><line x1="102.3" y1="-85.9" x2="113.7" y2="-95.7" stroke="#999" stroke-width="1.64" stroke-opacity="0.8"/><line x1="86.3" y1="-104.3" x2="97.7" y2="-114.1" stroke="#999" stroke-width="1.64" stroke-opacity="0.8"/><line x1="76.5" y1="-115.6" x2="87.9" y2="-125.5" stroke="#999" stroke-width="1.64" stroke-opacity="0.8"/><line x1="66.7" y1="-127.0" x2="78.0" y2="-136.8" stroke="#999" stroke-width="1.64" stroke-opacity="0.8"/><line x1="56.9" y1="-138.3" x2="68.2" y2="-148.1" stroke="#999" stroke-width="1.64" stroke-opacity="0.8"/><line x1="43.1" y1="-201.3" x2="27.4" y2="-193.6" stroke="#999" stroke-width="1.64" stroke-opacity="0.8"/><line x1="27.4" y1="-193.6" x2="17.2" y2="-204.6" stroke="#999" stroke-width="1.64" stroke-opacity="0.8"/><line x1="17.2" y1="-204.6" x2="7.0" y2="-215.6" stroke="#999" stroke-width="1.64" stroke-opacity="0.8"/><line x1="7.0" y1="-215.6" x2="-3.3" y2="-226.5" stroke="#999" stroke-width="1.64" stroke-opacity="0.8"/><line x1="-3.3" y1="-226.5" x2="-13.5" y2="-237.5" stroke="#999" stroke-width="1.64" stroke-opacity="0.8"/><line x1="-13.5" y1="-237.5" x2="-9.7" y2="-251.9" stroke="#999" stroke-width="1.64" stroke-opacity="0.8"/><line x1="-9.7" y1="-251.9" x2="-24.3" y2="-248.7" stroke="#999" stroke-width="1.64" stroke-opacity="0.8"/><line x1="-24.3" y1="-248.7" x2="-34.9" y2="-259.3" stroke="#999" stroke-width="1.64" stroke-opacity="0.8"/><line x1="-34.9" y1="-259.3" x2="-41.8" y2="-274.8" stroke="#999" stroke-width="1.64" stroke-opacity="0.8"/><line x1="-41.8" y1="-274.8" x2="-58.6" y2="-272.4" stroke="#999" stroke-width="1.64" stroke-opacity="0.8"/><line x1="-58.6" y1="-272.4" x2="-61.0" y2="-255.6" stroke="#999" stroke-width="1.64" stroke-opacity="0.8"/><line x1="-61.0" y1="-255.6" x2="-45.5" y2="-248.7" stroke="#999" stroke-width="1.64" stroke-opacity="0.8"/><line x1="-45.5" y1="-248.7" x2="-34.9" y2="-238.1" stroke="#999" stroke-width="1.64" stroke-opacity="0.8"/><line x1="-34.9" y1="-238.1" x2="-24.5" y2="-227.3" stroke="#999" stroke-width="1.64" stroke-opacity="0.8"/><line x1="-24.5" y1="-227.3" x2="-14.2" y2="-216.3" stroke="#999" stroke-width="1.64" stroke-opacity="0.8"/><line x1="-14.2" y1="-216.3" x2="-4.0" y2="-205.3" stroke="#999" stroke-width="1.64" stroke-opacity="0.8"/><line x1="-4.0" y1="-205.3" x2="6.2" y2="-194.4" stroke="#999" stroke-width="1.64" stroke-opacity="0.8"/><line x1="6.2" y1="-194.4" x2="16.4" y2="-183.4" stroke="#999" stroke-width="1.64" stroke-opacity="0.8"/><line x1="16.4" y1="-183.4" x2="11.3" y2="-168.2" stroke="#999" stroke-width="1.64" stroke-opacity="0.8"/><line x1="11.3" y1="-168.2" x2="14.5" y2="-152.3" stroke="#999" stroke-width="1.64" stroke-opacity="0.8"/><line x1="14.5" y1="-152.3" x2="25.3" y2="-140.2" stroke="#999" stroke-width="1.64" stroke-opacity="0.8"/><line x1="25.3" y1="-140.2" x2="41.0" y2="-138.7" stroke="#999" stroke-width="1.64" stroke-opacity="0.8"/><line x1="41.0" y1="-138.7" x2="56.9" y2="-138.3" stroke="#999" stroke-width="1.64" stroke-opacity="0.8"/><line x1="56.9" y1="-138.3" x2="66.7" y2="-127.0" stroke="#999" stroke-width="1.64" stroke-opacity="0.8"/><line x1="66.7" y1="-127.0" x2="76.5" y2="-115.6" stroke="#999" stroke-width="1.64" stroke-opacity="0.8"/><line x1="76.5" y1="-115.6" x2="86.3" y2="-104.3" stroke="#999" stroke-width="1.64" stroke-opacity="0.8"/><line x1="86.3" y1="-104.3" x2="87.9" y2="-89.5" stroke="#999" stroke-width="1.64" stroke-opacity="0.8"/><line x1="87.9" y1="-89.5" x2="102.3" y2="-85.9" stroke="#999" stroke-width="1.64" stroke-opacity="0.8"/><line x1="102.3" y1="-85.9" x2="112.1" y2="-74.5" stroke="#999" stroke-width="1.64" stroke-opacity="0.8"/><line x1="112.1" y1="-74.5" x2="122.0" y2="-63.2" stroke="#999" stroke-width="1.64" stroke-opacity="0.8"/><line x1="122.0" y1="-63.2" x2="131.8" y2="-51.9" stroke="#999" stroke-width="1.64" stroke-opacity="0.8"/><line x1="131.8" y1="-51.9" x2="141.6" y2="-40.5" stroke="#999" stroke-width="1.64" stroke-opacity="0.8"/><line x1="141.6" y1="-40.5" x2="145.2" y2="-26.1" stroke="#999" stroke-width="1.64" stroke-opacity="0.8"/><line x1="145.2" y1="-26.1" x2="159.0" y2="-20.5" stroke="#999" stroke-width="1.64" stroke-opacity="0.8"/><line x1="159.0" y1="-20.5" x2="168.8" y2="-9.1" stroke="#999" stroke-width="1.64" stroke-opacity="0.8"/><line x1="168.8" y1="-9.1" x2="178.6" y2="2.2" stroke="#999" stroke-width="1.64" stroke-opacity="0.8"/><line x1="178.6" y1="2.2" x2="188.3" y2="13.7" stroke="#999" stroke-width="1.64" stroke-opacity="0.8"/><line x1="188.3" y1="13.7" x2="197.7" y2="25.4" stroke="#999" stroke-width="1.64" stroke-opacity="0.8"/><line x1="197.7" y1="25.4" x2="207.1" y2="37.1" stroke="#999" stroke-width="1.64" stroke-opacity="0.8"/><line x1="207.1" y1="37.1" x2="216.5" y2="48.7" stroke="#999" stroke-width="1.64" stroke-opacity="0.8"/><line x1="216.5" y1="48.7" x2="225.9" y2="60.4" stroke="#999" stroke-width="1.64" stroke-opacity="0.8"/><line x1="225.9" y1="60.4" x2="235.3" y2="72.1" stroke="#999" stroke-width="1.64" stroke-opacity="0.8"/><line x1="235.3" y1="72.1" x2="244.7" y2="83.8" stroke="#999" stroke-width="1.64" stroke-opacity="0.8"/><line x1="244.7" y1="83.8" x2="254.1" y2="95.5" stroke="#999" stroke-width="1.64" stroke-opacity="0.8"/><line x1="254.1" y1="95.5" x2="263.5" y2="107.1" stroke="#999" stroke-width="1.64" stroke-opacity="0.8"/><line x1="263.5" y1="107.1" x2="273.0" y2="118.8" stroke="#999" stroke-width="1.64" stroke-opacity="0.8"/><line x1="273.0" y1="118.8" x2="282.4" y2="130.5" stroke="#999" stroke-width="1.64" stroke-opacity="0.8"/><line x1="282.4" y1="130.5" x2="285.4" y2="145.1" stroke="#999" stroke-width="1.64" stroke-opacity="0.8"/><line x1="285.4" y1="145.1" x2="299.0" y2="151.2" stroke="#999" stroke-width="1.64" stroke-opacity="0.8"/><line x1="299.0" y1="151.2" x2="308.4" y2="162.8" stroke="#999" stroke-width="1.64" stroke-opacity="0.8"/><line x1="308.4" y1="162.8" x2="311.7" y2="177.4" stroke="#999" stroke-width="1.64" stroke-opacity="0.8"/><line x1="311.7" y1="177.4" x2="325.2" y2="183.6" stroke="#999" stroke-width="1.64" stroke-opacity="0.8"/><line x1="325.2" y1="183.6" x2="336.8" y2="174.2" stroke="#999" stroke-width="1.64" stroke-opacity="0.8"/><line x1="336.8" y1="174.2" x2="333.6" y2="159.7" stroke="#999" stroke-width="1.64" stroke-opacity="0.8"/><line x1="333.6" y1="159.7" x2="320.1" y2="153.4" stroke="#999" stroke-width="1.64" stroke-opacity="0.8"/><line x1="320.1" y1="153.4" x2="310.7" y2="141.7" stroke="#999" stroke-width="1.64" stroke-opacity="0.8"/><line x1="310.7" y1="141.7" x2="307.6" y2="127.2" stroke="#999" stroke-width="1.64" stroke-opacity="0.8"/><line x1="307.6" y1="127.2" x2="294.1" y2="121.1" stroke="#999" stroke-width="1.64" stroke-opacity="0.8"/><line x1="294.1" y1="121.1" x2="284.6" y2="109.4" stroke="#999" stroke-width="1.64" stroke-opacity="0.8"/><line x1="284.6" y1="109.4" x2="275.2" y2="97.7" stroke="#999" stroke-width="1.64" stroke-opacity="0.8"/><line x1="275.2" y1="97.7" x2="265.8" y2="86.1" stroke="#999" stroke-width="1.64" stroke-opacity="0.8"/><line x1="265.8" y1="86.1" x2="256.4" y2="74.4" stroke="#999" stroke-width="1.64" stroke-opacity="0.8"/><line x1="256.4" y1="74.4" x2="247.0" y2="62.7" stroke="#999" stroke-width="1.64" stroke-opacity="0.8"/><line x1="247.0" y1="62.7" x2="237.6" y2="51.0" stroke="#999" stroke-width="1.64" stroke-opacity="0.8"/><line x1="237.6" y1="51.0" x2="228.2" y2="39.3" stroke="#999" stroke-width="1.64" stroke-opacity="0.8"/><line x1="228.2" y1="39.3" x2="218.8" y2="27.7" stroke="#999" stroke-width="1.64" stroke-opacity="0.8"/><line x1="218.8" y1="27.7" x2="209.3" y2="16.0" stroke="#999" stroke-width="1.64" stroke-opacity="0.8"/><line x1="209.3" y1="16.0" x2="199.9" y2="4.3" stroke="#999" stroke-width="1.64" stroke-opacity="0.8"/><line x1="199.9" y1="4.3" x2="204.7" y2="-9.8" stroke="#999" stroke-width="1.64" stroke-opacity="0.8"/><line x1="204.7" y1="-9.8" x2="190.0" y2="-7.6" stroke="#999" stroke-width="1.64" stroke-opacity="0.8"/><line x1="190.0" y1="-7.6" x2="180.1" y2="-19.0" stroke="#999" stroke-width="1.64" stroke-opacity="0.8"/><line x1="180.1" y1="-19.0" x2="170.3" y2="-30.3" stroke="#999" stroke-width="1.64" stroke-opacity="0.8"/><line x1="170.3" y1="-30.3" x2="166.7" y2="-44.7" stroke="#999" stroke-width="1.64" stroke-opacity="0.8"/><line x1="166.7" y1="-44.7" x2="153.0" y2="-50.3" stroke="#999" stroke-width="1.64" stroke-opacity="0.8"/><line x1="153.0" y1="-50.3" x2="143.1" y2="-61.7" stroke="#999" stroke-width="1.64" stroke-opacity="0.8"/><line x1="143.1" y1="-61.7" x2="133.3" y2="-73.0" stroke="#999" stroke-width="1.64" stroke-opacity="0.8"/><line x1="133.3" y1="-73.0" x2="123.5" y2="-84.4" stroke="#999" stroke-width="1.64" stroke-opacity="0.8"/><line x1="123.5" y1="-84.4" x2="113.7" y2="-95.7" stroke="#999" stroke-width="1.64" stroke-opacity="0.8"/><line x1="113.7" y1="-95.7" x2="112.1" y2="-110.5" stroke="#999" stroke-width="1.64" stroke-opacity="0.8"/><line x1="112.1" y1="-110.5" x2="97.7" y2="-114.1" stroke="#999" stroke-width="1.64" stroke-opacity="0.8"/><line x1="97.7" y1="-114.1" x2="87.9" y2="-125.5" stroke="#999" stroke-width="1.64" stroke-opacity="0.8"/><line x1="87.9" y1="-125.5" x2="78.0" y2="-136.8" stroke="#999" stroke-width="1.64" stroke-opacity="0.8"/><line x1="78.0" y1="-136.8" x2="68.2" y2="-148.1" stroke="#999" stroke-width="1.64" stroke-opacity="0.8"/><line x1="68.2" y1="-148.1" x2="68.7" y2="-165.1" stroke="#999" stroke-width="1.64" stroke-opacity="0.8"/><line x1="68.7" y1="-165.1" x2="67.3" y2="-182.2" stroke="#999" stroke-width="1.64" stroke-opacity="0.8"/><line x1="67.3" y1="-182.2" x2="64.9" y2="-199.3" stroke="#999" stroke-width="1.64" stroke-opacity="0.8"/><text x="35.3" y="-214.6" text-anchor="middle" font-size="7.7" font-family="Tahoma,Geneva,sans-serif" fill="#999">1</text><text x="-33.2" y="-287.7" text-anchor="middle" font-size="7.7" font-family="Tahoma,Geneva,sans-serif" fill="#999">10</text><text x="29.1" y="-164.4" text-anchor="middle" font-size="7.7" font-family="Tahoma,Geneva,sans-serif" fill="#999">20</text><text x="98.7" y="-60.1" text-anchor="middle" font-size="7.7" font-family="Tahoma,Geneva,sans-serif" fill="#999">30</text><text x="193.2" y="51.0" text-anchor="middle" font-size="7.7" font-family="Tahoma,Geneva,sans-serif" fill="#999">40</text><text x="288.1" y="168.0" text-anchor="middle" font-size="7.7" font-family="Tahoma,Geneva,sans-serif" fill="#999">50</text><text x="298.5" y="100.9" text-anchor="middle" font-size="7.7" font-family="Tahoma,Geneva,sans-serif" fill="#999">60</text><text x="218.4" y="-18.5" text-anchor="middle" font-size="7.7" font-family="Tahoma,Geneva,sans-serif" fill="#999">70</text><text x="125.6" y="-119.5" text-anchor="middle" font-size="7.7" font-family="Tahoma,Geneva,sans-serif" fill="#999">80</text><circle cx="43.1" cy="-201.3" r="4.46" fill="lightsalmon" stroke="#ccc" stroke-width="1.64"/><text x="43.1" y="-199.1" text-anchor="middle" font-size="5.6" font-family="Tahoma,Geneva,sans-serif" font-weight="bold" fill="rgb(100,100,100)">G</text><circle cx="27.4" cy="-193.6" r="4.46" fill="lightgreen" stroke="#ccc" stroke-width="1.64"/><text x="27.4" y="-191.4" text-anchor="middle" font-size="5.6" font-family="Tahoma,Geneva,sans-serif" font-weight="bold" fill="rgb(100,100,100)">U</text><circle cx="17.2" cy="-204.6" r="4.46" fill="lightgreen" stroke="#ccc" stroke-width="1.64"/><text x="17.2" y="-202.3" text-anchor="middle" font-size="5.6" font-family="Tahoma,Geneva,sans-serif" font-weight="bold" fill="rgb(100,100,100)">G</text><circle cx="7.0" cy="-215.6" r="4.46" fill="lightgreen" stroke="#ccc" stroke-width="1.64"/><text x="7.0" y="-213.3" text-anchor="middle" font-size="5.6" font-family="Tahoma,Geneva,sans-serif" font-weight="bold" fill="rgb(100,100,100)">C</text><circle cx="-3.3" cy="-226.5" r="4.46" fill="lightgreen" stroke="#ccc" stroke-width="1.64"/><text x="-3.3" y="-224.3" text-anchor="middle" font-size="5.6" font-family="Tahoma,Geneva,sans-serif" font-weight="bold" fill="rgb(100,100,100)">U</text><circle cx="-13.5" cy="-237.5" r="4.46" fill="lightgreen" stroke="#ccc" stroke-width="1.64"/><text x="-13.5" y="-235.3" text-anchor="middle" font-size="5.6" font-family="Tahoma,Geneva,sans-serif" font-weight="bold" fill="rgb(100,100,100)">C</text><circle cx="-9.7" cy="-251.9" r="4.46" fill="#dbdb8d" stroke="#ccc" stroke-width="1.64"/><text x="-9.7" y="-249.7" text-anchor="middle" font-size="5.6" font-family="Tahoma,Geneva,sans-serif" font-weight="bold" fill="rgb(100,100,100)">A</text><circle cx="-24.3" cy="-248.7" r="4.46" fill="lightgreen" stroke="#ccc" stroke-width="1.64"/><text x="-24.3" y="-246.5" text-anchor="middle" font-size="5.6" font-family="Tahoma,Geneva,sans-serif" font-weight="bold" fill="rgb(100,100,100)">G</text><circle cx="-34.9" cy="-259.3" r="4.46" fill="lightgreen" stroke="#ccc" stroke-width="1.64"/><text x="-34.9" y="-257.1" text-anchor="middle" font-size="5.6" font-family="Tahoma,Geneva,sans-serif" font-weight="bold" fill="rgb(100,100,100)">U</text><circle cx="-41.8" cy="-274.8" r="4.46" fill="lightgreen" stroke="#ccc" stroke-width="1.64"/><text x="-41.8" y="-272.5" text-anchor="middle" font-size="5.6" font-family="Tahoma,Geneva,sans-serif" font-weight="bold" fill="rgb(100,100,100)">A</text><circle cx="-58.6" cy="-272.4" r="4.46" fill="lightgreen" stroke="#ccc" stroke-width="1.64"/><text x="-58.6" y="-270.2" text-anchor="middle" font-size="5.6" font-family="Tahoma,Geneva,sans-serif" font-weight="bold" fill="rgb(100,100,100)">C</text><circle cx="-61.0" cy="-255.6" r="4.46" fill="lightgreen" stroke="#ccc" stroke-width="1.64"/><text x="-61.0" y="-253.4" text-anchor="middle" font-size="5.6" font-family="Tahoma,Geneva,sans-serif" font-weight="bold" fill="rgb(100,100,100)">U</text><circle cx="-45.5" cy="-248.7" r="4.46" fill="lightgreen" stroke="#ccc" stroke-width="1.64"/><text x="-45.5" y="-246.5" text-anchor="middle" font-size="5.6" font-family="Tahoma,Geneva,sans-serif" font-weight="bold" fill="rgb(100,100,100)">A</text><circle cx="-34.9" cy="-238.1" r="4.46" fill="lightgreen" stroke="#ccc" stroke-width="1.64"/><text x="-34.9" y="-235.8" text-anchor="middle" font-size="5.6" font-family="Tahoma,Geneva,sans-serif" font-weight="bold" fill="rgb(100,100,100)">C</text><circle cx="-24.5" cy="-227.3" r="4.46" fill="lightgreen" stroke="#ccc" stroke-width="1.64"/><text x="-24.5" y="-225.1" text-anchor="middle" font-size="5.6" font-family="Tahoma,Geneva,sans-serif" font-weight="bold" fill="rgb(100,100,100)">G</text><circle cx="-14.2" cy="-216.3" r="4.46" fill="lightgreen" stroke="#ccc" stroke-width="1.64"/><text x="-14.2" y="-214.1" text-anchor="middle" font-size="5.6" font-family="Tahoma,Geneva,sans-serif" font-weight="bold" fill="rgb(100,100,100)">A</text><circle cx="-4.0" cy="-205.3" r="4.46" fill="lightgreen" stroke="#ccc" stroke-width="1.64"/><text x="-4.0" y="-203.1" text-anchor="middle" font-size="5.6" font-family="Tahoma,Geneva,sans-serif" font-weight="bold" fill="rgb(100,100,100)">G</text><circle cx="6.2" cy="-194.4" r="4.46" fill="lightgreen" stroke="#ccc" stroke-width="1.64"/><text x="6.2" y="-192.1" text-anchor="middle" font-size="5.6" font-family="Tahoma,Geneva,sans-serif" font-weight="bold" fill="rgb(100,100,100)">C</text><circle cx="16.4" cy="-183.4" r="4.46" fill="lightgreen" stroke="#ccc" stroke-width="1.64"/><text x="16.4" y="-181.1" text-anchor="middle" font-size="5.6" font-family="Tahoma,Geneva,sans-serif" font-weight="bold" fill="rgb(100,100,100)">A</text><circle cx="11.3" cy="-168.2" r="4.46" fill="lightgreen" stroke="#ccc" stroke-width="1.64"/><text x="11.3" y="-165.9" text-anchor="middle" font-size="5.6" font-family="Tahoma,Geneva,sans-serif" font-weight="bold" fill="rgb(100,100,100)">A</text><circle cx="14.5" cy="-152.3" r="4.46" fill="lightgreen" stroke="#ccc" stroke-width="1.64"/><text x="14.5" y="-150.1" text-anchor="middle" font-size="5.6" font-family="Tahoma,Geneva,sans-serif" font-weight="bold" fill="rgb(100,100,100)">G</text><circle cx="25.3" cy="-140.2" r="4.46" fill="lightgreen" stroke="#ccc" stroke-width="1.64"/><text x="25.3" y="-137.9" text-anchor="middle" font-size="5.6" font-family="Tahoma,Geneva,sans-serif" font-weight="bold" fill="rgb(100,100,100)">U</text><circle cx="41.0" cy="-138.7" r="4.46" fill="lightsalmon" stroke="#ccc" stroke-width="1.64"/><text x="41.0" y="-136.5" text-anchor="middle" font-size="5.6" font-family="Tahoma,Geneva,sans-serif" font-weight="bold" fill="rgb(100,100,100)">G</text><circle cx="56.9" cy="-138.3" r="4.46" fill="lightgreen" stroke="#ccc" stroke-width="1.64"/><text x="56.9" y="-136.1" text-anchor="middle" font-size="5.6" font-family="Tahoma,Geneva,sans-serif" font-weight="bold" fill="rgb(100,100,100)">C</text><circle cx="66.7" cy="-127.0" r="4.46" fill="lightgreen" stroke="#ccc" stroke-width="1.64"/><text x="66.7" y="-124.8" text-anchor="middle" font-size="5.6" font-family="Tahoma,Geneva,sans-serif" font-weight="bold" fill="rgb(100,100,100)">C</text><circle cx="76.5" cy="-115.6" r="4.46" fill="lightgreen" stroke="#ccc" stroke-width="1.64"/><text x="76.5" y="-113.4" text-anchor="middle" font-size="5.6" font-family="Tahoma,Geneva,sans-serif" font-weight="bold" fill="rgb(100,100,100)">U</text><circle cx="86.3" cy="-104.3" r="4.46" fill="lightgreen" stroke="#ccc" stroke-width="1.64"/><text x="86.3" y="-102.1" text-anchor="middle" font-size="5.6" font-family="Tahoma,Geneva,sans-serif" font-weight="bold" fill="rgb(100,100,100)">G</text><circle cx="87.9" cy="-89.5" r="4.46" fill="#dbdb8d" stroke="#ccc" stroke-width="1.64"/><text x="87.9" y="-87.3" text-anchor="middle" font-size="5.6" font-family="Tahoma,Geneva,sans-serif" font-weight="bold" fill="rgb(100,100,100)">C</text><circle cx="102.3" cy="-85.9" r="4.46" fill="lightgreen" stroke="#ccc" stroke-width="1.64"/><text x="102.3" y="-83.6" text-anchor="middle" font-size="5.6" font-family="Tahoma,Geneva,sans-serif" font-weight="bold" fill="rgb(100,100,100)">A</text><circle cx="112.1" cy="-74.5" r="4.46" fill="lightgreen" stroke="#ccc" stroke-width="1.64"/><text x="112.1" y="-72.3" text-anchor="middle" font-size="5.6" font-family="Tahoma,Geneva,sans-serif" font-weight="bold" fill="rgb(100,100,100)">G</text><circle cx="122.0" cy="-63.2" r="4.46" fill="lightgreen" stroke="#ccc" stroke-width="1.64"/><text x="122.0" y="-61.0" text-anchor="middle" font-size="5.6" font-family="Tahoma,Geneva,sans-serif" font-weight="bold" fill="rgb(100,100,100)">G</text><circle cx="131.8" cy="-51.9" r="4.46" fill="lightgreen" stroke="#ccc" stroke-width="1.64"/><text x="131.8" y="-49.6" text-anchor="middle" font-size="5.6" font-family="Tahoma,Geneva,sans-serif" font-weight="bold" fill="rgb(100,100,100)">U</text><circle cx="141.6" cy="-40.5" r="4.46" fill="lightgreen" stroke="#ccc" stroke-width="1.64"/><text x="141.6" y="-38.3" text-anchor="middle" font-size="5.6" font-family="Tahoma,Geneva,sans-serif" font-weight="bold" fill="rgb(100,100,100)">C</text><circle cx="145.2" cy="-26.1" r="4.46" fill="#dbdb8d" stroke="#ccc" stroke-width="1.64"/><text x="145.2" y="-23.8" text-anchor="middle" font-size="5.6" font-family="Tahoma,Geneva,sans-serif" font-weight="bold" fill="rgb(100,100,100)">A</text><circle cx="159.0" cy="-20.5" r="4.46" fill="lightgreen" stroke="#ccc" stroke-width="1.64"/><text x="159.0" y="-18.2" text-anchor="middle" font-size="5.6" font-family="Tahoma,Geneva,sans-serif" font-weight="bold" fill="rgb(100,100,100)">G</text><circle cx="168.8" cy="-9.1" r="4.46" fill="lightgreen" stroke="#ccc" stroke-width="1.64"/><text x="168.8" y="-6.9" text-anchor="middle" font-size="5.6" font-family="Tahoma,Geneva,sans-serif" font-weight="bold" fill="rgb(100,100,100)">C</text><circle cx="178.6" cy="2.2" r="4.46" fill="lightgreen" stroke="#ccc" stroke-width="1.64"/><text x="178.6" y="4.4" text-anchor="middle" font-size="5.6" font-family="Tahoma,Geneva,sans-serif" font-weight="bold" fill="rgb(100,100,100)">C</text><circle cx="188.3" cy="13.7" r="4.46" fill="lightgreen" stroke="#ccc" stroke-width="1.64"/><text x="188.3" y="15.9" text-anchor="middle" font-size="5.6" font-family="Tahoma,Geneva,sans-serif" font-weight="bold" fill="rgb(100,100,100)">U</text><circle cx="197.7" cy="25.4" r="4.46" fill="lightgreen" stroke="#ccc" stroke-width="1.64"/><text x="197.7" y="27.6" text-anchor="middle" font-size="5.6" font-family="Tahoma,Geneva,sans-serif" font-weight="bold" fill="rgb(100,100,100)">C</text><circle cx="207.1" cy="37.1" r="4.46" fill="lightgreen" stroke="#ccc" stroke-width="1.64"/><text x="207.1" y="39.3" text-anchor="middle" font-size="5.6" font-family="Tahoma,Geneva,sans-serif" font-weight="bold" fill="rgb(100,100,100)">C</text><circle cx="216.5" cy="48.7" r="4.46" fill="lightgreen" stroke="#ccc" stroke-width="1.64"/><text x="216.5" y="51.0" text-anchor="middle" font-size="5.6" font-family="Tahoma,Geneva,sans-serif" font-weight="bold" fill="rgb(100,100,100)">C</text><circle cx="225.9" cy="60.4" r="4.46" fill="lightgreen" stroke="#ccc" stroke-width="1.64"/><text x="225.9" y="62.7" text-anchor="middle" font-size="5.6" font-family="Tahoma,Geneva,sans-serif" font-weight="bold" fill="rgb(100,100,100)">G</text><circle cx="235.3" cy="72.1" r="4.46" fill="lightgreen" stroke="#ccc" stroke-width="1.64"/><text x="235.3" y="74.3" text-anchor="middle" font-size="5.6" font-family="Tahoma,Geneva,sans-serif" font-weight="bold" fill="rgb(100,100,100)">U</text><circle cx="244.7" cy="83.8" r="4.46" fill="lightgreen" stroke="#ccc" stroke-width="1.64"/><text x="244.7" y="86.0" text-anchor="middle" font-size="5.6" font-family="Tahoma,Geneva,sans-serif" font-weight="bold" fill="rgb(100,100,100)">G</text><circle cx="254.1" cy="95.5" r="4.46" fill="lightgreen" stroke="#ccc" stroke-width="1.64"/><text x="254.1" y="97.7" text-anchor="middle" font-size="5.6" font-family="Tahoma,Geneva,sans-serif" font-weight="bold" fill="rgb(100,100,100)">C</text><circle cx="263.5" cy="107.1" r="4.46" fill="lightgreen" stroke="#ccc" stroke-width="1.64"/><text x="263.5" y="109.4" text-anchor="middle" font-size="5.6" font-family="Tahoma,Geneva,sans-serif" font-weight="bold" fill="rgb(100,100,100)">A</text><circle cx="273.0" cy="118.8" r="4.46" fill="lightgreen" stroke="#ccc" stroke-width="1.64"/><text x="273.0" y="121.1" text-anchor="middle" font-size="5.6" font-family="Tahoma,Geneva,sans-serif" font-weight="bold" fill="rgb(100,100,100)">U</text><circle cx="282.4" cy="130.5" r="4.46" fill="lightgreen" stroke="#ccc" stroke-width="1.64"/><text x="282.4" y="132.7" text-anchor="middle" font-size="5.6" font-family="Tahoma,Geneva,sans-serif" font-weight="bold" fill="rgb(100,100,100)">G</text><circle cx="285.4" cy="145.1" r="4.46" fill="#dbdb8d" stroke="#ccc" stroke-width="1.64"/><text x="285.4" y="147.3" text-anchor="middle" font-size="5.6" font-family="Tahoma,Geneva,sans-serif" font-weight="bold" fill="rgb(100,100,100)">C</text><circle cx="299.0" cy="151.2" r="4.46" fill="lightgreen" stroke="#ccc" stroke-width="1.64"/><text x="299.0" y="153.4" text-anchor="middle" font-size="5.6" font-family="Tahoma,Geneva,sans-serif" font-weight="bold" fill="rgb(100,100,100)">C</text><circle cx="308.4" cy="162.8" r="4.46" fill="lightgreen" stroke="#ccc" stroke-width="1.64"/><text x="308.4" y="165.1" text-anchor="middle" font-size="5.6" font-family="Tahoma,Geneva,sans-serif" font-weight="bold" fill="rgb(100,100,100)">U</text><circle cx="311.7" cy="177.4" r="4.46" fill="lightblue" stroke="#ccc" stroke-width="1.64"/><text x="311.7" y="179.6" text-anchor="middle" font-size="5.6" font-family="Tahoma,Geneva,sans-serif" font-weight="bold" fill="rgb(100,100,100)">A</text><circle cx="325.2" cy="183.6" r="4.46" fill="lightblue" stroke="#ccc" stroke-width="1.64"/><text x="325.2" y="185.8" text-anchor="middle" font-size="5.6" font-family="Tahoma,Geneva,sans-serif" font-weight="bold" fill="rgb(100,100,100)">A</text><circle cx="336.8" cy="174.2" r="4.46" fill="lightblue" stroke="#ccc" stroke-width="1.64"/><text x="336.8" y="176.5" text-anchor="middle" font-size="5.6" font-family="Tahoma,Geneva,sans-serif" font-weight="bold" fill="rgb(100,100,100)">U</text><circle cx="333.6" cy="159.7" r="4.46" fill="lightblue" stroke="#ccc" stroke-width="1.64"/><text x="333.6" y="161.9" text-anchor="middle" font-size="5.6" font-family="Tahoma,Geneva,sans-serif" font-weight="bold" fill="rgb(100,100,100)">A</text><circle cx="320.1" cy="153.4" r="4.46" fill="lightgreen" stroke="#ccc" stroke-width="1.64"/><text x="320.1" y="155.7" text-anchor="middle" font-size="5.6" font-family="Tahoma,Geneva,sans-serif" font-weight="bold" fill="rgb(100,100,100)">A</text><circle cx="310.7" cy="141.7" r="4.46" fill="lightgreen" stroke="#ccc" stroke-width="1.64"/><text x="310.7" y="144.0" text-anchor="middle" font-size="5.6" font-family="Tahoma,Geneva,sans-serif" font-weight="bold" fill="rgb(100,100,100)">G</text><circle cx="307.6" cy="127.2" r="4.46" fill="#dbdb8d" stroke="#ccc" stroke-width="1.64"/><text x="307.6" y="129.4" text-anchor="middle" font-size="5.6" font-family="Tahoma,Geneva,sans-serif" font-weight="bold" fill="rgb(100,100,100)">C</text><circle cx="294.1" cy="121.1" r="4.46" fill="lightgreen" stroke="#ccc" stroke-width="1.64"/><text x="294.1" y="123.3" text-anchor="middle" font-size="5.6" font-family="Tahoma,Geneva,sans-serif" font-weight="bold" fill="rgb(100,100,100)">C</text><circle cx="284.6" cy="109.4" r="4.46" fill="lightgreen" stroke="#ccc" stroke-width="1.64"/><text x="284.6" y="111.6" text-anchor="middle" font-size="5.6" font-family="Tahoma,Geneva,sans-serif" font-weight="bold" fill="rgb(100,100,100)">A</text><circle cx="275.2" cy="97.7" r="4.46" fill="lightgreen" stroke="#ccc" stroke-width="1.64"/><text x="275.2" y="100.0" text-anchor="middle" font-size="5.6" font-family="Tahoma,Geneva,sans-serif" font-weight="bold" fill="rgb(100,100,100)">U</text><circle cx="265.8" cy="86.1" r="4.46" fill="lightgreen" stroke="#ccc" stroke-width="1.64"/><text x="265.8" y="88.3" text-anchor="middle" font-size="5.6" font-family="Tahoma,Geneva,sans-serif" font-weight="bold" fill="rgb(100,100,100)">G</text><circle cx="256.4" cy="74.4" r="4.46" fill="lightgreen" stroke="#ccc" stroke-width="1.64"/><text x="256.4" y="76.6" text-anchor="middle" font-size="5.6" font-family="Tahoma,Geneva,sans-serif" font-weight="bold" fill="rgb(100,100,100)">C</text><circle cx="247.0" cy="62.7" r="4.46" fill="lightgreen" stroke="#ccc" stroke-width="1.64"/><text x="247.0" y="64.9" text-anchor="middle" font-size="5.6" font-family="Tahoma,Geneva,sans-serif" font-weight="bold" fill="rgb(100,100,100)">A</text><circle cx="237.6" cy="51.0" r="4.46" fill="lightgreen" stroke="#ccc" stroke-width="1.64"/><text x="237.6" y="53.2" text-anchor="middle" font-size="5.6" font-family="Tahoma,Geneva,sans-serif" font-weight="bold" fill="rgb(100,100,100)">C</text><circle cx="228.2" cy="39.3" r="4.46" fill="lightgreen" stroke="#ccc" stroke-width="1.64"/><text x="228.2" y="41.6" text-anchor="middle" font-size="5.6" font-family="Tahoma,Geneva,sans-serif" font-weight="bold" fill="rgb(100,100,100)">G</text><circle cx="218.8" cy="27.7" r="4.46" fill="lightgreen" stroke="#ccc" stroke-width="1.64"/><text x="218.8" y="29.9" text-anchor="middle" font-size="5.6" font-family="Tahoma,Geneva,sans-serif" font-weight="bold" fill="rgb(100,100,100)">G</text><circle cx="209.3" cy="16.0" r="4.46" fill="lightgreen" stroke="#ccc" stroke-width="1.64"/><text x="209.3" y="18.2" text-anchor="middle" font-size="5.6" font-family="Tahoma,Geneva,sans-serif" font-weight="bold" fill="rgb(100,100,100)">G</text><circle cx="199.9" cy="4.3" r="4.46" fill="lightgreen" stroke="#ccc" stroke-width="1.64"/><text x="199.9" y="6.5" text-anchor="middle" font-size="5.6" font-family="Tahoma,Geneva,sans-serif" font-weight="bold" fill="rgb(100,100,100)">A</text><circle cx="204.7" cy="-9.8" r="4.46" fill="#dbdb8d" stroke="#ccc" stroke-width="1.64"/><text x="204.7" y="-7.6" text-anchor="middle" font-size="5.6" font-family="Tahoma,Geneva,sans-serif" font-weight="bold" fill="rgb(100,100,100)">U</text><circle cx="190.0" cy="-7.6" r="4.46" fill="lightgreen" stroke="#ccc" stroke-width="1.64"/><text x="190.0" y="-5.4" text-anchor="middle" font-size="5.6" font-family="Tahoma,Geneva,sans-serif" font-weight="bold" fill="rgb(100,100,100)">G</text><circle cx="180.1" cy="-19.0" r="4.46" fill="lightgreen" stroke="#ccc" stroke-width="1.64"/><text x="180.1" y="-16.7" text-anchor="middle" font-size="5.6" font-family="Tahoma,Geneva,sans-serif" font-weight="bold" fill="rgb(100,100,100)">G</text><circle cx="170.3" cy="-30.3" r="4.46" fill="lightgreen" stroke="#ccc" stroke-width="1.64"/><text x="170.3" y="-28.1" text-anchor="middle" font-size="5.6" font-family="Tahoma,Geneva,sans-serif" font-weight="bold" fill="rgb(100,100,100)">U</text><circle cx="166.7" cy="-44.7" r="4.46" fill="#dbdb8d" stroke="#ccc" stroke-width="1.64"/><text x="166.7" y="-42.5" text-anchor="middle" font-size="5.6" font-family="Tahoma,Geneva,sans-serif" font-weight="bold" fill="rgb(100,100,100)">C</text><circle cx="153.0" cy="-50.3" r="4.46" fill="lightgreen" stroke="#ccc" stroke-width="1.64"/><text x="153.0" y="-48.1" text-anchor="middle" font-size="5.6" font-family="Tahoma,Geneva,sans-serif" font-weight="bold" fill="rgb(100,100,100)">G</text><circle cx="143.1" cy="-61.7" r="4.46" fill="lightgreen" stroke="#ccc" stroke-width="1.64"/><text x="143.1" y="-59.4" text-anchor="middle" font-size="5.6" font-family="Tahoma,Geneva,sans-serif" font-weight="bold" fill="rgb(100,100,100)">A</text><circle cx="133.3" cy="-73.0" r="4.46" fill="lightgreen" stroke="#ccc" stroke-width="1.64"/><text x="133.3" y="-70.8" text-anchor="middle" font-size="5.6" font-family="Tahoma,Geneva,sans-serif" font-weight="bold" fill="rgb(100,100,100)">C</text><circle cx="123.5" cy="-84.4" r="4.46" fill="lightgreen" stroke="#ccc" stroke-width="1.64"/><text x="123.5" y="-82.1" text-anchor="middle" font-size="5.6" font-family="Tahoma,Geneva,sans-serif" font-weight="bold" fill="rgb(100,100,100)">C</text><circle cx="113.7" cy="-95.7" r="4.46" fill="lightgreen" stroke="#ccc" stroke-width="1.64"/><text x="113.7" y="-93.5" text-anchor="middle" font-size="5.6" font-family="Tahoma,Geneva,sans-serif" font-weight="bold" fill="rgb(100,100,100)">U</text><circle cx="112.1" cy="-110.5" r="4.46" fill="#dbdb8d" stroke="#ccc" stroke-width="1.64"/><text x="112.1" y="-108.3" text-anchor="middle" font-size="5.6" font-family="Tahoma,Geneva,sans-serif" font-weight="bold" fill="rgb(100,100,100)">A</text><circle cx="97.7" cy="-114.1" r="4.46" fill="lightgreen" stroke="#ccc" stroke-width="1.64"/><text x="97.7" y="-111.9" text-anchor="middle" font-size="5.6" font-family="Tahoma,Geneva,sans-serif" font-weight="bold" fill="rgb(100,100,100)">C</text><circle cx="87.9" cy="-125.5" r="4.46" fill="lightgreen" stroke="#ccc" stroke-width="1.64"/><text x="87.9" y="-123.2" text-anchor="middle" font-size="5.6" font-family="Tahoma,Geneva,sans-serif" font-weight="bold" fill="rgb(100,100,100)">A</text><circle cx="78.0" cy="-136.8" r="4.46" fill="lightgreen" stroke="#ccc" stroke-width="1.64"/><text x="78.0" y="-134.6" text-anchor="middle" font-size="5.6" font-family="Tahoma,Geneva,sans-serif" font-weight="bold" fill="rgb(100,100,100)">G</text><circle cx="68.2" cy="-148.1" r="4.46" fill="lightgreen" stroke="#ccc" stroke-width="1.64"/><text x="68.2" y="-145.9" text-anchor="middle" font-size="5.6" font-family="Tahoma,Geneva,sans-serif" font-weight="bold" fill="rgb(100,100,100)">G</text><circle cx="68.7" cy="-165.1" r="4.46" fill="lightsalmon" stroke="#ccc" stroke-width="1.64"/><text x="68.7" y="-162.9" text-anchor="middle" font-size="5.6" font-family="Tahoma,Geneva,sans-serif" font-weight="bold" fill="rgb(100,100,100)">A</text><circle cx="67.3" cy="-182.2" r="4.46" fill="lightsalmon" stroke="#ccc" stroke-width="1.64"/><text x="67.3" y="-179.9" text-anchor="middle" font-size="5.6" font-family="Tahoma,Geneva,sans-serif" font-weight="bold" fill="rgb(100,100,100)">A</text><circle cx="64.9" cy="-199.3" r="4.46" fill="lightsalmon" stroke="#ccc" stroke-width="1.64"/><text x="64.9" y="-197.1" text-anchor="middle" font-size="5.6" font-family="Tahoma,Geneva,sans-serif" font-weight="bold" fill="rgb(100,100,100)">C</text></svg>