<svg xmlns="http://www.w3.org/2000/svg" viewBox="-168.3 -217.5 621.2 254.5" width="621" height="255"><style></style><line x1="-109.4" y1="-179.5" x2="-114.7" y2="-165.4" stroke="#999" stroke-width="1.59" stroke-opacity="0.8"/><line x1="-95.4" y1="-174.2" x2="-100.6" y2="-160.2" stroke="#999" stroke-width="1.59" stroke-opacity="0.8"/><line x1="-81.3" y1="-169.0" x2="-86.6" y2="-154.9" stroke="#999" stroke-width="1.59" stroke-opacity="0.8"/><line x1="-67.3" y1="-163.7" x2="-72.5" y2="-149.7" stroke="#999" stroke-width="1.59" stroke-opacity="0.8"/><line x1="-52.8" y1="-158.0" x2="-58.6" y2="-144.2" stroke="#999" stroke-width="1.59" stroke-opacity="0.8"/><line x1="-39.0" y1="-152.3" x2="-44.7" y2="-138.4" stroke="#999" stroke-width="1.59" stroke-opacity="0.8"/><line x1="-25.0" y1="-146.8" x2="-30.2" y2="-132.8" stroke="#999" stroke-width="1.59" stroke-opacity="0.8"/><line x1="-11.0" y1="-141.6" x2="-16.2" y2="-127.5" stroke="#999" stroke-width="1.59" stroke-opacity="0.8"/><line x1="20.6" y1="-131.1" x2="16.4" y2="-116.7" stroke="#999" stroke-width="1.59" stroke-opacity="0.8"/><line x1="35.0" y1="-126.9" x2="30.8" y2="-112.5" stroke="#999" stroke-width="1.59" stroke-opacity="0.8"/><line x1="49.4" y1="-122.7" x2="45.2" y2="-108.3" stroke="#999" stroke-width="1.59" stroke-opacity="0.8"/><line x1="63.8" y1="-118.5" x2="59.6" y2="-104.1" stroke="#999" stroke-width="1.59" stroke-opacity="0.8"/><line x1="78.2" y1="-114.2" x2="73.9" y2="-99.8" stroke="#999" stroke-width="1.59" stroke-opacity="0.8"/><line x1="-131.6" y1="-165.3" x2="92.2" y2="-75.1" stroke="#d9534f" stroke-width="1.59" stroke-opacity="0.6"/><line x1="-136.5" y1="-181.5" x2="108.4" y2="-75.3" stroke="#d9534f" stroke-width="1.59" stroke-opacity="0.6"/><line x1="391.9" y1="-4.0" x2="395.6" y2="-18.5" stroke="#999" stroke-width="1.59" stroke-opacity="0.8"/><line x1="377.4" y1="-7.7" x2="381.1" y2="-22.2" stroke="#999" stroke-width="1.59" stroke-opacity="0.8"/><line x1="362.9" y1="-11.4" x2="366.6" y2="-25.9" stroke="#999" stroke-width="1.59" stroke-opacity="0.8"/><line x1="348.3" y1="-15.1" x2="352.0" y2="-29.7" stroke="#999" stroke-width="1.59" stroke-opacity="0.8"/><line x1="333.8" y1="-18.8" x2="337.5" y2="-33.4" stroke="#999" stroke-width="1.59" stroke-opacity="0.8"/><line x1="318.8" y1="-22.9" x2="323.0" y2="-37.3" stroke="#999" stroke-width="1.59" stroke-opacity="0.8"/><line x1="304.4" y1="-27.2" x2="308.6" y2="-41.6" stroke="#999" stroke-width="1.59" stroke-opacity="0.8"/><line x1="290.0" y1="-31.4" x2="294.3" y2="-45.8" stroke="#999" stroke-width="1.59" stroke-opacity="0.8"/><line x1="275.6" y1="-35.6" x2="279.9" y2="-50.0" stroke="#999" stroke-width="1.59" stroke-opacity="0.8"/><line x1="261.2" y1="-39.8" x2="265.5" y2="-54.2" stroke="#999" stroke-width="1.59" stroke-opacity="0.8"/><line x1="246.9" y1="-44.1" x2="251.1" y2="-58.5" stroke="#999" stroke-width="1.59" stroke-opacity="0.8"/><line x1="232.5" y1="-48.3" x2="236.7" y2="-62.7" stroke="#999" stroke-width="1.59" stroke-opacity="0.8"/><line x1="217.6" y1="-52.9" x2="222.4" y2="-67.2" stroke="#999" stroke-width="1.59" stroke-opacity="0.8"/><line x1="203.4" y1="-57.7" x2="208.1" y2="-71.9" stroke="#999" stroke-width="1.59" stroke-opacity="0.8"/><line x1="189.2" y1="-62.4" x2="193.9" y2="-76.6" stroke="#999" stroke-width="1.59" stroke-opacity="0.8"/><line x1="174.9" y1="-67.2" x2="179.7" y2="-81.4" stroke="#999" stroke-width="1.59" stroke-opacity="0.8"/><line x1="160.7" y1="-71.9" x2="165.4" y2="-86.1" stroke="#999" stroke-width="1.59" stroke-opacity="0.8"/><line x1="135.5" y1="-80.3" x2="140.3" y2="-94.5" stroke="#999" stroke-width="1.59" stroke-opacity="0.8"/><line x1="121.3" y1="-85.0" x2="126.0" y2="-99.2" stroke="#999" stroke-width="1.59" stroke-opacity="0.8"/><line x1="78.2" y1="-114.2" x2="63.8" y2="-118.5" stroke="#999" stroke-width="1.59" stroke-opacity="0.8"/><line x1="63.8" y1="-118.5" x2="49.4" y2="-122.7" stroke="#999" stroke-width="1.59" stroke-opacity="0.8"/><line x1="49.4" y1="-122.7" x2="35.0" y2="-126.9" stroke="#999" stroke-width="1.59" stroke-opacity="0.8"/><line x1="35.0" y1="-126.9" x2="20.6" y2="-131.1" stroke="#999" stroke-width="1.59" stroke-opacity="0.8"/><line x1="20.6" y1="-131.1" x2="4.9" y2="-136.5" stroke="#999" stroke-width="1.59" stroke-opacity="0.8"/><line x1="4.9" y1="-136.5" x2="-11.0" y2="-141.6" stroke="#999" stroke-width="1.59" stroke-opacity="0.8"/><line x1="-11.0" y1="-141.6" x2="-25.0" y2="-146.8" stroke="#999" stroke-width="1.59" stroke-opacity="0.8"/><line x1="-25.0" y1="-146.8" x2="-39.0" y2="-152.3" stroke="#999" stroke-width="1.59" stroke-opacity="0.8"/><line x1="-39.0" y1="-152.3" x2="-52.8" y2="-158.0" stroke="#999" stroke-width="1.59" stroke-opacity="0.8"/><line x1="-52.8" y1="-158.0" x2="-55.6" y2="-172.3" stroke="#999" stroke-width="1.59" stroke-opacity="0.8"/><line x1="-55.6" y1="-172.3" x2="-67.3" y2="-163.7" stroke="#999" stroke-width="1.59" stroke-opacity="0.8"/><line x1="-67.3" y1="-163.7" x2="-81.3" y2="-169.0" stroke="#999" stroke-width="1.59" stroke-opacity="0.8"/><line x1="-81.3" y1="-169.0" x2="-95.4" y2="-174.2" stroke="#999" stroke-width="1.59" stroke-opacity="0.8"/><line x1="-95.4" y1="-174.2" x2="-109.4" y2="-179.5" stroke="#999" stroke-width="1.59" stroke-opacity="0.8"/><line x1="-109.4" y1="-179.5" x2="-122.6" y2="-185.7" stroke="#999" stroke-width="1.59" stroke-opacity="0.8"/><line x1="-122.6" y1="-185.7" x2="-136.5" y2="-181.5" stroke="#999" stroke-width="1.59" stroke-opacity="0.8"/><line x1="-136.5" y1="-181.5" x2="-131.6" y2="-165.3" stroke="#999" stroke-width="1.59" stroke-opacity="0.8"/><line x1="-131.6" y1="-165.3" x2="-114.7" y2="-165.4" stroke="#999" stroke-width="1.59" stroke-opacity="0.8"/><line x1="-114.7" y1="-165.4" x2="-100.6" y2="-160.2" stroke="#999" stroke-width="1.59" stroke-opacity="0.8"/><line x1="-100.6" y1="-160.2" x2="-86.6" y2="-154.9" stroke="#999" stroke-width="1.59" stroke-opacity="0.8"/><line x1="-86.6" y1="-154.9" x2="-72.5" y2="-149.7" stroke="#999" stroke-width="1.59" stroke-opacity="0.8"/><line x1="-72.5" y1="-149.7" x2="-58.6" y2="-144.2" stroke="#999" stroke-width="1.59" stroke-opacity="0.8"/><line x1="-58.6" y1="-144.2" x2="-44.7" y2="-138.4" stroke="#999" stroke-width="1.59" stroke-opacity="0.8"/><line x1="-44.7" y1="-138.4" x2="-42.0" y2="-124.2" stroke="#999" stroke-width="1.59" stroke-opacity="0.8"/><line x1="-42.0" y1="-124.2" x2="-30.2" y2="-132.8" stroke="#999" stroke-width="1.59" stroke-opacity="0.8"/><line x1="-30.2" y1="-132.8" x2="-16.2" y2="-127.5" stroke="#999" stroke-width="1.59" stroke-opacity="0.8"/><line x1="-16.2" y1="-127.5" x2="-18.5" y2="-113.2" stroke="#999" stroke-width="1.59" stroke-opacity="0.8"/><line x1="-18.5" y1="-113.2" x2="-5.2" y2="-107.5" stroke="#999" stroke-width="1.59" stroke-opacity="0.8"/><line x1="-5.2" y1="-107.5" x2="9.0" y2="-104.3" stroke="#999" stroke-width="1.59" stroke-opacity="0.8"/><line x1="9.0" y1="-104.3" x2="16.4" y2="-116.7" stroke="#999" stroke-width="1.59" stroke-opacity="0.8"/><line x1="16.4" y1="-116.7" x2="30.8" y2="-112.5" stroke="#999" stroke-width="1.59" stroke-opacity="0.8"/><line x1="30.8" y1="-112.5" x2="45.2" y2="-108.3" stroke="#999" stroke-width="1.59" stroke-opacity="0.8"/><line x1="45.2" y1="-108.3" x2="59.6" y2="-104.1" stroke="#999" stroke-width="1.59" stroke-opacity="0.8"/><line x1="59.6" y1="-104.1" x2="73.9" y2="-99.8" stroke="#999" stroke-width="1.59" stroke-opacity="0.8"/><line x1="73.9" y1="-99.8" x2="82.6" y2="-87.1" stroke="#999" stroke-width="1.59" stroke-opacity="0.8"/><line x1="82.6" y1="-87.1" x2="92.2" y2="-75.1" stroke="#999" stroke-width="1.59" stroke-opacity="0.8"/><line x1="92.2" y1="-75.1" x2="108.4" y2="-75.3" stroke="#999" stroke-width="1.59" stroke-opacity="0.8"/><line x1="108.4" y1="-75.3" x2="121.3" y2="-85.0" stroke="#999" stroke-width="1.59" stroke-opacity="0.8"/><line x1="121.3" y1="-85.0" x2="135.5" y2="-80.3" stroke="#999" stroke-width="1.59" stroke-opacity="0.8"/><line x1="135.5" y1="-80.3" x2="146.3" y2="-70.5" stroke="#999" stroke-width="1.59" stroke-opacity="0.8"/><line x1="146.3" y1="-70.5" x2="160.7" y2="-71.9" stroke="#999" stroke-width="1.59" stroke-opacity="0.8"/><line x1="160.7" y1="-71.9" x2="174.9" y2="-67.2" stroke="#999" stroke-width="1.59" stroke-opacity="0.8"/><line x1="174.9" y1="-67.2" x2="189.2" y2="-62.4" stroke="#999" stroke-width="1.59" stroke-opacity="0.8"/><line x1="189.2" y1="-62.4" x2="203.4" y2="-57.7" stroke="#999" stroke-width="1.59" stroke-opacity="0.8"/><line x1="203.4" y1="-57.7" x2="217.6" y2="-52.9" stroke="#999" stroke-width="1.59" stroke-opacity="0.8"/><line x1="217.6" y1="-52.9" x2="221.4" y2="-38.9" stroke="#999" stroke-width="1.59" stroke-opacity="0.8"/><line x1="221.4" y1="-38.9" x2="232.5" y2="-48.3" stroke="#999" stroke-width="1.59" stroke-opacity="0.8"/><line x1="232.5" y1="-48.3" x2="246.9" y2="-44.1" stroke="#999" stroke-width="1.59" stroke-opacity="0.8"/><line x1="246.9" y1="-44.1" x2="261.2" y2="-39.8" stroke="#999" stroke-width="1.59" stroke-opacity="0.8"/><line x1="261.2" y1="-39.8" x2="275.6" y2="-35.6" stroke="#999" stroke-width="1.59" stroke-opacity="0.8"/><line x1="275.6" y1="-35.6" x2="290.0" y2="-31.4" stroke="#999" stroke-width="1.59" stroke-opacity="0.8"/><line x1="290.0" y1="-31.4" x2="304.4" y2="-27.2" stroke="#999" stroke-width="1.59" stroke-opacity="0.8"/><line x1="304.4" y1="-27.2" x2="318.8" y2="-22.9" stroke="#999" stroke-width="1.59" stroke-opacity="0.8"/><line x1="318.8" y1="-22.9" x2="323.1" y2="-9.1" stroke="#999" stroke-width="1.59" stroke-opacity="0.8"/><line x1="323.1" y1="-9.1" x2="333.8" y2="-18.8" stroke="#999" stroke-width="1.59" stroke-opacity="0.8"/><line x1="333.8" y1="-18.8" x2="348.3" y2="-15.1" stroke="#999" stroke-width="1.59" stroke-opacity="0.8"/><line x1="348.3" y1="-15.1" x2="362.9" y2="-11.4" stroke="#999" stroke-width="1.59" stroke-opacity="0.8"/><line x1="362.9" y1="-11.4" x2="377.4" y2="-7.7" stroke="#999" stroke-width="1.59" stroke-opacity="0.8"/><line x1="377.4" y1="-7.7" x2="391.9" y2="-4.0" stroke="#999" stroke-width="1.59" stroke-opacity="0.8"/><line x1="391.9" y1="-4.0" x2="403.2" y2="5.1" stroke="#999" stroke-width="1.59" stroke-opacity="0.8"/><line x1="403.2" y1="5.1" x2="417.4" y2="2.2" stroke="#999" stroke-width="1.59" stroke-opacity="0.8"/><line x1="417.4" y1="2.2" x2="421.0" y2="-11.8" stroke="#999" stroke-width="1.59" stroke-opacity="0.8"/><line x1="421.0" y1="-11.8" x2="409.9" y2="-21.1" stroke="#999" stroke-width="1.59" stroke-opacity="0.8"/><line x1="409.9" y1="-21.1" x2="395.6" y2="-18.5" stroke="#999" stroke-width="1.59" stroke-opacity="0.8"/><line x1="395.6" y1="-18.5" x2="381.1" y2="-22.2" stroke="#999" stroke-width="1.59" stroke-opacity="0.8"/><line x1="381.1" y1="-22.2" x2="366.6" y2="-25.9" stroke="#999" stroke-width="1.59" stroke-opacity="0.8"/><line x1="366.6" y1="-25.9" x2="352.0" y2="-29.7" stroke="#999" stroke-width="1.59" stroke-opacity="0.8"/><line x1="352.0" y1="-29.7" x2="337.5" y2="-33.4" stroke="#999" stroke-width="1.59" stroke-opacity="0.8"/><line x1="337.5" y1="-33.4" x2="323.0" y2="-37.3" stroke="#999" stroke-width="1.59" stroke-opacity="0.8"/><line x1="323.0" y1="-37.3" x2="308.6" y2="-41.6" stroke="#999" stroke-width="1.59" stroke-opacity="0.8"/><line x1="308.6" y1="-41.6" x2="294.3" y2="-45.8" stroke="#999" stroke-width="1.59" stroke-opacity="0.8"/><line x1="294.3" y1="-45.8" x2="279.9" y2="-50.0" stroke="#999" stroke-width="1.59" stroke-opacity="0.8"/><line x1="279.9" y1="-50.0" x2="265.5" y2="-54.2" stroke="#999" stroke-width="1.59" stroke-opacity="0.8"/><line x1="265.5" y1="-54.2" x2="251.1" y2="-58.5" stroke="#999" stroke-width="1.59" stroke-opacity="0.8"/><line x1="251.1" y1="-58.5" x2="236.7" y2="-62.7" stroke="#999" stroke-width="1.59" stroke-opacity="0.8"/><line x1="236.7" y1="-62.7" x2="222.4" y2="-67.2" stroke="#999" stroke-width="1.59" stroke-opacity="0.8"/><line x1="222.4" y1="-67.2" x2="208.1" y2="-71.9" stroke="#999" stroke-width="1.59" stroke-opacity="0.8"/><line x1="208.1" y1="-71.9" x2="193.9" y2="-76.6" stroke="#999" stroke-width="1.59" stroke-opacity="0.8"/><line x1="193.9" y1="-76.6" x2="179.7" y2="-81.4" stroke="#999" stroke-width="1.59" stroke-opacity="0.8"/><line x1="179.7" y1="-81.4" x2="165.4" y2="-86.1" stroke="#999" stroke-width="1.59" stroke-opacity="0.8"/><line x1="165.4" y1="-86.1" x2="154.7" y2="-95.9" stroke="#999" stroke-width="1.59" stroke-opacity="0.8"/><line x1="154.7" y1="-95.9" x2="140.3" y2="-94.5" stroke="#999" stroke-width="1.59" stroke-opacity="0.8"/><line x1="140.3" y1="-94.5" x2="126.0" y2="-99.2" stroke="#999" stroke-width="1.59" stroke-opacity="0.8"/><line x1="126.0" y1="-99.2" x2="115.9" y2="-112.1" stroke="#999" stroke-width="1.59" stroke-opacity="0.8"/><line x1="115.9" y1="-112.1" x2="103.4" y2="-122.9" stroke="#999" stroke-width="1.59" stroke-opacity="0.8"/><line x1="103.4" y1="-122.9" x2="89.6" y2="-132.5" stroke="#999" stroke-width="1.59" stroke-opacity="0.8"/><text x="83.1" y="-128.3" text-anchor="middle" font-size="7.5" font-family="Tahoma,Geneva,sans-serif" fill="#999">1</text><text x="-39.5" y="-166.5" text-anchor="middle" font-size="7.5" font-family="Tahoma,Geneva,sans-serif" fill="#999">10</text><text x="-106.7" y="-141.2" text-anchor="middle" font-size="7.5" font-family="Tahoma,Geneva,sans-serif" fill="#999">20</text><text x="15.8" y="-85.7" text-anchor="middle" font-size="7.5" font-family="Tahoma,Geneva,sans-serif" fill="#999">30</text><text x="126.8" y="-62.6" text-anchor="middle" font-size="7.5" font-family="Tahoma,Geneva,sans-serif" fill="#999">40</text><text x="256.3" y="-20.5" text-anchor="middle" font-size="7.5" font-family="Tahoma,Geneva,sans-serif" fill="#999">50</text><text x="384.2" y="14.2" text-anchor="middle" font-size="7.5" font-family="Tahoma,Geneva,sans-serif" fill="#999">60</text><text x="327.8" y="-51.4" text-anchor="middle" font-size="7.5" font-family="Tahoma,Geneva,sans-serif" fill="#999">70</text><text x="185.2" y="-95.2" text-anchor="middle" font-size="7.5" font-family="Tahoma,Geneva,sans-serif" fill="#999">80</text><circle cx="78.2" cy="-114.2" r="4.35" fill="lightgreen" stroke="#ccc" stroke-width="1.59"/><text x="78.2" y="-112.1" text-anchor="middle" font-size="5.4" font-family="Tahoma,Geneva,sans-serif" font-weight="bold" fill="rgb(100,100,100)">A</text><circle cx="63.8" cy="-118.5" r="4.35" fill="lightgreen" stroke="#ccc" stroke-width="1.59"/><text x="63.8" y="-116.3" text-anchor="middle" font-size="5.4" font-family="Tahoma,Geneva,sans-serif" font-weight="bold" fill="rgb(100,100,100)">A</text><circle cx="49.4" cy="-122.7" r="4.35" fill="lightgreen" stroke="#ccc" stroke-width="1.59"/><text x="49.4" y="-120.5" text-anchor="middle" font-size="5.4" font-family="Tahoma,Geneva,sans-serif" font-weight="bold" fill="rgb(100,100,100)">C</text><circle cx="35.0" cy="-126.9" r="4.35" fill="lightgreen" stroke="#ccc" stroke-width="1.59"/><text x="35.0" y="-124.7" text-anchor="middle" font-size="5.4" font-family="Tahoma,Geneva,sans-serif" font-weight="bold" fill="rgb(100,100,100)">C</text><circle cx="20.6" cy="-131.1" r="4.35" fill="lightgreen" stroke="#ccc" stroke-width="1.59"/><text x="20.6" y="-129.0" text-anchor="middle" font-size="5.4" font-family="Tahoma,Geneva,sans-serif" font-weight="bold" fill="rgb(100,100,100)">A</text><circle cx="4.9" cy="-136.5" r="4.35" fill="#dbdb8d" stroke="#ccc" stroke-width="1.59"/><text x="4.9" y="-134.3" text-anchor="middle" font-size="5.4" font-family="Tahoma,Geneva,sans-serif" font-weight="bold" fill="rgb(100,100,100)">A</text><circle cx="-11.0" cy="-141.6" r="4.35" fill="lightgreen" stroke="#ccc" stroke-width="1.59"/><text x="-11.0" y="-139.4" text-anchor="middle" font-size="5.4" font-family="Tahoma,Geneva,sans-serif" font-weight="bold" fill="rgb(100,100,100)">C</text><circle cx="-25.0" cy="-146.8" r="4.35" fill="lightgreen" stroke="#ccc" stroke-width="1.59"/><text x="-25.0" y="-144.6" text-anchor="middle" font-size="5.4" font-family="Tahoma,Geneva,sans-serif" font-weight="bold" fill="rgb(100,100,100)">A</text><circle cx="-39.0" cy="-152.3" r="4.35" fill="lightgreen" stroke="#ccc" stroke-width="1.59"/><text x="-39.0" y="-150.1" text-anchor="middle" font-size="5.4" font-family="Tahoma,Geneva,sans-serif" font-weight="bold" fill="rgb(100,100,100)">G</text><circle cx="-52.8" cy="-158.0" r="4.35" fill="lightgreen" stroke="#ccc" stroke-width="1.59"/><text x="-52.8" y="-155.9" text-anchor="middle" font-size="5.4" font-family="Tahoma,Geneva,sans-serif" font-weight="bold" fill="rgb(100,100,100)">C</text><circle cx="-55.6" cy="-172.3" r="4.35" fill="#dbdb8d" stroke="#ccc" stroke-width="1.59"/><text x="-55.6" y="-170.1" text-anchor="middle" font-size="5.4" font-family="Tahoma,Geneva,sans-serif" font-weight="bold" fill="rgb(100,100,100)">A</text><circle cx="-67.3" cy="-163.7" r="4.35" fill="lightgreen" stroke="#ccc" stroke-width="1.59"/><text x="-67.3" y="-161.6" text-anchor="middle" font-size="5.4" font-family="Tahoma,Geneva,sans-serif" font-weight="bold" fill="rgb(100,100,100)">C</text><circle cx="-81.3" cy="-169.0" r="4.35" fill="lightgreen" stroke="#ccc" stroke-width="1.59"/><text x="-81.3" y="-166.8" text-anchor="middle" font-size="5.4" font-family="Tahoma,Geneva,sans-serif" font-weight="bold" fill="rgb(100,100,100)">U</text><circle cx="-95.4" cy="-174.2" r="4.35" fill="lightgreen" stroke="#ccc" stroke-width="1.59"/><text x="-95.4" y="-172.0" text-anchor="middle" font-size="5.4" font-family="Tahoma,Geneva,sans-serif" font-weight="bold" fill="rgb(100,100,100)">A</text><circle cx="-109.4" cy="-179.5" r="4.35" fill="lightgreen" stroke="#ccc" stroke-width="1.59"/><text x="-109.4" y="-177.3" text-anchor="middle" font-size="5.4" font-family="Tahoma,Geneva,sans-serif" font-weight="bold" fill="rgb(100,100,100)">C</text><circle cx="-122.6" cy="-185.7" r="4.35" fill="lightblue" stroke="#ccc" stroke-width="1.59"/><text x="-122.6" y="-183.5" text-anchor="middle" font-size="5.4" font-family="Tahoma,Geneva,sans-serif" font-weight="bold" fill="rgb(100,100,100)">A</text><circle cx="-136.5" cy="-181.5" r="4.35" fill="lightgreen" stroke="#ccc" stroke-width="1.59"/><text x="-136.5" y="-179.4" text-anchor="middle" font-size="5.4" font-family="Tahoma,Geneva,sans-serif" font-weight="bold" fill="rgb(100,100,100)">U</text><circle cx="-131.6" cy="-165.3" r="4.35" fill="lightgreen" stroke="#ccc" stroke-width="1.59"/><text x="-131.6" y="-163.1" text-anchor="middle" font-size="5.4" font-family="Tahoma,Geneva,sans-serif" font-weight="bold" fill="rgb(100,100,100)">G</text><circle cx="-114.7" cy="-165.4" r="4.35" fill="lightgreen" stroke="#ccc" stroke-width="1.59"/><text x="-114.7" y="-163.2" text-anchor="middle" font-size="5.4" font-family="Tahoma,Geneva,sans-serif" font-weight="bold" fill="rgb(100,100,100)">G</text><circle cx="-100.6" cy="-160.2" r="4.35" fill="lightgreen" stroke="#ccc" stroke-width="1.59"/><text x="-100.6" y="-158.0" text-anchor="middle" font-size="5.4" font-family="Tahoma,Geneva,sans-serif" font-weight="bold" fill="rgb(100,100,100)">U</text><circle cx="-86.6" cy="-154.9" r="4.35" fill="lightgreen" stroke="#ccc" stroke-width="1.59"/><text x="-86.6" y="-152.7" text-anchor="middle" font-size="5.4" font-family="Tahoma,Geneva,sans-serif" font-weight="bold" fill="rgb(100,100,100)">A</text><circle cx="-72.5" cy="-149.7" r="4.35" fill="lightgreen" stroke="#ccc" stroke-width="1.59"/><text x="-72.5" y="-147.5" text-anchor="middle" font-size="5.4" font-family="Tahoma,Geneva,sans-serif" font-weight="bold" fill="rgb(100,100,100)">G</text><circle cx="-58.6" cy="-144.2" r="4.35" fill="lightgreen" stroke="#ccc" stroke-width="1.59"/><text x="-58.6" y="-142.0" text-anchor="middle" font-size="5.4" font-family="Tahoma,Geneva,sans-serif" font-weight="bold" fill="rgb(100,100,100)">G</text><circle cx="-44.7" cy="-138.4" r="4.35" fill="lightgreen" stroke="#ccc" stroke-width="1.59"/><text x="-44.7" y="-136.3" text-anchor="middle" font-size="5.4" font-family="Tahoma,Geneva,sans-serif" font-weight="bold" fill="rgb(100,100,100)">C</text><circle cx="-42.0" cy="-124.2" r="4.35" fill="#dbdb8d" stroke="#ccc" stroke-width="1.59"/><text x="-42.0" y="-122.0" text-anchor="middle" font-size="5.4" font-family="Tahoma,Geneva,sans-serif" font-weight="bold" fill="rgb(100,100,100)">A</text><circle cx="-30.2" cy="-132.8" r="4.35" fill="lightgreen" stroke="#ccc" stroke-width="1.59"/><text x="-30.2" y="-130.6" text-anchor="middle" font-size="5.4" font-family="Tahoma,Geneva,sans-serif" font-weight="bold" fill="rgb(100,100,100)">U</text><circle cx="-16.2" cy="-127.5" r="4.35" fill="lightgreen" stroke="#ccc" stroke-width="1.59"/><text x="-16.2" y="-125.3" text-anchor="middle" font-size="5.4" font-family="Tahoma,Geneva,sans-serif" font-weight="bold" fill="rgb(100,100,100)">G</text><circle cx="-18.5" cy="-113.2" r="4.35" fill="#dbdb8d" stroke="#ccc" stroke-width="1.59"/><text x="-18.5" y="-111.0" text-anchor="middle" font-size="5.4" font-family="Tahoma,Geneva,sans-serif" font-weight="bold" fill="rgb(100,100,100)">G</text><circle cx="-5.2" cy="-107.5" r="4.35" fill="#dbdb8d" stroke="#ccc" stroke-width="1.59"/><text x="-5.2" y="-105.3" text-anchor="middle" font-size="5.4" font-family="Tahoma,Geneva,sans-serif" font-weight="bold" fill="rgb(100,100,100)">A</text><circle cx="9.0" cy="-104.3" r="4.35" fill="#dbdb8d" stroke="#ccc" stroke-width="1.59"/><text x="9.0" y="-102.1" text-anchor="middle" font-size="5.4" font-family="Tahoma,Geneva,sans-serif" font-weight="bold" fill="rgb(100,100,100)">A</text><circle cx="16.4" cy="-116.7" r="4.35" fill="lightgreen" stroke="#ccc" stroke-width="1.59"/><text x="16.4" y="-114.6" text-anchor="middle" font-size="5.4" font-family="Tahoma,Geneva,sans-serif" font-weight="bold" fill="rgb(100,100,100)">U</text><circle cx="30.8" cy="-112.5" r="4.35" fill="lightgreen" stroke="#ccc" stroke-width="1.59"/><text x="30.8" y="-110.3" text-anchor="middle" font-size="5.4" font-family="Tahoma,Geneva,sans-serif" font-weight="bold" fill="rgb(100,100,100)">G</text><circle cx="45.2" cy="-108.3" r="4.35" fill="lightgreen" stroke="#ccc" stroke-width="1.59"/><text x="45.2" y="-106.1" text-anchor="middle" font-size="5.4" font-family="Tahoma,Geneva,sans-serif" font-weight="bold" fill="rgb(100,100,100)">G</text><circle cx="59.6" cy="-104.1" r="4.35" fill="lightgreen" stroke="#ccc" stroke-width="1.59"/><text x="59.6" y="-101.9" text-anchor="middle" font-size="5.4" font-family="Tahoma,Geneva,sans-serif" font-weight="bold" fill="rgb(100,100,100)">U</text><circle cx="73.9" cy="-99.8" r="4.35" fill="lightgreen" stroke="#ccc" stroke-width="1.59"/><text x="73.9" y="-97.7" text-anchor="middle" font-size="5.4" font-family="Tahoma,Geneva,sans-serif" font-weight="bold" fill="rgb(100,100,100)">U</text><circle cx="82.6" cy="-87.1" r="4.35" fill="lightsalmon" stroke="#ccc" stroke-width="1.59"/><text x="82.6" y="-85.0" text-anchor="middle" font-size="5.4" font-family="Tahoma,Geneva,sans-serif" font-weight="bold" fill="rgb(100,100,100)">U</text><circle cx="92.2" cy="-75.1" r="4.35" fill="lightgreen" stroke="#ccc" stroke-width="1.59"/><text x="92.2" y="-73.0" text-anchor="middle" font-size="5.4" font-family="Tahoma,Geneva,sans-serif" font-weight="bold" fill="rgb(100,100,100)">C</text><circle cx="108.4" cy="-75.3" r="4.35" fill="lightgreen" stroke="#ccc" stroke-width="1.59"/><text x="108.4" y="-73.2" text-anchor="middle" font-size="5.4" font-family="Tahoma,Geneva,sans-serif" font-weight="bold" fill="rgb(100,100,100)">A</text><circle cx="121.3" cy="-85.0" r="4.35" fill="lightgreen" stroke="#ccc" stroke-width="1.59"/><text x="121.3" y="-82.8" text-anchor="middle" font-size="5.4" font-family="Tahoma,Geneva,sans-serif" font-weight="bold" fill="rgb(100,100,100)">G</text><circle cx="135.5" cy="-80.3" r="4.35" fill="lightgreen" stroke="#ccc" stroke-width="1.59"/><text x="135.5" y="-78.1" text-anchor="middle" font-size="5.4" font-family="Tahoma,Geneva,sans-serif" font-weight="bold" fill="rgb(100,100,100)">C</text><circle cx="146.3" cy="-70.5" r="4.35" fill="#dbdb8d" stroke="#ccc" stroke-width="1.59"/><text x="146.3" y="-68.4" text-anchor="middle" font-size="5.4" font-family="Tahoma,Geneva,sans-serif" font-weight="bold" fill="rgb(100,100,100)">A</text><circle cx="160.7" cy="-71.9" r="4.35" fill="lightgreen" stroke="#ccc" stroke-width="1.59"/><text x="160.7" y="-69.7" text-anchor="middle" font-size="5.4" font-family="Tahoma,Geneva,sans-serif" font-weight="bold" fill="rgb(100,100,100)">G</text><circle cx="174.9" cy="-67.2" r="4.35" fill="lightgreen" stroke="#ccc" stroke-width="1.59"/><text x="174.9" y="-65.0" text-anchor="middle" font-size="5.4" font-family="Tahoma,Geneva,sans-serif" font-weight="bold" fill="rgb(100,100,100)">U</text><circle cx="189.2" cy="-62.4" r="4.35" fill="lightgreen" stroke="#ccc" stroke-width="1.59"/><text x="189.2" y="-60.2" text-anchor="middle" font-size="5.4" font-family="Tahoma,Geneva,sans-serif" font-weight="bold" fill="rgb(100,100,100)">U</text><circle cx="203.4" cy="-57.7" r="4.35" fill="lightgreen" stroke="#ccc" stroke-width="1.59"/><text x="203.4" y="-55.5" text-anchor="middle" font-size="5.4" font-family="Tahoma,Geneva,sans-serif" font-weight="bold" fill="rgb(100,100,100)">C</text><circle cx="217.6" cy="-52.9" r="4.35" fill="lightgreen" stroke="#ccc" stroke-width="1.59"/><text x="217.6" y="-50.8" text-anchor="middle" font-size="5.4" font-family="Tahoma,Geneva,sans-serif" font-weight="bold" fill="rgb(100,100,100)">A</text><circle cx="221.4" cy="-38.9" r="4.35" fill="#dbdb8d" stroke="#ccc" stroke-width="1.59"/><text x="221.4" y="-36.8" text-anchor="middle" font-size="5.4" font-family="Tahoma,Geneva,sans-serif" font-weight="bold" fill="rgb(100,100,100)">U</text><circle cx="232.5" cy="-48.3" r="4.35" fill="lightgreen" stroke="#ccc" stroke-width="1.59"/><text x="232.5" y="-46.1" text-anchor="middle" font-size="5.4" font-family="Tahoma,Geneva,sans-serif" font-weight="bold" fill="rgb(100,100,100)">G</text><circle cx="246.9" cy="-44.1" r="4.35" fill="lightgreen" stroke="#ccc" stroke-width="1.59"/><text x="246.9" y="-41.9" text-anchor="middle" font-size="5.4" font-family="Tahoma,Geneva,sans-serif" font-weight="bold" fill="rgb(100,100,100)">A</text><circle cx="261.2" cy="-39.8" r="4.35" fill="lightgreen" stroke="#ccc" stroke-width="1.59"/><text x="261.2" y="-37.7" text-anchor="middle" font-size="5.4" font-family="Tahoma,Geneva,sans-serif" font-weight="bold" fill="rgb(100,100,100)">U</text><circle cx="275.6" cy="-35.6" r="4.35" fill="lightgreen" stroke="#ccc" stroke-width="1.59"/><text x="275.6" y="-33.4" text-anchor="middle" font-size="5.4" font-family="Tahoma,Geneva,sans-serif" font-weight="bold" fill="rgb(100,100,100)">C</text><circle cx="290.0" cy="-31.4" r="4.35" fill="lightgreen" stroke="#ccc" stroke-width="1.59"/><text x="290.0" y="-29.2" text-anchor="middle" font-size="5.4" font-family="Tahoma,Geneva,sans-serif" font-weight="bold" fill="rgb(100,100,100)">C</text><circle cx="304.4" cy="-27.2" r="4.35" fill="lightgreen" stroke="#ccc" stroke-width="1.59"/><text x="304.4" y="-25.0" text-anchor="middle" font-size="5.4" font-family="Tahoma,Geneva,sans-serif" font-weight="bold" fill="rgb(100,100,100)">G</text><circle cx="318.8" cy="-22.9" r="4.35" fill="lightgreen" stroke="#ccc" stroke-width="1.59"/><text x="318.8" y="-20.8" text-anchor="middle" font-size="5.4" font-family="Tahoma,Geneva,sans-serif" font-weight="bold" fill="rgb(100,100,100)">C</text><circle cx="323.1" cy="-9.1" r="4.35" fill="#dbdb8d" stroke="#ccc" stroke-width="1.59"/><text x="323.1" y="-6.9" text-anchor="middle" font-size="5.4" font-family="Tahoma,Geneva,sans-serif" font-weight="bold" fill="rgb(100,100,100)">U</text><circle cx="333.8" cy="-18.8" r="4.35" fill="lightgreen" stroke="#ccc" stroke-width="1.59"/><text x="333.8" y="-16.7" text-anchor="middle" font-size="5.4" font-family="Tahoma,Geneva,sans-serif" font-weight="bold" fill="rgb(100,100,100)">A</text><circle cx="348.3" cy="-15.1" r="4.35" fill="lightgreen" stroke="#ccc" stroke-width="1.59"/><text x="348.3" y="-13.0" text-anchor="middle" font-size="5.4" font-family="Tahoma,Geneva,sans-serif" font-weight="bold" fill="rgb(100,100,100)">U</text><circle cx="362.9" cy="-11.4" r="4.35" fill="lightgreen" stroke="#ccc" stroke-width="1.59"/><text x="362.9" y="-9.2" text-anchor="middle" font-size="5.4" font-family="Tahoma,Geneva,sans-serif" font-weight="bold" fill="rgb(100,100,100)">C</text><circle cx="377.4" cy="-7.7" r="4.35" fill="lightgreen" stroke="#ccc" stroke-width="1.59"/><text x="377.4" y="-5.5" text-anchor="middle" font-size="5.4" font-family="Tahoma,Geneva,sans-serif" font-weight="bold" fill="rgb(100,100,100)">C</text><circle cx="391.9" cy="-4.0" r="4.35" fill="lightgreen" stroke="#ccc" stroke-width="1.59"/><text x="391.9" y="-1.8" text-anchor="middle" font-size="5.4" font-family="Tahoma,Geneva,sans-serif" font-weight="bold" fill="rgb(100,100,100)">G</text><circle cx="403.2" cy="5.1" r="4.35" fill="lightblue" stroke="#ccc" stroke-width="1.59"/><text x="403.2" y="7.3" text-anchor="middle" font-size="5.4" font-family="Tahoma,Geneva,sans-serif" font-weight="bold" fill="rgb(100,100,100)">U</text><circle cx="417.4" cy="2.2" r="4.35" fill="lightblue" stroke="#ccc" stroke-width="1.59"/><text x="417.4" y="4.4" text-anchor="middle" font-size="5.4" font-family="Tahoma,Geneva,sans-serif" font-weight="bold" fill="rgb(100,100,100)">U</text><circle cx="421.0" cy="-11.8" r="4.35" fill="lightblue" stroke="#ccc" stroke-width="1.59"/><text x="421.0" y="-9.6" text-anchor="middle" font-size="5.4" font-family="Tahoma,Geneva,sans-serif" font-weight="bold" fill="rgb(100,100,100)">U</text><circle cx="409.9" cy="-21.1" r="4.35" fill="lightblue" stroke="#ccc" stroke-width="1.59"/><text x="409.9" y="-19.0" text-anchor="middle" font-size="5.4" font-family="Tahoma,Geneva,sans-serif" font-weight="bold" fill="rgb(100,100,100)">C</text><circle cx="395.6" cy="-18.5" r="4.35" fill="lightgreen" stroke="#ccc" stroke-width="1.59"/><text x="395.6" y="-16.4" text-anchor="middle" font-size="5.4" font-family="Tahoma,Geneva,sans-serif" font-weight="bold" fill="rgb(100,100,100)">C</text><circle cx="381.1" cy="-22.2" r="4.35" fill="lightgreen" stroke="#ccc" stroke-width="1.59"/><text x="381.1" y="-20.1" text-anchor="middle" font-size="5.4" font-family="Tahoma,Geneva,sans-serif" font-weight="bold" fill="rgb(100,100,100)">G</text><circle cx="366.6" cy="-25.9" r="4.35" fill="lightgreen" stroke="#ccc" stroke-width="1.59"/><text x="366.6" y="-23.8" text-anchor="middle" font-size="5.4" font-family="Tahoma,Geneva,sans-serif" font-weight="bold" fill="rgb(100,100,100)">G</text><circle cx="352.0" cy="-29.7" r="4.35" fill="lightgreen" stroke="#ccc" stroke-width="1.59"/><text x="352.0" y="-27.5" text-anchor="middle" font-size="5.4" font-family="Tahoma,Geneva,sans-serif" font-weight="bold" fill="rgb(100,100,100)">A</text><circle cx="337.5" cy="-33.4" r="4.35" fill="lightgreen" stroke="#ccc" stroke-width="1.59"/><text x="337.5" y="-31.2" text-anchor="middle" font-size="5.4" font-family="Tahoma,Geneva,sans-serif" font-weight="bold" fill="rgb(100,100,100)">U</text><circle cx="323.0" cy="-37.3" r="4.35" fill="lightgreen" stroke="#ccc" stroke-width="1.59"/><text x="323.0" y="-35.2" text-anchor="middle" font-size="5.4" font-family="Tahoma,Geneva,sans-serif" font-weight="bold" fill="rgb(100,100,100)">G</text><circle cx="308.6" cy="-41.6" r="4.35" fill="lightgreen" stroke="#ccc" stroke-width="1.59"/><text x="308.6" y="-39.4" text-anchor="middle" font-size="5.4" font-family="Tahoma,Geneva,sans-serif" font-weight="bold" fill="rgb(100,100,100)">C</text><circle cx="294.3" cy="-45.8" r="4.35" fill="lightgreen" stroke="#ccc" stroke-width="1.59"/><text x="294.3" y="-43.6" text-anchor="middle" font-size="5.4" font-family="Tahoma,Geneva,sans-serif" font-weight="bold" fill="rgb(100,100,100)">G</text><circle cx="279.9" cy="-50.0" r="4.35" fill="lightgreen" stroke="#ccc" stroke-width="1.59"/><text x="279.9" y="-47.8" text-anchor="middle" font-size="5.4" font-family="Tahoma,Geneva,sans-serif" font-weight="bold" fill="rgb(100,100,100)">G</text><circle cx="265.5" cy="-54.2" r="4.35" fill="lightgreen" stroke="#ccc" stroke-width="1.59"/><text x="265.5" y="-52.1" text-anchor="middle" font-size="5.4" font-family="Tahoma,Geneva,sans-serif" font-weight="bold" fill="rgb(100,100,100)">A</text><circle cx="251.1" cy="-58.5" r="4.35" fill="lightgreen" stroke="#ccc" stroke-width="1.59"/><text x="251.1" y="-56.3" text-anchor="middle" font-size="5.4" font-family="Tahoma,Geneva,sans-serif" font-weight="bold" fill="rgb(100,100,100)">U</text><circle cx="236.7" cy="-62.7" r="4.35" fill="lightgreen" stroke="#ccc" stroke-width="1.59"/><text x="236.7" y="-60.5" text-anchor="middle" font-size="5.4" font-family="Tahoma,Geneva,sans-serif" font-weight="bold" fill="rgb(100,100,100)">C</text><circle cx="222.4" cy="-67.2" r="4.35" fill="lightgreen" stroke="#ccc" stroke-width="1.59"/><text x="222.4" y="-65.0" text-anchor="middle" font-size="5.4" font-family="Tahoma,Geneva,sans-serif" font-weight="bold" fill="rgb(100,100,100)">U</text><circle cx="208.1" cy="-71.9" r="4.35" fill="lightgreen" stroke="#ccc" stroke-width="1.59"/><text x="208.1" y="-69.7" text-anchor="middle" font-size="5.4" font-family="Tahoma,Geneva,sans-serif" font-weight="bold" fill="rgb(100,100,100)">G</text><circle cx="193.9" cy="-76.6" r="4.35" fill="lightgreen" stroke="#ccc" stroke-width="1.59"/><text x="193.9" y="-74.5" text-anchor="middle" font-size="5.4" font-family="Tahoma,Geneva,sans-serif" font-weight="bold" fill="rgb(100,100,100)">G</text><circle cx="179.7" cy="-81.4" r="4.35" fill="lightgreen" stroke="#ccc" stroke-width="1.59"/><text x="179.7" y="-79.2" text-anchor="middle" font-size="5.4" font-family="Tahoma,Geneva,sans-serif" font-weight="bold" fill="rgb(100,100,100)">A</text><circle cx="165.4" cy="-86.1" r="4.35" fill="lightgreen" stroke="#ccc" stroke-width="1.59"/><text x="165.4" y="-83.9" text-anchor="middle" font-size="5.4" font-family="Tahoma,Geneva,sans-serif" font-weight="bold" fill="rgb(100,100,100)">C</text><circle cx="154.7" cy="-95.9" r="4.35" fill="#dbdb8d" stroke="#ccc" stroke-width="1.59"/><text x="154.7" y="-93.7" text-anchor="middle" font-size="5.4" font-family="Tahoma,Geneva,sans-serif" font-weight="bold" fill="rgb(100,100,100)">C</text><circle cx="140.3" cy="-94.5" r="4.35" fill="lightgreen" stroke="#ccc" stroke-width="1.59"/><text x="140.3" y="-92.3" text-anchor="middle" font-size="5.4" font-family="Tahoma,Geneva,sans-serif" font-weight="bold" fill="rgb(100,100,100)">G</text><circle cx="126.0" cy="-99.2" r="4.35" fill="lightgreen" stroke="#ccc" stroke-width="1.59"/><text x="126.0" y="-97.1" text-anchor="middle" font-size="5.4" font-family="Tahoma,Geneva,sans-serif" font-weight="bold" fill="rgb(100,100,100)">C</text><circle cx="115.9" cy="-112.1" r="4.35" fill="lightsalmon" stroke="#ccc" stroke-width="1.59"/><text x="115.9" y="-109.9" text-anchor="middle" font-size="5.4" font-family="Tahoma,Geneva,sans-serif" font-weight="bold" fill="rgb(100,100,100)">C</text><circle cx="103.4" cy="-122.9" r="4.35" fill="lightsalmon" stroke="#ccc" stroke-width="1.59"/><text x="103.4" y="-120.8" text-anchor="middle" font-size="5.4" font-family="Tahoma,Geneva,sans-serif" font-weight="bold" fill="rgb(100,100,100)">A</text><circle cx="89.6" cy="-132.5" r="4.35" fill="lightsalmon" stroke="#ccc" stroke-width="1.59"/><text x="89.6" y="-130.3" text-anchor="middle" font-size="5.4" font-family="Tahoma,Geneva,sans-serif" font-weight="bold" fill="rgb(100,100,100)">A</text></svg>