<svg xmlns="http://www.w3.org/2000/svg" viewBox="-152.7 -346.0 425.7 593.3" width="426" height="593"><style></style><line x1="-98.2" y1="176.0" x2="-85.4" y2="183.8" stroke="#999" stroke-width="1.62" stroke-opacity="0.8"/><line x1="-90.4" y1="163.2" x2="-77.6" y2="171.0" stroke="#999" stroke-width="1.62" stroke-opacity="0.8"/><line x1="-82.5" y1="150.4" x2="-69.7" y2="158.2" stroke="#999" stroke-width="1.62" stroke-opacity="0.8"/><line x1="-74.7" y1="137.6" x2="-61.9" y2="145.4" stroke="#999" stroke-width="1.62" stroke-opacity="0.8"/><line x1="-66.9" y1="124.8" x2="-54.1" y2="132.6" stroke="#999" stroke-width="1.62" stroke-opacity="0.8"/><line x1="-59.0" y1="112.0" x2="-46.2" y2="119.8" stroke="#999" stroke-width="1.62" stroke-opacity="0.8"/><line x1="-32.1" y1="72.3" x2="-20.1" y2="81.2" stroke="#999" stroke-width="1.62" stroke-opacity="0.8"/><line x1="-23.1" y1="60.3" x2="-11.1" y2="69.2" stroke="#999" stroke-width="1.62" stroke-opacity="0.8"/><line x1="-14.2" y1="48.2" x2="-2.1" y2="57.2" stroke="#999" stroke-width="1.62" stroke-opacity="0.8"/><line x1="-5.2" y1="36.2" x2="6.8" y2="45.2" stroke="#999" stroke-width="1.62" stroke-opacity="0.8"/><line x1="3.8" y1="24.2" x2="15.8" y2="33.1" stroke="#999" stroke-width="1.62" stroke-opacity="0.8"/><line x1="12.5" y1="12.0" x2="24.8" y2="20.6" stroke="#999" stroke-width="1.62" stroke-opacity="0.8"/><line x1="21.1" y1="-0.3" x2="33.4" y2="8.3" stroke="#999" stroke-width="1.62" stroke-opacity="0.8"/><line x1="29.7" y1="-12.6" x2="42.0" y2="-4.0" stroke="#999" stroke-width="1.62" stroke-opacity="0.8"/><line x1="38.3" y1="-24.9" x2="50.6" y2="-16.3" stroke="#999" stroke-width="1.62" stroke-opacity="0.8"/><line x1="46.9" y1="-37.2" x2="59.2" y2="-28.6" stroke="#999" stroke-width="1.62" stroke-opacity="0.8"/><line x1="55.5" y1="-49.5" x2="67.8" y2="-40.9" stroke="#999" stroke-width="1.62" stroke-opacity="0.8"/><line x1="64.1" y1="-61.8" x2="76.4" y2="-53.2" stroke="#999" stroke-width="1.62" stroke-opacity="0.8"/><line x1="72.7" y1="-74.1" x2="85.0" y2="-65.5" stroke="#999" stroke-width="1.62" stroke-opacity="0.8"/><line x1="81.3" y1="-86.3" x2="93.6" y2="-77.8" stroke="#999" stroke-width="1.62" stroke-opacity="0.8"/><line x1="89.9" y1="-98.6" x2="102.2" y2="-90.0" stroke="#999" stroke-width="1.62" stroke-opacity="0.8"/><line x1="98.3" y1="-111.1" x2="110.8" y2="-102.8" stroke="#999" stroke-width="1.62" stroke-opacity="0.8"/><line x1="106.5" y1="-123.6" x2="119.0" y2="-115.4" stroke="#999" stroke-width="1.62" stroke-opacity="0.8"/><line x1="114.7" y1="-136.2" x2="127.3" y2="-128.0" stroke="#999" stroke-width="1.62" stroke-opacity="0.8"/><line x1="122.9" y1="-148.7" x2="135.5" y2="-140.5" stroke="#999" stroke-width="1.62" stroke-opacity="0.8"/><line x1="131.1" y1="-161.3" x2="143.7" y2="-153.1" stroke="#999" stroke-width="1.62" stroke-opacity="0.8"/><line x1="139.3" y1="-173.8" x2="151.9" y2="-165.6" stroke="#999" stroke-width="1.62" stroke-opacity="0.8"/><line x1="147.6" y1="-186.4" x2="160.1" y2="-178.2" stroke="#999" stroke-width="1.62" stroke-opacity="0.8"/><line x1="155.8" y1="-198.9" x2="168.3" y2="-190.7" stroke="#999" stroke-width="1.62" stroke-opacity="0.8"/><line x1="164.0" y1="-211.5" x2="176.5" y2="-203.3" stroke="#999" stroke-width="1.62" stroke-opacity="0.8"/><line x1="170.0" y1="-225.2" x2="184.6" y2="-221.6" stroke="#999" stroke-width="1.62" stroke-opacity="0.8"/><line x1="173.6" y1="-239.8" x2="188.2" y2="-236.1" stroke="#999" stroke-width="1.62" stroke-opacity="0.8"/><line x1="177.2" y1="-254.3" x2="191.8" y2="-250.7" stroke="#999" stroke-width="1.62" stroke-opacity="0.8"/><line x1="196.9" y1="-230.2" x2="206.7" y2="-254.3" stroke="#d9534f" stroke-width="1.62" stroke-opacity="0.6"/><line x1="211.7" y1="-232.2" x2="218.2" y2="-264.4" stroke="#d9534f" stroke-width="1.62" stroke-opacity="0.6"/><line x1="225.9" y1="-227.3" x2="223.7" y2="-278.6" stroke="#d9534f" stroke-width="1.62" stroke-opacity="0.6"/><line x1="236.3" y1="-216.4" x2="221.9" y2="-293.8" stroke="#d9534f" stroke-width="1.62" stroke-opacity="0.6"/><line x1="240.6" y1="-202.1" x2="213.3" y2="-306.5" stroke="#d9534f" stroke-width="1.62" stroke-opacity="0.6"/><line x1="238.0" y1="-187.3" x2="199.7" y2="-313.6" stroke="#d9534f" stroke-width="1.62" stroke-opacity="0.6"/><line x1="229.0" y1="-175.4" x2="184.4" y2="-313.6" stroke="#d9534f" stroke-width="1.62" stroke-opacity="0.6"/><line x1="164.1" y1="-265.9" x2="177.2" y2="-254.3" stroke="#999" stroke-width="1.62" stroke-opacity="0.8"/><line x1="177.2" y1="-254.3" x2="173.6" y2="-239.8" stroke="#999" stroke-width="1.62" stroke-opacity="0.8"/><line x1="173.6" y1="-239.8" x2="170.0" y2="-225.2" stroke="#999" stroke-width="1.62" stroke-opacity="0.8"/><line x1="170.0" y1="-225.2" x2="164.0" y2="-211.5" stroke="#999" stroke-width="1.62" stroke-opacity="0.8"/><line x1="164.0" y1="-211.5" x2="155.8" y2="-198.9" stroke="#999" stroke-width="1.62" stroke-opacity="0.8"/><line x1="155.8" y1="-198.9" x2="147.6" y2="-186.4" stroke="#999" stroke-width="1.62" stroke-opacity="0.8"/><line x1="147.6" y1="-186.4" x2="139.3" y2="-173.8" stroke="#999" stroke-width="1.62" stroke-opacity="0.8"/><line x1="139.3" y1="-173.8" x2="131.1" y2="-161.3" stroke="#999" stroke-width="1.62" stroke-opacity="0.8"/><line x1="131.1" y1="-161.3" x2="122.9" y2="-148.7" stroke="#999" stroke-width="1.62" stroke-opacity="0.8"/><line x1="122.9" y1="-148.7" x2="114.7" y2="-136.2" stroke="#999" stroke-width="1.62" stroke-opacity="0.8"/><line x1="114.7" y1="-136.2" x2="106.5" y2="-123.6" stroke="#999" stroke-width="1.62" stroke-opacity="0.8"/><line x1="106.5" y1="-123.6" x2="98.3" y2="-111.1" stroke="#999" stroke-width="1.62" stroke-opacity="0.8"/><line x1="98.3" y1="-111.1" x2="89.9" y2="-98.6" stroke="#999" stroke-width="1.62" stroke-opacity="0.8"/><line x1="89.9" y1="-98.6" x2="81.3" y2="-86.3" stroke="#999" stroke-width="1.62" stroke-opacity="0.8"/><line x1="81.3" y1="-86.3" x2="72.7" y2="-74.1" stroke="#999" stroke-width="1.62" stroke-opacity="0.8"/><line x1="72.7" y1="-74.1" x2="64.1" y2="-61.8" stroke="#999" stroke-width="1.62" stroke-opacity="0.8"/><line x1="64.1" y1="-61.8" x2="55.5" y2="-49.5" stroke="#999" stroke-width="1.62" stroke-opacity="0.8"/><line x1="55.5" y1="-49.5" x2="46.9" y2="-37.2" stroke="#999" stroke-width="1.62" stroke-opacity="0.8"/><line x1="46.9" y1="-37.2" x2="38.3" y2="-24.9" stroke="#999" stroke-width="1.62" stroke-opacity="0.8"/><line x1="38.3" y1="-24.9" x2="29.7" y2="-12.6" stroke="#999" stroke-width="1.62" stroke-opacity="0.8"/><line x1="29.7" y1="-12.6" x2="21.1" y2="-0.3" stroke="#999" stroke-width="1.62" stroke-opacity="0.8"/><line x1="21.1" y1="-0.3" x2="12.5" y2="12.0" stroke="#999" stroke-width="1.62" stroke-opacity="0.8"/><line x1="12.5" y1="12.0" x2="3.8" y2="24.2" stroke="#999" stroke-width="1.62" stroke-opacity="0.8"/><line x1="3.8" y1="24.2" x2="-5.2" y2="36.2" stroke="#999" stroke-width="1.62" stroke-opacity="0.8"/><line x1="-5.2" y1="36.2" x2="-14.2" y2="48.2" stroke="#999" stroke-width="1.62" stroke-opacity="0.8"/><line x1="-14.2" y1="48.2" x2="-23.1" y2="60.3" stroke="#999" stroke-width="1.62" stroke-opacity="0.8"/><line x1="-23.1" y1="60.3" x2="-32.1" y2="72.3" stroke="#999" stroke-width="1.62" stroke-opacity="0.8"/><line x1="-32.1" y1="72.3" x2="-43.7" y2="62.8" stroke="#999" stroke-width="1.62" stroke-opacity="0.8"/><line x1="-43.7" y1="62.8" x2="-54.9" y2="71.9" stroke="#999" stroke-width="1.62" stroke-opacity="0.8"/><line x1="-54.9" y1="71.9" x2="-68.8" y2="76.5" stroke="#999" stroke-width="1.62" stroke-opacity="0.8"/><line x1="-68.8" y1="76.5" x2="-68.5" y2="91.0" stroke="#999" stroke-width="1.62" stroke-opacity="0.8"/><line x1="-68.5" y1="91.0" x2="-72.3" y2="105.0" stroke="#999" stroke-width="1.62" stroke-opacity="0.8"/><line x1="-72.3" y1="105.0" x2="-59.0" y2="112.0" stroke="#999" stroke-width="1.62" stroke-opacity="0.8"/><line x1="-59.0" y1="112.0" x2="-66.9" y2="124.8" stroke="#999" stroke-width="1.62" stroke-opacity="0.8"/><line x1="-66.9" y1="124.8" x2="-74.7" y2="137.6" stroke="#999" stroke-width="1.62" stroke-opacity="0.8"/><line x1="-74.7" y1="137.6" x2="-82.5" y2="150.4" stroke="#999" stroke-width="1.62" stroke-opacity="0.8"/><line x1="-82.5" y1="150.4" x2="-90.4" y2="163.2" stroke="#999" stroke-width="1.62" stroke-opacity="0.8"/><line x1="-90.4" y1="163.2" x2="-98.2" y2="176.0" stroke="#999" stroke-width="1.62" stroke-opacity="0.8"/><line x1="-98.2" y1="176.0" x2="-112.1" y2="180.6" stroke="#999" stroke-width="1.62" stroke-opacity="0.8"/><line x1="-112.1" y1="180.6" x2="-120.3" y2="192.9" stroke="#999" stroke-width="1.62" stroke-opacity="0.8"/><line x1="-120.3" y1="192.9" x2="-117.1" y2="207.3" stroke="#999" stroke-width="1.62" stroke-opacity="0.8"/><line x1="-117.1" y1="207.3" x2="-104.6" y2="214.9" stroke="#999" stroke-width="1.62" stroke-opacity="0.8"/><line x1="-104.6" y1="214.9" x2="-90.4" y2="211.2" stroke="#999" stroke-width="1.62" stroke-opacity="0.8"/><line x1="-90.4" y1="211.2" x2="-83.2" y2="198.4" stroke="#999" stroke-width="1.62" stroke-opacity="0.8"/><line x1="-83.2" y1="198.4" x2="-85.4" y2="183.8" stroke="#999" stroke-width="1.62" stroke-opacity="0.8"/><line x1="-85.4" y1="183.8" x2="-77.6" y2="171.0" stroke="#999" stroke-width="1.62" stroke-opacity="0.8"/><line x1="-77.6" y1="171.0" x2="-69.7" y2="158.2" stroke="#999" stroke-width="1.62" stroke-opacity="0.8"/><line x1="-69.7" y1="158.2" x2="-61.9" y2="145.4" stroke="#999" stroke-width="1.62" stroke-opacity="0.8"/><line x1="-61.9" y1="145.4" x2="-54.1" y2="132.6" stroke="#999" stroke-width="1.62" stroke-opacity="0.8"/><line x1="-54.1" y1="132.6" x2="-46.2" y2="119.8" stroke="#999" stroke-width="1.62" stroke-opacity="0.8"/><line x1="-46.2" y1="119.8" x2="-35.3" y2="108.6" stroke="#999" stroke-width="1.62" stroke-opacity="0.8"/><line x1="-35.3" y1="108.6" x2="-26.5" y2="95.6" stroke="#999" stroke-width="1.62" stroke-opacity="0.8"/><line x1="-26.5" y1="95.6" x2="-20.1" y2="81.2" stroke="#999" stroke-width="1.62" stroke-opacity="0.8"/><line x1="-20.1" y1="81.2" x2="-11.1" y2="69.2" stroke="#999" stroke-width="1.62" stroke-opacity="0.8"/><line x1="-11.1" y1="69.2" x2="-2.1" y2="57.2" stroke="#999" stroke-width="1.62" stroke-opacity="0.8"/><line x1="-2.1" y1="57.2" x2="6.8" y2="45.2" stroke="#999" stroke-width="1.62" stroke-opacity="0.8"/><line x1="6.8" y1="45.2" x2="15.8" y2="33.1" stroke="#999" stroke-width="1.62" stroke-opacity="0.8"/><line x1="15.8" y1="33.1" x2="30.5" y2="34.2" stroke="#999" stroke-width="1.62" stroke-opacity="0.8"/><line x1="30.5" y1="34.2" x2="24.8" y2="20.6" stroke="#999" stroke-width="1.62" stroke-opacity="0.8"/><line x1="24.8" y1="20.6" x2="33.4" y2="8.3" stroke="#999" stroke-width="1.62" stroke-opacity="0.8"/><line x1="33.4" y1="8.3" x2="42.0" y2="-4.0" stroke="#999" stroke-width="1.62" stroke-opacity="0.8"/><line x1="42.0" y1="-4.0" x2="50.6" y2="-16.3" stroke="#999" stroke-width="1.62" stroke-opacity="0.8"/><line x1="50.6" y1="-16.3" x2="59.2" y2="-28.6" stroke="#999" stroke-width="1.62" stroke-opacity="0.8"/><line x1="59.2" y1="-28.6" x2="67.8" y2="-40.9" stroke="#999" stroke-width="1.62" stroke-opacity="0.8"/><line x1="67.8" y1="-40.9" x2="76.4" y2="-53.2" stroke="#999" stroke-width="1.62" stroke-opacity="0.8"/><line x1="76.4" y1="-53.2" x2="85.0" y2="-65.5" stroke="#999" stroke-width="1.62" stroke-opacity="0.8"/><line x1="85.0" y1="-65.5" x2="93.6" y2="-77.8" stroke="#999" stroke-width="1.62" stroke-opacity="0.8"/><line x1="93.6" y1="-77.8" x2="102.2" y2="-90.0" stroke="#999" stroke-width="1.62" stroke-opacity="0.8"/><line x1="102.2" y1="-90.0" x2="116.9" y2="-89.4" stroke="#999" stroke-width="1.62" stroke-opacity="0.8"/><line x1="116.9" y1="-89.4" x2="110.8" y2="-102.8" stroke="#999" stroke-width="1.62" stroke-opacity="0.8"/><line x1="110.8" y1="-102.8" x2="119.0" y2="-115.4" stroke="#999" stroke-width="1.62" stroke-opacity="0.8"/><line x1="119.0" y1="-115.4" x2="127.3" y2="-128.0" stroke="#999" stroke-width="1.62" stroke-opacity="0.8"/><line x1="127.3" y1="-128.0" x2="135.5" y2="-140.5" stroke="#999" stroke-width="1.62" stroke-opacity="0.8"/><line x1="135.5" y1="-140.5" x2="143.7" y2="-153.1" stroke="#999" stroke-width="1.62" stroke-opacity="0.8"/><line x1="143.7" y1="-153.1" x2="151.9" y2="-165.6" stroke="#999" stroke-width="1.62" stroke-opacity="0.8"/><line x1="151.9" y1="-165.6" x2="160.1" y2="-178.2" stroke="#999" stroke-width="1.62" stroke-opacity="0.8"/><line x1="160.1" y1="-178.2" x2="168.3" y2="-190.7" stroke="#999" stroke-width="1.62" stroke-opacity="0.8"/><line x1="168.3" y1="-190.7" x2="176.5" y2="-203.3" stroke="#999" stroke-width="1.62" stroke-opacity="0.8"/><line x1="176.5" y1="-203.3" x2="188.6" y2="-194.0" stroke="#999" stroke-width="1.62" stroke-opacity="0.8"/><line x1="188.6" y1="-194.0" x2="188.8" y2="-179.0" stroke="#999" stroke-width="1.62" stroke-opacity="0.8"/><line x1="188.8" y1="-179.0" x2="200.6" y2="-170.0" stroke="#999" stroke-width="1.62" stroke-opacity="0.8"/><line x1="200.6" y1="-170.0" x2="215.4" y2="-169.5" stroke="#999" stroke-width="1.62" stroke-opacity="0.8"/><line x1="215.4" y1="-169.5" x2="229.0" y2="-175.4" stroke="#999" stroke-width="1.62" stroke-opacity="0.8"/><line x1="229.0" y1="-175.4" x2="238.0" y2="-187.3" stroke="#999" stroke-width="1.62" stroke-opacity="0.8"/><line x1="238.0" y1="-187.3" x2="240.6" y2="-202.1" stroke="#999" stroke-width="1.62" stroke-opacity="0.8"/><line x1="240.6" y1="-202.1" x2="236.3" y2="-216.4" stroke="#999" stroke-width="1.62" stroke-opacity="0.8"/><line x1="236.3" y1="-216.4" x2="225.9" y2="-227.3" stroke="#999" stroke-width="1.62" stroke-opacity="0.8"/><line x1="225.9" y1="-227.3" x2="211.7" y2="-232.2" stroke="#999" stroke-width="1.62" stroke-opacity="0.8"/><line x1="211.7" y1="-232.2" x2="196.9" y2="-230.2" stroke="#999" stroke-width="1.62" stroke-opacity="0.8"/><line x1="196.9" y1="-230.2" x2="184.6" y2="-221.6" stroke="#999" stroke-width="1.62" stroke-opacity="0.8"/><line x1="184.6" y1="-221.6" x2="188.2" y2="-236.1" stroke="#999" stroke-width="1.62" stroke-opacity="0.8"/><line x1="188.2" y1="-236.1" x2="191.8" y2="-250.7" stroke="#999" stroke-width="1.62" stroke-opacity="0.8"/><line x1="191.8" y1="-250.7" x2="206.7" y2="-254.3" stroke="#999" stroke-width="1.62" stroke-opacity="0.8"/><line x1="206.7" y1="-254.3" x2="218.2" y2="-264.4" stroke="#999" stroke-width="1.62" stroke-opacity="0.8"/><line x1="218.2" y1="-264.4" x2="223.7" y2="-278.6" stroke="#999" stroke-width="1.62" stroke-opacity="0.8"/><line x1="223.7" y1="-278.6" x2="221.9" y2="-293.8" stroke="#999" stroke-width="1.62" stroke-opacity="0.8"/><line x1="221.9" y1="-293.8" x2="213.3" y2="-306.5" stroke="#999" stroke-width="1.62" stroke-opacity="0.8"/><line x1="213.3" y1="-306.5" x2="199.7" y2="-313.6" stroke="#999" stroke-width="1.62" stroke-opacity="0.8"/><line x1="199.7" y1="-313.6" x2="184.4" y2="-313.6" stroke="#999" stroke-width="1.62" stroke-opacity="0.8"/><line x1="184.4" y1="-313.6" x2="171.6" y2="-301.8" stroke="#999" stroke-width="1.62" stroke-opacity="0.8"/><line x1="171.6" y1="-301.8" x2="158.9" y2="-289.9" stroke="#999" stroke-width="1.62" stroke-opacity="0.8"/><text x="152.5" y="-250.0" text-anchor="middle" font-size="7.6" font-family="Tahoma,Geneva,sans-serif" fill="#999">1</text><text x="108.1" y="-155.7" text-anchor="middle" font-size="7.6" font-family="Tahoma,Geneva,sans-serif" fill="#999">10</text><text x="23.8" y="-32.3" text-anchor="middle" font-size="7.6" font-family="Tahoma,Geneva,sans-serif" fill="#999">20</text><text x="-63.4" y="59.1" text-anchor="middle" font-size="7.6" font-family="Tahoma,Geneva,sans-serif" fill="#999">30</text><text x="-122.9" y="169.3" text-anchor="middle" font-size="7.6" font-family="Tahoma,Geneva,sans-serif" fill="#999">40</text><text x="-39.0" y="144.5" text-anchor="middle" font-size="7.6" font-family="Tahoma,Geneva,sans-serif" fill="#999">50</text><text x="42.4" y="25.3" text-anchor="middle" font-size="7.6" font-family="Tahoma,Geneva,sans-serif" fill="#999">60</text><text x="131.5" y="-76.9" text-anchor="middle" font-size="7.6" font-family="Tahoma,Geneva,sans-serif" fill="#999">70</text><text x="172.9" y="-183.3" text-anchor="middle" font-size="7.6" font-family="Tahoma,Geneva,sans-serif" fill="#999">80</text><text x="203.3" y="-211.0" text-anchor="middle" font-size="7.6" font-family="Tahoma,Geneva,sans-serif" fill="#999">90</text><text x="177.6" y="-327.2" text-anchor="middle" font-size="7.6" font-family="Tahoma,Geneva,sans-serif" fill="#999">100</text><circle cx="164.1" cy="-265.9" r="4.41" fill="lightsalmon" stroke="#ccc" stroke-width="1.62"/><text x="164.1" y="-263.7" text-anchor="middle" font-size="5.5" font-family="Tahoma,Geneva,sans-serif" font-weight="bold" fill="rgb(100,100,100)">A</text><circle cx="177.2" cy="-254.3" r="4.41" fill="lightgreen" stroke="#ccc" stroke-width="1.62"/><text x="177.2" y="-252.1" text-anchor="middle" font-size="5.5" font-family="Tahoma,Geneva,sans-serif" font-weight="bold" fill="rgb(100,100,100)">G</text><circle cx="173.6" cy="-239.8" r="4.41" fill="lightgreen" stroke="#ccc" stroke-width="1.62"/><text x="173.6" y="-237.6" text-anchor="middle" font-size="5.5" font-family="Tahoma,Geneva,sans-serif" font-weight="bold" fill="rgb(100,100,100)">C</text><circle cx="170.0" cy="-225.2" r="4.41" fill="lightgreen" stroke="#ccc" stroke-width="1.62"/><text x="170.0" y="-223.0" text-anchor="middle" font-size="5.5" font-family="Tahoma,Geneva,sans-serif" font-weight="bold" fill="rgb(100,100,100)">U</text><circle cx="164.0" cy="-211.5" r="4.41" fill="lightgreen" stroke="#ccc" stroke-width="1.62"/><text x="164.0" y="-209.3" text-anchor="middle" font-size="5.5" font-family="Tahoma,Geneva,sans-serif" font-weight="bold" fill="rgb(100,100,100)">C</text><circle cx="155.8" cy="-198.9" r="4.41" fill="lightgreen" stroke="#ccc" stroke-width="1.62"/><text x="155.8" y="-196.7" text-anchor="middle" font-size="5.5" font-family="Tahoma,Geneva,sans-serif" font-weight="bold" fill="rgb(100,100,100)">C</text><circle cx="147.6" cy="-186.4" r="4.41" fill="lightgreen" stroke="#ccc" stroke-width="1.62"/><text x="147.6" y="-184.2" text-anchor="middle" font-size="5.5" font-family="Tahoma,Geneva,sans-serif" font-weight="bold" fill="rgb(100,100,100)">G</text><circle cx="139.3" cy="-173.8" r="4.41" fill="lightgreen" stroke="#ccc" stroke-width="1.62"/><text x="139.3" y="-171.6" text-anchor="middle" font-size="5.5" font-family="Tahoma,Geneva,sans-serif" font-weight="bold" fill="rgb(100,100,100)">A</text><circle cx="131.1" cy="-161.3" r="4.41" fill="lightgreen" stroke="#ccc" stroke-width="1.62"/><text x="131.1" y="-159.1" text-anchor="middle" font-size="5.5" font-family="Tahoma,Geneva,sans-serif" font-weight="bold" fill="rgb(100,100,100)">G</text><circle cx="122.9" cy="-148.7" r="4.41" fill="lightgreen" stroke="#ccc" stroke-width="1.62"/><text x="122.9" y="-146.5" text-anchor="middle" font-size="5.5" font-family="Tahoma,Geneva,sans-serif" font-weight="bold" fill="rgb(100,100,100)">G</text><circle cx="114.7" cy="-136.2" r="4.41" fill="lightgreen" stroke="#ccc" stroke-width="1.62"/><text x="114.7" y="-134.0" text-anchor="middle" font-size="5.5" font-family="Tahoma,Geneva,sans-serif" font-weight="bold" fill="rgb(100,100,100)">A</text><circle cx="106.5" cy="-123.6" r="4.41" fill="lightgreen" stroke="#ccc" stroke-width="1.62"/><text x="106.5" y="-121.4" text-anchor="middle" font-size="5.5" font-family="Tahoma,Geneva,sans-serif" font-weight="bold" fill="rgb(100,100,100)">G</text><circle cx="98.3" cy="-111.1" r="4.41" fill="lightgreen" stroke="#ccc" stroke-width="1.62"/><text x="98.3" y="-108.9" text-anchor="middle" font-size="5.5" font-family="Tahoma,Geneva,sans-serif" font-weight="bold" fill="rgb(100,100,100)">G</text><circle cx="89.9" cy="-98.6" r="4.41" fill="lightgreen" stroke="#ccc" stroke-width="1.62"/><text x="89.9" y="-96.4" text-anchor="middle" font-size="5.5" font-family="Tahoma,Geneva,sans-serif" font-weight="bold" fill="rgb(100,100,100)">A</text><circle cx="81.3" cy="-86.3" r="4.41" fill="lightgreen" stroke="#ccc" stroke-width="1.62"/><text x="81.3" y="-84.1" text-anchor="middle" font-size="5.5" font-family="Tahoma,Geneva,sans-serif" font-weight="bold" fill="rgb(100,100,100)">C</text><circle cx="72.7" cy="-74.1" r="4.41" fill="lightgreen" stroke="#ccc" stroke-width="1.62"/><text x="72.7" y="-71.8" text-anchor="middle" font-size="5.5" font-family="Tahoma,Geneva,sans-serif" font-weight="bold" fill="rgb(100,100,100)">G</text><circle cx="64.1" cy="-61.8" r="4.41" fill="lightgreen" stroke="#ccc" stroke-width="1.62"/><text x="64.1" y="-59.5" text-anchor="middle" font-size="5.5" font-family="Tahoma,Geneva,sans-serif" font-weight="bold" fill="rgb(100,100,100)">G</text><circle cx="55.5" cy="-49.5" r="4.41" fill="lightgreen" stroke="#ccc" stroke-width="1.62"/><text x="55.5" y="-47.3" text-anchor="middle" font-size="5.5" font-family="Tahoma,Geneva,sans-serif" font-weight="bold" fill="rgb(100,100,100)">C</text><circle cx="46.9" cy="-37.2" r="4.41" fill="lightgreen" stroke="#ccc" stroke-width="1.62"/><text x="46.9" y="-35.0" text-anchor="middle" font-size="5.5" font-family="Tahoma,Geneva,sans-serif" font-weight="bold" fill="rgb(100,100,100)">U</text><circle cx="38.3" cy="-24.9" r="4.41" fill="lightgreen" stroke="#ccc" stroke-width="1.62"/><text x="38.3" y="-22.7" text-anchor="middle" font-size="5.5" font-family="Tahoma,Geneva,sans-serif" font-weight="bold" fill="rgb(100,100,100)">C</text><circle cx="29.7" cy="-12.6" r="4.41" fill="lightgreen" stroke="#ccc" stroke-width="1.62"/><text x="29.7" y="-10.4" text-anchor="middle" font-size="5.5" font-family="Tahoma,Geneva,sans-serif" font-weight="bold" fill="rgb(100,100,100)">U</text><circle cx="21.1" cy="-0.3" r="4.41" fill="lightgreen" stroke="#ccc" stroke-width="1.62"/><text x="21.1" y="1.9" text-anchor="middle" font-size="5.5" font-family="Tahoma,Geneva,sans-serif" font-weight="bold" fill="rgb(100,100,100)">C</text><circle cx="12.5" cy="12.0" r="4.41" fill="lightgreen" stroke="#ccc" stroke-width="1.62"/><text x="12.5" y="14.2" text-anchor="middle" font-size="5.5" font-family="Tahoma,Geneva,sans-serif" font-weight="bold" fill="rgb(100,100,100)">G</text><circle cx="3.8" cy="24.2" r="4.41" fill="lightgreen" stroke="#ccc" stroke-width="1.62"/><text x="3.8" y="26.4" text-anchor="middle" font-size="5.5" font-family="Tahoma,Geneva,sans-serif" font-weight="bold" fill="rgb(100,100,100)">G</text><circle cx="-5.2" cy="36.2" r="4.41" fill="lightgreen" stroke="#ccc" stroke-width="1.62"/><text x="-5.2" y="38.4" text-anchor="middle" font-size="5.5" font-family="Tahoma,Geneva,sans-serif" font-weight="bold" fill="rgb(100,100,100)">C</text><circle cx="-14.2" cy="48.2" r="4.41" fill="lightgreen" stroke="#ccc" stroke-width="1.62"/><text x="-14.2" y="50.4" text-anchor="middle" font-size="5.5" font-family="Tahoma,Geneva,sans-serif" font-weight="bold" fill="rgb(100,100,100)">A</text><circle cx="-23.1" cy="60.3" r="4.41" fill="lightgreen" stroke="#ccc" stroke-width="1.62"/><text x="-23.1" y="62.5" text-anchor="middle" font-size="5.5" font-family="Tahoma,Geneva,sans-serif" font-weight="bold" fill="rgb(100,100,100)">U</text><circle cx="-32.1" cy="72.3" r="4.41" fill="lightgreen" stroke="#ccc" stroke-width="1.62"/><text x="-32.1" y="74.5" text-anchor="middle" font-size="5.5" font-family="Tahoma,Geneva,sans-serif" font-weight="bold" fill="rgb(100,100,100)">A</text><circle cx="-43.7" cy="62.8" r="4.41" fill="#dbdb8d" stroke="#ccc" stroke-width="1.62"/><text x="-43.7" y="65.0" text-anchor="middle" font-size="5.5" font-family="Tahoma,Geneva,sans-serif" font-weight="bold" fill="rgb(100,100,100)">A</text><circle cx="-54.9" cy="71.9" r="4.41" fill="#dbdb8d" stroke="#ccc" stroke-width="1.62"/><text x="-54.9" y="74.1" text-anchor="middle" font-size="5.5" font-family="Tahoma,Geneva,sans-serif" font-weight="bold" fill="rgb(100,100,100)">U</text><circle cx="-68.8" cy="76.5" r="4.41" fill="#dbdb8d" stroke="#ccc" stroke-width="1.62"/><text x="-68.8" y="78.7" text-anchor="middle" font-size="5.5" font-family="Tahoma,Geneva,sans-serif" font-weight="bold" fill="rgb(100,100,100)">C</text><circle cx="-68.5" cy="91.0" r="4.41" fill="#dbdb8d" stroke="#ccc" stroke-width="1.62"/><text x="-68.5" y="93.2" text-anchor="middle" font-size="5.5" font-family="Tahoma,Geneva,sans-serif" font-weight="bold" fill="rgb(100,100,100)">A</text><circle cx="-72.3" cy="105.0" r="4.41" fill="#dbdb8d" stroke="#ccc" stroke-width="1.62"/><text x="-72.3" y="107.2" text-anchor="middle" font-size="5.5" font-family="Tahoma,Geneva,sans-serif" font-weight="bold" fill="rgb(100,100,100)">G</text><circle cx="-59.0" cy="112.0" r="4.41" fill="lightgreen" stroke="#ccc" stroke-width="1.62"/><text x="-59.0" y="114.2" text-anchor="middle" font-size="5.5" font-family="Tahoma,Geneva,sans-serif" font-weight="bold" fill="rgb(100,100,100)">C</text><circle cx="-66.9" cy="124.8" r="4.41" fill="lightgreen" stroke="#ccc" stroke-width="1.62"/><text x="-66.9" y="127.0" text-anchor="middle" font-size="5.5" font-family="Tahoma,Geneva,sans-serif" font-weight="bold" fill="rgb(100,100,100)">U</text><circle cx="-74.7" cy="137.6" r="4.41" fill="lightgreen" stroke="#ccc" stroke-width="1.62"/><text x="-74.7" y="139.8" text-anchor="middle" font-size="5.5" font-family="Tahoma,Geneva,sans-serif" font-weight="bold" fill="rgb(100,100,100)">U</text><circle cx="-82.5" cy="150.4" r="4.41" fill="lightgreen" stroke="#ccc" stroke-width="1.62"/><text x="-82.5" y="152.6" text-anchor="middle" font-size="5.5" font-family="Tahoma,Geneva,sans-serif" font-weight="bold" fill="rgb(100,100,100)">G</text><circle cx="-90.4" cy="163.2" r="4.41" fill="lightgreen" stroke="#ccc" stroke-width="1.62"/><text x="-90.4" y="165.4" text-anchor="middle" font-size="5.5" font-family="Tahoma,Geneva,sans-serif" font-weight="bold" fill="rgb(100,100,100)">C</text><circle cx="-98.2" cy="176.0" r="4.41" fill="lightgreen" stroke="#ccc" stroke-width="1.62"/><text x="-98.2" y="178.2" text-anchor="middle" font-size="5.5" font-family="Tahoma,Geneva,sans-serif" font-weight="bold" fill="rgb(100,100,100)">C</text><circle cx="-112.1" cy="180.6" r="4.41" fill="lightblue" stroke="#ccc" stroke-width="1.62"/><text x="-112.1" y="182.8" text-anchor="middle" font-size="5.5" font-family="Tahoma,Geneva,sans-serif" font-weight="bold" fill="rgb(100,100,100)">U</text><circle cx="-120.3" cy="192.9" r="4.41" fill="lightblue" stroke="#ccc" stroke-width="1.62"/><text x="-120.3" y="195.1" text-anchor="middle" font-size="5.5" font-family="Tahoma,Geneva,sans-serif" font-weight="bold" fill="rgb(100,100,100)">G</text><circle cx="-117.1" cy="207.3" r="4.41" fill="lightblue" stroke="#ccc" stroke-width="1.62"/><text x="-117.1" y="209.5" text-anchor="middle" font-size="5.5" font-family="Tahoma,Geneva,sans-serif" font-weight="bold" fill="rgb(100,100,100)">G</text><circle cx="-104.6" cy="214.9" r="4.41" fill="lightblue" stroke="#ccc" stroke-width="1.62"/><text x="-104.6" y="217.1" text-anchor="middle" font-size="5.5" font-family="Tahoma,Geneva,sans-serif" font-weight="bold" fill="rgb(100,100,100)">U</text><circle cx="-90.4" cy="211.2" r="4.41" fill="lightblue" stroke="#ccc" stroke-width="1.62"/><text x="-90.4" y="213.4" text-anchor="middle" font-size="5.5" font-family="Tahoma,Geneva,sans-serif" font-weight="bold" fill="rgb(100,100,100)">U</text><circle cx="-83.2" cy="198.4" r="4.41" fill="lightblue" stroke="#ccc" stroke-width="1.62"/><text x="-83.2" y="200.6" text-anchor="middle" font-size="5.5" font-family="Tahoma,Geneva,sans-serif" font-weight="bold" fill="rgb(100,100,100)">U</text><circle cx="-85.4" cy="183.8" r="4.41" fill="lightgreen" stroke="#ccc" stroke-width="1.62"/><text x="-85.4" y="186.0" text-anchor="middle" font-size="5.5" font-family="Tahoma,Geneva,sans-serif" font-weight="bold" fill="rgb(100,100,100)">G</text><circle cx="-77.6" cy="171.0" r="4.41" fill="lightgreen" stroke="#ccc" stroke-width="1.62"/><text x="-77.6" y="173.2" text-anchor="middle" font-size="5.5" font-family="Tahoma,Geneva,sans-serif" font-weight="bold" fill="rgb(100,100,100)">G</text><circle cx="-69.7" cy="158.2" r="4.41" fill="lightgreen" stroke="#ccc" stroke-width="1.62"/><text x="-69.7" y="160.4" text-anchor="middle" font-size="5.5" font-family="Tahoma,Geneva,sans-serif" font-weight="bold" fill="rgb(100,100,100)">C</text><circle cx="-61.9" cy="145.4" r="4.41" fill="lightgreen" stroke="#ccc" stroke-width="1.62"/><text x="-61.9" y="147.6" text-anchor="middle" font-size="5.5" font-family="Tahoma,Geneva,sans-serif" font-weight="bold" fill="rgb(100,100,100)">A</text><circle cx="-54.1" cy="132.6" r="4.41" fill="lightgreen" stroke="#ccc" stroke-width="1.62"/><text x="-54.1" y="134.8" text-anchor="middle" font-size="5.5" font-family="Tahoma,Geneva,sans-serif" font-weight="bold" fill="rgb(100,100,100)">A</text><circle cx="-46.2" cy="119.8" r="4.41" fill="lightgreen" stroke="#ccc" stroke-width="1.62"/><text x="-46.2" y="122.0" text-anchor="middle" font-size="5.5" font-family="Tahoma,Geneva,sans-serif" font-weight="bold" fill="rgb(100,100,100)">G</text><circle cx="-35.3" cy="108.6" r="4.41" fill="#dbdb8d" stroke="#ccc" stroke-width="1.62"/><text x="-35.3" y="110.8" text-anchor="middle" font-size="5.5" font-family="Tahoma,Geneva,sans-serif" font-weight="bold" fill="rgb(100,100,100)">A</text><circle cx="-26.5" cy="95.6" r="4.41" fill="#dbdb8d" stroke="#ccc" stroke-width="1.62"/><text x="-26.5" y="97.8" text-anchor="middle" font-size="5.5" font-family="Tahoma,Geneva,sans-serif" font-weight="bold" fill="rgb(100,100,100)">A</text><circle cx="-20.1" cy="81.2" r="4.41" fill="lightgreen" stroke="#ccc" stroke-width="1.62"/><text x="-20.1" y="83.5" text-anchor="middle" font-size="5.5" font-family="Tahoma,Geneva,sans-serif" font-weight="bold" fill="rgb(100,100,100)">U</text><circle cx="-11.1" cy="69.2" r="4.41" fill="lightgreen" stroke="#ccc" stroke-width="1.62"/><text x="-11.1" y="71.4" text-anchor="middle" font-size="5.5" font-family="Tahoma,Geneva,sans-serif" font-weight="bold" fill="rgb(100,100,100)">A</text><circle cx="-2.1" cy="57.2" r="4.41" fill="lightgreen" stroke="#ccc" stroke-width="1.62"/><text x="-2.1" y="59.4" text-anchor="middle" font-size="5.5" font-family="Tahoma,Geneva,sans-serif" font-weight="bold" fill="rgb(100,100,100)">U</text><circle cx="6.8" cy="45.2" r="4.41" fill="lightgreen" stroke="#ccc" stroke-width="1.62"/><text x="6.8" y="47.4" text-anchor="middle" font-size="5.5" font-family="Tahoma,Geneva,sans-serif" font-weight="bold" fill="rgb(100,100,100)">G</text><circle cx="15.8" cy="33.1" r="4.41" fill="lightgreen" stroke="#ccc" stroke-width="1.62"/><text x="15.8" y="35.3" text-anchor="middle" font-size="5.5" font-family="Tahoma,Geneva,sans-serif" font-weight="bold" fill="rgb(100,100,100)">C</text><circle cx="30.5" cy="34.2" r="4.41" fill="#dbdb8d" stroke="#ccc" stroke-width="1.62"/><text x="30.5" y="36.4" text-anchor="middle" font-size="5.5" font-family="Tahoma,Geneva,sans-serif" font-weight="bold" fill="rgb(100,100,100)">A</text><circle cx="24.8" cy="20.6" r="4.41" fill="lightgreen" stroke="#ccc" stroke-width="1.62"/><text x="24.8" y="22.8" text-anchor="middle" font-size="5.5" font-family="Tahoma,Geneva,sans-serif" font-weight="bold" fill="rgb(100,100,100)">C</text><circle cx="33.4" cy="8.3" r="4.41" fill="lightgreen" stroke="#ccc" stroke-width="1.62"/><text x="33.4" y="10.5" text-anchor="middle" font-size="5.5" font-family="Tahoma,Geneva,sans-serif" font-weight="bold" fill="rgb(100,100,100)">G</text><circle cx="42.0" cy="-4.0" r="4.41" fill="lightgreen" stroke="#ccc" stroke-width="1.62"/><text x="42.0" y="-1.8" text-anchor="middle" font-size="5.5" font-family="Tahoma,Geneva,sans-serif" font-weight="bold" fill="rgb(100,100,100)">A</text><circle cx="50.6" cy="-16.3" r="4.41" fill="lightgreen" stroke="#ccc" stroke-width="1.62"/><text x="50.6" y="-14.1" text-anchor="middle" font-size="5.5" font-family="Tahoma,Geneva,sans-serif" font-weight="bold" fill="rgb(100,100,100)">G</text><circle cx="59.2" cy="-28.6" r="4.41" fill="lightgreen" stroke="#ccc" stroke-width="1.62"/><text x="59.2" y="-26.4" text-anchor="middle" font-size="5.5" font-family="Tahoma,Geneva,sans-serif" font-weight="bold" fill="rgb(100,100,100)">G</text><circle cx="67.8" cy="-40.9" r="4.41" fill="lightgreen" stroke="#ccc" stroke-width="1.62"/><text x="67.8" y="-38.7" text-anchor="middle" font-size="5.5" font-family="Tahoma,Geneva,sans-serif" font-weight="bold" fill="rgb(100,100,100)">G</text><circle cx="76.4" cy="-53.2" r="4.41" fill="lightgreen" stroke="#ccc" stroke-width="1.62"/><text x="76.4" y="-51.0" text-anchor="middle" font-size="5.5" font-family="Tahoma,Geneva,sans-serif" font-weight="bold" fill="rgb(100,100,100)">C</text><circle cx="85.0" cy="-65.5" r="4.41" fill="lightgreen" stroke="#ccc" stroke-width="1.62"/><text x="85.0" y="-63.3" text-anchor="middle" font-size="5.5" font-family="Tahoma,Geneva,sans-serif" font-weight="bold" fill="rgb(100,100,100)">C</text><circle cx="93.6" cy="-77.8" r="4.41" fill="lightgreen" stroke="#ccc" stroke-width="1.62"/><text x="93.6" y="-75.5" text-anchor="middle" font-size="5.5" font-family="Tahoma,Geneva,sans-serif" font-weight="bold" fill="rgb(100,100,100)">G</text><circle cx="102.2" cy="-90.0" r="4.41" fill="lightgreen" stroke="#ccc" stroke-width="1.62"/><text x="102.2" y="-87.8" text-anchor="middle" font-size="5.5" font-family="Tahoma,Geneva,sans-serif" font-weight="bold" fill="rgb(100,100,100)">U</text><circle cx="116.9" cy="-89.4" r="4.41" fill="#dbdb8d" stroke="#ccc" stroke-width="1.62"/><text x="116.9" y="-87.2" text-anchor="middle" font-size="5.5" font-family="Tahoma,Geneva,sans-serif" font-weight="bold" fill="rgb(100,100,100)">G</text><circle cx="110.8" cy="-102.8" r="4.41" fill="lightgreen" stroke="#ccc" stroke-width="1.62"/><text x="110.8" y="-100.6" text-anchor="middle" font-size="5.5" font-family="Tahoma,Geneva,sans-serif" font-weight="bold" fill="rgb(100,100,100)">U</text><circle cx="119.0" cy="-115.4" r="4.41" fill="lightgreen" stroke="#ccc" stroke-width="1.62"/><text x="119.0" y="-113.2" text-anchor="middle" font-size="5.5" font-family="Tahoma,Geneva,sans-serif" font-weight="bold" fill="rgb(100,100,100)">C</text><circle cx="127.3" cy="-128.0" r="4.41" fill="lightgreen" stroke="#ccc" stroke-width="1.62"/><text x="127.3" y="-125.7" text-anchor="middle" font-size="5.5" font-family="Tahoma,Geneva,sans-serif" font-weight="bold" fill="rgb(100,100,100)">U</text><circle cx="135.5" cy="-140.5" r="4.41" fill="lightgreen" stroke="#ccc" stroke-width="1.62"/><text x="135.5" y="-138.3" text-anchor="middle" font-size="5.5" font-family="Tahoma,Geneva,sans-serif" font-weight="bold" fill="rgb(100,100,100)">C</text><circle cx="143.7" cy="-153.1" r="4.41" fill="lightgreen" stroke="#ccc" stroke-width="1.62"/><text x="143.7" y="-150.8" text-anchor="middle" font-size="5.5" font-family="Tahoma,Geneva,sans-serif" font-weight="bold" fill="rgb(100,100,100)">C</text><circle cx="151.9" cy="-165.6" r="4.41" fill="lightgreen" stroke="#ccc" stroke-width="1.62"/><text x="151.9" y="-163.4" text-anchor="middle" font-size="5.5" font-family="Tahoma,Geneva,sans-serif" font-weight="bold" fill="rgb(100,100,100)">U</text><circle cx="160.1" cy="-178.2" r="4.41" fill="lightgreen" stroke="#ccc" stroke-width="1.62"/><text x="160.1" y="-175.9" text-anchor="middle" font-size="5.5" font-family="Tahoma,Geneva,sans-serif" font-weight="bold" fill="rgb(100,100,100)">C</text><circle cx="168.3" cy="-190.7" r="4.41" fill="lightgreen" stroke="#ccc" stroke-width="1.62"/><text x="168.3" y="-188.5" text-anchor="middle" font-size="5.5" font-family="Tahoma,Geneva,sans-serif" font-weight="bold" fill="rgb(100,100,100)">G</text><circle cx="176.5" cy="-203.3" r="4.41" fill="lightgreen" stroke="#ccc" stroke-width="1.62"/><text x="176.5" y="-201.0" text-anchor="middle" font-size="5.5" font-family="Tahoma,Geneva,sans-serif" font-weight="bold" fill="rgb(100,100,100)">G</text><circle cx="188.6" cy="-194.0" r="4.41" fill="#dbdb8d" stroke="#ccc" stroke-width="1.62"/><text x="188.6" y="-191.8" text-anchor="middle" font-size="5.5" font-family="Tahoma,Geneva,sans-serif" font-weight="bold" fill="rgb(100,100,100)">C</text><circle cx="188.8" cy="-179.0" r="4.41" fill="#dbdb8d" stroke="#ccc" stroke-width="1.62"/><text x="188.8" y="-176.8" text-anchor="middle" font-size="5.5" font-family="Tahoma,Geneva,sans-serif" font-weight="bold" fill="rgb(100,100,100)">G</text><circle cx="200.6" cy="-170.0" r="4.41" fill="#dbdb8d" stroke="#ccc" stroke-width="1.62"/><text x="200.6" y="-167.8" text-anchor="middle" font-size="5.5" font-family="Tahoma,Geneva,sans-serif" font-weight="bold" fill="rgb(100,100,100)">U</text><circle cx="215.4" cy="-169.5" r="4.41" fill="#dbdb8d" stroke="#ccc" stroke-width="1.62"/><text x="215.4" y="-167.3" text-anchor="middle" font-size="5.5" font-family="Tahoma,Geneva,sans-serif" font-weight="bold" fill="rgb(100,100,100)">U</text><circle cx="229.0" cy="-175.4" r="4.41" fill="lightgreen" stroke="#ccc" stroke-width="1.62"/><text x="229.0" y="-173.2" text-anchor="middle" font-size="5.5" font-family="Tahoma,Geneva,sans-serif" font-weight="bold" fill="rgb(100,100,100)">U</text><circle cx="238.0" cy="-187.3" r="4.41" fill="lightgreen" stroke="#ccc" stroke-width="1.62"/><text x="238.0" y="-185.1" text-anchor="middle" font-size="5.5" font-family="Tahoma,Geneva,sans-serif" font-weight="bold" fill="rgb(100,100,100)">A</text><circle cx="240.6" cy="-202.1" r="4.41" fill="lightgreen" stroke="#ccc" stroke-width="1.62"/><text x="240.6" y="-199.9" text-anchor="middle" font-size="5.5" font-family="Tahoma,Geneva,sans-serif" font-weight="bold" fill="rgb(100,100,100)">U</text><circle cx="236.3" cy="-216.4" r="4.41" fill="lightgreen" stroke="#ccc" stroke-width="1.62"/><text x="236.3" y="-214.2" text-anchor="middle" font-size="5.5" font-family="Tahoma,Geneva,sans-serif" font-weight="bold" fill="rgb(100,100,100)">C</text><circle cx="225.9" cy="-227.3" r="4.41" fill="lightgreen" stroke="#ccc" stroke-width="1.62"/><text x="225.9" y="-225.1" text-anchor="middle" font-size="5.5" font-family="Tahoma,Geneva,sans-serif" font-weight="bold" fill="rgb(100,100,100)">C</text><circle cx="211.7" cy="-232.2" r="4.41" fill="lightgreen" stroke="#ccc" stroke-width="1.62"/><text x="211.7" y="-230.0" text-anchor="middle" font-size="5.5" font-family="Tahoma,Geneva,sans-serif" font-weight="bold" fill="rgb(100,100,100)">G</text><circle cx="196.9" cy="-230.2" r="4.41" fill="lightgreen" stroke="#ccc" stroke-width="1.62"/><text x="196.9" y="-227.9" text-anchor="middle" font-size="5.5" font-family="Tahoma,Geneva,sans-serif" font-weight="bold" fill="rgb(100,100,100)">C</text><circle cx="184.6" cy="-221.6" r="4.41" fill="lightgreen" stroke="#ccc" stroke-width="1.62"/><text x="184.6" y="-219.4" text-anchor="middle" font-size="5.5" font-family="Tahoma,Geneva,sans-serif" font-weight="bold" fill="rgb(100,100,100)">A</text><circle cx="188.2" cy="-236.1" r="4.41" fill="lightgreen" stroke="#ccc" stroke-width="1.62"/><text x="188.2" y="-233.9" text-anchor="middle" font-size="5.5" font-family="Tahoma,Geneva,sans-serif" font-weight="bold" fill="rgb(100,100,100)">G</text><circle cx="191.8" cy="-250.7" r="4.41" fill="lightgreen" stroke="#ccc" stroke-width="1.62"/><text x="191.8" y="-248.5" text-anchor="middle" font-size="5.5" font-family="Tahoma,Geneva,sans-serif" font-weight="bold" fill="rgb(100,100,100)">C</text><circle cx="206.7" cy="-254.3" r="4.41" fill="lightgreen" stroke="#ccc" stroke-width="1.62"/><text x="206.7" y="-252.1" text-anchor="middle" font-size="5.5" font-family="Tahoma,Geneva,sans-serif" font-weight="bold" fill="rgb(100,100,100)">G</text><circle cx="218.2" cy="-264.4" r="4.41" fill="lightgreen" stroke="#ccc" stroke-width="1.62"/><text x="218.2" y="-262.1" text-anchor="middle" font-size="5.5" font-family="Tahoma,Geneva,sans-serif" font-weight="bold" fill="rgb(100,100,100)">C</text><circle cx="223.7" cy="-278.6" r="4.41" fill="lightgreen" stroke="#ccc" stroke-width="1.62"/><text x="223.7" y="-276.4" text-anchor="middle" font-size="5.5" font-family="Tahoma,Geneva,sans-serif" font-weight="bold" fill="rgb(100,100,100)">G</text><circle cx="221.9" cy="-293.8" r="4.41" fill="lightgreen" stroke="#ccc" stroke-width="1.62"/><text x="221.9" y="-291.6" text-anchor="middle" font-size="5.5" font-family="Tahoma,Geneva,sans-serif" font-weight="bold" fill="rgb(100,100,100)">G</text><circle cx="213.3" cy="-306.5" r="4.41" fill="lightgreen" stroke="#ccc" stroke-width="1.62"/><text x="213.3" y="-304.3" text-anchor="middle" font-size="5.5" font-family="Tahoma,Geneva,sans-serif" font-weight="bold" fill="rgb(100,100,100)">A</text><circle cx="199.7" cy="-313.6" r="4.41" fill="lightgreen" stroke="#ccc" stroke-width="1.62"/><text x="199.7" y="-311.4" text-anchor="middle" font-size="5.5" font-family="Tahoma,Geneva,sans-serif" font-weight="bold" fill="rgb(100,100,100)">U</text><circle cx="184.4" cy="-313.6" r="4.41" fill="lightgreen" stroke="#ccc" stroke-width="1.62"/><text x="184.4" y="-311.4" text-anchor="middle" font-size="5.5" font-family="Tahoma,Geneva,sans-serif" font-weight="bold" fill="rgb(100,100,100)">A</text><circle cx="171.6" cy="-301.8" r="4.41" fill="lightsalmon" stroke="#ccc" stroke-width="1.62"/><text x="171.6" y="-299.6" text-anchor="middle" font-size="5.5" font-family="Tahoma,Geneva,sans-serif" font-weight="bold" fill="rgb(100,100,100)">U</text><circle cx="158.9" cy="-289.9" r="4.41" fill="lightsalmon" stroke="#ccc" stroke-width="1.62"/><text x="158.9" y="-287.7" text-anchor="middle" font-size="5.5" font-family="Tahoma,Geneva,sans-serif" font-weight="bold" fill="rgb(100,100,100)">G</text></svg>