<svg xmlns="http://www.w3.org/2000/svg" viewBox="-115.6 -358.5 498.6 605.9" width="499" height="606"><style></style><line x1="-46.0" y1="-295.4" x2="-58.0" y2="-286.4" stroke="#999" stroke-width="1.62" stroke-opacity="0.8"/><line x1="-37.0" y1="-283.4" x2="-49.0" y2="-274.4" stroke="#999" stroke-width="1.62" stroke-opacity="0.8"/><line x1="-28.1" y1="-271.3" x2="-40.1" y2="-262.4" stroke="#999" stroke-width="1.62" stroke-opacity="0.8"/><line x1="-83.3" y1="-301.0" x2="-47.1" y2="-250.3" stroke="#d9534f" stroke-width="1.62" stroke-opacity="0.6"/><line x1="-81.1" y1="-316.7" x2="-49.0" y2="-236.4" stroke="#d9534f" stroke-width="1.62" stroke-opacity="0.6"/><line x1="-68.4" y1="-326.1" x2="-45.5" y2="-222.9" stroke="#d9534f" stroke-width="1.62" stroke-opacity="0.6"/><line x1="-52.8" y1="-323.8" x2="-36.9" y2="-211.6" stroke="#d9534f" stroke-width="1.62" stroke-opacity="0.6"/><line x1="-43.5" y1="-311.0" x2="-24.7" y2="-204.5" stroke="#d9534f" stroke-width="1.62" stroke-opacity="0.6"/><line x1="303.6" y1="172.6" x2="315.6" y2="163.6" stroke="#999" stroke-width="1.62" stroke-opacity="0.8"/><line x1="294.6" y1="160.6" x2="306.7" y2="151.6" stroke="#999" stroke-width="1.62" stroke-opacity="0.8"/><line x1="285.7" y1="148.5" x2="297.7" y2="139.6" stroke="#999" stroke-width="1.62" stroke-opacity="0.8"/><line x1="276.7" y1="136.5" x2="288.7" y2="127.5" stroke="#999" stroke-width="1.62" stroke-opacity="0.8"/><line x1="267.7" y1="124.5" x2="279.8" y2="115.5" stroke="#999" stroke-width="1.62" stroke-opacity="0.8"/><line x1="258.8" y1="112.4" x2="270.8" y2="103.5" stroke="#999" stroke-width="1.62" stroke-opacity="0.8"/><line x1="249.6" y1="100.6" x2="261.4" y2="91.2" stroke="#999" stroke-width="1.62" stroke-opacity="0.8"/><line x1="240.3" y1="88.8" x2="252.0" y2="79.5" stroke="#999" stroke-width="1.62" stroke-opacity="0.8"/><line x1="231.0" y1="77.1" x2="242.7" y2="67.7" stroke="#999" stroke-width="1.62" stroke-opacity="0.8"/><line x1="221.6" y1="65.3" x2="233.4" y2="56.0" stroke="#999" stroke-width="1.62" stroke-opacity="0.8"/><line x1="212.3" y1="53.6" x2="224.1" y2="44.2" stroke="#999" stroke-width="1.62" stroke-opacity="0.8"/><line x1="203.0" y1="41.8" x2="214.7" y2="32.5" stroke="#999" stroke-width="1.62" stroke-opacity="0.8"/><line x1="193.7" y1="30.1" x2="205.4" y2="20.7" stroke="#999" stroke-width="1.62" stroke-opacity="0.8"/><line x1="184.3" y1="18.3" x2="196.1" y2="9.0" stroke="#999" stroke-width="1.62" stroke-opacity="0.8"/><line x1="161.5" y1="-10.4" x2="173.3" y2="-19.7" stroke="#999" stroke-width="1.62" stroke-opacity="0.8"/><line x1="152.2" y1="-22.1" x2="164.0" y2="-31.5" stroke="#999" stroke-width="1.62" stroke-opacity="0.8"/><line x1="142.9" y1="-33.9" x2="154.6" y2="-43.2" stroke="#999" stroke-width="1.62" stroke-opacity="0.8"/><line x1="133.6" y1="-45.6" x2="145.3" y2="-55.0" stroke="#999" stroke-width="1.62" stroke-opacity="0.8"/><line x1="117.1" y1="-66.4" x2="128.8" y2="-75.7" stroke="#999" stroke-width="1.62" stroke-opacity="0.8"/><line x1="107.7" y1="-78.2" x2="119.5" y2="-87.5" stroke="#999" stroke-width="1.62" stroke-opacity="0.8"/><line x1="98.4" y1="-89.9" x2="110.2" y2="-99.2" stroke="#999" stroke-width="1.62" stroke-opacity="0.8"/><line x1="88.9" y1="-101.5" x2="100.4" y2="-111.2" stroke="#999" stroke-width="1.62" stroke-opacity="0.8"/><line x1="79.2" y1="-113.0" x2="90.7" y2="-122.6" stroke="#999" stroke-width="1.62" stroke-opacity="0.8"/><line x1="69.5" y1="-124.4" x2="81.0" y2="-134.1" stroke="#999" stroke-width="1.62" stroke-opacity="0.8"/><line x1="59.9" y1="-135.9" x2="71.3" y2="-145.6" stroke="#999" stroke-width="1.62" stroke-opacity="0.8"/><line x1="50.2" y1="-147.3" x2="61.6" y2="-157.0" stroke="#999" stroke-width="1.62" stroke-opacity="0.8"/><line x1="40.4" y1="-159.3" x2="52.1" y2="-168.6" stroke="#999" stroke-width="1.62" stroke-opacity="0.8"/><line x1="31.1" y1="-171.0" x2="42.8" y2="-180.4" stroke="#999" stroke-width="1.62" stroke-opacity="0.8"/><line x1="21.7" y1="-182.8" x2="33.5" y2="-192.1" stroke="#999" stroke-width="1.62" stroke-opacity="0.8"/><line x1="12.4" y1="-194.5" x2="24.2" y2="-203.9" stroke="#999" stroke-width="1.62" stroke-opacity="0.8"/><line x1="3.1" y1="-206.3" x2="14.8" y2="-215.6" stroke="#999" stroke-width="1.62" stroke-opacity="0.8"/><line x1="27.5" y1="-238.6" x2="15.7" y2="-250.9" stroke="#999" stroke-width="1.62" stroke-opacity="0.8"/><line x1="15.7" y1="-250.9" x2="2.8" y2="-261.3" stroke="#999" stroke-width="1.62" stroke-opacity="0.8"/><line x1="2.8" y1="-261.3" x2="-12.1" y2="-268.1" stroke="#999" stroke-width="1.62" stroke-opacity="0.8"/><line x1="-12.1" y1="-268.1" x2="-28.1" y2="-271.3" stroke="#999" stroke-width="1.62" stroke-opacity="0.8"/><line x1="-28.1" y1="-271.3" x2="-37.0" y2="-283.4" stroke="#999" stroke-width="1.62" stroke-opacity="0.8"/><line x1="-37.0" y1="-283.4" x2="-46.0" y2="-295.4" stroke="#999" stroke-width="1.62" stroke-opacity="0.8"/><line x1="-46.0" y1="-295.4" x2="-43.5" y2="-311.0" stroke="#999" stroke-width="1.62" stroke-opacity="0.8"/><line x1="-43.5" y1="-311.0" x2="-52.8" y2="-323.8" stroke="#999" stroke-width="1.62" stroke-opacity="0.8"/><line x1="-52.8" y1="-323.8" x2="-68.4" y2="-326.1" stroke="#999" stroke-width="1.62" stroke-opacity="0.8"/><line x1="-68.4" y1="-326.1" x2="-81.1" y2="-316.7" stroke="#999" stroke-width="1.62" stroke-opacity="0.8"/><line x1="-81.1" y1="-316.7" x2="-83.3" y2="-301.0" stroke="#999" stroke-width="1.62" stroke-opacity="0.8"/><line x1="-83.3" y1="-301.0" x2="-72.0" y2="-291.3" stroke="#999" stroke-width="1.62" stroke-opacity="0.8"/><line x1="-72.0" y1="-291.3" x2="-58.0" y2="-286.4" stroke="#999" stroke-width="1.62" stroke-opacity="0.8"/><line x1="-58.0" y1="-286.4" x2="-49.0" y2="-274.4" stroke="#999" stroke-width="1.62" stroke-opacity="0.8"/><line x1="-49.0" y1="-274.4" x2="-40.1" y2="-262.4" stroke="#999" stroke-width="1.62" stroke-opacity="0.8"/><line x1="-40.1" y1="-262.4" x2="-47.1" y2="-250.3" stroke="#999" stroke-width="1.62" stroke-opacity="0.8"/><line x1="-47.1" y1="-250.3" x2="-49.0" y2="-236.4" stroke="#999" stroke-width="1.62" stroke-opacity="0.8"/><line x1="-49.0" y1="-236.4" x2="-45.5" y2="-222.9" stroke="#999" stroke-width="1.62" stroke-opacity="0.8"/><line x1="-45.5" y1="-222.9" x2="-36.9" y2="-211.6" stroke="#999" stroke-width="1.62" stroke-opacity="0.8"/><line x1="-36.9" y1="-211.6" x2="-24.7" y2="-204.5" stroke="#999" stroke-width="1.62" stroke-opacity="0.8"/><line x1="-24.7" y1="-204.5" x2="-10.5" y2="-200.8" stroke="#999" stroke-width="1.62" stroke-opacity="0.8"/><line x1="-10.5" y1="-200.8" x2="3.1" y2="-206.3" stroke="#999" stroke-width="1.62" stroke-opacity="0.8"/><line x1="3.1" y1="-206.3" x2="12.4" y2="-194.5" stroke="#999" stroke-width="1.62" stroke-opacity="0.8"/><line x1="12.4" y1="-194.5" x2="21.7" y2="-182.8" stroke="#999" stroke-width="1.62" stroke-opacity="0.8"/><line x1="21.7" y1="-182.8" x2="31.1" y2="-171.0" stroke="#999" stroke-width="1.62" stroke-opacity="0.8"/><line x1="31.1" y1="-171.0" x2="40.4" y2="-159.3" stroke="#999" stroke-width="1.62" stroke-opacity="0.8"/><line x1="40.4" y1="-159.3" x2="35.6" y2="-145.4" stroke="#999" stroke-width="1.62" stroke-opacity="0.8"/><line x1="35.6" y1="-145.4" x2="50.2" y2="-147.3" stroke="#999" stroke-width="1.62" stroke-opacity="0.8"/><line x1="50.2" y1="-147.3" x2="59.9" y2="-135.9" stroke="#999" stroke-width="1.62" stroke-opacity="0.8"/><line x1="59.9" y1="-135.9" x2="69.5" y2="-124.4" stroke="#999" stroke-width="1.62" stroke-opacity="0.8"/><line x1="69.5" y1="-124.4" x2="79.2" y2="-113.0" stroke="#999" stroke-width="1.62" stroke-opacity="0.8"/><line x1="79.2" y1="-113.0" x2="88.9" y2="-101.5" stroke="#999" stroke-width="1.62" stroke-opacity="0.8"/><line x1="88.9" y1="-101.5" x2="98.4" y2="-89.9" stroke="#999" stroke-width="1.62" stroke-opacity="0.8"/><line x1="98.4" y1="-89.9" x2="107.7" y2="-78.2" stroke="#999" stroke-width="1.62" stroke-opacity="0.8"/><line x1="107.7" y1="-78.2" x2="117.1" y2="-66.4" stroke="#999" stroke-width="1.62" stroke-opacity="0.8"/><line x1="117.1" y1="-66.4" x2="120.3" y2="-52.1" stroke="#999" stroke-width="1.62" stroke-opacity="0.8"/><line x1="120.3" y1="-52.1" x2="133.6" y2="-45.6" stroke="#999" stroke-width="1.62" stroke-opacity="0.8"/><line x1="133.6" y1="-45.6" x2="142.9" y2="-33.9" stroke="#999" stroke-width="1.62" stroke-opacity="0.8"/><line x1="142.9" y1="-33.9" x2="152.2" y2="-22.1" stroke="#999" stroke-width="1.62" stroke-opacity="0.8"/><line x1="152.2" y1="-22.1" x2="161.5" y2="-10.4" stroke="#999" stroke-width="1.62" stroke-opacity="0.8"/><line x1="161.5" y1="-10.4" x2="160.9" y2="4.3" stroke="#999" stroke-width="1.62" stroke-opacity="0.8"/><line x1="160.9" y1="4.3" x2="169.8" y2="16.0" stroke="#999" stroke-width="1.62" stroke-opacity="0.8"/><line x1="169.8" y1="16.0" x2="184.3" y2="18.3" stroke="#999" stroke-width="1.62" stroke-opacity="0.8"/><line x1="184.3" y1="18.3" x2="193.7" y2="30.1" stroke="#999" stroke-width="1.62" stroke-opacity="0.8"/><line x1="193.7" y1="30.1" x2="203.0" y2="41.8" stroke="#999" stroke-width="1.62" stroke-opacity="0.8"/><line x1="203.0" y1="41.8" x2="212.3" y2="53.6" stroke="#999" stroke-width="1.62" stroke-opacity="0.8"/><line x1="212.3" y1="53.6" x2="221.6" y2="65.3" stroke="#999" stroke-width="1.62" stroke-opacity="0.8"/><line x1="221.6" y1="65.3" x2="231.0" y2="77.1" stroke="#999" stroke-width="1.62" stroke-opacity="0.8"/><line x1="231.0" y1="77.1" x2="240.3" y2="88.8" stroke="#999" stroke-width="1.62" stroke-opacity="0.8"/><line x1="240.3" y1="88.8" x2="249.6" y2="100.6" stroke="#999" stroke-width="1.62" stroke-opacity="0.8"/><line x1="249.6" y1="100.6" x2="258.8" y2="112.4" stroke="#999" stroke-width="1.62" stroke-opacity="0.8"/><line x1="258.8" y1="112.4" x2="267.7" y2="124.5" stroke="#999" stroke-width="1.62" stroke-opacity="0.8"/><line x1="267.7" y1="124.5" x2="276.7" y2="136.5" stroke="#999" stroke-width="1.62" stroke-opacity="0.8"/><line x1="276.7" y1="136.5" x2="285.7" y2="148.5" stroke="#999" stroke-width="1.62" stroke-opacity="0.8"/><line x1="285.7" y1="148.5" x2="294.6" y2="160.6" stroke="#999" stroke-width="1.62" stroke-opacity="0.8"/><line x1="294.6" y1="160.6" x2="303.6" y2="172.6" stroke="#999" stroke-width="1.62" stroke-opacity="0.8"/><line x1="303.6" y1="172.6" x2="299.6" y2="186.8" stroke="#999" stroke-width="1.62" stroke-opacity="0.8"/><line x1="299.6" y1="186.8" x2="302.4" y2="201.2" stroke="#999" stroke-width="1.62" stroke-opacity="0.8"/><line x1="302.4" y1="201.2" x2="312.7" y2="211.8" stroke="#999" stroke-width="1.62" stroke-opacity="0.8"/><line x1="312.7" y1="211.8" x2="327.0" y2="215.1" stroke="#999" stroke-width="1.62" stroke-opacity="0.8"/><line x1="327.0" y1="215.1" x2="340.8" y2="210.0" stroke="#999" stroke-width="1.62" stroke-opacity="0.8"/><line x1="340.8" y1="210.0" x2="349.6" y2="198.2" stroke="#999" stroke-width="1.62" stroke-opacity="0.8"/><line x1="349.6" y1="198.2" x2="350.6" y2="183.5" stroke="#999" stroke-width="1.62" stroke-opacity="0.8"/><line x1="350.6" y1="183.5" x2="343.4" y2="170.7" stroke="#999" stroke-width="1.62" stroke-opacity="0.8"/><line x1="343.4" y1="170.7" x2="330.3" y2="163.8" stroke="#999" stroke-width="1.62" stroke-opacity="0.8"/><line x1="330.3" y1="163.8" x2="315.6" y2="163.6" stroke="#999" stroke-width="1.62" stroke-opacity="0.8"/><line x1="315.6" y1="163.6" x2="306.7" y2="151.6" stroke="#999" stroke-width="1.62" stroke-opacity="0.8"/><line x1="306.7" y1="151.6" x2="297.7" y2="139.6" stroke="#999" stroke-width="1.62" stroke-opacity="0.8"/><line x1="297.7" y1="139.6" x2="288.7" y2="127.5" stroke="#999" stroke-width="1.62" stroke-opacity="0.8"/><line x1="288.7" y1="127.5" x2="279.8" y2="115.5" stroke="#999" stroke-width="1.62" stroke-opacity="0.8"/><line x1="279.8" y1="115.5" x2="270.8" y2="103.5" stroke="#999" stroke-width="1.62" stroke-opacity="0.8"/><line x1="270.8" y1="103.5" x2="276.0" y2="89.7" stroke="#999" stroke-width="1.62" stroke-opacity="0.8"/><line x1="276.0" y1="89.7" x2="261.4" y2="91.2" stroke="#999" stroke-width="1.62" stroke-opacity="0.8"/><line x1="261.4" y1="91.2" x2="252.0" y2="79.5" stroke="#999" stroke-width="1.62" stroke-opacity="0.8"/><line x1="252.0" y1="79.5" x2="242.7" y2="67.7" stroke="#999" stroke-width="1.62" stroke-opacity="0.8"/><line x1="242.7" y1="67.7" x2="233.4" y2="56.0" stroke="#999" stroke-width="1.62" stroke-opacity="0.8"/><line x1="233.4" y1="56.0" x2="224.1" y2="44.2" stroke="#999" stroke-width="1.62" stroke-opacity="0.8"/><line x1="224.1" y1="44.2" x2="214.7" y2="32.5" stroke="#999" stroke-width="1.62" stroke-opacity="0.8"/><line x1="214.7" y1="32.5" x2="205.4" y2="20.7" stroke="#999" stroke-width="1.62" stroke-opacity="0.8"/><line x1="205.4" y1="20.7" x2="196.1" y2="9.0" stroke="#999" stroke-width="1.62" stroke-opacity="0.8"/><line x1="196.1" y1="9.0" x2="197.1" y2="-5.7" stroke="#999" stroke-width="1.62" stroke-opacity="0.8"/><line x1="197.1" y1="-5.7" x2="187.8" y2="-17.0" stroke="#999" stroke-width="1.62" stroke-opacity="0.8"/><line x1="187.8" y1="-17.0" x2="173.3" y2="-19.7" stroke="#999" stroke-width="1.62" stroke-opacity="0.8"/><line x1="173.3" y1="-19.7" x2="164.0" y2="-31.5" stroke="#999" stroke-width="1.62" stroke-opacity="0.8"/><line x1="164.0" y1="-31.5" x2="154.6" y2="-43.2" stroke="#999" stroke-width="1.62" stroke-opacity="0.8"/><line x1="154.6" y1="-43.2" x2="145.3" y2="-55.0" stroke="#999" stroke-width="1.62" stroke-opacity="0.8"/><line x1="145.3" y1="-55.0" x2="142.0" y2="-69.3" stroke="#999" stroke-width="1.62" stroke-opacity="0.8"/><line x1="142.0" y1="-69.3" x2="128.8" y2="-75.7" stroke="#999" stroke-width="1.62" stroke-opacity="0.8"/><line x1="128.8" y1="-75.7" x2="119.5" y2="-87.5" stroke="#999" stroke-width="1.62" stroke-opacity="0.8"/><line x1="119.5" y1="-87.5" x2="110.2" y2="-99.2" stroke="#999" stroke-width="1.62" stroke-opacity="0.8"/><line x1="110.2" y1="-99.2" x2="114.9" y2="-113.1" stroke="#999" stroke-width="1.62" stroke-opacity="0.8"/><line x1="114.9" y1="-113.1" x2="100.4" y2="-111.2" stroke="#999" stroke-width="1.62" stroke-opacity="0.8"/><line x1="100.4" y1="-111.2" x2="90.7" y2="-122.6" stroke="#999" stroke-width="1.62" stroke-opacity="0.8"/><line x1="90.7" y1="-122.6" x2="81.0" y2="-134.1" stroke="#999" stroke-width="1.62" stroke-opacity="0.8"/><line x1="81.0" y1="-134.1" x2="71.3" y2="-145.6" stroke="#999" stroke-width="1.62" stroke-opacity="0.8"/><line x1="71.3" y1="-145.6" x2="61.6" y2="-157.0" stroke="#999" stroke-width="1.62" stroke-opacity="0.8"/><line x1="61.6" y1="-157.0" x2="52.1" y2="-168.6" stroke="#999" stroke-width="1.62" stroke-opacity="0.8"/><line x1="52.1" y1="-168.6" x2="42.8" y2="-180.4" stroke="#999" stroke-width="1.62" stroke-opacity="0.8"/><line x1="42.8" y1="-180.4" x2="33.5" y2="-192.1" stroke="#999" stroke-width="1.62" stroke-opacity="0.8"/><line x1="33.5" y1="-192.1" x2="24.2" y2="-203.9" stroke="#999" stroke-width="1.62" stroke-opacity="0.8"/><line x1="24.2" y1="-203.9" x2="14.8" y2="-215.6" stroke="#999" stroke-width="1.62" stroke-opacity="0.8"/><text x="40.2" y="-248.2" text-anchor="middle" font-size="7.6" font-family="Tahoma,Geneva,sans-serif" fill="#999">1</text><text x="-72.7" y="-340.6" text-anchor="middle" font-size="7.6" font-family="Tahoma,Geneva,sans-serif" fill="#999">10</text><text x="-48.6" y="-195.7" text-anchor="middle" font-size="7.6" font-family="Tahoma,Geneva,sans-serif" fill="#999">20</text><text x="46.4" y="-121.8" text-anchor="middle" font-size="7.6" font-family="Tahoma,Geneva,sans-serif" fill="#999">30</text><text x="138.4" y="-8.5" text-anchor="middle" font-size="7.6" font-family="Tahoma,Geneva,sans-serif" fill="#999">40</text><text x="226.5" y="102.5" text-anchor="middle" font-size="7.6" font-family="Tahoma,Geneva,sans-serif" fill="#999">50</text><text x="304.0" y="229.8" text-anchor="middle" font-size="7.6" font-family="Tahoma,Geneva,sans-serif" fill="#999">60</text><text x="302.9" y="119.7" text-anchor="middle" font-size="7.6" font-family="Tahoma,Geneva,sans-serif" fill="#999">70</text><text x="219.2" y="12.4" text-anchor="middle" font-size="7.6" font-family="Tahoma,Geneva,sans-serif" fill="#999">80</text><text x="133.3" y="-95.8" text-anchor="middle" font-size="7.6" font-family="Tahoma,Geneva,sans-serif" fill="#999">90</text><text x="47.3" y="-200.4" text-anchor="middle" font-size="7.6" font-family="Tahoma,Geneva,sans-serif" fill="#999">100</text><circle cx="27.5" cy="-238.6" r="4.41" fill="lightsalmon" stroke="#ccc" stroke-width="1.62"/><text x="27.5" y="-236.4" text-anchor="middle" font-size="5.5" font-family="Tahoma,Geneva,sans-serif" font-weight="bold" fill="rgb(100,100,100)">C</text><circle cx="15.7" cy="-250.9" r="4.41" fill="lightsalmon" stroke="#ccc" stroke-width="1.62"/><text x="15.7" y="-248.7" text-anchor="middle" font-size="5.5" font-family="Tahoma,Geneva,sans-serif" font-weight="bold" fill="rgb(100,100,100)">U</text><circle cx="2.8" cy="-261.3" r="4.41" fill="lightsalmon" stroke="#ccc" stroke-width="1.62"/><text x="2.8" y="-259.1" text-anchor="middle" font-size="5.5" font-family="Tahoma,Geneva,sans-serif" font-weight="bold" fill="rgb(100,100,100)">G</text><circle cx="-12.1" cy="-268.1" r="4.41" fill="lightsalmon" stroke="#ccc" stroke-width="1.62"/><text x="-12.1" y="-265.9" text-anchor="middle" font-size="5.5" font-family="Tahoma,Geneva,sans-serif" font-weight="bold" fill="rgb(100,100,100)">A</text><circle cx="-28.1" cy="-271.3" r="4.41" fill="lightgreen" stroke="#ccc" stroke-width="1.62"/><text x="-28.1" y="-269.1" text-anchor="middle" font-size="5.5" font-family="Tahoma,Geneva,sans-serif" font-weight="bold" fill="rgb(100,100,100)">C</text><circle cx="-37.0" cy="-283.4" r="4.41" fill="lightgreen" stroke="#ccc" stroke-width="1.62"/><text x="-37.0" y="-281.2" text-anchor="middle" font-size="5.5" font-family="Tahoma,Geneva,sans-serif" font-weight="bold" fill="rgb(100,100,100)">C</text><circle cx="-46.0" cy="-295.4" r="4.41" fill="lightgreen" stroke="#ccc" stroke-width="1.62"/><text x="-46.0" y="-293.2" text-anchor="middle" font-size="5.5" font-family="Tahoma,Geneva,sans-serif" font-weight="bold" fill="rgb(100,100,100)">A</text><circle cx="-43.5" cy="-311.0" r="4.41" fill="lightgreen" stroke="#ccc" stroke-width="1.62"/><text x="-43.5" y="-308.8" text-anchor="middle" font-size="5.5" font-family="Tahoma,Geneva,sans-serif" font-weight="bold" fill="rgb(100,100,100)">A</text><circle cx="-52.8" cy="-323.8" r="4.41" fill="lightgreen" stroke="#ccc" stroke-width="1.62"/><text x="-52.8" y="-321.6" text-anchor="middle" font-size="5.5" font-family="Tahoma,Geneva,sans-serif" font-weight="bold" fill="rgb(100,100,100)">C</text><circle cx="-68.4" cy="-326.1" r="4.41" fill="lightgreen" stroke="#ccc" stroke-width="1.62"/><text x="-68.4" y="-323.9" text-anchor="middle" font-size="5.5" font-family="Tahoma,Geneva,sans-serif" font-weight="bold" fill="rgb(100,100,100)">C</text><circle cx="-81.1" cy="-316.7" r="4.41" fill="lightgreen" stroke="#ccc" stroke-width="1.62"/><text x="-81.1" y="-314.5" text-anchor="middle" font-size="5.5" font-family="Tahoma,Geneva,sans-serif" font-weight="bold" fill="rgb(100,100,100)">A</text><circle cx="-83.3" cy="-301.0" r="4.41" fill="lightgreen" stroke="#ccc" stroke-width="1.62"/><text x="-83.3" y="-298.8" text-anchor="middle" font-size="5.5" font-family="Tahoma,Geneva,sans-serif" font-weight="bold" fill="rgb(100,100,100)">U</text><circle cx="-72.0" cy="-291.3" r="4.41" fill="lightblue" stroke="#ccc" stroke-width="1.62"/><text x="-72.0" y="-289.1" text-anchor="middle" font-size="5.5" font-family="Tahoma,Geneva,sans-serif" font-weight="bold" fill="rgb(100,100,100)">A</text><circle cx="-58.0" cy="-286.4" r="4.41" fill="lightgreen" stroke="#ccc" stroke-width="1.62"/><text x="-58.0" y="-284.2" text-anchor="middle" font-size="5.5" font-family="Tahoma,Geneva,sans-serif" font-weight="bold" fill="rgb(100,100,100)">U</text><circle cx="-49.0" cy="-274.4" r="4.41" fill="lightgreen" stroke="#ccc" stroke-width="1.62"/><text x="-49.0" y="-272.2" text-anchor="middle" font-size="5.5" font-family="Tahoma,Geneva,sans-serif" font-weight="bold" fill="rgb(100,100,100)">G</text><circle cx="-40.1" cy="-262.4" r="4.41" fill="lightgreen" stroke="#ccc" stroke-width="1.62"/><text x="-40.1" y="-260.2" text-anchor="middle" font-size="5.5" font-family="Tahoma,Geneva,sans-serif" font-weight="bold" fill="rgb(100,100,100)">G</text><circle cx="-47.1" cy="-250.3" r="4.41" fill="lightgreen" stroke="#ccc" stroke-width="1.62"/><text x="-47.1" y="-248.1" text-anchor="middle" font-size="5.5" font-family="Tahoma,Geneva,sans-serif" font-weight="bold" fill="rgb(100,100,100)">A</text><circle cx="-49.0" cy="-236.4" r="4.41" fill="lightgreen" stroke="#ccc" stroke-width="1.62"/><text x="-49.0" y="-234.2" text-anchor="middle" font-size="5.5" font-family="Tahoma,Geneva,sans-serif" font-weight="bold" fill="rgb(100,100,100)">U</text><circle cx="-45.5" cy="-222.9" r="4.41" fill="lightgreen" stroke="#ccc" stroke-width="1.62"/><text x="-45.5" y="-220.7" text-anchor="middle" font-size="5.5" font-family="Tahoma,Geneva,sans-serif" font-weight="bold" fill="rgb(100,100,100)">G</text><circle cx="-36.9" cy="-211.6" r="4.41" fill="lightgreen" stroke="#ccc" stroke-width="1.62"/><text x="-36.9" y="-209.4" text-anchor="middle" font-size="5.5" font-family="Tahoma,Geneva,sans-serif" font-weight="bold" fill="rgb(100,100,100)">G</text><circle cx="-24.7" cy="-204.5" r="4.41" fill="lightgreen" stroke="#ccc" stroke-width="1.62"/><text x="-24.7" y="-202.3" text-anchor="middle" font-size="5.5" font-family="Tahoma,Geneva,sans-serif" font-weight="bold" fill="rgb(100,100,100)">U</text><circle cx="-10.5" cy="-200.8" r="4.41" fill="lightsalmon" stroke="#ccc" stroke-width="1.62"/><text x="-10.5" y="-198.6" text-anchor="middle" font-size="5.5" font-family="Tahoma,Geneva,sans-serif" font-weight="bold" fill="rgb(100,100,100)">U</text><circle cx="3.1" cy="-206.3" r="4.41" fill="lightgreen" stroke="#ccc" stroke-width="1.62"/><text x="3.1" y="-204.1" text-anchor="middle" font-size="5.5" font-family="Tahoma,Geneva,sans-serif" font-weight="bold" fill="rgb(100,100,100)">A</text><circle cx="12.4" cy="-194.5" r="4.41" fill="lightgreen" stroke="#ccc" stroke-width="1.62"/><text x="12.4" y="-192.3" text-anchor="middle" font-size="5.5" font-family="Tahoma,Geneva,sans-serif" font-weight="bold" fill="rgb(100,100,100)">C</text><circle cx="21.7" cy="-182.8" r="4.41" fill="lightgreen" stroke="#ccc" stroke-width="1.62"/><text x="21.7" y="-180.6" text-anchor="middle" font-size="5.5" font-family="Tahoma,Geneva,sans-serif" font-weight="bold" fill="rgb(100,100,100)">G</text><circle cx="31.1" cy="-171.0" r="4.41" fill="lightgreen" stroke="#ccc" stroke-width="1.62"/><text x="31.1" y="-168.8" text-anchor="middle" font-size="5.5" font-family="Tahoma,Geneva,sans-serif" font-weight="bold" fill="rgb(100,100,100)">G</text><circle cx="40.4" cy="-159.3" r="4.41" fill="lightgreen" stroke="#ccc" stroke-width="1.62"/><text x="40.4" y="-157.1" text-anchor="middle" font-size="5.5" font-family="Tahoma,Geneva,sans-serif" font-weight="bold" fill="rgb(100,100,100)">C</text><circle cx="35.6" cy="-145.4" r="4.41" fill="#dbdb8d" stroke="#ccc" stroke-width="1.62"/><text x="35.6" y="-143.2" text-anchor="middle" font-size="5.5" font-family="Tahoma,Geneva,sans-serif" font-weight="bold" fill="rgb(100,100,100)">U</text><circle cx="50.2" cy="-147.3" r="4.41" fill="lightgreen" stroke="#ccc" stroke-width="1.62"/><text x="50.2" y="-145.1" text-anchor="middle" font-size="5.5" font-family="Tahoma,Geneva,sans-serif" font-weight="bold" fill="rgb(100,100,100)">G</text><circle cx="59.9" cy="-135.9" r="4.41" fill="lightgreen" stroke="#ccc" stroke-width="1.62"/><text x="59.9" y="-133.7" text-anchor="middle" font-size="5.5" font-family="Tahoma,Geneva,sans-serif" font-weight="bold" fill="rgb(100,100,100)">C</text><circle cx="69.5" cy="-124.4" r="4.41" fill="lightgreen" stroke="#ccc" stroke-width="1.62"/><text x="69.5" y="-122.2" text-anchor="middle" font-size="5.5" font-family="Tahoma,Geneva,sans-serif" font-weight="bold" fill="rgb(100,100,100)">C</text><circle cx="79.2" cy="-113.0" r="4.41" fill="lightgreen" stroke="#ccc" stroke-width="1.62"/><text x="79.2" y="-110.8" text-anchor="middle" font-size="5.5" font-family="Tahoma,Geneva,sans-serif" font-weight="bold" fill="rgb(100,100,100)">U</text><circle cx="88.9" cy="-101.5" r="4.41" fill="lightgreen" stroke="#ccc" stroke-width="1.62"/><text x="88.9" y="-99.3" text-anchor="middle" font-size="5.5" font-family="Tahoma,Geneva,sans-serif" font-weight="bold" fill="rgb(100,100,100)">G</text><circle cx="98.4" cy="-89.9" r="4.41" fill="lightgreen" stroke="#ccc" stroke-width="1.62"/><text x="98.4" y="-87.7" text-anchor="middle" font-size="5.5" font-family="Tahoma,Geneva,sans-serif" font-weight="bold" fill="rgb(100,100,100)">G</text><circle cx="107.7" cy="-78.2" r="4.41" fill="lightgreen" stroke="#ccc" stroke-width="1.62"/><text x="107.7" y="-76.0" text-anchor="middle" font-size="5.5" font-family="Tahoma,Geneva,sans-serif" font-weight="bold" fill="rgb(100,100,100)">C</text><circle cx="117.1" cy="-66.4" r="4.41" fill="lightgreen" stroke="#ccc" stroke-width="1.62"/><text x="117.1" y="-64.2" text-anchor="middle" font-size="5.5" font-family="Tahoma,Geneva,sans-serif" font-weight="bold" fill="rgb(100,100,100)">U</text><circle cx="120.3" cy="-52.1" r="4.41" fill="#dbdb8d" stroke="#ccc" stroke-width="1.62"/><text x="120.3" y="-49.9" text-anchor="middle" font-size="5.5" font-family="Tahoma,Geneva,sans-serif" font-weight="bold" fill="rgb(100,100,100)">G</text><circle cx="133.6" cy="-45.6" r="4.41" fill="lightgreen" stroke="#ccc" stroke-width="1.62"/><text x="133.6" y="-43.4" text-anchor="middle" font-size="5.5" font-family="Tahoma,Geneva,sans-serif" font-weight="bold" fill="rgb(100,100,100)">C</text><circle cx="142.9" cy="-33.9" r="4.41" fill="lightgreen" stroke="#ccc" stroke-width="1.62"/><text x="142.9" y="-31.7" text-anchor="middle" font-size="5.5" font-family="Tahoma,Geneva,sans-serif" font-weight="bold" fill="rgb(100,100,100)">G</text><circle cx="152.2" cy="-22.1" r="4.41" fill="lightgreen" stroke="#ccc" stroke-width="1.62"/><text x="152.2" y="-19.9" text-anchor="middle" font-size="5.5" font-family="Tahoma,Geneva,sans-serif" font-weight="bold" fill="rgb(100,100,100)">C</text><circle cx="161.5" cy="-10.4" r="4.41" fill="lightgreen" stroke="#ccc" stroke-width="1.62"/><text x="161.5" y="-8.2" text-anchor="middle" font-size="5.5" font-family="Tahoma,Geneva,sans-serif" font-weight="bold" fill="rgb(100,100,100)">C</text><circle cx="160.9" cy="4.3" r="4.41" fill="#dbdb8d" stroke="#ccc" stroke-width="1.62"/><text x="160.9" y="6.5" text-anchor="middle" font-size="5.5" font-family="Tahoma,Geneva,sans-serif" font-weight="bold" fill="rgb(100,100,100)">G</text><circle cx="169.8" cy="16.0" r="4.41" fill="#dbdb8d" stroke="#ccc" stroke-width="1.62"/><text x="169.8" y="18.2" text-anchor="middle" font-size="5.5" font-family="Tahoma,Geneva,sans-serif" font-weight="bold" fill="rgb(100,100,100)">A</text><circle cx="184.3" cy="18.3" r="4.41" fill="lightgreen" stroke="#ccc" stroke-width="1.62"/><text x="184.3" y="20.5" text-anchor="middle" font-size="5.5" font-family="Tahoma,Geneva,sans-serif" font-weight="bold" fill="rgb(100,100,100)">C</text><circle cx="193.7" cy="30.1" r="4.41" fill="lightgreen" stroke="#ccc" stroke-width="1.62"/><text x="193.7" y="32.3" text-anchor="middle" font-size="5.5" font-family="Tahoma,Geneva,sans-serif" font-weight="bold" fill="rgb(100,100,100)">C</text><circle cx="203.0" cy="41.8" r="4.41" fill="lightgreen" stroke="#ccc" stroke-width="1.62"/><text x="203.0" y="44.0" text-anchor="middle" font-size="5.5" font-family="Tahoma,Geneva,sans-serif" font-weight="bold" fill="rgb(100,100,100)">G</text><circle cx="212.3" cy="53.6" r="4.41" fill="lightgreen" stroke="#ccc" stroke-width="1.62"/><text x="212.3" y="55.8" text-anchor="middle" font-size="5.5" font-family="Tahoma,Geneva,sans-serif" font-weight="bold" fill="rgb(100,100,100)">A</text><circle cx="221.6" cy="65.3" r="4.41" fill="lightgreen" stroke="#ccc" stroke-width="1.62"/><text x="221.6" y="67.5" text-anchor="middle" font-size="5.5" font-family="Tahoma,Geneva,sans-serif" font-weight="bold" fill="rgb(100,100,100)">U</text><circle cx="231.0" cy="77.1" r="4.41" fill="lightgreen" stroke="#ccc" stroke-width="1.62"/><text x="231.0" y="79.3" text-anchor="middle" font-size="5.5" font-family="Tahoma,Geneva,sans-serif" font-weight="bold" fill="rgb(100,100,100)">U</text><circle cx="240.3" cy="88.8" r="4.41" fill="lightgreen" stroke="#ccc" stroke-width="1.62"/><text x="240.3" y="91.0" text-anchor="middle" font-size="5.5" font-family="Tahoma,Geneva,sans-serif" font-weight="bold" fill="rgb(100,100,100)">G</text><circle cx="249.6" cy="100.6" r="4.41" fill="lightgreen" stroke="#ccc" stroke-width="1.62"/><text x="249.6" y="102.8" text-anchor="middle" font-size="5.5" font-family="Tahoma,Geneva,sans-serif" font-weight="bold" fill="rgb(100,100,100)">C</text><circle cx="258.8" cy="112.4" r="4.41" fill="lightgreen" stroke="#ccc" stroke-width="1.62"/><text x="258.8" y="114.7" text-anchor="middle" font-size="5.5" font-family="Tahoma,Geneva,sans-serif" font-weight="bold" fill="rgb(100,100,100)">G</text><circle cx="267.7" cy="124.5" r="4.41" fill="lightgreen" stroke="#ccc" stroke-width="1.62"/><text x="267.7" y="126.7" text-anchor="middle" font-size="5.5" font-family="Tahoma,Geneva,sans-serif" font-weight="bold" fill="rgb(100,100,100)">A</text><circle cx="276.7" cy="136.5" r="4.41" fill="lightgreen" stroke="#ccc" stroke-width="1.62"/><text x="276.7" y="138.7" text-anchor="middle" font-size="5.5" font-family="Tahoma,Geneva,sans-serif" font-weight="bold" fill="rgb(100,100,100)">G</text><circle cx="285.7" cy="148.5" r="4.41" fill="lightgreen" stroke="#ccc" stroke-width="1.62"/><text x="285.7" y="150.7" text-anchor="middle" font-size="5.5" font-family="Tahoma,Geneva,sans-serif" font-weight="bold" fill="rgb(100,100,100)">C</text><circle cx="294.6" cy="160.6" r="4.41" fill="lightgreen" stroke="#ccc" stroke-width="1.62"/><text x="294.6" y="162.8" text-anchor="middle" font-size="5.5" font-family="Tahoma,Geneva,sans-serif" font-weight="bold" fill="rgb(100,100,100)">A</text><circle cx="303.6" cy="172.6" r="4.41" fill="lightgreen" stroke="#ccc" stroke-width="1.62"/><text x="303.6" y="174.8" text-anchor="middle" font-size="5.5" font-family="Tahoma,Geneva,sans-serif" font-weight="bold" fill="rgb(100,100,100)">U</text><circle cx="299.6" cy="186.8" r="4.41" fill="lightblue" stroke="#ccc" stroke-width="1.62"/><text x="299.6" y="189.0" text-anchor="middle" font-size="5.5" font-family="Tahoma,Geneva,sans-serif" font-weight="bold" fill="rgb(100,100,100)">G</text><circle cx="302.4" cy="201.2" r="4.41" fill="lightblue" stroke="#ccc" stroke-width="1.62"/><text x="302.4" y="203.4" text-anchor="middle" font-size="5.5" font-family="Tahoma,Geneva,sans-serif" font-weight="bold" fill="rgb(100,100,100)">A</text><circle cx="312.7" cy="211.8" r="4.41" fill="lightblue" stroke="#ccc" stroke-width="1.62"/><text x="312.7" y="214.0" text-anchor="middle" font-size="5.5" font-family="Tahoma,Geneva,sans-serif" font-weight="bold" fill="rgb(100,100,100)">U</text><circle cx="327.0" cy="215.1" r="4.41" fill="lightblue" stroke="#ccc" stroke-width="1.62"/><text x="327.0" y="217.3" text-anchor="middle" font-size="5.5" font-family="Tahoma,Geneva,sans-serif" font-weight="bold" fill="rgb(100,100,100)">G</text><circle cx="340.8" cy="210.0" r="4.41" fill="lightblue" stroke="#ccc" stroke-width="1.62"/><text x="340.8" y="212.2" text-anchor="middle" font-size="5.5" font-family="Tahoma,Geneva,sans-serif" font-weight="bold" fill="rgb(100,100,100)">U</text><circle cx="349.6" cy="198.2" r="4.41" fill="lightblue" stroke="#ccc" stroke-width="1.62"/><text x="349.6" y="200.4" text-anchor="middle" font-size="5.5" font-family="Tahoma,Geneva,sans-serif" font-weight="bold" fill="rgb(100,100,100)">U</text><circle cx="350.6" cy="183.5" r="4.41" fill="lightblue" stroke="#ccc" stroke-width="1.62"/><text x="350.6" y="185.7" text-anchor="middle" font-size="5.5" font-family="Tahoma,Geneva,sans-serif" font-weight="bold" fill="rgb(100,100,100)">C</text><circle cx="343.4" cy="170.7" r="4.41" fill="lightblue" stroke="#ccc" stroke-width="1.62"/><text x="343.4" y="172.9" text-anchor="middle" font-size="5.5" font-family="Tahoma,Geneva,sans-serif" font-weight="bold" fill="rgb(100,100,100)">A</text><circle cx="330.3" cy="163.8" r="4.41" fill="lightblue" stroke="#ccc" stroke-width="1.62"/><text x="330.3" y="166.0" text-anchor="middle" font-size="5.5" font-family="Tahoma,Geneva,sans-serif" font-weight="bold" fill="rgb(100,100,100)">A</text><circle cx="315.6" cy="163.6" r="4.41" fill="lightgreen" stroke="#ccc" stroke-width="1.62"/><text x="315.6" y="165.8" text-anchor="middle" font-size="5.5" font-family="Tahoma,Geneva,sans-serif" font-weight="bold" fill="rgb(100,100,100)">A</text><circle cx="306.7" cy="151.6" r="4.41" fill="lightgreen" stroke="#ccc" stroke-width="1.62"/><text x="306.7" y="153.8" text-anchor="middle" font-size="5.5" font-family="Tahoma,Geneva,sans-serif" font-weight="bold" fill="rgb(100,100,100)">U</text><circle cx="297.7" cy="139.6" r="4.41" fill="lightgreen" stroke="#ccc" stroke-width="1.62"/><text x="297.7" y="141.8" text-anchor="middle" font-size="5.5" font-family="Tahoma,Geneva,sans-serif" font-weight="bold" fill="rgb(100,100,100)">G</text><circle cx="288.7" cy="127.5" r="4.41" fill="lightgreen" stroke="#ccc" stroke-width="1.62"/><text x="288.7" y="129.7" text-anchor="middle" font-size="5.5" font-family="Tahoma,Geneva,sans-serif" font-weight="bold" fill="rgb(100,100,100)">C</text><circle cx="279.8" cy="115.5" r="4.41" fill="lightgreen" stroke="#ccc" stroke-width="1.62"/><text x="279.8" y="117.7" text-anchor="middle" font-size="5.5" font-family="Tahoma,Geneva,sans-serif" font-weight="bold" fill="rgb(100,100,100)">U</text><circle cx="270.8" cy="103.5" r="4.41" fill="lightgreen" stroke="#ccc" stroke-width="1.62"/><text x="270.8" y="105.7" text-anchor="middle" font-size="5.5" font-family="Tahoma,Geneva,sans-serif" font-weight="bold" fill="rgb(100,100,100)">C</text><circle cx="276.0" cy="89.7" r="4.41" fill="#dbdb8d" stroke="#ccc" stroke-width="1.62"/><text x="276.0" y="91.9" text-anchor="middle" font-size="5.5" font-family="Tahoma,Geneva,sans-serif" font-weight="bold" fill="rgb(100,100,100)">A</text><circle cx="261.4" cy="91.2" r="4.41" fill="lightgreen" stroke="#ccc" stroke-width="1.62"/><text x="261.4" y="93.4" text-anchor="middle" font-size="5.5" font-family="Tahoma,Geneva,sans-serif" font-weight="bold" fill="rgb(100,100,100)">G</text><circle cx="252.0" cy="79.5" r="4.41" fill="lightgreen" stroke="#ccc" stroke-width="1.62"/><text x="252.0" y="81.7" text-anchor="middle" font-size="5.5" font-family="Tahoma,Geneva,sans-serif" font-weight="bold" fill="rgb(100,100,100)">C</text><circle cx="242.7" cy="67.7" r="4.41" fill="lightgreen" stroke="#ccc" stroke-width="1.62"/><text x="242.7" y="69.9" text-anchor="middle" font-size="5.5" font-family="Tahoma,Geneva,sans-serif" font-weight="bold" fill="rgb(100,100,100)">A</text><circle cx="233.4" cy="56.0" r="4.41" fill="lightgreen" stroke="#ccc" stroke-width="1.62"/><text x="233.4" y="58.2" text-anchor="middle" font-size="5.5" font-family="Tahoma,Geneva,sans-serif" font-weight="bold" fill="rgb(100,100,100)">A</text><circle cx="224.1" cy="44.2" r="4.41" fill="lightgreen" stroke="#ccc" stroke-width="1.62"/><text x="224.1" y="46.4" text-anchor="middle" font-size="5.5" font-family="Tahoma,Geneva,sans-serif" font-weight="bold" fill="rgb(100,100,100)">U</text><circle cx="214.7" cy="32.5" r="4.41" fill="lightgreen" stroke="#ccc" stroke-width="1.62"/><text x="214.7" y="34.7" text-anchor="middle" font-size="5.5" font-family="Tahoma,Geneva,sans-serif" font-weight="bold" fill="rgb(100,100,100)">C</text><circle cx="205.4" cy="20.7" r="4.41" fill="lightgreen" stroke="#ccc" stroke-width="1.62"/><text x="205.4" y="23.0" text-anchor="middle" font-size="5.5" font-family="Tahoma,Geneva,sans-serif" font-weight="bold" fill="rgb(100,100,100)">G</text><circle cx="196.1" cy="9.0" r="4.41" fill="lightgreen" stroke="#ccc" stroke-width="1.62"/><text x="196.1" y="11.2" text-anchor="middle" font-size="5.5" font-family="Tahoma,Geneva,sans-serif" font-weight="bold" fill="rgb(100,100,100)">G</text><circle cx="197.1" cy="-5.7" r="4.41" fill="#dbdb8d" stroke="#ccc" stroke-width="1.62"/><text x="197.1" y="-3.5" text-anchor="middle" font-size="5.5" font-family="Tahoma,Geneva,sans-serif" font-weight="bold" fill="rgb(100,100,100)">G</text><circle cx="187.8" cy="-17.0" r="4.41" fill="#dbdb8d" stroke="#ccc" stroke-width="1.62"/><text x="187.8" y="-14.8" text-anchor="middle" font-size="5.5" font-family="Tahoma,Geneva,sans-serif" font-weight="bold" fill="rgb(100,100,100)">A</text><circle cx="173.3" cy="-19.7" r="4.41" fill="lightgreen" stroke="#ccc" stroke-width="1.62"/><text x="173.3" y="-17.5" text-anchor="middle" font-size="5.5" font-family="Tahoma,Geneva,sans-serif" font-weight="bold" fill="rgb(100,100,100)">G</text><circle cx="164.0" cy="-31.5" r="4.41" fill="lightgreen" stroke="#ccc" stroke-width="1.62"/><text x="164.0" y="-29.3" text-anchor="middle" font-size="5.5" font-family="Tahoma,Geneva,sans-serif" font-weight="bold" fill="rgb(100,100,100)">G</text><circle cx="154.6" cy="-43.2" r="4.41" fill="lightgreen" stroke="#ccc" stroke-width="1.62"/><text x="154.6" y="-41.0" text-anchor="middle" font-size="5.5" font-family="Tahoma,Geneva,sans-serif" font-weight="bold" fill="rgb(100,100,100)">C</text><circle cx="145.3" cy="-55.0" r="4.41" fill="lightgreen" stroke="#ccc" stroke-width="1.62"/><text x="145.3" y="-52.8" text-anchor="middle" font-size="5.5" font-family="Tahoma,Geneva,sans-serif" font-weight="bold" fill="rgb(100,100,100)">G</text><circle cx="142.0" cy="-69.3" r="4.41" fill="#dbdb8d" stroke="#ccc" stroke-width="1.62"/><text x="142.0" y="-67.1" text-anchor="middle" font-size="5.5" font-family="Tahoma,Geneva,sans-serif" font-weight="bold" fill="rgb(100,100,100)">G</text><circle cx="128.8" cy="-75.7" r="4.41" fill="lightgreen" stroke="#ccc" stroke-width="1.62"/><text x="128.8" y="-73.5" text-anchor="middle" font-size="5.5" font-family="Tahoma,Geneva,sans-serif" font-weight="bold" fill="rgb(100,100,100)">A</text><circle cx="119.5" cy="-87.5" r="4.41" fill="lightgreen" stroke="#ccc" stroke-width="1.62"/><text x="119.5" y="-85.3" text-anchor="middle" font-size="5.5" font-family="Tahoma,Geneva,sans-serif" font-weight="bold" fill="rgb(100,100,100)">G</text><circle cx="110.2" cy="-99.2" r="4.41" fill="lightgreen" stroke="#ccc" stroke-width="1.62"/><text x="110.2" y="-97.0" text-anchor="middle" font-size="5.5" font-family="Tahoma,Geneva,sans-serif" font-weight="bold" fill="rgb(100,100,100)">C</text><circle cx="114.9" cy="-113.1" r="4.41" fill="#dbdb8d" stroke="#ccc" stroke-width="1.62"/><text x="114.9" y="-110.9" text-anchor="middle" font-size="5.5" font-family="Tahoma,Geneva,sans-serif" font-weight="bold" fill="rgb(100,100,100)">U</text><circle cx="100.4" cy="-111.2" r="4.41" fill="lightgreen" stroke="#ccc" stroke-width="1.62"/><text x="100.4" y="-109.0" text-anchor="middle" font-size="5.5" font-family="Tahoma,Geneva,sans-serif" font-weight="bold" fill="rgb(100,100,100)">C</text><circle cx="90.7" cy="-122.6" r="4.41" fill="lightgreen" stroke="#ccc" stroke-width="1.62"/><text x="90.7" y="-120.4" text-anchor="middle" font-size="5.5" font-family="Tahoma,Geneva,sans-serif" font-weight="bold" fill="rgb(100,100,100)">A</text><circle cx="81.0" cy="-134.1" r="4.41" fill="lightgreen" stroke="#ccc" stroke-width="1.62"/><text x="81.0" y="-131.9" text-anchor="middle" font-size="5.5" font-family="Tahoma,Geneva,sans-serif" font-weight="bold" fill="rgb(100,100,100)">G</text><circle cx="71.3" cy="-145.6" r="4.41" fill="lightgreen" stroke="#ccc" stroke-width="1.62"/><text x="71.3" y="-143.4" text-anchor="middle" font-size="5.5" font-family="Tahoma,Geneva,sans-serif" font-weight="bold" fill="rgb(100,100,100)">G</text><circle cx="61.6" cy="-157.0" r="4.41" fill="lightgreen" stroke="#ccc" stroke-width="1.62"/><text x="61.6" y="-154.8" text-anchor="middle" font-size="5.5" font-family="Tahoma,Geneva,sans-serif" font-weight="bold" fill="rgb(100,100,100)">U</text><circle cx="52.1" cy="-168.6" r="4.41" fill="lightgreen" stroke="#ccc" stroke-width="1.62"/><text x="52.1" y="-166.4" text-anchor="middle" font-size="5.5" font-family="Tahoma,Geneva,sans-serif" font-weight="bold" fill="rgb(100,100,100)">G</text><circle cx="42.8" cy="-180.4" r="4.41" fill="lightgreen" stroke="#ccc" stroke-width="1.62"/><text x="42.8" y="-178.2" text-anchor="middle" font-size="5.5" font-family="Tahoma,Geneva,sans-serif" font-weight="bold" fill="rgb(100,100,100)">C</text><circle cx="33.5" cy="-192.1" r="4.41" fill="lightgreen" stroke="#ccc" stroke-width="1.62"/><text x="33.5" y="-189.9" text-anchor="middle" font-size="5.5" font-family="Tahoma,Geneva,sans-serif" font-weight="bold" fill="rgb(100,100,100)">U</text><circle cx="24.2" cy="-203.9" r="4.41" fill="lightgreen" stroke="#ccc" stroke-width="1.62"/><text x="24.2" y="-201.7" text-anchor="middle" font-size="5.5" font-family="Tahoma,Geneva,sans-serif" font-weight="bold" fill="rgb(100,100,100)">G</text><circle cx="14.8" cy="-215.6" r="4.41" fill="lightgreen" stroke="#ccc" stroke-width="1.62"/><text x="14.8" y="-213.4" text-anchor="middle" font-size="5.5" font-family="Tahoma,Geneva,sans-serif" font-weight="bold" fill="rgb(100,100,100)">U</text></svg>