<svg xmlns="http://www.w3.org/2000/svg" viewBox="-201.4 -245.8 653.3 288.2" width="653" height="288"><style></style><line x1="-147.5" y1="-12.1" x2="-141.5" y2="1.7" stroke="#999" stroke-width="1.53" stroke-opacity="0.8"/><line x1="-133.8" y1="-18.1" x2="-127.8" y2="-4.3" stroke="#999" stroke-width="1.53" stroke-opacity="0.8"/><line x1="-120.0" y1="-24.1" x2="-114.0" y2="-10.3" stroke="#999" stroke-width="1.53" stroke-opacity="0.8"/><line x1="-106.3" y1="-30.1" x2="-100.3" y2="-16.3" stroke="#999" stroke-width="1.53" stroke-opacity="0.8"/><line x1="-92.6" y1="-36.1" x2="-86.5" y2="-22.3" stroke="#999" stroke-width="1.53" stroke-opacity="0.8"/><line x1="-78.8" y1="-42.1" x2="-72.8" y2="-28.3" stroke="#999" stroke-width="1.53" stroke-opacity="0.8"/><line x1="-64.0" y1="-48.0" x2="-58.9" y2="-33.9" stroke="#999" stroke-width="1.53" stroke-opacity="0.8"/><line x1="-49.9" y1="-53.1" x2="-44.8" y2="-39.1" stroke="#999" stroke-width="1.53" stroke-opacity="0.8"/><line x1="-35.9" y1="-58.3" x2="-30.7" y2="-44.2" stroke="#999" stroke-width="1.53" stroke-opacity="0.8"/><line x1="-21.8" y1="-63.5" x2="-16.6" y2="-49.4" stroke="#999" stroke-width="1.53" stroke-opacity="0.8"/><line x1="-7.7" y1="-68.6" x2="-2.5" y2="-54.5" stroke="#999" stroke-width="1.53" stroke-opacity="0.8"/><line x1="6.4" y1="-73.8" x2="11.6" y2="-59.7" stroke="#999" stroke-width="1.53" stroke-opacity="0.8"/><line x1="20.5" y1="-78.9" x2="25.6" y2="-64.8" stroke="#999" stroke-width="1.53" stroke-opacity="0.8"/><line x1="34.6" y1="-84.1" x2="39.7" y2="-70.0" stroke="#999" stroke-width="1.53" stroke-opacity="0.8"/><line x1="48.7" y1="-89.2" x2="53.8" y2="-75.1" stroke="#999" stroke-width="1.53" stroke-opacity="0.8"/><line x1="62.7" y1="-94.4" x2="67.9" y2="-80.3" stroke="#999" stroke-width="1.53" stroke-opacity="0.8"/><line x1="76.8" y1="-99.5" x2="82.0" y2="-85.4" stroke="#999" stroke-width="1.53" stroke-opacity="0.8"/><line x1="90.9" y1="-104.7" x2="96.1" y2="-90.6" stroke="#999" stroke-width="1.53" stroke-opacity="0.8"/><line x1="104.9" y1="-110.1" x2="110.5" y2="-96.1" stroke="#999" stroke-width="1.53" stroke-opacity="0.8"/><line x1="118.8" y1="-115.6" x2="124.4" y2="-101.7" stroke="#999" stroke-width="1.53" stroke-opacity="0.8"/><line x1="132.8" y1="-121.2" x2="138.4" y2="-107.3" stroke="#999" stroke-width="1.53" stroke-opacity="0.8"/><line x1="146.7" y1="-126.8" x2="152.3" y2="-112.9" stroke="#999" stroke-width="1.53" stroke-opacity="0.8"/><line x1="160.6" y1="-132.4" x2="166.2" y2="-118.5" stroke="#999" stroke-width="1.53" stroke-opacity="0.8"/><line x1="174.5" y1="-138.0" x2="180.1" y2="-124.0" stroke="#999" stroke-width="1.53" stroke-opacity="0.8"/><line x1="188.5" y1="-143.5" x2="194.0" y2="-129.6" stroke="#999" stroke-width="1.53" stroke-opacity="0.8"/><line x1="202.4" y1="-149.1" x2="208.0" y2="-135.2" stroke="#999" stroke-width="1.53" stroke-opacity="0.8"/><line x1="216.3" y1="-154.7" x2="221.9" y2="-140.8" stroke="#999" stroke-width="1.53" stroke-opacity="0.8"/><line x1="230.2" y1="-160.3" x2="235.8" y2="-146.4" stroke="#999" stroke-width="1.53" stroke-opacity="0.8"/><line x1="325.8" y1="-159.0" x2="325.6" y2="-174.0" stroke="#999" stroke-width="1.53" stroke-opacity="0.8"/><line x1="310.8" y1="-158.8" x2="310.6" y2="-173.8" stroke="#999" stroke-width="1.53" stroke-opacity="0.8"/><line x1="295.8" y1="-158.6" x2="295.6" y2="-173.6" stroke="#999" stroke-width="1.53" stroke-opacity="0.8"/><line x1="330.0" y1="-188.5" x2="293.3" y2="-179.9" stroke="#d9534f" stroke-width="1.53" stroke-opacity="0.6"/><line x1="338.7" y1="-200.9" x2="289.9" y2="-185.6" stroke="#d9534f" stroke-width="1.53" stroke-opacity="0.6"/><line x1="350.8" y1="-210.0" x2="285.3" y2="-190.6" stroke="#d9534f" stroke-width="1.53" stroke-opacity="0.6"/><line x1="365.1" y1="-214.9" x2="279.8" y2="-194.5" stroke="#d9534f" stroke-width="1.53" stroke-opacity="0.6"/><line x1="380.2" y1="-215.1" x2="267.1" y2="-198.7" stroke="#d9534f" stroke-width="1.53" stroke-opacity="0.6"/><line x1="394.7" y1="-210.7" x2="260.3" y2="-198.8" stroke="#d9534f" stroke-width="1.53" stroke-opacity="0.6"/><line x1="407.1" y1="-202.0" x2="253.6" y2="-197.5" stroke="#d9534f" stroke-width="1.53" stroke-opacity="0.6"/><line x1="421.0" y1="-175.6" x2="247.4" y2="-194.8" stroke="#d9534f" stroke-width="1.53" stroke-opacity="0.6"/><line x1="421.3" y1="-160.4" x2="241.8" y2="-191.0" stroke="#d9534f" stroke-width="1.53" stroke-opacity="0.6"/><line x1="416.8" y1="-146.0" x2="237.0" y2="-186.1" stroke="#d9534f" stroke-width="1.53" stroke-opacity="0.6"/><line x1="408.1" y1="-133.6" x2="233.4" y2="-180.3" stroke="#d9534f" stroke-width="1.53" stroke-opacity="0.6"/><line x1="396.0" y1="-124.5" x2="231.0" y2="-173.9" stroke="#d9534f" stroke-width="1.53" stroke-opacity="0.6"/><line x1="230.2" y1="-160.3" x2="216.3" y2="-154.7" stroke="#999" stroke-width="1.53" stroke-opacity="0.8"/><line x1="216.3" y1="-154.7" x2="202.4" y2="-149.1" stroke="#999" stroke-width="1.53" stroke-opacity="0.8"/><line x1="202.4" y1="-149.1" x2="188.5" y2="-143.5" stroke="#999" stroke-width="1.53" stroke-opacity="0.8"/><line x1="188.5" y1="-143.5" x2="174.5" y2="-138.0" stroke="#999" stroke-width="1.53" stroke-opacity="0.8"/><line x1="174.5" y1="-138.0" x2="160.6" y2="-132.4" stroke="#999" stroke-width="1.53" stroke-opacity="0.8"/><line x1="160.6" y1="-132.4" x2="146.7" y2="-126.8" stroke="#999" stroke-width="1.53" stroke-opacity="0.8"/><line x1="146.7" y1="-126.8" x2="132.8" y2="-121.2" stroke="#999" stroke-width="1.53" stroke-opacity="0.8"/><line x1="132.8" y1="-121.2" x2="118.8" y2="-115.6" stroke="#999" stroke-width="1.53" stroke-opacity="0.8"/><line x1="118.8" y1="-115.6" x2="104.9" y2="-110.1" stroke="#999" stroke-width="1.53" stroke-opacity="0.8"/><line x1="104.9" y1="-110.1" x2="90.9" y2="-104.7" stroke="#999" stroke-width="1.53" stroke-opacity="0.8"/><line x1="90.9" y1="-104.7" x2="76.8" y2="-99.5" stroke="#999" stroke-width="1.53" stroke-opacity="0.8"/><line x1="76.8" y1="-99.5" x2="62.7" y2="-94.4" stroke="#999" stroke-width="1.53" stroke-opacity="0.8"/><line x1="62.7" y1="-94.4" x2="48.7" y2="-89.2" stroke="#999" stroke-width="1.53" stroke-opacity="0.8"/><line x1="48.7" y1="-89.2" x2="34.6" y2="-84.1" stroke="#999" stroke-width="1.53" stroke-opacity="0.8"/><line x1="34.6" y1="-84.1" x2="20.5" y2="-78.9" stroke="#999" stroke-width="1.53" stroke-opacity="0.8"/><line x1="20.5" y1="-78.9" x2="6.4" y2="-73.8" stroke="#999" stroke-width="1.53" stroke-opacity="0.8"/><line x1="6.4" y1="-73.8" x2="-7.7" y2="-68.6" stroke="#999" stroke-width="1.53" stroke-opacity="0.8"/><line x1="-7.7" y1="-68.6" x2="-21.8" y2="-63.5" stroke="#999" stroke-width="1.53" stroke-opacity="0.8"/><line x1="-21.8" y1="-63.5" x2="-35.9" y2="-58.3" stroke="#999" stroke-width="1.53" stroke-opacity="0.8"/><line x1="-35.9" y1="-58.3" x2="-49.9" y2="-53.1" stroke="#999" stroke-width="1.53" stroke-opacity="0.8"/><line x1="-49.9" y1="-53.1" x2="-64.0" y2="-48.0" stroke="#999" stroke-width="1.53" stroke-opacity="0.8"/><line x1="-64.0" y1="-48.0" x2="-70.2" y2="-60.6" stroke="#999" stroke-width="1.53" stroke-opacity="0.8"/><line x1="-70.2" y1="-60.6" x2="-83.2" y2="-55.4" stroke="#999" stroke-width="1.53" stroke-opacity="0.8"/><line x1="-83.2" y1="-55.4" x2="-78.8" y2="-42.1" stroke="#999" stroke-width="1.53" stroke-opacity="0.8"/><line x1="-78.8" y1="-42.1" x2="-92.6" y2="-36.1" stroke="#999" stroke-width="1.53" stroke-opacity="0.8"/><line x1="-92.6" y1="-36.1" x2="-106.3" y2="-30.1" stroke="#999" stroke-width="1.53" stroke-opacity="0.8"/><line x1="-106.3" y1="-30.1" x2="-120.0" y2="-24.1" stroke="#999" stroke-width="1.53" stroke-opacity="0.8"/><line x1="-120.0" y1="-24.1" x2="-133.8" y2="-18.1" stroke="#999" stroke-width="1.53" stroke-opacity="0.8"/><line x1="-133.8" y1="-18.1" x2="-147.5" y2="-12.1" stroke="#999" stroke-width="1.53" stroke-opacity="0.8"/><line x1="-147.5" y1="-12.1" x2="-161.5" y2="-11.8" stroke="#999" stroke-width="1.53" stroke-opacity="0.8"/><line x1="-161.5" y1="-11.8" x2="-170.7" y2="-1.3" stroke="#999" stroke-width="1.53" stroke-opacity="0.8"/><line x1="-170.7" y1="-1.3" x2="-165.1" y2="11.4" stroke="#999" stroke-width="1.53" stroke-opacity="0.8"/><line x1="-165.1" y1="11.4" x2="-151.2" y2="11.7" stroke="#999" stroke-width="1.53" stroke-opacity="0.8"/><line x1="-151.2" y1="11.7" x2="-141.5" y2="1.7" stroke="#999" stroke-width="1.53" stroke-opacity="0.8"/><line x1="-141.5" y1="1.7" x2="-127.8" y2="-4.3" stroke="#999" stroke-width="1.53" stroke-opacity="0.8"/><line x1="-127.8" y1="-4.3" x2="-114.0" y2="-10.3" stroke="#999" stroke-width="1.53" stroke-opacity="0.8"/><line x1="-114.0" y1="-10.3" x2="-100.3" y2="-16.3" stroke="#999" stroke-width="1.53" stroke-opacity="0.8"/><line x1="-100.3" y1="-16.3" x2="-86.5" y2="-22.3" stroke="#999" stroke-width="1.53" stroke-opacity="0.8"/><line x1="-86.5" y1="-22.3" x2="-72.8" y2="-28.3" stroke="#999" stroke-width="1.53" stroke-opacity="0.8"/><line x1="-72.8" y1="-28.3" x2="-58.9" y2="-33.9" stroke="#999" stroke-width="1.53" stroke-opacity="0.8"/><line x1="-58.9" y1="-33.9" x2="-44.8" y2="-39.1" stroke="#999" stroke-width="1.53" stroke-opacity="0.8"/><line x1="-44.8" y1="-39.1" x2="-30.7" y2="-44.2" stroke="#999" stroke-width="1.53" stroke-opacity="0.8"/><line x1="-30.7" y1="-44.2" x2="-16.6" y2="-49.4" stroke="#999" stroke-width="1.53" stroke-opacity="0.8"/><line x1="-16.6" y1="-49.4" x2="-2.5" y2="-54.5" stroke="#999" stroke-width="1.53" stroke-opacity="0.8"/><line x1="-2.5" y1="-54.5" x2="11.6" y2="-59.7" stroke="#999" stroke-width="1.53" stroke-opacity="0.8"/><line x1="11.6" y1="-59.7" x2="25.6" y2="-64.8" stroke="#999" stroke-width="1.53" stroke-opacity="0.8"/><line x1="25.6" y1="-64.8" x2="39.7" y2="-70.0" stroke="#999" stroke-width="1.53" stroke-opacity="0.8"/><line x1="39.7" y1="-70.0" x2="53.8" y2="-75.1" stroke="#999" stroke-width="1.53" stroke-opacity="0.8"/><line x1="53.8" y1="-75.1" x2="67.9" y2="-80.3" stroke="#999" stroke-width="1.53" stroke-opacity="0.8"/><line x1="67.9" y1="-80.3" x2="82.0" y2="-85.4" stroke="#999" stroke-width="1.53" stroke-opacity="0.8"/><line x1="82.0" y1="-85.4" x2="96.1" y2="-90.6" stroke="#999" stroke-width="1.53" stroke-opacity="0.8"/><line x1="96.1" y1="-90.6" x2="107.4" y2="-82.5" stroke="#999" stroke-width="1.53" stroke-opacity="0.8"/><line x1="107.4" y1="-82.5" x2="110.5" y2="-96.1" stroke="#999" stroke-width="1.53" stroke-opacity="0.8"/><line x1="110.5" y1="-96.1" x2="124.4" y2="-101.7" stroke="#999" stroke-width="1.53" stroke-opacity="0.8"/><line x1="124.4" y1="-101.7" x2="138.4" y2="-107.3" stroke="#999" stroke-width="1.53" stroke-opacity="0.8"/><line x1="138.4" y1="-107.3" x2="152.3" y2="-112.9" stroke="#999" stroke-width="1.53" stroke-opacity="0.8"/><line x1="152.3" y1="-112.9" x2="166.2" y2="-118.5" stroke="#999" stroke-width="1.53" stroke-opacity="0.8"/><line x1="166.2" y1="-118.5" x2="180.1" y2="-124.0" stroke="#999" stroke-width="1.53" stroke-opacity="0.8"/><line x1="180.1" y1="-124.0" x2="194.0" y2="-129.6" stroke="#999" stroke-width="1.53" stroke-opacity="0.8"/><line x1="194.0" y1="-129.6" x2="208.0" y2="-135.2" stroke="#999" stroke-width="1.53" stroke-opacity="0.8"/><line x1="208.0" y1="-135.2" x2="221.9" y2="-140.8" stroke="#999" stroke-width="1.53" stroke-opacity="0.8"/><line x1="221.9" y1="-140.8" x2="235.8" y2="-146.4" stroke="#999" stroke-width="1.53" stroke-opacity="0.8"/><line x1="235.8" y1="-146.4" x2="255.8" y2="-150.3" stroke="#999" stroke-width="1.53" stroke-opacity="0.8"/><line x1="255.8" y1="-150.3" x2="275.8" y2="-154.4" stroke="#999" stroke-width="1.53" stroke-opacity="0.8"/><line x1="275.8" y1="-154.4" x2="295.8" y2="-158.6" stroke="#999" stroke-width="1.53" stroke-opacity="0.8"/><line x1="295.8" y1="-158.6" x2="310.8" y2="-158.8" stroke="#999" stroke-width="1.53" stroke-opacity="0.8"/><line x1="310.8" y1="-158.8" x2="325.8" y2="-159.0" stroke="#999" stroke-width="1.53" stroke-opacity="0.8"/><line x1="325.8" y1="-159.0" x2="332.8" y2="-146.5" stroke="#999" stroke-width="1.53" stroke-opacity="0.8"/><line x1="332.8" y1="-146.5" x2="341.9" y2="-135.3" stroke="#999" stroke-width="1.53" stroke-opacity="0.8"/><line x1="341.9" y1="-135.3" x2="353.7" y2="-127.1" stroke="#999" stroke-width="1.53" stroke-opacity="0.8"/><line x1="353.7" y1="-127.1" x2="367.4" y2="-122.8" stroke="#999" stroke-width="1.53" stroke-opacity="0.8"/><line x1="367.4" y1="-122.8" x2="381.8" y2="-122.4" stroke="#999" stroke-width="1.53" stroke-opacity="0.8"/><line x1="381.8" y1="-122.4" x2="396.0" y2="-124.5" stroke="#999" stroke-width="1.53" stroke-opacity="0.8"/><line x1="396.0" y1="-124.5" x2="408.1" y2="-133.6" stroke="#999" stroke-width="1.53" stroke-opacity="0.8"/><line x1="408.1" y1="-133.6" x2="416.8" y2="-146.0" stroke="#999" stroke-width="1.53" stroke-opacity="0.8"/><line x1="416.8" y1="-146.0" x2="421.3" y2="-160.4" stroke="#999" stroke-width="1.53" stroke-opacity="0.8"/><line x1="421.3" y1="-160.4" x2="421.0" y2="-175.6" stroke="#999" stroke-width="1.53" stroke-opacity="0.8"/><line x1="421.0" y1="-175.6" x2="414.3" y2="-188.9" stroke="#999" stroke-width="1.53" stroke-opacity="0.8"/><line x1="414.3" y1="-188.9" x2="407.1" y2="-202.0" stroke="#999" stroke-width="1.53" stroke-opacity="0.8"/><line x1="407.1" y1="-202.0" x2="394.7" y2="-210.7" stroke="#999" stroke-width="1.53" stroke-opacity="0.8"/><line x1="394.7" y1="-210.7" x2="380.2" y2="-215.1" stroke="#999" stroke-width="1.53" stroke-opacity="0.8"/><line x1="380.2" y1="-215.1" x2="365.1" y2="-214.9" stroke="#999" stroke-width="1.53" stroke-opacity="0.8"/><line x1="365.1" y1="-214.9" x2="350.8" y2="-210.0" stroke="#999" stroke-width="1.53" stroke-opacity="0.8"/><line x1="350.8" y1="-210.0" x2="338.7" y2="-200.9" stroke="#999" stroke-width="1.53" stroke-opacity="0.8"/><line x1="338.7" y1="-200.9" x2="330.0" y2="-188.5" stroke="#999" stroke-width="1.53" stroke-opacity="0.8"/><line x1="330.0" y1="-188.5" x2="325.6" y2="-174.0" stroke="#999" stroke-width="1.53" stroke-opacity="0.8"/><line x1="325.6" y1="-174.0" x2="310.6" y2="-173.8" stroke="#999" stroke-width="1.53" stroke-opacity="0.8"/><line x1="310.6" y1="-173.8" x2="295.6" y2="-173.6" stroke="#999" stroke-width="1.53" stroke-opacity="0.8"/><line x1="295.6" y1="-173.6" x2="293.3" y2="-179.9" stroke="#999" stroke-width="1.53" stroke-opacity="0.8"/><line x1="293.3" y1="-179.9" x2="289.9" y2="-185.6" stroke="#999" stroke-width="1.53" stroke-opacity="0.8"/><line x1="289.9" y1="-185.6" x2="285.3" y2="-190.6" stroke="#999" stroke-width="1.53" stroke-opacity="0.8"/><line x1="285.3" y1="-190.6" x2="279.8" y2="-194.5" stroke="#999" stroke-width="1.53" stroke-opacity="0.8"/><line x1="279.8" y1="-194.5" x2="277.4" y2="-208.6" stroke="#999" stroke-width="1.53" stroke-opacity="0.8"/><line x1="277.4" y1="-208.6" x2="267.1" y2="-198.7" stroke="#999" stroke-width="1.53" stroke-opacity="0.8"/><line x1="267.1" y1="-198.7" x2="260.3" y2="-198.8" stroke="#999" stroke-width="1.53" stroke-opacity="0.8"/><line x1="260.3" y1="-198.8" x2="253.6" y2="-197.5" stroke="#999" stroke-width="1.53" stroke-opacity="0.8"/><line x1="253.6" y1="-197.5" x2="247.4" y2="-194.8" stroke="#999" stroke-width="1.53" stroke-opacity="0.8"/><line x1="247.4" y1="-194.8" x2="241.8" y2="-191.0" stroke="#999" stroke-width="1.53" stroke-opacity="0.8"/><line x1="241.8" y1="-191.0" x2="237.0" y2="-186.1" stroke="#999" stroke-width="1.53" stroke-opacity="0.8"/><line x1="237.0" y1="-186.1" x2="233.4" y2="-180.3" stroke="#999" stroke-width="1.53" stroke-opacity="0.8"/><line x1="233.4" y1="-180.3" x2="231.0" y2="-173.9" stroke="#999" stroke-width="1.53" stroke-opacity="0.8"/><text x="224.0" y="-173.3" text-anchor="middle" font-size="7.2" font-family="Tahoma,Geneva,sans-serif" fill="#999">1</text><text x="98.8" y="-123.1" text-anchor="middle" font-size="7.2" font-family="Tahoma,Geneva,sans-serif" fill="#999">10</text><text x="-41.6" y="-71.5" text-anchor="middle" font-size="7.2" font-family="Tahoma,Geneva,sans-serif" fill="#999">20</text><text x="-151.2" y="-25.8" text-anchor="middle" font-size="7.2" font-family="Tahoma,Geneva,sans-serif" fill="#999">30</text><text x="-66.3" y="-10.4" text-anchor="middle" font-size="7.2" font-family="Tahoma,Geneva,sans-serif" fill="#999">40</text><text x="73.6" y="-62.0" text-anchor="middle" font-size="7.2" font-family="Tahoma,Geneva,sans-serif" fill="#999">50</text><text x="200.3" y="-111.6" text-anchor="middle" font-size="7.2" font-family="Tahoma,Geneva,sans-serif" fill="#999">60</text><text x="330.5" y="-120.5" text-anchor="middle" font-size="7.2" font-family="Tahoma,Geneva,sans-serif" fill="#999">70</text><text x="419.5" y="-210.6" text-anchor="middle" font-size="7.2" font-family="Tahoma,Geneva,sans-serif" fill="#999">80</text><text x="278.2" y="-170.2" text-anchor="middle" font-size="7.2" font-family="Tahoma,Geneva,sans-serif" fill="#999">90</text><text x="223.9" y="-193.9" text-anchor="middle" font-size="7.2" font-family="Tahoma,Geneva,sans-serif" fill="#999">100</text><circle cx="230.2" cy="-160.3" r="4.18" fill="lightgreen" stroke="#ccc" stroke-width="1.53"/><text x="230.2" y="-158.2" text-anchor="middle" font-size="5.2" font-family="Tahoma,Geneva,sans-serif" font-weight="bold" fill="rgb(100,100,100)">U</text><circle cx="216.3" cy="-154.7" r="4.18" fill="lightgreen" stroke="#ccc" stroke-width="1.53"/><text x="216.3" y="-152.6" text-anchor="middle" font-size="5.2" font-family="Tahoma,Geneva,sans-serif" font-weight="bold" fill="rgb(100,100,100)">U</text><circle cx="202.4" cy="-149.1" r="4.18" fill="lightgreen" stroke="#ccc" stroke-width="1.53"/><text x="202.4" y="-147.0" text-anchor="middle" font-size="5.2" font-family="Tahoma,Geneva,sans-serif" font-weight="bold" fill="rgb(100,100,100)">C</text><circle cx="188.5" cy="-143.5" r="4.18" fill="lightgreen" stroke="#ccc" stroke-width="1.53"/><text x="188.5" y="-141.5" text-anchor="middle" font-size="5.2" font-family="Tahoma,Geneva,sans-serif" font-weight="bold" fill="rgb(100,100,100)">A</text><circle cx="174.5" cy="-138.0" r="4.18" fill="lightgreen" stroke="#ccc" stroke-width="1.53"/><text x="174.5" y="-135.9" text-anchor="middle" font-size="5.2" font-family="Tahoma,Geneva,sans-serif" font-weight="bold" fill="rgb(100,100,100)">U</text><circle cx="160.6" cy="-132.4" r="4.18" fill="lightgreen" stroke="#ccc" stroke-width="1.53"/><text x="160.6" y="-130.3" text-anchor="middle" font-size="5.2" font-family="Tahoma,Geneva,sans-serif" font-weight="bold" fill="rgb(100,100,100)">U</text><circle cx="146.7" cy="-126.8" r="4.18" fill="lightgreen" stroke="#ccc" stroke-width="1.53"/><text x="146.7" y="-124.7" text-anchor="middle" font-size="5.2" font-family="Tahoma,Geneva,sans-serif" font-weight="bold" fill="rgb(100,100,100)">A</text><circle cx="132.8" cy="-121.2" r="4.18" fill="lightgreen" stroke="#ccc" stroke-width="1.53"/><text x="132.8" y="-119.1" text-anchor="middle" font-size="5.2" font-family="Tahoma,Geneva,sans-serif" font-weight="bold" fill="rgb(100,100,100)">G</text><circle cx="118.8" cy="-115.6" r="4.18" fill="lightgreen" stroke="#ccc" stroke-width="1.53"/><text x="118.8" y="-113.5" text-anchor="middle" font-size="5.2" font-family="Tahoma,Geneva,sans-serif" font-weight="bold" fill="rgb(100,100,100)">C</text><circle cx="104.9" cy="-110.1" r="4.18" fill="lightgreen" stroke="#ccc" stroke-width="1.53"/><text x="104.9" y="-108.0" text-anchor="middle" font-size="5.2" font-family="Tahoma,Geneva,sans-serif" font-weight="bold" fill="rgb(100,100,100)">A</text><circle cx="90.9" cy="-104.7" r="4.18" fill="lightgreen" stroke="#ccc" stroke-width="1.53"/><text x="90.9" y="-102.6" text-anchor="middle" font-size="5.2" font-family="Tahoma,Geneva,sans-serif" font-weight="bold" fill="rgb(100,100,100)">U</text><circle cx="76.8" cy="-99.5" r="4.18" fill="lightgreen" stroke="#ccc" stroke-width="1.53"/><text x="76.8" y="-97.4" text-anchor="middle" font-size="5.2" font-family="Tahoma,Geneva,sans-serif" font-weight="bold" fill="rgb(100,100,100)">C</text><circle cx="62.7" cy="-94.4" r="4.18" fill="lightgreen" stroke="#ccc" stroke-width="1.53"/><text x="62.7" y="-92.3" text-anchor="middle" font-size="5.2" font-family="Tahoma,Geneva,sans-serif" font-weight="bold" fill="rgb(100,100,100)">A</text><circle cx="48.7" cy="-89.2" r="4.18" fill="lightgreen" stroke="#ccc" stroke-width="1.53"/><text x="48.7" y="-87.1" text-anchor="middle" font-size="5.2" font-family="Tahoma,Geneva,sans-serif" font-weight="bold" fill="rgb(100,100,100)">U</text><circle cx="34.6" cy="-84.1" r="4.18" fill="lightgreen" stroke="#ccc" stroke-width="1.53"/><text x="34.6" y="-82.0" text-anchor="middle" font-size="5.2" font-family="Tahoma,Geneva,sans-serif" font-weight="bold" fill="rgb(100,100,100)">A</text><circle cx="20.5" cy="-78.9" r="4.18" fill="lightgreen" stroke="#ccc" stroke-width="1.53"/><text x="20.5" y="-76.8" text-anchor="middle" font-size="5.2" font-family="Tahoma,Geneva,sans-serif" font-weight="bold" fill="rgb(100,100,100)">A</text><circle cx="6.4" cy="-73.8" r="4.18" fill="lightgreen" stroke="#ccc" stroke-width="1.53"/><text x="6.4" y="-71.7" text-anchor="middle" font-size="5.2" font-family="Tahoma,Geneva,sans-serif" font-weight="bold" fill="rgb(100,100,100)">G</text><circle cx="-7.7" cy="-68.6" r="4.18" fill="lightgreen" stroke="#ccc" stroke-width="1.53"/><text x="-7.7" y="-66.5" text-anchor="middle" font-size="5.2" font-family="Tahoma,Geneva,sans-serif" font-weight="bold" fill="rgb(100,100,100)">G</text><circle cx="-21.8" cy="-63.5" r="4.18" fill="lightgreen" stroke="#ccc" stroke-width="1.53"/><text x="-21.8" y="-61.4" text-anchor="middle" font-size="5.2" font-family="Tahoma,Geneva,sans-serif" font-weight="bold" fill="rgb(100,100,100)">U</text><circle cx="-35.9" cy="-58.3" r="4.18" fill="lightgreen" stroke="#ccc" stroke-width="1.53"/><text x="-35.9" y="-56.2" text-anchor="middle" font-size="5.2" font-family="Tahoma,Geneva,sans-serif" font-weight="bold" fill="rgb(100,100,100)">C</text><circle cx="-49.9" cy="-53.1" r="4.18" fill="lightgreen" stroke="#ccc" stroke-width="1.53"/><text x="-49.9" y="-51.1" text-anchor="middle" font-size="5.2" font-family="Tahoma,Geneva,sans-serif" font-weight="bold" fill="rgb(100,100,100)">C</text><circle cx="-64.0" cy="-48.0" r="4.18" fill="lightgreen" stroke="#ccc" stroke-width="1.53"/><text x="-64.0" y="-45.9" text-anchor="middle" font-size="5.2" font-family="Tahoma,Geneva,sans-serif" font-weight="bold" fill="rgb(100,100,100)">C</text><circle cx="-70.2" cy="-60.6" r="4.18" fill="#dbdb8d" stroke="#ccc" stroke-width="1.53"/><text x="-70.2" y="-58.5" text-anchor="middle" font-size="5.2" font-family="Tahoma,Geneva,sans-serif" font-weight="bold" fill="rgb(100,100,100)">A</text><circle cx="-83.2" cy="-55.4" r="4.18" fill="#dbdb8d" stroke="#ccc" stroke-width="1.53"/><text x="-83.2" y="-53.3" text-anchor="middle" font-size="5.2" font-family="Tahoma,Geneva,sans-serif" font-weight="bold" fill="rgb(100,100,100)">U</text><circle cx="-78.8" cy="-42.1" r="4.18" fill="lightgreen" stroke="#ccc" stroke-width="1.53"/><text x="-78.8" y="-40.0" text-anchor="middle" font-size="5.2" font-family="Tahoma,Geneva,sans-serif" font-weight="bold" fill="rgb(100,100,100)">U</text><circle cx="-92.6" cy="-36.1" r="4.18" fill="lightgreen" stroke="#ccc" stroke-width="1.53"/><text x="-92.6" y="-34.0" text-anchor="middle" font-size="5.2" font-family="Tahoma,Geneva,sans-serif" font-weight="bold" fill="rgb(100,100,100)">G</text><circle cx="-106.3" cy="-30.1" r="4.18" fill="lightgreen" stroke="#ccc" stroke-width="1.53"/><text x="-106.3" y="-28.0" text-anchor="middle" font-size="5.2" font-family="Tahoma,Geneva,sans-serif" font-weight="bold" fill="rgb(100,100,100)">C</text><circle cx="-120.0" cy="-24.1" r="4.18" fill="lightgreen" stroke="#ccc" stroke-width="1.53"/><text x="-120.0" y="-22.0" text-anchor="middle" font-size="5.2" font-family="Tahoma,Geneva,sans-serif" font-weight="bold" fill="rgb(100,100,100)">G</text><circle cx="-133.8" cy="-18.1" r="4.18" fill="lightgreen" stroke="#ccc" stroke-width="1.53"/><text x="-133.8" y="-16.0" text-anchor="middle" font-size="5.2" font-family="Tahoma,Geneva,sans-serif" font-weight="bold" fill="rgb(100,100,100)">C</text><circle cx="-147.5" cy="-12.1" r="4.18" fill="lightgreen" stroke="#ccc" stroke-width="1.53"/><text x="-147.5" y="-10.0" text-anchor="middle" font-size="5.2" font-family="Tahoma,Geneva,sans-serif" font-weight="bold" fill="rgb(100,100,100)">C</text><circle cx="-161.5" cy="-11.8" r="4.18" fill="lightblue" stroke="#ccc" stroke-width="1.53"/><text x="-161.5" y="-9.7" text-anchor="middle" font-size="5.2" font-family="Tahoma,Geneva,sans-serif" font-weight="bold" fill="rgb(100,100,100)">C</text><circle cx="-170.7" cy="-1.3" r="4.18" fill="lightblue" stroke="#ccc" stroke-width="1.53"/><text x="-170.7" y="0.7" text-anchor="middle" font-size="5.2" font-family="Tahoma,Geneva,sans-serif" font-weight="bold" fill="rgb(100,100,100)">G</text><circle cx="-165.1" cy="11.4" r="4.18" fill="lightblue" stroke="#ccc" stroke-width="1.53"/><text x="-165.1" y="13.5" text-anchor="middle" font-size="5.2" font-family="Tahoma,Geneva,sans-serif" font-weight="bold" fill="rgb(100,100,100)">A</text><circle cx="-151.2" cy="11.7" r="4.18" fill="lightblue" stroke="#ccc" stroke-width="1.53"/><text x="-151.2" y="13.8" text-anchor="middle" font-size="5.2" font-family="Tahoma,Geneva,sans-serif" font-weight="bold" fill="rgb(100,100,100)">G</text><circle cx="-141.5" cy="1.7" r="4.18" fill="lightgreen" stroke="#ccc" stroke-width="1.53"/><text x="-141.5" y="3.8" text-anchor="middle" font-size="5.2" font-family="Tahoma,Geneva,sans-serif" font-weight="bold" fill="rgb(100,100,100)">G</text><circle cx="-127.8" cy="-4.3" r="4.18" fill="lightgreen" stroke="#ccc" stroke-width="1.53"/><text x="-127.8" y="-2.2" text-anchor="middle" font-size="5.2" font-family="Tahoma,Geneva,sans-serif" font-weight="bold" fill="rgb(100,100,100)">G</text><circle cx="-114.0" cy="-10.3" r="4.18" fill="lightgreen" stroke="#ccc" stroke-width="1.53"/><text x="-114.0" y="-8.2" text-anchor="middle" font-size="5.2" font-family="Tahoma,Geneva,sans-serif" font-weight="bold" fill="rgb(100,100,100)">U</text><circle cx="-100.3" cy="-16.3" r="4.18" fill="lightgreen" stroke="#ccc" stroke-width="1.53"/><text x="-100.3" y="-14.2" text-anchor="middle" font-size="5.2" font-family="Tahoma,Geneva,sans-serif" font-weight="bold" fill="rgb(100,100,100)">G</text><circle cx="-86.5" cy="-22.3" r="4.18" fill="lightgreen" stroke="#ccc" stroke-width="1.53"/><text x="-86.5" y="-20.2" text-anchor="middle" font-size="5.2" font-family="Tahoma,Geneva,sans-serif" font-weight="bold" fill="rgb(100,100,100)">C</text><circle cx="-72.8" cy="-28.3" r="4.18" fill="lightgreen" stroke="#ccc" stroke-width="1.53"/><text x="-72.8" y="-26.2" text-anchor="middle" font-size="5.2" font-family="Tahoma,Geneva,sans-serif" font-weight="bold" fill="rgb(100,100,100)">A</text><circle cx="-58.9" cy="-33.9" r="4.18" fill="lightgreen" stroke="#ccc" stroke-width="1.53"/><text x="-58.9" y="-31.8" text-anchor="middle" font-size="5.2" font-family="Tahoma,Geneva,sans-serif" font-weight="bold" fill="rgb(100,100,100)">G</text><circle cx="-44.8" cy="-39.1" r="4.18" fill="lightgreen" stroke="#ccc" stroke-width="1.53"/><text x="-44.8" y="-37.0" text-anchor="middle" font-size="5.2" font-family="Tahoma,Geneva,sans-serif" font-weight="bold" fill="rgb(100,100,100)">G</text><circle cx="-30.7" cy="-44.2" r="4.18" fill="lightgreen" stroke="#ccc" stroke-width="1.53"/><text x="-30.7" y="-42.1" text-anchor="middle" font-size="5.2" font-family="Tahoma,Geneva,sans-serif" font-weight="bold" fill="rgb(100,100,100)">G</text><circle cx="-16.6" cy="-49.4" r="4.18" fill="lightgreen" stroke="#ccc" stroke-width="1.53"/><text x="-16.6" y="-47.3" text-anchor="middle" font-size="5.2" font-family="Tahoma,Geneva,sans-serif" font-weight="bold" fill="rgb(100,100,100)">A</text><circle cx="-2.5" cy="-54.5" r="4.18" fill="lightgreen" stroke="#ccc" stroke-width="1.53"/><text x="-2.5" y="-52.4" text-anchor="middle" font-size="5.2" font-family="Tahoma,Geneva,sans-serif" font-weight="bold" fill="rgb(100,100,100)">C</text><circle cx="11.6" cy="-59.7" r="4.18" fill="lightgreen" stroke="#ccc" stroke-width="1.53"/><text x="11.6" y="-57.6" text-anchor="middle" font-size="5.2" font-family="Tahoma,Geneva,sans-serif" font-weight="bold" fill="rgb(100,100,100)">U</text><circle cx="25.6" cy="-64.8" r="4.18" fill="lightgreen" stroke="#ccc" stroke-width="1.53"/><text x="25.6" y="-62.7" text-anchor="middle" font-size="5.2" font-family="Tahoma,Geneva,sans-serif" font-weight="bold" fill="rgb(100,100,100)">U</text><circle cx="39.7" cy="-70.0" r="4.18" fill="lightgreen" stroke="#ccc" stroke-width="1.53"/><text x="39.7" y="-67.9" text-anchor="middle" font-size="5.2" font-family="Tahoma,Geneva,sans-serif" font-weight="bold" fill="rgb(100,100,100)">U</text><circle cx="53.8" cy="-75.1" r="4.18" fill="lightgreen" stroke="#ccc" stroke-width="1.53"/><text x="53.8" y="-73.0" text-anchor="middle" font-size="5.2" font-family="Tahoma,Geneva,sans-serif" font-weight="bold" fill="rgb(100,100,100)">A</text><circle cx="67.9" cy="-80.3" r="4.18" fill="lightgreen" stroke="#ccc" stroke-width="1.53"/><text x="67.9" y="-78.2" text-anchor="middle" font-size="5.2" font-family="Tahoma,Geneva,sans-serif" font-weight="bold" fill="rgb(100,100,100)">U</text><circle cx="82.0" cy="-85.4" r="4.18" fill="lightgreen" stroke="#ccc" stroke-width="1.53"/><text x="82.0" y="-83.4" text-anchor="middle" font-size="5.2" font-family="Tahoma,Geneva,sans-serif" font-weight="bold" fill="rgb(100,100,100)">G</text><circle cx="96.1" cy="-90.6" r="4.18" fill="lightgreen" stroke="#ccc" stroke-width="1.53"/><text x="96.1" y="-88.5" text-anchor="middle" font-size="5.2" font-family="Tahoma,Geneva,sans-serif" font-weight="bold" fill="rgb(100,100,100)">A</text><circle cx="107.4" cy="-82.5" r="4.18" fill="#dbdb8d" stroke="#ccc" stroke-width="1.53"/><text x="107.4" y="-80.4" text-anchor="middle" font-size="5.2" font-family="Tahoma,Geneva,sans-serif" font-weight="bold" fill="rgb(100,100,100)">C</text><circle cx="110.5" cy="-96.1" r="4.18" fill="lightgreen" stroke="#ccc" stroke-width="1.53"/><text x="110.5" y="-94.0" text-anchor="middle" font-size="5.2" font-family="Tahoma,Geneva,sans-serif" font-weight="bold" fill="rgb(100,100,100)">U</text><circle cx="124.4" cy="-101.7" r="4.18" fill="lightgreen" stroke="#ccc" stroke-width="1.53"/><text x="124.4" y="-99.6" text-anchor="middle" font-size="5.2" font-family="Tahoma,Geneva,sans-serif" font-weight="bold" fill="rgb(100,100,100)">G</text><circle cx="138.4" cy="-107.3" r="4.18" fill="lightgreen" stroke="#ccc" stroke-width="1.53"/><text x="138.4" y="-105.2" text-anchor="middle" font-size="5.2" font-family="Tahoma,Geneva,sans-serif" font-weight="bold" fill="rgb(100,100,100)">C</text><circle cx="152.3" cy="-112.9" r="4.18" fill="lightgreen" stroke="#ccc" stroke-width="1.53"/><text x="152.3" y="-110.8" text-anchor="middle" font-size="5.2" font-family="Tahoma,Geneva,sans-serif" font-weight="bold" fill="rgb(100,100,100)">U</text><circle cx="166.2" cy="-118.5" r="4.18" fill="lightgreen" stroke="#ccc" stroke-width="1.53"/><text x="166.2" y="-116.4" text-anchor="middle" font-size="5.2" font-family="Tahoma,Geneva,sans-serif" font-weight="bold" fill="rgb(100,100,100)">A</text><circle cx="180.1" cy="-124.0" r="4.18" fill="lightgreen" stroke="#ccc" stroke-width="1.53"/><text x="180.1" y="-121.9" text-anchor="middle" font-size="5.2" font-family="Tahoma,Geneva,sans-serif" font-weight="bold" fill="rgb(100,100,100)">A</text><circle cx="194.0" cy="-129.6" r="4.18" fill="lightgreen" stroke="#ccc" stroke-width="1.53"/><text x="194.0" y="-127.5" text-anchor="middle" font-size="5.2" font-family="Tahoma,Geneva,sans-serif" font-weight="bold" fill="rgb(100,100,100)">U</text><circle cx="208.0" cy="-135.2" r="4.18" fill="lightgreen" stroke="#ccc" stroke-width="1.53"/><text x="208.0" y="-133.1" text-anchor="middle" font-size="5.2" font-family="Tahoma,Geneva,sans-serif" font-weight="bold" fill="rgb(100,100,100)">G</text><circle cx="221.9" cy="-140.8" r="4.18" fill="lightgreen" stroke="#ccc" stroke-width="1.53"/><text x="221.9" y="-138.7" text-anchor="middle" font-size="5.2" font-family="Tahoma,Geneva,sans-serif" font-weight="bold" fill="rgb(100,100,100)">A</text><circle cx="235.8" cy="-146.4" r="4.18" fill="lightgreen" stroke="#ccc" stroke-width="1.53"/><text x="235.8" y="-144.3" text-anchor="middle" font-size="5.2" font-family="Tahoma,Geneva,sans-serif" font-weight="bold" fill="rgb(100,100,100)">A</text><circle cx="255.8" cy="-150.3" r="4.18" fill="lightsalmon" stroke="#ccc" stroke-width="1.53"/><text x="255.8" y="-148.3" text-anchor="middle" font-size="5.2" font-family="Tahoma,Geneva,sans-serif" font-weight="bold" fill="rgb(100,100,100)">U</text><circle cx="275.8" cy="-154.4" r="4.18" fill="lightsalmon" stroke="#ccc" stroke-width="1.53"/><text x="275.8" y="-152.3" text-anchor="middle" font-size="5.2" font-family="Tahoma,Geneva,sans-serif" font-weight="bold" fill="rgb(100,100,100)">U</text><circle cx="295.8" cy="-158.6" r="4.18" fill="lightgreen" stroke="#ccc" stroke-width="1.53"/><text x="295.8" y="-156.5" text-anchor="middle" font-size="5.2" font-family="Tahoma,Geneva,sans-serif" font-weight="bold" fill="rgb(100,100,100)">U</text><circle cx="310.8" cy="-158.8" r="4.18" fill="lightgreen" stroke="#ccc" stroke-width="1.53"/><text x="310.8" y="-156.7" text-anchor="middle" font-size="5.2" font-family="Tahoma,Geneva,sans-serif" font-weight="bold" fill="rgb(100,100,100)">C</text><circle cx="325.8" cy="-159.0" r="4.18" fill="lightgreen" stroke="#ccc" stroke-width="1.53"/><text x="325.8" y="-156.9" text-anchor="middle" font-size="5.2" font-family="Tahoma,Geneva,sans-serif" font-weight="bold" fill="rgb(100,100,100)">A</text><circle cx="332.8" cy="-146.5" r="4.18" fill="lightblue" stroke="#ccc" stroke-width="1.53"/><text x="332.8" y="-144.4" text-anchor="middle" font-size="5.2" font-family="Tahoma,Geneva,sans-serif" font-weight="bold" fill="rgb(100,100,100)">A</text><circle cx="341.9" cy="-135.3" r="4.18" fill="lightblue" stroke="#ccc" stroke-width="1.53"/><text x="341.9" y="-133.2" text-anchor="middle" font-size="5.2" font-family="Tahoma,Geneva,sans-serif" font-weight="bold" fill="rgb(100,100,100)">A</text><circle cx="353.7" cy="-127.1" r="4.18" fill="lightblue" stroke="#ccc" stroke-width="1.53"/><text x="353.7" y="-125.0" text-anchor="middle" font-size="5.2" font-family="Tahoma,Geneva,sans-serif" font-weight="bold" fill="rgb(100,100,100)">A</text><circle cx="367.4" cy="-122.8" r="4.18" fill="lightblue" stroke="#ccc" stroke-width="1.53"/><text x="367.4" y="-120.7" text-anchor="middle" font-size="5.2" font-family="Tahoma,Geneva,sans-serif" font-weight="bold" fill="rgb(100,100,100)">U</text><circle cx="381.8" cy="-122.4" r="4.18" fill="lightblue" stroke="#ccc" stroke-width="1.53"/><text x="381.8" y="-120.3" text-anchor="middle" font-size="5.2" font-family="Tahoma,Geneva,sans-serif" font-weight="bold" fill="rgb(100,100,100)">U</text><circle cx="396.0" cy="-124.5" r="4.18" fill="lightgreen" stroke="#ccc" stroke-width="1.53"/><text x="396.0" y="-122.4" text-anchor="middle" font-size="5.2" font-family="Tahoma,Geneva,sans-serif" font-weight="bold" fill="rgb(100,100,100)">A</text><circle cx="408.1" cy="-133.6" r="4.18" fill="lightgreen" stroke="#ccc" stroke-width="1.53"/><text x="408.1" y="-131.5" text-anchor="middle" font-size="5.2" font-family="Tahoma,Geneva,sans-serif" font-weight="bold" fill="rgb(100,100,100)">C</text><circle cx="416.8" cy="-146.0" r="4.18" fill="lightgreen" stroke="#ccc" stroke-width="1.53"/><text x="416.8" y="-143.9" text-anchor="middle" font-size="5.2" font-family="Tahoma,Geneva,sans-serif" font-weight="bold" fill="rgb(100,100,100)">A</text><circle cx="421.3" cy="-160.4" r="4.18" fill="lightgreen" stroke="#ccc" stroke-width="1.53"/><text x="421.3" y="-158.3" text-anchor="middle" font-size="5.2" font-family="Tahoma,Geneva,sans-serif" font-weight="bold" fill="rgb(100,100,100)">G</text><circle cx="421.0" cy="-175.6" r="4.18" fill="lightgreen" stroke="#ccc" stroke-width="1.53"/><text x="421.0" y="-173.5" text-anchor="middle" font-size="5.2" font-family="Tahoma,Geneva,sans-serif" font-weight="bold" fill="rgb(100,100,100)">G</text><circle cx="414.3" cy="-188.9" r="4.18" fill="lightblue" stroke="#ccc" stroke-width="1.53"/><text x="414.3" y="-186.8" text-anchor="middle" font-size="5.2" font-family="Tahoma,Geneva,sans-serif" font-weight="bold" fill="rgb(100,100,100)">U</text><circle cx="407.1" cy="-202.0" r="4.18" fill="lightgreen" stroke="#ccc" stroke-width="1.53"/><text x="407.1" y="-199.9" text-anchor="middle" font-size="5.2" font-family="Tahoma,Geneva,sans-serif" font-weight="bold" fill="rgb(100,100,100)">A</text><circle cx="394.7" cy="-210.7" r="4.18" fill="lightgreen" stroke="#ccc" stroke-width="1.53"/><text x="394.7" y="-208.6" text-anchor="middle" font-size="5.2" font-family="Tahoma,Geneva,sans-serif" font-weight="bold" fill="rgb(100,100,100)">C</text><circle cx="380.2" cy="-215.1" r="4.18" fill="lightgreen" stroke="#ccc" stroke-width="1.53"/><text x="380.2" y="-213.0" text-anchor="middle" font-size="5.2" font-family="Tahoma,Geneva,sans-serif" font-weight="bold" fill="rgb(100,100,100)">G</text><circle cx="365.1" cy="-214.9" r="4.18" fill="lightgreen" stroke="#ccc" stroke-width="1.53"/><text x="365.1" y="-212.8" text-anchor="middle" font-size="5.2" font-family="Tahoma,Geneva,sans-serif" font-weight="bold" fill="rgb(100,100,100)">C</text><circle cx="350.8" cy="-210.0" r="4.18" fill="lightgreen" stroke="#ccc" stroke-width="1.53"/><text x="350.8" y="-207.9" text-anchor="middle" font-size="5.2" font-family="Tahoma,Geneva,sans-serif" font-weight="bold" fill="rgb(100,100,100)">G</text><circle cx="338.7" cy="-200.9" r="4.18" fill="lightgreen" stroke="#ccc" stroke-width="1.53"/><text x="338.7" y="-198.8" text-anchor="middle" font-size="5.2" font-family="Tahoma,Geneva,sans-serif" font-weight="bold" fill="rgb(100,100,100)">G</text><circle cx="330.0" cy="-188.5" r="4.18" fill="lightgreen" stroke="#ccc" stroke-width="1.53"/><text x="330.0" y="-186.4" text-anchor="middle" font-size="5.2" font-family="Tahoma,Geneva,sans-serif" font-weight="bold" fill="rgb(100,100,100)">A</text><circle cx="325.6" cy="-174.0" r="4.18" fill="lightgreen" stroke="#ccc" stroke-width="1.53"/><text x="325.6" y="-171.9" text-anchor="middle" font-size="5.2" font-family="Tahoma,Geneva,sans-serif" font-weight="bold" fill="rgb(100,100,100)">U</text><circle cx="310.6" cy="-173.8" r="4.18" fill="lightgreen" stroke="#ccc" stroke-width="1.53"/><text x="310.6" y="-171.7" text-anchor="middle" font-size="5.2" font-family="Tahoma,Geneva,sans-serif" font-weight="bold" fill="rgb(100,100,100)">G</text><circle cx="295.6" cy="-173.6" r="4.18" fill="lightgreen" stroke="#ccc" stroke-width="1.53"/><text x="295.6" y="-171.5" text-anchor="middle" font-size="5.2" font-family="Tahoma,Geneva,sans-serif" font-weight="bold" fill="rgb(100,100,100)">G</text><circle cx="293.3" cy="-179.9" r="4.18" fill="lightgreen" stroke="#ccc" stroke-width="1.53"/><text x="293.3" y="-177.8" text-anchor="middle" font-size="5.2" font-family="Tahoma,Geneva,sans-serif" font-weight="bold" fill="rgb(100,100,100)">U</text><circle cx="289.9" cy="-185.6" r="4.18" fill="lightgreen" stroke="#ccc" stroke-width="1.53"/><text x="289.9" y="-183.6" text-anchor="middle" font-size="5.2" font-family="Tahoma,Geneva,sans-serif" font-weight="bold" fill="rgb(100,100,100)">C</text><circle cx="285.3" cy="-190.6" r="4.18" fill="lightgreen" stroke="#ccc" stroke-width="1.53"/><text x="285.3" y="-188.5" text-anchor="middle" font-size="5.2" font-family="Tahoma,Geneva,sans-serif" font-weight="bold" fill="rgb(100,100,100)">C</text><circle cx="279.8" cy="-194.5" r="4.18" fill="lightgreen" stroke="#ccc" stroke-width="1.53"/><text x="279.8" y="-192.4" text-anchor="middle" font-size="5.2" font-family="Tahoma,Geneva,sans-serif" font-weight="bold" fill="rgb(100,100,100)">G</text><circle cx="277.4" cy="-208.6" r="4.18" fill="lightsalmon" stroke="#ccc" stroke-width="1.53"/><text x="277.4" y="-206.5" text-anchor="middle" font-size="5.2" font-family="Tahoma,Geneva,sans-serif" font-weight="bold" fill="rgb(100,100,100)">U</text><circle cx="267.1" cy="-198.7" r="4.18" fill="lightgreen" stroke="#ccc" stroke-width="1.53"/><text x="267.1" y="-196.6" text-anchor="middle" font-size="5.2" font-family="Tahoma,Geneva,sans-serif" font-weight="bold" fill="rgb(100,100,100)">C</text><circle cx="260.3" cy="-198.8" r="4.18" fill="lightgreen" stroke="#ccc" stroke-width="1.53"/><text x="260.3" y="-196.7" text-anchor="middle" font-size="5.2" font-family="Tahoma,Geneva,sans-serif" font-weight="bold" fill="rgb(100,100,100)">G</text><circle cx="253.6" cy="-197.5" r="4.18" fill="lightgreen" stroke="#ccc" stroke-width="1.53"/><text x="253.6" y="-195.4" text-anchor="middle" font-size="5.2" font-family="Tahoma,Geneva,sans-serif" font-weight="bold" fill="rgb(100,100,100)">U</text><circle cx="247.4" cy="-194.8" r="4.18" fill="lightgreen" stroke="#ccc" stroke-width="1.53"/><text x="247.4" y="-192.7" text-anchor="middle" font-size="5.2" font-family="Tahoma,Geneva,sans-serif" font-weight="bold" fill="rgb(100,100,100)">C</text><circle cx="241.8" cy="-191.0" r="4.18" fill="lightgreen" stroke="#ccc" stroke-width="1.53"/><text x="241.8" y="-188.9" text-anchor="middle" font-size="5.2" font-family="Tahoma,Geneva,sans-serif" font-weight="bold" fill="rgb(100,100,100)">C</text><circle cx="237.0" cy="-186.1" r="4.18" fill="lightgreen" stroke="#ccc" stroke-width="1.53"/><text x="237.0" y="-184.0" text-anchor="middle" font-size="5.2" font-family="Tahoma,Geneva,sans-serif" font-weight="bold" fill="rgb(100,100,100)">U</text><circle cx="233.4" cy="-180.3" r="4.18" fill="lightgreen" stroke="#ccc" stroke-width="1.53"/><text x="233.4" y="-178.2" text-anchor="middle" font-size="5.2" font-family="Tahoma,Geneva,sans-serif" font-weight="bold" fill="rgb(100,100,100)">G</text><circle cx="231.0" cy="-173.9" r="4.18" fill="lightgreen" stroke="#ccc" stroke-width="1.53"/><text x="231.0" y="-171.8" text-anchor="middle" font-size="5.2" font-family="Tahoma,Geneva,sans-serif" font-weight="bold" fill="rgb(100,100,100)">U</text></svg>