<svg xmlns="http://www.w3.org/2000/svg" viewBox="-301.6 -216.1 735.2 302.8" width="735" height="303"><style></style><line x1="-229.7" y1="17.5" x2="-224.1" y2="31.4" stroke="#999" stroke-width="1.66" stroke-opacity="0.8"/><line x1="-215.8" y1="11.9" x2="-210.2" y2="25.8" stroke="#999" stroke-width="1.66" stroke-opacity="0.8"/><line x1="-201.9" y1="6.3" x2="-196.3" y2="20.2" stroke="#999" stroke-width="1.66" stroke-opacity="0.8"/><line x1="-168.0" y1="-7.5" x2="-162.3" y2="6.4" stroke="#999" stroke-width="1.66" stroke-opacity="0.8"/><line x1="-154.1" y1="-13.2" x2="-148.4" y2="0.7" stroke="#999" stroke-width="1.66" stroke-opacity="0.8"/><line x1="-140.2" y1="-18.8" x2="-134.5" y2="-4.9" stroke="#999" stroke-width="1.66" stroke-opacity="0.8"/><line x1="-126.3" y1="-24.4" x2="-120.6" y2="-10.5" stroke="#999" stroke-width="1.66" stroke-opacity="0.8"/><line x1="-112.4" y1="-30.1" x2="-106.7" y2="-16.2" stroke="#999" stroke-width="1.66" stroke-opacity="0.8"/><line x1="-98.5" y1="-35.7" x2="-92.8" y2="-21.8" stroke="#999" stroke-width="1.66" stroke-opacity="0.8"/><line x1="-84.6" y1="-41.3" x2="-78.9" y2="-27.4" stroke="#999" stroke-width="1.66" stroke-opacity="0.8"/><line x1="-70.7" y1="-47.0" x2="-65.0" y2="-33.1" stroke="#999" stroke-width="1.66" stroke-opacity="0.8"/><line x1="-56.8" y1="-52.6" x2="-51.1" y2="-38.7" stroke="#999" stroke-width="1.66" stroke-opacity="0.8"/><line x1="-42.9" y1="-58.3" x2="-37.2" y2="-44.4" stroke="#999" stroke-width="1.66" stroke-opacity="0.8"/><line x1="-0.8" y1="-73.8" x2="4.0" y2="-59.6" stroke="#999" stroke-width="1.66" stroke-opacity="0.8"/><line x1="13.4" y1="-78.7" x2="18.2" y2="-64.4" stroke="#999" stroke-width="1.66" stroke-opacity="0.8"/><line x1="27.6" y1="-83.5" x2="32.4" y2="-69.2" stroke="#999" stroke-width="1.66" stroke-opacity="0.8"/><line x1="41.9" y1="-88.3" x2="46.7" y2="-74.0" stroke="#999" stroke-width="1.66" stroke-opacity="0.8"/><line x1="56.1" y1="-93.1" x2="60.9" y2="-78.9" stroke="#999" stroke-width="1.66" stroke-opacity="0.8"/><line x1="-257.4" y1="52.7" x2="86.9" y2="-57.5" stroke="#d9534f" stroke-width="1.66" stroke-opacity="0.6"/><line x1="-267.9" y1="41.1" x2="103.9" y2="-55.7" stroke="#d9534f" stroke-width="1.66" stroke-opacity="0.6"/><line x1="-268.5" y1="25.5" x2="120.4" y2="-60.5" stroke="#d9534f" stroke-width="1.66" stroke-opacity="0.6"/><line x1="-258.8" y1="13.2" x2="133.8" y2="-71.1" stroke="#d9534f" stroke-width="1.66" stroke-opacity="0.6"/><line x1="-243.5" y1="10.1" x2="142.2" y2="-86.0" stroke="#d9534f" stroke-width="1.66" stroke-opacity="0.6"/><line x1="374.3" y1="-158.6" x2="370.8" y2="-173.1" stroke="#999" stroke-width="1.66" stroke-opacity="0.8"/><line x1="359.7" y1="-155.0" x2="356.2" y2="-169.6" stroke="#999" stroke-width="1.66" stroke-opacity="0.8"/><line x1="345.1" y1="-151.5" x2="341.6" y2="-166.1" stroke="#999" stroke-width="1.66" stroke-opacity="0.8"/><line x1="330.5" y1="-148.0" x2="327.0" y2="-162.6" stroke="#999" stroke-width="1.66" stroke-opacity="0.8"/><line x1="316.0" y1="-144.5" x2="312.4" y2="-159.1" stroke="#999" stroke-width="1.66" stroke-opacity="0.8"/><line x1="301.4" y1="-140.9" x2="297.9" y2="-155.5" stroke="#999" stroke-width="1.66" stroke-opacity="0.8"/><line x1="286.8" y1="-137.4" x2="283.3" y2="-152.0" stroke="#999" stroke-width="1.66" stroke-opacity="0.8"/><line x1="272.2" y1="-133.9" x2="268.7" y2="-148.5" stroke="#999" stroke-width="1.66" stroke-opacity="0.8"/><line x1="246.4" y1="-127.7" x2="242.9" y2="-142.3" stroke="#999" stroke-width="1.66" stroke-opacity="0.8"/><line x1="231.9" y1="-124.1" x2="228.3" y2="-138.7" stroke="#999" stroke-width="1.66" stroke-opacity="0.8"/><line x1="217.3" y1="-120.6" x2="213.8" y2="-135.2" stroke="#999" stroke-width="1.66" stroke-opacity="0.8"/><line x1="202.7" y1="-117.1" x2="199.2" y2="-131.7" stroke="#999" stroke-width="1.66" stroke-opacity="0.8"/><line x1="188.1" y1="-113.6" x2="184.6" y2="-128.2" stroke="#999" stroke-width="1.66" stroke-opacity="0.8"/><line x1="173.5" y1="-110.1" x2="170.0" y2="-124.6" stroke="#999" stroke-width="1.66" stroke-opacity="0.8"/><line x1="159.0" y1="-106.5" x2="155.4" y2="-121.1" stroke="#999" stroke-width="1.66" stroke-opacity="0.8"/><line x1="144.4" y1="-103.0" x2="140.9" y2="-117.6" stroke="#999" stroke-width="1.66" stroke-opacity="0.8"/><line x1="90.4" y1="-160.0" x2="81.7" y2="-145.7" stroke="#999" stroke-width="1.66" stroke-opacity="0.8"/><line x1="81.7" y1="-145.7" x2="70.0" y2="-134.3" stroke="#999" stroke-width="1.66" stroke-opacity="0.8"/><line x1="70.0" y1="-134.3" x2="59.5" y2="-122.4" stroke="#999" stroke-width="1.66" stroke-opacity="0.8"/><line x1="59.5" y1="-122.4" x2="53.3" y2="-108.2" stroke="#999" stroke-width="1.66" stroke-opacity="0.8"/><line x1="53.3" y1="-108.2" x2="56.1" y2="-93.1" stroke="#999" stroke-width="1.66" stroke-opacity="0.8"/><line x1="56.1" y1="-93.1" x2="41.9" y2="-88.3" stroke="#999" stroke-width="1.66" stroke-opacity="0.8"/><line x1="41.9" y1="-88.3" x2="27.6" y2="-83.5" stroke="#999" stroke-width="1.66" stroke-opacity="0.8"/><line x1="27.6" y1="-83.5" x2="13.4" y2="-78.7" stroke="#999" stroke-width="1.66" stroke-opacity="0.8"/><line x1="13.4" y1="-78.7" x2="-0.8" y2="-73.8" stroke="#999" stroke-width="1.66" stroke-opacity="0.8"/><line x1="-0.8" y1="-73.8" x2="-7.0" y2="-87.6" stroke="#999" stroke-width="1.66" stroke-opacity="0.8"/><line x1="-7.0" y1="-87.6" x2="-22.0" y2="-87.7" stroke="#999" stroke-width="1.66" stroke-opacity="0.8"/><line x1="-22.0" y1="-87.7" x2="-36.0" y2="-82.3" stroke="#999" stroke-width="1.66" stroke-opacity="0.8"/><line x1="-36.0" y1="-82.3" x2="-47.5" y2="-72.7" stroke="#999" stroke-width="1.66" stroke-opacity="0.8"/><line x1="-47.5" y1="-72.7" x2="-42.9" y2="-58.3" stroke="#999" stroke-width="1.66" stroke-opacity="0.8"/><line x1="-42.9" y1="-58.3" x2="-56.8" y2="-52.6" stroke="#999" stroke-width="1.66" stroke-opacity="0.8"/><line x1="-56.8" y1="-52.6" x2="-70.7" y2="-47.0" stroke="#999" stroke-width="1.66" stroke-opacity="0.8"/><line x1="-70.7" y1="-47.0" x2="-84.6" y2="-41.3" stroke="#999" stroke-width="1.66" stroke-opacity="0.8"/><line x1="-84.6" y1="-41.3" x2="-98.5" y2="-35.7" stroke="#999" stroke-width="1.66" stroke-opacity="0.8"/><line x1="-98.5" y1="-35.7" x2="-112.4" y2="-30.1" stroke="#999" stroke-width="1.66" stroke-opacity="0.8"/><line x1="-112.4" y1="-30.1" x2="-126.3" y2="-24.4" stroke="#999" stroke-width="1.66" stroke-opacity="0.8"/><line x1="-126.3" y1="-24.4" x2="-140.2" y2="-18.8" stroke="#999" stroke-width="1.66" stroke-opacity="0.8"/><line x1="-140.2" y1="-18.8" x2="-154.1" y2="-13.2" stroke="#999" stroke-width="1.66" stroke-opacity="0.8"/><line x1="-154.1" y1="-13.2" x2="-168.0" y2="-7.5" stroke="#999" stroke-width="1.66" stroke-opacity="0.8"/><line x1="-168.0" y1="-7.5" x2="-182.0" y2="-13.0" stroke="#999" stroke-width="1.66" stroke-opacity="0.8"/><line x1="-182.0" y1="-13.0" x2="-196.1" y2="-7.6" stroke="#999" stroke-width="1.66" stroke-opacity="0.8"/><line x1="-196.1" y1="-7.6" x2="-201.9" y2="6.3" stroke="#999" stroke-width="1.66" stroke-opacity="0.8"/><line x1="-201.9" y1="6.3" x2="-215.8" y2="11.9" stroke="#999" stroke-width="1.66" stroke-opacity="0.8"/><line x1="-215.8" y1="11.9" x2="-229.7" y2="17.5" stroke="#999" stroke-width="1.66" stroke-opacity="0.8"/><line x1="-229.7" y1="17.5" x2="-243.5" y2="10.1" stroke="#999" stroke-width="1.66" stroke-opacity="0.8"/><line x1="-243.5" y1="10.1" x2="-258.8" y2="13.2" stroke="#999" stroke-width="1.66" stroke-opacity="0.8"/><line x1="-258.8" y1="13.2" x2="-268.5" y2="25.5" stroke="#999" stroke-width="1.66" stroke-opacity="0.8"/><line x1="-268.5" y1="25.5" x2="-267.9" y2="41.1" stroke="#999" stroke-width="1.66" stroke-opacity="0.8"/><line x1="-267.9" y1="41.1" x2="-257.4" y2="52.7" stroke="#999" stroke-width="1.66" stroke-opacity="0.8"/><line x1="-257.4" y1="52.7" x2="-242.4" y2="53.6" stroke="#999" stroke-width="1.66" stroke-opacity="0.8"/><line x1="-242.4" y1="53.6" x2="-229.7" y2="45.5" stroke="#999" stroke-width="1.66" stroke-opacity="0.8"/><line x1="-229.7" y1="45.5" x2="-224.1" y2="31.4" stroke="#999" stroke-width="1.66" stroke-opacity="0.8"/><line x1="-224.1" y1="31.4" x2="-210.2" y2="25.8" stroke="#999" stroke-width="1.66" stroke-opacity="0.8"/><line x1="-210.2" y1="25.8" x2="-196.3" y2="20.2" stroke="#999" stroke-width="1.66" stroke-opacity="0.8"/><line x1="-196.3" y1="20.2" x2="-182.4" y2="26.0" stroke="#999" stroke-width="1.66" stroke-opacity="0.8"/><line x1="-182.4" y1="26.0" x2="-168.6" y2="20.1" stroke="#999" stroke-width="1.66" stroke-opacity="0.8"/><line x1="-168.6" y1="20.1" x2="-162.3" y2="6.4" stroke="#999" stroke-width="1.66" stroke-opacity="0.8"/><line x1="-162.3" y1="6.4" x2="-148.4" y2="0.7" stroke="#999" stroke-width="1.66" stroke-opacity="0.8"/><line x1="-148.4" y1="0.7" x2="-134.5" y2="-4.9" stroke="#999" stroke-width="1.66" stroke-opacity="0.8"/><line x1="-134.5" y1="-4.9" x2="-120.6" y2="-10.5" stroke="#999" stroke-width="1.66" stroke-opacity="0.8"/><line x1="-120.6" y1="-10.5" x2="-106.7" y2="-16.2" stroke="#999" stroke-width="1.66" stroke-opacity="0.8"/><line x1="-106.7" y1="-16.2" x2="-92.8" y2="-21.8" stroke="#999" stroke-width="1.66" stroke-opacity="0.8"/><line x1="-92.8" y1="-21.8" x2="-78.9" y2="-27.4" stroke="#999" stroke-width="1.66" stroke-opacity="0.8"/><line x1="-78.9" y1="-27.4" x2="-65.0" y2="-33.1" stroke="#999" stroke-width="1.66" stroke-opacity="0.8"/><line x1="-65.0" y1="-33.1" x2="-51.1" y2="-38.7" stroke="#999" stroke-width="1.66" stroke-opacity="0.8"/><line x1="-51.1" y1="-38.7" x2="-37.2" y2="-44.4" stroke="#999" stroke-width="1.66" stroke-opacity="0.8"/><line x1="-37.2" y1="-44.4" x2="-21.9" y2="-44.2" stroke="#999" stroke-width="1.66" stroke-opacity="0.8"/><line x1="-21.9" y1="-44.2" x2="-7.5" y2="-49.6" stroke="#999" stroke-width="1.66" stroke-opacity="0.8"/><line x1="-7.5" y1="-49.6" x2="4.0" y2="-59.6" stroke="#999" stroke-width="1.66" stroke-opacity="0.8"/><line x1="4.0" y1="-59.6" x2="18.2" y2="-64.4" stroke="#999" stroke-width="1.66" stroke-opacity="0.8"/><line x1="18.2" y1="-64.4" x2="32.4" y2="-69.2" stroke="#999" stroke-width="1.66" stroke-opacity="0.8"/><line x1="32.4" y1="-69.2" x2="46.7" y2="-74.0" stroke="#999" stroke-width="1.66" stroke-opacity="0.8"/><line x1="46.7" y1="-74.0" x2="60.9" y2="-78.9" stroke="#999" stroke-width="1.66" stroke-opacity="0.8"/><line x1="60.9" y1="-78.9" x2="73.8" y2="-68.1" stroke="#999" stroke-width="1.66" stroke-opacity="0.8"/><line x1="73.8" y1="-68.1" x2="86.9" y2="-57.5" stroke="#999" stroke-width="1.66" stroke-opacity="0.8"/><line x1="86.9" y1="-57.5" x2="103.9" y2="-55.7" stroke="#999" stroke-width="1.66" stroke-opacity="0.8"/><line x1="103.9" y1="-55.7" x2="120.4" y2="-60.5" stroke="#999" stroke-width="1.66" stroke-opacity="0.8"/><line x1="120.4" y1="-60.5" x2="133.8" y2="-71.1" stroke="#999" stroke-width="1.66" stroke-opacity="0.8"/><line x1="133.8" y1="-71.1" x2="142.2" y2="-86.0" stroke="#999" stroke-width="1.66" stroke-opacity="0.8"/><line x1="142.2" y1="-86.0" x2="144.4" y2="-103.0" stroke="#999" stroke-width="1.66" stroke-opacity="0.8"/><line x1="144.4" y1="-103.0" x2="159.0" y2="-106.5" stroke="#999" stroke-width="1.66" stroke-opacity="0.8"/><line x1="159.0" y1="-106.5" x2="173.5" y2="-110.1" stroke="#999" stroke-width="1.66" stroke-opacity="0.8"/><line x1="173.5" y1="-110.1" x2="188.1" y2="-113.6" stroke="#999" stroke-width="1.66" stroke-opacity="0.8"/><line x1="188.1" y1="-113.6" x2="202.7" y2="-117.1" stroke="#999" stroke-width="1.66" stroke-opacity="0.8"/><line x1="202.7" y1="-117.1" x2="217.3" y2="-120.6" stroke="#999" stroke-width="1.66" stroke-opacity="0.8"/><line x1="217.3" y1="-120.6" x2="231.9" y2="-124.1" stroke="#999" stroke-width="1.66" stroke-opacity="0.8"/><line x1="231.9" y1="-124.1" x2="246.4" y2="-127.7" stroke="#999" stroke-width="1.66" stroke-opacity="0.8"/><line x1="246.4" y1="-127.7" x2="261.0" y2="-123.8" stroke="#999" stroke-width="1.66" stroke-opacity="0.8"/><line x1="261.0" y1="-123.8" x2="272.2" y2="-133.9" stroke="#999" stroke-width="1.66" stroke-opacity="0.8"/><line x1="272.2" y1="-133.9" x2="286.8" y2="-137.4" stroke="#999" stroke-width="1.66" stroke-opacity="0.8"/><line x1="286.8" y1="-137.4" x2="301.4" y2="-140.9" stroke="#999" stroke-width="1.66" stroke-opacity="0.8"/><line x1="301.4" y1="-140.9" x2="316.0" y2="-144.5" stroke="#999" stroke-width="1.66" stroke-opacity="0.8"/><line x1="316.0" y1="-144.5" x2="330.5" y2="-148.0" stroke="#999" stroke-width="1.66" stroke-opacity="0.8"/><line x1="330.5" y1="-148.0" x2="345.1" y2="-151.5" stroke="#999" stroke-width="1.66" stroke-opacity="0.8"/><line x1="345.1" y1="-151.5" x2="359.7" y2="-155.0" stroke="#999" stroke-width="1.66" stroke-opacity="0.8"/><line x1="359.7" y1="-155.0" x2="374.3" y2="-158.6" stroke="#999" stroke-width="1.66" stroke-opacity="0.8"/><line x1="374.3" y1="-158.6" x2="388.9" y2="-155.1" stroke="#999" stroke-width="1.66" stroke-opacity="0.8"/><line x1="388.9" y1="-155.1" x2="400.4" y2="-164.8" stroke="#999" stroke-width="1.66" stroke-opacity="0.8"/><line x1="400.4" y1="-164.8" x2="396.9" y2="-179.5" stroke="#999" stroke-width="1.66" stroke-opacity="0.8"/><line x1="396.9" y1="-179.5" x2="382.2" y2="-183.0" stroke="#999" stroke-width="1.66" stroke-opacity="0.8"/><line x1="382.2" y1="-183.0" x2="370.8" y2="-173.1" stroke="#999" stroke-width="1.66" stroke-opacity="0.8"/><line x1="370.8" y1="-173.1" x2="356.2" y2="-169.6" stroke="#999" stroke-width="1.66" stroke-opacity="0.8"/><line x1="356.2" y1="-169.6" x2="341.6" y2="-166.1" stroke="#999" stroke-width="1.66" stroke-opacity="0.8"/><line x1="341.6" y1="-166.1" x2="327.0" y2="-162.6" stroke="#999" stroke-width="1.66" stroke-opacity="0.8"/><line x1="327.0" y1="-162.6" x2="312.4" y2="-159.1" stroke="#999" stroke-width="1.66" stroke-opacity="0.8"/><line x1="312.4" y1="-159.1" x2="297.9" y2="-155.5" stroke="#999" stroke-width="1.66" stroke-opacity="0.8"/><line x1="297.9" y1="-155.5" x2="283.3" y2="-152.0" stroke="#999" stroke-width="1.66" stroke-opacity="0.8"/><line x1="283.3" y1="-152.0" x2="268.7" y2="-148.5" stroke="#999" stroke-width="1.66" stroke-opacity="0.8"/><line x1="268.7" y1="-148.5" x2="254.1" y2="-152.3" stroke="#999" stroke-width="1.66" stroke-opacity="0.8"/><line x1="254.1" y1="-152.3" x2="242.9" y2="-142.3" stroke="#999" stroke-width="1.66" stroke-opacity="0.8"/><line x1="242.9" y1="-142.3" x2="228.3" y2="-138.7" stroke="#999" stroke-width="1.66" stroke-opacity="0.8"/><line x1="228.3" y1="-138.7" x2="213.8" y2="-135.2" stroke="#999" stroke-width="1.66" stroke-opacity="0.8"/><line x1="213.8" y1="-135.2" x2="199.2" y2="-131.7" stroke="#999" stroke-width="1.66" stroke-opacity="0.8"/><line x1="199.2" y1="-131.7" x2="184.6" y2="-128.2" stroke="#999" stroke-width="1.66" stroke-opacity="0.8"/><line x1="184.6" y1="-128.2" x2="170.0" y2="-124.6" stroke="#999" stroke-width="1.66" stroke-opacity="0.8"/><line x1="170.0" y1="-124.6" x2="155.4" y2="-121.1" stroke="#999" stroke-width="1.66" stroke-opacity="0.8"/><line x1="155.4" y1="-121.1" x2="140.9" y2="-117.6" stroke="#999" stroke-width="1.66" stroke-opacity="0.8"/><line x1="140.9" y1="-117.6" x2="131.4" y2="-131.1" stroke="#999" stroke-width="1.66" stroke-opacity="0.8"/><line x1="131.4" y1="-131.1" x2="120.4" y2="-143.6" stroke="#999" stroke-width="1.66" stroke-opacity="0.8"/><line x1="120.4" y1="-143.6" x2="111.2" y2="-157.9" stroke="#999" stroke-width="1.66" stroke-opacity="0.8"/><text x="74.9" y="-166.7" text-anchor="middle" font-size="7.8" font-family="Tahoma,Geneva,sans-serif" fill="#999">1</text><text x="6.5" y="-87.7" text-anchor="middle" font-size="7.8" font-family="Tahoma,Geneva,sans-serif" fill="#999">10</text><text x="-119.2" y="-44.1" text-anchor="middle" font-size="7.8" font-family="Tahoma,Geneva,sans-serif" fill="#999">20</text><text x="-246.1" y="30.7" text-anchor="middle" font-size="7.8" font-family="Tahoma,Geneva,sans-serif" fill="#999">30</text><text x="-182.4" y="46.9" text-anchor="middle" font-size="7.8" font-family="Tahoma,Geneva,sans-serif" fill="#999">40</text><text x="-44.3" y="-19.2" text-anchor="middle" font-size="7.8" font-family="Tahoma,Geneva,sans-serif" fill="#999">50</text><text x="93.7" y="-71.5" text-anchor="middle" font-size="7.8" font-family="Tahoma,Geneva,sans-serif" fill="#999">60</text><text x="221.5" y="-100.3" text-anchor="middle" font-size="7.8" font-family="Tahoma,Geneva,sans-serif" fill="#999">70</text><text x="364.0" y="-134.7" text-anchor="middle" font-size="7.8" font-family="Tahoma,Geneva,sans-serif" fill="#999">80</text><text x="308.2" y="-173.9" text-anchor="middle" font-size="7.8" font-family="Tahoma,Geneva,sans-serif" fill="#999">90</text><text x="165.8" y="-139.5" text-anchor="middle" font-size="7.8" font-family="Tahoma,Geneva,sans-serif" fill="#999">100</text><circle cx="90.4" cy="-160.0" r="4.52" fill="lightsalmon" stroke="#ccc" stroke-width="1.66"/><text x="90.4" y="-157.8" text-anchor="middle" font-size="5.7" font-family="Tahoma,Geneva,sans-serif" font-weight="bold" fill="rgb(100,100,100)">G</text><circle cx="81.7" cy="-145.7" r="4.52" fill="lightsalmon" stroke="#ccc" stroke-width="1.66"/><text x="81.7" y="-143.4" text-anchor="middle" font-size="5.7" font-family="Tahoma,Geneva,sans-serif" font-weight="bold" fill="rgb(100,100,100)">U</text><circle cx="70.0" cy="-134.3" r="4.52" fill="lightsalmon" stroke="#ccc" stroke-width="1.66"/><text x="70.0" y="-132.1" text-anchor="middle" font-size="5.7" font-family="Tahoma,Geneva,sans-serif" font-weight="bold" fill="rgb(100,100,100)">U</text><circle cx="59.5" cy="-122.4" r="4.52" fill="lightsalmon" stroke="#ccc" stroke-width="1.66"/><text x="59.5" y="-120.2" text-anchor="middle" font-size="5.7" font-family="Tahoma,Geneva,sans-serif" font-weight="bold" fill="rgb(100,100,100)">A</text><circle cx="53.3" cy="-108.2" r="4.52" fill="lightsalmon" stroke="#ccc" stroke-width="1.66"/><text x="53.3" y="-105.9" text-anchor="middle" font-size="5.7" font-family="Tahoma,Geneva,sans-serif" font-weight="bold" fill="rgb(100,100,100)">C</text><circle cx="56.1" cy="-93.1" r="4.52" fill="lightgreen" stroke="#ccc" stroke-width="1.66"/><text x="56.1" y="-90.8" text-anchor="middle" font-size="5.7" font-family="Tahoma,Geneva,sans-serif" font-weight="bold" fill="rgb(100,100,100)">U</text><circle cx="41.9" cy="-88.3" r="4.52" fill="lightgreen" stroke="#ccc" stroke-width="1.66"/><text x="41.9" y="-86.0" text-anchor="middle" font-size="5.7" font-family="Tahoma,Geneva,sans-serif" font-weight="bold" fill="rgb(100,100,100)">G</text><circle cx="27.6" cy="-83.5" r="4.52" fill="lightgreen" stroke="#ccc" stroke-width="1.66"/><text x="27.6" y="-81.2" text-anchor="middle" font-size="5.7" font-family="Tahoma,Geneva,sans-serif" font-weight="bold" fill="rgb(100,100,100)">C</text><circle cx="13.4" cy="-78.7" r="4.52" fill="lightgreen" stroke="#ccc" stroke-width="1.66"/><text x="13.4" y="-76.4" text-anchor="middle" font-size="5.7" font-family="Tahoma,Geneva,sans-serif" font-weight="bold" fill="rgb(100,100,100)">G</text><circle cx="-0.8" cy="-73.8" r="4.52" fill="lightgreen" stroke="#ccc" stroke-width="1.66"/><text x="-0.8" y="-71.6" text-anchor="middle" font-size="5.7" font-family="Tahoma,Geneva,sans-serif" font-weight="bold" fill="rgb(100,100,100)">A</text><circle cx="-7.0" cy="-87.6" r="4.52" fill="#dbdb8d" stroke="#ccc" stroke-width="1.66"/><text x="-7.0" y="-85.3" text-anchor="middle" font-size="5.7" font-family="Tahoma,Geneva,sans-serif" font-weight="bold" fill="rgb(100,100,100)">C</text><circle cx="-22.0" cy="-87.7" r="4.52" fill="#dbdb8d" stroke="#ccc" stroke-width="1.66"/><text x="-22.0" y="-85.4" text-anchor="middle" font-size="5.7" font-family="Tahoma,Geneva,sans-serif" font-weight="bold" fill="rgb(100,100,100)">U</text><circle cx="-36.0" cy="-82.3" r="4.52" fill="#dbdb8d" stroke="#ccc" stroke-width="1.66"/><text x="-36.0" y="-80.1" text-anchor="middle" font-size="5.7" font-family="Tahoma,Geneva,sans-serif" font-weight="bold" fill="rgb(100,100,100)">A</text><circle cx="-47.5" cy="-72.7" r="4.52" fill="#dbdb8d" stroke="#ccc" stroke-width="1.66"/><text x="-47.5" y="-70.4" text-anchor="middle" font-size="5.7" font-family="Tahoma,Geneva,sans-serif" font-weight="bold" fill="rgb(100,100,100)">U</text><circle cx="-42.9" cy="-58.3" r="4.52" fill="lightgreen" stroke="#ccc" stroke-width="1.66"/><text x="-42.9" y="-56.0" text-anchor="middle" font-size="5.7" font-family="Tahoma,Geneva,sans-serif" font-weight="bold" fill="rgb(100,100,100)">C</text><circle cx="-56.8" cy="-52.6" r="4.52" fill="lightgreen" stroke="#ccc" stroke-width="1.66"/><text x="-56.8" y="-50.4" text-anchor="middle" font-size="5.7" font-family="Tahoma,Geneva,sans-serif" font-weight="bold" fill="rgb(100,100,100)">A</text><circle cx="-70.7" cy="-47.0" r="4.52" fill="lightgreen" stroke="#ccc" stroke-width="1.66"/><text x="-70.7" y="-44.7" text-anchor="middle" font-size="5.7" font-family="Tahoma,Geneva,sans-serif" font-weight="bold" fill="rgb(100,100,100)">C</text><circle cx="-84.6" cy="-41.3" r="4.52" fill="lightgreen" stroke="#ccc" stroke-width="1.66"/><text x="-84.6" y="-39.1" text-anchor="middle" font-size="5.7" font-family="Tahoma,Geneva,sans-serif" font-weight="bold" fill="rgb(100,100,100)">C</text><circle cx="-98.5" cy="-35.7" r="4.52" fill="lightgreen" stroke="#ccc" stroke-width="1.66"/><text x="-98.5" y="-33.4" text-anchor="middle" font-size="5.7" font-family="Tahoma,Geneva,sans-serif" font-weight="bold" fill="rgb(100,100,100)">U</text><circle cx="-112.4" cy="-30.1" r="4.52" fill="lightgreen" stroke="#ccc" stroke-width="1.66"/><text x="-112.4" y="-27.8" text-anchor="middle" font-size="5.7" font-family="Tahoma,Geneva,sans-serif" font-weight="bold" fill="rgb(100,100,100)">G</text><circle cx="-126.3" cy="-24.4" r="4.52" fill="lightgreen" stroke="#ccc" stroke-width="1.66"/><text x="-126.3" y="-22.2" text-anchor="middle" font-size="5.7" font-family="Tahoma,Geneva,sans-serif" font-weight="bold" fill="rgb(100,100,100)">G</text><circle cx="-140.2" cy="-18.8" r="4.52" fill="lightgreen" stroke="#ccc" stroke-width="1.66"/><text x="-140.2" y="-16.5" text-anchor="middle" font-size="5.7" font-family="Tahoma,Geneva,sans-serif" font-weight="bold" fill="rgb(100,100,100)">A</text><circle cx="-154.1" cy="-13.2" r="4.52" fill="lightgreen" stroke="#ccc" stroke-width="1.66"/><text x="-154.1" y="-10.9" text-anchor="middle" font-size="5.7" font-family="Tahoma,Geneva,sans-serif" font-weight="bold" fill="rgb(100,100,100)">U</text><circle cx="-168.0" cy="-7.5" r="4.52" fill="lightgreen" stroke="#ccc" stroke-width="1.66"/><text x="-168.0" y="-5.3" text-anchor="middle" font-size="5.7" font-family="Tahoma,Geneva,sans-serif" font-weight="bold" fill="rgb(100,100,100)">C</text><circle cx="-182.0" cy="-13.0" r="4.52" fill="#dbdb8d" stroke="#ccc" stroke-width="1.66"/><text x="-182.0" y="-10.7" text-anchor="middle" font-size="5.7" font-family="Tahoma,Geneva,sans-serif" font-weight="bold" fill="rgb(100,100,100)">C</text><circle cx="-196.1" cy="-7.6" r="4.52" fill="#dbdb8d" stroke="#ccc" stroke-width="1.66"/><text x="-196.1" y="-5.4" text-anchor="middle" font-size="5.7" font-family="Tahoma,Geneva,sans-serif" font-weight="bold" fill="rgb(100,100,100)">A</text><circle cx="-201.9" cy="6.3" r="4.52" fill="lightgreen" stroke="#ccc" stroke-width="1.66"/><text x="-201.9" y="8.5" text-anchor="middle" font-size="5.7" font-family="Tahoma,Geneva,sans-serif" font-weight="bold" fill="rgb(100,100,100)">G</text><circle cx="-215.8" cy="11.9" r="4.52" fill="lightgreen" stroke="#ccc" stroke-width="1.66"/><text x="-215.8" y="14.2" text-anchor="middle" font-size="5.7" font-family="Tahoma,Geneva,sans-serif" font-weight="bold" fill="rgb(100,100,100)">A</text><circle cx="-229.7" cy="17.5" r="4.52" fill="lightgreen" stroke="#ccc" stroke-width="1.66"/><text x="-229.7" y="19.8" text-anchor="middle" font-size="5.7" font-family="Tahoma,Geneva,sans-serif" font-weight="bold" fill="rgb(100,100,100)">U</text><circle cx="-243.5" cy="10.1" r="4.52" fill="lightgreen" stroke="#ccc" stroke-width="1.66"/><text x="-243.5" y="12.3" text-anchor="middle" font-size="5.7" font-family="Tahoma,Geneva,sans-serif" font-weight="bold" fill="rgb(100,100,100)">G</text><circle cx="-258.8" cy="13.2" r="4.52" fill="lightgreen" stroke="#ccc" stroke-width="1.66"/><text x="-258.8" y="15.5" text-anchor="middle" font-size="5.7" font-family="Tahoma,Geneva,sans-serif" font-weight="bold" fill="rgb(100,100,100)">G</text><circle cx="-268.5" cy="25.5" r="4.52" fill="lightgreen" stroke="#ccc" stroke-width="1.66"/><text x="-268.5" y="27.7" text-anchor="middle" font-size="5.7" font-family="Tahoma,Geneva,sans-serif" font-weight="bold" fill="rgb(100,100,100)">U</text><circle cx="-267.9" cy="41.1" r="4.52" fill="lightgreen" stroke="#ccc" stroke-width="1.66"/><text x="-267.9" y="43.4" text-anchor="middle" font-size="5.7" font-family="Tahoma,Geneva,sans-serif" font-weight="bold" fill="rgb(100,100,100)">U</text><circle cx="-257.4" cy="52.7" r="4.52" fill="lightgreen" stroke="#ccc" stroke-width="1.66"/><text x="-257.4" y="55.0" text-anchor="middle" font-size="5.7" font-family="Tahoma,Geneva,sans-serif" font-weight="bold" fill="rgb(100,100,100)">C</text><circle cx="-242.4" cy="53.6" r="4.52" fill="lightblue" stroke="#ccc" stroke-width="1.66"/><text x="-242.4" y="55.8" text-anchor="middle" font-size="5.7" font-family="Tahoma,Geneva,sans-serif" font-weight="bold" fill="rgb(100,100,100)">G</text><circle cx="-229.7" cy="45.5" r="4.52" fill="lightblue" stroke="#ccc" stroke-width="1.66"/><text x="-229.7" y="47.7" text-anchor="middle" font-size="5.7" font-family="Tahoma,Geneva,sans-serif" font-weight="bold" fill="rgb(100,100,100)">C</text><circle cx="-224.1" cy="31.4" r="4.52" fill="lightgreen" stroke="#ccc" stroke-width="1.66"/><text x="-224.1" y="33.7" text-anchor="middle" font-size="5.7" font-family="Tahoma,Geneva,sans-serif" font-weight="bold" fill="rgb(100,100,100)">A</text><circle cx="-210.2" cy="25.8" r="4.52" fill="lightgreen" stroke="#ccc" stroke-width="1.66"/><text x="-210.2" y="28.1" text-anchor="middle" font-size="5.7" font-family="Tahoma,Geneva,sans-serif" font-weight="bold" fill="rgb(100,100,100)">U</text><circle cx="-196.3" cy="20.2" r="4.52" fill="lightgreen" stroke="#ccc" stroke-width="1.66"/><text x="-196.3" y="22.4" text-anchor="middle" font-size="5.7" font-family="Tahoma,Geneva,sans-serif" font-weight="bold" fill="rgb(100,100,100)">C</text><circle cx="-182.4" cy="26.0" r="4.52" fill="#dbdb8d" stroke="#ccc" stroke-width="1.66"/><text x="-182.4" y="28.3" text-anchor="middle" font-size="5.7" font-family="Tahoma,Geneva,sans-serif" font-weight="bold" fill="rgb(100,100,100)">G</text><circle cx="-168.6" cy="20.1" r="4.52" fill="#dbdb8d" stroke="#ccc" stroke-width="1.66"/><text x="-168.6" y="22.4" text-anchor="middle" font-size="5.7" font-family="Tahoma,Geneva,sans-serif" font-weight="bold" fill="rgb(100,100,100)">A</text><circle cx="-162.3" cy="6.4" r="4.52" fill="lightgreen" stroke="#ccc" stroke-width="1.66"/><text x="-162.3" y="8.6" text-anchor="middle" font-size="5.7" font-family="Tahoma,Geneva,sans-serif" font-weight="bold" fill="rgb(100,100,100)">G</text><circle cx="-148.4" cy="0.7" r="4.52" fill="lightgreen" stroke="#ccc" stroke-width="1.66"/><text x="-148.4" y="3.0" text-anchor="middle" font-size="5.7" font-family="Tahoma,Geneva,sans-serif" font-weight="bold" fill="rgb(100,100,100)">A</text><circle cx="-134.5" cy="-4.9" r="4.52" fill="lightgreen" stroke="#ccc" stroke-width="1.66"/><text x="-134.5" y="-2.6" text-anchor="middle" font-size="5.7" font-family="Tahoma,Geneva,sans-serif" font-weight="bold" fill="rgb(100,100,100)">U</text><circle cx="-120.6" cy="-10.5" r="4.52" fill="lightgreen" stroke="#ccc" stroke-width="1.66"/><text x="-120.6" y="-8.3" text-anchor="middle" font-size="5.7" font-family="Tahoma,Geneva,sans-serif" font-weight="bold" fill="rgb(100,100,100)">C</text><circle cx="-106.7" cy="-16.2" r="4.52" fill="lightgreen" stroke="#ccc" stroke-width="1.66"/><text x="-106.7" y="-13.9" text-anchor="middle" font-size="5.7" font-family="Tahoma,Geneva,sans-serif" font-weight="bold" fill="rgb(100,100,100)">C</text><circle cx="-92.8" cy="-21.8" r="4.52" fill="lightgreen" stroke="#ccc" stroke-width="1.66"/><text x="-92.8" y="-19.5" text-anchor="middle" font-size="5.7" font-family="Tahoma,Geneva,sans-serif" font-weight="bold" fill="rgb(100,100,100)">G</text><circle cx="-78.9" cy="-27.4" r="4.52" fill="lightgreen" stroke="#ccc" stroke-width="1.66"/><text x="-78.9" y="-25.2" text-anchor="middle" font-size="5.7" font-family="Tahoma,Geneva,sans-serif" font-weight="bold" fill="rgb(100,100,100)">G</text><circle cx="-65.0" cy="-33.1" r="4.52" fill="lightgreen" stroke="#ccc" stroke-width="1.66"/><text x="-65.0" y="-30.8" text-anchor="middle" font-size="5.7" font-family="Tahoma,Geneva,sans-serif" font-weight="bold" fill="rgb(100,100,100)">G</text><circle cx="-51.1" cy="-38.7" r="4.52" fill="lightgreen" stroke="#ccc" stroke-width="1.66"/><text x="-51.1" y="-36.5" text-anchor="middle" font-size="5.7" font-family="Tahoma,Geneva,sans-serif" font-weight="bold" fill="rgb(100,100,100)">U</text><circle cx="-37.2" cy="-44.4" r="4.52" fill="lightgreen" stroke="#ccc" stroke-width="1.66"/><text x="-37.2" y="-42.1" text-anchor="middle" font-size="5.7" font-family="Tahoma,Geneva,sans-serif" font-weight="bold" fill="rgb(100,100,100)">G</text><circle cx="-21.9" cy="-44.2" r="4.52" fill="#dbdb8d" stroke="#ccc" stroke-width="1.66"/><text x="-21.9" y="-41.9" text-anchor="middle" font-size="5.7" font-family="Tahoma,Geneva,sans-serif" font-weight="bold" fill="rgb(100,100,100)">U</text><circle cx="-7.5" cy="-49.6" r="4.52" fill="#dbdb8d" stroke="#ccc" stroke-width="1.66"/><text x="-7.5" y="-47.3" text-anchor="middle" font-size="5.7" font-family="Tahoma,Geneva,sans-serif" font-weight="bold" fill="rgb(100,100,100)">A</text><circle cx="4.0" cy="-59.6" r="4.52" fill="lightgreen" stroke="#ccc" stroke-width="1.66"/><text x="4.0" y="-57.4" text-anchor="middle" font-size="5.7" font-family="Tahoma,Geneva,sans-serif" font-weight="bold" fill="rgb(100,100,100)">U</text><circle cx="18.2" cy="-64.4" r="4.52" fill="lightgreen" stroke="#ccc" stroke-width="1.66"/><text x="18.2" y="-62.2" text-anchor="middle" font-size="5.7" font-family="Tahoma,Geneva,sans-serif" font-weight="bold" fill="rgb(100,100,100)">C</text><circle cx="32.4" cy="-69.2" r="4.52" fill="lightgreen" stroke="#ccc" stroke-width="1.66"/><text x="32.4" y="-67.0" text-anchor="middle" font-size="5.7" font-family="Tahoma,Geneva,sans-serif" font-weight="bold" fill="rgb(100,100,100)">G</text><circle cx="46.7" cy="-74.0" r="4.52" fill="lightgreen" stroke="#ccc" stroke-width="1.66"/><text x="46.7" y="-71.8" text-anchor="middle" font-size="5.7" font-family="Tahoma,Geneva,sans-serif" font-weight="bold" fill="rgb(100,100,100)">C</text><circle cx="60.9" cy="-78.9" r="4.52" fill="lightgreen" stroke="#ccc" stroke-width="1.66"/><text x="60.9" y="-76.6" text-anchor="middle" font-size="5.7" font-family="Tahoma,Geneva,sans-serif" font-weight="bold" fill="rgb(100,100,100)">A</text><circle cx="73.8" cy="-68.1" r="4.52" fill="lightsalmon" stroke="#ccc" stroke-width="1.66"/><text x="73.8" y="-65.8" text-anchor="middle" font-size="5.7" font-family="Tahoma,Geneva,sans-serif" font-weight="bold" fill="rgb(100,100,100)">A</text><circle cx="86.9" cy="-57.5" r="4.52" fill="lightgreen" stroke="#ccc" stroke-width="1.66"/><text x="86.9" y="-55.2" text-anchor="middle" font-size="5.7" font-family="Tahoma,Geneva,sans-serif" font-weight="bold" fill="rgb(100,100,100)">G</text><circle cx="103.9" cy="-55.7" r="4.52" fill="lightgreen" stroke="#ccc" stroke-width="1.66"/><text x="103.9" y="-53.4" text-anchor="middle" font-size="5.7" font-family="Tahoma,Geneva,sans-serif" font-weight="bold" fill="rgb(100,100,100)">A</text><circle cx="120.4" cy="-60.5" r="4.52" fill="lightgreen" stroke="#ccc" stroke-width="1.66"/><text x="120.4" y="-58.2" text-anchor="middle" font-size="5.7" font-family="Tahoma,Geneva,sans-serif" font-weight="bold" fill="rgb(100,100,100)">A</text><circle cx="133.8" cy="-71.1" r="4.52" fill="lightgreen" stroke="#ccc" stroke-width="1.66"/><text x="133.8" y="-68.8" text-anchor="middle" font-size="5.7" font-family="Tahoma,Geneva,sans-serif" font-weight="bold" fill="rgb(100,100,100)">C</text><circle cx="142.2" cy="-86.0" r="4.52" fill="lightgreen" stroke="#ccc" stroke-width="1.66"/><text x="142.2" y="-83.7" text-anchor="middle" font-size="5.7" font-family="Tahoma,Geneva,sans-serif" font-weight="bold" fill="rgb(100,100,100)">C</text><circle cx="144.4" cy="-103.0" r="4.52" fill="lightgreen" stroke="#ccc" stroke-width="1.66"/><text x="144.4" y="-100.7" text-anchor="middle" font-size="5.7" font-family="Tahoma,Geneva,sans-serif" font-weight="bold" fill="rgb(100,100,100)">G</text><circle cx="159.0" cy="-106.5" r="4.52" fill="lightgreen" stroke="#ccc" stroke-width="1.66"/><text x="159.0" y="-104.3" text-anchor="middle" font-size="5.7" font-family="Tahoma,Geneva,sans-serif" font-weight="bold" fill="rgb(100,100,100)">U</text><circle cx="173.5" cy="-110.1" r="4.52" fill="lightgreen" stroke="#ccc" stroke-width="1.66"/><text x="173.5" y="-107.8" text-anchor="middle" font-size="5.7" font-family="Tahoma,Geneva,sans-serif" font-weight="bold" fill="rgb(100,100,100)">G</text><circle cx="188.1" cy="-113.6" r="4.52" fill="lightgreen" stroke="#ccc" stroke-width="1.66"/><text x="188.1" y="-111.3" text-anchor="middle" font-size="5.7" font-family="Tahoma,Geneva,sans-serif" font-weight="bold" fill="rgb(100,100,100)">G</text><circle cx="202.7" cy="-117.1" r="4.52" fill="lightgreen" stroke="#ccc" stroke-width="1.66"/><text x="202.7" y="-114.8" text-anchor="middle" font-size="5.7" font-family="Tahoma,Geneva,sans-serif" font-weight="bold" fill="rgb(100,100,100)">A</text><circle cx="217.3" cy="-120.6" r="4.52" fill="lightgreen" stroke="#ccc" stroke-width="1.66"/><text x="217.3" y="-118.4" text-anchor="middle" font-size="5.7" font-family="Tahoma,Geneva,sans-serif" font-weight="bold" fill="rgb(100,100,100)">U</text><circle cx="231.9" cy="-124.1" r="4.52" fill="lightgreen" stroke="#ccc" stroke-width="1.66"/><text x="231.9" y="-121.9" text-anchor="middle" font-size="5.7" font-family="Tahoma,Geneva,sans-serif" font-weight="bold" fill="rgb(100,100,100)">U</text><circle cx="246.4" cy="-127.7" r="4.52" fill="lightgreen" stroke="#ccc" stroke-width="1.66"/><text x="246.4" y="-125.4" text-anchor="middle" font-size="5.7" font-family="Tahoma,Geneva,sans-serif" font-weight="bold" fill="rgb(100,100,100)">G</text><circle cx="261.0" cy="-123.8" r="4.52" fill="#dbdb8d" stroke="#ccc" stroke-width="1.66"/><text x="261.0" y="-121.6" text-anchor="middle" font-size="5.7" font-family="Tahoma,Geneva,sans-serif" font-weight="bold" fill="rgb(100,100,100)">G</text><circle cx="272.2" cy="-133.9" r="4.52" fill="lightgreen" stroke="#ccc" stroke-width="1.66"/><text x="272.2" y="-131.6" text-anchor="middle" font-size="5.7" font-family="Tahoma,Geneva,sans-serif" font-weight="bold" fill="rgb(100,100,100)">G</text><circle cx="286.8" cy="-137.4" r="4.52" fill="lightgreen" stroke="#ccc" stroke-width="1.66"/><text x="286.8" y="-135.2" text-anchor="middle" font-size="5.7" font-family="Tahoma,Geneva,sans-serif" font-weight="bold" fill="rgb(100,100,100)">U</text><circle cx="301.4" cy="-140.9" r="4.52" fill="lightgreen" stroke="#ccc" stroke-width="1.66"/><text x="301.4" y="-138.7" text-anchor="middle" font-size="5.7" font-family="Tahoma,Geneva,sans-serif" font-weight="bold" fill="rgb(100,100,100)">C</text><circle cx="316.0" cy="-144.5" r="4.52" fill="lightgreen" stroke="#ccc" stroke-width="1.66"/><text x="316.0" y="-142.2" text-anchor="middle" font-size="5.7" font-family="Tahoma,Geneva,sans-serif" font-weight="bold" fill="rgb(100,100,100)">U</text><circle cx="330.5" cy="-148.0" r="4.52" fill="lightgreen" stroke="#ccc" stroke-width="1.66"/><text x="330.5" y="-145.7" text-anchor="middle" font-size="5.7" font-family="Tahoma,Geneva,sans-serif" font-weight="bold" fill="rgb(100,100,100)">C</text><circle cx="345.1" cy="-151.5" r="4.52" fill="lightgreen" stroke="#ccc" stroke-width="1.66"/><text x="345.1" y="-149.3" text-anchor="middle" font-size="5.7" font-family="Tahoma,Geneva,sans-serif" font-weight="bold" fill="rgb(100,100,100)">C</text><circle cx="359.7" cy="-155.0" r="4.52" fill="lightgreen" stroke="#ccc" stroke-width="1.66"/><text x="359.7" y="-152.8" text-anchor="middle" font-size="5.7" font-family="Tahoma,Geneva,sans-serif" font-weight="bold" fill="rgb(100,100,100)">C</text><circle cx="374.3" cy="-158.6" r="4.52" fill="lightgreen" stroke="#ccc" stroke-width="1.66"/><text x="374.3" y="-156.3" text-anchor="middle" font-size="5.7" font-family="Tahoma,Geneva,sans-serif" font-weight="bold" fill="rgb(100,100,100)">C</text><circle cx="388.9" cy="-155.1" r="4.52" fill="lightblue" stroke="#ccc" stroke-width="1.66"/><text x="388.9" y="-152.8" text-anchor="middle" font-size="5.7" font-family="Tahoma,Geneva,sans-serif" font-weight="bold" fill="rgb(100,100,100)">G</text><circle cx="400.4" cy="-164.8" r="4.52" fill="lightblue" stroke="#ccc" stroke-width="1.66"/><text x="400.4" y="-162.6" text-anchor="middle" font-size="5.7" font-family="Tahoma,Geneva,sans-serif" font-weight="bold" fill="rgb(100,100,100)">A</text><circle cx="396.9" cy="-179.5" r="4.52" fill="lightblue" stroke="#ccc" stroke-width="1.66"/><text x="396.9" y="-177.2" text-anchor="middle" font-size="5.7" font-family="Tahoma,Geneva,sans-serif" font-weight="bold" fill="rgb(100,100,100)">U</text><circle cx="382.2" cy="-183.0" r="4.52" fill="lightblue" stroke="#ccc" stroke-width="1.66"/><text x="382.2" y="-180.7" text-anchor="middle" font-size="5.7" font-family="Tahoma,Geneva,sans-serif" font-weight="bold" fill="rgb(100,100,100)">G</text><circle cx="370.8" cy="-173.1" r="4.52" fill="lightgreen" stroke="#ccc" stroke-width="1.66"/><text x="370.8" y="-170.9" text-anchor="middle" font-size="5.7" font-family="Tahoma,Geneva,sans-serif" font-weight="bold" fill="rgb(100,100,100)">G</text><circle cx="356.2" cy="-169.6" r="4.52" fill="lightgreen" stroke="#ccc" stroke-width="1.66"/><text x="356.2" y="-167.4" text-anchor="middle" font-size="5.7" font-family="Tahoma,Geneva,sans-serif" font-weight="bold" fill="rgb(100,100,100)">G</text><circle cx="341.6" cy="-166.1" r="4.52" fill="lightgreen" stroke="#ccc" stroke-width="1.66"/><text x="341.6" y="-163.8" text-anchor="middle" font-size="5.7" font-family="Tahoma,Geneva,sans-serif" font-weight="bold" fill="rgb(100,100,100)">G</text><circle cx="327.0" cy="-162.6" r="4.52" fill="lightgreen" stroke="#ccc" stroke-width="1.66"/><text x="327.0" y="-160.3" text-anchor="middle" font-size="5.7" font-family="Tahoma,Geneva,sans-serif" font-weight="bold" fill="rgb(100,100,100)">G</text><circle cx="312.4" cy="-159.1" r="4.52" fill="lightgreen" stroke="#ccc" stroke-width="1.66"/><text x="312.4" y="-156.8" text-anchor="middle" font-size="5.7" font-family="Tahoma,Geneva,sans-serif" font-weight="bold" fill="rgb(100,100,100)">A</text><circle cx="297.9" cy="-155.5" r="4.52" fill="lightgreen" stroke="#ccc" stroke-width="1.66"/><text x="297.9" y="-153.3" text-anchor="middle" font-size="5.7" font-family="Tahoma,Geneva,sans-serif" font-weight="bold" fill="rgb(100,100,100)">G</text><circle cx="283.3" cy="-152.0" r="4.52" fill="lightgreen" stroke="#ccc" stroke-width="1.66"/><text x="283.3" y="-149.7" text-anchor="middle" font-size="5.7" font-family="Tahoma,Geneva,sans-serif" font-weight="bold" fill="rgb(100,100,100)">A</text><circle cx="268.7" cy="-148.5" r="4.52" fill="lightgreen" stroke="#ccc" stroke-width="1.66"/><text x="268.7" y="-146.2" text-anchor="middle" font-size="5.7" font-family="Tahoma,Geneva,sans-serif" font-weight="bold" fill="rgb(100,100,100)">C</text><circle cx="254.1" cy="-152.3" r="4.52" fill="#dbdb8d" stroke="#ccc" stroke-width="1.66"/><text x="254.1" y="-150.1" text-anchor="middle" font-size="5.7" font-family="Tahoma,Geneva,sans-serif" font-weight="bold" fill="rgb(100,100,100)">G</text><circle cx="242.9" cy="-142.3" r="4.52" fill="lightgreen" stroke="#ccc" stroke-width="1.66"/><text x="242.9" y="-140.0" text-anchor="middle" font-size="5.7" font-family="Tahoma,Geneva,sans-serif" font-weight="bold" fill="rgb(100,100,100)">C</text><circle cx="228.3" cy="-138.7" r="4.52" fill="lightgreen" stroke="#ccc" stroke-width="1.66"/><text x="228.3" y="-136.5" text-anchor="middle" font-size="5.7" font-family="Tahoma,Geneva,sans-serif" font-weight="bold" fill="rgb(100,100,100)">A</text><circle cx="213.8" cy="-135.2" r="4.52" fill="lightgreen" stroke="#ccc" stroke-width="1.66"/><text x="213.8" y="-132.9" text-anchor="middle" font-size="5.7" font-family="Tahoma,Geneva,sans-serif" font-weight="bold" fill="rgb(100,100,100)">A</text><circle cx="199.2" cy="-131.7" r="4.52" fill="lightgreen" stroke="#ccc" stroke-width="1.66"/><text x="199.2" y="-129.4" text-anchor="middle" font-size="5.7" font-family="Tahoma,Geneva,sans-serif" font-weight="bold" fill="rgb(100,100,100)">U</text><circle cx="184.6" cy="-128.2" r="4.52" fill="lightgreen" stroke="#ccc" stroke-width="1.66"/><text x="184.6" y="-125.9" text-anchor="middle" font-size="5.7" font-family="Tahoma,Geneva,sans-serif" font-weight="bold" fill="rgb(100,100,100)">C</text><circle cx="170.0" cy="-124.6" r="4.52" fill="lightgreen" stroke="#ccc" stroke-width="1.66"/><text x="170.0" y="-122.4" text-anchor="middle" font-size="5.7" font-family="Tahoma,Geneva,sans-serif" font-weight="bold" fill="rgb(100,100,100)">U</text><circle cx="155.4" cy="-121.1" r="4.52" fill="lightgreen" stroke="#ccc" stroke-width="1.66"/><text x="155.4" y="-118.9" text-anchor="middle" font-size="5.7" font-family="Tahoma,Geneva,sans-serif" font-weight="bold" fill="rgb(100,100,100)">A</text><circle cx="140.9" cy="-117.6" r="4.52" fill="lightgreen" stroke="#ccc" stroke-width="1.66"/><text x="140.9" y="-115.3" text-anchor="middle" font-size="5.7" font-family="Tahoma,Geneva,sans-serif" font-weight="bold" fill="rgb(100,100,100)">C</text><circle cx="131.4" cy="-131.1" r="4.52" fill="lightsalmon" stroke="#ccc" stroke-width="1.66"/><text x="131.4" y="-128.9" text-anchor="middle" font-size="5.7" font-family="Tahoma,Geneva,sans-serif" font-weight="bold" fill="rgb(100,100,100)">A</text><circle cx="120.4" cy="-143.6" r="4.52" fill="lightsalmon" stroke="#ccc" stroke-width="1.66"/><text x="120.4" y="-141.4" text-anchor="middle" font-size="5.7" font-family="Tahoma,Geneva,sans-serif" font-weight="bold" fill="rgb(100,100,100)">U</text><circle cx="111.2" cy="-157.9" r="4.52" fill="lightsalmon" stroke="#ccc" stroke-width="1.66"/><text x="111.2" y="-155.7" text-anchor="middle" font-size="5.7" font-family="Tahoma,Geneva,sans-serif" font-weight="bold" fill="rgb(100,100,100)">U</text></svg>