<svg xmlns="http://www.w3.org/2000/svg" viewBox="-359.4 -249.5 734.2 302.3" width="734" height="302"><style></style><line x1="-285.4" y1="-201.3" x2="-288.2" y2="-186.6" stroke="#999" stroke-width="1.57" stroke-opacity="0.8"/><line x1="-270.7" y1="-198.5" x2="-273.4" y2="-183.8" stroke="#999" stroke-width="1.57" stroke-opacity="0.8"/><line x1="-255.9" y1="-195.7" x2="-258.7" y2="-181.0" stroke="#999" stroke-width="1.57" stroke-opacity="0.8"/><line x1="-241.2" y1="-192.9" x2="-244.0" y2="-178.2" stroke="#999" stroke-width="1.57" stroke-opacity="0.8"/><line x1="-215.1" y1="-188.0" x2="-217.9" y2="-173.2" stroke="#999" stroke-width="1.57" stroke-opacity="0.8"/><line x1="-200.4" y1="-185.2" x2="-203.2" y2="-170.4" stroke="#999" stroke-width="1.57" stroke-opacity="0.8"/><line x1="-185.6" y1="-182.4" x2="-188.4" y2="-167.6" stroke="#999" stroke-width="1.57" stroke-opacity="0.8"/><line x1="-170.9" y1="-179.6" x2="-173.7" y2="-164.9" stroke="#999" stroke-width="1.57" stroke-opacity="0.8"/><line x1="-156.2" y1="-176.8" x2="-159.0" y2="-162.1" stroke="#999" stroke-width="1.57" stroke-opacity="0.8"/><line x1="-141.4" y1="-174.0" x2="-144.2" y2="-159.3" stroke="#999" stroke-width="1.57" stroke-opacity="0.8"/><line x1="-101.0" y1="-165.7" x2="-104.3" y2="-151.1" stroke="#999" stroke-width="1.57" stroke-opacity="0.8"/><line x1="-86.4" y1="-162.5" x2="-89.6" y2="-147.9" stroke="#999" stroke-width="1.57" stroke-opacity="0.8"/><line x1="-71.7" y1="-159.3" x2="-75.0" y2="-144.6" stroke="#999" stroke-width="1.57" stroke-opacity="0.8"/><line x1="-57.1" y1="-156.1" x2="-60.3" y2="-141.4" stroke="#999" stroke-width="1.57" stroke-opacity="0.8"/><line x1="-42.4" y1="-152.9" x2="-45.7" y2="-138.2" stroke="#999" stroke-width="1.57" stroke-opacity="0.8"/><line x1="-27.8" y1="-149.6" x2="-31.0" y2="-135.0" stroke="#999" stroke-width="1.57" stroke-opacity="0.8"/><line x1="308.7" y1="3.1" x2="315.1" y2="-10.5" stroke="#999" stroke-width="1.57" stroke-opacity="0.8"/><line x1="295.1" y1="-3.4" x2="301.6" y2="-16.9" stroke="#999" stroke-width="1.57" stroke-opacity="0.8"/><line x1="281.6" y1="-9.9" x2="288.1" y2="-23.4" stroke="#999" stroke-width="1.57" stroke-opacity="0.8"/><line x1="268.1" y1="-16.4" x2="274.6" y2="-29.9" stroke="#999" stroke-width="1.57" stroke-opacity="0.8"/><line x1="254.3" y1="-23.2" x2="261.1" y2="-36.6" stroke="#999" stroke-width="1.57" stroke-opacity="0.8"/><line x1="240.9" y1="-30.1" x2="247.8" y2="-43.5" stroke="#999" stroke-width="1.57" stroke-opacity="0.8"/><line x1="227.6" y1="-37.0" x2="234.4" y2="-50.3" stroke="#999" stroke-width="1.57" stroke-opacity="0.8"/><line x1="214.2" y1="-43.9" x2="221.1" y2="-57.2" stroke="#999" stroke-width="1.57" stroke-opacity="0.8"/><line x1="200.8" y1="-50.5" x2="207.3" y2="-64.1" stroke="#999" stroke-width="1.57" stroke-opacity="0.8"/><line x1="187.3" y1="-57.0" x2="193.8" y2="-70.5" stroke="#999" stroke-width="1.57" stroke-opacity="0.8"/><line x1="173.8" y1="-63.5" x2="180.2" y2="-77.0" stroke="#999" stroke-width="1.57" stroke-opacity="0.8"/><line x1="160.0" y1="-69.4" x2="165.2" y2="-83.4" stroke="#999" stroke-width="1.57" stroke-opacity="0.8"/><line x1="145.9" y1="-74.7" x2="151.2" y2="-88.7" stroke="#999" stroke-width="1.57" stroke-opacity="0.8"/><line x1="131.9" y1="-80.0" x2="137.2" y2="-94.0" stroke="#999" stroke-width="1.57" stroke-opacity="0.8"/><line x1="117.9" y1="-85.2" x2="123.1" y2="-99.3" stroke="#999" stroke-width="1.57" stroke-opacity="0.8"/><line x1="103.8" y1="-90.5" x2="109.1" y2="-104.6" stroke="#999" stroke-width="1.57" stroke-opacity="0.8"/><line x1="89.7" y1="-95.6" x2="94.6" y2="-109.8" stroke="#999" stroke-width="1.57" stroke-opacity="0.8"/><line x1="75.5" y1="-100.5" x2="80.4" y2="-114.7" stroke="#999" stroke-width="1.57" stroke-opacity="0.8"/><line x1="61.3" y1="-105.4" x2="66.2" y2="-119.6" stroke="#999" stroke-width="1.57" stroke-opacity="0.8"/><line x1="47.2" y1="-110.3" x2="52.0" y2="-124.4" stroke="#999" stroke-width="1.57" stroke-opacity="0.8"/><line x1="33.0" y1="-115.1" x2="37.8" y2="-129.3" stroke="#999" stroke-width="1.57" stroke-opacity="0.8"/><line x1="18.8" y1="-120.0" x2="23.7" y2="-134.2" stroke="#999" stroke-width="1.57" stroke-opacity="0.8"/><line x1="4.6" y1="-124.9" x2="9.5" y2="-139.1" stroke="#999" stroke-width="1.57" stroke-opacity="0.8"/><line x1="343.4" y1="-4.6" x2="7.2" y2="-147.5" stroke="#d9534f" stroke-width="1.57" stroke-opacity="0.6"/><line x1="343.5" y1="11.4" x2="1.8" y2="-154.1" stroke="#d9534f" stroke-width="1.57" stroke-opacity="0.6"/><line x1="330.9" y1="21.4" x2="-5.8" y2="-158.0" stroke="#d9534f" stroke-width="1.57" stroke-opacity="0.6"/><line x1="315.3" y1="17.7" x2="-14.2" y2="-158.4" stroke="#d9534f" stroke-width="1.57" stroke-opacity="0.6"/><line x1="-27.8" y1="-149.6" x2="-42.4" y2="-152.9" stroke="#999" stroke-width="1.57" stroke-opacity="0.8"/><line x1="-42.4" y1="-152.9" x2="-57.1" y2="-156.1" stroke="#999" stroke-width="1.57" stroke-opacity="0.8"/><line x1="-57.1" y1="-156.1" x2="-71.7" y2="-159.3" stroke="#999" stroke-width="1.57" stroke-opacity="0.8"/><line x1="-71.7" y1="-159.3" x2="-86.4" y2="-162.5" stroke="#999" stroke-width="1.57" stroke-opacity="0.8"/><line x1="-86.4" y1="-162.5" x2="-101.0" y2="-165.7" stroke="#999" stroke-width="1.57" stroke-opacity="0.8"/><line x1="-101.0" y1="-165.7" x2="-105.6" y2="-179.2" stroke="#999" stroke-width="1.57" stroke-opacity="0.8"/><line x1="-105.6" y1="-179.2" x2="-118.2" y2="-185.9" stroke="#999" stroke-width="1.57" stroke-opacity="0.8"/><line x1="-118.2" y1="-185.9" x2="-132.4" y2="-185.0" stroke="#999" stroke-width="1.57" stroke-opacity="0.8"/><line x1="-132.4" y1="-185.0" x2="-141.4" y2="-174.0" stroke="#999" stroke-width="1.57" stroke-opacity="0.8"/><line x1="-141.4" y1="-174.0" x2="-156.2" y2="-176.8" stroke="#999" stroke-width="1.57" stroke-opacity="0.8"/><line x1="-156.2" y1="-176.8" x2="-170.9" y2="-179.6" stroke="#999" stroke-width="1.57" stroke-opacity="0.8"/><line x1="-170.9" y1="-179.6" x2="-185.6" y2="-182.4" stroke="#999" stroke-width="1.57" stroke-opacity="0.8"/><line x1="-185.6" y1="-182.4" x2="-200.4" y2="-185.2" stroke="#999" stroke-width="1.57" stroke-opacity="0.8"/><line x1="-200.4" y1="-185.2" x2="-215.1" y2="-188.0" stroke="#999" stroke-width="1.57" stroke-opacity="0.8"/><line x1="-215.1" y1="-188.0" x2="-227.2" y2="-195.6" stroke="#999" stroke-width="1.57" stroke-opacity="0.8"/><line x1="-227.2" y1="-195.6" x2="-241.2" y2="-192.9" stroke="#999" stroke-width="1.57" stroke-opacity="0.8"/><line x1="-241.2" y1="-192.9" x2="-255.9" y2="-195.7" stroke="#999" stroke-width="1.57" stroke-opacity="0.8"/><line x1="-255.9" y1="-195.7" x2="-270.7" y2="-198.5" stroke="#999" stroke-width="1.57" stroke-opacity="0.8"/><line x1="-270.7" y1="-198.5" x2="-285.4" y2="-201.3" stroke="#999" stroke-width="1.57" stroke-opacity="0.8"/><line x1="-285.4" y1="-201.3" x2="-294.0" y2="-212.7" stroke="#999" stroke-width="1.57" stroke-opacity="0.8"/><line x1="-294.0" y1="-212.7" x2="-307.1" y2="-218.2" stroke="#999" stroke-width="1.57" stroke-opacity="0.8"/><line x1="-307.1" y1="-218.2" x2="-320.7" y2="-213.9" stroke="#999" stroke-width="1.57" stroke-opacity="0.8"/><line x1="-320.7" y1="-213.9" x2="-328.1" y2="-201.8" stroke="#999" stroke-width="1.57" stroke-opacity="0.8"/><line x1="-328.1" y1="-201.8" x2="-325.7" y2="-187.7" stroke="#999" stroke-width="1.57" stroke-opacity="0.8"/><line x1="-325.7" y1="-187.7" x2="-314.6" y2="-178.8" stroke="#999" stroke-width="1.57" stroke-opacity="0.8"/><line x1="-314.6" y1="-178.8" x2="-300.3" y2="-179.1" stroke="#999" stroke-width="1.57" stroke-opacity="0.8"/><line x1="-300.3" y1="-179.1" x2="-288.2" y2="-186.6" stroke="#999" stroke-width="1.57" stroke-opacity="0.8"/><line x1="-288.2" y1="-186.6" x2="-273.4" y2="-183.8" stroke="#999" stroke-width="1.57" stroke-opacity="0.8"/><line x1="-273.4" y1="-183.8" x2="-258.7" y2="-181.0" stroke="#999" stroke-width="1.57" stroke-opacity="0.8"/><line x1="-258.7" y1="-181.0" x2="-244.0" y2="-178.2" stroke="#999" stroke-width="1.57" stroke-opacity="0.8"/><line x1="-244.0" y1="-178.2" x2="-231.9" y2="-170.6" stroke="#999" stroke-width="1.57" stroke-opacity="0.8"/><line x1="-231.9" y1="-170.6" x2="-217.9" y2="-173.2" stroke="#999" stroke-width="1.57" stroke-opacity="0.8"/><line x1="-217.9" y1="-173.2" x2="-203.2" y2="-170.4" stroke="#999" stroke-width="1.57" stroke-opacity="0.8"/><line x1="-203.2" y1="-170.4" x2="-188.4" y2="-167.6" stroke="#999" stroke-width="1.57" stroke-opacity="0.8"/><line x1="-188.4" y1="-167.6" x2="-173.7" y2="-164.9" stroke="#999" stroke-width="1.57" stroke-opacity="0.8"/><line x1="-173.7" y1="-164.9" x2="-159.0" y2="-162.1" stroke="#999" stroke-width="1.57" stroke-opacity="0.8"/><line x1="-159.0" y1="-162.1" x2="-144.2" y2="-159.3" stroke="#999" stroke-width="1.57" stroke-opacity="0.8"/><line x1="-144.2" y1="-159.3" x2="-132.5" y2="-150.9" stroke="#999" stroke-width="1.57" stroke-opacity="0.8"/><line x1="-132.5" y1="-150.9" x2="-118.4" y2="-148.1" stroke="#999" stroke-width="1.57" stroke-opacity="0.8"/><line x1="-118.4" y1="-148.1" x2="-104.3" y2="-151.1" stroke="#999" stroke-width="1.57" stroke-opacity="0.8"/><line x1="-104.3" y1="-151.1" x2="-89.6" y2="-147.9" stroke="#999" stroke-width="1.57" stroke-opacity="0.8"/><line x1="-89.6" y1="-147.9" x2="-75.0" y2="-144.6" stroke="#999" stroke-width="1.57" stroke-opacity="0.8"/><line x1="-75.0" y1="-144.6" x2="-60.3" y2="-141.4" stroke="#999" stroke-width="1.57" stroke-opacity="0.8"/><line x1="-60.3" y1="-141.4" x2="-45.7" y2="-138.2" stroke="#999" stroke-width="1.57" stroke-opacity="0.8"/><line x1="-45.7" y1="-138.2" x2="-31.0" y2="-135.0" stroke="#999" stroke-width="1.57" stroke-opacity="0.8"/><line x1="-31.0" y1="-135.0" x2="-13.2" y2="-129.9" stroke="#999" stroke-width="1.57" stroke-opacity="0.8"/><line x1="-13.2" y1="-129.9" x2="4.6" y2="-124.9" stroke="#999" stroke-width="1.57" stroke-opacity="0.8"/><line x1="4.6" y1="-124.9" x2="18.8" y2="-120.0" stroke="#999" stroke-width="1.57" stroke-opacity="0.8"/><line x1="18.8" y1="-120.0" x2="33.0" y2="-115.1" stroke="#999" stroke-width="1.57" stroke-opacity="0.8"/><line x1="33.0" y1="-115.1" x2="47.2" y2="-110.3" stroke="#999" stroke-width="1.57" stroke-opacity="0.8"/><line x1="47.2" y1="-110.3" x2="61.3" y2="-105.4" stroke="#999" stroke-width="1.57" stroke-opacity="0.8"/><line x1="61.3" y1="-105.4" x2="75.5" y2="-100.5" stroke="#999" stroke-width="1.57" stroke-opacity="0.8"/><line x1="75.5" y1="-100.5" x2="89.7" y2="-95.6" stroke="#999" stroke-width="1.57" stroke-opacity="0.8"/><line x1="89.7" y1="-95.6" x2="103.8" y2="-90.5" stroke="#999" stroke-width="1.57" stroke-opacity="0.8"/><line x1="103.8" y1="-90.5" x2="117.9" y2="-85.2" stroke="#999" stroke-width="1.57" stroke-opacity="0.8"/><line x1="117.9" y1="-85.2" x2="131.9" y2="-80.0" stroke="#999" stroke-width="1.57" stroke-opacity="0.8"/><line x1="131.9" y1="-80.0" x2="145.9" y2="-74.7" stroke="#999" stroke-width="1.57" stroke-opacity="0.8"/><line x1="145.9" y1="-74.7" x2="160.0" y2="-69.4" stroke="#999" stroke-width="1.57" stroke-opacity="0.8"/><line x1="160.0" y1="-69.4" x2="173.8" y2="-63.5" stroke="#999" stroke-width="1.57" stroke-opacity="0.8"/><line x1="173.8" y1="-63.5" x2="187.3" y2="-57.0" stroke="#999" stroke-width="1.57" stroke-opacity="0.8"/><line x1="187.3" y1="-57.0" x2="200.8" y2="-50.5" stroke="#999" stroke-width="1.57" stroke-opacity="0.8"/><line x1="200.8" y1="-50.5" x2="214.2" y2="-43.9" stroke="#999" stroke-width="1.57" stroke-opacity="0.8"/><line x1="214.2" y1="-43.9" x2="227.6" y2="-37.0" stroke="#999" stroke-width="1.57" stroke-opacity="0.8"/><line x1="227.6" y1="-37.0" x2="240.9" y2="-30.1" stroke="#999" stroke-width="1.57" stroke-opacity="0.8"/><line x1="240.9" y1="-30.1" x2="254.3" y2="-23.2" stroke="#999" stroke-width="1.57" stroke-opacity="0.8"/><line x1="254.3" y1="-23.2" x2="255.8" y2="-9.1" stroke="#999" stroke-width="1.57" stroke-opacity="0.8"/><line x1="255.8" y1="-9.1" x2="268.1" y2="-16.4" stroke="#999" stroke-width="1.57" stroke-opacity="0.8"/><line x1="268.1" y1="-16.4" x2="281.6" y2="-9.9" stroke="#999" stroke-width="1.57" stroke-opacity="0.8"/><line x1="281.6" y1="-9.9" x2="295.1" y2="-3.4" stroke="#999" stroke-width="1.57" stroke-opacity="0.8"/><line x1="295.1" y1="-3.4" x2="308.7" y2="3.1" stroke="#999" stroke-width="1.57" stroke-opacity="0.8"/><line x1="308.7" y1="3.1" x2="315.3" y2="17.7" stroke="#999" stroke-width="1.57" stroke-opacity="0.8"/><line x1="315.3" y1="17.7" x2="330.9" y2="21.4" stroke="#999" stroke-width="1.57" stroke-opacity="0.8"/><line x1="330.9" y1="21.4" x2="343.5" y2="11.4" stroke="#999" stroke-width="1.57" stroke-opacity="0.8"/><line x1="343.5" y1="11.4" x2="343.4" y2="-4.6" stroke="#999" stroke-width="1.57" stroke-opacity="0.8"/><line x1="343.4" y1="-4.6" x2="329.7" y2="-9.4" stroke="#999" stroke-width="1.57" stroke-opacity="0.8"/><line x1="329.7" y1="-9.4" x2="315.1" y2="-10.5" stroke="#999" stroke-width="1.57" stroke-opacity="0.8"/><line x1="315.1" y1="-10.5" x2="301.6" y2="-16.9" stroke="#999" stroke-width="1.57" stroke-opacity="0.8"/><line x1="301.6" y1="-16.9" x2="288.1" y2="-23.4" stroke="#999" stroke-width="1.57" stroke-opacity="0.8"/><line x1="288.1" y1="-23.4" x2="274.6" y2="-29.9" stroke="#999" stroke-width="1.57" stroke-opacity="0.8"/><line x1="274.6" y1="-29.9" x2="261.1" y2="-36.6" stroke="#999" stroke-width="1.57" stroke-opacity="0.8"/><line x1="261.1" y1="-36.6" x2="247.8" y2="-43.5" stroke="#999" stroke-width="1.57" stroke-opacity="0.8"/><line x1="247.8" y1="-43.5" x2="234.4" y2="-50.3" stroke="#999" stroke-width="1.57" stroke-opacity="0.8"/><line x1="234.4" y1="-50.3" x2="221.1" y2="-57.2" stroke="#999" stroke-width="1.57" stroke-opacity="0.8"/><line x1="221.1" y1="-57.2" x2="219.5" y2="-71.3" stroke="#999" stroke-width="1.57" stroke-opacity="0.8"/><line x1="219.5" y1="-71.3" x2="207.3" y2="-64.1" stroke="#999" stroke-width="1.57" stroke-opacity="0.8"/><line x1="207.3" y1="-64.1" x2="193.8" y2="-70.5" stroke="#999" stroke-width="1.57" stroke-opacity="0.8"/><line x1="193.8" y1="-70.5" x2="180.2" y2="-77.0" stroke="#999" stroke-width="1.57" stroke-opacity="0.8"/><line x1="180.2" y1="-77.0" x2="188.1" y2="-89.2" stroke="#999" stroke-width="1.57" stroke-opacity="0.8"/><line x1="188.1" y1="-89.2" x2="182.4" y2="-102.1" stroke="#999" stroke-width="1.57" stroke-opacity="0.8"/><line x1="182.4" y1="-102.1" x2="169.0" y2="-97.4" stroke="#999" stroke-width="1.57" stroke-opacity="0.8"/><line x1="169.0" y1="-97.4" x2="165.2" y2="-83.4" stroke="#999" stroke-width="1.57" stroke-opacity="0.8"/><line x1="165.2" y1="-83.4" x2="151.2" y2="-88.7" stroke="#999" stroke-width="1.57" stroke-opacity="0.8"/><line x1="151.2" y1="-88.7" x2="137.2" y2="-94.0" stroke="#999" stroke-width="1.57" stroke-opacity="0.8"/><line x1="137.2" y1="-94.0" x2="123.1" y2="-99.3" stroke="#999" stroke-width="1.57" stroke-opacity="0.8"/><line x1="123.1" y1="-99.3" x2="109.1" y2="-104.6" stroke="#999" stroke-width="1.57" stroke-opacity="0.8"/><line x1="109.1" y1="-104.6" x2="105.9" y2="-118.4" stroke="#999" stroke-width="1.57" stroke-opacity="0.8"/><line x1="105.9" y1="-118.4" x2="94.6" y2="-109.8" stroke="#999" stroke-width="1.57" stroke-opacity="0.8"/><line x1="94.6" y1="-109.8" x2="80.4" y2="-114.7" stroke="#999" stroke-width="1.57" stroke-opacity="0.8"/><line x1="80.4" y1="-114.7" x2="66.2" y2="-119.6" stroke="#999" stroke-width="1.57" stroke-opacity="0.8"/><line x1="66.2" y1="-119.6" x2="52.0" y2="-124.4" stroke="#999" stroke-width="1.57" stroke-opacity="0.8"/><line x1="52.0" y1="-124.4" x2="37.8" y2="-129.3" stroke="#999" stroke-width="1.57" stroke-opacity="0.8"/><line x1="37.8" y1="-129.3" x2="23.7" y2="-134.2" stroke="#999" stroke-width="1.57" stroke-opacity="0.8"/><line x1="23.7" y1="-134.2" x2="9.5" y2="-139.1" stroke="#999" stroke-width="1.57" stroke-opacity="0.8"/><line x1="9.5" y1="-139.1" x2="7.2" y2="-147.5" stroke="#999" stroke-width="1.57" stroke-opacity="0.8"/><line x1="7.2" y1="-147.5" x2="1.8" y2="-154.1" stroke="#999" stroke-width="1.57" stroke-opacity="0.8"/><line x1="1.8" y1="-154.1" x2="-5.8" y2="-158.0" stroke="#999" stroke-width="1.57" stroke-opacity="0.8"/><line x1="-5.8" y1="-158.0" x2="-14.2" y2="-158.4" stroke="#999" stroke-width="1.57" stroke-opacity="0.8"/><text x="-24.1" y="-163.7" text-anchor="middle" font-size="7.4" font-family="Tahoma,Geneva,sans-serif" fill="#999">1</text><text x="-147.0" y="-187.6" text-anchor="middle" font-size="7.4" font-family="Tahoma,Geneva,sans-serif" fill="#999">10</text><text x="-276.5" y="-213.3" text-anchor="middle" font-size="7.4" font-family="Tahoma,Geneva,sans-serif" fill="#999">20</text><text x="-261.9" y="-161.6" text-anchor="middle" font-size="7.4" font-family="Tahoma,Geneva,sans-serif" fill="#999">30</text><text x="-118.3" y="-128.4" text-anchor="middle" font-size="7.4" font-family="Tahoma,Geneva,sans-serif" fill="#999">40</text><text x="27.4" y="-96.4" text-anchor="middle" font-size="7.4" font-family="Tahoma,Geneva,sans-serif" fill="#999">50</text><text x="166.7" y="-45.3" text-anchor="middle" font-size="7.4" font-family="Tahoma,Geneva,sans-serif" fill="#999">60</text><text x="287.7" y="14.6" text-anchor="middle" font-size="7.4" font-family="Tahoma,Geneva,sans-serif" fill="#999">70</text><text x="282.0" y="-42.7" text-anchor="middle" font-size="7.4" font-family="Tahoma,Geneva,sans-serif" fill="#999">80</text><text x="189.1" y="-115.2" text-anchor="middle" font-size="7.4" font-family="Tahoma,Geneva,sans-serif" fill="#999">90</text><text x="71.8" y="-133.1" text-anchor="middle" font-size="7.4" font-family="Tahoma,Geneva,sans-serif" fill="#999">100</text><circle cx="-27.8" cy="-149.6" r="4.27" fill="lightgreen" stroke="#ccc" stroke-width="1.57"/><text x="-27.8" y="-147.5" text-anchor="middle" font-size="5.3" font-family="Tahoma,Geneva,sans-serif" font-weight="bold" fill="rgb(100,100,100)">A</text><circle cx="-42.4" cy="-152.9" r="4.27" fill="lightgreen" stroke="#ccc" stroke-width="1.57"/><text x="-42.4" y="-150.7" text-anchor="middle" font-size="5.3" font-family="Tahoma,Geneva,sans-serif" font-weight="bold" fill="rgb(100,100,100)">G</text><circle cx="-57.1" cy="-156.1" r="4.27" fill="lightgreen" stroke="#ccc" stroke-width="1.57"/><text x="-57.1" y="-153.9" text-anchor="middle" font-size="5.3" font-family="Tahoma,Geneva,sans-serif" font-weight="bold" fill="rgb(100,100,100)">C</text><circle cx="-71.7" cy="-159.3" r="4.27" fill="lightgreen" stroke="#ccc" stroke-width="1.57"/><text x="-71.7" y="-157.2" text-anchor="middle" font-size="5.3" font-family="Tahoma,Geneva,sans-serif" font-weight="bold" fill="rgb(100,100,100)">C</text><circle cx="-86.4" cy="-162.5" r="4.27" fill="lightgreen" stroke="#ccc" stroke-width="1.57"/><text x="-86.4" y="-160.4" text-anchor="middle" font-size="5.3" font-family="Tahoma,Geneva,sans-serif" font-weight="bold" fill="rgb(100,100,100)">A</text><circle cx="-101.0" cy="-165.7" r="4.27" fill="lightgreen" stroke="#ccc" stroke-width="1.57"/><text x="-101.0" y="-163.6" text-anchor="middle" font-size="5.3" font-family="Tahoma,Geneva,sans-serif" font-weight="bold" fill="rgb(100,100,100)">U</text><circle cx="-105.6" cy="-179.2" r="4.27" fill="#dbdb8d" stroke="#ccc" stroke-width="1.57"/><text x="-105.6" y="-177.1" text-anchor="middle" font-size="5.3" font-family="Tahoma,Geneva,sans-serif" font-weight="bold" fill="rgb(100,100,100)">C</text><circle cx="-118.2" cy="-185.9" r="4.27" fill="#dbdb8d" stroke="#ccc" stroke-width="1.57"/><text x="-118.2" y="-183.8" text-anchor="middle" font-size="5.3" font-family="Tahoma,Geneva,sans-serif" font-weight="bold" fill="rgb(100,100,100)">A</text><circle cx="-132.4" cy="-185.0" r="4.27" fill="#dbdb8d" stroke="#ccc" stroke-width="1.57"/><text x="-132.4" y="-182.9" text-anchor="middle" font-size="5.3" font-family="Tahoma,Geneva,sans-serif" font-weight="bold" fill="rgb(100,100,100)">G</text><circle cx="-141.4" cy="-174.0" r="4.27" fill="lightgreen" stroke="#ccc" stroke-width="1.57"/><text x="-141.4" y="-171.9" text-anchor="middle" font-size="5.3" font-family="Tahoma,Geneva,sans-serif" font-weight="bold" fill="rgb(100,100,100)">U</text><circle cx="-156.2" cy="-176.8" r="4.27" fill="lightgreen" stroke="#ccc" stroke-width="1.57"/><text x="-156.2" y="-174.7" text-anchor="middle" font-size="5.3" font-family="Tahoma,Geneva,sans-serif" font-weight="bold" fill="rgb(100,100,100)">C</text><circle cx="-170.9" cy="-179.6" r="4.27" fill="lightgreen" stroke="#ccc" stroke-width="1.57"/><text x="-170.9" y="-177.5" text-anchor="middle" font-size="5.3" font-family="Tahoma,Geneva,sans-serif" font-weight="bold" fill="rgb(100,100,100)">G</text><circle cx="-185.6" cy="-182.4" r="4.27" fill="lightgreen" stroke="#ccc" stroke-width="1.57"/><text x="-185.6" y="-180.3" text-anchor="middle" font-size="5.3" font-family="Tahoma,Geneva,sans-serif" font-weight="bold" fill="rgb(100,100,100)">A</text><circle cx="-200.4" cy="-185.2" r="4.27" fill="lightgreen" stroke="#ccc" stroke-width="1.57"/><text x="-200.4" y="-183.0" text-anchor="middle" font-size="5.3" font-family="Tahoma,Geneva,sans-serif" font-weight="bold" fill="rgb(100,100,100)">A</text><circle cx="-215.1" cy="-188.0" r="4.27" fill="lightgreen" stroke="#ccc" stroke-width="1.57"/><text x="-215.1" y="-185.8" text-anchor="middle" font-size="5.3" font-family="Tahoma,Geneva,sans-serif" font-weight="bold" fill="rgb(100,100,100)">G</text><circle cx="-227.2" cy="-195.6" r="4.27" fill="#dbdb8d" stroke="#ccc" stroke-width="1.57"/><text x="-227.2" y="-193.4" text-anchor="middle" font-size="5.3" font-family="Tahoma,Geneva,sans-serif" font-weight="bold" fill="rgb(100,100,100)">C</text><circle cx="-241.2" cy="-192.9" r="4.27" fill="lightgreen" stroke="#ccc" stroke-width="1.57"/><text x="-241.2" y="-190.8" text-anchor="middle" font-size="5.3" font-family="Tahoma,Geneva,sans-serif" font-weight="bold" fill="rgb(100,100,100)">G</text><circle cx="-255.9" cy="-195.7" r="4.27" fill="lightgreen" stroke="#ccc" stroke-width="1.57"/><text x="-255.9" y="-193.6" text-anchor="middle" font-size="5.3" font-family="Tahoma,Geneva,sans-serif" font-weight="bold" fill="rgb(100,100,100)">G</text><circle cx="-270.7" cy="-198.5" r="4.27" fill="lightgreen" stroke="#ccc" stroke-width="1.57"/><text x="-270.7" y="-196.4" text-anchor="middle" font-size="5.3" font-family="Tahoma,Geneva,sans-serif" font-weight="bold" fill="rgb(100,100,100)">C</text><circle cx="-285.4" cy="-201.3" r="4.27" fill="lightgreen" stroke="#ccc" stroke-width="1.57"/><text x="-285.4" y="-199.2" text-anchor="middle" font-size="5.3" font-family="Tahoma,Geneva,sans-serif" font-weight="bold" fill="rgb(100,100,100)">A</text><circle cx="-294.0" cy="-212.7" r="4.27" fill="lightblue" stroke="#ccc" stroke-width="1.57"/><text x="-294.0" y="-210.5" text-anchor="middle" font-size="5.3" font-family="Tahoma,Geneva,sans-serif" font-weight="bold" fill="rgb(100,100,100)">G</text><circle cx="-307.1" cy="-218.2" r="4.27" fill="lightblue" stroke="#ccc" stroke-width="1.57"/><text x="-307.1" y="-216.1" text-anchor="middle" font-size="5.3" font-family="Tahoma,Geneva,sans-serif" font-weight="bold" fill="rgb(100,100,100)">A</text><circle cx="-320.7" cy="-213.9" r="4.27" fill="lightblue" stroke="#ccc" stroke-width="1.57"/><text x="-320.7" y="-211.8" text-anchor="middle" font-size="5.3" font-family="Tahoma,Geneva,sans-serif" font-weight="bold" fill="rgb(100,100,100)">A</text><circle cx="-328.1" cy="-201.8" r="4.27" fill="lightblue" stroke="#ccc" stroke-width="1.57"/><text x="-328.1" y="-199.6" text-anchor="middle" font-size="5.3" font-family="Tahoma,Geneva,sans-serif" font-weight="bold" fill="rgb(100,100,100)">A</text><circle cx="-325.7" cy="-187.7" r="4.27" fill="lightblue" stroke="#ccc" stroke-width="1.57"/><text x="-325.7" y="-185.6" text-anchor="middle" font-size="5.3" font-family="Tahoma,Geneva,sans-serif" font-weight="bold" fill="rgb(100,100,100)">A</text><circle cx="-314.6" cy="-178.8" r="4.27" fill="lightblue" stroke="#ccc" stroke-width="1.57"/><text x="-314.6" y="-176.6" text-anchor="middle" font-size="5.3" font-family="Tahoma,Geneva,sans-serif" font-weight="bold" fill="rgb(100,100,100)">A</text><circle cx="-300.3" cy="-179.1" r="4.27" fill="lightblue" stroke="#ccc" stroke-width="1.57"/><text x="-300.3" y="-177.0" text-anchor="middle" font-size="5.3" font-family="Tahoma,Geneva,sans-serif" font-weight="bold" fill="rgb(100,100,100)">A</text><circle cx="-288.2" cy="-186.6" r="4.27" fill="lightgreen" stroke="#ccc" stroke-width="1.57"/><text x="-288.2" y="-184.4" text-anchor="middle" font-size="5.3" font-family="Tahoma,Geneva,sans-serif" font-weight="bold" fill="rgb(100,100,100)">U</text><circle cx="-273.4" cy="-183.8" r="4.27" fill="lightgreen" stroke="#ccc" stroke-width="1.57"/><text x="-273.4" y="-181.6" text-anchor="middle" font-size="5.3" font-family="Tahoma,Geneva,sans-serif" font-weight="bold" fill="rgb(100,100,100)">G</text><circle cx="-258.7" cy="-181.0" r="4.27" fill="lightgreen" stroke="#ccc" stroke-width="1.57"/><text x="-258.7" y="-178.8" text-anchor="middle" font-size="5.3" font-family="Tahoma,Geneva,sans-serif" font-weight="bold" fill="rgb(100,100,100)">C</text><circle cx="-244.0" cy="-178.2" r="4.27" fill="lightgreen" stroke="#ccc" stroke-width="1.57"/><text x="-244.0" y="-176.0" text-anchor="middle" font-size="5.3" font-family="Tahoma,Geneva,sans-serif" font-weight="bold" fill="rgb(100,100,100)">C</text><circle cx="-231.9" cy="-170.6" r="4.27" fill="#dbdb8d" stroke="#ccc" stroke-width="1.57"/><text x="-231.9" y="-168.5" text-anchor="middle" font-size="5.3" font-family="Tahoma,Geneva,sans-serif" font-weight="bold" fill="rgb(100,100,100)">A</text><circle cx="-217.9" cy="-173.2" r="4.27" fill="lightgreen" stroke="#ccc" stroke-width="1.57"/><text x="-217.9" y="-171.1" text-anchor="middle" font-size="5.3" font-family="Tahoma,Geneva,sans-serif" font-weight="bold" fill="rgb(100,100,100)">C</text><circle cx="-203.2" cy="-170.4" r="4.27" fill="lightgreen" stroke="#ccc" stroke-width="1.57"/><text x="-203.2" y="-168.3" text-anchor="middle" font-size="5.3" font-family="Tahoma,Geneva,sans-serif" font-weight="bold" fill="rgb(100,100,100)">U</text><circle cx="-188.4" cy="-167.6" r="4.27" fill="lightgreen" stroke="#ccc" stroke-width="1.57"/><text x="-188.4" y="-165.5" text-anchor="middle" font-size="5.3" font-family="Tahoma,Geneva,sans-serif" font-weight="bold" fill="rgb(100,100,100)">U</text><circle cx="-173.7" cy="-164.9" r="4.27" fill="lightgreen" stroke="#ccc" stroke-width="1.57"/><text x="-173.7" y="-162.7" text-anchor="middle" font-size="5.3" font-family="Tahoma,Geneva,sans-serif" font-weight="bold" fill="rgb(100,100,100)">C</text><circle cx="-159.0" cy="-162.1" r="4.27" fill="lightgreen" stroke="#ccc" stroke-width="1.57"/><text x="-159.0" y="-159.9" text-anchor="middle" font-size="5.3" font-family="Tahoma,Geneva,sans-serif" font-weight="bold" fill="rgb(100,100,100)">G</text><circle cx="-144.2" cy="-159.3" r="4.27" fill="lightgreen" stroke="#ccc" stroke-width="1.57"/><text x="-144.2" y="-157.1" text-anchor="middle" font-size="5.3" font-family="Tahoma,Geneva,sans-serif" font-weight="bold" fill="rgb(100,100,100)">A</text><circle cx="-132.5" cy="-150.9" r="4.27" fill="#dbdb8d" stroke="#ccc" stroke-width="1.57"/><text x="-132.5" y="-148.8" text-anchor="middle" font-size="5.3" font-family="Tahoma,Geneva,sans-serif" font-weight="bold" fill="rgb(100,100,100)">G</text><circle cx="-118.4" cy="-148.1" r="4.27" fill="#dbdb8d" stroke="#ccc" stroke-width="1.57"/><text x="-118.4" y="-146.0" text-anchor="middle" font-size="5.3" font-family="Tahoma,Geneva,sans-serif" font-weight="bold" fill="rgb(100,100,100)">U</text><circle cx="-104.3" cy="-151.1" r="4.27" fill="lightgreen" stroke="#ccc" stroke-width="1.57"/><text x="-104.3" y="-148.9" text-anchor="middle" font-size="5.3" font-family="Tahoma,Geneva,sans-serif" font-weight="bold" fill="rgb(100,100,100)">A</text><circle cx="-89.6" cy="-147.9" r="4.27" fill="lightgreen" stroke="#ccc" stroke-width="1.57"/><text x="-89.6" y="-145.7" text-anchor="middle" font-size="5.3" font-family="Tahoma,Geneva,sans-serif" font-weight="bold" fill="rgb(100,100,100)">U</text><circle cx="-75.0" cy="-144.6" r="4.27" fill="lightgreen" stroke="#ccc" stroke-width="1.57"/><text x="-75.0" y="-142.5" text-anchor="middle" font-size="5.3" font-family="Tahoma,Geneva,sans-serif" font-weight="bold" fill="rgb(100,100,100)">G</text><circle cx="-60.3" cy="-141.4" r="4.27" fill="lightgreen" stroke="#ccc" stroke-width="1.57"/><text x="-60.3" y="-139.3" text-anchor="middle" font-size="5.3" font-family="Tahoma,Geneva,sans-serif" font-weight="bold" fill="rgb(100,100,100)">G</text><circle cx="-45.7" cy="-138.2" r="4.27" fill="lightgreen" stroke="#ccc" stroke-width="1.57"/><text x="-45.7" y="-136.1" text-anchor="middle" font-size="5.3" font-family="Tahoma,Geneva,sans-serif" font-weight="bold" fill="rgb(100,100,100)">C</text><circle cx="-31.0" cy="-135.0" r="4.27" fill="lightgreen" stroke="#ccc" stroke-width="1.57"/><text x="-31.0" y="-132.9" text-anchor="middle" font-size="5.3" font-family="Tahoma,Geneva,sans-serif" font-weight="bold" fill="rgb(100,100,100)">U</text><circle cx="-13.2" cy="-129.9" r="4.27" fill="lightsalmon" stroke="#ccc" stroke-width="1.57"/><text x="-13.2" y="-127.8" text-anchor="middle" font-size="5.3" font-family="Tahoma,Geneva,sans-serif" font-weight="bold" fill="rgb(100,100,100)">G</text><circle cx="4.6" cy="-124.9" r="4.27" fill="lightgreen" stroke="#ccc" stroke-width="1.57"/><text x="4.6" y="-122.8" text-anchor="middle" font-size="5.3" font-family="Tahoma,Geneva,sans-serif" font-weight="bold" fill="rgb(100,100,100)">U</text><circle cx="18.8" cy="-120.0" r="4.27" fill="lightgreen" stroke="#ccc" stroke-width="1.57"/><text x="18.8" y="-117.9" text-anchor="middle" font-size="5.3" font-family="Tahoma,Geneva,sans-serif" font-weight="bold" fill="rgb(100,100,100)">G</text><circle cx="33.0" cy="-115.1" r="4.27" fill="lightgreen" stroke="#ccc" stroke-width="1.57"/><text x="33.0" y="-113.0" text-anchor="middle" font-size="5.3" font-family="Tahoma,Geneva,sans-serif" font-weight="bold" fill="rgb(100,100,100)">C</text><circle cx="47.2" cy="-110.3" r="4.27" fill="lightgreen" stroke="#ccc" stroke-width="1.57"/><text x="47.2" y="-108.1" text-anchor="middle" font-size="5.3" font-family="Tahoma,Geneva,sans-serif" font-weight="bold" fill="rgb(100,100,100)">U</text><circle cx="61.3" cy="-105.4" r="4.27" fill="lightgreen" stroke="#ccc" stroke-width="1.57"/><text x="61.3" y="-103.2" text-anchor="middle" font-size="5.3" font-family="Tahoma,Geneva,sans-serif" font-weight="bold" fill="rgb(100,100,100)">U</text><circle cx="75.5" cy="-100.5" r="4.27" fill="lightgreen" stroke="#ccc" stroke-width="1.57"/><text x="75.5" y="-98.4" text-anchor="middle" font-size="5.3" font-family="Tahoma,Geneva,sans-serif" font-weight="bold" fill="rgb(100,100,100)">C</text><circle cx="89.7" cy="-95.6" r="4.27" fill="lightgreen" stroke="#ccc" stroke-width="1.57"/><text x="89.7" y="-93.5" text-anchor="middle" font-size="5.3" font-family="Tahoma,Geneva,sans-serif" font-weight="bold" fill="rgb(100,100,100)">G</text><circle cx="103.8" cy="-90.5" r="4.27" fill="lightgreen" stroke="#ccc" stroke-width="1.57"/><text x="103.8" y="-88.4" text-anchor="middle" font-size="5.3" font-family="Tahoma,Geneva,sans-serif" font-weight="bold" fill="rgb(100,100,100)">A</text><circle cx="117.9" cy="-85.2" r="4.27" fill="lightgreen" stroke="#ccc" stroke-width="1.57"/><text x="117.9" y="-83.1" text-anchor="middle" font-size="5.3" font-family="Tahoma,Geneva,sans-serif" font-weight="bold" fill="rgb(100,100,100)">U</text><circle cx="131.9" cy="-80.0" r="4.27" fill="lightgreen" stroke="#ccc" stroke-width="1.57"/><text x="131.9" y="-77.8" text-anchor="middle" font-size="5.3" font-family="Tahoma,Geneva,sans-serif" font-weight="bold" fill="rgb(100,100,100)">G</text><circle cx="145.9" cy="-74.7" r="4.27" fill="lightgreen" stroke="#ccc" stroke-width="1.57"/><text x="145.9" y="-72.5" text-anchor="middle" font-size="5.3" font-family="Tahoma,Geneva,sans-serif" font-weight="bold" fill="rgb(100,100,100)">C</text><circle cx="160.0" cy="-69.4" r="4.27" fill="lightgreen" stroke="#ccc" stroke-width="1.57"/><text x="160.0" y="-67.2" text-anchor="middle" font-size="5.3" font-family="Tahoma,Geneva,sans-serif" font-weight="bold" fill="rgb(100,100,100)">U</text><circle cx="173.8" cy="-63.5" r="4.27" fill="lightgreen" stroke="#ccc" stroke-width="1.57"/><text x="173.8" y="-61.3" text-anchor="middle" font-size="5.3" font-family="Tahoma,Geneva,sans-serif" font-weight="bold" fill="rgb(100,100,100)">G</text><circle cx="187.3" cy="-57.0" r="4.27" fill="lightgreen" stroke="#ccc" stroke-width="1.57"/><text x="187.3" y="-54.9" text-anchor="middle" font-size="5.3" font-family="Tahoma,Geneva,sans-serif" font-weight="bold" fill="rgb(100,100,100)">C</text><circle cx="200.8" cy="-50.5" r="4.27" fill="lightgreen" stroke="#ccc" stroke-width="1.57"/><text x="200.8" y="-48.4" text-anchor="middle" font-size="5.3" font-family="Tahoma,Geneva,sans-serif" font-weight="bold" fill="rgb(100,100,100)">A</text><circle cx="214.2" cy="-43.9" r="4.27" fill="lightgreen" stroke="#ccc" stroke-width="1.57"/><text x="214.2" y="-41.7" text-anchor="middle" font-size="5.3" font-family="Tahoma,Geneva,sans-serif" font-weight="bold" fill="rgb(100,100,100)">G</text><circle cx="227.6" cy="-37.0" r="4.27" fill="lightgreen" stroke="#ccc" stroke-width="1.57"/><text x="227.6" y="-34.8" text-anchor="middle" font-size="5.3" font-family="Tahoma,Geneva,sans-serif" font-weight="bold" fill="rgb(100,100,100)">A</text><circle cx="240.9" cy="-30.1" r="4.27" fill="lightgreen" stroke="#ccc" stroke-width="1.57"/><text x="240.9" y="-28.0" text-anchor="middle" font-size="5.3" font-family="Tahoma,Geneva,sans-serif" font-weight="bold" fill="rgb(100,100,100)">A</text><circle cx="254.3" cy="-23.2" r="4.27" fill="lightgreen" stroke="#ccc" stroke-width="1.57"/><text x="254.3" y="-21.1" text-anchor="middle" font-size="5.3" font-family="Tahoma,Geneva,sans-serif" font-weight="bold" fill="rgb(100,100,100)">G</text><circle cx="255.8" cy="-9.1" r="4.27" fill="#dbdb8d" stroke="#ccc" stroke-width="1.57"/><text x="255.8" y="-7.0" text-anchor="middle" font-size="5.3" font-family="Tahoma,Geneva,sans-serif" font-weight="bold" fill="rgb(100,100,100)">A</text><circle cx="268.1" cy="-16.4" r="4.27" fill="lightgreen" stroke="#ccc" stroke-width="1.57"/><text x="268.1" y="-14.2" text-anchor="middle" font-size="5.3" font-family="Tahoma,Geneva,sans-serif" font-weight="bold" fill="rgb(100,100,100)">G</text><circle cx="281.6" cy="-9.9" r="4.27" fill="lightgreen" stroke="#ccc" stroke-width="1.57"/><text x="281.6" y="-7.8" text-anchor="middle" font-size="5.3" font-family="Tahoma,Geneva,sans-serif" font-weight="bold" fill="rgb(100,100,100)">C</text><circle cx="295.1" cy="-3.4" r="4.27" fill="lightgreen" stroke="#ccc" stroke-width="1.57"/><text x="295.1" y="-1.3" text-anchor="middle" font-size="5.3" font-family="Tahoma,Geneva,sans-serif" font-weight="bold" fill="rgb(100,100,100)">U</text><circle cx="308.7" cy="3.1" r="4.27" fill="lightgreen" stroke="#ccc" stroke-width="1.57"/><text x="308.7" y="5.2" text-anchor="middle" font-size="5.3" font-family="Tahoma,Geneva,sans-serif" font-weight="bold" fill="rgb(100,100,100)">G</text><circle cx="315.3" cy="17.7" r="4.27" fill="lightgreen" stroke="#ccc" stroke-width="1.57"/><text x="315.3" y="19.8" text-anchor="middle" font-size="5.3" font-family="Tahoma,Geneva,sans-serif" font-weight="bold" fill="rgb(100,100,100)">G</text><circle cx="330.9" cy="21.4" r="4.27" fill="lightgreen" stroke="#ccc" stroke-width="1.57"/><text x="330.9" y="23.5" text-anchor="middle" font-size="5.3" font-family="Tahoma,Geneva,sans-serif" font-weight="bold" fill="rgb(100,100,100)">U</text><circle cx="343.5" cy="11.4" r="4.27" fill="lightgreen" stroke="#ccc" stroke-width="1.57"/><text x="343.5" y="13.6" text-anchor="middle" font-size="5.3" font-family="Tahoma,Geneva,sans-serif" font-weight="bold" fill="rgb(100,100,100)">G</text><circle cx="343.4" cy="-4.6" r="4.27" fill="lightgreen" stroke="#ccc" stroke-width="1.57"/><text x="343.4" y="-2.5" text-anchor="middle" font-size="5.3" font-family="Tahoma,Geneva,sans-serif" font-weight="bold" fill="rgb(100,100,100)">G</text><circle cx="329.7" cy="-9.4" r="4.27" fill="lightblue" stroke="#ccc" stroke-width="1.57"/><text x="329.7" y="-7.3" text-anchor="middle" font-size="5.3" font-family="Tahoma,Geneva,sans-serif" font-weight="bold" fill="rgb(100,100,100)">G</text><circle cx="315.1" cy="-10.5" r="4.27" fill="lightgreen" stroke="#ccc" stroke-width="1.57"/><text x="315.1" y="-8.3" text-anchor="middle" font-size="5.3" font-family="Tahoma,Geneva,sans-serif" font-weight="bold" fill="rgb(100,100,100)">C</text><circle cx="301.6" cy="-16.9" r="4.27" fill="lightgreen" stroke="#ccc" stroke-width="1.57"/><text x="301.6" y="-14.8" text-anchor="middle" font-size="5.3" font-family="Tahoma,Geneva,sans-serif" font-weight="bold" fill="rgb(100,100,100)">A</text><circle cx="288.1" cy="-23.4" r="4.27" fill="lightgreen" stroke="#ccc" stroke-width="1.57"/><text x="288.1" y="-21.3" text-anchor="middle" font-size="5.3" font-family="Tahoma,Geneva,sans-serif" font-weight="bold" fill="rgb(100,100,100)">G</text><circle cx="274.6" cy="-29.9" r="4.27" fill="lightgreen" stroke="#ccc" stroke-width="1.57"/><text x="274.6" y="-27.8" text-anchor="middle" font-size="5.3" font-family="Tahoma,Geneva,sans-serif" font-weight="bold" fill="rgb(100,100,100)">C</text><circle cx="261.1" cy="-36.6" r="4.27" fill="lightgreen" stroke="#ccc" stroke-width="1.57"/><text x="261.1" y="-34.4" text-anchor="middle" font-size="5.3" font-family="Tahoma,Geneva,sans-serif" font-weight="bold" fill="rgb(100,100,100)">C</text><circle cx="247.8" cy="-43.5" r="4.27" fill="lightgreen" stroke="#ccc" stroke-width="1.57"/><text x="247.8" y="-41.3" text-anchor="middle" font-size="5.3" font-family="Tahoma,Geneva,sans-serif" font-weight="bold" fill="rgb(100,100,100)">U</text><circle cx="234.4" cy="-50.3" r="4.27" fill="lightgreen" stroke="#ccc" stroke-width="1.57"/><text x="234.4" y="-48.2" text-anchor="middle" font-size="5.3" font-family="Tahoma,Geneva,sans-serif" font-weight="bold" fill="rgb(100,100,100)">U</text><circle cx="221.1" cy="-57.2" r="4.27" fill="lightgreen" stroke="#ccc" stroke-width="1.57"/><text x="221.1" y="-55.0" text-anchor="middle" font-size="5.3" font-family="Tahoma,Geneva,sans-serif" font-weight="bold" fill="rgb(100,100,100)">C</text><circle cx="219.5" cy="-71.3" r="4.27" fill="#dbdb8d" stroke="#ccc" stroke-width="1.57"/><text x="219.5" y="-69.2" text-anchor="middle" font-size="5.3" font-family="Tahoma,Geneva,sans-serif" font-weight="bold" fill="rgb(100,100,100)">A</text><circle cx="207.3" cy="-64.1" r="4.27" fill="lightgreen" stroke="#ccc" stroke-width="1.57"/><text x="207.3" y="-61.9" text-anchor="middle" font-size="5.3" font-family="Tahoma,Geneva,sans-serif" font-weight="bold" fill="rgb(100,100,100)">U</text><circle cx="193.8" cy="-70.5" r="4.27" fill="lightgreen" stroke="#ccc" stroke-width="1.57"/><text x="193.8" y="-68.4" text-anchor="middle" font-size="5.3" font-family="Tahoma,Geneva,sans-serif" font-weight="bold" fill="rgb(100,100,100)">G</text><circle cx="180.2" cy="-77.0" r="4.27" fill="lightgreen" stroke="#ccc" stroke-width="1.57"/><text x="180.2" y="-74.9" text-anchor="middle" font-size="5.3" font-family="Tahoma,Geneva,sans-serif" font-weight="bold" fill="rgb(100,100,100)">U</text><circle cx="188.1" cy="-89.2" r="4.27" fill="#dbdb8d" stroke="#ccc" stroke-width="1.57"/><text x="188.1" y="-87.1" text-anchor="middle" font-size="5.3" font-family="Tahoma,Geneva,sans-serif" font-weight="bold" fill="rgb(100,100,100)">A</text><circle cx="182.4" cy="-102.1" r="4.27" fill="#dbdb8d" stroke="#ccc" stroke-width="1.57"/><text x="182.4" y="-99.9" text-anchor="middle" font-size="5.3" font-family="Tahoma,Geneva,sans-serif" font-weight="bold" fill="rgb(100,100,100)">U</text><circle cx="169.0" cy="-97.4" r="4.27" fill="#dbdb8d" stroke="#ccc" stroke-width="1.57"/><text x="169.0" y="-95.3" text-anchor="middle" font-size="5.3" font-family="Tahoma,Geneva,sans-serif" font-weight="bold" fill="rgb(100,100,100)">C</text><circle cx="165.2" cy="-83.4" r="4.27" fill="lightgreen" stroke="#ccc" stroke-width="1.57"/><text x="165.2" y="-81.3" text-anchor="middle" font-size="5.3" font-family="Tahoma,Geneva,sans-serif" font-weight="bold" fill="rgb(100,100,100)">G</text><circle cx="151.2" cy="-88.7" r="4.27" fill="lightgreen" stroke="#ccc" stroke-width="1.57"/><text x="151.2" y="-86.6" text-anchor="middle" font-size="5.3" font-family="Tahoma,Geneva,sans-serif" font-weight="bold" fill="rgb(100,100,100)">G</text><circle cx="137.2" cy="-94.0" r="4.27" fill="lightgreen" stroke="#ccc" stroke-width="1.57"/><text x="137.2" y="-91.9" text-anchor="middle" font-size="5.3" font-family="Tahoma,Geneva,sans-serif" font-weight="bold" fill="rgb(100,100,100)">U</text><circle cx="123.1" cy="-99.3" r="4.27" fill="lightgreen" stroke="#ccc" stroke-width="1.57"/><text x="123.1" y="-97.1" text-anchor="middle" font-size="5.3" font-family="Tahoma,Geneva,sans-serif" font-weight="bold" fill="rgb(100,100,100)">A</text><circle cx="109.1" cy="-104.6" r="4.27" fill="lightgreen" stroke="#ccc" stroke-width="1.57"/><text x="109.1" y="-102.4" text-anchor="middle" font-size="5.3" font-family="Tahoma,Geneva,sans-serif" font-weight="bold" fill="rgb(100,100,100)">U</text><circle cx="105.9" cy="-118.4" r="4.27" fill="#dbdb8d" stroke="#ccc" stroke-width="1.57"/><text x="105.9" y="-116.3" text-anchor="middle" font-size="5.3" font-family="Tahoma,Geneva,sans-serif" font-weight="bold" fill="rgb(100,100,100)">A</text><circle cx="94.6" cy="-109.8" r="4.27" fill="lightgreen" stroke="#ccc" stroke-width="1.57"/><text x="94.6" y="-107.7" text-anchor="middle" font-size="5.3" font-family="Tahoma,Geneva,sans-serif" font-weight="bold" fill="rgb(100,100,100)">C</text><circle cx="80.4" cy="-114.7" r="4.27" fill="lightgreen" stroke="#ccc" stroke-width="1.57"/><text x="80.4" y="-112.5" text-anchor="middle" font-size="5.3" font-family="Tahoma,Geneva,sans-serif" font-weight="bold" fill="rgb(100,100,100)">G</text><circle cx="66.2" cy="-119.6" r="4.27" fill="lightgreen" stroke="#ccc" stroke-width="1.57"/><text x="66.2" y="-117.4" text-anchor="middle" font-size="5.3" font-family="Tahoma,Geneva,sans-serif" font-weight="bold" fill="rgb(100,100,100)">A</text><circle cx="52.0" cy="-124.4" r="4.27" fill="lightgreen" stroke="#ccc" stroke-width="1.57"/><text x="52.0" y="-122.3" text-anchor="middle" font-size="5.3" font-family="Tahoma,Geneva,sans-serif" font-weight="bold" fill="rgb(100,100,100)">A</text><circle cx="37.8" cy="-129.3" r="4.27" fill="lightgreen" stroke="#ccc" stroke-width="1.57"/><text x="37.8" y="-127.2" text-anchor="middle" font-size="5.3" font-family="Tahoma,Geneva,sans-serif" font-weight="bold" fill="rgb(100,100,100)">G</text><circle cx="23.7" cy="-134.2" r="4.27" fill="lightgreen" stroke="#ccc" stroke-width="1.57"/><text x="23.7" y="-132.1" text-anchor="middle" font-size="5.3" font-family="Tahoma,Geneva,sans-serif" font-weight="bold" fill="rgb(100,100,100)">U</text><circle cx="9.5" cy="-139.1" r="4.27" fill="lightgreen" stroke="#ccc" stroke-width="1.57"/><text x="9.5" y="-136.9" text-anchor="middle" font-size="5.3" font-family="Tahoma,Geneva,sans-serif" font-weight="bold" fill="rgb(100,100,100)">A</text><circle cx="7.2" cy="-147.5" r="4.27" fill="lightgreen" stroke="#ccc" stroke-width="1.57"/><text x="7.2" y="-145.3" text-anchor="middle" font-size="5.3" font-family="Tahoma,Geneva,sans-serif" font-weight="bold" fill="rgb(100,100,100)">C</text><circle cx="1.8" cy="-154.1" r="4.27" fill="lightgreen" stroke="#ccc" stroke-width="1.57"/><text x="1.8" y="-152.0" text-anchor="middle" font-size="5.3" font-family="Tahoma,Geneva,sans-serif" font-weight="bold" fill="rgb(100,100,100)">C</text><circle cx="-5.8" cy="-158.0" r="4.27" fill="lightgreen" stroke="#ccc" stroke-width="1.57"/><text x="-5.8" y="-155.8" text-anchor="middle" font-size="5.3" font-family="Tahoma,Geneva,sans-serif" font-weight="bold" fill="rgb(100,100,100)">A</text><circle cx="-14.2" cy="-158.4" r="4.27" fill="lightgreen" stroke="#ccc" stroke-width="1.57"/><text x="-14.2" y="-156.3" text-anchor="middle" font-size="5.3" font-family="Tahoma,Geneva,sans-serif" font-weight="bold" fill="rgb(100,100,100)">U</text></svg>