<svg xmlns="http://www.w3.org/2000/svg" viewBox="-99.6 -263.0 400.0 435.5" width="400" height="435"><style></style><line x1="-43.2" y1="-218.4" x2="-52.2" y2="-206.5" stroke="#999" stroke-width="1.64" stroke-opacity="0.8"/><line x1="-31.2" y1="-209.4" x2="-40.3" y2="-197.4" stroke="#999" stroke-width="1.64" stroke-opacity="0.8"/><line x1="-19.2" y1="-200.3" x2="-28.3" y2="-188.3" stroke="#999" stroke-width="1.64" stroke-opacity="0.8"/><line x1="-7.3" y1="-191.2" x2="-16.3" y2="-179.3" stroke="#999" stroke-width="1.64" stroke-opacity="0.8"/><line x1="13.9" y1="-175.2" x2="4.8" y2="-163.3" stroke="#999" stroke-width="1.64" stroke-opacity="0.8"/><line x1="25.8" y1="-166.2" x2="16.7" y2="-154.2" stroke="#999" stroke-width="1.64" stroke-opacity="0.8"/><line x1="37.8" y1="-157.1" x2="28.7" y2="-145.1" stroke="#999" stroke-width="1.64" stroke-opacity="0.8"/><line x1="49.7" y1="-148.0" x2="40.7" y2="-136.1" stroke="#999" stroke-width="1.64" stroke-opacity="0.8"/><line x1="61.7" y1="-139.0" x2="52.6" y2="-127.0" stroke="#999" stroke-width="1.64" stroke-opacity="0.8"/><line x1="73.6" y1="-129.9" x2="64.6" y2="-118.0" stroke="#999" stroke-width="1.64" stroke-opacity="0.8"/><line x1="85.6" y1="-120.9" x2="76.5" y2="-108.9" stroke="#999" stroke-width="1.64" stroke-opacity="0.8"/><line x1="97.5" y1="-111.8" x2="88.5" y2="-99.8" stroke="#999" stroke-width="1.64" stroke-opacity="0.8"/><line x1="91.0" y1="-47.0" x2="106.0" y2="-46.5" stroke="#999" stroke-width="1.64" stroke-opacity="0.8"/><line x1="91.4" y1="-61.9" x2="106.4" y2="-61.5" stroke="#999" stroke-width="1.64" stroke-opacity="0.8"/><line x1="91.8" y1="-76.9" x2="106.8" y2="-76.5" stroke="#999" stroke-width="1.64" stroke-opacity="0.8"/><line x1="92.3" y1="-91.9" x2="107.3" y2="-91.5" stroke="#999" stroke-width="1.64" stroke-opacity="0.8"/><line x1="169.8" y1="-10.6" x2="116.5" y2="-79.7" stroke="#d9534f" stroke-width="1.64" stroke-opacity="0.6"/><line x1="178.0" y1="2.0" x2="127.6" y2="-69.6" stroke="#d9534f" stroke-width="1.64" stroke-opacity="0.6"/><line x1="184.0" y1="15.7" x2="140.3" y2="-61.6" stroke="#d9534f" stroke-width="1.64" stroke-opacity="0.6"/><line x1="187.8" y1="30.3" x2="154.1" y2="-55.8" stroke="#d9534f" stroke-width="1.64" stroke-opacity="0.6"/><line x1="189.2" y1="45.3" x2="213.0" y2="-58.1" stroke="#d9534f" stroke-width="1.64" stroke-opacity="0.6"/><line x1="188.1" y1="60.2" x2="226.4" y2="-64.8" stroke="#d9534f" stroke-width="1.64" stroke-opacity="0.6"/><line x1="184.7" y1="74.9" x2="238.4" y2="-73.8" stroke="#d9534f" stroke-width="1.64" stroke-opacity="0.6"/><line x1="179.0" y1="88.8" x2="248.7" y2="-84.7" stroke="#d9534f" stroke-width="1.64" stroke-opacity="0.6"/><line x1="171.1" y1="101.6" x2="257.0" y2="-97.2" stroke="#d9534f" stroke-width="1.64" stroke-opacity="0.6"/><line x1="161.3" y1="112.9" x2="263.0" y2="-110.9" stroke="#d9534f" stroke-width="1.64" stroke-opacity="0.6"/><line x1="149.7" y1="122.6" x2="266.6" y2="-125.5" stroke="#d9534f" stroke-width="1.64" stroke-opacity="0.6"/><line x1="136.8" y1="130.3" x2="267.7" y2="-140.5" stroke="#d9534f" stroke-width="1.64" stroke-opacity="0.6"/><line x1="108.1" y1="138.9" x2="262.1" y2="-169.8" stroke="#d9534f" stroke-width="1.64" stroke-opacity="0.6"/><line x1="93.1" y1="139.7" x2="255.6" y2="-183.4" stroke="#d9534f" stroke-width="1.64" stroke-opacity="0.6"/><line x1="78.1" y1="138.1" x2="246.9" y2="-195.6" stroke="#d9534f" stroke-width="1.64" stroke-opacity="0.6"/><line x1="63.7" y1="134.0" x2="236.2" y2="-206.1" stroke="#d9534f" stroke-width="1.64" stroke-opacity="0.6"/><line x1="50.0" y1="127.8" x2="223.9" y2="-214.7" stroke="#d9534f" stroke-width="1.64" stroke-opacity="0.6"/><line x1="2.8" y1="54.9" x2="210.3" y2="-221.0" stroke="#d9534f" stroke-width="1.64" stroke-opacity="0.6"/><line x1="2.6" y1="39.9" x2="195.8" y2="-224.9" stroke="#d9534f" stroke-width="1.64" stroke-opacity="0.6"/><line x1="4.8" y1="25.0" x2="180.9" y2="-226.3" stroke="#d9534f" stroke-width="1.64" stroke-opacity="0.6"/><line x1="9.4" y1="10.7" x2="165.9" y2="-225.1" stroke="#d9534f" stroke-width="1.64" stroke-opacity="0.6"/><line x1="16.3" y1="-2.7" x2="151.4" y2="-221.3" stroke="#d9534f" stroke-width="1.64" stroke-opacity="0.6"/><line x1="48.2" y1="-34.0" x2="125.3" y2="-206.7" stroke="#d9534f" stroke-width="1.64" stroke-opacity="0.6"/><line x1="61.7" y1="-40.6" x2="114.6" y2="-196.2" stroke="#d9534f" stroke-width="1.64" stroke-opacity="0.6"/><line x1="76.1" y1="-45.0" x2="105.7" y2="-184.1" stroke="#d9534f" stroke-width="1.64" stroke-opacity="0.6"/><line x1="106.0" y1="-127.7" x2="97.5" y2="-111.8" stroke="#999" stroke-width="1.64" stroke-opacity="0.8"/><line x1="97.5" y1="-111.8" x2="85.6" y2="-120.9" stroke="#999" stroke-width="1.64" stroke-opacity="0.8"/><line x1="85.6" y1="-120.9" x2="73.6" y2="-129.9" stroke="#999" stroke-width="1.64" stroke-opacity="0.8"/><line x1="73.6" y1="-129.9" x2="61.7" y2="-139.0" stroke="#999" stroke-width="1.64" stroke-opacity="0.8"/><line x1="61.7" y1="-139.0" x2="49.7" y2="-148.0" stroke="#999" stroke-width="1.64" stroke-opacity="0.8"/><line x1="49.7" y1="-148.0" x2="37.8" y2="-157.1" stroke="#999" stroke-width="1.64" stroke-opacity="0.8"/><line x1="37.8" y1="-157.1" x2="25.8" y2="-166.2" stroke="#999" stroke-width="1.64" stroke-opacity="0.8"/><line x1="25.8" y1="-166.2" x2="13.9" y2="-175.2" stroke="#999" stroke-width="1.64" stroke-opacity="0.8"/><line x1="13.9" y1="-175.2" x2="7.4" y2="-188.6" stroke="#999" stroke-width="1.64" stroke-opacity="0.8"/><line x1="7.4" y1="-188.6" x2="-7.3" y2="-191.2" stroke="#999" stroke-width="1.64" stroke-opacity="0.8"/><line x1="-7.3" y1="-191.2" x2="-19.2" y2="-200.3" stroke="#999" stroke-width="1.64" stroke-opacity="0.8"/><line x1="-19.2" y1="-200.3" x2="-31.2" y2="-209.4" stroke="#999" stroke-width="1.64" stroke-opacity="0.8"/><line x1="-31.2" y1="-209.4" x2="-43.2" y2="-218.4" stroke="#999" stroke-width="1.64" stroke-opacity="0.8"/><line x1="-43.2" y1="-218.4" x2="-52.3" y2="-230.2" stroke="#999" stroke-width="1.64" stroke-opacity="0.8"/><line x1="-52.3" y1="-230.2" x2="-66.8" y2="-226.9" stroke="#999" stroke-width="1.64" stroke-opacity="0.8"/><line x1="-66.8" y1="-226.9" x2="-66.0" y2="-212.0" stroke="#999" stroke-width="1.64" stroke-opacity="0.8"/><line x1="-66.0" y1="-212.0" x2="-52.2" y2="-206.5" stroke="#999" stroke-width="1.64" stroke-opacity="0.8"/><line x1="-52.2" y1="-206.5" x2="-40.3" y2="-197.4" stroke="#999" stroke-width="1.64" stroke-opacity="0.8"/><line x1="-40.3" y1="-197.4" x2="-28.3" y2="-188.3" stroke="#999" stroke-width="1.64" stroke-opacity="0.8"/><line x1="-28.3" y1="-188.3" x2="-16.3" y2="-179.3" stroke="#999" stroke-width="1.64" stroke-opacity="0.8"/><line x1="-16.3" y1="-179.3" x2="-9.9" y2="-165.9" stroke="#999" stroke-width="1.64" stroke-opacity="0.8"/><line x1="-9.9" y1="-165.9" x2="4.8" y2="-163.3" stroke="#999" stroke-width="1.64" stroke-opacity="0.8"/><line x1="4.8" y1="-163.3" x2="16.7" y2="-154.2" stroke="#999" stroke-width="1.64" stroke-opacity="0.8"/><line x1="16.7" y1="-154.2" x2="28.7" y2="-145.1" stroke="#999" stroke-width="1.64" stroke-opacity="0.8"/><line x1="28.7" y1="-145.1" x2="40.7" y2="-136.1" stroke="#999" stroke-width="1.64" stroke-opacity="0.8"/><line x1="40.7" y1="-136.1" x2="52.6" y2="-127.0" stroke="#999" stroke-width="1.64" stroke-opacity="0.8"/><line x1="52.6" y1="-127.0" x2="64.6" y2="-118.0" stroke="#999" stroke-width="1.64" stroke-opacity="0.8"/><line x1="64.6" y1="-118.0" x2="76.5" y2="-108.9" stroke="#999" stroke-width="1.64" stroke-opacity="0.8"/><line x1="76.5" y1="-108.9" x2="88.5" y2="-99.8" stroke="#999" stroke-width="1.64" stroke-opacity="0.8"/><line x1="88.5" y1="-99.8" x2="77.2" y2="-89.6" stroke="#999" stroke-width="1.64" stroke-opacity="0.8"/><line x1="77.2" y1="-89.6" x2="92.3" y2="-91.9" stroke="#999" stroke-width="1.64" stroke-opacity="0.8"/><line x1="92.3" y1="-91.9" x2="91.8" y2="-76.9" stroke="#999" stroke-width="1.64" stroke-opacity="0.8"/><line x1="91.8" y1="-76.9" x2="91.4" y2="-61.9" stroke="#999" stroke-width="1.64" stroke-opacity="0.8"/><line x1="91.4" y1="-61.9" x2="91.0" y2="-47.0" stroke="#999" stroke-width="1.64" stroke-opacity="0.8"/><line x1="91.0" y1="-47.0" x2="76.1" y2="-45.0" stroke="#999" stroke-width="1.64" stroke-opacity="0.8"/><line x1="76.1" y1="-45.0" x2="61.7" y2="-40.6" stroke="#999" stroke-width="1.64" stroke-opacity="0.8"/><line x1="61.7" y1="-40.6" x2="48.2" y2="-34.0" stroke="#999" stroke-width="1.64" stroke-opacity="0.8"/><line x1="48.2" y1="-34.0" x2="36.1" y2="-25.1" stroke="#999" stroke-width="1.64" stroke-opacity="0.8"/><line x1="36.1" y1="-25.1" x2="25.4" y2="-14.6" stroke="#999" stroke-width="1.64" stroke-opacity="0.8"/><line x1="25.4" y1="-14.6" x2="16.3" y2="-2.7" stroke="#999" stroke-width="1.64" stroke-opacity="0.8"/><line x1="16.3" y1="-2.7" x2="9.4" y2="10.7" stroke="#999" stroke-width="1.64" stroke-opacity="0.8"/><line x1="9.4" y1="10.7" x2="4.8" y2="25.0" stroke="#999" stroke-width="1.64" stroke-opacity="0.8"/><line x1="4.8" y1="25.0" x2="2.6" y2="39.9" stroke="#999" stroke-width="1.64" stroke-opacity="0.8"/><line x1="2.6" y1="39.9" x2="2.8" y2="54.9" stroke="#999" stroke-width="1.64" stroke-opacity="0.8"/><line x1="2.8" y1="54.9" x2="5.6" y2="69.6" stroke="#999" stroke-width="1.64" stroke-opacity="0.8"/><line x1="5.6" y1="69.6" x2="10.5" y2="83.8" stroke="#999" stroke-width="1.64" stroke-opacity="0.8"/><line x1="10.5" y1="83.8" x2="17.6" y2="97.0" stroke="#999" stroke-width="1.64" stroke-opacity="0.8"/><line x1="17.6" y1="97.0" x2="26.8" y2="108.9" stroke="#999" stroke-width="1.64" stroke-opacity="0.8"/><line x1="26.8" y1="108.9" x2="37.7" y2="119.1" stroke="#999" stroke-width="1.64" stroke-opacity="0.8"/><line x1="37.7" y1="119.1" x2="50.0" y2="127.8" stroke="#999" stroke-width="1.64" stroke-opacity="0.8"/><line x1="50.0" y1="127.8" x2="63.7" y2="134.0" stroke="#999" stroke-width="1.64" stroke-opacity="0.8"/><line x1="63.7" y1="134.0" x2="78.1" y2="138.1" stroke="#999" stroke-width="1.64" stroke-opacity="0.8"/><line x1="78.1" y1="138.1" x2="93.1" y2="139.7" stroke="#999" stroke-width="1.64" stroke-opacity="0.8"/><line x1="93.1" y1="139.7" x2="108.1" y2="138.9" stroke="#999" stroke-width="1.64" stroke-opacity="0.8"/><line x1="108.1" y1="138.9" x2="122.7" y2="135.5" stroke="#999" stroke-width="1.64" stroke-opacity="0.8"/><line x1="122.7" y1="135.5" x2="136.8" y2="130.3" stroke="#999" stroke-width="1.64" stroke-opacity="0.8"/><line x1="136.8" y1="130.3" x2="149.7" y2="122.6" stroke="#999" stroke-width="1.64" stroke-opacity="0.8"/><line x1="149.7" y1="122.6" x2="161.3" y2="112.9" stroke="#999" stroke-width="1.64" stroke-opacity="0.8"/><line x1="161.3" y1="112.9" x2="171.1" y2="101.6" stroke="#999" stroke-width="1.64" stroke-opacity="0.8"/><line x1="171.1" y1="101.6" x2="179.0" y2="88.8" stroke="#999" stroke-width="1.64" stroke-opacity="0.8"/><line x1="179.0" y1="88.8" x2="184.7" y2="74.9" stroke="#999" stroke-width="1.64" stroke-opacity="0.8"/><line x1="184.7" y1="74.9" x2="188.1" y2="60.2" stroke="#999" stroke-width="1.64" stroke-opacity="0.8"/><line x1="188.1" y1="60.2" x2="189.2" y2="45.3" stroke="#999" stroke-width="1.64" stroke-opacity="0.8"/><line x1="189.2" y1="45.3" x2="187.8" y2="30.3" stroke="#999" stroke-width="1.64" stroke-opacity="0.8"/><line x1="187.8" y1="30.3" x2="184.0" y2="15.7" stroke="#999" stroke-width="1.64" stroke-opacity="0.8"/><line x1="184.0" y1="15.7" x2="178.0" y2="2.0" stroke="#999" stroke-width="1.64" stroke-opacity="0.8"/><line x1="178.0" y1="2.0" x2="169.8" y2="-10.6" stroke="#999" stroke-width="1.64" stroke-opacity="0.8"/><line x1="169.8" y1="-10.6" x2="159.5" y2="-21.6" stroke="#999" stroke-width="1.64" stroke-opacity="0.8"/><line x1="159.5" y1="-21.6" x2="147.8" y2="-30.9" stroke="#999" stroke-width="1.64" stroke-opacity="0.8"/><line x1="147.8" y1="-30.9" x2="134.7" y2="-38.3" stroke="#999" stroke-width="1.64" stroke-opacity="0.8"/><line x1="134.7" y1="-38.3" x2="120.6" y2="-43.4" stroke="#999" stroke-width="1.64" stroke-opacity="0.8"/><line x1="120.6" y1="-43.4" x2="106.0" y2="-46.5" stroke="#999" stroke-width="1.64" stroke-opacity="0.8"/><line x1="106.0" y1="-46.5" x2="106.4" y2="-61.5" stroke="#999" stroke-width="1.64" stroke-opacity="0.8"/><line x1="106.4" y1="-61.5" x2="106.8" y2="-76.5" stroke="#999" stroke-width="1.64" stroke-opacity="0.8"/><line x1="106.8" y1="-76.5" x2="107.3" y2="-91.5" stroke="#999" stroke-width="1.64" stroke-opacity="0.8"/><line x1="107.3" y1="-91.5" x2="116.5" y2="-79.7" stroke="#999" stroke-width="1.64" stroke-opacity="0.8"/><line x1="116.5" y1="-79.7" x2="127.6" y2="-69.6" stroke="#999" stroke-width="1.64" stroke-opacity="0.8"/><line x1="127.6" y1="-69.6" x2="140.3" y2="-61.6" stroke="#999" stroke-width="1.64" stroke-opacity="0.8"/><line x1="140.3" y1="-61.6" x2="154.1" y2="-55.8" stroke="#999" stroke-width="1.64" stroke-opacity="0.8"/><line x1="154.1" y1="-55.8" x2="168.8" y2="-52.8" stroke="#999" stroke-width="1.64" stroke-opacity="0.8"/><line x1="168.8" y1="-52.8" x2="183.7" y2="-52.1" stroke="#999" stroke-width="1.64" stroke-opacity="0.8"/><line x1="183.7" y1="-52.1" x2="198.6" y2="-53.9" stroke="#999" stroke-width="1.64" stroke-opacity="0.8"/><line x1="198.6" y1="-53.9" x2="213.0" y2="-58.1" stroke="#999" stroke-width="1.64" stroke-opacity="0.8"/><line x1="213.0" y1="-58.1" x2="226.4" y2="-64.8" stroke="#999" stroke-width="1.64" stroke-opacity="0.8"/><line x1="226.4" y1="-64.8" x2="238.4" y2="-73.8" stroke="#999" stroke-width="1.64" stroke-opacity="0.8"/><line x1="238.4" y1="-73.8" x2="248.7" y2="-84.7" stroke="#999" stroke-width="1.64" stroke-opacity="0.8"/><line x1="248.7" y1="-84.7" x2="257.0" y2="-97.2" stroke="#999" stroke-width="1.64" stroke-opacity="0.8"/><line x1="257.0" y1="-97.2" x2="263.0" y2="-110.9" stroke="#999" stroke-width="1.64" stroke-opacity="0.8"/><line x1="263.0" y1="-110.9" x2="266.6" y2="-125.5" stroke="#999" stroke-width="1.64" stroke-opacity="0.8"/><line x1="266.6" y1="-125.5" x2="267.7" y2="-140.5" stroke="#999" stroke-width="1.64" stroke-opacity="0.8"/><line x1="267.7" y1="-140.5" x2="265.9" y2="-155.3" stroke="#999" stroke-width="1.64" stroke-opacity="0.8"/><line x1="265.9" y1="-155.3" x2="262.1" y2="-169.8" stroke="#999" stroke-width="1.64" stroke-opacity="0.8"/><line x1="262.1" y1="-169.8" x2="255.6" y2="-183.4" stroke="#999" stroke-width="1.64" stroke-opacity="0.8"/><line x1="255.6" y1="-183.4" x2="246.9" y2="-195.6" stroke="#999" stroke-width="1.64" stroke-opacity="0.8"/><line x1="246.9" y1="-195.6" x2="236.2" y2="-206.1" stroke="#999" stroke-width="1.64" stroke-opacity="0.8"/><line x1="236.2" y1="-206.1" x2="223.9" y2="-214.7" stroke="#999" stroke-width="1.64" stroke-opacity="0.8"/><line x1="223.9" y1="-214.7" x2="210.3" y2="-221.0" stroke="#999" stroke-width="1.64" stroke-opacity="0.8"/><line x1="210.3" y1="-221.0" x2="195.8" y2="-224.9" stroke="#999" stroke-width="1.64" stroke-opacity="0.8"/><line x1="195.8" y1="-224.9" x2="180.9" y2="-226.3" stroke="#999" stroke-width="1.64" stroke-opacity="0.8"/><line x1="180.9" y1="-226.3" x2="165.9" y2="-225.1" stroke="#999" stroke-width="1.64" stroke-opacity="0.8"/><line x1="165.9" y1="-225.1" x2="151.4" y2="-221.3" stroke="#999" stroke-width="1.64" stroke-opacity="0.8"/><line x1="151.4" y1="-221.3" x2="137.8" y2="-214.9" stroke="#999" stroke-width="1.64" stroke-opacity="0.8"/><line x1="137.8" y1="-214.9" x2="125.3" y2="-206.7" stroke="#999" stroke-width="1.64" stroke-opacity="0.8"/><line x1="125.3" y1="-206.7" x2="114.6" y2="-196.2" stroke="#999" stroke-width="1.64" stroke-opacity="0.8"/><line x1="114.6" y1="-196.2" x2="105.7" y2="-184.1" stroke="#999" stroke-width="1.64" stroke-opacity="0.8"/><line x1="105.7" y1="-184.1" x2="99.5" y2="-167.6" stroke="#999" stroke-width="1.64" stroke-opacity="0.8"/><line x1="99.5" y1="-167.6" x2="93.3" y2="-151.0" stroke="#999" stroke-width="1.64" stroke-opacity="0.8"/><text x="90.2" y="-133.3" text-anchor="middle" font-size="7.7" font-family="Tahoma,Geneva,sans-serif" fill="#999">1</text><text x="18.2" y="-200.2" text-anchor="middle" font-size="7.7" font-family="Tahoma,Geneva,sans-serif" fill="#999">10</text><text x="-39.1" y="-171.4" text-anchor="middle" font-size="7.7" font-family="Tahoma,Geneva,sans-serif" fill="#999">20</text><text x="70.6" y="-96.5" text-anchor="middle" font-size="7.7" font-family="Tahoma,Geneva,sans-serif" fill="#999">30</text><text x="12.0" y="-23.7" text-anchor="middle" font-size="7.7" font-family="Tahoma,Geneva,sans-serif" fill="#999">40</text><text x="26.4" y="135.7" text-anchor="middle" font-size="7.7" font-family="Tahoma,Geneva,sans-serif" fill="#999">50</text><text x="185.5" y="114.9" text-anchor="middle" font-size="7.7" font-family="Tahoma,Geneva,sans-serif" fill="#999">60</text><text x="157.8" y="-43.0" text-anchor="middle" font-size="7.7" font-family="Tahoma,Geneva,sans-serif" fill="#999">70</text><text x="159.4" y="-70.2" text-anchor="middle" font-size="7.7" font-family="Tahoma,Geneva,sans-serif" fill="#999">80</text><text x="284.3" y="-120.0" text-anchor="middle" font-size="7.7" font-family="Tahoma,Geneva,sans-serif" fill="#999">90</text><text x="181.0" y="-241.4" text-anchor="middle" font-size="7.7" font-family="Tahoma,Geneva,sans-serif" fill="#999">100</text><circle cx="106.0" cy="-127.7" r="4.47" fill="lightsalmon" stroke="#ccc" stroke-width="1.64"/><text x="106.0" y="-125.4" text-anchor="middle" font-size="5.6" font-family="Tahoma,Geneva,sans-serif" font-weight="bold" fill="rgb(100,100,100)">G</text><circle cx="97.5" cy="-111.8" r="4.47" fill="lightgreen" stroke="#ccc" stroke-width="1.64"/><text x="97.5" y="-109.6" text-anchor="middle" font-size="5.6" font-family="Tahoma,Geneva,sans-serif" font-weight="bold" fill="rgb(100,100,100)">A</text><circle cx="85.6" cy="-120.9" r="4.47" fill="lightgreen" stroke="#ccc" stroke-width="1.64"/><text x="85.6" y="-118.6" text-anchor="middle" font-size="5.6" font-family="Tahoma,Geneva,sans-serif" font-weight="bold" fill="rgb(100,100,100)">C</text><circle cx="73.6" cy="-129.9" r="4.47" fill="lightgreen" stroke="#ccc" stroke-width="1.64"/><text x="73.6" y="-127.7" text-anchor="middle" font-size="5.6" font-family="Tahoma,Geneva,sans-serif" font-weight="bold" fill="rgb(100,100,100)">G</text><circle cx="61.7" cy="-139.0" r="4.47" fill="lightgreen" stroke="#ccc" stroke-width="1.64"/><text x="61.7" y="-136.7" text-anchor="middle" font-size="5.6" font-family="Tahoma,Geneva,sans-serif" font-weight="bold" fill="rgb(100,100,100)">G</text><circle cx="49.7" cy="-148.0" r="4.47" fill="lightgreen" stroke="#ccc" stroke-width="1.64"/><text x="49.7" y="-145.8" text-anchor="middle" font-size="5.6" font-family="Tahoma,Geneva,sans-serif" font-weight="bold" fill="rgb(100,100,100)">C</text><circle cx="37.8" cy="-157.1" r="4.47" fill="lightgreen" stroke="#ccc" stroke-width="1.64"/><text x="37.8" y="-154.9" text-anchor="middle" font-size="5.6" font-family="Tahoma,Geneva,sans-serif" font-weight="bold" fill="rgb(100,100,100)">G</text><circle cx="25.8" cy="-166.2" r="4.47" fill="lightgreen" stroke="#ccc" stroke-width="1.64"/><text x="25.8" y="-163.9" text-anchor="middle" font-size="5.6" font-family="Tahoma,Geneva,sans-serif" font-weight="bold" fill="rgb(100,100,100)">C</text><circle cx="13.9" cy="-175.2" r="4.47" fill="lightgreen" stroke="#ccc" stroke-width="1.64"/><text x="13.9" y="-173.0" text-anchor="middle" font-size="5.6" font-family="Tahoma,Geneva,sans-serif" font-weight="bold" fill="rgb(100,100,100)">U</text><circle cx="7.4" cy="-188.6" r="4.47" fill="#dbdb8d" stroke="#ccc" stroke-width="1.64"/><text x="7.4" y="-186.4" text-anchor="middle" font-size="5.6" font-family="Tahoma,Geneva,sans-serif" font-weight="bold" fill="rgb(100,100,100)">A</text><circle cx="-7.3" cy="-191.2" r="4.47" fill="lightgreen" stroke="#ccc" stroke-width="1.64"/><text x="-7.3" y="-189.0" text-anchor="middle" font-size="5.6" font-family="Tahoma,Geneva,sans-serif" font-weight="bold" fill="rgb(100,100,100)">C</text><circle cx="-19.2" cy="-200.3" r="4.47" fill="lightgreen" stroke="#ccc" stroke-width="1.64"/><text x="-19.2" y="-198.1" text-anchor="middle" font-size="5.6" font-family="Tahoma,Geneva,sans-serif" font-weight="bold" fill="rgb(100,100,100)">G</text><circle cx="-31.2" cy="-209.4" r="4.47" fill="lightgreen" stroke="#ccc" stroke-width="1.64"/><text x="-31.2" y="-207.1" text-anchor="middle" font-size="5.6" font-family="Tahoma,Geneva,sans-serif" font-weight="bold" fill="rgb(100,100,100)">U</text><circle cx="-43.2" cy="-218.4" r="4.47" fill="lightgreen" stroke="#ccc" stroke-width="1.64"/><text x="-43.2" y="-216.2" text-anchor="middle" font-size="5.6" font-family="Tahoma,Geneva,sans-serif" font-weight="bold" fill="rgb(100,100,100)">C</text><circle cx="-52.3" cy="-230.2" r="4.47" fill="lightblue" stroke="#ccc" stroke-width="1.64"/><text x="-52.3" y="-228.0" text-anchor="middle" font-size="5.6" font-family="Tahoma,Geneva,sans-serif" font-weight="bold" fill="rgb(100,100,100)">U</text><circle cx="-66.8" cy="-226.9" r="4.47" fill="lightblue" stroke="#ccc" stroke-width="1.64"/><text x="-66.8" y="-224.7" text-anchor="middle" font-size="5.6" font-family="Tahoma,Geneva,sans-serif" font-weight="bold" fill="rgb(100,100,100)">A</text><circle cx="-66.0" cy="-212.0" r="4.47" fill="lightblue" stroke="#ccc" stroke-width="1.64"/><text x="-66.0" y="-209.8" text-anchor="middle" font-size="5.6" font-family="Tahoma,Geneva,sans-serif" font-weight="bold" fill="rgb(100,100,100)">U</text><circle cx="-52.2" cy="-206.5" r="4.47" fill="lightgreen" stroke="#ccc" stroke-width="1.64"/><text x="-52.2" y="-204.2" text-anchor="middle" font-size="5.6" font-family="Tahoma,Geneva,sans-serif" font-weight="bold" fill="rgb(100,100,100)">G</text><circle cx="-40.3" cy="-197.4" r="4.47" fill="lightgreen" stroke="#ccc" stroke-width="1.64"/><text x="-40.3" y="-195.2" text-anchor="middle" font-size="5.6" font-family="Tahoma,Geneva,sans-serif" font-weight="bold" fill="rgb(100,100,100)">A</text><circle cx="-28.3" cy="-188.3" r="4.47" fill="lightgreen" stroke="#ccc" stroke-width="1.64"/><text x="-28.3" y="-186.1" text-anchor="middle" font-size="5.6" font-family="Tahoma,Geneva,sans-serif" font-weight="bold" fill="rgb(100,100,100)">C</text><circle cx="-16.3" cy="-179.3" r="4.47" fill="lightgreen" stroke="#ccc" stroke-width="1.64"/><text x="-16.3" y="-177.0" text-anchor="middle" font-size="5.6" font-family="Tahoma,Geneva,sans-serif" font-weight="bold" fill="rgb(100,100,100)">G</text><circle cx="-9.9" cy="-165.9" r="4.47" fill="#dbdb8d" stroke="#ccc" stroke-width="1.64"/><text x="-9.9" y="-163.6" text-anchor="middle" font-size="5.6" font-family="Tahoma,Geneva,sans-serif" font-weight="bold" fill="rgb(100,100,100)">A</text><circle cx="4.8" cy="-163.3" r="4.47" fill="lightgreen" stroke="#ccc" stroke-width="1.64"/><text x="4.8" y="-161.0" text-anchor="middle" font-size="5.6" font-family="Tahoma,Geneva,sans-serif" font-weight="bold" fill="rgb(100,100,100)">A</text><circle cx="16.7" cy="-154.2" r="4.47" fill="lightgreen" stroke="#ccc" stroke-width="1.64"/><text x="16.7" y="-152.0" text-anchor="middle" font-size="5.6" font-family="Tahoma,Geneva,sans-serif" font-weight="bold" fill="rgb(100,100,100)">G</text><circle cx="28.7" cy="-145.1" r="4.47" fill="lightgreen" stroke="#ccc" stroke-width="1.64"/><text x="28.7" y="-142.9" text-anchor="middle" font-size="5.6" font-family="Tahoma,Geneva,sans-serif" font-weight="bold" fill="rgb(100,100,100)">C</text><circle cx="40.7" cy="-136.1" r="4.47" fill="lightgreen" stroke="#ccc" stroke-width="1.64"/><text x="40.7" y="-133.8" text-anchor="middle" font-size="5.6" font-family="Tahoma,Geneva,sans-serif" font-weight="bold" fill="rgb(100,100,100)">G</text><circle cx="52.6" cy="-127.0" r="4.47" fill="lightgreen" stroke="#ccc" stroke-width="1.64"/><text x="52.6" y="-124.8" text-anchor="middle" font-size="5.6" font-family="Tahoma,Geneva,sans-serif" font-weight="bold" fill="rgb(100,100,100)">C</text><circle cx="64.6" cy="-118.0" r="4.47" fill="lightgreen" stroke="#ccc" stroke-width="1.64"/><text x="64.6" y="-115.7" text-anchor="middle" font-size="5.6" font-family="Tahoma,Geneva,sans-serif" font-weight="bold" fill="rgb(100,100,100)">C</text><circle cx="76.5" cy="-108.9" r="4.47" fill="lightgreen" stroke="#ccc" stroke-width="1.64"/><text x="76.5" y="-106.7" text-anchor="middle" font-size="5.6" font-family="Tahoma,Geneva,sans-serif" font-weight="bold" fill="rgb(100,100,100)">G</text><circle cx="88.5" cy="-99.8" r="4.47" fill="lightgreen" stroke="#ccc" stroke-width="1.64"/><text x="88.5" y="-97.6" text-anchor="middle" font-size="5.6" font-family="Tahoma,Geneva,sans-serif" font-weight="bold" fill="rgb(100,100,100)">U</text><circle cx="77.2" cy="-89.6" r="4.47" fill="lightsalmon" stroke="#ccc" stroke-width="1.64"/><text x="77.2" y="-87.3" text-anchor="middle" font-size="5.6" font-family="Tahoma,Geneva,sans-serif" font-weight="bold" fill="rgb(100,100,100)">A</text><circle cx="92.3" cy="-91.9" r="4.47" fill="lightgreen" stroke="#ccc" stroke-width="1.64"/><text x="92.3" y="-89.7" text-anchor="middle" font-size="5.6" font-family="Tahoma,Geneva,sans-serif" font-weight="bold" fill="rgb(100,100,100)">U</text><circle cx="91.8" cy="-76.9" r="4.47" fill="lightgreen" stroke="#ccc" stroke-width="1.64"/><text x="91.8" y="-74.7" text-anchor="middle" font-size="5.6" font-family="Tahoma,Geneva,sans-serif" font-weight="bold" fill="rgb(100,100,100)">G</text><circle cx="91.4" cy="-61.9" r="4.47" fill="lightgreen" stroke="#ccc" stroke-width="1.64"/><text x="91.4" y="-59.7" text-anchor="middle" font-size="5.6" font-family="Tahoma,Geneva,sans-serif" font-weight="bold" fill="rgb(100,100,100)">C</text><circle cx="91.0" cy="-47.0" r="4.47" fill="lightgreen" stroke="#ccc" stroke-width="1.64"/><text x="91.0" y="-44.7" text-anchor="middle" font-size="5.6" font-family="Tahoma,Geneva,sans-serif" font-weight="bold" fill="rgb(100,100,100)">A</text><circle cx="76.1" cy="-45.0" r="4.47" fill="lightgreen" stroke="#ccc" stroke-width="1.64"/><text x="76.1" y="-42.7" text-anchor="middle" font-size="5.6" font-family="Tahoma,Geneva,sans-serif" font-weight="bold" fill="rgb(100,100,100)">U</text><circle cx="61.7" cy="-40.6" r="4.47" fill="lightgreen" stroke="#ccc" stroke-width="1.64"/><text x="61.7" y="-38.4" text-anchor="middle" font-size="5.6" font-family="Tahoma,Geneva,sans-serif" font-weight="bold" fill="rgb(100,100,100)">G</text><circle cx="48.2" cy="-34.0" r="4.47" fill="lightgreen" stroke="#ccc" stroke-width="1.64"/><text x="48.2" y="-31.8" text-anchor="middle" font-size="5.6" font-family="Tahoma,Geneva,sans-serif" font-weight="bold" fill="rgb(100,100,100)">A</text><circle cx="36.1" cy="-25.1" r="4.47" fill="lightblue" stroke="#ccc" stroke-width="1.64"/><text x="36.1" y="-22.9" text-anchor="middle" font-size="5.6" font-family="Tahoma,Geneva,sans-serif" font-weight="bold" fill="rgb(100,100,100)">A</text><circle cx="25.4" cy="-14.6" r="4.47" fill="lightblue" stroke="#ccc" stroke-width="1.64"/><text x="25.4" y="-12.4" text-anchor="middle" font-size="5.6" font-family="Tahoma,Geneva,sans-serif" font-weight="bold" fill="rgb(100,100,100)">A</text><circle cx="16.3" cy="-2.7" r="4.47" fill="lightgreen" stroke="#ccc" stroke-width="1.64"/><text x="16.3" y="-0.5" text-anchor="middle" font-size="5.6" font-family="Tahoma,Geneva,sans-serif" font-weight="bold" fill="rgb(100,100,100)">C</text><circle cx="9.4" cy="10.7" r="4.47" fill="lightgreen" stroke="#ccc" stroke-width="1.64"/><text x="9.4" y="12.9" text-anchor="middle" font-size="5.6" font-family="Tahoma,Geneva,sans-serif" font-weight="bold" fill="rgb(100,100,100)">C</text><circle cx="4.8" cy="25.0" r="4.47" fill="lightgreen" stroke="#ccc" stroke-width="1.64"/><text x="4.8" y="27.2" text-anchor="middle" font-size="5.6" font-family="Tahoma,Geneva,sans-serif" font-weight="bold" fill="rgb(100,100,100)">G</text><circle cx="2.6" cy="39.9" r="4.47" fill="lightgreen" stroke="#ccc" stroke-width="1.64"/><text x="2.6" y="42.1" text-anchor="middle" font-size="5.6" font-family="Tahoma,Geneva,sans-serif" font-weight="bold" fill="rgb(100,100,100)">A</text><circle cx="2.8" cy="54.9" r="4.47" fill="lightgreen" stroke="#ccc" stroke-width="1.64"/><text x="2.8" y="57.1" text-anchor="middle" font-size="5.6" font-family="Tahoma,Geneva,sans-serif" font-weight="bold" fill="rgb(100,100,100)">G</text><circle cx="5.6" cy="69.6" r="4.47" fill="lightblue" stroke="#ccc" stroke-width="1.64"/><text x="5.6" y="71.9" text-anchor="middle" font-size="5.6" font-family="Tahoma,Geneva,sans-serif" font-weight="bold" fill="rgb(100,100,100)">C</text><circle cx="10.5" cy="83.8" r="4.47" fill="lightblue" stroke="#ccc" stroke-width="1.64"/><text x="10.5" y="86.0" text-anchor="middle" font-size="5.6" font-family="Tahoma,Geneva,sans-serif" font-weight="bold" fill="rgb(100,100,100)">A</text><circle cx="17.6" cy="97.0" r="4.47" fill="lightblue" stroke="#ccc" stroke-width="1.64"/><text x="17.6" y="99.2" text-anchor="middle" font-size="5.6" font-family="Tahoma,Geneva,sans-serif" font-weight="bold" fill="rgb(100,100,100)">A</text><circle cx="26.8" cy="108.9" r="4.47" fill="lightblue" stroke="#ccc" stroke-width="1.64"/><text x="26.8" y="111.1" text-anchor="middle" font-size="5.6" font-family="Tahoma,Geneva,sans-serif" font-weight="bold" fill="rgb(100,100,100)">A</text><circle cx="37.7" cy="119.1" r="4.47" fill="lightblue" stroke="#ccc" stroke-width="1.64"/><text x="37.7" y="121.4" text-anchor="middle" font-size="5.6" font-family="Tahoma,Geneva,sans-serif" font-weight="bold" fill="rgb(100,100,100)">A</text><circle cx="50.0" cy="127.8" r="4.47" fill="lightgreen" stroke="#ccc" stroke-width="1.64"/><text x="50.0" y="130.0" text-anchor="middle" font-size="5.6" font-family="Tahoma,Geneva,sans-serif" font-weight="bold" fill="rgb(100,100,100)">U</text><circle cx="63.7" cy="134.0" r="4.47" fill="lightgreen" stroke="#ccc" stroke-width="1.64"/><text x="63.7" y="136.3" text-anchor="middle" font-size="5.6" font-family="Tahoma,Geneva,sans-serif" font-weight="bold" fill="rgb(100,100,100)">G</text><circle cx="78.1" cy="138.1" r="4.47" fill="lightgreen" stroke="#ccc" stroke-width="1.64"/><text x="78.1" y="140.3" text-anchor="middle" font-size="5.6" font-family="Tahoma,Geneva,sans-serif" font-weight="bold" fill="rgb(100,100,100)">C</text><circle cx="93.1" cy="139.7" r="4.47" fill="lightgreen" stroke="#ccc" stroke-width="1.64"/><text x="93.1" y="141.9" text-anchor="middle" font-size="5.6" font-family="Tahoma,Geneva,sans-serif" font-weight="bold" fill="rgb(100,100,100)">A</text><circle cx="108.1" cy="138.9" r="4.47" fill="lightgreen" stroke="#ccc" stroke-width="1.64"/><text x="108.1" y="141.2" text-anchor="middle" font-size="5.6" font-family="Tahoma,Geneva,sans-serif" font-weight="bold" fill="rgb(100,100,100)">A</text><circle cx="122.7" cy="135.5" r="4.47" fill="lightblue" stroke="#ccc" stroke-width="1.64"/><text x="122.7" y="137.7" text-anchor="middle" font-size="5.6" font-family="Tahoma,Geneva,sans-serif" font-weight="bold" fill="rgb(100,100,100)">A</text><circle cx="136.8" cy="130.3" r="4.47" fill="lightgreen" stroke="#ccc" stroke-width="1.64"/><text x="136.8" y="132.5" text-anchor="middle" font-size="5.6" font-family="Tahoma,Geneva,sans-serif" font-weight="bold" fill="rgb(100,100,100)">C</text><circle cx="149.7" cy="122.6" r="4.47" fill="lightgreen" stroke="#ccc" stroke-width="1.64"/><text x="149.7" y="124.8" text-anchor="middle" font-size="5.6" font-family="Tahoma,Geneva,sans-serif" font-weight="bold" fill="rgb(100,100,100)">U</text><circle cx="161.3" cy="112.9" r="4.47" fill="lightgreen" stroke="#ccc" stroke-width="1.64"/><text x="161.3" y="115.2" text-anchor="middle" font-size="5.6" font-family="Tahoma,Geneva,sans-serif" font-weight="bold" fill="rgb(100,100,100)">U</text><circle cx="171.1" cy="101.6" r="4.47" fill="lightgreen" stroke="#ccc" stroke-width="1.64"/><text x="171.1" y="103.8" text-anchor="middle" font-size="5.6" font-family="Tahoma,Geneva,sans-serif" font-weight="bold" fill="rgb(100,100,100)">C</text><circle cx="179.0" cy="88.8" r="4.47" fill="lightgreen" stroke="#ccc" stroke-width="1.64"/><text x="179.0" y="91.0" text-anchor="middle" font-size="5.6" font-family="Tahoma,Geneva,sans-serif" font-weight="bold" fill="rgb(100,100,100)">C</text><circle cx="184.7" cy="74.9" r="4.47" fill="lightgreen" stroke="#ccc" stroke-width="1.64"/><text x="184.7" y="77.1" text-anchor="middle" font-size="5.6" font-family="Tahoma,Geneva,sans-serif" font-weight="bold" fill="rgb(100,100,100)">C</text><circle cx="188.1" cy="60.2" r="4.47" fill="lightgreen" stroke="#ccc" stroke-width="1.64"/><text x="188.1" y="62.5" text-anchor="middle" font-size="5.6" font-family="Tahoma,Geneva,sans-serif" font-weight="bold" fill="rgb(100,100,100)">C</text><circle cx="189.2" cy="45.3" r="4.47" fill="lightgreen" stroke="#ccc" stroke-width="1.64"/><text x="189.2" y="47.5" text-anchor="middle" font-size="5.6" font-family="Tahoma,Geneva,sans-serif" font-weight="bold" fill="rgb(100,100,100)">A</text><circle cx="187.8" cy="30.3" r="4.47" fill="lightgreen" stroke="#ccc" stroke-width="1.64"/><text x="187.8" y="32.5" text-anchor="middle" font-size="5.6" font-family="Tahoma,Geneva,sans-serif" font-weight="bold" fill="rgb(100,100,100)">C</text><circle cx="184.0" cy="15.7" r="4.47" fill="lightgreen" stroke="#ccc" stroke-width="1.64"/><text x="184.0" y="18.0" text-anchor="middle" font-size="5.6" font-family="Tahoma,Geneva,sans-serif" font-weight="bold" fill="rgb(100,100,100)">U</text><circle cx="178.0" cy="2.0" r="4.47" fill="lightgreen" stroke="#ccc" stroke-width="1.64"/><text x="178.0" y="4.2" text-anchor="middle" font-size="5.6" font-family="Tahoma,Geneva,sans-serif" font-weight="bold" fill="rgb(100,100,100)">U</text><circle cx="169.8" cy="-10.6" r="4.47" fill="lightgreen" stroke="#ccc" stroke-width="1.64"/><text x="169.8" y="-8.4" text-anchor="middle" font-size="5.6" font-family="Tahoma,Geneva,sans-serif" font-weight="bold" fill="rgb(100,100,100)">A</text><circle cx="159.5" cy="-21.6" r="4.47" fill="lightblue" stroke="#ccc" stroke-width="1.64"/><text x="159.5" y="-19.3" text-anchor="middle" font-size="5.6" font-family="Tahoma,Geneva,sans-serif" font-weight="bold" fill="rgb(100,100,100)">U</text><circle cx="147.8" cy="-30.9" r="4.47" fill="lightblue" stroke="#ccc" stroke-width="1.64"/><text x="147.8" y="-28.7" text-anchor="middle" font-size="5.6" font-family="Tahoma,Geneva,sans-serif" font-weight="bold" fill="rgb(100,100,100)">C</text><circle cx="134.7" cy="-38.3" r="4.47" fill="lightblue" stroke="#ccc" stroke-width="1.64"/><text x="134.7" y="-36.0" text-anchor="middle" font-size="5.6" font-family="Tahoma,Geneva,sans-serif" font-weight="bold" fill="rgb(100,100,100)">A</text><circle cx="120.6" cy="-43.4" r="4.47" fill="lightblue" stroke="#ccc" stroke-width="1.64"/><text x="120.6" y="-41.2" text-anchor="middle" font-size="5.6" font-family="Tahoma,Geneva,sans-serif" font-weight="bold" fill="rgb(100,100,100)">U</text><circle cx="106.0" cy="-46.5" r="4.47" fill="lightgreen" stroke="#ccc" stroke-width="1.64"/><text x="106.0" y="-44.3" text-anchor="middle" font-size="5.6" font-family="Tahoma,Geneva,sans-serif" font-weight="bold" fill="rgb(100,100,100)">U</text><circle cx="106.4" cy="-61.5" r="4.47" fill="lightgreen" stroke="#ccc" stroke-width="1.64"/><text x="106.4" y="-59.3" text-anchor="middle" font-size="5.6" font-family="Tahoma,Geneva,sans-serif" font-weight="bold" fill="rgb(100,100,100)">G</text><circle cx="106.8" cy="-76.5" r="4.47" fill="lightgreen" stroke="#ccc" stroke-width="1.64"/><text x="106.8" y="-74.3" text-anchor="middle" font-size="5.6" font-family="Tahoma,Geneva,sans-serif" font-weight="bold" fill="rgb(100,100,100)">C</text><circle cx="107.3" cy="-91.5" r="4.47" fill="lightgreen" stroke="#ccc" stroke-width="1.64"/><text x="107.3" y="-89.3" text-anchor="middle" font-size="5.6" font-family="Tahoma,Geneva,sans-serif" font-weight="bold" fill="rgb(100,100,100)">A</text><circle cx="116.5" cy="-79.7" r="4.47" fill="lightgreen" stroke="#ccc" stroke-width="1.64"/><text x="116.5" y="-77.4" text-anchor="middle" font-size="5.6" font-family="Tahoma,Geneva,sans-serif" font-weight="bold" fill="rgb(100,100,100)">U</text><circle cx="127.6" cy="-69.6" r="4.47" fill="lightgreen" stroke="#ccc" stroke-width="1.64"/><text x="127.6" y="-67.4" text-anchor="middle" font-size="5.6" font-family="Tahoma,Geneva,sans-serif" font-weight="bold" fill="rgb(100,100,100)">A</text><circle cx="140.3" cy="-61.6" r="4.47" fill="lightgreen" stroke="#ccc" stroke-width="1.64"/><text x="140.3" y="-59.3" text-anchor="middle" font-size="5.6" font-family="Tahoma,Geneva,sans-serif" font-weight="bold" fill="rgb(100,100,100)">A</text><circle cx="154.1" cy="-55.8" r="4.47" fill="lightgreen" stroke="#ccc" stroke-width="1.64"/><text x="154.1" y="-53.6" text-anchor="middle" font-size="5.6" font-family="Tahoma,Geneva,sans-serif" font-weight="bold" fill="rgb(100,100,100)">G</text><circle cx="168.8" cy="-52.8" r="4.47" fill="lightsalmon" stroke="#ccc" stroke-width="1.64"/><text x="168.8" y="-50.5" text-anchor="middle" font-size="5.6" font-family="Tahoma,Geneva,sans-serif" font-weight="bold" fill="rgb(100,100,100)">U</text><circle cx="183.7" cy="-52.1" r="4.47" fill="lightsalmon" stroke="#ccc" stroke-width="1.64"/><text x="183.7" y="-49.8" text-anchor="middle" font-size="5.6" font-family="Tahoma,Geneva,sans-serif" font-weight="bold" fill="rgb(100,100,100)">A</text><circle cx="198.6" cy="-53.9" r="4.47" fill="lightsalmon" stroke="#ccc" stroke-width="1.64"/><text x="198.6" y="-51.7" text-anchor="middle" font-size="5.6" font-family="Tahoma,Geneva,sans-serif" font-weight="bold" fill="rgb(100,100,100)">U</text><circle cx="213.0" cy="-58.1" r="4.47" fill="lightgreen" stroke="#ccc" stroke-width="1.64"/><text x="213.0" y="-55.8" text-anchor="middle" font-size="5.6" font-family="Tahoma,Geneva,sans-serif" font-weight="bold" fill="rgb(100,100,100)">U</text><circle cx="226.4" cy="-64.8" r="4.47" fill="lightgreen" stroke="#ccc" stroke-width="1.64"/><text x="226.4" y="-62.6" text-anchor="middle" font-size="5.6" font-family="Tahoma,Geneva,sans-serif" font-weight="bold" fill="rgb(100,100,100)">G</text><circle cx="238.4" cy="-73.8" r="4.47" fill="lightgreen" stroke="#ccc" stroke-width="1.64"/><text x="238.4" y="-71.6" text-anchor="middle" font-size="5.6" font-family="Tahoma,Geneva,sans-serif" font-weight="bold" fill="rgb(100,100,100)">G</text><circle cx="248.7" cy="-84.7" r="4.47" fill="lightgreen" stroke="#ccc" stroke-width="1.64"/><text x="248.7" y="-82.5" text-anchor="middle" font-size="5.6" font-family="Tahoma,Geneva,sans-serif" font-weight="bold" fill="rgb(100,100,100)">G</text><circle cx="257.0" cy="-97.2" r="4.47" fill="lightgreen" stroke="#ccc" stroke-width="1.64"/><text x="257.0" y="-95.0" text-anchor="middle" font-size="5.6" font-family="Tahoma,Geneva,sans-serif" font-weight="bold" fill="rgb(100,100,100)">G</text><circle cx="263.0" cy="-110.9" r="4.47" fill="lightgreen" stroke="#ccc" stroke-width="1.64"/><text x="263.0" y="-108.7" text-anchor="middle" font-size="5.6" font-family="Tahoma,Geneva,sans-serif" font-weight="bold" fill="rgb(100,100,100)">A</text><circle cx="266.6" cy="-125.5" r="4.47" fill="lightgreen" stroke="#ccc" stroke-width="1.64"/><text x="266.6" y="-123.3" text-anchor="middle" font-size="5.6" font-family="Tahoma,Geneva,sans-serif" font-weight="bold" fill="rgb(100,100,100)">A</text><circle cx="267.7" cy="-140.5" r="4.47" fill="lightgreen" stroke="#ccc" stroke-width="1.64"/><text x="267.7" y="-138.2" text-anchor="middle" font-size="5.6" font-family="Tahoma,Geneva,sans-serif" font-weight="bold" fill="rgb(100,100,100)">G</text><circle cx="265.9" cy="-155.3" r="4.47" fill="lightsalmon" stroke="#ccc" stroke-width="1.64"/><text x="265.9" y="-153.1" text-anchor="middle" font-size="5.6" font-family="Tahoma,Geneva,sans-serif" font-weight="bold" fill="rgb(100,100,100)">A</text><circle cx="262.1" cy="-169.8" r="4.47" fill="lightgreen" stroke="#ccc" stroke-width="1.64"/><text x="262.1" y="-167.6" text-anchor="middle" font-size="5.6" font-family="Tahoma,Geneva,sans-serif" font-weight="bold" fill="rgb(100,100,100)">U</text><circle cx="255.6" cy="-183.4" r="4.47" fill="lightgreen" stroke="#ccc" stroke-width="1.64"/><text x="255.6" y="-181.1" text-anchor="middle" font-size="5.6" font-family="Tahoma,Geneva,sans-serif" font-weight="bold" fill="rgb(100,100,100)">U</text><circle cx="246.9" cy="-195.6" r="4.47" fill="lightgreen" stroke="#ccc" stroke-width="1.64"/><text x="246.9" y="-193.3" text-anchor="middle" font-size="5.6" font-family="Tahoma,Geneva,sans-serif" font-weight="bold" fill="rgb(100,100,100)">G</text><circle cx="236.2" cy="-206.1" r="4.47" fill="lightgreen" stroke="#ccc" stroke-width="1.64"/><text x="236.2" y="-203.9" text-anchor="middle" font-size="5.6" font-family="Tahoma,Geneva,sans-serif" font-weight="bold" fill="rgb(100,100,100)">C</text><circle cx="223.9" cy="-214.7" r="4.47" fill="lightgreen" stroke="#ccc" stroke-width="1.64"/><text x="223.9" y="-212.4" text-anchor="middle" font-size="5.6" font-family="Tahoma,Geneva,sans-serif" font-weight="bold" fill="rgb(100,100,100)">A</text><circle cx="210.3" cy="-221.0" r="4.47" fill="lightgreen" stroke="#ccc" stroke-width="1.64"/><text x="210.3" y="-218.8" text-anchor="middle" font-size="5.6" font-family="Tahoma,Geneva,sans-serif" font-weight="bold" fill="rgb(100,100,100)">C</text><circle cx="195.8" cy="-224.9" r="4.47" fill="lightgreen" stroke="#ccc" stroke-width="1.64"/><text x="195.8" y="-222.7" text-anchor="middle" font-size="5.6" font-family="Tahoma,Geneva,sans-serif" font-weight="bold" fill="rgb(100,100,100)">U</text><circle cx="180.9" cy="-226.3" r="4.47" fill="lightgreen" stroke="#ccc" stroke-width="1.64"/><text x="180.9" y="-224.0" text-anchor="middle" font-size="5.6" font-family="Tahoma,Geneva,sans-serif" font-weight="bold" fill="rgb(100,100,100)">U</text><circle cx="165.9" cy="-225.1" r="4.47" fill="lightgreen" stroke="#ccc" stroke-width="1.64"/><text x="165.9" y="-222.8" text-anchor="middle" font-size="5.6" font-family="Tahoma,Geneva,sans-serif" font-weight="bold" fill="rgb(100,100,100)">G</text><circle cx="151.4" cy="-221.3" r="4.47" fill="lightgreen" stroke="#ccc" stroke-width="1.64"/><text x="151.4" y="-219.1" text-anchor="middle" font-size="5.6" font-family="Tahoma,Geneva,sans-serif" font-weight="bold" fill="rgb(100,100,100)">G</text><circle cx="137.8" cy="-214.9" r="4.47" fill="lightsalmon" stroke="#ccc" stroke-width="1.64"/><text x="137.8" y="-212.7" text-anchor="middle" font-size="5.6" font-family="Tahoma,Geneva,sans-serif" font-weight="bold" fill="rgb(100,100,100)">G</text><circle cx="125.3" cy="-206.7" r="4.47" fill="lightgreen" stroke="#ccc" stroke-width="1.64"/><text x="125.3" y="-204.4" text-anchor="middle" font-size="5.6" font-family="Tahoma,Geneva,sans-serif" font-weight="bold" fill="rgb(100,100,100)">U</text><circle cx="114.6" cy="-196.2" r="4.47" fill="lightgreen" stroke="#ccc" stroke-width="1.64"/><text x="114.6" y="-194.0" text-anchor="middle" font-size="5.6" font-family="Tahoma,Geneva,sans-serif" font-weight="bold" fill="rgb(100,100,100)">C</text><circle cx="105.7" cy="-184.1" r="4.47" fill="lightgreen" stroke="#ccc" stroke-width="1.64"/><text x="105.7" y="-181.9" text-anchor="middle" font-size="5.6" font-family="Tahoma,Geneva,sans-serif" font-weight="bold" fill="rgb(100,100,100)">A</text><circle cx="99.5" cy="-167.6" r="4.47" fill="lightsalmon" stroke="#ccc" stroke-width="1.64"/><text x="99.5" y="-165.3" text-anchor="middle" font-size="5.6" font-family="Tahoma,Geneva,sans-serif" font-weight="bold" fill="rgb(100,100,100)">U</text><circle cx="93.3" cy="-151.0" r="4.47" fill="lightsalmon" stroke="#ccc" stroke-width="1.64"/><text x="93.3" y="-148.8" text-anchor="middle" font-size="5.6" font-family="Tahoma,Geneva,sans-serif" font-weight="bold" fill="rgb(100,100,100)">G</text></svg>