<svg xmlns="http://www.w3.org/2000/svg" viewBox="-172.3 -324.2 487.5 429.0" width="487" height="429"><style></style><line x1="33.4" y1="-113.1" x2="32.1" y2="-98.2" stroke="#999" stroke-width="1.66" stroke-opacity="0.8"/><line x1="48.3" y1="-111.9" x2="47.1" y2="-96.9" stroke="#999" stroke-width="1.66" stroke-opacity="0.8"/><line x1="63.3" y1="-110.6" x2="62.0" y2="-95.7" stroke="#999" stroke-width="1.66" stroke-opacity="0.8"/><line x1="78.2" y1="-109.4" x2="76.9" y2="-94.4" stroke="#999" stroke-width="1.66" stroke-opacity="0.8"/><line x1="93.2" y1="-108.1" x2="91.9" y2="-93.2" stroke="#999" stroke-width="1.66" stroke-opacity="0.8"/><line x1="158.0" y1="46.5" x2="172.0" y2="41.1" stroke="#999" stroke-width="1.66" stroke-opacity="0.8"/><line x1="152.7" y1="32.5" x2="166.7" y2="27.1" stroke="#999" stroke-width="1.66" stroke-opacity="0.8"/><line x1="147.3" y1="18.5" x2="161.3" y2="13.1" stroke="#999" stroke-width="1.66" stroke-opacity="0.8"/><line x1="142.0" y1="4.5" x2="156.0" y2="-0.9" stroke="#999" stroke-width="1.66" stroke-opacity="0.8"/><line x1="136.6" y1="-9.6" x2="150.6" y2="-14.9" stroke="#999" stroke-width="1.66" stroke-opacity="0.8"/><line x1="131.3" y1="-23.6" x2="145.3" y2="-28.9" stroke="#999" stroke-width="1.66" stroke-opacity="0.8"/><line x1="125.9" y1="-37.6" x2="139.9" y2="-42.9" stroke="#999" stroke-width="1.66" stroke-opacity="0.8"/><line x1="120.6" y1="-51.6" x2="134.6" y2="-56.9" stroke="#999" stroke-width="1.66" stroke-opacity="0.8"/><line x1="115.2" y1="-65.6" x2="129.2" y2="-71.0" stroke="#999" stroke-width="1.66" stroke-opacity="0.8"/><line x1="109.9" y1="-79.6" x2="123.9" y2="-85.0" stroke="#999" stroke-width="1.66" stroke-opacity="0.8"/><line x1="13.4" y1="-57.7" x2="137.7" y2="-79.2" stroke="#d9534f" stroke-width="1.66" stroke-opacity="0.6"/><line x1="2.8" y1="-47.0" x2="152.2" y2="-75.3" stroke="#d9534f" stroke-width="1.66" stroke-opacity="0.6"/><line x1="-9.5" y1="-38.3" x2="167.1" y2="-73.4" stroke="#d9534f" stroke-width="1.66" stroke-opacity="0.6"/><line x1="-23.1" y1="-31.9" x2="182.1" y2="-73.7" stroke="#d9534f" stroke-width="1.66" stroke-opacity="0.6"/><line x1="-37.6" y1="-28.0" x2="196.9" y2="-76.0" stroke="#d9534f" stroke-width="1.66" stroke-opacity="0.6"/><line x1="-52.6" y1="-26.6" x2="224.9" y2="-86.5" stroke="#d9534f" stroke-width="1.66" stroke-opacity="0.6"/><line x1="-67.6" y1="-27.9" x2="237.6" y2="-94.5" stroke="#d9534f" stroke-width="1.66" stroke-opacity="0.6"/><line x1="-82.1" y1="-31.7" x2="249.0" y2="-104.2" stroke="#d9534f" stroke-width="1.66" stroke-opacity="0.6"/><line x1="-95.8" y1="-38.0" x2="259.0" y2="-115.4" stroke="#d9534f" stroke-width="1.66" stroke-opacity="0.6"/><line x1="-108.1" y1="-46.6" x2="267.4" y2="-127.9" stroke="#d9534f" stroke-width="1.66" stroke-opacity="0.6"/><line x1="-118.8" y1="-57.2" x2="273.9" y2="-141.4" stroke="#d9534f" stroke-width="1.66" stroke-opacity="0.6"/><line x1="-127.5" y1="-69.5" x2="278.6" y2="-155.6" stroke="#d9534f" stroke-width="1.66" stroke-opacity="0.6"/><line x1="-133.9" y1="-83.1" x2="281.2" y2="-170.4" stroke="#d9534f" stroke-width="1.66" stroke-opacity="0.6"/><line x1="-137.8" y1="-97.7" x2="280.3" y2="-200.3" stroke="#d9534f" stroke-width="1.66" stroke-opacity="0.6"/><line x1="-139.2" y1="-112.6" x2="276.8" y2="-214.9" stroke="#d9534f" stroke-width="1.66" stroke-opacity="0.6"/><line x1="-127.7" y1="-155.8" x2="244.3" y2="-264.5" stroke="#d9534f" stroke-width="1.66" stroke-opacity="0.6"/><line x1="-119.2" y1="-168.1" x2="232.3" y2="-273.5" stroke="#d9534f" stroke-width="1.66" stroke-opacity="0.6"/><line x1="-108.6" y1="-178.8" x2="219.2" y2="-280.8" stroke="#d9534f" stroke-width="1.66" stroke-opacity="0.6"/><line x1="-96.3" y1="-187.5" x2="205.2" y2="-286.2" stroke="#d9534f" stroke-width="1.66" stroke-opacity="0.6"/><line x1="-82.7" y1="-193.9" x2="190.6" y2="-289.6" stroke="#d9534f" stroke-width="1.66" stroke-opacity="0.6"/><line x1="-68.1" y1="-197.8" x2="175.7" y2="-291.0" stroke="#d9534f" stroke-width="1.66" stroke-opacity="0.6"/><line x1="-53.2" y1="-199.2" x2="160.7" y2="-290.4" stroke="#d9534f" stroke-width="1.66" stroke-opacity="0.6"/><line x1="-38.2" y1="-197.9" x2="145.9" y2="-287.7" stroke="#d9534f" stroke-width="1.66" stroke-opacity="0.6"/><line x1="-23.6" y1="-194.1" x2="131.7" y2="-282.9" stroke="#d9534f" stroke-width="1.66" stroke-opacity="0.6"/><line x1="-10.0" y1="-187.7" x2="118.2" y2="-276.3" stroke="#d9534f" stroke-width="1.66" stroke-opacity="0.6"/><line x1="2.4" y1="-179.1" x2="105.8" y2="-267.9" stroke="#d9534f" stroke-width="1.66" stroke-opacity="0.6"/><line x1="13.0" y1="-168.5" x2="94.7" y2="-257.8" stroke="#d9534f" stroke-width="1.66" stroke-opacity="0.6"/><line x1="21.7" y1="-156.3" x2="85.0" y2="-246.4" stroke="#d9534f" stroke-width="1.66" stroke-opacity="0.6"/><line x1="28.1" y1="-142.6" x2="77.0" y2="-233.7" stroke="#d9534f" stroke-width="1.66" stroke-opacity="0.6"/><line x1="60.4" y1="-165.8" x2="69.9" y2="-151.8" stroke="#999" stroke-width="1.66" stroke-opacity="0.8"/><line x1="69.9" y1="-151.8" x2="79.2" y2="-137.8" stroke="#999" stroke-width="1.66" stroke-opacity="0.8"/><line x1="79.2" y1="-137.8" x2="89.8" y2="-124.9" stroke="#999" stroke-width="1.66" stroke-opacity="0.8"/><line x1="89.8" y1="-124.9" x2="93.2" y2="-108.1" stroke="#999" stroke-width="1.66" stroke-opacity="0.8"/><line x1="93.2" y1="-108.1" x2="78.2" y2="-109.4" stroke="#999" stroke-width="1.66" stroke-opacity="0.8"/><line x1="78.2" y1="-109.4" x2="63.3" y2="-110.6" stroke="#999" stroke-width="1.66" stroke-opacity="0.8"/><line x1="63.3" y1="-110.6" x2="48.3" y2="-111.9" stroke="#999" stroke-width="1.66" stroke-opacity="0.8"/><line x1="48.3" y1="-111.9" x2="33.4" y2="-113.1" stroke="#999" stroke-width="1.66" stroke-opacity="0.8"/><line x1="33.4" y1="-113.1" x2="32.1" y2="-128.1" stroke="#999" stroke-width="1.66" stroke-opacity="0.8"/><line x1="32.1" y1="-128.1" x2="28.1" y2="-142.6" stroke="#999" stroke-width="1.66" stroke-opacity="0.8"/><line x1="28.1" y1="-142.6" x2="21.7" y2="-156.3" stroke="#999" stroke-width="1.66" stroke-opacity="0.8"/><line x1="21.7" y1="-156.3" x2="13.0" y2="-168.5" stroke="#999" stroke-width="1.66" stroke-opacity="0.8"/><line x1="13.0" y1="-168.5" x2="2.4" y2="-179.1" stroke="#999" stroke-width="1.66" stroke-opacity="0.8"/><line x1="2.4" y1="-179.1" x2="-10.0" y2="-187.7" stroke="#999" stroke-width="1.66" stroke-opacity="0.8"/><line x1="-10.0" y1="-187.7" x2="-23.6" y2="-194.1" stroke="#999" stroke-width="1.66" stroke-opacity="0.8"/><line x1="-23.6" y1="-194.1" x2="-38.2" y2="-197.9" stroke="#999" stroke-width="1.66" stroke-opacity="0.8"/><line x1="-38.2" y1="-197.9" x2="-53.2" y2="-199.2" stroke="#999" stroke-width="1.66" stroke-opacity="0.8"/><line x1="-53.2" y1="-199.2" x2="-68.1" y2="-197.8" stroke="#999" stroke-width="1.66" stroke-opacity="0.8"/><line x1="-68.1" y1="-197.8" x2="-82.7" y2="-193.9" stroke="#999" stroke-width="1.66" stroke-opacity="0.8"/><line x1="-82.7" y1="-193.9" x2="-96.3" y2="-187.5" stroke="#999" stroke-width="1.66" stroke-opacity="0.8"/><line x1="-96.3" y1="-187.5" x2="-108.6" y2="-178.8" stroke="#999" stroke-width="1.66" stroke-opacity="0.8"/><line x1="-108.6" y1="-178.8" x2="-119.2" y2="-168.1" stroke="#999" stroke-width="1.66" stroke-opacity="0.8"/><line x1="-119.2" y1="-168.1" x2="-127.7" y2="-155.8" stroke="#999" stroke-width="1.66" stroke-opacity="0.8"/><line x1="-127.7" y1="-155.8" x2="-134.1" y2="-142.2" stroke="#999" stroke-width="1.66" stroke-opacity="0.8"/><line x1="-134.1" y1="-142.2" x2="-138.0" y2="-127.6" stroke="#999" stroke-width="1.66" stroke-opacity="0.8"/><line x1="-138.0" y1="-127.6" x2="-139.2" y2="-112.6" stroke="#999" stroke-width="1.66" stroke-opacity="0.8"/><line x1="-139.2" y1="-112.6" x2="-137.8" y2="-97.7" stroke="#999" stroke-width="1.66" stroke-opacity="0.8"/><line x1="-137.8" y1="-97.7" x2="-133.9" y2="-83.1" stroke="#999" stroke-width="1.66" stroke-opacity="0.8"/><line x1="-133.9" y1="-83.1" x2="-127.5" y2="-69.5" stroke="#999" stroke-width="1.66" stroke-opacity="0.8"/><line x1="-127.5" y1="-69.5" x2="-118.8" y2="-57.2" stroke="#999" stroke-width="1.66" stroke-opacity="0.8"/><line x1="-118.8" y1="-57.2" x2="-108.1" y2="-46.6" stroke="#999" stroke-width="1.66" stroke-opacity="0.8"/><line x1="-108.1" y1="-46.6" x2="-95.8" y2="-38.0" stroke="#999" stroke-width="1.66" stroke-opacity="0.8"/><line x1="-95.8" y1="-38.0" x2="-82.1" y2="-31.7" stroke="#999" stroke-width="1.66" stroke-opacity="0.8"/><line x1="-82.1" y1="-31.7" x2="-67.6" y2="-27.9" stroke="#999" stroke-width="1.66" stroke-opacity="0.8"/><line x1="-67.6" y1="-27.9" x2="-52.6" y2="-26.6" stroke="#999" stroke-width="1.66" stroke-opacity="0.8"/><line x1="-52.6" y1="-26.6" x2="-37.6" y2="-28.0" stroke="#999" stroke-width="1.66" stroke-opacity="0.8"/><line x1="-37.6" y1="-28.0" x2="-23.1" y2="-31.9" stroke="#999" stroke-width="1.66" stroke-opacity="0.8"/><line x1="-23.1" y1="-31.9" x2="-9.5" y2="-38.3" stroke="#999" stroke-width="1.66" stroke-opacity="0.8"/><line x1="-9.5" y1="-38.3" x2="2.8" y2="-47.0" stroke="#999" stroke-width="1.66" stroke-opacity="0.8"/><line x1="2.8" y1="-47.0" x2="13.4" y2="-57.7" stroke="#999" stroke-width="1.66" stroke-opacity="0.8"/><line x1="13.4" y1="-57.7" x2="22.0" y2="-70.0" stroke="#999" stroke-width="1.66" stroke-opacity="0.8"/><line x1="22.0" y1="-70.0" x2="28.3" y2="-83.6" stroke="#999" stroke-width="1.66" stroke-opacity="0.8"/><line x1="28.3" y1="-83.6" x2="32.1" y2="-98.2" stroke="#999" stroke-width="1.66" stroke-opacity="0.8"/><line x1="32.1" y1="-98.2" x2="47.1" y2="-96.9" stroke="#999" stroke-width="1.66" stroke-opacity="0.8"/><line x1="47.1" y1="-96.9" x2="62.0" y2="-95.7" stroke="#999" stroke-width="1.66" stroke-opacity="0.8"/><line x1="62.0" y1="-95.7" x2="76.9" y2="-94.4" stroke="#999" stroke-width="1.66" stroke-opacity="0.8"/><line x1="76.9" y1="-94.4" x2="91.9" y2="-93.2" stroke="#999" stroke-width="1.66" stroke-opacity="0.8"/><line x1="91.9" y1="-93.2" x2="86.3" y2="-78.6" stroke="#999" stroke-width="1.66" stroke-opacity="0.8"/><line x1="86.3" y1="-78.6" x2="97.4" y2="-70.2" stroke="#999" stroke-width="1.66" stroke-opacity="0.8"/><line x1="97.4" y1="-70.2" x2="109.9" y2="-79.6" stroke="#999" stroke-width="1.66" stroke-opacity="0.8"/><line x1="109.9" y1="-79.6" x2="115.2" y2="-65.6" stroke="#999" stroke-width="1.66" stroke-opacity="0.8"/><line x1="115.2" y1="-65.6" x2="120.6" y2="-51.6" stroke="#999" stroke-width="1.66" stroke-opacity="0.8"/><line x1="120.6" y1="-51.6" x2="125.9" y2="-37.6" stroke="#999" stroke-width="1.66" stroke-opacity="0.8"/><line x1="125.9" y1="-37.6" x2="131.3" y2="-23.6" stroke="#999" stroke-width="1.66" stroke-opacity="0.8"/><line x1="131.3" y1="-23.6" x2="136.6" y2="-9.6" stroke="#999" stroke-width="1.66" stroke-opacity="0.8"/><line x1="136.6" y1="-9.6" x2="142.0" y2="4.5" stroke="#999" stroke-width="1.66" stroke-opacity="0.8"/><line x1="142.0" y1="4.5" x2="147.3" y2="18.5" stroke="#999" stroke-width="1.66" stroke-opacity="0.8"/><line x1="147.3" y1="18.5" x2="152.7" y2="32.5" stroke="#999" stroke-width="1.66" stroke-opacity="0.8"/><line x1="152.7" y1="32.5" x2="158.0" y2="46.5" stroke="#999" stroke-width="1.66" stroke-opacity="0.8"/><line x1="158.0" y1="46.5" x2="156.4" y2="61.5" stroke="#999" stroke-width="1.66" stroke-opacity="0.8"/><line x1="156.4" y1="61.5" x2="167.6" y2="71.6" stroke="#999" stroke-width="1.66" stroke-opacity="0.8"/><line x1="167.6" y1="71.6" x2="181.7" y2="66.2" stroke="#999" stroke-width="1.66" stroke-opacity="0.8"/><line x1="181.7" y1="66.2" x2="183.2" y2="51.2" stroke="#999" stroke-width="1.66" stroke-opacity="0.8"/><line x1="183.2" y1="51.2" x2="172.0" y2="41.1" stroke="#999" stroke-width="1.66" stroke-opacity="0.8"/><line x1="172.0" y1="41.1" x2="166.7" y2="27.1" stroke="#999" stroke-width="1.66" stroke-opacity="0.8"/><line x1="166.7" y1="27.1" x2="161.3" y2="13.1" stroke="#999" stroke-width="1.66" stroke-opacity="0.8"/><line x1="161.3" y1="13.1" x2="156.0" y2="-0.9" stroke="#999" stroke-width="1.66" stroke-opacity="0.8"/><line x1="156.0" y1="-0.9" x2="150.6" y2="-14.9" stroke="#999" stroke-width="1.66" stroke-opacity="0.8"/><line x1="150.6" y1="-14.9" x2="145.3" y2="-28.9" stroke="#999" stroke-width="1.66" stroke-opacity="0.8"/><line x1="145.3" y1="-28.9" x2="139.9" y2="-42.9" stroke="#999" stroke-width="1.66" stroke-opacity="0.8"/><line x1="139.9" y1="-42.9" x2="134.6" y2="-56.9" stroke="#999" stroke-width="1.66" stroke-opacity="0.8"/><line x1="134.6" y1="-56.9" x2="129.2" y2="-71.0" stroke="#999" stroke-width="1.66" stroke-opacity="0.8"/><line x1="129.2" y1="-71.0" x2="123.9" y2="-85.0" stroke="#999" stroke-width="1.66" stroke-opacity="0.8"/><line x1="123.9" y1="-85.0" x2="137.7" y2="-79.2" stroke="#999" stroke-width="1.66" stroke-opacity="0.8"/><line x1="137.7" y1="-79.2" x2="152.2" y2="-75.3" stroke="#999" stroke-width="1.66" stroke-opacity="0.8"/><line x1="152.2" y1="-75.3" x2="167.1" y2="-73.4" stroke="#999" stroke-width="1.66" stroke-opacity="0.8"/><line x1="167.1" y1="-73.4" x2="182.1" y2="-73.7" stroke="#999" stroke-width="1.66" stroke-opacity="0.8"/><line x1="182.1" y1="-73.7" x2="196.9" y2="-76.0" stroke="#999" stroke-width="1.66" stroke-opacity="0.8"/><line x1="196.9" y1="-76.0" x2="211.3" y2="-80.1" stroke="#999" stroke-width="1.66" stroke-opacity="0.8"/><line x1="211.3" y1="-80.1" x2="224.9" y2="-86.5" stroke="#999" stroke-width="1.66" stroke-opacity="0.8"/><line x1="224.9" y1="-86.5" x2="237.6" y2="-94.5" stroke="#999" stroke-width="1.66" stroke-opacity="0.8"/><line x1="237.6" y1="-94.5" x2="249.0" y2="-104.2" stroke="#999" stroke-width="1.66" stroke-opacity="0.8"/><line x1="249.0" y1="-104.2" x2="259.0" y2="-115.4" stroke="#999" stroke-width="1.66" stroke-opacity="0.8"/><line x1="259.0" y1="-115.4" x2="267.4" y2="-127.9" stroke="#999" stroke-width="1.66" stroke-opacity="0.8"/><line x1="267.4" y1="-127.9" x2="273.9" y2="-141.4" stroke="#999" stroke-width="1.66" stroke-opacity="0.8"/><line x1="273.9" y1="-141.4" x2="278.6" y2="-155.6" stroke="#999" stroke-width="1.66" stroke-opacity="0.8"/><line x1="278.6" y1="-155.6" x2="281.2" y2="-170.4" stroke="#999" stroke-width="1.66" stroke-opacity="0.8"/><line x1="281.2" y1="-170.4" x2="282.0" y2="-185.4" stroke="#999" stroke-width="1.66" stroke-opacity="0.8"/><line x1="282.0" y1="-185.4" x2="280.3" y2="-200.3" stroke="#999" stroke-width="1.66" stroke-opacity="0.8"/><line x1="280.3" y1="-200.3" x2="276.8" y2="-214.9" stroke="#999" stroke-width="1.66" stroke-opacity="0.8"/><line x1="276.8" y1="-214.9" x2="271.5" y2="-228.9" stroke="#999" stroke-width="1.66" stroke-opacity="0.8"/><line x1="271.5" y1="-228.9" x2="264.1" y2="-242.0" stroke="#999" stroke-width="1.66" stroke-opacity="0.8"/><line x1="264.1" y1="-242.0" x2="255.0" y2="-254.0" stroke="#999" stroke-width="1.66" stroke-opacity="0.8"/><line x1="255.0" y1="-254.0" x2="244.3" y2="-264.5" stroke="#999" stroke-width="1.66" stroke-opacity="0.8"/><line x1="244.3" y1="-264.5" x2="232.3" y2="-273.5" stroke="#999" stroke-width="1.66" stroke-opacity="0.8"/><line x1="232.3" y1="-273.5" x2="219.2" y2="-280.8" stroke="#999" stroke-width="1.66" stroke-opacity="0.8"/><line x1="219.2" y1="-280.8" x2="205.2" y2="-286.2" stroke="#999" stroke-width="1.66" stroke-opacity="0.8"/><line x1="205.2" y1="-286.2" x2="190.6" y2="-289.6" stroke="#999" stroke-width="1.66" stroke-opacity="0.8"/><line x1="190.6" y1="-289.6" x2="175.7" y2="-291.0" stroke="#999" stroke-width="1.66" stroke-opacity="0.8"/><line x1="175.7" y1="-291.0" x2="160.7" y2="-290.4" stroke="#999" stroke-width="1.66" stroke-opacity="0.8"/><line x1="160.7" y1="-290.4" x2="145.9" y2="-287.7" stroke="#999" stroke-width="1.66" stroke-opacity="0.8"/><line x1="145.9" y1="-287.7" x2="131.7" y2="-282.9" stroke="#999" stroke-width="1.66" stroke-opacity="0.8"/><line x1="131.7" y1="-282.9" x2="118.2" y2="-276.3" stroke="#999" stroke-width="1.66" stroke-opacity="0.8"/><line x1="118.2" y1="-276.3" x2="105.8" y2="-267.9" stroke="#999" stroke-width="1.66" stroke-opacity="0.8"/><line x1="105.8" y1="-267.9" x2="94.7" y2="-257.8" stroke="#999" stroke-width="1.66" stroke-opacity="0.8"/><line x1="94.7" y1="-257.8" x2="85.0" y2="-246.4" stroke="#999" stroke-width="1.66" stroke-opacity="0.8"/><line x1="85.0" y1="-246.4" x2="77.0" y2="-233.7" stroke="#999" stroke-width="1.66" stroke-opacity="0.8"/><line x1="77.0" y1="-233.7" x2="71.7" y2="-217.7" stroke="#999" stroke-width="1.66" stroke-opacity="0.8"/><line x1="71.7" y1="-217.7" x2="66.4" y2="-201.7" stroke="#999" stroke-width="1.66" stroke-opacity="0.8"/><line x1="66.4" y1="-201.7" x2="60.3" y2="-185.9" stroke="#999" stroke-width="1.66" stroke-opacity="0.8"/><text x="45.5" y="-152.9" text-anchor="middle" font-size="7.8" font-family="Tahoma,Geneva,sans-serif" fill="#999">1</text><text x="49.9" y="-128.6" text-anchor="middle" font-size="7.8" font-family="Tahoma,Geneva,sans-serif" fill="#999">10</text><text x="-88.9" y="-208.1" text-anchor="middle" font-size="7.8" font-family="Tahoma,Geneva,sans-serif" fill="#999">20</text><text x="-143.1" y="-57.7" text-anchor="middle" font-size="7.8" font-family="Tahoma,Geneva,sans-serif" fill="#999">30</text><text x="-8.9" y="-58.1" text-anchor="middle" font-size="7.8" font-family="Tahoma,Geneva,sans-serif" fill="#999">40</text><text x="98.2" y="-49.4" text-anchor="middle" font-size="7.8" font-family="Tahoma,Geneva,sans-serif" fill="#999">50</text><text x="140.1" y="51.5" text-anchor="middle" font-size="7.8" font-family="Tahoma,Geneva,sans-serif" fill="#999">60</text><text x="162.2" y="-32.6" text-anchor="middle" font-size="7.8" font-family="Tahoma,Geneva,sans-serif" fill="#999">70</text><text x="217.7" y="-60.4" text-anchor="middle" font-size="7.8" font-family="Tahoma,Geneva,sans-serif" fill="#999">80</text><text x="298.2" y="-200.7" text-anchor="middle" font-size="7.8" font-family="Tahoma,Geneva,sans-serif" fill="#999">90</text><text x="176.1" y="-306.4" text-anchor="middle" font-size="7.8" font-family="Tahoma,Geneva,sans-serif" fill="#999">100</text><text x="49.4" y="-205.0" text-anchor="middle" font-size="7.8" font-family="Tahoma,Geneva,sans-serif" fill="#999">110</text><circle cx="60.4" cy="-165.8" r="4.52" fill="lightsalmon" stroke="#ccc" stroke-width="1.66"/><text x="60.4" y="-163.5" text-anchor="middle" font-size="5.7" font-family="Tahoma,Geneva,sans-serif" font-weight="bold" fill="rgb(100,100,100)">U</text><circle cx="69.9" cy="-151.8" r="4.52" fill="lightsalmon" stroke="#ccc" stroke-width="1.66"/><text x="69.9" y="-149.5" text-anchor="middle" font-size="5.7" font-family="Tahoma,Geneva,sans-serif" font-weight="bold" fill="rgb(100,100,100)">G</text><circle cx="79.2" cy="-137.8" r="4.52" fill="lightsalmon" stroke="#ccc" stroke-width="1.66"/><text x="79.2" y="-135.5" text-anchor="middle" font-size="5.7" font-family="Tahoma,Geneva,sans-serif" font-weight="bold" fill="rgb(100,100,100)">G</text><circle cx="89.8" cy="-124.9" r="4.52" fill="lightsalmon" stroke="#ccc" stroke-width="1.66"/><text x="89.8" y="-122.7" text-anchor="middle" font-size="5.7" font-family="Tahoma,Geneva,sans-serif" font-weight="bold" fill="rgb(100,100,100)">A</text><circle cx="93.2" cy="-108.1" r="4.52" fill="lightgreen" stroke="#ccc" stroke-width="1.66"/><text x="93.2" y="-105.8" text-anchor="middle" font-size="5.7" font-family="Tahoma,Geneva,sans-serif" font-weight="bold" fill="rgb(100,100,100)">A</text><circle cx="78.2" cy="-109.4" r="4.52" fill="lightgreen" stroke="#ccc" stroke-width="1.66"/><text x="78.2" y="-107.1" text-anchor="middle" font-size="5.7" font-family="Tahoma,Geneva,sans-serif" font-weight="bold" fill="rgb(100,100,100)">U</text><circle cx="63.3" cy="-110.6" r="4.52" fill="lightgreen" stroke="#ccc" stroke-width="1.66"/><text x="63.3" y="-108.4" text-anchor="middle" font-size="5.7" font-family="Tahoma,Geneva,sans-serif" font-weight="bold" fill="rgb(100,100,100)">G</text><circle cx="48.3" cy="-111.9" r="4.52" fill="lightgreen" stroke="#ccc" stroke-width="1.66"/><text x="48.3" y="-109.6" text-anchor="middle" font-size="5.7" font-family="Tahoma,Geneva,sans-serif" font-weight="bold" fill="rgb(100,100,100)">A</text><circle cx="33.4" cy="-113.1" r="4.52" fill="lightgreen" stroke="#ccc" stroke-width="1.66"/><text x="33.4" y="-110.9" text-anchor="middle" font-size="5.7" font-family="Tahoma,Geneva,sans-serif" font-weight="bold" fill="rgb(100,100,100)">U</text><circle cx="32.1" cy="-128.1" r="4.52" fill="lightblue" stroke="#ccc" stroke-width="1.66"/><text x="32.1" y="-125.9" text-anchor="middle" font-size="5.7" font-family="Tahoma,Geneva,sans-serif" font-weight="bold" fill="rgb(100,100,100)">A</text><circle cx="28.1" cy="-142.6" r="4.52" fill="lightgreen" stroke="#ccc" stroke-width="1.66"/><text x="28.1" y="-140.4" text-anchor="middle" font-size="5.7" font-family="Tahoma,Geneva,sans-serif" font-weight="bold" fill="rgb(100,100,100)">A</text><circle cx="21.7" cy="-156.3" r="4.52" fill="lightgreen" stroke="#ccc" stroke-width="1.66"/><text x="21.7" y="-154.0" text-anchor="middle" font-size="5.7" font-family="Tahoma,Geneva,sans-serif" font-weight="bold" fill="rgb(100,100,100)">C</text><circle cx="13.0" cy="-168.5" r="4.52" fill="lightgreen" stroke="#ccc" stroke-width="1.66"/><text x="13.0" y="-166.3" text-anchor="middle" font-size="5.7" font-family="Tahoma,Geneva,sans-serif" font-weight="bold" fill="rgb(100,100,100)">G</text><circle cx="2.4" cy="-179.1" r="4.52" fill="lightgreen" stroke="#ccc" stroke-width="1.66"/><text x="2.4" y="-176.9" text-anchor="middle" font-size="5.7" font-family="Tahoma,Geneva,sans-serif" font-weight="bold" fill="rgb(100,100,100)">U</text><circle cx="-10.0" cy="-187.7" r="4.52" fill="lightgreen" stroke="#ccc" stroke-width="1.66"/><text x="-10.0" y="-185.5" text-anchor="middle" font-size="5.7" font-family="Tahoma,Geneva,sans-serif" font-weight="bold" fill="rgb(100,100,100)">U</text><circle cx="-23.6" cy="-194.1" r="4.52" fill="lightgreen" stroke="#ccc" stroke-width="1.66"/><text x="-23.6" y="-191.8" text-anchor="middle" font-size="5.7" font-family="Tahoma,Geneva,sans-serif" font-weight="bold" fill="rgb(100,100,100)">U</text><circle cx="-38.2" cy="-197.9" r="4.52" fill="lightgreen" stroke="#ccc" stroke-width="1.66"/><text x="-38.2" y="-195.6" text-anchor="middle" font-size="5.7" font-family="Tahoma,Geneva,sans-serif" font-weight="bold" fill="rgb(100,100,100)">U</text><circle cx="-53.2" cy="-199.2" r="4.52" fill="lightgreen" stroke="#ccc" stroke-width="1.66"/><text x="-53.2" y="-196.9" text-anchor="middle" font-size="5.7" font-family="Tahoma,Geneva,sans-serif" font-weight="bold" fill="rgb(100,100,100)">U</text><circle cx="-68.1" cy="-197.8" r="4.52" fill="lightgreen" stroke="#ccc" stroke-width="1.66"/><text x="-68.1" y="-195.5" text-anchor="middle" font-size="5.7" font-family="Tahoma,Geneva,sans-serif" font-weight="bold" fill="rgb(100,100,100)">G</text><circle cx="-82.7" cy="-193.9" r="4.52" fill="lightgreen" stroke="#ccc" stroke-width="1.66"/><text x="-82.7" y="-191.6" text-anchor="middle" font-size="5.7" font-family="Tahoma,Geneva,sans-serif" font-weight="bold" fill="rgb(100,100,100)">A</text><circle cx="-96.3" cy="-187.5" r="4.52" fill="lightgreen" stroke="#ccc" stroke-width="1.66"/><text x="-96.3" y="-185.2" text-anchor="middle" font-size="5.7" font-family="Tahoma,Geneva,sans-serif" font-weight="bold" fill="rgb(100,100,100)">C</text><circle cx="-108.6" cy="-178.8" r="4.52" fill="lightgreen" stroke="#ccc" stroke-width="1.66"/><text x="-108.6" y="-176.6" text-anchor="middle" font-size="5.7" font-family="Tahoma,Geneva,sans-serif" font-weight="bold" fill="rgb(100,100,100)">A</text><circle cx="-119.2" cy="-168.1" r="4.52" fill="lightgreen" stroke="#ccc" stroke-width="1.66"/><text x="-119.2" y="-165.9" text-anchor="middle" font-size="5.7" font-family="Tahoma,Geneva,sans-serif" font-weight="bold" fill="rgb(100,100,100)">A</text><circle cx="-127.7" cy="-155.8" r="4.52" fill="lightgreen" stroke="#ccc" stroke-width="1.66"/><text x="-127.7" y="-153.5" text-anchor="middle" font-size="5.7" font-family="Tahoma,Geneva,sans-serif" font-weight="bold" fill="rgb(100,100,100)">U</text><circle cx="-134.1" cy="-142.2" r="4.52" fill="lightblue" stroke="#ccc" stroke-width="1.66"/><text x="-134.1" y="-139.9" text-anchor="middle" font-size="5.7" font-family="Tahoma,Geneva,sans-serif" font-weight="bold" fill="rgb(100,100,100)">U</text><circle cx="-138.0" cy="-127.6" r="4.52" fill="lightblue" stroke="#ccc" stroke-width="1.66"/><text x="-138.0" y="-125.4" text-anchor="middle" font-size="5.7" font-family="Tahoma,Geneva,sans-serif" font-weight="bold" fill="rgb(100,100,100)">A</text><circle cx="-139.2" cy="-112.6" r="4.52" fill="lightgreen" stroke="#ccc" stroke-width="1.66"/><text x="-139.2" y="-110.4" text-anchor="middle" font-size="5.7" font-family="Tahoma,Geneva,sans-serif" font-weight="bold" fill="rgb(100,100,100)">C</text><circle cx="-137.8" cy="-97.7" r="4.52" fill="lightgreen" stroke="#ccc" stroke-width="1.66"/><text x="-137.8" y="-95.4" text-anchor="middle" font-size="5.7" font-family="Tahoma,Geneva,sans-serif" font-weight="bold" fill="rgb(100,100,100)">U</text><circle cx="-133.9" cy="-83.1" r="4.52" fill="lightgreen" stroke="#ccc" stroke-width="1.66"/><text x="-133.9" y="-80.9" text-anchor="middle" font-size="5.7" font-family="Tahoma,Geneva,sans-serif" font-weight="bold" fill="rgb(100,100,100)">U</text><circle cx="-127.5" cy="-69.5" r="4.52" fill="lightgreen" stroke="#ccc" stroke-width="1.66"/><text x="-127.5" y="-67.3" text-anchor="middle" font-size="5.7" font-family="Tahoma,Geneva,sans-serif" font-weight="bold" fill="rgb(100,100,100)">C</text><circle cx="-118.8" cy="-57.2" r="4.52" fill="lightgreen" stroke="#ccc" stroke-width="1.66"/><text x="-118.8" y="-55.0" text-anchor="middle" font-size="5.7" font-family="Tahoma,Geneva,sans-serif" font-weight="bold" fill="rgb(100,100,100)">G</text><circle cx="-108.1" cy="-46.6" r="4.52" fill="lightgreen" stroke="#ccc" stroke-width="1.66"/><text x="-108.1" y="-44.4" text-anchor="middle" font-size="5.7" font-family="Tahoma,Geneva,sans-serif" font-weight="bold" fill="rgb(100,100,100)">U</text><circle cx="-95.8" cy="-38.0" r="4.52" fill="lightgreen" stroke="#ccc" stroke-width="1.66"/><text x="-95.8" y="-35.8" text-anchor="middle" font-size="5.7" font-family="Tahoma,Geneva,sans-serif" font-weight="bold" fill="rgb(100,100,100)">G</text><circle cx="-82.1" cy="-31.7" r="4.52" fill="lightgreen" stroke="#ccc" stroke-width="1.66"/><text x="-82.1" y="-29.5" text-anchor="middle" font-size="5.7" font-family="Tahoma,Geneva,sans-serif" font-weight="bold" fill="rgb(100,100,100)">U</text><circle cx="-67.6" cy="-27.9" r="4.52" fill="lightgreen" stroke="#ccc" stroke-width="1.66"/><text x="-67.6" y="-25.6" text-anchor="middle" font-size="5.7" font-family="Tahoma,Geneva,sans-serif" font-weight="bold" fill="rgb(100,100,100)">U</text><circle cx="-52.6" cy="-26.6" r="4.52" fill="lightgreen" stroke="#ccc" stroke-width="1.66"/><text x="-52.6" y="-24.4" text-anchor="middle" font-size="5.7" font-family="Tahoma,Geneva,sans-serif" font-weight="bold" fill="rgb(100,100,100)">C</text><circle cx="-37.6" cy="-28.0" r="4.52" fill="lightgreen" stroke="#ccc" stroke-width="1.66"/><text x="-37.6" y="-25.7" text-anchor="middle" font-size="5.7" font-family="Tahoma,Geneva,sans-serif" font-weight="bold" fill="rgb(100,100,100)">U</text><circle cx="-23.1" cy="-31.9" r="4.52" fill="lightgreen" stroke="#ccc" stroke-width="1.66"/><text x="-23.1" y="-29.7" text-anchor="middle" font-size="5.7" font-family="Tahoma,Geneva,sans-serif" font-weight="bold" fill="rgb(100,100,100)">G</text><circle cx="-9.5" cy="-38.3" r="4.52" fill="lightgreen" stroke="#ccc" stroke-width="1.66"/><text x="-9.5" y="-36.1" text-anchor="middle" font-size="5.7" font-family="Tahoma,Geneva,sans-serif" font-weight="bold" fill="rgb(100,100,100)">U</text><circle cx="2.8" cy="-47.0" r="4.52" fill="lightgreen" stroke="#ccc" stroke-width="1.66"/><text x="2.8" y="-44.7" text-anchor="middle" font-size="5.7" font-family="Tahoma,Geneva,sans-serif" font-weight="bold" fill="rgb(100,100,100)">A</text><circle cx="13.4" cy="-57.7" r="4.52" fill="lightgreen" stroke="#ccc" stroke-width="1.66"/><text x="13.4" y="-55.4" text-anchor="middle" font-size="5.7" font-family="Tahoma,Geneva,sans-serif" font-weight="bold" fill="rgb(100,100,100)">U</text><circle cx="22.0" cy="-70.0" r="4.52" fill="lightblue" stroke="#ccc" stroke-width="1.66"/><text x="22.0" y="-67.7" text-anchor="middle" font-size="5.7" font-family="Tahoma,Geneva,sans-serif" font-weight="bold" fill="rgb(100,100,100)">U</text><circle cx="28.3" cy="-83.6" r="4.52" fill="lightblue" stroke="#ccc" stroke-width="1.66"/><text x="28.3" y="-81.4" text-anchor="middle" font-size="5.7" font-family="Tahoma,Geneva,sans-serif" font-weight="bold" fill="rgb(100,100,100)">A</text><circle cx="32.1" cy="-98.2" r="4.52" fill="lightgreen" stroke="#ccc" stroke-width="1.66"/><text x="32.1" y="-95.9" text-anchor="middle" font-size="5.7" font-family="Tahoma,Geneva,sans-serif" font-weight="bold" fill="rgb(100,100,100)">A</text><circle cx="47.1" cy="-96.9" r="4.52" fill="lightgreen" stroke="#ccc" stroke-width="1.66"/><text x="47.1" y="-94.7" text-anchor="middle" font-size="5.7" font-family="Tahoma,Geneva,sans-serif" font-weight="bold" fill="rgb(100,100,100)">U</text><circle cx="62.0" cy="-95.7" r="4.52" fill="lightgreen" stroke="#ccc" stroke-width="1.66"/><text x="62.0" y="-93.4" text-anchor="middle" font-size="5.7" font-family="Tahoma,Geneva,sans-serif" font-weight="bold" fill="rgb(100,100,100)">C</text><circle cx="76.9" cy="-94.4" r="4.52" fill="lightgreen" stroke="#ccc" stroke-width="1.66"/><text x="76.9" y="-92.2" text-anchor="middle" font-size="5.7" font-family="Tahoma,Geneva,sans-serif" font-weight="bold" fill="rgb(100,100,100)">A</text><circle cx="91.9" cy="-93.2" r="4.52" fill="lightgreen" stroke="#ccc" stroke-width="1.66"/><text x="91.9" y="-90.9" text-anchor="middle" font-size="5.7" font-family="Tahoma,Geneva,sans-serif" font-weight="bold" fill="rgb(100,100,100)">U</text><circle cx="86.3" cy="-78.6" r="4.52" fill="lightsalmon" stroke="#ccc" stroke-width="1.66"/><text x="86.3" y="-76.3" text-anchor="middle" font-size="5.7" font-family="Tahoma,Geneva,sans-serif" font-weight="bold" fill="rgb(100,100,100)">A</text><circle cx="97.4" cy="-70.2" r="4.52" fill="lightsalmon" stroke="#ccc" stroke-width="1.66"/><text x="97.4" y="-67.9" text-anchor="middle" font-size="5.7" font-family="Tahoma,Geneva,sans-serif" font-weight="bold" fill="rgb(100,100,100)">A</text><circle cx="109.9" cy="-79.6" r="4.52" fill="lightgreen" stroke="#ccc" stroke-width="1.66"/><text x="109.9" y="-77.4" text-anchor="middle" font-size="5.7" font-family="Tahoma,Geneva,sans-serif" font-weight="bold" fill="rgb(100,100,100)">G</text><circle cx="115.2" cy="-65.6" r="4.52" fill="lightgreen" stroke="#ccc" stroke-width="1.66"/><text x="115.2" y="-63.4" text-anchor="middle" font-size="5.7" font-family="Tahoma,Geneva,sans-serif" font-weight="bold" fill="rgb(100,100,100)">A</text><circle cx="120.6" cy="-51.6" r="4.52" fill="lightgreen" stroke="#ccc" stroke-width="1.66"/><text x="120.6" y="-49.3" text-anchor="middle" font-size="5.7" font-family="Tahoma,Geneva,sans-serif" font-weight="bold" fill="rgb(100,100,100)">C</text><circle cx="125.9" cy="-37.6" r="4.52" fill="lightgreen" stroke="#ccc" stroke-width="1.66"/><text x="125.9" y="-35.3" text-anchor="middle" font-size="5.7" font-family="Tahoma,Geneva,sans-serif" font-weight="bold" fill="rgb(100,100,100)">C</text><circle cx="131.3" cy="-23.6" r="4.52" fill="lightgreen" stroke="#ccc" stroke-width="1.66"/><text x="131.3" y="-21.3" text-anchor="middle" font-size="5.7" font-family="Tahoma,Geneva,sans-serif" font-weight="bold" fill="rgb(100,100,100)">U</text><circle cx="136.6" cy="-9.6" r="4.52" fill="lightgreen" stroke="#ccc" stroke-width="1.66"/><text x="136.6" y="-7.3" text-anchor="middle" font-size="5.7" font-family="Tahoma,Geneva,sans-serif" font-weight="bold" fill="rgb(100,100,100)">A</text><circle cx="142.0" cy="4.5" r="4.52" fill="lightgreen" stroke="#ccc" stroke-width="1.66"/><text x="142.0" y="6.7" text-anchor="middle" font-size="5.7" font-family="Tahoma,Geneva,sans-serif" font-weight="bold" fill="rgb(100,100,100)">U</text><circle cx="147.3" cy="18.5" r="4.52" fill="lightgreen" stroke="#ccc" stroke-width="1.66"/><text x="147.3" y="20.7" text-anchor="middle" font-size="5.7" font-family="Tahoma,Geneva,sans-serif" font-weight="bold" fill="rgb(100,100,100)">G</text><circle cx="152.7" cy="32.5" r="4.52" fill="lightgreen" stroke="#ccc" stroke-width="1.66"/><text x="152.7" y="34.7" text-anchor="middle" font-size="5.7" font-family="Tahoma,Geneva,sans-serif" font-weight="bold" fill="rgb(100,100,100)">G</text><circle cx="158.0" cy="46.5" r="4.52" fill="lightgreen" stroke="#ccc" stroke-width="1.66"/><text x="158.0" y="48.8" text-anchor="middle" font-size="5.7" font-family="Tahoma,Geneva,sans-serif" font-weight="bold" fill="rgb(100,100,100)">C</text><circle cx="156.4" cy="61.5" r="4.52" fill="lightblue" stroke="#ccc" stroke-width="1.66"/><text x="156.4" y="63.7" text-anchor="middle" font-size="5.7" font-family="Tahoma,Geneva,sans-serif" font-weight="bold" fill="rgb(100,100,100)">C</text><circle cx="167.6" cy="71.6" r="4.52" fill="lightblue" stroke="#ccc" stroke-width="1.66"/><text x="167.6" y="73.9" text-anchor="middle" font-size="5.7" font-family="Tahoma,Geneva,sans-serif" font-weight="bold" fill="rgb(100,100,100)">G</text><circle cx="181.7" cy="66.2" r="4.52" fill="lightblue" stroke="#ccc" stroke-width="1.66"/><text x="181.7" y="68.5" text-anchor="middle" font-size="5.7" font-family="Tahoma,Geneva,sans-serif" font-weight="bold" fill="rgb(100,100,100)">A</text><circle cx="183.2" cy="51.2" r="4.52" fill="lightblue" stroke="#ccc" stroke-width="1.66"/><text x="183.2" y="53.5" text-anchor="middle" font-size="5.7" font-family="Tahoma,Geneva,sans-serif" font-weight="bold" fill="rgb(100,100,100)">G</text><circle cx="172.0" cy="41.1" r="4.52" fill="lightgreen" stroke="#ccc" stroke-width="1.66"/><text x="172.0" y="43.4" text-anchor="middle" font-size="5.7" font-family="Tahoma,Geneva,sans-serif" font-weight="bold" fill="rgb(100,100,100)">G</text><circle cx="166.7" cy="27.1" r="4.52" fill="lightgreen" stroke="#ccc" stroke-width="1.66"/><text x="166.7" y="29.4" text-anchor="middle" font-size="5.7" font-family="Tahoma,Geneva,sans-serif" font-weight="bold" fill="rgb(100,100,100)">C</text><circle cx="161.3" cy="13.1" r="4.52" fill="lightgreen" stroke="#ccc" stroke-width="1.66"/><text x="161.3" y="15.4" text-anchor="middle" font-size="5.7" font-family="Tahoma,Geneva,sans-serif" font-weight="bold" fill="rgb(100,100,100)">C</text><circle cx="156.0" cy="-0.9" r="4.52" fill="lightgreen" stroke="#ccc" stroke-width="1.66"/><text x="156.0" y="1.4" text-anchor="middle" font-size="5.7" font-family="Tahoma,Geneva,sans-serif" font-weight="bold" fill="rgb(100,100,100)">A</text><circle cx="150.6" cy="-14.9" r="4.52" fill="lightgreen" stroke="#ccc" stroke-width="1.66"/><text x="150.6" y="-12.6" text-anchor="middle" font-size="5.7" font-family="Tahoma,Geneva,sans-serif" font-weight="bold" fill="rgb(100,100,100)">U</text><circle cx="145.3" cy="-28.9" r="4.52" fill="lightgreen" stroke="#ccc" stroke-width="1.66"/><text x="145.3" y="-26.7" text-anchor="middle" font-size="5.7" font-family="Tahoma,Geneva,sans-serif" font-weight="bold" fill="rgb(100,100,100)">A</text><circle cx="139.9" cy="-42.9" r="4.52" fill="lightgreen" stroke="#ccc" stroke-width="1.66"/><text x="139.9" y="-40.7" text-anchor="middle" font-size="5.7" font-family="Tahoma,Geneva,sans-serif" font-weight="bold" fill="rgb(100,100,100)">G</text><circle cx="134.6" cy="-56.9" r="4.52" fill="lightgreen" stroke="#ccc" stroke-width="1.66"/><text x="134.6" y="-54.7" text-anchor="middle" font-size="5.7" font-family="Tahoma,Geneva,sans-serif" font-weight="bold" fill="rgb(100,100,100)">G</text><circle cx="129.2" cy="-71.0" r="4.52" fill="lightgreen" stroke="#ccc" stroke-width="1.66"/><text x="129.2" y="-68.7" text-anchor="middle" font-size="5.7" font-family="Tahoma,Geneva,sans-serif" font-weight="bold" fill="rgb(100,100,100)">U</text><circle cx="123.9" cy="-85.0" r="4.52" fill="lightgreen" stroke="#ccc" stroke-width="1.66"/><text x="123.9" y="-82.7" text-anchor="middle" font-size="5.7" font-family="Tahoma,Geneva,sans-serif" font-weight="bold" fill="rgb(100,100,100)">U</text><circle cx="137.7" cy="-79.2" r="4.52" fill="lightgreen" stroke="#ccc" stroke-width="1.66"/><text x="137.7" y="-76.9" text-anchor="middle" font-size="5.7" font-family="Tahoma,Geneva,sans-serif" font-weight="bold" fill="rgb(100,100,100)">G</text><circle cx="152.2" cy="-75.3" r="4.52" fill="lightgreen" stroke="#ccc" stroke-width="1.66"/><text x="152.2" y="-73.0" text-anchor="middle" font-size="5.7" font-family="Tahoma,Geneva,sans-serif" font-weight="bold" fill="rgb(100,100,100)">U</text><circle cx="167.1" cy="-73.4" r="4.52" fill="lightgreen" stroke="#ccc" stroke-width="1.66"/><text x="167.1" y="-71.2" text-anchor="middle" font-size="5.7" font-family="Tahoma,Geneva,sans-serif" font-weight="bold" fill="rgb(100,100,100)">A</text><circle cx="182.1" cy="-73.7" r="4.52" fill="lightgreen" stroke="#ccc" stroke-width="1.66"/><text x="182.1" y="-71.4" text-anchor="middle" font-size="5.7" font-family="Tahoma,Geneva,sans-serif" font-weight="bold" fill="rgb(100,100,100)">C</text><circle cx="196.9" cy="-76.0" r="4.52" fill="lightgreen" stroke="#ccc" stroke-width="1.66"/><text x="196.9" y="-73.7" text-anchor="middle" font-size="5.7" font-family="Tahoma,Geneva,sans-serif" font-weight="bold" fill="rgb(100,100,100)">A</text><circle cx="211.3" cy="-80.1" r="4.52" fill="lightsalmon" stroke="#ccc" stroke-width="1.66"/><text x="211.3" y="-77.8" text-anchor="middle" font-size="5.7" font-family="Tahoma,Geneva,sans-serif" font-weight="bold" fill="rgb(100,100,100)">A</text><circle cx="224.9" cy="-86.5" r="4.52" fill="lightgreen" stroke="#ccc" stroke-width="1.66"/><text x="224.9" y="-84.2" text-anchor="middle" font-size="5.7" font-family="Tahoma,Geneva,sans-serif" font-weight="bold" fill="rgb(100,100,100)">G</text><circle cx="237.6" cy="-94.5" r="4.52" fill="lightgreen" stroke="#ccc" stroke-width="1.66"/><text x="237.6" y="-92.3" text-anchor="middle" font-size="5.7" font-family="Tahoma,Geneva,sans-serif" font-weight="bold" fill="rgb(100,100,100)">A</text><circle cx="249.0" cy="-104.2" r="4.52" fill="lightgreen" stroke="#ccc" stroke-width="1.66"/><text x="249.0" y="-102.0" text-anchor="middle" font-size="5.7" font-family="Tahoma,Geneva,sans-serif" font-weight="bold" fill="rgb(100,100,100)">A</text><circle cx="259.0" cy="-115.4" r="4.52" fill="lightgreen" stroke="#ccc" stroke-width="1.66"/><text x="259.0" y="-113.2" text-anchor="middle" font-size="5.7" font-family="Tahoma,Geneva,sans-serif" font-weight="bold" fill="rgb(100,100,100)">C</text><circle cx="267.4" cy="-127.9" r="4.52" fill="lightgreen" stroke="#ccc" stroke-width="1.66"/><text x="267.4" y="-125.6" text-anchor="middle" font-size="5.7" font-family="Tahoma,Geneva,sans-serif" font-weight="bold" fill="rgb(100,100,100)">G</text><circle cx="273.9" cy="-141.4" r="4.52" fill="lightgreen" stroke="#ccc" stroke-width="1.66"/><text x="273.9" y="-139.1" text-anchor="middle" font-size="5.7" font-family="Tahoma,Geneva,sans-serif" font-weight="bold" fill="rgb(100,100,100)">C</text><circle cx="278.6" cy="-155.6" r="4.52" fill="lightgreen" stroke="#ccc" stroke-width="1.66"/><text x="278.6" y="-153.4" text-anchor="middle" font-size="5.7" font-family="Tahoma,Geneva,sans-serif" font-weight="bold" fill="rgb(100,100,100)">G</text><circle cx="281.2" cy="-170.4" r="4.52" fill="lightgreen" stroke="#ccc" stroke-width="1.66"/><text x="281.2" y="-168.1" text-anchor="middle" font-size="5.7" font-family="Tahoma,Geneva,sans-serif" font-weight="bold" fill="rgb(100,100,100)">A</text><circle cx="282.0" cy="-185.4" r="4.52" fill="lightsalmon" stroke="#ccc" stroke-width="1.66"/><text x="282.0" y="-183.1" text-anchor="middle" font-size="5.7" font-family="Tahoma,Geneva,sans-serif" font-weight="bold" fill="rgb(100,100,100)">U</text><circle cx="280.3" cy="-200.3" r="4.52" fill="lightgreen" stroke="#ccc" stroke-width="1.66"/><text x="280.3" y="-198.1" text-anchor="middle" font-size="5.7" font-family="Tahoma,Geneva,sans-serif" font-weight="bold" fill="rgb(100,100,100)">A</text><circle cx="276.8" cy="-214.9" r="4.52" fill="lightgreen" stroke="#ccc" stroke-width="1.66"/><text x="276.8" y="-212.6" text-anchor="middle" font-size="5.7" font-family="Tahoma,Geneva,sans-serif" font-weight="bold" fill="rgb(100,100,100)">G</text><circle cx="271.5" cy="-228.9" r="4.52" fill="lightsalmon" stroke="#ccc" stroke-width="1.66"/><text x="271.5" y="-226.7" text-anchor="middle" font-size="5.7" font-family="Tahoma,Geneva,sans-serif" font-weight="bold" fill="rgb(100,100,100)">C</text><circle cx="264.1" cy="-242.0" r="4.52" fill="lightsalmon" stroke="#ccc" stroke-width="1.66"/><text x="264.1" y="-239.8" text-anchor="middle" font-size="5.7" font-family="Tahoma,Geneva,sans-serif" font-weight="bold" fill="rgb(100,100,100)">U</text><circle cx="255.0" cy="-254.0" r="4.52" fill="lightsalmon" stroke="#ccc" stroke-width="1.66"/><text x="255.0" y="-251.7" text-anchor="middle" font-size="5.7" font-family="Tahoma,Geneva,sans-serif" font-weight="bold" fill="rgb(100,100,100)">C</text><circle cx="244.3" cy="-264.5" r="4.52" fill="lightgreen" stroke="#ccc" stroke-width="1.66"/><text x="244.3" y="-262.2" text-anchor="middle" font-size="5.7" font-family="Tahoma,Geneva,sans-serif" font-weight="bold" fill="rgb(100,100,100)">A</text><circle cx="232.3" cy="-273.5" r="4.52" fill="lightgreen" stroke="#ccc" stroke-width="1.66"/><text x="232.3" y="-271.2" text-anchor="middle" font-size="5.7" font-family="Tahoma,Geneva,sans-serif" font-weight="bold" fill="rgb(100,100,100)">U</text><circle cx="219.2" cy="-280.8" r="4.52" fill="lightgreen" stroke="#ccc" stroke-width="1.66"/><text x="219.2" y="-278.5" text-anchor="middle" font-size="5.7" font-family="Tahoma,Geneva,sans-serif" font-weight="bold" fill="rgb(100,100,100)">U</text><circle cx="205.2" cy="-286.2" r="4.52" fill="lightgreen" stroke="#ccc" stroke-width="1.66"/><text x="205.2" y="-283.9" text-anchor="middle" font-size="5.7" font-family="Tahoma,Geneva,sans-serif" font-weight="bold" fill="rgb(100,100,100)">G</text><circle cx="190.6" cy="-289.6" r="4.52" fill="lightgreen" stroke="#ccc" stroke-width="1.66"/><text x="190.6" y="-287.4" text-anchor="middle" font-size="5.7" font-family="Tahoma,Geneva,sans-serif" font-weight="bold" fill="rgb(100,100,100)">U</text><circle cx="175.7" cy="-291.0" r="4.52" fill="lightgreen" stroke="#ccc" stroke-width="1.66"/><text x="175.7" y="-288.8" text-anchor="middle" font-size="5.7" font-family="Tahoma,Geneva,sans-serif" font-weight="bold" fill="rgb(100,100,100)">C</text><circle cx="160.7" cy="-290.4" r="4.52" fill="lightgreen" stroke="#ccc" stroke-width="1.66"/><text x="160.7" y="-288.1" text-anchor="middle" font-size="5.7" font-family="Tahoma,Geneva,sans-serif" font-weight="bold" fill="rgb(100,100,100)">A</text><circle cx="145.9" cy="-287.7" r="4.52" fill="lightgreen" stroke="#ccc" stroke-width="1.66"/><text x="145.9" y="-285.4" text-anchor="middle" font-size="5.7" font-family="Tahoma,Geneva,sans-serif" font-weight="bold" fill="rgb(100,100,100)">A</text><circle cx="131.7" cy="-282.9" r="4.52" fill="lightgreen" stroke="#ccc" stroke-width="1.66"/><text x="131.7" y="-280.7" text-anchor="middle" font-size="5.7" font-family="Tahoma,Geneva,sans-serif" font-weight="bold" fill="rgb(100,100,100)">G</text><circle cx="118.2" cy="-276.3" r="4.52" fill="lightgreen" stroke="#ccc" stroke-width="1.66"/><text x="118.2" y="-274.0" text-anchor="middle" font-size="5.7" font-family="Tahoma,Geneva,sans-serif" font-weight="bold" fill="rgb(100,100,100)">A</text><circle cx="105.8" cy="-267.9" r="4.52" fill="lightgreen" stroke="#ccc" stroke-width="1.66"/><text x="105.8" y="-265.6" text-anchor="middle" font-size="5.7" font-family="Tahoma,Geneva,sans-serif" font-weight="bold" fill="rgb(100,100,100)">A</text><circle cx="94.7" cy="-257.8" r="4.52" fill="lightgreen" stroke="#ccc" stroke-width="1.66"/><text x="94.7" y="-255.6" text-anchor="middle" font-size="5.7" font-family="Tahoma,Geneva,sans-serif" font-weight="bold" fill="rgb(100,100,100)">C</text><circle cx="85.0" cy="-246.4" r="4.52" fill="lightgreen" stroke="#ccc" stroke-width="1.66"/><text x="85.0" y="-244.1" text-anchor="middle" font-size="5.7" font-family="Tahoma,Geneva,sans-serif" font-weight="bold" fill="rgb(100,100,100)">G</text><circle cx="77.0" cy="-233.7" r="4.52" fill="lightgreen" stroke="#ccc" stroke-width="1.66"/><text x="77.0" y="-231.4" text-anchor="middle" font-size="5.7" font-family="Tahoma,Geneva,sans-serif" font-weight="bold" fill="rgb(100,100,100)">U</text><circle cx="71.7" cy="-217.7" r="4.52" fill="lightsalmon" stroke="#ccc" stroke-width="1.66"/><text x="71.7" y="-215.5" text-anchor="middle" font-size="5.7" font-family="Tahoma,Geneva,sans-serif" font-weight="bold" fill="rgb(100,100,100)">A</text><circle cx="66.4" cy="-201.7" r="4.52" fill="lightsalmon" stroke="#ccc" stroke-width="1.66"/><text x="66.4" y="-199.4" text-anchor="middle" font-size="5.7" font-family="Tahoma,Geneva,sans-serif" font-weight="bold" fill="rgb(100,100,100)">U</text><circle cx="60.3" cy="-185.9" r="4.52" fill="lightsalmon" stroke="#ccc" stroke-width="1.66"/><text x="60.3" y="-183.7" text-anchor="middle" font-size="5.7" font-family="Tahoma,Geneva,sans-serif" font-weight="bold" fill="rgb(100,100,100)">G</text></svg>