<svg xmlns="http://www.w3.org/2000/svg" viewBox="-114.6 -255.5 756.3 273.1" width="756" height="273"><style></style><line x1="15.4" y1="-155.4" x2="8.1" y2="-142.3" stroke="#999" stroke-width="1.60" stroke-opacity="0.8"/><line x1="28.5" y1="-148.2" x2="21.2" y2="-135.0" stroke="#999" stroke-width="1.60" stroke-opacity="0.8"/><line x1="41.6" y1="-140.9" x2="34.4" y2="-127.8" stroke="#999" stroke-width="1.60" stroke-opacity="0.8"/><line x1="-16.3" y1="-125.0" x2="28.8" y2="-96.7" stroke="#d9534f" stroke-width="1.60" stroke-opacity="0.6"/><line x1="-31.2" y1="-122.5" x2="30.1" y2="-86.2" stroke="#d9534f" stroke-width="1.60" stroke-opacity="0.6"/><line x1="-46.1" y1="-124.5" x2="32.9" y2="-75.9" stroke="#d9534f" stroke-width="1.60" stroke-opacity="0.6"/><line x1="-71.1" y1="-140.8" x2="37.2" y2="-66.3" stroke="#d9534f" stroke-width="1.60" stroke-opacity="0.6"/><line x1="-78.9" y1="-153.8" x2="42.9" y2="-57.3" stroke="#d9534f" stroke-width="1.60" stroke-opacity="0.6"/><line x1="-82.6" y1="-168.5" x2="49.9" y2="-49.3" stroke="#d9534f" stroke-width="1.60" stroke-opacity="0.6"/><line x1="-81.7" y1="-183.6" x2="58.0" y2="-42.4" stroke="#d9534f" stroke-width="1.60" stroke-opacity="0.6"/><line x1="-76.4" y1="-197.7" x2="67.0" y2="-36.8" stroke="#d9534f" stroke-width="1.60" stroke-opacity="0.6"/><line x1="-54.9" y1="-218.4" x2="97.5" y2="-28.8" stroke="#d9534f" stroke-width="1.60" stroke-opacity="0.6"/><line x1="-40.5" y1="-223.2" x2="108.1" y2="-29.2" stroke="#d9534f" stroke-width="1.60" stroke-opacity="0.6"/><line x1="-25.4" y1="-223.4" x2="118.5" y2="-31.2" stroke="#d9534f" stroke-width="1.60" stroke-opacity="0.6"/><line x1="-10.9" y1="-219.2" x2="128.5" y2="-34.7" stroke="#d9534f" stroke-width="1.60" stroke-opacity="0.6"/><line x1="11.4" y1="-199.3" x2="146.4" y2="-45.9" stroke="#d9534f" stroke-width="1.60" stroke-opacity="0.6"/><line x1="17.1" y1="-185.3" x2="154.0" y2="-53.4" stroke="#d9534f" stroke-width="1.60" stroke-opacity="0.6"/><line x1="18.5" y1="-170.2" x2="160.3" y2="-62.0" stroke="#d9534f" stroke-width="1.60" stroke-opacity="0.6"/><line x1="585.2" y1="-19.9" x2="587.2" y2="-34.8" stroke="#999" stroke-width="1.60" stroke-opacity="0.8"/><line x1="570.4" y1="-21.9" x2="572.3" y2="-36.7" stroke="#999" stroke-width="1.60" stroke-opacity="0.8"/><line x1="555.5" y1="-23.9" x2="557.5" y2="-38.7" stroke="#999" stroke-width="1.60" stroke-opacity="0.8"/><line x1="540.6" y1="-25.9" x2="542.6" y2="-40.7" stroke="#999" stroke-width="1.60" stroke-opacity="0.8"/><line x1="525.8" y1="-27.9" x2="527.7" y2="-42.7" stroke="#999" stroke-width="1.60" stroke-opacity="0.8"/><line x1="510.9" y1="-29.8" x2="512.9" y2="-44.7" stroke="#999" stroke-width="1.60" stroke-opacity="0.8"/><line x1="496.0" y1="-31.8" x2="498.0" y2="-46.7" stroke="#999" stroke-width="1.60" stroke-opacity="0.8"/><line x1="481.2" y1="-33.8" x2="483.1" y2="-48.7" stroke="#999" stroke-width="1.60" stroke-opacity="0.8"/><line x1="466.3" y1="-35.8" x2="468.3" y2="-50.7" stroke="#999" stroke-width="1.60" stroke-opacity="0.8"/><line x1="451.4" y1="-37.8" x2="453.4" y2="-52.7" stroke="#999" stroke-width="1.60" stroke-opacity="0.8"/><line x1="436.6" y1="-39.8" x2="438.5" y2="-54.7" stroke="#999" stroke-width="1.60" stroke-opacity="0.8"/><line x1="421.7" y1="-41.8" x2="423.7" y2="-56.7" stroke="#999" stroke-width="1.60" stroke-opacity="0.8"/><line x1="406.8" y1="-43.8" x2="408.8" y2="-58.6" stroke="#999" stroke-width="1.60" stroke-opacity="0.8"/><line x1="346.5" y1="-52.7" x2="348.9" y2="-67.5" stroke="#999" stroke-width="1.60" stroke-opacity="0.8"/><line x1="331.7" y1="-55.1" x2="334.1" y2="-69.9" stroke="#999" stroke-width="1.60" stroke-opacity="0.8"/><line x1="316.9" y1="-57.5" x2="319.3" y2="-72.3" stroke="#999" stroke-width="1.60" stroke-opacity="0.8"/><line x1="302.1" y1="-59.8" x2="304.4" y2="-74.7" stroke="#999" stroke-width="1.60" stroke-opacity="0.8"/><line x1="287.2" y1="-62.2" x2="289.6" y2="-77.0" stroke="#999" stroke-width="1.60" stroke-opacity="0.8"/><line x1="272.4" y1="-64.6" x2="274.8" y2="-79.4" stroke="#999" stroke-width="1.60" stroke-opacity="0.8"/><line x1="257.6" y1="-67.0" x2="260.0" y2="-81.8" stroke="#999" stroke-width="1.60" stroke-opacity="0.8"/><line x1="242.8" y1="-69.4" x2="245.2" y2="-84.2" stroke="#999" stroke-width="1.60" stroke-opacity="0.8"/><line x1="228.0" y1="-71.8" x2="230.4" y2="-86.6" stroke="#999" stroke-width="1.60" stroke-opacity="0.8"/><line x1="213.2" y1="-74.2" x2="215.6" y2="-89.0" stroke="#999" stroke-width="1.60" stroke-opacity="0.8"/><line x1="198.4" y1="-76.6" x2="200.8" y2="-91.4" stroke="#999" stroke-width="1.60" stroke-opacity="0.8"/><line x1="183.6" y1="-78.9" x2="186.0" y2="-93.7" stroke="#999" stroke-width="1.60" stroke-opacity="0.8"/><line x1="168.8" y1="-81.3" x2="171.2" y2="-96.1" stroke="#999" stroke-width="1.60" stroke-opacity="0.8"/><line x1="157.7" y1="-139.4" x2="142.1" y2="-146.9" stroke="#999" stroke-width="1.60" stroke-opacity="0.8"/><line x1="142.1" y1="-146.9" x2="126.0" y2="-152.9" stroke="#999" stroke-width="1.60" stroke-opacity="0.8"/><line x1="126.0" y1="-152.9" x2="109.0" y2="-156.2" stroke="#999" stroke-width="1.60" stroke-opacity="0.8"/><line x1="109.0" y1="-156.2" x2="91.7" y2="-156.2" stroke="#999" stroke-width="1.60" stroke-opacity="0.8"/><line x1="91.7" y1="-156.2" x2="74.6" y2="-153.0" stroke="#999" stroke-width="1.60" stroke-opacity="0.8"/><line x1="74.6" y1="-153.0" x2="57.9" y2="-147.5" stroke="#999" stroke-width="1.60" stroke-opacity="0.8"/><line x1="57.9" y1="-147.5" x2="41.6" y2="-140.9" stroke="#999" stroke-width="1.60" stroke-opacity="0.8"/><line x1="41.6" y1="-140.9" x2="28.5" y2="-148.2" stroke="#999" stroke-width="1.60" stroke-opacity="0.8"/><line x1="28.5" y1="-148.2" x2="15.4" y2="-155.4" stroke="#999" stroke-width="1.60" stroke-opacity="0.8"/><line x1="15.4" y1="-155.4" x2="18.5" y2="-170.2" stroke="#999" stroke-width="1.60" stroke-opacity="0.8"/><line x1="18.5" y1="-170.2" x2="17.1" y2="-185.3" stroke="#999" stroke-width="1.60" stroke-opacity="0.8"/><line x1="17.1" y1="-185.3" x2="11.4" y2="-199.3" stroke="#999" stroke-width="1.60" stroke-opacity="0.8"/><line x1="11.4" y1="-199.3" x2="0.8" y2="-209.9" stroke="#999" stroke-width="1.60" stroke-opacity="0.8"/><line x1="0.8" y1="-209.9" x2="-10.9" y2="-219.2" stroke="#999" stroke-width="1.60" stroke-opacity="0.8"/><line x1="-10.9" y1="-219.2" x2="-25.4" y2="-223.4" stroke="#999" stroke-width="1.60" stroke-opacity="0.8"/><line x1="-25.4" y1="-223.4" x2="-40.5" y2="-223.2" stroke="#999" stroke-width="1.60" stroke-opacity="0.8"/><line x1="-40.5" y1="-223.2" x2="-54.9" y2="-218.4" stroke="#999" stroke-width="1.60" stroke-opacity="0.8"/><line x1="-54.9" y1="-218.4" x2="-66.3" y2="-208.7" stroke="#999" stroke-width="1.60" stroke-opacity="0.8"/><line x1="-66.3" y1="-208.7" x2="-76.4" y2="-197.7" stroke="#999" stroke-width="1.60" stroke-opacity="0.8"/><line x1="-76.4" y1="-197.7" x2="-81.7" y2="-183.6" stroke="#999" stroke-width="1.60" stroke-opacity="0.8"/><line x1="-81.7" y1="-183.6" x2="-82.6" y2="-168.5" stroke="#999" stroke-width="1.60" stroke-opacity="0.8"/><line x1="-82.6" y1="-168.5" x2="-78.9" y2="-153.8" stroke="#999" stroke-width="1.60" stroke-opacity="0.8"/><line x1="-78.9" y1="-153.8" x2="-71.1" y2="-140.8" stroke="#999" stroke-width="1.60" stroke-opacity="0.8"/><line x1="-71.1" y1="-140.8" x2="-59.1" y2="-131.9" stroke="#999" stroke-width="1.60" stroke-opacity="0.8"/><line x1="-59.1" y1="-131.9" x2="-46.1" y2="-124.5" stroke="#999" stroke-width="1.60" stroke-opacity="0.8"/><line x1="-46.1" y1="-124.5" x2="-31.2" y2="-122.5" stroke="#999" stroke-width="1.60" stroke-opacity="0.8"/><line x1="-31.2" y1="-122.5" x2="-16.3" y2="-125.0" stroke="#999" stroke-width="1.60" stroke-opacity="0.8"/><line x1="-16.3" y1="-125.0" x2="-3.6" y2="-133.0" stroke="#999" stroke-width="1.60" stroke-opacity="0.8"/><line x1="-3.6" y1="-133.0" x2="8.1" y2="-142.3" stroke="#999" stroke-width="1.60" stroke-opacity="0.8"/><line x1="8.1" y1="-142.3" x2="21.2" y2="-135.0" stroke="#999" stroke-width="1.60" stroke-opacity="0.8"/><line x1="21.2" y1="-135.0" x2="34.4" y2="-127.8" stroke="#999" stroke-width="1.60" stroke-opacity="0.8"/><line x1="34.4" y1="-127.8" x2="36.3" y2="-114.1" stroke="#999" stroke-width="1.60" stroke-opacity="0.8"/><line x1="36.3" y1="-114.1" x2="22.2" y2="-109.6" stroke="#999" stroke-width="1.60" stroke-opacity="0.8"/><line x1="22.2" y1="-109.6" x2="28.8" y2="-96.7" stroke="#999" stroke-width="1.60" stroke-opacity="0.8"/><line x1="28.8" y1="-96.7" x2="30.1" y2="-86.2" stroke="#999" stroke-width="1.60" stroke-opacity="0.8"/><line x1="30.1" y1="-86.2" x2="32.9" y2="-75.9" stroke="#999" stroke-width="1.60" stroke-opacity="0.8"/><line x1="32.9" y1="-75.9" x2="37.2" y2="-66.3" stroke="#999" stroke-width="1.60" stroke-opacity="0.8"/><line x1="37.2" y1="-66.3" x2="42.9" y2="-57.3" stroke="#999" stroke-width="1.60" stroke-opacity="0.8"/><line x1="42.9" y1="-57.3" x2="49.9" y2="-49.3" stroke="#999" stroke-width="1.60" stroke-opacity="0.8"/><line x1="49.9" y1="-49.3" x2="58.0" y2="-42.4" stroke="#999" stroke-width="1.60" stroke-opacity="0.8"/><line x1="58.0" y1="-42.4" x2="67.0" y2="-36.8" stroke="#999" stroke-width="1.60" stroke-opacity="0.8"/><line x1="67.0" y1="-36.8" x2="72.2" y2="-23.2" stroke="#999" stroke-width="1.60" stroke-opacity="0.8"/><line x1="72.2" y1="-23.2" x2="86.3" y2="-19.5" stroke="#999" stroke-width="1.60" stroke-opacity="0.8"/><line x1="86.3" y1="-19.5" x2="97.5" y2="-28.8" stroke="#999" stroke-width="1.60" stroke-opacity="0.8"/><line x1="97.5" y1="-28.8" x2="108.1" y2="-29.2" stroke="#999" stroke-width="1.60" stroke-opacity="0.8"/><line x1="108.1" y1="-29.2" x2="118.5" y2="-31.2" stroke="#999" stroke-width="1.60" stroke-opacity="0.8"/><line x1="118.5" y1="-31.2" x2="128.5" y2="-34.7" stroke="#999" stroke-width="1.60" stroke-opacity="0.8"/><line x1="128.5" y1="-34.7" x2="142.8" y2="-31.8" stroke="#999" stroke-width="1.60" stroke-opacity="0.8"/><line x1="142.8" y1="-31.8" x2="146.4" y2="-45.9" stroke="#999" stroke-width="1.60" stroke-opacity="0.8"/><line x1="146.4" y1="-45.9" x2="154.0" y2="-53.4" stroke="#999" stroke-width="1.60" stroke-opacity="0.8"/><line x1="154.0" y1="-53.4" x2="160.3" y2="-62.0" stroke="#999" stroke-width="1.60" stroke-opacity="0.8"/><line x1="160.3" y1="-62.0" x2="172.7" y2="-66.4" stroke="#999" stroke-width="1.60" stroke-opacity="0.8"/><line x1="172.7" y1="-66.4" x2="168.8" y2="-81.3" stroke="#999" stroke-width="1.60" stroke-opacity="0.8"/><line x1="168.8" y1="-81.3" x2="183.6" y2="-78.9" stroke="#999" stroke-width="1.60" stroke-opacity="0.8"/><line x1="183.6" y1="-78.9" x2="198.4" y2="-76.6" stroke="#999" stroke-width="1.60" stroke-opacity="0.8"/><line x1="198.4" y1="-76.6" x2="213.2" y2="-74.2" stroke="#999" stroke-width="1.60" stroke-opacity="0.8"/><line x1="213.2" y1="-74.2" x2="228.0" y2="-71.8" stroke="#999" stroke-width="1.60" stroke-opacity="0.8"/><line x1="228.0" y1="-71.8" x2="242.8" y2="-69.4" stroke="#999" stroke-width="1.60" stroke-opacity="0.8"/><line x1="242.8" y1="-69.4" x2="257.6" y2="-67.0" stroke="#999" stroke-width="1.60" stroke-opacity="0.8"/><line x1="257.6" y1="-67.0" x2="272.4" y2="-64.6" stroke="#999" stroke-width="1.60" stroke-opacity="0.8"/><line x1="272.4" y1="-64.6" x2="287.2" y2="-62.2" stroke="#999" stroke-width="1.60" stroke-opacity="0.8"/><line x1="287.2" y1="-62.2" x2="302.1" y2="-59.8" stroke="#999" stroke-width="1.60" stroke-opacity="0.8"/><line x1="302.1" y1="-59.8" x2="316.9" y2="-57.5" stroke="#999" stroke-width="1.60" stroke-opacity="0.8"/><line x1="316.9" y1="-57.5" x2="331.7" y2="-55.1" stroke="#999" stroke-width="1.60" stroke-opacity="0.8"/><line x1="331.7" y1="-55.1" x2="346.5" y2="-52.7" stroke="#999" stroke-width="1.60" stroke-opacity="0.8"/><line x1="346.5" y1="-52.7" x2="349.4" y2="-38.4" stroke="#999" stroke-width="1.60" stroke-opacity="0.8"/><line x1="349.4" y1="-38.4" x2="359.5" y2="-28.0" stroke="#999" stroke-width="1.60" stroke-opacity="0.8"/><line x1="359.5" y1="-28.0" x2="373.1" y2="-22.7" stroke="#999" stroke-width="1.60" stroke-opacity="0.8"/><line x1="373.1" y1="-22.7" x2="387.6" y2="-23.8" stroke="#999" stroke-width="1.60" stroke-opacity="0.8"/><line x1="387.6" y1="-23.8" x2="400.4" y2="-30.7" stroke="#999" stroke-width="1.60" stroke-opacity="0.8"/><line x1="400.4" y1="-30.7" x2="406.8" y2="-43.8" stroke="#999" stroke-width="1.60" stroke-opacity="0.8"/><line x1="406.8" y1="-43.8" x2="421.7" y2="-41.8" stroke="#999" stroke-width="1.60" stroke-opacity="0.8"/><line x1="421.7" y1="-41.8" x2="436.6" y2="-39.8" stroke="#999" stroke-width="1.60" stroke-opacity="0.8"/><line x1="436.6" y1="-39.8" x2="451.4" y2="-37.8" stroke="#999" stroke-width="1.60" stroke-opacity="0.8"/><line x1="451.4" y1="-37.8" x2="466.3" y2="-35.8" stroke="#999" stroke-width="1.60" stroke-opacity="0.8"/><line x1="466.3" y1="-35.8" x2="481.2" y2="-33.8" stroke="#999" stroke-width="1.60" stroke-opacity="0.8"/><line x1="481.2" y1="-33.8" x2="496.0" y2="-31.8" stroke="#999" stroke-width="1.60" stroke-opacity="0.8"/><line x1="496.0" y1="-31.8" x2="510.9" y2="-29.8" stroke="#999" stroke-width="1.60" stroke-opacity="0.8"/><line x1="510.9" y1="-29.8" x2="525.8" y2="-27.9" stroke="#999" stroke-width="1.60" stroke-opacity="0.8"/><line x1="525.8" y1="-27.9" x2="540.6" y2="-25.9" stroke="#999" stroke-width="1.60" stroke-opacity="0.8"/><line x1="540.6" y1="-25.9" x2="555.5" y2="-23.9" stroke="#999" stroke-width="1.60" stroke-opacity="0.8"/><line x1="555.5" y1="-23.9" x2="570.4" y2="-21.9" stroke="#999" stroke-width="1.60" stroke-opacity="0.8"/><line x1="570.4" y1="-21.9" x2="585.2" y2="-19.9" stroke="#999" stroke-width="1.60" stroke-opacity="0.8"/><line x1="585.2" y1="-19.9" x2="598.8" y2="-14.5" stroke="#999" stroke-width="1.60" stroke-opacity="0.8"/><line x1="598.8" y1="-14.5" x2="609.6" y2="-24.2" stroke="#999" stroke-width="1.60" stroke-opacity="0.8"/><line x1="609.6" y1="-24.2" x2="601.7" y2="-36.4" stroke="#999" stroke-width="1.60" stroke-opacity="0.8"/><line x1="601.7" y1="-36.4" x2="587.2" y2="-34.8" stroke="#999" stroke-width="1.60" stroke-opacity="0.8"/><line x1="587.2" y1="-34.8" x2="572.3" y2="-36.7" stroke="#999" stroke-width="1.60" stroke-opacity="0.8"/><line x1="572.3" y1="-36.7" x2="557.5" y2="-38.7" stroke="#999" stroke-width="1.60" stroke-opacity="0.8"/><line x1="557.5" y1="-38.7" x2="542.6" y2="-40.7" stroke="#999" stroke-width="1.60" stroke-opacity="0.8"/><line x1="542.6" y1="-40.7" x2="527.7" y2="-42.7" stroke="#999" stroke-width="1.60" stroke-opacity="0.8"/><line x1="527.7" y1="-42.7" x2="512.9" y2="-44.7" stroke="#999" stroke-width="1.60" stroke-opacity="0.8"/><line x1="512.9" y1="-44.7" x2="498.0" y2="-46.7" stroke="#999" stroke-width="1.60" stroke-opacity="0.8"/><line x1="498.0" y1="-46.7" x2="483.1" y2="-48.7" stroke="#999" stroke-width="1.60" stroke-opacity="0.8"/><line x1="483.1" y1="-48.7" x2="468.3" y2="-50.7" stroke="#999" stroke-width="1.60" stroke-opacity="0.8"/><line x1="468.3" y1="-50.7" x2="453.4" y2="-52.7" stroke="#999" stroke-width="1.60" stroke-opacity="0.8"/><line x1="453.4" y1="-52.7" x2="438.5" y2="-54.7" stroke="#999" stroke-width="1.60" stroke-opacity="0.8"/><line x1="438.5" y1="-54.7" x2="423.7" y2="-56.7" stroke="#999" stroke-width="1.60" stroke-opacity="0.8"/><line x1="423.7" y1="-56.7" x2="408.8" y2="-58.6" stroke="#999" stroke-width="1.60" stroke-opacity="0.8"/><line x1="408.8" y1="-58.6" x2="400.6" y2="-70.8" stroke="#999" stroke-width="1.60" stroke-opacity="0.8"/><line x1="400.6" y1="-70.8" x2="388.8" y2="-79.7" stroke="#999" stroke-width="1.60" stroke-opacity="0.8"/><line x1="388.8" y1="-79.7" x2="374.2" y2="-81.7" stroke="#999" stroke-width="1.60" stroke-opacity="0.8"/><line x1="374.2" y1="-81.7" x2="360.5" y2="-76.6" stroke="#999" stroke-width="1.60" stroke-opacity="0.8"/><line x1="360.5" y1="-76.6" x2="348.9" y2="-67.5" stroke="#999" stroke-width="1.60" stroke-opacity="0.8"/><line x1="348.9" y1="-67.5" x2="334.1" y2="-69.9" stroke="#999" stroke-width="1.60" stroke-opacity="0.8"/><line x1="334.1" y1="-69.9" x2="319.3" y2="-72.3" stroke="#999" stroke-width="1.60" stroke-opacity="0.8"/><line x1="319.3" y1="-72.3" x2="304.4" y2="-74.7" stroke="#999" stroke-width="1.60" stroke-opacity="0.8"/><line x1="304.4" y1="-74.7" x2="289.6" y2="-77.0" stroke="#999" stroke-width="1.60" stroke-opacity="0.8"/><line x1="289.6" y1="-77.0" x2="274.8" y2="-79.4" stroke="#999" stroke-width="1.60" stroke-opacity="0.8"/><line x1="274.8" y1="-79.4" x2="260.0" y2="-81.8" stroke="#999" stroke-width="1.60" stroke-opacity="0.8"/><line x1="260.0" y1="-81.8" x2="245.2" y2="-84.2" stroke="#999" stroke-width="1.60" stroke-opacity="0.8"/><line x1="245.2" y1="-84.2" x2="230.4" y2="-86.6" stroke="#999" stroke-width="1.60" stroke-opacity="0.8"/><line x1="230.4" y1="-86.6" x2="215.6" y2="-89.0" stroke="#999" stroke-width="1.60" stroke-opacity="0.8"/><line x1="215.6" y1="-89.0" x2="200.8" y2="-91.4" stroke="#999" stroke-width="1.60" stroke-opacity="0.8"/><line x1="200.8" y1="-91.4" x2="186.0" y2="-93.7" stroke="#999" stroke-width="1.60" stroke-opacity="0.8"/><line x1="186.0" y1="-93.7" x2="171.2" y2="-96.1" stroke="#999" stroke-width="1.60" stroke-opacity="0.8"/><text x="165.3" y="-152.5" text-anchor="middle" font-size="7.6" font-family="Tahoma,Geneva,sans-serif" fill="#999">1</text><text x="31.3" y="-160.0" text-anchor="middle" font-size="7.6" font-family="Tahoma,Geneva,sans-serif" fill="#999">10</text><text x="-91.3" y="-204.2" text-anchor="middle" font-size="7.6" font-family="Tahoma,Geneva,sans-serif" fill="#999">20</text><text x="9.6" y="-122.2" text-anchor="middle" font-size="7.6" font-family="Tahoma,Geneva,sans-serif" fill="#999">30</text><text x="62.2" y="-59.1" text-anchor="middle" font-size="7.6" font-family="Tahoma,Geneva,sans-serif" fill="#999">40</text><text x="162.0" y="-35.3" text-anchor="middle" font-size="7.6" font-family="Tahoma,Geneva,sans-serif" fill="#999">50</text><text x="254.8" y="-47.1" text-anchor="middle" font-size="7.6" font-family="Tahoma,Geneva,sans-serif" fill="#999">60</text><text x="392.5" y="-4.4" text-anchor="middle" font-size="7.6" font-family="Tahoma,Geneva,sans-serif" fill="#999">70</text><text x="523.4" y="-7.9" text-anchor="middle" font-size="7.6" font-family="Tahoma,Geneva,sans-serif" fill="#999">80</text><text x="559.8" y="-53.4" text-anchor="middle" font-size="7.6" font-family="Tahoma,Geneva,sans-serif" fill="#999">90</text><text x="418.0" y="-70.9" text-anchor="middle" font-size="7.6" font-family="Tahoma,Geneva,sans-serif" fill="#999">100</text><text x="277.6" y="-94.0" text-anchor="middle" font-size="7.6" font-family="Tahoma,Geneva,sans-serif" fill="#999">110</text><circle cx="157.7" cy="-139.4" r="4.37" fill="lightsalmon" stroke="#ccc" stroke-width="1.60"/><text x="157.7" y="-137.2" text-anchor="middle" font-size="5.5" font-family="Tahoma,Geneva,sans-serif" font-weight="bold" fill="rgb(100,100,100)">U</text><circle cx="142.1" cy="-146.9" r="4.37" fill="lightsalmon" stroke="#ccc" stroke-width="1.60"/><text x="142.1" y="-144.7" text-anchor="middle" font-size="5.5" font-family="Tahoma,Geneva,sans-serif" font-weight="bold" fill="rgb(100,100,100)">U</text><circle cx="126.0" cy="-152.9" r="4.37" fill="lightsalmon" stroke="#ccc" stroke-width="1.60"/><text x="126.0" y="-150.7" text-anchor="middle" font-size="5.5" font-family="Tahoma,Geneva,sans-serif" font-weight="bold" fill="rgb(100,100,100)">U</text><circle cx="109.0" cy="-156.2" r="4.37" fill="lightsalmon" stroke="#ccc" stroke-width="1.60"/><text x="109.0" y="-154.0" text-anchor="middle" font-size="5.5" font-family="Tahoma,Geneva,sans-serif" font-weight="bold" fill="rgb(100,100,100)">A</text><circle cx="91.7" cy="-156.2" r="4.37" fill="lightsalmon" stroke="#ccc" stroke-width="1.60"/><text x="91.7" y="-154.0" text-anchor="middle" font-size="5.5" font-family="Tahoma,Geneva,sans-serif" font-weight="bold" fill="rgb(100,100,100)">A</text><circle cx="74.6" cy="-153.0" r="4.37" fill="lightsalmon" stroke="#ccc" stroke-width="1.60"/><text x="74.6" y="-150.8" text-anchor="middle" font-size="5.5" font-family="Tahoma,Geneva,sans-serif" font-weight="bold" fill="rgb(100,100,100)">A</text><circle cx="57.9" cy="-147.5" r="4.37" fill="lightsalmon" stroke="#ccc" stroke-width="1.60"/><text x="57.9" y="-145.3" text-anchor="middle" font-size="5.5" font-family="Tahoma,Geneva,sans-serif" font-weight="bold" fill="rgb(100,100,100)">U</text><circle cx="41.6" cy="-140.9" r="4.37" fill="lightgreen" stroke="#ccc" stroke-width="1.60"/><text x="41.6" y="-138.7" text-anchor="middle" font-size="5.5" font-family="Tahoma,Geneva,sans-serif" font-weight="bold" fill="rgb(100,100,100)">G</text><circle cx="28.5" cy="-148.2" r="4.37" fill="lightgreen" stroke="#ccc" stroke-width="1.60"/><text x="28.5" y="-146.0" text-anchor="middle" font-size="5.5" font-family="Tahoma,Geneva,sans-serif" font-weight="bold" fill="rgb(100,100,100)">U</text><circle cx="15.4" cy="-155.4" r="4.37" fill="lightgreen" stroke="#ccc" stroke-width="1.60"/><text x="15.4" y="-153.3" text-anchor="middle" font-size="5.5" font-family="Tahoma,Geneva,sans-serif" font-weight="bold" fill="rgb(100,100,100)">A</text><circle cx="18.5" cy="-170.2" r="4.37" fill="lightgreen" stroke="#ccc" stroke-width="1.60"/><text x="18.5" y="-168.0" text-anchor="middle" font-size="5.5" font-family="Tahoma,Geneva,sans-serif" font-weight="bold" fill="rgb(100,100,100)">U</text><circle cx="17.1" cy="-185.3" r="4.37" fill="lightgreen" stroke="#ccc" stroke-width="1.60"/><text x="17.1" y="-183.1" text-anchor="middle" font-size="5.5" font-family="Tahoma,Geneva,sans-serif" font-weight="bold" fill="rgb(100,100,100)">C</text><circle cx="11.4" cy="-199.3" r="4.37" fill="lightgreen" stroke="#ccc" stroke-width="1.60"/><text x="11.4" y="-197.1" text-anchor="middle" font-size="5.5" font-family="Tahoma,Geneva,sans-serif" font-weight="bold" fill="rgb(100,100,100)">C</text><circle cx="0.8" cy="-209.9" r="4.37" fill="lightblue" stroke="#ccc" stroke-width="1.60"/><text x="0.8" y="-207.7" text-anchor="middle" font-size="5.5" font-family="Tahoma,Geneva,sans-serif" font-weight="bold" fill="rgb(100,100,100)">A</text><circle cx="-10.9" cy="-219.2" r="4.37" fill="lightgreen" stroke="#ccc" stroke-width="1.60"/><text x="-10.9" y="-217.0" text-anchor="middle" font-size="5.5" font-family="Tahoma,Geneva,sans-serif" font-weight="bold" fill="rgb(100,100,100)">G</text><circle cx="-25.4" cy="-223.4" r="4.37" fill="lightgreen" stroke="#ccc" stroke-width="1.60"/><text x="-25.4" y="-221.2" text-anchor="middle" font-size="5.5" font-family="Tahoma,Geneva,sans-serif" font-weight="bold" fill="rgb(100,100,100)">U</text><circle cx="-40.5" cy="-223.2" r="4.37" fill="lightgreen" stroke="#ccc" stroke-width="1.60"/><text x="-40.5" y="-221.0" text-anchor="middle" font-size="5.5" font-family="Tahoma,Geneva,sans-serif" font-weight="bold" fill="rgb(100,100,100)">U</text><circle cx="-54.9" cy="-218.4" r="4.37" fill="lightgreen" stroke="#ccc" stroke-width="1.60"/><text x="-54.9" y="-216.3" text-anchor="middle" font-size="5.5" font-family="Tahoma,Geneva,sans-serif" font-weight="bold" fill="rgb(100,100,100)">C</text><circle cx="-66.3" cy="-208.7" r="4.37" fill="lightblue" stroke="#ccc" stroke-width="1.60"/><text x="-66.3" y="-206.5" text-anchor="middle" font-size="5.5" font-family="Tahoma,Geneva,sans-serif" font-weight="bold" fill="rgb(100,100,100)">A</text><circle cx="-76.4" cy="-197.7" r="4.37" fill="lightgreen" stroke="#ccc" stroke-width="1.60"/><text x="-76.4" y="-195.5" text-anchor="middle" font-size="5.5" font-family="Tahoma,Geneva,sans-serif" font-weight="bold" fill="rgb(100,100,100)">A</text><circle cx="-81.7" cy="-183.6" r="4.37" fill="lightgreen" stroke="#ccc" stroke-width="1.60"/><text x="-81.7" y="-181.4" text-anchor="middle" font-size="5.5" font-family="Tahoma,Geneva,sans-serif" font-weight="bold" fill="rgb(100,100,100)">C</text><circle cx="-82.6" cy="-168.5" r="4.37" fill="lightgreen" stroke="#ccc" stroke-width="1.60"/><text x="-82.6" y="-166.3" text-anchor="middle" font-size="5.5" font-family="Tahoma,Geneva,sans-serif" font-weight="bold" fill="rgb(100,100,100)">G</text><circle cx="-78.9" cy="-153.8" r="4.37" fill="lightgreen" stroke="#ccc" stroke-width="1.60"/><text x="-78.9" y="-151.6" text-anchor="middle" font-size="5.5" font-family="Tahoma,Geneva,sans-serif" font-weight="bold" fill="rgb(100,100,100)">A</text><circle cx="-71.1" cy="-140.8" r="4.37" fill="lightgreen" stroke="#ccc" stroke-width="1.60"/><text x="-71.1" y="-138.7" text-anchor="middle" font-size="5.5" font-family="Tahoma,Geneva,sans-serif" font-weight="bold" fill="rgb(100,100,100)">G</text><circle cx="-59.1" cy="-131.9" r="4.37" fill="lightblue" stroke="#ccc" stroke-width="1.60"/><text x="-59.1" y="-129.7" text-anchor="middle" font-size="5.5" font-family="Tahoma,Geneva,sans-serif" font-weight="bold" fill="rgb(100,100,100)">U</text><circle cx="-46.1" cy="-124.5" r="4.37" fill="lightgreen" stroke="#ccc" stroke-width="1.60"/><text x="-46.1" y="-122.3" text-anchor="middle" font-size="5.5" font-family="Tahoma,Geneva,sans-serif" font-weight="bold" fill="rgb(100,100,100)">C</text><circle cx="-31.2" cy="-122.5" r="4.37" fill="lightgreen" stroke="#ccc" stroke-width="1.60"/><text x="-31.2" y="-120.3" text-anchor="middle" font-size="5.5" font-family="Tahoma,Geneva,sans-serif" font-weight="bold" fill="rgb(100,100,100)">G</text><circle cx="-16.3" cy="-125.0" r="4.37" fill="lightgreen" stroke="#ccc" stroke-width="1.60"/><text x="-16.3" y="-122.8" text-anchor="middle" font-size="5.5" font-family="Tahoma,Geneva,sans-serif" font-weight="bold" fill="rgb(100,100,100)">A</text><circle cx="-3.6" cy="-133.0" r="4.37" fill="lightblue" stroke="#ccc" stroke-width="1.60"/><text x="-3.6" y="-130.8" text-anchor="middle" font-size="5.5" font-family="Tahoma,Geneva,sans-serif" font-weight="bold" fill="rgb(100,100,100)">G</text><circle cx="8.1" cy="-142.3" r="4.37" fill="lightgreen" stroke="#ccc" stroke-width="1.60"/><text x="8.1" y="-140.1" text-anchor="middle" font-size="5.5" font-family="Tahoma,Geneva,sans-serif" font-weight="bold" fill="rgb(100,100,100)">U</text><circle cx="21.2" cy="-135.0" r="4.37" fill="lightgreen" stroke="#ccc" stroke-width="1.60"/><text x="21.2" y="-132.9" text-anchor="middle" font-size="5.5" font-family="Tahoma,Geneva,sans-serif" font-weight="bold" fill="rgb(100,100,100)">A</text><circle cx="34.4" cy="-127.8" r="4.37" fill="lightgreen" stroke="#ccc" stroke-width="1.60"/><text x="34.4" y="-125.6" text-anchor="middle" font-size="5.5" font-family="Tahoma,Geneva,sans-serif" font-weight="bold" fill="rgb(100,100,100)">C</text><circle cx="36.3" cy="-114.1" r="4.37" fill="lightsalmon" stroke="#ccc" stroke-width="1.60"/><text x="36.3" y="-111.9" text-anchor="middle" font-size="5.5" font-family="Tahoma,Geneva,sans-serif" font-weight="bold" fill="rgb(100,100,100)">U</text><circle cx="22.2" cy="-109.6" r="4.37" fill="lightsalmon" stroke="#ccc" stroke-width="1.60"/><text x="22.2" y="-107.4" text-anchor="middle" font-size="5.5" font-family="Tahoma,Geneva,sans-serif" font-weight="bold" fill="rgb(100,100,100)">A</text><circle cx="28.8" cy="-96.7" r="4.37" fill="lightgreen" stroke="#ccc" stroke-width="1.60"/><text x="28.8" y="-94.5" text-anchor="middle" font-size="5.5" font-family="Tahoma,Geneva,sans-serif" font-weight="bold" fill="rgb(100,100,100)">U</text><circle cx="30.1" cy="-86.2" r="4.37" fill="lightgreen" stroke="#ccc" stroke-width="1.60"/><text x="30.1" y="-84.0" text-anchor="middle" font-size="5.5" font-family="Tahoma,Geneva,sans-serif" font-weight="bold" fill="rgb(100,100,100)">C</text><circle cx="32.9" cy="-75.9" r="4.37" fill="lightgreen" stroke="#ccc" stroke-width="1.60"/><text x="32.9" y="-73.8" text-anchor="middle" font-size="5.5" font-family="Tahoma,Geneva,sans-serif" font-weight="bold" fill="rgb(100,100,100)">G</text><circle cx="37.2" cy="-66.3" r="4.37" fill="lightgreen" stroke="#ccc" stroke-width="1.60"/><text x="37.2" y="-64.1" text-anchor="middle" font-size="5.5" font-family="Tahoma,Geneva,sans-serif" font-weight="bold" fill="rgb(100,100,100)">C</text><circle cx="42.9" cy="-57.3" r="4.37" fill="lightgreen" stroke="#ccc" stroke-width="1.60"/><text x="42.9" y="-55.1" text-anchor="middle" font-size="5.5" font-family="Tahoma,Geneva,sans-serif" font-weight="bold" fill="rgb(100,100,100)">U</text><circle cx="49.9" cy="-49.3" r="4.37" fill="lightgreen" stroke="#ccc" stroke-width="1.60"/><text x="49.9" y="-47.1" text-anchor="middle" font-size="5.5" font-family="Tahoma,Geneva,sans-serif" font-weight="bold" fill="rgb(100,100,100)">U</text><circle cx="58.0" cy="-42.4" r="4.37" fill="lightgreen" stroke="#ccc" stroke-width="1.60"/><text x="58.0" y="-40.3" text-anchor="middle" font-size="5.5" font-family="Tahoma,Geneva,sans-serif" font-weight="bold" fill="rgb(100,100,100)">G</text><circle cx="67.0" cy="-36.8" r="4.37" fill="lightgreen" stroke="#ccc" stroke-width="1.60"/><text x="67.0" y="-34.7" text-anchor="middle" font-size="5.5" font-family="Tahoma,Geneva,sans-serif" font-weight="bold" fill="rgb(100,100,100)">U</text><circle cx="72.2" cy="-23.2" r="4.37" fill="lightsalmon" stroke="#ccc" stroke-width="1.60"/><text x="72.2" y="-21.1" text-anchor="middle" font-size="5.5" font-family="Tahoma,Geneva,sans-serif" font-weight="bold" fill="rgb(100,100,100)">G</text><circle cx="86.3" cy="-19.5" r="4.37" fill="lightsalmon" stroke="#ccc" stroke-width="1.60"/><text x="86.3" y="-17.3" text-anchor="middle" font-size="5.5" font-family="Tahoma,Geneva,sans-serif" font-weight="bold" fill="rgb(100,100,100)">C</text><circle cx="97.5" cy="-28.8" r="4.37" fill="lightgreen" stroke="#ccc" stroke-width="1.60"/><text x="97.5" y="-26.6" text-anchor="middle" font-size="5.5" font-family="Tahoma,Geneva,sans-serif" font-weight="bold" fill="rgb(100,100,100)">G</text><circle cx="108.1" cy="-29.2" r="4.37" fill="lightgreen" stroke="#ccc" stroke-width="1.60"/><text x="108.1" y="-27.0" text-anchor="middle" font-size="5.5" font-family="Tahoma,Geneva,sans-serif" font-weight="bold" fill="rgb(100,100,100)">A</text><circle cx="118.5" cy="-31.2" r="4.37" fill="lightgreen" stroke="#ccc" stroke-width="1.60"/><text x="118.5" y="-29.0" text-anchor="middle" font-size="5.5" font-family="Tahoma,Geneva,sans-serif" font-weight="bold" fill="rgb(100,100,100)">A</text><circle cx="128.5" cy="-34.7" r="4.37" fill="lightgreen" stroke="#ccc" stroke-width="1.60"/><text x="128.5" y="-32.5" text-anchor="middle" font-size="5.5" font-family="Tahoma,Geneva,sans-serif" font-weight="bold" fill="rgb(100,100,100)">C</text><circle cx="142.8" cy="-31.8" r="4.37" fill="lightsalmon" stroke="#ccc" stroke-width="1.60"/><text x="142.8" y="-29.6" text-anchor="middle" font-size="5.5" font-family="Tahoma,Geneva,sans-serif" font-weight="bold" fill="rgb(100,100,100)">C</text><circle cx="146.4" cy="-45.9" r="4.37" fill="lightgreen" stroke="#ccc" stroke-width="1.60"/><text x="146.4" y="-43.8" text-anchor="middle" font-size="5.5" font-family="Tahoma,Geneva,sans-serif" font-weight="bold" fill="rgb(100,100,100)">G</text><circle cx="154.0" cy="-53.4" r="4.37" fill="lightgreen" stroke="#ccc" stroke-width="1.60"/><text x="154.0" y="-51.3" text-anchor="middle" font-size="5.5" font-family="Tahoma,Geneva,sans-serif" font-weight="bold" fill="rgb(100,100,100)">G</text><circle cx="160.3" cy="-62.0" r="4.37" fill="lightgreen" stroke="#ccc" stroke-width="1.60"/><text x="160.3" y="-59.8" text-anchor="middle" font-size="5.5" font-family="Tahoma,Geneva,sans-serif" font-weight="bold" fill="rgb(100,100,100)">A</text><circle cx="172.7" cy="-66.4" r="4.37" fill="lightsalmon" stroke="#ccc" stroke-width="1.60"/><text x="172.7" y="-64.2" text-anchor="middle" font-size="5.5" font-family="Tahoma,Geneva,sans-serif" font-weight="bold" fill="rgb(100,100,100)">A</text><circle cx="168.8" cy="-81.3" r="4.37" fill="lightgreen" stroke="#ccc" stroke-width="1.60"/><text x="168.8" y="-79.1" text-anchor="middle" font-size="5.5" font-family="Tahoma,Geneva,sans-serif" font-weight="bold" fill="rgb(100,100,100)">C</text><circle cx="183.6" cy="-78.9" r="4.37" fill="lightgreen" stroke="#ccc" stroke-width="1.60"/><text x="183.6" y="-76.7" text-anchor="middle" font-size="5.5" font-family="Tahoma,Geneva,sans-serif" font-weight="bold" fill="rgb(100,100,100)">G</text><circle cx="198.4" cy="-76.6" r="4.37" fill="lightgreen" stroke="#ccc" stroke-width="1.60"/><text x="198.4" y="-74.4" text-anchor="middle" font-size="5.5" font-family="Tahoma,Geneva,sans-serif" font-weight="bold" fill="rgb(100,100,100)">G</text><circle cx="213.2" cy="-74.2" r="4.37" fill="lightgreen" stroke="#ccc" stroke-width="1.60"/><text x="213.2" y="-72.0" text-anchor="middle" font-size="5.5" font-family="Tahoma,Geneva,sans-serif" font-weight="bold" fill="rgb(100,100,100)">G</text><circle cx="228.0" cy="-71.8" r="4.37" fill="lightgreen" stroke="#ccc" stroke-width="1.60"/><text x="228.0" y="-69.6" text-anchor="middle" font-size="5.5" font-family="Tahoma,Geneva,sans-serif" font-weight="bold" fill="rgb(100,100,100)">U</text><circle cx="242.8" cy="-69.4" r="4.37" fill="lightgreen" stroke="#ccc" stroke-width="1.60"/><text x="242.8" y="-67.2" text-anchor="middle" font-size="5.5" font-family="Tahoma,Geneva,sans-serif" font-weight="bold" fill="rgb(100,100,100)">A</text><circle cx="257.6" cy="-67.0" r="4.37" fill="lightgreen" stroke="#ccc" stroke-width="1.60"/><text x="257.6" y="-64.8" text-anchor="middle" font-size="5.5" font-family="Tahoma,Geneva,sans-serif" font-weight="bold" fill="rgb(100,100,100)">C</text><circle cx="272.4" cy="-64.6" r="4.37" fill="lightgreen" stroke="#ccc" stroke-width="1.60"/><text x="272.4" y="-62.4" text-anchor="middle" font-size="5.5" font-family="Tahoma,Geneva,sans-serif" font-weight="bold" fill="rgb(100,100,100)">U</text><circle cx="287.2" cy="-62.2" r="4.37" fill="lightgreen" stroke="#ccc" stroke-width="1.60"/><text x="287.2" y="-60.0" text-anchor="middle" font-size="5.5" font-family="Tahoma,Geneva,sans-serif" font-weight="bold" fill="rgb(100,100,100)">U</text><circle cx="302.1" cy="-59.8" r="4.37" fill="lightgreen" stroke="#ccc" stroke-width="1.60"/><text x="302.1" y="-57.7" text-anchor="middle" font-size="5.5" font-family="Tahoma,Geneva,sans-serif" font-weight="bold" fill="rgb(100,100,100)">U</text><circle cx="316.9" cy="-57.5" r="4.37" fill="lightgreen" stroke="#ccc" stroke-width="1.60"/><text x="316.9" y="-55.3" text-anchor="middle" font-size="5.5" font-family="Tahoma,Geneva,sans-serif" font-weight="bold" fill="rgb(100,100,100)">A</text><circle cx="331.7" cy="-55.1" r="4.37" fill="lightgreen" stroke="#ccc" stroke-width="1.60"/><text x="331.7" y="-52.9" text-anchor="middle" font-size="5.5" font-family="Tahoma,Geneva,sans-serif" font-weight="bold" fill="rgb(100,100,100)">U</text><circle cx="346.5" cy="-52.7" r="4.37" fill="lightgreen" stroke="#ccc" stroke-width="1.60"/><text x="346.5" y="-50.5" text-anchor="middle" font-size="5.5" font-family="Tahoma,Geneva,sans-serif" font-weight="bold" fill="rgb(100,100,100)">G</text><circle cx="349.4" cy="-38.4" r="4.37" fill="#dbdb8d" stroke="#ccc" stroke-width="1.60"/><text x="349.4" y="-36.3" text-anchor="middle" font-size="5.5" font-family="Tahoma,Geneva,sans-serif" font-weight="bold" fill="rgb(100,100,100)">A</text><circle cx="359.5" cy="-28.0" r="4.37" fill="#dbdb8d" stroke="#ccc" stroke-width="1.60"/><text x="359.5" y="-25.8" text-anchor="middle" font-size="5.5" font-family="Tahoma,Geneva,sans-serif" font-weight="bold" fill="rgb(100,100,100)">A</text><circle cx="373.1" cy="-22.7" r="4.37" fill="#dbdb8d" stroke="#ccc" stroke-width="1.60"/><text x="373.1" y="-20.5" text-anchor="middle" font-size="5.5" font-family="Tahoma,Geneva,sans-serif" font-weight="bold" fill="rgb(100,100,100)">U</text><circle cx="387.6" cy="-23.8" r="4.37" fill="#dbdb8d" stroke="#ccc" stroke-width="1.60"/><text x="387.6" y="-21.6" text-anchor="middle" font-size="5.5" font-family="Tahoma,Geneva,sans-serif" font-weight="bold" fill="rgb(100,100,100)">A</text><circle cx="400.4" cy="-30.7" r="4.37" fill="#dbdb8d" stroke="#ccc" stroke-width="1.60"/><text x="400.4" y="-28.5" text-anchor="middle" font-size="5.5" font-family="Tahoma,Geneva,sans-serif" font-weight="bold" fill="rgb(100,100,100)">A</text><circle cx="406.8" cy="-43.8" r="4.37" fill="lightgreen" stroke="#ccc" stroke-width="1.60"/><text x="406.8" y="-41.6" text-anchor="middle" font-size="5.5" font-family="Tahoma,Geneva,sans-serif" font-weight="bold" fill="rgb(100,100,100)">U</text><circle cx="421.7" cy="-41.8" r="4.37" fill="lightgreen" stroke="#ccc" stroke-width="1.60"/><text x="421.7" y="-39.6" text-anchor="middle" font-size="5.5" font-family="Tahoma,Geneva,sans-serif" font-weight="bold" fill="rgb(100,100,100)">A</text><circle cx="436.6" cy="-39.8" r="4.37" fill="lightgreen" stroke="#ccc" stroke-width="1.60"/><text x="436.6" y="-37.6" text-anchor="middle" font-size="5.5" font-family="Tahoma,Geneva,sans-serif" font-weight="bold" fill="rgb(100,100,100)">C</text><circle cx="451.4" cy="-37.8" r="4.37" fill="lightgreen" stroke="#ccc" stroke-width="1.60"/><text x="451.4" y="-35.6" text-anchor="middle" font-size="5.5" font-family="Tahoma,Geneva,sans-serif" font-weight="bold" fill="rgb(100,100,100)">C</text><circle cx="466.3" cy="-35.8" r="4.37" fill="lightgreen" stroke="#ccc" stroke-width="1.60"/><text x="466.3" y="-33.6" text-anchor="middle" font-size="5.5" font-family="Tahoma,Geneva,sans-serif" font-weight="bold" fill="rgb(100,100,100)">C</text><circle cx="481.2" cy="-33.8" r="4.37" fill="lightgreen" stroke="#ccc" stroke-width="1.60"/><text x="481.2" y="-31.6" text-anchor="middle" font-size="5.5" font-family="Tahoma,Geneva,sans-serif" font-weight="bold" fill="rgb(100,100,100)">G</text><circle cx="496.0" cy="-31.8" r="4.37" fill="lightgreen" stroke="#ccc" stroke-width="1.60"/><text x="496.0" y="-29.6" text-anchor="middle" font-size="5.5" font-family="Tahoma,Geneva,sans-serif" font-weight="bold" fill="rgb(100,100,100)">C</text><circle cx="510.9" cy="-29.8" r="4.37" fill="lightgreen" stroke="#ccc" stroke-width="1.60"/><text x="510.9" y="-27.7" text-anchor="middle" font-size="5.5" font-family="Tahoma,Geneva,sans-serif" font-weight="bold" fill="rgb(100,100,100)">C</text><circle cx="525.8" cy="-27.9" r="4.37" fill="lightgreen" stroke="#ccc" stroke-width="1.60"/><text x="525.8" y="-25.7" text-anchor="middle" font-size="5.5" font-family="Tahoma,Geneva,sans-serif" font-weight="bold" fill="rgb(100,100,100)">G</text><circle cx="540.6" cy="-25.9" r="4.37" fill="lightgreen" stroke="#ccc" stroke-width="1.60"/><text x="540.6" y="-23.7" text-anchor="middle" font-size="5.5" font-family="Tahoma,Geneva,sans-serif" font-weight="bold" fill="rgb(100,100,100)">G</text><circle cx="555.5" cy="-23.9" r="4.37" fill="lightgreen" stroke="#ccc" stroke-width="1.60"/><text x="555.5" y="-21.7" text-anchor="middle" font-size="5.5" font-family="Tahoma,Geneva,sans-serif" font-weight="bold" fill="rgb(100,100,100)">U</text><circle cx="570.4" cy="-21.9" r="4.37" fill="lightgreen" stroke="#ccc" stroke-width="1.60"/><text x="570.4" y="-19.7" text-anchor="middle" font-size="5.5" font-family="Tahoma,Geneva,sans-serif" font-weight="bold" fill="rgb(100,100,100)">G</text><circle cx="585.2" cy="-19.9" r="4.37" fill="lightgreen" stroke="#ccc" stroke-width="1.60"/><text x="585.2" y="-17.7" text-anchor="middle" font-size="5.5" font-family="Tahoma,Geneva,sans-serif" font-weight="bold" fill="rgb(100,100,100)">C</text><circle cx="598.8" cy="-14.5" r="4.37" fill="lightblue" stroke="#ccc" stroke-width="1.60"/><text x="598.8" y="-12.3" text-anchor="middle" font-size="5.5" font-family="Tahoma,Geneva,sans-serif" font-weight="bold" fill="rgb(100,100,100)">G</text><circle cx="609.6" cy="-24.2" r="4.37" fill="lightblue" stroke="#ccc" stroke-width="1.60"/><text x="609.6" y="-22.0" text-anchor="middle" font-size="5.5" font-family="Tahoma,Geneva,sans-serif" font-weight="bold" fill="rgb(100,100,100)">A</text><circle cx="601.7" cy="-36.4" r="4.37" fill="lightblue" stroke="#ccc" stroke-width="1.60"/><text x="601.7" y="-34.2" text-anchor="middle" font-size="5.5" font-family="Tahoma,Geneva,sans-serif" font-weight="bold" fill="rgb(100,100,100)">C</text><circle cx="587.2" cy="-34.8" r="4.37" fill="lightgreen" stroke="#ccc" stroke-width="1.60"/><text x="587.2" y="-32.6" text-anchor="middle" font-size="5.5" font-family="Tahoma,Geneva,sans-serif" font-weight="bold" fill="rgb(100,100,100)">G</text><circle cx="572.3" cy="-36.7" r="4.37" fill="lightgreen" stroke="#ccc" stroke-width="1.60"/><text x="572.3" y="-34.6" text-anchor="middle" font-size="5.5" font-family="Tahoma,Geneva,sans-serif" font-weight="bold" fill="rgb(100,100,100)">C</text><circle cx="557.5" cy="-38.7" r="4.37" fill="lightgreen" stroke="#ccc" stroke-width="1.60"/><text x="557.5" y="-36.6" text-anchor="middle" font-size="5.5" font-family="Tahoma,Geneva,sans-serif" font-weight="bold" fill="rgb(100,100,100)">A</text><circle cx="542.6" cy="-40.7" r="4.37" fill="lightgreen" stroke="#ccc" stroke-width="1.60"/><text x="542.6" y="-38.5" text-anchor="middle" font-size="5.5" font-family="Tahoma,Geneva,sans-serif" font-weight="bold" fill="rgb(100,100,100)">C</text><circle cx="527.7" cy="-42.7" r="4.37" fill="lightgreen" stroke="#ccc" stroke-width="1.60"/><text x="527.7" y="-40.5" text-anchor="middle" font-size="5.5" font-family="Tahoma,Geneva,sans-serif" font-weight="bold" fill="rgb(100,100,100)">U</text><circle cx="512.9" cy="-44.7" r="4.37" fill="lightgreen" stroke="#ccc" stroke-width="1.60"/><text x="512.9" y="-42.5" text-anchor="middle" font-size="5.5" font-family="Tahoma,Geneva,sans-serif" font-weight="bold" fill="rgb(100,100,100)">G</text><circle cx="498.0" cy="-46.7" r="4.37" fill="lightgreen" stroke="#ccc" stroke-width="1.60"/><text x="498.0" y="-44.5" text-anchor="middle" font-size="5.5" font-family="Tahoma,Geneva,sans-serif" font-weight="bold" fill="rgb(100,100,100)">G</text><circle cx="483.1" cy="-48.7" r="4.37" fill="lightgreen" stroke="#ccc" stroke-width="1.60"/><text x="483.1" y="-46.5" text-anchor="middle" font-size="5.5" font-family="Tahoma,Geneva,sans-serif" font-weight="bold" fill="rgb(100,100,100)">C</text><circle cx="468.3" cy="-50.7" r="4.37" fill="lightgreen" stroke="#ccc" stroke-width="1.60"/><text x="468.3" y="-48.5" text-anchor="middle" font-size="5.5" font-family="Tahoma,Geneva,sans-serif" font-weight="bold" fill="rgb(100,100,100)">G</text><circle cx="453.4" cy="-52.7" r="4.37" fill="lightgreen" stroke="#ccc" stroke-width="1.60"/><text x="453.4" y="-50.5" text-anchor="middle" font-size="5.5" font-family="Tahoma,Geneva,sans-serif" font-weight="bold" fill="rgb(100,100,100)">G</text><circle cx="438.5" cy="-54.7" r="4.37" fill="lightgreen" stroke="#ccc" stroke-width="1.60"/><text x="438.5" y="-52.5" text-anchor="middle" font-size="5.5" font-family="Tahoma,Geneva,sans-serif" font-weight="bold" fill="rgb(100,100,100)">G</text><circle cx="423.7" cy="-56.7" r="4.37" fill="lightgreen" stroke="#ccc" stroke-width="1.60"/><text x="423.7" y="-54.5" text-anchor="middle" font-size="5.5" font-family="Tahoma,Geneva,sans-serif" font-weight="bold" fill="rgb(100,100,100)">U</text><circle cx="408.8" cy="-58.6" r="4.37" fill="lightgreen" stroke="#ccc" stroke-width="1.60"/><text x="408.8" y="-56.5" text-anchor="middle" font-size="5.5" font-family="Tahoma,Geneva,sans-serif" font-weight="bold" fill="rgb(100,100,100)">A</text><circle cx="400.6" cy="-70.8" r="4.37" fill="#dbdb8d" stroke="#ccc" stroke-width="1.60"/><text x="400.6" y="-68.7" text-anchor="middle" font-size="5.5" font-family="Tahoma,Geneva,sans-serif" font-weight="bold" fill="rgb(100,100,100)">A</text><circle cx="388.8" cy="-79.7" r="4.37" fill="#dbdb8d" stroke="#ccc" stroke-width="1.60"/><text x="388.8" y="-77.5" text-anchor="middle" font-size="5.5" font-family="Tahoma,Geneva,sans-serif" font-weight="bold" fill="rgb(100,100,100)">U</text><circle cx="374.2" cy="-81.7" r="4.37" fill="#dbdb8d" stroke="#ccc" stroke-width="1.60"/><text x="374.2" y="-79.5" text-anchor="middle" font-size="5.5" font-family="Tahoma,Geneva,sans-serif" font-weight="bold" fill="rgb(100,100,100)">U</text><circle cx="360.5" cy="-76.6" r="4.37" fill="#dbdb8d" stroke="#ccc" stroke-width="1.60"/><text x="360.5" y="-74.4" text-anchor="middle" font-size="5.5" font-family="Tahoma,Geneva,sans-serif" font-weight="bold" fill="rgb(100,100,100)">A</text><circle cx="348.9" cy="-67.5" r="4.37" fill="lightgreen" stroke="#ccc" stroke-width="1.60"/><text x="348.9" y="-65.3" text-anchor="middle" font-size="5.5" font-family="Tahoma,Geneva,sans-serif" font-weight="bold" fill="rgb(100,100,100)">C</text><circle cx="334.1" cy="-69.9" r="4.37" fill="lightgreen" stroke="#ccc" stroke-width="1.60"/><text x="334.1" y="-67.7" text-anchor="middle" font-size="5.5" font-family="Tahoma,Geneva,sans-serif" font-weight="bold" fill="rgb(100,100,100)">A</text><circle cx="319.3" cy="-72.3" r="4.37" fill="lightgreen" stroke="#ccc" stroke-width="1.60"/><text x="319.3" y="-70.1" text-anchor="middle" font-size="5.5" font-family="Tahoma,Geneva,sans-serif" font-weight="bold" fill="rgb(100,100,100)">U</text><circle cx="304.4" cy="-74.7" r="4.37" fill="lightgreen" stroke="#ccc" stroke-width="1.60"/><text x="304.4" y="-72.5" text-anchor="middle" font-size="5.5" font-family="Tahoma,Geneva,sans-serif" font-weight="bold" fill="rgb(100,100,100)">A</text><circle cx="289.6" cy="-77.0" r="4.37" fill="lightgreen" stroke="#ccc" stroke-width="1.60"/><text x="289.6" y="-74.9" text-anchor="middle" font-size="5.5" font-family="Tahoma,Geneva,sans-serif" font-weight="bold" fill="rgb(100,100,100)">A</text><circle cx="274.8" cy="-79.4" r="4.37" fill="lightgreen" stroke="#ccc" stroke-width="1.60"/><text x="274.8" y="-77.2" text-anchor="middle" font-size="5.5" font-family="Tahoma,Geneva,sans-serif" font-weight="bold" fill="rgb(100,100,100)">G</text><circle cx="260.0" cy="-81.8" r="4.37" fill="lightgreen" stroke="#ccc" stroke-width="1.60"/><text x="260.0" y="-79.6" text-anchor="middle" font-size="5.5" font-family="Tahoma,Geneva,sans-serif" font-weight="bold" fill="rgb(100,100,100)">G</text><circle cx="245.2" cy="-84.2" r="4.37" fill="lightgreen" stroke="#ccc" stroke-width="1.60"/><text x="245.2" y="-82.0" text-anchor="middle" font-size="5.5" font-family="Tahoma,Geneva,sans-serif" font-weight="bold" fill="rgb(100,100,100)">U</text><circle cx="230.4" cy="-86.6" r="4.37" fill="lightgreen" stroke="#ccc" stroke-width="1.60"/><text x="230.4" y="-84.4" text-anchor="middle" font-size="5.5" font-family="Tahoma,Geneva,sans-serif" font-weight="bold" fill="rgb(100,100,100)">G</text><circle cx="215.6" cy="-89.0" r="4.37" fill="lightgreen" stroke="#ccc" stroke-width="1.60"/><text x="215.6" y="-86.8" text-anchor="middle" font-size="5.5" font-family="Tahoma,Geneva,sans-serif" font-weight="bold" fill="rgb(100,100,100)">C</text><circle cx="200.8" cy="-91.4" r="4.37" fill="lightgreen" stroke="#ccc" stroke-width="1.60"/><text x="200.8" y="-89.2" text-anchor="middle" font-size="5.5" font-family="Tahoma,Geneva,sans-serif" font-weight="bold" fill="rgb(100,100,100)">C</text><circle cx="186.0" cy="-93.7" r="4.37" fill="lightgreen" stroke="#ccc" stroke-width="1.60"/><text x="186.0" y="-91.6" text-anchor="middle" font-size="5.5" font-family="Tahoma,Geneva,sans-serif" font-weight="bold" fill="rgb(100,100,100)">C</text><circle cx="171.2" cy="-96.1" r="4.37" fill="lightgreen" stroke="#ccc" stroke-width="1.60"/><text x="171.2" y="-93.9" text-anchor="middle" font-size="5.5" font-family="Tahoma,Geneva,sans-serif" font-weight="bold" fill="rgb(100,100,100)">G</text></svg>