<svg xmlns="http://www.w3.org/2000/svg" viewBox="-165.6 -371.3 454.7 482.1" width="455" height="482"><style></style><line x1="-107.7" y1="-12.7" x2="-102.2" y2="1.3" stroke="#999" stroke-width="1.65" stroke-opacity="0.8"/><line x1="-93.8" y1="-18.2" x2="-88.3" y2="-4.2" stroke="#999" stroke-width="1.65" stroke-opacity="0.8"/><line x1="-79.8" y1="-23.7" x2="-74.3" y2="-9.8" stroke="#999" stroke-width="1.65" stroke-opacity="0.8"/><line x1="-51.6" y1="-35.3" x2="-45.7" y2="-21.5" stroke="#999" stroke-width="1.65" stroke-opacity="0.8"/><line x1="-37.8" y1="-41.2" x2="-31.9" y2="-27.4" stroke="#999" stroke-width="1.65" stroke-opacity="0.8"/><line x1="-24.0" y1="-47.1" x2="-18.1" y2="-33.3" stroke="#999" stroke-width="1.65" stroke-opacity="0.8"/><line x1="-10.2" y1="-52.9" x2="-4.3" y2="-39.1" stroke="#999" stroke-width="1.65" stroke-opacity="0.8"/><line x1="3.6" y1="-58.8" x2="9.5" y2="-45.0" stroke="#999" stroke-width="1.65" stroke-opacity="0.8"/><line x1="17.2" y1="-65.1" x2="23.8" y2="-51.6" stroke="#999" stroke-width="1.65" stroke-opacity="0.8"/><line x1="30.7" y1="-71.6" x2="37.3" y2="-58.2" stroke="#999" stroke-width="1.65" stroke-opacity="0.8"/><line x1="44.2" y1="-78.2" x2="50.8" y2="-64.7" stroke="#999" stroke-width="1.65" stroke-opacity="0.8"/><line x1="57.7" y1="-84.8" x2="64.3" y2="-71.3" stroke="#999" stroke-width="1.65" stroke-opacity="0.8"/><line x1="71.1" y1="-91.4" x2="77.7" y2="-77.9" stroke="#999" stroke-width="1.65" stroke-opacity="0.8"/><line x1="84.6" y1="-98.0" x2="91.2" y2="-84.5" stroke="#999" stroke-width="1.65" stroke-opacity="0.8"/><line x1="190.7" y1="19.1" x2="202.2" y2="9.4" stroke="#999" stroke-width="1.65" stroke-opacity="0.8"/><line x1="181.0" y1="7.7" x2="192.5" y2="-2.0" stroke="#999" stroke-width="1.65" stroke-opacity="0.8"/><line x1="171.4" y1="-3.8" x2="182.8" y2="-13.5" stroke="#999" stroke-width="1.65" stroke-opacity="0.8"/><line x1="161.7" y1="-15.3" x2="173.2" y2="-24.9" stroke="#999" stroke-width="1.65" stroke-opacity="0.8"/><line x1="144.6" y1="-35.5" x2="156.0" y2="-45.2" stroke="#999" stroke-width="1.65" stroke-opacity="0.8"/><line x1="134.9" y1="-47.0" x2="146.4" y2="-56.7" stroke="#999" stroke-width="1.65" stroke-opacity="0.8"/><line x1="125.2" y1="-58.5" x2="136.7" y2="-68.1" stroke="#999" stroke-width="1.65" stroke-opacity="0.8"/><line x1="115.6" y1="-69.9" x2="127.0" y2="-79.6" stroke="#999" stroke-width="1.65" stroke-opacity="0.8"/><line x1="105.9" y1="-81.4" x2="117.3" y2="-91.1" stroke="#999" stroke-width="1.65" stroke-opacity="0.8"/><line x1="151.0" y1="-112.7" x2="147.4" y2="-127.2" stroke="#999" stroke-width="1.65" stroke-opacity="0.8"/><line x1="136.5" y1="-109.0" x2="132.8" y2="-123.6" stroke="#999" stroke-width="1.65" stroke-opacity="0.8"/><line x1="121.9" y1="-105.3" x2="118.3" y2="-119.9" stroke="#999" stroke-width="1.65" stroke-opacity="0.8"/><line x1="216.8" y1="5.2" x2="112.0" y2="-124.0" stroke="#d9534f" stroke-width="1.65" stroke-opacity="0.6"/><line x1="231.9" y1="7.2" x2="126.2" y2="-128.8" stroke="#d9534f" stroke-width="1.65" stroke-opacity="0.6"/><line x1="244.8" y1="15.2" x2="131.3" y2="-142.9" stroke="#d9534f" stroke-width="1.65" stroke-opacity="0.6"/><line x1="253.4" y1="27.8" x2="123.4" y2="-155.6" stroke="#d9534f" stroke-width="1.65" stroke-opacity="0.6"/><line x1="256.1" y1="42.8" x2="108.5" y2="-157.5" stroke="#d9534f" stroke-width="1.65" stroke-opacity="0.6"/><line x1="252.5" y1="57.6" x2="97.8" y2="-147.0" stroke="#d9534f" stroke-width="1.65" stroke-opacity="0.6"/><line x1="78.3" y1="-133.4" x2="93.0" y2="-136.1" stroke="#999" stroke-width="1.65" stroke-opacity="0.8"/><line x1="75.6" y1="-148.2" x2="90.3" y2="-150.9" stroke="#999" stroke-width="1.65" stroke-opacity="0.8"/><line x1="72.9" y1="-162.9" x2="87.6" y2="-165.6" stroke="#999" stroke-width="1.65" stroke-opacity="0.8"/><line x1="70.2" y1="-177.7" x2="84.9" y2="-180.4" stroke="#999" stroke-width="1.65" stroke-opacity="0.8"/><line x1="67.5" y1="-192.4" x2="82.2" y2="-195.1" stroke="#999" stroke-width="1.65" stroke-opacity="0.8"/><line x1="64.7" y1="-207.2" x2="79.5" y2="-209.9" stroke="#999" stroke-width="1.65" stroke-opacity="0.8"/><line x1="62.0" y1="-221.9" x2="76.8" y2="-224.6" stroke="#999" stroke-width="1.65" stroke-opacity="0.8"/><line x1="59.3" y1="-236.7" x2="74.1" y2="-239.4" stroke="#999" stroke-width="1.65" stroke-opacity="0.8"/><line x1="56.6" y1="-251.4" x2="71.4" y2="-254.1" stroke="#999" stroke-width="1.65" stroke-opacity="0.8"/><line x1="53.9" y1="-266.2" x2="68.6" y2="-268.9" stroke="#999" stroke-width="1.65" stroke-opacity="0.8"/><line x1="243.1" y1="69.6" x2="81.4" y2="-277.1" stroke="#d9534f" stroke-width="1.65" stroke-opacity="0.6"/><line x1="229.7" y1="76.8" x2="90.1" y2="-289.6" stroke="#d9534f" stroke-width="1.65" stroke-opacity="0.6"/><line x1="214.5" y1="77.9" x2="93.3" y2="-304.5" stroke="#d9534f" stroke-width="1.65" stroke-opacity="0.6"/><line x1="93.2" y1="-326.4" x2="77.4" y2="-332.8" stroke="#999" stroke-width="1.65" stroke-opacity="0.8"/><line x1="77.4" y1="-332.8" x2="61.6" y2="-337.6" stroke="#999" stroke-width="1.65" stroke-opacity="0.8"/><line x1="61.6" y1="-337.6" x2="45.6" y2="-338.3" stroke="#999" stroke-width="1.65" stroke-opacity="0.8"/><line x1="45.6" y1="-338.3" x2="31.0" y2="-332.6" stroke="#999" stroke-width="1.65" stroke-opacity="0.8"/><line x1="31.0" y1="-332.6" x2="20.8" y2="-321.1" stroke="#999" stroke-width="1.65" stroke-opacity="0.8"/><line x1="20.8" y1="-321.1" x2="16.7" y2="-306.4" stroke="#999" stroke-width="1.65" stroke-opacity="0.8"/><line x1="16.7" y1="-306.4" x2="18.9" y2="-291.4" stroke="#999" stroke-width="1.65" stroke-opacity="0.8"/><line x1="18.9" y1="-291.4" x2="26.9" y2="-278.6" stroke="#999" stroke-width="1.65" stroke-opacity="0.8"/><line x1="26.9" y1="-278.6" x2="39.3" y2="-270.0" stroke="#999" stroke-width="1.65" stroke-opacity="0.8"/><line x1="39.3" y1="-270.0" x2="53.9" y2="-266.2" stroke="#999" stroke-width="1.65" stroke-opacity="0.8"/><line x1="53.9" y1="-266.2" x2="56.6" y2="-251.4" stroke="#999" stroke-width="1.65" stroke-opacity="0.8"/><line x1="56.6" y1="-251.4" x2="59.3" y2="-236.7" stroke="#999" stroke-width="1.65" stroke-opacity="0.8"/><line x1="59.3" y1="-236.7" x2="62.0" y2="-221.9" stroke="#999" stroke-width="1.65" stroke-opacity="0.8"/><line x1="62.0" y1="-221.9" x2="64.7" y2="-207.2" stroke="#999" stroke-width="1.65" stroke-opacity="0.8"/><line x1="64.7" y1="-207.2" x2="67.5" y2="-192.4" stroke="#999" stroke-width="1.65" stroke-opacity="0.8"/><line x1="67.5" y1="-192.4" x2="70.2" y2="-177.7" stroke="#999" stroke-width="1.65" stroke-opacity="0.8"/><line x1="70.2" y1="-177.7" x2="72.9" y2="-162.9" stroke="#999" stroke-width="1.65" stroke-opacity="0.8"/><line x1="72.9" y1="-162.9" x2="75.6" y2="-148.2" stroke="#999" stroke-width="1.65" stroke-opacity="0.8"/><line x1="75.6" y1="-148.2" x2="78.3" y2="-133.4" stroke="#999" stroke-width="1.65" stroke-opacity="0.8"/><line x1="78.3" y1="-133.4" x2="84.6" y2="-98.0" stroke="#999" stroke-width="1.65" stroke-opacity="0.8"/><line x1="84.6" y1="-98.0" x2="71.1" y2="-91.4" stroke="#999" stroke-width="1.65" stroke-opacity="0.8"/><line x1="71.1" y1="-91.4" x2="57.7" y2="-84.8" stroke="#999" stroke-width="1.65" stroke-opacity="0.8"/><line x1="57.7" y1="-84.8" x2="44.2" y2="-78.2" stroke="#999" stroke-width="1.65" stroke-opacity="0.8"/><line x1="44.2" y1="-78.2" x2="30.7" y2="-71.6" stroke="#999" stroke-width="1.65" stroke-opacity="0.8"/><line x1="30.7" y1="-71.6" x2="17.2" y2="-65.1" stroke="#999" stroke-width="1.65" stroke-opacity="0.8"/><line x1="17.2" y1="-65.1" x2="3.6" y2="-58.8" stroke="#999" stroke-width="1.65" stroke-opacity="0.8"/><line x1="3.6" y1="-58.8" x2="-10.2" y2="-52.9" stroke="#999" stroke-width="1.65" stroke-opacity="0.8"/><line x1="-10.2" y1="-52.9" x2="-24.0" y2="-47.1" stroke="#999" stroke-width="1.65" stroke-opacity="0.8"/><line x1="-24.0" y1="-47.1" x2="-37.8" y2="-41.2" stroke="#999" stroke-width="1.65" stroke-opacity="0.8"/><line x1="-37.8" y1="-41.2" x2="-51.6" y2="-35.3" stroke="#999" stroke-width="1.65" stroke-opacity="0.8"/><line x1="-51.6" y1="-35.3" x2="-66.5" y2="-31.3" stroke="#999" stroke-width="1.65" stroke-opacity="0.8"/><line x1="-66.5" y1="-31.3" x2="-79.8" y2="-23.7" stroke="#999" stroke-width="1.65" stroke-opacity="0.8"/><line x1="-79.8" y1="-23.7" x2="-93.8" y2="-18.2" stroke="#999" stroke-width="1.65" stroke-opacity="0.8"/><line x1="-93.8" y1="-18.2" x2="-107.7" y2="-12.7" stroke="#999" stroke-width="1.65" stroke-opacity="0.8"/><line x1="-107.7" y1="-12.7" x2="-122.7" y2="-14.0" stroke="#999" stroke-width="1.65" stroke-opacity="0.8"/><line x1="-122.7" y1="-14.0" x2="-132.6" y2="-2.8" stroke="#999" stroke-width="1.65" stroke-opacity="0.8"/><line x1="-132.6" y1="-2.8" x2="-127.1" y2="11.1" stroke="#999" stroke-width="1.65" stroke-opacity="0.8"/><line x1="-127.1" y1="11.1" x2="-112.2" y2="12.5" stroke="#999" stroke-width="1.65" stroke-opacity="0.8"/><line x1="-112.2" y1="12.5" x2="-102.2" y2="1.3" stroke="#999" stroke-width="1.65" stroke-opacity="0.8"/><line x1="-102.2" y1="1.3" x2="-88.3" y2="-4.2" stroke="#999" stroke-width="1.65" stroke-opacity="0.8"/><line x1="-88.3" y1="-4.2" x2="-74.3" y2="-9.8" stroke="#999" stroke-width="1.65" stroke-opacity="0.8"/><line x1="-74.3" y1="-9.8" x2="-62.4" y2="-0.7" stroke="#999" stroke-width="1.65" stroke-opacity="0.8"/><line x1="-62.4" y1="-0.7" x2="-48.7" y2="-6.8" stroke="#999" stroke-width="1.65" stroke-opacity="0.8"/><line x1="-48.7" y1="-6.8" x2="-45.7" y2="-21.5" stroke="#999" stroke-width="1.65" stroke-opacity="0.8"/><line x1="-45.7" y1="-21.5" x2="-31.9" y2="-27.4" stroke="#999" stroke-width="1.65" stroke-opacity="0.8"/><line x1="-31.9" y1="-27.4" x2="-18.1" y2="-33.3" stroke="#999" stroke-width="1.65" stroke-opacity="0.8"/><line x1="-18.1" y1="-33.3" x2="-4.3" y2="-39.1" stroke="#999" stroke-width="1.65" stroke-opacity="0.8"/><line x1="-4.3" y1="-39.1" x2="9.5" y2="-45.0" stroke="#999" stroke-width="1.65" stroke-opacity="0.8"/><line x1="9.5" y1="-45.0" x2="16.1" y2="-31.3" stroke="#999" stroke-width="1.65" stroke-opacity="0.8"/><line x1="16.1" y1="-31.3" x2="29.8" y2="-37.5" stroke="#999" stroke-width="1.65" stroke-opacity="0.8"/><line x1="29.8" y1="-37.5" x2="23.8" y2="-51.6" stroke="#999" stroke-width="1.65" stroke-opacity="0.8"/><line x1="23.8" y1="-51.6" x2="37.3" y2="-58.2" stroke="#999" stroke-width="1.65" stroke-opacity="0.8"/><line x1="37.3" y1="-58.2" x2="50.8" y2="-64.7" stroke="#999" stroke-width="1.65" stroke-opacity="0.8"/><line x1="50.8" y1="-64.7" x2="64.3" y2="-71.3" stroke="#999" stroke-width="1.65" stroke-opacity="0.8"/><line x1="64.3" y1="-71.3" x2="77.7" y2="-77.9" stroke="#999" stroke-width="1.65" stroke-opacity="0.8"/><line x1="77.7" y1="-77.9" x2="91.2" y2="-84.5" stroke="#999" stroke-width="1.65" stroke-opacity="0.8"/><line x1="91.2" y1="-84.5" x2="105.9" y2="-81.4" stroke="#999" stroke-width="1.65" stroke-opacity="0.8"/><line x1="105.9" y1="-81.4" x2="115.6" y2="-69.9" stroke="#999" stroke-width="1.65" stroke-opacity="0.8"/><line x1="115.6" y1="-69.9" x2="125.2" y2="-58.5" stroke="#999" stroke-width="1.65" stroke-opacity="0.8"/><line x1="125.2" y1="-58.5" x2="134.9" y2="-47.0" stroke="#999" stroke-width="1.65" stroke-opacity="0.8"/><line x1="134.9" y1="-47.0" x2="144.6" y2="-35.5" stroke="#999" stroke-width="1.65" stroke-opacity="0.8"/><line x1="144.6" y1="-35.5" x2="147.8" y2="-20.9" stroke="#999" stroke-width="1.65" stroke-opacity="0.8"/><line x1="147.8" y1="-20.9" x2="161.7" y2="-15.3" stroke="#999" stroke-width="1.65" stroke-opacity="0.8"/><line x1="161.7" y1="-15.3" x2="171.4" y2="-3.8" stroke="#999" stroke-width="1.65" stroke-opacity="0.8"/><line x1="171.4" y1="-3.8" x2="181.0" y2="7.7" stroke="#999" stroke-width="1.65" stroke-opacity="0.8"/><line x1="181.0" y1="7.7" x2="190.7" y2="19.1" stroke="#999" stroke-width="1.65" stroke-opacity="0.8"/><line x1="190.7" y1="19.1" x2="184.7" y2="32.9" stroke="#999" stroke-width="1.65" stroke-opacity="0.8"/><line x1="184.7" y1="32.9" x2="184.2" y2="47.9" stroke="#999" stroke-width="1.65" stroke-opacity="0.8"/><line x1="184.2" y1="47.9" x2="189.8" y2="61.8" stroke="#999" stroke-width="1.65" stroke-opacity="0.8"/><line x1="189.8" y1="61.8" x2="200.6" y2="72.2" stroke="#999" stroke-width="1.65" stroke-opacity="0.8"/><line x1="200.6" y1="72.2" x2="214.5" y2="77.9" stroke="#999" stroke-width="1.65" stroke-opacity="0.8"/><line x1="214.5" y1="77.9" x2="229.7" y2="76.8" stroke="#999" stroke-width="1.65" stroke-opacity="0.8"/><line x1="229.7" y1="76.8" x2="243.1" y2="69.6" stroke="#999" stroke-width="1.65" stroke-opacity="0.8"/><line x1="243.1" y1="69.6" x2="252.5" y2="57.6" stroke="#999" stroke-width="1.65" stroke-opacity="0.8"/><line x1="252.5" y1="57.6" x2="256.1" y2="42.8" stroke="#999" stroke-width="1.65" stroke-opacity="0.8"/><line x1="256.1" y1="42.8" x2="253.4" y2="27.8" stroke="#999" stroke-width="1.65" stroke-opacity="0.8"/><line x1="253.4" y1="27.8" x2="244.8" y2="15.2" stroke="#999" stroke-width="1.65" stroke-opacity="0.8"/><line x1="244.8" y1="15.2" x2="231.9" y2="7.2" stroke="#999" stroke-width="1.65" stroke-opacity="0.8"/><line x1="231.9" y1="7.2" x2="216.8" y2="5.2" stroke="#999" stroke-width="1.65" stroke-opacity="0.8"/><line x1="216.8" y1="5.2" x2="202.2" y2="9.4" stroke="#999" stroke-width="1.65" stroke-opacity="0.8"/><line x1="202.2" y1="9.4" x2="192.5" y2="-2.0" stroke="#999" stroke-width="1.65" stroke-opacity="0.8"/><line x1="192.5" y1="-2.0" x2="182.8" y2="-13.5" stroke="#999" stroke-width="1.65" stroke-opacity="0.8"/><line x1="182.8" y1="-13.5" x2="173.2" y2="-24.9" stroke="#999" stroke-width="1.65" stroke-opacity="0.8"/><line x1="173.2" y1="-24.9" x2="169.9" y2="-39.6" stroke="#999" stroke-width="1.65" stroke-opacity="0.8"/><line x1="169.9" y1="-39.6" x2="156.0" y2="-45.2" stroke="#999" stroke-width="1.65" stroke-opacity="0.8"/><line x1="156.0" y1="-45.2" x2="146.4" y2="-56.7" stroke="#999" stroke-width="1.65" stroke-opacity="0.8"/><line x1="146.4" y1="-56.7" x2="136.7" y2="-68.1" stroke="#999" stroke-width="1.65" stroke-opacity="0.8"/><line x1="136.7" y1="-68.1" x2="127.0" y2="-79.6" stroke="#999" stroke-width="1.65" stroke-opacity="0.8"/><line x1="127.0" y1="-79.6" x2="117.3" y2="-91.1" stroke="#999" stroke-width="1.65" stroke-opacity="0.8"/><line x1="117.3" y1="-91.1" x2="121.9" y2="-105.3" stroke="#999" stroke-width="1.65" stroke-opacity="0.8"/><line x1="121.9" y1="-105.3" x2="136.5" y2="-109.0" stroke="#999" stroke-width="1.65" stroke-opacity="0.8"/><line x1="136.5" y1="-109.0" x2="151.0" y2="-112.7" stroke="#999" stroke-width="1.65" stroke-opacity="0.8"/><line x1="151.0" y1="-112.7" x2="165.7" y2="-109.4" stroke="#999" stroke-width="1.65" stroke-opacity="0.8"/><line x1="165.7" y1="-109.4" x2="177.0" y2="-119.2" stroke="#999" stroke-width="1.65" stroke-opacity="0.8"/><line x1="177.0" y1="-119.2" x2="173.3" y2="-133.8" stroke="#999" stroke-width="1.65" stroke-opacity="0.8"/><line x1="173.3" y1="-133.8" x2="158.7" y2="-137.0" stroke="#999" stroke-width="1.65" stroke-opacity="0.8"/><line x1="158.7" y1="-137.0" x2="147.4" y2="-127.2" stroke="#999" stroke-width="1.65" stroke-opacity="0.8"/><line x1="147.4" y1="-127.2" x2="132.8" y2="-123.6" stroke="#999" stroke-width="1.65" stroke-opacity="0.8"/><line x1="132.8" y1="-123.6" x2="118.3" y2="-119.9" stroke="#999" stroke-width="1.65" stroke-opacity="0.8"/><line x1="118.3" y1="-119.9" x2="112.0" y2="-124.0" stroke="#999" stroke-width="1.65" stroke-opacity="0.8"/><line x1="112.0" y1="-124.0" x2="126.2" y2="-128.8" stroke="#999" stroke-width="1.65" stroke-opacity="0.8"/><line x1="126.2" y1="-128.8" x2="131.3" y2="-142.9" stroke="#999" stroke-width="1.65" stroke-opacity="0.8"/><line x1="131.3" y1="-142.9" x2="123.4" y2="-155.6" stroke="#999" stroke-width="1.65" stroke-opacity="0.8"/><line x1="123.4" y1="-155.6" x2="108.5" y2="-157.5" stroke="#999" stroke-width="1.65" stroke-opacity="0.8"/><line x1="108.5" y1="-157.5" x2="97.8" y2="-147.0" stroke="#999" stroke-width="1.65" stroke-opacity="0.8"/><line x1="97.8" y1="-147.0" x2="108.3" y2="-139.1" stroke="#999" stroke-width="1.65" stroke-opacity="0.8"/><line x1="108.3" y1="-139.1" x2="93.0" y2="-136.1" stroke="#999" stroke-width="1.65" stroke-opacity="0.8"/><line x1="93.0" y1="-136.1" x2="90.3" y2="-150.9" stroke="#999" stroke-width="1.65" stroke-opacity="0.8"/><line x1="90.3" y1="-150.9" x2="87.6" y2="-165.6" stroke="#999" stroke-width="1.65" stroke-opacity="0.8"/><line x1="87.6" y1="-165.6" x2="84.9" y2="-180.4" stroke="#999" stroke-width="1.65" stroke-opacity="0.8"/><line x1="84.9" y1="-180.4" x2="82.2" y2="-195.1" stroke="#999" stroke-width="1.65" stroke-opacity="0.8"/><line x1="82.2" y1="-195.1" x2="79.5" y2="-209.9" stroke="#999" stroke-width="1.65" stroke-opacity="0.8"/><line x1="79.5" y1="-209.9" x2="76.8" y2="-224.6" stroke="#999" stroke-width="1.65" stroke-opacity="0.8"/><line x1="76.8" y1="-224.6" x2="74.1" y2="-239.4" stroke="#999" stroke-width="1.65" stroke-opacity="0.8"/><line x1="74.1" y1="-239.4" x2="71.4" y2="-254.1" stroke="#999" stroke-width="1.65" stroke-opacity="0.8"/><line x1="71.4" y1="-254.1" x2="68.6" y2="-268.9" stroke="#999" stroke-width="1.65" stroke-opacity="0.8"/><line x1="68.6" y1="-268.9" x2="81.4" y2="-277.1" stroke="#999" stroke-width="1.65" stroke-opacity="0.8"/><line x1="81.4" y1="-277.1" x2="90.1" y2="-289.6" stroke="#999" stroke-width="1.65" stroke-opacity="0.8"/><line x1="90.1" y1="-289.6" x2="93.3" y2="-304.5" stroke="#999" stroke-width="1.65" stroke-opacity="0.8"/><text x="99.9" y="-340.4" text-anchor="middle" font-size="7.8" font-family="Tahoma,Geneva,sans-serif" fill="#999">1</text><text x="31.8" y="-250.9" text-anchor="middle" font-size="7.8" font-family="Tahoma,Geneva,sans-serif" fill="#999">10</text><text x="60.6" y="-127.5" text-anchor="middle" font-size="7.8" font-family="Tahoma,Geneva,sans-serif" fill="#999">20</text><text x="-44.9" y="-55.0" text-anchor="middle" font-size="7.8" font-family="Tahoma,Geneva,sans-serif" fill="#999">30</text><text x="-91.9" y="18.7" text-anchor="middle" font-size="7.8" font-family="Tahoma,Geneva,sans-serif" fill="#999">40</text><text x="9.9" y="-11.7" text-anchor="middle" font-size="7.8" font-family="Tahoma,Geneva,sans-serif" fill="#999">50</text><text x="111.5" y="-44.1" text-anchor="middle" font-size="7.8" font-family="Tahoma,Geneva,sans-serif" fill="#999">60</text><text x="174.9" y="74.6" text-anchor="middle" font-size="7.8" font-family="Tahoma,Geneva,sans-serif" fill="#999">70</text><text x="218.2" y="25.8" text-anchor="middle" font-size="7.8" font-family="Tahoma,Geneva,sans-serif" fill="#999">80</text><text x="135.0" y="-91.8" text-anchor="middle" font-size="7.8" font-family="Tahoma,Geneva,sans-serif" fill="#999">90</text><text x="118.6" y="-135.1" text-anchor="middle" font-size="7.8" font-family="Tahoma,Geneva,sans-serif" fill="#999">100</text><text x="105.3" y="-166.1" text-anchor="middle" font-size="7.8" font-family="Tahoma,Geneva,sans-serif" fill="#999">110</text><text x="75.7" y="-305.5" text-anchor="middle" font-size="7.8" font-family="Tahoma,Geneva,sans-serif" fill="#999">120</text><circle cx="93.2" cy="-326.4" r="4.50" fill="lightsalmon" stroke="#ccc" stroke-width="1.65"/><text x="93.2" y="-324.2" text-anchor="middle" font-size="5.6" font-family="Tahoma,Geneva,sans-serif" font-weight="bold" fill="rgb(100,100,100)">C</text><circle cx="77.4" cy="-332.8" r="4.50" fill="lightsalmon" stroke="#ccc" stroke-width="1.65"/><text x="77.4" y="-330.5" text-anchor="middle" font-size="5.6" font-family="Tahoma,Geneva,sans-serif" font-weight="bold" fill="rgb(100,100,100)">A</text><circle cx="61.6" cy="-337.6" r="4.50" fill="lightsalmon" stroke="#ccc" stroke-width="1.65"/><text x="61.6" y="-335.4" text-anchor="middle" font-size="5.6" font-family="Tahoma,Geneva,sans-serif" font-weight="bold" fill="rgb(100,100,100)">U</text><circle cx="45.6" cy="-338.3" r="4.50" fill="lightsalmon" stroke="#ccc" stroke-width="1.65"/><text x="45.6" y="-336.1" text-anchor="middle" font-size="5.6" font-family="Tahoma,Geneva,sans-serif" font-weight="bold" fill="rgb(100,100,100)">A</text><circle cx="31.0" cy="-332.6" r="4.50" fill="lightsalmon" stroke="#ccc" stroke-width="1.65"/><text x="31.0" y="-330.4" text-anchor="middle" font-size="5.6" font-family="Tahoma,Geneva,sans-serif" font-weight="bold" fill="rgb(100,100,100)">C</text><circle cx="20.8" cy="-321.1" r="4.50" fill="lightsalmon" stroke="#ccc" stroke-width="1.65"/><text x="20.8" y="-318.8" text-anchor="middle" font-size="5.6" font-family="Tahoma,Geneva,sans-serif" font-weight="bold" fill="rgb(100,100,100)">U</text><circle cx="16.7" cy="-306.4" r="4.50" fill="lightsalmon" stroke="#ccc" stroke-width="1.65"/><text x="16.7" y="-304.2" text-anchor="middle" font-size="5.6" font-family="Tahoma,Geneva,sans-serif" font-weight="bold" fill="rgb(100,100,100)">A</text><circle cx="18.9" cy="-291.4" r="4.50" fill="lightsalmon" stroke="#ccc" stroke-width="1.65"/><text x="18.9" y="-289.2" text-anchor="middle" font-size="5.6" font-family="Tahoma,Geneva,sans-serif" font-weight="bold" fill="rgb(100,100,100)">U</text><circle cx="26.9" cy="-278.6" r="4.50" fill="lightsalmon" stroke="#ccc" stroke-width="1.65"/><text x="26.9" y="-276.4" text-anchor="middle" font-size="5.6" font-family="Tahoma,Geneva,sans-serif" font-weight="bold" fill="rgb(100,100,100)">C</text><circle cx="39.3" cy="-270.0" r="4.50" fill="lightsalmon" stroke="#ccc" stroke-width="1.65"/><text x="39.3" y="-267.7" text-anchor="middle" font-size="5.6" font-family="Tahoma,Geneva,sans-serif" font-weight="bold" fill="rgb(100,100,100)">C</text><circle cx="53.9" cy="-266.2" r="4.50" fill="lightgreen" stroke="#ccc" stroke-width="1.65"/><text x="53.9" y="-263.9" text-anchor="middle" font-size="5.6" font-family="Tahoma,Geneva,sans-serif" font-weight="bold" fill="rgb(100,100,100)">G</text><circle cx="56.6" cy="-251.4" r="4.50" fill="lightgreen" stroke="#ccc" stroke-width="1.65"/><text x="56.6" y="-249.2" text-anchor="middle" font-size="5.6" font-family="Tahoma,Geneva,sans-serif" font-weight="bold" fill="rgb(100,100,100)">C</text><circle cx="59.3" cy="-236.7" r="4.50" fill="lightgreen" stroke="#ccc" stroke-width="1.65"/><text x="59.3" y="-234.4" text-anchor="middle" font-size="5.6" font-family="Tahoma,Geneva,sans-serif" font-weight="bold" fill="rgb(100,100,100)">U</text><circle cx="62.0" cy="-221.9" r="4.50" fill="lightgreen" stroke="#ccc" stroke-width="1.65"/><text x="62.0" y="-219.7" text-anchor="middle" font-size="5.6" font-family="Tahoma,Geneva,sans-serif" font-weight="bold" fill="rgb(100,100,100)">G</text><circle cx="64.7" cy="-207.2" r="4.50" fill="lightgreen" stroke="#ccc" stroke-width="1.65"/><text x="64.7" y="-204.9" text-anchor="middle" font-size="5.6" font-family="Tahoma,Geneva,sans-serif" font-weight="bold" fill="rgb(100,100,100)">C</text><circle cx="67.5" cy="-192.4" r="4.50" fill="lightgreen" stroke="#ccc" stroke-width="1.65"/><text x="67.5" y="-190.2" text-anchor="middle" font-size="5.6" font-family="Tahoma,Geneva,sans-serif" font-weight="bold" fill="rgb(100,100,100)">A</text><circle cx="70.2" cy="-177.7" r="4.50" fill="lightgreen" stroke="#ccc" stroke-width="1.65"/><text x="70.2" y="-175.4" text-anchor="middle" font-size="5.6" font-family="Tahoma,Geneva,sans-serif" font-weight="bold" fill="rgb(100,100,100)">A</text><circle cx="72.9" cy="-162.9" r="4.50" fill="lightgreen" stroke="#ccc" stroke-width="1.65"/><text x="72.9" y="-160.7" text-anchor="middle" font-size="5.6" font-family="Tahoma,Geneva,sans-serif" font-weight="bold" fill="rgb(100,100,100)">G</text><circle cx="75.6" cy="-148.2" r="4.50" fill="lightgreen" stroke="#ccc" stroke-width="1.65"/><text x="75.6" y="-145.9" text-anchor="middle" font-size="5.6" font-family="Tahoma,Geneva,sans-serif" font-weight="bold" fill="rgb(100,100,100)">A</text><circle cx="78.3" cy="-133.4" r="4.50" fill="lightgreen" stroke="#ccc" stroke-width="1.65"/><text x="78.3" y="-131.2" text-anchor="middle" font-size="5.6" font-family="Tahoma,Geneva,sans-serif" font-weight="bold" fill="rgb(100,100,100)">A</text><circle cx="84.6" cy="-98.0" r="4.50" fill="lightgreen" stroke="#ccc" stroke-width="1.65"/><text x="84.6" y="-95.7" text-anchor="middle" font-size="5.6" font-family="Tahoma,Geneva,sans-serif" font-weight="bold" fill="rgb(100,100,100)">G</text><circle cx="71.1" cy="-91.4" r="4.50" fill="lightgreen" stroke="#ccc" stroke-width="1.65"/><text x="71.1" y="-89.1" text-anchor="middle" font-size="5.6" font-family="Tahoma,Geneva,sans-serif" font-weight="bold" fill="rgb(100,100,100)">U</text><circle cx="57.7" cy="-84.8" r="4.50" fill="lightgreen" stroke="#ccc" stroke-width="1.65"/><text x="57.7" y="-82.6" text-anchor="middle" font-size="5.6" font-family="Tahoma,Geneva,sans-serif" font-weight="bold" fill="rgb(100,100,100)">G</text><circle cx="44.2" cy="-78.2" r="4.50" fill="lightgreen" stroke="#ccc" stroke-width="1.65"/><text x="44.2" y="-76.0" text-anchor="middle" font-size="5.6" font-family="Tahoma,Geneva,sans-serif" font-weight="bold" fill="rgb(100,100,100)">G</text><circle cx="30.7" cy="-71.6" r="4.50" fill="lightgreen" stroke="#ccc" stroke-width="1.65"/><text x="30.7" y="-69.4" text-anchor="middle" font-size="5.6" font-family="Tahoma,Geneva,sans-serif" font-weight="bold" fill="rgb(100,100,100)">G</text><circle cx="17.2" cy="-65.1" r="4.50" fill="lightgreen" stroke="#ccc" stroke-width="1.65"/><text x="17.2" y="-62.8" text-anchor="middle" font-size="5.6" font-family="Tahoma,Geneva,sans-serif" font-weight="bold" fill="rgb(100,100,100)">A</text><circle cx="3.6" cy="-58.8" r="4.50" fill="lightgreen" stroke="#ccc" stroke-width="1.65"/><text x="3.6" y="-56.6" text-anchor="middle" font-size="5.6" font-family="Tahoma,Geneva,sans-serif" font-weight="bold" fill="rgb(100,100,100)">C</text><circle cx="-10.2" cy="-52.9" r="4.50" fill="lightgreen" stroke="#ccc" stroke-width="1.65"/><text x="-10.2" y="-50.7" text-anchor="middle" font-size="5.6" font-family="Tahoma,Geneva,sans-serif" font-weight="bold" fill="rgb(100,100,100)">U</text><circle cx="-24.0" cy="-47.1" r="4.50" fill="lightgreen" stroke="#ccc" stroke-width="1.65"/><text x="-24.0" y="-44.8" text-anchor="middle" font-size="5.6" font-family="Tahoma,Geneva,sans-serif" font-weight="bold" fill="rgb(100,100,100)">G</text><circle cx="-37.8" cy="-41.2" r="4.50" fill="lightgreen" stroke="#ccc" stroke-width="1.65"/><text x="-37.8" y="-38.9" text-anchor="middle" font-size="5.6" font-family="Tahoma,Geneva,sans-serif" font-weight="bold" fill="rgb(100,100,100)">G</text><circle cx="-51.6" cy="-35.3" r="4.50" fill="lightgreen" stroke="#ccc" stroke-width="1.65"/><text x="-51.6" y="-33.1" text-anchor="middle" font-size="5.6" font-family="Tahoma,Geneva,sans-serif" font-weight="bold" fill="rgb(100,100,100)">C</text><circle cx="-66.5" cy="-31.3" r="4.50" fill="#dbdb8d" stroke="#ccc" stroke-width="1.65"/><text x="-66.5" y="-29.0" text-anchor="middle" font-size="5.6" font-family="Tahoma,Geneva,sans-serif" font-weight="bold" fill="rgb(100,100,100)">A</text><circle cx="-79.8" cy="-23.7" r="4.50" fill="lightgreen" stroke="#ccc" stroke-width="1.65"/><text x="-79.8" y="-21.5" text-anchor="middle" font-size="5.6" font-family="Tahoma,Geneva,sans-serif" font-weight="bold" fill="rgb(100,100,100)">G</text><circle cx="-93.8" cy="-18.2" r="4.50" fill="lightgreen" stroke="#ccc" stroke-width="1.65"/><text x="-93.8" y="-15.9" text-anchor="middle" font-size="5.6" font-family="Tahoma,Geneva,sans-serif" font-weight="bold" fill="rgb(100,100,100)">A</text><circle cx="-107.7" cy="-12.7" r="4.50" fill="lightgreen" stroke="#ccc" stroke-width="1.65"/><text x="-107.7" y="-10.4" text-anchor="middle" font-size="5.6" font-family="Tahoma,Geneva,sans-serif" font-weight="bold" fill="rgb(100,100,100)">A</text><circle cx="-122.7" cy="-14.0" r="4.50" fill="lightblue" stroke="#ccc" stroke-width="1.65"/><text x="-122.7" y="-11.8" text-anchor="middle" font-size="5.6" font-family="Tahoma,Geneva,sans-serif" font-weight="bold" fill="rgb(100,100,100)">U</text><circle cx="-132.6" cy="-2.8" r="4.50" fill="lightblue" stroke="#ccc" stroke-width="1.65"/><text x="-132.6" y="-0.6" text-anchor="middle" font-size="5.6" font-family="Tahoma,Geneva,sans-serif" font-weight="bold" fill="rgb(100,100,100)">A</text><circle cx="-127.1" cy="11.1" r="4.50" fill="lightblue" stroke="#ccc" stroke-width="1.65"/><text x="-127.1" y="13.4" text-anchor="middle" font-size="5.6" font-family="Tahoma,Geneva,sans-serif" font-weight="bold" fill="rgb(100,100,100)">A</text><circle cx="-112.2" cy="12.5" r="4.50" fill="lightblue" stroke="#ccc" stroke-width="1.65"/><text x="-112.2" y="14.7" text-anchor="middle" font-size="5.6" font-family="Tahoma,Geneva,sans-serif" font-weight="bold" fill="rgb(100,100,100)">U</text><circle cx="-102.2" cy="1.3" r="4.50" fill="lightgreen" stroke="#ccc" stroke-width="1.65"/><text x="-102.2" y="3.5" text-anchor="middle" font-size="5.6" font-family="Tahoma,Geneva,sans-serif" font-weight="bold" fill="rgb(100,100,100)">U</text><circle cx="-88.3" cy="-4.2" r="4.50" fill="lightgreen" stroke="#ccc" stroke-width="1.65"/><text x="-88.3" y="-2.0" text-anchor="middle" font-size="5.6" font-family="Tahoma,Geneva,sans-serif" font-weight="bold" fill="rgb(100,100,100)">U</text><circle cx="-74.3" cy="-9.8" r="4.50" fill="lightgreen" stroke="#ccc" stroke-width="1.65"/><text x="-74.3" y="-7.5" text-anchor="middle" font-size="5.6" font-family="Tahoma,Geneva,sans-serif" font-weight="bold" fill="rgb(100,100,100)">C</text><circle cx="-62.4" cy="-0.7" r="4.50" fill="#dbdb8d" stroke="#ccc" stroke-width="1.65"/><text x="-62.4" y="1.5" text-anchor="middle" font-size="5.6" font-family="Tahoma,Geneva,sans-serif" font-weight="bold" fill="rgb(100,100,100)">A</text><circle cx="-48.7" cy="-6.8" r="4.50" fill="#dbdb8d" stroke="#ccc" stroke-width="1.65"/><text x="-48.7" y="-4.6" text-anchor="middle" font-size="5.6" font-family="Tahoma,Geneva,sans-serif" font-weight="bold" fill="rgb(100,100,100)">A</text><circle cx="-45.7" cy="-21.5" r="4.50" fill="lightgreen" stroke="#ccc" stroke-width="1.65"/><text x="-45.7" y="-19.3" text-anchor="middle" font-size="5.6" font-family="Tahoma,Geneva,sans-serif" font-weight="bold" fill="rgb(100,100,100)">G</text><circle cx="-31.9" cy="-27.4" r="4.50" fill="lightgreen" stroke="#ccc" stroke-width="1.65"/><text x="-31.9" y="-25.1" text-anchor="middle" font-size="5.6" font-family="Tahoma,Geneva,sans-serif" font-weight="bold" fill="rgb(100,100,100)">C</text><circle cx="-18.1" cy="-33.3" r="4.50" fill="lightgreen" stroke="#ccc" stroke-width="1.65"/><text x="-18.1" y="-31.0" text-anchor="middle" font-size="5.6" font-family="Tahoma,Geneva,sans-serif" font-weight="bold" fill="rgb(100,100,100)">C</text><circle cx="-4.3" cy="-39.1" r="4.50" fill="lightgreen" stroke="#ccc" stroke-width="1.65"/><text x="-4.3" y="-36.9" text-anchor="middle" font-size="5.6" font-family="Tahoma,Geneva,sans-serif" font-weight="bold" fill="rgb(100,100,100)">A</text><circle cx="9.5" cy="-45.0" r="4.50" fill="lightgreen" stroke="#ccc" stroke-width="1.65"/><text x="9.5" y="-42.8" text-anchor="middle" font-size="5.6" font-family="Tahoma,Geneva,sans-serif" font-weight="bold" fill="rgb(100,100,100)">G</text><circle cx="16.1" cy="-31.3" r="4.50" fill="#dbdb8d" stroke="#ccc" stroke-width="1.65"/><text x="16.1" y="-29.0" text-anchor="middle" font-size="5.6" font-family="Tahoma,Geneva,sans-serif" font-weight="bold" fill="rgb(100,100,100)">A</text><circle cx="29.8" cy="-37.5" r="4.50" fill="#dbdb8d" stroke="#ccc" stroke-width="1.65"/><text x="29.8" y="-35.3" text-anchor="middle" font-size="5.6" font-family="Tahoma,Geneva,sans-serif" font-weight="bold" fill="rgb(100,100,100)">U</text><circle cx="23.8" cy="-51.6" r="4.50" fill="lightgreen" stroke="#ccc" stroke-width="1.65"/><text x="23.8" y="-49.3" text-anchor="middle" font-size="5.6" font-family="Tahoma,Geneva,sans-serif" font-weight="bold" fill="rgb(100,100,100)">U</text><circle cx="37.3" cy="-58.2" r="4.50" fill="lightgreen" stroke="#ccc" stroke-width="1.65"/><text x="37.3" y="-55.9" text-anchor="middle" font-size="5.6" font-family="Tahoma,Geneva,sans-serif" font-weight="bold" fill="rgb(100,100,100)">C</text><circle cx="50.8" cy="-64.7" r="4.50" fill="lightgreen" stroke="#ccc" stroke-width="1.65"/><text x="50.8" y="-62.5" text-anchor="middle" font-size="5.6" font-family="Tahoma,Geneva,sans-serif" font-weight="bold" fill="rgb(100,100,100)">C</text><circle cx="64.3" cy="-71.3" r="4.50" fill="lightgreen" stroke="#ccc" stroke-width="1.65"/><text x="64.3" y="-69.1" text-anchor="middle" font-size="5.6" font-family="Tahoma,Geneva,sans-serif" font-weight="bold" fill="rgb(100,100,100)">C</text><circle cx="77.7" cy="-77.9" r="4.50" fill="lightgreen" stroke="#ccc" stroke-width="1.65"/><text x="77.7" y="-75.7" text-anchor="middle" font-size="5.6" font-family="Tahoma,Geneva,sans-serif" font-weight="bold" fill="rgb(100,100,100)">A</text><circle cx="91.2" cy="-84.5" r="4.50" fill="lightgreen" stroke="#ccc" stroke-width="1.65"/><text x="91.2" y="-82.2" text-anchor="middle" font-size="5.6" font-family="Tahoma,Geneva,sans-serif" font-weight="bold" fill="rgb(100,100,100)">C</text><circle cx="105.9" cy="-81.4" r="4.50" fill="lightgreen" stroke="#ccc" stroke-width="1.65"/><text x="105.9" y="-79.1" text-anchor="middle" font-size="5.6" font-family="Tahoma,Geneva,sans-serif" font-weight="bold" fill="rgb(100,100,100)">U</text><circle cx="115.6" cy="-69.9" r="4.50" fill="lightgreen" stroke="#ccc" stroke-width="1.65"/><text x="115.6" y="-67.7" text-anchor="middle" font-size="5.6" font-family="Tahoma,Geneva,sans-serif" font-weight="bold" fill="rgb(100,100,100)">G</text><circle cx="125.2" cy="-58.5" r="4.50" fill="lightgreen" stroke="#ccc" stroke-width="1.65"/><text x="125.2" y="-56.2" text-anchor="middle" font-size="5.6" font-family="Tahoma,Geneva,sans-serif" font-weight="bold" fill="rgb(100,100,100)">G</text><circle cx="134.9" cy="-47.0" r="4.50" fill="lightgreen" stroke="#ccc" stroke-width="1.65"/><text x="134.9" y="-44.8" text-anchor="middle" font-size="5.6" font-family="Tahoma,Geneva,sans-serif" font-weight="bold" fill="rgb(100,100,100)">C</text><circle cx="144.6" cy="-35.5" r="4.50" fill="lightgreen" stroke="#ccc" stroke-width="1.65"/><text x="144.6" y="-33.3" text-anchor="middle" font-size="5.6" font-family="Tahoma,Geneva,sans-serif" font-weight="bold" fill="rgb(100,100,100)">C</text><circle cx="147.8" cy="-20.9" r="4.50" fill="#dbdb8d" stroke="#ccc" stroke-width="1.65"/><text x="147.8" y="-18.7" text-anchor="middle" font-size="5.6" font-family="Tahoma,Geneva,sans-serif" font-weight="bold" fill="rgb(100,100,100)">U</text><circle cx="161.7" cy="-15.3" r="4.50" fill="lightgreen" stroke="#ccc" stroke-width="1.65"/><text x="161.7" y="-13.0" text-anchor="middle" font-size="5.6" font-family="Tahoma,Geneva,sans-serif" font-weight="bold" fill="rgb(100,100,100)">U</text><circle cx="171.4" cy="-3.8" r="4.50" fill="lightgreen" stroke="#ccc" stroke-width="1.65"/><text x="171.4" y="-1.6" text-anchor="middle" font-size="5.6" font-family="Tahoma,Geneva,sans-serif" font-weight="bold" fill="rgb(100,100,100)">U</text><circle cx="181.0" cy="7.7" r="4.50" fill="lightgreen" stroke="#ccc" stroke-width="1.65"/><text x="181.0" y="9.9" text-anchor="middle" font-size="5.6" font-family="Tahoma,Geneva,sans-serif" font-weight="bold" fill="rgb(100,100,100)">U</text><circle cx="190.7" cy="19.1" r="4.50" fill="lightgreen" stroke="#ccc" stroke-width="1.65"/><text x="190.7" y="21.4" text-anchor="middle" font-size="5.6" font-family="Tahoma,Geneva,sans-serif" font-weight="bold" fill="rgb(100,100,100)">A</text><circle cx="184.7" cy="32.9" r="4.50" fill="lightblue" stroke="#ccc" stroke-width="1.65"/><text x="184.7" y="35.1" text-anchor="middle" font-size="5.6" font-family="Tahoma,Geneva,sans-serif" font-weight="bold" fill="rgb(100,100,100)">A</text><circle cx="184.2" cy="47.9" r="4.50" fill="lightblue" stroke="#ccc" stroke-width="1.65"/><text x="184.2" y="50.1" text-anchor="middle" font-size="5.6" font-family="Tahoma,Geneva,sans-serif" font-weight="bold" fill="rgb(100,100,100)">A</text><circle cx="189.8" cy="61.8" r="4.50" fill="lightblue" stroke="#ccc" stroke-width="1.65"/><text x="189.8" y="64.0" text-anchor="middle" font-size="5.6" font-family="Tahoma,Geneva,sans-serif" font-weight="bold" fill="rgb(100,100,100)">C</text><circle cx="200.6" cy="72.2" r="4.50" fill="lightblue" stroke="#ccc" stroke-width="1.65"/><text x="200.6" y="74.4" text-anchor="middle" font-size="5.6" font-family="Tahoma,Geneva,sans-serif" font-weight="bold" fill="rgb(100,100,100)">A</text><circle cx="214.5" cy="77.9" r="4.50" fill="lightgreen" stroke="#ccc" stroke-width="1.65"/><text x="214.5" y="80.1" text-anchor="middle" font-size="5.6" font-family="Tahoma,Geneva,sans-serif" font-weight="bold" fill="rgb(100,100,100)">U</text><circle cx="229.7" cy="76.8" r="4.50" fill="lightgreen" stroke="#ccc" stroke-width="1.65"/><text x="229.7" y="79.0" text-anchor="middle" font-size="5.6" font-family="Tahoma,Geneva,sans-serif" font-weight="bold" fill="rgb(100,100,100)">U</text><circle cx="243.1" cy="69.6" r="4.50" fill="lightgreen" stroke="#ccc" stroke-width="1.65"/><text x="243.1" y="71.8" text-anchor="middle" font-size="5.6" font-family="Tahoma,Geneva,sans-serif" font-weight="bold" fill="rgb(100,100,100)">U</text><circle cx="252.5" cy="57.6" r="4.50" fill="lightgreen" stroke="#ccc" stroke-width="1.65"/><text x="252.5" y="59.8" text-anchor="middle" font-size="5.6" font-family="Tahoma,Geneva,sans-serif" font-weight="bold" fill="rgb(100,100,100)">C</text><circle cx="256.1" cy="42.8" r="4.50" fill="lightgreen" stroke="#ccc" stroke-width="1.65"/><text x="256.1" y="45.0" text-anchor="middle" font-size="5.6" font-family="Tahoma,Geneva,sans-serif" font-weight="bold" fill="rgb(100,100,100)">A</text><circle cx="253.4" cy="27.8" r="4.50" fill="lightgreen" stroke="#ccc" stroke-width="1.65"/><text x="253.4" y="30.0" text-anchor="middle" font-size="5.6" font-family="Tahoma,Geneva,sans-serif" font-weight="bold" fill="rgb(100,100,100)">U</text><circle cx="244.8" cy="15.2" r="4.50" fill="lightgreen" stroke="#ccc" stroke-width="1.65"/><text x="244.8" y="17.5" text-anchor="middle" font-size="5.6" font-family="Tahoma,Geneva,sans-serif" font-weight="bold" fill="rgb(100,100,100)">U</text><circle cx="231.9" cy="7.2" r="4.50" fill="lightgreen" stroke="#ccc" stroke-width="1.65"/><text x="231.9" y="9.4" text-anchor="middle" font-size="5.6" font-family="Tahoma,Geneva,sans-serif" font-weight="bold" fill="rgb(100,100,100)">C</text><circle cx="216.8" cy="5.2" r="4.50" fill="lightgreen" stroke="#ccc" stroke-width="1.65"/><text x="216.8" y="7.4" text-anchor="middle" font-size="5.6" font-family="Tahoma,Geneva,sans-serif" font-weight="bold" fill="rgb(100,100,100)">A</text><circle cx="202.2" cy="9.4" r="4.50" fill="lightgreen" stroke="#ccc" stroke-width="1.65"/><text x="202.2" y="11.7" text-anchor="middle" font-size="5.6" font-family="Tahoma,Geneva,sans-serif" font-weight="bold" fill="rgb(100,100,100)">U</text><circle cx="192.5" cy="-2.0" r="4.50" fill="lightgreen" stroke="#ccc" stroke-width="1.65"/><text x="192.5" y="0.2" text-anchor="middle" font-size="5.6" font-family="Tahoma,Geneva,sans-serif" font-weight="bold" fill="rgb(100,100,100)">A</text><circle cx="182.8" cy="-13.5" r="4.50" fill="lightgreen" stroke="#ccc" stroke-width="1.65"/><text x="182.8" y="-11.2" text-anchor="middle" font-size="5.6" font-family="Tahoma,Geneva,sans-serif" font-weight="bold" fill="rgb(100,100,100)">A</text><circle cx="173.2" cy="-24.9" r="4.50" fill="lightgreen" stroke="#ccc" stroke-width="1.65"/><text x="173.2" y="-22.7" text-anchor="middle" font-size="5.6" font-family="Tahoma,Geneva,sans-serif" font-weight="bold" fill="rgb(100,100,100)">A</text><circle cx="169.9" cy="-39.6" r="4.50" fill="#dbdb8d" stroke="#ccc" stroke-width="1.65"/><text x="169.9" y="-37.3" text-anchor="middle" font-size="5.6" font-family="Tahoma,Geneva,sans-serif" font-weight="bold" fill="rgb(100,100,100)">U</text><circle cx="156.0" cy="-45.2" r="4.50" fill="lightgreen" stroke="#ccc" stroke-width="1.65"/><text x="156.0" y="-43.0" text-anchor="middle" font-size="5.6" font-family="Tahoma,Geneva,sans-serif" font-weight="bold" fill="rgb(100,100,100)">G</text><circle cx="146.4" cy="-56.7" r="4.50" fill="lightgreen" stroke="#ccc" stroke-width="1.65"/><text x="146.4" y="-54.4" text-anchor="middle" font-size="5.6" font-family="Tahoma,Geneva,sans-serif" font-weight="bold" fill="rgb(100,100,100)">G</text><circle cx="136.7" cy="-68.1" r="4.50" fill="lightgreen" stroke="#ccc" stroke-width="1.65"/><text x="136.7" y="-65.9" text-anchor="middle" font-size="5.6" font-family="Tahoma,Geneva,sans-serif" font-weight="bold" fill="rgb(100,100,100)">C</text><circle cx="127.0" cy="-79.6" r="4.50" fill="lightgreen" stroke="#ccc" stroke-width="1.65"/><text x="127.0" y="-77.4" text-anchor="middle" font-size="5.6" font-family="Tahoma,Geneva,sans-serif" font-weight="bold" fill="rgb(100,100,100)">C</text><circle cx="117.3" cy="-91.1" r="4.50" fill="lightgreen" stroke="#ccc" stroke-width="1.65"/><text x="117.3" y="-88.8" text-anchor="middle" font-size="5.6" font-family="Tahoma,Geneva,sans-serif" font-weight="bold" fill="rgb(100,100,100)">A</text><circle cx="121.9" cy="-105.3" r="4.50" fill="lightgreen" stroke="#ccc" stroke-width="1.65"/><text x="121.9" y="-103.1" text-anchor="middle" font-size="5.6" font-family="Tahoma,Geneva,sans-serif" font-weight="bold" fill="rgb(100,100,100)">C</text><circle cx="136.5" cy="-109.0" r="4.50" fill="lightgreen" stroke="#ccc" stroke-width="1.65"/><text x="136.5" y="-106.8" text-anchor="middle" font-size="5.6" font-family="Tahoma,Geneva,sans-serif" font-weight="bold" fill="rgb(100,100,100)">C</text><circle cx="151.0" cy="-112.7" r="4.50" fill="lightgreen" stroke="#ccc" stroke-width="1.65"/><text x="151.0" y="-110.4" text-anchor="middle" font-size="5.6" font-family="Tahoma,Geneva,sans-serif" font-weight="bold" fill="rgb(100,100,100)">A</text><circle cx="165.7" cy="-109.4" r="4.50" fill="lightblue" stroke="#ccc" stroke-width="1.65"/><text x="165.7" y="-107.2" text-anchor="middle" font-size="5.6" font-family="Tahoma,Geneva,sans-serif" font-weight="bold" fill="rgb(100,100,100)">U</text><circle cx="177.0" cy="-119.2" r="4.50" fill="lightblue" stroke="#ccc" stroke-width="1.65"/><text x="177.0" y="-117.0" text-anchor="middle" font-size="5.6" font-family="Tahoma,Geneva,sans-serif" font-weight="bold" fill="rgb(100,100,100)">U</text><circle cx="173.3" cy="-133.8" r="4.50" fill="lightblue" stroke="#ccc" stroke-width="1.65"/><text x="173.3" y="-131.5" text-anchor="middle" font-size="5.6" font-family="Tahoma,Geneva,sans-serif" font-weight="bold" fill="rgb(100,100,100)">U</text><circle cx="158.7" cy="-137.0" r="4.50" fill="lightblue" stroke="#ccc" stroke-width="1.65"/><text x="158.7" y="-134.8" text-anchor="middle" font-size="5.6" font-family="Tahoma,Geneva,sans-serif" font-weight="bold" fill="rgb(100,100,100)">U</text><circle cx="147.4" cy="-127.2" r="4.50" fill="lightgreen" stroke="#ccc" stroke-width="1.65"/><text x="147.4" y="-125.0" text-anchor="middle" font-size="5.6" font-family="Tahoma,Geneva,sans-serif" font-weight="bold" fill="rgb(100,100,100)">U</text><circle cx="132.8" cy="-123.6" r="4.50" fill="lightgreen" stroke="#ccc" stroke-width="1.65"/><text x="132.8" y="-121.3" text-anchor="middle" font-size="5.6" font-family="Tahoma,Geneva,sans-serif" font-weight="bold" fill="rgb(100,100,100)">G</text><circle cx="118.3" cy="-119.9" r="4.50" fill="lightgreen" stroke="#ccc" stroke-width="1.65"/><text x="118.3" y="-117.6" text-anchor="middle" font-size="5.6" font-family="Tahoma,Geneva,sans-serif" font-weight="bold" fill="rgb(100,100,100)">A</text><circle cx="112.0" cy="-124.0" r="4.50" fill="lightgreen" stroke="#ccc" stroke-width="1.65"/><text x="112.0" y="-121.7" text-anchor="middle" font-size="5.6" font-family="Tahoma,Geneva,sans-serif" font-weight="bold" fill="rgb(100,100,100)">G</text><circle cx="126.2" cy="-128.8" r="4.50" fill="lightgreen" stroke="#ccc" stroke-width="1.65"/><text x="126.2" y="-126.5" text-anchor="middle" font-size="5.6" font-family="Tahoma,Geneva,sans-serif" font-weight="bold" fill="rgb(100,100,100)">U</text><circle cx="131.3" cy="-142.9" r="4.50" fill="lightgreen" stroke="#ccc" stroke-width="1.65"/><text x="131.3" y="-140.6" text-anchor="middle" font-size="5.6" font-family="Tahoma,Geneva,sans-serif" font-weight="bold" fill="rgb(100,100,100)">G</text><circle cx="123.4" cy="-155.6" r="4.50" fill="lightgreen" stroke="#ccc" stroke-width="1.65"/><text x="123.4" y="-153.4" text-anchor="middle" font-size="5.6" font-family="Tahoma,Geneva,sans-serif" font-weight="bold" fill="rgb(100,100,100)">A</text><circle cx="108.5" cy="-157.5" r="4.50" fill="lightgreen" stroke="#ccc" stroke-width="1.65"/><text x="108.5" y="-155.2" text-anchor="middle" font-size="5.6" font-family="Tahoma,Geneva,sans-serif" font-weight="bold" fill="rgb(100,100,100)">G</text><circle cx="97.8" cy="-147.0" r="4.50" fill="lightgreen" stroke="#ccc" stroke-width="1.65"/><text x="97.8" y="-144.7" text-anchor="middle" font-size="5.6" font-family="Tahoma,Geneva,sans-serif" font-weight="bold" fill="rgb(100,100,100)">A</text><circle cx="108.3" cy="-139.1" r="4.50" fill="#ff9896" stroke="#ccc" stroke-width="1.65"/><text x="108.3" y="-136.8" text-anchor="middle" font-size="5.6" font-family="Tahoma,Geneva,sans-serif" font-weight="bold" fill="rgb(100,100,100)">U</text><circle cx="93.0" cy="-136.1" r="4.50" fill="lightgreen" stroke="#ccc" stroke-width="1.65"/><text x="93.0" y="-133.9" text-anchor="middle" font-size="5.6" font-family="Tahoma,Geneva,sans-serif" font-weight="bold" fill="rgb(100,100,100)">U</text><circle cx="90.3" cy="-150.9" r="4.50" fill="lightgreen" stroke="#ccc" stroke-width="1.65"/><text x="90.3" y="-148.6" text-anchor="middle" font-size="5.6" font-family="Tahoma,Geneva,sans-serif" font-weight="bold" fill="rgb(100,100,100)">U</text><circle cx="87.6" cy="-165.6" r="4.50" fill="lightgreen" stroke="#ccc" stroke-width="1.65"/><text x="87.6" y="-163.4" text-anchor="middle" font-size="5.6" font-family="Tahoma,Geneva,sans-serif" font-weight="bold" fill="rgb(100,100,100)">C</text><circle cx="84.9" cy="-180.4" r="4.50" fill="lightgreen" stroke="#ccc" stroke-width="1.65"/><text x="84.9" y="-178.1" text-anchor="middle" font-size="5.6" font-family="Tahoma,Geneva,sans-serif" font-weight="bold" fill="rgb(100,100,100)">U</text><circle cx="82.2" cy="-195.1" r="4.50" fill="lightgreen" stroke="#ccc" stroke-width="1.65"/><text x="82.2" y="-192.9" text-anchor="middle" font-size="5.6" font-family="Tahoma,Geneva,sans-serif" font-weight="bold" fill="rgb(100,100,100)">U</text><circle cx="79.5" cy="-209.9" r="4.50" fill="lightgreen" stroke="#ccc" stroke-width="1.65"/><text x="79.5" y="-207.6" text-anchor="middle" font-size="5.6" font-family="Tahoma,Geneva,sans-serif" font-weight="bold" fill="rgb(100,100,100)">G</text><circle cx="76.8" cy="-224.6" r="4.50" fill="lightgreen" stroke="#ccc" stroke-width="1.65"/><text x="76.8" y="-222.4" text-anchor="middle" font-size="5.6" font-family="Tahoma,Geneva,sans-serif" font-weight="bold" fill="rgb(100,100,100)">C</text><circle cx="74.1" cy="-239.4" r="4.50" fill="lightgreen" stroke="#ccc" stroke-width="1.65"/><text x="74.1" y="-237.1" text-anchor="middle" font-size="5.6" font-family="Tahoma,Geneva,sans-serif" font-weight="bold" fill="rgb(100,100,100)">A</text><circle cx="71.4" cy="-254.1" r="4.50" fill="lightgreen" stroke="#ccc" stroke-width="1.65"/><text x="71.4" y="-251.9" text-anchor="middle" font-size="5.6" font-family="Tahoma,Geneva,sans-serif" font-weight="bold" fill="rgb(100,100,100)">G</text><circle cx="68.6" cy="-268.9" r="4.50" fill="lightgreen" stroke="#ccc" stroke-width="1.65"/><text x="68.6" y="-266.6" text-anchor="middle" font-size="5.6" font-family="Tahoma,Geneva,sans-serif" font-weight="bold" fill="rgb(100,100,100)">C</text><circle cx="81.4" cy="-277.1" r="4.50" fill="lightgreen" stroke="#ccc" stroke-width="1.65"/><text x="81.4" y="-274.9" text-anchor="middle" font-size="5.6" font-family="Tahoma,Geneva,sans-serif" font-weight="bold" fill="rgb(100,100,100)">U</text><circle cx="90.1" cy="-289.6" r="4.50" fill="lightgreen" stroke="#ccc" stroke-width="1.65"/><text x="90.1" y="-287.4" text-anchor="middle" font-size="5.6" font-family="Tahoma,Geneva,sans-serif" font-weight="bold" fill="rgb(100,100,100)">G</text><circle cx="93.3" cy="-304.5" r="4.50" fill="lightgreen" stroke="#ccc" stroke-width="1.65"/><text x="93.3" y="-302.2" text-anchor="middle" font-size="5.6" font-family="Tahoma,Geneva,sans-serif" font-weight="bold" fill="rgb(100,100,100)">G</text></svg>