<svg xmlns="http://www.w3.org/2000/svg" viewBox="-245.3 -225.7 757.1 380.6" width="757" height="381"><style></style><line x1="-178.3" y1="-180.2" x2="-182.3" y2="-165.7" stroke="#999" stroke-width="1.63" stroke-opacity="0.8"/><line x1="-163.8" y1="-176.1" x2="-167.9" y2="-161.7" stroke="#999" stroke-width="1.63" stroke-opacity="0.8"/><line x1="-149.4" y1="-172.1" x2="-153.4" y2="-157.7" stroke="#999" stroke-width="1.63" stroke-opacity="0.8"/><line x1="-134.9" y1="-168.1" x2="-139.0" y2="-153.6" stroke="#999" stroke-width="1.63" stroke-opacity="0.8"/><line x1="-120.5" y1="-164.0" x2="-124.5" y2="-149.6" stroke="#999" stroke-width="1.63" stroke-opacity="0.8"/><line x1="-106.0" y1="-160.0" x2="-110.1" y2="-145.5" stroke="#999" stroke-width="1.63" stroke-opacity="0.8"/><line x1="-76.5" y1="-152.2" x2="-80.2" y2="-137.6" stroke="#999" stroke-width="1.63" stroke-opacity="0.8"/><line x1="-62.0" y1="-148.5" x2="-65.6" y2="-134.0" stroke="#999" stroke-width="1.63" stroke-opacity="0.8"/><line x1="-47.4" y1="-144.9" x2="-51.1" y2="-130.3" stroke="#999" stroke-width="1.63" stroke-opacity="0.8"/><line x1="-32.9" y1="-141.2" x2="-36.5" y2="-126.6" stroke="#999" stroke-width="1.63" stroke-opacity="0.8"/><line x1="21.7" y1="-127.4" x2="18.0" y2="-112.9" stroke="#999" stroke-width="1.63" stroke-opacity="0.8"/><line x1="36.3" y1="-123.8" x2="32.6" y2="-109.2" stroke="#999" stroke-width="1.63" stroke-opacity="0.8"/><line x1="50.8" y1="-120.1" x2="47.1" y2="-105.6" stroke="#999" stroke-width="1.63" stroke-opacity="0.8"/><line x1="65.3" y1="-116.5" x2="61.7" y2="-101.9" stroke="#999" stroke-width="1.63" stroke-opacity="0.8"/><line x1="79.9" y1="-112.8" x2="76.2" y2="-98.3" stroke="#999" stroke-width="1.63" stroke-opacity="0.8"/><line x1="94.4" y1="-109.1" x2="90.8" y2="-94.6" stroke="#999" stroke-width="1.63" stroke-opacity="0.8"/><line x1="426.5" y1="88.8" x2="433.7" y2="75.7" stroke="#999" stroke-width="1.63" stroke-opacity="0.8"/><line x1="413.3" y1="81.6" x2="420.6" y2="68.5" stroke="#999" stroke-width="1.63" stroke-opacity="0.8"/><line x1="390.1" y1="68.7" x2="397.4" y2="55.6" stroke="#999" stroke-width="1.63" stroke-opacity="0.8"/><line x1="377.0" y1="61.4" x2="384.3" y2="48.3" stroke="#999" stroke-width="1.63" stroke-opacity="0.8"/><line x1="363.9" y1="54.2" x2="371.2" y2="41.0" stroke="#999" stroke-width="1.63" stroke-opacity="0.8"/><line x1="350.8" y1="46.9" x2="358.1" y2="33.8" stroke="#999" stroke-width="1.63" stroke-opacity="0.8"/><line x1="337.7" y1="39.6" x2="344.9" y2="26.5" stroke="#999" stroke-width="1.63" stroke-opacity="0.8"/><line x1="324.6" y1="32.3" x2="331.8" y2="19.2" stroke="#999" stroke-width="1.63" stroke-opacity="0.8"/><line x1="311.4" y1="25.1" x2="318.7" y2="11.9" stroke="#999" stroke-width="1.63" stroke-opacity="0.8"/><line x1="298.3" y1="17.8" x2="305.6" y2="4.7" stroke="#999" stroke-width="1.63" stroke-opacity="0.8"/><line x1="285.2" y1="10.5" x2="292.5" y2="-2.6" stroke="#999" stroke-width="1.63" stroke-opacity="0.8"/><line x1="272.1" y1="3.2" x2="279.4" y2="-9.9" stroke="#999" stroke-width="1.63" stroke-opacity="0.8"/><line x1="259.0" y1="-4.0" x2="266.2" y2="-17.1" stroke="#999" stroke-width="1.63" stroke-opacity="0.8"/><line x1="223.2" y1="-24.5" x2="230.8" y2="-37.4" stroke="#999" stroke-width="1.63" stroke-opacity="0.8"/><line x1="210.3" y1="-32.1" x2="217.9" y2="-45.0" stroke="#999" stroke-width="1.63" stroke-opacity="0.8"/><line x1="197.4" y1="-39.7" x2="205.0" y2="-52.6" stroke="#999" stroke-width="1.63" stroke-opacity="0.8"/><line x1="184.4" y1="-47.3" x2="192.0" y2="-60.3" stroke="#999" stroke-width="1.63" stroke-opacity="0.8"/><line x1="171.3" y1="-54.6" x2="178.2" y2="-67.9" stroke="#999" stroke-width="1.63" stroke-opacity="0.8"/><line x1="158.0" y1="-61.5" x2="164.9" y2="-74.8" stroke="#999" stroke-width="1.63" stroke-opacity="0.8"/><line x1="144.7" y1="-68.5" x2="151.6" y2="-81.8" stroke="#999" stroke-width="1.63" stroke-opacity="0.8"/><line x1="131.4" y1="-75.4" x2="138.3" y2="-88.7" stroke="#999" stroke-width="1.63" stroke-opacity="0.8"/><line x1="118.1" y1="-82.3" x2="125.0" y2="-95.6" stroke="#999" stroke-width="1.63" stroke-opacity="0.8"/><line x1="104.8" y1="-89.3" x2="111.7" y2="-102.6" stroke="#999" stroke-width="1.63" stroke-opacity="0.8"/><line x1="466.0" y1="119.1" x2="126.2" y2="-106.5" stroke="#d9534f" stroke-width="1.63" stroke-opacity="0.6"/><line x1="450.9" y1="122.2" x2="136.4" y2="-117.4" stroke="#d9534f" stroke-width="1.63" stroke-opacity="0.6"/><line x1="436.5" y1="116.7" x2="139.3" y2="-132.2" stroke="#d9534f" stroke-width="1.63" stroke-opacity="0.6"/><line x1="427.4" y1="104.2" x2="133.8" y2="-146.2" stroke="#d9534f" stroke-width="1.63" stroke-opacity="0.6"/><line x1="96.1" y1="-126.9" x2="94.4" y2="-109.1" stroke="#999" stroke-width="1.63" stroke-opacity="0.8"/><line x1="94.4" y1="-109.1" x2="79.9" y2="-112.8" stroke="#999" stroke-width="1.63" stroke-opacity="0.8"/><line x1="79.9" y1="-112.8" x2="65.3" y2="-116.5" stroke="#999" stroke-width="1.63" stroke-opacity="0.8"/><line x1="65.3" y1="-116.5" x2="50.8" y2="-120.1" stroke="#999" stroke-width="1.63" stroke-opacity="0.8"/><line x1="50.8" y1="-120.1" x2="36.3" y2="-123.8" stroke="#999" stroke-width="1.63" stroke-opacity="0.8"/><line x1="36.3" y1="-123.8" x2="21.7" y2="-127.4" stroke="#999" stroke-width="1.63" stroke-opacity="0.8"/><line x1="21.7" y1="-127.4" x2="17.0" y2="-141.5" stroke="#999" stroke-width="1.63" stroke-opacity="0.8"/><line x1="17.0" y1="-141.5" x2="6.4" y2="-152.0" stroke="#999" stroke-width="1.63" stroke-opacity="0.8"/><line x1="6.4" y1="-152.0" x2="-8.0" y2="-155.7" stroke="#999" stroke-width="1.63" stroke-opacity="0.8"/><line x1="-8.0" y1="-155.7" x2="-22.3" y2="-151.7" stroke="#999" stroke-width="1.63" stroke-opacity="0.8"/><line x1="-22.3" y1="-151.7" x2="-32.9" y2="-141.2" stroke="#999" stroke-width="1.63" stroke-opacity="0.8"/><line x1="-32.9" y1="-141.2" x2="-47.4" y2="-144.9" stroke="#999" stroke-width="1.63" stroke-opacity="0.8"/><line x1="-47.4" y1="-144.9" x2="-62.0" y2="-148.5" stroke="#999" stroke-width="1.63" stroke-opacity="0.8"/><line x1="-62.0" y1="-148.5" x2="-76.5" y2="-152.2" stroke="#999" stroke-width="1.63" stroke-opacity="0.8"/><line x1="-76.5" y1="-152.2" x2="-90.9" y2="-157.6" stroke="#999" stroke-width="1.63" stroke-opacity="0.8"/><line x1="-90.9" y1="-157.6" x2="-106.0" y2="-160.0" stroke="#999" stroke-width="1.63" stroke-opacity="0.8"/><line x1="-106.0" y1="-160.0" x2="-120.5" y2="-164.0" stroke="#999" stroke-width="1.63" stroke-opacity="0.8"/><line x1="-120.5" y1="-164.0" x2="-134.9" y2="-168.1" stroke="#999" stroke-width="1.63" stroke-opacity="0.8"/><line x1="-134.9" y1="-168.1" x2="-149.4" y2="-172.1" stroke="#999" stroke-width="1.63" stroke-opacity="0.8"/><line x1="-149.4" y1="-172.1" x2="-163.8" y2="-176.1" stroke="#999" stroke-width="1.63" stroke-opacity="0.8"/><line x1="-163.8" y1="-176.1" x2="-178.3" y2="-180.2" stroke="#999" stroke-width="1.63" stroke-opacity="0.8"/><line x1="-178.3" y1="-180.2" x2="-187.8" y2="-191.6" stroke="#999" stroke-width="1.63" stroke-opacity="0.8"/><line x1="-187.8" y1="-191.6" x2="-202.6" y2="-193.0" stroke="#999" stroke-width="1.63" stroke-opacity="0.8"/><line x1="-202.6" y1="-193.0" x2="-212.6" y2="-182.0" stroke="#999" stroke-width="1.63" stroke-opacity="0.8"/><line x1="-212.6" y1="-182.0" x2="-209.7" y2="-167.4" stroke="#999" stroke-width="1.63" stroke-opacity="0.8"/><line x1="-209.7" y1="-167.4" x2="-196.4" y2="-160.9" stroke="#999" stroke-width="1.63" stroke-opacity="0.8"/><line x1="-196.4" y1="-160.9" x2="-182.3" y2="-165.7" stroke="#999" stroke-width="1.63" stroke-opacity="0.8"/><line x1="-182.3" y1="-165.7" x2="-167.9" y2="-161.7" stroke="#999" stroke-width="1.63" stroke-opacity="0.8"/><line x1="-167.9" y1="-161.7" x2="-153.4" y2="-157.7" stroke="#999" stroke-width="1.63" stroke-opacity="0.8"/><line x1="-153.4" y1="-157.7" x2="-139.0" y2="-153.6" stroke="#999" stroke-width="1.63" stroke-opacity="0.8"/><line x1="-139.0" y1="-153.6" x2="-124.5" y2="-149.6" stroke="#999" stroke-width="1.63" stroke-opacity="0.8"/><line x1="-124.5" y1="-149.6" x2="-110.1" y2="-145.5" stroke="#999" stroke-width="1.63" stroke-opacity="0.8"/><line x1="-110.1" y1="-145.5" x2="-105.9" y2="-131.3" stroke="#999" stroke-width="1.63" stroke-opacity="0.8"/><line x1="-105.9" y1="-131.3" x2="-91.4" y2="-127.9" stroke="#999" stroke-width="1.63" stroke-opacity="0.8"/><line x1="-91.4" y1="-127.9" x2="-80.2" y2="-137.6" stroke="#999" stroke-width="1.63" stroke-opacity="0.8"/><line x1="-80.2" y1="-137.6" x2="-65.6" y2="-134.0" stroke="#999" stroke-width="1.63" stroke-opacity="0.8"/><line x1="-65.6" y1="-134.0" x2="-51.1" y2="-130.3" stroke="#999" stroke-width="1.63" stroke-opacity="0.8"/><line x1="-51.1" y1="-130.3" x2="-36.5" y2="-126.6" stroke="#999" stroke-width="1.63" stroke-opacity="0.8"/><line x1="-36.5" y1="-126.6" x2="-32.2" y2="-112.4" stroke="#999" stroke-width="1.63" stroke-opacity="0.8"/><line x1="-32.2" y1="-112.4" x2="-21.5" y2="-102.1" stroke="#999" stroke-width="1.63" stroke-opacity="0.8"/><line x1="-21.5" y1="-102.1" x2="-7.1" y2="-98.6" stroke="#999" stroke-width="1.63" stroke-opacity="0.8"/><line x1="-7.1" y1="-98.6" x2="7.2" y2="-102.7" stroke="#999" stroke-width="1.63" stroke-opacity="0.8"/><line x1="7.2" y1="-102.7" x2="18.0" y2="-112.9" stroke="#999" stroke-width="1.63" stroke-opacity="0.8"/><line x1="18.0" y1="-112.9" x2="32.6" y2="-109.2" stroke="#999" stroke-width="1.63" stroke-opacity="0.8"/><line x1="32.6" y1="-109.2" x2="47.1" y2="-105.6" stroke="#999" stroke-width="1.63" stroke-opacity="0.8"/><line x1="47.1" y1="-105.6" x2="61.7" y2="-101.9" stroke="#999" stroke-width="1.63" stroke-opacity="0.8"/><line x1="61.7" y1="-101.9" x2="76.2" y2="-98.3" stroke="#999" stroke-width="1.63" stroke-opacity="0.8"/><line x1="76.2" y1="-98.3" x2="90.8" y2="-94.6" stroke="#999" stroke-width="1.63" stroke-opacity="0.8"/><line x1="90.8" y1="-94.6" x2="104.8" y2="-89.3" stroke="#999" stroke-width="1.63" stroke-opacity="0.8"/><line x1="104.8" y1="-89.3" x2="118.1" y2="-82.3" stroke="#999" stroke-width="1.63" stroke-opacity="0.8"/><line x1="118.1" y1="-82.3" x2="131.4" y2="-75.4" stroke="#999" stroke-width="1.63" stroke-opacity="0.8"/><line x1="131.4" y1="-75.4" x2="144.7" y2="-68.5" stroke="#999" stroke-width="1.63" stroke-opacity="0.8"/><line x1="144.7" y1="-68.5" x2="158.0" y2="-61.5" stroke="#999" stroke-width="1.63" stroke-opacity="0.8"/><line x1="158.0" y1="-61.5" x2="171.3" y2="-54.6" stroke="#999" stroke-width="1.63" stroke-opacity="0.8"/><line x1="171.3" y1="-54.6" x2="184.4" y2="-47.3" stroke="#999" stroke-width="1.63" stroke-opacity="0.8"/><line x1="184.4" y1="-47.3" x2="197.4" y2="-39.7" stroke="#999" stroke-width="1.63" stroke-opacity="0.8"/><line x1="197.4" y1="-39.7" x2="210.3" y2="-32.1" stroke="#999" stroke-width="1.63" stroke-opacity="0.8"/><line x1="210.3" y1="-32.1" x2="223.2" y2="-24.5" stroke="#999" stroke-width="1.63" stroke-opacity="0.8"/><line x1="223.2" y1="-24.5" x2="222.2" y2="-9.7" stroke="#999" stroke-width="1.63" stroke-opacity="0.8"/><line x1="222.2" y1="-9.7" x2="232.8" y2="0.8" stroke="#999" stroke-width="1.63" stroke-opacity="0.8"/><line x1="232.8" y1="0.8" x2="247.1" y2="4.9" stroke="#999" stroke-width="1.63" stroke-opacity="0.8"/><line x1="247.1" y1="4.9" x2="259.0" y2="-4.0" stroke="#999" stroke-width="1.63" stroke-opacity="0.8"/><line x1="259.0" y1="-4.0" x2="272.1" y2="3.2" stroke="#999" stroke-width="1.63" stroke-opacity="0.8"/><line x1="272.1" y1="3.2" x2="285.2" y2="10.5" stroke="#999" stroke-width="1.63" stroke-opacity="0.8"/><line x1="285.2" y1="10.5" x2="298.3" y2="17.8" stroke="#999" stroke-width="1.63" stroke-opacity="0.8"/><line x1="298.3" y1="17.8" x2="311.4" y2="25.1" stroke="#999" stroke-width="1.63" stroke-opacity="0.8"/><line x1="311.4" y1="25.1" x2="324.6" y2="32.3" stroke="#999" stroke-width="1.63" stroke-opacity="0.8"/><line x1="324.6" y1="32.3" x2="337.7" y2="39.6" stroke="#999" stroke-width="1.63" stroke-opacity="0.8"/><line x1="337.7" y1="39.6" x2="350.8" y2="46.9" stroke="#999" stroke-width="1.63" stroke-opacity="0.8"/><line x1="350.8" y1="46.9" x2="363.9" y2="54.2" stroke="#999" stroke-width="1.63" stroke-opacity="0.8"/><line x1="363.9" y1="54.2" x2="377.0" y2="61.4" stroke="#999" stroke-width="1.63" stroke-opacity="0.8"/><line x1="377.0" y1="61.4" x2="390.1" y2="68.7" stroke="#999" stroke-width="1.63" stroke-opacity="0.8"/><line x1="390.1" y1="68.7" x2="398.5" y2="81.0" stroke="#999" stroke-width="1.63" stroke-opacity="0.8"/><line x1="398.5" y1="81.0" x2="413.3" y2="81.6" stroke="#999" stroke-width="1.63" stroke-opacity="0.8"/><line x1="413.3" y1="81.6" x2="426.5" y2="88.8" stroke="#999" stroke-width="1.63" stroke-opacity="0.8"/><line x1="426.5" y1="88.8" x2="427.4" y2="104.2" stroke="#999" stroke-width="1.63" stroke-opacity="0.8"/><line x1="427.4" y1="104.2" x2="436.5" y2="116.7" stroke="#999" stroke-width="1.63" stroke-opacity="0.8"/><line x1="436.5" y1="116.7" x2="450.9" y2="122.2" stroke="#999" stroke-width="1.63" stroke-opacity="0.8"/><line x1="450.9" y1="122.2" x2="466.0" y2="119.1" stroke="#999" stroke-width="1.63" stroke-opacity="0.8"/><line x1="466.0" y1="119.1" x2="475.8" y2="107.9" stroke="#999" stroke-width="1.63" stroke-opacity="0.8"/><line x1="475.8" y1="107.9" x2="479.1" y2="93.4" stroke="#999" stroke-width="1.63" stroke-opacity="0.8"/><line x1="479.1" y1="93.4" x2="474.0" y2="79.4" stroke="#999" stroke-width="1.63" stroke-opacity="0.8"/><line x1="474.0" y1="79.4" x2="462.1" y2="70.5" stroke="#999" stroke-width="1.63" stroke-opacity="0.8"/><line x1="462.1" y1="70.5" x2="447.3" y2="69.6" stroke="#999" stroke-width="1.63" stroke-opacity="0.8"/><line x1="447.3" y1="69.6" x2="433.7" y2="75.7" stroke="#999" stroke-width="1.63" stroke-opacity="0.8"/><line x1="433.7" y1="75.7" x2="420.6" y2="68.5" stroke="#999" stroke-width="1.63" stroke-opacity="0.8"/><line x1="420.6" y1="68.5" x2="412.3" y2="56.2" stroke="#999" stroke-width="1.63" stroke-opacity="0.8"/><line x1="412.3" y1="56.2" x2="397.4" y2="55.6" stroke="#999" stroke-width="1.63" stroke-opacity="0.8"/><line x1="397.4" y1="55.6" x2="384.3" y2="48.3" stroke="#999" stroke-width="1.63" stroke-opacity="0.8"/><line x1="384.3" y1="48.3" x2="371.2" y2="41.0" stroke="#999" stroke-width="1.63" stroke-opacity="0.8"/><line x1="371.2" y1="41.0" x2="358.1" y2="33.8" stroke="#999" stroke-width="1.63" stroke-opacity="0.8"/><line x1="358.1" y1="33.8" x2="344.9" y2="26.5" stroke="#999" stroke-width="1.63" stroke-opacity="0.8"/><line x1="344.9" y1="26.5" x2="331.8" y2="19.2" stroke="#999" stroke-width="1.63" stroke-opacity="0.8"/><line x1="331.8" y1="19.2" x2="318.7" y2="11.9" stroke="#999" stroke-width="1.63" stroke-opacity="0.8"/><line x1="318.7" y1="11.9" x2="305.6" y2="4.7" stroke="#999" stroke-width="1.63" stroke-opacity="0.8"/><line x1="305.6" y1="4.7" x2="292.5" y2="-2.6" stroke="#999" stroke-width="1.63" stroke-opacity="0.8"/><line x1="292.5" y1="-2.6" x2="279.4" y2="-9.9" stroke="#999" stroke-width="1.63" stroke-opacity="0.8"/><line x1="279.4" y1="-9.9" x2="266.2" y2="-17.1" stroke="#999" stroke-width="1.63" stroke-opacity="0.8"/><line x1="266.2" y1="-17.1" x2="258.8" y2="-30.1" stroke="#999" stroke-width="1.63" stroke-opacity="0.8"/><line x1="258.8" y1="-30.1" x2="245.7" y2="-37.4" stroke="#999" stroke-width="1.63" stroke-opacity="0.8"/><line x1="245.7" y1="-37.4" x2="230.8" y2="-37.4" stroke="#999" stroke-width="1.63" stroke-opacity="0.8"/><line x1="230.8" y1="-37.4" x2="217.9" y2="-45.0" stroke="#999" stroke-width="1.63" stroke-opacity="0.8"/><line x1="217.9" y1="-45.0" x2="205.0" y2="-52.6" stroke="#999" stroke-width="1.63" stroke-opacity="0.8"/><line x1="205.0" y1="-52.6" x2="192.0" y2="-60.3" stroke="#999" stroke-width="1.63" stroke-opacity="0.8"/><line x1="192.0" y1="-60.3" x2="199.0" y2="-73.7" stroke="#999" stroke-width="1.63" stroke-opacity="0.8"/><line x1="199.0" y1="-73.7" x2="185.9" y2="-80.9" stroke="#999" stroke-width="1.63" stroke-opacity="0.8"/><line x1="185.9" y1="-80.9" x2="178.2" y2="-67.9" stroke="#999" stroke-width="1.63" stroke-opacity="0.8"/><line x1="178.2" y1="-67.9" x2="164.9" y2="-74.8" stroke="#999" stroke-width="1.63" stroke-opacity="0.8"/><line x1="164.9" y1="-74.8" x2="151.6" y2="-81.8" stroke="#999" stroke-width="1.63" stroke-opacity="0.8"/><line x1="151.6" y1="-81.8" x2="138.3" y2="-88.7" stroke="#999" stroke-width="1.63" stroke-opacity="0.8"/><line x1="138.3" y1="-88.7" x2="125.0" y2="-95.6" stroke="#999" stroke-width="1.63" stroke-opacity="0.8"/><line x1="125.0" y1="-95.6" x2="111.7" y2="-102.6" stroke="#999" stroke-width="1.63" stroke-opacity="0.8"/><line x1="111.7" y1="-102.6" x2="126.2" y2="-106.5" stroke="#999" stroke-width="1.63" stroke-opacity="0.8"/><line x1="126.2" y1="-106.5" x2="136.4" y2="-117.4" stroke="#999" stroke-width="1.63" stroke-opacity="0.8"/><line x1="136.4" y1="-117.4" x2="139.3" y2="-132.2" stroke="#999" stroke-width="1.63" stroke-opacity="0.8"/><line x1="139.3" y1="-132.2" x2="133.8" y2="-146.2" stroke="#999" stroke-width="1.63" stroke-opacity="0.8"/><line x1="133.8" y1="-146.2" x2="117.1" y2="-148.9" stroke="#999" stroke-width="1.63" stroke-opacity="0.8"/><line x1="117.1" y1="-148.9" x2="100.0" y2="-149.2" stroke="#999" stroke-width="1.63" stroke-opacity="0.8"/><line x1="100.0" y1="-149.2" x2="82.7" y2="-147.6" stroke="#999" stroke-width="1.63" stroke-opacity="0.8"/><text x="78.4" y="-125.9" text-anchor="middle" font-size="7.7" font-family="Tahoma,Geneva,sans-serif" fill="#999">1</text><text x="-8.2" y="-170.8" text-anchor="middle" font-size="7.7" font-family="Tahoma,Geneva,sans-serif" fill="#999">10</text><text x="-144.6" y="-186.6" text-anchor="middle" font-size="7.7" font-family="Tahoma,Geneva,sans-serif" fill="#999">20</text><text x="-158.2" y="-137.8" text-anchor="middle" font-size="7.7" font-family="Tahoma,Geneva,sans-serif" fill="#999">30</text><text x="-47.4" y="-100.4" text-anchor="middle" font-size="7.7" font-family="Tahoma,Geneva,sans-serif" fill="#999">40</text><text x="97.5" y="-70.3" text-anchor="middle" font-size="7.7" font-family="Tahoma,Geneva,sans-serif" fill="#999">50</text><text x="205.6" y="-0.6" text-anchor="middle" font-size="7.7" font-family="Tahoma,Geneva,sans-serif" fill="#999">60</text><text x="342.1" y="65.2" text-anchor="middle" font-size="7.7" font-family="Tahoma,Geneva,sans-serif" fill="#999">70</text><text x="474.9" y="137.3" text-anchor="middle" font-size="7.7" font-family="Tahoma,Geneva,sans-serif" fill="#999">80</text><text x="392.9" y="35.4" text-anchor="middle" font-size="7.7" font-family="Tahoma,Geneva,sans-serif" fill="#999">90</text><text x="271.3" y="-40.1" text-anchor="middle" font-size="7.7" font-family="Tahoma,Geneva,sans-serif" fill="#999">100</text><text x="159.9" y="-94.9" text-anchor="middle" font-size="7.7" font-family="Tahoma,Geneva,sans-serif" fill="#999">110</text><text x="81.0" y="-162.6" text-anchor="middle" font-size="7.7" font-family="Tahoma,Geneva,sans-serif" fill="#999">120</text><circle cx="96.1" cy="-126.9" r="4.46" fill="lightsalmon" stroke="#ccc" stroke-width="1.63"/><text x="96.1" y="-124.7" text-anchor="middle" font-size="5.6" font-family="Tahoma,Geneva,sans-serif" font-weight="bold" fill="rgb(100,100,100)">G</text><circle cx="94.4" cy="-109.1" r="4.46" fill="lightgreen" stroke="#ccc" stroke-width="1.63"/><text x="94.4" y="-106.9" text-anchor="middle" font-size="5.6" font-family="Tahoma,Geneva,sans-serif" font-weight="bold" fill="rgb(100,100,100)">U</text><circle cx="79.9" cy="-112.8" r="4.46" fill="lightgreen" stroke="#ccc" stroke-width="1.63"/><text x="79.9" y="-110.6" text-anchor="middle" font-size="5.6" font-family="Tahoma,Geneva,sans-serif" font-weight="bold" fill="rgb(100,100,100)">G</text><circle cx="65.3" cy="-116.5" r="4.46" fill="lightgreen" stroke="#ccc" stroke-width="1.63"/><text x="65.3" y="-114.2" text-anchor="middle" font-size="5.6" font-family="Tahoma,Geneva,sans-serif" font-weight="bold" fill="rgb(100,100,100)">U</text><circle cx="50.8" cy="-120.1" r="4.46" fill="lightgreen" stroke="#ccc" stroke-width="1.63"/><text x="50.8" y="-117.9" text-anchor="middle" font-size="5.6" font-family="Tahoma,Geneva,sans-serif" font-weight="bold" fill="rgb(100,100,100)">G</text><circle cx="36.3" cy="-123.8" r="4.46" fill="lightgreen" stroke="#ccc" stroke-width="1.63"/><text x="36.3" y="-121.6" text-anchor="middle" font-size="5.6" font-family="Tahoma,Geneva,sans-serif" font-weight="bold" fill="rgb(100,100,100)">C</text><circle cx="21.7" cy="-127.4" r="4.46" fill="lightgreen" stroke="#ccc" stroke-width="1.63"/><text x="21.7" y="-125.2" text-anchor="middle" font-size="5.6" font-family="Tahoma,Geneva,sans-serif" font-weight="bold" fill="rgb(100,100,100)">U</text><circle cx="17.0" cy="-141.5" r="4.46" fill="#dbdb8d" stroke="#ccc" stroke-width="1.63"/><text x="17.0" y="-139.3" text-anchor="middle" font-size="5.6" font-family="Tahoma,Geneva,sans-serif" font-weight="bold" fill="rgb(100,100,100)">G</text><circle cx="6.4" cy="-152.0" r="4.46" fill="#dbdb8d" stroke="#ccc" stroke-width="1.63"/><text x="6.4" y="-149.7" text-anchor="middle" font-size="5.6" font-family="Tahoma,Geneva,sans-serif" font-weight="bold" fill="rgb(100,100,100)">U</text><circle cx="-8.0" cy="-155.7" r="4.46" fill="#dbdb8d" stroke="#ccc" stroke-width="1.63"/><text x="-8.0" y="-153.5" text-anchor="middle" font-size="5.6" font-family="Tahoma,Geneva,sans-serif" font-weight="bold" fill="rgb(100,100,100)">U</text><circle cx="-22.3" cy="-151.7" r="4.46" fill="#dbdb8d" stroke="#ccc" stroke-width="1.63"/><text x="-22.3" y="-149.4" text-anchor="middle" font-size="5.6" font-family="Tahoma,Geneva,sans-serif" font-weight="bold" fill="rgb(100,100,100)">G</text><circle cx="-32.9" cy="-141.2" r="4.46" fill="lightgreen" stroke="#ccc" stroke-width="1.63"/><text x="-32.9" y="-139.0" text-anchor="middle" font-size="5.6" font-family="Tahoma,Geneva,sans-serif" font-weight="bold" fill="rgb(100,100,100)">G</text><circle cx="-47.4" cy="-144.9" r="4.46" fill="lightgreen" stroke="#ccc" stroke-width="1.63"/><text x="-47.4" y="-142.6" text-anchor="middle" font-size="5.6" font-family="Tahoma,Geneva,sans-serif" font-weight="bold" fill="rgb(100,100,100)">C</text><circle cx="-62.0" cy="-148.5" r="4.46" fill="lightgreen" stroke="#ccc" stroke-width="1.63"/><text x="-62.0" y="-146.3" text-anchor="middle" font-size="5.6" font-family="Tahoma,Geneva,sans-serif" font-weight="bold" fill="rgb(100,100,100)">C</text><circle cx="-76.5" cy="-152.2" r="4.46" fill="lightgreen" stroke="#ccc" stroke-width="1.63"/><text x="-76.5" y="-149.9" text-anchor="middle" font-size="5.6" font-family="Tahoma,Geneva,sans-serif" font-weight="bold" fill="rgb(100,100,100)">G</text><circle cx="-90.9" cy="-157.6" r="4.46" fill="#dbdb8d" stroke="#ccc" stroke-width="1.63"/><text x="-90.9" y="-155.4" text-anchor="middle" font-size="5.6" font-family="Tahoma,Geneva,sans-serif" font-weight="bold" fill="rgb(100,100,100)">C</text><circle cx="-106.0" cy="-160.0" r="4.46" fill="lightgreen" stroke="#ccc" stroke-width="1.63"/><text x="-106.0" y="-157.8" text-anchor="middle" font-size="5.6" font-family="Tahoma,Geneva,sans-serif" font-weight="bold" fill="rgb(100,100,100)">A</text><circle cx="-120.5" cy="-164.0" r="4.46" fill="lightgreen" stroke="#ccc" stroke-width="1.63"/><text x="-120.5" y="-161.8" text-anchor="middle" font-size="5.6" font-family="Tahoma,Geneva,sans-serif" font-weight="bold" fill="rgb(100,100,100)">U</text><circle cx="-134.9" cy="-168.1" r="4.46" fill="lightgreen" stroke="#ccc" stroke-width="1.63"/><text x="-134.9" y="-165.8" text-anchor="middle" font-size="5.6" font-family="Tahoma,Geneva,sans-serif" font-weight="bold" fill="rgb(100,100,100)">U</text><circle cx="-149.4" cy="-172.1" r="4.46" fill="lightgreen" stroke="#ccc" stroke-width="1.63"/><text x="-149.4" y="-169.9" text-anchor="middle" font-size="5.6" font-family="Tahoma,Geneva,sans-serif" font-weight="bold" fill="rgb(100,100,100)">G</text><circle cx="-163.8" cy="-176.1" r="4.46" fill="lightgreen" stroke="#ccc" stroke-width="1.63"/><text x="-163.8" y="-173.9" text-anchor="middle" font-size="5.6" font-family="Tahoma,Geneva,sans-serif" font-weight="bold" fill="rgb(100,100,100)">G</text><circle cx="-178.3" cy="-180.2" r="4.46" fill="lightgreen" stroke="#ccc" stroke-width="1.63"/><text x="-178.3" y="-178.0" text-anchor="middle" font-size="5.6" font-family="Tahoma,Geneva,sans-serif" font-weight="bold" fill="rgb(100,100,100)">U</text><circle cx="-187.8" cy="-191.6" r="4.46" fill="lightblue" stroke="#ccc" stroke-width="1.63"/><text x="-187.8" y="-189.4" text-anchor="middle" font-size="5.6" font-family="Tahoma,Geneva,sans-serif" font-weight="bold" fill="rgb(100,100,100)">U</text><circle cx="-202.6" cy="-193.0" r="4.46" fill="lightblue" stroke="#ccc" stroke-width="1.63"/><text x="-202.6" y="-190.8" text-anchor="middle" font-size="5.6" font-family="Tahoma,Geneva,sans-serif" font-weight="bold" fill="rgb(100,100,100)">A</text><circle cx="-212.6" cy="-182.0" r="4.46" fill="lightblue" stroke="#ccc" stroke-width="1.63"/><text x="-212.6" y="-179.8" text-anchor="middle" font-size="5.6" font-family="Tahoma,Geneva,sans-serif" font-weight="bold" fill="rgb(100,100,100)">U</text><circle cx="-209.7" cy="-167.4" r="4.46" fill="lightblue" stroke="#ccc" stroke-width="1.63"/><text x="-209.7" y="-165.2" text-anchor="middle" font-size="5.6" font-family="Tahoma,Geneva,sans-serif" font-weight="bold" fill="rgb(100,100,100)">A</text><circle cx="-196.4" cy="-160.9" r="4.46" fill="lightblue" stroke="#ccc" stroke-width="1.63"/><text x="-196.4" y="-158.7" text-anchor="middle" font-size="5.6" font-family="Tahoma,Geneva,sans-serif" font-weight="bold" fill="rgb(100,100,100)">U</text><circle cx="-182.3" cy="-165.7" r="4.46" fill="lightgreen" stroke="#ccc" stroke-width="1.63"/><text x="-182.3" y="-163.5" text-anchor="middle" font-size="5.6" font-family="Tahoma,Geneva,sans-serif" font-weight="bold" fill="rgb(100,100,100)">A</text><circle cx="-167.9" cy="-161.7" r="4.46" fill="lightgreen" stroke="#ccc" stroke-width="1.63"/><text x="-167.9" y="-159.5" text-anchor="middle" font-size="5.6" font-family="Tahoma,Geneva,sans-serif" font-weight="bold" fill="rgb(100,100,100)">C</text><circle cx="-153.4" cy="-157.7" r="4.46" fill="lightgreen" stroke="#ccc" stroke-width="1.63"/><text x="-153.4" y="-155.4" text-anchor="middle" font-size="5.6" font-family="Tahoma,Geneva,sans-serif" font-weight="bold" fill="rgb(100,100,100)">C</text><circle cx="-139.0" cy="-153.6" r="4.46" fill="lightgreen" stroke="#ccc" stroke-width="1.63"/><text x="-139.0" y="-151.4" text-anchor="middle" font-size="5.6" font-family="Tahoma,Geneva,sans-serif" font-weight="bold" fill="rgb(100,100,100)">A</text><circle cx="-124.5" cy="-149.6" r="4.46" fill="lightgreen" stroke="#ccc" stroke-width="1.63"/><text x="-124.5" y="-147.4" text-anchor="middle" font-size="5.6" font-family="Tahoma,Geneva,sans-serif" font-weight="bold" fill="rgb(100,100,100)">A</text><circle cx="-110.1" cy="-145.5" r="4.46" fill="lightgreen" stroke="#ccc" stroke-width="1.63"/><text x="-110.1" y="-143.3" text-anchor="middle" font-size="5.6" font-family="Tahoma,Geneva,sans-serif" font-weight="bold" fill="rgb(100,100,100)">U</text><circle cx="-105.9" cy="-131.3" r="4.46" fill="#dbdb8d" stroke="#ccc" stroke-width="1.63"/><text x="-105.9" y="-129.1" text-anchor="middle" font-size="5.6" font-family="Tahoma,Geneva,sans-serif" font-weight="bold" fill="rgb(100,100,100)">A</text><circle cx="-91.4" cy="-127.9" r="4.46" fill="#dbdb8d" stroke="#ccc" stroke-width="1.63"/><text x="-91.4" y="-125.7" text-anchor="middle" font-size="5.6" font-family="Tahoma,Geneva,sans-serif" font-weight="bold" fill="rgb(100,100,100)">A</text><circle cx="-80.2" cy="-137.6" r="4.46" fill="lightgreen" stroke="#ccc" stroke-width="1.63"/><text x="-80.2" y="-135.4" text-anchor="middle" font-size="5.6" font-family="Tahoma,Geneva,sans-serif" font-weight="bold" fill="rgb(100,100,100)">C</text><circle cx="-65.6" cy="-134.0" r="4.46" fill="lightgreen" stroke="#ccc" stroke-width="1.63"/><text x="-65.6" y="-131.7" text-anchor="middle" font-size="5.6" font-family="Tahoma,Geneva,sans-serif" font-weight="bold" fill="rgb(100,100,100)">G</text><circle cx="-51.1" cy="-130.3" r="4.46" fill="lightgreen" stroke="#ccc" stroke-width="1.63"/><text x="-51.1" y="-128.1" text-anchor="middle" font-size="5.6" font-family="Tahoma,Geneva,sans-serif" font-weight="bold" fill="rgb(100,100,100)">G</text><circle cx="-36.5" cy="-126.6" r="4.46" fill="lightgreen" stroke="#ccc" stroke-width="1.63"/><text x="-36.5" y="-124.4" text-anchor="middle" font-size="5.6" font-family="Tahoma,Geneva,sans-serif" font-weight="bold" fill="rgb(100,100,100)">C</text><circle cx="-32.2" cy="-112.4" r="4.46" fill="#dbdb8d" stroke="#ccc" stroke-width="1.63"/><text x="-32.2" y="-110.2" text-anchor="middle" font-size="5.6" font-family="Tahoma,Geneva,sans-serif" font-weight="bold" fill="rgb(100,100,100)">A</text><circle cx="-21.5" cy="-102.1" r="4.46" fill="#dbdb8d" stroke="#ccc" stroke-width="1.63"/><text x="-21.5" y="-99.9" text-anchor="middle" font-size="5.6" font-family="Tahoma,Geneva,sans-serif" font-weight="bold" fill="rgb(100,100,100)">U</text><circle cx="-7.1" cy="-98.6" r="4.46" fill="#dbdb8d" stroke="#ccc" stroke-width="1.63"/><text x="-7.1" y="-96.3" text-anchor="middle" font-size="5.6" font-family="Tahoma,Geneva,sans-serif" font-weight="bold" fill="rgb(100,100,100)">U</text><circle cx="7.2" cy="-102.7" r="4.46" fill="#dbdb8d" stroke="#ccc" stroke-width="1.63"/><text x="7.2" y="-100.5" text-anchor="middle" font-size="5.6" font-family="Tahoma,Geneva,sans-serif" font-weight="bold" fill="rgb(100,100,100)">A</text><circle cx="18.0" cy="-112.9" r="4.46" fill="lightgreen" stroke="#ccc" stroke-width="1.63"/><text x="18.0" y="-110.7" text-anchor="middle" font-size="5.6" font-family="Tahoma,Geneva,sans-serif" font-weight="bold" fill="rgb(100,100,100)">A</text><circle cx="32.6" cy="-109.2" r="4.46" fill="lightgreen" stroke="#ccc" stroke-width="1.63"/><text x="32.6" y="-107.0" text-anchor="middle" font-size="5.6" font-family="Tahoma,Geneva,sans-serif" font-weight="bold" fill="rgb(100,100,100)">G</text><circle cx="47.1" cy="-105.6" r="4.46" fill="lightgreen" stroke="#ccc" stroke-width="1.63"/><text x="47.1" y="-103.3" text-anchor="middle" font-size="5.6" font-family="Tahoma,Geneva,sans-serif" font-weight="bold" fill="rgb(100,100,100)">U</text><circle cx="61.7" cy="-101.9" r="4.46" fill="lightgreen" stroke="#ccc" stroke-width="1.63"/><text x="61.7" y="-99.7" text-anchor="middle" font-size="5.6" font-family="Tahoma,Geneva,sans-serif" font-weight="bold" fill="rgb(100,100,100)">A</text><circle cx="76.2" cy="-98.3" r="4.46" fill="lightgreen" stroke="#ccc" stroke-width="1.63"/><text x="76.2" y="-96.0" text-anchor="middle" font-size="5.6" font-family="Tahoma,Geneva,sans-serif" font-weight="bold" fill="rgb(100,100,100)">C</text><circle cx="90.8" cy="-94.6" r="4.46" fill="lightgreen" stroke="#ccc" stroke-width="1.63"/><text x="90.8" y="-92.4" text-anchor="middle" font-size="5.6" font-family="Tahoma,Geneva,sans-serif" font-weight="bold" fill="rgb(100,100,100)">A</text><circle cx="104.8" cy="-89.3" r="4.46" fill="lightgreen" stroke="#ccc" stroke-width="1.63"/><text x="104.8" y="-87.0" text-anchor="middle" font-size="5.6" font-family="Tahoma,Geneva,sans-serif" font-weight="bold" fill="rgb(100,100,100)">U</text><circle cx="118.1" cy="-82.3" r="4.46" fill="lightgreen" stroke="#ccc" stroke-width="1.63"/><text x="118.1" y="-80.1" text-anchor="middle" font-size="5.6" font-family="Tahoma,Geneva,sans-serif" font-weight="bold" fill="rgb(100,100,100)">C</text><circle cx="131.4" cy="-75.4" r="4.46" fill="lightgreen" stroke="#ccc" stroke-width="1.63"/><text x="131.4" y="-73.2" text-anchor="middle" font-size="5.6" font-family="Tahoma,Geneva,sans-serif" font-weight="bold" fill="rgb(100,100,100)">C</text><circle cx="144.7" cy="-68.5" r="4.46" fill="lightgreen" stroke="#ccc" stroke-width="1.63"/><text x="144.7" y="-66.2" text-anchor="middle" font-size="5.6" font-family="Tahoma,Geneva,sans-serif" font-weight="bold" fill="rgb(100,100,100)">A</text><circle cx="158.0" cy="-61.5" r="4.46" fill="lightgreen" stroke="#ccc" stroke-width="1.63"/><text x="158.0" y="-59.3" text-anchor="middle" font-size="5.6" font-family="Tahoma,Geneva,sans-serif" font-weight="bold" fill="rgb(100,100,100)">G</text><circle cx="171.3" cy="-54.6" r="4.46" fill="lightgreen" stroke="#ccc" stroke-width="1.63"/><text x="171.3" y="-52.4" text-anchor="middle" font-size="5.6" font-family="Tahoma,Geneva,sans-serif" font-weight="bold" fill="rgb(100,100,100)">C</text><circle cx="184.4" cy="-47.3" r="4.46" fill="lightgreen" stroke="#ccc" stroke-width="1.63"/><text x="184.4" y="-45.1" text-anchor="middle" font-size="5.6" font-family="Tahoma,Geneva,sans-serif" font-weight="bold" fill="rgb(100,100,100)">A</text><circle cx="197.4" cy="-39.7" r="4.46" fill="lightgreen" stroke="#ccc" stroke-width="1.63"/><text x="197.4" y="-37.5" text-anchor="middle" font-size="5.6" font-family="Tahoma,Geneva,sans-serif" font-weight="bold" fill="rgb(100,100,100)">G</text><circle cx="210.3" cy="-32.1" r="4.46" fill="lightgreen" stroke="#ccc" stroke-width="1.63"/><text x="210.3" y="-29.9" text-anchor="middle" font-size="5.6" font-family="Tahoma,Geneva,sans-serif" font-weight="bold" fill="rgb(100,100,100)">G</text><circle cx="223.2" cy="-24.5" r="4.46" fill="lightgreen" stroke="#ccc" stroke-width="1.63"/><text x="223.2" y="-22.3" text-anchor="middle" font-size="5.6" font-family="Tahoma,Geneva,sans-serif" font-weight="bold" fill="rgb(100,100,100)">U</text><circle cx="222.2" cy="-9.7" r="4.46" fill="#dbdb8d" stroke="#ccc" stroke-width="1.63"/><text x="222.2" y="-7.4" text-anchor="middle" font-size="5.6" font-family="Tahoma,Geneva,sans-serif" font-weight="bold" fill="rgb(100,100,100)">G</text><circle cx="232.8" cy="0.8" r="4.46" fill="#dbdb8d" stroke="#ccc" stroke-width="1.63"/><text x="232.8" y="3.0" text-anchor="middle" font-size="5.6" font-family="Tahoma,Geneva,sans-serif" font-weight="bold" fill="rgb(100,100,100)">A</text><circle cx="247.1" cy="4.9" r="4.46" fill="#dbdb8d" stroke="#ccc" stroke-width="1.63"/><text x="247.1" y="7.1" text-anchor="middle" font-size="5.6" font-family="Tahoma,Geneva,sans-serif" font-weight="bold" fill="rgb(100,100,100)">C</text><circle cx="259.0" cy="-4.0" r="4.46" fill="lightgreen" stroke="#ccc" stroke-width="1.63"/><text x="259.0" y="-1.8" text-anchor="middle" font-size="5.6" font-family="Tahoma,Geneva,sans-serif" font-weight="bold" fill="rgb(100,100,100)">G</text><circle cx="272.1" cy="3.2" r="4.46" fill="lightgreen" stroke="#ccc" stroke-width="1.63"/><text x="272.1" y="5.5" text-anchor="middle" font-size="5.6" font-family="Tahoma,Geneva,sans-serif" font-weight="bold" fill="rgb(100,100,100)">U</text><circle cx="285.2" cy="10.5" r="4.46" fill="lightgreen" stroke="#ccc" stroke-width="1.63"/><text x="285.2" y="12.7" text-anchor="middle" font-size="5.6" font-family="Tahoma,Geneva,sans-serif" font-weight="bold" fill="rgb(100,100,100)">U</text><circle cx="298.3" cy="17.8" r="4.46" fill="lightgreen" stroke="#ccc" stroke-width="1.63"/><text x="298.3" y="20.0" text-anchor="middle" font-size="5.6" font-family="Tahoma,Geneva,sans-serif" font-weight="bold" fill="rgb(100,100,100)">C</text><circle cx="311.4" cy="25.1" r="4.46" fill="lightgreen" stroke="#ccc" stroke-width="1.63"/><text x="311.4" y="27.3" text-anchor="middle" font-size="5.6" font-family="Tahoma,Geneva,sans-serif" font-weight="bold" fill="rgb(100,100,100)">U</text><circle cx="324.6" cy="32.3" r="4.46" fill="lightgreen" stroke="#ccc" stroke-width="1.63"/><text x="324.6" y="34.6" text-anchor="middle" font-size="5.6" font-family="Tahoma,Geneva,sans-serif" font-weight="bold" fill="rgb(100,100,100)">U</text><circle cx="337.7" cy="39.6" r="4.46" fill="lightgreen" stroke="#ccc" stroke-width="1.63"/><text x="337.7" y="41.8" text-anchor="middle" font-size="5.6" font-family="Tahoma,Geneva,sans-serif" font-weight="bold" fill="rgb(100,100,100)">C</text><circle cx="350.8" cy="46.9" r="4.46" fill="lightgreen" stroke="#ccc" stroke-width="1.63"/><text x="350.8" y="49.1" text-anchor="middle" font-size="5.6" font-family="Tahoma,Geneva,sans-serif" font-weight="bold" fill="rgb(100,100,100)">U</text><circle cx="363.9" cy="54.2" r="4.46" fill="lightgreen" stroke="#ccc" stroke-width="1.63"/><text x="363.9" y="56.4" text-anchor="middle" font-size="5.6" font-family="Tahoma,Geneva,sans-serif" font-weight="bold" fill="rgb(100,100,100)">U</text><circle cx="377.0" cy="61.4" r="4.46" fill="lightgreen" stroke="#ccc" stroke-width="1.63"/><text x="377.0" y="63.7" text-anchor="middle" font-size="5.6" font-family="Tahoma,Geneva,sans-serif" font-weight="bold" fill="rgb(100,100,100)">C</text><circle cx="390.1" cy="68.7" r="4.46" fill="lightgreen" stroke="#ccc" stroke-width="1.63"/><text x="390.1" y="70.9" text-anchor="middle" font-size="5.6" font-family="Tahoma,Geneva,sans-serif" font-weight="bold" fill="rgb(100,100,100)">A</text><circle cx="398.5" cy="81.0" r="4.46" fill="#dbdb8d" stroke="#ccc" stroke-width="1.63"/><text x="398.5" y="83.2" text-anchor="middle" font-size="5.6" font-family="Tahoma,Geneva,sans-serif" font-weight="bold" fill="rgb(100,100,100)">C</text><circle cx="413.3" cy="81.6" r="4.46" fill="lightgreen" stroke="#ccc" stroke-width="1.63"/><text x="413.3" y="83.8" text-anchor="middle" font-size="5.6" font-family="Tahoma,Geneva,sans-serif" font-weight="bold" fill="rgb(100,100,100)">G</text><circle cx="426.5" cy="88.8" r="4.46" fill="lightgreen" stroke="#ccc" stroke-width="1.63"/><text x="426.5" y="91.1" text-anchor="middle" font-size="5.6" font-family="Tahoma,Geneva,sans-serif" font-weight="bold" fill="rgb(100,100,100)">G</text><circle cx="427.4" cy="104.2" r="4.46" fill="lightgreen" stroke="#ccc" stroke-width="1.63"/><text x="427.4" y="106.5" text-anchor="middle" font-size="5.6" font-family="Tahoma,Geneva,sans-serif" font-weight="bold" fill="rgb(100,100,100)">A</text><circle cx="436.5" cy="116.7" r="4.46" fill="lightgreen" stroke="#ccc" stroke-width="1.63"/><text x="436.5" y="118.9" text-anchor="middle" font-size="5.6" font-family="Tahoma,Geneva,sans-serif" font-weight="bold" fill="rgb(100,100,100)">U</text><circle cx="450.9" cy="122.2" r="4.46" fill="lightgreen" stroke="#ccc" stroke-width="1.63"/><text x="450.9" y="124.5" text-anchor="middle" font-size="5.6" font-family="Tahoma,Geneva,sans-serif" font-weight="bold" fill="rgb(100,100,100)">G</text><circle cx="466.0" cy="119.1" r="4.46" fill="lightgreen" stroke="#ccc" stroke-width="1.63"/><text x="466.0" y="121.3" text-anchor="middle" font-size="5.6" font-family="Tahoma,Geneva,sans-serif" font-weight="bold" fill="rgb(100,100,100)">A</text><circle cx="475.8" cy="107.9" r="4.46" fill="lightblue" stroke="#ccc" stroke-width="1.63"/><text x="475.8" y="110.1" text-anchor="middle" font-size="5.6" font-family="Tahoma,Geneva,sans-serif" font-weight="bold" fill="rgb(100,100,100)">A</text><circle cx="479.1" cy="93.4" r="4.46" fill="lightblue" stroke="#ccc" stroke-width="1.63"/><text x="479.1" y="95.6" text-anchor="middle" font-size="5.6" font-family="Tahoma,Geneva,sans-serif" font-weight="bold" fill="rgb(100,100,100)">U</text><circle cx="474.0" cy="79.4" r="4.46" fill="lightblue" stroke="#ccc" stroke-width="1.63"/><text x="474.0" y="81.7" text-anchor="middle" font-size="5.6" font-family="Tahoma,Geneva,sans-serif" font-weight="bold" fill="rgb(100,100,100)">U</text><circle cx="462.1" cy="70.5" r="4.46" fill="lightblue" stroke="#ccc" stroke-width="1.63"/><text x="462.1" y="72.8" text-anchor="middle" font-size="5.6" font-family="Tahoma,Geneva,sans-serif" font-weight="bold" fill="rgb(100,100,100)">C</text><circle cx="447.3" cy="69.6" r="4.46" fill="lightblue" stroke="#ccc" stroke-width="1.63"/><text x="447.3" y="71.8" text-anchor="middle" font-size="5.6" font-family="Tahoma,Geneva,sans-serif" font-weight="bold" fill="rgb(100,100,100)">A</text><circle cx="433.7" cy="75.7" r="4.46" fill="lightgreen" stroke="#ccc" stroke-width="1.63"/><text x="433.7" y="78.0" text-anchor="middle" font-size="5.6" font-family="Tahoma,Geneva,sans-serif" font-weight="bold" fill="rgb(100,100,100)">C</text><circle cx="420.6" cy="68.5" r="4.46" fill="lightgreen" stroke="#ccc" stroke-width="1.63"/><text x="420.6" y="70.7" text-anchor="middle" font-size="5.6" font-family="Tahoma,Geneva,sans-serif" font-weight="bold" fill="rgb(100,100,100)">C</text><circle cx="412.3" cy="56.2" r="4.46" fill="#dbdb8d" stroke="#ccc" stroke-width="1.63"/><text x="412.3" y="58.4" text-anchor="middle" font-size="5.6" font-family="Tahoma,Geneva,sans-serif" font-weight="bold" fill="rgb(100,100,100)">C</text><circle cx="397.4" cy="55.6" r="4.46" fill="lightgreen" stroke="#ccc" stroke-width="1.63"/><text x="397.4" y="57.8" text-anchor="middle" font-size="5.6" font-family="Tahoma,Geneva,sans-serif" font-weight="bold" fill="rgb(100,100,100)">U</text><circle cx="384.3" cy="48.3" r="4.46" fill="lightgreen" stroke="#ccc" stroke-width="1.63"/><text x="384.3" y="50.5" text-anchor="middle" font-size="5.6" font-family="Tahoma,Geneva,sans-serif" font-weight="bold" fill="rgb(100,100,100)">G</text><circle cx="371.2" cy="41.0" r="4.46" fill="lightgreen" stroke="#ccc" stroke-width="1.63"/><text x="371.2" y="43.3" text-anchor="middle" font-size="5.6" font-family="Tahoma,Geneva,sans-serif" font-weight="bold" fill="rgb(100,100,100)">A</text><circle cx="358.1" cy="33.8" r="4.46" fill="lightgreen" stroke="#ccc" stroke-width="1.63"/><text x="358.1" y="36.0" text-anchor="middle" font-size="5.6" font-family="Tahoma,Geneva,sans-serif" font-weight="bold" fill="rgb(100,100,100)">A</text><circle cx="344.9" cy="26.5" r="4.46" fill="lightgreen" stroke="#ccc" stroke-width="1.63"/><text x="344.9" y="28.7" text-anchor="middle" font-size="5.6" font-family="Tahoma,Geneva,sans-serif" font-weight="bold" fill="rgb(100,100,100)">G</text><circle cx="331.8" cy="19.2" r="4.46" fill="lightgreen" stroke="#ccc" stroke-width="1.63"/><text x="331.8" y="21.5" text-anchor="middle" font-size="5.6" font-family="Tahoma,Geneva,sans-serif" font-weight="bold" fill="rgb(100,100,100)">G</text><circle cx="318.7" cy="11.9" r="4.46" fill="lightgreen" stroke="#ccc" stroke-width="1.63"/><text x="318.7" y="14.2" text-anchor="middle" font-size="5.6" font-family="Tahoma,Geneva,sans-serif" font-weight="bold" fill="rgb(100,100,100)">G</text><circle cx="305.6" cy="4.7" r="4.46" fill="lightgreen" stroke="#ccc" stroke-width="1.63"/><text x="305.6" y="6.9" text-anchor="middle" font-size="5.6" font-family="Tahoma,Geneva,sans-serif" font-weight="bold" fill="rgb(100,100,100)">G</text><circle cx="292.5" cy="-2.6" r="4.46" fill="lightgreen" stroke="#ccc" stroke-width="1.63"/><text x="292.5" y="-0.4" text-anchor="middle" font-size="5.6" font-family="Tahoma,Geneva,sans-serif" font-weight="bold" fill="rgb(100,100,100)">A</text><circle cx="279.4" cy="-9.9" r="4.46" fill="lightgreen" stroke="#ccc" stroke-width="1.63"/><text x="279.4" y="-7.6" text-anchor="middle" font-size="5.6" font-family="Tahoma,Geneva,sans-serif" font-weight="bold" fill="rgb(100,100,100)">G</text><circle cx="266.2" cy="-17.1" r="4.46" fill="lightgreen" stroke="#ccc" stroke-width="1.63"/><text x="266.2" y="-14.9" text-anchor="middle" font-size="5.6" font-family="Tahoma,Geneva,sans-serif" font-weight="bold" fill="rgb(100,100,100)">C</text><circle cx="258.8" cy="-30.1" r="4.46" fill="#dbdb8d" stroke="#ccc" stroke-width="1.63"/><text x="258.8" y="-27.8" text-anchor="middle" font-size="5.6" font-family="Tahoma,Geneva,sans-serif" font-weight="bold" fill="rgb(100,100,100)">A</text><circle cx="245.7" cy="-37.4" r="4.46" fill="#dbdb8d" stroke="#ccc" stroke-width="1.63"/><text x="245.7" y="-35.1" text-anchor="middle" font-size="5.6" font-family="Tahoma,Geneva,sans-serif" font-weight="bold" fill="rgb(100,100,100)">A</text><circle cx="230.8" cy="-37.4" r="4.46" fill="lightgreen" stroke="#ccc" stroke-width="1.63"/><text x="230.8" y="-35.2" text-anchor="middle" font-size="5.6" font-family="Tahoma,Geneva,sans-serif" font-weight="bold" fill="rgb(100,100,100)">G</text><circle cx="217.9" cy="-45.0" r="4.46" fill="lightgreen" stroke="#ccc" stroke-width="1.63"/><text x="217.9" y="-42.8" text-anchor="middle" font-size="5.6" font-family="Tahoma,Geneva,sans-serif" font-weight="bold" fill="rgb(100,100,100)">C</text><circle cx="205.0" cy="-52.6" r="4.46" fill="lightgreen" stroke="#ccc" stroke-width="1.63"/><text x="205.0" y="-50.4" text-anchor="middle" font-size="5.6" font-family="Tahoma,Geneva,sans-serif" font-weight="bold" fill="rgb(100,100,100)">C</text><circle cx="192.0" cy="-60.3" r="4.46" fill="lightgreen" stroke="#ccc" stroke-width="1.63"/><text x="192.0" y="-58.0" text-anchor="middle" font-size="5.6" font-family="Tahoma,Geneva,sans-serif" font-weight="bold" fill="rgb(100,100,100)">U</text><circle cx="199.0" cy="-73.7" r="4.46" fill="#dbdb8d" stroke="#ccc" stroke-width="1.63"/><text x="199.0" y="-71.4" text-anchor="middle" font-size="5.6" font-family="Tahoma,Geneva,sans-serif" font-weight="bold" fill="rgb(100,100,100)">A</text><circle cx="185.9" cy="-80.9" r="4.46" fill="#dbdb8d" stroke="#ccc" stroke-width="1.63"/><text x="185.9" y="-78.7" text-anchor="middle" font-size="5.6" font-family="Tahoma,Geneva,sans-serif" font-weight="bold" fill="rgb(100,100,100)">A</text><circle cx="178.2" cy="-67.9" r="4.46" fill="lightgreen" stroke="#ccc" stroke-width="1.63"/><text x="178.2" y="-65.7" text-anchor="middle" font-size="5.6" font-family="Tahoma,Geneva,sans-serif" font-weight="bold" fill="rgb(100,100,100)">G</text><circle cx="164.9" cy="-74.8" r="4.46" fill="lightgreen" stroke="#ccc" stroke-width="1.63"/><text x="164.9" y="-72.6" text-anchor="middle" font-size="5.6" font-family="Tahoma,Geneva,sans-serif" font-weight="bold" fill="rgb(100,100,100)">C</text><circle cx="151.6" cy="-81.8" r="4.46" fill="lightgreen" stroke="#ccc" stroke-width="1.63"/><text x="151.6" y="-79.5" text-anchor="middle" font-size="5.6" font-family="Tahoma,Geneva,sans-serif" font-weight="bold" fill="rgb(100,100,100)">U</text><circle cx="138.3" cy="-88.7" r="4.46" fill="lightgreen" stroke="#ccc" stroke-width="1.63"/><text x="138.3" y="-86.5" text-anchor="middle" font-size="5.6" font-family="Tahoma,Geneva,sans-serif" font-weight="bold" fill="rgb(100,100,100)">G</text><circle cx="125.0" cy="-95.6" r="4.46" fill="lightgreen" stroke="#ccc" stroke-width="1.63"/><text x="125.0" y="-93.4" text-anchor="middle" font-size="5.6" font-family="Tahoma,Geneva,sans-serif" font-weight="bold" fill="rgb(100,100,100)">G</text><circle cx="111.7" cy="-102.6" r="4.46" fill="lightgreen" stroke="#ccc" stroke-width="1.63"/><text x="111.7" y="-100.3" text-anchor="middle" font-size="5.6" font-family="Tahoma,Geneva,sans-serif" font-weight="bold" fill="rgb(100,100,100)">A</text><circle cx="126.2" cy="-106.5" r="4.46" fill="lightgreen" stroke="#ccc" stroke-width="1.63"/><text x="126.2" y="-104.2" text-anchor="middle" font-size="5.6" font-family="Tahoma,Geneva,sans-serif" font-weight="bold" fill="rgb(100,100,100)">U</text><circle cx="136.4" cy="-117.4" r="4.46" fill="lightgreen" stroke="#ccc" stroke-width="1.63"/><text x="136.4" y="-115.2" text-anchor="middle" font-size="5.6" font-family="Tahoma,Geneva,sans-serif" font-weight="bold" fill="rgb(100,100,100)">C</text><circle cx="139.3" cy="-132.2" r="4.46" fill="lightgreen" stroke="#ccc" stroke-width="1.63"/><text x="139.3" y="-129.9" text-anchor="middle" font-size="5.6" font-family="Tahoma,Geneva,sans-serif" font-weight="bold" fill="rgb(100,100,100)">A</text><circle cx="133.8" cy="-146.2" r="4.46" fill="lightgreen" stroke="#ccc" stroke-width="1.63"/><text x="133.8" y="-143.9" text-anchor="middle" font-size="5.6" font-family="Tahoma,Geneva,sans-serif" font-weight="bold" fill="rgb(100,100,100)">U</text><circle cx="117.1" cy="-148.9" r="4.46" fill="lightsalmon" stroke="#ccc" stroke-width="1.63"/><text x="117.1" y="-146.7" text-anchor="middle" font-size="5.6" font-family="Tahoma,Geneva,sans-serif" font-weight="bold" fill="rgb(100,100,100)">G</text><circle cx="100.0" cy="-149.2" r="4.46" fill="lightsalmon" stroke="#ccc" stroke-width="1.63"/><text x="100.0" y="-147.0" text-anchor="middle" font-size="5.6" font-family="Tahoma,Geneva,sans-serif" font-weight="bold" fill="rgb(100,100,100)">A</text><circle cx="82.7" cy="-147.6" r="4.46" fill="lightsalmon" stroke="#ccc" stroke-width="1.63"/><text x="82.7" y="-145.4" text-anchor="middle" font-size="5.6" font-family="Tahoma,Geneva,sans-serif" font-weight="bold" fill="rgb(100,100,100)">A</text></svg>