<svg xmlns="http://www.w3.org/2000/svg" viewBox="7.7 -147.7 138.4 171.6" width="138" height="172"><style></style><line x1="66.2" y1="-53.3" x2="79.4" y2="-46.1" stroke="#999" stroke-width="1.67" stroke-opacity="0.8"/><line x1="73.3" y1="-66.5" x2="86.5" y2="-59.3" stroke="#999" stroke-width="1.67" stroke-opacity="0.8"/><line x1="80.5" y1="-79.6" x2="93.6" y2="-72.5" stroke="#999" stroke-width="1.67" stroke-opacity="0.8"/><line x1="87.6" y1="-92.8" x2="100.8" y2="-85.7" stroke="#999" stroke-width="1.67" stroke-opacity="0.8"/><line x1="51.7" y1="-10.8" x2="112.7" y2="-93.4" stroke="#d9534f" stroke-width="1.67" stroke-opacity="0.6"/><line x1="41.4" y1="-22.5" x2="112.2" y2="-107.6" stroke="#d9534f" stroke-width="1.67" stroke-opacity="0.6"/><line x1="41.0" y1="-38.1" x2="99.7" y2="-114.3" stroke="#d9534f" stroke-width="1.67" stroke-opacity="0.6"/><line x1="87.6" y1="-92.8" x2="80.5" y2="-79.6" stroke="#999" stroke-width="1.67" stroke-opacity="0.8"/><line x1="80.5" y1="-79.6" x2="73.3" y2="-66.5" stroke="#999" stroke-width="1.67" stroke-opacity="0.8"/><line x1="73.3" y1="-66.5" x2="66.2" y2="-53.3" stroke="#999" stroke-width="1.67" stroke-opacity="0.8"/><line x1="66.2" y1="-53.3" x2="51.6" y2="-49.0" stroke="#999" stroke-width="1.67" stroke-opacity="0.8"/><line x1="51.6" y1="-49.0" x2="41.0" y2="-38.1" stroke="#999" stroke-width="1.67" stroke-opacity="0.8"/><line x1="41.0" y1="-38.1" x2="41.4" y2="-22.5" stroke="#999" stroke-width="1.67" stroke-opacity="0.8"/><line x1="41.4" y1="-22.5" x2="51.7" y2="-10.8" stroke="#999" stroke-width="1.67" stroke-opacity="0.8"/><line x1="51.7" y1="-10.8" x2="66.8" y2="-9.4" stroke="#999" stroke-width="1.67" stroke-opacity="0.8"/><line x1="66.8" y1="-9.4" x2="79.7" y2="-17.4" stroke="#999" stroke-width="1.67" stroke-opacity="0.8"/><line x1="79.7" y1="-17.4" x2="84.3" y2="-31.8" stroke="#999" stroke-width="1.67" stroke-opacity="0.8"/><line x1="84.3" y1="-31.8" x2="79.4" y2="-46.1" stroke="#999" stroke-width="1.67" stroke-opacity="0.8"/><line x1="79.4" y1="-46.1" x2="86.5" y2="-59.3" stroke="#999" stroke-width="1.67" stroke-opacity="0.8"/><line x1="86.5" y1="-59.3" x2="93.6" y2="-72.5" stroke="#999" stroke-width="1.67" stroke-opacity="0.8"/><line x1="93.6" y1="-72.5" x2="100.8" y2="-85.7" stroke="#999" stroke-width="1.67" stroke-opacity="0.8"/><line x1="100.8" y1="-85.7" x2="112.7" y2="-93.4" stroke="#999" stroke-width="1.67" stroke-opacity="0.8"/><line x1="112.7" y1="-93.4" x2="112.2" y2="-107.6" stroke="#999" stroke-width="1.67" stroke-opacity="0.8"/><line x1="112.2" y1="-107.6" x2="99.7" y2="-114.3" stroke="#999" stroke-width="1.67" stroke-opacity="0.8"/><text x="71.6" y="-98.7" text-anchor="middle" font-size="7.9" font-family="Tahoma,Geneva,sans-serif" fill="#999">1</text><text x="94.1" y="-3.4" text-anchor="middle" font-size="7.9" font-family="Tahoma,Geneva,sans-serif" fill="#999">10</text><circle cx="87.6" cy="-92.8" r="4.55" fill="lightgreen" stroke="#ccc" stroke-width="1.67"/><text x="87.6" y="-90.6" text-anchor="middle" font-size="5.7" font-family="Tahoma,Geneva,sans-serif" font-weight="bold" fill="rgb(100,100,100)">C</text><circle cx="80.5" cy="-79.6" r="4.55" fill="lightgreen" stroke="#ccc" stroke-width="1.67"/><text x="80.5" y="-77.4" text-anchor="middle" font-size="5.7" font-family="Tahoma,Geneva,sans-serif" font-weight="bold" fill="rgb(100,100,100)">A</text><circle cx="73.3" cy="-66.5" r="4.55" fill="lightgreen" stroke="#ccc" stroke-width="1.67"/><text x="73.3" y="-64.2" text-anchor="middle" font-size="5.7" font-family="Tahoma,Geneva,sans-serif" font-weight="bold" fill="rgb(100,100,100)">U</text><circle cx="66.2" cy="-53.3" r="4.55" fill="lightgreen" stroke="#ccc" stroke-width="1.67"/><text x="66.2" y="-51.0" text-anchor="middle" font-size="5.7" font-family="Tahoma,Geneva,sans-serif" font-weight="bold" fill="rgb(100,100,100)">G</text><circle cx="51.6" cy="-49.0" r="4.55" fill="lightblue" stroke="#ccc" stroke-width="1.67"/><text x="51.6" y="-46.8" text-anchor="middle" font-size="5.7" font-family="Tahoma,Geneva,sans-serif" font-weight="bold" fill="rgb(100,100,100)">A</text><circle cx="41.0" cy="-38.1" r="4.55" fill="lightgreen" stroke="#ccc" stroke-width="1.67"/><text x="41.0" y="-35.9" text-anchor="middle" font-size="5.7" font-family="Tahoma,Geneva,sans-serif" font-weight="bold" fill="rgb(100,100,100)">C</text><circle cx="41.4" cy="-22.5" r="4.55" fill="lightgreen" stroke="#ccc" stroke-width="1.67"/><text x="41.4" y="-20.2" text-anchor="middle" font-size="5.7" font-family="Tahoma,Geneva,sans-serif" font-weight="bold" fill="rgb(100,100,100)">U</text><circle cx="51.7" cy="-10.8" r="4.55" fill="lightgreen" stroke="#ccc" stroke-width="1.67"/><text x="51.7" y="-8.5" text-anchor="middle" font-size="5.7" font-family="Tahoma,Geneva,sans-serif" font-weight="bold" fill="rgb(100,100,100)">U</text><circle cx="66.8" cy="-9.4" r="4.55" fill="lightblue" stroke="#ccc" stroke-width="1.67"/><text x="66.8" y="-7.1" text-anchor="middle" font-size="5.7" font-family="Tahoma,Geneva,sans-serif" font-weight="bold" fill="rgb(100,100,100)">C</text><circle cx="79.7" cy="-17.4" r="4.55" fill="lightblue" stroke="#ccc" stroke-width="1.67"/><text x="79.7" y="-15.1" text-anchor="middle" font-size="5.7" font-family="Tahoma,Geneva,sans-serif" font-weight="bold" fill="rgb(100,100,100)">G</text><circle cx="84.3" cy="-31.8" r="4.55" fill="lightblue" stroke="#ccc" stroke-width="1.67"/><text x="84.3" y="-29.5" text-anchor="middle" font-size="5.7" font-family="Tahoma,Geneva,sans-serif" font-weight="bold" fill="rgb(100,100,100)">A</text><circle cx="79.4" cy="-46.1" r="4.55" fill="lightgreen" stroke="#ccc" stroke-width="1.67"/><text x="79.4" y="-43.8" text-anchor="middle" font-size="5.7" font-family="Tahoma,Geneva,sans-serif" font-weight="bold" fill="rgb(100,100,100)">U</text><circle cx="86.5" cy="-59.3" r="4.55" fill="lightgreen" stroke="#ccc" stroke-width="1.67"/><text x="86.5" y="-57.0" text-anchor="middle" font-size="5.7" font-family="Tahoma,Geneva,sans-serif" font-weight="bold" fill="rgb(100,100,100)">A</text><circle cx="93.6" cy="-72.5" r="4.55" fill="lightgreen" stroke="#ccc" stroke-width="1.67"/><text x="93.6" y="-70.2" text-anchor="middle" font-size="5.7" font-family="Tahoma,Geneva,sans-serif" font-weight="bold" fill="rgb(100,100,100)">U</text><circle cx="100.8" cy="-85.7" r="4.55" fill="lightgreen" stroke="#ccc" stroke-width="1.67"/><text x="100.8" y="-83.4" text-anchor="middle" font-size="5.7" font-family="Tahoma,Geneva,sans-serif" font-weight="bold" fill="rgb(100,100,100)">G</text><circle cx="112.7" cy="-93.4" r="4.55" fill="lightgreen" stroke="#ccc" stroke-width="1.67"/><text x="112.7" y="-91.1" text-anchor="middle" font-size="5.7" font-family="Tahoma,Geneva,sans-serif" font-weight="bold" fill="rgb(100,100,100)">G</text><circle cx="112.2" cy="-107.6" r="4.55" fill="lightgreen" stroke="#ccc" stroke-width="1.67"/><text x="112.2" y="-105.3" text-anchor="middle" font-size="5.7" font-family="Tahoma,Geneva,sans-serif" font-weight="bold" fill="rgb(100,100,100)">A</text><circle cx="99.7" cy="-114.3" r="4.55" fill="lightgreen" stroke="#ccc" stroke-width="1.67"/><text x="99.7" y="-112.0" text-anchor="middle" font-size="5.7" font-family="Tahoma,Geneva,sans-serif" font-weight="bold" fill="rgb(100,100,100)">G</text></svg>