<svg xmlns="http://www.w3.org/2000/svg" viewBox="0 0 760 640" width="760" height="640"><style>svg {
  display: block;
  min-width: 100%;
  width: 100%;
  min-height: 100%;
}

circle.node {
  stroke: #ccc;
  stroke-width: 1px;
  opacity: 1;
  fill: white;
}

circle.node.label {
    stroke: transparent;
    stroke-width: 0;
    fill: white;
}

circle.outline_node {
    stroke-width: 1px;
    fill: red;
}

circle.protein {
    fill: gray;
    fill-opacity: 0.5;
    stroke-width: 4;
}

circle.hidden_outline {
    stroke-width: 0px;
}


line.link {
  stroke: #999;
  stroke-opacity: 0.8;
  stroke-width: 2;
}

line.basepair {
  stroke: red;
}

line.intermolecule {
  stroke: blue;
}

line.chain_chain {
  stroke-dasharray: 3,3;
}

line.fake {
  stroke: green;
}

.transparent {
    fill: transparent;
    stroke-width: 0;
    stroke-opacity: 0;
    opacity: 0;
    visibility: hidden;
}

.drag_line {
  stroke: #999;
  stroke-width: 2;
  pointer-events: none;
}

.drag_line_hidden {
  stroke: #999;
  stroke-width: 0;
  pointer-events: none;
}

.d3-tip {
    line-height: 1;
    font-weight: bold;
    padding: 6px;
    background: rgba(0, 0, 0, 0.6);
    color: #fff;
    border-radius: 4px;
    pointer-events: none;
          }

text.node-label {
    font-weight: bold;
    font-family: Tahoma, Geneva, sans-serif;
    color: rgb(100,100,100);
    pointer-events: none;
}

text {
    pointer-events: none;
}

g.gnode {

}

circle.outline_node.selected {
    visibility: visible;
}

circle.outline_node {
    visibility: hidden;
}

.brush .extent {
  fill-opacity: .1;
  stroke: #fff;
  shape-rendering: crispEdges;
}

.noselect {
    -webkit-touch-callout: none;
    -webkit-user-select: none;
    -khtml-user-select: none;
    -moz-user-select: none;
    -ms-user-select: none;
    user-select: none;
}

svg {
  display: block;
  min-width: 100%;
  width: 100%;
  min-height: 100%;
}

circle.node {
  stroke: #ccc;
  stroke-width: 1px;
  opacity: 1;
  fill: white;
}

circle.node.label {
    stroke: transparent;
    stroke-width: 0;
    fill: white;
}

circle.outline_node {
    stroke-width: 1px;
    fill: red;
}

circle.protein {
    fill: gray;
    fill-opacity: 0.5;
    stroke-width: 4;
}

circle.hidden_outline {
    stroke-width: 0px;
}


line.link {
  stroke: #999;
  stroke-opacity: 0.8;
  stroke-width: 2;
}

line.basepair {
  stroke: red;
}

line.intermolecule {
  stroke: blue;
}

line.chain_chain {
  stroke-dasharray: 3,3;
}

line.fake {
  stroke: green;
}

.transparent {
    fill: transparent;
    stroke-width: 0;
    stroke-opacity: 0;
    opacity: 0;
    visibility: hidden;
}

.drag_line {
  stroke: #999;
  stroke-width: 2;
  pointer-events: none;
}

.drag_line_hidden {
  stroke: #999;
  stroke-width: 0;
  pointer-events: none;
}

.d3-tip {
    line-height: 1;
    font-weight: bold;
    padding: 6px;
    background: rgba(0, 0, 0, 0.6);
    color: #fff;
    border-radius: 4px;
    pointer-events: none;
          }

text.node-label {
    font-weight: bold;
    font-family: Tahoma, Geneva, sans-serif;
    color: rgb(100,100,100);
    pointer-events: none;
}

text {
    pointer-events: none;
}

g.gnode {

}

circle.outline_node.selected {
    visibility: visible;
}

circle.outline_node {
    visibility: hidden;
}

.brush .extent {
  fill-opacity: .1;
  stroke: #fff;
  shape-rendering: crispEdges;
}

.noselect {
    -webkit-touch-callout: none;
    -webkit-user-select: none;
    -khtml-user-select: none;
    -moz-user-select: none;
    -ms-user-select: none;
    user-select: none;
}
/*# sourceURL=/Users/yumanakamura/ipy_sandbox/sandbox/claude_sandbox/mrna-transformer-worktrees/feat-issue57-switch-derna-knotty/scripts/eval/prerender/forna_vendor/fornac.css*/</style><style></style><g><g class="brush" style="pointer-events: all; -webkit-tap-highlight-color: rgba(0, 0, 0, 0);"><rect class="background" x="0" width="760" y="0" height="640" style="visibility: hidden; cursor: auto;"></rect><rect class="extent" x="0" width="0" y="0" height="0" style="cursor: move;"></rect><g class="resize n" transform="translate(0,0)" style="cursor: ns-resize; display: none;"><rect y="-3" width="0" height="6" style="visibility: hidden;"></rect></g><g class="resize e" transform="translate(0,0)" style="cursor: ew-resize; display: none;"><rect x="-3" width="6" height="0" style="visibility: hidden;"></rect></g><g class="resize s" transform="translate(0,0)" style="cursor: ns-resize; display: none;"><rect y="-3" width="0" height="6" style="visibility: hidden;"></rect></g><g class="resize w" transform="translate(0,0)" style="cursor: ew-resize; display: none;"><rect x="-3" width="6" height="0" style="visibility: hidden;"></rect></g><g class="resize nw" transform="translate(0,0)" style="cursor: nwse-resize; display: none;"><rect x="-3" y="-3" width="6" height="6" style="visibility: hidden;"></rect></g><g class="resize ne" transform="translate(0,0)" style="cursor: nesw-resize; display: none;"><rect x="-3" y="-3" width="6" height="6" style="visibility: hidden;"></rect></g><g class="resize se" transform="translate(0,0)" style="cursor: nwse-resize; display: none;"><rect x="-3" y="-3" width="6" height="6" style="visibility: hidden;"></rect></g><g class="resize sw" transform="translate(0,0)" style="cursor: nesw-resize; display: none;"><rect x="-3" y="-3" width="6" height="6" style="visibility: hidden;"></rect></g></g><g transform="translate(212.28,58.67) scale(3.41)"><g><line class="link basepair" x1="70.73" y1="125.08" x2="85.46" y2="122.78"></line><line class="link basepair" x1="68.43" y1="109.31" x2="83.30" y2="107.72"></line><line class="link backbone" x1="70.73" y1="125.08" x2="68.43" y2="109.31"></line><line class="link basepair" x1="62.18" y1="94.07" x2="73.79" y2="84.78"></line><line class="link backbone" x1="68.43" y1="109.31" x2="62.18" y2="94.07"></line><line class="link basepair" x1="52.60" y1="80.61" x2="64.58" y2="72.42"></line><line class="link backbone" x1="62.18" y1="94.07" x2="52.60" y2="80.61"></line><line class="link basepair" x1="43.66" y1="66.81" x2="56.02" y2="59.14"></line><line class="link backbone" x1="52.60" y1="80.61" x2="43.66" y2="66.81"></line><line class="link basepair" x1="35.28" y1="52.90" x2="47.88" y2="45.53"></line><line class="link backbone" x1="43.66" y1="66.81" x2="35.28" y2="52.90"></line><line class="link basepair" x1="27.22" y1="39.20" x2="40.21" y2="31.83"></line><line class="link backbone" x1="35.28" y1="52.90" x2="27.22" y2="39.20"></line><line class="link backbone" x1="27.22" y1="39.20" x2="12.52" y2="34.88"></line><line class="link backbone" x1="12.52" y1="34.88" x2="5.19" y2="21.81"></line><line class="link backbone" x1="5.19" y1="21.81" x2="9.35" y2="7.35"></line><line class="link backbone" x1="9.35" y1="7.35" x2="22.43" y2="0.06"></line><line class="link backbone" x1="22.43" y1="0.06" x2="36.91" y2="4.00"></line><line class="link backbone" x1="36.91" y1="4.00" x2="44.25" y2="17.08"></line><line class="link basepair" x1="40.21" y1="31.83" x2="27.22" y2="39.20"></line><line class="link backbone" x1="44.25" y1="17.08" x2="40.21" y2="31.83"></line><line class="link basepair" x1="47.88" y1="45.53" x2="35.28" y2="52.90"></line><line class="link backbone" x1="40.21" y1="31.83" x2="47.88" y2="45.53"></line><line class="link basepair" x1="56.02" y1="59.14" x2="43.66" y2="66.81"></line><line class="link backbone" x1="47.88" y1="45.53" x2="56.02" y2="59.14"></line><line class="link basepair" x1="64.58" y1="72.42" x2="52.60" y2="80.61"></line><line class="link backbone" x1="56.02" y1="59.14" x2="64.58" y2="72.42"></line><line class="link basepair" x1="73.79" y1="84.78" x2="62.18" y2="94.07"></line><line class="link backbone" x1="64.58" y1="72.42" x2="73.79" y2="84.78"></line><line class="link backbone" x1="73.79" y1="84.78" x2="87.02" y2="92.82"></line><line class="link basepair" x1="83.30" y1="107.72" x2="68.43" y2="109.31"></line><line class="link backbone" x1="87.02" y1="92.82" x2="83.30" y2="107.72"></line><line class="link basepair" x1="85.46" y1="122.78" x2="70.73" y2="125.08"></line><line class="link backbone" x1="83.30" y1="107.72" x2="85.46" y2="122.78"></line><line class="link backbone" x1="85.46" y1="122.78" x2="96.80" y2="133.00"></line><line class="link backbone" x1="96.80" y1="133.00" x2="96.58" y2="147.83"></line><line class="link backbone" x1="96.58" y1="147.83" x2="84.98" y2="157.17"></line><line class="link label_link" x1="9.35" y1="7.35" x2="-2.13" y2="-2.91"></line><line class="link label_link" x1="83.30" y1="107.72" x2="98.84" y2="108.43"></line><line class="link fake transparent" x1="70.73" y1="125.08" x2="76.81" y2="116.31"></line><line class="link fake transparent" x1="70.73" y1="125.08" x2="83.30" y2="107.72"></line><line class="link fake transparent" x1="68.43" y1="109.31" x2="76.81" y2="116.31"></line><line class="link fake transparent" x1="83.30" y1="107.72" x2="76.81" y2="116.31"></line><line class="link fake transparent" x1="85.46" y1="122.78" x2="76.81" y2="116.31"></line><line class="link fake transparent" x1="62.18" y1="94.07" x2="63.11" y2="83.19"></line><line class="link fake transparent" x1="52.60" y1="80.61" x2="63.11" y2="83.19"></line><line class="link fake transparent" x1="64.58" y1="72.42" x2="63.11" y2="83.19"></line><line class="link fake transparent" x1="73.79" y1="84.78" x2="63.11" y2="83.19"></line><line class="link fake transparent" x1="52.60" y1="80.61" x2="54.06" y2="69.83"></line><line class="link fake transparent" x1="43.66" y1="66.81" x2="54.06" y2="69.83"></line><line class="link fake transparent" x1="56.02" y1="59.14" x2="54.06" y2="69.83"></line><line class="link fake transparent" x1="64.58" y1="72.42" x2="54.06" y2="69.83"></line><line class="link fake transparent" x1="43.66" y1="66.81" x2="45.61" y2="56.13"></line><line class="link fake transparent" x1="35.28" y1="52.90" x2="45.61" y2="56.13"></line><line class="link fake transparent" x1="47.88" y1="45.53" x2="45.61" y2="56.13"></line><line class="link fake transparent" x1="56.02" y1="59.14" x2="45.61" y2="56.13"></line><line class="link fake transparent" x1="35.28" y1="52.90" x2="37.57" y2="42.34"></line><line class="link fake transparent" x1="27.22" y1="39.20" x2="37.57" y2="42.34"></line><line class="link fake transparent" x1="40.21" y1="31.83" x2="37.57" y2="42.34"></line><line class="link fake transparent" x1="47.88" y1="45.53" x2="37.57" y2="42.34"></line><line class="link fake transparent" x1="70.73" y1="125.08" x2="80.94" y2="139.65"></line><line class="link fake transparent" x1="70.73" y1="125.08" x2="96.58" y2="147.83"></line><line class="link fake transparent" x1="85.46" y1="122.78" x2="80.94" y2="139.65"></line><line class="link fake transparent" x1="85.46" y1="122.78" x2="84.98" y2="157.17"></line><line class="link fake transparent" x1="96.80" y1="133.00" x2="80.94" y2="139.65"></line><line class="link fake transparent" x1="96.80" y1="133.00" x2="72.49" y2="158.97"></line><line class="link fake transparent" x1="96.58" y1="147.83" x2="80.94" y2="139.65"></line><line class="link fake transparent" x1="96.58" y1="147.83" x2="60.98" y2="146.44"></line><line class="link fake transparent" x1="84.98" y1="157.17" x2="80.94" y2="139.65"></line><line class="link fake transparent" x1="84.98" y1="157.17" x2="70.73" y2="125.08"></line><line class="link fake transparent" x1="27.22" y1="39.20" x2="24.79" y2="19.59"></line><line class="link fake transparent" x1="27.22" y1="39.20" x2="22.43" y2="0.06"></line><line class="link fake transparent" x1="12.52" y1="34.88" x2="24.79" y2="19.59"></line><line class="link fake transparent" x1="12.52" y1="34.88" x2="36.91" y2="4.00"></line><line class="link fake transparent" x1="5.19" y1="21.81" x2="24.79" y2="19.59"></line><line class="link fake transparent" x1="5.19" y1="21.81" x2="44.25" y2="17.08"></line><line class="link fake transparent" x1="9.35" y1="7.35" x2="24.79" y2="19.59"></line><line class="link fake transparent" x1="9.35" y1="7.35" x2="40.21" y2="31.83"></line><line class="link fake transparent" x1="22.43" y1="0.06" x2="24.79" y2="19.59"></line><line class="link fake transparent" x1="22.43" y1="0.06" x2="27.22" y2="39.20"></line><line class="link fake transparent" x1="36.91" y1="4.00" x2="24.79" y2="19.59"></line><line class="link fake transparent" x1="36.91" y1="4.00" x2="12.52" y2="34.88"></line><line class="link fake transparent" x1="44.25" y1="17.08" x2="24.79" y2="19.59"></line><line class="link fake transparent" x1="44.25" y1="17.08" x2="5.19" y2="21.81"></line><line class="link fake transparent" x1="40.21" y1="31.83" x2="24.79" y2="19.59"></line><line class="link fake transparent" x1="40.21" y1="31.83" x2="9.35" y2="7.35"></line><line class="link fake transparent" x1="68.43" y1="109.31" x2="74.71" y2="97.87"></line><line class="link fake transparent" x1="68.43" y1="109.31" x2="73.79" y2="84.78"></line><line class="link fake transparent" x1="62.18" y1="94.07" x2="74.71" y2="97.87"></line><line class="link fake transparent" x1="62.18" y1="94.07" x2="87.02" y2="92.82"></line><line class="link fake transparent" x1="73.79" y1="84.78" x2="74.71" y2="97.87"></line><line class="link fake transparent" x1="73.79" y1="84.78" x2="83.30" y2="107.72"></line><line class="link fake transparent" x1="87.02" y1="92.82" x2="74.71" y2="97.87"></line><line class="link fake transparent" x1="87.02" y1="92.82" x2="68.43" y2="109.31"></line><line class="link fake transparent" x1="83.30" y1="107.72" x2="74.71" y2="97.87"></line><line class="link fake transparent" x1="83.30" y1="107.72" x2="62.18" y2="94.07"></line></g><g><g class="noselect gnode" struct_name="m" transform="translate(70.73,125.08)" r="6.5"><circle class="node" r="6" node_type="nucleotide" style="fill: lightgreen;"></circle><text text-anchor="middle" font-size="8" font-weight="bold" y="2.5" class="node-label">C</text></g><g class="noselect gnode" struct_name="m" transform="translate(68.43,109.31)" r="6.5"><circle class="node" r="6" node_type="nucleotide" style="fill: lightgreen;"></circle><text text-anchor="middle" font-size="8" font-weight="bold" y="2.5" class="node-label">C</text></g><g class="noselect gnode" struct_name="m" transform="translate(62.18,94.07)" r="6.5"><circle class="node" r="6" node_type="nucleotide" style="fill: lightgreen;"></circle><text text-anchor="middle" font-size="8" font-weight="bold" y="2.5" class="node-label">C</text></g><g class="noselect gnode" struct_name="m" transform="translate(52.60,80.61)" r="6.5"><circle class="node" r="6" node_type="nucleotide" style="fill: lightgreen;"></circle><text text-anchor="middle" font-size="8" font-weight="bold" y="2.5" class="node-label">U</text></g><g class="noselect gnode" struct_name="m" transform="translate(43.66,66.81)" r="6.5"><circle class="node" r="6" node_type="nucleotide" style="fill: lightgreen;"></circle><text text-anchor="middle" font-size="8" font-weight="bold" y="2.5" class="node-label">A</text></g><g class="noselect gnode" struct_name="m" transform="translate(35.28,52.90)" r="6.5"><circle class="node" r="6" node_type="nucleotide" style="fill: lightgreen;"></circle><text text-anchor="middle" font-size="8" font-weight="bold" y="2.5" class="node-label">C</text></g><g class="noselect gnode" struct_name="m" transform="translate(27.22,39.20)" r="6.5"><circle class="node" r="6" node_type="nucleotide" style="fill: lightgreen;"></circle><text text-anchor="middle" font-size="8" font-weight="bold" y="2.5" class="node-label">U</text></g><g class="noselect gnode" struct_name="m" transform="translate(12.52,34.88)" r="6.5"><circle class="node" r="6" node_type="nucleotide" style="fill: lightblue;"></circle><text text-anchor="middle" font-size="8" font-weight="bold" y="2.5" class="node-label">G</text></g><g class="noselect gnode" struct_name="m" transform="translate(5.19,21.81)" r="6.5"><circle class="node" r="6" node_type="nucleotide" style="fill: lightblue;"></circle><text text-anchor="middle" font-size="8" font-weight="bold" y="2.5" class="node-label">G</text></g><g class="noselect gnode" struct_name="m" transform="translate(9.35,7.35)" r="6.5"><circle class="node" r="6" node_type="nucleotide" style="fill: lightblue;"></circle><text text-anchor="middle" font-size="8" font-weight="bold" y="2.5" class="node-label">C</text></g><g class="noselect gnode" struct_name="m" transform="translate(22.43,0.06)" r="6.5"><circle class="node" r="6" node_type="nucleotide" style="fill: lightblue;"></circle><text text-anchor="middle" font-size="8" font-weight="bold" y="2.5" class="node-label">A</text></g><g class="noselect gnode" struct_name="m" transform="translate(36.91,4.00)" r="6.5"><circle class="node" r="6" node_type="nucleotide" style="fill: lightblue;"></circle><text text-anchor="middle" font-size="8" font-weight="bold" y="2.5" class="node-label">A</text></g><g class="noselect gnode" struct_name="m" transform="translate(44.25,17.08)" r="6.5"><circle class="node" r="6" node_type="nucleotide" style="fill: lightblue;"></circle><text text-anchor="middle" font-size="8" font-weight="bold" y="2.5" class="node-label">G</text></g><g class="noselect gnode" struct_name="m" transform="translate(40.21,31.83)" r="6.5"><circle class="node" r="6" node_type="nucleotide" style="fill: lightgreen;"></circle><text text-anchor="middle" font-size="8" font-weight="bold" y="2.5" class="node-label">A</text></g><g class="noselect gnode" struct_name="m" transform="translate(47.88,45.53)" r="6.5"><circle class="node" r="6" node_type="nucleotide" style="fill: lightgreen;"></circle><text text-anchor="middle" font-size="8" font-weight="bold" y="2.5" class="node-label">G</text></g><g class="noselect gnode" struct_name="m" transform="translate(56.02,59.14)" r="6.5"><circle class="node" r="6" node_type="nucleotide" style="fill: lightgreen;"></circle><text text-anchor="middle" font-size="8" font-weight="bold" y="2.5" class="node-label">U</text></g><g class="noselect gnode" struct_name="m" transform="translate(64.58,72.42)" r="6.5"><circle class="node" r="6" node_type="nucleotide" style="fill: lightgreen;"></circle><text text-anchor="middle" font-size="8" font-weight="bold" y="2.5" class="node-label">G</text></g><g class="noselect gnode" struct_name="m" transform="translate(73.79,84.78)" r="6.5"><circle class="node" r="6" node_type="nucleotide" style="fill: lightgreen;"></circle><text text-anchor="middle" font-size="8" font-weight="bold" y="2.5" class="node-label">G</text></g><g class="noselect gnode" struct_name="m" transform="translate(87.02,92.82)" r="6.5"><circle class="node" r="6" node_type="nucleotide" style="fill: rgb(219, 219, 141);"></circle><text text-anchor="middle" font-size="8" font-weight="bold" y="2.5" class="node-label">U</text></g><g class="noselect gnode" struct_name="m" transform="translate(83.30,107.72)" r="6.5"><circle class="node" r="6" node_type="nucleotide" style="fill: lightgreen;"></circle><text text-anchor="middle" font-size="8" font-weight="bold" y="2.5" class="node-label">G</text></g><g class="noselect gnode" struct_name="m" transform="translate(85.46,122.78)" r="6.5"><circle class="node" r="6" node_type="nucleotide" style="fill: lightgreen;"></circle><text text-anchor="middle" font-size="8" font-weight="bold" y="2.5" class="node-label">G</text></g><g class="noselect gnode" struct_name="m" transform="translate(96.80,133.00)" r="6.5"><circle class="node" r="6" node_type="nucleotide" style="fill: lightsalmon;"></circle><text text-anchor="middle" font-size="8" font-weight="bold" y="2.5" class="node-label">C</text></g><g class="noselect gnode" struct_name="m" transform="translate(96.58,147.83)" r="6.5"><circle class="node" r="6" node_type="nucleotide" style="fill: lightsalmon;"></circle><text text-anchor="middle" font-size="8" font-weight="bold" y="2.5" class="node-label">C</text></g><g class="noselect gnode" struct_name="m" transform="translate(84.98,157.17)" r="6.5"><circle class="node" r="6" node_type="nucleotide" style="fill: lightsalmon;"></circle><text text-anchor="middle" font-size="8" font-weight="bold" y="2.5" class="node-label">U</text></g><g class="noselect gnode" struct_name="m" transform="translate(-2.13,-2.91)" r="6.5"><circle class="node label" r="6" node_type="label"></circle><text text-anchor="middle" font-size="8" font-weight="bold" y="2.5" class="node-label">10</text></g><g class="noselect gnode" struct_name="m" transform="translate(98.84,108.43)" r="6.5"><circle class="node label" r="6" node_type="label"></circle><text text-anchor="middle" font-size="8" font-weight="bold" y="2.5" class="node-label">20</text></g><g class="noselect gnode" transform="translate(76.81,116.31)" r="6.5"><circle class="node" r="0" node_type="middle"></circle><text text-anchor="middle" font-size="8" font-weight="bold" y="2.5" class="node-label"></text></g><g class="noselect gnode" transform="translate(63.11,83.19)" r="6.5"><circle class="node" r="0" node_type="middle"></circle><text text-anchor="middle" font-size="8" font-weight="bold" y="2.5" class="node-label"></text></g><g class="noselect gnode" transform="translate(54.06,69.83)" r="6.5"><circle class="node" r="0" node_type="middle"></circle><text text-anchor="middle" font-size="8" font-weight="bold" y="2.5" class="node-label"></text></g><g class="noselect gnode" transform="translate(45.61,56.13)" r="6.5"><circle class="node" r="0" node_type="middle"></circle><text text-anchor="middle" font-size="8" font-weight="bold" y="2.5" class="node-label"></text></g><g class="noselect gnode" transform="translate(37.57,42.34)" r="6.5"><circle class="node" r="0" node_type="middle"></circle><text text-anchor="middle" font-size="8" font-weight="bold" y="2.5" class="node-label"></text></g><g class="noselect gnode" transform="translate(72.49,158.97)" r="6.5"><circle class="node" r="0" node_type="middle"></circle><text text-anchor="middle" font-size="8" font-weight="bold" y="2.5" class="node-label"></text></g><g class="noselect gnode" transform="translate(60.98,146.44)" r="6.5"><circle class="node" r="0" node_type="middle"></circle><text text-anchor="middle" font-size="8" font-weight="bold" y="2.5" class="node-label"></text></g><g class="noselect gnode" transform="translate(80.94,139.65)" r="6.5"><circle class="node" r="0" node_type="middle"></circle><text text-anchor="middle" font-size="8" font-weight="bold" y="2.5" class="node-label"></text></g><g class="noselect gnode" transform="translate(24.79,19.59)" r="6.5"><circle class="node" r="0" node_type="middle"></circle><text text-anchor="middle" font-size="8" font-weight="bold" y="2.5" class="node-label"></text></g><g class="noselect gnode" transform="translate(74.71,97.87)" r="6.5"><circle class="node" r="0" node_type="middle"></circle><text text-anchor="middle" font-size="8" font-weight="bold" y="2.5" class="node-label"></text></g></g><line class="drag_line" x1="0" y1="0" x2="0" y2="0"></line></g></g></svg>