<svg xmlns="http://www.w3.org/2000/svg" viewBox="0 0 760 640" width="760" height="640"><style>svg {
  display: block;
  min-width: 100%;
  width: 100%;
  min-height: 100%;
}

circle.node {
  stroke: #ccc;
  stroke-width: 1px;
  opacity: 1;
  fill: white;
}

circle.node.label {
    stroke: transparent;
    stroke-width: 0;
    fill: white;
}

circle.outline_node {
    stroke-width: 1px;
    fill: red;
}

circle.protein {
    fill: gray;
    fill-opacity: 0.5;
    stroke-width: 4;
}

circle.hidden_outline {
    stroke-width: 0px;
}


line.link {
  stroke: #999;
  stroke-opacity: 0.8;
  stroke-width: 2;
}

line.basepair {
  stroke: red;
}

line.intermolecule {
  stroke: blue;
}

line.chain_chain {
  stroke-dasharray: 3,3;
}

line.fake {
  stroke: green;
}

.transparent {
    fill: transparent;
    stroke-width: 0;
    stroke-opacity: 0;
    opacity: 0;
    visibility: hidden;
}

.drag_line {
  stroke: #999;
  stroke-width: 2;
  pointer-events: none;
}

.drag_line_hidden {
  stroke: #999;
  stroke-width: 0;
  pointer-events: none;
}

.d3-tip {
    line-height: 1;
    font-weight: bold;
    padding: 6px;
    background: rgba(0, 0, 0, 0.6);
    color: #fff;
    border-radius: 4px;
    pointer-events: none;
          }

text.node-label {
    font-weight: bold;
    font-family: Tahoma, Geneva, sans-serif;
    color: rgb(100,100,100);
    pointer-events: none;
}

text {
    pointer-events: none;
}

g.gnode {

}

circle.outline_node.selected {
    visibility: visible;
}

circle.outline_node {
    visibility: hidden;
}

.brush .extent {
  fill-opacity: .1;
  stroke: #fff;
  shape-rendering: crispEdges;
}

.noselect {
    -webkit-touch-callout: none;
    -webkit-user-select: none;
    -khtml-user-select: none;
    -moz-user-select: none;
    -ms-user-select: none;
    user-select: none;
}

svg {
  display: block;
  min-width: 100%;
  width: 100%;
  min-height: 100%;
}

circle.node {
  stroke: #ccc;
  stroke-width: 1px;
  opacity: 1;
  fill: white;
}

circle.node.label {
    stroke: transparent;
    stroke-width: 0;
    fill: white;
}

circle.outline_node {
    stroke-width: 1px;
    fill: red;
}

circle.protein {
    fill: gray;
    fill-opacity: 0.5;
    stroke-width: 4;
}

circle.hidden_outline {
    stroke-width: 0px;
}


line.link {
  stroke: #999;
  stroke-opacity: 0.8;
  stroke-width: 2;
}

line.basepair {
  stroke: red;
}

line.intermolecule {
  stroke: blue;
}

line.chain_chain {
  stroke-dasharray: 3,3;
}

line.fake {
  stroke: green;
}

.transparent {
    fill: transparent;
    stroke-width: 0;
    stroke-opacity: 0;
    opacity: 0;
    visibility: hidden;
}

.drag_line {
  stroke: #999;
  stroke-width: 2;
  pointer-events: none;
}

.drag_line_hidden {
  stroke: #999;
  stroke-width: 0;
  pointer-events: none;
}

.d3-tip {
    line-height: 1;
    font-weight: bold;
    padding: 6px;
    background: rgba(0, 0, 0, 0.6);
    color: #fff;
    border-radius: 4px;
    pointer-events: none;
          }

text.node-label {
    font-weight: bold;
    font-family: Tahoma, Geneva, sans-serif;
    color: rgb(100,100,100);
    pointer-events: none;
}

text {
    pointer-events: none;
}

g.gnode {

}

circle.outline_node.selected {
    visibility: visible;
}

circle.outline_node {
    visibility: hidden;
}

.brush .extent {
  fill-opacity: .1;
  stroke: #fff;
  shape-rendering: crispEdges;
}

.noselect {
    -webkit-touch-callout: none;
    -webkit-user-select: none;
    -khtml-user-select: none;
    -moz-user-select: none;
    -ms-user-select: none;
    user-select: none;
}
/*# sourceURL=/Users/yumanakamura/ipy_sandbox/sandbox/claude_sandbox/mrna-transformer-worktrees/feat-issue57-switch-derna-knotty/scripts/eval/prerender/forna_vendor/fornac.css*/</style><style></style><g><g class="brush" style="pointer-events: all; -webkit-tap-highlight-color: rgba(0, 0, 0, 0);"><rect class="background" x="0" width="760" y="0" height="640" style="visibility: hidden; cursor: auto;"></rect><rect class="extent" x="0" width="0" y="0" height="0" style="cursor: move;"></rect><g class="resize n" transform="translate(0,0)" style="cursor: ns-resize; display: none;"><rect y="-3" width="0" height="6" style="visibility: hidden;"></rect></g><g class="resize e" transform="translate(0,0)" style="cursor: ew-resize; display: none;"><rect x="-3" width="6" height="0" style="visibility: hidden;"></rect></g><g class="resize s" transform="translate(0,0)" style="cursor: ns-resize; display: none;"><rect y="-3" width="0" height="6" style="visibility: hidden;"></rect></g><g class="resize w" transform="translate(0,0)" style="cursor: ew-resize; display: none;"><rect x="-3" width="6" height="0" style="visibility: hidden;"></rect></g><g class="resize nw" transform="translate(0,0)" style="cursor: nwse-resize; display: none;"><rect x="-3" y="-3" width="6" height="6" style="visibility: hidden;"></rect></g><g class="resize ne" transform="translate(0,0)" style="cursor: nesw-resize; display: none;"><rect x="-3" y="-3" width="6" height="6" style="visibility: hidden;"></rect></g><g class="resize se" transform="translate(0,0)" style="cursor: nwse-resize; display: none;"><rect x="-3" y="-3" width="6" height="6" style="visibility: hidden;"></rect></g><g class="resize sw" transform="translate(0,0)" style="cursor: nesw-resize; display: none;"><rect x="-3" y="-3" width="6" height="6" style="visibility: hidden;"></rect></g></g><g transform="translate(220.33,-97.45) scale(3.51)"><g><line class="link backbone" x1="9.50" y1="194.55" x2="-3.66" y2="187.40"></line><line class="link backbone" x1="-3.66" y1="187.40" x2="-7.85" y2="172.88"></line><line class="link backbone" x1="-7.85" y1="172.88" x2="-0.42" y2="159.80"></line><line class="link basepair" x1="14.42" y1="155.42" x2="27.25" y2="163.00"></line><line class="link backbone" x1="-0.42" y1="159.80" x2="14.42" y2="155.42"></line><line class="link basepair" x1="23.17" y1="141.81" x2="35.35" y2="149.79"></line><line class="link backbone" x1="14.42" y1="155.42" x2="23.17" y2="141.81"></line><line class="link basepair" x1="32.45" y1="128.27" x2="44.26" y2="136.63"></line><line class="link backbone" x1="23.17" y1="141.81" x2="32.45" y2="128.27"></line><line class="link basepair" x1="42.36" y1="114.91" x2="53.70" y2="123.74"></line><line class="link backbone" x1="32.45" y1="128.27" x2="42.36" y2="114.91"></line><line class="link basepair" x1="52.90" y1="101.87" x2="63.80" y2="111.83"></line><line class="link backbone" x1="42.36" y1="114.91" x2="52.90" y2="101.87"></line><line class="link basepair" x1="60.38" y1="86.87" x2="74.95" y2="89.59"></line><line class="link backbone" x1="52.90" y1="101.87" x2="60.38" y2="86.87"></line><line class="link basepair" x1="63.88" y1="71.11" x2="78.40" y2="74.67"></line><line class="link backbone" x1="60.38" y1="86.87" x2="63.88" y2="71.11"></line><line class="link backbone" x1="63.88" y1="71.11" x2="57.58" y2="56.78"></line><line class="link backbone" x1="57.58" y1="56.78" x2="64.48" y2="43.36"></line><line class="link backbone" x1="64.48" y1="43.36" x2="79.41" y2="40.34"></line><line class="link backbone" x1="79.41" y1="40.34" x2="91.07" y2="50.13"></line><line class="link backbone" x1="91.07" y1="50.13" x2="90.73" y2="65.32"></line><line class="link basepair" x1="78.40" y1="74.67" x2="63.88" y2="71.11"></line><line class="link backbone" x1="90.73" y1="65.32" x2="78.40" y2="74.67"></line><line class="link basepair" x1="74.95" y1="89.59" x2="60.38" y2="86.87"></line><line class="link backbone" x1="78.40" y1="74.67" x2="74.95" y2="89.59"></line><line class="link backbone" x1="74.95" y1="89.59" x2="77.64" y2="104.69"></line><line class="link basepair" x1="63.80" y1="111.83" x2="52.90" y2="101.87"></line><line class="link backbone" x1="77.64" y1="104.69" x2="63.80" y2="111.83"></line><line class="link basepair" x1="53.70" y1="123.74" x2="42.36" y2="114.91"></line><line class="link backbone" x1="63.80" y1="111.83" x2="53.70" y2="123.74"></line><line class="link basepair" x1="44.26" y1="136.63" x2="32.45" y2="128.27"></line><line class="link backbone" x1="53.70" y1="123.74" x2="44.26" y2="136.63"></line><line class="link basepair" x1="35.35" y1="149.79" x2="23.17" y2="141.81"></line><line class="link backbone" x1="44.26" y1="136.63" x2="35.35" y2="149.79"></line><line class="link basepair" x1="27.25" y1="163.00" x2="14.42" y2="155.42"></line><line class="link backbone" x1="35.35" y1="149.79" x2="27.25" y2="163.00"></line><line class="link label_link" x1="60.38" y1="86.87" x2="48.54" y2="76.82"></line><line class="link label_link" x1="63.80" y1="111.83" x2="77.15" y2="119.94"></line><line class="link fake transparent" x1="14.42" y1="155.42" x2="24.85" y2="152.49"></line><line class="link fake transparent" x1="14.42" y1="155.42" x2="35.35" y2="149.79"></line><line class="link fake transparent" x1="23.17" y1="141.81" x2="24.85" y2="152.49"></line><line class="link fake transparent" x1="35.35" y1="149.79" x2="24.85" y2="152.49"></line><line class="link fake transparent" x1="27.25" y1="163.00" x2="24.85" y2="152.49"></line><line class="link fake transparent" x1="23.17" y1="141.81" x2="33.67" y2="139.09"></line><line class="link fake transparent" x1="32.45" y1="128.27" x2="33.67" y2="139.09"></line><line class="link fake transparent" x1="44.26" y1="136.63" x2="33.67" y2="139.09"></line><line class="link fake transparent" x1="35.35" y1="149.79" x2="33.67" y2="139.09"></line><line class="link fake transparent" x1="32.45" y1="128.27" x2="43.03" y2="125.82"></line><line class="link fake transparent" x1="42.36" y1="114.91" x2="43.03" y2="125.82"></line><line class="link fake transparent" x1="53.70" y1="123.74" x2="43.03" y2="125.82"></line><line class="link fake transparent" x1="44.26" y1="136.63" x2="43.03" y2="125.82"></line><line class="link fake transparent" x1="42.36" y1="114.91" x2="53.00" y2="112.88"></line><line class="link fake transparent" x1="52.90" y1="101.87" x2="53.00" y2="112.88"></line><line class="link fake transparent" x1="63.80" y1="111.83" x2="53.00" y2="112.88"></line><line class="link fake transparent" x1="53.70" y1="123.74" x2="53.00" y2="112.88"></line><line class="link fake transparent" x1="60.38" y1="86.87" x2="69.28" y2="80.48"></line><line class="link fake transparent" x1="63.88" y1="71.11" x2="69.28" y2="80.48"></line><line class="link fake transparent" x1="78.40" y1="74.67" x2="69.28" y2="80.48"></line><line class="link fake transparent" x1="74.95" y1="89.59" x2="69.28" y2="80.48"></line><line class="link fake transparent" x1="9.50" y1="194.55" x2="11.71" y2="175.04"></line><line class="link fake transparent" x1="9.50" y1="194.55" x2="14.42" y2="155.42"></line><line class="link fake transparent" x1="-3.66" y1="187.40" x2="11.71" y2="175.04"></line><line class="link fake transparent" x1="-3.66" y1="187.40" x2="27.25" y2="163.00"></line><line class="link fake transparent" x1="-7.85" y1="172.88" x2="11.71" y2="175.04"></line><line class="link fake transparent" x1="-7.85" y1="172.88" x2="30.95" y2="178.29"></line><line class="link fake transparent" x1="-0.42" y1="159.80" x2="11.71" y2="175.04"></line><line class="link fake transparent" x1="-0.42" y1="159.80" x2="24.05" y2="190.85"></line><line class="link fake transparent" x1="14.42" y1="155.42" x2="11.71" y2="175.04"></line><line class="link fake transparent" x1="14.42" y1="155.42" x2="9.50" y2="194.55"></line><line class="link fake transparent" x1="27.25" y1="163.00" x2="11.71" y2="175.04"></line><line class="link fake transparent" x1="27.25" y1="163.00" x2="-3.66" y2="187.40"></line><line class="link fake transparent" x1="63.88" y1="71.11" x2="75.06" y2="57.49"></line><line class="link fake transparent" x1="63.88" y1="71.11" x2="79.41" y2="40.34"></line><line class="link fake transparent" x1="57.58" y1="56.78" x2="75.06" y2="57.49"></line><line class="link fake transparent" x1="57.58" y1="56.78" x2="91.07" y2="50.13"></line><line class="link fake transparent" x1="64.48" y1="43.36" x2="75.06" y2="57.49"></line><line class="link fake transparent" x1="64.48" y1="43.36" x2="90.73" y2="65.32"></line><line class="link fake transparent" x1="79.41" y1="40.34" x2="75.06" y2="57.49"></line><line class="link fake transparent" x1="79.41" y1="40.34" x2="78.40" y2="74.67"></line><line class="link fake transparent" x1="91.07" y1="50.13" x2="75.06" y2="57.49"></line><line class="link fake transparent" x1="91.07" y1="50.13" x2="63.88" y2="71.11"></line><line class="link fake transparent" x1="90.73" y1="65.32" x2="75.06" y2="57.49"></line><line class="link fake transparent" x1="90.73" y1="65.32" x2="57.58" y2="56.78"></line><line class="link fake transparent" x1="78.40" y1="74.67" x2="75.06" y2="57.49"></line><line class="link fake transparent" x1="78.40" y1="74.67" x2="64.48" y2="43.36"></line><line class="link fake transparent" x1="52.90" y1="101.87" x2="65.64" y2="98.84"></line><line class="link fake transparent" x1="52.90" y1="101.87" x2="74.95" y2="89.59"></line><line class="link fake transparent" x1="60.38" y1="86.87" x2="65.64" y2="98.84"></line><line class="link fake transparent" x1="60.38" y1="86.87" x2="77.64" y2="104.69"></line><line class="link fake transparent" x1="74.95" y1="89.59" x2="65.64" y2="98.84"></line><line class="link fake transparent" x1="74.95" y1="89.59" x2="63.80" y2="111.83"></line><line class="link fake transparent" x1="77.64" y1="104.69" x2="65.64" y2="98.84"></line><line class="link fake transparent" x1="77.64" y1="104.69" x2="52.90" y2="101.87"></line><line class="link fake transparent" x1="63.80" y1="111.83" x2="65.64" y2="98.84"></line><line class="link fake transparent" x1="63.80" y1="111.83" x2="60.38" y2="86.87"></line></g><g><g class="noselect gnode" struct_name="m" transform="translate(9.50,194.55)" r="6.5"><circle class="node" r="6" node_type="nucleotide" style="fill: lightsalmon;"></circle><text text-anchor="middle" font-size="8" font-weight="bold" y="2.5" class="node-label">G</text></g><g class="noselect gnode" struct_name="m" transform="translate(-3.66,187.40)" r="6.5"><circle class="node" r="6" node_type="nucleotide" style="fill: lightsalmon;"></circle><text text-anchor="middle" font-size="8" font-weight="bold" y="2.5" class="node-label">G</text></g><g class="noselect gnode" struct_name="m" transform="translate(-7.85,172.88)" r="6.5"><circle class="node" r="6" node_type="nucleotide" style="fill: lightsalmon;"></circle><text text-anchor="middle" font-size="8" font-weight="bold" y="2.5" class="node-label">U</text></g><g class="noselect gnode" struct_name="m" transform="translate(-0.42,159.80)" r="6.5"><circle class="node" r="6" node_type="nucleotide" style="fill: lightsalmon;"></circle><text text-anchor="middle" font-size="8" font-weight="bold" y="2.5" class="node-label">C</text></g><g class="noselect gnode" struct_name="m" transform="translate(14.42,155.42)" r="6.5"><circle class="node" r="6" node_type="nucleotide" style="fill: lightgreen;"></circle><text text-anchor="middle" font-size="8" font-weight="bold" y="2.5" class="node-label">A</text></g><g class="noselect gnode" struct_name="m" transform="translate(23.17,141.81)" r="6.5"><circle class="node" r="6" node_type="nucleotide" style="fill: lightgreen;"></circle><text text-anchor="middle" font-size="8" font-weight="bold" y="2.5" class="node-label">C</text></g><g class="noselect gnode" struct_name="m" transform="translate(32.45,128.27)" r="6.5"><circle class="node" r="6" node_type="nucleotide" style="fill: lightgreen;"></circle><text text-anchor="middle" font-size="8" font-weight="bold" y="2.5" class="node-label">U</text></g><g class="noselect gnode" struct_name="m" transform="translate(42.36,114.91)" r="6.5"><circle class="node" r="6" node_type="nucleotide" style="fill: lightgreen;"></circle><text text-anchor="middle" font-size="8" font-weight="bold" y="2.5" class="node-label">G</text></g><g class="noselect gnode" struct_name="m" transform="translate(52.90,101.87)" r="6.5"><circle class="node" r="6" node_type="nucleotide" style="fill: lightgreen;"></circle><text text-anchor="middle" font-size="8" font-weight="bold" y="2.5" class="node-label">U</text></g><g class="noselect gnode" struct_name="m" transform="translate(60.38,86.87)" r="6.5"><circle class="node" r="6" node_type="nucleotide" style="fill: lightgreen;"></circle><text text-anchor="middle" font-size="8" font-weight="bold" y="2.5" class="node-label">C</text></g><g class="noselect gnode" struct_name="m" transform="translate(63.88,71.11)" r="6.5"><circle class="node" r="6" node_type="nucleotide" style="fill: lightgreen;"></circle><text text-anchor="middle" font-size="8" font-weight="bold" y="2.5" class="node-label">C</text></g><g class="noselect gnode" struct_name="m" transform="translate(57.58,56.78)" r="6.5"><circle class="node" r="6" node_type="nucleotide" style="fill: lightblue;"></circle><text text-anchor="middle" font-size="8" font-weight="bold" y="2.5" class="node-label">U</text></g><g class="noselect gnode" struct_name="m" transform="translate(64.48,43.36)" r="6.5"><circle class="node" r="6" node_type="nucleotide" style="fill: lightblue;"></circle><text text-anchor="middle" font-size="8" font-weight="bold" y="2.5" class="node-label">A</text></g><g class="noselect gnode" struct_name="m" transform="translate(79.41,40.34)" r="6.5"><circle class="node" r="6" node_type="nucleotide" style="fill: lightblue;"></circle><text text-anchor="middle" font-size="8" font-weight="bold" y="2.5" class="node-label">C</text></g><g class="noselect gnode" struct_name="m" transform="translate(91.07,50.13)" r="6.5"><circle class="node" r="6" node_type="nucleotide" style="fill: lightblue;"></circle><text text-anchor="middle" font-size="8" font-weight="bold" y="2.5" class="node-label">U</text></g><g class="noselect gnode" struct_name="m" transform="translate(90.73,65.32)" r="6.5"><circle class="node" r="6" node_type="nucleotide" style="fill: lightblue;"></circle><text text-anchor="middle" font-size="8" font-weight="bold" y="2.5" class="node-label">U</text></g><g class="noselect gnode" struct_name="m" transform="translate(78.40,74.67)" r="6.5"><circle class="node" r="6" node_type="nucleotide" style="fill: lightgreen;"></circle><text text-anchor="middle" font-size="8" font-weight="bold" y="2.5" class="node-label">G</text></g><g class="noselect gnode" struct_name="m" transform="translate(74.95,89.59)" r="6.5"><circle class="node" r="6" node_type="nucleotide" style="fill: lightgreen;"></circle><text text-anchor="middle" font-size="8" font-weight="bold" y="2.5" class="node-label">G</text></g><g class="noselect gnode" struct_name="m" transform="translate(77.64,104.69)" r="6.5"><circle class="node" r="6" node_type="nucleotide" style="fill: rgb(219, 219, 141);"></circle><text text-anchor="middle" font-size="8" font-weight="bold" y="2.5" class="node-label">U</text></g><g class="noselect gnode" struct_name="m" transform="translate(63.80,111.83)" r="6.5"><circle class="node" r="6" node_type="nucleotide" style="fill: lightgreen;"></circle><text text-anchor="middle" font-size="8" font-weight="bold" y="2.5" class="node-label">A</text></g><g class="noselect gnode" struct_name="m" transform="translate(53.70,123.74)" r="6.5"><circle class="node" r="6" node_type="nucleotide" style="fill: lightgreen;"></circle><text text-anchor="middle" font-size="8" font-weight="bold" y="2.5" class="node-label">C</text></g><g class="noselect gnode" struct_name="m" transform="translate(44.26,136.63)" r="6.5"><circle class="node" r="6" node_type="nucleotide" style="fill: lightgreen;"></circle><text text-anchor="middle" font-size="8" font-weight="bold" y="2.5" class="node-label">A</text></g><g class="noselect gnode" struct_name="m" transform="translate(35.35,149.79)" r="6.5"><circle class="node" r="6" node_type="nucleotide" style="fill: lightgreen;"></circle><text text-anchor="middle" font-size="8" font-weight="bold" y="2.5" class="node-label">G</text></g><g class="noselect gnode" struct_name="m" transform="translate(27.25,163.00)" r="6.5"><circle class="node" r="6" node_type="nucleotide" style="fill: lightgreen;"></circle><text text-anchor="middle" font-size="8" font-weight="bold" y="2.5" class="node-label">U</text></g><g class="noselect gnode" struct_name="m" transform="translate(48.54,76.82)" r="6.5"><circle class="node label" r="6" node_type="label"></circle><text text-anchor="middle" font-size="8" font-weight="bold" y="2.5" class="node-label">10</text></g><g class="noselect gnode" struct_name="m" transform="translate(77.15,119.94)" r="6.5"><circle class="node label" r="6" node_type="label"></circle><text text-anchor="middle" font-size="8" font-weight="bold" y="2.5" class="node-label">20</text></g><g class="noselect gnode" transform="translate(24.85,152.49)" r="6.5"><circle class="node" r="0" node_type="middle"></circle><text text-anchor="middle" font-size="8" font-weight="bold" y="2.5" class="node-label"></text></g><g class="noselect gnode" transform="translate(33.67,139.09)" r="6.5"><circle class="node" r="0" node_type="middle"></circle><text text-anchor="middle" font-size="8" font-weight="bold" y="2.5" class="node-label"></text></g><g class="noselect gnode" transform="translate(43.03,125.82)" r="6.5"><circle class="node" r="0" node_type="middle"></circle><text text-anchor="middle" font-size="8" font-weight="bold" y="2.5" class="node-label"></text></g><g class="noselect gnode" transform="translate(53.00,112.88)" r="6.5"><circle class="node" r="0" node_type="middle"></circle><text text-anchor="middle" font-size="8" font-weight="bold" y="2.5" class="node-label"></text></g><g class="noselect gnode" transform="translate(69.28,80.48)" r="6.5"><circle class="node" r="0" node_type="middle"></circle><text text-anchor="middle" font-size="8" font-weight="bold" y="2.5" class="node-label"></text></g><g class="noselect gnode" transform="translate(30.95,178.29)" r="6.5"><circle class="node" r="0" node_type="middle"></circle><text text-anchor="middle" font-size="8" font-weight="bold" y="2.5" class="node-label"></text></g><g class="noselect gnode" transform="translate(24.05,190.85)" r="6.5"><circle class="node" r="0" node_type="middle"></circle><text text-anchor="middle" font-size="8" font-weight="bold" y="2.5" class="node-label"></text></g><g class="noselect gnode" transform="translate(11.71,175.04)" r="6.5"><circle class="node" r="0" node_type="middle"></circle><text text-anchor="middle" font-size="8" font-weight="bold" y="2.5" class="node-label"></text></g><g class="noselect gnode" transform="translate(75.06,57.49)" r="6.5"><circle class="node" r="0" node_type="middle"></circle><text text-anchor="middle" font-size="8" font-weight="bold" y="2.5" class="node-label"></text></g><g class="noselect gnode" transform="translate(65.64,98.84)" r="6.5"><circle class="node" r="0" node_type="middle"></circle><text text-anchor="middle" font-size="8" font-weight="bold" y="2.5" class="node-label"></text></g></g><line class="drag_line" x1="0" y1="0" x2="0" y2="0"></line></g></g></svg>