<svg xmlns="http://www.w3.org/2000/svg" viewBox="0 0 760 640" width="760" height="640"><style>svg {
  display: block;
  min-width: 100%;
  width: 100%;
  min-height: 100%;
}

circle.node {
  stroke: #ccc;
  stroke-width: 1px;
  opacity: 1;
  fill: white;
}

circle.node.label {
    stroke: transparent;
    stroke-width: 0;
    fill: white;
}

circle.outline_node {
    stroke-width: 1px;
    fill: red;
}

circle.protein {
    fill: gray;
    fill-opacity: 0.5;
    stroke-width: 4;
}

circle.hidden_outline {
    stroke-width: 0px;
}


line.link {
  stroke: #999;
  stroke-opacity: 0.8;
  stroke-width: 2;
}

line.basepair {
  stroke: red;
}

line.intermolecule {
  stroke: blue;
}

line.chain_chain {
  stroke-dasharray: 3,3;
}

line.fake {
  stroke: green;
}

.transparent {
    fill: transparent;
    stroke-width: 0;
    stroke-opacity: 0;
    opacity: 0;
    visibility: hidden;
}

.drag_line {
  stroke: #999;
  stroke-width: 2;
  pointer-events: none;
}

.drag_line_hidden {
  stroke: #999;
  stroke-width: 0;
  pointer-events: none;
}

.d3-tip {
    line-height: 1;
    font-weight: bold;
    padding: 6px;
    background: rgba(0, 0, 0, 0.6);
    color: #fff;
    border-radius: 4px;
    pointer-events: none;
          }

text.node-label {
    font-weight: bold;
    font-family: Tahoma, Geneva, sans-serif;
    color: rgb(100,100,100);
    pointer-events: none;
}

text {
    pointer-events: none;
}

g.gnode {

}

circle.outline_node.selected {
    visibility: visible;
}

circle.outline_node {
    visibility: hidden;
}

.brush .extent {
  fill-opacity: .1;
  stroke: #fff;
  shape-rendering: crispEdges;
}

.noselect {
    -webkit-touch-callout: none;
    -webkit-user-select: none;
    -khtml-user-select: none;
    -moz-user-select: none;
    -ms-user-select: none;
    user-select: none;
}

svg {
  display: block;
  min-width: 100%;
  width: 100%;
  min-height: 100%;
}

circle.node {
  stroke: #ccc;
  stroke-width: 1px;
  opacity: 1;
  fill: white;
}

circle.node.label {
    stroke: transparent;
    stroke-width: 0;
    fill: white;
}

circle.outline_node {
    stroke-width: 1px;
    fill: red;
}

circle.protein {
    fill: gray;
    fill-opacity: 0.5;
    stroke-width: 4;
}

circle.hidden_outline {
    stroke-width: 0px;
}


line.link {
  stroke: #999;
  stroke-opacity: 0.8;
  stroke-width: 2;
}

line.basepair {
  stroke: red;
}

line.intermolecule {
  stroke: blue;
}

line.chain_chain {
  stroke-dasharray: 3,3;
}

line.fake {
  stroke: green;
}

.transparent {
    fill: transparent;
    stroke-width: 0;
    stroke-opacity: 0;
    opacity: 0;
    visibility: hidden;
}

.drag_line {
  stroke: #999;
  stroke-width: 2;
  pointer-events: none;
}

.drag_line_hidden {
  stroke: #999;
  stroke-width: 0;
  pointer-events: none;
}

.d3-tip {
    line-height: 1;
    font-weight: bold;
    padding: 6px;
    background: rgba(0, 0, 0, 0.6);
    color: #fff;
    border-radius: 4px;
    pointer-events: none;
          }

text.node-label {
    font-weight: bold;
    font-family: Tahoma, Geneva, sans-serif;
    color: rgb(100,100,100);
    pointer-events: none;
}

text {
    pointer-events: none;
}

g.gnode {

}

circle.outline_node.selected {
    visibility: visible;
}

circle.outline_node {
    visibility: hidden;
}

.brush .extent {
  fill-opacity: .1;
  stroke: #fff;
  shape-rendering: crispEdges;
}

.noselect {
    -webkit-touch-callout: none;
    -webkit-user-select: none;
    -khtml-user-select: none;
    -moz-user-select: none;
    -ms-user-select: none;
    user-select: none;
}
/*# sourceURL=/Users/yumanakamura/ipy_sandbox/sandbox/claude_sandbox/mrna-transformer-worktrees/feat-issue57-switch-derna-knotty/scripts/eval/prerender/forna_vendor/fornac.css*/</style><style></style><g><g class="brush" style="pointer-events: all; -webkit-tap-highlight-color: rgba(0, 0, 0, 0);"><rect class="background" x="0" width="760" y="0" height="640" style="visibility: hidden; cursor: auto;"></rect><rect class="extent" x="0" width="0" y="0" height="0" style="cursor: move;"></rect><g class="resize n" transform="translate(0,0)" style="cursor: ns-resize; display: none;"><rect y="-3" width="0" height="6" style="visibility: hidden;"></rect></g><g class="resize e" transform="translate(0,0)" style="cursor: ew-resize; display: none;"><rect x="-3" width="6" height="0" style="visibility: hidden;"></rect></g><g class="resize s" transform="translate(0,0)" style="cursor: ns-resize; display: none;"><rect y="-3" width="0" height="6" style="visibility: hidden;"></rect></g><g class="resize w" transform="translate(0,0)" style="cursor: ew-resize; display: none;"><rect x="-3" width="6" height="0" style="visibility: hidden;"></rect></g><g class="resize nw" transform="translate(0,0)" style="cursor: nwse-resize; display: none;"><rect x="-3" y="-3" width="6" height="6" style="visibility: hidden;"></rect></g><g class="resize ne" transform="translate(0,0)" style="cursor: nesw-resize; display: none;"><rect x="-3" y="-3" width="6" height="6" style="visibility: hidden;"></rect></g><g class="resize se" transform="translate(0,0)" style="cursor: nwse-resize; display: none;"><rect x="-3" y="-3" width="6" height="6" style="visibility: hidden;"></rect></g><g class="resize sw" transform="translate(0,0)" style="cursor: nesw-resize; display: none;"><rect x="-3" y="-3" width="6" height="6" style="visibility: hidden;"></rect></g></g><g transform="translate(236.40,95.64) scale(3.61)"><g><line class="link backbone" x1="12.38" y1="133.22" x2="1.76" y2="122.67"></line><line class="link backbone" x1="1.76" y1="122.67" x2="-3.95" y2="108.72"></line><line class="link backbone" x1="-3.95" y1="108.72" x2="-3.87" y2="93.65"></line><line class="link backbone" x1="-3.87" y1="93.65" x2="2.21" y2="79.65"></line><line class="link backbone" x1="2.21" y1="79.65" x2="12.97" y2="69.05"></line><line class="link basepair" x1="27.11" y1="62.58" x2="42.16" y2="63.09"></line><line class="link backbone" x1="12.97" y1="69.05" x2="27.11" y2="62.58"></line><line class="link basepair" x1="28.11" y1="46.53" x2="42.58" y2="47.32"></line><line class="link backbone" x1="27.11" y1="62.58" x2="28.11" y2="46.53"></line><line class="link basepair" x1="29.15" y1="30.33" x2="43.69" y2="31.43"></line><line class="link backbone" x1="28.11" y1="46.53" x2="29.15" y2="30.33"></line><line class="link basepair" x1="30.31" y1="14.46" x2="45.14" y2="15.77"></line><line class="link backbone" x1="29.15" y1="30.33" x2="30.31" y2="14.46"></line><line class="link backbone" x1="30.31" y1="14.46" x2="23.97" y2="0.34"></line><line class="link backbone" x1="23.97" y1="0.34" x2="32.63" y2="-11.72"></line><line class="link backbone" x1="32.63" y1="-11.72" x2="47.54" y2="-10.37"></line><line class="link backbone" x1="47.54" y1="-10.37" x2="53.95" y2="3.10"></line><line class="link basepair" x1="45.14" y1="15.77" x2="30.31" y2="14.46"></line><line class="link backbone" x1="53.95" y1="3.10" x2="45.14" y2="15.77"></line><line class="link basepair" x1="43.69" y1="31.43" x2="29.15" y2="30.33"></line><line class="link backbone" x1="45.14" y1="15.77" x2="43.69" y2="31.43"></line><line class="link basepair" x1="42.58" y1="47.32" x2="28.11" y2="46.53"></line><line class="link backbone" x1="43.69" y1="31.43" x2="42.58" y2="47.32"></line><line class="link basepair" x1="42.16" y1="63.09" x2="27.11" y2="62.58"></line><line class="link backbone" x1="42.58" y1="47.32" x2="42.16" y2="63.09"></line><line class="link backbone" x1="42.16" y1="63.09" x2="56.05" y2="69.91"></line><line class="link backbone" x1="56.05" y1="69.91" x2="66.46" y2="80.94"></line><line class="link backbone" x1="66.46" y1="80.94" x2="71.88" y2="95.20"></line><line class="link backbone" x1="71.88" y1="95.20" x2="71.37" y2="110.24"></line><line class="link backbone" x1="71.37" y1="110.24" x2="65.17" y2="123.97"></line><line class="link backbone" x1="65.17" y1="123.97" x2="54.10" y2="134.06"></line><line class="link label_link" x1="30.31" y1="14.46" x2="15.71" y2="9.03"></line><line class="link label_link" x1="66.46" y1="80.94" x2="81.94" y2="82.11"></line><line class="link fake transparent" x1="27.11" y1="62.58" x2="34.90" y2="55.06"></line><line class="link fake transparent" x1="27.11" y1="62.58" x2="42.58" y2="47.32"></line><line class="link fake transparent" x1="28.11" y1="46.53" x2="34.90" y2="55.06"></line><line class="link fake transparent" x1="42.58" y1="47.32" x2="34.90" y2="55.06"></line><line class="link fake transparent" x1="42.16" y1="63.09" x2="34.90" y2="55.06"></line><line class="link fake transparent" x1="28.11" y1="46.53" x2="35.79" y2="38.89"></line><line class="link fake transparent" x1="29.15" y1="30.33" x2="35.79" y2="38.89"></line><line class="link fake transparent" x1="43.69" y1="31.43" x2="35.79" y2="38.89"></line><line class="link fake transparent" x1="42.58" y1="47.32" x2="35.79" y2="38.89"></line><line class="link fake transparent" x1="29.15" y1="30.33" x2="37.03" y2="22.95"></line><line class="link fake transparent" x1="30.31" y1="14.46" x2="37.03" y2="22.95"></line><line class="link fake transparent" x1="45.14" y1="15.77" x2="37.03" y2="22.95"></line><line class="link fake transparent" x1="43.69" y1="31.43" x2="37.03" y2="22.95"></line><line class="link fake transparent" x1="12.38" y1="133.22" x2="33.89" y2="101.03"></line><line class="link fake transparent" x1="12.38" y1="133.22" x2="56.05" y2="69.91"></line><line class="link fake transparent" x1="1.76" y1="122.67" x2="33.89" y2="101.03"></line><line class="link fake transparent" x1="1.76" y1="122.67" x2="66.46" y2="80.94"></line><line class="link fake transparent" x1="-3.95" y1="108.72" x2="33.89" y2="101.03"></line><line class="link fake transparent" x1="-3.95" y1="108.72" x2="71.88" y2="95.20"></line><line class="link fake transparent" x1="-3.87" y1="93.65" x2="33.89" y2="101.03"></line><line class="link fake transparent" x1="-3.87" y1="93.65" x2="71.37" y2="110.24"></line><line class="link fake transparent" x1="2.21" y1="79.65" x2="33.89" y2="101.03"></line><line class="link fake transparent" x1="2.21" y1="79.65" x2="65.17" y2="123.97"></line><line class="link fake transparent" x1="12.97" y1="69.05" x2="33.89" y2="101.03"></line><line class="link fake transparent" x1="12.97" y1="69.05" x2="54.10" y2="134.06"></line><line class="link fake transparent" x1="27.11" y1="62.58" x2="33.89" y2="101.03"></line><line class="link fake transparent" x1="27.11" y1="62.58" x2="39.71" y2="138.70"></line><line class="link fake transparent" x1="42.16" y1="63.09" x2="33.89" y2="101.03"></line><line class="link fake transparent" x1="42.16" y1="63.09" x2="25.01" y2="138.30"></line><line class="link fake transparent" x1="56.05" y1="69.91" x2="33.89" y2="101.03"></line><line class="link fake transparent" x1="56.05" y1="69.91" x2="12.38" y2="133.22"></line><line class="link fake transparent" x1="66.46" y1="80.94" x2="33.89" y2="101.03"></line><line class="link fake transparent" x1="66.46" y1="80.94" x2="1.76" y2="122.67"></line><line class="link fake transparent" x1="71.88" y1="95.20" x2="33.89" y2="101.03"></line><line class="link fake transparent" x1="71.88" y1="95.20" x2="-3.95" y2="108.72"></line><line class="link fake transparent" x1="71.37" y1="110.24" x2="33.89" y2="101.03"></line><line class="link fake transparent" x1="71.37" y1="110.24" x2="-3.87" y2="93.65"></line><line class="link fake transparent" x1="65.17" y1="123.97" x2="33.89" y2="101.03"></line><line class="link fake transparent" x1="65.17" y1="123.97" x2="2.21" y2="79.65"></line><line class="link fake transparent" x1="54.10" y1="134.06" x2="33.89" y2="101.03"></line><line class="link fake transparent" x1="54.10" y1="134.06" x2="12.97" y2="69.05"></line><line class="link fake transparent" x1="30.31" y1="14.46" x2="38.92" y2="1.98"></line><line class="link fake transparent" x1="30.31" y1="14.46" x2="47.54" y2="-10.37"></line><line class="link fake transparent" x1="23.97" y1="0.34" x2="38.92" y2="1.98"></line><line class="link fake transparent" x1="23.97" y1="0.34" x2="53.95" y2="3.10"></line><line class="link fake transparent" x1="32.63" y1="-11.72" x2="38.92" y2="1.98"></line><line class="link fake transparent" x1="32.63" y1="-11.72" x2="45.14" y2="15.77"></line><line class="link fake transparent" x1="47.54" y1="-10.37" x2="38.92" y2="1.98"></line><line class="link fake transparent" x1="47.54" y1="-10.37" x2="30.31" y2="14.46"></line><line class="link fake transparent" x1="53.95" y1="3.10" x2="38.92" y2="1.98"></line><line class="link fake transparent" x1="53.95" y1="3.10" x2="23.97" y2="0.34"></line><line class="link fake transparent" x1="45.14" y1="15.77" x2="38.92" y2="1.98"></line><line class="link fake transparent" x1="45.14" y1="15.77" x2="32.63" y2="-11.72"></line></g><g><g class="noselect gnode" struct_name="m" transform="translate(12.38,133.22)" r="6.5"><circle class="node" r="6" node_type="nucleotide" style="fill: lightsalmon;"></circle><text text-anchor="middle" font-size="8" font-weight="bold" y="2.5" class="node-label">C</text></g><g class="noselect gnode" struct_name="m" transform="translate(1.76,122.67)" r="6.5"><circle class="node" r="6" node_type="nucleotide" style="fill: lightsalmon;"></circle><text text-anchor="middle" font-size="8" font-weight="bold" y="2.5" class="node-label">G</text></g><g class="noselect gnode" struct_name="m" transform="translate(-3.95,108.72)" r="6.5"><circle class="node" r="6" node_type="nucleotide" style="fill: lightsalmon;"></circle><text text-anchor="middle" font-size="8" font-weight="bold" y="2.5" class="node-label">A</text></g><g class="noselect gnode" struct_name="m" transform="translate(-3.87,93.65)" r="6.5"><circle class="node" r="6" node_type="nucleotide" style="fill: lightsalmon;"></circle><text text-anchor="middle" font-size="8" font-weight="bold" y="2.5" class="node-label">U</text></g><g class="noselect gnode" struct_name="m" transform="translate(2.21,79.65)" r="6.5"><circle class="node" r="6" node_type="nucleotide" style="fill: lightsalmon;"></circle><text text-anchor="middle" font-size="8" font-weight="bold" y="2.5" class="node-label">U</text></g><g class="noselect gnode" struct_name="m" transform="translate(12.97,69.05)" r="6.5"><circle class="node" r="6" node_type="nucleotide" style="fill: lightsalmon;"></circle><text text-anchor="middle" font-size="8" font-weight="bold" y="2.5" class="node-label">C</text></g><g class="noselect gnode" struct_name="m" transform="translate(27.11,62.58)" r="6.5"><circle class="node" r="6" node_type="nucleotide" style="fill: lightgreen;"></circle><text text-anchor="middle" font-size="8" font-weight="bold" y="2.5" class="node-label">U</text></g><g class="noselect gnode" struct_name="m" transform="translate(28.11,46.53)" r="6.5"><circle class="node" r="6" node_type="nucleotide" style="fill: lightgreen;"></circle><text text-anchor="middle" font-size="8" font-weight="bold" y="2.5" class="node-label">G</text></g><g class="noselect gnode" struct_name="m" transform="translate(29.15,30.33)" r="6.5"><circle class="node" r="6" node_type="nucleotide" style="fill: lightgreen;"></circle><text text-anchor="middle" font-size="8" font-weight="bold" y="2.5" class="node-label">C</text></g><g class="noselect gnode" struct_name="m" transform="translate(30.31,14.46)" r="6.5"><circle class="node" r="6" node_type="nucleotide" style="fill: lightgreen;"></circle><text text-anchor="middle" font-size="8" font-weight="bold" y="2.5" class="node-label">A</text></g><g class="noselect gnode" struct_name="m" transform="translate(23.97,0.34)" r="6.5"><circle class="node" r="6" node_type="nucleotide" style="fill: lightblue;"></circle><text text-anchor="middle" font-size="8" font-weight="bold" y="2.5" class="node-label">G</text></g><g class="noselect gnode" struct_name="m" transform="translate(32.63,-11.72)" r="6.5"><circle class="node" r="6" node_type="nucleotide" style="fill: lightblue;"></circle><text text-anchor="middle" font-size="8" font-weight="bold" y="2.5" class="node-label">A</text></g><g class="noselect gnode" struct_name="m" transform="translate(47.54,-10.37)" r="6.5"><circle class="node" r="6" node_type="nucleotide" style="fill: lightblue;"></circle><text text-anchor="middle" font-size="8" font-weight="bold" y="2.5" class="node-label">U</text></g><g class="noselect gnode" struct_name="m" transform="translate(53.95,3.10)" r="6.5"><circle class="node" r="6" node_type="nucleotide" style="fill: lightblue;"></circle><text text-anchor="middle" font-size="8" font-weight="bold" y="2.5" class="node-label">A</text></g><g class="noselect gnode" struct_name="m" transform="translate(45.14,15.77)" r="6.5"><circle class="node" r="6" node_type="nucleotide" style="fill: lightgreen;"></circle><text text-anchor="middle" font-size="8" font-weight="bold" y="2.5" class="node-label">U</text></g><g class="noselect gnode" struct_name="m" transform="translate(43.69,31.43)" r="6.5"><circle class="node" r="6" node_type="nucleotide" style="fill: lightgreen;"></circle><text text-anchor="middle" font-size="8" font-weight="bold" y="2.5" class="node-label">G</text></g><g class="noselect gnode" struct_name="m" transform="translate(42.58,47.32)" r="6.5"><circle class="node" r="6" node_type="nucleotide" style="fill: lightgreen;"></circle><text text-anchor="middle" font-size="8" font-weight="bold" y="2.5" class="node-label">C</text></g><g class="noselect gnode" struct_name="m" transform="translate(42.16,63.09)" r="6.5"><circle class="node" r="6" node_type="nucleotide" style="fill: lightgreen;"></circle><text text-anchor="middle" font-size="8" font-weight="bold" y="2.5" class="node-label">A</text></g><g class="noselect gnode" struct_name="m" transform="translate(56.05,69.91)" r="6.5"><circle class="node" r="6" node_type="nucleotide" style="fill: lightsalmon;"></circle><text text-anchor="middle" font-size="8" font-weight="bold" y="2.5" class="node-label">C</text></g><g class="noselect gnode" struct_name="m" transform="translate(66.46,80.94)" r="6.5"><circle class="node" r="6" node_type="nucleotide" style="fill: lightsalmon;"></circle><text text-anchor="middle" font-size="8" font-weight="bold" y="2.5" class="node-label">A</text></g><g class="noselect gnode" struct_name="m" transform="translate(71.88,95.20)" r="6.5"><circle class="node" r="6" node_type="nucleotide" style="fill: lightsalmon;"></circle><text text-anchor="middle" font-size="8" font-weight="bold" y="2.5" class="node-label">U</text></g><g class="noselect gnode" struct_name="m" transform="translate(71.37,110.24)" r="6.5"><circle class="node" r="6" node_type="nucleotide" style="fill: lightsalmon;"></circle><text text-anchor="middle" font-size="8" font-weight="bold" y="2.5" class="node-label">A</text></g><g class="noselect gnode" struct_name="m" transform="translate(65.17,123.97)" r="6.5"><circle class="node" r="6" node_type="nucleotide" style="fill: lightsalmon;"></circle><text text-anchor="middle" font-size="8" font-weight="bold" y="2.5" class="node-label">U</text></g><g class="noselect gnode" struct_name="m" transform="translate(54.10,134.06)" r="6.5"><circle class="node" r="6" node_type="nucleotide" style="fill: lightsalmon;"></circle><text text-anchor="middle" font-size="8" font-weight="bold" y="2.5" class="node-label">C</text></g><g class="noselect gnode" struct_name="m" transform="translate(15.71,9.03)" r="6.5"><circle class="node label" r="6" node_type="label"></circle><text text-anchor="middle" font-size="8" font-weight="bold" y="2.5" class="node-label">10</text></g><g class="noselect gnode" struct_name="m" transform="translate(81.94,82.11)" r="6.5"><circle class="node label" r="6" node_type="label"></circle><text text-anchor="middle" font-size="8" font-weight="bold" y="2.5" class="node-label">20</text></g><g class="noselect gnode" transform="translate(34.90,55.06)" r="6.5"><circle class="node" r="0" node_type="middle"></circle><text text-anchor="middle" font-size="8" font-weight="bold" y="2.5" class="node-label"></text></g><g class="noselect gnode" transform="translate(35.79,38.89)" r="6.5"><circle class="node" r="0" node_type="middle"></circle><text text-anchor="middle" font-size="8" font-weight="bold" y="2.5" class="node-label"></text></g><g class="noselect gnode" transform="translate(37.03,22.95)" r="6.5"><circle class="node" r="0" node_type="middle"></circle><text text-anchor="middle" font-size="8" font-weight="bold" y="2.5" class="node-label"></text></g><g class="noselect gnode" transform="translate(39.71,138.70)" r="6.5"><circle class="node" r="0" node_type="middle"></circle><text text-anchor="middle" font-size="8" font-weight="bold" y="2.5" class="node-label"></text></g><g class="noselect gnode" transform="translate(25.01,138.30)" r="6.5"><circle class="node" r="0" node_type="middle"></circle><text text-anchor="middle" font-size="8" font-weight="bold" y="2.5" class="node-label"></text></g><g class="noselect gnode" transform="translate(33.89,101.03)" r="6.5"><circle class="node" r="0" node_type="middle"></circle><text text-anchor="middle" font-size="8" font-weight="bold" y="2.5" class="node-label"></text></g><g class="noselect gnode" transform="translate(38.92,1.98)" r="6.5"><circle class="node" r="0" node_type="middle"></circle><text text-anchor="middle" font-size="8" font-weight="bold" y="2.5" class="node-label"></text></g></g><line class="drag_line" x1="0" y1="0" x2="0" y2="0"></line></g></g></svg>