<svg xmlns="http://www.w3.org/2000/svg" viewBox="0 0 760 640" width="760" height="640"><style>svg {
  display: block;
  min-width: 100%;
  width: 100%;
  min-height: 100%;
}

circle.node {
  stroke: #ccc;
  stroke-width: 1px;
  opacity: 1;
  fill: white;
}

circle.node.label {
    stroke: transparent;
    stroke-width: 0;
    fill: white;
}

circle.outline_node {
    stroke-width: 1px;
    fill: red;
}

circle.protein {
    fill: gray;
    fill-opacity: 0.5;
    stroke-width: 4;
}

circle.hidden_outline {
    stroke-width: 0px;
}


line.link {
  stroke: #999;
  stroke-opacity: 0.8;
  stroke-width: 2;
}

line.basepair {
  stroke: red;
}

line.intermolecule {
  stroke: blue;
}

line.chain_chain {
  stroke-dasharray: 3,3;
}

line.fake {
  stroke: green;
}

.transparent {
    fill: transparent;
    stroke-width: 0;
    stroke-opacity: 0;
    opacity: 0;
    visibility: hidden;
}

.drag_line {
  stroke: #999;
  stroke-width: 2;
  pointer-events: none;
}

.drag_line_hidden {
  stroke: #999;
  stroke-width: 0;
  pointer-events: none;
}

.d3-tip {
    line-height: 1;
    font-weight: bold;
    padding: 6px;
    background: rgba(0, 0, 0, 0.6);
    color: #fff;
    border-radius: 4px;
    pointer-events: none;
          }

text.node-label {
    font-weight: bold;
    font-family: Tahoma, Geneva, sans-serif;
    color: rgb(100,100,100);
    pointer-events: none;
}

text {
    pointer-events: none;
}

g.gnode {

}

circle.outline_node.selected {
    visibility: visible;
}

circle.outline_node {
    visibility: hidden;
}

.brush .extent {
  fill-opacity: .1;
  stroke: #fff;
  shape-rendering: crispEdges;
}

.noselect {
    -webkit-touch-callout: none;
    -webkit-user-select: none;
    -khtml-user-select: none;
    -moz-user-select: none;
    -ms-user-select: none;
    user-select: none;
}

svg {
  display: block;
  min-width: 100%;
  width: 100%;
  min-height: 100%;
}

circle.node {
  stroke: #ccc;
  stroke-width: 1px;
  opacity: 1;
  fill: white;
}

circle.node.label {
    stroke: transparent;
    stroke-width: 0;
    fill: white;
}

circle.outline_node {
    stroke-width: 1px;
    fill: red;
}

circle.protein {
    fill: gray;
    fill-opacity: 0.5;
    stroke-width: 4;
}

circle.hidden_outline {
    stroke-width: 0px;
}


line.link {
  stroke: #999;
  stroke-opacity: 0.8;
  stroke-width: 2;
}

line.basepair {
  stroke: red;
}

line.intermolecule {
  stroke: blue;
}

line.chain_chain {
  stroke-dasharray: 3,3;
}

line.fake {
  stroke: green;
}

.transparent {
    fill: transparent;
    stroke-width: 0;
    stroke-opacity: 0;
    opacity: 0;
    visibility: hidden;
}

.drag_line {
  stroke: #999;
  stroke-width: 2;
  pointer-events: none;
}

.drag_line_hidden {
  stroke: #999;
  stroke-width: 0;
  pointer-events: none;
}

.d3-tip {
    line-height: 1;
    font-weight: bold;
    padding: 6px;
    background: rgba(0, 0, 0, 0.6);
    color: #fff;
    border-radius: 4px;
    pointer-events: none;
          }

text.node-label {
    font-weight: bold;
    font-family: Tahoma, Geneva, sans-serif;
    color: rgb(100,100,100);
    pointer-events: none;
}

text {
    pointer-events: none;
}

g.gnode {

}

circle.outline_node.selected {
    visibility: visible;
}

circle.outline_node {
    visibility: hidden;
}

.brush .extent {
  fill-opacity: .1;
  stroke: #fff;
  shape-rendering: crispEdges;
}

.noselect {
    -webkit-touch-callout: none;
    -webkit-user-select: none;
    -khtml-user-select: none;
    -moz-user-select: none;
    -ms-user-select: none;
    user-select: none;
}
/*# sourceURL=/Users/yumanakamura/ipy_sandbox/sandbox/claude_sandbox/mrna-transformer-worktrees/feat-issue57-switch-derna-knotty/scripts/eval/prerender/forna_vendor/fornac.css*/</style><style></style><g><g class="brush" style="pointer-events: all; -webkit-tap-highlight-color: rgba(0, 0, 0, 0);"><rect class="background" x="0" width="760" y="0" height="640" style="visibility: hidden; cursor: auto;"></rect><rect class="extent" x="0" width="0" y="0" height="0" style="cursor: move;"></rect><g class="resize n" transform="translate(0,0)" style="cursor: ns-resize; display: none;"><rect y="-3" width="0" height="6" style="visibility: hidden;"></rect></g><g class="resize e" transform="translate(0,0)" style="cursor: ew-resize; display: none;"><rect x="-3" width="6" height="0" style="visibility: hidden;"></rect></g><g class="resize s" transform="translate(0,0)" style="cursor: ns-resize; display: none;"><rect y="-3" width="0" height="6" style="visibility: hidden;"></rect></g><g class="resize w" transform="translate(0,0)" style="cursor: ew-resize; display: none;"><rect x="-3" width="6" height="0" style="visibility: hidden;"></rect></g><g class="resize nw" transform="translate(0,0)" style="cursor: nwse-resize; display: none;"><rect x="-3" y="-3" width="6" height="6" style="visibility: hidden;"></rect></g><g class="resize ne" transform="translate(0,0)" style="cursor: nesw-resize; display: none;"><rect x="-3" y="-3" width="6" height="6" style="visibility: hidden;"></rect></g><g class="resize se" transform="translate(0,0)" style="cursor: nwse-resize; display: none;"><rect x="-3" y="-3" width="6" height="6" style="visibility: hidden;"></rect></g><g class="resize sw" transform="translate(0,0)" style="cursor: nesw-resize; display: none;"><rect x="-3" y="-3" width="6" height="6" style="visibility: hidden;"></rect></g></g><g transform="translate(119.37,106.19) scale(3.79)"><g><line class="link backbone" x1="31.23" y1="127.82" x2="16.36" y2="129.22"></line><line class="link backbone" x1="16.36" y1="129.22" x2="2.98" y2="122.47"></line><line class="link backbone" x1="2.98" y1="122.47" x2="-4.89" y2="109.74"></line><line class="link backbone" x1="-4.89" y1="109.74" x2="-4.73" y2="94.69"></line><line class="link backbone" x1="-4.73" y1="94.69" x2="3.90" y2="82.23"></line><line class="link backbone" x1="3.90" y1="82.23" x2="17.56" y2="76.23"></line><line class="link basepair" x1="32.92" y1="78.26" x2="43.93" y2="88.25"></line><line class="link backbone" x1="17.56" y1="76.23" x2="32.92" y2="78.26"></line><line class="link basepair" x1="44.34" y1="66.69" x2="54.62" y2="76.93"></line><line class="link backbone" x1="32.92" y1="78.26" x2="44.34" y2="66.69"></line><line class="link basepair" x1="55.94" y1="55.30" x2="66.09" y2="65.67"></line><line class="link backbone" x1="44.34" y1="66.69" x2="55.94" y2="55.30"></line><line class="link basepair" x1="67.52" y1="43.98" x2="77.67" y2="54.29"></line><line class="link backbone" x1="55.94" y1="55.30" x2="67.52" y2="43.98"></line><line class="link basepair" x1="78.94" y1="32.60" x2="89.21" y2="42.83"></line><line class="link backbone" x1="67.52" y1="43.98" x2="78.94" y2="32.60"></line><line class="link basepair" x1="89.92" y1="21.16" x2="100.59" y2="31.61"></line><line class="link backbone" x1="78.94" y1="32.60" x2="89.92" y2="21.16"></line><line class="link backbone" x1="89.92" y1="21.16" x2="87.70" y2="5.94"></line><line class="link backbone" x1="87.70" y1="5.94" x2="94.26" y2="-7.42"></line><line class="link backbone" x1="94.26" y1="-7.42" x2="107.59" y2="-14.53"></line><line class="link backbone" x1="107.59" y1="-14.53" x2="122.36" y2="-12.06"></line><line class="link backbone" x1="122.36" y1="-12.06" x2="133.05" y2="-1.66"></line><line class="link backbone" x1="133.05" y1="-1.66" x2="135.86" y2="13.06"></line><line class="link backbone" x1="135.86" y1="13.06" x2="129.08" y2="26.60"></line><line class="link backbone" x1="129.08" y1="26.60" x2="115.85" y2="33.47"></line><line class="link basepair" x1="100.59" y1="31.61" x2="89.92" y2="21.16"></line><line class="link backbone" x1="115.85" y1="33.47" x2="100.59" y2="31.61"></line><line class="link basepair" x1="89.21" y1="42.83" x2="78.94" y2="32.60"></line><line class="link backbone" x1="100.59" y1="31.61" x2="89.21" y2="42.83"></line><line class="link basepair" x1="77.67" y1="54.29" x2="67.52" y2="43.98"></line><line class="link backbone" x1="89.21" y1="42.83" x2="77.67" y2="54.29"></line><line class="link basepair" x1="66.09" y1="65.67" x2="55.94" y2="55.30"></line><line class="link backbone" x1="77.67" y1="54.29" x2="66.09" y2="65.67"></line><line class="link basepair" x1="54.62" y1="76.93" x2="44.34" y2="66.69"></line><line class="link backbone" x1="66.09" y1="65.67" x2="54.62" y2="76.93"></line><line class="link basepair" x1="43.93" y1="88.25" x2="32.92" y2="78.26"></line><line class="link backbone" x1="54.62" y1="76.93" x2="43.93" y2="88.25"></line><line class="link label_link" x1="55.94" y1="55.30" x2="43.90" y2="45.40"></line><line class="link label_link" x1="129.08" y1="26.60" x2="142.74" y2="33.84"></line><line class="link fake transparent" x1="32.92" y1="78.26" x2="43.74" y2="77.53"></line><line class="link fake transparent" x1="32.92" y1="78.26" x2="54.62" y2="76.93"></line><line class="link fake transparent" x1="44.34" y1="66.69" x2="43.74" y2="77.53"></line><line class="link fake transparent" x1="54.62" y1="76.93" x2="43.74" y2="77.53"></line><line class="link fake transparent" x1="43.93" y1="88.25" x2="43.74" y2="77.53"></line><line class="link fake transparent" x1="44.34" y1="66.69" x2="55.21" y2="66.15"></line><line class="link fake transparent" x1="55.94" y1="55.30" x2="55.21" y2="66.15"></line><line class="link fake transparent" x1="66.09" y1="65.67" x2="55.21" y2="66.15"></line><line class="link fake transparent" x1="54.62" y1="76.93" x2="55.21" y2="66.15"></line><line class="link fake transparent" x1="55.94" y1="55.30" x2="66.82" y2="54.83"></line><line class="link fake transparent" x1="67.52" y1="43.98" x2="66.82" y2="54.83"></line><line class="link fake transparent" x1="77.67" y1="54.29" x2="66.82" y2="54.83"></line><line class="link fake transparent" x1="66.09" y1="65.67" x2="66.82" y2="54.83"></line><line class="link fake transparent" x1="67.52" y1="43.98" x2="78.38" y2="43.44"></line><line class="link fake transparent" x1="78.94" y1="32.60" x2="78.38" y2="43.44"></line><line class="link fake transparent" x1="89.21" y1="42.83" x2="78.38" y2="43.44"></line><line class="link fake transparent" x1="77.67" y1="54.29" x2="78.38" y2="43.44"></line><line class="link fake transparent" x1="78.94" y1="32.60" x2="89.74" y2="32.02"></line><line class="link fake transparent" x1="89.92" y1="21.16" x2="89.74" y2="32.02"></line><line class="link fake transparent" x1="100.59" y1="31.61" x2="89.74" y2="32.02"></line><line class="link fake transparent" x1="89.21" y1="42.83" x2="89.74" y2="32.02"></line><line class="link fake transparent" x1="31.23" y1="127.82" x2="21.14" y2="102.59"></line><line class="link fake transparent" x1="31.23" y1="127.82" x2="3.90" y2="82.23"></line><line class="link fake transparent" x1="16.36" y1="129.22" x2="21.14" y2="102.59"></line><line class="link fake transparent" x1="16.36" y1="129.22" x2="17.56" y2="76.23"></line><line class="link fake transparent" x1="2.98" y1="122.47" x2="21.14" y2="102.59"></line><line class="link fake transparent" x1="2.98" y1="122.47" x2="32.92" y2="78.26"></line><line class="link fake transparent" x1="-4.89" y1="109.74" x2="21.14" y2="102.59"></line><line class="link fake transparent" x1="-4.89" y1="109.74" x2="43.93" y2="88.25"></line><line class="link fake transparent" x1="-4.73" y1="94.69" x2="21.14" y2="102.59"></line><line class="link fake transparent" x1="-4.73" y1="94.69" x2="47.61" y2="103.62"></line><line class="link fake transparent" x1="3.90" y1="82.23" x2="21.14" y2="102.59"></line><line class="link fake transparent" x1="3.90" y1="82.23" x2="44.43" y2="117.22"></line><line class="link fake transparent" x1="17.56" y1="76.23" x2="21.14" y2="102.59"></line><line class="link fake transparent" x1="17.56" y1="76.23" x2="31.23" y2="127.82"></line><line class="link fake transparent" x1="32.92" y1="78.26" x2="21.14" y2="102.59"></line><line class="link fake transparent" x1="32.92" y1="78.26" x2="16.36" y2="129.22"></line><line class="link fake transparent" x1="43.93" y1="88.25" x2="21.14" y2="102.59"></line><line class="link fake transparent" x1="43.93" y1="88.25" x2="2.98" y2="122.47"></line><line class="link fake transparent" x1="89.92" y1="21.16" x2="111.53" y2="9.74"></line><line class="link fake transparent" x1="89.92" y1="21.16" x2="133.05" y2="-1.66"></line><line class="link fake transparent" x1="87.70" y1="5.94" x2="111.53" y2="9.74"></line><line class="link fake transparent" x1="87.70" y1="5.94" x2="135.86" y2="13.06"></line><line class="link fake transparent" x1="94.26" y1="-7.42" x2="111.53" y2="9.74"></line><line class="link fake transparent" x1="94.26" y1="-7.42" x2="129.08" y2="26.60"></line><line class="link fake transparent" x1="107.59" y1="-14.53" x2="111.53" y2="9.74"></line><line class="link fake transparent" x1="107.59" y1="-14.53" x2="115.85" y2="33.47"></line><line class="link fake transparent" x1="122.36" y1="-12.06" x2="111.53" y2="9.74"></line><line class="link fake transparent" x1="122.36" y1="-12.06" x2="100.59" y2="31.61"></line><line class="link fake transparent" x1="133.05" y1="-1.66" x2="111.53" y2="9.74"></line><line class="link fake transparent" x1="133.05" y1="-1.66" x2="89.92" y2="21.16"></line><line class="link fake transparent" x1="135.86" y1="13.06" x2="111.53" y2="9.74"></line><line class="link fake transparent" x1="135.86" y1="13.06" x2="87.70" y2="5.94"></line><line class="link fake transparent" x1="129.08" y1="26.60" x2="111.53" y2="9.74"></line><line class="link fake transparent" x1="129.08" y1="26.60" x2="94.26" y2="-7.42"></line><line class="link fake transparent" x1="115.85" y1="33.47" x2="111.53" y2="9.74"></line><line class="link fake transparent" x1="115.85" y1="33.47" x2="107.59" y2="-14.53"></line><line class="link fake transparent" x1="100.59" y1="31.61" x2="111.53" y2="9.74"></line><line class="link fake transparent" x1="100.59" y1="31.61" x2="122.36" y2="-12.06"></line></g><g><g class="noselect gnode" struct_name="m" transform="translate(31.23,127.82)" r="6.5"><circle class="node" r="6" node_type="nucleotide" style="fill: lightsalmon;"></circle><text text-anchor="middle" font-size="8" font-weight="bold" y="2.5" class="node-label">C</text></g><g class="noselect gnode" struct_name="m" transform="translate(16.36,129.22)" r="6.5"><circle class="node" r="6" node_type="nucleotide" style="fill: lightsalmon;"></circle><text text-anchor="middle" font-size="8" font-weight="bold" y="2.5" class="node-label">A</text></g><g class="noselect gnode" struct_name="m" transform="translate(2.98,122.47)" r="6.5"><circle class="node" r="6" node_type="nucleotide" style="fill: lightsalmon;"></circle><text text-anchor="middle" font-size="8" font-weight="bold" y="2.5" class="node-label">U</text></g><g class="noselect gnode" struct_name="m" transform="translate(-4.89,109.74)" r="6.5"><circle class="node" r="6" node_type="nucleotide" style="fill: lightsalmon;"></circle><text text-anchor="middle" font-size="8" font-weight="bold" y="2.5" class="node-label">C</text></g><g class="noselect gnode" struct_name="m" transform="translate(-4.73,94.69)" r="6.5"><circle class="node" r="6" node_type="nucleotide" style="fill: lightsalmon;"></circle><text text-anchor="middle" font-size="8" font-weight="bold" y="2.5" class="node-label">G</text></g><g class="noselect gnode" struct_name="m" transform="translate(3.90,82.23)" r="6.5"><circle class="node" r="6" node_type="nucleotide" style="fill: lightsalmon;"></circle><text text-anchor="middle" font-size="8" font-weight="bold" y="2.5" class="node-label">U</text></g><g class="noselect gnode" struct_name="m" transform="translate(17.56,76.23)" r="6.5"><circle class="node" r="6" node_type="nucleotide" style="fill: lightsalmon;"></circle><text text-anchor="middle" font-size="8" font-weight="bold" y="2.5" class="node-label">A</text></g><g class="noselect gnode" struct_name="m" transform="translate(32.92,78.26)" r="6.5"><circle class="node" r="6" node_type="nucleotide" style="fill: lightgreen;"></circle><text text-anchor="middle" font-size="8" font-weight="bold" y="2.5" class="node-label">C</text></g><g class="noselect gnode" struct_name="m" transform="translate(44.34,66.69)" r="6.5"><circle class="node" r="6" node_type="nucleotide" style="fill: lightgreen;"></circle><text text-anchor="middle" font-size="8" font-weight="bold" y="2.5" class="node-label">G</text></g><g class="noselect gnode" struct_name="m" transform="translate(55.94,55.30)" r="6.5"><circle class="node" r="6" node_type="nucleotide" style="fill: lightgreen;"></circle><text text-anchor="middle" font-size="8" font-weight="bold" y="2.5" class="node-label">G</text></g><g class="noselect gnode" struct_name="m" transform="translate(67.52,43.98)" r="6.5"><circle class="node" r="6" node_type="nucleotide" style="fill: lightgreen;"></circle><text text-anchor="middle" font-size="8" font-weight="bold" y="2.5" class="node-label">A</text></g><g class="noselect gnode" struct_name="m" transform="translate(78.94,32.60)" r="6.5"><circle class="node" r="6" node_type="nucleotide" style="fill: lightgreen;"></circle><text text-anchor="middle" font-size="8" font-weight="bold" y="2.5" class="node-label">U</text></g><g class="noselect gnode" struct_name="m" transform="translate(89.92,21.16)" r="6.5"><circle class="node" r="6" node_type="nucleotide" style="fill: lightgreen;"></circle><text text-anchor="middle" font-size="8" font-weight="bold" y="2.5" class="node-label">C</text></g><g class="noselect gnode" struct_name="m" transform="translate(87.70,5.94)" r="6.5"><circle class="node" r="6" node_type="nucleotide" style="fill: lightblue;"></circle><text text-anchor="middle" font-size="8" font-weight="bold" y="2.5" class="node-label">A</text></g><g class="noselect gnode" struct_name="m" transform="translate(94.26,-7.42)" r="6.5"><circle class="node" r="6" node_type="nucleotide" style="fill: lightblue;"></circle><text text-anchor="middle" font-size="8" font-weight="bold" y="2.5" class="node-label">U</text></g><g class="noselect gnode" struct_name="m" transform="translate(107.59,-14.53)" r="6.5"><circle class="node" r="6" node_type="nucleotide" style="fill: lightblue;"></circle><text text-anchor="middle" font-size="8" font-weight="bold" y="2.5" class="node-label">A</text></g><g class="noselect gnode" struct_name="m" transform="translate(122.36,-12.06)" r="6.5"><circle class="node" r="6" node_type="nucleotide" style="fill: lightblue;"></circle><text text-anchor="middle" font-size="8" font-weight="bold" y="2.5" class="node-label">A</text></g><g class="noselect gnode" struct_name="m" transform="translate(133.05,-1.66)" r="6.5"><circle class="node" r="6" node_type="nucleotide" style="fill: lightblue;"></circle><text text-anchor="middle" font-size="8" font-weight="bold" y="2.5" class="node-label">U</text></g><g class="noselect gnode" struct_name="m" transform="translate(135.86,13.06)" r="6.5"><circle class="node" r="6" node_type="nucleotide" style="fill: lightblue;"></circle><text text-anchor="middle" font-size="8" font-weight="bold" y="2.5" class="node-label">G</text></g><g class="noselect gnode" struct_name="m" transform="translate(129.08,26.60)" r="6.5"><circle class="node" r="6" node_type="nucleotide" style="fill: lightblue;"></circle><text text-anchor="middle" font-size="8" font-weight="bold" y="2.5" class="node-label">A</text></g><g class="noselect gnode" struct_name="m" transform="translate(115.85,33.47)" r="6.5"><circle class="node" r="6" node_type="nucleotide" style="fill: lightblue;"></circle><text text-anchor="middle" font-size="8" font-weight="bold" y="2.5" class="node-label">A</text></g><g class="noselect gnode" struct_name="m" transform="translate(100.59,31.61)" r="6.5"><circle class="node" r="6" node_type="nucleotide" style="fill: lightgreen;"></circle><text text-anchor="middle" font-size="8" font-weight="bold" y="2.5" class="node-label">G</text></g><g class="noselect gnode" struct_name="m" transform="translate(89.21,42.83)" r="6.5"><circle class="node" r="6" node_type="nucleotide" style="fill: lightgreen;"></circle><text text-anchor="middle" font-size="8" font-weight="bold" y="2.5" class="node-label">A</text></g><g class="noselect gnode" struct_name="m" transform="translate(77.67,54.29)" r="6.5"><circle class="node" r="6" node_type="nucleotide" style="fill: lightgreen;"></circle><text text-anchor="middle" font-size="8" font-weight="bold" y="2.5" class="node-label">U</text></g><g class="noselect gnode" struct_name="m" transform="translate(66.09,65.67)" r="6.5"><circle class="node" r="6" node_type="nucleotide" style="fill: lightgreen;"></circle><text text-anchor="middle" font-size="8" font-weight="bold" y="2.5" class="node-label">U</text></g><g class="noselect gnode" struct_name="m" transform="translate(54.62,76.93)" r="6.5"><circle class="node" r="6" node_type="nucleotide" style="fill: lightgreen;"></circle><text text-anchor="middle" font-size="8" font-weight="bold" y="2.5" class="node-label">C</text></g><g class="noselect gnode" struct_name="m" transform="translate(43.93,88.25)" r="6.5"><circle class="node" r="6" node_type="nucleotide" style="fill: lightgreen;"></circle><text text-anchor="middle" font-size="8" font-weight="bold" y="2.5" class="node-label">G</text></g><g class="noselect gnode" struct_name="m" transform="translate(43.90,45.40)" r="6.5"><circle class="node label" r="6" node_type="label"></circle><text text-anchor="middle" font-size="8" font-weight="bold" y="2.5" class="node-label">10</text></g><g class="noselect gnode" struct_name="m" transform="translate(142.74,33.84)" r="6.5"><circle class="node label" r="6" node_type="label"></circle><text text-anchor="middle" font-size="8" font-weight="bold" y="2.5" class="node-label">20</text></g><g class="noselect gnode" transform="translate(43.74,77.53)" r="6.5"><circle class="node" r="0" node_type="middle"></circle><text text-anchor="middle" font-size="8" font-weight="bold" y="2.5" class="node-label"></text></g><g class="noselect gnode" transform="translate(55.21,66.15)" r="6.5"><circle class="node" r="0" node_type="middle"></circle><text text-anchor="middle" font-size="8" font-weight="bold" y="2.5" class="node-label"></text></g><g class="noselect gnode" transform="translate(66.82,54.83)" r="6.5"><circle class="node" r="0" node_type="middle"></circle><text text-anchor="middle" font-size="8" font-weight="bold" y="2.5" class="node-label"></text></g><g class="noselect gnode" transform="translate(78.38,43.44)" r="6.5"><circle class="node" r="0" node_type="middle"></circle><text text-anchor="middle" font-size="8" font-weight="bold" y="2.5" class="node-label"></text></g><g class="noselect gnode" transform="translate(89.74,32.02)" r="6.5"><circle class="node" r="0" node_type="middle"></circle><text text-anchor="middle" font-size="8" font-weight="bold" y="2.5" class="node-label"></text></g><g class="noselect gnode" transform="translate(47.61,103.62)" r="6.5"><circle class="node" r="0" node_type="middle"></circle><text text-anchor="middle" font-size="8" font-weight="bold" y="2.5" class="node-label"></text></g><g class="noselect gnode" transform="translate(44.43,117.22)" r="6.5"><circle class="node" r="0" node_type="middle"></circle><text text-anchor="middle" font-size="8" font-weight="bold" y="2.5" class="node-label"></text></g><g class="noselect gnode" transform="translate(21.14,102.59)" r="6.5"><circle class="node" r="0" node_type="middle"></circle><text text-anchor="middle" font-size="8" font-weight="bold" y="2.5" class="node-label"></text></g><g class="noselect gnode" transform="translate(111.53,9.74)" r="6.5"><circle class="node" r="0" node_type="middle"></circle><text text-anchor="middle" font-size="8" font-weight="bold" y="2.5" class="node-label"></text></g></g><line class="drag_line" x1="0" y1="0" x2="0" y2="0"></line></g></g></svg>