<svg xmlns="http://www.w3.org/2000/svg" viewBox="0 0 760 640" width="760" height="640"><style>svg {
  display: block;
  min-width: 100%;
  width: 100%;
  min-height: 100%;
}

circle.node {
  stroke: #ccc;
  stroke-width: 1px;
  opacity: 1;
  fill: white;
}

circle.node.label {
    stroke: transparent;
    stroke-width: 0;
    fill: white;
}

circle.outline_node {
    stroke-width: 1px;
    fill: red;
}

circle.protein {
    fill: gray;
    fill-opacity: 0.5;
    stroke-width: 4;
}

circle.hidden_outline {
    stroke-width: 0px;
}


line.link {
  stroke: #999;
  stroke-opacity: 0.8;
  stroke-width: 2;
}

line.basepair {
  stroke: red;
}

line.intermolecule {
  stroke: blue;
}

line.chain_chain {
  stroke-dasharray: 3,3;
}

line.fake {
  stroke: green;
}

.transparent {
    fill: transparent;
    stroke-width: 0;
    stroke-opacity: 0;
    opacity: 0;
    visibility: hidden;
}

.drag_line {
  stroke: #999;
  stroke-width: 2;
  pointer-events: none;
}

.drag_line_hidden {
  stroke: #999;
  stroke-width: 0;
  pointer-events: none;
}

.d3-tip {
    line-height: 1;
    font-weight: bold;
    padding: 6px;
    background: rgba(0, 0, 0, 0.6);
    color: #fff;
    border-radius: 4px;
    pointer-events: none;
          }

text.node-label {
    font-weight: bold;
    font-family: Tahoma, Geneva, sans-serif;
    color: rgb(100,100,100);
    pointer-events: none;
}

text {
    pointer-events: none;
}

g.gnode {

}

circle.outline_node.selected {
    visibility: visible;
}

circle.outline_node {
    visibility: hidden;
}

.brush .extent {
  fill-opacity: .1;
  stroke: #fff;
  shape-rendering: crispEdges;
}

.noselect {
    -webkit-touch-callout: none;
    -webkit-user-select: none;
    -khtml-user-select: none;
    -moz-user-select: none;
    -ms-user-select: none;
    user-select: none;
}

svg {
  display: block;
  min-width: 100%;
  width: 100%;
  min-height: 100%;
}

circle.node {
  stroke: #ccc;
  stroke-width: 1px;
  opacity: 1;
  fill: white;
}

circle.node.label {
    stroke: transparent;
    stroke-width: 0;
    fill: white;
}

circle.outline_node {
    stroke-width: 1px;
    fill: red;
}

circle.protein {
    fill: gray;
    fill-opacity: 0.5;
    stroke-width: 4;
}

circle.hidden_outline {
    stroke-width: 0px;
}


line.link {
  stroke: #999;
  stroke-opacity: 0.8;
  stroke-width: 2;
}

line.basepair {
  stroke: red;
}

line.intermolecule {
  stroke: blue;
}

line.chain_chain {
  stroke-dasharray: 3,3;
}

line.fake {
  stroke: green;
}

.transparent {
    fill: transparent;
    stroke-width: 0;
    stroke-opacity: 0;
    opacity: 0;
    visibility: hidden;
}

.drag_line {
  stroke: #999;
  stroke-width: 2;
  pointer-events: none;
}

.drag_line_hidden {
  stroke: #999;
  stroke-width: 0;
  pointer-events: none;
}

.d3-tip {
    line-height: 1;
    font-weight: bold;
    padding: 6px;
    background: rgba(0, 0, 0, 0.6);
    color: #fff;
    border-radius: 4px;
    pointer-events: none;
          }

text.node-label {
    font-weight: bold;
    font-family: Tahoma, Geneva, sans-serif;
    color: rgb(100,100,100);
    pointer-events: none;
}

text {
    pointer-events: none;
}

g.gnode {

}

circle.outline_node.selected {
    visibility: visible;
}

circle.outline_node {
    visibility: hidden;
}

.brush .extent {
  fill-opacity: .1;
  stroke: #fff;
  shape-rendering: crispEdges;
}

.noselect {
    -webkit-touch-callout: none;
    -webkit-user-select: none;
    -khtml-user-select: none;
    -moz-user-select: none;
    -ms-user-select: none;
    user-select: none;
}
/*# sourceURL=/Users/yumanakamura/ipy_sandbox/sandbox/claude_sandbox/mrna-transformer-worktrees/feat-issue57-switch-derna-knotty/scripts/eval/prerender/forna_vendor/fornac.css*/</style><style></style><g><g class="brush" style="pointer-events: all; -webkit-tap-highlight-color: rgba(0, 0, 0, 0);"><rect class="background" x="0" width="760" y="0" height="640" style="visibility: hidden; cursor: auto;"></rect><rect class="extent" x="0" width="0" y="0" height="0" style="cursor: move;"></rect><g class="resize n" transform="translate(0,0)" style="cursor: ns-resize; display: none;"><rect y="-3" width="0" height="6" style="visibility: hidden;"></rect></g><g class="resize e" transform="translate(0,0)" style="cursor: ew-resize; display: none;"><rect x="-3" width="6" height="0" style="visibility: hidden;"></rect></g><g class="resize s" transform="translate(0,0)" style="cursor: ns-resize; display: none;"><rect y="-3" width="0" height="6" style="visibility: hidden;"></rect></g><g class="resize w" transform="translate(0,0)" style="cursor: ew-resize; display: none;"><rect x="-3" width="6" height="0" style="visibility: hidden;"></rect></g><g class="resize nw" transform="translate(0,0)" style="cursor: nwse-resize; display: none;"><rect x="-3" y="-3" width="6" height="6" style="visibility: hidden;"></rect></g><g class="resize ne" transform="translate(0,0)" style="cursor: nesw-resize; display: none;"><rect x="-3" y="-3" width="6" height="6" style="visibility: hidden;"></rect></g><g class="resize se" transform="translate(0,0)" style="cursor: nwse-resize; display: none;"><rect x="-3" y="-3" width="6" height="6" style="visibility: hidden;"></rect></g><g class="resize sw" transform="translate(0,0)" style="cursor: nesw-resize; display: none;"><rect x="-3" y="-3" width="6" height="6" style="visibility: hidden;"></rect></g></g><g transform="translate(153.26,-121.66) scale(3.52)"><g><line class="link backbone" x1="26.94" y1="202.12" x2="12.06" y2="201.59"></line><line class="link backbone" x1="12.06" y1="201.59" x2="0.01" y2="192.84"></line><line class="link backbone" x1="0.01" y1="192.84" x2="-4.94" y2="178.65"></line><line class="link backbone" x1="-4.94" y1="178.65" x2="0.05" y2="164.34"></line><line class="link backbone" x1="0.05" y1="164.34" x2="12.23" y2="155.67"></line><line class="link basepair" x1="27.65" y1="155.31" x2="39.56" y2="164.22"></line><line class="link backbone" x1="12.23" y1="155.67" x2="27.65" y2="155.31"></line><line class="link basepair" x1="37.65" y1="142.72" x2="49.08" y2="151.65"></line><line class="link backbone" x1="27.65" y1="155.31" x2="37.65" y2="142.72"></line><line class="link basepair" x1="47.53" y1="130.03" x2="59.06" y2="138.72"></line><line class="link backbone" x1="37.65" y1="142.72" x2="47.53" y2="130.03"></line><line class="link basepair" x1="56.93" y1="117.10" x2="68.81" y2="125.26"></line><line class="link backbone" x1="47.53" y1="130.03" x2="56.93" y2="117.10"></line><line class="link basepair" x1="65.24" y1="103.83" x2="78.03" y2="111.41"></line><line class="link backbone" x1="56.93" y1="117.10" x2="65.24" y2="103.83"></line><line class="link backbone" x1="65.24" y1="103.83" x2="62.93" y2="88.49"></line><line class="link backbone" x1="62.93" y1="88.49" x2="73.14" y2="77.35"></line><line class="link basepair" x1="88.45" y1="78.33" x2="97.13" y2="90.51"></line><line class="link backbone" x1="73.14" y1="77.35" x2="88.45" y2="78.33"></line><line class="link basepair" x1="100.71" y1="69.14" x2="109.81" y2="80.91"></line><line class="link backbone" x1="88.45" y1="78.33" x2="100.71" y2="69.14"></line><line class="link backbone" x1="100.71" y1="69.14" x2="106.44" y2="54.93"></line><line class="link backbone" x1="106.44" y1="54.93" x2="121.28" y2="52.92"></line><line class="link backbone" x1="121.28" y1="52.92" x2="130.55" y2="64.68"></line><line class="link backbone" x1="130.55" y1="64.68" x2="125.07" y2="78.60"></line><line class="link basepair" x1="109.81" y1="80.91" x2="100.71" y2="69.14"></line><line class="link backbone" x1="125.07" y1="78.60" x2="109.81" y2="80.91"></line><line class="link basepair" x1="97.13" y1="90.51" x2="88.45" y2="78.33"></line><line class="link backbone" x1="109.81" y1="80.91" x2="97.13" y2="90.51"></line><line class="link backbone" x1="97.13" y1="90.51" x2="92.61" y2="105.45"></line><line class="link basepair" x1="78.03" y1="111.41" x2="65.24" y2="103.83"></line><line class="link backbone" x1="92.61" y1="105.45" x2="78.03" y2="111.41"></line><line class="link basepair" x1="68.81" y1="125.26" x2="56.93" y2="117.10"></line><line class="link backbone" x1="78.03" y1="111.41" x2="68.81" y2="125.26"></line><line class="link basepair" x1="59.06" y1="138.72" x2="47.53" y2="130.03"></line><line class="link backbone" x1="68.81" y1="125.26" x2="59.06" y2="138.72"></line><line class="link basepair" x1="49.08" y1="151.65" x2="37.65" y2="142.72"></line><line class="link backbone" x1="59.06" y1="138.72" x2="49.08" y2="151.65"></line><line class="link basepair" x1="39.56" y1="164.22" x2="27.65" y2="155.31"></line><line class="link backbone" x1="49.08" y1="151.65" x2="39.56" y2="164.22"></line><line class="link label_link" x1="56.93" y1="117.10" x2="44.18" y2="108.15"></line><line class="link label_link" x1="109.81" y1="80.91" x2="122.13" y2="90.30"></line><line class="link fake transparent" x1="27.65" y1="155.31" x2="38.36" y2="153.53"></line><line class="link fake transparent" x1="27.65" y1="155.31" x2="49.08" y2="151.65"></line><line class="link fake transparent" x1="37.65" y1="142.72" x2="38.36" y2="153.53"></line><line class="link fake transparent" x1="49.08" y1="151.65" x2="38.36" y2="153.53"></line><line class="link fake transparent" x1="39.56" y1="164.22" x2="38.36" y2="153.53"></line><line class="link fake transparent" x1="37.65" y1="142.72" x2="48.37" y2="140.87"></line><line class="link fake transparent" x1="47.53" y1="130.03" x2="48.37" y2="140.87"></line><line class="link fake transparent" x1="59.06" y1="138.72" x2="48.37" y2="140.87"></line><line class="link fake transparent" x1="49.08" y1="151.65" x2="48.37" y2="140.87"></line><line class="link fake transparent" x1="47.53" y1="130.03" x2="58.23" y2="127.91"></line><line class="link fake transparent" x1="56.93" y1="117.10" x2="58.23" y2="127.91"></line><line class="link fake transparent" x1="68.81" y1="125.26" x2="58.23" y2="127.91"></line><line class="link fake transparent" x1="59.06" y1="138.72" x2="58.23" y2="127.91"></line><line class="link fake transparent" x1="56.93" y1="117.10" x2="67.51" y2="114.46"></line><line class="link fake transparent" x1="65.24" y1="103.83" x2="67.51" y2="114.46"></line><line class="link fake transparent" x1="78.03" y1="111.41" x2="67.51" y2="114.46"></line><line class="link fake transparent" x1="68.81" y1="125.26" x2="67.51" y2="114.46"></line><line class="link fake transparent" x1="88.45" y1="78.33" x2="99.07" y2="79.79"></line><line class="link fake transparent" x1="100.71" y1="69.14" x2="99.07" y2="79.79"></line><line class="link fake transparent" x1="109.81" y1="80.91" x2="99.07" y2="79.79"></line><line class="link fake transparent" x1="97.13" y1="90.51" x2="99.07" y2="79.79"></line><line class="link fake transparent" x1="26.94" y1="202.12" x2="19.78" y2="178.55"></line><line class="link fake transparent" x1="26.94" y1="202.12" x2="12.23" y2="155.67"></line><line class="link fake transparent" x1="12.06" y1="201.59" x2="19.78" y2="178.55"></line><line class="link fake transparent" x1="12.06" y1="201.59" x2="27.65" y2="155.31"></line><line class="link fake transparent" x1="0.01" y1="192.84" x2="19.78" y2="178.55"></line><line class="link fake transparent" x1="0.01" y1="192.84" x2="39.56" y2="164.22"></line><line class="link fake transparent" x1="-4.94" y1="178.65" x2="19.78" y2="178.55"></line><line class="link fake transparent" x1="-4.94" y1="178.65" x2="43.66" y2="179.40"></line><line class="link fake transparent" x1="0.05" y1="164.34" x2="19.78" y2="178.55"></line><line class="link fake transparent" x1="0.05" y1="164.34" x2="39.56" y2="193.01"></line><line class="link fake transparent" x1="12.23" y1="155.67" x2="19.78" y2="178.55"></line><line class="link fake transparent" x1="12.23" y1="155.67" x2="26.94" y2="202.12"></line><line class="link fake transparent" x1="27.65" y1="155.31" x2="19.78" y2="178.55"></line><line class="link fake transparent" x1="27.65" y1="155.31" x2="12.06" y2="201.59"></line><line class="link fake transparent" x1="39.56" y1="164.22" x2="19.78" y2="178.55"></line><line class="link fake transparent" x1="39.56" y1="164.22" x2="0.01" y2="192.84"></line><line class="link fake transparent" x1="100.71" y1="69.14" x2="115.61" y2="66.90"></line><line class="link fake transparent" x1="100.71" y1="69.14" x2="130.55" y2="64.68"></line><line class="link fake transparent" x1="106.44" y1="54.93" x2="115.61" y2="66.90"></line><line class="link fake transparent" x1="106.44" y1="54.93" x2="125.07" y2="78.60"></line><line class="link fake transparent" x1="121.28" y1="52.92" x2="115.61" y2="66.90"></line><line class="link fake transparent" x1="121.28" y1="52.92" x2="109.81" y2="80.91"></line><line class="link fake transparent" x1="130.55" y1="64.68" x2="115.61" y2="66.90"></line><line class="link fake transparent" x1="130.55" y1="64.68" x2="100.71" y2="69.14"></line><line class="link fake transparent" x1="125.07" y1="78.60" x2="115.61" y2="66.90"></line><line class="link fake transparent" x1="125.07" y1="78.60" x2="106.44" y2="54.93"></line><line class="link fake transparent" x1="109.81" y1="80.91" x2="115.61" y2="66.90"></line><line class="link fake transparent" x1="109.81" y1="80.91" x2="121.28" y2="52.92"></line><line class="link fake transparent" x1="65.24" y1="103.83" x2="79.77" y2="93.77"></line><line class="link fake transparent" x1="65.24" y1="103.83" x2="88.45" y2="78.33"></line><line class="link fake transparent" x1="62.93" y1="88.49" x2="79.77" y2="93.77"></line><line class="link fake transparent" x1="62.93" y1="88.49" x2="97.13" y2="90.51"></line><line class="link fake transparent" x1="73.14" y1="77.35" x2="79.77" y2="93.77"></line><line class="link fake transparent" x1="73.14" y1="77.35" x2="92.61" y2="105.45"></line><line class="link fake transparent" x1="88.45" y1="78.33" x2="79.77" y2="93.77"></line><line class="link fake transparent" x1="88.45" y1="78.33" x2="78.03" y2="111.41"></line><line class="link fake transparent" x1="97.13" y1="90.51" x2="79.77" y2="93.77"></line><line class="link fake transparent" x1="97.13" y1="90.51" x2="65.24" y2="103.83"></line><line class="link fake transparent" x1="92.61" y1="105.45" x2="79.77" y2="93.77"></line><line class="link fake transparent" x1="92.61" y1="105.45" x2="62.93" y2="88.49"></line><line class="link fake transparent" x1="78.03" y1="111.41" x2="79.77" y2="93.77"></line><line class="link fake transparent" x1="78.03" y1="111.41" x2="73.14" y2="77.35"></line></g><g><g class="noselect gnode" struct_name="m" transform="translate(26.94,202.12)" r="6.5"><circle class="node" r="6" node_type="nucleotide" style="fill: lightsalmon;"></circle><text text-anchor="middle" font-size="8" font-weight="bold" y="2.5" class="node-label">C</text></g><g class="noselect gnode" struct_name="m" transform="translate(12.06,201.59)" r="6.5"><circle class="node" r="6" node_type="nucleotide" style="fill: lightsalmon;"></circle><text text-anchor="middle" font-size="8" font-weight="bold" y="2.5" class="node-label">G</text></g><g class="noselect gnode" struct_name="m" transform="translate(0.01,192.84)" r="6.5"><circle class="node" r="6" node_type="nucleotide" style="fill: lightsalmon;"></circle><text text-anchor="middle" font-size="8" font-weight="bold" y="2.5" class="node-label">U</text></g><g class="noselect gnode" struct_name="m" transform="translate(-4.94,178.65)" r="6.5"><circle class="node" r="6" node_type="nucleotide" style="fill: lightsalmon;"></circle><text text-anchor="middle" font-size="8" font-weight="bold" y="2.5" class="node-label">A</text></g><g class="noselect gnode" struct_name="m" transform="translate(0.05,164.34)" r="6.5"><circle class="node" r="6" node_type="nucleotide" style="fill: lightsalmon;"></circle><text text-anchor="middle" font-size="8" font-weight="bold" y="2.5" class="node-label">A</text></g><g class="noselect gnode" struct_name="m" transform="translate(12.23,155.67)" r="6.5"><circle class="node" r="6" node_type="nucleotide" style="fill: lightsalmon;"></circle><text text-anchor="middle" font-size="8" font-weight="bold" y="2.5" class="node-label">A</text></g><g class="noselect gnode" struct_name="m" transform="translate(27.65,155.31)" r="6.5"><circle class="node" r="6" node_type="nucleotide" style="fill: lightgreen;"></circle><text text-anchor="middle" font-size="8" font-weight="bold" y="2.5" class="node-label">G</text></g><g class="noselect gnode" struct_name="m" transform="translate(37.65,142.72)" r="6.5"><circle class="node" r="6" node_type="nucleotide" style="fill: lightgreen;"></circle><text text-anchor="middle" font-size="8" font-weight="bold" y="2.5" class="node-label">A</text></g><g class="noselect gnode" struct_name="m" transform="translate(47.53,130.03)" r="6.5"><circle class="node" r="6" node_type="nucleotide" style="fill: lightgreen;"></circle><text text-anchor="middle" font-size="8" font-weight="bold" y="2.5" class="node-label">G</text></g><g class="noselect gnode" struct_name="m" transform="translate(56.93,117.10)" r="6.5"><circle class="node" r="6" node_type="nucleotide" style="fill: lightgreen;"></circle><text text-anchor="middle" font-size="8" font-weight="bold" y="2.5" class="node-label">G</text></g><g class="noselect gnode" struct_name="m" transform="translate(65.24,103.83)" r="6.5"><circle class="node" r="6" node_type="nucleotide" style="fill: lightgreen;"></circle><text text-anchor="middle" font-size="8" font-weight="bold" y="2.5" class="node-label">A</text></g><g class="noselect gnode" struct_name="m" transform="translate(62.93,88.49)" r="6.5"><circle class="node" r="6" node_type="nucleotide" style="fill: rgb(219, 219, 141);"></circle><text text-anchor="middle" font-size="8" font-weight="bold" y="2.5" class="node-label">G</text></g><g class="noselect gnode" struct_name="m" transform="translate(73.14,77.35)" r="6.5"><circle class="node" r="6" node_type="nucleotide" style="fill: rgb(219, 219, 141);"></circle><text text-anchor="middle" font-size="8" font-weight="bold" y="2.5" class="node-label">A</text></g><g class="noselect gnode" struct_name="m" transform="translate(88.45,78.33)" r="6.5"><circle class="node" r="6" node_type="nucleotide" style="fill: lightgreen;"></circle><text text-anchor="middle" font-size="8" font-weight="bold" y="2.5" class="node-label">C</text></g><g class="noselect gnode" struct_name="m" transform="translate(100.71,69.14)" r="6.5"><circle class="node" r="6" node_type="nucleotide" style="fill: lightgreen;"></circle><text text-anchor="middle" font-size="8" font-weight="bold" y="2.5" class="node-label">G</text></g><g class="noselect gnode" struct_name="m" transform="translate(106.44,54.93)" r="6.5"><circle class="node" r="6" node_type="nucleotide" style="fill: lightblue;"></circle><text text-anchor="middle" font-size="8" font-weight="bold" y="2.5" class="node-label">G</text></g><g class="noselect gnode" struct_name="m" transform="translate(121.28,52.92)" r="6.5"><circle class="node" r="6" node_type="nucleotide" style="fill: lightblue;"></circle><text text-anchor="middle" font-size="8" font-weight="bold" y="2.5" class="node-label">G</text></g><g class="noselect gnode" struct_name="m" transform="translate(130.55,64.68)" r="6.5"><circle class="node" r="6" node_type="nucleotide" style="fill: lightblue;"></circle><text text-anchor="middle" font-size="8" font-weight="bold" y="2.5" class="node-label">U</text></g><g class="noselect gnode" struct_name="m" transform="translate(125.07,78.60)" r="6.5"><circle class="node" r="6" node_type="nucleotide" style="fill: lightblue;"></circle><text text-anchor="middle" font-size="8" font-weight="bold" y="2.5" class="node-label">G</text></g><g class="noselect gnode" struct_name="m" transform="translate(109.81,80.91)" r="6.5"><circle class="node" r="6" node_type="nucleotide" style="fill: lightgreen;"></circle><text text-anchor="middle" font-size="8" font-weight="bold" y="2.5" class="node-label">C</text></g><g class="noselect gnode" struct_name="m" transform="translate(97.13,90.51)" r="6.5"><circle class="node" r="6" node_type="nucleotide" style="fill: lightgreen;"></circle><text text-anchor="middle" font-size="8" font-weight="bold" y="2.5" class="node-label">G</text></g><g class="noselect gnode" struct_name="m" transform="translate(92.61,105.45)" r="6.5"><circle class="node" r="6" node_type="nucleotide" style="fill: rgb(219, 219, 141);"></circle><text text-anchor="middle" font-size="8" font-weight="bold" y="2.5" class="node-label">A</text></g><g class="noselect gnode" struct_name="m" transform="translate(78.03,111.41)" r="6.5"><circle class="node" r="6" node_type="nucleotide" style="fill: lightgreen;"></circle><text text-anchor="middle" font-size="8" font-weight="bold" y="2.5" class="node-label">U</text></g><g class="noselect gnode" struct_name="m" transform="translate(68.81,125.26)" r="6.5"><circle class="node" r="6" node_type="nucleotide" style="fill: lightgreen;"></circle><text text-anchor="middle" font-size="8" font-weight="bold" y="2.5" class="node-label">C</text></g><g class="noselect gnode" struct_name="m" transform="translate(59.06,138.72)" r="6.5"><circle class="node" r="6" node_type="nucleotide" style="fill: lightgreen;"></circle><text text-anchor="middle" font-size="8" font-weight="bold" y="2.5" class="node-label">C</text></g><g class="noselect gnode" struct_name="m" transform="translate(49.08,151.65)" r="6.5"><circle class="node" r="6" node_type="nucleotide" style="fill: lightgreen;"></circle><text text-anchor="middle" font-size="8" font-weight="bold" y="2.5" class="node-label">U</text></g><g class="noselect gnode" struct_name="m" transform="translate(39.56,164.22)" r="6.5"><circle class="node" r="6" node_type="nucleotide" style="fill: lightgreen;"></circle><text text-anchor="middle" font-size="8" font-weight="bold" y="2.5" class="node-label">C</text></g><g class="noselect gnode" struct_name="m" transform="translate(44.18,108.15)" r="6.5"><circle class="node label" r="6" node_type="label"></circle><text text-anchor="middle" font-size="8" font-weight="bold" y="2.5" class="node-label">10</text></g><g class="noselect gnode" struct_name="m" transform="translate(122.13,90.30)" r="6.5"><circle class="node label" r="6" node_type="label"></circle><text text-anchor="middle" font-size="8" font-weight="bold" y="2.5" class="node-label">20</text></g><g class="noselect gnode" transform="translate(38.36,153.53)" r="6.5"><circle class="node" r="0" node_type="middle"></circle><text text-anchor="middle" font-size="8" font-weight="bold" y="2.5" class="node-label"></text></g><g class="noselect gnode" transform="translate(48.37,140.87)" r="6.5"><circle class="node" r="0" node_type="middle"></circle><text text-anchor="middle" font-size="8" font-weight="bold" y="2.5" class="node-label"></text></g><g class="noselect gnode" transform="translate(58.23,127.91)" r="6.5"><circle class="node" r="0" node_type="middle"></circle><text text-anchor="middle" font-size="8" font-weight="bold" y="2.5" class="node-label"></text></g><g class="noselect gnode" transform="translate(67.51,114.46)" r="6.5"><circle class="node" r="0" node_type="middle"></circle><text text-anchor="middle" font-size="8" font-weight="bold" y="2.5" class="node-label"></text></g><g class="noselect gnode" transform="translate(99.07,79.79)" r="6.5"><circle class="node" r="0" node_type="middle"></circle><text text-anchor="middle" font-size="8" font-weight="bold" y="2.5" class="node-label"></text></g><g class="noselect gnode" transform="translate(43.66,179.40)" r="6.5"><circle class="node" r="0" node_type="middle"></circle><text text-anchor="middle" font-size="8" font-weight="bold" y="2.5" class="node-label"></text></g><g class="noselect gnode" transform="translate(39.56,193.01)" r="6.5"><circle class="node" r="0" node_type="middle"></circle><text text-anchor="middle" font-size="8" font-weight="bold" y="2.5" class="node-label"></text></g><g class="noselect gnode" transform="translate(19.78,178.55)" r="6.5"><circle class="node" r="0" node_type="middle"></circle><text text-anchor="middle" font-size="8" font-weight="bold" y="2.5" class="node-label"></text></g><g class="noselect gnode" transform="translate(115.61,66.90)" r="6.5"><circle class="node" r="0" node_type="middle"></circle><text text-anchor="middle" font-size="8" font-weight="bold" y="2.5" class="node-label"></text></g><g class="noselect gnode" transform="translate(79.77,93.77)" r="6.5"><circle class="node" r="0" node_type="middle"></circle><text text-anchor="middle" font-size="8" font-weight="bold" y="2.5" class="node-label"></text></g></g><line class="drag_line" x1="0" y1="0" x2="0" y2="0"></line></g></g></svg>