<svg xmlns="http://www.w3.org/2000/svg" viewBox="0 0 760 640" width="760" height="640"><style>svg {
  display: block;
  min-width: 100%;
  width: 100%;
  min-height: 100%;
}

circle.node {
  stroke: #ccc;
  stroke-width: 1px;
  opacity: 1;
  fill: white;
}

circle.node.label {
    stroke: transparent;
    stroke-width: 0;
    fill: white;
}

circle.outline_node {
    stroke-width: 1px;
    fill: red;
}

circle.protein {
    fill: gray;
    fill-opacity: 0.5;
    stroke-width: 4;
}

circle.hidden_outline {
    stroke-width: 0px;
}


line.link {
  stroke: #999;
  stroke-opacity: 0.8;
  stroke-width: 2;
}

line.basepair {
  stroke: red;
}

line.intermolecule {
  stroke: blue;
}

line.chain_chain {
  stroke-dasharray: 3,3;
}

line.fake {
  stroke: green;
}

.transparent {
    fill: transparent;
    stroke-width: 0;
    stroke-opacity: 0;
    opacity: 0;
    visibility: hidden;
}

.drag_line {
  stroke: #999;
  stroke-width: 2;
  pointer-events: none;
}

.drag_line_hidden {
  stroke: #999;
  stroke-width: 0;
  pointer-events: none;
}

.d3-tip {
    line-height: 1;
    font-weight: bold;
    padding: 6px;
    background: rgba(0, 0, 0, 0.6);
    color: #fff;
    border-radius: 4px;
    pointer-events: none;
          }

text.node-label {
    font-weight: bold;
    font-family: Tahoma, Geneva, sans-serif;
    color: rgb(100,100,100);
    pointer-events: none;
}

text {
    pointer-events: none;
}

g.gnode {

}

circle.outline_node.selected {
    visibility: visible;
}

circle.outline_node {
    visibility: hidden;
}

.brush .extent {
  fill-opacity: .1;
  stroke: #fff;
  shape-rendering: crispEdges;
}

.noselect {
    -webkit-touch-callout: none;
    -webkit-user-select: none;
    -khtml-user-select: none;
    -moz-user-select: none;
    -ms-user-select: none;
    user-select: none;
}

svg {
  display: block;
  min-width: 100%;
  width: 100%;
  min-height: 100%;
}

circle.node {
  stroke: #ccc;
  stroke-width: 1px;
  opacity: 1;
  fill: white;
}

circle.node.label {
    stroke: transparent;
    stroke-width: 0;
    fill: white;
}

circle.outline_node {
    stroke-width: 1px;
    fill: red;
}

circle.protein {
    fill: gray;
    fill-opacity: 0.5;
    stroke-width: 4;
}

circle.hidden_outline {
    stroke-width: 0px;
}


line.link {
  stroke: #999;
  stroke-opacity: 0.8;
  stroke-width: 2;
}

line.basepair {
  stroke: red;
}

line.intermolecule {
  stroke: blue;
}

line.chain_chain {
  stroke-dasharray: 3,3;
}

line.fake {
  stroke: green;
}

.transparent {
    fill: transparent;
    stroke-width: 0;
    stroke-opacity: 0;
    opacity: 0;
    visibility: hidden;
}

.drag_line {
  stroke: #999;
  stroke-width: 2;
  pointer-events: none;
}

.drag_line_hidden {
  stroke: #999;
  stroke-width: 0;
  pointer-events: none;
}

.d3-tip {
    line-height: 1;
    font-weight: bold;
    padding: 6px;
    background: rgba(0, 0, 0, 0.6);
    color: #fff;
    border-radius: 4px;
    pointer-events: none;
          }

text.node-label {
    font-weight: bold;
    font-family: Tahoma, Geneva, sans-serif;
    color: rgb(100,100,100);
    pointer-events: none;
}

text {
    pointer-events: none;
}

g.gnode {

}

circle.outline_node.selected {
    visibility: visible;
}

circle.outline_node {
    visibility: hidden;
}

.brush .extent {
  fill-opacity: .1;
  stroke: #fff;
  shape-rendering: crispEdges;
}

.noselect {
    -webkit-touch-callout: none;
    -webkit-user-select: none;
    -khtml-user-select: none;
    -moz-user-select: none;
    -ms-user-select: none;
    user-select: none;
}
/*# sourceURL=/Users/yumanakamura/ipy_sandbox/sandbox/claude_sandbox/mrna-transformer-worktrees/feat-issue57-switch-derna-knotty/scripts/eval/prerender/forna_vendor/fornac.css*/</style><style></style><g><g class="brush" style="pointer-events: all; -webkit-tap-highlight-color: rgba(0, 0, 0, 0);"><rect class="background" x="0" width="760" y="0" height="640" style="visibility: hidden; cursor: auto;"></rect><rect class="extent" x="0" width="0" y="0" height="0" style="cursor: move;"></rect><g class="resize n" transform="translate(0,0)" style="cursor: ns-resize; display: none;"><rect y="-3" width="0" height="6" style="visibility: hidden;"></rect></g><g class="resize e" transform="translate(0,0)" style="cursor: ew-resize; display: none;"><rect x="-3" width="6" height="0" style="visibility: hidden;"></rect></g><g class="resize s" transform="translate(0,0)" style="cursor: ns-resize; display: none;"><rect y="-3" width="0" height="6" style="visibility: hidden;"></rect></g><g class="resize w" transform="translate(0,0)" style="cursor: ew-resize; display: none;"><rect x="-3" width="6" height="0" style="visibility: hidden;"></rect></g><g class="resize nw" transform="translate(0,0)" style="cursor: nwse-resize; display: none;"><rect x="-3" y="-3" width="6" height="6" style="visibility: hidden;"></rect></g><g class="resize ne" transform="translate(0,0)" style="cursor: nesw-resize; display: none;"><rect x="-3" y="-3" width="6" height="6" style="visibility: hidden;"></rect></g><g class="resize se" transform="translate(0,0)" style="cursor: nwse-resize; display: none;"><rect x="-3" y="-3" width="6" height="6" style="visibility: hidden;"></rect></g><g class="resize sw" transform="translate(0,0)" style="cursor: nesw-resize; display: none;"><rect x="-3" y="-3" width="6" height="6" style="visibility: hidden;"></rect></g></g><g transform="translate(261.69,157.64) scale(1.42)"><g><line class="link basepair" x1="140.61" y1="264.23" x2="154.65" y2="259.16"></line><line class="link basepair" x1="135.07" y1="249.92" x2="148.60" y2="244.28"></line><line class="link backbone" x1="140.61" y1="264.23" x2="135.07" y2="249.92"></line><line class="link basepair" x1="128.78" y1="235.40" x2="142.15" y2="229.53"></line><line class="link backbone" x1="135.07" y1="249.92" x2="128.78" y2="235.40"></line><line class="link basepair" x1="122.29" y1="220.59" x2="135.70" y2="214.93"></line><line class="link backbone" x1="128.78" y1="235.40" x2="122.29" y2="220.59"></line><line class="link basepair" x1="116.10" y1="205.41" x2="129.97" y2="200.43"></line><line class="link backbone" x1="122.29" y1="220.59" x2="116.10" y2="205.41"></line><line class="link backbone" x1="116.10" y1="205.41" x2="104.44" y2="195.19"></line><line class="link basepair" x1="107.54" y1="179.88" x2="121.63" y2="175.66"></line><line class="link backbone" x1="104.44" y1="195.19" x2="107.54" y2="179.88"></line><line class="link basepair" x1="103.84" y1="163.24" x2="118.09" y2="160.90"></line><line class="link backbone" x1="107.54" y1="179.88" x2="103.84" y2="163.24"></line><line class="link basepair" x1="102.28" y1="146.07" x2="116.68" y2="145.73"></line><line class="link backbone" x1="103.84" y1="163.24" x2="102.28" y2="146.07"></line><line class="link basepair" x1="103.23" y1="128.54" x2="117.44" y2="130.59"></line><line class="link backbone" x1="102.28" y1="146.07" x2="103.23" y2="128.54"></line><line class="link basepair" x1="107.63" y1="110.82" x2="120.95" y2="116.65"></line><line class="link backbone" x1="103.23" y1="128.54" x2="107.63" y2="110.82"></line><line class="link basepair" x1="103.05" y1="93.81" x2="112.05" y2="82.49"></line><line class="link backbone" x1="107.63" y1="110.82" x2="103.05" y2="93.81"></line><line class="link basepair" x1="90.70" y1="79.42" x2="103.21" y2="72.05"></line><line class="link backbone" x1="103.05" y1="93.81" x2="90.70" y2="79.42"></line><line class="link basepair" x1="78.57" y1="66.20" x2="86.91" y2="54.15"></line><line class="link backbone" x1="90.70" y1="79.42" x2="78.57" y2="66.20"></line><line class="link basepair" x1="65.43" y1="54.24" x2="76.44" y2="44.53"></line><line class="link backbone" x1="78.57" y1="66.20" x2="65.43" y2="54.24"></line><line class="link backbone" x1="65.43" y1="54.24" x2="49.81" y2="51.24"></line><line class="link backbone" x1="49.81" y1="51.24" x2="41.10" y2="39.28"></line><line class="link basepair" x1="43.00" y1="23.47" x2="55.52" y2="15.69"></line><line class="link backbone" x1="41.10" y1="39.28" x2="43.00" y2="23.47"></line><line class="link basepair" x1="35.05" y1="8.74" x2="47.89" y2="2.17"></line><line class="link backbone" x1="43.00" y1="23.47" x2="35.05" y2="8.74"></line><line class="link basepair" x1="27.87" y1="-6.15" x2="40.99" y2="-12.26"></line><line class="link backbone" x1="35.05" y1="8.74" x2="27.87" y2="-6.15"></line><line class="link basepair" x1="21.10" y1="-20.98" x2="34.30" y2="-26.96"></line><line class="link backbone" x1="27.87" y1="-6.15" x2="21.10" y2="-20.98"></line><line class="link basepair" x1="14.34" y1="-35.40" x2="27.84" y2="-41.63"></line><line class="link backbone" x1="21.10" y1="-20.98" x2="14.34" y2="-35.40"></line><line class="link backbone" x1="14.34" y1="-35.40" x2="-0.01" y2="-40.81"></line><line class="link backbone" x1="-0.01" y1="-40.81" x2="-6.35" y2="-54.39"></line><line class="link backbone" x1="-6.35" y1="-54.39" x2="-1.09" y2="-68.48"></line><line class="link backbone" x1="-1.09" y1="-68.48" x2="12.41" y2="-74.82"></line><line class="link backbone" x1="12.41" y1="-74.82" x2="26.59" y2="-69.77"></line><line class="link backbone" x1="26.59" y1="-69.77" x2="32.92" y2="-56.24"></line><line class="link basepair" x1="27.84" y1="-41.63" x2="14.34" y2="-35.40"></line><line class="link backbone" x1="32.92" y1="-56.24" x2="27.84" y2="-41.63"></line><line class="link basepair" x1="34.30" y1="-26.96" x2="21.10" y2="-20.98"></line><line class="link backbone" x1="27.84" y1="-41.63" x2="34.30" y2="-26.96"></line><line class="link basepair" x1="40.99" y1="-12.26" x2="27.87" y2="-6.15"></line><line class="link backbone" x1="34.30" y1="-26.96" x2="40.99" y2="-12.26"></line><line class="link basepair" x1="47.89" y1="2.17" x2="35.05" y2="8.74"></line><line class="link backbone" x1="40.99" y1="-12.26" x2="47.89" y2="2.17"></line><line class="link basepair" x1="55.52" y1="15.69" x2="43.00" y2="23.47"></line><line class="link backbone" x1="47.89" y1="2.17" x2="55.52" y2="15.69"></line><line class="link backbone" x1="55.52" y1="15.69" x2="70.36" y2="17.69"></line><line class="link backbone" x1="70.36" y1="17.69" x2="79.25" y2="29.86"></line><line class="link basepair" x1="76.44" y1="44.53" x2="65.43" y2="54.24"></line><line class="link backbone" x1="79.25" y1="29.86" x2="76.44" y2="44.53"></line><line class="link basepair" x1="86.91" y1="54.15" x2="78.57" y2="66.20"></line><line class="link backbone" x1="76.44" y1="44.53" x2="86.91" y2="54.15"></line><line class="link backbone" x1="86.91" y1="54.15" x2="101.69" y2="57.05"></line><line class="link basepair" x1="103.21" y1="72.05" x2="90.70" y2="79.42"></line><line class="link backbone" x1="101.69" y1="57.05" x2="103.21" y2="72.05"></line><line class="link basepair" x1="112.05" y1="82.49" x2="103.05" y2="93.81"></line><line class="link backbone" x1="103.21" y1="72.05" x2="112.05" y2="82.49"></line><line class="link backbone" x1="112.05" y1="82.49" x2="126.47" y2="78.02"></line><line class="link backbone" x1="126.47" y1="78.02" x2="138.99" y2="86.20"></line><line class="link backbone" x1="138.99" y1="86.20" x2="142.50" y2="100.11"></line><line class="link backbone" x1="142.50" y1="100.11" x2="135.73" y2="113.52"></line><line class="link basepair" x1="120.95" y1="116.65" x2="107.63" y2="110.82"></line><line class="link backbone" x1="135.73" y1="113.52" x2="120.95" y2="116.65"></line><line class="link basepair" x1="117.44" y1="130.59" x2="103.23" y2="128.54"></line><line class="link backbone" x1="120.95" y1="116.65" x2="117.44" y2="130.59"></line><line class="link basepair" x1="116.68" y1="145.73" x2="102.28" y2="146.07"></line><line class="link backbone" x1="117.44" y1="130.59" x2="116.68" y2="145.73"></line><line class="link basepair" x1="118.09" y1="160.90" x2="103.84" y2="163.24"></line><line class="link backbone" x1="116.68" y1="145.73" x2="118.09" y2="160.90"></line><line class="link basepair" x1="121.63" y1="175.66" x2="107.54" y2="179.88"></line><line class="link backbone" x1="118.09" y1="160.90" x2="121.63" y2="175.66"></line><line class="link backbone" x1="121.63" y1="175.66" x2="133.03" y2="185.63"></line><line class="link basepair" x1="129.97" y1="200.43" x2="116.10" y2="205.41"></line><line class="link backbone" x1="133.03" y1="185.63" x2="129.97" y2="200.43"></line><line class="link basepair" x1="135.70" y1="214.93" x2="122.29" y2="220.59"></line><line class="link backbone" x1="129.97" y1="200.43" x2="135.70" y2="214.93"></line><line class="link basepair" x1="142.15" y1="229.53" x2="128.78" y2="235.40"></line><line class="link backbone" x1="135.70" y1="214.93" x2="142.15" y2="229.53"></line><line class="link basepair" x1="148.60" y1="244.28" x2="135.07" y2="249.92"></line><line class="link backbone" x1="142.15" y1="229.53" x2="148.60" y2="244.28"></line><line class="link basepair" x1="154.65" y1="259.16" x2="140.61" y2="264.23"></line><line class="link backbone" x1="148.60" y1="244.28" x2="154.65" y2="259.16"></line><line class="link backbone" x1="154.65" y1="259.16" x2="169.00" y2="264.83"></line><line class="link backbone" x1="169.00" y1="264.83" x2="176.21" y2="277.92"></line><line class="link backbone" x1="176.21" y1="277.92" x2="173.76" y2="292.79"></line><line class="link backbone" x1="173.76" y1="292.79" x2="162.37" y2="302.46"></line><line class="link backbone" x1="162.37" y1="302.46" x2="147.45" y2="302.82"></line><line class="link label_link" x1="103.23" y1="128.54" x2="87.95" y2="131.67"></line><line class="link label_link" x1="27.87" y1="-6.15" x2="13.87" y2="0.68"></line><line class="link label_link" x1="34.30" y1="-26.96" x2="46.79" y2="-36.29"></line><line class="link label_link" x1="112.05" y1="82.49" x2="119.13" y2="68.56"></line><line class="link label_link" x1="133.03" y1="185.63" x2="148.31" y2="182.52"></line><line class="link label_link" x1="147.45" y1="302.82" x2="138.21" y2="315.22"></line><line class="link fake transparent" x1="107.54" y1="179.88" x2="112.25" y2="170.06"></line><line class="link fake transparent" x1="107.54" y1="179.88" x2="118.09" y2="160.90"></line><line class="link fake transparent" x1="103.84" y1="163.24" x2="112.25" y2="170.06"></line><line class="link fake transparent" x1="118.09" y1="160.90" x2="112.25" y2="170.06"></line><line class="link fake transparent" x1="121.63" y1="175.66" x2="112.25" y2="170.06"></line><line class="link fake transparent" x1="103.84" y1="163.24" x2="109.64" y2="154.03"></line><line class="link fake transparent" x1="102.28" y1="146.07" x2="109.64" y2="154.03"></line><line class="link fake transparent" x1="116.68" y1="145.73" x2="109.64" y2="154.03"></line><line class="link fake transparent" x1="118.09" y1="160.90" x2="109.64" y2="154.03"></line><line class="link fake transparent" x1="102.28" y1="146.07" x2="109.29" y2="137.75"></line><line class="link fake transparent" x1="103.23" y1="128.54" x2="109.29" y2="137.75"></line><line class="link fake transparent" x1="117.44" y1="130.59" x2="109.29" y2="137.75"></line><line class="link fake transparent" x1="116.68" y1="145.73" x2="109.29" y2="137.75"></line><line class="link fake transparent" x1="103.23" y1="128.54" x2="111.42" y2="121.52"></line><line class="link fake transparent" x1="107.63" y1="110.82" x2="111.42" y2="121.52"></line><line class="link fake transparent" x1="120.95" y1="116.65" x2="111.42" y2="121.52"></line><line class="link fake transparent" x1="117.44" y1="130.59" x2="111.42" y2="121.52"></line><line class="link fake transparent" x1="103.05" y1="93.81" x2="101.24" y2="82.66"></line><line class="link fake transparent" x1="90.70" y1="79.42" x2="101.24" y2="82.66"></line><line class="link fake transparent" x1="103.21" y1="72.05" x2="101.24" y2="82.66"></line><line class="link fake transparent" x1="112.05" y1="82.49" x2="101.24" y2="82.66"></line><line class="link fake transparent" x1="78.57" y1="66.20" x2="76.25" y2="55.38"></line><line class="link fake transparent" x1="65.43" y1="54.24" x2="76.25" y2="55.38"></line><line class="link fake transparent" x1="76.44" y1="44.53" x2="76.25" y2="55.38"></line><line class="link fake transparent" x1="86.91" y1="54.15" x2="76.25" y2="55.38"></line><line class="link fake transparent" x1="43.00" y1="23.47" x2="45.10" y2="12.71"></line><line class="link fake transparent" x1="35.05" y1="8.74" x2="45.10" y2="12.71"></line><line class="link fake transparent" x1="47.89" y1="2.17" x2="45.10" y2="12.71"></line><line class="link fake transparent" x1="55.52" y1="15.69" x2="45.10" y2="12.71"></line><line class="link fake transparent" x1="35.05" y1="8.74" x2="37.82" y2="-1.82"></line><line class="link fake transparent" x1="27.87" y1="-6.15" x2="37.82" y2="-1.82"></line><line class="link fake transparent" x1="40.99" y1="-12.26" x2="37.82" y2="-1.82"></line><line class="link fake transparent" x1="47.89" y1="2.17" x2="37.82" y2="-1.82"></line><line class="link fake transparent" x1="27.87" y1="-6.15" x2="31.03" y2="-16.58"></line><line class="link fake transparent" x1="21.10" y1="-20.98" x2="31.03" y2="-16.58"></line><line class="link fake transparent" x1="34.30" y1="-26.96" x2="31.03" y2="-16.58"></line><line class="link fake transparent" x1="40.99" y1="-12.26" x2="31.03" y2="-16.58"></line><line class="link fake transparent" x1="21.10" y1="-20.98" x2="24.38" y2="-31.31"></line><line class="link fake transparent" x1="14.34" y1="-35.40" x2="24.38" y2="-31.31"></line><line class="link fake transparent" x1="27.84" y1="-41.63" x2="24.38" y2="-31.31"></line><line class="link fake transparent" x1="34.30" y1="-26.96" x2="24.38" y2="-31.31"></line><line class="link fake transparent" x1="140.61" y1="264.23" x2="144.95" y2="254.44"></line><line class="link fake transparent" x1="135.07" y1="249.92" x2="144.95" y2="254.44"></line><line class="link fake transparent" x1="148.60" y1="244.28" x2="144.95" y2="254.44"></line><line class="link fake transparent" x1="154.65" y1="259.16" x2="144.95" y2="254.44"></line><line class="link fake transparent" x1="135.07" y1="249.92" x2="138.75" y2="239.79"></line><line class="link fake transparent" x1="128.78" y1="235.40" x2="138.75" y2="239.79"></line><line class="link fake transparent" x1="142.15" y1="229.53" x2="138.75" y2="239.79"></line><line class="link fake transparent" x1="148.60" y1="244.28" x2="138.75" y2="239.79"></line><line class="link fake transparent" x1="128.78" y1="235.40" x2="132.20" y2="225.16"></line><line class="link fake transparent" x1="122.29" y1="220.59" x2="132.20" y2="225.16"></line><line class="link fake transparent" x1="135.70" y1="214.93" x2="132.20" y2="225.16"></line><line class="link fake transparent" x1="142.15" y1="229.53" x2="132.20" y2="225.16"></line><line class="link fake transparent" x1="122.29" y1="220.59" x2="125.82" y2="210.42"></line><line class="link fake transparent" x1="116.10" y1="205.41" x2="125.82" y2="210.42"></line><line class="link fake transparent" x1="129.97" y1="200.43" x2="125.82" y2="210.42"></line><line class="link fake transparent" x1="135.70" y1="214.93" x2="125.82" y2="210.42"></line><line class="link fake transparent" x1="140.61" y1="264.23" x2="154.58" y2="281.55"></line><line class="link fake transparent" x1="140.61" y1="264.23" x2="173.76" y2="292.79"></line><line class="link fake transparent" x1="154.65" y1="259.16" x2="154.58" y2="281.55"></line><line class="link fake transparent" x1="154.65" y1="259.16" x2="162.37" y2="302.46"></line><line class="link fake transparent" x1="169.00" y1="264.83" x2="154.58" y2="281.55"></line><line class="link fake transparent" x1="169.00" y1="264.83" x2="147.45" y2="302.82"></line><line class="link fake transparent" x1="176.21" y1="277.92" x2="154.58" y2="281.55"></line><line class="link fake transparent" x1="176.21" y1="277.92" x2="135.26" y2="295.11"></line><line class="link fake transparent" x1="173.76" y1="292.79" x2="154.58" y2="281.55"></line><line class="link fake transparent" x1="173.76" y1="292.79" x2="130.77" y2="280.79"></line><line class="link fake transparent" x1="162.37" y1="302.46" x2="154.58" y2="281.55"></line><line class="link fake transparent" x1="162.37" y1="302.46" x2="140.61" y2="264.23"></line><line class="link fake transparent" x1="147.45" y1="302.82" x2="154.58" y2="281.55"></line><line class="link fake transparent" x1="147.45" y1="302.82" x2="154.65" y2="259.16"></line><line class="link fake transparent" x1="14.34" y1="-35.40" x2="13.39" y2="-55.10"></line><line class="link fake transparent" x1="14.34" y1="-35.40" x2="12.41" y2="-74.82"></line><line class="link fake transparent" x1="-0.01" y1="-40.81" x2="13.39" y2="-55.10"></line><line class="link fake transparent" x1="-0.01" y1="-40.81" x2="26.59" y2="-69.77"></line><line class="link fake transparent" x1="-6.35" y1="-54.39" x2="13.39" y2="-55.10"></line><line class="link fake transparent" x1="-6.35" y1="-54.39" x2="32.92" y2="-56.24"></line><line class="link fake transparent" x1="-1.09" y1="-68.48" x2="13.39" y2="-55.10"></line><line class="link fake transparent" x1="-1.09" y1="-68.48" x2="27.84" y2="-41.63"></line><line class="link fake transparent" x1="12.41" y1="-74.82" x2="13.39" y2="-55.10"></line><line class="link fake transparent" x1="12.41" y1="-74.82" x2="14.34" y2="-35.40"></line><line class="link fake transparent" x1="26.59" y1="-69.77" x2="13.39" y2="-55.10"></line><line class="link fake transparent" x1="26.59" y1="-69.77" x2="-0.01" y2="-40.81"></line><line class="link fake transparent" x1="32.92" y1="-56.24" x2="13.39" y2="-55.10"></line><line class="link fake transparent" x1="32.92" y1="-56.24" x2="-6.35" y2="-54.39"></line><line class="link fake transparent" x1="27.84" y1="-41.63" x2="13.39" y2="-55.10"></line><line class="link fake transparent" x1="27.84" y1="-41.63" x2="-1.09" y2="-68.48"></line><line class="link fake transparent" x1="107.63" y1="110.82" x2="122.88" y2="97.84"></line><line class="link fake transparent" x1="107.63" y1="110.82" x2="138.99" y2="86.20"></line><line class="link fake transparent" x1="103.05" y1="93.81" x2="122.88" y2="97.84"></line><line class="link fake transparent" x1="103.05" y1="93.81" x2="142.50" y2="100.11"></line><line class="link fake transparent" x1="112.05" y1="82.49" x2="122.88" y2="97.84"></line><line class="link fake transparent" x1="112.05" y1="82.49" x2="135.73" y2="113.52"></line><line class="link fake transparent" x1="126.47" y1="78.02" x2="122.88" y2="97.84"></line><line class="link fake transparent" x1="126.47" y1="78.02" x2="120.95" y2="116.65"></line><line class="link fake transparent" x1="138.99" y1="86.20" x2="122.88" y2="97.84"></line><line class="link fake transparent" x1="138.99" y1="86.20" x2="107.63" y2="110.82"></line><line class="link fake transparent" x1="142.50" y1="100.11" x2="122.88" y2="97.84"></line><line class="link fake transparent" x1="142.50" y1="100.11" x2="103.05" y2="93.81"></line><line class="link fake transparent" x1="135.73" y1="113.52" x2="122.88" y2="97.84"></line><line class="link fake transparent" x1="135.73" y1="113.52" x2="112.05" y2="82.49"></line><line class="link fake transparent" x1="120.95" y1="116.65" x2="122.88" y2="97.84"></line><line class="link fake transparent" x1="120.95" y1="116.65" x2="126.47" y2="78.02"></line><line class="link fake transparent" x1="90.70" y1="79.42" x2="91.67" y2="66.29"></line><line class="link fake transparent" x1="90.70" y1="79.42" x2="86.91" y2="54.15"></line><line class="link fake transparent" x1="78.57" y1="66.20" x2="91.67" y2="66.29"></line><line class="link fake transparent" x1="78.57" y1="66.20" x2="101.69" y2="57.05"></line><line class="link fake transparent" x1="86.91" y1="54.15" x2="91.67" y2="66.29"></line><line class="link fake transparent" x1="86.91" y1="54.15" x2="103.21" y2="72.05"></line><line class="link fake transparent" x1="101.69" y1="57.05" x2="91.67" y2="66.29"></line><line class="link fake transparent" x1="101.69" y1="57.05" x2="90.70" y2="79.42"></line><line class="link fake transparent" x1="103.21" y1="72.05" x2="91.67" y2="66.29"></line><line class="link fake transparent" x1="103.21" y1="72.05" x2="78.57" y2="66.20"></line><line class="link fake transparent" x1="65.43" y1="54.24" x2="59.88" y2="34.64"></line><line class="link fake transparent" x1="65.43" y1="54.24" x2="55.52" y2="15.69"></line><line class="link fake transparent" x1="49.81" y1="51.24" x2="59.88" y2="34.64"></line><line class="link fake transparent" x1="49.81" y1="51.24" x2="70.36" y2="17.69"></line><line class="link fake transparent" x1="41.10" y1="39.28" x2="59.88" y2="34.64"></line><line class="link fake transparent" x1="41.10" y1="39.28" x2="79.25" y2="29.86"></line><line class="link fake transparent" x1="43.00" y1="23.47" x2="59.88" y2="34.64"></line><line class="link fake transparent" x1="43.00" y1="23.47" x2="76.44" y2="44.53"></line><line class="link fake transparent" x1="55.52" y1="15.69" x2="59.88" y2="34.64"></line><line class="link fake transparent" x1="55.52" y1="15.69" x2="65.43" y2="54.24"></line><line class="link fake transparent" x1="70.36" y1="17.69" x2="59.88" y2="34.64"></line><line class="link fake transparent" x1="70.36" y1="17.69" x2="49.81" y2="51.24"></line><line class="link fake transparent" x1="79.25" y1="29.86" x2="59.88" y2="34.64"></line><line class="link fake transparent" x1="79.25" y1="29.86" x2="41.10" y2="39.28"></line><line class="link fake transparent" x1="76.44" y1="44.53" x2="59.88" y2="34.64"></line><line class="link fake transparent" x1="76.44" y1="44.53" x2="43.00" y2="23.47"></line><line class="link fake transparent" x1="116.10" y1="205.41" x2="118.59" y2="190.44"></line><line class="link fake transparent" x1="116.10" y1="205.41" x2="121.63" y2="175.66"></line><line class="link fake transparent" x1="104.44" y1="195.19" x2="118.59" y2="190.44"></line><line class="link fake transparent" x1="104.44" y1="195.19" x2="133.03" y2="185.63"></line><line class="link fake transparent" x1="107.54" y1="179.88" x2="118.59" y2="190.44"></line><line class="link fake transparent" x1="107.54" y1="179.88" x2="129.97" y2="200.43"></line><line class="link fake transparent" x1="121.63" y1="175.66" x2="118.59" y2="190.44"></line><line class="link fake transparent" x1="121.63" y1="175.66" x2="116.10" y2="205.41"></line><line class="link fake transparent" x1="133.03" y1="185.63" x2="118.59" y2="190.44"></line><line class="link fake transparent" x1="133.03" y1="185.63" x2="104.44" y2="195.19"></line><line class="link fake transparent" x1="129.97" y1="200.43" x2="118.59" y2="190.44"></line><line class="link fake transparent" x1="129.97" y1="200.43" x2="107.54" y2="179.88"></line></g><g><g class="noselect gnode" struct_name="m" transform="translate(140.61,264.23)" r="6.5"><circle class="node" r="6" node_type="nucleotide" style="fill: lightgreen;"></circle><text text-anchor="middle" font-size="8" font-weight="bold" y="2.5" class="node-label">U</text></g><g class="noselect gnode" struct_name="m" transform="translate(135.07,249.92)" r="6.5"><circle class="node" r="6" node_type="nucleotide" style="fill: lightgreen;"></circle><text text-anchor="middle" font-size="8" font-weight="bold" y="2.5" class="node-label">G</text></g><g class="noselect gnode" struct_name="m" transform="translate(128.78,235.40)" r="6.5"><circle class="node" r="6" node_type="nucleotide" style="fill: lightgreen;"></circle><text text-anchor="middle" font-size="8" font-weight="bold" y="2.5" class="node-label">C</text></g><g class="noselect gnode" struct_name="m" transform="translate(122.29,220.59)" r="6.5"><circle class="node" r="6" node_type="nucleotide" style="fill: lightgreen;"></circle><text text-anchor="middle" font-size="8" font-weight="bold" y="2.5" class="node-label">A</text></g><g class="noselect gnode" struct_name="m" transform="translate(116.10,205.41)" r="6.5"><circle class="node" r="6" node_type="nucleotide" style="fill: lightgreen;"></circle><text text-anchor="middle" font-size="8" font-weight="bold" y="2.5" class="node-label">U</text></g><g class="noselect gnode" struct_name="m" transform="translate(104.44,195.19)" r="6.5"><circle class="node" r="6" node_type="nucleotide" style="fill: rgb(219, 219, 141);"></circle><text text-anchor="middle" font-size="8" font-weight="bold" y="2.5" class="node-label">G</text></g><g class="noselect gnode" struct_name="m" transform="translate(107.54,179.88)" r="6.5"><circle class="node" r="6" node_type="nucleotide" style="fill: lightgreen;"></circle><text text-anchor="middle" font-size="8" font-weight="bold" y="2.5" class="node-label">U</text></g><g class="noselect gnode" struct_name="m" transform="translate(103.84,163.24)" r="6.5"><circle class="node" r="6" node_type="nucleotide" style="fill: lightgreen;"></circle><text text-anchor="middle" font-size="8" font-weight="bold" y="2.5" class="node-label">C</text></g><g class="noselect gnode" struct_name="m" transform="translate(102.28,146.07)" r="6.5"><circle class="node" r="6" node_type="nucleotide" style="fill: lightgreen;"></circle><text text-anchor="middle" font-size="8" font-weight="bold" y="2.5" class="node-label">C</text></g><g class="noselect gnode" struct_name="m" transform="translate(103.23,128.54)" r="6.5"><circle class="node" r="6" node_type="nucleotide" style="fill: lightgreen;"></circle><text text-anchor="middle" font-size="8" font-weight="bold" y="2.5" class="node-label">A</text></g><g class="noselect gnode" struct_name="m" transform="translate(107.63,110.82)" r="6.5"><circle class="node" r="6" node_type="nucleotide" style="fill: lightgreen;"></circle><text text-anchor="middle" font-size="8" font-weight="bold" y="2.5" class="node-label">A</text></g><g class="noselect gnode" struct_name="m" transform="translate(103.05,93.81)" r="6.5"><circle class="node" r="6" node_type="nucleotide" style="fill: lightgreen;"></circle><text text-anchor="middle" font-size="8" font-weight="bold" y="2.5" class="node-label">G</text></g><g class="noselect gnode" struct_name="m" transform="translate(90.70,79.42)" r="6.5"><circle class="node" r="6" node_type="nucleotide" style="fill: lightgreen;"></circle><text text-anchor="middle" font-size="8" font-weight="bold" y="2.5" class="node-label">U</text></g><g class="noselect gnode" struct_name="m" transform="translate(78.57,66.20)" r="6.5"><circle class="node" r="6" node_type="nucleotide" style="fill: lightgreen;"></circle><text text-anchor="middle" font-size="8" font-weight="bold" y="2.5" class="node-label">A</text></g><g class="noselect gnode" struct_name="m" transform="translate(65.43,54.24)" r="6.5"><circle class="node" r="6" node_type="nucleotide" style="fill: lightgreen;"></circle><text text-anchor="middle" font-size="8" font-weight="bold" y="2.5" class="node-label">C</text></g><g class="noselect gnode" struct_name="m" transform="translate(49.81,51.24)" r="6.5"><circle class="node" r="6" node_type="nucleotide" style="fill: rgb(219, 219, 141);"></circle><text text-anchor="middle" font-size="8" font-weight="bold" y="2.5" class="node-label">C</text></g><g class="noselect gnode" struct_name="m" transform="translate(41.10,39.28)" r="6.5"><circle class="node" r="6" node_type="nucleotide" style="fill: rgb(219, 219, 141);"></circle><text text-anchor="middle" font-size="8" font-weight="bold" y="2.5" class="node-label">A</text></g><g class="noselect gnode" struct_name="m" transform="translate(43.00,23.47)" r="6.5"><circle class="node" r="6" node_type="nucleotide" style="fill: lightgreen;"></circle><text text-anchor="middle" font-size="8" font-weight="bold" y="2.5" class="node-label">G</text></g><g class="noselect gnode" struct_name="m" transform="translate(35.05,8.74)" r="6.5"><circle class="node" r="6" node_type="nucleotide" style="fill: lightgreen;"></circle><text text-anchor="middle" font-size="8" font-weight="bold" y="2.5" class="node-label">G</text></g><g class="noselect gnode" struct_name="m" transform="translate(27.87,-6.15)" r="6.5"><circle class="node" r="6" node_type="nucleotide" style="fill: lightgreen;"></circle><text text-anchor="middle" font-size="8" font-weight="bold" y="2.5" class="node-label">A</text></g><g class="noselect gnode" struct_name="m" transform="translate(21.10,-20.98)" r="6.5"><circle class="node" r="6" node_type="nucleotide" style="fill: lightgreen;"></circle><text text-anchor="middle" font-size="8" font-weight="bold" y="2.5" class="node-label">G</text></g><g class="noselect gnode" struct_name="m" transform="translate(14.34,-35.40)" r="6.5"><circle class="node" r="6" node_type="nucleotide" style="fill: lightgreen;"></circle><text text-anchor="middle" font-size="8" font-weight="bold" y="2.5" class="node-label">C</text></g><g class="noselect gnode" struct_name="m" transform="translate(-0.01,-40.81)" r="6.5"><circle class="node" r="6" node_type="nucleotide" style="fill: lightblue;"></circle><text text-anchor="middle" font-size="8" font-weight="bold" y="2.5" class="node-label">A</text></g><g class="noselect gnode" struct_name="m" transform="translate(-6.35,-54.39)" r="6.5"><circle class="node" r="6" node_type="nucleotide" style="fill: lightblue;"></circle><text text-anchor="middle" font-size="8" font-weight="bold" y="2.5" class="node-label">U</text></g><g class="noselect gnode" struct_name="m" transform="translate(-1.09,-68.48)" r="6.5"><circle class="node" r="6" node_type="nucleotide" style="fill: lightblue;"></circle><text text-anchor="middle" font-size="8" font-weight="bold" y="2.5" class="node-label">G</text></g><g class="noselect gnode" struct_name="m" transform="translate(12.41,-74.82)" r="6.5"><circle class="node" r="6" node_type="nucleotide" style="fill: lightblue;"></circle><text text-anchor="middle" font-size="8" font-weight="bold" y="2.5" class="node-label">A</text></g><g class="noselect gnode" struct_name="m" transform="translate(26.59,-69.77)" r="6.5"><circle class="node" r="6" node_type="nucleotide" style="fill: lightblue;"></circle><text text-anchor="middle" font-size="8" font-weight="bold" y="2.5" class="node-label">A</text></g><g class="noselect gnode" struct_name="m" transform="translate(32.92,-56.24)" r="6.5"><circle class="node" r="6" node_type="nucleotide" style="fill: lightblue;"></circle><text text-anchor="middle" font-size="8" font-weight="bold" y="2.5" class="node-label">G</text></g><g class="noselect gnode" struct_name="m" transform="translate(27.84,-41.63)" r="6.5"><circle class="node" r="6" node_type="nucleotide" style="fill: lightgreen;"></circle><text text-anchor="middle" font-size="8" font-weight="bold" y="2.5" class="node-label">G</text></g><g class="noselect gnode" struct_name="m" transform="translate(34.30,-26.96)" r="6.5"><circle class="node" r="6" node_type="nucleotide" style="fill: lightgreen;"></circle><text text-anchor="middle" font-size="8" font-weight="bold" y="2.5" class="node-label">C</text></g><g class="noselect gnode" struct_name="m" transform="translate(40.99,-12.26)" r="6.5"><circle class="node" r="6" node_type="nucleotide" style="fill: lightgreen;"></circle><text text-anchor="middle" font-size="8" font-weight="bold" y="2.5" class="node-label">U</text></g><g class="noselect gnode" struct_name="m" transform="translate(47.89,2.17)" r="6.5"><circle class="node" r="6" node_type="nucleotide" style="fill: lightgreen;"></circle><text text-anchor="middle" font-size="8" font-weight="bold" y="2.5" class="node-label">U</text></g><g class="noselect gnode" struct_name="m" transform="translate(55.52,15.69)" r="6.5"><circle class="node" r="6" node_type="nucleotide" style="fill: lightgreen;"></circle><text text-anchor="middle" font-size="8" font-weight="bold" y="2.5" class="node-label">C</text></g><g class="noselect gnode" struct_name="m" transform="translate(70.36,17.69)" r="6.5"><circle class="node" r="6" node_type="nucleotide" style="fill: rgb(219, 219, 141);"></circle><text text-anchor="middle" font-size="8" font-weight="bold" y="2.5" class="node-label">G</text></g><g class="noselect gnode" struct_name="m" transform="translate(79.25,29.86)" r="6.5"><circle class="node" r="6" node_type="nucleotide" style="fill: rgb(219, 219, 141);"></circle><text text-anchor="middle" font-size="8" font-weight="bold" y="2.5" class="node-label">A</text></g><g class="noselect gnode" struct_name="m" transform="translate(76.44,44.53)" r="6.5"><circle class="node" r="6" node_type="nucleotide" style="fill: lightgreen;"></circle><text text-anchor="middle" font-size="8" font-weight="bold" y="2.5" class="node-label">G</text></g><g class="noselect gnode" struct_name="m" transform="translate(86.91,54.15)" r="6.5"><circle class="node" r="6" node_type="nucleotide" style="fill: lightgreen;"></circle><text text-anchor="middle" font-size="8" font-weight="bold" y="2.5" class="node-label">U</text></g><g class="noselect gnode" struct_name="m" transform="translate(101.69,57.05)" r="6.5"><circle class="node" r="6" node_type="nucleotide" style="fill: rgb(219, 219, 141);"></circle><text text-anchor="middle" font-size="8" font-weight="bold" y="2.5" class="node-label">C</text></g><g class="noselect gnode" struct_name="m" transform="translate(103.21,72.05)" r="6.5"><circle class="node" r="6" node_type="nucleotide" style="fill: lightgreen;"></circle><text text-anchor="middle" font-size="8" font-weight="bold" y="2.5" class="node-label">A</text></g><g class="noselect gnode" struct_name="m" transform="translate(112.05,82.49)" r="6.5"><circle class="node" r="6" node_type="nucleotide" style="fill: lightgreen;"></circle><text text-anchor="middle" font-size="8" font-weight="bold" y="2.5" class="node-label">C</text></g><g class="noselect gnode" struct_name="m" transform="translate(126.47,78.02)" r="6.5"><circle class="node" r="6" node_type="nucleotide" style="fill: rgb(219, 219, 141);"></circle><text text-anchor="middle" font-size="8" font-weight="bold" y="2.5" class="node-label">A</text></g><g class="noselect gnode" struct_name="m" transform="translate(138.99,86.20)" r="6.5"><circle class="node" r="6" node_type="nucleotide" style="fill: rgb(219, 219, 141);"></circle><text text-anchor="middle" font-size="8" font-weight="bold" y="2.5" class="node-label">A</text></g><g class="noselect gnode" struct_name="m" transform="translate(142.50,100.11)" r="6.5"><circle class="node" r="6" node_type="nucleotide" style="fill: rgb(219, 219, 141);"></circle><text text-anchor="middle" font-size="8" font-weight="bold" y="2.5" class="node-label">A</text></g><g class="noselect gnode" struct_name="m" transform="translate(135.73,113.52)" r="6.5"><circle class="node" r="6" node_type="nucleotide" style="fill: rgb(219, 219, 141);"></circle><text text-anchor="middle" font-size="8" font-weight="bold" y="2.5" class="node-label">A</text></g><g class="noselect gnode" struct_name="m" transform="translate(120.95,116.65)" r="6.5"><circle class="node" r="6" node_type="nucleotide" style="fill: lightgreen;"></circle><text text-anchor="middle" font-size="8" font-weight="bold" y="2.5" class="node-label">U</text></g><g class="noselect gnode" struct_name="m" transform="translate(117.44,130.59)" r="6.5"><circle class="node" r="6" node_type="nucleotide" style="fill: lightgreen;"></circle><text text-anchor="middle" font-size="8" font-weight="bold" y="2.5" class="node-label">U</text></g><g class="noselect gnode" struct_name="m" transform="translate(116.68,145.73)" r="6.5"><circle class="node" r="6" node_type="nucleotide" style="fill: lightgreen;"></circle><text text-anchor="middle" font-size="8" font-weight="bold" y="2.5" class="node-label">G</text></g><g class="noselect gnode" struct_name="m" transform="translate(118.09,160.90)" r="6.5"><circle class="node" r="6" node_type="nucleotide" style="fill: lightgreen;"></circle><text text-anchor="middle" font-size="8" font-weight="bold" y="2.5" class="node-label">G</text></g><g class="noselect gnode" struct_name="m" transform="translate(121.63,175.66)" r="6.5"><circle class="node" r="6" node_type="nucleotide" style="fill: lightgreen;"></circle><text text-anchor="middle" font-size="8" font-weight="bold" y="2.5" class="node-label">A</text></g><g class="noselect gnode" struct_name="m" transform="translate(133.03,185.63)" r="6.5"><circle class="node" r="6" node_type="nucleotide" style="fill: rgb(219, 219, 141);"></circle><text text-anchor="middle" font-size="8" font-weight="bold" y="2.5" class="node-label">G</text></g><g class="noselect gnode" struct_name="m" transform="translate(129.97,200.43)" r="6.5"><circle class="node" r="6" node_type="nucleotide" style="fill: lightgreen;"></circle><text text-anchor="middle" font-size="8" font-weight="bold" y="2.5" class="node-label">G</text></g><g class="noselect gnode" struct_name="m" transform="translate(135.70,214.93)" r="6.5"><circle class="node" r="6" node_type="nucleotide" style="fill: lightgreen;"></circle><text text-anchor="middle" font-size="8" font-weight="bold" y="2.5" class="node-label">U</text></g><g class="noselect gnode" struct_name="m" transform="translate(142.15,229.53)" r="6.5"><circle class="node" r="6" node_type="nucleotide" style="fill: lightgreen;"></circle><text text-anchor="middle" font-size="8" font-weight="bold" y="2.5" class="node-label">G</text></g><g class="noselect gnode" struct_name="m" transform="translate(148.60,244.28)" r="6.5"><circle class="node" r="6" node_type="nucleotide" style="fill: lightgreen;"></circle><text text-anchor="middle" font-size="8" font-weight="bold" y="2.5" class="node-label">C</text></g><g class="noselect gnode" struct_name="m" transform="translate(154.65,259.16)" r="6.5"><circle class="node" r="6" node_type="nucleotide" style="fill: lightgreen;"></circle><text text-anchor="middle" font-size="8" font-weight="bold" y="2.5" class="node-label">A</text></g><g class="noselect gnode" struct_name="m" transform="translate(169.00,264.83)" r="6.5"><circle class="node" r="6" node_type="nucleotide" style="fill: lightsalmon;"></circle><text text-anchor="middle" font-size="8" font-weight="bold" y="2.5" class="node-label">A</text></g><g class="noselect gnode" struct_name="m" transform="translate(176.21,277.92)" r="6.5"><circle class="node" r="6" node_type="nucleotide" style="fill: lightsalmon;"></circle><text text-anchor="middle" font-size="8" font-weight="bold" y="2.5" class="node-label">A</text></g><g class="noselect gnode" struct_name="m" transform="translate(173.76,292.79)" r="6.5"><circle class="node" r="6" node_type="nucleotide" style="fill: lightsalmon;"></circle><text text-anchor="middle" font-size="8" font-weight="bold" y="2.5" class="node-label">A</text></g><g class="noselect gnode" struct_name="m" transform="translate(162.37,302.46)" r="6.5"><circle class="node" r="6" node_type="nucleotide" style="fill: lightsalmon;"></circle><text text-anchor="middle" font-size="8" font-weight="bold" y="2.5" class="node-label">U</text></g><g class="noselect gnode" struct_name="m" transform="translate(147.45,302.82)" r="6.5"><circle class="node" r="6" node_type="nucleotide" style="fill: lightsalmon;"></circle><text text-anchor="middle" font-size="8" font-weight="bold" y="2.5" class="node-label">G</text></g><g class="noselect gnode" struct_name="m" transform="translate(87.95,131.67)" r="6.5"><circle class="node label" r="6" node_type="label"></circle><text text-anchor="middle" font-size="8" font-weight="bold" y="2.5" class="node-label">10</text></g><g class="noselect gnode" struct_name="m" transform="translate(13.87,0.68)" r="6.5"><circle class="node label" r="6" node_type="label"></circle><text text-anchor="middle" font-size="8" font-weight="bold" y="2.5" class="node-label">20</text></g><g class="noselect gnode" struct_name="m" transform="translate(46.79,-36.29)" r="6.5"><circle class="node label" r="6" node_type="label"></circle><text text-anchor="middle" font-size="8" font-weight="bold" y="2.5" class="node-label">30</text></g><g class="noselect gnode" struct_name="m" transform="translate(119.13,68.56)" r="6.5"><circle class="node label" r="6" node_type="label"></circle><text text-anchor="middle" font-size="8" font-weight="bold" y="2.5" class="node-label">40</text></g><g class="noselect gnode" struct_name="m" transform="translate(148.31,182.52)" r="6.5"><circle class="node label" r="6" node_type="label"></circle><text text-anchor="middle" font-size="8" font-weight="bold" y="2.5" class="node-label">50</text></g><g class="noselect gnode" struct_name="m" transform="translate(138.21,315.22)" r="6.5"><circle class="node label" r="6" node_type="label"></circle><text text-anchor="middle" font-size="8" font-weight="bold" y="2.5" class="node-label">60</text></g><g class="noselect gnode" transform="translate(112.25,170.06)" r="6.5"><circle class="node" r="0" node_type="middle"></circle><text text-anchor="middle" font-size="8" font-weight="bold" y="2.5" class="node-label"></text></g><g class="noselect gnode" transform="translate(109.64,154.03)" r="6.5"><circle class="node" r="0" node_type="middle"></circle><text text-anchor="middle" font-size="8" font-weight="bold" y="2.5" class="node-label"></text></g><g class="noselect gnode" transform="translate(109.29,137.75)" r="6.5"><circle class="node" r="0" node_type="middle"></circle><text text-anchor="middle" font-size="8" font-weight="bold" y="2.5" class="node-label"></text></g><g class="noselect gnode" transform="translate(111.42,121.52)" r="6.5"><circle class="node" r="0" node_type="middle"></circle><text text-anchor="middle" font-size="8" font-weight="bold" y="2.5" class="node-label"></text></g><g class="noselect gnode" transform="translate(101.24,82.66)" r="6.5"><circle class="node" r="0" node_type="middle"></circle><text text-anchor="middle" font-size="8" font-weight="bold" y="2.5" class="node-label"></text></g><g class="noselect gnode" transform="translate(76.25,55.38)" r="6.5"><circle class="node" r="0" node_type="middle"></circle><text text-anchor="middle" font-size="8" font-weight="bold" y="2.5" class="node-label"></text></g><g class="noselect gnode" transform="translate(45.10,12.71)" r="6.5"><circle class="node" r="0" node_type="middle"></circle><text text-anchor="middle" font-size="8" font-weight="bold" y="2.5" class="node-label"></text></g><g class="noselect gnode" transform="translate(37.82,-1.82)" r="6.5"><circle class="node" r="0" node_type="middle"></circle><text text-anchor="middle" font-size="8" font-weight="bold" y="2.5" class="node-label"></text></g><g class="noselect gnode" transform="translate(31.03,-16.58)" r="6.5"><circle class="node" r="0" node_type="middle"></circle><text text-anchor="middle" font-size="8" font-weight="bold" y="2.5" class="node-label"></text></g><g class="noselect gnode" transform="translate(24.38,-31.31)" r="6.5"><circle class="node" r="0" node_type="middle"></circle><text text-anchor="middle" font-size="8" font-weight="bold" y="2.5" class="node-label"></text></g><g class="noselect gnode" transform="translate(144.95,254.44)" r="6.5"><circle class="node" r="0" node_type="middle"></circle><text text-anchor="middle" font-size="8" font-weight="bold" y="2.5" class="node-label"></text></g><g class="noselect gnode" transform="translate(138.75,239.79)" r="6.5"><circle class="node" r="0" node_type="middle"></circle><text text-anchor="middle" font-size="8" font-weight="bold" y="2.5" class="node-label"></text></g><g class="noselect gnode" transform="translate(132.20,225.16)" r="6.5"><circle class="node" r="0" node_type="middle"></circle><text text-anchor="middle" font-size="8" font-weight="bold" y="2.5" class="node-label"></text></g><g class="noselect gnode" transform="translate(125.82,210.42)" r="6.5"><circle class="node" r="0" node_type="middle"></circle><text text-anchor="middle" font-size="8" font-weight="bold" y="2.5" class="node-label"></text></g><g class="noselect gnode" transform="translate(135.26,295.11)" r="6.5"><circle class="node" r="0" node_type="middle"></circle><text text-anchor="middle" font-size="8" font-weight="bold" y="2.5" class="node-label"></text></g><g class="noselect gnode" transform="translate(130.77,280.79)" r="6.5"><circle class="node" r="0" node_type="middle"></circle><text text-anchor="middle" font-size="8" font-weight="bold" y="2.5" class="node-label"></text></g><g class="noselect gnode" transform="translate(154.58,281.55)" r="6.5"><circle class="node" r="0" node_type="middle"></circle><text text-anchor="middle" font-size="8" font-weight="bold" y="2.5" class="node-label"></text></g><g class="noselect gnode" transform="translate(13.39,-55.10)" r="6.5"><circle class="node" r="0" node_type="middle"></circle><text text-anchor="middle" font-size="8" font-weight="bold" y="2.5" class="node-label"></text></g><g class="noselect gnode" transform="translate(122.88,97.84)" r="6.5"><circle class="node" r="0" node_type="middle"></circle><text text-anchor="middle" font-size="8" font-weight="bold" y="2.5" class="node-label"></text></g><g class="noselect gnode" transform="translate(91.67,66.29)" r="6.5"><circle class="node" r="0" node_type="middle"></circle><text text-anchor="middle" font-size="8" font-weight="bold" y="2.5" class="node-label"></text></g><g class="noselect gnode" transform="translate(59.88,34.64)" r="6.5"><circle class="node" r="0" node_type="middle"></circle><text text-anchor="middle" font-size="8" font-weight="bold" y="2.5" class="node-label"></text></g><g class="noselect gnode" transform="translate(118.59,190.44)" r="6.5"><circle class="node" r="0" node_type="middle"></circle><text text-anchor="middle" font-size="8" font-weight="bold" y="2.5" class="node-label"></text></g></g><line class="drag_line" x1="0" y1="0" x2="0" y2="0"></line></g></g></svg>