<svg xmlns="http://www.w3.org/2000/svg" viewBox="0 0 760 640" width="760" height="640"><style>svg {
  display: block;
  min-width: 100%;
  width: 100%;
  min-height: 100%;
}

circle.node {
  stroke: #ccc;
  stroke-width: 1px;
  opacity: 1;
  fill: white;
}

circle.node.label {
    stroke: transparent;
    stroke-width: 0;
    fill: white;
}

circle.outline_node {
    stroke-width: 1px;
    fill: red;
}

circle.protein {
    fill: gray;
    fill-opacity: 0.5;
    stroke-width: 4;
}

circle.hidden_outline {
    stroke-width: 0px;
}


line.link {
  stroke: #999;
  stroke-opacity: 0.8;
  stroke-width: 2;
}

line.basepair {
  stroke: red;
}

line.intermolecule {
  stroke: blue;
}

line.chain_chain {
  stroke-dasharray: 3,3;
}

line.fake {
  stroke: green;
}

.transparent {
    fill: transparent;
    stroke-width: 0;
    stroke-opacity: 0;
    opacity: 0;
    visibility: hidden;
}

.drag_line {
  stroke: #999;
  stroke-width: 2;
  pointer-events: none;
}

.drag_line_hidden {
  stroke: #999;
  stroke-width: 0;
  pointer-events: none;
}

.d3-tip {
    line-height: 1;
    font-weight: bold;
    padding: 6px;
    background: rgba(0, 0, 0, 0.6);
    color: #fff;
    border-radius: 4px;
    pointer-events: none;
          }

text.node-label {
    font-weight: bold;
    font-family: Tahoma, Geneva, sans-serif;
    color: rgb(100,100,100);
    pointer-events: none;
}

text {
    pointer-events: none;
}

g.gnode {

}

circle.outline_node.selected {
    visibility: visible;
}

circle.outline_node {
    visibility: hidden;
}

.brush .extent {
  fill-opacity: .1;
  stroke: #fff;
  shape-rendering: crispEdges;
}

.noselect {
    -webkit-touch-callout: none;
    -webkit-user-select: none;
    -khtml-user-select: none;
    -moz-user-select: none;
    -ms-user-select: none;
    user-select: none;
}

svg {
  display: block;
  min-width: 100%;
  width: 100%;
  min-height: 100%;
}

circle.node {
  stroke: #ccc;
  stroke-width: 1px;
  opacity: 1;
  fill: white;
}

circle.node.label {
    stroke: transparent;
    stroke-width: 0;
    fill: white;
}

circle.outline_node {
    stroke-width: 1px;
    fill: red;
}

circle.protein {
    fill: gray;
    fill-opacity: 0.5;
    stroke-width: 4;
}

circle.hidden_outline {
    stroke-width: 0px;
}


line.link {
  stroke: #999;
  stroke-opacity: 0.8;
  stroke-width: 2;
}

line.basepair {
  stroke: red;
}

line.intermolecule {
  stroke: blue;
}

line.chain_chain {
  stroke-dasharray: 3,3;
}

line.fake {
  stroke: green;
}

.transparent {
    fill: transparent;
    stroke-width: 0;
    stroke-opacity: 0;
    opacity: 0;
    visibility: hidden;
}

.drag_line {
  stroke: #999;
  stroke-width: 2;
  pointer-events: none;
}

.drag_line_hidden {
  stroke: #999;
  stroke-width: 0;
  pointer-events: none;
}

.d3-tip {
    line-height: 1;
    font-weight: bold;
    padding: 6px;
    background: rgba(0, 0, 0, 0.6);
    color: #fff;
    border-radius: 4px;
    pointer-events: none;
          }

text.node-label {
    font-weight: bold;
    font-family: Tahoma, Geneva, sans-serif;
    color: rgb(100,100,100);
    pointer-events: none;
}

text {
    pointer-events: none;
}

g.gnode {

}

circle.outline_node.selected {
    visibility: visible;
}

circle.outline_node {
    visibility: hidden;
}

.brush .extent {
  fill-opacity: .1;
  stroke: #fff;
  shape-rendering: crispEdges;
}

.noselect {
    -webkit-touch-callout: none;
    -webkit-user-select: none;
    -khtml-user-select: none;
    -moz-user-select: none;
    -ms-user-select: none;
    user-select: none;
}
/*# sourceURL=/Users/yumanakamura/ipy_sandbox/sandbox/claude_sandbox/mrna-transformer/scripts/eval/prerender/forna_vendor/fornac.css*/</style><style></style><g><g class="brush" style="pointer-events: all; -webkit-tap-highlight-color: rgba(0, 0, 0, 0);"><rect class="background" x="0" width="760" y="0" height="640" style="visibility: hidden; cursor: auto;"></rect><rect class="extent" x="0" width="0" y="0" height="0" style="cursor: move;"></rect><g class="resize n" transform="translate(0,0)" style="cursor: ns-resize; display: none;"><rect y="-3" width="0" height="6" style="visibility: hidden;"></rect></g><g class="resize e" transform="translate(0,0)" style="cursor: ew-resize; display: none;"><rect x="-3" width="6" height="0" style="visibility: hidden;"></rect></g><g class="resize s" transform="translate(0,0)" style="cursor: ns-resize; display: none;"><rect y="-3" width="0" height="6" style="visibility: hidden;"></rect></g><g class="resize w" transform="translate(0,0)" style="cursor: ew-resize; display: none;"><rect x="-3" width="6" height="0" style="visibility: hidden;"></rect></g><g class="resize nw" transform="translate(0,0)" style="cursor: nwse-resize; display: none;"><rect x="-3" y="-3" width="6" height="6" style="visibility: hidden;"></rect></g><g class="resize ne" transform="translate(0,0)" style="cursor: nesw-resize; display: none;"><rect x="-3" y="-3" width="6" height="6" style="visibility: hidden;"></rect></g><g class="resize se" transform="translate(0,0)" style="cursor: nwse-resize; display: none;"><rect x="-3" y="-3" width="6" height="6" style="visibility: hidden;"></rect></g><g class="resize sw" transform="translate(0,0)" style="cursor: nesw-resize; display: none;"><rect x="-3" y="-3" width="6" height="6" style="visibility: hidden;"></rect></g></g><g transform="translate(76.77,188.19) scale(1.53)"><g><line class="link backbone" x1="158.98" y1="138.24" x2="148.81" y2="127.10"></line><line class="link basepair" x1="143.64" y1="112.80" x2="144.46" y2="97.84"></line><line class="link backbone" x1="148.81" y1="127.10" x2="143.64" y2="112.80"></line><line class="link basepair" x1="128.44" y1="112.58" x2="127.96" y2="98.03"></line><line class="link backbone" x1="143.64" y1="112.80" x2="128.44" y2="112.58"></line><line class="link basepair" x1="112.86" y1="113.62" x2="111.58" y2="99.11"></line><line class="link backbone" x1="128.44" y1="112.58" x2="112.86" y2="113.62"></line><line class="link basepair" x1="96.95" y1="115.25" x2="95.36" y2="100.86"></line><line class="link backbone" x1="112.86" y1="113.62" x2="96.95" y2="115.25"></line><line class="link basepair" x1="80.75" y1="117.05" x2="79.23" y2="102.69"></line><line class="link backbone" x1="96.95" y1="115.25" x2="80.75" y2="117.05"></line><line class="link basepair" x1="64.40" y1="118.67" x2="63.17" y2="104.26"></line><line class="link backbone" x1="80.75" y1="117.05" x2="64.40" y2="118.67"></line><line class="link basepair" x1="47.89" y1="119.78" x2="47.16" y2="105.40"></line><line class="link backbone" x1="64.40" y1="118.67" x2="47.89" y2="119.78"></line><line class="link basepair" x1="31.45" y1="120.50" x2="31.46" y2="105.65"></line><line class="link backbone" x1="47.89" y1="119.78" x2="31.45" y2="120.50"></line><line class="link basepair" x1="15.88" y1="125.28" x2="7.57" y2="112.76"></line><line class="link backbone" x1="31.45" y1="120.50" x2="15.88" y2="125.28"></line><line class="link backbone" x1="15.88" y1="125.28" x2="8.72" y2="138.89"></line><line class="link backbone" x1="8.72" y1="138.89" x2="-6.22" y2="139.59"></line><line class="link backbone" x1="-6.22" y1="139.59" x2="-14.34" y2="127.01"></line><line class="link backbone" x1="-14.34" y1="127.01" x2="-7.65" y2="113.61"></line><line class="link basepair" x1="7.57" y1="112.76" x2="15.88" y2="125.28"></line><line class="link backbone" x1="-7.65" y1="113.61" x2="7.57" y2="112.76"></line><line class="link backbone" x1="7.57" y1="112.76" x2="16.70" y2="100.46"></line><line class="link basepair" x1="31.46" y1="105.65" x2="31.45" y2="120.50"></line><line class="link backbone" x1="16.70" y1="100.46" x2="31.46" y2="105.65"></line><line class="link basepair" x1="47.16" y1="105.40" x2="47.89" y2="119.78"></line><line class="link backbone" x1="31.46" y1="105.65" x2="47.16" y2="105.40"></line><line class="link basepair" x1="63.17" y1="104.26" x2="64.40" y2="118.67"></line><line class="link backbone" x1="47.16" y1="105.40" x2="63.17" y2="104.26"></line><line class="link basepair" x1="79.23" y1="102.69" x2="80.75" y2="117.05"></line><line class="link backbone" x1="63.17" y1="104.26" x2="79.23" y2="102.69"></line><line class="link basepair" x1="95.36" y1="100.86" x2="96.95" y2="115.25"></line><line class="link backbone" x1="79.23" y1="102.69" x2="95.36" y2="100.86"></line><line class="link basepair" x1="111.58" y1="99.11" x2="112.86" y2="113.62"></line><line class="link backbone" x1="95.36" y1="100.86" x2="111.58" y2="99.11"></line><line class="link basepair" x1="127.96" y1="98.03" x2="128.44" y2="112.58"></line><line class="link backbone" x1="111.58" y1="99.11" x2="127.96" y2="98.03"></line><line class="link basepair" x1="144.46" y1="97.84" x2="143.64" y2="112.80"></line><line class="link backbone" x1="127.96" y1="98.03" x2="144.46" y2="97.84"></line><line class="link backbone" x1="144.46" y1="97.84" x2="152.66" y2="84.54"></line><line class="link backbone" x1="152.66" y1="84.54" x2="165.00" y2="75.70"></line><line class="link backbone" x1="165.00" y1="75.70" x2="180.13" y2="72.71"></line><line class="link backbone" x1="180.13" y1="72.71" x2="194.90" y2="75.97"></line><line class="link basepair" x1="207.84" y1="84.76" x2="214.45" y2="98.20"></line><line class="link backbone" x1="194.90" y1="75.97" x2="207.84" y2="84.76"></line><line class="link basepair" x1="223.37" y1="78.50" x2="228.20" y2="92.20"></line><line class="link backbone" x1="207.84" y1="84.76" x2="223.37" y2="78.50"></line><line class="link basepair" x1="239.54" y1="73.78" x2="242.78" y2="87.99"></line><line class="link backbone" x1="223.37" y1="78.50" x2="239.54" y2="73.78"></line><line class="link basepair" x1="256.28" y1="71.04" x2="257.70" y2="85.51"></line><line class="link backbone" x1="239.54" y1="73.78" x2="256.28" y2="71.04"></line><line class="link basepair" x1="273.27" y1="70.37" x2="272.49" y2="85.21"></line><line class="link backbone" x1="256.28" y1="71.04" x2="273.27" y2="70.37"></line><line class="link basepair" x1="289.78" y1="66.88" x2="296.58" y2="80.04"></line><line class="link backbone" x1="273.27" y1="70.37" x2="289.78" y2="66.88"></line><line class="link basepair" x1="305.35" y1="60.33" x2="310.45" y2="73.90"></line><line class="link backbone" x1="289.78" y1="66.88" x2="305.35" y2="60.33"></line><line class="link basepair" x1="321.21" y1="55.13" x2="325.32" y2="69.05"></line><line class="link backbone" x1="305.35" y1="60.33" x2="321.21" y2="55.13"></line><line class="link basepair" x1="337.07" y1="50.88" x2="340.60" y2="64.99"></line><line class="link backbone" x1="321.21" y1="55.13" x2="337.07" y2="50.88"></line><line class="link basepair" x1="352.89" y1="47.15" x2="356.13" y2="61.36"></line><line class="link backbone" x1="337.07" y1="50.88" x2="352.89" y2="47.15"></line><line class="link basepair" x1="368.51" y1="43.62" x2="371.70" y2="57.95"></line><line class="link backbone" x1="352.89" y1="47.15" x2="368.51" y2="43.62"></line><line class="link basepair" x1="383.72" y1="40.05" x2="387.03" y2="54.70"></line><line class="link backbone" x1="368.51" y1="43.62" x2="383.72" y2="40.05"></line><line class="link backbone" x1="383.72" y1="40.05" x2="397.13" y2="31.96"></line><line class="link backbone" x1="397.13" y1="31.96" x2="408.57" y2="42.09"></line><line class="link backbone" x1="408.57" y1="42.09" x2="402.64" y2="56.19"></line><line class="link basepair" x1="387.03" y1="54.70" x2="383.72" y2="40.05"></line><line class="link backbone" x1="402.64" y1="56.19" x2="387.03" y2="54.70"></line><line class="link basepair" x1="371.70" y1="57.95" x2="368.51" y2="43.62"></line><line class="link backbone" x1="387.03" y1="54.70" x2="371.70" y2="57.95"></line><line class="link basepair" x1="356.13" y1="61.36" x2="352.89" y2="47.15"></line><line class="link backbone" x1="371.70" y1="57.95" x2="356.13" y2="61.36"></line><line class="link basepair" x1="340.60" y1="64.99" x2="337.07" y2="50.88"></line><line class="link backbone" x1="356.13" y1="61.36" x2="340.60" y2="64.99"></line><line class="link basepair" x1="325.32" y1="69.05" x2="321.21" y2="55.13"></line><line class="link backbone" x1="340.60" y1="64.99" x2="325.32" y2="69.05"></line><line class="link basepair" x1="310.45" y1="73.90" x2="305.35" y2="60.33"></line><line class="link backbone" x1="325.32" y1="69.05" x2="310.45" y2="73.90"></line><line class="link basepair" x1="296.58" y1="80.04" x2="289.78" y2="66.88"></line><line class="link backbone" x1="310.45" y1="73.90" x2="296.58" y2="80.04"></line><line class="link backbone" x1="296.58" y1="80.04" x2="286.37" y2="91.53"></line><line class="link basepair" x1="272.49" y1="85.21" x2="273.27" y2="70.37"></line><line class="link backbone" x1="286.37" y1="91.53" x2="272.49" y2="85.21"></line><line class="link basepair" x1="257.70" y1="85.51" x2="256.28" y2="71.04"></line><line class="link backbone" x1="272.49" y1="85.21" x2="257.70" y2="85.51"></line><line class="link basepair" x1="242.78" y1="87.99" x2="239.54" y2="73.78"></line><line class="link backbone" x1="257.70" y1="85.51" x2="242.78" y2="87.99"></line><line class="link basepair" x1="228.20" y1="92.20" x2="223.37" y2="78.50"></line><line class="link backbone" x1="242.78" y1="87.99" x2="228.20" y2="92.20"></line><line class="link basepair" x1="214.45" y1="98.20" x2="207.84" y2="84.76"></line><line class="link backbone" x1="228.20" y1="92.20" x2="214.45" y2="98.20"></line><line class="link backbone" x1="214.45" y1="98.20" x2="215.38" y2="113.42"></line><line class="link backbone" x1="215.38" y1="113.42" x2="210.41" y2="127.63"></line><line class="link backbone" x1="210.41" y1="127.63" x2="200.24" y2="138.74"></line><line class="link label_link" x1="31.45" y1="120.50" x2="30.72" y2="136.03"></line><line class="link label_link" x1="63.17" y1="104.26" x2="62.32" y2="88.69"></line><line class="link label_link" x1="207.84" y1="84.76" x2="206.03" y2="69.33"></line><line class="link label_link" x1="368.51" y1="43.62" x2="368.29" y2="28.09"></line><line class="link label_link" x1="310.45" y1="73.90" x2="315.42" y2="88.72"></line><line class="link label_link" x1="200.24" y1="138.74" x2="205.26" y2="153.52"></line><line class="link fake transparent" x1="289.78" y1="66.88" x2="300.30" y2="69.91"></line><line class="link fake transparent" x1="289.78" y1="66.88" x2="310.45" y2="73.90"></line><line class="link fake transparent" x1="305.35" y1="60.33" x2="300.30" y2="69.91"></line><line class="link fake transparent" x1="310.45" y1="73.90" x2="300.30" y2="69.91"></line><line class="link fake transparent" x1="296.58" y1="80.04" x2="300.30" y2="69.91"></line><line class="link fake transparent" x1="305.35" y1="60.33" x2="315.50" y2="64.30"></line><line class="link fake transparent" x1="321.21" y1="55.13" x2="315.50" y2="64.30"></line><line class="link fake transparent" x1="325.32" y1="69.05" x2="315.50" y2="64.30"></line><line class="link fake transparent" x1="310.45" y1="73.90" x2="315.50" y2="64.30"></line><line class="link fake transparent" x1="321.21" y1="55.13" x2="331.01" y2="59.85"></line><line class="link fake transparent" x1="337.07" y1="50.88" x2="331.01" y2="59.85"></line><line class="link fake transparent" x1="340.60" y1="64.99" x2="331.01" y2="59.85"></line><line class="link fake transparent" x1="325.32" y1="69.05" x2="331.01" y2="59.85"></line><line class="link fake transparent" x1="337.07" y1="50.88" x2="346.67" y2="56.01"></line><line class="link fake transparent" x1="352.89" y1="47.15" x2="346.67" y2="56.01"></line><line class="link fake transparent" x1="356.13" y1="61.36" x2="346.67" y2="56.01"></line><line class="link fake transparent" x1="340.60" y1="64.99" x2="346.67" y2="56.01"></line><line class="link fake transparent" x1="352.89" y1="47.15" x2="362.34" y2="52.50"></line><line class="link fake transparent" x1="368.51" y1="43.62" x2="362.34" y2="52.50"></line><line class="link fake transparent" x1="371.70" y1="57.95" x2="362.34" y2="52.50"></line><line class="link fake transparent" x1="356.13" y1="61.36" x2="362.34" y2="52.50"></line><line class="link fake transparent" x1="368.51" y1="43.62" x2="377.84" y2="49.09"></line><line class="link fake transparent" x1="383.72" y1="40.05" x2="377.84" y2="49.09"></line><line class="link fake transparent" x1="387.03" y1="54.70" x2="377.84" y2="49.09"></line><line class="link fake transparent" x1="371.70" y1="57.95" x2="377.84" y2="49.09"></line><line class="link fake transparent" x1="207.84" y1="84.76" x2="218.17" y2="88.09"></line><line class="link fake transparent" x1="223.37" y1="78.50" x2="218.17" y2="88.09"></line><line class="link fake transparent" x1="228.20" y1="92.20" x2="218.17" y2="88.09"></line><line class="link fake transparent" x1="214.45" y1="98.20" x2="218.17" y2="88.09"></line><line class="link fake transparent" x1="223.37" y1="78.50" x2="233.31" y2="82.67"></line><line class="link fake transparent" x1="239.54" y1="73.78" x2="233.31" y2="82.67"></line><line class="link fake transparent" x1="242.78" y1="87.99" x2="233.31" y2="82.67"></line><line class="link fake transparent" x1="228.20" y1="92.20" x2="233.31" y2="82.67"></line><line class="link fake transparent" x1="239.54" y1="73.78" x2="248.98" y2="79.07"></line><line class="link fake transparent" x1="256.28" y1="71.04" x2="248.98" y2="79.07"></line><line class="link fake transparent" x1="257.70" y1="85.51" x2="248.98" y2="79.07"></line><line class="link fake transparent" x1="242.78" y1="87.99" x2="248.98" y2="79.07"></line><line class="link fake transparent" x1="256.28" y1="71.04" x2="264.95" y2="77.49"></line><line class="link fake transparent" x1="273.27" y1="70.37" x2="264.95" y2="77.49"></line><line class="link fake transparent" x1="272.49" y1="85.21" x2="264.95" y2="77.49"></line><line class="link fake transparent" x1="257.70" y1="85.51" x2="264.95" y2="77.49"></line><line class="link fake transparent" x1="143.64" y1="112.80" x2="136.28" y2="105.01"></line><line class="link fake transparent" x1="128.44" y1="112.58" x2="136.28" y2="105.01"></line><line class="link fake transparent" x1="127.96" y1="98.03" x2="136.28" y2="105.01"></line><line class="link fake transparent" x1="144.46" y1="97.84" x2="136.28" y2="105.01"></line><line class="link fake transparent" x1="128.44" y1="112.58" x2="120.23" y2="105.62"></line><line class="link fake transparent" x1="112.86" y1="113.62" x2="120.23" y2="105.62"></line><line class="link fake transparent" x1="111.58" y1="99.11" x2="120.23" y2="105.62"></line><line class="link fake transparent" x1="127.96" y1="98.03" x2="120.23" y2="105.62"></line><line class="link fake transparent" x1="112.86" y1="113.62" x2="104.22" y2="107.12"></line><line class="link fake transparent" x1="96.95" y1="115.25" x2="104.22" y2="107.12"></line><line class="link fake transparent" x1="95.36" y1="100.86" x2="104.22" y2="107.12"></line><line class="link fake transparent" x1="111.58" y1="99.11" x2="104.22" y2="107.12"></line><line class="link fake transparent" x1="96.95" y1="115.25" x2="88.10" y2="109.00"></line><line class="link fake transparent" x1="80.75" y1="117.05" x2="88.10" y2="109.00"></line><line class="link fake transparent" x1="79.23" y1="102.69" x2="88.10" y2="109.00"></line><line class="link fake transparent" x1="95.36" y1="100.86" x2="88.10" y2="109.00"></line><line class="link fake transparent" x1="80.75" y1="117.05" x2="71.91" y2="110.77"></line><line class="link fake transparent" x1="64.40" y1="118.67" x2="71.91" y2="110.77"></line><line class="link fake transparent" x1="63.17" y1="104.26" x2="71.91" y2="110.77"></line><line class="link fake transparent" x1="79.23" y1="102.69" x2="71.91" y2="110.77"></line><line class="link fake transparent" x1="64.40" y1="118.67" x2="55.67" y2="112.18"></line><line class="link fake transparent" x1="47.89" y1="119.78" x2="55.67" y2="112.18"></line><line class="link fake transparent" x1="47.16" y1="105.40" x2="55.67" y2="112.18"></line><line class="link fake transparent" x1="63.17" y1="104.26" x2="55.67" y2="112.18"></line><line class="link fake transparent" x1="47.89" y1="119.78" x2="39.42" y2="113.00"></line><line class="link fake transparent" x1="31.45" y1="120.50" x2="39.42" y2="113.00"></line><line class="link fake transparent" x1="31.46" y1="105.65" x2="39.42" y2="113.00"></line><line class="link fake transparent" x1="47.16" y1="105.40" x2="39.42" y2="113.00"></line><line class="link fake transparent" x1="158.98" y1="138.24" x2="179.66" y2="108.48"></line><line class="link fake transparent" x1="158.98" y1="138.24" x2="194.90" y2="75.97"></line><line class="link fake transparent" x1="148.81" y1="127.10" x2="179.66" y2="108.48"></line><line class="link fake transparent" x1="148.81" y1="127.10" x2="207.84" y2="84.76"></line><line class="link fake transparent" x1="143.64" y1="112.80" x2="179.66" y2="108.48"></line><line class="link fake transparent" x1="143.64" y1="112.80" x2="214.45" y2="98.20"></line><line class="link fake transparent" x1="144.46" y1="97.84" x2="179.66" y2="108.48"></line><line class="link fake transparent" x1="144.46" y1="97.84" x2="215.38" y2="113.42"></line><line class="link fake transparent" x1="152.66" y1="84.54" x2="179.66" y2="108.48"></line><line class="link fake transparent" x1="152.66" y1="84.54" x2="210.41" y2="127.63"></line><line class="link fake transparent" x1="165.00" y1="75.70" x2="179.66" y2="108.48"></line><line class="link fake transparent" x1="165.00" y1="75.70" x2="200.24" y2="138.74"></line><line class="link fake transparent" x1="180.13" y1="72.71" x2="179.66" y2="108.48"></line><line class="link fake transparent" x1="180.13" y1="72.71" x2="186.77" y2="145.04"></line><line class="link fake transparent" x1="194.90" y1="75.97" x2="179.66" y2="108.48"></line><line class="link fake transparent" x1="194.90" y1="75.97" x2="171.71" y2="144.87"></line><line class="link fake transparent" x1="207.84" y1="84.76" x2="179.66" y2="108.48"></line><line class="link fake transparent" x1="207.84" y1="84.76" x2="158.98" y2="138.24"></line><line class="link fake transparent" x1="214.45" y1="98.20" x2="179.66" y2="108.48"></line><line class="link fake transparent" x1="214.45" y1="98.20" x2="148.81" y2="127.10"></line><line class="link fake transparent" x1="215.38" y1="113.42" x2="179.66" y2="108.48"></line><line class="link fake transparent" x1="215.38" y1="113.42" x2="143.64" y2="112.80"></line><line class="link fake transparent" x1="210.41" y1="127.63" x2="179.66" y2="108.48"></line><line class="link fake transparent" x1="210.41" y1="127.63" x2="144.46" y2="97.84"></line><line class="link fake transparent" x1="200.24" y1="138.74" x2="179.66" y2="108.48"></line><line class="link fake transparent" x1="200.24" y1="138.74" x2="152.66" y2="84.54"></line><line class="link fake transparent" x1="383.72" y1="40.05" x2="395.79" y2="45.02"></line><line class="link fake transparent" x1="383.72" y1="40.05" x2="408.57" y2="42.09"></line><line class="link fake transparent" x1="397.13" y1="31.96" x2="395.79" y2="45.02"></line><line class="link fake transparent" x1="397.13" y1="31.96" x2="402.64" y2="56.19"></line><line class="link fake transparent" x1="408.57" y1="42.09" x2="395.79" y2="45.02"></line><line class="link fake transparent" x1="408.57" y1="42.09" x2="387.03" y2="54.70"></line><line class="link fake transparent" x1="402.64" y1="56.19" x2="395.79" y2="45.02"></line><line class="link fake transparent" x1="402.64" y1="56.19" x2="383.72" y2="40.05"></line><line class="link fake transparent" x1="387.03" y1="54.70" x2="395.79" y2="45.02"></line><line class="link fake transparent" x1="387.03" y1="54.70" x2="397.13" y2="31.96"></line><line class="link fake transparent" x1="15.88" y1="125.28" x2="0.73" y2="126.14"></line><line class="link fake transparent" x1="15.88" y1="125.28" x2="-14.34" y2="127.01"></line><line class="link fake transparent" x1="8.72" y1="138.89" x2="0.73" y2="126.14"></line><line class="link fake transparent" x1="8.72" y1="138.89" x2="-7.65" y2="113.61"></line><line class="link fake transparent" x1="-6.22" y1="139.59" x2="0.73" y2="126.14"></line><line class="link fake transparent" x1="-6.22" y1="139.59" x2="7.57" y2="112.76"></line><line class="link fake transparent" x1="-14.34" y1="127.01" x2="0.73" y2="126.14"></line><line class="link fake transparent" x1="-14.34" y1="127.01" x2="15.88" y2="125.28"></line><line class="link fake transparent" x1="-7.65" y1="113.61" x2="0.73" y2="126.14"></line><line class="link fake transparent" x1="-7.65" y1="113.61" x2="8.72" y2="138.89"></line><line class="link fake transparent" x1="7.57" y1="112.76" x2="0.73" y2="126.14"></line><line class="link fake transparent" x1="7.57" y1="112.76" x2="-6.22" y2="139.59"></line><line class="link fake transparent" x1="273.27" y1="70.37" x2="283.59" y2="78.42"></line><line class="link fake transparent" x1="273.27" y1="70.37" x2="296.58" y2="80.04"></line><line class="link fake transparent" x1="289.78" y1="66.88" x2="283.59" y2="78.42"></line><line class="link fake transparent" x1="289.78" y1="66.88" x2="286.37" y2="91.53"></line><line class="link fake transparent" x1="296.58" y1="80.04" x2="283.59" y2="78.42"></line><line class="link fake transparent" x1="296.58" y1="80.04" x2="272.49" y2="85.21"></line><line class="link fake transparent" x1="286.37" y1="91.53" x2="283.59" y2="78.42"></line><line class="link fake transparent" x1="286.37" y1="91.53" x2="273.27" y2="70.37"></line><line class="link fake transparent" x1="272.49" y1="85.21" x2="283.59" y2="78.42"></line><line class="link fake transparent" x1="272.49" y1="85.21" x2="289.78" y2="66.88"></line><line class="link fake transparent" x1="31.45" y1="120.50" x2="20.66" y2="113.10"></line><line class="link fake transparent" x1="31.45" y1="120.50" x2="7.57" y2="112.76"></line><line class="link fake transparent" x1="15.88" y1="125.28" x2="20.66" y2="113.10"></line><line class="link fake transparent" x1="15.88" y1="125.28" x2="16.70" y2="100.46"></line><line class="link fake transparent" x1="7.57" y1="112.76" x2="20.66" y2="113.10"></line><line class="link fake transparent" x1="7.57" y1="112.76" x2="31.46" y2="105.65"></line><line class="link fake transparent" x1="16.70" y1="100.46" x2="20.66" y2="113.10"></line><line class="link fake transparent" x1="16.70" y1="100.46" x2="31.45" y2="120.50"></line><line class="link fake transparent" x1="31.46" y1="105.65" x2="20.66" y2="113.10"></line><line class="link fake transparent" x1="31.46" y1="105.65" x2="15.88" y2="125.28"></line></g><g><g class="noselect gnode" struct_name="m" transform="translate(158.98,138.24)" r="6.5"><circle class="node" r="6" node_type="nucleotide" style="fill: lightsalmon;"></circle><text text-anchor="middle" font-size="8" font-weight="bold" y="2.5" class="node-label">U</text></g><g class="noselect gnode" struct_name="m" transform="translate(148.81,127.10)" r="6.5"><circle class="node" r="6" node_type="nucleotide" style="fill: lightsalmon;"></circle><text text-anchor="middle" font-size="8" font-weight="bold" y="2.5" class="node-label">C</text></g><g class="noselect gnode" struct_name="m" transform="translate(143.64,112.80)" r="6.5"><circle class="node" r="6" node_type="nucleotide" style="fill: lightgreen;"></circle><text text-anchor="middle" font-size="8" font-weight="bold" y="2.5" class="node-label">G</text></g><g class="noselect gnode" struct_name="m" transform="translate(128.44,112.58)" r="6.5"><circle class="node" r="6" node_type="nucleotide" style="fill: lightgreen;"></circle><text text-anchor="middle" font-size="8" font-weight="bold" y="2.5" class="node-label">G</text></g><g class="noselect gnode" struct_name="m" transform="translate(112.86,113.62)" r="6.5"><circle class="node" r="6" node_type="nucleotide" style="fill: lightgreen;"></circle><text text-anchor="middle" font-size="8" font-weight="bold" y="2.5" class="node-label">A</text></g><g class="noselect gnode" struct_name="m" transform="translate(96.95,115.25)" r="6.5"><circle class="node" r="6" node_type="nucleotide" style="fill: lightgreen;"></circle><text text-anchor="middle" font-size="8" font-weight="bold" y="2.5" class="node-label">C</text></g><g class="noselect gnode" struct_name="m" transform="translate(80.75,117.05)" r="6.5"><circle class="node" r="6" node_type="nucleotide" style="fill: lightgreen;"></circle><text text-anchor="middle" font-size="8" font-weight="bold" y="2.5" class="node-label">G</text></g><g class="noselect gnode" struct_name="m" transform="translate(64.40,118.67)" r="6.5"><circle class="node" r="6" node_type="nucleotide" style="fill: lightgreen;"></circle><text text-anchor="middle" font-size="8" font-weight="bold" y="2.5" class="node-label">A</text></g><g class="noselect gnode" struct_name="m" transform="translate(47.89,119.78)" r="6.5"><circle class="node" r="6" node_type="nucleotide" style="fill: lightgreen;"></circle><text text-anchor="middle" font-size="8" font-weight="bold" y="2.5" class="node-label">C</text></g><g class="noselect gnode" struct_name="m" transform="translate(31.45,120.50)" r="6.5"><circle class="node" r="6" node_type="nucleotide" style="fill: lightgreen;"></circle><text text-anchor="middle" font-size="8" font-weight="bold" y="2.5" class="node-label">U</text></g><g class="noselect gnode" struct_name="m" transform="translate(15.88,125.28)" r="6.5"><circle class="node" r="6" node_type="nucleotide" style="fill: lightgreen;"></circle><text text-anchor="middle" font-size="8" font-weight="bold" y="2.5" class="node-label">G</text></g><g class="noselect gnode" struct_name="m" transform="translate(8.72,138.89)" r="6.5"><circle class="node" r="6" node_type="nucleotide" style="fill: lightblue;"></circle><text text-anchor="middle" font-size="8" font-weight="bold" y="2.5" class="node-label">G</text></g><g class="noselect gnode" struct_name="m" transform="translate(-6.22,139.59)" r="6.5"><circle class="node" r="6" node_type="nucleotide" style="fill: lightblue;"></circle><text text-anchor="middle" font-size="8" font-weight="bold" y="2.5" class="node-label">A</text></g><g class="noselect gnode" struct_name="m" transform="translate(-14.34,127.01)" r="6.5"><circle class="node" r="6" node_type="nucleotide" style="fill: lightblue;"></circle><text text-anchor="middle" font-size="8" font-weight="bold" y="2.5" class="node-label">A</text></g><g class="noselect gnode" struct_name="m" transform="translate(-7.65,113.61)" r="6.5"><circle class="node" r="6" node_type="nucleotide" style="fill: lightblue;"></circle><text text-anchor="middle" font-size="8" font-weight="bold" y="2.5" class="node-label">A</text></g><g class="noselect gnode" struct_name="m" transform="translate(7.57,112.76)" r="6.5"><circle class="node" r="6" node_type="nucleotide" style="fill: lightgreen;"></circle><text text-anchor="middle" font-size="8" font-weight="bold" y="2.5" class="node-label">C</text></g><g class="noselect gnode" struct_name="m" transform="translate(16.70,100.46)" r="6.5"><circle class="node" r="6" node_type="nucleotide" style="fill: rgb(219, 219, 141);"></circle><text text-anchor="middle" font-size="8" font-weight="bold" y="2.5" class="node-label">U</text></g><g class="noselect gnode" struct_name="m" transform="translate(31.46,105.65)" r="6.5"><circle class="node" r="6" node_type="nucleotide" style="fill: lightgreen;"></circle><text text-anchor="middle" font-size="8" font-weight="bold" y="2.5" class="node-label">A</text></g><g class="noselect gnode" struct_name="m" transform="translate(47.16,105.40)" r="6.5"><circle class="node" r="6" node_type="nucleotide" style="fill: lightgreen;"></circle><text text-anchor="middle" font-size="8" font-weight="bold" y="2.5" class="node-label">G</text></g><g class="noselect gnode" struct_name="m" transform="translate(63.17,104.26)" r="6.5"><circle class="node" r="6" node_type="nucleotide" style="fill: lightgreen;"></circle><text text-anchor="middle" font-size="8" font-weight="bold" y="2.5" class="node-label">U</text></g><g class="noselect gnode" struct_name="m" transform="translate(79.23,102.69)" r="6.5"><circle class="node" r="6" node_type="nucleotide" style="fill: lightgreen;"></circle><text text-anchor="middle" font-size="8" font-weight="bold" y="2.5" class="node-label">C</text></g><g class="noselect gnode" struct_name="m" transform="translate(95.36,100.86)" r="6.5"><circle class="node" r="6" node_type="nucleotide" style="fill: lightgreen;"></circle><text text-anchor="middle" font-size="8" font-weight="bold" y="2.5" class="node-label">G</text></g><g class="noselect gnode" struct_name="m" transform="translate(111.58,99.11)" r="6.5"><circle class="node" r="6" node_type="nucleotide" style="fill: lightgreen;"></circle><text text-anchor="middle" font-size="8" font-weight="bold" y="2.5" class="node-label">U</text></g><g class="noselect gnode" struct_name="m" transform="translate(127.96,98.03)" r="6.5"><circle class="node" r="6" node_type="nucleotide" style="fill: lightgreen;"></circle><text text-anchor="middle" font-size="8" font-weight="bold" y="2.5" class="node-label">C</text></g><g class="noselect gnode" struct_name="m" transform="translate(144.46,97.84)" r="6.5"><circle class="node" r="6" node_type="nucleotide" style="fill: lightgreen;"></circle><text text-anchor="middle" font-size="8" font-weight="bold" y="2.5" class="node-label">C</text></g><g class="noselect gnode" struct_name="m" transform="translate(152.66,84.54)" r="6.5"><circle class="node" r="6" node_type="nucleotide" style="fill: lightsalmon;"></circle><text text-anchor="middle" font-size="8" font-weight="bold" y="2.5" class="node-label">U</text></g><g class="noselect gnode" struct_name="m" transform="translate(165.00,75.70)" r="6.5"><circle class="node" r="6" node_type="nucleotide" style="fill: lightsalmon;"></circle><text text-anchor="middle" font-size="8" font-weight="bold" y="2.5" class="node-label">U</text></g><g class="noselect gnode" struct_name="m" transform="translate(180.13,72.71)" r="6.5"><circle class="node" r="6" node_type="nucleotide" style="fill: lightsalmon;"></circle><text text-anchor="middle" font-size="8" font-weight="bold" y="2.5" class="node-label">C</text></g><g class="noselect gnode" struct_name="m" transform="translate(194.90,75.97)" r="6.5"><circle class="node" r="6" node_type="nucleotide" style="fill: lightsalmon;"></circle><text text-anchor="middle" font-size="8" font-weight="bold" y="2.5" class="node-label">C</text></g><g class="noselect gnode" struct_name="m" transform="translate(207.84,84.76)" r="6.5"><circle class="node" r="6" node_type="nucleotide" style="fill: lightgreen;"></circle><text text-anchor="middle" font-size="8" font-weight="bold" y="2.5" class="node-label">C</text></g><g class="noselect gnode" struct_name="m" transform="translate(223.37,78.50)" r="6.5"><circle class="node" r="6" node_type="nucleotide" style="fill: lightgreen;"></circle><text text-anchor="middle" font-size="8" font-weight="bold" y="2.5" class="node-label">U</text></g><g class="noselect gnode" struct_name="m" transform="translate(239.54,73.78)" r="6.5"><circle class="node" r="6" node_type="nucleotide" style="fill: lightgreen;"></circle><text text-anchor="middle" font-size="8" font-weight="bold" y="2.5" class="node-label">C</text></g><g class="noselect gnode" struct_name="m" transform="translate(256.28,71.04)" r="6.5"><circle class="node" r="6" node_type="nucleotide" style="fill: lightgreen;"></circle><text text-anchor="middle" font-size="8" font-weight="bold" y="2.5" class="node-label">G</text></g><g class="noselect gnode" struct_name="m" transform="translate(273.27,70.37)" r="6.5"><circle class="node" r="6" node_type="nucleotide" style="fill: lightgreen;"></circle><text text-anchor="middle" font-size="8" font-weight="bold" y="2.5" class="node-label">U</text></g><g class="noselect gnode" struct_name="m" transform="translate(289.78,66.88)" r="6.5"><circle class="node" r="6" node_type="nucleotide" style="fill: lightgreen;"></circle><text text-anchor="middle" font-size="8" font-weight="bold" y="2.5" class="node-label">G</text></g><g class="noselect gnode" struct_name="m" transform="translate(305.35,60.33)" r="6.5"><circle class="node" r="6" node_type="nucleotide" style="fill: lightgreen;"></circle><text text-anchor="middle" font-size="8" font-weight="bold" y="2.5" class="node-label">U</text></g><g class="noselect gnode" struct_name="m" transform="translate(321.21,55.13)" r="6.5"><circle class="node" r="6" node_type="nucleotide" style="fill: lightgreen;"></circle><text text-anchor="middle" font-size="8" font-weight="bold" y="2.5" class="node-label">U</text></g><g class="noselect gnode" struct_name="m" transform="translate(337.07,50.88)" r="6.5"><circle class="node" r="6" node_type="nucleotide" style="fill: lightgreen;"></circle><text text-anchor="middle" font-size="8" font-weight="bold" y="2.5" class="node-label">A</text></g><g class="noselect gnode" struct_name="m" transform="translate(352.89,47.15)" r="6.5"><circle class="node" r="6" node_type="nucleotide" style="fill: lightgreen;"></circle><text text-anchor="middle" font-size="8" font-weight="bold" y="2.5" class="node-label">U</text></g><g class="noselect gnode" struct_name="m" transform="translate(368.51,43.62)" r="6.5"><circle class="node" r="6" node_type="nucleotide" style="fill: lightgreen;"></circle><text text-anchor="middle" font-size="8" font-weight="bold" y="2.5" class="node-label">G</text></g><g class="noselect gnode" struct_name="m" transform="translate(383.72,40.05)" r="6.5"><circle class="node" r="6" node_type="nucleotide" style="fill: lightgreen;"></circle><text text-anchor="middle" font-size="8" font-weight="bold" y="2.5" class="node-label">A</text></g><g class="noselect gnode" struct_name="m" transform="translate(397.13,31.96)" r="6.5"><circle class="node" r="6" node_type="nucleotide" style="fill: lightblue;"></circle><text text-anchor="middle" font-size="8" font-weight="bold" y="2.5" class="node-label">U</text></g><g class="noselect gnode" struct_name="m" transform="translate(408.57,42.09)" r="6.5"><circle class="node" r="6" node_type="nucleotide" style="fill: lightblue;"></circle><text text-anchor="middle" font-size="8" font-weight="bold" y="2.5" class="node-label">U</text></g><g class="noselect gnode" struct_name="m" transform="translate(402.64,56.19)" r="6.5"><circle class="node" r="6" node_type="nucleotide" style="fill: lightblue;"></circle><text text-anchor="middle" font-size="8" font-weight="bold" y="2.5" class="node-label">G</text></g><g class="noselect gnode" struct_name="m" transform="translate(387.03,54.70)" r="6.5"><circle class="node" r="6" node_type="nucleotide" style="fill: lightgreen;"></circle><text text-anchor="middle" font-size="8" font-weight="bold" y="2.5" class="node-label">U</text></g><g class="noselect gnode" struct_name="m" transform="translate(371.70,57.95)" r="6.5"><circle class="node" r="6" node_type="nucleotide" style="fill: lightgreen;"></circle><text text-anchor="middle" font-size="8" font-weight="bold" y="2.5" class="node-label">C</text></g><g class="noselect gnode" struct_name="m" transform="translate(356.13,61.36)" r="6.5"><circle class="node" r="6" node_type="nucleotide" style="fill: lightgreen;"></circle><text text-anchor="middle" font-size="8" font-weight="bold" y="2.5" class="node-label">A</text></g><g class="noselect gnode" struct_name="m" transform="translate(340.60,64.99)" r="6.5"><circle class="node" r="6" node_type="nucleotide" style="fill: lightgreen;"></circle><text text-anchor="middle" font-size="8" font-weight="bold" y="2.5" class="node-label">U</text></g><g class="noselect gnode" struct_name="m" transform="translate(325.32,69.05)" r="6.5"><circle class="node" r="6" node_type="nucleotide" style="fill: lightgreen;"></circle><text text-anchor="middle" font-size="8" font-weight="bold" y="2.5" class="node-label">A</text></g><g class="noselect gnode" struct_name="m" transform="translate(310.45,73.90)" r="6.5"><circle class="node" r="6" node_type="nucleotide" style="fill: lightgreen;"></circle><text text-anchor="middle" font-size="8" font-weight="bold" y="2.5" class="node-label">A</text></g><g class="noselect gnode" struct_name="m" transform="translate(296.58,80.04)" r="6.5"><circle class="node" r="6" node_type="nucleotide" style="fill: lightgreen;"></circle><text text-anchor="middle" font-size="8" font-weight="bold" y="2.5" class="node-label">C</text></g><g class="noselect gnode" struct_name="m" transform="translate(286.37,91.53)" r="6.5"><circle class="node" r="6" node_type="nucleotide" style="fill: rgb(219, 219, 141);"></circle><text text-anchor="middle" font-size="8" font-weight="bold" y="2.5" class="node-label">G</text></g><g class="noselect gnode" struct_name="m" transform="translate(272.49,85.21)" r="6.5"><circle class="node" r="6" node_type="nucleotide" style="fill: lightgreen;"></circle><text text-anchor="middle" font-size="8" font-weight="bold" y="2.5" class="node-label">A</text></g><g class="noselect gnode" struct_name="m" transform="translate(257.70,85.51)" r="6.5"><circle class="node" r="6" node_type="nucleotide" style="fill: lightgreen;"></circle><text text-anchor="middle" font-size="8" font-weight="bold" y="2.5" class="node-label">C</text></g><g class="noselect gnode" struct_name="m" transform="translate(242.78,87.99)" r="6.5"><circle class="node" r="6" node_type="nucleotide" style="fill: lightgreen;"></circle><text text-anchor="middle" font-size="8" font-weight="bold" y="2.5" class="node-label">G</text></g><g class="noselect gnode" struct_name="m" transform="translate(228.20,92.20)" r="6.5"><circle class="node" r="6" node_type="nucleotide" style="fill: lightgreen;"></circle><text text-anchor="middle" font-size="8" font-weight="bold" y="2.5" class="node-label">A</text></g><g class="noselect gnode" struct_name="m" transform="translate(214.45,98.20)" r="6.5"><circle class="node" r="6" node_type="nucleotide" style="fill: lightgreen;"></circle><text text-anchor="middle" font-size="8" font-weight="bold" y="2.5" class="node-label">G</text></g><g class="noselect gnode" struct_name="m" transform="translate(215.38,113.42)" r="6.5"><circle class="node" r="6" node_type="nucleotide" style="fill: lightsalmon;"></circle><text text-anchor="middle" font-size="8" font-weight="bold" y="2.5" class="node-label">A</text></g><g class="noselect gnode" struct_name="m" transform="translate(210.41,127.63)" r="6.5"><circle class="node" r="6" node_type="nucleotide" style="fill: lightsalmon;"></circle><text text-anchor="middle" font-size="8" font-weight="bold" y="2.5" class="node-label">A</text></g><g class="noselect gnode" struct_name="m" transform="translate(200.24,138.74)" r="6.5"><circle class="node" r="6" node_type="nucleotide" style="fill: lightsalmon;"></circle><text text-anchor="middle" font-size="8" font-weight="bold" y="2.5" class="node-label">A</text></g><g class="noselect gnode" struct_name="m" transform="translate(30.72,136.03)" r="6.5"><circle class="node label" r="6" node_type="label"></circle><text text-anchor="middle" font-size="8" font-weight="bold" y="2.5" class="node-label">10</text></g><g class="noselect gnode" struct_name="m" transform="translate(62.32,88.69)" r="6.5"><circle class="node label" r="6" node_type="label"></circle><text text-anchor="middle" font-size="8" font-weight="bold" y="2.5" class="node-label">20</text></g><g class="noselect gnode" struct_name="m" transform="translate(206.03,69.33)" r="6.5"><circle class="node label" r="6" node_type="label"></circle><text text-anchor="middle" font-size="8" font-weight="bold" y="2.5" class="node-label">30</text></g><g class="noselect gnode" struct_name="m" transform="translate(368.29,28.09)" r="6.5"><circle class="node label" r="6" node_type="label"></circle><text text-anchor="middle" font-size="8" font-weight="bold" y="2.5" class="node-label">40</text></g><g class="noselect gnode" struct_name="m" transform="translate(315.42,88.72)" r="6.5"><circle class="node label" r="6" node_type="label"></circle><text text-anchor="middle" font-size="8" font-weight="bold" y="2.5" class="node-label">50</text></g><g class="noselect gnode" struct_name="m" transform="translate(205.26,153.52)" r="6.5"><circle class="node label" r="6" node_type="label"></circle><text text-anchor="middle" font-size="8" font-weight="bold" y="2.5" class="node-label">60</text></g><g class="noselect gnode" transform="translate(300.30,69.91)" r="6.5"><circle class="node" r="0" node_type="middle"></circle><text text-anchor="middle" font-size="8" font-weight="bold" y="2.5" class="node-label"></text></g><g class="noselect gnode" transform="translate(315.50,64.30)" r="6.5"><circle class="node" r="0" node_type="middle"></circle><text text-anchor="middle" font-size="8" font-weight="bold" y="2.5" class="node-label"></text></g><g class="noselect gnode" transform="translate(331.01,59.85)" r="6.5"><circle class="node" r="0" node_type="middle"></circle><text text-anchor="middle" font-size="8" font-weight="bold" y="2.5" class="node-label"></text></g><g class="noselect gnode" transform="translate(346.67,56.01)" r="6.5"><circle class="node" r="0" node_type="middle"></circle><text text-anchor="middle" font-size="8" font-weight="bold" y="2.5" class="node-label"></text></g><g class="noselect gnode" transform="translate(362.34,52.50)" r="6.5"><circle class="node" r="0" node_type="middle"></circle><text text-anchor="middle" font-size="8" font-weight="bold" y="2.5" class="node-label"></text></g><g class="noselect gnode" transform="translate(377.84,49.09)" r="6.5"><circle class="node" r="0" node_type="middle"></circle><text text-anchor="middle" font-size="8" font-weight="bold" y="2.5" class="node-label"></text></g><g class="noselect gnode" transform="translate(218.17,88.09)" r="6.5"><circle class="node" r="0" node_type="middle"></circle><text text-anchor="middle" font-size="8" font-weight="bold" y="2.5" class="node-label"></text></g><g class="noselect gnode" transform="translate(233.31,82.67)" r="6.5"><circle class="node" r="0" node_type="middle"></circle><text text-anchor="middle" font-size="8" font-weight="bold" y="2.5" class="node-label"></text></g><g class="noselect gnode" transform="translate(248.98,79.07)" r="6.5"><circle class="node" r="0" node_type="middle"></circle><text text-anchor="middle" font-size="8" font-weight="bold" y="2.5" class="node-label"></text></g><g class="noselect gnode" transform="translate(264.95,77.49)" r="6.5"><circle class="node" r="0" node_type="middle"></circle><text text-anchor="middle" font-size="8" font-weight="bold" y="2.5" class="node-label"></text></g><g class="noselect gnode" transform="translate(136.28,105.01)" r="6.5"><circle class="node" r="0" node_type="middle"></circle><text text-anchor="middle" font-size="8" font-weight="bold" y="2.5" class="node-label"></text></g><g class="noselect gnode" transform="translate(120.23,105.62)" r="6.5"><circle class="node" r="0" node_type="middle"></circle><text text-anchor="middle" font-size="8" font-weight="bold" y="2.5" class="node-label"></text></g><g class="noselect gnode" transform="translate(104.22,107.12)" r="6.5"><circle class="node" r="0" node_type="middle"></circle><text text-anchor="middle" font-size="8" font-weight="bold" y="2.5" class="node-label"></text></g><g class="noselect gnode" transform="translate(88.10,109.00)" r="6.5"><circle class="node" r="0" node_type="middle"></circle><text text-anchor="middle" font-size="8" font-weight="bold" y="2.5" class="node-label"></text></g><g class="noselect gnode" transform="translate(71.91,110.77)" r="6.5"><circle class="node" r="0" node_type="middle"></circle><text text-anchor="middle" font-size="8" font-weight="bold" y="2.5" class="node-label"></text></g><g class="noselect gnode" transform="translate(55.67,112.18)" r="6.5"><circle class="node" r="0" node_type="middle"></circle><text text-anchor="middle" font-size="8" font-weight="bold" y="2.5" class="node-label"></text></g><g class="noselect gnode" transform="translate(39.42,113.00)" r="6.5"><circle class="node" r="0" node_type="middle"></circle><text text-anchor="middle" font-size="8" font-weight="bold" y="2.5" class="node-label"></text></g><g class="noselect gnode" transform="translate(186.77,145.04)" r="6.5"><circle class="node" r="0" node_type="middle"></circle><text text-anchor="middle" font-size="8" font-weight="bold" y="2.5" class="node-label"></text></g><g class="noselect gnode" transform="translate(171.71,144.87)" r="6.5"><circle class="node" r="0" node_type="middle"></circle><text text-anchor="middle" font-size="8" font-weight="bold" y="2.5" class="node-label"></text></g><g class="noselect gnode" transform="translate(179.66,108.48)" r="6.5"><circle class="node" r="0" node_type="middle"></circle><text text-anchor="middle" font-size="8" font-weight="bold" y="2.5" class="node-label"></text></g><g class="noselect gnode" transform="translate(395.79,45.02)" r="6.5"><circle class="node" r="0" node_type="middle"></circle><text text-anchor="middle" font-size="8" font-weight="bold" y="2.5" class="node-label"></text></g><g class="noselect gnode" transform="translate(0.73,126.14)" r="6.5"><circle class="node" r="0" node_type="middle"></circle><text text-anchor="middle" font-size="8" font-weight="bold" y="2.5" class="node-label"></text></g><g class="noselect gnode" transform="translate(283.59,78.42)" r="6.5"><circle class="node" r="0" node_type="middle"></circle><text text-anchor="middle" font-size="8" font-weight="bold" y="2.5" class="node-label"></text></g><g class="noselect gnode" transform="translate(20.66,113.10)" r="6.5"><circle class="node" r="0" node_type="middle"></circle><text text-anchor="middle" font-size="8" font-weight="bold" y="2.5" class="node-label"></text></g></g><line class="drag_line" x1="0" y1="0" x2="0" y2="0"></line></g></g></svg>