<svg xmlns="http://www.w3.org/2000/svg" viewBox="0 0 760 640" width="760" height="640"><style>svg {
  display: block;
  min-width: 100%;
  width: 100%;
  min-height: 100%;
}

circle.node {
  stroke: #ccc;
  stroke-width: 1px;
  opacity: 1;
  fill: white;
}

circle.node.label {
    stroke: transparent;
    stroke-width: 0;
    fill: white;
}

circle.outline_node {
    stroke-width: 1px;
    fill: red;
}

circle.protein {
    fill: gray;
    fill-opacity: 0.5;
    stroke-width: 4;
}

circle.hidden_outline {
    stroke-width: 0px;
}


line.link {
  stroke: #999;
  stroke-opacity: 0.8;
  stroke-width: 2;
}

line.basepair {
  stroke: red;
}

line.intermolecule {
  stroke: blue;
}

line.chain_chain {
  stroke-dasharray: 3,3;
}

line.fake {
  stroke: green;
}

.transparent {
    fill: transparent;
    stroke-width: 0;
    stroke-opacity: 0;
    opacity: 0;
    visibility: hidden;
}

.drag_line {
  stroke: #999;
  stroke-width: 2;
  pointer-events: none;
}

.drag_line_hidden {
  stroke: #999;
  stroke-width: 0;
  pointer-events: none;
}

.d3-tip {
    line-height: 1;
    font-weight: bold;
    padding: 6px;
    background: rgba(0, 0, 0, 0.6);
    color: #fff;
    border-radius: 4px;
    pointer-events: none;
          }

text.node-label {
    font-weight: bold;
    font-family: Tahoma, Geneva, sans-serif;
    color: rgb(100,100,100);
    pointer-events: none;
}

text {
    pointer-events: none;
}

g.gnode {

}

circle.outline_node.selected {
    visibility: visible;
}

circle.outline_node {
    visibility: hidden;
}

.brush .extent {
  fill-opacity: .1;
  stroke: #fff;
  shape-rendering: crispEdges;
}

.noselect {
    -webkit-touch-callout: none;
    -webkit-user-select: none;
    -khtml-user-select: none;
    -moz-user-select: none;
    -ms-user-select: none;
    user-select: none;
}

svg {
  display: block;
  min-width: 100%;
  width: 100%;
  min-height: 100%;
}

circle.node {
  stroke: #ccc;
  stroke-width: 1px;
  opacity: 1;
  fill: white;
}

circle.node.label {
    stroke: transparent;
    stroke-width: 0;
    fill: white;
}

circle.outline_node {
    stroke-width: 1px;
    fill: red;
}

circle.protein {
    fill: gray;
    fill-opacity: 0.5;
    stroke-width: 4;
}

circle.hidden_outline {
    stroke-width: 0px;
}


line.link {
  stroke: #999;
  stroke-opacity: 0.8;
  stroke-width: 2;
}

line.basepair {
  stroke: red;
}

line.intermolecule {
  stroke: blue;
}

line.chain_chain {
  stroke-dasharray: 3,3;
}

line.fake {
  stroke: green;
}

.transparent {
    fill: transparent;
    stroke-width: 0;
    stroke-opacity: 0;
    opacity: 0;
    visibility: hidden;
}

.drag_line {
  stroke: #999;
  stroke-width: 2;
  pointer-events: none;
}

.drag_line_hidden {
  stroke: #999;
  stroke-width: 0;
  pointer-events: none;
}

.d3-tip {
    line-height: 1;
    font-weight: bold;
    padding: 6px;
    background: rgba(0, 0, 0, 0.6);
    color: #fff;
    border-radius: 4px;
    pointer-events: none;
          }

text.node-label {
    font-weight: bold;
    font-family: Tahoma, Geneva, sans-serif;
    color: rgb(100,100,100);
    pointer-events: none;
}

text {
    pointer-events: none;
}

g.gnode {

}

circle.outline_node.selected {
    visibility: visible;
}

circle.outline_node {
    visibility: hidden;
}

.brush .extent {
  fill-opacity: .1;
  stroke: #fff;
  shape-rendering: crispEdges;
}

.noselect {
    -webkit-touch-callout: none;
    -webkit-user-select: none;
    -khtml-user-select: none;
    -moz-user-select: none;
    -ms-user-select: none;
    user-select: none;
}
/*# sourceURL=/Users/yumanakamura/ipy_sandbox/sandbox/claude_sandbox/mrna-transformer/scripts/eval/prerender/forna_vendor/fornac.css*/</style><style></style><g><g class="brush" style="pointer-events: all; -webkit-tap-highlight-color: rgba(0, 0, 0, 0);"><rect class="background" x="0" width="760" y="0" height="640" style="visibility: hidden; cursor: auto;"></rect><rect class="extent" x="0" width="0" y="0" height="0" style="cursor: move;"></rect><g class="resize n" transform="translate(0,0)" style="cursor: ns-resize; display: none;"><rect y="-3" width="0" height="6" style="visibility: hidden;"></rect></g><g class="resize e" transform="translate(0,0)" style="cursor: ew-resize; display: none;"><rect x="-3" width="6" height="0" style="visibility: hidden;"></rect></g><g class="resize s" transform="translate(0,0)" style="cursor: ns-resize; display: none;"><rect y="-3" width="0" height="6" style="visibility: hidden;"></rect></g><g class="resize w" transform="translate(0,0)" style="cursor: ew-resize; display: none;"><rect x="-3" width="6" height="0" style="visibility: hidden;"></rect></g><g class="resize nw" transform="translate(0,0)" style="cursor: nwse-resize; display: none;"><rect x="-3" y="-3" width="6" height="6" style="visibility: hidden;"></rect></g><g class="resize ne" transform="translate(0,0)" style="cursor: nesw-resize; display: none;"><rect x="-3" y="-3" width="6" height="6" style="visibility: hidden;"></rect></g><g class="resize se" transform="translate(0,0)" style="cursor: nwse-resize; display: none;"><rect x="-3" y="-3" width="6" height="6" style="visibility: hidden;"></rect></g><g class="resize sw" transform="translate(0,0)" style="cursor: nesw-resize; display: none;"><rect x="-3" y="-3" width="6" height="6" style="visibility: hidden;"></rect></g></g><g transform="translate(340.90,276.74) scale(1.15)"><g><line class="link basepair" x1="38.20" y1="236.31" x2="53.27" y2="235.47"></line><line class="link basepair" x1="37.36" y1="221.00" x2="52.17" y2="220.05"></line><line class="link backbone" x1="38.20" y1="236.31" x2="37.36" y2="221.00"></line><line class="link basepair" x1="36.42" y1="205.32" x2="51.13" y2="204.43"></line><line class="link backbone" x1="37.36" y1="221.00" x2="36.42" y2="205.32"></line><line class="link basepair" x1="35.56" y1="189.45" x2="50.22" y2="188.70"></line><line class="link backbone" x1="36.42" y1="205.32" x2="35.56" y2="189.45"></line><line class="link basepair" x1="34.82" y1="173.52" x2="49.45" y2="172.88"></line><line class="link backbone" x1="35.56" y1="189.45" x2="34.82" y2="173.52"></line><line class="link basepair" x1="34.06" y1="157.63" x2="48.84" y2="157.01"></line><line class="link backbone" x1="34.82" y1="173.52" x2="34.06" y2="157.63"></line><line class="link backbone" x1="34.06" y1="157.63" x2="25.82" y2="144.75"></line><line class="link basepair" x1="32.93" y1="131.17" x2="47.68" y2="130.53"></line><line class="link backbone" x1="25.82" y1="144.75" x2="32.93" y2="131.17"></line><line class="link basepair" x1="32.25" y1="115.33" x2="46.97" y2="114.68"></line><line class="link backbone" x1="32.93" y1="131.17" x2="32.25" y2="115.33"></line><line class="link backbone" x1="32.25" y1="115.33" x2="23.95" y2="102.45"></line><line class="link basepair" x1="31.04" y1="88.81" x2="45.76" y2="88.14"></line><line class="link backbone" x1="23.95" y1="102.45" x2="31.04" y2="88.81"></line><line class="link basepair" x1="30.39" y1="72.81" x2="44.95" y2="72.14"></line><line class="link backbone" x1="31.04" y1="88.81" x2="30.39" y2="72.81"></line><line class="link basepair" x1="29.61" y1="56.86" x2="44.20" y2="56.13"></line><line class="link backbone" x1="30.39" y1="72.81" x2="29.61" y2="56.86"></line><line class="link basepair" x1="28.79" y1="40.87" x2="43.35" y2="40.10"></line><line class="link backbone" x1="29.61" y1="56.86" x2="28.79" y2="40.87"></line><line class="link basepair" x1="27.94" y1="24.84" x2="42.51" y2="24.08"></line><line class="link backbone" x1="28.79" y1="40.87" x2="27.94" y2="24.84"></line><line class="link basepair" x1="27.00" y1="8.97" x2="41.77" y2="8.18"></line><line class="link backbone" x1="27.94" y1="24.84" x2="27.00" y2="8.97"></line><line class="link backbone" x1="27.00" y1="8.97" x2="18.61" y2="-3.78"></line><line class="link basepair" x1="25.60" y1="-17.50" x2="40.29" y2="-18.28"></line><line class="link backbone" x1="18.61" y1="-3.78" x2="25.60" y2="-17.50"></line><line class="link basepair" x1="24.71" y1="-33.41" x2="39.48" y2="-34.19"></line><line class="link backbone" x1="25.60" y1="-17.50" x2="24.71" y2="-33.41"></line><line class="link backbone" x1="24.71" y1="-33.41" x2="11.87" y2="-41.81"></line><line class="link backbone" x1="11.87" y1="-41.81" x2="6.50" y2="-55.76"></line><line class="link backbone" x1="6.50" y1="-55.76" x2="10.33" y2="-70.28"></line><line class="link basepair" x1="22.13" y1="-79.99" x2="36.93" y2="-80.84"></line><line class="link backbone" x1="10.33" y1="-70.28" x2="22.13" y2="-79.99"></line><line class="link basepair" x1="21.33" y1="-95.94" x2="35.85" y2="-96.79"></line><line class="link backbone" x1="22.13" y1="-79.99" x2="21.33" y2="-95.94"></line><line class="link basepair" x1="20.36" y1="-111.96" x2="34.93" y2="-112.80"></line><line class="link backbone" x1="21.33" y1="-95.94" x2="20.36" y2="-111.96"></line><line class="link basepair" x1="19.44" y1="-127.95" x2="34.04" y2="-128.74"></line><line class="link backbone" x1="20.36" y1="-111.96" x2="19.44" y2="-127.95"></line><line class="link basepair" x1="18.43" y1="-143.69" x2="33.44" y2="-144.40"></line><line class="link backbone" x1="19.44" y1="-127.95" x2="18.43" y2="-143.69"></line><line class="link backbone" x1="18.43" y1="-143.69" x2="8.29" y2="-155.45"></line><line class="link backbone" x1="8.29" y1="-155.45" x2="11.02" y2="-170.33"></line><line class="link backbone" x1="11.02" y1="-170.33" x2="24.45" y2="-177.56"></line><line class="link backbone" x1="24.45" y1="-177.56" x2="38.46" y2="-171.54"></line><line class="link backbone" x1="38.46" y1="-171.54" x2="42.50" y2="-156.92"></line><line class="link basepair" x1="33.44" y1="-144.40" x2="18.43" y2="-143.69"></line><line class="link backbone" x1="42.50" y1="-156.92" x2="33.44" y2="-144.40"></line><line class="link basepair" x1="34.04" y1="-128.74" x2="19.44" y2="-127.95"></line><line class="link backbone" x1="33.44" y1="-144.40" x2="34.04" y2="-128.74"></line><line class="link basepair" x1="34.93" y1="-112.80" x2="20.36" y2="-111.96"></line><line class="link backbone" x1="34.04" y1="-128.74" x2="34.93" y2="-112.80"></line><line class="link basepair" x1="35.85" y1="-96.79" x2="21.33" y2="-95.94"></line><line class="link backbone" x1="34.93" y1="-112.80" x2="35.85" y2="-96.79"></line><line class="link basepair" x1="36.93" y1="-80.84" x2="22.13" y2="-79.99"></line><line class="link backbone" x1="35.85" y1="-96.79" x2="36.93" y2="-80.84"></line><line class="link backbone" x1="36.93" y1="-80.84" x2="49.74" y2="-72.45"></line><line class="link backbone" x1="49.74" y1="-72.45" x2="55.11" y2="-58.43"></line><line class="link backbone" x1="55.11" y1="-58.43" x2="51.33" y2="-43.96"></line><line class="link basepair" x1="39.48" y1="-34.19" x2="24.71" y2="-33.41"></line><line class="link backbone" x1="51.33" y1="-43.96" x2="39.48" y2="-34.19"></line><line class="link basepair" x1="40.29" y1="-18.28" x2="25.60" y2="-17.50"></line><line class="link backbone" x1="39.48" y1="-34.19" x2="40.29" y2="-18.28"></line><line class="link backbone" x1="40.29" y1="-18.28" x2="48.71" y2="-5.43"></line><line class="link basepair" x1="41.77" y1="8.18" x2="27.00" y2="8.97"></line><line class="link backbone" x1="48.71" y1="-5.43" x2="41.77" y2="8.18"></line><line class="link basepair" x1="42.51" y1="24.08" x2="27.94" y2="24.84"></line><line class="link backbone" x1="41.77" y1="8.18" x2="42.51" y2="24.08"></line><line class="link basepair" x1="43.35" y1="40.10" x2="28.79" y2="40.87"></line><line class="link backbone" x1="42.51" y1="24.08" x2="43.35" y2="40.10"></line><line class="link basepair" x1="44.20" y1="56.13" x2="29.61" y2="56.86"></line><line class="link backbone" x1="43.35" y1="40.10" x2="44.20" y2="56.13"></line><line class="link basepair" x1="44.95" y1="72.14" x2="30.39" y2="72.81"></line><line class="link backbone" x1="44.20" y1="56.13" x2="44.95" y2="72.14"></line><line class="link basepair" x1="45.76" y1="88.14" x2="31.04" y2="88.81"></line><line class="link backbone" x1="44.95" y1="72.14" x2="45.76" y2="88.14"></line><line class="link backbone" x1="45.76" y1="88.14" x2="54.07" y2="101.06"></line><line class="link basepair" x1="46.97" y1="114.68" x2="32.25" y2="115.33"></line><line class="link backbone" x1="54.07" y1="101.06" x2="46.97" y2="114.68"></line><line class="link basepair" x1="47.68" y1="130.53" x2="32.93" y2="131.17"></line><line class="link backbone" x1="46.97" y1="114.68" x2="47.68" y2="130.53"></line><line class="link backbone" x1="47.68" y1="130.53" x2="55.95" y2="143.45"></line><line class="link basepair" x1="48.84" y1="157.01" x2="34.06" y2="157.63"></line><line class="link backbone" x1="55.95" y1="143.45" x2="48.84" y2="157.01"></line><line class="link basepair" x1="49.45" y1="172.88" x2="34.82" y2="173.52"></line><line class="link backbone" x1="48.84" y1="157.01" x2="49.45" y2="172.88"></line><line class="link basepair" x1="50.22" y1="188.70" x2="35.56" y2="189.45"></line><line class="link backbone" x1="49.45" y1="172.88" x2="50.22" y2="188.70"></line><line class="link basepair" x1="51.13" y1="204.43" x2="36.42" y2="205.32"></line><line class="link backbone" x1="50.22" y1="188.70" x2="51.13" y2="204.43"></line><line class="link basepair" x1="52.17" y1="220.05" x2="37.36" y2="221.00"></line><line class="link backbone" x1="51.13" y1="204.43" x2="52.17" y2="220.05"></line><line class="link basepair" x1="53.27" y1="235.47" x2="38.20" y2="236.31"></line><line class="link backbone" x1="52.17" y1="220.05" x2="53.27" y2="235.47"></line><line class="link backbone" x1="53.27" y1="235.47" x2="59.13" y2="249.80"></line><line class="link label_link" x1="23.95" y1="102.45" x2="8.40" y2="103.88"></line><line class="link label_link" x1="11.87" y1="-41.81" x2="-3.28" y2="-38.26"></line><line class="link label_link" x1="24.45" y1="-177.56" x2="23.93" y2="-192.97"></line><line class="link label_link" x1="51.33" y1="-43.96" x2="66.75" y2="-42.03"></line><line class="link label_link" x1="54.07" y1="101.06" x2="69.67" y2="101.03"></line><line class="link label_link" x1="59.13" y1="249.80" x2="70.79" y2="260.01"></line><line class="link fake transparent" x1="31.04" y1="88.81" x2="38.04" y2="80.46"></line><line class="link fake transparent" x1="31.04" y1="88.81" x2="44.95" y2="72.14"></line><line class="link fake transparent" x1="30.39" y1="72.81" x2="38.04" y2="80.46"></line><line class="link fake transparent" x1="44.95" y1="72.14" x2="38.04" y2="80.46"></line><line class="link fake transparent" x1="45.76" y1="88.14" x2="38.04" y2="80.46"></line><line class="link fake transparent" x1="30.39" y1="72.81" x2="37.30" y2="64.46"></line><line class="link fake transparent" x1="29.61" y1="56.86" x2="37.30" y2="64.46"></line><line class="link fake transparent" x1="44.20" y1="56.13" x2="37.30" y2="64.46"></line><line class="link fake transparent" x1="44.95" y1="72.14" x2="37.30" y2="64.46"></line><line class="link fake transparent" x1="29.61" y1="56.86" x2="36.50" y2="48.49"></line><line class="link fake transparent" x1="28.79" y1="40.87" x2="36.50" y2="48.49"></line><line class="link fake transparent" x1="43.35" y1="40.10" x2="36.50" y2="48.49"></line><line class="link fake transparent" x1="44.20" y1="56.13" x2="36.50" y2="48.49"></line><line class="link fake transparent" x1="28.79" y1="40.87" x2="35.64" y2="32.47"></line><line class="link fake transparent" x1="27.94" y1="24.84" x2="35.64" y2="32.47"></line><line class="link fake transparent" x1="42.51" y1="24.08" x2="35.64" y2="32.47"></line><line class="link fake transparent" x1="43.35" y1="40.10" x2="35.64" y2="32.47"></line><line class="link fake transparent" x1="27.94" y1="24.84" x2="34.81" y2="16.50"></line><line class="link fake transparent" x1="27.00" y1="8.97" x2="34.81" y2="16.50"></line><line class="link fake transparent" x1="41.77" y1="8.18" x2="34.81" y2="16.50"></line><line class="link fake transparent" x1="42.51" y1="24.08" x2="34.81" y2="16.50"></line><line class="link fake transparent" x1="25.60" y1="-17.50" x2="32.53" y2="-25.88"></line><line class="link fake transparent" x1="24.71" y1="-33.41" x2="32.53" y2="-25.88"></line><line class="link fake transparent" x1="39.48" y1="-34.19" x2="32.53" y2="-25.88"></line><line class="link fake transparent" x1="40.29" y1="-18.28" x2="32.53" y2="-25.88"></line><line class="link fake transparent" x1="22.13" y1="-79.99" x2="29.07" y2="-88.34"></line><line class="link fake transparent" x1="21.33" y1="-95.94" x2="29.07" y2="-88.34"></line><line class="link fake transparent" x1="35.85" y1="-96.79" x2="29.07" y2="-88.34"></line><line class="link fake transparent" x1="36.93" y1="-80.84" x2="29.07" y2="-88.34"></line><line class="link fake transparent" x1="21.33" y1="-95.94" x2="28.11" y2="-104.37"></line><line class="link fake transparent" x1="20.36" y1="-111.96" x2="28.11" y2="-104.37"></line><line class="link fake transparent" x1="34.93" y1="-112.80" x2="28.11" y2="-104.37"></line><line class="link fake transparent" x1="35.85" y1="-96.79" x2="28.11" y2="-104.37"></line><line class="link fake transparent" x1="20.36" y1="-111.96" x2="27.16" y2="-120.38"></line><line class="link fake transparent" x1="19.44" y1="-127.95" x2="27.16" y2="-120.38"></line><line class="link fake transparent" x1="34.04" y1="-128.74" x2="27.16" y2="-120.38"></line><line class="link fake transparent" x1="34.93" y1="-112.80" x2="27.16" y2="-120.38"></line><line class="link fake transparent" x1="19.44" y1="-127.95" x2="26.30" y2="-136.30"></line><line class="link fake transparent" x1="18.43" y1="-143.69" x2="26.30" y2="-136.30"></line><line class="link fake transparent" x1="33.44" y1="-144.40" x2="26.30" y2="-136.30"></line><line class="link fake transparent" x1="34.04" y1="-128.74" x2="26.30" y2="-136.30"></line><line class="link fake transparent" x1="38.20" y1="236.31" x2="45.27" y2="228.33"></line><line class="link fake transparent" x1="37.36" y1="221.00" x2="45.27" y2="228.33"></line><line class="link fake transparent" x1="52.17" y1="220.05" x2="45.27" y2="228.33"></line><line class="link fake transparent" x1="53.27" y1="235.47" x2="45.27" y2="228.33"></line><line class="link fake transparent" x1="37.36" y1="221.00" x2="44.24" y2="212.76"></line><line class="link fake transparent" x1="36.42" y1="205.32" x2="44.24" y2="212.76"></line><line class="link fake transparent" x1="51.13" y1="204.43" x2="44.24" y2="212.76"></line><line class="link fake transparent" x1="52.17" y1="220.05" x2="44.24" y2="212.76"></line><line class="link fake transparent" x1="36.42" y1="205.32" x2="43.28" y2="197.01"></line><line class="link fake transparent" x1="35.56" y1="189.45" x2="43.28" y2="197.01"></line><line class="link fake transparent" x1="50.22" y1="188.70" x2="43.28" y2="197.01"></line><line class="link fake transparent" x1="51.13" y1="204.43" x2="43.28" y2="197.01"></line><line class="link fake transparent" x1="35.56" y1="189.45" x2="42.47" y2="181.15"></line><line class="link fake transparent" x1="34.82" y1="173.52" x2="42.47" y2="181.15"></line><line class="link fake transparent" x1="49.45" y1="172.88" x2="42.47" y2="181.15"></line><line class="link fake transparent" x1="50.22" y1="188.70" x2="42.47" y2="181.15"></line><line class="link fake transparent" x1="34.82" y1="173.52" x2="41.78" y2="165.28"></line><line class="link fake transparent" x1="34.06" y1="157.63" x2="41.78" y2="165.28"></line><line class="link fake transparent" x1="48.84" y1="157.01" x2="41.78" y2="165.28"></line><line class="link fake transparent" x1="49.45" y1="172.88" x2="41.78" y2="165.28"></line><line class="link fake transparent" x1="32.93" y1="131.17" x2="39.96" y2="122.93"></line><line class="link fake transparent" x1="32.25" y1="115.33" x2="39.96" y2="122.93"></line><line class="link fake transparent" x1="46.97" y1="114.68" x2="39.96" y2="122.93"></line><line class="link fake transparent" x1="47.68" y1="130.53" x2="39.96" y2="122.93"></line><line class="link fake transparent" x1="38.20" y1="236.31" x2="46.49" y2="246.39"></line><line class="link fake transparent" x1="38.20" y1="236.31" x2="59.13" y2="249.80"></line><line class="link fake transparent" x1="53.27" y1="235.47" x2="46.49" y2="246.39"></line><line class="link fake transparent" x1="53.27" y1="235.47" x2="57.60" y2="260.20"></line><line class="link fake transparent" x1="59.13" y1="249.80" x2="46.49" y2="246.39"></line><line class="link fake transparent" x1="59.13" y1="249.80" x2="44.87" y2="270.47"></line><line class="link fake transparent" x1="18.43" y1="-143.69" x2="25.24" y2="-159.90"></line><line class="link fake transparent" x1="18.43" y1="-143.69" x2="24.45" y2="-177.56"></line><line class="link fake transparent" x1="8.29" y1="-155.45" x2="25.24" y2="-159.90"></line><line class="link fake transparent" x1="8.29" y1="-155.45" x2="38.46" y2="-171.54"></line><line class="link fake transparent" x1="11.02" y1="-170.33" x2="25.24" y2="-159.90"></line><line class="link fake transparent" x1="11.02" y1="-170.33" x2="42.50" y2="-156.92"></line><line class="link fake transparent" x1="24.45" y1="-177.56" x2="25.24" y2="-159.90"></line><line class="link fake transparent" x1="24.45" y1="-177.56" x2="33.44" y2="-144.40"></line><line class="link fake transparent" x1="38.46" y1="-171.54" x2="25.24" y2="-159.90"></line><line class="link fake transparent" x1="38.46" y1="-171.54" x2="18.43" y2="-143.69"></line><line class="link fake transparent" x1="42.50" y1="-156.92" x2="25.24" y2="-159.90"></line><line class="link fake transparent" x1="42.50" y1="-156.92" x2="8.29" y2="-155.45"></line><line class="link fake transparent" x1="33.44" y1="-144.40" x2="25.24" y2="-159.90"></line><line class="link fake transparent" x1="33.44" y1="-144.40" x2="11.02" y2="-170.33"></line><line class="link fake transparent" x1="27.00" y1="8.97" x2="33.66" y2="-4.63"></line><line class="link fake transparent" x1="27.00" y1="8.97" x2="40.29" y2="-18.28"></line><line class="link fake transparent" x1="18.61" y1="-3.78" x2="33.66" y2="-4.63"></line><line class="link fake transparent" x1="18.61" y1="-3.78" x2="48.71" y2="-5.43"></line><line class="link fake transparent" x1="25.60" y1="-17.50" x2="33.66" y2="-4.63"></line><line class="link fake transparent" x1="25.60" y1="-17.50" x2="41.77" y2="8.18"></line><line class="link fake transparent" x1="40.29" y1="-18.28" x2="33.66" y2="-4.63"></line><line class="link fake transparent" x1="40.29" y1="-18.28" x2="27.00" y2="8.97"></line><line class="link fake transparent" x1="48.71" y1="-5.43" x2="33.66" y2="-4.63"></line><line class="link fake transparent" x1="48.71" y1="-5.43" x2="18.61" y2="-3.78"></line><line class="link fake transparent" x1="41.77" y1="8.18" x2="33.66" y2="-4.63"></line><line class="link fake transparent" x1="41.77" y1="8.18" x2="25.60" y2="-17.50"></line><line class="link fake transparent" x1="24.71" y1="-33.41" x2="30.82" y2="-57.09"></line><line class="link fake transparent" x1="24.71" y1="-33.41" x2="36.93" y2="-80.84"></line><line class="link fake transparent" x1="11.87" y1="-41.81" x2="30.82" y2="-57.09"></line><line class="link fake transparent" x1="11.87" y1="-41.81" x2="49.74" y2="-72.45"></line><line class="link fake transparent" x1="6.50" y1="-55.76" x2="30.82" y2="-57.09"></line><line class="link fake transparent" x1="6.50" y1="-55.76" x2="55.11" y2="-58.43"></line><line class="link fake transparent" x1="10.33" y1="-70.28" x2="30.82" y2="-57.09"></line><line class="link fake transparent" x1="10.33" y1="-70.28" x2="51.33" y2="-43.96"></line><line class="link fake transparent" x1="22.13" y1="-79.99" x2="30.82" y2="-57.09"></line><line class="link fake transparent" x1="22.13" y1="-79.99" x2="39.48" y2="-34.19"></line><line class="link fake transparent" x1="36.93" y1="-80.84" x2="30.82" y2="-57.09"></line><line class="link fake transparent" x1="36.93" y1="-80.84" x2="24.71" y2="-33.41"></line><line class="link fake transparent" x1="49.74" y1="-72.45" x2="30.82" y2="-57.09"></line><line class="link fake transparent" x1="49.74" y1="-72.45" x2="11.87" y2="-41.81"></line><line class="link fake transparent" x1="55.11" y1="-58.43" x2="30.82" y2="-57.09"></line><line class="link fake transparent" x1="55.11" y1="-58.43" x2="6.50" y2="-55.76"></line><line class="link fake transparent" x1="51.33" y1="-43.96" x2="30.82" y2="-57.09"></line><line class="link fake transparent" x1="51.33" y1="-43.96" x2="10.33" y2="-70.28"></line><line class="link fake transparent" x1="39.48" y1="-34.19" x2="30.82" y2="-57.09"></line><line class="link fake transparent" x1="39.48" y1="-34.19" x2="22.13" y2="-79.99"></line><line class="link fake transparent" x1="34.06" y1="157.63" x2="40.89" y2="144.10"></line><line class="link fake transparent" x1="34.06" y1="157.63" x2="47.68" y2="130.53"></line><line class="link fake transparent" x1="25.82" y1="144.75" x2="40.89" y2="144.10"></line><line class="link fake transparent" x1="25.82" y1="144.75" x2="55.95" y2="143.45"></line><line class="link fake transparent" x1="32.93" y1="131.17" x2="40.89" y2="144.10"></line><line class="link fake transparent" x1="32.93" y1="131.17" x2="48.84" y2="157.01"></line><line class="link fake transparent" x1="47.68" y1="130.53" x2="40.89" y2="144.10"></line><line class="link fake transparent" x1="47.68" y1="130.53" x2="34.06" y2="157.63"></line><line class="link fake transparent" x1="55.95" y1="143.45" x2="40.89" y2="144.10"></line><line class="link fake transparent" x1="55.95" y1="143.45" x2="25.82" y2="144.75"></line><line class="link fake transparent" x1="48.84" y1="157.01" x2="40.89" y2="144.10"></line><line class="link fake transparent" x1="48.84" y1="157.01" x2="32.93" y2="131.17"></line><line class="link fake transparent" x1="32.25" y1="115.33" x2="39.01" y2="101.73"></line><line class="link fake transparent" x1="32.25" y1="115.33" x2="45.76" y2="88.14"></line><line class="link fake transparent" x1="23.95" y1="102.45" x2="39.01" y2="101.73"></line><line class="link fake transparent" x1="23.95" y1="102.45" x2="54.07" y2="101.06"></line><line class="link fake transparent" x1="31.04" y1="88.81" x2="39.01" y2="101.73"></line><line class="link fake transparent" x1="31.04" y1="88.81" x2="46.97" y2="114.68"></line><line class="link fake transparent" x1="45.76" y1="88.14" x2="39.01" y2="101.73"></line><line class="link fake transparent" x1="45.76" y1="88.14" x2="32.25" y2="115.33"></line><line class="link fake transparent" x1="54.07" y1="101.06" x2="39.01" y2="101.73"></line><line class="link fake transparent" x1="54.07" y1="101.06" x2="23.95" y2="102.45"></line><line class="link fake transparent" x1="46.97" y1="114.68" x2="39.01" y2="101.73"></line><line class="link fake transparent" x1="46.97" y1="114.68" x2="31.04" y2="88.81"></line></g><g><g class="noselect gnode" struct_name="m" transform="translate(38.20,236.31)" r="6.5"><circle class="node" r="6" node_type="nucleotide" style="fill: lightgreen;"></circle><text text-anchor="middle" font-size="8" font-weight="bold" y="2.5" class="node-label">A</text></g><g class="noselect gnode" struct_name="m" transform="translate(37.36,221.00)" r="6.5"><circle class="node" r="6" node_type="nucleotide" style="fill: lightgreen;"></circle><text text-anchor="middle" font-size="8" font-weight="bold" y="2.5" class="node-label">U</text></g><g class="noselect gnode" struct_name="m" transform="translate(36.42,205.32)" r="6.5"><circle class="node" r="6" node_type="nucleotide" style="fill: lightgreen;"></circle><text text-anchor="middle" font-size="8" font-weight="bold" y="2.5" class="node-label">C</text></g><g class="noselect gnode" struct_name="m" transform="translate(35.56,189.45)" r="6.5"><circle class="node" r="6" node_type="nucleotide" style="fill: lightgreen;"></circle><text text-anchor="middle" font-size="8" font-weight="bold" y="2.5" class="node-label">C</text></g><g class="noselect gnode" struct_name="m" transform="translate(34.82,173.52)" r="6.5"><circle class="node" r="6" node_type="nucleotide" style="fill: lightgreen;"></circle><text text-anchor="middle" font-size="8" font-weight="bold" y="2.5" class="node-label">U</text></g><g class="noselect gnode" struct_name="m" transform="translate(34.06,157.63)" r="6.5"><circle class="node" r="6" node_type="nucleotide" style="fill: lightgreen;"></circle><text text-anchor="middle" font-size="8" font-weight="bold" y="2.5" class="node-label">G</text></g><g class="noselect gnode" struct_name="m" transform="translate(25.82,144.75)" r="6.5"><circle class="node" r="6" node_type="nucleotide" style="fill: rgb(219, 219, 141);"></circle><text text-anchor="middle" font-size="8" font-weight="bold" y="2.5" class="node-label">A</text></g><g class="noselect gnode" struct_name="m" transform="translate(32.93,131.17)" r="6.5"><circle class="node" r="6" node_type="nucleotide" style="fill: lightgreen;"></circle><text text-anchor="middle" font-size="8" font-weight="bold" y="2.5" class="node-label">G</text></g><g class="noselect gnode" struct_name="m" transform="translate(32.25,115.33)" r="6.5"><circle class="node" r="6" node_type="nucleotide" style="fill: lightgreen;"></circle><text text-anchor="middle" font-size="8" font-weight="bold" y="2.5" class="node-label">C</text></g><g class="noselect gnode" struct_name="m" transform="translate(23.95,102.45)" r="6.5"><circle class="node" r="6" node_type="nucleotide" style="fill: rgb(219, 219, 141);"></circle><text text-anchor="middle" font-size="8" font-weight="bold" y="2.5" class="node-label">C</text></g><g class="noselect gnode" struct_name="m" transform="translate(31.04,88.81)" r="6.5"><circle class="node" r="6" node_type="nucleotide" style="fill: lightgreen;"></circle><text text-anchor="middle" font-size="8" font-weight="bold" y="2.5" class="node-label">U</text></g><g class="noselect gnode" struct_name="m" transform="translate(30.39,72.81)" r="6.5"><circle class="node" r="6" node_type="nucleotide" style="fill: lightgreen;"></circle><text text-anchor="middle" font-size="8" font-weight="bold" y="2.5" class="node-label">C</text></g><g class="noselect gnode" struct_name="m" transform="translate(29.61,56.86)" r="6.5"><circle class="node" r="6" node_type="nucleotide" style="fill: lightgreen;"></circle><text text-anchor="middle" font-size="8" font-weight="bold" y="2.5" class="node-label">U</text></g><g class="noselect gnode" struct_name="m" transform="translate(28.79,40.87)" r="6.5"><circle class="node" r="6" node_type="nucleotide" style="fill: lightgreen;"></circle><text text-anchor="middle" font-size="8" font-weight="bold" y="2.5" class="node-label">U</text></g><g class="noselect gnode" struct_name="m" transform="translate(27.94,24.84)" r="6.5"><circle class="node" r="6" node_type="nucleotide" style="fill: lightgreen;"></circle><text text-anchor="middle" font-size="8" font-weight="bold" y="2.5" class="node-label">C</text></g><g class="noselect gnode" struct_name="m" transform="translate(27.00,8.97)" r="6.5"><circle class="node" r="6" node_type="nucleotide" style="fill: lightgreen;"></circle><text text-anchor="middle" font-size="8" font-weight="bold" y="2.5" class="node-label">G</text></g><g class="noselect gnode" struct_name="m" transform="translate(18.61,-3.78)" r="6.5"><circle class="node" r="6" node_type="nucleotide" style="fill: rgb(219, 219, 141);"></circle><text text-anchor="middle" font-size="8" font-weight="bold" y="2.5" class="node-label">G</text></g><g class="noselect gnode" struct_name="m" transform="translate(25.60,-17.50)" r="6.5"><circle class="node" r="6" node_type="nucleotide" style="fill: lightgreen;"></circle><text text-anchor="middle" font-size="8" font-weight="bold" y="2.5" class="node-label">C</text></g><g class="noselect gnode" struct_name="m" transform="translate(24.71,-33.41)" r="6.5"><circle class="node" r="6" node_type="nucleotide" style="fill: lightgreen;"></circle><text text-anchor="middle" font-size="8" font-weight="bold" y="2.5" class="node-label">U</text></g><g class="noselect gnode" struct_name="m" transform="translate(11.87,-41.81)" r="6.5"><circle class="node" r="6" node_type="nucleotide" style="fill: rgb(219, 219, 141);"></circle><text text-anchor="middle" font-size="8" font-weight="bold" y="2.5" class="node-label">A</text></g><g class="noselect gnode" struct_name="m" transform="translate(6.50,-55.76)" r="6.5"><circle class="node" r="6" node_type="nucleotide" style="fill: rgb(219, 219, 141);"></circle><text text-anchor="middle" font-size="8" font-weight="bold" y="2.5" class="node-label">C</text></g><g class="noselect gnode" struct_name="m" transform="translate(10.33,-70.28)" r="6.5"><circle class="node" r="6" node_type="nucleotide" style="fill: rgb(219, 219, 141);"></circle><text text-anchor="middle" font-size="8" font-weight="bold" y="2.5" class="node-label">G</text></g><g class="noselect gnode" struct_name="m" transform="translate(22.13,-79.99)" r="6.5"><circle class="node" r="6" node_type="nucleotide" style="fill: lightgreen;"></circle><text text-anchor="middle" font-size="8" font-weight="bold" y="2.5" class="node-label">A</text></g><g class="noselect gnode" struct_name="m" transform="translate(21.33,-95.94)" r="6.5"><circle class="node" r="6" node_type="nucleotide" style="fill: lightgreen;"></circle><text text-anchor="middle" font-size="8" font-weight="bold" y="2.5" class="node-label">C</text></g><g class="noselect gnode" struct_name="m" transform="translate(20.36,-111.96)" r="6.5"><circle class="node" r="6" node_type="nucleotide" style="fill: lightgreen;"></circle><text text-anchor="middle" font-size="8" font-weight="bold" y="2.5" class="node-label">A</text></g><g class="noselect gnode" struct_name="m" transform="translate(19.44,-127.95)" r="6.5"><circle class="node" r="6" node_type="nucleotide" style="fill: lightgreen;"></circle><text text-anchor="middle" font-size="8" font-weight="bold" y="2.5" class="node-label">G</text></g><g class="noselect gnode" struct_name="m" transform="translate(18.43,-143.69)" r="6.5"><circle class="node" r="6" node_type="nucleotide" style="fill: lightgreen;"></circle><text text-anchor="middle" font-size="8" font-weight="bold" y="2.5" class="node-label">C</text></g><g class="noselect gnode" struct_name="m" transform="translate(8.29,-155.45)" r="6.5"><circle class="node" r="6" node_type="nucleotide" style="fill: lightblue;"></circle><text text-anchor="middle" font-size="8" font-weight="bold" y="2.5" class="node-label">U</text></g><g class="noselect gnode" struct_name="m" transform="translate(11.02,-170.33)" r="6.5"><circle class="node" r="6" node_type="nucleotide" style="fill: lightblue;"></circle><text text-anchor="middle" font-size="8" font-weight="bold" y="2.5" class="node-label">U</text></g><g class="noselect gnode" struct_name="m" transform="translate(24.45,-177.56)" r="6.5"><circle class="node" r="6" node_type="nucleotide" style="fill: lightblue;"></circle><text text-anchor="middle" font-size="8" font-weight="bold" y="2.5" class="node-label">U</text></g><g class="noselect gnode" struct_name="m" transform="translate(38.46,-171.54)" r="6.5"><circle class="node" r="6" node_type="nucleotide" style="fill: lightblue;"></circle><text text-anchor="middle" font-size="8" font-weight="bold" y="2.5" class="node-label">G</text></g><g class="noselect gnode" struct_name="m" transform="translate(42.50,-156.92)" r="6.5"><circle class="node" r="6" node_type="nucleotide" style="fill: lightblue;"></circle><text text-anchor="middle" font-size="8" font-weight="bold" y="2.5" class="node-label">U</text></g><g class="noselect gnode" struct_name="m" transform="translate(33.44,-144.40)" r="6.5"><circle class="node" r="6" node_type="nucleotide" style="fill: lightgreen;"></circle><text text-anchor="middle" font-size="8" font-weight="bold" y="2.5" class="node-label">G</text></g><g class="noselect gnode" struct_name="m" transform="translate(34.04,-128.74)" r="6.5"><circle class="node" r="6" node_type="nucleotide" style="fill: lightgreen;"></circle><text text-anchor="middle" font-size="8" font-weight="bold" y="2.5" class="node-label">C</text></g><g class="noselect gnode" struct_name="m" transform="translate(34.93,-112.80)" r="6.5"><circle class="node" r="6" node_type="nucleotide" style="fill: lightgreen;"></circle><text text-anchor="middle" font-size="8" font-weight="bold" y="2.5" class="node-label">U</text></g><g class="noselect gnode" struct_name="m" transform="translate(35.85,-96.79)" r="6.5"><circle class="node" r="6" node_type="nucleotide" style="fill: lightgreen;"></circle><text text-anchor="middle" font-size="8" font-weight="bold" y="2.5" class="node-label">G</text></g><g class="noselect gnode" struct_name="m" transform="translate(36.93,-80.84)" r="6.5"><circle class="node" r="6" node_type="nucleotide" style="fill: lightgreen;"></circle><text text-anchor="middle" font-size="8" font-weight="bold" y="2.5" class="node-label">U</text></g><g class="noselect gnode" struct_name="m" transform="translate(49.74,-72.45)" r="6.5"><circle class="node" r="6" node_type="nucleotide" style="fill: rgb(219, 219, 141);"></circle><text text-anchor="middle" font-size="8" font-weight="bold" y="2.5" class="node-label">A</text></g><g class="noselect gnode" struct_name="m" transform="translate(55.11,-58.43)" r="6.5"><circle class="node" r="6" node_type="nucleotide" style="fill: rgb(219, 219, 141);"></circle><text text-anchor="middle" font-size="8" font-weight="bold" y="2.5" class="node-label">C</text></g><g class="noselect gnode" struct_name="m" transform="translate(51.33,-43.96)" r="6.5"><circle class="node" r="6" node_type="nucleotide" style="fill: rgb(219, 219, 141);"></circle><text text-anchor="middle" font-size="8" font-weight="bold" y="2.5" class="node-label">G</text></g><g class="noselect gnode" struct_name="m" transform="translate(39.48,-34.19)" r="6.5"><circle class="node" r="6" node_type="nucleotide" style="fill: lightgreen;"></circle><text text-anchor="middle" font-size="8" font-weight="bold" y="2.5" class="node-label">A</text></g><g class="noselect gnode" struct_name="m" transform="translate(40.29,-18.28)" r="6.5"><circle class="node" r="6" node_type="nucleotide" style="fill: lightgreen;"></circle><text text-anchor="middle" font-size="8" font-weight="bold" y="2.5" class="node-label">G</text></g><g class="noselect gnode" struct_name="m" transform="translate(48.71,-5.43)" r="6.5"><circle class="node" r="6" node_type="nucleotide" style="fill: rgb(219, 219, 141);"></circle><text text-anchor="middle" font-size="8" font-weight="bold" y="2.5" class="node-label">A</text></g><g class="noselect gnode" struct_name="m" transform="translate(41.77,8.18)" r="6.5"><circle class="node" r="6" node_type="nucleotide" style="fill: lightgreen;"></circle><text text-anchor="middle" font-size="8" font-weight="bold" y="2.5" class="node-label">U</text></g><g class="noselect gnode" struct_name="m" transform="translate(42.51,24.08)" r="6.5"><circle class="node" r="6" node_type="nucleotide" style="fill: lightgreen;"></circle><text text-anchor="middle" font-size="8" font-weight="bold" y="2.5" class="node-label">G</text></g><g class="noselect gnode" struct_name="m" transform="translate(43.35,40.10)" r="6.5"><circle class="node" r="6" node_type="nucleotide" style="fill: lightgreen;"></circle><text text-anchor="middle" font-size="8" font-weight="bold" y="2.5" class="node-label">G</text></g><g class="noselect gnode" struct_name="m" transform="translate(44.20,56.13)" r="6.5"><circle class="node" r="6" node_type="nucleotide" style="fill: lightgreen;"></circle><text text-anchor="middle" font-size="8" font-weight="bold" y="2.5" class="node-label">A</text></g><g class="noselect gnode" struct_name="m" transform="translate(44.95,72.14)" r="6.5"><circle class="node" r="6" node_type="nucleotide" style="fill: lightgreen;"></circle><text text-anchor="middle" font-size="8" font-weight="bold" y="2.5" class="node-label">G</text></g><g class="noselect gnode" struct_name="m" transform="translate(45.76,88.14)" r="6.5"><circle class="node" r="6" node_type="nucleotide" style="fill: lightgreen;"></circle><text text-anchor="middle" font-size="8" font-weight="bold" y="2.5" class="node-label">A</text></g><g class="noselect gnode" struct_name="m" transform="translate(54.07,101.06)" r="6.5"><circle class="node" r="6" node_type="nucleotide" style="fill: rgb(219, 219, 141);"></circle><text text-anchor="middle" font-size="8" font-weight="bold" y="2.5" class="node-label">U</text></g><g class="noselect gnode" struct_name="m" transform="translate(46.97,114.68)" r="6.5"><circle class="node" r="6" node_type="nucleotide" style="fill: lightgreen;"></circle><text text-anchor="middle" font-size="8" font-weight="bold" y="2.5" class="node-label">G</text></g><g class="noselect gnode" struct_name="m" transform="translate(47.68,130.53)" r="6.5"><circle class="node" r="6" node_type="nucleotide" style="fill: lightgreen;"></circle><text text-anchor="middle" font-size="8" font-weight="bold" y="2.5" class="node-label">C</text></g><g class="noselect gnode" struct_name="m" transform="translate(55.95,143.45)" r="6.5"><circle class="node" r="6" node_type="nucleotide" style="fill: rgb(219, 219, 141);"></circle><text text-anchor="middle" font-size="8" font-weight="bold" y="2.5" class="node-label">C</text></g><g class="noselect gnode" struct_name="m" transform="translate(48.84,157.01)" r="6.5"><circle class="node" r="6" node_type="nucleotide" style="fill: lightgreen;"></circle><text text-anchor="middle" font-size="8" font-weight="bold" y="2.5" class="node-label">C</text></g><g class="noselect gnode" struct_name="m" transform="translate(49.45,172.88)" r="6.5"><circle class="node" r="6" node_type="nucleotide" style="fill: lightgreen;"></circle><text text-anchor="middle" font-size="8" font-weight="bold" y="2.5" class="node-label">G</text></g><g class="noselect gnode" struct_name="m" transform="translate(50.22,188.70)" r="6.5"><circle class="node" r="6" node_type="nucleotide" style="fill: lightgreen;"></circle><text text-anchor="middle" font-size="8" font-weight="bold" y="2.5" class="node-label">G</text></g><g class="noselect gnode" struct_name="m" transform="translate(51.13,204.43)" r="6.5"><circle class="node" r="6" node_type="nucleotide" style="fill: lightgreen;"></circle><text text-anchor="middle" font-size="8" font-weight="bold" y="2.5" class="node-label">G</text></g><g class="noselect gnode" struct_name="m" transform="translate(52.17,220.05)" r="6.5"><circle class="node" r="6" node_type="nucleotide" style="fill: lightgreen;"></circle><text text-anchor="middle" font-size="8" font-weight="bold" y="2.5" class="node-label">A</text></g><g class="noselect gnode" struct_name="m" transform="translate(53.27,235.47)" r="6.5"><circle class="node" r="6" node_type="nucleotide" style="fill: lightgreen;"></circle><text text-anchor="middle" font-size="8" font-weight="bold" y="2.5" class="node-label">U</text></g><g class="noselect gnode" struct_name="m" transform="translate(59.13,249.80)" r="6.5"><circle class="node" r="6" node_type="nucleotide" style="fill: lightsalmon;"></circle><text text-anchor="middle" font-size="8" font-weight="bold" y="2.5" class="node-label">U</text></g><g class="noselect gnode" struct_name="m" transform="translate(8.40,103.88)" r="6.5"><circle class="node label" r="6" node_type="label"></circle><text text-anchor="middle" font-size="8" font-weight="bold" y="2.5" class="node-label">10</text></g><g class="noselect gnode" struct_name="m" transform="translate(-3.28,-38.26)" r="6.5"><circle class="node label" r="6" node_type="label"></circle><text text-anchor="middle" font-size="8" font-weight="bold" y="2.5" class="node-label">20</text></g><g class="noselect gnode" struct_name="m" transform="translate(23.93,-192.97)" r="6.5"><circle class="node label" r="6" node_type="label"></circle><text text-anchor="middle" font-size="8" font-weight="bold" y="2.5" class="node-label">30</text></g><g class="noselect gnode" struct_name="m" transform="translate(66.75,-42.03)" r="6.5"><circle class="node label" r="6" node_type="label"></circle><text text-anchor="middle" font-size="8" font-weight="bold" y="2.5" class="node-label">40</text></g><g class="noselect gnode" struct_name="m" transform="translate(69.67,101.03)" r="6.5"><circle class="node label" r="6" node_type="label"></circle><text text-anchor="middle" font-size="8" font-weight="bold" y="2.5" class="node-label">50</text></g><g class="noselect gnode" struct_name="m" transform="translate(70.79,260.01)" r="6.5"><circle class="node label" r="6" node_type="label"></circle><text text-anchor="middle" font-size="8" font-weight="bold" y="2.5" class="node-label">60</text></g><g class="noselect gnode" transform="translate(38.04,80.46)" r="6.5"><circle class="node" r="0" node_type="middle"></circle><text text-anchor="middle" font-size="8" font-weight="bold" y="2.5" class="node-label"></text></g><g class="noselect gnode" transform="translate(37.30,64.46)" r="6.5"><circle class="node" r="0" node_type="middle"></circle><text text-anchor="middle" font-size="8" font-weight="bold" y="2.5" class="node-label"></text></g><g class="noselect gnode" transform="translate(36.50,48.49)" r="6.5"><circle class="node" r="0" node_type="middle"></circle><text text-anchor="middle" font-size="8" font-weight="bold" y="2.5" class="node-label"></text></g><g class="noselect gnode" transform="translate(35.64,32.47)" r="6.5"><circle class="node" r="0" node_type="middle"></circle><text text-anchor="middle" font-size="8" font-weight="bold" y="2.5" class="node-label"></text></g><g class="noselect gnode" transform="translate(34.81,16.50)" r="6.5"><circle class="node" r="0" node_type="middle"></circle><text text-anchor="middle" font-size="8" font-weight="bold" y="2.5" class="node-label"></text></g><g class="noselect gnode" transform="translate(32.53,-25.88)" r="6.5"><circle class="node" r="0" node_type="middle"></circle><text text-anchor="middle" font-size="8" font-weight="bold" y="2.5" class="node-label"></text></g><g class="noselect gnode" transform="translate(29.07,-88.34)" r="6.5"><circle class="node" r="0" node_type="middle"></circle><text text-anchor="middle" font-size="8" font-weight="bold" y="2.5" class="node-label"></text></g><g class="noselect gnode" transform="translate(28.11,-104.37)" r="6.5"><circle class="node" r="0" node_type="middle"></circle><text text-anchor="middle" font-size="8" font-weight="bold" y="2.5" class="node-label"></text></g><g class="noselect gnode" transform="translate(27.16,-120.38)" r="6.5"><circle class="node" r="0" node_type="middle"></circle><text text-anchor="middle" font-size="8" font-weight="bold" y="2.5" class="node-label"></text></g><g class="noselect gnode" transform="translate(26.30,-136.30)" r="6.5"><circle class="node" r="0" node_type="middle"></circle><text text-anchor="middle" font-size="8" font-weight="bold" y="2.5" class="node-label"></text></g><g class="noselect gnode" transform="translate(45.27,228.33)" r="6.5"><circle class="node" r="0" node_type="middle"></circle><text text-anchor="middle" font-size="8" font-weight="bold" y="2.5" class="node-label"></text></g><g class="noselect gnode" transform="translate(44.24,212.76)" r="6.5"><circle class="node" r="0" node_type="middle"></circle><text text-anchor="middle" font-size="8" font-weight="bold" y="2.5" class="node-label"></text></g><g class="noselect gnode" transform="translate(43.28,197.01)" r="6.5"><circle class="node" r="0" node_type="middle"></circle><text text-anchor="middle" font-size="8" font-weight="bold" y="2.5" class="node-label"></text></g><g class="noselect gnode" transform="translate(42.47,181.15)" r="6.5"><circle class="node" r="0" node_type="middle"></circle><text text-anchor="middle" font-size="8" font-weight="bold" y="2.5" class="node-label"></text></g><g class="noselect gnode" transform="translate(41.78,165.28)" r="6.5"><circle class="node" r="0" node_type="middle"></circle><text text-anchor="middle" font-size="8" font-weight="bold" y="2.5" class="node-label"></text></g><g class="noselect gnode" transform="translate(39.96,122.93)" r="6.5"><circle class="node" r="0" node_type="middle"></circle><text text-anchor="middle" font-size="8" font-weight="bold" y="2.5" class="node-label"></text></g><g class="noselect gnode" transform="translate(57.60,260.20)" r="6.5"><circle class="node" r="0" node_type="middle"></circle><text text-anchor="middle" font-size="8" font-weight="bold" y="2.5" class="node-label"></text></g><g class="noselect gnode" transform="translate(44.87,270.47)" r="6.5"><circle class="node" r="0" node_type="middle"></circle><text text-anchor="middle" font-size="8" font-weight="bold" y="2.5" class="node-label"></text></g><g class="noselect gnode" transform="translate(46.49,246.39)" r="6.5"><circle class="node" r="0" node_type="middle"></circle><text text-anchor="middle" font-size="8" font-weight="bold" y="2.5" class="node-label"></text></g><g class="noselect gnode" transform="translate(25.24,-159.90)" r="6.5"><circle class="node" r="0" node_type="middle"></circle><text text-anchor="middle" font-size="8" font-weight="bold" y="2.5" class="node-label"></text></g><g class="noselect gnode" transform="translate(33.66,-4.63)" r="6.5"><circle class="node" r="0" node_type="middle"></circle><text text-anchor="middle" font-size="8" font-weight="bold" y="2.5" class="node-label"></text></g><g class="noselect gnode" transform="translate(30.82,-57.09)" r="6.5"><circle class="node" r="0" node_type="middle"></circle><text text-anchor="middle" font-size="8" font-weight="bold" y="2.5" class="node-label"></text></g><g class="noselect gnode" transform="translate(40.89,144.10)" r="6.5"><circle class="node" r="0" node_type="middle"></circle><text text-anchor="middle" font-size="8" font-weight="bold" y="2.5" class="node-label"></text></g><g class="noselect gnode" transform="translate(39.01,101.73)" r="6.5"><circle class="node" r="0" node_type="middle"></circle><text text-anchor="middle" font-size="8" font-weight="bold" y="2.5" class="node-label"></text></g></g><line class="drag_line" x1="0" y1="0" x2="0" y2="0"></line></g></g></svg>