<svg xmlns="http://www.w3.org/2000/svg" viewBox="0 0 760 640" width="760" height="640"><style>svg {
  display: block;
  min-width: 100%;
  width: 100%;
  min-height: 100%;
}

circle.node {
  stroke: #ccc;
  stroke-width: 1px;
  opacity: 1;
  fill: white;
}

circle.node.label {
    stroke: transparent;
    stroke-width: 0;
    fill: white;
}

circle.outline_node {
    stroke-width: 1px;
    fill: red;
}

circle.protein {
    fill: gray;
    fill-opacity: 0.5;
    stroke-width: 4;
}

circle.hidden_outline {
    stroke-width: 0px;
}


line.link {
  stroke: #999;
  stroke-opacity: 0.8;
  stroke-width: 2;
}

line.basepair {
  stroke: red;
}

line.intermolecule {
  stroke: blue;
}

line.chain_chain {
  stroke-dasharray: 3,3;
}

line.fake {
  stroke: green;
}

.transparent {
    fill: transparent;
    stroke-width: 0;
    stroke-opacity: 0;
    opacity: 0;
    visibility: hidden;
}

.drag_line {
  stroke: #999;
  stroke-width: 2;
  pointer-events: none;
}

.drag_line_hidden {
  stroke: #999;
  stroke-width: 0;
  pointer-events: none;
}

.d3-tip {
    line-height: 1;
    font-weight: bold;
    padding: 6px;
    background: rgba(0, 0, 0, 0.6);
    color: #fff;
    border-radius: 4px;
    pointer-events: none;
          }

text.node-label {
    font-weight: bold;
    font-family: Tahoma, Geneva, sans-serif;
    color: rgb(100,100,100);
    pointer-events: none;
}

text {
    pointer-events: none;
}

g.gnode {

}

circle.outline_node.selected {
    visibility: visible;
}

circle.outline_node {
    visibility: hidden;
}

.brush .extent {
  fill-opacity: .1;
  stroke: #fff;
  shape-rendering: crispEdges;
}

.noselect {
    -webkit-touch-callout: none;
    -webkit-user-select: none;
    -khtml-user-select: none;
    -moz-user-select: none;
    -ms-user-select: none;
    user-select: none;
}

svg {
  display: block;
  min-width: 100%;
  width: 100%;
  min-height: 100%;
}

circle.node {
  stroke: #ccc;
  stroke-width: 1px;
  opacity: 1;
  fill: white;
}

circle.node.label {
    stroke: transparent;
    stroke-width: 0;
    fill: white;
}

circle.outline_node {
    stroke-width: 1px;
    fill: red;
}

circle.protein {
    fill: gray;
    fill-opacity: 0.5;
    stroke-width: 4;
}

circle.hidden_outline {
    stroke-width: 0px;
}


line.link {
  stroke: #999;
  stroke-opacity: 0.8;
  stroke-width: 2;
}

line.basepair {
  stroke: red;
}

line.intermolecule {
  stroke: blue;
}

line.chain_chain {
  stroke-dasharray: 3,3;
}

line.fake {
  stroke: green;
}

.transparent {
    fill: transparent;
    stroke-width: 0;
    stroke-opacity: 0;
    opacity: 0;
    visibility: hidden;
}

.drag_line {
  stroke: #999;
  stroke-width: 2;
  pointer-events: none;
}

.drag_line_hidden {
  stroke: #999;
  stroke-width: 0;
  pointer-events: none;
}

.d3-tip {
    line-height: 1;
    font-weight: bold;
    padding: 6px;
    background: rgba(0, 0, 0, 0.6);
    color: #fff;
    border-radius: 4px;
    pointer-events: none;
          }

text.node-label {
    font-weight: bold;
    font-family: Tahoma, Geneva, sans-serif;
    color: rgb(100,100,100);
    pointer-events: none;
}

text {
    pointer-events: none;
}

g.gnode {

}

circle.outline_node.selected {
    visibility: visible;
}

circle.outline_node {
    visibility: hidden;
}

.brush .extent {
  fill-opacity: .1;
  stroke: #fff;
  shape-rendering: crispEdges;
}

.noselect {
    -webkit-touch-callout: none;
    -webkit-user-select: none;
    -khtml-user-select: none;
    -moz-user-select: none;
    -ms-user-select: none;
    user-select: none;
}
/*# sourceURL=/Users/yumanakamura/ipy_sandbox/sandbox/claude_sandbox/mrna-transformer-worktrees/feat-issue57-switch-derna-knotty/scripts/eval/prerender/forna_vendor/fornac.css*/</style><style></style><g><g class="brush" style="pointer-events: all; -webkit-tap-highlight-color: rgba(0, 0, 0, 0);"><rect class="background" x="0" width="760" y="0" height="640" style="visibility: hidden; cursor: auto;"></rect><rect class="extent" x="0" width="0" y="0" height="0" style="cursor: move;"></rect><g class="resize n" transform="translate(0,0)" style="cursor: ns-resize; display: none;"><rect y="-3" width="0" height="6" style="visibility: hidden;"></rect></g><g class="resize e" transform="translate(0,0)" style="cursor: ew-resize; display: none;"><rect x="-3" width="6" height="0" style="visibility: hidden;"></rect></g><g class="resize s" transform="translate(0,0)" style="cursor: ns-resize; display: none;"><rect y="-3" width="0" height="6" style="visibility: hidden;"></rect></g><g class="resize w" transform="translate(0,0)" style="cursor: ew-resize; display: none;"><rect x="-3" width="6" height="0" style="visibility: hidden;"></rect></g><g class="resize nw" transform="translate(0,0)" style="cursor: nwse-resize; display: none;"><rect x="-3" y="-3" width="6" height="6" style="visibility: hidden;"></rect></g><g class="resize ne" transform="translate(0,0)" style="cursor: nesw-resize; display: none;"><rect x="-3" y="-3" width="6" height="6" style="visibility: hidden;"></rect></g><g class="resize se" transform="translate(0,0)" style="cursor: nwse-resize; display: none;"><rect x="-3" y="-3" width="6" height="6" style="visibility: hidden;"></rect></g><g class="resize sw" transform="translate(0,0)" style="cursor: nesw-resize; display: none;"><rect x="-3" y="-3" width="6" height="6" style="visibility: hidden;"></rect></g></g><g transform="translate(161.90,183.02) scale(1.63)"><g><line class="link basepair" x1="198.24" y1="177.16" x2="210.24" y2="168.39"></line><line class="link basepair" x1="188.84" y1="164.74" x2="200.19" y2="155.63"></line><line class="link backbone" x1="198.24" y1="177.16" x2="188.84" y2="164.74"></line><line class="link basepair" x1="178.72" y1="152.60" x2="189.80" y2="143.11"></line><line class="link backbone" x1="188.84" y1="164.74" x2="178.72" y2="152.60"></line><line class="link basepair" x1="168.27" y1="140.72" x2="179.10" y2="130.96"></line><line class="link backbone" x1="178.72" y1="152.60" x2="168.27" y2="140.72"></line><line class="link basepair" x1="157.48" y1="128.98" x2="168.05" y2="119.03"></line><line class="link backbone" x1="168.27" y1="140.72" x2="157.48" y2="128.98"></line><line class="link basepair" x1="146.40" y1="117.67" x2="156.88" y2="107.28"></line><line class="link backbone" x1="157.48" y1="128.98" x2="146.40" y2="117.67"></line><line class="link backbone" x1="146.40" y1="117.67" x2="131.17" y2="117.92"></line><line class="link backbone" x1="131.17" y1="117.92" x2="120.47" y2="107.46"></line><line class="link basepair" x1="120.24" y1="92.10" x2="130.31" y2="81.36"></line><line class="link backbone" x1="120.47" y1="107.46" x2="120.24" y2="92.10"></line><line class="link basepair" x1="108.58" y1="81.47" x2="117.86" y2="70.41"></line><line class="link backbone" x1="120.24" y1="92.10" x2="108.58" y2="81.47"></line><line class="link basepair" x1="96.25" y1="71.91" x2="104.42" y2="60.06"></line><line class="link backbone" x1="108.58" y1="81.47" x2="96.25" y2="71.91"></line><line class="link basepair" x1="83.30" y1="64.29" x2="89.68" y2="51.02"></line><line class="link backbone" x1="96.25" y1="71.91" x2="83.30" y2="64.29"></line><line class="link backbone" x1="83.30" y1="64.29" x2="68.37" y2="66.07"></line><line class="link backbone" x1="68.37" y1="66.07" x2="59.46" y2="54.47"></line><line class="link basepair" x1="64.99" y1="40.59" x2="79.49" y2="37.83"></line><line class="link backbone" x1="59.46" y1="54.47" x2="64.99" y2="40.59"></line><line class="link basepair" x1="61.03" y1="26.24" x2="74.71" y2="21.42"></line><line class="link backbone" x1="64.99" y1="40.59" x2="61.03" y2="26.24"></line><line class="link basepair" x1="55.12" y1="11.95" x2="68.28" y2="5.85"></line><line class="link backbone" x1="61.03" y1="26.24" x2="55.12" y2="11.95"></line><line class="link basepair" x1="47.98" y1="-2.00" x2="60.61" y2="-9.05"></line><line class="link backbone" x1="55.12" y1="11.95" x2="47.98" y2="-2.00"></line><line class="link basepair" x1="39.83" y1="-15.52" x2="52.06" y2="-23.33"></line><line class="link backbone" x1="47.98" y1="-2.00" x2="39.83" y2="-15.52"></line><line class="link basepair" x1="30.99" y1="-28.61" x2="42.86" y2="-37.00"></line><line class="link backbone" x1="39.83" y1="-15.52" x2="30.99" y2="-28.61"></line><line class="link basepair" x1="21.58" y1="-41.29" x2="33.14" y2="-50.17"></line><line class="link backbone" x1="30.99" y1="-28.61" x2="21.58" y2="-41.29"></line><line class="link basepair" x1="11.74" y1="-53.39" x2="23.27" y2="-62.81"></line><line class="link backbone" x1="21.58" y1="-41.29" x2="11.74" y2="-53.39"></line><line class="link backbone" x1="11.74" y1="-53.39" x2="-2.60" y2="-58.73"></line><line class="link backbone" x1="-2.60" y1="-58.73" x2="-5.01" y2="-73.49"></line><line class="link backbone" x1="-5.01" y1="-73.49" x2="6.52" y2="-83.08"></line><line class="link backbone" x1="6.52" y1="-83.08" x2="20.61" y2="-77.96"></line><line class="link basepair" x1="23.27" y1="-62.81" x2="11.74" y2="-53.39"></line><line class="link backbone" x1="20.61" y1="-77.96" x2="23.27" y2="-62.81"></line><line class="link basepair" x1="33.14" y1="-50.17" x2="21.58" y2="-41.29"></line><line class="link backbone" x1="23.27" y1="-62.81" x2="33.14" y2="-50.17"></line><line class="link basepair" x1="42.86" y1="-37.00" x2="30.99" y2="-28.61"></line><line class="link backbone" x1="33.14" y1="-50.17" x2="42.86" y2="-37.00"></line><line class="link basepair" x1="52.06" y1="-23.33" x2="39.83" y2="-15.52"></line><line class="link backbone" x1="42.86" y1="-37.00" x2="52.06" y2="-23.33"></line><line class="link basepair" x1="60.61" y1="-9.05" x2="47.98" y2="-2.00"></line><line class="link backbone" x1="52.06" y1="-23.33" x2="60.61" y2="-9.05"></line><line class="link basepair" x1="68.28" y1="5.85" x2="55.12" y2="11.95"></line><line class="link backbone" x1="60.61" y1="-9.05" x2="68.28" y2="5.85"></line><line class="link basepair" x1="74.71" y1="21.42" x2="61.03" y2="26.24"></line><line class="link backbone" x1="68.28" y1="5.85" x2="74.71" y2="21.42"></line><line class="link basepair" x1="79.49" y1="37.83" x2="64.99" y2="40.59"></line><line class="link backbone" x1="74.71" y1="21.42" x2="79.49" y2="37.83"></line><line class="link basepair" x1="89.68" y1="51.02" x2="83.30" y2="64.29"></line><line class="link backbone" x1="79.49" y1="37.83" x2="89.68" y2="51.02"></line><line class="link basepair" x1="104.42" y1="60.06" x2="96.25" y2="71.91"></line><line class="link backbone" x1="89.68" y1="51.02" x2="104.42" y2="60.06"></line><line class="link basepair" x1="117.86" y1="70.41" x2="108.58" y2="81.47"></line><line class="link backbone" x1="104.42" y1="60.06" x2="117.86" y2="70.41"></line><line class="link basepair" x1="130.31" y1="81.36" x2="120.24" y2="92.10"></line><line class="link backbone" x1="117.86" y1="70.41" x2="130.31" y2="81.36"></line><line class="link backbone" x1="130.31" y1="81.36" x2="145.82" y2="81.43"></line><line class="link backbone" x1="145.82" y1="81.43" x2="156.49" y2="91.78"></line><line class="link basepair" x1="156.88" y1="107.28" x2="146.40" y2="117.67"></line><line class="link backbone" x1="156.49" y1="91.78" x2="156.88" y2="107.28"></line><line class="link basepair" x1="168.05" y1="119.03" x2="157.48" y2="128.98"></line><line class="link backbone" x1="156.88" y1="107.28" x2="168.05" y2="119.03"></line><line class="link basepair" x1="179.10" y1="130.96" x2="168.27" y2="140.72"></line><line class="link backbone" x1="168.05" y1="119.03" x2="179.10" y2="130.96"></line><line class="link basepair" x1="189.80" y1="143.11" x2="178.72" y2="152.60"></line><line class="link backbone" x1="179.10" y1="130.96" x2="189.80" y2="143.11"></line><line class="link basepair" x1="200.19" y1="155.63" x2="188.84" y2="164.74"></line><line class="link backbone" x1="189.80" y1="143.11" x2="200.19" y2="155.63"></line><line class="link basepair" x1="210.24" y1="168.39" x2="198.24" y2="177.16"></line><line class="link backbone" x1="200.19" y1="155.63" x2="210.24" y2="168.39"></line><line class="link backbone" x1="210.24" y1="168.39" x2="225.18" y2="165.08"></line><line class="link backbone" x1="225.18" y1="165.08" x2="239.98" y2="166.38"></line><line class="link backbone" x1="239.98" y1="166.38" x2="253.61" y2="172.62"></line><line class="link backbone" x1="253.61" y1="172.62" x2="264.22" y2="183.10"></line><line class="link backbone" x1="264.22" y1="183.10" x2="270.58" y2="196.54"></line><line class="link backbone" x1="270.58" y1="196.54" x2="272.36" y2="211.23"></line><line class="link backbone" x1="272.36" y1="211.23" x2="268.81" y2="225.61"></line><line class="link backbone" x1="268.81" y1="225.61" x2="260.26" y2="237.68"></line><line class="link backbone" x1="260.26" y1="237.68" x2="248.35" y2="246.35"></line><line class="link backbone" x1="248.35" y1="246.35" x2="234.37" y2="251.15"></line><line class="link backbone" x1="234.37" y1="251.15" x2="219.57" y2="250.59"></line><line class="link backbone" x1="219.57" y1="250.59" x2="205.88" y2="244.96"></line><line class="link backbone" x1="205.88" y1="244.96" x2="194.85" y2="235.02"></line><line class="link backbone" x1="194.85" y1="235.02" x2="187.74" y2="221.98"></line><line class="link label_link" x1="108.58" y1="81.47" x2="97.03" y2="91.95"></line><line class="link label_link" x1="30.99" y1="-28.61" x2="17.46" y2="-20.91"></line><line class="link label_link" x1="52.06" y1="-23.33" x2="63.81" y2="-33.65"></line><line class="link label_link" x1="156.49" y1="91.78" x2="168.00" y2="81.33"></line><line class="link label_link" x1="264.22" y1="183.10" x2="278.04" y2="176.14"></line><line class="link label_link" x1="187.74" y1="221.98" x2="174.43" y2="229.93"></line><line class="link fake transparent" x1="120.24" y1="92.10" x2="119.43" y2="81.20"></line><line class="link fake transparent" x1="120.24" y1="92.10" x2="117.86" y2="70.41"></line><line class="link fake transparent" x1="108.58" y1="81.47" x2="119.43" y2="81.20"></line><line class="link fake transparent" x1="117.86" y1="70.41" x2="119.43" y2="81.20"></line><line class="link fake transparent" x1="130.31" y1="81.36" x2="119.43" y2="81.20"></line><line class="link fake transparent" x1="108.58" y1="81.47" x2="107.03" y2="70.68"></line><line class="link fake transparent" x1="96.25" y1="71.91" x2="107.03" y2="70.68"></line><line class="link fake transparent" x1="104.42" y1="60.06" x2="107.03" y2="70.68"></line><line class="link fake transparent" x1="117.86" y1="70.41" x2="107.03" y2="70.68"></line><line class="link fake transparent" x1="96.25" y1="71.91" x2="93.71" y2="61.34"></line><line class="link fake transparent" x1="83.30" y1="64.29" x2="93.71" y2="61.34"></line><line class="link fake transparent" x1="89.68" y1="51.02" x2="93.71" y2="61.34"></line><line class="link fake transparent" x1="104.42" y1="60.06" x2="93.71" y2="61.34"></line><line class="link fake transparent" x1="64.99" y1="40.59" x2="70.55" y2="31.38"></line><line class="link fake transparent" x1="61.03" y1="26.24" x2="70.55" y2="31.38"></line><line class="link fake transparent" x1="74.71" y1="21.42" x2="70.55" y2="31.38"></line><line class="link fake transparent" x1="79.49" y1="37.83" x2="70.55" y2="31.38"></line><line class="link fake transparent" x1="61.03" y1="26.24" x2="65.14" y2="16.24"></line><line class="link fake transparent" x1="55.12" y1="11.95" x2="65.14" y2="16.24"></line><line class="link fake transparent" x1="68.28" y1="5.85" x2="65.14" y2="16.24"></line><line class="link fake transparent" x1="74.71" y1="21.42" x2="65.14" y2="16.24"></line><line class="link fake transparent" x1="55.12" y1="11.95" x2="58.28" y2="1.57"></line><line class="link fake transparent" x1="47.98" y1="-2.00" x2="58.28" y2="1.57"></line><line class="link fake transparent" x1="60.61" y1="-9.05" x2="58.28" y2="1.57"></line><line class="link fake transparent" x1="68.28" y1="5.85" x2="58.28" y2="1.57"></line><line class="link fake transparent" x1="47.98" y1="-2.00" x2="50.33" y2="-12.59"></line><line class="link fake transparent" x1="39.83" y1="-15.52" x2="50.33" y2="-12.59"></line><line class="link fake transparent" x1="52.06" y1="-23.33" x2="50.33" y2="-12.59"></line><line class="link fake transparent" x1="60.61" y1="-9.05" x2="50.33" y2="-12.59"></line><line class="link fake transparent" x1="39.83" y1="-15.52" x2="41.60" y2="-26.21"></line><line class="link fake transparent" x1="30.99" y1="-28.61" x2="41.60" y2="-26.21"></line><line class="link fake transparent" x1="42.86" y1="-37.00" x2="41.60" y2="-26.21"></line><line class="link fake transparent" x1="52.06" y1="-23.33" x2="41.60" y2="-26.21"></line><line class="link fake transparent" x1="30.99" y1="-28.61" x2="32.26" y2="-39.39"></line><line class="link fake transparent" x1="21.58" y1="-41.29" x2="32.26" y2="-39.39"></line><line class="link fake transparent" x1="33.14" y1="-50.17" x2="32.26" y2="-39.39"></line><line class="link fake transparent" x1="42.86" y1="-37.00" x2="32.26" y2="-39.39"></line><line class="link fake transparent" x1="21.58" y1="-41.29" x2="22.49" y2="-52.04"></line><line class="link fake transparent" x1="11.74" y1="-53.39" x2="22.49" y2="-52.04"></line><line class="link fake transparent" x1="23.27" y1="-62.81" x2="22.49" y2="-52.04"></line><line class="link fake transparent" x1="33.14" y1="-50.17" x2="22.49" y2="-52.04"></line><line class="link fake transparent" x1="198.24" y1="177.16" x2="199.59" y2="166.51"></line><line class="link fake transparent" x1="188.84" y1="164.74" x2="199.59" y2="166.51"></line><line class="link fake transparent" x1="200.19" y1="155.63" x2="199.59" y2="166.51"></line><line class="link fake transparent" x1="210.24" y1="168.39" x2="199.59" y2="166.51"></line><line class="link fake transparent" x1="188.84" y1="164.74" x2="189.49" y2="153.95"></line><line class="link fake transparent" x1="178.72" y1="152.60" x2="189.49" y2="153.95"></line><line class="link fake transparent" x1="189.80" y1="143.11" x2="189.49" y2="153.95"></line><line class="link fake transparent" x1="200.19" y1="155.63" x2="189.49" y2="153.95"></line><line class="link fake transparent" x1="178.72" y1="152.60" x2="179.06" y2="141.80"></line><line class="link fake transparent" x1="168.27" y1="140.72" x2="179.06" y2="141.80"></line><line class="link fake transparent" x1="179.10" y1="130.96" x2="179.06" y2="141.80"></line><line class="link fake transparent" x1="189.80" y1="143.11" x2="179.06" y2="141.80"></line><line class="link fake transparent" x1="168.27" y1="140.72" x2="168.30" y2="129.87"></line><line class="link fake transparent" x1="157.48" y1="128.98" x2="168.30" y2="129.87"></line><line class="link fake transparent" x1="168.05" y1="119.03" x2="168.30" y2="129.87"></line><line class="link fake transparent" x1="179.10" y1="130.96" x2="168.30" y2="129.87"></line><line class="link fake transparent" x1="157.48" y1="128.98" x2="157.24" y2="118.14"></line><line class="link fake transparent" x1="146.40" y1="117.67" x2="157.24" y2="118.14"></line><line class="link fake transparent" x1="156.88" y1="107.28" x2="157.24" y2="118.14"></line><line class="link fake transparent" x1="168.05" y1="119.03" x2="157.24" y2="118.14"></line><line class="link fake transparent" x1="198.24" y1="177.16" x2="228.78" y2="208.03"></line><line class="link fake transparent" x1="198.24" y1="177.16" x2="260.26" y2="237.68"></line><line class="link fake transparent" x1="210.24" y1="168.39" x2="228.78" y2="208.03"></line><line class="link fake transparent" x1="210.24" y1="168.39" x2="248.35" y2="246.35"></line><line class="link fake transparent" x1="225.18" y1="165.08" x2="228.78" y2="208.03"></line><line class="link fake transparent" x1="225.18" y1="165.08" x2="234.37" y2="251.15"></line><line class="link fake transparent" x1="239.98" y1="166.38" x2="228.78" y2="208.03"></line><line class="link fake transparent" x1="239.98" y1="166.38" x2="219.57" y2="250.59"></line><line class="link fake transparent" x1="253.61" y1="172.62" x2="228.78" y2="208.03"></line><line class="link fake transparent" x1="253.61" y1="172.62" x2="205.88" y2="244.96"></line><line class="link fake transparent" x1="264.22" y1="183.10" x2="228.78" y2="208.03"></line><line class="link fake transparent" x1="264.22" y1="183.10" x2="194.85" y2="235.02"></line><line class="link fake transparent" x1="270.58" y1="196.54" x2="228.78" y2="208.03"></line><line class="link fake transparent" x1="270.58" y1="196.54" x2="187.74" y2="221.98"></line><line class="link fake transparent" x1="272.36" y1="211.23" x2="228.78" y2="208.03"></line><line class="link fake transparent" x1="272.36" y1="211.23" x2="185.67" y2="207.13"></line><line class="link fake transparent" x1="268.81" y1="225.61" x2="228.78" y2="208.03"></line><line class="link fake transparent" x1="268.81" y1="225.61" x2="188.64" y2="192.77"></line><line class="link fake transparent" x1="260.26" y1="237.68" x2="228.78" y2="208.03"></line><line class="link fake transparent" x1="260.26" y1="237.68" x2="198.24" y2="177.16"></line><line class="link fake transparent" x1="248.35" y1="246.35" x2="228.78" y2="208.03"></line><line class="link fake transparent" x1="248.35" y1="246.35" x2="210.24" y2="168.39"></line><line class="link fake transparent" x1="234.37" y1="251.15" x2="228.78" y2="208.03"></line><line class="link fake transparent" x1="234.37" y1="251.15" x2="225.18" y2="165.08"></line><line class="link fake transparent" x1="219.57" y1="250.59" x2="228.78" y2="208.03"></line><line class="link fake transparent" x1="219.57" y1="250.59" x2="239.98" y2="166.38"></line><line class="link fake transparent" x1="205.88" y1="244.96" x2="228.78" y2="208.03"></line><line class="link fake transparent" x1="205.88" y1="244.96" x2="253.61" y2="172.62"></line><line class="link fake transparent" x1="194.85" y1="235.02" x2="228.78" y2="208.03"></line><line class="link fake transparent" x1="194.85" y1="235.02" x2="264.22" y2="183.10"></line><line class="link fake transparent" x1="187.74" y1="221.98" x2="228.78" y2="208.03"></line><line class="link fake transparent" x1="187.74" y1="221.98" x2="270.58" y2="196.54"></line><line class="link fake transparent" x1="11.74" y1="-53.39" x2="9.13" y2="-68.22"></line><line class="link fake transparent" x1="11.74" y1="-53.39" x2="6.52" y2="-83.08"></line><line class="link fake transparent" x1="-2.60" y1="-58.73" x2="9.13" y2="-68.22"></line><line class="link fake transparent" x1="-2.60" y1="-58.73" x2="20.61" y2="-77.96"></line><line class="link fake transparent" x1="-5.01" y1="-73.49" x2="9.13" y2="-68.22"></line><line class="link fake transparent" x1="-5.01" y1="-73.49" x2="23.27" y2="-62.81"></line><line class="link fake transparent" x1="6.52" y1="-83.08" x2="9.13" y2="-68.22"></line><line class="link fake transparent" x1="6.52" y1="-83.08" x2="11.74" y2="-53.39"></line><line class="link fake transparent" x1="20.61" y1="-77.96" x2="9.13" y2="-68.22"></line><line class="link fake transparent" x1="20.61" y1="-77.96" x2="-2.60" y2="-58.73"></line><line class="link fake transparent" x1="23.27" y1="-62.81" x2="9.13" y2="-68.22"></line><line class="link fake transparent" x1="23.27" y1="-62.81" x2="-5.01" y2="-73.49"></line><line class="link fake transparent" x1="83.30" y1="64.29" x2="74.57" y2="52.14"></line><line class="link fake transparent" x1="83.30" y1="64.29" x2="64.99" y2="40.59"></line><line class="link fake transparent" x1="68.37" y1="66.07" x2="74.57" y2="52.14"></line><line class="link fake transparent" x1="68.37" y1="66.07" x2="79.49" y2="37.83"></line><line class="link fake transparent" x1="59.46" y1="54.47" x2="74.57" y2="52.14"></line><line class="link fake transparent" x1="59.46" y1="54.47" x2="89.68" y2="51.02"></line><line class="link fake transparent" x1="64.99" y1="40.59" x2="74.57" y2="52.14"></line><line class="link fake transparent" x1="64.99" y1="40.59" x2="83.30" y2="64.29"></line><line class="link fake transparent" x1="79.49" y1="37.83" x2="74.57" y2="52.14"></line><line class="link fake transparent" x1="79.49" y1="37.83" x2="68.37" y2="66.07"></line><line class="link fake transparent" x1="89.68" y1="51.02" x2="74.57" y2="52.14"></line><line class="link fake transparent" x1="89.68" y1="51.02" x2="59.46" y2="54.47"></line><line class="link fake transparent" x1="146.40" y1="117.67" x2="138.51" y2="99.60"></line><line class="link fake transparent" x1="146.40" y1="117.67" x2="130.31" y2="81.36"></line><line class="link fake transparent" x1="131.17" y1="117.92" x2="138.51" y2="99.60"></line><line class="link fake transparent" x1="131.17" y1="117.92" x2="145.82" y2="81.43"></line><line class="link fake transparent" x1="120.47" y1="107.46" x2="138.51" y2="99.60"></line><line class="link fake transparent" x1="120.47" y1="107.46" x2="156.49" y2="91.78"></line><line class="link fake transparent" x1="120.24" y1="92.10" x2="138.51" y2="99.60"></line><line class="link fake transparent" x1="120.24" y1="92.10" x2="156.88" y2="107.28"></line><line class="link fake transparent" x1="130.31" y1="81.36" x2="138.51" y2="99.60"></line><line class="link fake transparent" x1="130.31" y1="81.36" x2="146.40" y2="117.67"></line><line class="link fake transparent" x1="145.82" y1="81.43" x2="138.51" y2="99.60"></line><line class="link fake transparent" x1="145.82" y1="81.43" x2="131.17" y2="117.92"></line><line class="link fake transparent" x1="156.49" y1="91.78" x2="138.51" y2="99.60"></line><line class="link fake transparent" x1="156.49" y1="91.78" x2="120.47" y2="107.46"></line><line class="link fake transparent" x1="156.88" y1="107.28" x2="138.51" y2="99.60"></line><line class="link fake transparent" x1="156.88" y1="107.28" x2="120.24" y2="92.10"></line></g><g><g class="noselect gnode" struct_name="m" transform="translate(198.24,177.16)" r="6.5"><circle class="node" r="6" node_type="nucleotide" style="fill: lightgreen;"></circle><text text-anchor="middle" font-size="8" font-weight="bold" y="2.5" class="node-label">U</text></g><g class="noselect gnode" struct_name="m" transform="translate(188.84,164.74)" r="6.5"><circle class="node" r="6" node_type="nucleotide" style="fill: lightgreen;"></circle><text text-anchor="middle" font-size="8" font-weight="bold" y="2.5" class="node-label">C</text></g><g class="noselect gnode" struct_name="m" transform="translate(178.72,152.60)" r="6.5"><circle class="node" r="6" node_type="nucleotide" style="fill: lightgreen;"></circle><text text-anchor="middle" font-size="8" font-weight="bold" y="2.5" class="node-label">A</text></g><g class="noselect gnode" struct_name="m" transform="translate(168.27,140.72)" r="6.5"><circle class="node" r="6" node_type="nucleotide" style="fill: lightgreen;"></circle><text text-anchor="middle" font-size="8" font-weight="bold" y="2.5" class="node-label">G</text></g><g class="noselect gnode" struct_name="m" transform="translate(157.48,128.98)" r="6.5"><circle class="node" r="6" node_type="nucleotide" style="fill: lightgreen;"></circle><text text-anchor="middle" font-size="8" font-weight="bold" y="2.5" class="node-label">A</text></g><g class="noselect gnode" struct_name="m" transform="translate(146.40,117.67)" r="6.5"><circle class="node" r="6" node_type="nucleotide" style="fill: lightgreen;"></circle><text text-anchor="middle" font-size="8" font-weight="bold" y="2.5" class="node-label">C</text></g><g class="noselect gnode" struct_name="m" transform="translate(131.17,117.92)" r="6.5"><circle class="node" r="6" node_type="nucleotide" style="fill: rgb(219, 219, 141);"></circle><text text-anchor="middle" font-size="8" font-weight="bold" y="2.5" class="node-label">A</text></g><g class="noselect gnode" struct_name="m" transform="translate(120.47,107.46)" r="6.5"><circle class="node" r="6" node_type="nucleotide" style="fill: rgb(219, 219, 141);"></circle><text text-anchor="middle" font-size="8" font-weight="bold" y="2.5" class="node-label">A</text></g><g class="noselect gnode" struct_name="m" transform="translate(120.24,92.10)" r="6.5"><circle class="node" r="6" node_type="nucleotide" style="fill: lightgreen;"></circle><text text-anchor="middle" font-size="8" font-weight="bold" y="2.5" class="node-label">U</text></g><g class="noselect gnode" struct_name="m" transform="translate(108.58,81.47)" r="6.5"><circle class="node" r="6" node_type="nucleotide" style="fill: lightgreen;"></circle><text text-anchor="middle" font-size="8" font-weight="bold" y="2.5" class="node-label">U</text></g><g class="noselect gnode" struct_name="m" transform="translate(96.25,71.91)" r="6.5"><circle class="node" r="6" node_type="nucleotide" style="fill: lightgreen;"></circle><text text-anchor="middle" font-size="8" font-weight="bold" y="2.5" class="node-label">G</text></g><g class="noselect gnode" struct_name="m" transform="translate(83.30,64.29)" r="6.5"><circle class="node" r="6" node_type="nucleotide" style="fill: lightgreen;"></circle><text text-anchor="middle" font-size="8" font-weight="bold" y="2.5" class="node-label">G</text></g><g class="noselect gnode" struct_name="m" transform="translate(68.37,66.07)" r="6.5"><circle class="node" r="6" node_type="nucleotide" style="fill: rgb(219, 219, 141);"></circle><text text-anchor="middle" font-size="8" font-weight="bold" y="2.5" class="node-label">U</text></g><g class="noselect gnode" struct_name="m" transform="translate(59.46,54.47)" r="6.5"><circle class="node" r="6" node_type="nucleotide" style="fill: rgb(219, 219, 141);"></circle><text text-anchor="middle" font-size="8" font-weight="bold" y="2.5" class="node-label">G</text></g><g class="noselect gnode" struct_name="m" transform="translate(64.99,40.59)" r="6.5"><circle class="node" r="6" node_type="nucleotide" style="fill: lightgreen;"></circle><text text-anchor="middle" font-size="8" font-weight="bold" y="2.5" class="node-label">G</text></g><g class="noselect gnode" struct_name="m" transform="translate(61.03,26.24)" r="6.5"><circle class="node" r="6" node_type="nucleotide" style="fill: lightgreen;"></circle><text text-anchor="middle" font-size="8" font-weight="bold" y="2.5" class="node-label">G</text></g><g class="noselect gnode" struct_name="m" transform="translate(55.12,11.95)" r="6.5"><circle class="node" r="6" node_type="nucleotide" style="fill: lightgreen;"></circle><text text-anchor="middle" font-size="8" font-weight="bold" y="2.5" class="node-label">G</text></g><g class="noselect gnode" struct_name="m" transform="translate(47.98,-2.00)" r="6.5"><circle class="node" r="6" node_type="nucleotide" style="fill: lightgreen;"></circle><text text-anchor="middle" font-size="8" font-weight="bold" y="2.5" class="node-label">C</text></g><g class="noselect gnode" struct_name="m" transform="translate(39.83,-15.52)" r="6.5"><circle class="node" r="6" node_type="nucleotide" style="fill: lightgreen;"></circle><text text-anchor="middle" font-size="8" font-weight="bold" y="2.5" class="node-label">C</text></g><g class="noselect gnode" struct_name="m" transform="translate(30.99,-28.61)" r="6.5"><circle class="node" r="6" node_type="nucleotide" style="fill: lightgreen;"></circle><text text-anchor="middle" font-size="8" font-weight="bold" y="2.5" class="node-label">C</text></g><g class="noselect gnode" struct_name="m" transform="translate(21.58,-41.29)" r="6.5"><circle class="node" r="6" node_type="nucleotide" style="fill: lightgreen;"></circle><text text-anchor="middle" font-size="8" font-weight="bold" y="2.5" class="node-label">C</text></g><g class="noselect gnode" struct_name="m" transform="translate(11.74,-53.39)" r="6.5"><circle class="node" r="6" node_type="nucleotide" style="fill: lightgreen;"></circle><text text-anchor="middle" font-size="8" font-weight="bold" y="2.5" class="node-label">A</text></g><g class="noselect gnode" struct_name="m" transform="translate(-2.60,-58.73)" r="6.5"><circle class="node" r="6" node_type="nucleotide" style="fill: lightblue;"></circle><text text-anchor="middle" font-size="8" font-weight="bold" y="2.5" class="node-label">G</text></g><g class="noselect gnode" struct_name="m" transform="translate(-5.01,-73.49)" r="6.5"><circle class="node" r="6" node_type="nucleotide" style="fill: lightblue;"></circle><text text-anchor="middle" font-size="8" font-weight="bold" y="2.5" class="node-label">U</text></g><g class="noselect gnode" struct_name="m" transform="translate(6.52,-83.08)" r="6.5"><circle class="node" r="6" node_type="nucleotide" style="fill: lightblue;"></circle><text text-anchor="middle" font-size="8" font-weight="bold" y="2.5" class="node-label">G</text></g><g class="noselect gnode" struct_name="m" transform="translate(20.61,-77.96)" r="6.5"><circle class="node" r="6" node_type="nucleotide" style="fill: lightblue;"></circle><text text-anchor="middle" font-size="8" font-weight="bold" y="2.5" class="node-label">A</text></g><g class="noselect gnode" struct_name="m" transform="translate(23.27,-62.81)" r="6.5"><circle class="node" r="6" node_type="nucleotide" style="fill: lightgreen;"></circle><text text-anchor="middle" font-size="8" font-weight="bold" y="2.5" class="node-label">U</text></g><g class="noselect gnode" struct_name="m" transform="translate(33.14,-50.17)" r="6.5"><circle class="node" r="6" node_type="nucleotide" style="fill: lightgreen;"></circle><text text-anchor="middle" font-size="8" font-weight="bold" y="2.5" class="node-label">G</text></g><g class="noselect gnode" struct_name="m" transform="translate(42.86,-37.00)" r="6.5"><circle class="node" r="6" node_type="nucleotide" style="fill: lightgreen;"></circle><text text-anchor="middle" font-size="8" font-weight="bold" y="2.5" class="node-label">G</text></g><g class="noselect gnode" struct_name="m" transform="translate(52.06,-23.33)" r="6.5"><circle class="node" r="6" node_type="nucleotide" style="fill: lightgreen;"></circle><text text-anchor="middle" font-size="8" font-weight="bold" y="2.5" class="node-label">G</text></g><g class="noselect gnode" struct_name="m" transform="translate(60.61,-9.05)" r="6.5"><circle class="node" r="6" node_type="nucleotide" style="fill: lightgreen;"></circle><text text-anchor="middle" font-size="8" font-weight="bold" y="2.5" class="node-label">G</text></g><g class="noselect gnode" struct_name="m" transform="translate(68.28,5.85)" r="6.5"><circle class="node" r="6" node_type="nucleotide" style="fill: lightgreen;"></circle><text text-anchor="middle" font-size="8" font-weight="bold" y="2.5" class="node-label">C</text></g><g class="noselect gnode" struct_name="m" transform="translate(74.71,21.42)" r="6.5"><circle class="node" r="6" node_type="nucleotide" style="fill: lightgreen;"></circle><text text-anchor="middle" font-size="8" font-weight="bold" y="2.5" class="node-label">C</text></g><g class="noselect gnode" struct_name="m" transform="translate(79.49,37.83)" r="6.5"><circle class="node" r="6" node_type="nucleotide" style="fill: lightgreen;"></circle><text text-anchor="middle" font-size="8" font-weight="bold" y="2.5" class="node-label">U</text></g><g class="noselect gnode" struct_name="m" transform="translate(89.68,51.02)" r="6.5"><circle class="node" r="6" node_type="nucleotide" style="fill: lightgreen;"></circle><text text-anchor="middle" font-size="8" font-weight="bold" y="2.5" class="node-label">C</text></g><g class="noselect gnode" struct_name="m" transform="translate(104.42,60.06)" r="6.5"><circle class="node" r="6" node_type="nucleotide" style="fill: lightgreen;"></circle><text text-anchor="middle" font-size="8" font-weight="bold" y="2.5" class="node-label">C</text></g><g class="noselect gnode" struct_name="m" transform="translate(117.86,70.41)" r="6.5"><circle class="node" r="6" node_type="nucleotide" style="fill: lightgreen;"></circle><text text-anchor="middle" font-size="8" font-weight="bold" y="2.5" class="node-label">A</text></g><g class="noselect gnode" struct_name="m" transform="translate(130.31,81.36)" r="6.5"><circle class="node" r="6" node_type="nucleotide" style="fill: lightgreen;"></circle><text text-anchor="middle" font-size="8" font-weight="bold" y="2.5" class="node-label">A</text></g><g class="noselect gnode" struct_name="m" transform="translate(145.82,81.43)" r="6.5"><circle class="node" r="6" node_type="nucleotide" style="fill: rgb(219, 219, 141);"></circle><text text-anchor="middle" font-size="8" font-weight="bold" y="2.5" class="node-label">G</text></g><g class="noselect gnode" struct_name="m" transform="translate(156.49,91.78)" r="6.5"><circle class="node" r="6" node_type="nucleotide" style="fill: rgb(219, 219, 141);"></circle><text text-anchor="middle" font-size="8" font-weight="bold" y="2.5" class="node-label">C</text></g><g class="noselect gnode" struct_name="m" transform="translate(156.88,107.28)" r="6.5"><circle class="node" r="6" node_type="nucleotide" style="fill: lightgreen;"></circle><text text-anchor="middle" font-size="8" font-weight="bold" y="2.5" class="node-label">G</text></g><g class="noselect gnode" struct_name="m" transform="translate(168.05,119.03)" r="6.5"><circle class="node" r="6" node_type="nucleotide" style="fill: lightgreen;"></circle><text text-anchor="middle" font-size="8" font-weight="bold" y="2.5" class="node-label">U</text></g><g class="noselect gnode" struct_name="m" transform="translate(179.10,130.96)" r="6.5"><circle class="node" r="6" node_type="nucleotide" style="fill: lightgreen;"></circle><text text-anchor="middle" font-size="8" font-weight="bold" y="2.5" class="node-label">C</text></g><g class="noselect gnode" struct_name="m" transform="translate(189.80,143.11)" r="6.5"><circle class="node" r="6" node_type="nucleotide" style="fill: lightgreen;"></circle><text text-anchor="middle" font-size="8" font-weight="bold" y="2.5" class="node-label">U</text></g><g class="noselect gnode" struct_name="m" transform="translate(200.19,155.63)" r="6.5"><circle class="node" r="6" node_type="nucleotide" style="fill: lightgreen;"></circle><text text-anchor="middle" font-size="8" font-weight="bold" y="2.5" class="node-label">G</text></g><g class="noselect gnode" struct_name="m" transform="translate(210.24,168.39)" r="6.5"><circle class="node" r="6" node_type="nucleotide" style="fill: lightgreen;"></circle><text text-anchor="middle" font-size="8" font-weight="bold" y="2.5" class="node-label">A</text></g><g class="noselect gnode" struct_name="m" transform="translate(225.18,165.08)" r="6.5"><circle class="node" r="6" node_type="nucleotide" style="fill: lightsalmon;"></circle><text text-anchor="middle" font-size="8" font-weight="bold" y="2.5" class="node-label">A</text></g><g class="noselect gnode" struct_name="m" transform="translate(239.98,166.38)" r="6.5"><circle class="node" r="6" node_type="nucleotide" style="fill: lightsalmon;"></circle><text text-anchor="middle" font-size="8" font-weight="bold" y="2.5" class="node-label">A</text></g><g class="noselect gnode" struct_name="m" transform="translate(253.61,172.62)" r="6.5"><circle class="node" r="6" node_type="nucleotide" style="fill: lightsalmon;"></circle><text text-anchor="middle" font-size="8" font-weight="bold" y="2.5" class="node-label">A</text></g><g class="noselect gnode" struct_name="m" transform="translate(264.22,183.10)" r="6.5"><circle class="node" r="6" node_type="nucleotide" style="fill: lightsalmon;"></circle><text text-anchor="middle" font-size="8" font-weight="bold" y="2.5" class="node-label">U</text></g><g class="noselect gnode" struct_name="m" transform="translate(270.58,196.54)" r="6.5"><circle class="node" r="6" node_type="nucleotide" style="fill: lightsalmon;"></circle><text text-anchor="middle" font-size="8" font-weight="bold" y="2.5" class="node-label">G</text></g><g class="noselect gnode" struct_name="m" transform="translate(272.36,211.23)" r="6.5"><circle class="node" r="6" node_type="nucleotide" style="fill: lightsalmon;"></circle><text text-anchor="middle" font-size="8" font-weight="bold" y="2.5" class="node-label">U</text></g><g class="noselect gnode" struct_name="m" transform="translate(268.81,225.61)" r="6.5"><circle class="node" r="6" node_type="nucleotide" style="fill: lightsalmon;"></circle><text text-anchor="middle" font-size="8" font-weight="bold" y="2.5" class="node-label">G</text></g><g class="noselect gnode" struct_name="m" transform="translate(260.26,237.68)" r="6.5"><circle class="node" r="6" node_type="nucleotide" style="fill: lightsalmon;"></circle><text text-anchor="middle" font-size="8" font-weight="bold" y="2.5" class="node-label">G</text></g><g class="noselect gnode" struct_name="m" transform="translate(248.35,246.35)" r="6.5"><circle class="node" r="6" node_type="nucleotide" style="fill: lightsalmon;"></circle><text text-anchor="middle" font-size="8" font-weight="bold" y="2.5" class="node-label">U</text></g><g class="noselect gnode" struct_name="m" transform="translate(234.37,251.15)" r="6.5"><circle class="node" r="6" node_type="nucleotide" style="fill: lightsalmon;"></circle><text text-anchor="middle" font-size="8" font-weight="bold" y="2.5" class="node-label">A</text></g><g class="noselect gnode" struct_name="m" transform="translate(219.57,250.59)" r="6.5"><circle class="node" r="6" node_type="nucleotide" style="fill: lightsalmon;"></circle><text text-anchor="middle" font-size="8" font-weight="bold" y="2.5" class="node-label">U</text></g><g class="noselect gnode" struct_name="m" transform="translate(205.88,244.96)" r="6.5"><circle class="node" r="6" node_type="nucleotide" style="fill: lightsalmon;"></circle><text text-anchor="middle" font-size="8" font-weight="bold" y="2.5" class="node-label">U</text></g><g class="noselect gnode" struct_name="m" transform="translate(194.85,235.02)" r="6.5"><circle class="node" r="6" node_type="nucleotide" style="fill: lightsalmon;"></circle><text text-anchor="middle" font-size="8" font-weight="bold" y="2.5" class="node-label">G</text></g><g class="noselect gnode" struct_name="m" transform="translate(187.74,221.98)" r="6.5"><circle class="node" r="6" node_type="nucleotide" style="fill: lightsalmon;"></circle><text text-anchor="middle" font-size="8" font-weight="bold" y="2.5" class="node-label">U</text></g><g class="noselect gnode" struct_name="m" transform="translate(97.03,91.95)" r="6.5"><circle class="node label" r="6" node_type="label"></circle><text text-anchor="middle" font-size="8" font-weight="bold" y="2.5" class="node-label">10</text></g><g class="noselect gnode" struct_name="m" transform="translate(17.46,-20.91)" r="6.5"><circle class="node label" r="6" node_type="label"></circle><text text-anchor="middle" font-size="8" font-weight="bold" y="2.5" class="node-label">20</text></g><g class="noselect gnode" struct_name="m" transform="translate(63.81,-33.65)" r="6.5"><circle class="node label" r="6" node_type="label"></circle><text text-anchor="middle" font-size="8" font-weight="bold" y="2.5" class="node-label">30</text></g><g class="noselect gnode" struct_name="m" transform="translate(168.00,81.33)" r="6.5"><circle class="node label" r="6" node_type="label"></circle><text text-anchor="middle" font-size="8" font-weight="bold" y="2.5" class="node-label">40</text></g><g class="noselect gnode" struct_name="m" transform="translate(278.04,176.14)" r="6.5"><circle class="node label" r="6" node_type="label"></circle><text text-anchor="middle" font-size="8" font-weight="bold" y="2.5" class="node-label">50</text></g><g class="noselect gnode" struct_name="m" transform="translate(174.43,229.93)" r="6.5"><circle class="node label" r="6" node_type="label"></circle><text text-anchor="middle" font-size="8" font-weight="bold" y="2.5" class="node-label">60</text></g><g class="noselect gnode" transform="translate(119.43,81.20)" r="6.5"><circle class="node" r="0" node_type="middle"></circle><text text-anchor="middle" font-size="8" font-weight="bold" y="2.5" class="node-label"></text></g><g class="noselect gnode" transform="translate(107.03,70.68)" r="6.5"><circle class="node" r="0" node_type="middle"></circle><text text-anchor="middle" font-size="8" font-weight="bold" y="2.5" class="node-label"></text></g><g class="noselect gnode" transform="translate(93.71,61.34)" r="6.5"><circle class="node" r="0" node_type="middle"></circle><text text-anchor="middle" font-size="8" font-weight="bold" y="2.5" class="node-label"></text></g><g class="noselect gnode" transform="translate(70.55,31.38)" r="6.5"><circle class="node" r="0" node_type="middle"></circle><text text-anchor="middle" font-size="8" font-weight="bold" y="2.5" class="node-label"></text></g><g class="noselect gnode" transform="translate(65.14,16.24)" r="6.5"><circle class="node" r="0" node_type="middle"></circle><text text-anchor="middle" font-size="8" font-weight="bold" y="2.5" class="node-label"></text></g><g class="noselect gnode" transform="translate(58.28,1.57)" r="6.5"><circle class="node" r="0" node_type="middle"></circle><text text-anchor="middle" font-size="8" font-weight="bold" y="2.5" class="node-label"></text></g><g class="noselect gnode" transform="translate(50.33,-12.59)" r="6.5"><circle class="node" r="0" node_type="middle"></circle><text text-anchor="middle" font-size="8" font-weight="bold" y="2.5" class="node-label"></text></g><g class="noselect gnode" transform="translate(41.60,-26.21)" r="6.5"><circle class="node" r="0" node_type="middle"></circle><text text-anchor="middle" font-size="8" font-weight="bold" y="2.5" class="node-label"></text></g><g class="noselect gnode" transform="translate(32.26,-39.39)" r="6.5"><circle class="node" r="0" node_type="middle"></circle><text text-anchor="middle" font-size="8" font-weight="bold" y="2.5" class="node-label"></text></g><g class="noselect gnode" transform="translate(22.49,-52.04)" r="6.5"><circle class="node" r="0" node_type="middle"></circle><text text-anchor="middle" font-size="8" font-weight="bold" y="2.5" class="node-label"></text></g><g class="noselect gnode" transform="translate(199.59,166.51)" r="6.5"><circle class="node" r="0" node_type="middle"></circle><text text-anchor="middle" font-size="8" font-weight="bold" y="2.5" class="node-label"></text></g><g class="noselect gnode" transform="translate(189.49,153.95)" r="6.5"><circle class="node" r="0" node_type="middle"></circle><text text-anchor="middle" font-size="8" font-weight="bold" y="2.5" class="node-label"></text></g><g class="noselect gnode" transform="translate(179.06,141.80)" r="6.5"><circle class="node" r="0" node_type="middle"></circle><text text-anchor="middle" font-size="8" font-weight="bold" y="2.5" class="node-label"></text></g><g class="noselect gnode" transform="translate(168.30,129.87)" r="6.5"><circle class="node" r="0" node_type="middle"></circle><text text-anchor="middle" font-size="8" font-weight="bold" y="2.5" class="node-label"></text></g><g class="noselect gnode" transform="translate(157.24,118.14)" r="6.5"><circle class="node" r="0" node_type="middle"></circle><text text-anchor="middle" font-size="8" font-weight="bold" y="2.5" class="node-label"></text></g><g class="noselect gnode" transform="translate(185.67,207.13)" r="6.5"><circle class="node" r="0" node_type="middle"></circle><text text-anchor="middle" font-size="8" font-weight="bold" y="2.5" class="node-label"></text></g><g class="noselect gnode" transform="translate(188.64,192.77)" r="6.5"><circle class="node" r="0" node_type="middle"></circle><text text-anchor="middle" font-size="8" font-weight="bold" y="2.5" class="node-label"></text></g><g class="noselect gnode" transform="translate(228.78,208.03)" r="6.5"><circle class="node" r="0" node_type="middle"></circle><text text-anchor="middle" font-size="8" font-weight="bold" y="2.5" class="node-label"></text></g><g class="noselect gnode" transform="translate(9.13,-68.22)" r="6.5"><circle class="node" r="0" node_type="middle"></circle><text text-anchor="middle" font-size="8" font-weight="bold" y="2.5" class="node-label"></text></g><g class="noselect gnode" transform="translate(74.57,52.14)" r="6.5"><circle class="node" r="0" node_type="middle"></circle><text text-anchor="middle" font-size="8" font-weight="bold" y="2.5" class="node-label"></text></g><g class="noselect gnode" transform="translate(138.51,99.60)" r="6.5"><circle class="node" r="0" node_type="middle"></circle><text text-anchor="middle" font-size="8" font-weight="bold" y="2.5" class="node-label"></text></g></g><line class="drag_line" x1="0" y1="0" x2="0" y2="0"></line></g></g></svg>