<svg xmlns="http://www.w3.org/2000/svg" viewBox="0 0 760 640" width="760" height="640"><style>svg {
  display: block;
  min-width: 100%;
  width: 100%;
  min-height: 100%;
}

circle.node {
  stroke: #ccc;
  stroke-width: 1px;
  opacity: 1;
  fill: white;
}

circle.node.label {
    stroke: transparent;
    stroke-width: 0;
    fill: white;
}

circle.outline_node {
    stroke-width: 1px;
    fill: red;
}

circle.protein {
    fill: gray;
    fill-opacity: 0.5;
    stroke-width: 4;
}

circle.hidden_outline {
    stroke-width: 0px;
}


line.link {
  stroke: #999;
  stroke-opacity: 0.8;
  stroke-width: 2;
}

line.basepair {
  stroke: red;
}

line.intermolecule {
  stroke: blue;
}

line.chain_chain {
  stroke-dasharray: 3,3;
}

line.fake {
  stroke: green;
}

.transparent {
    fill: transparent;
    stroke-width: 0;
    stroke-opacity: 0;
    opacity: 0;
    visibility: hidden;
}

.drag_line {
  stroke: #999;
  stroke-width: 2;
  pointer-events: none;
}

.drag_line_hidden {
  stroke: #999;
  stroke-width: 0;
  pointer-events: none;
}

.d3-tip {
    line-height: 1;
    font-weight: bold;
    padding: 6px;
    background: rgba(0, 0, 0, 0.6);
    color: #fff;
    border-radius: 4px;
    pointer-events: none;
          }

text.node-label {
    font-weight: bold;
    font-family: Tahoma, Geneva, sans-serif;
    color: rgb(100,100,100);
    pointer-events: none;
}

text {
    pointer-events: none;
}

g.gnode {

}

circle.outline_node.selected {
    visibility: visible;
}

circle.outline_node {
    visibility: hidden;
}

.brush .extent {
  fill-opacity: .1;
  stroke: #fff;
  shape-rendering: crispEdges;
}

.noselect {
    -webkit-touch-callout: none;
    -webkit-user-select: none;
    -khtml-user-select: none;
    -moz-user-select: none;
    -ms-user-select: none;
    user-select: none;
}

svg {
  display: block;
  min-width: 100%;
  width: 100%;
  min-height: 100%;
}

circle.node {
  stroke: #ccc;
  stroke-width: 1px;
  opacity: 1;
  fill: white;
}

circle.node.label {
    stroke: transparent;
    stroke-width: 0;
    fill: white;
}

circle.outline_node {
    stroke-width: 1px;
    fill: red;
}

circle.protein {
    fill: gray;
    fill-opacity: 0.5;
    stroke-width: 4;
}

circle.hidden_outline {
    stroke-width: 0px;
}


line.link {
  stroke: #999;
  stroke-opacity: 0.8;
  stroke-width: 2;
}

line.basepair {
  stroke: red;
}

line.intermolecule {
  stroke: blue;
}

line.chain_chain {
  stroke-dasharray: 3,3;
}

line.fake {
  stroke: green;
}

.transparent {
    fill: transparent;
    stroke-width: 0;
    stroke-opacity: 0;
    opacity: 0;
    visibility: hidden;
}

.drag_line {
  stroke: #999;
  stroke-width: 2;
  pointer-events: none;
}

.drag_line_hidden {
  stroke: #999;
  stroke-width: 0;
  pointer-events: none;
}

.d3-tip {
    line-height: 1;
    font-weight: bold;
    padding: 6px;
    background: rgba(0, 0, 0, 0.6);
    color: #fff;
    border-radius: 4px;
    pointer-events: none;
          }

text.node-label {
    font-weight: bold;
    font-family: Tahoma, Geneva, sans-serif;
    color: rgb(100,100,100);
    pointer-events: none;
}

text {
    pointer-events: none;
}

g.gnode {

}

circle.outline_node.selected {
    visibility: visible;
}

circle.outline_node {
    visibility: hidden;
}

.brush .extent {
  fill-opacity: .1;
  stroke: #fff;
  shape-rendering: crispEdges;
}

.noselect {
    -webkit-touch-callout: none;
    -webkit-user-select: none;
    -khtml-user-select: none;
    -moz-user-select: none;
    -ms-user-select: none;
    user-select: none;
}
/*# sourceURL=/Users/yumanakamura/ipy_sandbox/sandbox/claude_sandbox/mrna-transformer/scripts/eval/prerender/forna_vendor/fornac.css*/</style><style></style><g><g class="brush" style="pointer-events: all; -webkit-tap-highlight-color: rgba(0, 0, 0, 0);"><rect class="background" x="0" width="760" y="0" height="640" style="visibility: hidden; cursor: auto;"></rect><rect class="extent" x="0" width="0" y="0" height="0" style="cursor: move;"></rect><g class="resize n" transform="translate(0,0)" style="cursor: ns-resize; display: none;"><rect y="-3" width="0" height="6" style="visibility: hidden;"></rect></g><g class="resize e" transform="translate(0,0)" style="cursor: ew-resize; display: none;"><rect x="-3" width="6" height="0" style="visibility: hidden;"></rect></g><g class="resize s" transform="translate(0,0)" style="cursor: ns-resize; display: none;"><rect y="-3" width="0" height="6" style="visibility: hidden;"></rect></g><g class="resize w" transform="translate(0,0)" style="cursor: ew-resize; display: none;"><rect x="-3" width="6" height="0" style="visibility: hidden;"></rect></g><g class="resize nw" transform="translate(0,0)" style="cursor: nwse-resize; display: none;"><rect x="-3" y="-3" width="6" height="6" style="visibility: hidden;"></rect></g><g class="resize ne" transform="translate(0,0)" style="cursor: nesw-resize; display: none;"><rect x="-3" y="-3" width="6" height="6" style="visibility: hidden;"></rect></g><g class="resize se" transform="translate(0,0)" style="cursor: nwse-resize; display: none;"><rect x="-3" y="-3" width="6" height="6" style="visibility: hidden;"></rect></g><g class="resize sw" transform="translate(0,0)" style="cursor: nesw-resize; display: none;"><rect x="-3" y="-3" width="6" height="6" style="visibility: hidden;"></rect></g></g><g transform="translate(211.53,60.89) scale(1.51)"><g><line class="link basepair" x1="180.43" y1="294.37" x2="194.12" y2="288.58"></line><line class="link basepair" x1="174.12" y1="280.19" x2="187.32" y2="273.91"></line><line class="link backbone" x1="180.43" y1="294.37" x2="174.12" y2="280.19"></line><line class="link basepair" x1="167.12" y1="266.10" x2="180.05" y2="259.36"></line><line class="link backbone" x1="174.12" y1="280.19" x2="167.12" y2="266.10"></line><line class="link basepair" x1="159.57" y1="252.31" x2="172.25" y2="245.03"></line><line class="link backbone" x1="167.12" y1="266.10" x2="159.57" y2="252.31"></line><line class="link basepair" x1="151.47" y1="238.97" x2="163.85" y2="231.10"></line><line class="link backbone" x1="159.57" y1="252.31" x2="151.47" y2="238.97"></line><line class="link basepair" x1="142.81" y1="226.00" x2="154.89" y2="217.65"></line><line class="link backbone" x1="151.47" y1="238.97" x2="142.81" y2="226.00"></line><line class="link basepair" x1="133.69" y1="213.14" x2="145.59" y2="204.63"></line><line class="link backbone" x1="142.81" y1="226.00" x2="133.69" y2="213.14"></line><line class="link basepair" x1="124.33" y1="200.04" x2="136.25" y2="191.70"></line><line class="link backbone" x1="133.69" y1="213.14" x2="124.33" y2="200.04"></line><line class="link basepair" x1="115.12" y1="186.35" x2="127.35" y2="178.60"></line><line class="link backbone" x1="124.33" y1="200.04" x2="115.12" y2="186.35"></line><line class="link basepair" x1="106.62" y1="171.85" x2="119.44" y2="165.13"></line><line class="link backbone" x1="115.12" y1="186.35" x2="106.62" y2="171.85"></line><line class="link basepair" x1="99.52" y1="156.27" x2="113.00" y2="151.16"></line><line class="link backbone" x1="106.62" y1="171.85" x2="99.52" y2="156.27"></line><line class="link basepair" x1="94.53" y1="139.65" x2="108.68" y2="136.66"></line><line class="link backbone" x1="99.52" y1="156.27" x2="94.53" y2="139.65"></line><line class="link basepair" x1="92.46" y1="122.23" x2="106.84" y2="121.89"></line><line class="link backbone" x1="94.53" y1="139.65" x2="92.46" y2="122.23"></line><line class="link basepair" x1="93.74" y1="104.38" x2="108.14" y2="107.63"></line><line class="link backbone" x1="92.46" y1="122.23" x2="93.74" y2="104.38"></line><line class="link basepair" x1="84.80" y1="90.03" x2="88.15" y2="75.66"></line><line class="link backbone" x1="93.74" y1="104.38" x2="84.80" y2="90.03"></line><line class="link basepair" x1="68.10" y1="83.30" x2="74.55" y2="70.56"></line><line class="link backbone" x1="84.80" y1="90.03" x2="68.10" y2="83.30"></line><line class="link basepair" x1="53.17" y1="74.10" x2="61.63" y2="62.44"></line><line class="link backbone" x1="68.10" y1="83.30" x2="53.17" y2="74.10"></line><line class="link basepair" x1="39.93" y1="63.08" x2="49.82" y2="52.58"></line><line class="link backbone" x1="53.17" y1="74.10" x2="39.93" y2="63.08"></line><line class="link basepair" x1="28.21" y1="50.93" x2="39.10" y2="41.33"></line><line class="link backbone" x1="39.93" y1="63.08" x2="28.21" y2="50.93"></line><line class="link basepair" x1="17.73" y1="38.14" x2="29.28" y2="29.22"></line><line class="link backbone" x1="28.21" y1="50.93" x2="17.73" y2="38.14"></line><line class="link basepair" x1="8.06" y1="25.31" x2="20.10" y2="16.60"></line><line class="link backbone" x1="17.73" y1="38.14" x2="8.06" y2="25.31"></line><line class="link backbone" x1="8.06" y1="25.31" x2="-5.94" y2="18.85"></line><line class="link backbone" x1="-5.94" y1="18.85" x2="-7.31" y2="3.95"></line><line class="link backbone" x1="-7.31" y1="3.95" x2="4.87" y2="-4.76"></line><line class="link backbone" x1="4.87" y1="-4.76" x2="18.55" y2="1.30"></line><line class="link basepair" x1="20.10" y1="16.60" x2="8.06" y2="25.31"></line><line class="link backbone" x1="18.55" y1="1.30" x2="20.10" y2="16.60"></line><line class="link basepair" x1="29.28" y1="29.22" x2="17.73" y2="38.14"></line><line class="link backbone" x1="20.10" y1="16.60" x2="29.28" y2="29.22"></line><line class="link basepair" x1="39.10" y1="41.33" x2="28.21" y2="50.93"></line><line class="link backbone" x1="29.28" y1="29.22" x2="39.10" y2="41.33"></line><line class="link basepair" x1="49.82" y1="52.58" x2="39.93" y2="63.08"></line><line class="link backbone" x1="39.10" y1="41.33" x2="49.82" y2="52.58"></line><line class="link basepair" x1="61.63" y1="62.44" x2="53.17" y2="74.10"></line><line class="link backbone" x1="49.82" y1="52.58" x2="61.63" y2="62.44"></line><line class="link basepair" x1="74.55" y1="70.56" x2="68.10" y2="83.30"></line><line class="link backbone" x1="61.63" y1="62.44" x2="74.55" y2="70.56"></line><line class="link basepair" x1="88.15" y1="75.66" x2="84.80" y2="90.03"></line><line class="link backbone" x1="74.55" y1="70.56" x2="88.15" y2="75.66"></line><line class="link backbone" x1="88.15" y1="75.66" x2="99.31" y2="65.17"></line><line class="link backbone" x1="99.31" y1="65.17" x2="114.34" y2="64.88"></line><line class="link backbone" x1="114.34" y1="64.88" x2="125.97" y2="74.32"></line><line class="link backbone" x1="125.97" y1="74.32" x2="129.32" y2="88.90"></line><line class="link backbone" x1="129.32" y1="88.90" x2="122.46" y2="102.29"></line><line class="link basepair" x1="108.14" y1="107.63" x2="93.74" y2="104.38"></line><line class="link backbone" x1="122.46" y1="102.29" x2="108.14" y2="107.63"></line><line class="link basepair" x1="106.84" y1="121.89" x2="92.46" y2="122.23"></line><line class="link backbone" x1="108.14" y1="107.63" x2="106.84" y2="121.89"></line><line class="link basepair" x1="108.68" y1="136.66" x2="94.53" y2="139.65"></line><line class="link backbone" x1="106.84" y1="121.89" x2="108.68" y2="136.66"></line><line class="link basepair" x1="113.00" y1="151.16" x2="99.52" y2="156.27"></line><line class="link backbone" x1="108.68" y1="136.66" x2="113.00" y2="151.16"></line><line class="link basepair" x1="119.44" y1="165.13" x2="106.62" y2="171.85"></line><line class="link backbone" x1="113.00" y1="151.16" x2="119.44" y2="165.13"></line><line class="link basepair" x1="127.35" y1="178.60" x2="115.12" y2="186.35"></line><line class="link backbone" x1="119.44" y1="165.13" x2="127.35" y2="178.60"></line><line class="link basepair" x1="136.25" y1="191.70" x2="124.33" y2="200.04"></line><line class="link backbone" x1="127.35" y1="178.60" x2="136.25" y2="191.70"></line><line class="link basepair" x1="145.59" y1="204.63" x2="133.69" y2="213.14"></line><line class="link backbone" x1="136.25" y1="191.70" x2="145.59" y2="204.63"></line><line class="link basepair" x1="154.89" y1="217.65" x2="142.81" y2="226.00"></line><line class="link backbone" x1="145.59" y1="204.63" x2="154.89" y2="217.65"></line><line class="link basepair" x1="163.85" y1="231.10" x2="151.47" y2="238.97"></line><line class="link backbone" x1="154.89" y1="217.65" x2="163.85" y2="231.10"></line><line class="link basepair" x1="172.25" y1="245.03" x2="159.57" y2="252.31"></line><line class="link backbone" x1="163.85" y1="231.10" x2="172.25" y2="245.03"></line><line class="link basepair" x1="180.05" y1="259.36" x2="167.12" y2="266.10"></line><line class="link backbone" x1="172.25" y1="245.03" x2="180.05" y2="259.36"></line><line class="link basepair" x1="187.32" y1="273.91" x2="174.12" y2="280.19"></line><line class="link backbone" x1="180.05" y1="259.36" x2="187.32" y2="273.91"></line><line class="link basepair" x1="194.12" y1="288.58" x2="180.43" y2="294.37"></line><line class="link backbone" x1="187.32" y1="273.91" x2="194.12" y2="288.58"></line><line class="link backbone" x1="194.12" y1="288.58" x2="209.34" y2="290.40"></line><line class="link backbone" x1="209.34" y1="290.40" x2="221.84" y2="298.49"></line><line class="link backbone" x1="221.84" y1="298.49" x2="229.46" y2="311.48"></line><line class="link backbone" x1="229.46" y1="311.48" x2="229.98" y2="326.42"></line><line class="link backbone" x1="229.98" y1="326.42" x2="223.61" y2="339.93"></line><line class="link backbone" x1="223.61" y1="339.93" x2="211.75" y2="348.92"></line><line class="link backbone" x1="211.75" y1="348.92" x2="197.13" y2="351.68"></line><line class="link backbone" x1="197.13" y1="351.68" x2="182.84" y2="347.49"></line><line class="link backbone" x1="182.84" y1="347.49" x2="172.15" y2="337.14"></line><line class="link label_link" x1="106.62" y1="171.85" x2="92.79" y2="179.16"></line><line class="link label_link" x1="17.73" y1="38.14" x2="3.90" y2="45.28"></line><line class="link label_link" x1="61.63" y1="62.44" x2="69.28" y2="48.88"></line><line class="link label_link" x1="108.68" y1="136.66" x2="123.63" y2="132.50"></line><line class="link label_link" x1="187.32" y1="273.91" x2="201.45" y2="267.45"></line><line class="link label_link" x1="172.15" y1="337.14" x2="159.07" y2="345.41"></line><line class="link fake transparent" x1="180.43" y1="294.37" x2="184.18" y2="284.34"></line><line class="link fake transparent" x1="180.43" y1="294.37" x2="187.32" y2="273.91"></line><line class="link fake transparent" x1="174.12" y1="280.19" x2="184.18" y2="284.34"></line><line class="link fake transparent" x1="187.32" y1="273.91" x2="184.18" y2="284.34"></line><line class="link fake transparent" x1="194.12" y1="288.58" x2="184.18" y2="284.34"></line><line class="link fake transparent" x1="174.12" y1="280.19" x2="177.27" y2="269.86"></line><line class="link fake transparent" x1="167.12" y1="266.10" x2="177.27" y2="269.86"></line><line class="link fake transparent" x1="180.05" y1="259.36" x2="177.27" y2="269.86"></line><line class="link fake transparent" x1="187.32" y1="273.91" x2="177.27" y2="269.86"></line><line class="link fake transparent" x1="167.12" y1="266.10" x2="169.89" y2="255.61"></line><line class="link fake transparent" x1="159.57" y1="252.31" x2="169.89" y2="255.61"></line><line class="link fake transparent" x1="172.25" y1="245.03" x2="169.89" y2="255.61"></line><line class="link fake transparent" x1="180.05" y1="259.36" x2="169.89" y2="255.61"></line><line class="link fake transparent" x1="159.57" y1="252.31" x2="161.94" y2="241.72"></line><line class="link fake transparent" x1="151.47" y1="238.97" x2="161.94" y2="241.72"></line><line class="link fake transparent" x1="163.85" y1="231.10" x2="161.94" y2="241.72"></line><line class="link fake transparent" x1="172.25" y1="245.03" x2="161.94" y2="241.72"></line><line class="link fake transparent" x1="151.47" y1="238.97" x2="153.41" y2="228.35"></line><line class="link fake transparent" x1="142.81" y1="226.00" x2="153.41" y2="228.35"></line><line class="link fake transparent" x1="154.89" y1="217.65" x2="153.41" y2="228.35"></line><line class="link fake transparent" x1="163.85" y1="231.10" x2="153.41" y2="228.35"></line><line class="link fake transparent" x1="142.81" y1="226.00" x2="144.31" y2="215.32"></line><line class="link fake transparent" x1="133.69" y1="213.14" x2="144.31" y2="215.32"></line><line class="link fake transparent" x1="145.59" y1="204.63" x2="144.31" y2="215.32"></line><line class="link fake transparent" x1="154.89" y1="217.65" x2="144.31" y2="215.32"></line><line class="link fake transparent" x1="133.69" y1="213.14" x2="134.95" y2="202.44"></line><line class="link fake transparent" x1="124.33" y1="200.04" x2="134.95" y2="202.44"></line><line class="link fake transparent" x1="136.25" y1="191.70" x2="134.95" y2="202.44"></line><line class="link fake transparent" x1="145.59" y1="204.63" x2="134.95" y2="202.44"></line><line class="link fake transparent" x1="124.33" y1="200.04" x2="125.62" y2="189.32"></line><line class="link fake transparent" x1="115.12" y1="186.35" x2="125.62" y2="189.32"></line><line class="link fake transparent" x1="127.35" y1="178.60" x2="125.62" y2="189.32"></line><line class="link fake transparent" x1="136.25" y1="191.70" x2="125.62" y2="189.32"></line><line class="link fake transparent" x1="115.12" y1="186.35" x2="116.84" y2="175.67"></line><line class="link fake transparent" x1="106.62" y1="171.85" x2="116.84" y2="175.67"></line><line class="link fake transparent" x1="119.44" y1="165.13" x2="116.84" y2="175.67"></line><line class="link fake transparent" x1="127.35" y1="178.60" x2="116.84" y2="175.67"></line><line class="link fake transparent" x1="106.62" y1="171.85" x2="109.18" y2="161.31"></line><line class="link fake transparent" x1="99.52" y1="156.27" x2="109.18" y2="161.31"></line><line class="link fake transparent" x1="113.00" y1="151.16" x2="109.18" y2="161.31"></line><line class="link fake transparent" x1="119.44" y1="165.13" x2="109.18" y2="161.31"></line><line class="link fake transparent" x1="99.52" y1="156.27" x2="103.28" y2="146.10"></line><line class="link fake transparent" x1="94.53" y1="139.65" x2="103.28" y2="146.10"></line><line class="link fake transparent" x1="108.68" y1="136.66" x2="103.28" y2="146.10"></line><line class="link fake transparent" x1="113.00" y1="151.16" x2="103.28" y2="146.10"></line><line class="link fake transparent" x1="94.53" y1="139.65" x2="99.90" y2="130.23"></line><line class="link fake transparent" x1="92.46" y1="122.23" x2="99.90" y2="130.23"></line><line class="link fake transparent" x1="106.84" y1="121.89" x2="99.90" y2="130.23"></line><line class="link fake transparent" x1="108.68" y1="136.66" x2="99.90" y2="130.23"></line><line class="link fake transparent" x1="92.46" y1="122.23" x2="99.46" y2="113.95"></line><line class="link fake transparent" x1="93.74" y1="104.38" x2="99.46" y2="113.95"></line><line class="link fake transparent" x1="108.14" y1="107.63" x2="99.46" y2="113.95"></line><line class="link fake transparent" x1="106.84" y1="121.89" x2="99.46" y2="113.95"></line><line class="link fake transparent" x1="84.80" y1="90.03" x2="78.64" y2="80.68"></line><line class="link fake transparent" x1="68.10" y1="83.30" x2="78.64" y2="80.68"></line><line class="link fake transparent" x1="74.55" y1="70.56" x2="78.64" y2="80.68"></line><line class="link fake transparent" x1="88.15" y1="75.66" x2="78.64" y2="80.68"></line><line class="link fake transparent" x1="68.10" y1="83.30" x2="64.01" y2="73.13"></line><line class="link fake transparent" x1="53.17" y1="74.10" x2="64.01" y2="73.13"></line><line class="link fake transparent" x1="61.63" y1="62.44" x2="64.01" y2="73.13"></line><line class="link fake transparent" x1="74.55" y1="70.56" x2="64.01" y2="73.13"></line><line class="link fake transparent" x1="53.17" y1="74.10" x2="50.77" y2="63.46"></line><line class="link fake transparent" x1="39.93" y1="63.08" x2="50.77" y2="63.46"></line><line class="link fake transparent" x1="49.82" y1="52.58" x2="50.77" y2="63.46"></line><line class="link fake transparent" x1="61.63" y1="62.44" x2="50.77" y2="63.46"></line><line class="link fake transparent" x1="39.93" y1="63.08" x2="38.96" y2="52.26"></line><line class="link fake transparent" x1="28.21" y1="50.93" x2="38.96" y2="52.26"></line><line class="link fake transparent" x1="39.10" y1="41.33" x2="38.96" y2="52.26"></line><line class="link fake transparent" x1="49.82" y1="52.58" x2="38.96" y2="52.26"></line><line class="link fake transparent" x1="28.21" y1="50.93" x2="28.37" y2="40.07"></line><line class="link fake transparent" x1="17.73" y1="38.14" x2="28.37" y2="40.07"></line><line class="link fake transparent" x1="29.28" y1="29.22" x2="28.37" y2="40.07"></line><line class="link fake transparent" x1="39.10" y1="41.33" x2="28.37" y2="40.07"></line><line class="link fake transparent" x1="17.73" y1="38.14" x2="18.67" y2="27.34"></line><line class="link fake transparent" x1="8.06" y1="25.31" x2="18.67" y2="27.34"></line><line class="link fake transparent" x1="20.10" y1="16.60" x2="18.67" y2="27.34"></line><line class="link fake transparent" x1="29.28" y1="29.22" x2="18.67" y2="27.34"></line><line class="link fake transparent" x1="180.43" y1="294.37" x2="198.93" y2="320.05"></line><line class="link fake transparent" x1="180.43" y1="294.37" x2="223.61" y2="339.93"></line><line class="link fake transparent" x1="194.12" y1="288.58" x2="198.93" y2="320.05"></line><line class="link fake transparent" x1="194.12" y1="288.58" x2="211.75" y2="348.92"></line><line class="link fake transparent" x1="209.34" y1="290.40" x2="198.93" y2="320.05"></line><line class="link fake transparent" x1="209.34" y1="290.40" x2="197.13" y2="351.68"></line><line class="link fake transparent" x1="221.84" y1="298.49" x2="198.93" y2="320.05"></line><line class="link fake transparent" x1="221.84" y1="298.49" x2="182.84" y2="347.49"></line><line class="link fake transparent" x1="229.46" y1="311.48" x2="198.93" y2="320.05"></line><line class="link fake transparent" x1="229.46" y1="311.48" x2="172.15" y2="337.14"></line><line class="link fake transparent" x1="229.98" y1="326.42" x2="198.93" y2="320.05"></line><line class="link fake transparent" x1="229.98" y1="326.42" x2="166.87" y2="323.33"></line><line class="link fake transparent" x1="223.61" y1="339.93" x2="198.93" y2="320.05"></line><line class="link fake transparent" x1="223.61" y1="339.93" x2="168.73" y2="308.69"></line><line class="link fake transparent" x1="211.75" y1="348.92" x2="198.93" y2="320.05"></line><line class="link fake transparent" x1="211.75" y1="348.92" x2="180.43" y2="294.37"></line><line class="link fake transparent" x1="197.13" y1="351.68" x2="198.93" y2="320.05"></line><line class="link fake transparent" x1="197.13" y1="351.68" x2="194.12" y2="288.58"></line><line class="link fake transparent" x1="182.84" y1="347.49" x2="198.93" y2="320.05"></line><line class="link fake transparent" x1="182.84" y1="347.49" x2="209.34" y2="290.40"></line><line class="link fake transparent" x1="172.15" y1="337.14" x2="198.93" y2="320.05"></line><line class="link fake transparent" x1="172.15" y1="337.14" x2="221.84" y2="298.49"></line><line class="link fake transparent" x1="8.06" y1="25.31" x2="6.42" y2="10.25"></line><line class="link fake transparent" x1="8.06" y1="25.31" x2="4.87" y2="-4.76"></line><line class="link fake transparent" x1="-5.94" y1="18.85" x2="6.42" y2="10.25"></line><line class="link fake transparent" x1="-5.94" y1="18.85" x2="18.55" y2="1.30"></line><line class="link fake transparent" x1="-7.31" y1="3.95" x2="6.42" y2="10.25"></line><line class="link fake transparent" x1="-7.31" y1="3.95" x2="20.10" y2="16.60"></line><line class="link fake transparent" x1="4.87" y1="-4.76" x2="6.42" y2="10.25"></line><line class="link fake transparent" x1="4.87" y1="-4.76" x2="8.06" y2="25.31"></line><line class="link fake transparent" x1="18.55" y1="1.30" x2="6.42" y2="10.25"></line><line class="link fake transparent" x1="18.55" y1="1.30" x2="-5.94" y2="18.85"></line><line class="link fake transparent" x1="20.10" y1="16.60" x2="6.42" y2="10.25"></line><line class="link fake transparent" x1="20.10" y1="16.60" x2="-7.31" y2="3.95"></line><line class="link fake transparent" x1="93.74" y1="104.38" x2="107.02" y2="86.15"></line><line class="link fake transparent" x1="93.74" y1="104.38" x2="114.34" y2="64.88"></line><line class="link fake transparent" x1="84.80" y1="90.03" x2="107.02" y2="86.15"></line><line class="link fake transparent" x1="84.80" y1="90.03" x2="125.97" y2="74.32"></line><line class="link fake transparent" x1="88.15" y1="75.66" x2="107.02" y2="86.15"></line><line class="link fake transparent" x1="88.15" y1="75.66" x2="129.32" y2="88.90"></line><line class="link fake transparent" x1="99.31" y1="65.17" x2="107.02" y2="86.15"></line><line class="link fake transparent" x1="99.31" y1="65.17" x2="122.46" y2="102.29"></line><line class="link fake transparent" x1="114.34" y1="64.88" x2="107.02" y2="86.15"></line><line class="link fake transparent" x1="114.34" y1="64.88" x2="108.14" y2="107.63"></line><line class="link fake transparent" x1="125.97" y1="74.32" x2="107.02" y2="86.15"></line><line class="link fake transparent" x1="125.97" y1="74.32" x2="93.74" y2="104.38"></line><line class="link fake transparent" x1="129.32" y1="88.90" x2="107.02" y2="86.15"></line><line class="link fake transparent" x1="129.32" y1="88.90" x2="84.80" y2="90.03"></line><line class="link fake transparent" x1="122.46" y1="102.29" x2="107.02" y2="86.15"></line><line class="link fake transparent" x1="122.46" y1="102.29" x2="88.15" y2="75.66"></line><line class="link fake transparent" x1="108.14" y1="107.63" x2="107.02" y2="86.15"></line><line class="link fake transparent" x1="108.14" y1="107.63" x2="99.31" y2="65.17"></line></g><g><g class="noselect gnode" struct_name="m" transform="translate(180.43,294.37)" r="6.5"><circle class="node" r="6" node_type="nucleotide" style="fill: lightgreen;"></circle><text text-anchor="middle" font-size="8" font-weight="bold" y="2.5" class="node-label">A</text></g><g class="noselect gnode" struct_name="m" transform="translate(174.12,280.19)" r="6.5"><circle class="node" r="6" node_type="nucleotide" style="fill: lightgreen;"></circle><text text-anchor="middle" font-size="8" font-weight="bold" y="2.5" class="node-label">C</text></g><g class="noselect gnode" struct_name="m" transform="translate(167.12,266.10)" r="6.5"><circle class="node" r="6" node_type="nucleotide" style="fill: lightgreen;"></circle><text text-anchor="middle" font-size="8" font-weight="bold" y="2.5" class="node-label">C</text></g><g class="noselect gnode" struct_name="m" transform="translate(159.57,252.31)" r="6.5"><circle class="node" r="6" node_type="nucleotide" style="fill: lightgreen;"></circle><text text-anchor="middle" font-size="8" font-weight="bold" y="2.5" class="node-label">U</text></g><g class="noselect gnode" struct_name="m" transform="translate(151.47,238.97)" r="6.5"><circle class="node" r="6" node_type="nucleotide" style="fill: lightgreen;"></circle><text text-anchor="middle" font-size="8" font-weight="bold" y="2.5" class="node-label">A</text></g><g class="noselect gnode" struct_name="m" transform="translate(142.81,226.00)" r="6.5"><circle class="node" r="6" node_type="nucleotide" style="fill: lightgreen;"></circle><text text-anchor="middle" font-size="8" font-weight="bold" y="2.5" class="node-label">U</text></g><g class="noselect gnode" struct_name="m" transform="translate(133.69,213.14)" r="6.5"><circle class="node" r="6" node_type="nucleotide" style="fill: lightgreen;"></circle><text text-anchor="middle" font-size="8" font-weight="bold" y="2.5" class="node-label">A</text></g><g class="noselect gnode" struct_name="m" transform="translate(124.33,200.04)" r="6.5"><circle class="node" r="6" node_type="nucleotide" style="fill: lightgreen;"></circle><text text-anchor="middle" font-size="8" font-weight="bold" y="2.5" class="node-label">C</text></g><g class="noselect gnode" struct_name="m" transform="translate(115.12,186.35)" r="6.5"><circle class="node" r="6" node_type="nucleotide" style="fill: lightgreen;"></circle><text text-anchor="middle" font-size="8" font-weight="bold" y="2.5" class="node-label">C</text></g><g class="noselect gnode" struct_name="m" transform="translate(106.62,171.85)" r="6.5"><circle class="node" r="6" node_type="nucleotide" style="fill: lightgreen;"></circle><text text-anchor="middle" font-size="8" font-weight="bold" y="2.5" class="node-label">A</text></g><g class="noselect gnode" struct_name="m" transform="translate(99.52,156.27)" r="6.5"><circle class="node" r="6" node_type="nucleotide" style="fill: lightgreen;"></circle><text text-anchor="middle" font-size="8" font-weight="bold" y="2.5" class="node-label">G</text></g><g class="noselect gnode" struct_name="m" transform="translate(94.53,139.65)" r="6.5"><circle class="node" r="6" node_type="nucleotide" style="fill: lightgreen;"></circle><text text-anchor="middle" font-size="8" font-weight="bold" y="2.5" class="node-label">C</text></g><g class="noselect gnode" struct_name="m" transform="translate(92.46,122.23)" r="6.5"><circle class="node" r="6" node_type="nucleotide" style="fill: lightgreen;"></circle><text text-anchor="middle" font-size="8" font-weight="bold" y="2.5" class="node-label">G</text></g><g class="noselect gnode" struct_name="m" transform="translate(93.74,104.38)" r="6.5"><circle class="node" r="6" node_type="nucleotide" style="fill: lightgreen;"></circle><text text-anchor="middle" font-size="8" font-weight="bold" y="2.5" class="node-label">G</text></g><g class="noselect gnode" struct_name="m" transform="translate(84.80,90.03)" r="6.5"><circle class="node" r="6" node_type="nucleotide" style="fill: lightgreen;"></circle><text text-anchor="middle" font-size="8" font-weight="bold" y="2.5" class="node-label">C</text></g><g class="noselect gnode" struct_name="m" transform="translate(68.10,83.30)" r="6.5"><circle class="node" r="6" node_type="nucleotide" style="fill: lightgreen;"></circle><text text-anchor="middle" font-size="8" font-weight="bold" y="2.5" class="node-label">C</text></g><g class="noselect gnode" struct_name="m" transform="translate(53.17,74.10)" r="6.5"><circle class="node" r="6" node_type="nucleotide" style="fill: lightgreen;"></circle><text text-anchor="middle" font-size="8" font-weight="bold" y="2.5" class="node-label">G</text></g><g class="noselect gnode" struct_name="m" transform="translate(39.93,63.08)" r="6.5"><circle class="node" r="6" node_type="nucleotide" style="fill: lightgreen;"></circle><text text-anchor="middle" font-size="8" font-weight="bold" y="2.5" class="node-label">A</text></g><g class="noselect gnode" struct_name="m" transform="translate(28.21,50.93)" r="6.5"><circle class="node" r="6" node_type="nucleotide" style="fill: lightgreen;"></circle><text text-anchor="middle" font-size="8" font-weight="bold" y="2.5" class="node-label">G</text></g><g class="noselect gnode" struct_name="m" transform="translate(17.73,38.14)" r="6.5"><circle class="node" r="6" node_type="nucleotide" style="fill: lightgreen;"></circle><text text-anchor="middle" font-size="8" font-weight="bold" y="2.5" class="node-label">G</text></g><g class="noselect gnode" struct_name="m" transform="translate(8.06,25.31)" r="6.5"><circle class="node" r="6" node_type="nucleotide" style="fill: lightgreen;"></circle><text text-anchor="middle" font-size="8" font-weight="bold" y="2.5" class="node-label">C</text></g><g class="noselect gnode" struct_name="m" transform="translate(-5.94,18.85)" r="6.5"><circle class="node" r="6" node_type="nucleotide" style="fill: lightblue;"></circle><text text-anchor="middle" font-size="8" font-weight="bold" y="2.5" class="node-label">A</text></g><g class="noselect gnode" struct_name="m" transform="translate(-7.31,3.95)" r="6.5"><circle class="node" r="6" node_type="nucleotide" style="fill: lightblue;"></circle><text text-anchor="middle" font-size="8" font-weight="bold" y="2.5" class="node-label">U</text></g><g class="noselect gnode" struct_name="m" transform="translate(4.87,-4.76)" r="6.5"><circle class="node" r="6" node_type="nucleotide" style="fill: lightblue;"></circle><text text-anchor="middle" font-size="8" font-weight="bold" y="2.5" class="node-label">U</text></g><g class="noselect gnode" struct_name="m" transform="translate(18.55,1.30)" r="6.5"><circle class="node" r="6" node_type="nucleotide" style="fill: lightblue;"></circle><text text-anchor="middle" font-size="8" font-weight="bold" y="2.5" class="node-label">A</text></g><g class="noselect gnode" struct_name="m" transform="translate(20.10,16.60)" r="6.5"><circle class="node" r="6" node_type="nucleotide" style="fill: lightgreen;"></circle><text text-anchor="middle" font-size="8" font-weight="bold" y="2.5" class="node-label">G</text></g><g class="noselect gnode" struct_name="m" transform="translate(29.28,29.22)" r="6.5"><circle class="node" r="6" node_type="nucleotide" style="fill: lightgreen;"></circle><text text-anchor="middle" font-size="8" font-weight="bold" y="2.5" class="node-label">C</text></g><g class="noselect gnode" struct_name="m" transform="translate(39.10,41.33)" r="6.5"><circle class="node" r="6" node_type="nucleotide" style="fill: lightgreen;"></circle><text text-anchor="middle" font-size="8" font-weight="bold" y="2.5" class="node-label">C</text></g><g class="noselect gnode" struct_name="m" transform="translate(49.82,52.58)" r="6.5"><circle class="node" r="6" node_type="nucleotide" style="fill: lightgreen;"></circle><text text-anchor="middle" font-size="8" font-weight="bold" y="2.5" class="node-label">U</text></g><g class="noselect gnode" struct_name="m" transform="translate(61.63,62.44)" r="6.5"><circle class="node" r="6" node_type="nucleotide" style="fill: lightgreen;"></circle><text text-anchor="middle" font-size="8" font-weight="bold" y="2.5" class="node-label">C</text></g><g class="noselect gnode" struct_name="m" transform="translate(74.55,70.56)" r="6.5"><circle class="node" r="6" node_type="nucleotide" style="fill: lightgreen;"></circle><text text-anchor="middle" font-size="8" font-weight="bold" y="2.5" class="node-label">G</text></g><g class="noselect gnode" struct_name="m" transform="translate(88.15,75.66)" r="6.5"><circle class="node" r="6" node_type="nucleotide" style="fill: lightgreen;"></circle><text text-anchor="middle" font-size="8" font-weight="bold" y="2.5" class="node-label">G</text></g><g class="noselect gnode" struct_name="m" transform="translate(99.31,65.17)" r="6.5"><circle class="node" r="6" node_type="nucleotide" style="fill: rgb(219, 219, 141);"></circle><text text-anchor="middle" font-size="8" font-weight="bold" y="2.5" class="node-label">C</text></g><g class="noselect gnode" struct_name="m" transform="translate(114.34,64.88)" r="6.5"><circle class="node" r="6" node_type="nucleotide" style="fill: rgb(219, 219, 141);"></circle><text text-anchor="middle" font-size="8" font-weight="bold" y="2.5" class="node-label">G</text></g><g class="noselect gnode" struct_name="m" transform="translate(125.97,74.32)" r="6.5"><circle class="node" r="6" node_type="nucleotide" style="fill: rgb(219, 219, 141);"></circle><text text-anchor="middle" font-size="8" font-weight="bold" y="2.5" class="node-label">A</text></g><g class="noselect gnode" struct_name="m" transform="translate(129.32,88.90)" r="6.5"><circle class="node" r="6" node_type="nucleotide" style="fill: rgb(219, 219, 141);"></circle><text text-anchor="middle" font-size="8" font-weight="bold" y="2.5" class="node-label">A</text></g><g class="noselect gnode" struct_name="m" transform="translate(122.46,102.29)" r="6.5"><circle class="node" r="6" node_type="nucleotide" style="fill: rgb(219, 219, 141);"></circle><text text-anchor="middle" font-size="8" font-weight="bold" y="2.5" class="node-label">U</text></g><g class="noselect gnode" struct_name="m" transform="translate(108.14,107.63)" r="6.5"><circle class="node" r="6" node_type="nucleotide" style="fill: lightgreen;"></circle><text text-anchor="middle" font-size="8" font-weight="bold" y="2.5" class="node-label">C</text></g><g class="noselect gnode" struct_name="m" transform="translate(106.84,121.89)" r="6.5"><circle class="node" r="6" node_type="nucleotide" style="fill: lightgreen;"></circle><text text-anchor="middle" font-size="8" font-weight="bold" y="2.5" class="node-label">C</text></g><g class="noselect gnode" struct_name="m" transform="translate(108.68,136.66)" r="6.5"><circle class="node" r="6" node_type="nucleotide" style="fill: lightgreen;"></circle><text text-anchor="middle" font-size="8" font-weight="bold" y="2.5" class="node-label">G</text></g><g class="noselect gnode" struct_name="m" transform="translate(113.00,151.16)" r="6.5"><circle class="node" r="6" node_type="nucleotide" style="fill: lightgreen;"></circle><text text-anchor="middle" font-size="8" font-weight="bold" y="2.5" class="node-label">C</text></g><g class="noselect gnode" struct_name="m" transform="translate(119.44,165.13)" r="6.5"><circle class="node" r="6" node_type="nucleotide" style="fill: lightgreen;"></circle><text text-anchor="middle" font-size="8" font-weight="bold" y="2.5" class="node-label">U</text></g><g class="noselect gnode" struct_name="m" transform="translate(127.35,178.60)" r="6.5"><circle class="node" r="6" node_type="nucleotide" style="fill: lightgreen;"></circle><text text-anchor="middle" font-size="8" font-weight="bold" y="2.5" class="node-label">G</text></g><g class="noselect gnode" struct_name="m" transform="translate(136.25,191.70)" r="6.5"><circle class="node" r="6" node_type="nucleotide" style="fill: lightgreen;"></circle><text text-anchor="middle" font-size="8" font-weight="bold" y="2.5" class="node-label">G</text></g><g class="noselect gnode" struct_name="m" transform="translate(145.59,204.63)" r="6.5"><circle class="node" r="6" node_type="nucleotide" style="fill: lightgreen;"></circle><text text-anchor="middle" font-size="8" font-weight="bold" y="2.5" class="node-label">U</text></g><g class="noselect gnode" struct_name="m" transform="translate(154.89,217.65)" r="6.5"><circle class="node" r="6" node_type="nucleotide" style="fill: lightgreen;"></circle><text text-anchor="middle" font-size="8" font-weight="bold" y="2.5" class="node-label">A</text></g><g class="noselect gnode" struct_name="m" transform="translate(163.85,231.10)" r="6.5"><circle class="node" r="6" node_type="nucleotide" style="fill: lightgreen;"></circle><text text-anchor="middle" font-size="8" font-weight="bold" y="2.5" class="node-label">U</text></g><g class="noselect gnode" struct_name="m" transform="translate(172.25,245.03)" r="6.5"><circle class="node" r="6" node_type="nucleotide" style="fill: lightgreen;"></circle><text text-anchor="middle" font-size="8" font-weight="bold" y="2.5" class="node-label">G</text></g><g class="noselect gnode" struct_name="m" transform="translate(180.05,259.36)" r="6.5"><circle class="node" r="6" node_type="nucleotide" style="fill: lightgreen;"></circle><text text-anchor="middle" font-size="8" font-weight="bold" y="2.5" class="node-label">G</text></g><g class="noselect gnode" struct_name="m" transform="translate(187.32,273.91)" r="6.5"><circle class="node" r="6" node_type="nucleotide" style="fill: lightgreen;"></circle><text text-anchor="middle" font-size="8" font-weight="bold" y="2.5" class="node-label">G</text></g><g class="noselect gnode" struct_name="m" transform="translate(194.12,288.58)" r="6.5"><circle class="node" r="6" node_type="nucleotide" style="fill: lightgreen;"></circle><text text-anchor="middle" font-size="8" font-weight="bold" y="2.5" class="node-label">U</text></g><g class="noselect gnode" struct_name="m" transform="translate(209.34,290.40)" r="6.5"><circle class="node" r="6" node_type="nucleotide" style="fill: lightsalmon;"></circle><text text-anchor="middle" font-size="8" font-weight="bold" y="2.5" class="node-label">C</text></g><g class="noselect gnode" struct_name="m" transform="translate(221.84,298.49)" r="6.5"><circle class="node" r="6" node_type="nucleotide" style="fill: lightsalmon;"></circle><text text-anchor="middle" font-size="8" font-weight="bold" y="2.5" class="node-label">A</text></g><g class="noselect gnode" struct_name="m" transform="translate(229.46,311.48)" r="6.5"><circle class="node" r="6" node_type="nucleotide" style="fill: lightsalmon;"></circle><text text-anchor="middle" font-size="8" font-weight="bold" y="2.5" class="node-label">A</text></g><g class="noselect gnode" struct_name="m" transform="translate(229.98,326.42)" r="6.5"><circle class="node" r="6" node_type="nucleotide" style="fill: lightsalmon;"></circle><text text-anchor="middle" font-size="8" font-weight="bold" y="2.5" class="node-label">A</text></g><g class="noselect gnode" struct_name="m" transform="translate(223.61,339.93)" r="6.5"><circle class="node" r="6" node_type="nucleotide" style="fill: lightsalmon;"></circle><text text-anchor="middle" font-size="8" font-weight="bold" y="2.5" class="node-label">U</text></g><g class="noselect gnode" struct_name="m" transform="translate(211.75,348.92)" r="6.5"><circle class="node" r="6" node_type="nucleotide" style="fill: lightsalmon;"></circle><text text-anchor="middle" font-size="8" font-weight="bold" y="2.5" class="node-label">U</text></g><g class="noselect gnode" struct_name="m" transform="translate(197.13,351.68)" r="6.5"><circle class="node" r="6" node_type="nucleotide" style="fill: lightsalmon;"></circle><text text-anchor="middle" font-size="8" font-weight="bold" y="2.5" class="node-label">A</text></g><g class="noselect gnode" struct_name="m" transform="translate(182.84,347.49)" r="6.5"><circle class="node" r="6" node_type="nucleotide" style="fill: lightsalmon;"></circle><text text-anchor="middle" font-size="8" font-weight="bold" y="2.5" class="node-label">U</text></g><g class="noselect gnode" struct_name="m" transform="translate(172.15,337.14)" r="6.5"><circle class="node" r="6" node_type="nucleotide" style="fill: lightsalmon;"></circle><text text-anchor="middle" font-size="8" font-weight="bold" y="2.5" class="node-label">U</text></g><g class="noselect gnode" struct_name="m" transform="translate(92.79,179.16)" r="6.5"><circle class="node label" r="6" node_type="label"></circle><text text-anchor="middle" font-size="8" font-weight="bold" y="2.5" class="node-label">10</text></g><g class="noselect gnode" struct_name="m" transform="translate(3.90,45.28)" r="6.5"><circle class="node label" r="6" node_type="label"></circle><text text-anchor="middle" font-size="8" font-weight="bold" y="2.5" class="node-label">20</text></g><g class="noselect gnode" struct_name="m" transform="translate(69.28,48.88)" r="6.5"><circle class="node label" r="6" node_type="label"></circle><text text-anchor="middle" font-size="8" font-weight="bold" y="2.5" class="node-label">30</text></g><g class="noselect gnode" struct_name="m" transform="translate(123.63,132.50)" r="6.5"><circle class="node label" r="6" node_type="label"></circle><text text-anchor="middle" font-size="8" font-weight="bold" y="2.5" class="node-label">40</text></g><g class="noselect gnode" struct_name="m" transform="translate(201.45,267.45)" r="6.5"><circle class="node label" r="6" node_type="label"></circle><text text-anchor="middle" font-size="8" font-weight="bold" y="2.5" class="node-label">50</text></g><g class="noselect gnode" struct_name="m" transform="translate(159.07,345.41)" r="6.5"><circle class="node label" r="6" node_type="label"></circle><text text-anchor="middle" font-size="8" font-weight="bold" y="2.5" class="node-label">60</text></g><g class="noselect gnode" transform="translate(184.18,284.34)" r="6.5"><circle class="node" r="0" node_type="middle"></circle><text text-anchor="middle" font-size="8" font-weight="bold" y="2.5" class="node-label"></text></g><g class="noselect gnode" transform="translate(177.27,269.86)" r="6.5"><circle class="node" r="0" node_type="middle"></circle><text text-anchor="middle" font-size="8" font-weight="bold" y="2.5" class="node-label"></text></g><g class="noselect gnode" transform="translate(169.89,255.61)" r="6.5"><circle class="node" r="0" node_type="middle"></circle><text text-anchor="middle" font-size="8" font-weight="bold" y="2.5" class="node-label"></text></g><g class="noselect gnode" transform="translate(161.94,241.72)" r="6.5"><circle class="node" r="0" node_type="middle"></circle><text text-anchor="middle" font-size="8" font-weight="bold" y="2.5" class="node-label"></text></g><g class="noselect gnode" transform="translate(153.41,228.35)" r="6.5"><circle class="node" r="0" node_type="middle"></circle><text text-anchor="middle" font-size="8" font-weight="bold" y="2.5" class="node-label"></text></g><g class="noselect gnode" transform="translate(144.31,215.32)" r="6.5"><circle class="node" r="0" node_type="middle"></circle><text text-anchor="middle" font-size="8" font-weight="bold" y="2.5" class="node-label"></text></g><g class="noselect gnode" transform="translate(134.95,202.44)" r="6.5"><circle class="node" r="0" node_type="middle"></circle><text text-anchor="middle" font-size="8" font-weight="bold" y="2.5" class="node-label"></text></g><g class="noselect gnode" transform="translate(125.62,189.32)" r="6.5"><circle class="node" r="0" node_type="middle"></circle><text text-anchor="middle" font-size="8" font-weight="bold" y="2.5" class="node-label"></text></g><g class="noselect gnode" transform="translate(116.84,175.67)" r="6.5"><circle class="node" r="0" node_type="middle"></circle><text text-anchor="middle" font-size="8" font-weight="bold" y="2.5" class="node-label"></text></g><g class="noselect gnode" transform="translate(109.18,161.31)" r="6.5"><circle class="node" r="0" node_type="middle"></circle><text text-anchor="middle" font-size="8" font-weight="bold" y="2.5" class="node-label"></text></g><g class="noselect gnode" transform="translate(103.28,146.10)" r="6.5"><circle class="node" r="0" node_type="middle"></circle><text text-anchor="middle" font-size="8" font-weight="bold" y="2.5" class="node-label"></text></g><g class="noselect gnode" transform="translate(99.90,130.23)" r="6.5"><circle class="node" r="0" node_type="middle"></circle><text text-anchor="middle" font-size="8" font-weight="bold" y="2.5" class="node-label"></text></g><g class="noselect gnode" transform="translate(99.46,113.95)" r="6.5"><circle class="node" r="0" node_type="middle"></circle><text text-anchor="middle" font-size="8" font-weight="bold" y="2.5" class="node-label"></text></g><g class="noselect gnode" transform="translate(78.64,80.68)" r="6.5"><circle class="node" r="0" node_type="middle"></circle><text text-anchor="middle" font-size="8" font-weight="bold" y="2.5" class="node-label"></text></g><g class="noselect gnode" transform="translate(64.01,73.13)" r="6.5"><circle class="node" r="0" node_type="middle"></circle><text text-anchor="middle" font-size="8" font-weight="bold" y="2.5" class="node-label"></text></g><g class="noselect gnode" transform="translate(50.77,63.46)" r="6.5"><circle class="node" r="0" node_type="middle"></circle><text text-anchor="middle" font-size="8" font-weight="bold" y="2.5" class="node-label"></text></g><g class="noselect gnode" transform="translate(38.96,52.26)" r="6.5"><circle class="node" r="0" node_type="middle"></circle><text text-anchor="middle" font-size="8" font-weight="bold" y="2.5" class="node-label"></text></g><g class="noselect gnode" transform="translate(28.37,40.07)" r="6.5"><circle class="node" r="0" node_type="middle"></circle><text text-anchor="middle" font-size="8" font-weight="bold" y="2.5" class="node-label"></text></g><g class="noselect gnode" transform="translate(18.67,27.34)" r="6.5"><circle class="node" r="0" node_type="middle"></circle><text text-anchor="middle" font-size="8" font-weight="bold" y="2.5" class="node-label"></text></g><g class="noselect gnode" transform="translate(166.87,323.33)" r="6.5"><circle class="node" r="0" node_type="middle"></circle><text text-anchor="middle" font-size="8" font-weight="bold" y="2.5" class="node-label"></text></g><g class="noselect gnode" transform="translate(168.73,308.69)" r="6.5"><circle class="node" r="0" node_type="middle"></circle><text text-anchor="middle" font-size="8" font-weight="bold" y="2.5" class="node-label"></text></g><g class="noselect gnode" transform="translate(198.93,320.05)" r="6.5"><circle class="node" r="0" node_type="middle"></circle><text text-anchor="middle" font-size="8" font-weight="bold" y="2.5" class="node-label"></text></g><g class="noselect gnode" transform="translate(6.42,10.25)" r="6.5"><circle class="node" r="0" node_type="middle"></circle><text text-anchor="middle" font-size="8" font-weight="bold" y="2.5" class="node-label"></text></g><g class="noselect gnode" transform="translate(107.02,86.15)" r="6.5"><circle class="node" r="0" node_type="middle"></circle><text text-anchor="middle" font-size="8" font-weight="bold" y="2.5" class="node-label"></text></g></g><line class="drag_line" x1="0" y1="0" x2="0" y2="0"></line></g></g></svg>