<svg xmlns="http://www.w3.org/2000/svg" viewBox="0 0 760 640" width="760" height="640"><style>svg {
  display: block;
  min-width: 100%;
  width: 100%;
  min-height: 100%;
}

circle.node {
  stroke: #ccc;
  stroke-width: 1px;
  opacity: 1;
  fill: white;
}

circle.node.label {
    stroke: transparent;
    stroke-width: 0;
    fill: white;
}

circle.outline_node {
    stroke-width: 1px;
    fill: red;
}

circle.protein {
    fill: gray;
    fill-opacity: 0.5;
    stroke-width: 4;
}

circle.hidden_outline {
    stroke-width: 0px;
}


line.link {
  stroke: #999;
  stroke-opacity: 0.8;
  stroke-width: 2;
}

line.basepair {
  stroke: red;
}

line.intermolecule {
  stroke: blue;
}

line.chain_chain {
  stroke-dasharray: 3,3;
}

line.fake {
  stroke: green;
}

.transparent {
    fill: transparent;
    stroke-width: 0;
    stroke-opacity: 0;
    opacity: 0;
    visibility: hidden;
}

.drag_line {
  stroke: #999;
  stroke-width: 2;
  pointer-events: none;
}

.drag_line_hidden {
  stroke: #999;
  stroke-width: 0;
  pointer-events: none;
}

.d3-tip {
    line-height: 1;
    font-weight: bold;
    padding: 6px;
    background: rgba(0, 0, 0, 0.6);
    color: #fff;
    border-radius: 4px;
    pointer-events: none;
          }

text.node-label {
    font-weight: bold;
    font-family: Tahoma, Geneva, sans-serif;
    color: rgb(100,100,100);
    pointer-events: none;
}

text {
    pointer-events: none;
}

g.gnode {

}

circle.outline_node.selected {
    visibility: visible;
}

circle.outline_node {
    visibility: hidden;
}

.brush .extent {
  fill-opacity: .1;
  stroke: #fff;
  shape-rendering: crispEdges;
}

.noselect {
    -webkit-touch-callout: none;
    -webkit-user-select: none;
    -khtml-user-select: none;
    -moz-user-select: none;
    -ms-user-select: none;
    user-select: none;
}

svg {
  display: block;
  min-width: 100%;
  width: 100%;
  min-height: 100%;
}

circle.node {
  stroke: #ccc;
  stroke-width: 1px;
  opacity: 1;
  fill: white;
}

circle.node.label {
    stroke: transparent;
    stroke-width: 0;
    fill: white;
}

circle.outline_node {
    stroke-width: 1px;
    fill: red;
}

circle.protein {
    fill: gray;
    fill-opacity: 0.5;
    stroke-width: 4;
}

circle.hidden_outline {
    stroke-width: 0px;
}


line.link {
  stroke: #999;
  stroke-opacity: 0.8;
  stroke-width: 2;
}

line.basepair {
  stroke: red;
}

line.intermolecule {
  stroke: blue;
}

line.chain_chain {
  stroke-dasharray: 3,3;
}

line.fake {
  stroke: green;
}

.transparent {
    fill: transparent;
    stroke-width: 0;
    stroke-opacity: 0;
    opacity: 0;
    visibility: hidden;
}

.drag_line {
  stroke: #999;
  stroke-width: 2;
  pointer-events: none;
}

.drag_line_hidden {
  stroke: #999;
  stroke-width: 0;
  pointer-events: none;
}

.d3-tip {
    line-height: 1;
    font-weight: bold;
    padding: 6px;
    background: rgba(0, 0, 0, 0.6);
    color: #fff;
    border-radius: 4px;
    pointer-events: none;
          }

text.node-label {
    font-weight: bold;
    font-family: Tahoma, Geneva, sans-serif;
    color: rgb(100,100,100);
    pointer-events: none;
}

text {
    pointer-events: none;
}

g.gnode {

}

circle.outline_node.selected {
    visibility: visible;
}

circle.outline_node {
    visibility: hidden;
}

.brush .extent {
  fill-opacity: .1;
  stroke: #fff;
  shape-rendering: crispEdges;
}

.noselect {
    -webkit-touch-callout: none;
    -webkit-user-select: none;
    -khtml-user-select: none;
    -moz-user-select: none;
    -ms-user-select: none;
    user-select: none;
}
/*# sourceURL=/Users/yumanakamura/ipy_sandbox/sandbox/claude_sandbox/mrna-transformer/scripts/eval/prerender/forna_vendor/fornac.css*/</style><style></style><g><g class="brush" style="pointer-events: all; -webkit-tap-highlight-color: rgba(0, 0, 0, 0);"><rect class="background" x="0" width="760" y="0" height="640" style="visibility: hidden; cursor: auto;"></rect><rect class="extent" x="0" width="0" y="0" height="0" style="cursor: move;"></rect><g class="resize n" transform="translate(0,0)" style="cursor: ns-resize; display: none;"><rect y="-3" width="0" height="6" style="visibility: hidden;"></rect></g><g class="resize e" transform="translate(0,0)" style="cursor: ew-resize; display: none;"><rect x="-3" width="6" height="0" style="visibility: hidden;"></rect></g><g class="resize s" transform="translate(0,0)" style="cursor: ns-resize; display: none;"><rect y="-3" width="0" height="6" style="visibility: hidden;"></rect></g><g class="resize w" transform="translate(0,0)" style="cursor: ew-resize; display: none;"><rect x="-3" width="6" height="0" style="visibility: hidden;"></rect></g><g class="resize nw" transform="translate(0,0)" style="cursor: nwse-resize; display: none;"><rect x="-3" y="-3" width="6" height="6" style="visibility: hidden;"></rect></g><g class="resize ne" transform="translate(0,0)" style="cursor: nesw-resize; display: none;"><rect x="-3" y="-3" width="6" height="6" style="visibility: hidden;"></rect></g><g class="resize se" transform="translate(0,0)" style="cursor: nwse-resize; display: none;"><rect x="-3" y="-3" width="6" height="6" style="visibility: hidden;"></rect></g><g class="resize sw" transform="translate(0,0)" style="cursor: nesw-resize; display: none;"><rect x="-3" y="-3" width="6" height="6" style="visibility: hidden;"></rect></g></g><g transform="translate(294.61,163.63) scale(1.33)"><g><line class="link backbone" x1="30.85" y1="322.30" x2="16.81" y2="317.00"></line><line class="link backbone" x1="16.81" y1="317.00" x2="5.58" y2="307.09"></line><line class="link backbone" x1="5.58" y1="307.09" x2="-1.20" y2="293.72"></line><line class="link backbone" x1="-1.20" y1="293.72" x2="-2.74" y2="278.83"></line><line class="link backbone" x1="-2.74" y1="278.83" x2="1.19" y2="264.34"></line><line class="link backbone" x1="1.19" y1="264.34" x2="10.31" y2="252.20"></line><line class="link backbone" x1="10.31" y1="252.20" x2="23.22" y2="244.41"></line><line class="link basepair" x1="38.25" y1="241.03" x2="53.04" y2="243.53"></line><line class="link backbone" x1="23.22" y1="244.41" x2="38.25" y2="241.03"></line><line class="link basepair" x1="40.78" y1="225.73" x2="55.23" y2="227.53"></line><line class="link backbone" x1="38.25" y1="241.03" x2="40.78" y2="225.73"></line><line class="link basepair" x1="42.18" y1="210.26" x2="56.75" y2="211.08"></line><line class="link backbone" x1="40.78" y1="225.73" x2="42.18" y2="210.26"></line><line class="link basepair" x1="42.45" y1="194.87" x2="57.04" y2="194.54"></line><line class="link backbone" x1="42.18" y1="210.26" x2="42.45" y2="194.87"></line><line class="link basepair" x1="41.37" y1="179.71" x2="56.14" y2="177.99"></line><line class="link backbone" x1="42.45" y1="194.87" x2="41.37" y2="179.71"></line><line class="link backbone" x1="41.37" y1="179.71" x2="34.33" y2="165.99"></line><line class="link basepair" x1="45.32" y1="155.26" x2="58.82" y2="161.56"></line><line class="link backbone" x1="34.33" y1="165.99" x2="45.32" y2="155.26"></line><line class="link basepair" x1="51.09" y1="141.31" x2="64.84" y2="146.06"></line><line class="link backbone" x1="45.32" y1="155.26" x2="51.09" y2="141.31"></line><line class="link basepair" x1="55.37" y1="126.61" x2="69.51" y2="129.85"></line><line class="link backbone" x1="51.09" y1="141.31" x2="55.37" y2="126.61"></line><line class="link basepair" x1="57.69" y1="111.80" x2="72.56" y2="113.24"></line><line class="link backbone" x1="55.37" y1="126.61" x2="57.69" y2="111.80"></line><line class="link backbone" x1="57.69" y1="111.80" x2="48.95" y2="99.24"></line><line class="link backbone" x1="48.95" y1="99.24" x2="53.19" y2="84.82"></line><line class="link basepair" x1="67.37" y1="79.05" x2="80.63" y2="85.94"></line><line class="link backbone" x1="53.19" y1="84.82" x2="67.37" y2="79.05"></line><line class="link basepair" x1="73.49" y1="65.40" x2="87.14" y2="70.47"></line><line class="link backbone" x1="67.37" y1="79.05" x2="73.49" y2="65.40"></line><line class="link basepair" x1="78.01" y1="50.77" x2="92.13" y2="54.55"></line><line class="link backbone" x1="73.49" y1="65.40" x2="78.01" y2="50.77"></line><line class="link basepair" x1="81.44" y1="35.65" x2="95.74" y2="38.49"></line><line class="link backbone" x1="78.01" y1="50.77" x2="81.44" y2="35.65"></line><line class="link basepair" x1="84.17" y1="20.05" x2="98.51" y2="22.34"></line><line class="link backbone" x1="81.44" y1="35.65" x2="84.17" y2="20.05"></line><line class="link basepair" x1="86.47" y1="4.23" x2="100.86" y2="6.20"></line><line class="link backbone" x1="84.17" y1="20.05" x2="86.47" y2="4.23"></line><line class="link basepair" x1="88.27" y1="-11.43" x2="103.10" y2="-9.76"></line><line class="link backbone" x1="86.47" y1="4.23" x2="88.27" y2="-11.43"></line><line class="link backbone" x1="88.27" y1="-11.43" x2="80.03" y2="-24.57"></line><line class="link backbone" x1="80.03" y1="-24.57" x2="84.93" y2="-38.86"></line><line class="link basepair" x1="99.45" y1="-44.16" x2="112.23" y2="-36.36"></line><line class="link backbone" x1="84.93" y1="-38.86" x2="99.45" y2="-44.16"></line><line class="link basepair" x1="107.40" y1="-57.46" x2="120.22" y2="-49.97"></line><line class="link backbone" x1="99.45" y1="-44.16" x2="107.40" y2="-57.46"></line><line class="link backbone" x1="107.40" y1="-57.46" x2="107.45" y2="-72.83"></line><line class="link backbone" x1="107.45" y1="-72.83" x2="120.45" y2="-80.21"></line><line class="link backbone" x1="120.45" y1="-80.21" x2="133.43" y2="-72.73"></line><line class="link backbone" x1="133.43" y1="-72.73" x2="133.53" y2="-57.75"></line><line class="link basepair" x1="120.22" y1="-49.97" x2="107.40" y2="-57.46"></line><line class="link backbone" x1="133.53" y1="-57.75" x2="120.22" y2="-49.97"></line><line class="link basepair" x1="112.23" y1="-36.36" x2="99.45" y2="-44.16"></line><line class="link backbone" x1="120.22" y1="-49.97" x2="112.23" y2="-36.36"></line><line class="link backbone" x1="112.23" y1="-36.36" x2="114.02" y2="-20.95"></line><line class="link basepair" x1="103.10" y1="-9.76" x2="88.27" y2="-11.43"></line><line class="link backbone" x1="114.02" y1="-20.95" x2="103.10" y2="-9.76"></line><line class="link basepair" x1="100.86" y1="6.20" x2="86.47" y2="4.23"></line><line class="link backbone" x1="103.10" y1="-9.76" x2="100.86" y2="6.20"></line><line class="link basepair" x1="98.51" y1="22.34" x2="84.17" y2="20.05"></line><line class="link backbone" x1="100.86" y1="6.20" x2="98.51" y2="22.34"></line><line class="link basepair" x1="95.74" y1="38.49" x2="81.44" y2="35.65"></line><line class="link backbone" x1="98.51" y1="22.34" x2="95.74" y2="38.49"></line><line class="link basepair" x1="92.13" y1="54.55" x2="78.01" y2="50.77"></line><line class="link backbone" x1="95.74" y1="38.49" x2="92.13" y2="54.55"></line><line class="link basepair" x1="87.14" y1="70.47" x2="73.49" y2="65.40"></line><line class="link backbone" x1="92.13" y1="54.55" x2="87.14" y2="70.47"></line><line class="link basepair" x1="80.63" y1="85.94" x2="67.37" y2="79.05"></line><line class="link backbone" x1="87.14" y1="70.47" x2="80.63" y2="85.94"></line><line class="link backbone" x1="80.63" y1="85.94" x2="83.09" y2="101.48"></line><line class="link basepair" x1="72.56" y1="113.24" x2="57.69" y2="111.80"></line><line class="link backbone" x1="83.09" y1="101.48" x2="72.56" y2="113.24"></line><line class="link basepair" x1="69.51" y1="129.85" x2="55.37" y2="126.61"></line><line class="link backbone" x1="72.56" y1="113.24" x2="69.51" y2="129.85"></line><line class="link basepair" x1="64.84" y1="146.06" x2="51.09" y2="141.31"></line><line class="link backbone" x1="69.51" y1="129.85" x2="64.84" y2="146.06"></line><line class="link basepair" x1="58.82" y1="161.56" x2="45.32" y2="155.26"></line><line class="link backbone" x1="64.84" y1="146.06" x2="58.82" y2="161.56"></line><line class="link basepair" x1="56.14" y1="177.99" x2="41.37" y2="179.71"></line><line class="link backbone" x1="58.82" y1="161.56" x2="56.14" y2="177.99"></line><line class="link basepair" x1="57.04" y1="194.54" x2="42.45" y2="194.87"></line><line class="link backbone" x1="56.14" y1="177.99" x2="57.04" y2="194.54"></line><line class="link basepair" x1="56.75" y1="211.08" x2="42.18" y2="210.26"></line><line class="link backbone" x1="57.04" y1="194.54" x2="56.75" y2="211.08"></line><line class="link basepair" x1="55.23" y1="227.53" x2="40.78" y2="225.73"></line><line class="link backbone" x1="56.75" y1="211.08" x2="55.23" y2="227.53"></line><line class="link basepair" x1="53.04" y1="243.53" x2="38.25" y2="241.03"></line><line class="link backbone" x1="55.23" y1="227.53" x2="53.04" y2="243.53"></line><line class="link backbone" x1="53.04" y1="243.53" x2="65.90" y2="251.96"></line><line class="link backbone" x1="65.90" y1="251.96" x2="74.93" y2="263.94"></line><line class="link backbone" x1="74.93" y1="263.94" x2="79.09" y2="278.45"></line><line class="link backbone" x1="79.09" y1="278.45" x2="77.67" y2="293.39"></line><line class="link backbone" x1="77.67" y1="293.39" x2="71.00" y2="306.82"></line><line class="link label_link" x1="40.78" y1="225.73" x2="25.41" y2="223.32"></line><line class="link label_link" x1="53.19" y1="84.82" x2="38.01" y2="81.32"></line><line class="link label_link" x1="99.45" y1="-44.16" x2="87.02" y2="-53.46"></line><line class="link label_link" x1="100.86" y1="6.20" x2="116.26" y2="8.72"></line><line class="link label_link" x1="58.82" y1="161.56" x2="74.33" y2="163.00"></line><line class="link label_link" x1="71.00" y1="306.82" x2="84.60" y2="314.08"></line><line class="link fake transparent" x1="67.37" y1="79.05" x2="77.55" y2="75.48"></line><line class="link fake transparent" x1="67.37" y1="79.05" x2="87.14" y2="70.47"></line><line class="link fake transparent" x1="73.49" y1="65.40" x2="77.55" y2="75.48"></line><line class="link fake transparent" x1="87.14" y1="70.47" x2="77.55" y2="75.48"></line><line class="link fake transparent" x1="80.63" y1="85.94" x2="77.55" y2="75.48"></line><line class="link fake transparent" x1="73.49" y1="65.40" x2="83.06" y2="60.42"></line><line class="link fake transparent" x1="78.01" y1="50.77" x2="83.06" y2="60.42"></line><line class="link fake transparent" x1="92.13" y1="54.55" x2="83.06" y2="60.42"></line><line class="link fake transparent" x1="87.14" y1="70.47" x2="83.06" y2="60.42"></line><line class="link fake transparent" x1="78.01" y1="50.77" x2="87.08" y2="44.98"></line><line class="link fake transparent" x1="81.44" y1="35.65" x2="87.08" y2="44.98"></line><line class="link fake transparent" x1="95.74" y1="38.49" x2="87.08" y2="44.98"></line><line class="link fake transparent" x1="92.13" y1="54.55" x2="87.08" y2="44.98"></line><line class="link fake transparent" x1="81.44" y1="35.65" x2="90.10" y2="29.19"></line><line class="link fake transparent" x1="84.17" y1="20.05" x2="90.10" y2="29.19"></line><line class="link fake transparent" x1="98.51" y1="22.34" x2="90.10" y2="29.19"></line><line class="link fake transparent" x1="95.74" y1="38.49" x2="90.10" y2="29.19"></line><line class="link fake transparent" x1="84.17" y1="20.05" x2="92.56" y2="13.22"></line><line class="link fake transparent" x1="86.47" y1="4.23" x2="92.56" y2="13.22"></line><line class="link fake transparent" x1="100.86" y1="6.20" x2="92.56" y2="13.22"></line><line class="link fake transparent" x1="98.51" y1="22.34" x2="92.56" y2="13.22"></line><line class="link fake transparent" x1="86.47" y1="4.23" x2="94.74" y2="-2.79"></line><line class="link fake transparent" x1="88.27" y1="-11.43" x2="94.74" y2="-2.79"></line><line class="link fake transparent" x1="103.10" y1="-9.76" x2="94.74" y2="-2.79"></line><line class="link fake transparent" x1="100.86" y1="6.20" x2="94.74" y2="-2.79"></line><line class="link fake transparent" x1="99.45" y1="-44.16" x2="109.86" y2="-46.90"></line><line class="link fake transparent" x1="107.40" y1="-57.46" x2="109.86" y2="-46.90"></line><line class="link fake transparent" x1="120.22" y1="-49.97" x2="109.86" y2="-46.90"></line><line class="link fake transparent" x1="112.23" y1="-36.36" x2="109.86" y2="-46.90"></line><line class="link fake transparent" x1="38.25" y1="241.03" x2="46.99" y2="234.62"></line><line class="link fake transparent" x1="40.78" y1="225.73" x2="46.99" y2="234.62"></line><line class="link fake transparent" x1="55.23" y1="227.53" x2="46.99" y2="234.62"></line><line class="link fake transparent" x1="53.04" y1="243.53" x2="46.99" y2="234.62"></line><line class="link fake transparent" x1="40.78" y1="225.73" x2="49.03" y2="218.67"></line><line class="link fake transparent" x1="42.18" y1="210.26" x2="49.03" y2="218.67"></line><line class="link fake transparent" x1="56.75" y1="211.08" x2="49.03" y2="218.67"></line><line class="link fake transparent" x1="55.23" y1="227.53" x2="49.03" y2="218.67"></line><line class="link fake transparent" x1="42.18" y1="210.26" x2="49.93" y2="202.66"></line><line class="link fake transparent" x1="42.45" y1="194.87" x2="49.93" y2="202.66"></line><line class="link fake transparent" x1="57.04" y1="194.54" x2="49.93" y2="202.66"></line><line class="link fake transparent" x1="56.75" y1="211.08" x2="49.93" y2="202.66"></line><line class="link fake transparent" x1="42.45" y1="194.87" x2="49.56" y2="186.72"></line><line class="link fake transparent" x1="41.37" y1="179.71" x2="49.56" y2="186.72"></line><line class="link fake transparent" x1="56.14" y1="177.99" x2="49.56" y2="186.72"></line><line class="link fake transparent" x1="57.04" y1="194.54" x2="49.56" y2="186.72"></line><line class="link fake transparent" x1="45.32" y1="155.26" x2="55.32" y2="151.22"></line><line class="link fake transparent" x1="51.09" y1="141.31" x2="55.32" y2="151.22"></line><line class="link fake transparent" x1="64.84" y1="146.06" x2="55.32" y2="151.22"></line><line class="link fake transparent" x1="58.82" y1="161.56" x2="55.32" y2="151.22"></line><line class="link fake transparent" x1="51.09" y1="141.31" x2="60.59" y2="136.06"></line><line class="link fake transparent" x1="55.37" y1="126.61" x2="60.59" y2="136.06"></line><line class="link fake transparent" x1="69.51" y1="129.85" x2="60.59" y2="136.06"></line><line class="link fake transparent" x1="64.84" y1="146.06" x2="60.59" y2="136.06"></line><line class="link fake transparent" x1="55.37" y1="126.61" x2="64.25" y2="120.37"></line><line class="link fake transparent" x1="57.69" y1="111.80" x2="64.25" y2="120.37"></line><line class="link fake transparent" x1="72.56" y1="113.24" x2="64.25" y2="120.37"></line><line class="link fake transparent" x1="69.51" y1="129.85" x2="64.25" y2="120.37"></line><line class="link fake transparent" x1="30.85" y1="322.30" x2="38.22" y2="282.00"></line><line class="link fake transparent" x1="30.85" y1="322.30" x2="38.25" y2="241.03"></line><line class="link fake transparent" x1="16.81" y1="317.00" x2="38.22" y2="282.00"></line><line class="link fake transparent" x1="16.81" y1="317.00" x2="53.04" y2="243.53"></line><line class="link fake transparent" x1="5.58" y1="307.09" x2="38.22" y2="282.00"></line><line class="link fake transparent" x1="5.58" y1="307.09" x2="65.90" y2="251.96"></line><line class="link fake transparent" x1="-1.20" y1="293.72" x2="38.22" y2="282.00"></line><line class="link fake transparent" x1="-1.20" y1="293.72" x2="74.93" y2="263.94"></line><line class="link fake transparent" x1="-2.74" y1="278.83" x2="38.22" y2="282.00"></line><line class="link fake transparent" x1="-2.74" y1="278.83" x2="79.09" y2="278.45"></line><line class="link fake transparent" x1="1.19" y1="264.34" x2="38.22" y2="282.00"></line><line class="link fake transparent" x1="1.19" y1="264.34" x2="77.67" y2="293.39"></line><line class="link fake transparent" x1="10.31" y1="252.20" x2="38.22" y2="282.00"></line><line class="link fake transparent" x1="10.31" y1="252.20" x2="71.00" y2="306.82"></line><line class="link fake transparent" x1="23.22" y1="244.41" x2="38.22" y2="282.00"></line><line class="link fake transparent" x1="23.22" y1="244.41" x2="60.49" y2="317.39"></line><line class="link fake transparent" x1="38.25" y1="241.03" x2="38.22" y2="282.00"></line><line class="link fake transparent" x1="38.25" y1="241.03" x2="46.07" y2="322.58"></line><line class="link fake transparent" x1="53.04" y1="243.53" x2="38.22" y2="282.00"></line><line class="link fake transparent" x1="53.04" y1="243.53" x2="30.85" y2="322.30"></line><line class="link fake transparent" x1="65.90" y1="251.96" x2="38.22" y2="282.00"></line><line class="link fake transparent" x1="65.90" y1="251.96" x2="16.81" y2="317.00"></line><line class="link fake transparent" x1="74.93" y1="263.94" x2="38.22" y2="282.00"></line><line class="link fake transparent" x1="74.93" y1="263.94" x2="5.58" y2="307.09"></line><line class="link fake transparent" x1="79.09" y1="278.45" x2="38.22" y2="282.00"></line><line class="link fake transparent" x1="79.09" y1="278.45" x2="-1.20" y2="293.72"></line><line class="link fake transparent" x1="77.67" y1="293.39" x2="38.22" y2="282.00"></line><line class="link fake transparent" x1="77.67" y1="293.39" x2="-2.74" y2="278.83"></line><line class="link fake transparent" x1="71.00" y1="306.82" x2="38.22" y2="282.00"></line><line class="link fake transparent" x1="71.00" y1="306.82" x2="1.19" y2="264.34"></line><line class="link fake transparent" x1="107.40" y1="-57.46" x2="120.40" y2="-65.11"></line><line class="link fake transparent" x1="107.40" y1="-57.46" x2="133.43" y2="-72.73"></line><line class="link fake transparent" x1="107.45" y1="-72.83" x2="120.40" y2="-65.11"></line><line class="link fake transparent" x1="107.45" y1="-72.83" x2="133.53" y2="-57.75"></line><line class="link fake transparent" x1="120.45" y1="-80.21" x2="120.40" y2="-65.11"></line><line class="link fake transparent" x1="120.45" y1="-80.21" x2="120.22" y2="-49.97"></line><line class="link fake transparent" x1="133.43" y1="-72.73" x2="120.40" y2="-65.11"></line><line class="link fake transparent" x1="133.43" y1="-72.73" x2="107.40" y2="-57.46"></line><line class="link fake transparent" x1="133.53" y1="-57.75" x2="120.40" y2="-65.11"></line><line class="link fake transparent" x1="133.53" y1="-57.75" x2="107.45" y2="-72.83"></line><line class="link fake transparent" x1="120.22" y1="-49.97" x2="120.40" y2="-65.11"></line><line class="link fake transparent" x1="120.22" y1="-49.97" x2="120.45" y2="-80.21"></line><line class="link fake transparent" x1="88.27" y1="-11.43" x2="97.54" y2="-26.54"></line><line class="link fake transparent" x1="88.27" y1="-11.43" x2="99.45" y2="-44.16"></line><line class="link fake transparent" x1="80.03" y1="-24.57" x2="97.54" y2="-26.54"></line><line class="link fake transparent" x1="80.03" y1="-24.57" x2="112.23" y2="-36.36"></line><line class="link fake transparent" x1="84.93" y1="-38.86" x2="97.54" y2="-26.54"></line><line class="link fake transparent" x1="84.93" y1="-38.86" x2="114.02" y2="-20.95"></line><line class="link fake transparent" x1="99.45" y1="-44.16" x2="97.54" y2="-26.54"></line><line class="link fake transparent" x1="99.45" y1="-44.16" x2="103.10" y2="-9.76"></line><line class="link fake transparent" x1="112.23" y1="-36.36" x2="97.54" y2="-26.54"></line><line class="link fake transparent" x1="112.23" y1="-36.36" x2="88.27" y2="-11.43"></line><line class="link fake transparent" x1="114.02" y1="-20.95" x2="97.54" y2="-26.54"></line><line class="link fake transparent" x1="114.02" y1="-20.95" x2="80.03" y2="-24.57"></line><line class="link fake transparent" x1="103.10" y1="-9.76" x2="97.54" y2="-26.54"></line><line class="link fake transparent" x1="103.10" y1="-9.76" x2="84.93" y2="-38.86"></line><line class="link fake transparent" x1="41.37" y1="179.71" x2="47.51" y2="168.15"></line><line class="link fake transparent" x1="41.37" y1="179.71" x2="45.32" y2="155.26"></line><line class="link fake transparent" x1="34.33" y1="165.99" x2="47.51" y2="168.15"></line><line class="link fake transparent" x1="34.33" y1="165.99" x2="58.82" y2="161.56"></line><line class="link fake transparent" x1="45.32" y1="155.26" x2="47.51" y2="168.15"></line><line class="link fake transparent" x1="45.32" y1="155.26" x2="56.14" y2="177.99"></line><line class="link fake transparent" x1="58.82" y1="161.56" x2="47.51" y2="168.15"></line><line class="link fake transparent" x1="58.82" y1="161.56" x2="41.37" y2="179.71"></line><line class="link fake transparent" x1="56.14" y1="177.99" x2="47.51" y2="168.15"></line><line class="link fake transparent" x1="56.14" y1="177.99" x2="34.33" y2="165.99"></line><line class="link fake transparent" x1="57.69" y1="111.80" x2="66.48" y2="96.58"></line><line class="link fake transparent" x1="57.69" y1="111.80" x2="67.37" y2="79.05"></line><line class="link fake transparent" x1="48.95" y1="99.24" x2="66.48" y2="96.58"></line><line class="link fake transparent" x1="48.95" y1="99.24" x2="80.63" y2="85.94"></line><line class="link fake transparent" x1="53.19" y1="84.82" x2="66.48" y2="96.58"></line><line class="link fake transparent" x1="53.19" y1="84.82" x2="83.09" y2="101.48"></line><line class="link fake transparent" x1="67.37" y1="79.05" x2="66.48" y2="96.58"></line><line class="link fake transparent" x1="67.37" y1="79.05" x2="72.56" y2="113.24"></line><line class="link fake transparent" x1="80.63" y1="85.94" x2="66.48" y2="96.58"></line><line class="link fake transparent" x1="80.63" y1="85.94" x2="57.69" y2="111.80"></line><line class="link fake transparent" x1="83.09" y1="101.48" x2="66.48" y2="96.58"></line><line class="link fake transparent" x1="83.09" y1="101.48" x2="48.95" y2="99.24"></line><line class="link fake transparent" x1="72.56" y1="113.24" x2="66.48" y2="96.58"></line><line class="link fake transparent" x1="72.56" y1="113.24" x2="53.19" y2="84.82"></line></g><g><g class="noselect gnode" struct_name="m" transform="translate(30.85,322.30)" r="6.5"><circle class="node" r="6" node_type="nucleotide" style="fill: lightsalmon;"></circle><text text-anchor="middle" font-size="8" font-weight="bold" y="2.5" class="node-label">A</text></g><g class="noselect gnode" struct_name="m" transform="translate(16.81,317.00)" r="6.5"><circle class="node" r="6" node_type="nucleotide" style="fill: lightsalmon;"></circle><text text-anchor="middle" font-size="8" font-weight="bold" y="2.5" class="node-label">A</text></g><g class="noselect gnode" struct_name="m" transform="translate(5.58,307.09)" r="6.5"><circle class="node" r="6" node_type="nucleotide" style="fill: lightsalmon;"></circle><text text-anchor="middle" font-size="8" font-weight="bold" y="2.5" class="node-label">A</text></g><g class="noselect gnode" struct_name="m" transform="translate(-1.20,293.72)" r="6.5"><circle class="node" r="6" node_type="nucleotide" style="fill: lightsalmon;"></circle><text text-anchor="middle" font-size="8" font-weight="bold" y="2.5" class="node-label">G</text></g><g class="noselect gnode" struct_name="m" transform="translate(-2.74,278.83)" r="6.5"><circle class="node" r="6" node_type="nucleotide" style="fill: lightsalmon;"></circle><text text-anchor="middle" font-size="8" font-weight="bold" y="2.5" class="node-label">A</text></g><g class="noselect gnode" struct_name="m" transform="translate(1.19,264.34)" r="6.5"><circle class="node" r="6" node_type="nucleotide" style="fill: lightsalmon;"></circle><text text-anchor="middle" font-size="8" font-weight="bold" y="2.5" class="node-label">U</text></g><g class="noselect gnode" struct_name="m" transform="translate(10.31,252.20)" r="6.5"><circle class="node" r="6" node_type="nucleotide" style="fill: lightsalmon;"></circle><text text-anchor="middle" font-size="8" font-weight="bold" y="2.5" class="node-label">C</text></g><g class="noselect gnode" struct_name="m" transform="translate(23.22,244.41)" r="6.5"><circle class="node" r="6" node_type="nucleotide" style="fill: lightsalmon;"></circle><text text-anchor="middle" font-size="8" font-weight="bold" y="2.5" class="node-label">C</text></g><g class="noselect gnode" struct_name="m" transform="translate(38.25,241.03)" r="6.5"><circle class="node" r="6" node_type="nucleotide" style="fill: lightgreen;"></circle><text text-anchor="middle" font-size="8" font-weight="bold" y="2.5" class="node-label">G</text></g><g class="noselect gnode" struct_name="m" transform="translate(40.78,225.73)" r="6.5"><circle class="node" r="6" node_type="nucleotide" style="fill: lightgreen;"></circle><text text-anchor="middle" font-size="8" font-weight="bold" y="2.5" class="node-label">C</text></g><g class="noselect gnode" struct_name="m" transform="translate(42.18,210.26)" r="6.5"><circle class="node" r="6" node_type="nucleotide" style="fill: lightgreen;"></circle><text text-anchor="middle" font-size="8" font-weight="bold" y="2.5" class="node-label">U</text></g><g class="noselect gnode" struct_name="m" transform="translate(42.45,194.87)" r="6.5"><circle class="node" r="6" node_type="nucleotide" style="fill: lightgreen;"></circle><text text-anchor="middle" font-size="8" font-weight="bold" y="2.5" class="node-label">C</text></g><g class="noselect gnode" struct_name="m" transform="translate(41.37,179.71)" r="6.5"><circle class="node" r="6" node_type="nucleotide" style="fill: lightgreen;"></circle><text text-anchor="middle" font-size="8" font-weight="bold" y="2.5" class="node-label">A</text></g><g class="noselect gnode" struct_name="m" transform="translate(34.33,165.99)" r="6.5"><circle class="node" r="6" node_type="nucleotide" style="fill: rgb(219, 219, 141);"></circle><text text-anchor="middle" font-size="8" font-weight="bold" y="2.5" class="node-label">A</text></g><g class="noselect gnode" struct_name="m" transform="translate(45.32,155.26)" r="6.5"><circle class="node" r="6" node_type="nucleotide" style="fill: lightgreen;"></circle><text text-anchor="middle" font-size="8" font-weight="bold" y="2.5" class="node-label">C</text></g><g class="noselect gnode" struct_name="m" transform="translate(51.09,141.31)" r="6.5"><circle class="node" r="6" node_type="nucleotide" style="fill: lightgreen;"></circle><text text-anchor="middle" font-size="8" font-weight="bold" y="2.5" class="node-label">A</text></g><g class="noselect gnode" struct_name="m" transform="translate(55.37,126.61)" r="6.5"><circle class="node" r="6" node_type="nucleotide" style="fill: lightgreen;"></circle><text text-anchor="middle" font-size="8" font-weight="bold" y="2.5" class="node-label">U</text></g><g class="noselect gnode" struct_name="m" transform="translate(57.69,111.80)" r="6.5"><circle class="node" r="6" node_type="nucleotide" style="fill: lightgreen;"></circle><text text-anchor="middle" font-size="8" font-weight="bold" y="2.5" class="node-label">G</text></g><g class="noselect gnode" struct_name="m" transform="translate(48.95,99.24)" r="6.5"><circle class="node" r="6" node_type="nucleotide" style="fill: rgb(219, 219, 141);"></circle><text text-anchor="middle" font-size="8" font-weight="bold" y="2.5" class="node-label">G</text></g><g class="noselect gnode" struct_name="m" transform="translate(53.19,84.82)" r="6.5"><circle class="node" r="6" node_type="nucleotide" style="fill: rgb(219, 219, 141);"></circle><text text-anchor="middle" font-size="8" font-weight="bold" y="2.5" class="node-label">A</text></g><g class="noselect gnode" struct_name="m" transform="translate(67.37,79.05)" r="6.5"><circle class="node" r="6" node_type="nucleotide" style="fill: lightgreen;"></circle><text text-anchor="middle" font-size="8" font-weight="bold" y="2.5" class="node-label">C</text></g><g class="noselect gnode" struct_name="m" transform="translate(73.49,65.40)" r="6.5"><circle class="node" r="6" node_type="nucleotide" style="fill: lightgreen;"></circle><text text-anchor="middle" font-size="8" font-weight="bold" y="2.5" class="node-label">U</text></g><g class="noselect gnode" struct_name="m" transform="translate(78.01,50.77)" r="6.5"><circle class="node" r="6" node_type="nucleotide" style="fill: lightgreen;"></circle><text text-anchor="middle" font-size="8" font-weight="bold" y="2.5" class="node-label">U</text></g><g class="noselect gnode" struct_name="m" transform="translate(81.44,35.65)" r="6.5"><circle class="node" r="6" node_type="nucleotide" style="fill: lightgreen;"></circle><text text-anchor="middle" font-size="8" font-weight="bold" y="2.5" class="node-label">C</text></g><g class="noselect gnode" struct_name="m" transform="translate(84.17,20.05)" r="6.5"><circle class="node" r="6" node_type="nucleotide" style="fill: lightgreen;"></circle><text text-anchor="middle" font-size="8" font-weight="bold" y="2.5" class="node-label">U</text></g><g class="noselect gnode" struct_name="m" transform="translate(86.47,4.23)" r="6.5"><circle class="node" r="6" node_type="nucleotide" style="fill: lightgreen;"></circle><text text-anchor="middle" font-size="8" font-weight="bold" y="2.5" class="node-label">U</text></g><g class="noselect gnode" struct_name="m" transform="translate(88.27,-11.43)" r="6.5"><circle class="node" r="6" node_type="nucleotide" style="fill: lightgreen;"></circle><text text-anchor="middle" font-size="8" font-weight="bold" y="2.5" class="node-label">C</text></g><g class="noselect gnode" struct_name="m" transform="translate(80.03,-24.57)" r="6.5"><circle class="node" r="6" node_type="nucleotide" style="fill: rgb(219, 219, 141);"></circle><text text-anchor="middle" font-size="8" font-weight="bold" y="2.5" class="node-label">A</text></g><g class="noselect gnode" struct_name="m" transform="translate(84.93,-38.86)" r="6.5"><circle class="node" r="6" node_type="nucleotide" style="fill: rgb(219, 219, 141);"></circle><text text-anchor="middle" font-size="8" font-weight="bold" y="2.5" class="node-label">A</text></g><g class="noselect gnode" struct_name="m" transform="translate(99.45,-44.16)" r="6.5"><circle class="node" r="6" node_type="nucleotide" style="fill: lightgreen;"></circle><text text-anchor="middle" font-size="8" font-weight="bold" y="2.5" class="node-label">C</text></g><g class="noselect gnode" struct_name="m" transform="translate(107.40,-57.46)" r="6.5"><circle class="node" r="6" node_type="nucleotide" style="fill: lightgreen;"></circle><text text-anchor="middle" font-size="8" font-weight="bold" y="2.5" class="node-label">U</text></g><g class="noselect gnode" struct_name="m" transform="translate(107.45,-72.83)" r="6.5"><circle class="node" r="6" node_type="nucleotide" style="fill: lightblue;"></circle><text text-anchor="middle" font-size="8" font-weight="bold" y="2.5" class="node-label">A</text></g><g class="noselect gnode" struct_name="m" transform="translate(120.45,-80.21)" r="6.5"><circle class="node" r="6" node_type="nucleotide" style="fill: lightblue;"></circle><text text-anchor="middle" font-size="8" font-weight="bold" y="2.5" class="node-label">U</text></g><g class="noselect gnode" struct_name="m" transform="translate(133.43,-72.73)" r="6.5"><circle class="node" r="6" node_type="nucleotide" style="fill: lightblue;"></circle><text text-anchor="middle" font-size="8" font-weight="bold" y="2.5" class="node-label">C</text></g><g class="noselect gnode" struct_name="m" transform="translate(133.53,-57.75)" r="6.5"><circle class="node" r="6" node_type="nucleotide" style="fill: lightblue;"></circle><text text-anchor="middle" font-size="8" font-weight="bold" y="2.5" class="node-label">C</text></g><g class="noselect gnode" struct_name="m" transform="translate(120.22,-49.97)" r="6.5"><circle class="node" r="6" node_type="nucleotide" style="fill: lightgreen;"></circle><text text-anchor="middle" font-size="8" font-weight="bold" y="2.5" class="node-label">G</text></g><g class="noselect gnode" struct_name="m" transform="translate(112.23,-36.36)" r="6.5"><circle class="node" r="6" node_type="nucleotide" style="fill: lightgreen;"></circle><text text-anchor="middle" font-size="8" font-weight="bold" y="2.5" class="node-label">G</text></g><g class="noselect gnode" struct_name="m" transform="translate(114.02,-20.95)" r="6.5"><circle class="node" r="6" node_type="nucleotide" style="fill: rgb(219, 219, 141);"></circle><text text-anchor="middle" font-size="8" font-weight="bold" y="2.5" class="node-label">G</text></g><g class="noselect gnode" struct_name="m" transform="translate(103.10,-9.76)" r="6.5"><circle class="node" r="6" node_type="nucleotide" style="fill: lightgreen;"></circle><text text-anchor="middle" font-size="8" font-weight="bold" y="2.5" class="node-label">G</text></g><g class="noselect gnode" struct_name="m" transform="translate(100.86,6.20)" r="6.5"><circle class="node" r="6" node_type="nucleotide" style="fill: lightgreen;"></circle><text text-anchor="middle" font-size="8" font-weight="bold" y="2.5" class="node-label">A</text></g><g class="noselect gnode" struct_name="m" transform="translate(98.51,22.34)" r="6.5"><circle class="node" r="6" node_type="nucleotide" style="fill: lightgreen;"></circle><text text-anchor="middle" font-size="8" font-weight="bold" y="2.5" class="node-label">A</text></g><g class="noselect gnode" struct_name="m" transform="translate(95.74,38.49)" r="6.5"><circle class="node" r="6" node_type="nucleotide" style="fill: lightgreen;"></circle><text text-anchor="middle" font-size="8" font-weight="bold" y="2.5" class="node-label">G</text></g><g class="noselect gnode" struct_name="m" transform="translate(92.13,54.55)" r="6.5"><circle class="node" r="6" node_type="nucleotide" style="fill: lightgreen;"></circle><text text-anchor="middle" font-size="8" font-weight="bold" y="2.5" class="node-label">A</text></g><g class="noselect gnode" struct_name="m" transform="translate(87.14,70.47)" r="6.5"><circle class="node" r="6" node_type="nucleotide" style="fill: lightgreen;"></circle><text text-anchor="middle" font-size="8" font-weight="bold" y="2.5" class="node-label">A</text></g><g class="noselect gnode" struct_name="m" transform="translate(80.63,85.94)" r="6.5"><circle class="node" r="6" node_type="nucleotide" style="fill: lightgreen;"></circle><text text-anchor="middle" font-size="8" font-weight="bold" y="2.5" class="node-label">G</text></g><g class="noselect gnode" struct_name="m" transform="translate(83.09,101.48)" r="6.5"><circle class="node" r="6" node_type="nucleotide" style="fill: rgb(219, 219, 141);"></circle><text text-anchor="middle" font-size="8" font-weight="bold" y="2.5" class="node-label">G</text></g><g class="noselect gnode" struct_name="m" transform="translate(72.56,113.24)" r="6.5"><circle class="node" r="6" node_type="nucleotide" style="fill: lightgreen;"></circle><text text-anchor="middle" font-size="8" font-weight="bold" y="2.5" class="node-label">C</text></g><g class="noselect gnode" struct_name="m" transform="translate(69.51,129.85)" r="6.5"><circle class="node" r="6" node_type="nucleotide" style="fill: lightgreen;"></circle><text text-anchor="middle" font-size="8" font-weight="bold" y="2.5" class="node-label">A</text></g><g class="noselect gnode" struct_name="m" transform="translate(64.84,146.06)" r="6.5"><circle class="node" r="6" node_type="nucleotide" style="fill: lightgreen;"></circle><text text-anchor="middle" font-size="8" font-weight="bold" y="2.5" class="node-label">U</text></g><g class="noselect gnode" struct_name="m" transform="translate(58.82,161.56)" r="6.5"><circle class="node" r="6" node_type="nucleotide" style="fill: lightgreen;"></circle><text text-anchor="middle" font-size="8" font-weight="bold" y="2.5" class="node-label">G</text></g><g class="noselect gnode" struct_name="m" transform="translate(56.14,177.99)" r="6.5"><circle class="node" r="6" node_type="nucleotide" style="fill: lightgreen;"></circle><text text-anchor="middle" font-size="8" font-weight="bold" y="2.5" class="node-label">U</text></g><g class="noselect gnode" struct_name="m" transform="translate(57.04,194.54)" r="6.5"><circle class="node" r="6" node_type="nucleotide" style="fill: lightgreen;"></circle><text text-anchor="middle" font-size="8" font-weight="bold" y="2.5" class="node-label">G</text></g><g class="noselect gnode" struct_name="m" transform="translate(56.75,211.08)" r="6.5"><circle class="node" r="6" node_type="nucleotide" style="fill: lightgreen;"></circle><text text-anchor="middle" font-size="8" font-weight="bold" y="2.5" class="node-label">G</text></g><g class="noselect gnode" struct_name="m" transform="translate(55.23,227.53)" r="6.5"><circle class="node" r="6" node_type="nucleotide" style="fill: lightgreen;"></circle><text text-anchor="middle" font-size="8" font-weight="bold" y="2.5" class="node-label">G</text></g><g class="noselect gnode" struct_name="m" transform="translate(53.04,243.53)" r="6.5"><circle class="node" r="6" node_type="nucleotide" style="fill: lightgreen;"></circle><text text-anchor="middle" font-size="8" font-weight="bold" y="2.5" class="node-label">C</text></g><g class="noselect gnode" struct_name="m" transform="translate(65.90,251.96)" r="6.5"><circle class="node" r="6" node_type="nucleotide" style="fill: lightsalmon;"></circle><text text-anchor="middle" font-size="8" font-weight="bold" y="2.5" class="node-label">A</text></g><g class="noselect gnode" struct_name="m" transform="translate(74.93,263.94)" r="6.5"><circle class="node" r="6" node_type="nucleotide" style="fill: lightsalmon;"></circle><text text-anchor="middle" font-size="8" font-weight="bold" y="2.5" class="node-label">C</text></g><g class="noselect gnode" struct_name="m" transform="translate(79.09,278.45)" r="6.5"><circle class="node" r="6" node_type="nucleotide" style="fill: lightsalmon;"></circle><text text-anchor="middle" font-size="8" font-weight="bold" y="2.5" class="node-label">G</text></g><g class="noselect gnode" struct_name="m" transform="translate(77.67,293.39)" r="6.5"><circle class="node" r="6" node_type="nucleotide" style="fill: lightsalmon;"></circle><text text-anchor="middle" font-size="8" font-weight="bold" y="2.5" class="node-label">A</text></g><g class="noselect gnode" struct_name="m" transform="translate(71.00,306.82)" r="6.5"><circle class="node" r="6" node_type="nucleotide" style="fill: lightsalmon;"></circle><text text-anchor="middle" font-size="8" font-weight="bold" y="2.5" class="node-label">U</text></g><g class="noselect gnode" struct_name="m" transform="translate(25.41,223.32)" r="6.5"><circle class="node label" r="6" node_type="label"></circle><text text-anchor="middle" font-size="8" font-weight="bold" y="2.5" class="node-label">10</text></g><g class="noselect gnode" struct_name="m" transform="translate(38.01,81.32)" r="6.5"><circle class="node label" r="6" node_type="label"></circle><text text-anchor="middle" font-size="8" font-weight="bold" y="2.5" class="node-label">20</text></g><g class="noselect gnode" struct_name="m" transform="translate(87.02,-53.46)" r="6.5"><circle class="node label" r="6" node_type="label"></circle><text text-anchor="middle" font-size="8" font-weight="bold" y="2.5" class="node-label">30</text></g><g class="noselect gnode" struct_name="m" transform="translate(116.26,8.72)" r="6.5"><circle class="node label" r="6" node_type="label"></circle><text text-anchor="middle" font-size="8" font-weight="bold" y="2.5" class="node-label">40</text></g><g class="noselect gnode" struct_name="m" transform="translate(74.33,163.00)" r="6.5"><circle class="node label" r="6" node_type="label"></circle><text text-anchor="middle" font-size="8" font-weight="bold" y="2.5" class="node-label">50</text></g><g class="noselect gnode" struct_name="m" transform="translate(84.60,314.08)" r="6.5"><circle class="node label" r="6" node_type="label"></circle><text text-anchor="middle" font-size="8" font-weight="bold" y="2.5" class="node-label">60</text></g><g class="noselect gnode" transform="translate(77.55,75.48)" r="6.5"><circle class="node" r="0" node_type="middle"></circle><text text-anchor="middle" font-size="8" font-weight="bold" y="2.5" class="node-label"></text></g><g class="noselect gnode" transform="translate(83.06,60.42)" r="6.5"><circle class="node" r="0" node_type="middle"></circle><text text-anchor="middle" font-size="8" font-weight="bold" y="2.5" class="node-label"></text></g><g class="noselect gnode" transform="translate(87.08,44.98)" r="6.5"><circle class="node" r="0" node_type="middle"></circle><text text-anchor="middle" font-size="8" font-weight="bold" y="2.5" class="node-label"></text></g><g class="noselect gnode" transform="translate(90.10,29.19)" r="6.5"><circle class="node" r="0" node_type="middle"></circle><text text-anchor="middle" font-size="8" font-weight="bold" y="2.5" class="node-label"></text></g><g class="noselect gnode" transform="translate(92.56,13.22)" r="6.5"><circle class="node" r="0" node_type="middle"></circle><text text-anchor="middle" font-size="8" font-weight="bold" y="2.5" class="node-label"></text></g><g class="noselect gnode" transform="translate(94.74,-2.79)" r="6.5"><circle class="node" r="0" node_type="middle"></circle><text text-anchor="middle" font-size="8" font-weight="bold" y="2.5" class="node-label"></text></g><g class="noselect gnode" transform="translate(109.86,-46.90)" r="6.5"><circle class="node" r="0" node_type="middle"></circle><text text-anchor="middle" font-size="8" font-weight="bold" y="2.5" class="node-label"></text></g><g class="noselect gnode" transform="translate(46.99,234.62)" r="6.5"><circle class="node" r="0" node_type="middle"></circle><text text-anchor="middle" font-size="8" font-weight="bold" y="2.5" class="node-label"></text></g><g class="noselect gnode" transform="translate(49.03,218.67)" r="6.5"><circle class="node" r="0" node_type="middle"></circle><text text-anchor="middle" font-size="8" font-weight="bold" y="2.5" class="node-label"></text></g><g class="noselect gnode" transform="translate(49.93,202.66)" r="6.5"><circle class="node" r="0" node_type="middle"></circle><text text-anchor="middle" font-size="8" font-weight="bold" y="2.5" class="node-label"></text></g><g class="noselect gnode" transform="translate(49.56,186.72)" r="6.5"><circle class="node" r="0" node_type="middle"></circle><text text-anchor="middle" font-size="8" font-weight="bold" y="2.5" class="node-label"></text></g><g class="noselect gnode" transform="translate(55.32,151.22)" r="6.5"><circle class="node" r="0" node_type="middle"></circle><text text-anchor="middle" font-size="8" font-weight="bold" y="2.5" class="node-label"></text></g><g class="noselect gnode" transform="translate(60.59,136.06)" r="6.5"><circle class="node" r="0" node_type="middle"></circle><text text-anchor="middle" font-size="8" font-weight="bold" y="2.5" class="node-label"></text></g><g class="noselect gnode" transform="translate(64.25,120.37)" r="6.5"><circle class="node" r="0" node_type="middle"></circle><text text-anchor="middle" font-size="8" font-weight="bold" y="2.5" class="node-label"></text></g><g class="noselect gnode" transform="translate(60.49,317.39)" r="6.5"><circle class="node" r="0" node_type="middle"></circle><text text-anchor="middle" font-size="8" font-weight="bold" y="2.5" class="node-label"></text></g><g class="noselect gnode" transform="translate(46.07,322.58)" r="6.5"><circle class="node" r="0" node_type="middle"></circle><text text-anchor="middle" font-size="8" font-weight="bold" y="2.5" class="node-label"></text></g><g class="noselect gnode" transform="translate(38.22,282.00)" r="6.5"><circle class="node" r="0" node_type="middle"></circle><text text-anchor="middle" font-size="8" font-weight="bold" y="2.5" class="node-label"></text></g><g class="noselect gnode" transform="translate(120.40,-65.11)" r="6.5"><circle class="node" r="0" node_type="middle"></circle><text text-anchor="middle" font-size="8" font-weight="bold" y="2.5" class="node-label"></text></g><g class="noselect gnode" transform="translate(97.54,-26.54)" r="6.5"><circle class="node" r="0" node_type="middle"></circle><text text-anchor="middle" font-size="8" font-weight="bold" y="2.5" class="node-label"></text></g><g class="noselect gnode" transform="translate(47.51,168.15)" r="6.5"><circle class="node" r="0" node_type="middle"></circle><text text-anchor="middle" font-size="8" font-weight="bold" y="2.5" class="node-label"></text></g><g class="noselect gnode" transform="translate(66.48,96.58)" r="6.5"><circle class="node" r="0" node_type="middle"></circle><text text-anchor="middle" font-size="8" font-weight="bold" y="2.5" class="node-label"></text></g></g><line class="drag_line" x1="0" y1="0" x2="0" y2="0"></line></g></g></svg>