<svg xmlns="http://www.w3.org/2000/svg" viewBox="0 0 760 640" width="760" height="640"><style>svg {
  display: block;
  min-width: 100%;
  width: 100%;
  min-height: 100%;
}

circle.node {
  stroke: #ccc;
  stroke-width: 1px;
  opacity: 1;
  fill: white;
}

circle.node.label {
    stroke: transparent;
    stroke-width: 0;
    fill: white;
}

circle.outline_node {
    stroke-width: 1px;
    fill: red;
}

circle.protein {
    fill: gray;
    fill-opacity: 0.5;
    stroke-width: 4;
}

circle.hidden_outline {
    stroke-width: 0px;
}


line.link {
  stroke: #999;
  stroke-opacity: 0.8;
  stroke-width: 2;
}

line.basepair {
  stroke: red;
}

line.intermolecule {
  stroke: blue;
}

line.chain_chain {
  stroke-dasharray: 3,3;
}

line.fake {
  stroke: green;
}

.transparent {
    fill: transparent;
    stroke-width: 0;
    stroke-opacity: 0;
    opacity: 0;
    visibility: hidden;
}

.drag_line {
  stroke: #999;
  stroke-width: 2;
  pointer-events: none;
}

.drag_line_hidden {
  stroke: #999;
  stroke-width: 0;
  pointer-events: none;
}

.d3-tip {
    line-height: 1;
    font-weight: bold;
    padding: 6px;
    background: rgba(0, 0, 0, 0.6);
    color: #fff;
    border-radius: 4px;
    pointer-events: none;
          }

text.node-label {
    font-weight: bold;
    font-family: Tahoma, Geneva, sans-serif;
    color: rgb(100,100,100);
    pointer-events: none;
}

text {
    pointer-events: none;
}

g.gnode {

}

circle.outline_node.selected {
    visibility: visible;
}

circle.outline_node {
    visibility: hidden;
}

.brush .extent {
  fill-opacity: .1;
  stroke: #fff;
  shape-rendering: crispEdges;
}

.noselect {
    -webkit-touch-callout: none;
    -webkit-user-select: none;
    -khtml-user-select: none;
    -moz-user-select: none;
    -ms-user-select: none;
    user-select: none;
}

svg {
  display: block;
  min-width: 100%;
  width: 100%;
  min-height: 100%;
}

circle.node {
  stroke: #ccc;
  stroke-width: 1px;
  opacity: 1;
  fill: white;
}

circle.node.label {
    stroke: transparent;
    stroke-width: 0;
    fill: white;
}

circle.outline_node {
    stroke-width: 1px;
    fill: red;
}

circle.protein {
    fill: gray;
    fill-opacity: 0.5;
    stroke-width: 4;
}

circle.hidden_outline {
    stroke-width: 0px;
}


line.link {
  stroke: #999;
  stroke-opacity: 0.8;
  stroke-width: 2;
}

line.basepair {
  stroke: red;
}

line.intermolecule {
  stroke: blue;
}

line.chain_chain {
  stroke-dasharray: 3,3;
}

line.fake {
  stroke: green;
}

.transparent {
    fill: transparent;
    stroke-width: 0;
    stroke-opacity: 0;
    opacity: 0;
    visibility: hidden;
}

.drag_line {
  stroke: #999;
  stroke-width: 2;
  pointer-events: none;
}

.drag_line_hidden {
  stroke: #999;
  stroke-width: 0;
  pointer-events: none;
}

.d3-tip {
    line-height: 1;
    font-weight: bold;
    padding: 6px;
    background: rgba(0, 0, 0, 0.6);
    color: #fff;
    border-radius: 4px;
    pointer-events: none;
          }

text.node-label {
    font-weight: bold;
    font-family: Tahoma, Geneva, sans-serif;
    color: rgb(100,100,100);
    pointer-events: none;
}

text {
    pointer-events: none;
}

g.gnode {

}

circle.outline_node.selected {
    visibility: visible;
}

circle.outline_node {
    visibility: hidden;
}

.brush .extent {
  fill-opacity: .1;
  stroke: #fff;
  shape-rendering: crispEdges;
}

.noselect {
    -webkit-touch-callout: none;
    -webkit-user-select: none;
    -khtml-user-select: none;
    -moz-user-select: none;
    -ms-user-select: none;
    user-select: none;
}
/*# sourceURL=/Users/yumanakamura/ipy_sandbox/sandbox/claude_sandbox/mrna-transformer/scripts/eval/prerender/forna_vendor/fornac.css*/</style><style></style><g><g class="brush" style="pointer-events: all; -webkit-tap-highlight-color: rgba(0, 0, 0, 0);"><rect class="background" x="0" width="760" y="0" height="640" style="visibility: hidden; cursor: auto;"></rect><rect class="extent" x="0" width="0" y="0" height="0" style="cursor: move;"></rect><g class="resize n" transform="translate(0,0)" style="cursor: ns-resize; display: none;"><rect y="-3" width="0" height="6" style="visibility: hidden;"></rect></g><g class="resize e" transform="translate(0,0)" style="cursor: ew-resize; display: none;"><rect x="-3" width="6" height="0" style="visibility: hidden;"></rect></g><g class="resize s" transform="translate(0,0)" style="cursor: ns-resize; display: none;"><rect y="-3" width="0" height="6" style="visibility: hidden;"></rect></g><g class="resize w" transform="translate(0,0)" style="cursor: ew-resize; display: none;"><rect x="-3" width="6" height="0" style="visibility: hidden;"></rect></g><g class="resize nw" transform="translate(0,0)" style="cursor: nwse-resize; display: none;"><rect x="-3" y="-3" width="6" height="6" style="visibility: hidden;"></rect></g><g class="resize ne" transform="translate(0,0)" style="cursor: nesw-resize; display: none;"><rect x="-3" y="-3" width="6" height="6" style="visibility: hidden;"></rect></g><g class="resize se" transform="translate(0,0)" style="cursor: nwse-resize; display: none;"><rect x="-3" y="-3" width="6" height="6" style="visibility: hidden;"></rect></g><g class="resize sw" transform="translate(0,0)" style="cursor: nesw-resize; display: none;"><rect x="-3" y="-3" width="6" height="6" style="visibility: hidden;"></rect></g></g><g transform="translate(331.57,152.68) scale(1.30)"><g><line class="link backbone" x1="20.48" y1="332.73" x2="13.79" y2="319.17"></line><line class="link backbone" x1="13.79" y1="319.17" x2="17.15" y2="304.60"></line><line class="link basepair" x1="29.29" y1="295.05" x2="44.24" y2="296.01"></line><line class="link backbone" x1="17.15" y1="304.60" x2="29.29" y2="295.05"></line><line class="link basepair" x1="30.75" y1="279.16" x2="45.36" y2="280.67"></line><line class="link backbone" x1="29.29" y1="295.05" x2="30.75" y2="279.16"></line><line class="link basepair" x1="32.79" y1="263.10" x2="47.28" y2="265.25"></line><line class="link backbone" x1="30.75" y1="279.16" x2="32.79" y2="263.10"></line><line class="link basepair" x1="35.64" y1="247.01" x2="49.96" y2="249.88"></line><line class="link backbone" x1="32.79" y1="263.10" x2="35.64" y2="247.01"></line><line class="link basepair" x1="39.32" y1="230.98" x2="53.40" y2="234.58"></line><line class="link backbone" x1="35.64" y1="247.01" x2="39.32" y2="230.98"></line><line class="link basepair" x1="43.66" y1="215.11" x2="57.82" y2="219.80"></line><line class="link backbone" x1="39.32" y1="230.98" x2="43.66" y2="215.11"></line><line class="link backbone" x1="43.66" y1="215.11" x2="37.21" y2="201.09"></line><line class="link basepair" x1="42.16" y1="186.32" x2="55.84" y2="180.45"></line><line class="link backbone" x1="37.21" y1="201.09" x2="42.16" y2="186.32"></line><line class="link basepair" x1="36.59" y1="170.50" x2="50.49" y2="166.25"></line><line class="link backbone" x1="42.16" y1="186.32" x2="36.59" y2="170.50"></line><line class="link basepair" x1="32.56" y1="154.08" x2="46.89" y2="151.53"></line><line class="link backbone" x1="36.59" y1="170.50" x2="32.56" y2="154.08"></line><line class="link basepair" x1="30.72" y1="137.06" x2="45.22" y2="136.58"></line><line class="link backbone" x1="32.56" y1="154.08" x2="30.72" y2="137.06"></line><line class="link basepair" x1="31.21" y1="119.98" x2="45.98" y2="121.83"></line><line class="link backbone" x1="30.72" y1="137.06" x2="31.21" y2="119.98"></line><line class="link backbone" x1="31.21" y1="119.98" x2="21.61" y2="107.29"></line><line class="link backbone" x1="21.61" y1="107.29" x2="21.85" y2="92.35"></line><line class="link basepair" x1="31.93" y1="79.90" x2="46.73" y2="78.61"></line><line class="link backbone" x1="21.85" y1="92.35" x2="31.93" y2="79.90"></line><line class="link basepair" x1="32.25" y1="62.53" x2="46.61" y2="63.87"></line><line class="link backbone" x1="31.93" y1="79.90" x2="32.25" y2="62.53"></line><line class="link basepair" x1="35.32" y1="45.27" x2="49.40" y2="49.49"></line><line class="link backbone" x1="32.25" y1="62.53" x2="35.32" y2="45.27"></line><line class="link basepair" x1="32.64" y1="28.59" x2="44.56" y2="19.96"></line><line class="link backbone" x1="35.32" y1="45.27" x2="32.64" y2="28.59"></line><line class="link basepair" x1="24.02" y1="13.63" x2="36.93" y2="7.09"></line><line class="link backbone" x1="32.64" y1="28.59" x2="24.02" y2="13.63"></line><line class="link basepair" x1="17.18" y1="-1.73" x2="30.69" y2="-7.08"></line><line class="link backbone" x1="24.02" y1="13.63" x2="17.18" y2="-1.73"></line><line class="link basepair" x1="11.55" y1="-17.22" x2="25.39" y2="-21.83"></line><line class="link backbone" x1="17.18" y1="-1.73" x2="11.55" y2="-17.22"></line><line class="link basepair" x1="6.73" y1="-32.76" x2="20.82" y2="-36.82"></line><line class="link backbone" x1="11.55" y1="-17.22" x2="6.73" y2="-32.76"></line><line class="link basepair" x1="2.42" y1="-48.02" x2="16.85" y2="-51.83"></line><line class="link backbone" x1="6.73" y1="-32.76" x2="2.42" y2="-48.02"></line><line class="link backbone" x1="2.42" y1="-48.02" x2="-8.28" y2="-59.03"></line><line class="link backbone" x1="-8.28" y1="-59.03" x2="-4.21" y2="-73.43"></line><line class="link backbone" x1="-4.21" y1="-73.43" x2="10.27" y2="-77.21"></line><line class="link backbone" x1="10.27" y1="-77.21" x2="20.89" y2="-66.62"></line><line class="link basepair" x1="16.85" y1="-51.83" x2="2.42" y2="-48.02"></line><line class="link backbone" x1="20.89" y1="-66.62" x2="16.85" y2="-51.83"></line><line class="link basepair" x1="20.82" y1="-36.82" x2="6.73" y2="-32.76"></line><line class="link backbone" x1="16.85" y1="-51.83" x2="20.82" y2="-36.82"></line><line class="link basepair" x1="25.39" y1="-21.83" x2="11.55" y2="-17.22"></line><line class="link backbone" x1="20.82" y1="-36.82" x2="25.39" y2="-21.83"></line><line class="link basepair" x1="30.69" y1="-7.08" x2="17.18" y2="-1.73"></line><line class="link backbone" x1="25.39" y1="-21.83" x2="30.69" y2="-7.08"></line><line class="link basepair" x1="36.93" y1="7.09" x2="24.02" y2="13.63"></line><line class="link backbone" x1="30.69" y1="-7.08" x2="36.93" y2="7.09"></line><line class="link basepair" x1="44.56" y1="19.96" x2="32.64" y2="28.59"></line><line class="link backbone" x1="36.93" y1="7.09" x2="44.56" y2="19.96"></line><line class="link backbone" x1="44.56" y1="19.96" x2="58.46" y2="25.46"></line><line class="link backbone" x1="58.46" y1="25.46" x2="60.86" y2="39.93"></line><line class="link basepair" x1="49.40" y1="49.49" x2="35.32" y2="45.27"></line><line class="link backbone" x1="60.86" y1="39.93" x2="49.40" y2="49.49"></line><line class="link basepair" x1="46.61" y1="63.87" x2="32.25" y2="62.53"></line><line class="link backbone" x1="49.40" y1="49.49" x2="46.61" y2="63.87"></line><line class="link basepair" x1="46.73" y1="78.61" x2="31.93" y2="79.90"></line><line class="link backbone" x1="46.61" y1="63.87" x2="46.73" y2="78.61"></line><line class="link backbone" x1="46.73" y1="78.61" x2="59.75" y2="86.44"></line><line class="link backbone" x1="59.75" y1="86.44" x2="64.80" y2="100.56"></line><line class="link backbone" x1="64.80" y1="100.56" x2="59.26" y2="114.49"></line><line class="link basepair" x1="45.98" y1="121.83" x2="31.21" y2="119.98"></line><line class="link backbone" x1="59.26" y1="114.49" x2="45.98" y2="121.83"></line><line class="link basepair" x1="45.22" y1="136.58" x2="30.72" y2="137.06"></line><line class="link backbone" x1="45.98" y1="121.83" x2="45.22" y2="136.58"></line><line class="link basepair" x1="46.89" y1="151.53" x2="32.56" y2="154.08"></line><line class="link backbone" x1="45.22" y1="136.58" x2="46.89" y2="151.53"></line><line class="link basepair" x1="50.49" y1="166.25" x2="36.59" y2="170.50"></line><line class="link backbone" x1="46.89" y1="151.53" x2="50.49" y2="166.25"></line><line class="link basepair" x1="55.84" y1="180.45" x2="42.16" y2="186.32"></line><line class="link backbone" x1="50.49" y1="166.25" x2="55.84" y2="180.45"></line><line class="link backbone" x1="55.84" y1="180.45" x2="70.03" y2="185.72"></line><line class="link backbone" x1="70.03" y1="185.72" x2="76.53" y2="199.19"></line><line class="link backbone" x1="76.53" y1="199.19" x2="71.35" y2="213.04"></line><line class="link basepair" x1="57.82" y1="219.80" x2="43.66" y2="215.11"></line><line class="link backbone" x1="71.35" y1="213.04" x2="57.82" y2="219.80"></line><line class="link basepair" x1="53.40" y1="234.58" x2="39.32" y2="230.98"></line><line class="link backbone" x1="57.82" y1="219.80" x2="53.40" y2="234.58"></line><line class="link basepair" x1="49.96" y1="249.88" x2="35.64" y2="247.01"></line><line class="link backbone" x1="53.40" y1="234.58" x2="49.96" y2="249.88"></line><line class="link basepair" x1="47.28" y1="265.25" x2="32.79" y2="263.10"></line><line class="link backbone" x1="49.96" y1="249.88" x2="47.28" y2="265.25"></line><line class="link basepair" x1="45.36" y1="280.67" x2="30.75" y2="279.16"></line><line class="link backbone" x1="47.28" y1="265.25" x2="45.36" y2="280.67"></line><line class="link basepair" x1="44.24" y1="296.01" x2="29.29" y2="295.05"></line><line class="link backbone" x1="45.36" y1="280.67" x2="44.24" y2="296.01"></line><line class="link backbone" x1="44.24" y1="296.01" x2="55.51" y2="306.25"></line><line class="link backbone" x1="55.51" y1="306.25" x2="57.72" y2="321.02"></line><line class="link label_link" x1="37.21" y1="201.09" x2="21.71" y2="202.36"></line><line class="link label_link" x1="35.32" y1="45.27" x2="20.36" y2="49.64"></line><line class="link label_link" x1="20.89" y1="-66.62" x2="32.66" y2="-76.71"></line><line class="link label_link" x1="46.61" y1="63.87" x2="62.20" y2="63.16"></line><line class="link label_link" x1="70.03" y1="185.72" x2="85.44" y2="183.13"></line><line class="link label_link" x1="57.72" y1="321.02" x2="71.95" y2="327.13"></line><line class="link fake transparent" x1="42.16" y1="186.32" x2="45.92" y2="176.05"></line><line class="link fake transparent" x1="42.16" y1="186.32" x2="50.49" y2="166.25"></line><line class="link fake transparent" x1="36.59" y1="170.50" x2="45.92" y2="176.05"></line><line class="link fake transparent" x1="50.49" y1="166.25" x2="45.92" y2="176.05"></line><line class="link fake transparent" x1="55.84" y1="180.45" x2="45.92" y2="176.05"></line><line class="link fake transparent" x1="36.59" y1="170.50" x2="41.14" y2="160.74"></line><line class="link fake transparent" x1="32.56" y1="154.08" x2="41.14" y2="160.74"></line><line class="link fake transparent" x1="46.89" y1="151.53" x2="41.14" y2="160.74"></line><line class="link fake transparent" x1="50.49" y1="166.25" x2="41.14" y2="160.74"></line><line class="link fake transparent" x1="32.56" y1="154.08" x2="38.26" y2="144.88"></line><line class="link fake transparent" x1="30.72" y1="137.06" x2="38.26" y2="144.88"></line><line class="link fake transparent" x1="45.22" y1="136.58" x2="38.26" y2="144.88"></line><line class="link fake transparent" x1="46.89" y1="151.53" x2="38.26" y2="144.88"></line><line class="link fake transparent" x1="30.72" y1="137.06" x2="37.70" y2="128.73"></line><line class="link fake transparent" x1="31.21" y1="119.98" x2="37.70" y2="128.73"></line><line class="link fake transparent" x1="45.98" y1="121.83" x2="37.70" y2="128.73"></line><line class="link fake transparent" x1="45.22" y1="136.58" x2="37.70" y2="128.73"></line><line class="link fake transparent" x1="31.93" y1="79.90" x2="38.73" y2="71.38"></line><line class="link fake transparent" x1="32.25" y1="62.53" x2="38.73" y2="71.38"></line><line class="link fake transparent" x1="46.61" y1="63.87" x2="38.73" y2="71.38"></line><line class="link fake transparent" x1="46.73" y1="78.61" x2="38.73" y2="71.38"></line><line class="link fake transparent" x1="32.25" y1="62.53" x2="40.20" y2="55.22"></line><line class="link fake transparent" x1="35.32" y1="45.27" x2="40.20" y2="55.22"></line><line class="link fake transparent" x1="49.40" y1="49.49" x2="40.20" y2="55.22"></line><line class="link fake transparent" x1="46.61" y1="63.87" x2="40.20" y2="55.22"></line><line class="link fake transparent" x1="32.64" y1="28.59" x2="34.06" y2="17.57"></line><line class="link fake transparent" x1="24.02" y1="13.63" x2="34.06" y2="17.57"></line><line class="link fake transparent" x1="36.93" y1="7.09" x2="34.06" y2="17.57"></line><line class="link fake transparent" x1="44.56" y1="19.96" x2="34.06" y2="17.57"></line><line class="link fake transparent" x1="24.02" y1="13.63" x2="26.88" y2="3.07"></line><line class="link fake transparent" x1="17.18" y1="-1.73" x2="26.88" y2="3.07"></line><line class="link fake transparent" x1="30.69" y1="-7.08" x2="26.88" y2="3.07"></line><line class="link fake transparent" x1="36.93" y1="7.09" x2="26.88" y2="3.07"></line><line class="link fake transparent" x1="17.18" y1="-1.73" x2="20.98" y2="-11.91"></line><line class="link fake transparent" x1="11.55" y1="-17.22" x2="20.98" y2="-11.91"></line><line class="link fake transparent" x1="25.39" y1="-21.83" x2="20.98" y2="-11.91"></line><line class="link fake transparent" x1="30.69" y1="-7.08" x2="20.98" y2="-11.91"></line><line class="link fake transparent" x1="11.55" y1="-17.22" x2="15.94" y2="-27.14"></line><line class="link fake transparent" x1="6.73" y1="-32.76" x2="15.94" y2="-27.14"></line><line class="link fake transparent" x1="20.82" y1="-36.82" x2="15.94" y2="-27.14"></line><line class="link fake transparent" x1="25.39" y1="-21.83" x2="15.94" y2="-27.14"></line><line class="link fake transparent" x1="6.73" y1="-32.76" x2="11.58" y2="-42.40"></line><line class="link fake transparent" x1="2.42" y1="-48.02" x2="11.58" y2="-42.40"></line><line class="link fake transparent" x1="16.85" y1="-51.83" x2="11.58" y2="-42.40"></line><line class="link fake transparent" x1="20.82" y1="-36.82" x2="11.58" y2="-42.40"></line><line class="link fake transparent" x1="29.29" y1="295.05" x2="37.25" y2="287.78"></line><line class="link fake transparent" x1="30.75" y1="279.16" x2="37.25" y2="287.78"></line><line class="link fake transparent" x1="45.36" y1="280.67" x2="37.25" y2="287.78"></line><line class="link fake transparent" x1="44.24" y1="296.01" x2="37.25" y2="287.78"></line><line class="link fake transparent" x1="30.75" y1="279.16" x2="38.84" y2="272.05"></line><line class="link fake transparent" x1="32.79" y1="263.10" x2="38.84" y2="272.05"></line><line class="link fake transparent" x1="47.28" y1="265.25" x2="38.84" y2="272.05"></line><line class="link fake transparent" x1="45.36" y1="280.67" x2="38.84" y2="272.05"></line><line class="link fake transparent" x1="32.79" y1="263.10" x2="41.21" y2="256.30"></line><line class="link fake transparent" x1="35.64" y1="247.01" x2="41.21" y2="256.30"></line><line class="link fake transparent" x1="49.96" y1="249.88" x2="41.21" y2="256.30"></line><line class="link fake transparent" x1="47.28" y1="265.25" x2="41.21" y2="256.30"></line><line class="link fake transparent" x1="35.64" y1="247.01" x2="44.37" y2="240.59"></line><line class="link fake transparent" x1="39.32" y1="230.98" x2="44.37" y2="240.59"></line><line class="link fake transparent" x1="53.40" y1="234.58" x2="44.37" y2="240.59"></line><line class="link fake transparent" x1="49.96" y1="249.88" x2="44.37" y2="240.59"></line><line class="link fake transparent" x1="39.32" y1="230.98" x2="48.34" y2="225.02"></line><line class="link fake transparent" x1="43.66" y1="215.11" x2="48.34" y2="225.02"></line><line class="link fake transparent" x1="57.82" y1="219.80" x2="48.34" y2="225.02"></line><line class="link fake transparent" x1="53.40" y1="234.58" x2="48.34" y2="225.02"></line><line class="link fake transparent" x1="20.48" y1="332.73" x2="35.80" y2="316.26"></line><line class="link fake transparent" x1="20.48" y1="332.73" x2="44.24" y2="296.01"></line><line class="link fake transparent" x1="13.79" y1="319.17" x2="35.80" y2="316.26"></line><line class="link fake transparent" x1="13.79" y1="319.17" x2="55.51" y2="306.25"></line><line class="link fake transparent" x1="17.15" y1="304.60" x2="35.80" y2="316.26"></line><line class="link fake transparent" x1="17.15" y1="304.60" x2="57.72" y2="321.02"></line><line class="link fake transparent" x1="29.29" y1="295.05" x2="35.80" y2="316.26"></line><line class="link fake transparent" x1="29.29" y1="295.05" x2="50.42" y2="333.97"></line><line class="link fake transparent" x1="44.24" y1="296.01" x2="35.80" y2="316.26"></line><line class="link fake transparent" x1="44.24" y1="296.01" x2="36.83" y2="339.75"></line><line class="link fake transparent" x1="55.51" y1="306.25" x2="35.80" y2="316.26"></line><line class="link fake transparent" x1="55.51" y1="306.25" x2="20.48" y2="332.73"></line><line class="link fake transparent" x1="57.72" y1="321.02" x2="35.80" y2="316.26"></line><line class="link fake transparent" x1="57.72" y1="321.02" x2="13.79" y2="319.17"></line><line class="link fake transparent" x1="2.42" y1="-48.02" x2="6.33" y2="-62.65"></line><line class="link fake transparent" x1="2.42" y1="-48.02" x2="10.27" y2="-77.21"></line><line class="link fake transparent" x1="-8.28" y1="-59.03" x2="6.33" y2="-62.65"></line><line class="link fake transparent" x1="-8.28" y1="-59.03" x2="20.89" y2="-66.62"></line><line class="link fake transparent" x1="-4.21" y1="-73.43" x2="6.33" y2="-62.65"></line><line class="link fake transparent" x1="-4.21" y1="-73.43" x2="16.85" y2="-51.83"></line><line class="link fake transparent" x1="10.27" y1="-77.21" x2="6.33" y2="-62.65"></line><line class="link fake transparent" x1="10.27" y1="-77.21" x2="2.42" y2="-48.02"></line><line class="link fake transparent" x1="20.89" y1="-66.62" x2="6.33" y2="-62.65"></line><line class="link fake transparent" x1="20.89" y1="-66.62" x2="-8.28" y2="-59.03"></line><line class="link fake transparent" x1="16.85" y1="-51.83" x2="6.33" y2="-62.65"></line><line class="link fake transparent" x1="16.85" y1="-51.83" x2="-4.21" y2="-73.43"></line><line class="link fake transparent" x1="31.21" y1="119.98" x2="42.28" y2="100.17"></line><line class="link fake transparent" x1="31.21" y1="119.98" x2="46.73" y2="78.61"></line><line class="link fake transparent" x1="21.61" y1="107.29" x2="42.28" y2="100.17"></line><line class="link fake transparent" x1="21.61" y1="107.29" x2="59.75" y2="86.44"></line><line class="link fake transparent" x1="21.85" y1="92.35" x2="42.28" y2="100.17"></line><line class="link fake transparent" x1="21.85" y1="92.35" x2="64.80" y2="100.56"></line><line class="link fake transparent" x1="31.93" y1="79.90" x2="42.28" y2="100.17"></line><line class="link fake transparent" x1="31.93" y1="79.90" x2="59.26" y2="114.49"></line><line class="link fake transparent" x1="46.73" y1="78.61" x2="42.28" y2="100.17"></line><line class="link fake transparent" x1="46.73" y1="78.61" x2="45.98" y2="121.83"></line><line class="link fake transparent" x1="59.75" y1="86.44" x2="42.28" y2="100.17"></line><line class="link fake transparent" x1="59.75" y1="86.44" x2="31.21" y2="119.98"></line><line class="link fake transparent" x1="64.80" y1="100.56" x2="42.28" y2="100.17"></line><line class="link fake transparent" x1="64.80" y1="100.56" x2="21.61" y2="107.29"></line><line class="link fake transparent" x1="59.26" y1="114.49" x2="42.28" y2="100.17"></line><line class="link fake transparent" x1="59.26" y1="114.49" x2="21.85" y2="92.35"></line><line class="link fake transparent" x1="45.98" y1="121.83" x2="42.28" y2="100.17"></line><line class="link fake transparent" x1="45.98" y1="121.83" x2="31.93" y2="79.90"></line><line class="link fake transparent" x1="35.32" y1="45.27" x2="46.38" y2="34.88"></line><line class="link fake transparent" x1="35.32" y1="45.27" x2="58.46" y2="25.46"></line><line class="link fake transparent" x1="32.64" y1="28.59" x2="46.38" y2="34.88"></line><line class="link fake transparent" x1="32.64" y1="28.59" x2="60.86" y2="39.93"></line><line class="link fake transparent" x1="44.56" y1="19.96" x2="46.38" y2="34.88"></line><line class="link fake transparent" x1="44.56" y1="19.96" x2="49.40" y2="49.49"></line><line class="link fake transparent" x1="58.46" y1="25.46" x2="46.38" y2="34.88"></line><line class="link fake transparent" x1="58.46" y1="25.46" x2="35.32" y2="45.27"></line><line class="link fake transparent" x1="60.86" y1="39.93" x2="46.38" y2="34.88"></line><line class="link fake transparent" x1="60.86" y1="39.93" x2="32.64" y2="28.59"></line><line class="link fake transparent" x1="49.40" y1="49.49" x2="46.38" y2="34.88"></line><line class="link fake transparent" x1="49.40" y1="49.49" x2="44.56" y2="19.96"></line><line class="link fake transparent" x1="43.66" y1="215.11" x2="56.59" y2="200.11"></line><line class="link fake transparent" x1="43.66" y1="215.11" x2="70.03" y2="185.72"></line><line class="link fake transparent" x1="37.21" y1="201.09" x2="56.59" y2="200.11"></line><line class="link fake transparent" x1="37.21" y1="201.09" x2="76.53" y2="199.19"></line><line class="link fake transparent" x1="42.16" y1="186.32" x2="56.59" y2="200.11"></line><line class="link fake transparent" x1="42.16" y1="186.32" x2="71.35" y2="213.04"></line><line class="link fake transparent" x1="55.84" y1="180.45" x2="56.59" y2="200.11"></line><line class="link fake transparent" x1="55.84" y1="180.45" x2="57.82" y2="219.80"></line><line class="link fake transparent" x1="70.03" y1="185.72" x2="56.59" y2="200.11"></line><line class="link fake transparent" x1="70.03" y1="185.72" x2="43.66" y2="215.11"></line><line class="link fake transparent" x1="76.53" y1="199.19" x2="56.59" y2="200.11"></line><line class="link fake transparent" x1="76.53" y1="199.19" x2="37.21" y2="201.09"></line><line class="link fake transparent" x1="71.35" y1="213.04" x2="56.59" y2="200.11"></line><line class="link fake transparent" x1="71.35" y1="213.04" x2="42.16" y2="186.32"></line><line class="link fake transparent" x1="57.82" y1="219.80" x2="56.59" y2="200.11"></line><line class="link fake transparent" x1="57.82" y1="219.80" x2="55.84" y2="180.45"></line></g><g><g class="noselect gnode" struct_name="m" transform="translate(20.48,332.73)" r="6.5"><circle class="node" r="6" node_type="nucleotide" style="fill: lightsalmon;"></circle><text text-anchor="middle" font-size="8" font-weight="bold" y="2.5" class="node-label">A</text></g><g class="noselect gnode" struct_name="m" transform="translate(13.79,319.17)" r="6.5"><circle class="node" r="6" node_type="nucleotide" style="fill: lightsalmon;"></circle><text text-anchor="middle" font-size="8" font-weight="bold" y="2.5" class="node-label">A</text></g><g class="noselect gnode" struct_name="m" transform="translate(17.15,304.60)" r="6.5"><circle class="node" r="6" node_type="nucleotide" style="fill: lightsalmon;"></circle><text text-anchor="middle" font-size="8" font-weight="bold" y="2.5" class="node-label">U</text></g><g class="noselect gnode" struct_name="m" transform="translate(29.29,295.05)" r="6.5"><circle class="node" r="6" node_type="nucleotide" style="fill: lightgreen;"></circle><text text-anchor="middle" font-size="8" font-weight="bold" y="2.5" class="node-label">U</text></g><g class="noselect gnode" struct_name="m" transform="translate(30.75,279.16)" r="6.5"><circle class="node" r="6" node_type="nucleotide" style="fill: lightgreen;"></circle><text text-anchor="middle" font-size="8" font-weight="bold" y="2.5" class="node-label">G</text></g><g class="noselect gnode" struct_name="m" transform="translate(32.79,263.10)" r="6.5"><circle class="node" r="6" node_type="nucleotide" style="fill: lightgreen;"></circle><text text-anchor="middle" font-size="8" font-weight="bold" y="2.5" class="node-label">C</text></g><g class="noselect gnode" struct_name="m" transform="translate(35.64,247.01)" r="6.5"><circle class="node" r="6" node_type="nucleotide" style="fill: lightgreen;"></circle><text text-anchor="middle" font-size="8" font-weight="bold" y="2.5" class="node-label">U</text></g><g class="noselect gnode" struct_name="m" transform="translate(39.32,230.98)" r="6.5"><circle class="node" r="6" node_type="nucleotide" style="fill: lightgreen;"></circle><text text-anchor="middle" font-size="8" font-weight="bold" y="2.5" class="node-label">A</text></g><g class="noselect gnode" struct_name="m" transform="translate(43.66,215.11)" r="6.5"><circle class="node" r="6" node_type="nucleotide" style="fill: lightgreen;"></circle><text text-anchor="middle" font-size="8" font-weight="bold" y="2.5" class="node-label">C</text></g><g class="noselect gnode" struct_name="m" transform="translate(37.21,201.09)" r="6.5"><circle class="node" r="6" node_type="nucleotide" style="fill: rgb(219, 219, 141);"></circle><text text-anchor="middle" font-size="8" font-weight="bold" y="2.5" class="node-label">U</text></g><g class="noselect gnode" struct_name="m" transform="translate(42.16,186.32)" r="6.5"><circle class="node" r="6" node_type="nucleotide" style="fill: lightgreen;"></circle><text text-anchor="middle" font-size="8" font-weight="bold" y="2.5" class="node-label">A</text></g><g class="noselect gnode" struct_name="m" transform="translate(36.59,170.50)" r="6.5"><circle class="node" r="6" node_type="nucleotide" style="fill: lightgreen;"></circle><text text-anchor="middle" font-size="8" font-weight="bold" y="2.5" class="node-label">C</text></g><g class="noselect gnode" struct_name="m" transform="translate(32.56,154.08)" r="6.5"><circle class="node" r="6" node_type="nucleotide" style="fill: lightgreen;"></circle><text text-anchor="middle" font-size="8" font-weight="bold" y="2.5" class="node-label">G</text></g><g class="noselect gnode" struct_name="m" transform="translate(30.72,137.06)" r="6.5"><circle class="node" r="6" node_type="nucleotide" style="fill: lightgreen;"></circle><text text-anchor="middle" font-size="8" font-weight="bold" y="2.5" class="node-label">A</text></g><g class="noselect gnode" struct_name="m" transform="translate(31.21,119.98)" r="6.5"><circle class="node" r="6" node_type="nucleotide" style="fill: lightgreen;"></circle><text text-anchor="middle" font-size="8" font-weight="bold" y="2.5" class="node-label">C</text></g><g class="noselect gnode" struct_name="m" transform="translate(21.61,107.29)" r="6.5"><circle class="node" r="6" node_type="nucleotide" style="fill: rgb(219, 219, 141);"></circle><text text-anchor="middle" font-size="8" font-weight="bold" y="2.5" class="node-label">A</text></g><g class="noselect gnode" struct_name="m" transform="translate(21.85,92.35)" r="6.5"><circle class="node" r="6" node_type="nucleotide" style="fill: rgb(219, 219, 141);"></circle><text text-anchor="middle" font-size="8" font-weight="bold" y="2.5" class="node-label">A</text></g><g class="noselect gnode" struct_name="m" transform="translate(31.93,79.90)" r="6.5"><circle class="node" r="6" node_type="nucleotide" style="fill: lightgreen;"></circle><text text-anchor="middle" font-size="8" font-weight="bold" y="2.5" class="node-label">G</text></g><g class="noselect gnode" struct_name="m" transform="translate(32.25,62.53)" r="6.5"><circle class="node" r="6" node_type="nucleotide" style="fill: lightgreen;"></circle><text text-anchor="middle" font-size="8" font-weight="bold" y="2.5" class="node-label">C</text></g><g class="noselect gnode" struct_name="m" transform="translate(35.32,45.27)" r="6.5"><circle class="node" r="6" node_type="nucleotide" style="fill: lightgreen;"></circle><text text-anchor="middle" font-size="8" font-weight="bold" y="2.5" class="node-label">C</text></g><g class="noselect gnode" struct_name="m" transform="translate(32.64,28.59)" r="6.5"><circle class="node" r="6" node_type="nucleotide" style="fill: lightgreen;"></circle><text text-anchor="middle" font-size="8" font-weight="bold" y="2.5" class="node-label">G</text></g><g class="noselect gnode" struct_name="m" transform="translate(24.02,13.63)" r="6.5"><circle class="node" r="6" node_type="nucleotide" style="fill: lightgreen;"></circle><text text-anchor="middle" font-size="8" font-weight="bold" y="2.5" class="node-label">A</text></g><g class="noselect gnode" struct_name="m" transform="translate(17.18,-1.73)" r="6.5"><circle class="node" r="6" node_type="nucleotide" style="fill: lightgreen;"></circle><text text-anchor="middle" font-size="8" font-weight="bold" y="2.5" class="node-label">G</text></g><g class="noselect gnode" struct_name="m" transform="translate(11.55,-17.22)" r="6.5"><circle class="node" r="6" node_type="nucleotide" style="fill: lightgreen;"></circle><text text-anchor="middle" font-size="8" font-weight="bold" y="2.5" class="node-label">C</text></g><g class="noselect gnode" struct_name="m" transform="translate(6.73,-32.76)" r="6.5"><circle class="node" r="6" node_type="nucleotide" style="fill: lightgreen;"></circle><text text-anchor="middle" font-size="8" font-weight="bold" y="2.5" class="node-label">G</text></g><g class="noselect gnode" struct_name="m" transform="translate(2.42,-48.02)" r="6.5"><circle class="node" r="6" node_type="nucleotide" style="fill: lightgreen;"></circle><text text-anchor="middle" font-size="8" font-weight="bold" y="2.5" class="node-label">G</text></g><g class="noselect gnode" struct_name="m" transform="translate(-8.28,-59.03)" r="6.5"><circle class="node" r="6" node_type="nucleotide" style="fill: lightblue;"></circle><text text-anchor="middle" font-size="8" font-weight="bold" y="2.5" class="node-label">G</text></g><g class="noselect gnode" struct_name="m" transform="translate(-4.21,-73.43)" r="6.5"><circle class="node" r="6" node_type="nucleotide" style="fill: lightblue;"></circle><text text-anchor="middle" font-size="8" font-weight="bold" y="2.5" class="node-label">G</text></g><g class="noselect gnode" struct_name="m" transform="translate(10.27,-77.21)" r="6.5"><circle class="node" r="6" node_type="nucleotide" style="fill: lightblue;"></circle><text text-anchor="middle" font-size="8" font-weight="bold" y="2.5" class="node-label">A</text></g><g class="noselect gnode" struct_name="m" transform="translate(20.89,-66.62)" r="6.5"><circle class="node" r="6" node_type="nucleotide" style="fill: lightblue;"></circle><text text-anchor="middle" font-size="8" font-weight="bold" y="2.5" class="node-label">A</text></g><g class="noselect gnode" struct_name="m" transform="translate(16.85,-51.83)" r="6.5"><circle class="node" r="6" node_type="nucleotide" style="fill: lightgreen;"></circle><text text-anchor="middle" font-size="8" font-weight="bold" y="2.5" class="node-label">C</text></g><g class="noselect gnode" struct_name="m" transform="translate(20.82,-36.82)" r="6.5"><circle class="node" r="6" node_type="nucleotide" style="fill: lightgreen;"></circle><text text-anchor="middle" font-size="8" font-weight="bold" y="2.5" class="node-label">C</text></g><g class="noselect gnode" struct_name="m" transform="translate(25.39,-21.83)" r="6.5"><circle class="node" r="6" node_type="nucleotide" style="fill: lightgreen;"></circle><text text-anchor="middle" font-size="8" font-weight="bold" y="2.5" class="node-label">G</text></g><g class="noselect gnode" struct_name="m" transform="translate(30.69,-7.08)" r="6.5"><circle class="node" r="6" node_type="nucleotide" style="fill: lightgreen;"></circle><text text-anchor="middle" font-size="8" font-weight="bold" y="2.5" class="node-label">U</text></g><g class="noselect gnode" struct_name="m" transform="translate(36.93,7.09)" r="6.5"><circle class="node" r="6" node_type="nucleotide" style="fill: lightgreen;"></circle><text text-anchor="middle" font-size="8" font-weight="bold" y="2.5" class="node-label">U</text></g><g class="noselect gnode" struct_name="m" transform="translate(44.56,19.96)" r="6.5"><circle class="node" r="6" node_type="nucleotide" style="fill: lightgreen;"></circle><text text-anchor="middle" font-size="8" font-weight="bold" y="2.5" class="node-label">C</text></g><g class="noselect gnode" struct_name="m" transform="translate(58.46,25.46)" r="6.5"><circle class="node" r="6" node_type="nucleotide" style="fill: rgb(219, 219, 141);"></circle><text text-anchor="middle" font-size="8" font-weight="bold" y="2.5" class="node-label">C</text></g><g class="noselect gnode" struct_name="m" transform="translate(60.86,39.93)" r="6.5"><circle class="node" r="6" node_type="nucleotide" style="fill: rgb(219, 219, 141);"></circle><text text-anchor="middle" font-size="8" font-weight="bold" y="2.5" class="node-label">A</text></g><g class="noselect gnode" struct_name="m" transform="translate(49.40,49.49)" r="6.5"><circle class="node" r="6" node_type="nucleotide" style="fill: lightgreen;"></circle><text text-anchor="middle" font-size="8" font-weight="bold" y="2.5" class="node-label">G</text></g><g class="noselect gnode" struct_name="m" transform="translate(46.61,63.87)" r="6.5"><circle class="node" r="6" node_type="nucleotide" style="fill: lightgreen;"></circle><text text-anchor="middle" font-size="8" font-weight="bold" y="2.5" class="node-label">G</text></g><g class="noselect gnode" struct_name="m" transform="translate(46.73,78.61)" r="6.5"><circle class="node" r="6" node_type="nucleotide" style="fill: lightgreen;"></circle><text text-anchor="middle" font-size="8" font-weight="bold" y="2.5" class="node-label">U</text></g><g class="noselect gnode" struct_name="m" transform="translate(59.75,86.44)" r="6.5"><circle class="node" r="6" node_type="nucleotide" style="fill: rgb(219, 219, 141);"></circle><text text-anchor="middle" font-size="8" font-weight="bold" y="2.5" class="node-label">G</text></g><g class="noselect gnode" struct_name="m" transform="translate(64.80,100.56)" r="6.5"><circle class="node" r="6" node_type="nucleotide" style="fill: rgb(219, 219, 141);"></circle><text text-anchor="middle" font-size="8" font-weight="bold" y="2.5" class="node-label">A</text></g><g class="noselect gnode" struct_name="m" transform="translate(59.26,114.49)" r="6.5"><circle class="node" r="6" node_type="nucleotide" style="fill: rgb(219, 219, 141);"></circle><text text-anchor="middle" font-size="8" font-weight="bold" y="2.5" class="node-label">C</text></g><g class="noselect gnode" struct_name="m" transform="translate(45.98,121.83)" r="6.5"><circle class="node" r="6" node_type="nucleotide" style="fill: lightgreen;"></circle><text text-anchor="middle" font-size="8" font-weight="bold" y="2.5" class="node-label">G</text></g><g class="noselect gnode" struct_name="m" transform="translate(45.22,136.58)" r="6.5"><circle class="node" r="6" node_type="nucleotide" style="fill: lightgreen;"></circle><text text-anchor="middle" font-size="8" font-weight="bold" y="2.5" class="node-label">U</text></g><g class="noselect gnode" struct_name="m" transform="translate(46.89,151.53)" r="6.5"><circle class="node" r="6" node_type="nucleotide" style="fill: lightgreen;"></circle><text text-anchor="middle" font-size="8" font-weight="bold" y="2.5" class="node-label">C</text></g><g class="noselect gnode" struct_name="m" transform="translate(50.49,166.25)" r="6.5"><circle class="node" r="6" node_type="nucleotide" style="fill: lightgreen;"></circle><text text-anchor="middle" font-size="8" font-weight="bold" y="2.5" class="node-label">G</text></g><g class="noselect gnode" struct_name="m" transform="translate(55.84,180.45)" r="6.5"><circle class="node" r="6" node_type="nucleotide" style="fill: lightgreen;"></circle><text text-anchor="middle" font-size="8" font-weight="bold" y="2.5" class="node-label">U</text></g><g class="noselect gnode" struct_name="m" transform="translate(70.03,185.72)" r="6.5"><circle class="node" r="6" node_type="nucleotide" style="fill: rgb(219, 219, 141);"></circle><text text-anchor="middle" font-size="8" font-weight="bold" y="2.5" class="node-label">U</text></g><g class="noselect gnode" struct_name="m" transform="translate(76.53,199.19)" r="6.5"><circle class="node" r="6" node_type="nucleotide" style="fill: rgb(219, 219, 141);"></circle><text text-anchor="middle" font-size="8" font-weight="bold" y="2.5" class="node-label">U</text></g><g class="noselect gnode" struct_name="m" transform="translate(71.35,213.04)" r="6.5"><circle class="node" r="6" node_type="nucleotide" style="fill: rgb(219, 219, 141);"></circle><text text-anchor="middle" font-size="8" font-weight="bold" y="2.5" class="node-label">C</text></g><g class="noselect gnode" struct_name="m" transform="translate(57.82,219.80)" r="6.5"><circle class="node" r="6" node_type="nucleotide" style="fill: lightgreen;"></circle><text text-anchor="middle" font-size="8" font-weight="bold" y="2.5" class="node-label">G</text></g><g class="noselect gnode" struct_name="m" transform="translate(53.40,234.58)" r="6.5"><circle class="node" r="6" node_type="nucleotide" style="fill: lightgreen;"></circle><text text-anchor="middle" font-size="8" font-weight="bold" y="2.5" class="node-label">U</text></g><g class="noselect gnode" struct_name="m" transform="translate(49.96,249.88)" r="6.5"><circle class="node" r="6" node_type="nucleotide" style="fill: lightgreen;"></circle><text text-anchor="middle" font-size="8" font-weight="bold" y="2.5" class="node-label">A</text></g><g class="noselect gnode" struct_name="m" transform="translate(47.28,265.25)" r="6.5"><circle class="node" r="6" node_type="nucleotide" style="fill: lightgreen;"></circle><text text-anchor="middle" font-size="8" font-weight="bold" y="2.5" class="node-label">G</text></g><g class="noselect gnode" struct_name="m" transform="translate(45.36,280.67)" r="6.5"><circle class="node" r="6" node_type="nucleotide" style="fill: lightgreen;"></circle><text text-anchor="middle" font-size="8" font-weight="bold" y="2.5" class="node-label">C</text></g><g class="noselect gnode" struct_name="m" transform="translate(44.24,296.01)" r="6.5"><circle class="node" r="6" node_type="nucleotide" style="fill: lightgreen;"></circle><text text-anchor="middle" font-size="8" font-weight="bold" y="2.5" class="node-label">A</text></g><g class="noselect gnode" struct_name="m" transform="translate(55.51,306.25)" r="6.5"><circle class="node" r="6" node_type="nucleotide" style="fill: lightsalmon;"></circle><text text-anchor="middle" font-size="8" font-weight="bold" y="2.5" class="node-label">U</text></g><g class="noselect gnode" struct_name="m" transform="translate(57.72,321.02)" r="6.5"><circle class="node" r="6" node_type="nucleotide" style="fill: lightsalmon;"></circle><text text-anchor="middle" font-size="8" font-weight="bold" y="2.5" class="node-label">G</text></g><g class="noselect gnode" struct_name="m" transform="translate(21.71,202.36)" r="6.5"><circle class="node label" r="6" node_type="label"></circle><text text-anchor="middle" font-size="8" font-weight="bold" y="2.5" class="node-label">10</text></g><g class="noselect gnode" struct_name="m" transform="translate(20.36,49.64)" r="6.5"><circle class="node label" r="6" node_type="label"></circle><text text-anchor="middle" font-size="8" font-weight="bold" y="2.5" class="node-label">20</text></g><g class="noselect gnode" struct_name="m" transform="translate(32.66,-76.71)" r="6.5"><circle class="node label" r="6" node_type="label"></circle><text text-anchor="middle" font-size="8" font-weight="bold" y="2.5" class="node-label">30</text></g><g class="noselect gnode" struct_name="m" transform="translate(62.20,63.16)" r="6.5"><circle class="node label" r="6" node_type="label"></circle><text text-anchor="middle" font-size="8" font-weight="bold" y="2.5" class="node-label">40</text></g><g class="noselect gnode" struct_name="m" transform="translate(85.44,183.13)" r="6.5"><circle class="node label" r="6" node_type="label"></circle><text text-anchor="middle" font-size="8" font-weight="bold" y="2.5" class="node-label">50</text></g><g class="noselect gnode" struct_name="m" transform="translate(71.95,327.13)" r="6.5"><circle class="node label" r="6" node_type="label"></circle><text text-anchor="middle" font-size="8" font-weight="bold" y="2.5" class="node-label">60</text></g><g class="noselect gnode" transform="translate(45.92,176.05)" r="6.5"><circle class="node" r="0" node_type="middle"></circle><text text-anchor="middle" font-size="8" font-weight="bold" y="2.5" class="node-label"></text></g><g class="noselect gnode" transform="translate(41.14,160.74)" r="6.5"><circle class="node" r="0" node_type="middle"></circle><text text-anchor="middle" font-size="8" font-weight="bold" y="2.5" class="node-label"></text></g><g class="noselect gnode" transform="translate(38.26,144.88)" r="6.5"><circle class="node" r="0" node_type="middle"></circle><text text-anchor="middle" font-size="8" font-weight="bold" y="2.5" class="node-label"></text></g><g class="noselect gnode" transform="translate(37.70,128.73)" r="6.5"><circle class="node" r="0" node_type="middle"></circle><text text-anchor="middle" font-size="8" font-weight="bold" y="2.5" class="node-label"></text></g><g class="noselect gnode" transform="translate(38.73,71.38)" r="6.5"><circle class="node" r="0" node_type="middle"></circle><text text-anchor="middle" font-size="8" font-weight="bold" y="2.5" class="node-label"></text></g><g class="noselect gnode" transform="translate(40.20,55.22)" r="6.5"><circle class="node" r="0" node_type="middle"></circle><text text-anchor="middle" font-size="8" font-weight="bold" y="2.5" class="node-label"></text></g><g class="noselect gnode" transform="translate(34.06,17.57)" r="6.5"><circle class="node" r="0" node_type="middle"></circle><text text-anchor="middle" font-size="8" font-weight="bold" y="2.5" class="node-label"></text></g><g class="noselect gnode" transform="translate(26.88,3.07)" r="6.5"><circle class="node" r="0" node_type="middle"></circle><text text-anchor="middle" font-size="8" font-weight="bold" y="2.5" class="node-label"></text></g><g class="noselect gnode" transform="translate(20.98,-11.91)" r="6.5"><circle class="node" r="0" node_type="middle"></circle><text text-anchor="middle" font-size="8" font-weight="bold" y="2.5" class="node-label"></text></g><g class="noselect gnode" transform="translate(15.94,-27.14)" r="6.5"><circle class="node" r="0" node_type="middle"></circle><text text-anchor="middle" font-size="8" font-weight="bold" y="2.5" class="node-label"></text></g><g class="noselect gnode" transform="translate(11.58,-42.40)" r="6.5"><circle class="node" r="0" node_type="middle"></circle><text text-anchor="middle" font-size="8" font-weight="bold" y="2.5" class="node-label"></text></g><g class="noselect gnode" transform="translate(37.25,287.78)" r="6.5"><circle class="node" r="0" node_type="middle"></circle><text text-anchor="middle" font-size="8" font-weight="bold" y="2.5" class="node-label"></text></g><g class="noselect gnode" transform="translate(38.84,272.05)" r="6.5"><circle class="node" r="0" node_type="middle"></circle><text text-anchor="middle" font-size="8" font-weight="bold" y="2.5" class="node-label"></text></g><g class="noselect gnode" transform="translate(41.21,256.30)" r="6.5"><circle class="node" r="0" node_type="middle"></circle><text text-anchor="middle" font-size="8" font-weight="bold" y="2.5" class="node-label"></text></g><g class="noselect gnode" transform="translate(44.37,240.59)" r="6.5"><circle class="node" r="0" node_type="middle"></circle><text text-anchor="middle" font-size="8" font-weight="bold" y="2.5" class="node-label"></text></g><g class="noselect gnode" transform="translate(48.34,225.02)" r="6.5"><circle class="node" r="0" node_type="middle"></circle><text text-anchor="middle" font-size="8" font-weight="bold" y="2.5" class="node-label"></text></g><g class="noselect gnode" transform="translate(50.42,333.97)" r="6.5"><circle class="node" r="0" node_type="middle"></circle><text text-anchor="middle" font-size="8" font-weight="bold" y="2.5" class="node-label"></text></g><g class="noselect gnode" transform="translate(36.83,339.75)" r="6.5"><circle class="node" r="0" node_type="middle"></circle><text text-anchor="middle" font-size="8" font-weight="bold" y="2.5" class="node-label"></text></g><g class="noselect gnode" transform="translate(35.80,316.26)" r="6.5"><circle class="node" r="0" node_type="middle"></circle><text text-anchor="middle" font-size="8" font-weight="bold" y="2.5" class="node-label"></text></g><g class="noselect gnode" transform="translate(6.33,-62.65)" r="6.5"><circle class="node" r="0" node_type="middle"></circle><text text-anchor="middle" font-size="8" font-weight="bold" y="2.5" class="node-label"></text></g><g class="noselect gnode" transform="translate(42.28,100.17)" r="6.5"><circle class="node" r="0" node_type="middle"></circle><text text-anchor="middle" font-size="8" font-weight="bold" y="2.5" class="node-label"></text></g><g class="noselect gnode" transform="translate(46.38,34.88)" r="6.5"><circle class="node" r="0" node_type="middle"></circle><text text-anchor="middle" font-size="8" font-weight="bold" y="2.5" class="node-label"></text></g><g class="noselect gnode" transform="translate(56.59,200.11)" r="6.5"><circle class="node" r="0" node_type="middle"></circle><text text-anchor="middle" font-size="8" font-weight="bold" y="2.5" class="node-label"></text></g></g><line class="drag_line" x1="0" y1="0" x2="0" y2="0"></line></g></g></svg>