<svg xmlns="http://www.w3.org/2000/svg" viewBox="0 0 760 640" width="760" height="640"><style>svg {
  display: block;
  min-width: 100%;
  width: 100%;
  min-height: 100%;
}

circle.node {
  stroke: #ccc;
  stroke-width: 1px;
  opacity: 1;
  fill: white;
}

circle.node.label {
    stroke: transparent;
    stroke-width: 0;
    fill: white;
}

circle.outline_node {
    stroke-width: 1px;
    fill: red;
}

circle.protein {
    fill: gray;
    fill-opacity: 0.5;
    stroke-width: 4;
}

circle.hidden_outline {
    stroke-width: 0px;
}


line.link {
  stroke: #999;
  stroke-opacity: 0.8;
  stroke-width: 2;
}

line.basepair {
  stroke: red;
}

line.intermolecule {
  stroke: blue;
}

line.chain_chain {
  stroke-dasharray: 3,3;
}

line.fake {
  stroke: green;
}

.transparent {
    fill: transparent;
    stroke-width: 0;
    stroke-opacity: 0;
    opacity: 0;
    visibility: hidden;
}

.drag_line {
  stroke: #999;
  stroke-width: 2;
  pointer-events: none;
}

.drag_line_hidden {
  stroke: #999;
  stroke-width: 0;
  pointer-events: none;
}

.d3-tip {
    line-height: 1;
    font-weight: bold;
    padding: 6px;
    background: rgba(0, 0, 0, 0.6);
    color: #fff;
    border-radius: 4px;
    pointer-events: none;
          }

text.node-label {
    font-weight: bold;
    font-family: Tahoma, Geneva, sans-serif;
    color: rgb(100,100,100);
    pointer-events: none;
}

text {
    pointer-events: none;
}

g.gnode {

}

circle.outline_node.selected {
    visibility: visible;
}

circle.outline_node {
    visibility: hidden;
}

.brush .extent {
  fill-opacity: .1;
  stroke: #fff;
  shape-rendering: crispEdges;
}

.noselect {
    -webkit-touch-callout: none;
    -webkit-user-select: none;
    -khtml-user-select: none;
    -moz-user-select: none;
    -ms-user-select: none;
    user-select: none;
}

svg {
  display: block;
  min-width: 100%;
  width: 100%;
  min-height: 100%;
}

circle.node {
  stroke: #ccc;
  stroke-width: 1px;
  opacity: 1;
  fill: white;
}

circle.node.label {
    stroke: transparent;
    stroke-width: 0;
    fill: white;
}

circle.outline_node {
    stroke-width: 1px;
    fill: red;
}

circle.protein {
    fill: gray;
    fill-opacity: 0.5;
    stroke-width: 4;
}

circle.hidden_outline {
    stroke-width: 0px;
}


line.link {
  stroke: #999;
  stroke-opacity: 0.8;
  stroke-width: 2;
}

line.basepair {
  stroke: red;
}

line.intermolecule {
  stroke: blue;
}

line.chain_chain {
  stroke-dasharray: 3,3;
}

line.fake {
  stroke: green;
}

.transparent {
    fill: transparent;
    stroke-width: 0;
    stroke-opacity: 0;
    opacity: 0;
    visibility: hidden;
}

.drag_line {
  stroke: #999;
  stroke-width: 2;
  pointer-events: none;
}

.drag_line_hidden {
  stroke: #999;
  stroke-width: 0;
  pointer-events: none;
}

.d3-tip {
    line-height: 1;
    font-weight: bold;
    padding: 6px;
    background: rgba(0, 0, 0, 0.6);
    color: #fff;
    border-radius: 4px;
    pointer-events: none;
          }

text.node-label {
    font-weight: bold;
    font-family: Tahoma, Geneva, sans-serif;
    color: rgb(100,100,100);
    pointer-events: none;
}

text {
    pointer-events: none;
}

g.gnode {

}

circle.outline_node.selected {
    visibility: visible;
}

circle.outline_node {
    visibility: hidden;
}

.brush .extent {
  fill-opacity: .1;
  stroke: #fff;
  shape-rendering: crispEdges;
}

.noselect {
    -webkit-touch-callout: none;
    -webkit-user-select: none;
    -khtml-user-select: none;
    -moz-user-select: none;
    -ms-user-select: none;
    user-select: none;
}
/*# sourceURL=/Users/yumanakamura/ipy_sandbox/sandbox/claude_sandbox/mrna-transformer/scripts/eval/prerender/forna_vendor/fornac.css*/</style><style></style><g><g class="brush" style="pointer-events: all; -webkit-tap-highlight-color: rgba(0, 0, 0, 0);"><rect class="background" x="0" width="760" y="0" height="640" style="visibility: hidden; cursor: auto;"></rect><rect class="extent" x="0" width="0" y="0" height="0" style="cursor: move;"></rect><g class="resize n" transform="translate(0,0)" style="cursor: ns-resize; display: none;"><rect y="-3" width="0" height="6" style="visibility: hidden;"></rect></g><g class="resize e" transform="translate(0,0)" style="cursor: ew-resize; display: none;"><rect x="-3" width="6" height="0" style="visibility: hidden;"></rect></g><g class="resize s" transform="translate(0,0)" style="cursor: ns-resize; display: none;"><rect y="-3" width="0" height="6" style="visibility: hidden;"></rect></g><g class="resize w" transform="translate(0,0)" style="cursor: ew-resize; display: none;"><rect x="-3" width="6" height="0" style="visibility: hidden;"></rect></g><g class="resize nw" transform="translate(0,0)" style="cursor: nwse-resize; display: none;"><rect x="-3" y="-3" width="6" height="6" style="visibility: hidden;"></rect></g><g class="resize ne" transform="translate(0,0)" style="cursor: nesw-resize; display: none;"><rect x="-3" y="-3" width="6" height="6" style="visibility: hidden;"></rect></g><g class="resize se" transform="translate(0,0)" style="cursor: nwse-resize; display: none;"><rect x="-3" y="-3" width="6" height="6" style="visibility: hidden;"></rect></g><g class="resize sw" transform="translate(0,0)" style="cursor: nesw-resize; display: none;"><rect x="-3" y="-3" width="6" height="6" style="visibility: hidden;"></rect></g></g><g transform="translate(304.14,102.88) scale(1.28)"><g><line class="link backbone" x1="22.14" y1="382.55" x2="7.56" y2="379.16"></line><line class="link backbone" x1="7.56" y1="379.16" x2="-3.55" y2="369.04"></line><line class="link backbone" x1="-3.55" y1="369.04" x2="-7.84" y2="354.59"></line><line class="link backbone" x1="-7.84" y1="354.59" x2="-4.15" y2="339.89"></line><line class="link backbone" x1="-4.15" y1="339.89" x2="6.32" y2="329.09"></line><line class="link basepair" x1="21.03" y1="324.40" x2="35.55" y2="328.17"></line><line class="link backbone" x1="6.32" y1="329.09" x2="21.03" y2="324.40"></line><line class="link basepair" x1="25.30" y1="309.16" x2="39.41" y2="312.89"></line><line class="link backbone" x1="21.03" y1="324.40" x2="25.30" y2="309.16"></line><line class="link basepair" x1="29.31" y1="293.77" x2="43.47" y2="297.33"></line><line class="link backbone" x1="25.30" y1="309.16" x2="29.31" y2="293.77"></line><line class="link basepair" x1="33.05" y1="278.33" x2="47.28" y2="281.61"></line><line class="link backbone" x1="29.31" y1="293.77" x2="33.05" y2="278.33"></line><line class="link basepair" x1="36.42" y1="262.85" x2="50.72" y2="265.77"></line><line class="link backbone" x1="33.05" y1="278.33" x2="36.42" y2="262.85"></line><line class="link basepair" x1="39.36" y1="247.32" x2="53.79" y2="249.95"></line><line class="link backbone" x1="36.42" y1="262.85" x2="39.36" y2="247.32"></line><line class="link basepair" x1="42.07" y1="231.76" x2="56.53" y2="234.21"></line><line class="link backbone" x1="39.36" y1="247.32" x2="42.07" y2="231.76"></line><line class="link basepair" x1="44.68" y1="216.06" x2="59.13" y2="218.49"></line><line class="link backbone" x1="42.07" y1="231.76" x2="44.68" y2="216.06"></line><line class="link basepair" x1="47.35" y1="200.34" x2="61.81" y2="202.92"></line><line class="link backbone" x1="44.68" y1="216.06" x2="47.35" y2="200.34"></line><line class="link basepair" x1="50.32" y1="184.59" x2="64.67" y2="187.39"></line><line class="link backbone" x1="47.35" y1="200.34" x2="50.32" y2="184.59"></line><line class="link basepair" x1="53.57" y1="168.80" x2="67.86" y2="171.85"></line><line class="link backbone" x1="50.32" y1="184.59" x2="53.57" y2="168.80"></line><line class="link basepair" x1="57.07" y1="153.07" x2="71.32" y2="156.37"></line><line class="link backbone" x1="53.57" y1="168.80" x2="57.07" y2="153.07"></line><line class="link basepair" x1="60.78" y1="137.47" x2="75.00" y2="140.93"></line><line class="link backbone" x1="57.07" y1="153.07" x2="60.78" y2="137.47"></line><line class="link basepair" x1="64.75" y1="121.87" x2="78.89" y2="125.65"></line><line class="link backbone" x1="60.78" y1="137.47" x2="64.75" y2="121.87"></line><line class="link basepair" x1="69.01" y1="106.33" x2="83.19" y2="110.55"></line><line class="link backbone" x1="64.75" y1="121.87" x2="69.01" y2="106.33"></line><line class="link backbone" x1="69.01" y1="106.33" x2="65.58" y2="91.33"></line><line class="link basepair" x1="76.96" y1="80.83" x2="90.95" y2="85.52"></line><line class="link backbone" x1="65.58" y1="91.33" x2="76.96" y2="80.83"></line><line class="link basepair" x1="82.89" y1="65.28" x2="96.37" y2="71.42"></line><line class="link backbone" x1="76.96" y1="80.83" x2="82.89" y2="65.28"></line><line class="link basepair" x1="85.54" y1="48.64" x2="100.27" y2="46.96"></line><line class="link backbone" x1="82.89" y1="65.28" x2="85.54" y2="48.64"></line><line class="link basepair" x1="84.85" y1="31.91" x2="99.38" y2="31.81"></line><line class="link backbone" x1="85.54" y1="48.64" x2="84.85" y2="31.91"></line><line class="link basepair" x1="85.41" y1="15.33" x2="99.94" y2="16.26"></line><line class="link backbone" x1="84.85" y1="31.91" x2="85.41" y2="15.33"></line><line class="link basepair" x1="86.59" y1="-0.75" x2="101.51" y2="0.79"></line><line class="link backbone" x1="85.41" y1="15.33" x2="86.59" y2="-0.75"></line><line class="link backbone" x1="86.59" y1="-0.75" x2="76.09" y2="-12.13"></line><line class="link backbone" x1="76.09" y1="-12.13" x2="75.15" y2="-27.18"></line><line class="link backbone" x1="75.15" y1="-27.18" x2="84.19" y2="-39.45"></line><line class="link backbone" x1="84.19" y1="-39.45" x2="98.90" y2="-42.87"></line><line class="link backbone" x1="98.90" y1="-42.87" x2="112.48" y2="-36.23"></line><line class="link backbone" x1="112.48" y1="-36.23" x2="118.57" y2="-22.31"></line><line class="link backbone" x1="118.57" y1="-22.31" x2="114.30" y2="-7.85"></line><line class="link basepair" x1="101.51" y1="0.79" x2="86.59" y2="-0.75"></line><line class="link backbone" x1="114.30" y1="-7.85" x2="101.51" y2="0.79"></line><line class="link basepair" x1="99.94" y1="16.26" x2="85.41" y2="15.33"></line><line class="link backbone" x1="101.51" y1="0.79" x2="99.94" y2="16.26"></line><line class="link basepair" x1="99.38" y1="31.81" x2="84.85" y2="31.91"></line><line class="link backbone" x1="99.94" y1="16.26" x2="99.38" y2="31.81"></line><line class="link basepair" x1="100.27" y1="46.96" x2="85.54" y2="48.64"></line><line class="link backbone" x1="99.38" y1="31.81" x2="100.27" y2="46.96"></line><line class="link backbone" x1="100.27" y1="46.96" x2="107.34" y2="60.63"></line><line class="link basepair" x1="96.37" y1="71.42" x2="82.89" y2="65.28"></line><line class="link backbone" x1="107.34" y1="60.63" x2="96.37" y2="71.42"></line><line class="link basepair" x1="90.95" y1="85.52" x2="76.96" y2="80.83"></line><line class="link backbone" x1="96.37" y1="71.42" x2="90.95" y2="85.52"></line><line class="link backbone" x1="90.95" y1="85.52" x2="94.39" y2="100.25"></line><line class="link basepair" x1="83.19" y1="110.55" x2="69.01" y2="106.33"></line><line class="link backbone" x1="94.39" y1="100.25" x2="83.19" y2="110.55"></line><line class="link basepair" x1="78.89" y1="125.65" x2="64.75" y2="121.87"></line><line class="link backbone" x1="83.19" y1="110.55" x2="78.89" y2="125.65"></line><line class="link basepair" x1="75.00" y1="140.93" x2="60.78" y2="137.47"></line><line class="link backbone" x1="78.89" y1="125.65" x2="75.00" y2="140.93"></line><line class="link basepair" x1="71.32" y1="156.37" x2="57.07" y2="153.07"></line><line class="link backbone" x1="75.00" y1="140.93" x2="71.32" y2="156.37"></line><line class="link basepair" x1="67.86" y1="171.85" x2="53.57" y2="168.80"></line><line class="link backbone" x1="71.32" y1="156.37" x2="67.86" y2="171.85"></line><line class="link basepair" x1="64.67" y1="187.39" x2="50.32" y2="184.59"></line><line class="link backbone" x1="67.86" y1="171.85" x2="64.67" y2="187.39"></line><line class="link basepair" x1="61.81" y1="202.92" x2="47.35" y2="200.34"></line><line class="link backbone" x1="64.67" y1="187.39" x2="61.81" y2="202.92"></line><line class="link basepair" x1="59.13" y1="218.49" x2="44.68" y2="216.06"></line><line class="link backbone" x1="61.81" y1="202.92" x2="59.13" y2="218.49"></line><line class="link basepair" x1="56.53" y1="234.21" x2="42.07" y2="231.76"></line><line class="link backbone" x1="59.13" y1="218.49" x2="56.53" y2="234.21"></line><line class="link basepair" x1="53.79" y1="249.95" x2="39.36" y2="247.32"></line><line class="link backbone" x1="56.53" y1="234.21" x2="53.79" y2="249.95"></line><line class="link basepair" x1="50.72" y1="265.77" x2="36.42" y2="262.85"></line><line class="link backbone" x1="53.79" y1="249.95" x2="50.72" y2="265.77"></line><line class="link basepair" x1="47.28" y1="281.61" x2="33.05" y2="278.33"></line><line class="link backbone" x1="50.72" y1="265.77" x2="47.28" y2="281.61"></line><line class="link basepair" x1="43.47" y1="297.33" x2="29.31" y2="293.77"></line><line class="link backbone" x1="47.28" y1="281.61" x2="43.47" y2="297.33"></line><line class="link basepair" x1="39.41" y1="312.89" x2="25.30" y2="309.16"></line><line class="link backbone" x1="43.47" y1="297.33" x2="39.41" y2="312.89"></line><line class="link basepair" x1="35.55" y1="328.17" x2="21.03" y2="324.40"></line><line class="link backbone" x1="39.41" y1="312.89" x2="35.55" y2="328.17"></line><line class="link backbone" x1="35.55" y1="328.17" x2="46.23" y2="339.14"></line><line class="link backbone" x1="46.23" y1="339.14" x2="50.28" y2="353.55"></line><line class="link label_link" x1="33.05" y1="278.33" x2="17.99" y2="274.25"></line><line class="link label_link" x1="64.75" y1="121.87" x2="49.29" y2="119.60"></line><line class="link label_link" x1="75.15" y1="-27.18" x2="61.82" y2="-34.96"></line><line class="link label_link" x1="107.34" y1="60.63" x2="122.64" y2="63.71"></line><line class="link label_link" x1="61.81" y1="202.92" x2="76.93" y2="206.73"></line><line class="link label_link" x1="50.28" y1="353.55" x2="65.29" y2="357.36"></line><line class="link fake transparent" x1="21.03" y1="324.40" x2="30.28" y2="318.74"></line><line class="link fake transparent" x1="21.03" y1="324.40" x2="39.41" y2="312.89"></line><line class="link fake transparent" x1="25.30" y1="309.16" x2="30.28" y2="318.74"></line><line class="link fake transparent" x1="39.41" y1="312.89" x2="30.28" y2="318.74"></line><line class="link fake transparent" x1="35.55" y1="328.17" x2="30.28" y2="318.74"></line><line class="link fake transparent" x1="25.30" y1="309.16" x2="34.43" y2="303.30"></line><line class="link fake transparent" x1="29.31" y1="293.77" x2="34.43" y2="303.30"></line><line class="link fake transparent" x1="43.47" y1="297.33" x2="34.43" y2="303.30"></line><line class="link fake transparent" x1="39.41" y1="312.89" x2="34.43" y2="303.30"></line><line class="link fake transparent" x1="29.31" y1="293.77" x2="38.36" y2="287.79"></line><line class="link fake transparent" x1="33.05" y1="278.33" x2="38.36" y2="287.79"></line><line class="link fake transparent" x1="47.28" y1="281.61" x2="38.36" y2="287.79"></line><line class="link fake transparent" x1="43.47" y1="297.33" x2="38.36" y2="287.79"></line><line class="link fake transparent" x1="33.05" y1="278.33" x2="41.98" y2="272.16"></line><line class="link fake transparent" x1="36.42" y1="262.85" x2="41.98" y2="272.16"></line><line class="link fake transparent" x1="50.72" y1="265.77" x2="41.98" y2="272.16"></line><line class="link fake transparent" x1="47.28" y1="281.61" x2="41.98" y2="272.16"></line><line class="link fake transparent" x1="36.42" y1="262.85" x2="45.16" y2="256.49"></line><line class="link fake transparent" x1="39.36" y1="247.32" x2="45.16" y2="256.49"></line><line class="link fake transparent" x1="53.79" y1="249.95" x2="45.16" y2="256.49"></line><line class="link fake transparent" x1="50.72" y1="265.77" x2="45.16" y2="256.49"></line><line class="link fake transparent" x1="39.36" y1="247.32" x2="47.99" y2="240.86"></line><line class="link fake transparent" x1="42.07" y1="231.76" x2="47.99" y2="240.86"></line><line class="link fake transparent" x1="56.53" y1="234.21" x2="47.99" y2="240.86"></line><line class="link fake transparent" x1="53.79" y1="249.95" x2="47.99" y2="240.86"></line><line class="link fake transparent" x1="42.07" y1="231.76" x2="50.60" y2="225.14"></line><line class="link fake transparent" x1="44.68" y1="216.06" x2="50.60" y2="225.14"></line><line class="link fake transparent" x1="59.13" y1="218.49" x2="50.60" y2="225.14"></line><line class="link fake transparent" x1="56.53" y1="234.21" x2="50.60" y2="225.14"></line><line class="link fake transparent" x1="44.68" y1="216.06" x2="53.19" y2="209.42"></line><line class="link fake transparent" x1="47.35" y1="200.34" x2="53.19" y2="209.42"></line><line class="link fake transparent" x1="61.81" y1="202.92" x2="53.19" y2="209.42"></line><line class="link fake transparent" x1="59.13" y1="218.49" x2="53.19" y2="209.42"></line><line class="link fake transparent" x1="47.35" y1="200.34" x2="55.93" y2="193.82"></line><line class="link fake transparent" x1="50.32" y1="184.59" x2="55.93" y2="193.82"></line><line class="link fake transparent" x1="64.67" y1="187.39" x2="55.93" y2="193.82"></line><line class="link fake transparent" x1="61.81" y1="202.92" x2="55.93" y2="193.82"></line><line class="link fake transparent" x1="50.32" y1="184.59" x2="59.02" y2="178.15"></line><line class="link fake transparent" x1="53.57" y1="168.80" x2="59.02" y2="178.15"></line><line class="link fake transparent" x1="67.86" y1="171.85" x2="59.02" y2="178.15"></line><line class="link fake transparent" x1="64.67" y1="187.39" x2="59.02" y2="178.15"></line><line class="link fake transparent" x1="53.57" y1="168.80" x2="62.39" y2="162.51"></line><line class="link fake transparent" x1="57.07" y1="153.07" x2="62.39" y2="162.51"></line><line class="link fake transparent" x1="71.32" y1="156.37" x2="62.39" y2="162.51"></line><line class="link fake transparent" x1="67.86" y1="171.85" x2="62.39" y2="162.51"></line><line class="link fake transparent" x1="57.07" y1="153.07" x2="65.99" y2="146.96"></line><line class="link fake transparent" x1="60.78" y1="137.47" x2="65.99" y2="146.96"></line><line class="link fake transparent" x1="75.00" y1="140.93" x2="65.99" y2="146.96"></line><line class="link fake transparent" x1="71.32" y1="156.37" x2="65.99" y2="146.96"></line><line class="link fake transparent" x1="60.78" y1="137.47" x2="69.76" y2="131.50"></line><line class="link fake transparent" x1="64.75" y1="121.87" x2="69.76" y2="131.50"></line><line class="link fake transparent" x1="78.89" y1="125.65" x2="69.76" y2="131.50"></line><line class="link fake transparent" x1="75.00" y1="140.93" x2="69.76" y2="131.50"></line><line class="link fake transparent" x1="64.75" y1="121.87" x2="73.87" y2="116.08"></line><line class="link fake transparent" x1="69.01" y1="106.33" x2="73.87" y2="116.08"></line><line class="link fake transparent" x1="83.19" y1="110.55" x2="73.87" y2="116.08"></line><line class="link fake transparent" x1="78.89" y1="125.65" x2="73.87" y2="116.08"></line><line class="link fake transparent" x1="76.96" y1="80.83" x2="86.46" y2="75.60"></line><line class="link fake transparent" x1="82.89" y1="65.28" x2="86.46" y2="75.60"></line><line class="link fake transparent" x1="96.37" y1="71.42" x2="86.46" y2="75.60"></line><line class="link fake transparent" x1="90.95" y1="85.52" x2="86.46" y2="75.60"></line><line class="link fake transparent" x1="85.54" y1="48.64" x2="92.14" y2="39.87"></line><line class="link fake transparent" x1="84.85" y1="31.91" x2="92.14" y2="39.87"></line><line class="link fake transparent" x1="99.38" y1="31.81" x2="92.14" y2="39.87"></line><line class="link fake transparent" x1="100.27" y1="46.96" x2="92.14" y2="39.87"></line><line class="link fake transparent" x1="84.85" y1="31.91" x2="92.13" y2="23.79"></line><line class="link fake transparent" x1="85.41" y1="15.33" x2="92.13" y2="23.79"></line><line class="link fake transparent" x1="99.94" y1="16.26" x2="92.13" y2="23.79"></line><line class="link fake transparent" x1="99.38" y1="31.81" x2="92.13" y2="23.79"></line><line class="link fake transparent" x1="85.41" y1="15.33" x2="93.22" y2="7.78"></line><line class="link fake transparent" x1="86.59" y1="-0.75" x2="93.22" y2="7.78"></line><line class="link fake transparent" x1="101.51" y1="0.79" x2="93.22" y2="7.78"></line><line class="link fake transparent" x1="99.94" y1="16.26" x2="93.22" y2="7.78"></line><line class="link fake transparent" x1="22.14" y1="382.55" x2="21.25" y2="353.59"></line><line class="link fake transparent" x1="22.14" y1="382.55" x2="21.03" y2="324.40"></line><line class="link fake transparent" x1="7.56" y1="379.16" x2="21.25" y2="353.59"></line><line class="link fake transparent" x1="7.56" y1="379.16" x2="35.55" y2="328.17"></line><line class="link fake transparent" x1="-3.55" y1="369.04" x2="21.25" y2="353.59"></line><line class="link fake transparent" x1="-3.55" y1="369.04" x2="46.23" y2="339.14"></line><line class="link fake transparent" x1="-7.84" y1="354.59" x2="21.25" y2="353.59"></line><line class="link fake transparent" x1="-7.84" y1="354.59" x2="50.28" y2="353.55"></line><line class="link fake transparent" x1="-4.15" y1="339.89" x2="21.25" y2="353.59"></line><line class="link fake transparent" x1="-4.15" y1="339.89" x2="46.79" y2="368.26"></line><line class="link fake transparent" x1="6.32" y1="329.09" x2="21.25" y2="353.59"></line><line class="link fake transparent" x1="6.32" y1="329.09" x2="36.46" y2="379.09"></line><line class="link fake transparent" x1="21.03" y1="324.40" x2="21.25" y2="353.59"></line><line class="link fake transparent" x1="21.03" y1="324.40" x2="22.14" y2="382.55"></line><line class="link fake transparent" x1="35.55" y1="328.17" x2="21.25" y2="353.59"></line><line class="link fake transparent" x1="35.55" y1="328.17" x2="7.56" y2="379.16"></line><line class="link fake transparent" x1="46.23" y1="339.14" x2="21.25" y2="353.59"></line><line class="link fake transparent" x1="46.23" y1="339.14" x2="-3.55" y2="369.04"></line><line class="link fake transparent" x1="50.28" y1="353.55" x2="21.25" y2="353.59"></line><line class="link fake transparent" x1="50.28" y1="353.55" x2="-7.84" y2="354.59"></line><line class="link fake transparent" x1="86.59" y1="-0.75" x2="96.40" y2="-20.76"></line><line class="link fake transparent" x1="86.59" y1="-0.75" x2="98.90" y2="-42.87"></line><line class="link fake transparent" x1="76.09" y1="-12.13" x2="96.40" y2="-20.76"></line><line class="link fake transparent" x1="76.09" y1="-12.13" x2="112.48" y2="-36.23"></line><line class="link fake transparent" x1="75.15" y1="-27.18" x2="96.40" y2="-20.76"></line><line class="link fake transparent" x1="75.15" y1="-27.18" x2="118.57" y2="-22.31"></line><line class="link fake transparent" x1="84.19" y1="-39.45" x2="96.40" y2="-20.76"></line><line class="link fake transparent" x1="84.19" y1="-39.45" x2="114.30" y2="-7.85"></line><line class="link fake transparent" x1="98.90" y1="-42.87" x2="96.40" y2="-20.76"></line><line class="link fake transparent" x1="98.90" y1="-42.87" x2="101.51" y2="0.79"></line><line class="link fake transparent" x1="112.48" y1="-36.23" x2="96.40" y2="-20.76"></line><line class="link fake transparent" x1="112.48" y1="-36.23" x2="86.59" y2="-0.75"></line><line class="link fake transparent" x1="118.57" y1="-22.31" x2="96.40" y2="-20.76"></line><line class="link fake transparent" x1="118.57" y1="-22.31" x2="76.09" y2="-12.13"></line><line class="link fake transparent" x1="114.30" y1="-7.85" x2="96.40" y2="-20.76"></line><line class="link fake transparent" x1="114.30" y1="-7.85" x2="75.15" y2="-27.18"></line><line class="link fake transparent" x1="101.51" y1="0.79" x2="96.40" y2="-20.76"></line><line class="link fake transparent" x1="101.51" y1="0.79" x2="84.19" y2="-39.45"></line><line class="link fake transparent" x1="69.01" y1="106.33" x2="79.92" y2="95.75"></line><line class="link fake transparent" x1="69.01" y1="106.33" x2="90.95" y2="85.52"></line><line class="link fake transparent" x1="65.58" y1="91.33" x2="79.92" y2="95.75"></line><line class="link fake transparent" x1="65.58" y1="91.33" x2="94.39" y2="100.25"></line><line class="link fake transparent" x1="76.96" y1="80.83" x2="79.92" y2="95.75"></line><line class="link fake transparent" x1="76.96" y1="80.83" x2="83.19" y2="110.55"></line><line class="link fake transparent" x1="90.95" y1="85.52" x2="79.92" y2="95.75"></line><line class="link fake transparent" x1="90.95" y1="85.52" x2="69.01" y2="106.33"></line><line class="link fake transparent" x1="94.39" y1="100.25" x2="79.92" y2="95.75"></line><line class="link fake transparent" x1="94.39" y1="100.25" x2="65.58" y2="91.33"></line><line class="link fake transparent" x1="83.19" y1="110.55" x2="79.92" y2="95.75"></line><line class="link fake transparent" x1="83.19" y1="110.55" x2="76.96" y2="80.83"></line><line class="link fake transparent" x1="82.89" y1="65.28" x2="94.12" y2="58.52"></line><line class="link fake transparent" x1="82.89" y1="65.28" x2="100.27" y2="46.96"></line><line class="link fake transparent" x1="85.54" y1="48.64" x2="94.12" y2="58.52"></line><line class="link fake transparent" x1="85.54" y1="48.64" x2="107.34" y2="60.63"></line><line class="link fake transparent" x1="100.27" y1="46.96" x2="94.12" y2="58.52"></line><line class="link fake transparent" x1="100.27" y1="46.96" x2="96.37" y2="71.42"></line><line class="link fake transparent" x1="107.34" y1="60.63" x2="94.12" y2="58.52"></line><line class="link fake transparent" x1="107.34" y1="60.63" x2="82.89" y2="65.28"></line><line class="link fake transparent" x1="96.37" y1="71.42" x2="94.12" y2="58.52"></line><line class="link fake transparent" x1="96.37" y1="71.42" x2="85.54" y2="48.64"></line></g><g><g class="noselect gnode" struct_name="m" transform="translate(22.14,382.55)" r="6.5"><circle class="node" r="6" node_type="nucleotide" style="fill: lightsalmon;"></circle><text text-anchor="middle" font-size="8" font-weight="bold" y="2.5" class="node-label">G</text></g><g class="noselect gnode" struct_name="m" transform="translate(7.56,379.16)" r="6.5"><circle class="node" r="6" node_type="nucleotide" style="fill: lightsalmon;"></circle><text text-anchor="middle" font-size="8" font-weight="bold" y="2.5" class="node-label">C</text></g><g class="noselect gnode" struct_name="m" transform="translate(-3.55,369.04)" r="6.5"><circle class="node" r="6" node_type="nucleotide" style="fill: lightsalmon;"></circle><text text-anchor="middle" font-size="8" font-weight="bold" y="2.5" class="node-label">U</text></g><g class="noselect gnode" struct_name="m" transform="translate(-7.84,354.59)" r="6.5"><circle class="node" r="6" node_type="nucleotide" style="fill: lightsalmon;"></circle><text text-anchor="middle" font-size="8" font-weight="bold" y="2.5" class="node-label">U</text></g><g class="noselect gnode" struct_name="m" transform="translate(-4.15,339.89)" r="6.5"><circle class="node" r="6" node_type="nucleotide" style="fill: lightsalmon;"></circle><text text-anchor="middle" font-size="8" font-weight="bold" y="2.5" class="node-label">G</text></g><g class="noselect gnode" struct_name="m" transform="translate(6.32,329.09)" r="6.5"><circle class="node" r="6" node_type="nucleotide" style="fill: lightsalmon;"></circle><text text-anchor="middle" font-size="8" font-weight="bold" y="2.5" class="node-label">G</text></g><g class="noselect gnode" struct_name="m" transform="translate(21.03,324.40)" r="6.5"><circle class="node" r="6" node_type="nucleotide" style="fill: lightgreen;"></circle><text text-anchor="middle" font-size="8" font-weight="bold" y="2.5" class="node-label">A</text></g><g class="noselect gnode" struct_name="m" transform="translate(25.30,309.16)" r="6.5"><circle class="node" r="6" node_type="nucleotide" style="fill: lightgreen;"></circle><text text-anchor="middle" font-size="8" font-weight="bold" y="2.5" class="node-label">A</text></g><g class="noselect gnode" struct_name="m" transform="translate(29.31,293.77)" r="6.5"><circle class="node" r="6" node_type="nucleotide" style="fill: lightgreen;"></circle><text text-anchor="middle" font-size="8" font-weight="bold" y="2.5" class="node-label">G</text></g><g class="noselect gnode" struct_name="m" transform="translate(33.05,278.33)" r="6.5"><circle class="node" r="6" node_type="nucleotide" style="fill: lightgreen;"></circle><text text-anchor="middle" font-size="8" font-weight="bold" y="2.5" class="node-label">A</text></g><g class="noselect gnode" struct_name="m" transform="translate(36.42,262.85)" r="6.5"><circle class="node" r="6" node_type="nucleotide" style="fill: lightgreen;"></circle><text text-anchor="middle" font-size="8" font-weight="bold" y="2.5" class="node-label">C</text></g><g class="noselect gnode" struct_name="m" transform="translate(39.36,247.32)" r="6.5"><circle class="node" r="6" node_type="nucleotide" style="fill: lightgreen;"></circle><text text-anchor="middle" font-size="8" font-weight="bold" y="2.5" class="node-label">U</text></g><g class="noselect gnode" struct_name="m" transform="translate(42.07,231.76)" r="6.5"><circle class="node" r="6" node_type="nucleotide" style="fill: lightgreen;"></circle><text text-anchor="middle" font-size="8" font-weight="bold" y="2.5" class="node-label">G</text></g><g class="noselect gnode" struct_name="m" transform="translate(44.68,216.06)" r="6.5"><circle class="node" r="6" node_type="nucleotide" style="fill: lightgreen;"></circle><text text-anchor="middle" font-size="8" font-weight="bold" y="2.5" class="node-label">G</text></g><g class="noselect gnode" struct_name="m" transform="translate(47.35,200.34)" r="6.5"><circle class="node" r="6" node_type="nucleotide" style="fill: lightgreen;"></circle><text text-anchor="middle" font-size="8" font-weight="bold" y="2.5" class="node-label">C</text></g><g class="noselect gnode" struct_name="m" transform="translate(50.32,184.59)" r="6.5"><circle class="node" r="6" node_type="nucleotide" style="fill: lightgreen;"></circle><text text-anchor="middle" font-size="8" font-weight="bold" y="2.5" class="node-label">G</text></g><g class="noselect gnode" struct_name="m" transform="translate(53.57,168.80)" r="6.5"><circle class="node" r="6" node_type="nucleotide" style="fill: lightgreen;"></circle><text text-anchor="middle" font-size="8" font-weight="bold" y="2.5" class="node-label">C</text></g><g class="noselect gnode" struct_name="m" transform="translate(57.07,153.07)" r="6.5"><circle class="node" r="6" node_type="nucleotide" style="fill: lightgreen;"></circle><text text-anchor="middle" font-size="8" font-weight="bold" y="2.5" class="node-label">U</text></g><g class="noselect gnode" struct_name="m" transform="translate(60.78,137.47)" r="6.5"><circle class="node" r="6" node_type="nucleotide" style="fill: lightgreen;"></circle><text text-anchor="middle" font-size="8" font-weight="bold" y="2.5" class="node-label">U</text></g><g class="noselect gnode" struct_name="m" transform="translate(64.75,121.87)" r="6.5"><circle class="node" r="6" node_type="nucleotide" style="fill: lightgreen;"></circle><text text-anchor="middle" font-size="8" font-weight="bold" y="2.5" class="node-label">C</text></g><g class="noselect gnode" struct_name="m" transform="translate(69.01,106.33)" r="6.5"><circle class="node" r="6" node_type="nucleotide" style="fill: lightgreen;"></circle><text text-anchor="middle" font-size="8" font-weight="bold" y="2.5" class="node-label">A</text></g><g class="noselect gnode" struct_name="m" transform="translate(65.58,91.33)" r="6.5"><circle class="node" r="6" node_type="nucleotide" style="fill: rgb(219, 219, 141);"></circle><text text-anchor="middle" font-size="8" font-weight="bold" y="2.5" class="node-label">G</text></g><g class="noselect gnode" struct_name="m" transform="translate(76.96,80.83)" r="6.5"><circle class="node" r="6" node_type="nucleotide" style="fill: lightgreen;"></circle><text text-anchor="middle" font-size="8" font-weight="bold" y="2.5" class="node-label">C</text></g><g class="noselect gnode" struct_name="m" transform="translate(82.89,65.28)" r="6.5"><circle class="node" r="6" node_type="nucleotide" style="fill: lightgreen;"></circle><text text-anchor="middle" font-size="8" font-weight="bold" y="2.5" class="node-label">G</text></g><g class="noselect gnode" struct_name="m" transform="translate(85.54,48.64)" r="6.5"><circle class="node" r="6" node_type="nucleotide" style="fill: lightgreen;"></circle><text text-anchor="middle" font-size="8" font-weight="bold" y="2.5" class="node-label">A</text></g><g class="noselect gnode" struct_name="m" transform="translate(84.85,31.91)" r="6.5"><circle class="node" r="6" node_type="nucleotide" style="fill: lightgreen;"></circle><text text-anchor="middle" font-size="8" font-weight="bold" y="2.5" class="node-label">U</text></g><g class="noselect gnode" struct_name="m" transform="translate(85.41,15.33)" r="6.5"><circle class="node" r="6" node_type="nucleotide" style="fill: lightgreen;"></circle><text text-anchor="middle" font-size="8" font-weight="bold" y="2.5" class="node-label">G</text></g><g class="noselect gnode" struct_name="m" transform="translate(86.59,-0.75)" r="6.5"><circle class="node" r="6" node_type="nucleotide" style="fill: lightgreen;"></circle><text text-anchor="middle" font-size="8" font-weight="bold" y="2.5" class="node-label">G</text></g><g class="noselect gnode" struct_name="m" transform="translate(76.09,-12.13)" r="6.5"><circle class="node" r="6" node_type="nucleotide" style="fill: lightblue;"></circle><text text-anchor="middle" font-size="8" font-weight="bold" y="2.5" class="node-label">A</text></g><g class="noselect gnode" struct_name="m" transform="translate(75.15,-27.18)" r="6.5"><circle class="node" r="6" node_type="nucleotide" style="fill: lightblue;"></circle><text text-anchor="middle" font-size="8" font-weight="bold" y="2.5" class="node-label">A</text></g><g class="noselect gnode" struct_name="m" transform="translate(84.19,-39.45)" r="6.5"><circle class="node" r="6" node_type="nucleotide" style="fill: lightblue;"></circle><text text-anchor="middle" font-size="8" font-weight="bold" y="2.5" class="node-label">A</text></g><g class="noselect gnode" struct_name="m" transform="translate(98.90,-42.87)" r="6.5"><circle class="node" r="6" node_type="nucleotide" style="fill: lightblue;"></circle><text text-anchor="middle" font-size="8" font-weight="bold" y="2.5" class="node-label">U</text></g><g class="noselect gnode" struct_name="m" transform="translate(112.48,-36.23)" r="6.5"><circle class="node" r="6" node_type="nucleotide" style="fill: lightblue;"></circle><text text-anchor="middle" font-size="8" font-weight="bold" y="2.5" class="node-label">G</text></g><g class="noselect gnode" struct_name="m" transform="translate(118.57,-22.31)" r="6.5"><circle class="node" r="6" node_type="nucleotide" style="fill: lightblue;"></circle><text text-anchor="middle" font-size="8" font-weight="bold" y="2.5" class="node-label">U</text></g><g class="noselect gnode" struct_name="m" transform="translate(114.30,-7.85)" r="6.5"><circle class="node" r="6" node_type="nucleotide" style="fill: lightblue;"></circle><text text-anchor="middle" font-size="8" font-weight="bold" y="2.5" class="node-label">A</text></g><g class="noselect gnode" struct_name="m" transform="translate(101.51,0.79)" r="6.5"><circle class="node" r="6" node_type="nucleotide" style="fill: lightgreen;"></circle><text text-anchor="middle" font-size="8" font-weight="bold" y="2.5" class="node-label">C</text></g><g class="noselect gnode" struct_name="m" transform="translate(99.94,16.26)" r="6.5"><circle class="node" r="6" node_type="nucleotide" style="fill: lightgreen;"></circle><text text-anchor="middle" font-size="8" font-weight="bold" y="2.5" class="node-label">C</text></g><g class="noselect gnode" struct_name="m" transform="translate(99.38,31.81)" r="6.5"><circle class="node" r="6" node_type="nucleotide" style="fill: lightgreen;"></circle><text text-anchor="middle" font-size="8" font-weight="bold" y="2.5" class="node-label">A</text></g><g class="noselect gnode" struct_name="m" transform="translate(100.27,46.96)" r="6.5"><circle class="node" r="6" node_type="nucleotide" style="fill: lightgreen;"></circle><text text-anchor="middle" font-size="8" font-weight="bold" y="2.5" class="node-label">U</text></g><g class="noselect gnode" struct_name="m" transform="translate(107.34,60.63)" r="6.5"><circle class="node" r="6" node_type="nucleotide" style="fill: rgb(219, 219, 141);"></circle><text text-anchor="middle" font-size="8" font-weight="bold" y="2.5" class="node-label">C</text></g><g class="noselect gnode" struct_name="m" transform="translate(96.37,71.42)" r="6.5"><circle class="node" r="6" node_type="nucleotide" style="fill: lightgreen;"></circle><text text-anchor="middle" font-size="8" font-weight="bold" y="2.5" class="node-label">C</text></g><g class="noselect gnode" struct_name="m" transform="translate(90.95,85.52)" r="6.5"><circle class="node" r="6" node_type="nucleotide" style="fill: lightgreen;"></circle><text text-anchor="middle" font-size="8" font-weight="bold" y="2.5" class="node-label">G</text></g><g class="noselect gnode" struct_name="m" transform="translate(94.39,100.25)" r="6.5"><circle class="node" r="6" node_type="nucleotide" style="fill: rgb(219, 219, 141);"></circle><text text-anchor="middle" font-size="8" font-weight="bold" y="2.5" class="node-label">G</text></g><g class="noselect gnode" struct_name="m" transform="translate(83.19,110.55)" r="6.5"><circle class="node" r="6" node_type="nucleotide" style="fill: lightgreen;"></circle><text text-anchor="middle" font-size="8" font-weight="bold" y="2.5" class="node-label">U</text></g><g class="noselect gnode" struct_name="m" transform="translate(78.89,125.65)" r="6.5"><circle class="node" r="6" node_type="nucleotide" style="fill: lightgreen;"></circle><text text-anchor="middle" font-size="8" font-weight="bold" y="2.5" class="node-label">G</text></g><g class="noselect gnode" struct_name="m" transform="translate(75.00,140.93)" r="6.5"><circle class="node" r="6" node_type="nucleotide" style="fill: lightgreen;"></circle><text text-anchor="middle" font-size="8" font-weight="bold" y="2.5" class="node-label">A</text></g><g class="noselect gnode" struct_name="m" transform="translate(71.32,156.37)" r="6.5"><circle class="node" r="6" node_type="nucleotide" style="fill: lightgreen;"></circle><text text-anchor="middle" font-size="8" font-weight="bold" y="2.5" class="node-label">A</text></g><g class="noselect gnode" struct_name="m" transform="translate(67.86,171.85)" r="6.5"><circle class="node" r="6" node_type="nucleotide" style="fill: lightgreen;"></circle><text text-anchor="middle" font-size="8" font-weight="bold" y="2.5" class="node-label">G</text></g><g class="noselect gnode" struct_name="m" transform="translate(64.67,187.39)" r="6.5"><circle class="node" r="6" node_type="nucleotide" style="fill: lightgreen;"></circle><text text-anchor="middle" font-size="8" font-weight="bold" y="2.5" class="node-label">C</text></g><g class="noselect gnode" struct_name="m" transform="translate(61.81,202.92)" r="6.5"><circle class="node" r="6" node_type="nucleotide" style="fill: lightgreen;"></circle><text text-anchor="middle" font-size="8" font-weight="bold" y="2.5" class="node-label">G</text></g><g class="noselect gnode" struct_name="m" transform="translate(59.13,218.49)" r="6.5"><circle class="node" r="6" node_type="nucleotide" style="fill: lightgreen;"></circle><text text-anchor="middle" font-size="8" font-weight="bold" y="2.5" class="node-label">C</text></g><g class="noselect gnode" struct_name="m" transform="translate(56.53,234.21)" r="6.5"><circle class="node" r="6" node_type="nucleotide" style="fill: lightgreen;"></circle><text text-anchor="middle" font-size="8" font-weight="bold" y="2.5" class="node-label">C</text></g><g class="noselect gnode" struct_name="m" transform="translate(53.79,249.95)" r="6.5"><circle class="node" r="6" node_type="nucleotide" style="fill: lightgreen;"></circle><text text-anchor="middle" font-size="8" font-weight="bold" y="2.5" class="node-label">A</text></g><g class="noselect gnode" struct_name="m" transform="translate(50.72,265.77)" r="6.5"><circle class="node" r="6" node_type="nucleotide" style="fill: lightgreen;"></circle><text text-anchor="middle" font-size="8" font-weight="bold" y="2.5" class="node-label">G</text></g><g class="noselect gnode" struct_name="m" transform="translate(47.28,281.61)" r="6.5"><circle class="node" r="6" node_type="nucleotide" style="fill: lightgreen;"></circle><text text-anchor="middle" font-size="8" font-weight="bold" y="2.5" class="node-label">U</text></g><g class="noselect gnode" struct_name="m" transform="translate(43.47,297.33)" r="6.5"><circle class="node" r="6" node_type="nucleotide" style="fill: lightgreen;"></circle><text text-anchor="middle" font-size="8" font-weight="bold" y="2.5" class="node-label">C</text></g><g class="noselect gnode" struct_name="m" transform="translate(39.41,312.89)" r="6.5"><circle class="node" r="6" node_type="nucleotide" style="fill: lightgreen;"></circle><text text-anchor="middle" font-size="8" font-weight="bold" y="2.5" class="node-label">U</text></g><g class="noselect gnode" struct_name="m" transform="translate(35.55,328.17)" r="6.5"><circle class="node" r="6" node_type="nucleotide" style="fill: lightgreen;"></circle><text text-anchor="middle" font-size="8" font-weight="bold" y="2.5" class="node-label">U</text></g><g class="noselect gnode" struct_name="m" transform="translate(46.23,339.14)" r="6.5"><circle class="node" r="6" node_type="nucleotide" style="fill: lightsalmon;"></circle><text text-anchor="middle" font-size="8" font-weight="bold" y="2.5" class="node-label">A</text></g><g class="noselect gnode" struct_name="m" transform="translate(50.28,353.55)" r="6.5"><circle class="node" r="6" node_type="nucleotide" style="fill: lightsalmon;"></circle><text text-anchor="middle" font-size="8" font-weight="bold" y="2.5" class="node-label">U</text></g><g class="noselect gnode" struct_name="m" transform="translate(17.99,274.25)" r="6.5"><circle class="node label" r="6" node_type="label"></circle><text text-anchor="middle" font-size="8" font-weight="bold" y="2.5" class="node-label">10</text></g><g class="noselect gnode" struct_name="m" transform="translate(49.29,119.60)" r="6.5"><circle class="node label" r="6" node_type="label"></circle><text text-anchor="middle" font-size="8" font-weight="bold" y="2.5" class="node-label">20</text></g><g class="noselect gnode" struct_name="m" transform="translate(61.82,-34.96)" r="6.5"><circle class="node label" r="6" node_type="label"></circle><text text-anchor="middle" font-size="8" font-weight="bold" y="2.5" class="node-label">30</text></g><g class="noselect gnode" struct_name="m" transform="translate(122.64,63.71)" r="6.5"><circle class="node label" r="6" node_type="label"></circle><text text-anchor="middle" font-size="8" font-weight="bold" y="2.5" class="node-label">40</text></g><g class="noselect gnode" struct_name="m" transform="translate(76.93,206.73)" r="6.5"><circle class="node label" r="6" node_type="label"></circle><text text-anchor="middle" font-size="8" font-weight="bold" y="2.5" class="node-label">50</text></g><g class="noselect gnode" struct_name="m" transform="translate(65.29,357.36)" r="6.5"><circle class="node label" r="6" node_type="label"></circle><text text-anchor="middle" font-size="8" font-weight="bold" y="2.5" class="node-label">60</text></g><g class="noselect gnode" transform="translate(30.28,318.74)" r="6.5"><circle class="node" r="0" node_type="middle"></circle><text text-anchor="middle" font-size="8" font-weight="bold" y="2.5" class="node-label"></text></g><g class="noselect gnode" transform="translate(34.43,303.30)" r="6.5"><circle class="node" r="0" node_type="middle"></circle><text text-anchor="middle" font-size="8" font-weight="bold" y="2.5" class="node-label"></text></g><g class="noselect gnode" transform="translate(38.36,287.79)" r="6.5"><circle class="node" r="0" node_type="middle"></circle><text text-anchor="middle" font-size="8" font-weight="bold" y="2.5" class="node-label"></text></g><g class="noselect gnode" transform="translate(41.98,272.16)" r="6.5"><circle class="node" r="0" node_type="middle"></circle><text text-anchor="middle" font-size="8" font-weight="bold" y="2.5" class="node-label"></text></g><g class="noselect gnode" transform="translate(45.16,256.49)" r="6.5"><circle class="node" r="0" node_type="middle"></circle><text text-anchor="middle" font-size="8" font-weight="bold" y="2.5" class="node-label"></text></g><g class="noselect gnode" transform="translate(47.99,240.86)" r="6.5"><circle class="node" r="0" node_type="middle"></circle><text text-anchor="middle" font-size="8" font-weight="bold" y="2.5" class="node-label"></text></g><g class="noselect gnode" transform="translate(50.60,225.14)" r="6.5"><circle class="node" r="0" node_type="middle"></circle><text text-anchor="middle" font-size="8" font-weight="bold" y="2.5" class="node-label"></text></g><g class="noselect gnode" transform="translate(53.19,209.42)" r="6.5"><circle class="node" r="0" node_type="middle"></circle><text text-anchor="middle" font-size="8" font-weight="bold" y="2.5" class="node-label"></text></g><g class="noselect gnode" transform="translate(55.93,193.82)" r="6.5"><circle class="node" r="0" node_type="middle"></circle><text text-anchor="middle" font-size="8" font-weight="bold" y="2.5" class="node-label"></text></g><g class="noselect gnode" transform="translate(59.02,178.15)" r="6.5"><circle class="node" r="0" node_type="middle"></circle><text text-anchor="middle" font-size="8" font-weight="bold" y="2.5" class="node-label"></text></g><g class="noselect gnode" transform="translate(62.39,162.51)" r="6.5"><circle class="node" r="0" node_type="middle"></circle><text text-anchor="middle" font-size="8" font-weight="bold" y="2.5" class="node-label"></text></g><g class="noselect gnode" transform="translate(65.99,146.96)" r="6.5"><circle class="node" r="0" node_type="middle"></circle><text text-anchor="middle" font-size="8" font-weight="bold" y="2.5" class="node-label"></text></g><g class="noselect gnode" transform="translate(69.76,131.50)" r="6.5"><circle class="node" r="0" node_type="middle"></circle><text text-anchor="middle" font-size="8" font-weight="bold" y="2.5" class="node-label"></text></g><g class="noselect gnode" transform="translate(73.87,116.08)" r="6.5"><circle class="node" r="0" node_type="middle"></circle><text text-anchor="middle" font-size="8" font-weight="bold" y="2.5" class="node-label"></text></g><g class="noselect gnode" transform="translate(86.46,75.60)" r="6.5"><circle class="node" r="0" node_type="middle"></circle><text text-anchor="middle" font-size="8" font-weight="bold" y="2.5" class="node-label"></text></g><g class="noselect gnode" transform="translate(92.14,39.87)" r="6.5"><circle class="node" r="0" node_type="middle"></circle><text text-anchor="middle" font-size="8" font-weight="bold" y="2.5" class="node-label"></text></g><g class="noselect gnode" transform="translate(92.13,23.79)" r="6.5"><circle class="node" r="0" node_type="middle"></circle><text text-anchor="middle" font-size="8" font-weight="bold" y="2.5" class="node-label"></text></g><g class="noselect gnode" transform="translate(93.22,7.78)" r="6.5"><circle class="node" r="0" node_type="middle"></circle><text text-anchor="middle" font-size="8" font-weight="bold" y="2.5" class="node-label"></text></g><g class="noselect gnode" transform="translate(46.79,368.26)" r="6.5"><circle class="node" r="0" node_type="middle"></circle><text text-anchor="middle" font-size="8" font-weight="bold" y="2.5" class="node-label"></text></g><g class="noselect gnode" transform="translate(36.46,379.09)" r="6.5"><circle class="node" r="0" node_type="middle"></circle><text text-anchor="middle" font-size="8" font-weight="bold" y="2.5" class="node-label"></text></g><g class="noselect gnode" transform="translate(21.25,353.59)" r="6.5"><circle class="node" r="0" node_type="middle"></circle><text text-anchor="middle" font-size="8" font-weight="bold" y="2.5" class="node-label"></text></g><g class="noselect gnode" transform="translate(96.40,-20.76)" r="6.5"><circle class="node" r="0" node_type="middle"></circle><text text-anchor="middle" font-size="8" font-weight="bold" y="2.5" class="node-label"></text></g><g class="noselect gnode" transform="translate(79.92,95.75)" r="6.5"><circle class="node" r="0" node_type="middle"></circle><text text-anchor="middle" font-size="8" font-weight="bold" y="2.5" class="node-label"></text></g><g class="noselect gnode" transform="translate(94.12,58.52)" r="6.5"><circle class="node" r="0" node_type="middle"></circle><text text-anchor="middle" font-size="8" font-weight="bold" y="2.5" class="node-label"></text></g></g><line class="drag_line" x1="0" y1="0" x2="0" y2="0"></line></g></g></svg>