<svg xmlns="http://www.w3.org/2000/svg" viewBox="0 0 760 640" width="760" height="640"><style>svg {
  display: block;
  min-width: 100%;
  width: 100%;
  min-height: 100%;
}

circle.node {
  stroke: #ccc;
  stroke-width: 1px;
  opacity: 1;
  fill: white;
}

circle.node.label {
    stroke: transparent;
    stroke-width: 0;
    fill: white;
}

circle.outline_node {
    stroke-width: 1px;
    fill: red;
}

circle.protein {
    fill: gray;
    fill-opacity: 0.5;
    stroke-width: 4;
}

circle.hidden_outline {
    stroke-width: 0px;
}


line.link {
  stroke: #999;
  stroke-opacity: 0.8;
  stroke-width: 2;
}

line.basepair {
  stroke: red;
}

line.intermolecule {
  stroke: blue;
}

line.chain_chain {
  stroke-dasharray: 3,3;
}

line.fake {
  stroke: green;
}

.transparent {
    fill: transparent;
    stroke-width: 0;
    stroke-opacity: 0;
    opacity: 0;
    visibility: hidden;
}

.drag_line {
  stroke: #999;
  stroke-width: 2;
  pointer-events: none;
}

.drag_line_hidden {
  stroke: #999;
  stroke-width: 0;
  pointer-events: none;
}

.d3-tip {
    line-height: 1;
    font-weight: bold;
    padding: 6px;
    background: rgba(0, 0, 0, 0.6);
    color: #fff;
    border-radius: 4px;
    pointer-events: none;
          }

text.node-label {
    font-weight: bold;
    font-family: Tahoma, Geneva, sans-serif;
    color: rgb(100,100,100);
    pointer-events: none;
}

text {
    pointer-events: none;
}

g.gnode {

}

circle.outline_node.selected {
    visibility: visible;
}

circle.outline_node {
    visibility: hidden;
}

.brush .extent {
  fill-opacity: .1;
  stroke: #fff;
  shape-rendering: crispEdges;
}

.noselect {
    -webkit-touch-callout: none;
    -webkit-user-select: none;
    -khtml-user-select: none;
    -moz-user-select: none;
    -ms-user-select: none;
    user-select: none;
}

svg {
  display: block;
  min-width: 100%;
  width: 100%;
  min-height: 100%;
}

circle.node {
  stroke: #ccc;
  stroke-width: 1px;
  opacity: 1;
  fill: white;
}

circle.node.label {
    stroke: transparent;
    stroke-width: 0;
    fill: white;
}

circle.outline_node {
    stroke-width: 1px;
    fill: red;
}

circle.protein {
    fill: gray;
    fill-opacity: 0.5;
    stroke-width: 4;
}

circle.hidden_outline {
    stroke-width: 0px;
}


line.link {
  stroke: #999;
  stroke-opacity: 0.8;
  stroke-width: 2;
}

line.basepair {
  stroke: red;
}

line.intermolecule {
  stroke: blue;
}

line.chain_chain {
  stroke-dasharray: 3,3;
}

line.fake {
  stroke: green;
}

.transparent {
    fill: transparent;
    stroke-width: 0;
    stroke-opacity: 0;
    opacity: 0;
    visibility: hidden;
}

.drag_line {
  stroke: #999;
  stroke-width: 2;
  pointer-events: none;
}

.drag_line_hidden {
  stroke: #999;
  stroke-width: 0;
  pointer-events: none;
}

.d3-tip {
    line-height: 1;
    font-weight: bold;
    padding: 6px;
    background: rgba(0, 0, 0, 0.6);
    color: #fff;
    border-radius: 4px;
    pointer-events: none;
          }

text.node-label {
    font-weight: bold;
    font-family: Tahoma, Geneva, sans-serif;
    color: rgb(100,100,100);
    pointer-events: none;
}

text {
    pointer-events: none;
}

g.gnode {

}

circle.outline_node.selected {
    visibility: visible;
}

circle.outline_node {
    visibility: hidden;
}

.brush .extent {
  fill-opacity: .1;
  stroke: #fff;
  shape-rendering: crispEdges;
}

.noselect {
    -webkit-touch-callout: none;
    -webkit-user-select: none;
    -khtml-user-select: none;
    -moz-user-select: none;
    -ms-user-select: none;
    user-select: none;
}
/*# sourceURL=/Users/yumanakamura/ipy_sandbox/sandbox/claude_sandbox/mrna-transformer-worktrees/feat-issue57-switch-derna-knotty/scripts/eval/prerender/forna_vendor/fornac.css*/</style><style></style><g><g class="brush" style="pointer-events: all; -webkit-tap-highlight-color: rgba(0, 0, 0, 0);"><rect class="background" x="0" width="760" y="0" height="640" style="visibility: hidden; cursor: auto;"></rect><rect class="extent" x="0" width="0" y="0" height="0" style="cursor: move;"></rect><g class="resize n" transform="translate(0,0)" style="cursor: ns-resize; display: none;"><rect y="-3" width="0" height="6" style="visibility: hidden;"></rect></g><g class="resize e" transform="translate(0,0)" style="cursor: ew-resize; display: none;"><rect x="-3" width="6" height="0" style="visibility: hidden;"></rect></g><g class="resize s" transform="translate(0,0)" style="cursor: ns-resize; display: none;"><rect y="-3" width="0" height="6" style="visibility: hidden;"></rect></g><g class="resize w" transform="translate(0,0)" style="cursor: ew-resize; display: none;"><rect x="-3" width="6" height="0" style="visibility: hidden;"></rect></g><g class="resize nw" transform="translate(0,0)" style="cursor: nwse-resize; display: none;"><rect x="-3" y="-3" width="6" height="6" style="visibility: hidden;"></rect></g><g class="resize ne" transform="translate(0,0)" style="cursor: nesw-resize; display: none;"><rect x="-3" y="-3" width="6" height="6" style="visibility: hidden;"></rect></g><g class="resize se" transform="translate(0,0)" style="cursor: nwse-resize; display: none;"><rect x="-3" y="-3" width="6" height="6" style="visibility: hidden;"></rect></g><g class="resize sw" transform="translate(0,0)" style="cursor: nesw-resize; display: none;"><rect x="-3" y="-3" width="6" height="6" style="visibility: hidden;"></rect></g></g><g transform="translate(299.57,246.31) scale(1.31)"><g><line class="link backbone" x1="33.39" y1="263.39" x2="18.70" y2="260.50"></line><line class="link backbone" x1="18.70" y1="260.50" x2="6.07" y2="252.38"></line><line class="link backbone" x1="6.07" y1="252.38" x2="-2.25" y2="239.86"></line><line class="link backbone" x1="-2.25" y1="239.86" x2="-5.12" y2="225.11"></line><line class="link backbone" x1="-5.12" y1="225.11" x2="-2.22" y2="210.38"></line><line class="link backbone" x1="-2.22" y1="210.38" x2="6.37" y2="197.81"></line><line class="link backbone" x1="6.37" y1="197.81" x2="19.05" y2="189.64"></line><line class="link basepair" x1="34.13" y1="186.31" x2="48.78" y2="189.52"></line><line class="link backbone" x1="19.05" y1="189.64" x2="34.13" y2="186.31"></line><line class="link basepair" x1="37.80" y1="170.88" x2="52.01" y2="174.03"></line><line class="link backbone" x1="34.13" y1="186.31" x2="37.80" y2="170.88"></line><line class="link basepair" x1="41.26" y1="155.19" x2="55.48" y2="158.30"></line><line class="link backbone" x1="37.80" y1="170.88" x2="41.26" y2="155.19"></line><line class="link basepair" x1="44.63" y1="139.51" x2="58.89" y2="142.60"></line><line class="link backbone" x1="41.26" y1="155.19" x2="44.63" y2="139.51"></line><line class="link basepair" x1="47.81" y1="124.02" x2="62.35" y2="127.11"></line><line class="link backbone" x1="44.63" y1="139.51" x2="47.81" y2="124.02"></line><line class="link backbone" x1="47.81" y1="124.02" x2="37.64" y2="112.63"></line><line class="link backbone" x1="37.64" y1="112.63" x2="36.15" y2="97.68"></line><line class="link backbone" x1="36.15" y1="97.68" x2="43.60" y2="84.77"></line><line class="link basepair" x1="57.57" y1="78.42" x2="72.08" y2="81.56"></line><line class="link backbone" x1="43.60" y1="84.77" x2="57.57" y2="78.42"></line><line class="link basepair" x1="61.24" y1="62.79" x2="75.39" y2="65.98"></line><line class="link backbone" x1="57.57" y1="78.42" x2="61.24" y2="62.79"></line><line class="link basepair" x1="64.79" y1="47.06" x2="78.96" y2="50.20"></line><line class="link backbone" x1="61.24" y1="62.79" x2="64.79" y2="47.06"></line><line class="link basepair" x1="68.10" y1="31.43" x2="82.40" y2="34.37"></line><line class="link backbone" x1="64.79" y1="47.06" x2="68.10" y2="31.43"></line><line class="link basepair" x1="71.18" y1="15.81" x2="85.49" y2="18.51"></line><line class="link backbone" x1="68.10" y1="31.43" x2="71.18" y2="15.81"></line><line class="link basepair" x1="74.04" y1="0.04" x2="88.37" y2="2.61"></line><line class="link backbone" x1="71.18" y1="15.81" x2="74.04" y2="0.04"></line><line class="link basepair" x1="76.89" y1="-15.81" x2="91.22" y2="-13.14"></line><line class="link backbone" x1="74.04" y1="0.04" x2="76.89" y2="-15.81"></line><line class="link basepair" x1="79.88" y1="-31.67" x2="94.13" y2="-28.91"></line><line class="link backbone" x1="76.89" y1="-15.81" x2="79.88" y2="-31.67"></line><line class="link basepair" x1="83.10" y1="-47.64" x2="97.31" y2="-44.63"></line><line class="link backbone" x1="79.88" y1="-31.67" x2="83.10" y2="-47.64"></line><line class="link basepair" x1="86.66" y1="-63.57" x2="100.77" y2="-60.29"></line><line class="link backbone" x1="83.10" y1="-47.64" x2="86.66" y2="-63.57"></line><line class="link basepair" x1="90.35" y1="-79.30" x2="104.66" y2="-75.70"></line><line class="link backbone" x1="86.66" y1="-63.57" x2="90.35" y2="-79.30"></line><line class="link backbone" x1="90.35" y1="-79.30" x2="86.19" y2="-94.10"></line><line class="link basepair" x1="96.93" y1="-105.04" x2="111.24" y2="-101.31"></line><line class="link backbone" x1="86.19" y1="-94.10" x2="96.93" y2="-105.04"></line><line class="link basepair" x1="100.92" y1="-120.25" x2="115.31" y2="-116.40"></line><line class="link backbone" x1="96.93" y1="-105.04" x2="100.92" y2="-120.25"></line><line class="link backbone" x1="100.92" y1="-120.25" x2="97.05" y2="-135.13"></line><line class="link backbone" x1="97.05" y1="-135.13" x2="107.68" y2="-145.63"></line><line class="link backbone" x1="107.68" y1="-145.63" x2="122.15" y2="-141.75"></line><line class="link backbone" x1="122.15" y1="-141.75" x2="126.13" y2="-127.31"></line><line class="link basepair" x1="115.31" y1="-116.40" x2="100.92" y2="-120.25"></line><line class="link backbone" x1="126.13" y1="-127.31" x2="115.31" y2="-116.40"></line><line class="link basepair" x1="111.24" y1="-101.31" x2="96.93" y2="-105.04"></line><line class="link backbone" x1="115.31" y1="-116.40" x2="111.24" y2="-101.31"></line><line class="link backbone" x1="111.24" y1="-101.31" x2="115.40" y2="-86.67"></line><line class="link basepair" x1="104.66" y1="-75.70" x2="90.35" y2="-79.30"></line><line class="link backbone" x1="115.40" y1="-86.67" x2="104.66" y2="-75.70"></line><line class="link basepair" x1="100.77" y1="-60.29" x2="86.66" y2="-63.57"></line><line class="link backbone" x1="104.66" y1="-75.70" x2="100.77" y2="-60.29"></line><line class="link basepair" x1="97.31" y1="-44.63" x2="83.10" y2="-47.64"></line><line class="link backbone" x1="100.77" y1="-60.29" x2="97.31" y2="-44.63"></line><line class="link basepair" x1="94.13" y1="-28.91" x2="79.88" y2="-31.67"></line><line class="link backbone" x1="97.31" y1="-44.63" x2="94.13" y2="-28.91"></line><line class="link basepair" x1="91.22" y1="-13.14" x2="76.89" y2="-15.81"></line><line class="link backbone" x1="94.13" y1="-28.91" x2="91.22" y2="-13.14"></line><line class="link basepair" x1="88.37" y1="2.61" x2="74.04" y2="0.04"></line><line class="link backbone" x1="91.22" y1="-13.14" x2="88.37" y2="2.61"></line><line class="link basepair" x1="85.49" y1="18.51" x2="71.18" y2="15.81"></line><line class="link backbone" x1="88.37" y1="2.61" x2="85.49" y2="18.51"></line><line class="link basepair" x1="82.40" y1="34.37" x2="68.10" y2="31.43"></line><line class="link backbone" x1="85.49" y1="18.51" x2="82.40" y2="34.37"></line><line class="link basepair" x1="78.96" y1="50.20" x2="64.79" y2="47.06"></line><line class="link backbone" x1="82.40" y1="34.37" x2="78.96" y2="50.20"></line><line class="link basepair" x1="75.39" y1="65.98" x2="61.24" y2="62.79"></line><line class="link backbone" x1="78.96" y1="50.20" x2="75.39" y2="65.98"></line><line class="link basepair" x1="72.08" y1="81.56" x2="57.57" y2="78.42"></line><line class="link backbone" x1="75.39" y1="65.98" x2="72.08" y2="81.56"></line><line class="link backbone" x1="72.08" y1="81.56" x2="82.21" y2="92.95"></line><line class="link backbone" x1="82.21" y1="92.95" x2="83.80" y2="107.85"></line><line class="link backbone" x1="83.80" y1="107.85" x2="76.28" y2="120.88"></line><line class="link basepair" x1="62.35" y1="127.11" x2="47.81" y2="124.02"></line><line class="link backbone" x1="76.28" y1="120.88" x2="62.35" y2="127.11"></line><line class="link basepair" x1="58.89" y1="142.60" x2="44.63" y2="139.51"></line><line class="link backbone" x1="62.35" y1="127.11" x2="58.89" y2="142.60"></line><line class="link basepair" x1="55.48" y1="158.30" x2="41.26" y2="155.19"></line><line class="link backbone" x1="58.89" y1="142.60" x2="55.48" y2="158.30"></line><line class="link basepair" x1="52.01" y1="174.03" x2="37.80" y2="170.88"></line><line class="link backbone" x1="55.48" y1="158.30" x2="52.01" y2="174.03"></line><line class="link basepair" x1="48.78" y1="189.52" x2="34.13" y2="186.31"></line><line class="link backbone" x1="52.01" y1="174.03" x2="48.78" y2="189.52"></line><line class="link backbone" x1="48.78" y1="189.52" x2="61.15" y2="198.58"></line><line class="link backbone" x1="61.15" y1="198.58" x2="69.27" y2="211.21"></line><line class="link backbone" x1="69.27" y1="211.21" x2="71.95" y2="226.07"></line><line class="link backbone" x1="71.95" y1="226.07" x2="68.65" y2="240.68"></line><line class="link label_link" x1="37.80" y1="170.88" x2="22.48" y2="168.18"></line><line class="link label_link" x1="68.10" y1="31.43" x2="53.02" y2="27.37"></line><line class="link label_link" x1="100.92" y1="-120.25" x2="87.01" y2="-127.12"></line><line class="link label_link" x1="97.31" y1="-44.63" x2="112.38" y2="-40.58"></line><line class="link label_link" x1="83.80" y1="107.85" x2="99.31" y2="109.52"></line><line class="link label_link" x1="68.65" y1="240.68" x2="83.34" y2="245.48"></line><line class="link fake transparent" x1="57.57" y1="78.42" x2="66.52" y2="72.25"></line><line class="link fake transparent" x1="57.57" y1="78.42" x2="75.39" y2="65.98"></line><line class="link fake transparent" x1="61.24" y1="62.79" x2="66.52" y2="72.25"></line><line class="link fake transparent" x1="75.39" y1="65.98" x2="66.52" y2="72.25"></line><line class="link fake transparent" x1="72.08" y1="81.56" x2="66.52" y2="72.25"></line><line class="link fake transparent" x1="61.24" y1="62.79" x2="70.11" y2="56.51"></line><line class="link fake transparent" x1="64.79" y1="47.06" x2="70.11" y2="56.51"></line><line class="link fake transparent" x1="78.96" y1="50.20" x2="70.11" y2="56.51"></line><line class="link fake transparent" x1="75.39" y1="65.98" x2="70.11" y2="56.51"></line><line class="link fake transparent" x1="64.79" y1="47.06" x2="73.64" y2="40.76"></line><line class="link fake transparent" x1="68.10" y1="31.43" x2="73.64" y2="40.76"></line><line class="link fake transparent" x1="82.40" y1="34.37" x2="73.64" y2="40.76"></line><line class="link fake transparent" x1="78.96" y1="50.20" x2="73.64" y2="40.76"></line><line class="link fake transparent" x1="68.10" y1="31.43" x2="76.87" y2="25.05"></line><line class="link fake transparent" x1="71.18" y1="15.81" x2="76.87" y2="25.05"></line><line class="link fake transparent" x1="85.49" y1="18.51" x2="76.87" y2="25.05"></line><line class="link fake transparent" x1="82.40" y1="34.37" x2="76.87" y2="25.05"></line><line class="link fake transparent" x1="71.18" y1="15.81" x2="79.82" y2="9.25"></line><line class="link fake transparent" x1="74.04" y1="0.04" x2="79.82" y2="9.25"></line><line class="link fake transparent" x1="88.37" y1="2.61" x2="79.82" y2="9.25"></line><line class="link fake transparent" x1="85.49" y1="18.51" x2="79.82" y2="9.25"></line><line class="link fake transparent" x1="74.04" y1="0.04" x2="82.61" y2="-6.59"></line><line class="link fake transparent" x1="76.89" y1="-15.81" x2="82.61" y2="-6.59"></line><line class="link fake transparent" x1="91.22" y1="-13.14" x2="82.61" y2="-6.59"></line><line class="link fake transparent" x1="88.37" y1="2.61" x2="82.61" y2="-6.59"></line><line class="link fake transparent" x1="76.89" y1="-15.81" x2="85.48" y2="-22.35"></line><line class="link fake transparent" x1="79.88" y1="-31.67" x2="85.48" y2="-22.35"></line><line class="link fake transparent" x1="94.13" y1="-28.91" x2="85.48" y2="-22.35"></line><line class="link fake transparent" x1="91.22" y1="-13.14" x2="85.48" y2="-22.35"></line><line class="link fake transparent" x1="79.88" y1="-31.67" x2="88.51" y2="-38.21"></line><line class="link fake transparent" x1="83.10" y1="-47.64" x2="88.51" y2="-38.21"></line><line class="link fake transparent" x1="97.31" y1="-44.63" x2="88.51" y2="-38.21"></line><line class="link fake transparent" x1="94.13" y1="-28.91" x2="88.51" y2="-38.21"></line><line class="link fake transparent" x1="83.10" y1="-47.64" x2="91.87" y2="-54.05"></line><line class="link fake transparent" x1="86.66" y1="-63.57" x2="91.87" y2="-54.05"></line><line class="link fake transparent" x1="100.77" y1="-60.29" x2="91.87" y2="-54.05"></line><line class="link fake transparent" x1="97.31" y1="-44.63" x2="91.87" y2="-54.05"></line><line class="link fake transparent" x1="86.66" y1="-63.57" x2="95.54" y2="-69.77"></line><line class="link fake transparent" x1="90.35" y1="-79.30" x2="95.54" y2="-69.77"></line><line class="link fake transparent" x1="104.66" y1="-75.70" x2="95.54" y2="-69.77"></line><line class="link fake transparent" x1="100.77" y1="-60.29" x2="95.54" y2="-69.77"></line><line class="link fake transparent" x1="96.93" y1="-105.04" x2="106.10" y2="-110.81"></line><line class="link fake transparent" x1="100.92" y1="-120.25" x2="106.10" y2="-110.81"></line><line class="link fake transparent" x1="115.31" y1="-116.40" x2="106.10" y2="-110.81"></line><line class="link fake transparent" x1="111.24" y1="-101.31" x2="106.10" y2="-110.81"></line><line class="link fake transparent" x1="34.13" y1="186.31" x2="43.16" y2="180.31"></line><line class="link fake transparent" x1="37.80" y1="170.88" x2="43.16" y2="180.31"></line><line class="link fake transparent" x1="52.01" y1="174.03" x2="43.16" y2="180.31"></line><line class="link fake transparent" x1="48.78" y1="189.52" x2="43.16" y2="180.31"></line><line class="link fake transparent" x1="37.80" y1="170.88" x2="46.67" y2="164.61"></line><line class="link fake transparent" x1="41.26" y1="155.19" x2="46.67" y2="164.61"></line><line class="link fake transparent" x1="55.48" y1="158.30" x2="46.67" y2="164.61"></line><line class="link fake transparent" x1="52.01" y1="174.03" x2="46.67" y2="164.61"></line><line class="link fake transparent" x1="41.26" y1="155.19" x2="50.08" y2="148.88"></line><line class="link fake transparent" x1="44.63" y1="139.51" x2="50.08" y2="148.88"></line><line class="link fake transparent" x1="58.89" y1="142.60" x2="50.08" y2="148.88"></line><line class="link fake transparent" x1="55.48" y1="158.30" x2="50.08" y2="148.88"></line><line class="link fake transparent" x1="44.63" y1="139.51" x2="53.43" y2="133.29"></line><line class="link fake transparent" x1="47.81" y1="124.02" x2="53.43" y2="133.29"></line><line class="link fake transparent" x1="62.35" y1="127.11" x2="53.43" y2="133.29"></line><line class="link fake transparent" x1="58.89" y1="142.60" x2="53.43" y2="133.29"></line><line class="link fake transparent" x1="33.39" y1="263.39" x2="33.40" y2="225.00"></line><line class="link fake transparent" x1="33.39" y1="263.39" x2="34.13" y2="186.31"></line><line class="link fake transparent" x1="18.70" y1="260.50" x2="33.40" y2="225.00"></line><line class="link fake transparent" x1="18.70" y1="260.50" x2="48.78" y2="189.52"></line><line class="link fake transparent" x1="6.07" y1="252.38" x2="33.40" y2="225.00"></line><line class="link fake transparent" x1="6.07" y1="252.38" x2="61.15" y2="198.58"></line><line class="link fake transparent" x1="-2.25" y1="239.86" x2="33.40" y2="225.00"></line><line class="link fake transparent" x1="-2.25" y1="239.86" x2="69.27" y2="211.21"></line><line class="link fake transparent" x1="-5.12" y1="225.11" x2="33.40" y2="225.00"></line><line class="link fake transparent" x1="-5.12" y1="225.11" x2="71.95" y2="226.07"></line><line class="link fake transparent" x1="-2.22" y1="210.38" x2="33.40" y2="225.00"></line><line class="link fake transparent" x1="-2.22" y1="210.38" x2="68.65" y2="240.68"></line><line class="link fake transparent" x1="6.37" y1="197.81" x2="33.40" y2="225.00"></line><line class="link fake transparent" x1="6.37" y1="197.81" x2="60.27" y2="253.13"></line><line class="link fake transparent" x1="19.05" y1="189.64" x2="33.40" y2="225.00"></line><line class="link fake transparent" x1="19.05" y1="189.64" x2="47.72" y2="261.39"></line><line class="link fake transparent" x1="34.13" y1="186.31" x2="33.40" y2="225.00"></line><line class="link fake transparent" x1="34.13" y1="186.31" x2="33.39" y2="263.39"></line><line class="link fake transparent" x1="48.78" y1="189.52" x2="33.40" y2="225.00"></line><line class="link fake transparent" x1="48.78" y1="189.52" x2="18.70" y2="260.50"></line><line class="link fake transparent" x1="61.15" y1="198.58" x2="33.40" y2="225.00"></line><line class="link fake transparent" x1="61.15" y1="198.58" x2="6.07" y2="252.38"></line><line class="link fake transparent" x1="69.27" y1="211.21" x2="33.40" y2="225.00"></line><line class="link fake transparent" x1="69.27" y1="211.21" x2="-2.25" y2="239.86"></line><line class="link fake transparent" x1="71.95" y1="226.07" x2="33.40" y2="225.00"></line><line class="link fake transparent" x1="71.95" y1="226.07" x2="-5.12" y2="225.11"></line><line class="link fake transparent" x1="68.65" y1="240.68" x2="33.40" y2="225.00"></line><line class="link fake transparent" x1="68.65" y1="240.68" x2="-2.22" y2="210.38"></line><line class="link fake transparent" x1="100.92" y1="-120.25" x2="111.54" y2="-131.04"></line><line class="link fake transparent" x1="100.92" y1="-120.25" x2="122.15" y2="-141.75"></line><line class="link fake transparent" x1="97.05" y1="-135.13" x2="111.54" y2="-131.04"></line><line class="link fake transparent" x1="97.05" y1="-135.13" x2="126.13" y2="-127.31"></line><line class="link fake transparent" x1="107.68" y1="-145.63" x2="111.54" y2="-131.04"></line><line class="link fake transparent" x1="107.68" y1="-145.63" x2="115.31" y2="-116.40"></line><line class="link fake transparent" x1="122.15" y1="-141.75" x2="111.54" y2="-131.04"></line><line class="link fake transparent" x1="122.15" y1="-141.75" x2="100.92" y2="-120.25"></line><line class="link fake transparent" x1="126.13" y1="-127.31" x2="111.54" y2="-131.04"></line><line class="link fake transparent" x1="126.13" y1="-127.31" x2="97.05" y2="-135.13"></line><line class="link fake transparent" x1="115.31" y1="-116.40" x2="111.54" y2="-131.04"></line><line class="link fake transparent" x1="115.31" y1="-116.40" x2="107.68" y2="-145.63"></line><line class="link fake transparent" x1="90.35" y1="-79.30" x2="100.76" y2="-90.36"></line><line class="link fake transparent" x1="90.35" y1="-79.30" x2="111.24" y2="-101.31"></line><line class="link fake transparent" x1="86.19" y1="-94.10" x2="100.76" y2="-90.36"></line><line class="link fake transparent" x1="86.19" y1="-94.10" x2="115.40" y2="-86.67"></line><line class="link fake transparent" x1="96.93" y1="-105.04" x2="100.76" y2="-90.36"></line><line class="link fake transparent" x1="96.93" y1="-105.04" x2="104.66" y2="-75.70"></line><line class="link fake transparent" x1="111.24" y1="-101.31" x2="100.76" y2="-90.36"></line><line class="link fake transparent" x1="111.24" y1="-101.31" x2="90.35" y2="-79.30"></line><line class="link fake transparent" x1="115.40" y1="-86.67" x2="100.76" y2="-90.36"></line><line class="link fake transparent" x1="115.40" y1="-86.67" x2="86.19" y2="-94.10"></line><line class="link fake transparent" x1="104.66" y1="-75.70" x2="100.76" y2="-90.36"></line><line class="link fake transparent" x1="104.66" y1="-75.70" x2="96.93" y2="-105.04"></line><line class="link fake transparent" x1="47.81" y1="124.02" x2="59.95" y2="102.76"></line><line class="link fake transparent" x1="47.81" y1="124.02" x2="72.08" y2="81.56"></line><line class="link fake transparent" x1="37.64" y1="112.63" x2="59.95" y2="102.76"></line><line class="link fake transparent" x1="37.64" y1="112.63" x2="82.21" y2="92.95"></line><line class="link fake transparent" x1="36.15" y1="97.68" x2="59.95" y2="102.76"></line><line class="link fake transparent" x1="36.15" y1="97.68" x2="83.80" y2="107.85"></line><line class="link fake transparent" x1="43.60" y1="84.77" x2="59.95" y2="102.76"></line><line class="link fake transparent" x1="43.60" y1="84.77" x2="76.28" y2="120.88"></line><line class="link fake transparent" x1="57.57" y1="78.42" x2="59.95" y2="102.76"></line><line class="link fake transparent" x1="57.57" y1="78.42" x2="62.35" y2="127.11"></line><line class="link fake transparent" x1="72.08" y1="81.56" x2="59.95" y2="102.76"></line><line class="link fake transparent" x1="72.08" y1="81.56" x2="47.81" y2="124.02"></line><line class="link fake transparent" x1="82.21" y1="92.95" x2="59.95" y2="102.76"></line><line class="link fake transparent" x1="82.21" y1="92.95" x2="37.64" y2="112.63"></line><line class="link fake transparent" x1="83.80" y1="107.85" x2="59.95" y2="102.76"></line><line class="link fake transparent" x1="83.80" y1="107.85" x2="36.15" y2="97.68"></line><line class="link fake transparent" x1="76.28" y1="120.88" x2="59.95" y2="102.76"></line><line class="link fake transparent" x1="76.28" y1="120.88" x2="43.60" y2="84.77"></line><line class="link fake transparent" x1="62.35" y1="127.11" x2="59.95" y2="102.76"></line><line class="link fake transparent" x1="62.35" y1="127.11" x2="57.57" y2="78.42"></line></g><g><g class="noselect gnode" struct_name="m" transform="translate(33.39,263.39)" r="6.5"><circle class="node" r="6" node_type="nucleotide" style="fill: lightsalmon;"></circle><text text-anchor="middle" font-size="8" font-weight="bold" y="2.5" class="node-label">A</text></g><g class="noselect gnode" struct_name="m" transform="translate(18.70,260.50)" r="6.5"><circle class="node" r="6" node_type="nucleotide" style="fill: lightsalmon;"></circle><text text-anchor="middle" font-size="8" font-weight="bold" y="2.5" class="node-label">A</text></g><g class="noselect gnode" struct_name="m" transform="translate(6.07,252.38)" r="6.5"><circle class="node" r="6" node_type="nucleotide" style="fill: lightsalmon;"></circle><text text-anchor="middle" font-size="8" font-weight="bold" y="2.5" class="node-label">A</text></g><g class="noselect gnode" struct_name="m" transform="translate(-2.25,239.86)" r="6.5"><circle class="node" r="6" node_type="nucleotide" style="fill: lightsalmon;"></circle><text text-anchor="middle" font-size="8" font-weight="bold" y="2.5" class="node-label">U</text></g><g class="noselect gnode" struct_name="m" transform="translate(-5.12,225.11)" r="6.5"><circle class="node" r="6" node_type="nucleotide" style="fill: lightsalmon;"></circle><text text-anchor="middle" font-size="8" font-weight="bold" y="2.5" class="node-label">C</text></g><g class="noselect gnode" struct_name="m" transform="translate(-2.22,210.38)" r="6.5"><circle class="node" r="6" node_type="nucleotide" style="fill: lightsalmon;"></circle><text text-anchor="middle" font-size="8" font-weight="bold" y="2.5" class="node-label">U</text></g><g class="noselect gnode" struct_name="m" transform="translate(6.37,197.81)" r="6.5"><circle class="node" r="6" node_type="nucleotide" style="fill: lightsalmon;"></circle><text text-anchor="middle" font-size="8" font-weight="bold" y="2.5" class="node-label">C</text></g><g class="noselect gnode" struct_name="m" transform="translate(19.05,189.64)" r="6.5"><circle class="node" r="6" node_type="nucleotide" style="fill: lightsalmon;"></circle><text text-anchor="middle" font-size="8" font-weight="bold" y="2.5" class="node-label">C</text></g><g class="noselect gnode" struct_name="m" transform="translate(34.13,186.31)" r="6.5"><circle class="node" r="6" node_type="nucleotide" style="fill: lightgreen;"></circle><text text-anchor="middle" font-size="8" font-weight="bold" y="2.5" class="node-label">U</text></g><g class="noselect gnode" struct_name="m" transform="translate(37.80,170.88)" r="6.5"><circle class="node" r="6" node_type="nucleotide" style="fill: lightgreen;"></circle><text text-anchor="middle" font-size="8" font-weight="bold" y="2.5" class="node-label">A</text></g><g class="noselect gnode" struct_name="m" transform="translate(41.26,155.19)" r="6.5"><circle class="node" r="6" node_type="nucleotide" style="fill: lightgreen;"></circle><text text-anchor="middle" font-size="8" font-weight="bold" y="2.5" class="node-label">C</text></g><g class="noselect gnode" struct_name="m" transform="translate(44.63,139.51)" r="6.5"><circle class="node" r="6" node_type="nucleotide" style="fill: lightgreen;"></circle><text text-anchor="middle" font-size="8" font-weight="bold" y="2.5" class="node-label">C</text></g><g class="noselect gnode" struct_name="m" transform="translate(47.81,124.02)" r="6.5"><circle class="node" r="6" node_type="nucleotide" style="fill: lightgreen;"></circle><text text-anchor="middle" font-size="8" font-weight="bold" y="2.5" class="node-label">C</text></g><g class="noselect gnode" struct_name="m" transform="translate(37.64,112.63)" r="6.5"><circle class="node" r="6" node_type="nucleotide" style="fill: rgb(219, 219, 141);"></circle><text text-anchor="middle" font-size="8" font-weight="bold" y="2.5" class="node-label">U</text></g><g class="noselect gnode" struct_name="m" transform="translate(36.15,97.68)" r="6.5"><circle class="node" r="6" node_type="nucleotide" style="fill: rgb(219, 219, 141);"></circle><text text-anchor="middle" font-size="8" font-weight="bold" y="2.5" class="node-label">U</text></g><g class="noselect gnode" struct_name="m" transform="translate(43.60,84.77)" r="6.5"><circle class="node" r="6" node_type="nucleotide" style="fill: rgb(219, 219, 141);"></circle><text text-anchor="middle" font-size="8" font-weight="bold" y="2.5" class="node-label">G</text></g><g class="noselect gnode" struct_name="m" transform="translate(57.57,78.42)" r="6.5"><circle class="node" r="6" node_type="nucleotide" style="fill: lightgreen;"></circle><text text-anchor="middle" font-size="8" font-weight="bold" y="2.5" class="node-label">A</text></g><g class="noselect gnode" struct_name="m" transform="translate(61.24,62.79)" r="6.5"><circle class="node" r="6" node_type="nucleotide" style="fill: lightgreen;"></circle><text text-anchor="middle" font-size="8" font-weight="bold" y="2.5" class="node-label">U</text></g><g class="noselect gnode" struct_name="m" transform="translate(64.79,47.06)" r="6.5"><circle class="node" r="6" node_type="nucleotide" style="fill: lightgreen;"></circle><text text-anchor="middle" font-size="8" font-weight="bold" y="2.5" class="node-label">A</text></g><g class="noselect gnode" struct_name="m" transform="translate(68.10,31.43)" r="6.5"><circle class="node" r="6" node_type="nucleotide" style="fill: lightgreen;"></circle><text text-anchor="middle" font-size="8" font-weight="bold" y="2.5" class="node-label">C</text></g><g class="noselect gnode" struct_name="m" transform="translate(71.18,15.81)" r="6.5"><circle class="node" r="6" node_type="nucleotide" style="fill: lightgreen;"></circle><text text-anchor="middle" font-size="8" font-weight="bold" y="2.5" class="node-label">G</text></g><g class="noselect gnode" struct_name="m" transform="translate(74.04,0.04)" r="6.5"><circle class="node" r="6" node_type="nucleotide" style="fill: lightgreen;"></circle><text text-anchor="middle" font-size="8" font-weight="bold" y="2.5" class="node-label">U</text></g><g class="noselect gnode" struct_name="m" transform="translate(76.89,-15.81)" r="6.5"><circle class="node" r="6" node_type="nucleotide" style="fill: lightgreen;"></circle><text text-anchor="middle" font-size="8" font-weight="bold" y="2.5" class="node-label">G</text></g><g class="noselect gnode" struct_name="m" transform="translate(79.88,-31.67)" r="6.5"><circle class="node" r="6" node_type="nucleotide" style="fill: lightgreen;"></circle><text text-anchor="middle" font-size="8" font-weight="bold" y="2.5" class="node-label">C</text></g><g class="noselect gnode" struct_name="m" transform="translate(83.10,-47.64)" r="6.5"><circle class="node" r="6" node_type="nucleotide" style="fill: lightgreen;"></circle><text text-anchor="middle" font-size="8" font-weight="bold" y="2.5" class="node-label">G</text></g><g class="noselect gnode" struct_name="m" transform="translate(86.66,-63.57)" r="6.5"><circle class="node" r="6" node_type="nucleotide" style="fill: lightgreen;"></circle><text text-anchor="middle" font-size="8" font-weight="bold" y="2.5" class="node-label">A</text></g><g class="noselect gnode" struct_name="m" transform="translate(90.35,-79.30)" r="6.5"><circle class="node" r="6" node_type="nucleotide" style="fill: lightgreen;"></circle><text text-anchor="middle" font-size="8" font-weight="bold" y="2.5" class="node-label">U</text></g><g class="noselect gnode" struct_name="m" transform="translate(86.19,-94.10)" r="6.5"><circle class="node" r="6" node_type="nucleotide" style="fill: rgb(219, 219, 141);"></circle><text text-anchor="middle" font-size="8" font-weight="bold" y="2.5" class="node-label">C</text></g><g class="noselect gnode" struct_name="m" transform="translate(96.93,-105.04)" r="6.5"><circle class="node" r="6" node_type="nucleotide" style="fill: lightgreen;"></circle><text text-anchor="middle" font-size="8" font-weight="bold" y="2.5" class="node-label">C</text></g><g class="noselect gnode" struct_name="m" transform="translate(100.92,-120.25)" r="6.5"><circle class="node" r="6" node_type="nucleotide" style="fill: lightgreen;"></circle><text text-anchor="middle" font-size="8" font-weight="bold" y="2.5" class="node-label">G</text></g><g class="noselect gnode" struct_name="m" transform="translate(97.05,-135.13)" r="6.5"><circle class="node" r="6" node_type="nucleotide" style="fill: lightblue;"></circle><text text-anchor="middle" font-size="8" font-weight="bold" y="2.5" class="node-label">C</text></g><g class="noselect gnode" struct_name="m" transform="translate(107.68,-145.63)" r="6.5"><circle class="node" r="6" node_type="nucleotide" style="fill: lightblue;"></circle><text text-anchor="middle" font-size="8" font-weight="bold" y="2.5" class="node-label">A</text></g><g class="noselect gnode" struct_name="m" transform="translate(122.15,-141.75)" r="6.5"><circle class="node" r="6" node_type="nucleotide" style="fill: lightblue;"></circle><text text-anchor="middle" font-size="8" font-weight="bold" y="2.5" class="node-label">A</text></g><g class="noselect gnode" struct_name="m" transform="translate(126.13,-127.31)" r="6.5"><circle class="node" r="6" node_type="nucleotide" style="fill: lightblue;"></circle><text text-anchor="middle" font-size="8" font-weight="bold" y="2.5" class="node-label">A</text></g><g class="noselect gnode" struct_name="m" transform="translate(115.31,-116.40)" r="6.5"><circle class="node" r="6" node_type="nucleotide" style="fill: lightgreen;"></circle><text text-anchor="middle" font-size="8" font-weight="bold" y="2.5" class="node-label">C</text></g><g class="noselect gnode" struct_name="m" transform="translate(111.24,-101.31)" r="6.5"><circle class="node" r="6" node_type="nucleotide" style="fill: lightgreen;"></circle><text text-anchor="middle" font-size="8" font-weight="bold" y="2.5" class="node-label">G</text></g><g class="noselect gnode" struct_name="m" transform="translate(115.40,-86.67)" r="6.5"><circle class="node" r="6" node_type="nucleotide" style="fill: rgb(219, 219, 141);"></circle><text text-anchor="middle" font-size="8" font-weight="bold" y="2.5" class="node-label">A</text></g><g class="noselect gnode" struct_name="m" transform="translate(104.66,-75.70)" r="6.5"><circle class="node" r="6" node_type="nucleotide" style="fill: lightgreen;"></circle><text text-anchor="middle" font-size="8" font-weight="bold" y="2.5" class="node-label">A</text></g><g class="noselect gnode" struct_name="m" transform="translate(100.77,-60.29)" r="6.5"><circle class="node" r="6" node_type="nucleotide" style="fill: lightgreen;"></circle><text text-anchor="middle" font-size="8" font-weight="bold" y="2.5" class="node-label">U</text></g><g class="noselect gnode" struct_name="m" transform="translate(97.31,-44.63)" r="6.5"><circle class="node" r="6" node_type="nucleotide" style="fill: lightgreen;"></circle><text text-anchor="middle" font-size="8" font-weight="bold" y="2.5" class="node-label">U</text></g><g class="noselect gnode" struct_name="m" transform="translate(94.13,-28.91)" r="6.5"><circle class="node" r="6" node_type="nucleotide" style="fill: lightgreen;"></circle><text text-anchor="middle" font-size="8" font-weight="bold" y="2.5" class="node-label">G</text></g><g class="noselect gnode" struct_name="m" transform="translate(91.22,-13.14)" r="6.5"><circle class="node" r="6" node_type="nucleotide" style="fill: lightgreen;"></circle><text text-anchor="middle" font-size="8" font-weight="bold" y="2.5" class="node-label">C</text></g><g class="noselect gnode" struct_name="m" transform="translate(88.37,2.61)" r="6.5"><circle class="node" r="6" node_type="nucleotide" style="fill: lightgreen;"></circle><text text-anchor="middle" font-size="8" font-weight="bold" y="2.5" class="node-label">G</text></g><g class="noselect gnode" struct_name="m" transform="translate(85.49,18.51)" r="6.5"><circle class="node" r="6" node_type="nucleotide" style="fill: lightgreen;"></circle><text text-anchor="middle" font-size="8" font-weight="bold" y="2.5" class="node-label">C</text></g><g class="noselect gnode" struct_name="m" transform="translate(82.40,34.37)" r="6.5"><circle class="node" r="6" node_type="nucleotide" style="fill: lightgreen;"></circle><text text-anchor="middle" font-size="8" font-weight="bold" y="2.5" class="node-label">G</text></g><g class="noselect gnode" struct_name="m" transform="translate(78.96,50.20)" r="6.5"><circle class="node" r="6" node_type="nucleotide" style="fill: lightgreen;"></circle><text text-anchor="middle" font-size="8" font-weight="bold" y="2.5" class="node-label">U</text></g><g class="noselect gnode" struct_name="m" transform="translate(75.39,65.98)" r="6.5"><circle class="node" r="6" node_type="nucleotide" style="fill: lightgreen;"></circle><text text-anchor="middle" font-size="8" font-weight="bold" y="2.5" class="node-label">A</text></g><g class="noselect gnode" struct_name="m" transform="translate(72.08,81.56)" r="6.5"><circle class="node" r="6" node_type="nucleotide" style="fill: lightgreen;"></circle><text text-anchor="middle" font-size="8" font-weight="bold" y="2.5" class="node-label">U</text></g><g class="noselect gnode" struct_name="m" transform="translate(82.21,92.95)" r="6.5"><circle class="node" r="6" node_type="nucleotide" style="fill: rgb(219, 219, 141);"></circle><text text-anchor="middle" font-size="8" font-weight="bold" y="2.5" class="node-label">A</text></g><g class="noselect gnode" struct_name="m" transform="translate(83.80,107.85)" r="6.5"><circle class="node" r="6" node_type="nucleotide" style="fill: rgb(219, 219, 141);"></circle><text text-anchor="middle" font-size="8" font-weight="bold" y="2.5" class="node-label">A</text></g><g class="noselect gnode" struct_name="m" transform="translate(76.28,120.88)" r="6.5"><circle class="node" r="6" node_type="nucleotide" style="fill: rgb(219, 219, 141);"></circle><text text-anchor="middle" font-size="8" font-weight="bold" y="2.5" class="node-label">U</text></g><g class="noselect gnode" struct_name="m" transform="translate(62.35,127.11)" r="6.5"><circle class="node" r="6" node_type="nucleotide" style="fill: lightgreen;"></circle><text text-anchor="middle" font-size="8" font-weight="bold" y="2.5" class="node-label">G</text></g><g class="noselect gnode" struct_name="m" transform="translate(58.89,142.60)" r="6.5"><circle class="node" r="6" node_type="nucleotide" style="fill: lightgreen;"></circle><text text-anchor="middle" font-size="8" font-weight="bold" y="2.5" class="node-label">G</text></g><g class="noselect gnode" struct_name="m" transform="translate(55.48,158.30)" r="6.5"><circle class="node" r="6" node_type="nucleotide" style="fill: lightgreen;"></circle><text text-anchor="middle" font-size="8" font-weight="bold" y="2.5" class="node-label">G</text></g><g class="noselect gnode" struct_name="m" transform="translate(52.01,174.03)" r="6.5"><circle class="node" r="6" node_type="nucleotide" style="fill: lightgreen;"></circle><text text-anchor="middle" font-size="8" font-weight="bold" y="2.5" class="node-label">U</text></g><g class="noselect gnode" struct_name="m" transform="translate(48.78,189.52)" r="6.5"><circle class="node" r="6" node_type="nucleotide" style="fill: lightgreen;"></circle><text text-anchor="middle" font-size="8" font-weight="bold" y="2.5" class="node-label">A</text></g><g class="noselect gnode" struct_name="m" transform="translate(61.15,198.58)" r="6.5"><circle class="node" r="6" node_type="nucleotide" style="fill: lightsalmon;"></circle><text text-anchor="middle" font-size="8" font-weight="bold" y="2.5" class="node-label">U</text></g><g class="noselect gnode" struct_name="m" transform="translate(69.27,211.21)" r="6.5"><circle class="node" r="6" node_type="nucleotide" style="fill: lightsalmon;"></circle><text text-anchor="middle" font-size="8" font-weight="bold" y="2.5" class="node-label">A</text></g><g class="noselect gnode" struct_name="m" transform="translate(71.95,226.07)" r="6.5"><circle class="node" r="6" node_type="nucleotide" style="fill: lightsalmon;"></circle><text text-anchor="middle" font-size="8" font-weight="bold" y="2.5" class="node-label">U</text></g><g class="noselect gnode" struct_name="m" transform="translate(68.65,240.68)" r="6.5"><circle class="node" r="6" node_type="nucleotide" style="fill: lightsalmon;"></circle><text text-anchor="middle" font-size="8" font-weight="bold" y="2.5" class="node-label">U</text></g><g class="noselect gnode" struct_name="m" transform="translate(22.48,168.18)" r="6.5"><circle class="node label" r="6" node_type="label"></circle><text text-anchor="middle" font-size="8" font-weight="bold" y="2.5" class="node-label">10</text></g><g class="noselect gnode" struct_name="m" transform="translate(53.02,27.37)" r="6.5"><circle class="node label" r="6" node_type="label"></circle><text text-anchor="middle" font-size="8" font-weight="bold" y="2.5" class="node-label">20</text></g><g class="noselect gnode" struct_name="m" transform="translate(87.01,-127.12)" r="6.5"><circle class="node label" r="6" node_type="label"></circle><text text-anchor="middle" font-size="8" font-weight="bold" y="2.5" class="node-label">30</text></g><g class="noselect gnode" struct_name="m" transform="translate(112.38,-40.58)" r="6.5"><circle class="node label" r="6" node_type="label"></circle><text text-anchor="middle" font-size="8" font-weight="bold" y="2.5" class="node-label">40</text></g><g class="noselect gnode" struct_name="m" transform="translate(99.31,109.52)" r="6.5"><circle class="node label" r="6" node_type="label"></circle><text text-anchor="middle" font-size="8" font-weight="bold" y="2.5" class="node-label">50</text></g><g class="noselect gnode" struct_name="m" transform="translate(83.34,245.48)" r="6.5"><circle class="node label" r="6" node_type="label"></circle><text text-anchor="middle" font-size="8" font-weight="bold" y="2.5" class="node-label">60</text></g><g class="noselect gnode" transform="translate(66.52,72.25)" r="6.5"><circle class="node" r="0" node_type="middle"></circle><text text-anchor="middle" font-size="8" font-weight="bold" y="2.5" class="node-label"></text></g><g class="noselect gnode" transform="translate(70.11,56.51)" r="6.5"><circle class="node" r="0" node_type="middle"></circle><text text-anchor="middle" font-size="8" font-weight="bold" y="2.5" class="node-label"></text></g><g class="noselect gnode" transform="translate(73.64,40.76)" r="6.5"><circle class="node" r="0" node_type="middle"></circle><text text-anchor="middle" font-size="8" font-weight="bold" y="2.5" class="node-label"></text></g><g class="noselect gnode" transform="translate(76.87,25.05)" r="6.5"><circle class="node" r="0" node_type="middle"></circle><text text-anchor="middle" font-size="8" font-weight="bold" y="2.5" class="node-label"></text></g><g class="noselect gnode" transform="translate(79.82,9.25)" r="6.5"><circle class="node" r="0" node_type="middle"></circle><text text-anchor="middle" font-size="8" font-weight="bold" y="2.5" class="node-label"></text></g><g class="noselect gnode" transform="translate(82.61,-6.59)" r="6.5"><circle class="node" r="0" node_type="middle"></circle><text text-anchor="middle" font-size="8" font-weight="bold" y="2.5" class="node-label"></text></g><g class="noselect gnode" transform="translate(85.48,-22.35)" r="6.5"><circle class="node" r="0" node_type="middle"></circle><text text-anchor="middle" font-size="8" font-weight="bold" y="2.5" class="node-label"></text></g><g class="noselect gnode" transform="translate(88.51,-38.21)" r="6.5"><circle class="node" r="0" node_type="middle"></circle><text text-anchor="middle" font-size="8" font-weight="bold" y="2.5" class="node-label"></text></g><g class="noselect gnode" transform="translate(91.87,-54.05)" r="6.5"><circle class="node" r="0" node_type="middle"></circle><text text-anchor="middle" font-size="8" font-weight="bold" y="2.5" class="node-label"></text></g><g class="noselect gnode" transform="translate(95.54,-69.77)" r="6.5"><circle class="node" r="0" node_type="middle"></circle><text text-anchor="middle" font-size="8" font-weight="bold" y="2.5" class="node-label"></text></g><g class="noselect gnode" transform="translate(106.10,-110.81)" r="6.5"><circle class="node" r="0" node_type="middle"></circle><text text-anchor="middle" font-size="8" font-weight="bold" y="2.5" class="node-label"></text></g><g class="noselect gnode" transform="translate(43.16,180.31)" r="6.5"><circle class="node" r="0" node_type="middle"></circle><text text-anchor="middle" font-size="8" font-weight="bold" y="2.5" class="node-label"></text></g><g class="noselect gnode" transform="translate(46.67,164.61)" r="6.5"><circle class="node" r="0" node_type="middle"></circle><text text-anchor="middle" font-size="8" font-weight="bold" y="2.5" class="node-label"></text></g><g class="noselect gnode" transform="translate(50.08,148.88)" r="6.5"><circle class="node" r="0" node_type="middle"></circle><text text-anchor="middle" font-size="8" font-weight="bold" y="2.5" class="node-label"></text></g><g class="noselect gnode" transform="translate(53.43,133.29)" r="6.5"><circle class="node" r="0" node_type="middle"></circle><text text-anchor="middle" font-size="8" font-weight="bold" y="2.5" class="node-label"></text></g><g class="noselect gnode" transform="translate(60.27,253.13)" r="6.5"><circle class="node" r="0" node_type="middle"></circle><text text-anchor="middle" font-size="8" font-weight="bold" y="2.5" class="node-label"></text></g><g class="noselect gnode" transform="translate(47.72,261.39)" r="6.5"><circle class="node" r="0" node_type="middle"></circle><text text-anchor="middle" font-size="8" font-weight="bold" y="2.5" class="node-label"></text></g><g class="noselect gnode" transform="translate(33.40,225.00)" r="6.5"><circle class="node" r="0" node_type="middle"></circle><text text-anchor="middle" font-size="8" font-weight="bold" y="2.5" class="node-label"></text></g><g class="noselect gnode" transform="translate(111.54,-131.04)" r="6.5"><circle class="node" r="0" node_type="middle"></circle><text text-anchor="middle" font-size="8" font-weight="bold" y="2.5" class="node-label"></text></g><g class="noselect gnode" transform="translate(100.76,-90.36)" r="6.5"><circle class="node" r="0" node_type="middle"></circle><text text-anchor="middle" font-size="8" font-weight="bold" y="2.5" class="node-label"></text></g><g class="noselect gnode" transform="translate(59.95,102.76)" r="6.5"><circle class="node" r="0" node_type="middle"></circle><text text-anchor="middle" font-size="8" font-weight="bold" y="2.5" class="node-label"></text></g></g><line class="drag_line" x1="0" y1="0" x2="0" y2="0"></line></g></g></svg>