<svg xmlns="http://www.w3.org/2000/svg" viewBox="0 0 760 640" width="760" height="640"><style>svg {
  display: block;
  min-width: 100%;
  width: 100%;
  min-height: 100%;
}

circle.node {
  stroke: #ccc;
  stroke-width: 1px;
  opacity: 1;
  fill: white;
}

circle.node.label {
    stroke: transparent;
    stroke-width: 0;
    fill: white;
}

circle.outline_node {
    stroke-width: 1px;
    fill: red;
}

circle.protein {
    fill: gray;
    fill-opacity: 0.5;
    stroke-width: 4;
}

circle.hidden_outline {
    stroke-width: 0px;
}


line.link {
  stroke: #999;
  stroke-opacity: 0.8;
  stroke-width: 2;
}

line.basepair {
  stroke: red;
}

line.intermolecule {
  stroke: blue;
}

line.chain_chain {
  stroke-dasharray: 3,3;
}

line.fake {
  stroke: green;
}

.transparent {
    fill: transparent;
    stroke-width: 0;
    stroke-opacity: 0;
    opacity: 0;
    visibility: hidden;
}

.drag_line {
  stroke: #999;
  stroke-width: 2;
  pointer-events: none;
}

.drag_line_hidden {
  stroke: #999;
  stroke-width: 0;
  pointer-events: none;
}

.d3-tip {
    line-height: 1;
    font-weight: bold;
    padding: 6px;
    background: rgba(0, 0, 0, 0.6);
    color: #fff;
    border-radius: 4px;
    pointer-events: none;
          }

text.node-label {
    font-weight: bold;
    font-family: Tahoma, Geneva, sans-serif;
    color: rgb(100,100,100);
    pointer-events: none;
}

text {
    pointer-events: none;
}

g.gnode {

}

circle.outline_node.selected {
    visibility: visible;
}

circle.outline_node {
    visibility: hidden;
}

.brush .extent {
  fill-opacity: .1;
  stroke: #fff;
  shape-rendering: crispEdges;
}

.noselect {
    -webkit-touch-callout: none;
    -webkit-user-select: none;
    -khtml-user-select: none;
    -moz-user-select: none;
    -ms-user-select: none;
    user-select: none;
}

svg {
  display: block;
  min-width: 100%;
  width: 100%;
  min-height: 100%;
}

circle.node {
  stroke: #ccc;
  stroke-width: 1px;
  opacity: 1;
  fill: white;
}

circle.node.label {
    stroke: transparent;
    stroke-width: 0;
    fill: white;
}

circle.outline_node {
    stroke-width: 1px;
    fill: red;
}

circle.protein {
    fill: gray;
    fill-opacity: 0.5;
    stroke-width: 4;
}

circle.hidden_outline {
    stroke-width: 0px;
}


line.link {
  stroke: #999;
  stroke-opacity: 0.8;
  stroke-width: 2;
}

line.basepair {
  stroke: red;
}

line.intermolecule {
  stroke: blue;
}

line.chain_chain {
  stroke-dasharray: 3,3;
}

line.fake {
  stroke: green;
}

.transparent {
    fill: transparent;
    stroke-width: 0;
    stroke-opacity: 0;
    opacity: 0;
    visibility: hidden;
}

.drag_line {
  stroke: #999;
  stroke-width: 2;
  pointer-events: none;
}

.drag_line_hidden {
  stroke: #999;
  stroke-width: 0;
  pointer-events: none;
}

.d3-tip {
    line-height: 1;
    font-weight: bold;
    padding: 6px;
    background: rgba(0, 0, 0, 0.6);
    color: #fff;
    border-radius: 4px;
    pointer-events: none;
          }

text.node-label {
    font-weight: bold;
    font-family: Tahoma, Geneva, sans-serif;
    color: rgb(100,100,100);
    pointer-events: none;
}

text {
    pointer-events: none;
}

g.gnode {

}

circle.outline_node.selected {
    visibility: visible;
}

circle.outline_node {
    visibility: hidden;
}

.brush .extent {
  fill-opacity: .1;
  stroke: #fff;
  shape-rendering: crispEdges;
}

.noselect {
    -webkit-touch-callout: none;
    -webkit-user-select: none;
    -khtml-user-select: none;
    -moz-user-select: none;
    -ms-user-select: none;
    user-select: none;
}
/*# sourceURL=/Users/yumanakamura/ipy_sandbox/sandbox/claude_sandbox/mrna-transformer-worktrees/feat-issue57-switch-derna-knotty/scripts/eval/prerender/forna_vendor/fornac.css*/</style><style></style><g><g class="brush" style="pointer-events: all; -webkit-tap-highlight-color: rgba(0, 0, 0, 0);"><rect class="background" x="0" width="760" y="0" height="640" style="visibility: hidden; cursor: auto;"></rect><rect class="extent" x="0" width="0" y="0" height="0" style="cursor: move;"></rect><g class="resize n" transform="translate(0,0)" style="cursor: ns-resize; display: none;"><rect y="-3" width="0" height="6" style="visibility: hidden;"></rect></g><g class="resize e" transform="translate(0,0)" style="cursor: ew-resize; display: none;"><rect x="-3" width="6" height="0" style="visibility: hidden;"></rect></g><g class="resize s" transform="translate(0,0)" style="cursor: ns-resize; display: none;"><rect y="-3" width="0" height="6" style="visibility: hidden;"></rect></g><g class="resize w" transform="translate(0,0)" style="cursor: ew-resize; display: none;"><rect x="-3" width="6" height="0" style="visibility: hidden;"></rect></g><g class="resize nw" transform="translate(0,0)" style="cursor: nwse-resize; display: none;"><rect x="-3" y="-3" width="6" height="6" style="visibility: hidden;"></rect></g><g class="resize ne" transform="translate(0,0)" style="cursor: nesw-resize; display: none;"><rect x="-3" y="-3" width="6" height="6" style="visibility: hidden;"></rect></g><g class="resize se" transform="translate(0,0)" style="cursor: nwse-resize; display: none;"><rect x="-3" y="-3" width="6" height="6" style="visibility: hidden;"></rect></g><g class="resize sw" transform="translate(0,0)" style="cursor: nesw-resize; display: none;"><rect x="-3" y="-3" width="6" height="6" style="visibility: hidden;"></rect></g></g><g transform="translate(338.42,384.65) scale(1.22)"><g><line class="link basepair" x1="10.43" y1="143.05" x2="25.32" y2="144.93"></line><line class="link backbone" x1="3.42" y1="156.83" x2="10.43" y2="143.05"></line><line class="link basepair" x1="12.43" y1="127.83" x2="27.27" y2="129.66"></line><line class="link backbone" x1="10.43" y1="143.05" x2="12.43" y2="127.83"></line><line class="link backbone" x1="12.43" y1="127.83" x2="1.25" y2="117.70"></line><line class="link backbone" x1="1.25" y1="117.70" x2="-1.72" y2="102.97"></line><line class="link backbone" x1="-1.72" y1="102.97" x2="4.54" y2="89.35"></line><line class="link basepair" x1="17.77" y1="81.80" x2="32.59" y2="83.35"></line><line class="link backbone" x1="4.54" y1="89.35" x2="17.77" y2="81.80"></line><line class="link basepair" x1="19.42" y1="66.19" x2="33.97" y2="67.44"></line><line class="link backbone" x1="17.77" y1="81.80" x2="19.42" y2="66.19"></line><line class="link basepair" x1="20.57" y1="50.41" x2="35.15" y2="51.28"></line><line class="link backbone" x1="19.42" y1="66.19" x2="20.57" y2="50.41"></line><line class="link basepair" x1="21.27" y1="34.63" x2="35.94" y2="35.15"></line><line class="link backbone" x1="20.57" y1="50.41" x2="21.27" y2="34.63"></line><line class="link basepair" x1="21.69" y1="18.85" x2="36.32" y2="19.13"></line><line class="link backbone" x1="21.27" y1="34.63" x2="21.69" y2="18.85"></line><line class="link basepair" x1="21.89" y1="2.93" x2="36.55" y2="3.14"></line><line class="link backbone" x1="21.69" y1="18.85" x2="21.89" y2="2.93"></line><line class="link basepair" x1="22.12" y1="-13.03" x2="36.80" y2="-12.72"></line><line class="link backbone" x1="21.89" y1="2.93" x2="22.12" y2="-13.03"></line><line class="link basepair" x1="22.56" y1="-28.96" x2="37.27" y2="-28.40"></line><line class="link backbone" x1="22.12" y1="-13.03" x2="22.56" y2="-28.96"></line><line class="link basepair" x1="23.30" y1="-44.90" x2="37.97" y2="-44.12"></line><line class="link backbone" x1="22.56" y1="-28.96" x2="23.30" y2="-44.90"></line><line class="link basepair" x1="24.25" y1="-60.82" x2="38.91" y2="-59.90"></line><line class="link backbone" x1="23.30" y1="-44.90" x2="24.25" y2="-60.82"></line><line class="link basepair" x1="25.29" y1="-76.65" x2="39.95" y2="-75.70"></line><line class="link backbone" x1="24.25" y1="-60.82" x2="25.29" y2="-76.65"></line><line class="link basepair" x1="26.31" y1="-92.47" x2="40.91" y2="-91.60"></line><line class="link backbone" x1="25.29" y1="-76.65" x2="26.31" y2="-92.47"></line><line class="link basepair" x1="27.09" y1="-108.28" x2="41.92" y2="-107.45"></line><line class="link backbone" x1="26.31" y1="-92.47" x2="27.09" y2="-108.28"></line><line class="link backbone" x1="27.09" y1="-108.28" x2="15.24" y2="-117.96"></line><line class="link backbone" x1="15.24" y1="-117.96" x2="11.46" y2="-132.47"></line><line class="link backbone" x1="11.46" y1="-132.47" x2="16.85" y2="-146.42"></line><line class="link basepair" x1="29.63" y1="-154.80" x2="44.44" y2="-154.00"></line><line class="link backbone" x1="16.85" y1="-146.42" x2="29.63" y2="-154.80"></line><line class="link basepair" x1="30.62" y1="-170.75" x2="45.14" y2="-169.94"></line><line class="link backbone" x1="29.63" y1="-154.80" x2="30.62" y2="-170.75"></line><line class="link basepair" x1="31.57" y1="-186.86" x2="46.11" y2="-185.92"></line><line class="link backbone" x1="30.62" y1="-170.75" x2="31.57" y2="-186.86"></line><line class="link basepair" x1="32.68" y1="-202.96" x2="47.22" y2="-201.88"></line><line class="link backbone" x1="31.57" y1="-186.86" x2="32.68" y2="-202.96"></line><line class="link basepair" x1="33.93" y1="-218.98" x2="48.50" y2="-217.78"></line><line class="link backbone" x1="32.68" y1="-202.96" x2="33.93" y2="-218.98"></line><line class="link basepair" x1="35.07" y1="-234.69" x2="50.04" y2="-233.39"></line><line class="link backbone" x1="33.93" y1="-218.98" x2="35.07" y2="-234.69"></line><line class="link backbone" x1="35.07" y1="-234.69" x2="26.55" y2="-247.57"></line><line class="link backbone" x1="26.55" y1="-247.57" x2="31.20" y2="-262.04"></line><line class="link backbone" x1="31.20" y1="-262.04" x2="45.46" y2="-267.45"></line><line class="link backbone" x1="45.46" y1="-267.45" x2="58.55" y2="-259.66"></line><line class="link backbone" x1="58.55" y1="-259.66" x2="60.67" y2="-244.62"></line><line class="link basepair" x1="50.04" y1="-233.39" x2="35.07" y2="-234.69"></line><line class="link backbone" x1="60.67" y1="-244.62" x2="50.04" y2="-233.39"></line><line class="link basepair" x1="48.50" y1="-217.78" x2="33.93" y2="-218.98"></line><line class="link backbone" x1="50.04" y1="-233.39" x2="48.50" y2="-217.78"></line><line class="link basepair" x1="47.22" y1="-201.88" x2="32.68" y2="-202.96"></line><line class="link backbone" x1="48.50" y1="-217.78" x2="47.22" y2="-201.88"></line><line class="link basepair" x1="46.11" y1="-185.92" x2="31.57" y2="-186.86"></line><line class="link backbone" x1="47.22" y1="-201.88" x2="46.11" y2="-185.92"></line><line class="link basepair" x1="45.14" y1="-169.94" x2="30.62" y2="-170.75"></line><line class="link backbone" x1="46.11" y1="-185.92" x2="45.14" y2="-169.94"></line><line class="link basepair" x1="44.44" y1="-154.00" x2="29.63" y2="-154.80"></line><line class="link backbone" x1="45.14" y1="-169.94" x2="44.44" y2="-154.00"></line><line class="link backbone" x1="44.44" y1="-154.00" x2="56.26" y2="-144.23"></line><line class="link backbone" x1="56.26" y1="-144.23" x2="60.07" y2="-129.74"></line><line class="link backbone" x1="60.07" y1="-129.74" x2="54.73" y2="-115.77"></line><line class="link basepair" x1="41.92" y1="-107.45" x2="27.09" y2="-108.28"></line><line class="link backbone" x1="54.73" y1="-115.77" x2="41.92" y2="-107.45"></line><line class="link basepair" x1="40.91" y1="-91.60" x2="26.31" y2="-92.47"></line><line class="link backbone" x1="41.92" y1="-107.45" x2="40.91" y2="-91.60"></line><line class="link basepair" x1="39.95" y1="-75.70" x2="25.29" y2="-76.65"></line><line class="link backbone" x1="40.91" y1="-91.60" x2="39.95" y2="-75.70"></line><line class="link basepair" x1="38.91" y1="-59.90" x2="24.25" y2="-60.82"></line><line class="link backbone" x1="39.95" y1="-75.70" x2="38.91" y2="-59.90"></line><line class="link basepair" x1="37.97" y1="-44.12" x2="23.30" y2="-44.90"></line><line class="link backbone" x1="38.91" y1="-59.90" x2="37.97" y2="-44.12"></line><line class="link basepair" x1="37.27" y1="-28.40" x2="22.56" y2="-28.96"></line><line class="link backbone" x1="37.97" y1="-44.12" x2="37.27" y2="-28.40"></line><line class="link basepair" x1="36.80" y1="-12.72" x2="22.12" y2="-13.03"></line><line class="link backbone" x1="37.27" y1="-28.40" x2="36.80" y2="-12.72"></line><line class="link basepair" x1="36.55" y1="3.14" x2="21.89" y2="2.93"></line><line class="link backbone" x1="36.80" y1="-12.72" x2="36.55" y2="3.14"></line><line class="link basepair" x1="36.32" y1="19.13" x2="21.69" y2="18.85"></line><line class="link backbone" x1="36.55" y1="3.14" x2="36.32" y2="19.13"></line><line class="link basepair" x1="35.94" y1="35.15" x2="21.27" y2="34.63"></line><line class="link backbone" x1="36.32" y1="19.13" x2="35.94" y2="35.15"></line><line class="link basepair" x1="35.15" y1="51.28" x2="20.57" y2="50.41"></line><line class="link backbone" x1="35.94" y1="35.15" x2="35.15" y2="51.28"></line><line class="link basepair" x1="33.97" y1="67.44" x2="19.42" y2="66.19"></line><line class="link backbone" x1="35.15" y1="51.28" x2="33.97" y2="67.44"></line><line class="link basepair" x1="32.59" y1="83.35" x2="17.77" y2="81.80"></line><line class="link backbone" x1="33.97" y1="67.44" x2="32.59" y2="83.35"></line><line class="link backbone" x1="32.59" y1="83.35" x2="43.75" y2="93.80"></line><line class="link backbone" x1="43.75" y1="93.80" x2="46.70" y2="108.49"></line><line class="link backbone" x1="46.70" y1="108.49" x2="40.52" y2="122.20"></line><line class="link basepair" x1="27.27" y1="129.66" x2="12.43" y2="127.83"></line><line class="link backbone" x1="40.52" y1="122.20" x2="27.27" y2="129.66"></line><line class="link basepair" x1="25.32" y1="144.93" x2="10.43" y2="143.05"></line><line class="link backbone" x1="27.27" y1="129.66" x2="25.32" y2="144.93"></line><line class="link label_link" x1="21.27" y1="34.63" x2="5.69" y2="33.93"></line><line class="link label_link" x1="15.24" y1="-117.96" x2="-0.36" y2="-118.09"></line><line class="link label_link" x1="31.20" y1="-262.04" x2="21.30" y2="-273.89"></line><line class="link label_link" x1="56.26" y1="-144.23" x2="71.79" y2="-142.80"></line><line class="link label_link" x1="36.55" y1="3.14" x2="52.15" y2="3.31"></line><line class="link label_link" x1="25.32" y1="144.93" x2="31.61" y2="159.15"></line><line class="link fake transparent" x1="17.77" y1="81.80" x2="26.00" y2="74.77"></line><line class="link fake transparent" x1="17.77" y1="81.80" x2="33.97" y2="67.44"></line><line class="link fake transparent" x1="19.42" y1="66.19" x2="26.00" y2="74.77"></line><line class="link fake transparent" x1="33.97" y1="67.44" x2="26.00" y2="74.77"></line><line class="link fake transparent" x1="32.59" y1="83.35" x2="26.00" y2="74.77"></line><line class="link fake transparent" x1="19.42" y1="66.19" x2="27.39" y2="58.84"></line><line class="link fake transparent" x1="20.57" y1="50.41" x2="27.39" y2="58.84"></line><line class="link fake transparent" x1="35.15" y1="51.28" x2="27.39" y2="58.84"></line><line class="link fake transparent" x1="33.97" y1="67.44" x2="27.39" y2="58.84"></line><line class="link fake transparent" x1="20.57" y1="50.41" x2="28.34" y2="42.87"></line><line class="link fake transparent" x1="21.27" y1="34.63" x2="28.34" y2="42.87"></line><line class="link fake transparent" x1="35.94" y1="35.15" x2="28.34" y2="42.87"></line><line class="link fake transparent" x1="35.15" y1="51.28" x2="28.34" y2="42.87"></line><line class="link fake transparent" x1="21.27" y1="34.63" x2="28.88" y2="26.99"></line><line class="link fake transparent" x1="21.69" y1="18.85" x2="28.88" y2="26.99"></line><line class="link fake transparent" x1="36.32" y1="19.13" x2="28.88" y2="26.99"></line><line class="link fake transparent" x1="35.94" y1="35.15" x2="28.88" y2="26.99"></line><line class="link fake transparent" x1="21.69" y1="18.85" x2="29.12" y2="11.02"></line><line class="link fake transparent" x1="21.89" y1="2.93" x2="29.12" y2="11.02"></line><line class="link fake transparent" x1="36.55" y1="3.14" x2="29.12" y2="11.02"></line><line class="link fake transparent" x1="36.32" y1="19.13" x2="29.12" y2="11.02"></line><line class="link fake transparent" x1="21.89" y1="2.93" x2="29.29" y2="-4.94"></line><line class="link fake transparent" x1="22.12" y1="-13.03" x2="29.29" y2="-4.94"></line><line class="link fake transparent" x1="36.80" y1="-12.72" x2="29.29" y2="-4.94"></line><line class="link fake transparent" x1="36.55" y1="3.14" x2="29.29" y2="-4.94"></line><line class="link fake transparent" x1="22.12" y1="-13.03" x2="29.60" y2="-20.84"></line><line class="link fake transparent" x1="22.56" y1="-28.96" x2="29.60" y2="-20.84"></line><line class="link fake transparent" x1="37.27" y1="-28.40" x2="29.60" y2="-20.84"></line><line class="link fake transparent" x1="36.80" y1="-12.72" x2="29.60" y2="-20.84"></line><line class="link fake transparent" x1="22.56" y1="-28.96" x2="30.19" y2="-36.59"></line><line class="link fake transparent" x1="23.30" y1="-44.90" x2="30.19" y2="-36.59"></line><line class="link fake transparent" x1="37.97" y1="-44.12" x2="30.19" y2="-36.59"></line><line class="link fake transparent" x1="37.27" y1="-28.40" x2="30.19" y2="-36.59"></line><line class="link fake transparent" x1="23.30" y1="-44.90" x2="31.05" y2="-52.44"></line><line class="link fake transparent" x1="24.25" y1="-60.82" x2="31.05" y2="-52.44"></line><line class="link fake transparent" x1="38.91" y1="-59.90" x2="31.05" y2="-52.44"></line><line class="link fake transparent" x1="37.97" y1="-44.12" x2="31.05" y2="-52.44"></line><line class="link fake transparent" x1="24.25" y1="-60.82" x2="32.10" y2="-68.29"></line><line class="link fake transparent" x1="25.29" y1="-76.65" x2="32.10" y2="-68.29"></line><line class="link fake transparent" x1="39.95" y1="-75.70" x2="32.10" y2="-68.29"></line><line class="link fake transparent" x1="38.91" y1="-59.90" x2="32.10" y2="-68.29"></line><line class="link fake transparent" x1="25.29" y1="-76.65" x2="33.14" y2="-84.07"></line><line class="link fake transparent" x1="26.31" y1="-92.47" x2="33.14" y2="-84.07"></line><line class="link fake transparent" x1="40.91" y1="-91.60" x2="33.14" y2="-84.07"></line><line class="link fake transparent" x1="39.95" y1="-75.70" x2="33.14" y2="-84.07"></line><line class="link fake transparent" x1="26.31" y1="-92.47" x2="34.09" y2="-99.98"></line><line class="link fake transparent" x1="27.09" y1="-108.28" x2="34.09" y2="-99.98"></line><line class="link fake transparent" x1="41.92" y1="-107.45" x2="34.09" y2="-99.98"></line><line class="link fake transparent" x1="40.91" y1="-91.60" x2="34.09" y2="-99.98"></line><line class="link fake transparent" x1="10.43" y1="143.05" x2="18.85" y2="136.42"></line><line class="link fake transparent" x1="12.43" y1="127.83" x2="18.85" y2="136.42"></line><line class="link fake transparent" x1="27.27" y1="129.66" x2="18.85" y2="136.42"></line><line class="link fake transparent" x1="25.32" y1="144.93" x2="18.85" y2="136.42"></line><line class="link fake transparent" x1="29.63" y1="-154.80" x2="37.43" y2="-162.32"></line><line class="link fake transparent" x1="30.62" y1="-170.75" x2="37.43" y2="-162.32"></line><line class="link fake transparent" x1="45.14" y1="-169.94" x2="37.43" y2="-162.32"></line><line class="link fake transparent" x1="44.44" y1="-154.00" x2="37.43" y2="-162.32"></line><line class="link fake transparent" x1="30.62" y1="-170.75" x2="38.32" y2="-178.40"></line><line class="link fake transparent" x1="31.57" y1="-186.86" x2="38.32" y2="-178.40"></line><line class="link fake transparent" x1="46.11" y1="-185.92" x2="38.32" y2="-178.40"></line><line class="link fake transparent" x1="45.14" y1="-169.94" x2="38.32" y2="-178.40"></line><line class="link fake transparent" x1="31.57" y1="-186.86" x2="39.34" y2="-194.42"></line><line class="link fake transparent" x1="32.68" y1="-202.96" x2="39.34" y2="-194.42"></line><line class="link fake transparent" x1="47.22" y1="-201.88" x2="39.34" y2="-194.42"></line><line class="link fake transparent" x1="46.11" y1="-185.92" x2="39.34" y2="-194.42"></line><line class="link fake transparent" x1="32.68" y1="-202.96" x2="40.54" y2="-210.43"></line><line class="link fake transparent" x1="33.93" y1="-218.98" x2="40.54" y2="-210.43"></line><line class="link fake transparent" x1="48.50" y1="-217.78" x2="40.54" y2="-210.43"></line><line class="link fake transparent" x1="47.22" y1="-201.88" x2="40.54" y2="-210.43"></line><line class="link fake transparent" x1="33.93" y1="-218.98" x2="41.87" y2="-226.33"></line><line class="link fake transparent" x1="35.07" y1="-234.69" x2="41.87" y2="-226.33"></line><line class="link fake transparent" x1="50.04" y1="-233.39" x2="41.87" y2="-226.33"></line><line class="link fake transparent" x1="48.50" y1="-217.78" x2="41.87" y2="-226.33"></line><line class="link fake transparent" x1="3.42" y1="156.83" x2="16.22" y2="154.40"></line><line class="link fake transparent" x1="3.42" y1="156.83" x2="25.32" y2="144.93"></line><line class="link fake transparent" x1="10.43" y1="143.05" x2="16.22" y2="154.40"></line><line class="link fake transparent" x1="10.43" y1="143.05" x2="33.50" y2="153.04"></line><line class="link fake transparent" x1="25.32" y1="144.93" x2="16.22" y2="154.40"></line><line class="link fake transparent" x1="25.32" y1="144.93" x2="25.75" y2="170.09"></line><line class="link fake transparent" x1="35.07" y1="-234.69" x2="43.94" y2="-249.84"></line><line class="link fake transparent" x1="35.07" y1="-234.69" x2="45.46" y2="-267.45"></line><line class="link fake transparent" x1="26.55" y1="-247.57" x2="43.94" y2="-249.84"></line><line class="link fake transparent" x1="26.55" y1="-247.57" x2="58.55" y2="-259.66"></line><line class="link fake transparent" x1="31.20" y1="-262.04" x2="43.94" y2="-249.84"></line><line class="link fake transparent" x1="31.20" y1="-262.04" x2="60.67" y2="-244.62"></line><line class="link fake transparent" x1="45.46" y1="-267.45" x2="43.94" y2="-249.84"></line><line class="link fake transparent" x1="45.46" y1="-267.45" x2="50.04" y2="-233.39"></line><line class="link fake transparent" x1="58.55" y1="-259.66" x2="43.94" y2="-249.84"></line><line class="link fake transparent" x1="58.55" y1="-259.66" x2="35.07" y2="-234.69"></line><line class="link fake transparent" x1="60.67" y1="-244.62" x2="43.94" y2="-249.84"></line><line class="link fake transparent" x1="60.67" y1="-244.62" x2="26.55" y2="-247.57"></line><line class="link fake transparent" x1="50.04" y1="-233.39" x2="43.94" y2="-249.84"></line><line class="link fake transparent" x1="50.04" y1="-233.39" x2="31.20" y2="-262.04"></line><line class="link fake transparent" x1="27.09" y1="-108.28" x2="35.77" y2="-131.12"></line><line class="link fake transparent" x1="27.09" y1="-108.28" x2="44.44" y2="-154.00"></line><line class="link fake transparent" x1="15.24" y1="-117.96" x2="35.77" y2="-131.12"></line><line class="link fake transparent" x1="15.24" y1="-117.96" x2="56.26" y2="-144.23"></line><line class="link fake transparent" x1="11.46" y1="-132.47" x2="35.77" y2="-131.12"></line><line class="link fake transparent" x1="11.46" y1="-132.47" x2="60.07" y2="-129.74"></line><line class="link fake transparent" x1="16.85" y1="-146.42" x2="35.77" y2="-131.12"></line><line class="link fake transparent" x1="16.85" y1="-146.42" x2="54.73" y2="-115.77"></line><line class="link fake transparent" x1="29.63" y1="-154.80" x2="35.77" y2="-131.12"></line><line class="link fake transparent" x1="29.63" y1="-154.80" x2="41.92" y2="-107.45"></line><line class="link fake transparent" x1="44.44" y1="-154.00" x2="35.77" y2="-131.12"></line><line class="link fake transparent" x1="44.44" y1="-154.00" x2="27.09" y2="-108.28"></line><line class="link fake transparent" x1="56.26" y1="-144.23" x2="35.77" y2="-131.12"></line><line class="link fake transparent" x1="56.26" y1="-144.23" x2="15.24" y2="-117.96"></line><line class="link fake transparent" x1="60.07" y1="-129.74" x2="35.77" y2="-131.12"></line><line class="link fake transparent" x1="60.07" y1="-129.74" x2="11.46" y2="-132.47"></line><line class="link fake transparent" x1="54.73" y1="-115.77" x2="35.77" y2="-131.12"></line><line class="link fake transparent" x1="54.73" y1="-115.77" x2="16.85" y2="-146.42"></line><line class="link fake transparent" x1="41.92" y1="-107.45" x2="35.77" y2="-131.12"></line><line class="link fake transparent" x1="41.92" y1="-107.45" x2="29.63" y2="-154.80"></line><line class="link fake transparent" x1="12.43" y1="127.83" x2="22.54" y2="105.69"></line><line class="link fake transparent" x1="12.43" y1="127.83" x2="32.59" y2="83.35"></line><line class="link fake transparent" x1="1.25" y1="117.70" x2="22.54" y2="105.69"></line><line class="link fake transparent" x1="1.25" y1="117.70" x2="43.75" y2="93.80"></line><line class="link fake transparent" x1="-1.72" y1="102.97" x2="22.54" y2="105.69"></line><line class="link fake transparent" x1="-1.72" y1="102.97" x2="46.70" y2="108.49"></line><line class="link fake transparent" x1="4.54" y1="89.35" x2="22.54" y2="105.69"></line><line class="link fake transparent" x1="4.54" y1="89.35" x2="40.52" y2="122.20"></line><line class="link fake transparent" x1="17.77" y1="81.80" x2="22.54" y2="105.69"></line><line class="link fake transparent" x1="17.77" y1="81.80" x2="27.27" y2="129.66"></line><line class="link fake transparent" x1="32.59" y1="83.35" x2="22.54" y2="105.69"></line><line class="link fake transparent" x1="32.59" y1="83.35" x2="12.43" y2="127.83"></line><line class="link fake transparent" x1="43.75" y1="93.80" x2="22.54" y2="105.69"></line><line class="link fake transparent" x1="43.75" y1="93.80" x2="1.25" y2="117.70"></line><line class="link fake transparent" x1="46.70" y1="108.49" x2="22.54" y2="105.69"></line><line class="link fake transparent" x1="46.70" y1="108.49" x2="-1.72" y2="102.97"></line><line class="link fake transparent" x1="40.52" y1="122.20" x2="22.54" y2="105.69"></line><line class="link fake transparent" x1="40.52" y1="122.20" x2="4.54" y2="89.35"></line><line class="link fake transparent" x1="27.27" y1="129.66" x2="22.54" y2="105.69"></line><line class="link fake transparent" x1="27.27" y1="129.66" x2="17.77" y2="81.80"></line></g><g><g class="noselect gnode" struct_name="m" transform="translate(3.42,156.83)" r="6.5"><circle class="node" r="6" node_type="nucleotide" style="fill: lightsalmon;"></circle><text text-anchor="middle" font-size="8" font-weight="bold" y="2.5" class="node-label">G</text></g><g class="noselect gnode" struct_name="m" transform="translate(10.43,143.05)" r="6.5"><circle class="node" r="6" node_type="nucleotide" style="fill: lightgreen;"></circle><text text-anchor="middle" font-size="8" font-weight="bold" y="2.5" class="node-label">A</text></g><g class="noselect gnode" struct_name="m" transform="translate(12.43,127.83)" r="6.5"><circle class="node" r="6" node_type="nucleotide" style="fill: lightgreen;"></circle><text text-anchor="middle" font-size="8" font-weight="bold" y="2.5" class="node-label">G</text></g><g class="noselect gnode" struct_name="m" transform="translate(1.25,117.70)" r="6.5"><circle class="node" r="6" node_type="nucleotide" style="fill: rgb(219, 219, 141);"></circle><text text-anchor="middle" font-size="8" font-weight="bold" y="2.5" class="node-label">A</text></g><g class="noselect gnode" struct_name="m" transform="translate(-1.72,102.97)" r="6.5"><circle class="node" r="6" node_type="nucleotide" style="fill: rgb(219, 219, 141);"></circle><text text-anchor="middle" font-size="8" font-weight="bold" y="2.5" class="node-label">A</text></g><g class="noselect gnode" struct_name="m" transform="translate(4.54,89.35)" r="6.5"><circle class="node" r="6" node_type="nucleotide" style="fill: rgb(219, 219, 141);"></circle><text text-anchor="middle" font-size="8" font-weight="bold" y="2.5" class="node-label">G</text></g><g class="noselect gnode" struct_name="m" transform="translate(17.77,81.80)" r="6.5"><circle class="node" r="6" node_type="nucleotide" style="fill: lightgreen;"></circle><text text-anchor="middle" font-size="8" font-weight="bold" y="2.5" class="node-label">G</text></g><g class="noselect gnode" struct_name="m" transform="translate(19.42,66.19)" r="6.5"><circle class="node" r="6" node_type="nucleotide" style="fill: lightgreen;"></circle><text text-anchor="middle" font-size="8" font-weight="bold" y="2.5" class="node-label">C</text></g><g class="noselect gnode" struct_name="m" transform="translate(20.57,50.41)" r="6.5"><circle class="node" r="6" node_type="nucleotide" style="fill: lightgreen;"></circle><text text-anchor="middle" font-size="8" font-weight="bold" y="2.5" class="node-label">G</text></g><g class="noselect gnode" struct_name="m" transform="translate(21.27,34.63)" r="6.5"><circle class="node" r="6" node_type="nucleotide" style="fill: lightgreen;"></circle><text text-anchor="middle" font-size="8" font-weight="bold" y="2.5" class="node-label">C</text></g><g class="noselect gnode" struct_name="m" transform="translate(21.69,18.85)" r="6.5"><circle class="node" r="6" node_type="nucleotide" style="fill: lightgreen;"></circle><text text-anchor="middle" font-size="8" font-weight="bold" y="2.5" class="node-label">A</text></g><g class="noselect gnode" struct_name="m" transform="translate(21.89,2.93)" r="6.5"><circle class="node" r="6" node_type="nucleotide" style="fill: lightgreen;"></circle><text text-anchor="middle" font-size="8" font-weight="bold" y="2.5" class="node-label">C</text></g><g class="noselect gnode" struct_name="m" transform="translate(22.12,-13.03)" r="6.5"><circle class="node" r="6" node_type="nucleotide" style="fill: lightgreen;"></circle><text text-anchor="middle" font-size="8" font-weight="bold" y="2.5" class="node-label">U</text></g><g class="noselect gnode" struct_name="m" transform="translate(22.56,-28.96)" r="6.5"><circle class="node" r="6" node_type="nucleotide" style="fill: lightgreen;"></circle><text text-anchor="middle" font-size="8" font-weight="bold" y="2.5" class="node-label">C</text></g><g class="noselect gnode" struct_name="m" transform="translate(23.30,-44.90)" r="6.5"><circle class="node" r="6" node_type="nucleotide" style="fill: lightgreen;"></circle><text text-anchor="middle" font-size="8" font-weight="bold" y="2.5" class="node-label">A</text></g><g class="noselect gnode" struct_name="m" transform="translate(24.25,-60.82)" r="6.5"><circle class="node" r="6" node_type="nucleotide" style="fill: lightgreen;"></circle><text text-anchor="middle" font-size="8" font-weight="bold" y="2.5" class="node-label">G</text></g><g class="noselect gnode" struct_name="m" transform="translate(25.29,-76.65)" r="6.5"><circle class="node" r="6" node_type="nucleotide" style="fill: lightgreen;"></circle><text text-anchor="middle" font-size="8" font-weight="bold" y="2.5" class="node-label">C</text></g><g class="noselect gnode" struct_name="m" transform="translate(26.31,-92.47)" r="6.5"><circle class="node" r="6" node_type="nucleotide" style="fill: lightgreen;"></circle><text text-anchor="middle" font-size="8" font-weight="bold" y="2.5" class="node-label">G</text></g><g class="noselect gnode" struct_name="m" transform="translate(27.09,-108.28)" r="6.5"><circle class="node" r="6" node_type="nucleotide" style="fill: lightgreen;"></circle><text text-anchor="middle" font-size="8" font-weight="bold" y="2.5" class="node-label">A</text></g><g class="noselect gnode" struct_name="m" transform="translate(15.24,-117.96)" r="6.5"><circle class="node" r="6" node_type="nucleotide" style="fill: rgb(219, 219, 141);"></circle><text text-anchor="middle" font-size="8" font-weight="bold" y="2.5" class="node-label">C</text></g><g class="noselect gnode" struct_name="m" transform="translate(11.46,-132.47)" r="6.5"><circle class="node" r="6" node_type="nucleotide" style="fill: rgb(219, 219, 141);"></circle><text text-anchor="middle" font-size="8" font-weight="bold" y="2.5" class="node-label">U</text></g><g class="noselect gnode" struct_name="m" transform="translate(16.85,-146.42)" r="6.5"><circle class="node" r="6" node_type="nucleotide" style="fill: rgb(219, 219, 141);"></circle><text text-anchor="middle" font-size="8" font-weight="bold" y="2.5" class="node-label">A</text></g><g class="noselect gnode" struct_name="m" transform="translate(29.63,-154.80)" r="6.5"><circle class="node" r="6" node_type="nucleotide" style="fill: lightgreen;"></circle><text text-anchor="middle" font-size="8" font-weight="bold" y="2.5" class="node-label">C</text></g><g class="noselect gnode" struct_name="m" transform="translate(30.62,-170.75)" r="6.5"><circle class="node" r="6" node_type="nucleotide" style="fill: lightgreen;"></circle><text text-anchor="middle" font-size="8" font-weight="bold" y="2.5" class="node-label">G</text></g><g class="noselect gnode" struct_name="m" transform="translate(31.57,-186.86)" r="6.5"><circle class="node" r="6" node_type="nucleotide" style="fill: lightgreen;"></circle><text text-anchor="middle" font-size="8" font-weight="bold" y="2.5" class="node-label">G</text></g><g class="noselect gnode" struct_name="m" transform="translate(32.68,-202.96)" r="6.5"><circle class="node" r="6" node_type="nucleotide" style="fill: lightgreen;"></circle><text text-anchor="middle" font-size="8" font-weight="bold" y="2.5" class="node-label">A</text></g><g class="noselect gnode" struct_name="m" transform="translate(33.93,-218.98)" r="6.5"><circle class="node" r="6" node_type="nucleotide" style="fill: lightgreen;"></circle><text text-anchor="middle" font-size="8" font-weight="bold" y="2.5" class="node-label">G</text></g><g class="noselect gnode" struct_name="m" transform="translate(35.07,-234.69)" r="6.5"><circle class="node" r="6" node_type="nucleotide" style="fill: lightgreen;"></circle><text text-anchor="middle" font-size="8" font-weight="bold" y="2.5" class="node-label">A</text></g><g class="noselect gnode" struct_name="m" transform="translate(26.55,-247.57)" r="6.5"><circle class="node" r="6" node_type="nucleotide" style="fill: lightblue;"></circle><text text-anchor="middle" font-size="8" font-weight="bold" y="2.5" class="node-label">C</text></g><g class="noselect gnode" struct_name="m" transform="translate(31.20,-262.04)" r="6.5"><circle class="node" r="6" node_type="nucleotide" style="fill: lightblue;"></circle><text text-anchor="middle" font-size="8" font-weight="bold" y="2.5" class="node-label">U</text></g><g class="noselect gnode" struct_name="m" transform="translate(45.46,-267.45)" r="6.5"><circle class="node" r="6" node_type="nucleotide" style="fill: lightblue;"></circle><text text-anchor="middle" font-size="8" font-weight="bold" y="2.5" class="node-label">A</text></g><g class="noselect gnode" struct_name="m" transform="translate(58.55,-259.66)" r="6.5"><circle class="node" r="6" node_type="nucleotide" style="fill: lightblue;"></circle><text text-anchor="middle" font-size="8" font-weight="bold" y="2.5" class="node-label">A</text></g><g class="noselect gnode" struct_name="m" transform="translate(60.67,-244.62)" r="6.5"><circle class="node" r="6" node_type="nucleotide" style="fill: lightblue;"></circle><text text-anchor="middle" font-size="8" font-weight="bold" y="2.5" class="node-label">C</text></g><g class="noselect gnode" struct_name="m" transform="translate(50.04,-233.39)" r="6.5"><circle class="node" r="6" node_type="nucleotide" style="fill: lightgreen;"></circle><text text-anchor="middle" font-size="8" font-weight="bold" y="2.5" class="node-label">U</text></g><g class="noselect gnode" struct_name="m" transform="translate(48.50,-217.78)" r="6.5"><circle class="node" r="6" node_type="nucleotide" style="fill: lightgreen;"></circle><text text-anchor="middle" font-size="8" font-weight="bold" y="2.5" class="node-label">C</text></g><g class="noselect gnode" struct_name="m" transform="translate(47.22,-201.88)" r="6.5"><circle class="node" r="6" node_type="nucleotide" style="fill: lightgreen;"></circle><text text-anchor="middle" font-size="8" font-weight="bold" y="2.5" class="node-label">U</text></g><g class="noselect gnode" struct_name="m" transform="translate(46.11,-185.92)" r="6.5"><circle class="node" r="6" node_type="nucleotide" style="fill: lightgreen;"></circle><text text-anchor="middle" font-size="8" font-weight="bold" y="2.5" class="node-label">C</text></g><g class="noselect gnode" struct_name="m" transform="translate(45.14,-169.94)" r="6.5"><circle class="node" r="6" node_type="nucleotide" style="fill: lightgreen;"></circle><text text-anchor="middle" font-size="8" font-weight="bold" y="2.5" class="node-label">C</text></g><g class="noselect gnode" struct_name="m" transform="translate(44.44,-154.00)" r="6.5"><circle class="node" r="6" node_type="nucleotide" style="fill: lightgreen;"></circle><text text-anchor="middle" font-size="8" font-weight="bold" y="2.5" class="node-label">G</text></g><g class="noselect gnode" struct_name="m" transform="translate(56.26,-144.23)" r="6.5"><circle class="node" r="6" node_type="nucleotide" style="fill: rgb(219, 219, 141);"></circle><text text-anchor="middle" font-size="8" font-weight="bold" y="2.5" class="node-label">C</text></g><g class="noselect gnode" struct_name="m" transform="translate(60.07,-129.74)" r="6.5"><circle class="node" r="6" node_type="nucleotide" style="fill: rgb(219, 219, 141);"></circle><text text-anchor="middle" font-size="8" font-weight="bold" y="2.5" class="node-label">A</text></g><g class="noselect gnode" struct_name="m" transform="translate(54.73,-115.77)" r="6.5"><circle class="node" r="6" node_type="nucleotide" style="fill: rgb(219, 219, 141);"></circle><text text-anchor="middle" font-size="8" font-weight="bold" y="2.5" class="node-label">C</text></g><g class="noselect gnode" struct_name="m" transform="translate(41.92,-107.45)" r="6.5"><circle class="node" r="6" node_type="nucleotide" style="fill: lightgreen;"></circle><text text-anchor="middle" font-size="8" font-weight="bold" y="2.5" class="node-label">U</text></g><g class="noselect gnode" struct_name="m" transform="translate(40.91,-91.60)" r="6.5"><circle class="node" r="6" node_type="nucleotide" style="fill: lightgreen;"></circle><text text-anchor="middle" font-size="8" font-weight="bold" y="2.5" class="node-label">C</text></g><g class="noselect gnode" struct_name="m" transform="translate(39.95,-75.70)" r="6.5"><circle class="node" r="6" node_type="nucleotide" style="fill: lightgreen;"></circle><text text-anchor="middle" font-size="8" font-weight="bold" y="2.5" class="node-label">G</text></g><g class="noselect gnode" struct_name="m" transform="translate(38.91,-59.90)" r="6.5"><circle class="node" r="6" node_type="nucleotide" style="fill: lightgreen;"></circle><text text-anchor="middle" font-size="8" font-weight="bold" y="2.5" class="node-label">C</text></g><g class="noselect gnode" struct_name="m" transform="translate(37.97,-44.12)" r="6.5"><circle class="node" r="6" node_type="nucleotide" style="fill: lightgreen;"></circle><text text-anchor="middle" font-size="8" font-weight="bold" y="2.5" class="node-label">U</text></g><g class="noselect gnode" struct_name="m" transform="translate(37.27,-28.40)" r="6.5"><circle class="node" r="6" node_type="nucleotide" style="fill: lightgreen;"></circle><text text-anchor="middle" font-size="8" font-weight="bold" y="2.5" class="node-label">G</text></g><g class="noselect gnode" struct_name="m" transform="translate(36.80,-12.72)" r="6.5"><circle class="node" r="6" node_type="nucleotide" style="fill: lightgreen;"></circle><text text-anchor="middle" font-size="8" font-weight="bold" y="2.5" class="node-label">G</text></g><g class="noselect gnode" struct_name="m" transform="translate(36.55,3.14)" r="6.5"><circle class="node" r="6" node_type="nucleotide" style="fill: lightgreen;"></circle><text text-anchor="middle" font-size="8" font-weight="bold" y="2.5" class="node-label">G</text></g><g class="noselect gnode" struct_name="m" transform="translate(36.32,19.13)" r="6.5"><circle class="node" r="6" node_type="nucleotide" style="fill: lightgreen;"></circle><text text-anchor="middle" font-size="8" font-weight="bold" y="2.5" class="node-label">U</text></g><g class="noselect gnode" struct_name="m" transform="translate(35.94,35.15)" r="6.5"><circle class="node" r="6" node_type="nucleotide" style="fill: lightgreen;"></circle><text text-anchor="middle" font-size="8" font-weight="bold" y="2.5" class="node-label">G</text></g><g class="noselect gnode" struct_name="m" transform="translate(35.15,51.28)" r="6.5"><circle class="node" r="6" node_type="nucleotide" style="fill: lightgreen;"></circle><text text-anchor="middle" font-size="8" font-weight="bold" y="2.5" class="node-label">C</text></g><g class="noselect gnode" struct_name="m" transform="translate(33.97,67.44)" r="6.5"><circle class="node" r="6" node_type="nucleotide" style="fill: lightgreen;"></circle><text text-anchor="middle" font-size="8" font-weight="bold" y="2.5" class="node-label">G</text></g><g class="noselect gnode" struct_name="m" transform="translate(32.59,83.35)" r="6.5"><circle class="node" r="6" node_type="nucleotide" style="fill: lightgreen;"></circle><text text-anchor="middle" font-size="8" font-weight="bold" y="2.5" class="node-label">U</text></g><g class="noselect gnode" struct_name="m" transform="translate(43.75,93.80)" r="6.5"><circle class="node" r="6" node_type="nucleotide" style="fill: rgb(219, 219, 141);"></circle><text text-anchor="middle" font-size="8" font-weight="bold" y="2.5" class="node-label">A</text></g><g class="noselect gnode" struct_name="m" transform="translate(46.70,108.49)" r="6.5"><circle class="node" r="6" node_type="nucleotide" style="fill: rgb(219, 219, 141);"></circle><text text-anchor="middle" font-size="8" font-weight="bold" y="2.5" class="node-label">U</text></g><g class="noselect gnode" struct_name="m" transform="translate(40.52,122.20)" r="6.5"><circle class="node" r="6" node_type="nucleotide" style="fill: rgb(219, 219, 141);"></circle><text text-anchor="middle" font-size="8" font-weight="bold" y="2.5" class="node-label">A</text></g><g class="noselect gnode" struct_name="m" transform="translate(27.27,129.66)" r="6.5"><circle class="node" r="6" node_type="nucleotide" style="fill: lightgreen;"></circle><text text-anchor="middle" font-size="8" font-weight="bold" y="2.5" class="node-label">C</text></g><g class="noselect gnode" struct_name="m" transform="translate(25.32,144.93)" r="6.5"><circle class="node" r="6" node_type="nucleotide" style="fill: lightgreen;"></circle><text text-anchor="middle" font-size="8" font-weight="bold" y="2.5" class="node-label">U</text></g><g class="noselect gnode" struct_name="m" transform="translate(5.69,33.93)" r="6.5"><circle class="node label" r="6" node_type="label"></circle><text text-anchor="middle" font-size="8" font-weight="bold" y="2.5" class="node-label">10</text></g><g class="noselect gnode" struct_name="m" transform="translate(-0.36,-118.09)" r="6.5"><circle class="node label" r="6" node_type="label"></circle><text text-anchor="middle" font-size="8" font-weight="bold" y="2.5" class="node-label">20</text></g><g class="noselect gnode" struct_name="m" transform="translate(21.30,-273.89)" r="6.5"><circle class="node label" r="6" node_type="label"></circle><text text-anchor="middle" font-size="8" font-weight="bold" y="2.5" class="node-label">30</text></g><g class="noselect gnode" struct_name="m" transform="translate(71.79,-142.80)" r="6.5"><circle class="node label" r="6" node_type="label"></circle><text text-anchor="middle" font-size="8" font-weight="bold" y="2.5" class="node-label">40</text></g><g class="noselect gnode" struct_name="m" transform="translate(52.15,3.31)" r="6.5"><circle class="node label" r="6" node_type="label"></circle><text text-anchor="middle" font-size="8" font-weight="bold" y="2.5" class="node-label">50</text></g><g class="noselect gnode" struct_name="m" transform="translate(31.61,159.15)" r="6.5"><circle class="node label" r="6" node_type="label"></circle><text text-anchor="middle" font-size="8" font-weight="bold" y="2.5" class="node-label">60</text></g><g class="noselect gnode" transform="translate(26.00,74.77)" r="6.5"><circle class="node" r="0" node_type="middle"></circle><text text-anchor="middle" font-size="8" font-weight="bold" y="2.5" class="node-label"></text></g><g class="noselect gnode" transform="translate(27.39,58.84)" r="6.5"><circle class="node" r="0" node_type="middle"></circle><text text-anchor="middle" font-size="8" font-weight="bold" y="2.5" class="node-label"></text></g><g class="noselect gnode" transform="translate(28.34,42.87)" r="6.5"><circle class="node" r="0" node_type="middle"></circle><text text-anchor="middle" font-size="8" font-weight="bold" y="2.5" class="node-label"></text></g><g class="noselect gnode" transform="translate(28.88,26.99)" r="6.5"><circle class="node" r="0" node_type="middle"></circle><text text-anchor="middle" font-size="8" font-weight="bold" y="2.5" class="node-label"></text></g><g class="noselect gnode" transform="translate(29.12,11.02)" r="6.5"><circle class="node" r="0" node_type="middle"></circle><text text-anchor="middle" font-size="8" font-weight="bold" y="2.5" class="node-label"></text></g><g class="noselect gnode" transform="translate(29.29,-4.94)" r="6.5"><circle class="node" r="0" node_type="middle"></circle><text text-anchor="middle" font-size="8" font-weight="bold" y="2.5" class="node-label"></text></g><g class="noselect gnode" transform="translate(29.60,-20.84)" r="6.5"><circle class="node" r="0" node_type="middle"></circle><text text-anchor="middle" font-size="8" font-weight="bold" y="2.5" class="node-label"></text></g><g class="noselect gnode" transform="translate(30.19,-36.59)" r="6.5"><circle class="node" r="0" node_type="middle"></circle><text text-anchor="middle" font-size="8" font-weight="bold" y="2.5" class="node-label"></text></g><g class="noselect gnode" transform="translate(31.05,-52.44)" r="6.5"><circle class="node" r="0" node_type="middle"></circle><text text-anchor="middle" font-size="8" font-weight="bold" y="2.5" class="node-label"></text></g><g class="noselect gnode" transform="translate(32.10,-68.29)" r="6.5"><circle class="node" r="0" node_type="middle"></circle><text text-anchor="middle" font-size="8" font-weight="bold" y="2.5" class="node-label"></text></g><g class="noselect gnode" transform="translate(33.14,-84.07)" r="6.5"><circle class="node" r="0" node_type="middle"></circle><text text-anchor="middle" font-size="8" font-weight="bold" y="2.5" class="node-label"></text></g><g class="noselect gnode" transform="translate(34.09,-99.98)" r="6.5"><circle class="node" r="0" node_type="middle"></circle><text text-anchor="middle" font-size="8" font-weight="bold" y="2.5" class="node-label"></text></g><g class="noselect gnode" transform="translate(18.85,136.42)" r="6.5"><circle class="node" r="0" node_type="middle"></circle><text text-anchor="middle" font-size="8" font-weight="bold" y="2.5" class="node-label"></text></g><g class="noselect gnode" transform="translate(37.43,-162.32)" r="6.5"><circle class="node" r="0" node_type="middle"></circle><text text-anchor="middle" font-size="8" font-weight="bold" y="2.5" class="node-label"></text></g><g class="noselect gnode" transform="translate(38.32,-178.40)" r="6.5"><circle class="node" r="0" node_type="middle"></circle><text text-anchor="middle" font-size="8" font-weight="bold" y="2.5" class="node-label"></text></g><g class="noselect gnode" transform="translate(39.34,-194.42)" r="6.5"><circle class="node" r="0" node_type="middle"></circle><text text-anchor="middle" font-size="8" font-weight="bold" y="2.5" class="node-label"></text></g><g class="noselect gnode" transform="translate(40.54,-210.43)" r="6.5"><circle class="node" r="0" node_type="middle"></circle><text text-anchor="middle" font-size="8" font-weight="bold" y="2.5" class="node-label"></text></g><g class="noselect gnode" transform="translate(41.87,-226.33)" r="6.5"><circle class="node" r="0" node_type="middle"></circle><text text-anchor="middle" font-size="8" font-weight="bold" y="2.5" class="node-label"></text></g><g class="noselect gnode" transform="translate(33.50,153.04)" r="6.5"><circle class="node" r="0" node_type="middle"></circle><text text-anchor="middle" font-size="8" font-weight="bold" y="2.5" class="node-label"></text></g><g class="noselect gnode" transform="translate(25.75,170.09)" r="6.5"><circle class="node" r="0" node_type="middle"></circle><text text-anchor="middle" font-size="8" font-weight="bold" y="2.5" class="node-label"></text></g><g class="noselect gnode" transform="translate(16.22,154.40)" r="6.5"><circle class="node" r="0" node_type="middle"></circle><text text-anchor="middle" font-size="8" font-weight="bold" y="2.5" class="node-label"></text></g><g class="noselect gnode" transform="translate(43.94,-249.84)" r="6.5"><circle class="node" r="0" node_type="middle"></circle><text text-anchor="middle" font-size="8" font-weight="bold" y="2.5" class="node-label"></text></g><g class="noselect gnode" transform="translate(35.77,-131.12)" r="6.5"><circle class="node" r="0" node_type="middle"></circle><text text-anchor="middle" font-size="8" font-weight="bold" y="2.5" class="node-label"></text></g><g class="noselect gnode" transform="translate(22.54,105.69)" r="6.5"><circle class="node" r="0" node_type="middle"></circle><text text-anchor="middle" font-size="8" font-weight="bold" y="2.5" class="node-label"></text></g></g><line class="drag_line" x1="0" y1="0" x2="0" y2="0"></line></g></g></svg>