<svg xmlns="http://www.w3.org/2000/svg" viewBox="0 0 760 640" width="760" height="640"><style>svg {
  display: block;
  min-width: 100%;
  width: 100%;
  min-height: 100%;
}

circle.node {
  stroke: #ccc;
  stroke-width: 1px;
  opacity: 1;
  fill: white;
}

circle.node.label {
    stroke: transparent;
    stroke-width: 0;
    fill: white;
}

circle.outline_node {
    stroke-width: 1px;
    fill: red;
}

circle.protein {
    fill: gray;
    fill-opacity: 0.5;
    stroke-width: 4;
}

circle.hidden_outline {
    stroke-width: 0px;
}


line.link {
  stroke: #999;
  stroke-opacity: 0.8;
  stroke-width: 2;
}

line.basepair {
  stroke: red;
}

line.intermolecule {
  stroke: blue;
}

line.chain_chain {
  stroke-dasharray: 3,3;
}

line.fake {
  stroke: green;
}

.transparent {
    fill: transparent;
    stroke-width: 0;
    stroke-opacity: 0;
    opacity: 0;
    visibility: hidden;
}

.drag_line {
  stroke: #999;
  stroke-width: 2;
  pointer-events: none;
}

.drag_line_hidden {
  stroke: #999;
  stroke-width: 0;
  pointer-events: none;
}

.d3-tip {
    line-height: 1;
    font-weight: bold;
    padding: 6px;
    background: rgba(0, 0, 0, 0.6);
    color: #fff;
    border-radius: 4px;
    pointer-events: none;
          }

text.node-label {
    font-weight: bold;
    font-family: Tahoma, Geneva, sans-serif;
    color: rgb(100,100,100);
    pointer-events: none;
}

text {
    pointer-events: none;
}

g.gnode {

}

circle.outline_node.selected {
    visibility: visible;
}

circle.outline_node {
    visibility: hidden;
}

.brush .extent {
  fill-opacity: .1;
  stroke: #fff;
  shape-rendering: crispEdges;
}

.noselect {
    -webkit-touch-callout: none;
    -webkit-user-select: none;
    -khtml-user-select: none;
    -moz-user-select: none;
    -ms-user-select: none;
    user-select: none;
}

svg {
  display: block;
  min-width: 100%;
  width: 100%;
  min-height: 100%;
}

circle.node {
  stroke: #ccc;
  stroke-width: 1px;
  opacity: 1;
  fill: white;
}

circle.node.label {
    stroke: transparent;
    stroke-width: 0;
    fill: white;
}

circle.outline_node {
    stroke-width: 1px;
    fill: red;
}

circle.protein {
    fill: gray;
    fill-opacity: 0.5;
    stroke-width: 4;
}

circle.hidden_outline {
    stroke-width: 0px;
}


line.link {
  stroke: #999;
  stroke-opacity: 0.8;
  stroke-width: 2;
}

line.basepair {
  stroke: red;
}

line.intermolecule {
  stroke: blue;
}

line.chain_chain {
  stroke-dasharray: 3,3;
}

line.fake {
  stroke: green;
}

.transparent {
    fill: transparent;
    stroke-width: 0;
    stroke-opacity: 0;
    opacity: 0;
    visibility: hidden;
}

.drag_line {
  stroke: #999;
  stroke-width: 2;
  pointer-events: none;
}

.drag_line_hidden {
  stroke: #999;
  stroke-width: 0;
  pointer-events: none;
}

.d3-tip {
    line-height: 1;
    font-weight: bold;
    padding: 6px;
    background: rgba(0, 0, 0, 0.6);
    color: #fff;
    border-radius: 4px;
    pointer-events: none;
          }

text.node-label {
    font-weight: bold;
    font-family: Tahoma, Geneva, sans-serif;
    color: rgb(100,100,100);
    pointer-events: none;
}

text {
    pointer-events: none;
}

g.gnode {

}

circle.outline_node.selected {
    visibility: visible;
}

circle.outline_node {
    visibility: hidden;
}

.brush .extent {
  fill-opacity: .1;
  stroke: #fff;
  shape-rendering: crispEdges;
}

.noselect {
    -webkit-touch-callout: none;
    -webkit-user-select: none;
    -khtml-user-select: none;
    -moz-user-select: none;
    -ms-user-select: none;
    user-select: none;
}
/*# sourceURL=/Users/yumanakamura/ipy_sandbox/sandbox/claude_sandbox/mrna-transformer-worktrees/feat-issue57-switch-derna-knotty/scripts/eval/prerender/forna_vendor/fornac.css*/</style><style></style><g><g class="brush" style="pointer-events: all; -webkit-tap-highlight-color: rgba(0, 0, 0, 0);"><rect class="background" x="0" width="760" y="0" height="640" style="visibility: hidden; cursor: auto;"></rect><rect class="extent" x="0" width="0" y="0" height="0" style="cursor: move;"></rect><g class="resize n" transform="translate(0,0)" style="cursor: ns-resize; display: none;"><rect y="-3" width="0" height="6" style="visibility: hidden;"></rect></g><g class="resize e" transform="translate(0,0)" style="cursor: ew-resize; display: none;"><rect x="-3" width="6" height="0" style="visibility: hidden;"></rect></g><g class="resize s" transform="translate(0,0)" style="cursor: ns-resize; display: none;"><rect y="-3" width="0" height="6" style="visibility: hidden;"></rect></g><g class="resize w" transform="translate(0,0)" style="cursor: ew-resize; display: none;"><rect x="-3" width="6" height="0" style="visibility: hidden;"></rect></g><g class="resize nw" transform="translate(0,0)" style="cursor: nwse-resize; display: none;"><rect x="-3" y="-3" width="6" height="6" style="visibility: hidden;"></rect></g><g class="resize ne" transform="translate(0,0)" style="cursor: nesw-resize; display: none;"><rect x="-3" y="-3" width="6" height="6" style="visibility: hidden;"></rect></g><g class="resize se" transform="translate(0,0)" style="cursor: nwse-resize; display: none;"><rect x="-3" y="-3" width="6" height="6" style="visibility: hidden;"></rect></g><g class="resize sw" transform="translate(0,0)" style="cursor: nesw-resize; display: none;"><rect x="-3" y="-3" width="6" height="6" style="visibility: hidden;"></rect></g></g><g transform="translate(330.96,177.36) scale(1.17)"><g><line class="link backbone" x1="32.13" y1="320.06" x2="30.18" y2="305.15"></line><line class="link backbone" x1="30.18" y1="305.15" x2="35.84" y2="291.26"></line><line class="link basepair" x1="47.74" y1="281.58" x2="62.61" y2="279.54"></line><line class="link backbone" x1="35.84" y1="291.26" x2="47.74" y2="281.58"></line><line class="link basepair" x1="45.86" y1="265.84" x2="60.38" y2="264.06"></line><line class="link backbone" x1="47.74" y1="281.58" x2="45.86" y2="265.84"></line><line class="link basepair" x1="44.04" y1="249.87" x2="58.58" y2="248.35"></line><line class="link backbone" x1="45.86" y1="265.84" x2="44.04" y2="249.87"></line><line class="link basepair" x1="42.52" y1="233.80" x2="57.04" y2="232.51"></line><line class="link backbone" x1="44.04" y1="249.87" x2="42.52" y2="233.80"></line><line class="link basepair" x1="41.17" y1="217.73" x2="55.70" y2="216.56"></line><line class="link backbone" x1="42.52" y1="233.80" x2="41.17" y2="217.73"></line><line class="link basepair" x1="39.92" y1="201.75" x2="54.44" y2="200.58"></line><line class="link backbone" x1="41.17" y1="217.73" x2="39.92" y2="201.75"></line><line class="link basepair" x1="38.51" y1="185.86" x2="53.20" y2="184.55"></line><line class="link backbone" x1="39.92" y1="201.75" x2="38.51" y2="185.86"></line><line class="link backbone" x1="38.51" y1="185.86" x2="29.62" y2="173.34"></line><line class="link basepair" x1="36.01" y1="159.53" x2="50.72" y2="158.08"></line><line class="link backbone" x1="29.62" y1="173.34" x2="36.01" y2="159.53"></line><line class="link basepair" x1="34.44" y1="143.78" x2="48.96" y2="142.20"></line><line class="link backbone" x1="36.01" y1="159.53" x2="34.44" y2="143.78"></line><line class="link basepair" x1="32.65" y1="127.90" x2="47.13" y2="126.22"></line><line class="link backbone" x1="34.44" y1="143.78" x2="32.65" y2="127.90"></line><line class="link basepair" x1="30.67" y1="112.09" x2="45.36" y2="110.36"></line><line class="link backbone" x1="32.65" y1="127.90" x2="30.67" y2="112.09"></line><line class="link backbone" x1="30.67" y1="112.09" x2="21.49" y2="99.81"></line><line class="link basepair" x1="27.60" y1="85.80" x2="42.29" y2="84.13"></line><line class="link backbone" x1="21.49" y1="99.81" x2="27.60" y2="85.80"></line><line class="link basepair" x1="26.04" y1="69.77" x2="40.48" y2="68.33"></line><line class="link backbone" x1="27.60" y1="85.80" x2="26.04" y2="69.77"></line><line class="link basepair" x1="24.47" y1="53.66" x2="38.94" y2="52.28"></line><line class="link backbone" x1="26.04" y1="69.77" x2="24.47" y2="53.66"></line><line class="link basepair" x1="22.95" y1="37.62" x2="37.43" y2="36.22"></line><line class="link backbone" x1="24.47" y1="53.66" x2="22.95" y2="37.62"></line><line class="link basepair" x1="21.38" y1="21.59" x2="35.81" y2="20.12"></line><line class="link backbone" x1="22.95" y1="37.62" x2="21.38" y2="21.59"></line><line class="link basepair" x1="19.70" y1="5.53" x2="34.11" y2="3.98"></line><line class="link backbone" x1="21.38" y1="21.59" x2="19.70" y2="5.53"></line><line class="link basepair" x1="17.79" y1="-10.34" x2="32.45" y2="-12.04"></line><line class="link backbone" x1="19.70" y1="5.53" x2="17.79" y2="-10.34"></line><line class="link backbone" x1="17.79" y1="-10.34" x2="8.60" y2="-22.59"></line><line class="link basepair" x1="14.65" y1="-36.60" x2="29.32" y2="-38.38"></line><line class="link backbone" x1="8.60" y1="-22.59" x2="14.65" y2="-36.60"></line><line class="link basepair" x1="12.65" y1="-52.16" x2="27.45" y2="-54.00"></line><line class="link backbone" x1="14.65" y1="-36.60" x2="12.65" y2="-52.16"></line><line class="link backbone" x1="12.65" y1="-52.16" x2="0.60" y2="-61.65"></line><line class="link backbone" x1="0.60" y1="-61.65" x2="-1.29" y2="-76.46"></line><line class="link backbone" x1="-1.29" y1="-76.46" x2="7.99" y2="-88.29"></line><line class="link backbone" x1="7.99" y1="-88.29" x2="22.83" y2="-90.23"></line><line class="link backbone" x1="22.83" y1="-90.23" x2="34.80" y2="-81.06"></line><line class="link backbone" x1="34.80" y1="-81.06" x2="36.71" y2="-66.25"></line><line class="link basepair" x1="27.45" y1="-54.00" x2="12.65" y2="-52.16"></line><line class="link backbone" x1="36.71" y1="-66.25" x2="27.45" y2="-54.00"></line><line class="link basepair" x1="29.32" y1="-38.38" x2="14.65" y2="-36.60"></line><line class="link backbone" x1="27.45" y1="-54.00" x2="29.32" y2="-38.38"></line><line class="link backbone" x1="29.32" y1="-38.38" x2="38.53" y2="-26.15"></line><line class="link basepair" x1="32.45" y1="-12.04" x2="17.79" y2="-10.34"></line><line class="link backbone" x1="38.53" y1="-26.15" x2="32.45" y2="-12.04"></line><line class="link basepair" x1="34.11" y1="3.98" x2="19.70" y2="5.53"></line><line class="link backbone" x1="32.45" y1="-12.04" x2="34.11" y2="3.98"></line><line class="link basepair" x1="35.81" y1="20.12" x2="21.38" y2="21.59"></line><line class="link backbone" x1="34.11" y1="3.98" x2="35.81" y2="20.12"></line><line class="link basepair" x1="37.43" y1="36.22" x2="22.95" y2="37.62"></line><line class="link backbone" x1="35.81" y1="20.12" x2="37.43" y2="36.22"></line><line class="link basepair" x1="38.94" y1="52.28" x2="24.47" y2="53.66"></line><line class="link backbone" x1="37.43" y1="36.22" x2="38.94" y2="52.28"></line><line class="link basepair" x1="40.48" y1="68.33" x2="26.04" y2="69.77"></line><line class="link backbone" x1="38.94" y1="52.28" x2="40.48" y2="68.33"></line><line class="link basepair" x1="42.29" y1="84.13" x2="27.60" y2="85.80"></line><line class="link backbone" x1="40.48" y1="68.33" x2="42.29" y2="84.13"></line><line class="link backbone" x1="42.29" y1="84.13" x2="51.45" y2="96.31"></line><line class="link basepair" x1="45.36" y1="110.36" x2="30.67" y2="112.09"></line><line class="link backbone" x1="51.45" y1="96.31" x2="45.36" y2="110.36"></line><line class="link basepair" x1="47.13" y1="126.22" x2="32.65" y2="127.90"></line><line class="link backbone" x1="45.36" y1="110.36" x2="47.13" y2="126.22"></line><line class="link basepair" x1="48.96" y1="142.20" x2="34.44" y2="143.78"></line><line class="link backbone" x1="47.13" y1="126.22" x2="48.96" y2="142.20"></line><line class="link basepair" x1="50.72" y1="158.08" x2="36.01" y2="159.53"></line><line class="link backbone" x1="48.96" y1="142.20" x2="50.72" y2="158.08"></line><line class="link backbone" x1="50.72" y1="158.08" x2="59.63" y2="170.53"></line><line class="link basepair" x1="53.20" y1="184.55" x2="38.51" y2="185.86"></line><line class="link backbone" x1="59.63" y1="170.53" x2="53.20" y2="184.55"></line><line class="link basepair" x1="54.44" y1="200.58" x2="39.92" y2="201.75"></line><line class="link backbone" x1="53.20" y1="184.55" x2="54.44" y2="200.58"></line><line class="link basepair" x1="55.70" y1="216.56" x2="41.17" y2="217.73"></line><line class="link backbone" x1="54.44" y1="200.58" x2="55.70" y2="216.56"></line><line class="link basepair" x1="57.04" y1="232.51" x2="42.52" y2="233.80"></line><line class="link backbone" x1="55.70" y1="216.56" x2="57.04" y2="232.51"></line><line class="link basepair" x1="58.58" y1="248.35" x2="44.04" y2="249.87"></line><line class="link backbone" x1="57.04" y1="232.51" x2="58.58" y2="248.35"></line><line class="link basepair" x1="60.38" y1="264.06" x2="45.86" y2="265.84"></line><line class="link backbone" x1="58.58" y1="248.35" x2="60.38" y2="264.06"></line><line class="link basepair" x1="62.61" y1="279.54" x2="47.74" y2="281.58"></line><line class="link backbone" x1="60.38" y1="264.06" x2="62.61" y2="279.54"></line><line class="link backbone" x1="62.61" y1="279.54" x2="76.66" y2="285.87"></line><line class="link backbone" x1="76.66" y1="285.87" x2="85.82" y2="297.79"></line><line class="link backbone" x1="85.82" y1="297.79" x2="87.82" y2="312.75"></line><line class="link backbone" x1="87.82" y1="312.75" x2="81.93" y2="326.58"></line><line class="link backbone" x1="81.93" y1="326.58" x2="69.75" y2="335.42"></line><line class="link label_link" x1="38.51" y1="185.86" x2="23.11" y2="188.38"></line><line class="link label_link" x1="22.95" y1="37.62" x2="7.47" y2="39.63"></line><line class="link label_link" x1="22.83" y1="-90.23" x2="26.83" y2="-105.12"></line><line class="link label_link" x1="38.94" y1="52.28" x2="54.43" y2="50.31"></line><line class="link label_link" x1="54.44" y1="200.58" x2="69.90" y2="198.36"></line><line class="link label_link" x1="69.75" y1="335.42" x2="73.89" y2="350.28"></line><line class="link fake transparent" x1="36.01" y1="159.53" x2="42.57" y2="150.89"></line><line class="link fake transparent" x1="36.01" y1="159.53" x2="48.96" y2="142.20"></line><line class="link fake transparent" x1="34.44" y1="143.78" x2="42.57" y2="150.89"></line><line class="link fake transparent" x1="48.96" y1="142.20" x2="42.57" y2="150.89"></line><line class="link fake transparent" x1="50.72" y1="158.08" x2="42.57" y2="150.89"></line><line class="link fake transparent" x1="34.44" y1="143.78" x2="40.82" y2="135.02"></line><line class="link fake transparent" x1="32.65" y1="127.90" x2="40.82" y2="135.02"></line><line class="link fake transparent" x1="47.13" y1="126.22" x2="40.82" y2="135.02"></line><line class="link fake transparent" x1="48.96" y1="142.20" x2="40.82" y2="135.02"></line><line class="link fake transparent" x1="32.65" y1="127.90" x2="38.96" y2="119.14"></line><line class="link fake transparent" x1="30.67" y1="112.09" x2="38.96" y2="119.14"></line><line class="link fake transparent" x1="45.36" y1="110.36" x2="38.96" y2="119.14"></line><line class="link fake transparent" x1="47.13" y1="126.22" x2="38.96" y2="119.14"></line><line class="link fake transparent" x1="27.60" y1="85.80" x2="34.04" y2="77.05"></line><line class="link fake transparent" x1="26.04" y1="69.77" x2="34.04" y2="77.05"></line><line class="link fake transparent" x1="40.48" y1="68.33" x2="34.04" y2="77.05"></line><line class="link fake transparent" x1="42.29" y1="84.13" x2="34.04" y2="77.05"></line><line class="link fake transparent" x1="26.04" y1="69.77" x2="32.45" y2="61.01"></line><line class="link fake transparent" x1="24.47" y1="53.66" x2="32.45" y2="61.01"></line><line class="link fake transparent" x1="38.94" y1="52.28" x2="32.45" y2="61.01"></line><line class="link fake transparent" x1="40.48" y1="68.33" x2="32.45" y2="61.01"></line><line class="link fake transparent" x1="24.47" y1="53.66" x2="30.95" y2="44.93"></line><line class="link fake transparent" x1="22.95" y1="37.62" x2="30.95" y2="44.93"></line><line class="link fake transparent" x1="37.43" y1="36.22" x2="30.95" y2="44.93"></line><line class="link fake transparent" x1="38.94" y1="52.28" x2="30.95" y2="44.93"></line><line class="link fake transparent" x1="22.95" y1="37.62" x2="29.42" y2="28.91"></line><line class="link fake transparent" x1="21.38" y1="21.59" x2="29.42" y2="28.91"></line><line class="link fake transparent" x1="35.81" y1="20.12" x2="29.42" y2="28.91"></line><line class="link fake transparent" x1="37.43" y1="36.22" x2="29.42" y2="28.91"></line><line class="link fake transparent" x1="21.38" y1="21.59" x2="27.77" y2="12.81"></line><line class="link fake transparent" x1="19.70" y1="5.53" x2="27.77" y2="12.81"></line><line class="link fake transparent" x1="34.11" y1="3.98" x2="27.77" y2="12.81"></line><line class="link fake transparent" x1="35.81" y1="20.12" x2="27.77" y2="12.81"></line><line class="link fake transparent" x1="19.70" y1="5.53" x2="26.03" y2="-3.23"></line><line class="link fake transparent" x1="17.79" y1="-10.34" x2="26.03" y2="-3.23"></line><line class="link fake transparent" x1="32.45" y1="-12.04" x2="26.03" y2="-3.23"></line><line class="link fake transparent" x1="34.11" y1="3.98" x2="26.03" y2="-3.23"></line><line class="link fake transparent" x1="14.65" y1="-36.60" x2="21.01" y2="-45.34"></line><line class="link fake transparent" x1="12.65" y1="-52.16" x2="21.01" y2="-45.34"></line><line class="link fake transparent" x1="27.45" y1="-54.00" x2="21.01" y2="-45.34"></line><line class="link fake transparent" x1="29.32" y1="-38.38" x2="21.01" y2="-45.34"></line><line class="link fake transparent" x1="47.74" y1="281.58" x2="54.09" y2="272.87"></line><line class="link fake transparent" x1="45.86" y1="265.84" x2="54.09" y2="272.87"></line><line class="link fake transparent" x1="60.38" y1="264.06" x2="54.09" y2="272.87"></line><line class="link fake transparent" x1="62.61" y1="279.54" x2="54.09" y2="272.87"></line><line class="link fake transparent" x1="45.86" y1="265.84" x2="52.14" y2="257.08"></line><line class="link fake transparent" x1="44.04" y1="249.87" x2="52.14" y2="257.08"></line><line class="link fake transparent" x1="58.58" y1="248.35" x2="52.14" y2="257.08"></line><line class="link fake transparent" x1="60.38" y1="264.06" x2="52.14" y2="257.08"></line><line class="link fake transparent" x1="44.04" y1="249.87" x2="50.48" y2="241.17"></line><line class="link fake transparent" x1="42.52" y1="233.80" x2="50.48" y2="241.17"></line><line class="link fake transparent" x1="57.04" y1="232.51" x2="50.48" y2="241.17"></line><line class="link fake transparent" x1="58.58" y1="248.35" x2="50.48" y2="241.17"></line><line class="link fake transparent" x1="42.52" y1="233.80" x2="49.07" y2="225.17"></line><line class="link fake transparent" x1="41.17" y1="217.73" x2="49.07" y2="225.17"></line><line class="link fake transparent" x1="55.70" y1="216.56" x2="49.07" y2="225.17"></line><line class="link fake transparent" x1="57.04" y1="232.51" x2="49.07" y2="225.17"></line><line class="link fake transparent" x1="41.17" y1="217.73" x2="47.80" y2="209.18"></line><line class="link fake transparent" x1="39.92" y1="201.75" x2="47.80" y2="209.18"></line><line class="link fake transparent" x1="54.44" y1="200.58" x2="47.80" y2="209.18"></line><line class="link fake transparent" x1="55.70" y1="216.56" x2="47.80" y2="209.18"></line><line class="link fake transparent" x1="39.92" y1="201.75" x2="46.55" y2="193.19"></line><line class="link fake transparent" x1="38.51" y1="185.86" x2="46.55" y2="193.19"></line><line class="link fake transparent" x1="53.20" y1="184.55" x2="46.55" y2="193.19"></line><line class="link fake transparent" x1="54.44" y1="200.58" x2="46.55" y2="193.19"></line><line class="link fake transparent" x1="32.13" y1="320.06" x2="58.96" y2="308.53"></line><line class="link fake transparent" x1="32.13" y1="320.06" x2="85.82" y2="297.79"></line><line class="link fake transparent" x1="30.18" y1="305.15" x2="58.96" y2="308.53"></line><line class="link fake transparent" x1="30.18" y1="305.15" x2="87.82" y2="312.75"></line><line class="link fake transparent" x1="35.84" y1="291.26" x2="58.96" y2="308.53"></line><line class="link fake transparent" x1="35.84" y1="291.26" x2="81.93" y2="326.58"></line><line class="link fake transparent" x1="47.74" y1="281.58" x2="58.96" y2="308.53"></line><line class="link fake transparent" x1="47.74" y1="281.58" x2="69.75" y2="335.42"></line><line class="link fake transparent" x1="62.61" y1="279.54" x2="58.96" y2="308.53"></line><line class="link fake transparent" x1="62.61" y1="279.54" x2="54.91" y2="337.28"></line><line class="link fake transparent" x1="76.66" y1="285.87" x2="58.96" y2="308.53"></line><line class="link fake transparent" x1="76.66" y1="285.87" x2="40.94" y2="332.04"></line><line class="link fake transparent" x1="85.82" y1="297.79" x2="58.96" y2="308.53"></line><line class="link fake transparent" x1="85.82" y1="297.79" x2="32.13" y2="320.06"></line><line class="link fake transparent" x1="87.82" y1="312.75" x2="58.96" y2="308.53"></line><line class="link fake transparent" x1="87.82" y1="312.75" x2="30.18" y2="305.15"></line><line class="link fake transparent" x1="81.93" y1="326.58" x2="58.96" y2="308.53"></line><line class="link fake transparent" x1="81.93" y1="326.58" x2="35.84" y2="291.26"></line><line class="link fake transparent" x1="69.75" y1="335.42" x2="58.96" y2="308.53"></line><line class="link fake transparent" x1="69.75" y1="335.42" x2="47.74" y2="281.58"></line><line class="link fake transparent" x1="12.65" y1="-52.16" x2="17.75" y2="-71.18"></line><line class="link fake transparent" x1="12.65" y1="-52.16" x2="22.83" y2="-90.23"></line><line class="link fake transparent" x1="0.60" y1="-61.65" x2="17.75" y2="-71.18"></line><line class="link fake transparent" x1="0.60" y1="-61.65" x2="34.80" y2="-81.06"></line><line class="link fake transparent" x1="-1.29" y1="-76.46" x2="17.75" y2="-71.18"></line><line class="link fake transparent" x1="-1.29" y1="-76.46" x2="36.71" y2="-66.25"></line><line class="link fake transparent" x1="7.99" y1="-88.29" x2="17.75" y2="-71.18"></line><line class="link fake transparent" x1="7.99" y1="-88.29" x2="27.45" y2="-54.00"></line><line class="link fake transparent" x1="22.83" y1="-90.23" x2="17.75" y2="-71.18"></line><line class="link fake transparent" x1="22.83" y1="-90.23" x2="12.65" y2="-52.16"></line><line class="link fake transparent" x1="34.80" y1="-81.06" x2="17.75" y2="-71.18"></line><line class="link fake transparent" x1="34.80" y1="-81.06" x2="0.60" y2="-61.65"></line><line class="link fake transparent" x1="36.71" y1="-66.25" x2="17.75" y2="-71.18"></line><line class="link fake transparent" x1="36.71" y1="-66.25" x2="-1.29" y2="-76.46"></line><line class="link fake transparent" x1="27.45" y1="-54.00" x2="17.75" y2="-71.18"></line><line class="link fake transparent" x1="27.45" y1="-54.00" x2="7.99" y2="-88.29"></line><line class="link fake transparent" x1="30.67" y1="112.09" x2="36.46" y2="98.08"></line><line class="link fake transparent" x1="30.67" y1="112.09" x2="42.29" y2="84.13"></line><line class="link fake transparent" x1="21.49" y1="99.81" x2="36.46" y2="98.08"></line><line class="link fake transparent" x1="21.49" y1="99.81" x2="51.45" y2="96.31"></line><line class="link fake transparent" x1="27.60" y1="85.80" x2="36.46" y2="98.08"></line><line class="link fake transparent" x1="27.60" y1="85.80" x2="45.36" y2="110.36"></line><line class="link fake transparent" x1="42.29" y1="84.13" x2="36.46" y2="98.08"></line><line class="link fake transparent" x1="42.29" y1="84.13" x2="30.67" y2="112.09"></line><line class="link fake transparent" x1="51.45" y1="96.31" x2="36.46" y2="98.08"></line><line class="link fake transparent" x1="51.45" y1="96.31" x2="21.49" y2="99.81"></line><line class="link fake transparent" x1="45.36" y1="110.36" x2="36.46" y2="98.08"></line><line class="link fake transparent" x1="45.36" y1="110.36" x2="27.60" y2="85.80"></line><line class="link fake transparent" x1="17.79" y1="-10.34" x2="23.58" y2="-24.34"></line><line class="link fake transparent" x1="17.79" y1="-10.34" x2="29.32" y2="-38.38"></line><line class="link fake transparent" x1="8.60" y1="-22.59" x2="23.58" y2="-24.34"></line><line class="link fake transparent" x1="8.60" y1="-22.59" x2="38.53" y2="-26.15"></line><line class="link fake transparent" x1="14.65" y1="-36.60" x2="23.58" y2="-24.34"></line><line class="link fake transparent" x1="14.65" y1="-36.60" x2="32.45" y2="-12.04"></line><line class="link fake transparent" x1="29.32" y1="-38.38" x2="23.58" y2="-24.34"></line><line class="link fake transparent" x1="29.32" y1="-38.38" x2="17.79" y2="-10.34"></line><line class="link fake transparent" x1="38.53" y1="-26.15" x2="23.58" y2="-24.34"></line><line class="link fake transparent" x1="38.53" y1="-26.15" x2="8.60" y2="-22.59"></line><line class="link fake transparent" x1="32.45" y1="-12.04" x2="23.58" y2="-24.34"></line><line class="link fake transparent" x1="32.45" y1="-12.04" x2="14.65" y2="-36.60"></line><line class="link fake transparent" x1="38.51" y1="185.86" x2="44.65" y2="171.98"></line><line class="link fake transparent" x1="38.51" y1="185.86" x2="50.72" y2="158.08"></line><line class="link fake transparent" x1="29.62" y1="173.34" x2="44.65" y2="171.98"></line><line class="link fake transparent" x1="29.62" y1="173.34" x2="59.63" y2="170.53"></line><line class="link fake transparent" x1="36.01" y1="159.53" x2="44.65" y2="171.98"></line><line class="link fake transparent" x1="36.01" y1="159.53" x2="53.20" y2="184.55"></line><line class="link fake transparent" x1="50.72" y1="158.08" x2="44.65" y2="171.98"></line><line class="link fake transparent" x1="50.72" y1="158.08" x2="38.51" y2="185.86"></line><line class="link fake transparent" x1="59.63" y1="170.53" x2="44.65" y2="171.98"></line><line class="link fake transparent" x1="59.63" y1="170.53" x2="29.62" y2="173.34"></line><line class="link fake transparent" x1="53.20" y1="184.55" x2="44.65" y2="171.98"></line><line class="link fake transparent" x1="53.20" y1="184.55" x2="36.01" y2="159.53"></line></g><g><g class="noselect gnode" struct_name="m" transform="translate(32.13,320.06)" r="6.5"><circle class="node" r="6" node_type="nucleotide" style="fill: lightsalmon;"></circle><text text-anchor="middle" font-size="8" font-weight="bold" y="2.5" class="node-label">A</text></g><g class="noselect gnode" struct_name="m" transform="translate(30.18,305.15)" r="6.5"><circle class="node" r="6" node_type="nucleotide" style="fill: lightsalmon;"></circle><text text-anchor="middle" font-size="8" font-weight="bold" y="2.5" class="node-label">A</text></g><g class="noselect gnode" struct_name="m" transform="translate(35.84,291.26)" r="6.5"><circle class="node" r="6" node_type="nucleotide" style="fill: lightsalmon;"></circle><text text-anchor="middle" font-size="8" font-weight="bold" y="2.5" class="node-label">U</text></g><g class="noselect gnode" struct_name="m" transform="translate(47.74,281.58)" r="6.5"><circle class="node" r="6" node_type="nucleotide" style="fill: lightgreen;"></circle><text text-anchor="middle" font-size="8" font-weight="bold" y="2.5" class="node-label">A</text></g><g class="noselect gnode" struct_name="m" transform="translate(45.86,265.84)" r="6.5"><circle class="node" r="6" node_type="nucleotide" style="fill: lightgreen;"></circle><text text-anchor="middle" font-size="8" font-weight="bold" y="2.5" class="node-label">C</text></g><g class="noselect gnode" struct_name="m" transform="translate(44.04,249.87)" r="6.5"><circle class="node" r="6" node_type="nucleotide" style="fill: lightgreen;"></circle><text text-anchor="middle" font-size="8" font-weight="bold" y="2.5" class="node-label">C</text></g><g class="noselect gnode" struct_name="m" transform="translate(42.52,233.80)" r="6.5"><circle class="node" r="6" node_type="nucleotide" style="fill: lightgreen;"></circle><text text-anchor="middle" font-size="8" font-weight="bold" y="2.5" class="node-label">C</text></g><g class="noselect gnode" struct_name="m" transform="translate(41.17,217.73)" r="6.5"><circle class="node" r="6" node_type="nucleotide" style="fill: lightgreen;"></circle><text text-anchor="middle" font-size="8" font-weight="bold" y="2.5" class="node-label">A</text></g><g class="noselect gnode" struct_name="m" transform="translate(39.92,201.75)" r="6.5"><circle class="node" r="6" node_type="nucleotide" style="fill: lightgreen;"></circle><text text-anchor="middle" font-size="8" font-weight="bold" y="2.5" class="node-label">C</text></g><g class="noselect gnode" struct_name="m" transform="translate(38.51,185.86)" r="6.5"><circle class="node" r="6" node_type="nucleotide" style="fill: lightgreen;"></circle><text text-anchor="middle" font-size="8" font-weight="bold" y="2.5" class="node-label">G</text></g><g class="noselect gnode" struct_name="m" transform="translate(29.62,173.34)" r="6.5"><circle class="node" r="6" node_type="nucleotide" style="fill: rgb(219, 219, 141);"></circle><text text-anchor="middle" font-size="8" font-weight="bold" y="2.5" class="node-label">C</text></g><g class="noselect gnode" struct_name="m" transform="translate(36.01,159.53)" r="6.5"><circle class="node" r="6" node_type="nucleotide" style="fill: lightgreen;"></circle><text text-anchor="middle" font-size="8" font-weight="bold" y="2.5" class="node-label">U</text></g><g class="noselect gnode" struct_name="m" transform="translate(34.44,143.78)" r="6.5"><circle class="node" r="6" node_type="nucleotide" style="fill: lightgreen;"></circle><text text-anchor="middle" font-size="8" font-weight="bold" y="2.5" class="node-label">G</text></g><g class="noselect gnode" struct_name="m" transform="translate(32.65,127.90)" r="6.5"><circle class="node" r="6" node_type="nucleotide" style="fill: lightgreen;"></circle><text text-anchor="middle" font-size="8" font-weight="bold" y="2.5" class="node-label">U</text></g><g class="noselect gnode" struct_name="m" transform="translate(30.67,112.09)" r="6.5"><circle class="node" r="6" node_type="nucleotide" style="fill: lightgreen;"></circle><text text-anchor="middle" font-size="8" font-weight="bold" y="2.5" class="node-label">A</text></g><g class="noselect gnode" struct_name="m" transform="translate(21.49,99.81)" r="6.5"><circle class="node" r="6" node_type="nucleotide" style="fill: rgb(219, 219, 141);"></circle><text text-anchor="middle" font-size="8" font-weight="bold" y="2.5" class="node-label">C</text></g><g class="noselect gnode" struct_name="m" transform="translate(27.60,85.80)" r="6.5"><circle class="node" r="6" node_type="nucleotide" style="fill: lightgreen;"></circle><text text-anchor="middle" font-size="8" font-weight="bold" y="2.5" class="node-label">A</text></g><g class="noselect gnode" struct_name="m" transform="translate(26.04,69.77)" r="6.5"><circle class="node" r="6" node_type="nucleotide" style="fill: lightgreen;"></circle><text text-anchor="middle" font-size="8" font-weight="bold" y="2.5" class="node-label">U</text></g><g class="noselect gnode" struct_name="m" transform="translate(24.47,53.66)" r="6.5"><circle class="node" r="6" node_type="nucleotide" style="fill: lightgreen;"></circle><text text-anchor="middle" font-size="8" font-weight="bold" y="2.5" class="node-label">U</text></g><g class="noselect gnode" struct_name="m" transform="translate(22.95,37.62)" r="6.5"><circle class="node" r="6" node_type="nucleotide" style="fill: lightgreen;"></circle><text text-anchor="middle" font-size="8" font-weight="bold" y="2.5" class="node-label">U</text></g><g class="noselect gnode" struct_name="m" transform="translate(21.38,21.59)" r="6.5"><circle class="node" r="6" node_type="nucleotide" style="fill: lightgreen;"></circle><text text-anchor="middle" font-size="8" font-weight="bold" y="2.5" class="node-label">U</text></g><g class="noselect gnode" struct_name="m" transform="translate(19.70,5.53)" r="6.5"><circle class="node" r="6" node_type="nucleotide" style="fill: lightgreen;"></circle><text text-anchor="middle" font-size="8" font-weight="bold" y="2.5" class="node-label">G</text></g><g class="noselect gnode" struct_name="m" transform="translate(17.79,-10.34)" r="6.5"><circle class="node" r="6" node_type="nucleotide" style="fill: lightgreen;"></circle><text text-anchor="middle" font-size="8" font-weight="bold" y="2.5" class="node-label">A</text></g><g class="noselect gnode" struct_name="m" transform="translate(8.60,-22.59)" r="6.5"><circle class="node" r="6" node_type="nucleotide" style="fill: rgb(219, 219, 141);"></circle><text text-anchor="middle" font-size="8" font-weight="bold" y="2.5" class="node-label">U</text></g><g class="noselect gnode" struct_name="m" transform="translate(14.65,-36.60)" r="6.5"><circle class="node" r="6" node_type="nucleotide" style="fill: lightgreen;"></circle><text text-anchor="middle" font-size="8" font-weight="bold" y="2.5" class="node-label">A</text></g><g class="noselect gnode" struct_name="m" transform="translate(12.65,-52.16)" r="6.5"><circle class="node" r="6" node_type="nucleotide" style="fill: lightgreen;"></circle><text text-anchor="middle" font-size="8" font-weight="bold" y="2.5" class="node-label">C</text></g><g class="noselect gnode" struct_name="m" transform="translate(0.60,-61.65)" r="6.5"><circle class="node" r="6" node_type="nucleotide" style="fill: lightblue;"></circle><text text-anchor="middle" font-size="8" font-weight="bold" y="2.5" class="node-label">U</text></g><g class="noselect gnode" struct_name="m" transform="translate(-1.29,-76.46)" r="6.5"><circle class="node" r="6" node_type="nucleotide" style="fill: lightblue;"></circle><text text-anchor="middle" font-size="8" font-weight="bold" y="2.5" class="node-label">C</text></g><g class="noselect gnode" struct_name="m" transform="translate(7.99,-88.29)" r="6.5"><circle class="node" r="6" node_type="nucleotide" style="fill: lightblue;"></circle><text text-anchor="middle" font-size="8" font-weight="bold" y="2.5" class="node-label">A</text></g><g class="noselect gnode" struct_name="m" transform="translate(22.83,-90.23)" r="6.5"><circle class="node" r="6" node_type="nucleotide" style="fill: lightblue;"></circle><text text-anchor="middle" font-size="8" font-weight="bold" y="2.5" class="node-label">U</text></g><g class="noselect gnode" struct_name="m" transform="translate(34.80,-81.06)" r="6.5"><circle class="node" r="6" node_type="nucleotide" style="fill: lightblue;"></circle><text text-anchor="middle" font-size="8" font-weight="bold" y="2.5" class="node-label">A</text></g><g class="noselect gnode" struct_name="m" transform="translate(36.71,-66.25)" r="6.5"><circle class="node" r="6" node_type="nucleotide" style="fill: lightblue;"></circle><text text-anchor="middle" font-size="8" font-weight="bold" y="2.5" class="node-label">U</text></g><g class="noselect gnode" struct_name="m" transform="translate(27.45,-54.00)" r="6.5"><circle class="node" r="6" node_type="nucleotide" style="fill: lightgreen;"></circle><text text-anchor="middle" font-size="8" font-weight="bold" y="2.5" class="node-label">G</text></g><g class="noselect gnode" struct_name="m" transform="translate(29.32,-38.38)" r="6.5"><circle class="node" r="6" node_type="nucleotide" style="fill: lightgreen;"></circle><text text-anchor="middle" font-size="8" font-weight="bold" y="2.5" class="node-label">U</text></g><g class="noselect gnode" struct_name="m" transform="translate(38.53,-26.15)" r="6.5"><circle class="node" r="6" node_type="nucleotide" style="fill: rgb(219, 219, 141);"></circle><text text-anchor="middle" font-size="8" font-weight="bold" y="2.5" class="node-label">U</text></g><g class="noselect gnode" struct_name="m" transform="translate(32.45,-12.04)" r="6.5"><circle class="node" r="6" node_type="nucleotide" style="fill: lightgreen;"></circle><text text-anchor="middle" font-size="8" font-weight="bold" y="2.5" class="node-label">U</text></g><g class="noselect gnode" struct_name="m" transform="translate(34.11,3.98)" r="6.5"><circle class="node" r="6" node_type="nucleotide" style="fill: lightgreen;"></circle><text text-anchor="middle" font-size="8" font-weight="bold" y="2.5" class="node-label">C</text></g><g class="noselect gnode" struct_name="m" transform="translate(35.81,20.12)" r="6.5"><circle class="node" r="6" node_type="nucleotide" style="fill: lightgreen;"></circle><text text-anchor="middle" font-size="8" font-weight="bold" y="2.5" class="node-label">A</text></g><g class="noselect gnode" struct_name="m" transform="translate(37.43,36.22)" r="6.5"><circle class="node" r="6" node_type="nucleotide" style="fill: lightgreen;"></circle><text text-anchor="middle" font-size="8" font-weight="bold" y="2.5" class="node-label">G</text></g><g class="noselect gnode" struct_name="m" transform="translate(38.94,52.28)" r="6.5"><circle class="node" r="6" node_type="nucleotide" style="fill: lightgreen;"></circle><text text-anchor="middle" font-size="8" font-weight="bold" y="2.5" class="node-label">A</text></g><g class="noselect gnode" struct_name="m" transform="translate(40.48,68.33)" r="6.5"><circle class="node" r="6" node_type="nucleotide" style="fill: lightgreen;"></circle><text text-anchor="middle" font-size="8" font-weight="bold" y="2.5" class="node-label">A</text></g><g class="noselect gnode" struct_name="m" transform="translate(42.29,84.13)" r="6.5"><circle class="node" r="6" node_type="nucleotide" style="fill: lightgreen;"></circle><text text-anchor="middle" font-size="8" font-weight="bold" y="2.5" class="node-label">U</text></g><g class="noselect gnode" struct_name="m" transform="translate(51.45,96.31)" r="6.5"><circle class="node" r="6" node_type="nucleotide" style="fill: rgb(219, 219, 141);"></circle><text text-anchor="middle" font-size="8" font-weight="bold" y="2.5" class="node-label">A</text></g><g class="noselect gnode" struct_name="m" transform="translate(45.36,110.36)" r="6.5"><circle class="node" r="6" node_type="nucleotide" style="fill: lightgreen;"></circle><text text-anchor="middle" font-size="8" font-weight="bold" y="2.5" class="node-label">U</text></g><g class="noselect gnode" struct_name="m" transform="translate(47.13,126.22)" r="6.5"><circle class="node" r="6" node_type="nucleotide" style="fill: lightgreen;"></circle><text text-anchor="middle" font-size="8" font-weight="bold" y="2.5" class="node-label">A</text></g><g class="noselect gnode" struct_name="m" transform="translate(48.96,142.20)" r="6.5"><circle class="node" r="6" node_type="nucleotide" style="fill: lightgreen;"></circle><text text-anchor="middle" font-size="8" font-weight="bold" y="2.5" class="node-label">C</text></g><g class="noselect gnode" struct_name="m" transform="translate(50.72,158.08)" r="6.5"><circle class="node" r="6" node_type="nucleotide" style="fill: lightgreen;"></circle><text text-anchor="middle" font-size="8" font-weight="bold" y="2.5" class="node-label">A</text></g><g class="noselect gnode" struct_name="m" transform="translate(59.63,170.53)" r="6.5"><circle class="node" r="6" node_type="nucleotide" style="fill: rgb(219, 219, 141);"></circle><text text-anchor="middle" font-size="8" font-weight="bold" y="2.5" class="node-label">U</text></g><g class="noselect gnode" struct_name="m" transform="translate(53.20,184.55)" r="6.5"><circle class="node" r="6" node_type="nucleotide" style="fill: lightgreen;"></circle><text text-anchor="middle" font-size="8" font-weight="bold" y="2.5" class="node-label">C</text></g><g class="noselect gnode" struct_name="m" transform="translate(54.44,200.58)" r="6.5"><circle class="node" r="6" node_type="nucleotide" style="fill: lightgreen;"></circle><text text-anchor="middle" font-size="8" font-weight="bold" y="2.5" class="node-label">G</text></g><g class="noselect gnode" struct_name="m" transform="translate(55.70,216.56)" r="6.5"><circle class="node" r="6" node_type="nucleotide" style="fill: lightgreen;"></circle><text text-anchor="middle" font-size="8" font-weight="bold" y="2.5" class="node-label">U</text></g><g class="noselect gnode" struct_name="m" transform="translate(57.04,232.51)" r="6.5"><circle class="node" r="6" node_type="nucleotide" style="fill: lightgreen;"></circle><text text-anchor="middle" font-size="8" font-weight="bold" y="2.5" class="node-label">G</text></g><g class="noselect gnode" struct_name="m" transform="translate(58.58,248.35)" r="6.5"><circle class="node" r="6" node_type="nucleotide" style="fill: lightgreen;"></circle><text text-anchor="middle" font-size="8" font-weight="bold" y="2.5" class="node-label">G</text></g><g class="noselect gnode" struct_name="m" transform="translate(60.38,264.06)" r="6.5"><circle class="node" r="6" node_type="nucleotide" style="fill: lightgreen;"></circle><text text-anchor="middle" font-size="8" font-weight="bold" y="2.5" class="node-label">G</text></g><g class="noselect gnode" struct_name="m" transform="translate(62.61,279.54)" r="6.5"><circle class="node" r="6" node_type="nucleotide" style="fill: lightgreen;"></circle><text text-anchor="middle" font-size="8" font-weight="bold" y="2.5" class="node-label">U</text></g><g class="noselect gnode" struct_name="m" transform="translate(76.66,285.87)" r="6.5"><circle class="node" r="6" node_type="nucleotide" style="fill: lightsalmon;"></circle><text text-anchor="middle" font-size="8" font-weight="bold" y="2.5" class="node-label">U</text></g><g class="noselect gnode" struct_name="m" transform="translate(85.82,297.79)" r="6.5"><circle class="node" r="6" node_type="nucleotide" style="fill: lightsalmon;"></circle><text text-anchor="middle" font-size="8" font-weight="bold" y="2.5" class="node-label">U</text></g><g class="noselect gnode" struct_name="m" transform="translate(87.82,312.75)" r="6.5"><circle class="node" r="6" node_type="nucleotide" style="fill: lightsalmon;"></circle><text text-anchor="middle" font-size="8" font-weight="bold" y="2.5" class="node-label">U</text></g><g class="noselect gnode" struct_name="m" transform="translate(81.93,326.58)" r="6.5"><circle class="node" r="6" node_type="nucleotide" style="fill: lightsalmon;"></circle><text text-anchor="middle" font-size="8" font-weight="bold" y="2.5" class="node-label">A</text></g><g class="noselect gnode" struct_name="m" transform="translate(69.75,335.42)" r="6.5"><circle class="node" r="6" node_type="nucleotide" style="fill: lightsalmon;"></circle><text text-anchor="middle" font-size="8" font-weight="bold" y="2.5" class="node-label">U</text></g><g class="noselect gnode" struct_name="m" transform="translate(23.11,188.38)" r="6.5"><circle class="node label" r="6" node_type="label"></circle><text text-anchor="middle" font-size="8" font-weight="bold" y="2.5" class="node-label">10</text></g><g class="noselect gnode" struct_name="m" transform="translate(7.47,39.63)" r="6.5"><circle class="node label" r="6" node_type="label"></circle><text text-anchor="middle" font-size="8" font-weight="bold" y="2.5" class="node-label">20</text></g><g class="noselect gnode" struct_name="m" transform="translate(26.83,-105.12)" r="6.5"><circle class="node label" r="6" node_type="label"></circle><text text-anchor="middle" font-size="8" font-weight="bold" y="2.5" class="node-label">30</text></g><g class="noselect gnode" struct_name="m" transform="translate(54.43,50.31)" r="6.5"><circle class="node label" r="6" node_type="label"></circle><text text-anchor="middle" font-size="8" font-weight="bold" y="2.5" class="node-label">40</text></g><g class="noselect gnode" struct_name="m" transform="translate(69.90,198.36)" r="6.5"><circle class="node label" r="6" node_type="label"></circle><text text-anchor="middle" font-size="8" font-weight="bold" y="2.5" class="node-label">50</text></g><g class="noselect gnode" struct_name="m" transform="translate(73.89,350.28)" r="6.5"><circle class="node label" r="6" node_type="label"></circle><text text-anchor="middle" font-size="8" font-weight="bold" y="2.5" class="node-label">60</text></g><g class="noselect gnode" transform="translate(42.57,150.89)" r="6.5"><circle class="node" r="0" node_type="middle"></circle><text text-anchor="middle" font-size="8" font-weight="bold" y="2.5" class="node-label"></text></g><g class="noselect gnode" transform="translate(40.82,135.02)" r="6.5"><circle class="node" r="0" node_type="middle"></circle><text text-anchor="middle" font-size="8" font-weight="bold" y="2.5" class="node-label"></text></g><g class="noselect gnode" transform="translate(38.96,119.14)" r="6.5"><circle class="node" r="0" node_type="middle"></circle><text text-anchor="middle" font-size="8" font-weight="bold" y="2.5" class="node-label"></text></g><g class="noselect gnode" transform="translate(34.04,77.05)" r="6.5"><circle class="node" r="0" node_type="middle"></circle><text text-anchor="middle" font-size="8" font-weight="bold" y="2.5" class="node-label"></text></g><g class="noselect gnode" transform="translate(32.45,61.01)" r="6.5"><circle class="node" r="0" node_type="middle"></circle><text text-anchor="middle" font-size="8" font-weight="bold" y="2.5" class="node-label"></text></g><g class="noselect gnode" transform="translate(30.95,44.93)" r="6.5"><circle class="node" r="0" node_type="middle"></circle><text text-anchor="middle" font-size="8" font-weight="bold" y="2.5" class="node-label"></text></g><g class="noselect gnode" transform="translate(29.42,28.91)" r="6.5"><circle class="node" r="0" node_type="middle"></circle><text text-anchor="middle" font-size="8" font-weight="bold" y="2.5" class="node-label"></text></g><g class="noselect gnode" transform="translate(27.77,12.81)" r="6.5"><circle class="node" r="0" node_type="middle"></circle><text text-anchor="middle" font-size="8" font-weight="bold" y="2.5" class="node-label"></text></g><g class="noselect gnode" transform="translate(26.03,-3.23)" r="6.5"><circle class="node" r="0" node_type="middle"></circle><text text-anchor="middle" font-size="8" font-weight="bold" y="2.5" class="node-label"></text></g><g class="noselect gnode" transform="translate(21.01,-45.34)" r="6.5"><circle class="node" r="0" node_type="middle"></circle><text text-anchor="middle" font-size="8" font-weight="bold" y="2.5" class="node-label"></text></g><g class="noselect gnode" transform="translate(54.09,272.87)" r="6.5"><circle class="node" r="0" node_type="middle"></circle><text text-anchor="middle" font-size="8" font-weight="bold" y="2.5" class="node-label"></text></g><g class="noselect gnode" transform="translate(52.14,257.08)" r="6.5"><circle class="node" r="0" node_type="middle"></circle><text text-anchor="middle" font-size="8" font-weight="bold" y="2.5" class="node-label"></text></g><g class="noselect gnode" transform="translate(50.48,241.17)" r="6.5"><circle class="node" r="0" node_type="middle"></circle><text text-anchor="middle" font-size="8" font-weight="bold" y="2.5" class="node-label"></text></g><g class="noselect gnode" transform="translate(49.07,225.17)" r="6.5"><circle class="node" r="0" node_type="middle"></circle><text text-anchor="middle" font-size="8" font-weight="bold" y="2.5" class="node-label"></text></g><g class="noselect gnode" transform="translate(47.80,209.18)" r="6.5"><circle class="node" r="0" node_type="middle"></circle><text text-anchor="middle" font-size="8" font-weight="bold" y="2.5" class="node-label"></text></g><g class="noselect gnode" transform="translate(46.55,193.19)" r="6.5"><circle class="node" r="0" node_type="middle"></circle><text text-anchor="middle" font-size="8" font-weight="bold" y="2.5" class="node-label"></text></g><g class="noselect gnode" transform="translate(54.91,337.28)" r="6.5"><circle class="node" r="0" node_type="middle"></circle><text text-anchor="middle" font-size="8" font-weight="bold" y="2.5" class="node-label"></text></g><g class="noselect gnode" transform="translate(40.94,332.04)" r="6.5"><circle class="node" r="0" node_type="middle"></circle><text text-anchor="middle" font-size="8" font-weight="bold" y="2.5" class="node-label"></text></g><g class="noselect gnode" transform="translate(58.96,308.53)" r="6.5"><circle class="node" r="0" node_type="middle"></circle><text text-anchor="middle" font-size="8" font-weight="bold" y="2.5" class="node-label"></text></g><g class="noselect gnode" transform="translate(17.75,-71.18)" r="6.5"><circle class="node" r="0" node_type="middle"></circle><text text-anchor="middle" font-size="8" font-weight="bold" y="2.5" class="node-label"></text></g><g class="noselect gnode" transform="translate(36.46,98.08)" r="6.5"><circle class="node" r="0" node_type="middle"></circle><text text-anchor="middle" font-size="8" font-weight="bold" y="2.5" class="node-label"></text></g><g class="noselect gnode" transform="translate(23.58,-24.34)" r="6.5"><circle class="node" r="0" node_type="middle"></circle><text text-anchor="middle" font-size="8" font-weight="bold" y="2.5" class="node-label"></text></g><g class="noselect gnode" transform="translate(44.65,171.98)" r="6.5"><circle class="node" r="0" node_type="middle"></circle><text text-anchor="middle" font-size="8" font-weight="bold" y="2.5" class="node-label"></text></g></g><line class="drag_line" x1="0" y1="0" x2="0" y2="0"></line></g></g></svg>