<svg xmlns="http://www.w3.org/2000/svg" viewBox="0 0 760 640" width="760" height="640"><style>svg {
  display: block;
  min-width: 100%;
  width: 100%;
  min-height: 100%;
}

circle.node {
  stroke: #ccc;
  stroke-width: 1px;
  opacity: 1;
  fill: white;
}

circle.node.label {
    stroke: transparent;
    stroke-width: 0;
    fill: white;
}

circle.outline_node {
    stroke-width: 1px;
    fill: red;
}

circle.protein {
    fill: gray;
    fill-opacity: 0.5;
    stroke-width: 4;
}

circle.hidden_outline {
    stroke-width: 0px;
}


line.link {
  stroke: #999;
  stroke-opacity: 0.8;
  stroke-width: 2;
}

line.basepair {
  stroke: red;
}

line.intermolecule {
  stroke: blue;
}

line.chain_chain {
  stroke-dasharray: 3,3;
}

line.fake {
  stroke: green;
}

.transparent {
    fill: transparent;
    stroke-width: 0;
    stroke-opacity: 0;
    opacity: 0;
    visibility: hidden;
}

.drag_line {
  stroke: #999;
  stroke-width: 2;
  pointer-events: none;
}

.drag_line_hidden {
  stroke: #999;
  stroke-width: 0;
  pointer-events: none;
}

.d3-tip {
    line-height: 1;
    font-weight: bold;
    padding: 6px;
    background: rgba(0, 0, 0, 0.6);
    color: #fff;
    border-radius: 4px;
    pointer-events: none;
          }

text.node-label {
    font-weight: bold;
    font-family: Tahoma, Geneva, sans-serif;
    color: rgb(100,100,100);
    pointer-events: none;
}

text {
    pointer-events: none;
}

g.gnode {

}

circle.outline_node.selected {
    visibility: visible;
}

circle.outline_node {
    visibility: hidden;
}

.brush .extent {
  fill-opacity: .1;
  stroke: #fff;
  shape-rendering: crispEdges;
}

.noselect {
    -webkit-touch-callout: none;
    -webkit-user-select: none;
    -khtml-user-select: none;
    -moz-user-select: none;
    -ms-user-select: none;
    user-select: none;
}

svg {
  display: block;
  min-width: 100%;
  width: 100%;
  min-height: 100%;
}

circle.node {
  stroke: #ccc;
  stroke-width: 1px;
  opacity: 1;
  fill: white;
}

circle.node.label {
    stroke: transparent;
    stroke-width: 0;
    fill: white;
}

circle.outline_node {
    stroke-width: 1px;
    fill: red;
}

circle.protein {
    fill: gray;
    fill-opacity: 0.5;
    stroke-width: 4;
}

circle.hidden_outline {
    stroke-width: 0px;
}


line.link {
  stroke: #999;
  stroke-opacity: 0.8;
  stroke-width: 2;
}

line.basepair {
  stroke: red;
}

line.intermolecule {
  stroke: blue;
}

line.chain_chain {
  stroke-dasharray: 3,3;
}

line.fake {
  stroke: green;
}

.transparent {
    fill: transparent;
    stroke-width: 0;
    stroke-opacity: 0;
    opacity: 0;
    visibility: hidden;
}

.drag_line {
  stroke: #999;
  stroke-width: 2;
  pointer-events: none;
}

.drag_line_hidden {
  stroke: #999;
  stroke-width: 0;
  pointer-events: none;
}

.d3-tip {
    line-height: 1;
    font-weight: bold;
    padding: 6px;
    background: rgba(0, 0, 0, 0.6);
    color: #fff;
    border-radius: 4px;
    pointer-events: none;
          }

text.node-label {
    font-weight: bold;
    font-family: Tahoma, Geneva, sans-serif;
    color: rgb(100,100,100);
    pointer-events: none;
}

text {
    pointer-events: none;
}

g.gnode {

}

circle.outline_node.selected {
    visibility: visible;
}

circle.outline_node {
    visibility: hidden;
}

.brush .extent {
  fill-opacity: .1;
  stroke: #fff;
  shape-rendering: crispEdges;
}

.noselect {
    -webkit-touch-callout: none;
    -webkit-user-select: none;
    -khtml-user-select: none;
    -moz-user-select: none;
    -ms-user-select: none;
    user-select: none;
}
/*# sourceURL=/Users/yumanakamura/ipy_sandbox/sandbox/claude_sandbox/mrna-transformer-worktrees/feat-issue57-switch-derna-knotty/scripts/eval/prerender/forna_vendor/fornac.css*/</style><style></style><g><g class="brush" style="pointer-events: all; -webkit-tap-highlight-color: rgba(0, 0, 0, 0);"><rect class="background" x="0" width="760" y="0" height="640" style="visibility: hidden; cursor: auto;"></rect><rect class="extent" x="0" width="0" y="0" height="0" style="cursor: move;"></rect><g class="resize n" transform="translate(0,0)" style="cursor: ns-resize; display: none;"><rect y="-3" width="0" height="6" style="visibility: hidden;"></rect></g><g class="resize e" transform="translate(0,0)" style="cursor: ew-resize; display: none;"><rect x="-3" width="6" height="0" style="visibility: hidden;"></rect></g><g class="resize s" transform="translate(0,0)" style="cursor: ns-resize; display: none;"><rect y="-3" width="0" height="6" style="visibility: hidden;"></rect></g><g class="resize w" transform="translate(0,0)" style="cursor: ew-resize; display: none;"><rect x="-3" width="6" height="0" style="visibility: hidden;"></rect></g><g class="resize nw" transform="translate(0,0)" style="cursor: nwse-resize; display: none;"><rect x="-3" y="-3" width="6" height="6" style="visibility: hidden;"></rect></g><g class="resize ne" transform="translate(0,0)" style="cursor: nesw-resize; display: none;"><rect x="-3" y="-3" width="6" height="6" style="visibility: hidden;"></rect></g><g class="resize se" transform="translate(0,0)" style="cursor: nwse-resize; display: none;"><rect x="-3" y="-3" width="6" height="6" style="visibility: hidden;"></rect></g><g class="resize sw" transform="translate(0,0)" style="cursor: nesw-resize; display: none;"><rect x="-3" y="-3" width="6" height="6" style="visibility: hidden;"></rect></g></g><g transform="translate(266.95,202.32) scale(1.30)"><g><line class="link basepair" x1="140.37" y1="252.15" x2="154.24" y2="246.74"></line><line class="link basepair" x1="134.48" y1="237.70" x2="147.93" y2="231.98"></line><line class="link backbone" x1="140.37" y1="252.15" x2="134.48" y2="237.70"></line><line class="link basepair" x1="128.15" y1="223.00" x2="141.60" y2="217.32"></line><line class="link backbone" x1="134.48" y1="237.70" x2="128.15" y2="223.00"></line><line class="link basepair" x1="121.98" y1="208.03" x2="135.58" y2="202.67"></line><line class="link backbone" x1="128.15" y1="223.00" x2="121.98" y2="208.03"></line><line class="link basepair" x1="116.27" y1="192.81" x2="130.02" y2="187.90"></line><line class="link backbone" x1="121.98" y1="208.03" x2="116.27" y2="192.81"></line><line class="link basepair" x1="111.05" y1="177.50" x2="124.99" y2="172.97"></line><line class="link backbone" x1="116.27" y1="192.81" x2="111.05" y2="177.50"></line><line class="link basepair" x1="106.27" y1="162.21" x2="120.30" y2="157.93"></line><line class="link backbone" x1="111.05" y1="177.50" x2="106.27" y2="162.21"></line><line class="link basepair" x1="101.71" y1="146.92" x2="115.72" y2="142.69"></line><line class="link backbone" x1="106.27" y1="162.21" x2="101.71" y2="146.92"></line><line class="link basepair" x1="97.10" y1="131.70" x2="111.02" y2="127.36"></line><line class="link backbone" x1="101.71" y1="146.92" x2="97.10" y2="131.70"></line><line class="link basepair" x1="92.12" y1="116.65" x2="106.40" y2="112.17"></line><line class="link backbone" x1="97.10" y1="131.70" x2="92.12" y2="116.65"></line><line class="link backbone" x1="92.12" y1="116.65" x2="79.27" y2="107.90"></line><line class="link basepair" x1="77.98" y1="92.40" x2="88.89" y2="82.26"></line><line class="link backbone" x1="79.27" y1="107.90" x2="77.98" y2="92.40"></line><line class="link basepair" x1="67.29" y1="80.79" x2="78.12" y2="70.62"></line><line class="link backbone" x1="77.98" y1="92.40" x2="67.29" y2="80.79"></line><line class="link backbone" x1="67.29" y1="80.79" x2="53.44" y2="73.67"></line><line class="link basepair" x1="56.20" y1="58.41" x2="70.90" y2="55.98"></line><line class="link backbone" x1="53.44" y1="73.67" x2="56.20" y2="58.41"></line><line class="link basepair" x1="53.52" y1="42.94" x2="67.84" y2="40.18"></line><line class="link backbone" x1="56.20" y1="58.41" x2="53.52" y2="42.94"></line><line class="link basepair" x1="50.38" y1="27.40" x2="64.67" y2="24.34"></line><line class="link backbone" x1="53.52" y1="42.94" x2="50.38" y2="27.40"></line><line class="link basepair" x1="46.89" y1="12.07" x2="61.04" y2="8.51"></line><line class="link backbone" x1="50.38" y1="27.40" x2="46.89" y2="12.07"></line><line class="link basepair" x1="42.73" y1="-3.07" x2="56.60" y2="-7.36"></line><line class="link backbone" x1="46.89" y1="12.07" x2="42.73" y2="-3.07"></line><line class="link basepair" x1="37.65" y1="-17.95" x2="51.27" y2="-23.05"></line><line class="link backbone" x1="42.73" y1="-3.07" x2="37.65" y2="-17.95"></line><line class="link basepair" x1="31.69" y1="-32.53" x2="45.01" y2="-38.35"></line><line class="link backbone" x1="37.65" y1="-17.95" x2="31.69" y2="-32.53"></line><line class="link basepair" x1="25.02" y1="-46.87" x2="38.14" y2="-53.18"></line><line class="link backbone" x1="31.69" y1="-32.53" x2="25.02" y2="-46.87"></line><line class="link basepair" x1="17.92" y1="-61.16" x2="30.99" y2="-67.67"></line><line class="link backbone" x1="25.02" y1="-46.87" x2="17.92" y2="-61.16"></line><line class="link basepair" x1="10.75" y1="-75.40" x2="23.89" y2="-81.91"></line><line class="link backbone" x1="17.92" y1="-61.16" x2="10.75" y2="-75.40"></line><line class="link basepair" x1="3.67" y1="-89.48" x2="17.18" y2="-96.01"></line><line class="link backbone" x1="10.75" y1="-75.40" x2="3.67" y2="-89.48"></line><line class="link backbone" x1="3.67" y1="-89.48" x2="-7.22" y2="-100.79"></line><line class="link backbone" x1="-7.22" y1="-100.79" x2="0.10" y2="-114.20"></line><line class="link backbone" x1="0.10" y1="-114.20" x2="15.17" y2="-111.56"></line><line class="link basepair" x1="17.18" y1="-96.01" x2="3.67" y2="-89.48"></line><line class="link backbone" x1="15.17" y1="-111.56" x2="17.18" y2="-96.01"></line><line class="link basepair" x1="23.89" y1="-81.91" x2="10.75" y2="-75.40"></line><line class="link backbone" x1="17.18" y1="-96.01" x2="23.89" y2="-81.91"></line><line class="link basepair" x1="30.99" y1="-67.67" x2="17.92" y2="-61.16"></line><line class="link backbone" x1="23.89" y1="-81.91" x2="30.99" y2="-67.67"></line><line class="link basepair" x1="38.14" y1="-53.18" x2="25.02" y2="-46.87"></line><line class="link backbone" x1="30.99" y1="-67.67" x2="38.14" y2="-53.18"></line><line class="link basepair" x1="45.01" y1="-38.35" x2="31.69" y2="-32.53"></line><line class="link backbone" x1="38.14" y1="-53.18" x2="45.01" y2="-38.35"></line><line class="link basepair" x1="51.27" y1="-23.05" x2="37.65" y2="-17.95"></line><line class="link backbone" x1="45.01" y1="-38.35" x2="51.27" y2="-23.05"></line><line class="link basepair" x1="56.60" y1="-7.36" x2="42.73" y2="-3.07"></line><line class="link backbone" x1="51.27" y1="-23.05" x2="56.60" y2="-7.36"></line><line class="link basepair" x1="61.04" y1="8.51" x2="46.89" y2="12.07"></line><line class="link backbone" x1="56.60" y1="-7.36" x2="61.04" y2="8.51"></line><line class="link basepair" x1="64.67" y1="24.34" x2="50.38" y2="27.40"></line><line class="link backbone" x1="61.04" y1="8.51" x2="64.67" y2="24.34"></line><line class="link basepair" x1="67.84" y1="40.18" x2="53.52" y2="42.94"></line><line class="link backbone" x1="64.67" y1="24.34" x2="67.84" y2="40.18"></line><line class="link basepair" x1="70.90" y1="55.98" x2="56.20" y2="58.41"></line><line class="link backbone" x1="67.84" y1="40.18" x2="70.90" y2="55.98"></line><line class="link basepair" x1="78.12" y1="70.62" x2="67.29" y2="80.79"></line><line class="link backbone" x1="70.90" y1="55.98" x2="78.12" y2="70.62"></line><line class="link basepair" x1="88.89" y1="82.26" x2="77.98" y2="92.40"></line><line class="link backbone" x1="78.12" y1="70.62" x2="88.89" y2="82.26"></line><line class="link backbone" x1="88.89" y1="82.26" x2="104.29" y2="84.64"></line><line class="link backbone" x1="104.29" y1="84.64" x2="111.89" y2="97.67"></line><line class="link basepair" x1="106.40" y1="112.17" x2="92.12" y2="116.65"></line><line class="link backbone" x1="111.89" y1="97.67" x2="106.40" y2="112.17"></line><line class="link basepair" x1="111.02" y1="127.36" x2="97.10" y2="131.70"></line><line class="link backbone" x1="106.40" y1="112.17" x2="111.02" y2="127.36"></line><line class="link basepair" x1="115.72" y1="142.69" x2="101.71" y2="146.92"></line><line class="link backbone" x1="111.02" y1="127.36" x2="115.72" y2="142.69"></line><line class="link basepair" x1="120.30" y1="157.93" x2="106.27" y2="162.21"></line><line class="link backbone" x1="115.72" y1="142.69" x2="120.30" y2="157.93"></line><line class="link basepair" x1="124.99" y1="172.97" x2="111.05" y2="177.50"></line><line class="link backbone" x1="120.30" y1="157.93" x2="124.99" y2="172.97"></line><line class="link basepair" x1="130.02" y1="187.90" x2="116.27" y2="192.81"></line><line class="link backbone" x1="124.99" y1="172.97" x2="130.02" y2="187.90"></line><line class="link basepair" x1="135.58" y1="202.67" x2="121.98" y2="208.03"></line><line class="link backbone" x1="130.02" y1="187.90" x2="135.58" y2="202.67"></line><line class="link basepair" x1="141.60" y1="217.32" x2="128.15" y2="223.00"></line><line class="link backbone" x1="135.58" y1="202.67" x2="141.60" y2="217.32"></line><line class="link basepair" x1="147.93" y1="231.98" x2="134.48" y2="237.70"></line><line class="link backbone" x1="141.60" y1="217.32" x2="147.93" y2="231.98"></line><line class="link basepair" x1="154.24" y1="246.74" x2="140.37" y2="252.15"></line><line class="link backbone" x1="147.93" y1="231.98" x2="154.24" y2="246.74"></line><line class="link backbone" x1="154.24" y1="246.74" x2="169.21" y2="250.25"></line><line class="link backbone" x1="169.21" y1="250.25" x2="179.97" y2="260.67"></line><line class="link backbone" x1="179.97" y1="260.67" x2="183.39" y2="275.31"></line><line class="link backbone" x1="183.39" y1="275.31" x2="178.46" y2="289.42"></line><line class="link backbone" x1="178.46" y1="289.42" x2="166.75" y2="298.65"></line><line class="link backbone" x1="166.75" y1="298.65" x2="151.95" y2="300.39"></line><line class="link backbone" x1="151.95" y1="300.39" x2="138.48" y2="294.04"></line><line class="link label_link" x1="92.12" y1="116.65" x2="79.08" y2="125.14"></line><line class="link label_link" x1="37.65" y1="-17.95" x2="23.13" y2="-12.23"></line><line class="link label_link" x1="23.89" y1="-81.91" x2="36.95" y2="-90.34"></line><line class="link label_link" x1="78.12" y1="70.62" x2="91.41" y2="62.58"></line><line class="link label_link" x1="135.58" y1="202.67" x2="150.07" y2="196.91"></line><line class="link label_link" x1="138.48" y1="294.04" x2="126.71" y2="304.07"></line><line class="link fake transparent" x1="140.37" y1="252.15" x2="144.39" y2="242.24"></line><line class="link fake transparent" x1="140.37" y1="252.15" x2="147.93" y2="231.98"></line><line class="link fake transparent" x1="134.48" y1="237.70" x2="144.39" y2="242.24"></line><line class="link fake transparent" x1="147.93" y1="231.98" x2="144.39" y2="242.24"></line><line class="link fake transparent" x1="154.24" y1="246.74" x2="144.39" y2="242.24"></line><line class="link fake transparent" x1="134.48" y1="237.70" x2="138.02" y2="227.56"></line><line class="link fake transparent" x1="128.15" y1="223.00" x2="138.02" y2="227.56"></line><line class="link fake transparent" x1="141.60" y1="217.32" x2="138.02" y2="227.56"></line><line class="link fake transparent" x1="147.93" y1="231.98" x2="138.02" y2="227.56"></line><line class="link fake transparent" x1="128.15" y1="223.00" x2="131.71" y2="212.83"></line><line class="link fake transparent" x1="121.98" y1="208.03" x2="131.71" y2="212.83"></line><line class="link fake transparent" x1="135.58" y1="202.67" x2="131.71" y2="212.83"></line><line class="link fake transparent" x1="141.60" y1="217.32" x2="131.71" y2="212.83"></line><line class="link fake transparent" x1="121.98" y1="208.03" x2="125.82" y2="197.90"></line><line class="link fake transparent" x1="116.27" y1="192.81" x2="125.82" y2="197.90"></line><line class="link fake transparent" x1="130.02" y1="187.90" x2="125.82" y2="197.90"></line><line class="link fake transparent" x1="135.58" y1="202.67" x2="125.82" y2="197.90"></line><line class="link fake transparent" x1="116.27" y1="192.81" x2="120.45" y2="182.83"></line><line class="link fake transparent" x1="111.05" y1="177.50" x2="120.45" y2="182.83"></line><line class="link fake transparent" x1="124.99" y1="172.97" x2="120.45" y2="182.83"></line><line class="link fake transparent" x1="130.02" y1="187.90" x2="120.45" y2="182.83"></line><line class="link fake transparent" x1="111.05" y1="177.50" x2="115.56" y2="167.66"></line><line class="link fake transparent" x1="106.27" y1="162.21" x2="115.56" y2="167.66"></line><line class="link fake transparent" x1="120.30" y1="157.93" x2="115.56" y2="167.66"></line><line class="link fake transparent" x1="124.99" y1="172.97" x2="115.56" y2="167.66"></line><line class="link fake transparent" x1="106.27" y1="162.21" x2="110.99" y2="152.44"></line><line class="link fake transparent" x1="101.71" y1="146.92" x2="110.99" y2="152.44"></line><line class="link fake transparent" x1="115.72" y1="142.69" x2="110.99" y2="152.44"></line><line class="link fake transparent" x1="120.30" y1="157.93" x2="110.99" y2="152.44"></line><line class="link fake transparent" x1="101.71" y1="146.92" x2="106.43" y2="137.15"></line><line class="link fake transparent" x1="97.10" y1="131.70" x2="106.43" y2="137.15"></line><line class="link fake transparent" x1="111.02" y1="127.36" x2="106.43" y2="137.15"></line><line class="link fake transparent" x1="115.72" y1="142.69" x2="106.43" y2="137.15"></line><line class="link fake transparent" x1="97.10" y1="131.70" x2="101.69" y2="121.86"></line><line class="link fake transparent" x1="92.12" y1="116.65" x2="101.69" y2="121.86"></line><line class="link fake transparent" x1="106.40" y1="112.17" x2="101.69" y2="121.86"></line><line class="link fake transparent" x1="111.02" y1="127.36" x2="101.69" y2="121.86"></line><line class="link fake transparent" x1="77.98" y1="92.40" x2="78.07" y2="81.53"></line><line class="link fake transparent" x1="67.29" y1="80.79" x2="78.07" y2="81.53"></line><line class="link fake transparent" x1="78.12" y1="70.62" x2="78.07" y2="81.53"></line><line class="link fake transparent" x1="88.89" y1="82.26" x2="78.07" y2="81.53"></line><line class="link fake transparent" x1="56.20" y1="58.41" x2="62.17" y2="49.44"></line><line class="link fake transparent" x1="53.52" y1="42.94" x2="62.17" y2="49.44"></line><line class="link fake transparent" x1="67.84" y1="40.18" x2="62.17" y2="49.44"></line><line class="link fake transparent" x1="70.90" y1="55.98" x2="62.17" y2="49.44"></line><line class="link fake transparent" x1="53.52" y1="42.94" x2="59.17" y2="33.70"></line><line class="link fake transparent" x1="50.38" y1="27.40" x2="59.17" y2="33.70"></line><line class="link fake transparent" x1="64.67" y1="24.34" x2="59.17" y2="33.70"></line><line class="link fake transparent" x1="67.84" y1="40.18" x2="59.17" y2="33.70"></line><line class="link fake transparent" x1="50.38" y1="27.40" x2="55.87" y2="18.03"></line><line class="link fake transparent" x1="46.89" y1="12.07" x2="55.87" y2="18.03"></line><line class="link fake transparent" x1="61.04" y1="8.51" x2="55.87" y2="18.03"></line><line class="link fake transparent" x1="64.67" y1="24.34" x2="55.87" y2="18.03"></line><line class="link fake transparent" x1="46.89" y1="12.07" x2="52.05" y2="2.49"></line><line class="link fake transparent" x1="42.73" y1="-3.07" x2="52.05" y2="2.49"></line><line class="link fake transparent" x1="56.60" y1="-7.36" x2="52.05" y2="2.49"></line><line class="link fake transparent" x1="61.04" y1="8.51" x2="52.05" y2="2.49"></line><line class="link fake transparent" x1="42.73" y1="-3.07" x2="47.32" y2="-12.94"></line><line class="link fake transparent" x1="37.65" y1="-17.95" x2="47.32" y2="-12.94"></line><line class="link fake transparent" x1="51.27" y1="-23.05" x2="47.32" y2="-12.94"></line><line class="link fake transparent" x1="56.60" y1="-7.36" x2="47.32" y2="-12.94"></line><line class="link fake transparent" x1="37.65" y1="-17.95" x2="41.63" y2="-28.06"></line><line class="link fake transparent" x1="31.69" y1="-32.53" x2="41.63" y2="-28.06"></line><line class="link fake transparent" x1="45.01" y1="-38.35" x2="41.63" y2="-28.06"></line><line class="link fake transparent" x1="51.27" y1="-23.05" x2="41.63" y2="-28.06"></line><line class="link fake transparent" x1="31.69" y1="-32.53" x2="35.11" y2="-42.78"></line><line class="link fake transparent" x1="25.02" y1="-46.87" x2="35.11" y2="-42.78"></line><line class="link fake transparent" x1="38.14" y1="-53.18" x2="35.11" y2="-42.78"></line><line class="link fake transparent" x1="45.01" y1="-38.35" x2="35.11" y2="-42.78"></line><line class="link fake transparent" x1="25.02" y1="-46.87" x2="28.05" y2="-57.25"></line><line class="link fake transparent" x1="17.92" y1="-61.16" x2="28.05" y2="-57.25"></line><line class="link fake transparent" x1="30.99" y1="-67.67" x2="28.05" y2="-57.25"></line><line class="link fake transparent" x1="38.14" y1="-53.18" x2="28.05" y2="-57.25"></line><line class="link fake transparent" x1="17.92" y1="-61.16" x2="20.84" y2="-71.57"></line><line class="link fake transparent" x1="10.75" y1="-75.40" x2="20.84" y2="-71.57"></line><line class="link fake transparent" x1="23.89" y1="-81.91" x2="20.84" y2="-71.57"></line><line class="link fake transparent" x1="30.99" y1="-67.67" x2="20.84" y2="-71.57"></line><line class="link fake transparent" x1="10.75" y1="-75.40" x2="13.75" y2="-85.76"></line><line class="link fake transparent" x1="3.67" y1="-89.48" x2="13.75" y2="-85.76"></line><line class="link fake transparent" x1="17.18" y1="-96.01" x2="13.75" y2="-85.76"></line><line class="link fake transparent" x1="23.89" y1="-81.91" x2="13.75" y2="-85.76"></line><line class="link fake transparent" x1="140.37" y1="252.15" x2="156.53" y2="273.76"></line><line class="link fake transparent" x1="140.37" y1="252.15" x2="178.46" y2="289.42"></line><line class="link fake transparent" x1="154.24" y1="246.74" x2="156.53" y2="273.76"></line><line class="link fake transparent" x1="154.24" y1="246.74" x2="166.75" y2="298.65"></line><line class="link fake transparent" x1="169.21" y1="250.25" x2="156.53" y2="273.76"></line><line class="link fake transparent" x1="169.21" y1="250.25" x2="151.95" y2="300.39"></line><line class="link fake transparent" x1="179.97" y1="260.67" x2="156.53" y2="273.76"></line><line class="link fake transparent" x1="179.97" y1="260.67" x2="138.48" y2="294.04"></line><line class="link fake transparent" x1="183.39" y1="275.31" x2="156.53" y2="273.76"></line><line class="link fake transparent" x1="183.39" y1="275.31" x2="129.94" y2="282.34"></line><line class="link fake transparent" x1="178.46" y1="289.42" x2="156.53" y2="273.76"></line><line class="link fake transparent" x1="178.46" y1="289.42" x2="129.41" y2="267.22"></line><line class="link fake transparent" x1="166.75" y1="298.65" x2="156.53" y2="273.76"></line><line class="link fake transparent" x1="166.75" y1="298.65" x2="140.37" y2="252.15"></line><line class="link fake transparent" x1="151.95" y1="300.39" x2="156.53" y2="273.76"></line><line class="link fake transparent" x1="151.95" y1="300.39" x2="154.24" y2="246.74"></line><line class="link fake transparent" x1="138.48" y1="294.04" x2="156.53" y2="273.76"></line><line class="link fake transparent" x1="138.48" y1="294.04" x2="169.21" y2="250.25"></line><line class="link fake transparent" x1="3.67" y1="-89.48" x2="5.80" y2="-102.38"></line><line class="link fake transparent" x1="3.67" y1="-89.48" x2="0.10" y2="-114.20"></line><line class="link fake transparent" x1="-7.22" y1="-100.79" x2="5.80" y2="-102.38"></line><line class="link fake transparent" x1="-7.22" y1="-100.79" x2="15.17" y2="-111.56"></line><line class="link fake transparent" x1="0.10" y1="-114.20" x2="5.80" y2="-102.38"></line><line class="link fake transparent" x1="0.10" y1="-114.20" x2="17.18" y2="-96.01"></line><line class="link fake transparent" x1="15.17" y1="-111.56" x2="5.80" y2="-102.38"></line><line class="link fake transparent" x1="15.17" y1="-111.56" x2="3.67" y2="-89.48"></line><line class="link fake transparent" x1="17.18" y1="-96.01" x2="5.80" y2="-102.38"></line><line class="link fake transparent" x1="17.18" y1="-96.01" x2="-7.22" y2="-100.79"></line><line class="link fake transparent" x1="92.12" y1="116.65" x2="94.34" y2="99.14"></line><line class="link fake transparent" x1="92.12" y1="116.65" x2="88.89" y2="82.26"></line><line class="link fake transparent" x1="79.27" y1="107.90" x2="94.34" y2="99.14"></line><line class="link fake transparent" x1="79.27" y1="107.90" x2="104.29" y2="84.64"></line><line class="link fake transparent" x1="77.98" y1="92.40" x2="94.34" y2="99.14"></line><line class="link fake transparent" x1="77.98" y1="92.40" x2="111.89" y2="97.67"></line><line class="link fake transparent" x1="88.89" y1="82.26" x2="94.34" y2="99.14"></line><line class="link fake transparent" x1="88.89" y1="82.26" x2="106.40" y2="112.17"></line><line class="link fake transparent" x1="104.29" y1="84.64" x2="94.34" y2="99.14"></line><line class="link fake transparent" x1="104.29" y1="84.64" x2="92.12" y2="116.65"></line><line class="link fake transparent" x1="111.89" y1="97.67" x2="94.34" y2="99.14"></line><line class="link fake transparent" x1="111.89" y1="97.67" x2="79.27" y2="107.90"></line><line class="link fake transparent" x1="106.40" y1="112.17" x2="94.34" y2="99.14"></line><line class="link fake transparent" x1="106.40" y1="112.17" x2="77.98" y2="92.40"></line><line class="link fake transparent" x1="67.29" y1="80.79" x2="65.34" y2="67.80"></line><line class="link fake transparent" x1="67.29" y1="80.79" x2="56.20" y2="58.41"></line><line class="link fake transparent" x1="53.44" y1="73.67" x2="65.34" y2="67.80"></line><line class="link fake transparent" x1="53.44" y1="73.67" x2="70.90" y2="55.98"></line><line class="link fake transparent" x1="56.20" y1="58.41" x2="65.34" y2="67.80"></line><line class="link fake transparent" x1="56.20" y1="58.41" x2="78.12" y2="70.62"></line><line class="link fake transparent" x1="70.90" y1="55.98" x2="65.34" y2="67.80"></line><line class="link fake transparent" x1="70.90" y1="55.98" x2="67.29" y2="80.79"></line><line class="link fake transparent" x1="78.12" y1="70.62" x2="65.34" y2="67.80"></line><line class="link fake transparent" x1="78.12" y1="70.62" x2="53.44" y2="73.67"></line></g><g><g class="noselect gnode" struct_name="m" transform="translate(140.37,252.15)" r="6.5"><circle class="node" r="6" node_type="nucleotide" style="fill: lightgreen;"></circle><text text-anchor="middle" font-size="8" font-weight="bold" y="2.5" class="node-label">G</text></g><g class="noselect gnode" struct_name="m" transform="translate(134.48,237.70)" r="6.5"><circle class="node" r="6" node_type="nucleotide" style="fill: lightgreen;"></circle><text text-anchor="middle" font-size="8" font-weight="bold" y="2.5" class="node-label">G</text></g><g class="noselect gnode" struct_name="m" transform="translate(128.15,223.00)" r="6.5"><circle class="node" r="6" node_type="nucleotide" style="fill: lightgreen;"></circle><text text-anchor="middle" font-size="8" font-weight="bold" y="2.5" class="node-label">G</text></g><g class="noselect gnode" struct_name="m" transform="translate(121.98,208.03)" r="6.5"><circle class="node" r="6" node_type="nucleotide" style="fill: lightgreen;"></circle><text text-anchor="middle" font-size="8" font-weight="bold" y="2.5" class="node-label">C</text></g><g class="noselect gnode" struct_name="m" transform="translate(116.27,192.81)" r="6.5"><circle class="node" r="6" node_type="nucleotide" style="fill: lightgreen;"></circle><text text-anchor="middle" font-size="8" font-weight="bold" y="2.5" class="node-label">G</text></g><g class="noselect gnode" struct_name="m" transform="translate(111.05,177.50)" r="6.5"><circle class="node" r="6" node_type="nucleotide" style="fill: lightgreen;"></circle><text text-anchor="middle" font-size="8" font-weight="bold" y="2.5" class="node-label">G</text></g><g class="noselect gnode" struct_name="m" transform="translate(106.27,162.21)" r="6.5"><circle class="node" r="6" node_type="nucleotide" style="fill: lightgreen;"></circle><text text-anchor="middle" font-size="8" font-weight="bold" y="2.5" class="node-label">G</text></g><g class="noselect gnode" struct_name="m" transform="translate(101.71,146.92)" r="6.5"><circle class="node" r="6" node_type="nucleotide" style="fill: lightgreen;"></circle><text text-anchor="middle" font-size="8" font-weight="bold" y="2.5" class="node-label">U</text></g><g class="noselect gnode" struct_name="m" transform="translate(97.10,131.70)" r="6.5"><circle class="node" r="6" node_type="nucleotide" style="fill: lightgreen;"></circle><text text-anchor="middle" font-size="8" font-weight="bold" y="2.5" class="node-label">G</text></g><g class="noselect gnode" struct_name="m" transform="translate(92.12,116.65)" r="6.5"><circle class="node" r="6" node_type="nucleotide" style="fill: lightgreen;"></circle><text text-anchor="middle" font-size="8" font-weight="bold" y="2.5" class="node-label">C</text></g><g class="noselect gnode" struct_name="m" transform="translate(79.27,107.90)" r="6.5"><circle class="node" r="6" node_type="nucleotide" style="fill: rgb(219, 219, 141);"></circle><text text-anchor="middle" font-size="8" font-weight="bold" y="2.5" class="node-label">U</text></g><g class="noselect gnode" struct_name="m" transform="translate(77.98,92.40)" r="6.5"><circle class="node" r="6" node_type="nucleotide" style="fill: lightgreen;"></circle><text text-anchor="middle" font-size="8" font-weight="bold" y="2.5" class="node-label">C</text></g><g class="noselect gnode" struct_name="m" transform="translate(67.29,80.79)" r="6.5"><circle class="node" r="6" node_type="nucleotide" style="fill: lightgreen;"></circle><text text-anchor="middle" font-size="8" font-weight="bold" y="2.5" class="node-label">A</text></g><g class="noselect gnode" struct_name="m" transform="translate(53.44,73.67)" r="6.5"><circle class="node" r="6" node_type="nucleotide" style="fill: rgb(219, 219, 141);"></circle><text text-anchor="middle" font-size="8" font-weight="bold" y="2.5" class="node-label">U</text></g><g class="noselect gnode" struct_name="m" transform="translate(56.20,58.41)" r="6.5"><circle class="node" r="6" node_type="nucleotide" style="fill: lightgreen;"></circle><text text-anchor="middle" font-size="8" font-weight="bold" y="2.5" class="node-label">G</text></g><g class="noselect gnode" struct_name="m" transform="translate(53.52,42.94)" r="6.5"><circle class="node" r="6" node_type="nucleotide" style="fill: lightgreen;"></circle><text text-anchor="middle" font-size="8" font-weight="bold" y="2.5" class="node-label">U</text></g><g class="noselect gnode" struct_name="m" transform="translate(50.38,27.40)" r="6.5"><circle class="node" r="6" node_type="nucleotide" style="fill: lightgreen;"></circle><text text-anchor="middle" font-size="8" font-weight="bold" y="2.5" class="node-label">G</text></g><g class="noselect gnode" struct_name="m" transform="translate(46.89,12.07)" r="6.5"><circle class="node" r="6" node_type="nucleotide" style="fill: lightgreen;"></circle><text text-anchor="middle" font-size="8" font-weight="bold" y="2.5" class="node-label">G</text></g><g class="noselect gnode" struct_name="m" transform="translate(42.73,-3.07)" r="6.5"><circle class="node" r="6" node_type="nucleotide" style="fill: lightgreen;"></circle><text text-anchor="middle" font-size="8" font-weight="bold" y="2.5" class="node-label">U</text></g><g class="noselect gnode" struct_name="m" transform="translate(37.65,-17.95)" r="6.5"><circle class="node" r="6" node_type="nucleotide" style="fill: lightgreen;"></circle><text text-anchor="middle" font-size="8" font-weight="bold" y="2.5" class="node-label">G</text></g><g class="noselect gnode" struct_name="m" transform="translate(31.69,-32.53)" r="6.5"><circle class="node" r="6" node_type="nucleotide" style="fill: lightgreen;"></circle><text text-anchor="middle" font-size="8" font-weight="bold" y="2.5" class="node-label">G</text></g><g class="noselect gnode" struct_name="m" transform="translate(25.02,-46.87)" r="6.5"><circle class="node" r="6" node_type="nucleotide" style="fill: lightgreen;"></circle><text text-anchor="middle" font-size="8" font-weight="bold" y="2.5" class="node-label">A</text></g><g class="noselect gnode" struct_name="m" transform="translate(17.92,-61.16)" r="6.5"><circle class="node" r="6" node_type="nucleotide" style="fill: lightgreen;"></circle><text text-anchor="middle" font-size="8" font-weight="bold" y="2.5" class="node-label">G</text></g><g class="noselect gnode" struct_name="m" transform="translate(10.75,-75.40)" r="6.5"><circle class="node" r="6" node_type="nucleotide" style="fill: lightgreen;"></circle><text text-anchor="middle" font-size="8" font-weight="bold" y="2.5" class="node-label">C</text></g><g class="noselect gnode" struct_name="m" transform="translate(3.67,-89.48)" r="6.5"><circle class="node" r="6" node_type="nucleotide" style="fill: lightgreen;"></circle><text text-anchor="middle" font-size="8" font-weight="bold" y="2.5" class="node-label">G</text></g><g class="noselect gnode" struct_name="m" transform="translate(-7.22,-100.79)" r="6.5"><circle class="node" r="6" node_type="nucleotide" style="fill: lightblue;"></circle><text text-anchor="middle" font-size="8" font-weight="bold" y="2.5" class="node-label">U</text></g><g class="noselect gnode" struct_name="m" transform="translate(0.10,-114.20)" r="6.5"><circle class="node" r="6" node_type="nucleotide" style="fill: lightblue;"></circle><text text-anchor="middle" font-size="8" font-weight="bold" y="2.5" class="node-label">U</text></g><g class="noselect gnode" struct_name="m" transform="translate(15.17,-111.56)" r="6.5"><circle class="node" r="6" node_type="nucleotide" style="fill: lightblue;"></circle><text text-anchor="middle" font-size="8" font-weight="bold" y="2.5" class="node-label">U</text></g><g class="noselect gnode" struct_name="m" transform="translate(17.18,-96.01)" r="6.5"><circle class="node" r="6" node_type="nucleotide" style="fill: lightgreen;"></circle><text text-anchor="middle" font-size="8" font-weight="bold" y="2.5" class="node-label">C</text></g><g class="noselect gnode" struct_name="m" transform="translate(23.89,-81.91)" r="6.5"><circle class="node" r="6" node_type="nucleotide" style="fill: lightgreen;"></circle><text text-anchor="middle" font-size="8" font-weight="bold" y="2.5" class="node-label">G</text></g><g class="noselect gnode" struct_name="m" transform="translate(30.99,-67.67)" r="6.5"><circle class="node" r="6" node_type="nucleotide" style="fill: lightgreen;"></circle><text text-anchor="middle" font-size="8" font-weight="bold" y="2.5" class="node-label">U</text></g><g class="noselect gnode" struct_name="m" transform="translate(38.14,-53.18)" r="6.5"><circle class="node" r="6" node_type="nucleotide" style="fill: lightgreen;"></circle><text text-anchor="middle" font-size="8" font-weight="bold" y="2.5" class="node-label">U</text></g><g class="noselect gnode" struct_name="m" transform="translate(45.01,-38.35)" r="6.5"><circle class="node" r="6" node_type="nucleotide" style="fill: lightgreen;"></circle><text text-anchor="middle" font-size="8" font-weight="bold" y="2.5" class="node-label">C</text></g><g class="noselect gnode" struct_name="m" transform="translate(51.27,-23.05)" r="6.5"><circle class="node" r="6" node_type="nucleotide" style="fill: lightgreen;"></circle><text text-anchor="middle" font-size="8" font-weight="bold" y="2.5" class="node-label">U</text></g><g class="noselect gnode" struct_name="m" transform="translate(56.60,-7.36)" r="6.5"><circle class="node" r="6" node_type="nucleotide" style="fill: lightgreen;"></circle><text text-anchor="middle" font-size="8" font-weight="bold" y="2.5" class="node-label">A</text></g><g class="noselect gnode" struct_name="m" transform="translate(61.04,8.51)" r="6.5"><circle class="node" r="6" node_type="nucleotide" style="fill: lightgreen;"></circle><text text-anchor="middle" font-size="8" font-weight="bold" y="2.5" class="node-label">C</text></g><g class="noselect gnode" struct_name="m" transform="translate(64.67,24.34)" r="6.5"><circle class="node" r="6" node_type="nucleotide" style="fill: lightgreen;"></circle><text text-anchor="middle" font-size="8" font-weight="bold" y="2.5" class="node-label">C</text></g><g class="noselect gnode" struct_name="m" transform="translate(67.84,40.18)" r="6.5"><circle class="node" r="6" node_type="nucleotide" style="fill: lightgreen;"></circle><text text-anchor="middle" font-size="8" font-weight="bold" y="2.5" class="node-label">A</text></g><g class="noselect gnode" struct_name="m" transform="translate(70.90,55.98)" r="6.5"><circle class="node" r="6" node_type="nucleotide" style="fill: lightgreen;"></circle><text text-anchor="middle" font-size="8" font-weight="bold" y="2.5" class="node-label">C</text></g><g class="noselect gnode" struct_name="m" transform="translate(78.12,70.62)" r="6.5"><circle class="node" r="6" node_type="nucleotide" style="fill: lightgreen;"></circle><text text-anchor="middle" font-size="8" font-weight="bold" y="2.5" class="node-label">U</text></g><g class="noselect gnode" struct_name="m" transform="translate(88.89,82.26)" r="6.5"><circle class="node" r="6" node_type="nucleotide" style="fill: lightgreen;"></circle><text text-anchor="middle" font-size="8" font-weight="bold" y="2.5" class="node-label">G</text></g><g class="noselect gnode" struct_name="m" transform="translate(104.29,84.64)" r="6.5"><circle class="node" r="6" node_type="nucleotide" style="fill: rgb(219, 219, 141);"></circle><text text-anchor="middle" font-size="8" font-weight="bold" y="2.5" class="node-label">U</text></g><g class="noselect gnode" struct_name="m" transform="translate(111.89,97.67)" r="6.5"><circle class="node" r="6" node_type="nucleotide" style="fill: rgb(219, 219, 141);"></circle><text text-anchor="middle" font-size="8" font-weight="bold" y="2.5" class="node-label">U</text></g><g class="noselect gnode" struct_name="m" transform="translate(106.40,112.17)" r="6.5"><circle class="node" r="6" node_type="nucleotide" style="fill: lightgreen;"></circle><text text-anchor="middle" font-size="8" font-weight="bold" y="2.5" class="node-label">G</text></g><g class="noselect gnode" struct_name="m" transform="translate(111.02,127.36)" r="6.5"><circle class="node" r="6" node_type="nucleotide" style="fill: lightgreen;"></circle><text text-anchor="middle" font-size="8" font-weight="bold" y="2.5" class="node-label">C</text></g><g class="noselect gnode" struct_name="m" transform="translate(115.72,142.69)" r="6.5"><circle class="node" r="6" node_type="nucleotide" style="fill: lightgreen;"></circle><text text-anchor="middle" font-size="8" font-weight="bold" y="2.5" class="node-label">G</text></g><g class="noselect gnode" struct_name="m" transform="translate(120.30,157.93)" r="6.5"><circle class="node" r="6" node_type="nucleotide" style="fill: lightgreen;"></circle><text text-anchor="middle" font-size="8" font-weight="bold" y="2.5" class="node-label">C</text></g><g class="noselect gnode" struct_name="m" transform="translate(124.99,172.97)" r="6.5"><circle class="node" r="6" node_type="nucleotide" style="fill: lightgreen;"></circle><text text-anchor="middle" font-size="8" font-weight="bold" y="2.5" class="node-label">C</text></g><g class="noselect gnode" struct_name="m" transform="translate(130.02,187.90)" r="6.5"><circle class="node" r="6" node_type="nucleotide" style="fill: lightgreen;"></circle><text text-anchor="middle" font-size="8" font-weight="bold" y="2.5" class="node-label">U</text></g><g class="noselect gnode" struct_name="m" transform="translate(135.58,202.67)" r="6.5"><circle class="node" r="6" node_type="nucleotide" style="fill: lightgreen;"></circle><text text-anchor="middle" font-size="8" font-weight="bold" y="2.5" class="node-label">G</text></g><g class="noselect gnode" struct_name="m" transform="translate(141.60,217.32)" r="6.5"><circle class="node" r="6" node_type="nucleotide" style="fill: lightgreen;"></circle><text text-anchor="middle" font-size="8" font-weight="bold" y="2.5" class="node-label">C</text></g><g class="noselect gnode" struct_name="m" transform="translate(147.93,231.98)" r="6.5"><circle class="node" r="6" node_type="nucleotide" style="fill: lightgreen;"></circle><text text-anchor="middle" font-size="8" font-weight="bold" y="2.5" class="node-label">C</text></g><g class="noselect gnode" struct_name="m" transform="translate(154.24,246.74)" r="6.5"><circle class="node" r="6" node_type="nucleotide" style="fill: lightgreen;"></circle><text text-anchor="middle" font-size="8" font-weight="bold" y="2.5" class="node-label">C</text></g><g class="noselect gnode" struct_name="m" transform="translate(169.21,250.25)" r="6.5"><circle class="node" r="6" node_type="nucleotide" style="fill: lightsalmon;"></circle><text text-anchor="middle" font-size="8" font-weight="bold" y="2.5" class="node-label">U</text></g><g class="noselect gnode" struct_name="m" transform="translate(179.97,260.67)" r="6.5"><circle class="node" r="6" node_type="nucleotide" style="fill: lightsalmon;"></circle><text text-anchor="middle" font-size="8" font-weight="bold" y="2.5" class="node-label">C</text></g><g class="noselect gnode" struct_name="m" transform="translate(183.39,275.31)" r="6.5"><circle class="node" r="6" node_type="nucleotide" style="fill: lightsalmon;"></circle><text text-anchor="middle" font-size="8" font-weight="bold" y="2.5" class="node-label">U</text></g><g class="noselect gnode" struct_name="m" transform="translate(178.46,289.42)" r="6.5"><circle class="node" r="6" node_type="nucleotide" style="fill: lightsalmon;"></circle><text text-anchor="middle" font-size="8" font-weight="bold" y="2.5" class="node-label">U</text></g><g class="noselect gnode" struct_name="m" transform="translate(166.75,298.65)" r="6.5"><circle class="node" r="6" node_type="nucleotide" style="fill: lightsalmon;"></circle><text text-anchor="middle" font-size="8" font-weight="bold" y="2.5" class="node-label">C</text></g><g class="noselect gnode" struct_name="m" transform="translate(151.95,300.39)" r="6.5"><circle class="node" r="6" node_type="nucleotide" style="fill: lightsalmon;"></circle><text text-anchor="middle" font-size="8" font-weight="bold" y="2.5" class="node-label">A</text></g><g class="noselect gnode" struct_name="m" transform="translate(138.48,294.04)" r="6.5"><circle class="node" r="6" node_type="nucleotide" style="fill: lightsalmon;"></circle><text text-anchor="middle" font-size="8" font-weight="bold" y="2.5" class="node-label">U</text></g><g class="noselect gnode" struct_name="m" transform="translate(79.08,125.14)" r="6.5"><circle class="node label" r="6" node_type="label"></circle><text text-anchor="middle" font-size="8" font-weight="bold" y="2.5" class="node-label">10</text></g><g class="noselect gnode" struct_name="m" transform="translate(23.13,-12.23)" r="6.5"><circle class="node label" r="6" node_type="label"></circle><text text-anchor="middle" font-size="8" font-weight="bold" y="2.5" class="node-label">20</text></g><g class="noselect gnode" struct_name="m" transform="translate(36.95,-90.34)" r="6.5"><circle class="node label" r="6" node_type="label"></circle><text text-anchor="middle" font-size="8" font-weight="bold" y="2.5" class="node-label">30</text></g><g class="noselect gnode" struct_name="m" transform="translate(91.41,62.58)" r="6.5"><circle class="node label" r="6" node_type="label"></circle><text text-anchor="middle" font-size="8" font-weight="bold" y="2.5" class="node-label">40</text></g><g class="noselect gnode" struct_name="m" transform="translate(150.07,196.91)" r="6.5"><circle class="node label" r="6" node_type="label"></circle><text text-anchor="middle" font-size="8" font-weight="bold" y="2.5" class="node-label">50</text></g><g class="noselect gnode" struct_name="m" transform="translate(126.71,304.07)" r="6.5"><circle class="node label" r="6" node_type="label"></circle><text text-anchor="middle" font-size="8" font-weight="bold" y="2.5" class="node-label">60</text></g><g class="noselect gnode" transform="translate(144.39,242.24)" r="6.5"><circle class="node" r="0" node_type="middle"></circle><text text-anchor="middle" font-size="8" font-weight="bold" y="2.5" class="node-label"></text></g><g class="noselect gnode" transform="translate(138.02,227.56)" r="6.5"><circle class="node" r="0" node_type="middle"></circle><text text-anchor="middle" font-size="8" font-weight="bold" y="2.5" class="node-label"></text></g><g class="noselect gnode" transform="translate(131.71,212.83)" r="6.5"><circle class="node" r="0" node_type="middle"></circle><text text-anchor="middle" font-size="8" font-weight="bold" y="2.5" class="node-label"></text></g><g class="noselect gnode" transform="translate(125.82,197.90)" r="6.5"><circle class="node" r="0" node_type="middle"></circle><text text-anchor="middle" font-size="8" font-weight="bold" y="2.5" class="node-label"></text></g><g class="noselect gnode" transform="translate(120.45,182.83)" r="6.5"><circle class="node" r="0" node_type="middle"></circle><text text-anchor="middle" font-size="8" font-weight="bold" y="2.5" class="node-label"></text></g><g class="noselect gnode" transform="translate(115.56,167.66)" r="6.5"><circle class="node" r="0" node_type="middle"></circle><text text-anchor="middle" font-size="8" font-weight="bold" y="2.5" class="node-label"></text></g><g class="noselect gnode" transform="translate(110.99,152.44)" r="6.5"><circle class="node" r="0" node_type="middle"></circle><text text-anchor="middle" font-size="8" font-weight="bold" y="2.5" class="node-label"></text></g><g class="noselect gnode" transform="translate(106.43,137.15)" r="6.5"><circle class="node" r="0" node_type="middle"></circle><text text-anchor="middle" font-size="8" font-weight="bold" y="2.5" class="node-label"></text></g><g class="noselect gnode" transform="translate(101.69,121.86)" r="6.5"><circle class="node" r="0" node_type="middle"></circle><text text-anchor="middle" font-size="8" font-weight="bold" y="2.5" class="node-label"></text></g><g class="noselect gnode" transform="translate(78.07,81.53)" r="6.5"><circle class="node" r="0" node_type="middle"></circle><text text-anchor="middle" font-size="8" font-weight="bold" y="2.5" class="node-label"></text></g><g class="noselect gnode" transform="translate(62.17,49.44)" r="6.5"><circle class="node" r="0" node_type="middle"></circle><text text-anchor="middle" font-size="8" font-weight="bold" y="2.5" class="node-label"></text></g><g class="noselect gnode" transform="translate(59.17,33.70)" r="6.5"><circle class="node" r="0" node_type="middle"></circle><text text-anchor="middle" font-size="8" font-weight="bold" y="2.5" class="node-label"></text></g><g class="noselect gnode" transform="translate(55.87,18.03)" r="6.5"><circle class="node" r="0" node_type="middle"></circle><text text-anchor="middle" font-size="8" font-weight="bold" y="2.5" class="node-label"></text></g><g class="noselect gnode" transform="translate(52.05,2.49)" r="6.5"><circle class="node" r="0" node_type="middle"></circle><text text-anchor="middle" font-size="8" font-weight="bold" y="2.5" class="node-label"></text></g><g class="noselect gnode" transform="translate(47.32,-12.94)" r="6.5"><circle class="node" r="0" node_type="middle"></circle><text text-anchor="middle" font-size="8" font-weight="bold" y="2.5" class="node-label"></text></g><g class="noselect gnode" transform="translate(41.63,-28.06)" r="6.5"><circle class="node" r="0" node_type="middle"></circle><text text-anchor="middle" font-size="8" font-weight="bold" y="2.5" class="node-label"></text></g><g class="noselect gnode" transform="translate(35.11,-42.78)" r="6.5"><circle class="node" r="0" node_type="middle"></circle><text text-anchor="middle" font-size="8" font-weight="bold" y="2.5" class="node-label"></text></g><g class="noselect gnode" transform="translate(28.05,-57.25)" r="6.5"><circle class="node" r="0" node_type="middle"></circle><text text-anchor="middle" font-size="8" font-weight="bold" y="2.5" class="node-label"></text></g><g class="noselect gnode" transform="translate(20.84,-71.57)" r="6.5"><circle class="node" r="0" node_type="middle"></circle><text text-anchor="middle" font-size="8" font-weight="bold" y="2.5" class="node-label"></text></g><g class="noselect gnode" transform="translate(13.75,-85.76)" r="6.5"><circle class="node" r="0" node_type="middle"></circle><text text-anchor="middle" font-size="8" font-weight="bold" y="2.5" class="node-label"></text></g><g class="noselect gnode" transform="translate(129.94,282.34)" r="6.5"><circle class="node" r="0" node_type="middle"></circle><text text-anchor="middle" font-size="8" font-weight="bold" y="2.5" class="node-label"></text></g><g class="noselect gnode" transform="translate(129.41,267.22)" r="6.5"><circle class="node" r="0" node_type="middle"></circle><text text-anchor="middle" font-size="8" font-weight="bold" y="2.5" class="node-label"></text></g><g class="noselect gnode" transform="translate(156.53,273.76)" r="6.5"><circle class="node" r="0" node_type="middle"></circle><text text-anchor="middle" font-size="8" font-weight="bold" y="2.5" class="node-label"></text></g><g class="noselect gnode" transform="translate(5.80,-102.38)" r="6.5"><circle class="node" r="0" node_type="middle"></circle><text text-anchor="middle" font-size="8" font-weight="bold" y="2.5" class="node-label"></text></g><g class="noselect gnode" transform="translate(94.34,99.14)" r="6.5"><circle class="node" r="0" node_type="middle"></circle><text text-anchor="middle" font-size="8" font-weight="bold" y="2.5" class="node-label"></text></g><g class="noselect gnode" transform="translate(65.34,67.80)" r="6.5"><circle class="node" r="0" node_type="middle"></circle><text text-anchor="middle" font-size="8" font-weight="bold" y="2.5" class="node-label"></text></g></g><line class="drag_line" x1="0" y1="0" x2="0" y2="0"></line></g></g></svg>