<svg xmlns="http://www.w3.org/2000/svg" viewBox="0 0 760 640" width="760" height="640"><style>svg {
  display: block;
  min-width: 100%;
  width: 100%;
  min-height: 100%;
}

circle.node {
  stroke: #ccc;
  stroke-width: 1px;
  opacity: 1;
  fill: white;
}

circle.node.label {
    stroke: transparent;
    stroke-width: 0;
    fill: white;
}

circle.outline_node {
    stroke-width: 1px;
    fill: red;
}

circle.protein {
    fill: gray;
    fill-opacity: 0.5;
    stroke-width: 4;
}

circle.hidden_outline {
    stroke-width: 0px;
}


line.link {
  stroke: #999;
  stroke-opacity: 0.8;
  stroke-width: 2;
}

line.basepair {
  stroke: red;
}

line.intermolecule {
  stroke: blue;
}

line.chain_chain {
  stroke-dasharray: 3,3;
}

line.fake {
  stroke: green;
}

.transparent {
    fill: transparent;
    stroke-width: 0;
    stroke-opacity: 0;
    opacity: 0;
    visibility: hidden;
}

.drag_line {
  stroke: #999;
  stroke-width: 2;
  pointer-events: none;
}

.drag_line_hidden {
  stroke: #999;
  stroke-width: 0;
  pointer-events: none;
}

.d3-tip {
    line-height: 1;
    font-weight: bold;
    padding: 6px;
    background: rgba(0, 0, 0, 0.6);
    color: #fff;
    border-radius: 4px;
    pointer-events: none;
          }

text.node-label {
    font-weight: bold;
    font-family: Tahoma, Geneva, sans-serif;
    color: rgb(100,100,100);
    pointer-events: none;
}

text {
    pointer-events: none;
}

g.gnode {

}

circle.outline_node.selected {
    visibility: visible;
}

circle.outline_node {
    visibility: hidden;
}

.brush .extent {
  fill-opacity: .1;
  stroke: #fff;
  shape-rendering: crispEdges;
}

.noselect {
    -webkit-touch-callout: none;
    -webkit-user-select: none;
    -khtml-user-select: none;
    -moz-user-select: none;
    -ms-user-select: none;
    user-select: none;
}

svg {
  display: block;
  min-width: 100%;
  width: 100%;
  min-height: 100%;
}

circle.node {
  stroke: #ccc;
  stroke-width: 1px;
  opacity: 1;
  fill: white;
}

circle.node.label {
    stroke: transparent;
    stroke-width: 0;
    fill: white;
}

circle.outline_node {
    stroke-width: 1px;
    fill: red;
}

circle.protein {
    fill: gray;
    fill-opacity: 0.5;
    stroke-width: 4;
}

circle.hidden_outline {
    stroke-width: 0px;
}


line.link {
  stroke: #999;
  stroke-opacity: 0.8;
  stroke-width: 2;
}

line.basepair {
  stroke: red;
}

line.intermolecule {
  stroke: blue;
}

line.chain_chain {
  stroke-dasharray: 3,3;
}

line.fake {
  stroke: green;
}

.transparent {
    fill: transparent;
    stroke-width: 0;
    stroke-opacity: 0;
    opacity: 0;
    visibility: hidden;
}

.drag_line {
  stroke: #999;
  stroke-width: 2;
  pointer-events: none;
}

.drag_line_hidden {
  stroke: #999;
  stroke-width: 0;
  pointer-events: none;
}

.d3-tip {
    line-height: 1;
    font-weight: bold;
    padding: 6px;
    background: rgba(0, 0, 0, 0.6);
    color: #fff;
    border-radius: 4px;
    pointer-events: none;
          }

text.node-label {
    font-weight: bold;
    font-family: Tahoma, Geneva, sans-serif;
    color: rgb(100,100,100);
    pointer-events: none;
}

text {
    pointer-events: none;
}

g.gnode {

}

circle.outline_node.selected {
    visibility: visible;
}

circle.outline_node {
    visibility: hidden;
}

.brush .extent {
  fill-opacity: .1;
  stroke: #fff;
  shape-rendering: crispEdges;
}

.noselect {
    -webkit-touch-callout: none;
    -webkit-user-select: none;
    -khtml-user-select: none;
    -moz-user-select: none;
    -ms-user-select: none;
    user-select: none;
}
/*# sourceURL=/Users/yumanakamura/ipy_sandbox/sandbox/claude_sandbox/mrna-transformer-worktrees/feat-issue57-switch-derna-knotty/scripts/eval/prerender/forna_vendor/fornac.css*/</style><style></style><g><g class="brush" style="pointer-events: all; -webkit-tap-highlight-color: rgba(0, 0, 0, 0);"><rect class="background" x="0" width="760" y="0" height="640" style="visibility: hidden; cursor: auto;"></rect><rect class="extent" x="0" width="0" y="0" height="0" style="cursor: move;"></rect><g class="resize n" transform="translate(0,0)" style="cursor: ns-resize; display: none;"><rect y="-3" width="0" height="6" style="visibility: hidden;"></rect></g><g class="resize e" transform="translate(0,0)" style="cursor: ew-resize; display: none;"><rect x="-3" width="6" height="0" style="visibility: hidden;"></rect></g><g class="resize s" transform="translate(0,0)" style="cursor: ns-resize; display: none;"><rect y="-3" width="0" height="6" style="visibility: hidden;"></rect></g><g class="resize w" transform="translate(0,0)" style="cursor: ew-resize; display: none;"><rect x="-3" width="6" height="0" style="visibility: hidden;"></rect></g><g class="resize nw" transform="translate(0,0)" style="cursor: nwse-resize; display: none;"><rect x="-3" y="-3" width="6" height="6" style="visibility: hidden;"></rect></g><g class="resize ne" transform="translate(0,0)" style="cursor: nesw-resize; display: none;"><rect x="-3" y="-3" width="6" height="6" style="visibility: hidden;"></rect></g><g class="resize se" transform="translate(0,0)" style="cursor: nwse-resize; display: none;"><rect x="-3" y="-3" width="6" height="6" style="visibility: hidden;"></rect></g><g class="resize sw" transform="translate(0,0)" style="cursor: nesw-resize; display: none;"><rect x="-3" y="-3" width="6" height="6" style="visibility: hidden;"></rect></g></g><g transform="translate(133.88,210.19) scale(2.16)"><g><line class="link basepair" x1="77.58" y1="126.59" x2="83.98" y2="110.26"></line><line class="link basepair" x1="87.92" y1="132.42" x2="90.34" y2="120.34"></line><line class="link backbone" x1="77.58" y1="126.59" x2="87.92" y2="132.42"></line><line class="link basepair" x1="75.42" y1="138.23" x2="67.07" y2="125.73"></line><line class="link backbone" x1="87.92" y1="132.42" x2="75.42" y2="138.23"></line><line class="link backbone" x1="75.42" y1="138.23" x2="70.70" y2="153.21"></line><line class="link backbone" x1="70.70" y1="153.21" x2="56.68" y2="158.69"></line><line class="link backbone" x1="56.68" y1="158.69" x2="43.52" y2="151.12"></line><line class="link backbone" x1="43.52" y1="151.12" x2="41.21" y2="136.12"></line><line class="link backbone" x1="41.21" y1="136.12" x2="51.37" y2="124.96"></line><line class="link basepair" x1="67.07" y1="125.73" x2="75.42" y2="138.23"></line><line class="link backbone" x1="51.37" y1="124.96" x2="67.07" y2="125.73"></line><line class="link basepair" x1="90.34" y1="120.34" x2="87.92" y2="132.42"></line><line class="link backbone" x1="67.07" y1="125.73" x2="90.34" y2="120.34"></line><line class="link basepair" x1="83.98" y1="110.26" x2="77.58" y2="126.59"></line><line class="link backbone" x1="90.34" y1="120.34" x2="83.98" y2="110.26"></line><line class="link basepair" x1="93.91" y1="98.48" x2="107.80" y2="92.06"></line><line class="link backbone" x1="83.98" y1="110.26" x2="93.91" y2="98.48"></line><line class="link basepair" x1="87.57" y1="83.08" x2="100.15" y2="77.09"></line><line class="link backbone" x1="93.91" y1="98.48" x2="87.57" y2="83.08"></line><line class="link basepair" x1="80.03" y1="68.33" x2="92.55" y2="61.66"></line><line class="link backbone" x1="87.57" y1="83.08" x2="80.03" y2="68.33"></line><line class="link basepair" x1="71.98" y1="54.32" x2="84.24" y2="46.85"></line><line class="link backbone" x1="80.03" y1="68.33" x2="71.98" y2="54.32"></line><line class="link basepair" x1="63.29" y1="41.06" x2="75.14" y2="32.80"></line><line class="link backbone" x1="71.98" y1="54.32" x2="63.29" y2="41.06"></line><line class="link basepair" x1="53.86" y1="28.32" x2="65.30" y2="19.47"></line><line class="link backbone" x1="63.29" y1="41.06" x2="53.86" y2="28.32"></line><line class="link basepair" x1="43.85" y1="15.95" x2="54.73" y2="6.54"></line><line class="link backbone" x1="53.86" y1="28.32" x2="43.85" y2="15.95"></line><line class="link basepair" x1="33.15" y1="4.68" x2="43.40" y2="-5.92"></line><line class="link backbone" x1="43.85" y1="15.95" x2="33.15" y2="4.68"></line><line class="link backbone" x1="33.15" y1="4.68" x2="18.90" y2="-1.48"></line><line class="link basepair" x1="20.58" y1="-16.76" x2="34.91" y2="-20.48"></line><line class="link backbone" x1="18.90" y1="-1.48" x2="20.58" y2="-16.76"></line><line class="link basepair" x1="16.06" y1="-31.53" x2="29.75" y2="-36.27"></line><line class="link backbone" x1="20.58" y1="-16.76" x2="16.06" y2="-31.53"></line><line class="link basepair" x1="10.45" y1="-46.16" x2="24.33" y2="-51.46"></line><line class="link backbone" x1="16.06" y1="-31.53" x2="10.45" y2="-46.16"></line><line class="link backbone" x1="10.45" y1="-46.16" x2="-1.49" y2="-55.83"></line><line class="link backbone" x1="-1.49" y1="-55.83" x2="0.90" y2="-70.59"></line><line class="link backbone" x1="0.90" y1="-70.59" x2="14.87" y2="-76.02"></line><line class="link backbone" x1="14.87" y1="-76.02" x2="26.61" y2="-66.72"></line><line class="link basepair" x1="24.33" y1="-51.46" x2="10.45" y2="-46.16"></line><line class="link backbone" x1="26.61" y1="-66.72" x2="24.33" y2="-51.46"></line><line class="link basepair" x1="29.75" y1="-36.27" x2="16.06" y2="-31.53"></line><line class="link backbone" x1="24.33" y1="-51.46" x2="29.75" y2="-36.27"></line><line class="link basepair" x1="34.91" y1="-20.48" x2="20.58" y2="-16.76"></line><line class="link backbone" x1="29.75" y1="-36.27" x2="34.91" y2="-20.48"></line><line class="link basepair" x1="43.40" y1="-5.92" x2="33.15" y2="4.68"></line><line class="link backbone" x1="34.91" y1="-20.48" x2="43.40" y2="-5.92"></line><line class="link basepair" x1="54.73" y1="6.54" x2="43.85" y2="15.95"></line><line class="link backbone" x1="43.40" y1="-5.92" x2="54.73" y2="6.54"></line><line class="link basepair" x1="65.30" y1="19.47" x2="53.86" y2="28.32"></line><line class="link backbone" x1="54.73" y1="6.54" x2="65.30" y2="19.47"></line><line class="link basepair" x1="75.14" y1="32.80" x2="63.29" y2="41.06"></line><line class="link backbone" x1="65.30" y1="19.47" x2="75.14" y2="32.80"></line><line class="link basepair" x1="84.24" y1="46.85" x2="71.98" y2="54.32"></line><line class="link backbone" x1="75.14" y1="32.80" x2="84.24" y2="46.85"></line><line class="link basepair" x1="92.55" y1="61.66" x2="80.03" y2="68.33"></line><line class="link backbone" x1="84.24" y1="46.85" x2="92.55" y2="61.66"></line><line class="link basepair" x1="100.15" y1="77.09" x2="87.57" y2="83.08"></line><line class="link backbone" x1="92.55" y1="61.66" x2="100.15" y2="77.09"></line><line class="link basepair" x1="107.80" y1="92.06" x2="93.91" y2="98.48"></line><line class="link backbone" x1="100.15" y1="77.09" x2="107.80" y2="92.06"></line><line class="link backbone" x1="107.80" y1="92.06" x2="123.53" y2="92.60"></line><line class="link basepair" x1="138.86" y1="98.23" x2="146.99" y2="110.71"></line><line class="link backbone" x1="123.53" y1="92.60" x2="138.86" y2="98.23"></line><line class="link basepair" x1="155.89" y1="91.17" x2="160.02" y2="104.76"></line><line class="link backbone" x1="138.86" y1="98.23" x2="155.89" y2="91.17"></line><line class="link basepair" x1="173.30" y1="87.68" x2="174.83" y2="102.01"></line><line class="link backbone" x1="155.89" y1="91.17" x2="173.30" y2="87.68"></line><line class="link basepair" x1="190.49" y1="87.13" x2="189.99" y2="101.64"></line><line class="link backbone" x1="173.30" y1="87.68" x2="190.49" y2="87.13"></line><line class="link basepair" x1="207.17" y1="88.69" x2="205.09" y2="103.19"></line><line class="link backbone" x1="190.49" y1="87.13" x2="207.17" y2="88.69"></line><line class="link basepair" x1="223.08" y1="91.40" x2="220.07" y2="106.10"></line><line class="link backbone" x1="207.17" y1="88.69" x2="223.08" y2="91.40"></line><line class="link backbone" x1="223.08" y1="91.40" x2="238.74" y2="89.77"></line><line class="link backbone" x1="238.74" y1="89.77" x2="244.84" y2="103.78"></line><line class="link backbone" x1="244.84" y1="103.78" x2="233.53" y2="114.05"></line><line class="link basepair" x1="220.07" y1="106.10" x2="223.08" y2="91.40"></line><line class="link backbone" x1="233.53" y1="114.05" x2="220.07" y2="106.10"></line><line class="link basepair" x1="205.09" y1="103.19" x2="207.17" y2="88.69"></line><line class="link backbone" x1="220.07" y1="106.10" x2="205.09" y2="103.19"></line><line class="link basepair" x1="189.99" y1="101.64" x2="190.49" y2="87.13"></line><line class="link backbone" x1="205.09" y1="103.19" x2="189.99" y2="101.64"></line><line class="link basepair" x1="174.83" y1="102.01" x2="173.30" y2="87.68"></line><line class="link backbone" x1="189.99" y1="101.64" x2="174.83" y2="102.01"></line><line class="link basepair" x1="160.02" y1="104.76" x2="155.89" y2="91.17"></line><line class="link backbone" x1="174.83" y1="102.01" x2="160.02" y2="104.76"></line><line class="link basepair" x1="146.99" y1="110.71" x2="138.86" y2="98.23"></line><line class="link backbone" x1="160.02" y1="104.76" x2="146.99" y2="110.71"></line><line class="link backbone" x1="146.99" y1="110.71" x2="150.72" y2="125.22"></line><line class="link backbone" x1="150.72" y1="125.22" x2="149.46" y2="140.01"></line><line class="link backbone" x1="149.46" y1="140.01" x2="142.21" y2="152.87"></line><line class="link backbone" x1="142.21" y1="152.87" x2="130.17" y2="161.21"></line><line class="link backbone" x1="130.17" y1="161.21" x2="115.85" y2="164.29"></line><line class="link backbone" x1="115.85" y1="164.29" x2="101.58" y2="161.16"></line><line class="link label_link" x1="90.34" y1="120.34" x2="73.53" y2="115.62"></line><line class="link label_link" x1="18.90" y1="-1.48" x2="5.82" y2="6.95"></line><line class="link label_link" x1="34.91" y1="-20.48" x2="48.35" y2="-28.29"></line><line class="link label_link" x1="138.86" y1="98.23" x2="140.84" y2="82.75"></line><line class="link label_link" x1="205.09" y1="103.19" x2="206.27" y2="118.69"></line><line class="link label_link" x1="101.58" y1="161.16" x2="102.05" y2="176.91"></line><line class="link fake transparent" x1="20.58" y1="-16.76" x2="25.56" y2="-26.31"></line><line class="link fake transparent" x1="20.58" y1="-16.76" x2="29.75" y2="-36.27"></line><line class="link fake transparent" x1="16.06" y1="-31.53" x2="25.56" y2="-26.31"></line><line class="link fake transparent" x1="29.75" y1="-36.27" x2="25.56" y2="-26.31"></line><line class="link fake transparent" x1="34.91" y1="-20.48" x2="25.56" y2="-26.31"></line><line class="link fake transparent" x1="16.06" y1="-31.53" x2="20.22" y2="-41.47"></line><line class="link fake transparent" x1="10.45" y1="-46.16" x2="20.22" y2="-41.47"></line><line class="link fake transparent" x1="24.33" y1="-51.46" x2="20.22" y2="-41.47"></line><line class="link fake transparent" x1="29.75" y1="-36.27" x2="20.22" y2="-41.47"></line><line class="link fake transparent" x1="77.58" y1="126.59" x2="78.10" y2="118.10"></line><line class="link fake transparent" x1="87.92" y1="132.42" x2="78.10" y2="118.10"></line><line class="link fake transparent" x1="90.34" y1="120.34" x2="78.10" y2="118.10"></line><line class="link fake transparent" x1="83.98" y1="110.26" x2="78.10" y2="118.10"></line><line class="link fake transparent" x1="87.92" y1="132.42" x2="79.15" y2="129.32"></line><line class="link fake transparent" x1="75.42" y1="138.23" x2="79.15" y2="129.32"></line><line class="link fake transparent" x1="67.07" y1="125.73" x2="79.15" y2="129.32"></line><line class="link fake transparent" x1="90.34" y1="120.34" x2="79.15" y2="129.32"></line><line class="link fake transparent" x1="138.86" y1="98.23" x2="150.02" y2="100.40"></line><line class="link fake transparent" x1="155.89" y1="91.17" x2="150.02" y2="100.40"></line><line class="link fake transparent" x1="160.02" y1="104.76" x2="150.02" y2="100.40"></line><line class="link fake transparent" x1="146.99" y1="110.71" x2="150.02" y2="100.40"></line><line class="link fake transparent" x1="155.89" y1="91.17" x2="165.91" y2="95.64"></line><line class="link fake transparent" x1="173.30" y1="87.68" x2="165.91" y2="95.64"></line><line class="link fake transparent" x1="174.83" y1="102.01" x2="165.91" y2="95.64"></line><line class="link fake transparent" x1="160.02" y1="104.76" x2="165.91" y2="95.64"></line><line class="link fake transparent" x1="173.30" y1="87.68" x2="182.19" y2="93.99"></line><line class="link fake transparent" x1="190.49" y1="87.13" x2="182.19" y2="93.99"></line><line class="link fake transparent" x1="189.99" y1="101.64" x2="182.19" y2="93.99"></line><line class="link fake transparent" x1="174.83" y1="102.01" x2="182.19" y2="93.99"></line><line class="link fake transparent" x1="190.49" y1="87.13" x2="198.27" y2="94.72"></line><line class="link fake transparent" x1="207.17" y1="88.69" x2="198.27" y2="94.72"></line><line class="link fake transparent" x1="205.09" y1="103.19" x2="198.27" y2="94.72"></line><line class="link fake transparent" x1="189.99" y1="101.64" x2="198.27" y2="94.72"></line><line class="link fake transparent" x1="207.17" y1="88.69" x2="213.99" y2="97.12"></line><line class="link fake transparent" x1="223.08" y1="91.40" x2="213.99" y2="97.12"></line><line class="link fake transparent" x1="220.07" y1="106.10" x2="213.99" y2="97.12"></line><line class="link fake transparent" x1="205.09" y1="103.19" x2="213.99" y2="97.12"></line><line class="link fake transparent" x1="93.91" y1="98.48" x2="97.50" y2="87.73"></line><line class="link fake transparent" x1="87.57" y1="83.08" x2="97.50" y2="87.73"></line><line class="link fake transparent" x1="100.15" y1="77.09" x2="97.50" y2="87.73"></line><line class="link fake transparent" x1="107.80" y1="92.06" x2="97.50" y2="87.73"></line><line class="link fake transparent" x1="87.57" y1="83.08" x2="90.21" y2="72.37"></line><line class="link fake transparent" x1="80.03" y1="68.33" x2="90.21" y2="72.37"></line><line class="link fake transparent" x1="92.55" y1="61.66" x2="90.21" y2="72.37"></line><line class="link fake transparent" x1="100.15" y1="77.09" x2="90.21" y2="72.37"></line><line class="link fake transparent" x1="80.03" y1="68.33" x2="82.38" y2="57.60"></line><line class="link fake transparent" x1="71.98" y1="54.32" x2="82.38" y2="57.60"></line><line class="link fake transparent" x1="84.24" y1="46.85" x2="82.38" y2="57.60"></line><line class="link fake transparent" x1="92.55" y1="61.66" x2="82.38" y2="57.60"></line><line class="link fake transparent" x1="71.98" y1="54.32" x2="73.87" y2="43.59"></line><line class="link fake transparent" x1="63.29" y1="41.06" x2="73.87" y2="43.59"></line><line class="link fake transparent" x1="75.14" y1="32.80" x2="73.87" y2="43.59"></line><line class="link fake transparent" x1="84.24" y1="46.85" x2="73.87" y2="43.59"></line><line class="link fake transparent" x1="63.29" y1="41.06" x2="64.56" y2="30.34"></line><line class="link fake transparent" x1="53.86" y1="28.32" x2="64.56" y2="30.34"></line><line class="link fake transparent" x1="65.30" y1="19.47" x2="64.56" y2="30.34"></line><line class="link fake transparent" x1="75.14" y1="32.80" x2="64.56" y2="30.34"></line><line class="link fake transparent" x1="53.86" y1="28.32" x2="54.61" y2="17.47"></line><line class="link fake transparent" x1="43.85" y1="15.95" x2="54.61" y2="17.47"></line><line class="link fake transparent" x1="54.73" y1="6.54" x2="54.61" y2="17.47"></line><line class="link fake transparent" x1="65.30" y1="19.47" x2="54.61" y2="17.47"></line><line class="link fake transparent" x1="43.85" y1="15.95" x2="43.97" y2="5.08"></line><line class="link fake transparent" x1="33.15" y1="4.68" x2="43.97" y2="5.08"></line><line class="link fake transparent" x1="43.40" y1="-5.92" x2="43.97" y2="5.08"></line><line class="link fake transparent" x1="54.73" y1="6.54" x2="43.97" y2="5.08"></line><line class="link fake transparent" x1="77.58" y1="126.59" x2="115.80" y2="127.60"></line><line class="link fake transparent" x1="77.58" y1="126.59" x2="150.72" y2="125.22"></line><line class="link fake transparent" x1="83.98" y1="110.26" x2="115.80" y2="127.60"></line><line class="link fake transparent" x1="83.98" y1="110.26" x2="149.46" y2="140.01"></line><line class="link fake transparent" x1="93.91" y1="98.48" x2="115.80" y2="127.60"></line><line class="link fake transparent" x1="93.91" y1="98.48" x2="142.21" y2="152.87"></line><line class="link fake transparent" x1="107.80" y1="92.06" x2="115.80" y2="127.60"></line><line class="link fake transparent" x1="107.80" y1="92.06" x2="130.17" y2="161.21"></line><line class="link fake transparent" x1="123.53" y1="92.60" x2="115.80" y2="127.60"></line><line class="link fake transparent" x1="123.53" y1="92.60" x2="115.85" y2="164.29"></line><line class="link fake transparent" x1="138.86" y1="98.23" x2="115.80" y2="127.60"></line><line class="link fake transparent" x1="138.86" y1="98.23" x2="101.58" y2="161.16"></line><line class="link fake transparent" x1="146.99" y1="110.71" x2="115.80" y2="127.60"></line><line class="link fake transparent" x1="146.99" y1="110.71" x2="88.80" y2="154.63"></line><line class="link fake transparent" x1="150.72" y1="125.22" x2="115.80" y2="127.60"></line><line class="link fake transparent" x1="150.72" y1="125.22" x2="79.89" y2="142.67"></line><line class="link fake transparent" x1="149.46" y1="140.01" x2="115.80" y2="127.60"></line><line class="link fake transparent" x1="149.46" y1="140.01" x2="77.58" y2="126.59"></line><line class="link fake transparent" x1="142.21" y1="152.87" x2="115.80" y2="127.60"></line><line class="link fake transparent" x1="142.21" y1="152.87" x2="83.98" y2="110.26"></line><line class="link fake transparent" x1="130.17" y1="161.21" x2="115.80" y2="127.60"></line><line class="link fake transparent" x1="130.17" y1="161.21" x2="93.91" y2="98.48"></line><line class="link fake transparent" x1="115.85" y1="164.29" x2="115.80" y2="127.60"></line><line class="link fake transparent" x1="115.85" y1="164.29" x2="107.80" y2="92.06"></line><line class="link fake transparent" x1="101.58" y1="161.16" x2="115.80" y2="127.60"></line><line class="link fake transparent" x1="101.58" y1="161.16" x2="123.53" y2="92.60"></line><line class="link fake transparent" x1="10.45" y1="-46.16" x2="12.64" y2="-61.09"></line><line class="link fake transparent" x1="10.45" y1="-46.16" x2="14.87" y2="-76.02"></line><line class="link fake transparent" x1="-1.49" y1="-55.83" x2="12.64" y2="-61.09"></line><line class="link fake transparent" x1="-1.49" y1="-55.83" x2="26.61" y2="-66.72"></line><line class="link fake transparent" x1="0.90" y1="-70.59" x2="12.64" y2="-61.09"></line><line class="link fake transparent" x1="0.90" y1="-70.59" x2="24.33" y2="-51.46"></line><line class="link fake transparent" x1="14.87" y1="-76.02" x2="12.64" y2="-61.09"></line><line class="link fake transparent" x1="14.87" y1="-76.02" x2="10.45" y2="-46.16"></line><line class="link fake transparent" x1="26.61" y1="-66.72" x2="12.64" y2="-61.09"></line><line class="link fake transparent" x1="26.61" y1="-66.72" x2="-1.49" y2="-55.83"></line><line class="link fake transparent" x1="24.33" y1="-51.46" x2="12.64" y2="-61.09"></line><line class="link fake transparent" x1="24.33" y1="-51.46" x2="0.90" y2="-70.59"></line><line class="link fake transparent" x1="75.42" y1="138.23" x2="58.14" y2="141.07"></line><line class="link fake transparent" x1="75.42" y1="138.23" x2="43.52" y2="151.12"></line><line class="link fake transparent" x1="70.70" y1="153.21" x2="58.14" y2="141.07"></line><line class="link fake transparent" x1="70.70" y1="153.21" x2="41.21" y2="136.12"></line><line class="link fake transparent" x1="56.68" y1="158.69" x2="58.14" y2="141.07"></line><line class="link fake transparent" x1="56.68" y1="158.69" x2="51.37" y2="124.96"></line><line class="link fake transparent" x1="43.52" y1="151.12" x2="58.14" y2="141.07"></line><line class="link fake transparent" x1="43.52" y1="151.12" x2="67.07" y2="125.73"></line><line class="link fake transparent" x1="41.21" y1="136.12" x2="58.14" y2="141.07"></line><line class="link fake transparent" x1="41.21" y1="136.12" x2="75.42" y2="138.23"></line><line class="link fake transparent" x1="51.37" y1="124.96" x2="58.14" y2="141.07"></line><line class="link fake transparent" x1="51.37" y1="124.96" x2="70.70" y2="153.21"></line><line class="link fake transparent" x1="67.07" y1="125.73" x2="58.14" y2="141.07"></line><line class="link fake transparent" x1="67.07" y1="125.73" x2="56.68" y2="158.69"></line><line class="link fake transparent" x1="223.08" y1="91.40" x2="232.02" y2="101.01"></line><line class="link fake transparent" x1="223.08" y1="91.40" x2="244.84" y2="103.78"></line><line class="link fake transparent" x1="238.74" y1="89.77" x2="232.02" y2="101.01"></line><line class="link fake transparent" x1="238.74" y1="89.77" x2="233.53" y2="114.05"></line><line class="link fake transparent" x1="244.84" y1="103.78" x2="232.02" y2="101.01"></line><line class="link fake transparent" x1="244.84" y1="103.78" x2="220.07" y2="106.10"></line><line class="link fake transparent" x1="233.53" y1="114.05" x2="232.02" y2="101.01"></line><line class="link fake transparent" x1="233.53" y1="114.05" x2="223.08" y2="91.40"></line><line class="link fake transparent" x1="220.07" y1="106.10" x2="232.02" y2="101.01"></line><line class="link fake transparent" x1="220.07" y1="106.10" x2="238.74" y2="89.77"></line><line class="link fake transparent" x1="33.15" y1="4.68" x2="30.48" y2="-8.19"></line><line class="link fake transparent" x1="33.15" y1="4.68" x2="20.58" y2="-16.76"></line><line class="link fake transparent" x1="18.90" y1="-1.48" x2="30.48" y2="-8.19"></line><line class="link fake transparent" x1="18.90" y1="-1.48" x2="34.91" y2="-20.48"></line><line class="link fake transparent" x1="20.58" y1="-16.76" x2="30.48" y2="-8.19"></line><line class="link fake transparent" x1="20.58" y1="-16.76" x2="43.40" y2="-5.92"></line><line class="link fake transparent" x1="34.91" y1="-20.48" x2="30.48" y2="-8.19"></line><line class="link fake transparent" x1="34.91" y1="-20.48" x2="33.15" y2="4.68"></line><line class="link fake transparent" x1="43.40" y1="-5.92" x2="30.48" y2="-8.19"></line><line class="link fake transparent" x1="43.40" y1="-5.92" x2="18.90" y2="-1.48"></line></g><g><g class="noselect gnode" struct_name="m" transform="translate(77.58,126.59)" r="6.5"><circle class="node" r="6" node_type="nucleotide" style="fill: lightgreen;"></circle><text text-anchor="middle" font-size="8" font-weight="bold" y="2.5" class="node-label">U</text></g><g class="noselect gnode" struct_name="m" transform="translate(87.92,132.42)" r="6.5"><circle class="node" r="6" node_type="nucleotide" style="fill: lightgreen;"></circle><text text-anchor="middle" font-size="8" font-weight="bold" y="2.5" class="node-label">C</text></g><g class="noselect gnode" struct_name="m" transform="translate(75.42,138.23)" r="6.5"><circle class="node" r="6" node_type="nucleotide" style="fill: lightgreen;"></circle><text text-anchor="middle" font-size="8" font-weight="bold" y="2.5" class="node-label">C</text></g><g class="noselect gnode" struct_name="m" transform="translate(70.70,153.21)" r="6.5"><circle class="node" r="6" node_type="nucleotide" style="fill: lightblue;"></circle><text text-anchor="middle" font-size="8" font-weight="bold" y="2.5" class="node-label">A</text></g><g class="noselect gnode" struct_name="m" transform="translate(56.68,158.69)" r="6.5"><circle class="node" r="6" node_type="nucleotide" style="fill: lightblue;"></circle><text text-anchor="middle" font-size="8" font-weight="bold" y="2.5" class="node-label">A</text></g><g class="noselect gnode" struct_name="m" transform="translate(43.52,151.12)" r="6.5"><circle class="node" r="6" node_type="nucleotide" style="fill: lightblue;"></circle><text text-anchor="middle" font-size="8" font-weight="bold" y="2.5" class="node-label">A</text></g><g class="noselect gnode" struct_name="m" transform="translate(41.21,136.12)" r="6.5"><circle class="node" r="6" node_type="nucleotide" style="fill: lightblue;"></circle><text text-anchor="middle" font-size="8" font-weight="bold" y="2.5" class="node-label">A</text></g><g class="noselect gnode" struct_name="m" transform="translate(51.37,124.96)" r="6.5"><circle class="node" r="6" node_type="nucleotide" style="fill: lightblue;"></circle><text text-anchor="middle" font-size="8" font-weight="bold" y="2.5" class="node-label">A</text></g><g class="noselect gnode" struct_name="m" transform="translate(67.07,125.73)" r="6.5"><circle class="node" r="6" node_type="nucleotide" style="fill: lightgreen;"></circle><text text-anchor="middle" font-size="8" font-weight="bold" y="2.5" class="node-label">G</text></g><g class="noselect gnode" struct_name="m" transform="translate(90.34,120.34)" r="6.5"><circle class="node" r="6" node_type="nucleotide" style="fill: lightgreen;"></circle><text text-anchor="middle" font-size="8" font-weight="bold" y="2.5" class="node-label">G</text></g><g class="noselect gnode" struct_name="m" transform="translate(83.98,110.26)" r="6.5"><circle class="node" r="6" node_type="nucleotide" style="fill: lightgreen;"></circle><text text-anchor="middle" font-size="8" font-weight="bold" y="2.5" class="node-label">A</text></g><g class="noselect gnode" struct_name="m" transform="translate(93.91,98.48)" r="6.5"><circle class="node" r="6" node_type="nucleotide" style="fill: lightgreen;"></circle><text text-anchor="middle" font-size="8" font-weight="bold" y="2.5" class="node-label">G</text></g><g class="noselect gnode" struct_name="m" transform="translate(87.57,83.08)" r="6.5"><circle class="node" r="6" node_type="nucleotide" style="fill: lightgreen;"></circle><text text-anchor="middle" font-size="8" font-weight="bold" y="2.5" class="node-label">A</text></g><g class="noselect gnode" struct_name="m" transform="translate(80.03,68.33)" r="6.5"><circle class="node" r="6" node_type="nucleotide" style="fill: lightgreen;"></circle><text text-anchor="middle" font-size="8" font-weight="bold" y="2.5" class="node-label">U</text></g><g class="noselect gnode" struct_name="m" transform="translate(71.98,54.32)" r="6.5"><circle class="node" r="6" node_type="nucleotide" style="fill: lightgreen;"></circle><text text-anchor="middle" font-size="8" font-weight="bold" y="2.5" class="node-label">G</text></g><g class="noselect gnode" struct_name="m" transform="translate(63.29,41.06)" r="6.5"><circle class="node" r="6" node_type="nucleotide" style="fill: lightgreen;"></circle><text text-anchor="middle" font-size="8" font-weight="bold" y="2.5" class="node-label">G</text></g><g class="noselect gnode" struct_name="m" transform="translate(53.86,28.32)" r="6.5"><circle class="node" r="6" node_type="nucleotide" style="fill: lightgreen;"></circle><text text-anchor="middle" font-size="8" font-weight="bold" y="2.5" class="node-label">A</text></g><g class="noselect gnode" struct_name="m" transform="translate(43.85,15.95)" r="6.5"><circle class="node" r="6" node_type="nucleotide" style="fill: lightgreen;"></circle><text text-anchor="middle" font-size="8" font-weight="bold" y="2.5" class="node-label">U</text></g><g class="noselect gnode" struct_name="m" transform="translate(33.15,4.68)" r="6.5"><circle class="node" r="6" node_type="nucleotide" style="fill: lightgreen;"></circle><text text-anchor="middle" font-size="8" font-weight="bold" y="2.5" class="node-label">U</text></g><g class="noselect gnode" struct_name="m" transform="translate(18.90,-1.48)" r="6.5"><circle class="node" r="6" node_type="nucleotide" style="fill: rgb(219, 219, 141);"></circle><text text-anchor="middle" font-size="8" font-weight="bold" y="2.5" class="node-label">A</text></g><g class="noselect gnode" struct_name="m" transform="translate(20.58,-16.76)" r="6.5"><circle class="node" r="6" node_type="nucleotide" style="fill: lightgreen;"></circle><text text-anchor="middle" font-size="8" font-weight="bold" y="2.5" class="node-label">C</text></g><g class="noselect gnode" struct_name="m" transform="translate(16.06,-31.53)" r="6.5"><circle class="node" r="6" node_type="nucleotide" style="fill: lightgreen;"></circle><text text-anchor="middle" font-size="8" font-weight="bold" y="2.5" class="node-label">U</text></g><g class="noselect gnode" struct_name="m" transform="translate(10.45,-46.16)" r="6.5"><circle class="node" r="6" node_type="nucleotide" style="fill: lightgreen;"></circle><text text-anchor="middle" font-size="8" font-weight="bold" y="2.5" class="node-label">C</text></g><g class="noselect gnode" struct_name="m" transform="translate(-1.49,-55.83)" r="6.5"><circle class="node" r="6" node_type="nucleotide" style="fill: lightblue;"></circle><text text-anchor="middle" font-size="8" font-weight="bold" y="2.5" class="node-label">G</text></g><g class="noselect gnode" struct_name="m" transform="translate(0.90,-70.59)" r="6.5"><circle class="node" r="6" node_type="nucleotide" style="fill: lightblue;"></circle><text text-anchor="middle" font-size="8" font-weight="bold" y="2.5" class="node-label">C</text></g><g class="noselect gnode" struct_name="m" transform="translate(14.87,-76.02)" r="6.5"><circle class="node" r="6" node_type="nucleotide" style="fill: lightblue;"></circle><text text-anchor="middle" font-size="8" font-weight="bold" y="2.5" class="node-label">A</text></g><g class="noselect gnode" struct_name="m" transform="translate(26.61,-66.72)" r="6.5"><circle class="node" r="6" node_type="nucleotide" style="fill: lightblue;"></circle><text text-anchor="middle" font-size="8" font-weight="bold" y="2.5" class="node-label">G</text></g><g class="noselect gnode" struct_name="m" transform="translate(24.33,-51.46)" r="6.5"><circle class="node" r="6" node_type="nucleotide" style="fill: lightgreen;"></circle><text text-anchor="middle" font-size="8" font-weight="bold" y="2.5" class="node-label">G</text></g><g class="noselect gnode" struct_name="m" transform="translate(29.75,-36.27)" r="6.5"><circle class="node" r="6" node_type="nucleotide" style="fill: lightgreen;"></circle><text text-anchor="middle" font-size="8" font-weight="bold" y="2.5" class="node-label">A</text></g><g class="noselect gnode" struct_name="m" transform="translate(34.91,-20.48)" r="6.5"><circle class="node" r="6" node_type="nucleotide" style="fill: lightgreen;"></circle><text text-anchor="middle" font-size="8" font-weight="bold" y="2.5" class="node-label">G</text></g><g class="noselect gnode" struct_name="m" transform="translate(43.40,-5.92)" r="6.5"><circle class="node" r="6" node_type="nucleotide" style="fill: lightgreen;"></circle><text text-anchor="middle" font-size="8" font-weight="bold" y="2.5" class="node-label">G</text></g><g class="noselect gnode" struct_name="m" transform="translate(54.73,6.54)" r="6.5"><circle class="node" r="6" node_type="nucleotide" style="fill: lightgreen;"></circle><text text-anchor="middle" font-size="8" font-weight="bold" y="2.5" class="node-label">A</text></g><g class="noselect gnode" struct_name="m" transform="translate(65.30,19.47)" r="6.5"><circle class="node" r="6" node_type="nucleotide" style="fill: lightgreen;"></circle><text text-anchor="middle" font-size="8" font-weight="bold" y="2.5" class="node-label">U</text></g><g class="noselect gnode" struct_name="m" transform="translate(75.14,32.80)" r="6.5"><circle class="node" r="6" node_type="nucleotide" style="fill: lightgreen;"></circle><text text-anchor="middle" font-size="8" font-weight="bold" y="2.5" class="node-label">C</text></g><g class="noselect gnode" struct_name="m" transform="translate(84.24,46.85)" r="6.5"><circle class="node" r="6" node_type="nucleotide" style="fill: lightgreen;"></circle><text text-anchor="middle" font-size="8" font-weight="bold" y="2.5" class="node-label">C</text></g><g class="noselect gnode" struct_name="m" transform="translate(92.55,61.66)" r="6.5"><circle class="node" r="6" node_type="nucleotide" style="fill: lightgreen;"></circle><text text-anchor="middle" font-size="8" font-weight="bold" y="2.5" class="node-label">A</text></g><g class="noselect gnode" struct_name="m" transform="translate(100.15,77.09)" r="6.5"><circle class="node" r="6" node_type="nucleotide" style="fill: lightgreen;"></circle><text text-anchor="middle" font-size="8" font-weight="bold" y="2.5" class="node-label">U</text></g><g class="noselect gnode" struct_name="m" transform="translate(107.80,92.06)" r="6.5"><circle class="node" r="6" node_type="nucleotide" style="fill: lightgreen;"></circle><text text-anchor="middle" font-size="8" font-weight="bold" y="2.5" class="node-label">U</text></g><g class="noselect gnode" struct_name="m" transform="translate(123.53,92.60)" r="6.5"><circle class="node" r="6" node_type="nucleotide" style="fill: lightsalmon;"></circle><text text-anchor="middle" font-size="8" font-weight="bold" y="2.5" class="node-label">U</text></g><g class="noselect gnode" struct_name="m" transform="translate(138.86,98.23)" r="6.5"><circle class="node" r="6" node_type="nucleotide" style="fill: lightgreen;"></circle><text text-anchor="middle" font-size="8" font-weight="bold" y="2.5" class="node-label">A</text></g><g class="noselect gnode" struct_name="m" transform="translate(155.89,91.17)" r="6.5"><circle class="node" r="6" node_type="nucleotide" style="fill: lightgreen;"></circle><text text-anchor="middle" font-size="8" font-weight="bold" y="2.5" class="node-label">U</text></g><g class="noselect gnode" struct_name="m" transform="translate(173.30,87.68)" r="6.5"><circle class="node" r="6" node_type="nucleotide" style="fill: lightgreen;"></circle><text text-anchor="middle" font-size="8" font-weight="bold" y="2.5" class="node-label">C</text></g><g class="noselect gnode" struct_name="m" transform="translate(190.49,87.13)" r="6.5"><circle class="node" r="6" node_type="nucleotide" style="fill: lightgreen;"></circle><text text-anchor="middle" font-size="8" font-weight="bold" y="2.5" class="node-label">C</text></g><g class="noselect gnode" struct_name="m" transform="translate(207.17,88.69)" r="6.5"><circle class="node" r="6" node_type="nucleotide" style="fill: lightgreen;"></circle><text text-anchor="middle" font-size="8" font-weight="bold" y="2.5" class="node-label">G</text></g><g class="noselect gnode" struct_name="m" transform="translate(223.08,91.40)" r="6.5"><circle class="node" r="6" node_type="nucleotide" style="fill: lightgreen;"></circle><text text-anchor="middle" font-size="8" font-weight="bold" y="2.5" class="node-label">G</text></g><g class="noselect gnode" struct_name="m" transform="translate(238.74,89.77)" r="6.5"><circle class="node" r="6" node_type="nucleotide" style="fill: lightblue;"></circle><text text-anchor="middle" font-size="8" font-weight="bold" y="2.5" class="node-label">A</text></g><g class="noselect gnode" struct_name="m" transform="translate(244.84,103.78)" r="6.5"><circle class="node" r="6" node_type="nucleotide" style="fill: lightblue;"></circle><text text-anchor="middle" font-size="8" font-weight="bold" y="2.5" class="node-label">A</text></g><g class="noselect gnode" struct_name="m" transform="translate(233.53,114.05)" r="6.5"><circle class="node" r="6" node_type="nucleotide" style="fill: lightblue;"></circle><text text-anchor="middle" font-size="8" font-weight="bold" y="2.5" class="node-label">A</text></g><g class="noselect gnode" struct_name="m" transform="translate(220.07,106.10)" r="6.5"><circle class="node" r="6" node_type="nucleotide" style="fill: lightgreen;"></circle><text text-anchor="middle" font-size="8" font-weight="bold" y="2.5" class="node-label">C</text></g><g class="noselect gnode" struct_name="m" transform="translate(205.09,103.19)" r="6.5"><circle class="node" r="6" node_type="nucleotide" style="fill: lightgreen;"></circle><text text-anchor="middle" font-size="8" font-weight="bold" y="2.5" class="node-label">C</text></g><g class="noselect gnode" struct_name="m" transform="translate(189.99,101.64)" r="6.5"><circle class="node" r="6" node_type="nucleotide" style="fill: lightgreen;"></circle><text text-anchor="middle" font-size="8" font-weight="bold" y="2.5" class="node-label">G</text></g><g class="noselect gnode" struct_name="m" transform="translate(174.83,102.01)" r="6.5"><circle class="node" r="6" node_type="nucleotide" style="fill: lightgreen;"></circle><text text-anchor="middle" font-size="8" font-weight="bold" y="2.5" class="node-label">G</text></g><g class="noselect gnode" struct_name="m" transform="translate(160.02,104.76)" r="6.5"><circle class="node" r="6" node_type="nucleotide" style="fill: lightgreen;"></circle><text text-anchor="middle" font-size="8" font-weight="bold" y="2.5" class="node-label">A</text></g><g class="noselect gnode" struct_name="m" transform="translate(146.99,110.71)" r="6.5"><circle class="node" r="6" node_type="nucleotide" style="fill: lightgreen;"></circle><text text-anchor="middle" font-size="8" font-weight="bold" y="2.5" class="node-label">U</text></g><g class="noselect gnode" struct_name="m" transform="translate(150.72,125.22)" r="6.5"><circle class="node" r="6" node_type="nucleotide" style="fill: lightsalmon;"></circle><text text-anchor="middle" font-size="8" font-weight="bold" y="2.5" class="node-label">C</text></g><g class="noselect gnode" struct_name="m" transform="translate(149.46,140.01)" r="6.5"><circle class="node" r="6" node_type="nucleotide" style="fill: lightsalmon;"></circle><text text-anchor="middle" font-size="8" font-weight="bold" y="2.5" class="node-label">A</text></g><g class="noselect gnode" struct_name="m" transform="translate(142.21,152.87)" r="6.5"><circle class="node" r="6" node_type="nucleotide" style="fill: lightsalmon;"></circle><text text-anchor="middle" font-size="8" font-weight="bold" y="2.5" class="node-label">U</text></g><g class="noselect gnode" struct_name="m" transform="translate(130.17,161.21)" r="6.5"><circle class="node" r="6" node_type="nucleotide" style="fill: lightsalmon;"></circle><text text-anchor="middle" font-size="8" font-weight="bold" y="2.5" class="node-label">U</text></g><g class="noselect gnode" struct_name="m" transform="translate(115.85,164.29)" r="6.5"><circle class="node" r="6" node_type="nucleotide" style="fill: lightsalmon;"></circle><text text-anchor="middle" font-size="8" font-weight="bold" y="2.5" class="node-label">G</text></g><g class="noselect gnode" struct_name="m" transform="translate(101.58,161.16)" r="6.5"><circle class="node" r="6" node_type="nucleotide" style="fill: lightsalmon;"></circle><text text-anchor="middle" font-size="8" font-weight="bold" y="2.5" class="node-label">U</text></g><g class="noselect gnode" struct_name="m" transform="translate(73.53,115.62)" r="6.5"><circle class="node label" r="6" node_type="label"></circle><text text-anchor="middle" font-size="8" font-weight="bold" y="2.5" class="node-label">10</text></g><g class="noselect gnode" struct_name="m" transform="translate(5.82,6.95)" r="6.5"><circle class="node label" r="6" node_type="label"></circle><text text-anchor="middle" font-size="8" font-weight="bold" y="2.5" class="node-label">20</text></g><g class="noselect gnode" struct_name="m" transform="translate(48.35,-28.29)" r="6.5"><circle class="node label" r="6" node_type="label"></circle><text text-anchor="middle" font-size="8" font-weight="bold" y="2.5" class="node-label">30</text></g><g class="noselect gnode" struct_name="m" transform="translate(140.84,82.75)" r="6.5"><circle class="node label" r="6" node_type="label"></circle><text text-anchor="middle" font-size="8" font-weight="bold" y="2.5" class="node-label">40</text></g><g class="noselect gnode" struct_name="m" transform="translate(206.27,118.69)" r="6.5"><circle class="node label" r="6" node_type="label"></circle><text text-anchor="middle" font-size="8" font-weight="bold" y="2.5" class="node-label">50</text></g><g class="noselect gnode" struct_name="m" transform="translate(102.05,176.91)" r="6.5"><circle class="node label" r="6" node_type="label"></circle><text text-anchor="middle" font-size="8" font-weight="bold" y="2.5" class="node-label">60</text></g><g class="noselect gnode" transform="translate(25.56,-26.31)" r="6.5"><circle class="node" r="0" node_type="middle"></circle><text text-anchor="middle" font-size="8" font-weight="bold" y="2.5" class="node-label"></text></g><g class="noselect gnode" transform="translate(20.22,-41.47)" r="6.5"><circle class="node" r="0" node_type="middle"></circle><text text-anchor="middle" font-size="8" font-weight="bold" y="2.5" class="node-label"></text></g><g class="noselect gnode" transform="translate(78.10,118.10)" r="6.5"><circle class="node" r="0" node_type="middle"></circle><text text-anchor="middle" font-size="8" font-weight="bold" y="2.5" class="node-label"></text></g><g class="noselect gnode" transform="translate(79.15,129.32)" r="6.5"><circle class="node" r="0" node_type="middle"></circle><text text-anchor="middle" font-size="8" font-weight="bold" y="2.5" class="node-label"></text></g><g class="noselect gnode" transform="translate(150.02,100.40)" r="6.5"><circle class="node" r="0" node_type="middle"></circle><text text-anchor="middle" font-size="8" font-weight="bold" y="2.5" class="node-label"></text></g><g class="noselect gnode" transform="translate(165.91,95.64)" r="6.5"><circle class="node" r="0" node_type="middle"></circle><text text-anchor="middle" font-size="8" font-weight="bold" y="2.5" class="node-label"></text></g><g class="noselect gnode" transform="translate(182.19,93.99)" r="6.5"><circle class="node" r="0" node_type="middle"></circle><text text-anchor="middle" font-size="8" font-weight="bold" y="2.5" class="node-label"></text></g><g class="noselect gnode" transform="translate(198.27,94.72)" r="6.5"><circle class="node" r="0" node_type="middle"></circle><text text-anchor="middle" font-size="8" font-weight="bold" y="2.5" class="node-label"></text></g><g class="noselect gnode" transform="translate(213.99,97.12)" r="6.5"><circle class="node" r="0" node_type="middle"></circle><text text-anchor="middle" font-size="8" font-weight="bold" y="2.5" class="node-label"></text></g><g class="noselect gnode" transform="translate(97.50,87.73)" r="6.5"><circle class="node" r="0" node_type="middle"></circle><text text-anchor="middle" font-size="8" font-weight="bold" y="2.5" class="node-label"></text></g><g class="noselect gnode" transform="translate(90.21,72.37)" r="6.5"><circle class="node" r="0" node_type="middle"></circle><text text-anchor="middle" font-size="8" font-weight="bold" y="2.5" class="node-label"></text></g><g class="noselect gnode" transform="translate(82.38,57.60)" r="6.5"><circle class="node" r="0" node_type="middle"></circle><text text-anchor="middle" font-size="8" font-weight="bold" y="2.5" class="node-label"></text></g><g class="noselect gnode" transform="translate(73.87,43.59)" r="6.5"><circle class="node" r="0" node_type="middle"></circle><text text-anchor="middle" font-size="8" font-weight="bold" y="2.5" class="node-label"></text></g><g class="noselect gnode" transform="translate(64.56,30.34)" r="6.5"><circle class="node" r="0" node_type="middle"></circle><text text-anchor="middle" font-size="8" font-weight="bold" y="2.5" class="node-label"></text></g><g class="noselect gnode" transform="translate(54.61,17.47)" r="6.5"><circle class="node" r="0" node_type="middle"></circle><text text-anchor="middle" font-size="8" font-weight="bold" y="2.5" class="node-label"></text></g><g class="noselect gnode" transform="translate(43.97,5.08)" r="6.5"><circle class="node" r="0" node_type="middle"></circle><text text-anchor="middle" font-size="8" font-weight="bold" y="2.5" class="node-label"></text></g><g class="noselect gnode" transform="translate(88.80,154.63)" r="6.5"><circle class="node" r="0" node_type="middle"></circle><text text-anchor="middle" font-size="8" font-weight="bold" y="2.5" class="node-label"></text></g><g class="noselect gnode" transform="translate(79.89,142.67)" r="6.5"><circle class="node" r="0" node_type="middle"></circle><text text-anchor="middle" font-size="8" font-weight="bold" y="2.5" class="node-label"></text></g><g class="noselect gnode" transform="translate(115.80,127.60)" r="6.5"><circle class="node" r="0" node_type="middle"></circle><text text-anchor="middle" font-size="8" font-weight="bold" y="2.5" class="node-label"></text></g><g class="noselect gnode" transform="translate(12.64,-61.09)" r="6.5"><circle class="node" r="0" node_type="middle"></circle><text text-anchor="middle" font-size="8" font-weight="bold" y="2.5" class="node-label"></text></g><g class="noselect gnode" transform="translate(58.14,141.07)" r="6.5"><circle class="node" r="0" node_type="middle"></circle><text text-anchor="middle" font-size="8" font-weight="bold" y="2.5" class="node-label"></text></g><g class="noselect gnode" transform="translate(232.02,101.01)" r="6.5"><circle class="node" r="0" node_type="middle"></circle><text text-anchor="middle" font-size="8" font-weight="bold" y="2.5" class="node-label"></text></g><g class="noselect gnode" transform="translate(30.48,-8.19)" r="6.5"><circle class="node" r="0" node_type="middle"></circle><text text-anchor="middle" font-size="8" font-weight="bold" y="2.5" class="node-label"></text></g></g><line class="drag_line" x1="0" y1="0" x2="0" y2="0"></line></g></g></svg>