<svg xmlns="http://www.w3.org/2000/svg" viewBox="0 0 760 640" width="760" height="640"><style>svg {
  display: block;
  min-width: 100%;
  width: 100%;
  min-height: 100%;
}

circle.node {
  stroke: #ccc;
  stroke-width: 1px;
  opacity: 1;
  fill: white;
}

circle.node.label {
    stroke: transparent;
    stroke-width: 0;
    fill: white;
}

circle.outline_node {
    stroke-width: 1px;
    fill: red;
}

circle.protein {
    fill: gray;
    fill-opacity: 0.5;
    stroke-width: 4;
}

circle.hidden_outline {
    stroke-width: 0px;
}


line.link {
  stroke: #999;
  stroke-opacity: 0.8;
  stroke-width: 2;
}

line.basepair {
  stroke: red;
}

line.intermolecule {
  stroke: blue;
}

line.chain_chain {
  stroke-dasharray: 3,3;
}

line.fake {
  stroke: green;
}

.transparent {
    fill: transparent;
    stroke-width: 0;
    stroke-opacity: 0;
    opacity: 0;
    visibility: hidden;
}

.drag_line {
  stroke: #999;
  stroke-width: 2;
  pointer-events: none;
}

.drag_line_hidden {
  stroke: #999;
  stroke-width: 0;
  pointer-events: none;
}

.d3-tip {
    line-height: 1;
    font-weight: bold;
    padding: 6px;
    background: rgba(0, 0, 0, 0.6);
    color: #fff;
    border-radius: 4px;
    pointer-events: none;
          }

text.node-label {
    font-weight: bold;
    font-family: Tahoma, Geneva, sans-serif;
    color: rgb(100,100,100);
    pointer-events: none;
}

text {
    pointer-events: none;
}

g.gnode {

}

circle.outline_node.selected {
    visibility: visible;
}

circle.outline_node {
    visibility: hidden;
}

.brush .extent {
  fill-opacity: .1;
  stroke: #fff;
  shape-rendering: crispEdges;
}

.noselect {
    -webkit-touch-callout: none;
    -webkit-user-select: none;
    -khtml-user-select: none;
    -moz-user-select: none;
    -ms-user-select: none;
    user-select: none;
}

svg {
  display: block;
  min-width: 100%;
  width: 100%;
  min-height: 100%;
}

circle.node {
  stroke: #ccc;
  stroke-width: 1px;
  opacity: 1;
  fill: white;
}

circle.node.label {
    stroke: transparent;
    stroke-width: 0;
    fill: white;
}

circle.outline_node {
    stroke-width: 1px;
    fill: red;
}

circle.protein {
    fill: gray;
    fill-opacity: 0.5;
    stroke-width: 4;
}

circle.hidden_outline {
    stroke-width: 0px;
}


line.link {
  stroke: #999;
  stroke-opacity: 0.8;
  stroke-width: 2;
}

line.basepair {
  stroke: red;
}

line.intermolecule {
  stroke: blue;
}

line.chain_chain {
  stroke-dasharray: 3,3;
}

line.fake {
  stroke: green;
}

.transparent {
    fill: transparent;
    stroke-width: 0;
    stroke-opacity: 0;
    opacity: 0;
    visibility: hidden;
}

.drag_line {
  stroke: #999;
  stroke-width: 2;
  pointer-events: none;
}

.drag_line_hidden {
  stroke: #999;
  stroke-width: 0;
  pointer-events: none;
}

.d3-tip {
    line-height: 1;
    font-weight: bold;
    padding: 6px;
    background: rgba(0, 0, 0, 0.6);
    color: #fff;
    border-radius: 4px;
    pointer-events: none;
          }

text.node-label {
    font-weight: bold;
    font-family: Tahoma, Geneva, sans-serif;
    color: rgb(100,100,100);
    pointer-events: none;
}

text {
    pointer-events: none;
}

g.gnode {

}

circle.outline_node.selected {
    visibility: visible;
}

circle.outline_node {
    visibility: hidden;
}

.brush .extent {
  fill-opacity: .1;
  stroke: #fff;
  shape-rendering: crispEdges;
}

.noselect {
    -webkit-touch-callout: none;
    -webkit-user-select: none;
    -khtml-user-select: none;
    -moz-user-select: none;
    -ms-user-select: none;
    user-select: none;
}
/*# sourceURL=/Users/yumanakamura/ipy_sandbox/sandbox/claude_sandbox/mrna-transformer/scripts/eval/prerender/forna_vendor/fornac.css*/</style><style></style><g><g class="brush" style="pointer-events: all; -webkit-tap-highlight-color: rgba(0, 0, 0, 0);"><rect class="background" x="0" width="760" y="0" height="640" style="visibility: hidden; cursor: auto;"></rect><rect class="extent" x="0" width="0" y="0" height="0" style="cursor: move;"></rect><g class="resize n" transform="translate(0,0)" style="cursor: ns-resize; display: none;"><rect y="-3" width="0" height="6" style="visibility: hidden;"></rect></g><g class="resize e" transform="translate(0,0)" style="cursor: ew-resize; display: none;"><rect x="-3" width="6" height="0" style="visibility: hidden;"></rect></g><g class="resize s" transform="translate(0,0)" style="cursor: ns-resize; display: none;"><rect y="-3" width="0" height="6" style="visibility: hidden;"></rect></g><g class="resize w" transform="translate(0,0)" style="cursor: ew-resize; display: none;"><rect x="-3" width="6" height="0" style="visibility: hidden;"></rect></g><g class="resize nw" transform="translate(0,0)" style="cursor: nwse-resize; display: none;"><rect x="-3" y="-3" width="6" height="6" style="visibility: hidden;"></rect></g><g class="resize ne" transform="translate(0,0)" style="cursor: nesw-resize; display: none;"><rect x="-3" y="-3" width="6" height="6" style="visibility: hidden;"></rect></g><g class="resize se" transform="translate(0,0)" style="cursor: nwse-resize; display: none;"><rect x="-3" y="-3" width="6" height="6" style="visibility: hidden;"></rect></g><g class="resize sw" transform="translate(0,0)" style="cursor: nesw-resize; display: none;"><rect x="-3" y="-3" width="6" height="6" style="visibility: hidden;"></rect></g></g><g transform="translate(251.18,81.50) scale(1.40)"><g><line class="link backbone" x1="98.66" y1="320.79" x2="96.73" y2="305.93"></line><line class="link backbone" x1="96.73" y1="305.93" x2="99.80" y2="291.13"></line><line class="link backbone" x1="99.80" y1="291.13" x2="107.43" y2="278.14"></line><line class="link basepair" x1="118.88" y1="267.86" x2="132.91" y2="262.53"></line><line class="link backbone" x1="107.43" y1="278.14" x2="118.88" y2="267.86"></line><line class="link basepair" x1="113.60" y1="252.63" x2="127.40" y2="248.00"></line><line class="link backbone" x1="118.88" y1="267.86" x2="113.60" y2="252.63"></line><line class="link basepair" x1="108.80" y1="236.91" x2="122.90" y2="233.09"></line><line class="link backbone" x1="113.60" y1="252.63" x2="108.80" y2="236.91"></line><line class="link basepair" x1="104.97" y1="220.98" x2="119.23" y2="217.94"></line><line class="link backbone" x1="108.80" y1="236.91" x2="104.97" y2="220.98"></line><line class="link basepair" x1="101.82" y1="205.02" x2="116.58" y2="202.71"></line><line class="link backbone" x1="104.97" y1="220.98" x2="101.82" y2="205.02"></line><line class="link backbone" x1="101.82" y1="205.02" x2="90.53" y2="194.26"></line><line class="link basepair" x1="91.76" y1="178.66" x2="104.25" y2="170.49"></line><line class="link backbone" x1="90.53" y1="194.26" x2="91.76" y2="178.66"></line><line class="link basepair" x1="83.37" y1="164.76" x2="95.77" y2="157.24"></line><line class="link backbone" x1="91.76" y1="178.66" x2="83.37" y2="164.76"></line><line class="link basepair" x1="75.03" y1="150.96" x2="87.58" y2="143.45"></line><line class="link backbone" x1="83.37" y1="164.76" x2="75.03" y2="150.96"></line><line class="link basepair" x1="66.85" y1="137.36" x2="79.33" y2="129.73"></line><line class="link backbone" x1="75.03" y1="150.96" x2="66.85" y2="137.36"></line><line class="link basepair" x1="58.53" y1="124.00" x2="70.72" y2="115.98"></line><line class="link backbone" x1="66.85" y1="137.36" x2="58.53" y2="124.00"></line><line class="link basepair" x1="49.67" y1="111.59" x2="61.35" y2="102.38"></line><line class="link backbone" x1="58.53" y1="124.00" x2="49.67" y2="111.59"></line><line class="link backbone" x1="49.67" y1="111.59" x2="36.54" y2="103.62"></line><line class="link basepair" x1="40.25" y1="88.72" x2="55.08" y2="86.92"></line><line class="link backbone" x1="36.54" y1="103.62" x2="40.25" y2="88.72"></line><line class="link backbone" x1="40.25" y1="88.72" x2="30.79" y2="77.13"></line><line class="link basepair" x1="36.27" y1="63.02" x2="50.73" y2="60.28"></line><line class="link backbone" x1="30.79" y1="77.13" x2="36.27" y2="63.02"></line><line class="link basepair" x1="32.81" y1="48.00" x2="46.78" y2="44.10"></line><line class="link backbone" x1="36.27" y1="63.02" x2="32.81" y2="48.00"></line><line class="link basepair" x1="27.89" y1="33.49" x2="41.98" y2="28.41"></line><line class="link backbone" x1="32.81" y1="48.00" x2="27.89" y2="33.49"></line><line class="link backbone" x1="27.89" y1="33.49" x2="12.86" y2="30.21"></line><line class="link backbone" x1="12.86" y1="30.21" x2="2.07" y2="19.72"></line><line class="link backbone" x1="2.07" y1="19.72" x2="-1.33" y2="4.95"></line><line class="link backbone" x1="-1.33" y1="4.95" x2="3.95" y2="-9.16"></line><line class="link backbone" x1="3.95" y1="-9.16" x2="15.94" y2="-18.26"></line><line class="link backbone" x1="15.94" y1="-18.26" x2="30.94" y2="-19.68"></line><line class="link backbone" x1="30.94" y1="-19.68" x2="44.31" y2="-12.65"></line><line class="link backbone" x1="44.31" y1="-12.65" x2="51.68" y2="0.68"></line><line class="link backbone" x1="51.68" y1="0.68" x2="50.82" y2="15.69"></line><line class="link basepair" x1="41.98" y1="28.41" x2="27.89" y2="33.49"></line><line class="link backbone" x1="50.82" y1="15.69" x2="41.98" y2="28.41"></line><line class="link basepair" x1="46.78" y1="44.10" x2="32.81" y2="48.00"></line><line class="link backbone" x1="41.98" y1="28.41" x2="46.78" y2="44.10"></line><line class="link basepair" x1="50.73" y1="60.28" x2="36.27" y2="63.02"></line><line class="link backbone" x1="46.78" y1="44.10" x2="50.73" y2="60.28"></line><line class="link backbone" x1="50.73" y1="60.28" x2="60.53" y2="72.35"></line><line class="link basepair" x1="55.08" y1="86.92" x2="40.25" y2="88.72"></line><line class="link backbone" x1="60.53" y1="72.35" x2="55.08" y2="86.92"></line><line class="link basepair" x1="61.35" y1="102.38" x2="49.67" y2="111.59"></line><line class="link backbone" x1="55.08" y1="86.92" x2="61.35" y2="102.38"></line><line class="link basepair" x1="70.72" y1="115.98" x2="58.53" y2="124.00"></line><line class="link backbone" x1="61.35" y1="102.38" x2="70.72" y2="115.98"></line><line class="link basepair" x1="79.33" y1="129.73" x2="66.85" y2="137.36"></line><line class="link backbone" x1="70.72" y1="115.98" x2="79.33" y2="129.73"></line><line class="link basepair" x1="87.58" y1="143.45" x2="75.03" y2="150.96"></line><line class="link backbone" x1="79.33" y1="129.73" x2="87.58" y2="143.45"></line><line class="link basepair" x1="95.77" y1="157.24" x2="83.37" y2="164.76"></line><line class="link backbone" x1="87.58" y1="143.45" x2="95.77" y2="157.24"></line><line class="link basepair" x1="104.25" y1="170.49" x2="91.76" y2="178.66"></line><line class="link backbone" x1="95.77" y1="157.24" x2="104.25" y2="170.49"></line><line class="link backbone" x1="104.25" y1="170.49" x2="118.97" y2="175.27"></line><line class="link backbone" x1="118.97" y1="175.27" x2="124.37" y2="189.37"></line><line class="link basepair" x1="116.58" y1="202.71" x2="101.82" y2="205.02"></line><line class="link backbone" x1="124.37" y1="189.37" x2="116.58" y2="202.71"></line><line class="link basepair" x1="119.23" y1="217.94" x2="104.97" y2="220.98"></line><line class="link backbone" x1="116.58" y1="202.71" x2="119.23" y2="217.94"></line><line class="link basepair" x1="122.90" y1="233.09" x2="108.80" y2="236.91"></line><line class="link backbone" x1="119.23" y1="217.94" x2="122.90" y2="233.09"></line><line class="link basepair" x1="127.40" y1="248.00" x2="113.60" y2="252.63"></line><line class="link backbone" x1="122.90" y1="233.09" x2="127.40" y2="248.00"></line><line class="link basepair" x1="132.91" y1="262.53" x2="118.88" y2="267.86"></line><line class="link backbone" x1="127.40" y1="248.00" x2="132.91" y2="262.53"></line><line class="link backbone" x1="132.91" y1="262.53" x2="148.36" y2="262.23"></line><line class="link backbone" x1="148.36" y1="262.23" x2="162.86" y2="266.69"></line><line class="link backbone" x1="162.86" y1="266.69" x2="175.20" y2="275.57"></line><line class="link backbone" x1="175.20" y1="275.57" x2="183.80" y2="287.91"></line><line class="link backbone" x1="183.80" y1="287.91" x2="187.98" y2="302.35"></line><line class="link backbone" x1="187.98" y1="302.35" x2="187.22" y2="317.32"></line><line class="link backbone" x1="187.22" y1="317.32" x2="181.65" y2="331.24"></line><line class="link backbone" x1="181.65" y1="331.24" x2="171.74" y2="342.45"></line><line class="link backbone" x1="171.74" y1="342.45" x2="158.78" y2="349.95"></line><line class="link backbone" x1="158.78" y1="349.95" x2="144.13" y2="353.09"></line><line class="link backbone" x1="144.13" y1="353.09" x2="129.23" y2="351.32"></line><line class="link label_link" x1="90.53" y1="194.26" x2="76.61" y2="201.23"></line><line class="link label_link" x1="36.27" y1="63.02" x2="20.90" y2="65.45"></line><line class="link label_link" x1="51.68" y1="0.68" x2="64.87" y2="-7.38"></line><line class="link label_link" x1="87.58" y1="143.45" x2="100.83" y2="135.22"></line><line class="link label_link" x1="148.36" y1="262.23" x2="161.77" y2="254.46"></line><line class="link label_link" x1="129.23" y1="351.32" x2="123.07" y2="365.38"></line><line class="link fake transparent" x1="91.76" y1="178.66" x2="93.76" y2="167.93"></line><line class="link fake transparent" x1="91.76" y1="178.66" x2="95.77" y2="157.24"></line><line class="link fake transparent" x1="83.37" y1="164.76" x2="93.76" y2="167.93"></line><line class="link fake transparent" x1="95.77" y1="157.24" x2="93.76" y2="167.93"></line><line class="link fake transparent" x1="104.25" y1="170.49" x2="93.76" y2="167.93"></line><line class="link fake transparent" x1="83.37" y1="164.76" x2="85.40" y2="154.10"></line><line class="link fake transparent" x1="75.03" y1="150.96" x2="85.40" y2="154.10"></line><line class="link fake transparent" x1="87.58" y1="143.45" x2="85.40" y2="154.10"></line><line class="link fake transparent" x1="95.77" y1="157.24" x2="85.40" y2="154.10"></line><line class="link fake transparent" x1="75.03" y1="150.96" x2="77.20" y2="140.35"></line><line class="link fake transparent" x1="66.85" y1="137.36" x2="77.20" y2="140.35"></line><line class="link fake transparent" x1="79.33" y1="129.73" x2="77.20" y2="140.35"></line><line class="link fake transparent" x1="87.58" y1="143.45" x2="77.20" y2="140.35"></line><line class="link fake transparent" x1="66.85" y1="137.36" x2="68.94" y2="126.71"></line><line class="link fake transparent" x1="58.53" y1="124.00" x2="68.94" y2="126.71"></line><line class="link fake transparent" x1="70.72" y1="115.98" x2="68.94" y2="126.71"></line><line class="link fake transparent" x1="79.33" y1="129.73" x2="68.94" y2="126.71"></line><line class="link fake transparent" x1="58.53" y1="124.00" x2="60.28" y2="113.29"></line><line class="link fake transparent" x1="49.67" y1="111.59" x2="60.28" y2="113.29"></line><line class="link fake transparent" x1="61.35" y1="102.38" x2="60.28" y2="113.29"></line><line class="link fake transparent" x1="70.72" y1="115.98" x2="60.28" y2="113.29"></line><line class="link fake transparent" x1="36.27" y1="63.02" x2="41.98" y2="53.75"></line><line class="link fake transparent" x1="32.81" y1="48.00" x2="41.98" y2="53.75"></line><line class="link fake transparent" x1="46.78" y1="44.10" x2="41.98" y2="53.75"></line><line class="link fake transparent" x1="50.73" y1="60.28" x2="41.98" y2="53.75"></line><line class="link fake transparent" x1="32.81" y1="48.00" x2="37.61" y2="38.29"></line><line class="link fake transparent" x1="27.89" y1="33.49" x2="37.61" y2="38.29"></line><line class="link fake transparent" x1="41.98" y1="28.41" x2="37.61" y2="38.29"></line><line class="link fake transparent" x1="46.78" y1="44.10" x2="37.61" y2="38.29"></line><line class="link fake transparent" x1="118.88" y1="267.86" x2="123.08" y2="257.96"></line><line class="link fake transparent" x1="113.60" y1="252.63" x2="123.08" y2="257.96"></line><line class="link fake transparent" x1="127.40" y1="248.00" x2="123.08" y2="257.96"></line><line class="link fake transparent" x1="132.91" y1="262.53" x2="123.08" y2="257.96"></line><line class="link fake transparent" x1="113.60" y1="252.63" x2="117.92" y2="242.73"></line><line class="link fake transparent" x1="108.80" y1="236.91" x2="117.92" y2="242.73"></line><line class="link fake transparent" x1="122.90" y1="233.09" x2="117.92" y2="242.73"></line><line class="link fake transparent" x1="127.40" y1="248.00" x2="117.92" y2="242.73"></line><line class="link fake transparent" x1="108.80" y1="236.91" x2="113.76" y2="227.31"></line><line class="link fake transparent" x1="104.97" y1="220.98" x2="113.76" y2="227.31"></line><line class="link fake transparent" x1="119.23" y1="217.94" x2="113.76" y2="227.31"></line><line class="link fake transparent" x1="122.90" y1="233.09" x2="113.76" y2="227.31"></line><line class="link fake transparent" x1="104.97" y1="220.98" x2="110.44" y2="211.61"></line><line class="link fake transparent" x1="101.82" y1="205.02" x2="110.44" y2="211.61"></line><line class="link fake transparent" x1="116.58" y1="202.71" x2="110.44" y2="211.61"></line><line class="link fake transparent" x1="119.23" y1="217.94" x2="110.44" y2="211.61"></line><line class="link fake transparent" x1="98.66" y1="320.79" x2="142.45" y2="307.34"></line><line class="link fake transparent" x1="98.66" y1="320.79" x2="183.80" y2="287.91"></line><line class="link fake transparent" x1="96.73" y1="305.93" x2="142.45" y2="307.34"></line><line class="link fake transparent" x1="96.73" y1="305.93" x2="187.98" y2="302.35"></line><line class="link fake transparent" x1="99.80" y1="291.13" x2="142.45" y2="307.34"></line><line class="link fake transparent" x1="99.80" y1="291.13" x2="187.22" y2="317.32"></line><line class="link fake transparent" x1="107.43" y1="278.14" x2="142.45" y2="307.34"></line><line class="link fake transparent" x1="107.43" y1="278.14" x2="181.65" y2="331.24"></line><line class="link fake transparent" x1="118.88" y1="267.86" x2="142.45" y2="307.34"></line><line class="link fake transparent" x1="118.88" y1="267.86" x2="171.74" y2="342.45"></line><line class="link fake transparent" x1="132.91" y1="262.53" x2="142.45" y2="307.34"></line><line class="link fake transparent" x1="132.91" y1="262.53" x2="158.78" y2="349.95"></line><line class="link fake transparent" x1="148.36" y1="262.23" x2="142.45" y2="307.34"></line><line class="link fake transparent" x1="148.36" y1="262.23" x2="144.13" y2="353.09"></line><line class="link fake transparent" x1="162.86" y1="266.69" x2="142.45" y2="307.34"></line><line class="link fake transparent" x1="162.86" y1="266.69" x2="129.23" y2="351.32"></line><line class="link fake transparent" x1="175.20" y1="275.57" x2="142.45" y2="307.34"></line><line class="link fake transparent" x1="175.20" y1="275.57" x2="115.65" y2="345.07"></line><line class="link fake transparent" x1="183.80" y1="287.91" x2="142.45" y2="307.34"></line><line class="link fake transparent" x1="183.80" y1="287.91" x2="104.96" y2="334.47"></line><line class="link fake transparent" x1="187.98" y1="302.35" x2="142.45" y2="307.34"></line><line class="link fake transparent" x1="187.98" y1="302.35" x2="98.66" y2="320.79"></line><line class="link fake transparent" x1="187.22" y1="317.32" x2="142.45" y2="307.34"></line><line class="link fake transparent" x1="187.22" y1="317.32" x2="96.73" y2="305.93"></line><line class="link fake transparent" x1="181.65" y1="331.24" x2="142.45" y2="307.34"></line><line class="link fake transparent" x1="181.65" y1="331.24" x2="99.80" y2="291.13"></line><line class="link fake transparent" x1="171.74" y1="342.45" x2="142.45" y2="307.34"></line><line class="link fake transparent" x1="171.74" y1="342.45" x2="107.43" y2="278.14"></line><line class="link fake transparent" x1="158.78" y1="349.95" x2="142.45" y2="307.34"></line><line class="link fake transparent" x1="158.78" y1="349.95" x2="118.88" y2="267.86"></line><line class="link fake transparent" x1="144.13" y1="353.09" x2="142.45" y2="307.34"></line><line class="link fake transparent" x1="144.13" y1="353.09" x2="132.91" y2="262.53"></line><line class="link fake transparent" x1="129.23" y1="351.32" x2="142.45" y2="307.34"></line><line class="link fake transparent" x1="129.23" y1="351.32" x2="148.36" y2="262.23"></line><line class="link fake transparent" x1="27.89" y1="33.49" x2="25.65" y2="6.81"></line><line class="link fake transparent" x1="27.89" y1="33.49" x2="15.94" y2="-18.26"></line><line class="link fake transparent" x1="12.86" y1="30.21" x2="25.65" y2="6.81"></line><line class="link fake transparent" x1="12.86" y1="30.21" x2="30.94" y2="-19.68"></line><line class="link fake transparent" x1="2.07" y1="19.72" x2="25.65" y2="6.81"></line><line class="link fake transparent" x1="2.07" y1="19.72" x2="44.31" y2="-12.65"></line><line class="link fake transparent" x1="-1.33" y1="4.95" x2="25.65" y2="6.81"></line><line class="link fake transparent" x1="-1.33" y1="4.95" x2="51.68" y2="0.68"></line><line class="link fake transparent" x1="3.95" y1="-9.16" x2="25.65" y2="6.81"></line><line class="link fake transparent" x1="3.95" y1="-9.16" x2="50.82" y2="15.69"></line><line class="link fake transparent" x1="15.94" y1="-18.26" x2="25.65" y2="6.81"></line><line class="link fake transparent" x1="15.94" y1="-18.26" x2="41.98" y2="28.41"></line><line class="link fake transparent" x1="30.94" y1="-19.68" x2="25.65" y2="6.81"></line><line class="link fake transparent" x1="30.94" y1="-19.68" x2="27.89" y2="33.49"></line><line class="link fake transparent" x1="44.31" y1="-12.65" x2="25.65" y2="6.81"></line><line class="link fake transparent" x1="44.31" y1="-12.65" x2="12.86" y2="30.21"></line><line class="link fake transparent" x1="51.68" y1="0.68" x2="25.65" y2="6.81"></line><line class="link fake transparent" x1="51.68" y1="0.68" x2="2.07" y2="19.72"></line><line class="link fake transparent" x1="50.82" y1="15.69" x2="25.65" y2="6.81"></line><line class="link fake transparent" x1="50.82" y1="15.69" x2="-1.33" y2="4.95"></line><line class="link fake transparent" x1="41.98" y1="28.41" x2="25.65" y2="6.81"></line><line class="link fake transparent" x1="41.98" y1="28.41" x2="3.95" y2="-9.16"></line><line class="link fake transparent" x1="49.67" y1="111.59" x2="48.88" y2="98.53"></line><line class="link fake transparent" x1="49.67" y1="111.59" x2="40.25" y2="88.72"></line><line class="link fake transparent" x1="36.54" y1="103.62" x2="48.88" y2="98.53"></line><line class="link fake transparent" x1="36.54" y1="103.62" x2="55.08" y2="86.92"></line><line class="link fake transparent" x1="40.25" y1="88.72" x2="48.88" y2="98.53"></line><line class="link fake transparent" x1="40.25" y1="88.72" x2="61.35" y2="102.38"></line><line class="link fake transparent" x1="55.08" y1="86.92" x2="48.88" y2="98.53"></line><line class="link fake transparent" x1="55.08" y1="86.92" x2="49.67" y2="111.59"></line><line class="link fake transparent" x1="61.35" y1="102.38" x2="48.88" y2="98.53"></line><line class="link fake transparent" x1="61.35" y1="102.38" x2="36.54" y2="103.62"></line><line class="link fake transparent" x1="40.25" y1="88.72" x2="45.80" y2="74.72"></line><line class="link fake transparent" x1="40.25" y1="88.72" x2="50.73" y2="60.28"></line><line class="link fake transparent" x1="30.79" y1="77.13" x2="45.80" y2="74.72"></line><line class="link fake transparent" x1="30.79" y1="77.13" x2="60.53" y2="72.35"></line><line class="link fake transparent" x1="36.27" y1="63.02" x2="45.80" y2="74.72"></line><line class="link fake transparent" x1="36.27" y1="63.02" x2="55.08" y2="86.92"></line><line class="link fake transparent" x1="50.73" y1="60.28" x2="45.80" y2="74.72"></line><line class="link fake transparent" x1="50.73" y1="60.28" x2="40.25" y2="88.72"></line><line class="link fake transparent" x1="60.53" y1="72.35" x2="45.80" y2="74.72"></line><line class="link fake transparent" x1="60.53" y1="72.35" x2="30.79" y2="77.13"></line><line class="link fake transparent" x1="55.08" y1="86.92" x2="45.80" y2="74.72"></line><line class="link fake transparent" x1="55.08" y1="86.92" x2="36.27" y2="63.02"></line><line class="link fake transparent" x1="101.82" y1="205.02" x2="106.78" y2="188.01"></line><line class="link fake transparent" x1="101.82" y1="205.02" x2="104.25" y2="170.49"></line><line class="link fake transparent" x1="90.53" y1="194.26" x2="106.78" y2="188.01"></line><line class="link fake transparent" x1="90.53" y1="194.26" x2="118.97" y2="175.27"></line><line class="link fake transparent" x1="91.76" y1="178.66" x2="106.78" y2="188.01"></line><line class="link fake transparent" x1="91.76" y1="178.66" x2="124.37" y2="189.37"></line><line class="link fake transparent" x1="104.25" y1="170.49" x2="106.78" y2="188.01"></line><line class="link fake transparent" x1="104.25" y1="170.49" x2="116.58" y2="202.71"></line><line class="link fake transparent" x1="118.97" y1="175.27" x2="106.78" y2="188.01"></line><line class="link fake transparent" x1="118.97" y1="175.27" x2="101.82" y2="205.02"></line><line class="link fake transparent" x1="124.37" y1="189.37" x2="106.78" y2="188.01"></line><line class="link fake transparent" x1="124.37" y1="189.37" x2="90.53" y2="194.26"></line><line class="link fake transparent" x1="116.58" y1="202.71" x2="106.78" y2="188.01"></line><line class="link fake transparent" x1="116.58" y1="202.71" x2="91.76" y2="178.66"></line></g><g><g class="noselect gnode" struct_name="m" transform="translate(98.66,320.79)" r="6.5"><circle class="node" r="6" node_type="nucleotide" style="fill: lightsalmon;"></circle><text text-anchor="middle" font-size="8" font-weight="bold" y="2.5" class="node-label">A</text></g><g class="noselect gnode" struct_name="m" transform="translate(96.73,305.93)" r="6.5"><circle class="node" r="6" node_type="nucleotide" style="fill: lightsalmon;"></circle><text text-anchor="middle" font-size="8" font-weight="bold" y="2.5" class="node-label">A</text></g><g class="noselect gnode" struct_name="m" transform="translate(99.80,291.13)" r="6.5"><circle class="node" r="6" node_type="nucleotide" style="fill: lightsalmon;"></circle><text text-anchor="middle" font-size="8" font-weight="bold" y="2.5" class="node-label">U</text></g><g class="noselect gnode" struct_name="m" transform="translate(107.43,278.14)" r="6.5"><circle class="node" r="6" node_type="nucleotide" style="fill: lightsalmon;"></circle><text text-anchor="middle" font-size="8" font-weight="bold" y="2.5" class="node-label">A</text></g><g class="noselect gnode" struct_name="m" transform="translate(118.88,267.86)" r="6.5"><circle class="node" r="6" node_type="nucleotide" style="fill: lightgreen;"></circle><text text-anchor="middle" font-size="8" font-weight="bold" y="2.5" class="node-label">U</text></g><g class="noselect gnode" struct_name="m" transform="translate(113.60,252.63)" r="6.5"><circle class="node" r="6" node_type="nucleotide" style="fill: lightgreen;"></circle><text text-anchor="middle" font-size="8" font-weight="bold" y="2.5" class="node-label">C</text></g><g class="noselect gnode" struct_name="m" transform="translate(108.80,236.91)" r="6.5"><circle class="node" r="6" node_type="nucleotide" style="fill: lightgreen;"></circle><text text-anchor="middle" font-size="8" font-weight="bold" y="2.5" class="node-label">A</text></g><g class="noselect gnode" struct_name="m" transform="translate(104.97,220.98)" r="6.5"><circle class="node" r="6" node_type="nucleotide" style="fill: lightgreen;"></circle><text text-anchor="middle" font-size="8" font-weight="bold" y="2.5" class="node-label">U</text></g><g class="noselect gnode" struct_name="m" transform="translate(101.82,205.02)" r="6.5"><circle class="node" r="6" node_type="nucleotide" style="fill: lightgreen;"></circle><text text-anchor="middle" font-size="8" font-weight="bold" y="2.5" class="node-label">C</text></g><g class="noselect gnode" struct_name="m" transform="translate(90.53,194.26)" r="6.5"><circle class="node" r="6" node_type="nucleotide" style="fill: rgb(219, 219, 141);"></circle><text text-anchor="middle" font-size="8" font-weight="bold" y="2.5" class="node-label">C</text></g><g class="noselect gnode" struct_name="m" transform="translate(91.76,178.66)" r="6.5"><circle class="node" r="6" node_type="nucleotide" style="fill: lightgreen;"></circle><text text-anchor="middle" font-size="8" font-weight="bold" y="2.5" class="node-label">G</text></g><g class="noselect gnode" struct_name="m" transform="translate(83.37,164.76)" r="6.5"><circle class="node" r="6" node_type="nucleotide" style="fill: lightgreen;"></circle><text text-anchor="middle" font-size="8" font-weight="bold" y="2.5" class="node-label">G</text></g><g class="noselect gnode" struct_name="m" transform="translate(75.03,150.96)" r="6.5"><circle class="node" r="6" node_type="nucleotide" style="fill: lightgreen;"></circle><text text-anchor="middle" font-size="8" font-weight="bold" y="2.5" class="node-label">U</text></g><g class="noselect gnode" struct_name="m" transform="translate(66.85,137.36)" r="6.5"><circle class="node" r="6" node_type="nucleotide" style="fill: lightgreen;"></circle><text text-anchor="middle" font-size="8" font-weight="bold" y="2.5" class="node-label">G</text></g><g class="noselect gnode" struct_name="m" transform="translate(58.53,124.00)" r="6.5"><circle class="node" r="6" node_type="nucleotide" style="fill: lightgreen;"></circle><text text-anchor="middle" font-size="8" font-weight="bold" y="2.5" class="node-label">C</text></g><g class="noselect gnode" struct_name="m" transform="translate(49.67,111.59)" r="6.5"><circle class="node" r="6" node_type="nucleotide" style="fill: lightgreen;"></circle><text text-anchor="middle" font-size="8" font-weight="bold" y="2.5" class="node-label">C</text></g><g class="noselect gnode" struct_name="m" transform="translate(36.54,103.62)" r="6.5"><circle class="node" r="6" node_type="nucleotide" style="fill: rgb(219, 219, 141);"></circle><text text-anchor="middle" font-size="8" font-weight="bold" y="2.5" class="node-label">A</text></g><g class="noselect gnode" struct_name="m" transform="translate(40.25,88.72)" r="6.5"><circle class="node" r="6" node_type="nucleotide" style="fill: lightgreen;"></circle><text text-anchor="middle" font-size="8" font-weight="bold" y="2.5" class="node-label">C</text></g><g class="noselect gnode" struct_name="m" transform="translate(30.79,77.13)" r="6.5"><circle class="node" r="6" node_type="nucleotide" style="fill: rgb(219, 219, 141);"></circle><text text-anchor="middle" font-size="8" font-weight="bold" y="2.5" class="node-label">A</text></g><g class="noselect gnode" struct_name="m" transform="translate(36.27,63.02)" r="6.5"><circle class="node" r="6" node_type="nucleotide" style="fill: lightgreen;"></circle><text text-anchor="middle" font-size="8" font-weight="bold" y="2.5" class="node-label">U</text></g><g class="noselect gnode" struct_name="m" transform="translate(32.81,48.00)" r="6.5"><circle class="node" r="6" node_type="nucleotide" style="fill: lightgreen;"></circle><text text-anchor="middle" font-size="8" font-weight="bold" y="2.5" class="node-label">G</text></g><g class="noselect gnode" struct_name="m" transform="translate(27.89,33.49)" r="6.5"><circle class="node" r="6" node_type="nucleotide" style="fill: lightgreen;"></circle><text text-anchor="middle" font-size="8" font-weight="bold" y="2.5" class="node-label">G</text></g><g class="noselect gnode" struct_name="m" transform="translate(12.86,30.21)" r="6.5"><circle class="node" r="6" node_type="nucleotide" style="fill: lightblue;"></circle><text text-anchor="middle" font-size="8" font-weight="bold" y="2.5" class="node-label">G</text></g><g class="noselect gnode" struct_name="m" transform="translate(2.07,19.72)" r="6.5"><circle class="node" r="6" node_type="nucleotide" style="fill: lightblue;"></circle><text text-anchor="middle" font-size="8" font-weight="bold" y="2.5" class="node-label">U</text></g><g class="noselect gnode" struct_name="m" transform="translate(-1.33,4.95)" r="6.5"><circle class="node" r="6" node_type="nucleotide" style="fill: lightblue;"></circle><text text-anchor="middle" font-size="8" font-weight="bold" y="2.5" class="node-label">A</text></g><g class="noselect gnode" struct_name="m" transform="translate(3.95,-9.16)" r="6.5"><circle class="node" r="6" node_type="nucleotide" style="fill: lightblue;"></circle><text text-anchor="middle" font-size="8" font-weight="bold" y="2.5" class="node-label">A</text></g><g class="noselect gnode" struct_name="m" transform="translate(15.94,-18.26)" r="6.5"><circle class="node" r="6" node_type="nucleotide" style="fill: lightblue;"></circle><text text-anchor="middle" font-size="8" font-weight="bold" y="2.5" class="node-label">U</text></g><g class="noselect gnode" struct_name="m" transform="translate(30.94,-19.68)" r="6.5"><circle class="node" r="6" node_type="nucleotide" style="fill: lightblue;"></circle><text text-anchor="middle" font-size="8" font-weight="bold" y="2.5" class="node-label">A</text></g><g class="noselect gnode" struct_name="m" transform="translate(44.31,-12.65)" r="6.5"><circle class="node" r="6" node_type="nucleotide" style="fill: lightblue;"></circle><text text-anchor="middle" font-size="8" font-weight="bold" y="2.5" class="node-label">A</text></g><g class="noselect gnode" struct_name="m" transform="translate(51.68,0.68)" r="6.5"><circle class="node" r="6" node_type="nucleotide" style="fill: lightblue;"></circle><text text-anchor="middle" font-size="8" font-weight="bold" y="2.5" class="node-label">C</text></g><g class="noselect gnode" struct_name="m" transform="translate(50.82,15.69)" r="6.5"><circle class="node" r="6" node_type="nucleotide" style="fill: lightblue;"></circle><text text-anchor="middle" font-size="8" font-weight="bold" y="2.5" class="node-label">A</text></g><g class="noselect gnode" struct_name="m" transform="translate(41.98,28.41)" r="6.5"><circle class="node" r="6" node_type="nucleotide" style="fill: lightgreen;"></circle><text text-anchor="middle" font-size="8" font-weight="bold" y="2.5" class="node-label">C</text></g><g class="noselect gnode" struct_name="m" transform="translate(46.78,44.10)" r="6.5"><circle class="node" r="6" node_type="nucleotide" style="fill: lightgreen;"></circle><text text-anchor="middle" font-size="8" font-weight="bold" y="2.5" class="node-label">C</text></g><g class="noselect gnode" struct_name="m" transform="translate(50.73,60.28)" r="6.5"><circle class="node" r="6" node_type="nucleotide" style="fill: lightgreen;"></circle><text text-anchor="middle" font-size="8" font-weight="bold" y="2.5" class="node-label">A</text></g><g class="noselect gnode" struct_name="m" transform="translate(60.53,72.35)" r="6.5"><circle class="node" r="6" node_type="nucleotide" style="fill: rgb(219, 219, 141);"></circle><text text-anchor="middle" font-size="8" font-weight="bold" y="2.5" class="node-label">A</text></g><g class="noselect gnode" struct_name="m" transform="translate(55.08,86.92)" r="6.5"><circle class="node" r="6" node_type="nucleotide" style="fill: lightgreen;"></circle><text text-anchor="middle" font-size="8" font-weight="bold" y="2.5" class="node-label">G</text></g><g class="noselect gnode" struct_name="m" transform="translate(61.35,102.38)" r="6.5"><circle class="node" r="6" node_type="nucleotide" style="fill: lightgreen;"></circle><text text-anchor="middle" font-size="8" font-weight="bold" y="2.5" class="node-label">G</text></g><g class="noselect gnode" struct_name="m" transform="translate(70.72,115.98)" r="6.5"><circle class="node" r="6" node_type="nucleotide" style="fill: lightgreen;"></circle><text text-anchor="middle" font-size="8" font-weight="bold" y="2.5" class="node-label">G</text></g><g class="noselect gnode" struct_name="m" transform="translate(79.33,129.73)" r="6.5"><circle class="node" r="6" node_type="nucleotide" style="fill: lightgreen;"></circle><text text-anchor="middle" font-size="8" font-weight="bold" y="2.5" class="node-label">C</text></g><g class="noselect gnode" struct_name="m" transform="translate(87.58,143.45)" r="6.5"><circle class="node" r="6" node_type="nucleotide" style="fill: lightgreen;"></circle><text text-anchor="middle" font-size="8" font-weight="bold" y="2.5" class="node-label">G</text></g><g class="noselect gnode" struct_name="m" transform="translate(95.77,157.24)" r="6.5"><circle class="node" r="6" node_type="nucleotide" style="fill: lightgreen;"></circle><text text-anchor="middle" font-size="8" font-weight="bold" y="2.5" class="node-label">C</text></g><g class="noselect gnode" struct_name="m" transform="translate(104.25,170.49)" r="6.5"><circle class="node" r="6" node_type="nucleotide" style="fill: lightgreen;"></circle><text text-anchor="middle" font-size="8" font-weight="bold" y="2.5" class="node-label">C</text></g><g class="noselect gnode" struct_name="m" transform="translate(118.97,175.27)" r="6.5"><circle class="node" r="6" node_type="nucleotide" style="fill: rgb(219, 219, 141);"></circle><text text-anchor="middle" font-size="8" font-weight="bold" y="2.5" class="node-label">A</text></g><g class="noselect gnode" struct_name="m" transform="translate(124.37,189.37)" r="6.5"><circle class="node" r="6" node_type="nucleotide" style="fill: rgb(219, 219, 141);"></circle><text text-anchor="middle" font-size="8" font-weight="bold" y="2.5" class="node-label">C</text></g><g class="noselect gnode" struct_name="m" transform="translate(116.58,202.71)" r="6.5"><circle class="node" r="6" node_type="nucleotide" style="fill: lightgreen;"></circle><text text-anchor="middle" font-size="8" font-weight="bold" y="2.5" class="node-label">G</text></g><g class="noselect gnode" struct_name="m" transform="translate(119.23,217.94)" r="6.5"><circle class="node" r="6" node_type="nucleotide" style="fill: lightgreen;"></circle><text text-anchor="middle" font-size="8" font-weight="bold" y="2.5" class="node-label">A</text></g><g class="noselect gnode" struct_name="m" transform="translate(122.90,233.09)" r="6.5"><circle class="node" r="6" node_type="nucleotide" style="fill: lightgreen;"></circle><text text-anchor="middle" font-size="8" font-weight="bold" y="2.5" class="node-label">U</text></g><g class="noselect gnode" struct_name="m" transform="translate(127.40,248.00)" r="6.5"><circle class="node" r="6" node_type="nucleotide" style="fill: lightgreen;"></circle><text text-anchor="middle" font-size="8" font-weight="bold" y="2.5" class="node-label">G</text></g><g class="noselect gnode" struct_name="m" transform="translate(132.91,262.53)" r="6.5"><circle class="node" r="6" node_type="nucleotide" style="fill: lightgreen;"></circle><text text-anchor="middle" font-size="8" font-weight="bold" y="2.5" class="node-label">A</text></g><g class="noselect gnode" struct_name="m" transform="translate(148.36,262.23)" r="6.5"><circle class="node" r="6" node_type="nucleotide" style="fill: lightsalmon;"></circle><text text-anchor="middle" font-size="8" font-weight="bold" y="2.5" class="node-label">C</text></g><g class="noselect gnode" struct_name="m" transform="translate(162.86,266.69)" r="6.5"><circle class="node" r="6" node_type="nucleotide" style="fill: lightsalmon;"></circle><text text-anchor="middle" font-size="8" font-weight="bold" y="2.5" class="node-label">U</text></g><g class="noselect gnode" struct_name="m" transform="translate(175.20,275.57)" r="6.5"><circle class="node" r="6" node_type="nucleotide" style="fill: lightsalmon;"></circle><text text-anchor="middle" font-size="8" font-weight="bold" y="2.5" class="node-label">A</text></g><g class="noselect gnode" struct_name="m" transform="translate(183.80,287.91)" r="6.5"><circle class="node" r="6" node_type="nucleotide" style="fill: lightsalmon;"></circle><text text-anchor="middle" font-size="8" font-weight="bold" y="2.5" class="node-label">A</text></g><g class="noselect gnode" struct_name="m" transform="translate(187.98,302.35)" r="6.5"><circle class="node" r="6" node_type="nucleotide" style="fill: lightsalmon;"></circle><text text-anchor="middle" font-size="8" font-weight="bold" y="2.5" class="node-label">U</text></g><g class="noselect gnode" struct_name="m" transform="translate(187.22,317.32)" r="6.5"><circle class="node" r="6" node_type="nucleotide" style="fill: lightsalmon;"></circle><text text-anchor="middle" font-size="8" font-weight="bold" y="2.5" class="node-label">U</text></g><g class="noselect gnode" struct_name="m" transform="translate(181.65,331.24)" r="6.5"><circle class="node" r="6" node_type="nucleotide" style="fill: lightsalmon;"></circle><text text-anchor="middle" font-size="8" font-weight="bold" y="2.5" class="node-label">U</text></g><g class="noselect gnode" struct_name="m" transform="translate(171.74,342.45)" r="6.5"><circle class="node" r="6" node_type="nucleotide" style="fill: lightsalmon;"></circle><text text-anchor="middle" font-size="8" font-weight="bold" y="2.5" class="node-label">U</text></g><g class="noselect gnode" struct_name="m" transform="translate(158.78,349.95)" r="6.5"><circle class="node" r="6" node_type="nucleotide" style="fill: lightsalmon;"></circle><text text-anchor="middle" font-size="8" font-weight="bold" y="2.5" class="node-label">A</text></g><g class="noselect gnode" struct_name="m" transform="translate(144.13,353.09)" r="6.5"><circle class="node" r="6" node_type="nucleotide" style="fill: lightsalmon;"></circle><text text-anchor="middle" font-size="8" font-weight="bold" y="2.5" class="node-label">A</text></g><g class="noselect gnode" struct_name="m" transform="translate(129.23,351.32)" r="6.5"><circle class="node" r="6" node_type="nucleotide" style="fill: lightsalmon;"></circle><text text-anchor="middle" font-size="8" font-weight="bold" y="2.5" class="node-label">A</text></g><g class="noselect gnode" struct_name="m" transform="translate(76.61,201.23)" r="6.5"><circle class="node label" r="6" node_type="label"></circle><text text-anchor="middle" font-size="8" font-weight="bold" y="2.5" class="node-label">10</text></g><g class="noselect gnode" struct_name="m" transform="translate(20.90,65.45)" r="6.5"><circle class="node label" r="6" node_type="label"></circle><text text-anchor="middle" font-size="8" font-weight="bold" y="2.5" class="node-label">20</text></g><g class="noselect gnode" struct_name="m" transform="translate(64.87,-7.38)" r="6.5"><circle class="node label" r="6" node_type="label"></circle><text text-anchor="middle" font-size="8" font-weight="bold" y="2.5" class="node-label">30</text></g><g class="noselect gnode" struct_name="m" transform="translate(100.83,135.22)" r="6.5"><circle class="node label" r="6" node_type="label"></circle><text text-anchor="middle" font-size="8" font-weight="bold" y="2.5" class="node-label">40</text></g><g class="noselect gnode" struct_name="m" transform="translate(161.77,254.46)" r="6.5"><circle class="node label" r="6" node_type="label"></circle><text text-anchor="middle" font-size="8" font-weight="bold" y="2.5" class="node-label">50</text></g><g class="noselect gnode" struct_name="m" transform="translate(123.07,365.38)" r="6.5"><circle class="node label" r="6" node_type="label"></circle><text text-anchor="middle" font-size="8" font-weight="bold" y="2.5" class="node-label">60</text></g><g class="noselect gnode" transform="translate(93.76,167.93)" r="6.5"><circle class="node" r="0" node_type="middle"></circle><text text-anchor="middle" font-size="8" font-weight="bold" y="2.5" class="node-label"></text></g><g class="noselect gnode" transform="translate(85.40,154.10)" r="6.5"><circle class="node" r="0" node_type="middle"></circle><text text-anchor="middle" font-size="8" font-weight="bold" y="2.5" class="node-label"></text></g><g class="noselect gnode" transform="translate(77.20,140.35)" r="6.5"><circle class="node" r="0" node_type="middle"></circle><text text-anchor="middle" font-size="8" font-weight="bold" y="2.5" class="node-label"></text></g><g class="noselect gnode" transform="translate(68.94,126.71)" r="6.5"><circle class="node" r="0" node_type="middle"></circle><text text-anchor="middle" font-size="8" font-weight="bold" y="2.5" class="node-label"></text></g><g class="noselect gnode" transform="translate(60.28,113.29)" r="6.5"><circle class="node" r="0" node_type="middle"></circle><text text-anchor="middle" font-size="8" font-weight="bold" y="2.5" class="node-label"></text></g><g class="noselect gnode" transform="translate(41.98,53.75)" r="6.5"><circle class="node" r="0" node_type="middle"></circle><text text-anchor="middle" font-size="8" font-weight="bold" y="2.5" class="node-label"></text></g><g class="noselect gnode" transform="translate(37.61,38.29)" r="6.5"><circle class="node" r="0" node_type="middle"></circle><text text-anchor="middle" font-size="8" font-weight="bold" y="2.5" class="node-label"></text></g><g class="noselect gnode" transform="translate(123.08,257.96)" r="6.5"><circle class="node" r="0" node_type="middle"></circle><text text-anchor="middle" font-size="8" font-weight="bold" y="2.5" class="node-label"></text></g><g class="noselect gnode" transform="translate(117.92,242.73)" r="6.5"><circle class="node" r="0" node_type="middle"></circle><text text-anchor="middle" font-size="8" font-weight="bold" y="2.5" class="node-label"></text></g><g class="noselect gnode" transform="translate(113.76,227.31)" r="6.5"><circle class="node" r="0" node_type="middle"></circle><text text-anchor="middle" font-size="8" font-weight="bold" y="2.5" class="node-label"></text></g><g class="noselect gnode" transform="translate(110.44,211.61)" r="6.5"><circle class="node" r="0" node_type="middle"></circle><text text-anchor="middle" font-size="8" font-weight="bold" y="2.5" class="node-label"></text></g><g class="noselect gnode" transform="translate(115.65,345.07)" r="6.5"><circle class="node" r="0" node_type="middle"></circle><text text-anchor="middle" font-size="8" font-weight="bold" y="2.5" class="node-label"></text></g><g class="noselect gnode" transform="translate(104.96,334.47)" r="6.5"><circle class="node" r="0" node_type="middle"></circle><text text-anchor="middle" font-size="8" font-weight="bold" y="2.5" class="node-label"></text></g><g class="noselect gnode" transform="translate(142.45,307.34)" r="6.5"><circle class="node" r="0" node_type="middle"></circle><text text-anchor="middle" font-size="8" font-weight="bold" y="2.5" class="node-label"></text></g><g class="noselect gnode" transform="translate(25.65,6.81)" r="6.5"><circle class="node" r="0" node_type="middle"></circle><text text-anchor="middle" font-size="8" font-weight="bold" y="2.5" class="node-label"></text></g><g class="noselect gnode" transform="translate(48.88,98.53)" r="6.5"><circle class="node" r="0" node_type="middle"></circle><text text-anchor="middle" font-size="8" font-weight="bold" y="2.5" class="node-label"></text></g><g class="noselect gnode" transform="translate(45.80,74.72)" r="6.5"><circle class="node" r="0" node_type="middle"></circle><text text-anchor="middle" font-size="8" font-weight="bold" y="2.5" class="node-label"></text></g><g class="noselect gnode" transform="translate(106.78,188.01)" r="6.5"><circle class="node" r="0" node_type="middle"></circle><text text-anchor="middle" font-size="8" font-weight="bold" y="2.5" class="node-label"></text></g></g><line class="drag_line" x1="0" y1="0" x2="0" y2="0"></line></g></g></svg>