<svg xmlns="http://www.w3.org/2000/svg" viewBox="0 0 760 640" width="760" height="640"><style>svg {
  display: block;
  min-width: 100%;
  width: 100%;
  min-height: 100%;
}

circle.node {
  stroke: #ccc;
  stroke-width: 1px;
  opacity: 1;
  fill: white;
}

circle.node.label {
    stroke: transparent;
    stroke-width: 0;
    fill: white;
}

circle.outline_node {
    stroke-width: 1px;
    fill: red;
}

circle.protein {
    fill: gray;
    fill-opacity: 0.5;
    stroke-width: 4;
}

circle.hidden_outline {
    stroke-width: 0px;
}


line.link {
  stroke: #999;
  stroke-opacity: 0.8;
  stroke-width: 2;
}

line.basepair {
  stroke: red;
}

line.intermolecule {
  stroke: blue;
}

line.chain_chain {
  stroke-dasharray: 3,3;
}

line.fake {
  stroke: green;
}

.transparent {
    fill: transparent;
    stroke-width: 0;
    stroke-opacity: 0;
    opacity: 0;
    visibility: hidden;
}

.drag_line {
  stroke: #999;
  stroke-width: 2;
  pointer-events: none;
}

.drag_line_hidden {
  stroke: #999;
  stroke-width: 0;
  pointer-events: none;
}

.d3-tip {
    line-height: 1;
    font-weight: bold;
    padding: 6px;
    background: rgba(0, 0, 0, 0.6);
    color: #fff;
    border-radius: 4px;
    pointer-events: none;
          }

text.node-label {
    font-weight: bold;
    font-family: Tahoma, Geneva, sans-serif;
    color: rgb(100,100,100);
    pointer-events: none;
}

text {
    pointer-events: none;
}

g.gnode {

}

circle.outline_node.selected {
    visibility: visible;
}

circle.outline_node {
    visibility: hidden;
}

.brush .extent {
  fill-opacity: .1;
  stroke: #fff;
  shape-rendering: crispEdges;
}

.noselect {
    -webkit-touch-callout: none;
    -webkit-user-select: none;
    -khtml-user-select: none;
    -moz-user-select: none;
    -ms-user-select: none;
    user-select: none;
}

svg {
  display: block;
  min-width: 100%;
  width: 100%;
  min-height: 100%;
}

circle.node {
  stroke: #ccc;
  stroke-width: 1px;
  opacity: 1;
  fill: white;
}

circle.node.label {
    stroke: transparent;
    stroke-width: 0;
    fill: white;
}

circle.outline_node {
    stroke-width: 1px;
    fill: red;
}

circle.protein {
    fill: gray;
    fill-opacity: 0.5;
    stroke-width: 4;
}

circle.hidden_outline {
    stroke-width: 0px;
}


line.link {
  stroke: #999;
  stroke-opacity: 0.8;
  stroke-width: 2;
}

line.basepair {
  stroke: red;
}

line.intermolecule {
  stroke: blue;
}

line.chain_chain {
  stroke-dasharray: 3,3;
}

line.fake {
  stroke: green;
}

.transparent {
    fill: transparent;
    stroke-width: 0;
    stroke-opacity: 0;
    opacity: 0;
    visibility: hidden;
}

.drag_line {
  stroke: #999;
  stroke-width: 2;
  pointer-events: none;
}

.drag_line_hidden {
  stroke: #999;
  stroke-width: 0;
  pointer-events: none;
}

.d3-tip {
    line-height: 1;
    font-weight: bold;
    padding: 6px;
    background: rgba(0, 0, 0, 0.6);
    color: #fff;
    border-radius: 4px;
    pointer-events: none;
          }

text.node-label {
    font-weight: bold;
    font-family: Tahoma, Geneva, sans-serif;
    color: rgb(100,100,100);
    pointer-events: none;
}

text {
    pointer-events: none;
}

g.gnode {

}

circle.outline_node.selected {
    visibility: visible;
}

circle.outline_node {
    visibility: hidden;
}

.brush .extent {
  fill-opacity: .1;
  stroke: #fff;
  shape-rendering: crispEdges;
}

.noselect {
    -webkit-touch-callout: none;
    -webkit-user-select: none;
    -khtml-user-select: none;
    -moz-user-select: none;
    -ms-user-select: none;
    user-select: none;
}
/*# sourceURL=/Users/yumanakamura/ipy_sandbox/sandbox/claude_sandbox/mrna-transformer-worktrees/feat-issue57-switch-derna-knotty/scripts/eval/prerender/forna_vendor/fornac.css*/</style><style></style><g><g class="brush" style="pointer-events: all; -webkit-tap-highlight-color: rgba(0, 0, 0, 0);"><rect class="background" x="0" width="760" y="0" height="640" style="visibility: hidden; cursor: auto;"></rect><rect class="extent" x="0" width="0" y="0" height="0" style="cursor: move;"></rect><g class="resize n" transform="translate(0,0)" style="cursor: ns-resize; display: none;"><rect y="-3" width="0" height="6" style="visibility: hidden;"></rect></g><g class="resize e" transform="translate(0,0)" style="cursor: ew-resize; display: none;"><rect x="-3" width="6" height="0" style="visibility: hidden;"></rect></g><g class="resize s" transform="translate(0,0)" style="cursor: ns-resize; display: none;"><rect y="-3" width="0" height="6" style="visibility: hidden;"></rect></g><g class="resize w" transform="translate(0,0)" style="cursor: ew-resize; display: none;"><rect x="-3" width="6" height="0" style="visibility: hidden;"></rect></g><g class="resize nw" transform="translate(0,0)" style="cursor: nwse-resize; display: none;"><rect x="-3" y="-3" width="6" height="6" style="visibility: hidden;"></rect></g><g class="resize ne" transform="translate(0,0)" style="cursor: nesw-resize; display: none;"><rect x="-3" y="-3" width="6" height="6" style="visibility: hidden;"></rect></g><g class="resize se" transform="translate(0,0)" style="cursor: nwse-resize; display: none;"><rect x="-3" y="-3" width="6" height="6" style="visibility: hidden;"></rect></g><g class="resize sw" transform="translate(0,0)" style="cursor: nesw-resize; display: none;"><rect x="-3" y="-3" width="6" height="6" style="visibility: hidden;"></rect></g></g><g transform="translate(297.45,156.56) scale(1.28)"><g><line class="link backbone" x1="69.95" y1="293.06" x2="75.59" y2="279.19"></line><line class="link basepair" x1="86.68" y1="268.66" x2="101.05" y2="264.44"></line><line class="link backbone" x1="75.59" y1="279.19" x2="86.68" y2="268.66"></line><line class="link basepair" x1="82.40" y1="253.39" x2="96.40" y2="249.36"></line><line class="link backbone" x1="86.68" y1="268.66" x2="82.40" y2="253.39"></line><line class="link basepair" x1="78.01" y1="237.96" x2="92.08" y2="234.00"></line><line class="link backbone" x1="82.40" y1="253.39" x2="78.01" y2="237.96"></line><line class="link basepair" x1="73.69" y1="222.59" x2="87.71" y2="218.52"></line><line class="link backbone" x1="78.01" y1="237.96" x2="73.69" y2="222.59"></line><line class="link basepair" x1="69.12" y1="207.53" x2="83.02" y2="202.98"></line><line class="link backbone" x1="73.69" y1="222.59" x2="69.12" y2="207.53"></line><line class="link basepair" x1="63.89" y1="192.99" x2="77.43" y2="187.50"></line><line class="link backbone" x1="69.12" y1="207.53" x2="63.89" y2="192.99"></line><line class="link basepair" x1="57.54" y1="179.06" x2="70.42" y2="172.27"></line><line class="link backbone" x1="63.89" y1="192.99" x2="57.54" y2="179.06"></line><line class="link basepair" x1="49.72" y1="166.11" x2="61.61" y2="157.71"></line><line class="link backbone" x1="57.54" y1="179.06" x2="49.72" y2="166.11"></line><line class="link basepair" x1="40.31" y1="154.86" x2="50.75" y2="144.40"></line><line class="link backbone" x1="49.72" y1="166.11" x2="40.31" y2="154.86"></line><line class="link backbone" x1="40.31" y1="154.86" x2="25.70" y2="151.70"></line><line class="link backbone" x1="25.70" y1="151.70" x2="21.06" y2="137.77"></line><line class="link basepair" x1="30.84" y1="126.50" x2="45.46" y2="128.57"></line><line class="link backbone" x1="21.06" y1="137.77" x2="30.84" y2="126.50"></line><line class="link basepair" x1="31.49" y1="111.92" x2="46.21" y2="111.40"></line><line class="link backbone" x1="30.84" y1="126.50" x2="31.49" y2="111.92"></line><line class="link backbone" x1="31.49" y1="111.92" x2="22.84" y2="99.77"></line><line class="link basepair" x1="29.35" y1="86.26" x2="43.94" y2="84.29"></line><line class="link backbone" x1="22.84" y1="99.77" x2="29.35" y2="86.26"></line><line class="link basepair" x1="26.16" y1="72.11" x2="40.18" y2="67.43"></line><line class="link backbone" x1="29.35" y1="86.26" x2="26.16" y2="72.11"></line><line class="link backbone" x1="26.16" y1="72.11" x2="16.25" y2="60.62"></line><line class="link basepair" x1="24.32" y1="47.73" x2="38.90" y2="50.27"></line><line class="link backbone" x1="16.25" y1="60.62" x2="24.32" y2="47.73"></line><line class="link basepair" x1="25.64" y1="32.96" x2="40.11" y2="33.12"></line><line class="link backbone" x1="24.32" y1="47.73" x2="25.64" y2="32.96"></line><line class="link basepair" x1="24.78" y1="17.63" x2="39.20" y2="16.12"></line><line class="link backbone" x1="25.64" y1="32.96" x2="24.78" y2="17.63"></line><line class="link basepair" x1="22.44" y1="2.22" x2="36.74" y2="-0.42"></line><line class="link backbone" x1="24.78" y1="17.63" x2="22.44" y2="2.22"></line><line class="link basepair" x1="19.09" y1="-13.09" x2="33.29" y2="-16.49"></line><line class="link backbone" x1="22.44" y1="2.22" x2="19.09" y2="-13.09"></line><line class="link basepair" x1="15.11" y1="-28.34" x2="29.22" y2="-32.18"></line><line class="link backbone" x1="19.09" y1="-13.09" x2="15.11" y2="-28.34"></line><line class="link basepair" x1="10.66" y1="-43.34" x2="25.11" y2="-47.46"></line><line class="link backbone" x1="15.11" y1="-28.34" x2="10.66" y2="-43.34"></line><line class="link backbone" x1="10.66" y1="-43.34" x2="-1.96" y2="-52.40"></line><line class="link backbone" x1="-1.96" y1="-52.40" x2="-2.75" y2="-67.52"></line><line class="link backbone" x1="-2.75" y1="-67.52" x2="8.63" y2="-77.64"></line><line class="link backbone" x1="8.63" y1="-77.64" x2="23.65" y2="-75.05"></line><line class="link backbone" x1="23.65" y1="-75.05" x2="30.99" y2="-61.73"></line><line class="link basepair" x1="25.11" y1="-47.46" x2="10.66" y2="-43.34"></line><line class="link backbone" x1="30.99" y1="-61.73" x2="25.11" y2="-47.46"></line><line class="link basepair" x1="29.22" y1="-32.18" x2="15.11" y2="-28.34"></line><line class="link backbone" x1="25.11" y1="-47.46" x2="29.22" y2="-32.18"></line><line class="link basepair" x1="33.29" y1="-16.49" x2="19.09" y2="-13.09"></line><line class="link backbone" x1="29.22" y1="-32.18" x2="33.29" y2="-16.49"></line><line class="link basepair" x1="36.74" y1="-0.42" x2="22.44" y2="2.22"></line><line class="link backbone" x1="33.29" y1="-16.49" x2="36.74" y2="-0.42"></line><line class="link basepair" x1="39.20" y1="16.12" x2="24.78" y2="17.63"></line><line class="link backbone" x1="36.74" y1="-0.42" x2="39.20" y2="16.12"></line><line class="link basepair" x1="40.11" y1="33.12" x2="25.64" y2="32.96"></line><line class="link backbone" x1="39.20" y1="16.12" x2="40.11" y2="33.12"></line><line class="link basepair" x1="38.90" y1="50.27" x2="24.32" y2="47.73"></line><line class="link backbone" x1="40.11" y1="33.12" x2="38.90" y2="50.27"></line><line class="link basepair" x1="40.18" y1="67.43" x2="26.16" y2="72.11"></line><line class="link backbone" x1="38.90" y1="50.27" x2="40.18" y2="67.43"></line><line class="link basepair" x1="43.94" y1="84.29" x2="29.35" y2="86.26"></line><line class="link backbone" x1="40.18" y1="67.43" x2="43.94" y2="84.29"></line><line class="link backbone" x1="43.94" y1="84.29" x2="52.90" y2="97.27"></line><line class="link basepair" x1="46.21" y1="111.40" x2="31.49" y2="111.92"></line><line class="link backbone" x1="52.90" y1="97.27" x2="46.21" y2="111.40"></line><line class="link basepair" x1="45.46" y1="128.57" x2="30.84" y2="126.50"></line><line class="link backbone" x1="46.21" y1="111.40" x2="45.46" y2="128.57"></line><line class="link basepair" x1="50.75" y1="144.40" x2="40.31" y2="154.86"></line><line class="link backbone" x1="45.46" y1="128.57" x2="50.75" y2="144.40"></line><line class="link basepair" x1="61.61" y1="157.71" x2="49.72" y2="166.11"></line><line class="link backbone" x1="50.75" y1="144.40" x2="61.61" y2="157.71"></line><line class="link basepair" x1="70.42" y1="172.27" x2="57.54" y2="179.06"></line><line class="link backbone" x1="61.61" y1="157.71" x2="70.42" y2="172.27"></line><line class="link basepair" x1="77.43" y1="187.50" x2="63.89" y2="192.99"></line><line class="link backbone" x1="70.42" y1="172.27" x2="77.43" y2="187.50"></line><line class="link basepair" x1="83.02" y1="202.98" x2="69.12" y2="207.53"></line><line class="link backbone" x1="77.43" y1="187.50" x2="83.02" y2="202.98"></line><line class="link basepair" x1="87.71" y1="218.52" x2="73.69" y2="222.59"></line><line class="link backbone" x1="83.02" y1="202.98" x2="87.71" y2="218.52"></line><line class="link basepair" x1="92.08" y1="234.00" x2="78.01" y2="237.96"></line><line class="link backbone" x1="87.71" y1="218.52" x2="92.08" y2="234.00"></line><line class="link basepair" x1="96.40" y1="249.36" x2="82.40" y2="253.39"></line><line class="link backbone" x1="92.08" y1="234.00" x2="96.40" y2="249.36"></line><line class="link basepair" x1="101.05" y1="264.44" x2="86.68" y2="268.66"></line><line class="link backbone" x1="96.40" y1="249.36" x2="101.05" y2="264.44"></line><line class="link backbone" x1="101.05" y1="264.44" x2="116.14" y2="267.38"></line><line class="link backbone" x1="116.14" y1="267.38" x2="128.46" y2="276.00"></line><line class="link backbone" x1="128.46" y1="276.00" x2="135.86" y2="289.23"></line><line class="link backbone" x1="135.86" y1="289.23" x2="136.62" y2="304.19"></line><line class="link backbone" x1="136.62" y1="304.19" x2="130.83" y2="318.06"></line><line class="link backbone" x1="130.83" y1="318.06" x2="119.44" y2="327.83"></line><line class="link backbone" x1="119.44" y1="327.83" x2="105.07" y2="331.93"></line><line class="link backbone" x1="105.07" y1="331.93" x2="90.26" y2="329.74"></line><line class="link label_link" x1="49.72" y1="166.11" x2="35.42" y2="172.34"></line><line class="link label_link" x1="24.32" y1="47.73" x2="8.76" y2="48.62"></line><line class="link label_link" x1="23.65" y1="-75.05" x2="32.20" y2="-87.88"></line><line class="link label_link" x1="43.94" y1="84.29" x2="59.42" y2="82.20"></line><line class="link label_link" x1="92.08" y1="234.00" x2="107.06" y2="229.64"></line><line class="link label_link" x1="90.26" y1="329.74" x2="81.72" y2="342.58"></line><line class="link fake transparent" x1="30.84" y1="126.50" x2="39.10" y2="119.61"></line><line class="link fake transparent" x1="30.84" y1="126.50" x2="46.21" y2="111.40"></line><line class="link fake transparent" x1="31.49" y1="111.92" x2="39.10" y2="119.61"></line><line class="link fake transparent" x1="46.21" y1="111.40" x2="39.10" y2="119.61"></line><line class="link fake transparent" x1="45.46" y1="128.57" x2="39.10" y2="119.61"></line><line class="link fake transparent" x1="29.35" y1="86.26" x2="35.55" y2="77.34"></line><line class="link fake transparent" x1="26.16" y1="72.11" x2="35.55" y2="77.34"></line><line class="link fake transparent" x1="40.18" y1="67.43" x2="35.55" y2="77.34"></line><line class="link fake transparent" x1="43.94" y1="84.29" x2="35.55" y2="77.34"></line><line class="link fake transparent" x1="24.32" y1="47.73" x2="32.86" y2="41.13"></line><line class="link fake transparent" x1="25.64" y1="32.96" x2="32.86" y2="41.13"></line><line class="link fake transparent" x1="40.11" y1="33.12" x2="32.86" y2="41.13"></line><line class="link fake transparent" x1="38.90" y1="50.27" x2="32.86" y2="41.13"></line><line class="link fake transparent" x1="25.64" y1="32.96" x2="32.89" y2="24.93"></line><line class="link fake transparent" x1="24.78" y1="17.63" x2="32.89" y2="24.93"></line><line class="link fake transparent" x1="39.20" y1="16.12" x2="32.89" y2="24.93"></line><line class="link fake transparent" x1="40.11" y1="33.12" x2="32.89" y2="24.93"></line><line class="link fake transparent" x1="24.78" y1="17.63" x2="31.11" y2="8.83"></line><line class="link fake transparent" x1="22.44" y1="2.22" x2="31.11" y2="8.83"></line><line class="link fake transparent" x1="36.74" y1="-0.42" x2="31.11" y2="8.83"></line><line class="link fake transparent" x1="39.20" y1="16.12" x2="31.11" y2="8.83"></line><line class="link fake transparent" x1="22.44" y1="2.22" x2="28.10" y2="-7.02"></line><line class="link fake transparent" x1="19.09" y1="-13.09" x2="28.10" y2="-7.02"></line><line class="link fake transparent" x1="33.29" y1="-16.49" x2="28.10" y2="-7.02"></line><line class="link fake transparent" x1="36.74" y1="-0.42" x2="28.10" y2="-7.02"></line><line class="link fake transparent" x1="19.09" y1="-13.09" x2="24.29" y2="-22.58"></line><line class="link fake transparent" x1="15.11" y1="-28.34" x2="24.29" y2="-22.58"></line><line class="link fake transparent" x1="29.22" y1="-32.18" x2="24.29" y2="-22.58"></line><line class="link fake transparent" x1="33.29" y1="-16.49" x2="24.29" y2="-22.58"></line><line class="link fake transparent" x1="15.11" y1="-28.34" x2="20.04" y2="-37.95"></line><line class="link fake transparent" x1="10.66" y1="-43.34" x2="20.04" y2="-37.95"></line><line class="link fake transparent" x1="25.11" y1="-47.46" x2="20.04" y2="-37.95"></line><line class="link fake transparent" x1="29.22" y1="-32.18" x2="20.04" y2="-37.95"></line><line class="link fake transparent" x1="86.68" y1="268.66" x2="91.62" y2="259.09"></line><line class="link fake transparent" x1="82.40" y1="253.39" x2="91.62" y2="259.09"></line><line class="link fake transparent" x1="96.40" y1="249.36" x2="91.62" y2="259.09"></line><line class="link fake transparent" x1="101.05" y1="264.44" x2="91.62" y2="259.09"></line><line class="link fake transparent" x1="82.40" y1="253.39" x2="87.18" y2="243.72"></line><line class="link fake transparent" x1="78.01" y1="237.96" x2="87.18" y2="243.72"></line><line class="link fake transparent" x1="92.08" y1="234.00" x2="87.18" y2="243.72"></line><line class="link fake transparent" x1="96.40" y1="249.36" x2="87.18" y2="243.72"></line><line class="link fake transparent" x1="78.01" y1="237.96" x2="82.88" y2="228.27"></line><line class="link fake transparent" x1="73.69" y1="222.59" x2="82.88" y2="228.27"></line><line class="link fake transparent" x1="87.71" y1="218.52" x2="82.88" y2="228.27"></line><line class="link fake transparent" x1="92.08" y1="234.00" x2="82.88" y2="228.27"></line><line class="link fake transparent" x1="73.69" y1="222.59" x2="78.52" y2="212.86"></line><line class="link fake transparent" x1="69.12" y1="207.53" x2="78.52" y2="212.86"></line><line class="link fake transparent" x1="83.02" y1="202.98" x2="78.52" y2="212.86"></line><line class="link fake transparent" x1="87.71" y1="218.52" x2="78.52" y2="212.86"></line><line class="link fake transparent" x1="69.12" y1="207.53" x2="73.64" y2="197.68"></line><line class="link fake transparent" x1="63.89" y1="192.99" x2="73.64" y2="197.68"></line><line class="link fake transparent" x1="77.43" y1="187.50" x2="73.64" y2="197.68"></line><line class="link fake transparent" x1="83.02" y1="202.98" x2="73.64" y2="197.68"></line><line class="link fake transparent" x1="63.89" y1="192.99" x2="67.71" y2="182.79"></line><line class="link fake transparent" x1="57.54" y1="179.06" x2="67.71" y2="182.79"></line><line class="link fake transparent" x1="70.42" y1="172.27" x2="67.71" y2="182.79"></line><line class="link fake transparent" x1="77.43" y1="187.50" x2="67.71" y2="182.79"></line><line class="link fake transparent" x1="57.54" y1="179.06" x2="60.27" y2="168.54"></line><line class="link fake transparent" x1="49.72" y1="166.11" x2="60.27" y2="168.54"></line><line class="link fake transparent" x1="61.61" y1="157.71" x2="60.27" y2="168.54"></line><line class="link fake transparent" x1="70.42" y1="172.27" x2="60.27" y2="168.54"></line><line class="link fake transparent" x1="49.72" y1="166.11" x2="51.10" y2="155.40"></line><line class="link fake transparent" x1="40.31" y1="154.86" x2="51.10" y2="155.40"></line><line class="link fake transparent" x1="50.75" y1="144.40" x2="51.10" y2="155.40"></line><line class="link fake transparent" x1="61.61" y1="157.71" x2="51.10" y2="155.40"></line><line class="link fake transparent" x1="69.95" y1="293.06" x2="103.25" y2="298.30"></line><line class="link fake transparent" x1="69.95" y1="293.06" x2="136.62" y2="304.19"></line><line class="link fake transparent" x1="75.59" y1="279.19" x2="103.25" y2="298.30"></line><line class="link fake transparent" x1="75.59" y1="279.19" x2="130.83" y2="318.06"></line><line class="link fake transparent" x1="86.68" y1="268.66" x2="103.25" y2="298.30"></line><line class="link fake transparent" x1="86.68" y1="268.66" x2="119.44" y2="327.83"></line><line class="link fake transparent" x1="101.05" y1="264.44" x2="103.25" y2="298.30"></line><line class="link fake transparent" x1="101.05" y1="264.44" x2="105.07" y2="331.93"></line><line class="link fake transparent" x1="116.14" y1="267.38" x2="103.25" y2="298.30"></line><line class="link fake transparent" x1="116.14" y1="267.38" x2="90.26" y2="329.74"></line><line class="link fake transparent" x1="128.46" y1="276.00" x2="103.25" y2="298.30"></line><line class="link fake transparent" x1="128.46" y1="276.00" x2="77.85" y2="321.06"></line><line class="link fake transparent" x1="135.86" y1="289.23" x2="103.25" y2="298.30"></line><line class="link fake transparent" x1="135.86" y1="289.23" x2="70.61" y2="308.30"></line><line class="link fake transparent" x1="136.62" y1="304.19" x2="103.25" y2="298.30"></line><line class="link fake transparent" x1="136.62" y1="304.19" x2="69.95" y2="293.06"></line><line class="link fake transparent" x1="130.83" y1="318.06" x2="103.25" y2="298.30"></line><line class="link fake transparent" x1="130.83" y1="318.06" x2="75.59" y2="279.19"></line><line class="link fake transparent" x1="119.44" y1="327.83" x2="103.25" y2="298.30"></line><line class="link fake transparent" x1="119.44" y1="327.83" x2="86.68" y2="268.66"></line><line class="link fake transparent" x1="105.07" y1="331.93" x2="103.25" y2="298.30"></line><line class="link fake transparent" x1="105.07" y1="331.93" x2="101.05" y2="264.44"></line><line class="link fake transparent" x1="90.26" y1="329.74" x2="103.25" y2="298.30"></line><line class="link fake transparent" x1="90.26" y1="329.74" x2="116.14" y2="267.38"></line><line class="link fake transparent" x1="10.66" y1="-43.34" x2="13.50" y2="-60.65"></line><line class="link fake transparent" x1="10.66" y1="-43.34" x2="8.63" y2="-77.64"></line><line class="link fake transparent" x1="-1.96" y1="-52.40" x2="13.50" y2="-60.65"></line><line class="link fake transparent" x1="-1.96" y1="-52.40" x2="23.65" y2="-75.05"></line><line class="link fake transparent" x1="-2.75" y1="-67.52" x2="13.50" y2="-60.65"></line><line class="link fake transparent" x1="-2.75" y1="-67.52" x2="30.99" y2="-61.73"></line><line class="link fake transparent" x1="8.63" y1="-77.64" x2="13.50" y2="-60.65"></line><line class="link fake transparent" x1="8.63" y1="-77.64" x2="25.11" y2="-47.46"></line><line class="link fake transparent" x1="23.65" y1="-75.05" x2="13.50" y2="-60.65"></line><line class="link fake transparent" x1="23.65" y1="-75.05" x2="10.66" y2="-43.34"></line><line class="link fake transparent" x1="30.99" y1="-61.73" x2="13.50" y2="-60.65"></line><line class="link fake transparent" x1="30.99" y1="-61.73" x2="-1.96" y2="-52.40"></line><line class="link fake transparent" x1="25.11" y1="-47.46" x2="13.50" y2="-60.65"></line><line class="link fake transparent" x1="25.11" y1="-47.46" x2="-2.75" y2="-67.52"></line><line class="link fake transparent" x1="31.49" y1="111.92" x2="38.07" y2="98.46"></line><line class="link fake transparent" x1="31.49" y1="111.92" x2="43.94" y2="84.29"></line><line class="link fake transparent" x1="22.84" y1="99.77" x2="38.07" y2="98.46"></line><line class="link fake transparent" x1="22.84" y1="99.77" x2="52.90" y2="97.27"></line><line class="link fake transparent" x1="29.35" y1="86.26" x2="38.07" y2="98.46"></line><line class="link fake transparent" x1="29.35" y1="86.26" x2="46.21" y2="111.40"></line><line class="link fake transparent" x1="43.94" y1="84.29" x2="38.07" y2="98.46"></line><line class="link fake transparent" x1="43.94" y1="84.29" x2="31.49" y2="111.92"></line><line class="link fake transparent" x1="52.90" y1="97.27" x2="38.07" y2="98.46"></line><line class="link fake transparent" x1="52.90" y1="97.27" x2="22.84" y2="99.77"></line><line class="link fake transparent" x1="46.21" y1="111.40" x2="38.07" y2="98.46"></line><line class="link fake transparent" x1="46.21" y1="111.40" x2="29.35" y2="86.26"></line><line class="link fake transparent" x1="26.16" y1="72.11" x2="29.71" y2="59.56"></line><line class="link fake transparent" x1="26.16" y1="72.11" x2="24.32" y2="47.73"></line><line class="link fake transparent" x1="16.25" y1="60.62" x2="29.71" y2="59.56"></line><line class="link fake transparent" x1="16.25" y1="60.62" x2="38.90" y2="50.27"></line><line class="link fake transparent" x1="24.32" y1="47.73" x2="29.71" y2="59.56"></line><line class="link fake transparent" x1="24.32" y1="47.73" x2="40.18" y2="67.43"></line><line class="link fake transparent" x1="38.90" y1="50.27" x2="29.71" y2="59.56"></line><line class="link fake transparent" x1="38.90" y1="50.27" x2="26.16" y2="72.11"></line><line class="link fake transparent" x1="40.18" y1="67.43" x2="29.71" y2="59.56"></line><line class="link fake transparent" x1="40.18" y1="67.43" x2="16.25" y2="60.62"></line><line class="link fake transparent" x1="40.31" y1="154.86" x2="36.11" y2="140.51"></line><line class="link fake transparent" x1="40.31" y1="154.86" x2="30.84" y2="126.50"></line><line class="link fake transparent" x1="25.70" y1="151.70" x2="36.11" y2="140.51"></line><line class="link fake transparent" x1="25.70" y1="151.70" x2="45.46" y2="128.57"></line><line class="link fake transparent" x1="21.06" y1="137.77" x2="36.11" y2="140.51"></line><line class="link fake transparent" x1="21.06" y1="137.77" x2="50.75" y2="144.40"></line><line class="link fake transparent" x1="30.84" y1="126.50" x2="36.11" y2="140.51"></line><line class="link fake transparent" x1="30.84" y1="126.50" x2="40.31" y2="154.86"></line><line class="link fake transparent" x1="45.46" y1="128.57" x2="36.11" y2="140.51"></line><line class="link fake transparent" x1="45.46" y1="128.57" x2="25.70" y2="151.70"></line><line class="link fake transparent" x1="50.75" y1="144.40" x2="36.11" y2="140.51"></line><line class="link fake transparent" x1="50.75" y1="144.40" x2="21.06" y2="137.77"></line></g><g><g class="noselect gnode" struct_name="m" transform="translate(69.95,293.06)" r="6.5"><circle class="node" r="6" node_type="nucleotide" style="fill: lightsalmon;"></circle><text text-anchor="middle" font-size="8" font-weight="bold" y="2.5" class="node-label">G</text></g><g class="noselect gnode" struct_name="m" transform="translate(75.59,279.19)" r="6.5"><circle class="node" r="6" node_type="nucleotide" style="fill: lightsalmon;"></circle><text text-anchor="middle" font-size="8" font-weight="bold" y="2.5" class="node-label">A</text></g><g class="noselect gnode" struct_name="m" transform="translate(86.68,268.66)" r="6.5"><circle class="node" r="6" node_type="nucleotide" style="fill: lightgreen;"></circle><text text-anchor="middle" font-size="8" font-weight="bold" y="2.5" class="node-label">C</text></g><g class="noselect gnode" struct_name="m" transform="translate(82.40,253.39)" r="6.5"><circle class="node" r="6" node_type="nucleotide" style="fill: lightgreen;"></circle><text text-anchor="middle" font-size="8" font-weight="bold" y="2.5" class="node-label">C</text></g><g class="noselect gnode" struct_name="m" transform="translate(78.01,237.96)" r="6.5"><circle class="node" r="6" node_type="nucleotide" style="fill: lightgreen;"></circle><text text-anchor="middle" font-size="8" font-weight="bold" y="2.5" class="node-label">G</text></g><g class="noselect gnode" struct_name="m" transform="translate(73.69,222.59)" r="6.5"><circle class="node" r="6" node_type="nucleotide" style="fill: lightgreen;"></circle><text text-anchor="middle" font-size="8" font-weight="bold" y="2.5" class="node-label">G</text></g><g class="noselect gnode" struct_name="m" transform="translate(69.12,207.53)" r="6.5"><circle class="node" r="6" node_type="nucleotide" style="fill: lightgreen;"></circle><text text-anchor="middle" font-size="8" font-weight="bold" y="2.5" class="node-label">C</text></g><g class="noselect gnode" struct_name="m" transform="translate(63.89,192.99)" r="6.5"><circle class="node" r="6" node_type="nucleotide" style="fill: lightgreen;"></circle><text text-anchor="middle" font-size="8" font-weight="bold" y="2.5" class="node-label">U</text></g><g class="noselect gnode" struct_name="m" transform="translate(57.54,179.06)" r="6.5"><circle class="node" r="6" node_type="nucleotide" style="fill: lightgreen;"></circle><text text-anchor="middle" font-size="8" font-weight="bold" y="2.5" class="node-label">C</text></g><g class="noselect gnode" struct_name="m" transform="translate(49.72,166.11)" r="6.5"><circle class="node" r="6" node_type="nucleotide" style="fill: lightgreen;"></circle><text text-anchor="middle" font-size="8" font-weight="bold" y="2.5" class="node-label">C</text></g><g class="noselect gnode" struct_name="m" transform="translate(40.31,154.86)" r="6.5"><circle class="node" r="6" node_type="nucleotide" style="fill: lightgreen;"></circle><text text-anchor="middle" font-size="8" font-weight="bold" y="2.5" class="node-label">A</text></g><g class="noselect gnode" struct_name="m" transform="translate(25.70,151.70)" r="6.5"><circle class="node" r="6" node_type="nucleotide" style="fill: rgb(219, 219, 141);"></circle><text text-anchor="middle" font-size="8" font-weight="bold" y="2.5" class="node-label">A</text></g><g class="noselect gnode" struct_name="m" transform="translate(21.06,137.77)" r="6.5"><circle class="node" r="6" node_type="nucleotide" style="fill: rgb(219, 219, 141);"></circle><text text-anchor="middle" font-size="8" font-weight="bold" y="2.5" class="node-label">A</text></g><g class="noselect gnode" struct_name="m" transform="translate(30.84,126.50)" r="6.5"><circle class="node" r="6" node_type="nucleotide" style="fill: lightgreen;"></circle><text text-anchor="middle" font-size="8" font-weight="bold" y="2.5" class="node-label">U</text></g><g class="noselect gnode" struct_name="m" transform="translate(31.49,111.92)" r="6.5"><circle class="node" r="6" node_type="nucleotide" style="fill: lightgreen;"></circle><text text-anchor="middle" font-size="8" font-weight="bold" y="2.5" class="node-label">G</text></g><g class="noselect gnode" struct_name="m" transform="translate(22.84,99.77)" r="6.5"><circle class="node" r="6" node_type="nucleotide" style="fill: rgb(219, 219, 141);"></circle><text text-anchor="middle" font-size="8" font-weight="bold" y="2.5" class="node-label">G</text></g><g class="noselect gnode" struct_name="m" transform="translate(29.35,86.26)" r="6.5"><circle class="node" r="6" node_type="nucleotide" style="fill: lightgreen;"></circle><text text-anchor="middle" font-size="8" font-weight="bold" y="2.5" class="node-label">G</text></g><g class="noselect gnode" struct_name="m" transform="translate(26.16,72.11)" r="6.5"><circle class="node" r="6" node_type="nucleotide" style="fill: lightgreen;"></circle><text text-anchor="middle" font-size="8" font-weight="bold" y="2.5" class="node-label">C</text></g><g class="noselect gnode" struct_name="m" transform="translate(16.25,60.62)" r="6.5"><circle class="node" r="6" node_type="nucleotide" style="fill: rgb(219, 219, 141);"></circle><text text-anchor="middle" font-size="8" font-weight="bold" y="2.5" class="node-label">A</text></g><g class="noselect gnode" struct_name="m" transform="translate(24.32,47.73)" r="6.5"><circle class="node" r="6" node_type="nucleotide" style="fill: lightgreen;"></circle><text text-anchor="middle" font-size="8" font-weight="bold" y="2.5" class="node-label">U</text></g><g class="noselect gnode" struct_name="m" transform="translate(25.64,32.96)" r="6.5"><circle class="node" r="6" node_type="nucleotide" style="fill: lightgreen;"></circle><text text-anchor="middle" font-size="8" font-weight="bold" y="2.5" class="node-label">U</text></g><g class="noselect gnode" struct_name="m" transform="translate(24.78,17.63)" r="6.5"><circle class="node" r="6" node_type="nucleotide" style="fill: lightgreen;"></circle><text text-anchor="middle" font-size="8" font-weight="bold" y="2.5" class="node-label">G</text></g><g class="noselect gnode" struct_name="m" transform="translate(22.44,2.22)" r="6.5"><circle class="node" r="6" node_type="nucleotide" style="fill: lightgreen;"></circle><text text-anchor="middle" font-size="8" font-weight="bold" y="2.5" class="node-label">U</text></g><g class="noselect gnode" struct_name="m" transform="translate(19.09,-13.09)" r="6.5"><circle class="node" r="6" node_type="nucleotide" style="fill: lightgreen;"></circle><text text-anchor="middle" font-size="8" font-weight="bold" y="2.5" class="node-label">U</text></g><g class="noselect gnode" struct_name="m" transform="translate(15.11,-28.34)" r="6.5"><circle class="node" r="6" node_type="nucleotide" style="fill: lightgreen;"></circle><text text-anchor="middle" font-size="8" font-weight="bold" y="2.5" class="node-label">C</text></g><g class="noselect gnode" struct_name="m" transform="translate(10.66,-43.34)" r="6.5"><circle class="node" r="6" node_type="nucleotide" style="fill: lightgreen;"></circle><text text-anchor="middle" font-size="8" font-weight="bold" y="2.5" class="node-label">U</text></g><g class="noselect gnode" struct_name="m" transform="translate(-1.96,-52.40)" r="6.5"><circle class="node" r="6" node_type="nucleotide" style="fill: lightblue;"></circle><text text-anchor="middle" font-size="8" font-weight="bold" y="2.5" class="node-label">U</text></g><g class="noselect gnode" struct_name="m" transform="translate(-2.75,-67.52)" r="6.5"><circle class="node" r="6" node_type="nucleotide" style="fill: lightblue;"></circle><text text-anchor="middle" font-size="8" font-weight="bold" y="2.5" class="node-label">A</text></g><g class="noselect gnode" struct_name="m" transform="translate(8.63,-77.64)" r="6.5"><circle class="node" r="6" node_type="nucleotide" style="fill: lightblue;"></circle><text text-anchor="middle" font-size="8" font-weight="bold" y="2.5" class="node-label">A</text></g><g class="noselect gnode" struct_name="m" transform="translate(23.65,-75.05)" r="6.5"><circle class="node" r="6" node_type="nucleotide" style="fill: lightblue;"></circle><text text-anchor="middle" font-size="8" font-weight="bold" y="2.5" class="node-label">U</text></g><g class="noselect gnode" struct_name="m" transform="translate(30.99,-61.73)" r="6.5"><circle class="node" r="6" node_type="nucleotide" style="fill: lightblue;"></circle><text text-anchor="middle" font-size="8" font-weight="bold" y="2.5" class="node-label">U</text></g><g class="noselect gnode" struct_name="m" transform="translate(25.11,-47.46)" r="6.5"><circle class="node" r="6" node_type="nucleotide" style="fill: lightgreen;"></circle><text text-anchor="middle" font-size="8" font-weight="bold" y="2.5" class="node-label">G</text></g><g class="noselect gnode" struct_name="m" transform="translate(29.22,-32.18)" r="6.5"><circle class="node" r="6" node_type="nucleotide" style="fill: lightgreen;"></circle><text text-anchor="middle" font-size="8" font-weight="bold" y="2.5" class="node-label">G</text></g><g class="noselect gnode" struct_name="m" transform="translate(33.29,-16.49)" r="6.5"><circle class="node" r="6" node_type="nucleotide" style="fill: lightgreen;"></circle><text text-anchor="middle" font-size="8" font-weight="bold" y="2.5" class="node-label">A</text></g><g class="noselect gnode" struct_name="m" transform="translate(36.74,-0.42)" r="6.5"><circle class="node" r="6" node_type="nucleotide" style="fill: lightgreen;"></circle><text text-anchor="middle" font-size="8" font-weight="bold" y="2.5" class="node-label">A</text></g><g class="noselect gnode" struct_name="m" transform="translate(39.20,16.12)" r="6.5"><circle class="node" r="6" node_type="nucleotide" style="fill: lightgreen;"></circle><text text-anchor="middle" font-size="8" font-weight="bold" y="2.5" class="node-label">C</text></g><g class="noselect gnode" struct_name="m" transform="translate(40.11,33.12)" r="6.5"><circle class="node" r="6" node_type="nucleotide" style="fill: lightgreen;"></circle><text text-anchor="middle" font-size="8" font-weight="bold" y="2.5" class="node-label">A</text></g><g class="noselect gnode" struct_name="m" transform="translate(38.90,50.27)" r="6.5"><circle class="node" r="6" node_type="nucleotide" style="fill: lightgreen;"></circle><text text-anchor="middle" font-size="8" font-weight="bold" y="2.5" class="node-label">A</text></g><g class="noselect gnode" struct_name="m" transform="translate(40.18,67.43)" r="6.5"><circle class="node" r="6" node_type="nucleotide" style="fill: lightgreen;"></circle><text text-anchor="middle" font-size="8" font-weight="bold" y="2.5" class="node-label">G</text></g><g class="noselect gnode" struct_name="m" transform="translate(43.94,84.29)" r="6.5"><circle class="node" r="6" node_type="nucleotide" style="fill: lightgreen;"></circle><text text-anchor="middle" font-size="8" font-weight="bold" y="2.5" class="node-label">U</text></g><g class="noselect gnode" struct_name="m" transform="translate(52.90,97.27)" r="6.5"><circle class="node" r="6" node_type="nucleotide" style="fill: rgb(219, 219, 141);"></circle><text text-anchor="middle" font-size="8" font-weight="bold" y="2.5" class="node-label">G</text></g><g class="noselect gnode" struct_name="m" transform="translate(46.21,111.40)" r="6.5"><circle class="node" r="6" node_type="nucleotide" style="fill: lightgreen;"></circle><text text-anchor="middle" font-size="8" font-weight="bold" y="2.5" class="node-label">C</text></g><g class="noselect gnode" struct_name="m" transform="translate(45.46,128.57)" r="6.5"><circle class="node" r="6" node_type="nucleotide" style="fill: lightgreen;"></circle><text text-anchor="middle" font-size="8" font-weight="bold" y="2.5" class="node-label">G</text></g><g class="noselect gnode" struct_name="m" transform="translate(50.75,144.40)" r="6.5"><circle class="node" r="6" node_type="nucleotide" style="fill: lightgreen;"></circle><text text-anchor="middle" font-size="8" font-weight="bold" y="2.5" class="node-label">U</text></g><g class="noselect gnode" struct_name="m" transform="translate(61.61,157.71)" r="6.5"><circle class="node" r="6" node_type="nucleotide" style="fill: lightgreen;"></circle><text text-anchor="middle" font-size="8" font-weight="bold" y="2.5" class="node-label">G</text></g><g class="noselect gnode" struct_name="m" transform="translate(70.42,172.27)" r="6.5"><circle class="node" r="6" node_type="nucleotide" style="fill: lightgreen;"></circle><text text-anchor="middle" font-size="8" font-weight="bold" y="2.5" class="node-label">G</text></g><g class="noselect gnode" struct_name="m" transform="translate(77.43,187.50)" r="6.5"><circle class="node" r="6" node_type="nucleotide" style="fill: lightgreen;"></circle><text text-anchor="middle" font-size="8" font-weight="bold" y="2.5" class="node-label">A</text></g><g class="noselect gnode" struct_name="m" transform="translate(83.02,202.98)" r="6.5"><circle class="node" r="6" node_type="nucleotide" style="fill: lightgreen;"></circle><text text-anchor="middle" font-size="8" font-weight="bold" y="2.5" class="node-label">G</text></g><g class="noselect gnode" struct_name="m" transform="translate(87.71,218.52)" r="6.5"><circle class="node" r="6" node_type="nucleotide" style="fill: lightgreen;"></circle><text text-anchor="middle" font-size="8" font-weight="bold" y="2.5" class="node-label">C</text></g><g class="noselect gnode" struct_name="m" transform="translate(92.08,234.00)" r="6.5"><circle class="node" r="6" node_type="nucleotide" style="fill: lightgreen;"></circle><text text-anchor="middle" font-size="8" font-weight="bold" y="2.5" class="node-label">C</text></g><g class="noselect gnode" struct_name="m" transform="translate(96.40,249.36)" r="6.5"><circle class="node" r="6" node_type="nucleotide" style="fill: lightgreen;"></circle><text text-anchor="middle" font-size="8" font-weight="bold" y="2.5" class="node-label">G</text></g><g class="noselect gnode" struct_name="m" transform="translate(101.05,264.44)" r="6.5"><circle class="node" r="6" node_type="nucleotide" style="fill: lightgreen;"></circle><text text-anchor="middle" font-size="8" font-weight="bold" y="2.5" class="node-label">G</text></g><g class="noselect gnode" struct_name="m" transform="translate(116.14,267.38)" r="6.5"><circle class="node" r="6" node_type="nucleotide" style="fill: lightsalmon;"></circle><text text-anchor="middle" font-size="8" font-weight="bold" y="2.5" class="node-label">C</text></g><g class="noselect gnode" struct_name="m" transform="translate(128.46,276.00)" r="6.5"><circle class="node" r="6" node_type="nucleotide" style="fill: lightsalmon;"></circle><text text-anchor="middle" font-size="8" font-weight="bold" y="2.5" class="node-label">U</text></g><g class="noselect gnode" struct_name="m" transform="translate(135.86,289.23)" r="6.5"><circle class="node" r="6" node_type="nucleotide" style="fill: lightsalmon;"></circle><text text-anchor="middle" font-size="8" font-weight="bold" y="2.5" class="node-label">G</text></g><g class="noselect gnode" struct_name="m" transform="translate(136.62,304.19)" r="6.5"><circle class="node" r="6" node_type="nucleotide" style="fill: lightsalmon;"></circle><text text-anchor="middle" font-size="8" font-weight="bold" y="2.5" class="node-label">A</text></g><g class="noselect gnode" struct_name="m" transform="translate(130.83,318.06)" r="6.5"><circle class="node" r="6" node_type="nucleotide" style="fill: lightsalmon;"></circle><text text-anchor="middle" font-size="8" font-weight="bold" y="2.5" class="node-label">A</text></g><g class="noselect gnode" struct_name="m" transform="translate(119.44,327.83)" r="6.5"><circle class="node" r="6" node_type="nucleotide" style="fill: lightsalmon;"></circle><text text-anchor="middle" font-size="8" font-weight="bold" y="2.5" class="node-label">A</text></g><g class="noselect gnode" struct_name="m" transform="translate(105.07,331.93)" r="6.5"><circle class="node" r="6" node_type="nucleotide" style="fill: lightsalmon;"></circle><text text-anchor="middle" font-size="8" font-weight="bold" y="2.5" class="node-label">A</text></g><g class="noselect gnode" struct_name="m" transform="translate(90.26,329.74)" r="6.5"><circle class="node" r="6" node_type="nucleotide" style="fill: lightsalmon;"></circle><text text-anchor="middle" font-size="8" font-weight="bold" y="2.5" class="node-label">A</text></g><g class="noselect gnode" struct_name="m" transform="translate(35.42,172.34)" r="6.5"><circle class="node label" r="6" node_type="label"></circle><text text-anchor="middle" font-size="8" font-weight="bold" y="2.5" class="node-label">10</text></g><g class="noselect gnode" struct_name="m" transform="translate(8.76,48.62)" r="6.5"><circle class="node label" r="6" node_type="label"></circle><text text-anchor="middle" font-size="8" font-weight="bold" y="2.5" class="node-label">20</text></g><g class="noselect gnode" struct_name="m" transform="translate(32.20,-87.88)" r="6.5"><circle class="node label" r="6" node_type="label"></circle><text text-anchor="middle" font-size="8" font-weight="bold" y="2.5" class="node-label">30</text></g><g class="noselect gnode" struct_name="m" transform="translate(59.42,82.20)" r="6.5"><circle class="node label" r="6" node_type="label"></circle><text text-anchor="middle" font-size="8" font-weight="bold" y="2.5" class="node-label">40</text></g><g class="noselect gnode" struct_name="m" transform="translate(107.06,229.64)" r="6.5"><circle class="node label" r="6" node_type="label"></circle><text text-anchor="middle" font-size="8" font-weight="bold" y="2.5" class="node-label">50</text></g><g class="noselect gnode" struct_name="m" transform="translate(81.72,342.58)" r="6.5"><circle class="node label" r="6" node_type="label"></circle><text text-anchor="middle" font-size="8" font-weight="bold" y="2.5" class="node-label">60</text></g><g class="noselect gnode" transform="translate(39.10,119.61)" r="6.5"><circle class="node" r="0" node_type="middle"></circle><text text-anchor="middle" font-size="8" font-weight="bold" y="2.5" class="node-label"></text></g><g class="noselect gnode" transform="translate(35.55,77.34)" r="6.5"><circle class="node" r="0" node_type="middle"></circle><text text-anchor="middle" font-size="8" font-weight="bold" y="2.5" class="node-label"></text></g><g class="noselect gnode" transform="translate(32.86,41.13)" r="6.5"><circle class="node" r="0" node_type="middle"></circle><text text-anchor="middle" font-size="8" font-weight="bold" y="2.5" class="node-label"></text></g><g class="noselect gnode" transform="translate(32.89,24.93)" r="6.5"><circle class="node" r="0" node_type="middle"></circle><text text-anchor="middle" font-size="8" font-weight="bold" y="2.5" class="node-label"></text></g><g class="noselect gnode" transform="translate(31.11,8.83)" r="6.5"><circle class="node" r="0" node_type="middle"></circle><text text-anchor="middle" font-size="8" font-weight="bold" y="2.5" class="node-label"></text></g><g class="noselect gnode" transform="translate(28.10,-7.02)" r="6.5"><circle class="node" r="0" node_type="middle"></circle><text text-anchor="middle" font-size="8" font-weight="bold" y="2.5" class="node-label"></text></g><g class="noselect gnode" transform="translate(24.29,-22.58)" r="6.5"><circle class="node" r="0" node_type="middle"></circle><text text-anchor="middle" font-size="8" font-weight="bold" y="2.5" class="node-label"></text></g><g class="noselect gnode" transform="translate(20.04,-37.95)" r="6.5"><circle class="node" r="0" node_type="middle"></circle><text text-anchor="middle" font-size="8" font-weight="bold" y="2.5" class="node-label"></text></g><g class="noselect gnode" transform="translate(91.62,259.09)" r="6.5"><circle class="node" r="0" node_type="middle"></circle><text text-anchor="middle" font-size="8" font-weight="bold" y="2.5" class="node-label"></text></g><g class="noselect gnode" transform="translate(87.18,243.72)" r="6.5"><circle class="node" r="0" node_type="middle"></circle><text text-anchor="middle" font-size="8" font-weight="bold" y="2.5" class="node-label"></text></g><g class="noselect gnode" transform="translate(82.88,228.27)" r="6.5"><circle class="node" r="0" node_type="middle"></circle><text text-anchor="middle" font-size="8" font-weight="bold" y="2.5" class="node-label"></text></g><g class="noselect gnode" transform="translate(78.52,212.86)" r="6.5"><circle class="node" r="0" node_type="middle"></circle><text text-anchor="middle" font-size="8" font-weight="bold" y="2.5" class="node-label"></text></g><g class="noselect gnode" transform="translate(73.64,197.68)" r="6.5"><circle class="node" r="0" node_type="middle"></circle><text text-anchor="middle" font-size="8" font-weight="bold" y="2.5" class="node-label"></text></g><g class="noselect gnode" transform="translate(67.71,182.79)" r="6.5"><circle class="node" r="0" node_type="middle"></circle><text text-anchor="middle" font-size="8" font-weight="bold" y="2.5" class="node-label"></text></g><g class="noselect gnode" transform="translate(60.27,168.54)" r="6.5"><circle class="node" r="0" node_type="middle"></circle><text text-anchor="middle" font-size="8" font-weight="bold" y="2.5" class="node-label"></text></g><g class="noselect gnode" transform="translate(51.10,155.40)" r="6.5"><circle class="node" r="0" node_type="middle"></circle><text text-anchor="middle" font-size="8" font-weight="bold" y="2.5" class="node-label"></text></g><g class="noselect gnode" transform="translate(77.85,321.06)" r="6.5"><circle class="node" r="0" node_type="middle"></circle><text text-anchor="middle" font-size="8" font-weight="bold" y="2.5" class="node-label"></text></g><g class="noselect gnode" transform="translate(70.61,308.30)" r="6.5"><circle class="node" r="0" node_type="middle"></circle><text text-anchor="middle" font-size="8" font-weight="bold" y="2.5" class="node-label"></text></g><g class="noselect gnode" transform="translate(103.25,298.30)" r="6.5"><circle class="node" r="0" node_type="middle"></circle><text text-anchor="middle" font-size="8" font-weight="bold" y="2.5" class="node-label"></text></g><g class="noselect gnode" transform="translate(13.50,-60.65)" r="6.5"><circle class="node" r="0" node_type="middle"></circle><text text-anchor="middle" font-size="8" font-weight="bold" y="2.5" class="node-label"></text></g><g class="noselect gnode" transform="translate(38.07,98.46)" r="6.5"><circle class="node" r="0" node_type="middle"></circle><text text-anchor="middle" font-size="8" font-weight="bold" y="2.5" class="node-label"></text></g><g class="noselect gnode" transform="translate(29.71,59.56)" r="6.5"><circle class="node" r="0" node_type="middle"></circle><text text-anchor="middle" font-size="8" font-weight="bold" y="2.5" class="node-label"></text></g><g class="noselect gnode" transform="translate(36.11,140.51)" r="6.5"><circle class="node" r="0" node_type="middle"></circle><text text-anchor="middle" font-size="8" font-weight="bold" y="2.5" class="node-label"></text></g></g><line class="drag_line" x1="0" y1="0" x2="0" y2="0"></line></g></g></svg>