<svg xmlns="http://www.w3.org/2000/svg" viewBox="0 0 760 640" width="760" height="640"><style>svg {
  display: block;
  min-width: 100%;
  width: 100%;
  min-height: 100%;
}

circle.node {
  stroke: #ccc;
  stroke-width: 1px;
  opacity: 1;
  fill: white;
}

circle.node.label {
    stroke: transparent;
    stroke-width: 0;
    fill: white;
}

circle.outline_node {
    stroke-width: 1px;
    fill: red;
}

circle.protein {
    fill: gray;
    fill-opacity: 0.5;
    stroke-width: 4;
}

circle.hidden_outline {
    stroke-width: 0px;
}


line.link {
  stroke: #999;
  stroke-opacity: 0.8;
  stroke-width: 2;
}

line.basepair {
  stroke: red;
}

line.intermolecule {
  stroke: blue;
}

line.chain_chain {
  stroke-dasharray: 3,3;
}

line.fake {
  stroke: green;
}

.transparent {
    fill: transparent;
    stroke-width: 0;
    stroke-opacity: 0;
    opacity: 0;
    visibility: hidden;
}

.drag_line {
  stroke: #999;
  stroke-width: 2;
  pointer-events: none;
}

.drag_line_hidden {
  stroke: #999;
  stroke-width: 0;
  pointer-events: none;
}

.d3-tip {
    line-height: 1;
    font-weight: bold;
    padding: 6px;
    background: rgba(0, 0, 0, 0.6);
    color: #fff;
    border-radius: 4px;
    pointer-events: none;
          }

text.node-label {
    font-weight: bold;
    font-family: Tahoma, Geneva, sans-serif;
    color: rgb(100,100,100);
    pointer-events: none;
}

text {
    pointer-events: none;
}

g.gnode {

}

circle.outline_node.selected {
    visibility: visible;
}

circle.outline_node {
    visibility: hidden;
}

.brush .extent {
  fill-opacity: .1;
  stroke: #fff;
  shape-rendering: crispEdges;
}

.noselect {
    -webkit-touch-callout: none;
    -webkit-user-select: none;
    -khtml-user-select: none;
    -moz-user-select: none;
    -ms-user-select: none;
    user-select: none;
}

svg {
  display: block;
  min-width: 100%;
  width: 100%;
  min-height: 100%;
}

circle.node {
  stroke: #ccc;
  stroke-width: 1px;
  opacity: 1;
  fill: white;
}

circle.node.label {
    stroke: transparent;
    stroke-width: 0;
    fill: white;
}

circle.outline_node {
    stroke-width: 1px;
    fill: red;
}

circle.protein {
    fill: gray;
    fill-opacity: 0.5;
    stroke-width: 4;
}

circle.hidden_outline {
    stroke-width: 0px;
}


line.link {
  stroke: #999;
  stroke-opacity: 0.8;
  stroke-width: 2;
}

line.basepair {
  stroke: red;
}

line.intermolecule {
  stroke: blue;
}

line.chain_chain {
  stroke-dasharray: 3,3;
}

line.fake {
  stroke: green;
}

.transparent {
    fill: transparent;
    stroke-width: 0;
    stroke-opacity: 0;
    opacity: 0;
    visibility: hidden;
}

.drag_line {
  stroke: #999;
  stroke-width: 2;
  pointer-events: none;
}

.drag_line_hidden {
  stroke: #999;
  stroke-width: 0;
  pointer-events: none;
}

.d3-tip {
    line-height: 1;
    font-weight: bold;
    padding: 6px;
    background: rgba(0, 0, 0, 0.6);
    color: #fff;
    border-radius: 4px;
    pointer-events: none;
          }

text.node-label {
    font-weight: bold;
    font-family: Tahoma, Geneva, sans-serif;
    color: rgb(100,100,100);
    pointer-events: none;
}

text {
    pointer-events: none;
}

g.gnode {

}

circle.outline_node.selected {
    visibility: visible;
}

circle.outline_node {
    visibility: hidden;
}

.brush .extent {
  fill-opacity: .1;
  stroke: #fff;
  shape-rendering: crispEdges;
}

.noselect {
    -webkit-touch-callout: none;
    -webkit-user-select: none;
    -khtml-user-select: none;
    -moz-user-select: none;
    -ms-user-select: none;
    user-select: none;
}
/*# sourceURL=/Users/yumanakamura/ipy_sandbox/sandbox/claude_sandbox/mrna-transformer-worktrees/feat-issue57-switch-derna-knotty/scripts/eval/prerender/forna_vendor/fornac.css*/</style><style></style><g><g class="brush" style="pointer-events: all; -webkit-tap-highlight-color: rgba(0, 0, 0, 0);"><rect class="background" x="0" width="760" y="0" height="640" style="visibility: hidden; cursor: auto;"></rect><rect class="extent" x="0" width="0" y="0" height="0" style="cursor: move;"></rect><g class="resize n" transform="translate(0,0)" style="cursor: ns-resize; display: none;"><rect y="-3" width="0" height="6" style="visibility: hidden;"></rect></g><g class="resize e" transform="translate(0,0)" style="cursor: ew-resize; display: none;"><rect x="-3" width="6" height="0" style="visibility: hidden;"></rect></g><g class="resize s" transform="translate(0,0)" style="cursor: ns-resize; display: none;"><rect y="-3" width="0" height="6" style="visibility: hidden;"></rect></g><g class="resize w" transform="translate(0,0)" style="cursor: ew-resize; display: none;"><rect x="-3" width="6" height="0" style="visibility: hidden;"></rect></g><g class="resize nw" transform="translate(0,0)" style="cursor: nwse-resize; display: none;"><rect x="-3" y="-3" width="6" height="6" style="visibility: hidden;"></rect></g><g class="resize ne" transform="translate(0,0)" style="cursor: nesw-resize; display: none;"><rect x="-3" y="-3" width="6" height="6" style="visibility: hidden;"></rect></g><g class="resize se" transform="translate(0,0)" style="cursor: nwse-resize; display: none;"><rect x="-3" y="-3" width="6" height="6" style="visibility: hidden;"></rect></g><g class="resize sw" transform="translate(0,0)" style="cursor: nesw-resize; display: none;"><rect x="-3" y="-3" width="6" height="6" style="visibility: hidden;"></rect></g></g><g transform="translate(318.85,130.36) scale(1.23)"><g><line class="link backbone" x1="50.59" y1="336.09" x2="52.50" y2="321.20"></line><line class="link basepair" x1="61.62" y1="308.98" x2="75.26" y2="302.83"></line><line class="link backbone" x1="52.50" y1="321.20" x2="61.62" y2="308.98"></line><line class="link basepair" x1="54.97" y1="295.44" x2="68.03" y2="288.31"></line><line class="link backbone" x1="61.62" y1="308.98" x2="54.97" y2="295.44"></line><line class="link backbone" x1="54.97" y1="295.44" x2="43.33" y2="285.38"></line><line class="link basepair" x1="49.57" y1="271.19" x2="64.40" y2="272.16"></line><line class="link backbone" x1="43.33" y1="285.38" x2="49.57" y2="271.19"></line><line class="link basepair" x1="50.16" y1="255.67" x2="64.67" y2="255.73"></line><line class="link backbone" x1="49.57" y1="271.19" x2="50.16" y2="255.67"></line><line class="link basepair" x1="49.86" y1="239.88" x2="64.45" y2="239.37"></line><line class="link backbone" x1="50.16" y1="255.67" x2="49.86" y2="239.88"></line><line class="link basepair" x1="49.06" y1="224.11" x2="63.56" y2="223.05"></line><line class="link backbone" x1="49.86" y1="239.88" x2="49.06" y2="224.11"></line><line class="link basepair" x1="47.57" y1="208.38" x2="62.05" y2="206.72"></line><line class="link backbone" x1="49.06" y1="224.11" x2="47.57" y2="208.38"></line><line class="link basepair" x1="45.44" y1="192.75" x2="59.87" y2="190.54"></line><line class="link backbone" x1="47.57" y1="208.38" x2="45.44" y2="192.75"></line><line class="link basepair" x1="42.78" y1="177.22" x2="57.17" y2="174.61"></line><line class="link backbone" x1="45.44" y1="192.75" x2="42.78" y2="177.22"></line><line class="link basepair" x1="39.81" y1="161.59" x2="54.13" y2="158.80"></line><line class="link backbone" x1="42.78" y1="177.22" x2="39.81" y2="161.59"></line><line class="link basepair" x1="36.71" y1="145.86" x2="51.05" y2="143.09"></line><line class="link backbone" x1="39.81" y1="161.59" x2="36.71" y2="145.86"></line><line class="link basepair" x1="33.73" y1="130.06" x2="48.11" y2="127.47"></line><line class="link backbone" x1="36.71" y1="145.86" x2="33.73" y2="130.06"></line><line class="link basepair" x1="30.89" y1="114.32" x2="45.51" y2="111.90"></line><line class="link backbone" x1="33.73" y1="130.06" x2="30.89" y2="114.32"></line><line class="link backbone" x1="30.89" y1="114.32" x2="18.52" y2="105.20"></line><line class="link backbone" x1="18.52" y1="105.20" x2="16.15" y2="90.46"></line><line class="link basepair" x1="25.11" y1="77.92" x2="39.68" y2="75.66"></line><line class="link backbone" x1="16.15" y1="90.46" x2="25.11" y2="77.92"></line><line class="link basepair" x1="22.64" y1="62.25" x2="37.23" y2="59.93"></line><line class="link backbone" x1="25.11" y1="77.92" x2="22.64" y2="62.25"></line><line class="link backbone" x1="22.64" y1="62.25" x2="10.22" y2="53.18"></line><line class="link backbone" x1="10.22" y1="53.18" x2="7.80" y2="38.45"></line><line class="link basepair" x1="16.69" y1="25.97" x2="31.27" y2="23.51"></line><line class="link backbone" x1="7.80" y1="38.45" x2="16.69" y2="25.97"></line><line class="link basepair" x1="14.06" y1="10.30" x2="28.38" y2="7.72"></line><line class="link backbone" x1="16.69" y1="25.97" x2="14.06" y2="10.30"></line><line class="link basepair" x1="11.11" y1="-5.38" x2="25.47" y2="-8.12"></line><line class="link backbone" x1="14.06" y1="10.30" x2="11.11" y2="-5.38"></line><line class="link basepair" x1="8.01" y1="-20.92" x2="22.41" y2="-23.82"></line><line class="link backbone" x1="11.11" y1="-5.38" x2="8.01" y2="-20.92"></line><line class="link basepair" x1="4.69" y1="-36.10" x2="19.44" y2="-39.18"></line><line class="link backbone" x1="8.01" y1="-20.92" x2="4.69" y2="-36.10"></line><line class="link backbone" x1="4.69" y1="-36.10" x2="-3.15" y2="-49.62"></line><line class="link backbone" x1="-3.15" y1="-49.62" x2="7.17" y2="-60.90"></line><line class="link backbone" x1="7.17" y1="-60.90" x2="21.19" y2="-54.71"></line><line class="link basepair" x1="19.44" y1="-39.18" x2="4.69" y2="-36.10"></line><line class="link backbone" x1="21.19" y1="-54.71" x2="19.44" y2="-39.18"></line><line class="link basepair" x1="22.41" y1="-23.82" x2="8.01" y2="-20.92"></line><line class="link backbone" x1="19.44" y1="-39.18" x2="22.41" y2="-23.82"></line><line class="link basepair" x1="25.47" y1="-8.12" x2="11.11" y2="-5.38"></line><line class="link backbone" x1="22.41" y1="-23.82" x2="25.47" y2="-8.12"></line><line class="link basepair" x1="28.38" y1="7.72" x2="14.06" y2="10.30"></line><line class="link backbone" x1="25.47" y1="-8.12" x2="28.38" y2="7.72"></line><line class="link basepair" x1="31.27" y1="23.51" x2="16.69" y2="25.97"></line><line class="link backbone" x1="28.38" y1="7.72" x2="31.27" y2="23.51"></line><line class="link backbone" x1="31.27" y1="23.51" x2="43.70" y2="32.59"></line><line class="link backbone" x1="43.70" y1="32.59" x2="46.11" y2="47.33"></line><line class="link basepair" x1="37.23" y1="59.93" x2="22.64" y2="62.25"></line><line class="link backbone" x1="46.11" y1="47.33" x2="37.23" y2="59.93"></line><line class="link basepair" x1="39.68" y1="75.66" x2="25.11" y2="77.92"></line><line class="link backbone" x1="37.23" y1="59.93" x2="39.68" y2="75.66"></line><line class="link backbone" x1="39.68" y1="75.66" x2="52.08" y2="84.70"></line><line class="link backbone" x1="52.08" y1="84.70" x2="54.43" y2="99.47"></line><line class="link basepair" x1="45.51" y1="111.90" x2="30.89" y2="114.32"></line><line class="link backbone" x1="54.43" y1="99.47" x2="45.51" y2="111.90"></line><line class="link basepair" x1="48.11" y1="127.47" x2="33.73" y2="130.06"></line><line class="link backbone" x1="45.51" y1="111.90" x2="48.11" y2="127.47"></line><line class="link basepair" x1="51.05" y1="143.09" x2="36.71" y2="145.86"></line><line class="link backbone" x1="48.11" y1="127.47" x2="51.05" y2="143.09"></line><line class="link basepair" x1="54.13" y1="158.80" x2="39.81" y2="161.59"></line><line class="link backbone" x1="51.05" y1="143.09" x2="54.13" y2="158.80"></line><line class="link basepair" x1="57.17" y1="174.61" x2="42.78" y2="177.22"></line><line class="link backbone" x1="54.13" y1="158.80" x2="57.17" y2="174.61"></line><line class="link basepair" x1="59.87" y1="190.54" x2="45.44" y2="192.75"></line><line class="link backbone" x1="57.17" y1="174.61" x2="59.87" y2="190.54"></line><line class="link basepair" x1="62.05" y1="206.72" x2="47.57" y2="208.38"></line><line class="link backbone" x1="59.87" y1="190.54" x2="62.05" y2="206.72"></line><line class="link basepair" x1="63.56" y1="223.05" x2="49.06" y2="224.11"></line><line class="link backbone" x1="62.05" y1="206.72" x2="63.56" y2="223.05"></line><line class="link basepair" x1="64.45" y1="239.37" x2="49.86" y2="239.88"></line><line class="link backbone" x1="63.56" y1="223.05" x2="64.45" y2="239.37"></line><line class="link basepair" x1="64.67" y1="255.73" x2="50.16" y2="255.67"></line><line class="link backbone" x1="64.45" y1="239.37" x2="64.67" y2="255.73"></line><line class="link basepair" x1="64.40" y1="272.16" x2="49.57" y2="271.19"></line><line class="link backbone" x1="64.67" y1="255.73" x2="64.40" y2="272.16"></line><line class="link basepair" x1="68.03" y1="288.31" x2="54.97" y2="295.44"></line><line class="link backbone" x1="64.40" y1="272.16" x2="68.03" y2="288.31"></line><line class="link basepair" x1="75.26" y1="302.83" x2="61.62" y2="308.98"></line><line class="link backbone" x1="68.03" y1="288.31" x2="75.26" y2="302.83"></line><line class="link backbone" x1="75.26" y1="302.83" x2="90.58" y2="305.54"></line><line class="link backbone" x1="90.58" y1="305.54" x2="102.40" y2="314.82"></line><line class="link backbone" x1="102.40" y1="314.82" x2="108.28" y2="328.86"></line><line class="link backbone" x1="108.28" y1="328.86" x2="106.04" y2="343.72"></line><line class="link backbone" x1="106.04" y1="343.72" x2="96.55" y2="355.40"></line><line class="link backbone" x1="96.55" y1="355.40" x2="82.46" y2="360.61"></line><line class="link label_link" x1="47.57" y1="208.38" x2="31.99" y2="209.01"></line><line class="link label_link" x1="22.64" y1="62.25" x2="8.17" y2="68.00"></line><line class="link label_link" x1="21.19" y1="-54.71" x2="30.60" y2="-66.96"></line><line class="link label_link" x1="52.08" y1="84.70" x2="67.36" y2="81.53"></line><line class="link label_link" x1="64.45" y1="239.37" x2="79.87" y2="236.96"></line><line class="link label_link" x1="82.46" y1="360.61" x2="79.37" y2="375.74"></line><line class="link fake transparent" x1="49.57" y1="271.19" x2="57.38" y2="263.76"></line><line class="link fake transparent" x1="49.57" y1="271.19" x2="64.67" y2="255.73"></line><line class="link fake transparent" x1="50.16" y1="255.67" x2="57.38" y2="263.76"></line><line class="link fake transparent" x1="64.67" y1="255.73" x2="57.38" y2="263.76"></line><line class="link fake transparent" x1="64.40" y1="272.16" x2="57.38" y2="263.76"></line><line class="link fake transparent" x1="50.16" y1="255.67" x2="57.40" y2="247.64"></line><line class="link fake transparent" x1="49.86" y1="239.88" x2="57.40" y2="247.64"></line><line class="link fake transparent" x1="64.45" y1="239.37" x2="57.40" y2="247.64"></line><line class="link fake transparent" x1="64.67" y1="255.73" x2="57.40" y2="247.64"></line><line class="link fake transparent" x1="49.86" y1="239.88" x2="56.88" y2="231.62"></line><line class="link fake transparent" x1="49.06" y1="224.11" x2="56.88" y2="231.62"></line><line class="link fake transparent" x1="63.56" y1="223.05" x2="56.88" y2="231.62"></line><line class="link fake transparent" x1="64.45" y1="239.37" x2="56.88" y2="231.62"></line><line class="link fake transparent" x1="49.06" y1="224.11" x2="55.74" y2="215.54"></line><line class="link fake transparent" x1="47.57" y1="208.38" x2="55.74" y2="215.54"></line><line class="link fake transparent" x1="62.05" y1="206.72" x2="55.74" y2="215.54"></line><line class="link fake transparent" x1="63.56" y1="223.05" x2="55.74" y2="215.54"></line><line class="link fake transparent" x1="47.57" y1="208.38" x2="53.90" y2="199.56"></line><line class="link fake transparent" x1="45.44" y1="192.75" x2="53.90" y2="199.56"></line><line class="link fake transparent" x1="59.87" y1="190.54" x2="53.90" y2="199.56"></line><line class="link fake transparent" x1="62.05" y1="206.72" x2="53.90" y2="199.56"></line><line class="link fake transparent" x1="45.44" y1="192.75" x2="51.43" y2="183.74"></line><line class="link fake transparent" x1="42.78" y1="177.22" x2="51.43" y2="183.74"></line><line class="link fake transparent" x1="57.17" y1="174.61" x2="51.43" y2="183.74"></line><line class="link fake transparent" x1="59.87" y1="190.54" x2="51.43" y2="183.74"></line><line class="link fake transparent" x1="42.78" y1="177.22" x2="48.52" y2="168.06"></line><line class="link fake transparent" x1="39.81" y1="161.59" x2="48.52" y2="168.06"></line><line class="link fake transparent" x1="54.13" y1="158.80" x2="48.52" y2="168.06"></line><line class="link fake transparent" x1="57.17" y1="174.61" x2="48.52" y2="168.06"></line><line class="link fake transparent" x1="39.81" y1="161.59" x2="45.41" y2="152.33"></line><line class="link fake transparent" x1="36.71" y1="145.86" x2="45.41" y2="152.33"></line><line class="link fake transparent" x1="51.05" y1="143.09" x2="45.41" y2="152.33"></line><line class="link fake transparent" x1="54.13" y1="158.80" x2="45.41" y2="152.33"></line><line class="link fake transparent" x1="36.71" y1="145.86" x2="42.34" y2="136.62"></line><line class="link fake transparent" x1="33.73" y1="130.06" x2="42.34" y2="136.62"></line><line class="link fake transparent" x1="48.11" y1="127.47" x2="42.34" y2="136.62"></line><line class="link fake transparent" x1="51.05" y1="143.09" x2="42.34" y2="136.62"></line><line class="link fake transparent" x1="33.73" y1="130.06" x2="39.49" y2="120.95"></line><line class="link fake transparent" x1="30.89" y1="114.32" x2="39.49" y2="120.95"></line><line class="link fake transparent" x1="45.51" y1="111.90" x2="39.49" y2="120.95"></line><line class="link fake transparent" x1="48.11" y1="127.47" x2="39.49" y2="120.95"></line><line class="link fake transparent" x1="25.11" y1="77.92" x2="31.19" y2="68.93"></line><line class="link fake transparent" x1="22.64" y1="62.25" x2="31.19" y2="68.93"></line><line class="link fake transparent" x1="37.23" y1="59.93" x2="31.19" y2="68.93"></line><line class="link fake transparent" x1="39.68" y1="75.66" x2="31.19" y2="68.93"></line><line class="link fake transparent" x1="61.62" y1="308.98" x2="65.18" y2="298.80"></line><line class="link fake transparent" x1="54.97" y1="295.44" x2="65.18" y2="298.80"></line><line class="link fake transparent" x1="68.03" y1="288.31" x2="65.18" y2="298.80"></line><line class="link fake transparent" x1="75.26" y1="302.83" x2="65.18" y2="298.80"></line><line class="link fake transparent" x1="16.69" y1="25.97" x2="22.65" y2="16.91"></line><line class="link fake transparent" x1="14.06" y1="10.30" x2="22.65" y2="16.91"></line><line class="link fake transparent" x1="28.38" y1="7.72" x2="22.65" y2="16.91"></line><line class="link fake transparent" x1="31.27" y1="23.51" x2="22.65" y2="16.91"></line><line class="link fake transparent" x1="14.06" y1="10.30" x2="19.79" y2="1.09"></line><line class="link fake transparent" x1="11.11" y1="-5.38" x2="19.79" y2="1.09"></line><line class="link fake transparent" x1="25.47" y1="-8.12" x2="19.79" y2="1.09"></line><line class="link fake transparent" x1="28.38" y1="7.72" x2="19.79" y2="1.09"></line><line class="link fake transparent" x1="11.11" y1="-5.38" x2="16.78" y2="-14.62"></line><line class="link fake transparent" x1="8.01" y1="-20.92" x2="16.78" y2="-14.62"></line><line class="link fake transparent" x1="22.41" y1="-23.82" x2="16.78" y2="-14.62"></line><line class="link fake transparent" x1="25.47" y1="-8.12" x2="16.78" y2="-14.62"></line><line class="link fake transparent" x1="8.01" y1="-20.92" x2="13.64" y2="-30.14"></line><line class="link fake transparent" x1="4.69" y1="-36.10" x2="13.64" y2="-30.14"></line><line class="link fake transparent" x1="19.44" y1="-39.18" x2="13.64" y2="-30.14"></line><line class="link fake transparent" x1="22.41" y1="-23.82" x2="13.64" y2="-30.14"></line><line class="link fake transparent" x1="50.59" y1="336.09" x2="79.33" y2="331.93"></line><line class="link fake transparent" x1="50.59" y1="336.09" x2="108.28" y2="328.86"></line><line class="link fake transparent" x1="52.50" y1="321.20" x2="79.33" y2="331.93"></line><line class="link fake transparent" x1="52.50" y1="321.20" x2="106.04" y2="343.72"></line><line class="link fake transparent" x1="61.62" y1="308.98" x2="79.33" y2="331.93"></line><line class="link fake transparent" x1="61.62" y1="308.98" x2="96.55" y2="355.40"></line><line class="link fake transparent" x1="75.26" y1="302.83" x2="79.33" y2="331.93"></line><line class="link fake transparent" x1="75.26" y1="302.83" x2="82.46" y2="360.61"></line><line class="link fake transparent" x1="90.58" y1="305.54" x2="79.33" y2="331.93"></line><line class="link fake transparent" x1="90.58" y1="305.54" x2="67.73" y2="359.18"></line><line class="link fake transparent" x1="102.40" y1="314.82" x2="79.33" y2="331.93"></line><line class="link fake transparent" x1="102.40" y1="314.82" x2="55.60" y2="349.79"></line><line class="link fake transparent" x1="108.28" y1="328.86" x2="79.33" y2="331.93"></line><line class="link fake transparent" x1="108.28" y1="328.86" x2="50.59" y2="336.09"></line><line class="link fake transparent" x1="106.04" y1="343.72" x2="79.33" y2="331.93"></line><line class="link fake transparent" x1="106.04" y1="343.72" x2="52.50" y2="321.20"></line><line class="link fake transparent" x1="96.55" y1="355.40" x2="79.33" y2="331.93"></line><line class="link fake transparent" x1="96.55" y1="355.40" x2="61.62" y2="308.98"></line><line class="link fake transparent" x1="82.46" y1="360.61" x2="79.33" y2="331.93"></line><line class="link fake transparent" x1="82.46" y1="360.61" x2="75.26" y2="302.83"></line><line class="link fake transparent" x1="4.69" y1="-36.10" x2="9.89" y2="-48.08"></line><line class="link fake transparent" x1="4.69" y1="-36.10" x2="7.17" y2="-60.90"></line><line class="link fake transparent" x1="-3.15" y1="-49.62" x2="9.89" y2="-48.08"></line><line class="link fake transparent" x1="-3.15" y1="-49.62" x2="21.19" y2="-54.71"></line><line class="link fake transparent" x1="7.17" y1="-60.90" x2="9.89" y2="-48.08"></line><line class="link fake transparent" x1="7.17" y1="-60.90" x2="19.44" y2="-39.18"></line><line class="link fake transparent" x1="21.19" y1="-54.71" x2="9.89" y2="-48.08"></line><line class="link fake transparent" x1="21.19" y1="-54.71" x2="4.69" y2="-36.10"></line><line class="link fake transparent" x1="19.44" y1="-39.18" x2="9.89" y2="-48.08"></line><line class="link fake transparent" x1="19.44" y1="-39.18" x2="-3.15" y2="-49.62"></line><line class="link fake transparent" x1="30.89" y1="114.32" x2="35.26" y2="94.96"></line><line class="link fake transparent" x1="30.89" y1="114.32" x2="39.68" y2="75.66"></line><line class="link fake transparent" x1="18.52" y1="105.20" x2="35.26" y2="94.96"></line><line class="link fake transparent" x1="18.52" y1="105.20" x2="52.08" y2="84.70"></line><line class="link fake transparent" x1="16.15" y1="90.46" x2="35.26" y2="94.96"></line><line class="link fake transparent" x1="16.15" y1="90.46" x2="54.43" y2="99.47"></line><line class="link fake transparent" x1="25.11" y1="77.92" x2="35.26" y2="94.96"></line><line class="link fake transparent" x1="25.11" y1="77.92" x2="45.51" y2="111.90"></line><line class="link fake transparent" x1="39.68" y1="75.66" x2="35.26" y2="94.96"></line><line class="link fake transparent" x1="39.68" y1="75.66" x2="30.89" y2="114.32"></line><line class="link fake transparent" x1="52.08" y1="84.70" x2="35.26" y2="94.96"></line><line class="link fake transparent" x1="52.08" y1="84.70" x2="18.52" y2="105.20"></line><line class="link fake transparent" x1="54.43" y1="99.47" x2="35.26" y2="94.96"></line><line class="link fake transparent" x1="54.43" y1="99.47" x2="16.15" y2="90.46"></line><line class="link fake transparent" x1="45.51" y1="111.90" x2="35.26" y2="94.96"></line><line class="link fake transparent" x1="45.51" y1="111.90" x2="25.11" y2="77.92"></line><line class="link fake transparent" x1="22.64" y1="62.25" x2="26.98" y2="42.90"></line><line class="link fake transparent" x1="22.64" y1="62.25" x2="31.27" y2="23.51"></line><line class="link fake transparent" x1="10.22" y1="53.18" x2="26.98" y2="42.90"></line><line class="link fake transparent" x1="10.22" y1="53.18" x2="43.70" y2="32.59"></line><line class="link fake transparent" x1="7.80" y1="38.45" x2="26.98" y2="42.90"></line><line class="link fake transparent" x1="7.80" y1="38.45" x2="46.11" y2="47.33"></line><line class="link fake transparent" x1="16.69" y1="25.97" x2="26.98" y2="42.90"></line><line class="link fake transparent" x1="16.69" y1="25.97" x2="37.23" y2="59.93"></line><line class="link fake transparent" x1="31.27" y1="23.51" x2="26.98" y2="42.90"></line><line class="link fake transparent" x1="31.27" y1="23.51" x2="22.64" y2="62.25"></line><line class="link fake transparent" x1="43.70" y1="32.59" x2="26.98" y2="42.90"></line><line class="link fake transparent" x1="43.70" y1="32.59" x2="10.22" y2="53.18"></line><line class="link fake transparent" x1="46.11" y1="47.33" x2="26.98" y2="42.90"></line><line class="link fake transparent" x1="46.11" y1="47.33" x2="7.80" y2="38.45"></line><line class="link fake transparent" x1="37.23" y1="59.93" x2="26.98" y2="42.90"></line><line class="link fake transparent" x1="37.23" y1="59.93" x2="16.69" y2="25.97"></line><line class="link fake transparent" x1="54.97" y1="295.44" x2="56.31" y2="282.44"></line><line class="link fake transparent" x1="54.97" y1="295.44" x2="49.57" y2="271.19"></line><line class="link fake transparent" x1="43.33" y1="285.38" x2="56.31" y2="282.44"></line><line class="link fake transparent" x1="43.33" y1="285.38" x2="64.40" y2="272.16"></line><line class="link fake transparent" x1="49.57" y1="271.19" x2="56.31" y2="282.44"></line><line class="link fake transparent" x1="49.57" y1="271.19" x2="68.03" y2="288.31"></line><line class="link fake transparent" x1="64.40" y1="272.16" x2="56.31" y2="282.44"></line><line class="link fake transparent" x1="64.40" y1="272.16" x2="54.97" y2="295.44"></line><line class="link fake transparent" x1="68.03" y1="288.31" x2="56.31" y2="282.44"></line><line class="link fake transparent" x1="68.03" y1="288.31" x2="43.33" y2="285.38"></line></g><g><g class="noselect gnode" struct_name="m" transform="translate(50.59,336.09)" r="6.5"><circle class="node" r="6" node_type="nucleotide" style="fill: lightsalmon;"></circle><text text-anchor="middle" font-size="8" font-weight="bold" y="2.5" class="node-label">G</text></g><g class="noselect gnode" struct_name="m" transform="translate(52.50,321.20)" r="6.5"><circle class="node" r="6" node_type="nucleotide" style="fill: lightsalmon;"></circle><text text-anchor="middle" font-size="8" font-weight="bold" y="2.5" class="node-label">U</text></g><g class="noselect gnode" struct_name="m" transform="translate(61.62,308.98)" r="6.5"><circle class="node" r="6" node_type="nucleotide" style="fill: lightgreen;"></circle><text text-anchor="middle" font-size="8" font-weight="bold" y="2.5" class="node-label">G</text></g><g class="noselect gnode" struct_name="m" transform="translate(54.97,295.44)" r="6.5"><circle class="node" r="6" node_type="nucleotide" style="fill: lightgreen;"></circle><text text-anchor="middle" font-size="8" font-weight="bold" y="2.5" class="node-label">G</text></g><g class="noselect gnode" struct_name="m" transform="translate(43.33,285.38)" r="6.5"><circle class="node" r="6" node_type="nucleotide" style="fill: rgb(219, 219, 141);"></circle><text text-anchor="middle" font-size="8" font-weight="bold" y="2.5" class="node-label">A</text></g><g class="noselect gnode" struct_name="m" transform="translate(49.57,271.19)" r="6.5"><circle class="node" r="6" node_type="nucleotide" style="fill: lightgreen;"></circle><text text-anchor="middle" font-size="8" font-weight="bold" y="2.5" class="node-label">U</text></g><g class="noselect gnode" struct_name="m" transform="translate(50.16,255.67)" r="6.5"><circle class="node" r="6" node_type="nucleotide" style="fill: lightgreen;"></circle><text text-anchor="middle" font-size="8" font-weight="bold" y="2.5" class="node-label">A</text></g><g class="noselect gnode" struct_name="m" transform="translate(49.86,239.88)" r="6.5"><circle class="node" r="6" node_type="nucleotide" style="fill: lightgreen;"></circle><text text-anchor="middle" font-size="8" font-weight="bold" y="2.5" class="node-label">U</text></g><g class="noselect gnode" struct_name="m" transform="translate(49.06,224.11)" r="6.5"><circle class="node" r="6" node_type="nucleotide" style="fill: lightgreen;"></circle><text text-anchor="middle" font-size="8" font-weight="bold" y="2.5" class="node-label">U</text></g><g class="noselect gnode" struct_name="m" transform="translate(47.57,208.38)" r="6.5"><circle class="node" r="6" node_type="nucleotide" style="fill: lightgreen;"></circle><text text-anchor="middle" font-size="8" font-weight="bold" y="2.5" class="node-label">U</text></g><g class="noselect gnode" struct_name="m" transform="translate(45.44,192.75)" r="6.5"><circle class="node" r="6" node_type="nucleotide" style="fill: lightgreen;"></circle><text text-anchor="middle" font-size="8" font-weight="bold" y="2.5" class="node-label">A</text></g><g class="noselect gnode" struct_name="m" transform="translate(42.78,177.22)" r="6.5"><circle class="node" r="6" node_type="nucleotide" style="fill: lightgreen;"></circle><text text-anchor="middle" font-size="8" font-weight="bold" y="2.5" class="node-label">C</text></g><g class="noselect gnode" struct_name="m" transform="translate(39.81,161.59)" r="6.5"><circle class="node" r="6" node_type="nucleotide" style="fill: lightgreen;"></circle><text text-anchor="middle" font-size="8" font-weight="bold" y="2.5" class="node-label">A</text></g><g class="noselect gnode" struct_name="m" transform="translate(36.71,145.86)" r="6.5"><circle class="node" r="6" node_type="nucleotide" style="fill: lightgreen;"></circle><text text-anchor="middle" font-size="8" font-weight="bold" y="2.5" class="node-label">U</text></g><g class="noselect gnode" struct_name="m" transform="translate(33.73,130.06)" r="6.5"><circle class="node" r="6" node_type="nucleotide" style="fill: lightgreen;"></circle><text text-anchor="middle" font-size="8" font-weight="bold" y="2.5" class="node-label">G</text></g><g class="noselect gnode" struct_name="m" transform="translate(30.89,114.32)" r="6.5"><circle class="node" r="6" node_type="nucleotide" style="fill: lightgreen;"></circle><text text-anchor="middle" font-size="8" font-weight="bold" y="2.5" class="node-label">G</text></g><g class="noselect gnode" struct_name="m" transform="translate(18.52,105.20)" r="6.5"><circle class="node" r="6" node_type="nucleotide" style="fill: rgb(219, 219, 141);"></circle><text text-anchor="middle" font-size="8" font-weight="bold" y="2.5" class="node-label">A</text></g><g class="noselect gnode" struct_name="m" transform="translate(16.15,90.46)" r="6.5"><circle class="node" r="6" node_type="nucleotide" style="fill: rgb(219, 219, 141);"></circle><text text-anchor="middle" font-size="8" font-weight="bold" y="2.5" class="node-label">G</text></g><g class="noselect gnode" struct_name="m" transform="translate(25.11,77.92)" r="6.5"><circle class="node" r="6" node_type="nucleotide" style="fill: lightgreen;"></circle><text text-anchor="middle" font-size="8" font-weight="bold" y="2.5" class="node-label">G</text></g><g class="noselect gnode" struct_name="m" transform="translate(22.64,62.25)" r="6.5"><circle class="node" r="6" node_type="nucleotide" style="fill: lightgreen;"></circle><text text-anchor="middle" font-size="8" font-weight="bold" y="2.5" class="node-label">A</text></g><g class="noselect gnode" struct_name="m" transform="translate(10.22,53.18)" r="6.5"><circle class="node" r="6" node_type="nucleotide" style="fill: rgb(219, 219, 141);"></circle><text text-anchor="middle" font-size="8" font-weight="bold" y="2.5" class="node-label">G</text></g><g class="noselect gnode" struct_name="m" transform="translate(7.80,38.45)" r="6.5"><circle class="node" r="6" node_type="nucleotide" style="fill: rgb(219, 219, 141);"></circle><text text-anchor="middle" font-size="8" font-weight="bold" y="2.5" class="node-label">U</text></g><g class="noselect gnode" struct_name="m" transform="translate(16.69,25.97)" r="6.5"><circle class="node" r="6" node_type="nucleotide" style="fill: lightgreen;"></circle><text text-anchor="middle" font-size="8" font-weight="bold" y="2.5" class="node-label">U</text></g><g class="noselect gnode" struct_name="m" transform="translate(14.06,10.30)" r="6.5"><circle class="node" r="6" node_type="nucleotide" style="fill: lightgreen;"></circle><text text-anchor="middle" font-size="8" font-weight="bold" y="2.5" class="node-label">C</text></g><g class="noselect gnode" struct_name="m" transform="translate(11.11,-5.38)" r="6.5"><circle class="node" r="6" node_type="nucleotide" style="fill: lightgreen;"></circle><text text-anchor="middle" font-size="8" font-weight="bold" y="2.5" class="node-label">A</text></g><g class="noselect gnode" struct_name="m" transform="translate(8.01,-20.92)" r="6.5"><circle class="node" r="6" node_type="nucleotide" style="fill: lightgreen;"></circle><text text-anchor="middle" font-size="8" font-weight="bold" y="2.5" class="node-label">A</text></g><g class="noselect gnode" struct_name="m" transform="translate(4.69,-36.10)" r="6.5"><circle class="node" r="6" node_type="nucleotide" style="fill: lightgreen;"></circle><text text-anchor="middle" font-size="8" font-weight="bold" y="2.5" class="node-label">U</text></g><g class="noselect gnode" struct_name="m" transform="translate(-3.15,-49.62)" r="6.5"><circle class="node" r="6" node_type="nucleotide" style="fill: lightblue;"></circle><text text-anchor="middle" font-size="8" font-weight="bold" y="2.5" class="node-label">G</text></g><g class="noselect gnode" struct_name="m" transform="translate(7.17,-60.90)" r="6.5"><circle class="node" r="6" node_type="nucleotide" style="fill: lightblue;"></circle><text text-anchor="middle" font-size="8" font-weight="bold" y="2.5" class="node-label">A</text></g><g class="noselect gnode" struct_name="m" transform="translate(21.19,-54.71)" r="6.5"><circle class="node" r="6" node_type="nucleotide" style="fill: lightblue;"></circle><text text-anchor="middle" font-size="8" font-weight="bold" y="2.5" class="node-label">A</text></g><g class="noselect gnode" struct_name="m" transform="translate(19.44,-39.18)" r="6.5"><circle class="node" r="6" node_type="nucleotide" style="fill: lightgreen;"></circle><text text-anchor="middle" font-size="8" font-weight="bold" y="2.5" class="node-label">A</text></g><g class="noselect gnode" struct_name="m" transform="translate(22.41,-23.82)" r="6.5"><circle class="node" r="6" node_type="nucleotide" style="fill: lightgreen;"></circle><text text-anchor="middle" font-size="8" font-weight="bold" y="2.5" class="node-label">U</text></g><g class="noselect gnode" struct_name="m" transform="translate(25.47,-8.12)" r="6.5"><circle class="node" r="6" node_type="nucleotide" style="fill: lightgreen;"></circle><text text-anchor="middle" font-size="8" font-weight="bold" y="2.5" class="node-label">U</text></g><g class="noselect gnode" struct_name="m" transform="translate(28.38,7.72)" r="6.5"><circle class="node" r="6" node_type="nucleotide" style="fill: lightgreen;"></circle><text text-anchor="middle" font-size="8" font-weight="bold" y="2.5" class="node-label">G</text></g><g class="noselect gnode" struct_name="m" transform="translate(31.27,23.51)" r="6.5"><circle class="node" r="6" node_type="nucleotide" style="fill: lightgreen;"></circle><text text-anchor="middle" font-size="8" font-weight="bold" y="2.5" class="node-label">A</text></g><g class="noselect gnode" struct_name="m" transform="translate(43.70,32.59)" r="6.5"><circle class="node" r="6" node_type="nucleotide" style="fill: rgb(219, 219, 141);"></circle><text text-anchor="middle" font-size="8" font-weight="bold" y="2.5" class="node-label">U</text></g><g class="noselect gnode" struct_name="m" transform="translate(46.11,47.33)" r="6.5"><circle class="node" r="6" node_type="nucleotide" style="fill: rgb(219, 219, 141);"></circle><text text-anchor="middle" font-size="8" font-weight="bold" y="2.5" class="node-label">A</text></g><g class="noselect gnode" struct_name="m" transform="translate(37.23,59.93)" r="6.5"><circle class="node" r="6" node_type="nucleotide" style="fill: lightgreen;"></circle><text text-anchor="middle" font-size="8" font-weight="bold" y="2.5" class="node-label">U</text></g><g class="noselect gnode" struct_name="m" transform="translate(39.68,75.66)" r="6.5"><circle class="node" r="6" node_type="nucleotide" style="fill: lightgreen;"></circle><text text-anchor="middle" font-size="8" font-weight="bold" y="2.5" class="node-label">C</text></g><g class="noselect gnode" struct_name="m" transform="translate(52.08,84.70)" r="6.5"><circle class="node" r="6" node_type="nucleotide" style="fill: rgb(219, 219, 141);"></circle><text text-anchor="middle" font-size="8" font-weight="bold" y="2.5" class="node-label">G</text></g><g class="noselect gnode" struct_name="m" transform="translate(54.43,99.47)" r="6.5"><circle class="node" r="6" node_type="nucleotide" style="fill: rgb(219, 219, 141);"></circle><text text-anchor="middle" font-size="8" font-weight="bold" y="2.5" class="node-label">C</text></g><g class="noselect gnode" struct_name="m" transform="translate(45.51,111.90)" r="6.5"><circle class="node" r="6" node_type="nucleotide" style="fill: lightgreen;"></circle><text text-anchor="middle" font-size="8" font-weight="bold" y="2.5" class="node-label">C</text></g><g class="noselect gnode" struct_name="m" transform="translate(48.11,127.47)" r="6.5"><circle class="node" r="6" node_type="nucleotide" style="fill: lightgreen;"></circle><text text-anchor="middle" font-size="8" font-weight="bold" y="2.5" class="node-label">C</text></g><g class="noselect gnode" struct_name="m" transform="translate(51.05,143.09)" r="6.5"><circle class="node" r="6" node_type="nucleotide" style="fill: lightgreen;"></circle><text text-anchor="middle" font-size="8" font-weight="bold" y="2.5" class="node-label">G</text></g><g class="noselect gnode" struct_name="m" transform="translate(54.13,158.80)" r="6.5"><circle class="node" r="6" node_type="nucleotide" style="fill: lightgreen;"></circle><text text-anchor="middle" font-size="8" font-weight="bold" y="2.5" class="node-label">U</text></g><g class="noselect gnode" struct_name="m" transform="translate(57.17,174.61)" r="6.5"><circle class="node" r="6" node_type="nucleotide" style="fill: lightgreen;"></circle><text text-anchor="middle" font-size="8" font-weight="bold" y="2.5" class="node-label">G</text></g><g class="noselect gnode" struct_name="m" transform="translate(59.87,190.54)" r="6.5"><circle class="node" r="6" node_type="nucleotide" style="fill: lightgreen;"></circle><text text-anchor="middle" font-size="8" font-weight="bold" y="2.5" class="node-label">U</text></g><g class="noselect gnode" struct_name="m" transform="translate(62.05,206.72)" r="6.5"><circle class="node" r="6" node_type="nucleotide" style="fill: lightgreen;"></circle><text text-anchor="middle" font-size="8" font-weight="bold" y="2.5" class="node-label">G</text></g><g class="noselect gnode" struct_name="m" transform="translate(63.56,223.05)" r="6.5"><circle class="node" r="6" node_type="nucleotide" style="fill: lightgreen;"></circle><text text-anchor="middle" font-size="8" font-weight="bold" y="2.5" class="node-label">A</text></g><g class="noselect gnode" struct_name="m" transform="translate(64.45,239.37)" r="6.5"><circle class="node" r="6" node_type="nucleotide" style="fill: lightgreen;"></circle><text text-anchor="middle" font-size="8" font-weight="bold" y="2.5" class="node-label">A</text></g><g class="noselect gnode" struct_name="m" transform="translate(64.67,255.73)" r="6.5"><circle class="node" r="6" node_type="nucleotide" style="fill: lightgreen;"></circle><text text-anchor="middle" font-size="8" font-weight="bold" y="2.5" class="node-label">U</text></g><g class="noselect gnode" struct_name="m" transform="translate(64.40,272.16)" r="6.5"><circle class="node" r="6" node_type="nucleotide" style="fill: lightgreen;"></circle><text text-anchor="middle" font-size="8" font-weight="bold" y="2.5" class="node-label">A</text></g><g class="noselect gnode" struct_name="m" transform="translate(68.03,288.31)" r="6.5"><circle class="node" r="6" node_type="nucleotide" style="fill: lightgreen;"></circle><text text-anchor="middle" font-size="8" font-weight="bold" y="2.5" class="node-label">C</text></g><g class="noselect gnode" struct_name="m" transform="translate(75.26,302.83)" r="6.5"><circle class="node" r="6" node_type="nucleotide" style="fill: lightgreen;"></circle><text text-anchor="middle" font-size="8" font-weight="bold" y="2.5" class="node-label">C</text></g><g class="noselect gnode" struct_name="m" transform="translate(90.58,305.54)" r="6.5"><circle class="node" r="6" node_type="nucleotide" style="fill: lightsalmon;"></circle><text text-anchor="middle" font-size="8" font-weight="bold" y="2.5" class="node-label">U</text></g><g class="noselect gnode" struct_name="m" transform="translate(102.40,314.82)" r="6.5"><circle class="node" r="6" node_type="nucleotide" style="fill: lightsalmon;"></circle><text text-anchor="middle" font-size="8" font-weight="bold" y="2.5" class="node-label">G</text></g><g class="noselect gnode" struct_name="m" transform="translate(108.28,328.86)" r="6.5"><circle class="node" r="6" node_type="nucleotide" style="fill: lightsalmon;"></circle><text text-anchor="middle" font-size="8" font-weight="bold" y="2.5" class="node-label">G</text></g><g class="noselect gnode" struct_name="m" transform="translate(106.04,343.72)" r="6.5"><circle class="node" r="6" node_type="nucleotide" style="fill: lightsalmon;"></circle><text text-anchor="middle" font-size="8" font-weight="bold" y="2.5" class="node-label">A</text></g><g class="noselect gnode" struct_name="m" transform="translate(96.55,355.40)" r="6.5"><circle class="node" r="6" node_type="nucleotide" style="fill: lightsalmon;"></circle><text text-anchor="middle" font-size="8" font-weight="bold" y="2.5" class="node-label">A</text></g><g class="noselect gnode" struct_name="m" transform="translate(82.46,360.61)" r="6.5"><circle class="node" r="6" node_type="nucleotide" style="fill: lightsalmon;"></circle><text text-anchor="middle" font-size="8" font-weight="bold" y="2.5" class="node-label">A</text></g><g class="noselect gnode" struct_name="m" transform="translate(31.99,209.01)" r="6.5"><circle class="node label" r="6" node_type="label"></circle><text text-anchor="middle" font-size="8" font-weight="bold" y="2.5" class="node-label">10</text></g><g class="noselect gnode" struct_name="m" transform="translate(8.17,68.00)" r="6.5"><circle class="node label" r="6" node_type="label"></circle><text text-anchor="middle" font-size="8" font-weight="bold" y="2.5" class="node-label">20</text></g><g class="noselect gnode" struct_name="m" transform="translate(30.60,-66.96)" r="6.5"><circle class="node label" r="6" node_type="label"></circle><text text-anchor="middle" font-size="8" font-weight="bold" y="2.5" class="node-label">30</text></g><g class="noselect gnode" struct_name="m" transform="translate(67.36,81.53)" r="6.5"><circle class="node label" r="6" node_type="label"></circle><text text-anchor="middle" font-size="8" font-weight="bold" y="2.5" class="node-label">40</text></g><g class="noselect gnode" struct_name="m" transform="translate(79.87,236.96)" r="6.5"><circle class="node label" r="6" node_type="label"></circle><text text-anchor="middle" font-size="8" font-weight="bold" y="2.5" class="node-label">50</text></g><g class="noselect gnode" struct_name="m" transform="translate(79.37,375.74)" r="6.5"><circle class="node label" r="6" node_type="label"></circle><text text-anchor="middle" font-size="8" font-weight="bold" y="2.5" class="node-label">60</text></g><g class="noselect gnode" transform="translate(57.38,263.76)" r="6.5"><circle class="node" r="0" node_type="middle"></circle><text text-anchor="middle" font-size="8" font-weight="bold" y="2.5" class="node-label"></text></g><g class="noselect gnode" transform="translate(57.40,247.64)" r="6.5"><circle class="node" r="0" node_type="middle"></circle><text text-anchor="middle" font-size="8" font-weight="bold" y="2.5" class="node-label"></text></g><g class="noselect gnode" transform="translate(56.88,231.62)" r="6.5"><circle class="node" r="0" node_type="middle"></circle><text text-anchor="middle" font-size="8" font-weight="bold" y="2.5" class="node-label"></text></g><g class="noselect gnode" transform="translate(55.74,215.54)" r="6.5"><circle class="node" r="0" node_type="middle"></circle><text text-anchor="middle" font-size="8" font-weight="bold" y="2.5" class="node-label"></text></g><g class="noselect gnode" transform="translate(53.90,199.56)" r="6.5"><circle class="node" r="0" node_type="middle"></circle><text text-anchor="middle" font-size="8" font-weight="bold" y="2.5" class="node-label"></text></g><g class="noselect gnode" transform="translate(51.43,183.74)" r="6.5"><circle class="node" r="0" node_type="middle"></circle><text text-anchor="middle" font-size="8" font-weight="bold" y="2.5" class="node-label"></text></g><g class="noselect gnode" transform="translate(48.52,168.06)" r="6.5"><circle class="node" r="0" node_type="middle"></circle><text text-anchor="middle" font-size="8" font-weight="bold" y="2.5" class="node-label"></text></g><g class="noselect gnode" transform="translate(45.41,152.33)" r="6.5"><circle class="node" r="0" node_type="middle"></circle><text text-anchor="middle" font-size="8" font-weight="bold" y="2.5" class="node-label"></text></g><g class="noselect gnode" transform="translate(42.34,136.62)" r="6.5"><circle class="node" r="0" node_type="middle"></circle><text text-anchor="middle" font-size="8" font-weight="bold" y="2.5" class="node-label"></text></g><g class="noselect gnode" transform="translate(39.49,120.95)" r="6.5"><circle class="node" r="0" node_type="middle"></circle><text text-anchor="middle" font-size="8" font-weight="bold" y="2.5" class="node-label"></text></g><g class="noselect gnode" transform="translate(31.19,68.93)" r="6.5"><circle class="node" r="0" node_type="middle"></circle><text text-anchor="middle" font-size="8" font-weight="bold" y="2.5" class="node-label"></text></g><g class="noselect gnode" transform="translate(65.18,298.80)" r="6.5"><circle class="node" r="0" node_type="middle"></circle><text text-anchor="middle" font-size="8" font-weight="bold" y="2.5" class="node-label"></text></g><g class="noselect gnode" transform="translate(22.65,16.91)" r="6.5"><circle class="node" r="0" node_type="middle"></circle><text text-anchor="middle" font-size="8" font-weight="bold" y="2.5" class="node-label"></text></g><g class="noselect gnode" transform="translate(19.79,1.09)" r="6.5"><circle class="node" r="0" node_type="middle"></circle><text text-anchor="middle" font-size="8" font-weight="bold" y="2.5" class="node-label"></text></g><g class="noselect gnode" transform="translate(16.78,-14.62)" r="6.5"><circle class="node" r="0" node_type="middle"></circle><text text-anchor="middle" font-size="8" font-weight="bold" y="2.5" class="node-label"></text></g><g class="noselect gnode" transform="translate(13.64,-30.14)" r="6.5"><circle class="node" r="0" node_type="middle"></circle><text text-anchor="middle" font-size="8" font-weight="bold" y="2.5" class="node-label"></text></g><g class="noselect gnode" transform="translate(67.73,359.18)" r="6.5"><circle class="node" r="0" node_type="middle"></circle><text text-anchor="middle" font-size="8" font-weight="bold" y="2.5" class="node-label"></text></g><g class="noselect gnode" transform="translate(55.60,349.79)" r="6.5"><circle class="node" r="0" node_type="middle"></circle><text text-anchor="middle" font-size="8" font-weight="bold" y="2.5" class="node-label"></text></g><g class="noselect gnode" transform="translate(79.33,331.93)" r="6.5"><circle class="node" r="0" node_type="middle"></circle><text text-anchor="middle" font-size="8" font-weight="bold" y="2.5" class="node-label"></text></g><g class="noselect gnode" transform="translate(9.89,-48.08)" r="6.5"><circle class="node" r="0" node_type="middle"></circle><text text-anchor="middle" font-size="8" font-weight="bold" y="2.5" class="node-label"></text></g><g class="noselect gnode" transform="translate(35.26,94.96)" r="6.5"><circle class="node" r="0" node_type="middle"></circle><text text-anchor="middle" font-size="8" font-weight="bold" y="2.5" class="node-label"></text></g><g class="noselect gnode" transform="translate(26.98,42.90)" r="6.5"><circle class="node" r="0" node_type="middle"></circle><text text-anchor="middle" font-size="8" font-weight="bold" y="2.5" class="node-label"></text></g><g class="noselect gnode" transform="translate(56.31,282.44)" r="6.5"><circle class="node" r="0" node_type="middle"></circle><text text-anchor="middle" font-size="8" font-weight="bold" y="2.5" class="node-label"></text></g></g><line class="drag_line" x1="0" y1="0" x2="0" y2="0"></line></g></g></svg>