<svg xmlns="http://www.w3.org/2000/svg" viewBox="0 0 760 640" width="760" height="640"><style>svg {
  display: block;
  min-width: 100%;
  width: 100%;
  min-height: 100%;
}

circle.node {
  stroke: #ccc;
  stroke-width: 1px;
  opacity: 1;
  fill: white;
}

circle.node.label {
    stroke: transparent;
    stroke-width: 0;
    fill: white;
}

circle.outline_node {
    stroke-width: 1px;
    fill: red;
}

circle.protein {
    fill: gray;
    fill-opacity: 0.5;
    stroke-width: 4;
}

circle.hidden_outline {
    stroke-width: 0px;
}


line.link {
  stroke: #999;
  stroke-opacity: 0.8;
  stroke-width: 2;
}

line.basepair {
  stroke: red;
}

line.intermolecule {
  stroke: blue;
}

line.chain_chain {
  stroke-dasharray: 3,3;
}

line.fake {
  stroke: green;
}

.transparent {
    fill: transparent;
    stroke-width: 0;
    stroke-opacity: 0;
    opacity: 0;
    visibility: hidden;
}

.drag_line {
  stroke: #999;
  stroke-width: 2;
  pointer-events: none;
}

.drag_line_hidden {
  stroke: #999;
  stroke-width: 0;
  pointer-events: none;
}

.d3-tip {
    line-height: 1;
    font-weight: bold;
    padding: 6px;
    background: rgba(0, 0, 0, 0.6);
    color: #fff;
    border-radius: 4px;
    pointer-events: none;
          }

text.node-label {
    font-weight: bold;
    font-family: Tahoma, Geneva, sans-serif;
    color: rgb(100,100,100);
    pointer-events: none;
}

text {
    pointer-events: none;
}

g.gnode {

}

circle.outline_node.selected {
    visibility: visible;
}

circle.outline_node {
    visibility: hidden;
}

.brush .extent {
  fill-opacity: .1;
  stroke: #fff;
  shape-rendering: crispEdges;
}

.noselect {
    -webkit-touch-callout: none;
    -webkit-user-select: none;
    -khtml-user-select: none;
    -moz-user-select: none;
    -ms-user-select: none;
    user-select: none;
}

svg {
  display: block;
  min-width: 100%;
  width: 100%;
  min-height: 100%;
}

circle.node {
  stroke: #ccc;
  stroke-width: 1px;
  opacity: 1;
  fill: white;
}

circle.node.label {
    stroke: transparent;
    stroke-width: 0;
    fill: white;
}

circle.outline_node {
    stroke-width: 1px;
    fill: red;
}

circle.protein {
    fill: gray;
    fill-opacity: 0.5;
    stroke-width: 4;
}

circle.hidden_outline {
    stroke-width: 0px;
}


line.link {
  stroke: #999;
  stroke-opacity: 0.8;
  stroke-width: 2;
}

line.basepair {
  stroke: red;
}

line.intermolecule {
  stroke: blue;
}

line.chain_chain {
  stroke-dasharray: 3,3;
}

line.fake {
  stroke: green;
}

.transparent {
    fill: transparent;
    stroke-width: 0;
    stroke-opacity: 0;
    opacity: 0;
    visibility: hidden;
}

.drag_line {
  stroke: #999;
  stroke-width: 2;
  pointer-events: none;
}

.drag_line_hidden {
  stroke: #999;
  stroke-width: 0;
  pointer-events: none;
}

.d3-tip {
    line-height: 1;
    font-weight: bold;
    padding: 6px;
    background: rgba(0, 0, 0, 0.6);
    color: #fff;
    border-radius: 4px;
    pointer-events: none;
          }

text.node-label {
    font-weight: bold;
    font-family: Tahoma, Geneva, sans-serif;
    color: rgb(100,100,100);
    pointer-events: none;
}

text {
    pointer-events: none;
}

g.gnode {

}

circle.outline_node.selected {
    visibility: visible;
}

circle.outline_node {
    visibility: hidden;
}

.brush .extent {
  fill-opacity: .1;
  stroke: #fff;
  shape-rendering: crispEdges;
}

.noselect {
    -webkit-touch-callout: none;
    -webkit-user-select: none;
    -khtml-user-select: none;
    -moz-user-select: none;
    -ms-user-select: none;
    user-select: none;
}
/*# sourceURL=/Users/yumanakamura/ipy_sandbox/sandbox/claude_sandbox/mrna-transformer-worktrees/feat-issue57-switch-derna-knotty/scripts/eval/prerender/forna_vendor/fornac.css*/</style><style></style><g><g class="brush" style="pointer-events: all; -webkit-tap-highlight-color: rgba(0, 0, 0, 0);"><rect class="background" x="0" width="760" y="0" height="640" style="visibility: hidden; cursor: auto;"></rect><rect class="extent" x="0" width="0" y="0" height="0" style="cursor: move;"></rect><g class="resize n" transform="translate(0,0)" style="cursor: ns-resize; display: none;"><rect y="-3" width="0" height="6" style="visibility: hidden;"></rect></g><g class="resize e" transform="translate(0,0)" style="cursor: ew-resize; display: none;"><rect x="-3" width="6" height="0" style="visibility: hidden;"></rect></g><g class="resize s" transform="translate(0,0)" style="cursor: ns-resize; display: none;"><rect y="-3" width="0" height="6" style="visibility: hidden;"></rect></g><g class="resize w" transform="translate(0,0)" style="cursor: ew-resize; display: none;"><rect x="-3" width="6" height="0" style="visibility: hidden;"></rect></g><g class="resize nw" transform="translate(0,0)" style="cursor: nwse-resize; display: none;"><rect x="-3" y="-3" width="6" height="6" style="visibility: hidden;"></rect></g><g class="resize ne" transform="translate(0,0)" style="cursor: nesw-resize; display: none;"><rect x="-3" y="-3" width="6" height="6" style="visibility: hidden;"></rect></g><g class="resize se" transform="translate(0,0)" style="cursor: nwse-resize; display: none;"><rect x="-3" y="-3" width="6" height="6" style="visibility: hidden;"></rect></g><g class="resize sw" transform="translate(0,0)" style="cursor: nesw-resize; display: none;"><rect x="-3" y="-3" width="6" height="6" style="visibility: hidden;"></rect></g></g><g transform="translate(76.89,232.36) scale(1.78)"><g><line class="link basepair" x1="202.50" y1="100.04" x2="215.89" y2="94.53"></line><line class="link backbone" x1="191.42" y1="110.18" x2="202.50" y2="100.04"></line><line class="link basepair" x1="194.78" y1="88.74" x2="205.07" y2="78.92"></line><line class="link backbone" x1="202.50" y1="100.04" x2="194.78" y2="88.74"></line><line class="link basepair" x1="183.36" y1="79.95" x2="190.57" y2="67.59"></line><line class="link backbone" x1="194.78" y1="88.74" x2="183.36" y2="79.95"></line><line class="link basepair" x1="169.97" y1="74.33" x2="173.67" y2="60.55"></line><line class="link backbone" x1="183.36" y1="79.95" x2="169.97" y2="74.33"></line><line class="link basepair" x1="155.93" y1="72.66" x2="155.43" y2="58.03"></line><line class="link backbone" x1="169.97" y1="74.33" x2="155.93" y2="72.66"></line><line class="link backbone" x1="155.93" y1="72.66" x2="143.96" y2="81.47"></line><line class="link backbone" x1="143.96" y1="81.47" x2="130.58" y2="75.77"></line><line class="link basepair" x1="128.55" y1="61.20" x2="139.49" y2="51.36"></line><line class="link backbone" x1="130.58" y1="75.77" x2="128.55" y2="61.20"></line><line class="link basepair" x1="117.66" y1="52.03" x2="125.75" y2="40.01"></line><line class="link backbone" x1="128.55" y1="61.20" x2="117.66" y2="52.03"></line><line class="link basepair" x1="104.75" y1="45.22" x2="110.55" y2="31.61"></line><line class="link backbone" x1="117.66" y1="52.03" x2="104.75" y2="45.22"></line><line class="link backbone" x1="104.75" y1="45.22" x2="89.48" y2="44.90"></line><line class="link basepair" x1="85.28" y1="30.13" x2="97.10" y2="21.22"></line><line class="link backbone" x1="89.48" y1="44.90" x2="85.28" y2="30.13"></line><line class="link basepair" x1="75.42" y1="18.56" x2="85.86" y2="8.56"></line><line class="link backbone" x1="85.28" y1="30.13" x2="75.42" y2="18.56"></line><line class="link basepair" x1="64.13" y1="7.85" x2="73.75" y2="-3.04"></line><line class="link backbone" x1="75.42" y1="18.56" x2="64.13" y2="7.85"></line><line class="link basepair" x1="52.13" y1="-1.79" x2="61.28" y2="-13.61"></line><line class="link backbone" x1="64.13" y1="7.85" x2="52.13" y2="-1.79"></line><line class="link backbone" x1="52.13" y1="-1.79" x2="38.06" y2="4.12"></line><line class="link backbone" x1="38.06" y1="4.12" x2="23.18" y2="2.52"></line><line class="link backbone" x1="23.18" y1="2.52" x2="11.00" y2="-6.28"></line><line class="link backbone" x1="11.00" y1="-6.28" x2="4.99" y2="-20.07"></line><line class="link backbone" x1="4.99" y1="-20.07" x2="7.02" y2="-34.90"></line><line class="link backbone" x1="7.02" y1="-34.90" x2="15.63" y2="-47.07"></line><line class="link backbone" x1="15.63" y1="-47.07" x2="29.29" y2="-53.32"></line><line class="link backbone" x1="29.29" y1="-53.32" x2="44.22" y2="-51.70"></line><line class="link backbone" x1="44.22" y1="-51.70" x2="56.34" y2="-42.66"></line><line class="link backbone" x1="56.34" y1="-42.66" x2="62.41" y2="-29.01"></line><line class="link basepair" x1="61.28" y1="-13.61" x2="52.13" y2="-1.79"></line><line class="link backbone" x1="62.41" y1="-29.01" x2="61.28" y2="-13.61"></line><line class="link basepair" x1="73.75" y1="-3.04" x2="64.13" y2="7.85"></line><line class="link backbone" x1="61.28" y1="-13.61" x2="73.75" y2="-3.04"></line><line class="link basepair" x1="85.86" y1="8.56" x2="75.42" y2="18.56"></line><line class="link backbone" x1="73.75" y1="-3.04" x2="85.86" y2="8.56"></line><line class="link basepair" x1="97.10" y1="21.22" x2="85.28" y2="30.13"></line><line class="link backbone" x1="85.86" y1="8.56" x2="97.10" y2="21.22"></line><line class="link basepair" x1="110.55" y1="31.61" x2="104.75" y2="45.22"></line><line class="link backbone" x1="97.10" y1="21.22" x2="110.55" y2="31.61"></line><line class="link basepair" x1="125.75" y1="40.01" x2="117.66" y2="52.03"></line><line class="link backbone" x1="110.55" y1="31.61" x2="125.75" y2="40.01"></line><line class="link basepair" x1="139.49" y1="51.36" x2="128.55" y2="61.20"></line><line class="link backbone" x1="125.75" y1="40.01" x2="139.49" y2="51.36"></line><line class="link basepair" x1="155.43" y1="58.03" x2="155.93" y2="72.66"></line><line class="link backbone" x1="139.49" y1="51.36" x2="155.43" y2="58.03"></line><line class="link basepair" x1="173.67" y1="60.55" x2="169.97" y2="74.33"></line><line class="link backbone" x1="155.43" y1="58.03" x2="173.67" y2="60.55"></line><line class="link basepair" x1="190.57" y1="67.59" x2="183.36" y2="79.95"></line><line class="link backbone" x1="173.67" y1="60.55" x2="190.57" y2="67.59"></line><line class="link basepair" x1="205.07" y1="78.92" x2="194.78" y2="88.74"></line><line class="link backbone" x1="190.57" y1="67.59" x2="205.07" y2="78.92"></line><line class="link basepair" x1="215.89" y1="94.53" x2="202.50" y2="100.04"></line><line class="link backbone" x1="205.07" y1="78.92" x2="215.89" y2="94.53"></line><line class="link basepair" x1="232.17" y1="102.13" x2="235.54" y2="116.30"></line><line class="link backbone" x1="215.89" y1="94.53" x2="232.17" y2="102.13"></line><line class="link basepair" x1="250.84" y1="101.20" x2="249.07" y2="115.89"></line><line class="link backbone" x1="232.17" y1="102.13" x2="250.84" y2="101.20"></line><line class="link backbone" x1="250.84" y1="101.20" x2="265.26" y2="93.96"></line><line class="link basepair" x1="279.89" y1="100.31" x2="282.92" y2="114.91"></line><line class="link backbone" x1="265.26" y1="93.96" x2="279.89" y2="100.31"></line><line class="link basepair" x1="297.10" y1="98.78" x2="297.38" y2="113.36"></line><line class="link backbone" x1="279.89" y1="100.31" x2="297.10" y2="98.78"></line><line class="link basepair" x1="313.91" y1="99.64" x2="312.31" y2="114.25"></line><line class="link backbone" x1="297.10" y1="98.78" x2="313.91" y2="99.64"></line><line class="link basepair" x1="329.87" y1="101.93" x2="327.31" y2="116.64"></line><line class="link backbone" x1="313.91" y1="99.64" x2="329.87" y2="101.93"></line><line class="link backbone" x1="329.87" y1="101.93" x2="344.40" y2="96.93"></line><line class="link backbone" x1="344.40" y1="96.93" x2="355.77" y2="106.74"></line><line class="link backbone" x1="355.77" y1="106.74" x2="352.99" y2="121.47"></line><line class="link backbone" x1="352.99" y1="121.47" x2="338.96" y2="126.55"></line><line class="link basepair" x1="327.31" y1="116.64" x2="329.87" y2="101.93"></line><line class="link backbone" x1="338.96" y1="126.55" x2="327.31" y2="116.64"></line><line class="link basepair" x1="312.31" y1="114.25" x2="313.91" y2="99.64"></line><line class="link backbone" x1="327.31" y1="116.64" x2="312.31" y2="114.25"></line><line class="link basepair" x1="297.38" y1="113.36" x2="297.10" y2="98.78"></line><line class="link backbone" x1="312.31" y1="114.25" x2="297.38" y2="113.36"></line><line class="link basepair" x1="282.92" y1="114.91" x2="279.89" y2="100.31"></line><line class="link backbone" x1="297.38" y1="113.36" x2="282.92" y2="114.91"></line><line class="link backbone" x1="282.92" y1="114.91" x2="273.86" y2="127.06"></line><line class="link backbone" x1="273.86" y1="127.06" x2="258.82" y2="127.54"></line><line class="link basepair" x1="249.07" y1="115.89" x2="250.84" y2="101.20"></line><line class="link backbone" x1="258.82" y1="127.54" x2="249.07" y2="115.89"></line><line class="link basepair" x1="235.54" y1="116.30" x2="232.17" y2="102.13"></line><line class="link backbone" x1="249.07" y1="115.89" x2="235.54" y2="116.30"></line><line class="link backbone" x1="235.54" y1="116.30" x2="234.96" y2="131.41"></line><line class="link backbone" x1="234.96" y1="131.41" x2="224.67" y2="142.96"></line><line class="link backbone" x1="224.67" y1="142.96" x2="209.36" y2="143.38"></line><line class="link label_link" x1="117.66" y1="52.03" x2="107.49" y2="63.93"></line><line class="link label_link" x1="4.99" y1="-20.07" x2="-9.55" y2="-14.96"></line><line class="link label_link" x1="97.10" y1="21.22" x2="108.63" y2="10.74"></line><line class="link label_link" x1="250.84" y1="101.20" x2="249.48" y2="85.69"></line><line class="link label_link" x1="327.31" y1="116.64" x2="327.43" y2="132.18"></line><line class="link label_link" x1="209.36" y1="143.38" x2="219.10" y2="132.38"></line><line class="link fake transparent" x1="85.28" y1="30.13" x2="86.24" y2="19.39"></line><line class="link fake transparent" x1="85.28" y1="30.13" x2="85.86" y2="8.56"></line><line class="link fake transparent" x1="75.42" y1="18.56" x2="86.24" y2="19.39"></line><line class="link fake transparent" x1="85.86" y1="8.56" x2="86.24" y2="19.39"></line><line class="link fake transparent" x1="97.10" y1="21.22" x2="86.24" y2="19.39"></line><line class="link fake transparent" x1="75.42" y1="18.56" x2="74.97" y2="7.73"></line><line class="link fake transparent" x1="64.13" y1="7.85" x2="74.97" y2="7.73"></line><line class="link fake transparent" x1="73.75" y1="-3.04" x2="74.97" y2="7.73"></line><line class="link fake transparent" x1="85.86" y1="8.56" x2="74.97" y2="7.73"></line><line class="link fake transparent" x1="64.13" y1="7.85" x2="62.88" y2="-2.92"></line><line class="link fake transparent" x1="52.13" y1="-1.79" x2="62.88" y2="-2.92"></line><line class="link fake transparent" x1="61.28" y1="-13.61" x2="62.88" y2="-2.92"></line><line class="link fake transparent" x1="73.75" y1="-3.04" x2="62.88" y2="-2.92"></line><line class="link fake transparent" x1="232.17" y1="102.13" x2="242.08" y2="107.64"></line><line class="link fake transparent" x1="250.84" y1="101.20" x2="242.08" y2="107.64"></line><line class="link fake transparent" x1="249.07" y1="115.89" x2="242.08" y2="107.64"></line><line class="link fake transparent" x1="235.54" y1="116.30" x2="242.08" y2="107.64"></line><line class="link fake transparent" x1="202.50" y1="100.04" x2="205.56" y2="89.70"></line><line class="link fake transparent" x1="194.78" y1="88.74" x2="205.56" y2="89.70"></line><line class="link fake transparent" x1="205.07" y1="78.92" x2="205.56" y2="89.70"></line><line class="link fake transparent" x1="215.89" y1="94.53" x2="205.56" y2="89.70"></line><line class="link fake transparent" x1="194.78" y1="88.74" x2="194.11" y2="77.89"></line><line class="link fake transparent" x1="183.36" y1="79.95" x2="194.11" y2="77.89"></line><line class="link fake transparent" x1="190.57" y1="67.59" x2="194.11" y2="77.89"></line><line class="link fake transparent" x1="205.07" y1="78.92" x2="194.11" y2="77.89"></line><line class="link fake transparent" x1="183.36" y1="79.95" x2="179.83" y2="69.64"></line><line class="link fake transparent" x1="169.97" y1="74.33" x2="179.83" y2="69.64"></line><line class="link fake transparent" x1="173.67" y1="60.55" x2="179.83" y2="69.64"></line><line class="link fake transparent" x1="190.57" y1="67.59" x2="179.83" y2="69.64"></line><line class="link fake transparent" x1="169.97" y1="74.33" x2="163.94" y2="65.30"></line><line class="link fake transparent" x1="155.93" y1="72.66" x2="163.94" y2="65.30"></line><line class="link fake transparent" x1="155.43" y1="58.03" x2="163.94" y2="65.30"></line><line class="link fake transparent" x1="173.67" y1="60.55" x2="163.94" y2="65.30"></line><line class="link fake transparent" x1="279.89" y1="100.31" x2="289.23" y2="106.18"></line><line class="link fake transparent" x1="297.10" y1="98.78" x2="289.23" y2="106.18"></line><line class="link fake transparent" x1="297.38" y1="113.36" x2="289.23" y2="106.18"></line><line class="link fake transparent" x1="282.92" y1="114.91" x2="289.23" y2="106.18"></line><line class="link fake transparent" x1="297.10" y1="98.78" x2="305.25" y2="105.98"></line><line class="link fake transparent" x1="313.91" y1="99.64" x2="305.25" y2="105.98"></line><line class="link fake transparent" x1="312.31" y1="114.25" x2="305.25" y2="105.98"></line><line class="link fake transparent" x1="297.38" y1="113.36" x2="305.25" y2="105.98"></line><line class="link fake transparent" x1="313.91" y1="99.64" x2="320.95" y2="107.86"></line><line class="link fake transparent" x1="329.87" y1="101.93" x2="320.95" y2="107.86"></line><line class="link fake transparent" x1="327.31" y1="116.64" x2="320.95" y2="107.86"></line><line class="link fake transparent" x1="312.31" y1="114.25" x2="320.95" y2="107.86"></line><line class="link fake transparent" x1="128.55" y1="61.20" x2="128.41" y2="50.45"></line><line class="link fake transparent" x1="117.66" y1="52.03" x2="128.41" y2="50.45"></line><line class="link fake transparent" x1="125.75" y1="40.01" x2="128.41" y2="50.45"></line><line class="link fake transparent" x1="139.49" y1="51.36" x2="128.41" y2="50.45"></line><line class="link fake transparent" x1="117.66" y1="52.03" x2="114.94" y2="41.60"></line><line class="link fake transparent" x1="104.75" y1="45.22" x2="114.94" y2="41.60"></line><line class="link fake transparent" x1="110.55" y1="31.61" x2="114.94" y2="41.60"></line><line class="link fake transparent" x1="125.75" y1="40.01" x2="114.94" y2="41.60"></line><line class="link fake transparent" x1="191.42" y1="110.18" x2="213.67" y2="119.84"></line><line class="link fake transparent" x1="191.42" y1="110.18" x2="234.96" y2="131.41"></line><line class="link fake transparent" x1="202.50" y1="100.04" x2="213.67" y2="119.84"></line><line class="link fake transparent" x1="202.50" y1="100.04" x2="224.67" y2="142.96"></line><line class="link fake transparent" x1="215.89" y1="94.53" x2="213.67" y2="119.84"></line><line class="link fake transparent" x1="215.89" y1="94.53" x2="209.36" y2="143.38"></line><line class="link fake transparent" x1="232.17" y1="102.13" x2="213.67" y2="119.84"></line><line class="link fake transparent" x1="232.17" y1="102.13" x2="197.08" y2="136.61"></line><line class="link fake transparent" x1="235.54" y1="116.30" x2="213.67" y2="119.84"></line><line class="link fake transparent" x1="235.54" y1="116.30" x2="187.28" y2="126.10"></line><line class="link fake transparent" x1="234.96" y1="131.41" x2="213.67" y2="119.84"></line><line class="link fake transparent" x1="234.96" y1="131.41" x2="191.42" y2="110.18"></line><line class="link fake transparent" x1="224.67" y1="142.96" x2="213.67" y2="119.84"></line><line class="link fake transparent" x1="224.67" y1="142.96" x2="202.50" y2="100.04"></line><line class="link fake transparent" x1="209.36" y1="143.38" x2="213.67" y2="119.84"></line><line class="link fake transparent" x1="209.36" y1="143.38" x2="215.89" y2="94.53"></line><line class="link fake transparent" x1="52.13" y1="-1.79" x2="33.93" y2="-24.42"></line><line class="link fake transparent" x1="52.13" y1="-1.79" x2="15.63" y2="-47.07"></line><line class="link fake transparent" x1="38.06" y1="4.12" x2="33.93" y2="-24.42"></line><line class="link fake transparent" x1="38.06" y1="4.12" x2="29.29" y2="-53.32"></line><line class="link fake transparent" x1="23.18" y1="2.52" x2="33.93" y2="-24.42"></line><line class="link fake transparent" x1="23.18" y1="2.52" x2="44.22" y2="-51.70"></line><line class="link fake transparent" x1="11.00" y1="-6.28" x2="33.93" y2="-24.42"></line><line class="link fake transparent" x1="11.00" y1="-6.28" x2="56.34" y2="-42.66"></line><line class="link fake transparent" x1="4.99" y1="-20.07" x2="33.93" y2="-24.42"></line><line class="link fake transparent" x1="4.99" y1="-20.07" x2="62.41" y2="-29.01"></line><line class="link fake transparent" x1="7.02" y1="-34.90" x2="33.93" y2="-24.42"></line><line class="link fake transparent" x1="7.02" y1="-34.90" x2="61.28" y2="-13.61"></line><line class="link fake transparent" x1="15.63" y1="-47.07" x2="33.93" y2="-24.42"></line><line class="link fake transparent" x1="15.63" y1="-47.07" x2="52.13" y2="-1.79"></line><line class="link fake transparent" x1="29.29" y1="-53.32" x2="33.93" y2="-24.42"></line><line class="link fake transparent" x1="29.29" y1="-53.32" x2="38.06" y2="4.12"></line><line class="link fake transparent" x1="44.22" y1="-51.70" x2="33.93" y2="-24.42"></line><line class="link fake transparent" x1="44.22" y1="-51.70" x2="23.18" y2="2.52"></line><line class="link fake transparent" x1="56.34" y1="-42.66" x2="33.93" y2="-24.42"></line><line class="link fake transparent" x1="56.34" y1="-42.66" x2="11.00" y2="-6.28"></line><line class="link fake transparent" x1="62.41" y1="-29.01" x2="33.93" y2="-24.42"></line><line class="link fake transparent" x1="62.41" y1="-29.01" x2="4.99" y2="-20.07"></line><line class="link fake transparent" x1="61.28" y1="-13.61" x2="33.93" y2="-24.42"></line><line class="link fake transparent" x1="61.28" y1="-13.61" x2="7.02" y2="-34.90"></line><line class="link fake transparent" x1="329.87" y1="101.93" x2="341.51" y2="111.68"></line><line class="link fake transparent" x1="329.87" y1="101.93" x2="352.99" y2="121.47"></line><line class="link fake transparent" x1="344.40" y1="96.93" x2="341.51" y2="111.68"></line><line class="link fake transparent" x1="344.40" y1="96.93" x2="338.96" y2="126.55"></line><line class="link fake transparent" x1="355.77" y1="106.74" x2="341.51" y2="111.68"></line><line class="link fake transparent" x1="355.77" y1="106.74" x2="327.31" y2="116.64"></line><line class="link fake transparent" x1="352.99" y1="121.47" x2="341.51" y2="111.68"></line><line class="link fake transparent" x1="352.99" y1="121.47" x2="329.87" y2="101.93"></line><line class="link fake transparent" x1="338.96" y1="126.55" x2="341.51" y2="111.68"></line><line class="link fake transparent" x1="338.96" y1="126.55" x2="344.40" y2="96.93"></line><line class="link fake transparent" x1="327.31" y1="116.64" x2="341.51" y2="111.68"></line><line class="link fake transparent" x1="327.31" y1="116.64" x2="355.77" y2="106.74"></line><line class="link fake transparent" x1="250.84" y1="101.20" x2="265.80" y2="111.17"></line><line class="link fake transparent" x1="250.84" y1="101.20" x2="282.92" y2="114.91"></line><line class="link fake transparent" x1="265.26" y1="93.96" x2="265.80" y2="111.17"></line><line class="link fake transparent" x1="265.26" y1="93.96" x2="273.86" y2="127.06"></line><line class="link fake transparent" x1="279.89" y1="100.31" x2="265.80" y2="111.17"></line><line class="link fake transparent" x1="279.89" y1="100.31" x2="258.82" y2="127.54"></line><line class="link fake transparent" x1="282.92" y1="114.91" x2="265.80" y2="111.17"></line><line class="link fake transparent" x1="282.92" y1="114.91" x2="249.07" y2="115.89"></line><line class="link fake transparent" x1="273.86" y1="127.06" x2="265.80" y2="111.17"></line><line class="link fake transparent" x1="273.86" y1="127.06" x2="250.84" y2="101.20"></line><line class="link fake transparent" x1="258.82" y1="127.54" x2="265.80" y2="111.17"></line><line class="link fake transparent" x1="258.82" y1="127.54" x2="265.26" y2="93.96"></line><line class="link fake transparent" x1="249.07" y1="115.89" x2="265.80" y2="111.17"></line><line class="link fake transparent" x1="249.07" y1="115.89" x2="279.89" y2="100.31"></line><line class="link fake transparent" x1="155.93" y1="72.66" x2="142.60" y2="66.14"></line><line class="link fake transparent" x1="155.93" y1="72.66" x2="128.55" y2="61.20"></line><line class="link fake transparent" x1="143.96" y1="81.47" x2="142.60" y2="66.14"></line><line class="link fake transparent" x1="143.96" y1="81.47" x2="139.49" y2="51.36"></line><line class="link fake transparent" x1="130.58" y1="75.77" x2="142.60" y2="66.14"></line><line class="link fake transparent" x1="130.58" y1="75.77" x2="155.43" y2="58.03"></line><line class="link fake transparent" x1="128.55" y1="61.20" x2="142.60" y2="66.14"></line><line class="link fake transparent" x1="128.55" y1="61.20" x2="155.93" y2="72.66"></line><line class="link fake transparent" x1="139.49" y1="51.36" x2="142.60" y2="66.14"></line><line class="link fake transparent" x1="139.49" y1="51.36" x2="143.96" y2="81.47"></line><line class="link fake transparent" x1="155.43" y1="58.03" x2="142.60" y2="66.14"></line><line class="link fake transparent" x1="155.43" y1="58.03" x2="130.58" y2="75.77"></line><line class="link fake transparent" x1="104.75" y1="45.22" x2="97.69" y2="34.28"></line><line class="link fake transparent" x1="104.75" y1="45.22" x2="85.28" y2="30.13"></line><line class="link fake transparent" x1="89.48" y1="44.90" x2="97.69" y2="34.28"></line><line class="link fake transparent" x1="89.48" y1="44.90" x2="97.10" y2="21.22"></line><line class="link fake transparent" x1="85.28" y1="30.13" x2="97.69" y2="34.28"></line><line class="link fake transparent" x1="85.28" y1="30.13" x2="110.55" y2="31.61"></line><line class="link fake transparent" x1="97.10" y1="21.22" x2="97.69" y2="34.28"></line><line class="link fake transparent" x1="97.10" y1="21.22" x2="104.75" y2="45.22"></line><line class="link fake transparent" x1="110.55" y1="31.61" x2="97.69" y2="34.28"></line><line class="link fake transparent" x1="110.55" y1="31.61" x2="89.48" y2="44.90"></line></g><g><g class="noselect gnode" struct_name="m" transform="translate(191.42,110.18)" r="6.5"><circle class="node" r="6" node_type="nucleotide" style="fill: lightsalmon;"></circle><text text-anchor="middle" font-size="8" font-weight="bold" y="2.5" class="node-label">U</text></g><g class="noselect gnode" struct_name="m" transform="translate(202.50,100.04)" r="6.5"><circle class="node" r="6" node_type="nucleotide" style="fill: lightgreen;"></circle><text text-anchor="middle" font-size="8" font-weight="bold" y="2.5" class="node-label">G</text></g><g class="noselect gnode" struct_name="m" transform="translate(194.78,88.74)" r="6.5"><circle class="node" r="6" node_type="nucleotide" style="fill: lightgreen;"></circle><text text-anchor="middle" font-size="8" font-weight="bold" y="2.5" class="node-label">G</text></g><g class="noselect gnode" struct_name="m" transform="translate(183.36,79.95)" r="6.5"><circle class="node" r="6" node_type="nucleotide" style="fill: lightgreen;"></circle><text text-anchor="middle" font-size="8" font-weight="bold" y="2.5" class="node-label">G</text></g><g class="noselect gnode" struct_name="m" transform="translate(169.97,74.33)" r="6.5"><circle class="node" r="6" node_type="nucleotide" style="fill: lightgreen;"></circle><text text-anchor="middle" font-size="8" font-weight="bold" y="2.5" class="node-label">A</text></g><g class="noselect gnode" struct_name="m" transform="translate(155.93,72.66)" r="6.5"><circle class="node" r="6" node_type="nucleotide" style="fill: lightgreen;"></circle><text text-anchor="middle" font-size="8" font-weight="bold" y="2.5" class="node-label">G</text></g><g class="noselect gnode" struct_name="m" transform="translate(143.96,81.47)" r="6.5"><circle class="node" r="6" node_type="nucleotide" style="fill: rgb(219, 219, 141);"></circle><text text-anchor="middle" font-size="8" font-weight="bold" y="2.5" class="node-label">A</text></g><g class="noselect gnode" struct_name="m" transform="translate(130.58,75.77)" r="6.5"><circle class="node" r="6" node_type="nucleotide" style="fill: rgb(219, 219, 141);"></circle><text text-anchor="middle" font-size="8" font-weight="bold" y="2.5" class="node-label">A</text></g><g class="noselect gnode" struct_name="m" transform="translate(128.55,61.20)" r="6.5"><circle class="node" r="6" node_type="nucleotide" style="fill: lightgreen;"></circle><text text-anchor="middle" font-size="8" font-weight="bold" y="2.5" class="node-label">C</text></g><g class="noselect gnode" struct_name="m" transform="translate(117.66,52.03)" r="6.5"><circle class="node" r="6" node_type="nucleotide" style="fill: lightgreen;"></circle><text text-anchor="middle" font-size="8" font-weight="bold" y="2.5" class="node-label">C</text></g><g class="noselect gnode" struct_name="m" transform="translate(104.75,45.22)" r="6.5"><circle class="node" r="6" node_type="nucleotide" style="fill: lightgreen;"></circle><text text-anchor="middle" font-size="8" font-weight="bold" y="2.5" class="node-label">A</text></g><g class="noselect gnode" struct_name="m" transform="translate(89.48,44.90)" r="6.5"><circle class="node" r="6" node_type="nucleotide" style="fill: rgb(219, 219, 141);"></circle><text text-anchor="middle" font-size="8" font-weight="bold" y="2.5" class="node-label">U</text></g><g class="noselect gnode" struct_name="m" transform="translate(85.28,30.13)" r="6.5"><circle class="node" r="6" node_type="nucleotide" style="fill: lightgreen;"></circle><text text-anchor="middle" font-size="8" font-weight="bold" y="2.5" class="node-label">C</text></g><g class="noselect gnode" struct_name="m" transform="translate(75.42,18.56)" r="6.5"><circle class="node" r="6" node_type="nucleotide" style="fill: lightgreen;"></circle><text text-anchor="middle" font-size="8" font-weight="bold" y="2.5" class="node-label">A</text></g><g class="noselect gnode" struct_name="m" transform="translate(64.13,7.85)" r="6.5"><circle class="node" r="6" node_type="nucleotide" style="fill: lightgreen;"></circle><text text-anchor="middle" font-size="8" font-weight="bold" y="2.5" class="node-label">U</text></g><g class="noselect gnode" struct_name="m" transform="translate(52.13,-1.79)" r="6.5"><circle class="node" r="6" node_type="nucleotide" style="fill: lightgreen;"></circle><text text-anchor="middle" font-size="8" font-weight="bold" y="2.5" class="node-label">A</text></g><g class="noselect gnode" struct_name="m" transform="translate(38.06,4.12)" r="6.5"><circle class="node" r="6" node_type="nucleotide" style="fill: lightblue;"></circle><text text-anchor="middle" font-size="8" font-weight="bold" y="2.5" class="node-label">G</text></g><g class="noselect gnode" struct_name="m" transform="translate(23.18,2.52)" r="6.5"><circle class="node" r="6" node_type="nucleotide" style="fill: lightblue;"></circle><text text-anchor="middle" font-size="8" font-weight="bold" y="2.5" class="node-label">A</text></g><g class="noselect gnode" struct_name="m" transform="translate(11.00,-6.28)" r="6.5"><circle class="node" r="6" node_type="nucleotide" style="fill: lightblue;"></circle><text text-anchor="middle" font-size="8" font-weight="bold" y="2.5" class="node-label">A</text></g><g class="noselect gnode" struct_name="m" transform="translate(4.99,-20.07)" r="6.5"><circle class="node" r="6" node_type="nucleotide" style="fill: lightblue;"></circle><text text-anchor="middle" font-size="8" font-weight="bold" y="2.5" class="node-label">A</text></g><g class="noselect gnode" struct_name="m" transform="translate(7.02,-34.90)" r="6.5"><circle class="node" r="6" node_type="nucleotide" style="fill: lightblue;"></circle><text text-anchor="middle" font-size="8" font-weight="bold" y="2.5" class="node-label">U</text></g><g class="noselect gnode" struct_name="m" transform="translate(15.63,-47.07)" r="6.5"><circle class="node" r="6" node_type="nucleotide" style="fill: lightblue;"></circle><text text-anchor="middle" font-size="8" font-weight="bold" y="2.5" class="node-label">A</text></g><g class="noselect gnode" struct_name="m" transform="translate(29.29,-53.32)" r="6.5"><circle class="node" r="6" node_type="nucleotide" style="fill: lightblue;"></circle><text text-anchor="middle" font-size="8" font-weight="bold" y="2.5" class="node-label">A</text></g><g class="noselect gnode" struct_name="m" transform="translate(44.22,-51.70)" r="6.5"><circle class="node" r="6" node_type="nucleotide" style="fill: lightblue;"></circle><text text-anchor="middle" font-size="8" font-weight="bold" y="2.5" class="node-label">A</text></g><g class="noselect gnode" struct_name="m" transform="translate(56.34,-42.66)" r="6.5"><circle class="node" r="6" node_type="nucleotide" style="fill: lightblue;"></circle><text text-anchor="middle" font-size="8" font-weight="bold" y="2.5" class="node-label">A</text></g><g class="noselect gnode" struct_name="m" transform="translate(62.41,-29.01)" r="6.5"><circle class="node" r="6" node_type="nucleotide" style="fill: lightblue;"></circle><text text-anchor="middle" font-size="8" font-weight="bold" y="2.5" class="node-label">A</text></g><g class="noselect gnode" struct_name="m" transform="translate(61.28,-13.61)" r="6.5"><circle class="node" r="6" node_type="nucleotide" style="fill: lightgreen;"></circle><text text-anchor="middle" font-size="8" font-weight="bold" y="2.5" class="node-label">U</text></g><g class="noselect gnode" struct_name="m" transform="translate(73.75,-3.04)" r="6.5"><circle class="node" r="6" node_type="nucleotide" style="fill: lightgreen;"></circle><text text-anchor="middle" font-size="8" font-weight="bold" y="2.5" class="node-label">A</text></g><g class="noselect gnode" struct_name="m" transform="translate(85.86,8.56)" r="6.5"><circle class="node" r="6" node_type="nucleotide" style="fill: lightgreen;"></circle><text text-anchor="middle" font-size="8" font-weight="bold" y="2.5" class="node-label">U</text></g><g class="noselect gnode" struct_name="m" transform="translate(97.10,21.22)" r="6.5"><circle class="node" r="6" node_type="nucleotide" style="fill: lightgreen;"></circle><text text-anchor="middle" font-size="8" font-weight="bold" y="2.5" class="node-label">G</text></g><g class="noselect gnode" struct_name="m" transform="translate(110.55,31.61)" r="6.5"><circle class="node" r="6" node_type="nucleotide" style="fill: lightgreen;"></circle><text text-anchor="middle" font-size="8" font-weight="bold" y="2.5" class="node-label">U</text></g><g class="noselect gnode" struct_name="m" transform="translate(125.75,40.01)" r="6.5"><circle class="node" r="6" node_type="nucleotide" style="fill: lightgreen;"></circle><text text-anchor="middle" font-size="8" font-weight="bold" y="2.5" class="node-label">G</text></g><g class="noselect gnode" struct_name="m" transform="translate(139.49,51.36)" r="6.5"><circle class="node" r="6" node_type="nucleotide" style="fill: lightgreen;"></circle><text text-anchor="middle" font-size="8" font-weight="bold" y="2.5" class="node-label">G</text></g><g class="noselect gnode" struct_name="m" transform="translate(155.43,58.03)" r="6.5"><circle class="node" r="6" node_type="nucleotide" style="fill: lightgreen;"></circle><text text-anchor="middle" font-size="8" font-weight="bold" y="2.5" class="node-label">C</text></g><g class="noselect gnode" struct_name="m" transform="translate(173.67,60.55)" r="6.5"><circle class="node" r="6" node_type="nucleotide" style="fill: lightgreen;"></circle><text text-anchor="middle" font-size="8" font-weight="bold" y="2.5" class="node-label">U</text></g><g class="noselect gnode" struct_name="m" transform="translate(190.57,67.59)" r="6.5"><circle class="node" r="6" node_type="nucleotide" style="fill: lightgreen;"></circle><text text-anchor="middle" font-size="8" font-weight="bold" y="2.5" class="node-label">C</text></g><g class="noselect gnode" struct_name="m" transform="translate(205.07,78.92)" r="6.5"><circle class="node" r="6" node_type="nucleotide" style="fill: lightgreen;"></circle><text text-anchor="middle" font-size="8" font-weight="bold" y="2.5" class="node-label">C</text></g><g class="noselect gnode" struct_name="m" transform="translate(215.89,94.53)" r="6.5"><circle class="node" r="6" node_type="nucleotide" style="fill: lightgreen;"></circle><text text-anchor="middle" font-size="8" font-weight="bold" y="2.5" class="node-label">C</text></g><g class="noselect gnode" struct_name="m" transform="translate(232.17,102.13)" r="6.5"><circle class="node" r="6" node_type="nucleotide" style="fill: lightgreen;"></circle><text text-anchor="middle" font-size="8" font-weight="bold" y="2.5" class="node-label">G</text></g><g class="noselect gnode" struct_name="m" transform="translate(250.84,101.20)" r="6.5"><circle class="node" r="6" node_type="nucleotide" style="fill: lightgreen;"></circle><text text-anchor="middle" font-size="8" font-weight="bold" y="2.5" class="node-label">G</text></g><g class="noselect gnode" struct_name="m" transform="translate(265.26,93.96)" r="6.5"><circle class="node" r="6" node_type="nucleotide" style="fill: rgb(219, 219, 141);"></circle><text text-anchor="middle" font-size="8" font-weight="bold" y="2.5" class="node-label">A</text></g><g class="noselect gnode" struct_name="m" transform="translate(279.89,100.31)" r="6.5"><circle class="node" r="6" node_type="nucleotide" style="fill: lightgreen;"></circle><text text-anchor="middle" font-size="8" font-weight="bold" y="2.5" class="node-label">U</text></g><g class="noselect gnode" struct_name="m" transform="translate(297.10,98.78)" r="6.5"><circle class="node" r="6" node_type="nucleotide" style="fill: lightgreen;"></circle><text text-anchor="middle" font-size="8" font-weight="bold" y="2.5" class="node-label">G</text></g><g class="noselect gnode" struct_name="m" transform="translate(313.91,99.64)" r="6.5"><circle class="node" r="6" node_type="nucleotide" style="fill: lightgreen;"></circle><text text-anchor="middle" font-size="8" font-weight="bold" y="2.5" class="node-label">C</text></g><g class="noselect gnode" struct_name="m" transform="translate(329.87,101.93)" r="6.5"><circle class="node" r="6" node_type="nucleotide" style="fill: lightgreen;"></circle><text text-anchor="middle" font-size="8" font-weight="bold" y="2.5" class="node-label">C</text></g><g class="noselect gnode" struct_name="m" transform="translate(344.40,96.93)" r="6.5"><circle class="node" r="6" node_type="nucleotide" style="fill: lightblue;"></circle><text text-anchor="middle" font-size="8" font-weight="bold" y="2.5" class="node-label">A</text></g><g class="noselect gnode" struct_name="m" transform="translate(355.77,106.74)" r="6.5"><circle class="node" r="6" node_type="nucleotide" style="fill: lightblue;"></circle><text text-anchor="middle" font-size="8" font-weight="bold" y="2.5" class="node-label">A</text></g><g class="noselect gnode" struct_name="m" transform="translate(352.99,121.47)" r="6.5"><circle class="node" r="6" node_type="nucleotide" style="fill: lightblue;"></circle><text text-anchor="middle" font-size="8" font-weight="bold" y="2.5" class="node-label">U</text></g><g class="noselect gnode" struct_name="m" transform="translate(338.96,126.55)" r="6.5"><circle class="node" r="6" node_type="nucleotide" style="fill: lightblue;"></circle><text text-anchor="middle" font-size="8" font-weight="bold" y="2.5" class="node-label">U</text></g><g class="noselect gnode" struct_name="m" transform="translate(327.31,116.64)" r="6.5"><circle class="node" r="6" node_type="nucleotide" style="fill: lightgreen;"></circle><text text-anchor="middle" font-size="8" font-weight="bold" y="2.5" class="node-label">G</text></g><g class="noselect gnode" struct_name="m" transform="translate(312.31,114.25)" r="6.5"><circle class="node" r="6" node_type="nucleotide" style="fill: lightgreen;"></circle><text text-anchor="middle" font-size="8" font-weight="bold" y="2.5" class="node-label">G</text></g><g class="noselect gnode" struct_name="m" transform="translate(297.38,113.36)" r="6.5"><circle class="node" r="6" node_type="nucleotide" style="fill: lightgreen;"></circle><text text-anchor="middle" font-size="8" font-weight="bold" y="2.5" class="node-label">C</text></g><g class="noselect gnode" struct_name="m" transform="translate(282.92,114.91)" r="6.5"><circle class="node" r="6" node_type="nucleotide" style="fill: lightgreen;"></circle><text text-anchor="middle" font-size="8" font-weight="bold" y="2.5" class="node-label">A</text></g><g class="noselect gnode" struct_name="m" transform="translate(273.86,127.06)" r="6.5"><circle class="node" r="6" node_type="nucleotide" style="fill: rgb(219, 219, 141);"></circle><text text-anchor="middle" font-size="8" font-weight="bold" y="2.5" class="node-label">G</text></g><g class="noselect gnode" struct_name="m" transform="translate(258.82,127.54)" r="6.5"><circle class="node" r="6" node_type="nucleotide" style="fill: rgb(219, 219, 141);"></circle><text text-anchor="middle" font-size="8" font-weight="bold" y="2.5" class="node-label">A</text></g><g class="noselect gnode" struct_name="m" transform="translate(249.07,115.89)" r="6.5"><circle class="node" r="6" node_type="nucleotide" style="fill: lightgreen;"></circle><text text-anchor="middle" font-size="8" font-weight="bold" y="2.5" class="node-label">C</text></g><g class="noselect gnode" struct_name="m" transform="translate(235.54,116.30)" r="6.5"><circle class="node" r="6" node_type="nucleotide" style="fill: lightgreen;"></circle><text text-anchor="middle" font-size="8" font-weight="bold" y="2.5" class="node-label">C</text></g><g class="noselect gnode" struct_name="m" transform="translate(234.96,131.41)" r="6.5"><circle class="node" r="6" node_type="nucleotide" style="fill: lightsalmon;"></circle><text text-anchor="middle" font-size="8" font-weight="bold" y="2.5" class="node-label">U</text></g><g class="noselect gnode" struct_name="m" transform="translate(224.67,142.96)" r="6.5"><circle class="node" r="6" node_type="nucleotide" style="fill: lightsalmon;"></circle><text text-anchor="middle" font-size="8" font-weight="bold" y="2.5" class="node-label">A</text></g><g class="noselect gnode" struct_name="m" transform="translate(209.36,143.38)" r="6.5"><circle class="node" r="6" node_type="nucleotide" style="fill: lightsalmon;"></circle><text text-anchor="middle" font-size="8" font-weight="bold" y="2.5" class="node-label">U</text></g><g class="noselect gnode" struct_name="m" transform="translate(107.49,63.93)" r="6.5"><circle class="node label" r="6" node_type="label"></circle><text text-anchor="middle" font-size="8" font-weight="bold" y="2.5" class="node-label">10</text></g><g class="noselect gnode" struct_name="m" transform="translate(-9.55,-14.96)" r="6.5"><circle class="node label" r="6" node_type="label"></circle><text text-anchor="middle" font-size="8" font-weight="bold" y="2.5" class="node-label">20</text></g><g class="noselect gnode" struct_name="m" transform="translate(108.63,10.74)" r="6.5"><circle class="node label" r="6" node_type="label"></circle><text text-anchor="middle" font-size="8" font-weight="bold" y="2.5" class="node-label">30</text></g><g class="noselect gnode" struct_name="m" transform="translate(249.48,85.69)" r="6.5"><circle class="node label" r="6" node_type="label"></circle><text text-anchor="middle" font-size="8" font-weight="bold" y="2.5" class="node-label">40</text></g><g class="noselect gnode" struct_name="m" transform="translate(327.43,132.18)" r="6.5"><circle class="node label" r="6" node_type="label"></circle><text text-anchor="middle" font-size="8" font-weight="bold" y="2.5" class="node-label">50</text></g><g class="noselect gnode" struct_name="m" transform="translate(219.10,132.38)" r="6.5"><circle class="node label" r="6" node_type="label"></circle><text text-anchor="middle" font-size="8" font-weight="bold" y="2.5" class="node-label">60</text></g><g class="noselect gnode" transform="translate(86.24,19.39)" r="6.5"><circle class="node" r="0" node_type="middle"></circle><text text-anchor="middle" font-size="8" font-weight="bold" y="2.5" class="node-label"></text></g><g class="noselect gnode" transform="translate(74.97,7.73)" r="6.5"><circle class="node" r="0" node_type="middle"></circle><text text-anchor="middle" font-size="8" font-weight="bold" y="2.5" class="node-label"></text></g><g class="noselect gnode" transform="translate(62.88,-2.92)" r="6.5"><circle class="node" r="0" node_type="middle"></circle><text text-anchor="middle" font-size="8" font-weight="bold" y="2.5" class="node-label"></text></g><g class="noselect gnode" transform="translate(242.08,107.64)" r="6.5"><circle class="node" r="0" node_type="middle"></circle><text text-anchor="middle" font-size="8" font-weight="bold" y="2.5" class="node-label"></text></g><g class="noselect gnode" transform="translate(205.56,89.70)" r="6.5"><circle class="node" r="0" node_type="middle"></circle><text text-anchor="middle" font-size="8" font-weight="bold" y="2.5" class="node-label"></text></g><g class="noselect gnode" transform="translate(194.11,77.89)" r="6.5"><circle class="node" r="0" node_type="middle"></circle><text text-anchor="middle" font-size="8" font-weight="bold" y="2.5" class="node-label"></text></g><g class="noselect gnode" transform="translate(179.83,69.64)" r="6.5"><circle class="node" r="0" node_type="middle"></circle><text text-anchor="middle" font-size="8" font-weight="bold" y="2.5" class="node-label"></text></g><g class="noselect gnode" transform="translate(163.94,65.30)" r="6.5"><circle class="node" r="0" node_type="middle"></circle><text text-anchor="middle" font-size="8" font-weight="bold" y="2.5" class="node-label"></text></g><g class="noselect gnode" transform="translate(289.23,106.18)" r="6.5"><circle class="node" r="0" node_type="middle"></circle><text text-anchor="middle" font-size="8" font-weight="bold" y="2.5" class="node-label"></text></g><g class="noselect gnode" transform="translate(305.25,105.98)" r="6.5"><circle class="node" r="0" node_type="middle"></circle><text text-anchor="middle" font-size="8" font-weight="bold" y="2.5" class="node-label"></text></g><g class="noselect gnode" transform="translate(320.95,107.86)" r="6.5"><circle class="node" r="0" node_type="middle"></circle><text text-anchor="middle" font-size="8" font-weight="bold" y="2.5" class="node-label"></text></g><g class="noselect gnode" transform="translate(128.41,50.45)" r="6.5"><circle class="node" r="0" node_type="middle"></circle><text text-anchor="middle" font-size="8" font-weight="bold" y="2.5" class="node-label"></text></g><g class="noselect gnode" transform="translate(114.94,41.60)" r="6.5"><circle class="node" r="0" node_type="middle"></circle><text text-anchor="middle" font-size="8" font-weight="bold" y="2.5" class="node-label"></text></g><g class="noselect gnode" transform="translate(197.08,136.61)" r="6.5"><circle class="node" r="0" node_type="middle"></circle><text text-anchor="middle" font-size="8" font-weight="bold" y="2.5" class="node-label"></text></g><g class="noselect gnode" transform="translate(187.28,126.10)" r="6.5"><circle class="node" r="0" node_type="middle"></circle><text text-anchor="middle" font-size="8" font-weight="bold" y="2.5" class="node-label"></text></g><g class="noselect gnode" transform="translate(213.67,119.84)" r="6.5"><circle class="node" r="0" node_type="middle"></circle><text text-anchor="middle" font-size="8" font-weight="bold" y="2.5" class="node-label"></text></g><g class="noselect gnode" transform="translate(33.93,-24.42)" r="6.5"><circle class="node" r="0" node_type="middle"></circle><text text-anchor="middle" font-size="8" font-weight="bold" y="2.5" class="node-label"></text></g><g class="noselect gnode" transform="translate(341.51,111.68)" r="6.5"><circle class="node" r="0" node_type="middle"></circle><text text-anchor="middle" font-size="8" font-weight="bold" y="2.5" class="node-label"></text></g><g class="noselect gnode" transform="translate(265.80,111.17)" r="6.5"><circle class="node" r="0" node_type="middle"></circle><text text-anchor="middle" font-size="8" font-weight="bold" y="2.5" class="node-label"></text></g><g class="noselect gnode" transform="translate(142.60,66.14)" r="6.5"><circle class="node" r="0" node_type="middle"></circle><text text-anchor="middle" font-size="8" font-weight="bold" y="2.5" class="node-label"></text></g><g class="noselect gnode" transform="translate(97.69,34.28)" r="6.5"><circle class="node" r="0" node_type="middle"></circle><text text-anchor="middle" font-size="8" font-weight="bold" y="2.5" class="node-label"></text></g></g><line class="drag_line" x1="0" y1="0" x2="0" y2="0"></line></g></g></svg>