<svg xmlns="http://www.w3.org/2000/svg" viewBox="0 0 760 640" width="760" height="640"><style>svg {
  display: block;
  min-width: 100%;
  width: 100%;
  min-height: 100%;
}

circle.node {
  stroke: #ccc;
  stroke-width: 1px;
  opacity: 1;
  fill: white;
}

circle.node.label {
    stroke: transparent;
    stroke-width: 0;
    fill: white;
}

circle.outline_node {
    stroke-width: 1px;
    fill: red;
}

circle.protein {
    fill: gray;
    fill-opacity: 0.5;
    stroke-width: 4;
}

circle.hidden_outline {
    stroke-width: 0px;
}


line.link {
  stroke: #999;
  stroke-opacity: 0.8;
  stroke-width: 2;
}

line.basepair {
  stroke: red;
}

line.intermolecule {
  stroke: blue;
}

line.chain_chain {
  stroke-dasharray: 3,3;
}

line.fake {
  stroke: green;
}

.transparent {
    fill: transparent;
    stroke-width: 0;
    stroke-opacity: 0;
    opacity: 0;
    visibility: hidden;
}

.drag_line {
  stroke: #999;
  stroke-width: 2;
  pointer-events: none;
}

.drag_line_hidden {
  stroke: #999;
  stroke-width: 0;
  pointer-events: none;
}

.d3-tip {
    line-height: 1;
    font-weight: bold;
    padding: 6px;
    background: rgba(0, 0, 0, 0.6);
    color: #fff;
    border-radius: 4px;
    pointer-events: none;
          }

text.node-label {
    font-weight: bold;
    font-family: Tahoma, Geneva, sans-serif;
    color: rgb(100,100,100);
    pointer-events: none;
}

text {
    pointer-events: none;
}

g.gnode {

}

circle.outline_node.selected {
    visibility: visible;
}

circle.outline_node {
    visibility: hidden;
}

.brush .extent {
  fill-opacity: .1;
  stroke: #fff;
  shape-rendering: crispEdges;
}

.noselect {
    -webkit-touch-callout: none;
    -webkit-user-select: none;
    -khtml-user-select: none;
    -moz-user-select: none;
    -ms-user-select: none;
    user-select: none;
}

svg {
  display: block;
  min-width: 100%;
  width: 100%;
  min-height: 100%;
}

circle.node {
  stroke: #ccc;
  stroke-width: 1px;
  opacity: 1;
  fill: white;
}

circle.node.label {
    stroke: transparent;
    stroke-width: 0;
    fill: white;
}

circle.outline_node {
    stroke-width: 1px;
    fill: red;
}

circle.protein {
    fill: gray;
    fill-opacity: 0.5;
    stroke-width: 4;
}

circle.hidden_outline {
    stroke-width: 0px;
}


line.link {
  stroke: #999;
  stroke-opacity: 0.8;
  stroke-width: 2;
}

line.basepair {
  stroke: red;
}

line.intermolecule {
  stroke: blue;
}

line.chain_chain {
  stroke-dasharray: 3,3;
}

line.fake {
  stroke: green;
}

.transparent {
    fill: transparent;
    stroke-width: 0;
    stroke-opacity: 0;
    opacity: 0;
    visibility: hidden;
}

.drag_line {
  stroke: #999;
  stroke-width: 2;
  pointer-events: none;
}

.drag_line_hidden {
  stroke: #999;
  stroke-width: 0;
  pointer-events: none;
}

.d3-tip {
    line-height: 1;
    font-weight: bold;
    padding: 6px;
    background: rgba(0, 0, 0, 0.6);
    color: #fff;
    border-radius: 4px;
    pointer-events: none;
          }

text.node-label {
    font-weight: bold;
    font-family: Tahoma, Geneva, sans-serif;
    color: rgb(100,100,100);
    pointer-events: none;
}

text {
    pointer-events: none;
}

g.gnode {

}

circle.outline_node.selected {
    visibility: visible;
}

circle.outline_node {
    visibility: hidden;
}

.brush .extent {
  fill-opacity: .1;
  stroke: #fff;
  shape-rendering: crispEdges;
}

.noselect {
    -webkit-touch-callout: none;
    -webkit-user-select: none;
    -khtml-user-select: none;
    -moz-user-select: none;
    -ms-user-select: none;
    user-select: none;
}
/*# sourceURL=/Users/yumanakamura/ipy_sandbox/sandbox/claude_sandbox/mrna-transformer-worktrees/feat-issue57-switch-derna-knotty/scripts/eval/prerender/forna_vendor/fornac.css*/</style><style></style><g><g class="brush" style="pointer-events: all; -webkit-tap-highlight-color: rgba(0, 0, 0, 0);"><rect class="background" x="0" width="760" y="0" height="640" style="visibility: hidden; cursor: auto;"></rect><rect class="extent" x="0" width="0" y="0" height="0" style="cursor: move;"></rect><g class="resize n" transform="translate(0,0)" style="cursor: ns-resize; display: none;"><rect y="-3" width="0" height="6" style="visibility: hidden;"></rect></g><g class="resize e" transform="translate(0,0)" style="cursor: ew-resize; display: none;"><rect x="-3" width="6" height="0" style="visibility: hidden;"></rect></g><g class="resize s" transform="translate(0,0)" style="cursor: ns-resize; display: none;"><rect y="-3" width="0" height="6" style="visibility: hidden;"></rect></g><g class="resize w" transform="translate(0,0)" style="cursor: ew-resize; display: none;"><rect x="-3" width="6" height="0" style="visibility: hidden;"></rect></g><g class="resize nw" transform="translate(0,0)" style="cursor: nwse-resize; display: none;"><rect x="-3" y="-3" width="6" height="6" style="visibility: hidden;"></rect></g><g class="resize ne" transform="translate(0,0)" style="cursor: nesw-resize; display: none;"><rect x="-3" y="-3" width="6" height="6" style="visibility: hidden;"></rect></g><g class="resize se" transform="translate(0,0)" style="cursor: nwse-resize; display: none;"><rect x="-3" y="-3" width="6" height="6" style="visibility: hidden;"></rect></g><g class="resize sw" transform="translate(0,0)" style="cursor: nesw-resize; display: none;"><rect x="-3" y="-3" width="6" height="6" style="visibility: hidden;"></rect></g></g><g transform="translate(345.85,193.86) scale(1.19)"><g><line class="link basepair" x1="30.95" y1="294.93" x2="46.02" y2="294.74"></line><line class="link basepair" x1="30.86" y1="279.51" x2="45.67" y2="279.28"></line><line class="link backbone" x1="30.95" y1="294.93" x2="30.86" y2="279.51"></line><line class="link basepair" x1="30.58" y1="263.90" x2="45.46" y2="263.65"></line><line class="link backbone" x1="30.86" y1="279.51" x2="30.58" y2="263.90"></line><line class="link backbone" x1="30.58" y1="263.90" x2="19.60" y2="253.37"></line><line class="link backbone" x1="19.60" y1="253.37" x2="19.27" y2="238.46"></line><line class="link basepair" x1="29.83" y1="227.32" x2="44.65" y2="226.91"></line><line class="link backbone" x1="19.27" y1="238.46" x2="29.83" y2="227.32"></line><line class="link basepair" x1="29.42" y1="211.50" x2="43.93" y2="210.82"></line><line class="link backbone" x1="29.83" y1="227.32" x2="29.42" y2="211.50"></line><line class="link basepair" x1="28.43" y1="195.66" x2="42.92" y2="194.50"></line><line class="link backbone" x1="29.42" y1="211.50" x2="28.43" y2="195.66"></line><line class="link basepair" x1="26.88" y1="179.91" x2="41.26" y2="178.16"></line><line class="link backbone" x1="28.43" y1="195.66" x2="26.88" y2="179.91"></line><line class="link basepair" x1="24.52" y1="164.31" x2="39.06" y2="161.91"></line><line class="link backbone" x1="26.88" y1="179.91" x2="24.52" y2="164.31"></line><line class="link backbone" x1="24.52" y1="164.31" x2="14.67" y2="152.57"></line><line class="link basepair" x1="19.91" y1="138.29" x2="34.39" y2="135.62"></line><line class="link backbone" x1="14.67" y1="152.57" x2="19.91" y2="138.29"></line><line class="link basepair" x1="16.82" y1="122.82" x2="31.47" y2="120.04"></line><line class="link backbone" x1="19.91" y1="138.29" x2="16.82" y2="122.82"></line><line class="link backbone" x1="16.82" y1="122.82" x2="3.33" y2="115.27"></line><line class="link backbone" x1="3.33" y1="115.27" x2="-2.06" y2="101.08"></line><line class="link backbone" x1="-2.06" y1="101.08" x2="2.86" y2="86.77"></line><line class="link basepair" x1="16.06" y1="78.67" x2="30.78" y2="81.17"></line><line class="link backbone" x1="2.86" y1="86.77" x2="16.06" y2="78.67"></line><line class="link basepair" x1="19.62" y1="62.62" x2="33.70" y2="66.10"></line><line class="link backbone" x1="16.06" y1="78.67" x2="19.62" y2="62.62"></line><line class="link basepair" x1="24.39" y1="46.45" x2="38.03" y2="51.17"></line><line class="link backbone" x1="19.62" y1="62.62" x2="24.39" y2="46.45"></line><line class="link basepair" x1="30.67" y1="30.57" x2="43.86" y2="37.21"></line><line class="link backbone" x1="24.39" y1="46.45" x2="30.67" y2="30.57"></line><line class="link basepair" x1="33.96" y1="13.84" x2="48.93" y2="13.19"></line><line class="link backbone" x1="30.67" y1="30.57" x2="33.96" y2="13.84"></line><line class="link basepair" x1="29.28" y1="-2.64" x2="41.85" y2="-10.32"></line><line class="link backbone" x1="33.96" y1="13.84" x2="29.28" y2="-2.64"></line><line class="link basepair" x1="21.73" y1="-18.03" x2="35.01" y2="-23.75"></line><line class="link backbone" x1="29.28" y1="-2.64" x2="21.73" y2="-18.03"></line><line class="link basepair" x1="15.84" y1="-33.81" x2="29.69" y2="-38.25"></line><line class="link backbone" x1="21.73" y1="-18.03" x2="15.84" y2="-33.81"></line><line class="link basepair" x1="11.42" y1="-49.85" x2="25.60" y2="-53.20"></line><line class="link backbone" x1="15.84" y1="-33.81" x2="11.42" y2="-49.85"></line><line class="link basepair" x1="7.98" y1="-65.69" x2="22.66" y2="-68.36"></line><line class="link backbone" x1="11.42" y1="-49.85" x2="7.98" y2="-65.69"></line><line class="link backbone" x1="7.98" y1="-65.69" x2="-4.40" y2="-74.86"></line><line class="link backbone" x1="-4.40" y1="-74.86" x2="-6.83" y2="-89.58"></line><line class="link backbone" x1="-6.83" y1="-89.58" x2="1.96" y2="-101.84"></line><line class="link backbone" x1="1.96" y1="-101.84" x2="16.73" y2="-104.19"></line><line class="link backbone" x1="16.73" y1="-104.19" x2="29.04" y2="-95.58"></line><line class="link backbone" x1="29.04" y1="-95.58" x2="31.50" y2="-80.83"></line><line class="link basepair" x1="22.66" y1="-68.36" x2="7.98" y2="-65.69"></line><line class="link backbone" x1="31.50" y1="-80.83" x2="22.66" y2="-68.36"></line><line class="link basepair" x1="25.60" y1="-53.20" x2="11.42" y2="-49.85"></line><line class="link backbone" x1="22.66" y1="-68.36" x2="25.60" y2="-53.20"></line><line class="link basepair" x1="29.69" y1="-38.25" x2="15.84" y2="-33.81"></line><line class="link backbone" x1="25.60" y1="-53.20" x2="29.69" y2="-38.25"></line><line class="link basepair" x1="35.01" y1="-23.75" x2="21.73" y2="-18.03"></line><line class="link backbone" x1="29.69" y1="-38.25" x2="35.01" y2="-23.75"></line><line class="link basepair" x1="41.85" y1="-10.32" x2="29.28" y2="-2.64"></line><line class="link backbone" x1="35.01" y1="-23.75" x2="41.85" y2="-10.32"></line><line class="link backbone" x1="41.85" y1="-10.32" x2="54.05" y2="-1.02"></line><line class="link basepair" x1="48.93" y1="13.19" x2="33.96" y2="13.84"></line><line class="link backbone" x1="54.05" y1="-1.02" x2="48.93" y2="13.19"></line><line class="link backbone" x1="48.93" y1="13.19" x2="55.27" y2="26.86"></line><line class="link basepair" x1="43.86" y1="37.21" x2="30.67" y2="30.57"></line><line class="link backbone" x1="55.27" y1="26.86" x2="43.86" y2="37.21"></line><line class="link basepair" x1="38.03" y1="51.17" x2="24.39" y2="46.45"></line><line class="link backbone" x1="43.86" y1="37.21" x2="38.03" y2="51.17"></line><line class="link basepair" x1="33.70" y1="66.10" x2="19.62" y2="62.62"></line><line class="link backbone" x1="38.03" y1="51.17" x2="33.70" y2="66.10"></line><line class="link basepair" x1="30.78" y1="81.17" x2="16.06" y2="78.67"></line><line class="link backbone" x1="33.70" y1="66.10" x2="30.78" y2="81.17"></line><line class="link backbone" x1="30.78" y1="81.17" x2="40.80" y2="92.89"></line><line class="link backbone" x1="40.80" y1="92.89" x2="41.07" y2="107.94"></line><line class="link basepair" x1="31.47" y1="120.04" x2="16.82" y2="122.82"></line><line class="link backbone" x1="41.07" y1="107.94" x2="31.47" y2="120.04"></line><line class="link basepair" x1="34.39" y1="135.62" x2="19.91" y2="138.29"></line><line class="link backbone" x1="31.47" y1="120.04" x2="34.39" y2="135.62"></line><line class="link backbone" x1="34.39" y1="135.62" x2="44.34" y2="147.34"></line><line class="link basepair" x1="39.06" y1="161.91" x2="24.52" y2="164.31"></line><line class="link backbone" x1="44.34" y1="147.34" x2="39.06" y2="161.91"></line><line class="link basepair" x1="41.26" y1="178.16" x2="26.88" y2="179.91"></line><line class="link backbone" x1="39.06" y1="161.91" x2="41.26" y2="178.16"></line><line class="link basepair" x1="42.92" y1="194.50" x2="28.43" y2="195.66"></line><line class="link backbone" x1="41.26" y1="178.16" x2="42.92" y2="194.50"></line><line class="link basepair" x1="43.93" y1="210.82" x2="29.42" y2="211.50"></line><line class="link backbone" x1="42.92" y1="194.50" x2="43.93" y2="210.82"></line><line class="link basepair" x1="44.65" y1="226.91" x2="29.83" y2="227.32"></line><line class="link backbone" x1="43.93" y1="210.82" x2="44.65" y2="226.91"></line><line class="link backbone" x1="44.65" y1="226.91" x2="55.67" y2="237.66"></line><line class="link backbone" x1="55.67" y1="237.66" x2="55.98" y2="252.56"></line><line class="link basepair" x1="45.46" y1="263.65" x2="30.58" y2="263.90"></line><line class="link backbone" x1="55.98" y1="252.56" x2="45.46" y2="263.65"></line><line class="link basepair" x1="45.67" y1="279.28" x2="30.86" y2="279.51"></line><line class="link backbone" x1="45.46" y1="263.65" x2="45.67" y2="279.28"></line><line class="link basepair" x1="46.02" y1="294.74" x2="30.95" y2="294.93"></line><line class="link backbone" x1="45.67" y1="279.28" x2="46.02" y2="294.74"></line><line class="link backbone" x1="46.02" y1="294.74" x2="51.26" y2="309.32"></line><line class="link label_link" x1="24.52" y1="164.31" x2="9.30" y2="167.54"></line><line class="link label_link" x1="30.67" y1="30.57" x2="15.50" y2="27.09"></line><line class="link label_link" x1="16.73" y1="-104.19" x2="22.82" y2="-118.39"></line><line class="link label_link" x1="55.27" y1="26.86" x2="70.71" y2="28.93"></line><line class="link label_link" x1="39.06" y1="161.91" x2="54.71" y2="161.55"></line><line class="link label_link" x1="51.26" y1="309.32" x2="62.98" y2="319.45"></line><line class="link fake transparent" x1="19.91" y1="138.29" x2="25.64" y2="129.12"></line><line class="link fake transparent" x1="19.91" y1="138.29" x2="31.47" y2="120.04"></line><line class="link fake transparent" x1="16.82" y1="122.82" x2="25.64" y2="129.12"></line><line class="link fake transparent" x1="31.47" y1="120.04" x2="25.64" y2="129.12"></line><line class="link fake transparent" x1="34.39" y1="135.62" x2="25.64" y2="129.12"></line><line class="link fake transparent" x1="16.06" y1="78.67" x2="24.72" y2="72.25"></line><line class="link fake transparent" x1="19.62" y1="62.62" x2="24.72" y2="72.25"></line><line class="link fake transparent" x1="33.70" y1="66.10" x2="24.72" y2="72.25"></line><line class="link fake transparent" x1="30.78" y1="81.17" x2="24.72" y2="72.25"></line><line class="link fake transparent" x1="19.62" y1="62.62" x2="28.58" y2="56.53"></line><line class="link fake transparent" x1="24.39" y1="46.45" x2="28.58" y2="56.53"></line><line class="link fake transparent" x1="38.03" y1="51.17" x2="28.58" y2="56.53"></line><line class="link fake transparent" x1="33.70" y1="66.10" x2="28.58" y2="56.53"></line><line class="link fake transparent" x1="24.39" y1="46.45" x2="33.83" y2="41.15"></line><line class="link fake transparent" x1="30.67" y1="30.57" x2="33.83" y2="41.15"></line><line class="link fake transparent" x1="43.86" y1="37.21" x2="33.83" y2="41.15"></line><line class="link fake transparent" x1="38.03" y1="51.17" x2="33.83" y2="41.15"></line><line class="link fake transparent" x1="29.28" y1="-2.64" x2="31.55" y2="-13.44"></line><line class="link fake transparent" x1="21.73" y1="-18.03" x2="31.55" y2="-13.44"></line><line class="link fake transparent" x1="35.01" y1="-23.75" x2="31.55" y2="-13.44"></line><line class="link fake transparent" x1="41.85" y1="-10.32" x2="31.55" y2="-13.44"></line><line class="link fake transparent" x1="21.73" y1="-18.03" x2="25.20" y2="-28.38"></line><line class="link fake transparent" x1="15.84" y1="-33.81" x2="25.20" y2="-28.38"></line><line class="link fake transparent" x1="29.69" y1="-38.25" x2="25.20" y2="-28.38"></line><line class="link fake transparent" x1="35.01" y1="-23.75" x2="25.20" y2="-28.38"></line><line class="link fake transparent" x1="15.84" y1="-33.81" x2="20.31" y2="-43.71"></line><line class="link fake transparent" x1="11.42" y1="-49.85" x2="20.31" y2="-43.71"></line><line class="link fake transparent" x1="25.60" y1="-53.20" x2="20.31" y2="-43.71"></line><line class="link fake transparent" x1="29.69" y1="-38.25" x2="20.31" y2="-43.71"></line><line class="link fake transparent" x1="11.42" y1="-49.85" x2="16.69" y2="-59.29"></line><line class="link fake transparent" x1="7.98" y1="-65.69" x2="16.69" y2="-59.29"></line><line class="link fake transparent" x1="22.66" y1="-68.36" x2="16.69" y2="-59.29"></line><line class="link fake transparent" x1="25.60" y1="-53.20" x2="16.69" y2="-59.29"></line><line class="link fake transparent" x1="30.95" y1="294.93" x2="38.36" y2="287.23"></line><line class="link fake transparent" x1="30.86" y1="279.51" x2="38.36" y2="287.23"></line><line class="link fake transparent" x1="45.67" y1="279.28" x2="38.36" y2="287.23"></line><line class="link fake transparent" x1="46.02" y1="294.74" x2="38.36" y2="287.23"></line><line class="link fake transparent" x1="30.86" y1="279.51" x2="38.14" y2="271.61"></line><line class="link fake transparent" x1="30.58" y1="263.90" x2="38.14" y2="271.61"></line><line class="link fake transparent" x1="45.46" y1="263.65" x2="38.14" y2="271.61"></line><line class="link fake transparent" x1="45.67" y1="279.28" x2="38.14" y2="271.61"></line><line class="link fake transparent" x1="29.83" y1="227.32" x2="37.03" y2="219.19"></line><line class="link fake transparent" x1="29.42" y1="211.50" x2="37.03" y2="219.19"></line><line class="link fake transparent" x1="43.93" y1="210.82" x2="37.03" y2="219.19"></line><line class="link fake transparent" x1="44.65" y1="226.91" x2="37.03" y2="219.19"></line><line class="link fake transparent" x1="29.42" y1="211.50" x2="36.32" y2="203.11"></line><line class="link fake transparent" x1="28.43" y1="195.66" x2="36.32" y2="203.11"></line><line class="link fake transparent" x1="42.92" y1="194.50" x2="36.32" y2="203.11"></line><line class="link fake transparent" x1="43.93" y1="210.82" x2="36.32" y2="203.11"></line><line class="link fake transparent" x1="28.43" y1="195.66" x2="35.05" y2="187.04"></line><line class="link fake transparent" x1="26.88" y1="179.91" x2="35.05" y2="187.04"></line><line class="link fake transparent" x1="41.26" y1="178.16" x2="35.05" y2="187.04"></line><line class="link fake transparent" x1="42.92" y1="194.50" x2="35.05" y2="187.04"></line><line class="link fake transparent" x1="26.88" y1="179.91" x2="33.11" y2="171.06"></line><line class="link fake transparent" x1="24.52" y1="164.31" x2="33.11" y2="171.06"></line><line class="link fake transparent" x1="39.06" y1="161.91" x2="33.11" y2="171.06"></line><line class="link fake transparent" x1="41.26" y1="178.16" x2="33.11" y2="171.06"></line><line class="link fake transparent" x1="30.95" y1="294.93" x2="38.78" y2="305.35"></line><line class="link fake transparent" x1="30.95" y1="294.93" x2="51.26" y2="309.32"></line><line class="link fake transparent" x1="46.02" y1="294.74" x2="38.78" y2="305.35"></line><line class="link fake transparent" x1="46.02" y1="294.74" x2="50.13" y2="319.52"></line><line class="link fake transparent" x1="51.26" y1="309.32" x2="38.78" y2="305.35"></line><line class="link fake transparent" x1="51.26" y1="309.32" x2="36.12" y2="329.34"></line><line class="link fake transparent" x1="7.98" y1="-65.69" x2="12.33" y2="-85.01"></line><line class="link fake transparent" x1="7.98" y1="-65.69" x2="16.73" y2="-104.19"></line><line class="link fake transparent" x1="-4.40" y1="-74.86" x2="12.33" y2="-85.01"></line><line class="link fake transparent" x1="-4.40" y1="-74.86" x2="29.04" y2="-95.58"></line><line class="link fake transparent" x1="-6.83" y1="-89.58" x2="12.33" y2="-85.01"></line><line class="link fake transparent" x1="-6.83" y1="-89.58" x2="31.50" y2="-80.83"></line><line class="link fake transparent" x1="1.96" y1="-101.84" x2="12.33" y2="-85.01"></line><line class="link fake transparent" x1="1.96" y1="-101.84" x2="22.66" y2="-68.36"></line><line class="link fake transparent" x1="16.73" y1="-104.19" x2="12.33" y2="-85.01"></line><line class="link fake transparent" x1="16.73" y1="-104.19" x2="7.98" y2="-65.69"></line><line class="link fake transparent" x1="29.04" y1="-95.58" x2="12.33" y2="-85.01"></line><line class="link fake transparent" x1="29.04" y1="-95.58" x2="-4.40" y2="-74.86"></line><line class="link fake transparent" x1="31.50" y1="-80.83" x2="12.33" y2="-85.01"></line><line class="link fake transparent" x1="31.50" y1="-80.83" x2="-6.83" y2="-89.58"></line><line class="link fake transparent" x1="22.66" y1="-68.36" x2="12.33" y2="-85.01"></line><line class="link fake transparent" x1="22.66" y1="-68.36" x2="1.96" y2="-101.84"></line><line class="link fake transparent" x1="16.82" y1="122.82" x2="20.14" y2="100.74"></line><line class="link fake transparent" x1="16.82" y1="122.82" x2="16.06" y2="78.67"></line><line class="link fake transparent" x1="3.33" y1="115.27" x2="20.14" y2="100.74"></line><line class="link fake transparent" x1="3.33" y1="115.27" x2="30.78" y2="81.17"></line><line class="link fake transparent" x1="-2.06" y1="101.08" x2="20.14" y2="100.74"></line><line class="link fake transparent" x1="-2.06" y1="101.08" x2="40.80" y2="92.89"></line><line class="link fake transparent" x1="2.86" y1="86.77" x2="20.14" y2="100.74"></line><line class="link fake transparent" x1="2.86" y1="86.77" x2="41.07" y2="107.94"></line><line class="link fake transparent" x1="16.06" y1="78.67" x2="20.14" y2="100.74"></line><line class="link fake transparent" x1="16.06" y1="78.67" x2="31.47" y2="120.04"></line><line class="link fake transparent" x1="30.78" y1="81.17" x2="20.14" y2="100.74"></line><line class="link fake transparent" x1="30.78" y1="81.17" x2="16.82" y2="122.82"></line><line class="link fake transparent" x1="40.80" y1="92.89" x2="20.14" y2="100.74"></line><line class="link fake transparent" x1="40.80" y1="92.89" x2="3.33" y2="115.27"></line><line class="link fake transparent" x1="41.07" y1="107.94" x2="20.14" y2="100.74"></line><line class="link fake transparent" x1="41.07" y1="107.94" x2="-2.06" y2="101.08"></line><line class="link fake transparent" x1="31.47" y1="120.04" x2="20.14" y2="100.74"></line><line class="link fake transparent" x1="31.47" y1="120.04" x2="2.86" y2="86.77"></line><line class="link fake transparent" x1="30.67" y1="30.57" x2="42.11" y2="24.23"></line><line class="link fake transparent" x1="30.67" y1="30.57" x2="48.93" y2="13.19"></line><line class="link fake transparent" x1="33.96" y1="13.84" x2="42.11" y2="24.23"></line><line class="link fake transparent" x1="33.96" y1="13.84" x2="55.27" y2="26.86"></line><line class="link fake transparent" x1="48.93" y1="13.19" x2="42.11" y2="24.23"></line><line class="link fake transparent" x1="48.93" y1="13.19" x2="43.86" y2="37.21"></line><line class="link fake transparent" x1="55.27" y1="26.86" x2="42.11" y2="24.23"></line><line class="link fake transparent" x1="55.27" y1="26.86" x2="30.67" y2="30.57"></line><line class="link fake transparent" x1="43.86" y1="37.21" x2="42.11" y2="24.23"></line><line class="link fake transparent" x1="43.86" y1="37.21" x2="33.96" y2="13.84"></line><line class="link fake transparent" x1="33.96" y1="13.84" x2="41.17" y2="2.77"></line><line class="link fake transparent" x1="33.96" y1="13.84" x2="41.85" y2="-10.32"></line><line class="link fake transparent" x1="29.28" y1="-2.64" x2="41.17" y2="2.77"></line><line class="link fake transparent" x1="29.28" y1="-2.64" x2="54.05" y2="-1.02"></line><line class="link fake transparent" x1="41.85" y1="-10.32" x2="41.17" y2="2.77"></line><line class="link fake transparent" x1="41.85" y1="-10.32" x2="48.93" y2="13.19"></line><line class="link fake transparent" x1="54.05" y1="-1.02" x2="41.17" y2="2.77"></line><line class="link fake transparent" x1="54.05" y1="-1.02" x2="33.96" y2="13.84"></line><line class="link fake transparent" x1="48.93" y1="13.19" x2="41.17" y2="2.77"></line><line class="link fake transparent" x1="48.93" y1="13.19" x2="29.28" y2="-2.64"></line><line class="link fake transparent" x1="30.58" y1="263.90" x2="37.65" y2="245.45"></line><line class="link fake transparent" x1="30.58" y1="263.90" x2="44.65" y2="226.91"></line><line class="link fake transparent" x1="19.60" y1="253.37" x2="37.65" y2="245.45"></line><line class="link fake transparent" x1="19.60" y1="253.37" x2="55.67" y2="237.66"></line><line class="link fake transparent" x1="19.27" y1="238.46" x2="37.65" y2="245.45"></line><line class="link fake transparent" x1="19.27" y1="238.46" x2="55.98" y2="252.56"></line><line class="link fake transparent" x1="29.83" y1="227.32" x2="37.65" y2="245.45"></line><line class="link fake transparent" x1="29.83" y1="227.32" x2="45.46" y2="263.65"></line><line class="link fake transparent" x1="44.65" y1="226.91" x2="37.65" y2="245.45"></line><line class="link fake transparent" x1="44.65" y1="226.91" x2="30.58" y2="263.90"></line><line class="link fake transparent" x1="55.67" y1="237.66" x2="37.65" y2="245.45"></line><line class="link fake transparent" x1="55.67" y1="237.66" x2="19.60" y2="253.37"></line><line class="link fake transparent" x1="55.98" y1="252.56" x2="37.65" y2="245.45"></line><line class="link fake transparent" x1="55.98" y1="252.56" x2="19.27" y2="238.46"></line><line class="link fake transparent" x1="45.46" y1="263.65" x2="37.65" y2="245.45"></line><line class="link fake transparent" x1="45.46" y1="263.65" x2="29.83" y2="227.32"></line><line class="link fake transparent" x1="24.52" y1="164.31" x2="29.55" y2="150.00"></line><line class="link fake transparent" x1="24.52" y1="164.31" x2="34.39" y2="135.62"></line><line class="link fake transparent" x1="14.67" y1="152.57" x2="29.55" y2="150.00"></line><line class="link fake transparent" x1="14.67" y1="152.57" x2="44.34" y2="147.34"></line><line class="link fake transparent" x1="19.91" y1="138.29" x2="29.55" y2="150.00"></line><line class="link fake transparent" x1="19.91" y1="138.29" x2="39.06" y2="161.91"></line><line class="link fake transparent" x1="34.39" y1="135.62" x2="29.55" y2="150.00"></line><line class="link fake transparent" x1="34.39" y1="135.62" x2="24.52" y2="164.31"></line><line class="link fake transparent" x1="44.34" y1="147.34" x2="29.55" y2="150.00"></line><line class="link fake transparent" x1="44.34" y1="147.34" x2="14.67" y2="152.57"></line><line class="link fake transparent" x1="39.06" y1="161.91" x2="29.55" y2="150.00"></line><line class="link fake transparent" x1="39.06" y1="161.91" x2="19.91" y2="138.29"></line></g><g><g class="noselect gnode" struct_name="m" transform="translate(30.95,294.93)" r="6.5"><circle class="node" r="6" node_type="nucleotide" style="fill: lightgreen;"></circle><text text-anchor="middle" font-size="8" font-weight="bold" y="2.5" class="node-label">A</text></g><g class="noselect gnode" struct_name="m" transform="translate(30.86,279.51)" r="6.5"><circle class="node" r="6" node_type="nucleotide" style="fill: lightgreen;"></circle><text text-anchor="middle" font-size="8" font-weight="bold" y="2.5" class="node-label">G</text></g><g class="noselect gnode" struct_name="m" transform="translate(30.58,263.90)" r="6.5"><circle class="node" r="6" node_type="nucleotide" style="fill: lightgreen;"></circle><text text-anchor="middle" font-size="8" font-weight="bold" y="2.5" class="node-label">C</text></g><g class="noselect gnode" struct_name="m" transform="translate(19.60,253.37)" r="6.5"><circle class="node" r="6" node_type="nucleotide" style="fill: rgb(219, 219, 141);"></circle><text text-anchor="middle" font-size="8" font-weight="bold" y="2.5" class="node-label">C</text></g><g class="noselect gnode" struct_name="m" transform="translate(19.27,238.46)" r="6.5"><circle class="node" r="6" node_type="nucleotide" style="fill: rgb(219, 219, 141);"></circle><text text-anchor="middle" font-size="8" font-weight="bold" y="2.5" class="node-label">A</text></g><g class="noselect gnode" struct_name="m" transform="translate(29.83,227.32)" r="6.5"><circle class="node" r="6" node_type="nucleotide" style="fill: lightgreen;"></circle><text text-anchor="middle" font-size="8" font-weight="bold" y="2.5" class="node-label">C</text></g><g class="noselect gnode" struct_name="m" transform="translate(29.42,211.50)" r="6.5"><circle class="node" r="6" node_type="nucleotide" style="fill: lightgreen;"></circle><text text-anchor="middle" font-size="8" font-weight="bold" y="2.5" class="node-label">C</text></g><g class="noselect gnode" struct_name="m" transform="translate(28.43,195.66)" r="6.5"><circle class="node" r="6" node_type="nucleotide" style="fill: lightgreen;"></circle><text text-anchor="middle" font-size="8" font-weight="bold" y="2.5" class="node-label">A</text></g><g class="noselect gnode" struct_name="m" transform="translate(26.88,179.91)" r="6.5"><circle class="node" r="6" node_type="nucleotide" style="fill: lightgreen;"></circle><text text-anchor="middle" font-size="8" font-weight="bold" y="2.5" class="node-label">G</text></g><g class="noselect gnode" struct_name="m" transform="translate(24.52,164.31)" r="6.5"><circle class="node" r="6" node_type="nucleotide" style="fill: lightgreen;"></circle><text text-anchor="middle" font-size="8" font-weight="bold" y="2.5" class="node-label">G</text></g><g class="noselect gnode" struct_name="m" transform="translate(14.67,152.57)" r="6.5"><circle class="node" r="6" node_type="nucleotide" style="fill: rgb(219, 219, 141);"></circle><text text-anchor="middle" font-size="8" font-weight="bold" y="2.5" class="node-label">A</text></g><g class="noselect gnode" struct_name="m" transform="translate(19.91,138.29)" r="6.5"><circle class="node" r="6" node_type="nucleotide" style="fill: lightgreen;"></circle><text text-anchor="middle" font-size="8" font-weight="bold" y="2.5" class="node-label">C</text></g><g class="noselect gnode" struct_name="m" transform="translate(16.82,122.82)" r="6.5"><circle class="node" r="6" node_type="nucleotide" style="fill: lightgreen;"></circle><text text-anchor="middle" font-size="8" font-weight="bold" y="2.5" class="node-label">U</text></g><g class="noselect gnode" struct_name="m" transform="translate(3.33,115.27)" r="6.5"><circle class="node" r="6" node_type="nucleotide" style="fill: rgb(219, 219, 141);"></circle><text text-anchor="middle" font-size="8" font-weight="bold" y="2.5" class="node-label">A</text></g><g class="noselect gnode" struct_name="m" transform="translate(-2.06,101.08)" r="6.5"><circle class="node" r="6" node_type="nucleotide" style="fill: rgb(219, 219, 141);"></circle><text text-anchor="middle" font-size="8" font-weight="bold" y="2.5" class="node-label">U</text></g><g class="noselect gnode" struct_name="m" transform="translate(2.86,86.77)" r="6.5"><circle class="node" r="6" node_type="nucleotide" style="fill: rgb(219, 219, 141);"></circle><text text-anchor="middle" font-size="8" font-weight="bold" y="2.5" class="node-label">U</text></g><g class="noselect gnode" struct_name="m" transform="translate(16.06,78.67)" r="6.5"><circle class="node" r="6" node_type="nucleotide" style="fill: lightgreen;"></circle><text text-anchor="middle" font-size="8" font-weight="bold" y="2.5" class="node-label">U</text></g><g class="noselect gnode" struct_name="m" transform="translate(19.62,62.62)" r="6.5"><circle class="node" r="6" node_type="nucleotide" style="fill: lightgreen;"></circle><text text-anchor="middle" font-size="8" font-weight="bold" y="2.5" class="node-label">C</text></g><g class="noselect gnode" struct_name="m" transform="translate(24.39,46.45)" r="6.5"><circle class="node" r="6" node_type="nucleotide" style="fill: lightgreen;"></circle><text text-anchor="middle" font-size="8" font-weight="bold" y="2.5" class="node-label">C</text></g><g class="noselect gnode" struct_name="m" transform="translate(30.67,30.57)" r="6.5"><circle class="node" r="6" node_type="nucleotide" style="fill: lightgreen;"></circle><text text-anchor="middle" font-size="8" font-weight="bold" y="2.5" class="node-label">A</text></g><g class="noselect gnode" struct_name="m" transform="translate(33.96,13.84)" r="6.5"><circle class="node" r="6" node_type="nucleotide" style="fill: lightgreen;"></circle><text text-anchor="middle" font-size="8" font-weight="bold" y="2.5" class="node-label">C</text></g><g class="noselect gnode" struct_name="m" transform="translate(29.28,-2.64)" r="6.5"><circle class="node" r="6" node_type="nucleotide" style="fill: lightgreen;"></circle><text text-anchor="middle" font-size="8" font-weight="bold" y="2.5" class="node-label">U</text></g><g class="noselect gnode" struct_name="m" transform="translate(21.73,-18.03)" r="6.5"><circle class="node" r="6" node_type="nucleotide" style="fill: lightgreen;"></circle><text text-anchor="middle" font-size="8" font-weight="bold" y="2.5" class="node-label">U</text></g><g class="noselect gnode" struct_name="m" transform="translate(15.84,-33.81)" r="6.5"><circle class="node" r="6" node_type="nucleotide" style="fill: lightgreen;"></circle><text text-anchor="middle" font-size="8" font-weight="bold" y="2.5" class="node-label">G</text></g><g class="noselect gnode" struct_name="m" transform="translate(11.42,-49.85)" r="6.5"><circle class="node" r="6" node_type="nucleotide" style="fill: lightgreen;"></circle><text text-anchor="middle" font-size="8" font-weight="bold" y="2.5" class="node-label">G</text></g><g class="noselect gnode" struct_name="m" transform="translate(7.98,-65.69)" r="6.5"><circle class="node" r="6" node_type="nucleotide" style="fill: lightgreen;"></circle><text text-anchor="middle" font-size="8" font-weight="bold" y="2.5" class="node-label">A</text></g><g class="noselect gnode" struct_name="m" transform="translate(-4.40,-74.86)" r="6.5"><circle class="node" r="6" node_type="nucleotide" style="fill: lightblue;"></circle><text text-anchor="middle" font-size="8" font-weight="bold" y="2.5" class="node-label">U</text></g><g class="noselect gnode" struct_name="m" transform="translate(-6.83,-89.58)" r="6.5"><circle class="node" r="6" node_type="nucleotide" style="fill: lightblue;"></circle><text text-anchor="middle" font-size="8" font-weight="bold" y="2.5" class="node-label">C</text></g><g class="noselect gnode" struct_name="m" transform="translate(1.96,-101.84)" r="6.5"><circle class="node" r="6" node_type="nucleotide" style="fill: lightblue;"></circle><text text-anchor="middle" font-size="8" font-weight="bold" y="2.5" class="node-label">C</text></g><g class="noselect gnode" struct_name="m" transform="translate(16.73,-104.19)" r="6.5"><circle class="node" r="6" node_type="nucleotide" style="fill: lightblue;"></circle><text text-anchor="middle" font-size="8" font-weight="bold" y="2.5" class="node-label">U</text></g><g class="noselect gnode" struct_name="m" transform="translate(29.04,-95.58)" r="6.5"><circle class="node" r="6" node_type="nucleotide" style="fill: lightblue;"></circle><text text-anchor="middle" font-size="8" font-weight="bold" y="2.5" class="node-label">A</text></g><g class="noselect gnode" struct_name="m" transform="translate(31.50,-80.83)" r="6.5"><circle class="node" r="6" node_type="nucleotide" style="fill: lightblue;"></circle><text text-anchor="middle" font-size="8" font-weight="bold" y="2.5" class="node-label">U</text></g><g class="noselect gnode" struct_name="m" transform="translate(22.66,-68.36)" r="6.5"><circle class="node" r="6" node_type="nucleotide" style="fill: lightgreen;"></circle><text text-anchor="middle" font-size="8" font-weight="bold" y="2.5" class="node-label">U</text></g><g class="noselect gnode" struct_name="m" transform="translate(25.60,-53.20)" r="6.5"><circle class="node" r="6" node_type="nucleotide" style="fill: lightgreen;"></circle><text text-anchor="middle" font-size="8" font-weight="bold" y="2.5" class="node-label">C</text></g><g class="noselect gnode" struct_name="m" transform="translate(29.69,-38.25)" r="6.5"><circle class="node" r="6" node_type="nucleotide" style="fill: lightgreen;"></circle><text text-anchor="middle" font-size="8" font-weight="bold" y="2.5" class="node-label">C</text></g><g class="noselect gnode" struct_name="m" transform="translate(35.01,-23.75)" r="6.5"><circle class="node" r="6" node_type="nucleotide" style="fill: lightgreen;"></circle><text text-anchor="middle" font-size="8" font-weight="bold" y="2.5" class="node-label">A</text></g><g class="noselect gnode" struct_name="m" transform="translate(41.85,-10.32)" r="6.5"><circle class="node" r="6" node_type="nucleotide" style="fill: lightgreen;"></circle><text text-anchor="middle" font-size="8" font-weight="bold" y="2.5" class="node-label">A</text></g><g class="noselect gnode" struct_name="m" transform="translate(54.05,-1.02)" r="6.5"><circle class="node" r="6" node_type="nucleotide" style="fill: rgb(219, 219, 141);"></circle><text text-anchor="middle" font-size="8" font-weight="bold" y="2.5" class="node-label">C</text></g><g class="noselect gnode" struct_name="m" transform="translate(48.93,13.19)" r="6.5"><circle class="node" r="6" node_type="nucleotide" style="fill: lightgreen;"></circle><text text-anchor="middle" font-size="8" font-weight="bold" y="2.5" class="node-label">G</text></g><g class="noselect gnode" struct_name="m" transform="translate(55.27,26.86)" r="6.5"><circle class="node" r="6" node_type="nucleotide" style="fill: rgb(219, 219, 141);"></circle><text text-anchor="middle" font-size="8" font-weight="bold" y="2.5" class="node-label">C</text></g><g class="noselect gnode" struct_name="m" transform="translate(43.86,37.21)" r="6.5"><circle class="node" r="6" node_type="nucleotide" style="fill: lightgreen;"></circle><text text-anchor="middle" font-size="8" font-weight="bold" y="2.5" class="node-label">U</text></g><g class="noselect gnode" struct_name="m" transform="translate(38.03,51.17)" r="6.5"><circle class="node" r="6" node_type="nucleotide" style="fill: lightgreen;"></circle><text text-anchor="middle" font-size="8" font-weight="bold" y="2.5" class="node-label">G</text></g><g class="noselect gnode" struct_name="m" transform="translate(33.70,66.10)" r="6.5"><circle class="node" r="6" node_type="nucleotide" style="fill: lightgreen;"></circle><text text-anchor="middle" font-size="8" font-weight="bold" y="2.5" class="node-label">G</text></g><g class="noselect gnode" struct_name="m" transform="translate(30.78,81.17)" r="6.5"><circle class="node" r="6" node_type="nucleotide" style="fill: lightgreen;"></circle><text text-anchor="middle" font-size="8" font-weight="bold" y="2.5" class="node-label">A</text></g><g class="noselect gnode" struct_name="m" transform="translate(40.80,92.89)" r="6.5"><circle class="node" r="6" node_type="nucleotide" style="fill: rgb(219, 219, 141);"></circle><text text-anchor="middle" font-size="8" font-weight="bold" y="2.5" class="node-label">U</text></g><g class="noselect gnode" struct_name="m" transform="translate(41.07,107.94)" r="6.5"><circle class="node" r="6" node_type="nucleotide" style="fill: rgb(219, 219, 141);"></circle><text text-anchor="middle" font-size="8" font-weight="bold" y="2.5" class="node-label">A</text></g><g class="noselect gnode" struct_name="m" transform="translate(31.47,120.04)" r="6.5"><circle class="node" r="6" node_type="nucleotide" style="fill: lightgreen;"></circle><text text-anchor="middle" font-size="8" font-weight="bold" y="2.5" class="node-label">A</text></g><g class="noselect gnode" struct_name="m" transform="translate(34.39,135.62)" r="6.5"><circle class="node" r="6" node_type="nucleotide" style="fill: lightgreen;"></circle><text text-anchor="middle" font-size="8" font-weight="bold" y="2.5" class="node-label">G</text></g><g class="noselect gnode" struct_name="m" transform="translate(44.34,147.34)" r="6.5"><circle class="node" r="6" node_type="nucleotide" style="fill: rgb(219, 219, 141);"></circle><text text-anchor="middle" font-size="8" font-weight="bold" y="2.5" class="node-label">C</text></g><g class="noselect gnode" struct_name="m" transform="translate(39.06,161.91)" r="6.5"><circle class="node" r="6" node_type="nucleotide" style="fill: lightgreen;"></circle><text text-anchor="middle" font-size="8" font-weight="bold" y="2.5" class="node-label">C</text></g><g class="noselect gnode" struct_name="m" transform="translate(41.26,178.16)" r="6.5"><circle class="node" r="6" node_type="nucleotide" style="fill: lightgreen;"></circle><text text-anchor="middle" font-size="8" font-weight="bold" y="2.5" class="node-label">C</text></g><g class="noselect gnode" struct_name="m" transform="translate(42.92,194.50)" r="6.5"><circle class="node" r="6" node_type="nucleotide" style="fill: lightgreen;"></circle><text text-anchor="middle" font-size="8" font-weight="bold" y="2.5" class="node-label">U</text></g><g class="noselect gnode" struct_name="m" transform="translate(43.93,210.82)" r="6.5"><circle class="node" r="6" node_type="nucleotide" style="fill: lightgreen;"></circle><text text-anchor="middle" font-size="8" font-weight="bold" y="2.5" class="node-label">G</text></g><g class="noselect gnode" struct_name="m" transform="translate(44.65,226.91)" r="6.5"><circle class="node" r="6" node_type="nucleotide" style="fill: lightgreen;"></circle><text text-anchor="middle" font-size="8" font-weight="bold" y="2.5" class="node-label">G</text></g><g class="noselect gnode" struct_name="m" transform="translate(55.67,237.66)" r="6.5"><circle class="node" r="6" node_type="nucleotide" style="fill: rgb(219, 219, 141);"></circle><text text-anchor="middle" font-size="8" font-weight="bold" y="2.5" class="node-label">C</text></g><g class="noselect gnode" struct_name="m" transform="translate(55.98,252.56)" r="6.5"><circle class="node" r="6" node_type="nucleotide" style="fill: rgb(219, 219, 141);"></circle><text text-anchor="middle" font-size="8" font-weight="bold" y="2.5" class="node-label">C</text></g><g class="noselect gnode" struct_name="m" transform="translate(45.46,263.65)" r="6.5"><circle class="node" r="6" node_type="nucleotide" style="fill: lightgreen;"></circle><text text-anchor="middle" font-size="8" font-weight="bold" y="2.5" class="node-label">G</text></g><g class="noselect gnode" struct_name="m" transform="translate(45.67,279.28)" r="6.5"><circle class="node" r="6" node_type="nucleotide" style="fill: lightgreen;"></circle><text text-anchor="middle" font-size="8" font-weight="bold" y="2.5" class="node-label">U</text></g><g class="noselect gnode" struct_name="m" transform="translate(46.02,294.74)" r="6.5"><circle class="node" r="6" node_type="nucleotide" style="fill: lightgreen;"></circle><text text-anchor="middle" font-size="8" font-weight="bold" y="2.5" class="node-label">U</text></g><g class="noselect gnode" struct_name="m" transform="translate(51.26,309.32)" r="6.5"><circle class="node" r="6" node_type="nucleotide" style="fill: lightsalmon;"></circle><text text-anchor="middle" font-size="8" font-weight="bold" y="2.5" class="node-label">U</text></g><g class="noselect gnode" struct_name="m" transform="translate(9.30,167.54)" r="6.5"><circle class="node label" r="6" node_type="label"></circle><text text-anchor="middle" font-size="8" font-weight="bold" y="2.5" class="node-label">10</text></g><g class="noselect gnode" struct_name="m" transform="translate(15.50,27.09)" r="6.5"><circle class="node label" r="6" node_type="label"></circle><text text-anchor="middle" font-size="8" font-weight="bold" y="2.5" class="node-label">20</text></g><g class="noselect gnode" struct_name="m" transform="translate(22.82,-118.39)" r="6.5"><circle class="node label" r="6" node_type="label"></circle><text text-anchor="middle" font-size="8" font-weight="bold" y="2.5" class="node-label">30</text></g><g class="noselect gnode" struct_name="m" transform="translate(70.71,28.93)" r="6.5"><circle class="node label" r="6" node_type="label"></circle><text text-anchor="middle" font-size="8" font-weight="bold" y="2.5" class="node-label">40</text></g><g class="noselect gnode" struct_name="m" transform="translate(54.71,161.55)" r="6.5"><circle class="node label" r="6" node_type="label"></circle><text text-anchor="middle" font-size="8" font-weight="bold" y="2.5" class="node-label">50</text></g><g class="noselect gnode" struct_name="m" transform="translate(62.98,319.45)" r="6.5"><circle class="node label" r="6" node_type="label"></circle><text text-anchor="middle" font-size="8" font-weight="bold" y="2.5" class="node-label">60</text></g><g class="noselect gnode" transform="translate(25.64,129.12)" r="6.5"><circle class="node" r="0" node_type="middle"></circle><text text-anchor="middle" font-size="8" font-weight="bold" y="2.5" class="node-label"></text></g><g class="noselect gnode" transform="translate(24.72,72.25)" r="6.5"><circle class="node" r="0" node_type="middle"></circle><text text-anchor="middle" font-size="8" font-weight="bold" y="2.5" class="node-label"></text></g><g class="noselect gnode" transform="translate(28.58,56.53)" r="6.5"><circle class="node" r="0" node_type="middle"></circle><text text-anchor="middle" font-size="8" font-weight="bold" y="2.5" class="node-label"></text></g><g class="noselect gnode" transform="translate(33.83,41.15)" r="6.5"><circle class="node" r="0" node_type="middle"></circle><text text-anchor="middle" font-size="8" font-weight="bold" y="2.5" class="node-label"></text></g><g class="noselect gnode" transform="translate(31.55,-13.44)" r="6.5"><circle class="node" r="0" node_type="middle"></circle><text text-anchor="middle" font-size="8" font-weight="bold" y="2.5" class="node-label"></text></g><g class="noselect gnode" transform="translate(25.20,-28.38)" r="6.5"><circle class="node" r="0" node_type="middle"></circle><text text-anchor="middle" font-size="8" font-weight="bold" y="2.5" class="node-label"></text></g><g class="noselect gnode" transform="translate(20.31,-43.71)" r="6.5"><circle class="node" r="0" node_type="middle"></circle><text text-anchor="middle" font-size="8" font-weight="bold" y="2.5" class="node-label"></text></g><g class="noselect gnode" transform="translate(16.69,-59.29)" r="6.5"><circle class="node" r="0" node_type="middle"></circle><text text-anchor="middle" font-size="8" font-weight="bold" y="2.5" class="node-label"></text></g><g class="noselect gnode" transform="translate(38.36,287.23)" r="6.5"><circle class="node" r="0" node_type="middle"></circle><text text-anchor="middle" font-size="8" font-weight="bold" y="2.5" class="node-label"></text></g><g class="noselect gnode" transform="translate(38.14,271.61)" r="6.5"><circle class="node" r="0" node_type="middle"></circle><text text-anchor="middle" font-size="8" font-weight="bold" y="2.5" class="node-label"></text></g><g class="noselect gnode" transform="translate(37.03,219.19)" r="6.5"><circle class="node" r="0" node_type="middle"></circle><text text-anchor="middle" font-size="8" font-weight="bold" y="2.5" class="node-label"></text></g><g class="noselect gnode" transform="translate(36.32,203.11)" r="6.5"><circle class="node" r="0" node_type="middle"></circle><text text-anchor="middle" font-size="8" font-weight="bold" y="2.5" class="node-label"></text></g><g class="noselect gnode" transform="translate(35.05,187.04)" r="6.5"><circle class="node" r="0" node_type="middle"></circle><text text-anchor="middle" font-size="8" font-weight="bold" y="2.5" class="node-label"></text></g><g class="noselect gnode" transform="translate(33.11,171.06)" r="6.5"><circle class="node" r="0" node_type="middle"></circle><text text-anchor="middle" font-size="8" font-weight="bold" y="2.5" class="node-label"></text></g><g class="noselect gnode" transform="translate(50.13,319.52)" r="6.5"><circle class="node" r="0" node_type="middle"></circle><text text-anchor="middle" font-size="8" font-weight="bold" y="2.5" class="node-label"></text></g><g class="noselect gnode" transform="translate(36.12,329.34)" r="6.5"><circle class="node" r="0" node_type="middle"></circle><text text-anchor="middle" font-size="8" font-weight="bold" y="2.5" class="node-label"></text></g><g class="noselect gnode" transform="translate(38.78,305.35)" r="6.5"><circle class="node" r="0" node_type="middle"></circle><text text-anchor="middle" font-size="8" font-weight="bold" y="2.5" class="node-label"></text></g><g class="noselect gnode" transform="translate(12.33,-85.01)" r="6.5"><circle class="node" r="0" node_type="middle"></circle><text text-anchor="middle" font-size="8" font-weight="bold" y="2.5" class="node-label"></text></g><g class="noselect gnode" transform="translate(20.14,100.74)" r="6.5"><circle class="node" r="0" node_type="middle"></circle><text text-anchor="middle" font-size="8" font-weight="bold" y="2.5" class="node-label"></text></g><g class="noselect gnode" transform="translate(42.11,24.23)" r="6.5"><circle class="node" r="0" node_type="middle"></circle><text text-anchor="middle" font-size="8" font-weight="bold" y="2.5" class="node-label"></text></g><g class="noselect gnode" transform="translate(41.17,2.77)" r="6.5"><circle class="node" r="0" node_type="middle"></circle><text text-anchor="middle" font-size="8" font-weight="bold" y="2.5" class="node-label"></text></g><g class="noselect gnode" transform="translate(37.65,245.45)" r="6.5"><circle class="node" r="0" node_type="middle"></circle><text text-anchor="middle" font-size="8" font-weight="bold" y="2.5" class="node-label"></text></g><g class="noselect gnode" transform="translate(29.55,150.00)" r="6.5"><circle class="node" r="0" node_type="middle"></circle><text text-anchor="middle" font-size="8" font-weight="bold" y="2.5" class="node-label"></text></g></g><line class="drag_line" x1="0" y1="0" x2="0" y2="0"></line></g></g></svg>