<svg xmlns="http://www.w3.org/2000/svg" viewBox="0 0 760 640" width="760" height="640"><style>svg {
  display: block;
  min-width: 100%;
  width: 100%;
  min-height: 100%;
}

circle.node {
  stroke: #ccc;
  stroke-width: 1px;
  opacity: 1;
  fill: white;
}

circle.node.label {
    stroke: transparent;
    stroke-width: 0;
    fill: white;
}

circle.outline_node {
    stroke-width: 1px;
    fill: red;
}

circle.protein {
    fill: gray;
    fill-opacity: 0.5;
    stroke-width: 4;
}

circle.hidden_outline {
    stroke-width: 0px;
}


line.link {
  stroke: #999;
  stroke-opacity: 0.8;
  stroke-width: 2;
}

line.basepair {
  stroke: red;
}

line.intermolecule {
  stroke: blue;
}

line.chain_chain {
  stroke-dasharray: 3,3;
}

line.fake {
  stroke: green;
}

.transparent {
    fill: transparent;
    stroke-width: 0;
    stroke-opacity: 0;
    opacity: 0;
    visibility: hidden;
}

.drag_line {
  stroke: #999;
  stroke-width: 2;
  pointer-events: none;
}

.drag_line_hidden {
  stroke: #999;
  stroke-width: 0;
  pointer-events: none;
}

.d3-tip {
    line-height: 1;
    font-weight: bold;
    padding: 6px;
    background: rgba(0, 0, 0, 0.6);
    color: #fff;
    border-radius: 4px;
    pointer-events: none;
          }

text.node-label {
    font-weight: bold;
    font-family: Tahoma, Geneva, sans-serif;
    color: rgb(100,100,100);
    pointer-events: none;
}

text {
    pointer-events: none;
}

g.gnode {

}

circle.outline_node.selected {
    visibility: visible;
}

circle.outline_node {
    visibility: hidden;
}

.brush .extent {
  fill-opacity: .1;
  stroke: #fff;
  shape-rendering: crispEdges;
}

.noselect {
    -webkit-touch-callout: none;
    -webkit-user-select: none;
    -khtml-user-select: none;
    -moz-user-select: none;
    -ms-user-select: none;
    user-select: none;
}

svg {
  display: block;
  min-width: 100%;
  width: 100%;
  min-height: 100%;
}

circle.node {
  stroke: #ccc;
  stroke-width: 1px;
  opacity: 1;
  fill: white;
}

circle.node.label {
    stroke: transparent;
    stroke-width: 0;
    fill: white;
}

circle.outline_node {
    stroke-width: 1px;
    fill: red;
}

circle.protein {
    fill: gray;
    fill-opacity: 0.5;
    stroke-width: 4;
}

circle.hidden_outline {
    stroke-width: 0px;
}


line.link {
  stroke: #999;
  stroke-opacity: 0.8;
  stroke-width: 2;
}

line.basepair {
  stroke: red;
}

line.intermolecule {
  stroke: blue;
}

line.chain_chain {
  stroke-dasharray: 3,3;
}

line.fake {
  stroke: green;
}

.transparent {
    fill: transparent;
    stroke-width: 0;
    stroke-opacity: 0;
    opacity: 0;
    visibility: hidden;
}

.drag_line {
  stroke: #999;
  stroke-width: 2;
  pointer-events: none;
}

.drag_line_hidden {
  stroke: #999;
  stroke-width: 0;
  pointer-events: none;
}

.d3-tip {
    line-height: 1;
    font-weight: bold;
    padding: 6px;
    background: rgba(0, 0, 0, 0.6);
    color: #fff;
    border-radius: 4px;
    pointer-events: none;
          }

text.node-label {
    font-weight: bold;
    font-family: Tahoma, Geneva, sans-serif;
    color: rgb(100,100,100);
    pointer-events: none;
}

text {
    pointer-events: none;
}

g.gnode {

}

circle.outline_node.selected {
    visibility: visible;
}

circle.outline_node {
    visibility: hidden;
}

.brush .extent {
  fill-opacity: .1;
  stroke: #fff;
  shape-rendering: crispEdges;
}

.noselect {
    -webkit-touch-callout: none;
    -webkit-user-select: none;
    -khtml-user-select: none;
    -moz-user-select: none;
    -ms-user-select: none;
    user-select: none;
}
/*# sourceURL=/Users/yumanakamura/ipy_sandbox/sandbox/claude_sandbox/mrna-transformer-worktrees/feat-issue57-switch-derna-knotty/scripts/eval/prerender/forna_vendor/fornac.css*/</style><style></style><g><g class="brush" style="pointer-events: all; -webkit-tap-highlight-color: rgba(0, 0, 0, 0);"><rect class="background" x="0" width="760" y="0" height="640" style="visibility: hidden; cursor: auto;"></rect><rect class="extent" x="0" width="0" y="0" height="0" style="cursor: move;"></rect><g class="resize n" transform="translate(0,0)" style="cursor: ns-resize; display: none;"><rect y="-3" width="0" height="6" style="visibility: hidden;"></rect></g><g class="resize e" transform="translate(0,0)" style="cursor: ew-resize; display: none;"><rect x="-3" width="6" height="0" style="visibility: hidden;"></rect></g><g class="resize s" transform="translate(0,0)" style="cursor: ns-resize; display: none;"><rect y="-3" width="0" height="6" style="visibility: hidden;"></rect></g><g class="resize w" transform="translate(0,0)" style="cursor: ew-resize; display: none;"><rect x="-3" width="6" height="0" style="visibility: hidden;"></rect></g><g class="resize nw" transform="translate(0,0)" style="cursor: nwse-resize; display: none;"><rect x="-3" y="-3" width="6" height="6" style="visibility: hidden;"></rect></g><g class="resize ne" transform="translate(0,0)" style="cursor: nesw-resize; display: none;"><rect x="-3" y="-3" width="6" height="6" style="visibility: hidden;"></rect></g><g class="resize se" transform="translate(0,0)" style="cursor: nwse-resize; display: none;"><rect x="-3" y="-3" width="6" height="6" style="visibility: hidden;"></rect></g><g class="resize sw" transform="translate(0,0)" style="cursor: nesw-resize; display: none;"><rect x="-3" y="-3" width="6" height="6" style="visibility: hidden;"></rect></g></g><g transform="translate(320.34,188.15) scale(1.23)"><g><line class="link basepair" x1="77.02" y1="283.41" x2="91.33" y2="279.12"></line><line class="link basepair" x1="72.64" y1="268.32" x2="86.86" y2="264.33"></line><line class="link backbone" x1="77.02" y1="283.41" x2="72.64" y2="268.32"></line><line class="link basepair" x1="68.59" y1="252.74" x2="82.89" y2="249.36"></line><line class="link backbone" x1="72.64" y1="268.32" x2="68.59" y2="252.74"></line><line class="link basepair" x1="65.29" y1="236.74" x2="79.71" y2="234.25"></line><line class="link backbone" x1="68.59" y1="252.74" x2="65.29" y2="236.74"></line><line class="link basepair" x1="63.15" y1="220.24" x2="77.65" y2="218.99"></line><line class="link backbone" x1="65.29" y1="236.74" x2="63.15" y2="220.24"></line><line class="link basepair" x1="62.36" y1="203.56" x2="77.10" y2="203.69"></line><line class="link backbone" x1="63.15" y1="220.24" x2="62.36" y2="203.56"></line><line class="link backbone" x1="62.36" y1="203.56" x2="55.06" y2="189.79"></line><line class="link basepair" x1="63.40" y1="176.61" x2="78.06" y2="177.61"></line><line class="link backbone" x1="55.06" y1="189.79" x2="63.40" y2="176.61"></line><line class="link basepair" x1="65.71" y1="159.75" x2="79.88" y2="162.46"></line><line class="link backbone" x1="63.40" y1="176.61" x2="65.71" y2="159.75"></line><line class="link basepair" x1="69.96" y1="142.98" x2="83.80" y2="147.98"></line><line class="link backbone" x1="65.71" y1="159.75" x2="69.96" y2="142.98"></line><line class="link basepair" x1="67.97" y1="126.35" x2="80.26" y2="118.23"></line><line class="link backbone" x1="69.96" y1="142.98" x2="67.97" y2="126.35"></line><line class="link basepair" x1="59.82" y1="111.42" x2="73.13" y2="105.16"></line><line class="link backbone" x1="67.97" y1="126.35" x2="59.82" y2="111.42"></line><line class="link backbone" x1="59.82" y1="111.42" x2="47.30" y2="102.12"></line><line class="link basepair" x1="49.06" y1="86.72" x2="62.74" y2="81.18"></line><line class="link backbone" x1="47.30" y1="102.12" x2="49.06" y2="86.72"></line><line class="link basepair" x1="43.58" y1="71.16" x2="57.50" y2="66.79"></line><line class="link backbone" x1="49.06" y1="86.72" x2="43.58" y2="71.16"></line><line class="link basepair" x1="39.27" y1="55.10" x2="53.45" y2="51.82"></line><line class="link backbone" x1="43.58" y1="71.16" x2="39.27" y2="55.10"></line><line class="link basepair" x1="36.05" y1="38.94" x2="50.41" y2="36.43"></line><line class="link backbone" x1="39.27" y1="55.10" x2="36.05" y2="38.94"></line><line class="link basepair" x1="33.48" y1="23.05" x2="48.10" y2="20.85"></line><line class="link backbone" x1="36.05" y1="38.94" x2="33.48" y2="23.05"></line><line class="link backbone" x1="33.48" y1="23.05" x2="21.18" y2="14.03"></line><line class="link backbone" x1="21.18" y1="14.03" x2="18.89" y2="-0.77"></line><line class="link basepair" x1="27.82" y1="-13.20" x2="42.47" y2="-15.68"></line><line class="link backbone" x1="18.89" y1="-0.77" x2="27.82" y2="-13.20"></line><line class="link backbone" x1="27.82" y1="-13.20" x2="18.01" y2="-24.82"></line><line class="link basepair" x1="23.19" y1="-39.11" x2="37.64" y2="-41.90"></line><line class="link backbone" x1="18.01" y1="-24.82" x2="23.19" y2="-39.11"></line><line class="link basepair" x1="19.87" y1="-54.34" x2="34.43" y2="-57.62"></line><line class="link backbone" x1="23.19" y1="-39.11" x2="19.87" y2="-54.34"></line><line class="link backbone" x1="19.87" y1="-54.34" x2="5.84" y2="-60.54"></line><line class="link backbone" x1="5.84" y1="-60.54" x2="-2.02" y2="-73.25"></line><line class="link backbone" x1="-2.02" y1="-73.25" x2="-0.87" y2="-88.27"></line><line class="link backbone" x1="-0.87" y1="-88.27" x2="9.13" y2="-99.40"></line><line class="link backbone" x1="9.13" y1="-99.40" x2="23.61" y2="-102.96"></line><line class="link backbone" x1="23.61" y1="-102.96" x2="37.59" y2="-97.44"></line><line class="link backbone" x1="37.59" y1="-97.44" x2="45.35" y2="-84.50"></line><line class="link backbone" x1="45.35" y1="-84.50" x2="44.13" y2="-69.61"></line><line class="link basepair" x1="34.43" y1="-57.62" x2="19.87" y2="-54.34"></line><line class="link backbone" x1="44.13" y1="-69.61" x2="34.43" y2="-57.62"></line><line class="link basepair" x1="37.64" y1="-41.90" x2="23.19" y2="-39.11"></line><line class="link backbone" x1="34.43" y1="-57.62" x2="37.64" y2="-41.90"></line><line class="link backbone" x1="37.64" y1="-41.90" x2="47.63" y2="-30.23"></line><line class="link basepair" x1="42.47" y1="-15.68" x2="27.82" y2="-13.20"></line><line class="link backbone" x1="47.63" y1="-30.23" x2="42.47" y2="-15.68"></line><line class="link backbone" x1="42.47" y1="-15.68" x2="54.78" y2="-6.41"></line><line class="link backbone" x1="54.78" y1="-6.41" x2="57.11" y2="8.34"></line><line class="link basepair" x1="48.10" y1="20.85" x2="33.48" y2="23.05"></line><line class="link backbone" x1="57.11" y1="8.34" x2="48.10" y2="20.85"></line><line class="link basepair" x1="50.41" y1="36.43" x2="36.05" y2="38.94"></line><line class="link backbone" x1="48.10" y1="20.85" x2="50.41" y2="36.43"></line><line class="link basepair" x1="53.45" y1="51.82" x2="39.27" y2="55.10"></line><line class="link backbone" x1="50.41" y1="36.43" x2="53.45" y2="51.82"></line><line class="link basepair" x1="57.50" y1="66.79" x2="43.58" y2="71.16"></line><line class="link backbone" x1="53.45" y1="51.82" x2="57.50" y2="66.79"></line><line class="link basepair" x1="62.74" y1="81.18" x2="49.06" y2="86.72"></line><line class="link backbone" x1="57.50" y1="66.79" x2="62.74" y2="81.18"></line><line class="link backbone" x1="62.74" y1="81.18" x2="74.95" y2="90.12"></line><line class="link basepair" x1="73.13" y1="105.16" x2="59.82" y2="111.42"></line><line class="link backbone" x1="74.95" y1="90.12" x2="73.13" y2="105.16"></line><line class="link basepair" x1="80.26" y1="118.23" x2="67.97" y2="126.35"></line><line class="link backbone" x1="73.13" y1="105.16" x2="80.26" y2="118.23"></line><line class="link backbone" x1="80.26" y1="118.23" x2="93.92" y2="124.25"></line><line class="link backbone" x1="93.92" y1="124.25" x2="95.70" y2="138.77"></line><line class="link basepair" x1="83.80" y1="147.98" x2="69.96" y2="142.98"></line><line class="link backbone" x1="95.70" y1="138.77" x2="83.80" y2="147.98"></line><line class="link basepair" x1="79.88" y1="162.46" x2="65.71" y2="159.75"></line><line class="link backbone" x1="83.80" y1="147.98" x2="79.88" y2="162.46"></line><line class="link basepair" x1="78.06" y1="177.61" x2="63.40" y2="176.61"></line><line class="link backbone" x1="79.88" y1="162.46" x2="78.06" y2="177.61"></line><line class="link backbone" x1="78.06" y1="177.61" x2="85.19" y2="190.92"></line><line class="link basepair" x1="77.10" y1="203.69" x2="62.36" y2="203.56"></line><line class="link backbone" x1="85.19" y1="190.92" x2="77.10" y2="203.69"></line><line class="link basepair" x1="77.65" y1="218.99" x2="63.15" y2="220.24"></line><line class="link backbone" x1="77.10" y1="203.69" x2="77.65" y2="218.99"></line><line class="link basepair" x1="79.71" y1="234.25" x2="65.29" y2="236.74"></line><line class="link backbone" x1="77.65" y1="218.99" x2="79.71" y2="234.25"></line><line class="link basepair" x1="82.89" y1="249.36" x2="68.59" y2="252.74"></line><line class="link backbone" x1="79.71" y1="234.25" x2="82.89" y2="249.36"></line><line class="link basepair" x1="86.86" y1="264.33" x2="72.64" y2="268.32"></line><line class="link backbone" x1="82.89" y1="249.36" x2="86.86" y2="264.33"></line><line class="link basepair" x1="91.33" y1="279.12" x2="77.02" y2="283.41"></line><line class="link backbone" x1="86.86" y1="264.33" x2="91.33" y2="279.12"></line><line class="link backbone" x1="91.33" y1="279.12" x2="102.39" y2="289.62"></line><line class="link backbone" x1="102.39" y1="289.62" x2="99.09" y2="304.14"></line><line class="link label_link" x1="69.96" y1="142.98" x2="54.44" y2="141.84"></line><line class="link label_link" x1="18.89" y1="-0.77" x2="3.58" y2="2.18"></line><line class="link label_link" x1="37.59" y1="-97.44" x2="46.64" y2="-109.93"></line><line class="link label_link" x1="50.41" y1="36.43" x2="65.51" y2="32.64"></line><line class="link label_link" x1="79.88" y1="162.46" x2="95.32" y2="164.90"></line><line class="link label_link" x1="99.09" y1="304.14" x2="103.86" y2="318.85"></line><line class="link fake transparent" x1="67.97" y1="126.35" x2="69.87" y2="115.51"></line><line class="link fake transparent" x1="67.97" y1="126.35" x2="73.13" y2="105.16"></line><line class="link fake transparent" x1="59.82" y1="111.42" x2="69.87" y2="115.51"></line><line class="link fake transparent" x1="73.13" y1="105.16" x2="69.87" y2="115.51"></line><line class="link fake transparent" x1="80.26" y1="118.23" x2="69.87" y2="115.51"></line><line class="link fake transparent" x1="49.06" y1="86.72" x2="52.91" y2="76.54"></line><line class="link fake transparent" x1="43.58" y1="71.16" x2="52.91" y2="76.54"></line><line class="link fake transparent" x1="57.50" y1="66.79" x2="52.91" y2="76.54"></line><line class="link fake transparent" x1="62.74" y1="81.18" x2="52.91" y2="76.54"></line><line class="link fake transparent" x1="43.58" y1="71.16" x2="48.12" y2="61.31"></line><line class="link fake transparent" x1="39.27" y1="55.10" x2="48.12" y2="61.31"></line><line class="link fake transparent" x1="53.45" y1="51.82" x2="48.12" y2="61.31"></line><line class="link fake transparent" x1="57.50" y1="66.79" x2="48.12" y2="61.31"></line><line class="link fake transparent" x1="39.27" y1="55.10" x2="44.55" y2="45.62"></line><line class="link fake transparent" x1="36.05" y1="38.94" x2="44.55" y2="45.62"></line><line class="link fake transparent" x1="50.41" y1="36.43" x2="44.55" y2="45.62"></line><line class="link fake transparent" x1="53.45" y1="51.82" x2="44.55" y2="45.62"></line><line class="link fake transparent" x1="36.05" y1="38.94" x2="41.88" y2="29.78"></line><line class="link fake transparent" x1="33.48" y1="23.05" x2="41.88" y2="29.78"></line><line class="link fake transparent" x1="48.10" y1="20.85" x2="41.88" y2="29.78"></line><line class="link fake transparent" x1="50.41" y1="36.43" x2="41.88" y2="29.78"></line><line class="link fake transparent" x1="23.19" y1="-39.11" x2="28.88" y2="-48.35"></line><line class="link fake transparent" x1="19.87" y1="-54.34" x2="28.88" y2="-48.35"></line><line class="link fake transparent" x1="34.43" y1="-57.62" x2="28.88" y2="-48.35"></line><line class="link fake transparent" x1="37.64" y1="-41.90" x2="28.88" y2="-48.35"></line><line class="link fake transparent" x1="77.02" y1="283.41" x2="81.89" y2="273.88"></line><line class="link fake transparent" x1="72.64" y1="268.32" x2="81.89" y2="273.88"></line><line class="link fake transparent" x1="86.86" y1="264.33" x2="81.89" y2="273.88"></line><line class="link fake transparent" x1="91.33" y1="279.12" x2="81.89" y2="273.88"></line><line class="link fake transparent" x1="72.64" y1="268.32" x2="77.57" y2="258.76"></line><line class="link fake transparent" x1="68.59" y1="252.74" x2="77.57" y2="258.76"></line><line class="link fake transparent" x1="82.89" y1="249.36" x2="77.57" y2="258.76"></line><line class="link fake transparent" x1="86.86" y1="264.33" x2="77.57" y2="258.76"></line><line class="link fake transparent" x1="68.59" y1="252.74" x2="73.88" y2="243.33"></line><line class="link fake transparent" x1="65.29" y1="236.74" x2="73.88" y2="243.33"></line><line class="link fake transparent" x1="79.71" y1="234.25" x2="73.88" y2="243.33"></line><line class="link fake transparent" x1="82.89" y1="249.36" x2="73.88" y2="243.33"></line><line class="link fake transparent" x1="65.29" y1="236.74" x2="71.09" y2="227.64"></line><line class="link fake transparent" x1="63.15" y1="220.24" x2="71.09" y2="227.64"></line><line class="link fake transparent" x1="77.65" y1="218.99" x2="71.09" y2="227.64"></line><line class="link fake transparent" x1="79.71" y1="234.25" x2="71.09" y2="227.64"></line><line class="link fake transparent" x1="63.15" y1="220.24" x2="69.68" y2="211.65"></line><line class="link fake transparent" x1="62.36" y1="203.56" x2="69.68" y2="211.65"></line><line class="link fake transparent" x1="77.10" y1="203.69" x2="69.68" y2="211.65"></line><line class="link fake transparent" x1="77.65" y1="218.99" x2="69.68" y2="211.65"></line><line class="link fake transparent" x1="63.40" y1="176.61" x2="71.30" y2="169.10"></line><line class="link fake transparent" x1="65.71" y1="159.75" x2="71.30" y2="169.10"></line><line class="link fake transparent" x1="79.88" y1="162.46" x2="71.30" y2="169.10"></line><line class="link fake transparent" x1="78.06" y1="177.61" x2="71.30" y2="169.10"></line><line class="link fake transparent" x1="65.71" y1="159.75" x2="74.31" y2="153.17"></line><line class="link fake transparent" x1="69.96" y1="142.98" x2="74.31" y2="153.17"></line><line class="link fake transparent" x1="83.80" y1="147.98" x2="74.31" y2="153.17"></line><line class="link fake transparent" x1="79.88" y1="162.46" x2="74.31" y2="153.17"></line><line class="link fake transparent" x1="77.02" y1="283.41" x2="87.99" y2="293.81"></line><line class="link fake transparent" x1="77.02" y1="283.41" x2="99.09" y2="304.14"></line><line class="link fake transparent" x1="91.33" y1="279.12" x2="87.99" y2="293.81"></line><line class="link fake transparent" x1="91.33" y1="279.12" x2="85.03" y2="308.96"></line><line class="link fake transparent" x1="102.39" y1="289.62" x2="87.99" y2="293.81"></line><line class="link fake transparent" x1="102.39" y1="289.62" x2="73.68" y2="301.01"></line><line class="link fake transparent" x1="99.09" y1="304.14" x2="87.99" y2="293.81"></line><line class="link fake transparent" x1="99.09" y1="304.14" x2="77.02" y2="283.41"></line><line class="link fake transparent" x1="19.87" y1="-54.34" x2="21.75" y2="-78.69"></line><line class="link fake transparent" x1="19.87" y1="-54.34" x2="23.61" y2="-102.96"></line><line class="link fake transparent" x1="5.84" y1="-60.54" x2="21.75" y2="-78.69"></line><line class="link fake transparent" x1="5.84" y1="-60.54" x2="37.59" y2="-97.44"></line><line class="link fake transparent" x1="-2.02" y1="-73.25" x2="21.75" y2="-78.69"></line><line class="link fake transparent" x1="-2.02" y1="-73.25" x2="45.35" y2="-84.50"></line><line class="link fake transparent" x1="-0.87" y1="-88.27" x2="21.75" y2="-78.69"></line><line class="link fake transparent" x1="-0.87" y1="-88.27" x2="44.13" y2="-69.61"></line><line class="link fake transparent" x1="9.13" y1="-99.40" x2="21.75" y2="-78.69"></line><line class="link fake transparent" x1="9.13" y1="-99.40" x2="34.43" y2="-57.62"></line><line class="link fake transparent" x1="23.61" y1="-102.96" x2="21.75" y2="-78.69"></line><line class="link fake transparent" x1="23.61" y1="-102.96" x2="19.87" y2="-54.34"></line><line class="link fake transparent" x1="37.59" y1="-97.44" x2="21.75" y2="-78.69"></line><line class="link fake transparent" x1="37.59" y1="-97.44" x2="5.84" y2="-60.54"></line><line class="link fake transparent" x1="45.35" y1="-84.50" x2="21.75" y2="-78.69"></line><line class="link fake transparent" x1="45.35" y1="-84.50" x2="-2.02" y2="-73.25"></line><line class="link fake transparent" x1="44.13" y1="-69.61" x2="21.75" y2="-78.69"></line><line class="link fake transparent" x1="44.13" y1="-69.61" x2="-0.87" y2="-88.27"></line><line class="link fake transparent" x1="34.43" y1="-57.62" x2="21.75" y2="-78.69"></line><line class="link fake transparent" x1="34.43" y1="-57.62" x2="9.13" y2="-99.40"></line><line class="link fake transparent" x1="59.82" y1="111.42" x2="61.02" y2="96.16"></line><line class="link fake transparent" x1="59.82" y1="111.42" x2="62.74" y2="81.18"></line><line class="link fake transparent" x1="47.30" y1="102.12" x2="61.02" y2="96.16"></line><line class="link fake transparent" x1="47.30" y1="102.12" x2="74.95" y2="90.12"></line><line class="link fake transparent" x1="49.06" y1="86.72" x2="61.02" y2="96.16"></line><line class="link fake transparent" x1="49.06" y1="86.72" x2="73.13" y2="105.16"></line><line class="link fake transparent" x1="62.74" y1="81.18" x2="61.02" y2="96.16"></line><line class="link fake transparent" x1="62.74" y1="81.18" x2="59.82" y2="111.42"></line><line class="link fake transparent" x1="74.95" y1="90.12" x2="61.02" y2="96.16"></line><line class="link fake transparent" x1="74.95" y1="90.12" x2="47.30" y2="102.12"></line><line class="link fake transparent" x1="73.13" y1="105.16" x2="61.02" y2="96.16"></line><line class="link fake transparent" x1="73.13" y1="105.16" x2="49.06" y2="86.72"></line><line class="link fake transparent" x1="33.48" y1="23.05" x2="38.02" y2="3.77"></line><line class="link fake transparent" x1="33.48" y1="23.05" x2="42.47" y2="-15.68"></line><line class="link fake transparent" x1="21.18" y1="14.03" x2="38.02" y2="3.77"></line><line class="link fake transparent" x1="21.18" y1="14.03" x2="54.78" y2="-6.41"></line><line class="link fake transparent" x1="18.89" y1="-0.77" x2="38.02" y2="3.77"></line><line class="link fake transparent" x1="18.89" y1="-0.77" x2="57.11" y2="8.34"></line><line class="link fake transparent" x1="27.82" y1="-13.20" x2="38.02" y2="3.77"></line><line class="link fake transparent" x1="27.82" y1="-13.20" x2="48.10" y2="20.85"></line><line class="link fake transparent" x1="42.47" y1="-15.68" x2="38.02" y2="3.77"></line><line class="link fake transparent" x1="42.47" y1="-15.68" x2="33.48" y2="23.05"></line><line class="link fake transparent" x1="54.78" y1="-6.41" x2="38.02" y2="3.77"></line><line class="link fake transparent" x1="54.78" y1="-6.41" x2="21.18" y2="14.03"></line><line class="link fake transparent" x1="57.11" y1="8.34" x2="38.02" y2="3.77"></line><line class="link fake transparent" x1="57.11" y1="8.34" x2="18.89" y2="-0.77"></line><line class="link fake transparent" x1="48.10" y1="20.85" x2="38.02" y2="3.77"></line><line class="link fake transparent" x1="48.10" y1="20.85" x2="27.82" y2="-13.20"></line><line class="link fake transparent" x1="27.82" y1="-13.20" x2="32.88" y2="-27.50"></line><line class="link fake transparent" x1="27.82" y1="-13.20" x2="37.64" y2="-41.90"></line><line class="link fake transparent" x1="18.01" y1="-24.82" x2="32.88" y2="-27.50"></line><line class="link fake transparent" x1="18.01" y1="-24.82" x2="47.63" y2="-30.23"></line><line class="link fake transparent" x1="23.19" y1="-39.11" x2="32.88" y2="-27.50"></line><line class="link fake transparent" x1="23.19" y1="-39.11" x2="42.47" y2="-15.68"></line><line class="link fake transparent" x1="37.64" y1="-41.90" x2="32.88" y2="-27.50"></line><line class="link fake transparent" x1="37.64" y1="-41.90" x2="27.82" y2="-13.20"></line><line class="link fake transparent" x1="47.63" y1="-30.23" x2="32.88" y2="-27.50"></line><line class="link fake transparent" x1="47.63" y1="-30.23" x2="18.01" y2="-24.82"></line><line class="link fake transparent" x1="42.47" y1="-15.68" x2="32.88" y2="-27.50"></line><line class="link fake transparent" x1="42.47" y1="-15.68" x2="23.19" y2="-39.11"></line><line class="link fake transparent" x1="62.36" y1="203.56" x2="69.98" y2="190.35"></line><line class="link fake transparent" x1="62.36" y1="203.56" x2="78.06" y2="177.61"></line><line class="link fake transparent" x1="55.06" y1="189.79" x2="69.98" y2="190.35"></line><line class="link fake transparent" x1="55.06" y1="189.79" x2="85.19" y2="190.92"></line><line class="link fake transparent" x1="63.40" y1="176.61" x2="69.98" y2="190.35"></line><line class="link fake transparent" x1="63.40" y1="176.61" x2="77.10" y2="203.69"></line><line class="link fake transparent" x1="78.06" y1="177.61" x2="69.98" y2="190.35"></line><line class="link fake transparent" x1="78.06" y1="177.61" x2="62.36" y2="203.56"></line><line class="link fake transparent" x1="85.19" y1="190.92" x2="69.98" y2="190.35"></line><line class="link fake transparent" x1="85.19" y1="190.92" x2="55.06" y2="189.79"></line><line class="link fake transparent" x1="77.10" y1="203.69" x2="69.98" y2="190.35"></line><line class="link fake transparent" x1="77.10" y1="203.69" x2="63.40" y2="176.61"></line><line class="link fake transparent" x1="69.96" y1="142.98" x2="81.49" y2="133.15"></line><line class="link fake transparent" x1="69.96" y1="142.98" x2="93.92" y2="124.25"></line><line class="link fake transparent" x1="67.97" y1="126.35" x2="81.49" y2="133.15"></line><line class="link fake transparent" x1="67.97" y1="126.35" x2="95.70" y2="138.77"></line><line class="link fake transparent" x1="80.26" y1="118.23" x2="81.49" y2="133.15"></line><line class="link fake transparent" x1="80.26" y1="118.23" x2="83.80" y2="147.98"></line><line class="link fake transparent" x1="93.92" y1="124.25" x2="81.49" y2="133.15"></line><line class="link fake transparent" x1="93.92" y1="124.25" x2="69.96" y2="142.98"></line><line class="link fake transparent" x1="95.70" y1="138.77" x2="81.49" y2="133.15"></line><line class="link fake transparent" x1="95.70" y1="138.77" x2="67.97" y2="126.35"></line><line class="link fake transparent" x1="83.80" y1="147.98" x2="81.49" y2="133.15"></line><line class="link fake transparent" x1="83.80" y1="147.98" x2="80.26" y2="118.23"></line></g><g><g class="noselect gnode" struct_name="m" transform="translate(77.02,283.41)" r="6.5"><circle class="node" r="6" node_type="nucleotide" style="fill: lightgreen;"></circle><text text-anchor="middle" font-size="8" font-weight="bold" y="2.5" class="node-label">A</text></g><g class="noselect gnode" struct_name="m" transform="translate(72.64,268.32)" r="6.5"><circle class="node" r="6" node_type="nucleotide" style="fill: lightgreen;"></circle><text text-anchor="middle" font-size="8" font-weight="bold" y="2.5" class="node-label">G</text></g><g class="noselect gnode" struct_name="m" transform="translate(68.59,252.74)" r="6.5"><circle class="node" r="6" node_type="nucleotide" style="fill: lightgreen;"></circle><text text-anchor="middle" font-size="8" font-weight="bold" y="2.5" class="node-label">C</text></g><g class="noselect gnode" struct_name="m" transform="translate(65.29,236.74)" r="6.5"><circle class="node" r="6" node_type="nucleotide" style="fill: lightgreen;"></circle><text text-anchor="middle" font-size="8" font-weight="bold" y="2.5" class="node-label">C</text></g><g class="noselect gnode" struct_name="m" transform="translate(63.15,220.24)" r="6.5"><circle class="node" r="6" node_type="nucleotide" style="fill: lightgreen;"></circle><text text-anchor="middle" font-size="8" font-weight="bold" y="2.5" class="node-label">U</text></g><g class="noselect gnode" struct_name="m" transform="translate(62.36,203.56)" r="6.5"><circle class="node" r="6" node_type="nucleotide" style="fill: lightgreen;"></circle><text text-anchor="middle" font-size="8" font-weight="bold" y="2.5" class="node-label">G</text></g><g class="noselect gnode" struct_name="m" transform="translate(55.06,189.79)" r="6.5"><circle class="node" r="6" node_type="nucleotide" style="fill: rgb(219, 219, 141);"></circle><text text-anchor="middle" font-size="8" font-weight="bold" y="2.5" class="node-label">U</text></g><g class="noselect gnode" struct_name="m" transform="translate(63.40,176.61)" r="6.5"><circle class="node" r="6" node_type="nucleotide" style="fill: lightgreen;"></circle><text text-anchor="middle" font-size="8" font-weight="bold" y="2.5" class="node-label">G</text></g><g class="noselect gnode" struct_name="m" transform="translate(65.71,159.75)" r="6.5"><circle class="node" r="6" node_type="nucleotide" style="fill: lightgreen;"></circle><text text-anchor="middle" font-size="8" font-weight="bold" y="2.5" class="node-label">G</text></g><g class="noselect gnode" struct_name="m" transform="translate(69.96,142.98)" r="6.5"><circle class="node" r="6" node_type="nucleotide" style="fill: lightgreen;"></circle><text text-anchor="middle" font-size="8" font-weight="bold" y="2.5" class="node-label">U</text></g><g class="noselect gnode" struct_name="m" transform="translate(67.97,126.35)" r="6.5"><circle class="node" r="6" node_type="nucleotide" style="fill: lightgreen;"></circle><text text-anchor="middle" font-size="8" font-weight="bold" y="2.5" class="node-label">U</text></g><g class="noselect gnode" struct_name="m" transform="translate(59.82,111.42)" r="6.5"><circle class="node" r="6" node_type="nucleotide" style="fill: lightgreen;"></circle><text text-anchor="middle" font-size="8" font-weight="bold" y="2.5" class="node-label">C</text></g><g class="noselect gnode" struct_name="m" transform="translate(47.30,102.12)" r="6.5"><circle class="node" r="6" node_type="nucleotide" style="fill: rgb(219, 219, 141);"></circle><text text-anchor="middle" font-size="8" font-weight="bold" y="2.5" class="node-label">G</text></g><g class="noselect gnode" struct_name="m" transform="translate(49.06,86.72)" r="6.5"><circle class="node" r="6" node_type="nucleotide" style="fill: lightgreen;"></circle><text text-anchor="middle" font-size="8" font-weight="bold" y="2.5" class="node-label">A</text></g><g class="noselect gnode" struct_name="m" transform="translate(43.58,71.16)" r="6.5"><circle class="node" r="6" node_type="nucleotide" style="fill: lightgreen;"></circle><text text-anchor="middle" font-size="8" font-weight="bold" y="2.5" class="node-label">G</text></g><g class="noselect gnode" struct_name="m" transform="translate(39.27,55.10)" r="6.5"><circle class="node" r="6" node_type="nucleotide" style="fill: lightgreen;"></circle><text text-anchor="middle" font-size="8" font-weight="bold" y="2.5" class="node-label">U</text></g><g class="noselect gnode" struct_name="m" transform="translate(36.05,38.94)" r="6.5"><circle class="node" r="6" node_type="nucleotide" style="fill: lightgreen;"></circle><text text-anchor="middle" font-size="8" font-weight="bold" y="2.5" class="node-label">U</text></g><g class="noselect gnode" struct_name="m" transform="translate(33.48,23.05)" r="6.5"><circle class="node" r="6" node_type="nucleotide" style="fill: lightgreen;"></circle><text text-anchor="middle" font-size="8" font-weight="bold" y="2.5" class="node-label">C</text></g><g class="noselect gnode" struct_name="m" transform="translate(21.18,14.03)" r="6.5"><circle class="node" r="6" node_type="nucleotide" style="fill: rgb(219, 219, 141);"></circle><text text-anchor="middle" font-size="8" font-weight="bold" y="2.5" class="node-label">U</text></g><g class="noselect gnode" struct_name="m" transform="translate(18.89,-0.77)" r="6.5"><circle class="node" r="6" node_type="nucleotide" style="fill: rgb(219, 219, 141);"></circle><text text-anchor="middle" font-size="8" font-weight="bold" y="2.5" class="node-label">A</text></g><g class="noselect gnode" struct_name="m" transform="translate(27.82,-13.20)" r="6.5"><circle class="node" r="6" node_type="nucleotide" style="fill: lightgreen;"></circle><text text-anchor="middle" font-size="8" font-weight="bold" y="2.5" class="node-label">C</text></g><g class="noselect gnode" struct_name="m" transform="translate(18.01,-24.82)" r="6.5"><circle class="node" r="6" node_type="nucleotide" style="fill: rgb(219, 219, 141);"></circle><text text-anchor="middle" font-size="8" font-weight="bold" y="2.5" class="node-label">A</text></g><g class="noselect gnode" struct_name="m" transform="translate(23.19,-39.11)" r="6.5"><circle class="node" r="6" node_type="nucleotide" style="fill: lightgreen;"></circle><text text-anchor="middle" font-size="8" font-weight="bold" y="2.5" class="node-label">A</text></g><g class="noselect gnode" struct_name="m" transform="translate(19.87,-54.34)" r="6.5"><circle class="node" r="6" node_type="nucleotide" style="fill: lightgreen;"></circle><text text-anchor="middle" font-size="8" font-weight="bold" y="2.5" class="node-label">C</text></g><g class="noselect gnode" struct_name="m" transform="translate(5.84,-60.54)" r="6.5"><circle class="node" r="6" node_type="nucleotide" style="fill: lightblue;"></circle><text text-anchor="middle" font-size="8" font-weight="bold" y="2.5" class="node-label">G</text></g><g class="noselect gnode" struct_name="m" transform="translate(-2.02,-73.25)" r="6.5"><circle class="node" r="6" node_type="nucleotide" style="fill: lightblue;"></circle><text text-anchor="middle" font-size="8" font-weight="bold" y="2.5" class="node-label">A</text></g><g class="noselect gnode" struct_name="m" transform="translate(-0.87,-88.27)" r="6.5"><circle class="node" r="6" node_type="nucleotide" style="fill: lightblue;"></circle><text text-anchor="middle" font-size="8" font-weight="bold" y="2.5" class="node-label">A</text></g><g class="noselect gnode" struct_name="m" transform="translate(9.13,-99.40)" r="6.5"><circle class="node" r="6" node_type="nucleotide" style="fill: lightblue;"></circle><text text-anchor="middle" font-size="8" font-weight="bold" y="2.5" class="node-label">U</text></g><g class="noselect gnode" struct_name="m" transform="translate(23.61,-102.96)" r="6.5"><circle class="node" r="6" node_type="nucleotide" style="fill: lightblue;"></circle><text text-anchor="middle" font-size="8" font-weight="bold" y="2.5" class="node-label">G</text></g><g class="noselect gnode" struct_name="m" transform="translate(37.59,-97.44)" r="6.5"><circle class="node" r="6" node_type="nucleotide" style="fill: lightblue;"></circle><text text-anchor="middle" font-size="8" font-weight="bold" y="2.5" class="node-label">G</text></g><g class="noselect gnode" struct_name="m" transform="translate(45.35,-84.50)" r="6.5"><circle class="node" r="6" node_type="nucleotide" style="fill: lightblue;"></circle><text text-anchor="middle" font-size="8" font-weight="bold" y="2.5" class="node-label">C</text></g><g class="noselect gnode" struct_name="m" transform="translate(44.13,-69.61)" r="6.5"><circle class="node" r="6" node_type="nucleotide" style="fill: lightblue;"></circle><text text-anchor="middle" font-size="8" font-weight="bold" y="2.5" class="node-label">A</text></g><g class="noselect gnode" struct_name="m" transform="translate(34.43,-57.62)" r="6.5"><circle class="node" r="6" node_type="nucleotide" style="fill: lightgreen;"></circle><text text-anchor="middle" font-size="8" font-weight="bold" y="2.5" class="node-label">G</text></g><g class="noselect gnode" struct_name="m" transform="translate(37.64,-41.90)" r="6.5"><circle class="node" r="6" node_type="nucleotide" style="fill: lightgreen;"></circle><text text-anchor="middle" font-size="8" font-weight="bold" y="2.5" class="node-label">U</text></g><g class="noselect gnode" struct_name="m" transform="translate(47.63,-30.23)" r="6.5"><circle class="node" r="6" node_type="nucleotide" style="fill: rgb(219, 219, 141);"></circle><text text-anchor="middle" font-size="8" font-weight="bold" y="2.5" class="node-label">G</text></g><g class="noselect gnode" struct_name="m" transform="translate(42.47,-15.68)" r="6.5"><circle class="node" r="6" node_type="nucleotide" style="fill: lightgreen;"></circle><text text-anchor="middle" font-size="8" font-weight="bold" y="2.5" class="node-label">G</text></g><g class="noselect gnode" struct_name="m" transform="translate(54.78,-6.41)" r="6.5"><circle class="node" r="6" node_type="nucleotide" style="fill: rgb(219, 219, 141);"></circle><text text-anchor="middle" font-size="8" font-weight="bold" y="2.5" class="node-label">G</text></g><g class="noselect gnode" struct_name="m" transform="translate(57.11,8.34)" r="6.5"><circle class="node" r="6" node_type="nucleotide" style="fill: rgb(219, 219, 141);"></circle><text text-anchor="middle" font-size="8" font-weight="bold" y="2.5" class="node-label">C</text></g><g class="noselect gnode" struct_name="m" transform="translate(48.10,20.85)" r="6.5"><circle class="node" r="6" node_type="nucleotide" style="fill: lightgreen;"></circle><text text-anchor="middle" font-size="8" font-weight="bold" y="2.5" class="node-label">G</text></g><g class="noselect gnode" struct_name="m" transform="translate(50.41,36.43)" r="6.5"><circle class="node" r="6" node_type="nucleotide" style="fill: lightgreen;"></circle><text text-anchor="middle" font-size="8" font-weight="bold" y="2.5" class="node-label">A</text></g><g class="noselect gnode" struct_name="m" transform="translate(53.45,51.82)" r="6.5"><circle class="node" r="6" node_type="nucleotide" style="fill: lightgreen;"></circle><text text-anchor="middle" font-size="8" font-weight="bold" y="2.5" class="node-label">A</text></g><g class="noselect gnode" struct_name="m" transform="translate(57.50,66.79)" r="6.5"><circle class="node" r="6" node_type="nucleotide" style="fill: lightgreen;"></circle><text text-anchor="middle" font-size="8" font-weight="bold" y="2.5" class="node-label">C</text></g><g class="noselect gnode" struct_name="m" transform="translate(62.74,81.18)" r="6.5"><circle class="node" r="6" node_type="nucleotide" style="fill: lightgreen;"></circle><text text-anchor="middle" font-size="8" font-weight="bold" y="2.5" class="node-label">U</text></g><g class="noselect gnode" struct_name="m" transform="translate(74.95,90.12)" r="6.5"><circle class="node" r="6" node_type="nucleotide" style="fill: rgb(219, 219, 141);"></circle><text text-anchor="middle" font-size="8" font-weight="bold" y="2.5" class="node-label">G</text></g><g class="noselect gnode" struct_name="m" transform="translate(73.13,105.16)" r="6.5"><circle class="node" r="6" node_type="nucleotide" style="fill: lightgreen;"></circle><text text-anchor="middle" font-size="8" font-weight="bold" y="2.5" class="node-label">G</text></g><g class="noselect gnode" struct_name="m" transform="translate(80.26,118.23)" r="6.5"><circle class="node" r="6" node_type="nucleotide" style="fill: lightgreen;"></circle><text text-anchor="middle" font-size="8" font-weight="bold" y="2.5" class="node-label">A</text></g><g class="noselect gnode" struct_name="m" transform="translate(93.92,124.25)" r="6.5"><circle class="node" r="6" node_type="nucleotide" style="fill: rgb(219, 219, 141);"></circle><text text-anchor="middle" font-size="8" font-weight="bold" y="2.5" class="node-label">U</text></g><g class="noselect gnode" struct_name="m" transform="translate(95.70,138.77)" r="6.5"><circle class="node" r="6" node_type="nucleotide" style="fill: rgb(219, 219, 141);"></circle><text text-anchor="middle" font-size="8" font-weight="bold" y="2.5" class="node-label">U</text></g><g class="noselect gnode" struct_name="m" transform="translate(83.80,147.98)" r="6.5"><circle class="node" r="6" node_type="nucleotide" style="fill: lightgreen;"></circle><text text-anchor="middle" font-size="8" font-weight="bold" y="2.5" class="node-label">A</text></g><g class="noselect gnode" struct_name="m" transform="translate(79.88,162.46)" r="6.5"><circle class="node" r="6" node_type="nucleotide" style="fill: lightgreen;"></circle><text text-anchor="middle" font-size="8" font-weight="bold" y="2.5" class="node-label">C</text></g><g class="noselect gnode" struct_name="m" transform="translate(78.06,177.61)" r="6.5"><circle class="node" r="6" node_type="nucleotide" style="fill: lightgreen;"></circle><text text-anchor="middle" font-size="8" font-weight="bold" y="2.5" class="node-label">C</text></g><g class="noselect gnode" struct_name="m" transform="translate(85.19,190.92)" r="6.5"><circle class="node" r="6" node_type="nucleotide" style="fill: rgb(219, 219, 141);"></circle><text text-anchor="middle" font-size="8" font-weight="bold" y="2.5" class="node-label">C</text></g><g class="noselect gnode" struct_name="m" transform="translate(77.10,203.69)" r="6.5"><circle class="node" r="6" node_type="nucleotide" style="fill: lightgreen;"></circle><text text-anchor="middle" font-size="8" font-weight="bold" y="2.5" class="node-label">C</text></g><g class="noselect gnode" struct_name="m" transform="translate(77.65,218.99)" r="6.5"><circle class="node" r="6" node_type="nucleotide" style="fill: lightgreen;"></circle><text text-anchor="middle" font-size="8" font-weight="bold" y="2.5" class="node-label">A</text></g><g class="noselect gnode" struct_name="m" transform="translate(79.71,234.25)" r="6.5"><circle class="node" r="6" node_type="nucleotide" style="fill: lightgreen;"></circle><text text-anchor="middle" font-size="8" font-weight="bold" y="2.5" class="node-label">G</text></g><g class="noselect gnode" struct_name="m" transform="translate(82.89,249.36)" r="6.5"><circle class="node" r="6" node_type="nucleotide" style="fill: lightgreen;"></circle><text text-anchor="middle" font-size="8" font-weight="bold" y="2.5" class="node-label">G</text></g><g class="noselect gnode" struct_name="m" transform="translate(86.86,264.33)" r="6.5"><circle class="node" r="6" node_type="nucleotide" style="fill: lightgreen;"></circle><text text-anchor="middle" font-size="8" font-weight="bold" y="2.5" class="node-label">C</text></g><g class="noselect gnode" struct_name="m" transform="translate(91.33,279.12)" r="6.5"><circle class="node" r="6" node_type="nucleotide" style="fill: lightgreen;"></circle><text text-anchor="middle" font-size="8" font-weight="bold" y="2.5" class="node-label">U</text></g><g class="noselect gnode" struct_name="m" transform="translate(102.39,289.62)" r="6.5"><circle class="node" r="6" node_type="nucleotide" style="fill: lightsalmon;"></circle><text text-anchor="middle" font-size="8" font-weight="bold" y="2.5" class="node-label">U</text></g><g class="noselect gnode" struct_name="m" transform="translate(99.09,304.14)" r="6.5"><circle class="node" r="6" node_type="nucleotide" style="fill: lightsalmon;"></circle><text text-anchor="middle" font-size="8" font-weight="bold" y="2.5" class="node-label">U</text></g><g class="noselect gnode" struct_name="m" transform="translate(54.44,141.84)" r="6.5"><circle class="node label" r="6" node_type="label"></circle><text text-anchor="middle" font-size="8" font-weight="bold" y="2.5" class="node-label">10</text></g><g class="noselect gnode" struct_name="m" transform="translate(3.58,2.18)" r="6.5"><circle class="node label" r="6" node_type="label"></circle><text text-anchor="middle" font-size="8" font-weight="bold" y="2.5" class="node-label">20</text></g><g class="noselect gnode" struct_name="m" transform="translate(46.64,-109.93)" r="6.5"><circle class="node label" r="6" node_type="label"></circle><text text-anchor="middle" font-size="8" font-weight="bold" y="2.5" class="node-label">30</text></g><g class="noselect gnode" struct_name="m" transform="translate(65.51,32.64)" r="6.5"><circle class="node label" r="6" node_type="label"></circle><text text-anchor="middle" font-size="8" font-weight="bold" y="2.5" class="node-label">40</text></g><g class="noselect gnode" struct_name="m" transform="translate(95.32,164.90)" r="6.5"><circle class="node label" r="6" node_type="label"></circle><text text-anchor="middle" font-size="8" font-weight="bold" y="2.5" class="node-label">50</text></g><g class="noselect gnode" struct_name="m" transform="translate(103.86,318.85)" r="6.5"><circle class="node label" r="6" node_type="label"></circle><text text-anchor="middle" font-size="8" font-weight="bold" y="2.5" class="node-label">60</text></g><g class="noselect gnode" transform="translate(69.87,115.51)" r="6.5"><circle class="node" r="0" node_type="middle"></circle><text text-anchor="middle" font-size="8" font-weight="bold" y="2.5" class="node-label"></text></g><g class="noselect gnode" transform="translate(52.91,76.54)" r="6.5"><circle class="node" r="0" node_type="middle"></circle><text text-anchor="middle" font-size="8" font-weight="bold" y="2.5" class="node-label"></text></g><g class="noselect gnode" transform="translate(48.12,61.31)" r="6.5"><circle class="node" r="0" node_type="middle"></circle><text text-anchor="middle" font-size="8" font-weight="bold" y="2.5" class="node-label"></text></g><g class="noselect gnode" transform="translate(44.55,45.62)" r="6.5"><circle class="node" r="0" node_type="middle"></circle><text text-anchor="middle" font-size="8" font-weight="bold" y="2.5" class="node-label"></text></g><g class="noselect gnode" transform="translate(41.88,29.78)" r="6.5"><circle class="node" r="0" node_type="middle"></circle><text text-anchor="middle" font-size="8" font-weight="bold" y="2.5" class="node-label"></text></g><g class="noselect gnode" transform="translate(28.88,-48.35)" r="6.5"><circle class="node" r="0" node_type="middle"></circle><text text-anchor="middle" font-size="8" font-weight="bold" y="2.5" class="node-label"></text></g><g class="noselect gnode" transform="translate(81.89,273.88)" r="6.5"><circle class="node" r="0" node_type="middle"></circle><text text-anchor="middle" font-size="8" font-weight="bold" y="2.5" class="node-label"></text></g><g class="noselect gnode" transform="translate(77.57,258.76)" r="6.5"><circle class="node" r="0" node_type="middle"></circle><text text-anchor="middle" font-size="8" font-weight="bold" y="2.5" class="node-label"></text></g><g class="noselect gnode" transform="translate(73.88,243.33)" r="6.5"><circle class="node" r="0" node_type="middle"></circle><text text-anchor="middle" font-size="8" font-weight="bold" y="2.5" class="node-label"></text></g><g class="noselect gnode" transform="translate(71.09,227.64)" r="6.5"><circle class="node" r="0" node_type="middle"></circle><text text-anchor="middle" font-size="8" font-weight="bold" y="2.5" class="node-label"></text></g><g class="noselect gnode" transform="translate(69.68,211.65)" r="6.5"><circle class="node" r="0" node_type="middle"></circle><text text-anchor="middle" font-size="8" font-weight="bold" y="2.5" class="node-label"></text></g><g class="noselect gnode" transform="translate(71.30,169.10)" r="6.5"><circle class="node" r="0" node_type="middle"></circle><text text-anchor="middle" font-size="8" font-weight="bold" y="2.5" class="node-label"></text></g><g class="noselect gnode" transform="translate(74.31,153.17)" r="6.5"><circle class="node" r="0" node_type="middle"></circle><text text-anchor="middle" font-size="8" font-weight="bold" y="2.5" class="node-label"></text></g><g class="noselect gnode" transform="translate(85.03,308.96)" r="6.5"><circle class="node" r="0" node_type="middle"></circle><text text-anchor="middle" font-size="8" font-weight="bold" y="2.5" class="node-label"></text></g><g class="noselect gnode" transform="translate(73.68,301.01)" r="6.5"><circle class="node" r="0" node_type="middle"></circle><text text-anchor="middle" font-size="8" font-weight="bold" y="2.5" class="node-label"></text></g><g class="noselect gnode" transform="translate(87.99,293.81)" r="6.5"><circle class="node" r="0" node_type="middle"></circle><text text-anchor="middle" font-size="8" font-weight="bold" y="2.5" class="node-label"></text></g><g class="noselect gnode" transform="translate(21.75,-78.69)" r="6.5"><circle class="node" r="0" node_type="middle"></circle><text text-anchor="middle" font-size="8" font-weight="bold" y="2.5" class="node-label"></text></g><g class="noselect gnode" transform="translate(61.02,96.16)" r="6.5"><circle class="node" r="0" node_type="middle"></circle><text text-anchor="middle" font-size="8" font-weight="bold" y="2.5" class="node-label"></text></g><g class="noselect gnode" transform="translate(38.02,3.77)" r="6.5"><circle class="node" r="0" node_type="middle"></circle><text text-anchor="middle" font-size="8" font-weight="bold" y="2.5" class="node-label"></text></g><g class="noselect gnode" transform="translate(32.88,-27.50)" r="6.5"><circle class="node" r="0" node_type="middle"></circle><text text-anchor="middle" font-size="8" font-weight="bold" y="2.5" class="node-label"></text></g><g class="noselect gnode" transform="translate(69.98,190.35)" r="6.5"><circle class="node" r="0" node_type="middle"></circle><text text-anchor="middle" font-size="8" font-weight="bold" y="2.5" class="node-label"></text></g><g class="noselect gnode" transform="translate(81.49,133.15)" r="6.5"><circle class="node" r="0" node_type="middle"></circle><text text-anchor="middle" font-size="8" font-weight="bold" y="2.5" class="node-label"></text></g></g><line class="drag_line" x1="0" y1="0" x2="0" y2="0"></line></g></g></svg>