<svg xmlns="http://www.w3.org/2000/svg" viewBox="0 0 760 640" width="760" height="640"><style>svg {
  display: block;
  min-width: 100%;
  width: 100%;
  min-height: 100%;
}

circle.node {
  stroke: #ccc;
  stroke-width: 1px;
  opacity: 1;
  fill: white;
}

circle.node.label {
    stroke: transparent;
    stroke-width: 0;
    fill: white;
}

circle.outline_node {
    stroke-width: 1px;
    fill: red;
}

circle.protein {
    fill: gray;
    fill-opacity: 0.5;
    stroke-width: 4;
}

circle.hidden_outline {
    stroke-width: 0px;
}


line.link {
  stroke: #999;
  stroke-opacity: 0.8;
  stroke-width: 2;
}

line.basepair {
  stroke: red;
}

line.intermolecule {
  stroke: blue;
}

line.chain_chain {
  stroke-dasharray: 3,3;
}

line.fake {
  stroke: green;
}

.transparent {
    fill: transparent;
    stroke-width: 0;
    stroke-opacity: 0;
    opacity: 0;
    visibility: hidden;
}

.drag_line {
  stroke: #999;
  stroke-width: 2;
  pointer-events: none;
}

.drag_line_hidden {
  stroke: #999;
  stroke-width: 0;
  pointer-events: none;
}

.d3-tip {
    line-height: 1;
    font-weight: bold;
    padding: 6px;
    background: rgba(0, 0, 0, 0.6);
    color: #fff;
    border-radius: 4px;
    pointer-events: none;
          }

text.node-label {
    font-weight: bold;
    font-family: Tahoma, Geneva, sans-serif;
    color: rgb(100,100,100);
    pointer-events: none;
}

text {
    pointer-events: none;
}

g.gnode {

}

circle.outline_node.selected {
    visibility: visible;
}

circle.outline_node {
    visibility: hidden;
}

.brush .extent {
  fill-opacity: .1;
  stroke: #fff;
  shape-rendering: crispEdges;
}

.noselect {
    -webkit-touch-callout: none;
    -webkit-user-select: none;
    -khtml-user-select: none;
    -moz-user-select: none;
    -ms-user-select: none;
    user-select: none;
}

svg {
  display: block;
  min-width: 100%;
  width: 100%;
  min-height: 100%;
}

circle.node {
  stroke: #ccc;
  stroke-width: 1px;
  opacity: 1;
  fill: white;
}

circle.node.label {
    stroke: transparent;
    stroke-width: 0;
    fill: white;
}

circle.outline_node {
    stroke-width: 1px;
    fill: red;
}

circle.protein {
    fill: gray;
    fill-opacity: 0.5;
    stroke-width: 4;
}

circle.hidden_outline {
    stroke-width: 0px;
}


line.link {
  stroke: #999;
  stroke-opacity: 0.8;
  stroke-width: 2;
}

line.basepair {
  stroke: red;
}

line.intermolecule {
  stroke: blue;
}

line.chain_chain {
  stroke-dasharray: 3,3;
}

line.fake {
  stroke: green;
}

.transparent {
    fill: transparent;
    stroke-width: 0;
    stroke-opacity: 0;
    opacity: 0;
    visibility: hidden;
}

.drag_line {
  stroke: #999;
  stroke-width: 2;
  pointer-events: none;
}

.drag_line_hidden {
  stroke: #999;
  stroke-width: 0;
  pointer-events: none;
}

.d3-tip {
    line-height: 1;
    font-weight: bold;
    padding: 6px;
    background: rgba(0, 0, 0, 0.6);
    color: #fff;
    border-radius: 4px;
    pointer-events: none;
          }

text.node-label {
    font-weight: bold;
    font-family: Tahoma, Geneva, sans-serif;
    color: rgb(100,100,100);
    pointer-events: none;
}

text {
    pointer-events: none;
}

g.gnode {

}

circle.outline_node.selected {
    visibility: visible;
}

circle.outline_node {
    visibility: hidden;
}

.brush .extent {
  fill-opacity: .1;
  stroke: #fff;
  shape-rendering: crispEdges;
}

.noselect {
    -webkit-touch-callout: none;
    -webkit-user-select: none;
    -khtml-user-select: none;
    -moz-user-select: none;
    -ms-user-select: none;
    user-select: none;
}
/*# sourceURL=/Users/yumanakamura/ipy_sandbox/sandbox/claude_sandbox/mrna-transformer-worktrees/feat-issue57-switch-derna-knotty/scripts/eval/prerender/forna_vendor/fornac.css*/</style><style></style><g><g class="brush" style="pointer-events: all; -webkit-tap-highlight-color: rgba(0, 0, 0, 0);"><rect class="background" x="0" width="760" y="0" height="640" style="visibility: hidden; cursor: auto;"></rect><rect class="extent" x="0" width="0" y="0" height="0" style="cursor: move;"></rect><g class="resize n" transform="translate(0,0)" style="cursor: ns-resize; display: none;"><rect y="-3" width="0" height="6" style="visibility: hidden;"></rect></g><g class="resize e" transform="translate(0,0)" style="cursor: ew-resize; display: none;"><rect x="-3" width="6" height="0" style="visibility: hidden;"></rect></g><g class="resize s" transform="translate(0,0)" style="cursor: ns-resize; display: none;"><rect y="-3" width="0" height="6" style="visibility: hidden;"></rect></g><g class="resize w" transform="translate(0,0)" style="cursor: ew-resize; display: none;"><rect x="-3" width="6" height="0" style="visibility: hidden;"></rect></g><g class="resize nw" transform="translate(0,0)" style="cursor: nwse-resize; display: none;"><rect x="-3" y="-3" width="6" height="6" style="visibility: hidden;"></rect></g><g class="resize ne" transform="translate(0,0)" style="cursor: nesw-resize; display: none;"><rect x="-3" y="-3" width="6" height="6" style="visibility: hidden;"></rect></g><g class="resize se" transform="translate(0,0)" style="cursor: nwse-resize; display: none;"><rect x="-3" y="-3" width="6" height="6" style="visibility: hidden;"></rect></g><g class="resize sw" transform="translate(0,0)" style="cursor: nesw-resize; display: none;"><rect x="-3" y="-3" width="6" height="6" style="visibility: hidden;"></rect></g></g><g transform="translate(170.06,94.66) scale(1.60)"><g><line class="link basepair" x1="56.36" y1="250.12" x2="46.64" y2="238.91"></line><line class="link basepair" x1="45.24" y1="260.61" x2="34.81" y2="250.38"></line><line class="link backbone" x1="56.36" y1="250.12" x2="45.24" y2="260.61"></line><line class="link basepair" x1="34.67" y1="272.07" x2="23.74" y2="262.39"></line><line class="link backbone" x1="45.24" y1="260.61" x2="34.67" y2="272.07"></line><line class="link basepair" x1="24.71" y1="284.04" x2="13.20" y2="274.42"></line><line class="link backbone" x1="34.67" y1="272.07" x2="24.71" y2="284.04"></line><line class="link backbone" x1="24.71" y1="284.04" x2="24.37" y2="299.55"></line><line class="link backbone" x1="24.37" y1="299.55" x2="12.34" y2="308.79"></line><line class="link backbone" x1="12.34" y1="308.79" x2="-2.44" y2="305.14"></line><line class="link backbone" x1="-2.44" y1="305.14" x2="-8.80" y2="291.32"></line><line class="link backbone" x1="-8.80" y1="291.32" x2="-2.02" y2="277.79"></line><line class="link basepair" x1="13.20" y1="274.42" x2="24.71" y2="284.04"></line><line class="link backbone" x1="-2.02" y1="277.79" x2="13.20" y2="274.42"></line><line class="link basepair" x1="23.74" y1="262.39" x2="34.67" y2="272.07"></line><line class="link backbone" x1="13.20" y1="274.42" x2="23.74" y2="262.39"></line><line class="link basepair" x1="34.81" y1="250.38" x2="45.24" y2="260.61"></line><line class="link backbone" x1="23.74" y1="262.39" x2="34.81" y2="250.38"></line><line class="link basepair" x1="46.64" y1="238.91" x2="56.36" y2="250.12"></line><line class="link backbone" x1="34.81" y1="250.38" x2="46.64" y2="238.91"></line><line class="link backbone" x1="46.64" y1="238.91" x2="47.40" y2="223.24"></line><line class="link backbone" x1="47.40" y1="223.24" x2="57.42" y2="212.15"></line><line class="link basepair" x1="72.72" y1="209.11" x2="85.26" y2="217.14"></line><line class="link backbone" x1="57.42" y1="212.15" x2="72.72" y2="209.11"></line><line class="link basepair" x1="82.00" y1="195.85" x2="93.89" y2="204.34"></line><line class="link backbone" x1="72.72" y1="209.11" x2="82.00" y2="195.85"></line><line class="link basepair" x1="91.55" y1="182.86" x2="103.29" y2="191.58"></line><line class="link backbone" x1="82.00" y1="195.85" x2="91.55" y2="182.86"></line><line class="link basepair" x1="101.11" y1="170.06" x2="112.83" y2="178.77"></line><line class="link backbone" x1="91.55" y1="182.86" x2="101.11" y2="170.06"></line><line class="link basepair" x1="110.67" y1="157.19" x2="122.35" y2="165.94"></line><line class="link backbone" x1="101.11" y1="170.06" x2="110.67" y2="157.19"></line><line class="link basepair" x1="120.27" y1="144.29" x2="131.89" y2="153.08"></line><line class="link backbone" x1="110.67" y1="157.19" x2="120.27" y2="144.29"></line><line class="link basepair" x1="130.35" y1="131.35" x2="141.55" y2="140.65"></line><line class="link backbone" x1="120.27" y1="144.29" x2="130.35" y2="131.35"></line><line class="link basepair" x1="141.49" y1="118.87" x2="151.79" y2="129.15"></line><line class="link backbone" x1="130.35" y1="131.35" x2="141.49" y2="118.87"></line><line class="link basepair" x1="154.43" y1="107.54" x2="163.02" y2="119.25"></line><line class="link backbone" x1="141.49" y1="118.87" x2="154.43" y2="107.54"></line><line class="link basepair" x1="169.22" y1="98.41" x2="175.44" y2="111.86"></line><line class="link backbone" x1="154.43" y1="107.54" x2="169.22" y2="98.41"></line><line class="link basepair" x1="182.70" y1="87.65" x2="194.46" y2="96.63"></line><line class="link backbone" x1="169.22" y1="98.41" x2="182.70" y2="87.65"></line><line class="link basepair" x1="195.33" y1="75.15" x2="204.40" y2="86.27"></line><line class="link backbone" x1="182.70" y1="87.65" x2="195.33" y2="75.15"></line><line class="link basepair" x1="210.42" y1="65.26" x2="216.52" y2="78.74"></line><line class="link backbone" x1="195.33" y1="75.15" x2="210.42" y2="65.26"></line><line class="link basepair" x1="219.42" y1="50.62" x2="234.18" y2="49.78"></line><line class="link backbone" x1="210.42" y1="65.26" x2="219.42" y2="50.62"></line><line class="link basepair" x1="220.78" y1="33.03" x2="235.02" y2="35.07"></line><line class="link backbone" x1="219.42" y1="50.62" x2="220.78" y2="33.03"></line><line class="link basepair" x1="224.19" y1="16.35" x2="238.24" y2="19.93"></line><line class="link backbone" x1="220.78" y1="33.03" x2="224.19" y2="16.35"></line><line class="link basepair" x1="228.63" y1="0.56" x2="242.79" y2="5.16"></line><line class="link backbone" x1="224.19" y1="16.35" x2="228.63" y2="0.56"></line><line class="link backbone" x1="228.63" y1="0.56" x2="222.18" y2="-13.53"></line><line class="link backbone" x1="222.18" y1="-13.53" x2="227.10" y2="-27.60"></line><line class="link backbone" x1="227.10" y1="-27.60" x2="240.71" y2="-34.17"></line><line class="link backbone" x1="240.71" y1="-34.17" x2="254.75" y2="-29.12"></line><line class="link backbone" x1="254.75" y1="-29.12" x2="261.46" y2="-15.72"></line><line class="link backbone" x1="261.46" y1="-15.72" x2="256.57" y2="-1.60"></line><line class="link basepair" x1="242.79" y1="5.16" x2="228.63" y2="0.56"></line><line class="link backbone" x1="256.57" y1="-1.60" x2="242.79" y2="5.16"></line><line class="link basepair" x1="238.24" y1="19.93" x2="224.19" y2="16.35"></line><line class="link backbone" x1="242.79" y1="5.16" x2="238.24" y2="19.93"></line><line class="link basepair" x1="235.02" y1="35.07" x2="220.78" y2="33.03"></line><line class="link backbone" x1="238.24" y1="19.93" x2="235.02" y2="35.07"></line><line class="link basepair" x1="234.18" y1="49.78" x2="219.42" y2="50.62"></line><line class="link backbone" x1="235.02" y1="35.07" x2="234.18" y2="49.78"></line><line class="link backbone" x1="234.18" y1="49.78" x2="245.02" y2="60.39"></line><line class="link backbone" x1="245.02" y1="60.39" x2="243.49" y2="75.37"></line><line class="link backbone" x1="243.49" y1="75.37" x2="230.85" y2="83.60"></line><line class="link basepair" x1="216.52" y1="78.74" x2="210.42" y2="65.26"></line><line class="link backbone" x1="230.85" y1="83.60" x2="216.52" y2="78.74"></line><line class="link basepair" x1="204.40" y1="86.27" x2="195.33" y2="75.15"></line><line class="link backbone" x1="216.52" y1="78.74" x2="204.40" y2="86.27"></line><line class="link basepair" x1="194.46" y1="96.63" x2="182.70" y2="87.65"></line><line class="link backbone" x1="204.40" y1="86.27" x2="194.46" y2="96.63"></line><line class="link backbone" x1="194.46" y1="96.63" x2="190.60" y2="111.23"></line><line class="link basepair" x1="175.44" y1="111.86" x2="169.22" y2="98.41"></line><line class="link backbone" x1="190.60" y1="111.23" x2="175.44" y2="111.86"></line><line class="link basepair" x1="163.02" y1="119.25" x2="154.43" y2="107.54"></line><line class="link backbone" x1="175.44" y1="111.86" x2="163.02" y2="119.25"></line><line class="link basepair" x1="151.79" y1="129.15" x2="141.49" y2="118.87"></line><line class="link backbone" x1="163.02" y1="119.25" x2="151.79" y2="129.15"></line><line class="link basepair" x1="141.55" y1="140.65" x2="130.35" y2="131.35"></line><line class="link backbone" x1="151.79" y1="129.15" x2="141.55" y2="140.65"></line><line class="link basepair" x1="131.89" y1="153.08" x2="120.27" y2="144.29"></line><line class="link backbone" x1="141.55" y1="140.65" x2="131.89" y2="153.08"></line><line class="link basepair" x1="122.35" y1="165.94" x2="110.67" y2="157.19"></line><line class="link backbone" x1="131.89" y1="153.08" x2="122.35" y2="165.94"></line><line class="link basepair" x1="112.83" y1="178.77" x2="101.11" y2="170.06"></line><line class="link backbone" x1="122.35" y1="165.94" x2="112.83" y2="178.77"></line><line class="link basepair" x1="103.29" y1="191.58" x2="91.55" y2="182.86"></line><line class="link backbone" x1="112.83" y1="178.77" x2="103.29" y2="191.58"></line><line class="link basepair" x1="93.89" y1="204.34" x2="82.00" y2="195.85"></line><line class="link backbone" x1="103.29" y1="191.58" x2="93.89" y2="204.34"></line><line class="link basepair" x1="85.26" y1="217.14" x2="72.72" y2="209.11"></line><line class="link backbone" x1="93.89" y1="204.34" x2="85.26" y2="217.14"></line><line class="link backbone" x1="85.26" y1="217.14" x2="90.22" y2="231.46"></line><line class="link label_link" x1="13.20" y1="274.42" x2="0.17" y2="265.99"></line><line class="link label_link" x1="110.67" y1="157.19" x2="99.66" y2="146.20"></line><line class="link label_link" x1="220.78" y1="33.03" x2="206.45" y2="26.83"></line><line class="link label_link" x1="238.24" y1="19.93" x2="253.67" y2="21.76"></line><line class="link label_link" x1="175.44" y1="111.86" x2="185.06" y2="124.09"></line><line class="link label_link" x1="90.22" y1="231.46" x2="104.04" y2="238.81"></line><line class="link fake transparent" x1="72.72" y1="209.11" x2="83.27" y2="206.59"></line><line class="link fake transparent" x1="72.72" y1="209.11" x2="93.89" y2="204.34"></line><line class="link fake transparent" x1="82.00" y1="195.85" x2="83.27" y2="206.59"></line><line class="link fake transparent" x1="93.89" y1="204.34" x2="83.27" y2="206.59"></line><line class="link fake transparent" x1="85.26" y1="217.14" x2="83.27" y2="206.59"></line><line class="link fake transparent" x1="82.00" y1="195.85" x2="92.62" y2="193.63"></line><line class="link fake transparent" x1="91.55" y1="182.86" x2="92.62" y2="193.63"></line><line class="link fake transparent" x1="103.29" y1="191.58" x2="92.62" y2="193.63"></line><line class="link fake transparent" x1="93.89" y1="204.34" x2="92.62" y2="193.63"></line><line class="link fake transparent" x1="91.55" y1="182.86" x2="102.19" y2="180.86"></line><line class="link fake transparent" x1="101.11" y1="170.06" x2="102.19" y2="180.86"></line><line class="link fake transparent" x1="112.83" y1="178.77" x2="102.19" y2="180.86"></line><line class="link fake transparent" x1="103.29" y1="191.58" x2="102.19" y2="180.86"></line><line class="link fake transparent" x1="101.11" y1="170.06" x2="111.76" y2="168.00"></line><line class="link fake transparent" x1="110.67" y1="157.19" x2="111.76" y2="168.00"></line><line class="link fake transparent" x1="122.35" y1="165.94" x2="111.76" y2="168.00"></line><line class="link fake transparent" x1="112.83" y1="178.77" x2="111.76" y2="168.00"></line><line class="link fake transparent" x1="110.67" y1="157.19" x2="121.28" y2="155.13"></line><line class="link fake transparent" x1="120.27" y1="144.29" x2="121.28" y2="155.13"></line><line class="link fake transparent" x1="131.89" y1="153.08" x2="121.28" y2="155.13"></line><line class="link fake transparent" x1="122.35" y1="165.94" x2="121.28" y2="155.13"></line><line class="link fake transparent" x1="120.27" y1="144.29" x2="130.88" y2="142.22"></line><line class="link fake transparent" x1="130.35" y1="131.35" x2="130.88" y2="142.22"></line><line class="link fake transparent" x1="141.55" y1="140.65" x2="130.88" y2="142.22"></line><line class="link fake transparent" x1="131.89" y1="153.08" x2="130.88" y2="142.22"></line><line class="link fake transparent" x1="130.35" y1="131.35" x2="141.00" y2="129.75"></line><line class="link fake transparent" x1="141.49" y1="118.87" x2="141.00" y2="129.75"></line><line class="link fake transparent" x1="151.79" y1="129.15" x2="141.00" y2="129.75"></line><line class="link fake transparent" x1="141.55" y1="140.65" x2="141.00" y2="129.75"></line><line class="link fake transparent" x1="141.49" y1="118.87" x2="152.27" y2="118.22"></line><line class="link fake transparent" x1="154.43" y1="107.54" x2="152.27" y2="118.22"></line><line class="link fake transparent" x1="163.02" y1="119.25" x2="152.27" y2="118.22"></line><line class="link fake transparent" x1="151.79" y1="129.15" x2="152.27" y2="118.22"></line><line class="link fake transparent" x1="154.43" y1="107.54" x2="165.15" y2="108.58"></line><line class="link fake transparent" x1="169.22" y1="98.41" x2="165.15" y2="108.58"></line><line class="link fake transparent" x1="175.44" y1="111.86" x2="165.15" y2="108.58"></line><line class="link fake transparent" x1="163.02" y1="119.25" x2="165.15" y2="108.58"></line><line class="link fake transparent" x1="182.70" y1="87.65" x2="193.55" y2="85.90"></line><line class="link fake transparent" x1="195.33" y1="75.15" x2="193.55" y2="85.90"></line><line class="link fake transparent" x1="204.40" y1="86.27" x2="193.55" y2="85.90"></line><line class="link fake transparent" x1="194.46" y1="96.63" x2="193.55" y2="85.90"></line><line class="link fake transparent" x1="195.33" y1="75.15" x2="206.21" y2="75.64"></line><line class="link fake transparent" x1="210.42" y1="65.26" x2="206.21" y2="75.64"></line><line class="link fake transparent" x1="216.52" y1="78.74" x2="206.21" y2="75.64"></line><line class="link fake transparent" x1="204.40" y1="86.27" x2="206.21" y2="75.64"></line><line class="link fake transparent" x1="219.42" y1="50.62" x2="226.68" y2="42.12"></line><line class="link fake transparent" x1="220.78" y1="33.03" x2="226.68" y2="42.12"></line><line class="link fake transparent" x1="235.02" y1="35.07" x2="226.68" y2="42.12"></line><line class="link fake transparent" x1="234.18" y1="49.78" x2="226.68" y2="42.12"></line><line class="link fake transparent" x1="220.78" y1="33.03" x2="229.17" y2="25.98"></line><line class="link fake transparent" x1="224.19" y1="16.35" x2="229.17" y2="25.98"></line><line class="link fake transparent" x1="238.24" y1="19.93" x2="229.17" y2="25.98"></line><line class="link fake transparent" x1="235.02" y1="35.07" x2="229.17" y2="25.98"></line><line class="link fake transparent" x1="224.19" y1="16.35" x2="233.22" y2="10.36"></line><line class="link fake transparent" x1="228.63" y1="0.56" x2="233.22" y2="10.36"></line><line class="link fake transparent" x1="242.79" y1="5.16" x2="233.22" y2="10.36"></line><line class="link fake transparent" x1="238.24" y1="19.93" x2="233.22" y2="10.36"></line><line class="link fake transparent" x1="56.36" y1="250.12" x2="45.65" y2="249.73"></line><line class="link fake transparent" x1="45.24" y1="260.61" x2="45.65" y2="249.73"></line><line class="link fake transparent" x1="34.81" y1="250.38" x2="45.65" y2="249.73"></line><line class="link fake transparent" x1="46.64" y1="238.91" x2="45.65" y2="249.73"></line><line class="link fake transparent" x1="45.24" y1="260.61" x2="34.49" y2="261.21"></line><line class="link fake transparent" x1="34.67" y1="272.07" x2="34.49" y2="261.21"></line><line class="link fake transparent" x1="23.74" y1="262.39" x2="34.49" y2="261.21"></line><line class="link fake transparent" x1="34.81" y1="250.38" x2="34.49" y2="261.21"></line><line class="link fake transparent" x1="34.67" y1="272.07" x2="23.95" y2="273.23"></line><line class="link fake transparent" x1="24.71" y1="284.04" x2="23.95" y2="273.23"></line><line class="link fake transparent" x1="13.20" y1="274.42" x2="23.95" y2="273.23"></line><line class="link fake transparent" x1="23.74" y1="262.39" x2="23.95" y2="273.23"></line><line class="link fake transparent" x1="56.36" y1="250.12" x2="67.84" y2="231.04"></line><line class="link fake transparent" x1="56.36" y1="250.12" x2="72.72" y2="209.11"></line><line class="link fake transparent" x1="46.64" y1="238.91" x2="67.84" y2="231.04"></line><line class="link fake transparent" x1="46.64" y1="238.91" x2="85.26" y2="217.14"></line><line class="link fake transparent" x1="47.40" y1="223.24" x2="67.84" y2="231.04"></line><line class="link fake transparent" x1="47.40" y1="223.24" x2="90.22" y2="231.46"></line><line class="link fake transparent" x1="57.42" y1="212.15" x2="67.84" y2="231.04"></line><line class="link fake transparent" x1="57.42" y1="212.15" x2="87.09" y2="245.29"></line><line class="link fake transparent" x1="72.72" y1="209.11" x2="67.84" y2="231.04"></line><line class="link fake transparent" x1="72.72" y1="209.11" x2="73.76" y2="253.72"></line><line class="link fake transparent" x1="85.26" y1="217.14" x2="67.84" y2="231.04"></line><line class="link fake transparent" x1="85.26" y1="217.14" x2="56.36" y2="250.12"></line><line class="link fake transparent" x1="90.22" y1="231.46" x2="67.84" y2="231.04"></line><line class="link fake transparent" x1="90.22" y1="231.46" x2="46.64" y2="238.91"></line><line class="link fake transparent" x1="228.63" y1="0.56" x2="241.71" y2="-14.39"></line><line class="link fake transparent" x1="228.63" y1="0.56" x2="254.75" y2="-29.12"></line><line class="link fake transparent" x1="222.18" y1="-13.53" x2="241.71" y2="-14.39"></line><line class="link fake transparent" x1="222.18" y1="-13.53" x2="261.46" y2="-15.72"></line><line class="link fake transparent" x1="227.10" y1="-27.60" x2="241.71" y2="-14.39"></line><line class="link fake transparent" x1="227.10" y1="-27.60" x2="256.57" y2="-1.60"></line><line class="link fake transparent" x1="240.71" y1="-34.17" x2="241.71" y2="-14.39"></line><line class="link fake transparent" x1="240.71" y1="-34.17" x2="242.79" y2="5.16"></line><line class="link fake transparent" x1="254.75" y1="-29.12" x2="241.71" y2="-14.39"></line><line class="link fake transparent" x1="254.75" y1="-29.12" x2="228.63" y2="0.56"></line><line class="link fake transparent" x1="261.46" y1="-15.72" x2="241.71" y2="-14.39"></line><line class="link fake transparent" x1="261.46" y1="-15.72" x2="222.18" y2="-13.53"></line><line class="link fake transparent" x1="256.57" y1="-1.60" x2="241.71" y2="-14.39"></line><line class="link fake transparent" x1="256.57" y1="-1.60" x2="227.10" y2="-27.60"></line><line class="link fake transparent" x1="242.79" y1="5.16" x2="241.71" y2="-14.39"></line><line class="link fake transparent" x1="242.79" y1="5.16" x2="240.71" y2="-34.17"></line><line class="link fake transparent" x1="24.71" y1="284.04" x2="8.81" y2="291.50"></line><line class="link fake transparent" x1="24.71" y1="284.04" x2="-2.44" y2="305.14"></line><line class="link fake transparent" x1="24.37" y1="299.55" x2="8.81" y2="291.50"></line><line class="link fake transparent" x1="24.37" y1="299.55" x2="-8.80" y2="291.32"></line><line class="link fake transparent" x1="12.34" y1="308.79" x2="8.81" y2="291.50"></line><line class="link fake transparent" x1="12.34" y1="308.79" x2="-2.02" y2="277.79"></line><line class="link fake transparent" x1="-2.44" y1="305.14" x2="8.81" y2="291.50"></line><line class="link fake transparent" x1="-2.44" y1="305.14" x2="13.20" y2="274.42"></line><line class="link fake transparent" x1="-8.80" y1="291.32" x2="8.81" y2="291.50"></line><line class="link fake transparent" x1="-8.80" y1="291.32" x2="24.71" y2="284.04"></line><line class="link fake transparent" x1="-2.02" y1="277.79" x2="8.81" y2="291.50"></line><line class="link fake transparent" x1="-2.02" y1="277.79" x2="24.37" y2="299.55"></line><line class="link fake transparent" x1="13.20" y1="274.42" x2="8.81" y2="291.50"></line><line class="link fake transparent" x1="13.20" y1="274.42" x2="12.34" y2="308.79"></line><line class="link fake transparent" x1="169.22" y1="98.41" x2="182.11" y2="100.71"></line><line class="link fake transparent" x1="169.22" y1="98.41" x2="194.46" y2="96.63"></line><line class="link fake transparent" x1="182.70" y1="87.65" x2="182.11" y2="100.71"></line><line class="link fake transparent" x1="182.70" y1="87.65" x2="190.60" y2="111.23"></line><line class="link fake transparent" x1="194.46" y1="96.63" x2="182.11" y2="100.71"></line><line class="link fake transparent" x1="194.46" y1="96.63" x2="175.44" y2="111.86"></line><line class="link fake transparent" x1="190.60" y1="111.23" x2="182.11" y2="100.71"></line><line class="link fake transparent" x1="190.60" y1="111.23" x2="169.22" y2="98.41"></line><line class="link fake transparent" x1="175.44" y1="111.86" x2="182.11" y2="100.71"></line><line class="link fake transparent" x1="175.44" y1="111.86" x2="182.70" y2="87.65"></line><line class="link fake transparent" x1="210.42" y1="65.26" x2="228.13" y2="66.02"></line><line class="link fake transparent" x1="210.42" y1="65.26" x2="245.02" y2="60.39"></line><line class="link fake transparent" x1="219.42" y1="50.62" x2="228.13" y2="66.02"></line><line class="link fake transparent" x1="219.42" y1="50.62" x2="243.49" y2="75.37"></line><line class="link fake transparent" x1="234.18" y1="49.78" x2="228.13" y2="66.02"></line><line class="link fake transparent" x1="234.18" y1="49.78" x2="230.85" y2="83.60"></line><line class="link fake transparent" x1="245.02" y1="60.39" x2="228.13" y2="66.02"></line><line class="link fake transparent" x1="245.02" y1="60.39" x2="216.52" y2="78.74"></line><line class="link fake transparent" x1="243.49" y1="75.37" x2="228.13" y2="66.02"></line><line class="link fake transparent" x1="243.49" y1="75.37" x2="210.42" y2="65.26"></line><line class="link fake transparent" x1="230.85" y1="83.60" x2="228.13" y2="66.02"></line><line class="link fake transparent" x1="230.85" y1="83.60" x2="219.42" y2="50.62"></line><line class="link fake transparent" x1="216.52" y1="78.74" x2="228.13" y2="66.02"></line><line class="link fake transparent" x1="216.52" y1="78.74" x2="234.18" y2="49.78"></line></g><g><g class="noselect gnode" struct_name="m" transform="translate(56.36,250.12)" r="6.5"><circle class="node" r="6" node_type="nucleotide" style="fill: lightgreen;"></circle><text text-anchor="middle" font-size="8" font-weight="bold" y="2.5" class="node-label">G</text></g><g class="noselect gnode" struct_name="m" transform="translate(45.24,260.61)" r="6.5"><circle class="node" r="6" node_type="nucleotide" style="fill: lightgreen;"></circle><text text-anchor="middle" font-size="8" font-weight="bold" y="2.5" class="node-label">C</text></g><g class="noselect gnode" struct_name="m" transform="translate(34.67,272.07)" r="6.5"><circle class="node" r="6" node_type="nucleotide" style="fill: lightgreen;"></circle><text text-anchor="middle" font-size="8" font-weight="bold" y="2.5" class="node-label">U</text></g><g class="noselect gnode" struct_name="m" transform="translate(24.71,284.04)" r="6.5"><circle class="node" r="6" node_type="nucleotide" style="fill: lightgreen;"></circle><text text-anchor="middle" font-size="8" font-weight="bold" y="2.5" class="node-label">U</text></g><g class="noselect gnode" struct_name="m" transform="translate(24.37,299.55)" r="6.5"><circle class="node" r="6" node_type="nucleotide" style="fill: lightblue;"></circle><text text-anchor="middle" font-size="8" font-weight="bold" y="2.5" class="node-label">U</text></g><g class="noselect gnode" struct_name="m" transform="translate(12.34,308.79)" r="6.5"><circle class="node" r="6" node_type="nucleotide" style="fill: lightblue;"></circle><text text-anchor="middle" font-size="8" font-weight="bold" y="2.5" class="node-label">A</text></g><g class="noselect gnode" struct_name="m" transform="translate(-2.44,305.14)" r="6.5"><circle class="node" r="6" node_type="nucleotide" style="fill: lightblue;"></circle><text text-anchor="middle" font-size="8" font-weight="bold" y="2.5" class="node-label">U</text></g><g class="noselect gnode" struct_name="m" transform="translate(-8.80,291.32)" r="6.5"><circle class="node" r="6" node_type="nucleotide" style="fill: lightblue;"></circle><text text-anchor="middle" font-size="8" font-weight="bold" y="2.5" class="node-label">A</text></g><g class="noselect gnode" struct_name="m" transform="translate(-2.02,277.79)" r="6.5"><circle class="node" r="6" node_type="nucleotide" style="fill: lightblue;"></circle><text text-anchor="middle" font-size="8" font-weight="bold" y="2.5" class="node-label">U</text></g><g class="noselect gnode" struct_name="m" transform="translate(13.20,274.42)" r="6.5"><circle class="node" r="6" node_type="nucleotide" style="fill: lightgreen;"></circle><text text-anchor="middle" font-size="8" font-weight="bold" y="2.5" class="node-label">A</text></g><g class="noselect gnode" struct_name="m" transform="translate(23.74,262.39)" r="6.5"><circle class="node" r="6" node_type="nucleotide" style="fill: lightgreen;"></circle><text text-anchor="middle" font-size="8" font-weight="bold" y="2.5" class="node-label">A</text></g><g class="noselect gnode" struct_name="m" transform="translate(34.81,250.38)" r="6.5"><circle class="node" r="6" node_type="nucleotide" style="fill: lightgreen;"></circle><text text-anchor="middle" font-size="8" font-weight="bold" y="2.5" class="node-label">G</text></g><g class="noselect gnode" struct_name="m" transform="translate(46.64,238.91)" r="6.5"><circle class="node" r="6" node_type="nucleotide" style="fill: lightgreen;"></circle><text text-anchor="middle" font-size="8" font-weight="bold" y="2.5" class="node-label">U</text></g><g class="noselect gnode" struct_name="m" transform="translate(47.40,223.24)" r="6.5"><circle class="node" r="6" node_type="nucleotide" style="fill: lightsalmon;"></circle><text text-anchor="middle" font-size="8" font-weight="bold" y="2.5" class="node-label">U</text></g><g class="noselect gnode" struct_name="m" transform="translate(57.42,212.15)" r="6.5"><circle class="node" r="6" node_type="nucleotide" style="fill: lightsalmon;"></circle><text text-anchor="middle" font-size="8" font-weight="bold" y="2.5" class="node-label">U</text></g><g class="noselect gnode" struct_name="m" transform="translate(72.72,209.11)" r="6.5"><circle class="node" r="6" node_type="nucleotide" style="fill: lightgreen;"></circle><text text-anchor="middle" font-size="8" font-weight="bold" y="2.5" class="node-label">C</text></g><g class="noselect gnode" struct_name="m" transform="translate(82.00,195.85)" r="6.5"><circle class="node" r="6" node_type="nucleotide" style="fill: lightgreen;"></circle><text text-anchor="middle" font-size="8" font-weight="bold" y="2.5" class="node-label">A</text></g><g class="noselect gnode" struct_name="m" transform="translate(91.55,182.86)" r="6.5"><circle class="node" r="6" node_type="nucleotide" style="fill: lightgreen;"></circle><text text-anchor="middle" font-size="8" font-weight="bold" y="2.5" class="node-label">G</text></g><g class="noselect gnode" struct_name="m" transform="translate(101.11,170.06)" r="6.5"><circle class="node" r="6" node_type="nucleotide" style="fill: lightgreen;"></circle><text text-anchor="middle" font-size="8" font-weight="bold" y="2.5" class="node-label">U</text></g><g class="noselect gnode" struct_name="m" transform="translate(110.67,157.19)" r="6.5"><circle class="node" r="6" node_type="nucleotide" style="fill: lightgreen;"></circle><text text-anchor="middle" font-size="8" font-weight="bold" y="2.5" class="node-label">C</text></g><g class="noselect gnode" struct_name="m" transform="translate(120.27,144.29)" r="6.5"><circle class="node" r="6" node_type="nucleotide" style="fill: lightgreen;"></circle><text text-anchor="middle" font-size="8" font-weight="bold" y="2.5" class="node-label">C</text></g><g class="noselect gnode" struct_name="m" transform="translate(130.35,131.35)" r="6.5"><circle class="node" r="6" node_type="nucleotide" style="fill: lightgreen;"></circle><text text-anchor="middle" font-size="8" font-weight="bold" y="2.5" class="node-label">G</text></g><g class="noselect gnode" struct_name="m" transform="translate(141.49,118.87)" r="6.5"><circle class="node" r="6" node_type="nucleotide" style="fill: lightgreen;"></circle><text text-anchor="middle" font-size="8" font-weight="bold" y="2.5" class="node-label">A</text></g><g class="noselect gnode" struct_name="m" transform="translate(154.43,107.54)" r="6.5"><circle class="node" r="6" node_type="nucleotide" style="fill: lightgreen;"></circle><text text-anchor="middle" font-size="8" font-weight="bold" y="2.5" class="node-label">C</text></g><g class="noselect gnode" struct_name="m" transform="translate(169.22,98.41)" r="6.5"><circle class="node" r="6" node_type="nucleotide" style="fill: lightgreen;"></circle><text text-anchor="middle" font-size="8" font-weight="bold" y="2.5" class="node-label">A</text></g><g class="noselect gnode" struct_name="m" transform="translate(182.70,87.65)" r="6.5"><circle class="node" r="6" node_type="nucleotide" style="fill: lightgreen;"></circle><text text-anchor="middle" font-size="8" font-weight="bold" y="2.5" class="node-label">C</text></g><g class="noselect gnode" struct_name="m" transform="translate(195.33,75.15)" r="6.5"><circle class="node" r="6" node_type="nucleotide" style="fill: lightgreen;"></circle><text text-anchor="middle" font-size="8" font-weight="bold" y="2.5" class="node-label">G</text></g><g class="noselect gnode" struct_name="m" transform="translate(210.42,65.26)" r="6.5"><circle class="node" r="6" node_type="nucleotide" style="fill: lightgreen;"></circle><text text-anchor="middle" font-size="8" font-weight="bold" y="2.5" class="node-label">U</text></g><g class="noselect gnode" struct_name="m" transform="translate(219.42,50.62)" r="6.5"><circle class="node" r="6" node_type="nucleotide" style="fill: lightgreen;"></circle><text text-anchor="middle" font-size="8" font-weight="bold" y="2.5" class="node-label">U</text></g><g class="noselect gnode" struct_name="m" transform="translate(220.78,33.03)" r="6.5"><circle class="node" r="6" node_type="nucleotide" style="fill: lightgreen;"></circle><text text-anchor="middle" font-size="8" font-weight="bold" y="2.5" class="node-label">U</text></g><g class="noselect gnode" struct_name="m" transform="translate(224.19,16.35)" r="6.5"><circle class="node" r="6" node_type="nucleotide" style="fill: lightgreen;"></circle><text text-anchor="middle" font-size="8" font-weight="bold" y="2.5" class="node-label">C</text></g><g class="noselect gnode" struct_name="m" transform="translate(228.63,0.56)" r="6.5"><circle class="node" r="6" node_type="nucleotide" style="fill: lightgreen;"></circle><text text-anchor="middle" font-size="8" font-weight="bold" y="2.5" class="node-label">A</text></g><g class="noselect gnode" struct_name="m" transform="translate(222.18,-13.53)" r="6.5"><circle class="node" r="6" node_type="nucleotide" style="fill: lightblue;"></circle><text text-anchor="middle" font-size="8" font-weight="bold" y="2.5" class="node-label">G</text></g><g class="noselect gnode" struct_name="m" transform="translate(227.10,-27.60)" r="6.5"><circle class="node" r="6" node_type="nucleotide" style="fill: lightblue;"></circle><text text-anchor="middle" font-size="8" font-weight="bold" y="2.5" class="node-label">G</text></g><g class="noselect gnode" struct_name="m" transform="translate(240.71,-34.17)" r="6.5"><circle class="node" r="6" node_type="nucleotide" style="fill: lightblue;"></circle><text text-anchor="middle" font-size="8" font-weight="bold" y="2.5" class="node-label">C</text></g><g class="noselect gnode" struct_name="m" transform="translate(254.75,-29.12)" r="6.5"><circle class="node" r="6" node_type="nucleotide" style="fill: lightblue;"></circle><text text-anchor="middle" font-size="8" font-weight="bold" y="2.5" class="node-label">U</text></g><g class="noselect gnode" struct_name="m" transform="translate(261.46,-15.72)" r="6.5"><circle class="node" r="6" node_type="nucleotide" style="fill: lightblue;"></circle><text text-anchor="middle" font-size="8" font-weight="bold" y="2.5" class="node-label">U</text></g><g class="noselect gnode" struct_name="m" transform="translate(256.57,-1.60)" r="6.5"><circle class="node" r="6" node_type="nucleotide" style="fill: lightblue;"></circle><text text-anchor="middle" font-size="8" font-weight="bold" y="2.5" class="node-label">A</text></g><g class="noselect gnode" struct_name="m" transform="translate(242.79,5.16)" r="6.5"><circle class="node" r="6" node_type="nucleotide" style="fill: lightgreen;"></circle><text text-anchor="middle" font-size="8" font-weight="bold" y="2.5" class="node-label">U</text></g><g class="noselect gnode" struct_name="m" transform="translate(238.24,19.93)" r="6.5"><circle class="node" r="6" node_type="nucleotide" style="fill: lightgreen;"></circle><text text-anchor="middle" font-size="8" font-weight="bold" y="2.5" class="node-label">G</text></g><g class="noselect gnode" struct_name="m" transform="translate(235.02,35.07)" r="6.5"><circle class="node" r="6" node_type="nucleotide" style="fill: lightgreen;"></circle><text text-anchor="middle" font-size="8" font-weight="bold" y="2.5" class="node-label">A</text></g><g class="noselect gnode" struct_name="m" transform="translate(234.18,49.78)" r="6.5"><circle class="node" r="6" node_type="nucleotide" style="fill: lightgreen;"></circle><text text-anchor="middle" font-size="8" font-weight="bold" y="2.5" class="node-label">A</text></g><g class="noselect gnode" struct_name="m" transform="translate(245.02,60.39)" r="6.5"><circle class="node" r="6" node_type="nucleotide" style="fill: rgb(219, 219, 141);"></circle><text text-anchor="middle" font-size="8" font-weight="bold" y="2.5" class="node-label">U</text></g><g class="noselect gnode" struct_name="m" transform="translate(243.49,75.37)" r="6.5"><circle class="node" r="6" node_type="nucleotide" style="fill: rgb(219, 219, 141);"></circle><text text-anchor="middle" font-size="8" font-weight="bold" y="2.5" class="node-label">A</text></g><g class="noselect gnode" struct_name="m" transform="translate(230.85,83.60)" r="6.5"><circle class="node" r="6" node_type="nucleotide" style="fill: rgb(219, 219, 141);"></circle><text text-anchor="middle" font-size="8" font-weight="bold" y="2.5" class="node-label">U</text></g><g class="noselect gnode" struct_name="m" transform="translate(216.52,78.74)" r="6.5"><circle class="node" r="6" node_type="nucleotide" style="fill: lightgreen;"></circle><text text-anchor="middle" font-size="8" font-weight="bold" y="2.5" class="node-label">A</text></g><g class="noselect gnode" struct_name="m" transform="translate(204.40,86.27)" r="6.5"><circle class="node" r="6" node_type="nucleotide" style="fill: lightgreen;"></circle><text text-anchor="middle" font-size="8" font-weight="bold" y="2.5" class="node-label">C</text></g><g class="noselect gnode" struct_name="m" transform="translate(194.46,96.63)" r="6.5"><circle class="node" r="6" node_type="nucleotide" style="fill: lightgreen;"></circle><text text-anchor="middle" font-size="8" font-weight="bold" y="2.5" class="node-label">G</text></g><g class="noselect gnode" struct_name="m" transform="translate(190.60,111.23)" r="6.5"><circle class="node" r="6" node_type="nucleotide" style="fill: rgb(219, 219, 141);"></circle><text text-anchor="middle" font-size="8" font-weight="bold" y="2.5" class="node-label">A</text></g><g class="noselect gnode" struct_name="m" transform="translate(175.44,111.86)" r="6.5"><circle class="node" r="6" node_type="nucleotide" style="fill: lightgreen;"></circle><text text-anchor="middle" font-size="8" font-weight="bold" y="2.5" class="node-label">U</text></g><g class="noselect gnode" struct_name="m" transform="translate(163.02,119.25)" r="6.5"><circle class="node" r="6" node_type="nucleotide" style="fill: lightgreen;"></circle><text text-anchor="middle" font-size="8" font-weight="bold" y="2.5" class="node-label">G</text></g><g class="noselect gnode" struct_name="m" transform="translate(151.79,129.15)" r="6.5"><circle class="node" r="6" node_type="nucleotide" style="fill: lightgreen;"></circle><text text-anchor="middle" font-size="8" font-weight="bold" y="2.5" class="node-label">U</text></g><g class="noselect gnode" struct_name="m" transform="translate(141.55,140.65)" r="6.5"><circle class="node" r="6" node_type="nucleotide" style="fill: lightgreen;"></circle><text text-anchor="middle" font-size="8" font-weight="bold" y="2.5" class="node-label">C</text></g><g class="noselect gnode" struct_name="m" transform="translate(131.89,153.08)" r="6.5"><circle class="node" r="6" node_type="nucleotide" style="fill: lightgreen;"></circle><text text-anchor="middle" font-size="8" font-weight="bold" y="2.5" class="node-label">G</text></g><g class="noselect gnode" struct_name="m" transform="translate(122.35,165.94)" r="6.5"><circle class="node" r="6" node_type="nucleotide" style="fill: lightgreen;"></circle><text text-anchor="middle" font-size="8" font-weight="bold" y="2.5" class="node-label">G</text></g><g class="noselect gnode" struct_name="m" transform="translate(112.83,178.77)" r="6.5"><circle class="node" r="6" node_type="nucleotide" style="fill: lightgreen;"></circle><text text-anchor="middle" font-size="8" font-weight="bold" y="2.5" class="node-label">A</text></g><g class="noselect gnode" struct_name="m" transform="translate(103.29,191.58)" r="6.5"><circle class="node" r="6" node_type="nucleotide" style="fill: lightgreen;"></circle><text text-anchor="middle" font-size="8" font-weight="bold" y="2.5" class="node-label">C</text></g><g class="noselect gnode" struct_name="m" transform="translate(93.89,204.34)" r="6.5"><circle class="node" r="6" node_type="nucleotide" style="fill: lightgreen;"></circle><text text-anchor="middle" font-size="8" font-weight="bold" y="2.5" class="node-label">U</text></g><g class="noselect gnode" struct_name="m" transform="translate(85.26,217.14)" r="6.5"><circle class="node" r="6" node_type="nucleotide" style="fill: lightgreen;"></circle><text text-anchor="middle" font-size="8" font-weight="bold" y="2.5" class="node-label">G</text></g><g class="noselect gnode" struct_name="m" transform="translate(90.22,231.46)" r="6.5"><circle class="node" r="6" node_type="nucleotide" style="fill: lightsalmon;"></circle><text text-anchor="middle" font-size="8" font-weight="bold" y="2.5" class="node-label">U</text></g><g class="noselect gnode" struct_name="m" transform="translate(0.17,265.99)" r="6.5"><circle class="node label" r="6" node_type="label"></circle><text text-anchor="middle" font-size="8" font-weight="bold" y="2.5" class="node-label">10</text></g><g class="noselect gnode" struct_name="m" transform="translate(99.66,146.20)" r="6.5"><circle class="node label" r="6" node_type="label"></circle><text text-anchor="middle" font-size="8" font-weight="bold" y="2.5" class="node-label">20</text></g><g class="noselect gnode" struct_name="m" transform="translate(206.45,26.83)" r="6.5"><circle class="node label" r="6" node_type="label"></circle><text text-anchor="middle" font-size="8" font-weight="bold" y="2.5" class="node-label">30</text></g><g class="noselect gnode" struct_name="m" transform="translate(253.67,21.76)" r="6.5"><circle class="node label" r="6" node_type="label"></circle><text text-anchor="middle" font-size="8" font-weight="bold" y="2.5" class="node-label">40</text></g><g class="noselect gnode" struct_name="m" transform="translate(185.06,124.09)" r="6.5"><circle class="node label" r="6" node_type="label"></circle><text text-anchor="middle" font-size="8" font-weight="bold" y="2.5" class="node-label">50</text></g><g class="noselect gnode" struct_name="m" transform="translate(104.04,238.81)" r="6.5"><circle class="node label" r="6" node_type="label"></circle><text text-anchor="middle" font-size="8" font-weight="bold" y="2.5" class="node-label">60</text></g><g class="noselect gnode" transform="translate(83.27,206.59)" r="6.5"><circle class="node" r="0" node_type="middle"></circle><text text-anchor="middle" font-size="8" font-weight="bold" y="2.5" class="node-label"></text></g><g class="noselect gnode" transform="translate(92.62,193.63)" r="6.5"><circle class="node" r="0" node_type="middle"></circle><text text-anchor="middle" font-size="8" font-weight="bold" y="2.5" class="node-label"></text></g><g class="noselect gnode" transform="translate(102.19,180.86)" r="6.5"><circle class="node" r="0" node_type="middle"></circle><text text-anchor="middle" font-size="8" font-weight="bold" y="2.5" class="node-label"></text></g><g class="noselect gnode" transform="translate(111.76,168.00)" r="6.5"><circle class="node" r="0" node_type="middle"></circle><text text-anchor="middle" font-size="8" font-weight="bold" y="2.5" class="node-label"></text></g><g class="noselect gnode" transform="translate(121.28,155.13)" r="6.5"><circle class="node" r="0" node_type="middle"></circle><text text-anchor="middle" font-size="8" font-weight="bold" y="2.5" class="node-label"></text></g><g class="noselect gnode" transform="translate(130.88,142.22)" r="6.5"><circle class="node" r="0" node_type="middle"></circle><text text-anchor="middle" font-size="8" font-weight="bold" y="2.5" class="node-label"></text></g><g class="noselect gnode" transform="translate(141.00,129.75)" r="6.5"><circle class="node" r="0" node_type="middle"></circle><text text-anchor="middle" font-size="8" font-weight="bold" y="2.5" class="node-label"></text></g><g class="noselect gnode" transform="translate(152.27,118.22)" r="6.5"><circle class="node" r="0" node_type="middle"></circle><text text-anchor="middle" font-size="8" font-weight="bold" y="2.5" class="node-label"></text></g><g class="noselect gnode" transform="translate(165.15,108.58)" r="6.5"><circle class="node" r="0" node_type="middle"></circle><text text-anchor="middle" font-size="8" font-weight="bold" y="2.5" class="node-label"></text></g><g class="noselect gnode" transform="translate(193.55,85.90)" r="6.5"><circle class="node" r="0" node_type="middle"></circle><text text-anchor="middle" font-size="8" font-weight="bold" y="2.5" class="node-label"></text></g><g class="noselect gnode" transform="translate(206.21,75.64)" r="6.5"><circle class="node" r="0" node_type="middle"></circle><text text-anchor="middle" font-size="8" font-weight="bold" y="2.5" class="node-label"></text></g><g class="noselect gnode" transform="translate(226.68,42.12)" r="6.5"><circle class="node" r="0" node_type="middle"></circle><text text-anchor="middle" font-size="8" font-weight="bold" y="2.5" class="node-label"></text></g><g class="noselect gnode" transform="translate(229.17,25.98)" r="6.5"><circle class="node" r="0" node_type="middle"></circle><text text-anchor="middle" font-size="8" font-weight="bold" y="2.5" class="node-label"></text></g><g class="noselect gnode" transform="translate(233.22,10.36)" r="6.5"><circle class="node" r="0" node_type="middle"></circle><text text-anchor="middle" font-size="8" font-weight="bold" y="2.5" class="node-label"></text></g><g class="noselect gnode" transform="translate(45.65,249.73)" r="6.5"><circle class="node" r="0" node_type="middle"></circle><text text-anchor="middle" font-size="8" font-weight="bold" y="2.5" class="node-label"></text></g><g class="noselect gnode" transform="translate(34.49,261.21)" r="6.5"><circle class="node" r="0" node_type="middle"></circle><text text-anchor="middle" font-size="8" font-weight="bold" y="2.5" class="node-label"></text></g><g class="noselect gnode" transform="translate(23.95,273.23)" r="6.5"><circle class="node" r="0" node_type="middle"></circle><text text-anchor="middle" font-size="8" font-weight="bold" y="2.5" class="node-label"></text></g><g class="noselect gnode" transform="translate(87.09,245.29)" r="6.5"><circle class="node" r="0" node_type="middle"></circle><text text-anchor="middle" font-size="8" font-weight="bold" y="2.5" class="node-label"></text></g><g class="noselect gnode" transform="translate(73.76,253.72)" r="6.5"><circle class="node" r="0" node_type="middle"></circle><text text-anchor="middle" font-size="8" font-weight="bold" y="2.5" class="node-label"></text></g><g class="noselect gnode" transform="translate(67.84,231.04)" r="6.5"><circle class="node" r="0" node_type="middle"></circle><text text-anchor="middle" font-size="8" font-weight="bold" y="2.5" class="node-label"></text></g><g class="noselect gnode" transform="translate(241.71,-14.39)" r="6.5"><circle class="node" r="0" node_type="middle"></circle><text text-anchor="middle" font-size="8" font-weight="bold" y="2.5" class="node-label"></text></g><g class="noselect gnode" transform="translate(8.81,291.50)" r="6.5"><circle class="node" r="0" node_type="middle"></circle><text text-anchor="middle" font-size="8" font-weight="bold" y="2.5" class="node-label"></text></g><g class="noselect gnode" transform="translate(182.11,100.71)" r="6.5"><circle class="node" r="0" node_type="middle"></circle><text text-anchor="middle" font-size="8" font-weight="bold" y="2.5" class="node-label"></text></g><g class="noselect gnode" transform="translate(228.13,66.02)" r="6.5"><circle class="node" r="0" node_type="middle"></circle><text text-anchor="middle" font-size="8" font-weight="bold" y="2.5" class="node-label"></text></g></g><line class="drag_line" x1="0" y1="0" x2="0" y2="0"></line></g></g></svg>