<svg xmlns="http://www.w3.org/2000/svg" viewBox="0 0 760 640" width="760" height="640"><style>svg {
  display: block;
  min-width: 100%;
  width: 100%;
  min-height: 100%;
}

circle.node {
  stroke: #ccc;
  stroke-width: 1px;
  opacity: 1;
  fill: white;
}

circle.node.label {
    stroke: transparent;
    stroke-width: 0;
    fill: white;
}

circle.outline_node {
    stroke-width: 1px;
    fill: red;
}

circle.protein {
    fill: gray;
    fill-opacity: 0.5;
    stroke-width: 4;
}

circle.hidden_outline {
    stroke-width: 0px;
}


line.link {
  stroke: #999;
  stroke-opacity: 0.8;
  stroke-width: 2;
}

line.basepair {
  stroke: red;
}

line.intermolecule {
  stroke: blue;
}

line.chain_chain {
  stroke-dasharray: 3,3;
}

line.fake {
  stroke: green;
}

.transparent {
    fill: transparent;
    stroke-width: 0;
    stroke-opacity: 0;
    opacity: 0;
    visibility: hidden;
}

.drag_line {
  stroke: #999;
  stroke-width: 2;
  pointer-events: none;
}

.drag_line_hidden {
  stroke: #999;
  stroke-width: 0;
  pointer-events: none;
}

.d3-tip {
    line-height: 1;
    font-weight: bold;
    padding: 6px;
    background: rgba(0, 0, 0, 0.6);
    color: #fff;
    border-radius: 4px;
    pointer-events: none;
          }

text.node-label {
    font-weight: bold;
    font-family: Tahoma, Geneva, sans-serif;
    color: rgb(100,100,100);
    pointer-events: none;
}

text {
    pointer-events: none;
}

g.gnode {

}

circle.outline_node.selected {
    visibility: visible;
}

circle.outline_node {
    visibility: hidden;
}

.brush .extent {
  fill-opacity: .1;
  stroke: #fff;
  shape-rendering: crispEdges;
}

.noselect {
    -webkit-touch-callout: none;
    -webkit-user-select: none;
    -khtml-user-select: none;
    -moz-user-select: none;
    -ms-user-select: none;
    user-select: none;
}

svg {
  display: block;
  min-width: 100%;
  width: 100%;
  min-height: 100%;
}

circle.node {
  stroke: #ccc;
  stroke-width: 1px;
  opacity: 1;
  fill: white;
}

circle.node.label {
    stroke: transparent;
    stroke-width: 0;
    fill: white;
}

circle.outline_node {
    stroke-width: 1px;
    fill: red;
}

circle.protein {
    fill: gray;
    fill-opacity: 0.5;
    stroke-width: 4;
}

circle.hidden_outline {
    stroke-width: 0px;
}


line.link {
  stroke: #999;
  stroke-opacity: 0.8;
  stroke-width: 2;
}

line.basepair {
  stroke: red;
}

line.intermolecule {
  stroke: blue;
}

line.chain_chain {
  stroke-dasharray: 3,3;
}

line.fake {
  stroke: green;
}

.transparent {
    fill: transparent;
    stroke-width: 0;
    stroke-opacity: 0;
    opacity: 0;
    visibility: hidden;
}

.drag_line {
  stroke: #999;
  stroke-width: 2;
  pointer-events: none;
}

.drag_line_hidden {
  stroke: #999;
  stroke-width: 0;
  pointer-events: none;
}

.d3-tip {
    line-height: 1;
    font-weight: bold;
    padding: 6px;
    background: rgba(0, 0, 0, 0.6);
    color: #fff;
    border-radius: 4px;
    pointer-events: none;
          }

text.node-label {
    font-weight: bold;
    font-family: Tahoma, Geneva, sans-serif;
    color: rgb(100,100,100);
    pointer-events: none;
}

text {
    pointer-events: none;
}

g.gnode {

}

circle.outline_node.selected {
    visibility: visible;
}

circle.outline_node {
    visibility: hidden;
}

.brush .extent {
  fill-opacity: .1;
  stroke: #fff;
  shape-rendering: crispEdges;
}

.noselect {
    -webkit-touch-callout: none;
    -webkit-user-select: none;
    -khtml-user-select: none;
    -moz-user-select: none;
    -ms-user-select: none;
    user-select: none;
}
/*# sourceURL=/Users/yumanakamura/ipy_sandbox/sandbox/claude_sandbox/mrna-transformer/scripts/eval/prerender/forna_vendor/fornac.css*/</style><style></style><g><g class="brush" style="pointer-events: all; -webkit-tap-highlight-color: rgba(0, 0, 0, 0);"><rect class="background" x="0" width="760" y="0" height="640" style="visibility: hidden; cursor: auto;"></rect><rect class="extent" x="0" width="0" y="0" height="0" style="cursor: move;"></rect><g class="resize n" transform="translate(0,0)" style="cursor: ns-resize; display: none;"><rect y="-3" width="0" height="6" style="visibility: hidden;"></rect></g><g class="resize e" transform="translate(0,0)" style="cursor: ew-resize; display: none;"><rect x="-3" width="6" height="0" style="visibility: hidden;"></rect></g><g class="resize s" transform="translate(0,0)" style="cursor: ns-resize; display: none;"><rect y="-3" width="0" height="6" style="visibility: hidden;"></rect></g><g class="resize w" transform="translate(0,0)" style="cursor: ew-resize; display: none;"><rect x="-3" width="6" height="0" style="visibility: hidden;"></rect></g><g class="resize nw" transform="translate(0,0)" style="cursor: nwse-resize; display: none;"><rect x="-3" y="-3" width="6" height="6" style="visibility: hidden;"></rect></g><g class="resize ne" transform="translate(0,0)" style="cursor: nesw-resize; display: none;"><rect x="-3" y="-3" width="6" height="6" style="visibility: hidden;"></rect></g><g class="resize se" transform="translate(0,0)" style="cursor: nwse-resize; display: none;"><rect x="-3" y="-3" width="6" height="6" style="visibility: hidden;"></rect></g><g class="resize sw" transform="translate(0,0)" style="cursor: nesw-resize; display: none;"><rect x="-3" y="-3" width="6" height="6" style="visibility: hidden;"></rect></g></g><g transform="translate(240.53,232.79) scale(1.65)"><g><line class="link backbone" x1="55.25" y1="209.24" x2="44.35" y2="199.00"></line><line class="link backbone" x1="44.35" y1="199.00" x2="37.47" y2="185.75"></line><line class="link backbone" x1="37.47" y1="185.75" x2="36.58" y2="170.80"></line><line class="link backbone" x1="36.58" y1="170.80" x2="42.52" y2="156.95"></line><line class="link backbone" x1="42.52" y1="156.95" x2="53.73" y2="146.76"></line><line class="link backbone" x1="53.73" y1="146.76" x2="68.28" y2="142.04"></line><line class="link basepair" x1="83.61" y1="144.08" x2="97.37" y2="149.24"></line><line class="link backbone" x1="68.28" y1="142.04" x2="83.61" y2="144.08"></line><line class="link basepair" x1="85.83" y1="130.37" x2="99.93" y2="130.36"></line><line class="link backbone" x1="83.61" y1="144.08" x2="85.83" y2="130.37"></line><line class="link basepair" x1="83.67" y1="115.98" x2="97.77" y2="112.23"></line><line class="link backbone" x1="85.83" y1="130.37" x2="83.67" y2="115.98"></line><line class="link backbone" x1="83.67" y1="115.98" x2="72.32" y2="106.17"></line><line class="link basepair" x1="75.30" y1="91.91" x2="88.80" y2="86.15"></line><line class="link backbone" x1="72.32" y1="106.17" x2="75.30" y2="91.91"></line><line class="link basepair" x1="68.15" y1="79.58" x2="80.19" y2="70.97"></line><line class="link backbone" x1="75.30" y1="91.91" x2="68.15" y2="79.58"></line><line class="link backbone" x1="68.15" y1="79.58" x2="55.24" y2="71.43"></line><line class="link basepair" x1="59.23" y1="56.70" x2="73.98" y2="55.13"></line><line class="link backbone" x1="55.24" y1="71.43" x2="59.23" y2="56.70"></line><line class="link basepair" x1="56.71" y1="41.77" x2="70.92" y2="38.66"></line><line class="link backbone" x1="59.23" y1="56.70" x2="56.71" y2="41.77"></line><line class="link basepair" x1="52.83" y1="26.65" x2="66.90" y2="22.73"></line><line class="link backbone" x1="56.71" y1="41.77" x2="52.83" y2="26.65"></line><line class="link basepair" x1="48.31" y1="11.55" x2="62.21" y2="7.13"></line><line class="link backbone" x1="52.83" y1="26.65" x2="48.31" y2="11.55"></line><line class="link basepair" x1="43.30" y1="-3.49" x2="57.04" y2="-8.28"></line><line class="link backbone" x1="48.31" y1="11.55" x2="43.30" y2="-3.49"></line><line class="link basepair" x1="37.87" y1="-18.48" x2="51.49" y2="-23.59"></line><line class="link backbone" x1="43.30" y1="-3.49" x2="37.87" y2="-18.48"></line><line class="link basepair" x1="32.12" y1="-33.44" x2="45.63" y2="-38.73"></line><line class="link backbone" x1="37.87" y1="-18.48" x2="32.12" y2="-33.44"></line><line class="link basepair" x1="26.17" y1="-48.38" x2="39.66" y2="-53.77"></line><line class="link backbone" x1="32.12" y1="-33.44" x2="26.17" y2="-48.38"></line><line class="link basepair" x1="20.04" y1="-63.03" x2="33.90" y2="-68.62"></line><line class="link backbone" x1="26.17" y1="-48.38" x2="20.04" y2="-63.03"></line><line class="link backbone" x1="20.04" y1="-63.03" x2="5.23" y2="-67.09"></line><line class="link backbone" x1="5.23" y1="-67.09" x2="-4.41" y2="-78.57"></line><line class="link backbone" x1="-4.41" y1="-78.57" x2="-5.50" y2="-93.56"></line><line class="link backbone" x1="-5.50" y1="-93.56" x2="2.69" y2="-106.11"></line><line class="link backbone" x1="2.69" y1="-106.11" x2="16.51" y2="-111.69"></line><line class="link backbone" x1="16.51" y1="-111.69" x2="31.12" y2="-108.32"></line><line class="link backbone" x1="31.12" y1="-108.32" x2="40.77" y2="-96.76"></line><line class="link backbone" x1="40.77" y1="-96.76" x2="41.76" y2="-81.78"></line><line class="link basepair" x1="33.90" y1="-68.62" x2="20.04" y2="-63.03"></line><line class="link backbone" x1="41.76" y1="-81.78" x2="33.90" y2="-68.62"></line><line class="link basepair" x1="39.66" y1="-53.77" x2="26.17" y2="-48.38"></line><line class="link backbone" x1="33.90" y1="-68.62" x2="39.66" y2="-53.77"></line><line class="link basepair" x1="45.63" y1="-38.73" x2="32.12" y2="-33.44"></line><line class="link backbone" x1="39.66" y1="-53.77" x2="45.63" y2="-38.73"></line><line class="link basepair" x1="51.49" y1="-23.59" x2="37.87" y2="-18.48"></line><line class="link backbone" x1="45.63" y1="-38.73" x2="51.49" y2="-23.59"></line><line class="link basepair" x1="57.04" y1="-8.28" x2="43.30" y2="-3.49"></line><line class="link backbone" x1="51.49" y1="-23.59" x2="57.04" y2="-8.28"></line><line class="link basepair" x1="62.21" y1="7.13" x2="48.31" y2="11.55"></line><line class="link backbone" x1="57.04" y1="-8.28" x2="62.21" y2="7.13"></line><line class="link basepair" x1="66.90" y1="22.73" x2="52.83" y2="26.65"></line><line class="link backbone" x1="62.21" y1="7.13" x2="66.90" y2="22.73"></line><line class="link basepair" x1="70.92" y1="38.66" x2="56.71" y2="41.77"></line><line class="link backbone" x1="66.90" y1="22.73" x2="70.92" y2="38.66"></line><line class="link basepair" x1="73.98" y1="55.13" x2="59.23" y2="56.70"></line><line class="link backbone" x1="70.92" y1="38.66" x2="73.98" y2="55.13"></line><line class="link basepair" x1="80.19" y1="70.97" x2="68.15" y2="79.58"></line><line class="link backbone" x1="73.98" y1="55.13" x2="80.19" y2="70.97"></line><line class="link basepair" x1="88.80" y1="86.15" x2="75.30" y2="91.91"></line><line class="link backbone" x1="80.19" y1="70.97" x2="88.80" y2="86.15"></line><line class="link backbone" x1="88.80" y1="86.15" x2="100.85" y2="96.50"></line><line class="link basepair" x1="97.77" y1="112.23" x2="83.67" y2="115.98"></line><line class="link backbone" x1="100.85" y1="96.50" x2="97.77" y2="112.23"></line><line class="link basepair" x1="99.93" y1="130.36" x2="85.83" y2="130.37"></line><line class="link backbone" x1="97.77" y1="112.23" x2="99.93" y2="130.36"></line><line class="link basepair" x1="97.37" y1="149.24" x2="83.61" y2="144.08"></line><line class="link backbone" x1="99.93" y1="130.36" x2="97.37" y2="149.24"></line><line class="link basepair" x1="107.40" y1="163.38" x2="108.31" y2="178.06"></line><line class="link backbone" x1="97.37" y1="149.24" x2="107.40" y2="163.38"></line><line class="link basepair" x1="125.74" y1="165.86" x2="122.52" y2="179.71"></line><line class="link backbone" x1="107.40" y1="163.38" x2="125.74" y2="165.86"></line><line class="link basepair" x1="142.33" y1="171.14" x2="137.18" y2="184.59"></line><line class="link backbone" x1="125.74" y1="165.86" x2="142.33" y2="171.14"></line><line class="link basepair" x1="157.57" y1="177.41" x2="151.43" y2="190.92"></line><line class="link backbone" x1="142.33" y1="171.14" x2="157.57" y2="177.41"></line><line class="link backbone" x1="157.57" y1="177.41" x2="173.10" y2="176.30"></line><line class="link backbone" x1="173.10" y1="176.30" x2="181.50" y2="188.54"></line><line class="link backbone" x1="181.50" y1="188.54" x2="175.14" y2="202.07"></line><line class="link backbone" x1="175.14" y1="202.07" x2="160.28" y2="203.51"></line><line class="link basepair" x1="151.43" y1="190.92" x2="157.57" y2="177.41"></line><line class="link backbone" x1="160.28" y1="203.51" x2="151.43" y2="190.92"></line><line class="link basepair" x1="137.18" y1="184.59" x2="142.33" y2="171.14"></line><line class="link backbone" x1="151.43" y1="190.92" x2="137.18" y2="184.59"></line><line class="link basepair" x1="122.52" y1="179.71" x2="125.74" y2="165.86"></line><line class="link backbone" x1="137.18" y1="184.59" x2="122.52" y2="179.71"></line><line class="link basepair" x1="108.31" y1="178.06" x2="107.40" y2="163.38"></line><line class="link backbone" x1="122.52" y1="179.71" x2="108.31" y2="178.06"></line><line class="link backbone" x1="108.31" y1="178.06" x2="105.11" y2="193.07"></line><line class="link backbone" x1="105.11" y1="193.07" x2="96.02" y2="205.20"></line><line class="link label_link" x1="83.67" y1="115.98" x2="68.17" y2="117.40"></line><line class="link label_link" x1="37.87" y1="-18.48" x2="23.29" y2="-12.93"></line><line class="link label_link" x1="40.77" y1="-96.76" x2="54.34" y2="-104.08"></line><line class="link label_link" x1="73.98" y1="55.13" x2="89.04" y2="51.28"></line><line class="link label_link" x1="157.57" y1="177.41" x2="167.70" y2="165.60"></line><line class="link label_link" x1="96.02" y1="205.20" x2="96.69" y2="220.68"></line><line class="link fake transparent" x1="59.23" y1="56.70" x2="65.56" y2="48.04"></line><line class="link fake transparent" x1="59.23" y1="56.70" x2="70.92" y2="38.66"></line><line class="link fake transparent" x1="56.71" y1="41.77" x2="65.56" y2="48.04"></line><line class="link fake transparent" x1="70.92" y1="38.66" x2="65.56" y2="48.04"></line><line class="link fake transparent" x1="73.98" y1="55.13" x2="65.56" y2="48.04"></line><line class="link fake transparent" x1="56.71" y1="41.77" x2="62.00" y2="32.35"></line><line class="link fake transparent" x1="52.83" y1="26.65" x2="62.00" y2="32.35"></line><line class="link fake transparent" x1="66.90" y1="22.73" x2="62.00" y2="32.35"></line><line class="link fake transparent" x1="70.92" y1="38.66" x2="62.00" y2="32.35"></line><line class="link fake transparent" x1="52.83" y1="26.65" x2="57.69" y2="16.94"></line><line class="link fake transparent" x1="48.31" y1="11.55" x2="57.69" y2="16.94"></line><line class="link fake transparent" x1="62.21" y1="7.13" x2="57.69" y2="16.94"></line><line class="link fake transparent" x1="66.90" y1="22.73" x2="57.69" y2="16.94"></line><line class="link fake transparent" x1="48.31" y1="11.55" x2="52.82" y2="1.69"></line><line class="link fake transparent" x1="43.30" y1="-3.49" x2="52.82" y2="1.69"></line><line class="link fake transparent" x1="57.04" y1="-8.28" x2="52.82" y2="1.69"></line><line class="link fake transparent" x1="62.21" y1="7.13" x2="52.82" y2="1.69"></line><line class="link fake transparent" x1="43.30" y1="-3.49" x2="47.53" y2="-13.48"></line><line class="link fake transparent" x1="37.87" y1="-18.48" x2="47.53" y2="-13.48"></line><line class="link fake transparent" x1="51.49" y1="-23.59" x2="47.53" y2="-13.48"></line><line class="link fake transparent" x1="57.04" y1="-8.28" x2="47.53" y2="-13.48"></line><line class="link fake transparent" x1="37.87" y1="-18.48" x2="41.85" y2="-28.57"></line><line class="link fake transparent" x1="32.12" y1="-33.44" x2="41.85" y2="-28.57"></line><line class="link fake transparent" x1="45.63" y1="-38.73" x2="41.85" y2="-28.57"></line><line class="link fake transparent" x1="51.49" y1="-23.59" x2="41.85" y2="-28.57"></line><line class="link fake transparent" x1="32.12" y1="-33.44" x2="35.92" y2="-43.61"></line><line class="link fake transparent" x1="26.17" y1="-48.38" x2="35.92" y2="-43.61"></line><line class="link fake transparent" x1="39.66" y1="-53.77" x2="35.92" y2="-43.61"></line><line class="link fake transparent" x1="45.63" y1="-38.73" x2="35.92" y2="-43.61"></line><line class="link fake transparent" x1="26.17" y1="-48.38" x2="29.92" y2="-58.54"></line><line class="link fake transparent" x1="20.04" y1="-63.03" x2="29.92" y2="-58.54"></line><line class="link fake transparent" x1="33.90" y1="-68.62" x2="29.92" y2="-58.54"></line><line class="link fake transparent" x1="39.66" y1="-53.77" x2="29.92" y2="-58.54"></line><line class="link fake transparent" x1="83.61" y1="144.08" x2="92.84" y2="138.65"></line><line class="link fake transparent" x1="85.83" y1="130.37" x2="92.84" y2="138.65"></line><line class="link fake transparent" x1="99.93" y1="130.36" x2="92.84" y2="138.65"></line><line class="link fake transparent" x1="97.37" y1="149.24" x2="92.84" y2="138.65"></line><line class="link fake transparent" x1="85.83" y1="130.37" x2="92.73" y2="122.04"></line><line class="link fake transparent" x1="83.67" y1="115.98" x2="92.73" y2="122.04"></line><line class="link fake transparent" x1="97.77" y1="112.23" x2="92.73" y2="122.04"></line><line class="link fake transparent" x1="99.93" y1="130.36" x2="92.73" y2="122.04"></line><line class="link fake transparent" x1="107.40" y1="163.38" x2="116.07" y2="170.87"></line><line class="link fake transparent" x1="125.74" y1="165.86" x2="116.07" y2="170.87"></line><line class="link fake transparent" x1="122.52" y1="179.71" x2="116.07" y2="170.87"></line><line class="link fake transparent" x1="108.31" y1="178.06" x2="116.07" y2="170.87"></line><line class="link fake transparent" x1="125.74" y1="165.86" x2="132.14" y2="174.86"></line><line class="link fake transparent" x1="142.33" y1="171.14" x2="132.14" y2="174.86"></line><line class="link fake transparent" x1="137.18" y1="184.59" x2="132.14" y2="174.86"></line><line class="link fake transparent" x1="122.52" y1="179.71" x2="132.14" y2="174.86"></line><line class="link fake transparent" x1="142.33" y1="171.14" x2="147.28" y2="180.82"></line><line class="link fake transparent" x1="157.57" y1="177.41" x2="147.28" y2="180.82"></line><line class="link fake transparent" x1="151.43" y1="190.92" x2="147.28" y2="180.82"></line><line class="link fake transparent" x1="137.18" y1="184.59" x2="147.28" y2="180.82"></line><line class="link fake transparent" x1="75.30" y1="91.91" x2="78.77" y2="81.69"></line><line class="link fake transparent" x1="68.15" y1="79.58" x2="78.77" y2="81.69"></line><line class="link fake transparent" x1="80.19" y1="70.97" x2="78.77" y2="81.69"></line><line class="link fake transparent" x1="88.80" y1="86.15" x2="78.77" y2="81.69"></line><line class="link fake transparent" x1="55.25" y1="209.24" x2="72.89" y2="177.28"></line><line class="link fake transparent" x1="55.25" y1="209.24" x2="83.61" y2="144.08"></line><line class="link fake transparent" x1="44.35" y1="199.00" x2="72.89" y2="177.28"></line><line class="link fake transparent" x1="44.35" y1="199.00" x2="97.37" y2="149.24"></line><line class="link fake transparent" x1="37.47" y1="185.75" x2="72.89" y2="177.28"></line><line class="link fake transparent" x1="37.47" y1="185.75" x2="107.40" y2="163.38"></line><line class="link fake transparent" x1="36.58" y1="170.80" x2="72.89" y2="177.28"></line><line class="link fake transparent" x1="36.58" y1="170.80" x2="108.31" y2="178.06"></line><line class="link fake transparent" x1="42.52" y1="156.95" x2="72.89" y2="177.28"></line><line class="link fake transparent" x1="42.52" y1="156.95" x2="105.11" y2="193.07"></line><line class="link fake transparent" x1="53.73" y1="146.76" x2="72.89" y2="177.28"></line><line class="link fake transparent" x1="53.73" y1="146.76" x2="96.02" y2="205.20"></line><line class="link fake transparent" x1="68.28" y1="142.04" x2="72.89" y2="177.28"></line><line class="link fake transparent" x1="68.28" y1="142.04" x2="82.98" y2="212.92"></line><line class="link fake transparent" x1="83.61" y1="144.08" x2="72.89" y2="177.28"></line><line class="link fake transparent" x1="83.61" y1="144.08" x2="68.04" y2="214.79"></line><line class="link fake transparent" x1="97.37" y1="149.24" x2="72.89" y2="177.28"></line><line class="link fake transparent" x1="97.37" y1="149.24" x2="55.25" y2="209.24"></line><line class="link fake transparent" x1="107.40" y1="163.38" x2="72.89" y2="177.28"></line><line class="link fake transparent" x1="107.40" y1="163.38" x2="44.35" y2="199.00"></line><line class="link fake transparent" x1="108.31" y1="178.06" x2="72.89" y2="177.28"></line><line class="link fake transparent" x1="108.31" y1="178.06" x2="37.47" y2="185.75"></line><line class="link fake transparent" x1="105.11" y1="193.07" x2="72.89" y2="177.28"></line><line class="link fake transparent" x1="105.11" y1="193.07" x2="36.58" y2="170.80"></line><line class="link fake transparent" x1="96.02" y1="205.20" x2="72.89" y2="177.28"></line><line class="link fake transparent" x1="96.02" y1="205.20" x2="42.52" y2="156.95"></line><line class="link fake transparent" x1="20.04" y1="-63.03" x2="18.26" y2="-87.44"></line><line class="link fake transparent" x1="20.04" y1="-63.03" x2="16.51" y2="-111.69"></line><line class="link fake transparent" x1="5.23" y1="-67.09" x2="18.26" y2="-87.44"></line><line class="link fake transparent" x1="5.23" y1="-67.09" x2="31.12" y2="-108.32"></line><line class="link fake transparent" x1="-4.41" y1="-78.57" x2="18.26" y2="-87.44"></line><line class="link fake transparent" x1="-4.41" y1="-78.57" x2="40.77" y2="-96.76"></line><line class="link fake transparent" x1="-5.50" y1="-93.56" x2="18.26" y2="-87.44"></line><line class="link fake transparent" x1="-5.50" y1="-93.56" x2="41.76" y2="-81.78"></line><line class="link fake transparent" x1="2.69" y1="-106.11" x2="18.26" y2="-87.44"></line><line class="link fake transparent" x1="2.69" y1="-106.11" x2="33.90" y2="-68.62"></line><line class="link fake transparent" x1="16.51" y1="-111.69" x2="18.26" y2="-87.44"></line><line class="link fake transparent" x1="16.51" y1="-111.69" x2="20.04" y2="-63.03"></line><line class="link fake transparent" x1="31.12" y1="-108.32" x2="18.26" y2="-87.44"></line><line class="link fake transparent" x1="31.12" y1="-108.32" x2="5.23" y2="-67.09"></line><line class="link fake transparent" x1="40.77" y1="-96.76" x2="18.26" y2="-87.44"></line><line class="link fake transparent" x1="40.77" y1="-96.76" x2="-4.41" y2="-78.57"></line><line class="link fake transparent" x1="41.76" y1="-81.78" x2="18.26" y2="-87.44"></line><line class="link fake transparent" x1="41.76" y1="-81.78" x2="-5.50" y2="-93.56"></line><line class="link fake transparent" x1="33.90" y1="-68.62" x2="18.26" y2="-87.44"></line><line class="link fake transparent" x1="33.90" y1="-68.62" x2="2.69" y2="-106.11"></line><line class="link fake transparent" x1="157.57" y1="177.41" x2="166.41" y2="189.73"></line><line class="link fake transparent" x1="157.57" y1="177.41" x2="175.14" y2="202.07"></line><line class="link fake transparent" x1="173.10" y1="176.30" x2="166.41" y2="189.73"></line><line class="link fake transparent" x1="173.10" y1="176.30" x2="160.28" y2="203.51"></line><line class="link fake transparent" x1="181.50" y1="188.54" x2="166.41" y2="189.73"></line><line class="link fake transparent" x1="181.50" y1="188.54" x2="151.43" y2="190.92"></line><line class="link fake transparent" x1="175.14" y1="202.07" x2="166.41" y2="189.73"></line><line class="link fake transparent" x1="175.14" y1="202.07" x2="157.57" y2="177.41"></line><line class="link fake transparent" x1="160.28" y1="203.51" x2="166.41" y2="189.73"></line><line class="link fake transparent" x1="160.28" y1="203.51" x2="173.10" y2="176.30"></line><line class="link fake transparent" x1="151.43" y1="190.92" x2="166.41" y2="189.73"></line><line class="link fake transparent" x1="151.43" y1="190.92" x2="181.50" y2="188.54"></line><line class="link fake transparent" x1="83.67" y1="115.98" x2="86.93" y2="101.34"></line><line class="link fake transparent" x1="83.67" y1="115.98" x2="88.80" y2="86.15"></line><line class="link fake transparent" x1="72.32" y1="106.17" x2="86.93" y2="101.34"></line><line class="link fake transparent" x1="72.32" y1="106.17" x2="100.85" y2="96.50"></line><line class="link fake transparent" x1="75.30" y1="91.91" x2="86.93" y2="101.34"></line><line class="link fake transparent" x1="75.30" y1="91.91" x2="97.77" y2="112.23"></line><line class="link fake transparent" x1="88.80" y1="86.15" x2="86.93" y2="101.34"></line><line class="link fake transparent" x1="88.80" y1="86.15" x2="83.67" y2="115.98"></line><line class="link fake transparent" x1="100.85" y1="96.50" x2="86.93" y2="101.34"></line><line class="link fake transparent" x1="100.85" y1="96.50" x2="72.32" y2="106.17"></line><line class="link fake transparent" x1="97.77" y1="112.23" x2="86.93" y2="101.34"></line><line class="link fake transparent" x1="97.77" y1="112.23" x2="75.30" y2="91.91"></line><line class="link fake transparent" x1="68.15" y1="79.58" x2="67.77" y2="66.61"></line><line class="link fake transparent" x1="68.15" y1="79.58" x2="59.23" y2="56.70"></line><line class="link fake transparent" x1="55.24" y1="71.43" x2="67.77" y2="66.61"></line><line class="link fake transparent" x1="55.24" y1="71.43" x2="73.98" y2="55.13"></line><line class="link fake transparent" x1="59.23" y1="56.70" x2="67.77" y2="66.61"></line><line class="link fake transparent" x1="59.23" y1="56.70" x2="80.19" y2="70.97"></line><line class="link fake transparent" x1="73.98" y1="55.13" x2="67.77" y2="66.61"></line><line class="link fake transparent" x1="73.98" y1="55.13" x2="68.15" y2="79.58"></line><line class="link fake transparent" x1="80.19" y1="70.97" x2="67.77" y2="66.61"></line><line class="link fake transparent" x1="80.19" y1="70.97" x2="55.24" y2="71.43"></line></g><g><g class="noselect gnode" struct_name="m" transform="translate(55.25,209.24)" r="6.5"><circle class="node" r="6" node_type="nucleotide" style="fill: lightsalmon;"></circle><text text-anchor="middle" font-size="8" font-weight="bold" y="2.5" class="node-label">C</text></g><g class="noselect gnode" struct_name="m" transform="translate(44.35,199.00)" r="6.5"><circle class="node" r="6" node_type="nucleotide" style="fill: lightsalmon;"></circle><text text-anchor="middle" font-size="8" font-weight="bold" y="2.5" class="node-label">U</text></g><g class="noselect gnode" struct_name="m" transform="translate(37.47,185.75)" r="6.5"><circle class="node" r="6" node_type="nucleotide" style="fill: lightsalmon;"></circle><text text-anchor="middle" font-size="8" font-weight="bold" y="2.5" class="node-label">U</text></g><g class="noselect gnode" struct_name="m" transform="translate(36.58,170.80)" r="6.5"><circle class="node" r="6" node_type="nucleotide" style="fill: lightsalmon;"></circle><text text-anchor="middle" font-size="8" font-weight="bold" y="2.5" class="node-label">A</text></g><g class="noselect gnode" struct_name="m" transform="translate(42.52,156.95)" r="6.5"><circle class="node" r="6" node_type="nucleotide" style="fill: lightsalmon;"></circle><text text-anchor="middle" font-size="8" font-weight="bold" y="2.5" class="node-label">A</text></g><g class="noselect gnode" struct_name="m" transform="translate(53.73,146.76)" r="6.5"><circle class="node" r="6" node_type="nucleotide" style="fill: lightsalmon;"></circle><text text-anchor="middle" font-size="8" font-weight="bold" y="2.5" class="node-label">A</text></g><g class="noselect gnode" struct_name="m" transform="translate(68.28,142.04)" r="6.5"><circle class="node" r="6" node_type="nucleotide" style="fill: lightsalmon;"></circle><text text-anchor="middle" font-size="8" font-weight="bold" y="2.5" class="node-label">U</text></g><g class="noselect gnode" struct_name="m" transform="translate(83.61,144.08)" r="6.5"><circle class="node" r="6" node_type="nucleotide" style="fill: lightgreen;"></circle><text text-anchor="middle" font-size="8" font-weight="bold" y="2.5" class="node-label">U</text></g><g class="noselect gnode" struct_name="m" transform="translate(85.83,130.37)" r="6.5"><circle class="node" r="6" node_type="nucleotide" style="fill: lightgreen;"></circle><text text-anchor="middle" font-size="8" font-weight="bold" y="2.5" class="node-label">C</text></g><g class="noselect gnode" struct_name="m" transform="translate(83.67,115.98)" r="6.5"><circle class="node" r="6" node_type="nucleotide" style="fill: lightgreen;"></circle><text text-anchor="middle" font-size="8" font-weight="bold" y="2.5" class="node-label">G</text></g><g class="noselect gnode" struct_name="m" transform="translate(72.32,106.17)" r="6.5"><circle class="node" r="6" node_type="nucleotide" style="fill: rgb(219, 219, 141);"></circle><text text-anchor="middle" font-size="8" font-weight="bold" y="2.5" class="node-label">A</text></g><g class="noselect gnode" struct_name="m" transform="translate(75.30,91.91)" r="6.5"><circle class="node" r="6" node_type="nucleotide" style="fill: lightgreen;"></circle><text text-anchor="middle" font-size="8" font-weight="bold" y="2.5" class="node-label">G</text></g><g class="noselect gnode" struct_name="m" transform="translate(68.15,79.58)" r="6.5"><circle class="node" r="6" node_type="nucleotide" style="fill: lightgreen;"></circle><text text-anchor="middle" font-size="8" font-weight="bold" y="2.5" class="node-label">G</text></g><g class="noselect gnode" struct_name="m" transform="translate(55.24,71.43)" r="6.5"><circle class="node" r="6" node_type="nucleotide" style="fill: rgb(219, 219, 141);"></circle><text text-anchor="middle" font-size="8" font-weight="bold" y="2.5" class="node-label">A</text></g><g class="noselect gnode" struct_name="m" transform="translate(59.23,56.70)" r="6.5"><circle class="node" r="6" node_type="nucleotide" style="fill: lightgreen;"></circle><text text-anchor="middle" font-size="8" font-weight="bold" y="2.5" class="node-label">G</text></g><g class="noselect gnode" struct_name="m" transform="translate(56.71,41.77)" r="6.5"><circle class="node" r="6" node_type="nucleotide" style="fill: lightgreen;"></circle><text text-anchor="middle" font-size="8" font-weight="bold" y="2.5" class="node-label">U</text></g><g class="noselect gnode" struct_name="m" transform="translate(52.83,26.65)" r="6.5"><circle class="node" r="6" node_type="nucleotide" style="fill: lightgreen;"></circle><text text-anchor="middle" font-size="8" font-weight="bold" y="2.5" class="node-label">G</text></g><g class="noselect gnode" struct_name="m" transform="translate(48.31,11.55)" r="6.5"><circle class="node" r="6" node_type="nucleotide" style="fill: lightgreen;"></circle><text text-anchor="middle" font-size="8" font-weight="bold" y="2.5" class="node-label">G</text></g><g class="noselect gnode" struct_name="m" transform="translate(43.30,-3.49)" r="6.5"><circle class="node" r="6" node_type="nucleotide" style="fill: lightgreen;"></circle><text text-anchor="middle" font-size="8" font-weight="bold" y="2.5" class="node-label">U</text></g><g class="noselect gnode" struct_name="m" transform="translate(37.87,-18.48)" r="6.5"><circle class="node" r="6" node_type="nucleotide" style="fill: lightgreen;"></circle><text text-anchor="middle" font-size="8" font-weight="bold" y="2.5" class="node-label">C</text></g><g class="noselect gnode" struct_name="m" transform="translate(32.12,-33.44)" r="6.5"><circle class="node" r="6" node_type="nucleotide" style="fill: lightgreen;"></circle><text text-anchor="middle" font-size="8" font-weight="bold" y="2.5" class="node-label">G</text></g><g class="noselect gnode" struct_name="m" transform="translate(26.17,-48.38)" r="6.5"><circle class="node" r="6" node_type="nucleotide" style="fill: lightgreen;"></circle><text text-anchor="middle" font-size="8" font-weight="bold" y="2.5" class="node-label">C</text></g><g class="noselect gnode" struct_name="m" transform="translate(20.04,-63.03)" r="6.5"><circle class="node" r="6" node_type="nucleotide" style="fill: lightgreen;"></circle><text text-anchor="middle" font-size="8" font-weight="bold" y="2.5" class="node-label">A</text></g><g class="noselect gnode" struct_name="m" transform="translate(5.23,-67.09)" r="6.5"><circle class="node" r="6" node_type="nucleotide" style="fill: lightblue;"></circle><text text-anchor="middle" font-size="8" font-weight="bold" y="2.5" class="node-label">U</text></g><g class="noselect gnode" struct_name="m" transform="translate(-4.41,-78.57)" r="6.5"><circle class="node" r="6" node_type="nucleotide" style="fill: lightblue;"></circle><text text-anchor="middle" font-size="8" font-weight="bold" y="2.5" class="node-label">G</text></g><g class="noselect gnode" struct_name="m" transform="translate(-5.50,-93.56)" r="6.5"><circle class="node" r="6" node_type="nucleotide" style="fill: lightblue;"></circle><text text-anchor="middle" font-size="8" font-weight="bold" y="2.5" class="node-label">A</text></g><g class="noselect gnode" struct_name="m" transform="translate(2.69,-106.11)" r="6.5"><circle class="node" r="6" node_type="nucleotide" style="fill: lightblue;"></circle><text text-anchor="middle" font-size="8" font-weight="bold" y="2.5" class="node-label">A</text></g><g class="noselect gnode" struct_name="m" transform="translate(16.51,-111.69)" r="6.5"><circle class="node" r="6" node_type="nucleotide" style="fill: lightblue;"></circle><text text-anchor="middle" font-size="8" font-weight="bold" y="2.5" class="node-label">A</text></g><g class="noselect gnode" struct_name="m" transform="translate(31.12,-108.32)" r="6.5"><circle class="node" r="6" node_type="nucleotide" style="fill: lightblue;"></circle><text text-anchor="middle" font-size="8" font-weight="bold" y="2.5" class="node-label">U</text></g><g class="noselect gnode" struct_name="m" transform="translate(40.77,-96.76)" r="6.5"><circle class="node" r="6" node_type="nucleotide" style="fill: lightblue;"></circle><text text-anchor="middle" font-size="8" font-weight="bold" y="2.5" class="node-label">U</text></g><g class="noselect gnode" struct_name="m" transform="translate(41.76,-81.78)" r="6.5"><circle class="node" r="6" node_type="nucleotide" style="fill: lightblue;"></circle><text text-anchor="middle" font-size="8" font-weight="bold" y="2.5" class="node-label">U</text></g><g class="noselect gnode" struct_name="m" transform="translate(33.90,-68.62)" r="6.5"><circle class="node" r="6" node_type="nucleotide" style="fill: lightgreen;"></circle><text text-anchor="middle" font-size="8" font-weight="bold" y="2.5" class="node-label">U</text></g><g class="noselect gnode" struct_name="m" transform="translate(39.66,-53.77)" r="6.5"><circle class="node" r="6" node_type="nucleotide" style="fill: lightgreen;"></circle><text text-anchor="middle" font-size="8" font-weight="bold" y="2.5" class="node-label">G</text></g><g class="noselect gnode" struct_name="m" transform="translate(45.63,-38.73)" r="6.5"><circle class="node" r="6" node_type="nucleotide" style="fill: lightgreen;"></circle><text text-anchor="middle" font-size="8" font-weight="bold" y="2.5" class="node-label">C</text></g><g class="noselect gnode" struct_name="m" transform="translate(51.49,-23.59)" r="6.5"><circle class="node" r="6" node_type="nucleotide" style="fill: lightgreen;"></circle><text text-anchor="middle" font-size="8" font-weight="bold" y="2.5" class="node-label">G</text></g><g class="noselect gnode" struct_name="m" transform="translate(57.04,-8.28)" r="6.5"><circle class="node" r="6" node_type="nucleotide" style="fill: lightgreen;"></circle><text text-anchor="middle" font-size="8" font-weight="bold" y="2.5" class="node-label">A</text></g><g class="noselect gnode" struct_name="m" transform="translate(62.21,7.13)" r="6.5"><circle class="node" r="6" node_type="nucleotide" style="fill: lightgreen;"></circle><text text-anchor="middle" font-size="8" font-weight="bold" y="2.5" class="node-label">C</text></g><g class="noselect gnode" struct_name="m" transform="translate(66.90,22.73)" r="6.5"><circle class="node" r="6" node_type="nucleotide" style="fill: lightgreen;"></circle><text text-anchor="middle" font-size="8" font-weight="bold" y="2.5" class="node-label">C</text></g><g class="noselect gnode" struct_name="m" transform="translate(70.92,38.66)" r="6.5"><circle class="node" r="6" node_type="nucleotide" style="fill: lightgreen;"></circle><text text-anchor="middle" font-size="8" font-weight="bold" y="2.5" class="node-label">A</text></g><g class="noselect gnode" struct_name="m" transform="translate(73.98,55.13)" r="6.5"><circle class="node" r="6" node_type="nucleotide" style="fill: lightgreen;"></circle><text text-anchor="middle" font-size="8" font-weight="bold" y="2.5" class="node-label">C</text></g><g class="noselect gnode" struct_name="m" transform="translate(80.19,70.97)" r="6.5"><circle class="node" r="6" node_type="nucleotide" style="fill: lightgreen;"></circle><text text-anchor="middle" font-size="8" font-weight="bold" y="2.5" class="node-label">C</text></g><g class="noselect gnode" struct_name="m" transform="translate(88.80,86.15)" r="6.5"><circle class="node" r="6" node_type="nucleotide" style="fill: lightgreen;"></circle><text text-anchor="middle" font-size="8" font-weight="bold" y="2.5" class="node-label">C</text></g><g class="noselect gnode" struct_name="m" transform="translate(100.85,96.50)" r="6.5"><circle class="node" r="6" node_type="nucleotide" style="fill: rgb(219, 219, 141);"></circle><text text-anchor="middle" font-size="8" font-weight="bold" y="2.5" class="node-label">C</text></g><g class="noselect gnode" struct_name="m" transform="translate(97.77,112.23)" r="6.5"><circle class="node" r="6" node_type="nucleotide" style="fill: lightgreen;"></circle><text text-anchor="middle" font-size="8" font-weight="bold" y="2.5" class="node-label">C</text></g><g class="noselect gnode" struct_name="m" transform="translate(99.93,130.36)" r="6.5"><circle class="node" r="6" node_type="nucleotide" style="fill: lightgreen;"></circle><text text-anchor="middle" font-size="8" font-weight="bold" y="2.5" class="node-label">G</text></g><g class="noselect gnode" struct_name="m" transform="translate(97.37,149.24)" r="6.5"><circle class="node" r="6" node_type="nucleotide" style="fill: lightgreen;"></circle><text text-anchor="middle" font-size="8" font-weight="bold" y="2.5" class="node-label">A</text></g><g class="noselect gnode" struct_name="m" transform="translate(107.40,163.38)" r="6.5"><circle class="node" r="6" node_type="nucleotide" style="fill: lightgreen;"></circle><text text-anchor="middle" font-size="8" font-weight="bold" y="2.5" class="node-label">C</text></g><g class="noselect gnode" struct_name="m" transform="translate(125.74,165.86)" r="6.5"><circle class="node" r="6" node_type="nucleotide" style="fill: lightgreen;"></circle><text text-anchor="middle" font-size="8" font-weight="bold" y="2.5" class="node-label">C</text></g><g class="noselect gnode" struct_name="m" transform="translate(142.33,171.14)" r="6.5"><circle class="node" r="6" node_type="nucleotide" style="fill: lightgreen;"></circle><text text-anchor="middle" font-size="8" font-weight="bold" y="2.5" class="node-label">G</text></g><g class="noselect gnode" struct_name="m" transform="translate(157.57,177.41)" r="6.5"><circle class="node" r="6" node_type="nucleotide" style="fill: lightgreen;"></circle><text text-anchor="middle" font-size="8" font-weight="bold" y="2.5" class="node-label">C</text></g><g class="noselect gnode" struct_name="m" transform="translate(173.10,176.30)" r="6.5"><circle class="node" r="6" node_type="nucleotide" style="fill: lightblue;"></circle><text text-anchor="middle" font-size="8" font-weight="bold" y="2.5" class="node-label">G</text></g><g class="noselect gnode" struct_name="m" transform="translate(181.50,188.54)" r="6.5"><circle class="node" r="6" node_type="nucleotide" style="fill: lightblue;"></circle><text text-anchor="middle" font-size="8" font-weight="bold" y="2.5" class="node-label">C</text></g><g class="noselect gnode" struct_name="m" transform="translate(175.14,202.07)" r="6.5"><circle class="node" r="6" node_type="nucleotide" style="fill: lightblue;"></circle><text text-anchor="middle" font-size="8" font-weight="bold" y="2.5" class="node-label">A</text></g><g class="noselect gnode" struct_name="m" transform="translate(160.28,203.51)" r="6.5"><circle class="node" r="6" node_type="nucleotide" style="fill: lightblue;"></circle><text text-anchor="middle" font-size="8" font-weight="bold" y="2.5" class="node-label">G</text></g><g class="noselect gnode" struct_name="m" transform="translate(151.43,190.92)" r="6.5"><circle class="node" r="6" node_type="nucleotide" style="fill: lightgreen;"></circle><text text-anchor="middle" font-size="8" font-weight="bold" y="2.5" class="node-label">G</text></g><g class="noselect gnode" struct_name="m" transform="translate(137.18,184.59)" r="6.5"><circle class="node" r="6" node_type="nucleotide" style="fill: lightgreen;"></circle><text text-anchor="middle" font-size="8" font-weight="bold" y="2.5" class="node-label">C</text></g><g class="noselect gnode" struct_name="m" transform="translate(122.52,179.71)" r="6.5"><circle class="node" r="6" node_type="nucleotide" style="fill: lightgreen;"></circle><text text-anchor="middle" font-size="8" font-weight="bold" y="2.5" class="node-label">G</text></g><g class="noselect gnode" struct_name="m" transform="translate(108.31,178.06)" r="6.5"><circle class="node" r="6" node_type="nucleotide" style="fill: lightgreen;"></circle><text text-anchor="middle" font-size="8" font-weight="bold" y="2.5" class="node-label">G</text></g><g class="noselect gnode" struct_name="m" transform="translate(105.11,193.07)" r="6.5"><circle class="node" r="6" node_type="nucleotide" style="fill: lightsalmon;"></circle><text text-anchor="middle" font-size="8" font-weight="bold" y="2.5" class="node-label">C</text></g><g class="noselect gnode" struct_name="m" transform="translate(96.02,205.20)" r="6.5"><circle class="node" r="6" node_type="nucleotide" style="fill: lightsalmon;"></circle><text text-anchor="middle" font-size="8" font-weight="bold" y="2.5" class="node-label">U</text></g><g class="noselect gnode" struct_name="m" transform="translate(68.17,117.40)" r="6.5"><circle class="node label" r="6" node_type="label"></circle><text text-anchor="middle" font-size="8" font-weight="bold" y="2.5" class="node-label">10</text></g><g class="noselect gnode" struct_name="m" transform="translate(23.29,-12.93)" r="6.5"><circle class="node label" r="6" node_type="label"></circle><text text-anchor="middle" font-size="8" font-weight="bold" y="2.5" class="node-label">20</text></g><g class="noselect gnode" struct_name="m" transform="translate(54.34,-104.08)" r="6.5"><circle class="node label" r="6" node_type="label"></circle><text text-anchor="middle" font-size="8" font-weight="bold" y="2.5" class="node-label">30</text></g><g class="noselect gnode" struct_name="m" transform="translate(89.04,51.28)" r="6.5"><circle class="node label" r="6" node_type="label"></circle><text text-anchor="middle" font-size="8" font-weight="bold" y="2.5" class="node-label">40</text></g><g class="noselect gnode" struct_name="m" transform="translate(167.70,165.60)" r="6.5"><circle class="node label" r="6" node_type="label"></circle><text text-anchor="middle" font-size="8" font-weight="bold" y="2.5" class="node-label">50</text></g><g class="noselect gnode" struct_name="m" transform="translate(96.69,220.68)" r="6.5"><circle class="node label" r="6" node_type="label"></circle><text text-anchor="middle" font-size="8" font-weight="bold" y="2.5" class="node-label">60</text></g><g class="noselect gnode" transform="translate(65.56,48.04)" r="6.5"><circle class="node" r="0" node_type="middle"></circle><text text-anchor="middle" font-size="8" font-weight="bold" y="2.5" class="node-label"></text></g><g class="noselect gnode" transform="translate(62.00,32.35)" r="6.5"><circle class="node" r="0" node_type="middle"></circle><text text-anchor="middle" font-size="8" font-weight="bold" y="2.5" class="node-label"></text></g><g class="noselect gnode" transform="translate(57.69,16.94)" r="6.5"><circle class="node" r="0" node_type="middle"></circle><text text-anchor="middle" font-size="8" font-weight="bold" y="2.5" class="node-label"></text></g><g class="noselect gnode" transform="translate(52.82,1.69)" r="6.5"><circle class="node" r="0" node_type="middle"></circle><text text-anchor="middle" font-size="8" font-weight="bold" y="2.5" class="node-label"></text></g><g class="noselect gnode" transform="translate(47.53,-13.48)" r="6.5"><circle class="node" r="0" node_type="middle"></circle><text text-anchor="middle" font-size="8" font-weight="bold" y="2.5" class="node-label"></text></g><g class="noselect gnode" transform="translate(41.85,-28.57)" r="6.5"><circle class="node" r="0" node_type="middle"></circle><text text-anchor="middle" font-size="8" font-weight="bold" y="2.5" class="node-label"></text></g><g class="noselect gnode" transform="translate(35.92,-43.61)" r="6.5"><circle class="node" r="0" node_type="middle"></circle><text text-anchor="middle" font-size="8" font-weight="bold" y="2.5" class="node-label"></text></g><g class="noselect gnode" transform="translate(29.92,-58.54)" r="6.5"><circle class="node" r="0" node_type="middle"></circle><text text-anchor="middle" font-size="8" font-weight="bold" y="2.5" class="node-label"></text></g><g class="noselect gnode" transform="translate(92.84,138.65)" r="6.5"><circle class="node" r="0" node_type="middle"></circle><text text-anchor="middle" font-size="8" font-weight="bold" y="2.5" class="node-label"></text></g><g class="noselect gnode" transform="translate(92.73,122.04)" r="6.5"><circle class="node" r="0" node_type="middle"></circle><text text-anchor="middle" font-size="8" font-weight="bold" y="2.5" class="node-label"></text></g><g class="noselect gnode" transform="translate(116.07,170.87)" r="6.5"><circle class="node" r="0" node_type="middle"></circle><text text-anchor="middle" font-size="8" font-weight="bold" y="2.5" class="node-label"></text></g><g class="noselect gnode" transform="translate(132.14,174.86)" r="6.5"><circle class="node" r="0" node_type="middle"></circle><text text-anchor="middle" font-size="8" font-weight="bold" y="2.5" class="node-label"></text></g><g class="noselect gnode" transform="translate(147.28,180.82)" r="6.5"><circle class="node" r="0" node_type="middle"></circle><text text-anchor="middle" font-size="8" font-weight="bold" y="2.5" class="node-label"></text></g><g class="noselect gnode" transform="translate(78.77,81.69)" r="6.5"><circle class="node" r="0" node_type="middle"></circle><text text-anchor="middle" font-size="8" font-weight="bold" y="2.5" class="node-label"></text></g><g class="noselect gnode" transform="translate(82.98,212.92)" r="6.5"><circle class="node" r="0" node_type="middle"></circle><text text-anchor="middle" font-size="8" font-weight="bold" y="2.5" class="node-label"></text></g><g class="noselect gnode" transform="translate(68.04,214.79)" r="6.5"><circle class="node" r="0" node_type="middle"></circle><text text-anchor="middle" font-size="8" font-weight="bold" y="2.5" class="node-label"></text></g><g class="noselect gnode" transform="translate(72.89,177.28)" r="6.5"><circle class="node" r="0" node_type="middle"></circle><text text-anchor="middle" font-size="8" font-weight="bold" y="2.5" class="node-label"></text></g><g class="noselect gnode" transform="translate(18.26,-87.44)" r="6.5"><circle class="node" r="0" node_type="middle"></circle><text text-anchor="middle" font-size="8" font-weight="bold" y="2.5" class="node-label"></text></g><g class="noselect gnode" transform="translate(166.41,189.73)" r="6.5"><circle class="node" r="0" node_type="middle"></circle><text text-anchor="middle" font-size="8" font-weight="bold" y="2.5" class="node-label"></text></g><g class="noselect gnode" transform="translate(86.93,101.34)" r="6.5"><circle class="node" r="0" node_type="middle"></circle><text text-anchor="middle" font-size="8" font-weight="bold" y="2.5" class="node-label"></text></g><g class="noselect gnode" transform="translate(67.77,66.61)" r="6.5"><circle class="node" r="0" node_type="middle"></circle><text text-anchor="middle" font-size="8" font-weight="bold" y="2.5" class="node-label"></text></g></g><line class="drag_line" x1="0" y1="0" x2="0" y2="0"></line></g></g></svg>