<svg xmlns="http://www.w3.org/2000/svg" viewBox="0 0 760 640" width="760" height="640"><style>svg {
  display: block;
  min-width: 100%;
  width: 100%;
  min-height: 100%;
}

circle.node {
  stroke: #ccc;
  stroke-width: 1px;
  opacity: 1;
  fill: white;
}

circle.node.label {
    stroke: transparent;
    stroke-width: 0;
    fill: white;
}

circle.outline_node {
    stroke-width: 1px;
    fill: red;
}

circle.protein {
    fill: gray;
    fill-opacity: 0.5;
    stroke-width: 4;
}

circle.hidden_outline {
    stroke-width: 0px;
}


line.link {
  stroke: #999;
  stroke-opacity: 0.8;
  stroke-width: 2;
}

line.basepair {
  stroke: red;
}

line.intermolecule {
  stroke: blue;
}

line.chain_chain {
  stroke-dasharray: 3,3;
}

line.fake {
  stroke: green;
}

.transparent {
    fill: transparent;
    stroke-width: 0;
    stroke-opacity: 0;
    opacity: 0;
    visibility: hidden;
}

.drag_line {
  stroke: #999;
  stroke-width: 2;
  pointer-events: none;
}

.drag_line_hidden {
  stroke: #999;
  stroke-width: 0;
  pointer-events: none;
}

.d3-tip {
    line-height: 1;
    font-weight: bold;
    padding: 6px;
    background: rgba(0, 0, 0, 0.6);
    color: #fff;
    border-radius: 4px;
    pointer-events: none;
          }

text.node-label {
    font-weight: bold;
    font-family: Tahoma, Geneva, sans-serif;
    color: rgb(100,100,100);
    pointer-events: none;
}

text {
    pointer-events: none;
}

g.gnode {

}

circle.outline_node.selected {
    visibility: visible;
}

circle.outline_node {
    visibility: hidden;
}

.brush .extent {
  fill-opacity: .1;
  stroke: #fff;
  shape-rendering: crispEdges;
}

.noselect {
    -webkit-touch-callout: none;
    -webkit-user-select: none;
    -khtml-user-select: none;
    -moz-user-select: none;
    -ms-user-select: none;
    user-select: none;
}

svg {
  display: block;
  min-width: 100%;
  width: 100%;
  min-height: 100%;
}

circle.node {
  stroke: #ccc;
  stroke-width: 1px;
  opacity: 1;
  fill: white;
}

circle.node.label {
    stroke: transparent;
    stroke-width: 0;
    fill: white;
}

circle.outline_node {
    stroke-width: 1px;
    fill: red;
}

circle.protein {
    fill: gray;
    fill-opacity: 0.5;
    stroke-width: 4;
}

circle.hidden_outline {
    stroke-width: 0px;
}


line.link {
  stroke: #999;
  stroke-opacity: 0.8;
  stroke-width: 2;
}

line.basepair {
  stroke: red;
}

line.intermolecule {
  stroke: blue;
}

line.chain_chain {
  stroke-dasharray: 3,3;
}

line.fake {
  stroke: green;
}

.transparent {
    fill: transparent;
    stroke-width: 0;
    stroke-opacity: 0;
    opacity: 0;
    visibility: hidden;
}

.drag_line {
  stroke: #999;
  stroke-width: 2;
  pointer-events: none;
}

.drag_line_hidden {
  stroke: #999;
  stroke-width: 0;
  pointer-events: none;
}

.d3-tip {
    line-height: 1;
    font-weight: bold;
    padding: 6px;
    background: rgba(0, 0, 0, 0.6);
    color: #fff;
    border-radius: 4px;
    pointer-events: none;
          }

text.node-label {
    font-weight: bold;
    font-family: Tahoma, Geneva, sans-serif;
    color: rgb(100,100,100);
    pointer-events: none;
}

text {
    pointer-events: none;
}

g.gnode {

}

circle.outline_node.selected {
    visibility: visible;
}

circle.outline_node {
    visibility: hidden;
}

.brush .extent {
  fill-opacity: .1;
  stroke: #fff;
  shape-rendering: crispEdges;
}

.noselect {
    -webkit-touch-callout: none;
    -webkit-user-select: none;
    -khtml-user-select: none;
    -moz-user-select: none;
    -ms-user-select: none;
    user-select: none;
}
/*# sourceURL=/Users/yumanakamura/ipy_sandbox/sandbox/claude_sandbox/mrna-transformer/scripts/eval/prerender/forna_vendor/fornac.css*/</style><style></style><g><g class="brush" style="pointer-events: all; -webkit-tap-highlight-color: rgba(0, 0, 0, 0);"><rect class="background" x="0" width="760" y="0" height="640" style="visibility: hidden; cursor: auto;"></rect><rect class="extent" x="0" width="0" y="0" height="0" style="cursor: move;"></rect><g class="resize n" transform="translate(0,0)" style="cursor: ns-resize; display: none;"><rect y="-3" width="0" height="6" style="visibility: hidden;"></rect></g><g class="resize e" transform="translate(0,0)" style="cursor: ew-resize; display: none;"><rect x="-3" width="6" height="0" style="visibility: hidden;"></rect></g><g class="resize s" transform="translate(0,0)" style="cursor: ns-resize; display: none;"><rect y="-3" width="0" height="6" style="visibility: hidden;"></rect></g><g class="resize w" transform="translate(0,0)" style="cursor: ew-resize; display: none;"><rect x="-3" width="6" height="0" style="visibility: hidden;"></rect></g><g class="resize nw" transform="translate(0,0)" style="cursor: nwse-resize; display: none;"><rect x="-3" y="-3" width="6" height="6" style="visibility: hidden;"></rect></g><g class="resize ne" transform="translate(0,0)" style="cursor: nesw-resize; display: none;"><rect x="-3" y="-3" width="6" height="6" style="visibility: hidden;"></rect></g><g class="resize se" transform="translate(0,0)" style="cursor: nwse-resize; display: none;"><rect x="-3" y="-3" width="6" height="6" style="visibility: hidden;"></rect></g><g class="resize sw" transform="translate(0,0)" style="cursor: nesw-resize; display: none;"><rect x="-3" y="-3" width="6" height="6" style="visibility: hidden;"></rect></g></g><g transform="translate(141.95,214.12) scale(1.67)"><g><line class="link basepair" x1="220.92" y1="154.86" x2="233.48" y2="146.92"></line><line class="link basepair" x1="212.43" y1="141.35" x2="224.77" y2="133.64"></line><line class="link backbone" x1="220.92" y1="154.86" x2="212.43" y2="141.35"></line><line class="link basepair" x1="203.97" y1="127.25" x2="216.69" y2="120.20"></line><line class="link backbone" x1="212.43" y1="141.35" x2="203.97" y2="127.25"></line><line class="link basepair" x1="196.31" y1="112.50" x2="210.05" y2="106.59"></line><line class="link backbone" x1="203.97" y1="127.25" x2="196.31" y2="112.50"></line><line class="link backbone" x1="196.31" y1="112.50" x2="182.28" y2="106.00"></line><line class="link basepair" x1="176.36" y1="91.64" x2="182.88" y2="78.22"></line><line class="link backbone" x1="182.28" y1="106.00" x2="176.36" y2="91.64"></line><line class="link basepair" x1="161.85" y1="83.24" x2="169.60" y2="70.99"></line><line class="link backbone" x1="176.36" y1="91.64" x2="161.85" y2="83.24"></line><line class="link basepair" x1="148.11" y1="73.48" x2="157.08" y2="62.04"></line><line class="link backbone" x1="161.85" y1="83.24" x2="148.11" y2="73.48"></line><line class="link basepair" x1="135.44" y1="62.64" x2="145.27" y2="51.92"></line><line class="link backbone" x1="148.11" y1="73.48" x2="135.44" y2="62.64"></line><line class="link basepair" x1="123.64" y1="51.20" x2="134.04" y2="40.96"></line><line class="link backbone" x1="135.44" y1="62.64" x2="123.64" y2="51.20"></line><line class="link basepair" x1="112.44" y1="39.59" x2="123.26" y2="29.50"></line><line class="link backbone" x1="123.64" y1="51.20" x2="112.44" y2="39.59"></line><line class="link backbone" x1="112.44" y1="39.59" x2="97.82" y2="35.10"></line><line class="link basepair" x1="94.47" y1="20.23" x2="105.36" y2="10.16"></line><line class="link backbone" x1="97.82" y1="35.10" x2="94.47" y2="20.23"></line><line class="link basepair" x1="83.79" y1="8.53" x2="94.53" y2="-1.38"></line><line class="link backbone" x1="94.47" y1="20.23" x2="83.79" y2="8.53"></line><line class="link basepair" x1="72.92" y1="-3.30" x2="83.67" y2="-13.13"></line><line class="link backbone" x1="83.79" y1="8.53" x2="72.92" y2="-3.30"></line><line class="link basepair" x1="62.07" y1="-15.22" x2="72.92" y2="-24.98"></line><line class="link backbone" x1="72.92" y1="-3.30" x2="62.07" y2="-15.22"></line><line class="link basepair" x1="51.36" y1="-27.26" x2="62.28" y2="-36.91"></line><line class="link backbone" x1="62.07" y1="-15.22" x2="51.36" y2="-27.26"></line><line class="link basepair" x1="40.74" y1="-39.33" x2="51.74" y2="-48.97"></line><line class="link backbone" x1="51.36" y1="-27.26" x2="40.74" y2="-39.33"></line><line class="link basepair" x1="30.27" y1="-51.32" x2="41.24" y2="-60.97"></line><line class="link backbone" x1="40.74" y1="-39.33" x2="30.27" y2="-51.32"></line><line class="link basepair" x1="19.71" y1="-62.97" x2="30.91" y2="-72.95"></line><line class="link backbone" x1="30.27" y1="-51.32" x2="19.71" y2="-62.97"></line><line class="link backbone" x1="19.71" y1="-62.97" x2="4.40" y2="-65.68"></line><line class="link backbone" x1="4.40" y1="-65.68" x2="-2.92" y2="-78.95"></line><line class="link backbone" x1="-2.92" y1="-78.95" x2="2.90" y2="-93.02"></line><line class="link backbone" x1="2.90" y1="-93.02" x2="17.54" y2="-97.22"></line><line class="link backbone" x1="17.54" y1="-97.22" x2="29.94" y2="-88.45"></line><line class="link basepair" x1="30.91" y1="-72.95" x2="19.71" y2="-62.97"></line><line class="link backbone" x1="29.94" y1="-88.45" x2="30.91" y2="-72.95"></line><line class="link basepair" x1="41.24" y1="-60.97" x2="30.27" y2="-51.32"></line><line class="link backbone" x1="30.91" y1="-72.95" x2="41.24" y2="-60.97"></line><line class="link basepair" x1="51.74" y1="-48.97" x2="40.74" y2="-39.33"></line><line class="link backbone" x1="41.24" y1="-60.97" x2="51.74" y2="-48.97"></line><line class="link basepair" x1="62.28" y1="-36.91" x2="51.36" y2="-27.26"></line><line class="link backbone" x1="51.74" y1="-48.97" x2="62.28" y2="-36.91"></line><line class="link basepair" x1="72.92" y1="-24.98" x2="62.07" y2="-15.22"></line><line class="link backbone" x1="62.28" y1="-36.91" x2="72.92" y2="-24.98"></line><line class="link basepair" x1="83.67" y1="-13.13" x2="72.92" y2="-3.30"></line><line class="link backbone" x1="72.92" y1="-24.98" x2="83.67" y2="-13.13"></line><line class="link basepair" x1="94.53" y1="-1.38" x2="83.79" y2="8.53"></line><line class="link backbone" x1="83.67" y1="-13.13" x2="94.53" y2="-1.38"></line><line class="link basepair" x1="105.36" y1="10.16" x2="94.47" y2="20.23"></line><line class="link backbone" x1="94.53" y1="-1.38" x2="105.36" y2="10.16"></line><line class="link backbone" x1="105.36" y1="10.16" x2="119.93" y2="14.60"></line><line class="link basepair" x1="123.26" y1="29.50" x2="112.44" y2="39.59"></line><line class="link backbone" x1="119.93" y1="14.60" x2="123.26" y2="29.50"></line><line class="link basepair" x1="134.04" y1="40.96" x2="123.64" y2="51.20"></line><line class="link backbone" x1="123.26" y1="29.50" x2="134.04" y2="40.96"></line><line class="link basepair" x1="145.27" y1="51.92" x2="135.44" y2="62.64"></line><line class="link backbone" x1="134.04" y1="40.96" x2="145.27" y2="51.92"></line><line class="link basepair" x1="157.08" y1="62.04" x2="148.11" y2="73.48"></line><line class="link backbone" x1="145.27" y1="51.92" x2="157.08" y2="62.04"></line><line class="link basepair" x1="169.60" y1="70.99" x2="161.85" y2="83.24"></line><line class="link backbone" x1="157.08" y1="62.04" x2="169.60" y2="70.99"></line><line class="link basepair" x1="182.88" y1="78.22" x2="176.36" y2="91.64"></line><line class="link backbone" x1="169.60" y1="70.99" x2="182.88" y2="78.22"></line><line class="link backbone" x1="182.88" y1="78.22" x2="197.12" y2="73.07"></line><line class="link backbone" x1="197.12" y1="73.07" x2="210.83" y2="78.85"></line><line class="link backbone" x1="210.83" y1="78.85" x2="215.91" y2="92.78"></line><line class="link basepair" x1="210.05" y1="106.59" x2="196.31" y2="112.50"></line><line class="link backbone" x1="215.91" y1="92.78" x2="210.05" y2="106.59"></line><line class="link basepair" x1="216.69" y1="120.20" x2="203.97" y2="127.25"></line><line class="link backbone" x1="210.05" y1="106.59" x2="216.69" y2="120.20"></line><line class="link basepair" x1="224.77" y1="133.64" x2="212.43" y2="141.35"></line><line class="link backbone" x1="216.69" y1="120.20" x2="224.77" y2="133.64"></line><line class="link basepair" x1="233.48" y1="146.92" x2="220.92" y2="154.86"></line><line class="link backbone" x1="224.77" y1="133.64" x2="233.48" y2="146.92"></line><line class="link backbone" x1="233.48" y1="146.92" x2="248.61" y2="144.39"></line><line class="link backbone" x1="248.61" y1="144.39" x2="263.34" y2="147.02"></line><line class="link backbone" x1="263.34" y1="147.02" x2="276.26" y2="154.71"></line><line class="link backbone" x1="276.26" y1="154.71" x2="285.42" y2="166.54"></line><line class="link backbone" x1="285.42" y1="166.54" x2="289.79" y2="180.71"></line><line class="link backbone" x1="289.79" y1="180.71" x2="288.66" y2="195.56"></line><line class="link backbone" x1="288.66" y1="195.56" x2="282.29" y2="208.98"></line><line class="link backbone" x1="282.29" y1="208.98" x2="271.57" y2="219.26"></line><line class="link backbone" x1="271.57" y1="219.26" x2="257.99" y2="225.26"></line><line class="link backbone" x1="257.99" y1="225.26" x2="243.15" y2="226.06"></line><line class="link backbone" x1="243.15" y1="226.06" x2="229.06" y2="221.35"></line><line class="link backbone" x1="229.06" y1="221.35" x2="217.58" y2="211.89"></line><line class="link backbone" x1="217.58" y1="211.89" x2="210.15" y2="199.07"></line><line class="link label_link" x1="123.64" y1="51.20" x2="112.52" y2="62.16"></line><line class="link label_link" x1="19.71" y1="-62.97" x2="7.13" y2="-53.89"></line><line class="link label_link" x1="72.92" y1="-24.98" x2="84.12" y2="-35.87"></line><line class="link label_link" x1="182.88" y1="78.22" x2="189.23" y2="64.04"></line><line class="link label_link" x1="276.26" y1="154.71" x2="290.59" y2="148.78"></line><line class="link label_link" x1="210.15" y1="199.07" x2="199.27" y2="210.17"></line><line class="link fake transparent" x1="176.36" y1="91.64" x2="172.50" y2="81.43"></line><line class="link fake transparent" x1="176.36" y1="91.64" x2="169.60" y2="70.99"></line><line class="link fake transparent" x1="161.85" y1="83.24" x2="172.50" y2="81.43"></line><line class="link fake transparent" x1="169.60" y1="70.99" x2="172.50" y2="81.43"></line><line class="link fake transparent" x1="182.88" y1="78.22" x2="172.50" y2="81.43"></line><line class="link fake transparent" x1="161.85" y1="83.24" x2="158.91" y2="72.79"></line><line class="link fake transparent" x1="148.11" y1="73.48" x2="158.91" y2="72.79"></line><line class="link fake transparent" x1="157.08" y1="62.04" x2="158.91" y2="72.79"></line><line class="link fake transparent" x1="169.60" y1="70.99" x2="158.91" y2="72.79"></line><line class="link fake transparent" x1="148.11" y1="73.48" x2="146.27" y2="62.77"></line><line class="link fake transparent" x1="135.44" y1="62.64" x2="146.27" y2="62.77"></line><line class="link fake transparent" x1="145.27" y1="51.92" x2="146.27" y2="62.77"></line><line class="link fake transparent" x1="157.08" y1="62.04" x2="146.27" y2="62.77"></line><line class="link fake transparent" x1="135.44" y1="62.64" x2="134.44" y2="51.83"></line><line class="link fake transparent" x1="123.64" y1="51.20" x2="134.44" y2="51.83"></line><line class="link fake transparent" x1="134.04" y1="40.96" x2="134.44" y2="51.83"></line><line class="link fake transparent" x1="145.27" y1="51.92" x2="134.44" y2="51.83"></line><line class="link fake transparent" x1="123.64" y1="51.20" x2="123.26" y2="40.37"></line><line class="link fake transparent" x1="112.44" y1="39.59" x2="123.26" y2="40.37"></line><line class="link fake transparent" x1="123.26" y1="29.50" x2="123.26" y2="40.37"></line><line class="link fake transparent" x1="134.04" y1="40.96" x2="123.26" y2="40.37"></line><line class="link fake transparent" x1="94.47" y1="20.23" x2="94.55" y2="9.40"></line><line class="link fake transparent" x1="83.79" y1="8.53" x2="94.55" y2="9.40"></line><line class="link fake transparent" x1="94.53" y1="-1.38" x2="94.55" y2="9.40"></line><line class="link fake transparent" x1="105.36" y1="10.16" x2="94.55" y2="9.40"></line><line class="link fake transparent" x1="83.79" y1="8.53" x2="83.72" y2="-2.30"></line><line class="link fake transparent" x1="72.92" y1="-3.30" x2="83.72" y2="-2.30"></line><line class="link fake transparent" x1="83.67" y1="-13.13" x2="83.72" y2="-2.30"></line><line class="link fake transparent" x1="94.53" y1="-1.38" x2="83.72" y2="-2.30"></line><line class="link fake transparent" x1="72.92" y1="-3.30" x2="72.86" y2="-14.12"></line><line class="link fake transparent" x1="62.07" y1="-15.22" x2="72.86" y2="-14.12"></line><line class="link fake transparent" x1="72.92" y1="-24.98" x2="72.86" y2="-14.12"></line><line class="link fake transparent" x1="83.67" y1="-13.13" x2="72.86" y2="-14.12"></line><line class="link fake transparent" x1="62.07" y1="-15.22" x2="62.10" y2="-26.07"></line><line class="link fake transparent" x1="51.36" y1="-27.26" x2="62.10" y2="-26.07"></line><line class="link fake transparent" x1="62.28" y1="-36.91" x2="62.10" y2="-26.07"></line><line class="link fake transparent" x1="72.92" y1="-24.98" x2="62.10" y2="-26.07"></line><line class="link fake transparent" x1="51.36" y1="-27.26" x2="51.50" y2="-38.10"></line><line class="link fake transparent" x1="40.74" y1="-39.33" x2="51.50" y2="-38.10"></line><line class="link fake transparent" x1="51.74" y1="-48.97" x2="51.50" y2="-38.10"></line><line class="link fake transparent" x1="62.28" y1="-36.91" x2="51.50" y2="-38.10"></line><line class="link fake transparent" x1="40.74" y1="-39.33" x2="41.02" y2="-50.13"></line><line class="link fake transparent" x1="30.27" y1="-51.32" x2="41.02" y2="-50.13"></line><line class="link fake transparent" x1="41.24" y1="-60.97" x2="41.02" y2="-50.13"></line><line class="link fake transparent" x1="51.74" y1="-48.97" x2="41.02" y2="-50.13"></line><line class="link fake transparent" x1="30.27" y1="-51.32" x2="30.50" y2="-62.14"></line><line class="link fake transparent" x1="19.71" y1="-62.97" x2="30.50" y2="-62.14"></line><line class="link fake transparent" x1="30.91" y1="-72.95" x2="30.50" y2="-62.14"></line><line class="link fake transparent" x1="41.24" y1="-60.97" x2="30.50" y2="-62.14"></line><line class="link fake transparent" x1="220.92" y1="154.86" x2="222.94" y2="144.37"></line><line class="link fake transparent" x1="212.43" y1="141.35" x2="222.94" y2="144.37"></line><line class="link fake transparent" x1="224.77" y1="133.64" x2="222.94" y2="144.37"></line><line class="link fake transparent" x1="233.48" y1="146.92" x2="222.94" y2="144.37"></line><line class="link fake transparent" x1="212.43" y1="141.35" x2="214.28" y2="130.74"></line><line class="link fake transparent" x1="203.97" y1="127.25" x2="214.28" y2="130.74"></line><line class="link fake transparent" x1="216.69" y1="120.20" x2="214.28" y2="130.74"></line><line class="link fake transparent" x1="224.77" y1="133.64" x2="214.28" y2="130.74"></line><line class="link fake transparent" x1="203.97" y1="127.25" x2="206.41" y2="116.77"></line><line class="link fake transparent" x1="196.31" y1="112.50" x2="206.41" y2="116.77"></line><line class="link fake transparent" x1="210.05" y1="106.59" x2="206.41" y2="116.77"></line><line class="link fake transparent" x1="216.69" y1="120.20" x2="206.41" y2="116.77"></line><line class="link fake transparent" x1="220.92" y1="154.86" x2="248.81" y2="185.24"></line><line class="link fake transparent" x1="220.92" y1="154.86" x2="282.29" y2="208.98"></line><line class="link fake transparent" x1="233.48" y1="146.92" x2="248.81" y2="185.24"></line><line class="link fake transparent" x1="233.48" y1="146.92" x2="271.57" y2="219.26"></line><line class="link fake transparent" x1="248.61" y1="144.39" x2="248.81" y2="185.24"></line><line class="link fake transparent" x1="248.61" y1="144.39" x2="257.99" y2="225.26"></line><line class="link fake transparent" x1="263.34" y1="147.02" x2="248.81" y2="185.24"></line><line class="link fake transparent" x1="263.34" y1="147.02" x2="243.15" y2="226.06"></line><line class="link fake transparent" x1="276.26" y1="154.71" x2="248.81" y2="185.24"></line><line class="link fake transparent" x1="276.26" y1="154.71" x2="229.06" y2="221.35"></line><line class="link fake transparent" x1="285.42" y1="166.54" x2="248.81" y2="185.24"></line><line class="link fake transparent" x1="285.42" y1="166.54" x2="217.58" y2="211.89"></line><line class="link fake transparent" x1="289.79" y1="180.71" x2="248.81" y2="185.24"></line><line class="link fake transparent" x1="289.79" y1="180.71" x2="210.15" y2="199.07"></line><line class="link fake transparent" x1="288.66" y1="195.56" x2="248.81" y2="185.24"></line><line class="link fake transparent" x1="288.66" y1="195.56" x2="207.30" y2="184.63"></line><line class="link fake transparent" x1="282.29" y1="208.98" x2="248.81" y2="185.24"></line><line class="link fake transparent" x1="282.29" y1="208.98" x2="210.20" y2="169.99"></line><line class="link fake transparent" x1="271.57" y1="219.26" x2="248.81" y2="185.24"></line><line class="link fake transparent" x1="271.57" y1="219.26" x2="220.92" y2="154.86"></line><line class="link fake transparent" x1="257.99" y1="225.26" x2="248.81" y2="185.24"></line><line class="link fake transparent" x1="257.99" y1="225.26" x2="233.48" y2="146.92"></line><line class="link fake transparent" x1="243.15" y1="226.06" x2="248.81" y2="185.24"></line><line class="link fake transparent" x1="243.15" y1="226.06" x2="248.61" y2="144.39"></line><line class="link fake transparent" x1="229.06" y1="221.35" x2="248.81" y2="185.24"></line><line class="link fake transparent" x1="229.06" y1="221.35" x2="263.34" y2="147.02"></line><line class="link fake transparent" x1="217.58" y1="211.89" x2="248.81" y2="185.24"></line><line class="link fake transparent" x1="217.58" y1="211.89" x2="276.26" y2="154.71"></line><line class="link fake transparent" x1="210.15" y1="199.07" x2="248.81" y2="185.24"></line><line class="link fake transparent" x1="210.15" y1="199.07" x2="285.42" y2="166.54"></line><line class="link fake transparent" x1="19.71" y1="-62.97" x2="14.72" y2="-79.84"></line><line class="link fake transparent" x1="19.71" y1="-62.97" x2="2.90" y2="-93.02"></line><line class="link fake transparent" x1="4.40" y1="-65.68" x2="14.72" y2="-79.84"></line><line class="link fake transparent" x1="4.40" y1="-65.68" x2="17.54" y2="-97.22"></line><line class="link fake transparent" x1="-2.92" y1="-78.95" x2="14.72" y2="-79.84"></line><line class="link fake transparent" x1="-2.92" y1="-78.95" x2="29.94" y2="-88.45"></line><line class="link fake transparent" x1="2.90" y1="-93.02" x2="14.72" y2="-79.84"></line><line class="link fake transparent" x1="2.90" y1="-93.02" x2="30.91" y2="-72.95"></line><line class="link fake transparent" x1="17.54" y1="-97.22" x2="14.72" y2="-79.84"></line><line class="link fake transparent" x1="17.54" y1="-97.22" x2="19.71" y2="-62.97"></line><line class="link fake transparent" x1="29.94" y1="-88.45" x2="14.72" y2="-79.84"></line><line class="link fake transparent" x1="29.94" y1="-88.45" x2="4.40" y2="-65.68"></line><line class="link fake transparent" x1="30.91" y1="-72.95" x2="14.72" y2="-79.84"></line><line class="link fake transparent" x1="30.91" y1="-72.95" x2="-2.92" y2="-78.95"></line><line class="link fake transparent" x1="112.44" y1="39.59" x2="108.88" y2="24.87"></line><line class="link fake transparent" x1="112.44" y1="39.59" x2="105.36" y2="10.16"></line><line class="link fake transparent" x1="97.82" y1="35.10" x2="108.88" y2="24.87"></line><line class="link fake transparent" x1="97.82" y1="35.10" x2="119.93" y2="14.60"></line><line class="link fake transparent" x1="94.47" y1="20.23" x2="108.88" y2="24.87"></line><line class="link fake transparent" x1="94.47" y1="20.23" x2="123.26" y2="29.50"></line><line class="link fake transparent" x1="105.36" y1="10.16" x2="108.88" y2="24.87"></line><line class="link fake transparent" x1="105.36" y1="10.16" x2="112.44" y2="39.59"></line><line class="link fake transparent" x1="119.93" y1="14.60" x2="108.88" y2="24.87"></line><line class="link fake transparent" x1="119.93" y1="14.60" x2="97.82" y2="35.10"></line><line class="link fake transparent" x1="123.26" y1="29.50" x2="108.88" y2="24.87"></line><line class="link fake transparent" x1="123.26" y1="29.50" x2="94.47" y2="20.23"></line><line class="link fake transparent" x1="196.31" y1="112.50" x2="196.29" y2="92.65"></line><line class="link fake transparent" x1="196.31" y1="112.50" x2="197.12" y2="73.07"></line><line class="link fake transparent" x1="182.28" y1="106.00" x2="196.29" y2="92.65"></line><line class="link fake transparent" x1="182.28" y1="106.00" x2="210.83" y2="78.85"></line><line class="link fake transparent" x1="176.36" y1="91.64" x2="196.29" y2="92.65"></line><line class="link fake transparent" x1="176.36" y1="91.64" x2="215.91" y2="92.78"></line><line class="link fake transparent" x1="182.88" y1="78.22" x2="196.29" y2="92.65"></line><line class="link fake transparent" x1="182.88" y1="78.22" x2="210.05" y2="106.59"></line><line class="link fake transparent" x1="197.12" y1="73.07" x2="196.29" y2="92.65"></line><line class="link fake transparent" x1="197.12" y1="73.07" x2="196.31" y2="112.50"></line><line class="link fake transparent" x1="210.83" y1="78.85" x2="196.29" y2="92.65"></line><line class="link fake transparent" x1="210.83" y1="78.85" x2="182.28" y2="106.00"></line><line class="link fake transparent" x1="215.91" y1="92.78" x2="196.29" y2="92.65"></line><line class="link fake transparent" x1="215.91" y1="92.78" x2="176.36" y2="91.64"></line><line class="link fake transparent" x1="210.05" y1="106.59" x2="196.29" y2="92.65"></line><line class="link fake transparent" x1="210.05" y1="106.59" x2="182.88" y2="78.22"></line></g><g><g class="noselect gnode" struct_name="m" transform="translate(220.92,154.86)" r="6.5"><circle class="node" r="6" node_type="nucleotide" style="fill: lightgreen;"></circle><text text-anchor="middle" font-size="8" font-weight="bold" y="2.5" class="node-label">G</text></g><g class="noselect gnode" struct_name="m" transform="translate(212.43,141.35)" r="6.5"><circle class="node" r="6" node_type="nucleotide" style="fill: lightgreen;"></circle><text text-anchor="middle" font-size="8" font-weight="bold" y="2.5" class="node-label">U</text></g><g class="noselect gnode" struct_name="m" transform="translate(203.97,127.25)" r="6.5"><circle class="node" r="6" node_type="nucleotide" style="fill: lightgreen;"></circle><text text-anchor="middle" font-size="8" font-weight="bold" y="2.5" class="node-label">G</text></g><g class="noselect gnode" struct_name="m" transform="translate(196.31,112.50)" r="6.5"><circle class="node" r="6" node_type="nucleotide" style="fill: lightgreen;"></circle><text text-anchor="middle" font-size="8" font-weight="bold" y="2.5" class="node-label">A</text></g><g class="noselect gnode" struct_name="m" transform="translate(182.28,106.00)" r="6.5"><circle class="node" r="6" node_type="nucleotide" style="fill: rgb(219, 219, 141);"></circle><text text-anchor="middle" font-size="8" font-weight="bold" y="2.5" class="node-label">C</text></g><g class="noselect gnode" struct_name="m" transform="translate(176.36,91.64)" r="6.5"><circle class="node" r="6" node_type="nucleotide" style="fill: lightgreen;"></circle><text text-anchor="middle" font-size="8" font-weight="bold" y="2.5" class="node-label">G</text></g><g class="noselect gnode" struct_name="m" transform="translate(161.85,83.24)" r="6.5"><circle class="node" r="6" node_type="nucleotide" style="fill: lightgreen;"></circle><text text-anchor="middle" font-size="8" font-weight="bold" y="2.5" class="node-label">A</text></g><g class="noselect gnode" struct_name="m" transform="translate(148.11,73.48)" r="6.5"><circle class="node" r="6" node_type="nucleotide" style="fill: lightgreen;"></circle><text text-anchor="middle" font-size="8" font-weight="bold" y="2.5" class="node-label">U</text></g><g class="noselect gnode" struct_name="m" transform="translate(135.44,62.64)" r="6.5"><circle class="node" r="6" node_type="nucleotide" style="fill: lightgreen;"></circle><text text-anchor="middle" font-size="8" font-weight="bold" y="2.5" class="node-label">G</text></g><g class="noselect gnode" struct_name="m" transform="translate(123.64,51.20)" r="6.5"><circle class="node" r="6" node_type="nucleotide" style="fill: lightgreen;"></circle><text text-anchor="middle" font-size="8" font-weight="bold" y="2.5" class="node-label">G</text></g><g class="noselect gnode" struct_name="m" transform="translate(112.44,39.59)" r="6.5"><circle class="node" r="6" node_type="nucleotide" style="fill: lightgreen;"></circle><text text-anchor="middle" font-size="8" font-weight="bold" y="2.5" class="node-label">A</text></g><g class="noselect gnode" struct_name="m" transform="translate(97.82,35.10)" r="6.5"><circle class="node" r="6" node_type="nucleotide" style="fill: rgb(219, 219, 141);"></circle><text text-anchor="middle" font-size="8" font-weight="bold" y="2.5" class="node-label">U</text></g><g class="noselect gnode" struct_name="m" transform="translate(94.47,20.23)" r="6.5"><circle class="node" r="6" node_type="nucleotide" style="fill: lightgreen;"></circle><text text-anchor="middle" font-size="8" font-weight="bold" y="2.5" class="node-label">G</text></g><g class="noselect gnode" struct_name="m" transform="translate(83.79,8.53)" r="6.5"><circle class="node" r="6" node_type="nucleotide" style="fill: lightgreen;"></circle><text text-anchor="middle" font-size="8" font-weight="bold" y="2.5" class="node-label">G</text></g><g class="noselect gnode" struct_name="m" transform="translate(72.92,-3.30)" r="6.5"><circle class="node" r="6" node_type="nucleotide" style="fill: lightgreen;"></circle><text text-anchor="middle" font-size="8" font-weight="bold" y="2.5" class="node-label">G</text></g><g class="noselect gnode" struct_name="m" transform="translate(62.07,-15.22)" r="6.5"><circle class="node" r="6" node_type="nucleotide" style="fill: lightgreen;"></circle><text text-anchor="middle" font-size="8" font-weight="bold" y="2.5" class="node-label">A</text></g><g class="noselect gnode" struct_name="m" transform="translate(51.36,-27.26)" r="6.5"><circle class="node" r="6" node_type="nucleotide" style="fill: lightgreen;"></circle><text text-anchor="middle" font-size="8" font-weight="bold" y="2.5" class="node-label">G</text></g><g class="noselect gnode" struct_name="m" transform="translate(40.74,-39.33)" r="6.5"><circle class="node" r="6" node_type="nucleotide" style="fill: lightgreen;"></circle><text text-anchor="middle" font-size="8" font-weight="bold" y="2.5" class="node-label">A</text></g><g class="noselect gnode" struct_name="m" transform="translate(30.27,-51.32)" r="6.5"><circle class="node" r="6" node_type="nucleotide" style="fill: lightgreen;"></circle><text text-anchor="middle" font-size="8" font-weight="bold" y="2.5" class="node-label">C</text></g><g class="noselect gnode" struct_name="m" transform="translate(19.71,-62.97)" r="6.5"><circle class="node" r="6" node_type="nucleotide" style="fill: lightgreen;"></circle><text text-anchor="middle" font-size="8" font-weight="bold" y="2.5" class="node-label">A</text></g><g class="noselect gnode" struct_name="m" transform="translate(4.40,-65.68)" r="6.5"><circle class="node" r="6" node_type="nucleotide" style="fill: lightblue;"></circle><text text-anchor="middle" font-size="8" font-weight="bold" y="2.5" class="node-label">U</text></g><g class="noselect gnode" struct_name="m" transform="translate(-2.92,-78.95)" r="6.5"><circle class="node" r="6" node_type="nucleotide" style="fill: lightblue;"></circle><text text-anchor="middle" font-size="8" font-weight="bold" y="2.5" class="node-label">C</text></g><g class="noselect gnode" struct_name="m" transform="translate(2.90,-93.02)" r="6.5"><circle class="node" r="6" node_type="nucleotide" style="fill: lightblue;"></circle><text text-anchor="middle" font-size="8" font-weight="bold" y="2.5" class="node-label">A</text></g><g class="noselect gnode" struct_name="m" transform="translate(17.54,-97.22)" r="6.5"><circle class="node" r="6" node_type="nucleotide" style="fill: lightblue;"></circle><text text-anchor="middle" font-size="8" font-weight="bold" y="2.5" class="node-label">U</text></g><g class="noselect gnode" struct_name="m" transform="translate(29.94,-88.45)" r="6.5"><circle class="node" r="6" node_type="nucleotide" style="fill: lightblue;"></circle><text text-anchor="middle" font-size="8" font-weight="bold" y="2.5" class="node-label">U</text></g><g class="noselect gnode" struct_name="m" transform="translate(30.91,-72.95)" r="6.5"><circle class="node" r="6" node_type="nucleotide" style="fill: lightgreen;"></circle><text text-anchor="middle" font-size="8" font-weight="bold" y="2.5" class="node-label">U</text></g><g class="noselect gnode" struct_name="m" transform="translate(41.24,-60.97)" r="6.5"><circle class="node" r="6" node_type="nucleotide" style="fill: lightgreen;"></circle><text text-anchor="middle" font-size="8" font-weight="bold" y="2.5" class="node-label">G</text></g><g class="noselect gnode" struct_name="m" transform="translate(51.74,-48.97)" r="6.5"><circle class="node" r="6" node_type="nucleotide" style="fill: lightgreen;"></circle><text text-anchor="middle" font-size="8" font-weight="bold" y="2.5" class="node-label">U</text></g><g class="noselect gnode" struct_name="m" transform="translate(62.28,-36.91)" r="6.5"><circle class="node" r="6" node_type="nucleotide" style="fill: lightgreen;"></circle><text text-anchor="middle" font-size="8" font-weight="bold" y="2.5" class="node-label">U</text></g><g class="noselect gnode" struct_name="m" transform="translate(72.92,-24.98)" r="6.5"><circle class="node" r="6" node_type="nucleotide" style="fill: lightgreen;"></circle><text text-anchor="middle" font-size="8" font-weight="bold" y="2.5" class="node-label">U</text></g><g class="noselect gnode" struct_name="m" transform="translate(83.67,-13.13)" r="6.5"><circle class="node" r="6" node_type="nucleotide" style="fill: lightgreen;"></circle><text text-anchor="middle" font-size="8" font-weight="bold" y="2.5" class="node-label">C</text></g><g class="noselect gnode" struct_name="m" transform="translate(94.53,-1.38)" r="6.5"><circle class="node" r="6" node_type="nucleotide" style="fill: lightgreen;"></circle><text text-anchor="middle" font-size="8" font-weight="bold" y="2.5" class="node-label">C</text></g><g class="noselect gnode" struct_name="m" transform="translate(105.36,10.16)" r="6.5"><circle class="node" r="6" node_type="nucleotide" style="fill: lightgreen;"></circle><text text-anchor="middle" font-size="8" font-weight="bold" y="2.5" class="node-label">C</text></g><g class="noselect gnode" struct_name="m" transform="translate(119.93,14.60)" r="6.5"><circle class="node" r="6" node_type="nucleotide" style="fill: rgb(219, 219, 141);"></circle><text text-anchor="middle" font-size="8" font-weight="bold" y="2.5" class="node-label">U</text></g><g class="noselect gnode" struct_name="m" transform="translate(123.26,29.50)" r="6.5"><circle class="node" r="6" node_type="nucleotide" style="fill: lightgreen;"></circle><text text-anchor="middle" font-size="8" font-weight="bold" y="2.5" class="node-label">U</text></g><g class="noselect gnode" struct_name="m" transform="translate(134.04,40.96)" r="6.5"><circle class="node" r="6" node_type="nucleotide" style="fill: lightgreen;"></circle><text text-anchor="middle" font-size="8" font-weight="bold" y="2.5" class="node-label">C</text></g><g class="noselect gnode" struct_name="m" transform="translate(145.27,51.92)" r="6.5"><circle class="node" r="6" node_type="nucleotide" style="fill: lightgreen;"></circle><text text-anchor="middle" font-size="8" font-weight="bold" y="2.5" class="node-label">U</text></g><g class="noselect gnode" struct_name="m" transform="translate(157.08,62.04)" r="6.5"><circle class="node" r="6" node_type="nucleotide" style="fill: lightgreen;"></circle><text text-anchor="middle" font-size="8" font-weight="bold" y="2.5" class="node-label">A</text></g><g class="noselect gnode" struct_name="m" transform="translate(169.60,70.99)" r="6.5"><circle class="node" r="6" node_type="nucleotide" style="fill: lightgreen;"></circle><text text-anchor="middle" font-size="8" font-weight="bold" y="2.5" class="node-label">U</text></g><g class="noselect gnode" struct_name="m" transform="translate(182.88,78.22)" r="6.5"><circle class="node" r="6" node_type="nucleotide" style="fill: lightgreen;"></circle><text text-anchor="middle" font-size="8" font-weight="bold" y="2.5" class="node-label">C</text></g><g class="noselect gnode" struct_name="m" transform="translate(197.12,73.07)" r="6.5"><circle class="node" r="6" node_type="nucleotide" style="fill: rgb(219, 219, 141);"></circle><text text-anchor="middle" font-size="8" font-weight="bold" y="2.5" class="node-label">C</text></g><g class="noselect gnode" struct_name="m" transform="translate(210.83,78.85)" r="6.5"><circle class="node" r="6" node_type="nucleotide" style="fill: rgb(219, 219, 141);"></circle><text text-anchor="middle" font-size="8" font-weight="bold" y="2.5" class="node-label">G</text></g><g class="noselect gnode" struct_name="m" transform="translate(215.91,92.78)" r="6.5"><circle class="node" r="6" node_type="nucleotide" style="fill: rgb(219, 219, 141);"></circle><text text-anchor="middle" font-size="8" font-weight="bold" y="2.5" class="node-label">C</text></g><g class="noselect gnode" struct_name="m" transform="translate(210.05,106.59)" r="6.5"><circle class="node" r="6" node_type="nucleotide" style="fill: lightgreen;"></circle><text text-anchor="middle" font-size="8" font-weight="bold" y="2.5" class="node-label">U</text></g><g class="noselect gnode" struct_name="m" transform="translate(216.69,120.20)" r="6.5"><circle class="node" r="6" node_type="nucleotide" style="fill: lightgreen;"></circle><text text-anchor="middle" font-size="8" font-weight="bold" y="2.5" class="node-label">C</text></g><g class="noselect gnode" struct_name="m" transform="translate(224.77,133.64)" r="6.5"><circle class="node" r="6" node_type="nucleotide" style="fill: lightgreen;"></circle><text text-anchor="middle" font-size="8" font-weight="bold" y="2.5" class="node-label">G</text></g><g class="noselect gnode" struct_name="m" transform="translate(233.48,146.92)" r="6.5"><circle class="node" r="6" node_type="nucleotide" style="fill: lightgreen;"></circle><text text-anchor="middle" font-size="8" font-weight="bold" y="2.5" class="node-label">C</text></g><g class="noselect gnode" struct_name="m" transform="translate(248.61,144.39)" r="6.5"><circle class="node" r="6" node_type="nucleotide" style="fill: lightsalmon;"></circle><text text-anchor="middle" font-size="8" font-weight="bold" y="2.5" class="node-label">U</text></g><g class="noselect gnode" struct_name="m" transform="translate(263.34,147.02)" r="6.5"><circle class="node" r="6" node_type="nucleotide" style="fill: lightsalmon;"></circle><text text-anchor="middle" font-size="8" font-weight="bold" y="2.5" class="node-label">U</text></g><g class="noselect gnode" struct_name="m" transform="translate(276.26,154.71)" r="6.5"><circle class="node" r="6" node_type="nucleotide" style="fill: lightsalmon;"></circle><text text-anchor="middle" font-size="8" font-weight="bold" y="2.5" class="node-label">U</text></g><g class="noselect gnode" struct_name="m" transform="translate(285.42,166.54)" r="6.5"><circle class="node" r="6" node_type="nucleotide" style="fill: lightsalmon;"></circle><text text-anchor="middle" font-size="8" font-weight="bold" y="2.5" class="node-label">U</text></g><g class="noselect gnode" struct_name="m" transform="translate(289.79,180.71)" r="6.5"><circle class="node" r="6" node_type="nucleotide" style="fill: lightsalmon;"></circle><text text-anchor="middle" font-size="8" font-weight="bold" y="2.5" class="node-label">A</text></g><g class="noselect gnode" struct_name="m" transform="translate(288.66,195.56)" r="6.5"><circle class="node" r="6" node_type="nucleotide" style="fill: lightsalmon;"></circle><text text-anchor="middle" font-size="8" font-weight="bold" y="2.5" class="node-label">U</text></g><g class="noselect gnode" struct_name="m" transform="translate(282.29,208.98)" r="6.5"><circle class="node" r="6" node_type="nucleotide" style="fill: lightsalmon;"></circle><text text-anchor="middle" font-size="8" font-weight="bold" y="2.5" class="node-label">G</text></g><g class="noselect gnode" struct_name="m" transform="translate(271.57,219.26)" r="6.5"><circle class="node" r="6" node_type="nucleotide" style="fill: lightsalmon;"></circle><text text-anchor="middle" font-size="8" font-weight="bold" y="2.5" class="node-label">U</text></g><g class="noselect gnode" struct_name="m" transform="translate(257.99,225.26)" r="6.5"><circle class="node" r="6" node_type="nucleotide" style="fill: lightsalmon;"></circle><text text-anchor="middle" font-size="8" font-weight="bold" y="2.5" class="node-label">U</text></g><g class="noselect gnode" struct_name="m" transform="translate(243.15,226.06)" r="6.5"><circle class="node" r="6" node_type="nucleotide" style="fill: lightsalmon;"></circle><text text-anchor="middle" font-size="8" font-weight="bold" y="2.5" class="node-label">U</text></g><g class="noselect gnode" struct_name="m" transform="translate(229.06,221.35)" r="6.5"><circle class="node" r="6" node_type="nucleotide" style="fill: lightsalmon;"></circle><text text-anchor="middle" font-size="8" font-weight="bold" y="2.5" class="node-label">U</text></g><g class="noselect gnode" struct_name="m" transform="translate(217.58,211.89)" r="6.5"><circle class="node" r="6" node_type="nucleotide" style="fill: lightsalmon;"></circle><text text-anchor="middle" font-size="8" font-weight="bold" y="2.5" class="node-label">G</text></g><g class="noselect gnode" struct_name="m" transform="translate(210.15,199.07)" r="6.5"><circle class="node" r="6" node_type="nucleotide" style="fill: lightsalmon;"></circle><text text-anchor="middle" font-size="8" font-weight="bold" y="2.5" class="node-label">U</text></g><g class="noselect gnode" struct_name="m" transform="translate(112.52,62.16)" r="6.5"><circle class="node label" r="6" node_type="label"></circle><text text-anchor="middle" font-size="8" font-weight="bold" y="2.5" class="node-label">10</text></g><g class="noselect gnode" struct_name="m" transform="translate(7.13,-53.89)" r="6.5"><circle class="node label" r="6" node_type="label"></circle><text text-anchor="middle" font-size="8" font-weight="bold" y="2.5" class="node-label">20</text></g><g class="noselect gnode" struct_name="m" transform="translate(84.12,-35.87)" r="6.5"><circle class="node label" r="6" node_type="label"></circle><text text-anchor="middle" font-size="8" font-weight="bold" y="2.5" class="node-label">30</text></g><g class="noselect gnode" struct_name="m" transform="translate(189.23,64.04)" r="6.5"><circle class="node label" r="6" node_type="label"></circle><text text-anchor="middle" font-size="8" font-weight="bold" y="2.5" class="node-label">40</text></g><g class="noselect gnode" struct_name="m" transform="translate(290.59,148.78)" r="6.5"><circle class="node label" r="6" node_type="label"></circle><text text-anchor="middle" font-size="8" font-weight="bold" y="2.5" class="node-label">50</text></g><g class="noselect gnode" struct_name="m" transform="translate(199.27,210.17)" r="6.5"><circle class="node label" r="6" node_type="label"></circle><text text-anchor="middle" font-size="8" font-weight="bold" y="2.5" class="node-label">60</text></g><g class="noselect gnode" transform="translate(172.50,81.43)" r="6.5"><circle class="node" r="0" node_type="middle"></circle><text text-anchor="middle" font-size="8" font-weight="bold" y="2.5" class="node-label"></text></g><g class="noselect gnode" transform="translate(158.91,72.79)" r="6.5"><circle class="node" r="0" node_type="middle"></circle><text text-anchor="middle" font-size="8" font-weight="bold" y="2.5" class="node-label"></text></g><g class="noselect gnode" transform="translate(146.27,62.77)" r="6.5"><circle class="node" r="0" node_type="middle"></circle><text text-anchor="middle" font-size="8" font-weight="bold" y="2.5" class="node-label"></text></g><g class="noselect gnode" transform="translate(134.44,51.83)" r="6.5"><circle class="node" r="0" node_type="middle"></circle><text text-anchor="middle" font-size="8" font-weight="bold" y="2.5" class="node-label"></text></g><g class="noselect gnode" transform="translate(123.26,40.37)" r="6.5"><circle class="node" r="0" node_type="middle"></circle><text text-anchor="middle" font-size="8" font-weight="bold" y="2.5" class="node-label"></text></g><g class="noselect gnode" transform="translate(94.55,9.40)" r="6.5"><circle class="node" r="0" node_type="middle"></circle><text text-anchor="middle" font-size="8" font-weight="bold" y="2.5" class="node-label"></text></g><g class="noselect gnode" transform="translate(83.72,-2.30)" r="6.5"><circle class="node" r="0" node_type="middle"></circle><text text-anchor="middle" font-size="8" font-weight="bold" y="2.5" class="node-label"></text></g><g class="noselect gnode" transform="translate(72.86,-14.12)" r="6.5"><circle class="node" r="0" node_type="middle"></circle><text text-anchor="middle" font-size="8" font-weight="bold" y="2.5" class="node-label"></text></g><g class="noselect gnode" transform="translate(62.10,-26.07)" r="6.5"><circle class="node" r="0" node_type="middle"></circle><text text-anchor="middle" font-size="8" font-weight="bold" y="2.5" class="node-label"></text></g><g class="noselect gnode" transform="translate(51.50,-38.10)" r="6.5"><circle class="node" r="0" node_type="middle"></circle><text text-anchor="middle" font-size="8" font-weight="bold" y="2.5" class="node-label"></text></g><g class="noselect gnode" transform="translate(41.02,-50.13)" r="6.5"><circle class="node" r="0" node_type="middle"></circle><text text-anchor="middle" font-size="8" font-weight="bold" y="2.5" class="node-label"></text></g><g class="noselect gnode" transform="translate(30.50,-62.14)" r="6.5"><circle class="node" r="0" node_type="middle"></circle><text text-anchor="middle" font-size="8" font-weight="bold" y="2.5" class="node-label"></text></g><g class="noselect gnode" transform="translate(222.94,144.37)" r="6.5"><circle class="node" r="0" node_type="middle"></circle><text text-anchor="middle" font-size="8" font-weight="bold" y="2.5" class="node-label"></text></g><g class="noselect gnode" transform="translate(214.28,130.74)" r="6.5"><circle class="node" r="0" node_type="middle"></circle><text text-anchor="middle" font-size="8" font-weight="bold" y="2.5" class="node-label"></text></g><g class="noselect gnode" transform="translate(206.41,116.77)" r="6.5"><circle class="node" r="0" node_type="middle"></circle><text text-anchor="middle" font-size="8" font-weight="bold" y="2.5" class="node-label"></text></g><g class="noselect gnode" transform="translate(207.30,184.63)" r="6.5"><circle class="node" r="0" node_type="middle"></circle><text text-anchor="middle" font-size="8" font-weight="bold" y="2.5" class="node-label"></text></g><g class="noselect gnode" transform="translate(210.20,169.99)" r="6.5"><circle class="node" r="0" node_type="middle"></circle><text text-anchor="middle" font-size="8" font-weight="bold" y="2.5" class="node-label"></text></g><g class="noselect gnode" transform="translate(248.81,185.24)" r="6.5"><circle class="node" r="0" node_type="middle"></circle><text text-anchor="middle" font-size="8" font-weight="bold" y="2.5" class="node-label"></text></g><g class="noselect gnode" transform="translate(14.72,-79.84)" r="6.5"><circle class="node" r="0" node_type="middle"></circle><text text-anchor="middle" font-size="8" font-weight="bold" y="2.5" class="node-label"></text></g><g class="noselect gnode" transform="translate(108.88,24.87)" r="6.5"><circle class="node" r="0" node_type="middle"></circle><text text-anchor="middle" font-size="8" font-weight="bold" y="2.5" class="node-label"></text></g><g class="noselect gnode" transform="translate(196.29,92.65)" r="6.5"><circle class="node" r="0" node_type="middle"></circle><text text-anchor="middle" font-size="8" font-weight="bold" y="2.5" class="node-label"></text></g></g><line class="drag_line" x1="0" y1="0" x2="0" y2="0"></line></g></g></svg>