<svg xmlns="http://www.w3.org/2000/svg" viewBox="0 0 760 640" width="760" height="640"><style>svg {
  display: block;
  min-width: 100%;
  width: 100%;
  min-height: 100%;
}

circle.node {
  stroke: #ccc;
  stroke-width: 1px;
  opacity: 1;
  fill: white;
}

circle.node.label {
    stroke: transparent;
    stroke-width: 0;
    fill: white;
}

circle.outline_node {
    stroke-width: 1px;
    fill: red;
}

circle.protein {
    fill: gray;
    fill-opacity: 0.5;
    stroke-width: 4;
}

circle.hidden_outline {
    stroke-width: 0px;
}


line.link {
  stroke: #999;
  stroke-opacity: 0.8;
  stroke-width: 2;
}

line.basepair {
  stroke: red;
}

line.intermolecule {
  stroke: blue;
}

line.chain_chain {
  stroke-dasharray: 3,3;
}

line.fake {
  stroke: green;
}

.transparent {
    fill: transparent;
    stroke-width: 0;
    stroke-opacity: 0;
    opacity: 0;
    visibility: hidden;
}

.drag_line {
  stroke: #999;
  stroke-width: 2;
  pointer-events: none;
}

.drag_line_hidden {
  stroke: #999;
  stroke-width: 0;
  pointer-events: none;
}

.d3-tip {
    line-height: 1;
    font-weight: bold;
    padding: 6px;
    background: rgba(0, 0, 0, 0.6);
    color: #fff;
    border-radius: 4px;
    pointer-events: none;
          }

text.node-label {
    font-weight: bold;
    font-family: Tahoma, Geneva, sans-serif;
    color: rgb(100,100,100);
    pointer-events: none;
}

text {
    pointer-events: none;
}

g.gnode {

}

circle.outline_node.selected {
    visibility: visible;
}

circle.outline_node {
    visibility: hidden;
}

.brush .extent {
  fill-opacity: .1;
  stroke: #fff;
  shape-rendering: crispEdges;
}

.noselect {
    -webkit-touch-callout: none;
    -webkit-user-select: none;
    -khtml-user-select: none;
    -moz-user-select: none;
    -ms-user-select: none;
    user-select: none;
}

svg {
  display: block;
  min-width: 100%;
  width: 100%;
  min-height: 100%;
}

circle.node {
  stroke: #ccc;
  stroke-width: 1px;
  opacity: 1;
  fill: white;
}

circle.node.label {
    stroke: transparent;
    stroke-width: 0;
    fill: white;
}

circle.outline_node {
    stroke-width: 1px;
    fill: red;
}

circle.protein {
    fill: gray;
    fill-opacity: 0.5;
    stroke-width: 4;
}

circle.hidden_outline {
    stroke-width: 0px;
}


line.link {
  stroke: #999;
  stroke-opacity: 0.8;
  stroke-width: 2;
}

line.basepair {
  stroke: red;
}

line.intermolecule {
  stroke: blue;
}

line.chain_chain {
  stroke-dasharray: 3,3;
}

line.fake {
  stroke: green;
}

.transparent {
    fill: transparent;
    stroke-width: 0;
    stroke-opacity: 0;
    opacity: 0;
    visibility: hidden;
}

.drag_line {
  stroke: #999;
  stroke-width: 2;
  pointer-events: none;
}

.drag_line_hidden {
  stroke: #999;
  stroke-width: 0;
  pointer-events: none;
}

.d3-tip {
    line-height: 1;
    font-weight: bold;
    padding: 6px;
    background: rgba(0, 0, 0, 0.6);
    color: #fff;
    border-radius: 4px;
    pointer-events: none;
          }

text.node-label {
    font-weight: bold;
    font-family: Tahoma, Geneva, sans-serif;
    color: rgb(100,100,100);
    pointer-events: none;
}

text {
    pointer-events: none;
}

g.gnode {

}

circle.outline_node.selected {
    visibility: visible;
}

circle.outline_node {
    visibility: hidden;
}

.brush .extent {
  fill-opacity: .1;
  stroke: #fff;
  shape-rendering: crispEdges;
}

.noselect {
    -webkit-touch-callout: none;
    -webkit-user-select: none;
    -khtml-user-select: none;
    -moz-user-select: none;
    -ms-user-select: none;
    user-select: none;
}
/*# sourceURL=/Users/yumanakamura/ipy_sandbox/sandbox/claude_sandbox/mrna-transformer/scripts/eval/prerender/forna_vendor/fornac.css*/</style><style></style><g><g class="brush" style="pointer-events: all; -webkit-tap-highlight-color: rgba(0, 0, 0, 0);"><rect class="background" x="0" width="760" y="0" height="640" style="visibility: hidden; cursor: auto;"></rect><rect class="extent" x="0" width="0" y="0" height="0" style="cursor: move;"></rect><g class="resize n" transform="translate(0,0)" style="cursor: ns-resize; display: none;"><rect y="-3" width="0" height="6" style="visibility: hidden;"></rect></g><g class="resize e" transform="translate(0,0)" style="cursor: ew-resize; display: none;"><rect x="-3" width="6" height="0" style="visibility: hidden;"></rect></g><g class="resize s" transform="translate(0,0)" style="cursor: ns-resize; display: none;"><rect y="-3" width="0" height="6" style="visibility: hidden;"></rect></g><g class="resize w" transform="translate(0,0)" style="cursor: ew-resize; display: none;"><rect x="-3" width="6" height="0" style="visibility: hidden;"></rect></g><g class="resize nw" transform="translate(0,0)" style="cursor: nwse-resize; display: none;"><rect x="-3" y="-3" width="6" height="6" style="visibility: hidden;"></rect></g><g class="resize ne" transform="translate(0,0)" style="cursor: nesw-resize; display: none;"><rect x="-3" y="-3" width="6" height="6" style="visibility: hidden;"></rect></g><g class="resize se" transform="translate(0,0)" style="cursor: nwse-resize; display: none;"><rect x="-3" y="-3" width="6" height="6" style="visibility: hidden;"></rect></g><g class="resize sw" transform="translate(0,0)" style="cursor: nesw-resize; display: none;"><rect x="-3" y="-3" width="6" height="6" style="visibility: hidden;"></rect></g></g><g transform="translate(340.59,247.17) scale(1.25)"><g><line class="link basepair" x1="47.14" y1="231.41" x2="61.85" y2="228.38"></line><line class="link basepair" x1="43.81" y1="216.53" x2="58.08" y2="212.86"></line><line class="link backbone" x1="47.14" y1="231.41" x2="43.81" y2="216.53"></line><line class="link basepair" x1="39.63" y1="201.67" x2="53.68" y2="197.33"></line><line class="link backbone" x1="43.81" y1="216.53" x2="39.63" y2="201.67"></line><line class="link basepair" x1="34.70" y1="187.00" x2="48.48" y2="181.96"></line><line class="link backbone" x1="39.63" y1="201.67" x2="34.70" y2="187.00"></line><line class="link basepair" x1="28.99" y1="172.58" x2="42.37" y2="166.74"></line><line class="link backbone" x1="34.70" y1="187.00" x2="28.99" y2="172.58"></line><line class="link basepair" x1="22.28" y1="158.91" x2="35.39" y2="151.81"></line><line class="link backbone" x1="28.99" y1="172.58" x2="22.28" y2="158.91"></line><line class="link backbone" x1="22.28" y1="158.91" x2="10.69" y2="148.81"></line><line class="link basepair" x1="16.96" y1="134.76" x2="31.78" y2="135.60"></line><line class="link backbone" x1="10.69" y1="148.81" x2="16.96" y2="134.76"></line><line class="link basepair" x1="16.90" y1="119.85" x2="31.78" y2="118.91"></line><line class="link backbone" x1="16.96" y1="134.76" x2="16.90" y2="119.85"></line><line class="link backbone" x1="16.90" y1="119.85" x2="6.27" y2="108.77"></line><line class="link backbone" x1="6.27" y1="108.77" x2="8.27" y2="93.81"></line><line class="link basepair" x1="21.40" y1="86.01" x2="35.57" y2="90.63"></line><line class="link backbone" x1="8.27" y1="93.81" x2="21.40" y2="86.01"></line><line class="link basepair" x1="25.05" y1="71.70" x2="39.37" y2="73.97"></line><line class="link backbone" x1="21.40" y1="86.01" x2="25.05" y2="71.70"></line><line class="link basepair" x1="26.11" y1="56.87" x2="40.62" y2="56.64"></line><line class="link backbone" x1="25.05" y1="71.70" x2="26.11" y2="56.87"></line><line class="link basepair" x1="24.55" y1="42.15" x2="38.80" y2="39.33"></line><line class="link backbone" x1="26.11" y1="56.87" x2="24.55" y2="42.15"></line><line class="link basepair" x1="20.38" y1="28.03" x2="33.83" y2="22.64"></line><line class="link backbone" x1="24.55" y1="42.15" x2="20.38" y2="28.03"></line><line class="link basepair" x1="13.67" y1="15.18" x2="25.85" y2="6.93"></line><line class="link backbone" x1="20.38" y1="28.03" x2="13.67" y2="15.18"></line><line class="link backbone" x1="13.67" y1="15.18" x2="-0.08" y2="9.50"></line><line class="link backbone" x1="-0.08" y1="9.50" x2="-2.16" y2="-4.98"></line><line class="link basepair" x1="9.40" y1="-14.41" x2="23.42" y2="-9.85"></line><line class="link backbone" x1="-2.16" y1="-4.98" x2="9.40" y2="-14.41"></line><line class="link basepair" x1="12.52" y1="-28.80" x2="26.81" y2="-27.01"></line><line class="link backbone" x1="9.40" y1="-14.41" x2="12.52" y2="-28.80"></line><line class="link basepair" x1="12.98" y1="-43.67" x2="27.78" y2="-44.25"></line><line class="link backbone" x1="12.52" y1="-28.80" x2="12.98" y2="-43.67"></line><line class="link backbone" x1="12.98" y1="-43.67" x2="6.82" y2="-57.70"></line><line class="link basepair" x1="18.39" y1="-67.73" x2="31.49" y2="-60.87"></line><line class="link backbone" x1="6.82" y1="-57.70" x2="18.39" y2="-67.73"></line><line class="link basepair" x1="24.39" y1="-81.46" x2="38.06" y2="-76.62"></line><line class="link backbone" x1="18.39" y1="-67.73" x2="24.39" y2="-81.46"></line><line class="link basepair" x1="28.66" y1="-96.16" x2="42.82" y2="-92.79"></line><line class="link backbone" x1="24.39" y1="-81.46" x2="28.66" y2="-96.16"></line><line class="link basepair" x1="31.33" y1="-111.15" x2="46.10" y2="-108.94"></line><line class="link backbone" x1="28.66" y1="-96.16" x2="31.33" y2="-111.15"></line><line class="link backbone" x1="31.33" y1="-111.15" x2="20.23" y2="-121.58"></line><line class="link backbone" x1="20.23" y1="-121.58" x2="17.14" y2="-136.18"></line><line class="link backbone" x1="17.14" y1="-136.18" x2="23.45" y2="-149.91"></line><line class="link backbone" x1="23.45" y1="-149.91" x2="36.67" y2="-156.89"></line><line class="link backbone" x1="36.67" y1="-156.89" x2="51.53" y2="-155.44"></line><line class="link backbone" x1="51.53" y1="-155.44" x2="62.71" y2="-145.36"></line><line class="link backbone" x1="62.71" y1="-145.36" x2="65.50" y2="-130.50"></line><line class="link backbone" x1="65.50" y1="-130.50" x2="59.32" y2="-116.96"></line><line class="link basepair" x1="46.10" y1="-108.94" x2="31.33" y2="-111.15"></line><line class="link backbone" x1="59.32" y1="-116.96" x2="46.10" y2="-108.94"></line><line class="link basepair" x1="42.82" y1="-92.79" x2="28.66" y2="-96.16"></line><line class="link backbone" x1="46.10" y1="-108.94" x2="42.82" y2="-92.79"></line><line class="link basepair" x1="38.06" y1="-76.62" x2="24.39" y2="-81.46"></line><line class="link backbone" x1="42.82" y1="-92.79" x2="38.06" y2="-76.62"></line><line class="link basepair" x1="31.49" y1="-60.87" x2="18.39" y2="-67.73"></line><line class="link backbone" x1="38.06" y1="-76.62" x2="31.49" y2="-60.87"></line><line class="link basepair" x1="27.78" y1="-44.25" x2="12.98" y2="-43.67"></line><line class="link backbone" x1="31.49" y1="-60.87" x2="27.78" y2="-44.25"></line><line class="link basepair" x1="26.81" y1="-27.01" x2="12.52" y2="-28.80"></line><line class="link backbone" x1="27.78" y1="-44.25" x2="26.81" y2="-27.01"></line><line class="link basepair" x1="23.42" y1="-9.85" x2="9.40" y2="-14.41"></line><line class="link backbone" x1="26.81" y1="-27.01" x2="23.42" y2="-9.85"></line><line class="link basepair" x1="25.85" y1="6.93" x2="13.67" y2="15.18"></line><line class="link backbone" x1="23.42" y1="-9.85" x2="25.85" y2="6.93"></line><line class="link basepair" x1="33.83" y1="22.64" x2="20.38" y2="28.03"></line><line class="link backbone" x1="25.85" y1="6.93" x2="33.83" y2="22.64"></line><line class="link basepair" x1="38.80" y1="39.33" x2="24.55" y2="42.15"></line><line class="link backbone" x1="33.83" y1="22.64" x2="38.80" y2="39.33"></line><line class="link basepair" x1="40.62" y1="56.64" x2="26.11" y2="56.87"></line><line class="link backbone" x1="38.80" y1="39.33" x2="40.62" y2="56.64"></line><line class="link basepair" x1="39.37" y1="73.97" x2="25.05" y2="71.70"></line><line class="link backbone" x1="40.62" y1="56.64" x2="39.37" y2="73.97"></line><line class="link basepair" x1="35.57" y1="90.63" x2="21.40" y2="86.01"></line><line class="link backbone" x1="39.37" y1="73.97" x2="35.57" y2="90.63"></line><line class="link backbone" x1="35.57" y1="90.63" x2="40.35" y2="105.60"></line><line class="link basepair" x1="31.78" y1="118.91" x2="16.90" y2="119.85"></line><line class="link backbone" x1="40.35" y1="105.60" x2="31.78" y2="118.91"></line><line class="link basepair" x1="31.78" y1="135.60" x2="16.96" y2="134.76"></line><line class="link backbone" x1="31.78" y1="118.91" x2="31.78" y2="135.60"></line><line class="link basepair" x1="35.39" y1="151.81" x2="22.28" y2="158.91"></line><line class="link backbone" x1="31.78" y1="135.60" x2="35.39" y2="151.81"></line><line class="link basepair" x1="42.37" y1="166.74" x2="28.99" y2="172.58"></line><line class="link backbone" x1="35.39" y1="151.81" x2="42.37" y2="166.74"></line><line class="link basepair" x1="48.48" y1="181.96" x2="34.70" y2="187.00"></line><line class="link backbone" x1="42.37" y1="166.74" x2="48.48" y2="181.96"></line><line class="link basepair" x1="53.68" y1="197.33" x2="39.63" y2="201.67"></line><line class="link backbone" x1="48.48" y1="181.96" x2="53.68" y2="197.33"></line><line class="link basepair" x1="58.08" y1="212.86" x2="43.81" y2="216.53"></line><line class="link backbone" x1="53.68" y1="197.33" x2="58.08" y2="212.86"></line><line class="link basepair" x1="61.85" y1="228.38" x2="47.14" y2="231.41"></line><line class="link backbone" x1="58.08" y1="212.86" x2="61.85" y2="228.38"></line><line class="link backbone" x1="61.85" y1="228.38" x2="73.38" y2="238.61"></line><line class="link backbone" x1="73.38" y1="238.61" x2="73.23" y2="253.51"></line><line class="link backbone" x1="73.23" y1="253.51" x2="61.74" y2="262.99"></line><line class="link label_link" x1="6.27" y1="108.77" x2="-9.31" y2="109.73"></line><line class="link label_link" x1="9.40" y1="-14.41" x2="-6.11" y2="-16.31"></line><line class="link label_link" x1="23.45" y1="-149.91" x2="11.37" y2="-159.57"></line><line class="link label_link" x1="27.78" y1="-44.25" x2="43.02" y2="-41.00"></line><line class="link label_link" x1="31.78" y1="118.91" x2="47.32" y2="119.36"></line><line class="link label_link" x1="61.74" y1="262.99" x2="57.56" y2="277.88"></line><line class="link fake transparent" x1="21.40" y1="86.01" x2="30.93" y2="80.81"></line><line class="link fake transparent" x1="21.40" y1="86.01" x2="39.37" y2="73.97"></line><line class="link fake transparent" x1="25.05" y1="71.70" x2="30.93" y2="80.81"></line><line class="link fake transparent" x1="39.37" y1="73.97" x2="30.93" y2="80.81"></line><line class="link fake transparent" x1="35.57" y1="90.63" x2="30.93" y2="80.81"></line><line class="link fake transparent" x1="25.05" y1="71.70" x2="33.51" y2="64.85"></line><line class="link fake transparent" x1="26.11" y1="56.87" x2="33.51" y2="64.85"></line><line class="link fake transparent" x1="40.62" y1="56.64" x2="33.51" y2="64.85"></line><line class="link fake transparent" x1="39.37" y1="73.97" x2="33.51" y2="64.85"></line><line class="link fake transparent" x1="26.11" y1="56.87" x2="33.27" y2="48.67"></line><line class="link fake transparent" x1="24.55" y1="42.15" x2="33.27" y2="48.67"></line><line class="link fake transparent" x1="38.80" y1="39.33" x2="33.27" y2="48.67"></line><line class="link fake transparent" x1="40.62" y1="56.64" x2="33.27" y2="48.67"></line><line class="link fake transparent" x1="24.55" y1="42.15" x2="30.11" y2="32.86"></line><line class="link fake transparent" x1="20.38" y1="28.03" x2="30.11" y2="32.86"></line><line class="link fake transparent" x1="33.83" y1="22.64" x2="30.11" y2="32.86"></line><line class="link fake transparent" x1="38.80" y1="39.33" x2="30.11" y2="32.86"></line><line class="link fake transparent" x1="20.38" y1="28.03" x2="24.14" y2="17.90"></line><line class="link fake transparent" x1="13.67" y1="15.18" x2="24.14" y2="17.90"></line><line class="link fake transparent" x1="25.85" y1="6.93" x2="24.14" y2="17.90"></line><line class="link fake transparent" x1="33.83" y1="22.64" x2="24.14" y2="17.90"></line><line class="link fake transparent" x1="9.40" y1="-14.41" x2="18.69" y2="-19.92"></line><line class="link fake transparent" x1="12.52" y1="-28.80" x2="18.69" y2="-19.92"></line><line class="link fake transparent" x1="26.81" y1="-27.01" x2="18.69" y2="-19.92"></line><line class="link fake transparent" x1="23.42" y1="-9.85" x2="18.69" y2="-19.92"></line><line class="link fake transparent" x1="12.52" y1="-28.80" x2="20.56" y2="-35.95"></line><line class="link fake transparent" x1="12.98" y1="-43.67" x2="20.56" y2="-35.95"></line><line class="link fake transparent" x1="27.78" y1="-44.25" x2="20.56" y2="-35.95"></line><line class="link fake transparent" x1="26.81" y1="-27.01" x2="20.56" y2="-35.95"></line><line class="link fake transparent" x1="18.39" y1="-67.73" x2="28.53" y2="-71.46"></line><line class="link fake transparent" x1="24.39" y1="-81.46" x2="28.53" y2="-71.46"></line><line class="link fake transparent" x1="38.06" y1="-76.62" x2="28.53" y2="-71.46"></line><line class="link fake transparent" x1="31.49" y1="-60.87" x2="28.53" y2="-71.46"></line><line class="link fake transparent" x1="24.39" y1="-81.46" x2="33.90" y2="-86.66"></line><line class="link fake transparent" x1="28.66" y1="-96.16" x2="33.90" y2="-86.66"></line><line class="link fake transparent" x1="42.82" y1="-92.79" x2="33.90" y2="-86.66"></line><line class="link fake transparent" x1="38.06" y1="-76.62" x2="33.90" y2="-86.66"></line><line class="link fake transparent" x1="28.66" y1="-96.16" x2="37.58" y2="-102.27"></line><line class="link fake transparent" x1="31.33" y1="-111.15" x2="37.58" y2="-102.27"></line><line class="link fake transparent" x1="46.10" y1="-108.94" x2="37.58" y2="-102.27"></line><line class="link fake transparent" x1="42.82" y1="-92.79" x2="37.58" y2="-102.27"></line><line class="link fake transparent" x1="47.14" y1="231.41" x2="52.91" y2="222.38"></line><line class="link fake transparent" x1="43.81" y1="216.53" x2="52.91" y2="222.38"></line><line class="link fake transparent" x1="58.08" y1="212.86" x2="52.91" y2="222.38"></line><line class="link fake transparent" x1="61.85" y1="228.38" x2="52.91" y2="222.38"></line><line class="link fake transparent" x1="43.81" y1="216.53" x2="49.00" y2="207.09"></line><line class="link fake transparent" x1="39.63" y1="201.67" x2="49.00" y2="207.09"></line><line class="link fake transparent" x1="53.68" y1="197.33" x2="49.00" y2="207.09"></line><line class="link fake transparent" x1="58.08" y1="212.86" x2="49.00" y2="207.09"></line><line class="link fake transparent" x1="39.63" y1="201.67" x2="44.34" y2="191.97"></line><line class="link fake transparent" x1="34.70" y1="187.00" x2="44.34" y2="191.97"></line><line class="link fake transparent" x1="48.48" y1="181.96" x2="44.34" y2="191.97"></line><line class="link fake transparent" x1="53.68" y1="197.33" x2="44.34" y2="191.97"></line><line class="link fake transparent" x1="34.70" y1="187.00" x2="38.86" y2="177.01"></line><line class="link fake transparent" x1="28.99" y1="172.58" x2="38.86" y2="177.01"></line><line class="link fake transparent" x1="42.37" y1="166.74" x2="38.86" y2="177.01"></line><line class="link fake transparent" x1="48.48" y1="181.96" x2="38.86" y2="177.01"></line><line class="link fake transparent" x1="28.99" y1="172.58" x2="32.49" y2="162.34"></line><line class="link fake transparent" x1="22.28" y1="158.91" x2="32.49" y2="162.34"></line><line class="link fake transparent" x1="35.39" y1="151.81" x2="32.49" y2="162.34"></line><line class="link fake transparent" x1="42.37" y1="166.74" x2="32.49" y2="162.34"></line><line class="link fake transparent" x1="16.96" y1="134.76" x2="24.71" y2="127.26"></line><line class="link fake transparent" x1="16.90" y1="119.85" x2="24.71" y2="127.26"></line><line class="link fake transparent" x1="31.78" y1="118.91" x2="24.71" y2="127.26"></line><line class="link fake transparent" x1="31.78" y1="135.60" x2="24.71" y2="127.26"></line><line class="link fake transparent" x1="47.14" y1="231.41" x2="57.66" y2="245.54"></line><line class="link fake transparent" x1="47.14" y1="231.41" x2="73.23" y2="253.51"></line><line class="link fake transparent" x1="61.85" y1="228.38" x2="57.66" y2="245.54"></line><line class="link fake transparent" x1="61.85" y1="228.38" x2="61.74" y2="262.99"></line><line class="link fake transparent" x1="73.38" y1="238.61" x2="57.66" y2="245.54"></line><line class="link fake transparent" x1="73.38" y1="238.61" x2="48.04" y2="263.04"></line><line class="link fake transparent" x1="73.23" y1="253.51" x2="57.66" y2="245.54"></line><line class="link fake transparent" x1="73.23" y1="253.51" x2="37.59" y2="252.31"></line><line class="link fake transparent" x1="61.74" y1="262.99" x2="57.66" y2="245.54"></line><line class="link fake transparent" x1="61.74" y1="262.99" x2="47.14" y2="231.41"></line><line class="link fake transparent" x1="31.33" y1="-111.15" x2="41.41" y2="-133.16"></line><line class="link fake transparent" x1="31.33" y1="-111.15" x2="51.53" y2="-155.44"></line><line class="link fake transparent" x1="20.23" y1="-121.58" x2="41.41" y2="-133.16"></line><line class="link fake transparent" x1="20.23" y1="-121.58" x2="62.71" y2="-145.36"></line><line class="link fake transparent" x1="17.14" y1="-136.18" x2="41.41" y2="-133.16"></line><line class="link fake transparent" x1="17.14" y1="-136.18" x2="65.50" y2="-130.50"></line><line class="link fake transparent" x1="23.45" y1="-149.91" x2="41.41" y2="-133.16"></line><line class="link fake transparent" x1="23.45" y1="-149.91" x2="59.32" y2="-116.96"></line><line class="link fake transparent" x1="36.67" y1="-156.89" x2="41.41" y2="-133.16"></line><line class="link fake transparent" x1="36.67" y1="-156.89" x2="46.10" y2="-108.94"></line><line class="link fake transparent" x1="51.53" y1="-155.44" x2="41.41" y2="-133.16"></line><line class="link fake transparent" x1="51.53" y1="-155.44" x2="31.33" y2="-111.15"></line><line class="link fake transparent" x1="62.71" y1="-145.36" x2="41.41" y2="-133.16"></line><line class="link fake transparent" x1="62.71" y1="-145.36" x2="20.23" y2="-121.58"></line><line class="link fake transparent" x1="65.50" y1="-130.50" x2="41.41" y2="-133.16"></line><line class="link fake transparent" x1="65.50" y1="-130.50" x2="17.14" y2="-136.18"></line><line class="link fake transparent" x1="59.32" y1="-116.96" x2="41.41" y2="-133.16"></line><line class="link fake transparent" x1="59.32" y1="-116.96" x2="23.45" y2="-149.91"></line><line class="link fake transparent" x1="46.10" y1="-108.94" x2="41.41" y2="-133.16"></line><line class="link fake transparent" x1="46.10" y1="-108.94" x2="36.67" y2="-156.89"></line><line class="link fake transparent" x1="13.67" y1="15.18" x2="12.22" y2="0.31"></line><line class="link fake transparent" x1="13.67" y1="15.18" x2="9.40" y2="-14.41"></line><line class="link fake transparent" x1="-0.08" y1="9.50" x2="12.22" y2="0.31"></line><line class="link fake transparent" x1="-0.08" y1="9.50" x2="23.42" y2="-9.85"></line><line class="link fake transparent" x1="-2.16" y1="-4.98" x2="12.22" y2="0.31"></line><line class="link fake transparent" x1="-2.16" y1="-4.98" x2="25.85" y2="6.93"></line><line class="link fake transparent" x1="9.40" y1="-14.41" x2="12.22" y2="0.31"></line><line class="link fake transparent" x1="9.40" y1="-14.41" x2="13.67" y2="15.18"></line><line class="link fake transparent" x1="23.42" y1="-9.85" x2="12.22" y2="0.31"></line><line class="link fake transparent" x1="23.42" y1="-9.85" x2="-0.08" y2="9.50"></line><line class="link fake transparent" x1="25.85" y1="6.93" x2="12.22" y2="0.31"></line><line class="link fake transparent" x1="25.85" y1="6.93" x2="-2.16" y2="-4.98"></line><line class="link fake transparent" x1="12.98" y1="-43.67" x2="19.92" y2="-54.76"></line><line class="link fake transparent" x1="12.98" y1="-43.67" x2="18.39" y2="-67.73"></line><line class="link fake transparent" x1="6.82" y1="-57.70" x2="19.92" y2="-54.76"></line><line class="link fake transparent" x1="6.82" y1="-57.70" x2="31.49" y2="-60.87"></line><line class="link fake transparent" x1="18.39" y1="-67.73" x2="19.92" y2="-54.76"></line><line class="link fake transparent" x1="18.39" y1="-67.73" x2="27.78" y2="-44.25"></line><line class="link fake transparent" x1="31.49" y1="-60.87" x2="19.92" y2="-54.76"></line><line class="link fake transparent" x1="31.49" y1="-60.87" x2="12.98" y2="-43.67"></line><line class="link fake transparent" x1="27.78" y1="-44.25" x2="19.92" y2="-54.76"></line><line class="link fake transparent" x1="27.78" y1="-44.25" x2="6.82" y2="-57.70"></line><line class="link fake transparent" x1="22.28" y1="158.91" x2="23.72" y2="145.91"></line><line class="link fake transparent" x1="22.28" y1="158.91" x2="16.96" y2="134.76"></line><line class="link fake transparent" x1="10.69" y1="148.81" x2="23.72" y2="145.91"></line><line class="link fake transparent" x1="10.69" y1="148.81" x2="31.78" y2="135.60"></line><line class="link fake transparent" x1="16.96" y1="134.76" x2="23.72" y2="145.91"></line><line class="link fake transparent" x1="16.96" y1="134.76" x2="35.39" y2="151.81"></line><line class="link fake transparent" x1="31.78" y1="135.60" x2="23.72" y2="145.91"></line><line class="link fake transparent" x1="31.78" y1="135.60" x2="22.28" y2="158.91"></line><line class="link fake transparent" x1="35.39" y1="151.81" x2="23.72" y2="145.91"></line><line class="link fake transparent" x1="35.39" y1="151.81" x2="10.69" y2="148.81"></line><line class="link fake transparent" x1="16.90" y1="119.85" x2="23.17" y2="103.39"></line><line class="link fake transparent" x1="16.90" y1="119.85" x2="21.40" y2="86.01"></line><line class="link fake transparent" x1="6.27" y1="108.77" x2="23.17" y2="103.39"></line><line class="link fake transparent" x1="6.27" y1="108.77" x2="35.57" y2="90.63"></line><line class="link fake transparent" x1="8.27" y1="93.81" x2="23.17" y2="103.39"></line><line class="link fake transparent" x1="8.27" y1="93.81" x2="40.35" y2="105.60"></line><line class="link fake transparent" x1="21.40" y1="86.01" x2="23.17" y2="103.39"></line><line class="link fake transparent" x1="21.40" y1="86.01" x2="31.78" y2="118.91"></line><line class="link fake transparent" x1="35.57" y1="90.63" x2="23.17" y2="103.39"></line><line class="link fake transparent" x1="35.57" y1="90.63" x2="16.90" y2="119.85"></line><line class="link fake transparent" x1="40.35" y1="105.60" x2="23.17" y2="103.39"></line><line class="link fake transparent" x1="40.35" y1="105.60" x2="6.27" y2="108.77"></line><line class="link fake transparent" x1="31.78" y1="118.91" x2="23.17" y2="103.39"></line><line class="link fake transparent" x1="31.78" y1="118.91" x2="8.27" y2="93.81"></line></g><g><g class="noselect gnode" struct_name="m" transform="translate(47.14,231.41)" r="6.5"><circle class="node" r="6" node_type="nucleotide" style="fill: lightgreen;"></circle><text text-anchor="middle" font-size="8" font-weight="bold" y="2.5" class="node-label">U</text></g><g class="noselect gnode" struct_name="m" transform="translate(43.81,216.53)" r="6.5"><circle class="node" r="6" node_type="nucleotide" style="fill: lightgreen;"></circle><text text-anchor="middle" font-size="8" font-weight="bold" y="2.5" class="node-label">U</text></g><g class="noselect gnode" struct_name="m" transform="translate(39.63,201.67)" r="6.5"><circle class="node" r="6" node_type="nucleotide" style="fill: lightgreen;"></circle><text text-anchor="middle" font-size="8" font-weight="bold" y="2.5" class="node-label">U</text></g><g class="noselect gnode" struct_name="m" transform="translate(34.70,187.00)" r="6.5"><circle class="node" r="6" node_type="nucleotide" style="fill: lightgreen;"></circle><text text-anchor="middle" font-size="8" font-weight="bold" y="2.5" class="node-label">C</text></g><g class="noselect gnode" struct_name="m" transform="translate(28.99,172.58)" r="6.5"><circle class="node" r="6" node_type="nucleotide" style="fill: lightgreen;"></circle><text text-anchor="middle" font-size="8" font-weight="bold" y="2.5" class="node-label">U</text></g><g class="noselect gnode" struct_name="m" transform="translate(22.28,158.91)" r="6.5"><circle class="node" r="6" node_type="nucleotide" style="fill: lightgreen;"></circle><text text-anchor="middle" font-size="8" font-weight="bold" y="2.5" class="node-label">G</text></g><g class="noselect gnode" struct_name="m" transform="translate(10.69,148.81)" r="6.5"><circle class="node" r="6" node_type="nucleotide" style="fill: rgb(219, 219, 141);"></circle><text text-anchor="middle" font-size="8" font-weight="bold" y="2.5" class="node-label">U</text></g><g class="noselect gnode" struct_name="m" transform="translate(16.96,134.76)" r="6.5"><circle class="node" r="6" node_type="nucleotide" style="fill: lightgreen;"></circle><text text-anchor="middle" font-size="8" font-weight="bold" y="2.5" class="node-label">G</text></g><g class="noselect gnode" struct_name="m" transform="translate(16.90,119.85)" r="6.5"><circle class="node" r="6" node_type="nucleotide" style="fill: lightgreen;"></circle><text text-anchor="middle" font-size="8" font-weight="bold" y="2.5" class="node-label">U</text></g><g class="noselect gnode" struct_name="m" transform="translate(6.27,108.77)" r="6.5"><circle class="node" r="6" node_type="nucleotide" style="fill: rgb(219, 219, 141);"></circle><text text-anchor="middle" font-size="8" font-weight="bold" y="2.5" class="node-label">C</text></g><g class="noselect gnode" struct_name="m" transform="translate(8.27,93.81)" r="6.5"><circle class="node" r="6" node_type="nucleotide" style="fill: rgb(219, 219, 141);"></circle><text text-anchor="middle" font-size="8" font-weight="bold" y="2.5" class="node-label">U</text></g><g class="noselect gnode" struct_name="m" transform="translate(21.40,86.01)" r="6.5"><circle class="node" r="6" node_type="nucleotide" style="fill: lightgreen;"></circle><text text-anchor="middle" font-size="8" font-weight="bold" y="2.5" class="node-label">G</text></g><g class="noselect gnode" struct_name="m" transform="translate(25.05,71.70)" r="6.5"><circle class="node" r="6" node_type="nucleotide" style="fill: lightgreen;"></circle><text text-anchor="middle" font-size="8" font-weight="bold" y="2.5" class="node-label">U</text></g><g class="noselect gnode" struct_name="m" transform="translate(26.11,56.87)" r="6.5"><circle class="node" r="6" node_type="nucleotide" style="fill: lightgreen;"></circle><text text-anchor="middle" font-size="8" font-weight="bold" y="2.5" class="node-label">U</text></g><g class="noselect gnode" struct_name="m" transform="translate(24.55,42.15)" r="6.5"><circle class="node" r="6" node_type="nucleotide" style="fill: lightgreen;"></circle><text text-anchor="middle" font-size="8" font-weight="bold" y="2.5" class="node-label">C</text></g><g class="noselect gnode" struct_name="m" transform="translate(20.38,28.03)" r="6.5"><circle class="node" r="6" node_type="nucleotide" style="fill: lightgreen;"></circle><text text-anchor="middle" font-size="8" font-weight="bold" y="2.5" class="node-label">A</text></g><g class="noselect gnode" struct_name="m" transform="translate(13.67,15.18)" r="6.5"><circle class="node" r="6" node_type="nucleotide" style="fill: lightgreen;"></circle><text text-anchor="middle" font-size="8" font-weight="bold" y="2.5" class="node-label">U</text></g><g class="noselect gnode" struct_name="m" transform="translate(-0.08,9.50)" r="6.5"><circle class="node" r="6" node_type="nucleotide" style="fill: rgb(219, 219, 141);"></circle><text text-anchor="middle" font-size="8" font-weight="bold" y="2.5" class="node-label">U</text></g><g class="noselect gnode" struct_name="m" transform="translate(-2.16,-4.98)" r="6.5"><circle class="node" r="6" node_type="nucleotide" style="fill: rgb(219, 219, 141);"></circle><text text-anchor="middle" font-size="8" font-weight="bold" y="2.5" class="node-label">G</text></g><g class="noselect gnode" struct_name="m" transform="translate(9.40,-14.41)" r="6.5"><circle class="node" r="6" node_type="nucleotide" style="fill: lightgreen;"></circle><text text-anchor="middle" font-size="8" font-weight="bold" y="2.5" class="node-label">A</text></g><g class="noselect gnode" struct_name="m" transform="translate(12.52,-28.80)" r="6.5"><circle class="node" r="6" node_type="nucleotide" style="fill: lightgreen;"></circle><text text-anchor="middle" font-size="8" font-weight="bold" y="2.5" class="node-label">C</text></g><g class="noselect gnode" struct_name="m" transform="translate(12.98,-43.67)" r="6.5"><circle class="node" r="6" node_type="nucleotide" style="fill: lightgreen;"></circle><text text-anchor="middle" font-size="8" font-weight="bold" y="2.5" class="node-label">A</text></g><g class="noselect gnode" struct_name="m" transform="translate(6.82,-57.70)" r="6.5"><circle class="node" r="6" node_type="nucleotide" style="fill: rgb(219, 219, 141);"></circle><text text-anchor="middle" font-size="8" font-weight="bold" y="2.5" class="node-label">U</text></g><g class="noselect gnode" struct_name="m" transform="translate(18.39,-67.73)" r="6.5"><circle class="node" r="6" node_type="nucleotide" style="fill: lightgreen;"></circle><text text-anchor="middle" font-size="8" font-weight="bold" y="2.5" class="node-label">C</text></g><g class="noselect gnode" struct_name="m" transform="translate(24.39,-81.46)" r="6.5"><circle class="node" r="6" node_type="nucleotide" style="fill: lightgreen;"></circle><text text-anchor="middle" font-size="8" font-weight="bold" y="2.5" class="node-label">C</text></g><g class="noselect gnode" struct_name="m" transform="translate(28.66,-96.16)" r="6.5"><circle class="node" r="6" node_type="nucleotide" style="fill: lightgreen;"></circle><text text-anchor="middle" font-size="8" font-weight="bold" y="2.5" class="node-label">A</text></g><g class="noselect gnode" struct_name="m" transform="translate(31.33,-111.15)" r="6.5"><circle class="node" r="6" node_type="nucleotide" style="fill: lightgreen;"></circle><text text-anchor="middle" font-size="8" font-weight="bold" y="2.5" class="node-label">G</text></g><g class="noselect gnode" struct_name="m" transform="translate(20.23,-121.58)" r="6.5"><circle class="node" r="6" node_type="nucleotide" style="fill: lightblue;"></circle><text text-anchor="middle" font-size="8" font-weight="bold" y="2.5" class="node-label">U</text></g><g class="noselect gnode" struct_name="m" transform="translate(17.14,-136.18)" r="6.5"><circle class="node" r="6" node_type="nucleotide" style="fill: lightblue;"></circle><text text-anchor="middle" font-size="8" font-weight="bold" y="2.5" class="node-label">U</text></g><g class="noselect gnode" struct_name="m" transform="translate(23.45,-149.91)" r="6.5"><circle class="node" r="6" node_type="nucleotide" style="fill: lightblue;"></circle><text text-anchor="middle" font-size="8" font-weight="bold" y="2.5" class="node-label">A</text></g><g class="noselect gnode" struct_name="m" transform="translate(36.67,-156.89)" r="6.5"><circle class="node" r="6" node_type="nucleotide" style="fill: lightblue;"></circle><text text-anchor="middle" font-size="8" font-weight="bold" y="2.5" class="node-label">U</text></g><g class="noselect gnode" struct_name="m" transform="translate(51.53,-155.44)" r="6.5"><circle class="node" r="6" node_type="nucleotide" style="fill: lightblue;"></circle><text text-anchor="middle" font-size="8" font-weight="bold" y="2.5" class="node-label">U</text></g><g class="noselect gnode" struct_name="m" transform="translate(62.71,-145.36)" r="6.5"><circle class="node" r="6" node_type="nucleotide" style="fill: lightblue;"></circle><text text-anchor="middle" font-size="8" font-weight="bold" y="2.5" class="node-label">U</text></g><g class="noselect gnode" struct_name="m" transform="translate(65.50,-130.50)" r="6.5"><circle class="node" r="6" node_type="nucleotide" style="fill: lightblue;"></circle><text text-anchor="middle" font-size="8" font-weight="bold" y="2.5" class="node-label">A</text></g><g class="noselect gnode" struct_name="m" transform="translate(59.32,-116.96)" r="6.5"><circle class="node" r="6" node_type="nucleotide" style="fill: lightblue;"></circle><text text-anchor="middle" font-size="8" font-weight="bold" y="2.5" class="node-label">U</text></g><g class="noselect gnode" struct_name="m" transform="translate(46.10,-108.94)" r="6.5"><circle class="node" r="6" node_type="nucleotide" style="fill: lightgreen;"></circle><text text-anchor="middle" font-size="8" font-weight="bold" y="2.5" class="node-label">C</text></g><g class="noselect gnode" struct_name="m" transform="translate(42.82,-92.79)" r="6.5"><circle class="node" r="6" node_type="nucleotide" style="fill: lightgreen;"></circle><text text-anchor="middle" font-size="8" font-weight="bold" y="2.5" class="node-label">U</text></g><g class="noselect gnode" struct_name="m" transform="translate(38.06,-76.62)" r="6.5"><circle class="node" r="6" node_type="nucleotide" style="fill: lightgreen;"></circle><text text-anchor="middle" font-size="8" font-weight="bold" y="2.5" class="node-label">G</text></g><g class="noselect gnode" struct_name="m" transform="translate(31.49,-60.87)" r="6.5"><circle class="node" r="6" node_type="nucleotide" style="fill: lightgreen;"></circle><text text-anchor="middle" font-size="8" font-weight="bold" y="2.5" class="node-label">G</text></g><g class="noselect gnode" struct_name="m" transform="translate(27.78,-44.25)" r="6.5"><circle class="node" r="6" node_type="nucleotide" style="fill: lightgreen;"></circle><text text-anchor="middle" font-size="8" font-weight="bold" y="2.5" class="node-label">U</text></g><g class="noselect gnode" struct_name="m" transform="translate(26.81,-27.01)" r="6.5"><circle class="node" r="6" node_type="nucleotide" style="fill: lightgreen;"></circle><text text-anchor="middle" font-size="8" font-weight="bold" y="2.5" class="node-label">G</text></g><g class="noselect gnode" struct_name="m" transform="translate(23.42,-9.85)" r="6.5"><circle class="node" r="6" node_type="nucleotide" style="fill: lightgreen;"></circle><text text-anchor="middle" font-size="8" font-weight="bold" y="2.5" class="node-label">U</text></g><g class="noselect gnode" struct_name="m" transform="translate(25.85,6.93)" r="6.5"><circle class="node" r="6" node_type="nucleotide" style="fill: lightgreen;"></circle><text text-anchor="middle" font-size="8" font-weight="bold" y="2.5" class="node-label">A</text></g><g class="noselect gnode" struct_name="m" transform="translate(33.83,22.64)" r="6.5"><circle class="node" r="6" node_type="nucleotide" style="fill: lightgreen;"></circle><text text-anchor="middle" font-size="8" font-weight="bold" y="2.5" class="node-label">U</text></g><g class="noselect gnode" struct_name="m" transform="translate(38.80,39.33)" r="6.5"><circle class="node" r="6" node_type="nucleotide" style="fill: lightgreen;"></circle><text text-anchor="middle" font-size="8" font-weight="bold" y="2.5" class="node-label">G</text></g><g class="noselect gnode" struct_name="m" transform="translate(40.62,56.64)" r="6.5"><circle class="node" r="6" node_type="nucleotide" style="fill: lightgreen;"></circle><text text-anchor="middle" font-size="8" font-weight="bold" y="2.5" class="node-label">A</text></g><g class="noselect gnode" struct_name="m" transform="translate(39.37,73.97)" r="6.5"><circle class="node" r="6" node_type="nucleotide" style="fill: lightgreen;"></circle><text text-anchor="middle" font-size="8" font-weight="bold" y="2.5" class="node-label">A</text></g><g class="noselect gnode" struct_name="m" transform="translate(35.57,90.63)" r="6.5"><circle class="node" r="6" node_type="nucleotide" style="fill: lightgreen;"></circle><text text-anchor="middle" font-size="8" font-weight="bold" y="2.5" class="node-label">C</text></g><g class="noselect gnode" struct_name="m" transform="translate(40.35,105.60)" r="6.5"><circle class="node" r="6" node_type="nucleotide" style="fill: rgb(219, 219, 141);"></circle><text text-anchor="middle" font-size="8" font-weight="bold" y="2.5" class="node-label">C</text></g><g class="noselect gnode" struct_name="m" transform="translate(31.78,118.91)" r="6.5"><circle class="node" r="6" node_type="nucleotide" style="fill: lightgreen;"></circle><text text-anchor="middle" font-size="8" font-weight="bold" y="2.5" class="node-label">A</text></g><g class="noselect gnode" struct_name="m" transform="translate(31.78,135.60)" r="6.5"><circle class="node" r="6" node_type="nucleotide" style="fill: lightgreen;"></circle><text text-anchor="middle" font-size="8" font-weight="bold" y="2.5" class="node-label">C</text></g><g class="noselect gnode" struct_name="m" transform="translate(35.39,151.81)" r="6.5"><circle class="node" r="6" node_type="nucleotide" style="fill: lightgreen;"></circle><text text-anchor="middle" font-size="8" font-weight="bold" y="2.5" class="node-label">C</text></g><g class="noselect gnode" struct_name="m" transform="translate(42.37,166.74)" r="6.5"><circle class="node" r="6" node_type="nucleotide" style="fill: lightgreen;"></circle><text text-anchor="middle" font-size="8" font-weight="bold" y="2.5" class="node-label">A</text></g><g class="noselect gnode" struct_name="m" transform="translate(48.48,181.96)" r="6.5"><circle class="node" r="6" node_type="nucleotide" style="fill: lightgreen;"></circle><text text-anchor="middle" font-size="8" font-weight="bold" y="2.5" class="node-label">G</text></g><g class="noselect gnode" struct_name="m" transform="translate(53.68,197.33)" r="6.5"><circle class="node" r="6" node_type="nucleotide" style="fill: lightgreen;"></circle><text text-anchor="middle" font-size="8" font-weight="bold" y="2.5" class="node-label">A</text></g><g class="noselect gnode" struct_name="m" transform="translate(58.08,212.86)" r="6.5"><circle class="node" r="6" node_type="nucleotide" style="fill: lightgreen;"></circle><text text-anchor="middle" font-size="8" font-weight="bold" y="2.5" class="node-label">A</text></g><g class="noselect gnode" struct_name="m" transform="translate(61.85,228.38)" r="6.5"><circle class="node" r="6" node_type="nucleotide" style="fill: lightgreen;"></circle><text text-anchor="middle" font-size="8" font-weight="bold" y="2.5" class="node-label">A</text></g><g class="noselect gnode" struct_name="m" transform="translate(73.38,238.61)" r="6.5"><circle class="node" r="6" node_type="nucleotide" style="fill: lightsalmon;"></circle><text text-anchor="middle" font-size="8" font-weight="bold" y="2.5" class="node-label">U</text></g><g class="noselect gnode" struct_name="m" transform="translate(73.23,253.51)" r="6.5"><circle class="node" r="6" node_type="nucleotide" style="fill: lightsalmon;"></circle><text text-anchor="middle" font-size="8" font-weight="bold" y="2.5" class="node-label">U</text></g><g class="noselect gnode" struct_name="m" transform="translate(61.74,262.99)" r="6.5"><circle class="node" r="6" node_type="nucleotide" style="fill: lightsalmon;"></circle><text text-anchor="middle" font-size="8" font-weight="bold" y="2.5" class="node-label">U</text></g><g class="noselect gnode" struct_name="m" transform="translate(-9.31,109.73)" r="6.5"><circle class="node label" r="6" node_type="label"></circle><text text-anchor="middle" font-size="8" font-weight="bold" y="2.5" class="node-label">10</text></g><g class="noselect gnode" struct_name="m" transform="translate(-6.11,-16.31)" r="6.5"><circle class="node label" r="6" node_type="label"></circle><text text-anchor="middle" font-size="8" font-weight="bold" y="2.5" class="node-label">20</text></g><g class="noselect gnode" struct_name="m" transform="translate(11.37,-159.57)" r="6.5"><circle class="node label" r="6" node_type="label"></circle><text text-anchor="middle" font-size="8" font-weight="bold" y="2.5" class="node-label">30</text></g><g class="noselect gnode" struct_name="m" transform="translate(43.02,-41.00)" r="6.5"><circle class="node label" r="6" node_type="label"></circle><text text-anchor="middle" font-size="8" font-weight="bold" y="2.5" class="node-label">40</text></g><g class="noselect gnode" struct_name="m" transform="translate(47.32,119.36)" r="6.5"><circle class="node label" r="6" node_type="label"></circle><text text-anchor="middle" font-size="8" font-weight="bold" y="2.5" class="node-label">50</text></g><g class="noselect gnode" struct_name="m" transform="translate(57.56,277.88)" r="6.5"><circle class="node label" r="6" node_type="label"></circle><text text-anchor="middle" font-size="8" font-weight="bold" y="2.5" class="node-label">60</text></g><g class="noselect gnode" transform="translate(30.93,80.81)" r="6.5"><circle class="node" r="0" node_type="middle"></circle><text text-anchor="middle" font-size="8" font-weight="bold" y="2.5" class="node-label"></text></g><g class="noselect gnode" transform="translate(33.51,64.85)" r="6.5"><circle class="node" r="0" node_type="middle"></circle><text text-anchor="middle" font-size="8" font-weight="bold" y="2.5" class="node-label"></text></g><g class="noselect gnode" transform="translate(33.27,48.67)" r="6.5"><circle class="node" r="0" node_type="middle"></circle><text text-anchor="middle" font-size="8" font-weight="bold" y="2.5" class="node-label"></text></g><g class="noselect gnode" transform="translate(30.11,32.86)" r="6.5"><circle class="node" r="0" node_type="middle"></circle><text text-anchor="middle" font-size="8" font-weight="bold" y="2.5" class="node-label"></text></g><g class="noselect gnode" transform="translate(24.14,17.90)" r="6.5"><circle class="node" r="0" node_type="middle"></circle><text text-anchor="middle" font-size="8" font-weight="bold" y="2.5" class="node-label"></text></g><g class="noselect gnode" transform="translate(18.69,-19.92)" r="6.5"><circle class="node" r="0" node_type="middle"></circle><text text-anchor="middle" font-size="8" font-weight="bold" y="2.5" class="node-label"></text></g><g class="noselect gnode" transform="translate(20.56,-35.95)" r="6.5"><circle class="node" r="0" node_type="middle"></circle><text text-anchor="middle" font-size="8" font-weight="bold" y="2.5" class="node-label"></text></g><g class="noselect gnode" transform="translate(28.53,-71.46)" r="6.5"><circle class="node" r="0" node_type="middle"></circle><text text-anchor="middle" font-size="8" font-weight="bold" y="2.5" class="node-label"></text></g><g class="noselect gnode" transform="translate(33.90,-86.66)" r="6.5"><circle class="node" r="0" node_type="middle"></circle><text text-anchor="middle" font-size="8" font-weight="bold" y="2.5" class="node-label"></text></g><g class="noselect gnode" transform="translate(37.58,-102.27)" r="6.5"><circle class="node" r="0" node_type="middle"></circle><text text-anchor="middle" font-size="8" font-weight="bold" y="2.5" class="node-label"></text></g><g class="noselect gnode" transform="translate(52.91,222.38)" r="6.5"><circle class="node" r="0" node_type="middle"></circle><text text-anchor="middle" font-size="8" font-weight="bold" y="2.5" class="node-label"></text></g><g class="noselect gnode" transform="translate(49.00,207.09)" r="6.5"><circle class="node" r="0" node_type="middle"></circle><text text-anchor="middle" font-size="8" font-weight="bold" y="2.5" class="node-label"></text></g><g class="noselect gnode" transform="translate(44.34,191.97)" r="6.5"><circle class="node" r="0" node_type="middle"></circle><text text-anchor="middle" font-size="8" font-weight="bold" y="2.5" class="node-label"></text></g><g class="noselect gnode" transform="translate(38.86,177.01)" r="6.5"><circle class="node" r="0" node_type="middle"></circle><text text-anchor="middle" font-size="8" font-weight="bold" y="2.5" class="node-label"></text></g><g class="noselect gnode" transform="translate(32.49,162.34)" r="6.5"><circle class="node" r="0" node_type="middle"></circle><text text-anchor="middle" font-size="8" font-weight="bold" y="2.5" class="node-label"></text></g><g class="noselect gnode" transform="translate(24.71,127.26)" r="6.5"><circle class="node" r="0" node_type="middle"></circle><text text-anchor="middle" font-size="8" font-weight="bold" y="2.5" class="node-label"></text></g><g class="noselect gnode" transform="translate(48.04,263.04)" r="6.5"><circle class="node" r="0" node_type="middle"></circle><text text-anchor="middle" font-size="8" font-weight="bold" y="2.5" class="node-label"></text></g><g class="noselect gnode" transform="translate(37.59,252.31)" r="6.5"><circle class="node" r="0" node_type="middle"></circle><text text-anchor="middle" font-size="8" font-weight="bold" y="2.5" class="node-label"></text></g><g class="noselect gnode" transform="translate(57.66,245.54)" r="6.5"><circle class="node" r="0" node_type="middle"></circle><text text-anchor="middle" font-size="8" font-weight="bold" y="2.5" class="node-label"></text></g><g class="noselect gnode" transform="translate(41.41,-133.16)" r="6.5"><circle class="node" r="0" node_type="middle"></circle><text text-anchor="middle" font-size="8" font-weight="bold" y="2.5" class="node-label"></text></g><g class="noselect gnode" transform="translate(12.22,0.31)" r="6.5"><circle class="node" r="0" node_type="middle"></circle><text text-anchor="middle" font-size="8" font-weight="bold" y="2.5" class="node-label"></text></g><g class="noselect gnode" transform="translate(19.92,-54.76)" r="6.5"><circle class="node" r="0" node_type="middle"></circle><text text-anchor="middle" font-size="8" font-weight="bold" y="2.5" class="node-label"></text></g><g class="noselect gnode" transform="translate(23.72,145.91)" r="6.5"><circle class="node" r="0" node_type="middle"></circle><text text-anchor="middle" font-size="8" font-weight="bold" y="2.5" class="node-label"></text></g><g class="noselect gnode" transform="translate(23.17,103.39)" r="6.5"><circle class="node" r="0" node_type="middle"></circle><text text-anchor="middle" font-size="8" font-weight="bold" y="2.5" class="node-label"></text></g></g><line class="drag_line" x1="0" y1="0" x2="0" y2="0"></line></g></g></svg>