<svg xmlns="http://www.w3.org/2000/svg" viewBox="0 0 760 640" width="760" height="640"><style>svg {
  display: block;
  min-width: 100%;
  width: 100%;
  min-height: 100%;
}

circle.node {
  stroke: #ccc;
  stroke-width: 1px;
  opacity: 1;
  fill: white;
}

circle.node.label {
    stroke: transparent;
    stroke-width: 0;
    fill: white;
}

circle.outline_node {
    stroke-width: 1px;
    fill: red;
}

circle.protein {
    fill: gray;
    fill-opacity: 0.5;
    stroke-width: 4;
}

circle.hidden_outline {
    stroke-width: 0px;
}


line.link {
  stroke: #999;
  stroke-opacity: 0.8;
  stroke-width: 2;
}

line.basepair {
  stroke: red;
}

line.intermolecule {
  stroke: blue;
}

line.chain_chain {
  stroke-dasharray: 3,3;
}

line.fake {
  stroke: green;
}

.transparent {
    fill: transparent;
    stroke-width: 0;
    stroke-opacity: 0;
    opacity: 0;
    visibility: hidden;
}

.drag_line {
  stroke: #999;
  stroke-width: 2;
  pointer-events: none;
}

.drag_line_hidden {
  stroke: #999;
  stroke-width: 0;
  pointer-events: none;
}

.d3-tip {
    line-height: 1;
    font-weight: bold;
    padding: 6px;
    background: rgba(0, 0, 0, 0.6);
    color: #fff;
    border-radius: 4px;
    pointer-events: none;
          }

text.node-label {
    font-weight: bold;
    font-family: Tahoma, Geneva, sans-serif;
    color: rgb(100,100,100);
    pointer-events: none;
}

text {
    pointer-events: none;
}

g.gnode {

}

circle.outline_node.selected {
    visibility: visible;
}

circle.outline_node {
    visibility: hidden;
}

.brush .extent {
  fill-opacity: .1;
  stroke: #fff;
  shape-rendering: crispEdges;
}

.noselect {
    -webkit-touch-callout: none;
    -webkit-user-select: none;
    -khtml-user-select: none;
    -moz-user-select: none;
    -ms-user-select: none;
    user-select: none;
}

svg {
  display: block;
  min-width: 100%;
  width: 100%;
  min-height: 100%;
}

circle.node {
  stroke: #ccc;
  stroke-width: 1px;
  opacity: 1;
  fill: white;
}

circle.node.label {
    stroke: transparent;
    stroke-width: 0;
    fill: white;
}

circle.outline_node {
    stroke-width: 1px;
    fill: red;
}

circle.protein {
    fill: gray;
    fill-opacity: 0.5;
    stroke-width: 4;
}

circle.hidden_outline {
    stroke-width: 0px;
}


line.link {
  stroke: #999;
  stroke-opacity: 0.8;
  stroke-width: 2;
}

line.basepair {
  stroke: red;
}

line.intermolecule {
  stroke: blue;
}

line.chain_chain {
  stroke-dasharray: 3,3;
}

line.fake {
  stroke: green;
}

.transparent {
    fill: transparent;
    stroke-width: 0;
    stroke-opacity: 0;
    opacity: 0;
    visibility: hidden;
}

.drag_line {
  stroke: #999;
  stroke-width: 2;
  pointer-events: none;
}

.drag_line_hidden {
  stroke: #999;
  stroke-width: 0;
  pointer-events: none;
}

.d3-tip {
    line-height: 1;
    font-weight: bold;
    padding: 6px;
    background: rgba(0, 0, 0, 0.6);
    color: #fff;
    border-radius: 4px;
    pointer-events: none;
          }

text.node-label {
    font-weight: bold;
    font-family: Tahoma, Geneva, sans-serif;
    color: rgb(100,100,100);
    pointer-events: none;
}

text {
    pointer-events: none;
}

g.gnode {

}

circle.outline_node.selected {
    visibility: visible;
}

circle.outline_node {
    visibility: hidden;
}

.brush .extent {
  fill-opacity: .1;
  stroke: #fff;
  shape-rendering: crispEdges;
}

.noselect {
    -webkit-touch-callout: none;
    -webkit-user-select: none;
    -khtml-user-select: none;
    -moz-user-select: none;
    -ms-user-select: none;
    user-select: none;
}
/*# sourceURL=/Users/yumanakamura/ipy_sandbox/sandbox/claude_sandbox/mrna-transformer/scripts/eval/prerender/forna_vendor/fornac.css*/</style><style></style><g><g class="brush" style="pointer-events: all; -webkit-tap-highlight-color: rgba(0, 0, 0, 0);"><rect class="background" x="0" width="760" y="0" height="640" style="visibility: hidden; cursor: auto;"></rect><rect class="extent" x="0" width="0" y="0" height="0" style="cursor: move;"></rect><g class="resize n" transform="translate(0,0)" style="cursor: ns-resize; display: none;"><rect y="-3" width="0" height="6" style="visibility: hidden;"></rect></g><g class="resize e" transform="translate(0,0)" style="cursor: ew-resize; display: none;"><rect x="-3" width="6" height="0" style="visibility: hidden;"></rect></g><g class="resize s" transform="translate(0,0)" style="cursor: ns-resize; display: none;"><rect y="-3" width="0" height="6" style="visibility: hidden;"></rect></g><g class="resize w" transform="translate(0,0)" style="cursor: ew-resize; display: none;"><rect x="-3" width="6" height="0" style="visibility: hidden;"></rect></g><g class="resize nw" transform="translate(0,0)" style="cursor: nwse-resize; display: none;"><rect x="-3" y="-3" width="6" height="6" style="visibility: hidden;"></rect></g><g class="resize ne" transform="translate(0,0)" style="cursor: nesw-resize; display: none;"><rect x="-3" y="-3" width="6" height="6" style="visibility: hidden;"></rect></g><g class="resize se" transform="translate(0,0)" style="cursor: nwse-resize; display: none;"><rect x="-3" y="-3" width="6" height="6" style="visibility: hidden;"></rect></g><g class="resize sw" transform="translate(0,0)" style="cursor: nesw-resize; display: none;"><rect x="-3" y="-3" width="6" height="6" style="visibility: hidden;"></rect></g></g><g transform="translate(277.79,170.63) scale(1.35)"><g><line class="link backbone" x1="30.10" y1="312.44" x2="15.16" y2="311.04"></line><line class="link backbone" x1="15.16" y1="311.04" x2="2.43" y2="303.11"></line><line class="link backbone" x1="2.43" y1="303.11" x2="-5.19" y2="290.15"></line><line class="link backbone" x1="-5.19" y1="290.15" x2="-5.83" y2="275.07"></line><line class="link backbone" x1="-5.83" y1="275.07" x2="0.84" y2="261.48"></line><line class="link backbone" x1="0.84" y1="261.48" x2="12.88" y2="252.41"></line><line class="link basepair" x1="28.06" y1="249.57" x2="42.24" y2="254.45"></line><line class="link backbone" x1="12.88" y1="252.41" x2="28.06" y2="249.57"></line><line class="link basepair" x1="33.51" y1="234.77" x2="47.30" y2="239.49"></line><line class="link backbone" x1="28.06" y1="249.57" x2="33.51" y2="234.77"></line><line class="link basepair" x1="38.44" y1="219.79" x2="52.40" y2="224.01"></line><line class="link backbone" x1="33.51" y1="234.77" x2="38.44" y2="219.79"></line><line class="link basepair" x1="42.56" y1="204.73" x2="56.72" y2="208.05"></line><line class="link backbone" x1="38.44" y1="219.79" x2="42.56" y2="204.73"></line><line class="link basepair" x1="45.51" y1="189.54" x2="59.93" y2="191.79"></line><line class="link backbone" x1="42.56" y1="204.73" x2="45.51" y2="189.54"></line><line class="link basepair" x1="47.28" y1="174.21" x2="61.80" y2="175.23"></line><line class="link backbone" x1="45.51" y1="189.54" x2="47.28" y2="174.21"></line><line class="link basepair" x1="47.66" y1="158.84" x2="62.15" y2="158.36"></line><line class="link backbone" x1="47.28" y1="174.21" x2="47.66" y2="158.84"></line><line class="link basepair" x1="46.11" y1="144.03" x2="60.58" y2="141.24"></line><line class="link backbone" x1="47.66" y1="158.84" x2="46.11" y2="144.03"></line><line class="link backbone" x1="46.11" y1="144.03" x2="35.80" y2="133.28"></line><line class="link backbone" x1="35.80" y1="133.28" x2="39.72" y2="119.16"></line><line class="link basepair" x1="54.23" y1="115.22" x2="65.10" y2="125.14"></line><line class="link backbone" x1="39.72" y1="119.16" x2="54.23" y2="115.22"></line><line class="link basepair" x1="63.38" y1="103.37" x2="75.52" y2="111.55"></line><line class="link backbone" x1="54.23" y1="115.22" x2="63.38" y2="103.37"></line><line class="link backbone" x1="63.38" y1="103.37" x2="63.82" y2="88.17"></line><line class="link basepair" x1="77.22" y1="81.18" x2="89.91" y2="88.66"></line><line class="link backbone" x1="63.82" y1="88.17" x2="77.22" y2="81.18"></line><line class="link basepair" x1="84.55" y1="67.64" x2="97.62" y2="74.05"></line><line class="link backbone" x1="77.22" y1="81.18" x2="84.55" y2="67.64"></line><line class="link basepair" x1="90.93" y1="53.36" x2="104.38" y2="59.02"></line><line class="link backbone" x1="84.55" y1="67.64" x2="90.93" y2="53.36"></line><line class="link basepair" x1="96.83" y1="38.65" x2="110.39" y2="44.02"></line><line class="link backbone" x1="90.93" y1="53.36" x2="96.83" y2="38.65"></line><line class="link basepair" x1="102.83" y1="23.60" x2="116.24" y2="29.11"></line><line class="link backbone" x1="96.83" y1="38.65" x2="102.83" y2="23.60"></line><line class="link basepair" x1="109.11" y1="8.52" x2="122.60" y2="14.81"></line><line class="link backbone" x1="102.83" y1="23.60" x2="109.11" y2="8.52"></line><line class="link backbone" x1="109.11" y1="8.52" x2="103.22" y2="-6.07"></line><line class="link backbone" x1="103.22" y1="-6.07" x2="107.55" y2="-20.44"></line><line class="link basepair" x1="120.50" y1="-29.33" x2="135.23" y2="-27.12"></line><line class="link backbone" x1="107.55" y1="-20.44" x2="120.50" y2="-29.33"></line><line class="link basepair" x1="123.55" y1="-45.31" x2="137.84" y2="-42.46"></line><line class="link backbone" x1="120.50" y1="-29.33" x2="123.55" y2="-45.31"></line><line class="link basepair" x1="126.70" y1="-60.95" x2="141.24" y2="-57.78"></line><line class="link backbone" x1="123.55" y1="-45.31" x2="126.70" y2="-60.95"></line><line class="link backbone" x1="126.70" y1="-60.95" x2="122.13" y2="-75.63"></line><line class="link backbone" x1="122.13" y1="-75.63" x2="132.30" y2="-86.62"></line><line class="link backbone" x1="132.30" y1="-86.62" x2="146.93" y2="-83.38"></line><line class="link backbone" x1="146.93" y1="-83.38" x2="151.55" y2="-69.13"></line><line class="link basepair" x1="141.24" y1="-57.78" x2="126.70" y2="-60.95"></line><line class="link backbone" x1="151.55" y1="-69.13" x2="141.24" y2="-57.78"></line><line class="link basepair" x1="137.84" y1="-42.46" x2="123.55" y2="-45.31"></line><line class="link backbone" x1="141.24" y1="-57.78" x2="137.84" y2="-42.46"></line><line class="link basepair" x1="135.23" y1="-27.12" x2="120.50" y2="-29.33"></line><line class="link backbone" x1="137.84" y1="-42.46" x2="135.23" y2="-27.12"></line><line class="link backbone" x1="135.23" y1="-27.12" x2="145.64" y2="-15.93"></line><line class="link backbone" x1="145.64" y1="-15.93" x2="146.56" y2="-0.83"></line><line class="link backbone" x1="146.56" y1="-0.83" x2="137.49" y2="11.20"></line><line class="link basepair" x1="122.60" y1="14.81" x2="109.11" y2="8.52"></line><line class="link backbone" x1="137.49" y1="11.20" x2="122.60" y2="14.81"></line><line class="link basepair" x1="116.24" y1="29.11" x2="102.83" y2="23.60"></line><line class="link backbone" x1="122.60" y1="14.81" x2="116.24" y2="29.11"></line><line class="link basepair" x1="110.39" y1="44.02" x2="96.83" y2="38.65"></line><line class="link backbone" x1="116.24" y1="29.11" x2="110.39" y2="44.02"></line><line class="link basepair" x1="104.38" y1="59.02" x2="90.93" y2="53.36"></line><line class="link backbone" x1="110.39" y1="44.02" x2="104.38" y2="59.02"></line><line class="link basepair" x1="97.62" y1="74.05" x2="84.55" y2="67.64"></line><line class="link backbone" x1="104.38" y1="59.02" x2="97.62" y2="74.05"></line><line class="link basepair" x1="89.91" y1="88.66" x2="77.22" y2="81.18"></line><line class="link backbone" x1="97.62" y1="74.05" x2="89.91" y2="88.66"></line><line class="link backbone" x1="89.91" y1="88.66" x2="89.38" y2="104.15"></line><line class="link basepair" x1="75.52" y1="111.55" x2="63.38" y2="103.37"></line><line class="link backbone" x1="89.38" y1="104.15" x2="75.52" y2="111.55"></line><line class="link basepair" x1="65.10" y1="125.14" x2="54.23" y2="115.22"></line><line class="link backbone" x1="75.52" y1="111.55" x2="65.10" y2="125.14"></line><line class="link basepair" x1="60.58" y1="141.24" x2="46.11" y2="144.03"></line><line class="link backbone" x1="65.10" y1="125.14" x2="60.58" y2="141.24"></line><line class="link basepair" x1="62.15" y1="158.36" x2="47.66" y2="158.84"></line><line class="link backbone" x1="60.58" y1="141.24" x2="62.15" y2="158.36"></line><line class="link basepair" x1="61.80" y1="175.23" x2="47.28" y2="174.21"></line><line class="link backbone" x1="62.15" y1="158.36" x2="61.80" y2="175.23"></line><line class="link basepair" x1="59.93" y1="191.79" x2="45.51" y2="189.54"></line><line class="link backbone" x1="61.80" y1="175.23" x2="59.93" y2="191.79"></line><line class="link basepair" x1="56.72" y1="208.05" x2="42.56" y2="204.73"></line><line class="link backbone" x1="59.93" y1="191.79" x2="56.72" y2="208.05"></line><line class="link basepair" x1="52.40" y1="224.01" x2="38.44" y2="219.79"></line><line class="link backbone" x1="56.72" y1="208.05" x2="52.40" y2="224.01"></line><line class="link basepair" x1="47.30" y1="239.49" x2="33.51" y2="234.77"></line><line class="link backbone" x1="52.40" y1="224.01" x2="47.30" y2="239.49"></line><line class="link basepair" x1="42.24" y1="254.45" x2="28.06" y2="249.57"></line><line class="link backbone" x1="47.30" y1="239.49" x2="42.24" y2="254.45"></line><line class="link backbone" x1="42.24" y1="254.45" x2="52.59" y2="265.67"></line><line class="link backbone" x1="52.59" y1="265.67" x2="56.73" y2="280.10"></line><line class="link label_link" x1="38.44" y1="219.79" x2="23.30" y2="216.07"></line><line class="link label_link" x1="63.82" y1="88.17" x2="50.99" y2="79.29"></line><line class="link label_link" x1="123.55" y1="-45.31" x2="109.70" y2="-52.43"></line><line class="link label_link" x1="146.56" y1="-0.83" x2="160.83" y2="5.36"></line><line class="link label_link" x1="65.10" y1="125.14" x2="78.33" y2="133.28"></line><line class="link label_link" x1="56.73" y1="280.10" x2="71.96" y2="282.83"></line><line class="link fake transparent" x1="54.23" y1="115.22" x2="64.94" y2="114.11"></line><line class="link fake transparent" x1="54.23" y1="115.22" x2="75.52" y2="111.55"></line><line class="link fake transparent" x1="63.38" y1="103.37" x2="64.94" y2="114.11"></line><line class="link fake transparent" x1="75.52" y1="111.55" x2="64.94" y2="114.11"></line><line class="link fake transparent" x1="65.10" y1="125.14" x2="64.94" y2="114.11"></line><line class="link fake transparent" x1="77.22" y1="81.18" x2="87.60" y2="78.06"></line><line class="link fake transparent" x1="84.55" y1="67.64" x2="87.60" y2="78.06"></line><line class="link fake transparent" x1="97.62" y1="74.05" x2="87.60" y2="78.06"></line><line class="link fake transparent" x1="89.91" y1="88.66" x2="87.60" y2="78.06"></line><line class="link fake transparent" x1="84.55" y1="67.64" x2="94.61" y2="63.60"></line><line class="link fake transparent" x1="90.93" y1="53.36" x2="94.61" y2="63.60"></line><line class="link fake transparent" x1="104.38" y1="59.02" x2="94.61" y2="63.60"></line><line class="link fake transparent" x1="97.62" y1="74.05" x2="94.61" y2="63.60"></line><line class="link fake transparent" x1="90.93" y1="53.36" x2="100.71" y2="48.76"></line><line class="link fake transparent" x1="96.83" y1="38.65" x2="100.71" y2="48.76"></line><line class="link fake transparent" x1="110.39" y1="44.02" x2="100.71" y2="48.76"></line><line class="link fake transparent" x1="104.38" y1="59.02" x2="100.71" y2="48.76"></line><line class="link fake transparent" x1="96.83" y1="38.65" x2="106.51" y2="33.84"></line><line class="link fake transparent" x1="102.83" y1="23.60" x2="106.51" y2="33.84"></line><line class="link fake transparent" x1="116.24" y1="29.11" x2="106.51" y2="33.84"></line><line class="link fake transparent" x1="110.39" y1="44.02" x2="106.51" y2="33.84"></line><line class="link fake transparent" x1="102.83" y1="23.60" x2="112.58" y2="18.85"></line><line class="link fake transparent" x1="109.11" y1="8.52" x2="112.58" y2="18.85"></line><line class="link fake transparent" x1="122.60" y1="14.81" x2="112.58" y2="18.85"></line><line class="link fake transparent" x1="116.24" y1="29.11" x2="112.58" y2="18.85"></line><line class="link fake transparent" x1="120.50" y1="-29.33" x2="129.10" y2="-35.99"></line><line class="link fake transparent" x1="123.55" y1="-45.31" x2="129.10" y2="-35.99"></line><line class="link fake transparent" x1="137.84" y1="-42.46" x2="129.10" y2="-35.99"></line><line class="link fake transparent" x1="135.23" y1="-27.12" x2="129.10" y2="-35.99"></line><line class="link fake transparent" x1="123.55" y1="-45.31" x2="132.29" y2="-51.69"></line><line class="link fake transparent" x1="126.70" y1="-60.95" x2="132.29" y2="-51.69"></line><line class="link fake transparent" x1="141.24" y1="-57.78" x2="132.29" y2="-51.69"></line><line class="link fake transparent" x1="137.84" y1="-42.46" x2="132.29" y2="-51.69"></line><line class="link fake transparent" x1="28.06" y1="249.57" x2="37.75" y2="244.72"></line><line class="link fake transparent" x1="33.51" y1="234.77" x2="37.75" y2="244.72"></line><line class="link fake transparent" x1="47.30" y1="239.49" x2="37.75" y2="244.72"></line><line class="link fake transparent" x1="42.24" y1="254.45" x2="37.75" y2="244.72"></line><line class="link fake transparent" x1="33.51" y1="234.77" x2="43.07" y2="229.59"></line><line class="link fake transparent" x1="38.44" y1="219.79" x2="43.07" y2="229.59"></line><line class="link fake transparent" x1="52.40" y1="224.01" x2="43.07" y2="229.59"></line><line class="link fake transparent" x1="47.30" y1="239.49" x2="43.07" y2="229.59"></line><line class="link fake transparent" x1="38.44" y1="219.79" x2="47.81" y2="214.22"></line><line class="link fake transparent" x1="42.56" y1="204.73" x2="47.81" y2="214.22"></line><line class="link fake transparent" x1="56.72" y1="208.05" x2="47.81" y2="214.22"></line><line class="link fake transparent" x1="52.40" y1="224.01" x2="47.81" y2="214.22"></line><line class="link fake transparent" x1="42.56" y1="204.73" x2="51.51" y2="198.56"></line><line class="link fake transparent" x1="45.51" y1="189.54" x2="51.51" y2="198.56"></line><line class="link fake transparent" x1="59.93" y1="191.79" x2="51.51" y2="198.56"></line><line class="link fake transparent" x1="56.72" y1="208.05" x2="51.51" y2="198.56"></line><line class="link fake transparent" x1="45.51" y1="189.54" x2="53.97" y2="182.74"></line><line class="link fake transparent" x1="47.28" y1="174.21" x2="53.97" y2="182.74"></line><line class="link fake transparent" x1="61.80" y1="175.23" x2="53.97" y2="182.74"></line><line class="link fake transparent" x1="59.93" y1="191.79" x2="53.97" y2="182.74"></line><line class="link fake transparent" x1="47.28" y1="174.21" x2="55.13" y2="166.69"></line><line class="link fake transparent" x1="47.66" y1="158.84" x2="55.13" y2="166.69"></line><line class="link fake transparent" x1="62.15" y1="158.36" x2="55.13" y2="166.69"></line><line class="link fake transparent" x1="61.80" y1="175.23" x2="55.13" y2="166.69"></line><line class="link fake transparent" x1="47.66" y1="158.84" x2="54.67" y2="150.59"></line><line class="link fake transparent" x1="46.11" y1="144.03" x2="54.67" y2="150.59"></line><line class="link fake transparent" x1="60.58" y1="141.24" x2="54.67" y2="150.59"></line><line class="link fake transparent" x1="62.15" y1="158.36" x2="54.67" y2="150.59"></line><line class="link fake transparent" x1="30.10" y1="312.44" x2="25.17" y2="281.07"></line><line class="link fake transparent" x1="30.10" y1="312.44" x2="12.88" y2="252.41"></line><line class="link fake transparent" x1="15.16" y1="311.04" x2="25.17" y2="281.07"></line><line class="link fake transparent" x1="15.16" y1="311.04" x2="28.06" y2="249.57"></line><line class="link fake transparent" x1="2.43" y1="303.11" x2="25.17" y2="281.07"></line><line class="link fake transparent" x1="2.43" y1="303.11" x2="42.24" y2="254.45"></line><line class="link fake transparent" x1="-5.19" y1="290.15" x2="25.17" y2="281.07"></line><line class="link fake transparent" x1="-5.19" y1="290.15" x2="52.59" y2="265.67"></line><line class="link fake transparent" x1="-5.83" y1="275.07" x2="25.17" y2="281.07"></line><line class="link fake transparent" x1="-5.83" y1="275.07" x2="56.73" y2="280.10"></line><line class="link fake transparent" x1="0.84" y1="261.48" x2="25.17" y2="281.07"></line><line class="link fake transparent" x1="0.84" y1="261.48" x2="54.33" y2="294.84"></line><line class="link fake transparent" x1="12.88" y1="252.41" x2="25.17" y2="281.07"></line><line class="link fake transparent" x1="12.88" y1="252.41" x2="44.93" y2="306.76"></line><line class="link fake transparent" x1="28.06" y1="249.57" x2="25.17" y2="281.07"></line><line class="link fake transparent" x1="28.06" y1="249.57" x2="30.10" y2="312.44"></line><line class="link fake transparent" x1="42.24" y1="254.45" x2="25.17" y2="281.07"></line><line class="link fake transparent" x1="42.24" y1="254.45" x2="15.16" y2="311.04"></line><line class="link fake transparent" x1="52.59" y1="265.67" x2="25.17" y2="281.07"></line><line class="link fake transparent" x1="52.59" y1="265.67" x2="2.43" y2="303.11"></line><line class="link fake transparent" x1="56.73" y1="280.10" x2="25.17" y2="281.07"></line><line class="link fake transparent" x1="56.73" y1="280.10" x2="-5.19" y2="290.15"></line><line class="link fake transparent" x1="126.70" y1="-60.95" x2="136.80" y2="-72.21"></line><line class="link fake transparent" x1="126.70" y1="-60.95" x2="146.93" y2="-83.38"></line><line class="link fake transparent" x1="122.13" y1="-75.63" x2="136.80" y2="-72.21"></line><line class="link fake transparent" x1="122.13" y1="-75.63" x2="151.55" y2="-69.13"></line><line class="link fake transparent" x1="132.30" y1="-86.62" x2="136.80" y2="-72.21"></line><line class="link fake transparent" x1="132.30" y1="-86.62" x2="141.24" y2="-57.78"></line><line class="link fake transparent" x1="146.93" y1="-83.38" x2="136.80" y2="-72.21"></line><line class="link fake transparent" x1="146.93" y1="-83.38" x2="126.70" y2="-60.95"></line><line class="link fake transparent" x1="151.55" y1="-69.13" x2="136.80" y2="-72.21"></line><line class="link fake transparent" x1="151.55" y1="-69.13" x2="122.13" y2="-75.63"></line><line class="link fake transparent" x1="141.24" y1="-57.78" x2="136.80" y2="-72.21"></line><line class="link fake transparent" x1="141.24" y1="-57.78" x2="132.30" y2="-86.62"></line><line class="link fake transparent" x1="63.38" y1="103.37" x2="76.69" y2="96.27"></line><line class="link fake transparent" x1="63.38" y1="103.37" x2="89.91" y2="88.66"></line><line class="link fake transparent" x1="63.82" y1="88.17" x2="76.69" y2="96.27"></line><line class="link fake transparent" x1="63.82" y1="88.17" x2="89.38" y2="104.15"></line><line class="link fake transparent" x1="77.22" y1="81.18" x2="76.69" y2="96.27"></line><line class="link fake transparent" x1="77.22" y1="81.18" x2="75.52" y2="111.55"></line><line class="link fake transparent" x1="89.91" y1="88.66" x2="76.69" y2="96.27"></line><line class="link fake transparent" x1="89.91" y1="88.66" x2="63.38" y2="103.37"></line><line class="link fake transparent" x1="89.38" y1="104.15" x2="76.69" y2="96.27"></line><line class="link fake transparent" x1="89.38" y1="104.15" x2="63.82" y2="88.17"></line><line class="link fake transparent" x1="75.52" y1="111.55" x2="76.69" y2="96.27"></line><line class="link fake transparent" x1="75.52" y1="111.55" x2="77.22" y2="81.18"></line><line class="link fake transparent" x1="109.11" y1="8.52" x2="125.18" y2="-7.30"></line><line class="link fake transparent" x1="109.11" y1="8.52" x2="135.23" y2="-27.12"></line><line class="link fake transparent" x1="103.22" y1="-6.07" x2="125.18" y2="-7.30"></line><line class="link fake transparent" x1="103.22" y1="-6.07" x2="145.64" y2="-15.93"></line><line class="link fake transparent" x1="107.55" y1="-20.44" x2="125.18" y2="-7.30"></line><line class="link fake transparent" x1="107.55" y1="-20.44" x2="146.56" y2="-0.83"></line><line class="link fake transparent" x1="120.50" y1="-29.33" x2="125.18" y2="-7.30"></line><line class="link fake transparent" x1="120.50" y1="-29.33" x2="137.49" y2="11.20"></line><line class="link fake transparent" x1="135.23" y1="-27.12" x2="125.18" y2="-7.30"></line><line class="link fake transparent" x1="135.23" y1="-27.12" x2="122.60" y2="14.81"></line><line class="link fake transparent" x1="145.64" y1="-15.93" x2="125.18" y2="-7.30"></line><line class="link fake transparent" x1="145.64" y1="-15.93" x2="109.11" y2="8.52"></line><line class="link fake transparent" x1="146.56" y1="-0.83" x2="125.18" y2="-7.30"></line><line class="link fake transparent" x1="146.56" y1="-0.83" x2="103.22" y2="-6.07"></line><line class="link fake transparent" x1="137.49" y1="11.20" x2="125.18" y2="-7.30"></line><line class="link fake transparent" x1="137.49" y1="11.20" x2="107.55" y2="-20.44"></line><line class="link fake transparent" x1="122.60" y1="14.81" x2="125.18" y2="-7.30"></line><line class="link fake transparent" x1="122.60" y1="14.81" x2="120.50" y2="-29.33"></line><line class="link fake transparent" x1="46.11" y1="144.03" x2="50.69" y2="129.79"></line><line class="link fake transparent" x1="46.11" y1="144.03" x2="54.23" y2="115.22"></line><line class="link fake transparent" x1="35.80" y1="133.28" x2="50.69" y2="129.79"></line><line class="link fake transparent" x1="35.80" y1="133.28" x2="65.10" y2="125.14"></line><line class="link fake transparent" x1="39.72" y1="119.16" x2="50.69" y2="129.79"></line><line class="link fake transparent" x1="39.72" y1="119.16" x2="60.58" y2="141.24"></line><line class="link fake transparent" x1="54.23" y1="115.22" x2="50.69" y2="129.79"></line><line class="link fake transparent" x1="54.23" y1="115.22" x2="46.11" y2="144.03"></line><line class="link fake transparent" x1="65.10" y1="125.14" x2="50.69" y2="129.79"></line><line class="link fake transparent" x1="65.10" y1="125.14" x2="35.80" y2="133.28"></line><line class="link fake transparent" x1="60.58" y1="141.24" x2="50.69" y2="129.79"></line><line class="link fake transparent" x1="60.58" y1="141.24" x2="39.72" y2="119.16"></line></g><g><g class="noselect gnode" struct_name="m" transform="translate(30.10,312.44)" r="6.5"><circle class="node" r="6" node_type="nucleotide" style="fill: lightsalmon;"></circle><text text-anchor="middle" font-size="8" font-weight="bold" y="2.5" class="node-label">U</text></g><g class="noselect gnode" struct_name="m" transform="translate(15.16,311.04)" r="6.5"><circle class="node" r="6" node_type="nucleotide" style="fill: lightsalmon;"></circle><text text-anchor="middle" font-size="8" font-weight="bold" y="2.5" class="node-label">G</text></g><g class="noselect gnode" struct_name="m" transform="translate(2.43,303.11)" r="6.5"><circle class="node" r="6" node_type="nucleotide" style="fill: lightsalmon;"></circle><text text-anchor="middle" font-size="8" font-weight="bold" y="2.5" class="node-label">G</text></g><g class="noselect gnode" struct_name="m" transform="translate(-5.19,290.15)" r="6.5"><circle class="node" r="6" node_type="nucleotide" style="fill: lightsalmon;"></circle><text text-anchor="middle" font-size="8" font-weight="bold" y="2.5" class="node-label">U</text></g><g class="noselect gnode" struct_name="m" transform="translate(-5.83,275.07)" r="6.5"><circle class="node" r="6" node_type="nucleotide" style="fill: lightsalmon;"></circle><text text-anchor="middle" font-size="8" font-weight="bold" y="2.5" class="node-label">G</text></g><g class="noselect gnode" struct_name="m" transform="translate(0.84,261.48)" r="6.5"><circle class="node" r="6" node_type="nucleotide" style="fill: lightsalmon;"></circle><text text-anchor="middle" font-size="8" font-weight="bold" y="2.5" class="node-label">U</text></g><g class="noselect gnode" struct_name="m" transform="translate(12.88,252.41)" r="6.5"><circle class="node" r="6" node_type="nucleotide" style="fill: lightsalmon;"></circle><text text-anchor="middle" font-size="8" font-weight="bold" y="2.5" class="node-label">G</text></g><g class="noselect gnode" struct_name="m" transform="translate(28.06,249.57)" r="6.5"><circle class="node" r="6" node_type="nucleotide" style="fill: lightgreen;"></circle><text text-anchor="middle" font-size="8" font-weight="bold" y="2.5" class="node-label">G</text></g><g class="noselect gnode" struct_name="m" transform="translate(33.51,234.77)" r="6.5"><circle class="node" r="6" node_type="nucleotide" style="fill: lightgreen;"></circle><text text-anchor="middle" font-size="8" font-weight="bold" y="2.5" class="node-label">C</text></g><g class="noselect gnode" struct_name="m" transform="translate(38.44,219.79)" r="6.5"><circle class="node" r="6" node_type="nucleotide" style="fill: lightgreen;"></circle><text text-anchor="middle" font-size="8" font-weight="bold" y="2.5" class="node-label">A</text></g><g class="noselect gnode" struct_name="m" transform="translate(42.56,204.73)" r="6.5"><circle class="node" r="6" node_type="nucleotide" style="fill: lightgreen;"></circle><text text-anchor="middle" font-size="8" font-weight="bold" y="2.5" class="node-label">U</text></g><g class="noselect gnode" struct_name="m" transform="translate(45.51,189.54)" r="6.5"><circle class="node" r="6" node_type="nucleotide" style="fill: lightgreen;"></circle><text text-anchor="middle" font-size="8" font-weight="bold" y="2.5" class="node-label">G</text></g><g class="noselect gnode" struct_name="m" transform="translate(47.28,174.21)" r="6.5"><circle class="node" r="6" node_type="nucleotide" style="fill: lightgreen;"></circle><text text-anchor="middle" font-size="8" font-weight="bold" y="2.5" class="node-label">C</text></g><g class="noselect gnode" struct_name="m" transform="translate(47.66,158.84)" r="6.5"><circle class="node" r="6" node_type="nucleotide" style="fill: lightgreen;"></circle><text text-anchor="middle" font-size="8" font-weight="bold" y="2.5" class="node-label">C</text></g><g class="noselect gnode" struct_name="m" transform="translate(46.11,144.03)" r="6.5"><circle class="node" r="6" node_type="nucleotide" style="fill: lightgreen;"></circle><text text-anchor="middle" font-size="8" font-weight="bold" y="2.5" class="node-label">C</text></g><g class="noselect gnode" struct_name="m" transform="translate(35.80,133.28)" r="6.5"><circle class="node" r="6" node_type="nucleotide" style="fill: rgb(219, 219, 141);"></circle><text text-anchor="middle" font-size="8" font-weight="bold" y="2.5" class="node-label">A</text></g><g class="noselect gnode" struct_name="m" transform="translate(39.72,119.16)" r="6.5"><circle class="node" r="6" node_type="nucleotide" style="fill: rgb(219, 219, 141);"></circle><text text-anchor="middle" font-size="8" font-weight="bold" y="2.5" class="node-label">A</text></g><g class="noselect gnode" struct_name="m" transform="translate(54.23,115.22)" r="6.5"><circle class="node" r="6" node_type="nucleotide" style="fill: lightgreen;"></circle><text text-anchor="middle" font-size="8" font-weight="bold" y="2.5" class="node-label">G</text></g><g class="noselect gnode" struct_name="m" transform="translate(63.38,103.37)" r="6.5"><circle class="node" r="6" node_type="nucleotide" style="fill: lightgreen;"></circle><text text-anchor="middle" font-size="8" font-weight="bold" y="2.5" class="node-label">G</text></g><g class="noselect gnode" struct_name="m" transform="translate(63.82,88.17)" r="6.5"><circle class="node" r="6" node_type="nucleotide" style="fill: rgb(219, 219, 141);"></circle><text text-anchor="middle" font-size="8" font-weight="bold" y="2.5" class="node-label">C</text></g><g class="noselect gnode" struct_name="m" transform="translate(77.22,81.18)" r="6.5"><circle class="node" r="6" node_type="nucleotide" style="fill: lightgreen;"></circle><text text-anchor="middle" font-size="8" font-weight="bold" y="2.5" class="node-label">G</text></g><g class="noselect gnode" struct_name="m" transform="translate(84.55,67.64)" r="6.5"><circle class="node" r="6" node_type="nucleotide" style="fill: lightgreen;"></circle><text text-anchor="middle" font-size="8" font-weight="bold" y="2.5" class="node-label">A</text></g><g class="noselect gnode" struct_name="m" transform="translate(90.93,53.36)" r="6.5"><circle class="node" r="6" node_type="nucleotide" style="fill: lightgreen;"></circle><text text-anchor="middle" font-size="8" font-weight="bold" y="2.5" class="node-label">G</text></g><g class="noselect gnode" struct_name="m" transform="translate(96.83,38.65)" r="6.5"><circle class="node" r="6" node_type="nucleotide" style="fill: lightgreen;"></circle><text text-anchor="middle" font-size="8" font-weight="bold" y="2.5" class="node-label">G</text></g><g class="noselect gnode" struct_name="m" transform="translate(102.83,23.60)" r="6.5"><circle class="node" r="6" node_type="nucleotide" style="fill: lightgreen;"></circle><text text-anchor="middle" font-size="8" font-weight="bold" y="2.5" class="node-label">U</text></g><g class="noselect gnode" struct_name="m" transform="translate(109.11,8.52)" r="6.5"><circle class="node" r="6" node_type="nucleotide" style="fill: lightgreen;"></circle><text text-anchor="middle" font-size="8" font-weight="bold" y="2.5" class="node-label">G</text></g><g class="noselect gnode" struct_name="m" transform="translate(103.22,-6.07)" r="6.5"><circle class="node" r="6" node_type="nucleotide" style="fill: rgb(219, 219, 141);"></circle><text text-anchor="middle" font-size="8" font-weight="bold" y="2.5" class="node-label">G</text></g><g class="noselect gnode" struct_name="m" transform="translate(107.55,-20.44)" r="6.5"><circle class="node" r="6" node_type="nucleotide" style="fill: rgb(219, 219, 141);"></circle><text text-anchor="middle" font-size="8" font-weight="bold" y="2.5" class="node-label">G</text></g><g class="noselect gnode" struct_name="m" transform="translate(120.50,-29.33)" r="6.5"><circle class="node" r="6" node_type="nucleotide" style="fill: lightgreen;"></circle><text text-anchor="middle" font-size="8" font-weight="bold" y="2.5" class="node-label">U</text></g><g class="noselect gnode" struct_name="m" transform="translate(123.55,-45.31)" r="6.5"><circle class="node" r="6" node_type="nucleotide" style="fill: lightgreen;"></circle><text text-anchor="middle" font-size="8" font-weight="bold" y="2.5" class="node-label">G</text></g><g class="noselect gnode" struct_name="m" transform="translate(126.70,-60.95)" r="6.5"><circle class="node" r="6" node_type="nucleotide" style="fill: lightgreen;"></circle><text text-anchor="middle" font-size="8" font-weight="bold" y="2.5" class="node-label">G</text></g><g class="noselect gnode" struct_name="m" transform="translate(122.13,-75.63)" r="6.5"><circle class="node" r="6" node_type="nucleotide" style="fill: lightblue;"></circle><text text-anchor="middle" font-size="8" font-weight="bold" y="2.5" class="node-label">C</text></g><g class="noselect gnode" struct_name="m" transform="translate(132.30,-86.62)" r="6.5"><circle class="node" r="6" node_type="nucleotide" style="fill: lightblue;"></circle><text text-anchor="middle" font-size="8" font-weight="bold" y="2.5" class="node-label">U</text></g><g class="noselect gnode" struct_name="m" transform="translate(146.93,-83.38)" r="6.5"><circle class="node" r="6" node_type="nucleotide" style="fill: lightblue;"></circle><text text-anchor="middle" font-size="8" font-weight="bold" y="2.5" class="node-label">C</text></g><g class="noselect gnode" struct_name="m" transform="translate(151.55,-69.13)" r="6.5"><circle class="node" r="6" node_type="nucleotide" style="fill: lightblue;"></circle><text text-anchor="middle" font-size="8" font-weight="bold" y="2.5" class="node-label">A</text></g><g class="noselect gnode" struct_name="m" transform="translate(141.24,-57.78)" r="6.5"><circle class="node" r="6" node_type="nucleotide" style="fill: lightgreen;"></circle><text text-anchor="middle" font-size="8" font-weight="bold" y="2.5" class="node-label">C</text></g><g class="noselect gnode" struct_name="m" transform="translate(137.84,-42.46)" r="6.5"><circle class="node" r="6" node_type="nucleotide" style="fill: lightgreen;"></circle><text text-anchor="middle" font-size="8" font-weight="bold" y="2.5" class="node-label">C</text></g><g class="noselect gnode" struct_name="m" transform="translate(135.23,-27.12)" r="6.5"><circle class="node" r="6" node_type="nucleotide" style="fill: lightgreen;"></circle><text text-anchor="middle" font-size="8" font-weight="bold" y="2.5" class="node-label">A</text></g><g class="noselect gnode" struct_name="m" transform="translate(145.64,-15.93)" r="6.5"><circle class="node" r="6" node_type="nucleotide" style="fill: rgb(219, 219, 141);"></circle><text text-anchor="middle" font-size="8" font-weight="bold" y="2.5" class="node-label">G</text></g><g class="noselect gnode" struct_name="m" transform="translate(146.56,-0.83)" r="6.5"><circle class="node" r="6" node_type="nucleotide" style="fill: rgb(219, 219, 141);"></circle><text text-anchor="middle" font-size="8" font-weight="bold" y="2.5" class="node-label">A</text></g><g class="noselect gnode" struct_name="m" transform="translate(137.49,11.20)" r="6.5"><circle class="node" r="6" node_type="nucleotide" style="fill: rgb(219, 219, 141);"></circle><text text-anchor="middle" font-size="8" font-weight="bold" y="2.5" class="node-label">A</text></g><g class="noselect gnode" struct_name="m" transform="translate(122.60,14.81)" r="6.5"><circle class="node" r="6" node_type="nucleotide" style="fill: lightgreen;"></circle><text text-anchor="middle" font-size="8" font-weight="bold" y="2.5" class="node-label">C</text></g><g class="noselect gnode" struct_name="m" transform="translate(116.24,29.11)" r="6.5"><circle class="node" r="6" node_type="nucleotide" style="fill: lightgreen;"></circle><text text-anchor="middle" font-size="8" font-weight="bold" y="2.5" class="node-label">A</text></g><g class="noselect gnode" struct_name="m" transform="translate(110.39,44.02)" r="6.5"><circle class="node" r="6" node_type="nucleotide" style="fill: lightgreen;"></circle><text text-anchor="middle" font-size="8" font-weight="bold" y="2.5" class="node-label">C</text></g><g class="noselect gnode" struct_name="m" transform="translate(104.38,59.02)" r="6.5"><circle class="node" r="6" node_type="nucleotide" style="fill: lightgreen;"></circle><text text-anchor="middle" font-size="8" font-weight="bold" y="2.5" class="node-label">C</text></g><g class="noselect gnode" struct_name="m" transform="translate(97.62,74.05)" r="6.5"><circle class="node" r="6" node_type="nucleotide" style="fill: lightgreen;"></circle><text text-anchor="middle" font-size="8" font-weight="bold" y="2.5" class="node-label">U</text></g><g class="noselect gnode" struct_name="m" transform="translate(89.91,88.66)" r="6.5"><circle class="node" r="6" node_type="nucleotide" style="fill: lightgreen;"></circle><text text-anchor="middle" font-size="8" font-weight="bold" y="2.5" class="node-label">U</text></g><g class="noselect gnode" struct_name="m" transform="translate(89.38,104.15)" r="6.5"><circle class="node" r="6" node_type="nucleotide" style="fill: rgb(219, 219, 141);"></circle><text text-anchor="middle" font-size="8" font-weight="bold" y="2.5" class="node-label">U</text></g><g class="noselect gnode" struct_name="m" transform="translate(75.52,111.55)" r="6.5"><circle class="node" r="6" node_type="nucleotide" style="fill: lightgreen;"></circle><text text-anchor="middle" font-size="8" font-weight="bold" y="2.5" class="node-label">C</text></g><g class="noselect gnode" struct_name="m" transform="translate(65.10,125.14)" r="6.5"><circle class="node" r="6" node_type="nucleotide" style="fill: lightgreen;"></circle><text text-anchor="middle" font-size="8" font-weight="bold" y="2.5" class="node-label">C</text></g><g class="noselect gnode" struct_name="m" transform="translate(60.58,141.24)" r="6.5"><circle class="node" r="6" node_type="nucleotide" style="fill: lightgreen;"></circle><text text-anchor="middle" font-size="8" font-weight="bold" y="2.5" class="node-label">G</text></g><g class="noselect gnode" struct_name="m" transform="translate(62.15,158.36)" r="6.5"><circle class="node" r="6" node_type="nucleotide" style="fill: lightgreen;"></circle><text text-anchor="middle" font-size="8" font-weight="bold" y="2.5" class="node-label">G</text></g><g class="noselect gnode" struct_name="m" transform="translate(61.80,175.23)" r="6.5"><circle class="node" r="6" node_type="nucleotide" style="fill: lightgreen;"></circle><text text-anchor="middle" font-size="8" font-weight="bold" y="2.5" class="node-label">G</text></g><g class="noselect gnode" struct_name="m" transform="translate(59.93,191.79)" r="6.5"><circle class="node" r="6" node_type="nucleotide" style="fill: lightgreen;"></circle><text text-anchor="middle" font-size="8" font-weight="bold" y="2.5" class="node-label">C</text></g><g class="noselect gnode" struct_name="m" transform="translate(56.72,208.05)" r="6.5"><circle class="node" r="6" node_type="nucleotide" style="fill: lightgreen;"></circle><text text-anchor="middle" font-size="8" font-weight="bold" y="2.5" class="node-label">A</text></g><g class="noselect gnode" struct_name="m" transform="translate(52.40,224.01)" r="6.5"><circle class="node" r="6" node_type="nucleotide" style="fill: lightgreen;"></circle><text text-anchor="middle" font-size="8" font-weight="bold" y="2.5" class="node-label">U</text></g><g class="noselect gnode" struct_name="m" transform="translate(47.30,239.49)" r="6.5"><circle class="node" r="6" node_type="nucleotide" style="fill: lightgreen;"></circle><text text-anchor="middle" font-size="8" font-weight="bold" y="2.5" class="node-label">G</text></g><g class="noselect gnode" struct_name="m" transform="translate(42.24,254.45)" r="6.5"><circle class="node" r="6" node_type="nucleotide" style="fill: lightgreen;"></circle><text text-anchor="middle" font-size="8" font-weight="bold" y="2.5" class="node-label">C</text></g><g class="noselect gnode" struct_name="m" transform="translate(52.59,265.67)" r="6.5"><circle class="node" r="6" node_type="nucleotide" style="fill: lightsalmon;"></circle><text text-anchor="middle" font-size="8" font-weight="bold" y="2.5" class="node-label">A</text></g><g class="noselect gnode" struct_name="m" transform="translate(56.73,280.10)" r="6.5"><circle class="node" r="6" node_type="nucleotide" style="fill: lightsalmon;"></circle><text text-anchor="middle" font-size="8" font-weight="bold" y="2.5" class="node-label">A</text></g><g class="noselect gnode" struct_name="m" transform="translate(23.30,216.07)" r="6.5"><circle class="node label" r="6" node_type="label"></circle><text text-anchor="middle" font-size="8" font-weight="bold" y="2.5" class="node-label">10</text></g><g class="noselect gnode" struct_name="m" transform="translate(50.99,79.29)" r="6.5"><circle class="node label" r="6" node_type="label"></circle><text text-anchor="middle" font-size="8" font-weight="bold" y="2.5" class="node-label">20</text></g><g class="noselect gnode" struct_name="m" transform="translate(109.70,-52.43)" r="6.5"><circle class="node label" r="6" node_type="label"></circle><text text-anchor="middle" font-size="8" font-weight="bold" y="2.5" class="node-label">30</text></g><g class="noselect gnode" struct_name="m" transform="translate(160.83,5.36)" r="6.5"><circle class="node label" r="6" node_type="label"></circle><text text-anchor="middle" font-size="8" font-weight="bold" y="2.5" class="node-label">40</text></g><g class="noselect gnode" struct_name="m" transform="translate(78.33,133.28)" r="6.5"><circle class="node label" r="6" node_type="label"></circle><text text-anchor="middle" font-size="8" font-weight="bold" y="2.5" class="node-label">50</text></g><g class="noselect gnode" struct_name="m" transform="translate(71.96,282.83)" r="6.5"><circle class="node label" r="6" node_type="label"></circle><text text-anchor="middle" font-size="8" font-weight="bold" y="2.5" class="node-label">60</text></g><g class="noselect gnode" transform="translate(64.94,114.11)" r="6.5"><circle class="node" r="0" node_type="middle"></circle><text text-anchor="middle" font-size="8" font-weight="bold" y="2.5" class="node-label"></text></g><g class="noselect gnode" transform="translate(87.60,78.06)" r="6.5"><circle class="node" r="0" node_type="middle"></circle><text text-anchor="middle" font-size="8" font-weight="bold" y="2.5" class="node-label"></text></g><g class="noselect gnode" transform="translate(94.61,63.60)" r="6.5"><circle class="node" r="0" node_type="middle"></circle><text text-anchor="middle" font-size="8" font-weight="bold" y="2.5" class="node-label"></text></g><g class="noselect gnode" transform="translate(100.71,48.76)" r="6.5"><circle class="node" r="0" node_type="middle"></circle><text text-anchor="middle" font-size="8" font-weight="bold" y="2.5" class="node-label"></text></g><g class="noselect gnode" transform="translate(106.51,33.84)" r="6.5"><circle class="node" r="0" node_type="middle"></circle><text text-anchor="middle" font-size="8" font-weight="bold" y="2.5" class="node-label"></text></g><g class="noselect gnode" transform="translate(112.58,18.85)" r="6.5"><circle class="node" r="0" node_type="middle"></circle><text text-anchor="middle" font-size="8" font-weight="bold" y="2.5" class="node-label"></text></g><g class="noselect gnode" transform="translate(129.10,-35.99)" r="6.5"><circle class="node" r="0" node_type="middle"></circle><text text-anchor="middle" font-size="8" font-weight="bold" y="2.5" class="node-label"></text></g><g class="noselect gnode" transform="translate(132.29,-51.69)" r="6.5"><circle class="node" r="0" node_type="middle"></circle><text text-anchor="middle" font-size="8" font-weight="bold" y="2.5" class="node-label"></text></g><g class="noselect gnode" transform="translate(37.75,244.72)" r="6.5"><circle class="node" r="0" node_type="middle"></circle><text text-anchor="middle" font-size="8" font-weight="bold" y="2.5" class="node-label"></text></g><g class="noselect gnode" transform="translate(43.07,229.59)" r="6.5"><circle class="node" r="0" node_type="middle"></circle><text text-anchor="middle" font-size="8" font-weight="bold" y="2.5" class="node-label"></text></g><g class="noselect gnode" transform="translate(47.81,214.22)" r="6.5"><circle class="node" r="0" node_type="middle"></circle><text text-anchor="middle" font-size="8" font-weight="bold" y="2.5" class="node-label"></text></g><g class="noselect gnode" transform="translate(51.51,198.56)" r="6.5"><circle class="node" r="0" node_type="middle"></circle><text text-anchor="middle" font-size="8" font-weight="bold" y="2.5" class="node-label"></text></g><g class="noselect gnode" transform="translate(53.97,182.74)" r="6.5"><circle class="node" r="0" node_type="middle"></circle><text text-anchor="middle" font-size="8" font-weight="bold" y="2.5" class="node-label"></text></g><g class="noselect gnode" transform="translate(55.13,166.69)" r="6.5"><circle class="node" r="0" node_type="middle"></circle><text text-anchor="middle" font-size="8" font-weight="bold" y="2.5" class="node-label"></text></g><g class="noselect gnode" transform="translate(54.67,150.59)" r="6.5"><circle class="node" r="0" node_type="middle"></circle><text text-anchor="middle" font-size="8" font-weight="bold" y="2.5" class="node-label"></text></g><g class="noselect gnode" transform="translate(54.33,294.84)" r="6.5"><circle class="node" r="0" node_type="middle"></circle><text text-anchor="middle" font-size="8" font-weight="bold" y="2.5" class="node-label"></text></g><g class="noselect gnode" transform="translate(44.93,306.76)" r="6.5"><circle class="node" r="0" node_type="middle"></circle><text text-anchor="middle" font-size="8" font-weight="bold" y="2.5" class="node-label"></text></g><g class="noselect gnode" transform="translate(25.17,281.07)" r="6.5"><circle class="node" r="0" node_type="middle"></circle><text text-anchor="middle" font-size="8" font-weight="bold" y="2.5" class="node-label"></text></g><g class="noselect gnode" transform="translate(136.80,-72.21)" r="6.5"><circle class="node" r="0" node_type="middle"></circle><text text-anchor="middle" font-size="8" font-weight="bold" y="2.5" class="node-label"></text></g><g class="noselect gnode" transform="translate(76.69,96.27)" r="6.5"><circle class="node" r="0" node_type="middle"></circle><text text-anchor="middle" font-size="8" font-weight="bold" y="2.5" class="node-label"></text></g><g class="noselect gnode" transform="translate(125.18,-7.30)" r="6.5"><circle class="node" r="0" node_type="middle"></circle><text text-anchor="middle" font-size="8" font-weight="bold" y="2.5" class="node-label"></text></g><g class="noselect gnode" transform="translate(50.69,129.79)" r="6.5"><circle class="node" r="0" node_type="middle"></circle><text text-anchor="middle" font-size="8" font-weight="bold" y="2.5" class="node-label"></text></g></g><line class="drag_line" x1="0" y1="0" x2="0" y2="0"></line></g></g></svg>