<svg xmlns="http://www.w3.org/2000/svg" viewBox="0 0 760 640" width="760" height="640"><style>svg {
  display: block;
  min-width: 100%;
  width: 100%;
  min-height: 100%;
}

circle.node {
  stroke: #ccc;
  stroke-width: 1px;
  opacity: 1;
  fill: white;
}

circle.node.label {
    stroke: transparent;
    stroke-width: 0;
    fill: white;
}

circle.outline_node {
    stroke-width: 1px;
    fill: red;
}

circle.protein {
    fill: gray;
    fill-opacity: 0.5;
    stroke-width: 4;
}

circle.hidden_outline {
    stroke-width: 0px;
}


line.link {
  stroke: #999;
  stroke-opacity: 0.8;
  stroke-width: 2;
}

line.basepair {
  stroke: red;
}

line.intermolecule {
  stroke: blue;
}

line.chain_chain {
  stroke-dasharray: 3,3;
}

line.fake {
  stroke: green;
}

.transparent {
    fill: transparent;
    stroke-width: 0;
    stroke-opacity: 0;
    opacity: 0;
    visibility: hidden;
}

.drag_line {
  stroke: #999;
  stroke-width: 2;
  pointer-events: none;
}

.drag_line_hidden {
  stroke: #999;
  stroke-width: 0;
  pointer-events: none;
}

.d3-tip {
    line-height: 1;
    font-weight: bold;
    padding: 6px;
    background: rgba(0, 0, 0, 0.6);
    color: #fff;
    border-radius: 4px;
    pointer-events: none;
          }

text.node-label {
    font-weight: bold;
    font-family: Tahoma, Geneva, sans-serif;
    color: rgb(100,100,100);
    pointer-events: none;
}

text {
    pointer-events: none;
}

g.gnode {

}

circle.outline_node.selected {
    visibility: visible;
}

circle.outline_node {
    visibility: hidden;
}

.brush .extent {
  fill-opacity: .1;
  stroke: #fff;
  shape-rendering: crispEdges;
}

.noselect {
    -webkit-touch-callout: none;
    -webkit-user-select: none;
    -khtml-user-select: none;
    -moz-user-select: none;
    -ms-user-select: none;
    user-select: none;
}

svg {
  display: block;
  min-width: 100%;
  width: 100%;
  min-height: 100%;
}

circle.node {
  stroke: #ccc;
  stroke-width: 1px;
  opacity: 1;
  fill: white;
}

circle.node.label {
    stroke: transparent;
    stroke-width: 0;
    fill: white;
}

circle.outline_node {
    stroke-width: 1px;
    fill: red;
}

circle.protein {
    fill: gray;
    fill-opacity: 0.5;
    stroke-width: 4;
}

circle.hidden_outline {
    stroke-width: 0px;
}


line.link {
  stroke: #999;
  stroke-opacity: 0.8;
  stroke-width: 2;
}

line.basepair {
  stroke: red;
}

line.intermolecule {
  stroke: blue;
}

line.chain_chain {
  stroke-dasharray: 3,3;
}

line.fake {
  stroke: green;
}

.transparent {
    fill: transparent;
    stroke-width: 0;
    stroke-opacity: 0;
    opacity: 0;
    visibility: hidden;
}

.drag_line {
  stroke: #999;
  stroke-width: 2;
  pointer-events: none;
}

.drag_line_hidden {
  stroke: #999;
  stroke-width: 0;
  pointer-events: none;
}

.d3-tip {
    line-height: 1;
    font-weight: bold;
    padding: 6px;
    background: rgba(0, 0, 0, 0.6);
    color: #fff;
    border-radius: 4px;
    pointer-events: none;
          }

text.node-label {
    font-weight: bold;
    font-family: Tahoma, Geneva, sans-serif;
    color: rgb(100,100,100);
    pointer-events: none;
}

text {
    pointer-events: none;
}

g.gnode {

}

circle.outline_node.selected {
    visibility: visible;
}

circle.outline_node {
    visibility: hidden;
}

.brush .extent {
  fill-opacity: .1;
  stroke: #fff;
  shape-rendering: crispEdges;
}

.noselect {
    -webkit-touch-callout: none;
    -webkit-user-select: none;
    -khtml-user-select: none;
    -moz-user-select: none;
    -ms-user-select: none;
    user-select: none;
}
/*# sourceURL=/Users/yumanakamura/ipy_sandbox/sandbox/claude_sandbox/mrna-transformer/scripts/eval/prerender/forna_vendor/fornac.css*/</style><style></style><g><g class="brush" style="pointer-events: all; -webkit-tap-highlight-color: rgba(0, 0, 0, 0);"><rect class="background" x="0" width="760" y="0" height="640" style="visibility: hidden; cursor: auto;"></rect><rect class="extent" x="0" width="0" y="0" height="0" style="cursor: move;"></rect><g class="resize n" transform="translate(0,0)" style="cursor: ns-resize; display: none;"><rect y="-3" width="0" height="6" style="visibility: hidden;"></rect></g><g class="resize e" transform="translate(0,0)" style="cursor: ew-resize; display: none;"><rect x="-3" width="6" height="0" style="visibility: hidden;"></rect></g><g class="resize s" transform="translate(0,0)" style="cursor: ns-resize; display: none;"><rect y="-3" width="0" height="6" style="visibility: hidden;"></rect></g><g class="resize w" transform="translate(0,0)" style="cursor: ew-resize; display: none;"><rect x="-3" width="6" height="0" style="visibility: hidden;"></rect></g><g class="resize nw" transform="translate(0,0)" style="cursor: nwse-resize; display: none;"><rect x="-3" y="-3" width="6" height="6" style="visibility: hidden;"></rect></g><g class="resize ne" transform="translate(0,0)" style="cursor: nesw-resize; display: none;"><rect x="-3" y="-3" width="6" height="6" style="visibility: hidden;"></rect></g><g class="resize se" transform="translate(0,0)" style="cursor: nwse-resize; display: none;"><rect x="-3" y="-3" width="6" height="6" style="visibility: hidden;"></rect></g><g class="resize sw" transform="translate(0,0)" style="cursor: nesw-resize; display: none;"><rect x="-3" y="-3" width="6" height="6" style="visibility: hidden;"></rect></g></g><g transform="translate(278.41,322.99) scale(1.33)"><g><line class="link backbone" x1="21.49" y1="197.49" x2="6.51" y2="197.40"></line><line class="link backbone" x1="6.51" y1="197.40" x2="-5.16" y2="187.93"></line><line class="link backbone" x1="-5.16" y1="187.93" x2="-7.82" y2="173.02"></line><line class="link backbone" x1="-7.82" y1="173.02" x2="-0.61" y2="159.91"></line><line class="link basepair" x1="13.69" y1="154.05" x2="27.80" y2="158.93"></line><line class="link backbone" x1="-0.61" y1="159.91" x2="13.69" y2="154.05"></line><line class="link basepair" x1="19.33" y1="139.18" x2="33.05" y2="144.28"></line><line class="link backbone" x1="13.69" y1="154.05" x2="19.33" y2="139.18"></line><line class="link basepair" x1="24.68" y1="124.44" x2="38.70" y2="129.41"></line><line class="link backbone" x1="19.33" y1="139.18" x2="24.68" y2="124.44"></line><line class="link backbone" x1="24.68" y1="124.44" x2="15.73" y2="112.27"></line><line class="link backbone" x1="15.73" y1="112.27" x2="15.58" y2="97.26"></line><line class="link backbone" x1="15.58" y1="97.26" x2="24.47" y2="85.14"></line><line class="link basepair" x1="38.86" y1="80.54" x2="53.17" y2="84.60"></line><line class="link backbone" x1="24.47" y1="85.14" x2="38.86" y2="80.54"></line><line class="link basepair" x1="42.60" y1="65.75" x2="56.89" y2="68.69"></line><line class="link backbone" x1="38.86" y1="80.54" x2="42.60" y2="65.75"></line><line class="link basepair" x1="45.16" y1="50.45" x2="59.60" y2="52.36"></line><line class="link backbone" x1="42.60" y1="65.75" x2="45.16" y2="50.45"></line><line class="link basepair" x1="46.67" y1="34.96" x2="61.16" y2="35.80"></line><line class="link backbone" x1="45.16" y1="50.45" x2="46.67" y2="34.96"></line><line class="link basepair" x1="46.78" y1="19.68" x2="61.68" y2="19.16"></line><line class="link backbone" x1="46.67" y1="34.96" x2="46.78" y2="19.68"></line><line class="link backbone" x1="46.78" y1="19.68" x2="35.58" y2="9.65"></line><line class="link backbone" x1="35.58" y1="9.65" x2="34.19" y2="-5.16"></line><line class="link backbone" x1="34.19" y1="-5.16" x2="44.10" y2="-16.26"></line><line class="link basepair" x1="59.12" y1="-17.76" x2="70.77" y2="-8.46"></line><line class="link backbone" x1="44.10" y1="-16.26" x2="59.12" y2="-17.76"></line><line class="link basepair" x1="68.14" y1="-30.12" x2="80.29" y2="-22.23"></line><line class="link backbone" x1="59.12" y1="-17.76" x2="68.14" y2="-30.12"></line><line class="link basepair" x1="75.94" y1="-43.46" x2="88.78" y2="-36.56"></line><line class="link backbone" x1="68.14" y1="-30.12" x2="75.94" y2="-43.46"></line><line class="link basepair" x1="82.71" y1="-57.39" x2="96.05" y2="-51.47"></line><line class="link backbone" x1="75.94" y1="-43.46" x2="82.71" y2="-57.39"></line><line class="link basepair" x1="88.56" y1="-71.82" x2="102.21" y2="-66.68"></line><line class="link backbone" x1="82.71" y1="-57.39" x2="88.56" y2="-71.82"></line><line class="link basepair" x1="93.84" y1="-86.75" x2="107.61" y2="-82.12"></line><line class="link backbone" x1="88.56" y1="-71.82" x2="93.84" y2="-86.75"></line><line class="link basepair" x1="98.80" y1="-102.04" x2="112.59" y2="-97.62"></line><line class="link backbone" x1="93.84" y1="-86.75" x2="98.80" y2="-102.04"></line><line class="link basepair" x1="103.75" y1="-117.53" x2="117.51" y2="-113.05"></line><line class="link backbone" x1="98.80" y1="-102.04" x2="103.75" y2="-117.53"></line><line class="link basepair" x1="108.90" y1="-133.02" x2="122.61" y2="-128.28"></line><line class="link backbone" x1="103.75" y1="-117.53" x2="108.90" y2="-133.02"></line><line class="link basepair" x1="114.45" y1="-148.41" x2="128.00" y2="-143.42"></line><line class="link backbone" x1="108.90" y1="-133.02" x2="114.45" y2="-148.41"></line><line class="link basepair" x1="119.93" y1="-163.56" x2="133.87" y2="-158.14"></line><line class="link backbone" x1="114.45" y1="-148.41" x2="119.93" y2="-163.56"></line><line class="link backbone" x1="119.93" y1="-163.56" x2="112.83" y2="-177.43"></line><line class="link backbone" x1="112.83" y1="-177.43" x2="115.81" y2="-192.15"></line><line class="link backbone" x1="115.81" y1="-192.15" x2="127.73" y2="-201.63"></line><line class="link backbone" x1="127.73" y1="-201.63" x2="142.80" y2="-201.04"></line><line class="link backbone" x1="142.80" y1="-201.04" x2="154.19" y2="-191.11"></line><line class="link backbone" x1="154.19" y1="-191.11" x2="156.43" y2="-176.07"></line><line class="link backbone" x1="156.43" y1="-176.07" x2="148.50" y2="-163.23"></line><line class="link basepair" x1="133.87" y1="-158.14" x2="119.93" y2="-163.56"></line><line class="link backbone" x1="148.50" y1="-163.23" x2="133.87" y2="-158.14"></line><line class="link basepair" x1="128.00" y1="-143.42" x2="114.45" y2="-148.41"></line><line class="link backbone" x1="133.87" y1="-158.14" x2="128.00" y2="-143.42"></line><line class="link basepair" x1="122.61" y1="-128.28" x2="108.90" y2="-133.02"></line><line class="link backbone" x1="128.00" y1="-143.42" x2="122.61" y2="-128.28"></line><line class="link basepair" x1="117.51" y1="-113.05" x2="103.75" y2="-117.53"></line><line class="link backbone" x1="122.61" y1="-128.28" x2="117.51" y2="-113.05"></line><line class="link basepair" x1="112.59" y1="-97.62" x2="98.80" y2="-102.04"></line><line class="link backbone" x1="117.51" y1="-113.05" x2="112.59" y2="-97.62"></line><line class="link basepair" x1="107.61" y1="-82.12" x2="93.84" y2="-86.75"></line><line class="link backbone" x1="112.59" y1="-97.62" x2="107.61" y2="-82.12"></line><line class="link basepair" x1="102.21" y1="-66.68" x2="88.56" y2="-71.82"></line><line class="link backbone" x1="107.61" y1="-82.12" x2="102.21" y2="-66.68"></line><line class="link basepair" x1="96.05" y1="-51.47" x2="82.71" y2="-57.39"></line><line class="link backbone" x1="102.21" y1="-66.68" x2="96.05" y2="-51.47"></line><line class="link basepair" x1="88.78" y1="-36.56" x2="75.94" y2="-43.46"></line><line class="link backbone" x1="96.05" y1="-51.47" x2="88.78" y2="-36.56"></line><line class="link basepair" x1="80.29" y1="-22.23" x2="68.14" y2="-30.12"></line><line class="link backbone" x1="88.78" y1="-36.56" x2="80.29" y2="-22.23"></line><line class="link basepair" x1="70.77" y1="-8.46" x2="59.12" y2="-17.76"></line><line class="link backbone" x1="80.29" y1="-22.23" x2="70.77" y2="-8.46"></line><line class="link backbone" x1="70.77" y1="-8.46" x2="71.60" y2="7.10"></line><line class="link basepair" x1="61.68" y1="19.16" x2="46.78" y2="19.68"></line><line class="link backbone" x1="71.60" y1="7.10" x2="61.68" y2="19.16"></line><line class="link basepair" x1="61.16" y1="35.80" x2="46.67" y2="34.96"></line><line class="link backbone" x1="61.68" y1="19.16" x2="61.16" y2="35.80"></line><line class="link basepair" x1="59.60" y1="52.36" x2="45.16" y2="50.45"></line><line class="link backbone" x1="61.16" y1="35.80" x2="59.60" y2="52.36"></line><line class="link basepair" x1="56.89" y1="68.69" x2="42.60" y2="65.75"></line><line class="link backbone" x1="59.60" y1="52.36" x2="56.89" y2="68.69"></line><line class="link basepair" x1="53.17" y1="84.60" x2="38.86" y2="80.54"></line><line class="link backbone" x1="56.89" y1="68.69" x2="53.17" y2="84.60"></line><line class="link backbone" x1="53.17" y1="84.60" x2="62.08" y2="97.14"></line><line class="link backbone" x1="62.08" y1="97.14" x2="61.97" y2="112.16"></line><line class="link backbone" x1="61.97" y1="112.16" x2="53.29" y2="124.43"></line><line class="link basepair" x1="38.70" y1="129.41" x2="24.68" y2="124.44"></line><line class="link backbone" x1="53.29" y1="124.43" x2="38.70" y2="129.41"></line><line class="link basepair" x1="33.05" y1="144.28" x2="19.33" y2="139.18"></line><line class="link backbone" x1="38.70" y1="129.41" x2="33.05" y2="144.28"></line><line class="link basepair" x1="27.80" y1="158.93" x2="13.69" y2="154.05"></line><line class="link backbone" x1="33.05" y1="144.28" x2="27.80" y2="158.93"></line><line class="link label_link" x1="15.58" y1="97.26" x2="0.74" y2="92.50"></line><line class="link label_link" x1="59.12" y1="-17.76" x2="47.26" y2="-27.86"></line><line class="link label_link" x1="119.93" y1="-163.56" x2="105.11" y2="-168.27"></line><line class="link label_link" x1="122.61" y1="-128.28" x2="136.94" y2="-122.19"></line><line class="link label_link" x1="61.68" y1="19.16" x2="76.24" y2="24.66"></line><line class="link label_link" x1="27.80" y1="158.93" x2="30.58" y2="174.06"></line><line class="link fake transparent" x1="59.12" y1="-17.76" x2="69.84" y2="-19.43"></line><line class="link fake transparent" x1="59.12" y1="-17.76" x2="80.29" y2="-22.23"></line><line class="link fake transparent" x1="68.14" y1="-30.12" x2="69.84" y2="-19.43"></line><line class="link fake transparent" x1="80.29" y1="-22.23" x2="69.84" y2="-19.43"></line><line class="link fake transparent" x1="70.77" y1="-8.46" x2="69.84" y2="-19.43"></line><line class="link fake transparent" x1="68.14" y1="-30.12" x2="78.60" y2="-32.99"></line><line class="link fake transparent" x1="75.94" y1="-43.46" x2="78.60" y2="-32.99"></line><line class="link fake transparent" x1="88.78" y1="-36.56" x2="78.60" y2="-32.99"></line><line class="link fake transparent" x1="80.29" y1="-22.23" x2="78.60" y2="-32.99"></line><line class="link fake transparent" x1="75.94" y1="-43.46" x2="86.17" y2="-47.09"></line><line class="link fake transparent" x1="82.71" y1="-57.39" x2="86.17" y2="-47.09"></line><line class="link fake transparent" x1="96.05" y1="-51.47" x2="86.17" y2="-47.09"></line><line class="link fake transparent" x1="88.78" y1="-36.56" x2="86.17" y2="-47.09"></line><line class="link fake transparent" x1="82.71" y1="-57.39" x2="92.62" y2="-61.78"></line><line class="link fake transparent" x1="88.56" y1="-71.82" x2="92.62" y2="-61.78"></line><line class="link fake transparent" x1="102.21" y1="-66.68" x2="92.62" y2="-61.78"></line><line class="link fake transparent" x1="96.05" y1="-51.47" x2="92.62" y2="-61.78"></line><line class="link fake transparent" x1="88.56" y1="-71.82" x2="98.19" y2="-76.78"></line><line class="link fake transparent" x1="93.84" y1="-86.75" x2="98.19" y2="-76.78"></line><line class="link fake transparent" x1="107.61" y1="-82.12" x2="98.19" y2="-76.78"></line><line class="link fake transparent" x1="102.21" y1="-66.68" x2="98.19" y2="-76.78"></line><line class="link fake transparent" x1="93.84" y1="-86.75" x2="103.24" y2="-92.10"></line><line class="link fake transparent" x1="98.80" y1="-102.04" x2="103.24" y2="-92.10"></line><line class="link fake transparent" x1="112.59" y1="-97.62" x2="103.24" y2="-92.10"></line><line class="link fake transparent" x1="107.61" y1="-82.12" x2="103.24" y2="-92.10"></line><line class="link fake transparent" x1="98.80" y1="-102.04" x2="108.12" y2="-107.56"></line><line class="link fake transparent" x1="103.75" y1="-117.53" x2="108.12" y2="-107.56"></line><line class="link fake transparent" x1="117.51" y1="-113.05" x2="108.12" y2="-107.56"></line><line class="link fake transparent" x1="112.59" y1="-97.62" x2="108.12" y2="-107.56"></line><line class="link fake transparent" x1="103.75" y1="-117.53" x2="113.11" y2="-123.02"></line><line class="link fake transparent" x1="108.90" y1="-133.02" x2="113.11" y2="-123.02"></line><line class="link fake transparent" x1="122.61" y1="-128.28" x2="113.11" y2="-123.02"></line><line class="link fake transparent" x1="117.51" y1="-113.05" x2="113.11" y2="-123.02"></line><line class="link fake transparent" x1="108.90" y1="-133.02" x2="118.40" y2="-138.33"></line><line class="link fake transparent" x1="114.45" y1="-148.41" x2="118.40" y2="-138.33"></line><line class="link fake transparent" x1="128.00" y1="-143.42" x2="118.40" y2="-138.33"></line><line class="link fake transparent" x1="122.61" y1="-128.28" x2="118.40" y2="-138.33"></line><line class="link fake transparent" x1="114.45" y1="-148.41" x2="124.04" y2="-153.52"></line><line class="link fake transparent" x1="119.93" y1="-163.56" x2="124.04" y2="-153.52"></line><line class="link fake transparent" x1="133.87" y1="-158.14" x2="124.04" y2="-153.52"></line><line class="link fake transparent" x1="128.00" y1="-143.42" x2="124.04" y2="-153.52"></line><line class="link fake transparent" x1="13.69" y1="154.05" x2="23.36" y2="149.19"></line><line class="link fake transparent" x1="19.33" y1="139.18" x2="23.36" y2="149.19"></line><line class="link fake transparent" x1="33.05" y1="144.28" x2="23.36" y2="149.19"></line><line class="link fake transparent" x1="27.80" y1="158.93" x2="23.36" y2="149.19"></line><line class="link fake transparent" x1="19.33" y1="139.18" x2="29.01" y2="134.31"></line><line class="link fake transparent" x1="24.68" y1="124.44" x2="29.01" y2="134.31"></line><line class="link fake transparent" x1="38.70" y1="129.41" x2="29.01" y2="134.31"></line><line class="link fake transparent" x1="33.05" y1="144.28" x2="29.01" y2="134.31"></line><line class="link fake transparent" x1="38.86" y1="80.54" x2="48.17" y2="75.02"></line><line class="link fake transparent" x1="42.60" y1="65.75" x2="48.17" y2="75.02"></line><line class="link fake transparent" x1="56.89" y1="68.69" x2="48.17" y2="75.02"></line><line class="link fake transparent" x1="53.17" y1="84.60" x2="48.17" y2="75.02"></line><line class="link fake transparent" x1="42.60" y1="65.75" x2="51.35" y2="59.38"></line><line class="link fake transparent" x1="45.16" y1="50.45" x2="51.35" y2="59.38"></line><line class="link fake transparent" x1="59.60" y1="52.36" x2="51.35" y2="59.38"></line><line class="link fake transparent" x1="56.89" y1="68.69" x2="51.35" y2="59.38"></line><line class="link fake transparent" x1="45.16" y1="50.45" x2="53.43" y2="43.44"></line><line class="link fake transparent" x1="46.67" y1="34.96" x2="53.43" y2="43.44"></line><line class="link fake transparent" x1="61.16" y1="35.80" x2="53.43" y2="43.44"></line><line class="link fake transparent" x1="59.60" y1="52.36" x2="53.43" y2="43.44"></line><line class="link fake transparent" x1="46.67" y1="34.96" x2="54.37" y2="27.39"></line><line class="link fake transparent" x1="46.78" y1="19.68" x2="54.37" y2="27.39"></line><line class="link fake transparent" x1="61.68" y1="19.16" x2="54.37" y2="27.39"></line><line class="link fake transparent" x1="61.16" y1="35.80" x2="54.37" y2="27.39"></line><line class="link fake transparent" x1="21.49" y1="197.49" x2="13.90" y2="176.32"></line><line class="link fake transparent" x1="21.49" y1="197.49" x2="-0.61" y2="159.91"></line><line class="link fake transparent" x1="6.51" y1="197.40" x2="13.90" y2="176.32"></line><line class="link fake transparent" x1="6.51" y1="197.40" x2="13.69" y2="154.05"></line><line class="link fake transparent" x1="-5.16" y1="187.93" x2="13.90" y2="176.32"></line><line class="link fake transparent" x1="-5.16" y1="187.93" x2="27.80" y2="158.93"></line><line class="link fake transparent" x1="-7.82" y1="173.02" x2="13.90" y2="176.32"></line><line class="link fake transparent" x1="-7.82" y1="173.02" x2="36.24" y2="171.67"></line><line class="link fake transparent" x1="-0.61" y1="159.91" x2="13.90" y2="176.32"></line><line class="link fake transparent" x1="-0.61" y1="159.91" x2="34.86" y2="186.41"></line><line class="link fake transparent" x1="13.69" y1="154.05" x2="13.90" y2="176.32"></line><line class="link fake transparent" x1="13.69" y1="154.05" x2="21.49" y2="197.49"></line><line class="link fake transparent" x1="27.80" y1="158.93" x2="13.90" y2="176.32"></line><line class="link fake transparent" x1="27.80" y1="158.93" x2="6.51" y2="197.40"></line><line class="link fake transparent" x1="119.93" y1="-163.56" x2="134.63" y2="-180.36"></line><line class="link fake transparent" x1="119.93" y1="-163.56" x2="142.80" y2="-201.04"></line><line class="link fake transparent" x1="112.83" y1="-177.43" x2="134.63" y2="-180.36"></line><line class="link fake transparent" x1="112.83" y1="-177.43" x2="154.19" y2="-191.11"></line><line class="link fake transparent" x1="115.81" y1="-192.15" x2="134.63" y2="-180.36"></line><line class="link fake transparent" x1="115.81" y1="-192.15" x2="156.43" y2="-176.07"></line><line class="link fake transparent" x1="127.73" y1="-201.63" x2="134.63" y2="-180.36"></line><line class="link fake transparent" x1="127.73" y1="-201.63" x2="148.50" y2="-163.23"></line><line class="link fake transparent" x1="142.80" y1="-201.04" x2="134.63" y2="-180.36"></line><line class="link fake transparent" x1="142.80" y1="-201.04" x2="133.87" y2="-158.14"></line><line class="link fake transparent" x1="154.19" y1="-191.11" x2="134.63" y2="-180.36"></line><line class="link fake transparent" x1="154.19" y1="-191.11" x2="119.93" y2="-163.56"></line><line class="link fake transparent" x1="156.43" y1="-176.07" x2="134.63" y2="-180.36"></line><line class="link fake transparent" x1="156.43" y1="-176.07" x2="112.83" y2="-177.43"></line><line class="link fake transparent" x1="148.50" y1="-163.23" x2="134.63" y2="-180.36"></line><line class="link fake transparent" x1="148.50" y1="-163.23" x2="115.81" y2="-192.15"></line><line class="link fake transparent" x1="133.87" y1="-158.14" x2="134.63" y2="-180.36"></line><line class="link fake transparent" x1="133.87" y1="-158.14" x2="127.73" y2="-201.63"></line><line class="link fake transparent" x1="24.68" y1="124.44" x2="38.94" y2="104.77"></line><line class="link fake transparent" x1="24.68" y1="124.44" x2="53.17" y2="84.60"></line><line class="link fake transparent" x1="15.73" y1="112.27" x2="38.94" y2="104.77"></line><line class="link fake transparent" x1="15.73" y1="112.27" x2="62.08" y2="97.14"></line><line class="link fake transparent" x1="15.58" y1="97.26" x2="38.94" y2="104.77"></line><line class="link fake transparent" x1="15.58" y1="97.26" x2="61.97" y2="112.16"></line><line class="link fake transparent" x1="24.47" y1="85.14" x2="38.94" y2="104.77"></line><line class="link fake transparent" x1="24.47" y1="85.14" x2="53.29" y2="124.43"></line><line class="link fake transparent" x1="38.86" y1="80.54" x2="38.94" y2="104.77"></line><line class="link fake transparent" x1="38.86" y1="80.54" x2="38.70" y2="129.41"></line><line class="link fake transparent" x1="53.17" y1="84.60" x2="38.94" y2="104.77"></line><line class="link fake transparent" x1="53.17" y1="84.60" x2="24.68" y2="124.44"></line><line class="link fake transparent" x1="62.08" y1="97.14" x2="38.94" y2="104.77"></line><line class="link fake transparent" x1="62.08" y1="97.14" x2="15.73" y2="112.27"></line><line class="link fake transparent" x1="61.97" y1="112.16" x2="38.94" y2="104.77"></line><line class="link fake transparent" x1="61.97" y1="112.16" x2="15.58" y2="97.26"></line><line class="link fake transparent" x1="53.29" y1="124.43" x2="38.94" y2="104.77"></line><line class="link fake transparent" x1="53.29" y1="124.43" x2="24.47" y2="85.14"></line><line class="link fake transparent" x1="38.70" y1="129.41" x2="38.94" y2="104.77"></line><line class="link fake transparent" x1="38.70" y1="129.41" x2="38.86" y2="80.54"></line><line class="link fake transparent" x1="46.78" y1="19.68" x2="53.26" y2="1.08"></line><line class="link fake transparent" x1="46.78" y1="19.68" x2="59.12" y2="-17.76"></line><line class="link fake transparent" x1="35.58" y1="9.65" x2="53.26" y2="1.08"></line><line class="link fake transparent" x1="35.58" y1="9.65" x2="70.77" y2="-8.46"></line><line class="link fake transparent" x1="34.19" y1="-5.16" x2="53.26" y2="1.08"></line><line class="link fake transparent" x1="34.19" y1="-5.16" x2="71.60" y2="7.10"></line><line class="link fake transparent" x1="44.10" y1="-16.26" x2="53.26" y2="1.08"></line><line class="link fake transparent" x1="44.10" y1="-16.26" x2="61.68" y2="19.16"></line><line class="link fake transparent" x1="59.12" y1="-17.76" x2="53.26" y2="1.08"></line><line class="link fake transparent" x1="59.12" y1="-17.76" x2="46.78" y2="19.68"></line><line class="link fake transparent" x1="70.77" y1="-8.46" x2="53.26" y2="1.08"></line><line class="link fake transparent" x1="70.77" y1="-8.46" x2="35.58" y2="9.65"></line><line class="link fake transparent" x1="71.60" y1="7.10" x2="53.26" y2="1.08"></line><line class="link fake transparent" x1="71.60" y1="7.10" x2="34.19" y2="-5.16"></line><line class="link fake transparent" x1="61.68" y1="19.16" x2="53.26" y2="1.08"></line><line class="link fake transparent" x1="61.68" y1="19.16" x2="44.10" y2="-16.26"></line></g><g><g class="noselect gnode" struct_name="m" transform="translate(21.49,197.49)" r="6.5"><circle class="node" r="6" node_type="nucleotide" style="fill: lightsalmon;"></circle><text text-anchor="middle" font-size="8" font-weight="bold" y="2.5" class="node-label">C</text></g><g class="noselect gnode" struct_name="m" transform="translate(6.51,197.40)" r="6.5"><circle class="node" r="6" node_type="nucleotide" style="fill: lightsalmon;"></circle><text text-anchor="middle" font-size="8" font-weight="bold" y="2.5" class="node-label">A</text></g><g class="noselect gnode" struct_name="m" transform="translate(-5.16,187.93)" r="6.5"><circle class="node" r="6" node_type="nucleotide" style="fill: lightsalmon;"></circle><text text-anchor="middle" font-size="8" font-weight="bold" y="2.5" class="node-label">A</text></g><g class="noselect gnode" struct_name="m" transform="translate(-7.82,173.02)" r="6.5"><circle class="node" r="6" node_type="nucleotide" style="fill: lightsalmon;"></circle><text text-anchor="middle" font-size="8" font-weight="bold" y="2.5" class="node-label">U</text></g><g class="noselect gnode" struct_name="m" transform="translate(-0.61,159.91)" r="6.5"><circle class="node" r="6" node_type="nucleotide" style="fill: lightsalmon;"></circle><text text-anchor="middle" font-size="8" font-weight="bold" y="2.5" class="node-label">U</text></g><g class="noselect gnode" struct_name="m" transform="translate(13.69,154.05)" r="6.5"><circle class="node" r="6" node_type="nucleotide" style="fill: lightgreen;"></circle><text text-anchor="middle" font-size="8" font-weight="bold" y="2.5" class="node-label">C</text></g><g class="noselect gnode" struct_name="m" transform="translate(19.33,139.18)" r="6.5"><circle class="node" r="6" node_type="nucleotide" style="fill: lightgreen;"></circle><text text-anchor="middle" font-size="8" font-weight="bold" y="2.5" class="node-label">U</text></g><g class="noselect gnode" struct_name="m" transform="translate(24.68,124.44)" r="6.5"><circle class="node" r="6" node_type="nucleotide" style="fill: lightgreen;"></circle><text text-anchor="middle" font-size="8" font-weight="bold" y="2.5" class="node-label">A</text></g><g class="noselect gnode" struct_name="m" transform="translate(15.73,112.27)" r="6.5"><circle class="node" r="6" node_type="nucleotide" style="fill: rgb(219, 219, 141);"></circle><text text-anchor="middle" font-size="8" font-weight="bold" y="2.5" class="node-label">U</text></g><g class="noselect gnode" struct_name="m" transform="translate(15.58,97.26)" r="6.5"><circle class="node" r="6" node_type="nucleotide" style="fill: rgb(219, 219, 141);"></circle><text text-anchor="middle" font-size="8" font-weight="bold" y="2.5" class="node-label">A</text></g><g class="noselect gnode" struct_name="m" transform="translate(24.47,85.14)" r="6.5"><circle class="node" r="6" node_type="nucleotide" style="fill: rgb(219, 219, 141);"></circle><text text-anchor="middle" font-size="8" font-weight="bold" y="2.5" class="node-label">A</text></g><g class="noselect gnode" struct_name="m" transform="translate(38.86,80.54)" r="6.5"><circle class="node" r="6" node_type="nucleotide" style="fill: lightgreen;"></circle><text text-anchor="middle" font-size="8" font-weight="bold" y="2.5" class="node-label">G</text></g><g class="noselect gnode" struct_name="m" transform="translate(42.60,65.75)" r="6.5"><circle class="node" r="6" node_type="nucleotide" style="fill: lightgreen;"></circle><text text-anchor="middle" font-size="8" font-weight="bold" y="2.5" class="node-label">U</text></g><g class="noselect gnode" struct_name="m" transform="translate(45.16,50.45)" r="6.5"><circle class="node" r="6" node_type="nucleotide" style="fill: lightgreen;"></circle><text text-anchor="middle" font-size="8" font-weight="bold" y="2.5" class="node-label">A</text></g><g class="noselect gnode" struct_name="m" transform="translate(46.67,34.96)" r="6.5"><circle class="node" r="6" node_type="nucleotide" style="fill: lightgreen;"></circle><text text-anchor="middle" font-size="8" font-weight="bold" y="2.5" class="node-label">C</text></g><g class="noselect gnode" struct_name="m" transform="translate(46.78,19.68)" r="6.5"><circle class="node" r="6" node_type="nucleotide" style="fill: lightgreen;"></circle><text text-anchor="middle" font-size="8" font-weight="bold" y="2.5" class="node-label">A</text></g><g class="noselect gnode" struct_name="m" transform="translate(35.58,9.65)" r="6.5"><circle class="node" r="6" node_type="nucleotide" style="fill: rgb(219, 219, 141);"></circle><text text-anchor="middle" font-size="8" font-weight="bold" y="2.5" class="node-label">G</text></g><g class="noselect gnode" struct_name="m" transform="translate(34.19,-5.16)" r="6.5"><circle class="node" r="6" node_type="nucleotide" style="fill: rgb(219, 219, 141);"></circle><text text-anchor="middle" font-size="8" font-weight="bold" y="2.5" class="node-label">A</text></g><g class="noselect gnode" struct_name="m" transform="translate(44.10,-16.26)" r="6.5"><circle class="node" r="6" node_type="nucleotide" style="fill: rgb(219, 219, 141);"></circle><text text-anchor="middle" font-size="8" font-weight="bold" y="2.5" class="node-label">C</text></g><g class="noselect gnode" struct_name="m" transform="translate(59.12,-17.76)" r="6.5"><circle class="node" r="6" node_type="nucleotide" style="fill: lightgreen;"></circle><text text-anchor="middle" font-size="8" font-weight="bold" y="2.5" class="node-label">A</text></g><g class="noselect gnode" struct_name="m" transform="translate(68.14,-30.12)" r="6.5"><circle class="node" r="6" node_type="nucleotide" style="fill: lightgreen;"></circle><text text-anchor="middle" font-size="8" font-weight="bold" y="2.5" class="node-label">A</text></g><g class="noselect gnode" struct_name="m" transform="translate(75.94,-43.46)" r="6.5"><circle class="node" r="6" node_type="nucleotide" style="fill: lightgreen;"></circle><text text-anchor="middle" font-size="8" font-weight="bold" y="2.5" class="node-label">U</text></g><g class="noselect gnode" struct_name="m" transform="translate(82.71,-57.39)" r="6.5"><circle class="node" r="6" node_type="nucleotide" style="fill: lightgreen;"></circle><text text-anchor="middle" font-size="8" font-weight="bold" y="2.5" class="node-label">U</text></g><g class="noselect gnode" struct_name="m" transform="translate(88.56,-71.82)" r="6.5"><circle class="node" r="6" node_type="nucleotide" style="fill: lightgreen;"></circle><text text-anchor="middle" font-size="8" font-weight="bold" y="2.5" class="node-label">C</text></g><g class="noselect gnode" struct_name="m" transform="translate(93.84,-86.75)" r="6.5"><circle class="node" r="6" node_type="nucleotide" style="fill: lightgreen;"></circle><text text-anchor="middle" font-size="8" font-weight="bold" y="2.5" class="node-label">C</text></g><g class="noselect gnode" struct_name="m" transform="translate(98.80,-102.04)" r="6.5"><circle class="node" r="6" node_type="nucleotide" style="fill: lightgreen;"></circle><text text-anchor="middle" font-size="8" font-weight="bold" y="2.5" class="node-label">C</text></g><g class="noselect gnode" struct_name="m" transform="translate(103.75,-117.53)" r="6.5"><circle class="node" r="6" node_type="nucleotide" style="fill: lightgreen;"></circle><text text-anchor="middle" font-size="8" font-weight="bold" y="2.5" class="node-label">C</text></g><g class="noselect gnode" struct_name="m" transform="translate(108.90,-133.02)" r="6.5"><circle class="node" r="6" node_type="nucleotide" style="fill: lightgreen;"></circle><text text-anchor="middle" font-size="8" font-weight="bold" y="2.5" class="node-label">U</text></g><g class="noselect gnode" struct_name="m" transform="translate(114.45,-148.41)" r="6.5"><circle class="node" r="6" node_type="nucleotide" style="fill: lightgreen;"></circle><text text-anchor="middle" font-size="8" font-weight="bold" y="2.5" class="node-label">G</text></g><g class="noselect gnode" struct_name="m" transform="translate(119.93,-163.56)" r="6.5"><circle class="node" r="6" node_type="nucleotide" style="fill: lightgreen;"></circle><text text-anchor="middle" font-size="8" font-weight="bold" y="2.5" class="node-label">C</text></g><g class="noselect gnode" struct_name="m" transform="translate(112.83,-177.43)" r="6.5"><circle class="node" r="6" node_type="nucleotide" style="fill: lightblue;"></circle><text text-anchor="middle" font-size="8" font-weight="bold" y="2.5" class="node-label">G</text></g><g class="noselect gnode" struct_name="m" transform="translate(115.81,-192.15)" r="6.5"><circle class="node" r="6" node_type="nucleotide" style="fill: lightblue;"></circle><text text-anchor="middle" font-size="8" font-weight="bold" y="2.5" class="node-label">A</text></g><g class="noselect gnode" struct_name="m" transform="translate(127.73,-201.63)" r="6.5"><circle class="node" r="6" node_type="nucleotide" style="fill: lightblue;"></circle><text text-anchor="middle" font-size="8" font-weight="bold" y="2.5" class="node-label">U</text></g><g class="noselect gnode" struct_name="m" transform="translate(142.80,-201.04)" r="6.5"><circle class="node" r="6" node_type="nucleotide" style="fill: lightblue;"></circle><text text-anchor="middle" font-size="8" font-weight="bold" y="2.5" class="node-label">U</text></g><g class="noselect gnode" struct_name="m" transform="translate(154.19,-191.11)" r="6.5"><circle class="node" r="6" node_type="nucleotide" style="fill: lightblue;"></circle><text text-anchor="middle" font-size="8" font-weight="bold" y="2.5" class="node-label">A</text></g><g class="noselect gnode" struct_name="m" transform="translate(156.43,-176.07)" r="6.5"><circle class="node" r="6" node_type="nucleotide" style="fill: lightblue;"></circle><text text-anchor="middle" font-size="8" font-weight="bold" y="2.5" class="node-label">U</text></g><g class="noselect gnode" struct_name="m" transform="translate(148.50,-163.23)" r="6.5"><circle class="node" r="6" node_type="nucleotide" style="fill: lightblue;"></circle><text text-anchor="middle" font-size="8" font-weight="bold" y="2.5" class="node-label">U</text></g><g class="noselect gnode" struct_name="m" transform="translate(133.87,-158.14)" r="6.5"><circle class="node" r="6" node_type="nucleotide" style="fill: lightgreen;"></circle><text text-anchor="middle" font-size="8" font-weight="bold" y="2.5" class="node-label">G</text></g><g class="noselect gnode" struct_name="m" transform="translate(128.00,-143.42)" r="6.5"><circle class="node" r="6" node_type="nucleotide" style="fill: lightgreen;"></circle><text text-anchor="middle" font-size="8" font-weight="bold" y="2.5" class="node-label">C</text></g><g class="noselect gnode" struct_name="m" transform="translate(122.61,-128.28)" r="6.5"><circle class="node" r="6" node_type="nucleotide" style="fill: lightgreen;"></circle><text text-anchor="middle" font-size="8" font-weight="bold" y="2.5" class="node-label">G</text></g><g class="noselect gnode" struct_name="m" transform="translate(117.51,-113.05)" r="6.5"><circle class="node" r="6" node_type="nucleotide" style="fill: lightgreen;"></circle><text text-anchor="middle" font-size="8" font-weight="bold" y="2.5" class="node-label">G</text></g><g class="noselect gnode" struct_name="m" transform="translate(112.59,-97.62)" r="6.5"><circle class="node" r="6" node_type="nucleotide" style="fill: lightgreen;"></circle><text text-anchor="middle" font-size="8" font-weight="bold" y="2.5" class="node-label">G</text></g><g class="noselect gnode" struct_name="m" transform="translate(107.61,-82.12)" r="6.5"><circle class="node" r="6" node_type="nucleotide" style="fill: lightgreen;"></circle><text text-anchor="middle" font-size="8" font-weight="bold" y="2.5" class="node-label">G</text></g><g class="noselect gnode" struct_name="m" transform="translate(102.21,-66.68)" r="6.5"><circle class="node" r="6" node_type="nucleotide" style="fill: lightgreen;"></circle><text text-anchor="middle" font-size="8" font-weight="bold" y="2.5" class="node-label">G</text></g><g class="noselect gnode" struct_name="m" transform="translate(96.05,-51.47)" r="6.5"><circle class="node" r="6" node_type="nucleotide" style="fill: lightgreen;"></circle><text text-anchor="middle" font-size="8" font-weight="bold" y="2.5" class="node-label">A</text></g><g class="noselect gnode" struct_name="m" transform="translate(88.78,-36.56)" r="6.5"><circle class="node" r="6" node_type="nucleotide" style="fill: lightgreen;"></circle><text text-anchor="middle" font-size="8" font-weight="bold" y="2.5" class="node-label">A</text></g><g class="noselect gnode" struct_name="m" transform="translate(80.29,-22.23)" r="6.5"><circle class="node" r="6" node_type="nucleotide" style="fill: lightgreen;"></circle><text text-anchor="middle" font-size="8" font-weight="bold" y="2.5" class="node-label">U</text></g><g class="noselect gnode" struct_name="m" transform="translate(70.77,-8.46)" r="6.5"><circle class="node" r="6" node_type="nucleotide" style="fill: lightgreen;"></circle><text text-anchor="middle" font-size="8" font-weight="bold" y="2.5" class="node-label">U</text></g><g class="noselect gnode" struct_name="m" transform="translate(71.60,7.10)" r="6.5"><circle class="node" r="6" node_type="nucleotide" style="fill: rgb(219, 219, 141);"></circle><text text-anchor="middle" font-size="8" font-weight="bold" y="2.5" class="node-label">A</text></g><g class="noselect gnode" struct_name="m" transform="translate(61.68,19.16)" r="6.5"><circle class="node" r="6" node_type="nucleotide" style="fill: lightgreen;"></circle><text text-anchor="middle" font-size="8" font-weight="bold" y="2.5" class="node-label">U</text></g><g class="noselect gnode" struct_name="m" transform="translate(61.16,35.80)" r="6.5"><circle class="node" r="6" node_type="nucleotide" style="fill: lightgreen;"></circle><text text-anchor="middle" font-size="8" font-weight="bold" y="2.5" class="node-label">G</text></g><g class="noselect gnode" struct_name="m" transform="translate(59.60,52.36)" r="6.5"><circle class="node" r="6" node_type="nucleotide" style="fill: lightgreen;"></circle><text text-anchor="middle" font-size="8" font-weight="bold" y="2.5" class="node-label">U</text></g><g class="noselect gnode" struct_name="m" transform="translate(56.89,68.69)" r="6.5"><circle class="node" r="6" node_type="nucleotide" style="fill: lightgreen;"></circle><text text-anchor="middle" font-size="8" font-weight="bold" y="2.5" class="node-label">G</text></g><g class="noselect gnode" struct_name="m" transform="translate(53.17,84.60)" r="6.5"><circle class="node" r="6" node_type="nucleotide" style="fill: lightgreen;"></circle><text text-anchor="middle" font-size="8" font-weight="bold" y="2.5" class="node-label">C</text></g><g class="noselect gnode" struct_name="m" transform="translate(62.08,97.14)" r="6.5"><circle class="node" r="6" node_type="nucleotide" style="fill: rgb(219, 219, 141);"></circle><text text-anchor="middle" font-size="8" font-weight="bold" y="2.5" class="node-label">C</text></g><g class="noselect gnode" struct_name="m" transform="translate(61.97,112.16)" r="6.5"><circle class="node" r="6" node_type="nucleotide" style="fill: rgb(219, 219, 141);"></circle><text text-anchor="middle" font-size="8" font-weight="bold" y="2.5" class="node-label">A</text></g><g class="noselect gnode" struct_name="m" transform="translate(53.29,124.43)" r="6.5"><circle class="node" r="6" node_type="nucleotide" style="fill: rgb(219, 219, 141);"></circle><text text-anchor="middle" font-size="8" font-weight="bold" y="2.5" class="node-label">U</text></g><g class="noselect gnode" struct_name="m" transform="translate(38.70,129.41)" r="6.5"><circle class="node" r="6" node_type="nucleotide" style="fill: lightgreen;"></circle><text text-anchor="middle" font-size="8" font-weight="bold" y="2.5" class="node-label">U</text></g><g class="noselect gnode" struct_name="m" transform="translate(33.05,144.28)" r="6.5"><circle class="node" r="6" node_type="nucleotide" style="fill: lightgreen;"></circle><text text-anchor="middle" font-size="8" font-weight="bold" y="2.5" class="node-label">G</text></g><g class="noselect gnode" struct_name="m" transform="translate(27.80,158.93)" r="6.5"><circle class="node" r="6" node_type="nucleotide" style="fill: lightgreen;"></circle><text text-anchor="middle" font-size="8" font-weight="bold" y="2.5" class="node-label">G</text></g><g class="noselect gnode" struct_name="m" transform="translate(0.74,92.50)" r="6.5"><circle class="node label" r="6" node_type="label"></circle><text text-anchor="middle" font-size="8" font-weight="bold" y="2.5" class="node-label">10</text></g><g class="noselect gnode" struct_name="m" transform="translate(47.26,-27.86)" r="6.5"><circle class="node label" r="6" node_type="label"></circle><text text-anchor="middle" font-size="8" font-weight="bold" y="2.5" class="node-label">20</text></g><g class="noselect gnode" struct_name="m" transform="translate(105.11,-168.27)" r="6.5"><circle class="node label" r="6" node_type="label"></circle><text text-anchor="middle" font-size="8" font-weight="bold" y="2.5" class="node-label">30</text></g><g class="noselect gnode" struct_name="m" transform="translate(136.94,-122.19)" r="6.5"><circle class="node label" r="6" node_type="label"></circle><text text-anchor="middle" font-size="8" font-weight="bold" y="2.5" class="node-label">40</text></g><g class="noselect gnode" struct_name="m" transform="translate(76.24,24.66)" r="6.5"><circle class="node label" r="6" node_type="label"></circle><text text-anchor="middle" font-size="8" font-weight="bold" y="2.5" class="node-label">50</text></g><g class="noselect gnode" struct_name="m" transform="translate(30.58,174.06)" r="6.5"><circle class="node label" r="6" node_type="label"></circle><text text-anchor="middle" font-size="8" font-weight="bold" y="2.5" class="node-label">60</text></g><g class="noselect gnode" transform="translate(69.84,-19.43)" r="6.5"><circle class="node" r="0" node_type="middle"></circle><text text-anchor="middle" font-size="8" font-weight="bold" y="2.5" class="node-label"></text></g><g class="noselect gnode" transform="translate(78.60,-32.99)" r="6.5"><circle class="node" r="0" node_type="middle"></circle><text text-anchor="middle" font-size="8" font-weight="bold" y="2.5" class="node-label"></text></g><g class="noselect gnode" transform="translate(86.17,-47.09)" r="6.5"><circle class="node" r="0" node_type="middle"></circle><text text-anchor="middle" font-size="8" font-weight="bold" y="2.5" class="node-label"></text></g><g class="noselect gnode" transform="translate(92.62,-61.78)" r="6.5"><circle class="node" r="0" node_type="middle"></circle><text text-anchor="middle" font-size="8" font-weight="bold" y="2.5" class="node-label"></text></g><g class="noselect gnode" transform="translate(98.19,-76.78)" r="6.5"><circle class="node" r="0" node_type="middle"></circle><text text-anchor="middle" font-size="8" font-weight="bold" y="2.5" class="node-label"></text></g><g class="noselect gnode" transform="translate(103.24,-92.10)" r="6.5"><circle class="node" r="0" node_type="middle"></circle><text text-anchor="middle" font-size="8" font-weight="bold" y="2.5" class="node-label"></text></g><g class="noselect gnode" transform="translate(108.12,-107.56)" r="6.5"><circle class="node" r="0" node_type="middle"></circle><text text-anchor="middle" font-size="8" font-weight="bold" y="2.5" class="node-label"></text></g><g class="noselect gnode" transform="translate(113.11,-123.02)" r="6.5"><circle class="node" r="0" node_type="middle"></circle><text text-anchor="middle" font-size="8" font-weight="bold" y="2.5" class="node-label"></text></g><g class="noselect gnode" transform="translate(118.40,-138.33)" r="6.5"><circle class="node" r="0" node_type="middle"></circle><text text-anchor="middle" font-size="8" font-weight="bold" y="2.5" class="node-label"></text></g><g class="noselect gnode" transform="translate(124.04,-153.52)" r="6.5"><circle class="node" r="0" node_type="middle"></circle><text text-anchor="middle" font-size="8" font-weight="bold" y="2.5" class="node-label"></text></g><g class="noselect gnode" transform="translate(23.36,149.19)" r="6.5"><circle class="node" r="0" node_type="middle"></circle><text text-anchor="middle" font-size="8" font-weight="bold" y="2.5" class="node-label"></text></g><g class="noselect gnode" transform="translate(29.01,134.31)" r="6.5"><circle class="node" r="0" node_type="middle"></circle><text text-anchor="middle" font-size="8" font-weight="bold" y="2.5" class="node-label"></text></g><g class="noselect gnode" transform="translate(48.17,75.02)" r="6.5"><circle class="node" r="0" node_type="middle"></circle><text text-anchor="middle" font-size="8" font-weight="bold" y="2.5" class="node-label"></text></g><g class="noselect gnode" transform="translate(51.35,59.38)" r="6.5"><circle class="node" r="0" node_type="middle"></circle><text text-anchor="middle" font-size="8" font-weight="bold" y="2.5" class="node-label"></text></g><g class="noselect gnode" transform="translate(53.43,43.44)" r="6.5"><circle class="node" r="0" node_type="middle"></circle><text text-anchor="middle" font-size="8" font-weight="bold" y="2.5" class="node-label"></text></g><g class="noselect gnode" transform="translate(54.37,27.39)" r="6.5"><circle class="node" r="0" node_type="middle"></circle><text text-anchor="middle" font-size="8" font-weight="bold" y="2.5" class="node-label"></text></g><g class="noselect gnode" transform="translate(36.24,171.67)" r="6.5"><circle class="node" r="0" node_type="middle"></circle><text text-anchor="middle" font-size="8" font-weight="bold" y="2.5" class="node-label"></text></g><g class="noselect gnode" transform="translate(34.86,186.41)" r="6.5"><circle class="node" r="0" node_type="middle"></circle><text text-anchor="middle" font-size="8" font-weight="bold" y="2.5" class="node-label"></text></g><g class="noselect gnode" transform="translate(13.90,176.32)" r="6.5"><circle class="node" r="0" node_type="middle"></circle><text text-anchor="middle" font-size="8" font-weight="bold" y="2.5" class="node-label"></text></g><g class="noselect gnode" transform="translate(134.63,-180.36)" r="6.5"><circle class="node" r="0" node_type="middle"></circle><text text-anchor="middle" font-size="8" font-weight="bold" y="2.5" class="node-label"></text></g><g class="noselect gnode" transform="translate(38.94,104.77)" r="6.5"><circle class="node" r="0" node_type="middle"></circle><text text-anchor="middle" font-size="8" font-weight="bold" y="2.5" class="node-label"></text></g><g class="noselect gnode" transform="translate(53.26,1.08)" r="6.5"><circle class="node" r="0" node_type="middle"></circle><text text-anchor="middle" font-size="8" font-weight="bold" y="2.5" class="node-label"></text></g></g><line class="drag_line" x1="0" y1="0" x2="0" y2="0"></line></g></g></svg>