<svg xmlns="http://www.w3.org/2000/svg" viewBox="0 0 760 640" width="760" height="640"><style>svg {
  display: block;
  min-width: 100%;
  width: 100%;
  min-height: 100%;
}

circle.node {
  stroke: #ccc;
  stroke-width: 1px;
  opacity: 1;
  fill: white;
}

circle.node.label {
    stroke: transparent;
    stroke-width: 0;
    fill: white;
}

circle.outline_node {
    stroke-width: 1px;
    fill: red;
}

circle.protein {
    fill: gray;
    fill-opacity: 0.5;
    stroke-width: 4;
}

circle.hidden_outline {
    stroke-width: 0px;
}


line.link {
  stroke: #999;
  stroke-opacity: 0.8;
  stroke-width: 2;
}

line.basepair {
  stroke: red;
}

line.intermolecule {
  stroke: blue;
}

line.chain_chain {
  stroke-dasharray: 3,3;
}

line.fake {
  stroke: green;
}

.transparent {
    fill: transparent;
    stroke-width: 0;
    stroke-opacity: 0;
    opacity: 0;
    visibility: hidden;
}

.drag_line {
  stroke: #999;
  stroke-width: 2;
  pointer-events: none;
}

.drag_line_hidden {
  stroke: #999;
  stroke-width: 0;
  pointer-events: none;
}

.d3-tip {
    line-height: 1;
    font-weight: bold;
    padding: 6px;
    background: rgba(0, 0, 0, 0.6);
    color: #fff;
    border-radius: 4px;
    pointer-events: none;
          }

text.node-label {
    font-weight: bold;
    font-family: Tahoma, Geneva, sans-serif;
    color: rgb(100,100,100);
    pointer-events: none;
}

text {
    pointer-events: none;
}

g.gnode {

}

circle.outline_node.selected {
    visibility: visible;
}

circle.outline_node {
    visibility: hidden;
}

.brush .extent {
  fill-opacity: .1;
  stroke: #fff;
  shape-rendering: crispEdges;
}

.noselect {
    -webkit-touch-callout: none;
    -webkit-user-select: none;
    -khtml-user-select: none;
    -moz-user-select: none;
    -ms-user-select: none;
    user-select: none;
}

svg {
  display: block;
  min-width: 100%;
  width: 100%;
  min-height: 100%;
}

circle.node {
  stroke: #ccc;
  stroke-width: 1px;
  opacity: 1;
  fill: white;
}

circle.node.label {
    stroke: transparent;
    stroke-width: 0;
    fill: white;
}

circle.outline_node {
    stroke-width: 1px;
    fill: red;
}

circle.protein {
    fill: gray;
    fill-opacity: 0.5;
    stroke-width: 4;
}

circle.hidden_outline {
    stroke-width: 0px;
}


line.link {
  stroke: #999;
  stroke-opacity: 0.8;
  stroke-width: 2;
}

line.basepair {
  stroke: red;
}

line.intermolecule {
  stroke: blue;
}

line.chain_chain {
  stroke-dasharray: 3,3;
}

line.fake {
  stroke: green;
}

.transparent {
    fill: transparent;
    stroke-width: 0;
    stroke-opacity: 0;
    opacity: 0;
    visibility: hidden;
}

.drag_line {
  stroke: #999;
  stroke-width: 2;
  pointer-events: none;
}

.drag_line_hidden {
  stroke: #999;
  stroke-width: 0;
  pointer-events: none;
}

.d3-tip {
    line-height: 1;
    font-weight: bold;
    padding: 6px;
    background: rgba(0, 0, 0, 0.6);
    color: #fff;
    border-radius: 4px;
    pointer-events: none;
          }

text.node-label {
    font-weight: bold;
    font-family: Tahoma, Geneva, sans-serif;
    color: rgb(100,100,100);
    pointer-events: none;
}

text {
    pointer-events: none;
}

g.gnode {

}

circle.outline_node.selected {
    visibility: visible;
}

circle.outline_node {
    visibility: hidden;
}

.brush .extent {
  fill-opacity: .1;
  stroke: #fff;
  shape-rendering: crispEdges;
}

.noselect {
    -webkit-touch-callout: none;
    -webkit-user-select: none;
    -khtml-user-select: none;
    -moz-user-select: none;
    -ms-user-select: none;
    user-select: none;
}
/*# sourceURL=/Users/yumanakamura/ipy_sandbox/sandbox/claude_sandbox/mrna-transformer-worktrees/feat-issue57-switch-derna-knotty/scripts/eval/prerender/forna_vendor/fornac.css*/</style><style></style><g><g class="brush" style="pointer-events: all; -webkit-tap-highlight-color: rgba(0, 0, 0, 0);"><rect class="background" x="0" width="760" y="0" height="640" style="visibility: hidden; cursor: auto;"></rect><rect class="extent" x="0" width="0" y="0" height="0" style="cursor: move;"></rect><g class="resize n" transform="translate(0,0)" style="cursor: ns-resize; display: none;"><rect y="-3" width="0" height="6" style="visibility: hidden;"></rect></g><g class="resize e" transform="translate(0,0)" style="cursor: ew-resize; display: none;"><rect x="-3" width="6" height="0" style="visibility: hidden;"></rect></g><g class="resize s" transform="translate(0,0)" style="cursor: ns-resize; display: none;"><rect y="-3" width="0" height="6" style="visibility: hidden;"></rect></g><g class="resize w" transform="translate(0,0)" style="cursor: ew-resize; display: none;"><rect x="-3" width="6" height="0" style="visibility: hidden;"></rect></g><g class="resize nw" transform="translate(0,0)" style="cursor: nwse-resize; display: none;"><rect x="-3" y="-3" width="6" height="6" style="visibility: hidden;"></rect></g><g class="resize ne" transform="translate(0,0)" style="cursor: nesw-resize; display: none;"><rect x="-3" y="-3" width="6" height="6" style="visibility: hidden;"></rect></g><g class="resize se" transform="translate(0,0)" style="cursor: nwse-resize; display: none;"><rect x="-3" y="-3" width="6" height="6" style="visibility: hidden;"></rect></g><g class="resize sw" transform="translate(0,0)" style="cursor: nesw-resize; display: none;"><rect x="-3" y="-3" width="6" height="6" style="visibility: hidden;"></rect></g></g><g transform="translate(345.55,263.13) scale(1.24)"><g><line class="link backbone" x1="12.05" y1="254.80" x2="8.90" y2="240.16"></line><line class="link basepair" x1="16.97" y1="227.21" x2="31.58" y2="223.90"></line><line class="link backbone" x1="8.90" y1="240.16" x2="16.97" y2="227.21"></line><line class="link basepair" x1="13.51" y1="212.05" x2="27.76" y2="208.55"></line><line class="link backbone" x1="16.97" y1="227.21" x2="13.51" y2="212.05"></line><line class="link basepair" x1="9.67" y1="196.73" x2="23.75" y2="192.95"></line><line class="link backbone" x1="13.51" y1="212.05" x2="9.67" y2="196.73"></line><line class="link basepair" x1="5.29" y1="181.90" x2="19.27" y2="177.15"></line><line class="link backbone" x1="9.67" y1="196.73" x2="5.29" y2="181.90"></line><line class="link backbone" x1="5.29" y1="181.90" x2="-6.30" y2="172.29"></line><line class="link backbone" x1="-6.30" y1="172.29" x2="-4.06" y2="157.78"></line><line class="link basepair" x1="10.06" y1="152.11" x2="21.83" y2="160.89"></line><line class="link backbone" x1="-4.06" y1="157.78" x2="10.06" y2="152.11"></line><line class="link basepair" x1="18.90" y1="139.17" x2="31.06" y2="146.93"></line><line class="link backbone" x1="10.06" y1="152.11" x2="18.90" y2="139.17"></line><line class="link basepair" x1="27.43" y1="125.41" x2="39.70" y2="132.94"></line><line class="link backbone" x1="18.90" y1="139.17" x2="27.43" y2="125.41"></line><line class="link basepair" x1="36.04" y1="111.39" x2="48.26" y2="119.56"></line><line class="link backbone" x1="27.43" y1="125.41" x2="36.04" y2="111.39"></line><line class="link basepair" x1="37.51" y1="95.11" x2="51.07" y2="89.40"></line><line class="link backbone" x1="36.04" y1="111.39" x2="37.51" y2="95.11"></line><line class="link basepair" x1="31.81" y1="79.53" x2="45.55" y2="74.86"></line><line class="link backbone" x1="37.51" y1="95.11" x2="31.81" y2="79.53"></line><line class="link basepair" x1="26.86" y1="63.83" x2="40.90" y2="59.90"></line><line class="link backbone" x1="31.81" y1="79.53" x2="26.86" y2="63.83"></line><line class="link basepair" x1="22.90" y1="47.74" x2="37.17" y2="44.78"></line><line class="link backbone" x1="26.86" y1="63.83" x2="22.90" y2="47.74"></line><line class="link basepair" x1="20.12" y1="31.38" x2="34.62" y2="29.53"></line><line class="link backbone" x1="22.90" y1="47.74" x2="20.12" y2="31.38"></line><line class="link basepair" x1="18.71" y1="14.88" x2="33.29" y2="14.21"></line><line class="link backbone" x1="20.12" y1="31.38" x2="18.71" y2="14.88"></line><line class="link basepair" x1="18.45" y1="-1.55" x2="33.20" y2="-1.25"></line><line class="link backbone" x1="18.71" y1="14.88" x2="18.45" y2="-1.55"></line><line class="link backbone" x1="18.45" y1="-1.55" x2="11.18" y2="-15.18"></line><line class="link basepair" x1="19.39" y1="-28.25" x2="34.14" y2="-27.57"></line><line class="link backbone" x1="11.18" y1="-15.18" x2="19.39" y2="-28.25"></line><line class="link basepair" x1="20.50" y1="-44.36" x2="34.98" y2="-43.38"></line><line class="link backbone" x1="19.39" y1="-28.25" x2="20.50" y2="-44.36"></line><line class="link basepair" x1="21.66" y1="-60.49" x2="36.15" y2="-59.46"></line><line class="link backbone" x1="20.50" y1="-44.36" x2="21.66" y2="-60.49"></line><line class="link basepair" x1="22.72" y1="-76.50" x2="37.26" y2="-75.61"></line><line class="link backbone" x1="21.66" y1="-60.49" x2="22.72" y2="-76.50"></line><line class="link basepair" x1="23.56" y1="-92.37" x2="38.14" y2="-91.74"></line><line class="link backbone" x1="22.72" y1="-76.50" x2="23.56" y2="-92.37"></line><line class="link basepair" x1="23.90" y1="-108.03" x2="38.85" y2="-107.72"></line><line class="link backbone" x1="23.56" y1="-92.37" x2="23.90" y2="-108.03"></line><line class="link backbone" x1="23.90" y1="-108.03" x2="11.81" y2="-117.41"></line><line class="link backbone" x1="11.81" y1="-117.41" x2="7.29" y2="-131.66"></line><line class="link backbone" x1="7.29" y1="-131.66" x2="12.08" y2="-145.91"></line><line class="link backbone" x1="12.08" y1="-145.91" x2="24.48" y2="-154.34"></line><line class="link backbone" x1="24.48" y1="-154.34" x2="39.43" y2="-154.24"></line><line class="link backbone" x1="39.43" y1="-154.24" x2="51.61" y2="-145.47"></line><line class="link backbone" x1="51.61" y1="-145.47" x2="56.01" y2="-131.07"></line><line class="link backbone" x1="56.01" y1="-131.07" x2="51.19" y2="-116.90"></line><line class="link basepair" x1="38.85" y1="-107.72" x2="23.90" y2="-108.03"></line><line class="link backbone" x1="51.19" y1="-116.90" x2="38.85" y2="-107.72"></line><line class="link basepair" x1="38.14" y1="-91.74" x2="23.56" y2="-92.37"></line><line class="link backbone" x1="38.85" y1="-107.72" x2="38.14" y2="-91.74"></line><line class="link basepair" x1="37.26" y1="-75.61" x2="22.72" y2="-76.50"></line><line class="link backbone" x1="38.14" y1="-91.74" x2="37.26" y2="-75.61"></line><line class="link basepair" x1="36.15" y1="-59.46" x2="21.66" y2="-60.49"></line><line class="link backbone" x1="37.26" y1="-75.61" x2="36.15" y2="-59.46"></line><line class="link basepair" x1="34.98" y1="-43.38" x2="20.50" y2="-44.36"></line><line class="link backbone" x1="36.15" y1="-59.46" x2="34.98" y2="-43.38"></line><line class="link basepair" x1="34.14" y1="-27.57" x2="19.39" y2="-28.25"></line><line class="link backbone" x1="34.98" y1="-43.38" x2="34.14" y2="-27.57"></line><line class="link backbone" x1="34.14" y1="-27.57" x2="41.31" y2="-14.12"></line><line class="link basepair" x1="33.20" y1="-1.25" x2="18.45" y2="-1.55"></line><line class="link backbone" x1="41.31" y1="-14.12" x2="33.20" y2="-1.25"></line><line class="link basepair" x1="33.29" y1="14.21" x2="18.71" y2="14.88"></line><line class="link backbone" x1="33.20" y1="-1.25" x2="33.29" y2="14.21"></line><line class="link basepair" x1="34.62" y1="29.53" x2="20.12" y2="31.38"></line><line class="link backbone" x1="33.29" y1="14.21" x2="34.62" y2="29.53"></line><line class="link basepair" x1="37.17" y1="44.78" x2="22.90" y2="47.74"></line><line class="link backbone" x1="34.62" y1="29.53" x2="37.17" y2="44.78"></line><line class="link basepair" x1="40.90" y1="59.90" x2="26.86" y2="63.83"></line><line class="link backbone" x1="37.17" y1="44.78" x2="40.90" y2="59.90"></line><line class="link basepair" x1="45.55" y1="74.86" x2="31.81" y2="79.53"></line><line class="link backbone" x1="40.90" y1="59.90" x2="45.55" y2="74.86"></line><line class="link basepair" x1="51.07" y1="89.40" x2="37.51" y2="95.11"></line><line class="link backbone" x1="45.55" y1="74.86" x2="51.07" y2="89.40"></line><line class="link backbone" x1="51.07" y1="89.40" x2="63.55" y2="98.25"></line><line class="link backbone" x1="63.55" y1="98.25" x2="62.03" y2="112.99"></line><line class="link basepair" x1="48.26" y1="119.56" x2="36.04" y2="111.39"></line><line class="link backbone" x1="62.03" y1="112.99" x2="48.26" y2="119.56"></line><line class="link basepair" x1="39.70" y1="132.94" x2="27.43" y2="125.41"></line><line class="link backbone" x1="48.26" y1="119.56" x2="39.70" y2="132.94"></line><line class="link basepair" x1="31.06" y1="146.93" x2="18.90" y2="139.17"></line><line class="link backbone" x1="39.70" y1="132.94" x2="31.06" y2="146.93"></line><line class="link basepair" x1="21.83" y1="160.89" x2="10.06" y2="152.11"></line><line class="link backbone" x1="31.06" y1="146.93" x2="21.83" y2="160.89"></line><line class="link basepair" x1="19.27" y1="177.15" x2="5.29" y2="181.90"></line><line class="link backbone" x1="21.83" y1="160.89" x2="19.27" y2="177.15"></line><line class="link basepair" x1="23.75" y1="192.95" x2="9.67" y2="196.73"></line><line class="link backbone" x1="19.27" y1="177.15" x2="23.75" y2="192.95"></line><line class="link basepair" x1="27.76" y1="208.55" x2="13.51" y2="212.05"></line><line class="link backbone" x1="23.75" y1="192.95" x2="27.76" y2="208.55"></line><line class="link basepair" x1="31.58" y1="223.90" x2="16.97" y2="227.21"></line><line class="link backbone" x1="27.76" y1="208.55" x2="31.58" y2="223.90"></line><line class="link backbone" x1="31.58" y1="223.90" x2="44.40" y2="232.45"></line><line class="link backbone" x1="44.40" y1="232.45" x2="47.63" y2="247.00"></line><line class="link label_link" x1="18.90" y1="139.17" x2="5.01" y2="131.92"></line><line class="link label_link" x1="11.18" y1="-15.18" x2="-4.41" y2="-15.40"></line><line class="link label_link" x1="24.48" y1="-154.34" x2="18.84" y2="-168.67"></line><line class="link label_link" x1="34.14" y1="-27.57" x2="49.71" y2="-28.54"></line><line class="link label_link" x1="62.03" y1="112.99" x2="52.15" y2="101.67"></line><line class="link label_link" x1="47.63" y1="247.00" x2="59.88" y2="256.49"></line><line class="link fake transparent" x1="37.51" y1="95.11" x2="41.30" y2="84.75"></line><line class="link fake transparent" x1="37.51" y1="95.11" x2="45.55" y2="74.86"></line><line class="link fake transparent" x1="31.81" y1="79.53" x2="41.30" y2="84.75"></line><line class="link fake transparent" x1="45.55" y1="74.86" x2="41.30" y2="84.75"></line><line class="link fake transparent" x1="51.07" y1="89.40" x2="41.30" y2="84.75"></line><line class="link fake transparent" x1="31.81" y1="79.53" x2="36.06" y2="69.59"></line><line class="link fake transparent" x1="26.86" y1="63.83" x2="36.06" y2="69.59"></line><line class="link fake transparent" x1="40.90" y1="59.90" x2="36.06" y2="69.59"></line><line class="link fake transparent" x1="45.55" y1="74.86" x2="36.06" y2="69.59"></line><line class="link fake transparent" x1="26.86" y1="63.83" x2="31.67" y2="54.13"></line><line class="link fake transparent" x1="22.90" y1="47.74" x2="31.67" y2="54.13"></line><line class="link fake transparent" x1="37.17" y1="44.78" x2="31.67" y2="54.13"></line><line class="link fake transparent" x1="40.90" y1="59.90" x2="31.67" y2="54.13"></line><line class="link fake transparent" x1="22.90" y1="47.74" x2="28.36" y2="38.40"></line><line class="link fake transparent" x1="20.12" y1="31.38" x2="28.36" y2="38.40"></line><line class="link fake transparent" x1="34.62" y1="29.53" x2="28.36" y2="38.40"></line><line class="link fake transparent" x1="37.17" y1="44.78" x2="28.36" y2="38.40"></line><line class="link fake transparent" x1="20.12" y1="31.38" x2="26.33" y2="22.54"></line><line class="link fake transparent" x1="18.71" y1="14.88" x2="26.33" y2="22.54"></line><line class="link fake transparent" x1="33.29" y1="14.21" x2="26.33" y2="22.54"></line><line class="link fake transparent" x1="34.62" y1="29.53" x2="26.33" y2="22.54"></line><line class="link fake transparent" x1="18.71" y1="14.88" x2="25.63" y2="6.59"></line><line class="link fake transparent" x1="18.45" y1="-1.55" x2="25.63" y2="6.59"></line><line class="link fake transparent" x1="33.20" y1="-1.25" x2="25.63" y2="6.59"></line><line class="link fake transparent" x1="33.29" y1="14.21" x2="25.63" y2="6.59"></line><line class="link fake transparent" x1="19.39" y1="-28.25" x2="27.17" y2="-35.85"></line><line class="link fake transparent" x1="20.50" y1="-44.36" x2="27.17" y2="-35.85"></line><line class="link fake transparent" x1="34.98" y1="-43.38" x2="27.17" y2="-35.85"></line><line class="link fake transparent" x1="34.14" y1="-27.57" x2="27.17" y2="-35.85"></line><line class="link fake transparent" x1="20.50" y1="-44.36" x2="28.31" y2="-51.93"></line><line class="link fake transparent" x1="21.66" y1="-60.49" x2="28.31" y2="-51.93"></line><line class="link fake transparent" x1="36.15" y1="-59.46" x2="28.31" y2="-51.93"></line><line class="link fake transparent" x1="34.98" y1="-43.38" x2="28.31" y2="-51.93"></line><line class="link fake transparent" x1="21.66" y1="-60.49" x2="29.49" y2="-68.03"></line><line class="link fake transparent" x1="22.72" y1="-76.50" x2="29.49" y2="-68.03"></line><line class="link fake transparent" x1="37.26" y1="-75.61" x2="29.49" y2="-68.03"></line><line class="link fake transparent" x1="36.15" y1="-59.46" x2="29.49" y2="-68.03"></line><line class="link fake transparent" x1="22.72" y1="-76.50" x2="30.50" y2="-84.09"></line><line class="link fake transparent" x1="23.56" y1="-92.37" x2="30.50" y2="-84.09"></line><line class="link fake transparent" x1="38.14" y1="-91.74" x2="30.50" y2="-84.09"></line><line class="link fake transparent" x1="37.26" y1="-75.61" x2="30.50" y2="-84.09"></line><line class="link fake transparent" x1="23.56" y1="-92.37" x2="31.21" y2="-100.05"></line><line class="link fake transparent" x1="23.90" y1="-108.03" x2="31.21" y2="-100.05"></line><line class="link fake transparent" x1="38.85" y1="-107.72" x2="31.21" y2="-100.05"></line><line class="link fake transparent" x1="38.14" y1="-91.74" x2="31.21" y2="-100.05"></line><line class="link fake transparent" x1="16.97" y1="227.21" x2="22.53" y2="217.98"></line><line class="link fake transparent" x1="13.51" y1="212.05" x2="22.53" y2="217.98"></line><line class="link fake transparent" x1="27.76" y1="208.55" x2="22.53" y2="217.98"></line><line class="link fake transparent" x1="31.58" y1="223.90" x2="22.53" y2="217.98"></line><line class="link fake transparent" x1="13.51" y1="212.05" x2="18.73" y2="202.60"></line><line class="link fake transparent" x1="9.67" y1="196.73" x2="18.73" y2="202.60"></line><line class="link fake transparent" x1="23.75" y1="192.95" x2="18.73" y2="202.60"></line><line class="link fake transparent" x1="27.76" y1="208.55" x2="18.73" y2="202.60"></line><line class="link fake transparent" x1="9.67" y1="196.73" x2="14.64" y2="187.17"></line><line class="link fake transparent" x1="5.29" y1="181.90" x2="14.64" y2="187.17"></line><line class="link fake transparent" x1="19.27" y1="177.15" x2="14.64" y2="187.17"></line><line class="link fake transparent" x1="23.75" y1="192.95" x2="14.64" y2="187.17"></line><line class="link fake transparent" x1="10.06" y1="152.11" x2="20.65" y2="149.90"></line><line class="link fake transparent" x1="18.90" y1="139.17" x2="20.65" y2="149.90"></line><line class="link fake transparent" x1="31.06" y1="146.93" x2="20.65" y2="149.90"></line><line class="link fake transparent" x1="21.83" y1="160.89" x2="20.65" y2="149.90"></line><line class="link fake transparent" x1="18.90" y1="139.17" x2="29.34" y2="136.14"></line><line class="link fake transparent" x1="27.43" y1="125.41" x2="29.34" y2="136.14"></line><line class="link fake transparent" x1="39.70" y1="132.94" x2="29.34" y2="136.14"></line><line class="link fake transparent" x1="31.06" y1="146.93" x2="29.34" y2="136.14"></line><line class="link fake transparent" x1="27.43" y1="125.41" x2="37.79" y2="122.35"></line><line class="link fake transparent" x1="36.04" y1="111.39" x2="37.79" y2="122.35"></line><line class="link fake transparent" x1="48.26" y1="119.56" x2="37.79" y2="122.35"></line><line class="link fake transparent" x1="39.70" y1="132.94" x2="37.79" y2="122.35"></line><line class="link fake transparent" x1="12.05" y1="254.80" x2="28.19" y2="243.35"></line><line class="link fake transparent" x1="12.05" y1="254.80" x2="44.40" y2="232.45"></line><line class="link fake transparent" x1="8.90" y1="240.16" x2="28.19" y2="243.35"></line><line class="link fake transparent" x1="8.90" y1="240.16" x2="47.63" y2="247.00"></line><line class="link fake transparent" x1="16.97" y1="227.21" x2="28.19" y2="243.35"></line><line class="link fake transparent" x1="16.97" y1="227.21" x2="39.30" y2="259.86"></line><line class="link fake transparent" x1="31.58" y1="223.90" x2="28.19" y2="243.35"></line><line class="link fake transparent" x1="31.58" y1="223.90" x2="25.04" y2="263.05"></line><line class="link fake transparent" x1="44.40" y1="232.45" x2="28.19" y2="243.35"></line><line class="link fake transparent" x1="44.40" y1="232.45" x2="12.05" y2="254.80"></line><line class="link fake transparent" x1="47.63" y1="247.00" x2="28.19" y2="243.35"></line><line class="link fake transparent" x1="47.63" y1="247.00" x2="8.90" y2="240.16"></line><line class="link fake transparent" x1="23.90" y1="-108.03" x2="31.69" y2="-131.17"></line><line class="link fake transparent" x1="23.90" y1="-108.03" x2="39.43" y2="-154.24"></line><line class="link fake transparent" x1="11.81" y1="-117.41" x2="31.69" y2="-131.17"></line><line class="link fake transparent" x1="11.81" y1="-117.41" x2="51.61" y2="-145.47"></line><line class="link fake transparent" x1="7.29" y1="-131.66" x2="31.69" y2="-131.17"></line><line class="link fake transparent" x1="7.29" y1="-131.66" x2="56.01" y2="-131.07"></line><line class="link fake transparent" x1="12.08" y1="-145.91" x2="31.69" y2="-131.17"></line><line class="link fake transparent" x1="12.08" y1="-145.91" x2="51.19" y2="-116.90"></line><line class="link fake transparent" x1="24.48" y1="-154.34" x2="31.69" y2="-131.17"></line><line class="link fake transparent" x1="24.48" y1="-154.34" x2="38.85" y2="-107.72"></line><line class="link fake transparent" x1="39.43" y1="-154.24" x2="31.69" y2="-131.17"></line><line class="link fake transparent" x1="39.43" y1="-154.24" x2="23.90" y2="-108.03"></line><line class="link fake transparent" x1="51.61" y1="-145.47" x2="31.69" y2="-131.17"></line><line class="link fake transparent" x1="51.61" y1="-145.47" x2="11.81" y2="-117.41"></line><line class="link fake transparent" x1="56.01" y1="-131.07" x2="31.69" y2="-131.17"></line><line class="link fake transparent" x1="56.01" y1="-131.07" x2="7.29" y2="-131.66"></line><line class="link fake transparent" x1="51.19" y1="-116.90" x2="31.69" y2="-131.17"></line><line class="link fake transparent" x1="51.19" y1="-116.90" x2="12.08" y2="-145.91"></line><line class="link fake transparent" x1="38.85" y1="-107.72" x2="31.69" y2="-131.17"></line><line class="link fake transparent" x1="38.85" y1="-107.72" x2="24.48" y2="-154.34"></line><line class="link fake transparent" x1="18.45" y1="-1.55" x2="26.20" y2="-14.66"></line><line class="link fake transparent" x1="18.45" y1="-1.55" x2="34.14" y2="-27.57"></line><line class="link fake transparent" x1="11.18" y1="-15.18" x2="26.20" y2="-14.66"></line><line class="link fake transparent" x1="11.18" y1="-15.18" x2="41.31" y2="-14.12"></line><line class="link fake transparent" x1="19.39" y1="-28.25" x2="26.20" y2="-14.66"></line><line class="link fake transparent" x1="19.39" y1="-28.25" x2="33.20" y2="-1.25"></line><line class="link fake transparent" x1="34.14" y1="-27.57" x2="26.20" y2="-14.66"></line><line class="link fake transparent" x1="34.14" y1="-27.57" x2="18.45" y2="-1.55"></line><line class="link fake transparent" x1="41.31" y1="-14.12" x2="26.20" y2="-14.66"></line><line class="link fake transparent" x1="41.31" y1="-14.12" x2="11.18" y2="-15.18"></line><line class="link fake transparent" x1="33.20" y1="-1.25" x2="26.20" y2="-14.66"></line><line class="link fake transparent" x1="33.20" y1="-1.25" x2="19.39" y2="-28.25"></line><line class="link fake transparent" x1="5.29" y1="181.90" x2="8.00" y2="167.07"></line><line class="link fake transparent" x1="5.29" y1="181.90" x2="10.06" y2="152.11"></line><line class="link fake transparent" x1="-6.30" y1="172.29" x2="8.00" y2="167.07"></line><line class="link fake transparent" x1="-6.30" y1="172.29" x2="21.83" y2="160.89"></line><line class="link fake transparent" x1="-4.06" y1="157.78" x2="8.00" y2="167.07"></line><line class="link fake transparent" x1="-4.06" y1="157.78" x2="19.27" y2="177.15"></line><line class="link fake transparent" x1="10.06" y1="152.11" x2="8.00" y2="167.07"></line><line class="link fake transparent" x1="10.06" y1="152.11" x2="5.29" y2="181.90"></line><line class="link fake transparent" x1="21.83" y1="160.89" x2="8.00" y2="167.07"></line><line class="link fake transparent" x1="21.83" y1="160.89" x2="-6.30" y2="172.29"></line><line class="link fake transparent" x1="19.27" y1="177.15" x2="8.00" y2="167.07"></line><line class="link fake transparent" x1="19.27" y1="177.15" x2="-4.06" y2="157.78"></line><line class="link fake transparent" x1="36.04" y1="111.39" x2="49.35" y2="104.51"></line><line class="link fake transparent" x1="36.04" y1="111.39" x2="63.55" y2="98.25"></line><line class="link fake transparent" x1="37.51" y1="95.11" x2="49.35" y2="104.51"></line><line class="link fake transparent" x1="37.51" y1="95.11" x2="62.03" y2="112.99"></line><line class="link fake transparent" x1="51.07" y1="89.40" x2="49.35" y2="104.51"></line><line class="link fake transparent" x1="51.07" y1="89.40" x2="48.26" y2="119.56"></line><line class="link fake transparent" x1="63.55" y1="98.25" x2="49.35" y2="104.51"></line><line class="link fake transparent" x1="63.55" y1="98.25" x2="36.04" y2="111.39"></line><line class="link fake transparent" x1="62.03" y1="112.99" x2="49.35" y2="104.51"></line><line class="link fake transparent" x1="62.03" y1="112.99" x2="37.51" y2="95.11"></line><line class="link fake transparent" x1="48.26" y1="119.56" x2="49.35" y2="104.51"></line><line class="link fake transparent" x1="48.26" y1="119.56" x2="51.07" y2="89.40"></line></g><g><g class="noselect gnode" struct_name="m" transform="translate(12.05,254.80)" r="6.5"><circle class="node" r="6" node_type="nucleotide" style="fill: lightsalmon;"></circle><text text-anchor="middle" font-size="8" font-weight="bold" y="2.5" class="node-label">C</text></g><g class="noselect gnode" struct_name="m" transform="translate(8.90,240.16)" r="6.5"><circle class="node" r="6" node_type="nucleotide" style="fill: lightsalmon;"></circle><text text-anchor="middle" font-size="8" font-weight="bold" y="2.5" class="node-label">C</text></g><g class="noselect gnode" struct_name="m" transform="translate(16.97,227.21)" r="6.5"><circle class="node" r="6" node_type="nucleotide" style="fill: lightgreen;"></circle><text text-anchor="middle" font-size="8" font-weight="bold" y="2.5" class="node-label">G</text></g><g class="noselect gnode" struct_name="m" transform="translate(13.51,212.05)" r="6.5"><circle class="node" r="6" node_type="nucleotide" style="fill: lightgreen;"></circle><text text-anchor="middle" font-size="8" font-weight="bold" y="2.5" class="node-label">C</text></g><g class="noselect gnode" struct_name="m" transform="translate(9.67,196.73)" r="6.5"><circle class="node" r="6" node_type="nucleotide" style="fill: lightgreen;"></circle><text text-anchor="middle" font-size="8" font-weight="bold" y="2.5" class="node-label">C</text></g><g class="noselect gnode" struct_name="m" transform="translate(5.29,181.90)" r="6.5"><circle class="node" r="6" node_type="nucleotide" style="fill: lightgreen;"></circle><text text-anchor="middle" font-size="8" font-weight="bold" y="2.5" class="node-label">A</text></g><g class="noselect gnode" struct_name="m" transform="translate(-6.30,172.29)" r="6.5"><circle class="node" r="6" node_type="nucleotide" style="fill: rgb(219, 219, 141);"></circle><text text-anchor="middle" font-size="8" font-weight="bold" y="2.5" class="node-label">C</text></g><g class="noselect gnode" struct_name="m" transform="translate(-4.06,157.78)" r="6.5"><circle class="node" r="6" node_type="nucleotide" style="fill: rgb(219, 219, 141);"></circle><text text-anchor="middle" font-size="8" font-weight="bold" y="2.5" class="node-label">U</text></g><g class="noselect gnode" struct_name="m" transform="translate(10.06,152.11)" r="6.5"><circle class="node" r="6" node_type="nucleotide" style="fill: lightgreen;"></circle><text text-anchor="middle" font-size="8" font-weight="bold" y="2.5" class="node-label">G</text></g><g class="noselect gnode" struct_name="m" transform="translate(18.90,139.17)" r="6.5"><circle class="node" r="6" node_type="nucleotide" style="fill: lightgreen;"></circle><text text-anchor="middle" font-size="8" font-weight="bold" y="2.5" class="node-label">U</text></g><g class="noselect gnode" struct_name="m" transform="translate(27.43,125.41)" r="6.5"><circle class="node" r="6" node_type="nucleotide" style="fill: lightgreen;"></circle><text text-anchor="middle" font-size="8" font-weight="bold" y="2.5" class="node-label">G</text></g><g class="noselect gnode" struct_name="m" transform="translate(36.04,111.39)" r="6.5"><circle class="node" r="6" node_type="nucleotide" style="fill: lightgreen;"></circle><text text-anchor="middle" font-size="8" font-weight="bold" y="2.5" class="node-label">G</text></g><g class="noselect gnode" struct_name="m" transform="translate(37.51,95.11)" r="6.5"><circle class="node" r="6" node_type="nucleotide" style="fill: lightgreen;"></circle><text text-anchor="middle" font-size="8" font-weight="bold" y="2.5" class="node-label">C</text></g><g class="noselect gnode" struct_name="m" transform="translate(31.81,79.53)" r="6.5"><circle class="node" r="6" node_type="nucleotide" style="fill: lightgreen;"></circle><text text-anchor="middle" font-size="8" font-weight="bold" y="2.5" class="node-label">A</text></g><g class="noselect gnode" struct_name="m" transform="translate(26.86,63.83)" r="6.5"><circle class="node" r="6" node_type="nucleotide" style="fill: lightgreen;"></circle><text text-anchor="middle" font-size="8" font-weight="bold" y="2.5" class="node-label">U</text></g><g class="noselect gnode" struct_name="m" transform="translate(22.90,47.74)" r="6.5"><circle class="node" r="6" node_type="nucleotide" style="fill: lightgreen;"></circle><text text-anchor="middle" font-size="8" font-weight="bold" y="2.5" class="node-label">U</text></g><g class="noselect gnode" struct_name="m" transform="translate(20.12,31.38)" r="6.5"><circle class="node" r="6" node_type="nucleotide" style="fill: lightgreen;"></circle><text text-anchor="middle" font-size="8" font-weight="bold" y="2.5" class="node-label">G</text></g><g class="noselect gnode" struct_name="m" transform="translate(18.71,14.88)" r="6.5"><circle class="node" r="6" node_type="nucleotide" style="fill: lightgreen;"></circle><text text-anchor="middle" font-size="8" font-weight="bold" y="2.5" class="node-label">U</text></g><g class="noselect gnode" struct_name="m" transform="translate(18.45,-1.55)" r="6.5"><circle class="node" r="6" node_type="nucleotide" style="fill: lightgreen;"></circle><text text-anchor="middle" font-size="8" font-weight="bold" y="2.5" class="node-label">U</text></g><g class="noselect gnode" struct_name="m" transform="translate(11.18,-15.18)" r="6.5"><circle class="node" r="6" node_type="nucleotide" style="fill: rgb(219, 219, 141);"></circle><text text-anchor="middle" font-size="8" font-weight="bold" y="2.5" class="node-label">G</text></g><g class="noselect gnode" struct_name="m" transform="translate(19.39,-28.25)" r="6.5"><circle class="node" r="6" node_type="nucleotide" style="fill: lightgreen;"></circle><text text-anchor="middle" font-size="8" font-weight="bold" y="2.5" class="node-label">U</text></g><g class="noselect gnode" struct_name="m" transform="translate(20.50,-44.36)" r="6.5"><circle class="node" r="6" node_type="nucleotide" style="fill: lightgreen;"></circle><text text-anchor="middle" font-size="8" font-weight="bold" y="2.5" class="node-label">U</text></g><g class="noselect gnode" struct_name="m" transform="translate(21.66,-60.49)" r="6.5"><circle class="node" r="6" node_type="nucleotide" style="fill: lightgreen;"></circle><text text-anchor="middle" font-size="8" font-weight="bold" y="2.5" class="node-label">U</text></g><g class="noselect gnode" struct_name="m" transform="translate(22.72,-76.50)" r="6.5"><circle class="node" r="6" node_type="nucleotide" style="fill: lightgreen;"></circle><text text-anchor="middle" font-size="8" font-weight="bold" y="2.5" class="node-label">C</text></g><g class="noselect gnode" struct_name="m" transform="translate(23.56,-92.37)" r="6.5"><circle class="node" r="6" node_type="nucleotide" style="fill: lightgreen;"></circle><text text-anchor="middle" font-size="8" font-weight="bold" y="2.5" class="node-label">A</text></g><g class="noselect gnode" struct_name="m" transform="translate(23.90,-108.03)" r="6.5"><circle class="node" r="6" node_type="nucleotide" style="fill: lightgreen;"></circle><text text-anchor="middle" font-size="8" font-weight="bold" y="2.5" class="node-label">A</text></g><g class="noselect gnode" struct_name="m" transform="translate(11.81,-117.41)" r="6.5"><circle class="node" r="6" node_type="nucleotide" style="fill: lightblue;"></circle><text text-anchor="middle" font-size="8" font-weight="bold" y="2.5" class="node-label">G</text></g><g class="noselect gnode" struct_name="m" transform="translate(7.29,-131.66)" r="6.5"><circle class="node" r="6" node_type="nucleotide" style="fill: lightblue;"></circle><text text-anchor="middle" font-size="8" font-weight="bold" y="2.5" class="node-label">C</text></g><g class="noselect gnode" struct_name="m" transform="translate(12.08,-145.91)" r="6.5"><circle class="node" r="6" node_type="nucleotide" style="fill: lightblue;"></circle><text text-anchor="middle" font-size="8" font-weight="bold" y="2.5" class="node-label">A</text></g><g class="noselect gnode" struct_name="m" transform="translate(24.48,-154.34)" r="6.5"><circle class="node" r="6" node_type="nucleotide" style="fill: lightblue;"></circle><text text-anchor="middle" font-size="8" font-weight="bold" y="2.5" class="node-label">U</text></g><g class="noselect gnode" struct_name="m" transform="translate(39.43,-154.24)" r="6.5"><circle class="node" r="6" node_type="nucleotide" style="fill: lightblue;"></circle><text text-anchor="middle" font-size="8" font-weight="bold" y="2.5" class="node-label">A</text></g><g class="noselect gnode" struct_name="m" transform="translate(51.61,-145.47)" r="6.5"><circle class="node" r="6" node_type="nucleotide" style="fill: lightblue;"></circle><text text-anchor="middle" font-size="8" font-weight="bold" y="2.5" class="node-label">A</text></g><g class="noselect gnode" struct_name="m" transform="translate(56.01,-131.07)" r="6.5"><circle class="node" r="6" node_type="nucleotide" style="fill: lightblue;"></circle><text text-anchor="middle" font-size="8" font-weight="bold" y="2.5" class="node-label">A</text></g><g class="noselect gnode" struct_name="m" transform="translate(51.19,-116.90)" r="6.5"><circle class="node" r="6" node_type="nucleotide" style="fill: lightblue;"></circle><text text-anchor="middle" font-size="8" font-weight="bold" y="2.5" class="node-label">A</text></g><g class="noselect gnode" struct_name="m" transform="translate(38.85,-107.72)" r="6.5"><circle class="node" r="6" node_type="nucleotide" style="fill: lightgreen;"></circle><text text-anchor="middle" font-size="8" font-weight="bold" y="2.5" class="node-label">U</text></g><g class="noselect gnode" struct_name="m" transform="translate(38.14,-91.74)" r="6.5"><circle class="node" r="6" node_type="nucleotide" style="fill: lightgreen;"></circle><text text-anchor="middle" font-size="8" font-weight="bold" y="2.5" class="node-label">U</text></g><g class="noselect gnode" struct_name="m" transform="translate(37.26,-75.61)" r="6.5"><circle class="node" r="6" node_type="nucleotide" style="fill: lightgreen;"></circle><text text-anchor="middle" font-size="8" font-weight="bold" y="2.5" class="node-label">G</text></g><g class="noselect gnode" struct_name="m" transform="translate(36.15,-59.46)" r="6.5"><circle class="node" r="6" node_type="nucleotide" style="fill: lightgreen;"></circle><text text-anchor="middle" font-size="8" font-weight="bold" y="2.5" class="node-label">A</text></g><g class="noselect gnode" struct_name="m" transform="translate(34.98,-43.38)" r="6.5"><circle class="node" r="6" node_type="nucleotide" style="fill: lightgreen;"></circle><text text-anchor="middle" font-size="8" font-weight="bold" y="2.5" class="node-label">G</text></g><g class="noselect gnode" struct_name="m" transform="translate(34.14,-27.57)" r="6.5"><circle class="node" r="6" node_type="nucleotide" style="fill: lightgreen;"></circle><text text-anchor="middle" font-size="8" font-weight="bold" y="2.5" class="node-label">A</text></g><g class="noselect gnode" struct_name="m" transform="translate(41.31,-14.12)" r="6.5"><circle class="node" r="6" node_type="nucleotide" style="fill: rgb(219, 219, 141);"></circle><text text-anchor="middle" font-size="8" font-weight="bold" y="2.5" class="node-label">G</text></g><g class="noselect gnode" struct_name="m" transform="translate(33.20,-1.25)" r="6.5"><circle class="node" r="6" node_type="nucleotide" style="fill: lightgreen;"></circle><text text-anchor="middle" font-size="8" font-weight="bold" y="2.5" class="node-label">G</text></g><g class="noselect gnode" struct_name="m" transform="translate(33.29,14.21)" r="6.5"><circle class="node" r="6" node_type="nucleotide" style="fill: lightgreen;"></circle><text text-anchor="middle" font-size="8" font-weight="bold" y="2.5" class="node-label">A</text></g><g class="noselect gnode" struct_name="m" transform="translate(34.62,29.53)" r="6.5"><circle class="node" r="6" node_type="nucleotide" style="fill: lightgreen;"></circle><text text-anchor="middle" font-size="8" font-weight="bold" y="2.5" class="node-label">C</text></g><g class="noselect gnode" struct_name="m" transform="translate(37.17,44.78)" r="6.5"><circle class="node" r="6" node_type="nucleotide" style="fill: lightgreen;"></circle><text text-anchor="middle" font-size="8" font-weight="bold" y="2.5" class="node-label">A</text></g><g class="noselect gnode" struct_name="m" transform="translate(40.90,59.90)" r="6.5"><circle class="node" r="6" node_type="nucleotide" style="fill: lightgreen;"></circle><text text-anchor="middle" font-size="8" font-weight="bold" y="2.5" class="node-label">A</text></g><g class="noselect gnode" struct_name="m" transform="translate(45.55,74.86)" r="6.5"><circle class="node" r="6" node_type="nucleotide" style="fill: lightgreen;"></circle><text text-anchor="middle" font-size="8" font-weight="bold" y="2.5" class="node-label">U</text></g><g class="noselect gnode" struct_name="m" transform="translate(51.07,89.40)" r="6.5"><circle class="node" r="6" node_type="nucleotide" style="fill: lightgreen;"></circle><text text-anchor="middle" font-size="8" font-weight="bold" y="2.5" class="node-label">G</text></g><g class="noselect gnode" struct_name="m" transform="translate(63.55,98.25)" r="6.5"><circle class="node" r="6" node_type="nucleotide" style="fill: rgb(219, 219, 141);"></circle><text text-anchor="middle" font-size="8" font-weight="bold" y="2.5" class="node-label">A</text></g><g class="noselect gnode" struct_name="m" transform="translate(62.03,112.99)" r="6.5"><circle class="node" r="6" node_type="nucleotide" style="fill: rgb(219, 219, 141);"></circle><text text-anchor="middle" font-size="8" font-weight="bold" y="2.5" class="node-label">A</text></g><g class="noselect gnode" struct_name="m" transform="translate(48.26,119.56)" r="6.5"><circle class="node" r="6" node_type="nucleotide" style="fill: lightgreen;"></circle><text text-anchor="middle" font-size="8" font-weight="bold" y="2.5" class="node-label">C</text></g><g class="noselect gnode" struct_name="m" transform="translate(39.70,132.94)" r="6.5"><circle class="node" r="6" node_type="nucleotide" style="fill: lightgreen;"></circle><text text-anchor="middle" font-size="8" font-weight="bold" y="2.5" class="node-label">C</text></g><g class="noselect gnode" struct_name="m" transform="translate(31.06,146.93)" r="6.5"><circle class="node" r="6" node_type="nucleotide" style="fill: lightgreen;"></circle><text text-anchor="middle" font-size="8" font-weight="bold" y="2.5" class="node-label">A</text></g><g class="noselect gnode" struct_name="m" transform="translate(21.83,160.89)" r="6.5"><circle class="node" r="6" node_type="nucleotide" style="fill: lightgreen;"></circle><text text-anchor="middle" font-size="8" font-weight="bold" y="2.5" class="node-label">C</text></g><g class="noselect gnode" struct_name="m" transform="translate(19.27,177.15)" r="6.5"><circle class="node" r="6" node_type="nucleotide" style="fill: lightgreen;"></circle><text text-anchor="middle" font-size="8" font-weight="bold" y="2.5" class="node-label">U</text></g><g class="noselect gnode" struct_name="m" transform="translate(23.75,192.95)" r="6.5"><circle class="node" r="6" node_type="nucleotide" style="fill: lightgreen;"></circle><text text-anchor="middle" font-size="8" font-weight="bold" y="2.5" class="node-label">G</text></g><g class="noselect gnode" struct_name="m" transform="translate(27.76,208.55)" r="6.5"><circle class="node" r="6" node_type="nucleotide" style="fill: lightgreen;"></circle><text text-anchor="middle" font-size="8" font-weight="bold" y="2.5" class="node-label">G</text></g><g class="noselect gnode" struct_name="m" transform="translate(31.58,223.90)" r="6.5"><circle class="node" r="6" node_type="nucleotide" style="fill: lightgreen;"></circle><text text-anchor="middle" font-size="8" font-weight="bold" y="2.5" class="node-label">C</text></g><g class="noselect gnode" struct_name="m" transform="translate(44.40,232.45)" r="6.5"><circle class="node" r="6" node_type="nucleotide" style="fill: lightsalmon;"></circle><text text-anchor="middle" font-size="8" font-weight="bold" y="2.5" class="node-label">C</text></g><g class="noselect gnode" struct_name="m" transform="translate(47.63,247.00)" r="6.5"><circle class="node" r="6" node_type="nucleotide" style="fill: lightsalmon;"></circle><text text-anchor="middle" font-size="8" font-weight="bold" y="2.5" class="node-label">U</text></g><g class="noselect gnode" struct_name="m" transform="translate(5.01,131.92)" r="6.5"><circle class="node label" r="6" node_type="label"></circle><text text-anchor="middle" font-size="8" font-weight="bold" y="2.5" class="node-label">10</text></g><g class="noselect gnode" struct_name="m" transform="translate(-4.41,-15.40)" r="6.5"><circle class="node label" r="6" node_type="label"></circle><text text-anchor="middle" font-size="8" font-weight="bold" y="2.5" class="node-label">20</text></g><g class="noselect gnode" struct_name="m" transform="translate(18.84,-168.67)" r="6.5"><circle class="node label" r="6" node_type="label"></circle><text text-anchor="middle" font-size="8" font-weight="bold" y="2.5" class="node-label">30</text></g><g class="noselect gnode" struct_name="m" transform="translate(49.71,-28.54)" r="6.5"><circle class="node label" r="6" node_type="label"></circle><text text-anchor="middle" font-size="8" font-weight="bold" y="2.5" class="node-label">40</text></g><g class="noselect gnode" struct_name="m" transform="translate(52.15,101.67)" r="6.5"><circle class="node label" r="6" node_type="label"></circle><text text-anchor="middle" font-size="8" font-weight="bold" y="2.5" class="node-label">50</text></g><g class="noselect gnode" struct_name="m" transform="translate(59.88,256.49)" r="6.5"><circle class="node label" r="6" node_type="label"></circle><text text-anchor="middle" font-size="8" font-weight="bold" y="2.5" class="node-label">60</text></g><g class="noselect gnode" transform="translate(41.30,84.75)" r="6.5"><circle class="node" r="0" node_type="middle"></circle><text text-anchor="middle" font-size="8" font-weight="bold" y="2.5" class="node-label"></text></g><g class="noselect gnode" transform="translate(36.06,69.59)" r="6.5"><circle class="node" r="0" node_type="middle"></circle><text text-anchor="middle" font-size="8" font-weight="bold" y="2.5" class="node-label"></text></g><g class="noselect gnode" transform="translate(31.67,54.13)" r="6.5"><circle class="node" r="0" node_type="middle"></circle><text text-anchor="middle" font-size="8" font-weight="bold" y="2.5" class="node-label"></text></g><g class="noselect gnode" transform="translate(28.36,38.40)" r="6.5"><circle class="node" r="0" node_type="middle"></circle><text text-anchor="middle" font-size="8" font-weight="bold" y="2.5" class="node-label"></text></g><g class="noselect gnode" transform="translate(26.33,22.54)" r="6.5"><circle class="node" r="0" node_type="middle"></circle><text text-anchor="middle" font-size="8" font-weight="bold" y="2.5" class="node-label"></text></g><g class="noselect gnode" transform="translate(25.63,6.59)" r="6.5"><circle class="node" r="0" node_type="middle"></circle><text text-anchor="middle" font-size="8" font-weight="bold" y="2.5" class="node-label"></text></g><g class="noselect gnode" transform="translate(27.17,-35.85)" r="6.5"><circle class="node" r="0" node_type="middle"></circle><text text-anchor="middle" font-size="8" font-weight="bold" y="2.5" class="node-label"></text></g><g class="noselect gnode" transform="translate(28.31,-51.93)" r="6.5"><circle class="node" r="0" node_type="middle"></circle><text text-anchor="middle" font-size="8" font-weight="bold" y="2.5" class="node-label"></text></g><g class="noselect gnode" transform="translate(29.49,-68.03)" r="6.5"><circle class="node" r="0" node_type="middle"></circle><text text-anchor="middle" font-size="8" font-weight="bold" y="2.5" class="node-label"></text></g><g class="noselect gnode" transform="translate(30.50,-84.09)" r="6.5"><circle class="node" r="0" node_type="middle"></circle><text text-anchor="middle" font-size="8" font-weight="bold" y="2.5" class="node-label"></text></g><g class="noselect gnode" transform="translate(31.21,-100.05)" r="6.5"><circle class="node" r="0" node_type="middle"></circle><text text-anchor="middle" font-size="8" font-weight="bold" y="2.5" class="node-label"></text></g><g class="noselect gnode" transform="translate(22.53,217.98)" r="6.5"><circle class="node" r="0" node_type="middle"></circle><text text-anchor="middle" font-size="8" font-weight="bold" y="2.5" class="node-label"></text></g><g class="noselect gnode" transform="translate(18.73,202.60)" r="6.5"><circle class="node" r="0" node_type="middle"></circle><text text-anchor="middle" font-size="8" font-weight="bold" y="2.5" class="node-label"></text></g><g class="noselect gnode" transform="translate(14.64,187.17)" r="6.5"><circle class="node" r="0" node_type="middle"></circle><text text-anchor="middle" font-size="8" font-weight="bold" y="2.5" class="node-label"></text></g><g class="noselect gnode" transform="translate(20.65,149.90)" r="6.5"><circle class="node" r="0" node_type="middle"></circle><text text-anchor="middle" font-size="8" font-weight="bold" y="2.5" class="node-label"></text></g><g class="noselect gnode" transform="translate(29.34,136.14)" r="6.5"><circle class="node" r="0" node_type="middle"></circle><text text-anchor="middle" font-size="8" font-weight="bold" y="2.5" class="node-label"></text></g><g class="noselect gnode" transform="translate(37.79,122.35)" r="6.5"><circle class="node" r="0" node_type="middle"></circle><text text-anchor="middle" font-size="8" font-weight="bold" y="2.5" class="node-label"></text></g><g class="noselect gnode" transform="translate(39.30,259.86)" r="6.5"><circle class="node" r="0" node_type="middle"></circle><text text-anchor="middle" font-size="8" font-weight="bold" y="2.5" class="node-label"></text></g><g class="noselect gnode" transform="translate(25.04,263.05)" r="6.5"><circle class="node" r="0" node_type="middle"></circle><text text-anchor="middle" font-size="8" font-weight="bold" y="2.5" class="node-label"></text></g><g class="noselect gnode" transform="translate(28.19,243.35)" r="6.5"><circle class="node" r="0" node_type="middle"></circle><text text-anchor="middle" font-size="8" font-weight="bold" y="2.5" class="node-label"></text></g><g class="noselect gnode" transform="translate(31.69,-131.17)" r="6.5"><circle class="node" r="0" node_type="middle"></circle><text text-anchor="middle" font-size="8" font-weight="bold" y="2.5" class="node-label"></text></g><g class="noselect gnode" transform="translate(26.20,-14.66)" r="6.5"><circle class="node" r="0" node_type="middle"></circle><text text-anchor="middle" font-size="8" font-weight="bold" y="2.5" class="node-label"></text></g><g class="noselect gnode" transform="translate(8.00,167.07)" r="6.5"><circle class="node" r="0" node_type="middle"></circle><text text-anchor="middle" font-size="8" font-weight="bold" y="2.5" class="node-label"></text></g><g class="noselect gnode" transform="translate(49.35,104.51)" r="6.5"><circle class="node" r="0" node_type="middle"></circle><text text-anchor="middle" font-size="8" font-weight="bold" y="2.5" class="node-label"></text></g></g><line class="drag_line" x1="0" y1="0" x2="0" y2="0"></line></g></g></svg>