<svg xmlns="http://www.w3.org/2000/svg" viewBox="0 0 760 640" width="760" height="640"><style>svg {
  display: block;
  min-width: 100%;
  width: 100%;
  min-height: 100%;
}

circle.node {
  stroke: #ccc;
  stroke-width: 1px;
  opacity: 1;
  fill: white;
}

circle.node.label {
    stroke: transparent;
    stroke-width: 0;
    fill: white;
}

circle.outline_node {
    stroke-width: 1px;
    fill: red;
}

circle.protein {
    fill: gray;
    fill-opacity: 0.5;
    stroke-width: 4;
}

circle.hidden_outline {
    stroke-width: 0px;
}


line.link {
  stroke: #999;
  stroke-opacity: 0.8;
  stroke-width: 2;
}

line.basepair {
  stroke: red;
}

line.intermolecule {
  stroke: blue;
}

line.chain_chain {
  stroke-dasharray: 3,3;
}

line.fake {
  stroke: green;
}

.transparent {
    fill: transparent;
    stroke-width: 0;
    stroke-opacity: 0;
    opacity: 0;
    visibility: hidden;
}

.drag_line {
  stroke: #999;
  stroke-width: 2;
  pointer-events: none;
}

.drag_line_hidden {
  stroke: #999;
  stroke-width: 0;
  pointer-events: none;
}

.d3-tip {
    line-height: 1;
    font-weight: bold;
    padding: 6px;
    background: rgba(0, 0, 0, 0.6);
    color: #fff;
    border-radius: 4px;
    pointer-events: none;
          }

text.node-label {
    font-weight: bold;
    font-family: Tahoma, Geneva, sans-serif;
    color: rgb(100,100,100);
    pointer-events: none;
}

text {
    pointer-events: none;
}

g.gnode {

}

circle.outline_node.selected {
    visibility: visible;
}

circle.outline_node {
    visibility: hidden;
}

.brush .extent {
  fill-opacity: .1;
  stroke: #fff;
  shape-rendering: crispEdges;
}

.noselect {
    -webkit-touch-callout: none;
    -webkit-user-select: none;
    -khtml-user-select: none;
    -moz-user-select: none;
    -ms-user-select: none;
    user-select: none;
}

svg {
  display: block;
  min-width: 100%;
  width: 100%;
  min-height: 100%;
}

circle.node {
  stroke: #ccc;
  stroke-width: 1px;
  opacity: 1;
  fill: white;
}

circle.node.label {
    stroke: transparent;
    stroke-width: 0;
    fill: white;
}

circle.outline_node {
    stroke-width: 1px;
    fill: red;
}

circle.protein {
    fill: gray;
    fill-opacity: 0.5;
    stroke-width: 4;
}

circle.hidden_outline {
    stroke-width: 0px;
}


line.link {
  stroke: #999;
  stroke-opacity: 0.8;
  stroke-width: 2;
}

line.basepair {
  stroke: red;
}

line.intermolecule {
  stroke: blue;
}

line.chain_chain {
  stroke-dasharray: 3,3;
}

line.fake {
  stroke: green;
}

.transparent {
    fill: transparent;
    stroke-width: 0;
    stroke-opacity: 0;
    opacity: 0;
    visibility: hidden;
}

.drag_line {
  stroke: #999;
  stroke-width: 2;
  pointer-events: none;
}

.drag_line_hidden {
  stroke: #999;
  stroke-width: 0;
  pointer-events: none;
}

.d3-tip {
    line-height: 1;
    font-weight: bold;
    padding: 6px;
    background: rgba(0, 0, 0, 0.6);
    color: #fff;
    border-radius: 4px;
    pointer-events: none;
          }

text.node-label {
    font-weight: bold;
    font-family: Tahoma, Geneva, sans-serif;
    color: rgb(100,100,100);
    pointer-events: none;
}

text {
    pointer-events: none;
}

g.gnode {

}

circle.outline_node.selected {
    visibility: visible;
}

circle.outline_node {
    visibility: hidden;
}

.brush .extent {
  fill-opacity: .1;
  stroke: #fff;
  shape-rendering: crispEdges;
}

.noselect {
    -webkit-touch-callout: none;
    -webkit-user-select: none;
    -khtml-user-select: none;
    -moz-user-select: none;
    -ms-user-select: none;
    user-select: none;
}
/*# sourceURL=/Users/yumanakamura/ipy_sandbox/sandbox/claude_sandbox/mrna-transformer/scripts/eval/prerender/forna_vendor/fornac.css*/</style><style></style><g><g class="brush" style="pointer-events: all; -webkit-tap-highlight-color: rgba(0, 0, 0, 0);"><rect class="background" x="0" width="760" y="0" height="640" style="visibility: hidden; cursor: auto;"></rect><rect class="extent" x="0" width="0" y="0" height="0" style="cursor: move;"></rect><g class="resize n" transform="translate(0,0)" style="cursor: ns-resize; display: none;"><rect y="-3" width="0" height="6" style="visibility: hidden;"></rect></g><g class="resize e" transform="translate(0,0)" style="cursor: ew-resize; display: none;"><rect x="-3" width="6" height="0" style="visibility: hidden;"></rect></g><g class="resize s" transform="translate(0,0)" style="cursor: ns-resize; display: none;"><rect y="-3" width="0" height="6" style="visibility: hidden;"></rect></g><g class="resize w" transform="translate(0,0)" style="cursor: ew-resize; display: none;"><rect x="-3" width="6" height="0" style="visibility: hidden;"></rect></g><g class="resize nw" transform="translate(0,0)" style="cursor: nwse-resize; display: none;"><rect x="-3" y="-3" width="6" height="6" style="visibility: hidden;"></rect></g><g class="resize ne" transform="translate(0,0)" style="cursor: nesw-resize; display: none;"><rect x="-3" y="-3" width="6" height="6" style="visibility: hidden;"></rect></g><g class="resize se" transform="translate(0,0)" style="cursor: nwse-resize; display: none;"><rect x="-3" y="-3" width="6" height="6" style="visibility: hidden;"></rect></g><g class="resize sw" transform="translate(0,0)" style="cursor: nesw-resize; display: none;"><rect x="-3" y="-3" width="6" height="6" style="visibility: hidden;"></rect></g></g><g transform="translate(76.91,197.67) scale(1.83)"><g><line class="link basepair" x1="140.71" y1="115.08" x2="143.61" y2="100.49"></line><line class="link backbone" x1="140.96" y1="130.16" x2="140.71" y2="115.08"></line><line class="link backbone" x1="140.71" y1="115.08" x2="127.56" y2="121.35"></line><line class="link basepair" x1="115.58" y1="112.69" x2="115.86" y2="98.08"></line><line class="link backbone" x1="127.56" y1="121.35" x2="115.58" y2="112.69"></line><line class="link basepair" x1="100.72" y1="113.90" x2="98.43" y2="99.72"></line><line class="link backbone" x1="115.58" y1="112.69" x2="100.72" y2="113.90"></line><line class="link basepair" x1="85.50" y1="117.43" x2="81.73" y2="103.54"></line><line class="link backbone" x1="100.72" y1="113.90" x2="85.50" y2="117.43"></line><line class="link basepair" x1="70.17" y1="122.12" x2="65.70" y2="108.47"></line><line class="link backbone" x1="85.50" y1="117.43" x2="70.17" y2="122.12"></line><line class="link basepair" x1="54.89" y1="127.42" x2="50.07" y2="113.84"></line><line class="link backbone" x1="70.17" y1="122.12" x2="54.89" y2="127.42"></line><line class="link basepair" x1="39.96" y1="133.11" x2="34.89" y2="119.07"></line><line class="link backbone" x1="54.89" y1="127.42" x2="39.96" y2="133.11"></line><line class="link backbone" x1="39.96" y1="133.11" x2="34.40" y2="147.63"></line><line class="link backbone" x1="34.40" y1="147.63" x2="21.22" y2="155.13"></line><line class="link backbone" x1="21.22" y1="155.13" x2="6.31" y2="152.41"></line><line class="link backbone" x1="6.31" y1="152.41" x2="-3.24" y2="140.72"></line><line class="link backbone" x1="-3.24" y1="140.72" x2="-3.28" y2="125.62"></line><line class="link backbone" x1="-3.28" y1="125.62" x2="6.56" y2="114.01"></line><line class="link backbone" x1="6.56" y1="114.01" x2="21.41" y2="111.46"></line><line class="link basepair" x1="34.89" y1="119.07" x2="39.96" y2="133.11"></line><line class="link backbone" x1="21.41" y1="111.46" x2="34.89" y2="119.07"></line><line class="link basepair" x1="50.07" y1="113.84" x2="54.89" y2="127.42"></line><line class="link backbone" x1="34.89" y1="119.07" x2="50.07" y2="113.84"></line><line class="link basepair" x1="65.70" y1="108.47" x2="70.17" y2="122.12"></line><line class="link backbone" x1="50.07" y1="113.84" x2="65.70" y2="108.47"></line><line class="link basepair" x1="81.73" y1="103.54" x2="85.50" y2="117.43"></line><line class="link backbone" x1="65.70" y1="108.47" x2="81.73" y2="103.54"></line><line class="link basepair" x1="98.43" y1="99.72" x2="100.72" y2="113.90"></line><line class="link backbone" x1="81.73" y1="103.54" x2="98.43" y2="99.72"></line><line class="link basepair" x1="115.86" y1="98.08" x2="115.58" y2="112.69"></line><line class="link backbone" x1="98.43" y1="99.72" x2="115.86" y2="98.08"></line><line class="link backbone" x1="115.86" y1="98.08" x2="130.32" y2="91.39"></line><line class="link basepair" x1="143.61" y1="100.49" x2="140.71" y2="115.08"></line><line class="link backbone" x1="130.32" y1="91.39" x2="143.61" y2="100.49"></line><line class="link backbone" x1="143.61" y1="100.49" x2="155.24" y2="88.91"></line><line class="link backbone" x1="155.24" y1="88.91" x2="168.57" y2="81.88"></line><line class="link basepair" x1="184.68" y1="78.94" x2="198.55" y2="84.26"></line><line class="link backbone" x1="168.57" y1="81.88" x2="184.68" y2="78.94"></line><line class="link basepair" x1="194.09" y1="63.24" x2="205.44" y2="71.92"></line><line class="link backbone" x1="184.68" y1="78.94" x2="194.09" y2="63.24"></line><line class="link basepair" x1="206.71" y1="50.38" x2="215.74" y2="61.58"></line><line class="link backbone" x1="194.09" y1="63.24" x2="206.71" y2="50.38"></line><line class="link basepair" x1="221.59" y1="40.79" x2="228.26" y2="53.54"></line><line class="link backbone" x1="206.71" y1="50.38" x2="221.59" y2="40.79"></line><line class="link basepair" x1="237.85" y1="34.10" x2="242.21" y2="47.74"></line><line class="link backbone" x1="221.59" y1="40.79" x2="237.85" y2="34.10"></line><line class="link basepair" x1="254.99" y1="30.00" x2="256.79" y2="44.56"></line><line class="link backbone" x1="237.85" y1="34.10" x2="254.99" y2="30.00"></line><line class="link basepair" x1="270.96" y1="23.52" x2="279.68" y2="35.71"></line><line class="link backbone" x1="254.99" y1="30.00" x2="270.96" y2="23.52"></line><line class="link basepair" x1="281.99" y1="10.69" x2="295.47" y2="16.85"></line><line class="link backbone" x1="270.96" y1="23.52" x2="281.99" y2="10.69"></line><line class="link basepair" x1="289.79" y1="-3.85" x2="302.51" y2="3.36"></line><line class="link backbone" x1="281.99" y1="10.69" x2="289.79" y2="-3.85"></line><line class="link basepair" x1="297.84" y1="-17.67" x2="310.57" y2="-9.96"></line><line class="link backbone" x1="289.79" y1="-3.85" x2="297.84" y2="-17.67"></line><line class="link backbone" x1="297.84" y1="-17.67" x2="298.30" y2="-33.04"></line><line class="link backbone" x1="298.30" y1="-33.04" x2="311.45" y2="-40.13"></line><line class="link backbone" x1="311.45" y1="-40.13" x2="324.25" y2="-32.35"></line><line class="link backbone" x1="324.25" y1="-32.35" x2="324.05" y2="-17.38"></line><line class="link basepair" x1="310.57" y1="-9.96" x2="297.84" y2="-17.67"></line><line class="link backbone" x1="324.05" y1="-17.38" x2="310.57" y2="-9.96"></line><line class="link basepair" x1="302.51" y1="3.36" x2="289.79" y2="-3.85"></line><line class="link backbone" x1="310.57" y1="-9.96" x2="302.51" y2="3.36"></line><line class="link basepair" x1="295.47" y1="16.85" x2="281.99" y2="10.69"></line><line class="link backbone" x1="302.51" y1="3.36" x2="295.47" y2="16.85"></line><line class="link backbone" x1="295.47" y1="16.85" x2="294.47" y2="32.13"></line><line class="link basepair" x1="279.68" y1="35.71" x2="270.96" y2="23.52"></line><line class="link backbone" x1="294.47" y1="32.13" x2="279.68" y2="35.71"></line><line class="link backbone" x1="279.68" y1="35.71" x2="271.66" y2="48.45"></line><line class="link basepair" x1="256.79" y1="44.56" x2="254.99" y2="30.00"></line><line class="link backbone" x1="271.66" y1="48.45" x2="256.79" y2="44.56"></line><line class="link basepair" x1="242.21" y1="47.74" x2="237.85" y2="34.10"></line><line class="link backbone" x1="256.79" y1="44.56" x2="242.21" y2="47.74"></line><line class="link basepair" x1="228.26" y1="53.54" x2="221.59" y2="40.79"></line><line class="link backbone" x1="242.21" y1="47.74" x2="228.26" y2="53.54"></line><line class="link basepair" x1="215.74" y1="61.58" x2="206.71" y2="50.38"></line><line class="link backbone" x1="228.26" y1="53.54" x2="215.74" y2="61.58"></line><line class="link basepair" x1="205.44" y1="71.92" x2="194.09" y2="63.24"></line><line class="link backbone" x1="215.74" y1="61.58" x2="205.44" y2="71.92"></line><line class="link basepair" x1="198.55" y1="84.26" x2="184.68" y2="78.94"></line><line class="link backbone" x1="205.44" y1="71.92" x2="198.55" y2="84.26"></line><line class="link backbone" x1="198.55" y1="84.26" x2="210.78" y2="93.43"></line><line class="link backbone" x1="210.78" y1="93.43" x2="218.89" y2="106.09"></line><line class="link backbone" x1="218.89" y1="106.09" x2="222.01" y2="120.84"></line><line class="link backbone" x1="222.01" y1="120.84" x2="218.87" y2="135.42"></line><line class="link backbone" x1="218.87" y1="135.42" x2="211.01" y2="148.02"></line><line class="link backbone" x1="211.01" y1="148.02" x2="199.56" y2="157.47"></line><line class="link backbone" x1="199.56" y1="157.47" x2="185.24" y2="161.52"></line><line class="link backbone" x1="185.24" y1="161.52" x2="170.31" y2="160.25"></line><line class="link label_link" x1="34.40" y1="147.63" x2="34.75" y2="163.17"></line><line class="link label_link" x1="81.73" y1="103.54" x2="78.56" y2="88.26"></line><line class="link label_link" x1="221.59" y1="40.79" x2="212.28" y2="28.22"></line><line class="link label_link" x1="324.05" y1="-17.38" x2="339.41" y2="-15.52"></line><line class="link label_link" x1="215.74" y1="61.58" x2="226.29" y2="72.82"></line><line class="link label_link" x1="170.31" y1="160.25" x2="181.43" y2="150.18"></line><line class="link fake transparent" x1="281.99" y1="10.69" x2="292.23" y2="6.65"></line><line class="link fake transparent" x1="281.99" y1="10.69" x2="302.51" y2="3.36"></line><line class="link fake transparent" x1="289.79" y1="-3.85" x2="292.23" y2="6.65"></line><line class="link fake transparent" x1="302.51" y1="3.36" x2="292.23" y2="6.65"></line><line class="link fake transparent" x1="295.47" y1="16.85" x2="292.23" y2="6.65"></line><line class="link fake transparent" x1="289.79" y1="-3.85" x2="300.13" y2="-7.13"></line><line class="link fake transparent" x1="297.84" y1="-17.67" x2="300.13" y2="-7.13"></line><line class="link fake transparent" x1="310.57" y1="-9.96" x2="300.13" y2="-7.13"></line><line class="link fake transparent" x1="302.51" y1="3.36" x2="300.13" y2="-7.13"></line><line class="link fake transparent" x1="184.68" y1="78.94" x2="194.78" y2="74.16"></line><line class="link fake transparent" x1="194.09" y1="63.24" x2="194.78" y2="74.16"></line><line class="link fake transparent" x1="205.44" y1="71.92" x2="194.78" y2="74.16"></line><line class="link fake transparent" x1="198.55" y1="84.26" x2="194.78" y2="74.16"></line><line class="link fake transparent" x1="194.09" y1="63.24" x2="204.75" y2="61.09"></line><line class="link fake transparent" x1="206.71" y1="50.38" x2="204.75" y2="61.09"></line><line class="link fake transparent" x1="215.74" y1="61.58" x2="204.75" y2="61.09"></line><line class="link fake transparent" x1="205.44" y1="71.92" x2="204.75" y2="61.09"></line><line class="link fake transparent" x1="206.71" y1="50.38" x2="217.58" y2="50.92"></line><line class="link fake transparent" x1="221.59" y1="40.79" x2="217.58" y2="50.92"></line><line class="link fake transparent" x1="228.26" y1="53.54" x2="217.58" y2="50.92"></line><line class="link fake transparent" x1="215.74" y1="61.58" x2="217.58" y2="50.92"></line><line class="link fake transparent" x1="221.59" y1="40.79" x2="232.17" y2="43.44"></line><line class="link fake transparent" x1="237.85" y1="34.10" x2="232.17" y2="43.44"></line><line class="link fake transparent" x1="242.21" y1="47.74" x2="232.17" y2="43.44"></line><line class="link fake transparent" x1="228.26" y1="53.54" x2="232.17" y2="43.44"></line><line class="link fake transparent" x1="237.85" y1="34.10" x2="247.83" y2="38.45"></line><line class="link fake transparent" x1="254.99" y1="30.00" x2="247.83" y2="38.45"></line><line class="link fake transparent" x1="256.79" y1="44.56" x2="247.83" y2="38.45"></line><line class="link fake transparent" x1="242.21" y1="47.74" x2="247.83" y2="38.45"></line><line class="link fake transparent" x1="115.58" y1="112.69" x2="107.60" y2="105.42"></line><line class="link fake transparent" x1="100.72" y1="113.90" x2="107.60" y2="105.42"></line><line class="link fake transparent" x1="98.43" y1="99.72" x2="107.60" y2="105.42"></line><line class="link fake transparent" x1="115.86" y1="98.08" x2="107.60" y2="105.42"></line><line class="link fake transparent" x1="100.72" y1="113.90" x2="91.52" y2="108.26"></line><line class="link fake transparent" x1="85.50" y1="117.43" x2="91.52" y2="108.26"></line><line class="link fake transparent" x1="81.73" y1="103.54" x2="91.52" y2="108.26"></line><line class="link fake transparent" x1="98.43" y1="99.72" x2="91.52" y2="108.26"></line><line class="link fake transparent" x1="85.50" y1="117.43" x2="75.72" y2="112.72"></line><line class="link fake transparent" x1="70.17" y1="122.12" x2="75.72" y2="112.72"></line><line class="link fake transparent" x1="65.70" y1="108.47" x2="75.72" y2="112.72"></line><line class="link fake transparent" x1="81.73" y1="103.54" x2="75.72" y2="112.72"></line><line class="link fake transparent" x1="70.17" y1="122.12" x2="60.15" y2="117.89"></line><line class="link fake transparent" x1="54.89" y1="127.42" x2="60.15" y2="117.89"></line><line class="link fake transparent" x1="50.07" y1="113.84" x2="60.15" y2="117.89"></line><line class="link fake transparent" x1="65.70" y1="108.47" x2="60.15" y2="117.89"></line><line class="link fake transparent" x1="54.89" y1="127.42" x2="44.81" y2="123.38"></line><line class="link fake transparent" x1="39.96" y1="133.11" x2="44.81" y2="123.38"></line><line class="link fake transparent" x1="34.89" y1="119.07" x2="44.81" y2="123.38"></line><line class="link fake transparent" x1="50.07" y1="113.84" x2="44.81" y2="123.38"></line><line class="link fake transparent" x1="140.96" y1="130.16" x2="180.64" y2="120.52"></line><line class="link fake transparent" x1="140.96" y1="130.16" x2="218.89" y2="106.09"></line><line class="link fake transparent" x1="140.71" y1="115.08" x2="180.64" y2="120.52"></line><line class="link fake transparent" x1="140.71" y1="115.08" x2="222.01" y2="120.84"></line><line class="link fake transparent" x1="143.61" y1="100.49" x2="180.64" y2="120.52"></line><line class="link fake transparent" x1="143.61" y1="100.49" x2="218.87" y2="135.42"></line><line class="link fake transparent" x1="155.24" y1="88.91" x2="180.64" y2="120.52"></line><line class="link fake transparent" x1="155.24" y1="88.91" x2="211.01" y2="148.02"></line><line class="link fake transparent" x1="168.57" y1="81.88" x2="180.64" y2="120.52"></line><line class="link fake transparent" x1="168.57" y1="81.88" x2="199.56" y2="157.47"></line><line class="link fake transparent" x1="184.68" y1="78.94" x2="180.64" y2="120.52"></line><line class="link fake transparent" x1="184.68" y1="78.94" x2="185.24" y2="161.52"></line><line class="link fake transparent" x1="198.55" y1="84.26" x2="180.64" y2="120.52"></line><line class="link fake transparent" x1="198.55" y1="84.26" x2="170.31" y2="160.25"></line><line class="link fake transparent" x1="210.78" y1="93.43" x2="180.64" y2="120.52"></line><line class="link fake transparent" x1="210.78" y1="93.43" x2="156.62" y2="155.23"></line><line class="link fake transparent" x1="218.89" y1="106.09" x2="180.64" y2="120.52"></line><line class="link fake transparent" x1="218.89" y1="106.09" x2="146.14" y2="144.10"></line><line class="link fake transparent" x1="222.01" y1="120.84" x2="180.64" y2="120.52"></line><line class="link fake transparent" x1="222.01" y1="120.84" x2="140.96" y2="130.16"></line><line class="link fake transparent" x1="218.87" y1="135.42" x2="180.64" y2="120.52"></line><line class="link fake transparent" x1="218.87" y1="135.42" x2="140.71" y2="115.08"></line><line class="link fake transparent" x1="211.01" y1="148.02" x2="180.64" y2="120.52"></line><line class="link fake transparent" x1="211.01" y1="148.02" x2="143.61" y2="100.49"></line><line class="link fake transparent" x1="199.56" y1="157.47" x2="180.64" y2="120.52"></line><line class="link fake transparent" x1="199.56" y1="157.47" x2="155.24" y2="88.91"></line><line class="link fake transparent" x1="185.24" y1="161.52" x2="180.64" y2="120.52"></line><line class="link fake transparent" x1="185.24" y1="161.52" x2="168.57" y2="81.88"></line><line class="link fake transparent" x1="170.31" y1="160.25" x2="180.64" y2="120.52"></line><line class="link fake transparent" x1="170.31" y1="160.25" x2="184.68" y2="78.94"></line><line class="link fake transparent" x1="297.84" y1="-17.67" x2="311.07" y2="-25.04"></line><line class="link fake transparent" x1="297.84" y1="-17.67" x2="324.25" y2="-32.35"></line><line class="link fake transparent" x1="298.30" y1="-33.04" x2="311.07" y2="-25.04"></line><line class="link fake transparent" x1="298.30" y1="-33.04" x2="324.05" y2="-17.38"></line><line class="link fake transparent" x1="311.45" y1="-40.13" x2="311.07" y2="-25.04"></line><line class="link fake transparent" x1="311.45" y1="-40.13" x2="310.57" y2="-9.96"></line><line class="link fake transparent" x1="324.25" y1="-32.35" x2="311.07" y2="-25.04"></line><line class="link fake transparent" x1="324.25" y1="-32.35" x2="297.84" y2="-17.67"></line><line class="link fake transparent" x1="324.05" y1="-17.38" x2="311.07" y2="-25.04"></line><line class="link fake transparent" x1="324.05" y1="-17.38" x2="298.30" y2="-33.04"></line><line class="link fake transparent" x1="310.57" y1="-9.96" x2="311.07" y2="-25.04"></line><line class="link fake transparent" x1="310.57" y1="-9.96" x2="311.45" y2="-40.13"></line><line class="link fake transparent" x1="39.96" y1="133.11" x2="17.70" y2="133.20"></line><line class="link fake transparent" x1="39.96" y1="133.11" x2="-3.24" y2="140.72"></line><line class="link fake transparent" x1="34.40" y1="147.63" x2="17.70" y2="133.20"></line><line class="link fake transparent" x1="34.40" y1="147.63" x2="-3.28" y2="125.62"></line><line class="link fake transparent" x1="21.22" y1="155.13" x2="17.70" y2="133.20"></line><line class="link fake transparent" x1="21.22" y1="155.13" x2="6.56" y2="114.01"></line><line class="link fake transparent" x1="6.31" y1="152.41" x2="17.70" y2="133.20"></line><line class="link fake transparent" x1="6.31" y1="152.41" x2="21.41" y2="111.46"></line><line class="link fake transparent" x1="-3.24" y1="140.72" x2="17.70" y2="133.20"></line><line class="link fake transparent" x1="-3.24" y1="140.72" x2="34.89" y2="119.07"></line><line class="link fake transparent" x1="-3.28" y1="125.62" x2="17.70" y2="133.20"></line><line class="link fake transparent" x1="-3.28" y1="125.62" x2="39.96" y2="133.11"></line><line class="link fake transparent" x1="6.56" y1="114.01" x2="17.70" y2="133.20"></line><line class="link fake transparent" x1="6.56" y1="114.01" x2="34.40" y2="147.63"></line><line class="link fake transparent" x1="21.41" y1="111.46" x2="17.70" y2="133.20"></line><line class="link fake transparent" x1="21.41" y1="111.46" x2="21.22" y2="155.13"></line><line class="link fake transparent" x1="34.89" y1="119.07" x2="17.70" y2="133.20"></line><line class="link fake transparent" x1="34.89" y1="119.07" x2="6.31" y2="152.41"></line><line class="link fake transparent" x1="140.71" y1="115.08" x2="128.98" y2="106.03"></line><line class="link fake transparent" x1="140.71" y1="115.08" x2="115.86" y2="98.08"></line><line class="link fake transparent" x1="127.56" y1="121.35" x2="128.98" y2="106.03"></line><line class="link fake transparent" x1="127.56" y1="121.35" x2="130.32" y2="91.39"></line><line class="link fake transparent" x1="115.58" y1="112.69" x2="128.98" y2="106.03"></line><line class="link fake transparent" x1="115.58" y1="112.69" x2="143.61" y2="100.49"></line><line class="link fake transparent" x1="115.86" y1="98.08" x2="128.98" y2="106.03"></line><line class="link fake transparent" x1="115.86" y1="98.08" x2="140.71" y2="115.08"></line><line class="link fake transparent" x1="130.32" y1="91.39" x2="128.98" y2="106.03"></line><line class="link fake transparent" x1="130.32" y1="91.39" x2="127.56" y2="121.35"></line><line class="link fake transparent" x1="143.61" y1="100.49" x2="128.98" y2="106.03"></line><line class="link fake transparent" x1="143.61" y1="100.49" x2="115.58" y2="112.69"></line><line class="link fake transparent" x1="254.99" y1="30.00" x2="266.64" y2="35.97"></line><line class="link fake transparent" x1="254.99" y1="30.00" x2="279.68" y2="35.71"></line><line class="link fake transparent" x1="270.96" y1="23.52" x2="266.64" y2="35.97"></line><line class="link fake transparent" x1="270.96" y1="23.52" x2="271.66" y2="48.45"></line><line class="link fake transparent" x1="279.68" y1="35.71" x2="266.64" y2="35.97"></line><line class="link fake transparent" x1="279.68" y1="35.71" x2="256.79" y2="44.56"></line><line class="link fake transparent" x1="271.66" y1="48.45" x2="266.64" y2="35.97"></line><line class="link fake transparent" x1="271.66" y1="48.45" x2="254.99" y2="30.00"></line><line class="link fake transparent" x1="256.79" y1="44.56" x2="266.64" y2="35.97"></line><line class="link fake transparent" x1="256.79" y1="44.56" x2="270.96" y2="23.52"></line><line class="link fake transparent" x1="270.96" y1="23.52" x2="284.20" y2="23.55"></line><line class="link fake transparent" x1="270.96" y1="23.52" x2="295.47" y2="16.85"></line><line class="link fake transparent" x1="281.99" y1="10.69" x2="284.20" y2="23.55"></line><line class="link fake transparent" x1="281.99" y1="10.69" x2="294.47" y2="32.13"></line><line class="link fake transparent" x1="295.47" y1="16.85" x2="284.20" y2="23.55"></line><line class="link fake transparent" x1="295.47" y1="16.85" x2="279.68" y2="35.71"></line><line class="link fake transparent" x1="294.47" y1="32.13" x2="284.20" y2="23.55"></line><line class="link fake transparent" x1="294.47" y1="32.13" x2="270.96" y2="23.52"></line><line class="link fake transparent" x1="279.68" y1="35.71" x2="284.20" y2="23.55"></line><line class="link fake transparent" x1="279.68" y1="35.71" x2="281.99" y2="10.69"></line></g><g><g class="noselect gnode" struct_name="m" transform="translate(140.96,130.16)" r="6.5"><circle class="node" r="6" node_type="nucleotide" style="fill: lightsalmon;"></circle><text text-anchor="middle" font-size="8" font-weight="bold" y="2.5" class="node-label">U</text></g><g class="noselect gnode" struct_name="m" transform="translate(140.71,115.08)" r="6.5"><circle class="node" r="6" node_type="nucleotide" style="fill: lightgreen;"></circle><text text-anchor="middle" font-size="8" font-weight="bold" y="2.5" class="node-label">G</text></g><g class="noselect gnode" struct_name="m" transform="translate(127.56,121.35)" r="6.5"><circle class="node" r="6" node_type="nucleotide" style="fill: rgb(219, 219, 141);"></circle><text text-anchor="middle" font-size="8" font-weight="bold" y="2.5" class="node-label">U</text></g><g class="noselect gnode" struct_name="m" transform="translate(115.58,112.69)" r="6.5"><circle class="node" r="6" node_type="nucleotide" style="fill: lightgreen;"></circle><text text-anchor="middle" font-size="8" font-weight="bold" y="2.5" class="node-label">U</text></g><g class="noselect gnode" struct_name="m" transform="translate(100.72,113.90)" r="6.5"><circle class="node" r="6" node_type="nucleotide" style="fill: lightgreen;"></circle><text text-anchor="middle" font-size="8" font-weight="bold" y="2.5" class="node-label">G</text></g><g class="noselect gnode" struct_name="m" transform="translate(85.50,117.43)" r="6.5"><circle class="node" r="6" node_type="nucleotide" style="fill: lightgreen;"></circle><text text-anchor="middle" font-size="8" font-weight="bold" y="2.5" class="node-label">C</text></g><g class="noselect gnode" struct_name="m" transform="translate(70.17,122.12)" r="6.5"><circle class="node" r="6" node_type="nucleotide" style="fill: lightgreen;"></circle><text text-anchor="middle" font-size="8" font-weight="bold" y="2.5" class="node-label">G</text></g><g class="noselect gnode" struct_name="m" transform="translate(54.89,127.42)" r="6.5"><circle class="node" r="6" node_type="nucleotide" style="fill: lightgreen;"></circle><text text-anchor="middle" font-size="8" font-weight="bold" y="2.5" class="node-label">C</text></g><g class="noselect gnode" struct_name="m" transform="translate(39.96,133.11)" r="6.5"><circle class="node" r="6" node_type="nucleotide" style="fill: lightgreen;"></circle><text text-anchor="middle" font-size="8" font-weight="bold" y="2.5" class="node-label">C</text></g><g class="noselect gnode" struct_name="m" transform="translate(34.40,147.63)" r="6.5"><circle class="node" r="6" node_type="nucleotide" style="fill: lightblue;"></circle><text text-anchor="middle" font-size="8" font-weight="bold" y="2.5" class="node-label">G</text></g><g class="noselect gnode" struct_name="m" transform="translate(21.22,155.13)" r="6.5"><circle class="node" r="6" node_type="nucleotide" style="fill: lightblue;"></circle><text text-anchor="middle" font-size="8" font-weight="bold" y="2.5" class="node-label">A</text></g><g class="noselect gnode" struct_name="m" transform="translate(6.31,152.41)" r="6.5"><circle class="node" r="6" node_type="nucleotide" style="fill: lightblue;"></circle><text text-anchor="middle" font-size="8" font-weight="bold" y="2.5" class="node-label">U</text></g><g class="noselect gnode" struct_name="m" transform="translate(-3.24,140.72)" r="6.5"><circle class="node" r="6" node_type="nucleotide" style="fill: lightblue;"></circle><text text-anchor="middle" font-size="8" font-weight="bold" y="2.5" class="node-label">U</text></g><g class="noselect gnode" struct_name="m" transform="translate(-3.28,125.62)" r="6.5"><circle class="node" r="6" node_type="nucleotide" style="fill: lightblue;"></circle><text text-anchor="middle" font-size="8" font-weight="bold" y="2.5" class="node-label">G</text></g><g class="noselect gnode" struct_name="m" transform="translate(6.56,114.01)" r="6.5"><circle class="node" r="6" node_type="nucleotide" style="fill: lightblue;"></circle><text text-anchor="middle" font-size="8" font-weight="bold" y="2.5" class="node-label">U</text></g><g class="noselect gnode" struct_name="m" transform="translate(21.41,111.46)" r="6.5"><circle class="node" r="6" node_type="nucleotide" style="fill: lightblue;"></circle><text text-anchor="middle" font-size="8" font-weight="bold" y="2.5" class="node-label">U</text></g><g class="noselect gnode" struct_name="m" transform="translate(34.89,119.07)" r="6.5"><circle class="node" r="6" node_type="nucleotide" style="fill: lightgreen;"></circle><text text-anchor="middle" font-size="8" font-weight="bold" y="2.5" class="node-label">G</text></g><g class="noselect gnode" struct_name="m" transform="translate(50.07,113.84)" r="6.5"><circle class="node" r="6" node_type="nucleotide" style="fill: lightgreen;"></circle><text text-anchor="middle" font-size="8" font-weight="bold" y="2.5" class="node-label">G</text></g><g class="noselect gnode" struct_name="m" transform="translate(65.70,108.47)" r="6.5"><circle class="node" r="6" node_type="nucleotide" style="fill: lightgreen;"></circle><text text-anchor="middle" font-size="8" font-weight="bold" y="2.5" class="node-label">C</text></g><g class="noselect gnode" struct_name="m" transform="translate(81.73,103.54)" r="6.5"><circle class="node" r="6" node_type="nucleotide" style="fill: lightgreen;"></circle><text text-anchor="middle" font-size="8" font-weight="bold" y="2.5" class="node-label">G</text></g><g class="noselect gnode" struct_name="m" transform="translate(98.43,99.72)" r="6.5"><circle class="node" r="6" node_type="nucleotide" style="fill: lightgreen;"></circle><text text-anchor="middle" font-size="8" font-weight="bold" y="2.5" class="node-label">C</text></g><g class="noselect gnode" struct_name="m" transform="translate(115.86,98.08)" r="6.5"><circle class="node" r="6" node_type="nucleotide" style="fill: lightgreen;"></circle><text text-anchor="middle" font-size="8" font-weight="bold" y="2.5" class="node-label">A</text></g><g class="noselect gnode" struct_name="m" transform="translate(130.32,91.39)" r="6.5"><circle class="node" r="6" node_type="nucleotide" style="fill: rgb(219, 219, 141);"></circle><text text-anchor="middle" font-size="8" font-weight="bold" y="2.5" class="node-label">U</text></g><g class="noselect gnode" struct_name="m" transform="translate(143.61,100.49)" r="6.5"><circle class="node" r="6" node_type="nucleotide" style="fill: lightgreen;"></circle><text text-anchor="middle" font-size="8" font-weight="bold" y="2.5" class="node-label">C</text></g><g class="noselect gnode" struct_name="m" transform="translate(155.24,88.91)" r="6.5"><circle class="node" r="6" node_type="nucleotide" style="fill: lightsalmon;"></circle><text text-anchor="middle" font-size="8" font-weight="bold" y="2.5" class="node-label">U</text></g><g class="noselect gnode" struct_name="m" transform="translate(168.57,81.88)" r="6.5"><circle class="node" r="6" node_type="nucleotide" style="fill: lightsalmon;"></circle><text text-anchor="middle" font-size="8" font-weight="bold" y="2.5" class="node-label">A</text></g><g class="noselect gnode" struct_name="m" transform="translate(184.68,78.94)" r="6.5"><circle class="node" r="6" node_type="nucleotide" style="fill: lightgreen;"></circle><text text-anchor="middle" font-size="8" font-weight="bold" y="2.5" class="node-label">C</text></g><g class="noselect gnode" struct_name="m" transform="translate(194.09,63.24)" r="6.5"><circle class="node" r="6" node_type="nucleotide" style="fill: lightgreen;"></circle><text text-anchor="middle" font-size="8" font-weight="bold" y="2.5" class="node-label">C</text></g><g class="noselect gnode" struct_name="m" transform="translate(206.71,50.38)" r="6.5"><circle class="node" r="6" node_type="nucleotide" style="fill: lightgreen;"></circle><text text-anchor="middle" font-size="8" font-weight="bold" y="2.5" class="node-label">C</text></g><g class="noselect gnode" struct_name="m" transform="translate(221.59,40.79)" r="6.5"><circle class="node" r="6" node_type="nucleotide" style="fill: lightgreen;"></circle><text text-anchor="middle" font-size="8" font-weight="bold" y="2.5" class="node-label">A</text></g><g class="noselect gnode" struct_name="m" transform="translate(237.85,34.10)" r="6.5"><circle class="node" r="6" node_type="nucleotide" style="fill: lightgreen;"></circle><text text-anchor="middle" font-size="8" font-weight="bold" y="2.5" class="node-label">A</text></g><g class="noselect gnode" struct_name="m" transform="translate(254.99,30.00)" r="6.5"><circle class="node" r="6" node_type="nucleotide" style="fill: lightgreen;"></circle><text text-anchor="middle" font-size="8" font-weight="bold" y="2.5" class="node-label">U</text></g><g class="noselect gnode" struct_name="m" transform="translate(270.96,23.52)" r="6.5"><circle class="node" r="6" node_type="nucleotide" style="fill: lightgreen;"></circle><text text-anchor="middle" font-size="8" font-weight="bold" y="2.5" class="node-label">G</text></g><g class="noselect gnode" struct_name="m" transform="translate(281.99,10.69)" r="6.5"><circle class="node" r="6" node_type="nucleotide" style="fill: lightgreen;"></circle><text text-anchor="middle" font-size="8" font-weight="bold" y="2.5" class="node-label">G</text></g><g class="noselect gnode" struct_name="m" transform="translate(289.79,-3.85)" r="6.5"><circle class="node" r="6" node_type="nucleotide" style="fill: lightgreen;"></circle><text text-anchor="middle" font-size="8" font-weight="bold" y="2.5" class="node-label">G</text></g><g class="noselect gnode" struct_name="m" transform="translate(297.84,-17.67)" r="6.5"><circle class="node" r="6" node_type="nucleotide" style="fill: lightgreen;"></circle><text text-anchor="middle" font-size="8" font-weight="bold" y="2.5" class="node-label">U</text></g><g class="noselect gnode" struct_name="m" transform="translate(298.30,-33.04)" r="6.5"><circle class="node" r="6" node_type="nucleotide" style="fill: lightblue;"></circle><text text-anchor="middle" font-size="8" font-weight="bold" y="2.5" class="node-label">G</text></g><g class="noselect gnode" struct_name="m" transform="translate(311.45,-40.13)" r="6.5"><circle class="node" r="6" node_type="nucleotide" style="fill: lightblue;"></circle><text text-anchor="middle" font-size="8" font-weight="bold" y="2.5" class="node-label">A</text></g><g class="noselect gnode" struct_name="m" transform="translate(324.25,-32.35)" r="6.5"><circle class="node" r="6" node_type="nucleotide" style="fill: lightblue;"></circle><text text-anchor="middle" font-size="8" font-weight="bold" y="2.5" class="node-label">U</text></g><g class="noselect gnode" struct_name="m" transform="translate(324.05,-17.38)" r="6.5"><circle class="node" r="6" node_type="nucleotide" style="fill: lightblue;"></circle><text text-anchor="middle" font-size="8" font-weight="bold" y="2.5" class="node-label">A</text></g><g class="noselect gnode" struct_name="m" transform="translate(310.57,-9.96)" r="6.5"><circle class="node" r="6" node_type="nucleotide" style="fill: lightgreen;"></circle><text text-anchor="middle" font-size="8" font-weight="bold" y="2.5" class="node-label">A</text></g><g class="noselect gnode" struct_name="m" transform="translate(302.51,3.36)" r="6.5"><circle class="node" r="6" node_type="nucleotide" style="fill: lightgreen;"></circle><text text-anchor="middle" font-size="8" font-weight="bold" y="2.5" class="node-label">C</text></g><g class="noselect gnode" struct_name="m" transform="translate(295.47,16.85)" r="6.5"><circle class="node" r="6" node_type="nucleotide" style="fill: lightgreen;"></circle><text text-anchor="middle" font-size="8" font-weight="bold" y="2.5" class="node-label">C</text></g><g class="noselect gnode" struct_name="m" transform="translate(294.47,32.13)" r="6.5"><circle class="node" r="6" node_type="nucleotide" style="fill: rgb(219, 219, 141);"></circle><text text-anchor="middle" font-size="8" font-weight="bold" y="2.5" class="node-label">A</text></g><g class="noselect gnode" struct_name="m" transform="translate(279.68,35.71)" r="6.5"><circle class="node" r="6" node_type="nucleotide" style="fill: lightgreen;"></circle><text text-anchor="middle" font-size="8" font-weight="bold" y="2.5" class="node-label">C</text></g><g class="noselect gnode" struct_name="m" transform="translate(271.66,48.45)" r="6.5"><circle class="node" r="6" node_type="nucleotide" style="fill: rgb(219, 219, 141);"></circle><text text-anchor="middle" font-size="8" font-weight="bold" y="2.5" class="node-label">A</text></g><g class="noselect gnode" struct_name="m" transform="translate(256.79,44.56)" r="6.5"><circle class="node" r="6" node_type="nucleotide" style="fill: lightgreen;"></circle><text text-anchor="middle" font-size="8" font-weight="bold" y="2.5" class="node-label">A</text></g><g class="noselect gnode" struct_name="m" transform="translate(242.21,47.74)" r="6.5"><circle class="node" r="6" node_type="nucleotide" style="fill: lightgreen;"></circle><text text-anchor="middle" font-size="8" font-weight="bold" y="2.5" class="node-label">U</text></g><g class="noselect gnode" struct_name="m" transform="translate(228.26,53.54)" r="6.5"><circle class="node" r="6" node_type="nucleotide" style="fill: lightgreen;"></circle><text text-anchor="middle" font-size="8" font-weight="bold" y="2.5" class="node-label">U</text></g><g class="noselect gnode" struct_name="m" transform="translate(215.74,61.58)" r="6.5"><circle class="node" r="6" node_type="nucleotide" style="fill: lightgreen;"></circle><text text-anchor="middle" font-size="8" font-weight="bold" y="2.5" class="node-label">G</text></g><g class="noselect gnode" struct_name="m" transform="translate(205.44,71.92)" r="6.5"><circle class="node" r="6" node_type="nucleotide" style="fill: lightgreen;"></circle><text text-anchor="middle" font-size="8" font-weight="bold" y="2.5" class="node-label">G</text></g><g class="noselect gnode" struct_name="m" transform="translate(198.55,84.26)" r="6.5"><circle class="node" r="6" node_type="nucleotide" style="fill: lightgreen;"></circle><text text-anchor="middle" font-size="8" font-weight="bold" y="2.5" class="node-label">G</text></g><g class="noselect gnode" struct_name="m" transform="translate(210.78,93.43)" r="6.5"><circle class="node" r="6" node_type="nucleotide" style="fill: lightsalmon;"></circle><text text-anchor="middle" font-size="8" font-weight="bold" y="2.5" class="node-label">A</text></g><g class="noselect gnode" struct_name="m" transform="translate(218.89,106.09)" r="6.5"><circle class="node" r="6" node_type="nucleotide" style="fill: lightsalmon;"></circle><text text-anchor="middle" font-size="8" font-weight="bold" y="2.5" class="node-label">G</text></g><g class="noselect gnode" struct_name="m" transform="translate(222.01,120.84)" r="6.5"><circle class="node" r="6" node_type="nucleotide" style="fill: lightsalmon;"></circle><text text-anchor="middle" font-size="8" font-weight="bold" y="2.5" class="node-label">A</text></g><g class="noselect gnode" struct_name="m" transform="translate(218.87,135.42)" r="6.5"><circle class="node" r="6" node_type="nucleotide" style="fill: lightsalmon;"></circle><text text-anchor="middle" font-size="8" font-weight="bold" y="2.5" class="node-label">A</text></g><g class="noselect gnode" struct_name="m" transform="translate(211.01,148.02)" r="6.5"><circle class="node" r="6" node_type="nucleotide" style="fill: lightsalmon;"></circle><text text-anchor="middle" font-size="8" font-weight="bold" y="2.5" class="node-label">A</text></g><g class="noselect gnode" struct_name="m" transform="translate(199.56,157.47)" r="6.5"><circle class="node" r="6" node_type="nucleotide" style="fill: lightsalmon;"></circle><text text-anchor="middle" font-size="8" font-weight="bold" y="2.5" class="node-label">A</text></g><g class="noselect gnode" struct_name="m" transform="translate(185.24,161.52)" r="6.5"><circle class="node" r="6" node_type="nucleotide" style="fill: lightsalmon;"></circle><text text-anchor="middle" font-size="8" font-weight="bold" y="2.5" class="node-label">C</text></g><g class="noselect gnode" struct_name="m" transform="translate(170.31,160.25)" r="6.5"><circle class="node" r="6" node_type="nucleotide" style="fill: lightsalmon;"></circle><text text-anchor="middle" font-size="8" font-weight="bold" y="2.5" class="node-label">U</text></g><g class="noselect gnode" struct_name="m" transform="translate(34.75,163.17)" r="6.5"><circle class="node label" r="6" node_type="label"></circle><text text-anchor="middle" font-size="8" font-weight="bold" y="2.5" class="node-label">10</text></g><g class="noselect gnode" struct_name="m" transform="translate(78.56,88.26)" r="6.5"><circle class="node label" r="6" node_type="label"></circle><text text-anchor="middle" font-size="8" font-weight="bold" y="2.5" class="node-label">20</text></g><g class="noselect gnode" struct_name="m" transform="translate(212.28,28.22)" r="6.5"><circle class="node label" r="6" node_type="label"></circle><text text-anchor="middle" font-size="8" font-weight="bold" y="2.5" class="node-label">30</text></g><g class="noselect gnode" struct_name="m" transform="translate(339.41,-15.52)" r="6.5"><circle class="node label" r="6" node_type="label"></circle><text text-anchor="middle" font-size="8" font-weight="bold" y="2.5" class="node-label">40</text></g><g class="noselect gnode" struct_name="m" transform="translate(226.29,72.82)" r="6.5"><circle class="node label" r="6" node_type="label"></circle><text text-anchor="middle" font-size="8" font-weight="bold" y="2.5" class="node-label">50</text></g><g class="noselect gnode" struct_name="m" transform="translate(181.43,150.18)" r="6.5"><circle class="node label" r="6" node_type="label"></circle><text text-anchor="middle" font-size="8" font-weight="bold" y="2.5" class="node-label">60</text></g><g class="noselect gnode" transform="translate(292.23,6.65)" r="6.5"><circle class="node" r="0" node_type="middle"></circle><text text-anchor="middle" font-size="8" font-weight="bold" y="2.5" class="node-label"></text></g><g class="noselect gnode" transform="translate(300.13,-7.13)" r="6.5"><circle class="node" r="0" node_type="middle"></circle><text text-anchor="middle" font-size="8" font-weight="bold" y="2.5" class="node-label"></text></g><g class="noselect gnode" transform="translate(194.78,74.16)" r="6.5"><circle class="node" r="0" node_type="middle"></circle><text text-anchor="middle" font-size="8" font-weight="bold" y="2.5" class="node-label"></text></g><g class="noselect gnode" transform="translate(204.75,61.09)" r="6.5"><circle class="node" r="0" node_type="middle"></circle><text text-anchor="middle" font-size="8" font-weight="bold" y="2.5" class="node-label"></text></g><g class="noselect gnode" transform="translate(217.58,50.92)" r="6.5"><circle class="node" r="0" node_type="middle"></circle><text text-anchor="middle" font-size="8" font-weight="bold" y="2.5" class="node-label"></text></g><g class="noselect gnode" transform="translate(232.17,43.44)" r="6.5"><circle class="node" r="0" node_type="middle"></circle><text text-anchor="middle" font-size="8" font-weight="bold" y="2.5" class="node-label"></text></g><g class="noselect gnode" transform="translate(247.83,38.45)" r="6.5"><circle class="node" r="0" node_type="middle"></circle><text text-anchor="middle" font-size="8" font-weight="bold" y="2.5" class="node-label"></text></g><g class="noselect gnode" transform="translate(107.60,105.42)" r="6.5"><circle class="node" r="0" node_type="middle"></circle><text text-anchor="middle" font-size="8" font-weight="bold" y="2.5" class="node-label"></text></g><g class="noselect gnode" transform="translate(91.52,108.26)" r="6.5"><circle class="node" r="0" node_type="middle"></circle><text text-anchor="middle" font-size="8" font-weight="bold" y="2.5" class="node-label"></text></g><g class="noselect gnode" transform="translate(75.72,112.72)" r="6.5"><circle class="node" r="0" node_type="middle"></circle><text text-anchor="middle" font-size="8" font-weight="bold" y="2.5" class="node-label"></text></g><g class="noselect gnode" transform="translate(60.15,117.89)" r="6.5"><circle class="node" r="0" node_type="middle"></circle><text text-anchor="middle" font-size="8" font-weight="bold" y="2.5" class="node-label"></text></g><g class="noselect gnode" transform="translate(44.81,123.38)" r="6.5"><circle class="node" r="0" node_type="middle"></circle><text text-anchor="middle" font-size="8" font-weight="bold" y="2.5" class="node-label"></text></g><g class="noselect gnode" transform="translate(156.62,155.23)" r="6.5"><circle class="node" r="0" node_type="middle"></circle><text text-anchor="middle" font-size="8" font-weight="bold" y="2.5" class="node-label"></text></g><g class="noselect gnode" transform="translate(146.14,144.10)" r="6.5"><circle class="node" r="0" node_type="middle"></circle><text text-anchor="middle" font-size="8" font-weight="bold" y="2.5" class="node-label"></text></g><g class="noselect gnode" transform="translate(180.64,120.52)" r="6.5"><circle class="node" r="0" node_type="middle"></circle><text text-anchor="middle" font-size="8" font-weight="bold" y="2.5" class="node-label"></text></g><g class="noselect gnode" transform="translate(311.07,-25.04)" r="6.5"><circle class="node" r="0" node_type="middle"></circle><text text-anchor="middle" font-size="8" font-weight="bold" y="2.5" class="node-label"></text></g><g class="noselect gnode" transform="translate(17.70,133.20)" r="6.5"><circle class="node" r="0" node_type="middle"></circle><text text-anchor="middle" font-size="8" font-weight="bold" y="2.5" class="node-label"></text></g><g class="noselect gnode" transform="translate(128.98,106.03)" r="6.5"><circle class="node" r="0" node_type="middle"></circle><text text-anchor="middle" font-size="8" font-weight="bold" y="2.5" class="node-label"></text></g><g class="noselect gnode" transform="translate(266.64,35.97)" r="6.5"><circle class="node" r="0" node_type="middle"></circle><text text-anchor="middle" font-size="8" font-weight="bold" y="2.5" class="node-label"></text></g><g class="noselect gnode" transform="translate(284.20,23.55)" r="6.5"><circle class="node" r="0" node_type="middle"></circle><text text-anchor="middle" font-size="8" font-weight="bold" y="2.5" class="node-label"></text></g></g><line class="drag_line" x1="0" y1="0" x2="0" y2="0"></line></g></g></svg>