<svg xmlns="http://www.w3.org/2000/svg" viewBox="0 0 760 640" width="760" height="640"><style>svg {
  display: block;
  min-width: 100%;
  width: 100%;
  min-height: 100%;
}

circle.node {
  stroke: #ccc;
  stroke-width: 1px;
  opacity: 1;
  fill: white;
}

circle.node.label {
    stroke: transparent;
    stroke-width: 0;
    fill: white;
}

circle.outline_node {
    stroke-width: 1px;
    fill: red;
}

circle.protein {
    fill: gray;
    fill-opacity: 0.5;
    stroke-width: 4;
}

circle.hidden_outline {
    stroke-width: 0px;
}


line.link {
  stroke: #999;
  stroke-opacity: 0.8;
  stroke-width: 2;
}

line.basepair {
  stroke: red;
}

line.intermolecule {
  stroke: blue;
}

line.chain_chain {
  stroke-dasharray: 3,3;
}

line.fake {
  stroke: green;
}

.transparent {
    fill: transparent;
    stroke-width: 0;
    stroke-opacity: 0;
    opacity: 0;
    visibility: hidden;
}

.drag_line {
  stroke: #999;
  stroke-width: 2;
  pointer-events: none;
}

.drag_line_hidden {
  stroke: #999;
  stroke-width: 0;
  pointer-events: none;
}

.d3-tip {
    line-height: 1;
    font-weight: bold;
    padding: 6px;
    background: rgba(0, 0, 0, 0.6);
    color: #fff;
    border-radius: 4px;
    pointer-events: none;
          }

text.node-label {
    font-weight: bold;
    font-family: Tahoma, Geneva, sans-serif;
    color: rgb(100,100,100);
    pointer-events: none;
}

text {
    pointer-events: none;
}

g.gnode {

}

circle.outline_node.selected {
    visibility: visible;
}

circle.outline_node {
    visibility: hidden;
}

.brush .extent {
  fill-opacity: .1;
  stroke: #fff;
  shape-rendering: crispEdges;
}

.noselect {
    -webkit-touch-callout: none;
    -webkit-user-select: none;
    -khtml-user-select: none;
    -moz-user-select: none;
    -ms-user-select: none;
    user-select: none;
}

svg {
  display: block;
  min-width: 100%;
  width: 100%;
  min-height: 100%;
}

circle.node {
  stroke: #ccc;
  stroke-width: 1px;
  opacity: 1;
  fill: white;
}

circle.node.label {
    stroke: transparent;
    stroke-width: 0;
    fill: white;
}

circle.outline_node {
    stroke-width: 1px;
    fill: red;
}

circle.protein {
    fill: gray;
    fill-opacity: 0.5;
    stroke-width: 4;
}

circle.hidden_outline {
    stroke-width: 0px;
}


line.link {
  stroke: #999;
  stroke-opacity: 0.8;
  stroke-width: 2;
}

line.basepair {
  stroke: red;
}

line.intermolecule {
  stroke: blue;
}

line.chain_chain {
  stroke-dasharray: 3,3;
}

line.fake {
  stroke: green;
}

.transparent {
    fill: transparent;
    stroke-width: 0;
    stroke-opacity: 0;
    opacity: 0;
    visibility: hidden;
}

.drag_line {
  stroke: #999;
  stroke-width: 2;
  pointer-events: none;
}

.drag_line_hidden {
  stroke: #999;
  stroke-width: 0;
  pointer-events: none;
}

.d3-tip {
    line-height: 1;
    font-weight: bold;
    padding: 6px;
    background: rgba(0, 0, 0, 0.6);
    color: #fff;
    border-radius: 4px;
    pointer-events: none;
          }

text.node-label {
    font-weight: bold;
    font-family: Tahoma, Geneva, sans-serif;
    color: rgb(100,100,100);
    pointer-events: none;
}

text {
    pointer-events: none;
}

g.gnode {

}

circle.outline_node.selected {
    visibility: visible;
}

circle.outline_node {
    visibility: hidden;
}

.brush .extent {
  fill-opacity: .1;
  stroke: #fff;
  shape-rendering: crispEdges;
}

.noselect {
    -webkit-touch-callout: none;
    -webkit-user-select: none;
    -khtml-user-select: none;
    -moz-user-select: none;
    -ms-user-select: none;
    user-select: none;
}
/*# sourceURL=/Users/yumanakamura/ipy_sandbox/sandbox/claude_sandbox/mrna-transformer-worktrees/feat-issue57-switch-derna-knotty/scripts/eval/prerender/forna_vendor/fornac.css*/</style><style></style><g><g class="brush" style="pointer-events: all; -webkit-tap-highlight-color: rgba(0, 0, 0, 0);"><rect class="background" x="0" width="760" y="0" height="640" style="visibility: hidden; cursor: auto;"></rect><rect class="extent" x="0" width="0" y="0" height="0" style="cursor: move;"></rect><g class="resize n" transform="translate(0,0)" style="cursor: ns-resize; display: none;"><rect y="-3" width="0" height="6" style="visibility: hidden;"></rect></g><g class="resize e" transform="translate(0,0)" style="cursor: ew-resize; display: none;"><rect x="-3" width="6" height="0" style="visibility: hidden;"></rect></g><g class="resize s" transform="translate(0,0)" style="cursor: ns-resize; display: none;"><rect y="-3" width="0" height="6" style="visibility: hidden;"></rect></g><g class="resize w" transform="translate(0,0)" style="cursor: ew-resize; display: none;"><rect x="-3" width="6" height="0" style="visibility: hidden;"></rect></g><g class="resize nw" transform="translate(0,0)" style="cursor: nwse-resize; display: none;"><rect x="-3" y="-3" width="6" height="6" style="visibility: hidden;"></rect></g><g class="resize ne" transform="translate(0,0)" style="cursor: nesw-resize; display: none;"><rect x="-3" y="-3" width="6" height="6" style="visibility: hidden;"></rect></g><g class="resize se" transform="translate(0,0)" style="cursor: nwse-resize; display: none;"><rect x="-3" y="-3" width="6" height="6" style="visibility: hidden;"></rect></g><g class="resize sw" transform="translate(0,0)" style="cursor: nesw-resize; display: none;"><rect x="-3" y="-3" width="6" height="6" style="visibility: hidden;"></rect></g></g><g transform="translate(312.61,142.53) scale(1.32)"><g><line class="link basepair" x1="23.88" y1="297.85" x2="36.02" y2="289.17"></line><line class="link basepair" x1="14.79" y1="285.46" x2="26.33" y2="276.40"></line><line class="link backbone" x1="23.88" y1="297.85" x2="14.79" y2="285.46"></line><line class="link basepair" x1="5.05" y1="273.97" x2="15.69" y2="263.67"></line><line class="link backbone" x1="14.79" y1="285.46" x2="5.05" y2="273.97"></line><line class="link backbone" x1="5.05" y1="273.97" x2="-10.04" y2="274.67"></line><line class="link backbone" x1="-10.04" y1="274.67" x2="-20.66" y2="264.21"></line><line class="link backbone" x1="-20.66" y1="264.21" x2="-21.30" y2="249.53"></line><line class="link backbone" x1="-21.30" y1="249.53" x2="-11.41" y2="238.35"></line><line class="link basepair" x1="3.78" y1="237.88" x2="15.20" y2="247.19"></line><line class="link backbone" x1="-11.41" y1="238.35" x2="3.78" y2="237.88"></line><line class="link basepair" x1="12.39" y1="225.42" x2="24.74" y2="232.66"></line><line class="link backbone" x1="3.78" y1="237.88" x2="12.39" y2="225.42"></line><line class="link basepair" x1="19.40" y1="211.54" x2="32.61" y2="217.34"></line><line class="link backbone" x1="12.39" y1="225.42" x2="19.40" y2="211.54"></line><line class="link basepair" x1="24.76" y1="197.14" x2="38.59" y2="201.24"></line><line class="link backbone" x1="19.40" y1="211.54" x2="24.76" y2="197.14"></line><line class="link basepair" x1="28.03" y1="182.30" x2="42.33" y2="184.36"></line><line class="link backbone" x1="24.76" y1="197.14" x2="28.03" y2="182.30"></line><line class="link basepair" x1="29.11" y1="167.14" x2="43.64" y2="167.27"></line><line class="link backbone" x1="28.03" y1="182.30" x2="29.11" y2="167.14"></line><line class="link basepair" x1="28.29" y1="151.87" x2="42.68" y2="150.31"></line><line class="link backbone" x1="29.11" y1="167.14" x2="28.29" y2="151.87"></line><line class="link basepair" x1="25.88" y1="136.49" x2="39.97" y2="133.52"></line><line class="link backbone" x1="28.29" y1="151.87" x2="25.88" y2="136.49"></line><line class="link basepair" x1="21.88" y1="121.56" x2="35.42" y2="116.85"></line><line class="link backbone" x1="25.88" y1="136.49" x2="21.88" y2="121.56"></line><line class="link basepair" x1="15.80" y1="108.13" x2="28.49" y2="100.58"></line><line class="link backbone" x1="21.88" y1="121.56" x2="15.80" y2="108.13"></line><line class="link backbone" x1="15.80" y1="108.13" x2="0.52" y2="107.19"></line><line class="link backbone" x1="0.52" y1="107.19" x2="-10.15" y2="96.56"></line><line class="link backbone" x1="-10.15" y1="96.56" x2="-11.29" y2="81.54"></line><line class="link backbone" x1="-11.29" y1="81.54" x2="-2.94" y2="69.11"></line><line class="link backbone" x1="-2.94" y1="69.11" x2="11.52" y2="64.84"></line><line class="link basepair" x1="25.30" y1="71.49" x2="32.72" y2="84.25"></line><line class="link backbone" x1="11.52" y1="64.84" x2="25.30" y2="71.49"></line><line class="link basepair" x1="36.94" y1="62.71" x2="46.70" y2="73.25"></line><line class="link backbone" x1="25.30" y1="71.49" x2="36.94" y2="62.71"></line><line class="link basepair" x1="47.06" y1="51.53" x2="58.48" y2="60.35"></line><line class="link backbone" x1="36.94" y1="62.71" x2="47.06" y2="51.53"></line><line class="link basepair" x1="55.36" y1="38.81" x2="67.97" y2="45.74"></line><line class="link backbone" x1="47.06" y1="51.53" x2="55.36" y2="38.81"></line><line class="link basepair" x1="61.65" y1="24.92" x2="75.32" y2="30.23"></line><line class="link backbone" x1="55.36" y1="38.81" x2="61.65" y2="24.92"></line><line class="link backbone" x1="61.65" y1="24.92" x2="58.76" y2="10.02"></line><line class="link basepair" x1="70.23" y1="0.21" x2="84.22" y2="4.72"></line><line class="link backbone" x1="58.76" y1="10.02" x2="70.23" y2="0.21"></line><line class="link basepair" x1="74.59" y1="-14.81" x2="88.66" y2="-11.11"></line><line class="link backbone" x1="70.23" y1="0.21" x2="74.59" y2="-14.81"></line><line class="link basepair" x1="78.30" y1="-30.18" x2="92.52" y2="-26.82"></line><line class="link backbone" x1="74.59" y1="-14.81" x2="78.30" y2="-30.18"></line><line class="link basepair" x1="81.50" y1="-45.43" x2="96.18" y2="-42.20"></line><line class="link backbone" x1="78.30" y1="-30.18" x2="81.50" y2="-45.43"></line><line class="link backbone" x1="81.50" y1="-45.43" x2="79.87" y2="-61.02"></line><line class="link backbone" x1="79.87" y1="-61.02" x2="93.90" y2="-67.06"></line><line class="link backbone" x1="93.90" y1="-67.06" x2="104.14" y2="-55.72"></line><line class="link basepair" x1="96.18" y1="-42.20" x2="81.50" y2="-45.43"></line><line class="link backbone" x1="104.14" y1="-55.72" x2="96.18" y2="-42.20"></line><line class="link basepair" x1="92.52" y1="-26.82" x2="78.30" y2="-30.18"></line><line class="link backbone" x1="96.18" y1="-42.20" x2="92.52" y2="-26.82"></line><line class="link basepair" x1="88.66" y1="-11.11" x2="74.59" y2="-14.81"></line><line class="link backbone" x1="92.52" y1="-26.82" x2="88.66" y2="-11.11"></line><line class="link basepair" x1="84.22" y1="4.72" x2="70.23" y2="0.21"></line><line class="link backbone" x1="88.66" y1="-11.11" x2="84.22" y2="4.72"></line><line class="link backbone" x1="84.22" y1="4.72" x2="87.19" y2="20.00"></line><line class="link basepair" x1="75.32" y1="30.23" x2="61.65" y2="24.92"></line><line class="link backbone" x1="87.19" y1="20.00" x2="75.32" y2="30.23"></line><line class="link basepair" x1="67.97" y1="45.74" x2="55.36" y2="38.81"></line><line class="link backbone" x1="75.32" y1="30.23" x2="67.97" y2="45.74"></line><line class="link basepair" x1="58.48" y1="60.35" x2="47.06" y2="51.53"></line><line class="link backbone" x1="67.97" y1="45.74" x2="58.48" y2="60.35"></line><line class="link basepair" x1="46.70" y1="73.25" x2="36.94" y2="62.71"></line><line class="link backbone" x1="58.48" y1="60.35" x2="46.70" y2="73.25"></line><line class="link basepair" x1="32.72" y1="84.25" x2="25.30" y2="71.49"></line><line class="link backbone" x1="46.70" y1="73.25" x2="32.72" y2="84.25"></line><line class="link basepair" x1="28.49" y1="100.58" x2="15.80" y2="108.13"></line><line class="link backbone" x1="32.72" y1="84.25" x2="28.49" y2="100.58"></line><line class="link basepair" x1="35.42" y1="116.85" x2="21.88" y2="121.56"></line><line class="link backbone" x1="28.49" y1="100.58" x2="35.42" y2="116.85"></line><line class="link basepair" x1="39.97" y1="133.52" x2="25.88" y2="136.49"></line><line class="link backbone" x1="35.42" y1="116.85" x2="39.97" y2="133.52"></line><line class="link basepair" x1="42.68" y1="150.31" x2="28.29" y2="151.87"></line><line class="link backbone" x1="39.97" y1="133.52" x2="42.68" y2="150.31"></line><line class="link basepair" x1="43.64" y1="167.27" x2="29.11" y2="167.14"></line><line class="link backbone" x1="42.68" y1="150.31" x2="43.64" y2="167.27"></line><line class="link basepair" x1="42.33" y1="184.36" x2="28.03" y2="182.30"></line><line class="link backbone" x1="43.64" y1="167.27" x2="42.33" y2="184.36"></line><line class="link basepair" x1="38.59" y1="201.24" x2="24.76" y2="197.14"></line><line class="link backbone" x1="42.33" y1="184.36" x2="38.59" y2="201.24"></line><line class="link basepair" x1="32.61" y1="217.34" x2="19.40" y2="211.54"></line><line class="link backbone" x1="38.59" y1="201.24" x2="32.61" y2="217.34"></line><line class="link basepair" x1="24.74" y1="232.66" x2="12.39" y2="225.42"></line><line class="link backbone" x1="32.61" y1="217.34" x2="24.74" y2="232.66"></line><line class="link basepair" x1="15.20" y1="247.19" x2="3.78" y2="237.88"></line><line class="link backbone" x1="24.74" y1="232.66" x2="15.20" y2="247.19"></line><line class="link basepair" x1="15.69" y1="263.67" x2="5.05" y2="273.97"></line><line class="link backbone" x1="15.20" y1="247.19" x2="15.69" y2="263.67"></line><line class="link basepair" x1="26.33" y1="276.40" x2="14.79" y2="285.46"></line><line class="link backbone" x1="15.69" y1="263.67" x2="26.33" y2="276.40"></line><line class="link basepair" x1="36.02" y1="289.17" x2="23.88" y2="297.85"></line><line class="link backbone" x1="26.33" y1="276.40" x2="36.02" y2="289.17"></line><line class="link backbone" x1="36.02" y1="289.17" x2="49.88" y2="296.05"></line><line class="link backbone" x1="49.88" y1="296.05" x2="51.23" y2="310.76"></line><line class="link label_link" x1="19.40" y1="211.54" x2="5.38" y2="204.77"></line><line class="link label_link" x1="-11.29" y1="81.54" x2="0.26" y2="90.69"></line><line class="link label_link" x1="74.59" y1="-14.81" x2="61.17" y2="-22.80"></line><line class="link label_link" x1="87.19" y1="20.00" x2="102.01" y2="24.86"></line><line class="link label_link" x1="43.64" y1="167.27" x2="59.33" y2="166.63"></line><line class="link label_link" x1="51.23" y1="310.76" x2="58.98" y2="324.20"></line><line class="link fake transparent" x1="3.78" y1="237.88" x2="14.44" y2="236.08"></line><line class="link fake transparent" x1="3.78" y1="237.88" x2="24.74" y2="232.66"></line><line class="link fake transparent" x1="12.39" y1="225.42" x2="14.44" y2="236.08"></line><line class="link fake transparent" x1="24.74" y1="232.66" x2="14.44" y2="236.08"></line><line class="link fake transparent" x1="15.20" y1="247.19" x2="14.44" y2="236.08"></line><line class="link fake transparent" x1="12.39" y1="225.42" x2="22.71" y2="221.91"></line><line class="link fake transparent" x1="19.40" y1="211.54" x2="22.71" y2="221.91"></line><line class="link fake transparent" x1="32.61" y1="217.34" x2="22.71" y2="221.91"></line><line class="link fake transparent" x1="24.74" y1="232.66" x2="22.71" y2="221.91"></line><line class="link fake transparent" x1="19.40" y1="211.54" x2="29.33" y2="206.95"></line><line class="link fake transparent" x1="24.76" y1="197.14" x2="29.33" y2="206.95"></line><line class="link fake transparent" x1="38.59" y1="201.24" x2="29.33" y2="206.95"></line><line class="link fake transparent" x1="32.61" y1="217.34" x2="29.33" y2="206.95"></line><line class="link fake transparent" x1="24.76" y1="197.14" x2="34.05" y2="191.39"></line><line class="link fake transparent" x1="28.03" y1="182.30" x2="34.05" y2="191.39"></line><line class="link fake transparent" x1="42.33" y1="184.36" x2="34.05" y2="191.39"></line><line class="link fake transparent" x1="38.59" y1="201.24" x2="34.05" y2="191.39"></line><line class="link fake transparent" x1="28.03" y1="182.30" x2="36.35" y2="175.32"></line><line class="link fake transparent" x1="29.11" y1="167.14" x2="36.35" y2="175.32"></line><line class="link fake transparent" x1="43.64" y1="167.27" x2="36.35" y2="175.32"></line><line class="link fake transparent" x1="42.33" y1="184.36" x2="36.35" y2="175.32"></line><line class="link fake transparent" x1="29.11" y1="167.14" x2="36.42" y2="159.14"></line><line class="link fake transparent" x1="28.29" y1="151.87" x2="36.42" y2="159.14"></line><line class="link fake transparent" x1="42.68" y1="150.31" x2="36.42" y2="159.14"></line><line class="link fake transparent" x1="43.64" y1="167.27" x2="36.42" y2="159.14"></line><line class="link fake transparent" x1="28.29" y1="151.87" x2="34.59" y2="143.01"></line><line class="link fake transparent" x1="25.88" y1="136.49" x2="34.59" y2="143.01"></line><line class="link fake transparent" x1="39.97" y1="133.52" x2="34.59" y2="143.01"></line><line class="link fake transparent" x1="42.68" y1="150.31" x2="34.59" y2="143.01"></line><line class="link fake transparent" x1="25.88" y1="136.49" x2="31.27" y2="127.00"></line><line class="link fake transparent" x1="21.88" y1="121.56" x2="31.27" y2="127.00"></line><line class="link fake transparent" x1="35.42" y1="116.85" x2="31.27" y2="127.00"></line><line class="link fake transparent" x1="39.97" y1="133.52" x2="31.27" y2="127.00"></line><line class="link fake transparent" x1="21.88" y1="121.56" x2="25.99" y2="111.51"></line><line class="link fake transparent" x1="15.80" y1="108.13" x2="25.99" y2="111.51"></line><line class="link fake transparent" x1="28.49" y1="100.58" x2="25.99" y2="111.51"></line><line class="link fake transparent" x1="35.42" y1="116.85" x2="25.99" y2="111.51"></line><line class="link fake transparent" x1="25.30" y1="71.49" x2="35.85" y2="73.51"></line><line class="link fake transparent" x1="36.94" y1="62.71" x2="35.85" y2="73.51"></line><line class="link fake transparent" x1="46.70" y1="73.25" x2="35.85" y2="73.51"></line><line class="link fake transparent" x1="32.72" y1="84.25" x2="35.85" y2="73.51"></line><line class="link fake transparent" x1="36.94" y1="62.71" x2="47.80" y2="62.34"></line><line class="link fake transparent" x1="47.06" y1="51.53" x2="47.80" y2="62.34"></line><line class="link fake transparent" x1="58.48" y1="60.35" x2="47.80" y2="62.34"></line><line class="link fake transparent" x1="46.70" y1="73.25" x2="47.80" y2="62.34"></line><line class="link fake transparent" x1="47.06" y1="51.53" x2="57.76" y2="49.49"></line><line class="link fake transparent" x1="55.36" y1="38.81" x2="57.76" y2="49.49"></line><line class="link fake transparent" x1="67.97" y1="45.74" x2="57.76" y2="49.49"></line><line class="link fake transparent" x1="58.48" y1="60.35" x2="57.76" y2="49.49"></line><line class="link fake transparent" x1="55.36" y1="38.81" x2="65.56" y2="35.16"></line><line class="link fake transparent" x1="61.65" y1="24.92" x2="65.56" y2="35.16"></line><line class="link fake transparent" x1="75.32" y1="30.23" x2="65.56" y2="35.16"></line><line class="link fake transparent" x1="67.97" y1="45.74" x2="65.56" y2="35.16"></line><line class="link fake transparent" x1="70.23" y1="0.21" x2="79.64" y2="-5.21"></line><line class="link fake transparent" x1="74.59" y1="-14.81" x2="79.64" y2="-5.21"></line><line class="link fake transparent" x1="88.66" y1="-11.11" x2="79.64" y2="-5.21"></line><line class="link fake transparent" x1="84.22" y1="4.72" x2="79.64" y2="-5.21"></line><line class="link fake transparent" x1="74.59" y1="-14.81" x2="83.63" y2="-20.77"></line><line class="link fake transparent" x1="78.30" y1="-30.18" x2="83.63" y2="-20.77"></line><line class="link fake transparent" x1="92.52" y1="-26.82" x2="83.63" y2="-20.77"></line><line class="link fake transparent" x1="88.66" y1="-11.11" x2="83.63" y2="-20.77"></line><line class="link fake transparent" x1="78.30" y1="-30.18" x2="87.20" y2="-36.26"></line><line class="link fake transparent" x1="81.50" y1="-45.43" x2="87.20" y2="-36.26"></line><line class="link fake transparent" x1="96.18" y1="-42.20" x2="87.20" y2="-36.26"></line><line class="link fake transparent" x1="92.52" y1="-26.82" x2="87.20" y2="-36.26"></line><line class="link fake transparent" x1="23.88" y1="297.85" x2="25.38" y2="287.23"></line><line class="link fake transparent" x1="14.79" y1="285.46" x2="25.38" y2="287.23"></line><line class="link fake transparent" x1="26.33" y1="276.40" x2="25.38" y2="287.23"></line><line class="link fake transparent" x1="36.02" y1="289.17" x2="25.38" y2="287.23"></line><line class="link fake transparent" x1="14.79" y1="285.46" x2="15.72" y2="274.74"></line><line class="link fake transparent" x1="5.05" y1="273.97" x2="15.72" y2="274.74"></line><line class="link fake transparent" x1="15.69" y1="263.67" x2="15.72" y2="274.74"></line><line class="link fake transparent" x1="26.33" y1="276.40" x2="15.72" y2="274.74"></line><line class="link fake transparent" x1="23.88" y1="297.85" x2="37.48" y2="304.27"></line><line class="link fake transparent" x1="23.88" y1="297.85" x2="51.23" y2="310.76"></line><line class="link fake transparent" x1="36.02" y1="289.17" x2="37.48" y2="304.27"></line><line class="link fake transparent" x1="36.02" y1="289.17" x2="38.94" y2="319.59"></line><line class="link fake transparent" x1="49.88" y1="296.05" x2="37.48" y2="304.27"></line><line class="link fake transparent" x1="49.88" y1="296.05" x2="26.29" y2="316.15"></line><line class="link fake transparent" x1="51.23" y1="310.76" x2="37.48" y2="304.27"></line><line class="link fake transparent" x1="51.23" y1="310.76" x2="23.88" y2="297.85"></line><line class="link fake transparent" x1="81.50" y1="-45.43" x2="91.12" y2="-54.25"></line><line class="link fake transparent" x1="81.50" y1="-45.43" x2="93.90" y2="-67.06"></line><line class="link fake transparent" x1="79.87" y1="-61.02" x2="91.12" y2="-54.25"></line><line class="link fake transparent" x1="79.87" y1="-61.02" x2="104.14" y2="-55.72"></line><line class="link fake transparent" x1="93.90" y1="-67.06" x2="91.12" y2="-54.25"></line><line class="link fake transparent" x1="93.90" y1="-67.06" x2="96.18" y2="-42.20"></line><line class="link fake transparent" x1="104.14" y1="-55.72" x2="91.12" y2="-54.25"></line><line class="link fake transparent" x1="104.14" y1="-55.72" x2="81.50" y2="-45.43"></line><line class="link fake transparent" x1="96.18" y1="-42.20" x2="91.12" y2="-54.25"></line><line class="link fake transparent" x1="96.18" y1="-42.20" x2="79.87" y2="-61.02"></line><line class="link fake transparent" x1="15.80" y1="108.13" x2="10.43" y2="87.18"></line><line class="link fake transparent" x1="15.80" y1="108.13" x2="-2.94" y2="69.11"></line><line class="link fake transparent" x1="0.52" y1="107.19" x2="10.43" y2="87.18"></line><line class="link fake transparent" x1="0.52" y1="107.19" x2="11.52" y2="64.84"></line><line class="link fake transparent" x1="-10.15" y1="96.56" x2="10.43" y2="87.18"></line><line class="link fake transparent" x1="-10.15" y1="96.56" x2="25.30" y2="71.49"></line><line class="link fake transparent" x1="-11.29" y1="81.54" x2="10.43" y2="87.18"></line><line class="link fake transparent" x1="-11.29" y1="81.54" x2="32.72" y2="84.25"></line><line class="link fake transparent" x1="-2.94" y1="69.11" x2="10.43" y2="87.18"></line><line class="link fake transparent" x1="-2.94" y1="69.11" x2="28.49" y2="100.58"></line><line class="link fake transparent" x1="11.52" y1="64.84" x2="10.43" y2="87.18"></line><line class="link fake transparent" x1="11.52" y1="64.84" x2="15.80" y2="108.13"></line><line class="link fake transparent" x1="25.30" y1="71.49" x2="10.43" y2="87.18"></line><line class="link fake transparent" x1="25.30" y1="71.49" x2="0.52" y2="107.19"></line><line class="link fake transparent" x1="32.72" y1="84.25" x2="10.43" y2="87.18"></line><line class="link fake transparent" x1="32.72" y1="84.25" x2="-10.15" y2="96.56"></line><line class="link fake transparent" x1="28.49" y1="100.58" x2="10.43" y2="87.18"></line><line class="link fake transparent" x1="28.49" y1="100.58" x2="-11.29" y2="81.54"></line><line class="link fake transparent" x1="61.65" y1="24.92" x2="73.09" y2="15.08"></line><line class="link fake transparent" x1="61.65" y1="24.92" x2="84.22" y2="4.72"></line><line class="link fake transparent" x1="58.76" y1="10.02" x2="73.09" y2="15.08"></line><line class="link fake transparent" x1="58.76" y1="10.02" x2="87.19" y2="20.00"></line><line class="link fake transparent" x1="70.23" y1="0.21" x2="73.09" y2="15.08"></line><line class="link fake transparent" x1="70.23" y1="0.21" x2="75.32" y2="30.23"></line><line class="link fake transparent" x1="84.22" y1="4.72" x2="73.09" y2="15.08"></line><line class="link fake transparent" x1="84.22" y1="4.72" x2="61.65" y2="24.92"></line><line class="link fake transparent" x1="87.19" y1="20.00" x2="73.09" y2="15.08"></line><line class="link fake transparent" x1="87.19" y1="20.00" x2="58.76" y2="10.02"></line><line class="link fake transparent" x1="75.32" y1="30.23" x2="73.09" y2="15.08"></line><line class="link fake transparent" x1="75.32" y1="30.23" x2="70.23" y2="0.21"></line><line class="link fake transparent" x1="5.05" y1="273.97" x2="-2.62" y2="256.16"></line><line class="link fake transparent" x1="5.05" y1="273.97" x2="-11.41" y2="238.35"></line><line class="link fake transparent" x1="-10.04" y1="274.67" x2="-2.62" y2="256.16"></line><line class="link fake transparent" x1="-10.04" y1="274.67" x2="3.78" y2="237.88"></line><line class="link fake transparent" x1="-20.66" y1="264.21" x2="-2.62" y2="256.16"></line><line class="link fake transparent" x1="-20.66" y1="264.21" x2="15.20" y2="247.19"></line><line class="link fake transparent" x1="-21.30" y1="249.53" x2="-2.62" y2="256.16"></line><line class="link fake transparent" x1="-21.30" y1="249.53" x2="15.69" y2="263.67"></line><line class="link fake transparent" x1="-11.41" y1="238.35" x2="-2.62" y2="256.16"></line><line class="link fake transparent" x1="-11.41" y1="238.35" x2="5.05" y2="273.97"></line><line class="link fake transparent" x1="3.78" y1="237.88" x2="-2.62" y2="256.16"></line><line class="link fake transparent" x1="3.78" y1="237.88" x2="-10.04" y2="274.67"></line><line class="link fake transparent" x1="15.20" y1="247.19" x2="-2.62" y2="256.16"></line><line class="link fake transparent" x1="15.20" y1="247.19" x2="-20.66" y2="264.21"></line><line class="link fake transparent" x1="15.69" y1="263.67" x2="-2.62" y2="256.16"></line><line class="link fake transparent" x1="15.69" y1="263.67" x2="-21.30" y2="249.53"></line></g><g><g class="noselect gnode" struct_name="m" transform="translate(23.88,297.85)" r="6.5"><circle class="node" r="6" node_type="nucleotide" style="fill: lightgreen;"></circle><text text-anchor="middle" font-size="8" font-weight="bold" y="2.5" class="node-label">C</text></g><g class="noselect gnode" struct_name="m" transform="translate(14.79,285.46)" r="6.5"><circle class="node" r="6" node_type="nucleotide" style="fill: lightgreen;"></circle><text text-anchor="middle" font-size="8" font-weight="bold" y="2.5" class="node-label">A</text></g><g class="noselect gnode" struct_name="m" transform="translate(5.05,273.97)" r="6.5"><circle class="node" r="6" node_type="nucleotide" style="fill: lightgreen;"></circle><text text-anchor="middle" font-size="8" font-weight="bold" y="2.5" class="node-label">G</text></g><g class="noselect gnode" struct_name="m" transform="translate(-10.04,274.67)" r="6.5"><circle class="node" r="6" node_type="nucleotide" style="fill: rgb(219, 219, 141);"></circle><text text-anchor="middle" font-size="8" font-weight="bold" y="2.5" class="node-label">U</text></g><g class="noselect gnode" struct_name="m" transform="translate(-20.66,264.21)" r="6.5"><circle class="node" r="6" node_type="nucleotide" style="fill: rgb(219, 219, 141);"></circle><text text-anchor="middle" font-size="8" font-weight="bold" y="2.5" class="node-label">A</text></g><g class="noselect gnode" struct_name="m" transform="translate(-21.30,249.53)" r="6.5"><circle class="node" r="6" node_type="nucleotide" style="fill: rgb(219, 219, 141);"></circle><text text-anchor="middle" font-size="8" font-weight="bold" y="2.5" class="node-label">C</text></g><g class="noselect gnode" struct_name="m" transform="translate(-11.41,238.35)" r="6.5"><circle class="node" r="6" node_type="nucleotide" style="fill: rgb(219, 219, 141);"></circle><text text-anchor="middle" font-size="8" font-weight="bold" y="2.5" class="node-label">A</text></g><g class="noselect gnode" struct_name="m" transform="translate(3.78,237.88)" r="6.5"><circle class="node" r="6" node_type="nucleotide" style="fill: lightgreen;"></circle><text text-anchor="middle" font-size="8" font-weight="bold" y="2.5" class="node-label">G</text></g><g class="noselect gnode" struct_name="m" transform="translate(12.39,225.42)" r="6.5"><circle class="node" r="6" node_type="nucleotide" style="fill: lightgreen;"></circle><text text-anchor="middle" font-size="8" font-weight="bold" y="2.5" class="node-label">C</text></g><g class="noselect gnode" struct_name="m" transform="translate(19.40,211.54)" r="6.5"><circle class="node" r="6" node_type="nucleotide" style="fill: lightgreen;"></circle><text text-anchor="middle" font-size="8" font-weight="bold" y="2.5" class="node-label">U</text></g><g class="noselect gnode" struct_name="m" transform="translate(24.76,197.14)" r="6.5"><circle class="node" r="6" node_type="nucleotide" style="fill: lightgreen;"></circle><text text-anchor="middle" font-size="8" font-weight="bold" y="2.5" class="node-label">A</text></g><g class="noselect gnode" struct_name="m" transform="translate(28.03,182.30)" r="6.5"><circle class="node" r="6" node_type="nucleotide" style="fill: lightgreen;"></circle><text text-anchor="middle" font-size="8" font-weight="bold" y="2.5" class="node-label">C</text></g><g class="noselect gnode" struct_name="m" transform="translate(29.11,167.14)" r="6.5"><circle class="node" r="6" node_type="nucleotide" style="fill: lightgreen;"></circle><text text-anchor="middle" font-size="8" font-weight="bold" y="2.5" class="node-label">U</text></g><g class="noselect gnode" struct_name="m" transform="translate(28.29,151.87)" r="6.5"><circle class="node" r="6" node_type="nucleotide" style="fill: lightgreen;"></circle><text text-anchor="middle" font-size="8" font-weight="bold" y="2.5" class="node-label">U</text></g><g class="noselect gnode" struct_name="m" transform="translate(25.88,136.49)" r="6.5"><circle class="node" r="6" node_type="nucleotide" style="fill: lightgreen;"></circle><text text-anchor="middle" font-size="8" font-weight="bold" y="2.5" class="node-label">C</text></g><g class="noselect gnode" struct_name="m" transform="translate(21.88,121.56)" r="6.5"><circle class="node" r="6" node_type="nucleotide" style="fill: lightgreen;"></circle><text text-anchor="middle" font-size="8" font-weight="bold" y="2.5" class="node-label">C</text></g><g class="noselect gnode" struct_name="m" transform="translate(15.80,108.13)" r="6.5"><circle class="node" r="6" node_type="nucleotide" style="fill: lightgreen;"></circle><text text-anchor="middle" font-size="8" font-weight="bold" y="2.5" class="node-label">A</text></g><g class="noselect gnode" struct_name="m" transform="translate(0.52,107.19)" r="6.5"><circle class="node" r="6" node_type="nucleotide" style="fill: rgb(219, 219, 141);"></circle><text text-anchor="middle" font-size="8" font-weight="bold" y="2.5" class="node-label">A</text></g><g class="noselect gnode" struct_name="m" transform="translate(-10.15,96.56)" r="6.5"><circle class="node" r="6" node_type="nucleotide" style="fill: rgb(219, 219, 141);"></circle><text text-anchor="middle" font-size="8" font-weight="bold" y="2.5" class="node-label">U</text></g><g class="noselect gnode" struct_name="m" transform="translate(-11.29,81.54)" r="6.5"><circle class="node" r="6" node_type="nucleotide" style="fill: rgb(219, 219, 141);"></circle><text text-anchor="middle" font-size="8" font-weight="bold" y="2.5" class="node-label">A</text></g><g class="noselect gnode" struct_name="m" transform="translate(-2.94,69.11)" r="6.5"><circle class="node" r="6" node_type="nucleotide" style="fill: rgb(219, 219, 141);"></circle><text text-anchor="middle" font-size="8" font-weight="bold" y="2.5" class="node-label">U</text></g><g class="noselect gnode" struct_name="m" transform="translate(11.52,64.84)" r="6.5"><circle class="node" r="6" node_type="nucleotide" style="fill: rgb(219, 219, 141);"></circle><text text-anchor="middle" font-size="8" font-weight="bold" y="2.5" class="node-label">C</text></g><g class="noselect gnode" struct_name="m" transform="translate(25.30,71.49)" r="6.5"><circle class="node" r="6" node_type="nucleotide" style="fill: lightgreen;"></circle><text text-anchor="middle" font-size="8" font-weight="bold" y="2.5" class="node-label">C</text></g><g class="noselect gnode" struct_name="m" transform="translate(36.94,62.71)" r="6.5"><circle class="node" r="6" node_type="nucleotide" style="fill: lightgreen;"></circle><text text-anchor="middle" font-size="8" font-weight="bold" y="2.5" class="node-label">U</text></g><g class="noselect gnode" struct_name="m" transform="translate(47.06,51.53)" r="6.5"><circle class="node" r="6" node_type="nucleotide" style="fill: lightgreen;"></circle><text text-anchor="middle" font-size="8" font-weight="bold" y="2.5" class="node-label">G</text></g><g class="noselect gnode" struct_name="m" transform="translate(55.36,38.81)" r="6.5"><circle class="node" r="6" node_type="nucleotide" style="fill: lightgreen;"></circle><text text-anchor="middle" font-size="8" font-weight="bold" y="2.5" class="node-label">G</text></g><g class="noselect gnode" struct_name="m" transform="translate(61.65,24.92)" r="6.5"><circle class="node" r="6" node_type="nucleotide" style="fill: lightgreen;"></circle><text text-anchor="middle" font-size="8" font-weight="bold" y="2.5" class="node-label">G</text></g><g class="noselect gnode" struct_name="m" transform="translate(58.76,10.02)" r="6.5"><circle class="node" r="6" node_type="nucleotide" style="fill: rgb(219, 219, 141);"></circle><text text-anchor="middle" font-size="8" font-weight="bold" y="2.5" class="node-label">G</text></g><g class="noselect gnode" struct_name="m" transform="translate(70.23,0.21)" r="6.5"><circle class="node" r="6" node_type="nucleotide" style="fill: lightgreen;"></circle><text text-anchor="middle" font-size="8" font-weight="bold" y="2.5" class="node-label">C</text></g><g class="noselect gnode" struct_name="m" transform="translate(74.59,-14.81)" r="6.5"><circle class="node" r="6" node_type="nucleotide" style="fill: lightgreen;"></circle><text text-anchor="middle" font-size="8" font-weight="bold" y="2.5" class="node-label">U</text></g><g class="noselect gnode" struct_name="m" transform="translate(78.30,-30.18)" r="6.5"><circle class="node" r="6" node_type="nucleotide" style="fill: lightgreen;"></circle><text text-anchor="middle" font-size="8" font-weight="bold" y="2.5" class="node-label">C</text></g><g class="noselect gnode" struct_name="m" transform="translate(81.50,-45.43)" r="6.5"><circle class="node" r="6" node_type="nucleotide" style="fill: lightgreen;"></circle><text text-anchor="middle" font-size="8" font-weight="bold" y="2.5" class="node-label">C</text></g><g class="noselect gnode" struct_name="m" transform="translate(79.87,-61.02)" r="6.5"><circle class="node" r="6" node_type="nucleotide" style="fill: lightblue;"></circle><text text-anchor="middle" font-size="8" font-weight="bold" y="2.5" class="node-label">U</text></g><g class="noselect gnode" struct_name="m" transform="translate(93.90,-67.06)" r="6.5"><circle class="node" r="6" node_type="nucleotide" style="fill: lightblue;"></circle><text text-anchor="middle" font-size="8" font-weight="bold" y="2.5" class="node-label">G</text></g><g class="noselect gnode" struct_name="m" transform="translate(104.14,-55.72)" r="6.5"><circle class="node" r="6" node_type="nucleotide" style="fill: lightblue;"></circle><text text-anchor="middle" font-size="8" font-weight="bold" y="2.5" class="node-label">A</text></g><g class="noselect gnode" struct_name="m" transform="translate(96.18,-42.20)" r="6.5"><circle class="node" r="6" node_type="nucleotide" style="fill: lightgreen;"></circle><text text-anchor="middle" font-size="8" font-weight="bold" y="2.5" class="node-label">G</text></g><g class="noselect gnode" struct_name="m" transform="translate(92.52,-26.82)" r="6.5"><circle class="node" r="6" node_type="nucleotide" style="fill: lightgreen;"></circle><text text-anchor="middle" font-size="8" font-weight="bold" y="2.5" class="node-label">G</text></g><g class="noselect gnode" struct_name="m" transform="translate(88.66,-11.11)" r="6.5"><circle class="node" r="6" node_type="nucleotide" style="fill: lightgreen;"></circle><text text-anchor="middle" font-size="8" font-weight="bold" y="2.5" class="node-label">A</text></g><g class="noselect gnode" struct_name="m" transform="translate(84.22,4.72)" r="6.5"><circle class="node" r="6" node_type="nucleotide" style="fill: lightgreen;"></circle><text text-anchor="middle" font-size="8" font-weight="bold" y="2.5" class="node-label">G</text></g><g class="noselect gnode" struct_name="m" transform="translate(87.19,20.00)" r="6.5"><circle class="node" r="6" node_type="nucleotide" style="fill: rgb(219, 219, 141);"></circle><text text-anchor="middle" font-size="8" font-weight="bold" y="2.5" class="node-label">G</text></g><g class="noselect gnode" struct_name="m" transform="translate(75.32,30.23)" r="6.5"><circle class="node" r="6" node_type="nucleotide" style="fill: lightgreen;"></circle><text text-anchor="middle" font-size="8" font-weight="bold" y="2.5" class="node-label">C</text></g><g class="noselect gnode" struct_name="m" transform="translate(67.97,45.74)" r="6.5"><circle class="node" r="6" node_type="nucleotide" style="fill: lightgreen;"></circle><text text-anchor="middle" font-size="8" font-weight="bold" y="2.5" class="node-label">C</text></g><g class="noselect gnode" struct_name="m" transform="translate(58.48,60.35)" r="6.5"><circle class="node" r="6" node_type="nucleotide" style="fill: lightgreen;"></circle><text text-anchor="middle" font-size="8" font-weight="bold" y="2.5" class="node-label">C</text></g><g class="noselect gnode" struct_name="m" transform="translate(46.70,73.25)" r="6.5"><circle class="node" r="6" node_type="nucleotide" style="fill: lightgreen;"></circle><text text-anchor="middle" font-size="8" font-weight="bold" y="2.5" class="node-label">A</text></g><g class="noselect gnode" struct_name="m" transform="translate(32.72,84.25)" r="6.5"><circle class="node" r="6" node_type="nucleotide" style="fill: lightgreen;"></circle><text text-anchor="middle" font-size="8" font-weight="bold" y="2.5" class="node-label">G</text></g><g class="noselect gnode" struct_name="m" transform="translate(28.49,100.58)" r="6.5"><circle class="node" r="6" node_type="nucleotide" style="fill: lightgreen;"></circle><text text-anchor="middle" font-size="8" font-weight="bold" y="2.5" class="node-label">U</text></g><g class="noselect gnode" struct_name="m" transform="translate(35.42,116.85)" r="6.5"><circle class="node" r="6" node_type="nucleotide" style="fill: lightgreen;"></circle><text text-anchor="middle" font-size="8" font-weight="bold" y="2.5" class="node-label">G</text></g><g class="noselect gnode" struct_name="m" transform="translate(39.97,133.52)" r="6.5"><circle class="node" r="6" node_type="nucleotide" style="fill: lightgreen;"></circle><text text-anchor="middle" font-size="8" font-weight="bold" y="2.5" class="node-label">G</text></g><g class="noselect gnode" struct_name="m" transform="translate(42.68,150.31)" r="6.5"><circle class="node" r="6" node_type="nucleotide" style="fill: lightgreen;"></circle><text text-anchor="middle" font-size="8" font-weight="bold" y="2.5" class="node-label">G</text></g><g class="noselect gnode" struct_name="m" transform="translate(43.64,167.27)" r="6.5"><circle class="node" r="6" node_type="nucleotide" style="fill: lightgreen;"></circle><text text-anchor="middle" font-size="8" font-weight="bold" y="2.5" class="node-label">A</text></g><g class="noselect gnode" struct_name="m" transform="translate(42.33,184.36)" r="6.5"><circle class="node" r="6" node_type="nucleotide" style="fill: lightgreen;"></circle><text text-anchor="middle" font-size="8" font-weight="bold" y="2.5" class="node-label">G</text></g><g class="noselect gnode" struct_name="m" transform="translate(38.59,201.24)" r="6.5"><circle class="node" r="6" node_type="nucleotide" style="fill: lightgreen;"></circle><text text-anchor="middle" font-size="8" font-weight="bold" y="2.5" class="node-label">U</text></g><g class="noselect gnode" struct_name="m" transform="translate(32.61,217.34)" r="6.5"><circle class="node" r="6" node_type="nucleotide" style="fill: lightgreen;"></circle><text text-anchor="middle" font-size="8" font-weight="bold" y="2.5" class="node-label">G</text></g><g class="noselect gnode" struct_name="m" transform="translate(24.74,232.66)" r="6.5"><circle class="node" r="6" node_type="nucleotide" style="fill: lightgreen;"></circle><text text-anchor="middle" font-size="8" font-weight="bold" y="2.5" class="node-label">G</text></g><g class="noselect gnode" struct_name="m" transform="translate(15.20,247.19)" r="6.5"><circle class="node" r="6" node_type="nucleotide" style="fill: lightgreen;"></circle><text text-anchor="middle" font-size="8" font-weight="bold" y="2.5" class="node-label">C</text></g><g class="noselect gnode" struct_name="m" transform="translate(15.69,263.67)" r="6.5"><circle class="node" r="6" node_type="nucleotide" style="fill: lightgreen;"></circle><text text-anchor="middle" font-size="8" font-weight="bold" y="2.5" class="node-label">C</text></g><g class="noselect gnode" struct_name="m" transform="translate(26.33,276.40)" r="6.5"><circle class="node" r="6" node_type="nucleotide" style="fill: lightgreen;"></circle><text text-anchor="middle" font-size="8" font-weight="bold" y="2.5" class="node-label">U</text></g><g class="noselect gnode" struct_name="m" transform="translate(36.02,289.17)" r="6.5"><circle class="node" r="6" node_type="nucleotide" style="fill: lightgreen;"></circle><text text-anchor="middle" font-size="8" font-weight="bold" y="2.5" class="node-label">G</text></g><g class="noselect gnode" struct_name="m" transform="translate(49.88,296.05)" r="6.5"><circle class="node" r="6" node_type="nucleotide" style="fill: lightsalmon;"></circle><text text-anchor="middle" font-size="8" font-weight="bold" y="2.5" class="node-label">A</text></g><g class="noselect gnode" struct_name="m" transform="translate(51.23,310.76)" r="6.5"><circle class="node" r="6" node_type="nucleotide" style="fill: lightsalmon;"></circle><text text-anchor="middle" font-size="8" font-weight="bold" y="2.5" class="node-label">C</text></g><g class="noselect gnode" struct_name="m" transform="translate(5.38,204.77)" r="6.5"><circle class="node label" r="6" node_type="label"></circle><text text-anchor="middle" font-size="8" font-weight="bold" y="2.5" class="node-label">10</text></g><g class="noselect gnode" struct_name="m" transform="translate(0.26,90.69)" r="6.5"><circle class="node label" r="6" node_type="label"></circle><text text-anchor="middle" font-size="8" font-weight="bold" y="2.5" class="node-label">20</text></g><g class="noselect gnode" struct_name="m" transform="translate(61.17,-22.80)" r="6.5"><circle class="node label" r="6" node_type="label"></circle><text text-anchor="middle" font-size="8" font-weight="bold" y="2.5" class="node-label">30</text></g><g class="noselect gnode" struct_name="m" transform="translate(102.01,24.86)" r="6.5"><circle class="node label" r="6" node_type="label"></circle><text text-anchor="middle" font-size="8" font-weight="bold" y="2.5" class="node-label">40</text></g><g class="noselect gnode" struct_name="m" transform="translate(59.33,166.63)" r="6.5"><circle class="node label" r="6" node_type="label"></circle><text text-anchor="middle" font-size="8" font-weight="bold" y="2.5" class="node-label">50</text></g><g class="noselect gnode" struct_name="m" transform="translate(58.98,324.20)" r="6.5"><circle class="node label" r="6" node_type="label"></circle><text text-anchor="middle" font-size="8" font-weight="bold" y="2.5" class="node-label">60</text></g><g class="noselect gnode" transform="translate(14.44,236.08)" r="6.5"><circle class="node" r="0" node_type="middle"></circle><text text-anchor="middle" font-size="8" font-weight="bold" y="2.5" class="node-label"></text></g><g class="noselect gnode" transform="translate(22.71,221.91)" r="6.5"><circle class="node" r="0" node_type="middle"></circle><text text-anchor="middle" font-size="8" font-weight="bold" y="2.5" class="node-label"></text></g><g class="noselect gnode" transform="translate(29.33,206.95)" r="6.5"><circle class="node" r="0" node_type="middle"></circle><text text-anchor="middle" font-size="8" font-weight="bold" y="2.5" class="node-label"></text></g><g class="noselect gnode" transform="translate(34.05,191.39)" r="6.5"><circle class="node" r="0" node_type="middle"></circle><text text-anchor="middle" font-size="8" font-weight="bold" y="2.5" class="node-label"></text></g><g class="noselect gnode" transform="translate(36.35,175.32)" r="6.5"><circle class="node" r="0" node_type="middle"></circle><text text-anchor="middle" font-size="8" font-weight="bold" y="2.5" class="node-label"></text></g><g class="noselect gnode" transform="translate(36.42,159.14)" r="6.5"><circle class="node" r="0" node_type="middle"></circle><text text-anchor="middle" font-size="8" font-weight="bold" y="2.5" class="node-label"></text></g><g class="noselect gnode" transform="translate(34.59,143.01)" r="6.5"><circle class="node" r="0" node_type="middle"></circle><text text-anchor="middle" font-size="8" font-weight="bold" y="2.5" class="node-label"></text></g><g class="noselect gnode" transform="translate(31.27,127.00)" r="6.5"><circle class="node" r="0" node_type="middle"></circle><text text-anchor="middle" font-size="8" font-weight="bold" y="2.5" class="node-label"></text></g><g class="noselect gnode" transform="translate(25.99,111.51)" r="6.5"><circle class="node" r="0" node_type="middle"></circle><text text-anchor="middle" font-size="8" font-weight="bold" y="2.5" class="node-label"></text></g><g class="noselect gnode" transform="translate(35.85,73.51)" r="6.5"><circle class="node" r="0" node_type="middle"></circle><text text-anchor="middle" font-size="8" font-weight="bold" y="2.5" class="node-label"></text></g><g class="noselect gnode" transform="translate(47.80,62.34)" r="6.5"><circle class="node" r="0" node_type="middle"></circle><text text-anchor="middle" font-size="8" font-weight="bold" y="2.5" class="node-label"></text></g><g class="noselect gnode" transform="translate(57.76,49.49)" r="6.5"><circle class="node" r="0" node_type="middle"></circle><text text-anchor="middle" font-size="8" font-weight="bold" y="2.5" class="node-label"></text></g><g class="noselect gnode" transform="translate(65.56,35.16)" r="6.5"><circle class="node" r="0" node_type="middle"></circle><text text-anchor="middle" font-size="8" font-weight="bold" y="2.5" class="node-label"></text></g><g class="noselect gnode" transform="translate(79.64,-5.21)" r="6.5"><circle class="node" r="0" node_type="middle"></circle><text text-anchor="middle" font-size="8" font-weight="bold" y="2.5" class="node-label"></text></g><g class="noselect gnode" transform="translate(83.63,-20.77)" r="6.5"><circle class="node" r="0" node_type="middle"></circle><text text-anchor="middle" font-size="8" font-weight="bold" y="2.5" class="node-label"></text></g><g class="noselect gnode" transform="translate(87.20,-36.26)" r="6.5"><circle class="node" r="0" node_type="middle"></circle><text text-anchor="middle" font-size="8" font-weight="bold" y="2.5" class="node-label"></text></g><g class="noselect gnode" transform="translate(25.38,287.23)" r="6.5"><circle class="node" r="0" node_type="middle"></circle><text text-anchor="middle" font-size="8" font-weight="bold" y="2.5" class="node-label"></text></g><g class="noselect gnode" transform="translate(15.72,274.74)" r="6.5"><circle class="node" r="0" node_type="middle"></circle><text text-anchor="middle" font-size="8" font-weight="bold" y="2.5" class="node-label"></text></g><g class="noselect gnode" transform="translate(38.94,319.59)" r="6.5"><circle class="node" r="0" node_type="middle"></circle><text text-anchor="middle" font-size="8" font-weight="bold" y="2.5" class="node-label"></text></g><g class="noselect gnode" transform="translate(26.29,316.15)" r="6.5"><circle class="node" r="0" node_type="middle"></circle><text text-anchor="middle" font-size="8" font-weight="bold" y="2.5" class="node-label"></text></g><g class="noselect gnode" transform="translate(37.48,304.27)" r="6.5"><circle class="node" r="0" node_type="middle"></circle><text text-anchor="middle" font-size="8" font-weight="bold" y="2.5" class="node-label"></text></g><g class="noselect gnode" transform="translate(91.12,-54.25)" r="6.5"><circle class="node" r="0" node_type="middle"></circle><text text-anchor="middle" font-size="8" font-weight="bold" y="2.5" class="node-label"></text></g><g class="noselect gnode" transform="translate(10.43,87.18)" r="6.5"><circle class="node" r="0" node_type="middle"></circle><text text-anchor="middle" font-size="8" font-weight="bold" y="2.5" class="node-label"></text></g><g class="noselect gnode" transform="translate(73.09,15.08)" r="6.5"><circle class="node" r="0" node_type="middle"></circle><text text-anchor="middle" font-size="8" font-weight="bold" y="2.5" class="node-label"></text></g><g class="noselect gnode" transform="translate(-2.62,256.16)" r="6.5"><circle class="node" r="0" node_type="middle"></circle><text text-anchor="middle" font-size="8" font-weight="bold" y="2.5" class="node-label"></text></g></g><line class="drag_line" x1="0" y1="0" x2="0" y2="0"></line></g></g></svg>