<svg xmlns="http://www.w3.org/2000/svg" viewBox="0 0 760 640" width="760" height="640"><style>svg {
  display: block;
  min-width: 100%;
  width: 100%;
  min-height: 100%;
}

circle.node {
  stroke: #ccc;
  stroke-width: 1px;
  opacity: 1;
  fill: white;
}

circle.node.label {
    stroke: transparent;
    stroke-width: 0;
    fill: white;
}

circle.outline_node {
    stroke-width: 1px;
    fill: red;
}

circle.protein {
    fill: gray;
    fill-opacity: 0.5;
    stroke-width: 4;
}

circle.hidden_outline {
    stroke-width: 0px;
}


line.link {
  stroke: #999;
  stroke-opacity: 0.8;
  stroke-width: 2;
}

line.basepair {
  stroke: red;
}

line.intermolecule {
  stroke: blue;
}

line.chain_chain {
  stroke-dasharray: 3,3;
}

line.fake {
  stroke: green;
}

.transparent {
    fill: transparent;
    stroke-width: 0;
    stroke-opacity: 0;
    opacity: 0;
    visibility: hidden;
}

.drag_line {
  stroke: #999;
  stroke-width: 2;
  pointer-events: none;
}

.drag_line_hidden {
  stroke: #999;
  stroke-width: 0;
  pointer-events: none;
}

.d3-tip {
    line-height: 1;
    font-weight: bold;
    padding: 6px;
    background: rgba(0, 0, 0, 0.6);
    color: #fff;
    border-radius: 4px;
    pointer-events: none;
          }

text.node-label {
    font-weight: bold;
    font-family: Tahoma, Geneva, sans-serif;
    color: rgb(100,100,100);
    pointer-events: none;
}

text {
    pointer-events: none;
}

g.gnode {

}

circle.outline_node.selected {
    visibility: visible;
}

circle.outline_node {
    visibility: hidden;
}

.brush .extent {
  fill-opacity: .1;
  stroke: #fff;
  shape-rendering: crispEdges;
}

.noselect {
    -webkit-touch-callout: none;
    -webkit-user-select: none;
    -khtml-user-select: none;
    -moz-user-select: none;
    -ms-user-select: none;
    user-select: none;
}

svg {
  display: block;
  min-width: 100%;
  width: 100%;
  min-height: 100%;
}

circle.node {
  stroke: #ccc;
  stroke-width: 1px;
  opacity: 1;
  fill: white;
}

circle.node.label {
    stroke: transparent;
    stroke-width: 0;
    fill: white;
}

circle.outline_node {
    stroke-width: 1px;
    fill: red;
}

circle.protein {
    fill: gray;
    fill-opacity: 0.5;
    stroke-width: 4;
}

circle.hidden_outline {
    stroke-width: 0px;
}


line.link {
  stroke: #999;
  stroke-opacity: 0.8;
  stroke-width: 2;
}

line.basepair {
  stroke: red;
}

line.intermolecule {
  stroke: blue;
}

line.chain_chain {
  stroke-dasharray: 3,3;
}

line.fake {
  stroke: green;
}

.transparent {
    fill: transparent;
    stroke-width: 0;
    stroke-opacity: 0;
    opacity: 0;
    visibility: hidden;
}

.drag_line {
  stroke: #999;
  stroke-width: 2;
  pointer-events: none;
}

.drag_line_hidden {
  stroke: #999;
  stroke-width: 0;
  pointer-events: none;
}

.d3-tip {
    line-height: 1;
    font-weight: bold;
    padding: 6px;
    background: rgba(0, 0, 0, 0.6);
    color: #fff;
    border-radius: 4px;
    pointer-events: none;
          }

text.node-label {
    font-weight: bold;
    font-family: Tahoma, Geneva, sans-serif;
    color: rgb(100,100,100);
    pointer-events: none;
}

text {
    pointer-events: none;
}

g.gnode {

}

circle.outline_node.selected {
    visibility: visible;
}

circle.outline_node {
    visibility: hidden;
}

.brush .extent {
  fill-opacity: .1;
  stroke: #fff;
  shape-rendering: crispEdges;
}

.noselect {
    -webkit-touch-callout: none;
    -webkit-user-select: none;
    -khtml-user-select: none;
    -moz-user-select: none;
    -ms-user-select: none;
    user-select: none;
}
/*# sourceURL=/Users/yumanakamura/ipy_sandbox/sandbox/claude_sandbox/mrna-transformer/scripts/eval/prerender/forna_vendor/fornac.css*/</style><style></style><g><g class="brush" style="pointer-events: all; -webkit-tap-highlight-color: rgba(0, 0, 0, 0);"><rect class="background" x="0" width="760" y="0" height="640" style="visibility: hidden; cursor: auto;"></rect><rect class="extent" x="0" width="0" y="0" height="0" style="cursor: move;"></rect><g class="resize n" transform="translate(0,0)" style="cursor: ns-resize; display: none;"><rect y="-3" width="0" height="6" style="visibility: hidden;"></rect></g><g class="resize e" transform="translate(0,0)" style="cursor: ew-resize; display: none;"><rect x="-3" width="6" height="0" style="visibility: hidden;"></rect></g><g class="resize s" transform="translate(0,0)" style="cursor: ns-resize; display: none;"><rect y="-3" width="0" height="6" style="visibility: hidden;"></rect></g><g class="resize w" transform="translate(0,0)" style="cursor: ew-resize; display: none;"><rect x="-3" width="6" height="0" style="visibility: hidden;"></rect></g><g class="resize nw" transform="translate(0,0)" style="cursor: nwse-resize; display: none;"><rect x="-3" y="-3" width="6" height="6" style="visibility: hidden;"></rect></g><g class="resize ne" transform="translate(0,0)" style="cursor: nesw-resize; display: none;"><rect x="-3" y="-3" width="6" height="6" style="visibility: hidden;"></rect></g><g class="resize se" transform="translate(0,0)" style="cursor: nwse-resize; display: none;"><rect x="-3" y="-3" width="6" height="6" style="visibility: hidden;"></rect></g><g class="resize sw" transform="translate(0,0)" style="cursor: nesw-resize; display: none;"><rect x="-3" y="-3" width="6" height="6" style="visibility: hidden;"></rect></g></g><g transform="translate(314.95,186.91) scale(1.24)"><g><line class="link basepair" x1="83.45" y1="284.75" x2="97.81" y2="280.45"></line><line class="link basepair" x1="78.99" y1="269.77" x2="93.11" y2="265.55"></line><line class="link backbone" x1="83.45" y1="284.75" x2="78.99" y2="269.77"></line><line class="link basepair" x1="74.56" y1="254.39" x2="88.76" y2="250.56"></line><line class="link backbone" x1="78.99" y1="269.77" x2="74.56" y2="254.39"></line><line class="link basepair" x1="70.68" y1="238.62" x2="85.01" y2="235.54"></line><line class="link backbone" x1="74.56" y1="254.39" x2="70.68" y2="238.62"></line><line class="link basepair" x1="67.78" y1="222.38" x2="82.25" y2="220.38"></line><line class="link backbone" x1="70.68" y1="238.62" x2="67.78" y2="222.38"></line><line class="link basepair" x1="66.24" y1="205.75" x2="80.84" y2="205.15"></line><line class="link backbone" x1="67.78" y1="222.38" x2="66.24" y2="205.75"></line><line class="link basepair" x1="66.53" y1="188.92" x2="81.04" y2="190.01"></line><line class="link backbone" x1="66.24" y1="205.75" x2="66.53" y2="188.92"></line><line class="link basepair" x1="68.73" y1="172.13" x2="83.25" y2="175.28"></line><line class="link backbone" x1="66.53" y1="188.92" x2="68.73" y2="172.13"></line><line class="link basepair" x1="67.91" y1="155.31" x2="82.02" y2="150.64"></line><line class="link backbone" x1="68.73" y1="172.13" x2="67.91" y2="155.31"></line><line class="link basepair" x1="63.85" y1="139.14" x2="78.19" y2="136.11"></line><line class="link backbone" x1="67.91" y1="155.31" x2="63.85" y2="139.14"></line><line class="link basepair" x1="61.16" y1="122.91" x2="75.64" y2="120.97"></line><line class="link backbone" x1="63.85" y1="139.14" x2="61.16" y2="122.91"></line><line class="link basepair" x1="59.34" y1="106.65" x2="74.22" y2="105.70"></line><line class="link backbone" x1="61.16" y1="122.91" x2="59.34" y2="106.65"></line><line class="link basepair" x1="53.69" y1="91.22" x2="65.69" y2="82.34"></line><line class="link backbone" x1="59.34" y1="106.65" x2="53.69" y2="91.22"></line><line class="link basepair" x1="44.62" y1="77.71" x2="56.92" y2="69.81"></line><line class="link backbone" x1="53.69" y1="91.22" x2="44.62" y2="77.71"></line><line class="link basepair" x1="36.18" y1="63.71" x2="48.78" y2="56.41"></line><line class="link backbone" x1="44.62" y1="77.71" x2="36.18" y2="63.71"></line><line class="link basepair" x1="28.19" y1="49.98" x2="41.06" y2="42.47"></line><line class="link backbone" x1="36.18" y1="63.71" x2="28.19" y2="49.98"></line><line class="link backbone" x1="28.19" y1="49.98" x2="16.36" y2="39.99"></line><line class="link basepair" x1="22.47" y1="25.68" x2="37.30" y2="26.52"></line><line class="link backbone" x1="16.36" y1="39.99" x2="22.47" y2="25.68"></line><line class="link basepair" x1="23.03" y1="10.18" x2="37.49" y2="10.04"></line><line class="link backbone" x1="22.47" y1="25.68" x2="23.03" y2="10.18"></line><line class="link basepair" x1="22.21" y1="-5.33" x2="37.00" y2="-6.52"></line><line class="link backbone" x1="23.03" y1="10.18" x2="22.21" y2="-5.33"></line><line class="link backbone" x1="22.21" y1="-5.33" x2="8.95" y2="-12.60"></line><line class="link backbone" x1="8.95" y1="-12.60" x2="2.44" y2="-26.04"></line><line class="link backbone" x1="2.44" y1="-26.04" x2="5.34" y2="-40.75"></line><line class="link basepair" x1="16.43" y1="-50.93" x2="31.06" y2="-53.47"></line><line class="link backbone" x1="5.34" y1="-40.75" x2="16.43" y2="-50.93"></line><line class="link basepair" x1="13.33" y1="-65.94" x2="27.56" y2="-69.42"></line><line class="link backbone" x1="16.43" y1="-50.93" x2="13.33" y2="-65.94"></line><line class="link basepair" x1="9.14" y1="-80.71" x2="23.45" y2="-84.92"></line><line class="link backbone" x1="13.33" y1="-65.94" x2="9.14" y2="-80.71"></line><line class="link backbone" x1="9.14" y1="-80.71" x2="-2.00" y2="-91.19"></line><line class="link backbone" x1="-2.00" y1="-91.19" x2="1.49" y2="-105.72"></line><line class="link backbone" x1="1.49" y1="-105.72" x2="15.79" y2="-110.11"></line><line class="link backbone" x1="15.79" y1="-110.11" x2="26.84" y2="-99.94"></line><line class="link basepair" x1="23.45" y1="-84.92" x2="9.14" y2="-80.71"></line><line class="link backbone" x1="26.84" y1="-99.94" x2="23.45" y2="-84.92"></line><line class="link basepair" x1="27.56" y1="-69.42" x2="13.33" y2="-65.94"></line><line class="link backbone" x1="23.45" y1="-84.92" x2="27.56" y2="-69.42"></line><line class="link basepair" x1="31.06" y1="-53.47" x2="16.43" y2="-50.93"></line><line class="link backbone" x1="27.56" y1="-69.42" x2="31.06" y2="-53.47"></line><line class="link backbone" x1="31.06" y1="-53.47" x2="44.52" y2="-45.87"></line><line class="link backbone" x1="44.52" y1="-45.87" x2="50.75" y2="-32.16"></line><line class="link backbone" x1="50.75" y1="-32.16" x2="48.10" y2="-17.41"></line><line class="link basepair" x1="37.00" y1="-6.52" x2="22.21" y2="-5.33"></line><line class="link backbone" x1="48.10" y1="-17.41" x2="37.00" y2="-6.52"></line><line class="link basepair" x1="37.49" y1="10.04" x2="23.03" y2="10.18"></line><line class="link backbone" x1="37.00" y1="-6.52" x2="37.49" y2="10.04"></line><line class="link basepair" x1="37.30" y1="26.52" x2="22.47" y2="25.68"></line><line class="link backbone" x1="37.49" y1="10.04" x2="37.30" y2="26.52"></line><line class="link basepair" x1="41.06" y1="42.47" x2="28.19" y2="49.98"></line><line class="link backbone" x1="37.30" y1="26.52" x2="41.06" y2="42.47"></line><line class="link basepair" x1="48.78" y1="56.41" x2="36.18" y2="63.71"></line><line class="link backbone" x1="41.06" y1="42.47" x2="48.78" y2="56.41"></line><line class="link basepair" x1="56.92" y1="69.81" x2="44.62" y2="77.71"></line><line class="link backbone" x1="48.78" y1="56.41" x2="56.92" y2="69.81"></line><line class="link basepair" x1="65.69" y1="82.34" x2="53.69" y2="91.22"></line><line class="link backbone" x1="56.92" y1="69.81" x2="65.69" y2="82.34"></line><line class="link backbone" x1="65.69" y1="82.34" x2="78.57" y2="90.86"></line><line class="link basepair" x1="74.22" y1="105.70" x2="59.34" y2="106.65"></line><line class="link backbone" x1="78.57" y1="90.86" x2="74.22" y2="105.70"></line><line class="link basepair" x1="75.64" y1="120.97" x2="61.16" y2="122.91"></line><line class="link backbone" x1="74.22" y1="105.70" x2="75.64" y2="120.97"></line><line class="link basepair" x1="78.19" y1="136.11" x2="63.85" y2="139.14"></line><line class="link backbone" x1="75.64" y1="120.97" x2="78.19" y2="136.11"></line><line class="link basepair" x1="82.02" y1="150.64" x2="67.91" y2="155.31"></line><line class="link backbone" x1="78.19" y1="136.11" x2="82.02" y2="150.64"></line><line class="link backbone" x1="82.02" y1="150.64" x2="91.69" y2="162.48"></line><line class="link basepair" x1="83.25" y1="175.28" x2="68.73" y2="172.13"></line><line class="link backbone" x1="91.69" y1="162.48" x2="83.25" y2="175.28"></line><line class="link basepair" x1="81.04" y1="190.01" x2="66.53" y2="188.92"></line><line class="link backbone" x1="83.25" y1="175.28" x2="81.04" y2="190.01"></line><line class="link basepair" x1="80.84" y1="205.15" x2="66.24" y2="205.75"></line><line class="link backbone" x1="81.04" y1="190.01" x2="80.84" y2="205.15"></line><line class="link basepair" x1="82.25" y1="220.38" x2="67.78" y2="222.38"></line><line class="link backbone" x1="80.84" y1="205.15" x2="82.25" y2="220.38"></line><line class="link basepair" x1="85.01" y1="235.54" x2="70.68" y2="238.62"></line><line class="link backbone" x1="82.25" y1="220.38" x2="85.01" y2="235.54"></line><line class="link basepair" x1="88.76" y1="250.56" x2="74.56" y2="254.39"></line><line class="link backbone" x1="85.01" y1="235.54" x2="88.76" y2="250.56"></line><line class="link basepair" x1="93.11" y1="265.55" x2="78.99" y2="269.77"></line><line class="link backbone" x1="88.76" y1="250.56" x2="93.11" y2="265.55"></line><line class="link basepair" x1="97.81" y1="280.45" x2="83.45" y2="284.75"></line><line class="link backbone" x1="93.11" y1="265.55" x2="97.81" y2="280.45"></line><line class="link backbone" x1="97.81" y1="280.45" x2="110.32" y2="289.36"></line><line class="link backbone" x1="110.32" y1="289.36" x2="111.77" y2="304.16"></line><line class="link backbone" x1="111.77" y1="304.16" x2="101.28" y2="314.79"></line><line class="link label_link" x1="63.85" y1="139.14" x2="48.31" y2="140.76"></line><line class="link label_link" x1="22.21" y1="-5.33" x2="7.36" y2="-0.72"></line><line class="link label_link" x1="26.84" y1="-99.94" x2="37.83" y2="-110.83"></line><line class="link label_link" x1="41.06" y1="42.47" x2="55.55" y2="36.87"></line><line class="link label_link" x1="83.25" y1="175.28" x2="98.81" y2="176.08"></line><line class="link label_link" x1="101.28" y1="314.79" x2="100.42" y2="330.21"></line><line class="link fake transparent" x1="67.91" y1="155.31" x2="72.63" y2="145.45"></line><line class="link fake transparent" x1="67.91" y1="155.31" x2="78.19" y2="136.11"></line><line class="link fake transparent" x1="63.85" y1="139.14" x2="72.63" y2="145.45"></line><line class="link fake transparent" x1="78.19" y1="136.11" x2="72.63" y2="145.45"></line><line class="link fake transparent" x1="82.02" y1="150.64" x2="72.63" y2="145.45"></line><line class="link fake transparent" x1="63.85" y1="139.14" x2="69.46" y2="129.87"></line><line class="link fake transparent" x1="61.16" y1="122.91" x2="69.46" y2="129.87"></line><line class="link fake transparent" x1="75.64" y1="120.97" x2="69.46" y2="129.87"></line><line class="link fake transparent" x1="78.19" y1="136.11" x2="69.46" y2="129.87"></line><line class="link fake transparent" x1="61.16" y1="122.91" x2="67.36" y2="114.04"></line><line class="link fake transparent" x1="59.34" y1="106.65" x2="67.36" y2="114.04"></line><line class="link fake transparent" x1="74.22" y1="105.70" x2="67.36" y2="114.04"></line><line class="link fake transparent" x1="75.64" y1="120.97" x2="67.36" y2="114.04"></line><line class="link fake transparent" x1="53.69" y1="91.22" x2="55.08" y2="80.45"></line><line class="link fake transparent" x1="44.62" y1="77.71" x2="55.08" y2="80.45"></line><line class="link fake transparent" x1="56.92" y1="69.81" x2="55.08" y2="80.45"></line><line class="link fake transparent" x1="65.69" y1="82.34" x2="55.08" y2="80.45"></line><line class="link fake transparent" x1="44.62" y1="77.71" x2="46.45" y2="67.04"></line><line class="link fake transparent" x1="36.18" y1="63.71" x2="46.45" y2="67.04"></line><line class="link fake transparent" x1="48.78" y1="56.41" x2="46.45" y2="67.04"></line><line class="link fake transparent" x1="56.92" y1="69.81" x2="46.45" y2="67.04"></line><line class="link fake transparent" x1="36.18" y1="63.71" x2="38.47" y2="53.13"></line><line class="link fake transparent" x1="28.19" y1="49.98" x2="38.47" y2="53.13"></line><line class="link fake transparent" x1="41.06" y1="42.47" x2="38.47" y2="53.13"></line><line class="link fake transparent" x1="48.78" y1="56.41" x2="38.47" y2="53.13"></line><line class="link fake transparent" x1="22.47" y1="25.68" x2="30.29" y2="18.20"></line><line class="link fake transparent" x1="23.03" y1="10.18" x2="30.29" y2="18.20"></line><line class="link fake transparent" x1="37.49" y1="10.04" x2="30.29" y2="18.20"></line><line class="link fake transparent" x1="37.30" y1="26.52" x2="30.29" y2="18.20"></line><line class="link fake transparent" x1="23.03" y1="10.18" x2="30.20" y2="2.03"></line><line class="link fake transparent" x1="22.21" y1="-5.33" x2="30.20" y2="2.03"></line><line class="link fake transparent" x1="37.00" y1="-6.52" x2="30.20" y2="2.03"></line><line class="link fake transparent" x1="37.49" y1="10.04" x2="30.20" y2="2.03"></line><line class="link fake transparent" x1="16.43" y1="-50.93" x2="22.36" y2="-59.98"></line><line class="link fake transparent" x1="13.33" y1="-65.94" x2="22.36" y2="-59.98"></line><line class="link fake transparent" x1="27.56" y1="-69.42" x2="22.36" y2="-59.98"></line><line class="link fake transparent" x1="31.06" y1="-53.47" x2="22.36" y2="-59.98"></line><line class="link fake transparent" x1="13.33" y1="-65.94" x2="18.53" y2="-75.36"></line><line class="link fake transparent" x1="9.14" y1="-80.71" x2="18.53" y2="-75.36"></line><line class="link fake transparent" x1="23.45" y1="-84.92" x2="18.53" y2="-75.36"></line><line class="link fake transparent" x1="27.56" y1="-69.42" x2="18.53" y2="-75.36"></line><line class="link fake transparent" x1="83.45" y1="284.75" x2="88.35" y2="275.26"></line><line class="link fake transparent" x1="78.99" y1="269.77" x2="88.35" y2="275.26"></line><line class="link fake transparent" x1="93.11" y1="265.55" x2="88.35" y2="275.26"></line><line class="link fake transparent" x1="97.81" y1="280.45" x2="88.35" y2="275.26"></line><line class="link fake transparent" x1="78.99" y1="269.77" x2="83.76" y2="260.14"></line><line class="link fake transparent" x1="74.56" y1="254.39" x2="83.76" y2="260.14"></line><line class="link fake transparent" x1="88.76" y1="250.56" x2="83.76" y2="260.14"></line><line class="link fake transparent" x1="93.11" y1="265.55" x2="83.76" y2="260.14"></line><line class="link fake transparent" x1="74.56" y1="254.39" x2="79.55" y2="244.87"></line><line class="link fake transparent" x1="70.68" y1="238.62" x2="79.55" y2="244.87"></line><line class="link fake transparent" x1="85.01" y1="235.54" x2="79.55" y2="244.87"></line><line class="link fake transparent" x1="88.76" y1="250.56" x2="79.55" y2="244.87"></line><line class="link fake transparent" x1="70.68" y1="238.62" x2="76.12" y2="229.30"></line><line class="link fake transparent" x1="67.78" y1="222.38" x2="76.12" y2="229.30"></line><line class="link fake transparent" x1="82.25" y1="220.38" x2="76.12" y2="229.30"></line><line class="link fake transparent" x1="85.01" y1="235.54" x2="76.12" y2="229.30"></line><line class="link fake transparent" x1="67.78" y1="222.38" x2="73.87" y2="213.45"></line><line class="link fake transparent" x1="66.24" y1="205.75" x2="73.87" y2="213.45"></line><line class="link fake transparent" x1="80.84" y1="205.15" x2="73.87" y2="213.45"></line><line class="link fake transparent" x1="82.25" y1="220.38" x2="73.87" y2="213.45"></line><line class="link fake transparent" x1="66.24" y1="205.75" x2="73.17" y2="197.44"></line><line class="link fake transparent" x1="66.53" y1="188.92" x2="73.17" y2="197.44"></line><line class="link fake transparent" x1="81.04" y1="190.01" x2="73.17" y2="197.44"></line><line class="link fake transparent" x1="80.84" y1="205.15" x2="73.17" y2="197.44"></line><line class="link fake transparent" x1="66.53" y1="188.92" x2="74.38" y2="181.49"></line><line class="link fake transparent" x1="68.73" y1="172.13" x2="74.38" y2="181.49"></line><line class="link fake transparent" x1="83.25" y1="175.28" x2="74.38" y2="181.49"></line><line class="link fake transparent" x1="81.04" y1="190.01" x2="74.38" y2="181.49"></line><line class="link fake transparent" x1="83.45" y1="284.75" x2="95.37" y2="297.87"></line><line class="link fake transparent" x1="83.45" y1="284.75" x2="111.77" y2="304.16"></line><line class="link fake transparent" x1="97.81" y1="280.45" x2="95.37" y2="297.87"></line><line class="link fake transparent" x1="97.81" y1="280.45" x2="101.28" y2="314.79"></line><line class="link fake transparent" x1="110.32" y1="289.36" x2="95.37" y2="297.87"></line><line class="link fake transparent" x1="110.32" y1="289.36" x2="87.96" y2="316.59"></line><line class="link fake transparent" x1="111.77" y1="304.16" x2="95.37" y2="297.87"></line><line class="link fake transparent" x1="111.77" y1="304.16" x2="76.29" y2="306.01"></line><line class="link fake transparent" x1="101.28" y1="314.79" x2="95.37" y2="297.87"></line><line class="link fake transparent" x1="101.28" y1="314.79" x2="83.45" y2="284.75"></line><line class="link fake transparent" x1="9.14" y1="-80.71" x2="12.49" y2="-95.40"></line><line class="link fake transparent" x1="9.14" y1="-80.71" x2="15.79" y2="-110.11"></line><line class="link fake transparent" x1="-2.00" y1="-91.19" x2="12.49" y2="-95.40"></line><line class="link fake transparent" x1="-2.00" y1="-91.19" x2="26.84" y2="-99.94"></line><line class="link fake transparent" x1="1.49" y1="-105.72" x2="12.49" y2="-95.40"></line><line class="link fake transparent" x1="1.49" y1="-105.72" x2="23.45" y2="-84.92"></line><line class="link fake transparent" x1="15.79" y1="-110.11" x2="12.49" y2="-95.40"></line><line class="link fake transparent" x1="15.79" y1="-110.11" x2="9.14" y2="-80.71"></line><line class="link fake transparent" x1="26.84" y1="-99.94" x2="12.49" y2="-95.40"></line><line class="link fake transparent" x1="26.84" y1="-99.94" x2="-2.00" y2="-91.19"></line><line class="link fake transparent" x1="23.45" y1="-84.92" x2="12.49" y2="-95.40"></line><line class="link fake transparent" x1="23.45" y1="-84.92" x2="1.49" y2="-105.72"></line><line class="link fake transparent" x1="59.34" y1="106.65" x2="66.09" y2="95.43"></line><line class="link fake transparent" x1="59.34" y1="106.65" x2="65.69" y2="82.34"></line><line class="link fake transparent" x1="53.69" y1="91.22" x2="66.09" y2="95.43"></line><line class="link fake transparent" x1="53.69" y1="91.22" x2="78.57" y2="90.86"></line><line class="link fake transparent" x1="65.69" y1="82.34" x2="66.09" y2="95.43"></line><line class="link fake transparent" x1="65.69" y1="82.34" x2="74.22" y2="105.70"></line><line class="link fake transparent" x1="78.57" y1="90.86" x2="66.09" y2="95.43"></line><line class="link fake transparent" x1="78.57" y1="90.86" x2="59.34" y2="106.65"></line><line class="link fake transparent" x1="74.22" y1="105.70" x2="66.09" y2="95.43"></line><line class="link fake transparent" x1="74.22" y1="105.70" x2="53.69" y2="91.22"></line><line class="link fake transparent" x1="28.19" y1="49.98" x2="29.27" y2="36.89"></line><line class="link fake transparent" x1="28.19" y1="49.98" x2="22.47" y2="25.68"></line><line class="link fake transparent" x1="16.36" y1="39.99" x2="29.27" y2="36.89"></line><line class="link fake transparent" x1="16.36" y1="39.99" x2="37.30" y2="26.52"></line><line class="link fake transparent" x1="22.47" y1="25.68" x2="29.27" y2="36.89"></line><line class="link fake transparent" x1="22.47" y1="25.68" x2="41.06" y2="42.47"></line><line class="link fake transparent" x1="37.30" y1="26.52" x2="29.27" y2="36.89"></line><line class="link fake transparent" x1="37.30" y1="26.52" x2="28.19" y2="49.98"></line><line class="link fake transparent" x1="41.06" y1="42.47" x2="29.27" y2="36.89"></line><line class="link fake transparent" x1="41.06" y1="42.47" x2="16.36" y2="39.99"></line><line class="link fake transparent" x1="22.21" y1="-5.33" x2="26.83" y2="-29.10"></line><line class="link fake transparent" x1="22.21" y1="-5.33" x2="31.06" y2="-53.47"></line><line class="link fake transparent" x1="8.95" y1="-12.60" x2="26.83" y2="-29.10"></line><line class="link fake transparent" x1="8.95" y1="-12.60" x2="44.52" y2="-45.87"></line><line class="link fake transparent" x1="2.44" y1="-26.04" x2="26.83" y2="-29.10"></line><line class="link fake transparent" x1="2.44" y1="-26.04" x2="50.75" y2="-32.16"></line><line class="link fake transparent" x1="5.34" y1="-40.75" x2="26.83" y2="-29.10"></line><line class="link fake transparent" x1="5.34" y1="-40.75" x2="48.10" y2="-17.41"></line><line class="link fake transparent" x1="16.43" y1="-50.93" x2="26.83" y2="-29.10"></line><line class="link fake transparent" x1="16.43" y1="-50.93" x2="37.00" y2="-6.52"></line><line class="link fake transparent" x1="31.06" y1="-53.47" x2="26.83" y2="-29.10"></line><line class="link fake transparent" x1="31.06" y1="-53.47" x2="22.21" y2="-5.33"></line><line class="link fake transparent" x1="44.52" y1="-45.87" x2="26.83" y2="-29.10"></line><line class="link fake transparent" x1="44.52" y1="-45.87" x2="8.95" y2="-12.60"></line><line class="link fake transparent" x1="50.75" y1="-32.16" x2="26.83" y2="-29.10"></line><line class="link fake transparent" x1="50.75" y1="-32.16" x2="2.44" y2="-26.04"></line><line class="link fake transparent" x1="48.10" y1="-17.41" x2="26.83" y2="-29.10"></line><line class="link fake transparent" x1="48.10" y1="-17.41" x2="5.34" y2="-40.75"></line><line class="link fake transparent" x1="37.00" y1="-6.52" x2="26.83" y2="-29.10"></line><line class="link fake transparent" x1="37.00" y1="-6.52" x2="16.43" y2="-50.93"></line><line class="link fake transparent" x1="68.73" y1="172.13" x2="78.33" y2="163.21"></line><line class="link fake transparent" x1="68.73" y1="172.13" x2="82.02" y2="150.64"></line><line class="link fake transparent" x1="67.91" y1="155.31" x2="78.33" y2="163.21"></line><line class="link fake transparent" x1="67.91" y1="155.31" x2="91.69" y2="162.48"></line><line class="link fake transparent" x1="82.02" y1="150.64" x2="78.33" y2="163.21"></line><line class="link fake transparent" x1="82.02" y1="150.64" x2="83.25" y2="175.28"></line><line class="link fake transparent" x1="91.69" y1="162.48" x2="78.33" y2="163.21"></line><line class="link fake transparent" x1="91.69" y1="162.48" x2="68.73" y2="172.13"></line><line class="link fake transparent" x1="83.25" y1="175.28" x2="78.33" y2="163.21"></line><line class="link fake transparent" x1="83.25" y1="175.28" x2="67.91" y2="155.31"></line></g><g><g class="noselect gnode" struct_name="m" transform="translate(83.45,284.75)" r="6.5"><circle class="node" r="6" node_type="nucleotide" style="fill: lightgreen;"></circle><text text-anchor="middle" font-size="8" font-weight="bold" y="2.5" class="node-label">U</text></g><g class="noselect gnode" struct_name="m" transform="translate(78.99,269.77)" r="6.5"><circle class="node" r="6" node_type="nucleotide" style="fill: lightgreen;"></circle><text text-anchor="middle" font-size="8" font-weight="bold" y="2.5" class="node-label">U</text></g><g class="noselect gnode" struct_name="m" transform="translate(74.56,254.39)" r="6.5"><circle class="node" r="6" node_type="nucleotide" style="fill: lightgreen;"></circle><text text-anchor="middle" font-size="8" font-weight="bold" y="2.5" class="node-label">C</text></g><g class="noselect gnode" struct_name="m" transform="translate(70.68,238.62)" r="6.5"><circle class="node" r="6" node_type="nucleotide" style="fill: lightgreen;"></circle><text text-anchor="middle" font-size="8" font-weight="bold" y="2.5" class="node-label">G</text></g><g class="noselect gnode" struct_name="m" transform="translate(67.78,222.38)" r="6.5"><circle class="node" r="6" node_type="nucleotide" style="fill: lightgreen;"></circle><text text-anchor="middle" font-size="8" font-weight="bold" y="2.5" class="node-label">U</text></g><g class="noselect gnode" struct_name="m" transform="translate(66.24,205.75)" r="6.5"><circle class="node" r="6" node_type="nucleotide" style="fill: lightgreen;"></circle><text text-anchor="middle" font-size="8" font-weight="bold" y="2.5" class="node-label">A</text></g><g class="noselect gnode" struct_name="m" transform="translate(66.53,188.92)" r="6.5"><circle class="node" r="6" node_type="nucleotide" style="fill: lightgreen;"></circle><text text-anchor="middle" font-size="8" font-weight="bold" y="2.5" class="node-label">C</text></g><g class="noselect gnode" struct_name="m" transform="translate(68.73,172.13)" r="6.5"><circle class="node" r="6" node_type="nucleotide" style="fill: lightgreen;"></circle><text text-anchor="middle" font-size="8" font-weight="bold" y="2.5" class="node-label">C</text></g><g class="noselect gnode" struct_name="m" transform="translate(67.91,155.31)" r="6.5"><circle class="node" r="6" node_type="nucleotide" style="fill: lightgreen;"></circle><text text-anchor="middle" font-size="8" font-weight="bold" y="2.5" class="node-label">G</text></g><g class="noselect gnode" struct_name="m" transform="translate(63.85,139.14)" r="6.5"><circle class="node" r="6" node_type="nucleotide" style="fill: lightgreen;"></circle><text text-anchor="middle" font-size="8" font-weight="bold" y="2.5" class="node-label">U</text></g><g class="noselect gnode" struct_name="m" transform="translate(61.16,122.91)" r="6.5"><circle class="node" r="6" node_type="nucleotide" style="fill: lightgreen;"></circle><text text-anchor="middle" font-size="8" font-weight="bold" y="2.5" class="node-label">A</text></g><g class="noselect gnode" struct_name="m" transform="translate(59.34,106.65)" r="6.5"><circle class="node" r="6" node_type="nucleotide" style="fill: lightgreen;"></circle><text text-anchor="middle" font-size="8" font-weight="bold" y="2.5" class="node-label">C</text></g><g class="noselect gnode" struct_name="m" transform="translate(53.69,91.22)" r="6.5"><circle class="node" r="6" node_type="nucleotide" style="fill: lightgreen;"></circle><text text-anchor="middle" font-size="8" font-weight="bold" y="2.5" class="node-label">C</text></g><g class="noselect gnode" struct_name="m" transform="translate(44.62,77.71)" r="6.5"><circle class="node" r="6" node_type="nucleotide" style="fill: lightgreen;"></circle><text text-anchor="middle" font-size="8" font-weight="bold" y="2.5" class="node-label">A</text></g><g class="noselect gnode" struct_name="m" transform="translate(36.18,63.71)" r="6.5"><circle class="node" r="6" node_type="nucleotide" style="fill: lightgreen;"></circle><text text-anchor="middle" font-size="8" font-weight="bold" y="2.5" class="node-label">U</text></g><g class="noselect gnode" struct_name="m" transform="translate(28.19,49.98)" r="6.5"><circle class="node" r="6" node_type="nucleotide" style="fill: lightgreen;"></circle><text text-anchor="middle" font-size="8" font-weight="bold" y="2.5" class="node-label">A</text></g><g class="noselect gnode" struct_name="m" transform="translate(16.36,39.99)" r="6.5"><circle class="node" r="6" node_type="nucleotide" style="fill: rgb(219, 219, 141);"></circle><text text-anchor="middle" font-size="8" font-weight="bold" y="2.5" class="node-label">G</text></g><g class="noselect gnode" struct_name="m" transform="translate(22.47,25.68)" r="6.5"><circle class="node" r="6" node_type="nucleotide" style="fill: lightgreen;"></circle><text text-anchor="middle" font-size="8" font-weight="bold" y="2.5" class="node-label">C</text></g><g class="noselect gnode" struct_name="m" transform="translate(23.03,10.18)" r="6.5"><circle class="node" r="6" node_type="nucleotide" style="fill: lightgreen;"></circle><text text-anchor="middle" font-size="8" font-weight="bold" y="2.5" class="node-label">U</text></g><g class="noselect gnode" struct_name="m" transform="translate(22.21,-5.33)" r="6.5"><circle class="node" r="6" node_type="nucleotide" style="fill: lightgreen;"></circle><text text-anchor="middle" font-size="8" font-weight="bold" y="2.5" class="node-label">U</text></g><g class="noselect gnode" struct_name="m" transform="translate(8.95,-12.60)" r="6.5"><circle class="node" r="6" node_type="nucleotide" style="fill: rgb(219, 219, 141);"></circle><text text-anchor="middle" font-size="8" font-weight="bold" y="2.5" class="node-label">A</text></g><g class="noselect gnode" struct_name="m" transform="translate(2.44,-26.04)" r="6.5"><circle class="node" r="6" node_type="nucleotide" style="fill: rgb(219, 219, 141);"></circle><text text-anchor="middle" font-size="8" font-weight="bold" y="2.5" class="node-label">A</text></g><g class="noselect gnode" struct_name="m" transform="translate(5.34,-40.75)" r="6.5"><circle class="node" r="6" node_type="nucleotide" style="fill: rgb(219, 219, 141);"></circle><text text-anchor="middle" font-size="8" font-weight="bold" y="2.5" class="node-label">U</text></g><g class="noselect gnode" struct_name="m" transform="translate(16.43,-50.93)" r="6.5"><circle class="node" r="6" node_type="nucleotide" style="fill: lightgreen;"></circle><text text-anchor="middle" font-size="8" font-weight="bold" y="2.5" class="node-label">G</text></g><g class="noselect gnode" struct_name="m" transform="translate(13.33,-65.94)" r="6.5"><circle class="node" r="6" node_type="nucleotide" style="fill: lightgreen;"></circle><text text-anchor="middle" font-size="8" font-weight="bold" y="2.5" class="node-label">G</text></g><g class="noselect gnode" struct_name="m" transform="translate(9.14,-80.71)" r="6.5"><circle class="node" r="6" node_type="nucleotide" style="fill: lightgreen;"></circle><text text-anchor="middle" font-size="8" font-weight="bold" y="2.5" class="node-label">U</text></g><g class="noselect gnode" struct_name="m" transform="translate(-2.00,-91.19)" r="6.5"><circle class="node" r="6" node_type="nucleotide" style="fill: lightblue;"></circle><text text-anchor="middle" font-size="8" font-weight="bold" y="2.5" class="node-label">U</text></g><g class="noselect gnode" struct_name="m" transform="translate(1.49,-105.72)" r="6.5"><circle class="node" r="6" node_type="nucleotide" style="fill: lightblue;"></circle><text text-anchor="middle" font-size="8" font-weight="bold" y="2.5" class="node-label">C</text></g><g class="noselect gnode" struct_name="m" transform="translate(15.79,-110.11)" r="6.5"><circle class="node" r="6" node_type="nucleotide" style="fill: lightblue;"></circle><text text-anchor="middle" font-size="8" font-weight="bold" y="2.5" class="node-label">A</text></g><g class="noselect gnode" struct_name="m" transform="translate(26.84,-99.94)" r="6.5"><circle class="node" r="6" node_type="nucleotide" style="fill: lightblue;"></circle><text text-anchor="middle" font-size="8" font-weight="bold" y="2.5" class="node-label">U</text></g><g class="noselect gnode" struct_name="m" transform="translate(23.45,-84.92)" r="6.5"><circle class="node" r="6" node_type="nucleotide" style="fill: lightgreen;"></circle><text text-anchor="middle" font-size="8" font-weight="bold" y="2.5" class="node-label">A</text></g><g class="noselect gnode" struct_name="m" transform="translate(27.56,-69.42)" r="6.5"><circle class="node" r="6" node_type="nucleotide" style="fill: lightgreen;"></circle><text text-anchor="middle" font-size="8" font-weight="bold" y="2.5" class="node-label">C</text></g><g class="noselect gnode" struct_name="m" transform="translate(31.06,-53.47)" r="6.5"><circle class="node" r="6" node_type="nucleotide" style="fill: lightgreen;"></circle><text text-anchor="middle" font-size="8" font-weight="bold" y="2.5" class="node-label">C</text></g><g class="noselect gnode" struct_name="m" transform="translate(44.52,-45.87)" r="6.5"><circle class="node" r="6" node_type="nucleotide" style="fill: rgb(219, 219, 141);"></circle><text text-anchor="middle" font-size="8" font-weight="bold" y="2.5" class="node-label">U</text></g><g class="noselect gnode" struct_name="m" transform="translate(50.75,-32.16)" r="6.5"><circle class="node" r="6" node_type="nucleotide" style="fill: rgb(219, 219, 141);"></circle><text text-anchor="middle" font-size="8" font-weight="bold" y="2.5" class="node-label">G</text></g><g class="noselect gnode" struct_name="m" transform="translate(48.10,-17.41)" r="6.5"><circle class="node" r="6" node_type="nucleotide" style="fill: rgb(219, 219, 141);"></circle><text text-anchor="middle" font-size="8" font-weight="bold" y="2.5" class="node-label">U</text></g><g class="noselect gnode" struct_name="m" transform="translate(37.00,-6.52)" r="6.5"><circle class="node" r="6" node_type="nucleotide" style="fill: lightgreen;"></circle><text text-anchor="middle" font-size="8" font-weight="bold" y="2.5" class="node-label">A</text></g><g class="noselect gnode" struct_name="m" transform="translate(37.49,10.04)" r="6.5"><circle class="node" r="6" node_type="nucleotide" style="fill: lightgreen;"></circle><text text-anchor="middle" font-size="8" font-weight="bold" y="2.5" class="node-label">A</text></g><g class="noselect gnode" struct_name="m" transform="translate(37.30,26.52)" r="6.5"><circle class="node" r="6" node_type="nucleotide" style="fill: lightgreen;"></circle><text text-anchor="middle" font-size="8" font-weight="bold" y="2.5" class="node-label">G</text></g><g class="noselect gnode" struct_name="m" transform="translate(41.06,42.47)" r="6.5"><circle class="node" r="6" node_type="nucleotide" style="fill: lightgreen;"></circle><text text-anchor="middle" font-size="8" font-weight="bold" y="2.5" class="node-label">U</text></g><g class="noselect gnode" struct_name="m" transform="translate(48.78,56.41)" r="6.5"><circle class="node" r="6" node_type="nucleotide" style="fill: lightgreen;"></circle><text text-anchor="middle" font-size="8" font-weight="bold" y="2.5" class="node-label">A</text></g><g class="noselect gnode" struct_name="m" transform="translate(56.92,69.81)" r="6.5"><circle class="node" r="6" node_type="nucleotide" style="fill: lightgreen;"></circle><text text-anchor="middle" font-size="8" font-weight="bold" y="2.5" class="node-label">U</text></g><g class="noselect gnode" struct_name="m" transform="translate(65.69,82.34)" r="6.5"><circle class="node" r="6" node_type="nucleotide" style="fill: lightgreen;"></circle><text text-anchor="middle" font-size="8" font-weight="bold" y="2.5" class="node-label">G</text></g><g class="noselect gnode" struct_name="m" transform="translate(78.57,90.86)" r="6.5"><circle class="node" r="6" node_type="nucleotide" style="fill: rgb(219, 219, 141);"></circle><text text-anchor="middle" font-size="8" font-weight="bold" y="2.5" class="node-label">C</text></g><g class="noselect gnode" struct_name="m" transform="translate(74.22,105.70)" r="6.5"><circle class="node" r="6" node_type="nucleotide" style="fill: lightgreen;"></circle><text text-anchor="middle" font-size="8" font-weight="bold" y="2.5" class="node-label">G</text></g><g class="noselect gnode" struct_name="m" transform="translate(75.64,120.97)" r="6.5"><circle class="node" r="6" node_type="nucleotide" style="fill: lightgreen;"></circle><text text-anchor="middle" font-size="8" font-weight="bold" y="2.5" class="node-label">U</text></g><g class="noselect gnode" struct_name="m" transform="translate(78.19,136.11)" r="6.5"><circle class="node" r="6" node_type="nucleotide" style="fill: lightgreen;"></circle><text text-anchor="middle" font-size="8" font-weight="bold" y="2.5" class="node-label">G</text></g><g class="noselect gnode" struct_name="m" transform="translate(82.02,150.64)" r="6.5"><circle class="node" r="6" node_type="nucleotide" style="fill: lightgreen;"></circle><text text-anchor="middle" font-size="8" font-weight="bold" y="2.5" class="node-label">C</text></g><g class="noselect gnode" struct_name="m" transform="translate(91.69,162.48)" r="6.5"><circle class="node" r="6" node_type="nucleotide" style="fill: rgb(219, 219, 141);"></circle><text text-anchor="middle" font-size="8" font-weight="bold" y="2.5" class="node-label">U</text></g><g class="noselect gnode" struct_name="m" transform="translate(83.25,175.28)" r="6.5"><circle class="node" r="6" node_type="nucleotide" style="fill: lightgreen;"></circle><text text-anchor="middle" font-size="8" font-weight="bold" y="2.5" class="node-label">G</text></g><g class="noselect gnode" struct_name="m" transform="translate(81.04,190.01)" r="6.5"><circle class="node" r="6" node_type="nucleotide" style="fill: lightgreen;"></circle><text text-anchor="middle" font-size="8" font-weight="bold" y="2.5" class="node-label">G</text></g><g class="noselect gnode" struct_name="m" transform="translate(80.84,205.15)" r="6.5"><circle class="node" r="6" node_type="nucleotide" style="fill: lightgreen;"></circle><text text-anchor="middle" font-size="8" font-weight="bold" y="2.5" class="node-label">U</text></g><g class="noselect gnode" struct_name="m" transform="translate(82.25,220.38)" r="6.5"><circle class="node" r="6" node_type="nucleotide" style="fill: lightgreen;"></circle><text text-anchor="middle" font-size="8" font-weight="bold" y="2.5" class="node-label">A</text></g><g class="noselect gnode" struct_name="m" transform="translate(85.01,235.54)" r="6.5"><circle class="node" r="6" node_type="nucleotide" style="fill: lightgreen;"></circle><text text-anchor="middle" font-size="8" font-weight="bold" y="2.5" class="node-label">C</text></g><g class="noselect gnode" struct_name="m" transform="translate(88.76,250.56)" r="6.5"><circle class="node" r="6" node_type="nucleotide" style="fill: lightgreen;"></circle><text text-anchor="middle" font-size="8" font-weight="bold" y="2.5" class="node-label">G</text></g><g class="noselect gnode" struct_name="m" transform="translate(93.11,265.55)" r="6.5"><circle class="node" r="6" node_type="nucleotide" style="fill: lightgreen;"></circle><text text-anchor="middle" font-size="8" font-weight="bold" y="2.5" class="node-label">A</text></g><g class="noselect gnode" struct_name="m" transform="translate(97.81,280.45)" r="6.5"><circle class="node" r="6" node_type="nucleotide" style="fill: lightgreen;"></circle><text text-anchor="middle" font-size="8" font-weight="bold" y="2.5" class="node-label">A</text></g><g class="noselect gnode" struct_name="m" transform="translate(110.32,289.36)" r="6.5"><circle class="node" r="6" node_type="nucleotide" style="fill: lightsalmon;"></circle><text text-anchor="middle" font-size="8" font-weight="bold" y="2.5" class="node-label">C</text></g><g class="noselect gnode" struct_name="m" transform="translate(111.77,304.16)" r="6.5"><circle class="node" r="6" node_type="nucleotide" style="fill: lightsalmon;"></circle><text text-anchor="middle" font-size="8" font-weight="bold" y="2.5" class="node-label">U</text></g><g class="noselect gnode" struct_name="m" transform="translate(101.28,314.79)" r="6.5"><circle class="node" r="6" node_type="nucleotide" style="fill: lightsalmon;"></circle><text text-anchor="middle" font-size="8" font-weight="bold" y="2.5" class="node-label">U</text></g><g class="noselect gnode" struct_name="m" transform="translate(48.31,140.76)" r="6.5"><circle class="node label" r="6" node_type="label"></circle><text text-anchor="middle" font-size="8" font-weight="bold" y="2.5" class="node-label">10</text></g><g class="noselect gnode" struct_name="m" transform="translate(7.36,-0.72)" r="6.5"><circle class="node label" r="6" node_type="label"></circle><text text-anchor="middle" font-size="8" font-weight="bold" y="2.5" class="node-label">20</text></g><g class="noselect gnode" struct_name="m" transform="translate(37.83,-110.83)" r="6.5"><circle class="node label" r="6" node_type="label"></circle><text text-anchor="middle" font-size="8" font-weight="bold" y="2.5" class="node-label">30</text></g><g class="noselect gnode" struct_name="m" transform="translate(55.55,36.87)" r="6.5"><circle class="node label" r="6" node_type="label"></circle><text text-anchor="middle" font-size="8" font-weight="bold" y="2.5" class="node-label">40</text></g><g class="noselect gnode" struct_name="m" transform="translate(98.81,176.08)" r="6.5"><circle class="node label" r="6" node_type="label"></circle><text text-anchor="middle" font-size="8" font-weight="bold" y="2.5" class="node-label">50</text></g><g class="noselect gnode" struct_name="m" transform="translate(100.42,330.21)" r="6.5"><circle class="node label" r="6" node_type="label"></circle><text text-anchor="middle" font-size="8" font-weight="bold" y="2.5" class="node-label">60</text></g><g class="noselect gnode" transform="translate(72.63,145.45)" r="6.5"><circle class="node" r="0" node_type="middle"></circle><text text-anchor="middle" font-size="8" font-weight="bold" y="2.5" class="node-label"></text></g><g class="noselect gnode" transform="translate(69.46,129.87)" r="6.5"><circle class="node" r="0" node_type="middle"></circle><text text-anchor="middle" font-size="8" font-weight="bold" y="2.5" class="node-label"></text></g><g class="noselect gnode" transform="translate(67.36,114.04)" r="6.5"><circle class="node" r="0" node_type="middle"></circle><text text-anchor="middle" font-size="8" font-weight="bold" y="2.5" class="node-label"></text></g><g class="noselect gnode" transform="translate(55.08,80.45)" r="6.5"><circle class="node" r="0" node_type="middle"></circle><text text-anchor="middle" font-size="8" font-weight="bold" y="2.5" class="node-label"></text></g><g class="noselect gnode" transform="translate(46.45,67.04)" r="6.5"><circle class="node" r="0" node_type="middle"></circle><text text-anchor="middle" font-size="8" font-weight="bold" y="2.5" class="node-label"></text></g><g class="noselect gnode" transform="translate(38.47,53.13)" r="6.5"><circle class="node" r="0" node_type="middle"></circle><text text-anchor="middle" font-size="8" font-weight="bold" y="2.5" class="node-label"></text></g><g class="noselect gnode" transform="translate(30.29,18.20)" r="6.5"><circle class="node" r="0" node_type="middle"></circle><text text-anchor="middle" font-size="8" font-weight="bold" y="2.5" class="node-label"></text></g><g class="noselect gnode" transform="translate(30.20,2.03)" r="6.5"><circle class="node" r="0" node_type="middle"></circle><text text-anchor="middle" font-size="8" font-weight="bold" y="2.5" class="node-label"></text></g><g class="noselect gnode" transform="translate(22.36,-59.98)" r="6.5"><circle class="node" r="0" node_type="middle"></circle><text text-anchor="middle" font-size="8" font-weight="bold" y="2.5" class="node-label"></text></g><g class="noselect gnode" transform="translate(18.53,-75.36)" r="6.5"><circle class="node" r="0" node_type="middle"></circle><text text-anchor="middle" font-size="8" font-weight="bold" y="2.5" class="node-label"></text></g><g class="noselect gnode" transform="translate(88.35,275.26)" r="6.5"><circle class="node" r="0" node_type="middle"></circle><text text-anchor="middle" font-size="8" font-weight="bold" y="2.5" class="node-label"></text></g><g class="noselect gnode" transform="translate(83.76,260.14)" r="6.5"><circle class="node" r="0" node_type="middle"></circle><text text-anchor="middle" font-size="8" font-weight="bold" y="2.5" class="node-label"></text></g><g class="noselect gnode" transform="translate(79.55,244.87)" r="6.5"><circle class="node" r="0" node_type="middle"></circle><text text-anchor="middle" font-size="8" font-weight="bold" y="2.5" class="node-label"></text></g><g class="noselect gnode" transform="translate(76.12,229.30)" r="6.5"><circle class="node" r="0" node_type="middle"></circle><text text-anchor="middle" font-size="8" font-weight="bold" y="2.5" class="node-label"></text></g><g class="noselect gnode" transform="translate(73.87,213.45)" r="6.5"><circle class="node" r="0" node_type="middle"></circle><text text-anchor="middle" font-size="8" font-weight="bold" y="2.5" class="node-label"></text></g><g class="noselect gnode" transform="translate(73.17,197.44)" r="6.5"><circle class="node" r="0" node_type="middle"></circle><text text-anchor="middle" font-size="8" font-weight="bold" y="2.5" class="node-label"></text></g><g class="noselect gnode" transform="translate(74.38,181.49)" r="6.5"><circle class="node" r="0" node_type="middle"></circle><text text-anchor="middle" font-size="8" font-weight="bold" y="2.5" class="node-label"></text></g><g class="noselect gnode" transform="translate(87.96,316.59)" r="6.5"><circle class="node" r="0" node_type="middle"></circle><text text-anchor="middle" font-size="8" font-weight="bold" y="2.5" class="node-label"></text></g><g class="noselect gnode" transform="translate(76.29,306.01)" r="6.5"><circle class="node" r="0" node_type="middle"></circle><text text-anchor="middle" font-size="8" font-weight="bold" y="2.5" class="node-label"></text></g><g class="noselect gnode" transform="translate(95.37,297.87)" r="6.5"><circle class="node" r="0" node_type="middle"></circle><text text-anchor="middle" font-size="8" font-weight="bold" y="2.5" class="node-label"></text></g><g class="noselect gnode" transform="translate(12.49,-95.40)" r="6.5"><circle class="node" r="0" node_type="middle"></circle><text text-anchor="middle" font-size="8" font-weight="bold" y="2.5" class="node-label"></text></g><g class="noselect gnode" transform="translate(66.09,95.43)" r="6.5"><circle class="node" r="0" node_type="middle"></circle><text text-anchor="middle" font-size="8" font-weight="bold" y="2.5" class="node-label"></text></g><g class="noselect gnode" transform="translate(29.27,36.89)" r="6.5"><circle class="node" r="0" node_type="middle"></circle><text text-anchor="middle" font-size="8" font-weight="bold" y="2.5" class="node-label"></text></g><g class="noselect gnode" transform="translate(26.83,-29.10)" r="6.5"><circle class="node" r="0" node_type="middle"></circle><text text-anchor="middle" font-size="8" font-weight="bold" y="2.5" class="node-label"></text></g><g class="noselect gnode" transform="translate(78.33,163.21)" r="6.5"><circle class="node" r="0" node_type="middle"></circle><text text-anchor="middle" font-size="8" font-weight="bold" y="2.5" class="node-label"></text></g></g><line class="drag_line" x1="0" y1="0" x2="0" y2="0"></line></g></g></svg>