<svg xmlns="http://www.w3.org/2000/svg" viewBox="0 0 760 640" width="760" height="640"><style>svg {
  display: block;
  min-width: 100%;
  width: 100%;
  min-height: 100%;
}

circle.node {
  stroke: #ccc;
  stroke-width: 1px;
  opacity: 1;
  fill: white;
}

circle.node.label {
    stroke: transparent;
    stroke-width: 0;
    fill: white;
}

circle.outline_node {
    stroke-width: 1px;
    fill: red;
}

circle.protein {
    fill: gray;
    fill-opacity: 0.5;
    stroke-width: 4;
}

circle.hidden_outline {
    stroke-width: 0px;
}


line.link {
  stroke: #999;
  stroke-opacity: 0.8;
  stroke-width: 2;
}

line.basepair {
  stroke: red;
}

line.intermolecule {
  stroke: blue;
}

line.chain_chain {
  stroke-dasharray: 3,3;
}

line.fake {
  stroke: green;
}

.transparent {
    fill: transparent;
    stroke-width: 0;
    stroke-opacity: 0;
    opacity: 0;
    visibility: hidden;
}

.drag_line {
  stroke: #999;
  stroke-width: 2;
  pointer-events: none;
}

.drag_line_hidden {
  stroke: #999;
  stroke-width: 0;
  pointer-events: none;
}

.d3-tip {
    line-height: 1;
    font-weight: bold;
    padding: 6px;
    background: rgba(0, 0, 0, 0.6);
    color: #fff;
    border-radius: 4px;
    pointer-events: none;
          }

text.node-label {
    font-weight: bold;
    font-family: Tahoma, Geneva, sans-serif;
    color: rgb(100,100,100);
    pointer-events: none;
}

text {
    pointer-events: none;
}

g.gnode {

}

circle.outline_node.selected {
    visibility: visible;
}

circle.outline_node {
    visibility: hidden;
}

.brush .extent {
  fill-opacity: .1;
  stroke: #fff;
  shape-rendering: crispEdges;
}

.noselect {
    -webkit-touch-callout: none;
    -webkit-user-select: none;
    -khtml-user-select: none;
    -moz-user-select: none;
    -ms-user-select: none;
    user-select: none;
}

svg {
  display: block;
  min-width: 100%;
  width: 100%;
  min-height: 100%;
}

circle.node {
  stroke: #ccc;
  stroke-width: 1px;
  opacity: 1;
  fill: white;
}

circle.node.label {
    stroke: transparent;
    stroke-width: 0;
    fill: white;
}

circle.outline_node {
    stroke-width: 1px;
    fill: red;
}

circle.protein {
    fill: gray;
    fill-opacity: 0.5;
    stroke-width: 4;
}

circle.hidden_outline {
    stroke-width: 0px;
}


line.link {
  stroke: #999;
  stroke-opacity: 0.8;
  stroke-width: 2;
}

line.basepair {
  stroke: red;
}

line.intermolecule {
  stroke: blue;
}

line.chain_chain {
  stroke-dasharray: 3,3;
}

line.fake {
  stroke: green;
}

.transparent {
    fill: transparent;
    stroke-width: 0;
    stroke-opacity: 0;
    opacity: 0;
    visibility: hidden;
}

.drag_line {
  stroke: #999;
  stroke-width: 2;
  pointer-events: none;
}

.drag_line_hidden {
  stroke: #999;
  stroke-width: 0;
  pointer-events: none;
}

.d3-tip {
    line-height: 1;
    font-weight: bold;
    padding: 6px;
    background: rgba(0, 0, 0, 0.6);
    color: #fff;
    border-radius: 4px;
    pointer-events: none;
          }

text.node-label {
    font-weight: bold;
    font-family: Tahoma, Geneva, sans-serif;
    color: rgb(100,100,100);
    pointer-events: none;
}

text {
    pointer-events: none;
}

g.gnode {

}

circle.outline_node.selected {
    visibility: visible;
}

circle.outline_node {
    visibility: hidden;
}

.brush .extent {
  fill-opacity: .1;
  stroke: #fff;
  shape-rendering: crispEdges;
}

.noselect {
    -webkit-touch-callout: none;
    -webkit-user-select: none;
    -khtml-user-select: none;
    -moz-user-select: none;
    -ms-user-select: none;
    user-select: none;
}
/*# sourceURL=/Users/yumanakamura/ipy_sandbox/sandbox/claude_sandbox/mrna-transformer/scripts/eval/prerender/forna_vendor/fornac.css*/</style><style></style><g><g class="brush" style="pointer-events: all; -webkit-tap-highlight-color: rgba(0, 0, 0, 0);"><rect class="background" x="0" width="760" y="0" height="640" style="visibility: hidden; cursor: auto;"></rect><rect class="extent" x="0" width="0" y="0" height="0" style="cursor: move;"></rect><g class="resize n" transform="translate(0,0)" style="cursor: ns-resize; display: none;"><rect y="-3" width="0" height="6" style="visibility: hidden;"></rect></g><g class="resize e" transform="translate(0,0)" style="cursor: ew-resize; display: none;"><rect x="-3" width="6" height="0" style="visibility: hidden;"></rect></g><g class="resize s" transform="translate(0,0)" style="cursor: ns-resize; display: none;"><rect y="-3" width="0" height="6" style="visibility: hidden;"></rect></g><g class="resize w" transform="translate(0,0)" style="cursor: ew-resize; display: none;"><rect x="-3" width="6" height="0" style="visibility: hidden;"></rect></g><g class="resize nw" transform="translate(0,0)" style="cursor: nwse-resize; display: none;"><rect x="-3" y="-3" width="6" height="6" style="visibility: hidden;"></rect></g><g class="resize ne" transform="translate(0,0)" style="cursor: nesw-resize; display: none;"><rect x="-3" y="-3" width="6" height="6" style="visibility: hidden;"></rect></g><g class="resize se" transform="translate(0,0)" style="cursor: nwse-resize; display: none;"><rect x="-3" y="-3" width="6" height="6" style="visibility: hidden;"></rect></g><g class="resize sw" transform="translate(0,0)" style="cursor: nesw-resize; display: none;"><rect x="-3" y="-3" width="6" height="6" style="visibility: hidden;"></rect></g></g><g transform="translate(210.83,146.88) scale(1.53)"><g><line class="link backbone" x1="50.66" y1="277.66" x2="39.96" y2="288.04"></line><line class="link backbone" x1="39.96" y1="288.04" x2="25.59" y2="292.14"></line><line class="link backbone" x1="25.59" y1="292.14" x2="10.90" y2="289.27"></line><line class="link backbone" x1="10.90" y1="289.27" x2="-0.99" y2="280.21"></line><line class="link backbone" x1="-0.99" y1="280.21" x2="-7.27" y2="266.56"></line><line class="link backbone" x1="-7.27" y1="266.56" x2="-6.47" y2="251.59"></line><line class="link backbone" x1="-6.47" y1="251.59" x2="1.45" y2="238.63"></line><line class="link backbone" x1="1.45" y1="238.63" x2="14.20" y2="230.80"></line><line class="link basepair" x1="29.67" y1="229.11" x2="43.12" y2="235.52"></line><line class="link backbone" x1="14.20" y1="230.80" x2="29.67" y2="229.11"></line><line class="link basepair" x1="37.79" y1="214.66" x2="50.28" y2="222.04"></line><line class="link backbone" x1="29.67" y1="229.11" x2="37.79" y2="214.66"></line><line class="link basepair" x1="46.52" y1="200.76" x2="58.74" y2="208.66"></line><line class="link backbone" x1="37.79" y1="214.66" x2="46.52" y2="200.76"></line><line class="link basepair" x1="55.31" y1="187.33" x2="67.58" y2="195.21"></line><line class="link backbone" x1="46.52" y1="200.76" x2="55.31" y2="187.33"></line><line class="link basepair" x1="63.54" y1="174.03" x2="76.21" y2="181.37"></line><line class="link backbone" x1="55.31" y1="187.33" x2="63.54" y2="174.03"></line><line class="link basepair" x1="70.75" y1="160.53" x2="83.98" y2="166.79"></line><line class="link backbone" x1="63.54" y1="174.03" x2="70.75" y2="160.53"></line><line class="link basepair" x1="76.65" y1="146.46" x2="90.37" y2="151.40"></line><line class="link backbone" x1="70.75" y1="160.53" x2="76.65" y2="146.46"></line><line class="link basepair" x1="81.19" y1="131.76" x2="95.23" y2="135.28"></line><line class="link backbone" x1="76.65" y1="146.46" x2="81.19" y2="131.76"></line><line class="link basepair" x1="84.19" y1="116.63" x2="98.43" y2="118.38"></line><line class="link backbone" x1="81.19" y1="131.76" x2="84.19" y2="116.63"></line><line class="link basepair" x1="84.74" y1="101.83" x2="99.33" y2="100.62"></line><line class="link backbone" x1="84.19" y1="116.63" x2="84.74" y2="101.83"></line><line class="link backbone" x1="84.74" y1="101.83" x2="72.18" y2="93.36"></line><line class="link backbone" x1="72.18" y1="93.36" x2="70.28" y2="78.53"></line><line class="link backbone" x1="70.28" y1="78.53" x2="78.63" y2="66.68"></line><line class="link backbone" x1="78.63" y1="66.68" x2="93.26" y2="63.59"></line><line class="link basepair" x1="105.39" y1="72.54" x2="109.16" y2="86.71"></line><line class="link backbone" x1="93.26" y1="63.59" x2="105.39" y2="72.54"></line><line class="link basepair" x1="119.11" y1="67.10" x2="125.52" y2="79.94"></line><line class="link backbone" x1="105.39" y1="72.54" x2="119.11" y2="67.10"></line><line class="link basepair" x1="132.25" y1="59.26" x2="140.39" y2="71.19"></line><line class="link backbone" x1="119.11" y1="67.10" x2="132.25" y2="59.26"></line><line class="link basepair" x1="144.12" y1="49.84" x2="153.90" y2="61.05"></line><line class="link backbone" x1="132.25" y1="59.26" x2="144.12" y2="49.84"></line><line class="link backbone" x1="144.12" y1="49.84" x2="143.49" y2="34.51"></line><line class="link backbone" x1="143.49" y1="34.51" x2="152.64" y2="22.57"></line><line class="link basepair" x1="167.66" y1="19.11" x2="180.92" y2="25.89"></line><line class="link backbone" x1="152.64" y1="22.57" x2="167.66" y2="19.11"></line><line class="link basepair" x1="174.74" y1="5.00" x2="187.81" y2="11.21"></line><line class="link backbone" x1="167.66" y1="19.11" x2="174.74" y2="5.00"></line><line class="link basepair" x1="181.37" y1="-9.59" x2="194.61" y2="-3.52"></line><line class="link backbone" x1="174.74" y1="5.00" x2="181.37" y2="-9.59"></line><line class="link basepair" x1="188.07" y1="-24.22" x2="201.30" y2="-17.95"></line><line class="link backbone" x1="181.37" y1="-9.59" x2="188.07" y2="-24.22"></line><line class="link basepair" x1="194.92" y1="-38.60" x2="208.24" y2="-32.00"></line><line class="link backbone" x1="188.07" y1="-24.22" x2="194.92" y2="-38.60"></line><line class="link backbone" x1="194.92" y1="-38.60" x2="194.10" y2="-54.00"></line><line class="link backbone" x1="194.10" y1="-54.00" x2="206.65" y2="-62.15"></line><line class="link backbone" x1="206.65" y1="-62.15" x2="220.04" y2="-55.44"></line><line class="link backbone" x1="220.04" y1="-55.44" x2="221.05" y2="-40.52"></line><line class="link basepair" x1="208.24" y1="-32.00" x2="194.92" y2="-38.60"></line><line class="link backbone" x1="221.05" y1="-40.52" x2="208.24" y2="-32.00"></line><line class="link basepair" x1="201.30" y1="-17.95" x2="188.07" y2="-24.22"></line><line class="link backbone" x1="208.24" y1="-32.00" x2="201.30" y2="-17.95"></line><line class="link basepair" x1="194.61" y1="-3.52" x2="181.37" y2="-9.59"></line><line class="link backbone" x1="201.30" y1="-17.95" x2="194.61" y2="-3.52"></line><line class="link basepair" x1="187.81" y1="11.21" x2="174.74" y2="5.00"></line><line class="link backbone" x1="194.61" y1="-3.52" x2="187.81" y2="11.21"></line><line class="link basepair" x1="180.92" y1="25.89" x2="167.66" y2="19.11"></line><line class="link backbone" x1="187.81" y1="11.21" x2="180.92" y2="25.89"></line><line class="link backbone" x1="180.92" y1="25.89" x2="186.78" y2="40.26"></line><line class="link backbone" x1="186.78" y1="40.26" x2="182.11" y2="54.73"></line><line class="link backbone" x1="182.11" y1="54.73" x2="169.41" y2="62.89"></line><line class="link basepair" x1="153.90" y1="61.05" x2="144.12" y2="49.84"></line><line class="link backbone" x1="169.41" y1="62.89" x2="153.90" y2="61.05"></line><line class="link basepair" x1="140.39" y1="71.19" x2="132.25" y2="59.26"></line><line class="link backbone" x1="153.90" y1="61.05" x2="140.39" y2="71.19"></line><line class="link basepair" x1="125.52" y1="79.94" x2="119.11" y2="67.10"></line><line class="link backbone" x1="140.39" y1="71.19" x2="125.52" y2="79.94"></line><line class="link basepair" x1="109.16" y1="86.71" x2="105.39" y2="72.54"></line><line class="link backbone" x1="125.52" y1="79.94" x2="109.16" y2="86.71"></line><line class="link basepair" x1="99.33" y1="100.62" x2="84.74" y2="101.83"></line><line class="link backbone" x1="109.16" y1="86.71" x2="99.33" y2="100.62"></line><line class="link basepair" x1="98.43" y1="118.38" x2="84.19" y2="116.63"></line><line class="link backbone" x1="99.33" y1="100.62" x2="98.43" y2="118.38"></line><line class="link basepair" x1="95.23" y1="135.28" x2="81.19" y2="131.76"></line><line class="link backbone" x1="98.43" y1="118.38" x2="95.23" y2="135.28"></line><line class="link basepair" x1="90.37" y1="151.40" x2="76.65" y2="146.46"></line><line class="link backbone" x1="95.23" y1="135.28" x2="90.37" y2="151.40"></line><line class="link basepair" x1="83.98" y1="166.79" x2="70.75" y2="160.53"></line><line class="link backbone" x1="90.37" y1="151.40" x2="83.98" y2="166.79"></line><line class="link basepair" x1="76.21" y1="181.37" x2="63.54" y2="174.03"></line><line class="link backbone" x1="83.98" y1="166.79" x2="76.21" y2="181.37"></line><line class="link basepair" x1="67.58" y1="195.21" x2="55.31" y2="187.33"></line><line class="link backbone" x1="76.21" y1="181.37" x2="67.58" y2="195.21"></line><line class="link basepair" x1="58.74" y1="208.66" x2="46.52" y2="200.76"></line><line class="link backbone" x1="67.58" y1="195.21" x2="58.74" y2="208.66"></line><line class="link basepair" x1="50.28" y1="222.04" x2="37.79" y2="214.66"></line><line class="link backbone" x1="58.74" y1="208.66" x2="50.28" y2="222.04"></line><line class="link basepair" x1="43.12" y1="235.52" x2="29.67" y2="229.11"></line><line class="link backbone" x1="50.28" y1="222.04" x2="43.12" y2="235.52"></line><line class="link label_link" x1="29.67" y1="229.11" x2="17.61" y2="219.31"></line><line class="link label_link" x1="72.18" y1="93.36" x2="56.95" y2="89.77"></line><line class="link label_link" x1="167.66" y1="19.11" x2="155.55" y2="9.35"></line><line class="link label_link" x1="201.30" y1="-17.95" x2="215.61" y2="-11.96"></line><line class="link label_link" x1="109.16" y1="86.71" x2="121.56" y2="96.05"></line><line class="link label_link" x1="43.12" y1="235.52" x2="44.98" y2="250.69"></line><line class="link fake transparent" x1="29.67" y1="229.11" x2="39.86" y2="225.31"></line><line class="link fake transparent" x1="29.67" y1="229.11" x2="50.28" y2="222.04"></line><line class="link fake transparent" x1="37.79" y1="214.66" x2="39.86" y2="225.31"></line><line class="link fake transparent" x1="50.28" y1="222.04" x2="39.86" y2="225.31"></line><line class="link fake transparent" x1="43.12" y1="235.52" x2="39.86" y2="225.31"></line><line class="link fake transparent" x1="37.79" y1="214.66" x2="48.19" y2="211.45"></line><line class="link fake transparent" x1="46.52" y1="200.76" x2="48.19" y2="211.45"></line><line class="link fake transparent" x1="58.74" y1="208.66" x2="48.19" y2="211.45"></line><line class="link fake transparent" x1="50.28" y1="222.04" x2="48.19" y2="211.45"></line><line class="link fake transparent" x1="46.52" y1="200.76" x2="57.05" y2="197.98"></line><line class="link fake transparent" x1="55.31" y1="187.33" x2="57.05" y2="197.98"></line><line class="link fake transparent" x1="67.58" y1="195.21" x2="57.05" y2="197.98"></line><line class="link fake transparent" x1="58.74" y1="208.66" x2="57.05" y2="197.98"></line><line class="link fake transparent" x1="55.31" y1="187.33" x2="65.84" y2="184.56"></line><line class="link fake transparent" x1="63.54" y1="174.03" x2="65.84" y2="184.56"></line><line class="link fake transparent" x1="76.21" y1="181.37" x2="65.84" y2="184.56"></line><line class="link fake transparent" x1="67.58" y1="195.21" x2="65.84" y2="184.56"></line><line class="link fake transparent" x1="63.54" y1="174.03" x2="73.93" y2="170.85"></line><line class="link fake transparent" x1="70.75" y1="160.53" x2="73.93" y2="170.85"></line><line class="link fake transparent" x1="83.98" y1="166.79" x2="73.93" y2="170.85"></line><line class="link fake transparent" x1="76.21" y1="181.37" x2="73.93" y2="170.85"></line><line class="link fake transparent" x1="70.75" y1="160.53" x2="80.83" y2="156.47"></line><line class="link fake transparent" x1="76.65" y1="146.46" x2="80.83" y2="156.47"></line><line class="link fake transparent" x1="90.37" y1="151.40" x2="80.83" y2="156.47"></line><line class="link fake transparent" x1="83.98" y1="166.79" x2="80.83" y2="156.47"></line><line class="link fake transparent" x1="76.65" y1="146.46" x2="86.23" y2="141.40"></line><line class="link fake transparent" x1="81.19" y1="131.76" x2="86.23" y2="141.40"></line><line class="link fake transparent" x1="95.23" y1="135.28" x2="86.23" y2="141.40"></line><line class="link fake transparent" x1="90.37" y1="151.40" x2="86.23" y2="141.40"></line><line class="link fake transparent" x1="81.19" y1="131.76" x2="90.20" y2="125.66"></line><line class="link fake transparent" x1="84.19" y1="116.63" x2="90.20" y2="125.66"></line><line class="link fake transparent" x1="98.43" y1="118.38" x2="90.20" y2="125.66"></line><line class="link fake transparent" x1="95.23" y1="135.28" x2="90.20" y2="125.66"></line><line class="link fake transparent" x1="84.19" y1="116.63" x2="92.34" y2="109.45"></line><line class="link fake transparent" x1="84.74" y1="101.83" x2="92.34" y2="109.45"></line><line class="link fake transparent" x1="99.33" y1="100.62" x2="92.34" y2="109.45"></line><line class="link fake transparent" x1="98.43" y1="118.38" x2="92.34" y2="109.45"></line><line class="link fake transparent" x1="105.39" y1="72.54" x2="115.09" y2="77.15"></line><line class="link fake transparent" x1="119.11" y1="67.10" x2="115.09" y2="77.15"></line><line class="link fake transparent" x1="125.52" y1="79.94" x2="115.09" y2="77.15"></line><line class="link fake transparent" x1="109.16" y1="86.71" x2="115.09" y2="77.15"></line><line class="link fake transparent" x1="119.11" y1="67.10" x2="129.64" y2="69.75"></line><line class="link fake transparent" x1="132.25" y1="59.26" x2="129.64" y2="69.75"></line><line class="link fake transparent" x1="140.39" y1="71.19" x2="129.64" y2="69.75"></line><line class="link fake transparent" x1="125.52" y1="79.94" x2="129.64" y2="69.75"></line><line class="link fake transparent" x1="132.25" y1="59.26" x2="143.06" y2="60.62"></line><line class="link fake transparent" x1="144.12" y1="49.84" x2="143.06" y2="60.62"></line><line class="link fake transparent" x1="153.90" y1="61.05" x2="143.06" y2="60.62"></line><line class="link fake transparent" x1="140.39" y1="71.19" x2="143.06" y2="60.62"></line><line class="link fake transparent" x1="167.66" y1="19.11" x2="177.86" y2="15.46"></line><line class="link fake transparent" x1="174.74" y1="5.00" x2="177.86" y2="15.46"></line><line class="link fake transparent" x1="187.81" y1="11.21" x2="177.86" y2="15.46"></line><line class="link fake transparent" x1="180.92" y1="25.89" x2="177.86" y2="15.46"></line><line class="link fake transparent" x1="174.74" y1="5.00" x2="184.67" y2="0.77"></line><line class="link fake transparent" x1="181.37" y1="-9.59" x2="184.67" y2="0.77"></line><line class="link fake transparent" x1="194.61" y1="-3.52" x2="184.67" y2="0.77"></line><line class="link fake transparent" x1="187.81" y1="11.21" x2="184.67" y2="0.77"></line><line class="link fake transparent" x1="181.37" y1="-9.59" x2="191.28" y2="-13.89"></line><line class="link fake transparent" x1="188.07" y1="-24.22" x2="191.28" y2="-13.89"></line><line class="link fake transparent" x1="201.30" y1="-17.95" x2="191.28" y2="-13.89"></line><line class="link fake transparent" x1="194.61" y1="-3.52" x2="191.28" y2="-13.89"></line><line class="link fake transparent" x1="188.07" y1="-24.22" x2="198.07" y2="-28.27"></line><line class="link fake transparent" x1="194.92" y1="-38.60" x2="198.07" y2="-28.27"></line><line class="link fake transparent" x1="208.24" y1="-32.00" x2="198.07" y2="-28.27"></line><line class="link fake transparent" x1="201.30" y1="-17.95" x2="198.07" y2="-28.27"></line><line class="link fake transparent" x1="50.66" y1="277.66" x2="23.87" y2="260.54"></line><line class="link fake transparent" x1="50.66" y1="277.66" x2="-6.47" y2="251.59"></line><line class="link fake transparent" x1="39.96" y1="288.04" x2="23.87" y2="260.54"></line><line class="link fake transparent" x1="39.96" y1="288.04" x2="1.45" y2="238.63"></line><line class="link fake transparent" x1="25.59" y1="292.14" x2="23.87" y2="260.54"></line><line class="link fake transparent" x1="25.59" y1="292.14" x2="14.20" y2="230.80"></line><line class="link fake transparent" x1="10.90" y1="289.27" x2="23.87" y2="260.54"></line><line class="link fake transparent" x1="10.90" y1="289.27" x2="29.67" y2="229.11"></line><line class="link fake transparent" x1="-0.99" y1="280.21" x2="23.87" y2="260.54"></line><line class="link fake transparent" x1="-0.99" y1="280.21" x2="43.12" y2="235.52"></line><line class="link fake transparent" x1="-7.27" y1="266.56" x2="23.87" y2="260.54"></line><line class="link fake transparent" x1="-7.27" y1="266.56" x2="52.65" y2="247.64"></line><line class="link fake transparent" x1="-6.47" y1="251.59" x2="23.87" y2="260.54"></line><line class="link fake transparent" x1="-6.47" y1="251.59" x2="55.60" y2="262.19"></line><line class="link fake transparent" x1="1.45" y1="238.63" x2="23.87" y2="260.54"></line><line class="link fake transparent" x1="1.45" y1="238.63" x2="50.66" y2="277.66"></line><line class="link fake transparent" x1="14.20" y1="230.80" x2="23.87" y2="260.54"></line><line class="link fake transparent" x1="14.20" y1="230.80" x2="39.96" y2="288.04"></line><line class="link fake transparent" x1="29.67" y1="229.11" x2="23.87" y2="260.54"></line><line class="link fake transparent" x1="29.67" y1="229.11" x2="25.59" y2="292.14"></line><line class="link fake transparent" x1="43.12" y1="235.52" x2="23.87" y2="260.54"></line><line class="link fake transparent" x1="43.12" y1="235.52" x2="10.90" y2="289.27"></line><line class="link fake transparent" x1="194.92" y1="-38.60" x2="207.47" y2="-47.08"></line><line class="link fake transparent" x1="194.92" y1="-38.60" x2="220.04" y2="-55.44"></line><line class="link fake transparent" x1="194.10" y1="-54.00" x2="207.47" y2="-47.08"></line><line class="link fake transparent" x1="194.10" y1="-54.00" x2="221.05" y2="-40.52"></line><line class="link fake transparent" x1="206.65" y1="-62.15" x2="207.47" y2="-47.08"></line><line class="link fake transparent" x1="206.65" y1="-62.15" x2="208.24" y2="-32.00"></line><line class="link fake transparent" x1="220.04" y1="-55.44" x2="207.47" y2="-47.08"></line><line class="link fake transparent" x1="220.04" y1="-55.44" x2="194.92" y2="-38.60"></line><line class="link fake transparent" x1="221.05" y1="-40.52" x2="207.47" y2="-47.08"></line><line class="link fake transparent" x1="221.05" y1="-40.52" x2="194.10" y2="-54.00"></line><line class="link fake transparent" x1="208.24" y1="-32.00" x2="207.47" y2="-47.08"></line><line class="link fake transparent" x1="208.24" y1="-32.00" x2="206.65" y2="-62.15"></line><line class="link fake transparent" x1="84.74" y1="101.83" x2="89.50" y2="83.25"></line><line class="link fake transparent" x1="84.74" y1="101.83" x2="93.26" y2="63.59"></line><line class="link fake transparent" x1="72.18" y1="93.36" x2="89.50" y2="83.25"></line><line class="link fake transparent" x1="72.18" y1="93.36" x2="105.39" y2="72.54"></line><line class="link fake transparent" x1="70.28" y1="78.53" x2="89.50" y2="83.25"></line><line class="link fake transparent" x1="70.28" y1="78.53" x2="109.16" y2="86.71"></line><line class="link fake transparent" x1="78.63" y1="66.68" x2="89.50" y2="83.25"></line><line class="link fake transparent" x1="78.63" y1="66.68" x2="99.33" y2="100.62"></line><line class="link fake transparent" x1="93.26" y1="63.59" x2="89.50" y2="83.25"></line><line class="link fake transparent" x1="93.26" y1="63.59" x2="84.74" y2="101.83"></line><line class="link fake transparent" x1="105.39" y1="72.54" x2="89.50" y2="83.25"></line><line class="link fake transparent" x1="105.39" y1="72.54" x2="72.18" y2="93.36"></line><line class="link fake transparent" x1="109.16" y1="86.71" x2="89.50" y2="83.25"></line><line class="link fake transparent" x1="109.16" y1="86.71" x2="70.28" y2="78.53"></line><line class="link fake transparent" x1="99.33" y1="100.62" x2="89.50" y2="83.25"></line><line class="link fake transparent" x1="99.33" y1="100.62" x2="78.63" y2="66.68"></line><line class="link fake transparent" x1="144.12" y1="49.84" x2="164.59" y2="41.24"></line><line class="link fake transparent" x1="144.12" y1="49.84" x2="180.92" y2="25.89"></line><line class="link fake transparent" x1="143.49" y1="34.51" x2="164.59" y2="41.24"></line><line class="link fake transparent" x1="143.49" y1="34.51" x2="186.78" y2="40.26"></line><line class="link fake transparent" x1="152.64" y1="22.57" x2="164.59" y2="41.24"></line><line class="link fake transparent" x1="152.64" y1="22.57" x2="182.11" y2="54.73"></line><line class="link fake transparent" x1="167.66" y1="19.11" x2="164.59" y2="41.24"></line><line class="link fake transparent" x1="167.66" y1="19.11" x2="169.41" y2="62.89"></line><line class="link fake transparent" x1="180.92" y1="25.89" x2="164.59" y2="41.24"></line><line class="link fake transparent" x1="180.92" y1="25.89" x2="153.90" y2="61.05"></line><line class="link fake transparent" x1="186.78" y1="40.26" x2="164.59" y2="41.24"></line><line class="link fake transparent" x1="186.78" y1="40.26" x2="144.12" y2="49.84"></line><line class="link fake transparent" x1="182.11" y1="54.73" x2="164.59" y2="41.24"></line><line class="link fake transparent" x1="182.11" y1="54.73" x2="143.49" y2="34.51"></line><line class="link fake transparent" x1="169.41" y1="62.89" x2="164.59" y2="41.24"></line><line class="link fake transparent" x1="169.41" y1="62.89" x2="152.64" y2="22.57"></line><line class="link fake transparent" x1="153.90" y1="61.05" x2="164.59" y2="41.24"></line><line class="link fake transparent" x1="153.90" y1="61.05" x2="167.66" y2="19.11"></line></g><g><g class="noselect gnode" struct_name="m" transform="translate(50.66,277.66)" r="6.5"><circle class="node" r="6" node_type="nucleotide" style="fill: lightsalmon;"></circle><text text-anchor="middle" font-size="8" font-weight="bold" y="2.5" class="node-label">G</text></g><g class="noselect gnode" struct_name="m" transform="translate(39.96,288.04)" r="6.5"><circle class="node" r="6" node_type="nucleotide" style="fill: lightsalmon;"></circle><text text-anchor="middle" font-size="8" font-weight="bold" y="2.5" class="node-label">A</text></g><g class="noselect gnode" struct_name="m" transform="translate(25.59,292.14)" r="6.5"><circle class="node" r="6" node_type="nucleotide" style="fill: lightsalmon;"></circle><text text-anchor="middle" font-size="8" font-weight="bold" y="2.5" class="node-label">U</text></g><g class="noselect gnode" struct_name="m" transform="translate(10.90,289.27)" r="6.5"><circle class="node" r="6" node_type="nucleotide" style="fill: lightsalmon;"></circle><text text-anchor="middle" font-size="8" font-weight="bold" y="2.5" class="node-label">A</text></g><g class="noselect gnode" struct_name="m" transform="translate(-0.99,280.21)" r="6.5"><circle class="node" r="6" node_type="nucleotide" style="fill: lightsalmon;"></circle><text text-anchor="middle" font-size="8" font-weight="bold" y="2.5" class="node-label">A</text></g><g class="noselect gnode" struct_name="m" transform="translate(-7.27,266.56)" r="6.5"><circle class="node" r="6" node_type="nucleotide" style="fill: lightsalmon;"></circle><text text-anchor="middle" font-size="8" font-weight="bold" y="2.5" class="node-label">A</text></g><g class="noselect gnode" struct_name="m" transform="translate(-6.47,251.59)" r="6.5"><circle class="node" r="6" node_type="nucleotide" style="fill: lightsalmon;"></circle><text text-anchor="middle" font-size="8" font-weight="bold" y="2.5" class="node-label">A</text></g><g class="noselect gnode" struct_name="m" transform="translate(1.45,238.63)" r="6.5"><circle class="node" r="6" node_type="nucleotide" style="fill: lightsalmon;"></circle><text text-anchor="middle" font-size="8" font-weight="bold" y="2.5" class="node-label">U</text></g><g class="noselect gnode" struct_name="m" transform="translate(14.20,230.80)" r="6.5"><circle class="node" r="6" node_type="nucleotide" style="fill: lightsalmon;"></circle><text text-anchor="middle" font-size="8" font-weight="bold" y="2.5" class="node-label">U</text></g><g class="noselect gnode" struct_name="m" transform="translate(29.67,229.11)" r="6.5"><circle class="node" r="6" node_type="nucleotide" style="fill: lightgreen;"></circle><text text-anchor="middle" font-size="8" font-weight="bold" y="2.5" class="node-label">U</text></g><g class="noselect gnode" struct_name="m" transform="translate(37.79,214.66)" r="6.5"><circle class="node" r="6" node_type="nucleotide" style="fill: lightgreen;"></circle><text text-anchor="middle" font-size="8" font-weight="bold" y="2.5" class="node-label">C</text></g><g class="noselect gnode" struct_name="m" transform="translate(46.52,200.76)" r="6.5"><circle class="node" r="6" node_type="nucleotide" style="fill: lightgreen;"></circle><text text-anchor="middle" font-size="8" font-weight="bold" y="2.5" class="node-label">C</text></g><g class="noselect gnode" struct_name="m" transform="translate(55.31,187.33)" r="6.5"><circle class="node" r="6" node_type="nucleotide" style="fill: lightgreen;"></circle><text text-anchor="middle" font-size="8" font-weight="bold" y="2.5" class="node-label">G</text></g><g class="noselect gnode" struct_name="m" transform="translate(63.54,174.03)" r="6.5"><circle class="node" r="6" node_type="nucleotide" style="fill: lightgreen;"></circle><text text-anchor="middle" font-size="8" font-weight="bold" y="2.5" class="node-label">U</text></g><g class="noselect gnode" struct_name="m" transform="translate(70.75,160.53)" r="6.5"><circle class="node" r="6" node_type="nucleotide" style="fill: lightgreen;"></circle><text text-anchor="middle" font-size="8" font-weight="bold" y="2.5" class="node-label">U</text></g><g class="noselect gnode" struct_name="m" transform="translate(76.65,146.46)" r="6.5"><circle class="node" r="6" node_type="nucleotide" style="fill: lightgreen;"></circle><text text-anchor="middle" font-size="8" font-weight="bold" y="2.5" class="node-label">A</text></g><g class="noselect gnode" struct_name="m" transform="translate(81.19,131.76)" r="6.5"><circle class="node" r="6" node_type="nucleotide" style="fill: lightgreen;"></circle><text text-anchor="middle" font-size="8" font-weight="bold" y="2.5" class="node-label">A</text></g><g class="noselect gnode" struct_name="m" transform="translate(84.19,116.63)" r="6.5"><circle class="node" r="6" node_type="nucleotide" style="fill: lightgreen;"></circle><text text-anchor="middle" font-size="8" font-weight="bold" y="2.5" class="node-label">U</text></g><g class="noselect gnode" struct_name="m" transform="translate(84.74,101.83)" r="6.5"><circle class="node" r="6" node_type="nucleotide" style="fill: lightgreen;"></circle><text text-anchor="middle" font-size="8" font-weight="bold" y="2.5" class="node-label">G</text></g><g class="noselect gnode" struct_name="m" transform="translate(72.18,93.36)" r="6.5"><circle class="node" r="6" node_type="nucleotide" style="fill: rgb(219, 219, 141);"></circle><text text-anchor="middle" font-size="8" font-weight="bold" y="2.5" class="node-label">A</text></g><g class="noselect gnode" struct_name="m" transform="translate(70.28,78.53)" r="6.5"><circle class="node" r="6" node_type="nucleotide" style="fill: rgb(219, 219, 141);"></circle><text text-anchor="middle" font-size="8" font-weight="bold" y="2.5" class="node-label">U</text></g><g class="noselect gnode" struct_name="m" transform="translate(78.63,66.68)" r="6.5"><circle class="node" r="6" node_type="nucleotide" style="fill: rgb(219, 219, 141);"></circle><text text-anchor="middle" font-size="8" font-weight="bold" y="2.5" class="node-label">A</text></g><g class="noselect gnode" struct_name="m" transform="translate(93.26,63.59)" r="6.5"><circle class="node" r="6" node_type="nucleotide" style="fill: rgb(219, 219, 141);"></circle><text text-anchor="middle" font-size="8" font-weight="bold" y="2.5" class="node-label">A</text></g><g class="noselect gnode" struct_name="m" transform="translate(105.39,72.54)" r="6.5"><circle class="node" r="6" node_type="nucleotide" style="fill: lightgreen;"></circle><text text-anchor="middle" font-size="8" font-weight="bold" y="2.5" class="node-label">U</text></g><g class="noselect gnode" struct_name="m" transform="translate(119.11,67.10)" r="6.5"><circle class="node" r="6" node_type="nucleotide" style="fill: lightgreen;"></circle><text text-anchor="middle" font-size="8" font-weight="bold" y="2.5" class="node-label">G</text></g><g class="noselect gnode" struct_name="m" transform="translate(132.25,59.26)" r="6.5"><circle class="node" r="6" node_type="nucleotide" style="fill: lightgreen;"></circle><text text-anchor="middle" font-size="8" font-weight="bold" y="2.5" class="node-label">A</text></g><g class="noselect gnode" struct_name="m" transform="translate(144.12,49.84)" r="6.5"><circle class="node" r="6" node_type="nucleotide" style="fill: lightgreen;"></circle><text text-anchor="middle" font-size="8" font-weight="bold" y="2.5" class="node-label">G</text></g><g class="noselect gnode" struct_name="m" transform="translate(143.49,34.51)" r="6.5"><circle class="node" r="6" node_type="nucleotide" style="fill: rgb(219, 219, 141);"></circle><text text-anchor="middle" font-size="8" font-weight="bold" y="2.5" class="node-label">A</text></g><g class="noselect gnode" struct_name="m" transform="translate(152.64,22.57)" r="6.5"><circle class="node" r="6" node_type="nucleotide" style="fill: rgb(219, 219, 141);"></circle><text text-anchor="middle" font-size="8" font-weight="bold" y="2.5" class="node-label">C</text></g><g class="noselect gnode" struct_name="m" transform="translate(167.66,19.11)" r="6.5"><circle class="node" r="6" node_type="nucleotide" style="fill: lightgreen;"></circle><text text-anchor="middle" font-size="8" font-weight="bold" y="2.5" class="node-label">A</text></g><g class="noselect gnode" struct_name="m" transform="translate(174.74,5.00)" r="6.5"><circle class="node" r="6" node_type="nucleotide" style="fill: lightgreen;"></circle><text text-anchor="middle" font-size="8" font-weight="bold" y="2.5" class="node-label">G</text></g><g class="noselect gnode" struct_name="m" transform="translate(181.37,-9.59)" r="6.5"><circle class="node" r="6" node_type="nucleotide" style="fill: lightgreen;"></circle><text text-anchor="middle" font-size="8" font-weight="bold" y="2.5" class="node-label">C</text></g><g class="noselect gnode" struct_name="m" transform="translate(188.07,-24.22)" r="6.5"><circle class="node" r="6" node_type="nucleotide" style="fill: lightgreen;"></circle><text text-anchor="middle" font-size="8" font-weight="bold" y="2.5" class="node-label">A</text></g><g class="noselect gnode" struct_name="m" transform="translate(194.92,-38.60)" r="6.5"><circle class="node" r="6" node_type="nucleotide" style="fill: lightgreen;"></circle><text text-anchor="middle" font-size="8" font-weight="bold" y="2.5" class="node-label">G</text></g><g class="noselect gnode" struct_name="m" transform="translate(194.10,-54.00)" r="6.5"><circle class="node" r="6" node_type="nucleotide" style="fill: lightblue;"></circle><text text-anchor="middle" font-size="8" font-weight="bold" y="2.5" class="node-label">A</text></g><g class="noselect gnode" struct_name="m" transform="translate(206.65,-62.15)" r="6.5"><circle class="node" r="6" node_type="nucleotide" style="fill: lightblue;"></circle><text text-anchor="middle" font-size="8" font-weight="bold" y="2.5" class="node-label">U</text></g><g class="noselect gnode" struct_name="m" transform="translate(220.04,-55.44)" r="6.5"><circle class="node" r="6" node_type="nucleotide" style="fill: lightblue;"></circle><text text-anchor="middle" font-size="8" font-weight="bold" y="2.5" class="node-label">G</text></g><g class="noselect gnode" struct_name="m" transform="translate(221.05,-40.52)" r="6.5"><circle class="node" r="6" node_type="nucleotide" style="fill: lightblue;"></circle><text text-anchor="middle" font-size="8" font-weight="bold" y="2.5" class="node-label">A</text></g><g class="noselect gnode" struct_name="m" transform="translate(208.24,-32.00)" r="6.5"><circle class="node" r="6" node_type="nucleotide" style="fill: lightgreen;"></circle><text text-anchor="middle" font-size="8" font-weight="bold" y="2.5" class="node-label">C</text></g><g class="noselect gnode" struct_name="m" transform="translate(201.30,-17.95)" r="6.5"><circle class="node" r="6" node_type="nucleotide" style="fill: lightgreen;"></circle><text text-anchor="middle" font-size="8" font-weight="bold" y="2.5" class="node-label">U</text></g><g class="noselect gnode" struct_name="m" transform="translate(194.61,-3.52)" r="6.5"><circle class="node" r="6" node_type="nucleotide" style="fill: lightgreen;"></circle><text text-anchor="middle" font-size="8" font-weight="bold" y="2.5" class="node-label">G</text></g><g class="noselect gnode" struct_name="m" transform="translate(187.81,11.21)" r="6.5"><circle class="node" r="6" node_type="nucleotide" style="fill: lightgreen;"></circle><text text-anchor="middle" font-size="8" font-weight="bold" y="2.5" class="node-label">C</text></g><g class="noselect gnode" struct_name="m" transform="translate(180.92,25.89)" r="6.5"><circle class="node" r="6" node_type="nucleotide" style="fill: lightgreen;"></circle><text text-anchor="middle" font-size="8" font-weight="bold" y="2.5" class="node-label">U</text></g><g class="noselect gnode" struct_name="m" transform="translate(186.78,40.26)" r="6.5"><circle class="node" r="6" node_type="nucleotide" style="fill: rgb(219, 219, 141);"></circle><text text-anchor="middle" font-size="8" font-weight="bold" y="2.5" class="node-label">U</text></g><g class="noselect gnode" struct_name="m" transform="translate(182.11,54.73)" r="6.5"><circle class="node" r="6" node_type="nucleotide" style="fill: rgb(219, 219, 141);"></circle><text text-anchor="middle" font-size="8" font-weight="bold" y="2.5" class="node-label">U</text></g><g class="noselect gnode" struct_name="m" transform="translate(169.41,62.89)" r="6.5"><circle class="node" r="6" node_type="nucleotide" style="fill: rgb(219, 219, 141);"></circle><text text-anchor="middle" font-size="8" font-weight="bold" y="2.5" class="node-label">C</text></g><g class="noselect gnode" struct_name="m" transform="translate(153.90,61.05)" r="6.5"><circle class="node" r="6" node_type="nucleotide" style="fill: lightgreen;"></circle><text text-anchor="middle" font-size="8" font-weight="bold" y="2.5" class="node-label">C</text></g><g class="noselect gnode" struct_name="m" transform="translate(140.39,71.19)" r="6.5"><circle class="node" r="6" node_type="nucleotide" style="fill: lightgreen;"></circle><text text-anchor="middle" font-size="8" font-weight="bold" y="2.5" class="node-label">U</text></g><g class="noselect gnode" struct_name="m" transform="translate(125.52,79.94)" r="6.5"><circle class="node" r="6" node_type="nucleotide" style="fill: lightgreen;"></circle><text text-anchor="middle" font-size="8" font-weight="bold" y="2.5" class="node-label">C</text></g><g class="noselect gnode" struct_name="m" transform="translate(109.16,86.71)" r="6.5"><circle class="node" r="6" node_type="nucleotide" style="fill: lightgreen;"></circle><text text-anchor="middle" font-size="8" font-weight="bold" y="2.5" class="node-label">A</text></g><g class="noselect gnode" struct_name="m" transform="translate(99.33,100.62)" r="6.5"><circle class="node" r="6" node_type="nucleotide" style="fill: lightgreen;"></circle><text text-anchor="middle" font-size="8" font-weight="bold" y="2.5" class="node-label">C</text></g><g class="noselect gnode" struct_name="m" transform="translate(98.43,118.38)" r="6.5"><circle class="node" r="6" node_type="nucleotide" style="fill: lightgreen;"></circle><text text-anchor="middle" font-size="8" font-weight="bold" y="2.5" class="node-label">A</text></g><g class="noselect gnode" struct_name="m" transform="translate(95.23,135.28)" r="6.5"><circle class="node" r="6" node_type="nucleotide" style="fill: lightgreen;"></circle><text text-anchor="middle" font-size="8" font-weight="bold" y="2.5" class="node-label">U</text></g><g class="noselect gnode" struct_name="m" transform="translate(90.37,151.40)" r="6.5"><circle class="node" r="6" node_type="nucleotide" style="fill: lightgreen;"></circle><text text-anchor="middle" font-size="8" font-weight="bold" y="2.5" class="node-label">U</text></g><g class="noselect gnode" struct_name="m" transform="translate(83.98,166.79)" r="6.5"><circle class="node" r="6" node_type="nucleotide" style="fill: lightgreen;"></circle><text text-anchor="middle" font-size="8" font-weight="bold" y="2.5" class="node-label">A</text></g><g class="noselect gnode" struct_name="m" transform="translate(76.21,181.37)" r="6.5"><circle class="node" r="6" node_type="nucleotide" style="fill: lightgreen;"></circle><text text-anchor="middle" font-size="8" font-weight="bold" y="2.5" class="node-label">A</text></g><g class="noselect gnode" struct_name="m" transform="translate(67.58,195.21)" r="6.5"><circle class="node" r="6" node_type="nucleotide" style="fill: lightgreen;"></circle><text text-anchor="middle" font-size="8" font-weight="bold" y="2.5" class="node-label">C</text></g><g class="noselect gnode" struct_name="m" transform="translate(58.74,208.66)" r="6.5"><circle class="node" r="6" node_type="nucleotide" style="fill: lightgreen;"></circle><text text-anchor="middle" font-size="8" font-weight="bold" y="2.5" class="node-label">G</text></g><g class="noselect gnode" struct_name="m" transform="translate(50.28,222.04)" r="6.5"><circle class="node" r="6" node_type="nucleotide" style="fill: lightgreen;"></circle><text text-anchor="middle" font-size="8" font-weight="bold" y="2.5" class="node-label">G</text></g><g class="noselect gnode" struct_name="m" transform="translate(43.12,235.52)" r="6.5"><circle class="node" r="6" node_type="nucleotide" style="fill: lightgreen;"></circle><text text-anchor="middle" font-size="8" font-weight="bold" y="2.5" class="node-label">A</text></g><g class="noselect gnode" struct_name="m" transform="translate(17.61,219.31)" r="6.5"><circle class="node label" r="6" node_type="label"></circle><text text-anchor="middle" font-size="8" font-weight="bold" y="2.5" class="node-label">10</text></g><g class="noselect gnode" struct_name="m" transform="translate(56.95,89.77)" r="6.5"><circle class="node label" r="6" node_type="label"></circle><text text-anchor="middle" font-size="8" font-weight="bold" y="2.5" class="node-label">20</text></g><g class="noselect gnode" struct_name="m" transform="translate(155.55,9.35)" r="6.5"><circle class="node label" r="6" node_type="label"></circle><text text-anchor="middle" font-size="8" font-weight="bold" y="2.5" class="node-label">30</text></g><g class="noselect gnode" struct_name="m" transform="translate(215.61,-11.96)" r="6.5"><circle class="node label" r="6" node_type="label"></circle><text text-anchor="middle" font-size="8" font-weight="bold" y="2.5" class="node-label">40</text></g><g class="noselect gnode" struct_name="m" transform="translate(121.56,96.05)" r="6.5"><circle class="node label" r="6" node_type="label"></circle><text text-anchor="middle" font-size="8" font-weight="bold" y="2.5" class="node-label">50</text></g><g class="noselect gnode" struct_name="m" transform="translate(44.98,250.69)" r="6.5"><circle class="node label" r="6" node_type="label"></circle><text text-anchor="middle" font-size="8" font-weight="bold" y="2.5" class="node-label">60</text></g><g class="noselect gnode" transform="translate(39.86,225.31)" r="6.5"><circle class="node" r="0" node_type="middle"></circle><text text-anchor="middle" font-size="8" font-weight="bold" y="2.5" class="node-label"></text></g><g class="noselect gnode" transform="translate(48.19,211.45)" r="6.5"><circle class="node" r="0" node_type="middle"></circle><text text-anchor="middle" font-size="8" font-weight="bold" y="2.5" class="node-label"></text></g><g class="noselect gnode" transform="translate(57.05,197.98)" r="6.5"><circle class="node" r="0" node_type="middle"></circle><text text-anchor="middle" font-size="8" font-weight="bold" y="2.5" class="node-label"></text></g><g class="noselect gnode" transform="translate(65.84,184.56)" r="6.5"><circle class="node" r="0" node_type="middle"></circle><text text-anchor="middle" font-size="8" font-weight="bold" y="2.5" class="node-label"></text></g><g class="noselect gnode" transform="translate(73.93,170.85)" r="6.5"><circle class="node" r="0" node_type="middle"></circle><text text-anchor="middle" font-size="8" font-weight="bold" y="2.5" class="node-label"></text></g><g class="noselect gnode" transform="translate(80.83,156.47)" r="6.5"><circle class="node" r="0" node_type="middle"></circle><text text-anchor="middle" font-size="8" font-weight="bold" y="2.5" class="node-label"></text></g><g class="noselect gnode" transform="translate(86.23,141.40)" r="6.5"><circle class="node" r="0" node_type="middle"></circle><text text-anchor="middle" font-size="8" font-weight="bold" y="2.5" class="node-label"></text></g><g class="noselect gnode" transform="translate(90.20,125.66)" r="6.5"><circle class="node" r="0" node_type="middle"></circle><text text-anchor="middle" font-size="8" font-weight="bold" y="2.5" class="node-label"></text></g><g class="noselect gnode" transform="translate(92.34,109.45)" r="6.5"><circle class="node" r="0" node_type="middle"></circle><text text-anchor="middle" font-size="8" font-weight="bold" y="2.5" class="node-label"></text></g><g class="noselect gnode" transform="translate(115.09,77.15)" r="6.5"><circle class="node" r="0" node_type="middle"></circle><text text-anchor="middle" font-size="8" font-weight="bold" y="2.5" class="node-label"></text></g><g class="noselect gnode" transform="translate(129.64,69.75)" r="6.5"><circle class="node" r="0" node_type="middle"></circle><text text-anchor="middle" font-size="8" font-weight="bold" y="2.5" class="node-label"></text></g><g class="noselect gnode" transform="translate(143.06,60.62)" r="6.5"><circle class="node" r="0" node_type="middle"></circle><text text-anchor="middle" font-size="8" font-weight="bold" y="2.5" class="node-label"></text></g><g class="noselect gnode" transform="translate(177.86,15.46)" r="6.5"><circle class="node" r="0" node_type="middle"></circle><text text-anchor="middle" font-size="8" font-weight="bold" y="2.5" class="node-label"></text></g><g class="noselect gnode" transform="translate(184.67,0.77)" r="6.5"><circle class="node" r="0" node_type="middle"></circle><text text-anchor="middle" font-size="8" font-weight="bold" y="2.5" class="node-label"></text></g><g class="noselect gnode" transform="translate(191.28,-13.89)" r="6.5"><circle class="node" r="0" node_type="middle"></circle><text text-anchor="middle" font-size="8" font-weight="bold" y="2.5" class="node-label"></text></g><g class="noselect gnode" transform="translate(198.07,-28.27)" r="6.5"><circle class="node" r="0" node_type="middle"></circle><text text-anchor="middle" font-size="8" font-weight="bold" y="2.5" class="node-label"></text></g><g class="noselect gnode" transform="translate(52.65,247.64)" r="6.5"><circle class="node" r="0" node_type="middle"></circle><text text-anchor="middle" font-size="8" font-weight="bold" y="2.5" class="node-label"></text></g><g class="noselect gnode" transform="translate(55.60,262.19)" r="6.5"><circle class="node" r="0" node_type="middle"></circle><text text-anchor="middle" font-size="8" font-weight="bold" y="2.5" class="node-label"></text></g><g class="noselect gnode" transform="translate(23.87,260.54)" r="6.5"><circle class="node" r="0" node_type="middle"></circle><text text-anchor="middle" font-size="8" font-weight="bold" y="2.5" class="node-label"></text></g><g class="noselect gnode" transform="translate(207.47,-47.08)" r="6.5"><circle class="node" r="0" node_type="middle"></circle><text text-anchor="middle" font-size="8" font-weight="bold" y="2.5" class="node-label"></text></g><g class="noselect gnode" transform="translate(89.50,83.25)" r="6.5"><circle class="node" r="0" node_type="middle"></circle><text text-anchor="middle" font-size="8" font-weight="bold" y="2.5" class="node-label"></text></g><g class="noselect gnode" transform="translate(164.59,41.24)" r="6.5"><circle class="node" r="0" node_type="middle"></circle><text text-anchor="middle" font-size="8" font-weight="bold" y="2.5" class="node-label"></text></g></g><line class="drag_line" x1="0" y1="0" x2="0" y2="0"></line></g></g></svg>