<svg xmlns="http://www.w3.org/2000/svg" viewBox="0 0 760 640" width="760" height="640"><style>svg {
  display: block;
  min-width: 100%;
  width: 100%;
  min-height: 100%;
}

circle.node {
  stroke: #ccc;
  stroke-width: 1px;
  opacity: 1;
  fill: white;
}

circle.node.label {
    stroke: transparent;
    stroke-width: 0;
    fill: white;
}

circle.outline_node {
    stroke-width: 1px;
    fill: red;
}

circle.protein {
    fill: gray;
    fill-opacity: 0.5;
    stroke-width: 4;
}

circle.hidden_outline {
    stroke-width: 0px;
}


line.link {
  stroke: #999;
  stroke-opacity: 0.8;
  stroke-width: 2;
}

line.basepair {
  stroke: red;
}

line.intermolecule {
  stroke: blue;
}

line.chain_chain {
  stroke-dasharray: 3,3;
}

line.fake {
  stroke: green;
}

.transparent {
    fill: transparent;
    stroke-width: 0;
    stroke-opacity: 0;
    opacity: 0;
    visibility: hidden;
}

.drag_line {
  stroke: #999;
  stroke-width: 2;
  pointer-events: none;
}

.drag_line_hidden {
  stroke: #999;
  stroke-width: 0;
  pointer-events: none;
}

.d3-tip {
    line-height: 1;
    font-weight: bold;
    padding: 6px;
    background: rgba(0, 0, 0, 0.6);
    color: #fff;
    border-radius: 4px;
    pointer-events: none;
          }

text.node-label {
    font-weight: bold;
    font-family: Tahoma, Geneva, sans-serif;
    color: rgb(100,100,100);
    pointer-events: none;
}

text {
    pointer-events: none;
}

g.gnode {

}

circle.outline_node.selected {
    visibility: visible;
}

circle.outline_node {
    visibility: hidden;
}

.brush .extent {
  fill-opacity: .1;
  stroke: #fff;
  shape-rendering: crispEdges;
}

.noselect {
    -webkit-touch-callout: none;
    -webkit-user-select: none;
    -khtml-user-select: none;
    -moz-user-select: none;
    -ms-user-select: none;
    user-select: none;
}

svg {
  display: block;
  min-width: 100%;
  width: 100%;
  min-height: 100%;
}

circle.node {
  stroke: #ccc;
  stroke-width: 1px;
  opacity: 1;
  fill: white;
}

circle.node.label {
    stroke: transparent;
    stroke-width: 0;
    fill: white;
}

circle.outline_node {
    stroke-width: 1px;
    fill: red;
}

circle.protein {
    fill: gray;
    fill-opacity: 0.5;
    stroke-width: 4;
}

circle.hidden_outline {
    stroke-width: 0px;
}


line.link {
  stroke: #999;
  stroke-opacity: 0.8;
  stroke-width: 2;
}

line.basepair {
  stroke: red;
}

line.intermolecule {
  stroke: blue;
}

line.chain_chain {
  stroke-dasharray: 3,3;
}

line.fake {
  stroke: green;
}

.transparent {
    fill: transparent;
    stroke-width: 0;
    stroke-opacity: 0;
    opacity: 0;
    visibility: hidden;
}

.drag_line {
  stroke: #999;
  stroke-width: 2;
  pointer-events: none;
}

.drag_line_hidden {
  stroke: #999;
  stroke-width: 0;
  pointer-events: none;
}

.d3-tip {
    line-height: 1;
    font-weight: bold;
    padding: 6px;
    background: rgba(0, 0, 0, 0.6);
    color: #fff;
    border-radius: 4px;
    pointer-events: none;
          }

text.node-label {
    font-weight: bold;
    font-family: Tahoma, Geneva, sans-serif;
    color: rgb(100,100,100);
    pointer-events: none;
}

text {
    pointer-events: none;
}

g.gnode {

}

circle.outline_node.selected {
    visibility: visible;
}

circle.outline_node {
    visibility: hidden;
}

.brush .extent {
  fill-opacity: .1;
  stroke: #fff;
  shape-rendering: crispEdges;
}

.noselect {
    -webkit-touch-callout: none;
    -webkit-user-select: none;
    -khtml-user-select: none;
    -moz-user-select: none;
    -ms-user-select: none;
    user-select: none;
}
/*# sourceURL=/Users/yumanakamura/ipy_sandbox/sandbox/claude_sandbox/mrna-transformer/scripts/eval/prerender/forna_vendor/fornac.css*/</style><style></style><g><g class="brush" style="pointer-events: all; -webkit-tap-highlight-color: rgba(0, 0, 0, 0);"><rect class="background" x="0" width="760" y="0" height="640" style="visibility: hidden; cursor: auto;"></rect><rect class="extent" x="0" width="0" y="0" height="0" style="cursor: move;"></rect><g class="resize n" transform="translate(0,0)" style="cursor: ns-resize; display: none;"><rect y="-3" width="0" height="6" style="visibility: hidden;"></rect></g><g class="resize e" transform="translate(0,0)" style="cursor: ew-resize; display: none;"><rect x="-3" width="6" height="0" style="visibility: hidden;"></rect></g><g class="resize s" transform="translate(0,0)" style="cursor: ns-resize; display: none;"><rect y="-3" width="0" height="6" style="visibility: hidden;"></rect></g><g class="resize w" transform="translate(0,0)" style="cursor: ew-resize; display: none;"><rect x="-3" width="6" height="0" style="visibility: hidden;"></rect></g><g class="resize nw" transform="translate(0,0)" style="cursor: nwse-resize; display: none;"><rect x="-3" y="-3" width="6" height="6" style="visibility: hidden;"></rect></g><g class="resize ne" transform="translate(0,0)" style="cursor: nesw-resize; display: none;"><rect x="-3" y="-3" width="6" height="6" style="visibility: hidden;"></rect></g><g class="resize se" transform="translate(0,0)" style="cursor: nwse-resize; display: none;"><rect x="-3" y="-3" width="6" height="6" style="visibility: hidden;"></rect></g><g class="resize sw" transform="translate(0,0)" style="cursor: nesw-resize; display: none;"><rect x="-3" y="-3" width="6" height="6" style="visibility: hidden;"></rect></g></g><g transform="translate(76.78,193.15) scale(1.55)"><g><line class="link backbone" x1="167.07" y1="140.77" x2="153.44" y2="146.67"></line><line class="link backbone" x1="153.44" y1="146.67" x2="138.45" y2="145.72"></line><line class="link backbone" x1="138.45" y1="145.72" x2="125.72" y2="137.93"></line><line class="link backbone" x1="125.72" y1="137.93" x2="116.56" y2="126.09"></line><line class="link basepair" x1="113.61" y1="111.03" x2="117.09" y2="96.46"></line><line class="link backbone" x1="116.56" y1="126.09" x2="113.61" y2="111.03"></line><line class="link basepair" x1="98.48" y1="107.73" x2="100.93" y2="93.48"></line><line class="link backbone" x1="113.61" y1="111.03" x2="98.48" y2="107.73"></line><line class="link basepair" x1="82.71" y1="105.42" x2="84.55" y2="91.09"></line><line class="link backbone" x1="98.48" y1="107.73" x2="82.71" y2="105.42"></line><line class="link basepair" x1="66.65" y1="103.56" x2="68.27" y2="89.23"></line><line class="link backbone" x1="82.71" y1="105.42" x2="66.65" y2="103.56"></line><line class="link basepair" x1="50.45" y1="101.88" x2="52.53" y2="87.20"></line><line class="link backbone" x1="66.65" y1="103.56" x2="50.45" y2="101.88"></line><line class="link basepair" x1="34.12" y1="104.35" x2="27.81" y2="90.90"></line><line class="link backbone" x1="50.45" y1="101.88" x2="34.12" y2="104.35"></line><line class="link basepair" x1="19.48" y1="110.76" x2="13.68" y2="97.09"></line><line class="link backbone" x1="34.12" y1="104.35" x2="19.48" y2="110.76"></line><line class="link backbone" x1="19.48" y1="110.76" x2="10.16" y2="123.00"></line><line class="link backbone" x1="10.16" y1="123.00" x2="-4.68" y2="121.06"></line><line class="link backbone" x1="-4.68" y1="121.06" x2="-10.52" y2="107.26"></line><line class="link backbone" x1="-10.52" y1="107.26" x2="-1.58" y2="95.25"></line><line class="link basepair" x1="13.68" y1="97.09" x2="19.48" y2="110.76"></line><line class="link backbone" x1="-1.58" y1="95.25" x2="13.68" y2="97.09"></line><line class="link basepair" x1="27.81" y1="90.90" x2="34.12" y2="104.35"></line><line class="link backbone" x1="13.68" y1="97.09" x2="27.81" y2="90.90"></line><line class="link backbone" x1="27.81" y1="90.90" x2="38.70" y2="79.96"></line><line class="link basepair" x1="52.53" y1="87.20" x2="50.45" y2="101.88"></line><line class="link backbone" x1="38.70" y1="79.96" x2="52.53" y2="87.20"></line><line class="link basepair" x1="68.27" y1="89.23" x2="66.65" y2="103.56"></line><line class="link backbone" x1="52.53" y1="87.20" x2="68.27" y2="89.23"></line><line class="link basepair" x1="84.55" y1="91.09" x2="82.71" y2="105.42"></line><line class="link backbone" x1="68.27" y1="89.23" x2="84.55" y2="91.09"></line><line class="link basepair" x1="100.93" y1="93.48" x2="98.48" y2="107.73"></line><line class="link backbone" x1="84.55" y1="91.09" x2="100.93" y2="93.48"></line><line class="link basepair" x1="117.09" y1="96.46" x2="113.61" y2="111.03"></line><line class="link backbone" x1="100.93" y1="93.48" x2="117.09" y2="96.46"></line><line class="link backbone" x1="117.09" y1="96.46" x2="128.23" y2="85.46"></line><line class="link backbone" x1="128.23" y1="85.46" x2="142.50" y2="80.04"></line><line class="link backbone" x1="142.50" y1="80.04" x2="157.66" y2="80.91"></line><line class="link basepair" x1="171.66" y1="88.04" x2="179.04" y2="100.99"></line><line class="link backbone" x1="157.66" y1="80.91" x2="171.66" y2="88.04"></line><line class="link basepair" x1="187.45" y1="81.17" x2="192.46" y2="94.70"></line><line class="link backbone" x1="171.66" y1="88.04" x2="187.45" y2="81.17"></line><line class="link basepair" x1="203.70" y1="76.26" x2="207.20" y2="90.38"></line><line class="link backbone" x1="187.45" y1="81.17" x2="203.70" y2="76.26"></line><line class="link basepair" x1="220.00" y1="72.95" x2="222.44" y2="87.32"></line><line class="link backbone" x1="203.70" y1="76.26" x2="220.00" y2="72.95"></line><line class="link basepair" x1="236.15" y1="70.65" x2="237.93" y2="85.15"></line><line class="link backbone" x1="220.00" y1="72.95" x2="236.15" y2="70.65"></line><line class="link basepair" x1="252.23" y1="68.95" x2="253.66" y2="83.49"></line><line class="link backbone" x1="236.15" y1="70.65" x2="252.23" y2="68.95"></line><line class="link basepair" x1="268.14" y1="67.48" x2="269.53" y2="82.05"></line><line class="link backbone" x1="252.23" y1="68.95" x2="268.14" y2="67.48"></line><line class="link basepair" x1="283.98" y1="65.98" x2="285.50" y2="80.50"></line><line class="link backbone" x1="268.14" y1="67.48" x2="283.98" y2="65.98"></line><line class="link basepair" x1="299.82" y1="64.20" x2="301.62" y2="78.63"></line><line class="link backbone" x1="283.98" y1="65.98" x2="299.82" y2="64.20"></line><line class="link basepair" x1="315.68" y1="62.07" x2="317.75" y2="76.44"></line><line class="link backbone" x1="299.82" y1="64.20" x2="315.68" y2="62.07"></line><line class="link basepair" x1="331.47" y1="59.63" x2="333.77" y2="74.00"></line><line class="link backbone" x1="315.68" y1="62.07" x2="331.47" y2="59.63"></line><line class="link basepair" x1="347.04" y1="56.86" x2="349.55" y2="71.61"></line><line class="link backbone" x1="331.47" y1="59.63" x2="347.04" y2="56.86"></line><line class="link backbone" x1="347.04" y1="56.86" x2="353.35" y2="42.75"></line><line class="link backbone" x1="353.35" y1="42.75" x2="365.80" y2="34.29"></line><line class="link backbone" x1="365.80" y1="34.29" x2="380.96" y2="33.79"></line><line class="link backbone" x1="380.96" y1="33.79" x2="393.79" y2="41.71"></line><line class="link backbone" x1="393.79" y1="41.71" x2="400.30" y2="55.28"></line><line class="link backbone" x1="400.30" y1="55.28" x2="398.72" y2="70.25"></line><line class="link backbone" x1="398.72" y1="70.25" x2="389.27" y2="82.02"></line><line class="link backbone" x1="389.27" y1="82.02" x2="374.80" y2="86.64"></line><line class="link backbone" x1="374.80" y1="86.64" x2="360.25" y2="82.81"></line><line class="link basepair" x1="349.55" y1="71.61" x2="347.04" y2="56.86"></line><line class="link backbone" x1="360.25" y1="82.81" x2="349.55" y2="71.61"></line><line class="link basepair" x1="333.77" y1="74.00" x2="331.47" y2="59.63"></line><line class="link backbone" x1="349.55" y1="71.61" x2="333.77" y2="74.00"></line><line class="link basepair" x1="317.75" y1="76.44" x2="315.68" y2="62.07"></line><line class="link backbone" x1="333.77" y1="74.00" x2="317.75" y2="76.44"></line><line class="link basepair" x1="301.62" y1="78.63" x2="299.82" y2="64.20"></line><line class="link backbone" x1="317.75" y1="76.44" x2="301.62" y2="78.63"></line><line class="link basepair" x1="285.50" y1="80.50" x2="283.98" y2="65.98"></line><line class="link backbone" x1="301.62" y1="78.63" x2="285.50" y2="80.50"></line><line class="link basepair" x1="269.53" y1="82.05" x2="268.14" y2="67.48"></line><line class="link backbone" x1="285.50" y1="80.50" x2="269.53" y2="82.05"></line><line class="link basepair" x1="253.66" y1="83.49" x2="252.23" y2="68.95"></line><line class="link backbone" x1="269.53" y1="82.05" x2="253.66" y2="83.49"></line><line class="link basepair" x1="237.93" y1="85.15" x2="236.15" y2="70.65"></line><line class="link backbone" x1="253.66" y1="83.49" x2="237.93" y2="85.15"></line><line class="link basepair" x1="222.44" y1="87.32" x2="220.00" y2="72.95"></line><line class="link backbone" x1="237.93" y1="85.15" x2="222.44" y2="87.32"></line><line class="link basepair" x1="207.20" y1="90.38" x2="203.70" y2="76.26"></line><line class="link backbone" x1="222.44" y1="87.32" x2="207.20" y2="90.38"></line><line class="link basepair" x1="192.46" y1="94.70" x2="187.45" y2="81.17"></line><line class="link backbone" x1="207.20" y1="90.38" x2="192.46" y2="94.70"></line><line class="link basepair" x1="179.04" y1="100.99" x2="171.66" y2="88.04"></line><line class="link backbone" x1="192.46" y1="94.70" x2="179.04" y2="100.99"></line><line class="link label_link" x1="50.45" y1="101.88" x2="49.81" y2="117.39"></line><line class="link label_link" x1="52.53" y1="87.20" x2="53.00" y2="71.60"></line><line class="link label_link" x1="203.70" y1="76.26" x2="201.60" y2="60.77"></line><line class="link label_link" x1="353.35" y1="42.75" x2="352.58" y2="27.24"></line><line class="link label_link" x1="333.77" y1="74.00" x2="335.94" y2="89.39"></line><line class="link label_link" x1="179.04" y1="100.99" x2="169.91" y2="113.25"></line><line class="link fake transparent" x1="171.66" y1="88.04" x2="182.26" y2="90.74"></line><line class="link fake transparent" x1="171.66" y1="88.04" x2="192.46" y2="94.70"></line><line class="link fake transparent" x1="187.45" y1="81.17" x2="182.26" y2="90.74"></line><line class="link fake transparent" x1="192.46" y1="94.70" x2="182.26" y2="90.74"></line><line class="link fake transparent" x1="179.04" y1="100.99" x2="182.26" y2="90.74"></line><line class="link fake transparent" x1="187.45" y1="81.17" x2="197.57" y2="85.20"></line><line class="link fake transparent" x1="203.70" y1="76.26" x2="197.57" y2="85.20"></line><line class="link fake transparent" x1="207.20" y1="90.38" x2="197.57" y2="85.20"></line><line class="link fake transparent" x1="192.46" y1="94.70" x2="197.57" y2="85.20"></line><line class="link fake transparent" x1="203.70" y1="76.26" x2="213.29" y2="81.43"></line><line class="link fake transparent" x1="220.00" y1="72.95" x2="213.29" y2="81.43"></line><line class="link fake transparent" x1="222.44" y1="87.32" x2="213.29" y2="81.43"></line><line class="link fake transparent" x1="207.20" y1="90.38" x2="213.29" y2="81.43"></line><line class="link fake transparent" x1="220.00" y1="72.95" x2="229.08" y2="78.83"></line><line class="link fake transparent" x1="236.15" y1="70.65" x2="229.08" y2="78.83"></line><line class="link fake transparent" x1="237.93" y1="85.15" x2="229.08" y2="78.83"></line><line class="link fake transparent" x1="222.44" y1="87.32" x2="229.08" y2="78.83"></line><line class="link fake transparent" x1="236.15" y1="70.65" x2="244.98" y2="76.95"></line><line class="link fake transparent" x1="252.23" y1="68.95" x2="244.98" y2="76.95"></line><line class="link fake transparent" x1="253.66" y1="83.49" x2="244.98" y2="76.95"></line><line class="link fake transparent" x1="237.93" y1="85.15" x2="244.98" y2="76.95"></line><line class="link fake transparent" x1="252.23" y1="68.95" x2="260.90" y2="75.50"></line><line class="link fake transparent" x1="268.14" y1="67.48" x2="260.90" y2="75.50"></line><line class="link fake transparent" x1="269.53" y1="82.05" x2="260.90" y2="75.50"></line><line class="link fake transparent" x1="253.66" y1="83.49" x2="260.90" y2="75.50"></line><line class="link fake transparent" x1="268.14" y1="67.48" x2="276.75" y2="74.07"></line><line class="link fake transparent" x1="283.98" y1="65.98" x2="276.75" y2="74.07"></line><line class="link fake transparent" x1="285.50" y1="80.50" x2="276.75" y2="74.07"></line><line class="link fake transparent" x1="269.53" y1="82.05" x2="276.75" y2="74.07"></line><line class="link fake transparent" x1="283.98" y1="65.98" x2="292.71" y2="72.42"></line><line class="link fake transparent" x1="299.82" y1="64.20" x2="292.71" y2="72.42"></line><line class="link fake transparent" x1="301.62" y1="78.63" x2="292.71" y2="72.42"></line><line class="link fake transparent" x1="285.50" y1="80.50" x2="292.71" y2="72.42"></line><line class="link fake transparent" x1="299.82" y1="64.20" x2="308.72" y2="70.40"></line><line class="link fake transparent" x1="315.68" y1="62.07" x2="308.72" y2="70.40"></line><line class="link fake transparent" x1="317.75" y1="76.44" x2="308.72" y2="70.40"></line><line class="link fake transparent" x1="301.62" y1="78.63" x2="308.72" y2="70.40"></line><line class="link fake transparent" x1="315.68" y1="62.07" x2="324.71" y2="68.09"></line><line class="link fake transparent" x1="331.47" y1="59.63" x2="324.71" y2="68.09"></line><line class="link fake transparent" x1="333.77" y1="74.00" x2="324.71" y2="68.09"></line><line class="link fake transparent" x1="317.75" y1="76.44" x2="324.71" y2="68.09"></line><line class="link fake transparent" x1="331.47" y1="59.63" x2="340.58" y2="65.53"></line><line class="link fake transparent" x1="347.04" y1="56.86" x2="340.58" y2="65.53"></line><line class="link fake transparent" x1="349.55" y1="71.61" x2="340.58" y2="65.53"></line><line class="link fake transparent" x1="333.77" y1="74.00" x2="340.58" y2="65.53"></line><line class="link fake transparent" x1="113.61" y1="111.03" x2="107.79" y2="102.00"></line><line class="link fake transparent" x1="98.48" y1="107.73" x2="107.79" y2="102.00"></line><line class="link fake transparent" x1="100.93" y1="93.48" x2="107.79" y2="102.00"></line><line class="link fake transparent" x1="117.09" y1="96.46" x2="107.79" y2="102.00"></line><line class="link fake transparent" x1="98.48" y1="107.73" x2="91.73" y2="99.26"></line><line class="link fake transparent" x1="82.71" y1="105.42" x2="91.73" y2="99.26"></line><line class="link fake transparent" x1="84.55" y1="91.09" x2="91.73" y2="99.26"></line><line class="link fake transparent" x1="100.93" y1="93.48" x2="91.73" y2="99.26"></line><line class="link fake transparent" x1="82.71" y1="105.42" x2="75.58" y2="97.25"></line><line class="link fake transparent" x1="66.65" y1="103.56" x2="75.58" y2="97.25"></line><line class="link fake transparent" x1="68.27" y1="89.23" x2="75.58" y2="97.25"></line><line class="link fake transparent" x1="84.55" y1="91.09" x2="75.58" y2="97.25"></line><line class="link fake transparent" x1="66.65" y1="103.56" x2="59.43" y2="95.53"></line><line class="link fake transparent" x1="50.45" y1="101.88" x2="59.43" y2="95.53"></line><line class="link fake transparent" x1="52.53" y1="87.20" x2="59.43" y2="95.53"></line><line class="link fake transparent" x1="68.27" y1="89.23" x2="59.43" y2="95.53"></line><line class="link fake transparent" x1="34.12" y1="104.35" x2="23.80" y2="100.85"></line><line class="link fake transparent" x1="19.48" y1="110.76" x2="23.80" y2="100.85"></line><line class="link fake transparent" x1="13.68" y1="97.09" x2="23.80" y2="100.85"></line><line class="link fake transparent" x1="27.81" y1="90.90" x2="23.80" y2="100.85"></line><line class="link fake transparent" x1="167.07" y1="140.77" x2="147.52" y2="112.84"></line><line class="link fake transparent" x1="167.07" y1="140.77" x2="128.23" y2="85.46"></line><line class="link fake transparent" x1="153.44" y1="146.67" x2="147.52" y2="112.84"></line><line class="link fake transparent" x1="153.44" y1="146.67" x2="142.50" y2="80.04"></line><line class="link fake transparent" x1="138.45" y1="145.72" x2="147.52" y2="112.84"></line><line class="link fake transparent" x1="138.45" y1="145.72" x2="157.66" y2="80.91"></line><line class="link fake transparent" x1="125.72" y1="137.93" x2="147.52" y2="112.84"></line><line class="link fake transparent" x1="125.72" y1="137.93" x2="171.66" y2="88.04"></line><line class="link fake transparent" x1="116.56" y1="126.09" x2="147.52" y2="112.84"></line><line class="link fake transparent" x1="116.56" y1="126.09" x2="179.04" y2="100.99"></line><line class="link fake transparent" x1="113.61" y1="111.03" x2="147.52" y2="112.84"></line><line class="link fake transparent" x1="113.61" y1="111.03" x2="180.81" y2="116.29"></line><line class="link fake transparent" x1="117.09" y1="96.46" x2="147.52" y2="112.84"></line><line class="link fake transparent" x1="117.09" y1="96.46" x2="175.58" y2="130.39"></line><line class="link fake transparent" x1="128.23" y1="85.46" x2="147.52" y2="112.84"></line><line class="link fake transparent" x1="128.23" y1="85.46" x2="167.07" y2="140.77"></line><line class="link fake transparent" x1="142.50" y1="80.04" x2="147.52" y2="112.84"></line><line class="link fake transparent" x1="142.50" y1="80.04" x2="153.44" y2="146.67"></line><line class="link fake transparent" x1="157.66" y1="80.91" x2="147.52" y2="112.84"></line><line class="link fake transparent" x1="157.66" y1="80.91" x2="138.45" y2="145.72"></line><line class="link fake transparent" x1="171.66" y1="88.04" x2="147.52" y2="112.84"></line><line class="link fake transparent" x1="171.66" y1="88.04" x2="125.72" y2="137.93"></line><line class="link fake transparent" x1="179.04" y1="100.99" x2="147.52" y2="112.84"></line><line class="link fake transparent" x1="179.04" y1="100.99" x2="116.56" y2="126.09"></line><line class="link fake transparent" x1="347.04" y1="56.86" x2="373.82" y2="59.87"></line><line class="link fake transparent" x1="347.04" y1="56.86" x2="400.30" y2="55.28"></line><line class="link fake transparent" x1="353.35" y1="42.75" x2="373.82" y2="59.87"></line><line class="link fake transparent" x1="353.35" y1="42.75" x2="398.72" y2="70.25"></line><line class="link fake transparent" x1="365.80" y1="34.29" x2="373.82" y2="59.87"></line><line class="link fake transparent" x1="365.80" y1="34.29" x2="389.27" y2="82.02"></line><line class="link fake transparent" x1="380.96" y1="33.79" x2="373.82" y2="59.87"></line><line class="link fake transparent" x1="380.96" y1="33.79" x2="374.80" y2="86.64"></line><line class="link fake transparent" x1="393.79" y1="41.71" x2="373.82" y2="59.87"></line><line class="link fake transparent" x1="393.79" y1="41.71" x2="360.25" y2="82.81"></line><line class="link fake transparent" x1="400.30" y1="55.28" x2="373.82" y2="59.87"></line><line class="link fake transparent" x1="400.30" y1="55.28" x2="349.55" y2="71.61"></line><line class="link fake transparent" x1="398.72" y1="70.25" x2="373.82" y2="59.87"></line><line class="link fake transparent" x1="398.72" y1="70.25" x2="347.04" y2="56.86"></line><line class="link fake transparent" x1="389.27" y1="82.02" x2="373.82" y2="59.87"></line><line class="link fake transparent" x1="389.27" y1="82.02" x2="353.35" y2="42.75"></line><line class="link fake transparent" x1="374.80" y1="86.64" x2="373.82" y2="59.87"></line><line class="link fake transparent" x1="374.80" y1="86.64" x2="365.80" y2="34.29"></line><line class="link fake transparent" x1="360.25" y1="82.81" x2="373.82" y2="59.87"></line><line class="link fake transparent" x1="360.25" y1="82.81" x2="380.96" y2="33.79"></line><line class="link fake transparent" x1="349.55" y1="71.61" x2="373.82" y2="59.87"></line><line class="link fake transparent" x1="349.55" y1="71.61" x2="393.79" y2="41.71"></line><line class="link fake transparent" x1="19.48" y1="110.76" x2="4.46" y2="109.05"></line><line class="link fake transparent" x1="19.48" y1="110.76" x2="-10.52" y2="107.26"></line><line class="link fake transparent" x1="10.16" y1="123.00" x2="4.46" y2="109.05"></line><line class="link fake transparent" x1="10.16" y1="123.00" x2="-1.58" y2="95.25"></line><line class="link fake transparent" x1="-4.68" y1="121.06" x2="4.46" y2="109.05"></line><line class="link fake transparent" x1="-4.68" y1="121.06" x2="13.68" y2="97.09"></line><line class="link fake transparent" x1="-10.52" y1="107.26" x2="4.46" y2="109.05"></line><line class="link fake transparent" x1="-10.52" y1="107.26" x2="19.48" y2="110.76"></line><line class="link fake transparent" x1="-1.58" y1="95.25" x2="4.46" y2="109.05"></line><line class="link fake transparent" x1="-1.58" y1="95.25" x2="10.16" y2="123.00"></line><line class="link fake transparent" x1="13.68" y1="97.09" x2="4.46" y2="109.05"></line><line class="link fake transparent" x1="13.68" y1="97.09" x2="-4.68" y2="121.06"></line><line class="link fake transparent" x1="50.45" y1="101.88" x2="40.76" y2="93.08"></line><line class="link fake transparent" x1="50.45" y1="101.88" x2="27.81" y2="90.90"></line><line class="link fake transparent" x1="34.12" y1="104.35" x2="40.76" y2="93.08"></line><line class="link fake transparent" x1="34.12" y1="104.35" x2="38.70" y2="79.96"></line><line class="link fake transparent" x1="27.81" y1="90.90" x2="40.76" y2="93.08"></line><line class="link fake transparent" x1="27.81" y1="90.90" x2="52.53" y2="87.20"></line><line class="link fake transparent" x1="38.70" y1="79.96" x2="40.76" y2="93.08"></line><line class="link fake transparent" x1="38.70" y1="79.96" x2="50.45" y2="101.88"></line><line class="link fake transparent" x1="52.53" y1="87.20" x2="40.76" y2="93.08"></line><line class="link fake transparent" x1="52.53" y1="87.20" x2="34.12" y2="104.35"></line></g><g><g class="noselect gnode" struct_name="m" transform="translate(167.07,140.77)" r="6.5"><circle class="node" r="6" node_type="nucleotide" style="fill: lightsalmon;"></circle><text text-anchor="middle" font-size="8" font-weight="bold" y="2.5" class="node-label">C</text></g><g class="noselect gnode" struct_name="m" transform="translate(153.44,146.67)" r="6.5"><circle class="node" r="6" node_type="nucleotide" style="fill: lightsalmon;"></circle><text text-anchor="middle" font-size="8" font-weight="bold" y="2.5" class="node-label">A</text></g><g class="noselect gnode" struct_name="m" transform="translate(138.45,145.72)" r="6.5"><circle class="node" r="6" node_type="nucleotide" style="fill: lightsalmon;"></circle><text text-anchor="middle" font-size="8" font-weight="bold" y="2.5" class="node-label">A</text></g><g class="noselect gnode" struct_name="m" transform="translate(125.72,137.93)" r="6.5"><circle class="node" r="6" node_type="nucleotide" style="fill: lightsalmon;"></circle><text text-anchor="middle" font-size="8" font-weight="bold" y="2.5" class="node-label">C</text></g><g class="noselect gnode" struct_name="m" transform="translate(116.56,126.09)" r="6.5"><circle class="node" r="6" node_type="nucleotide" style="fill: lightsalmon;"></circle><text text-anchor="middle" font-size="8" font-weight="bold" y="2.5" class="node-label">U</text></g><g class="noselect gnode" struct_name="m" transform="translate(113.61,111.03)" r="6.5"><circle class="node" r="6" node_type="nucleotide" style="fill: lightgreen;"></circle><text text-anchor="middle" font-size="8" font-weight="bold" y="2.5" class="node-label">C</text></g><g class="noselect gnode" struct_name="m" transform="translate(98.48,107.73)" r="6.5"><circle class="node" r="6" node_type="nucleotide" style="fill: lightgreen;"></circle><text text-anchor="middle" font-size="8" font-weight="bold" y="2.5" class="node-label">C</text></g><g class="noselect gnode" struct_name="m" transform="translate(82.71,105.42)" r="6.5"><circle class="node" r="6" node_type="nucleotide" style="fill: lightgreen;"></circle><text text-anchor="middle" font-size="8" font-weight="bold" y="2.5" class="node-label">A</text></g><g class="noselect gnode" struct_name="m" transform="translate(66.65,103.56)" r="6.5"><circle class="node" r="6" node_type="nucleotide" style="fill: lightgreen;"></circle><text text-anchor="middle" font-size="8" font-weight="bold" y="2.5" class="node-label">G</text></g><g class="noselect gnode" struct_name="m" transform="translate(50.45,101.88)" r="6.5"><circle class="node" r="6" node_type="nucleotide" style="fill: lightgreen;"></circle><text text-anchor="middle" font-size="8" font-weight="bold" y="2.5" class="node-label">G</text></g><g class="noselect gnode" struct_name="m" transform="translate(34.12,104.35)" r="6.5"><circle class="node" r="6" node_type="nucleotide" style="fill: lightgreen;"></circle><text text-anchor="middle" font-size="8" font-weight="bold" y="2.5" class="node-label">C</text></g><g class="noselect gnode" struct_name="m" transform="translate(19.48,110.76)" r="6.5"><circle class="node" r="6" node_type="nucleotide" style="fill: lightgreen;"></circle><text text-anchor="middle" font-size="8" font-weight="bold" y="2.5" class="node-label">A</text></g><g class="noselect gnode" struct_name="m" transform="translate(10.16,123.00)" r="6.5"><circle class="node" r="6" node_type="nucleotide" style="fill: lightblue;"></circle><text text-anchor="middle" font-size="8" font-weight="bold" y="2.5" class="node-label">G</text></g><g class="noselect gnode" struct_name="m" transform="translate(-4.68,121.06)" r="6.5"><circle class="node" r="6" node_type="nucleotide" style="fill: lightblue;"></circle><text text-anchor="middle" font-size="8" font-weight="bold" y="2.5" class="node-label">A</text></g><g class="noselect gnode" struct_name="m" transform="translate(-10.52,107.26)" r="6.5"><circle class="node" r="6" node_type="nucleotide" style="fill: lightblue;"></circle><text text-anchor="middle" font-size="8" font-weight="bold" y="2.5" class="node-label">U</text></g><g class="noselect gnode" struct_name="m" transform="translate(-1.58,95.25)" r="6.5"><circle class="node" r="6" node_type="nucleotide" style="fill: lightblue;"></circle><text text-anchor="middle" font-size="8" font-weight="bold" y="2.5" class="node-label">C</text></g><g class="noselect gnode" struct_name="m" transform="translate(13.68,97.09)" r="6.5"><circle class="node" r="6" node_type="nucleotide" style="fill: lightgreen;"></circle><text text-anchor="middle" font-size="8" font-weight="bold" y="2.5" class="node-label">U</text></g><g class="noselect gnode" struct_name="m" transform="translate(27.81,90.90)" r="6.5"><circle class="node" r="6" node_type="nucleotide" style="fill: lightgreen;"></circle><text text-anchor="middle" font-size="8" font-weight="bold" y="2.5" class="node-label">G</text></g><g class="noselect gnode" struct_name="m" transform="translate(38.70,79.96)" r="6.5"><circle class="node" r="6" node_type="nucleotide" style="fill: rgb(219, 219, 141);"></circle><text text-anchor="middle" font-size="8" font-weight="bold" y="2.5" class="node-label">A</text></g><g class="noselect gnode" struct_name="m" transform="translate(52.53,87.20)" r="6.5"><circle class="node" r="6" node_type="nucleotide" style="fill: lightgreen;"></circle><text text-anchor="middle" font-size="8" font-weight="bold" y="2.5" class="node-label">C</text></g><g class="noselect gnode" struct_name="m" transform="translate(68.27,89.23)" r="6.5"><circle class="node" r="6" node_type="nucleotide" style="fill: lightgreen;"></circle><text text-anchor="middle" font-size="8" font-weight="bold" y="2.5" class="node-label">C</text></g><g class="noselect gnode" struct_name="m" transform="translate(84.55,91.09)" r="6.5"><circle class="node" r="6" node_type="nucleotide" style="fill: lightgreen;"></circle><text text-anchor="middle" font-size="8" font-weight="bold" y="2.5" class="node-label">U</text></g><g class="noselect gnode" struct_name="m" transform="translate(100.93,93.48)" r="6.5"><circle class="node" r="6" node_type="nucleotide" style="fill: lightgreen;"></circle><text text-anchor="middle" font-size="8" font-weight="bold" y="2.5" class="node-label">G</text></g><g class="noselect gnode" struct_name="m" transform="translate(117.09,96.46)" r="6.5"><circle class="node" r="6" node_type="nucleotide" style="fill: lightgreen;"></circle><text text-anchor="middle" font-size="8" font-weight="bold" y="2.5" class="node-label">G</text></g><g class="noselect gnode" struct_name="m" transform="translate(128.23,85.46)" r="6.5"><circle class="node" r="6" node_type="nucleotide" style="fill: lightsalmon;"></circle><text text-anchor="middle" font-size="8" font-weight="bold" y="2.5" class="node-label">U</text></g><g class="noselect gnode" struct_name="m" transform="translate(142.50,80.04)" r="6.5"><circle class="node" r="6" node_type="nucleotide" style="fill: lightsalmon;"></circle><text text-anchor="middle" font-size="8" font-weight="bold" y="2.5" class="node-label">A</text></g><g class="noselect gnode" struct_name="m" transform="translate(157.66,80.91)" r="6.5"><circle class="node" r="6" node_type="nucleotide" style="fill: lightsalmon;"></circle><text text-anchor="middle" font-size="8" font-weight="bold" y="2.5" class="node-label">U</text></g><g class="noselect gnode" struct_name="m" transform="translate(171.66,88.04)" r="6.5"><circle class="node" r="6" node_type="nucleotide" style="fill: lightgreen;"></circle><text text-anchor="middle" font-size="8" font-weight="bold" y="2.5" class="node-label">C</text></g><g class="noselect gnode" struct_name="m" transform="translate(187.45,81.17)" r="6.5"><circle class="node" r="6" node_type="nucleotide" style="fill: lightgreen;"></circle><text text-anchor="middle" font-size="8" font-weight="bold" y="2.5" class="node-label">C</text></g><g class="noselect gnode" struct_name="m" transform="translate(203.70,76.26)" r="6.5"><circle class="node" r="6" node_type="nucleotide" style="fill: lightgreen;"></circle><text text-anchor="middle" font-size="8" font-weight="bold" y="2.5" class="node-label">C</text></g><g class="noselect gnode" struct_name="m" transform="translate(220.00,72.95)" r="6.5"><circle class="node" r="6" node_type="nucleotide" style="fill: lightgreen;"></circle><text text-anchor="middle" font-size="8" font-weight="bold" y="2.5" class="node-label">C</text></g><g class="noselect gnode" struct_name="m" transform="translate(236.15,70.65)" r="6.5"><circle class="node" r="6" node_type="nucleotide" style="fill: lightgreen;"></circle><text text-anchor="middle" font-size="8" font-weight="bold" y="2.5" class="node-label">G</text></g><g class="noselect gnode" struct_name="m" transform="translate(252.23,68.95)" r="6.5"><circle class="node" r="6" node_type="nucleotide" style="fill: lightgreen;"></circle><text text-anchor="middle" font-size="8" font-weight="bold" y="2.5" class="node-label">U</text></g><g class="noselect gnode" struct_name="m" transform="translate(268.14,67.48)" r="6.5"><circle class="node" r="6" node_type="nucleotide" style="fill: lightgreen;"></circle><text text-anchor="middle" font-size="8" font-weight="bold" y="2.5" class="node-label">A</text></g><g class="noselect gnode" struct_name="m" transform="translate(283.98,65.98)" r="6.5"><circle class="node" r="6" node_type="nucleotide" style="fill: lightgreen;"></circle><text text-anchor="middle" font-size="8" font-weight="bold" y="2.5" class="node-label">A</text></g><g class="noselect gnode" struct_name="m" transform="translate(299.82,64.20)" r="6.5"><circle class="node" r="6" node_type="nucleotide" style="fill: lightgreen;"></circle><text text-anchor="middle" font-size="8" font-weight="bold" y="2.5" class="node-label">U</text></g><g class="noselect gnode" struct_name="m" transform="translate(315.68,62.07)" r="6.5"><circle class="node" r="6" node_type="nucleotide" style="fill: lightgreen;"></circle><text text-anchor="middle" font-size="8" font-weight="bold" y="2.5" class="node-label">G</text></g><g class="noselect gnode" struct_name="m" transform="translate(331.47,59.63)" r="6.5"><circle class="node" r="6" node_type="nucleotide" style="fill: lightgreen;"></circle><text text-anchor="middle" font-size="8" font-weight="bold" y="2.5" class="node-label">C</text></g><g class="noselect gnode" struct_name="m" transform="translate(347.04,56.86)" r="6.5"><circle class="node" r="6" node_type="nucleotide" style="fill: lightgreen;"></circle><text text-anchor="middle" font-size="8" font-weight="bold" y="2.5" class="node-label">C</text></g><g class="noselect gnode" struct_name="m" transform="translate(353.35,42.75)" r="6.5"><circle class="node" r="6" node_type="nucleotide" style="fill: lightblue;"></circle><text text-anchor="middle" font-size="8" font-weight="bold" y="2.5" class="node-label">A</text></g><g class="noselect gnode" struct_name="m" transform="translate(365.80,34.29)" r="6.5"><circle class="node" r="6" node_type="nucleotide" style="fill: lightblue;"></circle><text text-anchor="middle" font-size="8" font-weight="bold" y="2.5" class="node-label">U</text></g><g class="noselect gnode" struct_name="m" transform="translate(380.96,33.79)" r="6.5"><circle class="node" r="6" node_type="nucleotide" style="fill: lightblue;"></circle><text text-anchor="middle" font-size="8" font-weight="bold" y="2.5" class="node-label">G</text></g><g class="noselect gnode" struct_name="m" transform="translate(393.79,41.71)" r="6.5"><circle class="node" r="6" node_type="nucleotide" style="fill: lightblue;"></circle><text text-anchor="middle" font-size="8" font-weight="bold" y="2.5" class="node-label">G</text></g><g class="noselect gnode" struct_name="m" transform="translate(400.30,55.28)" r="6.5"><circle class="node" r="6" node_type="nucleotide" style="fill: lightblue;"></circle><text text-anchor="middle" font-size="8" font-weight="bold" y="2.5" class="node-label">A</text></g><g class="noselect gnode" struct_name="m" transform="translate(398.72,70.25)" r="6.5"><circle class="node" r="6" node_type="nucleotide" style="fill: lightblue;"></circle><text text-anchor="middle" font-size="8" font-weight="bold" y="2.5" class="node-label">A</text></g><g class="noselect gnode" struct_name="m" transform="translate(389.27,82.02)" r="6.5"><circle class="node" r="6" node_type="nucleotide" style="fill: lightblue;"></circle><text text-anchor="middle" font-size="8" font-weight="bold" y="2.5" class="node-label">C</text></g><g class="noselect gnode" struct_name="m" transform="translate(374.80,86.64)" r="6.5"><circle class="node" r="6" node_type="nucleotide" style="fill: lightblue;"></circle><text text-anchor="middle" font-size="8" font-weight="bold" y="2.5" class="node-label">A</text></g><g class="noselect gnode" struct_name="m" transform="translate(360.25,82.81)" r="6.5"><circle class="node" r="6" node_type="nucleotide" style="fill: lightblue;"></circle><text text-anchor="middle" font-size="8" font-weight="bold" y="2.5" class="node-label">A</text></g><g class="noselect gnode" struct_name="m" transform="translate(349.55,71.61)" r="6.5"><circle class="node" r="6" node_type="nucleotide" style="fill: lightgreen;"></circle><text text-anchor="middle" font-size="8" font-weight="bold" y="2.5" class="node-label">G</text></g><g class="noselect gnode" struct_name="m" transform="translate(333.77,74.00)" r="6.5"><circle class="node" r="6" node_type="nucleotide" style="fill: lightgreen;"></circle><text text-anchor="middle" font-size="8" font-weight="bold" y="2.5" class="node-label">G</text></g><g class="noselect gnode" struct_name="m" transform="translate(317.75,76.44)" r="6.5"><circle class="node" r="6" node_type="nucleotide" style="fill: lightgreen;"></circle><text text-anchor="middle" font-size="8" font-weight="bold" y="2.5" class="node-label">C</text></g><g class="noselect gnode" struct_name="m" transform="translate(301.62,78.63)" r="6.5"><circle class="node" r="6" node_type="nucleotide" style="fill: lightgreen;"></circle><text text-anchor="middle" font-size="8" font-weight="bold" y="2.5" class="node-label">A</text></g><g class="noselect gnode" struct_name="m" transform="translate(285.50,80.50)" r="6.5"><circle class="node" r="6" node_type="nucleotide" style="fill: lightgreen;"></circle><text text-anchor="middle" font-size="8" font-weight="bold" y="2.5" class="node-label">U</text></g><g class="noselect gnode" struct_name="m" transform="translate(269.53,82.05)" r="6.5"><circle class="node" r="6" node_type="nucleotide" style="fill: lightgreen;"></circle><text text-anchor="middle" font-size="8" font-weight="bold" y="2.5" class="node-label">U</text></g><g class="noselect gnode" struct_name="m" transform="translate(253.66,83.49)" r="6.5"><circle class="node" r="6" node_type="nucleotide" style="fill: lightgreen;"></circle><text text-anchor="middle" font-size="8" font-weight="bold" y="2.5" class="node-label">A</text></g><g class="noselect gnode" struct_name="m" transform="translate(237.93,85.15)" r="6.5"><circle class="node" r="6" node_type="nucleotide" style="fill: lightgreen;"></circle><text text-anchor="middle" font-size="8" font-weight="bold" y="2.5" class="node-label">C</text></g><g class="noselect gnode" struct_name="m" transform="translate(222.44,87.32)" r="6.5"><circle class="node" r="6" node_type="nucleotide" style="fill: lightgreen;"></circle><text text-anchor="middle" font-size="8" font-weight="bold" y="2.5" class="node-label">G</text></g><g class="noselect gnode" struct_name="m" transform="translate(207.20,90.38)" r="6.5"><circle class="node" r="6" node_type="nucleotide" style="fill: lightgreen;"></circle><text text-anchor="middle" font-size="8" font-weight="bold" y="2.5" class="node-label">G</text></g><g class="noselect gnode" struct_name="m" transform="translate(192.46,94.70)" r="6.5"><circle class="node" r="6" node_type="nucleotide" style="fill: lightgreen;"></circle><text text-anchor="middle" font-size="8" font-weight="bold" y="2.5" class="node-label">G</text></g><g class="noselect gnode" struct_name="m" transform="translate(179.04,100.99)" r="6.5"><circle class="node" r="6" node_type="nucleotide" style="fill: lightgreen;"></circle><text text-anchor="middle" font-size="8" font-weight="bold" y="2.5" class="node-label">G</text></g><g class="noselect gnode" struct_name="m" transform="translate(49.81,117.39)" r="6.5"><circle class="node label" r="6" node_type="label"></circle><text text-anchor="middle" font-size="8" font-weight="bold" y="2.5" class="node-label">10</text></g><g class="noselect gnode" struct_name="m" transform="translate(53.00,71.60)" r="6.5"><circle class="node label" r="6" node_type="label"></circle><text text-anchor="middle" font-size="8" font-weight="bold" y="2.5" class="node-label">20</text></g><g class="noselect gnode" struct_name="m" transform="translate(201.60,60.77)" r="6.5"><circle class="node label" r="6" node_type="label"></circle><text text-anchor="middle" font-size="8" font-weight="bold" y="2.5" class="node-label">30</text></g><g class="noselect gnode" struct_name="m" transform="translate(352.58,27.24)" r="6.5"><circle class="node label" r="6" node_type="label"></circle><text text-anchor="middle" font-size="8" font-weight="bold" y="2.5" class="node-label">40</text></g><g class="noselect gnode" struct_name="m" transform="translate(335.94,89.39)" r="6.5"><circle class="node label" r="6" node_type="label"></circle><text text-anchor="middle" font-size="8" font-weight="bold" y="2.5" class="node-label">50</text></g><g class="noselect gnode" struct_name="m" transform="translate(169.91,113.25)" r="6.5"><circle class="node label" r="6" node_type="label"></circle><text text-anchor="middle" font-size="8" font-weight="bold" y="2.5" class="node-label">60</text></g><g class="noselect gnode" transform="translate(182.26,90.74)" r="6.5"><circle class="node" r="0" node_type="middle"></circle><text text-anchor="middle" font-size="8" font-weight="bold" y="2.5" class="node-label"></text></g><g class="noselect gnode" transform="translate(197.57,85.20)" r="6.5"><circle class="node" r="0" node_type="middle"></circle><text text-anchor="middle" font-size="8" font-weight="bold" y="2.5" class="node-label"></text></g><g class="noselect gnode" transform="translate(213.29,81.43)" r="6.5"><circle class="node" r="0" node_type="middle"></circle><text text-anchor="middle" font-size="8" font-weight="bold" y="2.5" class="node-label"></text></g><g class="noselect gnode" transform="translate(229.08,78.83)" r="6.5"><circle class="node" r="0" node_type="middle"></circle><text text-anchor="middle" font-size="8" font-weight="bold" y="2.5" class="node-label"></text></g><g class="noselect gnode" transform="translate(244.98,76.95)" r="6.5"><circle class="node" r="0" node_type="middle"></circle><text text-anchor="middle" font-size="8" font-weight="bold" y="2.5" class="node-label"></text></g><g class="noselect gnode" transform="translate(260.90,75.50)" r="6.5"><circle class="node" r="0" node_type="middle"></circle><text text-anchor="middle" font-size="8" font-weight="bold" y="2.5" class="node-label"></text></g><g class="noselect gnode" transform="translate(276.75,74.07)" r="6.5"><circle class="node" r="0" node_type="middle"></circle><text text-anchor="middle" font-size="8" font-weight="bold" y="2.5" class="node-label"></text></g><g class="noselect gnode" transform="translate(292.71,72.42)" r="6.5"><circle class="node" r="0" node_type="middle"></circle><text text-anchor="middle" font-size="8" font-weight="bold" y="2.5" class="node-label"></text></g><g class="noselect gnode" transform="translate(308.72,70.40)" r="6.5"><circle class="node" r="0" node_type="middle"></circle><text text-anchor="middle" font-size="8" font-weight="bold" y="2.5" class="node-label"></text></g><g class="noselect gnode" transform="translate(324.71,68.09)" r="6.5"><circle class="node" r="0" node_type="middle"></circle><text text-anchor="middle" font-size="8" font-weight="bold" y="2.5" class="node-label"></text></g><g class="noselect gnode" transform="translate(340.58,65.53)" r="6.5"><circle class="node" r="0" node_type="middle"></circle><text text-anchor="middle" font-size="8" font-weight="bold" y="2.5" class="node-label"></text></g><g class="noselect gnode" transform="translate(107.79,102.00)" r="6.5"><circle class="node" r="0" node_type="middle"></circle><text text-anchor="middle" font-size="8" font-weight="bold" y="2.5" class="node-label"></text></g><g class="noselect gnode" transform="translate(91.73,99.26)" r="6.5"><circle class="node" r="0" node_type="middle"></circle><text text-anchor="middle" font-size="8" font-weight="bold" y="2.5" class="node-label"></text></g><g class="noselect gnode" transform="translate(75.58,97.25)" r="6.5"><circle class="node" r="0" node_type="middle"></circle><text text-anchor="middle" font-size="8" font-weight="bold" y="2.5" class="node-label"></text></g><g class="noselect gnode" transform="translate(59.43,95.53)" r="6.5"><circle class="node" r="0" node_type="middle"></circle><text text-anchor="middle" font-size="8" font-weight="bold" y="2.5" class="node-label"></text></g><g class="noselect gnode" transform="translate(23.80,100.85)" r="6.5"><circle class="node" r="0" node_type="middle"></circle><text text-anchor="middle" font-size="8" font-weight="bold" y="2.5" class="node-label"></text></g><g class="noselect gnode" transform="translate(180.81,116.29)" r="6.5"><circle class="node" r="0" node_type="middle"></circle><text text-anchor="middle" font-size="8" font-weight="bold" y="2.5" class="node-label"></text></g><g class="noselect gnode" transform="translate(175.58,130.39)" r="6.5"><circle class="node" r="0" node_type="middle"></circle><text text-anchor="middle" font-size="8" font-weight="bold" y="2.5" class="node-label"></text></g><g class="noselect gnode" transform="translate(147.52,112.84)" r="6.5"><circle class="node" r="0" node_type="middle"></circle><text text-anchor="middle" font-size="8" font-weight="bold" y="2.5" class="node-label"></text></g><g class="noselect gnode" transform="translate(373.82,59.87)" r="6.5"><circle class="node" r="0" node_type="middle"></circle><text text-anchor="middle" font-size="8" font-weight="bold" y="2.5" class="node-label"></text></g><g class="noselect gnode" transform="translate(4.46,109.05)" r="6.5"><circle class="node" r="0" node_type="middle"></circle><text text-anchor="middle" font-size="8" font-weight="bold" y="2.5" class="node-label"></text></g><g class="noselect gnode" transform="translate(40.76,93.08)" r="6.5"><circle class="node" r="0" node_type="middle"></circle><text text-anchor="middle" font-size="8" font-weight="bold" y="2.5" class="node-label"></text></g></g><line class="drag_line" x1="0" y1="0" x2="0" y2="0"></line></g></g></svg>