<svg xmlns="http://www.w3.org/2000/svg" viewBox="0 0 760 640" width="760" height="640"><style>svg {
  display: block;
  min-width: 100%;
  width: 100%;
  min-height: 100%;
}

circle.node {
  stroke: #ccc;
  stroke-width: 1px;
  opacity: 1;
  fill: white;
}

circle.node.label {
    stroke: transparent;
    stroke-width: 0;
    fill: white;
}

circle.outline_node {
    stroke-width: 1px;
    fill: red;
}

circle.protein {
    fill: gray;
    fill-opacity: 0.5;
    stroke-width: 4;
}

circle.hidden_outline {
    stroke-width: 0px;
}


line.link {
  stroke: #999;
  stroke-opacity: 0.8;
  stroke-width: 2;
}

line.basepair {
  stroke: red;
}

line.intermolecule {
  stroke: blue;
}

line.chain_chain {
  stroke-dasharray: 3,3;
}

line.fake {
  stroke: green;
}

.transparent {
    fill: transparent;
    stroke-width: 0;
    stroke-opacity: 0;
    opacity: 0;
    visibility: hidden;
}

.drag_line {
  stroke: #999;
  stroke-width: 2;
  pointer-events: none;
}

.drag_line_hidden {
  stroke: #999;
  stroke-width: 0;
  pointer-events: none;
}

.d3-tip {
    line-height: 1;
    font-weight: bold;
    padding: 6px;
    background: rgba(0, 0, 0, 0.6);
    color: #fff;
    border-radius: 4px;
    pointer-events: none;
          }

text.node-label {
    font-weight: bold;
    font-family: Tahoma, Geneva, sans-serif;
    color: rgb(100,100,100);
    pointer-events: none;
}

text {
    pointer-events: none;
}

g.gnode {

}

circle.outline_node.selected {
    visibility: visible;
}

circle.outline_node {
    visibility: hidden;
}

.brush .extent {
  fill-opacity: .1;
  stroke: #fff;
  shape-rendering: crispEdges;
}

.noselect {
    -webkit-touch-callout: none;
    -webkit-user-select: none;
    -khtml-user-select: none;
    -moz-user-select: none;
    -ms-user-select: none;
    user-select: none;
}

svg {
  display: block;
  min-width: 100%;
  width: 100%;
  min-height: 100%;
}

circle.node {
  stroke: #ccc;
  stroke-width: 1px;
  opacity: 1;
  fill: white;
}

circle.node.label {
    stroke: transparent;
    stroke-width: 0;
    fill: white;
}

circle.outline_node {
    stroke-width: 1px;
    fill: red;
}

circle.protein {
    fill: gray;
    fill-opacity: 0.5;
    stroke-width: 4;
}

circle.hidden_outline {
    stroke-width: 0px;
}


line.link {
  stroke: #999;
  stroke-opacity: 0.8;
  stroke-width: 2;
}

line.basepair {
  stroke: red;
}

line.intermolecule {
  stroke: blue;
}

line.chain_chain {
  stroke-dasharray: 3,3;
}

line.fake {
  stroke: green;
}

.transparent {
    fill: transparent;
    stroke-width: 0;
    stroke-opacity: 0;
    opacity: 0;
    visibility: hidden;
}

.drag_line {
  stroke: #999;
  stroke-width: 2;
  pointer-events: none;
}

.drag_line_hidden {
  stroke: #999;
  stroke-width: 0;
  pointer-events: none;
}

.d3-tip {
    line-height: 1;
    font-weight: bold;
    padding: 6px;
    background: rgba(0, 0, 0, 0.6);
    color: #fff;
    border-radius: 4px;
    pointer-events: none;
          }

text.node-label {
    font-weight: bold;
    font-family: Tahoma, Geneva, sans-serif;
    color: rgb(100,100,100);
    pointer-events: none;
}

text {
    pointer-events: none;
}

g.gnode {

}

circle.outline_node.selected {
    visibility: visible;
}

circle.outline_node {
    visibility: hidden;
}

.brush .extent {
  fill-opacity: .1;
  stroke: #fff;
  shape-rendering: crispEdges;
}

.noselect {
    -webkit-touch-callout: none;
    -webkit-user-select: none;
    -khtml-user-select: none;
    -moz-user-select: none;
    -ms-user-select: none;
    user-select: none;
}
/*# sourceURL=/Users/yumanakamura/ipy_sandbox/sandbox/claude_sandbox/mrna-transformer/scripts/eval/prerender/forna_vendor/fornac.css*/</style><style></style><g><g class="brush" style="pointer-events: all; -webkit-tap-highlight-color: rgba(0, 0, 0, 0);"><rect class="background" x="0" width="760" y="0" height="640" style="visibility: hidden; cursor: auto;"></rect><rect class="extent" x="0" width="0" y="0" height="0" style="cursor: move;"></rect><g class="resize n" transform="translate(0,0)" style="cursor: ns-resize; display: none;"><rect y="-3" width="0" height="6" style="visibility: hidden;"></rect></g><g class="resize e" transform="translate(0,0)" style="cursor: ew-resize; display: none;"><rect x="-3" width="6" height="0" style="visibility: hidden;"></rect></g><g class="resize s" transform="translate(0,0)" style="cursor: ns-resize; display: none;"><rect y="-3" width="0" height="6" style="visibility: hidden;"></rect></g><g class="resize w" transform="translate(0,0)" style="cursor: ew-resize; display: none;"><rect x="-3" width="6" height="0" style="visibility: hidden;"></rect></g><g class="resize nw" transform="translate(0,0)" style="cursor: nwse-resize; display: none;"><rect x="-3" y="-3" width="6" height="6" style="visibility: hidden;"></rect></g><g class="resize ne" transform="translate(0,0)" style="cursor: nesw-resize; display: none;"><rect x="-3" y="-3" width="6" height="6" style="visibility: hidden;"></rect></g><g class="resize se" transform="translate(0,0)" style="cursor: nwse-resize; display: none;"><rect x="-3" y="-3" width="6" height="6" style="visibility: hidden;"></rect></g><g class="resize sw" transform="translate(0,0)" style="cursor: nesw-resize; display: none;"><rect x="-3" y="-3" width="6" height="6" style="visibility: hidden;"></rect></g></g><g transform="translate(176.36,289.57) scale(1.69)"><g><line class="link backbone" x1="110.09" y1="153.39" x2="99.15" y2="143.38"></line><line class="link backbone" x1="99.15" y1="143.38" x2="93.03" y2="129.66"></line><line class="link backbone" x1="93.03" y1="129.66" x2="92.76" y2="114.69"></line><line class="link backbone" x1="92.76" y1="114.69" x2="99.19" y2="100.97"></line><line class="link backbone" x1="99.19" y1="100.97" x2="110.79" y2="91.11"></line><line class="link basepair" x1="125.54" y1="86.96" x2="140.60" y2="87.21"></line><line class="link backbone" x1="110.79" y1="91.11" x2="125.54" y2="86.96"></line><line class="link basepair" x1="124.14" y1="72.54" x2="138.09" y2="69.47"></line><line class="link backbone" x1="125.54" y1="86.96" x2="124.14" y2="72.54"></line><line class="link basepair" x1="119.48" y1="58.08" x2="132.82" y2="52.70"></line><line class="link backbone" x1="124.14" y1="72.54" x2="119.48" y2="58.08"></line><line class="link basepair" x1="112.75" y1="44.47" x2="125.27" y2="37.18"></line><line class="link backbone" x1="119.48" y1="58.08" x2="112.75" y2="44.47"></line><line class="link basepair" x1="104.23" y1="31.64" x2="115.74" y2="22.98"></line><line class="link backbone" x1="112.75" y1="44.47" x2="104.23" y2="31.64"></line><line class="link basepair" x1="94.18" y1="19.68" x2="104.81" y2="9.96"></line><line class="link backbone" x1="104.23" y1="31.64" x2="94.18" y2="19.68"></line><line class="link basepair" x1="83.05" y1="8.61" x2="92.87" y2="-1.98"></line><line class="link backbone" x1="94.18" y1="19.68" x2="83.05" y2="8.61"></line><line class="link basepair" x1="71.15" y1="-1.65" x2="80.10" y2="-12.94"></line><line class="link backbone" x1="83.05" y1="8.61" x2="71.15" y2="-1.65"></line><line class="link basepair" x1="58.70" y1="-10.29" x2="66.22" y2="-22.97"></line><line class="link backbone" x1="71.15" y1="-1.65" x2="58.70" y2="-10.29"></line><line class="link backbone" x1="58.70" y1="-10.29" x2="43.71" y2="-9.87"></line><line class="link backbone" x1="43.71" y1="-9.87" x2="35.84" y2="-22.29"></line><line class="link basepair" x1="42.67" y1="-35.69" x2="57.28" y2="-37.09"></line><line class="link backbone" x1="35.84" y1="-22.29" x2="42.67" y2="-35.69"></line><line class="link basepair" x1="40.14" y1="-50.69" x2="54.10" y2="-54.01"></line><line class="link backbone" x1="42.67" y1="-35.69" x2="40.14" y2="-50.69"></line><line class="link basepair" x1="35.68" y1="-65.77" x2="49.31" y2="-70.39"></line><line class="link backbone" x1="40.14" y1="-50.69" x2="35.68" y2="-65.77"></line><line class="link basepair" x1="30.01" y1="-80.60" x2="43.31" y2="-86.13"></line><line class="link backbone" x1="35.68" y1="-65.77" x2="30.01" y2="-80.60"></line><line class="link basepair" x1="23.45" y1="-95.05" x2="36.54" y2="-101.30"></line><line class="link backbone" x1="30.01" y1="-80.60" x2="23.45" y2="-95.05"></line><line class="link basepair" x1="16.23" y1="-108.97" x2="29.51" y2="-115.84"></line><line class="link backbone" x1="23.45" y1="-95.05" x2="16.23" y2="-108.97"></line><line class="link backbone" x1="16.23" y1="-108.97" x2="2.02" y2="-115.27"></line><line class="link backbone" x1="2.02" y1="-115.27" x2="-1.86" y2="-129.97"></line><line class="link backbone" x1="-1.86" y1="-129.97" x2="7.23" y2="-142.14"></line><line class="link backbone" x1="7.23" y1="-142.14" x2="22.45" y2="-142.66"></line><line class="link backbone" x1="22.45" y1="-142.66" x2="32.32" y2="-131.21"></line><line class="link basepair" x1="29.51" y1="-115.84" x2="16.23" y2="-108.97"></line><line class="link backbone" x1="32.32" y1="-131.21" x2="29.51" y2="-115.84"></line><line class="link basepair" x1="36.54" y1="-101.30" x2="23.45" y2="-95.05"></line><line class="link backbone" x1="29.51" y1="-115.84" x2="36.54" y2="-101.30"></line><line class="link basepair" x1="43.31" y1="-86.13" x2="30.01" y2="-80.60"></line><line class="link backbone" x1="36.54" y1="-101.30" x2="43.31" y2="-86.13"></line><line class="link basepair" x1="49.31" y1="-70.39" x2="35.68" y2="-65.77"></line><line class="link backbone" x1="43.31" y1="-86.13" x2="49.31" y2="-70.39"></line><line class="link basepair" x1="54.10" y1="-54.01" x2="40.14" y2="-50.69"></line><line class="link backbone" x1="49.31" y1="-70.39" x2="54.10" y2="-54.01"></line><line class="link basepair" x1="57.28" y1="-37.09" x2="42.67" y2="-35.69"></line><line class="link backbone" x1="54.10" y1="-54.01" x2="57.28" y2="-37.09"></line><line class="link basepair" x1="66.22" y1="-22.97" x2="58.70" y2="-10.29"></line><line class="link backbone" x1="57.28" y1="-37.09" x2="66.22" y2="-22.97"></line><line class="link basepair" x1="80.10" y1="-12.94" x2="71.15" y2="-1.65"></line><line class="link backbone" x1="66.22" y1="-22.97" x2="80.10" y2="-12.94"></line><line class="link basepair" x1="92.87" y1="-1.98" x2="83.05" y2="8.61"></line><line class="link backbone" x1="80.10" y1="-12.94" x2="92.87" y2="-1.98"></line><line class="link basepair" x1="104.81" y1="9.96" x2="94.18" y2="19.68"></line><line class="link backbone" x1="92.87" y1="-1.98" x2="104.81" y2="9.96"></line><line class="link basepair" x1="115.74" y1="22.98" x2="104.23" y2="31.64"></line><line class="link backbone" x1="104.81" y1="9.96" x2="115.74" y2="22.98"></line><line class="link basepair" x1="125.27" y1="37.18" x2="112.75" y2="44.47"></line><line class="link backbone" x1="115.74" y1="22.98" x2="125.27" y2="37.18"></line><line class="link basepair" x1="132.82" y1="52.70" x2="119.48" y2="58.08"></line><line class="link backbone" x1="125.27" y1="37.18" x2="132.82" y2="52.70"></line><line class="link basepair" x1="138.09" y1="69.47" x2="124.14" y2="72.54"></line><line class="link backbone" x1="132.82" y1="52.70" x2="138.09" y2="69.47"></line><line class="link basepair" x1="140.60" y1="87.21" x2="125.54" y2="86.96"></line><line class="link backbone" x1="138.09" y1="69.47" x2="140.60" y2="87.21"></line><line class="link backbone" x1="140.60" y1="87.21" x2="153.79" y2="96.43"></line><line class="link basepair" x1="163.30" y1="109.41" x2="164.28" y2="124.37"></line><line class="link backbone" x1="153.79" y1="96.43" x2="163.30" y2="109.41"></line><line class="link basepair" x1="181.44" y1="111.58" x2="178.36" y2="125.55"></line><line class="link backbone" x1="163.30" y1="109.41" x2="181.44" y2="111.58"></line><line class="link basepair" x1="198.23" y1="117.19" x2="192.36" y2="130.41"></line><line class="link backbone" x1="181.44" y1="111.58" x2="198.23" y2="117.19"></line><line class="link basepair" x1="213.29" y1="125.18" x2="205.62" y2="137.60"></line><line class="link backbone" x1="198.23" y1="117.19" x2="213.29" y2="125.18"></line><line class="link basepair" x1="226.86" y1="134.35" x2="218.07" y2="146.34"></line><line class="link backbone" x1="213.29" y1="125.18" x2="226.86" y2="134.35"></line><line class="link backbone" x1="226.86" y1="134.35" x2="242.18" y2="136.45"></line><line class="link backbone" x1="242.18" y1="136.45" x2="247.90" y2="150.35"></line><line class="link backbone" x1="247.90" y1="150.35" x2="238.77" y2="162.22"></line><line class="link backbone" x1="238.77" y1="162.22" x2="223.94" y2="160.44"></line><line class="link basepair" x1="218.07" y1="146.34" x2="226.86" y2="134.35"></line><line class="link backbone" x1="223.94" y1="160.44" x2="218.07" y2="146.34"></line><line class="link basepair" x1="205.62" y1="137.60" x2="213.29" y2="125.18"></line><line class="link backbone" x1="218.07" y1="146.34" x2="205.62" y2="137.60"></line><line class="link basepair" x1="192.36" y1="130.41" x2="198.23" y2="117.19"></line><line class="link backbone" x1="205.62" y1="137.60" x2="192.36" y2="130.41"></line><line class="link basepair" x1="178.36" y1="125.55" x2="181.44" y2="111.58"></line><line class="link backbone" x1="192.36" y1="130.41" x2="178.36" y2="125.55"></line><line class="link basepair" x1="164.28" y1="124.37" x2="163.30" y2="109.41"></line><line class="link backbone" x1="178.36" y1="125.55" x2="164.28" y2="124.37"></line><line class="link backbone" x1="164.28" y1="124.37" x2="160.51" y2="139.12"></line><line class="link backbone" x1="160.51" y1="139.12" x2="150.98" y2="150.88"></line><line class="link label_link" x1="112.75" y1="44.47" x2="100.40" y2="53.83"></line><line class="link label_link" x1="35.68" y1="-65.77" x2="20.83" y2="-61.02"></line><line class="link label_link" x1="36.54" y1="-101.30" x2="48.77" y2="-110.99"></line><line class="link label_link" x1="125.27" y1="37.18" x2="139.00" y2="29.58"></line><line class="link label_link" x1="242.18" y1="136.45" x2="257.48" y2="134.26"></line><line class="link label_link" x1="150.98" y1="150.88" x2="136.25" y2="155.15"></line><line class="link fake transparent" x1="42.67" y1="-35.69" x2="49.05" y2="-44.43"></line><line class="link fake transparent" x1="42.67" y1="-35.69" x2="54.10" y2="-54.01"></line><line class="link fake transparent" x1="40.14" y1="-50.69" x2="49.05" y2="-44.43"></line><line class="link fake transparent" x1="54.10" y1="-54.01" x2="49.05" y2="-44.43"></line><line class="link fake transparent" x1="57.28" y1="-37.09" x2="49.05" y2="-44.43"></line><line class="link fake transparent" x1="40.14" y1="-50.69" x2="45.16" y2="-60.32"></line><line class="link fake transparent" x1="35.68" y1="-65.77" x2="45.16" y2="-60.32"></line><line class="link fake transparent" x1="49.31" y1="-70.39" x2="45.16" y2="-60.32"></line><line class="link fake transparent" x1="54.10" y1="-54.01" x2="45.16" y2="-60.32"></line><line class="link fake transparent" x1="35.68" y1="-65.77" x2="39.84" y2="-75.84"></line><line class="link fake transparent" x1="30.01" y1="-80.60" x2="39.84" y2="-75.84"></line><line class="link fake transparent" x1="43.31" y1="-86.13" x2="39.84" y2="-75.84"></line><line class="link fake transparent" x1="49.31" y1="-70.39" x2="39.84" y2="-75.84"></line><line class="link fake transparent" x1="30.01" y1="-80.60" x2="33.50" y2="-90.90"></line><line class="link fake transparent" x1="23.45" y1="-95.05" x2="33.50" y2="-90.90"></line><line class="link fake transparent" x1="36.54" y1="-101.30" x2="33.50" y2="-90.90"></line><line class="link fake transparent" x1="43.31" y1="-86.13" x2="33.50" y2="-90.90"></line><line class="link fake transparent" x1="23.45" y1="-95.05" x2="26.48" y2="-105.46"></line><line class="link fake transparent" x1="16.23" y1="-108.97" x2="26.48" y2="-105.46"></line><line class="link fake transparent" x1="29.51" y1="-115.84" x2="26.48" y2="-105.46"></line><line class="link fake transparent" x1="36.54" y1="-101.30" x2="26.48" y2="-105.46"></line><line class="link fake transparent" x1="163.30" y1="109.41" x2="171.89" y2="116.78"></line><line class="link fake transparent" x1="181.44" y1="111.58" x2="171.89" y2="116.78"></line><line class="link fake transparent" x1="178.36" y1="125.55" x2="171.89" y2="116.78"></line><line class="link fake transparent" x1="164.28" y1="124.37" x2="171.89" y2="116.78"></line><line class="link fake transparent" x1="181.44" y1="111.58" x2="187.90" y2="120.47"></line><line class="link fake transparent" x1="198.23" y1="117.19" x2="187.90" y2="120.47"></line><line class="link fake transparent" x1="192.36" y1="130.41" x2="187.90" y2="120.47"></line><line class="link fake transparent" x1="178.36" y1="125.55" x2="187.90" y2="120.47"></line><line class="link fake transparent" x1="198.23" y1="117.19" x2="202.67" y2="127.08"></line><line class="link fake transparent" x1="213.29" y1="125.18" x2="202.67" y2="127.08"></line><line class="link fake transparent" x1="205.62" y1="137.60" x2="202.67" y2="127.08"></line><line class="link fake transparent" x1="192.36" y1="130.41" x2="202.67" y2="127.08"></line><line class="link fake transparent" x1="213.29" y1="125.18" x2="216.20" y2="135.61"></line><line class="link fake transparent" x1="226.86" y1="134.35" x2="216.20" y2="135.61"></line><line class="link fake transparent" x1="218.07" y1="146.34" x2="216.20" y2="135.61"></line><line class="link fake transparent" x1="205.62" y1="137.60" x2="216.20" y2="135.61"></line><line class="link fake transparent" x1="125.54" y1="86.96" x2="132.88" y2="78.98"></line><line class="link fake transparent" x1="124.14" y1="72.54" x2="132.88" y2="78.98"></line><line class="link fake transparent" x1="138.09" y1="69.47" x2="132.88" y2="78.98"></line><line class="link fake transparent" x1="140.60" y1="87.21" x2="132.88" y2="78.98"></line><line class="link fake transparent" x1="124.14" y1="72.54" x2="129.26" y2="62.98"></line><line class="link fake transparent" x1="119.48" y1="58.08" x2="129.26" y2="62.98"></line><line class="link fake transparent" x1="132.82" y1="52.70" x2="129.26" y2="62.98"></line><line class="link fake transparent" x1="138.09" y1="69.47" x2="129.26" y2="62.98"></line><line class="link fake transparent" x1="119.48" y1="58.08" x2="123.06" y2="47.81"></line><line class="link fake transparent" x1="112.75" y1="44.47" x2="123.06" y2="47.81"></line><line class="link fake transparent" x1="125.27" y1="37.18" x2="123.06" y2="47.81"></line><line class="link fake transparent" x1="132.82" y1="52.70" x2="123.06" y2="47.81"></line><line class="link fake transparent" x1="112.75" y1="44.47" x2="114.94" y2="33.79"></line><line class="link fake transparent" x1="104.23" y1="31.64" x2="114.94" y2="33.79"></line><line class="link fake transparent" x1="115.74" y1="22.98" x2="114.94" y2="33.79"></line><line class="link fake transparent" x1="125.27" y1="37.18" x2="114.94" y2="33.79"></line><line class="link fake transparent" x1="104.23" y1="31.64" x2="105.06" y2="20.78"></line><line class="link fake transparent" x1="94.18" y1="19.68" x2="105.06" y2="20.78"></line><line class="link fake transparent" x1="104.81" y1="9.96" x2="105.06" y2="20.78"></line><line class="link fake transparent" x1="115.74" y1="22.98" x2="105.06" y2="20.78"></line><line class="link fake transparent" x1="94.18" y1="19.68" x2="93.95" y2="8.85"></line><line class="link fake transparent" x1="83.05" y1="8.61" x2="93.95" y2="8.85"></line><line class="link fake transparent" x1="92.87" y1="-1.98" x2="93.95" y2="8.85"></line><line class="link fake transparent" x1="104.81" y1="9.96" x2="93.95" y2="8.85"></line><line class="link fake transparent" x1="83.05" y1="8.61" x2="81.99" y2="-2.21"></line><line class="link fake transparent" x1="71.15" y1="-1.65" x2="81.99" y2="-2.21"></line><line class="link fake transparent" x1="80.10" y1="-12.94" x2="81.99" y2="-2.21"></line><line class="link fake transparent" x1="92.87" y1="-1.98" x2="81.99" y2="-2.21"></line><line class="link fake transparent" x1="71.15" y1="-1.65" x2="69.31" y2="-12.28"></line><line class="link fake transparent" x1="58.70" y1="-10.29" x2="69.31" y2="-12.28"></line><line class="link fake transparent" x1="66.22" y1="-22.97" x2="69.31" y2="-12.28"></line><line class="link fake transparent" x1="80.10" y1="-12.94" x2="69.31" y2="-12.28"></line><line class="link fake transparent" x1="110.09" y1="153.39" x2="128.68" y2="122.14"></line><line class="link fake transparent" x1="110.09" y1="153.39" x2="140.60" y2="87.21"></line><line class="link fake transparent" x1="99.15" y1="143.38" x2="128.68" y2="122.14"></line><line class="link fake transparent" x1="99.15" y1="143.38" x2="153.79" y2="96.43"></line><line class="link fake transparent" x1="93.03" y1="129.66" x2="128.68" y2="122.14"></line><line class="link fake transparent" x1="93.03" y1="129.66" x2="163.30" y2="109.41"></line><line class="link fake transparent" x1="92.76" y1="114.69" x2="128.68" y2="122.14"></line><line class="link fake transparent" x1="92.76" y1="114.69" x2="164.28" y2="124.37"></line><line class="link fake transparent" x1="99.19" y1="100.97" x2="128.68" y2="122.14"></line><line class="link fake transparent" x1="99.19" y1="100.97" x2="160.51" y2="139.12"></line><line class="link fake transparent" x1="110.79" y1="91.11" x2="128.68" y2="122.14"></line><line class="link fake transparent" x1="110.79" y1="91.11" x2="150.98" y2="150.88"></line><line class="link fake transparent" x1="125.54" y1="86.96" x2="128.68" y2="122.14"></line><line class="link fake transparent" x1="125.54" y1="86.96" x2="138.30" y2="158.53"></line><line class="link fake transparent" x1="140.60" y1="87.21" x2="128.68" y2="122.14"></line><line class="link fake transparent" x1="140.60" y1="87.21" x2="122.12" y2="157.22"></line><line class="link fake transparent" x1="153.79" y1="96.43" x2="128.68" y2="122.14"></line><line class="link fake transparent" x1="153.79" y1="96.43" x2="110.09" y2="153.39"></line><line class="link fake transparent" x1="163.30" y1="109.41" x2="128.68" y2="122.14"></line><line class="link fake transparent" x1="163.30" y1="109.41" x2="99.15" y2="143.38"></line><line class="link fake transparent" x1="164.28" y1="124.37" x2="128.68" y2="122.14"></line><line class="link fake transparent" x1="164.28" y1="124.37" x2="93.03" y2="129.66"></line><line class="link fake transparent" x1="160.51" y1="139.12" x2="128.68" y2="122.14"></line><line class="link fake transparent" x1="160.51" y1="139.12" x2="92.76" y2="114.69"></line><line class="link fake transparent" x1="150.98" y1="150.88" x2="128.68" y2="122.14"></line><line class="link fake transparent" x1="150.98" y1="150.88" x2="99.19" y2="100.97"></line><line class="link fake transparent" x1="16.23" y1="-108.97" x2="15.46" y2="-126.52"></line><line class="link fake transparent" x1="16.23" y1="-108.97" x2="7.23" y2="-142.14"></line><line class="link fake transparent" x1="2.02" y1="-115.27" x2="15.46" y2="-126.52"></line><line class="link fake transparent" x1="2.02" y1="-115.27" x2="22.45" y2="-142.66"></line><line class="link fake transparent" x1="-1.86" y1="-129.97" x2="15.46" y2="-126.52"></line><line class="link fake transparent" x1="-1.86" y1="-129.97" x2="32.32" y2="-131.21"></line><line class="link fake transparent" x1="7.23" y1="-142.14" x2="15.46" y2="-126.52"></line><line class="link fake transparent" x1="7.23" y1="-142.14" x2="29.51" y2="-115.84"></line><line class="link fake transparent" x1="22.45" y1="-142.66" x2="15.46" y2="-126.52"></line><line class="link fake transparent" x1="22.45" y1="-142.66" x2="16.23" y2="-108.97"></line><line class="link fake transparent" x1="32.32" y1="-131.21" x2="15.46" y2="-126.52"></line><line class="link fake transparent" x1="32.32" y1="-131.21" x2="2.02" y2="-115.27"></line><line class="link fake transparent" x1="29.51" y1="-115.84" x2="15.46" y2="-126.52"></line><line class="link fake transparent" x1="29.51" y1="-115.84" x2="-1.86" y2="-129.97"></line><line class="link fake transparent" x1="226.86" y1="134.35" x2="232.92" y2="148.31"></line><line class="link fake transparent" x1="226.86" y1="134.35" x2="238.77" y2="162.22"></line><line class="link fake transparent" x1="242.18" y1="136.45" x2="232.92" y2="148.31"></line><line class="link fake transparent" x1="242.18" y1="136.45" x2="223.94" y2="160.44"></line><line class="link fake transparent" x1="247.90" y1="150.35" x2="232.92" y2="148.31"></line><line class="link fake transparent" x1="247.90" y1="150.35" x2="218.07" y2="146.34"></line><line class="link fake transparent" x1="238.77" y1="162.22" x2="232.92" y2="148.31"></line><line class="link fake transparent" x1="238.77" y1="162.22" x2="226.86" y2="134.35"></line><line class="link fake transparent" x1="223.94" y1="160.44" x2="232.92" y2="148.31"></line><line class="link fake transparent" x1="223.94" y1="160.44" x2="242.18" y2="136.45"></line><line class="link fake transparent" x1="218.07" y1="146.34" x2="232.92" y2="148.31"></line><line class="link fake transparent" x1="218.07" y1="146.34" x2="247.90" y2="150.35"></line><line class="link fake transparent" x1="58.70" y1="-10.29" x2="51.09" y2="-23.24"></line><line class="link fake transparent" x1="58.70" y1="-10.29" x2="42.67" y2="-35.69"></line><line class="link fake transparent" x1="43.71" y1="-9.87" x2="51.09" y2="-23.24"></line><line class="link fake transparent" x1="43.71" y1="-9.87" x2="57.28" y2="-37.09"></line><line class="link fake transparent" x1="35.84" y1="-22.29" x2="51.09" y2="-23.24"></line><line class="link fake transparent" x1="35.84" y1="-22.29" x2="66.22" y2="-22.97"></line><line class="link fake transparent" x1="42.67" y1="-35.69" x2="51.09" y2="-23.24"></line><line class="link fake transparent" x1="42.67" y1="-35.69" x2="58.70" y2="-10.29"></line><line class="link fake transparent" x1="57.28" y1="-37.09" x2="51.09" y2="-23.24"></line><line class="link fake transparent" x1="57.28" y1="-37.09" x2="43.71" y2="-9.87"></line><line class="link fake transparent" x1="66.22" y1="-22.97" x2="51.09" y2="-23.24"></line><line class="link fake transparent" x1="66.22" y1="-22.97" x2="35.84" y2="-22.29"></line></g><g><g class="noselect gnode" struct_name="m" transform="translate(110.09,153.39)" r="6.5"><circle class="node" r="6" node_type="nucleotide" style="fill: lightsalmon;"></circle><text text-anchor="middle" font-size="8" font-weight="bold" y="2.5" class="node-label">G</text></g><g class="noselect gnode" struct_name="m" transform="translate(99.15,143.38)" r="6.5"><circle class="node" r="6" node_type="nucleotide" style="fill: lightsalmon;"></circle><text text-anchor="middle" font-size="8" font-weight="bold" y="2.5" class="node-label">G</text></g><g class="noselect gnode" struct_name="m" transform="translate(93.03,129.66)" r="6.5"><circle class="node" r="6" node_type="nucleotide" style="fill: lightsalmon;"></circle><text text-anchor="middle" font-size="8" font-weight="bold" y="2.5" class="node-label">U</text></g><g class="noselect gnode" struct_name="m" transform="translate(92.76,114.69)" r="6.5"><circle class="node" r="6" node_type="nucleotide" style="fill: lightsalmon;"></circle><text text-anchor="middle" font-size="8" font-weight="bold" y="2.5" class="node-label">A</text></g><g class="noselect gnode" struct_name="m" transform="translate(99.19,100.97)" r="6.5"><circle class="node" r="6" node_type="nucleotide" style="fill: lightsalmon;"></circle><text text-anchor="middle" font-size="8" font-weight="bold" y="2.5" class="node-label">A</text></g><g class="noselect gnode" struct_name="m" transform="translate(110.79,91.11)" r="6.5"><circle class="node" r="6" node_type="nucleotide" style="fill: lightsalmon;"></circle><text text-anchor="middle" font-size="8" font-weight="bold" y="2.5" class="node-label">U</text></g><g class="noselect gnode" struct_name="m" transform="translate(125.54,86.96)" r="6.5"><circle class="node" r="6" node_type="nucleotide" style="fill: lightgreen;"></circle><text text-anchor="middle" font-size="8" font-weight="bold" y="2.5" class="node-label">A</text></g><g class="noselect gnode" struct_name="m" transform="translate(124.14,72.54)" r="6.5"><circle class="node" r="6" node_type="nucleotide" style="fill: lightgreen;"></circle><text text-anchor="middle" font-size="8" font-weight="bold" y="2.5" class="node-label">G</text></g><g class="noselect gnode" struct_name="m" transform="translate(119.48,58.08)" r="6.5"><circle class="node" r="6" node_type="nucleotide" style="fill: lightgreen;"></circle><text text-anchor="middle" font-size="8" font-weight="bold" y="2.5" class="node-label">C</text></g><g class="noselect gnode" struct_name="m" transform="translate(112.75,44.47)" r="6.5"><circle class="node" r="6" node_type="nucleotide" style="fill: lightgreen;"></circle><text text-anchor="middle" font-size="8" font-weight="bold" y="2.5" class="node-label">C</text></g><g class="noselect gnode" struct_name="m" transform="translate(104.23,31.64)" r="6.5"><circle class="node" r="6" node_type="nucleotide" style="fill: lightgreen;"></circle><text text-anchor="middle" font-size="8" font-weight="bold" y="2.5" class="node-label">C</text></g><g class="noselect gnode" struct_name="m" transform="translate(94.18,19.68)" r="6.5"><circle class="node" r="6" node_type="nucleotide" style="fill: lightgreen;"></circle><text text-anchor="middle" font-size="8" font-weight="bold" y="2.5" class="node-label">U</text></g><g class="noselect gnode" struct_name="m" transform="translate(83.05,8.61)" r="6.5"><circle class="node" r="6" node_type="nucleotide" style="fill: lightgreen;"></circle><text text-anchor="middle" font-size="8" font-weight="bold" y="2.5" class="node-label">G</text></g><g class="noselect gnode" struct_name="m" transform="translate(71.15,-1.65)" r="6.5"><circle class="node" r="6" node_type="nucleotide" style="fill: lightgreen;"></circle><text text-anchor="middle" font-size="8" font-weight="bold" y="2.5" class="node-label">G</text></g><g class="noselect gnode" struct_name="m" transform="translate(58.70,-10.29)" r="6.5"><circle class="node" r="6" node_type="nucleotide" style="fill: lightgreen;"></circle><text text-anchor="middle" font-size="8" font-weight="bold" y="2.5" class="node-label">A</text></g><g class="noselect gnode" struct_name="m" transform="translate(43.71,-9.87)" r="6.5"><circle class="node" r="6" node_type="nucleotide" style="fill: rgb(219, 219, 141);"></circle><text text-anchor="middle" font-size="8" font-weight="bold" y="2.5" class="node-label">A</text></g><g class="noselect gnode" struct_name="m" transform="translate(35.84,-22.29)" r="6.5"><circle class="node" r="6" node_type="nucleotide" style="fill: rgb(219, 219, 141);"></circle><text text-anchor="middle" font-size="8" font-weight="bold" y="2.5" class="node-label">A</text></g><g class="noselect gnode" struct_name="m" transform="translate(42.67,-35.69)" r="6.5"><circle class="node" r="6" node_type="nucleotide" style="fill: lightgreen;"></circle><text text-anchor="middle" font-size="8" font-weight="bold" y="2.5" class="node-label">G</text></g><g class="noselect gnode" struct_name="m" transform="translate(40.14,-50.69)" r="6.5"><circle class="node" r="6" node_type="nucleotide" style="fill: lightgreen;"></circle><text text-anchor="middle" font-size="8" font-weight="bold" y="2.5" class="node-label">C</text></g><g class="noselect gnode" struct_name="m" transform="translate(35.68,-65.77)" r="6.5"><circle class="node" r="6" node_type="nucleotide" style="fill: lightgreen;"></circle><text text-anchor="middle" font-size="8" font-weight="bold" y="2.5" class="node-label">U</text></g><g class="noselect gnode" struct_name="m" transform="translate(30.01,-80.60)" r="6.5"><circle class="node" r="6" node_type="nucleotide" style="fill: lightgreen;"></circle><text text-anchor="middle" font-size="8" font-weight="bold" y="2.5" class="node-label">G</text></g><g class="noselect gnode" struct_name="m" transform="translate(23.45,-95.05)" r="6.5"><circle class="node" r="6" node_type="nucleotide" style="fill: lightgreen;"></circle><text text-anchor="middle" font-size="8" font-weight="bold" y="2.5" class="node-label">A</text></g><g class="noselect gnode" struct_name="m" transform="translate(16.23,-108.97)" r="6.5"><circle class="node" r="6" node_type="nucleotide" style="fill: lightgreen;"></circle><text text-anchor="middle" font-size="8" font-weight="bold" y="2.5" class="node-label">G</text></g><g class="noselect gnode" struct_name="m" transform="translate(2.02,-115.27)" r="6.5"><circle class="node" r="6" node_type="nucleotide" style="fill: lightblue;"></circle><text text-anchor="middle" font-size="8" font-weight="bold" y="2.5" class="node-label">U</text></g><g class="noselect gnode" struct_name="m" transform="translate(-1.86,-129.97)" r="6.5"><circle class="node" r="6" node_type="nucleotide" style="fill: lightblue;"></circle><text text-anchor="middle" font-size="8" font-weight="bold" y="2.5" class="node-label">U</text></g><g class="noselect gnode" struct_name="m" transform="translate(7.23,-142.14)" r="6.5"><circle class="node" r="6" node_type="nucleotide" style="fill: lightblue;"></circle><text text-anchor="middle" font-size="8" font-weight="bold" y="2.5" class="node-label">G</text></g><g class="noselect gnode" struct_name="m" transform="translate(22.45,-142.66)" r="6.5"><circle class="node" r="6" node_type="nucleotide" style="fill: lightblue;"></circle><text text-anchor="middle" font-size="8" font-weight="bold" y="2.5" class="node-label">G</text></g><g class="noselect gnode" struct_name="m" transform="translate(32.32,-131.21)" r="6.5"><circle class="node" r="6" node_type="nucleotide" style="fill: lightblue;"></circle><text text-anchor="middle" font-size="8" font-weight="bold" y="2.5" class="node-label">U</text></g><g class="noselect gnode" struct_name="m" transform="translate(29.51,-115.84)" r="6.5"><circle class="node" r="6" node_type="nucleotide" style="fill: lightgreen;"></circle><text text-anchor="middle" font-size="8" font-weight="bold" y="2.5" class="node-label">U</text></g><g class="noselect gnode" struct_name="m" transform="translate(36.54,-101.30)" r="6.5"><circle class="node" r="6" node_type="nucleotide" style="fill: lightgreen;"></circle><text text-anchor="middle" font-size="8" font-weight="bold" y="2.5" class="node-label">U</text></g><g class="noselect gnode" struct_name="m" transform="translate(43.31,-86.13)" r="6.5"><circle class="node" r="6" node_type="nucleotide" style="fill: lightgreen;"></circle><text text-anchor="middle" font-size="8" font-weight="bold" y="2.5" class="node-label">C</text></g><g class="noselect gnode" struct_name="m" transform="translate(49.31,-70.39)" r="6.5"><circle class="node" r="6" node_type="nucleotide" style="fill: lightgreen;"></circle><text text-anchor="middle" font-size="8" font-weight="bold" y="2.5" class="node-label">A</text></g><g class="noselect gnode" struct_name="m" transform="translate(54.10,-54.01)" r="6.5"><circle class="node" r="6" node_type="nucleotide" style="fill: lightgreen;"></circle><text text-anchor="middle" font-size="8" font-weight="bold" y="2.5" class="node-label">G</text></g><g class="noselect gnode" struct_name="m" transform="translate(57.28,-37.09)" r="6.5"><circle class="node" r="6" node_type="nucleotide" style="fill: lightgreen;"></circle><text text-anchor="middle" font-size="8" font-weight="bold" y="2.5" class="node-label">U</text></g><g class="noselect gnode" struct_name="m" transform="translate(66.22,-22.97)" r="6.5"><circle class="node" r="6" node_type="nucleotide" style="fill: lightgreen;"></circle><text text-anchor="middle" font-size="8" font-weight="bold" y="2.5" class="node-label">U</text></g><g class="noselect gnode" struct_name="m" transform="translate(80.10,-12.94)" r="6.5"><circle class="node" r="6" node_type="nucleotide" style="fill: lightgreen;"></circle><text text-anchor="middle" font-size="8" font-weight="bold" y="2.5" class="node-label">C</text></g><g class="noselect gnode" struct_name="m" transform="translate(92.87,-1.98)" r="6.5"><circle class="node" r="6" node_type="nucleotide" style="fill: lightgreen;"></circle><text text-anchor="middle" font-size="8" font-weight="bold" y="2.5" class="node-label">C</text></g><g class="noselect gnode" struct_name="m" transform="translate(104.81,9.96)" r="6.5"><circle class="node" r="6" node_type="nucleotide" style="fill: lightgreen;"></circle><text text-anchor="middle" font-size="8" font-weight="bold" y="2.5" class="node-label">A</text></g><g class="noselect gnode" struct_name="m" transform="translate(115.74,22.98)" r="6.5"><circle class="node" r="6" node_type="nucleotide" style="fill: lightgreen;"></circle><text text-anchor="middle" font-size="8" font-weight="bold" y="2.5" class="node-label">G</text></g><g class="noselect gnode" struct_name="m" transform="translate(125.27,37.18)" r="6.5"><circle class="node" r="6" node_type="nucleotide" style="fill: lightgreen;"></circle><text text-anchor="middle" font-size="8" font-weight="bold" y="2.5" class="node-label">G</text></g><g class="noselect gnode" struct_name="m" transform="translate(132.82,52.70)" r="6.5"><circle class="node" r="6" node_type="nucleotide" style="fill: lightgreen;"></circle><text text-anchor="middle" font-size="8" font-weight="bold" y="2.5" class="node-label">G</text></g><g class="noselect gnode" struct_name="m" transform="translate(138.09,69.47)" r="6.5"><circle class="node" r="6" node_type="nucleotide" style="fill: lightgreen;"></circle><text text-anchor="middle" font-size="8" font-weight="bold" y="2.5" class="node-label">C</text></g><g class="noselect gnode" struct_name="m" transform="translate(140.60,87.21)" r="6.5"><circle class="node" r="6" node_type="nucleotide" style="fill: lightgreen;"></circle><text text-anchor="middle" font-size="8" font-weight="bold" y="2.5" class="node-label">U</text></g><g class="noselect gnode" struct_name="m" transform="translate(153.79,96.43)" r="6.5"><circle class="node" r="6" node_type="nucleotide" style="fill: lightsalmon;"></circle><text text-anchor="middle" font-size="8" font-weight="bold" y="2.5" class="node-label">U</text></g><g class="noselect gnode" struct_name="m" transform="translate(163.30,109.41)" r="6.5"><circle class="node" r="6" node_type="nucleotide" style="fill: lightgreen;"></circle><text text-anchor="middle" font-size="8" font-weight="bold" y="2.5" class="node-label">C</text></g><g class="noselect gnode" struct_name="m" transform="translate(181.44,111.58)" r="6.5"><circle class="node" r="6" node_type="nucleotide" style="fill: lightgreen;"></circle><text text-anchor="middle" font-size="8" font-weight="bold" y="2.5" class="node-label">C</text></g><g class="noselect gnode" struct_name="m" transform="translate(198.23,117.19)" r="6.5"><circle class="node" r="6" node_type="nucleotide" style="fill: lightgreen;"></circle><text text-anchor="middle" font-size="8" font-weight="bold" y="2.5" class="node-label">A</text></g><g class="noselect gnode" struct_name="m" transform="translate(213.29,125.18)" r="6.5"><circle class="node" r="6" node_type="nucleotide" style="fill: lightgreen;"></circle><text text-anchor="middle" font-size="8" font-weight="bold" y="2.5" class="node-label">G</text></g><g class="noselect gnode" struct_name="m" transform="translate(226.86,134.35)" r="6.5"><circle class="node" r="6" node_type="nucleotide" style="fill: lightgreen;"></circle><text text-anchor="middle" font-size="8" font-weight="bold" y="2.5" class="node-label">A</text></g><g class="noselect gnode" struct_name="m" transform="translate(242.18,136.45)" r="6.5"><circle class="node" r="6" node_type="nucleotide" style="fill: lightblue;"></circle><text text-anchor="middle" font-size="8" font-weight="bold" y="2.5" class="node-label">U</text></g><g class="noselect gnode" struct_name="m" transform="translate(247.90,150.35)" r="6.5"><circle class="node" r="6" node_type="nucleotide" style="fill: lightblue;"></circle><text text-anchor="middle" font-size="8" font-weight="bold" y="2.5" class="node-label">G</text></g><g class="noselect gnode" struct_name="m" transform="translate(238.77,162.22)" r="6.5"><circle class="node" r="6" node_type="nucleotide" style="fill: lightblue;"></circle><text text-anchor="middle" font-size="8" font-weight="bold" y="2.5" class="node-label">U</text></g><g class="noselect gnode" struct_name="m" transform="translate(223.94,160.44)" r="6.5"><circle class="node" r="6" node_type="nucleotide" style="fill: lightblue;"></circle><text text-anchor="middle" font-size="8" font-weight="bold" y="2.5" class="node-label">A</text></g><g class="noselect gnode" struct_name="m" transform="translate(218.07,146.34)" r="6.5"><circle class="node" r="6" node_type="nucleotide" style="fill: lightgreen;"></circle><text text-anchor="middle" font-size="8" font-weight="bold" y="2.5" class="node-label">U</text></g><g class="noselect gnode" struct_name="m" transform="translate(205.62,137.60)" r="6.5"><circle class="node" r="6" node_type="nucleotide" style="fill: lightgreen;"></circle><text text-anchor="middle" font-size="8" font-weight="bold" y="2.5" class="node-label">C</text></g><g class="noselect gnode" struct_name="m" transform="translate(192.36,130.41)" r="6.5"><circle class="node" r="6" node_type="nucleotide" style="fill: lightgreen;"></circle><text text-anchor="middle" font-size="8" font-weight="bold" y="2.5" class="node-label">U</text></g><g class="noselect gnode" struct_name="m" transform="translate(178.36,125.55)" r="6.5"><circle class="node" r="6" node_type="nucleotide" style="fill: lightgreen;"></circle><text text-anchor="middle" font-size="8" font-weight="bold" y="2.5" class="node-label">G</text></g><g class="noselect gnode" struct_name="m" transform="translate(164.28,124.37)" r="6.5"><circle class="node" r="6" node_type="nucleotide" style="fill: lightgreen;"></circle><text text-anchor="middle" font-size="8" font-weight="bold" y="2.5" class="node-label">G</text></g><g class="noselect gnode" struct_name="m" transform="translate(160.51,139.12)" r="6.5"><circle class="node" r="6" node_type="nucleotide" style="fill: lightsalmon;"></circle><text text-anchor="middle" font-size="8" font-weight="bold" y="2.5" class="node-label">U</text></g><g class="noselect gnode" struct_name="m" transform="translate(150.98,150.88)" r="6.5"><circle class="node" r="6" node_type="nucleotide" style="fill: lightsalmon;"></circle><text text-anchor="middle" font-size="8" font-weight="bold" y="2.5" class="node-label">U</text></g><g class="noselect gnode" struct_name="m" transform="translate(100.40,53.83)" r="6.5"><circle class="node label" r="6" node_type="label"></circle><text text-anchor="middle" font-size="8" font-weight="bold" y="2.5" class="node-label">10</text></g><g class="noselect gnode" struct_name="m" transform="translate(20.83,-61.02)" r="6.5"><circle class="node label" r="6" node_type="label"></circle><text text-anchor="middle" font-size="8" font-weight="bold" y="2.5" class="node-label">20</text></g><g class="noselect gnode" struct_name="m" transform="translate(48.77,-110.99)" r="6.5"><circle class="node label" r="6" node_type="label"></circle><text text-anchor="middle" font-size="8" font-weight="bold" y="2.5" class="node-label">30</text></g><g class="noselect gnode" struct_name="m" transform="translate(139.00,29.58)" r="6.5"><circle class="node label" r="6" node_type="label"></circle><text text-anchor="middle" font-size="8" font-weight="bold" y="2.5" class="node-label">40</text></g><g class="noselect gnode" struct_name="m" transform="translate(257.48,134.26)" r="6.5"><circle class="node label" r="6" node_type="label"></circle><text text-anchor="middle" font-size="8" font-weight="bold" y="2.5" class="node-label">50</text></g><g class="noselect gnode" struct_name="m" transform="translate(136.25,155.15)" r="6.5"><circle class="node label" r="6" node_type="label"></circle><text text-anchor="middle" font-size="8" font-weight="bold" y="2.5" class="node-label">60</text></g><g class="noselect gnode" transform="translate(49.05,-44.43)" r="6.5"><circle class="node" r="0" node_type="middle"></circle><text text-anchor="middle" font-size="8" font-weight="bold" y="2.5" class="node-label"></text></g><g class="noselect gnode" transform="translate(45.16,-60.32)" r="6.5"><circle class="node" r="0" node_type="middle"></circle><text text-anchor="middle" font-size="8" font-weight="bold" y="2.5" class="node-label"></text></g><g class="noselect gnode" transform="translate(39.84,-75.84)" r="6.5"><circle class="node" r="0" node_type="middle"></circle><text text-anchor="middle" font-size="8" font-weight="bold" y="2.5" class="node-label"></text></g><g class="noselect gnode" transform="translate(33.50,-90.90)" r="6.5"><circle class="node" r="0" node_type="middle"></circle><text text-anchor="middle" font-size="8" font-weight="bold" y="2.5" class="node-label"></text></g><g class="noselect gnode" transform="translate(26.48,-105.46)" r="6.5"><circle class="node" r="0" node_type="middle"></circle><text text-anchor="middle" font-size="8" font-weight="bold" y="2.5" class="node-label"></text></g><g class="noselect gnode" transform="translate(171.89,116.78)" r="6.5"><circle class="node" r="0" node_type="middle"></circle><text text-anchor="middle" font-size="8" font-weight="bold" y="2.5" class="node-label"></text></g><g class="noselect gnode" transform="translate(187.90,120.47)" r="6.5"><circle class="node" r="0" node_type="middle"></circle><text text-anchor="middle" font-size="8" font-weight="bold" y="2.5" class="node-label"></text></g><g class="noselect gnode" transform="translate(202.67,127.08)" r="6.5"><circle class="node" r="0" node_type="middle"></circle><text text-anchor="middle" font-size="8" font-weight="bold" y="2.5" class="node-label"></text></g><g class="noselect gnode" transform="translate(216.20,135.61)" r="6.5"><circle class="node" r="0" node_type="middle"></circle><text text-anchor="middle" font-size="8" font-weight="bold" y="2.5" class="node-label"></text></g><g class="noselect gnode" transform="translate(132.88,78.98)" r="6.5"><circle class="node" r="0" node_type="middle"></circle><text text-anchor="middle" font-size="8" font-weight="bold" y="2.5" class="node-label"></text></g><g class="noselect gnode" transform="translate(129.26,62.98)" r="6.5"><circle class="node" r="0" node_type="middle"></circle><text text-anchor="middle" font-size="8" font-weight="bold" y="2.5" class="node-label"></text></g><g class="noselect gnode" transform="translate(123.06,47.81)" r="6.5"><circle class="node" r="0" node_type="middle"></circle><text text-anchor="middle" font-size="8" font-weight="bold" y="2.5" class="node-label"></text></g><g class="noselect gnode" transform="translate(114.94,33.79)" r="6.5"><circle class="node" r="0" node_type="middle"></circle><text text-anchor="middle" font-size="8" font-weight="bold" y="2.5" class="node-label"></text></g><g class="noselect gnode" transform="translate(105.06,20.78)" r="6.5"><circle class="node" r="0" node_type="middle"></circle><text text-anchor="middle" font-size="8" font-weight="bold" y="2.5" class="node-label"></text></g><g class="noselect gnode" transform="translate(93.95,8.85)" r="6.5"><circle class="node" r="0" node_type="middle"></circle><text text-anchor="middle" font-size="8" font-weight="bold" y="2.5" class="node-label"></text></g><g class="noselect gnode" transform="translate(81.99,-2.21)" r="6.5"><circle class="node" r="0" node_type="middle"></circle><text text-anchor="middle" font-size="8" font-weight="bold" y="2.5" class="node-label"></text></g><g class="noselect gnode" transform="translate(69.31,-12.28)" r="6.5"><circle class="node" r="0" node_type="middle"></circle><text text-anchor="middle" font-size="8" font-weight="bold" y="2.5" class="node-label"></text></g><g class="noselect gnode" transform="translate(138.30,158.53)" r="6.5"><circle class="node" r="0" node_type="middle"></circle><text text-anchor="middle" font-size="8" font-weight="bold" y="2.5" class="node-label"></text></g><g class="noselect gnode" transform="translate(122.12,157.22)" r="6.5"><circle class="node" r="0" node_type="middle"></circle><text text-anchor="middle" font-size="8" font-weight="bold" y="2.5" class="node-label"></text></g><g class="noselect gnode" transform="translate(128.68,122.14)" r="6.5"><circle class="node" r="0" node_type="middle"></circle><text text-anchor="middle" font-size="8" font-weight="bold" y="2.5" class="node-label"></text></g><g class="noselect gnode" transform="translate(15.46,-126.52)" r="6.5"><circle class="node" r="0" node_type="middle"></circle><text text-anchor="middle" font-size="8" font-weight="bold" y="2.5" class="node-label"></text></g><g class="noselect gnode" transform="translate(232.92,148.31)" r="6.5"><circle class="node" r="0" node_type="middle"></circle><text text-anchor="middle" font-size="8" font-weight="bold" y="2.5" class="node-label"></text></g><g class="noselect gnode" transform="translate(51.09,-23.24)" r="6.5"><circle class="node" r="0" node_type="middle"></circle><text text-anchor="middle" font-size="8" font-weight="bold" y="2.5" class="node-label"></text></g></g><line class="drag_line" x1="0" y1="0" x2="0" y2="0"></line></g></g></svg>