<svg xmlns="http://www.w3.org/2000/svg" viewBox="0 0 760 640" width="760" height="640"><style>svg {
  display: block;
  min-width: 100%;
  width: 100%;
  min-height: 100%;
}

circle.node {
  stroke: #ccc;
  stroke-width: 1px;
  opacity: 1;
  fill: white;
}

circle.node.label {
    stroke: transparent;
    stroke-width: 0;
    fill: white;
}

circle.outline_node {
    stroke-width: 1px;
    fill: red;
}

circle.protein {
    fill: gray;
    fill-opacity: 0.5;
    stroke-width: 4;
}

circle.hidden_outline {
    stroke-width: 0px;
}


line.link {
  stroke: #999;
  stroke-opacity: 0.8;
  stroke-width: 2;
}

line.basepair {
  stroke: red;
}

line.intermolecule {
  stroke: blue;
}

line.chain_chain {
  stroke-dasharray: 3,3;
}

line.fake {
  stroke: green;
}

.transparent {
    fill: transparent;
    stroke-width: 0;
    stroke-opacity: 0;
    opacity: 0;
    visibility: hidden;
}

.drag_line {
  stroke: #999;
  stroke-width: 2;
  pointer-events: none;
}

.drag_line_hidden {
  stroke: #999;
  stroke-width: 0;
  pointer-events: none;
}

.d3-tip {
    line-height: 1;
    font-weight: bold;
    padding: 6px;
    background: rgba(0, 0, 0, 0.6);
    color: #fff;
    border-radius: 4px;
    pointer-events: none;
          }

text.node-label {
    font-weight: bold;
    font-family: Tahoma, Geneva, sans-serif;
    color: rgb(100,100,100);
    pointer-events: none;
}

text {
    pointer-events: none;
}

g.gnode {

}

circle.outline_node.selected {
    visibility: visible;
}

circle.outline_node {
    visibility: hidden;
}

.brush .extent {
  fill-opacity: .1;
  stroke: #fff;
  shape-rendering: crispEdges;
}

.noselect {
    -webkit-touch-callout: none;
    -webkit-user-select: none;
    -khtml-user-select: none;
    -moz-user-select: none;
    -ms-user-select: none;
    user-select: none;
}

svg {
  display: block;
  min-width: 100%;
  width: 100%;
  min-height: 100%;
}

circle.node {
  stroke: #ccc;
  stroke-width: 1px;
  opacity: 1;
  fill: white;
}

circle.node.label {
    stroke: transparent;
    stroke-width: 0;
    fill: white;
}

circle.outline_node {
    stroke-width: 1px;
    fill: red;
}

circle.protein {
    fill: gray;
    fill-opacity: 0.5;
    stroke-width: 4;
}

circle.hidden_outline {
    stroke-width: 0px;
}


line.link {
  stroke: #999;
  stroke-opacity: 0.8;
  stroke-width: 2;
}

line.basepair {
  stroke: red;
}

line.intermolecule {
  stroke: blue;
}

line.chain_chain {
  stroke-dasharray: 3,3;
}

line.fake {
  stroke: green;
}

.transparent {
    fill: transparent;
    stroke-width: 0;
    stroke-opacity: 0;
    opacity: 0;
    visibility: hidden;
}

.drag_line {
  stroke: #999;
  stroke-width: 2;
  pointer-events: none;
}

.drag_line_hidden {
  stroke: #999;
  stroke-width: 0;
  pointer-events: none;
}

.d3-tip {
    line-height: 1;
    font-weight: bold;
    padding: 6px;
    background: rgba(0, 0, 0, 0.6);
    color: #fff;
    border-radius: 4px;
    pointer-events: none;
          }

text.node-label {
    font-weight: bold;
    font-family: Tahoma, Geneva, sans-serif;
    color: rgb(100,100,100);
    pointer-events: none;
}

text {
    pointer-events: none;
}

g.gnode {

}

circle.outline_node.selected {
    visibility: visible;
}

circle.outline_node {
    visibility: hidden;
}

.brush .extent {
  fill-opacity: .1;
  stroke: #fff;
  shape-rendering: crispEdges;
}

.noselect {
    -webkit-touch-callout: none;
    -webkit-user-select: none;
    -khtml-user-select: none;
    -moz-user-select: none;
    -ms-user-select: none;
    user-select: none;
}
/*# sourceURL=/Users/yumanakamura/ipy_sandbox/sandbox/claude_sandbox/mrna-transformer/scripts/eval/prerender/forna_vendor/fornac.css*/</style><style></style><g><g class="brush" style="pointer-events: all; -webkit-tap-highlight-color: rgba(0, 0, 0, 0);"><rect class="background" x="0" width="760" y="0" height="640" style="visibility: hidden; cursor: auto;"></rect><rect class="extent" x="0" width="0" y="0" height="0" style="cursor: move;"></rect><g class="resize n" transform="translate(0,0)" style="cursor: ns-resize; display: none;"><rect y="-3" width="0" height="6" style="visibility: hidden;"></rect></g><g class="resize e" transform="translate(0,0)" style="cursor: ew-resize; display: none;"><rect x="-3" width="6" height="0" style="visibility: hidden;"></rect></g><g class="resize s" transform="translate(0,0)" style="cursor: ns-resize; display: none;"><rect y="-3" width="0" height="6" style="visibility: hidden;"></rect></g><g class="resize w" transform="translate(0,0)" style="cursor: ew-resize; display: none;"><rect x="-3" width="6" height="0" style="visibility: hidden;"></rect></g><g class="resize nw" transform="translate(0,0)" style="cursor: nwse-resize; display: none;"><rect x="-3" y="-3" width="6" height="6" style="visibility: hidden;"></rect></g><g class="resize ne" transform="translate(0,0)" style="cursor: nesw-resize; display: none;"><rect x="-3" y="-3" width="6" height="6" style="visibility: hidden;"></rect></g><g class="resize se" transform="translate(0,0)" style="cursor: nwse-resize; display: none;"><rect x="-3" y="-3" width="6" height="6" style="visibility: hidden;"></rect></g><g class="resize sw" transform="translate(0,0)" style="cursor: nesw-resize; display: none;"><rect x="-3" y="-3" width="6" height="6" style="visibility: hidden;"></rect></g></g><g transform="translate(191.22,202.95) scale(1.53)"><g><line class="link backbone" x1="65.11" y1="228.19" x2="57.81" y2="241.17"></line><line class="link backbone" x1="57.81" y1="241.17" x2="45.87" y2="250.09"></line><line class="link backbone" x1="45.87" y1="250.09" x2="31.31" y2="253.31"></line><line class="link backbone" x1="31.31" y1="253.31" x2="16.69" y2="250.40"></line><line class="link backbone" x1="16.69" y1="250.40" x2="4.32" y2="242.10"></line><line class="link backbone" x1="4.32" y1="242.10" x2="-3.77" y2="229.54"></line><line class="link backbone" x1="-3.77" y1="229.54" x2="-5.87" y2="214.73"></line><line class="link backbone" x1="-5.87" y1="214.73" x2="-1.72" y2="200.32"></line><line class="link backbone" x1="-1.72" y1="200.32" x2="7.97" y2="188.72"></line><line class="link backbone" x1="7.97" y1="188.72" x2="21.41" y2="182.00"></line><line class="link basepair" x1="36.73" y1="180.97" x2="50.57" y2="186.39"></line><line class="link backbone" x1="21.41" y1="182.00" x2="36.73" y2="180.97"></line><line class="link basepair" x1="42.52" y1="166.46" x2="56.44" y2="171.58"></line><line class="link backbone" x1="36.73" y1="180.97" x2="42.52" y2="166.46"></line><line class="link backbone" x1="42.52" y1="166.46" x2="42.58" y2="150.97"></line><line class="link basepair" x1="57.35" y1="146.47" x2="66.36" y2="158.29"></line><line class="link backbone" x1="42.58" y1="150.97" x2="57.35" y2="146.47"></line><line class="link basepair" x1="69.13" y1="136.76" x2="78.95" y2="147.53"></line><line class="link backbone" x1="57.35" y1="146.47" x2="69.13" y2="136.76"></line><line class="link basepair" x1="80.06" y1="125.98" x2="90.75" y2="135.95"></line><line class="link backbone" x1="69.13" y1="136.76" x2="80.06" y2="125.98"></line><line class="link basepair" x1="89.88" y1="114.38" x2="101.57" y2="123.53"></line><line class="link backbone" x1="80.06" y1="125.98" x2="89.88" y2="114.38"></line><line class="link backbone" x1="89.88" y1="114.38" x2="85.04" y2="100.11"></line><line class="link backbone" x1="85.04" y1="100.11" x2="89.67" y2="85.78"></line><line class="link backbone" x1="89.67" y1="85.78" x2="101.85" y2="77.10"></line><line class="link basepair" x1="117.05" y1="77.04" x2="129.26" y2="85.47"></line><line class="link backbone" x1="101.85" y1="77.10" x2="117.05" y2="77.04"></line><line class="link basepair" x1="126.07" y1="63.94" x2="138.13" y2="72.08"></line><line class="link backbone" x1="117.05" y1="77.04" x2="126.07" y2="63.94"></line><line class="link basepair" x1="135.12" y1="50.58" x2="147.10" y2="58.85"></line><line class="link backbone" x1="126.07" y1="63.94" x2="135.12" y2="50.58"></line><line class="link basepair" x1="144.29" y1="37.37" x2="156.29" y2="46.04"></line><line class="link backbone" x1="135.12" y1="50.58" x2="144.29" y2="37.37"></line><line class="link backbone" x1="144.29" y1="37.37" x2="145.85" y2="22.17"></line><line class="link basepair" x1="159.89" y1="16.00" x2="171.84" y2="24.78"></line><line class="link backbone" x1="145.85" y1="22.17" x2="159.89" y2="16.00"></line><line class="link basepair" x1="169.37" y1="3.35" x2="181.17" y2="11.99"></line><line class="link backbone" x1="159.89" y1="16.00" x2="169.37" y2="3.35"></line><line class="link basepair" x1="178.71" y1="-9.53" x2="190.60" y2="-1.13"></line><line class="link backbone" x1="169.37" y1="3.35" x2="178.71" y2="-9.53"></line><line class="link basepair" x1="187.75" y1="-22.64" x2="199.83" y2="-14.52"></line><line class="link backbone" x1="178.71" y1="-9.53" x2="187.75" y2="-22.64"></line><line class="link basepair" x1="196.49" y1="-35.99" x2="208.73" y2="-28.14"></line><line class="link backbone" x1="187.75" y1="-22.64" x2="196.49" y2="-35.99"></line><line class="link basepair" x1="204.98" y1="-49.52" x2="217.34" y2="-41.82"></line><line class="link backbone" x1="196.49" y1="-35.99" x2="204.98" y2="-49.52"></line><line class="link basepair" x1="213.38" y1="-63.16" x2="225.80" y2="-55.47"></line><line class="link backbone" x1="204.98" y1="-49.52" x2="213.38" y2="-63.16"></line><line class="link basepair" x1="221.63" y1="-76.68" x2="234.25" y2="-68.81"></line><line class="link backbone" x1="213.38" y1="-63.16" x2="221.63" y2="-76.68"></line><line class="link backbone" x1="221.63" y1="-76.68" x2="222.26" y2="-92.06"></line><line class="link backbone" x1="222.26" y1="-92.06" x2="235.51" y2="-98.98"></line><line class="link backbone" x1="235.51" y1="-98.98" x2="248.22" y2="-91.03"></line><line class="link backbone" x1="248.22" y1="-91.03" x2="247.82" y2="-76.11"></line><line class="link basepair" x1="234.25" y1="-68.81" x2="221.63" y2="-76.68"></line><line class="link backbone" x1="247.82" y1="-76.11" x2="234.25" y2="-68.81"></line><line class="link basepair" x1="225.80" y1="-55.47" x2="213.38" y2="-63.16"></line><line class="link backbone" x1="234.25" y1="-68.81" x2="225.80" y2="-55.47"></line><line class="link basepair" x1="217.34" y1="-41.82" x2="204.98" y2="-49.52"></line><line class="link backbone" x1="225.80" y1="-55.47" x2="217.34" y2="-41.82"></line><line class="link basepair" x1="208.73" y1="-28.14" x2="196.49" y2="-35.99"></line><line class="link backbone" x1="217.34" y1="-41.82" x2="208.73" y2="-28.14"></line><line class="link basepair" x1="199.83" y1="-14.52" x2="187.75" y2="-22.64"></line><line class="link backbone" x1="208.73" y1="-28.14" x2="199.83" y2="-14.52"></line><line class="link basepair" x1="190.60" y1="-1.13" x2="178.71" y2="-9.53"></line><line class="link backbone" x1="199.83" y1="-14.52" x2="190.60" y2="-1.13"></line><line class="link basepair" x1="181.17" y1="11.99" x2="169.37" y2="3.35"></line><line class="link backbone" x1="190.60" y1="-1.13" x2="181.17" y2="11.99"></line><line class="link basepair" x1="171.84" y1="24.78" x2="159.89" y2="16.00"></line><line class="link backbone" x1="181.17" y1="11.99" x2="171.84" y2="24.78"></line><line class="link backbone" x1="171.84" y1="24.78" x2="170.24" y2="39.93"></line><line class="link basepair" x1="156.29" y1="46.04" x2="144.29" y2="37.37"></line><line class="link backbone" x1="170.24" y1="39.93" x2="156.29" y2="46.04"></line><line class="link basepair" x1="147.10" y1="58.85" x2="135.12" y2="50.58"></line><line class="link backbone" x1="156.29" y1="46.04" x2="147.10" y2="58.85"></line><line class="link basepair" x1="138.13" y1="72.08" x2="126.07" y2="63.94"></line><line class="link backbone" x1="147.10" y1="58.85" x2="138.13" y2="72.08"></line><line class="link basepair" x1="129.26" y1="85.47" x2="117.05" y2="77.04"></line><line class="link backbone" x1="138.13" y1="72.08" x2="129.26" y2="85.47"></line><line class="link backbone" x1="129.26" y1="85.47" x2="133.76" y2="100.28"></line><line class="link backbone" x1="133.76" y1="100.28" x2="129.00" y2="114.49"></line><line class="link backbone" x1="129.00" y1="114.49" x2="116.94" y2="123.44"></line><line class="link basepair" x1="101.57" y1="123.53" x2="89.88" y2="114.38"></line><line class="link backbone" x1="116.94" y1="123.44" x2="101.57" y2="123.53"></line><line class="link basepair" x1="90.75" y1="135.95" x2="80.06" y2="125.98"></line><line class="link backbone" x1="101.57" y1="123.53" x2="90.75" y2="135.95"></line><line class="link basepair" x1="78.95" y1="147.53" x2="69.13" y2="136.76"></line><line class="link backbone" x1="90.75" y1="135.95" x2="78.95" y2="147.53"></line><line class="link basepair" x1="66.36" y1="158.29" x2="57.35" y2="146.47"></line><line class="link backbone" x1="78.95" y1="147.53" x2="66.36" y2="158.29"></line><line class="link basepair" x1="56.44" y1="171.58" x2="42.52" y2="166.46"></line><line class="link backbone" x1="66.36" y1="158.29" x2="56.44" y2="171.58"></line><line class="link basepair" x1="50.57" y1="186.39" x2="36.73" y2="180.97"></line><line class="link backbone" x1="56.44" y1="171.58" x2="50.57" y2="186.39"></line><line class="link label_link" x1="7.97" y1="188.72" x2="-5.78" y2="181.57"></line><line class="link label_link" x1="89.67" y1="85.78" x2="76.10" y2="78.17"></line><line class="link label_link" x1="187.75" y1="-22.64" x2="174.54" y2="-30.96"></line><line class="link label_link" x1="225.80" y1="-55.47" x2="239.99" y2="-49.07"></line><line class="link label_link" x1="138.13" y1="72.08" x2="151.91" y2="79.39"></line><line class="link label_link" x1="50.57" y1="186.39" x2="52.61" y2="201.49"></line><line class="link fake transparent" x1="117.05" y1="77.04" x2="127.62" y2="74.69"></line><line class="link fake transparent" x1="117.05" y1="77.04" x2="138.13" y2="72.08"></line><line class="link fake transparent" x1="126.07" y1="63.94" x2="127.62" y2="74.69"></line><line class="link fake transparent" x1="138.13" y1="72.08" x2="127.62" y2="74.69"></line><line class="link fake transparent" x1="129.26" y1="85.47" x2="127.62" y2="74.69"></line><line class="link fake transparent" x1="126.07" y1="63.94" x2="136.57" y2="61.30"></line><line class="link fake transparent" x1="135.12" y1="50.58" x2="136.57" y2="61.30"></line><line class="link fake transparent" x1="147.10" y1="58.85" x2="136.57" y2="61.30"></line><line class="link fake transparent" x1="138.13" y1="72.08" x2="136.57" y2="61.30"></line><line class="link fake transparent" x1="135.12" y1="50.58" x2="145.63" y2="48.12"></line><line class="link fake transparent" x1="144.29" y1="37.37" x2="145.63" y2="48.12"></line><line class="link fake transparent" x1="156.29" y1="46.04" x2="145.63" y2="48.12"></line><line class="link fake transparent" x1="147.10" y1="58.85" x2="145.63" y2="48.12"></line><line class="link fake transparent" x1="159.89" y1="16.00" x2="170.56" y2="14.06"></line><line class="link fake transparent" x1="169.37" y1="3.35" x2="170.56" y2="14.06"></line><line class="link fake transparent" x1="181.17" y1="11.99" x2="170.56" y2="14.06"></line><line class="link fake transparent" x1="171.84" y1="24.78" x2="170.56" y2="14.06"></line><line class="link fake transparent" x1="169.37" y1="3.35" x2="180.01" y2="1.23"></line><line class="link fake transparent" x1="178.71" y1="-9.53" x2="180.01" y2="1.23"></line><line class="link fake transparent" x1="190.60" y1="-1.13" x2="180.01" y2="1.23"></line><line class="link fake transparent" x1="181.17" y1="11.99" x2="180.01" y2="1.23"></line><line class="link fake transparent" x1="178.71" y1="-9.53" x2="189.30" y2="-11.88"></line><line class="link fake transparent" x1="187.75" y1="-22.64" x2="189.30" y2="-11.88"></line><line class="link fake transparent" x1="199.83" y1="-14.52" x2="189.30" y2="-11.88"></line><line class="link fake transparent" x1="190.60" y1="-1.13" x2="189.30" y2="-11.88"></line><line class="link fake transparent" x1="187.75" y1="-22.64" x2="198.29" y2="-25.26"></line><line class="link fake transparent" x1="196.49" y1="-35.99" x2="198.29" y2="-25.26"></line><line class="link fake transparent" x1="208.73" y1="-28.14" x2="198.29" y2="-25.26"></line><line class="link fake transparent" x1="199.83" y1="-14.52" x2="198.29" y2="-25.26"></line><line class="link fake transparent" x1="196.49" y1="-35.99" x2="206.94" y2="-38.83"></line><line class="link fake transparent" x1="204.98" y1="-49.52" x2="206.94" y2="-38.83"></line><line class="link fake transparent" x1="217.34" y1="-41.82" x2="206.94" y2="-38.83"></line><line class="link fake transparent" x1="208.73" y1="-28.14" x2="206.94" y2="-38.83"></line><line class="link fake transparent" x1="204.98" y1="-49.52" x2="215.38" y2="-52.50"></line><line class="link fake transparent" x1="213.38" y1="-63.16" x2="215.38" y2="-52.50"></line><line class="link fake transparent" x1="225.80" y1="-55.47" x2="215.38" y2="-52.50"></line><line class="link fake transparent" x1="217.34" y1="-41.82" x2="215.38" y2="-52.50"></line><line class="link fake transparent" x1="213.38" y1="-63.16" x2="223.76" y2="-66.09"></line><line class="link fake transparent" x1="221.63" y1="-76.68" x2="223.76" y2="-66.09"></line><line class="link fake transparent" x1="234.25" y1="-68.81" x2="223.76" y2="-66.09"></line><line class="link fake transparent" x1="225.80" y1="-55.47" x2="223.76" y2="-66.09"></line><line class="link fake transparent" x1="36.73" y1="180.97" x2="46.58" y2="176.44"></line><line class="link fake transparent" x1="42.52" y1="166.46" x2="46.58" y2="176.44"></line><line class="link fake transparent" x1="56.44" y1="171.58" x2="46.58" y2="176.44"></line><line class="link fake transparent" x1="50.57" y1="186.39" x2="46.58" y2="176.44"></line><line class="link fake transparent" x1="57.35" y1="146.47" x2="68.10" y2="147.51"></line><line class="link fake transparent" x1="69.13" y1="136.76" x2="68.10" y2="147.51"></line><line class="link fake transparent" x1="78.95" y1="147.53" x2="68.10" y2="147.51"></line><line class="link fake transparent" x1="66.36" y1="158.29" x2="68.10" y2="147.51"></line><line class="link fake transparent" x1="69.13" y1="136.76" x2="79.95" y2="136.80"></line><line class="link fake transparent" x1="80.06" y1="125.98" x2="79.95" y2="136.80"></line><line class="link fake transparent" x1="90.75" y1="135.95" x2="79.95" y2="136.80"></line><line class="link fake transparent" x1="78.95" y1="147.53" x2="79.95" y2="136.80"></line><line class="link fake transparent" x1="80.06" y1="125.98" x2="90.86" y2="125.17"></line><line class="link fake transparent" x1="89.88" y1="114.38" x2="90.86" y2="125.17"></line><line class="link fake transparent" x1="101.57" y1="123.53" x2="90.86" y2="125.17"></line><line class="link fake transparent" x1="90.75" y1="135.95" x2="90.86" y2="125.17"></line><line class="link fake transparent" x1="65.11" y1="228.19" x2="30.53" y2="216.93"></line><line class="link fake transparent" x1="65.11" y1="228.19" x2="-5.87" y2="214.73"></line><line class="link fake transparent" x1="57.81" y1="241.17" x2="30.53" y2="216.93"></line><line class="link fake transparent" x1="57.81" y1="241.17" x2="-1.72" y2="200.32"></line><line class="link fake transparent" x1="45.87" y1="250.09" x2="30.53" y2="216.93"></line><line class="link fake transparent" x1="45.87" y1="250.09" x2="7.97" y2="188.72"></line><line class="link fake transparent" x1="31.31" y1="253.31" x2="30.53" y2="216.93"></line><line class="link fake transparent" x1="31.31" y1="253.31" x2="21.41" y2="182.00"></line><line class="link fake transparent" x1="16.69" y1="250.40" x2="30.53" y2="216.93"></line><line class="link fake transparent" x1="16.69" y1="250.40" x2="36.73" y2="180.97"></line><line class="link fake transparent" x1="4.32" y1="242.10" x2="30.53" y2="216.93"></line><line class="link fake transparent" x1="4.32" y1="242.10" x2="50.57" y2="186.39"></line><line class="link fake transparent" x1="-3.77" y1="229.54" x2="30.53" y2="216.93"></line><line class="link fake transparent" x1="-3.77" y1="229.54" x2="61.18" y2="197.99"></line><line class="link fake transparent" x1="-5.87" y1="214.73" x2="30.53" y2="216.93"></line><line class="link fake transparent" x1="-5.87" y1="214.73" x2="66.47" y2="211.43"></line><line class="link fake transparent" x1="-1.72" y1="200.32" x2="30.53" y2="216.93"></line><line class="link fake transparent" x1="-1.72" y1="200.32" x2="65.11" y2="228.19"></line><line class="link fake transparent" x1="7.97" y1="188.72" x2="30.53" y2="216.93"></line><line class="link fake transparent" x1="7.97" y1="188.72" x2="57.81" y2="241.17"></line><line class="link fake transparent" x1="21.41" y1="182.00" x2="30.53" y2="216.93"></line><line class="link fake transparent" x1="21.41" y1="182.00" x2="45.87" y2="250.09"></line><line class="link fake transparent" x1="36.73" y1="180.97" x2="30.53" y2="216.93"></line><line class="link fake transparent" x1="36.73" y1="180.97" x2="31.31" y2="253.31"></line><line class="link fake transparent" x1="50.57" y1="186.39" x2="30.53" y2="216.93"></line><line class="link fake transparent" x1="50.57" y1="186.39" x2="16.69" y2="250.40"></line><line class="link fake transparent" x1="221.63" y1="-76.68" x2="234.93" y2="-83.92"></line><line class="link fake transparent" x1="221.63" y1="-76.68" x2="248.22" y2="-91.03"></line><line class="link fake transparent" x1="222.26" y1="-92.06" x2="234.93" y2="-83.92"></line><line class="link fake transparent" x1="222.26" y1="-92.06" x2="247.82" y2="-76.11"></line><line class="link fake transparent" x1="235.51" y1="-98.98" x2="234.93" y2="-83.92"></line><line class="link fake transparent" x1="235.51" y1="-98.98" x2="234.25" y2="-68.81"></line><line class="link fake transparent" x1="248.22" y1="-91.03" x2="234.93" y2="-83.92"></line><line class="link fake transparent" x1="248.22" y1="-91.03" x2="221.63" y2="-76.68"></line><line class="link fake transparent" x1="247.82" y1="-76.11" x2="234.93" y2="-83.92"></line><line class="link fake transparent" x1="247.82" y1="-76.11" x2="222.26" y2="-92.06"></line><line class="link fake transparent" x1="234.25" y1="-68.81" x2="234.93" y2="-83.92"></line><line class="link fake transparent" x1="234.25" y1="-68.81" x2="235.51" y2="-98.98"></line><line class="link fake transparent" x1="144.29" y1="37.37" x2="158.03" y2="31.04"></line><line class="link fake transparent" x1="144.29" y1="37.37" x2="171.84" y2="24.78"></line><line class="link fake transparent" x1="145.85" y1="22.17" x2="158.03" y2="31.04"></line><line class="link fake transparent" x1="145.85" y1="22.17" x2="170.24" y2="39.93"></line><line class="link fake transparent" x1="159.89" y1="16.00" x2="158.03" y2="31.04"></line><line class="link fake transparent" x1="159.89" y1="16.00" x2="156.29" y2="46.04"></line><line class="link fake transparent" x1="171.84" y1="24.78" x2="158.03" y2="31.04"></line><line class="link fake transparent" x1="171.84" y1="24.78" x2="144.29" y2="37.37"></line><line class="link fake transparent" x1="170.24" y1="39.93" x2="158.03" y2="31.04"></line><line class="link fake transparent" x1="170.24" y1="39.93" x2="145.85" y2="22.17"></line><line class="link fake transparent" x1="156.29" y1="46.04" x2="158.03" y2="31.04"></line><line class="link fake transparent" x1="156.29" y1="46.04" x2="159.89" y2="16.00"></line><line class="link fake transparent" x1="42.52" y1="166.46" x2="53.28" y2="158.93"></line><line class="link fake transparent" x1="42.52" y1="166.46" x2="57.35" y2="146.47"></line><line class="link fake transparent" x1="42.58" y1="150.97" x2="53.28" y2="158.93"></line><line class="link fake transparent" x1="42.58" y1="150.97" x2="66.36" y2="158.29"></line><line class="link fake transparent" x1="57.35" y1="146.47" x2="53.28" y2="158.93"></line><line class="link fake transparent" x1="57.35" y1="146.47" x2="56.44" y2="171.58"></line><line class="link fake transparent" x1="66.36" y1="158.29" x2="53.28" y2="158.93"></line><line class="link fake transparent" x1="66.36" y1="158.29" x2="42.52" y2="166.46"></line><line class="link fake transparent" x1="56.44" y1="171.58" x2="53.28" y2="158.93"></line><line class="link fake transparent" x1="56.44" y1="171.58" x2="42.58" y2="150.97"></line><line class="link fake transparent" x1="89.88" y1="114.38" x2="109.49" y2="100.19"></line><line class="link fake transparent" x1="89.88" y1="114.38" x2="129.26" y2="85.47"></line><line class="link fake transparent" x1="85.04" y1="100.11" x2="109.49" y2="100.19"></line><line class="link fake transparent" x1="85.04" y1="100.11" x2="133.76" y2="100.28"></line><line class="link fake transparent" x1="89.67" y1="85.78" x2="109.49" y2="100.19"></line><line class="link fake transparent" x1="89.67" y1="85.78" x2="129.00" y2="114.49"></line><line class="link fake transparent" x1="101.85" y1="77.10" x2="109.49" y2="100.19"></line><line class="link fake transparent" x1="101.85" y1="77.10" x2="116.94" y2="123.44"></line><line class="link fake transparent" x1="117.05" y1="77.04" x2="109.49" y2="100.19"></line><line class="link fake transparent" x1="117.05" y1="77.04" x2="101.57" y2="123.53"></line><line class="link fake transparent" x1="129.26" y1="85.47" x2="109.49" y2="100.19"></line><line class="link fake transparent" x1="129.26" y1="85.47" x2="89.88" y2="114.38"></line><line class="link fake transparent" x1="133.76" y1="100.28" x2="109.49" y2="100.19"></line><line class="link fake transparent" x1="133.76" y1="100.28" x2="85.04" y2="100.11"></line><line class="link fake transparent" x1="129.00" y1="114.49" x2="109.49" y2="100.19"></line><line class="link fake transparent" x1="129.00" y1="114.49" x2="89.67" y2="85.78"></line><line class="link fake transparent" x1="116.94" y1="123.44" x2="109.49" y2="100.19"></line><line class="link fake transparent" x1="116.94" y1="123.44" x2="101.85" y2="77.10"></line><line class="link fake transparent" x1="101.57" y1="123.53" x2="109.49" y2="100.19"></line><line class="link fake transparent" x1="101.57" y1="123.53" x2="117.05" y2="77.04"></line></g><g><g class="noselect gnode" struct_name="m" transform="translate(65.11,228.19)" r="6.5"><circle class="node" r="6" node_type="nucleotide" style="fill: lightsalmon;"></circle><text text-anchor="middle" font-size="8" font-weight="bold" y="2.5" class="node-label">A</text></g><g class="noselect gnode" struct_name="m" transform="translate(57.81,241.17)" r="6.5"><circle class="node" r="6" node_type="nucleotide" style="fill: lightsalmon;"></circle><text text-anchor="middle" font-size="8" font-weight="bold" y="2.5" class="node-label">A</text></g><g class="noselect gnode" struct_name="m" transform="translate(45.87,250.09)" r="6.5"><circle class="node" r="6" node_type="nucleotide" style="fill: lightsalmon;"></circle><text text-anchor="middle" font-size="8" font-weight="bold" y="2.5" class="node-label">U</text></g><g class="noselect gnode" struct_name="m" transform="translate(31.31,253.31)" r="6.5"><circle class="node" r="6" node_type="nucleotide" style="fill: lightsalmon;"></circle><text text-anchor="middle" font-size="8" font-weight="bold" y="2.5" class="node-label">U</text></g><g class="noselect gnode" struct_name="m" transform="translate(16.69,250.40)" r="6.5"><circle class="node" r="6" node_type="nucleotide" style="fill: lightsalmon;"></circle><text text-anchor="middle" font-size="8" font-weight="bold" y="2.5" class="node-label">G</text></g><g class="noselect gnode" struct_name="m" transform="translate(4.32,242.10)" r="6.5"><circle class="node" r="6" node_type="nucleotide" style="fill: lightsalmon;"></circle><text text-anchor="middle" font-size="8" font-weight="bold" y="2.5" class="node-label">U</text></g><g class="noselect gnode" struct_name="m" transform="translate(-3.77,229.54)" r="6.5"><circle class="node" r="6" node_type="nucleotide" style="fill: lightsalmon;"></circle><text text-anchor="middle" font-size="8" font-weight="bold" y="2.5" class="node-label">U</text></g><g class="noselect gnode" struct_name="m" transform="translate(-5.87,214.73)" r="6.5"><circle class="node" r="6" node_type="nucleotide" style="fill: lightsalmon;"></circle><text text-anchor="middle" font-size="8" font-weight="bold" y="2.5" class="node-label">G</text></g><g class="noselect gnode" struct_name="m" transform="translate(-1.72,200.32)" r="6.5"><circle class="node" r="6" node_type="nucleotide" style="fill: lightsalmon;"></circle><text text-anchor="middle" font-size="8" font-weight="bold" y="2.5" class="node-label">U</text></g><g class="noselect gnode" struct_name="m" transform="translate(7.97,188.72)" r="6.5"><circle class="node" r="6" node_type="nucleotide" style="fill: lightsalmon;"></circle><text text-anchor="middle" font-size="8" font-weight="bold" y="2.5" class="node-label">U</text></g><g class="noselect gnode" struct_name="m" transform="translate(21.41,182.00)" r="6.5"><circle class="node" r="6" node_type="nucleotide" style="fill: lightsalmon;"></circle><text text-anchor="middle" font-size="8" font-weight="bold" y="2.5" class="node-label">A</text></g><g class="noselect gnode" struct_name="m" transform="translate(36.73,180.97)" r="6.5"><circle class="node" r="6" node_type="nucleotide" style="fill: lightgreen;"></circle><text text-anchor="middle" font-size="8" font-weight="bold" y="2.5" class="node-label">C</text></g><g class="noselect gnode" struct_name="m" transform="translate(42.52,166.46)" r="6.5"><circle class="node" r="6" node_type="nucleotide" style="fill: lightgreen;"></circle><text text-anchor="middle" font-size="8" font-weight="bold" y="2.5" class="node-label">G</text></g><g class="noselect gnode" struct_name="m" transform="translate(42.58,150.97)" r="6.5"><circle class="node" r="6" node_type="nucleotide" style="fill: rgb(219, 219, 141);"></circle><text text-anchor="middle" font-size="8" font-weight="bold" y="2.5" class="node-label">A</text></g><g class="noselect gnode" struct_name="m" transform="translate(57.35,146.47)" r="6.5"><circle class="node" r="6" node_type="nucleotide" style="fill: lightgreen;"></circle><text text-anchor="middle" font-size="8" font-weight="bold" y="2.5" class="node-label">G</text></g><g class="noselect gnode" struct_name="m" transform="translate(69.13,136.76)" r="6.5"><circle class="node" r="6" node_type="nucleotide" style="fill: lightgreen;"></circle><text text-anchor="middle" font-size="8" font-weight="bold" y="2.5" class="node-label">G</text></g><g class="noselect gnode" struct_name="m" transform="translate(80.06,125.98)" r="6.5"><circle class="node" r="6" node_type="nucleotide" style="fill: lightgreen;"></circle><text text-anchor="middle" font-size="8" font-weight="bold" y="2.5" class="node-label">U</text></g><g class="noselect gnode" struct_name="m" transform="translate(89.88,114.38)" r="6.5"><circle class="node" r="6" node_type="nucleotide" style="fill: lightgreen;"></circle><text text-anchor="middle" font-size="8" font-weight="bold" y="2.5" class="node-label">U</text></g><g class="noselect gnode" struct_name="m" transform="translate(85.04,100.11)" r="6.5"><circle class="node" r="6" node_type="nucleotide" style="fill: rgb(219, 219, 141);"></circle><text text-anchor="middle" font-size="8" font-weight="bold" y="2.5" class="node-label">C</text></g><g class="noselect gnode" struct_name="m" transform="translate(89.67,85.78)" r="6.5"><circle class="node" r="6" node_type="nucleotide" style="fill: rgb(219, 219, 141);"></circle><text text-anchor="middle" font-size="8" font-weight="bold" y="2.5" class="node-label">A</text></g><g class="noselect gnode" struct_name="m" transform="translate(101.85,77.10)" r="6.5"><circle class="node" r="6" node_type="nucleotide" style="fill: rgb(219, 219, 141);"></circle><text text-anchor="middle" font-size="8" font-weight="bold" y="2.5" class="node-label">G</text></g><g class="noselect gnode" struct_name="m" transform="translate(117.05,77.04)" r="6.5"><circle class="node" r="6" node_type="nucleotide" style="fill: lightgreen;"></circle><text text-anchor="middle" font-size="8" font-weight="bold" y="2.5" class="node-label">G</text></g><g class="noselect gnode" struct_name="m" transform="translate(126.07,63.94)" r="6.5"><circle class="node" r="6" node_type="nucleotide" style="fill: lightgreen;"></circle><text text-anchor="middle" font-size="8" font-weight="bold" y="2.5" class="node-label">A</text></g><g class="noselect gnode" struct_name="m" transform="translate(135.12,50.58)" r="6.5"><circle class="node" r="6" node_type="nucleotide" style="fill: lightgreen;"></circle><text text-anchor="middle" font-size="8" font-weight="bold" y="2.5" class="node-label">G</text></g><g class="noselect gnode" struct_name="m" transform="translate(144.29,37.37)" r="6.5"><circle class="node" r="6" node_type="nucleotide" style="fill: lightgreen;"></circle><text text-anchor="middle" font-size="8" font-weight="bold" y="2.5" class="node-label">U</text></g><g class="noselect gnode" struct_name="m" transform="translate(145.85,22.17)" r="6.5"><circle class="node" r="6" node_type="nucleotide" style="fill: rgb(219, 219, 141);"></circle><text text-anchor="middle" font-size="8" font-weight="bold" y="2.5" class="node-label">A</text></g><g class="noselect gnode" struct_name="m" transform="translate(159.89,16.00)" r="6.5"><circle class="node" r="6" node_type="nucleotide" style="fill: lightgreen;"></circle><text text-anchor="middle" font-size="8" font-weight="bold" y="2.5" class="node-label">U</text></g><g class="noselect gnode" struct_name="m" transform="translate(169.37,3.35)" r="6.5"><circle class="node" r="6" node_type="nucleotide" style="fill: lightgreen;"></circle><text text-anchor="middle" font-size="8" font-weight="bold" y="2.5" class="node-label">U</text></g><g class="noselect gnode" struct_name="m" transform="translate(178.71,-9.53)" r="6.5"><circle class="node" r="6" node_type="nucleotide" style="fill: lightgreen;"></circle><text text-anchor="middle" font-size="8" font-weight="bold" y="2.5" class="node-label">A</text></g><g class="noselect gnode" struct_name="m" transform="translate(187.75,-22.64)" r="6.5"><circle class="node" r="6" node_type="nucleotide" style="fill: lightgreen;"></circle><text text-anchor="middle" font-size="8" font-weight="bold" y="2.5" class="node-label">C</text></g><g class="noselect gnode" struct_name="m" transform="translate(196.49,-35.99)" r="6.5"><circle class="node" r="6" node_type="nucleotide" style="fill: lightgreen;"></circle><text text-anchor="middle" font-size="8" font-weight="bold" y="2.5" class="node-label">C</text></g><g class="noselect gnode" struct_name="m" transform="translate(204.98,-49.52)" r="6.5"><circle class="node" r="6" node_type="nucleotide" style="fill: lightgreen;"></circle><text text-anchor="middle" font-size="8" font-weight="bold" y="2.5" class="node-label">U</text></g><g class="noselect gnode" struct_name="m" transform="translate(213.38,-63.16)" r="6.5"><circle class="node" r="6" node_type="nucleotide" style="fill: lightgreen;"></circle><text text-anchor="middle" font-size="8" font-weight="bold" y="2.5" class="node-label">G</text></g><g class="noselect gnode" struct_name="m" transform="translate(221.63,-76.68)" r="6.5"><circle class="node" r="6" node_type="nucleotide" style="fill: lightgreen;"></circle><text text-anchor="middle" font-size="8" font-weight="bold" y="2.5" class="node-label">C</text></g><g class="noselect gnode" struct_name="m" transform="translate(222.26,-92.06)" r="6.5"><circle class="node" r="6" node_type="nucleotide" style="fill: lightblue;"></circle><text text-anchor="middle" font-size="8" font-weight="bold" y="2.5" class="node-label">A</text></g><g class="noselect gnode" struct_name="m" transform="translate(235.51,-98.98)" r="6.5"><circle class="node" r="6" node_type="nucleotide" style="fill: lightblue;"></circle><text text-anchor="middle" font-size="8" font-weight="bold" y="2.5" class="node-label">A</text></g><g class="noselect gnode" struct_name="m" transform="translate(248.22,-91.03)" r="6.5"><circle class="node" r="6" node_type="nucleotide" style="fill: lightblue;"></circle><text text-anchor="middle" font-size="8" font-weight="bold" y="2.5" class="node-label">C</text></g><g class="noselect gnode" struct_name="m" transform="translate(247.82,-76.11)" r="6.5"><circle class="node" r="6" node_type="nucleotide" style="fill: lightblue;"></circle><text text-anchor="middle" font-size="8" font-weight="bold" y="2.5" class="node-label">U</text></g><g class="noselect gnode" struct_name="m" transform="translate(234.25,-68.81)" r="6.5"><circle class="node" r="6" node_type="nucleotide" style="fill: lightgreen;"></circle><text text-anchor="middle" font-size="8" font-weight="bold" y="2.5" class="node-label">G</text></g><g class="noselect gnode" struct_name="m" transform="translate(225.80,-55.47)" r="6.5"><circle class="node" r="6" node_type="nucleotide" style="fill: lightgreen;"></circle><text text-anchor="middle" font-size="8" font-weight="bold" y="2.5" class="node-label">C</text></g><g class="noselect gnode" struct_name="m" transform="translate(217.34,-41.82)" r="6.5"><circle class="node" r="6" node_type="nucleotide" style="fill: lightgreen;"></circle><text text-anchor="middle" font-size="8" font-weight="bold" y="2.5" class="node-label">A</text></g><g class="noselect gnode" struct_name="m" transform="translate(208.73,-28.14)" r="6.5"><circle class="node" r="6" node_type="nucleotide" style="fill: lightgreen;"></circle><text text-anchor="middle" font-size="8" font-weight="bold" y="2.5" class="node-label">G</text></g><g class="noselect gnode" struct_name="m" transform="translate(199.83,-14.52)" r="6.5"><circle class="node" r="6" node_type="nucleotide" style="fill: lightgreen;"></circle><text text-anchor="middle" font-size="8" font-weight="bold" y="2.5" class="node-label">G</text></g><g class="noselect gnode" struct_name="m" transform="translate(190.60,-1.13)" r="6.5"><circle class="node" r="6" node_type="nucleotide" style="fill: lightgreen;"></circle><text text-anchor="middle" font-size="8" font-weight="bold" y="2.5" class="node-label">U</text></g><g class="noselect gnode" struct_name="m" transform="translate(181.17,11.99)" r="6.5"><circle class="node" r="6" node_type="nucleotide" style="fill: lightgreen;"></circle><text text-anchor="middle" font-size="8" font-weight="bold" y="2.5" class="node-label">G</text></g><g class="noselect gnode" struct_name="m" transform="translate(171.84,24.78)" r="6.5"><circle class="node" r="6" node_type="nucleotide" style="fill: lightgreen;"></circle><text text-anchor="middle" font-size="8" font-weight="bold" y="2.5" class="node-label">A</text></g><g class="noselect gnode" struct_name="m" transform="translate(170.24,39.93)" r="6.5"><circle class="node" r="6" node_type="nucleotide" style="fill: rgb(219, 219, 141);"></circle><text text-anchor="middle" font-size="8" font-weight="bold" y="2.5" class="node-label">A</text></g><g class="noselect gnode" struct_name="m" transform="translate(156.29,46.04)" r="6.5"><circle class="node" r="6" node_type="nucleotide" style="fill: lightgreen;"></circle><text text-anchor="middle" font-size="8" font-weight="bold" y="2.5" class="node-label">G</text></g><g class="noselect gnode" struct_name="m" transform="translate(147.10,58.85)" r="6.5"><circle class="node" r="6" node_type="nucleotide" style="fill: lightgreen;"></circle><text text-anchor="middle" font-size="8" font-weight="bold" y="2.5" class="node-label">C</text></g><g class="noselect gnode" struct_name="m" transform="translate(138.13,72.08)" r="6.5"><circle class="node" r="6" node_type="nucleotide" style="fill: lightgreen;"></circle><text text-anchor="middle" font-size="8" font-weight="bold" y="2.5" class="node-label">U</text></g><g class="noselect gnode" struct_name="m" transform="translate(129.26,85.47)" r="6.5"><circle class="node" r="6" node_type="nucleotide" style="fill: lightgreen;"></circle><text text-anchor="middle" font-size="8" font-weight="bold" y="2.5" class="node-label">C</text></g><g class="noselect gnode" struct_name="m" transform="translate(133.76,100.28)" r="6.5"><circle class="node" r="6" node_type="nucleotide" style="fill: rgb(219, 219, 141);"></circle><text text-anchor="middle" font-size="8" font-weight="bold" y="2.5" class="node-label">A</text></g><g class="noselect gnode" struct_name="m" transform="translate(129.00,114.49)" r="6.5"><circle class="node" r="6" node_type="nucleotide" style="fill: rgb(219, 219, 141);"></circle><text text-anchor="middle" font-size="8" font-weight="bold" y="2.5" class="node-label">A</text></g><g class="noselect gnode" struct_name="m" transform="translate(116.94,123.44)" r="6.5"><circle class="node" r="6" node_type="nucleotide" style="fill: rgb(219, 219, 141);"></circle><text text-anchor="middle" font-size="8" font-weight="bold" y="2.5" class="node-label">C</text></g><g class="noselect gnode" struct_name="m" transform="translate(101.57,123.53)" r="6.5"><circle class="node" r="6" node_type="nucleotide" style="fill: lightgreen;"></circle><text text-anchor="middle" font-size="8" font-weight="bold" y="2.5" class="node-label">A</text></g><g class="noselect gnode" struct_name="m" transform="translate(90.75,135.95)" r="6.5"><circle class="node" r="6" node_type="nucleotide" style="fill: lightgreen;"></circle><text text-anchor="middle" font-size="8" font-weight="bold" y="2.5" class="node-label">A</text></g><g class="noselect gnode" struct_name="m" transform="translate(78.95,147.53)" r="6.5"><circle class="node" r="6" node_type="nucleotide" style="fill: lightgreen;"></circle><text text-anchor="middle" font-size="8" font-weight="bold" y="2.5" class="node-label">C</text></g><g class="noselect gnode" struct_name="m" transform="translate(66.36,158.29)" r="6.5"><circle class="node" r="6" node_type="nucleotide" style="fill: lightgreen;"></circle><text text-anchor="middle" font-size="8" font-weight="bold" y="2.5" class="node-label">C</text></g><g class="noselect gnode" struct_name="m" transform="translate(56.44,171.58)" r="6.5"><circle class="node" r="6" node_type="nucleotide" style="fill: lightgreen;"></circle><text text-anchor="middle" font-size="8" font-weight="bold" y="2.5" class="node-label">C</text></g><g class="noselect gnode" struct_name="m" transform="translate(50.57,186.39)" r="6.5"><circle class="node" r="6" node_type="nucleotide" style="fill: lightgreen;"></circle><text text-anchor="middle" font-size="8" font-weight="bold" y="2.5" class="node-label">G</text></g><g class="noselect gnode" struct_name="m" transform="translate(-5.78,181.57)" r="6.5"><circle class="node label" r="6" node_type="label"></circle><text text-anchor="middle" font-size="8" font-weight="bold" y="2.5" class="node-label">10</text></g><g class="noselect gnode" struct_name="m" transform="translate(76.10,78.17)" r="6.5"><circle class="node label" r="6" node_type="label"></circle><text text-anchor="middle" font-size="8" font-weight="bold" y="2.5" class="node-label">20</text></g><g class="noselect gnode" struct_name="m" transform="translate(174.54,-30.96)" r="6.5"><circle class="node label" r="6" node_type="label"></circle><text text-anchor="middle" font-size="8" font-weight="bold" y="2.5" class="node-label">30</text></g><g class="noselect gnode" struct_name="m" transform="translate(239.99,-49.07)" r="6.5"><circle class="node label" r="6" node_type="label"></circle><text text-anchor="middle" font-size="8" font-weight="bold" y="2.5" class="node-label">40</text></g><g class="noselect gnode" struct_name="m" transform="translate(151.91,79.39)" r="6.5"><circle class="node label" r="6" node_type="label"></circle><text text-anchor="middle" font-size="8" font-weight="bold" y="2.5" class="node-label">50</text></g><g class="noselect gnode" struct_name="m" transform="translate(52.61,201.49)" r="6.5"><circle class="node label" r="6" node_type="label"></circle><text text-anchor="middle" font-size="8" font-weight="bold" y="2.5" class="node-label">60</text></g><g class="noselect gnode" transform="translate(127.62,74.69)" r="6.5"><circle class="node" r="0" node_type="middle"></circle><text text-anchor="middle" font-size="8" font-weight="bold" y="2.5" class="node-label"></text></g><g class="noselect gnode" transform="translate(136.57,61.30)" r="6.5"><circle class="node" r="0" node_type="middle"></circle><text text-anchor="middle" font-size="8" font-weight="bold" y="2.5" class="node-label"></text></g><g class="noselect gnode" transform="translate(145.63,48.12)" r="6.5"><circle class="node" r="0" node_type="middle"></circle><text text-anchor="middle" font-size="8" font-weight="bold" y="2.5" class="node-label"></text></g><g class="noselect gnode" transform="translate(170.56,14.06)" r="6.5"><circle class="node" r="0" node_type="middle"></circle><text text-anchor="middle" font-size="8" font-weight="bold" y="2.5" class="node-label"></text></g><g class="noselect gnode" transform="translate(180.01,1.23)" r="6.5"><circle class="node" r="0" node_type="middle"></circle><text text-anchor="middle" font-size="8" font-weight="bold" y="2.5" class="node-label"></text></g><g class="noselect gnode" transform="translate(189.30,-11.88)" r="6.5"><circle class="node" r="0" node_type="middle"></circle><text text-anchor="middle" font-size="8" font-weight="bold" y="2.5" class="node-label"></text></g><g class="noselect gnode" transform="translate(198.29,-25.26)" r="6.5"><circle class="node" r="0" node_type="middle"></circle><text text-anchor="middle" font-size="8" font-weight="bold" y="2.5" class="node-label"></text></g><g class="noselect gnode" transform="translate(206.94,-38.83)" r="6.5"><circle class="node" r="0" node_type="middle"></circle><text text-anchor="middle" font-size="8" font-weight="bold" y="2.5" class="node-label"></text></g><g class="noselect gnode" transform="translate(215.38,-52.50)" r="6.5"><circle class="node" r="0" node_type="middle"></circle><text text-anchor="middle" font-size="8" font-weight="bold" y="2.5" class="node-label"></text></g><g class="noselect gnode" transform="translate(223.76,-66.09)" r="6.5"><circle class="node" r="0" node_type="middle"></circle><text text-anchor="middle" font-size="8" font-weight="bold" y="2.5" class="node-label"></text></g><g class="noselect gnode" transform="translate(46.58,176.44)" r="6.5"><circle class="node" r="0" node_type="middle"></circle><text text-anchor="middle" font-size="8" font-weight="bold" y="2.5" class="node-label"></text></g><g class="noselect gnode" transform="translate(68.10,147.51)" r="6.5"><circle class="node" r="0" node_type="middle"></circle><text text-anchor="middle" font-size="8" font-weight="bold" y="2.5" class="node-label"></text></g><g class="noselect gnode" transform="translate(79.95,136.80)" r="6.5"><circle class="node" r="0" node_type="middle"></circle><text text-anchor="middle" font-size="8" font-weight="bold" y="2.5" class="node-label"></text></g><g class="noselect gnode" transform="translate(90.86,125.17)" r="6.5"><circle class="node" r="0" node_type="middle"></circle><text text-anchor="middle" font-size="8" font-weight="bold" y="2.5" class="node-label"></text></g><g class="noselect gnode" transform="translate(61.18,197.99)" r="6.5"><circle class="node" r="0" node_type="middle"></circle><text text-anchor="middle" font-size="8" font-weight="bold" y="2.5" class="node-label"></text></g><g class="noselect gnode" transform="translate(66.47,211.43)" r="6.5"><circle class="node" r="0" node_type="middle"></circle><text text-anchor="middle" font-size="8" font-weight="bold" y="2.5" class="node-label"></text></g><g class="noselect gnode" transform="translate(30.53,216.93)" r="6.5"><circle class="node" r="0" node_type="middle"></circle><text text-anchor="middle" font-size="8" font-weight="bold" y="2.5" class="node-label"></text></g><g class="noselect gnode" transform="translate(234.93,-83.92)" r="6.5"><circle class="node" r="0" node_type="middle"></circle><text text-anchor="middle" font-size="8" font-weight="bold" y="2.5" class="node-label"></text></g><g class="noselect gnode" transform="translate(158.03,31.04)" r="6.5"><circle class="node" r="0" node_type="middle"></circle><text text-anchor="middle" font-size="8" font-weight="bold" y="2.5" class="node-label"></text></g><g class="noselect gnode" transform="translate(53.28,158.93)" r="6.5"><circle class="node" r="0" node_type="middle"></circle><text text-anchor="middle" font-size="8" font-weight="bold" y="2.5" class="node-label"></text></g><g class="noselect gnode" transform="translate(109.49,100.19)" r="6.5"><circle class="node" r="0" node_type="middle"></circle><text text-anchor="middle" font-size="8" font-weight="bold" y="2.5" class="node-label"></text></g></g><line class="drag_line" x1="0" y1="0" x2="0" y2="0"></line></g></g></svg>