<svg xmlns="http://www.w3.org/2000/svg" viewBox="0 0 760 640" width="760" height="640"><style>svg {
  display: block;
  min-width: 100%;
  width: 100%;
  min-height: 100%;
}

circle.node {
  stroke: #ccc;
  stroke-width: 1px;
  opacity: 1;
  fill: white;
}

circle.node.label {
    stroke: transparent;
    stroke-width: 0;
    fill: white;
}

circle.outline_node {
    stroke-width: 1px;
    fill: red;
}

circle.protein {
    fill: gray;
    fill-opacity: 0.5;
    stroke-width: 4;
}

circle.hidden_outline {
    stroke-width: 0px;
}


line.link {
  stroke: #999;
  stroke-opacity: 0.8;
  stroke-width: 2;
}

line.basepair {
  stroke: red;
}

line.intermolecule {
  stroke: blue;
}

line.chain_chain {
  stroke-dasharray: 3,3;
}

line.fake {
  stroke: green;
}

.transparent {
    fill: transparent;
    stroke-width: 0;
    stroke-opacity: 0;
    opacity: 0;
    visibility: hidden;
}

.drag_line {
  stroke: #999;
  stroke-width: 2;
  pointer-events: none;
}

.drag_line_hidden {
  stroke: #999;
  stroke-width: 0;
  pointer-events: none;
}

.d3-tip {
    line-height: 1;
    font-weight: bold;
    padding: 6px;
    background: rgba(0, 0, 0, 0.6);
    color: #fff;
    border-radius: 4px;
    pointer-events: none;
          }

text.node-label {
    font-weight: bold;
    font-family: Tahoma, Geneva, sans-serif;
    color: rgb(100,100,100);
    pointer-events: none;
}

text {
    pointer-events: none;
}

g.gnode {

}

circle.outline_node.selected {
    visibility: visible;
}

circle.outline_node {
    visibility: hidden;
}

.brush .extent {
  fill-opacity: .1;
  stroke: #fff;
  shape-rendering: crispEdges;
}

.noselect {
    -webkit-touch-callout: none;
    -webkit-user-select: none;
    -khtml-user-select: none;
    -moz-user-select: none;
    -ms-user-select: none;
    user-select: none;
}

svg {
  display: block;
  min-width: 100%;
  width: 100%;
  min-height: 100%;
}

circle.node {
  stroke: #ccc;
  stroke-width: 1px;
  opacity: 1;
  fill: white;
}

circle.node.label {
    stroke: transparent;
    stroke-width: 0;
    fill: white;
}

circle.outline_node {
    stroke-width: 1px;
    fill: red;
}

circle.protein {
    fill: gray;
    fill-opacity: 0.5;
    stroke-width: 4;
}

circle.hidden_outline {
    stroke-width: 0px;
}


line.link {
  stroke: #999;
  stroke-opacity: 0.8;
  stroke-width: 2;
}

line.basepair {
  stroke: red;
}

line.intermolecule {
  stroke: blue;
}

line.chain_chain {
  stroke-dasharray: 3,3;
}

line.fake {
  stroke: green;
}

.transparent {
    fill: transparent;
    stroke-width: 0;
    stroke-opacity: 0;
    opacity: 0;
    visibility: hidden;
}

.drag_line {
  stroke: #999;
  stroke-width: 2;
  pointer-events: none;
}

.drag_line_hidden {
  stroke: #999;
  stroke-width: 0;
  pointer-events: none;
}

.d3-tip {
    line-height: 1;
    font-weight: bold;
    padding: 6px;
    background: rgba(0, 0, 0, 0.6);
    color: #fff;
    border-radius: 4px;
    pointer-events: none;
          }

text.node-label {
    font-weight: bold;
    font-family: Tahoma, Geneva, sans-serif;
    color: rgb(100,100,100);
    pointer-events: none;
}

text {
    pointer-events: none;
}

g.gnode {

}

circle.outline_node.selected {
    visibility: visible;
}

circle.outline_node {
    visibility: hidden;
}

.brush .extent {
  fill-opacity: .1;
  stroke: #fff;
  shape-rendering: crispEdges;
}

.noselect {
    -webkit-touch-callout: none;
    -webkit-user-select: none;
    -khtml-user-select: none;
    -moz-user-select: none;
    -ms-user-select: none;
    user-select: none;
}
/*# sourceURL=/Users/yumanakamura/ipy_sandbox/sandbox/claude_sandbox/mrna-transformer-worktrees/feat-issue57-switch-derna-knotty/scripts/eval/prerender/forna_vendor/fornac.css*/</style><style></style><g><g class="brush" style="pointer-events: all; -webkit-tap-highlight-color: rgba(0, 0, 0, 0);"><rect class="background" x="0" width="760" y="0" height="640" style="visibility: hidden; cursor: auto;"></rect><rect class="extent" x="0" width="0" y="0" height="0" style="cursor: move;"></rect><g class="resize n" transform="translate(0,0)" style="cursor: ns-resize; display: none;"><rect y="-3" width="0" height="6" style="visibility: hidden;"></rect></g><g class="resize e" transform="translate(0,0)" style="cursor: ew-resize; display: none;"><rect x="-3" width="6" height="0" style="visibility: hidden;"></rect></g><g class="resize s" transform="translate(0,0)" style="cursor: ns-resize; display: none;"><rect y="-3" width="0" height="6" style="visibility: hidden;"></rect></g><g class="resize w" transform="translate(0,0)" style="cursor: ew-resize; display: none;"><rect x="-3" width="6" height="0" style="visibility: hidden;"></rect></g><g class="resize nw" transform="translate(0,0)" style="cursor: nwse-resize; display: none;"><rect x="-3" y="-3" width="6" height="6" style="visibility: hidden;"></rect></g><g class="resize ne" transform="translate(0,0)" style="cursor: nesw-resize; display: none;"><rect x="-3" y="-3" width="6" height="6" style="visibility: hidden;"></rect></g><g class="resize se" transform="translate(0,0)" style="cursor: nwse-resize; display: none;"><rect x="-3" y="-3" width="6" height="6" style="visibility: hidden;"></rect></g><g class="resize sw" transform="translate(0,0)" style="cursor: nesw-resize; display: none;"><rect x="-3" y="-3" width="6" height="6" style="visibility: hidden;"></rect></g></g><g transform="translate(319.40,280.86) scale(1.34)"><g><line class="link backbone" x1="11.43" y1="222.82" x2="5.57" y2="208.96"></line><line class="link basepair" x1="14.95" y1="196.82" x2="29.77" y2="198.81"></line><line class="link backbone" x1="5.57" y1="208.96" x2="14.95" y2="196.82"></line><line class="link basepair" x1="16.99" y1="181.54" x2="31.78" y2="183.39"></line><line class="link backbone" x1="14.95" y1="196.82" x2="16.99" y2="181.54"></line><line class="link backbone" x1="16.99" y1="181.54" x2="5.77" y2="171.37"></line><line class="link backbone" x1="5.77" y1="171.37" x2="2.90" y2="156.60"></line><line class="link backbone" x1="2.90" y1="156.60" x2="9.19" y2="143.07"></line><line class="link basepair" x1="22.45" y1="135.38" x2="37.19" y2="137.03"></line><line class="link backbone" x1="9.19" y1="143.07" x2="22.45" y2="135.38"></line><line class="link basepair" x1="24.26" y1="119.56" x2="38.92" y2="121.25"></line><line class="link backbone" x1="22.45" y1="135.38" x2="24.26" y2="119.56"></line><line class="link backbone" x1="24.26" y1="119.56" x2="14.80" y2="107.35"></line><line class="link backbone" x1="14.80" y1="107.35" x2="16.57" y2="92.50"></line><line class="link basepair" x1="28.57" y1="82.98" x2="43.23" y2="84.77"></line><line class="link backbone" x1="16.57" y1="92.50" x2="28.57" y2="82.98"></line><line class="link basepair" x1="30.71" y1="67.04" x2="45.12" y2="68.94"></line><line class="link backbone" x1="28.57" y1="82.98" x2="30.71" y2="67.04"></line><line class="link basepair" x1="32.82" y1="51.12" x2="47.17" y2="52.86"></line><line class="link backbone" x1="30.71" y1="67.04" x2="32.82" y2="51.12"></line><line class="link basepair" x1="34.45" y1="35.25" x2="49.07" y2="36.54"></line><line class="link backbone" x1="32.82" y1="51.12" x2="34.45" y2="35.25"></line><line class="link backbone" x1="34.45" y1="35.25" x2="24.31" y2="23.84"></line><line class="link backbone" x1="24.31" y1="23.84" x2="25.22" y2="8.92"></line><line class="link basepair" x1="36.68" y1="-1.29" x2="51.30" y2="-0.86"></line><line class="link backbone" x1="25.22" y1="8.92" x2="36.68" y2="-1.29"></line><line class="link basepair" x1="36.90" y1="-17.41" x2="51.05" y2="-17.73"></line><line class="link backbone" x1="36.68" y1="-1.29" x2="36.90" y2="-17.41"></line><line class="link basepair" x1="36.31" y1="-34.02" x2="50.04" y2="-34.98"></line><line class="link backbone" x1="36.90" y1="-17.41" x2="36.31" y2="-34.02"></line><line class="link basepair" x1="32.17" y1="-48.47" x2="48.22" y2="-54.21"></line><line class="link backbone" x1="36.31" y1="-34.02" x2="32.17" y2="-48.47"></line><line class="link basepair" x1="30.56" y1="-60.35" x2="37.61" y2="-70.45"></line><line class="link backbone" x1="32.17" y1="-48.47" x2="30.56" y2="-60.35"></line><line class="link backbone" x1="30.56" y1="-60.35" x2="42.88" y2="-44.48"></line><line class="link backbone" x1="42.88" y1="-44.48" x2="56.70" y2="-44.87"></line><line class="link backbone" x1="56.70" y1="-44.87" x2="71.01" y2="-52.13"></line><line class="link backbone" x1="71.01" y1="-52.13" x2="70.92" y2="-67.34"></line><line class="link basepair" x1="62.65" y1="-80.05" x2="48.88" y2="-83.01"></line><line class="link backbone" x1="70.92" y1="-67.34" x2="62.65" y2="-80.05"></line><line class="link basepair" x1="53.22" y1="-101.53" x2="66.21" y2="-100.05"></line><line class="link backbone" x1="62.65" y1="-80.05" x2="53.22" y2="-101.53"></line><line class="link basepair" x1="54.83" y1="-118.25" x2="69.25" y2="-115.60"></line><line class="link backbone" x1="53.22" y1="-101.53" x2="54.83" y2="-118.25"></line><line class="link basepair" x1="58.58" y1="-134.46" x2="72.68" y2="-130.53"></line><line class="link backbone" x1="54.83" y1="-118.25" x2="58.58" y2="-134.46"></line><line class="link basepair" x1="63.38" y1="-149.97" x2="77.44" y2="-145.03"></line><line class="link backbone" x1="58.58" y1="-134.46" x2="63.38" y2="-149.97"></line><line class="link backbone" x1="63.38" y1="-149.97" x2="60.83" y2="-165.16"></line><line class="link backbone" x1="60.83" y1="-165.16" x2="72.40" y2="-174.71"></line><line class="link backbone" x1="72.40" y1="-174.71" x2="86.47" y2="-169.49"></line><line class="link backbone" x1="86.47" y1="-169.49" x2="89.13" y2="-154.76"></line><line class="link basepair" x1="77.44" y1="-145.03" x2="63.38" y2="-149.97"></line><line class="link backbone" x1="89.13" y1="-154.76" x2="77.44" y2="-145.03"></line><line class="link basepair" x1="72.68" y1="-130.53" x2="58.58" y2="-134.46"></line><line class="link backbone" x1="77.44" y1="-145.03" x2="72.68" y2="-130.53"></line><line class="link basepair" x1="69.25" y1="-115.60" x2="54.83" y2="-118.25"></line><line class="link backbone" x1="72.68" y1="-130.53" x2="69.25" y2="-115.60"></line><line class="link basepair" x1="66.21" y1="-100.05" x2="53.22" y2="-101.53"></line><line class="link backbone" x1="69.25" y1="-115.60" x2="66.21" y2="-100.05"></line><line class="link basepair" x1="48.88" y1="-83.01" x2="62.65" y2="-80.05"></line><line class="link backbone" x1="66.21" y1="-100.05" x2="48.88" y2="-83.01"></line><line class="link basepair" x1="37.61" y1="-70.45" x2="30.56" y2="-60.35"></line><line class="link backbone" x1="48.88" y1="-83.01" x2="37.61" y2="-70.45"></line><line class="link basepair" x1="48.22" y1="-54.21" x2="32.17" y2="-48.47"></line><line class="link backbone" x1="37.61" y1="-70.45" x2="48.22" y2="-54.21"></line><line class="link basepair" x1="50.04" y1="-34.98" x2="36.31" y2="-34.02"></line><line class="link backbone" x1="48.22" y1="-54.21" x2="50.04" y2="-34.98"></line><line class="link basepair" x1="51.05" y1="-17.73" x2="36.90" y2="-17.41"></line><line class="link backbone" x1="50.04" y1="-34.98" x2="51.05" y2="-17.73"></line><line class="link basepair" x1="51.30" y1="-0.86" x2="36.68" y2="-1.29"></line><line class="link backbone" x1="51.05" y1="-17.73" x2="51.30" y2="-0.86"></line><line class="link backbone" x1="51.30" y1="-0.86" x2="61.47" y2="11.13"></line><line class="link backbone" x1="61.47" y1="11.13" x2="60.59" y2="25.99"></line><line class="link basepair" x1="49.07" y1="36.54" x2="34.45" y2="35.25"></line><line class="link backbone" x1="60.59" y1="25.99" x2="49.07" y2="36.54"></line><line class="link basepair" x1="47.17" y1="52.86" x2="32.82" y2="51.12"></line><line class="link backbone" x1="49.07" y1="36.54" x2="47.17" y2="52.86"></line><line class="link basepair" x1="45.12" y1="68.94" x2="30.71" y2="67.04"></line><line class="link backbone" x1="47.17" y1="52.86" x2="45.12" y2="68.94"></line><line class="link basepair" x1="43.23" y1="84.77" x2="28.57" y2="82.98"></line><line class="link backbone" x1="45.12" y1="68.94" x2="43.23" y2="84.77"></line><line class="link backbone" x1="43.23" y1="84.77" x2="52.67" y2="96.80"></line><line class="link backbone" x1="52.67" y1="96.80" x2="50.93" y2="111.64"></line><line class="link basepair" x1="38.92" y1="121.25" x2="24.26" y2="119.56"></line><line class="link backbone" x1="50.93" y1="111.64" x2="38.92" y2="121.25"></line><line class="link basepair" x1="37.19" y1="137.03" x2="22.45" y2="135.38"></line><line class="link backbone" x1="38.92" y1="121.25" x2="37.19" y2="137.03"></line><line class="link backbone" x1="37.19" y1="137.03" x2="48.33" y2="147.62"></line><line class="link backbone" x1="48.33" y1="147.62" x2="51.27" y2="162.27"></line><line class="link backbone" x1="51.27" y1="162.27" x2="45.08" y2="176.00"></line><line class="link basepair" x1="31.78" y1="183.39" x2="16.99" y2="181.54"></line><line class="link backbone" x1="45.08" y1="176.00" x2="31.78" y2="183.39"></line><line class="link basepair" x1="29.77" y1="198.81" x2="14.95" y2="196.82"></line><line class="link backbone" x1="31.78" y1="183.39" x2="29.77" y2="198.81"></line><line class="link label_link" x1="14.80" y1="107.35" x2="-0.47" y2="104.20"></line><line class="link label_link" x1="36.31" y1="-34.02" x2="20.85" y2="-30.73"></line><line class="link label_link" x1="58.58" y1="-134.46" x2="45.97" y2="-143.76"></line><line class="link label_link" x1="48.88" y1="-83.01" x2="59.04" y2="-91.14"></line><line class="link label_link" x1="45.12" y1="68.94" x2="60.65" y2="70.18"></line><line class="link label_link" x1="29.77" y1="198.81" x2="17.83" y2="208.45"></line><line class="link fake transparent" x1="36.68" y1="-1.29" x2="44.19" y2="-9.20"></line><line class="link fake transparent" x1="36.68" y1="-1.29" x2="51.05" y2="-17.73"></line><line class="link fake transparent" x1="36.90" y1="-17.41" x2="44.19" y2="-9.20"></line><line class="link fake transparent" x1="51.05" y1="-17.73" x2="44.19" y2="-9.20"></line><line class="link fake transparent" x1="51.30" y1="-0.86" x2="44.19" y2="-9.20"></line><line class="link fake transparent" x1="36.90" y1="-17.41" x2="43.74" y2="-25.90"></line><line class="link fake transparent" x1="36.31" y1="-34.02" x2="43.74" y2="-25.90"></line><line class="link fake transparent" x1="50.04" y1="-34.98" x2="43.74" y2="-25.90"></line><line class="link fake transparent" x1="51.05" y1="-17.73" x2="43.74" y2="-25.90"></line><line class="link fake transparent" x1="36.31" y1="-34.02" x2="42.35" y2="-42.65"></line><line class="link fake transparent" x1="32.17" y1="-48.47" x2="42.35" y2="-42.65"></line><line class="link fake transparent" x1="48.22" y1="-54.21" x2="42.35" y2="-42.65"></line><line class="link fake transparent" x1="50.04" y1="-34.98" x2="42.35" y2="-42.65"></line><line class="link fake transparent" x1="32.17" y1="-48.47" x2="35.77" y2="-56.41"></line><line class="link fake transparent" x1="30.56" y1="-60.35" x2="35.77" y2="-56.41"></line><line class="link fake transparent" x1="37.61" y1="-70.45" x2="35.77" y2="-56.41"></line><line class="link fake transparent" x1="48.22" y1="-54.21" x2="35.77" y2="-56.41"></line><line class="link fake transparent" x1="62.65" y1="-80.05" x2="57.35" y2="-91.00"></line><line class="link fake transparent" x1="53.22" y1="-101.53" x2="57.35" y2="-91.00"></line><line class="link fake transparent" x1="66.21" y1="-100.05" x2="57.35" y2="-91.00"></line><line class="link fake transparent" x1="48.88" y1="-83.01" x2="57.35" y2="-91.00"></line><line class="link fake transparent" x1="53.22" y1="-101.53" x2="60.45" y2="-108.72"></line><line class="link fake transparent" x1="54.83" y1="-118.25" x2="60.45" y2="-108.72"></line><line class="link fake transparent" x1="69.25" y1="-115.60" x2="60.45" y2="-108.72"></line><line class="link fake transparent" x1="66.21" y1="-100.05" x2="60.45" y2="-108.72"></line><line class="link fake transparent" x1="54.83" y1="-118.25" x2="63.43" y2="-124.75"></line><line class="link fake transparent" x1="58.58" y1="-134.46" x2="63.43" y2="-124.75"></line><line class="link fake transparent" x1="72.68" y1="-130.53" x2="63.43" y2="-124.75"></line><line class="link fake transparent" x1="69.25" y1="-115.60" x2="63.43" y2="-124.75"></line><line class="link fake transparent" x1="58.58" y1="-134.46" x2="67.77" y2="-140.12"></line><line class="link fake transparent" x1="63.38" y1="-149.97" x2="67.77" y2="-140.12"></line><line class="link fake transparent" x1="77.44" y1="-145.03" x2="67.77" y2="-140.12"></line><line class="link fake transparent" x1="72.68" y1="-130.53" x2="67.77" y2="-140.12"></line><line class="link fake transparent" x1="14.95" y1="196.82" x2="23.41" y2="190.19"></line><line class="link fake transparent" x1="16.99" y1="181.54" x2="23.41" y2="190.19"></line><line class="link fake transparent" x1="31.78" y1="183.39" x2="23.41" y2="190.19"></line><line class="link fake transparent" x1="29.77" y1="198.81" x2="23.41" y2="190.19"></line><line class="link fake transparent" x1="22.45" y1="135.38" x2="30.70" y2="128.33"></line><line class="link fake transparent" x1="24.26" y1="119.56" x2="30.70" y2="128.33"></line><line class="link fake transparent" x1="38.92" y1="121.25" x2="30.70" y2="128.33"></line><line class="link fake transparent" x1="37.19" y1="137.03" x2="30.70" y2="128.33"></line><line class="link fake transparent" x1="28.57" y1="82.98" x2="36.84" y2="75.97"></line><line class="link fake transparent" x1="30.71" y1="67.04" x2="36.84" y2="75.97"></line><line class="link fake transparent" x1="45.12" y1="68.94" x2="36.84" y2="75.97"></line><line class="link fake transparent" x1="43.23" y1="84.77" x2="36.84" y2="75.97"></line><line class="link fake transparent" x1="30.71" y1="67.04" x2="38.98" y2="60.01"></line><line class="link fake transparent" x1="32.82" y1="51.12" x2="38.98" y2="60.01"></line><line class="link fake transparent" x1="47.17" y1="52.86" x2="38.98" y2="60.01"></line><line class="link fake transparent" x1="45.12" y1="68.94" x2="38.98" y2="60.01"></line><line class="link fake transparent" x1="32.82" y1="51.12" x2="41.00" y2="43.95"></line><line class="link fake transparent" x1="34.45" y1="35.25" x2="41.00" y2="43.95"></line><line class="link fake transparent" x1="49.07" y1="36.54" x2="41.00" y2="43.95"></line><line class="link fake transparent" x1="47.17" y1="52.86" x2="41.00" y2="43.95"></line><line class="link fake transparent" x1="11.43" y1="222.82" x2="20.74" y2="210.95"></line><line class="link fake transparent" x1="11.43" y1="222.82" x2="29.77" y2="198.81"></line><line class="link fake transparent" x1="5.57" y1="208.96" x2="20.74" y2="210.95"></line><line class="link fake transparent" x1="5.57" y1="208.96" x2="35.05" y2="214.23"></line><line class="link fake transparent" x1="14.95" y1="196.82" x2="20.74" y2="210.95"></line><line class="link fake transparent" x1="14.95" y1="196.82" x2="26.73" y2="224.84"></line><line class="link fake transparent" x1="29.77" y1="198.81" x2="20.74" y2="210.95"></line><line class="link fake transparent" x1="29.77" y1="198.81" x2="11.43" y2="222.82"></line><line class="link fake transparent" x1="63.38" y1="-149.97" x2="74.89" y2="-159.82"></line><line class="link fake transparent" x1="63.38" y1="-149.97" x2="86.47" y2="-169.49"></line><line class="link fake transparent" x1="60.83" y1="-165.16" x2="74.89" y2="-159.82"></line><line class="link fake transparent" x1="60.83" y1="-165.16" x2="89.13" y2="-154.76"></line><line class="link fake transparent" x1="72.40" y1="-174.71" x2="74.89" y2="-159.82"></line><line class="link fake transparent" x1="72.40" y1="-174.71" x2="77.44" y2="-145.03"></line><line class="link fake transparent" x1="86.47" y1="-169.49" x2="74.89" y2="-159.82"></line><line class="link fake transparent" x1="86.47" y1="-169.49" x2="63.38" y2="-149.97"></line><line class="link fake transparent" x1="89.13" y1="-154.76" x2="74.89" y2="-159.82"></line><line class="link fake transparent" x1="89.13" y1="-154.76" x2="60.83" y2="-165.16"></line><line class="link fake transparent" x1="77.44" y1="-145.03" x2="74.89" y2="-159.82"></line><line class="link fake transparent" x1="77.44" y1="-145.03" x2="72.40" y2="-174.71"></line><line class="link fake transparent" x1="30.56" y1="-60.35" x2="53.92" y2="-63.54"></line><line class="link fake transparent" x1="30.56" y1="-60.35" x2="70.92" y2="-67.34"></line><line class="link fake transparent" x1="42.88" y1="-44.48" x2="53.92" y2="-63.54"></line><line class="link fake transparent" x1="42.88" y1="-44.48" x2="62.65" y2="-80.05"></line><line class="link fake transparent" x1="56.70" y1="-44.87" x2="53.92" y2="-63.54"></line><line class="link fake transparent" x1="56.70" y1="-44.87" x2="48.88" y2="-83.01"></line><line class="link fake transparent" x1="71.01" y1="-52.13" x2="53.92" y2="-63.54"></line><line class="link fake transparent" x1="71.01" y1="-52.13" x2="37.61" y2="-70.45"></line><line class="link fake transparent" x1="70.92" y1="-67.34" x2="53.92" y2="-63.54"></line><line class="link fake transparent" x1="70.92" y1="-67.34" x2="30.56" y2="-60.35"></line><line class="link fake transparent" x1="62.65" y1="-80.05" x2="53.92" y2="-63.54"></line><line class="link fake transparent" x1="62.65" y1="-80.05" x2="42.88" y2="-44.48"></line><line class="link fake transparent" x1="48.88" y1="-83.01" x2="53.92" y2="-63.54"></line><line class="link fake transparent" x1="48.88" y1="-83.01" x2="56.70" y2="-44.87"></line><line class="link fake transparent" x1="37.61" y1="-70.45" x2="53.92" y2="-63.54"></line><line class="link fake transparent" x1="37.61" y1="-70.45" x2="71.01" y2="-52.13"></line><line class="link fake transparent" x1="16.99" y1="181.54" x2="27.12" y2="159.40"></line><line class="link fake transparent" x1="16.99" y1="181.54" x2="37.19" y2="137.03"></line><line class="link fake transparent" x1="5.77" y1="171.37" x2="27.12" y2="159.40"></line><line class="link fake transparent" x1="5.77" y1="171.37" x2="48.33" y2="147.62"></line><line class="link fake transparent" x1="2.90" y1="156.60" x2="27.12" y2="159.40"></line><line class="link fake transparent" x1="2.90" y1="156.60" x2="51.27" y2="162.27"></line><line class="link fake transparent" x1="9.19" y1="143.07" x2="27.12" y2="159.40"></line><line class="link fake transparent" x1="9.19" y1="143.07" x2="45.08" y2="176.00"></line><line class="link fake transparent" x1="22.45" y1="135.38" x2="27.12" y2="159.40"></line><line class="link fake transparent" x1="22.45" y1="135.38" x2="31.78" y2="183.39"></line><line class="link fake transparent" x1="37.19" y1="137.03" x2="27.12" y2="159.40"></line><line class="link fake transparent" x1="37.19" y1="137.03" x2="16.99" y2="181.54"></line><line class="link fake transparent" x1="48.33" y1="147.62" x2="27.12" y2="159.40"></line><line class="link fake transparent" x1="48.33" y1="147.62" x2="5.77" y2="171.37"></line><line class="link fake transparent" x1="51.27" y1="162.27" x2="27.12" y2="159.40"></line><line class="link fake transparent" x1="51.27" y1="162.27" x2="2.90" y2="156.60"></line><line class="link fake transparent" x1="45.08" y1="176.00" x2="27.12" y2="159.40"></line><line class="link fake transparent" x1="45.08" y1="176.00" x2="9.19" y2="143.07"></line><line class="link fake transparent" x1="31.78" y1="183.39" x2="27.12" y2="159.40"></line><line class="link fake transparent" x1="31.78" y1="183.39" x2="22.45" y2="135.38"></line><line class="link fake transparent" x1="24.26" y1="119.56" x2="33.72" y2="102.11"></line><line class="link fake transparent" x1="24.26" y1="119.56" x2="43.23" y2="84.77"></line><line class="link fake transparent" x1="14.80" y1="107.35" x2="33.72" y2="102.11"></line><line class="link fake transparent" x1="14.80" y1="107.35" x2="52.67" y2="96.80"></line><line class="link fake transparent" x1="16.57" y1="92.50" x2="33.72" y2="102.11"></line><line class="link fake transparent" x1="16.57" y1="92.50" x2="50.93" y2="111.64"></line><line class="link fake transparent" x1="28.57" y1="82.98" x2="33.72" y2="102.11"></line><line class="link fake transparent" x1="28.57" y1="82.98" x2="38.92" y2="121.25"></line><line class="link fake transparent" x1="43.23" y1="84.77" x2="33.72" y2="102.11"></line><line class="link fake transparent" x1="43.23" y1="84.77" x2="24.26" y2="119.56"></line><line class="link fake transparent" x1="52.67" y1="96.80" x2="33.72" y2="102.11"></line><line class="link fake transparent" x1="52.67" y1="96.80" x2="14.80" y2="107.35"></line><line class="link fake transparent" x1="50.93" y1="111.64" x2="33.72" y2="102.11"></line><line class="link fake transparent" x1="50.93" y1="111.64" x2="16.57" y2="92.50"></line><line class="link fake transparent" x1="38.92" y1="121.25" x2="33.72" y2="102.11"></line><line class="link fake transparent" x1="38.92" y1="121.25" x2="28.57" y2="82.98"></line><line class="link fake transparent" x1="34.45" y1="35.25" x2="43.00" y2="17.44"></line><line class="link fake transparent" x1="34.45" y1="35.25" x2="51.30" y2="-0.86"></line><line class="link fake transparent" x1="24.31" y1="23.84" x2="43.00" y2="17.44"></line><line class="link fake transparent" x1="24.31" y1="23.84" x2="61.47" y2="11.13"></line><line class="link fake transparent" x1="25.22" y1="8.92" x2="43.00" y2="17.44"></line><line class="link fake transparent" x1="25.22" y1="8.92" x2="60.59" y2="25.99"></line><line class="link fake transparent" x1="36.68" y1="-1.29" x2="43.00" y2="17.44"></line><line class="link fake transparent" x1="36.68" y1="-1.29" x2="49.07" y2="36.54"></line><line class="link fake transparent" x1="51.30" y1="-0.86" x2="43.00" y2="17.44"></line><line class="link fake transparent" x1="51.30" y1="-0.86" x2="34.45" y2="35.25"></line><line class="link fake transparent" x1="61.47" y1="11.13" x2="43.00" y2="17.44"></line><line class="link fake transparent" x1="61.47" y1="11.13" x2="24.31" y2="23.84"></line><line class="link fake transparent" x1="60.59" y1="25.99" x2="43.00" y2="17.44"></line><line class="link fake transparent" x1="60.59" y1="25.99" x2="25.22" y2="8.92"></line><line class="link fake transparent" x1="49.07" y1="36.54" x2="43.00" y2="17.44"></line><line class="link fake transparent" x1="49.07" y1="36.54" x2="36.68" y2="-1.29"></line></g><g><g class="noselect gnode" struct_name="m" transform="translate(11.43,222.82)" r="6.5"><circle class="node" r="6" node_type="nucleotide" style="fill: lightsalmon;"></circle><text text-anchor="middle" font-size="8" font-weight="bold" y="2.5" class="node-label">A</text></g><g class="noselect gnode" struct_name="m" transform="translate(5.57,208.96)" r="6.5"><circle class="node" r="6" node_type="nucleotide" style="fill: lightsalmon;"></circle><text text-anchor="middle" font-size="8" font-weight="bold" y="2.5" class="node-label">U</text></g><g class="noselect gnode" struct_name="m" transform="translate(14.95,196.82)" r="6.5"><circle class="node" r="6" node_type="nucleotide" style="fill: lightgreen;"></circle><text text-anchor="middle" font-size="8" font-weight="bold" y="2.5" class="node-label">G</text></g><g class="noselect gnode" struct_name="m" transform="translate(16.99,181.54)" r="6.5"><circle class="node" r="6" node_type="nucleotide" style="fill: lightgreen;"></circle><text text-anchor="middle" font-size="8" font-weight="bold" y="2.5" class="node-label">C</text></g><g class="noselect gnode" struct_name="m" transform="translate(5.77,171.37)" r="6.5"><circle class="node" r="6" node_type="nucleotide" style="fill: rgb(219, 219, 141);"></circle><text text-anchor="middle" font-size="8" font-weight="bold" y="2.5" class="node-label">A</text></g><g class="noselect gnode" struct_name="m" transform="translate(2.90,156.60)" r="6.5"><circle class="node" r="6" node_type="nucleotide" style="fill: rgb(219, 219, 141);"></circle><text text-anchor="middle" font-size="8" font-weight="bold" y="2.5" class="node-label">U</text></g><g class="noselect gnode" struct_name="m" transform="translate(9.19,143.07)" r="6.5"><circle class="node" r="6" node_type="nucleotide" style="fill: rgb(219, 219, 141);"></circle><text text-anchor="middle" font-size="8" font-weight="bold" y="2.5" class="node-label">A</text></g><g class="noselect gnode" struct_name="m" transform="translate(22.45,135.38)" r="6.5"><circle class="node" r="6" node_type="nucleotide" style="fill: lightgreen;"></circle><text text-anchor="middle" font-size="8" font-weight="bold" y="2.5" class="node-label">A</text></g><g class="noselect gnode" struct_name="m" transform="translate(24.26,119.56)" r="6.5"><circle class="node" r="6" node_type="nucleotide" style="fill: lightgreen;"></circle><text text-anchor="middle" font-size="8" font-weight="bold" y="2.5" class="node-label">G</text></g><g class="noselect gnode" struct_name="m" transform="translate(14.80,107.35)" r="6.5"><circle class="node" r="6" node_type="nucleotide" style="fill: rgb(219, 219, 141);"></circle><text text-anchor="middle" font-size="8" font-weight="bold" y="2.5" class="node-label">A</text></g><g class="noselect gnode" struct_name="m" transform="translate(16.57,92.50)" r="6.5"><circle class="node" r="6" node_type="nucleotide" style="fill: rgb(219, 219, 141);"></circle><text text-anchor="middle" font-size="8" font-weight="bold" y="2.5" class="node-label">A</text></g><g class="noselect gnode" struct_name="m" transform="translate(28.57,82.98)" r="6.5"><circle class="node" r="6" node_type="nucleotide" style="fill: lightgreen;"></circle><text text-anchor="middle" font-size="8" font-weight="bold" y="2.5" class="node-label">C</text></g><g class="noselect gnode" struct_name="m" transform="translate(30.71,67.04)" r="6.5"><circle class="node" r="6" node_type="nucleotide" style="fill: lightgreen;"></circle><text text-anchor="middle" font-size="8" font-weight="bold" y="2.5" class="node-label">A</text></g><g class="noselect gnode" struct_name="m" transform="translate(32.82,51.12)" r="6.5"><circle class="node" r="6" node_type="nucleotide" style="fill: lightgreen;"></circle><text text-anchor="middle" font-size="8" font-weight="bold" y="2.5" class="node-label">U</text></g><g class="noselect gnode" struct_name="m" transform="translate(34.45,35.25)" r="6.5"><circle class="node" r="6" node_type="nucleotide" style="fill: lightgreen;"></circle><text text-anchor="middle" font-size="8" font-weight="bold" y="2.5" class="node-label">C</text></g><g class="noselect gnode" struct_name="m" transform="translate(24.31,23.84)" r="6.5"><circle class="node" r="6" node_type="nucleotide" style="fill: rgb(219, 219, 141);"></circle><text text-anchor="middle" font-size="8" font-weight="bold" y="2.5" class="node-label">A</text></g><g class="noselect gnode" struct_name="m" transform="translate(25.22,8.92)" r="6.5"><circle class="node" r="6" node_type="nucleotide" style="fill: rgb(219, 219, 141);"></circle><text text-anchor="middle" font-size="8" font-weight="bold" y="2.5" class="node-label">A</text></g><g class="noselect gnode" struct_name="m" transform="translate(36.68,-1.29)" r="6.5"><circle class="node" r="6" node_type="nucleotide" style="fill: lightgreen;"></circle><text text-anchor="middle" font-size="8" font-weight="bold" y="2.5" class="node-label">C</text></g><g class="noselect gnode" struct_name="m" transform="translate(36.90,-17.41)" r="6.5"><circle class="node" r="6" node_type="nucleotide" style="fill: lightgreen;"></circle><text text-anchor="middle" font-size="8" font-weight="bold" y="2.5" class="node-label">U</text></g><g class="noselect gnode" struct_name="m" transform="translate(36.31,-34.02)" r="6.5"><circle class="node" r="6" node_type="nucleotide" style="fill: lightgreen;"></circle><text text-anchor="middle" font-size="8" font-weight="bold" y="2.5" class="node-label">A</text></g><g class="noselect gnode" struct_name="m" transform="translate(32.17,-48.47)" r="6.5"><circle class="node" r="6" node_type="nucleotide" style="fill: lightgreen;"></circle><text text-anchor="middle" font-size="8" font-weight="bold" y="2.5" class="node-label">C</text></g><g class="noselect gnode" struct_name="m" transform="translate(30.56,-60.35)" r="6.5"><circle class="node" r="6" node_type="nucleotide" style="fill: lightgreen;"></circle><text text-anchor="middle" font-size="8" font-weight="bold" y="2.5" class="node-label">U</text></g><g class="noselect gnode" struct_name="m" transform="translate(42.88,-44.48)" r="6.5"><circle class="node" r="6" node_type="nucleotide" style="fill: rgb(219, 219, 141);"></circle><text text-anchor="middle" font-size="8" font-weight="bold" y="2.5" class="node-label">U</text></g><g class="noselect gnode" struct_name="m" transform="translate(56.70,-44.87)" r="6.5"><circle class="node" r="6" node_type="nucleotide" style="fill: rgb(219, 219, 141);"></circle><text text-anchor="middle" font-size="8" font-weight="bold" y="2.5" class="node-label">U</text></g><g class="noselect gnode" struct_name="m" transform="translate(71.01,-52.13)" r="6.5"><circle class="node" r="6" node_type="nucleotide" style="fill: rgb(219, 219, 141);"></circle><text text-anchor="middle" font-size="8" font-weight="bold" y="2.5" class="node-label">C</text></g><g class="noselect gnode" struct_name="m" transform="translate(70.92,-67.34)" r="6.5"><circle class="node" r="6" node_type="nucleotide" style="fill: rgb(219, 219, 141);"></circle><text text-anchor="middle" font-size="8" font-weight="bold" y="2.5" class="node-label">A</text></g><g class="noselect gnode" struct_name="m" transform="translate(62.65,-80.05)" r="6.5"><circle class="node" r="6" node_type="nucleotide" style="fill: lightgreen;"></circle><text text-anchor="middle" font-size="8" font-weight="bold" y="2.5" class="node-label">C</text></g><g class="noselect gnode" struct_name="m" transform="translate(53.22,-101.53)" r="6.5"><circle class="node" r="6" node_type="nucleotide" style="fill: lightgreen;"></circle><text text-anchor="middle" font-size="8" font-weight="bold" y="2.5" class="node-label">C</text></g><g class="noselect gnode" struct_name="m" transform="translate(54.83,-118.25)" r="6.5"><circle class="node" r="6" node_type="nucleotide" style="fill: lightgreen;"></circle><text text-anchor="middle" font-size="8" font-weight="bold" y="2.5" class="node-label">A</text></g><g class="noselect gnode" struct_name="m" transform="translate(58.58,-134.46)" r="6.5"><circle class="node" r="6" node_type="nucleotide" style="fill: lightgreen;"></circle><text text-anchor="middle" font-size="8" font-weight="bold" y="2.5" class="node-label">G</text></g><g class="noselect gnode" struct_name="m" transform="translate(63.38,-149.97)" r="6.5"><circle class="node" r="6" node_type="nucleotide" style="fill: lightgreen;"></circle><text text-anchor="middle" font-size="8" font-weight="bold" y="2.5" class="node-label">C</text></g><g class="noselect gnode" struct_name="m" transform="translate(60.83,-165.16)" r="6.5"><circle class="node" r="6" node_type="nucleotide" style="fill: lightblue;"></circle><text text-anchor="middle" font-size="8" font-weight="bold" y="2.5" class="node-label">A</text></g><g class="noselect gnode" struct_name="m" transform="translate(72.40,-174.71)" r="6.5"><circle class="node" r="6" node_type="nucleotide" style="fill: lightblue;"></circle><text text-anchor="middle" font-size="8" font-weight="bold" y="2.5" class="node-label">U</text></g><g class="noselect gnode" struct_name="m" transform="translate(86.47,-169.49)" r="6.5"><circle class="node" r="6" node_type="nucleotide" style="fill: lightblue;"></circle><text text-anchor="middle" font-size="8" font-weight="bold" y="2.5" class="node-label">U</text></g><g class="noselect gnode" struct_name="m" transform="translate(89.13,-154.76)" r="6.5"><circle class="node" r="6" node_type="nucleotide" style="fill: lightblue;"></circle><text text-anchor="middle" font-size="8" font-weight="bold" y="2.5" class="node-label">C</text></g><g class="noselect gnode" struct_name="m" transform="translate(77.44,-145.03)" r="6.5"><circle class="node" r="6" node_type="nucleotide" style="fill: lightgreen;"></circle><text text-anchor="middle" font-size="8" font-weight="bold" y="2.5" class="node-label">G</text></g><g class="noselect gnode" struct_name="m" transform="translate(72.68,-130.53)" r="6.5"><circle class="node" r="6" node_type="nucleotide" style="fill: lightgreen;"></circle><text text-anchor="middle" font-size="8" font-weight="bold" y="2.5" class="node-label">C</text></g><g class="noselect gnode" struct_name="m" transform="translate(69.25,-115.60)" r="6.5"><circle class="node" r="6" node_type="nucleotide" style="fill: lightgreen;"></circle><text text-anchor="middle" font-size="8" font-weight="bold" y="2.5" class="node-label">U</text></g><g class="noselect gnode" struct_name="m" transform="translate(66.21,-100.05)" r="6.5"><circle class="node" r="6" node_type="nucleotide" style="fill: lightgreen;"></circle><text text-anchor="middle" font-size="8" font-weight="bold" y="2.5" class="node-label">G</text></g><g class="noselect gnode" struct_name="m" transform="translate(48.88,-83.01)" r="6.5"><circle class="node" r="6" node_type="nucleotide" style="fill: lightgreen;"></circle><text text-anchor="middle" font-size="8" font-weight="bold" y="2.5" class="node-label">G</text></g><g class="noselect gnode" struct_name="m" transform="translate(37.61,-70.45)" r="6.5"><circle class="node" r="6" node_type="nucleotide" style="fill: lightgreen;"></circle><text text-anchor="middle" font-size="8" font-weight="bold" y="2.5" class="node-label">A</text></g><g class="noselect gnode" struct_name="m" transform="translate(48.22,-54.21)" r="6.5"><circle class="node" r="6" node_type="nucleotide" style="fill: lightgreen;"></circle><text text-anchor="middle" font-size="8" font-weight="bold" y="2.5" class="node-label">G</text></g><g class="noselect gnode" struct_name="m" transform="translate(50.04,-34.98)" r="6.5"><circle class="node" r="6" node_type="nucleotide" style="fill: lightgreen;"></circle><text text-anchor="middle" font-size="8" font-weight="bold" y="2.5" class="node-label">U</text></g><g class="noselect gnode" struct_name="m" transform="translate(51.05,-17.73)" r="6.5"><circle class="node" r="6" node_type="nucleotide" style="fill: lightgreen;"></circle><text text-anchor="middle" font-size="8" font-weight="bold" y="2.5" class="node-label">G</text></g><g class="noselect gnode" struct_name="m" transform="translate(51.30,-0.86)" r="6.5"><circle class="node" r="6" node_type="nucleotide" style="fill: lightgreen;"></circle><text text-anchor="middle" font-size="8" font-weight="bold" y="2.5" class="node-label">G</text></g><g class="noselect gnode" struct_name="m" transform="translate(61.47,11.13)" r="6.5"><circle class="node" r="6" node_type="nucleotide" style="fill: rgb(219, 219, 141);"></circle><text text-anchor="middle" font-size="8" font-weight="bold" y="2.5" class="node-label">G</text></g><g class="noselect gnode" struct_name="m" transform="translate(60.59,25.99)" r="6.5"><circle class="node" r="6" node_type="nucleotide" style="fill: rgb(219, 219, 141);"></circle><text text-anchor="middle" font-size="8" font-weight="bold" y="2.5" class="node-label">A</text></g><g class="noselect gnode" struct_name="m" transform="translate(49.07,36.54)" r="6.5"><circle class="node" r="6" node_type="nucleotide" style="fill: lightgreen;"></circle><text text-anchor="middle" font-size="8" font-weight="bold" y="2.5" class="node-label">G</text></g><g class="noselect gnode" struct_name="m" transform="translate(47.17,52.86)" r="6.5"><circle class="node" r="6" node_type="nucleotide" style="fill: lightgreen;"></circle><text text-anchor="middle" font-size="8" font-weight="bold" y="2.5" class="node-label">A</text></g><g class="noselect gnode" struct_name="m" transform="translate(45.12,68.94)" r="6.5"><circle class="node" r="6" node_type="nucleotide" style="fill: lightgreen;"></circle><text text-anchor="middle" font-size="8" font-weight="bold" y="2.5" class="node-label">U</text></g><g class="noselect gnode" struct_name="m" transform="translate(43.23,84.77)" r="6.5"><circle class="node" r="6" node_type="nucleotide" style="fill: lightgreen;"></circle><text text-anchor="middle" font-size="8" font-weight="bold" y="2.5" class="node-label">G</text></g><g class="noselect gnode" struct_name="m" transform="translate(52.67,96.80)" r="6.5"><circle class="node" r="6" node_type="nucleotide" style="fill: rgb(219, 219, 141);"></circle><text text-anchor="middle" font-size="8" font-weight="bold" y="2.5" class="node-label">G</text></g><g class="noselect gnode" struct_name="m" transform="translate(50.93,111.64)" r="6.5"><circle class="node" r="6" node_type="nucleotide" style="fill: rgb(219, 219, 141);"></circle><text text-anchor="middle" font-size="8" font-weight="bold" y="2.5" class="node-label">G</text></g><g class="noselect gnode" struct_name="m" transform="translate(38.92,121.25)" r="6.5"><circle class="node" r="6" node_type="nucleotide" style="fill: lightgreen;"></circle><text text-anchor="middle" font-size="8" font-weight="bold" y="2.5" class="node-label">C</text></g><g class="noselect gnode" struct_name="m" transform="translate(37.19,137.03)" r="6.5"><circle class="node" r="6" node_type="nucleotide" style="fill: lightgreen;"></circle><text text-anchor="middle" font-size="8" font-weight="bold" y="2.5" class="node-label">U</text></g><g class="noselect gnode" struct_name="m" transform="translate(48.33,147.62)" r="6.5"><circle class="node" r="6" node_type="nucleotide" style="fill: rgb(219, 219, 141);"></circle><text text-anchor="middle" font-size="8" font-weight="bold" y="2.5" class="node-label">A</text></g><g class="noselect gnode" struct_name="m" transform="translate(51.27,162.27)" r="6.5"><circle class="node" r="6" node_type="nucleotide" style="fill: rgb(219, 219, 141);"></circle><text text-anchor="middle" font-size="8" font-weight="bold" y="2.5" class="node-label">U</text></g><g class="noselect gnode" struct_name="m" transform="translate(45.08,176.00)" r="6.5"><circle class="node" r="6" node_type="nucleotide" style="fill: rgb(219, 219, 141);"></circle><text text-anchor="middle" font-size="8" font-weight="bold" y="2.5" class="node-label">C</text></g><g class="noselect gnode" struct_name="m" transform="translate(31.78,183.39)" r="6.5"><circle class="node" r="6" node_type="nucleotide" style="fill: lightgreen;"></circle><text text-anchor="middle" font-size="8" font-weight="bold" y="2.5" class="node-label">G</text></g><g class="noselect gnode" struct_name="m" transform="translate(29.77,198.81)" r="6.5"><circle class="node" r="6" node_type="nucleotide" style="fill: lightgreen;"></circle><text text-anchor="middle" font-size="8" font-weight="bold" y="2.5" class="node-label">C</text></g><g class="noselect gnode" struct_name="m" transform="translate(-0.47,104.20)" r="6.5"><circle class="node label" r="6" node_type="label"></circle><text text-anchor="middle" font-size="8" font-weight="bold" y="2.5" class="node-label">10</text></g><g class="noselect gnode" struct_name="m" transform="translate(20.85,-30.73)" r="6.5"><circle class="node label" r="6" node_type="label"></circle><text text-anchor="middle" font-size="8" font-weight="bold" y="2.5" class="node-label">20</text></g><g class="noselect gnode" struct_name="m" transform="translate(45.97,-143.76)" r="6.5"><circle class="node label" r="6" node_type="label"></circle><text text-anchor="middle" font-size="8" font-weight="bold" y="2.5" class="node-label">30</text></g><g class="noselect gnode" struct_name="m" transform="translate(59.04,-91.14)" r="6.5"><circle class="node label" r="6" node_type="label"></circle><text text-anchor="middle" font-size="8" font-weight="bold" y="2.5" class="node-label">40</text></g><g class="noselect gnode" struct_name="m" transform="translate(60.65,70.18)" r="6.5"><circle class="node label" r="6" node_type="label"></circle><text text-anchor="middle" font-size="8" font-weight="bold" y="2.5" class="node-label">50</text></g><g class="noselect gnode" struct_name="m" transform="translate(17.83,208.45)" r="6.5"><circle class="node label" r="6" node_type="label"></circle><text text-anchor="middle" font-size="8" font-weight="bold" y="2.5" class="node-label">60</text></g><g class="noselect gnode" transform="translate(44.19,-9.20)" r="6.5"><circle class="node" r="0" node_type="middle"></circle><text text-anchor="middle" font-size="8" font-weight="bold" y="2.5" class="node-label"></text></g><g class="noselect gnode" transform="translate(43.74,-25.90)" r="6.5"><circle class="node" r="0" node_type="middle"></circle><text text-anchor="middle" font-size="8" font-weight="bold" y="2.5" class="node-label"></text></g><g class="noselect gnode" transform="translate(42.35,-42.65)" r="6.5"><circle class="node" r="0" node_type="middle"></circle><text text-anchor="middle" font-size="8" font-weight="bold" y="2.5" class="node-label"></text></g><g class="noselect gnode" transform="translate(35.77,-56.41)" r="6.5"><circle class="node" r="0" node_type="middle"></circle><text text-anchor="middle" font-size="8" font-weight="bold" y="2.5" class="node-label"></text></g><g class="noselect gnode" transform="translate(57.35,-91.00)" r="6.5"><circle class="node" r="0" node_type="middle"></circle><text text-anchor="middle" font-size="8" font-weight="bold" y="2.5" class="node-label"></text></g><g class="noselect gnode" transform="translate(60.45,-108.72)" r="6.5"><circle class="node" r="0" node_type="middle"></circle><text text-anchor="middle" font-size="8" font-weight="bold" y="2.5" class="node-label"></text></g><g class="noselect gnode" transform="translate(63.43,-124.75)" r="6.5"><circle class="node" r="0" node_type="middle"></circle><text text-anchor="middle" font-size="8" font-weight="bold" y="2.5" class="node-label"></text></g><g class="noselect gnode" transform="translate(67.77,-140.12)" r="6.5"><circle class="node" r="0" node_type="middle"></circle><text text-anchor="middle" font-size="8" font-weight="bold" y="2.5" class="node-label"></text></g><g class="noselect gnode" transform="translate(23.41,190.19)" r="6.5"><circle class="node" r="0" node_type="middle"></circle><text text-anchor="middle" font-size="8" font-weight="bold" y="2.5" class="node-label"></text></g><g class="noselect gnode" transform="translate(30.70,128.33)" r="6.5"><circle class="node" r="0" node_type="middle"></circle><text text-anchor="middle" font-size="8" font-weight="bold" y="2.5" class="node-label"></text></g><g class="noselect gnode" transform="translate(36.84,75.97)" r="6.5"><circle class="node" r="0" node_type="middle"></circle><text text-anchor="middle" font-size="8" font-weight="bold" y="2.5" class="node-label"></text></g><g class="noselect gnode" transform="translate(38.98,60.01)" r="6.5"><circle class="node" r="0" node_type="middle"></circle><text text-anchor="middle" font-size="8" font-weight="bold" y="2.5" class="node-label"></text></g><g class="noselect gnode" transform="translate(41.00,43.95)" r="6.5"><circle class="node" r="0" node_type="middle"></circle><text text-anchor="middle" font-size="8" font-weight="bold" y="2.5" class="node-label"></text></g><g class="noselect gnode" transform="translate(35.05,214.23)" r="6.5"><circle class="node" r="0" node_type="middle"></circle><text text-anchor="middle" font-size="8" font-weight="bold" y="2.5" class="node-label"></text></g><g class="noselect gnode" transform="translate(26.73,224.84)" r="6.5"><circle class="node" r="0" node_type="middle"></circle><text text-anchor="middle" font-size="8" font-weight="bold" y="2.5" class="node-label"></text></g><g class="noselect gnode" transform="translate(20.74,210.95)" r="6.5"><circle class="node" r="0" node_type="middle"></circle><text text-anchor="middle" font-size="8" font-weight="bold" y="2.5" class="node-label"></text></g><g class="noselect gnode" transform="translate(74.89,-159.82)" r="6.5"><circle class="node" r="0" node_type="middle"></circle><text text-anchor="middle" font-size="8" font-weight="bold" y="2.5" class="node-label"></text></g><g class="noselect gnode" transform="translate(53.92,-63.54)" r="6.5"><circle class="node" r="0" node_type="middle"></circle><text text-anchor="middle" font-size="8" font-weight="bold" y="2.5" class="node-label"></text></g><g class="noselect gnode" transform="translate(27.12,159.40)" r="6.5"><circle class="node" r="0" node_type="middle"></circle><text text-anchor="middle" font-size="8" font-weight="bold" y="2.5" class="node-label"></text></g><g class="noselect gnode" transform="translate(33.72,102.11)" r="6.5"><circle class="node" r="0" node_type="middle"></circle><text text-anchor="middle" font-size="8" font-weight="bold" y="2.5" class="node-label"></text></g><g class="noselect gnode" transform="translate(43.00,17.44)" r="6.5"><circle class="node" r="0" node_type="middle"></circle><text text-anchor="middle" font-size="8" font-weight="bold" y="2.5" class="node-label"></text></g></g><line class="drag_line" x1="0" y1="0" x2="0" y2="0"></line></g></g></svg>