<svg xmlns="http://www.w3.org/2000/svg" viewBox="0 0 760 640" width="760" height="640"><style>svg {
  display: block;
  min-width: 100%;
  width: 100%;
  min-height: 100%;
}

circle.node {
  stroke: #ccc;
  stroke-width: 1px;
  opacity: 1;
  fill: white;
}

circle.node.label {
    stroke: transparent;
    stroke-width: 0;
    fill: white;
}

circle.outline_node {
    stroke-width: 1px;
    fill: red;
}

circle.protein {
    fill: gray;
    fill-opacity: 0.5;
    stroke-width: 4;
}

circle.hidden_outline {
    stroke-width: 0px;
}


line.link {
  stroke: #999;
  stroke-opacity: 0.8;
  stroke-width: 2;
}

line.basepair {
  stroke: red;
}

line.intermolecule {
  stroke: blue;
}

line.chain_chain {
  stroke-dasharray: 3,3;
}

line.fake {
  stroke: green;
}

.transparent {
    fill: transparent;
    stroke-width: 0;
    stroke-opacity: 0;
    opacity: 0;
    visibility: hidden;
}

.drag_line {
  stroke: #999;
  stroke-width: 2;
  pointer-events: none;
}

.drag_line_hidden {
  stroke: #999;
  stroke-width: 0;
  pointer-events: none;
}

.d3-tip {
    line-height: 1;
    font-weight: bold;
    padding: 6px;
    background: rgba(0, 0, 0, 0.6);
    color: #fff;
    border-radius: 4px;
    pointer-events: none;
          }

text.node-label {
    font-weight: bold;
    font-family: Tahoma, Geneva, sans-serif;
    color: rgb(100,100,100);
    pointer-events: none;
}

text {
    pointer-events: none;
}

g.gnode {

}

circle.outline_node.selected {
    visibility: visible;
}

circle.outline_node {
    visibility: hidden;
}

.brush .extent {
  fill-opacity: .1;
  stroke: #fff;
  shape-rendering: crispEdges;
}

.noselect {
    -webkit-touch-callout: none;
    -webkit-user-select: none;
    -khtml-user-select: none;
    -moz-user-select: none;
    -ms-user-select: none;
    user-select: none;
}

svg {
  display: block;
  min-width: 100%;
  width: 100%;
  min-height: 100%;
}

circle.node {
  stroke: #ccc;
  stroke-width: 1px;
  opacity: 1;
  fill: white;
}

circle.node.label {
    stroke: transparent;
    stroke-width: 0;
    fill: white;
}

circle.outline_node {
    stroke-width: 1px;
    fill: red;
}

circle.protein {
    fill: gray;
    fill-opacity: 0.5;
    stroke-width: 4;
}

circle.hidden_outline {
    stroke-width: 0px;
}


line.link {
  stroke: #999;
  stroke-opacity: 0.8;
  stroke-width: 2;
}

line.basepair {
  stroke: red;
}

line.intermolecule {
  stroke: blue;
}

line.chain_chain {
  stroke-dasharray: 3,3;
}

line.fake {
  stroke: green;
}

.transparent {
    fill: transparent;
    stroke-width: 0;
    stroke-opacity: 0;
    opacity: 0;
    visibility: hidden;
}

.drag_line {
  stroke: #999;
  stroke-width: 2;
  pointer-events: none;
}

.drag_line_hidden {
  stroke: #999;
  stroke-width: 0;
  pointer-events: none;
}

.d3-tip {
    line-height: 1;
    font-weight: bold;
    padding: 6px;
    background: rgba(0, 0, 0, 0.6);
    color: #fff;
    border-radius: 4px;
    pointer-events: none;
          }

text.node-label {
    font-weight: bold;
    font-family: Tahoma, Geneva, sans-serif;
    color: rgb(100,100,100);
    pointer-events: none;
}

text {
    pointer-events: none;
}

g.gnode {

}

circle.outline_node.selected {
    visibility: visible;
}

circle.outline_node {
    visibility: hidden;
}

.brush .extent {
  fill-opacity: .1;
  stroke: #fff;
  shape-rendering: crispEdges;
}

.noselect {
    -webkit-touch-callout: none;
    -webkit-user-select: none;
    -khtml-user-select: none;
    -moz-user-select: none;
    -ms-user-select: none;
    user-select: none;
}
/*# sourceURL=/Users/yumanakamura/ipy_sandbox/sandbox/claude_sandbox/mrna-transformer-worktrees/feat-issue57-switch-derna-knotty/scripts/eval/prerender/forna_vendor/fornac.css*/</style><style></style><g><g class="brush" style="pointer-events: all; -webkit-tap-highlight-color: rgba(0, 0, 0, 0);"><rect class="background" x="0" width="760" y="0" height="640" style="visibility: hidden; cursor: auto;"></rect><rect class="extent" x="0" width="0" y="0" height="0" style="cursor: move;"></rect><g class="resize n" transform="translate(0,0)" style="cursor: ns-resize; display: none;"><rect y="-3" width="0" height="6" style="visibility: hidden;"></rect></g><g class="resize e" transform="translate(0,0)" style="cursor: ew-resize; display: none;"><rect x="-3" width="6" height="0" style="visibility: hidden;"></rect></g><g class="resize s" transform="translate(0,0)" style="cursor: ns-resize; display: none;"><rect y="-3" width="0" height="6" style="visibility: hidden;"></rect></g><g class="resize w" transform="translate(0,0)" style="cursor: ew-resize; display: none;"><rect x="-3" width="6" height="0" style="visibility: hidden;"></rect></g><g class="resize nw" transform="translate(0,0)" style="cursor: nwse-resize; display: none;"><rect x="-3" y="-3" width="6" height="6" style="visibility: hidden;"></rect></g><g class="resize ne" transform="translate(0,0)" style="cursor: nesw-resize; display: none;"><rect x="-3" y="-3" width="6" height="6" style="visibility: hidden;"></rect></g><g class="resize se" transform="translate(0,0)" style="cursor: nwse-resize; display: none;"><rect x="-3" y="-3" width="6" height="6" style="visibility: hidden;"></rect></g><g class="resize sw" transform="translate(0,0)" style="cursor: nesw-resize; display: none;"><rect x="-3" y="-3" width="6" height="6" style="visibility: hidden;"></rect></g></g><g transform="translate(76.98,61.07) scale(1.87)"><g><line class="link basepair" x1="231.42" y1="206.27" x2="242.15" y2="195.97"></line><line class="link basepair" x1="220.39" y1="195.20" x2="230.46" y2="184.70"></line><line class="link backbone" x1="231.42" y1="206.27" x2="220.39" y2="195.20"></line><line class="link basepair" x1="208.71" y1="184.22" x2="218.72" y2="173.65"></line><line class="link backbone" x1="220.39" y1="195.20" x2="208.71" y2="184.22"></line><line class="link basepair" x1="196.99" y1="172.96" x2="207.21" y2="162.63"></line><line class="link backbone" x1="208.71" y1="184.22" x2="196.99" y2="172.96"></line><line class="link basepair" x1="185.52" y1="161.21" x2="196.14" y2="151.32"></line><line class="link backbone" x1="196.99" y1="172.96" x2="185.52" y2="161.21"></line><line class="link basepair" x1="174.44" y1="148.94" x2="185.98" y2="139.55"></line><line class="link backbone" x1="185.52" y1="161.21" x2="174.44" y2="148.94"></line><line class="link backbone" x1="174.44" y1="148.94" x2="159.18" y2="145.24"></line><line class="link basepair" x1="152.38" y1="131.00" x2="159.24" y2="117.79"></line><line class="link backbone" x1="159.18" y1="145.24" x2="152.38" y2="131.00"></line><line class="link basepair" x1="138.08" y1="122.48" x2="145.61" y2="110.23"></line><line class="link backbone" x1="152.38" y1="131.00" x2="138.08" y2="122.48"></line><line class="link basepair" x1="124.12" y1="113.60" x2="132.40" y2="101.47"></line><line class="link backbone" x1="138.08" y1="122.48" x2="124.12" y2="113.60"></line><line class="link backbone" x1="124.12" y1="113.60" x2="108.63" y2="112.20"></line><line class="link basepair" x1="102.16" y1="98.23" x2="110.82" y2="86.33"></line><line class="link backbone" x1="108.63" y1="112.20" x2="102.16" y2="98.23"></line><line class="link basepair" x1="89.15" y1="87.95" x2="98.48" y2="76.83"></line><line class="link backbone" x1="102.16" y1="98.23" x2="89.15" y2="87.95"></line><line class="link basepair" x1="76.81" y1="76.87" x2="86.90" y2="66.38"></line><line class="link backbone" x1="89.15" y1="87.95" x2="76.81" y2="76.87"></line><line class="link basepair" x1="65.24" y1="64.96" x2="75.89" y2="55.14"></line><line class="link backbone" x1="76.81" y1="76.87" x2="65.24" y2="64.96"></line><line class="link basepair" x1="54.34" y1="52.41" x2="65.56" y2="43.24"></line><line class="link backbone" x1="65.24" y1="64.96" x2="54.34" y2="52.41"></line><line class="link basepair" x1="44.15" y1="39.43" x2="56.30" y2="30.87"></line><line class="link backbone" x1="54.34" y1="52.41" x2="44.15" y2="39.43"></line><line class="link basepair" x1="31.26" y1="29.11" x2="36.91" y2="15.33"></line><line class="link backbone" x1="44.15" y1="39.43" x2="31.26" y2="29.11"></line><line class="link basepair" x1="16.66" y1="22.54" x2="22.96" y2="9.07"></line><line class="link backbone" x1="31.26" y1="29.11" x2="16.66" y2="22.54"></line><line class="link backbone" x1="16.66" y1="22.54" x2="1.26" y2="23.65"></line><line class="link backbone" x1="1.26" y1="23.65" x2="-7.14" y2="11.24"></line><line class="link backbone" x1="-7.14" y1="11.24" x2="-0.64" y2="-2.25"></line><line class="link backbone" x1="-0.64" y1="-2.25" x2="14.24" y2="-3.55"></line><line class="link basepair" x1="22.96" y1="9.07" x2="16.66" y2="22.54"></line><line class="link backbone" x1="14.24" y1="-3.55" x2="22.96" y2="9.07"></line><line class="link basepair" x1="36.91" y1="15.33" x2="31.26" y2="29.11"></line><line class="link backbone" x1="22.96" y1="9.07" x2="36.91" y2="15.33"></line><line class="link backbone" x1="36.91" y1="15.33" x2="52.31" y2="15.93"></line><line class="link basepair" x1="56.30" y1="30.87" x2="44.15" y2="39.43"></line><line class="link backbone" x1="52.31" y1="15.93" x2="56.30" y2="30.87"></line><line class="link basepair" x1="65.56" y1="43.24" x2="54.34" y2="52.41"></line><line class="link backbone" x1="56.30" y1="30.87" x2="65.56" y2="43.24"></line><line class="link basepair" x1="75.89" y1="55.14" x2="65.24" y2="64.96"></line><line class="link backbone" x1="65.56" y1="43.24" x2="75.89" y2="55.14"></line><line class="link basepair" x1="86.90" y1="66.38" x2="76.81" y2="76.87"></line><line class="link backbone" x1="75.89" y1="55.14" x2="86.90" y2="66.38"></line><line class="link basepair" x1="98.48" y1="76.83" x2="89.15" y2="87.95"></line><line class="link backbone" x1="86.90" y1="66.38" x2="98.48" y2="76.83"></line><line class="link basepair" x1="110.82" y1="86.33" x2="102.16" y2="98.23"></line><line class="link backbone" x1="98.48" y1="76.83" x2="110.82" y2="86.33"></line><line class="link backbone" x1="110.82" y1="86.33" x2="125.95" y2="87.56"></line><line class="link basepair" x1="132.40" y1="101.47" x2="124.12" y2="113.60"></line><line class="link backbone" x1="125.95" y1="87.56" x2="132.40" y2="101.47"></line><line class="link basepair" x1="145.61" y1="110.23" x2="138.08" y2="122.48"></line><line class="link backbone" x1="132.40" y1="101.47" x2="145.61" y2="110.23"></line><line class="link basepair" x1="159.24" y1="117.79" x2="152.38" y2="131.00"></line><line class="link backbone" x1="145.61" y1="110.23" x2="159.24" y2="117.79"></line><line class="link backbone" x1="159.24" y1="117.79" x2="174.36" y2="114.61"></line><line class="link backbone" x1="174.36" y1="114.61" x2="186.02" y2="124.09"></line><line class="link basepair" x1="185.98" y1="139.55" x2="174.44" y2="148.94"></line><line class="link backbone" x1="186.02" y1="124.09" x2="185.98" y2="139.55"></line><line class="link basepair" x1="196.14" y1="151.32" x2="185.52" y2="161.21"></line><line class="link backbone" x1="185.98" y1="139.55" x2="196.14" y2="151.32"></line><line class="link basepair" x1="207.21" y1="162.63" x2="196.99" y2="172.96"></line><line class="link backbone" x1="196.14" y1="151.32" x2="207.21" y2="162.63"></line><line class="link basepair" x1="218.72" y1="173.65" x2="208.71" y2="184.22"></line><line class="link backbone" x1="207.21" y1="162.63" x2="218.72" y2="173.65"></line><line class="link basepair" x1="230.46" y1="184.70" x2="220.39" y2="195.20"></line><line class="link backbone" x1="218.72" y1="173.65" x2="230.46" y2="184.70"></line><line class="link basepair" x1="242.15" y1="195.97" x2="231.42" y2="206.27"></line><line class="link backbone" x1="230.46" y1="184.70" x2="242.15" y2="195.97"></line><line class="link backbone" x1="242.15" y1="195.97" x2="256.37" y2="190.22"></line><line class="link backbone" x1="256.37" y1="190.22" x2="271.19" y2="188.53"></line><line class="link backbone" x1="271.19" y1="188.53" x2="285.89" y2="191.43"></line><line class="link backbone" x1="285.89" y1="191.43" x2="298.87" y2="198.76"></line><line class="link backbone" x1="298.87" y1="198.76" x2="308.97" y2="209.72"></line><line class="link backbone" x1="308.97" y1="209.72" x2="315.23" y2="223.24"></line><line class="link backbone" x1="315.23" y1="223.24" x2="317.25" y2="237.96"></line><line class="link backbone" x1="317.25" y1="237.96" x2="314.58" y2="252.60"></line><line class="link backbone" x1="314.58" y1="252.60" x2="307.19" y2="265.48"></line><line class="link backbone" x1="307.19" y1="265.48" x2="296.38" y2="275.55"></line><line class="link backbone" x1="296.38" y1="275.55" x2="283.24" y2="282.42"></line><line class="link backbone" x1="283.24" y1="282.42" x2="268.56" y2="284.61"></line><line class="link backbone" x1="268.56" y1="284.61" x2="253.95" y2="282.13"></line><line class="link backbone" x1="253.95" y1="282.13" x2="240.74" y2="275.36"></line><line class="link backbone" x1="240.74" y1="275.36" x2="230.22" y2="264.86"></line><line class="link backbone" x1="230.22" y1="264.86" x2="223.38" y2="251.62"></line><line class="link label_link" x1="124.12" y1="113.60" x2="115.28" y2="126.44"></line><line class="link label_link" x1="1.26" y1="23.65" x2="-12.85" y2="30.08"></line><line class="link label_link" x1="86.90" y1="66.38" x2="98.98" y2="56.51"></line><line class="link label_link" x1="196.14" y1="151.32" x2="208.24" y2="141.48"></line><line class="link label_link" x1="315.23" y1="223.24" x2="329.48" y2="217.65"></line><line class="link label_link" x1="223.38" y1="251.62" x2="209.99" y2="259.30"></line><line class="link fake transparent" x1="102.16" y1="98.23" x2="99.97" y2="87.58"></line><line class="link fake transparent" x1="102.16" y1="98.23" x2="98.48" y2="76.83"></line><line class="link fake transparent" x1="89.15" y1="87.95" x2="99.97" y2="87.58"></line><line class="link fake transparent" x1="98.48" y1="76.83" x2="99.97" y2="87.58"></line><line class="link fake transparent" x1="110.82" y1="86.33" x2="99.97" y2="87.58"></line><line class="link fake transparent" x1="89.15" y1="87.95" x2="87.66" y2="77.25"></line><line class="link fake transparent" x1="76.81" y1="76.87" x2="87.66" y2="77.25"></line><line class="link fake transparent" x1="86.90" y1="66.38" x2="87.66" y2="77.25"></line><line class="link fake transparent" x1="98.48" y1="76.83" x2="87.66" y2="77.25"></line><line class="link fake transparent" x1="76.81" y1="76.87" x2="76.03" y2="66.03"></line><line class="link fake transparent" x1="65.24" y1="64.96" x2="76.03" y2="66.03"></line><line class="link fake transparent" x1="75.89" y1="55.14" x2="76.03" y2="66.03"></line><line class="link fake transparent" x1="86.90" y1="66.38" x2="76.03" y2="66.03"></line><line class="link fake transparent" x1="65.24" y1="64.96" x2="65.08" y2="54.09"></line><line class="link fake transparent" x1="54.34" y1="52.41" x2="65.08" y2="54.09"></line><line class="link fake transparent" x1="65.56" y1="43.24" x2="65.08" y2="54.09"></line><line class="link fake transparent" x1="75.89" y1="55.14" x2="65.08" y2="54.09"></line><line class="link fake transparent" x1="54.34" y1="52.41" x2="54.84" y2="41.58"></line><line class="link fake transparent" x1="44.15" y1="39.43" x2="54.84" y2="41.58"></line><line class="link fake transparent" x1="56.30" y1="30.87" x2="54.84" y2="41.58"></line><line class="link fake transparent" x1="65.56" y1="43.24" x2="54.84" y2="41.58"></line><line class="link fake transparent" x1="31.26" y1="29.11" x2="26.91" y2="19.15"></line><line class="link fake transparent" x1="16.66" y1="22.54" x2="26.91" y2="19.15"></line><line class="link fake transparent" x1="22.96" y1="9.07" x2="26.91" y2="19.15"></line><line class="link fake transparent" x1="36.91" y1="15.33" x2="26.91" y2="19.15"></line><line class="link fake transparent" x1="231.42" y1="206.27" x2="231.30" y2="195.55"></line><line class="link fake transparent" x1="220.39" y1="195.20" x2="231.30" y2="195.55"></line><line class="link fake transparent" x1="230.46" y1="184.70" x2="231.30" y2="195.55"></line><line class="link fake transparent" x1="242.15" y1="195.97" x2="231.30" y2="195.55"></line><line class="link fake transparent" x1="220.39" y1="195.20" x2="219.61" y2="184.46"></line><line class="link fake transparent" x1="208.71" y1="184.22" x2="219.61" y2="184.46"></line><line class="link fake transparent" x1="218.72" y1="173.65" x2="219.61" y2="184.46"></line><line class="link fake transparent" x1="230.46" y1="184.70" x2="219.61" y2="184.46"></line><line class="link fake transparent" x1="208.71" y1="184.22" x2="207.88" y2="173.47"></line><line class="link fake transparent" x1="196.99" y1="172.96" x2="207.88" y2="173.47"></line><line class="link fake transparent" x1="207.21" y1="162.63" x2="207.88" y2="173.47"></line><line class="link fake transparent" x1="218.72" y1="173.65" x2="207.88" y2="173.47"></line><line class="link fake transparent" x1="196.99" y1="172.96" x2="196.36" y2="162.16"></line><line class="link fake transparent" x1="185.52" y1="161.21" x2="196.36" y2="162.16"></line><line class="link fake transparent" x1="196.14" y1="151.32" x2="196.36" y2="162.16"></line><line class="link fake transparent" x1="207.21" y1="162.63" x2="196.36" y2="162.16"></line><line class="link fake transparent" x1="185.52" y1="161.21" x2="185.30" y2="150.37"></line><line class="link fake transparent" x1="174.44" y1="148.94" x2="185.30" y2="150.37"></line><line class="link fake transparent" x1="185.98" y1="139.55" x2="185.30" y2="150.37"></line><line class="link fake transparent" x1="196.14" y1="151.32" x2="185.30" y2="150.37"></line><line class="link fake transparent" x1="152.38" y1="131.00" x2="148.80" y2="120.63"></line><line class="link fake transparent" x1="138.08" y1="122.48" x2="148.80" y2="120.63"></line><line class="link fake transparent" x1="145.61" y1="110.23" x2="148.80" y2="120.63"></line><line class="link fake transparent" x1="159.24" y1="117.79" x2="148.80" y2="120.63"></line><line class="link fake transparent" x1="138.08" y1="122.48" x2="134.96" y2="112.09"></line><line class="link fake transparent" x1="124.12" y1="113.60" x2="134.96" y2="112.09"></line><line class="link fake transparent" x1="132.40" y1="101.47" x2="134.96" y2="112.09"></line><line class="link fake transparent" x1="145.61" y1="110.23" x2="134.96" y2="112.09"></line><line class="link fake transparent" x1="231.42" y1="206.27" x2="268.96" y2="236.37"></line><line class="link fake transparent" x1="231.42" y1="206.27" x2="307.19" y2="265.48"></line><line class="link fake transparent" x1="242.15" y1="195.97" x2="268.96" y2="236.37"></line><line class="link fake transparent" x1="242.15" y1="195.97" x2="296.38" y2="275.55"></line><line class="link fake transparent" x1="256.37" y1="190.22" x2="268.96" y2="236.37"></line><line class="link fake transparent" x1="256.37" y1="190.22" x2="283.24" y2="282.42"></line><line class="link fake transparent" x1="271.19" y1="188.53" x2="268.96" y2="236.37"></line><line class="link fake transparent" x1="271.19" y1="188.53" x2="268.56" y2="284.61"></line><line class="link fake transparent" x1="285.89" y1="191.43" x2="268.96" y2="236.37"></line><line class="link fake transparent" x1="285.89" y1="191.43" x2="253.95" y2="282.13"></line><line class="link fake transparent" x1="298.87" y1="198.76" x2="268.96" y2="236.37"></line><line class="link fake transparent" x1="298.87" y1="198.76" x2="240.74" y2="275.36"></line><line class="link fake transparent" x1="308.97" y1="209.72" x2="268.96" y2="236.37"></line><line class="link fake transparent" x1="308.97" y1="209.72" x2="230.22" y2="264.86"></line><line class="link fake transparent" x1="315.23" y1="223.24" x2="268.96" y2="236.37"></line><line class="link fake transparent" x1="315.23" y1="223.24" x2="223.38" y2="251.62"></line><line class="link fake transparent" x1="317.25" y1="237.96" x2="268.96" y2="236.37"></line><line class="link fake transparent" x1="317.25" y1="237.96" x2="221.01" y2="236.96"></line><line class="link fake transparent" x1="314.58" y1="252.60" x2="268.96" y2="236.37"></line><line class="link fake transparent" x1="314.58" y1="252.60" x2="223.38" y2="222.28"></line><line class="link fake transparent" x1="307.19" y1="265.48" x2="268.96" y2="236.37"></line><line class="link fake transparent" x1="307.19" y1="265.48" x2="231.42" y2="206.27"></line><line class="link fake transparent" x1="296.38" y1="275.55" x2="268.96" y2="236.37"></line><line class="link fake transparent" x1="296.38" y1="275.55" x2="242.15" y2="195.97"></line><line class="link fake transparent" x1="283.24" y1="282.42" x2="268.96" y2="236.37"></line><line class="link fake transparent" x1="283.24" y1="282.42" x2="256.37" y2="190.22"></line><line class="link fake transparent" x1="268.56" y1="284.61" x2="268.96" y2="236.37"></line><line class="link fake transparent" x1="268.56" y1="284.61" x2="271.19" y2="188.53"></line><line class="link fake transparent" x1="253.95" y1="282.13" x2="268.96" y2="236.37"></line><line class="link fake transparent" x1="253.95" y1="282.13" x2="285.89" y2="191.43"></line><line class="link fake transparent" x1="240.74" y1="275.36" x2="268.96" y2="236.37"></line><line class="link fake transparent" x1="240.74" y1="275.36" x2="298.87" y2="198.76"></line><line class="link fake transparent" x1="230.22" y1="264.86" x2="268.96" y2="236.37"></line><line class="link fake transparent" x1="230.22" y1="264.86" x2="308.97" y2="209.72"></line><line class="link fake transparent" x1="223.38" y1="251.62" x2="268.96" y2="236.37"></line><line class="link fake transparent" x1="223.38" y1="251.62" x2="315.23" y2="223.24"></line><line class="link fake transparent" x1="16.66" y1="22.54" x2="7.92" y2="10.14"></line><line class="link fake transparent" x1="16.66" y1="22.54" x2="-0.64" y2="-2.25"></line><line class="link fake transparent" x1="1.26" y1="23.65" x2="7.92" y2="10.14"></line><line class="link fake transparent" x1="1.26" y1="23.65" x2="14.24" y2="-3.55"></line><line class="link fake transparent" x1="-7.14" y1="11.24" x2="7.92" y2="10.14"></line><line class="link fake transparent" x1="-7.14" y1="11.24" x2="22.96" y2="9.07"></line><line class="link fake transparent" x1="-0.64" y1="-2.25" x2="7.92" y2="10.14"></line><line class="link fake transparent" x1="-0.64" y1="-2.25" x2="16.66" y2="22.54"></line><line class="link fake transparent" x1="14.24" y1="-3.55" x2="7.92" y2="10.14"></line><line class="link fake transparent" x1="14.24" y1="-3.55" x2="1.26" y2="23.65"></line><line class="link fake transparent" x1="22.96" y1="9.07" x2="7.92" y2="10.14"></line><line class="link fake transparent" x1="22.96" y1="9.07" x2="-7.14" y2="11.24"></line><line class="link fake transparent" x1="44.15" y1="39.43" x2="44.04" y2="26.35"></line><line class="link fake transparent" x1="44.15" y1="39.43" x2="36.91" y2="15.33"></line><line class="link fake transparent" x1="31.26" y1="29.11" x2="44.04" y2="26.35"></line><line class="link fake transparent" x1="31.26" y1="29.11" x2="52.31" y2="15.93"></line><line class="link fake transparent" x1="36.91" y1="15.33" x2="44.04" y2="26.35"></line><line class="link fake transparent" x1="36.91" y1="15.33" x2="56.30" y2="30.87"></line><line class="link fake transparent" x1="52.31" y1="15.93" x2="44.04" y2="26.35"></line><line class="link fake transparent" x1="52.31" y1="15.93" x2="44.15" y2="39.43"></line><line class="link fake transparent" x1="56.30" y1="30.87" x2="44.04" y2="26.35"></line><line class="link fake transparent" x1="56.30" y1="30.87" x2="31.26" y2="29.11"></line><line class="link fake transparent" x1="174.44" y1="148.94" x2="170.11" y2="131.77"></line><line class="link fake transparent" x1="174.44" y1="148.94" x2="159.24" y2="117.79"></line><line class="link fake transparent" x1="159.18" y1="145.24" x2="170.11" y2="131.77"></line><line class="link fake transparent" x1="159.18" y1="145.24" x2="174.36" y2="114.61"></line><line class="link fake transparent" x1="152.38" y1="131.00" x2="170.11" y2="131.77"></line><line class="link fake transparent" x1="152.38" y1="131.00" x2="186.02" y2="124.09"></line><line class="link fake transparent" x1="159.24" y1="117.79" x2="170.11" y2="131.77"></line><line class="link fake transparent" x1="159.24" y1="117.79" x2="185.98" y2="139.55"></line><line class="link fake transparent" x1="174.36" y1="114.61" x2="170.11" y2="131.77"></line><line class="link fake transparent" x1="174.36" y1="114.61" x2="174.44" y2="148.94"></line><line class="link fake transparent" x1="186.02" y1="124.09" x2="170.11" y2="131.77"></line><line class="link fake transparent" x1="186.02" y1="124.09" x2="159.18" y2="145.24"></line><line class="link fake transparent" x1="185.98" y1="139.55" x2="170.11" y2="131.77"></line><line class="link fake transparent" x1="185.98" y1="139.55" x2="152.38" y2="131.00"></line><line class="link fake transparent" x1="124.12" y1="113.60" x2="117.30" y2="99.96"></line><line class="link fake transparent" x1="124.12" y1="113.60" x2="110.82" y2="86.33"></line><line class="link fake transparent" x1="108.63" y1="112.20" x2="117.30" y2="99.96"></line><line class="link fake transparent" x1="108.63" y1="112.20" x2="125.95" y2="87.56"></line><line class="link fake transparent" x1="102.16" y1="98.23" x2="117.30" y2="99.96"></line><line class="link fake transparent" x1="102.16" y1="98.23" x2="132.40" y2="101.47"></line><line class="link fake transparent" x1="110.82" y1="86.33" x2="117.30" y2="99.96"></line><line class="link fake transparent" x1="110.82" y1="86.33" x2="124.12" y2="113.60"></line><line class="link fake transparent" x1="125.95" y1="87.56" x2="117.30" y2="99.96"></line><line class="link fake transparent" x1="125.95" y1="87.56" x2="108.63" y2="112.20"></line><line class="link fake transparent" x1="132.40" y1="101.47" x2="117.30" y2="99.96"></line><line class="link fake transparent" x1="132.40" y1="101.47" x2="102.16" y2="98.23"></line></g><g><g class="noselect gnode" struct_name="m" transform="translate(231.42,206.27)" r="6.5"><circle class="node" r="6" node_type="nucleotide" style="fill: lightgreen;"></circle><text text-anchor="middle" font-size="8" font-weight="bold" y="2.5" class="node-label">G</text></g><g class="noselect gnode" struct_name="m" transform="translate(220.39,195.20)" r="6.5"><circle class="node" r="6" node_type="nucleotide" style="fill: lightgreen;"></circle><text text-anchor="middle" font-size="8" font-weight="bold" y="2.5" class="node-label">U</text></g><g class="noselect gnode" struct_name="m" transform="translate(208.71,184.22)" r="6.5"><circle class="node" r="6" node_type="nucleotide" style="fill: lightgreen;"></circle><text text-anchor="middle" font-size="8" font-weight="bold" y="2.5" class="node-label">C</text></g><g class="noselect gnode" struct_name="m" transform="translate(196.99,172.96)" r="6.5"><circle class="node" r="6" node_type="nucleotide" style="fill: lightgreen;"></circle><text text-anchor="middle" font-size="8" font-weight="bold" y="2.5" class="node-label">U</text></g><g class="noselect gnode" struct_name="m" transform="translate(185.52,161.21)" r="6.5"><circle class="node" r="6" node_type="nucleotide" style="fill: lightgreen;"></circle><text text-anchor="middle" font-size="8" font-weight="bold" y="2.5" class="node-label">G</text></g><g class="noselect gnode" struct_name="m" transform="translate(174.44,148.94)" r="6.5"><circle class="node" r="6" node_type="nucleotide" style="fill: lightgreen;"></circle><text text-anchor="middle" font-size="8" font-weight="bold" y="2.5" class="node-label">G</text></g><g class="noselect gnode" struct_name="m" transform="translate(159.18,145.24)" r="6.5"><circle class="node" r="6" node_type="nucleotide" style="fill: rgb(219, 219, 141);"></circle><text text-anchor="middle" font-size="8" font-weight="bold" y="2.5" class="node-label">A</text></g><g class="noselect gnode" struct_name="m" transform="translate(152.38,131.00)" r="6.5"><circle class="node" r="6" node_type="nucleotide" style="fill: lightgreen;"></circle><text text-anchor="middle" font-size="8" font-weight="bold" y="2.5" class="node-label">U</text></g><g class="noselect gnode" struct_name="m" transform="translate(138.08,122.48)" r="6.5"><circle class="node" r="6" node_type="nucleotide" style="fill: lightgreen;"></circle><text text-anchor="middle" font-size="8" font-weight="bold" y="2.5" class="node-label">G</text></g><g class="noselect gnode" struct_name="m" transform="translate(124.12,113.60)" r="6.5"><circle class="node" r="6" node_type="nucleotide" style="fill: lightgreen;"></circle><text text-anchor="middle" font-size="8" font-weight="bold" y="2.5" class="node-label">U</text></g><g class="noselect gnode" struct_name="m" transform="translate(108.63,112.20)" r="6.5"><circle class="node" r="6" node_type="nucleotide" style="fill: rgb(219, 219, 141);"></circle><text text-anchor="middle" font-size="8" font-weight="bold" y="2.5" class="node-label">A</text></g><g class="noselect gnode" struct_name="m" transform="translate(102.16,98.23)" r="6.5"><circle class="node" r="6" node_type="nucleotide" style="fill: lightgreen;"></circle><text text-anchor="middle" font-size="8" font-weight="bold" y="2.5" class="node-label">C</text></g><g class="noselect gnode" struct_name="m" transform="translate(89.15,87.95)" r="6.5"><circle class="node" r="6" node_type="nucleotide" style="fill: lightgreen;"></circle><text text-anchor="middle" font-size="8" font-weight="bold" y="2.5" class="node-label">G</text></g><g class="noselect gnode" struct_name="m" transform="translate(76.81,76.87)" r="6.5"><circle class="node" r="6" node_type="nucleotide" style="fill: lightgreen;"></circle><text text-anchor="middle" font-size="8" font-weight="bold" y="2.5" class="node-label">C</text></g><g class="noselect gnode" struct_name="m" transform="translate(65.24,64.96)" r="6.5"><circle class="node" r="6" node_type="nucleotide" style="fill: lightgreen;"></circle><text text-anchor="middle" font-size="8" font-weight="bold" y="2.5" class="node-label">U</text></g><g class="noselect gnode" struct_name="m" transform="translate(54.34,52.41)" r="6.5"><circle class="node" r="6" node_type="nucleotide" style="fill: lightgreen;"></circle><text text-anchor="middle" font-size="8" font-weight="bold" y="2.5" class="node-label">G</text></g><g class="noselect gnode" struct_name="m" transform="translate(44.15,39.43)" r="6.5"><circle class="node" r="6" node_type="nucleotide" style="fill: lightgreen;"></circle><text text-anchor="middle" font-size="8" font-weight="bold" y="2.5" class="node-label">G</text></g><g class="noselect gnode" struct_name="m" transform="translate(31.26,29.11)" r="6.5"><circle class="node" r="6" node_type="nucleotide" style="fill: lightgreen;"></circle><text text-anchor="middle" font-size="8" font-weight="bold" y="2.5" class="node-label">G</text></g><g class="noselect gnode" struct_name="m" transform="translate(16.66,22.54)" r="6.5"><circle class="node" r="6" node_type="nucleotide" style="fill: lightgreen;"></circle><text text-anchor="middle" font-size="8" font-weight="bold" y="2.5" class="node-label">C</text></g><g class="noselect gnode" struct_name="m" transform="translate(1.26,23.65)" r="6.5"><circle class="node" r="6" node_type="nucleotide" style="fill: lightblue;"></circle><text text-anchor="middle" font-size="8" font-weight="bold" y="2.5" class="node-label">A</text></g><g class="noselect gnode" struct_name="m" transform="translate(-7.14,11.24)" r="6.5"><circle class="node" r="6" node_type="nucleotide" style="fill: lightblue;"></circle><text text-anchor="middle" font-size="8" font-weight="bold" y="2.5" class="node-label">A</text></g><g class="noselect gnode" struct_name="m" transform="translate(-0.64,-2.25)" r="6.5"><circle class="node" r="6" node_type="nucleotide" style="fill: lightblue;"></circle><text text-anchor="middle" font-size="8" font-weight="bold" y="2.5" class="node-label">C</text></g><g class="noselect gnode" struct_name="m" transform="translate(14.24,-3.55)" r="6.5"><circle class="node" r="6" node_type="nucleotide" style="fill: lightblue;"></circle><text text-anchor="middle" font-size="8" font-weight="bold" y="2.5" class="node-label">A</text></g><g class="noselect gnode" struct_name="m" transform="translate(22.96,9.07)" r="6.5"><circle class="node" r="6" node_type="nucleotide" style="fill: lightgreen;"></circle><text text-anchor="middle" font-size="8" font-weight="bold" y="2.5" class="node-label">G</text></g><g class="noselect gnode" struct_name="m" transform="translate(36.91,15.33)" r="6.5"><circle class="node" r="6" node_type="nucleotide" style="fill: lightgreen;"></circle><text text-anchor="middle" font-size="8" font-weight="bold" y="2.5" class="node-label">C</text></g><g class="noselect gnode" struct_name="m" transform="translate(52.31,15.93)" r="6.5"><circle class="node" r="6" node_type="nucleotide" style="fill: rgb(219, 219, 141);"></circle><text text-anchor="middle" font-size="8" font-weight="bold" y="2.5" class="node-label">U</text></g><g class="noselect gnode" struct_name="m" transform="translate(56.30,30.87)" r="6.5"><circle class="node" r="6" node_type="nucleotide" style="fill: lightgreen;"></circle><text text-anchor="middle" font-size="8" font-weight="bold" y="2.5" class="node-label">C</text></g><g class="noselect gnode" struct_name="m" transform="translate(65.56,43.24)" r="6.5"><circle class="node" r="6" node_type="nucleotide" style="fill: lightgreen;"></circle><text text-anchor="middle" font-size="8" font-weight="bold" y="2.5" class="node-label">C</text></g><g class="noselect gnode" struct_name="m" transform="translate(75.89,55.14)" r="6.5"><circle class="node" r="6" node_type="nucleotide" style="fill: lightgreen;"></circle><text text-anchor="middle" font-size="8" font-weight="bold" y="2.5" class="node-label">A</text></g><g class="noselect gnode" struct_name="m" transform="translate(86.90,66.38)" r="6.5"><circle class="node" r="6" node_type="nucleotide" style="fill: lightgreen;"></circle><text text-anchor="middle" font-size="8" font-weight="bold" y="2.5" class="node-label">G</text></g><g class="noselect gnode" struct_name="m" transform="translate(98.48,76.83)" r="6.5"><circle class="node" r="6" node_type="nucleotide" style="fill: lightgreen;"></circle><text text-anchor="middle" font-size="8" font-weight="bold" y="2.5" class="node-label">U</text></g><g class="noselect gnode" struct_name="m" transform="translate(110.82,86.33)" r="6.5"><circle class="node" r="6" node_type="nucleotide" style="fill: lightgreen;"></circle><text text-anchor="middle" font-size="8" font-weight="bold" y="2.5" class="node-label">G</text></g><g class="noselect gnode" struct_name="m" transform="translate(125.95,87.56)" r="6.5"><circle class="node" r="6" node_type="nucleotide" style="fill: rgb(219, 219, 141);"></circle><text text-anchor="middle" font-size="8" font-weight="bold" y="2.5" class="node-label">G</text></g><g class="noselect gnode" struct_name="m" transform="translate(132.40,101.47)" r="6.5"><circle class="node" r="6" node_type="nucleotide" style="fill: lightgreen;"></circle><text text-anchor="middle" font-size="8" font-weight="bold" y="2.5" class="node-label">A</text></g><g class="noselect gnode" struct_name="m" transform="translate(145.61,110.23)" r="6.5"><circle class="node" r="6" node_type="nucleotide" style="fill: lightgreen;"></circle><text text-anchor="middle" font-size="8" font-weight="bold" y="2.5" class="node-label">C</text></g><g class="noselect gnode" struct_name="m" transform="translate(159.24,117.79)" r="6.5"><circle class="node" r="6" node_type="nucleotide" style="fill: lightgreen;"></circle><text text-anchor="middle" font-size="8" font-weight="bold" y="2.5" class="node-label">A</text></g><g class="noselect gnode" struct_name="m" transform="translate(174.36,114.61)" r="6.5"><circle class="node" r="6" node_type="nucleotide" style="fill: rgb(219, 219, 141);"></circle><text text-anchor="middle" font-size="8" font-weight="bold" y="2.5" class="node-label">A</text></g><g class="noselect gnode" struct_name="m" transform="translate(186.02,124.09)" r="6.5"><circle class="node" r="6" node_type="nucleotide" style="fill: rgb(219, 219, 141);"></circle><text text-anchor="middle" font-size="8" font-weight="bold" y="2.5" class="node-label">A</text></g><g class="noselect gnode" struct_name="m" transform="translate(185.98,139.55)" r="6.5"><circle class="node" r="6" node_type="nucleotide" style="fill: lightgreen;"></circle><text text-anchor="middle" font-size="8" font-weight="bold" y="2.5" class="node-label">C</text></g><g class="noselect gnode" struct_name="m" transform="translate(196.14,151.32)" r="6.5"><circle class="node" r="6" node_type="nucleotide" style="fill: lightgreen;"></circle><text text-anchor="middle" font-size="8" font-weight="bold" y="2.5" class="node-label">C</text></g><g class="noselect gnode" struct_name="m" transform="translate(207.21,162.63)" r="6.5"><circle class="node" r="6" node_type="nucleotide" style="fill: lightgreen;"></circle><text text-anchor="middle" font-size="8" font-weight="bold" y="2.5" class="node-label">A</text></g><g class="noselect gnode" struct_name="m" transform="translate(218.72,173.65)" r="6.5"><circle class="node" r="6" node_type="nucleotide" style="fill: lightgreen;"></circle><text text-anchor="middle" font-size="8" font-weight="bold" y="2.5" class="node-label">G</text></g><g class="noselect gnode" struct_name="m" transform="translate(230.46,184.70)" r="6.5"><circle class="node" r="6" node_type="nucleotide" style="fill: lightgreen;"></circle><text text-anchor="middle" font-size="8" font-weight="bold" y="2.5" class="node-label">A</text></g><g class="noselect gnode" struct_name="m" transform="translate(242.15,195.97)" r="6.5"><circle class="node" r="6" node_type="nucleotide" style="fill: lightgreen;"></circle><text text-anchor="middle" font-size="8" font-weight="bold" y="2.5" class="node-label">U</text></g><g class="noselect gnode" struct_name="m" transform="translate(256.37,190.22)" r="6.5"><circle class="node" r="6" node_type="nucleotide" style="fill: lightsalmon;"></circle><text text-anchor="middle" font-size="8" font-weight="bold" y="2.5" class="node-label">U</text></g><g class="noselect gnode" struct_name="m" transform="translate(271.19,188.53)" r="6.5"><circle class="node" r="6" node_type="nucleotide" style="fill: lightsalmon;"></circle><text text-anchor="middle" font-size="8" font-weight="bold" y="2.5" class="node-label">A</text></g><g class="noselect gnode" struct_name="m" transform="translate(285.89,191.43)" r="6.5"><circle class="node" r="6" node_type="nucleotide" style="fill: lightsalmon;"></circle><text text-anchor="middle" font-size="8" font-weight="bold" y="2.5" class="node-label">A</text></g><g class="noselect gnode" struct_name="m" transform="translate(298.87,198.76)" r="6.5"><circle class="node" r="6" node_type="nucleotide" style="fill: lightsalmon;"></circle><text text-anchor="middle" font-size="8" font-weight="bold" y="2.5" class="node-label">U</text></g><g class="noselect gnode" struct_name="m" transform="translate(308.97,209.72)" r="6.5"><circle class="node" r="6" node_type="nucleotide" style="fill: lightsalmon;"></circle><text text-anchor="middle" font-size="8" font-weight="bold" y="2.5" class="node-label">A</text></g><g class="noselect gnode" struct_name="m" transform="translate(315.23,223.24)" r="6.5"><circle class="node" r="6" node_type="nucleotide" style="fill: lightsalmon;"></circle><text text-anchor="middle" font-size="8" font-weight="bold" y="2.5" class="node-label">U</text></g><g class="noselect gnode" struct_name="m" transform="translate(317.25,237.96)" r="6.5"><circle class="node" r="6" node_type="nucleotide" style="fill: lightsalmon;"></circle><text text-anchor="middle" font-size="8" font-weight="bold" y="2.5" class="node-label">U</text></g><g class="noselect gnode" struct_name="m" transform="translate(314.58,252.60)" r="6.5"><circle class="node" r="6" node_type="nucleotide" style="fill: lightsalmon;"></circle><text text-anchor="middle" font-size="8" font-weight="bold" y="2.5" class="node-label">G</text></g><g class="noselect gnode" struct_name="m" transform="translate(307.19,265.48)" r="6.5"><circle class="node" r="6" node_type="nucleotide" style="fill: lightsalmon;"></circle><text text-anchor="middle" font-size="8" font-weight="bold" y="2.5" class="node-label">A</text></g><g class="noselect gnode" struct_name="m" transform="translate(296.38,275.55)" r="6.5"><circle class="node" r="6" node_type="nucleotide" style="fill: lightsalmon;"></circle><text text-anchor="middle" font-size="8" font-weight="bold" y="2.5" class="node-label">A</text></g><g class="noselect gnode" struct_name="m" transform="translate(283.24,282.42)" r="6.5"><circle class="node" r="6" node_type="nucleotide" style="fill: lightsalmon;"></circle><text text-anchor="middle" font-size="8" font-weight="bold" y="2.5" class="node-label">C</text></g><g class="noselect gnode" struct_name="m" transform="translate(268.56,284.61)" r="6.5"><circle class="node" r="6" node_type="nucleotide" style="fill: lightsalmon;"></circle><text text-anchor="middle" font-size="8" font-weight="bold" y="2.5" class="node-label">A</text></g><g class="noselect gnode" struct_name="m" transform="translate(253.95,282.13)" r="6.5"><circle class="node" r="6" node_type="nucleotide" style="fill: lightsalmon;"></circle><text text-anchor="middle" font-size="8" font-weight="bold" y="2.5" class="node-label">U</text></g><g class="noselect gnode" struct_name="m" transform="translate(240.74,275.36)" r="6.5"><circle class="node" r="6" node_type="nucleotide" style="fill: lightsalmon;"></circle><text text-anchor="middle" font-size="8" font-weight="bold" y="2.5" class="node-label">U</text></g><g class="noselect gnode" struct_name="m" transform="translate(230.22,264.86)" r="6.5"><circle class="node" r="6" node_type="nucleotide" style="fill: lightsalmon;"></circle><text text-anchor="middle" font-size="8" font-weight="bold" y="2.5" class="node-label">C</text></g><g class="noselect gnode" struct_name="m" transform="translate(223.38,251.62)" r="6.5"><circle class="node" r="6" node_type="nucleotide" style="fill: lightsalmon;"></circle><text text-anchor="middle" font-size="8" font-weight="bold" y="2.5" class="node-label">U</text></g><g class="noselect gnode" struct_name="m" transform="translate(115.28,126.44)" r="6.5"><circle class="node label" r="6" node_type="label"></circle><text text-anchor="middle" font-size="8" font-weight="bold" y="2.5" class="node-label">10</text></g><g class="noselect gnode" struct_name="m" transform="translate(-12.85,30.08)" r="6.5"><circle class="node label" r="6" node_type="label"></circle><text text-anchor="middle" font-size="8" font-weight="bold" y="2.5" class="node-label">20</text></g><g class="noselect gnode" struct_name="m" transform="translate(98.98,56.51)" r="6.5"><circle class="node label" r="6" node_type="label"></circle><text text-anchor="middle" font-size="8" font-weight="bold" y="2.5" class="node-label">30</text></g><g class="noselect gnode" struct_name="m" transform="translate(208.24,141.48)" r="6.5"><circle class="node label" r="6" node_type="label"></circle><text text-anchor="middle" font-size="8" font-weight="bold" y="2.5" class="node-label">40</text></g><g class="noselect gnode" struct_name="m" transform="translate(329.48,217.65)" r="6.5"><circle class="node label" r="6" node_type="label"></circle><text text-anchor="middle" font-size="8" font-weight="bold" y="2.5" class="node-label">50</text></g><g class="noselect gnode" struct_name="m" transform="translate(209.99,259.30)" r="6.5"><circle class="node label" r="6" node_type="label"></circle><text text-anchor="middle" font-size="8" font-weight="bold" y="2.5" class="node-label">60</text></g><g class="noselect gnode" transform="translate(99.97,87.58)" r="6.5"><circle class="node" r="0" node_type="middle"></circle><text text-anchor="middle" font-size="8" font-weight="bold" y="2.5" class="node-label"></text></g><g class="noselect gnode" transform="translate(87.66,77.25)" r="6.5"><circle class="node" r="0" node_type="middle"></circle><text text-anchor="middle" font-size="8" font-weight="bold" y="2.5" class="node-label"></text></g><g class="noselect gnode" transform="translate(76.03,66.03)" r="6.5"><circle class="node" r="0" node_type="middle"></circle><text text-anchor="middle" font-size="8" font-weight="bold" y="2.5" class="node-label"></text></g><g class="noselect gnode" transform="translate(65.08,54.09)" r="6.5"><circle class="node" r="0" node_type="middle"></circle><text text-anchor="middle" font-size="8" font-weight="bold" y="2.5" class="node-label"></text></g><g class="noselect gnode" transform="translate(54.84,41.58)" r="6.5"><circle class="node" r="0" node_type="middle"></circle><text text-anchor="middle" font-size="8" font-weight="bold" y="2.5" class="node-label"></text></g><g class="noselect gnode" transform="translate(26.91,19.15)" r="6.5"><circle class="node" r="0" node_type="middle"></circle><text text-anchor="middle" font-size="8" font-weight="bold" y="2.5" class="node-label"></text></g><g class="noselect gnode" transform="translate(231.30,195.55)" r="6.5"><circle class="node" r="0" node_type="middle"></circle><text text-anchor="middle" font-size="8" font-weight="bold" y="2.5" class="node-label"></text></g><g class="noselect gnode" transform="translate(219.61,184.46)" r="6.5"><circle class="node" r="0" node_type="middle"></circle><text text-anchor="middle" font-size="8" font-weight="bold" y="2.5" class="node-label"></text></g><g class="noselect gnode" transform="translate(207.88,173.47)" r="6.5"><circle class="node" r="0" node_type="middle"></circle><text text-anchor="middle" font-size="8" font-weight="bold" y="2.5" class="node-label"></text></g><g class="noselect gnode" transform="translate(196.36,162.16)" r="6.5"><circle class="node" r="0" node_type="middle"></circle><text text-anchor="middle" font-size="8" font-weight="bold" y="2.5" class="node-label"></text></g><g class="noselect gnode" transform="translate(185.30,150.37)" r="6.5"><circle class="node" r="0" node_type="middle"></circle><text text-anchor="middle" font-size="8" font-weight="bold" y="2.5" class="node-label"></text></g><g class="noselect gnode" transform="translate(148.80,120.63)" r="6.5"><circle class="node" r="0" node_type="middle"></circle><text text-anchor="middle" font-size="8" font-weight="bold" y="2.5" class="node-label"></text></g><g class="noselect gnode" transform="translate(134.96,112.09)" r="6.5"><circle class="node" r="0" node_type="middle"></circle><text text-anchor="middle" font-size="8" font-weight="bold" y="2.5" class="node-label"></text></g><g class="noselect gnode" transform="translate(221.01,236.96)" r="6.5"><circle class="node" r="0" node_type="middle"></circle><text text-anchor="middle" font-size="8" font-weight="bold" y="2.5" class="node-label"></text></g><g class="noselect gnode" transform="translate(223.38,222.28)" r="6.5"><circle class="node" r="0" node_type="middle"></circle><text text-anchor="middle" font-size="8" font-weight="bold" y="2.5" class="node-label"></text></g><g class="noselect gnode" transform="translate(268.96,236.37)" r="6.5"><circle class="node" r="0" node_type="middle"></circle><text text-anchor="middle" font-size="8" font-weight="bold" y="2.5" class="node-label"></text></g><g class="noselect gnode" transform="translate(7.92,10.14)" r="6.5"><circle class="node" r="0" node_type="middle"></circle><text text-anchor="middle" font-size="8" font-weight="bold" y="2.5" class="node-label"></text></g><g class="noselect gnode" transform="translate(44.04,26.35)" r="6.5"><circle class="node" r="0" node_type="middle"></circle><text text-anchor="middle" font-size="8" font-weight="bold" y="2.5" class="node-label"></text></g><g class="noselect gnode" transform="translate(170.11,131.77)" r="6.5"><circle class="node" r="0" node_type="middle"></circle><text text-anchor="middle" font-size="8" font-weight="bold" y="2.5" class="node-label"></text></g><g class="noselect gnode" transform="translate(117.30,99.96)" r="6.5"><circle class="node" r="0" node_type="middle"></circle><text text-anchor="middle" font-size="8" font-weight="bold" y="2.5" class="node-label"></text></g></g><line class="drag_line" x1="0" y1="0" x2="0" y2="0"></line></g></g></svg>