<svg xmlns="http://www.w3.org/2000/svg" viewBox="0 0 760 640" width="760" height="640"><style>svg {
  display: block;
  min-width: 100%;
  width: 100%;
  min-height: 100%;
}

circle.node {
  stroke: #ccc;
  stroke-width: 1px;
  opacity: 1;
  fill: white;
}

circle.node.label {
    stroke: transparent;
    stroke-width: 0;
    fill: white;
}

circle.outline_node {
    stroke-width: 1px;
    fill: red;
}

circle.protein {
    fill: gray;
    fill-opacity: 0.5;
    stroke-width: 4;
}

circle.hidden_outline {
    stroke-width: 0px;
}


line.link {
  stroke: #999;
  stroke-opacity: 0.8;
  stroke-width: 2;
}

line.basepair {
  stroke: red;
}

line.intermolecule {
  stroke: blue;
}

line.chain_chain {
  stroke-dasharray: 3,3;
}

line.fake {
  stroke: green;
}

.transparent {
    fill: transparent;
    stroke-width: 0;
    stroke-opacity: 0;
    opacity: 0;
    visibility: hidden;
}

.drag_line {
  stroke: #999;
  stroke-width: 2;
  pointer-events: none;
}

.drag_line_hidden {
  stroke: #999;
  stroke-width: 0;
  pointer-events: none;
}

.d3-tip {
    line-height: 1;
    font-weight: bold;
    padding: 6px;
    background: rgba(0, 0, 0, 0.6);
    color: #fff;
    border-radius: 4px;
    pointer-events: none;
          }

text.node-label {
    font-weight: bold;
    font-family: Tahoma, Geneva, sans-serif;
    color: rgb(100,100,100);
    pointer-events: none;
}

text {
    pointer-events: none;
}

g.gnode {

}

circle.outline_node.selected {
    visibility: visible;
}

circle.outline_node {
    visibility: hidden;
}

.brush .extent {
  fill-opacity: .1;
  stroke: #fff;
  shape-rendering: crispEdges;
}

.noselect {
    -webkit-touch-callout: none;
    -webkit-user-select: none;
    -khtml-user-select: none;
    -moz-user-select: none;
    -ms-user-select: none;
    user-select: none;
}

svg {
  display: block;
  min-width: 100%;
  width: 100%;
  min-height: 100%;
}

circle.node {
  stroke: #ccc;
  stroke-width: 1px;
  opacity: 1;
  fill: white;
}

circle.node.label {
    stroke: transparent;
    stroke-width: 0;
    fill: white;
}

circle.outline_node {
    stroke-width: 1px;
    fill: red;
}

circle.protein {
    fill: gray;
    fill-opacity: 0.5;
    stroke-width: 4;
}

circle.hidden_outline {
    stroke-width: 0px;
}


line.link {
  stroke: #999;
  stroke-opacity: 0.8;
  stroke-width: 2;
}

line.basepair {
  stroke: red;
}

line.intermolecule {
  stroke: blue;
}

line.chain_chain {
  stroke-dasharray: 3,3;
}

line.fake {
  stroke: green;
}

.transparent {
    fill: transparent;
    stroke-width: 0;
    stroke-opacity: 0;
    opacity: 0;
    visibility: hidden;
}

.drag_line {
  stroke: #999;
  stroke-width: 2;
  pointer-events: none;
}

.drag_line_hidden {
  stroke: #999;
  stroke-width: 0;
  pointer-events: none;
}

.d3-tip {
    line-height: 1;
    font-weight: bold;
    padding: 6px;
    background: rgba(0, 0, 0, 0.6);
    color: #fff;
    border-radius: 4px;
    pointer-events: none;
          }

text.node-label {
    font-weight: bold;
    font-family: Tahoma, Geneva, sans-serif;
    color: rgb(100,100,100);
    pointer-events: none;
}

text {
    pointer-events: none;
}

g.gnode {

}

circle.outline_node.selected {
    visibility: visible;
}

circle.outline_node {
    visibility: hidden;
}

.brush .extent {
  fill-opacity: .1;
  stroke: #fff;
  shape-rendering: crispEdges;
}

.noselect {
    -webkit-touch-callout: none;
    -webkit-user-select: none;
    -khtml-user-select: none;
    -moz-user-select: none;
    -ms-user-select: none;
    user-select: none;
}
/*# sourceURL=/Users/yumanakamura/ipy_sandbox/sandbox/claude_sandbox/mrna-transformer/scripts/eval/prerender/forna_vendor/fornac.css*/</style><style></style><g><g class="brush" style="pointer-events: all; -webkit-tap-highlight-color: rgba(0, 0, 0, 0);"><rect class="background" x="0" width="760" y="0" height="640" style="visibility: hidden; cursor: auto;"></rect><rect class="extent" x="0" width="0" y="0" height="0" style="cursor: move;"></rect><g class="resize n" transform="translate(0,0)" style="cursor: ns-resize; display: none;"><rect y="-3" width="0" height="6" style="visibility: hidden;"></rect></g><g class="resize e" transform="translate(0,0)" style="cursor: ew-resize; display: none;"><rect x="-3" width="6" height="0" style="visibility: hidden;"></rect></g><g class="resize s" transform="translate(0,0)" style="cursor: ns-resize; display: none;"><rect y="-3" width="0" height="6" style="visibility: hidden;"></rect></g><g class="resize w" transform="translate(0,0)" style="cursor: ew-resize; display: none;"><rect x="-3" width="6" height="0" style="visibility: hidden;"></rect></g><g class="resize nw" transform="translate(0,0)" style="cursor: nwse-resize; display: none;"><rect x="-3" y="-3" width="6" height="6" style="visibility: hidden;"></rect></g><g class="resize ne" transform="translate(0,0)" style="cursor: nesw-resize; display: none;"><rect x="-3" y="-3" width="6" height="6" style="visibility: hidden;"></rect></g><g class="resize se" transform="translate(0,0)" style="cursor: nwse-resize; display: none;"><rect x="-3" y="-3" width="6" height="6" style="visibility: hidden;"></rect></g><g class="resize sw" transform="translate(0,0)" style="cursor: nesw-resize; display: none;"><rect x="-3" y="-3" width="6" height="6" style="visibility: hidden;"></rect></g></g><g transform="translate(76.87,252.36) scale(1.74)"><g><line class="link basepair" x1="238.78" y1="101.11" x2="252.08" y2="94.13"></line><line class="link basepair" x1="230.76" y1="88.95" x2="242.14" y2="79.96"></line><line class="link backbone" x1="238.78" y1="101.11" x2="230.76" y2="88.95"></line><line class="link basepair" x1="220.45" y1="77.48" x2="230.95" y2="67.41"></line><line class="link backbone" x1="230.76" y1="88.95" x2="220.45" y2="77.48"></line><line class="link basepair" x1="209.19" y1="66.39" x2="219.34" y2="55.92"></line><line class="link backbone" x1="220.45" y1="77.48" x2="209.19" y2="66.39"></line><line class="link basepair" x1="197.59" y1="55.19" x2="207.80" y2="44.81"></line><line class="link backbone" x1="209.19" y1="66.39" x2="197.59" y2="55.19"></line><line class="link basepair" x1="186.10" y1="43.55" x2="196.69" y2="33.57"></line><line class="link backbone" x1="197.59" y1="55.19" x2="186.10" y2="43.55"></line><line class="link basepair" x1="175.06" y1="31.06" x2="186.32" y2="21.93"></line><line class="link backbone" x1="186.10" y1="43.55" x2="175.06" y2="31.06"></line><line class="link basepair" x1="164.92" y1="17.33" x2="177.52" y2="9.69"></line><line class="link backbone" x1="175.06" y1="31.06" x2="164.92" y2="17.33"></line><line class="link basepair" x1="150.73" y1="8.52" x2="152.06" y2="-6.16"></line><line class="link backbone" x1="164.92" y1="17.33" x2="150.73" y2="8.52"></line><line class="link basepair" x1="133.89" y1="5.34" x2="137.46" y2="-8.77"></line><line class="link backbone" x1="150.73" y1="8.52" x2="133.89" y2="5.34"></line><line class="link basepair" x1="117.71" y1="0.08" x2="123.01" y2="-13.42"></line><line class="link backbone" x1="133.89" y1="5.34" x2="117.71" y2="0.08"></line><line class="link basepair" x1="102.32" y1="-6.91" x2="109.02" y2="-19.79"></line><line class="link backbone" x1="117.71" y1="0.08" x2="102.32" y2="-6.91"></line><line class="link basepair" x1="87.81" y1="-15.34" x2="95.56" y2="-27.58"></line><line class="link backbone" x1="102.32" y1="-6.91" x2="87.81" y2="-15.34"></line><line class="link basepair" x1="74.09" y1="-24.72" x2="82.63" y2="-36.48"></line><line class="link backbone" x1="87.81" y1="-15.34" x2="74.09" y2="-24.72"></line><line class="link basepair" x1="61.10" y1="-34.63" x2="70.10" y2="-46.08"></line><line class="link backbone" x1="74.09" y1="-24.72" x2="61.10" y2="-34.63"></line><line class="link basepair" x1="48.58" y1="-44.39" x2="57.93" y2="-56.10"></line><line class="link backbone" x1="61.10" y1="-34.63" x2="48.58" y2="-44.39"></line><line class="link backbone" x1="48.58" y1="-44.39" x2="33.92" y2="-39.74"></line><line class="link backbone" x1="33.92" y1="-39.74" x2="19.31" y2="-43.42"></line><line class="link backbone" x1="19.31" y1="-43.42" x2="8.94" y2="-54.40"></line><line class="link backbone" x1="8.94" y1="-54.40" x2="6.27" y2="-69.28"></line><line class="link backbone" x1="6.27" y1="-69.28" x2="12.09" y2="-83.20"></line><line class="link backbone" x1="12.09" y1="-83.20" x2="24.36" y2="-91.94"></line><line class="link backbone" x1="24.36" y1="-91.94" x2="39.39" y2="-92.72"></line><line class="link backbone" x1="39.39" y1="-92.72" x2="52.46" y2="-84.97"></line><line class="link backbone" x1="52.46" y1="-84.97" x2="59.28" y2="-71.51"></line><line class="link basepair" x1="57.93" y1="-56.10" x2="48.58" y2="-44.39"></line><line class="link backbone" x1="59.28" y1="-71.51" x2="57.93" y2="-56.10"></line><line class="link basepair" x1="70.10" y1="-46.08" x2="61.10" y2="-34.63"></line><line class="link backbone" x1="57.93" y1="-56.10" x2="70.10" y2="-46.08"></line><line class="link basepair" x1="82.63" y1="-36.48" x2="74.09" y2="-24.72"></line><line class="link backbone" x1="70.10" y1="-46.08" x2="82.63" y2="-36.48"></line><line class="link basepair" x1="95.56" y1="-27.58" x2="87.81" y2="-15.34"></line><line class="link backbone" x1="82.63" y1="-36.48" x2="95.56" y2="-27.58"></line><line class="link basepair" x1="109.02" y1="-19.79" x2="102.32" y2="-6.91"></line><line class="link backbone" x1="95.56" y1="-27.58" x2="109.02" y2="-19.79"></line><line class="link basepair" x1="123.01" y1="-13.42" x2="117.71" y2="0.08"></line><line class="link backbone" x1="109.02" y1="-19.79" x2="123.01" y2="-13.42"></line><line class="link basepair" x1="137.46" y1="-8.77" x2="133.89" y2="5.34"></line><line class="link backbone" x1="123.01" y1="-13.42" x2="137.46" y2="-8.77"></line><line class="link basepair" x1="152.06" y1="-6.16" x2="150.73" y2="8.52"></line><line class="link backbone" x1="137.46" y1="-8.77" x2="152.06" y2="-6.16"></line><line class="link backbone" x1="152.06" y1="-6.16" x2="165.33" y2="-13.05"></line><line class="link backbone" x1="165.33" y1="-13.05" x2="177.80" y2="-5.31"></line><line class="link basepair" x1="177.52" y1="9.69" x2="164.92" y2="17.33"></line><line class="link backbone" x1="177.80" y1="-5.31" x2="177.52" y2="9.69"></line><line class="link basepair" x1="186.32" y1="21.93" x2="175.06" y2="31.06"></line><line class="link backbone" x1="177.52" y1="9.69" x2="186.32" y2="21.93"></line><line class="link basepair" x1="196.69" y1="33.57" x2="186.10" y2="43.55"></line><line class="link backbone" x1="186.32" y1="21.93" x2="196.69" y2="33.57"></line><line class="link basepair" x1="207.80" y1="44.81" x2="197.59" y2="55.19"></line><line class="link backbone" x1="196.69" y1="33.57" x2="207.80" y2="44.81"></line><line class="link basepair" x1="219.34" y1="55.92" x2="209.19" y2="66.39"></line><line class="link backbone" x1="207.80" y1="44.81" x2="219.34" y2="55.92"></line><line class="link basepair" x1="230.95" y1="67.41" x2="220.45" y2="77.48"></line><line class="link backbone" x1="219.34" y1="55.92" x2="230.95" y2="67.41"></line><line class="link basepair" x1="242.14" y1="79.96" x2="230.76" y2="88.95"></line><line class="link backbone" x1="230.95" y1="67.41" x2="242.14" y2="79.96"></line><line class="link basepair" x1="252.08" y1="94.13" x2="238.78" y2="101.11"></line><line class="link backbone" x1="242.14" y1="79.96" x2="252.08" y2="94.13"></line><line class="link backbone" x1="252.08" y1="94.13" x2="267.27" y2="98.67"></line><line class="link basepair" x1="276.83" y1="111.48" x2="274.37" y2="126.26"></line><line class="link backbone" x1="267.27" y1="98.67" x2="276.83" y2="111.48"></line><line class="link basepair" x1="293.44" y1="116.27" x2="288.63" y2="129.94"></line><line class="link backbone" x1="276.83" y1="111.48" x2="293.44" y2="116.27"></line><line class="link basepair" x1="309.02" y1="122.91" x2="302.55" y2="136.00"></line><line class="link backbone" x1="293.44" y1="116.27" x2="309.02" y2="122.91"></line><line class="link basepair" x1="323.52" y1="130.97" x2="315.94" y2="143.48"></line><line class="link backbone" x1="309.02" y1="122.91" x2="323.52" y2="130.97"></line><line class="link basepair" x1="337.13" y1="139.64" x2="328.78" y2="151.96"></line><line class="link backbone" x1="323.52" y1="130.97" x2="337.13" y2="139.64"></line><line class="link backbone" x1="337.13" y1="139.64" x2="352.49" y2="141.02"></line><line class="link backbone" x1="352.49" y1="141.02" x2="358.79" y2="154.61"></line><line class="link backbone" x1="358.79" y1="154.61" x2="350.23" y2="166.91"></line><line class="link backbone" x1="350.23" y1="166.91" x2="335.36" y2="165.80"></line><line class="link basepair" x1="328.78" y1="151.96" x2="337.13" y2="139.64"></line><line class="link backbone" x1="335.36" y1="165.80" x2="328.78" y2="151.96"></line><line class="link basepair" x1="315.94" y1="143.48" x2="323.52" y2="130.97"></line><line class="link backbone" x1="328.78" y1="151.96" x2="315.94" y2="143.48"></line><line class="link basepair" x1="302.55" y1="136.00" x2="309.02" y2="122.91"></line><line class="link backbone" x1="315.94" y1="143.48" x2="302.55" y2="136.00"></line><line class="link basepair" x1="288.63" y1="129.94" x2="293.44" y2="116.27"></line><line class="link backbone" x1="302.55" y1="136.00" x2="288.63" y2="129.94"></line><line class="link basepair" x1="274.37" y1="126.26" x2="276.83" y2="111.48"></line><line class="link backbone" x1="288.63" y1="129.94" x2="274.37" y2="126.26"></line><line class="link backbone" x1="274.37" y1="126.26" x2="263.66" y2="136.79"></line><line class="link backbone" x1="263.66" y1="136.79" x2="248.68" y2="138.14"></line><line class="link label_link" x1="133.89" y1="5.34" x2="126.28" y2="18.96"></line><line class="link label_link" x1="6.27" y1="-69.28" x2="-9.12" y2="-69.32"></line><line class="link label_link" x1="109.02" y1="-19.79" x2="116.66" y2="-33.33"></line><line class="link label_link" x1="219.34" y1="55.92" x2="230.14" y2="44.67"></line><line class="link label_link" x1="352.49" y1="141.02" x2="366.33" y2="134.21"></line><line class="link label_link" x1="248.68" y1="138.14" x2="239.37" y2="150.69"></line><line class="link fake transparent" x1="150.73" y1="8.52" x2="143.42" y2="0.26"></line><line class="link fake transparent" x1="150.73" y1="8.52" x2="137.46" y2="-8.77"></line><line class="link fake transparent" x1="133.89" y1="5.34" x2="143.42" y2="0.26"></line><line class="link fake transparent" x1="137.46" y1="-8.77" x2="143.42" y2="0.26"></line><line class="link fake transparent" x1="152.06" y1="-6.16" x2="143.42" y2="0.26"></line><line class="link fake transparent" x1="133.89" y1="5.34" x2="127.85" y2="-3.73"></line><line class="link fake transparent" x1="117.71" y1="0.08" x2="127.85" y2="-3.73"></line><line class="link fake transparent" x1="123.01" y1="-13.42" x2="127.85" y2="-3.73"></line><line class="link fake transparent" x1="137.46" y1="-8.77" x2="127.85" y2="-3.73"></line><line class="link fake transparent" x1="117.71" y1="0.08" x2="112.83" y2="-9.59"></line><line class="link fake transparent" x1="102.32" y1="-6.91" x2="112.83" y2="-9.59"></line><line class="link fake transparent" x1="109.02" y1="-19.79" x2="112.83" y2="-9.59"></line><line class="link fake transparent" x1="123.01" y1="-13.42" x2="112.83" y2="-9.59"></line><line class="link fake transparent" x1="102.32" y1="-6.91" x2="98.49" y2="-17.07"></line><line class="link fake transparent" x1="87.81" y1="-15.34" x2="98.49" y2="-17.07"></line><line class="link fake transparent" x1="95.56" y1="-27.58" x2="98.49" y2="-17.07"></line><line class="link fake transparent" x1="109.02" y1="-19.79" x2="98.49" y2="-17.07"></line><line class="link fake transparent" x1="87.81" y1="-15.34" x2="84.85" y2="-25.80"></line><line class="link fake transparent" x1="74.09" y1="-24.72" x2="84.85" y2="-25.80"></line><line class="link fake transparent" x1="82.63" y1="-36.48" x2="84.85" y2="-25.80"></line><line class="link fake transparent" x1="95.56" y1="-27.58" x2="84.85" y2="-25.80"></line><line class="link fake transparent" x1="74.09" y1="-24.72" x2="71.84" y2="-35.36"></line><line class="link fake transparent" x1="61.10" y1="-34.63" x2="71.84" y2="-35.36"></line><line class="link fake transparent" x1="70.10" y1="-46.08" x2="71.84" y2="-35.36"></line><line class="link fake transparent" x1="82.63" y1="-36.48" x2="71.84" y2="-35.36"></line><line class="link fake transparent" x1="61.10" y1="-34.63" x2="59.30" y2="-45.36"></line><line class="link fake transparent" x1="48.58" y1="-44.39" x2="59.30" y2="-45.36"></line><line class="link fake transparent" x1="57.93" y1="-56.10" x2="59.30" y2="-45.36"></line><line class="link fake transparent" x1="70.10" y1="-46.08" x2="59.30" y2="-45.36"></line><line class="link fake transparent" x1="276.83" y1="111.48" x2="283.45" y2="120.39"></line><line class="link fake transparent" x1="293.44" y1="116.27" x2="283.45" y2="120.39"></line><line class="link fake transparent" x1="288.63" y1="129.94" x2="283.45" y2="120.39"></line><line class="link fake transparent" x1="274.37" y1="126.26" x2="283.45" y2="120.39"></line><line class="link fake transparent" x1="293.44" y1="116.27" x2="298.64" y2="125.85"></line><line class="link fake transparent" x1="309.02" y1="122.91" x2="298.64" y2="125.85"></line><line class="link fake transparent" x1="302.55" y1="136.00" x2="298.64" y2="125.85"></line><line class="link fake transparent" x1="288.63" y1="129.94" x2="298.64" y2="125.85"></line><line class="link fake transparent" x1="309.02" y1="122.91" x2="312.93" y2="133.03"></line><line class="link fake transparent" x1="323.52" y1="130.97" x2="312.93" y2="133.03"></line><line class="link fake transparent" x1="315.94" y1="143.48" x2="312.93" y2="133.03"></line><line class="link fake transparent" x1="302.55" y1="136.00" x2="312.93" y2="133.03"></line><line class="link fake transparent" x1="323.52" y1="130.97" x2="326.49" y2="141.36"></line><line class="link fake transparent" x1="337.13" y1="139.64" x2="326.49" y2="141.36"></line><line class="link fake transparent" x1="328.78" y1="151.96" x2="326.49" y2="141.36"></line><line class="link fake transparent" x1="315.94" y1="143.48" x2="326.49" y2="141.36"></line><line class="link fake transparent" x1="238.78" y1="101.11" x2="241.51" y2="90.75"></line><line class="link fake transparent" x1="230.76" y1="88.95" x2="241.51" y2="90.75"></line><line class="link fake transparent" x1="242.14" y1="79.96" x2="241.51" y2="90.75"></line><line class="link fake transparent" x1="252.08" y1="94.13" x2="241.51" y2="90.75"></line><line class="link fake transparent" x1="230.76" y1="88.95" x2="231.35" y2="78.22"></line><line class="link fake transparent" x1="220.45" y1="77.48" x2="231.35" y2="78.22"></line><line class="link fake transparent" x1="230.95" y1="67.41" x2="231.35" y2="78.22"></line><line class="link fake transparent" x1="242.14" y1="79.96" x2="231.35" y2="78.22"></line><line class="link fake transparent" x1="220.45" y1="77.48" x2="220.10" y2="66.73"></line><line class="link fake transparent" x1="209.19" y1="66.39" x2="220.10" y2="66.73"></line><line class="link fake transparent" x1="219.34" y1="55.92" x2="220.10" y2="66.73"></line><line class="link fake transparent" x1="230.95" y1="67.41" x2="220.10" y2="66.73"></line><line class="link fake transparent" x1="209.19" y1="66.39" x2="208.46" y2="55.63"></line><line class="link fake transparent" x1="197.59" y1="55.19" x2="208.46" y2="55.63"></line><line class="link fake transparent" x1="207.80" y1="44.81" x2="208.46" y2="55.63"></line><line class="link fake transparent" x1="219.34" y1="55.92" x2="208.46" y2="55.63"></line><line class="link fake transparent" x1="197.59" y1="55.19" x2="196.95" y2="44.41"></line><line class="link fake transparent" x1="186.10" y1="43.55" x2="196.95" y2="44.41"></line><line class="link fake transparent" x1="196.69" y1="33.57" x2="196.95" y2="44.41"></line><line class="link fake transparent" x1="207.80" y1="44.81" x2="196.95" y2="44.41"></line><line class="link fake transparent" x1="186.10" y1="43.55" x2="185.84" y2="32.73"></line><line class="link fake transparent" x1="175.06" y1="31.06" x2="185.84" y2="32.73"></line><line class="link fake transparent" x1="186.32" y1="21.93" x2="185.84" y2="32.73"></line><line class="link fake transparent" x1="196.69" y1="33.57" x2="185.84" y2="32.73"></line><line class="link fake transparent" x1="175.06" y1="31.06" x2="175.60" y2="20.30"></line><line class="link fake transparent" x1="164.92" y1="17.33" x2="175.60" y2="20.30"></line><line class="link fake transparent" x1="177.52" y1="9.69" x2="175.60" y2="20.30"></line><line class="link fake transparent" x1="186.32" y1="21.93" x2="175.60" y2="20.30"></line><line class="link fake transparent" x1="238.78" y1="101.11" x2="254.92" y2="116.34"></line><line class="link fake transparent" x1="238.78" y1="101.11" x2="274.37" y2="126.26"></line><line class="link fake transparent" x1="252.08" y1="94.13" x2="254.92" y2="116.34"></line><line class="link fake transparent" x1="252.08" y1="94.13" x2="263.66" y2="136.79"></line><line class="link fake transparent" x1="267.27" y1="98.67" x2="254.92" y2="116.34"></line><line class="link fake transparent" x1="267.27" y1="98.67" x2="248.68" y2="138.14"></line><line class="link fake transparent" x1="276.83" y1="111.48" x2="254.92" y2="116.34"></line><line class="link fake transparent" x1="276.83" y1="111.48" x2="236.50" y2="130.52"></line><line class="link fake transparent" x1="274.37" y1="126.26" x2="254.92" y2="116.34"></line><line class="link fake transparent" x1="274.37" y1="126.26" x2="230.66" y2="117.26"></line><line class="link fake transparent" x1="263.66" y1="136.79" x2="254.92" y2="116.34"></line><line class="link fake transparent" x1="263.66" y1="136.79" x2="238.78" y2="101.11"></line><line class="link fake transparent" x1="248.68" y1="138.14" x2="254.92" y2="116.34"></line><line class="link fake transparent" x1="248.68" y1="138.14" x2="252.08" y2="94.13"></line><line class="link fake transparent" x1="48.58" y1="-44.39" x2="33.07" y2="-66.46"></line><line class="link fake transparent" x1="48.58" y1="-44.39" x2="12.09" y2="-83.20"></line><line class="link fake transparent" x1="33.92" y1="-39.74" x2="33.07" y2="-66.46"></line><line class="link fake transparent" x1="33.92" y1="-39.74" x2="24.36" y2="-91.94"></line><line class="link fake transparent" x1="19.31" y1="-43.42" x2="33.07" y2="-66.46"></line><line class="link fake transparent" x1="19.31" y1="-43.42" x2="39.39" y2="-92.72"></line><line class="link fake transparent" x1="8.94" y1="-54.40" x2="33.07" y2="-66.46"></line><line class="link fake transparent" x1="8.94" y1="-54.40" x2="52.46" y2="-84.97"></line><line class="link fake transparent" x1="6.27" y1="-69.28" x2="33.07" y2="-66.46"></line><line class="link fake transparent" x1="6.27" y1="-69.28" x2="59.28" y2="-71.51"></line><line class="link fake transparent" x1="12.09" y1="-83.20" x2="33.07" y2="-66.46"></line><line class="link fake transparent" x1="12.09" y1="-83.20" x2="57.93" y2="-56.10"></line><line class="link fake transparent" x1="24.36" y1="-91.94" x2="33.07" y2="-66.46"></line><line class="link fake transparent" x1="24.36" y1="-91.94" x2="48.58" y2="-44.39"></line><line class="link fake transparent" x1="39.39" y1="-92.72" x2="33.07" y2="-66.46"></line><line class="link fake transparent" x1="39.39" y1="-92.72" x2="33.92" y2="-39.74"></line><line class="link fake transparent" x1="52.46" y1="-84.97" x2="33.07" y2="-66.46"></line><line class="link fake transparent" x1="52.46" y1="-84.97" x2="19.31" y2="-43.42"></line><line class="link fake transparent" x1="59.28" y1="-71.51" x2="33.07" y2="-66.46"></line><line class="link fake transparent" x1="59.28" y1="-71.51" x2="8.94" y2="-54.40"></line><line class="link fake transparent" x1="57.93" y1="-56.10" x2="33.07" y2="-66.46"></line><line class="link fake transparent" x1="57.93" y1="-56.10" x2="6.27" y2="-69.28"></line><line class="link fake transparent" x1="337.13" y1="139.64" x2="343.77" y2="153.29"></line><line class="link fake transparent" x1="337.13" y1="139.64" x2="350.23" y2="166.91"></line><line class="link fake transparent" x1="352.49" y1="141.02" x2="343.77" y2="153.29"></line><line class="link fake transparent" x1="352.49" y1="141.02" x2="335.36" y2="165.80"></line><line class="link fake transparent" x1="358.79" y1="154.61" x2="343.77" y2="153.29"></line><line class="link fake transparent" x1="358.79" y1="154.61" x2="328.78" y2="151.96"></line><line class="link fake transparent" x1="350.23" y1="166.91" x2="343.77" y2="153.29"></line><line class="link fake transparent" x1="350.23" y1="166.91" x2="337.13" y2="139.64"></line><line class="link fake transparent" x1="335.36" y1="165.80" x2="343.77" y2="153.29"></line><line class="link fake transparent" x1="335.36" y1="165.80" x2="352.49" y2="141.02"></line><line class="link fake transparent" x1="328.78" y1="151.96" x2="343.77" y2="153.29"></line><line class="link fake transparent" x1="328.78" y1="151.96" x2="358.79" y2="154.61"></line><line class="link fake transparent" x1="164.92" y1="17.33" x2="164.50" y2="2.21"></line><line class="link fake transparent" x1="164.92" y1="17.33" x2="165.33" y2="-13.05"></line><line class="link fake transparent" x1="150.73" y1="8.52" x2="164.50" y2="2.21"></line><line class="link fake transparent" x1="150.73" y1="8.52" x2="177.80" y2="-5.31"></line><line class="link fake transparent" x1="152.06" y1="-6.16" x2="164.50" y2="2.21"></line><line class="link fake transparent" x1="152.06" y1="-6.16" x2="177.52" y2="9.69"></line><line class="link fake transparent" x1="165.33" y1="-13.05" x2="164.50" y2="2.21"></line><line class="link fake transparent" x1="165.33" y1="-13.05" x2="164.92" y2="17.33"></line><line class="link fake transparent" x1="177.80" y1="-5.31" x2="164.50" y2="2.21"></line><line class="link fake transparent" x1="177.80" y1="-5.31" x2="150.73" y2="8.52"></line><line class="link fake transparent" x1="177.52" y1="9.69" x2="164.50" y2="2.21"></line><line class="link fake transparent" x1="177.52" y1="9.69" x2="152.06" y2="-6.16"></line></g><g><g class="noselect gnode" struct_name="m" transform="translate(238.78,101.11)" r="6.5"><circle class="node" r="6" node_type="nucleotide" style="fill: lightgreen;"></circle><text text-anchor="middle" font-size="8" font-weight="bold" y="2.5" class="node-label">G</text></g><g class="noselect gnode" struct_name="m" transform="translate(230.76,88.95)" r="6.5"><circle class="node" r="6" node_type="nucleotide" style="fill: lightgreen;"></circle><text text-anchor="middle" font-size="8" font-weight="bold" y="2.5" class="node-label">U</text></g><g class="noselect gnode" struct_name="m" transform="translate(220.45,77.48)" r="6.5"><circle class="node" r="6" node_type="nucleotide" style="fill: lightgreen;"></circle><text text-anchor="middle" font-size="8" font-weight="bold" y="2.5" class="node-label">C</text></g><g class="noselect gnode" struct_name="m" transform="translate(209.19,66.39)" r="6.5"><circle class="node" r="6" node_type="nucleotide" style="fill: lightgreen;"></circle><text text-anchor="middle" font-size="8" font-weight="bold" y="2.5" class="node-label">A</text></g><g class="noselect gnode" struct_name="m" transform="translate(197.59,55.19)" r="6.5"><circle class="node" r="6" node_type="nucleotide" style="fill: lightgreen;"></circle><text text-anchor="middle" font-size="8" font-weight="bold" y="2.5" class="node-label">C</text></g><g class="noselect gnode" struct_name="m" transform="translate(186.10,43.55)" r="6.5"><circle class="node" r="6" node_type="nucleotide" style="fill: lightgreen;"></circle><text text-anchor="middle" font-size="8" font-weight="bold" y="2.5" class="node-label">G</text></g><g class="noselect gnode" struct_name="m" transform="translate(175.06,31.06)" r="6.5"><circle class="node" r="6" node_type="nucleotide" style="fill: lightgreen;"></circle><text text-anchor="middle" font-size="8" font-weight="bold" y="2.5" class="node-label">A</text></g><g class="noselect gnode" struct_name="m" transform="translate(164.92,17.33)" r="6.5"><circle class="node" r="6" node_type="nucleotide" style="fill: lightgreen;"></circle><text text-anchor="middle" font-size="8" font-weight="bold" y="2.5" class="node-label">A</text></g><g class="noselect gnode" struct_name="m" transform="translate(150.73,8.52)" r="6.5"><circle class="node" r="6" node_type="nucleotide" style="fill: lightgreen;"></circle><text text-anchor="middle" font-size="8" font-weight="bold" y="2.5" class="node-label">G</text></g><g class="noselect gnode" struct_name="m" transform="translate(133.89,5.34)" r="6.5"><circle class="node" r="6" node_type="nucleotide" style="fill: lightgreen;"></circle><text text-anchor="middle" font-size="8" font-weight="bold" y="2.5" class="node-label">U</text></g><g class="noselect gnode" struct_name="m" transform="translate(117.71,0.08)" r="6.5"><circle class="node" r="6" node_type="nucleotide" style="fill: lightgreen;"></circle><text text-anchor="middle" font-size="8" font-weight="bold" y="2.5" class="node-label">G</text></g><g class="noselect gnode" struct_name="m" transform="translate(102.32,-6.91)" r="6.5"><circle class="node" r="6" node_type="nucleotide" style="fill: lightgreen;"></circle><text text-anchor="middle" font-size="8" font-weight="bold" y="2.5" class="node-label">G</text></g><g class="noselect gnode" struct_name="m" transform="translate(87.81,-15.34)" r="6.5"><circle class="node" r="6" node_type="nucleotide" style="fill: lightgreen;"></circle><text text-anchor="middle" font-size="8" font-weight="bold" y="2.5" class="node-label">G</text></g><g class="noselect gnode" struct_name="m" transform="translate(74.09,-24.72)" r="6.5"><circle class="node" r="6" node_type="nucleotide" style="fill: lightgreen;"></circle><text text-anchor="middle" font-size="8" font-weight="bold" y="2.5" class="node-label">G</text></g><g class="noselect gnode" struct_name="m" transform="translate(61.10,-34.63)" r="6.5"><circle class="node" r="6" node_type="nucleotide" style="fill: lightgreen;"></circle><text text-anchor="middle" font-size="8" font-weight="bold" y="2.5" class="node-label">G</text></g><g class="noselect gnode" struct_name="m" transform="translate(48.58,-44.39)" r="6.5"><circle class="node" r="6" node_type="nucleotide" style="fill: lightgreen;"></circle><text text-anchor="middle" font-size="8" font-weight="bold" y="2.5" class="node-label">C</text></g><g class="noselect gnode" struct_name="m" transform="translate(33.92,-39.74)" r="6.5"><circle class="node" r="6" node_type="nucleotide" style="fill: lightblue;"></circle><text text-anchor="middle" font-size="8" font-weight="bold" y="2.5" class="node-label">A</text></g><g class="noselect gnode" struct_name="m" transform="translate(19.31,-43.42)" r="6.5"><circle class="node" r="6" node_type="nucleotide" style="fill: lightblue;"></circle><text text-anchor="middle" font-size="8" font-weight="bold" y="2.5" class="node-label">A</text></g><g class="noselect gnode" struct_name="m" transform="translate(8.94,-54.40)" r="6.5"><circle class="node" r="6" node_type="nucleotide" style="fill: lightblue;"></circle><text text-anchor="middle" font-size="8" font-weight="bold" y="2.5" class="node-label">U</text></g><g class="noselect gnode" struct_name="m" transform="translate(6.27,-69.28)" r="6.5"><circle class="node" r="6" node_type="nucleotide" style="fill: lightblue;"></circle><text text-anchor="middle" font-size="8" font-weight="bold" y="2.5" class="node-label">U</text></g><g class="noselect gnode" struct_name="m" transform="translate(12.09,-83.20)" r="6.5"><circle class="node" r="6" node_type="nucleotide" style="fill: lightblue;"></circle><text text-anchor="middle" font-size="8" font-weight="bold" y="2.5" class="node-label">U</text></g><g class="noselect gnode" struct_name="m" transform="translate(24.36,-91.94)" r="6.5"><circle class="node" r="6" node_type="nucleotide" style="fill: lightblue;"></circle><text text-anchor="middle" font-size="8" font-weight="bold" y="2.5" class="node-label">G</text></g><g class="noselect gnode" struct_name="m" transform="translate(39.39,-92.72)" r="6.5"><circle class="node" r="6" node_type="nucleotide" style="fill: lightblue;"></circle><text text-anchor="middle" font-size="8" font-weight="bold" y="2.5" class="node-label">U</text></g><g class="noselect gnode" struct_name="m" transform="translate(52.46,-84.97)" r="6.5"><circle class="node" r="6" node_type="nucleotide" style="fill: lightblue;"></circle><text text-anchor="middle" font-size="8" font-weight="bold" y="2.5" class="node-label">U</text></g><g class="noselect gnode" struct_name="m" transform="translate(59.28,-71.51)" r="6.5"><circle class="node" r="6" node_type="nucleotide" style="fill: lightblue;"></circle><text text-anchor="middle" font-size="8" font-weight="bold" y="2.5" class="node-label">A</text></g><g class="noselect gnode" struct_name="m" transform="translate(57.93,-56.10)" r="6.5"><circle class="node" r="6" node_type="nucleotide" style="fill: lightgreen;"></circle><text text-anchor="middle" font-size="8" font-weight="bold" y="2.5" class="node-label">G</text></g><g class="noselect gnode" struct_name="m" transform="translate(70.10,-46.08)" r="6.5"><circle class="node" r="6" node_type="nucleotide" style="fill: lightgreen;"></circle><text text-anchor="middle" font-size="8" font-weight="bold" y="2.5" class="node-label">C</text></g><g class="noselect gnode" struct_name="m" transform="translate(82.63,-36.48)" r="6.5"><circle class="node" r="6" node_type="nucleotide" style="fill: lightgreen;"></circle><text text-anchor="middle" font-size="8" font-weight="bold" y="2.5" class="node-label">C</text></g><g class="noselect gnode" struct_name="m" transform="translate(95.56,-27.58)" r="6.5"><circle class="node" r="6" node_type="nucleotide" style="fill: lightgreen;"></circle><text text-anchor="middle" font-size="8" font-weight="bold" y="2.5" class="node-label">C</text></g><g class="noselect gnode" struct_name="m" transform="translate(109.02,-19.79)" r="6.5"><circle class="node" r="6" node_type="nucleotide" style="fill: lightgreen;"></circle><text text-anchor="middle" font-size="8" font-weight="bold" y="2.5" class="node-label">C</text></g><g class="noselect gnode" struct_name="m" transform="translate(123.01,-13.42)" r="6.5"><circle class="node" r="6" node_type="nucleotide" style="fill: lightgreen;"></circle><text text-anchor="middle" font-size="8" font-weight="bold" y="2.5" class="node-label">C</text></g><g class="noselect gnode" struct_name="m" transform="translate(137.46,-8.77)" r="6.5"><circle class="node" r="6" node_type="nucleotide" style="fill: lightgreen;"></circle><text text-anchor="middle" font-size="8" font-weight="bold" y="2.5" class="node-label">A</text></g><g class="noselect gnode" struct_name="m" transform="translate(152.06,-6.16)" r="6.5"><circle class="node" r="6" node_type="nucleotide" style="fill: lightgreen;"></circle><text text-anchor="middle" font-size="8" font-weight="bold" y="2.5" class="node-label">C</text></g><g class="noselect gnode" struct_name="m" transform="translate(165.33,-13.05)" r="6.5"><circle class="node" r="6" node_type="nucleotide" style="fill: rgb(219, 219, 141);"></circle><text text-anchor="middle" font-size="8" font-weight="bold" y="2.5" class="node-label">A</text></g><g class="noselect gnode" struct_name="m" transform="translate(177.80,-5.31)" r="6.5"><circle class="node" r="6" node_type="nucleotide" style="fill: rgb(219, 219, 141);"></circle><text text-anchor="middle" font-size="8" font-weight="bold" y="2.5" class="node-label">A</text></g><g class="noselect gnode" struct_name="m" transform="translate(177.52,9.69)" r="6.5"><circle class="node" r="6" node_type="nucleotide" style="fill: lightgreen;"></circle><text text-anchor="middle" font-size="8" font-weight="bold" y="2.5" class="node-label">U</text></g><g class="noselect gnode" struct_name="m" transform="translate(186.32,21.93)" r="6.5"><circle class="node" r="6" node_type="nucleotide" style="fill: lightgreen;"></circle><text text-anchor="middle" font-size="8" font-weight="bold" y="2.5" class="node-label">U</text></g><g class="noselect gnode" struct_name="m" transform="translate(196.69,33.57)" r="6.5"><circle class="node" r="6" node_type="nucleotide" style="fill: lightgreen;"></circle><text text-anchor="middle" font-size="8" font-weight="bold" y="2.5" class="node-label">C</text></g><g class="noselect gnode" struct_name="m" transform="translate(207.80,44.81)" r="6.5"><circle class="node" r="6" node_type="nucleotide" style="fill: lightgreen;"></circle><text text-anchor="middle" font-size="8" font-weight="bold" y="2.5" class="node-label">G</text></g><g class="noselect gnode" struct_name="m" transform="translate(219.34,55.92)" r="6.5"><circle class="node" r="6" node_type="nucleotide" style="fill: lightgreen;"></circle><text text-anchor="middle" font-size="8" font-weight="bold" y="2.5" class="node-label">U</text></g><g class="noselect gnode" struct_name="m" transform="translate(230.95,67.41)" r="6.5"><circle class="node" r="6" node_type="nucleotide" style="fill: lightgreen;"></circle><text text-anchor="middle" font-size="8" font-weight="bold" y="2.5" class="node-label">G</text></g><g class="noselect gnode" struct_name="m" transform="translate(242.14,79.96)" r="6.5"><circle class="node" r="6" node_type="nucleotide" style="fill: lightgreen;"></circle><text text-anchor="middle" font-size="8" font-weight="bold" y="2.5" class="node-label">G</text></g><g class="noselect gnode" struct_name="m" transform="translate(252.08,94.13)" r="6.5"><circle class="node" r="6" node_type="nucleotide" style="fill: lightgreen;"></circle><text text-anchor="middle" font-size="8" font-weight="bold" y="2.5" class="node-label">C</text></g><g class="noselect gnode" struct_name="m" transform="translate(267.27,98.67)" r="6.5"><circle class="node" r="6" node_type="nucleotide" style="fill: lightsalmon;"></circle><text text-anchor="middle" font-size="8" font-weight="bold" y="2.5" class="node-label">U</text></g><g class="noselect gnode" struct_name="m" transform="translate(276.83,111.48)" r="6.5"><circle class="node" r="6" node_type="nucleotide" style="fill: lightgreen;"></circle><text text-anchor="middle" font-size="8" font-weight="bold" y="2.5" class="node-label">C</text></g><g class="noselect gnode" struct_name="m" transform="translate(293.44,116.27)" r="6.5"><circle class="node" r="6" node_type="nucleotide" style="fill: lightgreen;"></circle><text text-anchor="middle" font-size="8" font-weight="bold" y="2.5" class="node-label">G</text></g><g class="noselect gnode" struct_name="m" transform="translate(309.02,122.91)" r="6.5"><circle class="node" r="6" node_type="nucleotide" style="fill: lightgreen;"></circle><text text-anchor="middle" font-size="8" font-weight="bold" y="2.5" class="node-label">U</text></g><g class="noselect gnode" struct_name="m" transform="translate(323.52,130.97)" r="6.5"><circle class="node" r="6" node_type="nucleotide" style="fill: lightgreen;"></circle><text text-anchor="middle" font-size="8" font-weight="bold" y="2.5" class="node-label">G</text></g><g class="noselect gnode" struct_name="m" transform="translate(337.13,139.64)" r="6.5"><circle class="node" r="6" node_type="nucleotide" style="fill: lightgreen;"></circle><text text-anchor="middle" font-size="8" font-weight="bold" y="2.5" class="node-label">A</text></g><g class="noselect gnode" struct_name="m" transform="translate(352.49,141.02)" r="6.5"><circle class="node" r="6" node_type="nucleotide" style="fill: lightblue;"></circle><text text-anchor="middle" font-size="8" font-weight="bold" y="2.5" class="node-label">U</text></g><g class="noselect gnode" struct_name="m" transform="translate(358.79,154.61)" r="6.5"><circle class="node" r="6" node_type="nucleotide" style="fill: lightblue;"></circle><text text-anchor="middle" font-size="8" font-weight="bold" y="2.5" class="node-label">G</text></g><g class="noselect gnode" struct_name="m" transform="translate(350.23,166.91)" r="6.5"><circle class="node" r="6" node_type="nucleotide" style="fill: lightblue;"></circle><text text-anchor="middle" font-size="8" font-weight="bold" y="2.5" class="node-label">U</text></g><g class="noselect gnode" struct_name="m" transform="translate(335.36,165.80)" r="6.5"><circle class="node" r="6" node_type="nucleotide" style="fill: lightblue;"></circle><text text-anchor="middle" font-size="8" font-weight="bold" y="2.5" class="node-label">U</text></g><g class="noselect gnode" struct_name="m" transform="translate(328.78,151.96)" r="6.5"><circle class="node" r="6" node_type="nucleotide" style="fill: lightgreen;"></circle><text text-anchor="middle" font-size="8" font-weight="bold" y="2.5" class="node-label">U</text></g><g class="noselect gnode" struct_name="m" transform="translate(315.94,143.48)" r="6.5"><circle class="node" r="6" node_type="nucleotide" style="fill: lightgreen;"></circle><text text-anchor="middle" font-size="8" font-weight="bold" y="2.5" class="node-label">C</text></g><g class="noselect gnode" struct_name="m" transform="translate(302.55,136.00)" r="6.5"><circle class="node" r="6" node_type="nucleotide" style="fill: lightgreen;"></circle><text text-anchor="middle" font-size="8" font-weight="bold" y="2.5" class="node-label">G</text></g><g class="noselect gnode" struct_name="m" transform="translate(288.63,129.94)" r="6.5"><circle class="node" r="6" node_type="nucleotide" style="fill: lightgreen;"></circle><text text-anchor="middle" font-size="8" font-weight="bold" y="2.5" class="node-label">C</text></g><g class="noselect gnode" struct_name="m" transform="translate(274.37,126.26)" r="6.5"><circle class="node" r="6" node_type="nucleotide" style="fill: lightgreen;"></circle><text text-anchor="middle" font-size="8" font-weight="bold" y="2.5" class="node-label">G</text></g><g class="noselect gnode" struct_name="m" transform="translate(263.66,136.79)" r="6.5"><circle class="node" r="6" node_type="nucleotide" style="fill: lightsalmon;"></circle><text text-anchor="middle" font-size="8" font-weight="bold" y="2.5" class="node-label">U</text></g><g class="noselect gnode" struct_name="m" transform="translate(248.68,138.14)" r="6.5"><circle class="node" r="6" node_type="nucleotide" style="fill: lightsalmon;"></circle><text text-anchor="middle" font-size="8" font-weight="bold" y="2.5" class="node-label">U</text></g><g class="noselect gnode" struct_name="m" transform="translate(126.28,18.96)" r="6.5"><circle class="node label" r="6" node_type="label"></circle><text text-anchor="middle" font-size="8" font-weight="bold" y="2.5" class="node-label">10</text></g><g class="noselect gnode" struct_name="m" transform="translate(-9.12,-69.32)" r="6.5"><circle class="node label" r="6" node_type="label"></circle><text text-anchor="middle" font-size="8" font-weight="bold" y="2.5" class="node-label">20</text></g><g class="noselect gnode" struct_name="m" transform="translate(116.66,-33.33)" r="6.5"><circle class="node label" r="6" node_type="label"></circle><text text-anchor="middle" font-size="8" font-weight="bold" y="2.5" class="node-label">30</text></g><g class="noselect gnode" struct_name="m" transform="translate(230.14,44.67)" r="6.5"><circle class="node label" r="6" node_type="label"></circle><text text-anchor="middle" font-size="8" font-weight="bold" y="2.5" class="node-label">40</text></g><g class="noselect gnode" struct_name="m" transform="translate(366.33,134.21)" r="6.5"><circle class="node label" r="6" node_type="label"></circle><text text-anchor="middle" font-size="8" font-weight="bold" y="2.5" class="node-label">50</text></g><g class="noselect gnode" struct_name="m" transform="translate(239.37,150.69)" r="6.5"><circle class="node label" r="6" node_type="label"></circle><text text-anchor="middle" font-size="8" font-weight="bold" y="2.5" class="node-label">60</text></g><g class="noselect gnode" transform="translate(143.42,0.26)" r="6.5"><circle class="node" r="0" node_type="middle"></circle><text text-anchor="middle" font-size="8" font-weight="bold" y="2.5" class="node-label"></text></g><g class="noselect gnode" transform="translate(127.85,-3.73)" r="6.5"><circle class="node" r="0" node_type="middle"></circle><text text-anchor="middle" font-size="8" font-weight="bold" y="2.5" class="node-label"></text></g><g class="noselect gnode" transform="translate(112.83,-9.59)" r="6.5"><circle class="node" r="0" node_type="middle"></circle><text text-anchor="middle" font-size="8" font-weight="bold" y="2.5" class="node-label"></text></g><g class="noselect gnode" transform="translate(98.49,-17.07)" r="6.5"><circle class="node" r="0" node_type="middle"></circle><text text-anchor="middle" font-size="8" font-weight="bold" y="2.5" class="node-label"></text></g><g class="noselect gnode" transform="translate(84.85,-25.80)" r="6.5"><circle class="node" r="0" node_type="middle"></circle><text text-anchor="middle" font-size="8" font-weight="bold" y="2.5" class="node-label"></text></g><g class="noselect gnode" transform="translate(71.84,-35.36)" r="6.5"><circle class="node" r="0" node_type="middle"></circle><text text-anchor="middle" font-size="8" font-weight="bold" y="2.5" class="node-label"></text></g><g class="noselect gnode" transform="translate(59.30,-45.36)" r="6.5"><circle class="node" r="0" node_type="middle"></circle><text text-anchor="middle" font-size="8" font-weight="bold" y="2.5" class="node-label"></text></g><g class="noselect gnode" transform="translate(283.45,120.39)" r="6.5"><circle class="node" r="0" node_type="middle"></circle><text text-anchor="middle" font-size="8" font-weight="bold" y="2.5" class="node-label"></text></g><g class="noselect gnode" transform="translate(298.64,125.85)" r="6.5"><circle class="node" r="0" node_type="middle"></circle><text text-anchor="middle" font-size="8" font-weight="bold" y="2.5" class="node-label"></text></g><g class="noselect gnode" transform="translate(312.93,133.03)" r="6.5"><circle class="node" r="0" node_type="middle"></circle><text text-anchor="middle" font-size="8" font-weight="bold" y="2.5" class="node-label"></text></g><g class="noselect gnode" transform="translate(326.49,141.36)" r="6.5"><circle class="node" r="0" node_type="middle"></circle><text text-anchor="middle" font-size="8" font-weight="bold" y="2.5" class="node-label"></text></g><g class="noselect gnode" transform="translate(241.51,90.75)" r="6.5"><circle class="node" r="0" node_type="middle"></circle><text text-anchor="middle" font-size="8" font-weight="bold" y="2.5" class="node-label"></text></g><g class="noselect gnode" transform="translate(231.35,78.22)" r="6.5"><circle class="node" r="0" node_type="middle"></circle><text text-anchor="middle" font-size="8" font-weight="bold" y="2.5" class="node-label"></text></g><g class="noselect gnode" transform="translate(220.10,66.73)" r="6.5"><circle class="node" r="0" node_type="middle"></circle><text text-anchor="middle" font-size="8" font-weight="bold" y="2.5" class="node-label"></text></g><g class="noselect gnode" transform="translate(208.46,55.63)" r="6.5"><circle class="node" r="0" node_type="middle"></circle><text text-anchor="middle" font-size="8" font-weight="bold" y="2.5" class="node-label"></text></g><g class="noselect gnode" transform="translate(196.95,44.41)" r="6.5"><circle class="node" r="0" node_type="middle"></circle><text text-anchor="middle" font-size="8" font-weight="bold" y="2.5" class="node-label"></text></g><g class="noselect gnode" transform="translate(185.84,32.73)" r="6.5"><circle class="node" r="0" node_type="middle"></circle><text text-anchor="middle" font-size="8" font-weight="bold" y="2.5" class="node-label"></text></g><g class="noselect gnode" transform="translate(175.60,20.30)" r="6.5"><circle class="node" r="0" node_type="middle"></circle><text text-anchor="middle" font-size="8" font-weight="bold" y="2.5" class="node-label"></text></g><g class="noselect gnode" transform="translate(236.50,130.52)" r="6.5"><circle class="node" r="0" node_type="middle"></circle><text text-anchor="middle" font-size="8" font-weight="bold" y="2.5" class="node-label"></text></g><g class="noselect gnode" transform="translate(230.66,117.26)" r="6.5"><circle class="node" r="0" node_type="middle"></circle><text text-anchor="middle" font-size="8" font-weight="bold" y="2.5" class="node-label"></text></g><g class="noselect gnode" transform="translate(254.92,116.34)" r="6.5"><circle class="node" r="0" node_type="middle"></circle><text text-anchor="middle" font-size="8" font-weight="bold" y="2.5" class="node-label"></text></g><g class="noselect gnode" transform="translate(33.07,-66.46)" r="6.5"><circle class="node" r="0" node_type="middle"></circle><text text-anchor="middle" font-size="8" font-weight="bold" y="2.5" class="node-label"></text></g><g class="noselect gnode" transform="translate(343.77,153.29)" r="6.5"><circle class="node" r="0" node_type="middle"></circle><text text-anchor="middle" font-size="8" font-weight="bold" y="2.5" class="node-label"></text></g><g class="noselect gnode" transform="translate(164.50,2.21)" r="6.5"><circle class="node" r="0" node_type="middle"></circle><text text-anchor="middle" font-size="8" font-weight="bold" y="2.5" class="node-label"></text></g></g><line class="drag_line" x1="0" y1="0" x2="0" y2="0"></line></g></g></svg>