<svg xmlns="http://www.w3.org/2000/svg" viewBox="0 0 760 640" width="760" height="640"><style>svg {
  display: block;
  min-width: 100%;
  width: 100%;
  min-height: 100%;
}

circle.node {
  stroke: #ccc;
  stroke-width: 1px;
  opacity: 1;
  fill: white;
}

circle.node.label {
    stroke: transparent;
    stroke-width: 0;
    fill: white;
}

circle.outline_node {
    stroke-width: 1px;
    fill: red;
}

circle.protein {
    fill: gray;
    fill-opacity: 0.5;
    stroke-width: 4;
}

circle.hidden_outline {
    stroke-width: 0px;
}


line.link {
  stroke: #999;
  stroke-opacity: 0.8;
  stroke-width: 2;
}

line.basepair {
  stroke: red;
}

line.intermolecule {
  stroke: blue;
}

line.chain_chain {
  stroke-dasharray: 3,3;
}

line.fake {
  stroke: green;
}

.transparent {
    fill: transparent;
    stroke-width: 0;
    stroke-opacity: 0;
    opacity: 0;
    visibility: hidden;
}

.drag_line {
  stroke: #999;
  stroke-width: 2;
  pointer-events: none;
}

.drag_line_hidden {
  stroke: #999;
  stroke-width: 0;
  pointer-events: none;
}

.d3-tip {
    line-height: 1;
    font-weight: bold;
    padding: 6px;
    background: rgba(0, 0, 0, 0.6);
    color: #fff;
    border-radius: 4px;
    pointer-events: none;
          }

text.node-label {
    font-weight: bold;
    font-family: Tahoma, Geneva, sans-serif;
    color: rgb(100,100,100);
    pointer-events: none;
}

text {
    pointer-events: none;
}

g.gnode {

}

circle.outline_node.selected {
    visibility: visible;
}

circle.outline_node {
    visibility: hidden;
}

.brush .extent {
  fill-opacity: .1;
  stroke: #fff;
  shape-rendering: crispEdges;
}

.noselect {
    -webkit-touch-callout: none;
    -webkit-user-select: none;
    -khtml-user-select: none;
    -moz-user-select: none;
    -ms-user-select: none;
    user-select: none;
}

svg {
  display: block;
  min-width: 100%;
  width: 100%;
  min-height: 100%;
}

circle.node {
  stroke: #ccc;
  stroke-width: 1px;
  opacity: 1;
  fill: white;
}

circle.node.label {
    stroke: transparent;
    stroke-width: 0;
    fill: white;
}

circle.outline_node {
    stroke-width: 1px;
    fill: red;
}

circle.protein {
    fill: gray;
    fill-opacity: 0.5;
    stroke-width: 4;
}

circle.hidden_outline {
    stroke-width: 0px;
}


line.link {
  stroke: #999;
  stroke-opacity: 0.8;
  stroke-width: 2;
}

line.basepair {
  stroke: red;
}

line.intermolecule {
  stroke: blue;
}

line.chain_chain {
  stroke-dasharray: 3,3;
}

line.fake {
  stroke: green;
}

.transparent {
    fill: transparent;
    stroke-width: 0;
    stroke-opacity: 0;
    opacity: 0;
    visibility: hidden;
}

.drag_line {
  stroke: #999;
  stroke-width: 2;
  pointer-events: none;
}

.drag_line_hidden {
  stroke: #999;
  stroke-width: 0;
  pointer-events: none;
}

.d3-tip {
    line-height: 1;
    font-weight: bold;
    padding: 6px;
    background: rgba(0, 0, 0, 0.6);
    color: #fff;
    border-radius: 4px;
    pointer-events: none;
          }

text.node-label {
    font-weight: bold;
    font-family: Tahoma, Geneva, sans-serif;
    color: rgb(100,100,100);
    pointer-events: none;
}

text {
    pointer-events: none;
}

g.gnode {

}

circle.outline_node.selected {
    visibility: visible;
}

circle.outline_node {
    visibility: hidden;
}

.brush .extent {
  fill-opacity: .1;
  stroke: #fff;
  shape-rendering: crispEdges;
}

.noselect {
    -webkit-touch-callout: none;
    -webkit-user-select: none;
    -khtml-user-select: none;
    -moz-user-select: none;
    -ms-user-select: none;
    user-select: none;
}
/*# sourceURL=/Users/yumanakamura/ipy_sandbox/sandbox/claude_sandbox/mrna-transformer/scripts/eval/prerender/forna_vendor/fornac.css*/</style><style></style><g><g class="brush" style="pointer-events: all; -webkit-tap-highlight-color: rgba(0, 0, 0, 0);"><rect class="background" x="0" width="760" y="0" height="640" style="visibility: hidden; cursor: auto;"></rect><rect class="extent" x="0" width="0" y="0" height="0" style="cursor: move;"></rect><g class="resize n" transform="translate(0,0)" style="cursor: ns-resize; display: none;"><rect y="-3" width="0" height="6" style="visibility: hidden;"></rect></g><g class="resize e" transform="translate(0,0)" style="cursor: ew-resize; display: none;"><rect x="-3" width="6" height="0" style="visibility: hidden;"></rect></g><g class="resize s" transform="translate(0,0)" style="cursor: ns-resize; display: none;"><rect y="-3" width="0" height="6" style="visibility: hidden;"></rect></g><g class="resize w" transform="translate(0,0)" style="cursor: ew-resize; display: none;"><rect x="-3" width="6" height="0" style="visibility: hidden;"></rect></g><g class="resize nw" transform="translate(0,0)" style="cursor: nwse-resize; display: none;"><rect x="-3" y="-3" width="6" height="6" style="visibility: hidden;"></rect></g><g class="resize ne" transform="translate(0,0)" style="cursor: nesw-resize; display: none;"><rect x="-3" y="-3" width="6" height="6" style="visibility: hidden;"></rect></g><g class="resize se" transform="translate(0,0)" style="cursor: nwse-resize; display: none;"><rect x="-3" y="-3" width="6" height="6" style="visibility: hidden;"></rect></g><g class="resize sw" transform="translate(0,0)" style="cursor: nesw-resize; display: none;"><rect x="-3" y="-3" width="6" height="6" style="visibility: hidden;"></rect></g></g><g transform="translate(248.77,188.50) scale(1.37)"><g><line class="link backbone" x1="45.15" y1="282.24" x2="33.56" y2="291.78"></line><line class="link backbone" x1="33.56" y1="291.78" x2="18.77" y2="293.80"></line><line class="link backbone" x1="18.77" y1="293.80" x2="4.70" y2="288.92"></line><line class="link backbone" x1="4.70" y1="288.92" x2="-5.21" y2="277.63"></line><line class="link backbone" x1="-5.21" y1="277.63" x2="-7.80" y2="262.80"></line><line class="link backbone" x1="-7.80" y1="262.80" x2="-2.35" y2="248.70"></line><line class="link backbone" x1="-2.35" y1="248.70" x2="9.09" y2="239.06"></line><line class="link basepair" x1="24.29" y1="235.72" x2="38.10" y2="241.29"></line><line class="link backbone" x1="9.09" y1="239.06" x2="24.29" y2="235.72"></line><line class="link basepair" x1="31.24" y1="220.85" x2="44.33" y2="227.23"></line><line class="link backbone" x1="24.29" y1="235.72" x2="31.24" y2="220.85"></line><line class="link basepair" x1="38.72" y1="206.33" x2="51.58" y2="213.17"></line><line class="link backbone" x1="31.24" y1="220.85" x2="38.72" y2="206.33"></line><line class="link basepair" x1="46.46" y1="192.13" x2="59.23" y2="199.17"></line><line class="link backbone" x1="38.72" y1="206.33" x2="46.46" y2="192.13"></line><line class="link basepair" x1="54.12" y1="178.16" x2="67.00" y2="185.10"></line><line class="link backbone" x1="46.46" y1="192.13" x2="54.12" y2="178.16"></line><line class="link basepair" x1="61.42" y1="164.23" x2="74.51" y2="170.77"></line><line class="link backbone" x1="54.12" y1="178.16" x2="61.42" y2="164.23"></line><line class="link basepair" x1="67.92" y1="150.24" x2="81.52" y2="156.10"></line><line class="link backbone" x1="61.42" y1="164.23" x2="67.92" y2="150.24"></line><line class="link backbone" x1="67.92" y1="150.24" x2="65.81" y2="135.25"></line><line class="link basepair" x1="77.80" y1="126.05" x2="91.58" y2="131.34"></line><line class="link backbone" x1="65.81" y1="135.25" x2="77.80" y2="126.05"></line><line class="link basepair" x1="82.90" y1="111.47" x2="96.94" y2="115.86"></line><line class="link backbone" x1="77.80" y1="126.05" x2="82.90" y2="111.47"></line><line class="link backbone" x1="82.90" y1="111.47" x2="79.19" y2="96.78"></line><line class="link basepair" x1="90.20" y1="86.25" x2="104.40" y2="89.99"></line><line class="link backbone" x1="79.19" y1="96.78" x2="90.20" y2="86.25"></line><line class="link basepair" x1="93.41" y1="71.35" x2="108.02" y2="73.73"></line><line class="link backbone" x1="90.20" y1="86.25" x2="93.41" y2="71.35"></line><line class="link backbone" x1="93.41" y1="71.35" x2="90.33" y2="56.21"></line><line class="link basepair" x1="103.81" y1="48.88" x2="115.06" y2="58.60"></line><line class="link backbone" x1="90.33" y1="56.21" x2="103.81" y2="48.88"></line><line class="link basepair" x1="113.38" y1="36.89" x2="125.08" y2="45.54"></line><line class="link backbone" x1="103.81" y1="48.88" x2="113.38" y2="36.89"></line><line class="link basepair" x1="122.54" y1="23.95" x2="134.51" y2="32.26"></line><line class="link backbone" x1="113.38" y1="36.89" x2="122.54" y2="23.95"></line><line class="link basepair" x1="131.57" y1="10.76" x2="143.62" y2="18.95"></line><line class="link backbone" x1="122.54" y1="23.95" x2="131.57" y2="10.76"></line><line class="link basepair" x1="140.64" y1="-2.56" x2="152.63" y2="5.61"></line><line class="link backbone" x1="131.57" y1="10.76" x2="140.64" y2="-2.56"></line><line class="link basepair" x1="149.61" y1="-15.97" x2="161.77" y2="-7.31"></line><line class="link backbone" x1="140.64" y1="-2.56" x2="149.61" y2="-15.97"></line><line class="link backbone" x1="149.61" y1="-15.97" x2="148.92" y2="-31.54"></line><line class="link basepair" x1="160.62" y1="-41.92" x2="175.29" y2="-39.18"></line><line class="link backbone" x1="148.92" y1="-31.54" x2="160.62" y2="-41.92"></line><line class="link basepair" x1="164.04" y1="-57.66" x2="178.28" y2="-54.65"></line><line class="link backbone" x1="160.62" y1="-41.92" x2="164.04" y2="-57.66"></line><line class="link basepair" x1="167.20" y1="-73.17" x2="181.76" y2="-70.01"></line><line class="link backbone" x1="164.04" y1="-57.66" x2="167.20" y2="-73.17"></line><line class="link backbone" x1="167.20" y1="-73.17" x2="162.61" y2="-87.84"></line><line class="link backbone" x1="162.61" y1="-87.84" x2="172.76" y2="-98.84"></line><line class="link backbone" x1="172.76" y1="-98.84" x2="187.40" y2="-95.64"></line><line class="link backbone" x1="187.40" y1="-95.64" x2="192.05" y2="-81.41"></line><line class="link basepair" x1="181.76" y1="-70.01" x2="167.20" y2="-73.17"></line><line class="link backbone" x1="192.05" y1="-81.41" x2="181.76" y2="-70.01"></line><line class="link basepair" x1="178.28" y1="-54.65" x2="164.04" y2="-57.66"></line><line class="link backbone" x1="181.76" y1="-70.01" x2="178.28" y2="-54.65"></line><line class="link basepair" x1="175.29" y1="-39.18" x2="160.62" y2="-41.92"></line><line class="link backbone" x1="178.28" y1="-54.65" x2="175.29" y2="-39.18"></line><line class="link backbone" x1="175.29" y1="-39.18" x2="182.56" y2="-25.51"></line><line class="link backbone" x1="182.56" y1="-25.51" x2="176.68" y2="-11.61"></line><line class="link basepair" x1="161.77" y1="-7.31" x2="149.61" y2="-15.97"></line><line class="link backbone" x1="176.68" y1="-11.61" x2="161.77" y2="-7.31"></line><line class="link basepair" x1="152.63" y1="5.61" x2="140.64" y2="-2.56"></line><line class="link backbone" x1="161.77" y1="-7.31" x2="152.63" y2="5.61"></line><line class="link basepair" x1="143.62" y1="18.95" x2="131.57" y2="10.76"></line><line class="link backbone" x1="152.63" y1="5.61" x2="143.62" y2="18.95"></line><line class="link basepair" x1="134.51" y1="32.26" x2="122.54" y2="23.95"></line><line class="link backbone" x1="143.62" y1="18.95" x2="134.51" y2="32.26"></line><line class="link basepair" x1="125.08" y1="45.54" x2="113.38" y2="36.89"></line><line class="link backbone" x1="134.51" y1="32.26" x2="125.08" y2="45.54"></line><line class="link basepair" x1="115.06" y1="58.60" x2="103.81" y2="48.88"></line><line class="link backbone" x1="125.08" y1="45.54" x2="115.06" y2="58.60"></line><line class="link basepair" x1="108.02" y1="73.73" x2="93.41" y2="71.35"></line><line class="link backbone" x1="115.06" y1="58.60" x2="108.02" y2="73.73"></line><line class="link basepair" x1="104.40" y1="89.99" x2="90.20" y2="86.25"></line><line class="link backbone" x1="108.02" y1="73.73" x2="104.40" y2="89.99"></line><line class="link backbone" x1="104.40" y1="89.99" x2="108.15" y2="105.11"></line><line class="link basepair" x1="96.94" y1="115.86" x2="82.90" y2="111.47"></line><line class="link backbone" x1="108.15" y1="105.11" x2="96.94" y2="115.86"></line><line class="link basepair" x1="91.58" y1="131.34" x2="77.80" y2="126.05"></line><line class="link backbone" x1="96.94" y1="115.86" x2="91.58" y2="131.34"></line><line class="link backbone" x1="91.58" y1="131.34" x2="93.75" y2="146.62"></line><line class="link basepair" x1="81.52" y1="156.10" x2="67.92" y2="150.24"></line><line class="link backbone" x1="93.75" y1="146.62" x2="81.52" y2="156.10"></line><line class="link basepair" x1="74.51" y1="170.77" x2="61.42" y2="164.23"></line><line class="link backbone" x1="81.52" y1="156.10" x2="74.51" y2="170.77"></line><line class="link basepair" x1="67.00" y1="185.10" x2="54.12" y2="178.16"></line><line class="link backbone" x1="74.51" y1="170.77" x2="67.00" y2="185.10"></line><line class="link basepair" x1="59.23" y1="199.17" x2="46.46" y2="192.13"></line><line class="link backbone" x1="67.00" y1="185.10" x2="59.23" y2="199.17"></line><line class="link basepair" x1="51.58" y1="213.17" x2="38.72" y2="206.33"></line><line class="link backbone" x1="59.23" y1="199.17" x2="51.58" y2="213.17"></line><line class="link basepair" x1="44.33" y1="227.23" x2="31.24" y2="220.85"></line><line class="link backbone" x1="51.58" y1="213.17" x2="44.33" y2="227.23"></line><line class="link basepair" x1="38.10" y1="241.29" x2="24.29" y2="235.72"></line><line class="link backbone" x1="44.33" y1="227.23" x2="38.10" y2="241.29"></line><line class="link label_link" x1="31.24" y1="220.85" x2="16.85" y2="214.92"></line><line class="link label_link" x1="90.20" y1="86.25" x2="75.88" y2="80.08"></line><line class="link label_link" x1="160.62" y1="-41.92" x2="147.04" y2="-49.50"></line><line class="link label_link" x1="182.56" y1="-25.51" x2="197.48" y2="-21.04"></line><line class="link label_link" x1="108.15" y1="105.11" x2="122.54" y2="111.14"></line><line class="link label_link" x1="38.10" y1="241.29" x2="40.52" y2="256.42"></line><line class="link fake transparent" x1="90.20" y1="86.25" x2="99.34" y2="80.34"></line><line class="link fake transparent" x1="90.20" y1="86.25" x2="108.02" y2="73.73"></line><line class="link fake transparent" x1="93.41" y1="71.35" x2="99.34" y2="80.34"></line><line class="link fake transparent" x1="108.02" y1="73.73" x2="99.34" y2="80.34"></line><line class="link fake transparent" x1="104.40" y1="89.99" x2="99.34" y2="80.34"></line><line class="link fake transparent" x1="103.81" y1="48.88" x2="114.50" y2="47.67"></line><line class="link fake transparent" x1="113.38" y1="36.89" x2="114.50" y2="47.67"></line><line class="link fake transparent" x1="125.08" y1="45.54" x2="114.50" y2="47.67"></line><line class="link fake transparent" x1="115.06" y1="58.60" x2="114.50" y2="47.67"></line><line class="link fake transparent" x1="113.38" y1="36.89" x2="123.96" y2="34.72"></line><line class="link fake transparent" x1="122.54" y1="23.95" x2="123.96" y2="34.72"></line><line class="link fake transparent" x1="134.51" y1="32.26" x2="123.96" y2="34.72"></line><line class="link fake transparent" x1="125.08" y1="45.54" x2="123.96" y2="34.72"></line><line class="link fake transparent" x1="122.54" y1="23.95" x2="133.07" y2="21.52"></line><line class="link fake transparent" x1="131.57" y1="10.76" x2="133.07" y2="21.52"></line><line class="link fake transparent" x1="143.62" y1="18.95" x2="133.07" y2="21.52"></line><line class="link fake transparent" x1="134.51" y1="32.26" x2="133.07" y2="21.52"></line><line class="link fake transparent" x1="131.57" y1="10.76" x2="142.10" y2="8.22"></line><line class="link fake transparent" x1="140.64" y1="-2.56" x2="142.10" y2="8.22"></line><line class="link fake transparent" x1="152.63" y1="5.61" x2="142.10" y2="8.22"></line><line class="link fake transparent" x1="143.62" y1="18.95" x2="142.10" y2="8.22"></line><line class="link fake transparent" x1="140.64" y1="-2.56" x2="151.17" y2="-5.15"></line><line class="link fake transparent" x1="149.61" y1="-15.97" x2="151.17" y2="-5.15"></line><line class="link fake transparent" x1="161.77" y1="-7.31" x2="151.17" y2="-5.15"></line><line class="link fake transparent" x1="152.63" y1="5.61" x2="151.17" y2="-5.15"></line><line class="link fake transparent" x1="160.62" y1="-41.92" x2="169.50" y2="-48.30"></line><line class="link fake transparent" x1="164.04" y1="-57.66" x2="169.50" y2="-48.30"></line><line class="link fake transparent" x1="178.28" y1="-54.65" x2="169.50" y2="-48.30"></line><line class="link fake transparent" x1="175.29" y1="-39.18" x2="169.50" y2="-48.30"></line><line class="link fake transparent" x1="164.04" y1="-57.66" x2="172.83" y2="-63.96"></line><line class="link fake transparent" x1="167.20" y1="-73.17" x2="172.83" y2="-63.96"></line><line class="link fake transparent" x1="181.76" y1="-70.01" x2="172.83" y2="-63.96"></line><line class="link fake transparent" x1="178.28" y1="-54.65" x2="172.83" y2="-63.96"></line><line class="link fake transparent" x1="24.29" y1="235.72" x2="34.22" y2="231.25"></line><line class="link fake transparent" x1="31.24" y1="220.85" x2="34.22" y2="231.25"></line><line class="link fake transparent" x1="44.33" y1="227.23" x2="34.22" y2="231.25"></line><line class="link fake transparent" x1="38.10" y1="241.29" x2="34.22" y2="231.25"></line><line class="link fake transparent" x1="31.24" y1="220.85" x2="41.35" y2="216.84"></line><line class="link fake transparent" x1="38.72" y1="206.33" x2="41.35" y2="216.84"></line><line class="link fake transparent" x1="51.58" y1="213.17" x2="41.35" y2="216.84"></line><line class="link fake transparent" x1="44.33" y1="227.23" x2="41.35" y2="216.84"></line><line class="link fake transparent" x1="38.72" y1="206.33" x2="48.94" y2="202.67"></line><line class="link fake transparent" x1="46.46" y1="192.13" x2="48.94" y2="202.67"></line><line class="link fake transparent" x1="59.23" y1="199.17" x2="48.94" y2="202.67"></line><line class="link fake transparent" x1="51.58" y1="213.17" x2="48.94" y2="202.67"></line><line class="link fake transparent" x1="46.46" y1="192.13" x2="56.74" y2="188.64"></line><line class="link fake transparent" x1="54.12" y1="178.16" x2="56.74" y2="188.64"></line><line class="link fake transparent" x1="67.00" y1="185.10" x2="56.74" y2="188.64"></line><line class="link fake transparent" x1="59.23" y1="199.17" x2="56.74" y2="188.64"></line><line class="link fake transparent" x1="54.12" y1="178.16" x2="64.37" y2="174.63"></line><line class="link fake transparent" x1="61.42" y1="164.23" x2="64.37" y2="174.63"></line><line class="link fake transparent" x1="74.51" y1="170.77" x2="64.37" y2="174.63"></line><line class="link fake transparent" x1="67.00" y1="185.10" x2="64.37" y2="174.63"></line><line class="link fake transparent" x1="61.42" y1="164.23" x2="71.55" y2="160.42"></line><line class="link fake transparent" x1="67.92" y1="150.24" x2="71.55" y2="160.42"></line><line class="link fake transparent" x1="81.52" y1="156.10" x2="71.55" y2="160.42"></line><line class="link fake transparent" x1="74.51" y1="170.77" x2="71.55" y2="160.42"></line><line class="link fake transparent" x1="77.80" y1="126.05" x2="87.52" y2="121.28"></line><line class="link fake transparent" x1="82.90" y1="111.47" x2="87.52" y2="121.28"></line><line class="link fake transparent" x1="96.94" y1="115.86" x2="87.52" y2="121.28"></line><line class="link fake transparent" x1="91.58" y1="131.34" x2="87.52" y2="121.28"></line><line class="link fake transparent" x1="45.15" y1="282.24" x2="21.38" y2="265.08"></line><line class="link fake transparent" x1="45.15" y1="282.24" x2="-2.35" y2="248.70"></line><line class="link fake transparent" x1="33.56" y1="291.78" x2="21.38" y2="265.08"></line><line class="link fake transparent" x1="33.56" y1="291.78" x2="9.09" y2="239.06"></line><line class="link fake transparent" x1="18.77" y1="293.80" x2="21.38" y2="265.08"></line><line class="link fake transparent" x1="18.77" y1="293.80" x2="24.29" y2="235.72"></line><line class="link fake transparent" x1="4.70" y1="288.92" x2="21.38" y2="265.08"></line><line class="link fake transparent" x1="4.70" y1="288.92" x2="38.10" y2="241.29"></line><line class="link fake transparent" x1="-5.21" y1="277.63" x2="21.38" y2="265.08"></line><line class="link fake transparent" x1="-5.21" y1="277.63" x2="47.68" y2="253.56"></line><line class="link fake transparent" x1="-7.80" y1="262.80" x2="21.38" y2="265.08"></line><line class="link fake transparent" x1="-7.80" y1="262.80" x2="50.19" y2="268.05"></line><line class="link fake transparent" x1="-2.35" y1="248.70" x2="21.38" y2="265.08"></line><line class="link fake transparent" x1="-2.35" y1="248.70" x2="45.15" y2="282.24"></line><line class="link fake transparent" x1="9.09" y1="239.06" x2="21.38" y2="265.08"></line><line class="link fake transparent" x1="9.09" y1="239.06" x2="33.56" y2="291.78"></line><line class="link fake transparent" x1="24.29" y1="235.72" x2="21.38" y2="265.08"></line><line class="link fake transparent" x1="24.29" y1="235.72" x2="18.77" y2="293.80"></line><line class="link fake transparent" x1="38.10" y1="241.29" x2="21.38" y2="265.08"></line><line class="link fake transparent" x1="38.10" y1="241.29" x2="4.70" y2="288.92"></line><line class="link fake transparent" x1="167.20" y1="-73.17" x2="177.28" y2="-84.45"></line><line class="link fake transparent" x1="167.20" y1="-73.17" x2="187.40" y2="-95.64"></line><line class="link fake transparent" x1="162.61" y1="-87.84" x2="177.28" y2="-84.45"></line><line class="link fake transparent" x1="162.61" y1="-87.84" x2="192.05" y2="-81.41"></line><line class="link fake transparent" x1="172.76" y1="-98.84" x2="177.28" y2="-84.45"></line><line class="link fake transparent" x1="172.76" y1="-98.84" x2="181.76" y2="-70.01"></line><line class="link fake transparent" x1="187.40" y1="-95.64" x2="177.28" y2="-84.45"></line><line class="link fake transparent" x1="187.40" y1="-95.64" x2="167.20" y2="-73.17"></line><line class="link fake transparent" x1="192.05" y1="-81.41" x2="177.28" y2="-84.45"></line><line class="link fake transparent" x1="192.05" y1="-81.41" x2="162.61" y2="-87.84"></line><line class="link fake transparent" x1="181.76" y1="-70.01" x2="177.28" y2="-84.45"></line><line class="link fake transparent" x1="181.76" y1="-70.01" x2="172.76" y2="-98.84"></line><line class="link fake transparent" x1="93.41" y1="71.35" x2="102.44" y2="61.87"></line><line class="link fake transparent" x1="93.41" y1="71.35" x2="103.81" y2="48.88"></line><line class="link fake transparent" x1="90.33" y1="56.21" x2="102.44" y2="61.87"></line><line class="link fake transparent" x1="90.33" y1="56.21" x2="115.06" y2="58.60"></line><line class="link fake transparent" x1="103.81" y1="48.88" x2="102.44" y2="61.87"></line><line class="link fake transparent" x1="103.81" y1="48.88" x2="108.02" y2="73.73"></line><line class="link fake transparent" x1="115.06" y1="58.60" x2="102.44" y2="61.87"></line><line class="link fake transparent" x1="115.06" y1="58.60" x2="93.41" y2="71.35"></line><line class="link fake transparent" x1="108.02" y1="73.73" x2="102.44" y2="61.87"></line><line class="link fake transparent" x1="108.02" y1="73.73" x2="90.33" y2="56.21"></line><line class="link fake transparent" x1="149.61" y1="-15.97" x2="164.95" y2="-24.76"></line><line class="link fake transparent" x1="149.61" y1="-15.97" x2="175.29" y2="-39.18"></line><line class="link fake transparent" x1="148.92" y1="-31.54" x2="164.95" y2="-24.76"></line><line class="link fake transparent" x1="148.92" y1="-31.54" x2="182.56" y2="-25.51"></line><line class="link fake transparent" x1="160.62" y1="-41.92" x2="164.95" y2="-24.76"></line><line class="link fake transparent" x1="160.62" y1="-41.92" x2="176.68" y2="-11.61"></line><line class="link fake transparent" x1="175.29" y1="-39.18" x2="164.95" y2="-24.76"></line><line class="link fake transparent" x1="175.29" y1="-39.18" x2="161.77" y2="-7.31"></line><line class="link fake transparent" x1="182.56" y1="-25.51" x2="164.95" y2="-24.76"></line><line class="link fake transparent" x1="182.56" y1="-25.51" x2="149.61" y2="-15.97"></line><line class="link fake transparent" x1="176.68" y1="-11.61" x2="164.95" y2="-24.76"></line><line class="link fake transparent" x1="176.68" y1="-11.61" x2="148.92" y2="-31.54"></line><line class="link fake transparent" x1="161.77" y1="-7.31" x2="164.95" y2="-24.76"></line><line class="link fake transparent" x1="161.77" y1="-7.31" x2="160.62" y2="-41.92"></line><line class="link fake transparent" x1="67.92" y1="150.24" x2="79.86" y2="140.98"></line><line class="link fake transparent" x1="67.92" y1="150.24" x2="91.58" y2="131.34"></line><line class="link fake transparent" x1="65.81" y1="135.25" x2="79.86" y2="140.98"></line><line class="link fake transparent" x1="65.81" y1="135.25" x2="93.75" y2="146.62"></line><line class="link fake transparent" x1="77.80" y1="126.05" x2="79.86" y2="140.98"></line><line class="link fake transparent" x1="77.80" y1="126.05" x2="81.52" y2="156.10"></line><line class="link fake transparent" x1="91.58" y1="131.34" x2="79.86" y2="140.98"></line><line class="link fake transparent" x1="91.58" y1="131.34" x2="67.92" y2="150.24"></line><line class="link fake transparent" x1="93.75" y1="146.62" x2="79.86" y2="140.98"></line><line class="link fake transparent" x1="93.75" y1="146.62" x2="65.81" y2="135.25"></line><line class="link fake transparent" x1="81.52" y1="156.10" x2="79.86" y2="140.98"></line><line class="link fake transparent" x1="81.52" y1="156.10" x2="77.80" y2="126.05"></line><line class="link fake transparent" x1="82.90" y1="111.47" x2="93.75" y2="100.93"></line><line class="link fake transparent" x1="82.90" y1="111.47" x2="104.40" y2="89.99"></line><line class="link fake transparent" x1="79.19" y1="96.78" x2="93.75" y2="100.93"></line><line class="link fake transparent" x1="79.19" y1="96.78" x2="108.15" y2="105.11"></line><line class="link fake transparent" x1="90.20" y1="86.25" x2="93.75" y2="100.93"></line><line class="link fake transparent" x1="90.20" y1="86.25" x2="96.94" y2="115.86"></line><line class="link fake transparent" x1="104.40" y1="89.99" x2="93.75" y2="100.93"></line><line class="link fake transparent" x1="104.40" y1="89.99" x2="82.90" y2="111.47"></line><line class="link fake transparent" x1="108.15" y1="105.11" x2="93.75" y2="100.93"></line><line class="link fake transparent" x1="108.15" y1="105.11" x2="79.19" y2="96.78"></line><line class="link fake transparent" x1="96.94" y1="115.86" x2="93.75" y2="100.93"></line><line class="link fake transparent" x1="96.94" y1="115.86" x2="90.20" y2="86.25"></line></g><g><g class="noselect gnode" struct_name="m" transform="translate(45.15,282.24)" r="6.5"><circle class="node" r="6" node_type="nucleotide" style="fill: lightsalmon;"></circle><text text-anchor="middle" font-size="8" font-weight="bold" y="2.5" class="node-label">G</text></g><g class="noselect gnode" struct_name="m" transform="translate(33.56,291.78)" r="6.5"><circle class="node" r="6" node_type="nucleotide" style="fill: lightsalmon;"></circle><text text-anchor="middle" font-size="8" font-weight="bold" y="2.5" class="node-label">G</text></g><g class="noselect gnode" struct_name="m" transform="translate(18.77,293.80)" r="6.5"><circle class="node" r="6" node_type="nucleotide" style="fill: lightsalmon;"></circle><text text-anchor="middle" font-size="8" font-weight="bold" y="2.5" class="node-label">U</text></g><g class="noselect gnode" struct_name="m" transform="translate(4.70,288.92)" r="6.5"><circle class="node" r="6" node_type="nucleotide" style="fill: lightsalmon;"></circle><text text-anchor="middle" font-size="8" font-weight="bold" y="2.5" class="node-label">A</text></g><g class="noselect gnode" struct_name="m" transform="translate(-5.21,277.63)" r="6.5"><circle class="node" r="6" node_type="nucleotide" style="fill: lightsalmon;"></circle><text text-anchor="middle" font-size="8" font-weight="bold" y="2.5" class="node-label">A</text></g><g class="noselect gnode" struct_name="m" transform="translate(-7.80,262.80)" r="6.5"><circle class="node" r="6" node_type="nucleotide" style="fill: lightsalmon;"></circle><text text-anchor="middle" font-size="8" font-weight="bold" y="2.5" class="node-label">A</text></g><g class="noselect gnode" struct_name="m" transform="translate(-2.35,248.70)" r="6.5"><circle class="node" r="6" node_type="nucleotide" style="fill: lightsalmon;"></circle><text text-anchor="middle" font-size="8" font-weight="bold" y="2.5" class="node-label">U</text></g><g class="noselect gnode" struct_name="m" transform="translate(9.09,239.06)" r="6.5"><circle class="node" r="6" node_type="nucleotide" style="fill: lightsalmon;"></circle><text text-anchor="middle" font-size="8" font-weight="bold" y="2.5" class="node-label">G</text></g><g class="noselect gnode" struct_name="m" transform="translate(24.29,235.72)" r="6.5"><circle class="node" r="6" node_type="nucleotide" style="fill: lightgreen;"></circle><text text-anchor="middle" font-size="8" font-weight="bold" y="2.5" class="node-label">G</text></g><g class="noselect gnode" struct_name="m" transform="translate(31.24,220.85)" r="6.5"><circle class="node" r="6" node_type="nucleotide" style="fill: lightgreen;"></circle><text text-anchor="middle" font-size="8" font-weight="bold" y="2.5" class="node-label">G</text></g><g class="noselect gnode" struct_name="m" transform="translate(38.72,206.33)" r="6.5"><circle class="node" r="6" node_type="nucleotide" style="fill: lightgreen;"></circle><text text-anchor="middle" font-size="8" font-weight="bold" y="2.5" class="node-label">G</text></g><g class="noselect gnode" struct_name="m" transform="translate(46.46,192.13)" r="6.5"><circle class="node" r="6" node_type="nucleotide" style="fill: lightgreen;"></circle><text text-anchor="middle" font-size="8" font-weight="bold" y="2.5" class="node-label">G</text></g><g class="noselect gnode" struct_name="m" transform="translate(54.12,178.16)" r="6.5"><circle class="node" r="6" node_type="nucleotide" style="fill: lightgreen;"></circle><text text-anchor="middle" font-size="8" font-weight="bold" y="2.5" class="node-label">G</text></g><g class="noselect gnode" struct_name="m" transform="translate(61.42,164.23)" r="6.5"><circle class="node" r="6" node_type="nucleotide" style="fill: lightgreen;"></circle><text text-anchor="middle" font-size="8" font-weight="bold" y="2.5" class="node-label">U</text></g><g class="noselect gnode" struct_name="m" transform="translate(67.92,150.24)" r="6.5"><circle class="node" r="6" node_type="nucleotide" style="fill: lightgreen;"></circle><text text-anchor="middle" font-size="8" font-weight="bold" y="2.5" class="node-label">C</text></g><g class="noselect gnode" struct_name="m" transform="translate(65.81,135.25)" r="6.5"><circle class="node" r="6" node_type="nucleotide" style="fill: rgb(219, 219, 141);"></circle><text text-anchor="middle" font-size="8" font-weight="bold" y="2.5" class="node-label">G</text></g><g class="noselect gnode" struct_name="m" transform="translate(77.80,126.05)" r="6.5"><circle class="node" r="6" node_type="nucleotide" style="fill: lightgreen;"></circle><text text-anchor="middle" font-size="8" font-weight="bold" y="2.5" class="node-label">A</text></g><g class="noselect gnode" struct_name="m" transform="translate(82.90,111.47)" r="6.5"><circle class="node" r="6" node_type="nucleotide" style="fill: lightgreen;"></circle><text text-anchor="middle" font-size="8" font-weight="bold" y="2.5" class="node-label">C</text></g><g class="noselect gnode" struct_name="m" transform="translate(79.19,96.78)" r="6.5"><circle class="node" r="6" node_type="nucleotide" style="fill: rgb(219, 219, 141);"></circle><text text-anchor="middle" font-size="8" font-weight="bold" y="2.5" class="node-label">A</text></g><g class="noselect gnode" struct_name="m" transform="translate(90.20,86.25)" r="6.5"><circle class="node" r="6" node_type="nucleotide" style="fill: lightgreen;"></circle><text text-anchor="middle" font-size="8" font-weight="bold" y="2.5" class="node-label">G</text></g><g class="noselect gnode" struct_name="m" transform="translate(93.41,71.35)" r="6.5"><circle class="node" r="6" node_type="nucleotide" style="fill: lightgreen;"></circle><text text-anchor="middle" font-size="8" font-weight="bold" y="2.5" class="node-label">C</text></g><g class="noselect gnode" struct_name="m" transform="translate(90.33,56.21)" r="6.5"><circle class="node" r="6" node_type="nucleotide" style="fill: rgb(219, 219, 141);"></circle><text text-anchor="middle" font-size="8" font-weight="bold" y="2.5" class="node-label">A</text></g><g class="noselect gnode" struct_name="m" transform="translate(103.81,48.88)" r="6.5"><circle class="node" r="6" node_type="nucleotide" style="fill: lightgreen;"></circle><text text-anchor="middle" font-size="8" font-weight="bold" y="2.5" class="node-label">U</text></g><g class="noselect gnode" struct_name="m" transform="translate(113.38,36.89)" r="6.5"><circle class="node" r="6" node_type="nucleotide" style="fill: lightgreen;"></circle><text text-anchor="middle" font-size="8" font-weight="bold" y="2.5" class="node-label">C</text></g><g class="noselect gnode" struct_name="m" transform="translate(122.54,23.95)" r="6.5"><circle class="node" r="6" node_type="nucleotide" style="fill: lightgreen;"></circle><text text-anchor="middle" font-size="8" font-weight="bold" y="2.5" class="node-label">U</text></g><g class="noselect gnode" struct_name="m" transform="translate(131.57,10.76)" r="6.5"><circle class="node" r="6" node_type="nucleotide" style="fill: lightgreen;"></circle><text text-anchor="middle" font-size="8" font-weight="bold" y="2.5" class="node-label">A</text></g><g class="noselect gnode" struct_name="m" transform="translate(140.64,-2.56)" r="6.5"><circle class="node" r="6" node_type="nucleotide" style="fill: lightgreen;"></circle><text text-anchor="middle" font-size="8" font-weight="bold" y="2.5" class="node-label">U</text></g><g class="noselect gnode" struct_name="m" transform="translate(149.61,-15.97)" r="6.5"><circle class="node" r="6" node_type="nucleotide" style="fill: lightgreen;"></circle><text text-anchor="middle" font-size="8" font-weight="bold" y="2.5" class="node-label">A</text></g><g class="noselect gnode" struct_name="m" transform="translate(148.92,-31.54)" r="6.5"><circle class="node" r="6" node_type="nucleotide" style="fill: rgb(219, 219, 141);"></circle><text text-anchor="middle" font-size="8" font-weight="bold" y="2.5" class="node-label">A</text></g><g class="noselect gnode" struct_name="m" transform="translate(160.62,-41.92)" r="6.5"><circle class="node" r="6" node_type="nucleotide" style="fill: lightgreen;"></circle><text text-anchor="middle" font-size="8" font-weight="bold" y="2.5" class="node-label">C</text></g><g class="noselect gnode" struct_name="m" transform="translate(164.04,-57.66)" r="6.5"><circle class="node" r="6" node_type="nucleotide" style="fill: lightgreen;"></circle><text text-anchor="middle" font-size="8" font-weight="bold" y="2.5" class="node-label">U</text></g><g class="noselect gnode" struct_name="m" transform="translate(167.20,-73.17)" r="6.5"><circle class="node" r="6" node_type="nucleotide" style="fill: lightgreen;"></circle><text text-anchor="middle" font-size="8" font-weight="bold" y="2.5" class="node-label">G</text></g><g class="noselect gnode" struct_name="m" transform="translate(162.61,-87.84)" r="6.5"><circle class="node" r="6" node_type="nucleotide" style="fill: lightblue;"></circle><text text-anchor="middle" font-size="8" font-weight="bold" y="2.5" class="node-label">U</text></g><g class="noselect gnode" struct_name="m" transform="translate(172.76,-98.84)" r="6.5"><circle class="node" r="6" node_type="nucleotide" style="fill: lightblue;"></circle><text text-anchor="middle" font-size="8" font-weight="bold" y="2.5" class="node-label">C</text></g><g class="noselect gnode" struct_name="m" transform="translate(187.40,-95.64)" r="6.5"><circle class="node" r="6" node_type="nucleotide" style="fill: lightblue;"></circle><text text-anchor="middle" font-size="8" font-weight="bold" y="2.5" class="node-label">U</text></g><g class="noselect gnode" struct_name="m" transform="translate(192.05,-81.41)" r="6.5"><circle class="node" r="6" node_type="nucleotide" style="fill: lightblue;"></circle><text text-anchor="middle" font-size="8" font-weight="bold" y="2.5" class="node-label">U</text></g><g class="noselect gnode" struct_name="m" transform="translate(181.76,-70.01)" r="6.5"><circle class="node" r="6" node_type="nucleotide" style="fill: lightgreen;"></circle><text text-anchor="middle" font-size="8" font-weight="bold" y="2.5" class="node-label">C</text></g><g class="noselect gnode" struct_name="m" transform="translate(178.28,-54.65)" r="6.5"><circle class="node" r="6" node_type="nucleotide" style="fill: lightgreen;"></circle><text text-anchor="middle" font-size="8" font-weight="bold" y="2.5" class="node-label">A</text></g><g class="noselect gnode" struct_name="m" transform="translate(175.29,-39.18)" r="6.5"><circle class="node" r="6" node_type="nucleotide" style="fill: lightgreen;"></circle><text text-anchor="middle" font-size="8" font-weight="bold" y="2.5" class="node-label">G</text></g><g class="noselect gnode" struct_name="m" transform="translate(182.56,-25.51)" r="6.5"><circle class="node" r="6" node_type="nucleotide" style="fill: rgb(219, 219, 141);"></circle><text text-anchor="middle" font-size="8" font-weight="bold" y="2.5" class="node-label">A</text></g><g class="noselect gnode" struct_name="m" transform="translate(176.68,-11.61)" r="6.5"><circle class="node" r="6" node_type="nucleotide" style="fill: rgb(219, 219, 141);"></circle><text text-anchor="middle" font-size="8" font-weight="bold" y="2.5" class="node-label">C</text></g><g class="noselect gnode" struct_name="m" transform="translate(161.77,-7.31)" r="6.5"><circle class="node" r="6" node_type="nucleotide" style="fill: lightgreen;"></circle><text text-anchor="middle" font-size="8" font-weight="bold" y="2.5" class="node-label">U</text></g><g class="noselect gnode" struct_name="m" transform="translate(152.63,5.61)" r="6.5"><circle class="node" r="6" node_type="nucleotide" style="fill: lightgreen;"></circle><text text-anchor="middle" font-size="8" font-weight="bold" y="2.5" class="node-label">A</text></g><g class="noselect gnode" struct_name="m" transform="translate(143.62,18.95)" r="6.5"><circle class="node" r="6" node_type="nucleotide" style="fill: lightgreen;"></circle><text text-anchor="middle" font-size="8" font-weight="bold" y="2.5" class="node-label">U</text></g><g class="noselect gnode" struct_name="m" transform="translate(134.51,32.26)" r="6.5"><circle class="node" r="6" node_type="nucleotide" style="fill: lightgreen;"></circle><text text-anchor="middle" font-size="8" font-weight="bold" y="2.5" class="node-label">G</text></g><g class="noselect gnode" struct_name="m" transform="translate(125.08,45.54)" r="6.5"><circle class="node" r="6" node_type="nucleotide" style="fill: lightgreen;"></circle><text text-anchor="middle" font-size="8" font-weight="bold" y="2.5" class="node-label">G</text></g><g class="noselect gnode" struct_name="m" transform="translate(115.06,58.60)" r="6.5"><circle class="node" r="6" node_type="nucleotide" style="fill: lightgreen;"></circle><text text-anchor="middle" font-size="8" font-weight="bold" y="2.5" class="node-label">A</text></g><g class="noselect gnode" struct_name="m" transform="translate(108.02,73.73)" r="6.5"><circle class="node" r="6" node_type="nucleotide" style="fill: lightgreen;"></circle><text text-anchor="middle" font-size="8" font-weight="bold" y="2.5" class="node-label">G</text></g><g class="noselect gnode" struct_name="m" transform="translate(104.40,89.99)" r="6.5"><circle class="node" r="6" node_type="nucleotide" style="fill: lightgreen;"></circle><text text-anchor="middle" font-size="8" font-weight="bold" y="2.5" class="node-label">C</text></g><g class="noselect gnode" struct_name="m" transform="translate(108.15,105.11)" r="6.5"><circle class="node" r="6" node_type="nucleotide" style="fill: rgb(219, 219, 141);"></circle><text text-anchor="middle" font-size="8" font-weight="bold" y="2.5" class="node-label">C</text></g><g class="noselect gnode" struct_name="m" transform="translate(96.94,115.86)" r="6.5"><circle class="node" r="6" node_type="nucleotide" style="fill: lightgreen;"></circle><text text-anchor="middle" font-size="8" font-weight="bold" y="2.5" class="node-label">G</text></g><g class="noselect gnode" struct_name="m" transform="translate(91.58,131.34)" r="6.5"><circle class="node" r="6" node_type="nucleotide" style="fill: lightgreen;"></circle><text text-anchor="middle" font-size="8" font-weight="bold" y="2.5" class="node-label">U</text></g><g class="noselect gnode" struct_name="m" transform="translate(93.75,146.62)" r="6.5"><circle class="node" r="6" node_type="nucleotide" style="fill: rgb(219, 219, 141);"></circle><text text-anchor="middle" font-size="8" font-weight="bold" y="2.5" class="node-label">G</text></g><g class="noselect gnode" struct_name="m" transform="translate(81.52,156.10)" r="6.5"><circle class="node" r="6" node_type="nucleotide" style="fill: lightgreen;"></circle><text text-anchor="middle" font-size="8" font-weight="bold" y="2.5" class="node-label">G</text></g><g class="noselect gnode" struct_name="m" transform="translate(74.51,170.77)" r="6.5"><circle class="node" r="6" node_type="nucleotide" style="fill: lightgreen;"></circle><text text-anchor="middle" font-size="8" font-weight="bold" y="2.5" class="node-label">A</text></g><g class="noselect gnode" struct_name="m" transform="translate(67.00,185.10)" r="6.5"><circle class="node" r="6" node_type="nucleotide" style="fill: lightgreen;"></circle><text text-anchor="middle" font-size="8" font-weight="bold" y="2.5" class="node-label">C</text></g><g class="noselect gnode" struct_name="m" transform="translate(59.23,199.17)" r="6.5"><circle class="node" r="6" node_type="nucleotide" style="fill: lightgreen;"></circle><text text-anchor="middle" font-size="8" font-weight="bold" y="2.5" class="node-label">C</text></g><g class="noselect gnode" struct_name="m" transform="translate(51.58,213.17)" r="6.5"><circle class="node" r="6" node_type="nucleotide" style="fill: lightgreen;"></circle><text text-anchor="middle" font-size="8" font-weight="bold" y="2.5" class="node-label">C</text></g><g class="noselect gnode" struct_name="m" transform="translate(44.33,227.23)" r="6.5"><circle class="node" r="6" node_type="nucleotide" style="fill: lightgreen;"></circle><text text-anchor="middle" font-size="8" font-weight="bold" y="2.5" class="node-label">C</text></g><g class="noselect gnode" struct_name="m" transform="translate(38.10,241.29)" r="6.5"><circle class="node" r="6" node_type="nucleotide" style="fill: lightgreen;"></circle><text text-anchor="middle" font-size="8" font-weight="bold" y="2.5" class="node-label">C</text></g><g class="noselect gnode" struct_name="m" transform="translate(16.85,214.92)" r="6.5"><circle class="node label" r="6" node_type="label"></circle><text text-anchor="middle" font-size="8" font-weight="bold" y="2.5" class="node-label">10</text></g><g class="noselect gnode" struct_name="m" transform="translate(75.88,80.08)" r="6.5"><circle class="node label" r="6" node_type="label"></circle><text text-anchor="middle" font-size="8" font-weight="bold" y="2.5" class="node-label">20</text></g><g class="noselect gnode" struct_name="m" transform="translate(147.04,-49.50)" r="6.5"><circle class="node label" r="6" node_type="label"></circle><text text-anchor="middle" font-size="8" font-weight="bold" y="2.5" class="node-label">30</text></g><g class="noselect gnode" struct_name="m" transform="translate(197.48,-21.04)" r="6.5"><circle class="node label" r="6" node_type="label"></circle><text text-anchor="middle" font-size="8" font-weight="bold" y="2.5" class="node-label">40</text></g><g class="noselect gnode" struct_name="m" transform="translate(122.54,111.14)" r="6.5"><circle class="node label" r="6" node_type="label"></circle><text text-anchor="middle" font-size="8" font-weight="bold" y="2.5" class="node-label">50</text></g><g class="noselect gnode" struct_name="m" transform="translate(40.52,256.42)" r="6.5"><circle class="node label" r="6" node_type="label"></circle><text text-anchor="middle" font-size="8" font-weight="bold" y="2.5" class="node-label">60</text></g><g class="noselect gnode" transform="translate(99.34,80.34)" r="6.5"><circle class="node" r="0" node_type="middle"></circle><text text-anchor="middle" font-size="8" font-weight="bold" y="2.5" class="node-label"></text></g><g class="noselect gnode" transform="translate(114.50,47.67)" r="6.5"><circle class="node" r="0" node_type="middle"></circle><text text-anchor="middle" font-size="8" font-weight="bold" y="2.5" class="node-label"></text></g><g class="noselect gnode" transform="translate(123.96,34.72)" r="6.5"><circle class="node" r="0" node_type="middle"></circle><text text-anchor="middle" font-size="8" font-weight="bold" y="2.5" class="node-label"></text></g><g class="noselect gnode" transform="translate(133.07,21.52)" r="6.5"><circle class="node" r="0" node_type="middle"></circle><text text-anchor="middle" font-size="8" font-weight="bold" y="2.5" class="node-label"></text></g><g class="noselect gnode" transform="translate(142.10,8.22)" r="6.5"><circle class="node" r="0" node_type="middle"></circle><text text-anchor="middle" font-size="8" font-weight="bold" y="2.5" class="node-label"></text></g><g class="noselect gnode" transform="translate(151.17,-5.15)" r="6.5"><circle class="node" r="0" node_type="middle"></circle><text text-anchor="middle" font-size="8" font-weight="bold" y="2.5" class="node-label"></text></g><g class="noselect gnode" transform="translate(169.50,-48.30)" r="6.5"><circle class="node" r="0" node_type="middle"></circle><text text-anchor="middle" font-size="8" font-weight="bold" y="2.5" class="node-label"></text></g><g class="noselect gnode" transform="translate(172.83,-63.96)" r="6.5"><circle class="node" r="0" node_type="middle"></circle><text text-anchor="middle" font-size="8" font-weight="bold" y="2.5" class="node-label"></text></g><g class="noselect gnode" transform="translate(34.22,231.25)" r="6.5"><circle class="node" r="0" node_type="middle"></circle><text text-anchor="middle" font-size="8" font-weight="bold" y="2.5" class="node-label"></text></g><g class="noselect gnode" transform="translate(41.35,216.84)" r="6.5"><circle class="node" r="0" node_type="middle"></circle><text text-anchor="middle" font-size="8" font-weight="bold" y="2.5" class="node-label"></text></g><g class="noselect gnode" transform="translate(48.94,202.67)" r="6.5"><circle class="node" r="0" node_type="middle"></circle><text text-anchor="middle" font-size="8" font-weight="bold" y="2.5" class="node-label"></text></g><g class="noselect gnode" transform="translate(56.74,188.64)" r="6.5"><circle class="node" r="0" node_type="middle"></circle><text text-anchor="middle" font-size="8" font-weight="bold" y="2.5" class="node-label"></text></g><g class="noselect gnode" transform="translate(64.37,174.63)" r="6.5"><circle class="node" r="0" node_type="middle"></circle><text text-anchor="middle" font-size="8" font-weight="bold" y="2.5" class="node-label"></text></g><g class="noselect gnode" transform="translate(71.55,160.42)" r="6.5"><circle class="node" r="0" node_type="middle"></circle><text text-anchor="middle" font-size="8" font-weight="bold" y="2.5" class="node-label"></text></g><g class="noselect gnode" transform="translate(87.52,121.28)" r="6.5"><circle class="node" r="0" node_type="middle"></circle><text text-anchor="middle" font-size="8" font-weight="bold" y="2.5" class="node-label"></text></g><g class="noselect gnode" transform="translate(47.68,253.56)" r="6.5"><circle class="node" r="0" node_type="middle"></circle><text text-anchor="middle" font-size="8" font-weight="bold" y="2.5" class="node-label"></text></g><g class="noselect gnode" transform="translate(50.19,268.05)" r="6.5"><circle class="node" r="0" node_type="middle"></circle><text text-anchor="middle" font-size="8" font-weight="bold" y="2.5" class="node-label"></text></g><g class="noselect gnode" transform="translate(21.38,265.08)" r="6.5"><circle class="node" r="0" node_type="middle"></circle><text text-anchor="middle" font-size="8" font-weight="bold" y="2.5" class="node-label"></text></g><g class="noselect gnode" transform="translate(177.28,-84.45)" r="6.5"><circle class="node" r="0" node_type="middle"></circle><text text-anchor="middle" font-size="8" font-weight="bold" y="2.5" class="node-label"></text></g><g class="noselect gnode" transform="translate(102.44,61.87)" r="6.5"><circle class="node" r="0" node_type="middle"></circle><text text-anchor="middle" font-size="8" font-weight="bold" y="2.5" class="node-label"></text></g><g class="noselect gnode" transform="translate(164.95,-24.76)" r="6.5"><circle class="node" r="0" node_type="middle"></circle><text text-anchor="middle" font-size="8" font-weight="bold" y="2.5" class="node-label"></text></g><g class="noselect gnode" transform="translate(79.86,140.98)" r="6.5"><circle class="node" r="0" node_type="middle"></circle><text text-anchor="middle" font-size="8" font-weight="bold" y="2.5" class="node-label"></text></g><g class="noselect gnode" transform="translate(93.75,100.93)" r="6.5"><circle class="node" r="0" node_type="middle"></circle><text text-anchor="middle" font-size="8" font-weight="bold" y="2.5" class="node-label"></text></g></g><line class="drag_line" x1="0" y1="0" x2="0" y2="0"></line></g></g></svg>