<svg xmlns="http://www.w3.org/2000/svg" viewBox="0 0 760 640" width="760" height="640"><style>svg {
  display: block;
  min-width: 100%;
  width: 100%;
  min-height: 100%;
}

circle.node {
  stroke: #ccc;
  stroke-width: 1px;
  opacity: 1;
  fill: white;
}

circle.node.label {
    stroke: transparent;
    stroke-width: 0;
    fill: white;
}

circle.outline_node {
    stroke-width: 1px;
    fill: red;
}

circle.protein {
    fill: gray;
    fill-opacity: 0.5;
    stroke-width: 4;
}

circle.hidden_outline {
    stroke-width: 0px;
}


line.link {
  stroke: #999;
  stroke-opacity: 0.8;
  stroke-width: 2;
}

line.basepair {
  stroke: red;
}

line.intermolecule {
  stroke: blue;
}

line.chain_chain {
  stroke-dasharray: 3,3;
}

line.fake {
  stroke: green;
}

.transparent {
    fill: transparent;
    stroke-width: 0;
    stroke-opacity: 0;
    opacity: 0;
    visibility: hidden;
}

.drag_line {
  stroke: #999;
  stroke-width: 2;
  pointer-events: none;
}

.drag_line_hidden {
  stroke: #999;
  stroke-width: 0;
  pointer-events: none;
}

.d3-tip {
    line-height: 1;
    font-weight: bold;
    padding: 6px;
    background: rgba(0, 0, 0, 0.6);
    color: #fff;
    border-radius: 4px;
    pointer-events: none;
          }

text.node-label {
    font-weight: bold;
    font-family: Tahoma, Geneva, sans-serif;
    color: rgb(100,100,100);
    pointer-events: none;
}

text {
    pointer-events: none;
}

g.gnode {

}

circle.outline_node.selected {
    visibility: visible;
}

circle.outline_node {
    visibility: hidden;
}

.brush .extent {
  fill-opacity: .1;
  stroke: #fff;
  shape-rendering: crispEdges;
}

.noselect {
    -webkit-touch-callout: none;
    -webkit-user-select: none;
    -khtml-user-select: none;
    -moz-user-select: none;
    -ms-user-select: none;
    user-select: none;
}

svg {
  display: block;
  min-width: 100%;
  width: 100%;
  min-height: 100%;
}

circle.node {
  stroke: #ccc;
  stroke-width: 1px;
  opacity: 1;
  fill: white;
}

circle.node.label {
    stroke: transparent;
    stroke-width: 0;
    fill: white;
}

circle.outline_node {
    stroke-width: 1px;
    fill: red;
}

circle.protein {
    fill: gray;
    fill-opacity: 0.5;
    stroke-width: 4;
}

circle.hidden_outline {
    stroke-width: 0px;
}


line.link {
  stroke: #999;
  stroke-opacity: 0.8;
  stroke-width: 2;
}

line.basepair {
  stroke: red;
}

line.intermolecule {
  stroke: blue;
}

line.chain_chain {
  stroke-dasharray: 3,3;
}

line.fake {
  stroke: green;
}

.transparent {
    fill: transparent;
    stroke-width: 0;
    stroke-opacity: 0;
    opacity: 0;
    visibility: hidden;
}

.drag_line {
  stroke: #999;
  stroke-width: 2;
  pointer-events: none;
}

.drag_line_hidden {
  stroke: #999;
  stroke-width: 0;
  pointer-events: none;
}

.d3-tip {
    line-height: 1;
    font-weight: bold;
    padding: 6px;
    background: rgba(0, 0, 0, 0.6);
    color: #fff;
    border-radius: 4px;
    pointer-events: none;
          }

text.node-label {
    font-weight: bold;
    font-family: Tahoma, Geneva, sans-serif;
    color: rgb(100,100,100);
    pointer-events: none;
}

text {
    pointer-events: none;
}

g.gnode {

}

circle.outline_node.selected {
    visibility: visible;
}

circle.outline_node {
    visibility: hidden;
}

.brush .extent {
  fill-opacity: .1;
  stroke: #fff;
  shape-rendering: crispEdges;
}

.noselect {
    -webkit-touch-callout: none;
    -webkit-user-select: none;
    -khtml-user-select: none;
    -moz-user-select: none;
    -ms-user-select: none;
    user-select: none;
}
/*# sourceURL=/Users/yumanakamura/ipy_sandbox/sandbox/claude_sandbox/mrna-transformer-worktrees/feat-issue57-switch-derna-knotty/scripts/eval/prerender/forna_vendor/fornac.css*/</style><style></style><g><g class="brush" style="pointer-events: all; -webkit-tap-highlight-color: rgba(0, 0, 0, 0);"><rect class="background" x="0" width="760" y="0" height="640" style="visibility: hidden; cursor: auto;"></rect><rect class="extent" x="0" width="0" y="0" height="0" style="cursor: move;"></rect><g class="resize n" transform="translate(0,0)" style="cursor: ns-resize; display: none;"><rect y="-3" width="0" height="6" style="visibility: hidden;"></rect></g><g class="resize e" transform="translate(0,0)" style="cursor: ew-resize; display: none;"><rect x="-3" width="6" height="0" style="visibility: hidden;"></rect></g><g class="resize s" transform="translate(0,0)" style="cursor: ns-resize; display: none;"><rect y="-3" width="0" height="6" style="visibility: hidden;"></rect></g><g class="resize w" transform="translate(0,0)" style="cursor: ew-resize; display: none;"><rect x="-3" width="6" height="0" style="visibility: hidden;"></rect></g><g class="resize nw" transform="translate(0,0)" style="cursor: nwse-resize; display: none;"><rect x="-3" y="-3" width="6" height="6" style="visibility: hidden;"></rect></g><g class="resize ne" transform="translate(0,0)" style="cursor: nesw-resize; display: none;"><rect x="-3" y="-3" width="6" height="6" style="visibility: hidden;"></rect></g><g class="resize se" transform="translate(0,0)" style="cursor: nwse-resize; display: none;"><rect x="-3" y="-3" width="6" height="6" style="visibility: hidden;"></rect></g><g class="resize sw" transform="translate(0,0)" style="cursor: nesw-resize; display: none;"><rect x="-3" y="-3" width="6" height="6" style="visibility: hidden;"></rect></g></g><g transform="translate(76.97,141.01) scale(1.94)"><g><line class="link backbone" x1="102.18" y1="193.49" x2="89.95" y2="184.70"></line><line class="link basepair" x1="82.64" y1="171.35" x2="80.73" y2="156.53"></line><line class="link backbone" x1="89.95" y1="184.70" x2="82.64" y2="171.35"></line><line class="link basepair" x1="68.01" y1="174.25" x2="64.17" y2="160.28"></line><line class="link backbone" x1="82.64" y1="171.35" x2="68.01" y2="174.25"></line><line class="link basepair" x1="53.52" y1="179.21" x2="48.19" y2="165.67"></line><line class="link backbone" x1="68.01" y1="174.25" x2="53.52" y2="179.21"></line><line class="link basepair" x1="39.65" y1="185.60" x2="33.11" y2="172.17"></line><line class="link backbone" x1="53.52" y1="179.21" x2="39.65" y2="185.60"></line><line class="link backbone" x1="39.65" y1="185.60" x2="37.27" y2="200.66"></line><line class="link backbone" x1="37.27" y1="200.66" x2="26.87" y2="211.47"></line><line class="link backbone" x1="26.87" y1="211.47" x2="12.07" y2="213.92"></line><line class="link backbone" x1="12.07" y1="213.92" x2="-1.18" y2="206.97"></line><line class="link backbone" x1="-1.18" y1="206.97" x2="-8.32" y2="193.83"></line><line class="link backbone" x1="-8.32" y1="193.83" x2="-6.27" y2="178.90"></line><line class="link backbone" x1="-6.27" y1="178.90" x2="4.45" y2="168.24"></line><line class="link backbone" x1="4.45" y1="168.24" x2="19.14" y2="165.71"></line><line class="link basepair" x1="33.11" y1="172.17" x2="39.65" y2="185.60"></line><line class="link backbone" x1="19.14" y1="165.71" x2="33.11" y2="172.17"></line><line class="link basepair" x1="48.19" y1="165.67" x2="53.52" y2="179.21"></line><line class="link backbone" x1="33.11" y1="172.17" x2="48.19" y2="165.67"></line><line class="link basepair" x1="64.17" y1="160.28" x2="68.01" y2="174.25"></line><line class="link backbone" x1="48.19" y1="165.67" x2="64.17" y2="160.28"></line><line class="link basepair" x1="80.73" y1="156.53" x2="82.64" y2="171.35"></line><line class="link backbone" x1="64.17" y1="160.28" x2="80.73" y2="156.53"></line><line class="link backbone" x1="80.73" y1="156.53" x2="86.60" y2="141.95"></line><line class="link backbone" x1="86.60" y1="141.95" x2="97.35" y2="131.03"></line><line class="link backbone" x1="97.35" y1="131.03" x2="111.39" y2="125.23"></line><line class="link basepair" x1="127.12" y1="124.87" x2="139.81" y2="132.75"></line><line class="link backbone" x1="111.39" y1="125.23" x2="127.12" y2="124.87"></line><line class="link basepair" x1="138.25" y1="111.20" x2="148.39" y2="121.46"></line><line class="link backbone" x1="127.12" y1="124.87" x2="138.25" y2="111.20"></line><line class="link basepair" x1="152.55" y1="100.18" x2="159.59" y2="113.14"></line><line class="link backbone" x1="138.25" y1="111.20" x2="152.55" y2="100.18"></line><line class="link basepair" x1="165.74" y1="88.60" x2="177.78" y2="97.14"></line><line class="link backbone" x1="152.55" y1="100.18" x2="165.74" y2="88.60"></line><line class="link basepair" x1="178.03" y1="75.74" x2="187.45" y2="86.77"></line><line class="link backbone" x1="165.74" y1="88.60" x2="178.03" y2="75.74"></line><line class="link basepair" x1="192.21" y1="65.81" x2="199.60" y2="78.36"></line><line class="link backbone" x1="178.03" y1="75.74" x2="192.21" y2="65.81"></line><line class="link basepair" x1="207.18" y1="58.14" x2="213.05" y2="71.80"></line><line class="link backbone" x1="192.21" y1="65.81" x2="207.18" y2="58.14"></line><line class="link basepair" x1="220.04" y1="47.70" x2="232.31" y2="56.09"></line><line class="link backbone" x1="207.18" y1="58.14" x2="220.04" y2="47.70"></line><line class="link basepair" x1="229.53" y1="34.71" x2="241.35" y2="43.22"></line><line class="link backbone" x1="220.04" y1="47.70" x2="229.53" y2="34.71"></line><line class="link basepair" x1="238.82" y1="21.70" x2="250.75" y2="30.04"></line><line class="link backbone" x1="229.53" y1="34.71" x2="238.82" y2="21.70"></line><line class="link basepair" x1="247.72" y1="8.59" x2="259.90" y2="16.56"></line><line class="link backbone" x1="238.82" y1="21.70" x2="247.72" y2="8.59"></line><line class="link basepair" x1="255.80" y1="-4.65" x2="268.69" y2="2.86"></line><line class="link backbone" x1="247.72" y1="8.59" x2="255.80" y2="-4.65"></line><line class="link backbone" x1="255.80" y1="-4.65" x2="258.58" y2="-19.85"></line><line class="link basepair" x1="273.92" y1="-21.68" x2="280.60" y2="-8.33"></line><line class="link backbone" x1="258.58" y1="-19.85" x2="273.92" y2="-21.68"></line><line class="link basepair" x1="287.45" y1="-28.89" x2="294.64" y2="-15.87"></line><line class="link backbone" x1="273.92" y1="-21.68" x2="287.45" y2="-28.89"></line><line class="link backbone" x1="287.45" y1="-28.89" x2="295.31" y2="-42.05"></line><line class="link backbone" x1="295.31" y1="-42.05" x2="310.26" y2="-41.77"></line><line class="link backbone" x1="310.26" y1="-41.77" x2="317.62" y2="-28.72"></line><line class="link backbone" x1="317.62" y1="-28.72" x2="310.07" y2="-15.77"></line><line class="link basepair" x1="294.64" y1="-15.87" x2="287.45" y2="-28.89"></line><line class="link backbone" x1="310.07" y1="-15.77" x2="294.64" y2="-15.87"></line><line class="link basepair" x1="280.60" y1="-8.33" x2="273.92" y2="-21.68"></line><line class="link backbone" x1="294.64" y1="-15.87" x2="280.60" y2="-8.33"></line><line class="link basepair" x1="268.69" y1="2.86" x2="255.80" y2="-4.65"></line><line class="link backbone" x1="280.60" y1="-8.33" x2="268.69" y2="2.86"></line><line class="link basepair" x1="259.90" y1="16.56" x2="247.72" y2="8.59"></line><line class="link backbone" x1="268.69" y1="2.86" x2="259.90" y2="16.56"></line><line class="link basepair" x1="250.75" y1="30.04" x2="238.82" y2="21.70"></line><line class="link backbone" x1="259.90" y1="16.56" x2="250.75" y2="30.04"></line><line class="link basepair" x1="241.35" y1="43.22" x2="229.53" y2="34.71"></line><line class="link backbone" x1="250.75" y1="30.04" x2="241.35" y2="43.22"></line><line class="link basepair" x1="232.31" y1="56.09" x2="220.04" y2="47.70"></line><line class="link backbone" x1="241.35" y1="43.22" x2="232.31" y2="56.09"></line><line class="link backbone" x1="232.31" y1="56.09" x2="228.51" y2="71.04"></line><line class="link basepair" x1="213.05" y1="71.80" x2="207.18" y2="58.14"></line><line class="link backbone" x1="228.51" y1="71.04" x2="213.05" y2="71.80"></line><line class="link basepair" x1="199.60" y1="78.36" x2="192.21" y2="65.81"></line><line class="link backbone" x1="213.05" y1="71.80" x2="199.60" y2="78.36"></line><line class="link basepair" x1="187.45" y1="86.77" x2="178.03" y2="75.74"></line><line class="link backbone" x1="199.60" y1="78.36" x2="187.45" y2="86.77"></line><line class="link basepair" x1="177.78" y1="97.14" x2="165.74" y2="88.60"></line><line class="link backbone" x1="187.45" y1="86.77" x2="177.78" y2="97.14"></line><line class="link backbone" x1="177.78" y1="97.14" x2="174.58" y2="111.84"></line><line class="link basepair" x1="159.59" y1="113.14" x2="152.55" y2="100.18"></line><line class="link backbone" x1="174.58" y1="111.84" x2="159.59" y2="113.14"></line><line class="link basepair" x1="148.39" y1="121.46" x2="138.25" y2="111.20"></line><line class="link backbone" x1="159.59" y1="113.14" x2="148.39" y2="121.46"></line><line class="link basepair" x1="139.81" y1="132.75" x2="127.12" y2="124.87"></line><line class="link backbone" x1="148.39" y1="121.46" x2="139.81" y2="132.75"></line><line class="link backbone" x1="139.81" y1="132.75" x2="149.52" y2="144.49"></line><line class="link backbone" x1="149.52" y1="144.49" x2="153.38" y2="159.04"></line><line class="link backbone" x1="153.38" y1="159.04" x2="151.21" y2="173.96"></line><line class="link backbone" x1="151.21" y1="173.96" x2="143.38" y2="186.58"></line><line class="link label_link" x1="-1.18" y1="206.97" x2="-8.82" y2="220.37"></line><line class="link label_link" x1="97.35" y1="131.03" x2="92.61" y2="116.24"></line><line class="link label_link" x1="229.53" y1="34.71" x2="216.72" y2="25.84"></line><line class="link label_link" x1="310.07" y1="-15.77" x2="324.30" y2="-9.64"></line><line class="link label_link" x1="199.60" y1="78.36" x2="208.73" y2="90.99"></line><line class="link label_link" x1="143.38" y1="186.58" x2="139.38" y2="172.21"></line><line class="link fake transparent" x1="220.04" y1="47.70" x2="230.73" y2="45.48"></line><line class="link fake transparent" x1="220.04" y1="47.70" x2="241.35" y2="43.22"></line><line class="link fake transparent" x1="229.53" y1="34.71" x2="230.73" y2="45.48"></line><line class="link fake transparent" x1="241.35" y1="43.22" x2="230.73" y2="45.48"></line><line class="link fake transparent" x1="232.31" y1="56.09" x2="230.73" y2="45.48"></line><line class="link fake transparent" x1="229.53" y1="34.71" x2="240.18" y2="32.47"></line><line class="link fake transparent" x1="238.82" y1="21.70" x2="240.18" y2="32.47"></line><line class="link fake transparent" x1="250.75" y1="30.04" x2="240.18" y2="32.47"></line><line class="link fake transparent" x1="241.35" y1="43.22" x2="240.18" y2="32.47"></line><line class="link fake transparent" x1="238.82" y1="21.70" x2="249.39" y2="19.30"></line><line class="link fake transparent" x1="247.72" y1="8.59" x2="249.39" y2="19.30"></line><line class="link fake transparent" x1="259.90" y1="16.56" x2="249.39" y2="19.30"></line><line class="link fake transparent" x1="250.75" y1="30.04" x2="249.39" y2="19.30"></line><line class="link fake transparent" x1="247.72" y1="8.59" x2="258.20" y2="5.87"></line><line class="link fake transparent" x1="255.80" y1="-4.65" x2="258.20" y2="5.87"></line><line class="link fake transparent" x1="268.69" y1="2.86" x2="258.20" y2="5.87"></line><line class="link fake transparent" x1="259.90" y1="16.56" x2="258.20" y2="5.87"></line><line class="link fake transparent" x1="273.92" y1="-21.68" x2="284.18" y2="-18.58"></line><line class="link fake transparent" x1="287.45" y1="-28.89" x2="284.18" y2="-18.58"></line><line class="link fake transparent" x1="294.64" y1="-15.87" x2="284.18" y2="-18.58"></line><line class="link fake transparent" x1="280.60" y1="-8.33" x2="284.18" y2="-18.58"></line><line class="link fake transparent" x1="127.12" y1="124.87" x2="137.60" y2="122.15"></line><line class="link fake transparent" x1="138.25" y1="111.20" x2="137.60" y2="122.15"></line><line class="link fake transparent" x1="148.39" y1="121.46" x2="137.60" y2="122.15"></line><line class="link fake transparent" x1="139.81" y1="132.75" x2="137.60" y2="122.15"></line><line class="link fake transparent" x1="138.25" y1="111.20" x2="149.06" y2="110.63"></line><line class="link fake transparent" x1="152.55" y1="100.18" x2="149.06" y2="110.63"></line><line class="link fake transparent" x1="159.59" y1="113.14" x2="149.06" y2="110.63"></line><line class="link fake transparent" x1="148.39" y1="121.46" x2="149.06" y2="110.63"></line><line class="link fake transparent" x1="82.64" y1="171.35" x2="73.93" y2="165.10"></line><line class="link fake transparent" x1="68.01" y1="174.25" x2="73.93" y2="165.10"></line><line class="link fake transparent" x1="64.17" y1="160.28" x2="73.93" y2="165.10"></line><line class="link fake transparent" x1="80.73" y1="156.53" x2="73.93" y2="165.10"></line><line class="link fake transparent" x1="68.01" y1="174.25" x2="58.32" y2="169.45"></line><line class="link fake transparent" x1="53.52" y1="179.21" x2="58.32" y2="169.45"></line><line class="link fake transparent" x1="48.19" y1="165.67" x2="58.32" y2="169.45"></line><line class="link fake transparent" x1="64.17" y1="160.28" x2="58.32" y2="169.45"></line><line class="link fake transparent" x1="53.52" y1="179.21" x2="43.41" y2="175.40"></line><line class="link fake transparent" x1="39.65" y1="185.60" x2="43.41" y2="175.40"></line><line class="link fake transparent" x1="33.11" y1="172.17" x2="43.41" y2="175.40"></line><line class="link fake transparent" x1="48.19" y1="165.67" x2="43.41" y2="175.40"></line><line class="link fake transparent" x1="165.74" y1="88.60" x2="176.54" y2="86.45"></line><line class="link fake transparent" x1="178.03" y1="75.74" x2="176.54" y2="86.45"></line><line class="link fake transparent" x1="187.45" y1="86.77" x2="176.54" y2="86.45"></line><line class="link fake transparent" x1="177.78" y1="97.14" x2="176.54" y2="86.45"></line><line class="link fake transparent" x1="178.03" y1="75.74" x2="188.91" y2="76.12"></line><line class="link fake transparent" x1="192.21" y1="65.81" x2="188.91" y2="76.12"></line><line class="link fake transparent" x1="199.60" y1="78.36" x2="188.91" y2="76.12"></line><line class="link fake transparent" x1="187.45" y1="86.77" x2="188.91" y2="76.12"></line><line class="link fake transparent" x1="192.21" y1="65.81" x2="202.85" y2="68.07"></line><line class="link fake transparent" x1="207.18" y1="58.14" x2="202.85" y2="68.07"></line><line class="link fake transparent" x1="213.05" y1="71.80" x2="202.85" y2="68.07"></line><line class="link fake transparent" x1="199.60" y1="78.36" x2="202.85" y2="68.07"></line><line class="link fake transparent" x1="102.18" y1="193.49" x2="117.27" y2="160.61"></line><line class="link fake transparent" x1="102.18" y1="193.49" x2="127.12" y2="124.87"></line><line class="link fake transparent" x1="89.95" y1="184.70" x2="117.27" y2="160.61"></line><line class="link fake transparent" x1="89.95" y1="184.70" x2="139.81" y2="132.75"></line><line class="link fake transparent" x1="82.64" y1="171.35" x2="117.27" y2="160.61"></line><line class="link fake transparent" x1="82.64" y1="171.35" x2="149.52" y2="144.49"></line><line class="link fake transparent" x1="80.73" y1="156.53" x2="117.27" y2="160.61"></line><line class="link fake transparent" x1="80.73" y1="156.53" x2="153.38" y2="159.04"></line><line class="link fake transparent" x1="86.60" y1="141.95" x2="117.27" y2="160.61"></line><line class="link fake transparent" x1="86.60" y1="141.95" x2="151.21" y2="173.96"></line><line class="link fake transparent" x1="97.35" y1="131.03" x2="117.27" y2="160.61"></line><line class="link fake transparent" x1="97.35" y1="131.03" x2="143.38" y2="186.58"></line><line class="link fake transparent" x1="111.39" y1="125.23" x2="117.27" y2="160.61"></line><line class="link fake transparent" x1="111.39" y1="125.23" x2="131.22" y2="195.25"></line><line class="link fake transparent" x1="127.12" y1="124.87" x2="117.27" y2="160.61"></line><line class="link fake transparent" x1="127.12" y1="124.87" x2="116.14" y2="196.71"></line><line class="link fake transparent" x1="139.81" y1="132.75" x2="117.27" y2="160.61"></line><line class="link fake transparent" x1="139.81" y1="132.75" x2="102.18" y2="193.49"></line><line class="link fake transparent" x1="149.52" y1="144.49" x2="117.27" y2="160.61"></line><line class="link fake transparent" x1="149.52" y1="144.49" x2="89.95" y2="184.70"></line><line class="link fake transparent" x1="153.38" y1="159.04" x2="117.27" y2="160.61"></line><line class="link fake transparent" x1="153.38" y1="159.04" x2="82.64" y2="171.35"></line><line class="link fake transparent" x1="151.21" y1="173.96" x2="117.27" y2="160.61"></line><line class="link fake transparent" x1="151.21" y1="173.96" x2="80.73" y2="156.53"></line><line class="link fake transparent" x1="143.38" y1="186.58" x2="117.27" y2="160.61"></line><line class="link fake transparent" x1="143.38" y1="186.58" x2="86.60" y2="141.95"></line><line class="link fake transparent" x1="287.45" y1="-28.89" x2="302.52" y2="-28.82"></line><line class="link fake transparent" x1="287.45" y1="-28.89" x2="317.62" y2="-28.72"></line><line class="link fake transparent" x1="295.31" y1="-42.05" x2="302.52" y2="-28.82"></line><line class="link fake transparent" x1="295.31" y1="-42.05" x2="310.07" y2="-15.77"></line><line class="link fake transparent" x1="310.26" y1="-41.77" x2="302.52" y2="-28.82"></line><line class="link fake transparent" x1="310.26" y1="-41.77" x2="294.64" y2="-15.87"></line><line class="link fake transparent" x1="317.62" y1="-28.72" x2="302.52" y2="-28.82"></line><line class="link fake transparent" x1="317.62" y1="-28.72" x2="287.45" y2="-28.89"></line><line class="link fake transparent" x1="310.07" y1="-15.77" x2="302.52" y2="-28.82"></line><line class="link fake transparent" x1="310.07" y1="-15.77" x2="295.31" y2="-42.05"></line><line class="link fake transparent" x1="294.64" y1="-15.87" x2="302.52" y2="-28.82"></line><line class="link fake transparent" x1="294.64" y1="-15.87" x2="310.26" y2="-41.77"></line><line class="link fake transparent" x1="39.65" y1="185.60" x2="15.72" y2="189.67"></line><line class="link fake transparent" x1="39.65" y1="185.60" x2="-8.32" y2="193.83"></line><line class="link fake transparent" x1="37.27" y1="200.66" x2="15.72" y2="189.67"></line><line class="link fake transparent" x1="37.27" y1="200.66" x2="-6.27" y2="178.90"></line><line class="link fake transparent" x1="26.87" y1="211.47" x2="15.72" y2="189.67"></line><line class="link fake transparent" x1="26.87" y1="211.47" x2="4.45" y2="168.24"></line><line class="link fake transparent" x1="12.07" y1="213.92" x2="15.72" y2="189.67"></line><line class="link fake transparent" x1="12.07" y1="213.92" x2="19.14" y2="165.71"></line><line class="link fake transparent" x1="-1.18" y1="206.97" x2="15.72" y2="189.67"></line><line class="link fake transparent" x1="-1.18" y1="206.97" x2="33.11" y2="172.17"></line><line class="link fake transparent" x1="-8.32" y1="193.83" x2="15.72" y2="189.67"></line><line class="link fake transparent" x1="-8.32" y1="193.83" x2="39.65" y2="185.60"></line><line class="link fake transparent" x1="-6.27" y1="178.90" x2="15.72" y2="189.67"></line><line class="link fake transparent" x1="-6.27" y1="178.90" x2="37.27" y2="200.66"></line><line class="link fake transparent" x1="4.45" y1="168.24" x2="15.72" y2="189.67"></line><line class="link fake transparent" x1="4.45" y1="168.24" x2="26.87" y2="211.47"></line><line class="link fake transparent" x1="19.14" y1="165.71" x2="15.72" y2="189.67"></line><line class="link fake transparent" x1="19.14" y1="165.71" x2="12.07" y2="213.92"></line><line class="link fake transparent" x1="33.11" y1="172.17" x2="15.72" y2="189.67"></line><line class="link fake transparent" x1="33.11" y1="172.17" x2="-1.18" y2="206.97"></line><line class="link fake transparent" x1="255.80" y1="-4.65" x2="267.66" y2="-10.16"></line><line class="link fake transparent" x1="255.80" y1="-4.65" x2="273.92" y2="-21.68"></line><line class="link fake transparent" x1="258.58" y1="-19.85" x2="267.66" y2="-10.16"></line><line class="link fake transparent" x1="258.58" y1="-19.85" x2="280.60" y2="-8.33"></line><line class="link fake transparent" x1="273.92" y1="-21.68" x2="267.66" y2="-10.16"></line><line class="link fake transparent" x1="273.92" y1="-21.68" x2="268.69" y2="2.86"></line><line class="link fake transparent" x1="280.60" y1="-8.33" x2="267.66" y2="-10.16"></line><line class="link fake transparent" x1="280.60" y1="-8.33" x2="255.80" y2="-4.65"></line><line class="link fake transparent" x1="268.69" y1="2.86" x2="267.66" y2="-10.16"></line><line class="link fake transparent" x1="268.69" y1="2.86" x2="258.58" y2="-19.85"></line><line class="link fake transparent" x1="152.55" y1="100.18" x2="165.56" y2="101.67"></line><line class="link fake transparent" x1="152.55" y1="100.18" x2="177.78" y2="97.14"></line><line class="link fake transparent" x1="165.74" y1="88.60" x2="165.56" y2="101.67"></line><line class="link fake transparent" x1="165.74" y1="88.60" x2="174.58" y2="111.84"></line><line class="link fake transparent" x1="177.78" y1="97.14" x2="165.56" y2="101.67"></line><line class="link fake transparent" x1="177.78" y1="97.14" x2="159.59" y2="113.14"></line><line class="link fake transparent" x1="174.58" y1="111.84" x2="165.56" y2="101.67"></line><line class="link fake transparent" x1="174.58" y1="111.84" x2="152.55" y2="100.18"></line><line class="link fake transparent" x1="159.59" y1="113.14" x2="165.56" y2="101.67"></line><line class="link fake transparent" x1="159.59" y1="113.14" x2="165.74" y2="88.60"></line><line class="link fake transparent" x1="207.18" y1="58.14" x2="220.06" y2="60.77"></line><line class="link fake transparent" x1="207.18" y1="58.14" x2="232.31" y2="56.09"></line><line class="link fake transparent" x1="220.04" y1="47.70" x2="220.06" y2="60.77"></line><line class="link fake transparent" x1="220.04" y1="47.70" x2="228.51" y2="71.04"></line><line class="link fake transparent" x1="232.31" y1="56.09" x2="220.06" y2="60.77"></line><line class="link fake transparent" x1="232.31" y1="56.09" x2="213.05" y2="71.80"></line><line class="link fake transparent" x1="228.51" y1="71.04" x2="220.06" y2="60.77"></line><line class="link fake transparent" x1="228.51" y1="71.04" x2="207.18" y2="58.14"></line><line class="link fake transparent" x1="213.05" y1="71.80" x2="220.06" y2="60.77"></line><line class="link fake transparent" x1="213.05" y1="71.80" x2="220.04" y2="47.70"></line></g><g><g class="noselect gnode" struct_name="m" transform="translate(102.18,193.49)" r="6.5"><circle class="node" r="6" node_type="nucleotide" style="fill: lightsalmon;"></circle><text text-anchor="middle" font-size="8" font-weight="bold" y="2.5" class="node-label">A</text></g><g class="noselect gnode" struct_name="m" transform="translate(89.95,184.70)" r="6.5"><circle class="node" r="6" node_type="nucleotide" style="fill: lightsalmon;"></circle><text text-anchor="middle" font-size="8" font-weight="bold" y="2.5" class="node-label">U</text></g><g class="noselect gnode" struct_name="m" transform="translate(82.64,171.35)" r="6.5"><circle class="node" r="6" node_type="nucleotide" style="fill: lightgreen;"></circle><text text-anchor="middle" font-size="8" font-weight="bold" y="2.5" class="node-label">A</text></g><g class="noselect gnode" struct_name="m" transform="translate(68.01,174.25)" r="6.5"><circle class="node" r="6" node_type="nucleotide" style="fill: lightgreen;"></circle><text text-anchor="middle" font-size="8" font-weight="bold" y="2.5" class="node-label">U</text></g><g class="noselect gnode" struct_name="m" transform="translate(53.52,179.21)" r="6.5"><circle class="node" r="6" node_type="nucleotide" style="fill: lightgreen;"></circle><text text-anchor="middle" font-size="8" font-weight="bold" y="2.5" class="node-label">G</text></g><g class="noselect gnode" struct_name="m" transform="translate(39.65,185.60)" r="6.5"><circle class="node" r="6" node_type="nucleotide" style="fill: lightgreen;"></circle><text text-anchor="middle" font-size="8" font-weight="bold" y="2.5" class="node-label">C</text></g><g class="noselect gnode" struct_name="m" transform="translate(37.27,200.66)" r="6.5"><circle class="node" r="6" node_type="nucleotide" style="fill: lightblue;"></circle><text text-anchor="middle" font-size="8" font-weight="bold" y="2.5" class="node-label">U</text></g><g class="noselect gnode" struct_name="m" transform="translate(26.87,211.47)" r="6.5"><circle class="node" r="6" node_type="nucleotide" style="fill: lightblue;"></circle><text text-anchor="middle" font-size="8" font-weight="bold" y="2.5" class="node-label">U</text></g><g class="noselect gnode" struct_name="m" transform="translate(12.07,213.92)" r="6.5"><circle class="node" r="6" node_type="nucleotide" style="fill: lightblue;"></circle><text text-anchor="middle" font-size="8" font-weight="bold" y="2.5" class="node-label">U</text></g><g class="noselect gnode" struct_name="m" transform="translate(-1.18,206.97)" r="6.5"><circle class="node" r="6" node_type="nucleotide" style="fill: lightblue;"></circle><text text-anchor="middle" font-size="8" font-weight="bold" y="2.5" class="node-label">C</text></g><g class="noselect gnode" struct_name="m" transform="translate(-8.32,193.83)" r="6.5"><circle class="node" r="6" node_type="nucleotide" style="fill: lightblue;"></circle><text text-anchor="middle" font-size="8" font-weight="bold" y="2.5" class="node-label">U</text></g><g class="noselect gnode" struct_name="m" transform="translate(-6.27,178.90)" r="6.5"><circle class="node" r="6" node_type="nucleotide" style="fill: lightblue;"></circle><text text-anchor="middle" font-size="8" font-weight="bold" y="2.5" class="node-label">U</text></g><g class="noselect gnode" struct_name="m" transform="translate(4.45,168.24)" r="6.5"><circle class="node" r="6" node_type="nucleotide" style="fill: lightblue;"></circle><text text-anchor="middle" font-size="8" font-weight="bold" y="2.5" class="node-label">A</text></g><g class="noselect gnode" struct_name="m" transform="translate(19.14,165.71)" r="6.5"><circle class="node" r="6" node_type="nucleotide" style="fill: lightblue;"></circle><text text-anchor="middle" font-size="8" font-weight="bold" y="2.5" class="node-label">C</text></g><g class="noselect gnode" struct_name="m" transform="translate(33.11,172.17)" r="6.5"><circle class="node" r="6" node_type="nucleotide" style="fill: lightgreen;"></circle><text text-anchor="middle" font-size="8" font-weight="bold" y="2.5" class="node-label">G</text></g><g class="noselect gnode" struct_name="m" transform="translate(48.19,165.67)" r="6.5"><circle class="node" r="6" node_type="nucleotide" style="fill: lightgreen;"></circle><text text-anchor="middle" font-size="8" font-weight="bold" y="2.5" class="node-label">C</text></g><g class="noselect gnode" struct_name="m" transform="translate(64.17,160.28)" r="6.5"><circle class="node" r="6" node_type="nucleotide" style="fill: lightgreen;"></circle><text text-anchor="middle" font-size="8" font-weight="bold" y="2.5" class="node-label">A</text></g><g class="noselect gnode" struct_name="m" transform="translate(80.73,156.53)" r="6.5"><circle class="node" r="6" node_type="nucleotide" style="fill: lightgreen;"></circle><text text-anchor="middle" font-size="8" font-weight="bold" y="2.5" class="node-label">U</text></g><g class="noselect gnode" struct_name="m" transform="translate(86.60,141.95)" r="6.5"><circle class="node" r="6" node_type="nucleotide" style="fill: lightsalmon;"></circle><text text-anchor="middle" font-size="8" font-weight="bold" y="2.5" class="node-label">U</text></g><g class="noselect gnode" struct_name="m" transform="translate(97.35,131.03)" r="6.5"><circle class="node" r="6" node_type="nucleotide" style="fill: lightsalmon;"></circle><text text-anchor="middle" font-size="8" font-weight="bold" y="2.5" class="node-label">U</text></g><g class="noselect gnode" struct_name="m" transform="translate(111.39,125.23)" r="6.5"><circle class="node" r="6" node_type="nucleotide" style="fill: lightsalmon;"></circle><text text-anchor="middle" font-size="8" font-weight="bold" y="2.5" class="node-label">U</text></g><g class="noselect gnode" struct_name="m" transform="translate(127.12,124.87)" r="6.5"><circle class="node" r="6" node_type="nucleotide" style="fill: lightgreen;"></circle><text text-anchor="middle" font-size="8" font-weight="bold" y="2.5" class="node-label">U</text></g><g class="noselect gnode" struct_name="m" transform="translate(138.25,111.20)" r="6.5"><circle class="node" r="6" node_type="nucleotide" style="fill: lightgreen;"></circle><text text-anchor="middle" font-size="8" font-weight="bold" y="2.5" class="node-label">U</text></g><g class="noselect gnode" struct_name="m" transform="translate(152.55,100.18)" r="6.5"><circle class="node" r="6" node_type="nucleotide" style="fill: lightgreen;"></circle><text text-anchor="middle" font-size="8" font-weight="bold" y="2.5" class="node-label">C</text></g><g class="noselect gnode" struct_name="m" transform="translate(165.74,88.60)" r="6.5"><circle class="node" r="6" node_type="nucleotide" style="fill: lightgreen;"></circle><text text-anchor="middle" font-size="8" font-weight="bold" y="2.5" class="node-label">C</text></g><g class="noselect gnode" struct_name="m" transform="translate(178.03,75.74)" r="6.5"><circle class="node" r="6" node_type="nucleotide" style="fill: lightgreen;"></circle><text text-anchor="middle" font-size="8" font-weight="bold" y="2.5" class="node-label">C</text></g><g class="noselect gnode" struct_name="m" transform="translate(192.21,65.81)" r="6.5"><circle class="node" r="6" node_type="nucleotide" style="fill: lightgreen;"></circle><text text-anchor="middle" font-size="8" font-weight="bold" y="2.5" class="node-label">G</text></g><g class="noselect gnode" struct_name="m" transform="translate(207.18,58.14)" r="6.5"><circle class="node" r="6" node_type="nucleotide" style="fill: lightgreen;"></circle><text text-anchor="middle" font-size="8" font-weight="bold" y="2.5" class="node-label">C</text></g><g class="noselect gnode" struct_name="m" transform="translate(220.04,47.70)" r="6.5"><circle class="node" r="6" node_type="nucleotide" style="fill: lightgreen;"></circle><text text-anchor="middle" font-size="8" font-weight="bold" y="2.5" class="node-label">U</text></g><g class="noselect gnode" struct_name="m" transform="translate(229.53,34.71)" r="6.5"><circle class="node" r="6" node_type="nucleotide" style="fill: lightgreen;"></circle><text text-anchor="middle" font-size="8" font-weight="bold" y="2.5" class="node-label">C</text></g><g class="noselect gnode" struct_name="m" transform="translate(238.82,21.70)" r="6.5"><circle class="node" r="6" node_type="nucleotide" style="fill: lightgreen;"></circle><text text-anchor="middle" font-size="8" font-weight="bold" y="2.5" class="node-label">A</text></g><g class="noselect gnode" struct_name="m" transform="translate(247.72,8.59)" r="6.5"><circle class="node" r="6" node_type="nucleotide" style="fill: lightgreen;"></circle><text text-anchor="middle" font-size="8" font-weight="bold" y="2.5" class="node-label">A</text></g><g class="noselect gnode" struct_name="m" transform="translate(255.80,-4.65)" r="6.5"><circle class="node" r="6" node_type="nucleotide" style="fill: lightgreen;"></circle><text text-anchor="middle" font-size="8" font-weight="bold" y="2.5" class="node-label">G</text></g><g class="noselect gnode" struct_name="m" transform="translate(258.58,-19.85)" r="6.5"><circle class="node" r="6" node_type="nucleotide" style="fill: rgb(219, 219, 141);"></circle><text text-anchor="middle" font-size="8" font-weight="bold" y="2.5" class="node-label">C</text></g><g class="noselect gnode" struct_name="m" transform="translate(273.92,-21.68)" r="6.5"><circle class="node" r="6" node_type="nucleotide" style="fill: lightgreen;"></circle><text text-anchor="middle" font-size="8" font-weight="bold" y="2.5" class="node-label">A</text></g><g class="noselect gnode" struct_name="m" transform="translate(287.45,-28.89)" r="6.5"><circle class="node" r="6" node_type="nucleotide" style="fill: lightgreen;"></circle><text text-anchor="middle" font-size="8" font-weight="bold" y="2.5" class="node-label">U</text></g><g class="noselect gnode" struct_name="m" transform="translate(295.31,-42.05)" r="6.5"><circle class="node" r="6" node_type="nucleotide" style="fill: lightblue;"></circle><text text-anchor="middle" font-size="8" font-weight="bold" y="2.5" class="node-label">U</text></g><g class="noselect gnode" struct_name="m" transform="translate(310.26,-41.77)" r="6.5"><circle class="node" r="6" node_type="nucleotide" style="fill: lightblue;"></circle><text text-anchor="middle" font-size="8" font-weight="bold" y="2.5" class="node-label">A</text></g><g class="noselect gnode" struct_name="m" transform="translate(317.62,-28.72)" r="6.5"><circle class="node" r="6" node_type="nucleotide" style="fill: lightblue;"></circle><text text-anchor="middle" font-size="8" font-weight="bold" y="2.5" class="node-label">U</text></g><g class="noselect gnode" struct_name="m" transform="translate(310.07,-15.77)" r="6.5"><circle class="node" r="6" node_type="nucleotide" style="fill: lightblue;"></circle><text text-anchor="middle" font-size="8" font-weight="bold" y="2.5" class="node-label">U</text></g><g class="noselect gnode" struct_name="m" transform="translate(294.64,-15.87)" r="6.5"><circle class="node" r="6" node_type="nucleotide" style="fill: lightgreen;"></circle><text text-anchor="middle" font-size="8" font-weight="bold" y="2.5" class="node-label">A</text></g><g class="noselect gnode" struct_name="m" transform="translate(280.60,-8.33)" r="6.5"><circle class="node" r="6" node_type="nucleotide" style="fill: lightgreen;"></circle><text text-anchor="middle" font-size="8" font-weight="bold" y="2.5" class="node-label">U</text></g><g class="noselect gnode" struct_name="m" transform="translate(268.69,2.86)" r="6.5"><circle class="node" r="6" node_type="nucleotide" style="fill: lightgreen;"></circle><text text-anchor="middle" font-size="8" font-weight="bold" y="2.5" class="node-label">C</text></g><g class="noselect gnode" struct_name="m" transform="translate(259.90,16.56)" r="6.5"><circle class="node" r="6" node_type="nucleotide" style="fill: lightgreen;"></circle><text text-anchor="middle" font-size="8" font-weight="bold" y="2.5" class="node-label">U</text></g><g class="noselect gnode" struct_name="m" transform="translate(250.75,30.04)" r="6.5"><circle class="node" r="6" node_type="nucleotide" style="fill: lightgreen;"></circle><text text-anchor="middle" font-size="8" font-weight="bold" y="2.5" class="node-label">U</text></g><g class="noselect gnode" struct_name="m" transform="translate(241.35,43.22)" r="6.5"><circle class="node" r="6" node_type="nucleotide" style="fill: lightgreen;"></circle><text text-anchor="middle" font-size="8" font-weight="bold" y="2.5" class="node-label">G</text></g><g class="noselect gnode" struct_name="m" transform="translate(232.31,56.09)" r="6.5"><circle class="node" r="6" node_type="nucleotide" style="fill: lightgreen;"></circle><text text-anchor="middle" font-size="8" font-weight="bold" y="2.5" class="node-label">A</text></g><g class="noselect gnode" struct_name="m" transform="translate(228.51,71.04)" r="6.5"><circle class="node" r="6" node_type="nucleotide" style="fill: rgb(219, 219, 141);"></circle><text text-anchor="middle" font-size="8" font-weight="bold" y="2.5" class="node-label">U</text></g><g class="noselect gnode" struct_name="m" transform="translate(213.05,71.80)" r="6.5"><circle class="node" r="6" node_type="nucleotide" style="fill: lightgreen;"></circle><text text-anchor="middle" font-size="8" font-weight="bold" y="2.5" class="node-label">G</text></g><g class="noselect gnode" struct_name="m" transform="translate(199.60,78.36)" r="6.5"><circle class="node" r="6" node_type="nucleotide" style="fill: lightgreen;"></circle><text text-anchor="middle" font-size="8" font-weight="bold" y="2.5" class="node-label">C</text></g><g class="noselect gnode" struct_name="m" transform="translate(187.45,86.77)" r="6.5"><circle class="node" r="6" node_type="nucleotide" style="fill: lightgreen;"></circle><text text-anchor="middle" font-size="8" font-weight="bold" y="2.5" class="node-label">G</text></g><g class="noselect gnode" struct_name="m" transform="translate(177.78,97.14)" r="6.5"><circle class="node" r="6" node_type="nucleotide" style="fill: lightgreen;"></circle><text text-anchor="middle" font-size="8" font-weight="bold" y="2.5" class="node-label">G</text></g><g class="noselect gnode" struct_name="m" transform="translate(174.58,111.84)" r="6.5"><circle class="node" r="6" node_type="nucleotide" style="fill: rgb(219, 219, 141);"></circle><text text-anchor="middle" font-size="8" font-weight="bold" y="2.5" class="node-label">C</text></g><g class="noselect gnode" struct_name="m" transform="translate(159.59,113.14)" r="6.5"><circle class="node" r="6" node_type="nucleotide" style="fill: lightgreen;"></circle><text text-anchor="middle" font-size="8" font-weight="bold" y="2.5" class="node-label">G</text></g><g class="noselect gnode" struct_name="m" transform="translate(148.39,121.46)" r="6.5"><circle class="node" r="6" node_type="nucleotide" style="fill: lightgreen;"></circle><text text-anchor="middle" font-size="8" font-weight="bold" y="2.5" class="node-label">A</text></g><g class="noselect gnode" struct_name="m" transform="translate(139.81,132.75)" r="6.5"><circle class="node" r="6" node_type="nucleotide" style="fill: lightgreen;"></circle><text text-anchor="middle" font-size="8" font-weight="bold" y="2.5" class="node-label">A</text></g><g class="noselect gnode" struct_name="m" transform="translate(149.52,144.49)" r="6.5"><circle class="node" r="6" node_type="nucleotide" style="fill: lightsalmon;"></circle><text text-anchor="middle" font-size="8" font-weight="bold" y="2.5" class="node-label">U</text></g><g class="noselect gnode" struct_name="m" transform="translate(153.38,159.04)" r="6.5"><circle class="node" r="6" node_type="nucleotide" style="fill: lightsalmon;"></circle><text text-anchor="middle" font-size="8" font-weight="bold" y="2.5" class="node-label">U</text></g><g class="noselect gnode" struct_name="m" transform="translate(151.21,173.96)" r="6.5"><circle class="node" r="6" node_type="nucleotide" style="fill: lightsalmon;"></circle><text text-anchor="middle" font-size="8" font-weight="bold" y="2.5" class="node-label">U</text></g><g class="noselect gnode" struct_name="m" transform="translate(143.38,186.58)" r="6.5"><circle class="node" r="6" node_type="nucleotide" style="fill: lightsalmon;"></circle><text text-anchor="middle" font-size="8" font-weight="bold" y="2.5" class="node-label">U</text></g><g class="noselect gnode" struct_name="m" transform="translate(-8.82,220.37)" r="6.5"><circle class="node label" r="6" node_type="label"></circle><text text-anchor="middle" font-size="8" font-weight="bold" y="2.5" class="node-label">10</text></g><g class="noselect gnode" struct_name="m" transform="translate(92.61,116.24)" r="6.5"><circle class="node label" r="6" node_type="label"></circle><text text-anchor="middle" font-size="8" font-weight="bold" y="2.5" class="node-label">20</text></g><g class="noselect gnode" struct_name="m" transform="translate(216.72,25.84)" r="6.5"><circle class="node label" r="6" node_type="label"></circle><text text-anchor="middle" font-size="8" font-weight="bold" y="2.5" class="node-label">30</text></g><g class="noselect gnode" struct_name="m" transform="translate(324.30,-9.64)" r="6.5"><circle class="node label" r="6" node_type="label"></circle><text text-anchor="middle" font-size="8" font-weight="bold" y="2.5" class="node-label">40</text></g><g class="noselect gnode" struct_name="m" transform="translate(208.73,90.99)" r="6.5"><circle class="node label" r="6" node_type="label"></circle><text text-anchor="middle" font-size="8" font-weight="bold" y="2.5" class="node-label">50</text></g><g class="noselect gnode" struct_name="m" transform="translate(139.38,172.21)" r="6.5"><circle class="node label" r="6" node_type="label"></circle><text text-anchor="middle" font-size="8" font-weight="bold" y="2.5" class="node-label">60</text></g><g class="noselect gnode" transform="translate(230.73,45.48)" r="6.5"><circle class="node" r="0" node_type="middle"></circle><text text-anchor="middle" font-size="8" font-weight="bold" y="2.5" class="node-label"></text></g><g class="noselect gnode" transform="translate(240.18,32.47)" r="6.5"><circle class="node" r="0" node_type="middle"></circle><text text-anchor="middle" font-size="8" font-weight="bold" y="2.5" class="node-label"></text></g><g class="noselect gnode" transform="translate(249.39,19.30)" r="6.5"><circle class="node" r="0" node_type="middle"></circle><text text-anchor="middle" font-size="8" font-weight="bold" y="2.5" class="node-label"></text></g><g class="noselect gnode" transform="translate(258.20,5.87)" r="6.5"><circle class="node" r="0" node_type="middle"></circle><text text-anchor="middle" font-size="8" font-weight="bold" y="2.5" class="node-label"></text></g><g class="noselect gnode" transform="translate(284.18,-18.58)" r="6.5"><circle class="node" r="0" node_type="middle"></circle><text text-anchor="middle" font-size="8" font-weight="bold" y="2.5" class="node-label"></text></g><g class="noselect gnode" transform="translate(137.60,122.15)" r="6.5"><circle class="node" r="0" node_type="middle"></circle><text text-anchor="middle" font-size="8" font-weight="bold" y="2.5" class="node-label"></text></g><g class="noselect gnode" transform="translate(149.06,110.63)" r="6.5"><circle class="node" r="0" node_type="middle"></circle><text text-anchor="middle" font-size="8" font-weight="bold" y="2.5" class="node-label"></text></g><g class="noselect gnode" transform="translate(73.93,165.10)" r="6.5"><circle class="node" r="0" node_type="middle"></circle><text text-anchor="middle" font-size="8" font-weight="bold" y="2.5" class="node-label"></text></g><g class="noselect gnode" transform="translate(58.32,169.45)" r="6.5"><circle class="node" r="0" node_type="middle"></circle><text text-anchor="middle" font-size="8" font-weight="bold" y="2.5" class="node-label"></text></g><g class="noselect gnode" transform="translate(43.41,175.40)" r="6.5"><circle class="node" r="0" node_type="middle"></circle><text text-anchor="middle" font-size="8" font-weight="bold" y="2.5" class="node-label"></text></g><g class="noselect gnode" transform="translate(176.54,86.45)" r="6.5"><circle class="node" r="0" node_type="middle"></circle><text text-anchor="middle" font-size="8" font-weight="bold" y="2.5" class="node-label"></text></g><g class="noselect gnode" transform="translate(188.91,76.12)" r="6.5"><circle class="node" r="0" node_type="middle"></circle><text text-anchor="middle" font-size="8" font-weight="bold" y="2.5" class="node-label"></text></g><g class="noselect gnode" transform="translate(202.85,68.07)" r="6.5"><circle class="node" r="0" node_type="middle"></circle><text text-anchor="middle" font-size="8" font-weight="bold" y="2.5" class="node-label"></text></g><g class="noselect gnode" transform="translate(131.22,195.25)" r="6.5"><circle class="node" r="0" node_type="middle"></circle><text text-anchor="middle" font-size="8" font-weight="bold" y="2.5" class="node-label"></text></g><g class="noselect gnode" transform="translate(116.14,196.71)" r="6.5"><circle class="node" r="0" node_type="middle"></circle><text text-anchor="middle" font-size="8" font-weight="bold" y="2.5" class="node-label"></text></g><g class="noselect gnode" transform="translate(117.27,160.61)" r="6.5"><circle class="node" r="0" node_type="middle"></circle><text text-anchor="middle" font-size="8" font-weight="bold" y="2.5" class="node-label"></text></g><g class="noselect gnode" transform="translate(302.52,-28.82)" r="6.5"><circle class="node" r="0" node_type="middle"></circle><text text-anchor="middle" font-size="8" font-weight="bold" y="2.5" class="node-label"></text></g><g class="noselect gnode" transform="translate(15.72,189.67)" r="6.5"><circle class="node" r="0" node_type="middle"></circle><text text-anchor="middle" font-size="8" font-weight="bold" y="2.5" class="node-label"></text></g><g class="noselect gnode" transform="translate(267.66,-10.16)" r="6.5"><circle class="node" r="0" node_type="middle"></circle><text text-anchor="middle" font-size="8" font-weight="bold" y="2.5" class="node-label"></text></g><g class="noselect gnode" transform="translate(165.56,101.67)" r="6.5"><circle class="node" r="0" node_type="middle"></circle><text text-anchor="middle" font-size="8" font-weight="bold" y="2.5" class="node-label"></text></g><g class="noselect gnode" transform="translate(220.06,60.77)" r="6.5"><circle class="node" r="0" node_type="middle"></circle><text text-anchor="middle" font-size="8" font-weight="bold" y="2.5" class="node-label"></text></g></g><line class="drag_line" x1="0" y1="0" x2="0" y2="0"></line></g></g></svg>