<svg xmlns="http://www.w3.org/2000/svg" viewBox="0 0 760 640" width="760" height="640"><style>svg {
  display: block;
  min-width: 100%;
  width: 100%;
  min-height: 100%;
}

circle.node {
  stroke: #ccc;
  stroke-width: 1px;
  opacity: 1;
  fill: white;
}

circle.node.label {
    stroke: transparent;
    stroke-width: 0;
    fill: white;
}

circle.outline_node {
    stroke-width: 1px;
    fill: red;
}

circle.protein {
    fill: gray;
    fill-opacity: 0.5;
    stroke-width: 4;
}

circle.hidden_outline {
    stroke-width: 0px;
}


line.link {
  stroke: #999;
  stroke-opacity: 0.8;
  stroke-width: 2;
}

line.basepair {
  stroke: red;
}

line.intermolecule {
  stroke: blue;
}

line.chain_chain {
  stroke-dasharray: 3,3;
}

line.fake {
  stroke: green;
}

.transparent {
    fill: transparent;
    stroke-width: 0;
    stroke-opacity: 0;
    opacity: 0;
    visibility: hidden;
}

.drag_line {
  stroke: #999;
  stroke-width: 2;
  pointer-events: none;
}

.drag_line_hidden {
  stroke: #999;
  stroke-width: 0;
  pointer-events: none;
}

.d3-tip {
    line-height: 1;
    font-weight: bold;
    padding: 6px;
    background: rgba(0, 0, 0, 0.6);
    color: #fff;
    border-radius: 4px;
    pointer-events: none;
          }

text.node-label {
    font-weight: bold;
    font-family: Tahoma, Geneva, sans-serif;
    color: rgb(100,100,100);
    pointer-events: none;
}

text {
    pointer-events: none;
}

g.gnode {

}

circle.outline_node.selected {
    visibility: visible;
}

circle.outline_node {
    visibility: hidden;
}

.brush .extent {
  fill-opacity: .1;
  stroke: #fff;
  shape-rendering: crispEdges;
}

.noselect {
    -webkit-touch-callout: none;
    -webkit-user-select: none;
    -khtml-user-select: none;
    -moz-user-select: none;
    -ms-user-select: none;
    user-select: none;
}

svg {
  display: block;
  min-width: 100%;
  width: 100%;
  min-height: 100%;
}

circle.node {
  stroke: #ccc;
  stroke-width: 1px;
  opacity: 1;
  fill: white;
}

circle.node.label {
    stroke: transparent;
    stroke-width: 0;
    fill: white;
}

circle.outline_node {
    stroke-width: 1px;
    fill: red;
}

circle.protein {
    fill: gray;
    fill-opacity: 0.5;
    stroke-width: 4;
}

circle.hidden_outline {
    stroke-width: 0px;
}


line.link {
  stroke: #999;
  stroke-opacity: 0.8;
  stroke-width: 2;
}

line.basepair {
  stroke: red;
}

line.intermolecule {
  stroke: blue;
}

line.chain_chain {
  stroke-dasharray: 3,3;
}

line.fake {
  stroke: green;
}

.transparent {
    fill: transparent;
    stroke-width: 0;
    stroke-opacity: 0;
    opacity: 0;
    visibility: hidden;
}

.drag_line {
  stroke: #999;
  stroke-width: 2;
  pointer-events: none;
}

.drag_line_hidden {
  stroke: #999;
  stroke-width: 0;
  pointer-events: none;
}

.d3-tip {
    line-height: 1;
    font-weight: bold;
    padding: 6px;
    background: rgba(0, 0, 0, 0.6);
    color: #fff;
    border-radius: 4px;
    pointer-events: none;
          }

text.node-label {
    font-weight: bold;
    font-family: Tahoma, Geneva, sans-serif;
    color: rgb(100,100,100);
    pointer-events: none;
}

text {
    pointer-events: none;
}

g.gnode {

}

circle.outline_node.selected {
    visibility: visible;
}

circle.outline_node {
    visibility: hidden;
}

.brush .extent {
  fill-opacity: .1;
  stroke: #fff;
  shape-rendering: crispEdges;
}

.noselect {
    -webkit-touch-callout: none;
    -webkit-user-select: none;
    -khtml-user-select: none;
    -moz-user-select: none;
    -ms-user-select: none;
    user-select: none;
}
/*# sourceURL=/Users/yumanakamura/ipy_sandbox/sandbox/claude_sandbox/mrna-transformer-worktrees/feat-issue57-switch-derna-knotty/scripts/eval/prerender/forna_vendor/fornac.css*/</style><style></style><g><g class="brush" style="pointer-events: all; -webkit-tap-highlight-color: rgba(0, 0, 0, 0);"><rect class="background" x="0" width="760" y="0" height="640" style="visibility: hidden; cursor: auto;"></rect><rect class="extent" x="0" width="0" y="0" height="0" style="cursor: move;"></rect><g class="resize n" transform="translate(0,0)" style="cursor: ns-resize; display: none;"><rect y="-3" width="0" height="6" style="visibility: hidden;"></rect></g><g class="resize e" transform="translate(0,0)" style="cursor: ew-resize; display: none;"><rect x="-3" width="6" height="0" style="visibility: hidden;"></rect></g><g class="resize s" transform="translate(0,0)" style="cursor: ns-resize; display: none;"><rect y="-3" width="0" height="6" style="visibility: hidden;"></rect></g><g class="resize w" transform="translate(0,0)" style="cursor: ew-resize; display: none;"><rect x="-3" width="6" height="0" style="visibility: hidden;"></rect></g><g class="resize nw" transform="translate(0,0)" style="cursor: nwse-resize; display: none;"><rect x="-3" y="-3" width="6" height="6" style="visibility: hidden;"></rect></g><g class="resize ne" transform="translate(0,0)" style="cursor: nesw-resize; display: none;"><rect x="-3" y="-3" width="6" height="6" style="visibility: hidden;"></rect></g><g class="resize se" transform="translate(0,0)" style="cursor: nwse-resize; display: none;"><rect x="-3" y="-3" width="6" height="6" style="visibility: hidden;"></rect></g><g class="resize sw" transform="translate(0,0)" style="cursor: nesw-resize; display: none;"><rect x="-3" y="-3" width="6" height="6" style="visibility: hidden;"></rect></g></g><g transform="translate(308.37,304.12) scale(1.35)"><g><line class="link backbone" x1="2.14" y1="211.26" x2="-8.59" y2="200.78"></line><line class="link backbone" x1="-8.59" y1="200.78" x2="-9.97" y2="185.69"></line><line class="link backbone" x1="-9.97" y1="185.69" x2="-1.38" y2="173.43"></line><line class="link basepair" x1="13.39" y1="168.84" x2="27.00" y2="175.03"></line><line class="link backbone" x1="-1.38" y1="173.43" x2="13.39" y2="168.84"></line><line class="link basepair" x1="20.45" y1="154.51" x2="33.55" y2="160.90"></line><line class="link backbone" x1="13.39" y1="168.84" x2="20.45" y2="154.51"></line><line class="link basepair" x1="27.51" y1="140.10" x2="40.71" y2="146.91"></line><line class="link backbone" x1="20.45" y1="154.51" x2="27.51" y2="140.10"></line><line class="link basepair" x1="30.33" y1="124.11" x2="45.18" y2="122.20"></line><line class="link backbone" x1="27.51" y1="140.10" x2="30.33" y2="124.11"></line><line class="link backbone" x1="30.33" y1="124.11" x2="18.31" y2="114.89"></line><line class="link backbone" x1="18.31" y1="114.89" x2="16.15" y2="100.09"></line><line class="link basepair" x1="25.31" y1="87.98" x2="39.85" y2="85.54"></line><line class="link backbone" x1="16.15" y1="100.09" x2="25.31" y2="87.98"></line><line class="link basepair" x1="22.20" y1="72.96" x2="36.11" y2="69.19"></line><line class="link backbone" x1="25.31" y1="87.98" x2="22.20" y2="72.96"></line><line class="link basepair" x1="17.22" y1="58.87" x2="30.80" y2="52.81"></line><line class="link backbone" x1="22.20" y1="72.96" x2="17.22" y2="58.87"></line><line class="link backbone" x1="17.22" y1="58.87" x2="3.36" y2="52.56"></line><line class="link backbone" x1="3.36" y1="52.56" x2="-0.31" y2="37.96"></line><line class="link backbone" x1="-0.31" y1="37.96" x2="8.77" y2="25.93"></line><line class="link basepair" x1="24.01" y1="25.55" x2="34.16" y2="36.36"></line><line class="link backbone" x1="8.77" y1="25.93" x2="24.01" y2="25.55"></line><line class="link basepair" x1="33.80" y1="14.43" x2="45.38" y2="22.94"></line><line class="link backbone" x1="24.01" y1="25.55" x2="33.80" y2="14.43"></line><line class="link basepair" x1="42.01" y1="1.41" x2="54.64" y2="8.42"></line><line class="link backbone" x1="33.80" y1="14.43" x2="42.01" y2="1.41"></line><line class="link basepair" x1="48.71" y1="-12.49" x2="62.10" y2="-6.78"></line><line class="link backbone" x1="42.01" y1="1.41" x2="48.71" y2="-12.49"></line><line class="link basepair" x1="54.08" y1="-26.94" x2="67.92" y2="-22.39"></line><line class="link backbone" x1="48.71" y1="-12.49" x2="54.08" y2="-26.94"></line><line class="link basepair" x1="58.46" y1="-42.01" x2="72.52" y2="-38.15"></line><line class="link backbone" x1="54.08" y1="-26.94" x2="58.46" y2="-42.01"></line><line class="link basepair" x1="62.59" y1="-57.55" x2="76.60" y2="-53.62"></line><line class="link backbone" x1="58.46" y1="-42.01" x2="62.59" y2="-57.55"></line><line class="link basepair" x1="67.14" y1="-73.29" x2="81.22" y2="-68.30"></line><line class="link backbone" x1="62.59" y1="-57.55" x2="67.14" y2="-73.29"></line><line class="link backbone" x1="67.14" y1="-73.29" x2="62.42" y2="-88.30"></line><line class="link basepair" x1="71.11" y1="-101.51" x2="85.99" y2="-102.30"></line><line class="link backbone" x1="62.42" y1="-88.30" x2="71.11" y2="-101.51"></line><line class="link basepair" x1="71.51" y1="-118.35" x2="85.97" y2="-117.44"></line><line class="link backbone" x1="71.11" y1="-101.51" x2="71.51" y2="-118.35"></line><line class="link basepair" x1="73.23" y1="-134.91" x2="87.66" y2="-132.86"></line><line class="link backbone" x1="71.51" y1="-118.35" x2="73.23" y2="-134.91"></line><line class="link basepair" x1="75.80" y1="-150.91" x2="90.44" y2="-148.10"></line><line class="link backbone" x1="73.23" y1="-134.91" x2="75.80" y2="-150.91"></line><line class="link backbone" x1="75.80" y1="-150.91" x2="67.53" y2="-163.89"></line><line class="link backbone" x1="67.53" y1="-163.89" x2="70.60" y2="-178.57"></line><line class="link backbone" x1="70.60" y1="-178.57" x2="83.20" y2="-186.83"></line><line class="link backbone" x1="83.20" y1="-186.83" x2="97.81" y2="-183.72"></line><line class="link backbone" x1="97.81" y1="-183.72" x2="106.18" y2="-171.27"></line><line class="link backbone" x1="106.18" y1="-171.27" x2="103.17" y2="-156.55"></line><line class="link basepair" x1="90.44" y1="-148.10" x2="75.80" y2="-150.91"></line><line class="link backbone" x1="103.17" y1="-156.55" x2="90.44" y2="-148.10"></line><line class="link basepair" x1="87.66" y1="-132.86" x2="73.23" y2="-134.91"></line><line class="link backbone" x1="90.44" y1="-148.10" x2="87.66" y2="-132.86"></line><line class="link basepair" x1="85.97" y1="-117.44" x2="71.51" y2="-118.35"></line><line class="link backbone" x1="87.66" y1="-132.86" x2="85.97" y2="-117.44"></line><line class="link basepair" x1="85.99" y1="-102.30" x2="71.11" y2="-101.51"></line><line class="link backbone" x1="85.97" y1="-117.44" x2="85.99" y2="-102.30"></line><line class="link backbone" x1="85.99" y1="-102.30" x2="96.50" y2="-91.09"></line><line class="link backbone" x1="96.50" y1="-91.09" x2="94.37" y2="-76.15"></line><line class="link basepair" x1="81.22" y1="-68.30" x2="67.14" y2="-73.29"></line><line class="link backbone" x1="94.37" y1="-76.15" x2="81.22" y2="-68.30"></line><line class="link basepair" x1="76.60" y1="-53.62" x2="62.59" y2="-57.55"></line><line class="link backbone" x1="81.22" y1="-68.30" x2="76.60" y2="-53.62"></line><line class="link basepair" x1="72.52" y1="-38.15" x2="58.46" y2="-42.01"></line><line class="link backbone" x1="76.60" y1="-53.62" x2="72.52" y2="-38.15"></line><line class="link basepair" x1="67.92" y1="-22.39" x2="54.08" y2="-26.94"></line><line class="link backbone" x1="72.52" y1="-38.15" x2="67.92" y2="-22.39"></line><line class="link basepair" x1="62.10" y1="-6.78" x2="48.71" y2="-12.49"></line><line class="link backbone" x1="67.92" y1="-22.39" x2="62.10" y2="-6.78"></line><line class="link basepair" x1="54.64" y1="8.42" x2="42.01" y2="1.41"></line><line class="link backbone" x1="62.10" y1="-6.78" x2="54.64" y2="8.42"></line><line class="link basepair" x1="45.38" y1="22.94" x2="33.80" y2="14.43"></line><line class="link backbone" x1="54.64" y1="8.42" x2="45.38" y2="22.94"></line><line class="link basepair" x1="34.16" y1="36.36" x2="24.01" y2="25.55"></line><line class="link backbone" x1="45.38" y1="22.94" x2="34.16" y2="36.36"></line><line class="link basepair" x1="30.80" y1="52.81" x2="17.22" y2="58.87"></line><line class="link backbone" x1="34.16" y1="36.36" x2="30.80" y2="52.81"></line><line class="link basepair" x1="36.11" y1="69.19" x2="22.20" y2="72.96"></line><line class="link backbone" x1="30.80" y1="52.81" x2="36.11" y2="69.19"></line><line class="link basepair" x1="39.85" y1="85.54" x2="25.31" y2="87.98"></line><line class="link backbone" x1="36.11" y1="69.19" x2="39.85" y2="85.54"></line><line class="link backbone" x1="39.85" y1="85.54" x2="52.20" y2="94.95"></line><line class="link backbone" x1="52.20" y1="94.95" x2="54.27" y2="109.76"></line><line class="link basepair" x1="45.18" y1="122.20" x2="30.33" y2="124.11"></line><line class="link backbone" x1="54.27" y1="109.76" x2="45.18" y2="122.20"></line><line class="link backbone" x1="45.18" y1="122.20" x2="52.05" y2="136.22"></line><line class="link basepair" x1="40.71" y1="146.91" x2="27.51" y2="140.10"></line><line class="link backbone" x1="52.05" y1="136.22" x2="40.71" y2="146.91"></line><line class="link basepair" x1="33.55" y1="160.90" x2="20.45" y2="154.51"></line><line class="link backbone" x1="40.71" y1="146.91" x2="33.55" y2="160.90"></line><line class="link basepair" x1="27.00" y1="175.03" x2="13.39" y2="168.84"></line><line class="link backbone" x1="33.55" y1="160.90" x2="27.00" y2="175.03"></line><line class="link backbone" x1="27.00" y1="175.03" x2="33.64" y2="188.73"></line><line class="link label_link" x1="16.15" y1="100.09" x2="0.64" y2="98.70"></line><line class="link label_link" x1="48.71" y1="-12.49" x2="34.71" y2="-19.25"></line><line class="link label_link" x1="67.53" y1="-163.89" x2="53.24" y2="-169.82"></line><line class="link label_link" x1="96.50" y1="-91.09" x2="111.98" y2="-89.31"></line><line class="link label_link" x1="30.80" y1="52.81" x2="46.30" y2="52.46"></line><line class="link label_link" x1="33.64" y1="188.73" x2="47.98" y2="194.53"></line><line class="link fake transparent" x1="24.01" y1="25.55" x2="34.79" y2="25.25"></line><line class="link fake transparent" x1="24.01" y1="25.55" x2="45.38" y2="22.94"></line><line class="link fake transparent" x1="33.80" y1="14.43" x2="34.79" y2="25.25"></line><line class="link fake transparent" x1="45.38" y1="22.94" x2="34.79" y2="25.25"></line><line class="link fake transparent" x1="34.16" y1="36.36" x2="34.79" y2="25.25"></line><line class="link fake transparent" x1="33.80" y1="14.43" x2="44.39" y2="12.05"></line><line class="link fake transparent" x1="42.01" y1="1.41" x2="44.39" y2="12.05"></line><line class="link fake transparent" x1="54.64" y1="8.42" x2="44.39" y2="12.05"></line><line class="link fake transparent" x1="45.38" y1="22.94" x2="44.39" y2="12.05"></line><line class="link fake transparent" x1="42.01" y1="1.41" x2="52.27" y2="-2.19"></line><line class="link fake transparent" x1="48.71" y1="-12.49" x2="52.27" y2="-2.19"></line><line class="link fake transparent" x1="62.10" y1="-6.78" x2="52.27" y2="-2.19"></line><line class="link fake transparent" x1="54.64" y1="8.42" x2="52.27" y2="-2.19"></line><line class="link fake transparent" x1="48.71" y1="-12.49" x2="58.58" y2="-17.02"></line><line class="link fake transparent" x1="54.08" y1="-26.94" x2="58.58" y2="-17.02"></line><line class="link fake transparent" x1="67.92" y1="-22.39" x2="58.58" y2="-17.02"></line><line class="link fake transparent" x1="62.10" y1="-6.78" x2="58.58" y2="-17.02"></line><line class="link fake transparent" x1="54.08" y1="-26.94" x2="63.47" y2="-32.31"></line><line class="link fake transparent" x1="58.46" y1="-42.01" x2="63.47" y2="-32.31"></line><line class="link fake transparent" x1="72.52" y1="-38.15" x2="63.47" y2="-32.31"></line><line class="link fake transparent" x1="67.92" y1="-22.39" x2="63.47" y2="-32.31"></line><line class="link fake transparent" x1="58.46" y1="-42.01" x2="67.55" y2="-47.85"></line><line class="link fake transparent" x1="62.59" y1="-57.55" x2="67.55" y2="-47.85"></line><line class="link fake transparent" x1="76.60" y1="-53.62" x2="67.55" y2="-47.85"></line><line class="link fake transparent" x1="72.52" y1="-38.15" x2="67.55" y2="-47.85"></line><line class="link fake transparent" x1="62.59" y1="-57.55" x2="71.66" y2="-63.31"></line><line class="link fake transparent" x1="67.14" y1="-73.29" x2="71.66" y2="-63.31"></line><line class="link fake transparent" x1="81.22" y1="-68.30" x2="71.66" y2="-63.31"></line><line class="link fake transparent" x1="76.60" y1="-53.62" x2="71.66" y2="-63.31"></line><line class="link fake transparent" x1="71.11" y1="-101.51" x2="78.21" y2="-109.83"></line><line class="link fake transparent" x1="71.51" y1="-118.35" x2="78.21" y2="-109.83"></line><line class="link fake transparent" x1="85.97" y1="-117.44" x2="78.21" y2="-109.83"></line><line class="link fake transparent" x1="85.99" y1="-102.30" x2="78.21" y2="-109.83"></line><line class="link fake transparent" x1="71.51" y1="-118.35" x2="79.26" y2="-125.94"></line><line class="link fake transparent" x1="73.23" y1="-134.91" x2="79.26" y2="-125.94"></line><line class="link fake transparent" x1="87.66" y1="-132.86" x2="79.26" y2="-125.94"></line><line class="link fake transparent" x1="85.97" y1="-117.44" x2="79.26" y2="-125.94"></line><line class="link fake transparent" x1="73.23" y1="-134.91" x2="81.60" y2="-141.78"></line><line class="link fake transparent" x1="75.80" y1="-150.91" x2="81.60" y2="-141.78"></line><line class="link fake transparent" x1="90.44" y1="-148.10" x2="81.60" y2="-141.78"></line><line class="link fake transparent" x1="87.66" y1="-132.86" x2="81.60" y2="-141.78"></line><line class="link fake transparent" x1="13.39" y1="168.84" x2="23.48" y2="164.88"></line><line class="link fake transparent" x1="20.45" y1="154.51" x2="23.48" y2="164.88"></line><line class="link fake transparent" x1="33.55" y1="160.90" x2="23.48" y2="164.88"></line><line class="link fake transparent" x1="27.00" y1="175.03" x2="23.48" y2="164.88"></line><line class="link fake transparent" x1="20.45" y1="154.51" x2="30.52" y2="150.54"></line><line class="link fake transparent" x1="27.51" y1="140.10" x2="30.52" y2="150.54"></line><line class="link fake transparent" x1="40.71" y1="146.91" x2="30.52" y2="150.54"></line><line class="link fake transparent" x1="33.55" y1="160.90" x2="30.52" y2="150.54"></line><line class="link fake transparent" x1="25.31" y1="87.98" x2="31.20" y2="78.95"></line><line class="link fake transparent" x1="22.20" y1="72.96" x2="31.20" y2="78.95"></line><line class="link fake transparent" x1="36.11" y1="69.19" x2="31.20" y2="78.95"></line><line class="link fake transparent" x1="39.85" y1="85.54" x2="31.20" y2="78.95"></line><line class="link fake transparent" x1="22.20" y1="72.96" x2="27.01" y2="63.27"></line><line class="link fake transparent" x1="17.22" y1="58.87" x2="27.01" y2="63.27"></line><line class="link fake transparent" x1="30.80" y1="52.81" x2="27.01" y2="63.27"></line><line class="link fake transparent" x1="36.11" y1="69.19" x2="27.01" y2="63.27"></line><line class="link fake transparent" x1="2.14" y1="211.26" x2="11.52" y2="190.92"></line><line class="link fake transparent" x1="2.14" y1="211.26" x2="13.39" y2="168.84"></line><line class="link fake transparent" x1="-8.59" y1="200.78" x2="11.52" y2="190.92"></line><line class="link fake transparent" x1="-8.59" y1="200.78" x2="27.00" y2="175.03"></line><line class="link fake transparent" x1="-9.97" y1="185.69" x2="11.52" y2="190.92"></line><line class="link fake transparent" x1="-9.97" y1="185.69" x2="33.64" y2="188.73"></line><line class="link fake transparent" x1="-1.38" y1="173.43" x2="11.52" y2="190.92"></line><line class="link fake transparent" x1="-1.38" y1="173.43" x2="31.27" y2="203.12"></line><line class="link fake transparent" x1="13.39" y1="168.84" x2="11.52" y2="190.92"></line><line class="link fake transparent" x1="13.39" y1="168.84" x2="18.92" y2="212.81"></line><line class="link fake transparent" x1="27.00" y1="175.03" x2="11.52" y2="190.92"></line><line class="link fake transparent" x1="27.00" y1="175.03" x2="2.14" y2="211.26"></line><line class="link fake transparent" x1="33.64" y1="188.73" x2="11.52" y2="190.92"></line><line class="link fake transparent" x1="33.64" y1="188.73" x2="-8.59" y2="200.78"></line><line class="link fake transparent" x1="75.80" y1="-150.91" x2="86.81" y2="-167.39"></line><line class="link fake transparent" x1="75.80" y1="-150.91" x2="97.81" y2="-183.72"></line><line class="link fake transparent" x1="67.53" y1="-163.89" x2="86.81" y2="-167.39"></line><line class="link fake transparent" x1="67.53" y1="-163.89" x2="106.18" y2="-171.27"></line><line class="link fake transparent" x1="70.60" y1="-178.57" x2="86.81" y2="-167.39"></line><line class="link fake transparent" x1="70.60" y1="-178.57" x2="103.17" y2="-156.55"></line><line class="link fake transparent" x1="83.20" y1="-186.83" x2="86.81" y2="-167.39"></line><line class="link fake transparent" x1="83.20" y1="-186.83" x2="90.44" y2="-148.10"></line><line class="link fake transparent" x1="97.81" y1="-183.72" x2="86.81" y2="-167.39"></line><line class="link fake transparent" x1="97.81" y1="-183.72" x2="75.80" y2="-150.91"></line><line class="link fake transparent" x1="106.18" y1="-171.27" x2="86.81" y2="-167.39"></line><line class="link fake transparent" x1="106.18" y1="-171.27" x2="67.53" y2="-163.89"></line><line class="link fake transparent" x1="103.17" y1="-156.55" x2="86.81" y2="-167.39"></line><line class="link fake transparent" x1="103.17" y1="-156.55" x2="70.60" y2="-178.57"></line><line class="link fake transparent" x1="90.44" y1="-148.10" x2="86.81" y2="-167.39"></line><line class="link fake transparent" x1="90.44" y1="-148.10" x2="83.20" y2="-186.83"></line><line class="link fake transparent" x1="67.14" y1="-73.29" x2="79.59" y2="-85.89"></line><line class="link fake transparent" x1="67.14" y1="-73.29" x2="85.99" y2="-102.30"></line><line class="link fake transparent" x1="62.42" y1="-88.30" x2="79.59" y2="-85.89"></line><line class="link fake transparent" x1="62.42" y1="-88.30" x2="96.50" y2="-91.09"></line><line class="link fake transparent" x1="71.11" y1="-101.51" x2="79.59" y2="-85.89"></line><line class="link fake transparent" x1="71.11" y1="-101.51" x2="94.37" y2="-76.15"></line><line class="link fake transparent" x1="85.99" y1="-102.30" x2="79.59" y2="-85.89"></line><line class="link fake transparent" x1="85.99" y1="-102.30" x2="81.22" y2="-68.30"></line><line class="link fake transparent" x1="96.50" y1="-91.09" x2="79.59" y2="-85.89"></line><line class="link fake transparent" x1="96.50" y1="-91.09" x2="67.14" y2="-73.29"></line><line class="link fake transparent" x1="94.37" y1="-76.15" x2="79.59" y2="-85.89"></line><line class="link fake transparent" x1="94.37" y1="-76.15" x2="62.42" y2="-88.30"></line><line class="link fake transparent" x1="81.22" y1="-68.30" x2="79.59" y2="-85.89"></line><line class="link fake transparent" x1="81.22" y1="-68.30" x2="71.11" y2="-101.51"></line><line class="link fake transparent" x1="27.51" y1="140.10" x2="39.04" y2="133.88"></line><line class="link fake transparent" x1="27.51" y1="140.10" x2="45.18" y2="122.20"></line><line class="link fake transparent" x1="30.33" y1="124.11" x2="39.04" y2="133.88"></line><line class="link fake transparent" x1="30.33" y1="124.11" x2="52.05" y2="136.22"></line><line class="link fake transparent" x1="45.18" y1="122.20" x2="39.04" y2="133.88"></line><line class="link fake transparent" x1="45.18" y1="122.20" x2="40.71" y2="146.91"></line><line class="link fake transparent" x1="52.05" y1="136.22" x2="39.04" y2="133.88"></line><line class="link fake transparent" x1="52.05" y1="136.22" x2="27.51" y2="140.10"></line><line class="link fake transparent" x1="40.71" y1="146.91" x2="39.04" y2="133.88"></line><line class="link fake transparent" x1="40.71" y1="146.91" x2="30.33" y2="124.11"></line><line class="link fake transparent" x1="30.33" y1="124.11" x2="35.34" y2="104.96"></line><line class="link fake transparent" x1="30.33" y1="124.11" x2="39.85" y2="85.54"></line><line class="link fake transparent" x1="18.31" y1="114.89" x2="35.34" y2="104.96"></line><line class="link fake transparent" x1="18.31" y1="114.89" x2="52.20" y2="94.95"></line><line class="link fake transparent" x1="16.15" y1="100.09" x2="35.34" y2="104.96"></line><line class="link fake transparent" x1="16.15" y1="100.09" x2="54.27" y2="109.76"></line><line class="link fake transparent" x1="25.31" y1="87.98" x2="35.34" y2="104.96"></line><line class="link fake transparent" x1="25.31" y1="87.98" x2="45.18" y2="122.20"></line><line class="link fake transparent" x1="39.85" y1="85.54" x2="35.34" y2="104.96"></line><line class="link fake transparent" x1="39.85" y1="85.54" x2="30.33" y2="124.11"></line><line class="link fake transparent" x1="52.20" y1="94.95" x2="35.34" y2="104.96"></line><line class="link fake transparent" x1="52.20" y1="94.95" x2="18.31" y2="114.89"></line><line class="link fake transparent" x1="54.27" y1="109.76" x2="35.34" y2="104.96"></line><line class="link fake transparent" x1="54.27" y1="109.76" x2="16.15" y2="100.09"></line><line class="link fake transparent" x1="45.18" y1="122.20" x2="35.34" y2="104.96"></line><line class="link fake transparent" x1="45.18" y1="122.20" x2="25.31" y2="87.98"></line><line class="link fake transparent" x1="17.22" y1="58.87" x2="17.27" y2="41.47"></line><line class="link fake transparent" x1="17.22" y1="58.87" x2="8.77" y2="25.93"></line><line class="link fake transparent" x1="3.36" y1="52.56" x2="17.27" y2="41.47"></line><line class="link fake transparent" x1="3.36" y1="52.56" x2="24.01" y2="25.55"></line><line class="link fake transparent" x1="-0.31" y1="37.96" x2="17.27" y2="41.47"></line><line class="link fake transparent" x1="-0.31" y1="37.96" x2="34.16" y2="36.36"></line><line class="link fake transparent" x1="8.77" y1="25.93" x2="17.27" y2="41.47"></line><line class="link fake transparent" x1="8.77" y1="25.93" x2="30.80" y2="52.81"></line><line class="link fake transparent" x1="24.01" y1="25.55" x2="17.27" y2="41.47"></line><line class="link fake transparent" x1="24.01" y1="25.55" x2="17.22" y2="58.87"></line><line class="link fake transparent" x1="34.16" y1="36.36" x2="17.27" y2="41.47"></line><line class="link fake transparent" x1="34.16" y1="36.36" x2="3.36" y2="52.56"></line><line class="link fake transparent" x1="30.80" y1="52.81" x2="17.27" y2="41.47"></line><line class="link fake transparent" x1="30.80" y1="52.81" x2="-0.31" y2="37.96"></line></g><g><g class="noselect gnode" struct_name="m" transform="translate(2.14,211.26)" r="6.5"><circle class="node" r="6" node_type="nucleotide" style="fill: lightsalmon;"></circle><text text-anchor="middle" font-size="8" font-weight="bold" y="2.5" class="node-label">A</text></g><g class="noselect gnode" struct_name="m" transform="translate(-8.59,200.78)" r="6.5"><circle class="node" r="6" node_type="nucleotide" style="fill: lightsalmon;"></circle><text text-anchor="middle" font-size="8" font-weight="bold" y="2.5" class="node-label">A</text></g><g class="noselect gnode" struct_name="m" transform="translate(-9.97,185.69)" r="6.5"><circle class="node" r="6" node_type="nucleotide" style="fill: lightsalmon;"></circle><text text-anchor="middle" font-size="8" font-weight="bold" y="2.5" class="node-label">U</text></g><g class="noselect gnode" struct_name="m" transform="translate(-1.38,173.43)" r="6.5"><circle class="node" r="6" node_type="nucleotide" style="fill: lightsalmon;"></circle><text text-anchor="middle" font-size="8" font-weight="bold" y="2.5" class="node-label">A</text></g><g class="noselect gnode" struct_name="m" transform="translate(13.39,168.84)" r="6.5"><circle class="node" r="6" node_type="nucleotide" style="fill: lightgreen;"></circle><text text-anchor="middle" font-size="8" font-weight="bold" y="2.5" class="node-label">U</text></g><g class="noselect gnode" struct_name="m" transform="translate(20.45,154.51)" r="6.5"><circle class="node" r="6" node_type="nucleotide" style="fill: lightgreen;"></circle><text text-anchor="middle" font-size="8" font-weight="bold" y="2.5" class="node-label">G</text></g><g class="noselect gnode" struct_name="m" transform="translate(27.51,140.10)" r="6.5"><circle class="node" r="6" node_type="nucleotide" style="fill: lightgreen;"></circle><text text-anchor="middle" font-size="8" font-weight="bold" y="2.5" class="node-label">G</text></g><g class="noselect gnode" struct_name="m" transform="translate(30.33,124.11)" r="6.5"><circle class="node" r="6" node_type="nucleotide" style="fill: lightgreen;"></circle><text text-anchor="middle" font-size="8" font-weight="bold" y="2.5" class="node-label">A</text></g><g class="noselect gnode" struct_name="m" transform="translate(18.31,114.89)" r="6.5"><circle class="node" r="6" node_type="nucleotide" style="fill: rgb(219, 219, 141);"></circle><text text-anchor="middle" font-size="8" font-weight="bold" y="2.5" class="node-label">U</text></g><g class="noselect gnode" struct_name="m" transform="translate(16.15,100.09)" r="6.5"><circle class="node" r="6" node_type="nucleotide" style="fill: rgb(219, 219, 141);"></circle><text text-anchor="middle" font-size="8" font-weight="bold" y="2.5" class="node-label">G</text></g><g class="noselect gnode" struct_name="m" transform="translate(25.31,87.98)" r="6.5"><circle class="node" r="6" node_type="nucleotide" style="fill: lightgreen;"></circle><text text-anchor="middle" font-size="8" font-weight="bold" y="2.5" class="node-label">C</text></g><g class="noselect gnode" struct_name="m" transform="translate(22.20,72.96)" r="6.5"><circle class="node" r="6" node_type="nucleotide" style="fill: lightgreen;"></circle><text text-anchor="middle" font-size="8" font-weight="bold" y="2.5" class="node-label">G</text></g><g class="noselect gnode" struct_name="m" transform="translate(17.22,58.87)" r="6.5"><circle class="node" r="6" node_type="nucleotide" style="fill: lightgreen;"></circle><text text-anchor="middle" font-size="8" font-weight="bold" y="2.5" class="node-label">U</text></g><g class="noselect gnode" struct_name="m" transform="translate(3.36,52.56)" r="6.5"><circle class="node" r="6" node_type="nucleotide" style="fill: rgb(219, 219, 141);"></circle><text text-anchor="middle" font-size="8" font-weight="bold" y="2.5" class="node-label">A</text></g><g class="noselect gnode" struct_name="m" transform="translate(-0.31,37.96)" r="6.5"><circle class="node" r="6" node_type="nucleotide" style="fill: rgb(219, 219, 141);"></circle><text text-anchor="middle" font-size="8" font-weight="bold" y="2.5" class="node-label">U</text></g><g class="noselect gnode" struct_name="m" transform="translate(8.77,25.93)" r="6.5"><circle class="node" r="6" node_type="nucleotide" style="fill: rgb(219, 219, 141);"></circle><text text-anchor="middle" font-size="8" font-weight="bold" y="2.5" class="node-label">C</text></g><g class="noselect gnode" struct_name="m" transform="translate(24.01,25.55)" r="6.5"><circle class="node" r="6" node_type="nucleotide" style="fill: lightgreen;"></circle><text text-anchor="middle" font-size="8" font-weight="bold" y="2.5" class="node-label">G</text></g><g class="noselect gnode" struct_name="m" transform="translate(33.80,14.43)" r="6.5"><circle class="node" r="6" node_type="nucleotide" style="fill: lightgreen;"></circle><text text-anchor="middle" font-size="8" font-weight="bold" y="2.5" class="node-label">G</text></g><g class="noselect gnode" struct_name="m" transform="translate(42.01,1.41)" r="6.5"><circle class="node" r="6" node_type="nucleotide" style="fill: lightgreen;"></circle><text text-anchor="middle" font-size="8" font-weight="bold" y="2.5" class="node-label">U</text></g><g class="noselect gnode" struct_name="m" transform="translate(48.71,-12.49)" r="6.5"><circle class="node" r="6" node_type="nucleotide" style="fill: lightgreen;"></circle><text text-anchor="middle" font-size="8" font-weight="bold" y="2.5" class="node-label">G</text></g><g class="noselect gnode" struct_name="m" transform="translate(54.08,-26.94)" r="6.5"><circle class="node" r="6" node_type="nucleotide" style="fill: lightgreen;"></circle><text text-anchor="middle" font-size="8" font-weight="bold" y="2.5" class="node-label">G</text></g><g class="noselect gnode" struct_name="m" transform="translate(58.46,-42.01)" r="6.5"><circle class="node" r="6" node_type="nucleotide" style="fill: lightgreen;"></circle><text text-anchor="middle" font-size="8" font-weight="bold" y="2.5" class="node-label">G</text></g><g class="noselect gnode" struct_name="m" transform="translate(62.59,-57.55)" r="6.5"><circle class="node" r="6" node_type="nucleotide" style="fill: lightgreen;"></circle><text text-anchor="middle" font-size="8" font-weight="bold" y="2.5" class="node-label">G</text></g><g class="noselect gnode" struct_name="m" transform="translate(67.14,-73.29)" r="6.5"><circle class="node" r="6" node_type="nucleotide" style="fill: lightgreen;"></circle><text text-anchor="middle" font-size="8" font-weight="bold" y="2.5" class="node-label">G</text></g><g class="noselect gnode" struct_name="m" transform="translate(62.42,-88.30)" r="6.5"><circle class="node" r="6" node_type="nucleotide" style="fill: rgb(219, 219, 141);"></circle><text text-anchor="middle" font-size="8" font-weight="bold" y="2.5" class="node-label">G</text></g><g class="noselect gnode" struct_name="m" transform="translate(71.11,-101.51)" r="6.5"><circle class="node" r="6" node_type="nucleotide" style="fill: lightgreen;"></circle><text text-anchor="middle" font-size="8" font-weight="bold" y="2.5" class="node-label">U</text></g><g class="noselect gnode" struct_name="m" transform="translate(71.51,-118.35)" r="6.5"><circle class="node" r="6" node_type="nucleotide" style="fill: lightgreen;"></circle><text text-anchor="middle" font-size="8" font-weight="bold" y="2.5" class="node-label">C</text></g><g class="noselect gnode" struct_name="m" transform="translate(73.23,-134.91)" r="6.5"><circle class="node" r="6" node_type="nucleotide" style="fill: lightgreen;"></circle><text text-anchor="middle" font-size="8" font-weight="bold" y="2.5" class="node-label">G</text></g><g class="noselect gnode" struct_name="m" transform="translate(75.80,-150.91)" r="6.5"><circle class="node" r="6" node_type="nucleotide" style="fill: lightgreen;"></circle><text text-anchor="middle" font-size="8" font-weight="bold" y="2.5" class="node-label">G</text></g><g class="noselect gnode" struct_name="m" transform="translate(67.53,-163.89)" r="6.5"><circle class="node" r="6" node_type="nucleotide" style="fill: lightblue;"></circle><text text-anchor="middle" font-size="8" font-weight="bold" y="2.5" class="node-label">G</text></g><g class="noselect gnode" struct_name="m" transform="translate(70.60,-178.57)" r="6.5"><circle class="node" r="6" node_type="nucleotide" style="fill: lightblue;"></circle><text text-anchor="middle" font-size="8" font-weight="bold" y="2.5" class="node-label">A</text></g><g class="noselect gnode" struct_name="m" transform="translate(83.20,-186.83)" r="6.5"><circle class="node" r="6" node_type="nucleotide" style="fill: lightblue;"></circle><text text-anchor="middle" font-size="8" font-weight="bold" y="2.5" class="node-label">U</text></g><g class="noselect gnode" struct_name="m" transform="translate(97.81,-183.72)" r="6.5"><circle class="node" r="6" node_type="nucleotide" style="fill: lightblue;"></circle><text text-anchor="middle" font-size="8" font-weight="bold" y="2.5" class="node-label">G</text></g><g class="noselect gnode" struct_name="m" transform="translate(106.18,-171.27)" r="6.5"><circle class="node" r="6" node_type="nucleotide" style="fill: lightblue;"></circle><text text-anchor="middle" font-size="8" font-weight="bold" y="2.5" class="node-label">U</text></g><g class="noselect gnode" struct_name="m" transform="translate(103.17,-156.55)" r="6.5"><circle class="node" r="6" node_type="nucleotide" style="fill: lightblue;"></circle><text text-anchor="middle" font-size="8" font-weight="bold" y="2.5" class="node-label">A</text></g><g class="noselect gnode" struct_name="m" transform="translate(90.44,-148.10)" r="6.5"><circle class="node" r="6" node_type="nucleotide" style="fill: lightgreen;"></circle><text text-anchor="middle" font-size="8" font-weight="bold" y="2.5" class="node-label">C</text></g><g class="noselect gnode" struct_name="m" transform="translate(87.66,-132.86)" r="6.5"><circle class="node" r="6" node_type="nucleotide" style="fill: lightgreen;"></circle><text text-anchor="middle" font-size="8" font-weight="bold" y="2.5" class="node-label">C</text></g><g class="noselect gnode" struct_name="m" transform="translate(85.97,-117.44)" r="6.5"><circle class="node" r="6" node_type="nucleotide" style="fill: lightgreen;"></circle><text text-anchor="middle" font-size="8" font-weight="bold" y="2.5" class="node-label">G</text></g><g class="noselect gnode" struct_name="m" transform="translate(85.99,-102.30)" r="6.5"><circle class="node" r="6" node_type="nucleotide" style="fill: lightgreen;"></circle><text text-anchor="middle" font-size="8" font-weight="bold" y="2.5" class="node-label">A</text></g><g class="noselect gnode" struct_name="m" transform="translate(96.50,-91.09)" r="6.5"><circle class="node" r="6" node_type="nucleotide" style="fill: rgb(219, 219, 141);"></circle><text text-anchor="middle" font-size="8" font-weight="bold" y="2.5" class="node-label">A</text></g><g class="noselect gnode" struct_name="m" transform="translate(94.37,-76.15)" r="6.5"><circle class="node" r="6" node_type="nucleotide" style="fill: rgb(219, 219, 141);"></circle><text text-anchor="middle" font-size="8" font-weight="bold" y="2.5" class="node-label">A</text></g><g class="noselect gnode" struct_name="m" transform="translate(81.22,-68.30)" r="6.5"><circle class="node" r="6" node_type="nucleotide" style="fill: lightgreen;"></circle><text text-anchor="middle" font-size="8" font-weight="bold" y="2.5" class="node-label">C</text></g><g class="noselect gnode" struct_name="m" transform="translate(76.60,-53.62)" r="6.5"><circle class="node" r="6" node_type="nucleotide" style="fill: lightgreen;"></circle><text text-anchor="middle" font-size="8" font-weight="bold" y="2.5" class="node-label">C</text></g><g class="noselect gnode" struct_name="m" transform="translate(72.52,-38.15)" r="6.5"><circle class="node" r="6" node_type="nucleotide" style="fill: lightgreen;"></circle><text text-anchor="middle" font-size="8" font-weight="bold" y="2.5" class="node-label">U</text></g><g class="noselect gnode" struct_name="m" transform="translate(67.92,-22.39)" r="6.5"><circle class="node" r="6" node_type="nucleotide" style="fill: lightgreen;"></circle><text text-anchor="middle" font-size="8" font-weight="bold" y="2.5" class="node-label">C</text></g><g class="noselect gnode" struct_name="m" transform="translate(62.10,-6.78)" r="6.5"><circle class="node" r="6" node_type="nucleotide" style="fill: lightgreen;"></circle><text text-anchor="middle" font-size="8" font-weight="bold" y="2.5" class="node-label">C</text></g><g class="noselect gnode" struct_name="m" transform="translate(54.64,8.42)" r="6.5"><circle class="node" r="6" node_type="nucleotide" style="fill: lightgreen;"></circle><text text-anchor="middle" font-size="8" font-weight="bold" y="2.5" class="node-label">A</text></g><g class="noselect gnode" struct_name="m" transform="translate(45.38,22.94)" r="6.5"><circle class="node" r="6" node_type="nucleotide" style="fill: lightgreen;"></circle><text text-anchor="middle" font-size="8" font-weight="bold" y="2.5" class="node-label">C</text></g><g class="noselect gnode" struct_name="m" transform="translate(34.16,36.36)" r="6.5"><circle class="node" r="6" node_type="nucleotide" style="fill: lightgreen;"></circle><text text-anchor="middle" font-size="8" font-weight="bold" y="2.5" class="node-label">C</text></g><g class="noselect gnode" struct_name="m" transform="translate(30.80,52.81)" r="6.5"><circle class="node" r="6" node_type="nucleotide" style="fill: lightgreen;"></circle><text text-anchor="middle" font-size="8" font-weight="bold" y="2.5" class="node-label">A</text></g><g class="noselect gnode" struct_name="m" transform="translate(36.11,69.19)" r="6.5"><circle class="node" r="6" node_type="nucleotide" style="fill: lightgreen;"></circle><text text-anchor="middle" font-size="8" font-weight="bold" y="2.5" class="node-label">C</text></g><g class="noselect gnode" struct_name="m" transform="translate(39.85,85.54)" r="6.5"><circle class="node" r="6" node_type="nucleotide" style="fill: lightgreen;"></circle><text text-anchor="middle" font-size="8" font-weight="bold" y="2.5" class="node-label">G</text></g><g class="noselect gnode" struct_name="m" transform="translate(52.20,94.95)" r="6.5"><circle class="node" r="6" node_type="nucleotide" style="fill: rgb(219, 219, 141);"></circle><text text-anchor="middle" font-size="8" font-weight="bold" y="2.5" class="node-label">A</text></g><g class="noselect gnode" struct_name="m" transform="translate(54.27,109.76)" r="6.5"><circle class="node" r="6" node_type="nucleotide" style="fill: rgb(219, 219, 141);"></circle><text text-anchor="middle" font-size="8" font-weight="bold" y="2.5" class="node-label">U</text></g><g class="noselect gnode" struct_name="m" transform="translate(45.18,122.20)" r="6.5"><circle class="node" r="6" node_type="nucleotide" style="fill: lightgreen;"></circle><text text-anchor="middle" font-size="8" font-weight="bold" y="2.5" class="node-label">U</text></g><g class="noselect gnode" struct_name="m" transform="translate(52.05,136.22)" r="6.5"><circle class="node" r="6" node_type="nucleotide" style="fill: rgb(219, 219, 141);"></circle><text text-anchor="middle" font-size="8" font-weight="bold" y="2.5" class="node-label">A</text></g><g class="noselect gnode" struct_name="m" transform="translate(40.71,146.91)" r="6.5"><circle class="node" r="6" node_type="nucleotide" style="fill: lightgreen;"></circle><text text-anchor="middle" font-size="8" font-weight="bold" y="2.5" class="node-label">C</text></g><g class="noselect gnode" struct_name="m" transform="translate(33.55,160.90)" r="6.5"><circle class="node" r="6" node_type="nucleotide" style="fill: lightgreen;"></circle><text text-anchor="middle" font-size="8" font-weight="bold" y="2.5" class="node-label">C</text></g><g class="noselect gnode" struct_name="m" transform="translate(27.00,175.03)" r="6.5"><circle class="node" r="6" node_type="nucleotide" style="fill: lightgreen;"></circle><text text-anchor="middle" font-size="8" font-weight="bold" y="2.5" class="node-label">A</text></g><g class="noselect gnode" struct_name="m" transform="translate(33.64,188.73)" r="6.5"><circle class="node" r="6" node_type="nucleotide" style="fill: lightsalmon;"></circle><text text-anchor="middle" font-size="8" font-weight="bold" y="2.5" class="node-label">A</text></g><g class="noselect gnode" struct_name="m" transform="translate(0.64,98.70)" r="6.5"><circle class="node label" r="6" node_type="label"></circle><text text-anchor="middle" font-size="8" font-weight="bold" y="2.5" class="node-label">10</text></g><g class="noselect gnode" struct_name="m" transform="translate(34.71,-19.25)" r="6.5"><circle class="node label" r="6" node_type="label"></circle><text text-anchor="middle" font-size="8" font-weight="bold" y="2.5" class="node-label">20</text></g><g class="noselect gnode" struct_name="m" transform="translate(53.24,-169.82)" r="6.5"><circle class="node label" r="6" node_type="label"></circle><text text-anchor="middle" font-size="8" font-weight="bold" y="2.5" class="node-label">30</text></g><g class="noselect gnode" struct_name="m" transform="translate(111.98,-89.31)" r="6.5"><circle class="node label" r="6" node_type="label"></circle><text text-anchor="middle" font-size="8" font-weight="bold" y="2.5" class="node-label">40</text></g><g class="noselect gnode" struct_name="m" transform="translate(46.30,52.46)" r="6.5"><circle class="node label" r="6" node_type="label"></circle><text text-anchor="middle" font-size="8" font-weight="bold" y="2.5" class="node-label">50</text></g><g class="noselect gnode" struct_name="m" transform="translate(47.98,194.53)" r="6.5"><circle class="node label" r="6" node_type="label"></circle><text text-anchor="middle" font-size="8" font-weight="bold" y="2.5" class="node-label">60</text></g><g class="noselect gnode" transform="translate(34.79,25.25)" r="6.5"><circle class="node" r="0" node_type="middle"></circle><text text-anchor="middle" font-size="8" font-weight="bold" y="2.5" class="node-label"></text></g><g class="noselect gnode" transform="translate(44.39,12.05)" r="6.5"><circle class="node" r="0" node_type="middle"></circle><text text-anchor="middle" font-size="8" font-weight="bold" y="2.5" class="node-label"></text></g><g class="noselect gnode" transform="translate(52.27,-2.19)" r="6.5"><circle class="node" r="0" node_type="middle"></circle><text text-anchor="middle" font-size="8" font-weight="bold" y="2.5" class="node-label"></text></g><g class="noselect gnode" transform="translate(58.58,-17.02)" r="6.5"><circle class="node" r="0" node_type="middle"></circle><text text-anchor="middle" font-size="8" font-weight="bold" y="2.5" class="node-label"></text></g><g class="noselect gnode" transform="translate(63.47,-32.31)" r="6.5"><circle class="node" r="0" node_type="middle"></circle><text text-anchor="middle" font-size="8" font-weight="bold" y="2.5" class="node-label"></text></g><g class="noselect gnode" transform="translate(67.55,-47.85)" r="6.5"><circle class="node" r="0" node_type="middle"></circle><text text-anchor="middle" font-size="8" font-weight="bold" y="2.5" class="node-label"></text></g><g class="noselect gnode" transform="translate(71.66,-63.31)" r="6.5"><circle class="node" r="0" node_type="middle"></circle><text text-anchor="middle" font-size="8" font-weight="bold" y="2.5" class="node-label"></text></g><g class="noselect gnode" transform="translate(78.21,-109.83)" r="6.5"><circle class="node" r="0" node_type="middle"></circle><text text-anchor="middle" font-size="8" font-weight="bold" y="2.5" class="node-label"></text></g><g class="noselect gnode" transform="translate(79.26,-125.94)" r="6.5"><circle class="node" r="0" node_type="middle"></circle><text text-anchor="middle" font-size="8" font-weight="bold" y="2.5" class="node-label"></text></g><g class="noselect gnode" transform="translate(81.60,-141.78)" r="6.5"><circle class="node" r="0" node_type="middle"></circle><text text-anchor="middle" font-size="8" font-weight="bold" y="2.5" class="node-label"></text></g><g class="noselect gnode" transform="translate(23.48,164.88)" r="6.5"><circle class="node" r="0" node_type="middle"></circle><text text-anchor="middle" font-size="8" font-weight="bold" y="2.5" class="node-label"></text></g><g class="noselect gnode" transform="translate(30.52,150.54)" r="6.5"><circle class="node" r="0" node_type="middle"></circle><text text-anchor="middle" font-size="8" font-weight="bold" y="2.5" class="node-label"></text></g><g class="noselect gnode" transform="translate(31.20,78.95)" r="6.5"><circle class="node" r="0" node_type="middle"></circle><text text-anchor="middle" font-size="8" font-weight="bold" y="2.5" class="node-label"></text></g><g class="noselect gnode" transform="translate(27.01,63.27)" r="6.5"><circle class="node" r="0" node_type="middle"></circle><text text-anchor="middle" font-size="8" font-weight="bold" y="2.5" class="node-label"></text></g><g class="noselect gnode" transform="translate(31.27,203.12)" r="6.5"><circle class="node" r="0" node_type="middle"></circle><text text-anchor="middle" font-size="8" font-weight="bold" y="2.5" class="node-label"></text></g><g class="noselect gnode" transform="translate(18.92,212.81)" r="6.5"><circle class="node" r="0" node_type="middle"></circle><text text-anchor="middle" font-size="8" font-weight="bold" y="2.5" class="node-label"></text></g><g class="noselect gnode" transform="translate(11.52,190.92)" r="6.5"><circle class="node" r="0" node_type="middle"></circle><text text-anchor="middle" font-size="8" font-weight="bold" y="2.5" class="node-label"></text></g><g class="noselect gnode" transform="translate(86.81,-167.39)" r="6.5"><circle class="node" r="0" node_type="middle"></circle><text text-anchor="middle" font-size="8" font-weight="bold" y="2.5" class="node-label"></text></g><g class="noselect gnode" transform="translate(79.59,-85.89)" r="6.5"><circle class="node" r="0" node_type="middle"></circle><text text-anchor="middle" font-size="8" font-weight="bold" y="2.5" class="node-label"></text></g><g class="noselect gnode" transform="translate(39.04,133.88)" r="6.5"><circle class="node" r="0" node_type="middle"></circle><text text-anchor="middle" font-size="8" font-weight="bold" y="2.5" class="node-label"></text></g><g class="noselect gnode" transform="translate(35.34,104.96)" r="6.5"><circle class="node" r="0" node_type="middle"></circle><text text-anchor="middle" font-size="8" font-weight="bold" y="2.5" class="node-label"></text></g><g class="noselect gnode" transform="translate(17.27,41.47)" r="6.5"><circle class="node" r="0" node_type="middle"></circle><text text-anchor="middle" font-size="8" font-weight="bold" y="2.5" class="node-label"></text></g></g><line class="drag_line" x1="0" y1="0" x2="0" y2="0"></line></g></g></svg>