<svg xmlns="http://www.w3.org/2000/svg" viewBox="0 0 760 640" width="760" height="640"><style>svg {
  display: block;
  min-width: 100%;
  width: 100%;
  min-height: 100%;
}

circle.node {
  stroke: #ccc;
  stroke-width: 1px;
  opacity: 1;
  fill: white;
}

circle.node.label {
    stroke: transparent;
    stroke-width: 0;
    fill: white;
}

circle.outline_node {
    stroke-width: 1px;
    fill: red;
}

circle.protein {
    fill: gray;
    fill-opacity: 0.5;
    stroke-width: 4;
}

circle.hidden_outline {
    stroke-width: 0px;
}


line.link {
  stroke: #999;
  stroke-opacity: 0.8;
  stroke-width: 2;
}

line.basepair {
  stroke: red;
}

line.intermolecule {
  stroke: blue;
}

line.chain_chain {
  stroke-dasharray: 3,3;
}

line.fake {
  stroke: green;
}

.transparent {
    fill: transparent;
    stroke-width: 0;
    stroke-opacity: 0;
    opacity: 0;
    visibility: hidden;
}

.drag_line {
  stroke: #999;
  stroke-width: 2;
  pointer-events: none;
}

.drag_line_hidden {
  stroke: #999;
  stroke-width: 0;
  pointer-events: none;
}

.d3-tip {
    line-height: 1;
    font-weight: bold;
    padding: 6px;
    background: rgba(0, 0, 0, 0.6);
    color: #fff;
    border-radius: 4px;
    pointer-events: none;
          }

text.node-label {
    font-weight: bold;
    font-family: Tahoma, Geneva, sans-serif;
    color: rgb(100,100,100);
    pointer-events: none;
}

text {
    pointer-events: none;
}

g.gnode {

}

circle.outline_node.selected {
    visibility: visible;
}

circle.outline_node {
    visibility: hidden;
}

.brush .extent {
  fill-opacity: .1;
  stroke: #fff;
  shape-rendering: crispEdges;
}

.noselect {
    -webkit-touch-callout: none;
    -webkit-user-select: none;
    -khtml-user-select: none;
    -moz-user-select: none;
    -ms-user-select: none;
    user-select: none;
}

svg {
  display: block;
  min-width: 100%;
  width: 100%;
  min-height: 100%;
}

circle.node {
  stroke: #ccc;
  stroke-width: 1px;
  opacity: 1;
  fill: white;
}

circle.node.label {
    stroke: transparent;
    stroke-width: 0;
    fill: white;
}

circle.outline_node {
    stroke-width: 1px;
    fill: red;
}

circle.protein {
    fill: gray;
    fill-opacity: 0.5;
    stroke-width: 4;
}

circle.hidden_outline {
    stroke-width: 0px;
}


line.link {
  stroke: #999;
  stroke-opacity: 0.8;
  stroke-width: 2;
}

line.basepair {
  stroke: red;
}

line.intermolecule {
  stroke: blue;
}

line.chain_chain {
  stroke-dasharray: 3,3;
}

line.fake {
  stroke: green;
}

.transparent {
    fill: transparent;
    stroke-width: 0;
    stroke-opacity: 0;
    opacity: 0;
    visibility: hidden;
}

.drag_line {
  stroke: #999;
  stroke-width: 2;
  pointer-events: none;
}

.drag_line_hidden {
  stroke: #999;
  stroke-width: 0;
  pointer-events: none;
}

.d3-tip {
    line-height: 1;
    font-weight: bold;
    padding: 6px;
    background: rgba(0, 0, 0, 0.6);
    color: #fff;
    border-radius: 4px;
    pointer-events: none;
          }

text.node-label {
    font-weight: bold;
    font-family: Tahoma, Geneva, sans-serif;
    color: rgb(100,100,100);
    pointer-events: none;
}

text {
    pointer-events: none;
}

g.gnode {

}

circle.outline_node.selected {
    visibility: visible;
}

circle.outline_node {
    visibility: hidden;
}

.brush .extent {
  fill-opacity: .1;
  stroke: #fff;
  shape-rendering: crispEdges;
}

.noselect {
    -webkit-touch-callout: none;
    -webkit-user-select: none;
    -khtml-user-select: none;
    -moz-user-select: none;
    -ms-user-select: none;
    user-select: none;
}
/*# sourceURL=/Users/yumanakamura/ipy_sandbox/sandbox/claude_sandbox/mrna-transformer/scripts/eval/prerender/forna_vendor/fornac.css*/</style><style></style><g><g class="brush" style="pointer-events: all; -webkit-tap-highlight-color: rgba(0, 0, 0, 0);"><rect class="background" x="0" width="760" y="0" height="640" style="visibility: hidden; cursor: auto;"></rect><rect class="extent" x="0" width="0" y="0" height="0" style="cursor: move;"></rect><g class="resize n" transform="translate(0,0)" style="cursor: ns-resize; display: none;"><rect y="-3" width="0" height="6" style="visibility: hidden;"></rect></g><g class="resize e" transform="translate(0,0)" style="cursor: ew-resize; display: none;"><rect x="-3" width="6" height="0" style="visibility: hidden;"></rect></g><g class="resize s" transform="translate(0,0)" style="cursor: ns-resize; display: none;"><rect y="-3" width="0" height="6" style="visibility: hidden;"></rect></g><g class="resize w" transform="translate(0,0)" style="cursor: ew-resize; display: none;"><rect x="-3" width="6" height="0" style="visibility: hidden;"></rect></g><g class="resize nw" transform="translate(0,0)" style="cursor: nwse-resize; display: none;"><rect x="-3" y="-3" width="6" height="6" style="visibility: hidden;"></rect></g><g class="resize ne" transform="translate(0,0)" style="cursor: nesw-resize; display: none;"><rect x="-3" y="-3" width="6" height="6" style="visibility: hidden;"></rect></g><g class="resize se" transform="translate(0,0)" style="cursor: nwse-resize; display: none;"><rect x="-3" y="-3" width="6" height="6" style="visibility: hidden;"></rect></g><g class="resize sw" transform="translate(0,0)" style="cursor: nesw-resize; display: none;"><rect x="-3" y="-3" width="6" height="6" style="visibility: hidden;"></rect></g></g><g transform="translate(129.33,110.63) scale(1.65)"><g><line class="link backbone" x1="90.39" y1="260.27" x2="83.83" y2="273.69"></line><line class="link backbone" x1="83.83" y1="273.69" x2="73.09" y2="283.93"></line><line class="link backbone" x1="73.09" y1="283.93" x2="59.53" y2="290.08"></line><line class="link backbone" x1="59.53" y1="290.08" x2="44.63" y2="291.23"></line><line class="link backbone" x1="44.63" y1="291.23" x2="30.39" y2="286.81"></line><line class="link backbone" x1="30.39" y1="286.81" x2="18.06" y2="278.49"></line><line class="link backbone" x1="18.06" y1="278.49" x2="9.26" y2="266.37"></line><line class="link backbone" x1="9.26" y1="266.37" x2="5.53" y2="251.87"></line><line class="link backbone" x1="5.53" y1="251.87" x2="6.98" y2="236.98"></line><line class="link backbone" x1="6.98" y1="236.98" x2="13.30" y2="223.40"></line><line class="link backbone" x1="13.30" y1="223.40" x2="23.71" y2="212.75"></line><line class="link backbone" x1="23.71" y1="212.75" x2="37.37" y2="206.38"></line><line class="link backbone" x1="37.37" y1="206.38" x2="52.20" y2="205.03"></line><line class="link basepair" x1="67.21" y1="208.30" x2="79.16" y2="217.24"></line><line class="link backbone" x1="52.20" y1="205.03" x2="67.21" y2="208.30"></line><line class="link basepair" x1="77.72" y1="195.72" x2="88.68" y2="205.36"></line><line class="link backbone" x1="67.21" y1="208.30" x2="77.72" y2="195.72"></line><line class="link basepair" x1="88.97" y1="183.79" x2="99.36" y2="194.11"></line><line class="link backbone" x1="77.72" y1="195.72" x2="88.97" y2="183.79"></line><line class="link basepair" x1="100.56" y1="172.58" x2="110.66" y2="183.24"></line><line class="link backbone" x1="88.97" y1="183.79" x2="100.56" y2="172.58"></line><line class="link basepair" x1="112.13" y1="161.75" x2="122.23" y2="172.41"></line><line class="link backbone" x1="100.56" y1="172.58" x2="112.13" y2="161.75"></line><line class="link basepair" x1="123.46" y1="150.84" x2="133.81" y2="161.26"></line><line class="link backbone" x1="112.13" y1="161.75" x2="123.46" y2="150.84"></line><line class="link basepair" x1="134.36" y1="139.66" x2="145.06" y2="149.69"></line><line class="link backbone" x1="123.46" y1="150.84" x2="134.36" y2="139.66"></line><line class="link basepair" x1="144.90" y1="128.05" x2="155.89" y2="137.78"></line><line class="link backbone" x1="134.36" y1="139.66" x2="144.90" y2="128.05"></line><line class="link basepair" x1="155.18" y1="116.14" x2="166.35" y2="125.66"></line><line class="link backbone" x1="144.90" y1="128.05" x2="155.18" y2="116.14"></line><line class="link basepair" x1="165.27" y1="104.04" x2="176.60" y2="113.62"></line><line class="link backbone" x1="155.18" y1="116.14" x2="165.27" y2="104.04"></line><line class="link backbone" x1="165.27" y1="104.04" x2="167.97" y2="88.99"></line><line class="link basepair" x1="182.39" y1="83.87" x2="193.64" y2="93.50"></line><line class="link backbone" x1="167.97" y1="88.99" x2="182.39" y2="83.87"></line><line class="link basepair" x1="193.01" y1="71.89" x2="203.91" y2="81.59"></line><line class="link backbone" x1="182.39" y1="83.87" x2="193.01" y2="71.89"></line><line class="link basepair" x1="203.87" y1="59.92" x2="214.63" y2="69.70"></line><line class="link backbone" x1="193.01" y1="71.89" x2="203.87" y2="59.92"></line><line class="link basepair" x1="214.74" y1="48.02" x2="225.50" y2="57.76"></line><line class="link backbone" x1="203.87" y1="59.92" x2="214.74" y2="48.02"></line><line class="link basepair" x1="225.45" y1="36.06" x2="236.35" y2="45.70"></line><line class="link backbone" x1="214.74" y1="48.02" x2="225.45" y2="36.06"></line><line class="link basepair" x1="235.95" y1="24.00" x2="246.99" y2="33.47"></line><line class="link backbone" x1="225.45" y1="36.06" x2="235.95" y2="24.00"></line><line class="link basepair" x1="245.93" y1="11.83" x2="257.43" y2="21.40"></line><line class="link backbone" x1="235.95" y1="24.00" x2="245.93" y2="11.83"></line><line class="link backbone" x1="245.93" y1="11.83" x2="240.94" y2="-2.70"></line><line class="link backbone" x1="240.94" y1="-2.70" x2="243.39" y2="-17.41"></line><line class="link backbone" x1="243.39" y1="-17.41" x2="252.88" y2="-29.11"></line><line class="link backbone" x1="252.88" y1="-29.11" x2="266.96" y2="-34.33"></line><line class="link backbone" x1="266.96" y1="-34.33" x2="281.67" y2="-31.54"></line><line class="link backbone" x1="281.67" y1="-31.54" x2="293.22" y2="-22.10"></line><line class="link backbone" x1="293.22" y1="-22.10" x2="298.74" y2="-8.16"></line><line class="link backbone" x1="298.74" y1="-8.16" x2="296.30" y2="6.68"></line><line class="link backbone" x1="296.30" y1="6.68" x2="286.60" y2="18.25"></line><line class="link backbone" x1="286.60" y1="18.25" x2="272.66" y2="23.49"></line><line class="link basepair" x1="257.43" y1="21.40" x2="245.93" y2="11.83"></line><line class="link backbone" x1="272.66" y1="23.49" x2="257.43" y2="21.40"></line><line class="link basepair" x1="246.99" y1="33.47" x2="235.95" y2="24.00"></line><line class="link backbone" x1="257.43" y1="21.40" x2="246.99" y2="33.47"></line><line class="link basepair" x1="236.35" y1="45.70" x2="225.45" y2="36.06"></line><line class="link backbone" x1="246.99" y1="33.47" x2="236.35" y2="45.70"></line><line class="link basepair" x1="225.50" y1="57.76" x2="214.74" y2="48.02"></line><line class="link backbone" x1="236.35" y1="45.70" x2="225.50" y2="57.76"></line><line class="link basepair" x1="214.63" y1="69.70" x2="203.87" y2="59.92"></line><line class="link backbone" x1="225.50" y1="57.76" x2="214.63" y2="69.70"></line><line class="link basepair" x1="203.91" y1="81.59" x2="193.01" y2="71.89"></line><line class="link backbone" x1="214.63" y1="69.70" x2="203.91" y2="81.59"></line><line class="link basepair" x1="193.64" y1="93.50" x2="182.39" y2="83.87"></line><line class="link backbone" x1="203.91" y1="81.59" x2="193.64" y2="93.50"></line><line class="link backbone" x1="193.64" y1="93.50" x2="190.99" y2="108.50"></line><line class="link basepair" x1="176.60" y1="113.62" x2="165.27" y2="104.04"></line><line class="link backbone" x1="190.99" y1="108.50" x2="176.60" y2="113.62"></line><line class="link basepair" x1="166.35" y1="125.66" x2="155.18" y2="116.14"></line><line class="link backbone" x1="176.60" y1="113.62" x2="166.35" y2="125.66"></line><line class="link basepair" x1="155.89" y1="137.78" x2="144.90" y2="128.05"></line><line class="link backbone" x1="166.35" y1="125.66" x2="155.89" y2="137.78"></line><line class="link basepair" x1="145.06" y1="149.69" x2="134.36" y2="139.66"></line><line class="link backbone" x1="155.89" y1="137.78" x2="145.06" y2="149.69"></line><line class="link basepair" x1="133.81" y1="161.26" x2="123.46" y2="150.84"></line><line class="link backbone" x1="145.06" y1="149.69" x2="133.81" y2="161.26"></line><line class="link basepair" x1="122.23" y1="172.41" x2="112.13" y2="161.75"></line><line class="link backbone" x1="133.81" y1="161.26" x2="122.23" y2="172.41"></line><line class="link basepair" x1="110.66" y1="183.24" x2="100.56" y2="172.58"></line><line class="link backbone" x1="122.23" y1="172.41" x2="110.66" y2="183.24"></line><line class="link basepair" x1="99.36" y1="194.11" x2="88.97" y2="183.79"></line><line class="link backbone" x1="110.66" y1="183.24" x2="99.36" y2="194.11"></line><line class="link basepair" x1="88.68" y1="205.36" x2="77.72" y2="195.72"></line><line class="link backbone" x1="99.36" y1="194.11" x2="88.68" y2="205.36"></line><line class="link basepair" x1="79.16" y1="217.24" x2="67.21" y2="208.30"></line><line class="link backbone" x1="88.68" y1="205.36" x2="79.16" y2="217.24"></line><line class="link label_link" x1="6.98" y1="236.98" x2="-7.27" y2="231.23"></line><line class="link label_link" x1="123.46" y1="150.84" x2="112.80" y2="139.46"></line><line class="link label_link" x1="225.45" y1="36.06" x2="214.00" y2="25.48"></line><line class="link label_link" x1="296.30" y1="6.68" x2="310.72" y2="12.20"></line><line class="link label_link" x1="190.99" y1="108.50" x2="204.38" y2="116.56"></line><line class="link label_link" x1="79.16" y1="217.24" x2="92.67" y2="224.72"></line><line class="link fake transparent" x1="67.21" y1="208.30" x2="77.87" y2="206.55"></line><line class="link fake transparent" x1="67.21" y1="208.30" x2="88.68" y2="205.36"></line><line class="link fake transparent" x1="77.72" y1="195.72" x2="77.87" y2="206.55"></line><line class="link fake transparent" x1="88.68" y1="205.36" x2="77.87" y2="206.55"></line><line class="link fake transparent" x1="79.16" y1="217.24" x2="77.87" y2="206.55"></line><line class="link fake transparent" x1="77.72" y1="195.72" x2="88.50" y2="194.56"></line><line class="link fake transparent" x1="88.97" y1="183.79" x2="88.50" y2="194.56"></line><line class="link fake transparent" x1="99.36" y1="194.11" x2="88.50" y2="194.56"></line><line class="link fake transparent" x1="88.68" y1="205.36" x2="88.50" y2="194.56"></line><line class="link fake transparent" x1="88.97" y1="183.79" x2="99.83" y2="183.30"></line><line class="link fake transparent" x1="100.56" y1="172.58" x2="99.83" y2="183.30"></line><line class="link fake transparent" x1="110.66" y1="183.24" x2="99.83" y2="183.30"></line><line class="link fake transparent" x1="99.36" y1="194.11" x2="99.83" y2="183.30"></line><line class="link fake transparent" x1="100.56" y1="172.58" x2="111.42" y2="172.47"></line><line class="link fake transparent" x1="112.13" y1="161.75" x2="111.42" y2="172.47"></line><line class="link fake transparent" x1="122.23" y1="172.41" x2="111.42" y2="172.47"></line><line class="link fake transparent" x1="110.66" y1="183.24" x2="111.42" y2="172.47"></line><line class="link fake transparent" x1="112.13" y1="161.75" x2="122.99" y2="161.65"></line><line class="link fake transparent" x1="123.46" y1="150.84" x2="122.99" y2="161.65"></line><line class="link fake transparent" x1="133.81" y1="161.26" x2="122.99" y2="161.65"></line><line class="link fake transparent" x1="122.23" y1="172.41" x2="122.99" y2="161.65"></line><line class="link fake transparent" x1="123.46" y1="150.84" x2="134.30" y2="150.45"></line><line class="link fake transparent" x1="134.36" y1="139.66" x2="134.30" y2="150.45"></line><line class="link fake transparent" x1="145.06" y1="149.69" x2="134.30" y2="150.45"></line><line class="link fake transparent" x1="133.81" y1="161.26" x2="134.30" y2="150.45"></line><line class="link fake transparent" x1="134.36" y1="139.66" x2="145.15" y2="138.89"></line><line class="link fake transparent" x1="144.90" y1="128.05" x2="145.15" y2="138.89"></line><line class="link fake transparent" x1="155.89" y1="137.78" x2="145.15" y2="138.89"></line><line class="link fake transparent" x1="145.06" y1="149.69" x2="145.15" y2="138.89"></line><line class="link fake transparent" x1="144.90" y1="128.05" x2="155.64" y2="126.95"></line><line class="link fake transparent" x1="155.18" y1="116.14" x2="155.64" y2="126.95"></line><line class="link fake transparent" x1="166.35" y1="125.66" x2="155.64" y2="126.95"></line><line class="link fake transparent" x1="155.89" y1="137.78" x2="155.64" y2="126.95"></line><line class="link fake transparent" x1="155.18" y1="116.14" x2="165.87" y2="114.86"></line><line class="link fake transparent" x1="165.27" y1="104.04" x2="165.87" y2="114.86"></line><line class="link fake transparent" x1="176.60" y1="113.62" x2="165.87" y2="114.86"></line><line class="link fake transparent" x1="166.35" y1="125.66" x2="165.87" y2="114.86"></line><line class="link fake transparent" x1="182.39" y1="83.87" x2="193.17" y2="82.64"></line><line class="link fake transparent" x1="193.01" y1="71.89" x2="193.17" y2="82.64"></line><line class="link fake transparent" x1="203.91" y1="81.59" x2="193.17" y2="82.64"></line><line class="link fake transparent" x1="193.64" y1="93.50" x2="193.17" y2="82.64"></line><line class="link fake transparent" x1="193.01" y1="71.89" x2="203.83" y2="70.74"></line><line class="link fake transparent" x1="203.87" y1="59.92" x2="203.83" y2="70.74"></line><line class="link fake transparent" x1="214.63" y1="69.70" x2="203.83" y2="70.74"></line><line class="link fake transparent" x1="203.91" y1="81.59" x2="203.83" y2="70.74"></line><line class="link fake transparent" x1="203.87" y1="59.92" x2="214.69" y2="58.86"></line><line class="link fake transparent" x1="214.74" y1="48.02" x2="214.69" y2="58.86"></line><line class="link fake transparent" x1="225.50" y1="57.76" x2="214.69" y2="58.86"></line><line class="link fake transparent" x1="214.63" y1="69.70" x2="214.69" y2="58.86"></line><line class="link fake transparent" x1="214.74" y1="48.02" x2="225.56" y2="46.92"></line><line class="link fake transparent" x1="225.45" y1="36.06" x2="225.56" y2="46.92"></line><line class="link fake transparent" x1="236.35" y1="45.70" x2="225.56" y2="46.92"></line><line class="link fake transparent" x1="225.50" y1="57.76" x2="225.56" y2="46.92"></line><line class="link fake transparent" x1="225.45" y1="36.06" x2="236.26" y2="34.84"></line><line class="link fake transparent" x1="235.95" y1="24.00" x2="236.26" y2="34.84"></line><line class="link fake transparent" x1="246.99" y1="33.47" x2="236.26" y2="34.84"></line><line class="link fake transparent" x1="236.35" y1="45.70" x2="236.26" y2="34.84"></line><line class="link fake transparent" x1="235.95" y1="24.00" x2="246.69" y2="22.64"></line><line class="link fake transparent" x1="245.93" y1="11.83" x2="246.69" y2="22.64"></line><line class="link fake transparent" x1="257.43" y1="21.40" x2="246.69" y2="22.64"></line><line class="link fake transparent" x1="246.99" y1="33.47" x2="246.69" y2="22.64"></line><line class="link fake transparent" x1="90.39" y1="260.27" x2="48.84" y2="248.00"></line><line class="link fake transparent" x1="90.39" y1="260.27" x2="6.98" y2="236.98"></line><line class="link fake transparent" x1="83.83" y1="273.69" x2="48.84" y2="248.00"></line><line class="link fake transparent" x1="83.83" y1="273.69" x2="13.30" y2="223.40"></line><line class="link fake transparent" x1="73.09" y1="283.93" x2="48.84" y2="248.00"></line><line class="link fake transparent" x1="73.09" y1="283.93" x2="23.71" y2="212.75"></line><line class="link fake transparent" x1="59.53" y1="290.08" x2="48.84" y2="248.00"></line><line class="link fake transparent" x1="59.53" y1="290.08" x2="37.37" y2="206.38"></line><line class="link fake transparent" x1="44.63" y1="291.23" x2="48.84" y2="248.00"></line><line class="link fake transparent" x1="44.63" y1="291.23" x2="52.20" y2="205.03"></line><line class="link fake transparent" x1="30.39" y1="286.81" x2="48.84" y2="248.00"></line><line class="link fake transparent" x1="30.39" y1="286.81" x2="67.21" y2="208.30"></line><line class="link fake transparent" x1="18.06" y1="278.49" x2="48.84" y2="248.00"></line><line class="link fake transparent" x1="18.06" y1="278.49" x2="79.16" y2="217.24"></line><line class="link fake transparent" x1="9.26" y1="266.37" x2="48.84" y2="248.00"></line><line class="link fake transparent" x1="9.26" y1="266.37" x2="87.52" y2="230.37"></line><line class="link fake transparent" x1="5.53" y1="251.87" x2="48.84" y2="248.00"></line><line class="link fake transparent" x1="5.53" y1="251.87" x2="91.70" y2="244.44"></line><line class="link fake transparent" x1="6.98" y1="236.98" x2="48.84" y2="248.00"></line><line class="link fake transparent" x1="6.98" y1="236.98" x2="90.39" y2="260.27"></line><line class="link fake transparent" x1="13.30" y1="223.40" x2="48.84" y2="248.00"></line><line class="link fake transparent" x1="13.30" y1="223.40" x2="83.83" y2="273.69"></line><line class="link fake transparent" x1="23.71" y1="212.75" x2="48.84" y2="248.00"></line><line class="link fake transparent" x1="23.71" y1="212.75" x2="73.09" y2="283.93"></line><line class="link fake transparent" x1="37.37" y1="206.38" x2="48.84" y2="248.00"></line><line class="link fake transparent" x1="37.37" y1="206.38" x2="59.53" y2="290.08"></line><line class="link fake transparent" x1="52.20" y1="205.03" x2="48.84" y2="248.00"></line><line class="link fake transparent" x1="52.20" y1="205.03" x2="44.63" y2="291.23"></line><line class="link fake transparent" x1="67.21" y1="208.30" x2="48.84" y2="248.00"></line><line class="link fake transparent" x1="67.21" y1="208.30" x2="30.39" y2="286.81"></line><line class="link fake transparent" x1="79.16" y1="217.24" x2="48.84" y2="248.00"></line><line class="link fake transparent" x1="79.16" y1="217.24" x2="18.06" y2="278.49"></line><line class="link fake transparent" x1="245.93" y1="11.83" x2="269.63" y2="-5.18"></line><line class="link fake transparent" x1="245.93" y1="11.83" x2="293.22" y2="-22.10"></line><line class="link fake transparent" x1="240.94" y1="-2.70" x2="269.63" y2="-5.18"></line><line class="link fake transparent" x1="240.94" y1="-2.70" x2="298.74" y2="-8.16"></line><line class="link fake transparent" x1="243.39" y1="-17.41" x2="269.63" y2="-5.18"></line><line class="link fake transparent" x1="243.39" y1="-17.41" x2="296.30" y2="6.68"></line><line class="link fake transparent" x1="252.88" y1="-29.11" x2="269.63" y2="-5.18"></line><line class="link fake transparent" x1="252.88" y1="-29.11" x2="286.60" y2="18.25"></line><line class="link fake transparent" x1="266.96" y1="-34.33" x2="269.63" y2="-5.18"></line><line class="link fake transparent" x1="266.96" y1="-34.33" x2="272.66" y2="23.49"></line><line class="link fake transparent" x1="281.67" y1="-31.54" x2="269.63" y2="-5.18"></line><line class="link fake transparent" x1="281.67" y1="-31.54" x2="257.43" y2="21.40"></line><line class="link fake transparent" x1="293.22" y1="-22.10" x2="269.63" y2="-5.18"></line><line class="link fake transparent" x1="293.22" y1="-22.10" x2="245.93" y2="11.83"></line><line class="link fake transparent" x1="298.74" y1="-8.16" x2="269.63" y2="-5.18"></line><line class="link fake transparent" x1="298.74" y1="-8.16" x2="240.94" y2="-2.70"></line><line class="link fake transparent" x1="296.30" y1="6.68" x2="269.63" y2="-5.18"></line><line class="link fake transparent" x1="296.30" y1="6.68" x2="243.39" y2="-17.41"></line><line class="link fake transparent" x1="286.60" y1="18.25" x2="269.63" y2="-5.18"></line><line class="link fake transparent" x1="286.60" y1="18.25" x2="252.88" y2="-29.11"></line><line class="link fake transparent" x1="272.66" y1="23.49" x2="269.63" y2="-5.18"></line><line class="link fake transparent" x1="272.66" y1="23.49" x2="266.96" y2="-34.33"></line><line class="link fake transparent" x1="257.43" y1="21.40" x2="269.63" y2="-5.18"></line><line class="link fake transparent" x1="257.43" y1="21.40" x2="281.67" y2="-31.54"></line><line class="link fake transparent" x1="165.27" y1="104.04" x2="179.46" y2="98.73"></line><line class="link fake transparent" x1="165.27" y1="104.04" x2="193.64" y2="93.50"></line><line class="link fake transparent" x1="167.97" y1="88.99" x2="179.46" y2="98.73"></line><line class="link fake transparent" x1="167.97" y1="88.99" x2="190.99" y2="108.50"></line><line class="link fake transparent" x1="182.39" y1="83.87" x2="179.46" y2="98.73"></line><line class="link fake transparent" x1="182.39" y1="83.87" x2="176.60" y2="113.62"></line><line class="link fake transparent" x1="193.64" y1="93.50" x2="179.46" y2="98.73"></line><line class="link fake transparent" x1="193.64" y1="93.50" x2="165.27" y2="104.04"></line><line class="link fake transparent" x1="190.99" y1="108.50" x2="179.46" y2="98.73"></line><line class="link fake transparent" x1="190.99" y1="108.50" x2="167.97" y2="88.99"></line><line class="link fake transparent" x1="176.60" y1="113.62" x2="179.46" y2="98.73"></line><line class="link fake transparent" x1="176.60" y1="113.62" x2="182.39" y2="83.87"></line></g><g><g class="noselect gnode" struct_name="m" transform="translate(90.39,260.27)" r="6.5"><circle class="node" r="6" node_type="nucleotide" style="fill: lightsalmon;"></circle><text text-anchor="middle" font-size="8" font-weight="bold" y="2.5" class="node-label">G</text></g><g class="noselect gnode" struct_name="m" transform="translate(83.83,273.69)" r="6.5"><circle class="node" r="6" node_type="nucleotide" style="fill: lightsalmon;"></circle><text text-anchor="middle" font-size="8" font-weight="bold" y="2.5" class="node-label">U</text></g><g class="noselect gnode" struct_name="m" transform="translate(73.09,283.93)" r="6.5"><circle class="node" r="6" node_type="nucleotide" style="fill: lightsalmon;"></circle><text text-anchor="middle" font-size="8" font-weight="bold" y="2.5" class="node-label">U</text></g><g class="noselect gnode" struct_name="m" transform="translate(59.53,290.08)" r="6.5"><circle class="node" r="6" node_type="nucleotide" style="fill: lightsalmon;"></circle><text text-anchor="middle" font-size="8" font-weight="bold" y="2.5" class="node-label">A</text></g><g class="noselect gnode" struct_name="m" transform="translate(44.63,291.23)" r="6.5"><circle class="node" r="6" node_type="nucleotide" style="fill: lightsalmon;"></circle><text text-anchor="middle" font-size="8" font-weight="bold" y="2.5" class="node-label">U</text></g><g class="noselect gnode" struct_name="m" transform="translate(30.39,286.81)" r="6.5"><circle class="node" r="6" node_type="nucleotide" style="fill: lightsalmon;"></circle><text text-anchor="middle" font-size="8" font-weight="bold" y="2.5" class="node-label">G</text></g><g class="noselect gnode" struct_name="m" transform="translate(18.06,278.49)" r="6.5"><circle class="node" r="6" node_type="nucleotide" style="fill: lightsalmon;"></circle><text text-anchor="middle" font-size="8" font-weight="bold" y="2.5" class="node-label">A</text></g><g class="noselect gnode" struct_name="m" transform="translate(9.26,266.37)" r="6.5"><circle class="node" r="6" node_type="nucleotide" style="fill: lightsalmon;"></circle><text text-anchor="middle" font-size="8" font-weight="bold" y="2.5" class="node-label">C</text></g><g class="noselect gnode" struct_name="m" transform="translate(5.53,251.87)" r="6.5"><circle class="node" r="6" node_type="nucleotide" style="fill: lightsalmon;"></circle><text text-anchor="middle" font-size="8" font-weight="bold" y="2.5" class="node-label">U</text></g><g class="noselect gnode" struct_name="m" transform="translate(6.98,236.98)" r="6.5"><circle class="node" r="6" node_type="nucleotide" style="fill: lightsalmon;"></circle><text text-anchor="middle" font-size="8" font-weight="bold" y="2.5" class="node-label">A</text></g><g class="noselect gnode" struct_name="m" transform="translate(13.30,223.40)" r="6.5"><circle class="node" r="6" node_type="nucleotide" style="fill: lightsalmon;"></circle><text text-anchor="middle" font-size="8" font-weight="bold" y="2.5" class="node-label">U</text></g><g class="noselect gnode" struct_name="m" transform="translate(23.71,212.75)" r="6.5"><circle class="node" r="6" node_type="nucleotide" style="fill: lightsalmon;"></circle><text text-anchor="middle" font-size="8" font-weight="bold" y="2.5" class="node-label">G</text></g><g class="noselect gnode" struct_name="m" transform="translate(37.37,206.38)" r="6.5"><circle class="node" r="6" node_type="nucleotide" style="fill: lightsalmon;"></circle><text text-anchor="middle" font-size="8" font-weight="bold" y="2.5" class="node-label">U</text></g><g class="noselect gnode" struct_name="m" transform="translate(52.20,205.03)" r="6.5"><circle class="node" r="6" node_type="nucleotide" style="fill: lightsalmon;"></circle><text text-anchor="middle" font-size="8" font-weight="bold" y="2.5" class="node-label">C</text></g><g class="noselect gnode" struct_name="m" transform="translate(67.21,208.30)" r="6.5"><circle class="node" r="6" node_type="nucleotide" style="fill: lightgreen;"></circle><text text-anchor="middle" font-size="8" font-weight="bold" y="2.5" class="node-label">G</text></g><g class="noselect gnode" struct_name="m" transform="translate(77.72,195.72)" r="6.5"><circle class="node" r="6" node_type="nucleotide" style="fill: lightgreen;"></circle><text text-anchor="middle" font-size="8" font-weight="bold" y="2.5" class="node-label">U</text></g><g class="noselect gnode" struct_name="m" transform="translate(88.97,183.79)" r="6.5"><circle class="node" r="6" node_type="nucleotide" style="fill: lightgreen;"></circle><text text-anchor="middle" font-size="8" font-weight="bold" y="2.5" class="node-label">U</text></g><g class="noselect gnode" struct_name="m" transform="translate(100.56,172.58)" r="6.5"><circle class="node" r="6" node_type="nucleotide" style="fill: lightgreen;"></circle><text text-anchor="middle" font-size="8" font-weight="bold" y="2.5" class="node-label">C</text></g><g class="noselect gnode" struct_name="m" transform="translate(112.13,161.75)" r="6.5"><circle class="node" r="6" node_type="nucleotide" style="fill: lightgreen;"></circle><text text-anchor="middle" font-size="8" font-weight="bold" y="2.5" class="node-label">G</text></g><g class="noselect gnode" struct_name="m" transform="translate(123.46,150.84)" r="6.5"><circle class="node" r="6" node_type="nucleotide" style="fill: lightgreen;"></circle><text text-anchor="middle" font-size="8" font-weight="bold" y="2.5" class="node-label">U</text></g><g class="noselect gnode" struct_name="m" transform="translate(134.36,139.66)" r="6.5"><circle class="node" r="6" node_type="nucleotide" style="fill: lightgreen;"></circle><text text-anchor="middle" font-size="8" font-weight="bold" y="2.5" class="node-label">G</text></g><g class="noselect gnode" struct_name="m" transform="translate(144.90,128.05)" r="6.5"><circle class="node" r="6" node_type="nucleotide" style="fill: lightgreen;"></circle><text text-anchor="middle" font-size="8" font-weight="bold" y="2.5" class="node-label">A</text></g><g class="noselect gnode" struct_name="m" transform="translate(155.18,116.14)" r="6.5"><circle class="node" r="6" node_type="nucleotide" style="fill: lightgreen;"></circle><text text-anchor="middle" font-size="8" font-weight="bold" y="2.5" class="node-label">A</text></g><g class="noselect gnode" struct_name="m" transform="translate(165.27,104.04)" r="6.5"><circle class="node" r="6" node_type="nucleotide" style="fill: lightgreen;"></circle><text text-anchor="middle" font-size="8" font-weight="bold" y="2.5" class="node-label">G</text></g><g class="noselect gnode" struct_name="m" transform="translate(167.97,88.99)" r="6.5"><circle class="node" r="6" node_type="nucleotide" style="fill: rgb(219, 219, 141);"></circle><text text-anchor="middle" font-size="8" font-weight="bold" y="2.5" class="node-label">U</text></g><g class="noselect gnode" struct_name="m" transform="translate(182.39,83.87)" r="6.5"><circle class="node" r="6" node_type="nucleotide" style="fill: lightgreen;"></circle><text text-anchor="middle" font-size="8" font-weight="bold" y="2.5" class="node-label">U</text></g><g class="noselect gnode" struct_name="m" transform="translate(193.01,71.89)" r="6.5"><circle class="node" r="6" node_type="nucleotide" style="fill: lightgreen;"></circle><text text-anchor="middle" font-size="8" font-weight="bold" y="2.5" class="node-label">C</text></g><g class="noselect gnode" struct_name="m" transform="translate(203.87,59.92)" r="6.5"><circle class="node" r="6" node_type="nucleotide" style="fill: lightgreen;"></circle><text text-anchor="middle" font-size="8" font-weight="bold" y="2.5" class="node-label">C</text></g><g class="noselect gnode" struct_name="m" transform="translate(214.74,48.02)" r="6.5"><circle class="node" r="6" node_type="nucleotide" style="fill: lightgreen;"></circle><text text-anchor="middle" font-size="8" font-weight="bold" y="2.5" class="node-label">C</text></g><g class="noselect gnode" struct_name="m" transform="translate(225.45,36.06)" r="6.5"><circle class="node" r="6" node_type="nucleotide" style="fill: lightgreen;"></circle><text text-anchor="middle" font-size="8" font-weight="bold" y="2.5" class="node-label">C</text></g><g class="noselect gnode" struct_name="m" transform="translate(235.95,24.00)" r="6.5"><circle class="node" r="6" node_type="nucleotide" style="fill: lightgreen;"></circle><text text-anchor="middle" font-size="8" font-weight="bold" y="2.5" class="node-label">A</text></g><g class="noselect gnode" struct_name="m" transform="translate(245.93,11.83)" r="6.5"><circle class="node" r="6" node_type="nucleotide" style="fill: lightgreen;"></circle><text text-anchor="middle" font-size="8" font-weight="bold" y="2.5" class="node-label">A</text></g><g class="noselect gnode" struct_name="m" transform="translate(240.94,-2.70)" r="6.5"><circle class="node" r="6" node_type="nucleotide" style="fill: lightblue;"></circle><text text-anchor="middle" font-size="8" font-weight="bold" y="2.5" class="node-label">U</text></g><g class="noselect gnode" struct_name="m" transform="translate(243.39,-17.41)" r="6.5"><circle class="node" r="6" node_type="nucleotide" style="fill: lightblue;"></circle><text text-anchor="middle" font-size="8" font-weight="bold" y="2.5" class="node-label">A</text></g><g class="noselect gnode" struct_name="m" transform="translate(252.88,-29.11)" r="6.5"><circle class="node" r="6" node_type="nucleotide" style="fill: lightblue;"></circle><text text-anchor="middle" font-size="8" font-weight="bold" y="2.5" class="node-label">U</text></g><g class="noselect gnode" struct_name="m" transform="translate(266.96,-34.33)" r="6.5"><circle class="node" r="6" node_type="nucleotide" style="fill: lightblue;"></circle><text text-anchor="middle" font-size="8" font-weight="bold" y="2.5" class="node-label">G</text></g><g class="noselect gnode" struct_name="m" transform="translate(281.67,-31.54)" r="6.5"><circle class="node" r="6" node_type="nucleotide" style="fill: lightblue;"></circle><text text-anchor="middle" font-size="8" font-weight="bold" y="2.5" class="node-label">U</text></g><g class="noselect gnode" struct_name="m" transform="translate(293.22,-22.10)" r="6.5"><circle class="node" r="6" node_type="nucleotide" style="fill: lightblue;"></circle><text text-anchor="middle" font-size="8" font-weight="bold" y="2.5" class="node-label">G</text></g><g class="noselect gnode" struct_name="m" transform="translate(298.74,-8.16)" r="6.5"><circle class="node" r="6" node_type="nucleotide" style="fill: lightblue;"></circle><text text-anchor="middle" font-size="8" font-weight="bold" y="2.5" class="node-label">U</text></g><g class="noselect gnode" struct_name="m" transform="translate(296.30,6.68)" r="6.5"><circle class="node" r="6" node_type="nucleotide" style="fill: lightblue;"></circle><text text-anchor="middle" font-size="8" font-weight="bold" y="2.5" class="node-label">G</text></g><g class="noselect gnode" struct_name="m" transform="translate(286.60,18.25)" r="6.5"><circle class="node" r="6" node_type="nucleotide" style="fill: lightblue;"></circle><text text-anchor="middle" font-size="8" font-weight="bold" y="2.5" class="node-label">A</text></g><g class="noselect gnode" struct_name="m" transform="translate(272.66,23.49)" r="6.5"><circle class="node" r="6" node_type="nucleotide" style="fill: lightblue;"></circle><text text-anchor="middle" font-size="8" font-weight="bold" y="2.5" class="node-label">U</text></g><g class="noselect gnode" struct_name="m" transform="translate(257.43,21.40)" r="6.5"><circle class="node" r="6" node_type="nucleotide" style="fill: lightgreen;"></circle><text text-anchor="middle" font-size="8" font-weight="bold" y="2.5" class="node-label">U</text></g><g class="noselect gnode" struct_name="m" transform="translate(246.99,33.47)" r="6.5"><circle class="node" r="6" node_type="nucleotide" style="fill: lightgreen;"></circle><text text-anchor="middle" font-size="8" font-weight="bold" y="2.5" class="node-label">U</text></g><g class="noselect gnode" struct_name="m" transform="translate(236.35,45.70)" r="6.5"><circle class="node" r="6" node_type="nucleotide" style="fill: lightgreen;"></circle><text text-anchor="middle" font-size="8" font-weight="bold" y="2.5" class="node-label">G</text></g><g class="noselect gnode" struct_name="m" transform="translate(225.50,57.76)" r="6.5"><circle class="node" r="6" node_type="nucleotide" style="fill: lightgreen;"></circle><text text-anchor="middle" font-size="8" font-weight="bold" y="2.5" class="node-label">G</text></g><g class="noselect gnode" struct_name="m" transform="translate(214.63,69.70)" r="6.5"><circle class="node" r="6" node_type="nucleotide" style="fill: lightgreen;"></circle><text text-anchor="middle" font-size="8" font-weight="bold" y="2.5" class="node-label">G</text></g><g class="noselect gnode" struct_name="m" transform="translate(203.91,81.59)" r="6.5"><circle class="node" r="6" node_type="nucleotide" style="fill: lightgreen;"></circle><text text-anchor="middle" font-size="8" font-weight="bold" y="2.5" class="node-label">G</text></g><g class="noselect gnode" struct_name="m" transform="translate(193.64,93.50)" r="6.5"><circle class="node" r="6" node_type="nucleotide" style="fill: lightgreen;"></circle><text text-anchor="middle" font-size="8" font-weight="bold" y="2.5" class="node-label">A</text></g><g class="noselect gnode" struct_name="m" transform="translate(190.99,108.50)" r="6.5"><circle class="node" r="6" node_type="nucleotide" style="fill: rgb(219, 219, 141);"></circle><text text-anchor="middle" font-size="8" font-weight="bold" y="2.5" class="node-label">C</text></g><g class="noselect gnode" struct_name="m" transform="translate(176.60,113.62)" r="6.5"><circle class="node" r="6" node_type="nucleotide" style="fill: lightgreen;"></circle><text text-anchor="middle" font-size="8" font-weight="bold" y="2.5" class="node-label">C</text></g><g class="noselect gnode" struct_name="m" transform="translate(166.35,125.66)" r="6.5"><circle class="node" r="6" node_type="nucleotide" style="fill: lightgreen;"></circle><text text-anchor="middle" font-size="8" font-weight="bold" y="2.5" class="node-label">U</text></g><g class="noselect gnode" struct_name="m" transform="translate(155.89,137.78)" r="6.5"><circle class="node" r="6" node_type="nucleotide" style="fill: lightgreen;"></circle><text text-anchor="middle" font-size="8" font-weight="bold" y="2.5" class="node-label">U</text></g><g class="noselect gnode" struct_name="m" transform="translate(145.06,149.69)" r="6.5"><circle class="node" r="6" node_type="nucleotide" style="fill: lightgreen;"></circle><text text-anchor="middle" font-size="8" font-weight="bold" y="2.5" class="node-label">C</text></g><g class="noselect gnode" struct_name="m" transform="translate(133.81,161.26)" r="6.5"><circle class="node" r="6" node_type="nucleotide" style="fill: lightgreen;"></circle><text text-anchor="middle" font-size="8" font-weight="bold" y="2.5" class="node-label">G</text></g><g class="noselect gnode" struct_name="m" transform="translate(122.23,172.41)" r="6.5"><circle class="node" r="6" node_type="nucleotide" style="fill: lightgreen;"></circle><text text-anchor="middle" font-size="8" font-weight="bold" y="2.5" class="node-label">C</text></g><g class="noselect gnode" struct_name="m" transform="translate(110.66,183.24)" r="6.5"><circle class="node" r="6" node_type="nucleotide" style="fill: lightgreen;"></circle><text text-anchor="middle" font-size="8" font-weight="bold" y="2.5" class="node-label">G</text></g><g class="noselect gnode" struct_name="m" transform="translate(99.36,194.11)" r="6.5"><circle class="node" r="6" node_type="nucleotide" style="fill: lightgreen;"></circle><text text-anchor="middle" font-size="8" font-weight="bold" y="2.5" class="node-label">A</text></g><g class="noselect gnode" struct_name="m" transform="translate(88.68,205.36)" r="6.5"><circle class="node" r="6" node_type="nucleotide" style="fill: lightgreen;"></circle><text text-anchor="middle" font-size="8" font-weight="bold" y="2.5" class="node-label">G</text></g><g class="noselect gnode" struct_name="m" transform="translate(79.16,217.24)" r="6.5"><circle class="node" r="6" node_type="nucleotide" style="fill: lightgreen;"></circle><text text-anchor="middle" font-size="8" font-weight="bold" y="2.5" class="node-label">C</text></g><g class="noselect gnode" struct_name="m" transform="translate(-7.27,231.23)" r="6.5"><circle class="node label" r="6" node_type="label"></circle><text text-anchor="middle" font-size="8" font-weight="bold" y="2.5" class="node-label">10</text></g><g class="noselect gnode" struct_name="m" transform="translate(112.80,139.46)" r="6.5"><circle class="node label" r="6" node_type="label"></circle><text text-anchor="middle" font-size="8" font-weight="bold" y="2.5" class="node-label">20</text></g><g class="noselect gnode" struct_name="m" transform="translate(214.00,25.48)" r="6.5"><circle class="node label" r="6" node_type="label"></circle><text text-anchor="middle" font-size="8" font-weight="bold" y="2.5" class="node-label">30</text></g><g class="noselect gnode" struct_name="m" transform="translate(310.72,12.20)" r="6.5"><circle class="node label" r="6" node_type="label"></circle><text text-anchor="middle" font-size="8" font-weight="bold" y="2.5" class="node-label">40</text></g><g class="noselect gnode" struct_name="m" transform="translate(204.38,116.56)" r="6.5"><circle class="node label" r="6" node_type="label"></circle><text text-anchor="middle" font-size="8" font-weight="bold" y="2.5" class="node-label">50</text></g><g class="noselect gnode" struct_name="m" transform="translate(92.67,224.72)" r="6.5"><circle class="node label" r="6" node_type="label"></circle><text text-anchor="middle" font-size="8" font-weight="bold" y="2.5" class="node-label">60</text></g><g class="noselect gnode" transform="translate(77.87,206.55)" r="6.5"><circle class="node" r="0" node_type="middle"></circle><text text-anchor="middle" font-size="8" font-weight="bold" y="2.5" class="node-label"></text></g><g class="noselect gnode" transform="translate(88.50,194.56)" r="6.5"><circle class="node" r="0" node_type="middle"></circle><text text-anchor="middle" font-size="8" font-weight="bold" y="2.5" class="node-label"></text></g><g class="noselect gnode" transform="translate(99.83,183.30)" r="6.5"><circle class="node" r="0" node_type="middle"></circle><text text-anchor="middle" font-size="8" font-weight="bold" y="2.5" class="node-label"></text></g><g class="noselect gnode" transform="translate(111.42,172.47)" r="6.5"><circle class="node" r="0" node_type="middle"></circle><text text-anchor="middle" font-size="8" font-weight="bold" y="2.5" class="node-label"></text></g><g class="noselect gnode" transform="translate(122.99,161.65)" r="6.5"><circle class="node" r="0" node_type="middle"></circle><text text-anchor="middle" font-size="8" font-weight="bold" y="2.5" class="node-label"></text></g><g class="noselect gnode" transform="translate(134.30,150.45)" r="6.5"><circle class="node" r="0" node_type="middle"></circle><text text-anchor="middle" font-size="8" font-weight="bold" y="2.5" class="node-label"></text></g><g class="noselect gnode" transform="translate(145.15,138.89)" r="6.5"><circle class="node" r="0" node_type="middle"></circle><text text-anchor="middle" font-size="8" font-weight="bold" y="2.5" class="node-label"></text></g><g class="noselect gnode" transform="translate(155.64,126.95)" r="6.5"><circle class="node" r="0" node_type="middle"></circle><text text-anchor="middle" font-size="8" font-weight="bold" y="2.5" class="node-label"></text></g><g class="noselect gnode" transform="translate(165.87,114.86)" r="6.5"><circle class="node" r="0" node_type="middle"></circle><text text-anchor="middle" font-size="8" font-weight="bold" y="2.5" class="node-label"></text></g><g class="noselect gnode" transform="translate(193.17,82.64)" r="6.5"><circle class="node" r="0" node_type="middle"></circle><text text-anchor="middle" font-size="8" font-weight="bold" y="2.5" class="node-label"></text></g><g class="noselect gnode" transform="translate(203.83,70.74)" r="6.5"><circle class="node" r="0" node_type="middle"></circle><text text-anchor="middle" font-size="8" font-weight="bold" y="2.5" class="node-label"></text></g><g class="noselect gnode" transform="translate(214.69,58.86)" r="6.5"><circle class="node" r="0" node_type="middle"></circle><text text-anchor="middle" font-size="8" font-weight="bold" y="2.5" class="node-label"></text></g><g class="noselect gnode" transform="translate(225.56,46.92)" r="6.5"><circle class="node" r="0" node_type="middle"></circle><text text-anchor="middle" font-size="8" font-weight="bold" y="2.5" class="node-label"></text></g><g class="noselect gnode" transform="translate(236.26,34.84)" r="6.5"><circle class="node" r="0" node_type="middle"></circle><text text-anchor="middle" font-size="8" font-weight="bold" y="2.5" class="node-label"></text></g><g class="noselect gnode" transform="translate(246.69,22.64)" r="6.5"><circle class="node" r="0" node_type="middle"></circle><text text-anchor="middle" font-size="8" font-weight="bold" y="2.5" class="node-label"></text></g><g class="noselect gnode" transform="translate(87.52,230.37)" r="6.5"><circle class="node" r="0" node_type="middle"></circle><text text-anchor="middle" font-size="8" font-weight="bold" y="2.5" class="node-label"></text></g><g class="noselect gnode" transform="translate(91.70,244.44)" r="6.5"><circle class="node" r="0" node_type="middle"></circle><text text-anchor="middle" font-size="8" font-weight="bold" y="2.5" class="node-label"></text></g><g class="noselect gnode" transform="translate(48.84,248.00)" r="6.5"><circle class="node" r="0" node_type="middle"></circle><text text-anchor="middle" font-size="8" font-weight="bold" y="2.5" class="node-label"></text></g><g class="noselect gnode" transform="translate(269.63,-5.18)" r="6.5"><circle class="node" r="0" node_type="middle"></circle><text text-anchor="middle" font-size="8" font-weight="bold" y="2.5" class="node-label"></text></g><g class="noselect gnode" transform="translate(179.46,98.73)" r="6.5"><circle class="node" r="0" node_type="middle"></circle><text text-anchor="middle" font-size="8" font-weight="bold" y="2.5" class="node-label"></text></g></g><line class="drag_line" x1="0" y1="0" x2="0" y2="0"></line></g></g></svg>