<svg xmlns="http://www.w3.org/2000/svg" viewBox="0 0 760 640" width="760" height="640"><style>svg {
  display: block;
  min-width: 100%;
  width: 100%;
  min-height: 100%;
}

circle.node {
  stroke: #ccc;
  stroke-width: 1px;
  opacity: 1;
  fill: white;
}

circle.node.label {
    stroke: transparent;
    stroke-width: 0;
    fill: white;
}

circle.outline_node {
    stroke-width: 1px;
    fill: red;
}

circle.protein {
    fill: gray;
    fill-opacity: 0.5;
    stroke-width: 4;
}

circle.hidden_outline {
    stroke-width: 0px;
}


line.link {
  stroke: #999;
  stroke-opacity: 0.8;
  stroke-width: 2;
}

line.basepair {
  stroke: red;
}

line.intermolecule {
  stroke: blue;
}

line.chain_chain {
  stroke-dasharray: 3,3;
}

line.fake {
  stroke: green;
}

.transparent {
    fill: transparent;
    stroke-width: 0;
    stroke-opacity: 0;
    opacity: 0;
    visibility: hidden;
}

.drag_line {
  stroke: #999;
  stroke-width: 2;
  pointer-events: none;
}

.drag_line_hidden {
  stroke: #999;
  stroke-width: 0;
  pointer-events: none;
}

.d3-tip {
    line-height: 1;
    font-weight: bold;
    padding: 6px;
    background: rgba(0, 0, 0, 0.6);
    color: #fff;
    border-radius: 4px;
    pointer-events: none;
          }

text.node-label {
    font-weight: bold;
    font-family: Tahoma, Geneva, sans-serif;
    color: rgb(100,100,100);
    pointer-events: none;
}

text {
    pointer-events: none;
}

g.gnode {

}

circle.outline_node.selected {
    visibility: visible;
}

circle.outline_node {
    visibility: hidden;
}

.brush .extent {
  fill-opacity: .1;
  stroke: #fff;
  shape-rendering: crispEdges;
}

.noselect {
    -webkit-touch-callout: none;
    -webkit-user-select: none;
    -khtml-user-select: none;
    -moz-user-select: none;
    -ms-user-select: none;
    user-select: none;
}

svg {
  display: block;
  min-width: 100%;
  width: 100%;
  min-height: 100%;
}

circle.node {
  stroke: #ccc;
  stroke-width: 1px;
  opacity: 1;
  fill: white;
}

circle.node.label {
    stroke: transparent;
    stroke-width: 0;
    fill: white;
}

circle.outline_node {
    stroke-width: 1px;
    fill: red;
}

circle.protein {
    fill: gray;
    fill-opacity: 0.5;
    stroke-width: 4;
}

circle.hidden_outline {
    stroke-width: 0px;
}


line.link {
  stroke: #999;
  stroke-opacity: 0.8;
  stroke-width: 2;
}

line.basepair {
  stroke: red;
}

line.intermolecule {
  stroke: blue;
}

line.chain_chain {
  stroke-dasharray: 3,3;
}

line.fake {
  stroke: green;
}

.transparent {
    fill: transparent;
    stroke-width: 0;
    stroke-opacity: 0;
    opacity: 0;
    visibility: hidden;
}

.drag_line {
  stroke: #999;
  stroke-width: 2;
  pointer-events: none;
}

.drag_line_hidden {
  stroke: #999;
  stroke-width: 0;
  pointer-events: none;
}

.d3-tip {
    line-height: 1;
    font-weight: bold;
    padding: 6px;
    background: rgba(0, 0, 0, 0.6);
    color: #fff;
    border-radius: 4px;
    pointer-events: none;
          }

text.node-label {
    font-weight: bold;
    font-family: Tahoma, Geneva, sans-serif;
    color: rgb(100,100,100);
    pointer-events: none;
}

text {
    pointer-events: none;
}

g.gnode {

}

circle.outline_node.selected {
    visibility: visible;
}

circle.outline_node {
    visibility: hidden;
}

.brush .extent {
  fill-opacity: .1;
  stroke: #fff;
  shape-rendering: crispEdges;
}

.noselect {
    -webkit-touch-callout: none;
    -webkit-user-select: none;
    -khtml-user-select: none;
    -moz-user-select: none;
    -ms-user-select: none;
    user-select: none;
}
/*# sourceURL=/Users/yumanakamura/ipy_sandbox/sandbox/claude_sandbox/mrna-transformer-worktrees/feat-issue57-switch-derna-knotty/scripts/eval/prerender/forna_vendor/fornac.css*/</style><style></style><g><g class="brush" style="pointer-events: all; -webkit-tap-highlight-color: rgba(0, 0, 0, 0);"><rect class="background" x="0" width="760" y="0" height="640" style="visibility: hidden; cursor: auto;"></rect><rect class="extent" x="0" width="0" y="0" height="0" style="cursor: move;"></rect><g class="resize n" transform="translate(0,0)" style="cursor: ns-resize; display: none;"><rect y="-3" width="0" height="6" style="visibility: hidden;"></rect></g><g class="resize e" transform="translate(0,0)" style="cursor: ew-resize; display: none;"><rect x="-3" width="6" height="0" style="visibility: hidden;"></rect></g><g class="resize s" transform="translate(0,0)" style="cursor: ns-resize; display: none;"><rect y="-3" width="0" height="6" style="visibility: hidden;"></rect></g><g class="resize w" transform="translate(0,0)" style="cursor: ew-resize; display: none;"><rect x="-3" width="6" height="0" style="visibility: hidden;"></rect></g><g class="resize nw" transform="translate(0,0)" style="cursor: nwse-resize; display: none;"><rect x="-3" y="-3" width="6" height="6" style="visibility: hidden;"></rect></g><g class="resize ne" transform="translate(0,0)" style="cursor: nesw-resize; display: none;"><rect x="-3" y="-3" width="6" height="6" style="visibility: hidden;"></rect></g><g class="resize se" transform="translate(0,0)" style="cursor: nwse-resize; display: none;"><rect x="-3" y="-3" width="6" height="6" style="visibility: hidden;"></rect></g><g class="resize sw" transform="translate(0,0)" style="cursor: nesw-resize; display: none;"><rect x="-3" y="-3" width="6" height="6" style="visibility: hidden;"></rect></g></g><g transform="translate(275.27,293.23) scale(1.32)"><g><line class="link basepair" x1="130.94" y1="184.86" x2="145.76" y2="183.06"></line><line class="link basepair" x1="129.56" y1="168.72" x2="144.27" y2="168.05"></line><line class="link backbone" x1="130.94" y1="184.86" x2="129.56" y2="168.72"></line><line class="link basepair" x1="129.71" y1="152.06" x2="144.31" y2="153.03"></line><line class="link backbone" x1="129.56" y1="168.72" x2="129.71" y2="152.06"></line><line class="link basepair" x1="132.06" y1="135.11" x2="146.23" y2="138.18"></line><line class="link backbone" x1="129.71" y1="152.06" x2="132.06" y2="135.11"></line><line class="link basepair" x1="137.18" y1="118.28" x2="150.57" y2="124.33"></line><line class="link backbone" x1="132.06" y1="135.11" x2="137.18" y2="118.28"></line><line class="link basepair" x1="132.56" y1="102.06" x2="140.98" y2="90.04"></line><line class="link backbone" x1="137.18" y1="118.28" x2="132.56" y2="102.06"></line><line class="link basepair" x1="119.56" y1="89.66" x2="130.61" y2="80.36"></line><line class="link backbone" x1="132.56" y1="102.06" x2="119.56" y2="89.66"></line><line class="link basepair" x1="109.76" y1="74.88" x2="122.60" y2="68.16"></line><line class="link backbone" x1="119.56" y1="89.66" x2="109.76" y2="74.88"></line><line class="link basepair" x1="103.19" y1="58.68" x2="117.10" y2="54.49"></line><line class="link backbone" x1="109.76" y1="74.88" x2="103.19" y2="58.68"></line><line class="link basepair" x1="99.48" y1="41.94" x2="114.26" y2="40.18"></line><line class="link backbone" x1="103.19" y1="58.68" x2="99.48" y2="41.94"></line><line class="link basepair" x1="93.29" y1="26.28" x2="105.16" y2="17.31"></line><line class="link backbone" x1="99.48" y1="41.94" x2="93.29" y2="26.28"></line><line class="link basepair" x1="84.28" y1="12.16" x2="96.88" y2="4.81"></line><line class="link backbone" x1="93.29" y1="26.28" x2="84.28" y2="12.16"></line><line class="link basepair" x1="76.53" y1="-2.40" x2="89.73" y2="-8.85"></line><line class="link backbone" x1="84.28" y1="12.16" x2="76.53" y2="-2.40"></line><line class="link basepair" x1="69.84" y1="-17.19" x2="83.33" y2="-22.94"></line><line class="link backbone" x1="76.53" y1="-2.40" x2="69.84" y2="-17.19"></line><line class="link basepair" x1="63.82" y1="-32.19" x2="77.51" y2="-37.47"></line><line class="link backbone" x1="69.84" y1="-17.19" x2="63.82" y2="-32.19"></line><line class="link basepair" x1="58.24" y1="-47.18" x2="72.01" y2="-52.24"></line><line class="link backbone" x1="63.82" y1="-32.19" x2="58.24" y2="-47.18"></line><line class="link basepair" x1="52.80" y1="-62.11" x2="66.54" y2="-67.19"></line><line class="link backbone" x1="58.24" y1="-47.18" x2="52.80" y2="-62.11"></line><line class="link basepair" x1="47.24" y1="-77.00" x2="60.85" y2="-82.25"></line><line class="link backbone" x1="52.80" y1="-62.11" x2="47.24" y2="-77.00"></line><line class="link basepair" x1="41.38" y1="-91.81" x2="54.86" y2="-97.32"></line><line class="link backbone" x1="47.24" y1="-77.00" x2="41.38" y2="-91.81"></line><line class="link basepair" x1="35.20" y1="-106.49" x2="48.59" y2="-112.26"></line><line class="link backbone" x1="41.38" y1="-91.81" x2="35.20" y2="-106.49"></line><line class="link basepair" x1="28.76" y1="-121.11" x2="41.97" y2="-127.10"></line><line class="link backbone" x1="35.20" y1="-106.49" x2="28.76" y2="-121.11"></line><line class="link basepair" x1="21.91" y1="-135.35" x2="35.40" y2="-141.74"></line><line class="link backbone" x1="28.76" y1="-121.11" x2="21.91" y2="-135.35"></line><line class="link backbone" x1="21.91" y1="-135.35" x2="6.86" y2="-138.44"></line><line class="link backbone" x1="6.86" y1="-138.44" x2="-3.52" y2="-149.16"></line><line class="link backbone" x1="-3.52" y1="-149.16" x2="-5.60" y2="-164.13"></line><line class="link backbone" x1="-5.60" y1="-164.13" x2="1.78" y2="-177.15"></line><line class="link backbone" x1="1.78" y1="-177.15" x2="15.18" y2="-183.68"></line><line class="link backbone" x1="15.18" y1="-183.68" x2="29.99" y2="-181.29"></line><line class="link backbone" x1="29.99" y1="-181.29" x2="40.33" y2="-170.29"></line><line class="link backbone" x1="40.33" y1="-170.29" x2="42.33" y2="-155.50"></line><line class="link basepair" x1="35.40" y1="-141.74" x2="21.91" y2="-135.35"></line><line class="link backbone" x1="42.33" y1="-155.50" x2="35.40" y2="-141.74"></line><line class="link basepair" x1="41.97" y1="-127.10" x2="28.76" y2="-121.11"></line><line class="link backbone" x1="35.40" y1="-141.74" x2="41.97" y2="-127.10"></line><line class="link basepair" x1="48.59" y1="-112.26" x2="35.20" y2="-106.49"></line><line class="link backbone" x1="41.97" y1="-127.10" x2="48.59" y2="-112.26"></line><line class="link basepair" x1="54.86" y1="-97.32" x2="41.38" y2="-91.81"></line><line class="link backbone" x1="48.59" y1="-112.26" x2="54.86" y2="-97.32"></line><line class="link basepair" x1="60.85" y1="-82.25" x2="47.24" y2="-77.00"></line><line class="link backbone" x1="54.86" y1="-97.32" x2="60.85" y2="-82.25"></line><line class="link basepair" x1="66.54" y1="-67.19" x2="52.80" y2="-62.11"></line><line class="link backbone" x1="60.85" y1="-82.25" x2="66.54" y2="-67.19"></line><line class="link basepair" x1="72.01" y1="-52.24" x2="58.24" y2="-47.18"></line><line class="link backbone" x1="66.54" y1="-67.19" x2="72.01" y2="-52.24"></line><line class="link basepair" x1="77.51" y1="-37.47" x2="63.82" y2="-32.19"></line><line class="link backbone" x1="72.01" y1="-52.24" x2="77.51" y2="-37.47"></line><line class="link basepair" x1="83.33" y1="-22.94" x2="69.84" y2="-17.19"></line><line class="link backbone" x1="77.51" y1="-37.47" x2="83.33" y2="-22.94"></line><line class="link basepair" x1="89.73" y1="-8.85" x2="76.53" y2="-2.40"></line><line class="link backbone" x1="83.33" y1="-22.94" x2="89.73" y2="-8.85"></line><line class="link basepair" x1="96.88" y1="4.81" x2="84.28" y2="12.16"></line><line class="link backbone" x1="89.73" y1="-8.85" x2="96.88" y2="4.81"></line><line class="link basepair" x1="105.16" y1="17.31" x2="93.29" y2="26.28"></line><line class="link backbone" x1="96.88" y1="4.81" x2="105.16" y2="17.31"></line><line class="link backbone" x1="105.16" y1="17.31" x2="118.15" y2="25.41"></line><line class="link basepair" x1="114.26" y1="40.18" x2="99.48" y2="41.94"></line><line class="link backbone" x1="118.15" y1="25.41" x2="114.26" y2="40.18"></line><line class="link basepair" x1="117.10" y1="54.49" x2="103.19" y2="58.68"></line><line class="link backbone" x1="114.26" y1="40.18" x2="117.10" y2="54.49"></line><line class="link basepair" x1="122.60" y1="68.16" x2="109.76" y2="74.88"></line><line class="link backbone" x1="117.10" y1="54.49" x2="122.60" y2="68.16"></line><line class="link basepair" x1="130.61" y1="80.36" x2="119.56" y2="89.66"></line><line class="link backbone" x1="122.60" y1="68.16" x2="130.61" y2="80.36"></line><line class="link basepair" x1="140.98" y1="90.04" x2="132.56" y2="102.06"></line><line class="link backbone" x1="130.61" y1="80.36" x2="140.98" y2="90.04"></line><line class="link backbone" x1="140.98" y1="90.04" x2="155.35" y2="85.41"></line><line class="link backbone" x1="155.35" y1="85.41" x2="168.17" y2="93.34"></line><line class="link backbone" x1="168.17" y1="93.34" x2="172.02" y2="107.33"></line><line class="link backbone" x1="172.02" y1="107.33" x2="165.25" y2="120.74"></line><line class="link basepair" x1="150.57" y1="124.33" x2="137.18" y2="118.28"></line><line class="link backbone" x1="165.25" y1="120.74" x2="150.57" y2="124.33"></line><line class="link basepair" x1="146.23" y1="138.18" x2="132.06" y2="135.11"></line><line class="link backbone" x1="150.57" y1="124.33" x2="146.23" y2="138.18"></line><line class="link basepair" x1="144.31" y1="153.03" x2="129.71" y2="152.06"></line><line class="link backbone" x1="146.23" y1="138.18" x2="144.31" y2="153.03"></line><line class="link basepair" x1="144.27" y1="168.05" x2="129.56" y2="168.72"></line><line class="link backbone" x1="144.31" y1="153.03" x2="144.27" y2="168.05"></line><line class="link basepair" x1="145.76" y1="183.06" x2="130.94" y2="184.86"></line><line class="link backbone" x1="144.27" y1="168.05" x2="145.76" y2="183.06"></line><line class="link backbone" x1="145.76" y1="183.06" x2="156.85" y2="193.51"></line><line class="link backbone" x1="156.85" y1="193.51" x2="156.21" y2="208.29"></line><line class="link backbone" x1="156.21" y1="208.29" x2="144.38" y2="217.34"></line><line class="link label_link" x1="99.48" y1="41.94" x2="85.11" y2="48.05"></line><line class="link label_link" x1="35.20" y1="-106.49" x2="21.52" y2="-99.04"></line><line class="link label_link" x1="42.33" y1="-155.50" x2="56.56" y2="-161.61"></line><line class="link label_link" x1="89.73" y1="-8.85" x2="103.44" y2="-16.32"></line><line class="link label_link" x1="168.17" y1="93.34" x2="154.09" y2="97.32"></line><line class="link label_link" x1="144.38" y1="217.34" x2="146.90" y2="232.56"></line><line class="link fake transparent" x1="132.56" y1="102.06" x2="130.23" y2="91.17"></line><line class="link fake transparent" x1="132.56" y1="102.06" x2="130.61" y2="80.36"></line><line class="link fake transparent" x1="119.56" y1="89.66" x2="130.23" y2="91.17"></line><line class="link fake transparent" x1="130.61" y1="80.36" x2="130.23" y2="91.17"></line><line class="link fake transparent" x1="140.98" y1="90.04" x2="130.23" y2="91.17"></line><line class="link fake transparent" x1="119.56" y1="89.66" x2="119.88" y2="78.73"></line><line class="link fake transparent" x1="109.76" y1="74.88" x2="119.88" y2="78.73"></line><line class="link fake transparent" x1="122.60" y1="68.16" x2="119.88" y2="78.73"></line><line class="link fake transparent" x1="130.61" y1="80.36" x2="119.88" y2="78.73"></line><line class="link fake transparent" x1="109.76" y1="74.88" x2="112.45" y2="64.34"></line><line class="link fake transparent" x1="103.19" y1="58.68" x2="112.45" y2="64.34"></line><line class="link fake transparent" x1="117.10" y1="54.49" x2="112.45" y2="64.34"></line><line class="link fake transparent" x1="122.60" y1="68.16" x2="112.45" y2="64.34"></line><line class="link fake transparent" x1="103.19" y1="58.68" x2="107.86" y2="48.92"></line><line class="link fake transparent" x1="99.48" y1="41.94" x2="107.86" y2="48.92"></line><line class="link fake transparent" x1="114.26" y1="40.18" x2="107.86" y2="48.92"></line><line class="link fake transparent" x1="117.10" y1="54.49" x2="107.86" y2="48.92"></line><line class="link fake transparent" x1="93.29" y1="26.28" x2="94.58" y2="15.43"></line><line class="link fake transparent" x1="84.28" y1="12.16" x2="94.58" y2="15.43"></line><line class="link fake transparent" x1="96.88" y1="4.81" x2="94.58" y2="15.43"></line><line class="link fake transparent" x1="105.16" y1="17.31" x2="94.58" y2="15.43"></line><line class="link fake transparent" x1="84.28" y1="12.16" x2="86.59" y2="1.56"></line><line class="link fake transparent" x1="76.53" y1="-2.40" x2="86.59" y2="1.56"></line><line class="link fake transparent" x1="89.73" y1="-8.85" x2="86.59" y2="1.56"></line><line class="link fake transparent" x1="96.88" y1="4.81" x2="86.59" y2="1.56"></line><line class="link fake transparent" x1="76.53" y1="-2.40" x2="79.66" y2="-12.71"></line><line class="link fake transparent" x1="69.84" y1="-17.19" x2="79.66" y2="-12.71"></line><line class="link fake transparent" x1="83.33" y1="-22.94" x2="79.66" y2="-12.71"></line><line class="link fake transparent" x1="89.73" y1="-8.85" x2="79.66" y2="-12.71"></line><line class="link fake transparent" x1="69.84" y1="-17.19" x2="73.49" y2="-27.38"></line><line class="link fake transparent" x1="63.82" y1="-32.19" x2="73.49" y2="-27.38"></line><line class="link fake transparent" x1="77.51" y1="-37.47" x2="73.49" y2="-27.38"></line><line class="link fake transparent" x1="83.33" y1="-22.94" x2="73.49" y2="-27.38"></line><line class="link fake transparent" x1="63.82" y1="-32.19" x2="67.84" y2="-42.22"></line><line class="link fake transparent" x1="58.24" y1="-47.18" x2="67.84" y2="-42.22"></line><line class="link fake transparent" x1="72.01" y1="-52.24" x2="67.84" y2="-42.22"></line><line class="link fake transparent" x1="77.51" y1="-37.47" x2="67.84" y2="-42.22"></line><line class="link fake transparent" x1="58.24" y1="-47.18" x2="62.41" y2="-57.19"></line><line class="link fake transparent" x1="52.80" y1="-62.11" x2="62.41" y2="-57.19"></line><line class="link fake transparent" x1="66.54" y1="-67.19" x2="62.41" y2="-57.19"></line><line class="link fake transparent" x1="72.01" y1="-52.24" x2="62.41" y2="-57.19"></line><line class="link fake transparent" x1="52.80" y1="-62.11" x2="56.92" y2="-72.14"></line><line class="link fake transparent" x1="47.24" y1="-77.00" x2="56.92" y2="-72.14"></line><line class="link fake transparent" x1="60.85" y1="-82.25" x2="56.92" y2="-72.14"></line><line class="link fake transparent" x1="66.54" y1="-67.19" x2="56.92" y2="-72.14"></line><line class="link fake transparent" x1="47.24" y1="-77.00" x2="51.16" y2="-87.12"></line><line class="link fake transparent" x1="41.38" y1="-91.81" x2="51.16" y2="-87.12"></line><line class="link fake transparent" x1="54.86" y1="-97.32" x2="51.16" y2="-87.12"></line><line class="link fake transparent" x1="60.85" y1="-82.25" x2="51.16" y2="-87.12"></line><line class="link fake transparent" x1="41.38" y1="-91.81" x2="45.08" y2="-102.01"></line><line class="link fake transparent" x1="35.20" y1="-106.49" x2="45.08" y2="-102.01"></line><line class="link fake transparent" x1="48.59" y1="-112.26" x2="45.08" y2="-102.01"></line><line class="link fake transparent" x1="54.86" y1="-97.32" x2="45.08" y2="-102.01"></line><line class="link fake transparent" x1="35.20" y1="-106.49" x2="38.71" y2="-116.78"></line><line class="link fake transparent" x1="28.76" y1="-121.11" x2="38.71" y2="-116.78"></line><line class="link fake transparent" x1="41.97" y1="-127.10" x2="38.71" y2="-116.78"></line><line class="link fake transparent" x1="48.59" y1="-112.26" x2="38.71" y2="-116.78"></line><line class="link fake transparent" x1="28.76" y1="-121.11" x2="32.03" y2="-131.43"></line><line class="link fake transparent" x1="21.91" y1="-135.35" x2="32.03" y2="-131.43"></line><line class="link fake transparent" x1="35.40" y1="-141.74" x2="32.03" y2="-131.43"></line><line class="link fake transparent" x1="41.97" y1="-127.10" x2="32.03" y2="-131.43"></line><line class="link fake transparent" x1="130.94" y1="184.86" x2="137.31" y2="176.33"></line><line class="link fake transparent" x1="129.56" y1="168.72" x2="137.31" y2="176.33"></line><line class="link fake transparent" x1="144.27" y1="168.05" x2="137.31" y2="176.33"></line><line class="link fake transparent" x1="145.76" y1="183.06" x2="137.31" y2="176.33"></line><line class="link fake transparent" x1="129.56" y1="168.72" x2="136.48" y2="160.50"></line><line class="link fake transparent" x1="129.71" y1="152.06" x2="136.48" y2="160.50"></line><line class="link fake transparent" x1="144.31" y1="153.03" x2="136.48" y2="160.50"></line><line class="link fake transparent" x1="144.27" y1="168.05" x2="136.48" y2="160.50"></line><line class="link fake transparent" x1="129.71" y1="152.06" x2="137.49" y2="144.57"></line><line class="link fake transparent" x1="132.06" y1="135.11" x2="137.49" y2="144.57"></line><line class="link fake transparent" x1="146.23" y1="138.18" x2="137.49" y2="144.57"></line><line class="link fake transparent" x1="144.31" y1="153.03" x2="137.49" y2="144.57"></line><line class="link fake transparent" x1="132.06" y1="135.11" x2="140.79" y2="128.84"></line><line class="link fake transparent" x1="137.18" y1="118.28" x2="140.79" y2="128.84"></line><line class="link fake transparent" x1="150.57" y1="124.33" x2="140.79" y2="128.84"></line><line class="link fake transparent" x1="146.23" y1="138.18" x2="140.79" y2="128.84"></line><line class="link fake transparent" x1="130.94" y1="184.86" x2="140.76" y2="199.79"></line><line class="link fake transparent" x1="130.94" y1="184.86" x2="156.21" y2="208.29"></line><line class="link fake transparent" x1="145.76" y1="183.06" x2="140.76" y2="199.79"></line><line class="link fake transparent" x1="145.76" y1="183.06" x2="144.38" y2="217.34"></line><line class="link fake transparent" x1="156.85" y1="193.51" x2="140.76" y2="199.79"></line><line class="link fake transparent" x1="156.85" y1="193.51" x2="131.22" y2="217.79"></line><line class="link fake transparent" x1="156.21" y1="208.29" x2="140.76" y2="199.79"></line><line class="link fake transparent" x1="156.21" y1="208.29" x2="120.56" y2="206.23"></line><line class="link fake transparent" x1="144.38" y1="217.34" x2="140.76" y2="199.79"></line><line class="link fake transparent" x1="144.38" y1="217.34" x2="130.94" y2="184.86"></line><line class="link fake transparent" x1="21.91" y1="-135.35" x2="18.53" y2="-159.54"></line><line class="link fake transparent" x1="21.91" y1="-135.35" x2="15.18" y2="-183.68"></line><line class="link fake transparent" x1="6.86" y1="-138.44" x2="18.53" y2="-159.54"></line><line class="link fake transparent" x1="6.86" y1="-138.44" x2="29.99" y2="-181.29"></line><line class="link fake transparent" x1="-3.52" y1="-149.16" x2="18.53" y2="-159.54"></line><line class="link fake transparent" x1="-3.52" y1="-149.16" x2="40.33" y2="-170.29"></line><line class="link fake transparent" x1="-5.60" y1="-164.13" x2="18.53" y2="-159.54"></line><line class="link fake transparent" x1="-5.60" y1="-164.13" x2="42.33" y2="-155.50"></line><line class="link fake transparent" x1="1.78" y1="-177.15" x2="18.53" y2="-159.54"></line><line class="link fake transparent" x1="1.78" y1="-177.15" x2="35.40" y2="-141.74"></line><line class="link fake transparent" x1="15.18" y1="-183.68" x2="18.53" y2="-159.54"></line><line class="link fake transparent" x1="15.18" y1="-183.68" x2="21.91" y2="-135.35"></line><line class="link fake transparent" x1="29.99" y1="-181.29" x2="18.53" y2="-159.54"></line><line class="link fake transparent" x1="29.99" y1="-181.29" x2="6.86" y2="-138.44"></line><line class="link fake transparent" x1="40.33" y1="-170.29" x2="18.53" y2="-159.54"></line><line class="link fake transparent" x1="40.33" y1="-170.29" x2="-3.52" y2="-149.16"></line><line class="link fake transparent" x1="42.33" y1="-155.50" x2="18.53" y2="-159.54"></line><line class="link fake transparent" x1="42.33" y1="-155.50" x2="-5.60" y2="-164.13"></line><line class="link fake transparent" x1="35.40" y1="-141.74" x2="18.53" y2="-159.54"></line><line class="link fake transparent" x1="35.40" y1="-141.74" x2="1.78" y2="-177.15"></line><line class="link fake transparent" x1="99.48" y1="41.94" x2="105.71" y2="30.38"></line><line class="link fake transparent" x1="99.48" y1="41.94" x2="105.16" y2="17.31"></line><line class="link fake transparent" x1="93.29" y1="26.28" x2="105.71" y2="30.38"></line><line class="link fake transparent" x1="93.29" y1="26.28" x2="118.15" y2="25.41"></line><line class="link fake transparent" x1="105.16" y1="17.31" x2="105.71" y2="30.38"></line><line class="link fake transparent" x1="105.16" y1="17.31" x2="114.26" y2="40.18"></line><line class="link fake transparent" x1="118.15" y1="25.41" x2="105.71" y2="30.38"></line><line class="link fake transparent" x1="118.15" y1="25.41" x2="99.48" y2="41.94"></line><line class="link fake transparent" x1="114.26" y1="40.18" x2="105.71" y2="30.38"></line><line class="link fake transparent" x1="114.26" y1="40.18" x2="93.29" y2="26.28"></line><line class="link fake transparent" x1="137.18" y1="118.28" x2="152.35" y2="105.34"></line><line class="link fake transparent" x1="137.18" y1="118.28" x2="168.17" y2="93.34"></line><line class="link fake transparent" x1="132.56" y1="102.06" x2="152.35" y2="105.34"></line><line class="link fake transparent" x1="132.56" y1="102.06" x2="172.02" y2="107.33"></line><line class="link fake transparent" x1="140.98" y1="90.04" x2="152.35" y2="105.34"></line><line class="link fake transparent" x1="140.98" y1="90.04" x2="165.25" y2="120.74"></line><line class="link fake transparent" x1="155.35" y1="85.41" x2="152.35" y2="105.34"></line><line class="link fake transparent" x1="155.35" y1="85.41" x2="150.57" y2="124.33"></line><line class="link fake transparent" x1="168.17" y1="93.34" x2="152.35" y2="105.34"></line><line class="link fake transparent" x1="168.17" y1="93.34" x2="137.18" y2="118.28"></line><line class="link fake transparent" x1="172.02" y1="107.33" x2="152.35" y2="105.34"></line><line class="link fake transparent" x1="172.02" y1="107.33" x2="132.56" y2="102.06"></line><line class="link fake transparent" x1="165.25" y1="120.74" x2="152.35" y2="105.34"></line><line class="link fake transparent" x1="165.25" y1="120.74" x2="140.98" y2="90.04"></line><line class="link fake transparent" x1="150.57" y1="124.33" x2="152.35" y2="105.34"></line><line class="link fake transparent" x1="150.57" y1="124.33" x2="155.35" y2="85.41"></line></g><g><g class="noselect gnode" struct_name="m" transform="translate(130.94,184.86)" r="6.5"><circle class="node" r="6" node_type="nucleotide" style="fill: lightgreen;"></circle><text text-anchor="middle" font-size="8" font-weight="bold" y="2.5" class="node-label">C</text></g><g class="noselect gnode" struct_name="m" transform="translate(129.56,168.72)" r="6.5"><circle class="node" r="6" node_type="nucleotide" style="fill: lightgreen;"></circle><text text-anchor="middle" font-size="8" font-weight="bold" y="2.5" class="node-label">C</text></g><g class="noselect gnode" struct_name="m" transform="translate(129.71,152.06)" r="6.5"><circle class="node" r="6" node_type="nucleotide" style="fill: lightgreen;"></circle><text text-anchor="middle" font-size="8" font-weight="bold" y="2.5" class="node-label">A</text></g><g class="noselect gnode" struct_name="m" transform="translate(132.06,135.11)" r="6.5"><circle class="node" r="6" node_type="nucleotide" style="fill: lightgreen;"></circle><text text-anchor="middle" font-size="8" font-weight="bold" y="2.5" class="node-label">G</text></g><g class="noselect gnode" struct_name="m" transform="translate(137.18,118.28)" r="6.5"><circle class="node" r="6" node_type="nucleotide" style="fill: lightgreen;"></circle><text text-anchor="middle" font-size="8" font-weight="bold" y="2.5" class="node-label">U</text></g><g class="noselect gnode" struct_name="m" transform="translate(132.56,102.06)" r="6.5"><circle class="node" r="6" node_type="nucleotide" style="fill: lightgreen;"></circle><text text-anchor="middle" font-size="8" font-weight="bold" y="2.5" class="node-label">C</text></g><g class="noselect gnode" struct_name="m" transform="translate(119.56,89.66)" r="6.5"><circle class="node" r="6" node_type="nucleotide" style="fill: lightgreen;"></circle><text text-anchor="middle" font-size="8" font-weight="bold" y="2.5" class="node-label">U</text></g><g class="noselect gnode" struct_name="m" transform="translate(109.76,74.88)" r="6.5"><circle class="node" r="6" node_type="nucleotide" style="fill: lightgreen;"></circle><text text-anchor="middle" font-size="8" font-weight="bold" y="2.5" class="node-label">C</text></g><g class="noselect gnode" struct_name="m" transform="translate(103.19,58.68)" r="6.5"><circle class="node" r="6" node_type="nucleotide" style="fill: lightgreen;"></circle><text text-anchor="middle" font-size="8" font-weight="bold" y="2.5" class="node-label">G</text></g><g class="noselect gnode" struct_name="m" transform="translate(99.48,41.94)" r="6.5"><circle class="node" r="6" node_type="nucleotide" style="fill: lightgreen;"></circle><text text-anchor="middle" font-size="8" font-weight="bold" y="2.5" class="node-label">G</text></g><g class="noselect gnode" struct_name="m" transform="translate(93.29,26.28)" r="6.5"><circle class="node" r="6" node_type="nucleotide" style="fill: lightgreen;"></circle><text text-anchor="middle" font-size="8" font-weight="bold" y="2.5" class="node-label">A</text></g><g class="noselect gnode" struct_name="m" transform="translate(84.28,12.16)" r="6.5"><circle class="node" r="6" node_type="nucleotide" style="fill: lightgreen;"></circle><text text-anchor="middle" font-size="8" font-weight="bold" y="2.5" class="node-label">U</text></g><g class="noselect gnode" struct_name="m" transform="translate(76.53,-2.40)" r="6.5"><circle class="node" r="6" node_type="nucleotide" style="fill: lightgreen;"></circle><text text-anchor="middle" font-size="8" font-weight="bold" y="2.5" class="node-label">A</text></g><g class="noselect gnode" struct_name="m" transform="translate(69.84,-17.19)" r="6.5"><circle class="node" r="6" node_type="nucleotide" style="fill: lightgreen;"></circle><text text-anchor="middle" font-size="8" font-weight="bold" y="2.5" class="node-label">C</text></g><g class="noselect gnode" struct_name="m" transform="translate(63.82,-32.19)" r="6.5"><circle class="node" r="6" node_type="nucleotide" style="fill: lightgreen;"></circle><text text-anchor="middle" font-size="8" font-weight="bold" y="2.5" class="node-label">C</text></g><g class="noselect gnode" struct_name="m" transform="translate(58.24,-47.18)" r="6.5"><circle class="node" r="6" node_type="nucleotide" style="fill: lightgreen;"></circle><text text-anchor="middle" font-size="8" font-weight="bold" y="2.5" class="node-label">U</text></g><g class="noselect gnode" struct_name="m" transform="translate(52.80,-62.11)" r="6.5"><circle class="node" r="6" node_type="nucleotide" style="fill: lightgreen;"></circle><text text-anchor="middle" font-size="8" font-weight="bold" y="2.5" class="node-label">A</text></g><g class="noselect gnode" struct_name="m" transform="translate(47.24,-77.00)" r="6.5"><circle class="node" r="6" node_type="nucleotide" style="fill: lightgreen;"></circle><text text-anchor="middle" font-size="8" font-weight="bold" y="2.5" class="node-label">U</text></g><g class="noselect gnode" struct_name="m" transform="translate(41.38,-91.81)" r="6.5"><circle class="node" r="6" node_type="nucleotide" style="fill: lightgreen;"></circle><text text-anchor="middle" font-size="8" font-weight="bold" y="2.5" class="node-label">U</text></g><g class="noselect gnode" struct_name="m" transform="translate(35.20,-106.49)" r="6.5"><circle class="node" r="6" node_type="nucleotide" style="fill: lightgreen;"></circle><text text-anchor="middle" font-size="8" font-weight="bold" y="2.5" class="node-label">C</text></g><g class="noselect gnode" struct_name="m" transform="translate(28.76,-121.11)" r="6.5"><circle class="node" r="6" node_type="nucleotide" style="fill: lightgreen;"></circle><text text-anchor="middle" font-size="8" font-weight="bold" y="2.5" class="node-label">A</text></g><g class="noselect gnode" struct_name="m" transform="translate(21.91,-135.35)" r="6.5"><circle class="node" r="6" node_type="nucleotide" style="fill: lightgreen;"></circle><text text-anchor="middle" font-size="8" font-weight="bold" y="2.5" class="node-label">G</text></g><g class="noselect gnode" struct_name="m" transform="translate(6.86,-138.44)" r="6.5"><circle class="node" r="6" node_type="nucleotide" style="fill: lightblue;"></circle><text text-anchor="middle" font-size="8" font-weight="bold" y="2.5" class="node-label">A</text></g><g class="noselect gnode" struct_name="m" transform="translate(-3.52,-149.16)" r="6.5"><circle class="node" r="6" node_type="nucleotide" style="fill: lightblue;"></circle><text text-anchor="middle" font-size="8" font-weight="bold" y="2.5" class="node-label">A</text></g><g class="noselect gnode" struct_name="m" transform="translate(-5.60,-164.13)" r="6.5"><circle class="node" r="6" node_type="nucleotide" style="fill: lightblue;"></circle><text text-anchor="middle" font-size="8" font-weight="bold" y="2.5" class="node-label">C</text></g><g class="noselect gnode" struct_name="m" transform="translate(1.78,-177.15)" r="6.5"><circle class="node" r="6" node_type="nucleotide" style="fill: lightblue;"></circle><text text-anchor="middle" font-size="8" font-weight="bold" y="2.5" class="node-label">G</text></g><g class="noselect gnode" struct_name="m" transform="translate(15.18,-183.68)" r="6.5"><circle class="node" r="6" node_type="nucleotide" style="fill: lightblue;"></circle><text text-anchor="middle" font-size="8" font-weight="bold" y="2.5" class="node-label">U</text></g><g class="noselect gnode" struct_name="m" transform="translate(29.99,-181.29)" r="6.5"><circle class="node" r="6" node_type="nucleotide" style="fill: lightblue;"></circle><text text-anchor="middle" font-size="8" font-weight="bold" y="2.5" class="node-label">C</text></g><g class="noselect gnode" struct_name="m" transform="translate(40.33,-170.29)" r="6.5"><circle class="node" r="6" node_type="nucleotide" style="fill: lightblue;"></circle><text text-anchor="middle" font-size="8" font-weight="bold" y="2.5" class="node-label">A</text></g><g class="noselect gnode" struct_name="m" transform="translate(42.33,-155.50)" r="6.5"><circle class="node" r="6" node_type="nucleotide" style="fill: lightblue;"></circle><text text-anchor="middle" font-size="8" font-weight="bold" y="2.5" class="node-label">G</text></g><g class="noselect gnode" struct_name="m" transform="translate(35.40,-141.74)" r="6.5"><circle class="node" r="6" node_type="nucleotide" style="fill: lightgreen;"></circle><text text-anchor="middle" font-size="8" font-weight="bold" y="2.5" class="node-label">C</text></g><g class="noselect gnode" struct_name="m" transform="translate(41.97,-127.10)" r="6.5"><circle class="node" r="6" node_type="nucleotide" style="fill: lightgreen;"></circle><text text-anchor="middle" font-size="8" font-weight="bold" y="2.5" class="node-label">U</text></g><g class="noselect gnode" struct_name="m" transform="translate(48.59,-112.26)" r="6.5"><circle class="node" r="6" node_type="nucleotide" style="fill: lightgreen;"></circle><text text-anchor="middle" font-size="8" font-weight="bold" y="2.5" class="node-label">G</text></g><g class="noselect gnode" struct_name="m" transform="translate(54.86,-97.32)" r="6.5"><circle class="node" r="6" node_type="nucleotide" style="fill: lightgreen;"></circle><text text-anchor="middle" font-size="8" font-weight="bold" y="2.5" class="node-label">A</text></g><g class="noselect gnode" struct_name="m" transform="translate(60.85,-82.25)" r="6.5"><circle class="node" r="6" node_type="nucleotide" style="fill: lightgreen;"></circle><text text-anchor="middle" font-size="8" font-weight="bold" y="2.5" class="node-label">A</text></g><g class="noselect gnode" struct_name="m" transform="translate(66.54,-67.19)" r="6.5"><circle class="node" r="6" node_type="nucleotide" style="fill: lightgreen;"></circle><text text-anchor="middle" font-size="8" font-weight="bold" y="2.5" class="node-label">U</text></g><g class="noselect gnode" struct_name="m" transform="translate(72.01,-52.24)" r="6.5"><circle class="node" r="6" node_type="nucleotide" style="fill: lightgreen;"></circle><text text-anchor="middle" font-size="8" font-weight="bold" y="2.5" class="node-label">A</text></g><g class="noselect gnode" struct_name="m" transform="translate(77.51,-37.47)" r="6.5"><circle class="node" r="6" node_type="nucleotide" style="fill: lightgreen;"></circle><text text-anchor="middle" font-size="8" font-weight="bold" y="2.5" class="node-label">G</text></g><g class="noselect gnode" struct_name="m" transform="translate(83.33,-22.94)" r="6.5"><circle class="node" r="6" node_type="nucleotide" style="fill: lightgreen;"></circle><text text-anchor="middle" font-size="8" font-weight="bold" y="2.5" class="node-label">G</text></g><g class="noselect gnode" struct_name="m" transform="translate(89.73,-8.85)" r="6.5"><circle class="node" r="6" node_type="nucleotide" style="fill: lightgreen;"></circle><text text-anchor="middle" font-size="8" font-weight="bold" y="2.5" class="node-label">U</text></g><g class="noselect gnode" struct_name="m" transform="translate(96.88,4.81)" r="6.5"><circle class="node" r="6" node_type="nucleotide" style="fill: lightgreen;"></circle><text text-anchor="middle" font-size="8" font-weight="bold" y="2.5" class="node-label">A</text></g><g class="noselect gnode" struct_name="m" transform="translate(105.16,17.31)" r="6.5"><circle class="node" r="6" node_type="nucleotide" style="fill: lightgreen;"></circle><text text-anchor="middle" font-size="8" font-weight="bold" y="2.5" class="node-label">U</text></g><g class="noselect gnode" struct_name="m" transform="translate(118.15,25.41)" r="6.5"><circle class="node" r="6" node_type="nucleotide" style="fill: rgb(219, 219, 141);"></circle><text text-anchor="middle" font-size="8" font-weight="bold" y="2.5" class="node-label">A</text></g><g class="noselect gnode" struct_name="m" transform="translate(114.26,40.18)" r="6.5"><circle class="node" r="6" node_type="nucleotide" style="fill: lightgreen;"></circle><text text-anchor="middle" font-size="8" font-weight="bold" y="2.5" class="node-label">U</text></g><g class="noselect gnode" struct_name="m" transform="translate(117.10,54.49)" r="6.5"><circle class="node" r="6" node_type="nucleotide" style="fill: lightgreen;"></circle><text text-anchor="middle" font-size="8" font-weight="bold" y="2.5" class="node-label">C</text></g><g class="noselect gnode" struct_name="m" transform="translate(122.60,68.16)" r="6.5"><circle class="node" r="6" node_type="nucleotide" style="fill: lightgreen;"></circle><text text-anchor="middle" font-size="8" font-weight="bold" y="2.5" class="node-label">G</text></g><g class="noselect gnode" struct_name="m" transform="translate(130.61,80.36)" r="6.5"><circle class="node" r="6" node_type="nucleotide" style="fill: lightgreen;"></circle><text text-anchor="middle" font-size="8" font-weight="bold" y="2.5" class="node-label">A</text></g><g class="noselect gnode" struct_name="m" transform="translate(140.98,90.04)" r="6.5"><circle class="node" r="6" node_type="nucleotide" style="fill: lightgreen;"></circle><text text-anchor="middle" font-size="8" font-weight="bold" y="2.5" class="node-label">G</text></g><g class="noselect gnode" struct_name="m" transform="translate(155.35,85.41)" r="6.5"><circle class="node" r="6" node_type="nucleotide" style="fill: rgb(219, 219, 141);"></circle><text text-anchor="middle" font-size="8" font-weight="bold" y="2.5" class="node-label">C</text></g><g class="noselect gnode" struct_name="m" transform="translate(168.17,93.34)" r="6.5"><circle class="node" r="6" node_type="nucleotide" style="fill: rgb(219, 219, 141);"></circle><text text-anchor="middle" font-size="8" font-weight="bold" y="2.5" class="node-label">U</text></g><g class="noselect gnode" struct_name="m" transform="translate(172.02,107.33)" r="6.5"><circle class="node" r="6" node_type="nucleotide" style="fill: rgb(219, 219, 141);"></circle><text text-anchor="middle" font-size="8" font-weight="bold" y="2.5" class="node-label">U</text></g><g class="noselect gnode" struct_name="m" transform="translate(165.25,120.74)" r="6.5"><circle class="node" r="6" node_type="nucleotide" style="fill: rgb(219, 219, 141);"></circle><text text-anchor="middle" font-size="8" font-weight="bold" y="2.5" class="node-label">A</text></g><g class="noselect gnode" struct_name="m" transform="translate(150.57,124.33)" r="6.5"><circle class="node" r="6" node_type="nucleotide" style="fill: lightgreen;"></circle><text text-anchor="middle" font-size="8" font-weight="bold" y="2.5" class="node-label">A</text></g><g class="noselect gnode" struct_name="m" transform="translate(146.23,138.18)" r="6.5"><circle class="node" r="6" node_type="nucleotide" style="fill: lightgreen;"></circle><text text-anchor="middle" font-size="8" font-weight="bold" y="2.5" class="node-label">C</text></g><g class="noselect gnode" struct_name="m" transform="translate(144.31,153.03)" r="6.5"><circle class="node" r="6" node_type="nucleotide" style="fill: lightgreen;"></circle><text text-anchor="middle" font-size="8" font-weight="bold" y="2.5" class="node-label">U</text></g><g class="noselect gnode" struct_name="m" transform="translate(144.27,168.05)" r="6.5"><circle class="node" r="6" node_type="nucleotide" style="fill: lightgreen;"></circle><text text-anchor="middle" font-size="8" font-weight="bold" y="2.5" class="node-label">G</text></g><g class="noselect gnode" struct_name="m" transform="translate(145.76,183.06)" r="6.5"><circle class="node" r="6" node_type="nucleotide" style="fill: lightgreen;"></circle><text text-anchor="middle" font-size="8" font-weight="bold" y="2.5" class="node-label">G</text></g><g class="noselect gnode" struct_name="m" transform="translate(156.85,193.51)" r="6.5"><circle class="node" r="6" node_type="nucleotide" style="fill: lightsalmon;"></circle><text text-anchor="middle" font-size="8" font-weight="bold" y="2.5" class="node-label">A</text></g><g class="noselect gnode" struct_name="m" transform="translate(156.21,208.29)" r="6.5"><circle class="node" r="6" node_type="nucleotide" style="fill: lightsalmon;"></circle><text text-anchor="middle" font-size="8" font-weight="bold" y="2.5" class="node-label">A</text></g><g class="noselect gnode" struct_name="m" transform="translate(144.38,217.34)" r="6.5"><circle class="node" r="6" node_type="nucleotide" style="fill: lightsalmon;"></circle><text text-anchor="middle" font-size="8" font-weight="bold" y="2.5" class="node-label">U</text></g><g class="noselect gnode" struct_name="m" transform="translate(85.11,48.05)" r="6.5"><circle class="node label" r="6" node_type="label"></circle><text text-anchor="middle" font-size="8" font-weight="bold" y="2.5" class="node-label">10</text></g><g class="noselect gnode" struct_name="m" transform="translate(21.52,-99.04)" r="6.5"><circle class="node label" r="6" node_type="label"></circle><text text-anchor="middle" font-size="8" font-weight="bold" y="2.5" class="node-label">20</text></g><g class="noselect gnode" struct_name="m" transform="translate(56.56,-161.61)" r="6.5"><circle class="node label" r="6" node_type="label"></circle><text text-anchor="middle" font-size="8" font-weight="bold" y="2.5" class="node-label">30</text></g><g class="noselect gnode" struct_name="m" transform="translate(103.44,-16.32)" r="6.5"><circle class="node label" r="6" node_type="label"></circle><text text-anchor="middle" font-size="8" font-weight="bold" y="2.5" class="node-label">40</text></g><g class="noselect gnode" struct_name="m" transform="translate(154.09,97.32)" r="6.5"><circle class="node label" r="6" node_type="label"></circle><text text-anchor="middle" font-size="8" font-weight="bold" y="2.5" class="node-label">50</text></g><g class="noselect gnode" struct_name="m" transform="translate(146.90,232.56)" r="6.5"><circle class="node label" r="6" node_type="label"></circle><text text-anchor="middle" font-size="8" font-weight="bold" y="2.5" class="node-label">60</text></g><g class="noselect gnode" transform="translate(130.23,91.17)" r="6.5"><circle class="node" r="0" node_type="middle"></circle><text text-anchor="middle" font-size="8" font-weight="bold" y="2.5" class="node-label"></text></g><g class="noselect gnode" transform="translate(119.88,78.73)" r="6.5"><circle class="node" r="0" node_type="middle"></circle><text text-anchor="middle" font-size="8" font-weight="bold" y="2.5" class="node-label"></text></g><g class="noselect gnode" transform="translate(112.45,64.34)" r="6.5"><circle class="node" r="0" node_type="middle"></circle><text text-anchor="middle" font-size="8" font-weight="bold" y="2.5" class="node-label"></text></g><g class="noselect gnode" transform="translate(107.86,48.92)" r="6.5"><circle class="node" r="0" node_type="middle"></circle><text text-anchor="middle" font-size="8" font-weight="bold" y="2.5" class="node-label"></text></g><g class="noselect gnode" transform="translate(94.58,15.43)" r="6.5"><circle class="node" r="0" node_type="middle"></circle><text text-anchor="middle" font-size="8" font-weight="bold" y="2.5" class="node-label"></text></g><g class="noselect gnode" transform="translate(86.59,1.56)" r="6.5"><circle class="node" r="0" node_type="middle"></circle><text text-anchor="middle" font-size="8" font-weight="bold" y="2.5" class="node-label"></text></g><g class="noselect gnode" transform="translate(79.66,-12.71)" r="6.5"><circle class="node" r="0" node_type="middle"></circle><text text-anchor="middle" font-size="8" font-weight="bold" y="2.5" class="node-label"></text></g><g class="noselect gnode" transform="translate(73.49,-27.38)" r="6.5"><circle class="node" r="0" node_type="middle"></circle><text text-anchor="middle" font-size="8" font-weight="bold" y="2.5" class="node-label"></text></g><g class="noselect gnode" transform="translate(67.84,-42.22)" r="6.5"><circle class="node" r="0" node_type="middle"></circle><text text-anchor="middle" font-size="8" font-weight="bold" y="2.5" class="node-label"></text></g><g class="noselect gnode" transform="translate(62.41,-57.19)" r="6.5"><circle class="node" r="0" node_type="middle"></circle><text text-anchor="middle" font-size="8" font-weight="bold" y="2.5" class="node-label"></text></g><g class="noselect gnode" transform="translate(56.92,-72.14)" r="6.5"><circle class="node" r="0" node_type="middle"></circle><text text-anchor="middle" font-size="8" font-weight="bold" y="2.5" class="node-label"></text></g><g class="noselect gnode" transform="translate(51.16,-87.12)" r="6.5"><circle class="node" r="0" node_type="middle"></circle><text text-anchor="middle" font-size="8" font-weight="bold" y="2.5" class="node-label"></text></g><g class="noselect gnode" transform="translate(45.08,-102.01)" r="6.5"><circle class="node" r="0" node_type="middle"></circle><text text-anchor="middle" font-size="8" font-weight="bold" y="2.5" class="node-label"></text></g><g class="noselect gnode" transform="translate(38.71,-116.78)" r="6.5"><circle class="node" r="0" node_type="middle"></circle><text text-anchor="middle" font-size="8" font-weight="bold" y="2.5" class="node-label"></text></g><g class="noselect gnode" transform="translate(32.03,-131.43)" r="6.5"><circle class="node" r="0" node_type="middle"></circle><text text-anchor="middle" font-size="8" font-weight="bold" y="2.5" class="node-label"></text></g><g class="noselect gnode" transform="translate(137.31,176.33)" r="6.5"><circle class="node" r="0" node_type="middle"></circle><text text-anchor="middle" font-size="8" font-weight="bold" y="2.5" class="node-label"></text></g><g class="noselect gnode" transform="translate(136.48,160.50)" r="6.5"><circle class="node" r="0" node_type="middle"></circle><text text-anchor="middle" font-size="8" font-weight="bold" y="2.5" class="node-label"></text></g><g class="noselect gnode" transform="translate(137.49,144.57)" r="6.5"><circle class="node" r="0" node_type="middle"></circle><text text-anchor="middle" font-size="8" font-weight="bold" y="2.5" class="node-label"></text></g><g class="noselect gnode" transform="translate(140.79,128.84)" r="6.5"><circle class="node" r="0" node_type="middle"></circle><text text-anchor="middle" font-size="8" font-weight="bold" y="2.5" class="node-label"></text></g><g class="noselect gnode" transform="translate(131.22,217.79)" r="6.5"><circle class="node" r="0" node_type="middle"></circle><text text-anchor="middle" font-size="8" font-weight="bold" y="2.5" class="node-label"></text></g><g class="noselect gnode" transform="translate(120.56,206.23)" r="6.5"><circle class="node" r="0" node_type="middle"></circle><text text-anchor="middle" font-size="8" font-weight="bold" y="2.5" class="node-label"></text></g><g class="noselect gnode" transform="translate(140.76,199.79)" r="6.5"><circle class="node" r="0" node_type="middle"></circle><text text-anchor="middle" font-size="8" font-weight="bold" y="2.5" class="node-label"></text></g><g class="noselect gnode" transform="translate(18.53,-159.54)" r="6.5"><circle class="node" r="0" node_type="middle"></circle><text text-anchor="middle" font-size="8" font-weight="bold" y="2.5" class="node-label"></text></g><g class="noselect gnode" transform="translate(105.71,30.38)" r="6.5"><circle class="node" r="0" node_type="middle"></circle><text text-anchor="middle" font-size="8" font-weight="bold" y="2.5" class="node-label"></text></g><g class="noselect gnode" transform="translate(152.35,105.34)" r="6.5"><circle class="node" r="0" node_type="middle"></circle><text text-anchor="middle" font-size="8" font-weight="bold" y="2.5" class="node-label"></text></g></g><line class="drag_line" x1="0" y1="0" x2="0" y2="0"></line></g></g></svg>