<svg xmlns="http://www.w3.org/2000/svg" viewBox="0 0 760 640" width="760" height="640"><style>svg {
  display: block;
  min-width: 100%;
  width: 100%;
  min-height: 100%;
}

circle.node {
  stroke: #ccc;
  stroke-width: 1px;
  opacity: 1;
  fill: white;
}

circle.node.label {
    stroke: transparent;
    stroke-width: 0;
    fill: white;
}

circle.outline_node {
    stroke-width: 1px;
    fill: red;
}

circle.protein {
    fill: gray;
    fill-opacity: 0.5;
    stroke-width: 4;
}

circle.hidden_outline {
    stroke-width: 0px;
}


line.link {
  stroke: #999;
  stroke-opacity: 0.8;
  stroke-width: 2;
}

line.basepair {
  stroke: red;
}

line.intermolecule {
  stroke: blue;
}

line.chain_chain {
  stroke-dasharray: 3,3;
}

line.fake {
  stroke: green;
}

.transparent {
    fill: transparent;
    stroke-width: 0;
    stroke-opacity: 0;
    opacity: 0;
    visibility: hidden;
}

.drag_line {
  stroke: #999;
  stroke-width: 2;
  pointer-events: none;
}

.drag_line_hidden {
  stroke: #999;
  stroke-width: 0;
  pointer-events: none;
}

.d3-tip {
    line-height: 1;
    font-weight: bold;
    padding: 6px;
    background: rgba(0, 0, 0, 0.6);
    color: #fff;
    border-radius: 4px;
    pointer-events: none;
          }

text.node-label {
    font-weight: bold;
    font-family: Tahoma, Geneva, sans-serif;
    color: rgb(100,100,100);
    pointer-events: none;
}

text {
    pointer-events: none;
}

g.gnode {

}

circle.outline_node.selected {
    visibility: visible;
}

circle.outline_node {
    visibility: hidden;
}

.brush .extent {
  fill-opacity: .1;
  stroke: #fff;
  shape-rendering: crispEdges;
}

.noselect {
    -webkit-touch-callout: none;
    -webkit-user-select: none;
    -khtml-user-select: none;
    -moz-user-select: none;
    -ms-user-select: none;
    user-select: none;
}

svg {
  display: block;
  min-width: 100%;
  width: 100%;
  min-height: 100%;
}

circle.node {
  stroke: #ccc;
  stroke-width: 1px;
  opacity: 1;
  fill: white;
}

circle.node.label {
    stroke: transparent;
    stroke-width: 0;
    fill: white;
}

circle.outline_node {
    stroke-width: 1px;
    fill: red;
}

circle.protein {
    fill: gray;
    fill-opacity: 0.5;
    stroke-width: 4;
}

circle.hidden_outline {
    stroke-width: 0px;
}


line.link {
  stroke: #999;
  stroke-opacity: 0.8;
  stroke-width: 2;
}

line.basepair {
  stroke: red;
}

line.intermolecule {
  stroke: blue;
}

line.chain_chain {
  stroke-dasharray: 3,3;
}

line.fake {
  stroke: green;
}

.transparent {
    fill: transparent;
    stroke-width: 0;
    stroke-opacity: 0;
    opacity: 0;
    visibility: hidden;
}

.drag_line {
  stroke: #999;
  stroke-width: 2;
  pointer-events: none;
}

.drag_line_hidden {
  stroke: #999;
  stroke-width: 0;
  pointer-events: none;
}

.d3-tip {
    line-height: 1;
    font-weight: bold;
    padding: 6px;
    background: rgba(0, 0, 0, 0.6);
    color: #fff;
    border-radius: 4px;
    pointer-events: none;
          }

text.node-label {
    font-weight: bold;
    font-family: Tahoma, Geneva, sans-serif;
    color: rgb(100,100,100);
    pointer-events: none;
}

text {
    pointer-events: none;
}

g.gnode {

}

circle.outline_node.selected {
    visibility: visible;
}

circle.outline_node {
    visibility: hidden;
}

.brush .extent {
  fill-opacity: .1;
  stroke: #fff;
  shape-rendering: crispEdges;
}

.noselect {
    -webkit-touch-callout: none;
    -webkit-user-select: none;
    -khtml-user-select: none;
    -moz-user-select: none;
    -ms-user-select: none;
    user-select: none;
}
/*# sourceURL=/Users/yumanakamura/ipy_sandbox/sandbox/claude_sandbox/mrna-transformer-worktrees/feat-issue57-switch-derna-knotty/scripts/eval/prerender/forna_vendor/fornac.css*/</style><style></style><g><g class="brush" style="pointer-events: all; -webkit-tap-highlight-color: rgba(0, 0, 0, 0);"><rect class="background" x="0" width="760" y="0" height="640" style="visibility: hidden; cursor: auto;"></rect><rect class="extent" x="0" width="0" y="0" height="0" style="cursor: move;"></rect><g class="resize n" transform="translate(0,0)" style="cursor: ns-resize; display: none;"><rect y="-3" width="0" height="6" style="visibility: hidden;"></rect></g><g class="resize e" transform="translate(0,0)" style="cursor: ew-resize; display: none;"><rect x="-3" width="6" height="0" style="visibility: hidden;"></rect></g><g class="resize s" transform="translate(0,0)" style="cursor: ns-resize; display: none;"><rect y="-3" width="0" height="6" style="visibility: hidden;"></rect></g><g class="resize w" transform="translate(0,0)" style="cursor: ew-resize; display: none;"><rect x="-3" width="6" height="0" style="visibility: hidden;"></rect></g><g class="resize nw" transform="translate(0,0)" style="cursor: nwse-resize; display: none;"><rect x="-3" y="-3" width="6" height="6" style="visibility: hidden;"></rect></g><g class="resize ne" transform="translate(0,0)" style="cursor: nesw-resize; display: none;"><rect x="-3" y="-3" width="6" height="6" style="visibility: hidden;"></rect></g><g class="resize se" transform="translate(0,0)" style="cursor: nwse-resize; display: none;"><rect x="-3" y="-3" width="6" height="6" style="visibility: hidden;"></rect></g><g class="resize sw" transform="translate(0,0)" style="cursor: nesw-resize; display: none;"><rect x="-3" y="-3" width="6" height="6" style="visibility: hidden;"></rect></g></g><g transform="translate(345.89,169.43) scale(1.14)"><g><line class="link basepair" x1="41.14" y1="325.86" x2="55.79" y2="322.88"></line><line class="link basepair" x1="38.11" y1="310.53" x2="52.62" y2="307.71"></line><line class="link backbone" x1="41.14" y1="325.86" x2="38.11" y2="310.53"></line><line class="link basepair" x1="35.27" y1="294.83" x2="49.78" y2="292.40"></line><line class="link backbone" x1="38.11" y1="310.53" x2="35.27" y2="294.83"></line><line class="link basepair" x1="32.86" y1="278.92" x2="47.42" y2="276.96"></line><line class="link backbone" x1="35.27" y1="294.83" x2="32.86" y2="278.92"></line><line class="link basepair" x1="31.01" y1="262.89" x2="45.59" y2="261.44"></line><line class="link backbone" x1="32.86" y1="278.92" x2="31.01" y2="262.89"></line><line class="link basepair" x1="29.72" y1="246.73" x2="44.31" y2="245.78"></line><line class="link backbone" x1="31.01" y1="262.89" x2="29.72" y2="246.73"></line><line class="link basepair" x1="28.90" y1="230.57" x2="43.51" y2="229.97"></line><line class="link backbone" x1="29.72" y1="246.73" x2="28.90" y2="230.57"></line><line class="link basepair" x1="28.38" y1="214.53" x2="42.98" y2="214.06"></line><line class="link backbone" x1="28.90" y1="230.57" x2="28.38" y2="214.53"></line><line class="link basepair" x1="27.84" y1="198.64" x2="42.41" y2="197.94"></line><line class="link backbone" x1="28.38" y1="214.53" x2="27.84" y2="198.64"></line><line class="link basepair" x1="26.86" y1="182.87" x2="41.37" y2="181.61"></line><line class="link backbone" x1="27.84" y1="198.64" x2="26.86" y2="182.87"></line><line class="link basepair" x1="25.09" y1="167.31" x2="39.50" y2="165.24"></line><line class="link backbone" x1="26.86" y1="182.87" x2="25.09" y2="167.31"></line><line class="link basepair" x1="22.30" y1="152.06" x2="36.55" y2="148.95"></line><line class="link backbone" x1="25.09" y1="167.31" x2="22.30" y2="152.06"></line><line class="link basepair" x1="18.47" y1="136.97" x2="32.43" y2="132.91"></line><line class="link backbone" x1="22.30" y1="152.06" x2="18.47" y2="136.97"></line><line class="link basepair" x1="13.51" y1="122.33" x2="27.54" y2="117.27"></line><line class="link backbone" x1="18.47" y1="136.97" x2="13.51" y2="122.33"></line><line class="link backbone" x1="13.51" y1="122.33" x2="-1.09" y2="118.37"></line><line class="link backbone" x1="-1.09" y1="118.37" x2="-11.10" y2="107.48"></line><line class="link backbone" x1="-11.10" y1="107.48" x2="-12.26" y2="92.39"></line><line class="link backbone" x1="-12.26" y1="92.39" x2="-4.13" y2="80.05"></line><line class="link basepair" x1="9.66" y1="73.69" x2="24.28" y2="76.61"></line><line class="link backbone" x1="-4.13" y1="80.05" x2="9.66" y2="73.69"></line><line class="link basepair" x1="12.56" y1="58.27" x2="26.88" y2="60.54"></line><line class="link backbone" x1="9.66" y1="73.69" x2="12.56" y2="58.27"></line><line class="link basepair" x1="14.80" y1="42.49" x2="29.22" y2="44.40"></line><line class="link backbone" x1="12.56" y1="58.27" x2="14.80" y2="42.49"></line><line class="link basepair" x1="16.76" y1="26.58" x2="31.17" y2="28.23"></line><line class="link backbone" x1="14.80" y1="42.49" x2="16.76" y2="26.58"></line><line class="link basepair" x1="18.50" y1="10.53" x2="32.92" y2="12.07"></line><line class="link backbone" x1="16.76" y1="26.58" x2="18.50" y2="10.53"></line><line class="link basepair" x1="20.26" y1="-5.64" x2="34.68" y2="-3.91"></line><line class="link backbone" x1="18.50" y1="10.53" x2="20.26" y2="-5.64"></line><line class="link basepair" x1="22.31" y1="-21.85" x2="36.96" y2="-19.32"></line><line class="link backbone" x1="20.26" y1="-5.64" x2="22.31" y2="-21.85"></line><line class="link basepair" x1="20.41" y1="-38.26" x2="34.12" y2="-44.05"></line><line class="link backbone" x1="22.31" y1="-21.85" x2="20.41" y2="-38.26"></line><line class="link basepair" x1="14.62" y1="-53.20" x2="28.73" y2="-58.29"></line><line class="link backbone" x1="20.41" y1="-38.26" x2="14.62" y2="-53.20"></line><line class="link backbone" x1="14.62" y1="-53.20" x2="1.48" y2="-61.62"></line><line class="link backbone" x1="1.48" y1="-61.62" x2="-0.19" y2="-76.65"></line><line class="link backbone" x1="-0.19" y1="-76.65" x2="10.60" y2="-87.43"></line><line class="link backbone" x1="10.60" y1="-87.43" x2="25.75" y2="-85.69"></line><line class="link backbone" x1="25.75" y1="-85.69" x2="33.83" y2="-72.84"></line><line class="link basepair" x1="28.73" y1="-58.29" x2="14.62" y2="-53.20"></line><line class="link backbone" x1="33.83" y1="-72.84" x2="28.73" y2="-58.29"></line><line class="link basepair" x1="34.12" y1="-44.05" x2="20.41" y2="-38.26"></line><line class="link backbone" x1="28.73" y1="-58.29" x2="34.12" y2="-44.05"></line><line class="link backbone" x1="34.12" y1="-44.05" x2="44.64" y2="-32.77"></line><line class="link basepair" x1="36.96" y1="-19.32" x2="22.31" y2="-21.85"></line><line class="link backbone" x1="44.64" y1="-32.77" x2="36.96" y2="-19.32"></line><line class="link basepair" x1="34.68" y1="-3.91" x2="20.26" y2="-5.64"></line><line class="link backbone" x1="36.96" y1="-19.32" x2="34.68" y2="-3.91"></line><line class="link basepair" x1="32.92" y1="12.07" x2="18.50" y2="10.53"></line><line class="link backbone" x1="34.68" y1="-3.91" x2="32.92" y2="12.07"></line><line class="link basepair" x1="31.17" y1="28.23" x2="16.76" y2="26.58"></line><line class="link backbone" x1="32.92" y1="12.07" x2="31.17" y2="28.23"></line><line class="link basepair" x1="29.22" y1="44.40" x2="14.80" y2="42.49"></line><line class="link backbone" x1="31.17" y1="28.23" x2="29.22" y2="44.40"></line><line class="link basepair" x1="26.88" y1="60.54" x2="12.56" y2="58.27"></line><line class="link backbone" x1="29.22" y1="44.40" x2="26.88" y2="60.54"></line><line class="link basepair" x1="24.28" y1="76.61" x2="9.66" y2="73.69"></line><line class="link backbone" x1="26.88" y1="60.54" x2="24.28" y2="76.61"></line><line class="link backbone" x1="24.28" y1="76.61" x2="33.94" y2="88.92"></line><line class="link backbone" x1="33.94" y1="88.92" x2="35.14" y2="103.69"></line><line class="link basepair" x1="27.54" y1="117.27" x2="13.51" y2="122.33"></line><line class="link backbone" x1="35.14" y1="103.69" x2="27.54" y2="117.27"></line><line class="link basepair" x1="32.43" y1="132.91" x2="18.47" y2="136.97"></line><line class="link backbone" x1="27.54" y1="117.27" x2="32.43" y2="132.91"></line><line class="link basepair" x1="36.55" y1="148.95" x2="22.30" y2="152.06"></line><line class="link backbone" x1="32.43" y1="132.91" x2="36.55" y2="148.95"></line><line class="link basepair" x1="39.50" y1="165.24" x2="25.09" y2="167.31"></line><line class="link backbone" x1="36.55" y1="148.95" x2="39.50" y2="165.24"></line><line class="link basepair" x1="41.37" y1="181.61" x2="26.86" y2="182.87"></line><line class="link backbone" x1="39.50" y1="165.24" x2="41.37" y2="181.61"></line><line class="link basepair" x1="42.41" y1="197.94" x2="27.84" y2="198.64"></line><line class="link backbone" x1="41.37" y1="181.61" x2="42.41" y2="197.94"></line><line class="link basepair" x1="42.98" y1="214.06" x2="28.38" y2="214.53"></line><line class="link backbone" x1="42.41" y1="197.94" x2="42.98" y2="214.06"></line><line class="link basepair" x1="43.51" y1="229.97" x2="28.90" y2="230.57"></line><line class="link backbone" x1="42.98" y1="214.06" x2="43.51" y2="229.97"></line><line class="link basepair" x1="44.31" y1="245.78" x2="29.72" y2="246.73"></line><line class="link backbone" x1="43.51" y1="229.97" x2="44.31" y2="245.78"></line><line class="link basepair" x1="45.59" y1="261.44" x2="31.01" y2="262.89"></line><line class="link backbone" x1="44.31" y1="245.78" x2="45.59" y2="261.44"></line><line class="link basepair" x1="47.42" y1="276.96" x2="32.86" y2="278.92"></line><line class="link backbone" x1="45.59" y1="261.44" x2="47.42" y2="276.96"></line><line class="link basepair" x1="49.78" y1="292.40" x2="35.27" y2="294.83"></line><line class="link backbone" x1="47.42" y1="276.96" x2="49.78" y2="292.40"></line><line class="link basepair" x1="52.62" y1="307.71" x2="38.11" y2="310.53"></line><line class="link backbone" x1="49.78" y1="292.40" x2="52.62" y2="307.71"></line><line class="link basepair" x1="55.79" y1="322.88" x2="41.14" y2="325.86"></line><line class="link backbone" x1="52.62" y1="307.71" x2="55.79" y2="322.88"></line><line class="link backbone" x1="55.79" y1="322.88" x2="65.82" y2="334.36"></line><line class="link backbone" x1="65.82" y1="334.36" x2="61.20" y2="348.52"></line><line class="link label_link" x1="26.86" y1="182.87" x2="11.29" y2="183.89"></line><line class="link label_link" x1="12.56" y1="58.27" x2="-2.81" y2="55.51"></line><line class="link label_link" x1="10.60" y1="-87.43" x2="9.11" y2="-102.79"></line><line class="link label_link" x1="29.22" y1="44.40" x2="44.66" y2="46.61"></line><line class="link label_link" x1="42.41" y1="197.94" x2="58.05" y2="198.15"></line><line class="link label_link" x1="61.20" y1="348.52" x2="65.54" y2="363.34"></line><line class="link fake transparent" x1="41.14" y1="325.86" x2="46.87" y2="316.81"></line><line class="link fake transparent" x1="41.14" y1="325.86" x2="52.62" y2="307.71"></line><line class="link fake transparent" x1="38.11" y1="310.53" x2="46.87" y2="316.81"></line><line class="link fake transparent" x1="52.62" y1="307.71" x2="46.87" y2="316.81"></line><line class="link fake transparent" x1="55.79" y1="322.88" x2="46.87" y2="316.81"></line><line class="link fake transparent" x1="38.11" y1="310.53" x2="43.84" y2="301.42"></line><line class="link fake transparent" x1="35.27" y1="294.83" x2="43.84" y2="301.42"></line><line class="link fake transparent" x1="49.78" y1="292.40" x2="43.84" y2="301.42"></line><line class="link fake transparent" x1="52.62" y1="307.71" x2="43.84" y2="301.42"></line><line class="link fake transparent" x1="35.27" y1="294.83" x2="41.19" y2="285.82"></line><line class="link fake transparent" x1="32.86" y1="278.92" x2="41.19" y2="285.82"></line><line class="link fake transparent" x1="47.42" y1="276.96" x2="41.19" y2="285.82"></line><line class="link fake transparent" x1="49.78" y1="292.40" x2="41.19" y2="285.82"></line><line class="link fake transparent" x1="32.86" y1="278.92" x2="39.07" y2="270.11"></line><line class="link fake transparent" x1="31.01" y1="262.89" x2="39.07" y2="270.11"></line><line class="link fake transparent" x1="45.59" y1="261.44" x2="39.07" y2="270.11"></line><line class="link fake transparent" x1="47.42" y1="276.96" x2="39.07" y2="270.11"></line><line class="link fake transparent" x1="31.01" y1="262.89" x2="37.51" y2="254.24"></line><line class="link fake transparent" x1="29.72" y1="246.73" x2="37.51" y2="254.24"></line><line class="link fake transparent" x1="44.31" y1="245.78" x2="37.51" y2="254.24"></line><line class="link fake transparent" x1="45.59" y1="261.44" x2="37.51" y2="254.24"></line><line class="link fake transparent" x1="29.72" y1="246.73" x2="36.50" y2="238.28"></line><line class="link fake transparent" x1="28.90" y1="230.57" x2="36.50" y2="238.28"></line><line class="link fake transparent" x1="43.51" y1="229.97" x2="36.50" y2="238.28"></line><line class="link fake transparent" x1="44.31" y1="245.78" x2="36.50" y2="238.28"></line><line class="link fake transparent" x1="28.90" y1="230.57" x2="35.89" y2="222.31"></line><line class="link fake transparent" x1="28.38" y1="214.53" x2="35.89" y2="222.31"></line><line class="link fake transparent" x1="42.98" y1="214.06" x2="35.89" y2="222.31"></line><line class="link fake transparent" x1="43.51" y1="229.97" x2="35.89" y2="222.31"></line><line class="link fake transparent" x1="28.38" y1="214.53" x2="35.46" y2="206.33"></line><line class="link fake transparent" x1="27.84" y1="198.64" x2="35.46" y2="206.33"></line><line class="link fake transparent" x1="42.41" y1="197.94" x2="35.46" y2="206.33"></line><line class="link fake transparent" x1="42.98" y1="214.06" x2="35.46" y2="206.33"></line><line class="link fake transparent" x1="27.84" y1="198.64" x2="34.78" y2="190.26"></line><line class="link fake transparent" x1="26.86" y1="182.87" x2="34.78" y2="190.26"></line><line class="link fake transparent" x1="41.37" y1="181.61" x2="34.78" y2="190.26"></line><line class="link fake transparent" x1="42.41" y1="197.94" x2="34.78" y2="190.26"></line><line class="link fake transparent" x1="26.86" y1="182.87" x2="33.46" y2="174.21"></line><line class="link fake transparent" x1="25.09" y1="167.31" x2="33.46" y2="174.21"></line><line class="link fake transparent" x1="39.50" y1="165.24" x2="33.46" y2="174.21"></line><line class="link fake transparent" x1="41.37" y1="181.61" x2="33.46" y2="174.21"></line><line class="link fake transparent" x1="25.09" y1="167.31" x2="31.17" y2="158.31"></line><line class="link fake transparent" x1="22.30" y1="152.06" x2="31.17" y2="158.31"></line><line class="link fake transparent" x1="36.55" y1="148.95" x2="31.17" y2="158.31"></line><line class="link fake transparent" x1="39.50" y1="165.24" x2="31.17" y2="158.31"></line><line class="link fake transparent" x1="22.30" y1="152.06" x2="27.71" y2="142.65"></line><line class="link fake transparent" x1="18.47" y1="136.97" x2="27.71" y2="142.65"></line><line class="link fake transparent" x1="32.43" y1="132.91" x2="27.71" y2="142.65"></line><line class="link fake transparent" x1="36.55" y1="148.95" x2="27.71" y2="142.65"></line><line class="link fake transparent" x1="18.47" y1="136.97" x2="23.17" y2="127.21"></line><line class="link fake transparent" x1="13.51" y1="122.33" x2="23.17" y2="127.21"></line><line class="link fake transparent" x1="27.54" y1="117.27" x2="23.17" y2="127.21"></line><line class="link fake transparent" x1="32.43" y1="132.91" x2="23.17" y2="127.21"></line><line class="link fake transparent" x1="9.66" y1="73.69" x2="18.45" y2="67.41"></line><line class="link fake transparent" x1="12.56" y1="58.27" x2="18.45" y2="67.41"></line><line class="link fake transparent" x1="26.88" y1="60.54" x2="18.45" y2="67.41"></line><line class="link fake transparent" x1="24.28" y1="76.61" x2="18.45" y2="67.41"></line><line class="link fake transparent" x1="12.56" y1="58.27" x2="20.96" y2="51.42"></line><line class="link fake transparent" x1="14.80" y1="42.49" x2="20.96" y2="51.42"></line><line class="link fake transparent" x1="29.22" y1="44.40" x2="20.96" y2="51.42"></line><line class="link fake transparent" x1="26.88" y1="60.54" x2="20.96" y2="51.42"></line><line class="link fake transparent" x1="14.80" y1="42.49" x2="23.05" y2="35.45"></line><line class="link fake transparent" x1="16.76" y1="26.58" x2="23.05" y2="35.45"></line><line class="link fake transparent" x1="31.17" y1="28.23" x2="23.05" y2="35.45"></line><line class="link fake transparent" x1="29.22" y1="44.40" x2="23.05" y2="35.45"></line><line class="link fake transparent" x1="16.76" y1="26.58" x2="24.87" y2="19.36"></line><line class="link fake transparent" x1="18.50" y1="10.53" x2="24.87" y2="19.36"></line><line class="link fake transparent" x1="32.92" y1="12.07" x2="24.87" y2="19.36"></line><line class="link fake transparent" x1="31.17" y1="28.23" x2="24.87" y2="19.36"></line><line class="link fake transparent" x1="18.50" y1="10.53" x2="26.55" y2="3.25"></line><line class="link fake transparent" x1="20.26" y1="-5.64" x2="26.55" y2="3.25"></line><line class="link fake transparent" x1="34.68" y1="-3.91" x2="26.55" y2="3.25"></line><line class="link fake transparent" x1="32.92" y1="12.07" x2="26.55" y2="3.25"></line><line class="link fake transparent" x1="20.26" y1="-5.64" x2="28.40" y2="-12.74"></line><line class="link fake transparent" x1="22.31" y1="-21.85" x2="28.40" y2="-12.74"></line><line class="link fake transparent" x1="36.96" y1="-19.32" x2="28.40" y2="-12.74"></line><line class="link fake transparent" x1="34.68" y1="-3.91" x2="28.40" y2="-12.74"></line><line class="link fake transparent" x1="20.41" y1="-38.26" x2="24.31" y2="-48.44"></line><line class="link fake transparent" x1="14.62" y1="-53.20" x2="24.31" y2="-48.44"></line><line class="link fake transparent" x1="28.73" y1="-58.29" x2="24.31" y2="-48.44"></line><line class="link fake transparent" x1="34.12" y1="-44.05" x2="24.31" y2="-48.44"></line><line class="link fake transparent" x1="41.14" y1="325.86" x2="51.09" y2="337.21"></line><line class="link fake transparent" x1="41.14" y1="325.86" x2="61.20" y2="348.52"></line><line class="link fake transparent" x1="55.79" y1="322.88" x2="51.09" y2="337.21"></line><line class="link fake transparent" x1="55.79" y1="322.88" x2="46.81" y2="352.06"></line><line class="link fake transparent" x1="65.82" y1="334.36" x2="51.09" y2="337.21"></line><line class="link fake transparent" x1="65.82" y1="334.36" x2="36.18" y2="343.14"></line><line class="link fake transparent" x1="61.20" y1="348.52" x2="51.09" y2="337.21"></line><line class="link fake transparent" x1="61.20" y1="348.52" x2="41.14" y2="325.86"></line><line class="link fake transparent" x1="14.62" y1="-53.20" x2="16.42" y2="-70.73"></line><line class="link fake transparent" x1="14.62" y1="-53.20" x2="10.60" y2="-87.43"></line><line class="link fake transparent" x1="1.48" y1="-61.62" x2="16.42" y2="-70.73"></line><line class="link fake transparent" x1="1.48" y1="-61.62" x2="25.75" y2="-85.69"></line><line class="link fake transparent" x1="-0.19" y1="-76.65" x2="16.42" y2="-70.73"></line><line class="link fake transparent" x1="-0.19" y1="-76.65" x2="33.83" y2="-72.84"></line><line class="link fake transparent" x1="10.60" y1="-87.43" x2="16.42" y2="-70.73"></line><line class="link fake transparent" x1="10.60" y1="-87.43" x2="28.73" y2="-58.29"></line><line class="link fake transparent" x1="25.75" y1="-85.69" x2="16.42" y2="-70.73"></line><line class="link fake transparent" x1="25.75" y1="-85.69" x2="14.62" y2="-53.20"></line><line class="link fake transparent" x1="33.83" y1="-72.84" x2="16.42" y2="-70.73"></line><line class="link fake transparent" x1="33.83" y1="-72.84" x2="1.48" y2="-61.62"></line><line class="link fake transparent" x1="28.73" y1="-58.29" x2="16.42" y2="-70.73"></line><line class="link fake transparent" x1="28.73" y1="-58.29" x2="-0.19" y2="-76.65"></line><line class="link fake transparent" x1="13.51" y1="122.33" x2="11.77" y2="98.04"></line><line class="link fake transparent" x1="13.51" y1="122.33" x2="9.66" y2="73.69"></line><line class="link fake transparent" x1="-1.09" y1="118.37" x2="11.77" y2="98.04"></line><line class="link fake transparent" x1="-1.09" y1="118.37" x2="24.28" y2="76.61"></line><line class="link fake transparent" x1="-11.10" y1="107.48" x2="11.77" y2="98.04"></line><line class="link fake transparent" x1="-11.10" y1="107.48" x2="33.94" y2="88.92"></line><line class="link fake transparent" x1="-12.26" y1="92.39" x2="11.77" y2="98.04"></line><line class="link fake transparent" x1="-12.26" y1="92.39" x2="35.14" y2="103.69"></line><line class="link fake transparent" x1="-4.13" y1="80.05" x2="11.77" y2="98.04"></line><line class="link fake transparent" x1="-4.13" y1="80.05" x2="27.54" y2="117.27"></line><line class="link fake transparent" x1="9.66" y1="73.69" x2="11.77" y2="98.04"></line><line class="link fake transparent" x1="9.66" y1="73.69" x2="13.51" y2="122.33"></line><line class="link fake transparent" x1="24.28" y1="76.61" x2="11.77" y2="98.04"></line><line class="link fake transparent" x1="24.28" y1="76.61" x2="-1.09" y2="118.37"></line><line class="link fake transparent" x1="33.94" y1="88.92" x2="11.77" y2="98.04"></line><line class="link fake transparent" x1="33.94" y1="88.92" x2="-11.10" y2="107.48"></line><line class="link fake transparent" x1="35.14" y1="103.69" x2="11.77" y2="98.04"></line><line class="link fake transparent" x1="35.14" y1="103.69" x2="-12.26" y2="92.39"></line><line class="link fake transparent" x1="27.54" y1="117.27" x2="11.77" y2="98.04"></line><line class="link fake transparent" x1="27.54" y1="117.27" x2="-4.13" y2="80.05"></line><line class="link fake transparent" x1="22.31" y1="-21.85" x2="31.43" y2="-31.22"></line><line class="link fake transparent" x1="22.31" y1="-21.85" x2="34.12" y2="-44.05"></line><line class="link fake transparent" x1="20.41" y1="-38.26" x2="31.43" y2="-31.22"></line><line class="link fake transparent" x1="20.41" y1="-38.26" x2="44.64" y2="-32.77"></line><line class="link fake transparent" x1="34.12" y1="-44.05" x2="31.43" y2="-31.22"></line><line class="link fake transparent" x1="34.12" y1="-44.05" x2="36.96" y2="-19.32"></line><line class="link fake transparent" x1="44.64" y1="-32.77" x2="31.43" y2="-31.22"></line><line class="link fake transparent" x1="44.64" y1="-32.77" x2="22.31" y2="-21.85"></line><line class="link fake transparent" x1="36.96" y1="-19.32" x2="31.43" y2="-31.22"></line><line class="link fake transparent" x1="36.96" y1="-19.32" x2="20.41" y2="-38.26"></line></g><g><g class="noselect gnode" struct_name="m" transform="translate(41.14,325.86)" r="6.5"><circle class="node" r="6" node_type="nucleotide" style="fill: lightgreen;"></circle><text text-anchor="middle" font-size="8" font-weight="bold" y="2.5" class="node-label">G</text></g><g class="noselect gnode" struct_name="m" transform="translate(38.11,310.53)" r="6.5"><circle class="node" r="6" node_type="nucleotide" style="fill: lightgreen;"></circle><text text-anchor="middle" font-size="8" font-weight="bold" y="2.5" class="node-label">G</text></g><g class="noselect gnode" struct_name="m" transform="translate(35.27,294.83)" r="6.5"><circle class="node" r="6" node_type="nucleotide" style="fill: lightgreen;"></circle><text text-anchor="middle" font-size="8" font-weight="bold" y="2.5" class="node-label">C</text></g><g class="noselect gnode" struct_name="m" transform="translate(32.86,278.92)" r="6.5"><circle class="node" r="6" node_type="nucleotide" style="fill: lightgreen;"></circle><text text-anchor="middle" font-size="8" font-weight="bold" y="2.5" class="node-label">C</text></g><g class="noselect gnode" struct_name="m" transform="translate(31.01,262.89)" r="6.5"><circle class="node" r="6" node_type="nucleotide" style="fill: lightgreen;"></circle><text text-anchor="middle" font-size="8" font-weight="bold" y="2.5" class="node-label">G</text></g><g class="noselect gnode" struct_name="m" transform="translate(29.72,246.73)" r="6.5"><circle class="node" r="6" node_type="nucleotide" style="fill: lightgreen;"></circle><text text-anchor="middle" font-size="8" font-weight="bold" y="2.5" class="node-label">G</text></g><g class="noselect gnode" struct_name="m" transform="translate(28.90,230.57)" r="6.5"><circle class="node" r="6" node_type="nucleotide" style="fill: lightgreen;"></circle><text text-anchor="middle" font-size="8" font-weight="bold" y="2.5" class="node-label">U</text></g><g class="noselect gnode" struct_name="m" transform="translate(28.38,214.53)" r="6.5"><circle class="node" r="6" node_type="nucleotide" style="fill: lightgreen;"></circle><text text-anchor="middle" font-size="8" font-weight="bold" y="2.5" class="node-label">C</text></g><g class="noselect gnode" struct_name="m" transform="translate(27.84,198.64)" r="6.5"><circle class="node" r="6" node_type="nucleotide" style="fill: lightgreen;"></circle><text text-anchor="middle" font-size="8" font-weight="bold" y="2.5" class="node-label">U</text></g><g class="noselect gnode" struct_name="m" transform="translate(26.86,182.87)" r="6.5"><circle class="node" r="6" node_type="nucleotide" style="fill: lightgreen;"></circle><text text-anchor="middle" font-size="8" font-weight="bold" y="2.5" class="node-label">U</text></g><g class="noselect gnode" struct_name="m" transform="translate(25.09,167.31)" r="6.5"><circle class="node" r="6" node_type="nucleotide" style="fill: lightgreen;"></circle><text text-anchor="middle" font-size="8" font-weight="bold" y="2.5" class="node-label">G</text></g><g class="noselect gnode" struct_name="m" transform="translate(22.30,152.06)" r="6.5"><circle class="node" r="6" node_type="nucleotide" style="fill: lightgreen;"></circle><text text-anchor="middle" font-size="8" font-weight="bold" y="2.5" class="node-label">U</text></g><g class="noselect gnode" struct_name="m" transform="translate(18.47,136.97)" r="6.5"><circle class="node" r="6" node_type="nucleotide" style="fill: lightgreen;"></circle><text text-anchor="middle" font-size="8" font-weight="bold" y="2.5" class="node-label">A</text></g><g class="noselect gnode" struct_name="m" transform="translate(13.51,122.33)" r="6.5"><circle class="node" r="6" node_type="nucleotide" style="fill: lightgreen;"></circle><text text-anchor="middle" font-size="8" font-weight="bold" y="2.5" class="node-label">U</text></g><g class="noselect gnode" struct_name="m" transform="translate(-1.09,118.37)" r="6.5"><circle class="node" r="6" node_type="nucleotide" style="fill: rgb(219, 219, 141);"></circle><text text-anchor="middle" font-size="8" font-weight="bold" y="2.5" class="node-label">G</text></g><g class="noselect gnode" struct_name="m" transform="translate(-11.10,107.48)" r="6.5"><circle class="node" r="6" node_type="nucleotide" style="fill: rgb(219, 219, 141);"></circle><text text-anchor="middle" font-size="8" font-weight="bold" y="2.5" class="node-label">A</text></g><g class="noselect gnode" struct_name="m" transform="translate(-12.26,92.39)" r="6.5"><circle class="node" r="6" node_type="nucleotide" style="fill: rgb(219, 219, 141);"></circle><text text-anchor="middle" font-size="8" font-weight="bold" y="2.5" class="node-label">U</text></g><g class="noselect gnode" struct_name="m" transform="translate(-4.13,80.05)" r="6.5"><circle class="node" r="6" node_type="nucleotide" style="fill: rgb(219, 219, 141);"></circle><text text-anchor="middle" font-size="8" font-weight="bold" y="2.5" class="node-label">A</text></g><g class="noselect gnode" struct_name="m" transform="translate(9.66,73.69)" r="6.5"><circle class="node" r="6" node_type="nucleotide" style="fill: lightgreen;"></circle><text text-anchor="middle" font-size="8" font-weight="bold" y="2.5" class="node-label">G</text></g><g class="noselect gnode" struct_name="m" transform="translate(12.56,58.27)" r="6.5"><circle class="node" r="6" node_type="nucleotide" style="fill: lightgreen;"></circle><text text-anchor="middle" font-size="8" font-weight="bold" y="2.5" class="node-label">G</text></g><g class="noselect gnode" struct_name="m" transform="translate(14.80,42.49)" r="6.5"><circle class="node" r="6" node_type="nucleotide" style="fill: lightgreen;"></circle><text text-anchor="middle" font-size="8" font-weight="bold" y="2.5" class="node-label">G</text></g><g class="noselect gnode" struct_name="m" transform="translate(16.76,26.58)" r="6.5"><circle class="node" r="6" node_type="nucleotide" style="fill: lightgreen;"></circle><text text-anchor="middle" font-size="8" font-weight="bold" y="2.5" class="node-label">A</text></g><g class="noselect gnode" struct_name="m" transform="translate(18.50,10.53)" r="6.5"><circle class="node" r="6" node_type="nucleotide" style="fill: lightgreen;"></circle><text text-anchor="middle" font-size="8" font-weight="bold" y="2.5" class="node-label">U</text></g><g class="noselect gnode" struct_name="m" transform="translate(20.26,-5.64)" r="6.5"><circle class="node" r="6" node_type="nucleotide" style="fill: lightgreen;"></circle><text text-anchor="middle" font-size="8" font-weight="bold" y="2.5" class="node-label">C</text></g><g class="noselect gnode" struct_name="m" transform="translate(22.31,-21.85)" r="6.5"><circle class="node" r="6" node_type="nucleotide" style="fill: lightgreen;"></circle><text text-anchor="middle" font-size="8" font-weight="bold" y="2.5" class="node-label">G</text></g><g class="noselect gnode" struct_name="m" transform="translate(20.41,-38.26)" r="6.5"><circle class="node" r="6" node_type="nucleotide" style="fill: lightgreen;"></circle><text text-anchor="middle" font-size="8" font-weight="bold" y="2.5" class="node-label">A</text></g><g class="noselect gnode" struct_name="m" transform="translate(14.62,-53.20)" r="6.5"><circle class="node" r="6" node_type="nucleotide" style="fill: lightgreen;"></circle><text text-anchor="middle" font-size="8" font-weight="bold" y="2.5" class="node-label">C</text></g><g class="noselect gnode" struct_name="m" transform="translate(1.48,-61.62)" r="6.5"><circle class="node" r="6" node_type="nucleotide" style="fill: lightblue;"></circle><text text-anchor="middle" font-size="8" font-weight="bold" y="2.5" class="node-label">G</text></g><g class="noselect gnode" struct_name="m" transform="translate(-0.19,-76.65)" r="6.5"><circle class="node" r="6" node_type="nucleotide" style="fill: lightblue;"></circle><text text-anchor="middle" font-size="8" font-weight="bold" y="2.5" class="node-label">G</text></g><g class="noselect gnode" struct_name="m" transform="translate(10.60,-87.43)" r="6.5"><circle class="node" r="6" node_type="nucleotide" style="fill: lightblue;"></circle><text text-anchor="middle" font-size="8" font-weight="bold" y="2.5" class="node-label">U</text></g><g class="noselect gnode" struct_name="m" transform="translate(25.75,-85.69)" r="6.5"><circle class="node" r="6" node_type="nucleotide" style="fill: lightblue;"></circle><text text-anchor="middle" font-size="8" font-weight="bold" y="2.5" class="node-label">A</text></g><g class="noselect gnode" struct_name="m" transform="translate(33.83,-72.84)" r="6.5"><circle class="node" r="6" node_type="nucleotide" style="fill: lightblue;"></circle><text text-anchor="middle" font-size="8" font-weight="bold" y="2.5" class="node-label">A</text></g><g class="noselect gnode" struct_name="m" transform="translate(28.73,-58.29)" r="6.5"><circle class="node" r="6" node_type="nucleotide" style="fill: lightgreen;"></circle><text text-anchor="middle" font-size="8" font-weight="bold" y="2.5" class="node-label">G</text></g><g class="noselect gnode" struct_name="m" transform="translate(34.12,-44.05)" r="6.5"><circle class="node" r="6" node_type="nucleotide" style="fill: lightgreen;"></circle><text text-anchor="middle" font-size="8" font-weight="bold" y="2.5" class="node-label">U</text></g><g class="noselect gnode" struct_name="m" transform="translate(44.64,-32.77)" r="6.5"><circle class="node" r="6" node_type="nucleotide" style="fill: rgb(219, 219, 141);"></circle><text text-anchor="middle" font-size="8" font-weight="bold" y="2.5" class="node-label">A</text></g><g class="noselect gnode" struct_name="m" transform="translate(36.96,-19.32)" r="6.5"><circle class="node" r="6" node_type="nucleotide" style="fill: lightgreen;"></circle><text text-anchor="middle" font-size="8" font-weight="bold" y="2.5" class="node-label">C</text></g><g class="noselect gnode" struct_name="m" transform="translate(34.68,-3.91)" r="6.5"><circle class="node" r="6" node_type="nucleotide" style="fill: lightgreen;"></circle><text text-anchor="middle" font-size="8" font-weight="bold" y="2.5" class="node-label">G</text></g><g class="noselect gnode" struct_name="m" transform="translate(32.92,12.07)" r="6.5"><circle class="node" r="6" node_type="nucleotide" style="fill: lightgreen;"></circle><text text-anchor="middle" font-size="8" font-weight="bold" y="2.5" class="node-label">G</text></g><g class="noselect gnode" struct_name="m" transform="translate(31.17,28.23)" r="6.5"><circle class="node" r="6" node_type="nucleotide" style="fill: lightgreen;"></circle><text text-anchor="middle" font-size="8" font-weight="bold" y="2.5" class="node-label">U</text></g><g class="noselect gnode" struct_name="m" transform="translate(29.22,44.40)" r="6.5"><circle class="node" r="6" node_type="nucleotide" style="fill: lightgreen;"></circle><text text-anchor="middle" font-size="8" font-weight="bold" y="2.5" class="node-label">C</text></g><g class="noselect gnode" struct_name="m" transform="translate(26.88,60.54)" r="6.5"><circle class="node" r="6" node_type="nucleotide" style="fill: lightgreen;"></circle><text text-anchor="middle" font-size="8" font-weight="bold" y="2.5" class="node-label">C</text></g><g class="noselect gnode" struct_name="m" transform="translate(24.28,76.61)" r="6.5"><circle class="node" r="6" node_type="nucleotide" style="fill: lightgreen;"></circle><text text-anchor="middle" font-size="8" font-weight="bold" y="2.5" class="node-label">C</text></g><g class="noselect gnode" struct_name="m" transform="translate(33.94,88.92)" r="6.5"><circle class="node" r="6" node_type="nucleotide" style="fill: rgb(219, 219, 141);"></circle><text text-anchor="middle" font-size="8" font-weight="bold" y="2.5" class="node-label">C</text></g><g class="noselect gnode" struct_name="m" transform="translate(35.14,103.69)" r="6.5"><circle class="node" r="6" node_type="nucleotide" style="fill: rgb(219, 219, 141);"></circle><text text-anchor="middle" font-size="8" font-weight="bold" y="2.5" class="node-label">A</text></g><g class="noselect gnode" struct_name="m" transform="translate(27.54,117.27)" r="6.5"><circle class="node" r="6" node_type="nucleotide" style="fill: lightgreen;"></circle><text text-anchor="middle" font-size="8" font-weight="bold" y="2.5" class="node-label">G</text></g><g class="noselect gnode" struct_name="m" transform="translate(32.43,132.91)" r="6.5"><circle class="node" r="6" node_type="nucleotide" style="fill: lightgreen;"></circle><text text-anchor="middle" font-size="8" font-weight="bold" y="2.5" class="node-label">U</text></g><g class="noselect gnode" struct_name="m" transform="translate(36.55,148.95)" r="6.5"><circle class="node" r="6" node_type="nucleotide" style="fill: lightgreen;"></circle><text text-anchor="middle" font-size="8" font-weight="bold" y="2.5" class="node-label">A</text></g><g class="noselect gnode" struct_name="m" transform="translate(39.50,165.24)" r="6.5"><circle class="node" r="6" node_type="nucleotide" style="fill: lightgreen;"></circle><text text-anchor="middle" font-size="8" font-weight="bold" y="2.5" class="node-label">C</text></g><g class="noselect gnode" struct_name="m" transform="translate(41.37,181.61)" r="6.5"><circle class="node" r="6" node_type="nucleotide" style="fill: lightgreen;"></circle><text text-anchor="middle" font-size="8" font-weight="bold" y="2.5" class="node-label">A</text></g><g class="noselect gnode" struct_name="m" transform="translate(42.41,197.94)" r="6.5"><circle class="node" r="6" node_type="nucleotide" style="fill: lightgreen;"></circle><text text-anchor="middle" font-size="8" font-weight="bold" y="2.5" class="node-label">A</text></g><g class="noselect gnode" struct_name="m" transform="translate(42.98,214.06)" r="6.5"><circle class="node" r="6" node_type="nucleotide" style="fill: lightgreen;"></circle><text text-anchor="middle" font-size="8" font-weight="bold" y="2.5" class="node-label">G</text></g><g class="noselect gnode" struct_name="m" transform="translate(43.51,229.97)" r="6.5"><circle class="node" r="6" node_type="nucleotide" style="fill: lightgreen;"></circle><text text-anchor="middle" font-size="8" font-weight="bold" y="2.5" class="node-label">A</text></g><g class="noselect gnode" struct_name="m" transform="translate(44.31,245.78)" r="6.5"><circle class="node" r="6" node_type="nucleotide" style="fill: lightgreen;"></circle><text text-anchor="middle" font-size="8" font-weight="bold" y="2.5" class="node-label">C</text></g><g class="noselect gnode" struct_name="m" transform="translate(45.59,261.44)" r="6.5"><circle class="node" r="6" node_type="nucleotide" style="fill: lightgreen;"></circle><text text-anchor="middle" font-size="8" font-weight="bold" y="2.5" class="node-label">C</text></g><g class="noselect gnode" struct_name="m" transform="translate(47.42,276.96)" r="6.5"><circle class="node" r="6" node_type="nucleotide" style="fill: lightgreen;"></circle><text text-anchor="middle" font-size="8" font-weight="bold" y="2.5" class="node-label">G</text></g><g class="noselect gnode" struct_name="m" transform="translate(49.78,292.40)" r="6.5"><circle class="node" r="6" node_type="nucleotide" style="fill: lightgreen;"></circle><text text-anchor="middle" font-size="8" font-weight="bold" y="2.5" class="node-label">G</text></g><g class="noselect gnode" struct_name="m" transform="translate(52.62,307.71)" r="6.5"><circle class="node" r="6" node_type="nucleotide" style="fill: lightgreen;"></circle><text text-anchor="middle" font-size="8" font-weight="bold" y="2.5" class="node-label">C</text></g><g class="noselect gnode" struct_name="m" transform="translate(55.79,322.88)" r="6.5"><circle class="node" r="6" node_type="nucleotide" style="fill: lightgreen;"></circle><text text-anchor="middle" font-size="8" font-weight="bold" y="2.5" class="node-label">U</text></g><g class="noselect gnode" struct_name="m" transform="translate(65.82,334.36)" r="6.5"><circle class="node" r="6" node_type="nucleotide" style="fill: lightsalmon;"></circle><text text-anchor="middle" font-size="8" font-weight="bold" y="2.5" class="node-label">C</text></g><g class="noselect gnode" struct_name="m" transform="translate(61.20,348.52)" r="6.5"><circle class="node" r="6" node_type="nucleotide" style="fill: lightsalmon;"></circle><text text-anchor="middle" font-size="8" font-weight="bold" y="2.5" class="node-label">U</text></g><g class="noselect gnode" struct_name="m" transform="translate(11.29,183.89)" r="6.5"><circle class="node label" r="6" node_type="label"></circle><text text-anchor="middle" font-size="8" font-weight="bold" y="2.5" class="node-label">10</text></g><g class="noselect gnode" struct_name="m" transform="translate(-2.81,55.51)" r="6.5"><circle class="node label" r="6" node_type="label"></circle><text text-anchor="middle" font-size="8" font-weight="bold" y="2.5" class="node-label">20</text></g><g class="noselect gnode" struct_name="m" transform="translate(9.11,-102.79)" r="6.5"><circle class="node label" r="6" node_type="label"></circle><text text-anchor="middle" font-size="8" font-weight="bold" y="2.5" class="node-label">30</text></g><g class="noselect gnode" struct_name="m" transform="translate(44.66,46.61)" r="6.5"><circle class="node label" r="6" node_type="label"></circle><text text-anchor="middle" font-size="8" font-weight="bold" y="2.5" class="node-label">40</text></g><g class="noselect gnode" struct_name="m" transform="translate(58.05,198.15)" r="6.5"><circle class="node label" r="6" node_type="label"></circle><text text-anchor="middle" font-size="8" font-weight="bold" y="2.5" class="node-label">50</text></g><g class="noselect gnode" struct_name="m" transform="translate(65.54,363.34)" r="6.5"><circle class="node label" r="6" node_type="label"></circle><text text-anchor="middle" font-size="8" font-weight="bold" y="2.5" class="node-label">60</text></g><g class="noselect gnode" transform="translate(46.87,316.81)" r="6.5"><circle class="node" r="0" node_type="middle"></circle><text text-anchor="middle" font-size="8" font-weight="bold" y="2.5" class="node-label"></text></g><g class="noselect gnode" transform="translate(43.84,301.42)" r="6.5"><circle class="node" r="0" node_type="middle"></circle><text text-anchor="middle" font-size="8" font-weight="bold" y="2.5" class="node-label"></text></g><g class="noselect gnode" transform="translate(41.19,285.82)" r="6.5"><circle class="node" r="0" node_type="middle"></circle><text text-anchor="middle" font-size="8" font-weight="bold" y="2.5" class="node-label"></text></g><g class="noselect gnode" transform="translate(39.07,270.11)" r="6.5"><circle class="node" r="0" node_type="middle"></circle><text text-anchor="middle" font-size="8" font-weight="bold" y="2.5" class="node-label"></text></g><g class="noselect gnode" transform="translate(37.51,254.24)" r="6.5"><circle class="node" r="0" node_type="middle"></circle><text text-anchor="middle" font-size="8" font-weight="bold" y="2.5" class="node-label"></text></g><g class="noselect gnode" transform="translate(36.50,238.28)" r="6.5"><circle class="node" r="0" node_type="middle"></circle><text text-anchor="middle" font-size="8" font-weight="bold" y="2.5" class="node-label"></text></g><g class="noselect gnode" transform="translate(35.89,222.31)" r="6.5"><circle class="node" r="0" node_type="middle"></circle><text text-anchor="middle" font-size="8" font-weight="bold" y="2.5" class="node-label"></text></g><g class="noselect gnode" transform="translate(35.46,206.33)" r="6.5"><circle class="node" r="0" node_type="middle"></circle><text text-anchor="middle" font-size="8" font-weight="bold" y="2.5" class="node-label"></text></g><g class="noselect gnode" transform="translate(34.78,190.26)" r="6.5"><circle class="node" r="0" node_type="middle"></circle><text text-anchor="middle" font-size="8" font-weight="bold" y="2.5" class="node-label"></text></g><g class="noselect gnode" transform="translate(33.46,174.21)" r="6.5"><circle class="node" r="0" node_type="middle"></circle><text text-anchor="middle" font-size="8" font-weight="bold" y="2.5" class="node-label"></text></g><g class="noselect gnode" transform="translate(31.17,158.31)" r="6.5"><circle class="node" r="0" node_type="middle"></circle><text text-anchor="middle" font-size="8" font-weight="bold" y="2.5" class="node-label"></text></g><g class="noselect gnode" transform="translate(27.71,142.65)" r="6.5"><circle class="node" r="0" node_type="middle"></circle><text text-anchor="middle" font-size="8" font-weight="bold" y="2.5" class="node-label"></text></g><g class="noselect gnode" transform="translate(23.17,127.21)" r="6.5"><circle class="node" r="0" node_type="middle"></circle><text text-anchor="middle" font-size="8" font-weight="bold" y="2.5" class="node-label"></text></g><g class="noselect gnode" transform="translate(18.45,67.41)" r="6.5"><circle class="node" r="0" node_type="middle"></circle><text text-anchor="middle" font-size="8" font-weight="bold" y="2.5" class="node-label"></text></g><g class="noselect gnode" transform="translate(20.96,51.42)" r="6.5"><circle class="node" r="0" node_type="middle"></circle><text text-anchor="middle" font-size="8" font-weight="bold" y="2.5" class="node-label"></text></g><g class="noselect gnode" transform="translate(23.05,35.45)" r="6.5"><circle class="node" r="0" node_type="middle"></circle><text text-anchor="middle" font-size="8" font-weight="bold" y="2.5" class="node-label"></text></g><g class="noselect gnode" transform="translate(24.87,19.36)" r="6.5"><circle class="node" r="0" node_type="middle"></circle><text text-anchor="middle" font-size="8" font-weight="bold" y="2.5" class="node-label"></text></g><g class="noselect gnode" transform="translate(26.55,3.25)" r="6.5"><circle class="node" r="0" node_type="middle"></circle><text text-anchor="middle" font-size="8" font-weight="bold" y="2.5" class="node-label"></text></g><g class="noselect gnode" transform="translate(28.40,-12.74)" r="6.5"><circle class="node" r="0" node_type="middle"></circle><text text-anchor="middle" font-size="8" font-weight="bold" y="2.5" class="node-label"></text></g><g class="noselect gnode" transform="translate(24.31,-48.44)" r="6.5"><circle class="node" r="0" node_type="middle"></circle><text text-anchor="middle" font-size="8" font-weight="bold" y="2.5" class="node-label"></text></g><g class="noselect gnode" transform="translate(46.81,352.06)" r="6.5"><circle class="node" r="0" node_type="middle"></circle><text text-anchor="middle" font-size="8" font-weight="bold" y="2.5" class="node-label"></text></g><g class="noselect gnode" transform="translate(36.18,343.14)" r="6.5"><circle class="node" r="0" node_type="middle"></circle><text text-anchor="middle" font-size="8" font-weight="bold" y="2.5" class="node-label"></text></g><g class="noselect gnode" transform="translate(51.09,337.21)" r="6.5"><circle class="node" r="0" node_type="middle"></circle><text text-anchor="middle" font-size="8" font-weight="bold" y="2.5" class="node-label"></text></g><g class="noselect gnode" transform="translate(16.42,-70.73)" r="6.5"><circle class="node" r="0" node_type="middle"></circle><text text-anchor="middle" font-size="8" font-weight="bold" y="2.5" class="node-label"></text></g><g class="noselect gnode" transform="translate(11.77,98.04)" r="6.5"><circle class="node" r="0" node_type="middle"></circle><text text-anchor="middle" font-size="8" font-weight="bold" y="2.5" class="node-label"></text></g><g class="noselect gnode" transform="translate(31.43,-31.22)" r="6.5"><circle class="node" r="0" node_type="middle"></circle><text text-anchor="middle" font-size="8" font-weight="bold" y="2.5" class="node-label"></text></g></g><line class="drag_line" x1="0" y1="0" x2="0" y2="0"></line></g></g></svg>