<svg xmlns="http://www.w3.org/2000/svg" viewBox="0 0 760 640" width="760" height="640"><style>svg {
  display: block;
  min-width: 100%;
  width: 100%;
  min-height: 100%;
}

circle.node {
  stroke: #ccc;
  stroke-width: 1px;
  opacity: 1;
  fill: white;
}

circle.node.label {
    stroke: transparent;
    stroke-width: 0;
    fill: white;
}

circle.outline_node {
    stroke-width: 1px;
    fill: red;
}

circle.protein {
    fill: gray;
    fill-opacity: 0.5;
    stroke-width: 4;
}

circle.hidden_outline {
    stroke-width: 0px;
}


line.link {
  stroke: #999;
  stroke-opacity: 0.8;
  stroke-width: 2;
}

line.basepair {
  stroke: red;
}

line.intermolecule {
  stroke: blue;
}

line.chain_chain {
  stroke-dasharray: 3,3;
}

line.fake {
  stroke: green;
}

.transparent {
    fill: transparent;
    stroke-width: 0;
    stroke-opacity: 0;
    opacity: 0;
    visibility: hidden;
}

.drag_line {
  stroke: #999;
  stroke-width: 2;
  pointer-events: none;
}

.drag_line_hidden {
  stroke: #999;
  stroke-width: 0;
  pointer-events: none;
}

.d3-tip {
    line-height: 1;
    font-weight: bold;
    padding: 6px;
    background: rgba(0, 0, 0, 0.6);
    color: #fff;
    border-radius: 4px;
    pointer-events: none;
          }

text.node-label {
    font-weight: bold;
    font-family: Tahoma, Geneva, sans-serif;
    color: rgb(100,100,100);
    pointer-events: none;
}

text {
    pointer-events: none;
}

g.gnode {

}

circle.outline_node.selected {
    visibility: visible;
}

circle.outline_node {
    visibility: hidden;
}

.brush .extent {
  fill-opacity: .1;
  stroke: #fff;
  shape-rendering: crispEdges;
}

.noselect {
    -webkit-touch-callout: none;
    -webkit-user-select: none;
    -khtml-user-select: none;
    -moz-user-select: none;
    -ms-user-select: none;
    user-select: none;
}

svg {
  display: block;
  min-width: 100%;
  width: 100%;
  min-height: 100%;
}

circle.node {
  stroke: #ccc;
  stroke-width: 1px;
  opacity: 1;
  fill: white;
}

circle.node.label {
    stroke: transparent;
    stroke-width: 0;
    fill: white;
}

circle.outline_node {
    stroke-width: 1px;
    fill: red;
}

circle.protein {
    fill: gray;
    fill-opacity: 0.5;
    stroke-width: 4;
}

circle.hidden_outline {
    stroke-width: 0px;
}


line.link {
  stroke: #999;
  stroke-opacity: 0.8;
  stroke-width: 2;
}

line.basepair {
  stroke: red;
}

line.intermolecule {
  stroke: blue;
}

line.chain_chain {
  stroke-dasharray: 3,3;
}

line.fake {
  stroke: green;
}

.transparent {
    fill: transparent;
    stroke-width: 0;
    stroke-opacity: 0;
    opacity: 0;
    visibility: hidden;
}

.drag_line {
  stroke: #999;
  stroke-width: 2;
  pointer-events: none;
}

.drag_line_hidden {
  stroke: #999;
  stroke-width: 0;
  pointer-events: none;
}

.d3-tip {
    line-height: 1;
    font-weight: bold;
    padding: 6px;
    background: rgba(0, 0, 0, 0.6);
    color: #fff;
    border-radius: 4px;
    pointer-events: none;
          }

text.node-label {
    font-weight: bold;
    font-family: Tahoma, Geneva, sans-serif;
    color: rgb(100,100,100);
    pointer-events: none;
}

text {
    pointer-events: none;
}

g.gnode {

}

circle.outline_node.selected {
    visibility: visible;
}

circle.outline_node {
    visibility: hidden;
}

.brush .extent {
  fill-opacity: .1;
  stroke: #fff;
  shape-rendering: crispEdges;
}

.noselect {
    -webkit-touch-callout: none;
    -webkit-user-select: none;
    -khtml-user-select: none;
    -moz-user-select: none;
    -ms-user-select: none;
    user-select: none;
}
/*# sourceURL=/Users/yumanakamura/ipy_sandbox/sandbox/claude_sandbox/mrna-transformer/scripts/eval/prerender/forna_vendor/fornac.css*/</style><style></style><g><g class="brush" style="pointer-events: all; -webkit-tap-highlight-color: rgba(0, 0, 0, 0);"><rect class="background" x="0" width="760" y="0" height="640" style="visibility: hidden; cursor: auto;"></rect><rect class="extent" x="0" width="0" y="0" height="0" style="cursor: move;"></rect><g class="resize n" transform="translate(0,0)" style="cursor: ns-resize; display: none;"><rect y="-3" width="0" height="6" style="visibility: hidden;"></rect></g><g class="resize e" transform="translate(0,0)" style="cursor: ew-resize; display: none;"><rect x="-3" width="6" height="0" style="visibility: hidden;"></rect></g><g class="resize s" transform="translate(0,0)" style="cursor: ns-resize; display: none;"><rect y="-3" width="0" height="6" style="visibility: hidden;"></rect></g><g class="resize w" transform="translate(0,0)" style="cursor: ew-resize; display: none;"><rect x="-3" width="6" height="0" style="visibility: hidden;"></rect></g><g class="resize nw" transform="translate(0,0)" style="cursor: nwse-resize; display: none;"><rect x="-3" y="-3" width="6" height="6" style="visibility: hidden;"></rect></g><g class="resize ne" transform="translate(0,0)" style="cursor: nesw-resize; display: none;"><rect x="-3" y="-3" width="6" height="6" style="visibility: hidden;"></rect></g><g class="resize se" transform="translate(0,0)" style="cursor: nwse-resize; display: none;"><rect x="-3" y="-3" width="6" height="6" style="visibility: hidden;"></rect></g><g class="resize sw" transform="translate(0,0)" style="cursor: nesw-resize; display: none;"><rect x="-3" y="-3" width="6" height="6" style="visibility: hidden;"></rect></g></g><g transform="translate(344.41,215.85) scale(1.21)"><g><line class="link backbone" x1="12.01" y1="287.45" x2="11.44" y2="272.52"></line><line class="link basepair" x1="20.62" y1="260.27" x2="35.18" y2="256.66"></line><line class="link backbone" x1="11.44" y1="272.52" x2="20.62" y2="260.27"></line><line class="link basepair" x1="16.77" y1="245.38" x2="30.83" y2="241.23"></line><line class="link backbone" x1="20.62" y1="260.27" x2="16.77" y2="245.38"></line><line class="link basepair" x1="12.01" y1="230.68" x2="25.69" y2="225.61"></line><line class="link backbone" x1="16.77" y1="245.38" x2="12.01" y2="230.68"></line><line class="link basepair" x1="6.05" y1="216.88" x2="19.23" y2="210.13"></line><line class="link backbone" x1="12.01" y1="230.68" x2="6.05" y2="216.88"></line><line class="link backbone" x1="6.05" y1="216.88" x2="-6.82" y2="209.21"></line><line class="link backbone" x1="-6.82" y1="209.21" x2="-6.81" y2="194.52"></line><line class="link basepair" x1="6.15" y1="186.85" x2="19.26" y2="193.57"></line><line class="link backbone" x1="-6.81" y1="194.52" x2="6.15" y2="186.85"></line><line class="link basepair" x1="12.09" y1="172.96" x2="25.76" y2="177.85"></line><line class="link backbone" x1="6.15" y1="186.85" x2="12.09" y2="172.96"></line><line class="link basepair" x1="16.52" y1="158.20" x2="30.60" y2="161.73"></line><line class="link backbone" x1="12.09" y1="172.96" x2="16.52" y2="158.20"></line><line class="link basepair" x1="19.59" y1="142.99" x2="33.96" y2="145.34"></line><line class="link backbone" x1="16.52" y1="158.20" x2="19.59" y2="142.99"></line><line class="link basepair" x1="21.53" y1="127.55" x2="36.05" y2="128.90"></line><line class="link backbone" x1="19.59" y1="142.99" x2="21.53" y2="127.55"></line><line class="link basepair" x1="22.36" y1="112.14" x2="37.17" y2="112.62"></line><line class="link backbone" x1="21.53" y1="127.55" x2="22.36" y2="112.14"></line><line class="link backbone" x1="22.36" y1="112.14" x2="14.95" y2="98.90"></line><line class="link basepair" x1="22.83" y1="85.85" x2="37.59" y2="85.96"></line><line class="link backbone" x1="14.95" y1="98.90" x2="22.83" y2="85.85"></line><line class="link basepair" x1="22.72" y1="70.16" x2="37.50" y2="69.96"></line><line class="link backbone" x1="22.83" y1="85.85" x2="22.72" y2="70.16"></line><line class="link backbone" x1="22.72" y1="70.16" x2="14.79" y2="57.11"></line><line class="link basepair" x1="22.27" y1="43.71" x2="37.05" y2="43.51"></line><line class="link backbone" x1="14.79" y1="57.11" x2="22.27" y2="43.71"></line><line class="link basepair" x1="22.26" y1="27.62" x2="36.82" y2="27.65"></line><line class="link backbone" x1="22.27" y1="43.71" x2="22.26" y2="27.62"></line><line class="link basepair" x1="22.45" y1="11.36" x2="36.98" y2="11.69"></line><line class="link backbone" x1="22.26" y1="27.62" x2="22.45" y2="11.36"></line><line class="link basepair" x1="22.98" y1="-4.86" x2="37.54" y2="-4.19"></line><line class="link backbone" x1="22.45" y1="11.36" x2="22.98" y2="-4.86"></line><line class="link basepair" x1="23.94" y1="-21.11" x2="38.42" y2="-20.16"></line><line class="link backbone" x1="22.98" y1="-4.86" x2="23.94" y2="-21.11"></line><line class="link basepair" x1="25.14" y1="-37.33" x2="39.63" y2="-36.16"></line><line class="link backbone" x1="23.94" y1="-21.11" x2="25.14" y2="-37.33"></line><line class="link basepair" x1="26.50" y1="-53.40" x2="41.03" y2="-52.16"></line><line class="link backbone" x1="25.14" y1="-37.33" x2="26.50" y2="-53.40"></line><line class="link basepair" x1="27.96" y1="-69.41" x2="42.49" y2="-68.06"></line><line class="link backbone" x1="26.50" y1="-53.40" x2="27.96" y2="-69.41"></line><line class="link basepair" x1="29.22" y1="-85.12" x2="44.16" y2="-83.77"></line><line class="link backbone" x1="27.96" y1="-69.41" x2="29.22" y2="-85.12"></line><line class="link backbone" x1="29.22" y1="-85.12" x2="18.43" y2="-96.17"></line><line class="link backbone" x1="18.43" y1="-96.17" x2="17.13" y2="-111.16"></line><line class="link backbone" x1="17.13" y1="-111.16" x2="25.86" y2="-123.62"></line><line class="link backbone" x1="25.86" y1="-123.62" x2="40.51" y2="-127.42"></line><line class="link backbone" x1="40.51" y1="-127.42" x2="54.25" y2="-121.12"></line><line class="link backbone" x1="54.25" y1="-121.12" x2="60.65" y2="-107.33"></line><line class="link backbone" x1="60.65" y1="-107.33" x2="56.75" y2="-92.78"></line><line class="link basepair" x1="44.16" y1="-83.77" x2="29.22" y2="-85.12"></line><line class="link backbone" x1="56.75" y1="-92.78" x2="44.16" y2="-83.77"></line><line class="link basepair" x1="42.49" y1="-68.06" x2="27.96" y2="-69.41"></line><line class="link backbone" x1="44.16" y1="-83.77" x2="42.49" y2="-68.06"></line><line class="link basepair" x1="41.03" y1="-52.16" x2="26.50" y2="-53.40"></line><line class="link backbone" x1="42.49" y1="-68.06" x2="41.03" y2="-52.16"></line><line class="link basepair" x1="39.63" y1="-36.16" x2="25.14" y2="-37.33"></line><line class="link backbone" x1="41.03" y1="-52.16" x2="39.63" y2="-36.16"></line><line class="link basepair" x1="38.42" y1="-20.16" x2="23.94" y2="-21.11"></line><line class="link backbone" x1="39.63" y1="-36.16" x2="38.42" y2="-20.16"></line><line class="link basepair" x1="37.54" y1="-4.19" x2="22.98" y2="-4.86"></line><line class="link backbone" x1="38.42" y1="-20.16" x2="37.54" y2="-4.19"></line><line class="link basepair" x1="36.98" y1="11.69" x2="22.45" y2="11.36"></line><line class="link backbone" x1="37.54" y1="-4.19" x2="36.98" y2="11.69"></line><line class="link basepair" x1="36.82" y1="27.65" x2="22.26" y2="27.62"></line><line class="link backbone" x1="36.98" y1="11.69" x2="36.82" y2="27.65"></line><line class="link basepair" x1="37.05" y1="43.51" x2="22.27" y2="43.71"></line><line class="link backbone" x1="36.82" y1="27.65" x2="37.05" y2="43.51"></line><line class="link backbone" x1="37.05" y1="43.51" x2="44.95" y2="56.62"></line><line class="link basepair" x1="37.50" y1="69.96" x2="22.72" y2="70.16"></line><line class="link backbone" x1="44.95" y1="56.62" x2="37.50" y2="69.96"></line><line class="link basepair" x1="37.59" y1="85.96" x2="22.83" y2="85.85"></line><line class="link backbone" x1="37.50" y1="69.96" x2="37.59" y2="85.96"></line><line class="link backbone" x1="37.59" y1="85.96" x2="45.10" y2="99.41"></line><line class="link basepair" x1="37.17" y1="112.62" x2="22.36" y2="112.14"></line><line class="link backbone" x1="45.10" y1="99.41" x2="37.17" y2="112.62"></line><line class="link basepair" x1="36.05" y1="128.90" x2="21.53" y2="127.55"></line><line class="link backbone" x1="37.17" y1="112.62" x2="36.05" y2="128.90"></line><line class="link basepair" x1="33.96" y1="145.34" x2="19.59" y2="142.99"></line><line class="link backbone" x1="36.05" y1="128.90" x2="33.96" y2="145.34"></line><line class="link basepair" x1="30.60" y1="161.73" x2="16.52" y2="158.20"></line><line class="link backbone" x1="33.96" y1="145.34" x2="30.60" y2="161.73"></line><line class="link basepair" x1="25.76" y1="177.85" x2="12.09" y2="172.96"></line><line class="link backbone" x1="30.60" y1="161.73" x2="25.76" y2="177.85"></line><line class="link basepair" x1="19.26" y1="193.57" x2="6.15" y2="186.85"></line><line class="link backbone" x1="25.76" y1="177.85" x2="19.26" y2="193.57"></line><line class="link basepair" x1="19.23" y1="210.13" x2="6.05" y2="216.88"></line><line class="link backbone" x1="19.26" y1="193.57" x2="19.23" y2="210.13"></line><line class="link basepair" x1="25.69" y1="225.61" x2="12.01" y2="230.68"></line><line class="link backbone" x1="19.23" y1="210.13" x2="25.69" y2="225.61"></line><line class="link basepair" x1="30.83" y1="241.23" x2="16.77" y2="245.38"></line><line class="link backbone" x1="25.69" y1="225.61" x2="30.83" y2="241.23"></line><line class="link basepair" x1="35.18" y1="256.66" x2="20.62" y2="260.27"></line><line class="link backbone" x1="30.83" y1="241.23" x2="35.18" y2="256.66"></line><line class="link backbone" x1="35.18" y1="256.66" x2="48.81" y2="263.94"></line><line class="link backbone" x1="48.81" y1="263.94" x2="54.83" y2="277.57"></line><line class="link backbone" x1="54.83" y1="277.57" x2="50.74" y2="292.12"></line><line class="link label_link" x1="12.09" y1="172.96" x2="-2.81" y2="168.45"></line><line class="link label_link" x1="22.26" y1="27.62" x2="6.64" y2="27.49"></line><line class="link label_link" x1="25.86" y1="-123.62" x2="16.94" y2="-136.20"></line><line class="link label_link" x1="37.54" y1="-4.19" x2="52.86" y2="-1.22"></line><line class="link label_link" x1="33.96" y1="145.34" x2="49.60" y2="146.19"></line><line class="link label_link" x1="50.74" y1="292.12" x2="58.03" y2="305.74"></line><line class="link fake transparent" x1="6.15" y1="186.85" x2="16.23" y2="182.95"></line><line class="link fake transparent" x1="6.15" y1="186.85" x2="25.76" y2="177.85"></line><line class="link fake transparent" x1="12.09" y1="172.96" x2="16.23" y2="182.95"></line><line class="link fake transparent" x1="25.76" y1="177.85" x2="16.23" y2="182.95"></line><line class="link fake transparent" x1="19.26" y1="193.57" x2="16.23" y2="182.95"></line><line class="link fake transparent" x1="12.09" y1="172.96" x2="21.61" y2="167.74"></line><line class="link fake transparent" x1="16.52" y1="158.20" x2="21.61" y2="167.74"></line><line class="link fake transparent" x1="30.60" y1="161.73" x2="21.61" y2="167.74"></line><line class="link fake transparent" x1="25.76" y1="177.85" x2="21.61" y2="167.74"></line><line class="link fake transparent" x1="16.52" y1="158.20" x2="25.50" y2="152.12"></line><line class="link fake transparent" x1="19.59" y1="142.99" x2="25.50" y2="152.12"></line><line class="link fake transparent" x1="33.96" y1="145.34" x2="25.50" y2="152.12"></line><line class="link fake transparent" x1="30.60" y1="161.73" x2="25.50" y2="152.12"></line><line class="link fake transparent" x1="19.59" y1="142.99" x2="28.05" y2="136.21"></line><line class="link fake transparent" x1="21.53" y1="127.55" x2="28.05" y2="136.21"></line><line class="link fake transparent" x1="36.05" y1="128.90" x2="28.05" y2="136.21"></line><line class="link fake transparent" x1="33.96" y1="145.34" x2="28.05" y2="136.21"></line><line class="link fake transparent" x1="21.53" y1="127.55" x2="29.53" y2="120.26"></line><line class="link fake transparent" x1="22.36" y1="112.14" x2="29.53" y2="120.26"></line><line class="link fake transparent" x1="37.17" y1="112.62" x2="29.53" y2="120.26"></line><line class="link fake transparent" x1="36.05" y1="128.90" x2="29.53" y2="120.26"></line><line class="link fake transparent" x1="22.83" y1="85.85" x2="30.24" y2="77.97"></line><line class="link fake transparent" x1="22.72" y1="70.16" x2="30.24" y2="77.97"></line><line class="link fake transparent" x1="37.50" y1="69.96" x2="30.24" y2="77.97"></line><line class="link fake transparent" x1="37.59" y1="85.96" x2="30.24" y2="77.97"></line><line class="link fake transparent" x1="22.27" y1="43.71" x2="29.56" y2="35.65"></line><line class="link fake transparent" x1="22.26" y1="27.62" x2="29.56" y2="35.65"></line><line class="link fake transparent" x1="36.82" y1="27.65" x2="29.56" y2="35.65"></line><line class="link fake transparent" x1="37.05" y1="43.51" x2="29.56" y2="35.65"></line><line class="link fake transparent" x1="22.26" y1="27.62" x2="29.54" y2="19.57"></line><line class="link fake transparent" x1="22.45" y1="11.36" x2="29.54" y2="19.57"></line><line class="link fake transparent" x1="36.98" y1="11.69" x2="29.54" y2="19.57"></line><line class="link fake transparent" x1="36.82" y1="27.65" x2="29.54" y2="19.57"></line><line class="link fake transparent" x1="22.45" y1="11.36" x2="29.89" y2="3.49"></line><line class="link fake transparent" x1="22.98" y1="-4.86" x2="29.89" y2="3.49"></line><line class="link fake transparent" x1="37.54" y1="-4.19" x2="29.89" y2="3.49"></line><line class="link fake transparent" x1="36.98" y1="11.69" x2="29.89" y2="3.49"></line><line class="link fake transparent" x1="22.98" y1="-4.86" x2="30.63" y2="-12.57"></line><line class="link fake transparent" x1="23.94" y1="-21.11" x2="30.63" y2="-12.57"></line><line class="link fake transparent" x1="38.42" y1="-20.16" x2="30.63" y2="-12.57"></line><line class="link fake transparent" x1="37.54" y1="-4.19" x2="30.63" y2="-12.57"></line><line class="link fake transparent" x1="23.94" y1="-21.11" x2="31.71" y2="-28.71"></line><line class="link fake transparent" x1="25.14" y1="-37.33" x2="31.71" y2="-28.71"></line><line class="link fake transparent" x1="39.63" y1="-36.16" x2="31.71" y2="-28.71"></line><line class="link fake transparent" x1="38.42" y1="-20.16" x2="31.71" y2="-28.71"></line><line class="link fake transparent" x1="25.14" y1="-37.33" x2="33.05" y2="-44.79"></line><line class="link fake transparent" x1="26.50" y1="-53.40" x2="33.05" y2="-44.79"></line><line class="link fake transparent" x1="41.03" y1="-52.16" x2="33.05" y2="-44.79"></line><line class="link fake transparent" x1="39.63" y1="-36.16" x2="33.05" y2="-44.79"></line><line class="link fake transparent" x1="26.50" y1="-53.40" x2="34.47" y2="-60.78"></line><line class="link fake transparent" x1="27.96" y1="-69.41" x2="34.47" y2="-60.78"></line><line class="link fake transparent" x1="42.49" y1="-68.06" x2="34.47" y2="-60.78"></line><line class="link fake transparent" x1="41.03" y1="-52.16" x2="34.47" y2="-60.78"></line><line class="link fake transparent" x1="27.96" y1="-69.41" x2="35.99" y2="-76.70"></line><line class="link fake transparent" x1="29.22" y1="-85.12" x2="35.99" y2="-76.70"></line><line class="link fake transparent" x1="44.16" y1="-83.77" x2="35.99" y2="-76.70"></line><line class="link fake transparent" x1="42.49" y1="-68.06" x2="35.99" y2="-76.70"></line><line class="link fake transparent" x1="20.62" y1="260.27" x2="26.02" y2="250.94"></line><line class="link fake transparent" x1="16.77" y1="245.38" x2="26.02" y2="250.94"></line><line class="link fake transparent" x1="30.83" y1="241.23" x2="26.02" y2="250.94"></line><line class="link fake transparent" x1="35.18" y1="256.66" x2="26.02" y2="250.94"></line><line class="link fake transparent" x1="16.77" y1="245.38" x2="21.57" y2="235.68"></line><line class="link fake transparent" x1="12.01" y1="230.68" x2="21.57" y2="235.68"></line><line class="link fake transparent" x1="25.69" y1="225.61" x2="21.57" y2="235.68"></line><line class="link fake transparent" x1="30.83" y1="241.23" x2="21.57" y2="235.68"></line><line class="link fake transparent" x1="12.01" y1="230.68" x2="16.11" y2="220.68"></line><line class="link fake transparent" x1="6.05" y1="216.88" x2="16.11" y2="220.68"></line><line class="link fake transparent" x1="19.23" y1="210.13" x2="16.11" y2="220.68"></line><line class="link fake transparent" x1="25.69" y1="225.61" x2="16.11" y2="220.68"></line><line class="link fake transparent" x1="12.01" y1="287.45" x2="32.69" y2="278.71"></line><line class="link fake transparent" x1="12.01" y1="287.45" x2="48.81" y2="263.94"></line><line class="link fake transparent" x1="11.44" y1="272.52" x2="32.69" y2="278.71"></line><line class="link fake transparent" x1="11.44" y1="272.52" x2="54.83" y2="277.57"></line><line class="link fake transparent" x1="20.62" y1="260.27" x2="32.69" y2="278.71"></line><line class="link fake transparent" x1="20.62" y1="260.27" x2="50.74" y2="292.12"></line><line class="link fake transparent" x1="35.18" y1="256.66" x2="32.69" y2="278.71"></line><line class="link fake transparent" x1="35.18" y1="256.66" x2="38.64" y2="300.73"></line><line class="link fake transparent" x1="48.81" y1="263.94" x2="32.69" y2="278.71"></line><line class="link fake transparent" x1="48.81" y1="263.94" x2="23.96" y2="300.76"></line><line class="link fake transparent" x1="54.83" y1="277.57" x2="32.69" y2="278.71"></line><line class="link fake transparent" x1="54.83" y1="277.57" x2="12.01" y2="287.45"></line><line class="link fake transparent" x1="50.74" y1="292.12" x2="32.69" y2="278.71"></line><line class="link fake transparent" x1="50.74" y1="292.12" x2="11.44" y2="272.52"></line><line class="link fake transparent" x1="29.22" y1="-85.12" x2="38.56" y2="-105.26"></line><line class="link fake transparent" x1="29.22" y1="-85.12" x2="40.51" y2="-127.42"></line><line class="link fake transparent" x1="18.43" y1="-96.17" x2="38.56" y2="-105.26"></line><line class="link fake transparent" x1="18.43" y1="-96.17" x2="54.25" y2="-121.12"></line><line class="link fake transparent" x1="17.13" y1="-111.16" x2="38.56" y2="-105.26"></line><line class="link fake transparent" x1="17.13" y1="-111.16" x2="60.65" y2="-107.33"></line><line class="link fake transparent" x1="25.86" y1="-123.62" x2="38.56" y2="-105.26"></line><line class="link fake transparent" x1="25.86" y1="-123.62" x2="56.75" y2="-92.78"></line><line class="link fake transparent" x1="40.51" y1="-127.42" x2="38.56" y2="-105.26"></line><line class="link fake transparent" x1="40.51" y1="-127.42" x2="44.16" y2="-83.77"></line><line class="link fake transparent" x1="54.25" y1="-121.12" x2="38.56" y2="-105.26"></line><line class="link fake transparent" x1="54.25" y1="-121.12" x2="29.22" y2="-85.12"></line><line class="link fake transparent" x1="60.65" y1="-107.33" x2="38.56" y2="-105.26"></line><line class="link fake transparent" x1="60.65" y1="-107.33" x2="18.43" y2="-96.17"></line><line class="link fake transparent" x1="56.75" y1="-92.78" x2="38.56" y2="-105.26"></line><line class="link fake transparent" x1="56.75" y1="-92.78" x2="17.13" y2="-111.16"></line><line class="link fake transparent" x1="44.16" y1="-83.77" x2="38.56" y2="-105.26"></line><line class="link fake transparent" x1="44.16" y1="-83.77" x2="25.86" y2="-123.62"></line><line class="link fake transparent" x1="22.36" y1="112.14" x2="30.08" y2="99.15"></line><line class="link fake transparent" x1="22.36" y1="112.14" x2="37.59" y2="85.96"></line><line class="link fake transparent" x1="14.95" y1="98.90" x2="30.08" y2="99.15"></line><line class="link fake transparent" x1="14.95" y1="98.90" x2="45.10" y2="99.41"></line><line class="link fake transparent" x1="22.83" y1="85.85" x2="30.08" y2="99.15"></line><line class="link fake transparent" x1="22.83" y1="85.85" x2="37.17" y2="112.62"></line><line class="link fake transparent" x1="37.59" y1="85.96" x2="30.08" y2="99.15"></line><line class="link fake transparent" x1="37.59" y1="85.96" x2="22.36" y2="112.14"></line><line class="link fake transparent" x1="45.10" y1="99.41" x2="30.08" y2="99.15"></line><line class="link fake transparent" x1="45.10" y1="99.41" x2="14.95" y2="98.90"></line><line class="link fake transparent" x1="37.17" y1="112.62" x2="30.08" y2="99.15"></line><line class="link fake transparent" x1="37.17" y1="112.62" x2="22.83" y2="85.85"></line><line class="link fake transparent" x1="22.72" y1="70.16" x2="29.87" y2="56.84"></line><line class="link fake transparent" x1="22.72" y1="70.16" x2="37.05" y2="43.51"></line><line class="link fake transparent" x1="14.79" y1="57.11" x2="29.87" y2="56.84"></line><line class="link fake transparent" x1="14.79" y1="57.11" x2="44.95" y2="56.62"></line><line class="link fake transparent" x1="22.27" y1="43.71" x2="29.87" y2="56.84"></line><line class="link fake transparent" x1="22.27" y1="43.71" x2="37.50" y2="69.96"></line><line class="link fake transparent" x1="37.05" y1="43.51" x2="29.87" y2="56.84"></line><line class="link fake transparent" x1="37.05" y1="43.51" x2="22.72" y2="70.16"></line><line class="link fake transparent" x1="44.95" y1="56.62" x2="29.87" y2="56.84"></line><line class="link fake transparent" x1="44.95" y1="56.62" x2="14.79" y2="57.11"></line><line class="link fake transparent" x1="37.50" y1="69.96" x2="29.87" y2="56.84"></line><line class="link fake transparent" x1="37.50" y1="69.96" x2="22.27" y2="43.71"></line><line class="link fake transparent" x1="6.05" y1="216.88" x2="6.57" y2="201.85"></line><line class="link fake transparent" x1="6.05" y1="216.88" x2="6.15" y2="186.85"></line><line class="link fake transparent" x1="-6.82" y1="209.21" x2="6.57" y2="201.85"></line><line class="link fake transparent" x1="-6.82" y1="209.21" x2="19.26" y2="193.57"></line><line class="link fake transparent" x1="-6.81" y1="194.52" x2="6.57" y2="201.85"></line><line class="link fake transparent" x1="-6.81" y1="194.52" x2="19.23" y2="210.13"></line><line class="link fake transparent" x1="6.15" y1="186.85" x2="6.57" y2="201.85"></line><line class="link fake transparent" x1="6.15" y1="186.85" x2="6.05" y2="216.88"></line><line class="link fake transparent" x1="19.26" y1="193.57" x2="6.57" y2="201.85"></line><line class="link fake transparent" x1="19.26" y1="193.57" x2="-6.82" y2="209.21"></line><line class="link fake transparent" x1="19.23" y1="210.13" x2="6.57" y2="201.85"></line><line class="link fake transparent" x1="19.23" y1="210.13" x2="-6.81" y2="194.52"></line></g><g><g class="noselect gnode" struct_name="m" transform="translate(12.01,287.45)" r="6.5"><circle class="node" r="6" node_type="nucleotide" style="fill: lightsalmon;"></circle><text text-anchor="middle" font-size="8" font-weight="bold" y="2.5" class="node-label">A</text></g><g class="noselect gnode" struct_name="m" transform="translate(11.44,272.52)" r="6.5"><circle class="node" r="6" node_type="nucleotide" style="fill: lightsalmon;"></circle><text text-anchor="middle" font-size="8" font-weight="bold" y="2.5" class="node-label">U</text></g><g class="noselect gnode" struct_name="m" transform="translate(20.62,260.27)" r="6.5"><circle class="node" r="6" node_type="nucleotide" style="fill: lightgreen;"></circle><text text-anchor="middle" font-size="8" font-weight="bold" y="2.5" class="node-label">C</text></g><g class="noselect gnode" struct_name="m" transform="translate(16.77,245.38)" r="6.5"><circle class="node" r="6" node_type="nucleotide" style="fill: lightgreen;"></circle><text text-anchor="middle" font-size="8" font-weight="bold" y="2.5" class="node-label">A</text></g><g class="noselect gnode" struct_name="m" transform="translate(12.01,230.68)" r="6.5"><circle class="node" r="6" node_type="nucleotide" style="fill: lightgreen;"></circle><text text-anchor="middle" font-size="8" font-weight="bold" y="2.5" class="node-label">U</text></g><g class="noselect gnode" struct_name="m" transform="translate(6.05,216.88)" r="6.5"><circle class="node" r="6" node_type="nucleotide" style="fill: lightgreen;"></circle><text text-anchor="middle" font-size="8" font-weight="bold" y="2.5" class="node-label">A</text></g><g class="noselect gnode" struct_name="m" transform="translate(-6.82,209.21)" r="6.5"><circle class="node" r="6" node_type="nucleotide" style="fill: rgb(219, 219, 141);"></circle><text text-anchor="middle" font-size="8" font-weight="bold" y="2.5" class="node-label">A</text></g><g class="noselect gnode" struct_name="m" transform="translate(-6.81,194.52)" r="6.5"><circle class="node" r="6" node_type="nucleotide" style="fill: rgb(219, 219, 141);"></circle><text text-anchor="middle" font-size="8" font-weight="bold" y="2.5" class="node-label">C</text></g><g class="noselect gnode" struct_name="m" transform="translate(6.15,186.85)" r="6.5"><circle class="node" r="6" node_type="nucleotide" style="fill: lightgreen;"></circle><text text-anchor="middle" font-size="8" font-weight="bold" y="2.5" class="node-label">G</text></g><g class="noselect gnode" struct_name="m" transform="translate(12.09,172.96)" r="6.5"><circle class="node" r="6" node_type="nucleotide" style="fill: lightgreen;"></circle><text text-anchor="middle" font-size="8" font-weight="bold" y="2.5" class="node-label">U</text></g><g class="noselect gnode" struct_name="m" transform="translate(16.52,158.20)" r="6.5"><circle class="node" r="6" node_type="nucleotide" style="fill: lightgreen;"></circle><text text-anchor="middle" font-size="8" font-weight="bold" y="2.5" class="node-label">U</text></g><g class="noselect gnode" struct_name="m" transform="translate(19.59,142.99)" r="6.5"><circle class="node" r="6" node_type="nucleotide" style="fill: lightgreen;"></circle><text text-anchor="middle" font-size="8" font-weight="bold" y="2.5" class="node-label">C</text></g><g class="noselect gnode" struct_name="m" transform="translate(21.53,127.55)" r="6.5"><circle class="node" r="6" node_type="nucleotide" style="fill: lightgreen;"></circle><text text-anchor="middle" font-size="8" font-weight="bold" y="2.5" class="node-label">C</text></g><g class="noselect gnode" struct_name="m" transform="translate(22.36,112.14)" r="6.5"><circle class="node" r="6" node_type="nucleotide" style="fill: lightgreen;"></circle><text text-anchor="middle" font-size="8" font-weight="bold" y="2.5" class="node-label">A</text></g><g class="noselect gnode" struct_name="m" transform="translate(14.95,98.90)" r="6.5"><circle class="node" r="6" node_type="nucleotide" style="fill: rgb(219, 219, 141);"></circle><text text-anchor="middle" font-size="8" font-weight="bold" y="2.5" class="node-label">U</text></g><g class="noselect gnode" struct_name="m" transform="translate(22.83,85.85)" r="6.5"><circle class="node" r="6" node_type="nucleotide" style="fill: lightgreen;"></circle><text text-anchor="middle" font-size="8" font-weight="bold" y="2.5" class="node-label">C</text></g><g class="noselect gnode" struct_name="m" transform="translate(22.72,70.16)" r="6.5"><circle class="node" r="6" node_type="nucleotide" style="fill: lightgreen;"></circle><text text-anchor="middle" font-size="8" font-weight="bold" y="2.5" class="node-label">A</text></g><g class="noselect gnode" struct_name="m" transform="translate(14.79,57.11)" r="6.5"><circle class="node" r="6" node_type="nucleotide" style="fill: rgb(219, 219, 141);"></circle><text text-anchor="middle" font-size="8" font-weight="bold" y="2.5" class="node-label">G</text></g><g class="noselect gnode" struct_name="m" transform="translate(22.27,43.71)" r="6.5"><circle class="node" r="6" node_type="nucleotide" style="fill: lightgreen;"></circle><text text-anchor="middle" font-size="8" font-weight="bold" y="2.5" class="node-label">G</text></g><g class="noselect gnode" struct_name="m" transform="translate(22.26,27.62)" r="6.5"><circle class="node" r="6" node_type="nucleotide" style="fill: lightgreen;"></circle><text text-anchor="middle" font-size="8" font-weight="bold" y="2.5" class="node-label">A</text></g><g class="noselect gnode" struct_name="m" transform="translate(22.45,11.36)" r="6.5"><circle class="node" r="6" node_type="nucleotide" style="fill: lightgreen;"></circle><text text-anchor="middle" font-size="8" font-weight="bold" y="2.5" class="node-label">U</text></g><g class="noselect gnode" struct_name="m" transform="translate(22.98,-4.86)" r="6.5"><circle class="node" r="6" node_type="nucleotide" style="fill: lightgreen;"></circle><text text-anchor="middle" font-size="8" font-weight="bold" y="2.5" class="node-label">C</text></g><g class="noselect gnode" struct_name="m" transform="translate(23.94,-21.11)" r="6.5"><circle class="node" r="6" node_type="nucleotide" style="fill: lightgreen;"></circle><text text-anchor="middle" font-size="8" font-weight="bold" y="2.5" class="node-label">C</text></g><g class="noselect gnode" struct_name="m" transform="translate(25.14,-37.33)" r="6.5"><circle class="node" r="6" node_type="nucleotide" style="fill: lightgreen;"></circle><text text-anchor="middle" font-size="8" font-weight="bold" y="2.5" class="node-label">G</text></g><g class="noselect gnode" struct_name="m" transform="translate(26.50,-53.40)" r="6.5"><circle class="node" r="6" node_type="nucleotide" style="fill: lightgreen;"></circle><text text-anchor="middle" font-size="8" font-weight="bold" y="2.5" class="node-label">A</text></g><g class="noselect gnode" struct_name="m" transform="translate(27.96,-69.41)" r="6.5"><circle class="node" r="6" node_type="nucleotide" style="fill: lightgreen;"></circle><text text-anchor="middle" font-size="8" font-weight="bold" y="2.5" class="node-label">G</text></g><g class="noselect gnode" struct_name="m" transform="translate(29.22,-85.12)" r="6.5"><circle class="node" r="6" node_type="nucleotide" style="fill: lightgreen;"></circle><text text-anchor="middle" font-size="8" font-weight="bold" y="2.5" class="node-label">C</text></g><g class="noselect gnode" struct_name="m" transform="translate(18.43,-96.17)" r="6.5"><circle class="node" r="6" node_type="nucleotide" style="fill: lightblue;"></circle><text text-anchor="middle" font-size="8" font-weight="bold" y="2.5" class="node-label">A</text></g><g class="noselect gnode" struct_name="m" transform="translate(17.13,-111.16)" r="6.5"><circle class="node" r="6" node_type="nucleotide" style="fill: lightblue;"></circle><text text-anchor="middle" font-size="8" font-weight="bold" y="2.5" class="node-label">C</text></g><g class="noselect gnode" struct_name="m" transform="translate(25.86,-123.62)" r="6.5"><circle class="node" r="6" node_type="nucleotide" style="fill: lightblue;"></circle><text text-anchor="middle" font-size="8" font-weight="bold" y="2.5" class="node-label">G</text></g><g class="noselect gnode" struct_name="m" transform="translate(40.51,-127.42)" r="6.5"><circle class="node" r="6" node_type="nucleotide" style="fill: lightblue;"></circle><text text-anchor="middle" font-size="8" font-weight="bold" y="2.5" class="node-label">C</text></g><g class="noselect gnode" struct_name="m" transform="translate(54.25,-121.12)" r="6.5"><circle class="node" r="6" node_type="nucleotide" style="fill: lightblue;"></circle><text text-anchor="middle" font-size="8" font-weight="bold" y="2.5" class="node-label">A</text></g><g class="noselect gnode" struct_name="m" transform="translate(60.65,-107.33)" r="6.5"><circle class="node" r="6" node_type="nucleotide" style="fill: lightblue;"></circle><text text-anchor="middle" font-size="8" font-weight="bold" y="2.5" class="node-label">G</text></g><g class="noselect gnode" struct_name="m" transform="translate(56.75,-92.78)" r="6.5"><circle class="node" r="6" node_type="nucleotide" style="fill: lightblue;"></circle><text text-anchor="middle" font-size="8" font-weight="bold" y="2.5" class="node-label">G</text></g><g class="noselect gnode" struct_name="m" transform="translate(44.16,-83.77)" r="6.5"><circle class="node" r="6" node_type="nucleotide" style="fill: lightgreen;"></circle><text text-anchor="middle" font-size="8" font-weight="bold" y="2.5" class="node-label">G</text></g><g class="noselect gnode" struct_name="m" transform="translate(42.49,-68.06)" r="6.5"><circle class="node" r="6" node_type="nucleotide" style="fill: lightgreen;"></circle><text text-anchor="middle" font-size="8" font-weight="bold" y="2.5" class="node-label">C</text></g><g class="noselect gnode" struct_name="m" transform="translate(41.03,-52.16)" r="6.5"><circle class="node" r="6" node_type="nucleotide" style="fill: lightgreen;"></circle><text text-anchor="middle" font-size="8" font-weight="bold" y="2.5" class="node-label">U</text></g><g class="noselect gnode" struct_name="m" transform="translate(39.63,-36.16)" r="6.5"><circle class="node" r="6" node_type="nucleotide" style="fill: lightgreen;"></circle><text text-anchor="middle" font-size="8" font-weight="bold" y="2.5" class="node-label">C</text></g><g class="noselect gnode" struct_name="m" transform="translate(38.42,-20.16)" r="6.5"><circle class="node" r="6" node_type="nucleotide" style="fill: lightgreen;"></circle><text text-anchor="middle" font-size="8" font-weight="bold" y="2.5" class="node-label">G</text></g><g class="noselect gnode" struct_name="m" transform="translate(37.54,-4.19)" r="6.5"><circle class="node" r="6" node_type="nucleotide" style="fill: lightgreen;"></circle><text text-anchor="middle" font-size="8" font-weight="bold" y="2.5" class="node-label">G</text></g><g class="noselect gnode" struct_name="m" transform="translate(36.98,11.69)" r="6.5"><circle class="node" r="6" node_type="nucleotide" style="fill: lightgreen;"></circle><text text-anchor="middle" font-size="8" font-weight="bold" y="2.5" class="node-label">A</text></g><g class="noselect gnode" struct_name="m" transform="translate(36.82,27.65)" r="6.5"><circle class="node" r="6" node_type="nucleotide" style="fill: lightgreen;"></circle><text text-anchor="middle" font-size="8" font-weight="bold" y="2.5" class="node-label">U</text></g><g class="noselect gnode" struct_name="m" transform="translate(37.05,43.51)" r="6.5"><circle class="node" r="6" node_type="nucleotide" style="fill: lightgreen;"></circle><text text-anchor="middle" font-size="8" font-weight="bold" y="2.5" class="node-label">U</text></g><g class="noselect gnode" struct_name="m" transform="translate(44.95,56.62)" r="6.5"><circle class="node" r="6" node_type="nucleotide" style="fill: rgb(219, 219, 141);"></circle><text text-anchor="middle" font-size="8" font-weight="bold" y="2.5" class="node-label">G</text></g><g class="noselect gnode" struct_name="m" transform="translate(37.50,69.96)" r="6.5"><circle class="node" r="6" node_type="nucleotide" style="fill: lightgreen;"></circle><text text-anchor="middle" font-size="8" font-weight="bold" y="2.5" class="node-label">U</text></g><g class="noselect gnode" struct_name="m" transform="translate(37.59,85.96)" r="6.5"><circle class="node" r="6" node_type="nucleotide" style="fill: lightgreen;"></circle><text text-anchor="middle" font-size="8" font-weight="bold" y="2.5" class="node-label">G</text></g><g class="noselect gnode" struct_name="m" transform="translate(45.10,99.41)" r="6.5"><circle class="node" r="6" node_type="nucleotide" style="fill: rgb(219, 219, 141);"></circle><text text-anchor="middle" font-size="8" font-weight="bold" y="2.5" class="node-label">C</text></g><g class="noselect gnode" struct_name="m" transform="translate(37.17,112.62)" r="6.5"><circle class="node" r="6" node_type="nucleotide" style="fill: lightgreen;"></circle><text text-anchor="middle" font-size="8" font-weight="bold" y="2.5" class="node-label">U</text></g><g class="noselect gnode" struct_name="m" transform="translate(36.05,128.90)" r="6.5"><circle class="node" r="6" node_type="nucleotide" style="fill: lightgreen;"></circle><text text-anchor="middle" font-size="8" font-weight="bold" y="2.5" class="node-label">G</text></g><g class="noselect gnode" struct_name="m" transform="translate(33.96,145.34)" r="6.5"><circle class="node" r="6" node_type="nucleotide" style="fill: lightgreen;"></circle><text text-anchor="middle" font-size="8" font-weight="bold" y="2.5" class="node-label">G</text></g><g class="noselect gnode" struct_name="m" transform="translate(30.60,161.73)" r="6.5"><circle class="node" r="6" node_type="nucleotide" style="fill: lightgreen;"></circle><text text-anchor="middle" font-size="8" font-weight="bold" y="2.5" class="node-label">A</text></g><g class="noselect gnode" struct_name="m" transform="translate(25.76,177.85)" r="6.5"><circle class="node" r="6" node_type="nucleotide" style="fill: lightgreen;"></circle><text text-anchor="middle" font-size="8" font-weight="bold" y="2.5" class="node-label">A</text></g><g class="noselect gnode" struct_name="m" transform="translate(19.26,193.57)" r="6.5"><circle class="node" r="6" node_type="nucleotide" style="fill: lightgreen;"></circle><text text-anchor="middle" font-size="8" font-weight="bold" y="2.5" class="node-label">U</text></g><g class="noselect gnode" struct_name="m" transform="translate(19.23,210.13)" r="6.5"><circle class="node" r="6" node_type="nucleotide" style="fill: lightgreen;"></circle><text text-anchor="middle" font-size="8" font-weight="bold" y="2.5" class="node-label">U</text></g><g class="noselect gnode" struct_name="m" transform="translate(25.69,225.61)" r="6.5"><circle class="node" r="6" node_type="nucleotide" style="fill: lightgreen;"></circle><text text-anchor="middle" font-size="8" font-weight="bold" y="2.5" class="node-label">A</text></g><g class="noselect gnode" struct_name="m" transform="translate(30.83,241.23)" r="6.5"><circle class="node" r="6" node_type="nucleotide" style="fill: lightgreen;"></circle><text text-anchor="middle" font-size="8" font-weight="bold" y="2.5" class="node-label">U</text></g><g class="noselect gnode" struct_name="m" transform="translate(35.18,256.66)" r="6.5"><circle class="node" r="6" node_type="nucleotide" style="fill: lightgreen;"></circle><text text-anchor="middle" font-size="8" font-weight="bold" y="2.5" class="node-label">G</text></g><g class="noselect gnode" struct_name="m" transform="translate(48.81,263.94)" r="6.5"><circle class="node" r="6" node_type="nucleotide" style="fill: lightsalmon;"></circle><text text-anchor="middle" font-size="8" font-weight="bold" y="2.5" class="node-label">U</text></g><g class="noselect gnode" struct_name="m" transform="translate(54.83,277.57)" r="6.5"><circle class="node" r="6" node_type="nucleotide" style="fill: lightsalmon;"></circle><text text-anchor="middle" font-size="8" font-weight="bold" y="2.5" class="node-label">U</text></g><g class="noselect gnode" struct_name="m" transform="translate(50.74,292.12)" r="6.5"><circle class="node" r="6" node_type="nucleotide" style="fill: lightsalmon;"></circle><text text-anchor="middle" font-size="8" font-weight="bold" y="2.5" class="node-label">U</text></g><g class="noselect gnode" struct_name="m" transform="translate(-2.81,168.45)" r="6.5"><circle class="node label" r="6" node_type="label"></circle><text text-anchor="middle" font-size="8" font-weight="bold" y="2.5" class="node-label">10</text></g><g class="noselect gnode" struct_name="m" transform="translate(6.64,27.49)" r="6.5"><circle class="node label" r="6" node_type="label"></circle><text text-anchor="middle" font-size="8" font-weight="bold" y="2.5" class="node-label">20</text></g><g class="noselect gnode" struct_name="m" transform="translate(16.94,-136.20)" r="6.5"><circle class="node label" r="6" node_type="label"></circle><text text-anchor="middle" font-size="8" font-weight="bold" y="2.5" class="node-label">30</text></g><g class="noselect gnode" struct_name="m" transform="translate(52.86,-1.22)" r="6.5"><circle class="node label" r="6" node_type="label"></circle><text text-anchor="middle" font-size="8" font-weight="bold" y="2.5" class="node-label">40</text></g><g class="noselect gnode" struct_name="m" transform="translate(49.60,146.19)" r="6.5"><circle class="node label" r="6" node_type="label"></circle><text text-anchor="middle" font-size="8" font-weight="bold" y="2.5" class="node-label">50</text></g><g class="noselect gnode" struct_name="m" transform="translate(58.03,305.74)" r="6.5"><circle class="node label" r="6" node_type="label"></circle><text text-anchor="middle" font-size="8" font-weight="bold" y="2.5" class="node-label">60</text></g><g class="noselect gnode" transform="translate(16.23,182.95)" r="6.5"><circle class="node" r="0" node_type="middle"></circle><text text-anchor="middle" font-size="8" font-weight="bold" y="2.5" class="node-label"></text></g><g class="noselect gnode" transform="translate(21.61,167.74)" r="6.5"><circle class="node" r="0" node_type="middle"></circle><text text-anchor="middle" font-size="8" font-weight="bold" y="2.5" class="node-label"></text></g><g class="noselect gnode" transform="translate(25.50,152.12)" r="6.5"><circle class="node" r="0" node_type="middle"></circle><text text-anchor="middle" font-size="8" font-weight="bold" y="2.5" class="node-label"></text></g><g class="noselect gnode" transform="translate(28.05,136.21)" r="6.5"><circle class="node" r="0" node_type="middle"></circle><text text-anchor="middle" font-size="8" font-weight="bold" y="2.5" class="node-label"></text></g><g class="noselect gnode" transform="translate(29.53,120.26)" r="6.5"><circle class="node" r="0" node_type="middle"></circle><text text-anchor="middle" font-size="8" font-weight="bold" y="2.5" class="node-label"></text></g><g class="noselect gnode" transform="translate(30.24,77.97)" r="6.5"><circle class="node" r="0" node_type="middle"></circle><text text-anchor="middle" font-size="8" font-weight="bold" y="2.5" class="node-label"></text></g><g class="noselect gnode" transform="translate(29.56,35.65)" r="6.5"><circle class="node" r="0" node_type="middle"></circle><text text-anchor="middle" font-size="8" font-weight="bold" y="2.5" class="node-label"></text></g><g class="noselect gnode" transform="translate(29.54,19.57)" r="6.5"><circle class="node" r="0" node_type="middle"></circle><text text-anchor="middle" font-size="8" font-weight="bold" y="2.5" class="node-label"></text></g><g class="noselect gnode" transform="translate(29.89,3.49)" r="6.5"><circle class="node" r="0" node_type="middle"></circle><text text-anchor="middle" font-size="8" font-weight="bold" y="2.5" class="node-label"></text></g><g class="noselect gnode" transform="translate(30.63,-12.57)" r="6.5"><circle class="node" r="0" node_type="middle"></circle><text text-anchor="middle" font-size="8" font-weight="bold" y="2.5" class="node-label"></text></g><g class="noselect gnode" transform="translate(31.71,-28.71)" r="6.5"><circle class="node" r="0" node_type="middle"></circle><text text-anchor="middle" font-size="8" font-weight="bold" y="2.5" class="node-label"></text></g><g class="noselect gnode" transform="translate(33.05,-44.79)" r="6.5"><circle class="node" r="0" node_type="middle"></circle><text text-anchor="middle" font-size="8" font-weight="bold" y="2.5" class="node-label"></text></g><g class="noselect gnode" transform="translate(34.47,-60.78)" r="6.5"><circle class="node" r="0" node_type="middle"></circle><text text-anchor="middle" font-size="8" font-weight="bold" y="2.5" class="node-label"></text></g><g class="noselect gnode" transform="translate(35.99,-76.70)" r="6.5"><circle class="node" r="0" node_type="middle"></circle><text text-anchor="middle" font-size="8" font-weight="bold" y="2.5" class="node-label"></text></g><g class="noselect gnode" transform="translate(26.02,250.94)" r="6.5"><circle class="node" r="0" node_type="middle"></circle><text text-anchor="middle" font-size="8" font-weight="bold" y="2.5" class="node-label"></text></g><g class="noselect gnode" transform="translate(21.57,235.68)" r="6.5"><circle class="node" r="0" node_type="middle"></circle><text text-anchor="middle" font-size="8" font-weight="bold" y="2.5" class="node-label"></text></g><g class="noselect gnode" transform="translate(16.11,220.68)" r="6.5"><circle class="node" r="0" node_type="middle"></circle><text text-anchor="middle" font-size="8" font-weight="bold" y="2.5" class="node-label"></text></g><g class="noselect gnode" transform="translate(38.64,300.73)" r="6.5"><circle class="node" r="0" node_type="middle"></circle><text text-anchor="middle" font-size="8" font-weight="bold" y="2.5" class="node-label"></text></g><g class="noselect gnode" transform="translate(23.96,300.76)" r="6.5"><circle class="node" r="0" node_type="middle"></circle><text text-anchor="middle" font-size="8" font-weight="bold" y="2.5" class="node-label"></text></g><g class="noselect gnode" transform="translate(32.69,278.71)" r="6.5"><circle class="node" r="0" node_type="middle"></circle><text text-anchor="middle" font-size="8" font-weight="bold" y="2.5" class="node-label"></text></g><g class="noselect gnode" transform="translate(38.56,-105.26)" r="6.5"><circle class="node" r="0" node_type="middle"></circle><text text-anchor="middle" font-size="8" font-weight="bold" y="2.5" class="node-label"></text></g><g class="noselect gnode" transform="translate(30.08,99.15)" r="6.5"><circle class="node" r="0" node_type="middle"></circle><text text-anchor="middle" font-size="8" font-weight="bold" y="2.5" class="node-label"></text></g><g class="noselect gnode" transform="translate(29.87,56.84)" r="6.5"><circle class="node" r="0" node_type="middle"></circle><text text-anchor="middle" font-size="8" font-weight="bold" y="2.5" class="node-label"></text></g><g class="noselect gnode" transform="translate(6.57,201.85)" r="6.5"><circle class="node" r="0" node_type="middle"></circle><text text-anchor="middle" font-size="8" font-weight="bold" y="2.5" class="node-label"></text></g></g><line class="drag_line" x1="0" y1="0" x2="0" y2="0"></line></g></g></svg>