<svg xmlns="http://www.w3.org/2000/svg" viewBox="0 0 760 640" width="760" height="640"><style>svg {
  display: block;
  min-width: 100%;
  width: 100%;
  min-height: 100%;
}

circle.node {
  stroke: #ccc;
  stroke-width: 1px;
  opacity: 1;
  fill: white;
}

circle.node.label {
    stroke: transparent;
    stroke-width: 0;
    fill: white;
}

circle.outline_node {
    stroke-width: 1px;
    fill: red;
}

circle.protein {
    fill: gray;
    fill-opacity: 0.5;
    stroke-width: 4;
}

circle.hidden_outline {
    stroke-width: 0px;
}


line.link {
  stroke: #999;
  stroke-opacity: 0.8;
  stroke-width: 2;
}

line.basepair {
  stroke: red;
}

line.intermolecule {
  stroke: blue;
}

line.chain_chain {
  stroke-dasharray: 3,3;
}

line.fake {
  stroke: green;
}

.transparent {
    fill: transparent;
    stroke-width: 0;
    stroke-opacity: 0;
    opacity: 0;
    visibility: hidden;
}

.drag_line {
  stroke: #999;
  stroke-width: 2;
  pointer-events: none;
}

.drag_line_hidden {
  stroke: #999;
  stroke-width: 0;
  pointer-events: none;
}

.d3-tip {
    line-height: 1;
    font-weight: bold;
    padding: 6px;
    background: rgba(0, 0, 0, 0.6);
    color: #fff;
    border-radius: 4px;
    pointer-events: none;
          }

text.node-label {
    font-weight: bold;
    font-family: Tahoma, Geneva, sans-serif;
    color: rgb(100,100,100);
    pointer-events: none;
}

text {
    pointer-events: none;
}

g.gnode {

}

circle.outline_node.selected {
    visibility: visible;
}

circle.outline_node {
    visibility: hidden;
}

.brush .extent {
  fill-opacity: .1;
  stroke: #fff;
  shape-rendering: crispEdges;
}

.noselect {
    -webkit-touch-callout: none;
    -webkit-user-select: none;
    -khtml-user-select: none;
    -moz-user-select: none;
    -ms-user-select: none;
    user-select: none;
}

svg {
  display: block;
  min-width: 100%;
  width: 100%;
  min-height: 100%;
}

circle.node {
  stroke: #ccc;
  stroke-width: 1px;
  opacity: 1;
  fill: white;
}

circle.node.label {
    stroke: transparent;
    stroke-width: 0;
    fill: white;
}

circle.outline_node {
    stroke-width: 1px;
    fill: red;
}

circle.protein {
    fill: gray;
    fill-opacity: 0.5;
    stroke-width: 4;
}

circle.hidden_outline {
    stroke-width: 0px;
}


line.link {
  stroke: #999;
  stroke-opacity: 0.8;
  stroke-width: 2;
}

line.basepair {
  stroke: red;
}

line.intermolecule {
  stroke: blue;
}

line.chain_chain {
  stroke-dasharray: 3,3;
}

line.fake {
  stroke: green;
}

.transparent {
    fill: transparent;
    stroke-width: 0;
    stroke-opacity: 0;
    opacity: 0;
    visibility: hidden;
}

.drag_line {
  stroke: #999;
  stroke-width: 2;
  pointer-events: none;
}

.drag_line_hidden {
  stroke: #999;
  stroke-width: 0;
  pointer-events: none;
}

.d3-tip {
    line-height: 1;
    font-weight: bold;
    padding: 6px;
    background: rgba(0, 0, 0, 0.6);
    color: #fff;
    border-radius: 4px;
    pointer-events: none;
          }

text.node-label {
    font-weight: bold;
    font-family: Tahoma, Geneva, sans-serif;
    color: rgb(100,100,100);
    pointer-events: none;
}

text {
    pointer-events: none;
}

g.gnode {

}

circle.outline_node.selected {
    visibility: visible;
}

circle.outline_node {
    visibility: hidden;
}

.brush .extent {
  fill-opacity: .1;
  stroke: #fff;
  shape-rendering: crispEdges;
}

.noselect {
    -webkit-touch-callout: none;
    -webkit-user-select: none;
    -khtml-user-select: none;
    -moz-user-select: none;
    -ms-user-select: none;
    user-select: none;
}
/*# sourceURL=/Users/yumanakamura/ipy_sandbox/sandbox/claude_sandbox/mrna-transformer/scripts/eval/prerender/forna_vendor/fornac.css*/</style><style></style><g><g class="brush" style="pointer-events: all; -webkit-tap-highlight-color: rgba(0, 0, 0, 0);"><rect class="background" x="0" width="760" y="0" height="640" style="visibility: hidden; cursor: auto;"></rect><rect class="extent" x="0" width="0" y="0" height="0" style="cursor: move;"></rect><g class="resize n" transform="translate(0,0)" style="cursor: ns-resize; display: none;"><rect y="-3" width="0" height="6" style="visibility: hidden;"></rect></g><g class="resize e" transform="translate(0,0)" style="cursor: ew-resize; display: none;"><rect x="-3" width="6" height="0" style="visibility: hidden;"></rect></g><g class="resize s" transform="translate(0,0)" style="cursor: ns-resize; display: none;"><rect y="-3" width="0" height="6" style="visibility: hidden;"></rect></g><g class="resize w" transform="translate(0,0)" style="cursor: ew-resize; display: none;"><rect x="-3" width="6" height="0" style="visibility: hidden;"></rect></g><g class="resize nw" transform="translate(0,0)" style="cursor: nwse-resize; display: none;"><rect x="-3" y="-3" width="6" height="6" style="visibility: hidden;"></rect></g><g class="resize ne" transform="translate(0,0)" style="cursor: nesw-resize; display: none;"><rect x="-3" y="-3" width="6" height="6" style="visibility: hidden;"></rect></g><g class="resize se" transform="translate(0,0)" style="cursor: nwse-resize; display: none;"><rect x="-3" y="-3" width="6" height="6" style="visibility: hidden;"></rect></g><g class="resize sw" transform="translate(0,0)" style="cursor: nesw-resize; display: none;"><rect x="-3" y="-3" width="6" height="6" style="visibility: hidden;"></rect></g></g><g transform="translate(76.77,176.32) scale(1.54)"><g><line class="link basepair" x1="228.41" y1="97.25" x2="228.08" y2="82.52"></line><line class="link basepair" x1="212.15" y1="97.27" x2="212.37" y2="82.74"></line><line class="link backbone" x1="228.41" y1="97.25" x2="212.15" y2="97.27"></line><line class="link basepair" x1="195.63" y1="96.63" x2="196.70" y2="82.12"></line><line class="link backbone" x1="212.15" y1="97.27" x2="195.63" y2="96.63"></line><line class="link basepair" x1="179.05" y1="94.80" x2="181.30" y2="80.40"></line><line class="link backbone" x1="195.63" y1="96.63" x2="179.05" y2="94.80"></line><line class="link basepair" x1="162.66" y1="91.45" x2="166.28" y2="77.34"></line><line class="link backbone" x1="179.05" y1="94.80" x2="162.66" y2="91.45"></line><line class="link basepair" x1="146.67" y1="86.44" x2="151.72" y2="72.76"></line><line class="link backbone" x1="162.66" y1="91.45" x2="146.67" y2="86.44"></line><line class="link basepair" x1="131.29" y1="79.87" x2="137.49" y2="66.73"></line><line class="link backbone" x1="146.67" y1="86.44" x2="131.29" y2="79.87"></line><line class="link basepair" x1="116.59" y1="72.29" x2="123.55" y2="59.52"></line><line class="link backbone" x1="131.29" y1="79.87" x2="116.59" y2="72.29"></line><line class="link basepair" x1="102.40" y1="64.06" x2="109.80" y2="51.62"></line><line class="link backbone" x1="116.59" y1="72.29" x2="102.40" y2="64.06"></line><line class="link basepair" x1="88.38" y1="55.64" x2="96.44" y2="43.22"></line><line class="link backbone" x1="102.40" y1="64.06" x2="88.38" y2="55.64"></line><line class="link basepair" x1="72.48" y1="50.97" x2="72.44" y2="36.16"></line><line class="link backbone" x1="88.38" y1="55.64" x2="72.48" y2="50.97"></line><line class="link basepair" x1="56.16" y1="50.42" x2="56.74" y2="35.92"></line><line class="link backbone" x1="72.48" y1="50.97" x2="56.16" y2="50.42"></line><line class="link basepair" x1="39.94" y1="49.63" x2="40.80" y2="35.09"></line><line class="link backbone" x1="56.16" y1="50.42" x2="39.94" y2="49.63"></line><line class="link basepair" x1="24.05" y1="48.81" x2="25.04" y2="33.93"></line><line class="link backbone" x1="39.94" y1="49.63" x2="24.05" y2="48.81"></line><line class="link backbone" x1="24.05" y1="48.81" x2="12.38" y2="58.78"></line><line class="link backbone" x1="12.38" y1="58.78" x2="-2.57" y2="57.72"></line><line class="link backbone" x1="-2.57" y1="57.72" x2="-12.40" y2="46.33"></line><line class="link backbone" x1="-12.40" y1="46.33" x2="-11.38" y2="31.44"></line><line class="link backbone" x1="-11.38" y1="31.44" x2="-0.10" y2="21.49"></line><line class="link backbone" x1="-0.10" y1="21.49" x2="14.87" y2="22.47"></line><line class="link basepair" x1="25.04" y1="33.93" x2="24.05" y2="48.81"></line><line class="link backbone" x1="14.87" y1="22.47" x2="25.04" y2="33.93"></line><line class="link basepair" x1="40.80" y1="35.09" x2="39.94" y2="49.63"></line><line class="link backbone" x1="25.04" y1="33.93" x2="40.80" y2="35.09"></line><line class="link basepair" x1="56.74" y1="35.92" x2="56.16" y2="50.42"></line><line class="link backbone" x1="40.80" y1="35.09" x2="56.74" y2="35.92"></line><line class="link basepair" x1="72.44" y1="36.16" x2="72.48" y2="50.97"></line><line class="link backbone" x1="56.74" y1="35.92" x2="72.44" y2="36.16"></line><line class="link backbone" x1="72.44" y1="36.16" x2="87.02" y2="30.81"></line><line class="link basepair" x1="96.44" y1="43.22" x2="88.38" y2="55.64"></line><line class="link backbone" x1="87.02" y1="30.81" x2="96.44" y2="43.22"></line><line class="link basepair" x1="109.80" y1="51.62" x2="102.40" y2="64.06"></line><line class="link backbone" x1="96.44" y1="43.22" x2="109.80" y2="51.62"></line><line class="link basepair" x1="123.55" y1="59.52" x2="116.59" y2="72.29"></line><line class="link backbone" x1="109.80" y1="51.62" x2="123.55" y2="59.52"></line><line class="link basepair" x1="137.49" y1="66.73" x2="131.29" y2="79.87"></line><line class="link backbone" x1="123.55" y1="59.52" x2="137.49" y2="66.73"></line><line class="link basepair" x1="151.72" y1="72.76" x2="146.67" y2="86.44"></line><line class="link backbone" x1="137.49" y1="66.73" x2="151.72" y2="72.76"></line><line class="link basepair" x1="166.28" y1="77.34" x2="162.66" y2="91.45"></line><line class="link backbone" x1="151.72" y1="72.76" x2="166.28" y2="77.34"></line><line class="link basepair" x1="181.30" y1="80.40" x2="179.05" y2="94.80"></line><line class="link backbone" x1="166.28" y1="77.34" x2="181.30" y2="80.40"></line><line class="link basepair" x1="196.70" y1="82.12" x2="195.63" y2="96.63"></line><line class="link backbone" x1="181.30" y1="80.40" x2="196.70" y2="82.12"></line><line class="link basepair" x1="212.37" y1="82.74" x2="212.15" y2="97.27"></line><line class="link backbone" x1="196.70" y1="82.12" x2="212.37" y2="82.74"></line><line class="link basepair" x1="228.08" y1="82.52" x2="228.41" y2="97.25"></line><line class="link backbone" x1="212.37" y1="82.74" x2="228.08" y2="82.52"></line><line class="link backbone" x1="228.08" y1="82.52" x2="235.80" y2="69.53"></line><line class="link backbone" x1="235.80" y1="69.53" x2="248.59" y2="62.21"></line><line class="link backbone" x1="248.59" y1="62.21" x2="263.46" y2="62.59"></line><line class="link backbone" x1="263.46" y1="62.59" x2="275.29" y2="71.58"></line><line class="link backbone" x1="275.29" y1="71.58" x2="280.94" y2="85.24"></line><line class="link basepair" x1="278.98" y1="100.31" x2="269.43" y2="111.54"></line><line class="link backbone" x1="280.94" y1="85.24" x2="278.98" y2="100.31"></line><line class="link basepair" x1="291.07" y1="110.77" x2="281.79" y2="121.86"></line><line class="link backbone" x1="278.98" y1="100.31" x2="291.07" y2="110.77"></line><line class="link basepair" x1="303.44" y1="120.93" x2="294.44" y2="132.29"></line><line class="link backbone" x1="291.07" y1="110.77" x2="303.44" y2="120.93"></line><line class="link basepair" x1="316.05" y1="130.47" x2="307.64" y2="142.29"></line><line class="link backbone" x1="303.44" y1="120.93" x2="316.05" y2="130.47"></line><line class="link basepair" x1="329.04" y1="138.98" x2="321.30" y2="151.54"></line><line class="link backbone" x1="316.05" y1="130.47" x2="329.04" y2="138.98"></line><line class="link backbone" x1="329.04" y1="138.98" x2="344.25" y2="139.07"></line><line class="link basepair" x1="351.64" y1="152.22" x2="344.33" y2="165.12"></line><line class="link backbone" x1="344.25" y1="139.07" x2="351.64" y2="152.22"></line><line class="link basepair" x1="365.17" y1="159.45" x2="358.28" y2="172.68"></line><line class="link backbone" x1="351.64" y1="152.22" x2="365.17" y2="159.45"></line><line class="link backbone" x1="365.17" y1="159.45" x2="380.39" y2="158.69"></line><line class="link backbone" x1="380.39" y1="158.69" x2="388.47" y2="171.32"></line><line class="link backbone" x1="388.47" y1="171.32" x2="381.63" y2="184.70"></line><line class="link backbone" x1="381.63" y1="184.70" x2="366.67" y2="185.52"></line><line class="link basepair" x1="358.28" y1="172.68" x2="365.17" y2="159.45"></line><line class="link backbone" x1="366.67" y1="185.52" x2="358.28" y2="172.68"></line><line class="link basepair" x1="344.33" y1="165.12" x2="351.64" y2="152.22"></line><line class="link backbone" x1="358.28" y1="172.68" x2="344.33" y2="165.12"></line><line class="link backbone" x1="344.33" y1="165.12" x2="328.98" y2="165.06"></line><line class="link basepair" x1="321.30" y1="151.54" x2="329.04" y2="138.98"></line><line class="link backbone" x1="328.98" y1="165.06" x2="321.30" y2="151.54"></line><line class="link basepair" x1="307.64" y1="142.29" x2="316.05" y2="130.47"></line><line class="link backbone" x1="321.30" y1="151.54" x2="307.64" y2="142.29"></line><line class="link basepair" x1="294.44" y1="132.29" x2="303.44" y2="120.93"></line><line class="link backbone" x1="307.64" y1="142.29" x2="294.44" y2="132.29"></line><line class="link basepair" x1="281.79" y1="121.86" x2="291.07" y2="110.77"></line><line class="link backbone" x1="294.44" y1="132.29" x2="281.79" y2="121.86"></line><line class="link basepair" x1="269.43" y1="111.54" x2="278.98" y2="100.31"></line><line class="link backbone" x1="281.79" y1="121.86" x2="269.43" y2="111.54"></line><line class="link label_link" x1="88.38" y1="55.64" x2="83.70" y2="70.46"></line><line class="link label_link" x1="14.87" y1="22.47" x2="14.72" y2="7.00"></line><line class="link label_link" x1="151.72" y1="72.76" x2="158.68" y2="58.82"></line><line class="link label_link" x1="280.94" y1="85.24" x2="289.95" y2="72.55"></line><line class="link label_link" x1="388.47" y1="171.32" x2="403.86" y2="169.96"></line><line class="link label_link" x1="269.43" y1="111.54" x2="262.50" y2="125.43"></line><line class="link fake transparent" x1="228.41" y1="97.25" x2="220.43" y2="90.08"></line><line class="link fake transparent" x1="228.41" y1="97.25" x2="212.37" y2="82.74"></line><line class="link fake transparent" x1="212.15" y1="97.27" x2="220.43" y2="90.08"></line><line class="link fake transparent" x1="212.37" y1="82.74" x2="220.43" y2="90.08"></line><line class="link fake transparent" x1="228.08" y1="82.52" x2="220.43" y2="90.08"></line><line class="link fake transparent" x1="212.15" y1="97.27" x2="204.22" y2="89.93"></line><line class="link fake transparent" x1="195.63" y1="96.63" x2="204.22" y2="89.93"></line><line class="link fake transparent" x1="196.70" y1="82.12" x2="204.22" y2="89.93"></line><line class="link fake transparent" x1="212.37" y1="82.74" x2="204.22" y2="89.93"></line><line class="link fake transparent" x1="195.63" y1="96.63" x2="188.12" y2="88.84"></line><line class="link fake transparent" x1="179.05" y1="94.80" x2="188.12" y2="88.84"></line><line class="link fake transparent" x1="181.30" y1="80.40" x2="188.12" y2="88.84"></line><line class="link fake transparent" x1="196.70" y1="82.12" x2="188.12" y2="88.84"></line><line class="link fake transparent" x1="179.05" y1="94.80" x2="172.22" y2="86.41"></line><line class="link fake transparent" x1="162.66" y1="91.45" x2="172.22" y2="86.41"></line><line class="link fake transparent" x1="166.28" y1="77.34" x2="172.22" y2="86.41"></line><line class="link fake transparent" x1="181.30" y1="80.40" x2="172.22" y2="86.41"></line><line class="link fake transparent" x1="162.66" y1="91.45" x2="156.74" y2="82.44"></line><line class="link fake transparent" x1="146.67" y1="86.44" x2="156.74" y2="82.44"></line><line class="link fake transparent" x1="151.72" y1="72.76" x2="156.74" y2="82.44"></line><line class="link fake transparent" x1="166.28" y1="77.34" x2="156.74" y2="82.44"></line><line class="link fake transparent" x1="146.67" y1="86.44" x2="141.66" y2="76.83"></line><line class="link fake transparent" x1="131.29" y1="79.87" x2="141.66" y2="76.83"></line><line class="link fake transparent" x1="137.49" y1="66.73" x2="141.66" y2="76.83"></line><line class="link fake transparent" x1="151.72" y1="72.76" x2="141.66" y2="76.83"></line><line class="link fake transparent" x1="131.29" y1="79.87" x2="127.11" y2="69.84"></line><line class="link fake transparent" x1="116.59" y1="72.29" x2="127.11" y2="69.84"></line><line class="link fake transparent" x1="123.55" y1="59.52" x2="127.11" y2="69.84"></line><line class="link fake transparent" x1="137.49" y1="66.73" x2="127.11" y2="69.84"></line><line class="link fake transparent" x1="116.59" y1="72.29" x2="113.07" y2="62.01"></line><line class="link fake transparent" x1="102.40" y1="64.06" x2="113.07" y2="62.01"></line><line class="link fake transparent" x1="109.80" y1="51.62" x2="113.07" y2="62.01"></line><line class="link fake transparent" x1="123.55" y1="59.52" x2="113.07" y2="62.01"></line><line class="link fake transparent" x1="102.40" y1="64.06" x2="99.19" y2="53.68"></line><line class="link fake transparent" x1="88.38" y1="55.64" x2="99.19" y2="53.68"></line><line class="link fake transparent" x1="96.44" y1="43.22" x2="99.19" y2="53.68"></line><line class="link fake transparent" x1="109.80" y1="51.62" x2="99.19" y2="53.68"></line><line class="link fake transparent" x1="72.48" y1="50.97" x2="64.52" y2="43.50"></line><line class="link fake transparent" x1="56.16" y1="50.42" x2="64.52" y2="43.50"></line><line class="link fake transparent" x1="56.74" y1="35.92" x2="64.52" y2="43.50"></line><line class="link fake transparent" x1="72.44" y1="36.16" x2="64.52" y2="43.50"></line><line class="link fake transparent" x1="56.16" y1="50.42" x2="48.38" y2="42.84"></line><line class="link fake transparent" x1="39.94" y1="49.63" x2="48.38" y2="42.84"></line><line class="link fake transparent" x1="40.80" y1="35.09" x2="48.38" y2="42.84"></line><line class="link fake transparent" x1="56.74" y1="35.92" x2="48.38" y2="42.84"></line><line class="link fake transparent" x1="39.94" y1="49.63" x2="32.39" y2="41.90"></line><line class="link fake transparent" x1="24.05" y1="48.81" x2="32.39" y2="41.90"></line><line class="link fake transparent" x1="25.04" y1="33.93" x2="32.39" y2="41.90"></line><line class="link fake transparent" x1="40.80" y1="35.09" x2="32.39" y2="41.90"></line><line class="link fake transparent" x1="278.98" y1="100.31" x2="280.18" y2="111.02"></line><line class="link fake transparent" x1="291.07" y1="110.77" x2="280.18" y2="111.02"></line><line class="link fake transparent" x1="281.79" y1="121.86" x2="280.18" y2="111.02"></line><line class="link fake transparent" x1="269.43" y1="111.54" x2="280.18" y2="111.02"></line><line class="link fake transparent" x1="291.07" y1="110.77" x2="292.59" y2="121.55"></line><line class="link fake transparent" x1="303.44" y1="120.93" x2="292.59" y2="121.55"></line><line class="link fake transparent" x1="294.44" y1="132.29" x2="292.59" y2="121.55"></line><line class="link fake transparent" x1="281.79" y1="121.86" x2="292.59" y2="121.55"></line><line class="link fake transparent" x1="303.44" y1="120.93" x2="305.26" y2="131.67"></line><line class="link fake transparent" x1="316.05" y1="130.47" x2="305.26" y2="131.67"></line><line class="link fake transparent" x1="307.64" y1="142.29" x2="305.26" y2="131.67"></line><line class="link fake transparent" x1="294.44" y1="132.29" x2="305.26" y2="131.67"></line><line class="link fake transparent" x1="316.05" y1="130.47" x2="318.35" y2="141.05"></line><line class="link fake transparent" x1="329.04" y1="138.98" x2="318.35" y2="141.05"></line><line class="link fake transparent" x1="321.30" y1="151.54" x2="318.35" y2="141.05"></line><line class="link fake transparent" x1="307.64" y1="142.29" x2="318.35" y2="141.05"></line><line class="link fake transparent" x1="351.64" y1="152.22" x2="354.82" y2="162.49"></line><line class="link fake transparent" x1="365.17" y1="159.45" x2="354.82" y2="162.49"></line><line class="link fake transparent" x1="358.28" y1="172.68" x2="354.82" y2="162.49"></line><line class="link fake transparent" x1="344.33" y1="165.12" x2="354.82" y2="162.49"></line><line class="link fake transparent" x1="228.41" y1="97.25" x2="254.46" y2="88.69"></line><line class="link fake transparent" x1="228.41" y1="97.25" x2="275.29" y2="71.58"></line><line class="link fake transparent" x1="228.08" y1="82.52" x2="254.46" y2="88.69"></line><line class="link fake transparent" x1="228.08" y1="82.52" x2="280.94" y2="85.24"></line><line class="link fake transparent" x1="235.80" y1="69.53" x2="254.46" y2="88.69"></line><line class="link fake transparent" x1="235.80" y1="69.53" x2="278.98" y2="100.31"></line><line class="link fake transparent" x1="248.59" y1="62.21" x2="254.46" y2="88.69"></line><line class="link fake transparent" x1="248.59" y1="62.21" x2="269.43" y2="111.54"></line><line class="link fake transparent" x1="263.46" y1="62.59" x2="254.46" y2="88.69"></line><line class="link fake transparent" x1="263.46" y1="62.59" x2="254.03" y2="115.15"></line><line class="link fake transparent" x1="275.29" y1="71.58" x2="254.46" y2="88.69"></line><line class="link fake transparent" x1="275.29" y1="71.58" x2="240.65" y2="112.56"></line><line class="link fake transparent" x1="280.94" y1="85.24" x2="254.46" y2="88.69"></line><line class="link fake transparent" x1="280.94" y1="85.24" x2="228.41" y2="97.25"></line><line class="link fake transparent" x1="278.98" y1="100.31" x2="254.46" y2="88.69"></line><line class="link fake transparent" x1="278.98" y1="100.31" x2="228.08" y2="82.52"></line><line class="link fake transparent" x1="269.43" y1="111.54" x2="254.46" y2="88.69"></line><line class="link fake transparent" x1="269.43" y1="111.54" x2="235.80" y2="69.53"></line><line class="link fake transparent" x1="24.05" y1="48.81" x2="6.34" y2="40.14"></line><line class="link fake transparent" x1="24.05" y1="48.81" x2="-11.38" y2="31.44"></line><line class="link fake transparent" x1="12.38" y1="58.78" x2="6.34" y2="40.14"></line><line class="link fake transparent" x1="12.38" y1="58.78" x2="-0.10" y2="21.49"></line><line class="link fake transparent" x1="-2.57" y1="57.72" x2="6.34" y2="40.14"></line><line class="link fake transparent" x1="-2.57" y1="57.72" x2="14.87" y2="22.47"></line><line class="link fake transparent" x1="-12.40" y1="46.33" x2="6.34" y2="40.14"></line><line class="link fake transparent" x1="-12.40" y1="46.33" x2="25.04" y2="33.93"></line><line class="link fake transparent" x1="-11.38" y1="31.44" x2="6.34" y2="40.14"></line><line class="link fake transparent" x1="-11.38" y1="31.44" x2="24.05" y2="48.81"></line><line class="link fake transparent" x1="-0.10" y1="21.49" x2="6.34" y2="40.14"></line><line class="link fake transparent" x1="-0.10" y1="21.49" x2="12.38" y2="58.78"></line><line class="link fake transparent" x1="14.87" y1="22.47" x2="6.34" y2="40.14"></line><line class="link fake transparent" x1="14.87" y1="22.47" x2="-2.57" y2="57.72"></line><line class="link fake transparent" x1="25.04" y1="33.93" x2="6.34" y2="40.14"></line><line class="link fake transparent" x1="25.04" y1="33.93" x2="-12.40" y2="46.33"></line><line class="link fake transparent" x1="365.17" y1="159.45" x2="373.41" y2="172.06"></line><line class="link fake transparent" x1="365.17" y1="159.45" x2="381.63" y2="184.70"></line><line class="link fake transparent" x1="380.39" y1="158.69" x2="373.41" y2="172.06"></line><line class="link fake transparent" x1="380.39" y1="158.69" x2="366.67" y2="185.52"></line><line class="link fake transparent" x1="388.47" y1="171.32" x2="373.41" y2="172.06"></line><line class="link fake transparent" x1="388.47" y1="171.32" x2="358.28" y2="172.68"></line><line class="link fake transparent" x1="381.63" y1="184.70" x2="373.41" y2="172.06"></line><line class="link fake transparent" x1="381.63" y1="184.70" x2="365.17" y2="159.45"></line><line class="link fake transparent" x1="366.67" y1="185.52" x2="373.41" y2="172.06"></line><line class="link fake transparent" x1="366.67" y1="185.52" x2="380.39" y2="158.69"></line><line class="link fake transparent" x1="358.28" y1="172.68" x2="373.41" y2="172.06"></line><line class="link fake transparent" x1="358.28" y1="172.68" x2="388.47" y2="171.32"></line><line class="link fake transparent" x1="88.38" y1="55.64" x2="83.30" y2="43.57"></line><line class="link fake transparent" x1="88.38" y1="55.64" x2="72.44" y2="36.16"></line><line class="link fake transparent" x1="72.48" y1="50.97" x2="83.30" y2="43.57"></line><line class="link fake transparent" x1="72.48" y1="50.97" x2="87.02" y2="30.81"></line><line class="link fake transparent" x1="72.44" y1="36.16" x2="83.30" y2="43.57"></line><line class="link fake transparent" x1="72.44" y1="36.16" x2="96.44" y2="43.22"></line><line class="link fake transparent" x1="87.02" y1="30.81" x2="83.30" y2="43.57"></line><line class="link fake transparent" x1="87.02" y1="30.81" x2="88.38" y2="55.64"></line><line class="link fake transparent" x1="96.44" y1="43.22" x2="83.30" y2="43.57"></line><line class="link fake transparent" x1="96.44" y1="43.22" x2="72.48" y2="50.97"></line><line class="link fake transparent" x1="329.04" y1="138.98" x2="336.51" y2="152.10"></line><line class="link fake transparent" x1="329.04" y1="138.98" x2="344.33" y2="165.12"></line><line class="link fake transparent" x1="344.25" y1="139.07" x2="336.51" y2="152.10"></line><line class="link fake transparent" x1="344.25" y1="139.07" x2="328.98" y2="165.06"></line><line class="link fake transparent" x1="351.64" y1="152.22" x2="336.51" y2="152.10"></line><line class="link fake transparent" x1="351.64" y1="152.22" x2="321.30" y2="151.54"></line><line class="link fake transparent" x1="344.33" y1="165.12" x2="336.51" y2="152.10"></line><line class="link fake transparent" x1="344.33" y1="165.12" x2="329.04" y2="138.98"></line><line class="link fake transparent" x1="328.98" y1="165.06" x2="336.51" y2="152.10"></line><line class="link fake transparent" x1="328.98" y1="165.06" x2="344.25" y2="139.07"></line><line class="link fake transparent" x1="321.30" y1="151.54" x2="336.51" y2="152.10"></line><line class="link fake transparent" x1="321.30" y1="151.54" x2="351.64" y2="152.22"></line></g><g><g class="noselect gnode" struct_name="m" transform="translate(228.41,97.25)" r="6.5"><circle class="node" r="6" node_type="nucleotide" style="fill: lightgreen;"></circle><text text-anchor="middle" font-size="8" font-weight="bold" y="2.5" class="node-label">C</text></g><g class="noselect gnode" struct_name="m" transform="translate(212.15,97.27)" r="6.5"><circle class="node" r="6" node_type="nucleotide" style="fill: lightgreen;"></circle><text text-anchor="middle" font-size="8" font-weight="bold" y="2.5" class="node-label">A</text></g><g class="noselect gnode" struct_name="m" transform="translate(195.63,96.63)" r="6.5"><circle class="node" r="6" node_type="nucleotide" style="fill: lightgreen;"></circle><text text-anchor="middle" font-size="8" font-weight="bold" y="2.5" class="node-label">C</text></g><g class="noselect gnode" struct_name="m" transform="translate(179.05,94.80)" r="6.5"><circle class="node" r="6" node_type="nucleotide" style="fill: lightgreen;"></circle><text text-anchor="middle" font-size="8" font-weight="bold" y="2.5" class="node-label">G</text></g><g class="noselect gnode" struct_name="m" transform="translate(162.66,91.45)" r="6.5"><circle class="node" r="6" node_type="nucleotide" style="fill: lightgreen;"></circle><text text-anchor="middle" font-size="8" font-weight="bold" y="2.5" class="node-label">U</text></g><g class="noselect gnode" struct_name="m" transform="translate(146.67,86.44)" r="6.5"><circle class="node" r="6" node_type="nucleotide" style="fill: lightgreen;"></circle><text text-anchor="middle" font-size="8" font-weight="bold" y="2.5" class="node-label">G</text></g><g class="noselect gnode" struct_name="m" transform="translate(131.29,79.87)" r="6.5"><circle class="node" r="6" node_type="nucleotide" style="fill: lightgreen;"></circle><text text-anchor="middle" font-size="8" font-weight="bold" y="2.5" class="node-label">C</text></g><g class="noselect gnode" struct_name="m" transform="translate(116.59,72.29)" r="6.5"><circle class="node" r="6" node_type="nucleotide" style="fill: lightgreen;"></circle><text text-anchor="middle" font-size="8" font-weight="bold" y="2.5" class="node-label">G</text></g><g class="noselect gnode" struct_name="m" transform="translate(102.40,64.06)" r="6.5"><circle class="node" r="6" node_type="nucleotide" style="fill: lightgreen;"></circle><text text-anchor="middle" font-size="8" font-weight="bold" y="2.5" class="node-label">G</text></g><g class="noselect gnode" struct_name="m" transform="translate(88.38,55.64)" r="6.5"><circle class="node" r="6" node_type="nucleotide" style="fill: lightgreen;"></circle><text text-anchor="middle" font-size="8" font-weight="bold" y="2.5" class="node-label">G</text></g><g class="noselect gnode" struct_name="m" transform="translate(72.48,50.97)" r="6.5"><circle class="node" r="6" node_type="nucleotide" style="fill: lightgreen;"></circle><text text-anchor="middle" font-size="8" font-weight="bold" y="2.5" class="node-label">A</text></g><g class="noselect gnode" struct_name="m" transform="translate(56.16,50.42)" r="6.5"><circle class="node" r="6" node_type="nucleotide" style="fill: lightgreen;"></circle><text text-anchor="middle" font-size="8" font-weight="bold" y="2.5" class="node-label">C</text></g><g class="noselect gnode" struct_name="m" transform="translate(39.94,49.63)" r="6.5"><circle class="node" r="6" node_type="nucleotide" style="fill: lightgreen;"></circle><text text-anchor="middle" font-size="8" font-weight="bold" y="2.5" class="node-label">U</text></g><g class="noselect gnode" struct_name="m" transform="translate(24.05,48.81)" r="6.5"><circle class="node" r="6" node_type="nucleotide" style="fill: lightgreen;"></circle><text text-anchor="middle" font-size="8" font-weight="bold" y="2.5" class="node-label">A</text></g><g class="noselect gnode" struct_name="m" transform="translate(12.38,58.78)" r="6.5"><circle class="node" r="6" node_type="nucleotide" style="fill: lightblue;"></circle><text text-anchor="middle" font-size="8" font-weight="bold" y="2.5" class="node-label">U</text></g><g class="noselect gnode" struct_name="m" transform="translate(-2.57,57.72)" r="6.5"><circle class="node" r="6" node_type="nucleotide" style="fill: lightblue;"></circle><text text-anchor="middle" font-size="8" font-weight="bold" y="2.5" class="node-label">A</text></g><g class="noselect gnode" struct_name="m" transform="translate(-12.40,46.33)" r="6.5"><circle class="node" r="6" node_type="nucleotide" style="fill: lightblue;"></circle><text text-anchor="middle" font-size="8" font-weight="bold" y="2.5" class="node-label">U</text></g><g class="noselect gnode" struct_name="m" transform="translate(-11.38,31.44)" r="6.5"><circle class="node" r="6" node_type="nucleotide" style="fill: lightblue;"></circle><text text-anchor="middle" font-size="8" font-weight="bold" y="2.5" class="node-label">U</text></g><g class="noselect gnode" struct_name="m" transform="translate(-0.10,21.49)" r="6.5"><circle class="node" r="6" node_type="nucleotide" style="fill: lightblue;"></circle><text text-anchor="middle" font-size="8" font-weight="bold" y="2.5" class="node-label">U</text></g><g class="noselect gnode" struct_name="m" transform="translate(14.87,22.47)" r="6.5"><circle class="node" r="6" node_type="nucleotide" style="fill: lightblue;"></circle><text text-anchor="middle" font-size="8" font-weight="bold" y="2.5" class="node-label">U</text></g><g class="noselect gnode" struct_name="m" transform="translate(25.04,33.93)" r="6.5"><circle class="node" r="6" node_type="nucleotide" style="fill: lightgreen;"></circle><text text-anchor="middle" font-size="8" font-weight="bold" y="2.5" class="node-label">U</text></g><g class="noselect gnode" struct_name="m" transform="translate(40.80,35.09)" r="6.5"><circle class="node" r="6" node_type="nucleotide" style="fill: lightgreen;"></circle><text text-anchor="middle" font-size="8" font-weight="bold" y="2.5" class="node-label">A</text></g><g class="noselect gnode" struct_name="m" transform="translate(56.74,35.92)" r="6.5"><circle class="node" r="6" node_type="nucleotide" style="fill: lightgreen;"></circle><text text-anchor="middle" font-size="8" font-weight="bold" y="2.5" class="node-label">G</text></g><g class="noselect gnode" struct_name="m" transform="translate(72.44,36.16)" r="6.5"><circle class="node" r="6" node_type="nucleotide" style="fill: lightgreen;"></circle><text text-anchor="middle" font-size="8" font-weight="bold" y="2.5" class="node-label">U</text></g><g class="noselect gnode" struct_name="m" transform="translate(87.02,30.81)" r="6.5"><circle class="node" r="6" node_type="nucleotide" style="fill: rgb(219, 219, 141);"></circle><text text-anchor="middle" font-size="8" font-weight="bold" y="2.5" class="node-label">A</text></g><g class="noselect gnode" struct_name="m" transform="translate(96.44,43.22)" r="6.5"><circle class="node" r="6" node_type="nucleotide" style="fill: lightgreen;"></circle><text text-anchor="middle" font-size="8" font-weight="bold" y="2.5" class="node-label">C</text></g><g class="noselect gnode" struct_name="m" transform="translate(109.80,51.62)" r="6.5"><circle class="node" r="6" node_type="nucleotide" style="fill: lightgreen;"></circle><text text-anchor="middle" font-size="8" font-weight="bold" y="2.5" class="node-label">C</text></g><g class="noselect gnode" struct_name="m" transform="translate(123.55,59.52)" r="6.5"><circle class="node" r="6" node_type="nucleotide" style="fill: lightgreen;"></circle><text text-anchor="middle" font-size="8" font-weight="bold" y="2.5" class="node-label">U</text></g><g class="noselect gnode" struct_name="m" transform="translate(137.49,66.73)" r="6.5"><circle class="node" r="6" node_type="nucleotide" style="fill: lightgreen;"></circle><text text-anchor="middle" font-size="8" font-weight="bold" y="2.5" class="node-label">G</text></g><g class="noselect gnode" struct_name="m" transform="translate(151.72,72.76)" r="6.5"><circle class="node" r="6" node_type="nucleotide" style="fill: lightgreen;"></circle><text text-anchor="middle" font-size="8" font-weight="bold" y="2.5" class="node-label">C</text></g><g class="noselect gnode" struct_name="m" transform="translate(166.28,77.34)" r="6.5"><circle class="node" r="6" node_type="nucleotide" style="fill: lightgreen;"></circle><text text-anchor="middle" font-size="8" font-weight="bold" y="2.5" class="node-label">G</text></g><g class="noselect gnode" struct_name="m" transform="translate(181.30,80.40)" r="6.5"><circle class="node" r="6" node_type="nucleotide" style="fill: lightgreen;"></circle><text text-anchor="middle" font-size="8" font-weight="bold" y="2.5" class="node-label">C</text></g><g class="noselect gnode" struct_name="m" transform="translate(196.70,82.12)" r="6.5"><circle class="node" r="6" node_type="nucleotide" style="fill: lightgreen;"></circle><text text-anchor="middle" font-size="8" font-weight="bold" y="2.5" class="node-label">G</text></g><g class="noselect gnode" struct_name="m" transform="translate(212.37,82.74)" r="6.5"><circle class="node" r="6" node_type="nucleotide" style="fill: lightgreen;"></circle><text text-anchor="middle" font-size="8" font-weight="bold" y="2.5" class="node-label">U</text></g><g class="noselect gnode" struct_name="m" transform="translate(228.08,82.52)" r="6.5"><circle class="node" r="6" node_type="nucleotide" style="fill: lightgreen;"></circle><text text-anchor="middle" font-size="8" font-weight="bold" y="2.5" class="node-label">G</text></g><g class="noselect gnode" struct_name="m" transform="translate(235.80,69.53)" r="6.5"><circle class="node" r="6" node_type="nucleotide" style="fill: lightsalmon;"></circle><text text-anchor="middle" font-size="8" font-weight="bold" y="2.5" class="node-label">U</text></g><g class="noselect gnode" struct_name="m" transform="translate(248.59,62.21)" r="6.5"><circle class="node" r="6" node_type="nucleotide" style="fill: lightsalmon;"></circle><text text-anchor="middle" font-size="8" font-weight="bold" y="2.5" class="node-label">C</text></g><g class="noselect gnode" struct_name="m" transform="translate(263.46,62.59)" r="6.5"><circle class="node" r="6" node_type="nucleotide" style="fill: lightsalmon;"></circle><text text-anchor="middle" font-size="8" font-weight="bold" y="2.5" class="node-label">A</text></g><g class="noselect gnode" struct_name="m" transform="translate(275.29,71.58)" r="6.5"><circle class="node" r="6" node_type="nucleotide" style="fill: lightsalmon;"></circle><text text-anchor="middle" font-size="8" font-weight="bold" y="2.5" class="node-label">A</text></g><g class="noselect gnode" struct_name="m" transform="translate(280.94,85.24)" r="6.5"><circle class="node" r="6" node_type="nucleotide" style="fill: lightsalmon;"></circle><text text-anchor="middle" font-size="8" font-weight="bold" y="2.5" class="node-label">U</text></g><g class="noselect gnode" struct_name="m" transform="translate(278.98,100.31)" r="6.5"><circle class="node" r="6" node_type="nucleotide" style="fill: lightgreen;"></circle><text text-anchor="middle" font-size="8" font-weight="bold" y="2.5" class="node-label">G</text></g><g class="noselect gnode" struct_name="m" transform="translate(291.07,110.77)" r="6.5"><circle class="node" r="6" node_type="nucleotide" style="fill: lightgreen;"></circle><text text-anchor="middle" font-size="8" font-weight="bold" y="2.5" class="node-label">C</text></g><g class="noselect gnode" struct_name="m" transform="translate(303.44,120.93)" r="6.5"><circle class="node" r="6" node_type="nucleotide" style="fill: lightgreen;"></circle><text text-anchor="middle" font-size="8" font-weight="bold" y="2.5" class="node-label">G</text></g><g class="noselect gnode" struct_name="m" transform="translate(316.05,130.47)" r="6.5"><circle class="node" r="6" node_type="nucleotide" style="fill: lightgreen;"></circle><text text-anchor="middle" font-size="8" font-weight="bold" y="2.5" class="node-label">C</text></g><g class="noselect gnode" struct_name="m" transform="translate(329.04,138.98)" r="6.5"><circle class="node" r="6" node_type="nucleotide" style="fill: lightgreen;"></circle><text text-anchor="middle" font-size="8" font-weight="bold" y="2.5" class="node-label">G</text></g><g class="noselect gnode" struct_name="m" transform="translate(344.25,139.07)" r="6.5"><circle class="node" r="6" node_type="nucleotide" style="fill: rgb(219, 219, 141);"></circle><text text-anchor="middle" font-size="8" font-weight="bold" y="2.5" class="node-label">A</text></g><g class="noselect gnode" struct_name="m" transform="translate(351.64,152.22)" r="6.5"><circle class="node" r="6" node_type="nucleotide" style="fill: lightgreen;"></circle><text text-anchor="middle" font-size="8" font-weight="bold" y="2.5" class="node-label">A</text></g><g class="noselect gnode" struct_name="m" transform="translate(365.17,159.45)" r="6.5"><circle class="node" r="6" node_type="nucleotide" style="fill: lightgreen;"></circle><text text-anchor="middle" font-size="8" font-weight="bold" y="2.5" class="node-label">C</text></g><g class="noselect gnode" struct_name="m" transform="translate(380.39,158.69)" r="6.5"><circle class="node" r="6" node_type="nucleotide" style="fill: lightblue;"></circle><text text-anchor="middle" font-size="8" font-weight="bold" y="2.5" class="node-label">C</text></g><g class="noselect gnode" struct_name="m" transform="translate(388.47,171.32)" r="6.5"><circle class="node" r="6" node_type="nucleotide" style="fill: lightblue;"></circle><text text-anchor="middle" font-size="8" font-weight="bold" y="2.5" class="node-label">A</text></g><g class="noselect gnode" struct_name="m" transform="translate(381.63,184.70)" r="6.5"><circle class="node" r="6" node_type="nucleotide" style="fill: lightblue;"></circle><text text-anchor="middle" font-size="8" font-weight="bold" y="2.5" class="node-label">A</text></g><g class="noselect gnode" struct_name="m" transform="translate(366.67,185.52)" r="6.5"><circle class="node" r="6" node_type="nucleotide" style="fill: lightblue;"></circle><text text-anchor="middle" font-size="8" font-weight="bold" y="2.5" class="node-label">U</text></g><g class="noselect gnode" struct_name="m" transform="translate(358.28,172.68)" r="6.5"><circle class="node" r="6" node_type="nucleotide" style="fill: lightgreen;"></circle><text text-anchor="middle" font-size="8" font-weight="bold" y="2.5" class="node-label">G</text></g><g class="noselect gnode" struct_name="m" transform="translate(344.33,165.12)" r="6.5"><circle class="node" r="6" node_type="nucleotide" style="fill: lightgreen;"></circle><text text-anchor="middle" font-size="8" font-weight="bold" y="2.5" class="node-label">U</text></g><g class="noselect gnode" struct_name="m" transform="translate(328.98,165.06)" r="6.5"><circle class="node" r="6" node_type="nucleotide" style="fill: rgb(219, 219, 141);"></circle><text text-anchor="middle" font-size="8" font-weight="bold" y="2.5" class="node-label">C</text></g><g class="noselect gnode" struct_name="m" transform="translate(321.30,151.54)" r="6.5"><circle class="node" r="6" node_type="nucleotide" style="fill: lightgreen;"></circle><text text-anchor="middle" font-size="8" font-weight="bold" y="2.5" class="node-label">C</text></g><g class="noselect gnode" struct_name="m" transform="translate(307.64,142.29)" r="6.5"><circle class="node" r="6" node_type="nucleotide" style="fill: lightgreen;"></circle><text text-anchor="middle" font-size="8" font-weight="bold" y="2.5" class="node-label">G</text></g><g class="noselect gnode" struct_name="m" transform="translate(294.44,132.29)" r="6.5"><circle class="node" r="6" node_type="nucleotide" style="fill: lightgreen;"></circle><text text-anchor="middle" font-size="8" font-weight="bold" y="2.5" class="node-label">C</text></g><g class="noselect gnode" struct_name="m" transform="translate(281.79,121.86)" r="6.5"><circle class="node" r="6" node_type="nucleotide" style="fill: lightgreen;"></circle><text text-anchor="middle" font-size="8" font-weight="bold" y="2.5" class="node-label">G</text></g><g class="noselect gnode" struct_name="m" transform="translate(269.43,111.54)" r="6.5"><circle class="node" r="6" node_type="nucleotide" style="fill: lightgreen;"></circle><text text-anchor="middle" font-size="8" font-weight="bold" y="2.5" class="node-label">C</text></g><g class="noselect gnode" struct_name="m" transform="translate(83.70,70.46)" r="6.5"><circle class="node label" r="6" node_type="label"></circle><text text-anchor="middle" font-size="8" font-weight="bold" y="2.5" class="node-label">10</text></g><g class="noselect gnode" struct_name="m" transform="translate(14.72,7.00)" r="6.5"><circle class="node label" r="6" node_type="label"></circle><text text-anchor="middle" font-size="8" font-weight="bold" y="2.5" class="node-label">20</text></g><g class="noselect gnode" struct_name="m" transform="translate(158.68,58.82)" r="6.5"><circle class="node label" r="6" node_type="label"></circle><text text-anchor="middle" font-size="8" font-weight="bold" y="2.5" class="node-label">30</text></g><g class="noselect gnode" struct_name="m" transform="translate(289.95,72.55)" r="6.5"><circle class="node label" r="6" node_type="label"></circle><text text-anchor="middle" font-size="8" font-weight="bold" y="2.5" class="node-label">40</text></g><g class="noselect gnode" struct_name="m" transform="translate(403.86,169.96)" r="6.5"><circle class="node label" r="6" node_type="label"></circle><text text-anchor="middle" font-size="8" font-weight="bold" y="2.5" class="node-label">50</text></g><g class="noselect gnode" struct_name="m" transform="translate(262.50,125.43)" r="6.5"><circle class="node label" r="6" node_type="label"></circle><text text-anchor="middle" font-size="8" font-weight="bold" y="2.5" class="node-label">60</text></g><g class="noselect gnode" transform="translate(220.43,90.08)" r="6.5"><circle class="node" r="0" node_type="middle"></circle><text text-anchor="middle" font-size="8" font-weight="bold" y="2.5" class="node-label"></text></g><g class="noselect gnode" transform="translate(204.22,89.93)" r="6.5"><circle class="node" r="0" node_type="middle"></circle><text text-anchor="middle" font-size="8" font-weight="bold" y="2.5" class="node-label"></text></g><g class="noselect gnode" transform="translate(188.12,88.84)" r="6.5"><circle class="node" r="0" node_type="middle"></circle><text text-anchor="middle" font-size="8" font-weight="bold" y="2.5" class="node-label"></text></g><g class="noselect gnode" transform="translate(172.22,86.41)" r="6.5"><circle class="node" r="0" node_type="middle"></circle><text text-anchor="middle" font-size="8" font-weight="bold" y="2.5" class="node-label"></text></g><g class="noselect gnode" transform="translate(156.74,82.44)" r="6.5"><circle class="node" r="0" node_type="middle"></circle><text text-anchor="middle" font-size="8" font-weight="bold" y="2.5" class="node-label"></text></g><g class="noselect gnode" transform="translate(141.66,76.83)" r="6.5"><circle class="node" r="0" node_type="middle"></circle><text text-anchor="middle" font-size="8" font-weight="bold" y="2.5" class="node-label"></text></g><g class="noselect gnode" transform="translate(127.11,69.84)" r="6.5"><circle class="node" r="0" node_type="middle"></circle><text text-anchor="middle" font-size="8" font-weight="bold" y="2.5" class="node-label"></text></g><g class="noselect gnode" transform="translate(113.07,62.01)" r="6.5"><circle class="node" r="0" node_type="middle"></circle><text text-anchor="middle" font-size="8" font-weight="bold" y="2.5" class="node-label"></text></g><g class="noselect gnode" transform="translate(99.19,53.68)" r="6.5"><circle class="node" r="0" node_type="middle"></circle><text text-anchor="middle" font-size="8" font-weight="bold" y="2.5" class="node-label"></text></g><g class="noselect gnode" transform="translate(64.52,43.50)" r="6.5"><circle class="node" r="0" node_type="middle"></circle><text text-anchor="middle" font-size="8" font-weight="bold" y="2.5" class="node-label"></text></g><g class="noselect gnode" transform="translate(48.38,42.84)" r="6.5"><circle class="node" r="0" node_type="middle"></circle><text text-anchor="middle" font-size="8" font-weight="bold" y="2.5" class="node-label"></text></g><g class="noselect gnode" transform="translate(32.39,41.90)" r="6.5"><circle class="node" r="0" node_type="middle"></circle><text text-anchor="middle" font-size="8" font-weight="bold" y="2.5" class="node-label"></text></g><g class="noselect gnode" transform="translate(280.18,111.02)" r="6.5"><circle class="node" r="0" node_type="middle"></circle><text text-anchor="middle" font-size="8" font-weight="bold" y="2.5" class="node-label"></text></g><g class="noselect gnode" transform="translate(292.59,121.55)" r="6.5"><circle class="node" r="0" node_type="middle"></circle><text text-anchor="middle" font-size="8" font-weight="bold" y="2.5" class="node-label"></text></g><g class="noselect gnode" transform="translate(305.26,131.67)" r="6.5"><circle class="node" r="0" node_type="middle"></circle><text text-anchor="middle" font-size="8" font-weight="bold" y="2.5" class="node-label"></text></g><g class="noselect gnode" transform="translate(318.35,141.05)" r="6.5"><circle class="node" r="0" node_type="middle"></circle><text text-anchor="middle" font-size="8" font-weight="bold" y="2.5" class="node-label"></text></g><g class="noselect gnode" transform="translate(354.82,162.49)" r="6.5"><circle class="node" r="0" node_type="middle"></circle><text text-anchor="middle" font-size="8" font-weight="bold" y="2.5" class="node-label"></text></g><g class="noselect gnode" transform="translate(254.03,115.15)" r="6.5"><circle class="node" r="0" node_type="middle"></circle><text text-anchor="middle" font-size="8" font-weight="bold" y="2.5" class="node-label"></text></g><g class="noselect gnode" transform="translate(240.65,112.56)" r="6.5"><circle class="node" r="0" node_type="middle"></circle><text text-anchor="middle" font-size="8" font-weight="bold" y="2.5" class="node-label"></text></g><g class="noselect gnode" transform="translate(254.46,88.69)" r="6.5"><circle class="node" r="0" node_type="middle"></circle><text text-anchor="middle" font-size="8" font-weight="bold" y="2.5" class="node-label"></text></g><g class="noselect gnode" transform="translate(6.34,40.14)" r="6.5"><circle class="node" r="0" node_type="middle"></circle><text text-anchor="middle" font-size="8" font-weight="bold" y="2.5" class="node-label"></text></g><g class="noselect gnode" transform="translate(373.41,172.06)" r="6.5"><circle class="node" r="0" node_type="middle"></circle><text text-anchor="middle" font-size="8" font-weight="bold" y="2.5" class="node-label"></text></g><g class="noselect gnode" transform="translate(83.30,43.57)" r="6.5"><circle class="node" r="0" node_type="middle"></circle><text text-anchor="middle" font-size="8" font-weight="bold" y="2.5" class="node-label"></text></g><g class="noselect gnode" transform="translate(336.51,152.10)" r="6.5"><circle class="node" r="0" node_type="middle"></circle><text text-anchor="middle" font-size="8" font-weight="bold" y="2.5" class="node-label"></text></g></g><line class="drag_line" x1="0" y1="0" x2="0" y2="0"></line></g></g></svg>