<svg xmlns="http://www.w3.org/2000/svg" viewBox="0 0 760 640" width="760" height="640"><style>svg {
  display: block;
  min-width: 100%;
  width: 100%;
  min-height: 100%;
}

circle.node {
  stroke: #ccc;
  stroke-width: 1px;
  opacity: 1;
  fill: white;
}

circle.node.label {
    stroke: transparent;
    stroke-width: 0;
    fill: white;
}

circle.outline_node {
    stroke-width: 1px;
    fill: red;
}

circle.protein {
    fill: gray;
    fill-opacity: 0.5;
    stroke-width: 4;
}

circle.hidden_outline {
    stroke-width: 0px;
}


line.link {
  stroke: #999;
  stroke-opacity: 0.8;
  stroke-width: 2;
}

line.basepair {
  stroke: red;
}

line.intermolecule {
  stroke: blue;
}

line.chain_chain {
  stroke-dasharray: 3,3;
}

line.fake {
  stroke: green;
}

.transparent {
    fill: transparent;
    stroke-width: 0;
    stroke-opacity: 0;
    opacity: 0;
    visibility: hidden;
}

.drag_line {
  stroke: #999;
  stroke-width: 2;
  pointer-events: none;
}

.drag_line_hidden {
  stroke: #999;
  stroke-width: 0;
  pointer-events: none;
}

.d3-tip {
    line-height: 1;
    font-weight: bold;
    padding: 6px;
    background: rgba(0, 0, 0, 0.6);
    color: #fff;
    border-radius: 4px;
    pointer-events: none;
          }

text.node-label {
    font-weight: bold;
    font-family: Tahoma, Geneva, sans-serif;
    color: rgb(100,100,100);
    pointer-events: none;
}

text {
    pointer-events: none;
}

g.gnode {

}

circle.outline_node.selected {
    visibility: visible;
}

circle.outline_node {
    visibility: hidden;
}

.brush .extent {
  fill-opacity: .1;
  stroke: #fff;
  shape-rendering: crispEdges;
}

.noselect {
    -webkit-touch-callout: none;
    -webkit-user-select: none;
    -khtml-user-select: none;
    -moz-user-select: none;
    -ms-user-select: none;
    user-select: none;
}

svg {
  display: block;
  min-width: 100%;
  width: 100%;
  min-height: 100%;
}

circle.node {
  stroke: #ccc;
  stroke-width: 1px;
  opacity: 1;
  fill: white;
}

circle.node.label {
    stroke: transparent;
    stroke-width: 0;
    fill: white;
}

circle.outline_node {
    stroke-width: 1px;
    fill: red;
}

circle.protein {
    fill: gray;
    fill-opacity: 0.5;
    stroke-width: 4;
}

circle.hidden_outline {
    stroke-width: 0px;
}


line.link {
  stroke: #999;
  stroke-opacity: 0.8;
  stroke-width: 2;
}

line.basepair {
  stroke: red;
}

line.intermolecule {
  stroke: blue;
}

line.chain_chain {
  stroke-dasharray: 3,3;
}

line.fake {
  stroke: green;
}

.transparent {
    fill: transparent;
    stroke-width: 0;
    stroke-opacity: 0;
    opacity: 0;
    visibility: hidden;
}

.drag_line {
  stroke: #999;
  stroke-width: 2;
  pointer-events: none;
}

.drag_line_hidden {
  stroke: #999;
  stroke-width: 0;
  pointer-events: none;
}

.d3-tip {
    line-height: 1;
    font-weight: bold;
    padding: 6px;
    background: rgba(0, 0, 0, 0.6);
    color: #fff;
    border-radius: 4px;
    pointer-events: none;
          }

text.node-label {
    font-weight: bold;
    font-family: Tahoma, Geneva, sans-serif;
    color: rgb(100,100,100);
    pointer-events: none;
}

text {
    pointer-events: none;
}

g.gnode {

}

circle.outline_node.selected {
    visibility: visible;
}

circle.outline_node {
    visibility: hidden;
}

.brush .extent {
  fill-opacity: .1;
  stroke: #fff;
  shape-rendering: crispEdges;
}

.noselect {
    -webkit-touch-callout: none;
    -webkit-user-select: none;
    -khtml-user-select: none;
    -moz-user-select: none;
    -ms-user-select: none;
    user-select: none;
}
/*# sourceURL=/Users/yumanakamura/ipy_sandbox/sandbox/claude_sandbox/mrna-transformer-worktrees/feat-issue57-switch-derna-knotty/scripts/eval/prerender/forna_vendor/fornac.css*/</style><style></style><g><g class="brush" style="pointer-events: all; -webkit-tap-highlight-color: rgba(0, 0, 0, 0);"><rect class="background" x="0" width="760" y="0" height="640" style="visibility: hidden; cursor: auto;"></rect><rect class="extent" x="0" width="0" y="0" height="0" style="cursor: move;"></rect><g class="resize n" transform="translate(0,0)" style="cursor: ns-resize; display: none;"><rect y="-3" width="0" height="6" style="visibility: hidden;"></rect></g><g class="resize e" transform="translate(0,0)" style="cursor: ew-resize; display: none;"><rect x="-3" width="6" height="0" style="visibility: hidden;"></rect></g><g class="resize s" transform="translate(0,0)" style="cursor: ns-resize; display: none;"><rect y="-3" width="0" height="6" style="visibility: hidden;"></rect></g><g class="resize w" transform="translate(0,0)" style="cursor: ew-resize; display: none;"><rect x="-3" width="6" height="0" style="visibility: hidden;"></rect></g><g class="resize nw" transform="translate(0,0)" style="cursor: nwse-resize; display: none;"><rect x="-3" y="-3" width="6" height="6" style="visibility: hidden;"></rect></g><g class="resize ne" transform="translate(0,0)" style="cursor: nesw-resize; display: none;"><rect x="-3" y="-3" width="6" height="6" style="visibility: hidden;"></rect></g><g class="resize se" transform="translate(0,0)" style="cursor: nwse-resize; display: none;"><rect x="-3" y="-3" width="6" height="6" style="visibility: hidden;"></rect></g><g class="resize sw" transform="translate(0,0)" style="cursor: nesw-resize; display: none;"><rect x="-3" y="-3" width="6" height="6" style="visibility: hidden;"></rect></g></g><g transform="translate(81.38,218.38) scale(1.96)"><g><line class="link backbone" x1="150.64" y1="154.40" x2="136.02" y2="155.84"></line><line class="link backbone" x1="136.02" y1="155.84" x2="121.38" y2="153.59"></line><line class="link backbone" x1="121.38" y1="153.59" x2="109.12" y2="144.98"></line><line class="link backbone" x1="109.12" y1="144.98" x2="102.08" y2="131.99"></line><line class="link backbone" x1="102.08" y1="131.99" x2="98.46" y2="117.60"></line><line class="link backbone" x1="98.46" y1="117.60" x2="101.79" y2="102.84"></line><line class="link backbone" x1="101.79" y1="102.84" x2="110.61" y2="90.61"></line><line class="link basepair" x1="123.51" y1="82.38" x2="137.90" y2="78.44"></line><line class="link backbone" x1="110.61" y1="90.61" x2="123.51" y2="82.38"></line><line class="link basepair" x1="118.31" y1="68.59" x2="131.06" y2="62.12"></line><line class="link backbone" x1="123.51" y1="82.38" x2="118.31" y2="68.59"></line><line class="link basepair" x1="110.20" y1="55.80" x2="121.73" y2="47.19"></line><line class="link backbone" x1="118.31" y1="68.59" x2="110.20" y2="55.80"></line><line class="link basepair" x1="100.17" y1="44.45" x2="110.32" y2="34.16"></line><line class="link backbone" x1="110.20" y1="55.80" x2="100.17" y2="44.45"></line><line class="link basepair" x1="88.57" y1="34.51" x2="97.28" y2="23.01"></line><line class="link backbone" x1="100.17" y1="44.45" x2="88.57" y2="34.51"></line><line class="link basepair" x1="75.73" y1="25.93" x2="82.91" y2="13.51"></line><line class="link backbone" x1="88.57" y1="34.51" x2="75.73" y2="25.93"></line><line class="link basepair" x1="62.15" y1="19.48" x2="67.23" y2="5.73"></line><line class="link backbone" x1="75.73" y1="25.93" x2="62.15" y2="19.48"></line><line class="link backbone" x1="62.15" y1="19.48" x2="47.50" y2="22.74"></line><line class="link backbone" x1="47.50" y1="22.74" x2="37.49" y2="12.14"></line><line class="link basepair" x1="41.51" y1="-2.33" x2="55.54" y2="-6.57"></line><line class="link backbone" x1="37.49" y1="12.14" x2="41.51" y2="-2.33"></line><line class="link basepair" x1="35.97" y1="-16.64" x2="49.08" y2="-22.50"></line><line class="link backbone" x1="41.51" y1="-2.33" x2="35.97" y2="-16.64"></line><line class="link basepair" x1="28.94" y1="-30.98" x2="41.82" y2="-37.55"></line><line class="link backbone" x1="35.97" y1="-16.64" x2="28.94" y2="-30.98"></line><line class="link basepair" x1="21.45" y1="-45.10" x2="34.20" y2="-52.04"></line><line class="link backbone" x1="28.94" y1="-30.98" x2="21.45" y2="-45.10"></line><line class="link basepair" x1="13.62" y1="-58.79" x2="26.52" y2="-66.14"></line><line class="link backbone" x1="21.45" y1="-45.10" x2="13.62" y2="-58.79"></line><line class="link backbone" x1="13.62" y1="-58.79" x2="0.33" y2="-66.56"></line><line class="link backbone" x1="0.33" y1="-66.56" x2="0.46" y2="-81.50"></line><line class="link backbone" x1="0.46" y1="-81.50" x2="13.42" y2="-88.99"></line><line class="link backbone" x1="13.42" y1="-88.99" x2="26.43" y2="-81.60"></line><line class="link basepair" x1="26.52" y1="-66.14" x2="13.62" y2="-58.79"></line><line class="link backbone" x1="26.43" y1="-81.60" x2="26.52" y2="-66.14"></line><line class="link basepair" x1="34.20" y1="-52.04" x2="21.45" y2="-45.10"></line><line class="link backbone" x1="26.52" y1="-66.14" x2="34.20" y2="-52.04"></line><line class="link basepair" x1="41.82" y1="-37.55" x2="28.94" y2="-30.98"></line><line class="link backbone" x1="34.20" y1="-52.04" x2="41.82" y2="-37.55"></line><line class="link basepair" x1="49.08" y1="-22.50" x2="35.97" y2="-16.64"></line><line class="link backbone" x1="41.82" y1="-37.55" x2="49.08" y2="-22.50"></line><line class="link basepair" x1="55.54" y1="-6.57" x2="41.51" y2="-2.33"></line><line class="link backbone" x1="49.08" y1="-22.50" x2="55.54" y2="-6.57"></line><line class="link basepair" x1="67.23" y1="5.73" x2="62.15" y2="19.48"></line><line class="link backbone" x1="55.54" y1="-6.57" x2="67.23" y2="5.73"></line><line class="link basepair" x1="82.91" y1="13.51" x2="75.73" y2="25.93"></line><line class="link backbone" x1="67.23" y1="5.73" x2="82.91" y2="13.51"></line><line class="link basepair" x1="97.28" y1="23.01" x2="88.57" y2="34.51"></line><line class="link backbone" x1="82.91" y1="13.51" x2="97.28" y2="23.01"></line><line class="link basepair" x1="110.32" y1="34.16" x2="100.17" y2="44.45"></line><line class="link backbone" x1="97.28" y1="23.01" x2="110.32" y2="34.16"></line><line class="link basepair" x1="121.73" y1="47.19" x2="110.20" y2="55.80"></line><line class="link backbone" x1="110.32" y1="34.16" x2="121.73" y2="47.19"></line><line class="link basepair" x1="131.06" y1="62.12" x2="118.31" y2="68.59"></line><line class="link backbone" x1="121.73" y1="47.19" x2="131.06" y2="62.12"></line><line class="link basepair" x1="137.90" y1="78.44" x2="123.51" y2="82.38"></line><line class="link backbone" x1="131.06" y1="62.12" x2="137.90" y2="78.44"></line><line class="link backbone" x1="137.90" y1="78.44" x2="153.35" y2="83.59"></line><line class="link backbone" x1="153.35" y1="83.59" x2="165.47" y2="92.49"></line><line class="link basepair" x1="175.04" y1="105.74" x2="175.32" y2="120.57"></line><line class="link backbone" x1="165.47" y1="92.49" x2="175.04" y2="105.74"></line><line class="link basepair" x1="192.88" y1="108.11" x2="189.75" y2="122.02"></line><line class="link backbone" x1="175.04" y1="105.74" x2="192.88" y2="108.11"></line><line class="link basepair" x1="209.73" y1="113.68" x2="204.05" y2="126.85"></line><line class="link backbone" x1="192.88" y1="108.11" x2="209.73" y2="113.68"></line><line class="link basepair" x1="225.11" y1="121.52" x2="217.47" y2="134.04"></line><line class="link backbone" x1="209.73" y1="113.68" x2="225.11" y2="121.52"></line><line class="link backbone" x1="225.11" y1="121.52" x2="240.70" y2="122.43"></line><line class="link basepair" x1="247.69" y1="136.38" x2="239.28" y2="148.47"></line><line class="link backbone" x1="240.70" y1="122.43" x2="247.69" y2="136.38"></line><line class="link basepair" x1="260.79" y1="146.34" x2="251.75" y2="157.77"></line><line class="link backbone" x1="247.69" y1="136.38" x2="260.79" y2="146.34"></line><line class="link basepair" x1="273.26" y1="156.40" x2="263.71" y2="167.81"></line><line class="link backbone" x1="260.79" y1="146.34" x2="273.26" y2="156.40"></line><line class="link backbone" x1="273.26" y1="156.40" x2="288.39" y2="159.21"></line><line class="link backbone" x1="288.39" y1="159.21" x2="293.35" y2="173.31"></line><line class="link backbone" x1="293.35" y1="173.31" x2="283.65" y2="184.77"></line><line class="link backbone" x1="283.65" y1="184.77" x2="268.97" y2="182.27"></line><line class="link basepair" x1="263.71" y1="167.81" x2="273.26" y2="156.40"></line><line class="link backbone" x1="268.97" y1="182.27" x2="263.71" y2="167.81"></line><line class="link basepair" x1="251.75" y1="157.77" x2="260.79" y2="146.34"></line><line class="link backbone" x1="263.71" y1="167.81" x2="251.75" y2="157.77"></line><line class="link basepair" x1="239.28" y1="148.47" x2="247.69" y2="136.38"></line><line class="link backbone" x1="251.75" y1="157.77" x2="239.28" y2="148.47"></line><line class="link backbone" x1="239.28" y1="148.47" x2="224.21" y2="147.64"></line><line class="link basepair" x1="217.47" y1="134.04" x2="225.11" y2="121.52"></line><line class="link backbone" x1="224.21" y1="147.64" x2="217.47" y2="134.04"></line><line class="link basepair" x1="204.05" y1="126.85" x2="209.73" y2="113.68"></line><line class="link backbone" x1="217.47" y1="134.04" x2="204.05" y2="126.85"></line><line class="link basepair" x1="189.75" y1="122.02" x2="192.88" y2="108.11"></line><line class="link backbone" x1="204.05" y1="126.85" x2="189.75" y2="122.02"></line><line class="link basepair" x1="175.32" y1="120.57" x2="175.04" y2="105.74"></line><line class="link backbone" x1="189.75" y1="122.02" x2="175.32" y2="120.57"></line><line class="link label_link" x1="118.31" y1="68.59" x2="104.46" y2="75.50"></line><line class="link label_link" x1="28.94" y1="-30.98" x2="14.77" y2="-24.56"></line><line class="link label_link" x1="49.08" y1="-22.50" x2="61.86" y2="-31.41"></line><line class="link label_link" x1="165.47" y1="92.49" x2="174.95" y2="80.23"></line><line class="link label_link" x1="293.35" y1="173.31" x2="308.56" y2="175.62"></line><line class="link label_link" x1="175.32" y1="120.57" x2="164.95" y2="131.84"></line><line class="link fake transparent" x1="41.51" y1="-2.33" x2="45.88" y2="-12.17"></line><line class="link fake transparent" x1="41.51" y1="-2.33" x2="49.08" y2="-22.50"></line><line class="link fake transparent" x1="35.97" y1="-16.64" x2="45.88" y2="-12.17"></line><line class="link fake transparent" x1="49.08" y1="-22.50" x2="45.88" y2="-12.17"></line><line class="link fake transparent" x1="55.54" y1="-6.57" x2="45.88" y2="-12.17"></line><line class="link fake transparent" x1="35.97" y1="-16.64" x2="39.08" y2="-27.03"></line><line class="link fake transparent" x1="28.94" y1="-30.98" x2="39.08" y2="-27.03"></line><line class="link fake transparent" x1="41.82" y1="-37.55" x2="39.08" y2="-27.03"></line><line class="link fake transparent" x1="49.08" y1="-22.50" x2="39.08" y2="-27.03"></line><line class="link fake transparent" x1="28.94" y1="-30.98" x2="31.66" y2="-41.51"></line><line class="link fake transparent" x1="21.45" y1="-45.10" x2="31.66" y2="-41.51"></line><line class="link fake transparent" x1="34.20" y1="-52.04" x2="31.66" y2="-41.51"></line><line class="link fake transparent" x1="41.82" y1="-37.55" x2="31.66" y2="-41.51"></line><line class="link fake transparent" x1="21.45" y1="-45.10" x2="23.98" y2="-55.61"></line><line class="link fake transparent" x1="13.62" y1="-58.79" x2="23.98" y2="-55.61"></line><line class="link fake transparent" x1="26.52" y1="-66.14" x2="23.98" y2="-55.61"></line><line class="link fake transparent" x1="34.20" y1="-52.04" x2="23.98" y2="-55.61"></line><line class="link fake transparent" x1="175.04" y1="105.74" x2="183.24" y2="113.29"></line><line class="link fake transparent" x1="192.88" y1="108.11" x2="183.24" y2="113.29"></line><line class="link fake transparent" x1="189.75" y1="122.02" x2="183.24" y2="113.29"></line><line class="link fake transparent" x1="175.32" y1="120.57" x2="183.24" y2="113.29"></line><line class="link fake transparent" x1="192.88" y1="108.11" x2="199.33" y2="116.94"></line><line class="link fake transparent" x1="209.73" y1="113.68" x2="199.33" y2="116.94"></line><line class="link fake transparent" x1="204.05" y1="126.85" x2="199.33" y2="116.94"></line><line class="link fake transparent" x1="189.75" y1="122.02" x2="199.33" y2="116.94"></line><line class="link fake transparent" x1="209.73" y1="113.68" x2="214.36" y2="123.52"></line><line class="link fake transparent" x1="225.11" y1="121.52" x2="214.36" y2="123.52"></line><line class="link fake transparent" x1="217.47" y1="134.04" x2="214.36" y2="123.52"></line><line class="link fake transparent" x1="204.05" y1="126.85" x2="214.36" y2="123.52"></line><line class="link fake transparent" x1="247.69" y1="136.38" x2="250.03" y2="147.07"></line><line class="link fake transparent" x1="260.79" y1="146.34" x2="250.03" y2="147.07"></line><line class="link fake transparent" x1="251.75" y1="157.77" x2="250.03" y2="147.07"></line><line class="link fake transparent" x1="239.28" y1="148.47" x2="250.03" y2="147.07"></line><line class="link fake transparent" x1="260.79" y1="146.34" x2="262.50" y2="157.04"></line><line class="link fake transparent" x1="273.26" y1="156.40" x2="262.50" y2="157.04"></line><line class="link fake transparent" x1="263.71" y1="167.81" x2="262.50" y2="157.04"></line><line class="link fake transparent" x1="251.75" y1="157.77" x2="262.50" y2="157.04"></line><line class="link fake transparent" x1="123.51" y1="82.38" x2="128.38" y2="72.72"></line><line class="link fake transparent" x1="118.31" y1="68.59" x2="128.38" y2="72.72"></line><line class="link fake transparent" x1="131.06" y1="62.12" x2="128.38" y2="72.72"></line><line class="link fake transparent" x1="137.90" y1="78.44" x2="128.38" y2="72.72"></line><line class="link fake transparent" x1="118.31" y1="68.59" x2="120.93" y2="58.03"></line><line class="link fake transparent" x1="110.20" y1="55.80" x2="120.93" y2="58.03"></line><line class="link fake transparent" x1="121.73" y1="47.19" x2="120.93" y2="58.03"></line><line class="link fake transparent" x1="131.06" y1="62.12" x2="120.93" y2="58.03"></line><line class="link fake transparent" x1="110.20" y1="55.80" x2="111.06" y2="44.94"></line><line class="link fake transparent" x1="100.17" y1="44.45" x2="111.06" y2="44.94"></line><line class="link fake transparent" x1="110.32" y1="34.16" x2="111.06" y2="44.94"></line><line class="link fake transparent" x1="121.73" y1="47.19" x2="111.06" y2="44.94"></line><line class="link fake transparent" x1="100.17" y1="44.45" x2="99.47" y2="33.66"></line><line class="link fake transparent" x1="88.57" y1="34.51" x2="99.47" y2="33.66"></line><line class="link fake transparent" x1="97.28" y1="23.01" x2="99.47" y2="33.66"></line><line class="link fake transparent" x1="110.32" y1="34.16" x2="99.47" y2="33.66"></line><line class="link fake transparent" x1="88.57" y1="34.51" x2="86.42" y2="23.84"></line><line class="link fake transparent" x1="75.73" y1="25.93" x2="86.42" y2="23.84"></line><line class="link fake transparent" x1="82.91" y1="13.51" x2="86.42" y2="23.84"></line><line class="link fake transparent" x1="97.28" y1="23.01" x2="86.42" y2="23.84"></line><line class="link fake transparent" x1="75.73" y1="25.93" x2="72.29" y2="15.68"></line><line class="link fake transparent" x1="62.15" y1="19.48" x2="72.29" y2="15.68"></line><line class="link fake transparent" x1="67.23" y1="5.73" x2="72.29" y2="15.68"></line><line class="link fake transparent" x1="82.91" y1="13.51" x2="72.29" y2="15.68"></line><line class="link fake transparent" x1="150.64" y1="154.40" x2="137.36" y2="117.88"></line><line class="link fake transparent" x1="150.64" y1="154.40" x2="123.51" y2="82.38"></line><line class="link fake transparent" x1="136.02" y1="155.84" x2="137.36" y2="117.88"></line><line class="link fake transparent" x1="136.02" y1="155.84" x2="137.90" y2="78.44"></line><line class="link fake transparent" x1="121.38" y1="153.59" x2="137.36" y2="117.88"></line><line class="link fake transparent" x1="121.38" y1="153.59" x2="153.35" y2="83.59"></line><line class="link fake transparent" x1="109.12" y1="144.98" x2="137.36" y2="117.88"></line><line class="link fake transparent" x1="109.12" y1="144.98" x2="165.47" y2="92.49"></line><line class="link fake transparent" x1="102.08" y1="131.99" x2="137.36" y2="117.88"></line><line class="link fake transparent" x1="102.08" y1="131.99" x2="175.04" y2="105.74"></line><line class="link fake transparent" x1="98.46" y1="117.60" x2="137.36" y2="117.88"></line><line class="link fake transparent" x1="98.46" y1="117.60" x2="175.32" y2="120.57"></line><line class="link fake transparent" x1="101.79" y1="102.84" x2="137.36" y2="117.88"></line><line class="link fake transparent" x1="101.79" y1="102.84" x2="171.44" y2="135.33"></line><line class="link fake transparent" x1="110.61" y1="90.61" x2="137.36" y2="117.88"></line><line class="link fake transparent" x1="110.61" y1="90.61" x2="162.36" y2="147.50"></line><line class="link fake transparent" x1="123.51" y1="82.38" x2="137.36" y2="117.88"></line><line class="link fake transparent" x1="123.51" y1="82.38" x2="150.64" y2="154.40"></line><line class="link fake transparent" x1="137.90" y1="78.44" x2="137.36" y2="117.88"></line><line class="link fake transparent" x1="137.90" y1="78.44" x2="136.02" y2="155.84"></line><line class="link fake transparent" x1="153.35" y1="83.59" x2="137.36" y2="117.88"></line><line class="link fake transparent" x1="153.35" y1="83.59" x2="121.38" y2="153.59"></line><line class="link fake transparent" x1="165.47" y1="92.49" x2="137.36" y2="117.88"></line><line class="link fake transparent" x1="165.47" y1="92.49" x2="109.12" y2="144.98"></line><line class="link fake transparent" x1="175.04" y1="105.74" x2="137.36" y2="117.88"></line><line class="link fake transparent" x1="175.04" y1="105.74" x2="102.08" y2="131.99"></line><line class="link fake transparent" x1="175.32" y1="120.57" x2="137.36" y2="117.88"></line><line class="link fake transparent" x1="175.32" y1="120.57" x2="98.46" y2="117.60"></line><line class="link fake transparent" x1="13.62" y1="-58.79" x2="13.50" y2="-73.89"></line><line class="link fake transparent" x1="13.62" y1="-58.79" x2="13.42" y2="-88.99"></line><line class="link fake transparent" x1="0.33" y1="-66.56" x2="13.50" y2="-73.89"></line><line class="link fake transparent" x1="0.33" y1="-66.56" x2="26.43" y2="-81.60"></line><line class="link fake transparent" x1="0.46" y1="-81.50" x2="13.50" y2="-73.89"></line><line class="link fake transparent" x1="0.46" y1="-81.50" x2="26.52" y2="-66.14"></line><line class="link fake transparent" x1="13.42" y1="-88.99" x2="13.50" y2="-73.89"></line><line class="link fake transparent" x1="13.42" y1="-88.99" x2="13.62" y2="-58.79"></line><line class="link fake transparent" x1="26.43" y1="-81.60" x2="13.50" y2="-73.89"></line><line class="link fake transparent" x1="26.43" y1="-81.60" x2="0.33" y2="-66.56"></line><line class="link fake transparent" x1="26.52" y1="-66.14" x2="13.50" y2="-73.89"></line><line class="link fake transparent" x1="26.52" y1="-66.14" x2="0.46" y2="-81.50"></line><line class="link fake transparent" x1="273.26" y1="156.40" x2="278.54" y2="170.61"></line><line class="link fake transparent" x1="273.26" y1="156.40" x2="283.65" y2="184.77"></line><line class="link fake transparent" x1="288.39" y1="159.21" x2="278.54" y2="170.61"></line><line class="link fake transparent" x1="288.39" y1="159.21" x2="268.97" y2="182.27"></line><line class="link fake transparent" x1="293.35" y1="173.31" x2="278.54" y2="170.61"></line><line class="link fake transparent" x1="293.35" y1="173.31" x2="263.71" y2="167.81"></line><line class="link fake transparent" x1="283.65" y1="184.77" x2="278.54" y2="170.61"></line><line class="link fake transparent" x1="283.65" y1="184.77" x2="273.26" y2="156.40"></line><line class="link fake transparent" x1="268.97" y1="182.27" x2="278.54" y2="170.61"></line><line class="link fake transparent" x1="268.97" y1="182.27" x2="288.39" y2="159.21"></line><line class="link fake transparent" x1="263.71" y1="167.81" x2="278.54" y2="170.61"></line><line class="link fake transparent" x1="263.71" y1="167.81" x2="293.35" y2="173.31"></line><line class="link fake transparent" x1="225.11" y1="121.52" x2="232.52" y2="134.90"></line><line class="link fake transparent" x1="225.11" y1="121.52" x2="239.28" y2="148.47"></line><line class="link fake transparent" x1="240.70" y1="122.43" x2="232.52" y2="134.90"></line><line class="link fake transparent" x1="240.70" y1="122.43" x2="224.21" y2="147.64"></line><line class="link fake transparent" x1="247.69" y1="136.38" x2="232.52" y2="134.90"></line><line class="link fake transparent" x1="247.69" y1="136.38" x2="217.47" y2="134.04"></line><line class="link fake transparent" x1="239.28" y1="148.47" x2="232.52" y2="134.90"></line><line class="link fake transparent" x1="239.28" y1="148.47" x2="225.11" y2="121.52"></line><line class="link fake transparent" x1="224.21" y1="147.64" x2="232.52" y2="134.90"></line><line class="link fake transparent" x1="224.21" y1="147.64" x2="240.70" y2="122.43"></line><line class="link fake transparent" x1="217.47" y1="134.04" x2="232.52" y2="134.90"></line><line class="link fake transparent" x1="217.47" y1="134.04" x2="247.69" y2="136.38"></line><line class="link fake transparent" x1="62.15" y1="19.48" x2="52.26" y2="8.17"></line><line class="link fake transparent" x1="62.15" y1="19.48" x2="41.51" y2="-2.33"></line><line class="link fake transparent" x1="47.50" y1="22.74" x2="52.26" y2="8.17"></line><line class="link fake transparent" x1="47.50" y1="22.74" x2="55.54" y2="-6.57"></line><line class="link fake transparent" x1="37.49" y1="12.14" x2="52.26" y2="8.17"></line><line class="link fake transparent" x1="37.49" y1="12.14" x2="67.23" y2="5.73"></line><line class="link fake transparent" x1="41.51" y1="-2.33" x2="52.26" y2="8.17"></line><line class="link fake transparent" x1="41.51" y1="-2.33" x2="62.15" y2="19.48"></line><line class="link fake transparent" x1="55.54" y1="-6.57" x2="52.26" y2="8.17"></line><line class="link fake transparent" x1="55.54" y1="-6.57" x2="47.50" y2="22.74"></line><line class="link fake transparent" x1="67.23" y1="5.73" x2="52.26" y2="8.17"></line><line class="link fake transparent" x1="67.23" y1="5.73" x2="37.49" y2="12.14"></line></g><g><g class="noselect gnode" struct_name="m" transform="translate(150.64,154.40)" r="6.5"><circle class="node" r="6" node_type="nucleotide" style="fill: lightsalmon;"></circle><text text-anchor="middle" font-size="8" font-weight="bold" y="2.5" class="node-label">G</text></g><g class="noselect gnode" struct_name="m" transform="translate(136.02,155.84)" r="6.5"><circle class="node" r="6" node_type="nucleotide" style="fill: lightsalmon;"></circle><text text-anchor="middle" font-size="8" font-weight="bold" y="2.5" class="node-label">A</text></g><g class="noselect gnode" struct_name="m" transform="translate(121.38,153.59)" r="6.5"><circle class="node" r="6" node_type="nucleotide" style="fill: lightsalmon;"></circle><text text-anchor="middle" font-size="8" font-weight="bold" y="2.5" class="node-label">A</text></g><g class="noselect gnode" struct_name="m" transform="translate(109.12,144.98)" r="6.5"><circle class="node" r="6" node_type="nucleotide" style="fill: lightsalmon;"></circle><text text-anchor="middle" font-size="8" font-weight="bold" y="2.5" class="node-label">G</text></g><g class="noselect gnode" struct_name="m" transform="translate(102.08,131.99)" r="6.5"><circle class="node" r="6" node_type="nucleotide" style="fill: lightsalmon;"></circle><text text-anchor="middle" font-size="8" font-weight="bold" y="2.5" class="node-label">A</text></g><g class="noselect gnode" struct_name="m" transform="translate(98.46,117.60)" r="6.5"><circle class="node" r="6" node_type="nucleotide" style="fill: lightsalmon;"></circle><text text-anchor="middle" font-size="8" font-weight="bold" y="2.5" class="node-label">A</text></g><g class="noselect gnode" struct_name="m" transform="translate(101.79,102.84)" r="6.5"><circle class="node" r="6" node_type="nucleotide" style="fill: lightsalmon;"></circle><text text-anchor="middle" font-size="8" font-weight="bold" y="2.5" class="node-label">U</text></g><g class="noselect gnode" struct_name="m" transform="translate(110.61,90.61)" r="6.5"><circle class="node" r="6" node_type="nucleotide" style="fill: lightsalmon;"></circle><text text-anchor="middle" font-size="8" font-weight="bold" y="2.5" class="node-label">A</text></g><g class="noselect gnode" struct_name="m" transform="translate(123.51,82.38)" r="6.5"><circle class="node" r="6" node_type="nucleotide" style="fill: lightgreen;"></circle><text text-anchor="middle" font-size="8" font-weight="bold" y="2.5" class="node-label">U</text></g><g class="noselect gnode" struct_name="m" transform="translate(118.31,68.59)" r="6.5"><circle class="node" r="6" node_type="nucleotide" style="fill: lightgreen;"></circle><text text-anchor="middle" font-size="8" font-weight="bold" y="2.5" class="node-label">U</text></g><g class="noselect gnode" struct_name="m" transform="translate(110.20,55.80)" r="6.5"><circle class="node" r="6" node_type="nucleotide" style="fill: lightgreen;"></circle><text text-anchor="middle" font-size="8" font-weight="bold" y="2.5" class="node-label">C</text></g><g class="noselect gnode" struct_name="m" transform="translate(100.17,44.45)" r="6.5"><circle class="node" r="6" node_type="nucleotide" style="fill: lightgreen;"></circle><text text-anchor="middle" font-size="8" font-weight="bold" y="2.5" class="node-label">C</text></g><g class="noselect gnode" struct_name="m" transform="translate(88.57,34.51)" r="6.5"><circle class="node" r="6" node_type="nucleotide" style="fill: lightgreen;"></circle><text text-anchor="middle" font-size="8" font-weight="bold" y="2.5" class="node-label">A</text></g><g class="noselect gnode" struct_name="m" transform="translate(75.73,25.93)" r="6.5"><circle class="node" r="6" node_type="nucleotide" style="fill: lightgreen;"></circle><text text-anchor="middle" font-size="8" font-weight="bold" y="2.5" class="node-label">G</text></g><g class="noselect gnode" struct_name="m" transform="translate(62.15,19.48)" r="6.5"><circle class="node" r="6" node_type="nucleotide" style="fill: lightgreen;"></circle><text text-anchor="middle" font-size="8" font-weight="bold" y="2.5" class="node-label">C</text></g><g class="noselect gnode" struct_name="m" transform="translate(47.50,22.74)" r="6.5"><circle class="node" r="6" node_type="nucleotide" style="fill: rgb(219, 219, 141);"></circle><text text-anchor="middle" font-size="8" font-weight="bold" y="2.5" class="node-label">A</text></g><g class="noselect gnode" struct_name="m" transform="translate(37.49,12.14)" r="6.5"><circle class="node" r="6" node_type="nucleotide" style="fill: rgb(219, 219, 141);"></circle><text text-anchor="middle" font-size="8" font-weight="bold" y="2.5" class="node-label">A</text></g><g class="noselect gnode" struct_name="m" transform="translate(41.51,-2.33)" r="6.5"><circle class="node" r="6" node_type="nucleotide" style="fill: lightgreen;"></circle><text text-anchor="middle" font-size="8" font-weight="bold" y="2.5" class="node-label">C</text></g><g class="noselect gnode" struct_name="m" transform="translate(35.97,-16.64)" r="6.5"><circle class="node" r="6" node_type="nucleotide" style="fill: lightgreen;"></circle><text text-anchor="middle" font-size="8" font-weight="bold" y="2.5" class="node-label">A</text></g><g class="noselect gnode" struct_name="m" transform="translate(28.94,-30.98)" r="6.5"><circle class="node" r="6" node_type="nucleotide" style="fill: lightgreen;"></circle><text text-anchor="middle" font-size="8" font-weight="bold" y="2.5" class="node-label">U</text></g><g class="noselect gnode" struct_name="m" transform="translate(21.45,-45.10)" r="6.5"><circle class="node" r="6" node_type="nucleotide" style="fill: lightgreen;"></circle><text text-anchor="middle" font-size="8" font-weight="bold" y="2.5" class="node-label">G</text></g><g class="noselect gnode" struct_name="m" transform="translate(13.62,-58.79)" r="6.5"><circle class="node" r="6" node_type="nucleotide" style="fill: lightgreen;"></circle><text text-anchor="middle" font-size="8" font-weight="bold" y="2.5" class="node-label">G</text></g><g class="noselect gnode" struct_name="m" transform="translate(0.33,-66.56)" r="6.5"><circle class="node" r="6" node_type="nucleotide" style="fill: lightblue;"></circle><text text-anchor="middle" font-size="8" font-weight="bold" y="2.5" class="node-label">A</text></g><g class="noselect gnode" struct_name="m" transform="translate(0.46,-81.50)" r="6.5"><circle class="node" r="6" node_type="nucleotide" style="fill: lightblue;"></circle><text text-anchor="middle" font-size="8" font-weight="bold" y="2.5" class="node-label">U</text></g><g class="noselect gnode" struct_name="m" transform="translate(13.42,-88.99)" r="6.5"><circle class="node" r="6" node_type="nucleotide" style="fill: lightblue;"></circle><text text-anchor="middle" font-size="8" font-weight="bold" y="2.5" class="node-label">C</text></g><g class="noselect gnode" struct_name="m" transform="translate(26.43,-81.60)" r="6.5"><circle class="node" r="6" node_type="nucleotide" style="fill: lightblue;"></circle><text text-anchor="middle" font-size="8" font-weight="bold" y="2.5" class="node-label">U</text></g><g class="noselect gnode" struct_name="m" transform="translate(26.52,-66.14)" r="6.5"><circle class="node" r="6" node_type="nucleotide" style="fill: lightgreen;"></circle><text text-anchor="middle" font-size="8" font-weight="bold" y="2.5" class="node-label">C</text></g><g class="noselect gnode" struct_name="m" transform="translate(34.20,-52.04)" r="6.5"><circle class="node" r="6" node_type="nucleotide" style="fill: lightgreen;"></circle><text text-anchor="middle" font-size="8" font-weight="bold" y="2.5" class="node-label">C</text></g><g class="noselect gnode" struct_name="m" transform="translate(41.82,-37.55)" r="6.5"><circle class="node" r="6" node_type="nucleotide" style="fill: lightgreen;"></circle><text text-anchor="middle" font-size="8" font-weight="bold" y="2.5" class="node-label">G</text></g><g class="noselect gnode" struct_name="m" transform="translate(49.08,-22.50)" r="6.5"><circle class="node" r="6" node_type="nucleotide" style="fill: lightgreen;"></circle><text text-anchor="middle" font-size="8" font-weight="bold" y="2.5" class="node-label">U</text></g><g class="noselect gnode" struct_name="m" transform="translate(55.54,-6.57)" r="6.5"><circle class="node" r="6" node_type="nucleotide" style="fill: lightgreen;"></circle><text text-anchor="middle" font-size="8" font-weight="bold" y="2.5" class="node-label">G</text></g><g class="noselect gnode" struct_name="m" transform="translate(67.23,5.73)" r="6.5"><circle class="node" r="6" node_type="nucleotide" style="fill: lightgreen;"></circle><text text-anchor="middle" font-size="8" font-weight="bold" y="2.5" class="node-label">G</text></g><g class="noselect gnode" struct_name="m" transform="translate(82.91,13.51)" r="6.5"><circle class="node" r="6" node_type="nucleotide" style="fill: lightgreen;"></circle><text text-anchor="middle" font-size="8" font-weight="bold" y="2.5" class="node-label">C</text></g><g class="noselect gnode" struct_name="m" transform="translate(97.28,23.01)" r="6.5"><circle class="node" r="6" node_type="nucleotide" style="fill: lightgreen;"></circle><text text-anchor="middle" font-size="8" font-weight="bold" y="2.5" class="node-label">U</text></g><g class="noselect gnode" struct_name="m" transform="translate(110.32,34.16)" r="6.5"><circle class="node" r="6" node_type="nucleotide" style="fill: lightgreen;"></circle><text text-anchor="middle" font-size="8" font-weight="bold" y="2.5" class="node-label">G</text></g><g class="noselect gnode" struct_name="m" transform="translate(121.73,47.19)" r="6.5"><circle class="node" r="6" node_type="nucleotide" style="fill: lightgreen;"></circle><text text-anchor="middle" font-size="8" font-weight="bold" y="2.5" class="node-label">G</text></g><g class="noselect gnode" struct_name="m" transform="translate(131.06,62.12)" r="6.5"><circle class="node" r="6" node_type="nucleotide" style="fill: lightgreen;"></circle><text text-anchor="middle" font-size="8" font-weight="bold" y="2.5" class="node-label">A</text></g><g class="noselect gnode" struct_name="m" transform="translate(137.90,78.44)" r="6.5"><circle class="node" r="6" node_type="nucleotide" style="fill: lightgreen;"></circle><text text-anchor="middle" font-size="8" font-weight="bold" y="2.5" class="node-label">A</text></g><g class="noselect gnode" struct_name="m" transform="translate(153.35,83.59)" r="6.5"><circle class="node" r="6" node_type="nucleotide" style="fill: lightsalmon;"></circle><text text-anchor="middle" font-size="8" font-weight="bold" y="2.5" class="node-label">A</text></g><g class="noselect gnode" struct_name="m" transform="translate(165.47,92.49)" r="6.5"><circle class="node" r="6" node_type="nucleotide" style="fill: lightsalmon;"></circle><text text-anchor="middle" font-size="8" font-weight="bold" y="2.5" class="node-label">C</text></g><g class="noselect gnode" struct_name="m" transform="translate(175.04,105.74)" r="6.5"><circle class="node" r="6" node_type="nucleotide" style="fill: lightgreen;"></circle><text text-anchor="middle" font-size="8" font-weight="bold" y="2.5" class="node-label">A</text></g><g class="noselect gnode" struct_name="m" transform="translate(192.88,108.11)" r="6.5"><circle class="node" r="6" node_type="nucleotide" style="fill: lightgreen;"></circle><text text-anchor="middle" font-size="8" font-weight="bold" y="2.5" class="node-label">C</text></g><g class="noselect gnode" struct_name="m" transform="translate(209.73,113.68)" r="6.5"><circle class="node" r="6" node_type="nucleotide" style="fill: lightgreen;"></circle><text text-anchor="middle" font-size="8" font-weight="bold" y="2.5" class="node-label">A</text></g><g class="noselect gnode" struct_name="m" transform="translate(225.11,121.52)" r="6.5"><circle class="node" r="6" node_type="nucleotide" style="fill: lightgreen;"></circle><text text-anchor="middle" font-size="8" font-weight="bold" y="2.5" class="node-label">U</text></g><g class="noselect gnode" struct_name="m" transform="translate(240.70,122.43)" r="6.5"><circle class="node" r="6" node_type="nucleotide" style="fill: rgb(219, 219, 141);"></circle><text text-anchor="middle" font-size="8" font-weight="bold" y="2.5" class="node-label">G</text></g><g class="noselect gnode" struct_name="m" transform="translate(247.69,136.38)" r="6.5"><circle class="node" r="6" node_type="nucleotide" style="fill: lightgreen;"></circle><text text-anchor="middle" font-size="8" font-weight="bold" y="2.5" class="node-label">A</text></g><g class="noselect gnode" struct_name="m" transform="translate(260.79,146.34)" r="6.5"><circle class="node" r="6" node_type="nucleotide" style="fill: lightgreen;"></circle><text text-anchor="middle" font-size="8" font-weight="bold" y="2.5" class="node-label">U</text></g><g class="noselect gnode" struct_name="m" transform="translate(273.26,156.40)" r="6.5"><circle class="node" r="6" node_type="nucleotide" style="fill: lightgreen;"></circle><text text-anchor="middle" font-size="8" font-weight="bold" y="2.5" class="node-label">U</text></g><g class="noselect gnode" struct_name="m" transform="translate(288.39,159.21)" r="6.5"><circle class="node" r="6" node_type="nucleotide" style="fill: lightblue;"></circle><text text-anchor="middle" font-size="8" font-weight="bold" y="2.5" class="node-label">A</text></g><g class="noselect gnode" struct_name="m" transform="translate(293.35,173.31)" r="6.5"><circle class="node" r="6" node_type="nucleotide" style="fill: lightblue;"></circle><text text-anchor="middle" font-size="8" font-weight="bold" y="2.5" class="node-label">A</text></g><g class="noselect gnode" struct_name="m" transform="translate(283.65,184.77)" r="6.5"><circle class="node" r="6" node_type="nucleotide" style="fill: lightblue;"></circle><text text-anchor="middle" font-size="8" font-weight="bold" y="2.5" class="node-label">U</text></g><g class="noselect gnode" struct_name="m" transform="translate(268.97,182.27)" r="6.5"><circle class="node" r="6" node_type="nucleotide" style="fill: lightblue;"></circle><text text-anchor="middle" font-size="8" font-weight="bold" y="2.5" class="node-label">A</text></g><g class="noselect gnode" struct_name="m" transform="translate(263.71,167.81)" r="6.5"><circle class="node" r="6" node_type="nucleotide" style="fill: lightgreen;"></circle><text text-anchor="middle" font-size="8" font-weight="bold" y="2.5" class="node-label">A</text></g><g class="noselect gnode" struct_name="m" transform="translate(251.75,157.77)" r="6.5"><circle class="node" r="6" node_type="nucleotide" style="fill: lightgreen;"></circle><text text-anchor="middle" font-size="8" font-weight="bold" y="2.5" class="node-label">A</text></g><g class="noselect gnode" struct_name="m" transform="translate(239.28,148.47)" r="6.5"><circle class="node" r="6" node_type="nucleotide" style="fill: lightgreen;"></circle><text text-anchor="middle" font-size="8" font-weight="bold" y="2.5" class="node-label">U</text></g><g class="noselect gnode" struct_name="m" transform="translate(224.21,147.64)" r="6.5"><circle class="node" r="6" node_type="nucleotide" style="fill: rgb(219, 219, 141);"></circle><text text-anchor="middle" font-size="8" font-weight="bold" y="2.5" class="node-label">G</text></g><g class="noselect gnode" struct_name="m" transform="translate(217.47,134.04)" r="6.5"><circle class="node" r="6" node_type="nucleotide" style="fill: lightgreen;"></circle><text text-anchor="middle" font-size="8" font-weight="bold" y="2.5" class="node-label">G</text></g><g class="noselect gnode" struct_name="m" transform="translate(204.05,126.85)" r="6.5"><circle class="node" r="6" node_type="nucleotide" style="fill: lightgreen;"></circle><text text-anchor="middle" font-size="8" font-weight="bold" y="2.5" class="node-label">U</text></g><g class="noselect gnode" struct_name="m" transform="translate(189.75,122.02)" r="6.5"><circle class="node" r="6" node_type="nucleotide" style="fill: lightgreen;"></circle><text text-anchor="middle" font-size="8" font-weight="bold" y="2.5" class="node-label">G</text></g><g class="noselect gnode" struct_name="m" transform="translate(175.32,120.57)" r="6.5"><circle class="node" r="6" node_type="nucleotide" style="fill: lightgreen;"></circle><text text-anchor="middle" font-size="8" font-weight="bold" y="2.5" class="node-label">U</text></g><g class="noselect gnode" struct_name="m" transform="translate(104.46,75.50)" r="6.5"><circle class="node label" r="6" node_type="label"></circle><text text-anchor="middle" font-size="8" font-weight="bold" y="2.5" class="node-label">10</text></g><g class="noselect gnode" struct_name="m" transform="translate(14.77,-24.56)" r="6.5"><circle class="node label" r="6" node_type="label"></circle><text text-anchor="middle" font-size="8" font-weight="bold" y="2.5" class="node-label">20</text></g><g class="noselect gnode" struct_name="m" transform="translate(61.86,-31.41)" r="6.5"><circle class="node label" r="6" node_type="label"></circle><text text-anchor="middle" font-size="8" font-weight="bold" y="2.5" class="node-label">30</text></g><g class="noselect gnode" struct_name="m" transform="translate(174.95,80.23)" r="6.5"><circle class="node label" r="6" node_type="label"></circle><text text-anchor="middle" font-size="8" font-weight="bold" y="2.5" class="node-label">40</text></g><g class="noselect gnode" struct_name="m" transform="translate(308.56,175.62)" r="6.5"><circle class="node label" r="6" node_type="label"></circle><text text-anchor="middle" font-size="8" font-weight="bold" y="2.5" class="node-label">50</text></g><g class="noselect gnode" struct_name="m" transform="translate(164.95,131.84)" r="6.5"><circle class="node label" r="6" node_type="label"></circle><text text-anchor="middle" font-size="8" font-weight="bold" y="2.5" class="node-label">60</text></g><g class="noselect gnode" transform="translate(45.88,-12.17)" r="6.5"><circle class="node" r="0" node_type="middle"></circle><text text-anchor="middle" font-size="8" font-weight="bold" y="2.5" class="node-label"></text></g><g class="noselect gnode" transform="translate(39.08,-27.03)" r="6.5"><circle class="node" r="0" node_type="middle"></circle><text text-anchor="middle" font-size="8" font-weight="bold" y="2.5" class="node-label"></text></g><g class="noselect gnode" transform="translate(31.66,-41.51)" r="6.5"><circle class="node" r="0" node_type="middle"></circle><text text-anchor="middle" font-size="8" font-weight="bold" y="2.5" class="node-label"></text></g><g class="noselect gnode" transform="translate(23.98,-55.61)" r="6.5"><circle class="node" r="0" node_type="middle"></circle><text text-anchor="middle" font-size="8" font-weight="bold" y="2.5" class="node-label"></text></g><g class="noselect gnode" transform="translate(183.24,113.29)" r="6.5"><circle class="node" r="0" node_type="middle"></circle><text text-anchor="middle" font-size="8" font-weight="bold" y="2.5" class="node-label"></text></g><g class="noselect gnode" transform="translate(199.33,116.94)" r="6.5"><circle class="node" r="0" node_type="middle"></circle><text text-anchor="middle" font-size="8" font-weight="bold" y="2.5" class="node-label"></text></g><g class="noselect gnode" transform="translate(214.36,123.52)" r="6.5"><circle class="node" r="0" node_type="middle"></circle><text text-anchor="middle" font-size="8" font-weight="bold" y="2.5" class="node-label"></text></g><g class="noselect gnode" transform="translate(250.03,147.07)" r="6.5"><circle class="node" r="0" node_type="middle"></circle><text text-anchor="middle" font-size="8" font-weight="bold" y="2.5" class="node-label"></text></g><g class="noselect gnode" transform="translate(262.50,157.04)" r="6.5"><circle class="node" r="0" node_type="middle"></circle><text text-anchor="middle" font-size="8" font-weight="bold" y="2.5" class="node-label"></text></g><g class="noselect gnode" transform="translate(128.38,72.72)" r="6.5"><circle class="node" r="0" node_type="middle"></circle><text text-anchor="middle" font-size="8" font-weight="bold" y="2.5" class="node-label"></text></g><g class="noselect gnode" transform="translate(120.93,58.03)" r="6.5"><circle class="node" r="0" node_type="middle"></circle><text text-anchor="middle" font-size="8" font-weight="bold" y="2.5" class="node-label"></text></g><g class="noselect gnode" transform="translate(111.06,44.94)" r="6.5"><circle class="node" r="0" node_type="middle"></circle><text text-anchor="middle" font-size="8" font-weight="bold" y="2.5" class="node-label"></text></g><g class="noselect gnode" transform="translate(99.47,33.66)" r="6.5"><circle class="node" r="0" node_type="middle"></circle><text text-anchor="middle" font-size="8" font-weight="bold" y="2.5" class="node-label"></text></g><g class="noselect gnode" transform="translate(86.42,23.84)" r="6.5"><circle class="node" r="0" node_type="middle"></circle><text text-anchor="middle" font-size="8" font-weight="bold" y="2.5" class="node-label"></text></g><g class="noselect gnode" transform="translate(72.29,15.68)" r="6.5"><circle class="node" r="0" node_type="middle"></circle><text text-anchor="middle" font-size="8" font-weight="bold" y="2.5" class="node-label"></text></g><g class="noselect gnode" transform="translate(171.44,135.33)" r="6.5"><circle class="node" r="0" node_type="middle"></circle><text text-anchor="middle" font-size="8" font-weight="bold" y="2.5" class="node-label"></text></g><g class="noselect gnode" transform="translate(162.36,147.50)" r="6.5"><circle class="node" r="0" node_type="middle"></circle><text text-anchor="middle" font-size="8" font-weight="bold" y="2.5" class="node-label"></text></g><g class="noselect gnode" transform="translate(137.36,117.88)" r="6.5"><circle class="node" r="0" node_type="middle"></circle><text text-anchor="middle" font-size="8" font-weight="bold" y="2.5" class="node-label"></text></g><g class="noselect gnode" transform="translate(13.50,-73.89)" r="6.5"><circle class="node" r="0" node_type="middle"></circle><text text-anchor="middle" font-size="8" font-weight="bold" y="2.5" class="node-label"></text></g><g class="noselect gnode" transform="translate(278.54,170.61)" r="6.5"><circle class="node" r="0" node_type="middle"></circle><text text-anchor="middle" font-size="8" font-weight="bold" y="2.5" class="node-label"></text></g><g class="noselect gnode" transform="translate(232.52,134.90)" r="6.5"><circle class="node" r="0" node_type="middle"></circle><text text-anchor="middle" font-size="8" font-weight="bold" y="2.5" class="node-label"></text></g><g class="noselect gnode" transform="translate(52.26,8.17)" r="6.5"><circle class="node" r="0" node_type="middle"></circle><text text-anchor="middle" font-size="8" font-weight="bold" y="2.5" class="node-label"></text></g></g><line class="drag_line" x1="0" y1="0" x2="0" y2="0"></line></g></g></svg>