<svg xmlns="http://www.w3.org/2000/svg" viewBox="0 0 760 640" width="760" height="640"><style>svg {
  display: block;
  min-width: 100%;
  width: 100%;
  min-height: 100%;
}

circle.node {
  stroke: #ccc;
  stroke-width: 1px;
  opacity: 1;
  fill: white;
}

circle.node.label {
    stroke: transparent;
    stroke-width: 0;
    fill: white;
}

circle.outline_node {
    stroke-width: 1px;
    fill: red;
}

circle.protein {
    fill: gray;
    fill-opacity: 0.5;
    stroke-width: 4;
}

circle.hidden_outline {
    stroke-width: 0px;
}


line.link {
  stroke: #999;
  stroke-opacity: 0.8;
  stroke-width: 2;
}

line.basepair {
  stroke: red;
}

line.intermolecule {
  stroke: blue;
}

line.chain_chain {
  stroke-dasharray: 3,3;
}

line.fake {
  stroke: green;
}

.transparent {
    fill: transparent;
    stroke-width: 0;
    stroke-opacity: 0;
    opacity: 0;
    visibility: hidden;
}

.drag_line {
  stroke: #999;
  stroke-width: 2;
  pointer-events: none;
}

.drag_line_hidden {
  stroke: #999;
  stroke-width: 0;
  pointer-events: none;
}

.d3-tip {
    line-height: 1;
    font-weight: bold;
    padding: 6px;
    background: rgba(0, 0, 0, 0.6);
    color: #fff;
    border-radius: 4px;
    pointer-events: none;
          }

text.node-label {
    font-weight: bold;
    font-family: Tahoma, Geneva, sans-serif;
    color: rgb(100,100,100);
    pointer-events: none;
}

text {
    pointer-events: none;
}

g.gnode {

}

circle.outline_node.selected {
    visibility: visible;
}

circle.outline_node {
    visibility: hidden;
}

.brush .extent {
  fill-opacity: .1;
  stroke: #fff;
  shape-rendering: crispEdges;
}

.noselect {
    -webkit-touch-callout: none;
    -webkit-user-select: none;
    -khtml-user-select: none;
    -moz-user-select: none;
    -ms-user-select: none;
    user-select: none;
}

svg {
  display: block;
  min-width: 100%;
  width: 100%;
  min-height: 100%;
}

circle.node {
  stroke: #ccc;
  stroke-width: 1px;
  opacity: 1;
  fill: white;
}

circle.node.label {
    stroke: transparent;
    stroke-width: 0;
    fill: white;
}

circle.outline_node {
    stroke-width: 1px;
    fill: red;
}

circle.protein {
    fill: gray;
    fill-opacity: 0.5;
    stroke-width: 4;
}

circle.hidden_outline {
    stroke-width: 0px;
}


line.link {
  stroke: #999;
  stroke-opacity: 0.8;
  stroke-width: 2;
}

line.basepair {
  stroke: red;
}

line.intermolecule {
  stroke: blue;
}

line.chain_chain {
  stroke-dasharray: 3,3;
}

line.fake {
  stroke: green;
}

.transparent {
    fill: transparent;
    stroke-width: 0;
    stroke-opacity: 0;
    opacity: 0;
    visibility: hidden;
}

.drag_line {
  stroke: #999;
  stroke-width: 2;
  pointer-events: none;
}

.drag_line_hidden {
  stroke: #999;
  stroke-width: 0;
  pointer-events: none;
}

.d3-tip {
    line-height: 1;
    font-weight: bold;
    padding: 6px;
    background: rgba(0, 0, 0, 0.6);
    color: #fff;
    border-radius: 4px;
    pointer-events: none;
          }

text.node-label {
    font-weight: bold;
    font-family: Tahoma, Geneva, sans-serif;
    color: rgb(100,100,100);
    pointer-events: none;
}

text {
    pointer-events: none;
}

g.gnode {

}

circle.outline_node.selected {
    visibility: visible;
}

circle.outline_node {
    visibility: hidden;
}

.brush .extent {
  fill-opacity: .1;
  stroke: #fff;
  shape-rendering: crispEdges;
}

.noselect {
    -webkit-touch-callout: none;
    -webkit-user-select: none;
    -khtml-user-select: none;
    -moz-user-select: none;
    -ms-user-select: none;
    user-select: none;
}
/*# sourceURL=/Users/yumanakamura/ipy_sandbox/sandbox/claude_sandbox/mrna-transformer-worktrees/feat-issue57-switch-derna-knotty/scripts/eval/prerender/forna_vendor/fornac.css*/</style><style></style><g><g class="brush" style="pointer-events: all; -webkit-tap-highlight-color: rgba(0, 0, 0, 0);"><rect class="background" x="0" width="760" y="0" height="640" style="visibility: hidden; cursor: auto;"></rect><rect class="extent" x="0" width="0" y="0" height="0" style="cursor: move;"></rect><g class="resize n" transform="translate(0,0)" style="cursor: ns-resize; display: none;"><rect y="-3" width="0" height="6" style="visibility: hidden;"></rect></g><g class="resize e" transform="translate(0,0)" style="cursor: ew-resize; display: none;"><rect x="-3" width="6" height="0" style="visibility: hidden;"></rect></g><g class="resize s" transform="translate(0,0)" style="cursor: ns-resize; display: none;"><rect y="-3" width="0" height="6" style="visibility: hidden;"></rect></g><g class="resize w" transform="translate(0,0)" style="cursor: ew-resize; display: none;"><rect x="-3" width="6" height="0" style="visibility: hidden;"></rect></g><g class="resize nw" transform="translate(0,0)" style="cursor: nwse-resize; display: none;"><rect x="-3" y="-3" width="6" height="6" style="visibility: hidden;"></rect></g><g class="resize ne" transform="translate(0,0)" style="cursor: nesw-resize; display: none;"><rect x="-3" y="-3" width="6" height="6" style="visibility: hidden;"></rect></g><g class="resize se" transform="translate(0,0)" style="cursor: nwse-resize; display: none;"><rect x="-3" y="-3" width="6" height="6" style="visibility: hidden;"></rect></g><g class="resize sw" transform="translate(0,0)" style="cursor: nesw-resize; display: none;"><rect x="-3" y="-3" width="6" height="6" style="visibility: hidden;"></rect></g></g><g transform="translate(76.76,179.80) scale(1.52)"><g><line class="link basepair" x1="177.46" y1="114.15" x2="185.21" y2="101.49"></line><line class="link backbone" x1="180.91" y1="128.61" x2="177.46" y2="114.15"></line><line class="link basepair" x1="164.31" y1="108.22" x2="169.00" y2="94.52"></line><line class="link backbone" x1="177.46" y1="114.15" x2="164.31" y2="108.22"></line><line class="link basepair" x1="149.51" y1="104.26" x2="152.68" y2="90.06"></line><line class="link backbone" x1="164.31" y1="108.22" x2="149.51" y2="104.26"></line><line class="link basepair" x1="134.12" y1="101.44" x2="136.39" y2="87.06"></line><line class="link backbone" x1="149.51" y1="104.26" x2="134.12" y2="101.44"></line><line class="link basepair" x1="118.44" y1="99.32" x2="120.27" y2="84.83"></line><line class="link backbone" x1="134.12" y1="101.44" x2="118.44" y2="99.32"></line><line class="link basepair" x1="102.48" y1="97.34" x2="104.36" y2="82.94"></line><line class="link backbone" x1="118.44" y1="99.32" x2="102.48" y2="97.34"></line><line class="link basepair" x1="86.15" y1="95.05" x2="88.98" y2="80.53"></line><line class="link backbone" x1="102.48" y1="97.34" x2="86.15" y2="95.05"></line><line class="link basepair" x1="69.38" y1="96.50" x2="64.20" y2="82.68"></line><line class="link backbone" x1="86.15" y1="95.05" x2="69.38" y2="96.50"></line><line class="link basepair" x1="53.37" y1="101.41" x2="49.53" y2="87.43"></line><line class="link backbone" x1="69.38" y1="96.50" x2="53.37" y2="101.41"></line><line class="link basepair" x1="37.22" y1="105.27" x2="34.19" y2="91.10"></line><line class="link backbone" x1="53.37" y1="101.41" x2="37.22" y2="105.27"></line><line class="link basepair" x1="21.43" y1="108.57" x2="18.79" y2="93.83"></line><line class="link backbone" x1="37.22" y1="105.27" x2="21.43" y2="108.57"></line><line class="link backbone" x1="21.43" y1="108.57" x2="11.01" y2="120.14"></line><line class="link backbone" x1="11.01" y1="120.14" x2="-4.15" y2="119.30"></line><line class="link backbone" x1="-4.15" y1="119.30" x2="-12.99" y2="106.89"></line><line class="link backbone" x1="-12.99" y1="106.89" x2="-8.79" y2="92.26"></line><line class="link backbone" x1="-8.79" y1="92.26" x2="5.20" y2="86.39"></line><line class="link basepair" x1="18.79" y1="93.83" x2="21.43" y2="108.57"></line><line class="link backbone" x1="5.20" y1="86.39" x2="18.79" y2="93.83"></line><line class="link basepair" x1="34.19" y1="91.10" x2="37.22" y2="105.27"></line><line class="link backbone" x1="18.79" y1="93.83" x2="34.19" y2="91.10"></line><line class="link basepair" x1="49.53" y1="87.43" x2="53.37" y2="101.41"></line><line class="link backbone" x1="34.19" y1="91.10" x2="49.53" y2="87.43"></line><line class="link basepair" x1="64.20" y1="82.68" x2="69.38" y2="96.50"></line><line class="link backbone" x1="49.53" y1="87.43" x2="64.20" y2="82.68"></line><line class="link backbone" x1="64.20" y1="82.68" x2="75.80" y2="72.47"></line><line class="link basepair" x1="88.98" y1="80.53" x2="86.15" y2="95.05"></line><line class="link backbone" x1="75.80" y1="72.47" x2="88.98" y2="80.53"></line><line class="link basepair" x1="104.36" y1="82.94" x2="102.48" y2="97.34"></line><line class="link backbone" x1="88.98" y1="80.53" x2="104.36" y2="82.94"></line><line class="link basepair" x1="120.27" y1="84.83" x2="118.44" y2="99.32"></line><line class="link backbone" x1="104.36" y1="82.94" x2="120.27" y2="84.83"></line><line class="link basepair" x1="136.39" y1="87.06" x2="134.12" y2="101.44"></line><line class="link backbone" x1="120.27" y1="84.83" x2="136.39" y2="87.06"></line><line class="link basepair" x1="152.68" y1="90.06" x2="149.51" y2="104.26"></line><line class="link backbone" x1="136.39" y1="87.06" x2="152.68" y2="90.06"></line><line class="link basepair" x1="169.00" y1="94.52" x2="164.31" y2="108.22"></line><line class="link backbone" x1="152.68" y1="90.06" x2="169.00" y2="94.52"></line><line class="link basepair" x1="185.21" y1="101.49" x2="177.46" y2="114.15"></line><line class="link backbone" x1="169.00" y1="94.52" x2="185.21" y2="101.49"></line><line class="link basepair" x1="202.59" y1="101.13" x2="211.19" y2="113.17"></line><line class="link backbone" x1="185.21" y1="101.49" x2="202.59" y2="101.13"></line><line class="link basepair" x1="218.27" y1="93.00" x2="223.98" y2="106.27"></line><line class="link backbone" x1="202.59" y1="101.13" x2="218.27" y2="93.00"></line><line class="link basepair" x1="234.35" y1="87.37" x2="238.38" y2="101.34"></line><line class="link backbone" x1="218.27" y1="93.00" x2="234.35" y2="87.37"></line><line class="link basepair" x1="250.63" y1="83.52" x2="253.45" y2="97.80"></line><line class="link backbone" x1="234.35" y1="87.37" x2="250.63" y2="83.52"></line><line class="link basepair" x1="266.83" y1="80.81" x2="268.94" y2="95.27"></line><line class="link backbone" x1="250.63" y1="83.52" x2="266.83" y2="80.81"></line><line class="link basepair" x1="282.78" y1="78.74" x2="284.67" y2="93.20"></line><line class="link backbone" x1="266.83" y1="80.81" x2="282.78" y2="78.74"></line><line class="link basepair" x1="298.26" y1="76.44" x2="300.74" y2="91.17"></line><line class="link backbone" x1="282.78" y1="78.74" x2="298.26" y2="76.44"></line><line class="link backbone" x1="298.26" y1="76.44" x2="308.44" y2="64.89"></line><line class="link backbone" x1="308.44" y1="64.89" x2="323.51" y2="65.51"></line><line class="link basepair" x1="332.65" y1="77.95" x2="329.08" y2="92.40"></line><line class="link backbone" x1="323.51" y1="65.51" x2="332.65" y2="77.95"></line><line class="link basepair" x1="347.73" y1="81.15" x2="345.48" y2="95.42"></line><line class="link backbone" x1="332.65" y1="77.95" x2="347.73" y2="81.15"></line><line class="link basepair" x1="363.13" y1="82.74" x2="361.86" y2="97.60"></line><line class="link backbone" x1="347.73" y1="81.15" x2="363.13" y2="82.74"></line><line class="link backbone" x1="363.13" y1="82.74" x2="373.08" y2="71.11"></line><line class="link backbone" x1="373.08" y1="71.11" x2="387.46" y2="67.16"></line><line class="link backbone" x1="387.46" y1="67.16" x2="401.57" y2="72.57"></line><line class="link backbone" x1="401.57" y1="72.57" x2="409.22" y2="85.41"></line><line class="link backbone" x1="409.22" y1="85.41" x2="408.62" y2="100.27"></line><line class="link backbone" x1="408.62" y1="100.27" x2="399.36" y2="112.10"></line><line class="link backbone" x1="399.36" y1="112.10" x2="384.66" y2="115.76"></line><line class="link backbone" x1="384.66" y1="115.76" x2="370.86" y2="110.31"></line><line class="link basepair" x1="361.86" y1="97.60" x2="363.13" y2="82.74"></line><line class="link backbone" x1="370.86" y1="110.31" x2="361.86" y2="97.60"></line><line class="link basepair" x1="345.48" y1="95.42" x2="347.73" y2="81.15"></line><line class="link backbone" x1="361.86" y1="97.60" x2="345.48" y2="95.42"></line><line class="link basepair" x1="329.08" y1="92.40" x2="332.65" y2="77.95"></line><line class="link backbone" x1="345.48" y1="95.42" x2="329.08" y2="92.40"></line><line class="link backbone" x1="329.08" y1="92.40" x2="314.59" y2="98.52"></line><line class="link basepair" x1="300.74" y1="91.17" x2="298.26" y2="76.44"></line><line class="link backbone" x1="314.59" y1="98.52" x2="300.74" y2="91.17"></line><line class="link basepair" x1="284.67" y1="93.20" x2="282.78" y2="78.74"></line><line class="link backbone" x1="300.74" y1="91.17" x2="284.67" y2="93.20"></line><line class="link basepair" x1="268.94" y1="95.27" x2="266.83" y2="80.81"></line><line class="link backbone" x1="284.67" y1="93.20" x2="268.94" y2="95.27"></line><line class="link basepair" x1="253.45" y1="97.80" x2="250.63" y2="83.52"></line><line class="link backbone" x1="268.94" y1="95.27" x2="253.45" y2="97.80"></line><line class="link basepair" x1="238.38" y1="101.34" x2="234.35" y2="87.37"></line><line class="link backbone" x1="253.45" y1="97.80" x2="238.38" y2="101.34"></line><line class="link basepair" x1="223.98" y1="106.27" x2="218.27" y2="93.00"></line><line class="link backbone" x1="238.38" y1="101.34" x2="223.98" y2="106.27"></line><line class="link basepair" x1="211.19" y1="113.17" x2="202.59" y2="101.13"></line><line class="link backbone" x1="223.98" y1="106.27" x2="211.19" y2="113.17"></line><line class="link label_link" x1="53.37" y1="101.41" x2="55.16" y2="116.90"></line><line class="link label_link" x1="49.53" y1="87.43" x2="45.91" y2="72.27"></line><line class="link label_link" x1="202.59" y1="101.13" x2="200.20" y2="85.78"></line><line class="link label_link" x1="347.73" y1="81.15" x2="349.65" y2="65.74"></line><line class="link label_link" x1="361.86" y1="97.60" x2="359.17" y2="112.95"></line><line class="link label_link" x1="211.19" y1="113.17" x2="218.61" y2="126.95"></line><line class="link fake transparent" x1="332.65" y1="77.95" x2="338.58" y2="87.03"></line><line class="link fake transparent" x1="332.65" y1="77.95" x2="345.48" y2="95.42"></line><line class="link fake transparent" x1="347.73" y1="81.15" x2="338.58" y2="87.03"></line><line class="link fake transparent" x1="345.48" y1="95.42" x2="338.58" y2="87.03"></line><line class="link fake transparent" x1="329.08" y1="92.40" x2="338.58" y2="87.03"></line><line class="link fake transparent" x1="347.73" y1="81.15" x2="354.61" y2="89.50"></line><line class="link fake transparent" x1="363.13" y1="82.74" x2="354.61" y2="89.50"></line><line class="link fake transparent" x1="361.86" y1="97.60" x2="354.61" y2="89.50"></line><line class="link fake transparent" x1="345.48" y1="95.42" x2="354.61" y2="89.50"></line><line class="link fake transparent" x1="69.38" y1="96.50" x2="59.28" y2="92.31"></line><line class="link fake transparent" x1="53.37" y1="101.41" x2="59.28" y2="92.31"></line><line class="link fake transparent" x1="49.53" y1="87.43" x2="59.28" y2="92.31"></line><line class="link fake transparent" x1="64.20" y1="82.68" x2="59.28" y2="92.31"></line><line class="link fake transparent" x1="53.37" y1="101.41" x2="43.60" y2="96.53"></line><line class="link fake transparent" x1="37.22" y1="105.27" x2="43.60" y2="96.53"></line><line class="link fake transparent" x1="34.19" y1="91.10" x2="43.60" y2="96.53"></line><line class="link fake transparent" x1="49.53" y1="87.43" x2="43.60" y2="96.53"></line><line class="link fake transparent" x1="37.22" y1="105.27" x2="27.80" y2="99.85"></line><line class="link fake transparent" x1="21.43" y1="108.57" x2="27.80" y2="99.85"></line><line class="link fake transparent" x1="18.79" y1="93.83" x2="27.80" y2="99.85"></line><line class="link fake transparent" x1="34.19" y1="91.10" x2="27.80" y2="99.85"></line><line class="link fake transparent" x1="177.46" y1="114.15" x2="174.18" y2="103.90"></line><line class="link fake transparent" x1="164.31" y1="108.22" x2="174.18" y2="103.90"></line><line class="link fake transparent" x1="169.00" y1="94.52" x2="174.18" y2="103.90"></line><line class="link fake transparent" x1="185.21" y1="101.49" x2="174.18" y2="103.90"></line><line class="link fake transparent" x1="164.31" y1="108.22" x2="158.96" y2="98.85"></line><line class="link fake transparent" x1="149.51" y1="104.26" x2="158.96" y2="98.85"></line><line class="link fake transparent" x1="152.68" y1="90.06" x2="158.96" y2="98.85"></line><line class="link fake transparent" x1="169.00" y1="94.52" x2="158.96" y2="98.85"></line><line class="link fake transparent" x1="149.51" y1="104.26" x2="143.21" y2="95.46"></line><line class="link fake transparent" x1="134.12" y1="101.44" x2="143.21" y2="95.46"></line><line class="link fake transparent" x1="136.39" y1="87.06" x2="143.21" y2="95.46"></line><line class="link fake transparent" x1="152.68" y1="90.06" x2="143.21" y2="95.46"></line><line class="link fake transparent" x1="134.12" y1="101.44" x2="127.30" y2="93.04"></line><line class="link fake transparent" x1="118.44" y1="99.32" x2="127.30" y2="93.04"></line><line class="link fake transparent" x1="120.27" y1="84.83" x2="127.30" y2="93.04"></line><line class="link fake transparent" x1="136.39" y1="87.06" x2="127.30" y2="93.04"></line><line class="link fake transparent" x1="118.44" y1="99.32" x2="111.43" y2="91.12"></line><line class="link fake transparent" x1="102.48" y1="97.34" x2="111.43" y2="91.12"></line><line class="link fake transparent" x1="104.36" y1="82.94" x2="111.43" y2="91.12"></line><line class="link fake transparent" x1="120.27" y1="84.83" x2="111.43" y2="91.12"></line><line class="link fake transparent" x1="102.48" y1="97.34" x2="95.45" y2="89.14"></line><line class="link fake transparent" x1="86.15" y1="95.05" x2="95.45" y2="89.14"></line><line class="link fake transparent" x1="88.98" y1="80.53" x2="95.45" y2="89.14"></line><line class="link fake transparent" x1="104.36" y1="82.94" x2="95.45" y2="89.14"></line><line class="link fake transparent" x1="202.59" y1="101.13" x2="213.71" y2="102.74"></line><line class="link fake transparent" x1="218.27" y1="93.00" x2="213.71" y2="102.74"></line><line class="link fake transparent" x1="223.98" y1="106.27" x2="213.71" y2="102.74"></line><line class="link fake transparent" x1="211.19" y1="113.17" x2="213.71" y2="102.74"></line><line class="link fake transparent" x1="218.27" y1="93.00" x2="228.63" y2="96.53"></line><line class="link fake transparent" x1="234.35" y1="87.37" x2="228.63" y2="96.53"></line><line class="link fake transparent" x1="238.38" y1="101.34" x2="228.63" y2="96.53"></line><line class="link fake transparent" x1="223.98" y1="106.27" x2="228.63" y2="96.53"></line><line class="link fake transparent" x1="234.35" y1="87.37" x2="244.13" y2="92.15"></line><line class="link fake transparent" x1="250.63" y1="83.52" x2="244.13" y2="92.15"></line><line class="link fake transparent" x1="253.45" y1="97.80" x2="244.13" y2="92.15"></line><line class="link fake transparent" x1="238.38" y1="101.34" x2="244.13" y2="92.15"></line><line class="link fake transparent" x1="250.63" y1="83.52" x2="259.94" y2="89.12"></line><line class="link fake transparent" x1="266.83" y1="80.81" x2="259.94" y2="89.12"></line><line class="link fake transparent" x1="268.94" y1="95.27" x2="259.94" y2="89.12"></line><line class="link fake transparent" x1="253.45" y1="97.80" x2="259.94" y2="89.12"></line><line class="link fake transparent" x1="266.83" y1="80.81" x2="275.79" y2="86.91"></line><line class="link fake transparent" x1="282.78" y1="78.74" x2="275.79" y2="86.91"></line><line class="link fake transparent" x1="284.67" y1="93.20" x2="275.79" y2="86.91"></line><line class="link fake transparent" x1="268.94" y1="95.27" x2="275.79" y2="86.91"></line><line class="link fake transparent" x1="282.78" y1="78.74" x2="291.69" y2="84.98"></line><line class="link fake transparent" x1="298.26" y1="76.44" x2="291.69" y2="84.98"></line><line class="link fake transparent" x1="300.74" y1="91.17" x2="291.69" y2="84.98"></line><line class="link fake transparent" x1="284.67" y1="93.20" x2="291.69" y2="84.98"></line><line class="link fake transparent" x1="180.91" y1="128.61" x2="194.22" y2="116.42"></line><line class="link fake transparent" x1="180.91" y1="128.61" x2="202.59" y2="101.13"></line><line class="link fake transparent" x1="177.46" y1="114.15" x2="194.22" y2="116.42"></line><line class="link fake transparent" x1="177.46" y1="114.15" x2="211.19" y2="113.17"></line><line class="link fake transparent" x1="185.21" y1="101.49" x2="194.22" y2="116.42"></line><line class="link fake transparent" x1="185.21" y1="101.49" x2="206.84" y2="128.43"></line><line class="link fake transparent" x1="202.59" y1="101.13" x2="194.22" y2="116.42"></line><line class="link fake transparent" x1="202.59" y1="101.13" x2="197.19" y2="136.15"></line><line class="link fake transparent" x1="211.19" y1="113.17" x2="194.22" y2="116.42"></line><line class="link fake transparent" x1="211.19" y1="113.17" x2="180.91" y2="128.61"></line><line class="link fake transparent" x1="363.13" y1="82.74" x2="385.80" y2="91.53"></line><line class="link fake transparent" x1="363.13" y1="82.74" x2="408.62" y2="100.27"></line><line class="link fake transparent" x1="373.08" y1="71.11" x2="385.80" y2="91.53"></line><line class="link fake transparent" x1="373.08" y1="71.11" x2="399.36" y2="112.10"></line><line class="link fake transparent" x1="387.46" y1="67.16" x2="385.80" y2="91.53"></line><line class="link fake transparent" x1="387.46" y1="67.16" x2="384.66" y2="115.76"></line><line class="link fake transparent" x1="401.57" y1="72.57" x2="385.80" y2="91.53"></line><line class="link fake transparent" x1="401.57" y1="72.57" x2="370.86" y2="110.31"></line><line class="link fake transparent" x1="409.22" y1="85.41" x2="385.80" y2="91.53"></line><line class="link fake transparent" x1="409.22" y1="85.41" x2="361.86" y2="97.60"></line><line class="link fake transparent" x1="408.62" y1="100.27" x2="385.80" y2="91.53"></line><line class="link fake transparent" x1="408.62" y1="100.27" x2="363.13" y2="82.74"></line><line class="link fake transparent" x1="399.36" y1="112.10" x2="385.80" y2="91.53"></line><line class="link fake transparent" x1="399.36" y1="112.10" x2="373.08" y2="71.11"></line><line class="link fake transparent" x1="384.66" y1="115.76" x2="385.80" y2="91.53"></line><line class="link fake transparent" x1="384.66" y1="115.76" x2="387.46" y2="67.16"></line><line class="link fake transparent" x1="370.86" y1="110.31" x2="385.80" y2="91.53"></line><line class="link fake transparent" x1="370.86" y1="110.31" x2="401.57" y2="72.57"></line><line class="link fake transparent" x1="361.86" y1="97.60" x2="385.80" y2="91.53"></line><line class="link fake transparent" x1="361.86" y1="97.60" x2="409.22" y2="85.41"></line><line class="link fake transparent" x1="21.43" y1="108.57" x2="4.45" y2="103.90"></line><line class="link fake transparent" x1="21.43" y1="108.57" x2="-12.99" y2="106.89"></line><line class="link fake transparent" x1="11.01" y1="120.14" x2="4.45" y2="103.90"></line><line class="link fake transparent" x1="11.01" y1="120.14" x2="-8.79" y2="92.26"></line><line class="link fake transparent" x1="-4.15" y1="119.30" x2="4.45" y2="103.90"></line><line class="link fake transparent" x1="-4.15" y1="119.30" x2="5.20" y2="86.39"></line><line class="link fake transparent" x1="-12.99" y1="106.89" x2="4.45" y2="103.90"></line><line class="link fake transparent" x1="-12.99" y1="106.89" x2="18.79" y2="93.83"></line><line class="link fake transparent" x1="-8.79" y1="92.26" x2="4.45" y2="103.90"></line><line class="link fake transparent" x1="-8.79" y1="92.26" x2="21.43" y2="108.57"></line><line class="link fake transparent" x1="5.20" y1="86.39" x2="4.45" y2="103.90"></line><line class="link fake transparent" x1="5.20" y1="86.39" x2="11.01" y2="120.14"></line><line class="link fake transparent" x1="18.79" y1="93.83" x2="4.45" y2="103.90"></line><line class="link fake transparent" x1="18.79" y1="93.83" x2="-4.15" y2="119.30"></line><line class="link fake transparent" x1="298.26" y1="76.44" x2="315.32" y2="81.20"></line><line class="link fake transparent" x1="298.26" y1="76.44" x2="332.65" y2="77.95"></line><line class="link fake transparent" x1="308.44" y1="64.89" x2="315.32" y2="81.20"></line><line class="link fake transparent" x1="308.44" y1="64.89" x2="329.08" y2="92.40"></line><line class="link fake transparent" x1="323.51" y1="65.51" x2="315.32" y2="81.20"></line><line class="link fake transparent" x1="323.51" y1="65.51" x2="314.59" y2="98.52"></line><line class="link fake transparent" x1="332.65" y1="77.95" x2="315.32" y2="81.20"></line><line class="link fake transparent" x1="332.65" y1="77.95" x2="300.74" y2="91.17"></line><line class="link fake transparent" x1="329.08" y1="92.40" x2="315.32" y2="81.20"></line><line class="link fake transparent" x1="329.08" y1="92.40" x2="298.26" y2="76.44"></line><line class="link fake transparent" x1="314.59" y1="98.52" x2="315.32" y2="81.20"></line><line class="link fake transparent" x1="314.59" y1="98.52" x2="308.44" y2="64.89"></line><line class="link fake transparent" x1="300.74" y1="91.17" x2="315.32" y2="81.20"></line><line class="link fake transparent" x1="300.74" y1="91.17" x2="323.51" y2="65.51"></line><line class="link fake transparent" x1="86.15" y1="95.05" x2="76.95" y2="85.79"></line><line class="link fake transparent" x1="86.15" y1="95.05" x2="64.20" y2="82.68"></line><line class="link fake transparent" x1="69.38" y1="96.50" x2="76.95" y2="85.79"></line><line class="link fake transparent" x1="69.38" y1="96.50" x2="75.80" y2="72.47"></line><line class="link fake transparent" x1="64.20" y1="82.68" x2="76.95" y2="85.79"></line><line class="link fake transparent" x1="64.20" y1="82.68" x2="88.98" y2="80.53"></line><line class="link fake transparent" x1="75.80" y1="72.47" x2="76.95" y2="85.79"></line><line class="link fake transparent" x1="75.80" y1="72.47" x2="86.15" y2="95.05"></line><line class="link fake transparent" x1="88.98" y1="80.53" x2="76.95" y2="85.79"></line><line class="link fake transparent" x1="88.98" y1="80.53" x2="69.38" y2="96.50"></line></g><g><g class="noselect gnode" struct_name="m" transform="translate(180.91,128.61)" r="6.5"><circle class="node" r="6" node_type="nucleotide" style="fill: lightsalmon;"></circle><text text-anchor="middle" font-size="8" font-weight="bold" y="2.5" class="node-label">A</text></g><g class="noselect gnode" struct_name="m" transform="translate(177.46,114.15)" r="6.5"><circle class="node" r="6" node_type="nucleotide" style="fill: lightgreen;"></circle><text text-anchor="middle" font-size="8" font-weight="bold" y="2.5" class="node-label">U</text></g><g class="noselect gnode" struct_name="m" transform="translate(164.31,108.22)" r="6.5"><circle class="node" r="6" node_type="nucleotide" style="fill: lightgreen;"></circle><text text-anchor="middle" font-size="8" font-weight="bold" y="2.5" class="node-label">G</text></g><g class="noselect gnode" struct_name="m" transform="translate(149.51,104.26)" r="6.5"><circle class="node" r="6" node_type="nucleotide" style="fill: lightgreen;"></circle><text text-anchor="middle" font-size="8" font-weight="bold" y="2.5" class="node-label">A</text></g><g class="noselect gnode" struct_name="m" transform="translate(134.12,101.44)" r="6.5"><circle class="node" r="6" node_type="nucleotide" style="fill: lightgreen;"></circle><text text-anchor="middle" font-size="8" font-weight="bold" y="2.5" class="node-label">U</text></g><g class="noselect gnode" struct_name="m" transform="translate(118.44,99.32)" r="6.5"><circle class="node" r="6" node_type="nucleotide" style="fill: lightgreen;"></circle><text text-anchor="middle" font-size="8" font-weight="bold" y="2.5" class="node-label">G</text></g><g class="noselect gnode" struct_name="m" transform="translate(102.48,97.34)" r="6.5"><circle class="node" r="6" node_type="nucleotide" style="fill: lightgreen;"></circle><text text-anchor="middle" font-size="8" font-weight="bold" y="2.5" class="node-label">A</text></g><g class="noselect gnode" struct_name="m" transform="translate(86.15,95.05)" r="6.5"><circle class="node" r="6" node_type="nucleotide" style="fill: lightgreen;"></circle><text text-anchor="middle" font-size="8" font-weight="bold" y="2.5" class="node-label">U</text></g><g class="noselect gnode" struct_name="m" transform="translate(69.38,96.50)" r="6.5"><circle class="node" r="6" node_type="nucleotide" style="fill: lightgreen;"></circle><text text-anchor="middle" font-size="8" font-weight="bold" y="2.5" class="node-label">G</text></g><g class="noselect gnode" struct_name="m" transform="translate(53.37,101.41)" r="6.5"><circle class="node" r="6" node_type="nucleotide" style="fill: lightgreen;"></circle><text text-anchor="middle" font-size="8" font-weight="bold" y="2.5" class="node-label">U</text></g><g class="noselect gnode" struct_name="m" transform="translate(37.22,105.27)" r="6.5"><circle class="node" r="6" node_type="nucleotide" style="fill: lightgreen;"></circle><text text-anchor="middle" font-size="8" font-weight="bold" y="2.5" class="node-label">G</text></g><g class="noselect gnode" struct_name="m" transform="translate(21.43,108.57)" r="6.5"><circle class="node" r="6" node_type="nucleotide" style="fill: lightgreen;"></circle><text text-anchor="middle" font-size="8" font-weight="bold" y="2.5" class="node-label">C</text></g><g class="noselect gnode" struct_name="m" transform="translate(11.01,120.14)" r="6.5"><circle class="node" r="6" node_type="nucleotide" style="fill: lightblue;"></circle><text text-anchor="middle" font-size="8" font-weight="bold" y="2.5" class="node-label">A</text></g><g class="noselect gnode" struct_name="m" transform="translate(-4.15,119.30)" r="6.5"><circle class="node" r="6" node_type="nucleotide" style="fill: lightblue;"></circle><text text-anchor="middle" font-size="8" font-weight="bold" y="2.5" class="node-label">U</text></g><g class="noselect gnode" struct_name="m" transform="translate(-12.99,106.89)" r="6.5"><circle class="node" r="6" node_type="nucleotide" style="fill: lightblue;"></circle><text text-anchor="middle" font-size="8" font-weight="bold" y="2.5" class="node-label">G</text></g><g class="noselect gnode" struct_name="m" transform="translate(-8.79,92.26)" r="6.5"><circle class="node" r="6" node_type="nucleotide" style="fill: lightblue;"></circle><text text-anchor="middle" font-size="8" font-weight="bold" y="2.5" class="node-label">U</text></g><g class="noselect gnode" struct_name="m" transform="translate(5.20,86.39)" r="6.5"><circle class="node" r="6" node_type="nucleotide" style="fill: lightblue;"></circle><text text-anchor="middle" font-size="8" font-weight="bold" y="2.5" class="node-label">G</text></g><g class="noselect gnode" struct_name="m" transform="translate(18.79,93.83)" r="6.5"><circle class="node" r="6" node_type="nucleotide" style="fill: lightgreen;"></circle><text text-anchor="middle" font-size="8" font-weight="bold" y="2.5" class="node-label">G</text></g><g class="noselect gnode" struct_name="m" transform="translate(34.19,91.10)" r="6.5"><circle class="node" r="6" node_type="nucleotide" style="fill: lightgreen;"></circle><text text-anchor="middle" font-size="8" font-weight="bold" y="2.5" class="node-label">C</text></g><g class="noselect gnode" struct_name="m" transform="translate(49.53,87.43)" r="6.5"><circle class="node" r="6" node_type="nucleotide" style="fill: lightgreen;"></circle><text text-anchor="middle" font-size="8" font-weight="bold" y="2.5" class="node-label">G</text></g><g class="noselect gnode" struct_name="m" transform="translate(64.20,82.68)" r="6.5"><circle class="node" r="6" node_type="nucleotide" style="fill: lightgreen;"></circle><text text-anchor="middle" font-size="8" font-weight="bold" y="2.5" class="node-label">C</text></g><g class="noselect gnode" struct_name="m" transform="translate(75.80,72.47)" r="6.5"><circle class="node" r="6" node_type="nucleotide" style="fill: rgb(219, 219, 141);"></circle><text text-anchor="middle" font-size="8" font-weight="bold" y="2.5" class="node-label">A</text></g><g class="noselect gnode" struct_name="m" transform="translate(88.98,80.53)" r="6.5"><circle class="node" r="6" node_type="nucleotide" style="fill: lightgreen;"></circle><text text-anchor="middle" font-size="8" font-weight="bold" y="2.5" class="node-label">A</text></g><g class="noselect gnode" struct_name="m" transform="translate(104.36,82.94)" r="6.5"><circle class="node" r="6" node_type="nucleotide" style="fill: lightgreen;"></circle><text text-anchor="middle" font-size="8" font-weight="bold" y="2.5" class="node-label">U</text></g><g class="noselect gnode" struct_name="m" transform="translate(120.27,84.83)" r="6.5"><circle class="node" r="6" node_type="nucleotide" style="fill: lightgreen;"></circle><text text-anchor="middle" font-size="8" font-weight="bold" y="2.5" class="node-label">C</text></g><g class="noselect gnode" struct_name="m" transform="translate(136.39,87.06)" r="6.5"><circle class="node" r="6" node_type="nucleotide" style="fill: lightgreen;"></circle><text text-anchor="middle" font-size="8" font-weight="bold" y="2.5" class="node-label">G</text></g><g class="noselect gnode" struct_name="m" transform="translate(152.68,90.06)" r="6.5"><circle class="node" r="6" node_type="nucleotide" style="fill: lightgreen;"></circle><text text-anchor="middle" font-size="8" font-weight="bold" y="2.5" class="node-label">U</text></g><g class="noselect gnode" struct_name="m" transform="translate(169.00,94.52)" r="6.5"><circle class="node" r="6" node_type="nucleotide" style="fill: lightgreen;"></circle><text text-anchor="middle" font-size="8" font-weight="bold" y="2.5" class="node-label">C</text></g><g class="noselect gnode" struct_name="m" transform="translate(185.21,101.49)" r="6.5"><circle class="node" r="6" node_type="nucleotide" style="fill: lightgreen;"></circle><text text-anchor="middle" font-size="8" font-weight="bold" y="2.5" class="node-label">G</text></g><g class="noselect gnode" struct_name="m" transform="translate(202.59,101.13)" r="6.5"><circle class="node" r="6" node_type="nucleotide" style="fill: lightgreen;"></circle><text text-anchor="middle" font-size="8" font-weight="bold" y="2.5" class="node-label">G</text></g><g class="noselect gnode" struct_name="m" transform="translate(218.27,93.00)" r="6.5"><circle class="node" r="6" node_type="nucleotide" style="fill: lightgreen;"></circle><text text-anchor="middle" font-size="8" font-weight="bold" y="2.5" class="node-label">U</text></g><g class="noselect gnode" struct_name="m" transform="translate(234.35,87.37)" r="6.5"><circle class="node" r="6" node_type="nucleotide" style="fill: lightgreen;"></circle><text text-anchor="middle" font-size="8" font-weight="bold" y="2.5" class="node-label">U</text></g><g class="noselect gnode" struct_name="m" transform="translate(250.63,83.52)" r="6.5"><circle class="node" r="6" node_type="nucleotide" style="fill: lightgreen;"></circle><text text-anchor="middle" font-size="8" font-weight="bold" y="2.5" class="node-label">C</text></g><g class="noselect gnode" struct_name="m" transform="translate(266.83,80.81)" r="6.5"><circle class="node" r="6" node_type="nucleotide" style="fill: lightgreen;"></circle><text text-anchor="middle" font-size="8" font-weight="bold" y="2.5" class="node-label">C</text></g><g class="noselect gnode" struct_name="m" transform="translate(282.78,78.74)" r="6.5"><circle class="node" r="6" node_type="nucleotide" style="fill: lightgreen;"></circle><text text-anchor="middle" font-size="8" font-weight="bold" y="2.5" class="node-label">U</text></g><g class="noselect gnode" struct_name="m" transform="translate(298.26,76.44)" r="6.5"><circle class="node" r="6" node_type="nucleotide" style="fill: lightgreen;"></circle><text text-anchor="middle" font-size="8" font-weight="bold" y="2.5" class="node-label">C</text></g><g class="noselect gnode" struct_name="m" transform="translate(308.44,64.89)" r="6.5"><circle class="node" r="6" node_type="nucleotide" style="fill: rgb(219, 219, 141);"></circle><text text-anchor="middle" font-size="8" font-weight="bold" y="2.5" class="node-label">G</text></g><g class="noselect gnode" struct_name="m" transform="translate(323.51,65.51)" r="6.5"><circle class="node" r="6" node_type="nucleotide" style="fill: rgb(219, 219, 141);"></circle><text text-anchor="middle" font-size="8" font-weight="bold" y="2.5" class="node-label">A</text></g><g class="noselect gnode" struct_name="m" transform="translate(332.65,77.95)" r="6.5"><circle class="node" r="6" node_type="nucleotide" style="fill: lightgreen;"></circle><text text-anchor="middle" font-size="8" font-weight="bold" y="2.5" class="node-label">C</text></g><g class="noselect gnode" struct_name="m" transform="translate(347.73,81.15)" r="6.5"><circle class="node" r="6" node_type="nucleotide" style="fill: lightgreen;"></circle><text text-anchor="middle" font-size="8" font-weight="bold" y="2.5" class="node-label">C</text></g><g class="noselect gnode" struct_name="m" transform="translate(363.13,82.74)" r="6.5"><circle class="node" r="6" node_type="nucleotide" style="fill: lightgreen;"></circle><text text-anchor="middle" font-size="8" font-weight="bold" y="2.5" class="node-label">A</text></g><g class="noselect gnode" struct_name="m" transform="translate(373.08,71.11)" r="6.5"><circle class="node" r="6" node_type="nucleotide" style="fill: lightblue;"></circle><text text-anchor="middle" font-size="8" font-weight="bold" y="2.5" class="node-label">U</text></g><g class="noselect gnode" struct_name="m" transform="translate(387.46,67.16)" r="6.5"><circle class="node" r="6" node_type="nucleotide" style="fill: lightblue;"></circle><text text-anchor="middle" font-size="8" font-weight="bold" y="2.5" class="node-label">A</text></g><g class="noselect gnode" struct_name="m" transform="translate(401.57,72.57)" r="6.5"><circle class="node" r="6" node_type="nucleotide" style="fill: lightblue;"></circle><text text-anchor="middle" font-size="8" font-weight="bold" y="2.5" class="node-label">A</text></g><g class="noselect gnode" struct_name="m" transform="translate(409.22,85.41)" r="6.5"><circle class="node" r="6" node_type="nucleotide" style="fill: lightblue;"></circle><text text-anchor="middle" font-size="8" font-weight="bold" y="2.5" class="node-label">U</text></g><g class="noselect gnode" struct_name="m" transform="translate(408.62,100.27)" r="6.5"><circle class="node" r="6" node_type="nucleotide" style="fill: lightblue;"></circle><text text-anchor="middle" font-size="8" font-weight="bold" y="2.5" class="node-label">A</text></g><g class="noselect gnode" struct_name="m" transform="translate(399.36,112.10)" r="6.5"><circle class="node" r="6" node_type="nucleotide" style="fill: lightblue;"></circle><text text-anchor="middle" font-size="8" font-weight="bold" y="2.5" class="node-label">A</text></g><g class="noselect gnode" struct_name="m" transform="translate(384.66,115.76)" r="6.5"><circle class="node" r="6" node_type="nucleotide" style="fill: lightblue;"></circle><text text-anchor="middle" font-size="8" font-weight="bold" y="2.5" class="node-label">U</text></g><g class="noselect gnode" struct_name="m" transform="translate(370.86,110.31)" r="6.5"><circle class="node" r="6" node_type="nucleotide" style="fill: lightblue;"></circle><text text-anchor="middle" font-size="8" font-weight="bold" y="2.5" class="node-label">U</text></g><g class="noselect gnode" struct_name="m" transform="translate(361.86,97.60)" r="6.5"><circle class="node" r="6" node_type="nucleotide" style="fill: lightgreen;"></circle><text text-anchor="middle" font-size="8" font-weight="bold" y="2.5" class="node-label">U</text></g><g class="noselect gnode" struct_name="m" transform="translate(345.48,95.42)" r="6.5"><circle class="node" r="6" node_type="nucleotide" style="fill: lightgreen;"></circle><text text-anchor="middle" font-size="8" font-weight="bold" y="2.5" class="node-label">G</text></g><g class="noselect gnode" struct_name="m" transform="translate(329.08,92.40)" r="6.5"><circle class="node" r="6" node_type="nucleotide" style="fill: lightgreen;"></circle><text text-anchor="middle" font-size="8" font-weight="bold" y="2.5" class="node-label">G</text></g><g class="noselect gnode" struct_name="m" transform="translate(314.59,98.52)" r="6.5"><circle class="node" r="6" node_type="nucleotide" style="fill: rgb(219, 219, 141);"></circle><text text-anchor="middle" font-size="8" font-weight="bold" y="2.5" class="node-label">A</text></g><g class="noselect gnode" struct_name="m" transform="translate(300.74,91.17)" r="6.5"><circle class="node" r="6" node_type="nucleotide" style="fill: lightgreen;"></circle><text text-anchor="middle" font-size="8" font-weight="bold" y="2.5" class="node-label">G</text></g><g class="noselect gnode" struct_name="m" transform="translate(284.67,93.20)" r="6.5"><circle class="node" r="6" node_type="nucleotide" style="fill: lightgreen;"></circle><text text-anchor="middle" font-size="8" font-weight="bold" y="2.5" class="node-label">G</text></g><g class="noselect gnode" struct_name="m" transform="translate(268.94,95.27)" r="6.5"><circle class="node" r="6" node_type="nucleotide" style="fill: lightgreen;"></circle><text text-anchor="middle" font-size="8" font-weight="bold" y="2.5" class="node-label">G</text></g><g class="noselect gnode" struct_name="m" transform="translate(253.45,97.80)" r="6.5"><circle class="node" r="6" node_type="nucleotide" style="fill: lightgreen;"></circle><text text-anchor="middle" font-size="8" font-weight="bold" y="2.5" class="node-label">G</text></g><g class="noselect gnode" struct_name="m" transform="translate(238.38,101.34)" r="6.5"><circle class="node" r="6" node_type="nucleotide" style="fill: lightgreen;"></circle><text text-anchor="middle" font-size="8" font-weight="bold" y="2.5" class="node-label">A</text></g><g class="noselect gnode" struct_name="m" transform="translate(223.98,106.27)" r="6.5"><circle class="node" r="6" node_type="nucleotide" style="fill: lightgreen;"></circle><text text-anchor="middle" font-size="8" font-weight="bold" y="2.5" class="node-label">A</text></g><g class="noselect gnode" struct_name="m" transform="translate(211.19,113.17)" r="6.5"><circle class="node" r="6" node_type="nucleotide" style="fill: lightgreen;"></circle><text text-anchor="middle" font-size="8" font-weight="bold" y="2.5" class="node-label">C</text></g><g class="noselect gnode" struct_name="m" transform="translate(55.16,116.90)" r="6.5"><circle class="node label" r="6" node_type="label"></circle><text text-anchor="middle" font-size="8" font-weight="bold" y="2.5" class="node-label">10</text></g><g class="noselect gnode" struct_name="m" transform="translate(45.91,72.27)" r="6.5"><circle class="node label" r="6" node_type="label"></circle><text text-anchor="middle" font-size="8" font-weight="bold" y="2.5" class="node-label">20</text></g><g class="noselect gnode" struct_name="m" transform="translate(200.20,85.78)" r="6.5"><circle class="node label" r="6" node_type="label"></circle><text text-anchor="middle" font-size="8" font-weight="bold" y="2.5" class="node-label">30</text></g><g class="noselect gnode" struct_name="m" transform="translate(349.65,65.74)" r="6.5"><circle class="node label" r="6" node_type="label"></circle><text text-anchor="middle" font-size="8" font-weight="bold" y="2.5" class="node-label">40</text></g><g class="noselect gnode" struct_name="m" transform="translate(359.17,112.95)" r="6.5"><circle class="node label" r="6" node_type="label"></circle><text text-anchor="middle" font-size="8" font-weight="bold" y="2.5" class="node-label">50</text></g><g class="noselect gnode" struct_name="m" transform="translate(218.61,126.95)" r="6.5"><circle class="node label" r="6" node_type="label"></circle><text text-anchor="middle" font-size="8" font-weight="bold" y="2.5" class="node-label">60</text></g><g class="noselect gnode" transform="translate(338.58,87.03)" r="6.5"><circle class="node" r="0" node_type="middle"></circle><text text-anchor="middle" font-size="8" font-weight="bold" y="2.5" class="node-label"></text></g><g class="noselect gnode" transform="translate(354.61,89.50)" r="6.5"><circle class="node" r="0" node_type="middle"></circle><text text-anchor="middle" font-size="8" font-weight="bold" y="2.5" class="node-label"></text></g><g class="noselect gnode" transform="translate(59.28,92.31)" r="6.5"><circle class="node" r="0" node_type="middle"></circle><text text-anchor="middle" font-size="8" font-weight="bold" y="2.5" class="node-label"></text></g><g class="noselect gnode" transform="translate(43.60,96.53)" r="6.5"><circle class="node" r="0" node_type="middle"></circle><text text-anchor="middle" font-size="8" font-weight="bold" y="2.5" class="node-label"></text></g><g class="noselect gnode" transform="translate(27.80,99.85)" r="6.5"><circle class="node" r="0" node_type="middle"></circle><text text-anchor="middle" font-size="8" font-weight="bold" y="2.5" class="node-label"></text></g><g class="noselect gnode" transform="translate(174.18,103.90)" r="6.5"><circle class="node" r="0" node_type="middle"></circle><text text-anchor="middle" font-size="8" font-weight="bold" y="2.5" class="node-label"></text></g><g class="noselect gnode" transform="translate(158.96,98.85)" r="6.5"><circle class="node" r="0" node_type="middle"></circle><text text-anchor="middle" font-size="8" font-weight="bold" y="2.5" class="node-label"></text></g><g class="noselect gnode" transform="translate(143.21,95.46)" r="6.5"><circle class="node" r="0" node_type="middle"></circle><text text-anchor="middle" font-size="8" font-weight="bold" y="2.5" class="node-label"></text></g><g class="noselect gnode" transform="translate(127.30,93.04)" r="6.5"><circle class="node" r="0" node_type="middle"></circle><text text-anchor="middle" font-size="8" font-weight="bold" y="2.5" class="node-label"></text></g><g class="noselect gnode" transform="translate(111.43,91.12)" r="6.5"><circle class="node" r="0" node_type="middle"></circle><text text-anchor="middle" font-size="8" font-weight="bold" y="2.5" class="node-label"></text></g><g class="noselect gnode" transform="translate(95.45,89.14)" r="6.5"><circle class="node" r="0" node_type="middle"></circle><text text-anchor="middle" font-size="8" font-weight="bold" y="2.5" class="node-label"></text></g><g class="noselect gnode" transform="translate(213.71,102.74)" r="6.5"><circle class="node" r="0" node_type="middle"></circle><text text-anchor="middle" font-size="8" font-weight="bold" y="2.5" class="node-label"></text></g><g class="noselect gnode" transform="translate(228.63,96.53)" r="6.5"><circle class="node" r="0" node_type="middle"></circle><text text-anchor="middle" font-size="8" font-weight="bold" y="2.5" class="node-label"></text></g><g class="noselect gnode" transform="translate(244.13,92.15)" r="6.5"><circle class="node" r="0" node_type="middle"></circle><text text-anchor="middle" font-size="8" font-weight="bold" y="2.5" class="node-label"></text></g><g class="noselect gnode" transform="translate(259.94,89.12)" r="6.5"><circle class="node" r="0" node_type="middle"></circle><text text-anchor="middle" font-size="8" font-weight="bold" y="2.5" class="node-label"></text></g><g class="noselect gnode" transform="translate(275.79,86.91)" r="6.5"><circle class="node" r="0" node_type="middle"></circle><text text-anchor="middle" font-size="8" font-weight="bold" y="2.5" class="node-label"></text></g><g class="noselect gnode" transform="translate(291.69,84.98)" r="6.5"><circle class="node" r="0" node_type="middle"></circle><text text-anchor="middle" font-size="8" font-weight="bold" y="2.5" class="node-label"></text></g><g class="noselect gnode" transform="translate(206.84,128.43)" r="6.5"><circle class="node" r="0" node_type="middle"></circle><text text-anchor="middle" font-size="8" font-weight="bold" y="2.5" class="node-label"></text></g><g class="noselect gnode" transform="translate(197.19,136.15)" r="6.5"><circle class="node" r="0" node_type="middle"></circle><text text-anchor="middle" font-size="8" font-weight="bold" y="2.5" class="node-label"></text></g><g class="noselect gnode" transform="translate(194.22,116.42)" r="6.5"><circle class="node" r="0" node_type="middle"></circle><text text-anchor="middle" font-size="8" font-weight="bold" y="2.5" class="node-label"></text></g><g class="noselect gnode" transform="translate(385.80,91.53)" r="6.5"><circle class="node" r="0" node_type="middle"></circle><text text-anchor="middle" font-size="8" font-weight="bold" y="2.5" class="node-label"></text></g><g class="noselect gnode" transform="translate(4.45,103.90)" r="6.5"><circle class="node" r="0" node_type="middle"></circle><text text-anchor="middle" font-size="8" font-weight="bold" y="2.5" class="node-label"></text></g><g class="noselect gnode" transform="translate(315.32,81.20)" r="6.5"><circle class="node" r="0" node_type="middle"></circle><text text-anchor="middle" font-size="8" font-weight="bold" y="2.5" class="node-label"></text></g><g class="noselect gnode" transform="translate(76.95,85.79)" r="6.5"><circle class="node" r="0" node_type="middle"></circle><text text-anchor="middle" font-size="8" font-weight="bold" y="2.5" class="node-label"></text></g></g><line class="drag_line" x1="0" y1="0" x2="0" y2="0"></line></g></g></svg>