<svg xmlns="http://www.w3.org/2000/svg" viewBox="0 0 760 640" width="760" height="640"><style>svg {
  display: block;
  min-width: 100%;
  width: 100%;
  min-height: 100%;
}

circle.node {
  stroke: #ccc;
  stroke-width: 1px;
  opacity: 1;
  fill: white;
}

circle.node.label {
    stroke: transparent;
    stroke-width: 0;
    fill: white;
}

circle.outline_node {
    stroke-width: 1px;
    fill: red;
}

circle.protein {
    fill: gray;
    fill-opacity: 0.5;
    stroke-width: 4;
}

circle.hidden_outline {
    stroke-width: 0px;
}


line.link {
  stroke: #999;
  stroke-opacity: 0.8;
  stroke-width: 2;
}

line.basepair {
  stroke: red;
}

line.intermolecule {
  stroke: blue;
}

line.chain_chain {
  stroke-dasharray: 3,3;
}

line.fake {
  stroke: green;
}

.transparent {
    fill: transparent;
    stroke-width: 0;
    stroke-opacity: 0;
    opacity: 0;
    visibility: hidden;
}

.drag_line {
  stroke: #999;
  stroke-width: 2;
  pointer-events: none;
}

.drag_line_hidden {
  stroke: #999;
  stroke-width: 0;
  pointer-events: none;
}

.d3-tip {
    line-height: 1;
    font-weight: bold;
    padding: 6px;
    background: rgba(0, 0, 0, 0.6);
    color: #fff;
    border-radius: 4px;
    pointer-events: none;
          }

text.node-label {
    font-weight: bold;
    font-family: Tahoma, Geneva, sans-serif;
    color: rgb(100,100,100);
    pointer-events: none;
}

text {
    pointer-events: none;
}

g.gnode {

}

circle.outline_node.selected {
    visibility: visible;
}

circle.outline_node {
    visibility: hidden;
}

.brush .extent {
  fill-opacity: .1;
  stroke: #fff;
  shape-rendering: crispEdges;
}

.noselect {
    -webkit-touch-callout: none;
    -webkit-user-select: none;
    -khtml-user-select: none;
    -moz-user-select: none;
    -ms-user-select: none;
    user-select: none;
}

svg {
  display: block;
  min-width: 100%;
  width: 100%;
  min-height: 100%;
}

circle.node {
  stroke: #ccc;
  stroke-width: 1px;
  opacity: 1;
  fill: white;
}

circle.node.label {
    stroke: transparent;
    stroke-width: 0;
    fill: white;
}

circle.outline_node {
    stroke-width: 1px;
    fill: red;
}

circle.protein {
    fill: gray;
    fill-opacity: 0.5;
    stroke-width: 4;
}

circle.hidden_outline {
    stroke-width: 0px;
}


line.link {
  stroke: #999;
  stroke-opacity: 0.8;
  stroke-width: 2;
}

line.basepair {
  stroke: red;
}

line.intermolecule {
  stroke: blue;
}

line.chain_chain {
  stroke-dasharray: 3,3;
}

line.fake {
  stroke: green;
}

.transparent {
    fill: transparent;
    stroke-width: 0;
    stroke-opacity: 0;
    opacity: 0;
    visibility: hidden;
}

.drag_line {
  stroke: #999;
  stroke-width: 2;
  pointer-events: none;
}

.drag_line_hidden {
  stroke: #999;
  stroke-width: 0;
  pointer-events: none;
}

.d3-tip {
    line-height: 1;
    font-weight: bold;
    padding: 6px;
    background: rgba(0, 0, 0, 0.6);
    color: #fff;
    border-radius: 4px;
    pointer-events: none;
          }

text.node-label {
    font-weight: bold;
    font-family: Tahoma, Geneva, sans-serif;
    color: rgb(100,100,100);
    pointer-events: none;
}

text {
    pointer-events: none;
}

g.gnode {

}

circle.outline_node.selected {
    visibility: visible;
}

circle.outline_node {
    visibility: hidden;
}

.brush .extent {
  fill-opacity: .1;
  stroke: #fff;
  shape-rendering: crispEdges;
}

.noselect {
    -webkit-touch-callout: none;
    -webkit-user-select: none;
    -khtml-user-select: none;
    -moz-user-select: none;
    -ms-user-select: none;
    user-select: none;
}
/*# sourceURL=/Users/yumanakamura/ipy_sandbox/sandbox/claude_sandbox/mrna-transformer/scripts/eval/prerender/forna_vendor/fornac.css*/</style><style></style><g><g class="brush" style="pointer-events: all; -webkit-tap-highlight-color: rgba(0, 0, 0, 0);"><rect class="background" x="0" width="760" y="0" height="640" style="visibility: hidden; cursor: auto;"></rect><rect class="extent" x="0" width="0" y="0" height="0" style="cursor: move;"></rect><g class="resize n" transform="translate(0,0)" style="cursor: ns-resize; display: none;"><rect y="-3" width="0" height="6" style="visibility: hidden;"></rect></g><g class="resize e" transform="translate(0,0)" style="cursor: ew-resize; display: none;"><rect x="-3" width="6" height="0" style="visibility: hidden;"></rect></g><g class="resize s" transform="translate(0,0)" style="cursor: ns-resize; display: none;"><rect y="-3" width="0" height="6" style="visibility: hidden;"></rect></g><g class="resize w" transform="translate(0,0)" style="cursor: ew-resize; display: none;"><rect x="-3" width="6" height="0" style="visibility: hidden;"></rect></g><g class="resize nw" transform="translate(0,0)" style="cursor: nwse-resize; display: none;"><rect x="-3" y="-3" width="6" height="6" style="visibility: hidden;"></rect></g><g class="resize ne" transform="translate(0,0)" style="cursor: nesw-resize; display: none;"><rect x="-3" y="-3" width="6" height="6" style="visibility: hidden;"></rect></g><g class="resize se" transform="translate(0,0)" style="cursor: nwse-resize; display: none;"><rect x="-3" y="-3" width="6" height="6" style="visibility: hidden;"></rect></g><g class="resize sw" transform="translate(0,0)" style="cursor: nesw-resize; display: none;"><rect x="-3" y="-3" width="6" height="6" style="visibility: hidden;"></rect></g></g><g transform="translate(350.02,184.41) scale(1.20)"><g><line class="link backbone" x1="10.17" y1="311.18" x2="12.05" y2="296.38"></line><line class="link basepair" x1="23.10" y1="285.68" x2="38.06" y2="284.92"></line><line class="link backbone" x1="12.05" y1="296.38" x2="23.10" y2="285.68"></line><line class="link basepair" x1="22.54" y1="269.90" x2="37.22" y2="269.38"></line><line class="link backbone" x1="23.10" y1="285.68" x2="22.54" y2="269.90"></line><line class="link basepair" x1="22.16" y1="253.88" x2="36.82" y2="253.66"></line><line class="link backbone" x1="22.54" y1="269.90" x2="22.16" y2="253.88"></line><line class="link basepair" x1="21.94" y1="238.01" x2="36.78" y2="237.91"></line><line class="link backbone" x1="22.16" y1="253.88" x2="21.94" y2="238.01"></line><line class="link backbone" x1="21.94" y1="238.01" x2="11.04" y2="227.32"></line><line class="link backbone" x1="11.04" y1="227.32" x2="10.88" y2="212.39"></line><line class="link basepair" x1="21.55" y1="201.41" x2="36.36" y2="201.07"></line><line class="link backbone" x1="10.88" y1="212.39" x2="21.55" y2="201.41"></line><line class="link basepair" x1="21.03" y1="185.81" x2="35.60" y2="184.89"></line><line class="link backbone" x1="21.55" y1="201.41" x2="21.03" y2="185.81"></line><line class="link basepair" x1="19.66" y1="170.19" x2="34.07" y2="168.44"></line><line class="link backbone" x1="21.03" y1="185.81" x2="19.66" y2="170.19"></line><line class="link basepair" x1="17.23" y1="154.78" x2="31.55" y2="152.03"></line><line class="link backbone" x1="19.66" y1="170.19" x2="17.23" y2="154.78"></line><line class="link basepair" x1="13.77" y1="139.65" x2="27.87" y2="135.93"></line><line class="link backbone" x1="17.23" y1="154.78" x2="13.77" y2="139.65"></line><line class="link basepair" x1="9.31" y1="124.77" x2="23.00" y2="119.99"></line><line class="link backbone" x1="13.77" y1="139.65" x2="9.31" y2="124.77"></line><line class="link basepair" x1="3.53" y1="110.77" x2="16.76" y2="104.25"></line><line class="link backbone" x1="9.31" y1="124.77" x2="3.53" y2="110.77"></line><line class="link backbone" x1="3.53" y1="110.77" x2="-9.26" y2="102.91"></line><line class="link backbone" x1="-9.26" y1="102.91" x2="-9.04" y2="88.26"></line><line class="link basepair" x1="4.02" y1="80.75" x2="17.03" y2="87.66"></line><line class="link backbone" x1="-9.04" y1="88.26" x2="4.02" y2="80.75"></line><line class="link basepair" x1="10.31" y1="66.87" x2="23.76" y2="72.08"></line><line class="link backbone" x1="4.02" y1="80.75" x2="10.31" y2="66.87"></line><line class="link basepair" x1="15.42" y1="51.90" x2="29.22" y2="56.23"></line><line class="link backbone" x1="10.31" y1="66.87" x2="15.42" y2="51.90"></line><line class="link basepair" x1="19.90" y1="36.51" x2="33.80" y2="40.35"></line><line class="link backbone" x1="15.42" y1="51.90" x2="19.90" y2="36.51"></line><line class="link basepair" x1="23.75" y1="21.03" x2="38.17" y2="24.79"></line><line class="link backbone" x1="19.90" y1="36.51" x2="23.75" y2="21.03"></line><line class="link backbone" x1="23.75" y1="21.03" x2="14.69" y2="8.37"></line><line class="link backbone" x1="14.69" y1="8.37" x2="14.08" y2="-6.49"></line><line class="link basepair" x1="22.27" y1="-19.75" x2="36.48" y2="-24.14"></line><line class="link backbone" x1="14.08" y1="-6.49" x2="22.27" y2="-19.75"></line><line class="link basepair" x1="17.89" y1="-35.29" x2="31.91" y2="-39.19"></line><line class="link backbone" x1="22.27" y1="-19.75" x2="17.89" y2="-35.29"></line><line class="link basepair" x1="13.70" y1="-50.90" x2="27.91" y2="-54.49"></line><line class="link backbone" x1="17.89" y1="-35.29" x2="13.70" y2="-50.90"></line><line class="link basepair" x1="9.76" y1="-66.16" x2="24.41" y2="-69.65"></line><line class="link backbone" x1="13.70" y1="-50.90" x2="9.76" y2="-66.16"></line><line class="link backbone" x1="9.76" y1="-66.16" x2="1.57" y2="-79.46"></line><line class="link backbone" x1="1.57" y1="-79.46" x2="11.63" y2="-91.03"></line><line class="link backbone" x1="11.63" y1="-91.03" x2="25.77" y2="-85.18"></line><line class="link basepair" x1="24.41" y1="-69.65" x2="9.76" y2="-66.16"></line><line class="link backbone" x1="25.77" y1="-85.18" x2="24.41" y2="-69.65"></line><line class="link basepair" x1="27.91" y1="-54.49" x2="13.70" y2="-50.90"></line><line class="link backbone" x1="24.41" y1="-69.65" x2="27.91" y2="-54.49"></line><line class="link basepair" x1="31.91" y1="-39.19" x2="17.89" y2="-35.29"></line><line class="link backbone" x1="27.91" y1="-54.49" x2="31.91" y2="-39.19"></line><line class="link basepair" x1="36.48" y1="-24.14" x2="22.27" y2="-19.75"></line><line class="link backbone" x1="31.91" y1="-39.19" x2="36.48" y2="-24.14"></line><line class="link backbone" x1="36.48" y1="-24.14" x2="50.89" y2="-19.62"></line><line class="link backbone" x1="50.89" y1="-19.62" x2="60.46" y2="-8.26"></line><line class="link backbone" x1="60.46" y1="-8.26" x2="60.90" y2="6.90"></line><line class="link backbone" x1="60.90" y1="6.90" x2="52.25" y2="18.88"></line><line class="link basepair" x1="38.17" y1="24.79" x2="23.75" y2="21.03"></line><line class="link backbone" x1="52.25" y1="18.88" x2="38.17" y2="24.79"></line><line class="link basepair" x1="33.80" y1="40.35" x2="19.90" y2="36.51"></line><line class="link backbone" x1="38.17" y1="24.79" x2="33.80" y2="40.35"></line><line class="link basepair" x1="29.22" y1="56.23" x2="15.42" y2="51.90"></line><line class="link backbone" x1="33.80" y1="40.35" x2="29.22" y2="56.23"></line><line class="link basepair" x1="23.76" y1="72.08" x2="10.31" y2="66.87"></line><line class="link backbone" x1="29.22" y1="56.23" x2="23.76" y2="72.08"></line><line class="link basepair" x1="17.03" y1="87.66" x2="4.02" y2="80.75"></line><line class="link backbone" x1="23.76" y1="72.08" x2="17.03" y2="87.66"></line><line class="link basepair" x1="16.76" y1="104.25" x2="3.53" y2="110.77"></line><line class="link backbone" x1="17.03" y1="87.66" x2="16.76" y2="104.25"></line><line class="link basepair" x1="23.00" y1="119.99" x2="9.31" y2="124.77"></line><line class="link backbone" x1="16.76" y1="104.25" x2="23.00" y2="119.99"></line><line class="link basepair" x1="27.87" y1="135.93" x2="13.77" y2="139.65"></line><line class="link backbone" x1="23.00" y1="119.99" x2="27.87" y2="135.93"></line><line class="link basepair" x1="31.55" y1="152.03" x2="17.23" y2="154.78"></line><line class="link backbone" x1="27.87" y1="135.93" x2="31.55" y2="152.03"></line><line class="link basepair" x1="34.07" y1="168.44" x2="19.66" y2="170.19"></line><line class="link backbone" x1="31.55" y1="152.03" x2="34.07" y2="168.44"></line><line class="link basepair" x1="35.60" y1="184.89" x2="21.03" y2="185.81"></line><line class="link backbone" x1="34.07" y1="168.44" x2="35.60" y2="184.89"></line><line class="link basepair" x1="36.36" y1="201.07" x2="21.55" y2="201.41"></line><line class="link backbone" x1="35.60" y1="184.89" x2="36.36" y2="201.07"></line><line class="link backbone" x1="36.36" y1="201.07" x2="47.26" y2="211.93"></line><line class="link backbone" x1="47.26" y1="211.93" x2="47.45" y2="226.85"></line><line class="link basepair" x1="36.78" y1="237.91" x2="21.94" y2="238.01"></line><line class="link backbone" x1="47.45" y1="226.85" x2="36.78" y2="237.91"></line><line class="link basepair" x1="36.82" y1="253.66" x2="22.16" y2="253.88"></line><line class="link backbone" x1="36.78" y1="237.91" x2="36.82" y2="253.66"></line><line class="link basepair" x1="37.22" y1="269.38" x2="22.54" y2="269.90"></line><line class="link backbone" x1="36.82" y1="253.66" x2="37.22" y2="269.38"></line><line class="link basepair" x1="38.06" y1="284.92" x2="23.10" y2="285.68"></line><line class="link backbone" x1="37.22" y1="269.38" x2="38.06" y2="284.92"></line><line class="link backbone" x1="38.06" y1="284.92" x2="50.32" y2="294.11"></line><line class="link backbone" x1="50.32" y1="294.11" x2="54.06" y2="308.55"></line><line class="link backbone" x1="54.06" y1="308.55" x2="47.61" y2="322.15"></line><line class="link label_link" x1="21.03" y1="185.81" x2="5.65" y2="188.35"></line><line class="link label_link" x1="15.42" y1="51.90" x2="0.31" y2="47.93"></line><line class="link label_link" x1="11.63" y1="-91.03" x2="12.26" y2="-106.44"></line><line class="link label_link" x1="38.17" y1="24.79" x2="52.50" y2="30.87"></line><line class="link label_link" x1="35.60" y1="184.89" x2="51.22" y2="185.41"></line><line class="link label_link" x1="47.61" y1="322.15" x2="56.14" y2="335.02"></line><line class="link fake transparent" x1="21.55" y1="201.41" x2="28.81" y2="193.36"></line><line class="link fake transparent" x1="21.55" y1="201.41" x2="35.60" y2="184.89"></line><line class="link fake transparent" x1="21.03" y1="185.81" x2="28.81" y2="193.36"></line><line class="link fake transparent" x1="35.60" y1="184.89" x2="28.81" y2="193.36"></line><line class="link fake transparent" x1="36.36" y1="201.07" x2="28.81" y2="193.36"></line><line class="link fake transparent" x1="21.03" y1="185.81" x2="27.84" y2="177.31"></line><line class="link fake transparent" x1="19.66" y1="170.19" x2="27.84" y2="177.31"></line><line class="link fake transparent" x1="34.07" y1="168.44" x2="27.84" y2="177.31"></line><line class="link fake transparent" x1="35.60" y1="184.89" x2="27.84" y2="177.31"></line><line class="link fake transparent" x1="19.66" y1="170.19" x2="25.91" y2="161.29"></line><line class="link fake transparent" x1="17.23" y1="154.78" x2="25.91" y2="161.29"></line><line class="link fake transparent" x1="31.55" y1="152.03" x2="25.91" y2="161.29"></line><line class="link fake transparent" x1="34.07" y1="168.44" x2="25.91" y2="161.29"></line><line class="link fake transparent" x1="17.23" y1="154.78" x2="22.88" y2="145.54"></line><line class="link fake transparent" x1="13.77" y1="139.65" x2="22.88" y2="145.54"></line><line class="link fake transparent" x1="27.87" y1="135.93" x2="22.88" y2="145.54"></line><line class="link fake transparent" x1="31.55" y1="152.03" x2="22.88" y2="145.54"></line><line class="link fake transparent" x1="13.77" y1="139.65" x2="18.77" y2="130.03"></line><line class="link fake transparent" x1="9.31" y1="124.77" x2="18.77" y2="130.03"></line><line class="link fake transparent" x1="23.00" y1="119.99" x2="18.77" y2="130.03"></line><line class="link fake transparent" x1="27.87" y1="135.93" x2="18.77" y2="130.03"></line><line class="link fake transparent" x1="9.31" y1="124.77" x2="13.50" y2="114.82"></line><line class="link fake transparent" x1="3.53" y1="110.77" x2="13.50" y2="114.82"></line><line class="link fake transparent" x1="16.76" y1="104.25" x2="13.50" y2="114.82"></line><line class="link fake transparent" x1="23.00" y1="119.99" x2="13.50" y2="114.82"></line><line class="link fake transparent" x1="4.02" y1="80.75" x2="14.16" y2="77.04"></line><line class="link fake transparent" x1="10.31" y1="66.87" x2="14.16" y2="77.04"></line><line class="link fake transparent" x1="23.76" y1="72.08" x2="14.16" y2="77.04"></line><line class="link fake transparent" x1="17.03" y1="87.66" x2="14.16" y2="77.04"></line><line class="link fake transparent" x1="10.31" y1="66.87" x2="19.92" y2="61.85"></line><line class="link fake transparent" x1="15.42" y1="51.90" x2="19.92" y2="61.85"></line><line class="link fake transparent" x1="29.22" y1="56.23" x2="19.92" y2="61.85"></line><line class="link fake transparent" x1="23.76" y1="72.08" x2="19.92" y2="61.85"></line><line class="link fake transparent" x1="15.42" y1="51.90" x2="24.72" y2="46.29"></line><line class="link fake transparent" x1="19.90" y1="36.51" x2="24.72" y2="46.29"></line><line class="link fake transparent" x1="33.80" y1="40.35" x2="24.72" y2="46.29"></line><line class="link fake transparent" x1="29.22" y1="56.23" x2="24.72" y2="46.29"></line><line class="link fake transparent" x1="19.90" y1="36.51" x2="29.01" y2="30.61"></line><line class="link fake transparent" x1="23.75" y1="21.03" x2="29.01" y2="30.61"></line><line class="link fake transparent" x1="38.17" y1="24.79" x2="29.01" y2="30.61"></line><line class="link fake transparent" x1="33.80" y1="40.35" x2="29.01" y2="30.61"></line><line class="link fake transparent" x1="22.27" y1="-19.75" x2="27.07" y2="-29.48"></line><line class="link fake transparent" x1="17.89" y1="-35.29" x2="27.07" y2="-29.48"></line><line class="link fake transparent" x1="31.91" y1="-39.19" x2="27.07" y2="-29.48"></line><line class="link fake transparent" x1="36.48" y1="-24.14" x2="27.07" y2="-29.48"></line><line class="link fake transparent" x1="17.89" y1="-35.29" x2="22.74" y2="-44.98"></line><line class="link fake transparent" x1="13.70" y1="-50.90" x2="22.74" y2="-44.98"></line><line class="link fake transparent" x1="27.91" y1="-54.49" x2="22.74" y2="-44.98"></line><line class="link fake transparent" x1="31.91" y1="-39.19" x2="22.74" y2="-44.98"></line><line class="link fake transparent" x1="13.70" y1="-50.90" x2="18.86" y2="-60.40"></line><line class="link fake transparent" x1="9.76" y1="-66.16" x2="18.86" y2="-60.40"></line><line class="link fake transparent" x1="24.41" y1="-69.65" x2="18.86" y2="-60.40"></line><line class="link fake transparent" x1="27.91" y1="-54.49" x2="18.86" y2="-60.40"></line><line class="link fake transparent" x1="23.10" y1="285.68" x2="30.16" y2="277.57"></line><line class="link fake transparent" x1="22.54" y1="269.90" x2="30.16" y2="277.57"></line><line class="link fake transparent" x1="37.22" y1="269.38" x2="30.16" y2="277.57"></line><line class="link fake transparent" x1="38.06" y1="284.92" x2="30.16" y2="277.57"></line><line class="link fake transparent" x1="22.54" y1="269.90" x2="29.59" y2="261.74"></line><line class="link fake transparent" x1="22.16" y1="253.88" x2="29.59" y2="261.74"></line><line class="link fake transparent" x1="36.82" y1="253.66" x2="29.59" y2="261.74"></line><line class="link fake transparent" x1="37.22" y1="269.38" x2="29.59" y2="261.74"></line><line class="link fake transparent" x1="22.16" y1="253.88" x2="29.38" y2="245.87"></line><line class="link fake transparent" x1="21.94" y1="238.01" x2="29.38" y2="245.87"></line><line class="link fake transparent" x1="36.78" y1="237.91" x2="29.38" y2="245.87"></line><line class="link fake transparent" x1="36.82" y1="253.66" x2="29.38" y2="245.87"></line><line class="link fake transparent" x1="10.17" y1="311.18" x2="31.95" y2="306.06"></line><line class="link fake transparent" x1="10.17" y1="311.18" x2="50.32" y2="294.11"></line><line class="link fake transparent" x1="12.05" y1="296.38" x2="31.95" y2="306.06"></line><line class="link fake transparent" x1="12.05" y1="296.38" x2="54.06" y2="308.55"></line><line class="link fake transparent" x1="23.10" y1="285.68" x2="31.95" y2="306.06"></line><line class="link fake transparent" x1="23.10" y1="285.68" x2="47.61" y2="322.15"></line><line class="link fake transparent" x1="38.06" y1="284.92" x2="31.95" y2="306.06"></line><line class="link fake transparent" x1="38.06" y1="284.92" x2="34.72" y2="329.05"></line><line class="link fake transparent" x1="50.32" y1="294.11" x2="31.95" y2="306.06"></line><line class="link fake transparent" x1="50.32" y1="294.11" x2="19.90" y2="326.53"></line><line class="link fake transparent" x1="54.06" y1="308.55" x2="31.95" y2="306.06"></line><line class="link fake transparent" x1="54.06" y1="308.55" x2="10.17" y2="311.18"></line><line class="link fake transparent" x1="47.61" y1="322.15" x2="31.95" y2="306.06"></line><line class="link fake transparent" x1="47.61" y1="322.15" x2="12.05" y2="296.38"></line><line class="link fake transparent" x1="9.76" y1="-66.16" x2="14.63" y2="-78.26"></line><line class="link fake transparent" x1="9.76" y1="-66.16" x2="11.63" y2="-91.03"></line><line class="link fake transparent" x1="1.57" y1="-79.46" x2="14.63" y2="-78.26"></line><line class="link fake transparent" x1="1.57" y1="-79.46" x2="25.77" y2="-85.18"></line><line class="link fake transparent" x1="11.63" y1="-91.03" x2="14.63" y2="-78.26"></line><line class="link fake transparent" x1="11.63" y1="-91.03" x2="24.41" y2="-69.65"></line><line class="link fake transparent" x1="25.77" y1="-85.18" x2="14.63" y2="-78.26"></line><line class="link fake transparent" x1="25.77" y1="-85.18" x2="9.76" y2="-66.16"></line><line class="link fake transparent" x1="24.41" y1="-69.65" x2="14.63" y2="-78.26"></line><line class="link fake transparent" x1="24.41" y1="-69.65" x2="1.57" y2="-79.46"></line><line class="link fake transparent" x1="3.53" y1="110.77" x2="4.23" y2="95.75"></line><line class="link fake transparent" x1="3.53" y1="110.77" x2="4.02" y2="80.75"></line><line class="link fake transparent" x1="-9.26" y1="102.91" x2="4.23" y2="95.75"></line><line class="link fake transparent" x1="-9.26" y1="102.91" x2="17.03" y2="87.66"></line><line class="link fake transparent" x1="-9.04" y1="88.26" x2="4.23" y2="95.75"></line><line class="link fake transparent" x1="-9.04" y1="88.26" x2="16.76" y2="104.25"></line><line class="link fake transparent" x1="4.02" y1="80.75" x2="4.23" y2="95.75"></line><line class="link fake transparent" x1="4.02" y1="80.75" x2="3.53" y2="110.77"></line><line class="link fake transparent" x1="17.03" y1="87.66" x2="4.23" y2="95.75"></line><line class="link fake transparent" x1="17.03" y1="87.66" x2="-9.26" y2="102.91"></line><line class="link fake transparent" x1="16.76" y1="104.25" x2="4.23" y2="95.75"></line><line class="link fake transparent" x1="16.76" y1="104.25" x2="-9.04" y2="88.26"></line><line class="link fake transparent" x1="23.75" y1="21.03" x2="37.20" y2="0.21"></line><line class="link fake transparent" x1="23.75" y1="21.03" x2="50.89" y2="-19.62"></line><line class="link fake transparent" x1="14.69" y1="8.37" x2="37.20" y2="0.21"></line><line class="link fake transparent" x1="14.69" y1="8.37" x2="60.46" y2="-8.26"></line><line class="link fake transparent" x1="14.08" y1="-6.49" x2="37.20" y2="0.21"></line><line class="link fake transparent" x1="14.08" y1="-6.49" x2="60.90" y2="6.90"></line><line class="link fake transparent" x1="22.27" y1="-19.75" x2="37.20" y2="0.21"></line><line class="link fake transparent" x1="22.27" y1="-19.75" x2="52.25" y2="18.88"></line><line class="link fake transparent" x1="36.48" y1="-24.14" x2="37.20" y2="0.21"></line><line class="link fake transparent" x1="36.48" y1="-24.14" x2="38.17" y2="24.79"></line><line class="link fake transparent" x1="50.89" y1="-19.62" x2="37.20" y2="0.21"></line><line class="link fake transparent" x1="50.89" y1="-19.62" x2="23.75" y2="21.03"></line><line class="link fake transparent" x1="60.46" y1="-8.26" x2="37.20" y2="0.21"></line><line class="link fake transparent" x1="60.46" y1="-8.26" x2="14.69" y2="8.37"></line><line class="link fake transparent" x1="60.90" y1="6.90" x2="37.20" y2="0.21"></line><line class="link fake transparent" x1="60.90" y1="6.90" x2="14.08" y2="-6.49"></line><line class="link fake transparent" x1="52.25" y1="18.88" x2="37.20" y2="0.21"></line><line class="link fake transparent" x1="52.25" y1="18.88" x2="22.27" y2="-19.75"></line><line class="link fake transparent" x1="38.17" y1="24.79" x2="37.20" y2="0.21"></line><line class="link fake transparent" x1="38.17" y1="24.79" x2="36.48" y2="-24.14"></line><line class="link fake transparent" x1="21.94" y1="238.01" x2="29.19" y2="219.61"></line><line class="link fake transparent" x1="21.94" y1="238.01" x2="36.36" y2="201.07"></line><line class="link fake transparent" x1="11.04" y1="227.32" x2="29.19" y2="219.61"></line><line class="link fake transparent" x1="11.04" y1="227.32" x2="47.26" y2="211.93"></line><line class="link fake transparent" x1="10.88" y1="212.39" x2="29.19" y2="219.61"></line><line class="link fake transparent" x1="10.88" y1="212.39" x2="47.45" y2="226.85"></line><line class="link fake transparent" x1="21.55" y1="201.41" x2="29.19" y2="219.61"></line><line class="link fake transparent" x1="21.55" y1="201.41" x2="36.78" y2="237.91"></line><line class="link fake transparent" x1="36.36" y1="201.07" x2="29.19" y2="219.61"></line><line class="link fake transparent" x1="36.36" y1="201.07" x2="21.94" y2="238.01"></line><line class="link fake transparent" x1="47.26" y1="211.93" x2="29.19" y2="219.61"></line><line class="link fake transparent" x1="47.26" y1="211.93" x2="11.04" y2="227.32"></line><line class="link fake transparent" x1="47.45" y1="226.85" x2="29.19" y2="219.61"></line><line class="link fake transparent" x1="47.45" y1="226.85" x2="10.88" y2="212.39"></line><line class="link fake transparent" x1="36.78" y1="237.91" x2="29.19" y2="219.61"></line><line class="link fake transparent" x1="36.78" y1="237.91" x2="21.55" y2="201.41"></line></g><g><g class="noselect gnode" struct_name="m" transform="translate(10.17,311.18)" r="6.5"><circle class="node" r="6" node_type="nucleotide" style="fill: lightsalmon;"></circle><text text-anchor="middle" font-size="8" font-weight="bold" y="2.5" class="node-label">U</text></g><g class="noselect gnode" struct_name="m" transform="translate(12.05,296.38)" r="6.5"><circle class="node" r="6" node_type="nucleotide" style="fill: lightsalmon;"></circle><text text-anchor="middle" font-size="8" font-weight="bold" y="2.5" class="node-label">G</text></g><g class="noselect gnode" struct_name="m" transform="translate(23.10,285.68)" r="6.5"><circle class="node" r="6" node_type="nucleotide" style="fill: lightgreen;"></circle><text text-anchor="middle" font-size="8" font-weight="bold" y="2.5" class="node-label">G</text></g><g class="noselect gnode" struct_name="m" transform="translate(22.54,269.90)" r="6.5"><circle class="node" r="6" node_type="nucleotide" style="fill: lightgreen;"></circle><text text-anchor="middle" font-size="8" font-weight="bold" y="2.5" class="node-label">G</text></g><g class="noselect gnode" struct_name="m" transform="translate(22.16,253.88)" r="6.5"><circle class="node" r="6" node_type="nucleotide" style="fill: lightgreen;"></circle><text text-anchor="middle" font-size="8" font-weight="bold" y="2.5" class="node-label">A</text></g><g class="noselect gnode" struct_name="m" transform="translate(21.94,238.01)" r="6.5"><circle class="node" r="6" node_type="nucleotide" style="fill: lightgreen;"></circle><text text-anchor="middle" font-size="8" font-weight="bold" y="2.5" class="node-label">C</text></g><g class="noselect gnode" struct_name="m" transform="translate(11.04,227.32)" r="6.5"><circle class="node" r="6" node_type="nucleotide" style="fill: rgb(219, 219, 141);"></circle><text text-anchor="middle" font-size="8" font-weight="bold" y="2.5" class="node-label">A</text></g><g class="noselect gnode" struct_name="m" transform="translate(10.88,212.39)" r="6.5"><circle class="node" r="6" node_type="nucleotide" style="fill: rgb(219, 219, 141);"></circle><text text-anchor="middle" font-size="8" font-weight="bold" y="2.5" class="node-label">A</text></g><g class="noselect gnode" struct_name="m" transform="translate(21.55,201.41)" r="6.5"><circle class="node" r="6" node_type="nucleotide" style="fill: lightgreen;"></circle><text text-anchor="middle" font-size="8" font-weight="bold" y="2.5" class="node-label">C</text></g><g class="noselect gnode" struct_name="m" transform="translate(21.03,185.81)" r="6.5"><circle class="node" r="6" node_type="nucleotide" style="fill: lightgreen;"></circle><text text-anchor="middle" font-size="8" font-weight="bold" y="2.5" class="node-label">A</text></g><g class="noselect gnode" struct_name="m" transform="translate(19.66,170.19)" r="6.5"><circle class="node" r="6" node_type="nucleotide" style="fill: lightgreen;"></circle><text text-anchor="middle" font-size="8" font-weight="bold" y="2.5" class="node-label">G</text></g><g class="noselect gnode" struct_name="m" transform="translate(17.23,154.78)" r="6.5"><circle class="node" r="6" node_type="nucleotide" style="fill: lightgreen;"></circle><text text-anchor="middle" font-size="8" font-weight="bold" y="2.5" class="node-label">C</text></g><g class="noselect gnode" struct_name="m" transform="translate(13.77,139.65)" r="6.5"><circle class="node" r="6" node_type="nucleotide" style="fill: lightgreen;"></circle><text text-anchor="middle" font-size="8" font-weight="bold" y="2.5" class="node-label">A</text></g><g class="noselect gnode" struct_name="m" transform="translate(9.31,124.77)" r="6.5"><circle class="node" r="6" node_type="nucleotide" style="fill: lightgreen;"></circle><text text-anchor="middle" font-size="8" font-weight="bold" y="2.5" class="node-label">C</text></g><g class="noselect gnode" struct_name="m" transform="translate(3.53,110.77)" r="6.5"><circle class="node" r="6" node_type="nucleotide" style="fill: lightgreen;"></circle><text text-anchor="middle" font-size="8" font-weight="bold" y="2.5" class="node-label">C</text></g><g class="noselect gnode" struct_name="m" transform="translate(-9.26,102.91)" r="6.5"><circle class="node" r="6" node_type="nucleotide" style="fill: rgb(219, 219, 141);"></circle><text text-anchor="middle" font-size="8" font-weight="bold" y="2.5" class="node-label">A</text></g><g class="noselect gnode" struct_name="m" transform="translate(-9.04,88.26)" r="6.5"><circle class="node" r="6" node_type="nucleotide" style="fill: rgb(219, 219, 141);"></circle><text text-anchor="middle" font-size="8" font-weight="bold" y="2.5" class="node-label">U</text></g><g class="noselect gnode" struct_name="m" transform="translate(4.02,80.75)" r="6.5"><circle class="node" r="6" node_type="nucleotide" style="fill: lightgreen;"></circle><text text-anchor="middle" font-size="8" font-weight="bold" y="2.5" class="node-label">C</text></g><g class="noselect gnode" struct_name="m" transform="translate(10.31,66.87)" r="6.5"><circle class="node" r="6" node_type="nucleotide" style="fill: lightgreen;"></circle><text text-anchor="middle" font-size="8" font-weight="bold" y="2.5" class="node-label">A</text></g><g class="noselect gnode" struct_name="m" transform="translate(15.42,51.90)" r="6.5"><circle class="node" r="6" node_type="nucleotide" style="fill: lightgreen;"></circle><text text-anchor="middle" font-size="8" font-weight="bold" y="2.5" class="node-label">U</text></g><g class="noselect gnode" struct_name="m" transform="translate(19.90,36.51)" r="6.5"><circle class="node" r="6" node_type="nucleotide" style="fill: lightgreen;"></circle><text text-anchor="middle" font-size="8" font-weight="bold" y="2.5" class="node-label">G</text></g><g class="noselect gnode" struct_name="m" transform="translate(23.75,21.03)" r="6.5"><circle class="node" r="6" node_type="nucleotide" style="fill: lightgreen;"></circle><text text-anchor="middle" font-size="8" font-weight="bold" y="2.5" class="node-label">U</text></g><g class="noselect gnode" struct_name="m" transform="translate(14.69,8.37)" r="6.5"><circle class="node" r="6" node_type="nucleotide" style="fill: rgb(219, 219, 141);"></circle><text text-anchor="middle" font-size="8" font-weight="bold" y="2.5" class="node-label">A</text></g><g class="noselect gnode" struct_name="m" transform="translate(14.08,-6.49)" r="6.5"><circle class="node" r="6" node_type="nucleotide" style="fill: rgb(219, 219, 141);"></circle><text text-anchor="middle" font-size="8" font-weight="bold" y="2.5" class="node-label">U</text></g><g class="noselect gnode" struct_name="m" transform="translate(22.27,-19.75)" r="6.5"><circle class="node" r="6" node_type="nucleotide" style="fill: lightgreen;"></circle><text text-anchor="middle" font-size="8" font-weight="bold" y="2.5" class="node-label">U</text></g><g class="noselect gnode" struct_name="m" transform="translate(17.89,-35.29)" r="6.5"><circle class="node" r="6" node_type="nucleotide" style="fill: lightgreen;"></circle><text text-anchor="middle" font-size="8" font-weight="bold" y="2.5" class="node-label">G</text></g><g class="noselect gnode" struct_name="m" transform="translate(13.70,-50.90)" r="6.5"><circle class="node" r="6" node_type="nucleotide" style="fill: lightgreen;"></circle><text text-anchor="middle" font-size="8" font-weight="bold" y="2.5" class="node-label">C</text></g><g class="noselect gnode" struct_name="m" transform="translate(9.76,-66.16)" r="6.5"><circle class="node" r="6" node_type="nucleotide" style="fill: lightgreen;"></circle><text text-anchor="middle" font-size="8" font-weight="bold" y="2.5" class="node-label">A</text></g><g class="noselect gnode" struct_name="m" transform="translate(1.57,-79.46)" r="6.5"><circle class="node" r="6" node_type="nucleotide" style="fill: lightblue;"></circle><text text-anchor="middle" font-size="8" font-weight="bold" y="2.5" class="node-label">C</text></g><g class="noselect gnode" struct_name="m" transform="translate(11.63,-91.03)" r="6.5"><circle class="node" r="6" node_type="nucleotide" style="fill: lightblue;"></circle><text text-anchor="middle" font-size="8" font-weight="bold" y="2.5" class="node-label">U</text></g><g class="noselect gnode" struct_name="m" transform="translate(25.77,-85.18)" r="6.5"><circle class="node" r="6" node_type="nucleotide" style="fill: lightblue;"></circle><text text-anchor="middle" font-size="8" font-weight="bold" y="2.5" class="node-label">A</text></g><g class="noselect gnode" struct_name="m" transform="translate(24.41,-69.65)" r="6.5"><circle class="node" r="6" node_type="nucleotide" style="fill: lightgreen;"></circle><text text-anchor="middle" font-size="8" font-weight="bold" y="2.5" class="node-label">U</text></g><g class="noselect gnode" struct_name="m" transform="translate(27.91,-54.49)" r="6.5"><circle class="node" r="6" node_type="nucleotide" style="fill: lightgreen;"></circle><text text-anchor="middle" font-size="8" font-weight="bold" y="2.5" class="node-label">G</text></g><g class="noselect gnode" struct_name="m" transform="translate(31.91,-39.19)" r="6.5"><circle class="node" r="6" node_type="nucleotide" style="fill: lightgreen;"></circle><text text-anchor="middle" font-size="8" font-weight="bold" y="2.5" class="node-label">C</text></g><g class="noselect gnode" struct_name="m" transform="translate(36.48,-24.14)" r="6.5"><circle class="node" r="6" node_type="nucleotide" style="fill: lightgreen;"></circle><text text-anchor="middle" font-size="8" font-weight="bold" y="2.5" class="node-label">A</text></g><g class="noselect gnode" struct_name="m" transform="translate(50.89,-19.62)" r="6.5"><circle class="node" r="6" node_type="nucleotide" style="fill: rgb(219, 219, 141);"></circle><text text-anchor="middle" font-size="8" font-weight="bold" y="2.5" class="node-label">U</text></g><g class="noselect gnode" struct_name="m" transform="translate(60.46,-8.26)" r="6.5"><circle class="node" r="6" node_type="nucleotide" style="fill: rgb(219, 219, 141);"></circle><text text-anchor="middle" font-size="8" font-weight="bold" y="2.5" class="node-label">U</text></g><g class="noselect gnode" struct_name="m" transform="translate(60.90,6.90)" r="6.5"><circle class="node" r="6" node_type="nucleotide" style="fill: rgb(219, 219, 141);"></circle><text text-anchor="middle" font-size="8" font-weight="bold" y="2.5" class="node-label">U</text></g><g class="noselect gnode" struct_name="m" transform="translate(52.25,18.88)" r="6.5"><circle class="node" r="6" node_type="nucleotide" style="fill: rgb(219, 219, 141);"></circle><text text-anchor="middle" font-size="8" font-weight="bold" y="2.5" class="node-label">U</text></g><g class="noselect gnode" struct_name="m" transform="translate(38.17,24.79)" r="6.5"><circle class="node" r="6" node_type="nucleotide" style="fill: lightgreen;"></circle><text text-anchor="middle" font-size="8" font-weight="bold" y="2.5" class="node-label">G</text></g><g class="noselect gnode" struct_name="m" transform="translate(33.80,40.35)" r="6.5"><circle class="node" r="6" node_type="nucleotide" style="fill: lightgreen;"></circle><text text-anchor="middle" font-size="8" font-weight="bold" y="2.5" class="node-label">C</text></g><g class="noselect gnode" struct_name="m" transform="translate(29.22,56.23)" r="6.5"><circle class="node" r="6" node_type="nucleotide" style="fill: lightgreen;"></circle><text text-anchor="middle" font-size="8" font-weight="bold" y="2.5" class="node-label">A</text></g><g class="noselect gnode" struct_name="m" transform="translate(23.76,72.08)" r="6.5"><circle class="node" r="6" node_type="nucleotide" style="fill: lightgreen;"></circle><text text-anchor="middle" font-size="8" font-weight="bold" y="2.5" class="node-label">U</text></g><g class="noselect gnode" struct_name="m" transform="translate(17.03,87.66)" r="6.5"><circle class="node" r="6" node_type="nucleotide" style="fill: lightgreen;"></circle><text text-anchor="middle" font-size="8" font-weight="bold" y="2.5" class="node-label">G</text></g><g class="noselect gnode" struct_name="m" transform="translate(16.76,104.25)" r="6.5"><circle class="node" r="6" node_type="nucleotide" style="fill: lightgreen;"></circle><text text-anchor="middle" font-size="8" font-weight="bold" y="2.5" class="node-label">G</text></g><g class="noselect gnode" struct_name="m" transform="translate(23.00,119.99)" r="6.5"><circle class="node" r="6" node_type="nucleotide" style="fill: lightgreen;"></circle><text text-anchor="middle" font-size="8" font-weight="bold" y="2.5" class="node-label">G</text></g><g class="noselect gnode" struct_name="m" transform="translate(27.87,135.93)" r="6.5"><circle class="node" r="6" node_type="nucleotide" style="fill: lightgreen;"></circle><text text-anchor="middle" font-size="8" font-weight="bold" y="2.5" class="node-label">U</text></g><g class="noselect gnode" struct_name="m" transform="translate(31.55,152.03)" r="6.5"><circle class="node" r="6" node_type="nucleotide" style="fill: lightgreen;"></circle><text text-anchor="middle" font-size="8" font-weight="bold" y="2.5" class="node-label">G</text></g><g class="noselect gnode" struct_name="m" transform="translate(34.07,168.44)" r="6.5"><circle class="node" r="6" node_type="nucleotide" style="fill: lightgreen;"></circle><text text-anchor="middle" font-size="8" font-weight="bold" y="2.5" class="node-label">C</text></g><g class="noselect gnode" struct_name="m" transform="translate(35.60,184.89)" r="6.5"><circle class="node" r="6" node_type="nucleotide" style="fill: lightgreen;"></circle><text text-anchor="middle" font-size="8" font-weight="bold" y="2.5" class="node-label">U</text></g><g class="noselect gnode" struct_name="m" transform="translate(36.36,201.07)" r="6.5"><circle class="node" r="6" node_type="nucleotide" style="fill: lightgreen;"></circle><text text-anchor="middle" font-size="8" font-weight="bold" y="2.5" class="node-label">G</text></g><g class="noselect gnode" struct_name="m" transform="translate(47.26,211.93)" r="6.5"><circle class="node" r="6" node_type="nucleotide" style="fill: rgb(219, 219, 141);"></circle><text text-anchor="middle" font-size="8" font-weight="bold" y="2.5" class="node-label">G</text></g><g class="noselect gnode" struct_name="m" transform="translate(47.45,226.85)" r="6.5"><circle class="node" r="6" node_type="nucleotide" style="fill: rgb(219, 219, 141);"></circle><text text-anchor="middle" font-size="8" font-weight="bold" y="2.5" class="node-label">A</text></g><g class="noselect gnode" struct_name="m" transform="translate(36.78,237.91)" r="6.5"><circle class="node" r="6" node_type="nucleotide" style="fill: lightgreen;"></circle><text text-anchor="middle" font-size="8" font-weight="bold" y="2.5" class="node-label">G</text></g><g class="noselect gnode" struct_name="m" transform="translate(36.82,253.66)" r="6.5"><circle class="node" r="6" node_type="nucleotide" style="fill: lightgreen;"></circle><text text-anchor="middle" font-size="8" font-weight="bold" y="2.5" class="node-label">U</text></g><g class="noselect gnode" struct_name="m" transform="translate(37.22,269.38)" r="6.5"><circle class="node" r="6" node_type="nucleotide" style="fill: lightgreen;"></circle><text text-anchor="middle" font-size="8" font-weight="bold" y="2.5" class="node-label">C</text></g><g class="noselect gnode" struct_name="m" transform="translate(38.06,284.92)" r="6.5"><circle class="node" r="6" node_type="nucleotide" style="fill: lightgreen;"></circle><text text-anchor="middle" font-size="8" font-weight="bold" y="2.5" class="node-label">C</text></g><g class="noselect gnode" struct_name="m" transform="translate(50.32,294.11)" r="6.5"><circle class="node" r="6" node_type="nucleotide" style="fill: lightsalmon;"></circle><text text-anchor="middle" font-size="8" font-weight="bold" y="2.5" class="node-label">A</text></g><g class="noselect gnode" struct_name="m" transform="translate(54.06,308.55)" r="6.5"><circle class="node" r="6" node_type="nucleotide" style="fill: lightsalmon;"></circle><text text-anchor="middle" font-size="8" font-weight="bold" y="2.5" class="node-label">A</text></g><g class="noselect gnode" struct_name="m" transform="translate(47.61,322.15)" r="6.5"><circle class="node" r="6" node_type="nucleotide" style="fill: lightsalmon;"></circle><text text-anchor="middle" font-size="8" font-weight="bold" y="2.5" class="node-label">A</text></g><g class="noselect gnode" struct_name="m" transform="translate(5.65,188.35)" r="6.5"><circle class="node label" r="6" node_type="label"></circle><text text-anchor="middle" font-size="8" font-weight="bold" y="2.5" class="node-label">10</text></g><g class="noselect gnode" struct_name="m" transform="translate(0.31,47.93)" r="6.5"><circle class="node label" r="6" node_type="label"></circle><text text-anchor="middle" font-size="8" font-weight="bold" y="2.5" class="node-label">20</text></g><g class="noselect gnode" struct_name="m" transform="translate(12.26,-106.44)" r="6.5"><circle class="node label" r="6" node_type="label"></circle><text text-anchor="middle" font-size="8" font-weight="bold" y="2.5" class="node-label">30</text></g><g class="noselect gnode" struct_name="m" transform="translate(52.50,30.87)" r="6.5"><circle class="node label" r="6" node_type="label"></circle><text text-anchor="middle" font-size="8" font-weight="bold" y="2.5" class="node-label">40</text></g><g class="noselect gnode" struct_name="m" transform="translate(51.22,185.41)" r="6.5"><circle class="node label" r="6" node_type="label"></circle><text text-anchor="middle" font-size="8" font-weight="bold" y="2.5" class="node-label">50</text></g><g class="noselect gnode" struct_name="m" transform="translate(56.14,335.02)" r="6.5"><circle class="node label" r="6" node_type="label"></circle><text text-anchor="middle" font-size="8" font-weight="bold" y="2.5" class="node-label">60</text></g><g class="noselect gnode" transform="translate(28.81,193.36)" r="6.5"><circle class="node" r="0" node_type="middle"></circle><text text-anchor="middle" font-size="8" font-weight="bold" y="2.5" class="node-label"></text></g><g class="noselect gnode" transform="translate(27.84,177.31)" r="6.5"><circle class="node" r="0" node_type="middle"></circle><text text-anchor="middle" font-size="8" font-weight="bold" y="2.5" class="node-label"></text></g><g class="noselect gnode" transform="translate(25.91,161.29)" r="6.5"><circle class="node" r="0" node_type="middle"></circle><text text-anchor="middle" font-size="8" font-weight="bold" y="2.5" class="node-label"></text></g><g class="noselect gnode" transform="translate(22.88,145.54)" r="6.5"><circle class="node" r="0" node_type="middle"></circle><text text-anchor="middle" font-size="8" font-weight="bold" y="2.5" class="node-label"></text></g><g class="noselect gnode" transform="translate(18.77,130.03)" r="6.5"><circle class="node" r="0" node_type="middle"></circle><text text-anchor="middle" font-size="8" font-weight="bold" y="2.5" class="node-label"></text></g><g class="noselect gnode" transform="translate(13.50,114.82)" r="6.5"><circle class="node" r="0" node_type="middle"></circle><text text-anchor="middle" font-size="8" font-weight="bold" y="2.5" class="node-label"></text></g><g class="noselect gnode" transform="translate(14.16,77.04)" r="6.5"><circle class="node" r="0" node_type="middle"></circle><text text-anchor="middle" font-size="8" font-weight="bold" y="2.5" class="node-label"></text></g><g class="noselect gnode" transform="translate(19.92,61.85)" r="6.5"><circle class="node" r="0" node_type="middle"></circle><text text-anchor="middle" font-size="8" font-weight="bold" y="2.5" class="node-label"></text></g><g class="noselect gnode" transform="translate(24.72,46.29)" r="6.5"><circle class="node" r="0" node_type="middle"></circle><text text-anchor="middle" font-size="8" font-weight="bold" y="2.5" class="node-label"></text></g><g class="noselect gnode" transform="translate(29.01,30.61)" r="6.5"><circle class="node" r="0" node_type="middle"></circle><text text-anchor="middle" font-size="8" font-weight="bold" y="2.5" class="node-label"></text></g><g class="noselect gnode" transform="translate(27.07,-29.48)" r="6.5"><circle class="node" r="0" node_type="middle"></circle><text text-anchor="middle" font-size="8" font-weight="bold" y="2.5" class="node-label"></text></g><g class="noselect gnode" transform="translate(22.74,-44.98)" r="6.5"><circle class="node" r="0" node_type="middle"></circle><text text-anchor="middle" font-size="8" font-weight="bold" y="2.5" class="node-label"></text></g><g class="noselect gnode" transform="translate(18.86,-60.40)" r="6.5"><circle class="node" r="0" node_type="middle"></circle><text text-anchor="middle" font-size="8" font-weight="bold" y="2.5" class="node-label"></text></g><g class="noselect gnode" transform="translate(30.16,277.57)" r="6.5"><circle class="node" r="0" node_type="middle"></circle><text text-anchor="middle" font-size="8" font-weight="bold" y="2.5" class="node-label"></text></g><g class="noselect gnode" transform="translate(29.59,261.74)" r="6.5"><circle class="node" r="0" node_type="middle"></circle><text text-anchor="middle" font-size="8" font-weight="bold" y="2.5" class="node-label"></text></g><g class="noselect gnode" transform="translate(29.38,245.87)" r="6.5"><circle class="node" r="0" node_type="middle"></circle><text text-anchor="middle" font-size="8" font-weight="bold" y="2.5" class="node-label"></text></g><g class="noselect gnode" transform="translate(34.72,329.05)" r="6.5"><circle class="node" r="0" node_type="middle"></circle><text text-anchor="middle" font-size="8" font-weight="bold" y="2.5" class="node-label"></text></g><g class="noselect gnode" transform="translate(19.90,326.53)" r="6.5"><circle class="node" r="0" node_type="middle"></circle><text text-anchor="middle" font-size="8" font-weight="bold" y="2.5" class="node-label"></text></g><g class="noselect gnode" transform="translate(31.95,306.06)" r="6.5"><circle class="node" r="0" node_type="middle"></circle><text text-anchor="middle" font-size="8" font-weight="bold" y="2.5" class="node-label"></text></g><g class="noselect gnode" transform="translate(14.63,-78.26)" r="6.5"><circle class="node" r="0" node_type="middle"></circle><text text-anchor="middle" font-size="8" font-weight="bold" y="2.5" class="node-label"></text></g><g class="noselect gnode" transform="translate(4.23,95.75)" r="6.5"><circle class="node" r="0" node_type="middle"></circle><text text-anchor="middle" font-size="8" font-weight="bold" y="2.5" class="node-label"></text></g><g class="noselect gnode" transform="translate(37.20,0.21)" r="6.5"><circle class="node" r="0" node_type="middle"></circle><text text-anchor="middle" font-size="8" font-weight="bold" y="2.5" class="node-label"></text></g><g class="noselect gnode" transform="translate(29.19,219.61)" r="6.5"><circle class="node" r="0" node_type="middle"></circle><text text-anchor="middle" font-size="8" font-weight="bold" y="2.5" class="node-label"></text></g></g><line class="drag_line" x1="0" y1="0" x2="0" y2="0"></line></g></g></svg>