<svg xmlns="http://www.w3.org/2000/svg" viewBox="0 0 760 640" width="760" height="640"><style>svg {
  display: block;
  min-width: 100%;
  width: 100%;
  min-height: 100%;
}

circle.node {
  stroke: #ccc;
  stroke-width: 1px;
  opacity: 1;
  fill: white;
}

circle.node.label {
    stroke: transparent;
    stroke-width: 0;
    fill: white;
}

circle.outline_node {
    stroke-width: 1px;
    fill: red;
}

circle.protein {
    fill: gray;
    fill-opacity: 0.5;
    stroke-width: 4;
}

circle.hidden_outline {
    stroke-width: 0px;
}


line.link {
  stroke: #999;
  stroke-opacity: 0.8;
  stroke-width: 2;
}

line.basepair {
  stroke: red;
}

line.intermolecule {
  stroke: blue;
}

line.chain_chain {
  stroke-dasharray: 3,3;
}

line.fake {
  stroke: green;
}

.transparent {
    fill: transparent;
    stroke-width: 0;
    stroke-opacity: 0;
    opacity: 0;
    visibility: hidden;
}

.drag_line {
  stroke: #999;
  stroke-width: 2;
  pointer-events: none;
}

.drag_line_hidden {
  stroke: #999;
  stroke-width: 0;
  pointer-events: none;
}

.d3-tip {
    line-height: 1;
    font-weight: bold;
    padding: 6px;
    background: rgba(0, 0, 0, 0.6);
    color: #fff;
    border-radius: 4px;
    pointer-events: none;
          }

text.node-label {
    font-weight: bold;
    font-family: Tahoma, Geneva, sans-serif;
    color: rgb(100,100,100);
    pointer-events: none;
}

text {
    pointer-events: none;
}

g.gnode {

}

circle.outline_node.selected {
    visibility: visible;
}

circle.outline_node {
    visibility: hidden;
}

.brush .extent {
  fill-opacity: .1;
  stroke: #fff;
  shape-rendering: crispEdges;
}

.noselect {
    -webkit-touch-callout: none;
    -webkit-user-select: none;
    -khtml-user-select: none;
    -moz-user-select: none;
    -ms-user-select: none;
    user-select: none;
}

svg {
  display: block;
  min-width: 100%;
  width: 100%;
  min-height: 100%;
}

circle.node {
  stroke: #ccc;
  stroke-width: 1px;
  opacity: 1;
  fill: white;
}

circle.node.label {
    stroke: transparent;
    stroke-width: 0;
    fill: white;
}

circle.outline_node {
    stroke-width: 1px;
    fill: red;
}

circle.protein {
    fill: gray;
    fill-opacity: 0.5;
    stroke-width: 4;
}

circle.hidden_outline {
    stroke-width: 0px;
}


line.link {
  stroke: #999;
  stroke-opacity: 0.8;
  stroke-width: 2;
}

line.basepair {
  stroke: red;
}

line.intermolecule {
  stroke: blue;
}

line.chain_chain {
  stroke-dasharray: 3,3;
}

line.fake {
  stroke: green;
}

.transparent {
    fill: transparent;
    stroke-width: 0;
    stroke-opacity: 0;
    opacity: 0;
    visibility: hidden;
}

.drag_line {
  stroke: #999;
  stroke-width: 2;
  pointer-events: none;
}

.drag_line_hidden {
  stroke: #999;
  stroke-width: 0;
  pointer-events: none;
}

.d3-tip {
    line-height: 1;
    font-weight: bold;
    padding: 6px;
    background: rgba(0, 0, 0, 0.6);
    color: #fff;
    border-radius: 4px;
    pointer-events: none;
          }

text.node-label {
    font-weight: bold;
    font-family: Tahoma, Geneva, sans-serif;
    color: rgb(100,100,100);
    pointer-events: none;
}

text {
    pointer-events: none;
}

g.gnode {

}

circle.outline_node.selected {
    visibility: visible;
}

circle.outline_node {
    visibility: hidden;
}

.brush .extent {
  fill-opacity: .1;
  stroke: #fff;
  shape-rendering: crispEdges;
}

.noselect {
    -webkit-touch-callout: none;
    -webkit-user-select: none;
    -khtml-user-select: none;
    -moz-user-select: none;
    -ms-user-select: none;
    user-select: none;
}
/*# sourceURL=/Users/yumanakamura/ipy_sandbox/sandbox/claude_sandbox/mrna-transformer-worktrees/feat-issue57-switch-derna-knotty/scripts/eval/prerender/forna_vendor/fornac.css*/</style><style></style><g><g class="brush" style="pointer-events: all; -webkit-tap-highlight-color: rgba(0, 0, 0, 0);"><rect class="background" x="0" width="760" y="0" height="640" style="visibility: hidden; cursor: auto;"></rect><rect class="extent" x="0" width="0" y="0" height="0" style="cursor: move;"></rect><g class="resize n" transform="translate(0,0)" style="cursor: ns-resize; display: none;"><rect y="-3" width="0" height="6" style="visibility: hidden;"></rect></g><g class="resize e" transform="translate(0,0)" style="cursor: ew-resize; display: none;"><rect x="-3" width="6" height="0" style="visibility: hidden;"></rect></g><g class="resize s" transform="translate(0,0)" style="cursor: ns-resize; display: none;"><rect y="-3" width="0" height="6" style="visibility: hidden;"></rect></g><g class="resize w" transform="translate(0,0)" style="cursor: ew-resize; display: none;"><rect x="-3" width="6" height="0" style="visibility: hidden;"></rect></g><g class="resize nw" transform="translate(0,0)" style="cursor: nwse-resize; display: none;"><rect x="-3" y="-3" width="6" height="6" style="visibility: hidden;"></rect></g><g class="resize ne" transform="translate(0,0)" style="cursor: nesw-resize; display: none;"><rect x="-3" y="-3" width="6" height="6" style="visibility: hidden;"></rect></g><g class="resize se" transform="translate(0,0)" style="cursor: nwse-resize; display: none;"><rect x="-3" y="-3" width="6" height="6" style="visibility: hidden;"></rect></g><g class="resize sw" transform="translate(0,0)" style="cursor: nesw-resize; display: none;"><rect x="-3" y="-3" width="6" height="6" style="visibility: hidden;"></rect></g></g><g transform="translate(76.88,166.33) scale(1.77)"><g><line class="link backbone" x1="178.05" y1="145.55" x2="184.53" y2="131.79"></line><line class="link basepair" x1="196.64" y1="122.58" x2="210.01" y2="116.55"></line><line class="link backbone" x1="184.53" y1="131.79" x2="196.64" y2="122.58"></line><line class="link basepair" x1="188.78" y1="111.37" x2="199.25" y2="101.34"></line><line class="link backbone" x1="196.64" y1="122.58" x2="188.78" y2="111.37"></line><line class="link backbone" x1="188.78" y1="111.37" x2="174.16" y2="108.61"></line><line class="link basepair" x1="169.55" y1="94.48" x2="178.53" y2="82.92"></line><line class="link backbone" x1="174.16" y1="108.61" x2="169.55" y2="94.48"></line><line class="link basepair" x1="156.96" y1="86.48" x2="163.75" y2="73.74"></line><line class="link backbone" x1="169.55" y1="94.48" x2="156.96" y2="86.48"></line><line class="link basepair" x1="142.91" y1="80.28" x2="148.17" y2="66.76"></line><line class="link backbone" x1="156.96" y1="86.48" x2="142.91" y2="80.28"></line><line class="link basepair" x1="128.12" y1="75.29" x2="132.74" y2="61.28"></line><line class="link backbone" x1="142.91" y1="80.28" x2="128.12" y2="75.29"></line><line class="link backbone" x1="128.12" y1="75.29" x2="113.10" y2="78.57"></line><line class="link basepair" x1="102.89" y1="67.11" x2="107.55" y2="53.14"></line><line class="link backbone" x1="113.10" y1="78.57" x2="102.89" y2="67.11"></line><line class="link basepair" x1="87.47" y1="61.47" x2="92.71" y2="47.96"></line><line class="link backbone" x1="102.89" y1="67.11" x2="87.47" y2="61.47"></line><line class="link basepair" x1="72.15" y1="55.03" x2="78.22" y2="41.84"></line><line class="link backbone" x1="87.47" y1="61.47" x2="72.15" y2="55.03"></line><line class="link basepair" x1="57.28" y1="47.58" x2="64.24" y2="34.84"></line><line class="link backbone" x1="72.15" y1="55.03" x2="57.28" y2="47.58"></line><line class="link basepair" x1="43.00" y1="39.33" x2="51.16" y2="26.85"></line><line class="link backbone" x1="57.28" y1="47.58" x2="43.00" y2="39.33"></line><line class="link basepair" x1="27.37" y1="34.63" x2="27.39" y2="19.65"></line><line class="link backbone" x1="43.00" y1="39.33" x2="27.37" y2="34.63"></line><line class="link basepair" x1="11.67" y1="34.26" x2="12.23" y2="19.22"></line><line class="link backbone" x1="27.37" y1="34.63" x2="11.67" y2="34.26"></line><line class="link backbone" x1="11.67" y1="34.26" x2="-3.40" y2="38.53"></line><line class="link backbone" x1="-3.40" y1="38.53" x2="-11.80" y2="25.75"></line><line class="link backbone" x1="-11.80" y1="25.75" x2="-2.34" y2="13.69"></line><line class="link basepair" x1="12.23" y1="19.22" x2="11.67" y2="34.26"></line><line class="link backbone" x1="-2.34" y1="13.69" x2="12.23" y2="19.22"></line><line class="link basepair" x1="27.39" y1="19.65" x2="27.37" y2="34.63"></line><line class="link backbone" x1="12.23" y1="19.22" x2="27.39" y2="19.65"></line><line class="link backbone" x1="27.39" y1="19.65" x2="41.89" y2="14.47"></line><line class="link basepair" x1="51.16" y1="26.85" x2="43.00" y2="39.33"></line><line class="link backbone" x1="41.89" y1="14.47" x2="51.16" y2="26.85"></line><line class="link basepair" x1="64.24" y1="34.84" x2="57.28" y2="47.58"></line><line class="link backbone" x1="51.16" y1="26.85" x2="64.24" y2="34.84"></line><line class="link basepair" x1="78.22" y1="41.84" x2="72.15" y2="55.03"></line><line class="link backbone" x1="64.24" y1="34.84" x2="78.22" y2="41.84"></line><line class="link basepair" x1="92.71" y1="47.96" x2="87.47" y2="61.47"></line><line class="link backbone" x1="78.22" y1="41.84" x2="92.71" y2="47.96"></line><line class="link basepair" x1="107.55" y1="53.14" x2="102.89" y2="67.11"></line><line class="link backbone" x1="92.71" y1="47.96" x2="107.55" y2="53.14"></line><line class="link backbone" x1="107.55" y1="53.14" x2="122.47" y2="49.92"></line><line class="link basepair" x1="132.74" y1="61.28" x2="128.12" y2="75.29"></line><line class="link backbone" x1="122.47" y1="49.92" x2="132.74" y2="61.28"></line><line class="link basepair" x1="148.17" y1="66.76" x2="142.91" y2="80.28"></line><line class="link backbone" x1="132.74" y1="61.28" x2="148.17" y2="66.76"></line><line class="link basepair" x1="163.75" y1="73.74" x2="156.96" y2="86.48"></line><line class="link backbone" x1="148.17" y1="66.76" x2="163.75" y2="73.74"></line><line class="link basepair" x1="178.53" y1="82.92" x2="169.55" y2="94.48"></line><line class="link backbone" x1="163.75" y1="73.74" x2="178.53" y2="82.92"></line><line class="link backbone" x1="178.53" y1="82.92" x2="194.15" y2="86.06"></line><line class="link basepair" x1="199.25" y1="101.34" x2="188.78" y2="111.37"></line><line class="link backbone" x1="194.15" y1="86.06" x2="199.25" y2="101.34"></line><line class="link basepair" x1="210.01" y1="116.55" x2="196.64" y2="122.58"></line><line class="link backbone" x1="199.25" y1="101.34" x2="210.01" y2="116.55"></line><line class="link basepair" x1="226.75" y1="120.34" x2="236.53" y2="131.37"></line><line class="link backbone" x1="210.01" y1="116.55" x2="226.75" y2="120.34"></line><line class="link basepair" x1="242.41" y1="110.82" x2="248.53" y2="123.71"></line><line class="link backbone" x1="226.75" y1="120.34" x2="242.41" y2="110.82"></line><line class="link basepair" x1="259.06" y1="104.82" x2="262.86" y2="118.66"></line><line class="link backbone" x1="242.41" y1="110.82" x2="259.06" y2="104.82"></line><line class="link basepair" x1="275.88" y1="101.31" x2="278.06" y2="115.59"></line><line class="link backbone" x1="259.06" y1="104.82" x2="275.88" y2="101.31"></line><line class="link basepair" x1="292.59" y1="99.52" x2="293.56" y2="114.01"></line><line class="link backbone" x1="275.88" y1="101.31" x2="292.59" y2="99.52"></line><line class="link basepair" x1="309.09" y1="98.96" x2="309.16" y2="113.56"></line><line class="link backbone" x1="292.59" y1="99.52" x2="309.09" y2="98.96"></line><line class="link basepair" x1="325.09" y1="99.08" x2="324.70" y2="113.97"></line><line class="link backbone" x1="309.09" y1="98.96" x2="325.09" y2="99.08"></line><line class="link backbone" x1="325.09" y1="99.08" x2="338.71" y2="91.96"></line><line class="link backbone" x1="338.71" y1="91.96" x2="351.39" y2="99.96"></line><line class="link backbone" x1="351.39" y1="99.96" x2="350.84" y2="114.94"></line><line class="link backbone" x1="350.84" y1="114.94" x2="337.69" y2="122.07"></line><line class="link basepair" x1="324.70" y1="113.97" x2="325.09" y2="99.08"></line><line class="link backbone" x1="337.69" y1="122.07" x2="324.70" y2="113.97"></line><line class="link basepair" x1="309.16" y1="113.56" x2="309.09" y2="98.96"></line><line class="link backbone" x1="324.70" y1="113.97" x2="309.16" y2="113.56"></line><line class="link basepair" x1="293.56" y1="114.01" x2="292.59" y2="99.52"></line><line class="link backbone" x1="309.16" y1="113.56" x2="293.56" y2="114.01"></line><line class="link basepair" x1="278.06" y1="115.59" x2="275.88" y2="101.31"></line><line class="link backbone" x1="293.56" y1="114.01" x2="278.06" y2="115.59"></line><line class="link basepair" x1="262.86" y1="118.66" x2="259.06" y2="104.82"></line><line class="link backbone" x1="278.06" y1="115.59" x2="262.86" y2="118.66"></line><line class="link basepair" x1="248.53" y1="123.71" x2="242.41" y2="110.82"></line><line class="link backbone" x1="262.86" y1="118.66" x2="248.53" y2="123.71"></line><line class="link basepair" x1="236.53" y1="131.37" x2="226.75" y2="120.34"></line><line class="link backbone" x1="248.53" y1="123.71" x2="236.53" y2="131.37"></line><line class="link backbone" x1="236.53" y1="131.37" x2="243.69" y2="145.03"></line><line class="link backbone" x1="243.69" y1="145.03" x2="243.82" y2="160.32"></line><line class="link backbone" x1="243.82" y1="160.32" x2="237.27" y2="173.84"></line><line class="link backbone" x1="237.27" y1="173.84" x2="225.39" y2="183.26"></line><line class="link backbone" x1="225.39" y1="183.26" x2="210.43" y2="184.61"></line><line class="link backbone" x1="210.43" y1="184.61" x2="196.16" y2="181.05"></line><line class="link label_link" x1="113.10" y1="78.57" x2="106.78" y2="92.84"></line><line class="link label_link" x1="-2.34" y1="13.69" x2="-9.47" y2="-0.02"></line><line class="link label_link" x1="132.74" y1="61.28" x2="139.57" y2="47.25"></line><line class="link label_link" x1="275.88" y1="101.31" x2="275.56" y2="85.70"></line><line class="link label_link" x1="293.56" y1="114.01" x2="299.04" y2="128.61"></line><line class="link label_link" x1="196.16" y1="181.05" x2="189.39" y2="194.98"></line><line class="link fake transparent" x1="102.89" y1="67.11" x2="97.59" y2="57.63"></line><line class="link fake transparent" x1="102.89" y1="67.11" x2="92.71" y2="47.96"></line><line class="link fake transparent" x1="87.47" y1="61.47" x2="97.59" y2="57.63"></line><line class="link fake transparent" x1="92.71" y1="47.96" x2="97.59" y2="57.63"></line><line class="link fake transparent" x1="107.55" y1="53.14" x2="97.59" y2="57.63"></line><line class="link fake transparent" x1="87.47" y1="61.47" x2="82.51" y2="51.82"></line><line class="link fake transparent" x1="72.15" y1="55.03" x2="82.51" y2="51.82"></line><line class="link fake transparent" x1="78.22" y1="41.84" x2="82.51" y2="51.82"></line><line class="link fake transparent" x1="92.71" y1="47.96" x2="82.51" y2="51.82"></line><line class="link fake transparent" x1="72.15" y1="55.03" x2="67.83" y2="45.07"></line><line class="link fake transparent" x1="57.28" y1="47.58" x2="67.83" y2="45.07"></line><line class="link fake transparent" x1="64.24" y1="34.84" x2="67.83" y2="45.07"></line><line class="link fake transparent" x1="78.22" y1="41.84" x2="67.83" y2="45.07"></line><line class="link fake transparent" x1="57.28" y1="47.58" x2="53.69" y2="37.36"></line><line class="link fake transparent" x1="43.00" y1="39.33" x2="53.69" y2="37.36"></line><line class="link fake transparent" x1="51.16" y1="26.85" x2="53.69" y2="37.36"></line><line class="link fake transparent" x1="64.24" y1="34.84" x2="53.69" y2="37.36"></line><line class="link fake transparent" x1="27.37" y1="34.63" x2="19.61" y2="27.02"></line><line class="link fake transparent" x1="11.67" y1="34.26" x2="19.61" y2="27.02"></line><line class="link fake transparent" x1="12.23" y1="19.22" x2="19.61" y2="27.02"></line><line class="link fake transparent" x1="27.39" y1="19.65" x2="19.61" y2="27.02"></line><line class="link fake transparent" x1="196.64" y1="122.58" x2="199.53" y2="112.28"></line><line class="link fake transparent" x1="188.78" y1="111.37" x2="199.53" y2="112.28"></line><line class="link fake transparent" x1="199.25" y1="101.34" x2="199.53" y2="112.28"></line><line class="link fake transparent" x1="210.01" y1="116.55" x2="199.53" y2="112.28"></line><line class="link fake transparent" x1="169.55" y1="94.48" x2="167.55" y2="83.83"></line><line class="link fake transparent" x1="156.96" y1="86.48" x2="167.55" y2="83.83"></line><line class="link fake transparent" x1="163.75" y1="73.74" x2="167.55" y2="83.83"></line><line class="link fake transparent" x1="178.53" y1="82.92" x2="167.55" y2="83.83"></line><line class="link fake transparent" x1="156.96" y1="86.48" x2="153.14" y2="76.36"></line><line class="link fake transparent" x1="142.91" y1="80.28" x2="153.14" y2="76.36"></line><line class="link fake transparent" x1="148.17" y1="66.76" x2="153.14" y2="76.36"></line><line class="link fake transparent" x1="163.75" y1="73.74" x2="153.14" y2="76.36"></line><line class="link fake transparent" x1="142.91" y1="80.28" x2="138.08" y2="70.71"></line><line class="link fake transparent" x1="128.12" y1="75.29" x2="138.08" y2="70.71"></line><line class="link fake transparent" x1="132.74" y1="61.28" x2="138.08" y2="70.71"></line><line class="link fake transparent" x1="148.17" y1="66.76" x2="138.08" y2="70.71"></line><line class="link fake transparent" x1="226.75" y1="120.34" x2="238.08" y2="120.67"></line><line class="link fake transparent" x1="242.41" y1="110.82" x2="238.08" y2="120.67"></line><line class="link fake transparent" x1="248.53" y1="123.71" x2="238.08" y2="120.67"></line><line class="link fake transparent" x1="236.53" y1="131.37" x2="238.08" y2="120.67"></line><line class="link fake transparent" x1="242.41" y1="110.82" x2="253.00" y2="113.84"></line><line class="link fake transparent" x1="259.06" y1="104.82" x2="253.00" y2="113.84"></line><line class="link fake transparent" x1="262.86" y1="118.66" x2="253.00" y2="113.84"></line><line class="link fake transparent" x1="248.53" y1="123.71" x2="253.00" y2="113.84"></line><line class="link fake transparent" x1="259.06" y1="104.82" x2="268.88" y2="109.62"></line><line class="link fake transparent" x1="275.88" y1="101.31" x2="268.88" y2="109.62"></line><line class="link fake transparent" x1="278.06" y1="115.59" x2="268.88" y2="109.62"></line><line class="link fake transparent" x1="262.86" y1="118.66" x2="268.88" y2="109.62"></line><line class="link fake transparent" x1="275.88" y1="101.31" x2="285.01" y2="107.26"></line><line class="link fake transparent" x1="292.59" y1="99.52" x2="285.01" y2="107.26"></line><line class="link fake transparent" x1="293.56" y1="114.01" x2="285.01" y2="107.26"></line><line class="link fake transparent" x1="278.06" y1="115.59" x2="285.01" y2="107.26"></line><line class="link fake transparent" x1="292.59" y1="99.52" x2="301.14" y2="106.23"></line><line class="link fake transparent" x1="309.09" y1="98.96" x2="301.14" y2="106.23"></line><line class="link fake transparent" x1="309.16" y1="113.56" x2="301.14" y2="106.23"></line><line class="link fake transparent" x1="293.56" y1="114.01" x2="301.14" y2="106.23"></line><line class="link fake transparent" x1="309.09" y1="98.96" x2="317.08" y2="106.25"></line><line class="link fake transparent" x1="325.09" y1="99.08" x2="317.08" y2="106.25"></line><line class="link fake transparent" x1="324.70" y1="113.97" x2="317.08" y2="106.25"></line><line class="link fake transparent" x1="309.16" y1="113.56" x2="317.08" y2="106.25"></line><line class="link fake transparent" x1="178.05" y1="145.55" x2="211.38" y2="151.50"></line><line class="link fake transparent" x1="178.05" y1="145.55" x2="243.82" y2="160.32"></line><line class="link fake transparent" x1="184.53" y1="131.79" x2="211.38" y2="151.50"></line><line class="link fake transparent" x1="184.53" y1="131.79" x2="237.27" y2="173.84"></line><line class="link fake transparent" x1="196.64" y1="122.58" x2="211.38" y2="151.50"></line><line class="link fake transparent" x1="196.64" y1="122.58" x2="225.39" y2="183.26"></line><line class="link fake transparent" x1="210.01" y1="116.55" x2="211.38" y2="151.50"></line><line class="link fake transparent" x1="210.01" y1="116.55" x2="210.43" y2="184.61"></line><line class="link fake transparent" x1="226.75" y1="120.34" x2="211.38" y2="151.50"></line><line class="link fake transparent" x1="226.75" y1="120.34" x2="196.16" y2="181.05"></line><line class="link fake transparent" x1="236.53" y1="131.37" x2="211.38" y2="151.50"></line><line class="link fake transparent" x1="236.53" y1="131.37" x2="183.39" y2="173.55"></line><line class="link fake transparent" x1="243.69" y1="145.03" x2="211.38" y2="151.50"></line><line class="link fake transparent" x1="243.69" y1="145.03" x2="177.16" y2="159.26"></line><line class="link fake transparent" x1="243.82" y1="160.32" x2="211.38" y2="151.50"></line><line class="link fake transparent" x1="243.82" y1="160.32" x2="178.05" y2="145.55"></line><line class="link fake transparent" x1="237.27" y1="173.84" x2="211.38" y2="151.50"></line><line class="link fake transparent" x1="237.27" y1="173.84" x2="184.53" y2="131.79"></line><line class="link fake transparent" x1="225.39" y1="183.26" x2="211.38" y2="151.50"></line><line class="link fake transparent" x1="225.39" y1="183.26" x2="196.64" y2="122.58"></line><line class="link fake transparent" x1="210.43" y1="184.61" x2="211.38" y2="151.50"></line><line class="link fake transparent" x1="210.43" y1="184.61" x2="210.01" y2="116.55"></line><line class="link fake transparent" x1="196.16" y1="181.05" x2="211.38" y2="151.50"></line><line class="link fake transparent" x1="196.16" y1="181.05" x2="226.75" y2="120.34"></line><line class="link fake transparent" x1="11.67" y1="34.26" x2="1.29" y2="26.28"></line><line class="link fake transparent" x1="11.67" y1="34.26" x2="-11.80" y2="25.75"></line><line class="link fake transparent" x1="-3.40" y1="38.53" x2="1.29" y2="26.28"></line><line class="link fake transparent" x1="-3.40" y1="38.53" x2="-2.34" y2="13.69"></line><line class="link fake transparent" x1="-11.80" y1="25.75" x2="1.29" y2="26.28"></line><line class="link fake transparent" x1="-11.80" y1="25.75" x2="12.23" y2="19.22"></line><line class="link fake transparent" x1="-2.34" y1="13.69" x2="1.29" y2="26.28"></line><line class="link fake transparent" x1="-2.34" y1="13.69" x2="11.67" y2="34.26"></line><line class="link fake transparent" x1="12.23" y1="19.22" x2="1.29" y2="26.28"></line><line class="link fake transparent" x1="12.23" y1="19.22" x2="-3.40" y2="38.53"></line><line class="link fake transparent" x1="325.09" y1="99.08" x2="338.03" y2="106.99"></line><line class="link fake transparent" x1="325.09" y1="99.08" x2="350.84" y2="114.94"></line><line class="link fake transparent" x1="338.71" y1="91.96" x2="338.03" y2="106.99"></line><line class="link fake transparent" x1="338.71" y1="91.96" x2="337.69" y2="122.07"></line><line class="link fake transparent" x1="351.39" y1="99.96" x2="338.03" y2="106.99"></line><line class="link fake transparent" x1="351.39" y1="99.96" x2="324.70" y2="113.97"></line><line class="link fake transparent" x1="350.84" y1="114.94" x2="338.03" y2="106.99"></line><line class="link fake transparent" x1="350.84" y1="114.94" x2="325.09" y2="99.08"></line><line class="link fake transparent" x1="337.69" y1="122.07" x2="338.03" y2="106.99"></line><line class="link fake transparent" x1="337.69" y1="122.07" x2="338.71" y2="91.96"></line><line class="link fake transparent" x1="324.70" y1="113.97" x2="338.03" y2="106.99"></line><line class="link fake transparent" x1="324.70" y1="113.97" x2="351.39" y2="99.96"></line><line class="link fake transparent" x1="43.00" y1="39.33" x2="38.10" y2="27.19"></line><line class="link fake transparent" x1="43.00" y1="39.33" x2="27.39" y2="19.65"></line><line class="link fake transparent" x1="27.37" y1="34.63" x2="38.10" y2="27.19"></line><line class="link fake transparent" x1="27.37" y1="34.63" x2="41.89" y2="14.47"></line><line class="link fake transparent" x1="27.39" y1="19.65" x2="38.10" y2="27.19"></line><line class="link fake transparent" x1="27.39" y1="19.65" x2="51.16" y2="26.85"></line><line class="link fake transparent" x1="41.89" y1="14.47" x2="38.10" y2="27.19"></line><line class="link fake transparent" x1="41.89" y1="14.47" x2="43.00" y2="39.33"></line><line class="link fake transparent" x1="51.16" y1="26.85" x2="38.10" y2="27.19"></line><line class="link fake transparent" x1="51.16" y1="26.85" x2="27.37" y2="34.63"></line><line class="link fake transparent" x1="188.78" y1="111.37" x2="184.37" y2="97.09"></line><line class="link fake transparent" x1="188.78" y1="111.37" x2="178.53" y2="82.92"></line><line class="link fake transparent" x1="174.16" y1="108.61" x2="184.37" y2="97.09"></line><line class="link fake transparent" x1="174.16" y1="108.61" x2="194.15" y2="86.06"></line><line class="link fake transparent" x1="169.55" y1="94.48" x2="184.37" y2="97.09"></line><line class="link fake transparent" x1="169.55" y1="94.48" x2="199.25" y2="101.34"></line><line class="link fake transparent" x1="178.53" y1="82.92" x2="184.37" y2="97.09"></line><line class="link fake transparent" x1="178.53" y1="82.92" x2="188.78" y2="111.37"></line><line class="link fake transparent" x1="194.15" y1="86.06" x2="184.37" y2="97.09"></line><line class="link fake transparent" x1="194.15" y1="86.06" x2="174.16" y2="108.61"></line><line class="link fake transparent" x1="199.25" y1="101.34" x2="184.37" y2="97.09"></line><line class="link fake transparent" x1="199.25" y1="101.34" x2="169.55" y2="94.48"></line><line class="link fake transparent" x1="128.12" y1="75.29" x2="117.81" y2="64.27"></line><line class="link fake transparent" x1="128.12" y1="75.29" x2="107.55" y2="53.14"></line><line class="link fake transparent" x1="113.10" y1="78.57" x2="117.81" y2="64.27"></line><line class="link fake transparent" x1="113.10" y1="78.57" x2="122.47" y2="49.92"></line><line class="link fake transparent" x1="102.89" y1="67.11" x2="117.81" y2="64.27"></line><line class="link fake transparent" x1="102.89" y1="67.11" x2="132.74" y2="61.28"></line><line class="link fake transparent" x1="107.55" y1="53.14" x2="117.81" y2="64.27"></line><line class="link fake transparent" x1="107.55" y1="53.14" x2="128.12" y2="75.29"></line><line class="link fake transparent" x1="122.47" y1="49.92" x2="117.81" y2="64.27"></line><line class="link fake transparent" x1="122.47" y1="49.92" x2="113.10" y2="78.57"></line><line class="link fake transparent" x1="132.74" y1="61.28" x2="117.81" y2="64.27"></line><line class="link fake transparent" x1="132.74" y1="61.28" x2="102.89" y2="67.11"></line></g><g><g class="noselect gnode" struct_name="m" transform="translate(178.05,145.55)" r="6.5"><circle class="node" r="6" node_type="nucleotide" style="fill: lightsalmon;"></circle><text text-anchor="middle" font-size="8" font-weight="bold" y="2.5" class="node-label">U</text></g><g class="noselect gnode" struct_name="m" transform="translate(184.53,131.79)" r="6.5"><circle class="node" r="6" node_type="nucleotide" style="fill: lightsalmon;"></circle><text text-anchor="middle" font-size="8" font-weight="bold" y="2.5" class="node-label">C</text></g><g class="noselect gnode" struct_name="m" transform="translate(196.64,122.58)" r="6.5"><circle class="node" r="6" node_type="nucleotide" style="fill: lightgreen;"></circle><text text-anchor="middle" font-size="8" font-weight="bold" y="2.5" class="node-label">G</text></g><g class="noselect gnode" struct_name="m" transform="translate(188.78,111.37)" r="6.5"><circle class="node" r="6" node_type="nucleotide" style="fill: lightgreen;"></circle><text text-anchor="middle" font-size="8" font-weight="bold" y="2.5" class="node-label">U</text></g><g class="noselect gnode" struct_name="m" transform="translate(174.16,108.61)" r="6.5"><circle class="node" r="6" node_type="nucleotide" style="fill: rgb(219, 219, 141);"></circle><text text-anchor="middle" font-size="8" font-weight="bold" y="2.5" class="node-label">U</text></g><g class="noselect gnode" struct_name="m" transform="translate(169.55,94.48)" r="6.5"><circle class="node" r="6" node_type="nucleotide" style="fill: lightgreen;"></circle><text text-anchor="middle" font-size="8" font-weight="bold" y="2.5" class="node-label">C</text></g><g class="noselect gnode" struct_name="m" transform="translate(156.96,86.48)" r="6.5"><circle class="node" r="6" node_type="nucleotide" style="fill: lightgreen;"></circle><text text-anchor="middle" font-size="8" font-weight="bold" y="2.5" class="node-label">A</text></g><g class="noselect gnode" struct_name="m" transform="translate(142.91,80.28)" r="6.5"><circle class="node" r="6" node_type="nucleotide" style="fill: lightgreen;"></circle><text text-anchor="middle" font-size="8" font-weight="bold" y="2.5" class="node-label">U</text></g><g class="noselect gnode" struct_name="m" transform="translate(128.12,75.29)" r="6.5"><circle class="node" r="6" node_type="nucleotide" style="fill: lightgreen;"></circle><text text-anchor="middle" font-size="8" font-weight="bold" y="2.5" class="node-label">G</text></g><g class="noselect gnode" struct_name="m" transform="translate(113.10,78.57)" r="6.5"><circle class="node" r="6" node_type="nucleotide" style="fill: rgb(219, 219, 141);"></circle><text text-anchor="middle" font-size="8" font-weight="bold" y="2.5" class="node-label">G</text></g><g class="noselect gnode" struct_name="m" transform="translate(102.89,67.11)" r="6.5"><circle class="node" r="6" node_type="nucleotide" style="fill: lightgreen;"></circle><text text-anchor="middle" font-size="8" font-weight="bold" y="2.5" class="node-label">A</text></g><g class="noselect gnode" struct_name="m" transform="translate(87.47,61.47)" r="6.5"><circle class="node" r="6" node_type="nucleotide" style="fill: lightgreen;"></circle><text text-anchor="middle" font-size="8" font-weight="bold" y="2.5" class="node-label">G</text></g><g class="noselect gnode" struct_name="m" transform="translate(72.15,55.03)" r="6.5"><circle class="node" r="6" node_type="nucleotide" style="fill: lightgreen;"></circle><text text-anchor="middle" font-size="8" font-weight="bold" y="2.5" class="node-label">U</text></g><g class="noselect gnode" struct_name="m" transform="translate(57.28,47.58)" r="6.5"><circle class="node" r="6" node_type="nucleotide" style="fill: lightgreen;"></circle><text text-anchor="middle" font-size="8" font-weight="bold" y="2.5" class="node-label">A</text></g><g class="noselect gnode" struct_name="m" transform="translate(43.00,39.33)" r="6.5"><circle class="node" r="6" node_type="nucleotide" style="fill: lightgreen;"></circle><text text-anchor="middle" font-size="8" font-weight="bold" y="2.5" class="node-label">C</text></g><g class="noselect gnode" struct_name="m" transform="translate(27.37,34.63)" r="6.5"><circle class="node" r="6" node_type="nucleotide" style="fill: lightgreen;"></circle><text text-anchor="middle" font-size="8" font-weight="bold" y="2.5" class="node-label">C</text></g><g class="noselect gnode" struct_name="m" transform="translate(11.67,34.26)" r="6.5"><circle class="node" r="6" node_type="nucleotide" style="fill: lightgreen;"></circle><text text-anchor="middle" font-size="8" font-weight="bold" y="2.5" class="node-label">C</text></g><g class="noselect gnode" struct_name="m" transform="translate(-3.40,38.53)" r="6.5"><circle class="node" r="6" node_type="nucleotide" style="fill: lightblue;"></circle><text text-anchor="middle" font-size="8" font-weight="bold" y="2.5" class="node-label">U</text></g><g class="noselect gnode" struct_name="m" transform="translate(-11.80,25.75)" r="6.5"><circle class="node" r="6" node_type="nucleotide" style="fill: lightblue;"></circle><text text-anchor="middle" font-size="8" font-weight="bold" y="2.5" class="node-label">C</text></g><g class="noselect gnode" struct_name="m" transform="translate(-2.34,13.69)" r="6.5"><circle class="node" r="6" node_type="nucleotide" style="fill: lightblue;"></circle><text text-anchor="middle" font-size="8" font-weight="bold" y="2.5" class="node-label">U</text></g><g class="noselect gnode" struct_name="m" transform="translate(12.23,19.22)" r="6.5"><circle class="node" r="6" node_type="nucleotide" style="fill: lightgreen;"></circle><text text-anchor="middle" font-size="8" font-weight="bold" y="2.5" class="node-label">G</text></g><g class="noselect gnode" struct_name="m" transform="translate(27.39,19.65)" r="6.5"><circle class="node" r="6" node_type="nucleotide" style="fill: lightgreen;"></circle><text text-anchor="middle" font-size="8" font-weight="bold" y="2.5" class="node-label">G</text></g><g class="noselect gnode" struct_name="m" transform="translate(41.89,14.47)" r="6.5"><circle class="node" r="6" node_type="nucleotide" style="fill: rgb(219, 219, 141);"></circle><text text-anchor="middle" font-size="8" font-weight="bold" y="2.5" class="node-label">A</text></g><g class="noselect gnode" struct_name="m" transform="translate(51.16,26.85)" r="6.5"><circle class="node" r="6" node_type="nucleotide" style="fill: lightgreen;"></circle><text text-anchor="middle" font-size="8" font-weight="bold" y="2.5" class="node-label">G</text></g><g class="noselect gnode" struct_name="m" transform="translate(64.24,34.84)" r="6.5"><circle class="node" r="6" node_type="nucleotide" style="fill: lightgreen;"></circle><text text-anchor="middle" font-size="8" font-weight="bold" y="2.5" class="node-label">U</text></g><g class="noselect gnode" struct_name="m" transform="translate(78.22,41.84)" r="6.5"><circle class="node" r="6" node_type="nucleotide" style="fill: lightgreen;"></circle><text text-anchor="middle" font-size="8" font-weight="bold" y="2.5" class="node-label">G</text></g><g class="noselect gnode" struct_name="m" transform="translate(92.71,47.96)" r="6.5"><circle class="node" r="6" node_type="nucleotide" style="fill: lightgreen;"></circle><text text-anchor="middle" font-size="8" font-weight="bold" y="2.5" class="node-label">C</text></g><g class="noselect gnode" struct_name="m" transform="translate(107.55,53.14)" r="6.5"><circle class="node" r="6" node_type="nucleotide" style="fill: lightgreen;"></circle><text text-anchor="middle" font-size="8" font-weight="bold" y="2.5" class="node-label">U</text></g><g class="noselect gnode" struct_name="m" transform="translate(122.47,49.92)" r="6.5"><circle class="node" r="6" node_type="nucleotide" style="fill: rgb(219, 219, 141);"></circle><text text-anchor="middle" font-size="8" font-weight="bold" y="2.5" class="node-label">G</text></g><g class="noselect gnode" struct_name="m" transform="translate(132.74,61.28)" r="6.5"><circle class="node" r="6" node_type="nucleotide" style="fill: lightgreen;"></circle><text text-anchor="middle" font-size="8" font-weight="bold" y="2.5" class="node-label">C</text></g><g class="noselect gnode" struct_name="m" transform="translate(148.17,66.76)" r="6.5"><circle class="node" r="6" node_type="nucleotide" style="fill: lightgreen;"></circle><text text-anchor="middle" font-size="8" font-weight="bold" y="2.5" class="node-label">G</text></g><g class="noselect gnode" struct_name="m" transform="translate(163.75,73.74)" r="6.5"><circle class="node" r="6" node_type="nucleotide" style="fill: lightgreen;"></circle><text text-anchor="middle" font-size="8" font-weight="bold" y="2.5" class="node-label">U</text></g><g class="noselect gnode" struct_name="m" transform="translate(178.53,82.92)" r="6.5"><circle class="node" r="6" node_type="nucleotide" style="fill: lightgreen;"></circle><text text-anchor="middle" font-size="8" font-weight="bold" y="2.5" class="node-label">G</text></g><g class="noselect gnode" struct_name="m" transform="translate(194.15,86.06)" r="6.5"><circle class="node" r="6" node_type="nucleotide" style="fill: rgb(219, 219, 141);"></circle><text text-anchor="middle" font-size="8" font-weight="bold" y="2.5" class="node-label">C</text></g><g class="noselect gnode" struct_name="m" transform="translate(199.25,101.34)" r="6.5"><circle class="node" r="6" node_type="nucleotide" style="fill: lightgreen;"></circle><text text-anchor="middle" font-size="8" font-weight="bold" y="2.5" class="node-label">A</text></g><g class="noselect gnode" struct_name="m" transform="translate(210.01,116.55)" r="6.5"><circle class="node" r="6" node_type="nucleotide" style="fill: lightgreen;"></circle><text text-anchor="middle" font-size="8" font-weight="bold" y="2.5" class="node-label">C</text></g><g class="noselect gnode" struct_name="m" transform="translate(226.75,120.34)" r="6.5"><circle class="node" r="6" node_type="nucleotide" style="fill: lightgreen;"></circle><text text-anchor="middle" font-size="8" font-weight="bold" y="2.5" class="node-label">G</text></g><g class="noselect gnode" struct_name="m" transform="translate(242.41,110.82)" r="6.5"><circle class="node" r="6" node_type="nucleotide" style="fill: lightgreen;"></circle><text text-anchor="middle" font-size="8" font-weight="bold" y="2.5" class="node-label">U</text></g><g class="noselect gnode" struct_name="m" transform="translate(259.06,104.82)" r="6.5"><circle class="node" r="6" node_type="nucleotide" style="fill: lightgreen;"></circle><text text-anchor="middle" font-size="8" font-weight="bold" y="2.5" class="node-label">G</text></g><g class="noselect gnode" struct_name="m" transform="translate(275.88,101.31)" r="6.5"><circle class="node" r="6" node_type="nucleotide" style="fill: lightgreen;"></circle><text text-anchor="middle" font-size="8" font-weight="bold" y="2.5" class="node-label">U</text></g><g class="noselect gnode" struct_name="m" transform="translate(292.59,99.52)" r="6.5"><circle class="node" r="6" node_type="nucleotide" style="fill: lightgreen;"></circle><text text-anchor="middle" font-size="8" font-weight="bold" y="2.5" class="node-label">G</text></g><g class="noselect gnode" struct_name="m" transform="translate(309.09,98.96)" r="6.5"><circle class="node" r="6" node_type="nucleotide" style="fill: lightgreen;"></circle><text text-anchor="middle" font-size="8" font-weight="bold" y="2.5" class="node-label">U</text></g><g class="noselect gnode" struct_name="m" transform="translate(325.09,99.08)" r="6.5"><circle class="node" r="6" node_type="nucleotide" style="fill: lightgreen;"></circle><text text-anchor="middle" font-size="8" font-weight="bold" y="2.5" class="node-label">G</text></g><g class="noselect gnode" struct_name="m" transform="translate(338.71,91.96)" r="6.5"><circle class="node" r="6" node_type="nucleotide" style="fill: lightblue;"></circle><text text-anchor="middle" font-size="8" font-weight="bold" y="2.5" class="node-label">A</text></g><g class="noselect gnode" struct_name="m" transform="translate(351.39,99.96)" r="6.5"><circle class="node" r="6" node_type="nucleotide" style="fill: lightblue;"></circle><text text-anchor="middle" font-size="8" font-weight="bold" y="2.5" class="node-label">U</text></g><g class="noselect gnode" struct_name="m" transform="translate(350.84,114.94)" r="6.5"><circle class="node" r="6" node_type="nucleotide" style="fill: lightblue;"></circle><text text-anchor="middle" font-size="8" font-weight="bold" y="2.5" class="node-label">C</text></g><g class="noselect gnode" struct_name="m" transform="translate(337.69,122.07)" r="6.5"><circle class="node" r="6" node_type="nucleotide" style="fill: lightblue;"></circle><text text-anchor="middle" font-size="8" font-weight="bold" y="2.5" class="node-label">U</text></g><g class="noselect gnode" struct_name="m" transform="translate(324.70,113.97)" r="6.5"><circle class="node" r="6" node_type="nucleotide" style="fill: lightgreen;"></circle><text text-anchor="middle" font-size="8" font-weight="bold" y="2.5" class="node-label">C</text></g><g class="noselect gnode" struct_name="m" transform="translate(309.16,113.56)" r="6.5"><circle class="node" r="6" node_type="nucleotide" style="fill: lightgreen;"></circle><text text-anchor="middle" font-size="8" font-weight="bold" y="2.5" class="node-label">A</text></g><g class="noselect gnode" struct_name="m" transform="translate(293.56,114.01)" r="6.5"><circle class="node" r="6" node_type="nucleotide" style="fill: lightgreen;"></circle><text text-anchor="middle" font-size="8" font-weight="bold" y="2.5" class="node-label">C</text></g><g class="noselect gnode" struct_name="m" transform="translate(278.06,115.59)" r="6.5"><circle class="node" r="6" node_type="nucleotide" style="fill: lightgreen;"></circle><text text-anchor="middle" font-size="8" font-weight="bold" y="2.5" class="node-label">A</text></g><g class="noselect gnode" struct_name="m" transform="translate(262.86,118.66)" r="6.5"><circle class="node" r="6" node_type="nucleotide" style="fill: lightgreen;"></circle><text text-anchor="middle" font-size="8" font-weight="bold" y="2.5" class="node-label">C</text></g><g class="noselect gnode" struct_name="m" transform="translate(248.53,123.71)" r="6.5"><circle class="node" r="6" node_type="nucleotide" style="fill: lightgreen;"></circle><text text-anchor="middle" font-size="8" font-weight="bold" y="2.5" class="node-label">A</text></g><g class="noselect gnode" struct_name="m" transform="translate(236.53,131.37)" r="6.5"><circle class="node" r="6" node_type="nucleotide" style="fill: lightgreen;"></circle><text text-anchor="middle" font-size="8" font-weight="bold" y="2.5" class="node-label">C</text></g><g class="noselect gnode" struct_name="m" transform="translate(243.69,145.03)" r="6.5"><circle class="node" r="6" node_type="nucleotide" style="fill: lightsalmon;"></circle><text text-anchor="middle" font-size="8" font-weight="bold" y="2.5" class="node-label">U</text></g><g class="noselect gnode" struct_name="m" transform="translate(243.82,160.32)" r="6.5"><circle class="node" r="6" node_type="nucleotide" style="fill: lightsalmon;"></circle><text text-anchor="middle" font-size="8" font-weight="bold" y="2.5" class="node-label">U</text></g><g class="noselect gnode" struct_name="m" transform="translate(237.27,173.84)" r="6.5"><circle class="node" r="6" node_type="nucleotide" style="fill: lightsalmon;"></circle><text text-anchor="middle" font-size="8" font-weight="bold" y="2.5" class="node-label">U</text></g><g class="noselect gnode" struct_name="m" transform="translate(225.39,183.26)" r="6.5"><circle class="node" r="6" node_type="nucleotide" style="fill: lightsalmon;"></circle><text text-anchor="middle" font-size="8" font-weight="bold" y="2.5" class="node-label">U</text></g><g class="noselect gnode" struct_name="m" transform="translate(210.43,184.61)" r="6.5"><circle class="node" r="6" node_type="nucleotide" style="fill: lightsalmon;"></circle><text text-anchor="middle" font-size="8" font-weight="bold" y="2.5" class="node-label">G</text></g><g class="noselect gnode" struct_name="m" transform="translate(196.16,181.05)" r="6.5"><circle class="node" r="6" node_type="nucleotide" style="fill: lightsalmon;"></circle><text text-anchor="middle" font-size="8" font-weight="bold" y="2.5" class="node-label">G</text></g><g class="noselect gnode" struct_name="m" transform="translate(106.78,92.84)" r="6.5"><circle class="node label" r="6" node_type="label"></circle><text text-anchor="middle" font-size="8" font-weight="bold" y="2.5" class="node-label">10</text></g><g class="noselect gnode" struct_name="m" transform="translate(-9.47,-0.02)" r="6.5"><circle class="node label" r="6" node_type="label"></circle><text text-anchor="middle" font-size="8" font-weight="bold" y="2.5" class="node-label">20</text></g><g class="noselect gnode" struct_name="m" transform="translate(139.57,47.25)" r="6.5"><circle class="node label" r="6" node_type="label"></circle><text text-anchor="middle" font-size="8" font-weight="bold" y="2.5" class="node-label">30</text></g><g class="noselect gnode" struct_name="m" transform="translate(275.56,85.70)" r="6.5"><circle class="node label" r="6" node_type="label"></circle><text text-anchor="middle" font-size="8" font-weight="bold" y="2.5" class="node-label">40</text></g><g class="noselect gnode" struct_name="m" transform="translate(299.04,128.61)" r="6.5"><circle class="node label" r="6" node_type="label"></circle><text text-anchor="middle" font-size="8" font-weight="bold" y="2.5" class="node-label">50</text></g><g class="noselect gnode" struct_name="m" transform="translate(189.39,194.98)" r="6.5"><circle class="node label" r="6" node_type="label"></circle><text text-anchor="middle" font-size="8" font-weight="bold" y="2.5" class="node-label">60</text></g><g class="noselect gnode" transform="translate(97.59,57.63)" r="6.5"><circle class="node" r="0" node_type="middle"></circle><text text-anchor="middle" font-size="8" font-weight="bold" y="2.5" class="node-label"></text></g><g class="noselect gnode" transform="translate(82.51,51.82)" r="6.5"><circle class="node" r="0" node_type="middle"></circle><text text-anchor="middle" font-size="8" font-weight="bold" y="2.5" class="node-label"></text></g><g class="noselect gnode" transform="translate(67.83,45.07)" r="6.5"><circle class="node" r="0" node_type="middle"></circle><text text-anchor="middle" font-size="8" font-weight="bold" y="2.5" class="node-label"></text></g><g class="noselect gnode" transform="translate(53.69,37.36)" r="6.5"><circle class="node" r="0" node_type="middle"></circle><text text-anchor="middle" font-size="8" font-weight="bold" y="2.5" class="node-label"></text></g><g class="noselect gnode" transform="translate(19.61,27.02)" r="6.5"><circle class="node" r="0" node_type="middle"></circle><text text-anchor="middle" font-size="8" font-weight="bold" y="2.5" class="node-label"></text></g><g class="noselect gnode" transform="translate(199.53,112.28)" r="6.5"><circle class="node" r="0" node_type="middle"></circle><text text-anchor="middle" font-size="8" font-weight="bold" y="2.5" class="node-label"></text></g><g class="noselect gnode" transform="translate(167.55,83.83)" r="6.5"><circle class="node" r="0" node_type="middle"></circle><text text-anchor="middle" font-size="8" font-weight="bold" y="2.5" class="node-label"></text></g><g class="noselect gnode" transform="translate(153.14,76.36)" r="6.5"><circle class="node" r="0" node_type="middle"></circle><text text-anchor="middle" font-size="8" font-weight="bold" y="2.5" class="node-label"></text></g><g class="noselect gnode" transform="translate(138.08,70.71)" r="6.5"><circle class="node" r="0" node_type="middle"></circle><text text-anchor="middle" font-size="8" font-weight="bold" y="2.5" class="node-label"></text></g><g class="noselect gnode" transform="translate(238.08,120.67)" r="6.5"><circle class="node" r="0" node_type="middle"></circle><text text-anchor="middle" font-size="8" font-weight="bold" y="2.5" class="node-label"></text></g><g class="noselect gnode" transform="translate(253.00,113.84)" r="6.5"><circle class="node" r="0" node_type="middle"></circle><text text-anchor="middle" font-size="8" font-weight="bold" y="2.5" class="node-label"></text></g><g class="noselect gnode" transform="translate(268.88,109.62)" r="6.5"><circle class="node" r="0" node_type="middle"></circle><text text-anchor="middle" font-size="8" font-weight="bold" y="2.5" class="node-label"></text></g><g class="noselect gnode" transform="translate(285.01,107.26)" r="6.5"><circle class="node" r="0" node_type="middle"></circle><text text-anchor="middle" font-size="8" font-weight="bold" y="2.5" class="node-label"></text></g><g class="noselect gnode" transform="translate(301.14,106.23)" r="6.5"><circle class="node" r="0" node_type="middle"></circle><text text-anchor="middle" font-size="8" font-weight="bold" y="2.5" class="node-label"></text></g><g class="noselect gnode" transform="translate(317.08,106.25)" r="6.5"><circle class="node" r="0" node_type="middle"></circle><text text-anchor="middle" font-size="8" font-weight="bold" y="2.5" class="node-label"></text></g><g class="noselect gnode" transform="translate(183.39,173.55)" r="6.5"><circle class="node" r="0" node_type="middle"></circle><text text-anchor="middle" font-size="8" font-weight="bold" y="2.5" class="node-label"></text></g><g class="noselect gnode" transform="translate(177.16,159.26)" r="6.5"><circle class="node" r="0" node_type="middle"></circle><text text-anchor="middle" font-size="8" font-weight="bold" y="2.5" class="node-label"></text></g><g class="noselect gnode" transform="translate(211.38,151.50)" r="6.5"><circle class="node" r="0" node_type="middle"></circle><text text-anchor="middle" font-size="8" font-weight="bold" y="2.5" class="node-label"></text></g><g class="noselect gnode" transform="translate(1.29,26.28)" r="6.5"><circle class="node" r="0" node_type="middle"></circle><text text-anchor="middle" font-size="8" font-weight="bold" y="2.5" class="node-label"></text></g><g class="noselect gnode" transform="translate(338.03,106.99)" r="6.5"><circle class="node" r="0" node_type="middle"></circle><text text-anchor="middle" font-size="8" font-weight="bold" y="2.5" class="node-label"></text></g><g class="noselect gnode" transform="translate(38.10,27.19)" r="6.5"><circle class="node" r="0" node_type="middle"></circle><text text-anchor="middle" font-size="8" font-weight="bold" y="2.5" class="node-label"></text></g><g class="noselect gnode" transform="translate(184.37,97.09)" r="6.5"><circle class="node" r="0" node_type="middle"></circle><text text-anchor="middle" font-size="8" font-weight="bold" y="2.5" class="node-label"></text></g><g class="noselect gnode" transform="translate(117.81,64.27)" r="6.5"><circle class="node" r="0" node_type="middle"></circle><text text-anchor="middle" font-size="8" font-weight="bold" y="2.5" class="node-label"></text></g></g><line class="drag_line" x1="0" y1="0" x2="0" y2="0"></line></g></g></svg>