<svg xmlns="http://www.w3.org/2000/svg" viewBox="0 0 760 640" width="760" height="640"><style>svg {
  display: block;
  min-width: 100%;
  width: 100%;
  min-height: 100%;
}

circle.node {
  stroke: #ccc;
  stroke-width: 1px;
  opacity: 1;
  fill: white;
}

circle.node.label {
    stroke: transparent;
    stroke-width: 0;
    fill: white;
}

circle.outline_node {
    stroke-width: 1px;
    fill: red;
}

circle.protein {
    fill: gray;
    fill-opacity: 0.5;
    stroke-width: 4;
}

circle.hidden_outline {
    stroke-width: 0px;
}


line.link {
  stroke: #999;
  stroke-opacity: 0.8;
  stroke-width: 2;
}

line.basepair {
  stroke: red;
}

line.intermolecule {
  stroke: blue;
}

line.chain_chain {
  stroke-dasharray: 3,3;
}

line.fake {
  stroke: green;
}

.transparent {
    fill: transparent;
    stroke-width: 0;
    stroke-opacity: 0;
    opacity: 0;
    visibility: hidden;
}

.drag_line {
  stroke: #999;
  stroke-width: 2;
  pointer-events: none;
}

.drag_line_hidden {
  stroke: #999;
  stroke-width: 0;
  pointer-events: none;
}

.d3-tip {
    line-height: 1;
    font-weight: bold;
    padding: 6px;
    background: rgba(0, 0, 0, 0.6);
    color: #fff;
    border-radius: 4px;
    pointer-events: none;
          }

text.node-label {
    font-weight: bold;
    font-family: Tahoma, Geneva, sans-serif;
    color: rgb(100,100,100);
    pointer-events: none;
}

text {
    pointer-events: none;
}

g.gnode {

}

circle.outline_node.selected {
    visibility: visible;
}

circle.outline_node {
    visibility: hidden;
}

.brush .extent {
  fill-opacity: .1;
  stroke: #fff;
  shape-rendering: crispEdges;
}

.noselect {
    -webkit-touch-callout: none;
    -webkit-user-select: none;
    -khtml-user-select: none;
    -moz-user-select: none;
    -ms-user-select: none;
    user-select: none;
}

svg {
  display: block;
  min-width: 100%;
  width: 100%;
  min-height: 100%;
}

circle.node {
  stroke: #ccc;
  stroke-width: 1px;
  opacity: 1;
  fill: white;
}

circle.node.label {
    stroke: transparent;
    stroke-width: 0;
    fill: white;
}

circle.outline_node {
    stroke-width: 1px;
    fill: red;
}

circle.protein {
    fill: gray;
    fill-opacity: 0.5;
    stroke-width: 4;
}

circle.hidden_outline {
    stroke-width: 0px;
}


line.link {
  stroke: #999;
  stroke-opacity: 0.8;
  stroke-width: 2;
}

line.basepair {
  stroke: red;
}

line.intermolecule {
  stroke: blue;
}

line.chain_chain {
  stroke-dasharray: 3,3;
}

line.fake {
  stroke: green;
}

.transparent {
    fill: transparent;
    stroke-width: 0;
    stroke-opacity: 0;
    opacity: 0;
    visibility: hidden;
}

.drag_line {
  stroke: #999;
  stroke-width: 2;
  pointer-events: none;
}

.drag_line_hidden {
  stroke: #999;
  stroke-width: 0;
  pointer-events: none;
}

.d3-tip {
    line-height: 1;
    font-weight: bold;
    padding: 6px;
    background: rgba(0, 0, 0, 0.6);
    color: #fff;
    border-radius: 4px;
    pointer-events: none;
          }

text.node-label {
    font-weight: bold;
    font-family: Tahoma, Geneva, sans-serif;
    color: rgb(100,100,100);
    pointer-events: none;
}

text {
    pointer-events: none;
}

g.gnode {

}

circle.outline_node.selected {
    visibility: visible;
}

circle.outline_node {
    visibility: hidden;
}

.brush .extent {
  fill-opacity: .1;
  stroke: #fff;
  shape-rendering: crispEdges;
}

.noselect {
    -webkit-touch-callout: none;
    -webkit-user-select: none;
    -khtml-user-select: none;
    -moz-user-select: none;
    -ms-user-select: none;
    user-select: none;
}
/*# sourceURL=/Users/yumanakamura/ipy_sandbox/sandbox/claude_sandbox/mrna-transformer-worktrees/feat-issue57-switch-derna-knotty/scripts/eval/prerender/forna_vendor/fornac.css*/</style><style></style><g><g class="brush" style="pointer-events: all; -webkit-tap-highlight-color: rgba(0, 0, 0, 0);"><rect class="background" x="0" width="760" y="0" height="640" style="visibility: hidden; cursor: auto;"></rect><rect class="extent" x="0" width="0" y="0" height="0" style="cursor: move;"></rect><g class="resize n" transform="translate(0,0)" style="cursor: ns-resize; display: none;"><rect y="-3" width="0" height="6" style="visibility: hidden;"></rect></g><g class="resize e" transform="translate(0,0)" style="cursor: ew-resize; display: none;"><rect x="-3" width="6" height="0" style="visibility: hidden;"></rect></g><g class="resize s" transform="translate(0,0)" style="cursor: ns-resize; display: none;"><rect y="-3" width="0" height="6" style="visibility: hidden;"></rect></g><g class="resize w" transform="translate(0,0)" style="cursor: ew-resize; display: none;"><rect x="-3" width="6" height="0" style="visibility: hidden;"></rect></g><g class="resize nw" transform="translate(0,0)" style="cursor: nwse-resize; display: none;"><rect x="-3" y="-3" width="6" height="6" style="visibility: hidden;"></rect></g><g class="resize ne" transform="translate(0,0)" style="cursor: nesw-resize; display: none;"><rect x="-3" y="-3" width="6" height="6" style="visibility: hidden;"></rect></g><g class="resize se" transform="translate(0,0)" style="cursor: nwse-resize; display: none;"><rect x="-3" y="-3" width="6" height="6" style="visibility: hidden;"></rect></g><g class="resize sw" transform="translate(0,0)" style="cursor: nesw-resize; display: none;"><rect x="-3" y="-3" width="6" height="6" style="visibility: hidden;"></rect></g></g><g transform="translate(298.58,258.47) scale(1.29)"><g><line class="link backbone" x1="17.40" y1="256.27" x2="2.90" y2="252.56"></line><line class="link backbone" x1="2.90" y1="252.56" x2="-6.87" y2="241.12"></line><line class="link backbone" x1="-6.87" y1="241.12" x2="-7.60" y2="225.95"></line><line class="link backbone" x1="-7.60" y1="225.95" x2="0.61" y2="213.41"></line><line class="link basepair" x1="14.88" y1="207.58" x2="29.29" y2="211.55"></line><line class="link backbone" x1="0.61" y1="213.41" x2="14.88" y2="207.58"></line><line class="link basepair" x1="19.22" y1="192.47" x2="33.46" y2="196.47"></line><line class="link backbone" x1="14.88" y1="207.58" x2="19.22" y2="192.47"></line><line class="link backbone" x1="19.22" y1="192.47" x2="15.39" y2="177.71"></line><line class="link basepair" x1="26.34" y1="167.01" x2="40.58" y2="170.94"></line><line class="link backbone" x1="15.39" y1="177.71" x2="26.34" y2="167.01"></line><line class="link basepair" x1="30.59" y1="151.70" x2="44.69" y2="155.42"></line><line class="link backbone" x1="26.34" y1="167.01" x2="30.59" y2="151.70"></line><line class="link basepair" x1="34.54" y1="136.25" x2="48.70" y2="139.78"></line><line class="link backbone" x1="30.59" y1="151.70" x2="34.54" y2="136.25"></line><line class="link basepair" x1="38.13" y1="120.90" x2="52.57" y2="124.35"></line><line class="link backbone" x1="34.54" y1="136.25" x2="38.13" y2="120.90"></line><line class="link backbone" x1="38.13" y1="120.90" x2="30.15" y2="107.84"></line><line class="link backbone" x1="30.15" y1="107.84" x2="33.64" y2="93.30"></line><line class="link basepair" x1="46.64" y1="85.24" x2="61.11" y2="88.67"></line><line class="link backbone" x1="33.64" y1="93.30" x2="46.64" y2="85.24"></line><line class="link basepair" x1="50.34" y1="69.98" x2="64.60" y2="73.16"></line><line class="link backbone" x1="46.64" y1="85.24" x2="50.34" y2="69.98"></line><line class="link basepair" x1="53.57" y1="54.58" x2="67.93" y2="57.23"></line><line class="link backbone" x1="50.34" y1="69.98" x2="53.57" y2="54.58"></line><line class="link basepair" x1="56.00" y1="39.19" x2="70.49" y2="40.95"></line><line class="link backbone" x1="53.57" y1="54.58" x2="56.00" y2="39.19"></line><line class="link basepair" x1="57.27" y1="23.84" x2="71.83" y2="24.36"></line><line class="link backbone" x1="56.00" y1="39.19" x2="57.27" y2="23.84"></line><line class="link basepair" x1="57.09" y1="8.53" x2="71.60" y2="7.55"></line><line class="link backbone" x1="57.27" y1="23.84" x2="57.09" y2="8.53"></line><line class="link basepair" x1="55.03" y1="-6.23" x2="69.45" y2="-9.38"></line><line class="link backbone" x1="57.09" y1="8.53" x2="55.03" y2="-6.23"></line><line class="link backbone" x1="55.03" y1="-6.23" x2="44.45" y2="-16.87"></line><line class="link backbone" x1="44.45" y1="-16.87" x2="48.16" y2="-31.05"></line><line class="link basepair" x1="62.55" y1="-35.23" x2="73.60" y2="-25.41"></line><line class="link backbone" x1="48.16" y1="-31.05" x2="62.55" y2="-35.23"></line><line class="link basepair" x1="71.64" y1="-47.15" x2="83.70" y2="-39.10"></line><line class="link backbone" x1="62.55" y1="-35.23" x2="71.64" y2="-47.15"></line><line class="link basepair" x1="79.61" y1="-60.50" x2="92.32" y2="-53.57"></line><line class="link backbone" x1="71.64" y1="-47.15" x2="79.61" y2="-60.50"></line><line class="link basepair" x1="86.64" y1="-74.58" x2="99.81" y2="-68.46"></line><line class="link backbone" x1="79.61" y1="-60.50" x2="86.64" y2="-74.58"></line><line class="link basepair" x1="92.90" y1="-89.04" x2="106.35" y2="-83.64"></line><line class="link backbone" x1="86.64" y1="-74.58" x2="92.90" y2="-89.04"></line><line class="link basepair" x1="98.38" y1="-103.84" x2="112.12" y2="-99.13"></line><line class="link backbone" x1="92.90" y1="-89.04" x2="98.38" y2="-103.84"></line><line class="link basepair" x1="103.12" y1="-118.87" x2="117.15" y2="-114.68"></line><line class="link backbone" x1="98.38" y1="-103.84" x2="103.12" y2="-118.87"></line><line class="link basepair" x1="107.17" y1="-133.86" x2="121.56" y2="-130.03"></line><line class="link backbone" x1="103.12" y1="-118.87" x2="107.17" y2="-133.86"></line><line class="link backbone" x1="107.17" y1="-133.86" x2="103.13" y2="-148.66"></line><line class="link backbone" x1="103.13" y1="-148.66" x2="113.69" y2="-159.23"></line><line class="link backbone" x1="113.69" y1="-159.23" x2="128.21" y2="-155.49"></line><line class="link backbone" x1="128.21" y1="-155.49" x2="132.29" y2="-141.07"></line><line class="link basepair" x1="121.56" y1="-130.03" x2="107.17" y2="-133.86"></line><line class="link backbone" x1="132.29" y1="-141.07" x2="121.56" y2="-130.03"></line><line class="link basepair" x1="117.15" y1="-114.68" x2="103.12" y2="-118.87"></line><line class="link backbone" x1="121.56" y1="-130.03" x2="117.15" y2="-114.68"></line><line class="link basepair" x1="112.12" y1="-99.13" x2="98.38" y2="-103.84"></line><line class="link backbone" x1="117.15" y1="-114.68" x2="112.12" y2="-99.13"></line><line class="link basepair" x1="106.35" y1="-83.64" x2="92.90" y2="-89.04"></line><line class="link backbone" x1="112.12" y1="-99.13" x2="106.35" y2="-83.64"></line><line class="link basepair" x1="99.81" y1="-68.46" x2="86.64" y2="-74.58"></line><line class="link backbone" x1="106.35" y1="-83.64" x2="99.81" y2="-68.46"></line><line class="link basepair" x1="92.32" y1="-53.57" x2="79.61" y2="-60.50"></line><line class="link backbone" x1="99.81" y1="-68.46" x2="92.32" y2="-53.57"></line><line class="link basepair" x1="83.70" y1="-39.10" x2="71.64" y2="-47.15"></line><line class="link backbone" x1="92.32" y1="-53.57" x2="83.70" y2="-39.10"></line><line class="link basepair" x1="73.60" y1="-25.41" x2="62.55" y2="-35.23"></line><line class="link backbone" x1="83.70" y1="-39.10" x2="73.60" y2="-25.41"></line><line class="link basepair" x1="69.45" y1="-9.38" x2="55.03" y2="-6.23"></line><line class="link backbone" x1="73.60" y1="-25.41" x2="69.45" y2="-9.38"></line><line class="link basepair" x1="71.60" y1="7.55" x2="57.09" y2="8.53"></line><line class="link backbone" x1="69.45" y1="-9.38" x2="71.60" y2="7.55"></line><line class="link basepair" x1="71.83" y1="24.36" x2="57.27" y2="23.84"></line><line class="link backbone" x1="71.60" y1="7.55" x2="71.83" y2="24.36"></line><line class="link basepair" x1="70.49" y1="40.95" x2="56.00" y2="39.19"></line><line class="link backbone" x1="71.83" y1="24.36" x2="70.49" y2="40.95"></line><line class="link basepair" x1="67.93" y1="57.23" x2="53.57" y2="54.58"></line><line class="link backbone" x1="70.49" y1="40.95" x2="67.93" y2="57.23"></line><line class="link basepair" x1="64.60" y1="73.16" x2="50.34" y2="69.98"></line><line class="link backbone" x1="67.93" y1="57.23" x2="64.60" y2="73.16"></line><line class="link basepair" x1="61.11" y1="88.67" x2="46.64" y2="85.24"></line><line class="link backbone" x1="64.60" y1="73.16" x2="61.11" y2="88.67"></line><line class="link backbone" x1="61.11" y1="88.67" x2="69.02" y2="101.79"></line><line class="link backbone" x1="69.02" y1="101.79" x2="65.57" y2="116.31"></line><line class="link basepair" x1="52.57" y1="124.35" x2="38.13" y2="120.90"></line><line class="link backbone" x1="65.57" y1="116.31" x2="52.57" y2="124.35"></line><line class="link basepair" x1="48.70" y1="139.78" x2="34.54" y2="136.25"></line><line class="link backbone" x1="52.57" y1="124.35" x2="48.70" y2="139.78"></line><line class="link basepair" x1="44.69" y1="155.42" x2="30.59" y2="151.70"></line><line class="link backbone" x1="48.70" y1="139.78" x2="44.69" y2="155.42"></line><line class="link basepair" x1="40.58" y1="170.94" x2="26.34" y2="167.01"></line><line class="link backbone" x1="44.69" y1="155.42" x2="40.58" y2="170.94"></line><line class="link backbone" x1="40.58" y1="170.94" x2="44.43" y2="185.76"></line><line class="link basepair" x1="33.46" y1="196.47" x2="19.22" y2="192.47"></line><line class="link backbone" x1="44.43" y1="185.76" x2="33.46" y2="196.47"></line><line class="link basepair" x1="29.29" y1="211.55" x2="14.88" y2="207.58"></line><line class="link backbone" x1="33.46" y1="196.47" x2="29.29" y2="211.55"></line><line class="link backbone" x1="29.29" y1="211.55" x2="38.61" y2="223.82"></line><line class="link label_link" x1="30.59" y1="151.70" x2="15.68" y2="147.10"></line><line class="link label_link" x1="57.09" y1="8.53" x2="41.51" y2="8.48"></line><line class="link label_link" x1="103.12" y1="-118.87" x2="90.19" y2="-127.54"></line><line class="link label_link" x1="99.81" y1="-68.46" x2="114.58" y2="-63.33"></line><line class="link label_link" x1="61.11" y1="88.67" x2="76.67" y2="88.95"></line><line class="link label_link" x1="38.61" y1="223.82" x2="53.10" y2="229.48"></line><line class="link fake transparent" x1="46.64" y1="85.24" x2="55.69" y2="79.31"></line><line class="link fake transparent" x1="46.64" y1="85.24" x2="64.60" y2="73.16"></line><line class="link fake transparent" x1="50.34" y1="69.98" x2="55.69" y2="79.31"></line><line class="link fake transparent" x1="64.60" y1="73.16" x2="55.69" y2="79.31"></line><line class="link fake transparent" x1="61.11" y1="88.67" x2="55.69" y2="79.31"></line><line class="link fake transparent" x1="50.34" y1="69.98" x2="59.26" y2="63.78"></line><line class="link fake transparent" x1="53.57" y1="54.58" x2="59.26" y2="63.78"></line><line class="link fake transparent" x1="67.93" y1="57.23" x2="59.26" y2="63.78"></line><line class="link fake transparent" x1="64.60" y1="73.16" x2="59.26" y2="63.78"></line><line class="link fake transparent" x1="53.57" y1="54.58" x2="62.25" y2="48.03"></line><line class="link fake transparent" x1="56.00" y1="39.19" x2="62.25" y2="48.03"></line><line class="link fake transparent" x1="70.49" y1="40.95" x2="62.25" y2="48.03"></line><line class="link fake transparent" x1="67.93" y1="57.23" x2="62.25" y2="48.03"></line><line class="link fake transparent" x1="56.00" y1="39.19" x2="64.26" y2="32.12"></line><line class="link fake transparent" x1="57.27" y1="23.84" x2="64.26" y2="32.12"></line><line class="link fake transparent" x1="71.83" y1="24.36" x2="64.26" y2="32.12"></line><line class="link fake transparent" x1="70.49" y1="40.95" x2="64.26" y2="32.12"></line><line class="link fake transparent" x1="57.27" y1="23.84" x2="64.87" y2="16.08"></line><line class="link fake transparent" x1="57.09" y1="8.53" x2="64.87" y2="16.08"></line><line class="link fake transparent" x1="71.60" y1="7.55" x2="64.87" y2="16.08"></line><line class="link fake transparent" x1="71.83" y1="24.36" x2="64.87" y2="16.08"></line><line class="link fake transparent" x1="57.09" y1="8.53" x2="63.81" y2="0.09"></line><line class="link fake transparent" x1="55.03" y1="-6.23" x2="63.81" y2="0.09"></line><line class="link fake transparent" x1="69.45" y1="-9.38" x2="63.81" y2="0.09"></line><line class="link fake transparent" x1="71.60" y1="7.55" x2="63.81" y2="0.09"></line><line class="link fake transparent" x1="14.88" y1="207.58" x2="24.18" y2="202.08"></line><line class="link fake transparent" x1="19.22" y1="192.47" x2="24.18" y2="202.08"></line><line class="link fake transparent" x1="33.46" y1="196.47" x2="24.18" y2="202.08"></line><line class="link fake transparent" x1="29.29" y1="211.55" x2="24.18" y2="202.08"></line><line class="link fake transparent" x1="62.55" y1="-35.23" x2="73.25" y2="-36.41"></line><line class="link fake transparent" x1="71.64" y1="-47.15" x2="73.25" y2="-36.41"></line><line class="link fake transparent" x1="83.70" y1="-39.10" x2="73.25" y2="-36.41"></line><line class="link fake transparent" x1="73.60" y1="-25.41" x2="73.25" y2="-36.41"></line><line class="link fake transparent" x1="71.64" y1="-47.15" x2="82.11" y2="-49.90"></line><line class="link fake transparent" x1="79.61" y1="-60.50" x2="82.11" y2="-49.90"></line><line class="link fake transparent" x1="92.32" y1="-53.57" x2="82.11" y2="-49.90"></line><line class="link fake transparent" x1="83.70" y1="-39.10" x2="82.11" y2="-49.90"></line><line class="link fake transparent" x1="79.61" y1="-60.50" x2="89.82" y2="-64.17"></line><line class="link fake transparent" x1="86.64" y1="-74.58" x2="89.82" y2="-64.17"></line><line class="link fake transparent" x1="99.81" y1="-68.46" x2="89.82" y2="-64.17"></line><line class="link fake transparent" x1="92.32" y1="-53.57" x2="89.82" y2="-64.17"></line><line class="link fake transparent" x1="86.64" y1="-74.58" x2="96.62" y2="-78.87"></line><line class="link fake transparent" x1="92.90" y1="-89.04" x2="96.62" y2="-78.87"></line><line class="link fake transparent" x1="106.35" y1="-83.64" x2="96.62" y2="-78.87"></line><line class="link fake transparent" x1="99.81" y1="-68.46" x2="96.62" y2="-78.87"></line><line class="link fake transparent" x1="92.90" y1="-89.04" x2="102.64" y2="-93.85"></line><line class="link fake transparent" x1="98.38" y1="-103.84" x2="102.64" y2="-93.85"></line><line class="link fake transparent" x1="112.12" y1="-99.13" x2="102.64" y2="-93.85"></line><line class="link fake transparent" x1="106.35" y1="-83.64" x2="102.64" y2="-93.85"></line><line class="link fake transparent" x1="98.38" y1="-103.84" x2="107.86" y2="-109.12"></line><line class="link fake transparent" x1="103.12" y1="-118.87" x2="107.86" y2="-109.12"></line><line class="link fake transparent" x1="117.15" y1="-114.68" x2="107.86" y2="-109.12"></line><line class="link fake transparent" x1="112.12" y1="-99.13" x2="107.86" y2="-109.12"></line><line class="link fake transparent" x1="103.12" y1="-118.87" x2="112.41" y2="-124.39"></line><line class="link fake transparent" x1="107.17" y1="-133.86" x2="112.41" y2="-124.39"></line><line class="link fake transparent" x1="121.56" y1="-130.03" x2="112.41" y2="-124.39"></line><line class="link fake transparent" x1="117.15" y1="-114.68" x2="112.41" y2="-124.39"></line><line class="link fake transparent" x1="26.34" y1="167.01" x2="35.60" y2="161.29"></line><line class="link fake transparent" x1="30.59" y1="151.70" x2="35.60" y2="161.29"></line><line class="link fake transparent" x1="44.69" y1="155.42" x2="35.60" y2="161.29"></line><line class="link fake transparent" x1="40.58" y1="170.94" x2="35.60" y2="161.29"></line><line class="link fake transparent" x1="30.59" y1="151.70" x2="39.71" y2="145.78"></line><line class="link fake transparent" x1="34.54" y1="136.25" x2="39.71" y2="145.78"></line><line class="link fake transparent" x1="48.70" y1="139.78" x2="39.71" y2="145.78"></line><line class="link fake transparent" x1="44.69" y1="155.42" x2="39.71" y2="145.78"></line><line class="link fake transparent" x1="34.54" y1="136.25" x2="43.54" y2="130.25"></line><line class="link fake transparent" x1="38.13" y1="120.90" x2="43.54" y2="130.25"></line><line class="link fake transparent" x1="52.57" y1="124.35" x2="43.54" y2="130.25"></line><line class="link fake transparent" x1="48.70" y1="139.78" x2="43.54" y2="130.25"></line><line class="link fake transparent" x1="17.40" y1="256.27" x2="15.86" y2="231.97"></line><line class="link fake transparent" x1="17.40" y1="256.27" x2="14.88" y2="207.58"></line><line class="link fake transparent" x1="2.90" y1="252.56" x2="15.86" y2="231.97"></line><line class="link fake transparent" x1="2.90" y1="252.56" x2="29.29" y2="211.55"></line><line class="link fake transparent" x1="-6.87" y1="241.12" x2="15.86" y2="231.97"></line><line class="link fake transparent" x1="-6.87" y1="241.12" x2="38.61" y2="223.82"></line><line class="link fake transparent" x1="-7.60" y1="225.95" x2="15.86" y2="231.97"></line><line class="link fake transparent" x1="-7.60" y1="225.95" x2="39.58" y2="238.41"></line><line class="link fake transparent" x1="0.61" y1="213.41" x2="15.86" y2="231.97"></line><line class="link fake transparent" x1="0.61" y1="213.41" x2="31.39" y2="251.53"></line><line class="link fake transparent" x1="14.88" y1="207.58" x2="15.86" y2="231.97"></line><line class="link fake transparent" x1="14.88" y1="207.58" x2="17.40" y2="256.27"></line><line class="link fake transparent" x1="29.29" y1="211.55" x2="15.86" y2="231.97"></line><line class="link fake transparent" x1="29.29" y1="211.55" x2="2.90" y2="252.56"></line><line class="link fake transparent" x1="38.61" y1="223.82" x2="15.86" y2="231.97"></line><line class="link fake transparent" x1="38.61" y1="223.82" x2="-6.87" y2="241.12"></line><line class="link fake transparent" x1="107.17" y1="-133.86" x2="117.69" y2="-144.69"></line><line class="link fake transparent" x1="107.17" y1="-133.86" x2="128.21" y2="-155.49"></line><line class="link fake transparent" x1="103.13" y1="-148.66" x2="117.69" y2="-144.69"></line><line class="link fake transparent" x1="103.13" y1="-148.66" x2="132.29" y2="-141.07"></line><line class="link fake transparent" x1="113.69" y1="-159.23" x2="117.69" y2="-144.69"></line><line class="link fake transparent" x1="113.69" y1="-159.23" x2="121.56" y2="-130.03"></line><line class="link fake transparent" x1="128.21" y1="-155.49" x2="117.69" y2="-144.69"></line><line class="link fake transparent" x1="128.21" y1="-155.49" x2="107.17" y2="-133.86"></line><line class="link fake transparent" x1="132.29" y1="-141.07" x2="117.69" y2="-144.69"></line><line class="link fake transparent" x1="132.29" y1="-141.07" x2="103.13" y2="-148.66"></line><line class="link fake transparent" x1="121.56" y1="-130.03" x2="117.69" y2="-144.69"></line><line class="link fake transparent" x1="121.56" y1="-130.03" x2="113.69" y2="-159.23"></line><line class="link fake transparent" x1="55.03" y1="-6.23" x2="59.26" y2="-20.61"></line><line class="link fake transparent" x1="55.03" y1="-6.23" x2="62.55" y2="-35.23"></line><line class="link fake transparent" x1="44.45" y1="-16.87" x2="59.26" y2="-20.61"></line><line class="link fake transparent" x1="44.45" y1="-16.87" x2="73.60" y2="-25.41"></line><line class="link fake transparent" x1="48.16" y1="-31.05" x2="59.26" y2="-20.61"></line><line class="link fake transparent" x1="48.16" y1="-31.05" x2="69.45" y2="-9.38"></line><line class="link fake transparent" x1="62.55" y1="-35.23" x2="59.26" y2="-20.61"></line><line class="link fake transparent" x1="62.55" y1="-35.23" x2="55.03" y2="-6.23"></line><line class="link fake transparent" x1="73.60" y1="-25.41" x2="59.26" y2="-20.61"></line><line class="link fake transparent" x1="73.60" y1="-25.41" x2="44.45" y2="-16.87"></line><line class="link fake transparent" x1="69.45" y1="-9.38" x2="59.26" y2="-20.61"></line><line class="link fake transparent" x1="69.45" y1="-9.38" x2="48.16" y2="-31.05"></line><line class="link fake transparent" x1="19.22" y1="192.47" x2="29.92" y2="181.72"></line><line class="link fake transparent" x1="19.22" y1="192.47" x2="40.58" y2="170.94"></line><line class="link fake transparent" x1="15.39" y1="177.71" x2="29.92" y2="181.72"></line><line class="link fake transparent" x1="15.39" y1="177.71" x2="44.43" y2="185.76"></line><line class="link fake transparent" x1="26.34" y1="167.01" x2="29.92" y2="181.72"></line><line class="link fake transparent" x1="26.34" y1="167.01" x2="33.46" y2="196.47"></line><line class="link fake transparent" x1="40.58" y1="170.94" x2="29.92" y2="181.72"></line><line class="link fake transparent" x1="40.58" y1="170.94" x2="19.22" y2="192.47"></line><line class="link fake transparent" x1="44.43" y1="185.76" x2="29.92" y2="181.72"></line><line class="link fake transparent" x1="44.43" y1="185.76" x2="15.39" y2="177.71"></line><line class="link fake transparent" x1="33.46" y1="196.47" x2="29.92" y2="181.72"></line><line class="link fake transparent" x1="33.46" y1="196.47" x2="26.34" y2="167.01"></line><line class="link fake transparent" x1="38.13" y1="120.90" x2="49.59" y2="104.79"></line><line class="link fake transparent" x1="38.13" y1="120.90" x2="61.11" y2="88.67"></line><line class="link fake transparent" x1="30.15" y1="107.84" x2="49.59" y2="104.79"></line><line class="link fake transparent" x1="30.15" y1="107.84" x2="69.02" y2="101.79"></line><line class="link fake transparent" x1="33.64" y1="93.30" x2="49.59" y2="104.79"></line><line class="link fake transparent" x1="33.64" y1="93.30" x2="65.57" y2="116.31"></line><line class="link fake transparent" x1="46.64" y1="85.24" x2="49.59" y2="104.79"></line><line class="link fake transparent" x1="46.64" y1="85.24" x2="52.57" y2="124.35"></line><line class="link fake transparent" x1="61.11" y1="88.67" x2="49.59" y2="104.79"></line><line class="link fake transparent" x1="61.11" y1="88.67" x2="38.13" y2="120.90"></line><line class="link fake transparent" x1="69.02" y1="101.79" x2="49.59" y2="104.79"></line><line class="link fake transparent" x1="69.02" y1="101.79" x2="30.15" y2="107.84"></line><line class="link fake transparent" x1="65.57" y1="116.31" x2="49.59" y2="104.79"></line><line class="link fake transparent" x1="65.57" y1="116.31" x2="33.64" y2="93.30"></line><line class="link fake transparent" x1="52.57" y1="124.35" x2="49.59" y2="104.79"></line><line class="link fake transparent" x1="52.57" y1="124.35" x2="46.64" y2="85.24"></line></g><g><g class="noselect gnode" struct_name="m" transform="translate(17.40,256.27)" r="6.5"><circle class="node" r="6" node_type="nucleotide" style="fill: lightsalmon;"></circle><text text-anchor="middle" font-size="8" font-weight="bold" y="2.5" class="node-label">U</text></g><g class="noselect gnode" struct_name="m" transform="translate(2.90,252.56)" r="6.5"><circle class="node" r="6" node_type="nucleotide" style="fill: lightsalmon;"></circle><text text-anchor="middle" font-size="8" font-weight="bold" y="2.5" class="node-label">A</text></g><g class="noselect gnode" struct_name="m" transform="translate(-6.87,241.12)" r="6.5"><circle class="node" r="6" node_type="nucleotide" style="fill: lightsalmon;"></circle><text text-anchor="middle" font-size="8" font-weight="bold" y="2.5" class="node-label">U</text></g><g class="noselect gnode" struct_name="m" transform="translate(-7.60,225.95)" r="6.5"><circle class="node" r="6" node_type="nucleotide" style="fill: lightsalmon;"></circle><text text-anchor="middle" font-size="8" font-weight="bold" y="2.5" class="node-label">G</text></g><g class="noselect gnode" struct_name="m" transform="translate(0.61,213.41)" r="6.5"><circle class="node" r="6" node_type="nucleotide" style="fill: lightsalmon;"></circle><text text-anchor="middle" font-size="8" font-weight="bold" y="2.5" class="node-label">C</text></g><g class="noselect gnode" struct_name="m" transform="translate(14.88,207.58)" r="6.5"><circle class="node" r="6" node_type="nucleotide" style="fill: lightgreen;"></circle><text text-anchor="middle" font-size="8" font-weight="bold" y="2.5" class="node-label">U</text></g><g class="noselect gnode" struct_name="m" transform="translate(19.22,192.47)" r="6.5"><circle class="node" r="6" node_type="nucleotide" style="fill: lightgreen;"></circle><text text-anchor="middle" font-size="8" font-weight="bold" y="2.5" class="node-label">C</text></g><g class="noselect gnode" struct_name="m" transform="translate(15.39,177.71)" r="6.5"><circle class="node" r="6" node_type="nucleotide" style="fill: rgb(219, 219, 141);"></circle><text text-anchor="middle" font-size="8" font-weight="bold" y="2.5" class="node-label">C</text></g><g class="noselect gnode" struct_name="m" transform="translate(26.34,167.01)" r="6.5"><circle class="node" r="6" node_type="nucleotide" style="fill: lightgreen;"></circle><text text-anchor="middle" font-size="8" font-weight="bold" y="2.5" class="node-label">U</text></g><g class="noselect gnode" struct_name="m" transform="translate(30.59,151.70)" r="6.5"><circle class="node" r="6" node_type="nucleotide" style="fill: lightgreen;"></circle><text text-anchor="middle" font-size="8" font-weight="bold" y="2.5" class="node-label">A</text></g><g class="noselect gnode" struct_name="m" transform="translate(34.54,136.25)" r="6.5"><circle class="node" r="6" node_type="nucleotide" style="fill: lightgreen;"></circle><text text-anchor="middle" font-size="8" font-weight="bold" y="2.5" class="node-label">A</text></g><g class="noselect gnode" struct_name="m" transform="translate(38.13,120.90)" r="6.5"><circle class="node" r="6" node_type="nucleotide" style="fill: lightgreen;"></circle><text text-anchor="middle" font-size="8" font-weight="bold" y="2.5" class="node-label">U</text></g><g class="noselect gnode" struct_name="m" transform="translate(30.15,107.84)" r="6.5"><circle class="node" r="6" node_type="nucleotide" style="fill: rgb(219, 219, 141);"></circle><text text-anchor="middle" font-size="8" font-weight="bold" y="2.5" class="node-label">U</text></g><g class="noselect gnode" struct_name="m" transform="translate(33.64,93.30)" r="6.5"><circle class="node" r="6" node_type="nucleotide" style="fill: rgb(219, 219, 141);"></circle><text text-anchor="middle" font-size="8" font-weight="bold" y="2.5" class="node-label">A</text></g><g class="noselect gnode" struct_name="m" transform="translate(46.64,85.24)" r="6.5"><circle class="node" r="6" node_type="nucleotide" style="fill: lightgreen;"></circle><text text-anchor="middle" font-size="8" font-weight="bold" y="2.5" class="node-label">C</text></g><g class="noselect gnode" struct_name="m" transform="translate(50.34,69.98)" r="6.5"><circle class="node" r="6" node_type="nucleotide" style="fill: lightgreen;"></circle><text text-anchor="middle" font-size="8" font-weight="bold" y="2.5" class="node-label">G</text></g><g class="noselect gnode" struct_name="m" transform="translate(53.57,54.58)" r="6.5"><circle class="node" r="6" node_type="nucleotide" style="fill: lightgreen;"></circle><text text-anchor="middle" font-size="8" font-weight="bold" y="2.5" class="node-label">U</text></g><g class="noselect gnode" struct_name="m" transform="translate(56.00,39.19)" r="6.5"><circle class="node" r="6" node_type="nucleotide" style="fill: lightgreen;"></circle><text text-anchor="middle" font-size="8" font-weight="bold" y="2.5" class="node-label">A</text></g><g class="noselect gnode" struct_name="m" transform="translate(57.27,23.84)" r="6.5"><circle class="node" r="6" node_type="nucleotide" style="fill: lightgreen;"></circle><text text-anchor="middle" font-size="8" font-weight="bold" y="2.5" class="node-label">U</text></g><g class="noselect gnode" struct_name="m" transform="translate(57.09,8.53)" r="6.5"><circle class="node" r="6" node_type="nucleotide" style="fill: lightgreen;"></circle><text text-anchor="middle" font-size="8" font-weight="bold" y="2.5" class="node-label">C</text></g><g class="noselect gnode" struct_name="m" transform="translate(55.03,-6.23)" r="6.5"><circle class="node" r="6" node_type="nucleotide" style="fill: lightgreen;"></circle><text text-anchor="middle" font-size="8" font-weight="bold" y="2.5" class="node-label">A</text></g><g class="noselect gnode" struct_name="m" transform="translate(44.45,-16.87)" r="6.5"><circle class="node" r="6" node_type="nucleotide" style="fill: rgb(219, 219, 141);"></circle><text text-anchor="middle" font-size="8" font-weight="bold" y="2.5" class="node-label">A</text></g><g class="noselect gnode" struct_name="m" transform="translate(48.16,-31.05)" r="6.5"><circle class="node" r="6" node_type="nucleotide" style="fill: rgb(219, 219, 141);"></circle><text text-anchor="middle" font-size="8" font-weight="bold" y="2.5" class="node-label">U</text></g><g class="noselect gnode" struct_name="m" transform="translate(62.55,-35.23)" r="6.5"><circle class="node" r="6" node_type="nucleotide" style="fill: lightgreen;"></circle><text text-anchor="middle" font-size="8" font-weight="bold" y="2.5" class="node-label">G</text></g><g class="noselect gnode" struct_name="m" transform="translate(71.64,-47.15)" r="6.5"><circle class="node" r="6" node_type="nucleotide" style="fill: lightgreen;"></circle><text text-anchor="middle" font-size="8" font-weight="bold" y="2.5" class="node-label">A</text></g><g class="noselect gnode" struct_name="m" transform="translate(79.61,-60.50)" r="6.5"><circle class="node" r="6" node_type="nucleotide" style="fill: lightgreen;"></circle><text text-anchor="middle" font-size="8" font-weight="bold" y="2.5" class="node-label">U</text></g><g class="noselect gnode" struct_name="m" transform="translate(86.64,-74.58)" r="6.5"><circle class="node" r="6" node_type="nucleotide" style="fill: lightgreen;"></circle><text text-anchor="middle" font-size="8" font-weight="bold" y="2.5" class="node-label">G</text></g><g class="noselect gnode" struct_name="m" transform="translate(92.90,-89.04)" r="6.5"><circle class="node" r="6" node_type="nucleotide" style="fill: lightgreen;"></circle><text text-anchor="middle" font-size="8" font-weight="bold" y="2.5" class="node-label">U</text></g><g class="noselect gnode" struct_name="m" transform="translate(98.38,-103.84)" r="6.5"><circle class="node" r="6" node_type="nucleotide" style="fill: lightgreen;"></circle><text text-anchor="middle" font-size="8" font-weight="bold" y="2.5" class="node-label">G</text></g><g class="noselect gnode" struct_name="m" transform="translate(103.12,-118.87)" r="6.5"><circle class="node" r="6" node_type="nucleotide" style="fill: lightgreen;"></circle><text text-anchor="middle" font-size="8" font-weight="bold" y="2.5" class="node-label">C</text></g><g class="noselect gnode" struct_name="m" transform="translate(107.17,-133.86)" r="6.5"><circle class="node" r="6" node_type="nucleotide" style="fill: lightgreen;"></circle><text text-anchor="middle" font-size="8" font-weight="bold" y="2.5" class="node-label">U</text></g><g class="noselect gnode" struct_name="m" transform="translate(103.13,-148.66)" r="6.5"><circle class="node" r="6" node_type="nucleotide" style="fill: lightblue;"></circle><text text-anchor="middle" font-size="8" font-weight="bold" y="2.5" class="node-label">U</text></g><g class="noselect gnode" struct_name="m" transform="translate(113.69,-159.23)" r="6.5"><circle class="node" r="6" node_type="nucleotide" style="fill: lightblue;"></circle><text text-anchor="middle" font-size="8" font-weight="bold" y="2.5" class="node-label">U</text></g><g class="noselect gnode" struct_name="m" transform="translate(128.21,-155.49)" r="6.5"><circle class="node" r="6" node_type="nucleotide" style="fill: lightblue;"></circle><text text-anchor="middle" font-size="8" font-weight="bold" y="2.5" class="node-label">A</text></g><g class="noselect gnode" struct_name="m" transform="translate(132.29,-141.07)" r="6.5"><circle class="node" r="6" node_type="nucleotide" style="fill: lightblue;"></circle><text text-anchor="middle" font-size="8" font-weight="bold" y="2.5" class="node-label">A</text></g><g class="noselect gnode" struct_name="m" transform="translate(121.56,-130.03)" r="6.5"><circle class="node" r="6" node_type="nucleotide" style="fill: lightgreen;"></circle><text text-anchor="middle" font-size="8" font-weight="bold" y="2.5" class="node-label">A</text></g><g class="noselect gnode" struct_name="m" transform="translate(117.15,-114.68)" r="6.5"><circle class="node" r="6" node_type="nucleotide" style="fill: lightgreen;"></circle><text text-anchor="middle" font-size="8" font-weight="bold" y="2.5" class="node-label">G</text></g><g class="noselect gnode" struct_name="m" transform="translate(112.12,-99.13)" r="6.5"><circle class="node" r="6" node_type="nucleotide" style="fill: lightgreen;"></circle><text text-anchor="middle" font-size="8" font-weight="bold" y="2.5" class="node-label">C</text></g><g class="noselect gnode" struct_name="m" transform="translate(106.35,-83.64)" r="6.5"><circle class="node" r="6" node_type="nucleotide" style="fill: lightgreen;"></circle><text text-anchor="middle" font-size="8" font-weight="bold" y="2.5" class="node-label">A</text></g><g class="noselect gnode" struct_name="m" transform="translate(99.81,-68.46)" r="6.5"><circle class="node" r="6" node_type="nucleotide" style="fill: lightgreen;"></circle><text text-anchor="middle" font-size="8" font-weight="bold" y="2.5" class="node-label">C</text></g><g class="noselect gnode" struct_name="m" transform="translate(92.32,-53.57)" r="6.5"><circle class="node" r="6" node_type="nucleotide" style="fill: lightgreen;"></circle><text text-anchor="middle" font-size="8" font-weight="bold" y="2.5" class="node-label">A</text></g><g class="noselect gnode" struct_name="m" transform="translate(83.70,-39.10)" r="6.5"><circle class="node" r="6" node_type="nucleotide" style="fill: lightgreen;"></circle><text text-anchor="middle" font-size="8" font-weight="bold" y="2.5" class="node-label">U</text></g><g class="noselect gnode" struct_name="m" transform="translate(73.60,-25.41)" r="6.5"><circle class="node" r="6" node_type="nucleotide" style="fill: lightgreen;"></circle><text text-anchor="middle" font-size="8" font-weight="bold" y="2.5" class="node-label">C</text></g><g class="noselect gnode" struct_name="m" transform="translate(69.45,-9.38)" r="6.5"><circle class="node" r="6" node_type="nucleotide" style="fill: lightgreen;"></circle><text text-anchor="middle" font-size="8" font-weight="bold" y="2.5" class="node-label">U</text></g><g class="noselect gnode" struct_name="m" transform="translate(71.60,7.55)" r="6.5"><circle class="node" r="6" node_type="nucleotide" style="fill: lightgreen;"></circle><text text-anchor="middle" font-size="8" font-weight="bold" y="2.5" class="node-label">G</text></g><g class="noselect gnode" struct_name="m" transform="translate(71.83,24.36)" r="6.5"><circle class="node" r="6" node_type="nucleotide" style="fill: lightgreen;"></circle><text text-anchor="middle" font-size="8" font-weight="bold" y="2.5" class="node-label">A</text></g><g class="noselect gnode" struct_name="m" transform="translate(70.49,40.95)" r="6.5"><circle class="node" r="6" node_type="nucleotide" style="fill: lightgreen;"></circle><text text-anchor="middle" font-size="8" font-weight="bold" y="2.5" class="node-label">U</text></g><g class="noselect gnode" struct_name="m" transform="translate(67.93,57.23)" r="6.5"><circle class="node" r="6" node_type="nucleotide" style="fill: lightgreen;"></circle><text text-anchor="middle" font-size="8" font-weight="bold" y="2.5" class="node-label">G</text></g><g class="noselect gnode" struct_name="m" transform="translate(64.60,73.16)" r="6.5"><circle class="node" r="6" node_type="nucleotide" style="fill: lightgreen;"></circle><text text-anchor="middle" font-size="8" font-weight="bold" y="2.5" class="node-label">C</text></g><g class="noselect gnode" struct_name="m" transform="translate(61.11,88.67)" r="6.5"><circle class="node" r="6" node_type="nucleotide" style="fill: lightgreen;"></circle><text text-anchor="middle" font-size="8" font-weight="bold" y="2.5" class="node-label">G</text></g><g class="noselect gnode" struct_name="m" transform="translate(69.02,101.79)" r="6.5"><circle class="node" r="6" node_type="nucleotide" style="fill: rgb(219, 219, 141);"></circle><text text-anchor="middle" font-size="8" font-weight="bold" y="2.5" class="node-label">G</text></g><g class="noselect gnode" struct_name="m" transform="translate(65.57,116.31)" r="6.5"><circle class="node" r="6" node_type="nucleotide" style="fill: rgb(219, 219, 141);"></circle><text text-anchor="middle" font-size="8" font-weight="bold" y="2.5" class="node-label">U</text></g><g class="noselect gnode" struct_name="m" transform="translate(52.57,124.35)" r="6.5"><circle class="node" r="6" node_type="nucleotide" style="fill: lightgreen;"></circle><text text-anchor="middle" font-size="8" font-weight="bold" y="2.5" class="node-label">A</text></g><g class="noselect gnode" struct_name="m" transform="translate(48.70,139.78)" r="6.5"><circle class="node" r="6" node_type="nucleotide" style="fill: lightgreen;"></circle><text text-anchor="middle" font-size="8" font-weight="bold" y="2.5" class="node-label">U</text></g><g class="noselect gnode" struct_name="m" transform="translate(44.69,155.42)" r="6.5"><circle class="node" r="6" node_type="nucleotide" style="fill: lightgreen;"></circle><text text-anchor="middle" font-size="8" font-weight="bold" y="2.5" class="node-label">U</text></g><g class="noselect gnode" struct_name="m" transform="translate(40.58,170.94)" r="6.5"><circle class="node" r="6" node_type="nucleotide" style="fill: lightgreen;"></circle><text text-anchor="middle" font-size="8" font-weight="bold" y="2.5" class="node-label">A</text></g><g class="noselect gnode" struct_name="m" transform="translate(44.43,185.76)" r="6.5"><circle class="node" r="6" node_type="nucleotide" style="fill: rgb(219, 219, 141);"></circle><text text-anchor="middle" font-size="8" font-weight="bold" y="2.5" class="node-label">U</text></g><g class="noselect gnode" struct_name="m" transform="translate(33.46,196.47)" r="6.5"><circle class="node" r="6" node_type="nucleotide" style="fill: lightgreen;"></circle><text text-anchor="middle" font-size="8" font-weight="bold" y="2.5" class="node-label">G</text></g><g class="noselect gnode" struct_name="m" transform="translate(29.29,211.55)" r="6.5"><circle class="node" r="6" node_type="nucleotide" style="fill: lightgreen;"></circle><text text-anchor="middle" font-size="8" font-weight="bold" y="2.5" class="node-label">A</text></g><g class="noselect gnode" struct_name="m" transform="translate(38.61,223.82)" r="6.5"><circle class="node" r="6" node_type="nucleotide" style="fill: lightsalmon;"></circle><text text-anchor="middle" font-size="8" font-weight="bold" y="2.5" class="node-label">U</text></g><g class="noselect gnode" struct_name="m" transform="translate(15.68,147.10)" r="6.5"><circle class="node label" r="6" node_type="label"></circle><text text-anchor="middle" font-size="8" font-weight="bold" y="2.5" class="node-label">10</text></g><g class="noselect gnode" struct_name="m" transform="translate(41.51,8.48)" r="6.5"><circle class="node label" r="6" node_type="label"></circle><text text-anchor="middle" font-size="8" font-weight="bold" y="2.5" class="node-label">20</text></g><g class="noselect gnode" struct_name="m" transform="translate(90.19,-127.54)" r="6.5"><circle class="node label" r="6" node_type="label"></circle><text text-anchor="middle" font-size="8" font-weight="bold" y="2.5" class="node-label">30</text></g><g class="noselect gnode" struct_name="m" transform="translate(114.58,-63.33)" r="6.5"><circle class="node label" r="6" node_type="label"></circle><text text-anchor="middle" font-size="8" font-weight="bold" y="2.5" class="node-label">40</text></g><g class="noselect gnode" struct_name="m" transform="translate(76.67,88.95)" r="6.5"><circle class="node label" r="6" node_type="label"></circle><text text-anchor="middle" font-size="8" font-weight="bold" y="2.5" class="node-label">50</text></g><g class="noselect gnode" struct_name="m" transform="translate(53.10,229.48)" r="6.5"><circle class="node label" r="6" node_type="label"></circle><text text-anchor="middle" font-size="8" font-weight="bold" y="2.5" class="node-label">60</text></g><g class="noselect gnode" transform="translate(55.69,79.31)" r="6.5"><circle class="node" r="0" node_type="middle"></circle><text text-anchor="middle" font-size="8" font-weight="bold" y="2.5" class="node-label"></text></g><g class="noselect gnode" transform="translate(59.26,63.78)" r="6.5"><circle class="node" r="0" node_type="middle"></circle><text text-anchor="middle" font-size="8" font-weight="bold" y="2.5" class="node-label"></text></g><g class="noselect gnode" transform="translate(62.25,48.03)" r="6.5"><circle class="node" r="0" node_type="middle"></circle><text text-anchor="middle" font-size="8" font-weight="bold" y="2.5" class="node-label"></text></g><g class="noselect gnode" transform="translate(64.26,32.12)" r="6.5"><circle class="node" r="0" node_type="middle"></circle><text text-anchor="middle" font-size="8" font-weight="bold" y="2.5" class="node-label"></text></g><g class="noselect gnode" transform="translate(64.87,16.08)" r="6.5"><circle class="node" r="0" node_type="middle"></circle><text text-anchor="middle" font-size="8" font-weight="bold" y="2.5" class="node-label"></text></g><g class="noselect gnode" transform="translate(63.81,0.09)" r="6.5"><circle class="node" r="0" node_type="middle"></circle><text text-anchor="middle" font-size="8" font-weight="bold" y="2.5" class="node-label"></text></g><g class="noselect gnode" transform="translate(24.18,202.08)" r="6.5"><circle class="node" r="0" node_type="middle"></circle><text text-anchor="middle" font-size="8" font-weight="bold" y="2.5" class="node-label"></text></g><g class="noselect gnode" transform="translate(73.25,-36.41)" r="6.5"><circle class="node" r="0" node_type="middle"></circle><text text-anchor="middle" font-size="8" font-weight="bold" y="2.5" class="node-label"></text></g><g class="noselect gnode" transform="translate(82.11,-49.90)" r="6.5"><circle class="node" r="0" node_type="middle"></circle><text text-anchor="middle" font-size="8" font-weight="bold" y="2.5" class="node-label"></text></g><g class="noselect gnode" transform="translate(89.82,-64.17)" r="6.5"><circle class="node" r="0" node_type="middle"></circle><text text-anchor="middle" font-size="8" font-weight="bold" y="2.5" class="node-label"></text></g><g class="noselect gnode" transform="translate(96.62,-78.87)" r="6.5"><circle class="node" r="0" node_type="middle"></circle><text text-anchor="middle" font-size="8" font-weight="bold" y="2.5" class="node-label"></text></g><g class="noselect gnode" transform="translate(102.64,-93.85)" r="6.5"><circle class="node" r="0" node_type="middle"></circle><text text-anchor="middle" font-size="8" font-weight="bold" y="2.5" class="node-label"></text></g><g class="noselect gnode" transform="translate(107.86,-109.12)" r="6.5"><circle class="node" r="0" node_type="middle"></circle><text text-anchor="middle" font-size="8" font-weight="bold" y="2.5" class="node-label"></text></g><g class="noselect gnode" transform="translate(112.41,-124.39)" r="6.5"><circle class="node" r="0" node_type="middle"></circle><text text-anchor="middle" font-size="8" font-weight="bold" y="2.5" class="node-label"></text></g><g class="noselect gnode" transform="translate(35.60,161.29)" r="6.5"><circle class="node" r="0" node_type="middle"></circle><text text-anchor="middle" font-size="8" font-weight="bold" y="2.5" class="node-label"></text></g><g class="noselect gnode" transform="translate(39.71,145.78)" r="6.5"><circle class="node" r="0" node_type="middle"></circle><text text-anchor="middle" font-size="8" font-weight="bold" y="2.5" class="node-label"></text></g><g class="noselect gnode" transform="translate(43.54,130.25)" r="6.5"><circle class="node" r="0" node_type="middle"></circle><text text-anchor="middle" font-size="8" font-weight="bold" y="2.5" class="node-label"></text></g><g class="noselect gnode" transform="translate(39.58,238.41)" r="6.5"><circle class="node" r="0" node_type="middle"></circle><text text-anchor="middle" font-size="8" font-weight="bold" y="2.5" class="node-label"></text></g><g class="noselect gnode" transform="translate(31.39,251.53)" r="6.5"><circle class="node" r="0" node_type="middle"></circle><text text-anchor="middle" font-size="8" font-weight="bold" y="2.5" class="node-label"></text></g><g class="noselect gnode" transform="translate(15.86,231.97)" r="6.5"><circle class="node" r="0" node_type="middle"></circle><text text-anchor="middle" font-size="8" font-weight="bold" y="2.5" class="node-label"></text></g><g class="noselect gnode" transform="translate(117.69,-144.69)" r="6.5"><circle class="node" r="0" node_type="middle"></circle><text text-anchor="middle" font-size="8" font-weight="bold" y="2.5" class="node-label"></text></g><g class="noselect gnode" transform="translate(59.26,-20.61)" r="6.5"><circle class="node" r="0" node_type="middle"></circle><text text-anchor="middle" font-size="8" font-weight="bold" y="2.5" class="node-label"></text></g><g class="noselect gnode" transform="translate(29.92,181.72)" r="6.5"><circle class="node" r="0" node_type="middle"></circle><text text-anchor="middle" font-size="8" font-weight="bold" y="2.5" class="node-label"></text></g><g class="noselect gnode" transform="translate(49.59,104.79)" r="6.5"><circle class="node" r="0" node_type="middle"></circle><text text-anchor="middle" font-size="8" font-weight="bold" y="2.5" class="node-label"></text></g></g><line class="drag_line" x1="0" y1="0" x2="0" y2="0"></line></g></g></svg>