<svg xmlns="http://www.w3.org/2000/svg" viewBox="0 0 760 640" width="760" height="640"><style>svg {
  display: block;
  min-width: 100%;
  width: 100%;
  min-height: 100%;
}

circle.node {
  stroke: #ccc;
  stroke-width: 1px;
  opacity: 1;
  fill: white;
}

circle.node.label {
    stroke: transparent;
    stroke-width: 0;
    fill: white;
}

circle.outline_node {
    stroke-width: 1px;
    fill: red;
}

circle.protein {
    fill: gray;
    fill-opacity: 0.5;
    stroke-width: 4;
}

circle.hidden_outline {
    stroke-width: 0px;
}


line.link {
  stroke: #999;
  stroke-opacity: 0.8;
  stroke-width: 2;
}

line.basepair {
  stroke: red;
}

line.intermolecule {
  stroke: blue;
}

line.chain_chain {
  stroke-dasharray: 3,3;
}

line.fake {
  stroke: green;
}

.transparent {
    fill: transparent;
    stroke-width: 0;
    stroke-opacity: 0;
    opacity: 0;
    visibility: hidden;
}

.drag_line {
  stroke: #999;
  stroke-width: 2;
  pointer-events: none;
}

.drag_line_hidden {
  stroke: #999;
  stroke-width: 0;
  pointer-events: none;
}

.d3-tip {
    line-height: 1;
    font-weight: bold;
    padding: 6px;
    background: rgba(0, 0, 0, 0.6);
    color: #fff;
    border-radius: 4px;
    pointer-events: none;
          }

text.node-label {
    font-weight: bold;
    font-family: Tahoma, Geneva, sans-serif;
    color: rgb(100,100,100);
    pointer-events: none;
}

text {
    pointer-events: none;
}

g.gnode {

}

circle.outline_node.selected {
    visibility: visible;
}

circle.outline_node {
    visibility: hidden;
}

.brush .extent {
  fill-opacity: .1;
  stroke: #fff;
  shape-rendering: crispEdges;
}

.noselect {
    -webkit-touch-callout: none;
    -webkit-user-select: none;
    -khtml-user-select: none;
    -moz-user-select: none;
    -ms-user-select: none;
    user-select: none;
}

svg {
  display: block;
  min-width: 100%;
  width: 100%;
  min-height: 100%;
}

circle.node {
  stroke: #ccc;
  stroke-width: 1px;
  opacity: 1;
  fill: white;
}

circle.node.label {
    stroke: transparent;
    stroke-width: 0;
    fill: white;
}

circle.outline_node {
    stroke-width: 1px;
    fill: red;
}

circle.protein {
    fill: gray;
    fill-opacity: 0.5;
    stroke-width: 4;
}

circle.hidden_outline {
    stroke-width: 0px;
}


line.link {
  stroke: #999;
  stroke-opacity: 0.8;
  stroke-width: 2;
}

line.basepair {
  stroke: red;
}

line.intermolecule {
  stroke: blue;
}

line.chain_chain {
  stroke-dasharray: 3,3;
}

line.fake {
  stroke: green;
}

.transparent {
    fill: transparent;
    stroke-width: 0;
    stroke-opacity: 0;
    opacity: 0;
    visibility: hidden;
}

.drag_line {
  stroke: #999;
  stroke-width: 2;
  pointer-events: none;
}

.drag_line_hidden {
  stroke: #999;
  stroke-width: 0;
  pointer-events: none;
}

.d3-tip {
    line-height: 1;
    font-weight: bold;
    padding: 6px;
    background: rgba(0, 0, 0, 0.6);
    color: #fff;
    border-radius: 4px;
    pointer-events: none;
          }

text.node-label {
    font-weight: bold;
    font-family: Tahoma, Geneva, sans-serif;
    color: rgb(100,100,100);
    pointer-events: none;
}

text {
    pointer-events: none;
}

g.gnode {

}

circle.outline_node.selected {
    visibility: visible;
}

circle.outline_node {
    visibility: hidden;
}

.brush .extent {
  fill-opacity: .1;
  stroke: #fff;
  shape-rendering: crispEdges;
}

.noselect {
    -webkit-touch-callout: none;
    -webkit-user-select: none;
    -khtml-user-select: none;
    -moz-user-select: none;
    -ms-user-select: none;
    user-select: none;
}
/*# sourceURL=/Users/yumanakamura/ipy_sandbox/sandbox/claude_sandbox/mrna-transformer/scripts/eval/prerender/forna_vendor/fornac.css*/</style><style></style><g><g class="brush" style="pointer-events: all; -webkit-tap-highlight-color: rgba(0, 0, 0, 0);"><rect class="background" x="0" width="760" y="0" height="640" style="visibility: hidden; cursor: auto;"></rect><rect class="extent" x="0" width="0" y="0" height="0" style="cursor: move;"></rect><g class="resize n" transform="translate(0,0)" style="cursor: ns-resize; display: none;"><rect y="-3" width="0" height="6" style="visibility: hidden;"></rect></g><g class="resize e" transform="translate(0,0)" style="cursor: ew-resize; display: none;"><rect x="-3" width="6" height="0" style="visibility: hidden;"></rect></g><g class="resize s" transform="translate(0,0)" style="cursor: ns-resize; display: none;"><rect y="-3" width="0" height="6" style="visibility: hidden;"></rect></g><g class="resize w" transform="translate(0,0)" style="cursor: ew-resize; display: none;"><rect x="-3" width="6" height="0" style="visibility: hidden;"></rect></g><g class="resize nw" transform="translate(0,0)" style="cursor: nwse-resize; display: none;"><rect x="-3" y="-3" width="6" height="6" style="visibility: hidden;"></rect></g><g class="resize ne" transform="translate(0,0)" style="cursor: nesw-resize; display: none;"><rect x="-3" y="-3" width="6" height="6" style="visibility: hidden;"></rect></g><g class="resize se" transform="translate(0,0)" style="cursor: nwse-resize; display: none;"><rect x="-3" y="-3" width="6" height="6" style="visibility: hidden;"></rect></g><g class="resize sw" transform="translate(0,0)" style="cursor: nesw-resize; display: none;"><rect x="-3" y="-3" width="6" height="6" style="visibility: hidden;"></rect></g></g><g transform="translate(189.24,244.39) scale(1.56)"><g><line class="link backbone" x1="65.51" y1="199.64" x2="57.34" y2="212.11"></line><line class="link backbone" x1="57.34" y1="212.11" x2="44.81" y2="220.21"></line><line class="link backbone" x1="44.81" y1="220.21" x2="30.05" y2="222.38"></line><line class="link backbone" x1="30.05" y1="222.38" x2="15.64" y2="218.50"></line><line class="link backbone" x1="15.64" y1="218.50" x2="3.85" y2="209.39"></line><line class="link backbone" x1="3.85" y1="209.39" x2="-3.32" y2="196.27"></line><line class="link backbone" x1="-3.32" y1="196.27" x2="-4.37" y2="181.35"></line><line class="link backbone" x1="-4.37" y1="181.35" x2="0.76" y2="167.26"></line><line class="link backbone" x1="0.76" y1="167.26" x2="11.27" y2="156.35"></line><line class="link backbone" x1="11.27" y1="156.35" x2="25.12" y2="150.63"></line><line class="link basepair" x1="40.56" y1="150.55" x2="53.89" y2="157.15"></line><line class="link backbone" x1="25.12" y1="150.63" x2="40.56" y2="150.55"></line><line class="link basepair" x1="48.37" y1="136.29" x2="61.10" y2="143.23"></line><line class="link backbone" x1="40.56" y1="150.55" x2="48.37" y2="136.29"></line><line class="link basepair" x1="56.13" y1="122.18" x2="68.92" y2="129.01"></line><line class="link backbone" x1="48.37" y1="136.29" x2="56.13" y2="122.18"></line><line class="link basepair" x1="63.01" y1="108.24" x2="76.56" y2="114.54"></line><line class="link backbone" x1="56.13" y1="122.18" x2="63.01" y2="108.24"></line><line class="link backbone" x1="63.01" y1="108.24" x2="59.16" y2="93.38"></line><line class="link backbone" x1="59.16" y1="93.38" x2="68.20" y2="81.27"></line><line class="link basepair" x1="83.62" y1="80.74" x2="93.51" y2="91.98"></line><line class="link backbone" x1="68.20" y1="81.27" x2="83.62" y2="80.74"></line><line class="link basepair" x1="94.85" y1="70.33" x2="105.26" y2="80.42"></line><line class="link backbone" x1="83.62" y1="80.74" x2="94.85" y2="70.33"></line><line class="link basepair" x1="105.27" y1="58.70" x2="116.39" y2="68.02"></line><line class="link backbone" x1="94.85" y1="70.33" x2="105.27" y2="58.70"></line><line class="link basepair" x1="115.09" y1="46.27" x2="126.65" y2="54.94"></line><line class="link backbone" x1="105.27" y1="58.70" x2="115.09" y2="46.27"></line><line class="link basepair" x1="124.42" y1="33.26" x2="136.26" y2="41.54"></line><line class="link backbone" x1="115.09" y1="46.27" x2="124.42" y2="33.26"></line><line class="link basepair" x1="133.24" y1="20.00" x2="145.53" y2="28.32"></line><line class="link backbone" x1="124.42" y1="33.26" x2="133.24" y2="20.00"></line><line class="link backbone" x1="133.24" y1="20.00" x2="128.21" y2="5.51"></line><line class="link backbone" x1="128.21" y1="5.51" x2="132.36" y2="-8.86"></line><line class="link backbone" x1="132.36" y1="-8.86" x2="144.16" y2="-18.14"></line><line class="link basepair" x1="159.45" y1="-18.61" x2="171.71" y2="-10.22"></line><line class="link backbone" x1="144.16" y1="-18.14" x2="159.45" y2="-18.61"></line><line class="link basepair" x1="168.69" y1="-31.62" x2="180.61" y2="-23.24"></line><line class="link backbone" x1="159.45" y1="-18.61" x2="168.69" y2="-31.62"></line><line class="link basepair" x1="178.01" y1="-44.76" x2="189.88" y2="-36.37"></line><line class="link backbone" x1="168.69" y1="-31.62" x2="178.01" y2="-44.76"></line><line class="link basepair" x1="187.23" y1="-57.90" x2="199.19" y2="-49.57"></line><line class="link backbone" x1="178.01" y1="-44.76" x2="187.23" y2="-57.90"></line><line class="link basepair" x1="196.28" y1="-71.07" x2="208.32" y2="-62.91"></line><line class="link backbone" x1="187.23" y1="-57.90" x2="196.28" y2="-71.07"></line><line class="link basepair" x1="204.90" y1="-84.32" x2="217.34" y2="-76.05"></line><line class="link backbone" x1="196.28" y1="-71.07" x2="204.90" y2="-84.32"></line><line class="link backbone" x1="204.90" y1="-84.32" x2="199.83" y2="-98.81"></line><line class="link backbone" x1="199.83" y1="-98.81" x2="203.74" y2="-113.26"></line><line class="link backbone" x1="203.74" y1="-113.26" x2="215.50" y2="-122.70"></line><line class="link backbone" x1="215.50" y1="-122.70" x2="230.47" y2="-123.07"></line><line class="link backbone" x1="230.47" y1="-123.07" x2="242.94" y2="-114.90"></line><line class="link backbone" x1="242.94" y1="-114.90" x2="248.48" y2="-100.97"></line><line class="link backbone" x1="248.48" y1="-100.97" x2="244.39" y2="-86.47"></line><line class="link backbone" x1="244.39" y1="-86.47" x2="232.69" y2="-77.13"></line><line class="link basepair" x1="217.34" y1="-76.05" x2="204.90" y2="-84.32"></line><line class="link backbone" x1="232.69" y1="-77.13" x2="217.34" y2="-76.05"></line><line class="link basepair" x1="208.32" y1="-62.91" x2="196.28" y2="-71.07"></line><line class="link backbone" x1="217.34" y1="-76.05" x2="208.32" y2="-62.91"></line><line class="link basepair" x1="199.19" y1="-49.57" x2="187.23" y2="-57.90"></line><line class="link backbone" x1="208.32" y1="-62.91" x2="199.19" y2="-49.57"></line><line class="link basepair" x1="189.88" y1="-36.37" x2="178.01" y2="-44.76"></line><line class="link backbone" x1="199.19" y1="-49.57" x2="189.88" y2="-36.37"></line><line class="link basepair" x1="180.61" y1="-23.24" x2="168.69" y2="-31.62"></line><line class="link backbone" x1="189.88" y1="-36.37" x2="180.61" y2="-23.24"></line><line class="link basepair" x1="171.71" y1="-10.22" x2="159.45" y2="-18.61"></line><line class="link backbone" x1="180.61" y1="-23.24" x2="171.71" y2="-10.22"></line><line class="link backbone" x1="171.71" y1="-10.22" x2="176.90" y2="4.09"></line><line class="link backbone" x1="176.90" y1="4.09" x2="172.67" y2="18.49"></line><line class="link backbone" x1="172.67" y1="18.49" x2="160.87" y2="27.59"></line><line class="link basepair" x1="145.53" y1="28.32" x2="133.24" y2="20.00"></line><line class="link backbone" x1="160.87" y1="27.59" x2="145.53" y2="28.32"></line><line class="link basepair" x1="136.26" y1="41.54" x2="124.42" y2="33.26"></line><line class="link backbone" x1="145.53" y1="28.32" x2="136.26" y2="41.54"></line><line class="link basepair" x1="126.65" y1="54.94" x2="115.09" y2="46.27"></line><line class="link backbone" x1="136.26" y1="41.54" x2="126.65" y2="54.94"></line><line class="link basepair" x1="116.39" y1="68.02" x2="105.27" y2="58.70"></line><line class="link backbone" x1="126.65" y1="54.94" x2="116.39" y2="68.02"></line><line class="link basepair" x1="105.26" y1="80.42" x2="94.85" y2="70.33"></line><line class="link backbone" x1="116.39" y1="68.02" x2="105.26" y2="80.42"></line><line class="link basepair" x1="93.51" y1="91.98" x2="83.62" y2="80.74"></line><line class="link backbone" x1="105.26" y1="80.42" x2="93.51" y2="91.98"></line><line class="link backbone" x1="93.51" y1="91.98" x2="90.41" y2="107.29"></line><line class="link basepair" x1="76.56" y1="114.54" x2="63.01" y2="108.24"></line><line class="link backbone" x1="90.41" y1="107.29" x2="76.56" y2="114.54"></line><line class="link basepair" x1="68.92" y1="129.01" x2="56.13" y2="122.18"></line><line class="link backbone" x1="76.56" y1="114.54" x2="68.92" y2="129.01"></line><line class="link basepair" x1="61.10" y1="143.23" x2="48.37" y2="136.29"></line><line class="link backbone" x1="68.92" y1="129.01" x2="61.10" y2="143.23"></line><line class="link basepair" x1="53.89" y1="157.15" x2="40.56" y2="150.55"></line><line class="link backbone" x1="61.10" y1="143.23" x2="53.89" y2="157.15"></line><line class="link label_link" x1="11.27" y1="156.35" x2="-2.26" y2="148.79"></line><line class="link label_link" x1="105.27" y1="58.70" x2="92.51" y2="49.79"></line><line class="link label_link" x1="187.23" y1="-57.90" x2="175.00" y2="-67.59"></line><line class="link label_link" x1="232.69" y1="-77.13" x2="246.31" y2="-69.72"></line><line class="link label_link" x1="145.53" y1="28.32" x2="156.91" y2="38.91"></line><line class="link label_link" x1="53.89" y1="157.15" x2="55.36" y2="172.32"></line><line class="link fake transparent" x1="83.62" y1="80.74" x2="94.42" y2="81.20"></line><line class="link fake transparent" x1="83.62" y1="80.74" x2="105.26" y2="80.42"></line><line class="link fake transparent" x1="94.85" y1="70.33" x2="94.42" y2="81.20"></line><line class="link fake transparent" x1="105.26" y1="80.42" x2="94.42" y2="81.20"></line><line class="link fake transparent" x1="93.51" y1="91.98" x2="94.42" y2="81.20"></line><line class="link fake transparent" x1="94.85" y1="70.33" x2="105.67" y2="69.58"></line><line class="link fake transparent" x1="105.27" y1="58.70" x2="105.67" y2="69.58"></line><line class="link fake transparent" x1="116.39" y1="68.02" x2="105.67" y2="69.58"></line><line class="link fake transparent" x1="105.26" y1="80.42" x2="105.67" y2="69.58"></line><line class="link fake transparent" x1="105.27" y1="58.70" x2="116.03" y2="57.14"></line><line class="link fake transparent" x1="115.09" y1="46.27" x2="116.03" y2="57.14"></line><line class="link fake transparent" x1="126.65" y1="54.94" x2="116.03" y2="57.14"></line><line class="link fake transparent" x1="116.39" y1="68.02" x2="116.03" y2="57.14"></line><line class="link fake transparent" x1="115.09" y1="46.27" x2="125.72" y2="44.08"></line><line class="link fake transparent" x1="124.42" y1="33.26" x2="125.72" y2="44.08"></line><line class="link fake transparent" x1="136.26" y1="41.54" x2="125.72" y2="44.08"></line><line class="link fake transparent" x1="126.65" y1="54.94" x2="125.72" y2="44.08"></line><line class="link fake transparent" x1="124.42" y1="33.26" x2="134.95" y2="30.73"></line><line class="link fake transparent" x1="133.24" y1="20.00" x2="134.95" y2="30.73"></line><line class="link fake transparent" x1="145.53" y1="28.32" x2="134.95" y2="30.73"></line><line class="link fake transparent" x1="136.26" y1="41.54" x2="134.95" y2="30.73"></line><line class="link fake transparent" x1="159.45" y1="-18.61" x2="170.01" y2="-20.89"></line><line class="link fake transparent" x1="168.69" y1="-31.62" x2="170.01" y2="-20.89"></line><line class="link fake transparent" x1="180.61" y1="-23.24" x2="170.01" y2="-20.89"></line><line class="link fake transparent" x1="171.71" y1="-10.22" x2="170.01" y2="-20.89"></line><line class="link fake transparent" x1="168.69" y1="-31.62" x2="179.28" y2="-33.99"></line><line class="link fake transparent" x1="178.01" y1="-44.76" x2="179.28" y2="-33.99"></line><line class="link fake transparent" x1="189.88" y1="-36.37" x2="179.28" y2="-33.99"></line><line class="link fake transparent" x1="180.61" y1="-23.24" x2="179.28" y2="-33.99"></line><line class="link fake transparent" x1="178.01" y1="-44.76" x2="188.60" y2="-47.13"></line><line class="link fake transparent" x1="187.23" y1="-57.90" x2="188.60" y2="-47.13"></line><line class="link fake transparent" x1="199.19" y1="-49.57" x2="188.60" y2="-47.13"></line><line class="link fake transparent" x1="189.88" y1="-36.37" x2="188.60" y2="-47.13"></line><line class="link fake transparent" x1="187.23" y1="-57.90" x2="197.82" y2="-60.34"></line><line class="link fake transparent" x1="196.28" y1="-71.07" x2="197.82" y2="-60.34"></line><line class="link fake transparent" x1="208.32" y1="-62.91" x2="197.82" y2="-60.34"></line><line class="link fake transparent" x1="199.19" y1="-49.57" x2="197.82" y2="-60.34"></line><line class="link fake transparent" x1="196.28" y1="-71.07" x2="206.78" y2="-73.63"></line><line class="link fake transparent" x1="204.90" y1="-84.32" x2="206.78" y2="-73.63"></line><line class="link fake transparent" x1="217.34" y1="-76.05" x2="206.78" y2="-73.63"></line><line class="link fake transparent" x1="208.32" y1="-62.91" x2="206.78" y2="-73.63"></line><line class="link fake transparent" x1="40.56" y1="150.55" x2="50.79" y2="146.88"></line><line class="link fake transparent" x1="48.37" y1="136.29" x2="50.79" y2="146.88"></line><line class="link fake transparent" x1="61.10" y1="143.23" x2="50.79" y2="146.88"></line><line class="link fake transparent" x1="53.89" y1="157.15" x2="50.79" y2="146.88"></line><line class="link fake transparent" x1="48.37" y1="136.29" x2="58.65" y2="132.70"></line><line class="link fake transparent" x1="56.13" y1="122.18" x2="58.65" y2="132.70"></line><line class="link fake transparent" x1="68.92" y1="129.01" x2="58.65" y2="132.70"></line><line class="link fake transparent" x1="61.10" y1="143.23" x2="58.65" y2="132.70"></line><line class="link fake transparent" x1="56.13" y1="122.18" x2="66.37" y2="118.49"></line><line class="link fake transparent" x1="63.01" y1="108.24" x2="66.37" y2="118.49"></line><line class="link fake transparent" x1="76.56" y1="114.54" x2="66.37" y2="118.49"></line><line class="link fake transparent" x1="68.92" y1="129.01" x2="66.37" y2="118.49"></line><line class="link fake transparent" x1="65.51" y1="199.64" x2="31.77" y2="186.06"></line><line class="link fake transparent" x1="65.51" y1="199.64" x2="-4.37" y2="181.35"></line><line class="link fake transparent" x1="57.34" y1="212.11" x2="31.77" y2="186.06"></line><line class="link fake transparent" x1="57.34" y1="212.11" x2="0.76" y2="167.26"></line><line class="link fake transparent" x1="44.81" y1="220.21" x2="31.77" y2="186.06"></line><line class="link fake transparent" x1="44.81" y1="220.21" x2="11.27" y2="156.35"></line><line class="link fake transparent" x1="30.05" y1="222.38" x2="31.77" y2="186.06"></line><line class="link fake transparent" x1="30.05" y1="222.38" x2="25.12" y2="150.63"></line><line class="link fake transparent" x1="15.64" y1="218.50" x2="31.77" y2="186.06"></line><line class="link fake transparent" x1="15.64" y1="218.50" x2="40.56" y2="150.55"></line><line class="link fake transparent" x1="3.85" y1="209.39" x2="31.77" y2="186.06"></line><line class="link fake transparent" x1="3.85" y1="209.39" x2="53.89" y2="157.15"></line><line class="link fake transparent" x1="-3.32" y1="196.27" x2="31.77" y2="186.06"></line><line class="link fake transparent" x1="-3.32" y1="196.27" x2="63.68" y2="169.34"></line><line class="link fake transparent" x1="-4.37" y1="181.35" x2="31.77" y2="186.06"></line><line class="link fake transparent" x1="-4.37" y1="181.35" x2="68.04" y2="183.20"></line><line class="link fake transparent" x1="0.76" y1="167.26" x2="31.77" y2="186.06"></line><line class="link fake transparent" x1="0.76" y1="167.26" x2="65.51" y2="199.64"></line><line class="link fake transparent" x1="11.27" y1="156.35" x2="31.77" y2="186.06"></line><line class="link fake transparent" x1="11.27" y1="156.35" x2="57.34" y2="212.11"></line><line class="link fake transparent" x1="25.12" y1="150.63" x2="31.77" y2="186.06"></line><line class="link fake transparent" x1="25.12" y1="150.63" x2="44.81" y2="220.21"></line><line class="link fake transparent" x1="40.56" y1="150.55" x2="31.77" y2="186.06"></line><line class="link fake transparent" x1="40.56" y1="150.55" x2="30.05" y2="222.38"></line><line class="link fake transparent" x1="53.89" y1="157.15" x2="31.77" y2="186.06"></line><line class="link fake transparent" x1="53.89" y1="157.15" x2="15.64" y2="218.50"></line><line class="link fake transparent" x1="204.90" y1="-84.32" x2="223.96" y2="-99.66"></line><line class="link fake transparent" x1="204.90" y1="-84.32" x2="242.94" y2="-114.90"></line><line class="link fake transparent" x1="199.83" y1="-98.81" x2="223.96" y2="-99.66"></line><line class="link fake transparent" x1="199.83" y1="-98.81" x2="248.48" y2="-100.97"></line><line class="link fake transparent" x1="203.74" y1="-113.26" x2="223.96" y2="-99.66"></line><line class="link fake transparent" x1="203.74" y1="-113.26" x2="244.39" y2="-86.47"></line><line class="link fake transparent" x1="215.50" y1="-122.70" x2="223.96" y2="-99.66"></line><line class="link fake transparent" x1="215.50" y1="-122.70" x2="232.69" y2="-77.13"></line><line class="link fake transparent" x1="230.47" y1="-123.07" x2="223.96" y2="-99.66"></line><line class="link fake transparent" x1="230.47" y1="-123.07" x2="217.34" y2="-76.05"></line><line class="link fake transparent" x1="242.94" y1="-114.90" x2="223.96" y2="-99.66"></line><line class="link fake transparent" x1="242.94" y1="-114.90" x2="204.90" y2="-84.32"></line><line class="link fake transparent" x1="248.48" y1="-100.97" x2="223.96" y2="-99.66"></line><line class="link fake transparent" x1="248.48" y1="-100.97" x2="199.83" y2="-98.81"></line><line class="link fake transparent" x1="244.39" y1="-86.47" x2="223.96" y2="-99.66"></line><line class="link fake transparent" x1="244.39" y1="-86.47" x2="203.74" y2="-113.26"></line><line class="link fake transparent" x1="232.69" y1="-77.13" x2="223.96" y2="-99.66"></line><line class="link fake transparent" x1="232.69" y1="-77.13" x2="215.50" y2="-122.70"></line><line class="link fake transparent" x1="217.34" y1="-76.05" x2="223.96" y2="-99.66"></line><line class="link fake transparent" x1="217.34" y1="-76.05" x2="230.47" y2="-123.07"></line><line class="link fake transparent" x1="133.24" y1="20.00" x2="152.47" y2="4.84"></line><line class="link fake transparent" x1="133.24" y1="20.00" x2="171.71" y2="-10.22"></line><line class="link fake transparent" x1="128.21" y1="5.51" x2="152.47" y2="4.84"></line><line class="link fake transparent" x1="128.21" y1="5.51" x2="176.90" y2="4.09"></line><line class="link fake transparent" x1="132.36" y1="-8.86" x2="152.47" y2="4.84"></line><line class="link fake transparent" x1="132.36" y1="-8.86" x2="172.67" y2="18.49"></line><line class="link fake transparent" x1="144.16" y1="-18.14" x2="152.47" y2="4.84"></line><line class="link fake transparent" x1="144.16" y1="-18.14" x2="160.87" y2="27.59"></line><line class="link fake transparent" x1="159.45" y1="-18.61" x2="152.47" y2="4.84"></line><line class="link fake transparent" x1="159.45" y1="-18.61" x2="145.53" y2="28.32"></line><line class="link fake transparent" x1="171.71" y1="-10.22" x2="152.47" y2="4.84"></line><line class="link fake transparent" x1="171.71" y1="-10.22" x2="133.24" y2="20.00"></line><line class="link fake transparent" x1="176.90" y1="4.09" x2="152.47" y2="4.84"></line><line class="link fake transparent" x1="176.90" y1="4.09" x2="128.21" y2="5.51"></line><line class="link fake transparent" x1="172.67" y1="18.49" x2="152.47" y2="4.84"></line><line class="link fake transparent" x1="172.67" y1="18.49" x2="132.36" y2="-8.86"></line><line class="link fake transparent" x1="160.87" y1="27.59" x2="152.47" y2="4.84"></line><line class="link fake transparent" x1="160.87" y1="27.59" x2="144.16" y2="-18.14"></line><line class="link fake transparent" x1="145.53" y1="28.32" x2="152.47" y2="4.84"></line><line class="link fake transparent" x1="145.53" y1="28.32" x2="159.45" y2="-18.61"></line><line class="link fake transparent" x1="63.01" y1="108.24" x2="76.49" y2="96.87"></line><line class="link fake transparent" x1="63.01" y1="108.24" x2="83.62" y2="80.74"></line><line class="link fake transparent" x1="59.16" y1="93.38" x2="76.49" y2="96.87"></line><line class="link fake transparent" x1="59.16" y1="93.38" x2="93.51" y2="91.98"></line><line class="link fake transparent" x1="68.20" y1="81.27" x2="76.49" y2="96.87"></line><line class="link fake transparent" x1="68.20" y1="81.27" x2="90.41" y2="107.29"></line><line class="link fake transparent" x1="83.62" y1="80.74" x2="76.49" y2="96.87"></line><line class="link fake transparent" x1="83.62" y1="80.74" x2="76.56" y2="114.54"></line><line class="link fake transparent" x1="93.51" y1="91.98" x2="76.49" y2="96.87"></line><line class="link fake transparent" x1="93.51" y1="91.98" x2="63.01" y2="108.24"></line><line class="link fake transparent" x1="90.41" y1="107.29" x2="76.49" y2="96.87"></line><line class="link fake transparent" x1="90.41" y1="107.29" x2="59.16" y2="93.38"></line><line class="link fake transparent" x1="76.56" y1="114.54" x2="76.49" y2="96.87"></line><line class="link fake transparent" x1="76.56" y1="114.54" x2="68.20" y2="81.27"></line></g><g><g class="noselect gnode" struct_name="m" transform="translate(65.51,199.64)" r="6.5"><circle class="node" r="6" node_type="nucleotide" style="fill: lightsalmon;"></circle><text text-anchor="middle" font-size="8" font-weight="bold" y="2.5" class="node-label">C</text></g><g class="noselect gnode" struct_name="m" transform="translate(57.34,212.11)" r="6.5"><circle class="node" r="6" node_type="nucleotide" style="fill: lightsalmon;"></circle><text text-anchor="middle" font-size="8" font-weight="bold" y="2.5" class="node-label">C</text></g><g class="noselect gnode" struct_name="m" transform="translate(44.81,220.21)" r="6.5"><circle class="node" r="6" node_type="nucleotide" style="fill: lightsalmon;"></circle><text text-anchor="middle" font-size="8" font-weight="bold" y="2.5" class="node-label">U</text></g><g class="noselect gnode" struct_name="m" transform="translate(30.05,222.38)" r="6.5"><circle class="node" r="6" node_type="nucleotide" style="fill: lightsalmon;"></circle><text text-anchor="middle" font-size="8" font-weight="bold" y="2.5" class="node-label">U</text></g><g class="noselect gnode" struct_name="m" transform="translate(15.64,218.50)" r="6.5"><circle class="node" r="6" node_type="nucleotide" style="fill: lightsalmon;"></circle><text text-anchor="middle" font-size="8" font-weight="bold" y="2.5" class="node-label">A</text></g><g class="noselect gnode" struct_name="m" transform="translate(3.85,209.39)" r="6.5"><circle class="node" r="6" node_type="nucleotide" style="fill: lightsalmon;"></circle><text text-anchor="middle" font-size="8" font-weight="bold" y="2.5" class="node-label">U</text></g><g class="noselect gnode" struct_name="m" transform="translate(-3.32,196.27)" r="6.5"><circle class="node" r="6" node_type="nucleotide" style="fill: lightsalmon;"></circle><text text-anchor="middle" font-size="8" font-weight="bold" y="2.5" class="node-label">A</text></g><g class="noselect gnode" struct_name="m" transform="translate(-4.37,181.35)" r="6.5"><circle class="node" r="6" node_type="nucleotide" style="fill: lightsalmon;"></circle><text text-anchor="middle" font-size="8" font-weight="bold" y="2.5" class="node-label">A</text></g><g class="noselect gnode" struct_name="m" transform="translate(0.76,167.26)" r="6.5"><circle class="node" r="6" node_type="nucleotide" style="fill: lightsalmon;"></circle><text text-anchor="middle" font-size="8" font-weight="bold" y="2.5" class="node-label">A</text></g><g class="noselect gnode" struct_name="m" transform="translate(11.27,156.35)" r="6.5"><circle class="node" r="6" node_type="nucleotide" style="fill: lightsalmon;"></circle><text text-anchor="middle" font-size="8" font-weight="bold" y="2.5" class="node-label">A</text></g><g class="noselect gnode" struct_name="m" transform="translate(25.12,150.63)" r="6.5"><circle class="node" r="6" node_type="nucleotide" style="fill: lightsalmon;"></circle><text text-anchor="middle" font-size="8" font-weight="bold" y="2.5" class="node-label">U</text></g><g class="noselect gnode" struct_name="m" transform="translate(40.56,150.55)" r="6.5"><circle class="node" r="6" node_type="nucleotide" style="fill: lightgreen;"></circle><text text-anchor="middle" font-size="8" font-weight="bold" y="2.5" class="node-label">C</text></g><g class="noselect gnode" struct_name="m" transform="translate(48.37,136.29)" r="6.5"><circle class="node" r="6" node_type="nucleotide" style="fill: lightgreen;"></circle><text text-anchor="middle" font-size="8" font-weight="bold" y="2.5" class="node-label">G</text></g><g class="noselect gnode" struct_name="m" transform="translate(56.13,122.18)" r="6.5"><circle class="node" r="6" node_type="nucleotide" style="fill: lightgreen;"></circle><text text-anchor="middle" font-size="8" font-weight="bold" y="2.5" class="node-label">C</text></g><g class="noselect gnode" struct_name="m" transform="translate(63.01,108.24)" r="6.5"><circle class="node" r="6" node_type="nucleotide" style="fill: lightgreen;"></circle><text text-anchor="middle" font-size="8" font-weight="bold" y="2.5" class="node-label">C</text></g><g class="noselect gnode" struct_name="m" transform="translate(59.16,93.38)" r="6.5"><circle class="node" r="6" node_type="nucleotide" style="fill: rgb(219, 219, 141);"></circle><text text-anchor="middle" font-size="8" font-weight="bold" y="2.5" class="node-label">C</text></g><g class="noselect gnode" struct_name="m" transform="translate(68.20,81.27)" r="6.5"><circle class="node" r="6" node_type="nucleotide" style="fill: rgb(219, 219, 141);"></circle><text text-anchor="middle" font-size="8" font-weight="bold" y="2.5" class="node-label">A</text></g><g class="noselect gnode" struct_name="m" transform="translate(83.62,80.74)" r="6.5"><circle class="node" r="6" node_type="nucleotide" style="fill: lightgreen;"></circle><text text-anchor="middle" font-size="8" font-weight="bold" y="2.5" class="node-label">G</text></g><g class="noselect gnode" struct_name="m" transform="translate(94.85,70.33)" r="6.5"><circle class="node" r="6" node_type="nucleotide" style="fill: lightgreen;"></circle><text text-anchor="middle" font-size="8" font-weight="bold" y="2.5" class="node-label">C</text></g><g class="noselect gnode" struct_name="m" transform="translate(105.27,58.70)" r="6.5"><circle class="node" r="6" node_type="nucleotide" style="fill: lightgreen;"></circle><text text-anchor="middle" font-size="8" font-weight="bold" y="2.5" class="node-label">G</text></g><g class="noselect gnode" struct_name="m" transform="translate(115.09,46.27)" r="6.5"><circle class="node" r="6" node_type="nucleotide" style="fill: lightgreen;"></circle><text text-anchor="middle" font-size="8" font-weight="bold" y="2.5" class="node-label">G</text></g><g class="noselect gnode" struct_name="m" transform="translate(124.42,33.26)" r="6.5"><circle class="node" r="6" node_type="nucleotide" style="fill: lightgreen;"></circle><text text-anchor="middle" font-size="8" font-weight="bold" y="2.5" class="node-label">G</text></g><g class="noselect gnode" struct_name="m" transform="translate(133.24,20.00)" r="6.5"><circle class="node" r="6" node_type="nucleotide" style="fill: lightgreen;"></circle><text text-anchor="middle" font-size="8" font-weight="bold" y="2.5" class="node-label">A</text></g><g class="noselect gnode" struct_name="m" transform="translate(128.21,5.51)" r="6.5"><circle class="node" r="6" node_type="nucleotide" style="fill: rgb(219, 219, 141);"></circle><text text-anchor="middle" font-size="8" font-weight="bold" y="2.5" class="node-label">U</text></g><g class="noselect gnode" struct_name="m" transform="translate(132.36,-8.86)" r="6.5"><circle class="node" r="6" node_type="nucleotide" style="fill: rgb(219, 219, 141);"></circle><text text-anchor="middle" font-size="8" font-weight="bold" y="2.5" class="node-label">C</text></g><g class="noselect gnode" struct_name="m" transform="translate(144.16,-18.14)" r="6.5"><circle class="node" r="6" node_type="nucleotide" style="fill: rgb(219, 219, 141);"></circle><text text-anchor="middle" font-size="8" font-weight="bold" y="2.5" class="node-label">U</text></g><g class="noselect gnode" struct_name="m" transform="translate(159.45,-18.61)" r="6.5"><circle class="node" r="6" node_type="nucleotide" style="fill: lightgreen;"></circle><text text-anchor="middle" font-size="8" font-weight="bold" y="2.5" class="node-label">G</text></g><g class="noselect gnode" struct_name="m" transform="translate(168.69,-31.62)" r="6.5"><circle class="node" r="6" node_type="nucleotide" style="fill: lightgreen;"></circle><text text-anchor="middle" font-size="8" font-weight="bold" y="2.5" class="node-label">A</text></g><g class="noselect gnode" struct_name="m" transform="translate(178.01,-44.76)" r="6.5"><circle class="node" r="6" node_type="nucleotide" style="fill: lightgreen;"></circle><text text-anchor="middle" font-size="8" font-weight="bold" y="2.5" class="node-label">G</text></g><g class="noselect gnode" struct_name="m" transform="translate(187.23,-57.90)" r="6.5"><circle class="node" r="6" node_type="nucleotide" style="fill: lightgreen;"></circle><text text-anchor="middle" font-size="8" font-weight="bold" y="2.5" class="node-label">U</text></g><g class="noselect gnode" struct_name="m" transform="translate(196.28,-71.07)" r="6.5"><circle class="node" r="6" node_type="nucleotide" style="fill: lightgreen;"></circle><text text-anchor="middle" font-size="8" font-weight="bold" y="2.5" class="node-label">U</text></g><g class="noselect gnode" struct_name="m" transform="translate(204.90,-84.32)" r="6.5"><circle class="node" r="6" node_type="nucleotide" style="fill: lightgreen;"></circle><text text-anchor="middle" font-size="8" font-weight="bold" y="2.5" class="node-label">A</text></g><g class="noselect gnode" struct_name="m" transform="translate(199.83,-98.81)" r="6.5"><circle class="node" r="6" node_type="nucleotide" style="fill: lightblue;"></circle><text text-anchor="middle" font-size="8" font-weight="bold" y="2.5" class="node-label">U</text></g><g class="noselect gnode" struct_name="m" transform="translate(203.74,-113.26)" r="6.5"><circle class="node" r="6" node_type="nucleotide" style="fill: lightblue;"></circle><text text-anchor="middle" font-size="8" font-weight="bold" y="2.5" class="node-label">G</text></g><g class="noselect gnode" struct_name="m" transform="translate(215.50,-122.70)" r="6.5"><circle class="node" r="6" node_type="nucleotide" style="fill: lightblue;"></circle><text text-anchor="middle" font-size="8" font-weight="bold" y="2.5" class="node-label">A</text></g><g class="noselect gnode" struct_name="m" transform="translate(230.47,-123.07)" r="6.5"><circle class="node" r="6" node_type="nucleotide" style="fill: lightblue;"></circle><text text-anchor="middle" font-size="8" font-weight="bold" y="2.5" class="node-label">U</text></g><g class="noselect gnode" struct_name="m" transform="translate(242.94,-114.90)" r="6.5"><circle class="node" r="6" node_type="nucleotide" style="fill: lightblue;"></circle><text text-anchor="middle" font-size="8" font-weight="bold" y="2.5" class="node-label">A</text></g><g class="noselect gnode" struct_name="m" transform="translate(248.48,-100.97)" r="6.5"><circle class="node" r="6" node_type="nucleotide" style="fill: lightblue;"></circle><text text-anchor="middle" font-size="8" font-weight="bold" y="2.5" class="node-label">U</text></g><g class="noselect gnode" struct_name="m" transform="translate(244.39,-86.47)" r="6.5"><circle class="node" r="6" node_type="nucleotide" style="fill: lightblue;"></circle><text text-anchor="middle" font-size="8" font-weight="bold" y="2.5" class="node-label">U</text></g><g class="noselect gnode" struct_name="m" transform="translate(232.69,-77.13)" r="6.5"><circle class="node" r="6" node_type="nucleotide" style="fill: lightblue;"></circle><text text-anchor="middle" font-size="8" font-weight="bold" y="2.5" class="node-label">U</text></g><g class="noselect gnode" struct_name="m" transform="translate(217.34,-76.05)" r="6.5"><circle class="node" r="6" node_type="nucleotide" style="fill: lightgreen;"></circle><text text-anchor="middle" font-size="8" font-weight="bold" y="2.5" class="node-label">U</text></g><g class="noselect gnode" struct_name="m" transform="translate(208.32,-62.91)" r="6.5"><circle class="node" r="6" node_type="nucleotide" style="fill: lightgreen;"></circle><text text-anchor="middle" font-size="8" font-weight="bold" y="2.5" class="node-label">G</text></g><g class="noselect gnode" struct_name="m" transform="translate(199.19,-49.57)" r="6.5"><circle class="node" r="6" node_type="nucleotide" style="fill: lightgreen;"></circle><text text-anchor="middle" font-size="8" font-weight="bold" y="2.5" class="node-label">A</text></g><g class="noselect gnode" struct_name="m" transform="translate(189.88,-36.37)" r="6.5"><circle class="node" r="6" node_type="nucleotide" style="fill: lightgreen;"></circle><text text-anchor="middle" font-size="8" font-weight="bold" y="2.5" class="node-label">C</text></g><g class="noselect gnode" struct_name="m" transform="translate(180.61,-23.24)" r="6.5"><circle class="node" r="6" node_type="nucleotide" style="fill: lightgreen;"></circle><text text-anchor="middle" font-size="8" font-weight="bold" y="2.5" class="node-label">U</text></g><g class="noselect gnode" struct_name="m" transform="translate(171.71,-10.22)" r="6.5"><circle class="node" r="6" node_type="nucleotide" style="fill: lightgreen;"></circle><text text-anchor="middle" font-size="8" font-weight="bold" y="2.5" class="node-label">U</text></g><g class="noselect gnode" struct_name="m" transform="translate(176.90,4.09)" r="6.5"><circle class="node" r="6" node_type="nucleotide" style="fill: rgb(219, 219, 141);"></circle><text text-anchor="middle" font-size="8" font-weight="bold" y="2.5" class="node-label">U</text></g><g class="noselect gnode" struct_name="m" transform="translate(172.67,18.49)" r="6.5"><circle class="node" r="6" node_type="nucleotide" style="fill: rgb(219, 219, 141);"></circle><text text-anchor="middle" font-size="8" font-weight="bold" y="2.5" class="node-label">U</text></g><g class="noselect gnode" struct_name="m" transform="translate(160.87,27.59)" r="6.5"><circle class="node" r="6" node_type="nucleotide" style="fill: rgb(219, 219, 141);"></circle><text text-anchor="middle" font-size="8" font-weight="bold" y="2.5" class="node-label">U</text></g><g class="noselect gnode" struct_name="m" transform="translate(145.53,28.32)" r="6.5"><circle class="node" r="6" node_type="nucleotide" style="fill: lightgreen;"></circle><text text-anchor="middle" font-size="8" font-weight="bold" y="2.5" class="node-label">U</text></g><g class="noselect gnode" struct_name="m" transform="translate(136.26,41.54)" r="6.5"><circle class="node" r="6" node_type="nucleotide" style="fill: lightgreen;"></circle><text text-anchor="middle" font-size="8" font-weight="bold" y="2.5" class="node-label">C</text></g><g class="noselect gnode" struct_name="m" transform="translate(126.65,54.94)" r="6.5"><circle class="node" r="6" node_type="nucleotide" style="fill: lightgreen;"></circle><text text-anchor="middle" font-size="8" font-weight="bold" y="2.5" class="node-label">C</text></g><g class="noselect gnode" struct_name="m" transform="translate(116.39,68.02)" r="6.5"><circle class="node" r="6" node_type="nucleotide" style="fill: lightgreen;"></circle><text text-anchor="middle" font-size="8" font-weight="bold" y="2.5" class="node-label">C</text></g><g class="noselect gnode" struct_name="m" transform="translate(105.26,80.42)" r="6.5"><circle class="node" r="6" node_type="nucleotide" style="fill: lightgreen;"></circle><text text-anchor="middle" font-size="8" font-weight="bold" y="2.5" class="node-label">G</text></g><g class="noselect gnode" struct_name="m" transform="translate(93.51,91.98)" r="6.5"><circle class="node" r="6" node_type="nucleotide" style="fill: lightgreen;"></circle><text text-anchor="middle" font-size="8" font-weight="bold" y="2.5" class="node-label">C</text></g><g class="noselect gnode" struct_name="m" transform="translate(90.41,107.29)" r="6.5"><circle class="node" r="6" node_type="nucleotide" style="fill: rgb(219, 219, 141);"></circle><text text-anchor="middle" font-size="8" font-weight="bold" y="2.5" class="node-label">A</text></g><g class="noselect gnode" struct_name="m" transform="translate(76.56,114.54)" r="6.5"><circle class="node" r="6" node_type="nucleotide" style="fill: lightgreen;"></circle><text text-anchor="middle" font-size="8" font-weight="bold" y="2.5" class="node-label">G</text></g><g class="noselect gnode" struct_name="m" transform="translate(68.92,129.01)" r="6.5"><circle class="node" r="6" node_type="nucleotide" style="fill: lightgreen;"></circle><text text-anchor="middle" font-size="8" font-weight="bold" y="2.5" class="node-label">G</text></g><g class="noselect gnode" struct_name="m" transform="translate(61.10,143.23)" r="6.5"><circle class="node" r="6" node_type="nucleotide" style="fill: lightgreen;"></circle><text text-anchor="middle" font-size="8" font-weight="bold" y="2.5" class="node-label">C</text></g><g class="noselect gnode" struct_name="m" transform="translate(53.89,157.15)" r="6.5"><circle class="node" r="6" node_type="nucleotide" style="fill: lightgreen;"></circle><text text-anchor="middle" font-size="8" font-weight="bold" y="2.5" class="node-label">G</text></g><g class="noselect gnode" struct_name="m" transform="translate(-2.26,148.79)" r="6.5"><circle class="node label" r="6" node_type="label"></circle><text text-anchor="middle" font-size="8" font-weight="bold" y="2.5" class="node-label">10</text></g><g class="noselect gnode" struct_name="m" transform="translate(92.51,49.79)" r="6.5"><circle class="node label" r="6" node_type="label"></circle><text text-anchor="middle" font-size="8" font-weight="bold" y="2.5" class="node-label">20</text></g><g class="noselect gnode" struct_name="m" transform="translate(175.00,-67.59)" r="6.5"><circle class="node label" r="6" node_type="label"></circle><text text-anchor="middle" font-size="8" font-weight="bold" y="2.5" class="node-label">30</text></g><g class="noselect gnode" struct_name="m" transform="translate(246.31,-69.72)" r="6.5"><circle class="node label" r="6" node_type="label"></circle><text text-anchor="middle" font-size="8" font-weight="bold" y="2.5" class="node-label">40</text></g><g class="noselect gnode" struct_name="m" transform="translate(156.91,38.91)" r="6.5"><circle class="node label" r="6" node_type="label"></circle><text text-anchor="middle" font-size="8" font-weight="bold" y="2.5" class="node-label">50</text></g><g class="noselect gnode" struct_name="m" transform="translate(55.36,172.32)" r="6.5"><circle class="node label" r="6" node_type="label"></circle><text text-anchor="middle" font-size="8" font-weight="bold" y="2.5" class="node-label">60</text></g><g class="noselect gnode" transform="translate(94.42,81.20)" r="6.5"><circle class="node" r="0" node_type="middle"></circle><text text-anchor="middle" font-size="8" font-weight="bold" y="2.5" class="node-label"></text></g><g class="noselect gnode" transform="translate(105.67,69.58)" r="6.5"><circle class="node" r="0" node_type="middle"></circle><text text-anchor="middle" font-size="8" font-weight="bold" y="2.5" class="node-label"></text></g><g class="noselect gnode" transform="translate(116.03,57.14)" r="6.5"><circle class="node" r="0" node_type="middle"></circle><text text-anchor="middle" font-size="8" font-weight="bold" y="2.5" class="node-label"></text></g><g class="noselect gnode" transform="translate(125.72,44.08)" r="6.5"><circle class="node" r="0" node_type="middle"></circle><text text-anchor="middle" font-size="8" font-weight="bold" y="2.5" class="node-label"></text></g><g class="noselect gnode" transform="translate(134.95,30.73)" r="6.5"><circle class="node" r="0" node_type="middle"></circle><text text-anchor="middle" font-size="8" font-weight="bold" y="2.5" class="node-label"></text></g><g class="noselect gnode" transform="translate(170.01,-20.89)" r="6.5"><circle class="node" r="0" node_type="middle"></circle><text text-anchor="middle" font-size="8" font-weight="bold" y="2.5" class="node-label"></text></g><g class="noselect gnode" transform="translate(179.28,-33.99)" r="6.5"><circle class="node" r="0" node_type="middle"></circle><text text-anchor="middle" font-size="8" font-weight="bold" y="2.5" class="node-label"></text></g><g class="noselect gnode" transform="translate(188.60,-47.13)" r="6.5"><circle class="node" r="0" node_type="middle"></circle><text text-anchor="middle" font-size="8" font-weight="bold" y="2.5" class="node-label"></text></g><g class="noselect gnode" transform="translate(197.82,-60.34)" r="6.5"><circle class="node" r="0" node_type="middle"></circle><text text-anchor="middle" font-size="8" font-weight="bold" y="2.5" class="node-label"></text></g><g class="noselect gnode" transform="translate(206.78,-73.63)" r="6.5"><circle class="node" r="0" node_type="middle"></circle><text text-anchor="middle" font-size="8" font-weight="bold" y="2.5" class="node-label"></text></g><g class="noselect gnode" transform="translate(50.79,146.88)" r="6.5"><circle class="node" r="0" node_type="middle"></circle><text text-anchor="middle" font-size="8" font-weight="bold" y="2.5" class="node-label"></text></g><g class="noselect gnode" transform="translate(58.65,132.70)" r="6.5"><circle class="node" r="0" node_type="middle"></circle><text text-anchor="middle" font-size="8" font-weight="bold" y="2.5" class="node-label"></text></g><g class="noselect gnode" transform="translate(66.37,118.49)" r="6.5"><circle class="node" r="0" node_type="middle"></circle><text text-anchor="middle" font-size="8" font-weight="bold" y="2.5" class="node-label"></text></g><g class="noselect gnode" transform="translate(63.68,169.34)" r="6.5"><circle class="node" r="0" node_type="middle"></circle><text text-anchor="middle" font-size="8" font-weight="bold" y="2.5" class="node-label"></text></g><g class="noselect gnode" transform="translate(68.04,183.20)" r="6.5"><circle class="node" r="0" node_type="middle"></circle><text text-anchor="middle" font-size="8" font-weight="bold" y="2.5" class="node-label"></text></g><g class="noselect gnode" transform="translate(31.77,186.06)" r="6.5"><circle class="node" r="0" node_type="middle"></circle><text text-anchor="middle" font-size="8" font-weight="bold" y="2.5" class="node-label"></text></g><g class="noselect gnode" transform="translate(223.96,-99.66)" r="6.5"><circle class="node" r="0" node_type="middle"></circle><text text-anchor="middle" font-size="8" font-weight="bold" y="2.5" class="node-label"></text></g><g class="noselect gnode" transform="translate(152.47,4.84)" r="6.5"><circle class="node" r="0" node_type="middle"></circle><text text-anchor="middle" font-size="8" font-weight="bold" y="2.5" class="node-label"></text></g><g class="noselect gnode" transform="translate(76.49,96.87)" r="6.5"><circle class="node" r="0" node_type="middle"></circle><text text-anchor="middle" font-size="8" font-weight="bold" y="2.5" class="node-label"></text></g></g><line class="drag_line" x1="0" y1="0" x2="0" y2="0"></line></g></g></svg>