<svg xmlns="http://www.w3.org/2000/svg" viewBox="0 0 760 640" width="760" height="640"><style>svg {
  display: block;
  min-width: 100%;
  width: 100%;
  min-height: 100%;
}

circle.node {
  stroke: #ccc;
  stroke-width: 1px;
  opacity: 1;
  fill: white;
}

circle.node.label {
    stroke: transparent;
    stroke-width: 0;
    fill: white;
}

circle.outline_node {
    stroke-width: 1px;
    fill: red;
}

circle.protein {
    fill: gray;
    fill-opacity: 0.5;
    stroke-width: 4;
}

circle.hidden_outline {
    stroke-width: 0px;
}


line.link {
  stroke: #999;
  stroke-opacity: 0.8;
  stroke-width: 2;
}

line.basepair {
  stroke: red;
}

line.intermolecule {
  stroke: blue;
}

line.chain_chain {
  stroke-dasharray: 3,3;
}

line.fake {
  stroke: green;
}

.transparent {
    fill: transparent;
    stroke-width: 0;
    stroke-opacity: 0;
    opacity: 0;
    visibility: hidden;
}

.drag_line {
  stroke: #999;
  stroke-width: 2;
  pointer-events: none;
}

.drag_line_hidden {
  stroke: #999;
  stroke-width: 0;
  pointer-events: none;
}

.d3-tip {
    line-height: 1;
    font-weight: bold;
    padding: 6px;
    background: rgba(0, 0, 0, 0.6);
    color: #fff;
    border-radius: 4px;
    pointer-events: none;
          }

text.node-label {
    font-weight: bold;
    font-family: Tahoma, Geneva, sans-serif;
    color: rgb(100,100,100);
    pointer-events: none;
}

text {
    pointer-events: none;
}

g.gnode {

}

circle.outline_node.selected {
    visibility: visible;
}

circle.outline_node {
    visibility: hidden;
}

.brush .extent {
  fill-opacity: .1;
  stroke: #fff;
  shape-rendering: crispEdges;
}

.noselect {
    -webkit-touch-callout: none;
    -webkit-user-select: none;
    -khtml-user-select: none;
    -moz-user-select: none;
    -ms-user-select: none;
    user-select: none;
}

svg {
  display: block;
  min-width: 100%;
  width: 100%;
  min-height: 100%;
}

circle.node {
  stroke: #ccc;
  stroke-width: 1px;
  opacity: 1;
  fill: white;
}

circle.node.label {
    stroke: transparent;
    stroke-width: 0;
    fill: white;
}

circle.outline_node {
    stroke-width: 1px;
    fill: red;
}

circle.protein {
    fill: gray;
    fill-opacity: 0.5;
    stroke-width: 4;
}

circle.hidden_outline {
    stroke-width: 0px;
}


line.link {
  stroke: #999;
  stroke-opacity: 0.8;
  stroke-width: 2;
}

line.basepair {
  stroke: red;
}

line.intermolecule {
  stroke: blue;
}

line.chain_chain {
  stroke-dasharray: 3,3;
}

line.fake {
  stroke: green;
}

.transparent {
    fill: transparent;
    stroke-width: 0;
    stroke-opacity: 0;
    opacity: 0;
    visibility: hidden;
}

.drag_line {
  stroke: #999;
  stroke-width: 2;
  pointer-events: none;
}

.drag_line_hidden {
  stroke: #999;
  stroke-width: 0;
  pointer-events: none;
}

.d3-tip {
    line-height: 1;
    font-weight: bold;
    padding: 6px;
    background: rgba(0, 0, 0, 0.6);
    color: #fff;
    border-radius: 4px;
    pointer-events: none;
          }

text.node-label {
    font-weight: bold;
    font-family: Tahoma, Geneva, sans-serif;
    color: rgb(100,100,100);
    pointer-events: none;
}

text {
    pointer-events: none;
}

g.gnode {

}

circle.outline_node.selected {
    visibility: visible;
}

circle.outline_node {
    visibility: hidden;
}

.brush .extent {
  fill-opacity: .1;
  stroke: #fff;
  shape-rendering: crispEdges;
}

.noselect {
    -webkit-touch-callout: none;
    -webkit-user-select: none;
    -khtml-user-select: none;
    -moz-user-select: none;
    -ms-user-select: none;
    user-select: none;
}
/*# sourceURL=/Users/yumanakamura/ipy_sandbox/sandbox/claude_sandbox/mrna-transformer-worktrees/feat-issue57-switch-derna-knotty/scripts/eval/prerender/forna_vendor/fornac.css*/</style><style></style><g><g class="brush" style="pointer-events: all; -webkit-tap-highlight-color: rgba(0, 0, 0, 0);"><rect class="background" x="0" width="760" y="0" height="640" style="visibility: hidden; cursor: auto;"></rect><rect class="extent" x="0" width="0" y="0" height="0" style="cursor: move;"></rect><g class="resize n" transform="translate(0,0)" style="cursor: ns-resize; display: none;"><rect y="-3" width="0" height="6" style="visibility: hidden;"></rect></g><g class="resize e" transform="translate(0,0)" style="cursor: ew-resize; display: none;"><rect x="-3" width="6" height="0" style="visibility: hidden;"></rect></g><g class="resize s" transform="translate(0,0)" style="cursor: ns-resize; display: none;"><rect y="-3" width="0" height="6" style="visibility: hidden;"></rect></g><g class="resize w" transform="translate(0,0)" style="cursor: ew-resize; display: none;"><rect x="-3" width="6" height="0" style="visibility: hidden;"></rect></g><g class="resize nw" transform="translate(0,0)" style="cursor: nwse-resize; display: none;"><rect x="-3" y="-3" width="6" height="6" style="visibility: hidden;"></rect></g><g class="resize ne" transform="translate(0,0)" style="cursor: nesw-resize; display: none;"><rect x="-3" y="-3" width="6" height="6" style="visibility: hidden;"></rect></g><g class="resize se" transform="translate(0,0)" style="cursor: nwse-resize; display: none;"><rect x="-3" y="-3" width="6" height="6" style="visibility: hidden;"></rect></g><g class="resize sw" transform="translate(0,0)" style="cursor: nesw-resize; display: none;"><rect x="-3" y="-3" width="6" height="6" style="visibility: hidden;"></rect></g></g><g transform="translate(306.02,170.54) scale(1.30)"><g><line class="link basepair" x1="82.44" y1="278.98" x2="96.56" y2="274.21"></line><line class="link basepair" x1="77.37" y1="264.09" x2="91.25" y2="259.35"></line><line class="link backbone" x1="82.44" y1="278.98" x2="77.37" y2="264.09"></line><line class="link basepair" x1="72.31" y1="248.82" x2="86.28" y2="244.43"></line><line class="link backbone" x1="77.37" y1="264.09" x2="72.31" y2="248.82"></line><line class="link basepair" x1="67.73" y1="233.25" x2="81.78" y2="229.36"></line><line class="link backbone" x1="72.31" y1="248.82" x2="67.73" y2="233.25"></line><line class="link basepair" x1="63.52" y1="217.74" x2="77.90" y2="214.09"></line><line class="link backbone" x1="67.73" y1="233.25" x2="63.52" y2="217.74"></line><line class="link backbone" x1="63.52" y1="217.74" x2="50.39" y2="209.94"></line><line class="link backbone" x1="50.39" y1="209.94" x2="46.66" y2="195.53"></line><line class="link basepair" x1="54.45" y1="182.32" x2="68.75" y2="178.42"></line><line class="link backbone" x1="46.66" y1="195.53" x2="54.45" y2="182.32"></line><line class="link basepair" x1="50.17" y1="167.42" x2="63.93" y2="162.75"></line><line class="link backbone" x1="54.45" y1="182.32" x2="50.17" y2="167.42"></line><line class="link basepair" x1="44.57" y1="153.10" x2="57.84" y2="147.09"></line><line class="link backbone" x1="50.17" y1="167.42" x2="44.57" y2="153.10"></line><line class="link basepair" x1="37.54" y1="139.56" x2="49.99" y2="132.12"></line><line class="link backbone" x1="44.57" y1="153.10" x2="37.54" y2="139.56"></line><line class="link basepair" x1="28.96" y1="126.98" x2="40.22" y2="117.96"></line><line class="link backbone" x1="37.54" y1="139.56" x2="28.96" y2="126.98"></line><line class="link basepair" x1="18.82" y1="116.45" x2="28.12" y2="105.07"></line><line class="link backbone" x1="28.96" y1="126.98" x2="18.82" y2="116.45"></line><line class="link backbone" x1="18.82" y1="116.45" x2="4.07" y2="119.73"></line><line class="link backbone" x1="4.07" y1="119.73" x2="-7.92" y2="110.84"></line><line class="link backbone" x1="-7.92" y1="110.84" x2="-10.71" y2="96.58"></line><line class="link backbone" x1="-10.71" y1="96.58" x2="-2.81" y2="83.87"></line><line class="link basepair" x1="12.12" y1="81.43" x2="24.98" y2="88.48"></line><line class="link backbone" x1="-2.81" y1="83.87" x2="12.12" y2="81.43"></line><line class="link basepair" x1="17.47" y1="67.86" x2="31.29" y2="71.73"></line><line class="link backbone" x1="12.12" y1="81.43" x2="17.47" y2="67.86"></line><line class="link basepair" x1="20.20" y1="52.97" x2="34.54" y2="54.48"></line><line class="link backbone" x1="17.47" y1="67.86" x2="20.20" y2="52.97"></line><line class="link basepair" x1="20.59" y1="37.86" x2="35.01" y2="37.13"></line><line class="link backbone" x1="20.20" y1="52.97" x2="20.59" y2="37.86"></line><line class="link basepair" x1="18.64" y1="22.88" x2="32.74" y2="19.87"></line><line class="link backbone" x1="20.59" y1="37.86" x2="18.64" y2="22.88"></line><line class="link basepair" x1="14.24" y1="8.66" x2="27.99" y2="3.21"></line><line class="link backbone" x1="18.64" y1="22.88" x2="14.24" y2="8.66"></line><line class="link backbone" x1="14.24" y1="8.66" x2="3.74" y2="-2.54"></line><line class="link basepair" x1="11.26" y1="-15.76" x2="25.98" y2="-13.62"></line><line class="link backbone" x1="3.74" y1="-2.54" x2="11.26" y2="-15.76"></line><line class="link basepair" x1="12.62" y1="-30.82" x2="27.22" y2="-30.12"></line><line class="link backbone" x1="11.26" y1="-15.76" x2="12.62" y2="-30.82"></line><line class="link basepair" x1="12.73" y1="-46.23" x2="27.75" y2="-46.13"></line><line class="link backbone" x1="12.62" y1="-30.82" x2="12.73" y2="-46.23"></line><line class="link backbone" x1="12.73" y1="-46.23" x2="3.10" y2="-58.37"></line><line class="link backbone" x1="3.10" y1="-58.37" x2="6.50" y2="-73.11"></line><line class="link backbone" x1="6.50" y1="-73.11" x2="20.24" y2="-79.73"></line><line class="link backbone" x1="20.24" y1="-79.73" x2="33.97" y2="-73.08"></line><line class="link backbone" x1="33.97" y1="-73.08" x2="37.35" y2="-58.34"></line><line class="link basepair" x1="27.75" y1="-46.13" x2="12.73" y2="-46.23"></line><line class="link backbone" x1="37.35" y1="-58.34" x2="27.75" y2="-46.13"></line><line class="link basepair" x1="27.22" y1="-30.12" x2="12.62" y2="-30.82"></line><line class="link backbone" x1="27.75" y1="-46.13" x2="27.22" y2="-30.12"></line><line class="link basepair" x1="25.98" y1="-13.62" x2="11.26" y2="-15.76"></line><line class="link backbone" x1="27.22" y1="-30.12" x2="25.98" y2="-13.62"></line><line class="link basepair" x1="27.99" y1="3.21" x2="14.24" y2="8.66"></line><line class="link backbone" x1="25.98" y1="-13.62" x2="27.99" y2="3.21"></line><line class="link basepair" x1="32.74" y1="19.87" x2="18.64" y2="22.88"></line><line class="link backbone" x1="27.99" y1="3.21" x2="32.74" y2="19.87"></line><line class="link basepair" x1="35.01" y1="37.13" x2="20.59" y2="37.86"></line><line class="link backbone" x1="32.74" y1="19.87" x2="35.01" y2="37.13"></line><line class="link basepair" x1="34.54" y1="54.48" x2="20.20" y2="52.97"></line><line class="link backbone" x1="35.01" y1="37.13" x2="34.54" y2="54.48"></line><line class="link basepair" x1="31.29" y1="71.73" x2="17.47" y2="67.86"></line><line class="link backbone" x1="34.54" y1="54.48" x2="31.29" y2="71.73"></line><line class="link basepair" x1="24.98" y1="88.48" x2="12.12" y2="81.43"></line><line class="link backbone" x1="31.29" y1="71.73" x2="24.98" y2="88.48"></line><line class="link basepair" x1="28.12" y1="105.07" x2="18.82" y2="116.45"></line><line class="link backbone" x1="24.98" y1="88.48" x2="28.12" y2="105.07"></line><line class="link basepair" x1="40.22" y1="117.96" x2="28.96" y2="126.98"></line><line class="link backbone" x1="28.12" y1="105.07" x2="40.22" y2="117.96"></line><line class="link basepair" x1="49.99" y1="132.12" x2="37.54" y2="139.56"></line><line class="link backbone" x1="40.22" y1="117.96" x2="49.99" y2="132.12"></line><line class="link basepair" x1="57.84" y1="147.09" x2="44.57" y2="153.10"></line><line class="link backbone" x1="49.99" y1="132.12" x2="57.84" y2="147.09"></line><line class="link basepair" x1="63.93" y1="162.75" x2="50.17" y2="167.42"></line><line class="link backbone" x1="57.84" y1="147.09" x2="63.93" y2="162.75"></line><line class="link basepair" x1="68.75" y1="178.42" x2="54.45" y2="182.32"></line><line class="link backbone" x1="63.93" y1="162.75" x2="68.75" y2="178.42"></line><line class="link backbone" x1="68.75" y1="178.42" x2="81.87" y2="186.32"></line><line class="link backbone" x1="81.87" y1="186.32" x2="85.60" y2="200.71"></line><line class="link basepair" x1="77.90" y1="214.09" x2="63.52" y2="217.74"></line><line class="link backbone" x1="85.60" y1="200.71" x2="77.90" y2="214.09"></line><line class="link basepair" x1="81.78" y1="229.36" x2="67.73" y2="233.25"></line><line class="link backbone" x1="77.90" y1="214.09" x2="81.78" y2="229.36"></line><line class="link basepair" x1="86.28" y1="244.43" x2="72.31" y2="248.82"></line><line class="link backbone" x1="81.78" y1="229.36" x2="86.28" y2="244.43"></line><line class="link basepair" x1="91.25" y1="259.35" x2="77.37" y2="264.09"></line><line class="link backbone" x1="86.28" y1="244.43" x2="91.25" y2="259.35"></line><line class="link basepair" x1="96.56" y1="274.21" x2="82.44" y2="278.98"></line><line class="link backbone" x1="91.25" y1="259.35" x2="96.56" y2="274.21"></line><line class="link backbone" x1="96.56" y1="274.21" x2="111.05" y2="279.14"></line><line class="link backbone" x1="111.05" y1="279.14" x2="120.11" y2="290.87"></line><line class="link backbone" x1="120.11" y1="290.87" x2="120.54" y2="305.92"></line><line class="link backbone" x1="120.54" y1="305.92" x2="111.82" y2="318.02"></line><line class="link backbone" x1="111.82" y1="318.02" x2="97.82" y2="323.03"></line><line class="link backbone" x1="97.82" y1="323.03" x2="83.43" y2="319.35"></line><line class="link label_link" x1="44.57" y1="153.10" x2="29.80" y2="157.99"></line><line class="link label_link" x1="20.20" y1="52.97" x2="4.87" y2="50.57"></line><line class="link label_link" x1="20.24" y1="-79.73" x2="19.01" y2="-95.08"></line><line class="link label_link" x1="31.29" y1="71.73" x2="46.89" y2="72.87"></line><line class="link label_link" x1="77.90" y1="214.09" x2="93.11" y2="210.80"></line><line class="link label_link" x1="83.43" y1="319.35" x2="73.37" y2="331.08"></line><line class="link fake transparent" x1="54.45" y1="182.32" x2="59.60" y2="172.70"></line><line class="link fake transparent" x1="54.45" y1="182.32" x2="63.93" y2="162.75"></line><line class="link fake transparent" x1="50.17" y1="167.42" x2="59.60" y2="172.70"></line><line class="link fake transparent" x1="63.93" y1="162.75" x2="59.60" y2="172.70"></line><line class="link fake transparent" x1="68.75" y1="178.42" x2="59.60" y2="172.70"></line><line class="link fake transparent" x1="50.17" y1="167.42" x2="54.52" y2="157.43"></line><line class="link fake transparent" x1="44.57" y1="153.10" x2="54.52" y2="157.43"></line><line class="link fake transparent" x1="57.84" y1="147.09" x2="54.52" y2="157.43"></line><line class="link fake transparent" x1="63.93" y1="162.75" x2="54.52" y2="157.43"></line><line class="link fake transparent" x1="44.57" y1="153.10" x2="47.94" y2="142.80"></line><line class="link fake transparent" x1="37.54" y1="139.56" x2="47.94" y2="142.80"></line><line class="link fake transparent" x1="49.99" y1="132.12" x2="47.94" y2="142.80"></line><line class="link fake transparent" x1="57.84" y1="147.09" x2="47.94" y2="142.80"></line><line class="link fake transparent" x1="37.54" y1="139.56" x2="39.64" y2="128.89"></line><line class="link fake transparent" x1="28.96" y1="126.98" x2="39.64" y2="128.89"></line><line class="link fake transparent" x1="40.22" y1="117.96" x2="39.64" y2="128.89"></line><line class="link fake transparent" x1="49.99" y1="132.12" x2="39.64" y2="128.89"></line><line class="link fake transparent" x1="28.96" y1="126.98" x2="29.58" y2="116.16"></line><line class="link fake transparent" x1="18.82" y1="116.45" x2="29.58" y2="116.16"></line><line class="link fake transparent" x1="28.12" y1="105.07" x2="29.58" y2="116.16"></line><line class="link fake transparent" x1="40.22" y1="117.96" x2="29.58" y2="116.16"></line><line class="link fake transparent" x1="12.12" y1="81.43" x2="22.22" y2="77.64"></line><line class="link fake transparent" x1="17.47" y1="67.86" x2="22.22" y2="77.64"></line><line class="link fake transparent" x1="31.29" y1="71.73" x2="22.22" y2="77.64"></line><line class="link fake transparent" x1="24.98" y1="88.48" x2="22.22" y2="77.64"></line><line class="link fake transparent" x1="17.47" y1="67.86" x2="26.53" y2="61.83"></line><line class="link fake transparent" x1="20.20" y1="52.97" x2="26.53" y2="61.83"></line><line class="link fake transparent" x1="34.54" y1="54.48" x2="26.53" y2="61.83"></line><line class="link fake transparent" x1="31.29" y1="71.73" x2="26.53" y2="61.83"></line><line class="link fake transparent" x1="20.20" y1="52.97" x2="28.24" y2="45.57"></line><line class="link fake transparent" x1="20.59" y1="37.86" x2="28.24" y2="45.57"></line><line class="link fake transparent" x1="35.01" y1="37.13" x2="28.24" y2="45.57"></line><line class="link fake transparent" x1="34.54" y1="54.48" x2="28.24" y2="45.57"></line><line class="link fake transparent" x1="20.59" y1="37.86" x2="27.41" y2="29.35"></line><line class="link fake transparent" x1="18.64" y1="22.88" x2="27.41" y2="29.35"></line><line class="link fake transparent" x1="32.74" y1="19.87" x2="27.41" y2="29.35"></line><line class="link fake transparent" x1="35.01" y1="37.13" x2="27.41" y2="29.35"></line><line class="link fake transparent" x1="18.64" y1="22.88" x2="23.99" y2="13.43"></line><line class="link fake transparent" x1="14.24" y1="8.66" x2="23.99" y2="13.43"></line><line class="link fake transparent" x1="27.99" y1="3.21" x2="23.99" y2="13.43"></line><line class="link fake transparent" x1="32.74" y1="19.87" x2="23.99" y2="13.43"></line><line class="link fake transparent" x1="11.26" y1="-15.76" x2="19.59" y2="-22.52"></line><line class="link fake transparent" x1="12.62" y1="-30.82" x2="19.59" y2="-22.52"></line><line class="link fake transparent" x1="27.22" y1="-30.12" x2="19.59" y2="-22.52"></line><line class="link fake transparent" x1="25.98" y1="-13.62" x2="19.59" y2="-22.52"></line><line class="link fake transparent" x1="12.62" y1="-30.82" x2="20.21" y2="-38.44"></line><line class="link fake transparent" x1="12.73" y1="-46.23" x2="20.21" y2="-38.44"></line><line class="link fake transparent" x1="27.75" y1="-46.13" x2="20.21" y2="-38.44"></line><line class="link fake transparent" x1="27.22" y1="-30.12" x2="20.21" y2="-38.44"></line><line class="link fake transparent" x1="82.44" y1="278.98" x2="86.92" y2="269.25"></line><line class="link fake transparent" x1="77.37" y1="264.09" x2="86.92" y2="269.25"></line><line class="link fake transparent" x1="91.25" y1="259.35" x2="86.92" y2="269.25"></line><line class="link fake transparent" x1="96.56" y1="274.21" x2="86.92" y2="269.25"></line><line class="link fake transparent" x1="77.37" y1="264.09" x2="81.69" y2="254.25"></line><line class="link fake transparent" x1="72.31" y1="248.82" x2="81.69" y2="254.25"></line><line class="link fake transparent" x1="86.28" y1="244.43" x2="81.69" y2="254.25"></line><line class="link fake transparent" x1="91.25" y1="259.35" x2="81.69" y2="254.25"></line><line class="link fake transparent" x1="72.31" y1="248.82" x2="76.87" y2="239.03"></line><line class="link fake transparent" x1="67.73" y1="233.25" x2="76.87" y2="239.03"></line><line class="link fake transparent" x1="81.78" y1="229.36" x2="76.87" y2="239.03"></line><line class="link fake transparent" x1="86.28" y1="244.43" x2="76.87" y2="239.03"></line><line class="link fake transparent" x1="67.73" y1="233.25" x2="72.61" y2="223.61"></line><line class="link fake transparent" x1="63.52" y1="217.74" x2="72.61" y2="223.61"></line><line class="link fake transparent" x1="77.90" y1="214.09" x2="72.61" y2="223.61"></line><line class="link fake transparent" x1="81.78" y1="229.36" x2="72.61" y2="223.61"></line><line class="link fake transparent" x1="82.44" y1="278.98" x2="96.94" y2="298.70"></line><line class="link fake transparent" x1="82.44" y1="278.98" x2="111.82" y2="318.02"></line><line class="link fake transparent" x1="96.56" y1="274.21" x2="96.94" y2="298.70"></line><line class="link fake transparent" x1="96.56" y1="274.21" x2="97.82" y2="323.03"></line><line class="link fake transparent" x1="111.05" y1="279.14" x2="96.94" y2="298.70"></line><line class="link fake transparent" x1="111.05" y1="279.14" x2="83.43" y2="319.35"></line><line class="link fake transparent" x1="120.11" y1="290.87" x2="96.94" y2="298.70"></line><line class="link fake transparent" x1="120.11" y1="290.87" x2="73.97" y2="307.58"></line><line class="link fake transparent" x1="120.54" y1="305.92" x2="96.94" y2="298.70"></line><line class="link fake transparent" x1="120.54" y1="305.92" x2="73.03" y2="293.27"></line><line class="link fake transparent" x1="111.82" y1="318.02" x2="96.94" y2="298.70"></line><line class="link fake transparent" x1="111.82" y1="318.02" x2="82.44" y2="278.98"></line><line class="link fake transparent" x1="97.82" y1="323.03" x2="96.94" y2="298.70"></line><line class="link fake transparent" x1="97.82" y1="323.03" x2="96.56" y2="274.21"></line><line class="link fake transparent" x1="83.43" y1="319.35" x2="96.94" y2="298.70"></line><line class="link fake transparent" x1="83.43" y1="319.35" x2="111.05" y2="279.14"></line><line class="link fake transparent" x1="12.73" y1="-46.23" x2="20.24" y2="-62.08"></line><line class="link fake transparent" x1="12.73" y1="-46.23" x2="20.24" y2="-79.73"></line><line class="link fake transparent" x1="3.10" y1="-58.37" x2="20.24" y2="-62.08"></line><line class="link fake transparent" x1="3.10" y1="-58.37" x2="33.97" y2="-73.08"></line><line class="link fake transparent" x1="6.50" y1="-73.11" x2="20.24" y2="-62.08"></line><line class="link fake transparent" x1="6.50" y1="-73.11" x2="37.35" y2="-58.34"></line><line class="link fake transparent" x1="20.24" y1="-79.73" x2="20.24" y2="-62.08"></line><line class="link fake transparent" x1="20.24" y1="-79.73" x2="27.75" y2="-46.13"></line><line class="link fake transparent" x1="33.97" y1="-73.08" x2="20.24" y2="-62.08"></line><line class="link fake transparent" x1="33.97" y1="-73.08" x2="12.73" y2="-46.23"></line><line class="link fake transparent" x1="37.35" y1="-58.34" x2="20.24" y2="-62.08"></line><line class="link fake transparent" x1="37.35" y1="-58.34" x2="3.10" y2="-58.37"></line><line class="link fake transparent" x1="27.75" y1="-46.13" x2="20.24" y2="-62.08"></line><line class="link fake transparent" x1="27.75" y1="-46.13" x2="6.50" y2="-73.11"></line><line class="link fake transparent" x1="18.82" y1="116.45" x2="8.76" y2="100.22"></line><line class="link fake transparent" x1="18.82" y1="116.45" x2="-2.81" y2="83.87"></line><line class="link fake transparent" x1="4.07" y1="119.73" x2="8.76" y2="100.22"></line><line class="link fake transparent" x1="4.07" y1="119.73" x2="12.12" y2="81.43"></line><line class="link fake transparent" x1="-7.92" y1="110.84" x2="8.76" y2="100.22"></line><line class="link fake transparent" x1="-7.92" y1="110.84" x2="24.98" y2="88.48"></line><line class="link fake transparent" x1="-10.71" y1="96.58" x2="8.76" y2="100.22"></line><line class="link fake transparent" x1="-10.71" y1="96.58" x2="28.12" y2="105.07"></line><line class="link fake transparent" x1="-2.81" y1="83.87" x2="8.76" y2="100.22"></line><line class="link fake transparent" x1="-2.81" y1="83.87" x2="18.82" y2="116.45"></line><line class="link fake transparent" x1="12.12" y1="81.43" x2="8.76" y2="100.22"></line><line class="link fake transparent" x1="12.12" y1="81.43" x2="4.07" y2="119.73"></line><line class="link fake transparent" x1="24.98" y1="88.48" x2="8.76" y2="100.22"></line><line class="link fake transparent" x1="24.98" y1="88.48" x2="-7.92" y2="110.84"></line><line class="link fake transparent" x1="28.12" y1="105.07" x2="8.76" y2="100.22"></line><line class="link fake transparent" x1="28.12" y1="105.07" x2="-10.71" y2="96.58"></line><line class="link fake transparent" x1="14.24" y1="8.66" x2="17.08" y2="-4.08"></line><line class="link fake transparent" x1="14.24" y1="8.66" x2="11.26" y2="-15.76"></line><line class="link fake transparent" x1="3.74" y1="-2.54" x2="17.08" y2="-4.08"></line><line class="link fake transparent" x1="3.74" y1="-2.54" x2="25.98" y2="-13.62"></line><line class="link fake transparent" x1="11.26" y1="-15.76" x2="17.08" y2="-4.08"></line><line class="link fake transparent" x1="11.26" y1="-15.76" x2="27.99" y2="3.21"></line><line class="link fake transparent" x1="25.98" y1="-13.62" x2="17.08" y2="-4.08"></line><line class="link fake transparent" x1="25.98" y1="-13.62" x2="14.24" y2="8.66"></line><line class="link fake transparent" x1="27.99" y1="3.21" x2="17.08" y2="-4.08"></line><line class="link fake transparent" x1="27.99" y1="3.21" x2="3.74" y2="-2.54"></line><line class="link fake transparent" x1="63.52" y1="217.74" x2="66.16" y2="198.12"></line><line class="link fake transparent" x1="63.52" y1="217.74" x2="68.75" y2="178.42"></line><line class="link fake transparent" x1="50.39" y1="209.94" x2="66.16" y2="198.12"></line><line class="link fake transparent" x1="50.39" y1="209.94" x2="81.87" y2="186.32"></line><line class="link fake transparent" x1="46.66" y1="195.53" x2="66.16" y2="198.12"></line><line class="link fake transparent" x1="46.66" y1="195.53" x2="85.60" y2="200.71"></line><line class="link fake transparent" x1="54.45" y1="182.32" x2="66.16" y2="198.12"></line><line class="link fake transparent" x1="54.45" y1="182.32" x2="77.90" y2="214.09"></line><line class="link fake transparent" x1="68.75" y1="178.42" x2="66.16" y2="198.12"></line><line class="link fake transparent" x1="68.75" y1="178.42" x2="63.52" y2="217.74"></line><line class="link fake transparent" x1="81.87" y1="186.32" x2="66.16" y2="198.12"></line><line class="link fake transparent" x1="81.87" y1="186.32" x2="50.39" y2="209.94"></line><line class="link fake transparent" x1="85.60" y1="200.71" x2="66.16" y2="198.12"></line><line class="link fake transparent" x1="85.60" y1="200.71" x2="46.66" y2="195.53"></line><line class="link fake transparent" x1="77.90" y1="214.09" x2="66.16" y2="198.12"></line><line class="link fake transparent" x1="77.90" y1="214.09" x2="54.45" y2="182.32"></line></g><g><g class="noselect gnode" struct_name="m" transform="translate(82.44,278.98)" r="6.5"><circle class="node" r="6" node_type="nucleotide" style="fill: lightgreen;"></circle><text text-anchor="middle" font-size="8" font-weight="bold" y="2.5" class="node-label">C</text></g><g class="noselect gnode" struct_name="m" transform="translate(77.37,264.09)" r="6.5"><circle class="node" r="6" node_type="nucleotide" style="fill: lightgreen;"></circle><text text-anchor="middle" font-size="8" font-weight="bold" y="2.5" class="node-label">U</text></g><g class="noselect gnode" struct_name="m" transform="translate(72.31,248.82)" r="6.5"><circle class="node" r="6" node_type="nucleotide" style="fill: lightgreen;"></circle><text text-anchor="middle" font-size="8" font-weight="bold" y="2.5" class="node-label">C</text></g><g class="noselect gnode" struct_name="m" transform="translate(67.73,233.25)" r="6.5"><circle class="node" r="6" node_type="nucleotide" style="fill: lightgreen;"></circle><text text-anchor="middle" font-size="8" font-weight="bold" y="2.5" class="node-label">A</text></g><g class="noselect gnode" struct_name="m" transform="translate(63.52,217.74)" r="6.5"><circle class="node" r="6" node_type="nucleotide" style="fill: lightgreen;"></circle><text text-anchor="middle" font-size="8" font-weight="bold" y="2.5" class="node-label">U</text></g><g class="noselect gnode" struct_name="m" transform="translate(50.39,209.94)" r="6.5"><circle class="node" r="6" node_type="nucleotide" style="fill: rgb(219, 219, 141);"></circle><text text-anchor="middle" font-size="8" font-weight="bold" y="2.5" class="node-label">A</text></g><g class="noselect gnode" struct_name="m" transform="translate(46.66,195.53)" r="6.5"><circle class="node" r="6" node_type="nucleotide" style="fill: rgb(219, 219, 141);"></circle><text text-anchor="middle" font-size="8" font-weight="bold" y="2.5" class="node-label">A</text></g><g class="noselect gnode" struct_name="m" transform="translate(54.45,182.32)" r="6.5"><circle class="node" r="6" node_type="nucleotide" style="fill: lightgreen;"></circle><text text-anchor="middle" font-size="8" font-weight="bold" y="2.5" class="node-label">A</text></g><g class="noselect gnode" struct_name="m" transform="translate(50.17,167.42)" r="6.5"><circle class="node" r="6" node_type="nucleotide" style="fill: lightgreen;"></circle><text text-anchor="middle" font-size="8" font-weight="bold" y="2.5" class="node-label">U</text></g><g class="noselect gnode" struct_name="m" transform="translate(44.57,153.10)" r="6.5"><circle class="node" r="6" node_type="nucleotide" style="fill: lightgreen;"></circle><text text-anchor="middle" font-size="8" font-weight="bold" y="2.5" class="node-label">C</text></g><g class="noselect gnode" struct_name="m" transform="translate(37.54,139.56)" r="6.5"><circle class="node" r="6" node_type="nucleotide" style="fill: lightgreen;"></circle><text text-anchor="middle" font-size="8" font-weight="bold" y="2.5" class="node-label">A</text></g><g class="noselect gnode" struct_name="m" transform="translate(28.96,126.98)" r="6.5"><circle class="node" r="6" node_type="nucleotide" style="fill: lightgreen;"></circle><text text-anchor="middle" font-size="8" font-weight="bold" y="2.5" class="node-label">C</text></g><g class="noselect gnode" struct_name="m" transform="translate(18.82,116.45)" r="6.5"><circle class="node" r="6" node_type="nucleotide" style="fill: lightgreen;"></circle><text text-anchor="middle" font-size="8" font-weight="bold" y="2.5" class="node-label">A</text></g><g class="noselect gnode" struct_name="m" transform="translate(4.07,119.73)" r="6.5"><circle class="node" r="6" node_type="nucleotide" style="fill: rgb(219, 219, 141);"></circle><text text-anchor="middle" font-size="8" font-weight="bold" y="2.5" class="node-label">A</text></g><g class="noselect gnode" struct_name="m" transform="translate(-7.92,110.84)" r="6.5"><circle class="node" r="6" node_type="nucleotide" style="fill: rgb(219, 219, 141);"></circle><text text-anchor="middle" font-size="8" font-weight="bold" y="2.5" class="node-label">A</text></g><g class="noselect gnode" struct_name="m" transform="translate(-10.71,96.58)" r="6.5"><circle class="node" r="6" node_type="nucleotide" style="fill: rgb(219, 219, 141);"></circle><text text-anchor="middle" font-size="8" font-weight="bold" y="2.5" class="node-label">C</text></g><g class="noselect gnode" struct_name="m" transform="translate(-2.81,83.87)" r="6.5"><circle class="node" r="6" node_type="nucleotide" style="fill: rgb(219, 219, 141);"></circle><text text-anchor="middle" font-size="8" font-weight="bold" y="2.5" class="node-label">C</text></g><g class="noselect gnode" struct_name="m" transform="translate(12.12,81.43)" r="6.5"><circle class="node" r="6" node_type="nucleotide" style="fill: lightgreen;"></circle><text text-anchor="middle" font-size="8" font-weight="bold" y="2.5" class="node-label">U</text></g><g class="noselect gnode" struct_name="m" transform="translate(17.47,67.86)" r="6.5"><circle class="node" r="6" node_type="nucleotide" style="fill: lightgreen;"></circle><text text-anchor="middle" font-size="8" font-weight="bold" y="2.5" class="node-label">A</text></g><g class="noselect gnode" struct_name="m" transform="translate(20.20,52.97)" r="6.5"><circle class="node" r="6" node_type="nucleotide" style="fill: lightgreen;"></circle><text text-anchor="middle" font-size="8" font-weight="bold" y="2.5" class="node-label">C</text></g><g class="noselect gnode" struct_name="m" transform="translate(20.59,37.86)" r="6.5"><circle class="node" r="6" node_type="nucleotide" style="fill: lightgreen;"></circle><text text-anchor="middle" font-size="8" font-weight="bold" y="2.5" class="node-label">A</text></g><g class="noselect gnode" struct_name="m" transform="translate(18.64,22.88)" r="6.5"><circle class="node" r="6" node_type="nucleotide" style="fill: lightgreen;"></circle><text text-anchor="middle" font-size="8" font-weight="bold" y="2.5" class="node-label">U</text></g><g class="noselect gnode" struct_name="m" transform="translate(14.24,8.66)" r="6.5"><circle class="node" r="6" node_type="nucleotide" style="fill: lightgreen;"></circle><text text-anchor="middle" font-size="8" font-weight="bold" y="2.5" class="node-label">U</text></g><g class="noselect gnode" struct_name="m" transform="translate(3.74,-2.54)" r="6.5"><circle class="node" r="6" node_type="nucleotide" style="fill: rgb(219, 219, 141);"></circle><text text-anchor="middle" font-size="8" font-weight="bold" y="2.5" class="node-label">U</text></g><g class="noselect gnode" struct_name="m" transform="translate(11.26,-15.76)" r="6.5"><circle class="node" r="6" node_type="nucleotide" style="fill: lightgreen;"></circle><text text-anchor="middle" font-size="8" font-weight="bold" y="2.5" class="node-label">A</text></g><g class="noselect gnode" struct_name="m" transform="translate(12.62,-30.82)" r="6.5"><circle class="node" r="6" node_type="nucleotide" style="fill: lightgreen;"></circle><text text-anchor="middle" font-size="8" font-weight="bold" y="2.5" class="node-label">U</text></g><g class="noselect gnode" struct_name="m" transform="translate(12.73,-46.23)" r="6.5"><circle class="node" r="6" node_type="nucleotide" style="fill: lightgreen;"></circle><text text-anchor="middle" font-size="8" font-weight="bold" y="2.5" class="node-label">A</text></g><g class="noselect gnode" struct_name="m" transform="translate(3.10,-58.37)" r="6.5"><circle class="node" r="6" node_type="nucleotide" style="fill: lightblue;"></circle><text text-anchor="middle" font-size="8" font-weight="bold" y="2.5" class="node-label">G</text></g><g class="noselect gnode" struct_name="m" transform="translate(6.50,-73.11)" r="6.5"><circle class="node" r="6" node_type="nucleotide" style="fill: lightblue;"></circle><text text-anchor="middle" font-size="8" font-weight="bold" y="2.5" class="node-label">A</text></g><g class="noselect gnode" struct_name="m" transform="translate(20.24,-79.73)" r="6.5"><circle class="node" r="6" node_type="nucleotide" style="fill: lightblue;"></circle><text text-anchor="middle" font-size="8" font-weight="bold" y="2.5" class="node-label">A</text></g><g class="noselect gnode" struct_name="m" transform="translate(33.97,-73.08)" r="6.5"><circle class="node" r="6" node_type="nucleotide" style="fill: lightblue;"></circle><text text-anchor="middle" font-size="8" font-weight="bold" y="2.5" class="node-label">A</text></g><g class="noselect gnode" struct_name="m" transform="translate(37.35,-58.34)" r="6.5"><circle class="node" r="6" node_type="nucleotide" style="fill: lightblue;"></circle><text text-anchor="middle" font-size="8" font-weight="bold" y="2.5" class="node-label">U</text></g><g class="noselect gnode" struct_name="m" transform="translate(27.75,-46.13)" r="6.5"><circle class="node" r="6" node_type="nucleotide" style="fill: lightgreen;"></circle><text text-anchor="middle" font-size="8" font-weight="bold" y="2.5" class="node-label">U</text></g><g class="noselect gnode" struct_name="m" transform="translate(27.22,-30.12)" r="6.5"><circle class="node" r="6" node_type="nucleotide" style="fill: lightgreen;"></circle><text text-anchor="middle" font-size="8" font-weight="bold" y="2.5" class="node-label">A</text></g><g class="noselect gnode" struct_name="m" transform="translate(25.98,-13.62)" r="6.5"><circle class="node" r="6" node_type="nucleotide" style="fill: lightgreen;"></circle><text text-anchor="middle" font-size="8" font-weight="bold" y="2.5" class="node-label">U</text></g><g class="noselect gnode" struct_name="m" transform="translate(27.99,3.21)" r="6.5"><circle class="node" r="6" node_type="nucleotide" style="fill: lightgreen;"></circle><text text-anchor="middle" font-size="8" font-weight="bold" y="2.5" class="node-label">A</text></g><g class="noselect gnode" struct_name="m" transform="translate(32.74,19.87)" r="6.5"><circle class="node" r="6" node_type="nucleotide" style="fill: lightgreen;"></circle><text text-anchor="middle" font-size="8" font-weight="bold" y="2.5" class="node-label">A</text></g><g class="noselect gnode" struct_name="m" transform="translate(35.01,37.13)" r="6.5"><circle class="node" r="6" node_type="nucleotide" style="fill: lightgreen;"></circle><text text-anchor="middle" font-size="8" font-weight="bold" y="2.5" class="node-label">U</text></g><g class="noselect gnode" struct_name="m" transform="translate(34.54,54.48)" r="6.5"><circle class="node" r="6" node_type="nucleotide" style="fill: lightgreen;"></circle><text text-anchor="middle" font-size="8" font-weight="bold" y="2.5" class="node-label">G</text></g><g class="noselect gnode" struct_name="m" transform="translate(31.29,71.73)" r="6.5"><circle class="node" r="6" node_type="nucleotide" style="fill: lightgreen;"></circle><text text-anchor="middle" font-size="8" font-weight="bold" y="2.5" class="node-label">U</text></g><g class="noselect gnode" struct_name="m" transform="translate(24.98,88.48)" r="6.5"><circle class="node" r="6" node_type="nucleotide" style="fill: lightgreen;"></circle><text text-anchor="middle" font-size="8" font-weight="bold" y="2.5" class="node-label">A</text></g><g class="noselect gnode" struct_name="m" transform="translate(28.12,105.07)" r="6.5"><circle class="node" r="6" node_type="nucleotide" style="fill: lightgreen;"></circle><text text-anchor="middle" font-size="8" font-weight="bold" y="2.5" class="node-label">U</text></g><g class="noselect gnode" struct_name="m" transform="translate(40.22,117.96)" r="6.5"><circle class="node" r="6" node_type="nucleotide" style="fill: lightgreen;"></circle><text text-anchor="middle" font-size="8" font-weight="bold" y="2.5" class="node-label">G</text></g><g class="noselect gnode" struct_name="m" transform="translate(49.99,132.12)" r="6.5"><circle class="node" r="6" node_type="nucleotide" style="fill: lightgreen;"></circle><text text-anchor="middle" font-size="8" font-weight="bold" y="2.5" class="node-label">U</text></g><g class="noselect gnode" struct_name="m" transform="translate(57.84,147.09)" r="6.5"><circle class="node" r="6" node_type="nucleotide" style="fill: lightgreen;"></circle><text text-anchor="middle" font-size="8" font-weight="bold" y="2.5" class="node-label">G</text></g><g class="noselect gnode" struct_name="m" transform="translate(63.93,162.75)" r="6.5"><circle class="node" r="6" node_type="nucleotide" style="fill: lightgreen;"></circle><text text-anchor="middle" font-size="8" font-weight="bold" y="2.5" class="node-label">A</text></g><g class="noselect gnode" struct_name="m" transform="translate(68.75,178.42)" r="6.5"><circle class="node" r="6" node_type="nucleotide" style="fill: lightgreen;"></circle><text text-anchor="middle" font-size="8" font-weight="bold" y="2.5" class="node-label">U</text></g><g class="noselect gnode" struct_name="m" transform="translate(81.87,186.32)" r="6.5"><circle class="node" r="6" node_type="nucleotide" style="fill: rgb(219, 219, 141);"></circle><text text-anchor="middle" font-size="8" font-weight="bold" y="2.5" class="node-label">G</text></g><g class="noselect gnode" struct_name="m" transform="translate(85.60,200.71)" r="6.5"><circle class="node" r="6" node_type="nucleotide" style="fill: rgb(219, 219, 141);"></circle><text text-anchor="middle" font-size="8" font-weight="bold" y="2.5" class="node-label">C</text></g><g class="noselect gnode" struct_name="m" transform="translate(77.90,214.09)" r="6.5"><circle class="node" r="6" node_type="nucleotide" style="fill: lightgreen;"></circle><text text-anchor="middle" font-size="8" font-weight="bold" y="2.5" class="node-label">A</text></g><g class="noselect gnode" struct_name="m" transform="translate(81.78,229.36)" r="6.5"><circle class="node" r="6" node_type="nucleotide" style="fill: lightgreen;"></circle><text text-anchor="middle" font-size="8" font-weight="bold" y="2.5" class="node-label">U</text></g><g class="noselect gnode" struct_name="m" transform="translate(86.28,244.43)" r="6.5"><circle class="node" r="6" node_type="nucleotide" style="fill: lightgreen;"></circle><text text-anchor="middle" font-size="8" font-weight="bold" y="2.5" class="node-label">G</text></g><g class="noselect gnode" struct_name="m" transform="translate(91.25,259.35)" r="6.5"><circle class="node" r="6" node_type="nucleotide" style="fill: lightgreen;"></circle><text text-anchor="middle" font-size="8" font-weight="bold" y="2.5" class="node-label">A</text></g><g class="noselect gnode" struct_name="m" transform="translate(96.56,274.21)" r="6.5"><circle class="node" r="6" node_type="nucleotide" style="fill: lightgreen;"></circle><text text-anchor="middle" font-size="8" font-weight="bold" y="2.5" class="node-label">G</text></g><g class="noselect gnode" struct_name="m" transform="translate(111.05,279.14)" r="6.5"><circle class="node" r="6" node_type="nucleotide" style="fill: lightsalmon;"></circle><text text-anchor="middle" font-size="8" font-weight="bold" y="2.5" class="node-label">A</text></g><g class="noselect gnode" struct_name="m" transform="translate(120.11,290.87)" r="6.5"><circle class="node" r="6" node_type="nucleotide" style="fill: lightsalmon;"></circle><text text-anchor="middle" font-size="8" font-weight="bold" y="2.5" class="node-label">A</text></g><g class="noselect gnode" struct_name="m" transform="translate(120.54,305.92)" r="6.5"><circle class="node" r="6" node_type="nucleotide" style="fill: lightsalmon;"></circle><text text-anchor="middle" font-size="8" font-weight="bold" y="2.5" class="node-label">A</text></g><g class="noselect gnode" struct_name="m" transform="translate(111.82,318.02)" r="6.5"><circle class="node" r="6" node_type="nucleotide" style="fill: lightsalmon;"></circle><text text-anchor="middle" font-size="8" font-weight="bold" y="2.5" class="node-label">U</text></g><g class="noselect gnode" struct_name="m" transform="translate(97.82,323.03)" r="6.5"><circle class="node" r="6" node_type="nucleotide" style="fill: lightsalmon;"></circle><text text-anchor="middle" font-size="8" font-weight="bold" y="2.5" class="node-label">A</text></g><g class="noselect gnode" struct_name="m" transform="translate(83.43,319.35)" r="6.5"><circle class="node" r="6" node_type="nucleotide" style="fill: lightsalmon;"></circle><text text-anchor="middle" font-size="8" font-weight="bold" y="2.5" class="node-label">U</text></g><g class="noselect gnode" struct_name="m" transform="translate(29.80,157.99)" r="6.5"><circle class="node label" r="6" node_type="label"></circle><text text-anchor="middle" font-size="8" font-weight="bold" y="2.5" class="node-label">10</text></g><g class="noselect gnode" struct_name="m" transform="translate(4.87,50.57)" r="6.5"><circle class="node label" r="6" node_type="label"></circle><text text-anchor="middle" font-size="8" font-weight="bold" y="2.5" class="node-label">20</text></g><g class="noselect gnode" struct_name="m" transform="translate(19.01,-95.08)" r="6.5"><circle class="node label" r="6" node_type="label"></circle><text text-anchor="middle" font-size="8" font-weight="bold" y="2.5" class="node-label">30</text></g><g class="noselect gnode" struct_name="m" transform="translate(46.89,72.87)" r="6.5"><circle class="node label" r="6" node_type="label"></circle><text text-anchor="middle" font-size="8" font-weight="bold" y="2.5" class="node-label">40</text></g><g class="noselect gnode" struct_name="m" transform="translate(93.11,210.80)" r="6.5"><circle class="node label" r="6" node_type="label"></circle><text text-anchor="middle" font-size="8" font-weight="bold" y="2.5" class="node-label">50</text></g><g class="noselect gnode" struct_name="m" transform="translate(73.37,331.08)" r="6.5"><circle class="node label" r="6" node_type="label"></circle><text text-anchor="middle" font-size="8" font-weight="bold" y="2.5" class="node-label">60</text></g><g class="noselect gnode" transform="translate(59.60,172.70)" r="6.5"><circle class="node" r="0" node_type="middle"></circle><text text-anchor="middle" font-size="8" font-weight="bold" y="2.5" class="node-label"></text></g><g class="noselect gnode" transform="translate(54.52,157.43)" r="6.5"><circle class="node" r="0" node_type="middle"></circle><text text-anchor="middle" font-size="8" font-weight="bold" y="2.5" class="node-label"></text></g><g class="noselect gnode" transform="translate(47.94,142.80)" r="6.5"><circle class="node" r="0" node_type="middle"></circle><text text-anchor="middle" font-size="8" font-weight="bold" y="2.5" class="node-label"></text></g><g class="noselect gnode" transform="translate(39.64,128.89)" r="6.5"><circle class="node" r="0" node_type="middle"></circle><text text-anchor="middle" font-size="8" font-weight="bold" y="2.5" class="node-label"></text></g><g class="noselect gnode" transform="translate(29.58,116.16)" r="6.5"><circle class="node" r="0" node_type="middle"></circle><text text-anchor="middle" font-size="8" font-weight="bold" y="2.5" class="node-label"></text></g><g class="noselect gnode" transform="translate(22.22,77.64)" r="6.5"><circle class="node" r="0" node_type="middle"></circle><text text-anchor="middle" font-size="8" font-weight="bold" y="2.5" class="node-label"></text></g><g class="noselect gnode" transform="translate(26.53,61.83)" r="6.5"><circle class="node" r="0" node_type="middle"></circle><text text-anchor="middle" font-size="8" font-weight="bold" y="2.5" class="node-label"></text></g><g class="noselect gnode" transform="translate(28.24,45.57)" r="6.5"><circle class="node" r="0" node_type="middle"></circle><text text-anchor="middle" font-size="8" font-weight="bold" y="2.5" class="node-label"></text></g><g class="noselect gnode" transform="translate(27.41,29.35)" r="6.5"><circle class="node" r="0" node_type="middle"></circle><text text-anchor="middle" font-size="8" font-weight="bold" y="2.5" class="node-label"></text></g><g class="noselect gnode" transform="translate(23.99,13.43)" r="6.5"><circle class="node" r="0" node_type="middle"></circle><text text-anchor="middle" font-size="8" font-weight="bold" y="2.5" class="node-label"></text></g><g class="noselect gnode" transform="translate(19.59,-22.52)" r="6.5"><circle class="node" r="0" node_type="middle"></circle><text text-anchor="middle" font-size="8" font-weight="bold" y="2.5" class="node-label"></text></g><g class="noselect gnode" transform="translate(20.21,-38.44)" r="6.5"><circle class="node" r="0" node_type="middle"></circle><text text-anchor="middle" font-size="8" font-weight="bold" y="2.5" class="node-label"></text></g><g class="noselect gnode" transform="translate(86.92,269.25)" r="6.5"><circle class="node" r="0" node_type="middle"></circle><text text-anchor="middle" font-size="8" font-weight="bold" y="2.5" class="node-label"></text></g><g class="noselect gnode" transform="translate(81.69,254.25)" r="6.5"><circle class="node" r="0" node_type="middle"></circle><text text-anchor="middle" font-size="8" font-weight="bold" y="2.5" class="node-label"></text></g><g class="noselect gnode" transform="translate(76.87,239.03)" r="6.5"><circle class="node" r="0" node_type="middle"></circle><text text-anchor="middle" font-size="8" font-weight="bold" y="2.5" class="node-label"></text></g><g class="noselect gnode" transform="translate(72.61,223.61)" r="6.5"><circle class="node" r="0" node_type="middle"></circle><text text-anchor="middle" font-size="8" font-weight="bold" y="2.5" class="node-label"></text></g><g class="noselect gnode" transform="translate(73.97,307.58)" r="6.5"><circle class="node" r="0" node_type="middle"></circle><text text-anchor="middle" font-size="8" font-weight="bold" y="2.5" class="node-label"></text></g><g class="noselect gnode" transform="translate(73.03,293.27)" r="6.5"><circle class="node" r="0" node_type="middle"></circle><text text-anchor="middle" font-size="8" font-weight="bold" y="2.5" class="node-label"></text></g><g class="noselect gnode" transform="translate(96.94,298.70)" r="6.5"><circle class="node" r="0" node_type="middle"></circle><text text-anchor="middle" font-size="8" font-weight="bold" y="2.5" class="node-label"></text></g><g class="noselect gnode" transform="translate(20.24,-62.08)" r="6.5"><circle class="node" r="0" node_type="middle"></circle><text text-anchor="middle" font-size="8" font-weight="bold" y="2.5" class="node-label"></text></g><g class="noselect gnode" transform="translate(8.76,100.22)" r="6.5"><circle class="node" r="0" node_type="middle"></circle><text text-anchor="middle" font-size="8" font-weight="bold" y="2.5" class="node-label"></text></g><g class="noselect gnode" transform="translate(17.08,-4.08)" r="6.5"><circle class="node" r="0" node_type="middle"></circle><text text-anchor="middle" font-size="8" font-weight="bold" y="2.5" class="node-label"></text></g><g class="noselect gnode" transform="translate(66.16,198.12)" r="6.5"><circle class="node" r="0" node_type="middle"></circle><text text-anchor="middle" font-size="8" font-weight="bold" y="2.5" class="node-label"></text></g></g><line class="drag_line" x1="0" y1="0" x2="0" y2="0"></line></g></g></svg>