<svg xmlns="http://www.w3.org/2000/svg" viewBox="0 0 760 640" width="760" height="640"><style>svg {
  display: block;
  min-width: 100%;
  width: 100%;
  min-height: 100%;
}

circle.node {
  stroke: #ccc;
  stroke-width: 1px;
  opacity: 1;
  fill: white;
}

circle.node.label {
    stroke: transparent;
    stroke-width: 0;
    fill: white;
}

circle.outline_node {
    stroke-width: 1px;
    fill: red;
}

circle.protein {
    fill: gray;
    fill-opacity: 0.5;
    stroke-width: 4;
}

circle.hidden_outline {
    stroke-width: 0px;
}


line.link {
  stroke: #999;
  stroke-opacity: 0.8;
  stroke-width: 2;
}

line.basepair {
  stroke: red;
}

line.intermolecule {
  stroke: blue;
}

line.chain_chain {
  stroke-dasharray: 3,3;
}

line.fake {
  stroke: green;
}

.transparent {
    fill: transparent;
    stroke-width: 0;
    stroke-opacity: 0;
    opacity: 0;
    visibility: hidden;
}

.drag_line {
  stroke: #999;
  stroke-width: 2;
  pointer-events: none;
}

.drag_line_hidden {
  stroke: #999;
  stroke-width: 0;
  pointer-events: none;
}

.d3-tip {
    line-height: 1;
    font-weight: bold;
    padding: 6px;
    background: rgba(0, 0, 0, 0.6);
    color: #fff;
    border-radius: 4px;
    pointer-events: none;
          }

text.node-label {
    font-weight: bold;
    font-family: Tahoma, Geneva, sans-serif;
    color: rgb(100,100,100);
    pointer-events: none;
}

text {
    pointer-events: none;
}

g.gnode {

}

circle.outline_node.selected {
    visibility: visible;
}

circle.outline_node {
    visibility: hidden;
}

.brush .extent {
  fill-opacity: .1;
  stroke: #fff;
  shape-rendering: crispEdges;
}

.noselect {
    -webkit-touch-callout: none;
    -webkit-user-select: none;
    -khtml-user-select: none;
    -moz-user-select: none;
    -ms-user-select: none;
    user-select: none;
}

svg {
  display: block;
  min-width: 100%;
  width: 100%;
  min-height: 100%;
}

circle.node {
  stroke: #ccc;
  stroke-width: 1px;
  opacity: 1;
  fill: white;
}

circle.node.label {
    stroke: transparent;
    stroke-width: 0;
    fill: white;
}

circle.outline_node {
    stroke-width: 1px;
    fill: red;
}

circle.protein {
    fill: gray;
    fill-opacity: 0.5;
    stroke-width: 4;
}

circle.hidden_outline {
    stroke-width: 0px;
}


line.link {
  stroke: #999;
  stroke-opacity: 0.8;
  stroke-width: 2;
}

line.basepair {
  stroke: red;
}

line.intermolecule {
  stroke: blue;
}

line.chain_chain {
  stroke-dasharray: 3,3;
}

line.fake {
  stroke: green;
}

.transparent {
    fill: transparent;
    stroke-width: 0;
    stroke-opacity: 0;
    opacity: 0;
    visibility: hidden;
}

.drag_line {
  stroke: #999;
  stroke-width: 2;
  pointer-events: none;
}

.drag_line_hidden {
  stroke: #999;
  stroke-width: 0;
  pointer-events: none;
}

.d3-tip {
    line-height: 1;
    font-weight: bold;
    padding: 6px;
    background: rgba(0, 0, 0, 0.6);
    color: #fff;
    border-radius: 4px;
    pointer-events: none;
          }

text.node-label {
    font-weight: bold;
    font-family: Tahoma, Geneva, sans-serif;
    color: rgb(100,100,100);
    pointer-events: none;
}

text {
    pointer-events: none;
}

g.gnode {

}

circle.outline_node.selected {
    visibility: visible;
}

circle.outline_node {
    visibility: hidden;
}

.brush .extent {
  fill-opacity: .1;
  stroke: #fff;
  shape-rendering: crispEdges;
}

.noselect {
    -webkit-touch-callout: none;
    -webkit-user-select: none;
    -khtml-user-select: none;
    -moz-user-select: none;
    -ms-user-select: none;
    user-select: none;
}
/*# sourceURL=/Users/yumanakamura/ipy_sandbox/sandbox/claude_sandbox/mrna-transformer/scripts/eval/prerender/forna_vendor/fornac.css*/</style><style></style><g><g class="brush" style="pointer-events: all; -webkit-tap-highlight-color: rgba(0, 0, 0, 0);"><rect class="background" x="0" width="760" y="0" height="640" style="visibility: hidden; cursor: auto;"></rect><rect class="extent" x="0" width="0" y="0" height="0" style="cursor: move;"></rect><g class="resize n" transform="translate(0,0)" style="cursor: ns-resize; display: none;"><rect y="-3" width="0" height="6" style="visibility: hidden;"></rect></g><g class="resize e" transform="translate(0,0)" style="cursor: ew-resize; display: none;"><rect x="-3" width="6" height="0" style="visibility: hidden;"></rect></g><g class="resize s" transform="translate(0,0)" style="cursor: ns-resize; display: none;"><rect y="-3" width="0" height="6" style="visibility: hidden;"></rect></g><g class="resize w" transform="translate(0,0)" style="cursor: ew-resize; display: none;"><rect x="-3" width="6" height="0" style="visibility: hidden;"></rect></g><g class="resize nw" transform="translate(0,0)" style="cursor: nwse-resize; display: none;"><rect x="-3" y="-3" width="6" height="6" style="visibility: hidden;"></rect></g><g class="resize ne" transform="translate(0,0)" style="cursor: nesw-resize; display: none;"><rect x="-3" y="-3" width="6" height="6" style="visibility: hidden;"></rect></g><g class="resize se" transform="translate(0,0)" style="cursor: nwse-resize; display: none;"><rect x="-3" y="-3" width="6" height="6" style="visibility: hidden;"></rect></g><g class="resize sw" transform="translate(0,0)" style="cursor: nesw-resize; display: none;"><rect x="-3" y="-3" width="6" height="6" style="visibility: hidden;"></rect></g></g><g transform="translate(259.20,256.13) scale(1.33)"><g><line class="link basepair" x1="146.88" y1="203.49" x2="160.79" y2="198.21"></line><line class="link basepair" x1="141.20" y1="188.82" x2="154.78" y2="183.45"></line><line class="link backbone" x1="146.88" y1="203.49" x2="141.20" y2="188.82"></line><line class="link basepair" x1="135.30" y1="173.84" x2="148.91" y2="168.64"></line><line class="link backbone" x1="141.20" y1="188.82" x2="135.30" y2="173.84"></line><line class="link basepair" x1="129.67" y1="158.59" x2="143.42" y2="153.76"></line><line class="link backbone" x1="135.30" y1="173.84" x2="129.67" y2="158.59"></line><line class="link basepair" x1="124.54" y1="143.11" x2="138.42" y2="138.74"></line><line class="link backbone" x1="129.67" y1="158.59" x2="124.54" y2="143.11"></line><line class="link basepair" x1="119.74" y1="127.81" x2="134.10" y2="123.66"></line><line class="link backbone" x1="124.54" y1="143.11" x2="119.74" y2="127.81"></line><line class="link backbone" x1="119.74" y1="127.81" x2="105.13" y2="122.97"></line><line class="link backbone" x1="105.13" y1="122.97" x2="95.56" y2="111.31"></line><line class="link backbone" x1="95.56" y1="111.31" x2="93.66" y2="96.35"></line><line class="link basepair" x1="100.15" y1="82.35" x2="113.00" y2="74.72"></line><line class="link backbone" x1="93.66" y1="96.35" x2="100.15" y2="82.35"></line><line class="link basepair" x1="92.27" y1="68.34" x2="104.90" y2="61.22"></line><line class="link backbone" x1="100.15" y1="82.35" x2="92.27" y2="68.34"></line><line class="link basepair" x1="84.42" y1="53.97" x2="97.31" y2="47.26"></line><line class="link backbone" x1="92.27" y1="68.34" x2="84.42" y2="53.97"></line><line class="link basepair" x1="77.09" y1="39.31" x2="90.30" y2="33.09"></line><line class="link backbone" x1="84.42" y1="53.97" x2="77.09" y2="39.31"></line><line class="link basepair" x1="70.46" y1="24.41" x2="83.92" y2="18.74"></line><line class="link backbone" x1="77.09" y1="39.31" x2="70.46" y2="24.41"></line><line class="link basepair" x1="64.45" y1="9.39" x2="78.12" y2="4.13"></line><line class="link backbone" x1="70.46" y1="24.41" x2="64.45" y2="9.39"></line><line class="link basepair" x1="58.88" y1="-5.66" x2="72.62" y2="-10.71"></line><line class="link backbone" x1="64.45" y1="9.39" x2="58.88" y2="-5.66"></line><line class="link basepair" x1="53.40" y1="-20.62" x2="67.11" y2="-25.73"></line><line class="link backbone" x1="58.88" y1="-5.66" x2="53.40" y2="-20.62"></line><line class="link basepair" x1="47.81" y1="-35.44" x2="61.41" y2="-40.75"></line><line class="link backbone" x1="53.40" y1="-20.62" x2="47.81" y2="-35.44"></line><line class="link basepair" x1="41.89" y1="-50.19" x2="55.31" y2="-55.81"></line><line class="link backbone" x1="47.81" y1="-35.44" x2="41.89" y2="-50.19"></line><line class="link basepair" x1="35.55" y1="-64.79" x2="48.82" y2="-70.77"></line><line class="link backbone" x1="41.89" y1="-50.19" x2="35.55" y2="-64.79"></line><line class="link basepair" x1="28.82" y1="-79.24" x2="41.92" y2="-85.51"></line><line class="link backbone" x1="35.55" y1="-64.79" x2="28.82" y2="-79.24"></line><line class="link basepair" x1="21.76" y1="-93.62" x2="34.77" y2="-100.10"></line><line class="link backbone" x1="28.82" y1="-79.24" x2="21.76" y2="-93.62"></line><line class="link basepair" x1="14.49" y1="-107.85" x2="27.55" y2="-114.48"></line><line class="link backbone" x1="21.76" y1="-93.62" x2="14.49" y2="-107.85"></line><line class="link basepair" x1="7.26" y1="-121.86" x2="20.54" y2="-128.57"></line><line class="link backbone" x1="14.49" y1="-107.85" x2="7.26" y2="-121.86"></line><line class="link backbone" x1="7.26" y1="-121.86" x2="-5.55" y2="-130.35"></line><line class="link backbone" x1="-5.55" y1="-130.35" x2="-4.61" y2="-145.30"></line><line class="link backbone" x1="-4.61" y1="-145.30" x2="8.78" y2="-152.04"></line><line class="link backbone" x1="8.78" y1="-152.04" x2="21.35" y2="-143.93"></line><line class="link basepair" x1="20.54" y1="-128.57" x2="7.26" y2="-121.86"></line><line class="link backbone" x1="21.35" y1="-143.93" x2="20.54" y2="-128.57"></line><line class="link basepair" x1="27.55" y1="-114.48" x2="14.49" y2="-107.85"></line><line class="link backbone" x1="20.54" y1="-128.57" x2="27.55" y2="-114.48"></line><line class="link basepair" x1="34.77" y1="-100.10" x2="21.76" y2="-93.62"></line><line class="link backbone" x1="27.55" y1="-114.48" x2="34.77" y2="-100.10"></line><line class="link basepair" x1="41.92" y1="-85.51" x2="28.82" y2="-79.24"></line><line class="link backbone" x1="34.77" y1="-100.10" x2="41.92" y2="-85.51"></line><line class="link basepair" x1="48.82" y1="-70.77" x2="35.55" y2="-64.79"></line><line class="link backbone" x1="41.92" y1="-85.51" x2="48.82" y2="-70.77"></line><line class="link basepair" x1="55.31" y1="-55.81" x2="41.89" y2="-50.19"></line><line class="link backbone" x1="48.82" y1="-70.77" x2="55.31" y2="-55.81"></line><line class="link basepair" x1="61.41" y1="-40.75" x2="47.81" y2="-35.44"></line><line class="link backbone" x1="55.31" y1="-55.81" x2="61.41" y2="-40.75"></line><line class="link basepair" x1="67.11" y1="-25.73" x2="53.40" y2="-20.62"></line><line class="link backbone" x1="61.41" y1="-40.75" x2="67.11" y2="-25.73"></line><line class="link basepair" x1="72.62" y1="-10.71" x2="58.88" y2="-5.66"></line><line class="link backbone" x1="67.11" y1="-25.73" x2="72.62" y2="-10.71"></line><line class="link basepair" x1="78.12" y1="4.13" x2="64.45" y2="9.39"></line><line class="link backbone" x1="72.62" y1="-10.71" x2="78.12" y2="4.13"></line><line class="link basepair" x1="83.92" y1="18.74" x2="70.46" y2="24.41"></line><line class="link backbone" x1="78.12" y1="4.13" x2="83.92" y2="18.74"></line><line class="link basepair" x1="90.30" y1="33.09" x2="77.09" y2="39.31"></line><line class="link backbone" x1="83.92" y1="18.74" x2="90.30" y2="33.09"></line><line class="link basepair" x1="97.31" y1="47.26" x2="84.42" y2="53.97"></line><line class="link backbone" x1="90.30" y1="33.09" x2="97.31" y2="47.26"></line><line class="link basepair" x1="104.90" y1="61.22" x2="92.27" y2="68.34"></line><line class="link backbone" x1="97.31" y1="47.26" x2="104.90" y2="61.22"></line><line class="link basepair" x1="113.00" y1="74.72" x2="100.15" y2="82.35"></line><line class="link backbone" x1="104.90" y1="61.22" x2="113.00" y2="74.72"></line><line class="link backbone" x1="113.00" y1="74.72" x2="128.33" y2="75.22"></line><line class="link backbone" x1="128.33" y1="75.22" x2="140.88" y2="83.45"></line><line class="link backbone" x1="140.88" y1="83.45" x2="146.91" y2="97.40"></line><line class="link backbone" x1="146.91" y1="97.40" x2="144.29" y2="112.18"></line><line class="link basepair" x1="134.10" y1="123.66" x2="119.74" y2="127.81"></line><line class="link backbone" x1="144.29" y1="112.18" x2="134.10" y2="123.66"></line><line class="link basepair" x1="138.42" y1="138.74" x2="124.54" y2="143.11"></line><line class="link backbone" x1="134.10" y1="123.66" x2="138.42" y2="138.74"></line><line class="link basepair" x1="143.42" y1="153.76" x2="129.67" y2="158.59"></line><line class="link backbone" x1="138.42" y1="138.74" x2="143.42" y2="153.76"></line><line class="link basepair" x1="148.91" y1="168.64" x2="135.30" y2="173.84"></line><line class="link backbone" x1="143.42" y1="153.76" x2="148.91" y2="168.64"></line><line class="link basepair" x1="154.78" y1="183.45" x2="141.20" y2="188.82"></line><line class="link backbone" x1="148.91" y1="168.64" x2="154.78" y2="183.45"></line><line class="link basepair" x1="160.79" y1="198.21" x2="146.88" y2="203.49"></line><line class="link backbone" x1="154.78" y1="183.45" x2="160.79" y2="198.21"></line><line class="link backbone" x1="160.79" y1="198.21" x2="175.73" y2="201.70"></line><line class="link backbone" x1="175.73" y1="201.70" x2="186.48" y2="212.10"></line><line class="link backbone" x1="186.48" y1="212.10" x2="189.90" y2="226.73"></line><line class="link backbone" x1="189.90" y1="226.73" x2="184.97" y2="240.82"></line><line class="link backbone" x1="184.97" y1="240.82" x2="173.30" y2="250.07"></line><line class="link backbone" x1="173.30" y1="250.07" x2="158.52" y2="251.85"></line><line class="link backbone" x1="158.52" y1="251.85" x2="145.05" y2="245.54"></line><line class="link label_link" x1="100.15" y1="82.35" x2="85.51" y2="87.55"></line><line class="link label_link" x1="35.55" y1="-64.79" x2="21.37" y2="-58.30"></line><line class="link label_link" x1="27.55" y1="-114.48" x2="39.26" y2="-124.78"></line><line class="link label_link" x1="90.30" y1="33.09" x2="103.93" y2="25.56"></line><line class="link label_link" x1="143.42" y1="153.76" x2="158.17" y2="148.70"></line><line class="link label_link" x1="145.05" y1="245.54" x2="133.95" y2="256.31"></line><line class="link fake transparent" x1="100.15" y1="82.35" x2="102.60" y2="71.83"></line><line class="link fake transparent" x1="100.15" y1="82.35" x2="104.90" y2="61.22"></line><line class="link fake transparent" x1="92.27" y1="68.34" x2="102.60" y2="71.83"></line><line class="link fake transparent" x1="104.90" y1="61.22" x2="102.60" y2="71.83"></line><line class="link fake transparent" x1="113.00" y1="74.72" x2="102.60" y2="71.83"></line><line class="link fake transparent" x1="92.27" y1="68.34" x2="94.60" y2="57.78"></line><line class="link fake transparent" x1="84.42" y1="53.97" x2="94.60" y2="57.78"></line><line class="link fake transparent" x1="97.31" y1="47.26" x2="94.60" y2="57.78"></line><line class="link fake transparent" x1="104.90" y1="61.22" x2="94.60" y2="57.78"></line><line class="link fake transparent" x1="84.42" y1="53.97" x2="87.11" y2="43.48"></line><line class="link fake transparent" x1="77.09" y1="39.31" x2="87.11" y2="43.48"></line><line class="link fake transparent" x1="90.30" y1="33.09" x2="87.11" y2="43.48"></line><line class="link fake transparent" x1="97.31" y1="47.26" x2="87.11" y2="43.48"></line><line class="link fake transparent" x1="77.09" y1="39.31" x2="80.26" y2="28.98"></line><line class="link fake transparent" x1="70.46" y1="24.41" x2="80.26" y2="28.98"></line><line class="link fake transparent" x1="83.92" y1="18.74" x2="80.26" y2="28.98"></line><line class="link fake transparent" x1="90.30" y1="33.09" x2="80.26" y2="28.98"></line><line class="link fake transparent" x1="70.46" y1="24.41" x2="74.12" y2="14.23"></line><line class="link fake transparent" x1="64.45" y1="9.39" x2="74.12" y2="14.23"></line><line class="link fake transparent" x1="78.12" y1="4.13" x2="74.12" y2="14.23"></line><line class="link fake transparent" x1="83.92" y1="18.74" x2="74.12" y2="14.23"></line><line class="link fake transparent" x1="64.45" y1="9.39" x2="68.46" y2="-0.69"></line><line class="link fake transparent" x1="58.88" y1="-5.66" x2="68.46" y2="-0.69"></line><line class="link fake transparent" x1="72.62" y1="-10.71" x2="68.46" y2="-0.69"></line><line class="link fake transparent" x1="78.12" y1="4.13" x2="68.46" y2="-0.69"></line><line class="link fake transparent" x1="58.88" y1="-5.66" x2="63.03" y2="-15.68"></line><line class="link fake transparent" x1="53.40" y1="-20.62" x2="63.03" y2="-15.68"></line><line class="link fake transparent" x1="67.11" y1="-25.73" x2="63.03" y2="-15.68"></line><line class="link fake transparent" x1="72.62" y1="-10.71" x2="63.03" y2="-15.68"></line><line class="link fake transparent" x1="53.40" y1="-20.62" x2="57.51" y2="-30.64"></line><line class="link fake transparent" x1="47.81" y1="-35.44" x2="57.51" y2="-30.64"></line><line class="link fake transparent" x1="61.41" y1="-40.75" x2="57.51" y2="-30.64"></line><line class="link fake transparent" x1="67.11" y1="-25.73" x2="57.51" y2="-30.64"></line><line class="link fake transparent" x1="47.81" y1="-35.44" x2="51.71" y2="-45.56"></line><line class="link fake transparent" x1="41.89" y1="-50.19" x2="51.71" y2="-45.56"></line><line class="link fake transparent" x1="55.31" y1="-55.81" x2="51.71" y2="-45.56"></line><line class="link fake transparent" x1="61.41" y1="-40.75" x2="51.71" y2="-45.56"></line><line class="link fake transparent" x1="41.89" y1="-50.19" x2="45.52" y2="-60.43"></line><line class="link fake transparent" x1="35.55" y1="-64.79" x2="45.52" y2="-60.43"></line><line class="link fake transparent" x1="48.82" y1="-70.77" x2="45.52" y2="-60.43"></line><line class="link fake transparent" x1="55.31" y1="-55.81" x2="45.52" y2="-60.43"></line><line class="link fake transparent" x1="35.55" y1="-64.79" x2="38.88" y2="-75.14"></line><line class="link fake transparent" x1="28.82" y1="-79.24" x2="38.88" y2="-75.14"></line><line class="link fake transparent" x1="41.92" y1="-85.51" x2="38.88" y2="-75.14"></line><line class="link fake transparent" x1="48.82" y1="-70.77" x2="38.88" y2="-75.14"></line><line class="link fake transparent" x1="28.82" y1="-79.24" x2="31.88" y2="-89.66"></line><line class="link fake transparent" x1="21.76" y1="-93.62" x2="31.88" y2="-89.66"></line><line class="link fake transparent" x1="34.77" y1="-100.10" x2="31.88" y2="-89.66"></line><line class="link fake transparent" x1="41.92" y1="-85.51" x2="31.88" y2="-89.66"></line><line class="link fake transparent" x1="21.76" y1="-93.62" x2="24.65" y2="-104.05"></line><line class="link fake transparent" x1="14.49" y1="-107.85" x2="24.65" y2="-104.05"></line><line class="link fake transparent" x1="27.55" y1="-114.48" x2="24.65" y2="-104.05"></line><line class="link fake transparent" x1="34.77" y1="-100.10" x2="24.65" y2="-104.05"></line><line class="link fake transparent" x1="14.49" y1="-107.85" x2="17.42" y2="-118.20"></line><line class="link fake transparent" x1="7.26" y1="-121.86" x2="17.42" y2="-118.20"></line><line class="link fake transparent" x1="20.54" y1="-128.57" x2="17.42" y2="-118.20"></line><line class="link fake transparent" x1="27.55" y1="-114.48" x2="17.42" y2="-118.20"></line><line class="link fake transparent" x1="146.88" y1="203.49" x2="150.99" y2="193.61"></line><line class="link fake transparent" x1="141.20" y1="188.82" x2="150.99" y2="193.61"></line><line class="link fake transparent" x1="154.78" y1="183.45" x2="150.99" y2="193.61"></line><line class="link fake transparent" x1="160.79" y1="198.21" x2="150.99" y2="193.61"></line><line class="link fake transparent" x1="141.20" y1="188.82" x2="145.00" y2="178.76"></line><line class="link fake transparent" x1="135.30" y1="173.84" x2="145.00" y2="178.76"></line><line class="link fake transparent" x1="148.91" y1="168.64" x2="145.00" y2="178.76"></line><line class="link fake transparent" x1="154.78" y1="183.45" x2="145.00" y2="178.76"></line><line class="link fake transparent" x1="135.30" y1="173.84" x2="139.21" y2="163.78"></line><line class="link fake transparent" x1="129.67" y1="158.59" x2="139.21" y2="163.78"></line><line class="link fake transparent" x1="143.42" y1="153.76" x2="139.21" y2="163.78"></line><line class="link fake transparent" x1="148.91" y1="168.64" x2="139.21" y2="163.78"></line><line class="link fake transparent" x1="129.67" y1="158.59" x2="133.86" y2="148.59"></line><line class="link fake transparent" x1="124.54" y1="143.11" x2="133.86" y2="148.59"></line><line class="link fake transparent" x1="138.42" y1="138.74" x2="133.86" y2="148.59"></line><line class="link fake transparent" x1="143.42" y1="153.76" x2="133.86" y2="148.59"></line><line class="link fake transparent" x1="124.54" y1="143.11" x2="129.07" y2="133.24"></line><line class="link fake transparent" x1="119.74" y1="127.81" x2="129.07" y2="133.24"></line><line class="link fake transparent" x1="134.10" y1="123.66" x2="129.07" y2="133.24"></line><line class="link fake transparent" x1="138.42" y1="138.74" x2="129.07" y2="133.24"></line><line class="link fake transparent" x1="146.88" y1="203.49" x2="163.02" y2="225.19"></line><line class="link fake transparent" x1="146.88" y1="203.49" x2="184.97" y2="240.82"></line><line class="link fake transparent" x1="160.79" y1="198.21" x2="163.02" y2="225.19"></line><line class="link fake transparent" x1="160.79" y1="198.21" x2="173.30" y2="250.07"></line><line class="link fake transparent" x1="175.73" y1="201.70" x2="163.02" y2="225.19"></line><line class="link fake transparent" x1="175.73" y1="201.70" x2="158.52" y2="251.85"></line><line class="link fake transparent" x1="186.48" y1="212.10" x2="163.02" y2="225.19"></line><line class="link fake transparent" x1="186.48" y1="212.10" x2="145.05" y2="245.54"></line><line class="link fake transparent" x1="189.90" y1="226.73" x2="163.02" y2="225.19"></line><line class="link fake transparent" x1="189.90" y1="226.73" x2="136.46" y2="233.90"></line><line class="link fake transparent" x1="184.97" y1="240.82" x2="163.02" y2="225.19"></line><line class="link fake transparent" x1="184.97" y1="240.82" x2="135.85" y2="218.78"></line><line class="link fake transparent" x1="173.30" y1="250.07" x2="163.02" y2="225.19"></line><line class="link fake transparent" x1="173.30" y1="250.07" x2="146.88" y2="203.49"></line><line class="link fake transparent" x1="158.52" y1="251.85" x2="163.02" y2="225.19"></line><line class="link fake transparent" x1="158.52" y1="251.85" x2="160.79" y2="198.21"></line><line class="link fake transparent" x1="145.05" y1="245.54" x2="163.02" y2="225.19"></line><line class="link fake transparent" x1="145.05" y1="245.54" x2="175.73" y2="201.70"></line><line class="link fake transparent" x1="7.26" y1="-121.86" x2="7.98" y2="-136.97"></line><line class="link fake transparent" x1="7.26" y1="-121.86" x2="8.78" y2="-152.04"></line><line class="link fake transparent" x1="-5.55" y1="-130.35" x2="7.98" y2="-136.97"></line><line class="link fake transparent" x1="-5.55" y1="-130.35" x2="21.35" y2="-143.93"></line><line class="link fake transparent" x1="-4.61" y1="-145.30" x2="7.98" y2="-136.97"></line><line class="link fake transparent" x1="-4.61" y1="-145.30" x2="20.54" y2="-128.57"></line><line class="link fake transparent" x1="8.78" y1="-152.04" x2="7.98" y2="-136.97"></line><line class="link fake transparent" x1="8.78" y1="-152.04" x2="7.26" y2="-121.86"></line><line class="link fake transparent" x1="21.35" y1="-143.93" x2="7.98" y2="-136.97"></line><line class="link fake transparent" x1="21.35" y1="-143.93" x2="-5.55" y2="-130.35"></line><line class="link fake transparent" x1="20.54" y1="-128.57" x2="7.98" y2="-136.97"></line><line class="link fake transparent" x1="20.54" y1="-128.57" x2="-4.61" y2="-145.30"></line><line class="link fake transparent" x1="119.74" y1="127.81" x2="120.11" y2="100.69"></line><line class="link fake transparent" x1="119.74" y1="127.81" x2="113.00" y2="74.72"></line><line class="link fake transparent" x1="105.13" y1="122.97" x2="120.11" y2="100.69"></line><line class="link fake transparent" x1="105.13" y1="122.97" x2="128.33" y2="75.22"></line><line class="link fake transparent" x1="95.56" y1="111.31" x2="120.11" y2="100.69"></line><line class="link fake transparent" x1="95.56" y1="111.31" x2="140.88" y2="83.45"></line><line class="link fake transparent" x1="93.66" y1="96.35" x2="120.11" y2="100.69"></line><line class="link fake transparent" x1="93.66" y1="96.35" x2="146.91" y2="97.40"></line><line class="link fake transparent" x1="100.15" y1="82.35" x2="120.11" y2="100.69"></line><line class="link fake transparent" x1="100.15" y1="82.35" x2="144.29" y2="112.18"></line><line class="link fake transparent" x1="113.00" y1="74.72" x2="120.11" y2="100.69"></line><line class="link fake transparent" x1="113.00" y1="74.72" x2="134.10" y2="123.66"></line><line class="link fake transparent" x1="128.33" y1="75.22" x2="120.11" y2="100.69"></line><line class="link fake transparent" x1="128.33" y1="75.22" x2="119.74" y2="127.81"></line><line class="link fake transparent" x1="140.88" y1="83.45" x2="120.11" y2="100.69"></line><line class="link fake transparent" x1="140.88" y1="83.45" x2="105.13" y2="122.97"></line><line class="link fake transparent" x1="146.91" y1="97.40" x2="120.11" y2="100.69"></line><line class="link fake transparent" x1="146.91" y1="97.40" x2="95.56" y2="111.31"></line><line class="link fake transparent" x1="144.29" y1="112.18" x2="120.11" y2="100.69"></line><line class="link fake transparent" x1="144.29" y1="112.18" x2="93.66" y2="96.35"></line><line class="link fake transparent" x1="134.10" y1="123.66" x2="120.11" y2="100.69"></line><line class="link fake transparent" x1="134.10" y1="123.66" x2="100.15" y2="82.35"></line></g><g><g class="noselect gnode" struct_name="m" transform="translate(146.88,203.49)" r="6.5"><circle class="node" r="6" node_type="nucleotide" style="fill: lightgreen;"></circle><text text-anchor="middle" font-size="8" font-weight="bold" y="2.5" class="node-label">A</text></g><g class="noselect gnode" struct_name="m" transform="translate(141.20,188.82)" r="6.5"><circle class="node" r="6" node_type="nucleotide" style="fill: lightgreen;"></circle><text text-anchor="middle" font-size="8" font-weight="bold" y="2.5" class="node-label">U</text></g><g class="noselect gnode" struct_name="m" transform="translate(135.30,173.84)" r="6.5"><circle class="node" r="6" node_type="nucleotide" style="fill: lightgreen;"></circle><text text-anchor="middle" font-size="8" font-weight="bold" y="2.5" class="node-label">C</text></g><g class="noselect gnode" struct_name="m" transform="translate(129.67,158.59)" r="6.5"><circle class="node" r="6" node_type="nucleotide" style="fill: lightgreen;"></circle><text text-anchor="middle" font-size="8" font-weight="bold" y="2.5" class="node-label">G</text></g><g class="noselect gnode" struct_name="m" transform="translate(124.54,143.11)" r="6.5"><circle class="node" r="6" node_type="nucleotide" style="fill: lightgreen;"></circle><text text-anchor="middle" font-size="8" font-weight="bold" y="2.5" class="node-label">G</text></g><g class="noselect gnode" struct_name="m" transform="translate(119.74,127.81)" r="6.5"><circle class="node" r="6" node_type="nucleotide" style="fill: lightgreen;"></circle><text text-anchor="middle" font-size="8" font-weight="bold" y="2.5" class="node-label">G</text></g><g class="noselect gnode" struct_name="m" transform="translate(105.13,122.97)" r="6.5"><circle class="node" r="6" node_type="nucleotide" style="fill: rgb(219, 219, 141);"></circle><text text-anchor="middle" font-size="8" font-weight="bold" y="2.5" class="node-label">A</text></g><g class="noselect gnode" struct_name="m" transform="translate(95.56,111.31)" r="6.5"><circle class="node" r="6" node_type="nucleotide" style="fill: rgb(219, 219, 141);"></circle><text text-anchor="middle" font-size="8" font-weight="bold" y="2.5" class="node-label">A</text></g><g class="noselect gnode" struct_name="m" transform="translate(93.66,96.35)" r="6.5"><circle class="node" r="6" node_type="nucleotide" style="fill: rgb(219, 219, 141);"></circle><text text-anchor="middle" font-size="8" font-weight="bold" y="2.5" class="node-label">U</text></g><g class="noselect gnode" struct_name="m" transform="translate(100.15,82.35)" r="6.5"><circle class="node" r="6" node_type="nucleotide" style="fill: lightgreen;"></circle><text text-anchor="middle" font-size="8" font-weight="bold" y="2.5" class="node-label">U</text></g><g class="noselect gnode" struct_name="m" transform="translate(92.27,68.34)" r="6.5"><circle class="node" r="6" node_type="nucleotide" style="fill: lightgreen;"></circle><text text-anchor="middle" font-size="8" font-weight="bold" y="2.5" class="node-label">A</text></g><g class="noselect gnode" struct_name="m" transform="translate(84.42,53.97)" r="6.5"><circle class="node" r="6" node_type="nucleotide" style="fill: lightgreen;"></circle><text text-anchor="middle" font-size="8" font-weight="bold" y="2.5" class="node-label">C</text></g><g class="noselect gnode" struct_name="m" transform="translate(77.09,39.31)" r="6.5"><circle class="node" r="6" node_type="nucleotide" style="fill: lightgreen;"></circle><text text-anchor="middle" font-size="8" font-weight="bold" y="2.5" class="node-label">A</text></g><g class="noselect gnode" struct_name="m" transform="translate(70.46,24.41)" r="6.5"><circle class="node" r="6" node_type="nucleotide" style="fill: lightgreen;"></circle><text text-anchor="middle" font-size="8" font-weight="bold" y="2.5" class="node-label">U</text></g><g class="noselect gnode" struct_name="m" transform="translate(64.45,9.39)" r="6.5"><circle class="node" r="6" node_type="nucleotide" style="fill: lightgreen;"></circle><text text-anchor="middle" font-size="8" font-weight="bold" y="2.5" class="node-label">C</text></g><g class="noselect gnode" struct_name="m" transform="translate(58.88,-5.66)" r="6.5"><circle class="node" r="6" node_type="nucleotide" style="fill: lightgreen;"></circle><text text-anchor="middle" font-size="8" font-weight="bold" y="2.5" class="node-label">G</text></g><g class="noselect gnode" struct_name="m" transform="translate(53.40,-20.62)" r="6.5"><circle class="node" r="6" node_type="nucleotide" style="fill: lightgreen;"></circle><text text-anchor="middle" font-size="8" font-weight="bold" y="2.5" class="node-label">C</text></g><g class="noselect gnode" struct_name="m" transform="translate(47.81,-35.44)" r="6.5"><circle class="node" r="6" node_type="nucleotide" style="fill: lightgreen;"></circle><text text-anchor="middle" font-size="8" font-weight="bold" y="2.5" class="node-label">A</text></g><g class="noselect gnode" struct_name="m" transform="translate(41.89,-50.19)" r="6.5"><circle class="node" r="6" node_type="nucleotide" style="fill: lightgreen;"></circle><text text-anchor="middle" font-size="8" font-weight="bold" y="2.5" class="node-label">U</text></g><g class="noselect gnode" struct_name="m" transform="translate(35.55,-64.79)" r="6.5"><circle class="node" r="6" node_type="nucleotide" style="fill: lightgreen;"></circle><text text-anchor="middle" font-size="8" font-weight="bold" y="2.5" class="node-label">C</text></g><g class="noselect gnode" struct_name="m" transform="translate(28.82,-79.24)" r="6.5"><circle class="node" r="6" node_type="nucleotide" style="fill: lightgreen;"></circle><text text-anchor="middle" font-size="8" font-weight="bold" y="2.5" class="node-label">C</text></g><g class="noselect gnode" struct_name="m" transform="translate(21.76,-93.62)" r="6.5"><circle class="node" r="6" node_type="nucleotide" style="fill: lightgreen;"></circle><text text-anchor="middle" font-size="8" font-weight="bold" y="2.5" class="node-label">C</text></g><g class="noselect gnode" struct_name="m" transform="translate(14.49,-107.85)" r="6.5"><circle class="node" r="6" node_type="nucleotide" style="fill: lightgreen;"></circle><text text-anchor="middle" font-size="8" font-weight="bold" y="2.5" class="node-label">G</text></g><g class="noselect gnode" struct_name="m" transform="translate(7.26,-121.86)" r="6.5"><circle class="node" r="6" node_type="nucleotide" style="fill: lightgreen;"></circle><text text-anchor="middle" font-size="8" font-weight="bold" y="2.5" class="node-label">U</text></g><g class="noselect gnode" struct_name="m" transform="translate(-5.55,-130.35)" r="6.5"><circle class="node" r="6" node_type="nucleotide" style="fill: lightblue;"></circle><text text-anchor="middle" font-size="8" font-weight="bold" y="2.5" class="node-label">U</text></g><g class="noselect gnode" struct_name="m" transform="translate(-4.61,-145.30)" r="6.5"><circle class="node" r="6" node_type="nucleotide" style="fill: lightblue;"></circle><text text-anchor="middle" font-size="8" font-weight="bold" y="2.5" class="node-label">G</text></g><g class="noselect gnode" struct_name="m" transform="translate(8.78,-152.04)" r="6.5"><circle class="node" r="6" node_type="nucleotide" style="fill: lightblue;"></circle><text text-anchor="middle" font-size="8" font-weight="bold" y="2.5" class="node-label">U</text></g><g class="noselect gnode" struct_name="m" transform="translate(21.35,-143.93)" r="6.5"><circle class="node" r="6" node_type="nucleotide" style="fill: lightblue;"></circle><text text-anchor="middle" font-size="8" font-weight="bold" y="2.5" class="node-label">U</text></g><g class="noselect gnode" struct_name="m" transform="translate(20.54,-128.57)" r="6.5"><circle class="node" r="6" node_type="nucleotide" style="fill: lightgreen;"></circle><text text-anchor="middle" font-size="8" font-weight="bold" y="2.5" class="node-label">A</text></g><g class="noselect gnode" struct_name="m" transform="translate(27.55,-114.48)" r="6.5"><circle class="node" r="6" node_type="nucleotide" style="fill: lightgreen;"></circle><text text-anchor="middle" font-size="8" font-weight="bold" y="2.5" class="node-label">C</text></g><g class="noselect gnode" struct_name="m" transform="translate(34.77,-100.10)" r="6.5"><circle class="node" r="6" node_type="nucleotide" style="fill: lightgreen;"></circle><text text-anchor="middle" font-size="8" font-weight="bold" y="2.5" class="node-label">G</text></g><g class="noselect gnode" struct_name="m" transform="translate(41.92,-85.51)" r="6.5"><circle class="node" r="6" node_type="nucleotide" style="fill: lightgreen;"></circle><text text-anchor="middle" font-size="8" font-weight="bold" y="2.5" class="node-label">G</text></g><g class="noselect gnode" struct_name="m" transform="translate(48.82,-70.77)" r="6.5"><circle class="node" r="6" node_type="nucleotide" style="fill: lightgreen;"></circle><text text-anchor="middle" font-size="8" font-weight="bold" y="2.5" class="node-label">G</text></g><g class="noselect gnode" struct_name="m" transform="translate(55.31,-55.81)" r="6.5"><circle class="node" r="6" node_type="nucleotide" style="fill: lightgreen;"></circle><text text-anchor="middle" font-size="8" font-weight="bold" y="2.5" class="node-label">G</text></g><g class="noselect gnode" struct_name="m" transform="translate(61.41,-40.75)" r="6.5"><circle class="node" r="6" node_type="nucleotide" style="fill: lightgreen;"></circle><text text-anchor="middle" font-size="8" font-weight="bold" y="2.5" class="node-label">U</text></g><g class="noselect gnode" struct_name="m" transform="translate(67.11,-25.73)" r="6.5"><circle class="node" r="6" node_type="nucleotide" style="fill: lightgreen;"></circle><text text-anchor="middle" font-size="8" font-weight="bold" y="2.5" class="node-label">G</text></g><g class="noselect gnode" struct_name="m" transform="translate(72.62,-10.71)" r="6.5"><circle class="node" r="6" node_type="nucleotide" style="fill: lightgreen;"></circle><text text-anchor="middle" font-size="8" font-weight="bold" y="2.5" class="node-label">U</text></g><g class="noselect gnode" struct_name="m" transform="translate(78.12,4.13)" r="6.5"><circle class="node" r="6" node_type="nucleotide" style="fill: lightgreen;"></circle><text text-anchor="middle" font-size="8" font-weight="bold" y="2.5" class="node-label">G</text></g><g class="noselect gnode" struct_name="m" transform="translate(83.92,18.74)" r="6.5"><circle class="node" r="6" node_type="nucleotide" style="fill: lightgreen;"></circle><text text-anchor="middle" font-size="8" font-weight="bold" y="2.5" class="node-label">G</text></g><g class="noselect gnode" struct_name="m" transform="translate(90.30,33.09)" r="6.5"><circle class="node" r="6" node_type="nucleotide" style="fill: lightgreen;"></circle><text text-anchor="middle" font-size="8" font-weight="bold" y="2.5" class="node-label">U</text></g><g class="noselect gnode" struct_name="m" transform="translate(97.31,47.26)" r="6.5"><circle class="node" r="6" node_type="nucleotide" style="fill: lightgreen;"></circle><text text-anchor="middle" font-size="8" font-weight="bold" y="2.5" class="node-label">G</text></g><g class="noselect gnode" struct_name="m" transform="translate(104.90,61.22)" r="6.5"><circle class="node" r="6" node_type="nucleotide" style="fill: lightgreen;"></circle><text text-anchor="middle" font-size="8" font-weight="bold" y="2.5" class="node-label">U</text></g><g class="noselect gnode" struct_name="m" transform="translate(113.00,74.72)" r="6.5"><circle class="node" r="6" node_type="nucleotide" style="fill: lightgreen;"></circle><text text-anchor="middle" font-size="8" font-weight="bold" y="2.5" class="node-label">A</text></g><g class="noselect gnode" struct_name="m" transform="translate(128.33,75.22)" r="6.5"><circle class="node" r="6" node_type="nucleotide" style="fill: rgb(219, 219, 141);"></circle><text text-anchor="middle" font-size="8" font-weight="bold" y="2.5" class="node-label">U</text></g><g class="noselect gnode" struct_name="m" transform="translate(140.88,83.45)" r="6.5"><circle class="node" r="6" node_type="nucleotide" style="fill: rgb(219, 219, 141);"></circle><text text-anchor="middle" font-size="8" font-weight="bold" y="2.5" class="node-label">U</text></g><g class="noselect gnode" struct_name="m" transform="translate(146.91,97.40)" r="6.5"><circle class="node" r="6" node_type="nucleotide" style="fill: rgb(219, 219, 141);"></circle><text text-anchor="middle" font-size="8" font-weight="bold" y="2.5" class="node-label">U</text></g><g class="noselect gnode" struct_name="m" transform="translate(144.29,112.18)" r="6.5"><circle class="node" r="6" node_type="nucleotide" style="fill: rgb(219, 219, 141);"></circle><text text-anchor="middle" font-size="8" font-weight="bold" y="2.5" class="node-label">G</text></g><g class="noselect gnode" struct_name="m" transform="translate(134.10,123.66)" r="6.5"><circle class="node" r="6" node_type="nucleotide" style="fill: lightgreen;"></circle><text text-anchor="middle" font-size="8" font-weight="bold" y="2.5" class="node-label">C</text></g><g class="noselect gnode" struct_name="m" transform="translate(138.42,138.74)" r="6.5"><circle class="node" r="6" node_type="nucleotide" style="fill: lightgreen;"></circle><text text-anchor="middle" font-size="8" font-weight="bold" y="2.5" class="node-label">C</text></g><g class="noselect gnode" struct_name="m" transform="translate(143.42,153.76)" r="6.5"><circle class="node" r="6" node_type="nucleotide" style="fill: lightgreen;"></circle><text text-anchor="middle" font-size="8" font-weight="bold" y="2.5" class="node-label">C</text></g><g class="noselect gnode" struct_name="m" transform="translate(148.91,168.64)" r="6.5"><circle class="node" r="6" node_type="nucleotide" style="fill: lightgreen;"></circle><text text-anchor="middle" font-size="8" font-weight="bold" y="2.5" class="node-label">G</text></g><g class="noselect gnode" struct_name="m" transform="translate(154.78,183.45)" r="6.5"><circle class="node" r="6" node_type="nucleotide" style="fill: lightgreen;"></circle><text text-anchor="middle" font-size="8" font-weight="bold" y="2.5" class="node-label">A</text></g><g class="noselect gnode" struct_name="m" transform="translate(160.79,198.21)" r="6.5"><circle class="node" r="6" node_type="nucleotide" style="fill: lightgreen;"></circle><text text-anchor="middle" font-size="8" font-weight="bold" y="2.5" class="node-label">U</text></g><g class="noselect gnode" struct_name="m" transform="translate(175.73,201.70)" r="6.5"><circle class="node" r="6" node_type="nucleotide" style="fill: lightsalmon;"></circle><text text-anchor="middle" font-size="8" font-weight="bold" y="2.5" class="node-label">G</text></g><g class="noselect gnode" struct_name="m" transform="translate(186.48,212.10)" r="6.5"><circle class="node" r="6" node_type="nucleotide" style="fill: lightsalmon;"></circle><text text-anchor="middle" font-size="8" font-weight="bold" y="2.5" class="node-label">A</text></g><g class="noselect gnode" struct_name="m" transform="translate(189.90,226.73)" r="6.5"><circle class="node" r="6" node_type="nucleotide" style="fill: lightsalmon;"></circle><text text-anchor="middle" font-size="8" font-weight="bold" y="2.5" class="node-label">U</text></g><g class="noselect gnode" struct_name="m" transform="translate(184.97,240.82)" r="6.5"><circle class="node" r="6" node_type="nucleotide" style="fill: lightsalmon;"></circle><text text-anchor="middle" font-size="8" font-weight="bold" y="2.5" class="node-label">U</text></g><g class="noselect gnode" struct_name="m" transform="translate(173.30,250.07)" r="6.5"><circle class="node" r="6" node_type="nucleotide" style="fill: lightsalmon;"></circle><text text-anchor="middle" font-size="8" font-weight="bold" y="2.5" class="node-label">C</text></g><g class="noselect gnode" struct_name="m" transform="translate(158.52,251.85)" r="6.5"><circle class="node" r="6" node_type="nucleotide" style="fill: lightsalmon;"></circle><text text-anchor="middle" font-size="8" font-weight="bold" y="2.5" class="node-label">U</text></g><g class="noselect gnode" struct_name="m" transform="translate(145.05,245.54)" r="6.5"><circle class="node" r="6" node_type="nucleotide" style="fill: lightsalmon;"></circle><text text-anchor="middle" font-size="8" font-weight="bold" y="2.5" class="node-label">U</text></g><g class="noselect gnode" struct_name="m" transform="translate(85.51,87.55)" r="6.5"><circle class="node label" r="6" node_type="label"></circle><text text-anchor="middle" font-size="8" font-weight="bold" y="2.5" class="node-label">10</text></g><g class="noselect gnode" struct_name="m" transform="translate(21.37,-58.30)" r="6.5"><circle class="node label" r="6" node_type="label"></circle><text text-anchor="middle" font-size="8" font-weight="bold" y="2.5" class="node-label">20</text></g><g class="noselect gnode" struct_name="m" transform="translate(39.26,-124.78)" r="6.5"><circle class="node label" r="6" node_type="label"></circle><text text-anchor="middle" font-size="8" font-weight="bold" y="2.5" class="node-label">30</text></g><g class="noselect gnode" struct_name="m" transform="translate(103.93,25.56)" r="6.5"><circle class="node label" r="6" node_type="label"></circle><text text-anchor="middle" font-size="8" font-weight="bold" y="2.5" class="node-label">40</text></g><g class="noselect gnode" struct_name="m" transform="translate(158.17,148.70)" r="6.5"><circle class="node label" r="6" node_type="label"></circle><text text-anchor="middle" font-size="8" font-weight="bold" y="2.5" class="node-label">50</text></g><g class="noselect gnode" struct_name="m" transform="translate(133.95,256.31)" r="6.5"><circle class="node label" r="6" node_type="label"></circle><text text-anchor="middle" font-size="8" font-weight="bold" y="2.5" class="node-label">60</text></g><g class="noselect gnode" transform="translate(102.60,71.83)" r="6.5"><circle class="node" r="0" node_type="middle"></circle><text text-anchor="middle" font-size="8" font-weight="bold" y="2.5" class="node-label"></text></g><g class="noselect gnode" transform="translate(94.60,57.78)" r="6.5"><circle class="node" r="0" node_type="middle"></circle><text text-anchor="middle" font-size="8" font-weight="bold" y="2.5" class="node-label"></text></g><g class="noselect gnode" transform="translate(87.11,43.48)" r="6.5"><circle class="node" r="0" node_type="middle"></circle><text text-anchor="middle" font-size="8" font-weight="bold" y="2.5" class="node-label"></text></g><g class="noselect gnode" transform="translate(80.26,28.98)" r="6.5"><circle class="node" r="0" node_type="middle"></circle><text text-anchor="middle" font-size="8" font-weight="bold" y="2.5" class="node-label"></text></g><g class="noselect gnode" transform="translate(74.12,14.23)" r="6.5"><circle class="node" r="0" node_type="middle"></circle><text text-anchor="middle" font-size="8" font-weight="bold" y="2.5" class="node-label"></text></g><g class="noselect gnode" transform="translate(68.46,-0.69)" r="6.5"><circle class="node" r="0" node_type="middle"></circle><text text-anchor="middle" font-size="8" font-weight="bold" y="2.5" class="node-label"></text></g><g class="noselect gnode" transform="translate(63.03,-15.68)" r="6.5"><circle class="node" r="0" node_type="middle"></circle><text text-anchor="middle" font-size="8" font-weight="bold" y="2.5" class="node-label"></text></g><g class="noselect gnode" transform="translate(57.51,-30.64)" r="6.5"><circle class="node" r="0" node_type="middle"></circle><text text-anchor="middle" font-size="8" font-weight="bold" y="2.5" class="node-label"></text></g><g class="noselect gnode" transform="translate(51.71,-45.56)" r="6.5"><circle class="node" r="0" node_type="middle"></circle><text text-anchor="middle" font-size="8" font-weight="bold" y="2.5" class="node-label"></text></g><g class="noselect gnode" transform="translate(45.52,-60.43)" r="6.5"><circle class="node" r="0" node_type="middle"></circle><text text-anchor="middle" font-size="8" font-weight="bold" y="2.5" class="node-label"></text></g><g class="noselect gnode" transform="translate(38.88,-75.14)" r="6.5"><circle class="node" r="0" node_type="middle"></circle><text text-anchor="middle" font-size="8" font-weight="bold" y="2.5" class="node-label"></text></g><g class="noselect gnode" transform="translate(31.88,-89.66)" r="6.5"><circle class="node" r="0" node_type="middle"></circle><text text-anchor="middle" font-size="8" font-weight="bold" y="2.5" class="node-label"></text></g><g class="noselect gnode" transform="translate(24.65,-104.05)" r="6.5"><circle class="node" r="0" node_type="middle"></circle><text text-anchor="middle" font-size="8" font-weight="bold" y="2.5" class="node-label"></text></g><g class="noselect gnode" transform="translate(17.42,-118.20)" r="6.5"><circle class="node" r="0" node_type="middle"></circle><text text-anchor="middle" font-size="8" font-weight="bold" y="2.5" class="node-label"></text></g><g class="noselect gnode" transform="translate(150.99,193.61)" r="6.5"><circle class="node" r="0" node_type="middle"></circle><text text-anchor="middle" font-size="8" font-weight="bold" y="2.5" class="node-label"></text></g><g class="noselect gnode" transform="translate(145.00,178.76)" r="6.5"><circle class="node" r="0" node_type="middle"></circle><text text-anchor="middle" font-size="8" font-weight="bold" y="2.5" class="node-label"></text></g><g class="noselect gnode" transform="translate(139.21,163.78)" r="6.5"><circle class="node" r="0" node_type="middle"></circle><text text-anchor="middle" font-size="8" font-weight="bold" y="2.5" class="node-label"></text></g><g class="noselect gnode" transform="translate(133.86,148.59)" r="6.5"><circle class="node" r="0" node_type="middle"></circle><text text-anchor="middle" font-size="8" font-weight="bold" y="2.5" class="node-label"></text></g><g class="noselect gnode" transform="translate(129.07,133.24)" r="6.5"><circle class="node" r="0" node_type="middle"></circle><text text-anchor="middle" font-size="8" font-weight="bold" y="2.5" class="node-label"></text></g><g class="noselect gnode" transform="translate(136.46,233.90)" r="6.5"><circle class="node" r="0" node_type="middle"></circle><text text-anchor="middle" font-size="8" font-weight="bold" y="2.5" class="node-label"></text></g><g class="noselect gnode" transform="translate(135.85,218.78)" r="6.5"><circle class="node" r="0" node_type="middle"></circle><text text-anchor="middle" font-size="8" font-weight="bold" y="2.5" class="node-label"></text></g><g class="noselect gnode" transform="translate(163.02,225.19)" r="6.5"><circle class="node" r="0" node_type="middle"></circle><text text-anchor="middle" font-size="8" font-weight="bold" y="2.5" class="node-label"></text></g><g class="noselect gnode" transform="translate(7.98,-136.97)" r="6.5"><circle class="node" r="0" node_type="middle"></circle><text text-anchor="middle" font-size="8" font-weight="bold" y="2.5" class="node-label"></text></g><g class="noselect gnode" transform="translate(120.11,100.69)" r="6.5"><circle class="node" r="0" node_type="middle"></circle><text text-anchor="middle" font-size="8" font-weight="bold" y="2.5" class="node-label"></text></g></g><line class="drag_line" x1="0" y1="0" x2="0" y2="0"></line></g></g></svg>