<svg xmlns="http://www.w3.org/2000/svg" viewBox="0 0 760 640" width="760" height="640"><style>svg {
  display: block;
  min-width: 100%;
  width: 100%;
  min-height: 100%;
}

circle.node {
  stroke: #ccc;
  stroke-width: 1px;
  opacity: 1;
  fill: white;
}

circle.node.label {
    stroke: transparent;
    stroke-width: 0;
    fill: white;
}

circle.outline_node {
    stroke-width: 1px;
    fill: red;
}

circle.protein {
    fill: gray;
    fill-opacity: 0.5;
    stroke-width: 4;
}

circle.hidden_outline {
    stroke-width: 0px;
}


line.link {
  stroke: #999;
  stroke-opacity: 0.8;
  stroke-width: 2;
}

line.basepair {
  stroke: red;
}

line.intermolecule {
  stroke: blue;
}

line.chain_chain {
  stroke-dasharray: 3,3;
}

line.fake {
  stroke: green;
}

.transparent {
    fill: transparent;
    stroke-width: 0;
    stroke-opacity: 0;
    opacity: 0;
    visibility: hidden;
}

.drag_line {
  stroke: #999;
  stroke-width: 2;
  pointer-events: none;
}

.drag_line_hidden {
  stroke: #999;
  stroke-width: 0;
  pointer-events: none;
}

.d3-tip {
    line-height: 1;
    font-weight: bold;
    padding: 6px;
    background: rgba(0, 0, 0, 0.6);
    color: #fff;
    border-radius: 4px;
    pointer-events: none;
          }

text.node-label {
    font-weight: bold;
    font-family: Tahoma, Geneva, sans-serif;
    color: rgb(100,100,100);
    pointer-events: none;
}

text {
    pointer-events: none;
}

g.gnode {

}

circle.outline_node.selected {
    visibility: visible;
}

circle.outline_node {
    visibility: hidden;
}

.brush .extent {
  fill-opacity: .1;
  stroke: #fff;
  shape-rendering: crispEdges;
}

.noselect {
    -webkit-touch-callout: none;
    -webkit-user-select: none;
    -khtml-user-select: none;
    -moz-user-select: none;
    -ms-user-select: none;
    user-select: none;
}

svg {
  display: block;
  min-width: 100%;
  width: 100%;
  min-height: 100%;
}

circle.node {
  stroke: #ccc;
  stroke-width: 1px;
  opacity: 1;
  fill: white;
}

circle.node.label {
    stroke: transparent;
    stroke-width: 0;
    fill: white;
}

circle.outline_node {
    stroke-width: 1px;
    fill: red;
}

circle.protein {
    fill: gray;
    fill-opacity: 0.5;
    stroke-width: 4;
}

circle.hidden_outline {
    stroke-width: 0px;
}


line.link {
  stroke: #999;
  stroke-opacity: 0.8;
  stroke-width: 2;
}

line.basepair {
  stroke: red;
}

line.intermolecule {
  stroke: blue;
}

line.chain_chain {
  stroke-dasharray: 3,3;
}

line.fake {
  stroke: green;
}

.transparent {
    fill: transparent;
    stroke-width: 0;
    stroke-opacity: 0;
    opacity: 0;
    visibility: hidden;
}

.drag_line {
  stroke: #999;
  stroke-width: 2;
  pointer-events: none;
}

.drag_line_hidden {
  stroke: #999;
  stroke-width: 0;
  pointer-events: none;
}

.d3-tip {
    line-height: 1;
    font-weight: bold;
    padding: 6px;
    background: rgba(0, 0, 0, 0.6);
    color: #fff;
    border-radius: 4px;
    pointer-events: none;
          }

text.node-label {
    font-weight: bold;
    font-family: Tahoma, Geneva, sans-serif;
    color: rgb(100,100,100);
    pointer-events: none;
}

text {
    pointer-events: none;
}

g.gnode {

}

circle.outline_node.selected {
    visibility: visible;
}

circle.outline_node {
    visibility: hidden;
}

.brush .extent {
  fill-opacity: .1;
  stroke: #fff;
  shape-rendering: crispEdges;
}

.noselect {
    -webkit-touch-callout: none;
    -webkit-user-select: none;
    -khtml-user-select: none;
    -moz-user-select: none;
    -ms-user-select: none;
    user-select: none;
}
/*# sourceURL=/Users/yumanakamura/ipy_sandbox/sandbox/claude_sandbox/mrna-transformer-worktrees/feat-issue57-switch-derna-knotty/scripts/eval/prerender/forna_vendor/fornac.css*/</style><style></style><g><g class="brush" style="pointer-events: all; -webkit-tap-highlight-color: rgba(0, 0, 0, 0);"><rect class="background" x="0" width="760" y="0" height="640" style="visibility: hidden; cursor: auto;"></rect><rect class="extent" x="0" width="0" y="0" height="0" style="cursor: move;"></rect><g class="resize n" transform="translate(0,0)" style="cursor: ns-resize; display: none;"><rect y="-3" width="0" height="6" style="visibility: hidden;"></rect></g><g class="resize e" transform="translate(0,0)" style="cursor: ew-resize; display: none;"><rect x="-3" width="6" height="0" style="visibility: hidden;"></rect></g><g class="resize s" transform="translate(0,0)" style="cursor: ns-resize; display: none;"><rect y="-3" width="0" height="6" style="visibility: hidden;"></rect></g><g class="resize w" transform="translate(0,0)" style="cursor: ew-resize; display: none;"><rect x="-3" width="6" height="0" style="visibility: hidden;"></rect></g><g class="resize nw" transform="translate(0,0)" style="cursor: nwse-resize; display: none;"><rect x="-3" y="-3" width="6" height="6" style="visibility: hidden;"></rect></g><g class="resize ne" transform="translate(0,0)" style="cursor: nesw-resize; display: none;"><rect x="-3" y="-3" width="6" height="6" style="visibility: hidden;"></rect></g><g class="resize se" transform="translate(0,0)" style="cursor: nwse-resize; display: none;"><rect x="-3" y="-3" width="6" height="6" style="visibility: hidden;"></rect></g><g class="resize sw" transform="translate(0,0)" style="cursor: nesw-resize; display: none;"><rect x="-3" y="-3" width="6" height="6" style="visibility: hidden;"></rect></g></g><g transform="translate(315.05,158.71) scale(1.32)"><g><line class="link backbone" x1="17.40" y1="301.71" x2="11.91" y2="287.78"></line><line class="link backbone" x1="11.91" y1="287.78" x2="13.55" y2="272.74"></line><line class="link backbone" x1="13.55" y1="272.74" x2="21.83" y2="260.24"></line><line class="link basepair" x1="35.20" y1="252.48" x2="50.20" y2="252.52"></line><line class="link backbone" x1="21.83" y1="260.24" x2="35.20" y2="252.48"></line><line class="link basepair" x1="35.80" y1="236.42" x2="50.37" y2="236.99"></line><line class="link backbone" x1="35.20" y1="252.48" x2="35.80" y2="236.42"></line><line class="link basepair" x1="36.67" y1="220.25" x2="51.19" y2="221.08"></line><line class="link backbone" x1="35.80" y1="236.42" x2="36.67" y2="220.25"></line><line class="link basepair" x1="37.60" y1="204.24" x2="52.12" y2="204.91"></line><line class="link backbone" x1="36.67" y1="220.25" x2="37.60" y2="204.24"></line><line class="link basepair" x1="38.11" y1="188.47" x2="52.61" y2="188.47"></line><line class="link backbone" x1="37.60" y1="204.24" x2="38.11" y2="188.47"></line><line class="link basepair" x1="37.53" y1="172.98" x2="52.04" y2="171.73"></line><line class="link backbone" x1="38.11" y1="188.47" x2="37.53" y2="172.98"></line><line class="link basepair" x1="35.45" y1="157.85" x2="49.64" y2="154.95"></line><line class="link backbone" x1="37.53" y1="172.98" x2="35.45" y2="157.85"></line><line class="link basepair" x1="31.42" y1="143.30" x2="44.91" y2="138.29"></line><line class="link backbone" x1="35.45" y1="157.85" x2="31.42" y2="143.30"></line><line class="link basepair" x1="24.98" y1="130.08" x2="37.74" y2="122.38"></line><line class="link backbone" x1="31.42" y1="143.30" x2="24.98" y2="130.08"></line><line class="link backbone" x1="24.98" y1="130.08" x2="10.03" y2="132.90"></line><line class="link backbone" x1="10.03" y1="132.90" x2="-4.62" y2="129.49"></line><line class="link backbone" x1="-4.62" y1="129.49" x2="-16.38" y2="120.24"></line><line class="link backbone" x1="-16.38" y1="120.24" x2="-23.59" y2="107.29"></line><line class="link backbone" x1="-23.59" y1="107.29" x2="-25.21" y2="92.51"></line><line class="link backbone" x1="-25.21" y1="92.51" x2="-20.21" y2="78.50"></line><line class="link backbone" x1="-20.21" y1="78.50" x2="-10.18" y2="67.50"></line><line class="link backbone" x1="-10.18" y1="67.50" x2="3.37" y2="61.19"></line><line class="link backbone" x1="3.37" y1="61.19" x2="18.42" y2="61.25"></line><line class="link basepair" x1="32.31" y1="67.41" x2="42.91" y2="77.91"></line><line class="link backbone" x1="18.42" y1="61.25" x2="32.31" y2="67.41"></line><line class="link basepair" x1="41.93" y1="56.10" x2="53.69" y2="64.44"></line><line class="link backbone" x1="32.31" y1="67.41" x2="41.93" y2="56.10"></line><line class="link basepair" x1="49.78" y1="43.10" x2="62.63" y2="49.76"></line><line class="link backbone" x1="41.93" y1="56.10" x2="49.78" y2="43.10"></line><line class="link basepair" x1="56.15" y1="28.99" x2="69.58" y2="34.31"></line><line class="link backbone" x1="49.78" y1="43.10" x2="56.15" y2="28.99"></line><line class="link basepair" x1="61.30" y1="14.14" x2="75.11" y2="18.48"></line><line class="link backbone" x1="56.15" y1="28.99" x2="61.30" y2="14.14"></line><line class="link basepair" x1="65.68" y1="-1.16" x2="79.66" y2="2.53"></line><line class="link backbone" x1="61.30" y1="14.14" x2="65.68" y2="-1.16"></line><line class="link basepair" x1="69.48" y1="-16.70" x2="83.61" y2="-13.39"></line><line class="link backbone" x1="65.68" y1="-1.16" x2="69.48" y2="-16.70"></line><line class="link basepair" x1="72.90" y1="-32.27" x2="87.19" y2="-29.20"></line><line class="link backbone" x1="69.48" y1="-16.70" x2="72.90" y2="-32.27"></line><line class="link basepair" x1="75.98" y1="-47.67" x2="90.55" y2="-44.68"></line><line class="link backbone" x1="72.90" y1="-32.27" x2="75.98" y2="-47.67"></line><line class="link backbone" x1="75.98" y1="-47.67" x2="71.15" y2="-62.27"></line><line class="link backbone" x1="71.15" y1="-62.27" x2="81.13" y2="-73.41"></line><line class="link backbone" x1="81.13" y1="-73.41" x2="95.82" y2="-70.44"></line><line class="link backbone" x1="95.82" y1="-70.44" x2="100.68" y2="-56.27"></line><line class="link basepair" x1="90.55" y1="-44.68" x2="75.98" y2="-47.67"></line><line class="link backbone" x1="100.68" y1="-56.27" x2="90.55" y2="-44.68"></line><line class="link basepair" x1="87.19" y1="-29.20" x2="72.90" y2="-32.27"></line><line class="link backbone" x1="90.55" y1="-44.68" x2="87.19" y2="-29.20"></line><line class="link basepair" x1="83.61" y1="-13.39" x2="69.48" y2="-16.70"></line><line class="link backbone" x1="87.19" y1="-29.20" x2="83.61" y2="-13.39"></line><line class="link basepair" x1="79.66" y1="2.53" x2="65.68" y2="-1.16"></line><line class="link backbone" x1="83.61" y1="-13.39" x2="79.66" y2="2.53"></line><line class="link basepair" x1="75.11" y1="18.48" x2="61.30" y2="14.14"></line><line class="link backbone" x1="79.66" y1="2.53" x2="75.11" y2="18.48"></line><line class="link basepair" x1="69.58" y1="34.31" x2="56.15" y2="28.99"></line><line class="link backbone" x1="75.11" y1="18.48" x2="69.58" y2="34.31"></line><line class="link basepair" x1="62.63" y1="49.76" x2="49.78" y2="43.10"></line><line class="link backbone" x1="69.58" y1="34.31" x2="62.63" y2="49.76"></line><line class="link basepair" x1="53.69" y1="64.44" x2="41.93" y2="56.10"></line><line class="link backbone" x1="62.63" y1="49.76" x2="53.69" y2="64.44"></line><line class="link basepair" x1="42.91" y1="77.91" x2="32.31" y2="67.41"></line><line class="link backbone" x1="53.69" y1="64.44" x2="42.91" y2="77.91"></line><line class="link backbone" x1="42.91" y1="77.91" x2="46.98" y2="93.28"></line><line class="link backbone" x1="46.98" y1="93.28" x2="45.23" y2="108.27"></line><line class="link basepair" x1="37.74" y1="122.38" x2="24.98" y2="130.08"></line><line class="link backbone" x1="45.23" y1="108.27" x2="37.74" y2="122.38"></line><line class="link basepair" x1="44.91" y1="138.29" x2="31.42" y2="143.30"></line><line class="link backbone" x1="37.74" y1="122.38" x2="44.91" y2="138.29"></line><line class="link basepair" x1="49.64" y1="154.95" x2="35.45" y2="157.85"></line><line class="link backbone" x1="44.91" y1="138.29" x2="49.64" y2="154.95"></line><line class="link basepair" x1="52.04" y1="171.73" x2="37.53" y2="172.98"></line><line class="link backbone" x1="49.64" y1="154.95" x2="52.04" y2="171.73"></line><line class="link basepair" x1="52.61" y1="188.47" x2="38.11" y2="188.47"></line><line class="link backbone" x1="52.04" y1="171.73" x2="52.61" y2="188.47"></line><line class="link basepair" x1="52.12" y1="204.91" x2="37.60" y2="204.24"></line><line class="link backbone" x1="52.61" y1="188.47" x2="52.12" y2="204.91"></line><line class="link basepair" x1="51.19" y1="221.08" x2="36.67" y2="220.25"></line><line class="link backbone" x1="52.12" y1="204.91" x2="51.19" y2="221.08"></line><line class="link basepair" x1="50.37" y1="236.99" x2="35.80" y2="236.42"></line><line class="link backbone" x1="51.19" y1="221.08" x2="50.37" y2="236.99"></line><line class="link basepair" x1="50.20" y1="252.52" x2="35.20" y2="252.48"></line><line class="link backbone" x1="50.37" y1="236.99" x2="50.20" y2="252.52"></line><line class="link backbone" x1="50.20" y1="252.52" x2="63.73" y2="259.67"></line><line class="link backbone" x1="63.73" y1="259.67" x2="72.57" y2="271.75"></line><line class="link backbone" x1="72.57" y1="271.75" x2="74.73" y2="286.67"></line><line class="link backbone" x1="74.73" y1="286.67" x2="69.68" y2="300.73"></line><line class="link backbone" x1="69.68" y1="300.73" x2="58.62" y2="310.86"></line><line class="link label_link" x1="37.53" y1="172.98" x2="22.11" y2="174.86"></line><line class="link label_link" x1="-10.18" y1="67.50" x2="-24.61" y2="62.04"></line><line class="link label_link" x1="72.90" y1="-32.27" x2="59.71" y2="-40.61"></line><line class="link label_link" x1="75.11" y1="18.48" x2="90.06" y2="23.03"></line><line class="link label_link" x1="52.04" y1="171.73" x2="67.63" y2="170.22"></line><line class="link label_link" x1="58.62" y1="310.86" x2="66.59" y2="324.03"></line><line class="link fake transparent" x1="32.31" y1="67.41" x2="43.07" y2="66.92"></line><line class="link fake transparent" x1="32.31" y1="67.41" x2="53.69" y2="64.44"></line><line class="link fake transparent" x1="41.93" y1="56.10" x2="43.07" y2="66.92"></line><line class="link fake transparent" x1="53.69" y1="64.44" x2="43.07" y2="66.92"></line><line class="link fake transparent" x1="42.91" y1="77.91" x2="43.07" y2="66.92"></line><line class="link fake transparent" x1="41.93" y1="56.10" x2="52.49" y2="53.62"></line><line class="link fake transparent" x1="49.78" y1="43.10" x2="52.49" y2="53.62"></line><line class="link fake transparent" x1="62.63" y1="49.76" x2="52.49" y2="53.62"></line><line class="link fake transparent" x1="53.69" y1="64.44" x2="52.49" y2="53.62"></line><line class="link fake transparent" x1="49.78" y1="43.10" x2="59.92" y2="39.26"></line><line class="link fake transparent" x1="56.15" y1="28.99" x2="59.92" y2="39.26"></line><line class="link fake transparent" x1="69.58" y1="34.31" x2="59.92" y2="39.26"></line><line class="link fake transparent" x1="62.63" y1="49.76" x2="59.92" y2="39.26"></line><line class="link fake transparent" x1="56.15" y1="28.99" x2="65.80" y2="24.10"></line><line class="link fake transparent" x1="61.30" y1="14.14" x2="65.80" y2="24.10"></line><line class="link fake transparent" x1="75.11" y1="18.48" x2="65.80" y2="24.10"></line><line class="link fake transparent" x1="69.58" y1="34.31" x2="65.80" y2="24.10"></line><line class="link fake transparent" x1="61.30" y1="14.14" x2="70.61" y2="8.54"></line><line class="link fake transparent" x1="65.68" y1="-1.16" x2="70.61" y2="8.54"></line><line class="link fake transparent" x1="79.66" y1="2.53" x2="70.61" y2="8.54"></line><line class="link fake transparent" x1="75.11" y1="18.48" x2="70.61" y2="8.54"></line><line class="link fake transparent" x1="65.68" y1="-1.16" x2="74.72" y2="-7.17"></line><line class="link fake transparent" x1="69.48" y1="-16.70" x2="74.72" y2="-7.17"></line><line class="link fake transparent" x1="83.61" y1="-13.39" x2="74.72" y2="-7.17"></line><line class="link fake transparent" x1="79.66" y1="2.53" x2="74.72" y2="-7.17"></line><line class="link fake transparent" x1="69.48" y1="-16.70" x2="78.37" y2="-22.90"></line><line class="link fake transparent" x1="72.90" y1="-32.27" x2="78.37" y2="-22.90"></line><line class="link fake transparent" x1="87.19" y1="-29.20" x2="78.37" y2="-22.90"></line><line class="link fake transparent" x1="83.61" y1="-13.39" x2="78.37" y2="-22.90"></line><line class="link fake transparent" x1="72.90" y1="-32.27" x2="81.71" y2="-38.52"></line><line class="link fake transparent" x1="75.98" y1="-47.67" x2="81.71" y2="-38.52"></line><line class="link fake transparent" x1="90.55" y1="-44.68" x2="81.71" y2="-38.52"></line><line class="link fake transparent" x1="87.19" y1="-29.20" x2="81.71" y2="-38.52"></line><line class="link fake transparent" x1="35.20" y1="252.48" x2="42.73" y2="244.74"></line><line class="link fake transparent" x1="35.80" y1="236.42" x2="42.73" y2="244.74"></line><line class="link fake transparent" x1="50.37" y1="236.99" x2="42.73" y2="244.74"></line><line class="link fake transparent" x1="50.20" y1="252.52" x2="42.73" y2="244.74"></line><line class="link fake transparent" x1="35.80" y1="236.42" x2="43.42" y2="228.72"></line><line class="link fake transparent" x1="36.67" y1="220.25" x2="43.42" y2="228.72"></line><line class="link fake transparent" x1="51.19" y1="221.08" x2="43.42" y2="228.72"></line><line class="link fake transparent" x1="50.37" y1="236.99" x2="43.42" y2="228.72"></line><line class="link fake transparent" x1="36.67" y1="220.25" x2="44.43" y2="212.63"></line><line class="link fake transparent" x1="37.60" y1="204.24" x2="44.43" y2="212.63"></line><line class="link fake transparent" x1="52.12" y1="204.91" x2="44.43" y2="212.63"></line><line class="link fake transparent" x1="51.19" y1="221.08" x2="44.43" y2="212.63"></line><line class="link fake transparent" x1="37.60" y1="204.24" x2="45.29" y2="196.54"></line><line class="link fake transparent" x1="38.11" y1="188.47" x2="45.29" y2="196.54"></line><line class="link fake transparent" x1="52.61" y1="188.47" x2="45.29" y2="196.54"></line><line class="link fake transparent" x1="52.12" y1="204.91" x2="45.29" y2="196.54"></line><line class="link fake transparent" x1="38.11" y1="188.47" x2="45.44" y2="180.40"></line><line class="link fake transparent" x1="37.53" y1="172.98" x2="45.44" y2="180.40"></line><line class="link fake transparent" x1="52.04" y1="171.73" x2="45.44" y2="180.40"></line><line class="link fake transparent" x1="52.61" y1="188.47" x2="45.44" y2="180.40"></line><line class="link fake transparent" x1="37.53" y1="172.98" x2="44.15" y2="164.28"></line><line class="link fake transparent" x1="35.45" y1="157.85" x2="44.15" y2="164.28"></line><line class="link fake transparent" x1="49.64" y1="154.95" x2="44.15" y2="164.28"></line><line class="link fake transparent" x1="52.04" y1="171.73" x2="44.15" y2="164.28"></line><line class="link fake transparent" x1="35.45" y1="157.85" x2="40.96" y2="148.44"></line><line class="link fake transparent" x1="31.42" y1="143.30" x2="40.96" y2="148.44"></line><line class="link fake transparent" x1="44.91" y1="138.29" x2="40.96" y2="148.44"></line><line class="link fake transparent" x1="49.64" y1="154.95" x2="40.96" y2="148.44"></line><line class="link fake transparent" x1="31.42" y1="143.30" x2="35.31" y2="133.13"></line><line class="link fake transparent" x1="24.98" y1="130.08" x2="35.31" y2="133.13"></line><line class="link fake transparent" x1="37.74" y1="122.38" x2="35.31" y2="133.13"></line><line class="link fake transparent" x1="44.91" y1="138.29" x2="35.31" y2="133.13"></line><line class="link fake transparent" x1="17.40" y1="301.71" x2="43.24" y2="283.20"></line><line class="link fake transparent" x1="17.40" y1="301.71" x2="63.73" y2="259.67"></line><line class="link fake transparent" x1="11.91" y1="287.78" x2="43.24" y2="283.20"></line><line class="link fake transparent" x1="11.91" y1="287.78" x2="72.57" y2="271.75"></line><line class="link fake transparent" x1="13.55" y1="272.74" x2="43.24" y2="283.20"></line><line class="link fake transparent" x1="13.55" y1="272.74" x2="74.73" y2="286.67"></line><line class="link fake transparent" x1="21.83" y1="260.24" x2="43.24" y2="283.20"></line><line class="link fake transparent" x1="21.83" y1="260.24" x2="69.68" y2="300.73"></line><line class="link fake transparent" x1="35.20" y1="252.48" x2="43.24" y2="283.20"></line><line class="link fake transparent" x1="35.20" y1="252.48" x2="58.62" y2="310.86"></line><line class="link fake transparent" x1="50.20" y1="252.52" x2="43.24" y2="283.20"></line><line class="link fake transparent" x1="50.20" y1="252.52" x2="44.40" y2="315.23"></line><line class="link fake transparent" x1="63.73" y1="259.67" x2="43.24" y2="283.20"></line><line class="link fake transparent" x1="63.73" y1="259.67" x2="29.56" y2="312.69"></line><line class="link fake transparent" x1="72.57" y1="271.75" x2="43.24" y2="283.20"></line><line class="link fake transparent" x1="72.57" y1="271.75" x2="17.40" y2="301.71"></line><line class="link fake transparent" x1="74.73" y1="286.67" x2="43.24" y2="283.20"></line><line class="link fake transparent" x1="74.73" y1="286.67" x2="11.91" y2="287.78"></line><line class="link fake transparent" x1="69.68" y1="300.73" x2="43.24" y2="283.20"></line><line class="link fake transparent" x1="69.68" y1="300.73" x2="13.55" y2="272.74"></line><line class="link fake transparent" x1="58.62" y1="310.86" x2="43.24" y2="283.20"></line><line class="link fake transparent" x1="58.62" y1="310.86" x2="21.83" y2="260.24"></line><line class="link fake transparent" x1="75.98" y1="-47.67" x2="85.88" y2="-59.09"></line><line class="link fake transparent" x1="75.98" y1="-47.67" x2="95.82" y2="-70.44"></line><line class="link fake transparent" x1="71.15" y1="-62.27" x2="85.88" y2="-59.09"></line><line class="link fake transparent" x1="71.15" y1="-62.27" x2="100.68" y2="-56.27"></line><line class="link fake transparent" x1="81.13" y1="-73.41" x2="85.88" y2="-59.09"></line><line class="link fake transparent" x1="81.13" y1="-73.41" x2="90.55" y2="-44.68"></line><line class="link fake transparent" x1="95.82" y1="-70.44" x2="85.88" y2="-59.09"></line><line class="link fake transparent" x1="95.82" y1="-70.44" x2="75.98" y2="-47.67"></line><line class="link fake transparent" x1="100.68" y1="-56.27" x2="85.88" y2="-59.09"></line><line class="link fake transparent" x1="100.68" y1="-56.27" x2="71.15" y2="-62.27"></line><line class="link fake transparent" x1="90.55" y1="-44.68" x2="85.88" y2="-59.09"></line><line class="link fake transparent" x1="90.55" y1="-44.68" x2="81.13" y2="-73.41"></line><line class="link fake transparent" x1="24.98" y1="130.08" x2="11.29" y2="96.75"></line><line class="link fake transparent" x1="24.98" y1="130.08" x2="-10.18" y2="67.50"></line><line class="link fake transparent" x1="10.03" y1="132.90" x2="11.29" y2="96.75"></line><line class="link fake transparent" x1="10.03" y1="132.90" x2="3.37" y2="61.19"></line><line class="link fake transparent" x1="-4.62" y1="129.49" x2="11.29" y2="96.75"></line><line class="link fake transparent" x1="-4.62" y1="129.49" x2="18.42" y2="61.25"></line><line class="link fake transparent" x1="-16.38" y1="120.24" x2="11.29" y2="96.75"></line><line class="link fake transparent" x1="-16.38" y1="120.24" x2="32.31" y2="67.41"></line><line class="link fake transparent" x1="-23.59" y1="107.29" x2="11.29" y2="96.75"></line><line class="link fake transparent" x1="-23.59" y1="107.29" x2="42.91" y2="77.91"></line><line class="link fake transparent" x1="-25.21" y1="92.51" x2="11.29" y2="96.75"></line><line class="link fake transparent" x1="-25.21" y1="92.51" x2="46.98" y2="93.28"></line><line class="link fake transparent" x1="-20.21" y1="78.50" x2="11.29" y2="96.75"></line><line class="link fake transparent" x1="-20.21" y1="78.50" x2="45.23" y2="108.27"></line><line class="link fake transparent" x1="-10.18" y1="67.50" x2="11.29" y2="96.75"></line><line class="link fake transparent" x1="-10.18" y1="67.50" x2="37.74" y2="122.38"></line><line class="link fake transparent" x1="3.37" y1="61.19" x2="11.29" y2="96.75"></line><line class="link fake transparent" x1="3.37" y1="61.19" x2="24.98" y2="130.08"></line><line class="link fake transparent" x1="18.42" y1="61.25" x2="11.29" y2="96.75"></line><line class="link fake transparent" x1="18.42" y1="61.25" x2="10.03" y2="132.90"></line><line class="link fake transparent" x1="32.31" y1="67.41" x2="11.29" y2="96.75"></line><line class="link fake transparent" x1="32.31" y1="67.41" x2="-4.62" y2="129.49"></line><line class="link fake transparent" x1="42.91" y1="77.91" x2="11.29" y2="96.75"></line><line class="link fake transparent" x1="42.91" y1="77.91" x2="-16.38" y2="120.24"></line><line class="link fake transparent" x1="46.98" y1="93.28" x2="11.29" y2="96.75"></line><line class="link fake transparent" x1="46.98" y1="93.28" x2="-23.59" y2="107.29"></line><line class="link fake transparent" x1="45.23" y1="108.27" x2="11.29" y2="96.75"></line><line class="link fake transparent" x1="45.23" y1="108.27" x2="-25.21" y2="92.51"></line><line class="link fake transparent" x1="37.74" y1="122.38" x2="11.29" y2="96.75"></line><line class="link fake transparent" x1="37.74" y1="122.38" x2="-20.21" y2="78.50"></line></g><g><g class="noselect gnode" struct_name="m" transform="translate(17.40,301.71)" r="6.5"><circle class="node" r="6" node_type="nucleotide" style="fill: lightsalmon;"></circle><text text-anchor="middle" font-size="8" font-weight="bold" y="2.5" class="node-label">G</text></g><g class="noselect gnode" struct_name="m" transform="translate(11.91,287.78)" r="6.5"><circle class="node" r="6" node_type="nucleotide" style="fill: lightsalmon;"></circle><text text-anchor="middle" font-size="8" font-weight="bold" y="2.5" class="node-label">A</text></g><g class="noselect gnode" struct_name="m" transform="translate(13.55,272.74)" r="6.5"><circle class="node" r="6" node_type="nucleotide" style="fill: lightsalmon;"></circle><text text-anchor="middle" font-size="8" font-weight="bold" y="2.5" class="node-label">A</text></g><g class="noselect gnode" struct_name="m" transform="translate(21.83,260.24)" r="6.5"><circle class="node" r="6" node_type="nucleotide" style="fill: lightsalmon;"></circle><text text-anchor="middle" font-size="8" font-weight="bold" y="2.5" class="node-label">C</text></g><g class="noselect gnode" struct_name="m" transform="translate(35.20,252.48)" r="6.5"><circle class="node" r="6" node_type="nucleotide" style="fill: lightgreen;"></circle><text text-anchor="middle" font-size="8" font-weight="bold" y="2.5" class="node-label">C</text></g><g class="noselect gnode" struct_name="m" transform="translate(35.80,236.42)" r="6.5"><circle class="node" r="6" node_type="nucleotide" style="fill: lightgreen;"></circle><text text-anchor="middle" font-size="8" font-weight="bold" y="2.5" class="node-label">G</text></g><g class="noselect gnode" struct_name="m" transform="translate(36.67,220.25)" r="6.5"><circle class="node" r="6" node_type="nucleotide" style="fill: lightgreen;"></circle><text text-anchor="middle" font-size="8" font-weight="bold" y="2.5" class="node-label">C</text></g><g class="noselect gnode" struct_name="m" transform="translate(37.60,204.24)" r="6.5"><circle class="node" r="6" node_type="nucleotide" style="fill: lightgreen;"></circle><text text-anchor="middle" font-size="8" font-weight="bold" y="2.5" class="node-label">A</text></g><g class="noselect gnode" struct_name="m" transform="translate(38.11,188.47)" r="6.5"><circle class="node" r="6" node_type="nucleotide" style="fill: lightgreen;"></circle><text text-anchor="middle" font-size="8" font-weight="bold" y="2.5" class="node-label">C</text></g><g class="noselect gnode" struct_name="m" transform="translate(37.53,172.98)" r="6.5"><circle class="node" r="6" node_type="nucleotide" style="fill: lightgreen;"></circle><text text-anchor="middle" font-size="8" font-weight="bold" y="2.5" class="node-label">U</text></g><g class="noselect gnode" struct_name="m" transform="translate(35.45,157.85)" r="6.5"><circle class="node" r="6" node_type="nucleotide" style="fill: lightgreen;"></circle><text text-anchor="middle" font-size="8" font-weight="bold" y="2.5" class="node-label">C</text></g><g class="noselect gnode" struct_name="m" transform="translate(31.42,143.30)" r="6.5"><circle class="node" r="6" node_type="nucleotide" style="fill: lightgreen;"></circle><text text-anchor="middle" font-size="8" font-weight="bold" y="2.5" class="node-label">G</text></g><g class="noselect gnode" struct_name="m" transform="translate(24.98,130.08)" r="6.5"><circle class="node" r="6" node_type="nucleotide" style="fill: lightgreen;"></circle><text text-anchor="middle" font-size="8" font-weight="bold" y="2.5" class="node-label">C</text></g><g class="noselect gnode" struct_name="m" transform="translate(10.03,132.90)" r="6.5"><circle class="node" r="6" node_type="nucleotide" style="fill: rgb(219, 219, 141);"></circle><text text-anchor="middle" font-size="8" font-weight="bold" y="2.5" class="node-label">A</text></g><g class="noselect gnode" struct_name="m" transform="translate(-4.62,129.49)" r="6.5"><circle class="node" r="6" node_type="nucleotide" style="fill: rgb(219, 219, 141);"></circle><text text-anchor="middle" font-size="8" font-weight="bold" y="2.5" class="node-label">A</text></g><g class="noselect gnode" struct_name="m" transform="translate(-16.38,120.24)" r="6.5"><circle class="node" r="6" node_type="nucleotide" style="fill: rgb(219, 219, 141);"></circle><text text-anchor="middle" font-size="8" font-weight="bold" y="2.5" class="node-label">C</text></g><g class="noselect gnode" struct_name="m" transform="translate(-23.59,107.29)" r="6.5"><circle class="node" r="6" node_type="nucleotide" style="fill: rgb(219, 219, 141);"></circle><text text-anchor="middle" font-size="8" font-weight="bold" y="2.5" class="node-label">A</text></g><g class="noselect gnode" struct_name="m" transform="translate(-25.21,92.51)" r="6.5"><circle class="node" r="6" node_type="nucleotide" style="fill: rgb(219, 219, 141);"></circle><text text-anchor="middle" font-size="8" font-weight="bold" y="2.5" class="node-label">A</text></g><g class="noselect gnode" struct_name="m" transform="translate(-20.21,78.50)" r="6.5"><circle class="node" r="6" node_type="nucleotide" style="fill: rgb(219, 219, 141);"></circle><text text-anchor="middle" font-size="8" font-weight="bold" y="2.5" class="node-label">A</text></g><g class="noselect gnode" struct_name="m" transform="translate(-10.18,67.50)" r="6.5"><circle class="node" r="6" node_type="nucleotide" style="fill: rgb(219, 219, 141);"></circle><text text-anchor="middle" font-size="8" font-weight="bold" y="2.5" class="node-label">A</text></g><g class="noselect gnode" struct_name="m" transform="translate(3.37,61.19)" r="6.5"><circle class="node" r="6" node_type="nucleotide" style="fill: rgb(219, 219, 141);"></circle><text text-anchor="middle" font-size="8" font-weight="bold" y="2.5" class="node-label">A</text></g><g class="noselect gnode" struct_name="m" transform="translate(18.42,61.25)" r="6.5"><circle class="node" r="6" node_type="nucleotide" style="fill: rgb(219, 219, 141);"></circle><text text-anchor="middle" font-size="8" font-weight="bold" y="2.5" class="node-label">A</text></g><g class="noselect gnode" struct_name="m" transform="translate(32.31,67.41)" r="6.5"><circle class="node" r="6" node_type="nucleotide" style="fill: lightgreen;"></circle><text text-anchor="middle" font-size="8" font-weight="bold" y="2.5" class="node-label">U</text></g><g class="noselect gnode" struct_name="m" transform="translate(41.93,56.10)" r="6.5"><circle class="node" r="6" node_type="nucleotide" style="fill: lightgreen;"></circle><text text-anchor="middle" font-size="8" font-weight="bold" y="2.5" class="node-label">U</text></g><g class="noselect gnode" struct_name="m" transform="translate(49.78,43.10)" r="6.5"><circle class="node" r="6" node_type="nucleotide" style="fill: lightgreen;"></circle><text text-anchor="middle" font-size="8" font-weight="bold" y="2.5" class="node-label">G</text></g><g class="noselect gnode" struct_name="m" transform="translate(56.15,28.99)" r="6.5"><circle class="node" r="6" node_type="nucleotide" style="fill: lightgreen;"></circle><text text-anchor="middle" font-size="8" font-weight="bold" y="2.5" class="node-label">U</text></g><g class="noselect gnode" struct_name="m" transform="translate(61.30,14.14)" r="6.5"><circle class="node" r="6" node_type="nucleotide" style="fill: lightgreen;"></circle><text text-anchor="middle" font-size="8" font-weight="bold" y="2.5" class="node-label">G</text></g><g class="noselect gnode" struct_name="m" transform="translate(65.68,-1.16)" r="6.5"><circle class="node" r="6" node_type="nucleotide" style="fill: lightgreen;"></circle><text text-anchor="middle" font-size="8" font-weight="bold" y="2.5" class="node-label">C</text></g><g class="noselect gnode" struct_name="m" transform="translate(69.48,-16.70)" r="6.5"><circle class="node" r="6" node_type="nucleotide" style="fill: lightgreen;"></circle><text text-anchor="middle" font-size="8" font-weight="bold" y="2.5" class="node-label">A</text></g><g class="noselect gnode" struct_name="m" transform="translate(72.90,-32.27)" r="6.5"><circle class="node" r="6" node_type="nucleotide" style="fill: lightgreen;"></circle><text text-anchor="middle" font-size="8" font-weight="bold" y="2.5" class="node-label">C</text></g><g class="noselect gnode" struct_name="m" transform="translate(75.98,-47.67)" r="6.5"><circle class="node" r="6" node_type="nucleotide" style="fill: lightgreen;"></circle><text text-anchor="middle" font-size="8" font-weight="bold" y="2.5" class="node-label">U</text></g><g class="noselect gnode" struct_name="m" transform="translate(71.15,-62.27)" r="6.5"><circle class="node" r="6" node_type="nucleotide" style="fill: lightblue;"></circle><text text-anchor="middle" font-size="8" font-weight="bold" y="2.5" class="node-label">G</text></g><g class="noselect gnode" struct_name="m" transform="translate(81.13,-73.41)" r="6.5"><circle class="node" r="6" node_type="nucleotide" style="fill: lightblue;"></circle><text text-anchor="middle" font-size="8" font-weight="bold" y="2.5" class="node-label">U</text></g><g class="noselect gnode" struct_name="m" transform="translate(95.82,-70.44)" r="6.5"><circle class="node" r="6" node_type="nucleotide" style="fill: lightblue;"></circle><text text-anchor="middle" font-size="8" font-weight="bold" y="2.5" class="node-label">G</text></g><g class="noselect gnode" struct_name="m" transform="translate(100.68,-56.27)" r="6.5"><circle class="node" r="6" node_type="nucleotide" style="fill: lightblue;"></circle><text text-anchor="middle" font-size="8" font-weight="bold" y="2.5" class="node-label">U</text></g><g class="noselect gnode" struct_name="m" transform="translate(90.55,-44.68)" r="6.5"><circle class="node" r="6" node_type="nucleotide" style="fill: lightgreen;"></circle><text text-anchor="middle" font-size="8" font-weight="bold" y="2.5" class="node-label">A</text></g><g class="noselect gnode" struct_name="m" transform="translate(87.19,-29.20)" r="6.5"><circle class="node" r="6" node_type="nucleotide" style="fill: lightgreen;"></circle><text text-anchor="middle" font-size="8" font-weight="bold" y="2.5" class="node-label">G</text></g><g class="noselect gnode" struct_name="m" transform="translate(83.61,-13.39)" r="6.5"><circle class="node" r="6" node_type="nucleotide" style="fill: lightgreen;"></circle><text text-anchor="middle" font-size="8" font-weight="bold" y="2.5" class="node-label">U</text></g><g class="noselect gnode" struct_name="m" transform="translate(79.66,2.53)" r="6.5"><circle class="node" r="6" node_type="nucleotide" style="fill: lightgreen;"></circle><text text-anchor="middle" font-size="8" font-weight="bold" y="2.5" class="node-label">G</text></g><g class="noselect gnode" struct_name="m" transform="translate(75.11,18.48)" r="6.5"><circle class="node" r="6" node_type="nucleotide" style="fill: lightgreen;"></circle><text text-anchor="middle" font-size="8" font-weight="bold" y="2.5" class="node-label">C</text></g><g class="noselect gnode" struct_name="m" transform="translate(69.58,34.31)" r="6.5"><circle class="node" r="6" node_type="nucleotide" style="fill: lightgreen;"></circle><text text-anchor="middle" font-size="8" font-weight="bold" y="2.5" class="node-label">A</text></g><g class="noselect gnode" struct_name="m" transform="translate(62.63,49.76)" r="6.5"><circle class="node" r="6" node_type="nucleotide" style="fill: lightgreen;"></circle><text text-anchor="middle" font-size="8" font-weight="bold" y="2.5" class="node-label">C</text></g><g class="noselect gnode" struct_name="m" transform="translate(53.69,64.44)" r="6.5"><circle class="node" r="6" node_type="nucleotide" style="fill: lightgreen;"></circle><text text-anchor="middle" font-size="8" font-weight="bold" y="2.5" class="node-label">A</text></g><g class="noselect gnode" struct_name="m" transform="translate(42.91,77.91)" r="6.5"><circle class="node" r="6" node_type="nucleotide" style="fill: lightgreen;"></circle><text text-anchor="middle" font-size="8" font-weight="bold" y="2.5" class="node-label">A</text></g><g class="noselect gnode" struct_name="m" transform="translate(46.98,93.28)" r="6.5"><circle class="node" r="6" node_type="nucleotide" style="fill: rgb(219, 219, 141);"></circle><text text-anchor="middle" font-size="8" font-weight="bold" y="2.5" class="node-label">G</text></g><g class="noselect gnode" struct_name="m" transform="translate(45.23,108.27)" r="6.5"><circle class="node" r="6" node_type="nucleotide" style="fill: rgb(219, 219, 141);"></circle><text text-anchor="middle" font-size="8" font-weight="bold" y="2.5" class="node-label">A</text></g><g class="noselect gnode" struct_name="m" transform="translate(37.74,122.38)" r="6.5"><circle class="node" r="6" node_type="nucleotide" style="fill: lightgreen;"></circle><text text-anchor="middle" font-size="8" font-weight="bold" y="2.5" class="node-label">G</text></g><g class="noselect gnode" struct_name="m" transform="translate(44.91,138.29)" r="6.5"><circle class="node" r="6" node_type="nucleotide" style="fill: lightgreen;"></circle><text text-anchor="middle" font-size="8" font-weight="bold" y="2.5" class="node-label">C</text></g><g class="noselect gnode" struct_name="m" transform="translate(49.64,154.95)" r="6.5"><circle class="node" r="6" node_type="nucleotide" style="fill: lightgreen;"></circle><text text-anchor="middle" font-size="8" font-weight="bold" y="2.5" class="node-label">G</text></g><g class="noselect gnode" struct_name="m" transform="translate(52.04,171.73)" r="6.5"><circle class="node" r="6" node_type="nucleotide" style="fill: lightgreen;"></circle><text text-anchor="middle" font-size="8" font-weight="bold" y="2.5" class="node-label">A</text></g><g class="noselect gnode" struct_name="m" transform="translate(52.61,188.47)" r="6.5"><circle class="node" r="6" node_type="nucleotide" style="fill: lightgreen;"></circle><text text-anchor="middle" font-size="8" font-weight="bold" y="2.5" class="node-label">G</text></g><g class="noselect gnode" struct_name="m" transform="translate(52.12,204.91)" r="6.5"><circle class="node" r="6" node_type="nucleotide" style="fill: lightgreen;"></circle><text text-anchor="middle" font-size="8" font-weight="bold" y="2.5" class="node-label">U</text></g><g class="noselect gnode" struct_name="m" transform="translate(51.19,221.08)" r="6.5"><circle class="node" r="6" node_type="nucleotide" style="fill: lightgreen;"></circle><text text-anchor="middle" font-size="8" font-weight="bold" y="2.5" class="node-label">G</text></g><g class="noselect gnode" struct_name="m" transform="translate(50.37,236.99)" r="6.5"><circle class="node" r="6" node_type="nucleotide" style="fill: lightgreen;"></circle><text text-anchor="middle" font-size="8" font-weight="bold" y="2.5" class="node-label">C</text></g><g class="noselect gnode" struct_name="m" transform="translate(50.20,252.52)" r="6.5"><circle class="node" r="6" node_type="nucleotide" style="fill: lightgreen;"></circle><text text-anchor="middle" font-size="8" font-weight="bold" y="2.5" class="node-label">G</text></g><g class="noselect gnode" struct_name="m" transform="translate(63.73,259.67)" r="6.5"><circle class="node" r="6" node_type="nucleotide" style="fill: lightsalmon;"></circle><text text-anchor="middle" font-size="8" font-weight="bold" y="2.5" class="node-label">U</text></g><g class="noselect gnode" struct_name="m" transform="translate(72.57,271.75)" r="6.5"><circle class="node" r="6" node_type="nucleotide" style="fill: lightsalmon;"></circle><text text-anchor="middle" font-size="8" font-weight="bold" y="2.5" class="node-label">U</text></g><g class="noselect gnode" struct_name="m" transform="translate(74.73,286.67)" r="6.5"><circle class="node" r="6" node_type="nucleotide" style="fill: lightsalmon;"></circle><text text-anchor="middle" font-size="8" font-weight="bold" y="2.5" class="node-label">A</text></g><g class="noselect gnode" struct_name="m" transform="translate(69.68,300.73)" r="6.5"><circle class="node" r="6" node_type="nucleotide" style="fill: lightsalmon;"></circle><text text-anchor="middle" font-size="8" font-weight="bold" y="2.5" class="node-label">A</text></g><g class="noselect gnode" struct_name="m" transform="translate(58.62,310.86)" r="6.5"><circle class="node" r="6" node_type="nucleotide" style="fill: lightsalmon;"></circle><text text-anchor="middle" font-size="8" font-weight="bold" y="2.5" class="node-label">A</text></g><g class="noselect gnode" struct_name="m" transform="translate(22.11,174.86)" r="6.5"><circle class="node label" r="6" node_type="label"></circle><text text-anchor="middle" font-size="8" font-weight="bold" y="2.5" class="node-label">10</text></g><g class="noselect gnode" struct_name="m" transform="translate(-24.61,62.04)" r="6.5"><circle class="node label" r="6" node_type="label"></circle><text text-anchor="middle" font-size="8" font-weight="bold" y="2.5" class="node-label">20</text></g><g class="noselect gnode" struct_name="m" transform="translate(59.71,-40.61)" r="6.5"><circle class="node label" r="6" node_type="label"></circle><text text-anchor="middle" font-size="8" font-weight="bold" y="2.5" class="node-label">30</text></g><g class="noselect gnode" struct_name="m" transform="translate(90.06,23.03)" r="6.5"><circle class="node label" r="6" node_type="label"></circle><text text-anchor="middle" font-size="8" font-weight="bold" y="2.5" class="node-label">40</text></g><g class="noselect gnode" struct_name="m" transform="translate(67.63,170.22)" r="6.5"><circle class="node label" r="6" node_type="label"></circle><text text-anchor="middle" font-size="8" font-weight="bold" y="2.5" class="node-label">50</text></g><g class="noselect gnode" struct_name="m" transform="translate(66.59,324.03)" r="6.5"><circle class="node label" r="6" node_type="label"></circle><text text-anchor="middle" font-size="8" font-weight="bold" y="2.5" class="node-label">60</text></g><g class="noselect gnode" transform="translate(43.07,66.92)" r="6.5"><circle class="node" r="0" node_type="middle"></circle><text text-anchor="middle" font-size="8" font-weight="bold" y="2.5" class="node-label"></text></g><g class="noselect gnode" transform="translate(52.49,53.62)" r="6.5"><circle class="node" r="0" node_type="middle"></circle><text text-anchor="middle" font-size="8" font-weight="bold" y="2.5" class="node-label"></text></g><g class="noselect gnode" transform="translate(59.92,39.26)" r="6.5"><circle class="node" r="0" node_type="middle"></circle><text text-anchor="middle" font-size="8" font-weight="bold" y="2.5" class="node-label"></text></g><g class="noselect gnode" transform="translate(65.80,24.10)" r="6.5"><circle class="node" r="0" node_type="middle"></circle><text text-anchor="middle" font-size="8" font-weight="bold" y="2.5" class="node-label"></text></g><g class="noselect gnode" transform="translate(70.61,8.54)" r="6.5"><circle class="node" r="0" node_type="middle"></circle><text text-anchor="middle" font-size="8" font-weight="bold" y="2.5" class="node-label"></text></g><g class="noselect gnode" transform="translate(74.72,-7.17)" r="6.5"><circle class="node" r="0" node_type="middle"></circle><text text-anchor="middle" font-size="8" font-weight="bold" y="2.5" class="node-label"></text></g><g class="noselect gnode" transform="translate(78.37,-22.90)" r="6.5"><circle class="node" r="0" node_type="middle"></circle><text text-anchor="middle" font-size="8" font-weight="bold" y="2.5" class="node-label"></text></g><g class="noselect gnode" transform="translate(81.71,-38.52)" r="6.5"><circle class="node" r="0" node_type="middle"></circle><text text-anchor="middle" font-size="8" font-weight="bold" y="2.5" class="node-label"></text></g><g class="noselect gnode" transform="translate(42.73,244.74)" r="6.5"><circle class="node" r="0" node_type="middle"></circle><text text-anchor="middle" font-size="8" font-weight="bold" y="2.5" class="node-label"></text></g><g class="noselect gnode" transform="translate(43.42,228.72)" r="6.5"><circle class="node" r="0" node_type="middle"></circle><text text-anchor="middle" font-size="8" font-weight="bold" y="2.5" class="node-label"></text></g><g class="noselect gnode" transform="translate(44.43,212.63)" r="6.5"><circle class="node" r="0" node_type="middle"></circle><text text-anchor="middle" font-size="8" font-weight="bold" y="2.5" class="node-label"></text></g><g class="noselect gnode" transform="translate(45.29,196.54)" r="6.5"><circle class="node" r="0" node_type="middle"></circle><text text-anchor="middle" font-size="8" font-weight="bold" y="2.5" class="node-label"></text></g><g class="noselect gnode" transform="translate(45.44,180.40)" r="6.5"><circle class="node" r="0" node_type="middle"></circle><text text-anchor="middle" font-size="8" font-weight="bold" y="2.5" class="node-label"></text></g><g class="noselect gnode" transform="translate(44.15,164.28)" r="6.5"><circle class="node" r="0" node_type="middle"></circle><text text-anchor="middle" font-size="8" font-weight="bold" y="2.5" class="node-label"></text></g><g class="noselect gnode" transform="translate(40.96,148.44)" r="6.5"><circle class="node" r="0" node_type="middle"></circle><text text-anchor="middle" font-size="8" font-weight="bold" y="2.5" class="node-label"></text></g><g class="noselect gnode" transform="translate(35.31,133.13)" r="6.5"><circle class="node" r="0" node_type="middle"></circle><text text-anchor="middle" font-size="8" font-weight="bold" y="2.5" class="node-label"></text></g><g class="noselect gnode" transform="translate(44.40,315.23)" r="6.5"><circle class="node" r="0" node_type="middle"></circle><text text-anchor="middle" font-size="8" font-weight="bold" y="2.5" class="node-label"></text></g><g class="noselect gnode" transform="translate(29.56,312.69)" r="6.5"><circle class="node" r="0" node_type="middle"></circle><text text-anchor="middle" font-size="8" font-weight="bold" y="2.5" class="node-label"></text></g><g class="noselect gnode" transform="translate(43.24,283.20)" r="6.5"><circle class="node" r="0" node_type="middle"></circle><text text-anchor="middle" font-size="8" font-weight="bold" y="2.5" class="node-label"></text></g><g class="noselect gnode" transform="translate(85.88,-59.09)" r="6.5"><circle class="node" r="0" node_type="middle"></circle><text text-anchor="middle" font-size="8" font-weight="bold" y="2.5" class="node-label"></text></g><g class="noselect gnode" transform="translate(11.29,96.75)" r="6.5"><circle class="node" r="0" node_type="middle"></circle><text text-anchor="middle" font-size="8" font-weight="bold" y="2.5" class="node-label"></text></g></g><line class="drag_line" x1="0" y1="0" x2="0" y2="0"></line></g></g></svg>