<svg xmlns="http://www.w3.org/2000/svg" viewBox="0 0 760 640" width="760" height="640"><style>svg {
  display: block;
  min-width: 100%;
  width: 100%;
  min-height: 100%;
}

circle.node {
  stroke: #ccc;
  stroke-width: 1px;
  opacity: 1;
  fill: white;
}

circle.node.label {
    stroke: transparent;
    stroke-width: 0;
    fill: white;
}

circle.outline_node {
    stroke-width: 1px;
    fill: red;
}

circle.protein {
    fill: gray;
    fill-opacity: 0.5;
    stroke-width: 4;
}

circle.hidden_outline {
    stroke-width: 0px;
}


line.link {
  stroke: #999;
  stroke-opacity: 0.8;
  stroke-width: 2;
}

line.basepair {
  stroke: red;
}

line.intermolecule {
  stroke: blue;
}

line.chain_chain {
  stroke-dasharray: 3,3;
}

line.fake {
  stroke: green;
}

.transparent {
    fill: transparent;
    stroke-width: 0;
    stroke-opacity: 0;
    opacity: 0;
    visibility: hidden;
}

.drag_line {
  stroke: #999;
  stroke-width: 2;
  pointer-events: none;
}

.drag_line_hidden {
  stroke: #999;
  stroke-width: 0;
  pointer-events: none;
}

.d3-tip {
    line-height: 1;
    font-weight: bold;
    padding: 6px;
    background: rgba(0, 0, 0, 0.6);
    color: #fff;
    border-radius: 4px;
    pointer-events: none;
          }

text.node-label {
    font-weight: bold;
    font-family: Tahoma, Geneva, sans-serif;
    color: rgb(100,100,100);
    pointer-events: none;
}

text {
    pointer-events: none;
}

g.gnode {

}

circle.outline_node.selected {
    visibility: visible;
}

circle.outline_node {
    visibility: hidden;
}

.brush .extent {
  fill-opacity: .1;
  stroke: #fff;
  shape-rendering: crispEdges;
}

.noselect {
    -webkit-touch-callout: none;
    -webkit-user-select: none;
    -khtml-user-select: none;
    -moz-user-select: none;
    -ms-user-select: none;
    user-select: none;
}

svg {
  display: block;
  min-width: 100%;
  width: 100%;
  min-height: 100%;
}

circle.node {
  stroke: #ccc;
  stroke-width: 1px;
  opacity: 1;
  fill: white;
}

circle.node.label {
    stroke: transparent;
    stroke-width: 0;
    fill: white;
}

circle.outline_node {
    stroke-width: 1px;
    fill: red;
}

circle.protein {
    fill: gray;
    fill-opacity: 0.5;
    stroke-width: 4;
}

circle.hidden_outline {
    stroke-width: 0px;
}


line.link {
  stroke: #999;
  stroke-opacity: 0.8;
  stroke-width: 2;
}

line.basepair {
  stroke: red;
}

line.intermolecule {
  stroke: blue;
}

line.chain_chain {
  stroke-dasharray: 3,3;
}

line.fake {
  stroke: green;
}

.transparent {
    fill: transparent;
    stroke-width: 0;
    stroke-opacity: 0;
    opacity: 0;
    visibility: hidden;
}

.drag_line {
  stroke: #999;
  stroke-width: 2;
  pointer-events: none;
}

.drag_line_hidden {
  stroke: #999;
  stroke-width: 0;
  pointer-events: none;
}

.d3-tip {
    line-height: 1;
    font-weight: bold;
    padding: 6px;
    background: rgba(0, 0, 0, 0.6);
    color: #fff;
    border-radius: 4px;
    pointer-events: none;
          }

text.node-label {
    font-weight: bold;
    font-family: Tahoma, Geneva, sans-serif;
    color: rgb(100,100,100);
    pointer-events: none;
}

text {
    pointer-events: none;
}

g.gnode {

}

circle.outline_node.selected {
    visibility: visible;
}

circle.outline_node {
    visibility: hidden;
}

.brush .extent {
  fill-opacity: .1;
  stroke: #fff;
  shape-rendering: crispEdges;
}

.noselect {
    -webkit-touch-callout: none;
    -webkit-user-select: none;
    -khtml-user-select: none;
    -moz-user-select: none;
    -ms-user-select: none;
    user-select: none;
}
/*# sourceURL=/Users/yumanakamura/ipy_sandbox/sandbox/claude_sandbox/mrna-transformer-worktrees/feat-issue57-switch-derna-knotty/scripts/eval/prerender/forna_vendor/fornac.css*/</style><style></style><g><g class="brush" style="pointer-events: all; -webkit-tap-highlight-color: rgba(0, 0, 0, 0);"><rect class="background" x="0" width="760" y="0" height="640" style="visibility: hidden; cursor: auto;"></rect><rect class="extent" x="0" width="0" y="0" height="0" style="cursor: move;"></rect><g class="resize n" transform="translate(0,0)" style="cursor: ns-resize; display: none;"><rect y="-3" width="0" height="6" style="visibility: hidden;"></rect></g><g class="resize e" transform="translate(0,0)" style="cursor: ew-resize; display: none;"><rect x="-3" width="6" height="0" style="visibility: hidden;"></rect></g><g class="resize s" transform="translate(0,0)" style="cursor: ns-resize; display: none;"><rect y="-3" width="0" height="6" style="visibility: hidden;"></rect></g><g class="resize w" transform="translate(0,0)" style="cursor: ew-resize; display: none;"><rect x="-3" width="6" height="0" style="visibility: hidden;"></rect></g><g class="resize nw" transform="translate(0,0)" style="cursor: nwse-resize; display: none;"><rect x="-3" y="-3" width="6" height="6" style="visibility: hidden;"></rect></g><g class="resize ne" transform="translate(0,0)" style="cursor: nesw-resize; display: none;"><rect x="-3" y="-3" width="6" height="6" style="visibility: hidden;"></rect></g><g class="resize se" transform="translate(0,0)" style="cursor: nwse-resize; display: none;"><rect x="-3" y="-3" width="6" height="6" style="visibility: hidden;"></rect></g><g class="resize sw" transform="translate(0,0)" style="cursor: nesw-resize; display: none;"><rect x="-3" y="-3" width="6" height="6" style="visibility: hidden;"></rect></g></g><g transform="translate(263.40,160.15) scale(1.38)"><g><line class="link backbone" x1="100.31" y1="263.34" x2="106.55" y2="249.72"></line><line class="link basepair" x1="117.49" y1="239.05" x2="131.49" y2="233.78"></line><line class="link backbone" x1="106.55" y1="249.72" x2="117.49" y2="239.05"></line><line class="link basepair" x1="112.01" y1="224.14" x2="125.53" y2="218.95"></line><line class="link backbone" x1="117.49" y1="239.05" x2="112.01" y2="224.14"></line><line class="link basepair" x1="106.21" y1="209.07" x2="119.79" y2="203.87"></line><line class="link backbone" x1="112.01" y1="224.14" x2="106.21" y2="209.07"></line><line class="link basepair" x1="100.45" y1="194.14" x2="114.04" y2="188.80"></line><line class="link backbone" x1="106.21" y1="209.07" x2="100.45" y2="194.14"></line><line class="link basepair" x1="94.53" y1="179.55" x2="107.94" y2="173.77"></line><line class="link backbone" x1="100.45" y1="194.14" x2="94.53" y2="179.55"></line><line class="link basepair" x1="88.01" y1="165.35" x2="101.03" y2="158.83"></line><line class="link backbone" x1="94.53" y1="179.55" x2="88.01" y2="165.35"></line><line class="link basepair" x1="80.57" y1="151.74" x2="92.99" y2="144.25"></line><line class="link backbone" x1="88.01" y1="165.35" x2="80.57" y2="151.74"></line><line class="link basepair" x1="71.97" y1="138.77" x2="83.64" y2="130.22"></line><line class="link backbone" x1="80.57" y1="151.74" x2="71.97" y2="138.77"></line><line class="link basepair" x1="62.22" y1="126.67" x2="72.77" y2="116.97"></line><line class="link backbone" x1="71.97" y1="138.77" x2="62.22" y2="126.67"></line><line class="link basepair" x1="51.24" y1="116.60" x2="60.13" y2="104.76"></line><line class="link backbone" x1="62.22" y1="126.67" x2="51.24" y2="116.60"></line><line class="link backbone" x1="51.24" y1="116.60" x2="36.06" y2="117.95"></line><line class="link backbone" x1="36.06" y1="117.95" x2="25.69" y2="107.05"></line><line class="link backbone" x1="25.69" y1="107.05" x2="27.68" y2="92.09"></line><line class="link basepair" x1="40.68" y1="84.31" x2="54.86" y2="88.62"></line><line class="link backbone" x1="27.68" y1="92.09" x2="40.68" y2="84.31"></line><line class="link basepair" x1="43.62" y1="69.76" x2="57.88" y2="71.43"></line><line class="link backbone" x1="40.68" y1="84.31" x2="43.62" y2="69.76"></line><line class="link basepair" x1="44.36" y1="54.33" x2="58.82" y2="54.29"></line><line class="link backbone" x1="43.62" y1="69.76" x2="44.36" y2="54.33"></line><line class="link basepair" x1="43.51" y1="38.93" x2="57.90" y2="37.34"></line><line class="link backbone" x1="44.36" y1="54.33" x2="43.51" y2="38.93"></line><line class="link basepair" x1="40.98" y1="23.75" x2="55.15" y2="20.63"></line><line class="link backbone" x1="43.51" y1="38.93" x2="40.98" y2="23.75"></line><line class="link basepair" x1="36.89" y1="8.79" x2="50.70" y2="4.38"></line><line class="link backbone" x1="40.98" y1="23.75" x2="36.89" y2="8.79"></line><line class="link basepair" x1="31.50" y1="-5.90" x2="45.06" y2="-11.24"></line><line class="link backbone" x1="36.89" y1="8.79" x2="31.50" y2="-5.90"></line><line class="link basepair" x1="25.37" y1="-20.44" x2="38.78" y2="-26.20"></line><line class="link backbone" x1="31.50" y1="-5.90" x2="25.37" y2="-20.44"></line><line class="link basepair" x1="18.89" y1="-34.86" x2="32.69" y2="-40.72"></line><line class="link backbone" x1="25.37" y1="-20.44" x2="18.89" y2="-34.86"></line><line class="link backbone" x1="18.89" y1="-34.86" x2="4.13" y2="-39.65"></line><line class="link backbone" x1="4.13" y1="-39.65" x2="-4.00" y2="-52.35"></line><line class="link backbone" x1="-4.00" y1="-52.35" x2="-2.06" y2="-67.45"></line><line class="link backbone" x1="-2.06" y1="-67.45" x2="9.13" y2="-77.60"></line><line class="link backbone" x1="9.13" y1="-77.60" x2="24.24" y2="-78.37"></line><line class="link backbone" x1="24.24" y1="-78.37" x2="36.33" y2="-69.15"></line><line class="link backbone" x1="36.33" y1="-69.15" x2="39.64" y2="-54.38"></line><line class="link basepair" x1="32.69" y1="-40.72" x2="18.89" y2="-34.86"></line><line class="link backbone" x1="39.64" y1="-54.38" x2="32.69" y2="-40.72"></line><line class="link basepair" x1="38.78" y1="-26.20" x2="25.37" y2="-20.44"></line><line class="link backbone" x1="32.69" y1="-40.72" x2="38.78" y2="-26.20"></line><line class="link basepair" x1="45.06" y1="-11.24" x2="31.50" y2="-5.90"></line><line class="link backbone" x1="38.78" y1="-26.20" x2="45.06" y2="-11.24"></line><line class="link basepair" x1="50.70" y1="4.38" x2="36.89" y2="8.79"></line><line class="link backbone" x1="45.06" y1="-11.24" x2="50.70" y2="4.38"></line><line class="link basepair" x1="55.15" y1="20.63" x2="40.98" y2="23.75"></line><line class="link backbone" x1="50.70" y1="4.38" x2="55.15" y2="20.63"></line><line class="link basepair" x1="57.90" y1="37.34" x2="43.51" y2="38.93"></line><line class="link backbone" x1="55.15" y1="20.63" x2="57.90" y2="37.34"></line><line class="link basepair" x1="58.82" y1="54.29" x2="44.36" y2="54.33"></line><line class="link backbone" x1="57.90" y1="37.34" x2="58.82" y2="54.29"></line><line class="link basepair" x1="57.88" y1="71.43" x2="43.62" y2="69.76"></line><line class="link backbone" x1="58.82" y1="54.29" x2="57.88" y2="71.43"></line><line class="link basepair" x1="54.86" y1="88.62" x2="40.68" y2="84.31"></line><line class="link backbone" x1="57.88" y1="71.43" x2="54.86" y2="88.62"></line><line class="link basepair" x1="60.13" y1="104.76" x2="51.24" y2="116.60"></line><line class="link backbone" x1="54.86" y1="88.62" x2="60.13" y2="104.76"></line><line class="link basepair" x1="72.77" y1="116.97" x2="62.22" y2="126.67"></line><line class="link backbone" x1="60.13" y1="104.76" x2="72.77" y2="116.97"></line><line class="link basepair" x1="83.64" y1="130.22" x2="71.97" y2="138.77"></line><line class="link backbone" x1="72.77" y1="116.97" x2="83.64" y2="130.22"></line><line class="link basepair" x1="92.99" y1="144.25" x2="80.57" y2="151.74"></line><line class="link backbone" x1="83.64" y1="130.22" x2="92.99" y2="144.25"></line><line class="link basepair" x1="101.03" y1="158.83" x2="88.01" y2="165.35"></line><line class="link backbone" x1="92.99" y1="144.25" x2="101.03" y2="158.83"></line><line class="link basepair" x1="107.94" y1="173.77" x2="94.53" y2="179.55"></line><line class="link backbone" x1="101.03" y1="158.83" x2="107.94" y2="173.77"></line><line class="link basepair" x1="114.04" y1="188.80" x2="100.45" y2="194.14"></line><line class="link backbone" x1="107.94" y1="173.77" x2="114.04" y2="188.80"></line><line class="link basepair" x1="119.79" y1="203.87" x2="106.21" y2="209.07"></line><line class="link backbone" x1="114.04" y1="188.80" x2="119.79" y2="203.87"></line><line class="link basepair" x1="125.53" y1="218.95" x2="112.01" y2="224.14"></line><line class="link backbone" x1="119.79" y1="203.87" x2="125.53" y2="218.95"></line><line class="link basepair" x1="131.49" y1="233.78" x2="117.49" y2="239.05"></line><line class="link backbone" x1="125.53" y1="218.95" x2="131.49" y2="233.78"></line><line class="link backbone" x1="131.49" y1="233.78" x2="146.88" y2="235.06"></line><line class="link backbone" x1="146.88" y1="235.06" x2="160.52" y2="241.23"></line><line class="link backbone" x1="160.52" y1="241.23" x2="170.89" y2="252.25"></line><line class="link backbone" x1="170.89" y1="252.25" x2="176.00" y2="266.37"></line><line class="link backbone" x1="176.00" y1="266.37" x2="175.26" y2="281.31"></line><line class="link backbone" x1="175.26" y1="281.31" x2="168.94" y2="294.90"></line><line class="link backbone" x1="168.94" y1="294.90" x2="157.73" y2="304.85"></line><line class="link backbone" x1="157.73" y1="304.85" x2="143.71" y2="309.96"></line><line class="link backbone" x1="143.71" y1="309.96" x2="128.74" y2="309.80"></line><line class="link backbone" x1="128.74" y1="309.80" x2="115.11" y2="303.45"></line><line class="link label_link" x1="71.97" y1="138.77" x2="60.28" y2="149.10"></line><line class="link label_link" x1="40.98" y1="23.75" x2="26.01" y2="28.01"></line><line class="link label_link" x1="36.33" y1="-69.15" x2="48.81" y2="-78.24"></line><line class="link label_link" x1="54.86" y1="88.62" x2="69.87" y2="84.63"></line><line class="link label_link" x1="131.49" y1="233.78" x2="143.23" y2="223.65"></line><line class="link label_link" x1="115.11" y1="303.45" x2="104.73" y2="314.88"></line><line class="link fake transparent" x1="117.49" y1="239.05" x2="121.66" y2="229.12"></line><line class="link fake transparent" x1="117.49" y1="239.05" x2="125.53" y2="218.95"></line><line class="link fake transparent" x1="112.01" y1="224.14" x2="121.66" y2="229.12"></line><line class="link fake transparent" x1="125.53" y1="218.95" x2="121.66" y2="229.12"></line><line class="link fake transparent" x1="131.49" y1="233.78" x2="121.66" y2="229.12"></line><line class="link fake transparent" x1="112.01" y1="224.14" x2="115.86" y2="214.01"></line><line class="link fake transparent" x1="106.21" y1="209.07" x2="115.86" y2="214.01"></line><line class="link fake transparent" x1="119.79" y1="203.87" x2="115.86" y2="214.01"></line><line class="link fake transparent" x1="125.53" y1="218.95" x2="115.86" y2="214.01"></line><line class="link fake transparent" x1="106.21" y1="209.07" x2="110.13" y2="198.94"></line><line class="link fake transparent" x1="100.45" y1="194.14" x2="110.13" y2="198.94"></line><line class="link fake transparent" x1="114.04" y1="188.80" x2="110.13" y2="198.94"></line><line class="link fake transparent" x1="119.79" y1="203.87" x2="110.13" y2="198.94"></line><line class="link fake transparent" x1="100.45" y1="194.14" x2="104.34" y2="184.00"></line><line class="link fake transparent" x1="94.53" y1="179.55" x2="104.34" y2="184.00"></line><line class="link fake transparent" x1="107.94" y1="173.77" x2="104.34" y2="184.00"></line><line class="link fake transparent" x1="114.04" y1="188.80" x2="104.34" y2="184.00"></line><line class="link fake transparent" x1="94.53" y1="179.55" x2="98.11" y2="169.28"></line><line class="link fake transparent" x1="88.01" y1="165.35" x2="98.11" y2="169.28"></line><line class="link fake transparent" x1="101.03" y1="158.83" x2="98.11" y2="169.28"></line><line class="link fake transparent" x1="107.94" y1="173.77" x2="98.11" y2="169.28"></line><line class="link fake transparent" x1="88.01" y1="165.35" x2="90.96" y2="154.88"></line><line class="link fake transparent" x1="80.57" y1="151.74" x2="90.96" y2="154.88"></line><line class="link fake transparent" x1="92.99" y1="144.25" x2="90.96" y2="154.88"></line><line class="link fake transparent" x1="101.03" y1="158.83" x2="90.96" y2="154.88"></line><line class="link fake transparent" x1="80.57" y1="151.74" x2="82.62" y2="141.06"></line><line class="link fake transparent" x1="71.97" y1="138.77" x2="82.62" y2="141.06"></line><line class="link fake transparent" x1="83.64" y1="130.22" x2="82.62" y2="141.06"></line><line class="link fake transparent" x1="92.99" y1="144.25" x2="82.62" y2="141.06"></line><line class="link fake transparent" x1="71.97" y1="138.77" x2="73.00" y2="127.92"></line><line class="link fake transparent" x1="62.22" y1="126.67" x2="73.00" y2="127.92"></line><line class="link fake transparent" x1="72.77" y1="116.97" x2="73.00" y2="127.92"></line><line class="link fake transparent" x1="83.64" y1="130.22" x2="73.00" y2="127.92"></line><line class="link fake transparent" x1="62.22" y1="126.67" x2="61.98" y2="115.79"></line><line class="link fake transparent" x1="51.24" y1="116.60" x2="61.98" y2="115.79"></line><line class="link fake transparent" x1="60.13" y1="104.76" x2="61.98" y2="115.79"></line><line class="link fake transparent" x1="72.77" y1="116.97" x2="61.98" y2="115.79"></line><line class="link fake transparent" x1="40.68" y1="84.31" x2="49.82" y2="78.68"></line><line class="link fake transparent" x1="43.62" y1="69.76" x2="49.82" y2="78.68"></line><line class="link fake transparent" x1="57.88" y1="71.43" x2="49.82" y2="78.68"></line><line class="link fake transparent" x1="54.86" y1="88.62" x2="49.82" y2="78.68"></line><line class="link fake transparent" x1="43.62" y1="69.76" x2="51.61" y2="62.44"></line><line class="link fake transparent" x1="44.36" y1="54.33" x2="51.61" y2="62.44"></line><line class="link fake transparent" x1="58.82" y1="54.29" x2="51.61" y2="62.44"></line><line class="link fake transparent" x1="57.88" y1="71.43" x2="51.61" y2="62.44"></line><line class="link fake transparent" x1="44.36" y1="54.33" x2="51.60" y2="46.21"></line><line class="link fake transparent" x1="43.51" y1="38.93" x2="51.60" y2="46.21"></line><line class="link fake transparent" x1="57.90" y1="37.34" x2="51.60" y2="46.21"></line><line class="link fake transparent" x1="58.82" y1="54.29" x2="51.60" y2="46.21"></line><line class="link fake transparent" x1="43.51" y1="38.93" x2="49.86" y2="30.11"></line><line class="link fake transparent" x1="40.98" y1="23.75" x2="49.86" y2="30.11"></line><line class="link fake transparent" x1="55.15" y1="20.63" x2="49.86" y2="30.11"></line><line class="link fake transparent" x1="57.90" y1="37.34" x2="49.86" y2="30.11"></line><line class="link fake transparent" x1="40.98" y1="23.75" x2="46.32" y2="14.29"></line><line class="link fake transparent" x1="36.89" y1="8.79" x2="46.32" y2="14.29"></line><line class="link fake transparent" x1="50.70" y1="4.38" x2="46.32" y2="14.29"></line><line class="link fake transparent" x1="55.15" y1="20.63" x2="46.32" y2="14.29"></line><line class="link fake transparent" x1="36.89" y1="8.79" x2="41.30" y2="-1.11"></line><line class="link fake transparent" x1="31.50" y1="-5.90" x2="41.30" y2="-1.11"></line><line class="link fake transparent" x1="45.06" y1="-11.24" x2="41.30" y2="-1.11"></line><line class="link fake transparent" x1="50.70" y1="4.38" x2="41.30" y2="-1.11"></line><line class="link fake transparent" x1="31.50" y1="-5.90" x2="35.27" y2="-15.99"></line><line class="link fake transparent" x1="25.37" y1="-20.44" x2="35.27" y2="-15.99"></line><line class="link fake transparent" x1="38.78" y1="-26.20" x2="35.27" y2="-15.99"></line><line class="link fake transparent" x1="45.06" y1="-11.24" x2="35.27" y2="-15.99"></line><line class="link fake transparent" x1="25.37" y1="-20.44" x2="28.87" y2="-30.64"></line><line class="link fake transparent" x1="18.89" y1="-34.86" x2="28.87" y2="-30.64"></line><line class="link fake transparent" x1="32.69" y1="-40.72" x2="28.87" y2="-30.64"></line><line class="link fake transparent" x1="38.78" y1="-26.20" x2="28.87" y2="-30.64"></line><line class="link fake transparent" x1="100.31" y1="263.34" x2="137.73" y2="272.06"></line><line class="link fake transparent" x1="100.31" y1="263.34" x2="175.26" y2="281.31"></line><line class="link fake transparent" x1="106.55" y1="249.72" x2="137.73" y2="272.06"></line><line class="link fake transparent" x1="106.55" y1="249.72" x2="168.94" y2="294.90"></line><line class="link fake transparent" x1="117.49" y1="239.05" x2="137.73" y2="272.06"></line><line class="link fake transparent" x1="117.49" y1="239.05" x2="157.73" y2="304.85"></line><line class="link fake transparent" x1="131.49" y1="233.78" x2="137.73" y2="272.06"></line><line class="link fake transparent" x1="131.49" y1="233.78" x2="143.71" y2="309.96"></line><line class="link fake transparent" x1="146.88" y1="235.06" x2="137.73" y2="272.06"></line><line class="link fake transparent" x1="146.88" y1="235.06" x2="128.74" y2="309.80"></line><line class="link fake transparent" x1="160.52" y1="241.23" x2="137.73" y2="272.06"></line><line class="link fake transparent" x1="160.52" y1="241.23" x2="115.11" y2="303.45"></line><line class="link fake transparent" x1="170.89" y1="252.25" x2="137.73" y2="272.06"></line><line class="link fake transparent" x1="170.89" y1="252.25" x2="104.91" y2="292.66"></line><line class="link fake transparent" x1="176.00" y1="266.37" x2="137.73" y2="272.06"></line><line class="link fake transparent" x1="176.00" y1="266.37" x2="99.56" y2="278.68"></line><line class="link fake transparent" x1="175.26" y1="281.31" x2="137.73" y2="272.06"></line><line class="link fake transparent" x1="175.26" y1="281.31" x2="100.31" y2="263.34"></line><line class="link fake transparent" x1="168.94" y1="294.90" x2="137.73" y2="272.06"></line><line class="link fake transparent" x1="168.94" y1="294.90" x2="106.55" y2="249.72"></line><line class="link fake transparent" x1="157.73" y1="304.85" x2="137.73" y2="272.06"></line><line class="link fake transparent" x1="157.73" y1="304.85" x2="117.49" y2="239.05"></line><line class="link fake transparent" x1="143.71" y1="309.96" x2="137.73" y2="272.06"></line><line class="link fake transparent" x1="143.71" y1="309.96" x2="131.49" y2="233.78"></line><line class="link fake transparent" x1="128.74" y1="309.80" x2="137.73" y2="272.06"></line><line class="link fake transparent" x1="128.74" y1="309.80" x2="146.88" y2="235.06"></line><line class="link fake transparent" x1="115.11" y1="303.45" x2="137.73" y2="272.06"></line><line class="link fake transparent" x1="115.11" y1="303.45" x2="160.52" y2="241.23"></line><line class="link fake transparent" x1="18.89" y1="-34.86" x2="17.70" y2="-57.06"></line><line class="link fake transparent" x1="18.89" y1="-34.86" x2="9.13" y2="-77.60"></line><line class="link fake transparent" x1="4.13" y1="-39.65" x2="17.70" y2="-57.06"></line><line class="link fake transparent" x1="4.13" y1="-39.65" x2="24.24" y2="-78.37"></line><line class="link fake transparent" x1="-4.00" y1="-52.35" x2="17.70" y2="-57.06"></line><line class="link fake transparent" x1="-4.00" y1="-52.35" x2="36.33" y2="-69.15"></line><line class="link fake transparent" x1="-2.06" y1="-67.45" x2="17.70" y2="-57.06"></line><line class="link fake transparent" x1="-2.06" y1="-67.45" x2="39.64" y2="-54.38"></line><line class="link fake transparent" x1="9.13" y1="-77.60" x2="17.70" y2="-57.06"></line><line class="link fake transparent" x1="9.13" y1="-77.60" x2="32.69" y2="-40.72"></line><line class="link fake transparent" x1="24.24" y1="-78.37" x2="17.70" y2="-57.06"></line><line class="link fake transparent" x1="24.24" y1="-78.37" x2="18.89" y2="-34.86"></line><line class="link fake transparent" x1="36.33" y1="-69.15" x2="17.70" y2="-57.06"></line><line class="link fake transparent" x1="36.33" y1="-69.15" x2="4.13" y2="-39.65"></line><line class="link fake transparent" x1="39.64" y1="-54.38" x2="17.70" y2="-57.06"></line><line class="link fake transparent" x1="39.64" y1="-54.38" x2="-4.00" y2="-52.35"></line><line class="link fake transparent" x1="32.69" y1="-40.72" x2="17.70" y2="-57.06"></line><line class="link fake transparent" x1="32.69" y1="-40.72" x2="-2.06" y2="-67.45"></line><line class="link fake transparent" x1="51.24" y1="116.60" x2="42.78" y2="101.50"></line><line class="link fake transparent" x1="51.24" y1="116.60" x2="27.68" y2="92.09"></line><line class="link fake transparent" x1="36.06" y1="117.95" x2="42.78" y2="101.50"></line><line class="link fake transparent" x1="36.06" y1="117.95" x2="40.68" y2="84.31"></line><line class="link fake transparent" x1="25.69" y1="107.05" x2="42.78" y2="101.50"></line><line class="link fake transparent" x1="25.69" y1="107.05" x2="54.86" y2="88.62"></line><line class="link fake transparent" x1="27.68" y1="92.09" x2="42.78" y2="101.50"></line><line class="link fake transparent" x1="27.68" y1="92.09" x2="60.13" y2="104.76"></line><line class="link fake transparent" x1="40.68" y1="84.31" x2="42.78" y2="101.50"></line><line class="link fake transparent" x1="40.68" y1="84.31" x2="51.24" y2="116.60"></line><line class="link fake transparent" x1="54.86" y1="88.62" x2="42.78" y2="101.50"></line><line class="link fake transparent" x1="54.86" y1="88.62" x2="36.06" y2="117.95"></line><line class="link fake transparent" x1="60.13" y1="104.76" x2="42.78" y2="101.50"></line><line class="link fake transparent" x1="60.13" y1="104.76" x2="25.69" y2="107.05"></line></g><g><g class="noselect gnode" struct_name="m" transform="translate(100.31,263.34)" r="6.5"><circle class="node" r="6" node_type="nucleotide" style="fill: lightsalmon;"></circle><text text-anchor="middle" font-size="8" font-weight="bold" y="2.5" class="node-label">G</text></g><g class="noselect gnode" struct_name="m" transform="translate(106.55,249.72)" r="6.5"><circle class="node" r="6" node_type="nucleotide" style="fill: lightsalmon;"></circle><text text-anchor="middle" font-size="8" font-weight="bold" y="2.5" class="node-label">C</text></g><g class="noselect gnode" struct_name="m" transform="translate(117.49,239.05)" r="6.5"><circle class="node" r="6" node_type="nucleotide" style="fill: lightgreen;"></circle><text text-anchor="middle" font-size="8" font-weight="bold" y="2.5" class="node-label">U</text></g><g class="noselect gnode" struct_name="m" transform="translate(112.01,224.14)" r="6.5"><circle class="node" r="6" node_type="nucleotide" style="fill: lightgreen;"></circle><text text-anchor="middle" font-size="8" font-weight="bold" y="2.5" class="node-label">U</text></g><g class="noselect gnode" struct_name="m" transform="translate(106.21,209.07)" r="6.5"><circle class="node" r="6" node_type="nucleotide" style="fill: lightgreen;"></circle><text text-anchor="middle" font-size="8" font-weight="bold" y="2.5" class="node-label">U</text></g><g class="noselect gnode" struct_name="m" transform="translate(100.45,194.14)" r="6.5"><circle class="node" r="6" node_type="nucleotide" style="fill: lightgreen;"></circle><text text-anchor="middle" font-size="8" font-weight="bold" y="2.5" class="node-label">C</text></g><g class="noselect gnode" struct_name="m" transform="translate(94.53,179.55)" r="6.5"><circle class="node" r="6" node_type="nucleotide" style="fill: lightgreen;"></circle><text text-anchor="middle" font-size="8" font-weight="bold" y="2.5" class="node-label">G</text></g><g class="noselect gnode" struct_name="m" transform="translate(88.01,165.35)" r="6.5"><circle class="node" r="6" node_type="nucleotide" style="fill: lightgreen;"></circle><text text-anchor="middle" font-size="8" font-weight="bold" y="2.5" class="node-label">A</text></g><g class="noselect gnode" struct_name="m" transform="translate(80.57,151.74)" r="6.5"><circle class="node" r="6" node_type="nucleotide" style="fill: lightgreen;"></circle><text text-anchor="middle" font-size="8" font-weight="bold" y="2.5" class="node-label">U</text></g><g class="noselect gnode" struct_name="m" transform="translate(71.97,138.77)" r="6.5"><circle class="node" r="6" node_type="nucleotide" style="fill: lightgreen;"></circle><text text-anchor="middle" font-size="8" font-weight="bold" y="2.5" class="node-label">A</text></g><g class="noselect gnode" struct_name="m" transform="translate(62.22,126.67)" r="6.5"><circle class="node" r="6" node_type="nucleotide" style="fill: lightgreen;"></circle><text text-anchor="middle" font-size="8" font-weight="bold" y="2.5" class="node-label">C</text></g><g class="noselect gnode" struct_name="m" transform="translate(51.24,116.60)" r="6.5"><circle class="node" r="6" node_type="nucleotide" style="fill: lightgreen;"></circle><text text-anchor="middle" font-size="8" font-weight="bold" y="2.5" class="node-label">A</text></g><g class="noselect gnode" struct_name="m" transform="translate(36.06,117.95)" r="6.5"><circle class="node" r="6" node_type="nucleotide" style="fill: rgb(219, 219, 141);"></circle><text text-anchor="middle" font-size="8" font-weight="bold" y="2.5" class="node-label">U</text></g><g class="noselect gnode" struct_name="m" transform="translate(25.69,107.05)" r="6.5"><circle class="node" r="6" node_type="nucleotide" style="fill: rgb(219, 219, 141);"></circle><text text-anchor="middle" font-size="8" font-weight="bold" y="2.5" class="node-label">A</text></g><g class="noselect gnode" struct_name="m" transform="translate(27.68,92.09)" r="6.5"><circle class="node" r="6" node_type="nucleotide" style="fill: rgb(219, 219, 141);"></circle><text text-anchor="middle" font-size="8" font-weight="bold" y="2.5" class="node-label">U</text></g><g class="noselect gnode" struct_name="m" transform="translate(40.68,84.31)" r="6.5"><circle class="node" r="6" node_type="nucleotide" style="fill: lightgreen;"></circle><text text-anchor="middle" font-size="8" font-weight="bold" y="2.5" class="node-label">U</text></g><g class="noselect gnode" struct_name="m" transform="translate(43.62,69.76)" r="6.5"><circle class="node" r="6" node_type="nucleotide" style="fill: lightgreen;"></circle><text text-anchor="middle" font-size="8" font-weight="bold" y="2.5" class="node-label">G</text></g><g class="noselect gnode" struct_name="m" transform="translate(44.36,54.33)" r="6.5"><circle class="node" r="6" node_type="nucleotide" style="fill: lightgreen;"></circle><text text-anchor="middle" font-size="8" font-weight="bold" y="2.5" class="node-label">G</text></g><g class="noselect gnode" struct_name="m" transform="translate(43.51,38.93)" r="6.5"><circle class="node" r="6" node_type="nucleotide" style="fill: lightgreen;"></circle><text text-anchor="middle" font-size="8" font-weight="bold" y="2.5" class="node-label">G</text></g><g class="noselect gnode" struct_name="m" transform="translate(40.98,23.75)" r="6.5"><circle class="node" r="6" node_type="nucleotide" style="fill: lightgreen;"></circle><text text-anchor="middle" font-size="8" font-weight="bold" y="2.5" class="node-label">G</text></g><g class="noselect gnode" struct_name="m" transform="translate(36.89,8.79)" r="6.5"><circle class="node" r="6" node_type="nucleotide" style="fill: lightgreen;"></circle><text text-anchor="middle" font-size="8" font-weight="bold" y="2.5" class="node-label">G</text></g><g class="noselect gnode" struct_name="m" transform="translate(31.50,-5.90)" r="6.5"><circle class="node" r="6" node_type="nucleotide" style="fill: lightgreen;"></circle><text text-anchor="middle" font-size="8" font-weight="bold" y="2.5" class="node-label">A</text></g><g class="noselect gnode" struct_name="m" transform="translate(25.37,-20.44)" r="6.5"><circle class="node" r="6" node_type="nucleotide" style="fill: lightgreen;"></circle><text text-anchor="middle" font-size="8" font-weight="bold" y="2.5" class="node-label">C</text></g><g class="noselect gnode" struct_name="m" transform="translate(18.89,-34.86)" r="6.5"><circle class="node" r="6" node_type="nucleotide" style="fill: lightgreen;"></circle><text text-anchor="middle" font-size="8" font-weight="bold" y="2.5" class="node-label">U</text></g><g class="noselect gnode" struct_name="m" transform="translate(4.13,-39.65)" r="6.5"><circle class="node" r="6" node_type="nucleotide" style="fill: lightblue;"></circle><text text-anchor="middle" font-size="8" font-weight="bold" y="2.5" class="node-label">A</text></g><g class="noselect gnode" struct_name="m" transform="translate(-4.00,-52.35)" r="6.5"><circle class="node" r="6" node_type="nucleotide" style="fill: lightblue;"></circle><text text-anchor="middle" font-size="8" font-weight="bold" y="2.5" class="node-label">A</text></g><g class="noselect gnode" struct_name="m" transform="translate(-2.06,-67.45)" r="6.5"><circle class="node" r="6" node_type="nucleotide" style="fill: lightblue;"></circle><text text-anchor="middle" font-size="8" font-weight="bold" y="2.5" class="node-label">U</text></g><g class="noselect gnode" struct_name="m" transform="translate(9.13,-77.60)" r="6.5"><circle class="node" r="6" node_type="nucleotide" style="fill: lightblue;"></circle><text text-anchor="middle" font-size="8" font-weight="bold" y="2.5" class="node-label">G</text></g><g class="noselect gnode" struct_name="m" transform="translate(24.24,-78.37)" r="6.5"><circle class="node" r="6" node_type="nucleotide" style="fill: lightblue;"></circle><text text-anchor="middle" font-size="8" font-weight="bold" y="2.5" class="node-label">A</text></g><g class="noselect gnode" struct_name="m" transform="translate(36.33,-69.15)" r="6.5"><circle class="node" r="6" node_type="nucleotide" style="fill: lightblue;"></circle><text text-anchor="middle" font-size="8" font-weight="bold" y="2.5" class="node-label">U</text></g><g class="noselect gnode" struct_name="m" transform="translate(39.64,-54.38)" r="6.5"><circle class="node" r="6" node_type="nucleotide" style="fill: lightblue;"></circle><text text-anchor="middle" font-size="8" font-weight="bold" y="2.5" class="node-label">G</text></g><g class="noselect gnode" struct_name="m" transform="translate(32.69,-40.72)" r="6.5"><circle class="node" r="6" node_type="nucleotide" style="fill: lightgreen;"></circle><text text-anchor="middle" font-size="8" font-weight="bold" y="2.5" class="node-label">A</text></g><g class="noselect gnode" struct_name="m" transform="translate(38.78,-26.20)" r="6.5"><circle class="node" r="6" node_type="nucleotide" style="fill: lightgreen;"></circle><text text-anchor="middle" font-size="8" font-weight="bold" y="2.5" class="node-label">G</text></g><g class="noselect gnode" struct_name="m" transform="translate(45.06,-11.24)" r="6.5"><circle class="node" r="6" node_type="nucleotide" style="fill: lightgreen;"></circle><text text-anchor="middle" font-size="8" font-weight="bold" y="2.5" class="node-label">U</text></g><g class="noselect gnode" struct_name="m" transform="translate(50.70,4.38)" r="6.5"><circle class="node" r="6" node_type="nucleotide" style="fill: lightgreen;"></circle><text text-anchor="middle" font-size="8" font-weight="bold" y="2.5" class="node-label">C</text></g><g class="noselect gnode" struct_name="m" transform="translate(55.15,20.63)" r="6.5"><circle class="node" r="6" node_type="nucleotide" style="fill: lightgreen;"></circle><text text-anchor="middle" font-size="8" font-weight="bold" y="2.5" class="node-label">C</text></g><g class="noselect gnode" struct_name="m" transform="translate(57.90,37.34)" r="6.5"><circle class="node" r="6" node_type="nucleotide" style="fill: lightgreen;"></circle><text text-anchor="middle" font-size="8" font-weight="bold" y="2.5" class="node-label">C</text></g><g class="noselect gnode" struct_name="m" transform="translate(58.82,54.29)" r="6.5"><circle class="node" r="6" node_type="nucleotide" style="fill: lightgreen;"></circle><text text-anchor="middle" font-size="8" font-weight="bold" y="2.5" class="node-label">C</text></g><g class="noselect gnode" struct_name="m" transform="translate(57.88,71.43)" r="6.5"><circle class="node" r="6" node_type="nucleotide" style="fill: lightgreen;"></circle><text text-anchor="middle" font-size="8" font-weight="bold" y="2.5" class="node-label">C</text></g><g class="noselect gnode" struct_name="m" transform="translate(54.86,88.62)" r="6.5"><circle class="node" r="6" node_type="nucleotide" style="fill: lightgreen;"></circle><text text-anchor="middle" font-size="8" font-weight="bold" y="2.5" class="node-label">A</text></g><g class="noselect gnode" struct_name="m" transform="translate(60.13,104.76)" r="6.5"><circle class="node" r="6" node_type="nucleotide" style="fill: lightgreen;"></circle><text text-anchor="middle" font-size="8" font-weight="bold" y="2.5" class="node-label">U</text></g><g class="noselect gnode" struct_name="m" transform="translate(72.77,116.97)" r="6.5"><circle class="node" r="6" node_type="nucleotide" style="fill: lightgreen;"></circle><text text-anchor="middle" font-size="8" font-weight="bold" y="2.5" class="node-label">G</text></g><g class="noselect gnode" struct_name="m" transform="translate(83.64,130.22)" r="6.5"><circle class="node" r="6" node_type="nucleotide" style="fill: lightgreen;"></circle><text text-anchor="middle" font-size="8" font-weight="bold" y="2.5" class="node-label">U</text></g><g class="noselect gnode" struct_name="m" transform="translate(92.99,144.25)" r="6.5"><circle class="node" r="6" node_type="nucleotide" style="fill: lightgreen;"></circle><text text-anchor="middle" font-size="8" font-weight="bold" y="2.5" class="node-label">A</text></g><g class="noselect gnode" struct_name="m" transform="translate(101.03,158.83)" r="6.5"><circle class="node" r="6" node_type="nucleotide" style="fill: lightgreen;"></circle><text text-anchor="middle" font-size="8" font-weight="bold" y="2.5" class="node-label">U</text></g><g class="noselect gnode" struct_name="m" transform="translate(107.94,173.77)" r="6.5"><circle class="node" r="6" node_type="nucleotide" style="fill: lightgreen;"></circle><text text-anchor="middle" font-size="8" font-weight="bold" y="2.5" class="node-label">U</text></g><g class="noselect gnode" struct_name="m" transform="translate(114.04,188.80)" r="6.5"><circle class="node" r="6" node_type="nucleotide" style="fill: lightgreen;"></circle><text text-anchor="middle" font-size="8" font-weight="bold" y="2.5" class="node-label">G</text></g><g class="noselect gnode" struct_name="m" transform="translate(119.79,203.87)" r="6.5"><circle class="node" r="6" node_type="nucleotide" style="fill: lightgreen;"></circle><text text-anchor="middle" font-size="8" font-weight="bold" y="2.5" class="node-label">G</text></g><g class="noselect gnode" struct_name="m" transform="translate(125.53,218.95)" r="6.5"><circle class="node" r="6" node_type="nucleotide" style="fill: lightgreen;"></circle><text text-anchor="middle" font-size="8" font-weight="bold" y="2.5" class="node-label">A</text></g><g class="noselect gnode" struct_name="m" transform="translate(131.49,233.78)" r="6.5"><circle class="node" r="6" node_type="nucleotide" style="fill: lightgreen;"></circle><text text-anchor="middle" font-size="8" font-weight="bold" y="2.5" class="node-label">A</text></g><g class="noselect gnode" struct_name="m" transform="translate(146.88,235.06)" r="6.5"><circle class="node" r="6" node_type="nucleotide" style="fill: lightsalmon;"></circle><text text-anchor="middle" font-size="8" font-weight="bold" y="2.5" class="node-label">U</text></g><g class="noselect gnode" struct_name="m" transform="translate(160.52,241.23)" r="6.5"><circle class="node" r="6" node_type="nucleotide" style="fill: lightsalmon;"></circle><text text-anchor="middle" font-size="8" font-weight="bold" y="2.5" class="node-label">U</text></g><g class="noselect gnode" struct_name="m" transform="translate(170.89,252.25)" r="6.5"><circle class="node" r="6" node_type="nucleotide" style="fill: lightsalmon;"></circle><text text-anchor="middle" font-size="8" font-weight="bold" y="2.5" class="node-label">A</text></g><g class="noselect gnode" struct_name="m" transform="translate(176.00,266.37)" r="6.5"><circle class="node" r="6" node_type="nucleotide" style="fill: lightsalmon;"></circle><text text-anchor="middle" font-size="8" font-weight="bold" y="2.5" class="node-label">U</text></g><g class="noselect gnode" struct_name="m" transform="translate(175.26,281.31)" r="6.5"><circle class="node" r="6" node_type="nucleotide" style="fill: lightsalmon;"></circle><text text-anchor="middle" font-size="8" font-weight="bold" y="2.5" class="node-label">C</text></g><g class="noselect gnode" struct_name="m" transform="translate(168.94,294.90)" r="6.5"><circle class="node" r="6" node_type="nucleotide" style="fill: lightsalmon;"></circle><text text-anchor="middle" font-size="8" font-weight="bold" y="2.5" class="node-label">C</text></g><g class="noselect gnode" struct_name="m" transform="translate(157.73,304.85)" r="6.5"><circle class="node" r="6" node_type="nucleotide" style="fill: lightsalmon;"></circle><text text-anchor="middle" font-size="8" font-weight="bold" y="2.5" class="node-label">U</text></g><g class="noselect gnode" struct_name="m" transform="translate(143.71,309.96)" r="6.5"><circle class="node" r="6" node_type="nucleotide" style="fill: lightsalmon;"></circle><text text-anchor="middle" font-size="8" font-weight="bold" y="2.5" class="node-label">U</text></g><g class="noselect gnode" struct_name="m" transform="translate(128.74,309.80)" r="6.5"><circle class="node" r="6" node_type="nucleotide" style="fill: lightsalmon;"></circle><text text-anchor="middle" font-size="8" font-weight="bold" y="2.5" class="node-label">A</text></g><g class="noselect gnode" struct_name="m" transform="translate(115.11,303.45)" r="6.5"><circle class="node" r="6" node_type="nucleotide" style="fill: lightsalmon;"></circle><text text-anchor="middle" font-size="8" font-weight="bold" y="2.5" class="node-label">U</text></g><g class="noselect gnode" struct_name="m" transform="translate(60.28,149.10)" r="6.5"><circle class="node label" r="6" node_type="label"></circle><text text-anchor="middle" font-size="8" font-weight="bold" y="2.5" class="node-label">10</text></g><g class="noselect gnode" struct_name="m" transform="translate(26.01,28.01)" r="6.5"><circle class="node label" r="6" node_type="label"></circle><text text-anchor="middle" font-size="8" font-weight="bold" y="2.5" class="node-label">20</text></g><g class="noselect gnode" struct_name="m" transform="translate(48.81,-78.24)" r="6.5"><circle class="node label" r="6" node_type="label"></circle><text text-anchor="middle" font-size="8" font-weight="bold" y="2.5" class="node-label">30</text></g><g class="noselect gnode" struct_name="m" transform="translate(69.87,84.63)" r="6.5"><circle class="node label" r="6" node_type="label"></circle><text text-anchor="middle" font-size="8" font-weight="bold" y="2.5" class="node-label">40</text></g><g class="noselect gnode" struct_name="m" transform="translate(143.23,223.65)" r="6.5"><circle class="node label" r="6" node_type="label"></circle><text text-anchor="middle" font-size="8" font-weight="bold" y="2.5" class="node-label">50</text></g><g class="noselect gnode" struct_name="m" transform="translate(104.73,314.88)" r="6.5"><circle class="node label" r="6" node_type="label"></circle><text text-anchor="middle" font-size="8" font-weight="bold" y="2.5" class="node-label">60</text></g><g class="noselect gnode" transform="translate(121.66,229.12)" r="6.5"><circle class="node" r="0" node_type="middle"></circle><text text-anchor="middle" font-size="8" font-weight="bold" y="2.5" class="node-label"></text></g><g class="noselect gnode" transform="translate(115.86,214.01)" r="6.5"><circle class="node" r="0" node_type="middle"></circle><text text-anchor="middle" font-size="8" font-weight="bold" y="2.5" class="node-label"></text></g><g class="noselect gnode" transform="translate(110.13,198.94)" r="6.5"><circle class="node" r="0" node_type="middle"></circle><text text-anchor="middle" font-size="8" font-weight="bold" y="2.5" class="node-label"></text></g><g class="noselect gnode" transform="translate(104.34,184.00)" r="6.5"><circle class="node" r="0" node_type="middle"></circle><text text-anchor="middle" font-size="8" font-weight="bold" y="2.5" class="node-label"></text></g><g class="noselect gnode" transform="translate(98.11,169.28)" r="6.5"><circle class="node" r="0" node_type="middle"></circle><text text-anchor="middle" font-size="8" font-weight="bold" y="2.5" class="node-label"></text></g><g class="noselect gnode" transform="translate(90.96,154.88)" r="6.5"><circle class="node" r="0" node_type="middle"></circle><text text-anchor="middle" font-size="8" font-weight="bold" y="2.5" class="node-label"></text></g><g class="noselect gnode" transform="translate(82.62,141.06)" r="6.5"><circle class="node" r="0" node_type="middle"></circle><text text-anchor="middle" font-size="8" font-weight="bold" y="2.5" class="node-label"></text></g><g class="noselect gnode" transform="translate(73.00,127.92)" r="6.5"><circle class="node" r="0" node_type="middle"></circle><text text-anchor="middle" font-size="8" font-weight="bold" y="2.5" class="node-label"></text></g><g class="noselect gnode" transform="translate(61.98,115.79)" r="6.5"><circle class="node" r="0" node_type="middle"></circle><text text-anchor="middle" font-size="8" font-weight="bold" y="2.5" class="node-label"></text></g><g class="noselect gnode" transform="translate(49.82,78.68)" r="6.5"><circle class="node" r="0" node_type="middle"></circle><text text-anchor="middle" font-size="8" font-weight="bold" y="2.5" class="node-label"></text></g><g class="noselect gnode" transform="translate(51.61,62.44)" r="6.5"><circle class="node" r="0" node_type="middle"></circle><text text-anchor="middle" font-size="8" font-weight="bold" y="2.5" class="node-label"></text></g><g class="noselect gnode" transform="translate(51.60,46.21)" r="6.5"><circle class="node" r="0" node_type="middle"></circle><text text-anchor="middle" font-size="8" font-weight="bold" y="2.5" class="node-label"></text></g><g class="noselect gnode" transform="translate(49.86,30.11)" r="6.5"><circle class="node" r="0" node_type="middle"></circle><text text-anchor="middle" font-size="8" font-weight="bold" y="2.5" class="node-label"></text></g><g class="noselect gnode" transform="translate(46.32,14.29)" r="6.5"><circle class="node" r="0" node_type="middle"></circle><text text-anchor="middle" font-size="8" font-weight="bold" y="2.5" class="node-label"></text></g><g class="noselect gnode" transform="translate(41.30,-1.11)" r="6.5"><circle class="node" r="0" node_type="middle"></circle><text text-anchor="middle" font-size="8" font-weight="bold" y="2.5" class="node-label"></text></g><g class="noselect gnode" transform="translate(35.27,-15.99)" r="6.5"><circle class="node" r="0" node_type="middle"></circle><text text-anchor="middle" font-size="8" font-weight="bold" y="2.5" class="node-label"></text></g><g class="noselect gnode" transform="translate(28.87,-30.64)" r="6.5"><circle class="node" r="0" node_type="middle"></circle><text text-anchor="middle" font-size="8" font-weight="bold" y="2.5" class="node-label"></text></g><g class="noselect gnode" transform="translate(104.91,292.66)" r="6.5"><circle class="node" r="0" node_type="middle"></circle><text text-anchor="middle" font-size="8" font-weight="bold" y="2.5" class="node-label"></text></g><g class="noselect gnode" transform="translate(99.56,278.68)" r="6.5"><circle class="node" r="0" node_type="middle"></circle><text text-anchor="middle" font-size="8" font-weight="bold" y="2.5" class="node-label"></text></g><g class="noselect gnode" transform="translate(137.73,272.06)" r="6.5"><circle class="node" r="0" node_type="middle"></circle><text text-anchor="middle" font-size="8" font-weight="bold" y="2.5" class="node-label"></text></g><g class="noselect gnode" transform="translate(17.70,-57.06)" r="6.5"><circle class="node" r="0" node_type="middle"></circle><text text-anchor="middle" font-size="8" font-weight="bold" y="2.5" class="node-label"></text></g><g class="noselect gnode" transform="translate(42.78,101.50)" r="6.5"><circle class="node" r="0" node_type="middle"></circle><text text-anchor="middle" font-size="8" font-weight="bold" y="2.5" class="node-label"></text></g></g><line class="drag_line" x1="0" y1="0" x2="0" y2="0"></line></g></g></svg>