<svg xmlns="http://www.w3.org/2000/svg" viewBox="0 0 760 640" width="760" height="640"><style>svg {
  display: block;
  min-width: 100%;
  width: 100%;
  min-height: 100%;
}

circle.node {
  stroke: #ccc;
  stroke-width: 1px;
  opacity: 1;
  fill: white;
}

circle.node.label {
    stroke: transparent;
    stroke-width: 0;
    fill: white;
}

circle.outline_node {
    stroke-width: 1px;
    fill: red;
}

circle.protein {
    fill: gray;
    fill-opacity: 0.5;
    stroke-width: 4;
}

circle.hidden_outline {
    stroke-width: 0px;
}


line.link {
  stroke: #999;
  stroke-opacity: 0.8;
  stroke-width: 2;
}

line.basepair {
  stroke: red;
}

line.intermolecule {
  stroke: blue;
}

line.chain_chain {
  stroke-dasharray: 3,3;
}

line.fake {
  stroke: green;
}

.transparent {
    fill: transparent;
    stroke-width: 0;
    stroke-opacity: 0;
    opacity: 0;
    visibility: hidden;
}

.drag_line {
  stroke: #999;
  stroke-width: 2;
  pointer-events: none;
}

.drag_line_hidden {
  stroke: #999;
  stroke-width: 0;
  pointer-events: none;
}

.d3-tip {
    line-height: 1;
    font-weight: bold;
    padding: 6px;
    background: rgba(0, 0, 0, 0.6);
    color: #fff;
    border-radius: 4px;
    pointer-events: none;
          }

text.node-label {
    font-weight: bold;
    font-family: Tahoma, Geneva, sans-serif;
    color: rgb(100,100,100);
    pointer-events: none;
}

text {
    pointer-events: none;
}

g.gnode {

}

circle.outline_node.selected {
    visibility: visible;
}

circle.outline_node {
    visibility: hidden;
}

.brush .extent {
  fill-opacity: .1;
  stroke: #fff;
  shape-rendering: crispEdges;
}

.noselect {
    -webkit-touch-callout: none;
    -webkit-user-select: none;
    -khtml-user-select: none;
    -moz-user-select: none;
    -ms-user-select: none;
    user-select: none;
}

svg {
  display: block;
  min-width: 100%;
  width: 100%;
  min-height: 100%;
}

circle.node {
  stroke: #ccc;
  stroke-width: 1px;
  opacity: 1;
  fill: white;
}

circle.node.label {
    stroke: transparent;
    stroke-width: 0;
    fill: white;
}

circle.outline_node {
    stroke-width: 1px;
    fill: red;
}

circle.protein {
    fill: gray;
    fill-opacity: 0.5;
    stroke-width: 4;
}

circle.hidden_outline {
    stroke-width: 0px;
}


line.link {
  stroke: #999;
  stroke-opacity: 0.8;
  stroke-width: 2;
}

line.basepair {
  stroke: red;
}

line.intermolecule {
  stroke: blue;
}

line.chain_chain {
  stroke-dasharray: 3,3;
}

line.fake {
  stroke: green;
}

.transparent {
    fill: transparent;
    stroke-width: 0;
    stroke-opacity: 0;
    opacity: 0;
    visibility: hidden;
}

.drag_line {
  stroke: #999;
  stroke-width: 2;
  pointer-events: none;
}

.drag_line_hidden {
  stroke: #999;
  stroke-width: 0;
  pointer-events: none;
}

.d3-tip {
    line-height: 1;
    font-weight: bold;
    padding: 6px;
    background: rgba(0, 0, 0, 0.6);
    color: #fff;
    border-radius: 4px;
    pointer-events: none;
          }

text.node-label {
    font-weight: bold;
    font-family: Tahoma, Geneva, sans-serif;
    color: rgb(100,100,100);
    pointer-events: none;
}

text {
    pointer-events: none;
}

g.gnode {

}

circle.outline_node.selected {
    visibility: visible;
}

circle.outline_node {
    visibility: hidden;
}

.brush .extent {
  fill-opacity: .1;
  stroke: #fff;
  shape-rendering: crispEdges;
}

.noselect {
    -webkit-touch-callout: none;
    -webkit-user-select: none;
    -khtml-user-select: none;
    -moz-user-select: none;
    -ms-user-select: none;
    user-select: none;
}
/*# sourceURL=/Users/yumanakamura/ipy_sandbox/sandbox/claude_sandbox/mrna-transformer/scripts/eval/prerender/forna_vendor/fornac.css*/</style><style></style><g><g class="brush" style="pointer-events: all; -webkit-tap-highlight-color: rgba(0, 0, 0, 0);"><rect class="background" x="0" width="760" y="0" height="640" style="visibility: hidden; cursor: auto;"></rect><rect class="extent" x="0" width="0" y="0" height="0" style="cursor: move;"></rect><g class="resize n" transform="translate(0,0)" style="cursor: ns-resize; display: none;"><rect y="-3" width="0" height="6" style="visibility: hidden;"></rect></g><g class="resize e" transform="translate(0,0)" style="cursor: ew-resize; display: none;"><rect x="-3" width="6" height="0" style="visibility: hidden;"></rect></g><g class="resize s" transform="translate(0,0)" style="cursor: ns-resize; display: none;"><rect y="-3" width="0" height="6" style="visibility: hidden;"></rect></g><g class="resize w" transform="translate(0,0)" style="cursor: ew-resize; display: none;"><rect x="-3" width="6" height="0" style="visibility: hidden;"></rect></g><g class="resize nw" transform="translate(0,0)" style="cursor: nwse-resize; display: none;"><rect x="-3" y="-3" width="6" height="6" style="visibility: hidden;"></rect></g><g class="resize ne" transform="translate(0,0)" style="cursor: nesw-resize; display: none;"><rect x="-3" y="-3" width="6" height="6" style="visibility: hidden;"></rect></g><g class="resize se" transform="translate(0,0)" style="cursor: nwse-resize; display: none;"><rect x="-3" y="-3" width="6" height="6" style="visibility: hidden;"></rect></g><g class="resize sw" transform="translate(0,0)" style="cursor: nesw-resize; display: none;"><rect x="-3" y="-3" width="6" height="6" style="visibility: hidden;"></rect></g></g><g transform="translate(321.47,324.17) scale(1.34)"><g><line class="link basepair" x1="11.14" y1="196.20" x2="26.08" y2="197.83"></line><line class="link basepair" x1="12.83" y1="181.00" x2="27.66" y2="182.51"></line><line class="link backbone" x1="11.14" y1="196.20" x2="12.83" y2="181.00"></line><line class="link basepair" x1="14.57" y1="165.46" x2="29.24" y2="167.01"></line><line class="link backbone" x1="12.83" y1="181.00" x2="14.57" y2="165.46"></line><line class="link basepair" x1="16.25" y1="149.77" x2="30.81" y2="151.13"></line><line class="link backbone" x1="14.57" y1="165.46" x2="16.25" y2="149.77"></line><line class="link basepair" x1="17.59" y1="134.03" x2="32.09" y2="134.93"></line><line class="link backbone" x1="16.25" y1="149.77" x2="17.59" y2="134.03"></line><line class="link basepair" x1="18.14" y1="118.31" x2="32.80" y2="118.42"></line><line class="link backbone" x1="17.59" y1="134.03" x2="18.14" y2="118.31"></line><line class="link backbone" x1="18.14" y1="118.31" x2="10.33" y2="105.28"></line><line class="link basepair" x1="17.85" y1="91.91" x2="32.41" y2="91.38"></line><line class="link backbone" x1="10.33" y1="105.28" x2="17.85" y2="91.91"></line><line class="link basepair" x1="16.82" y1="75.99" x2="30.88" y2="74.40"></line><line class="link backbone" x1="17.85" y1="91.91" x2="16.82" y2="75.99"></line><line class="link basepair" x1="14.32" y1="59.95" x2="28.17" y2="57.24"></line><line class="link backbone" x1="16.82" y1="75.99" x2="14.32" y2="59.95"></line><line class="link basepair" x1="10.69" y1="43.89" x2="23.94" y2="40.16"></line><line class="link backbone" x1="14.32" y1="59.95" x2="10.69" y2="43.89"></line><line class="link basepair" x1="3.60" y1="30.81" x2="17.99" y2="21.71"></line><line class="link backbone" x1="10.69" y1="43.89" x2="3.60" y2="30.81"></line><line class="link basepair" x1="-0.63" y1="19.64" x2="3.95" y2="8.22"></line><line class="link backbone" x1="3.60" y1="30.81" x2="-0.63" y2="19.64"></line><line class="link backbone" x1="-0.63" y1="19.64" x2="14.91" y2="32.42"></line><line class="link backbone" x1="14.91" y1="32.42" x2="28.29" y2="29.02"></line><line class="link backbone" x1="28.29" y1="29.02" x2="40.65" y2="18.59"></line><line class="link backbone" x1="40.65" y1="18.59" x2="37.12" y2="3.73"></line><line class="link basepair" x1="25.92" y1="-6.56" x2="12.05" y2="-6.41"></line><line class="link backbone" x1="37.12" y1="3.73" x2="25.92" y2="-6.56"></line><line class="link basepair" x1="13.18" y1="-25.61" x2="25.71" y2="-24.93"></line><line class="link backbone" x1="25.92" y1="-6.56" x2="13.18" y2="-25.61"></line><line class="link basepair" x1="13.97" y1="-42.71" x2="28.50" y2="-40.51"></line><line class="link backbone" x1="13.18" y1="-25.61" x2="13.97" y2="-42.71"></line><line class="link basepair" x1="17.33" y1="-59.10" x2="31.42" y2="-55.65"></line><line class="link backbone" x1="13.97" y1="-42.71" x2="17.33" y2="-59.10"></line><line class="link basepair" x1="21.87" y1="-75.08" x2="35.76" y2="-70.59"></line><line class="link backbone" x1="17.33" y1="-59.10" x2="21.87" y2="-75.08"></line><line class="link basepair" x1="27.33" y1="-90.45" x2="41.00" y2="-85.35"></line><line class="link backbone" x1="21.87" y1="-75.08" x2="27.33" y2="-90.45"></line><line class="link basepair" x1="33.17" y1="-105.55" x2="46.71" y2="-100.32"></line><line class="link backbone" x1="27.33" y1="-90.45" x2="33.17" y2="-105.55"></line><line class="link basepair" x1="38.88" y1="-120.54" x2="52.53" y2="-115.50"></line><line class="link backbone" x1="33.17" y1="-105.55" x2="38.88" y2="-120.54"></line><line class="link basepair" x1="44.20" y1="-135.49" x2="57.96" y2="-130.94"></line><line class="link backbone" x1="38.88" y1="-120.54" x2="44.20" y2="-135.49"></line><line class="link basepair" x1="48.54" y1="-150.43" x2="62.94" y2="-146.48"></line><line class="link backbone" x1="44.20" y1="-135.49" x2="48.54" y2="-150.43"></line><line class="link backbone" x1="48.54" y1="-150.43" x2="37.78" y2="-161.28"></line><line class="link backbone" x1="37.78" y1="-161.28" x2="33.66" y2="-175.68"></line><line class="link backbone" x1="33.66" y1="-175.68" x2="37.17" y2="-190.27"></line><line class="link backbone" x1="37.17" y1="-190.27" x2="47.66" y2="-201.04"></line><line class="link backbone" x1="47.66" y1="-201.04" x2="62.13" y2="-204.77"></line><line class="link backbone" x1="62.13" y1="-204.77" x2="76.64" y2="-201.37"></line><line class="link backbone" x1="76.64" y1="-201.37" x2="87.62" y2="-191.14"></line><line class="link backbone" x1="87.62" y1="-191.14" x2="91.79" y2="-176.71"></line><line class="link backbone" x1="91.79" y1="-176.71" x2="88.01" y2="-162.11"></line><line class="link backbone" x1="88.01" y1="-162.11" x2="77.66" y2="-151.29"></line><line class="link basepair" x1="62.94" y1="-146.48" x2="48.54" y2="-150.43"></line><line class="link backbone" x1="77.66" y1="-151.29" x2="62.94" y2="-146.48"></line><line class="link basepair" x1="57.96" y1="-130.94" x2="44.20" y2="-135.49"></line><line class="link backbone" x1="62.94" y1="-146.48" x2="57.96" y2="-130.94"></line><line class="link basepair" x1="52.53" y1="-115.50" x2="38.88" y2="-120.54"></line><line class="link backbone" x1="57.96" y1="-130.94" x2="52.53" y2="-115.50"></line><line class="link basepair" x1="46.71" y1="-100.32" x2="33.17" y2="-105.55"></line><line class="link backbone" x1="52.53" y1="-115.50" x2="46.71" y2="-100.32"></line><line class="link basepair" x1="41.00" y1="-85.35" x2="27.33" y2="-90.45"></line><line class="link backbone" x1="46.71" y1="-100.32" x2="41.00" y2="-85.35"></line><line class="link basepair" x1="35.76" y1="-70.59" x2="21.87" y2="-75.08"></line><line class="link backbone" x1="41.00" y1="-85.35" x2="35.76" y2="-70.59"></line><line class="link basepair" x1="31.42" y1="-55.65" x2="17.33" y2="-59.10"></line><line class="link backbone" x1="35.76" y1="-70.59" x2="31.42" y2="-55.65"></line><line class="link basepair" x1="28.50" y1="-40.51" x2="13.97" y2="-42.71"></line><line class="link backbone" x1="31.42" y1="-55.65" x2="28.50" y2="-40.51"></line><line class="link basepair" x1="25.71" y1="-24.93" x2="13.18" y2="-25.61"></line><line class="link backbone" x1="28.50" y1="-40.51" x2="25.71" y2="-24.93"></line><line class="link basepair" x1="12.05" y1="-6.41" x2="25.92" y2="-6.56"></line><line class="link backbone" x1="25.71" y1="-24.93" x2="12.05" y2="-6.41"></line><line class="link basepair" x1="3.95" y1="8.22" x2="-0.63" y2="19.64"></line><line class="link backbone" x1="12.05" y1="-6.41" x2="3.95" y2="8.22"></line><line class="link basepair" x1="17.99" y1="21.71" x2="3.60" y2="30.81"></line><line class="link backbone" x1="3.95" y1="8.22" x2="17.99" y2="21.71"></line><line class="link basepair" x1="23.94" y1="40.16" x2="10.69" y2="43.89"></line><line class="link backbone" x1="17.99" y1="21.71" x2="23.94" y2="40.16"></line><line class="link basepair" x1="28.17" y1="57.24" x2="14.32" y2="59.95"></line><line class="link backbone" x1="23.94" y1="40.16" x2="28.17" y2="57.24"></line><line class="link basepair" x1="30.88" y1="74.40" x2="16.82" y2="75.99"></line><line class="link backbone" x1="28.17" y1="57.24" x2="30.88" y2="74.40"></line><line class="link basepair" x1="32.41" y1="91.38" x2="17.85" y2="91.91"></line><line class="link backbone" x1="30.88" y1="74.40" x2="32.41" y2="91.38"></line><line class="link backbone" x1="32.41" y1="91.38" x2="40.45" y2="104.87"></line><line class="link basepair" x1="32.80" y1="118.42" x2="18.14" y2="118.31"></line><line class="link backbone" x1="40.45" y1="104.87" x2="32.80" y2="118.42"></line><line class="link basepair" x1="32.09" y1="134.93" x2="17.59" y2="134.03"></line><line class="link backbone" x1="32.80" y1="118.42" x2="32.09" y2="134.93"></line><line class="link basepair" x1="30.81" y1="151.13" x2="16.25" y2="149.77"></line><line class="link backbone" x1="32.09" y1="134.93" x2="30.81" y2="151.13"></line><line class="link basepair" x1="29.24" y1="167.01" x2="14.57" y2="165.46"></line><line class="link backbone" x1="30.81" y1="151.13" x2="29.24" y2="167.01"></line><line class="link basepair" x1="27.66" y1="182.51" x2="12.83" y2="181.00"></line><line class="link backbone" x1="29.24" y1="167.01" x2="27.66" y2="182.51"></line><line class="link basepair" x1="26.08" y1="197.83" x2="11.14" y2="196.20"></line><line class="link backbone" x1="27.66" y1="182.51" x2="26.08" y2="197.83"></line><line class="link label_link" x1="14.32" y1="59.95" x2="-0.24" y2="65.62"></line><line class="link label_link" x1="13.97" y1="-42.71" x2="-1.57" y2="-44.81"></line><line class="link label_link" x1="37.17" y1="-190.27" x2="23.59" y2="-197.64"></line><line class="link label_link" x1="52.53" y1="-115.50" x2="67.52" y2="-111.07"></line><line class="link label_link" x1="23.94" y1="40.16" x2="39.66" y2="40.77"></line><line class="link label_link" x1="26.08" y1="197.83" x2="34.55" y2="210.74"></line><line class="link fake transparent" x1="17.85" y1="91.91" x2="24.83" y2="83.43"></line><line class="link fake transparent" x1="17.85" y1="91.91" x2="30.88" y2="74.40"></line><line class="link fake transparent" x1="16.82" y1="75.99" x2="24.83" y2="83.43"></line><line class="link fake transparent" x1="30.88" y1="74.40" x2="24.83" y2="83.43"></line><line class="link fake transparent" x1="32.41" y1="91.38" x2="24.83" y2="83.43"></line><line class="link fake transparent" x1="16.82" y1="75.99" x2="22.89" y2="66.91"></line><line class="link fake transparent" x1="14.32" y1="59.95" x2="22.89" y2="66.91"></line><line class="link fake transparent" x1="28.17" y1="57.24" x2="22.89" y2="66.91"></line><line class="link fake transparent" x1="30.88" y1="74.40" x2="22.89" y2="66.91"></line><line class="link fake transparent" x1="14.32" y1="59.95" x2="19.59" y2="50.38"></line><line class="link fake transparent" x1="10.69" y1="43.89" x2="19.59" y2="50.38"></line><line class="link fake transparent" x1="23.94" y1="40.16" x2="19.59" y2="50.38"></line><line class="link fake transparent" x1="28.17" y1="57.24" x2="19.59" y2="50.38"></line><line class="link fake transparent" x1="10.69" y1="43.89" x2="14.84" y2="34.20"></line><line class="link fake transparent" x1="3.60" y1="30.81" x2="14.84" y2="34.20"></line><line class="link fake transparent" x1="17.99" y1="21.71" x2="14.84" y2="34.20"></line><line class="link fake transparent" x1="23.94" y1="40.16" x2="14.84" y2="34.20"></line><line class="link fake transparent" x1="3.60" y1="30.81" x2="5.35" y2="22.18"></line><line class="link fake transparent" x1="-0.63" y1="19.64" x2="5.35" y2="22.18"></line><line class="link fake transparent" x1="3.95" y1="8.22" x2="5.35" y2="22.18"></line><line class="link fake transparent" x1="17.99" y1="21.71" x2="5.35" y2="22.18"></line><line class="link fake transparent" x1="25.92" y1="-6.56" x2="19.06" y2="-15.82"></line><line class="link fake transparent" x1="13.18" y1="-25.61" x2="19.06" y2="-15.82"></line><line class="link fake transparent" x1="25.71" y1="-24.93" x2="19.06" y2="-15.82"></line><line class="link fake transparent" x1="12.05" y1="-6.41" x2="19.06" y2="-15.82"></line><line class="link fake transparent" x1="13.18" y1="-25.61" x2="19.97" y2="-33.42"></line><line class="link fake transparent" x1="13.97" y1="-42.71" x2="19.97" y2="-33.42"></line><line class="link fake transparent" x1="28.50" y1="-40.51" x2="19.97" y2="-33.42"></line><line class="link fake transparent" x1="25.71" y1="-24.93" x2="19.97" y2="-33.42"></line><line class="link fake transparent" x1="13.97" y1="-42.71" x2="22.43" y2="-49.50"></line><line class="link fake transparent" x1="17.33" y1="-59.10" x2="22.43" y2="-49.50"></line><line class="link fake transparent" x1="31.42" y1="-55.65" x2="22.43" y2="-49.50"></line><line class="link fake transparent" x1="28.50" y1="-40.51" x2="22.43" y2="-49.50"></line><line class="link fake transparent" x1="17.33" y1="-59.10" x2="26.28" y2="-65.20"></line><line class="link fake transparent" x1="21.87" y1="-75.08" x2="26.28" y2="-65.20"></line><line class="link fake transparent" x1="35.76" y1="-70.59" x2="26.28" y2="-65.20"></line><line class="link fake transparent" x1="31.42" y1="-55.65" x2="26.28" y2="-65.20"></line><line class="link fake transparent" x1="21.87" y1="-75.08" x2="31.31" y2="-80.39"></line><line class="link fake transparent" x1="27.33" y1="-90.45" x2="31.31" y2="-80.39"></line><line class="link fake transparent" x1="41.00" y1="-85.35" x2="31.31" y2="-80.39"></line><line class="link fake transparent" x1="35.76" y1="-70.59" x2="31.31" y2="-80.39"></line><line class="link fake transparent" x1="27.33" y1="-90.45" x2="37.00" y2="-95.41"></line><line class="link fake transparent" x1="33.17" y1="-105.55" x2="37.00" y2="-95.41"></line><line class="link fake transparent" x1="46.71" y1="-100.32" x2="37.00" y2="-95.41"></line><line class="link fake transparent" x1="41.00" y1="-85.35" x2="37.00" y2="-95.41"></line><line class="link fake transparent" x1="33.17" y1="-105.55" x2="42.88" y2="-110.46"></line><line class="link fake transparent" x1="38.88" y1="-120.54" x2="42.88" y2="-110.46"></line><line class="link fake transparent" x1="52.53" y1="-115.50" x2="42.88" y2="-110.46"></line><line class="link fake transparent" x1="46.71" y1="-100.32" x2="42.88" y2="-110.46"></line><line class="link fake transparent" x1="38.88" y1="-120.54" x2="48.53" y2="-125.60"></line><line class="link fake transparent" x1="44.20" y1="-135.49" x2="48.53" y2="-125.60"></line><line class="link fake transparent" x1="57.96" y1="-130.94" x2="48.53" y2="-125.60"></line><line class="link fake transparent" x1="52.53" y1="-115.50" x2="48.53" y2="-125.60"></line><line class="link fake transparent" x1="44.20" y1="-135.49" x2="53.64" y2="-140.88"></line><line class="link fake transparent" x1="48.54" y1="-150.43" x2="53.64" y2="-140.88"></line><line class="link fake transparent" x1="62.94" y1="-146.48" x2="53.64" y2="-140.88"></line><line class="link fake transparent" x1="57.96" y1="-130.94" x2="53.64" y2="-140.88"></line><line class="link fake transparent" x1="11.14" y1="196.20" x2="19.44" y2="189.46"></line><line class="link fake transparent" x1="12.83" y1="181.00" x2="19.44" y2="189.46"></line><line class="link fake transparent" x1="27.66" y1="182.51" x2="19.44" y2="189.46"></line><line class="link fake transparent" x1="26.08" y1="197.83" x2="19.44" y2="189.46"></line><line class="link fake transparent" x1="12.83" y1="181.00" x2="21.05" y2="174.08"></line><line class="link fake transparent" x1="14.57" y1="165.46" x2="21.05" y2="174.08"></line><line class="link fake transparent" x1="29.24" y1="167.01" x2="21.05" y2="174.08"></line><line class="link fake transparent" x1="27.66" y1="182.51" x2="21.05" y2="174.08"></line><line class="link fake transparent" x1="14.57" y1="165.46" x2="22.76" y2="158.40"></line><line class="link fake transparent" x1="16.25" y1="149.77" x2="22.76" y2="158.40"></line><line class="link fake transparent" x1="30.81" y1="151.13" x2="22.76" y2="158.40"></line><line class="link fake transparent" x1="29.24" y1="167.01" x2="22.76" y2="158.40"></line><line class="link fake transparent" x1="16.25" y1="149.77" x2="24.30" y2="142.51"></line><line class="link fake transparent" x1="17.59" y1="134.03" x2="24.30" y2="142.51"></line><line class="link fake transparent" x1="32.09" y1="134.93" x2="24.30" y2="142.51"></line><line class="link fake transparent" x1="30.81" y1="151.13" x2="24.30" y2="142.51"></line><line class="link fake transparent" x1="17.59" y1="134.03" x2="25.37" y2="126.48"></line><line class="link fake transparent" x1="18.14" y1="118.31" x2="25.37" y2="126.48"></line><line class="link fake transparent" x1="32.80" y1="118.42" x2="25.37" y2="126.48"></line><line class="link fake transparent" x1="32.09" y1="134.93" x2="25.37" y2="126.48"></line><line class="link fake transparent" x1="48.54" y1="-150.43" x2="62.64" y2="-175.89"></line><line class="link fake transparent" x1="48.54" y1="-150.43" x2="76.64" y2="-201.37"></line><line class="link fake transparent" x1="37.78" y1="-161.28" x2="62.64" y2="-175.89"></line><line class="link fake transparent" x1="37.78" y1="-161.28" x2="87.62" y2="-191.14"></line><line class="link fake transparent" x1="33.66" y1="-175.68" x2="62.64" y2="-175.89"></line><line class="link fake transparent" x1="33.66" y1="-175.68" x2="91.79" y2="-176.71"></line><line class="link fake transparent" x1="37.17" y1="-190.27" x2="62.64" y2="-175.89"></line><line class="link fake transparent" x1="37.17" y1="-190.27" x2="88.01" y2="-162.11"></line><line class="link fake transparent" x1="47.66" y1="-201.04" x2="62.64" y2="-175.89"></line><line class="link fake transparent" x1="47.66" y1="-201.04" x2="77.66" y2="-151.29"></line><line class="link fake transparent" x1="62.13" y1="-204.77" x2="62.64" y2="-175.89"></line><line class="link fake transparent" x1="62.13" y1="-204.77" x2="62.94" y2="-146.48"></line><line class="link fake transparent" x1="76.64" y1="-201.37" x2="62.64" y2="-175.89"></line><line class="link fake transparent" x1="76.64" y1="-201.37" x2="48.54" y2="-150.43"></line><line class="link fake transparent" x1="87.62" y1="-191.14" x2="62.64" y2="-175.89"></line><line class="link fake transparent" x1="87.62" y1="-191.14" x2="37.78" y2="-161.28"></line><line class="link fake transparent" x1="91.79" y1="-176.71" x2="62.64" y2="-175.89"></line><line class="link fake transparent" x1="91.79" y1="-176.71" x2="33.66" y2="-175.68"></line><line class="link fake transparent" x1="88.01" y1="-162.11" x2="62.64" y2="-175.89"></line><line class="link fake transparent" x1="88.01" y1="-162.11" x2="37.17" y2="-190.27"></line><line class="link fake transparent" x1="77.66" y1="-151.29" x2="62.64" y2="-175.89"></line><line class="link fake transparent" x1="77.66" y1="-151.29" x2="47.66" y2="-201.04"></line><line class="link fake transparent" x1="62.94" y1="-146.48" x2="62.64" y2="-175.89"></line><line class="link fake transparent" x1="62.94" y1="-146.48" x2="62.13" y2="-204.77"></line><line class="link fake transparent" x1="-0.63" y1="19.64" x2="21.48" y2="11.45"></line><line class="link fake transparent" x1="-0.63" y1="19.64" x2="37.12" y2="3.73"></line><line class="link fake transparent" x1="14.91" y1="32.42" x2="21.48" y2="11.45"></line><line class="link fake transparent" x1="14.91" y1="32.42" x2="25.92" y2="-6.56"></line><line class="link fake transparent" x1="28.29" y1="29.02" x2="21.48" y2="11.45"></line><line class="link fake transparent" x1="28.29" y1="29.02" x2="12.05" y2="-6.41"></line><line class="link fake transparent" x1="40.65" y1="18.59" x2="21.48" y2="11.45"></line><line class="link fake transparent" x1="40.65" y1="18.59" x2="3.95" y2="8.22"></line><line class="link fake transparent" x1="37.12" y1="3.73" x2="21.48" y2="11.45"></line><line class="link fake transparent" x1="37.12" y1="3.73" x2="-0.63" y2="19.64"></line><line class="link fake transparent" x1="25.92" y1="-6.56" x2="21.48" y2="11.45"></line><line class="link fake transparent" x1="25.92" y1="-6.56" x2="14.91" y2="32.42"></line><line class="link fake transparent" x1="12.05" y1="-6.41" x2="21.48" y2="11.45"></line><line class="link fake transparent" x1="12.05" y1="-6.41" x2="28.29" y2="29.02"></line><line class="link fake transparent" x1="3.95" y1="8.22" x2="21.48" y2="11.45"></line><line class="link fake transparent" x1="3.95" y1="8.22" x2="40.65" y2="18.59"></line><line class="link fake transparent" x1="18.14" y1="118.31" x2="25.50" y2="105.03"></line><line class="link fake transparent" x1="18.14" y1="118.31" x2="32.41" y2="91.38"></line><line class="link fake transparent" x1="10.33" y1="105.28" x2="25.50" y2="105.03"></line><line class="link fake transparent" x1="10.33" y1="105.28" x2="40.45" y2="104.87"></line><line class="link fake transparent" x1="17.85" y1="91.91" x2="25.50" y2="105.03"></line><line class="link fake transparent" x1="17.85" y1="91.91" x2="32.80" y2="118.42"></line><line class="link fake transparent" x1="32.41" y1="91.38" x2="25.50" y2="105.03"></line><line class="link fake transparent" x1="32.41" y1="91.38" x2="18.14" y2="118.31"></line><line class="link fake transparent" x1="40.45" y1="104.87" x2="25.50" y2="105.03"></line><line class="link fake transparent" x1="40.45" y1="104.87" x2="10.33" y2="105.28"></line><line class="link fake transparent" x1="32.80" y1="118.42" x2="25.50" y2="105.03"></line><line class="link fake transparent" x1="32.80" y1="118.42" x2="17.85" y2="91.91"></line></g><g><g class="noselect gnode" struct_name="m" transform="translate(11.14,196.20)" r="6.5"><circle class="node" r="6" node_type="nucleotide" style="fill: lightgreen;"></circle><text text-anchor="middle" font-size="8" font-weight="bold" y="2.5" class="node-label">G</text></g><g class="noselect gnode" struct_name="m" transform="translate(12.83,181.00)" r="6.5"><circle class="node" r="6" node_type="nucleotide" style="fill: lightgreen;"></circle><text text-anchor="middle" font-size="8" font-weight="bold" y="2.5" class="node-label">G</text></g><g class="noselect gnode" struct_name="m" transform="translate(14.57,165.46)" r="6.5"><circle class="node" r="6" node_type="nucleotide" style="fill: lightgreen;"></circle><text text-anchor="middle" font-size="8" font-weight="bold" y="2.5" class="node-label">U</text></g><g class="noselect gnode" struct_name="m" transform="translate(16.25,149.77)" r="6.5"><circle class="node" r="6" node_type="nucleotide" style="fill: lightgreen;"></circle><text text-anchor="middle" font-size="8" font-weight="bold" y="2.5" class="node-label">A</text></g><g class="noselect gnode" struct_name="m" transform="translate(17.59,134.03)" r="6.5"><circle class="node" r="6" node_type="nucleotide" style="fill: lightgreen;"></circle><text text-anchor="middle" font-size="8" font-weight="bold" y="2.5" class="node-label">C</text></g><g class="noselect gnode" struct_name="m" transform="translate(18.14,118.31)" r="6.5"><circle class="node" r="6" node_type="nucleotide" style="fill: lightgreen;"></circle><text text-anchor="middle" font-size="8" font-weight="bold" y="2.5" class="node-label">G</text></g><g class="noselect gnode" struct_name="m" transform="translate(10.33,105.28)" r="6.5"><circle class="node" r="6" node_type="nucleotide" style="fill: rgb(219, 219, 141);"></circle><text text-anchor="middle" font-size="8" font-weight="bold" y="2.5" class="node-label">A</text></g><g class="noselect gnode" struct_name="m" transform="translate(17.85,91.91)" r="6.5"><circle class="node" r="6" node_type="nucleotide" style="fill: lightgreen;"></circle><text text-anchor="middle" font-size="8" font-weight="bold" y="2.5" class="node-label">A</text></g><g class="noselect gnode" struct_name="m" transform="translate(16.82,75.99)" r="6.5"><circle class="node" r="6" node_type="nucleotide" style="fill: lightgreen;"></circle><text text-anchor="middle" font-size="8" font-weight="bold" y="2.5" class="node-label">U</text></g><g class="noselect gnode" struct_name="m" transform="translate(14.32,59.95)" r="6.5"><circle class="node" r="6" node_type="nucleotide" style="fill: lightgreen;"></circle><text text-anchor="middle" font-size="8" font-weight="bold" y="2.5" class="node-label">G</text></g><g class="noselect gnode" struct_name="m" transform="translate(10.69,43.89)" r="6.5"><circle class="node" r="6" node_type="nucleotide" style="fill: lightgreen;"></circle><text text-anchor="middle" font-size="8" font-weight="bold" y="2.5" class="node-label">G</text></g><g class="noselect gnode" struct_name="m" transform="translate(3.60,30.81)" r="6.5"><circle class="node" r="6" node_type="nucleotide" style="fill: lightgreen;"></circle><text text-anchor="middle" font-size="8" font-weight="bold" y="2.5" class="node-label">G</text></g><g class="noselect gnode" struct_name="m" transform="translate(-0.63,19.64)" r="6.5"><circle class="node" r="6" node_type="nucleotide" style="fill: lightgreen;"></circle><text text-anchor="middle" font-size="8" font-weight="bold" y="2.5" class="node-label">C</text></g><g class="noselect gnode" struct_name="m" transform="translate(14.91,32.42)" r="6.5"><circle class="node" r="6" node_type="nucleotide" style="fill: rgb(219, 219, 141);"></circle><text text-anchor="middle" font-size="8" font-weight="bold" y="2.5" class="node-label">A</text></g><g class="noselect gnode" struct_name="m" transform="translate(28.29,29.02)" r="6.5"><circle class="node" r="6" node_type="nucleotide" style="fill: rgb(219, 219, 141);"></circle><text text-anchor="middle" font-size="8" font-weight="bold" y="2.5" class="node-label">A</text></g><g class="noselect gnode" struct_name="m" transform="translate(40.65,18.59)" r="6.5"><circle class="node" r="6" node_type="nucleotide" style="fill: rgb(219, 219, 141);"></circle><text text-anchor="middle" font-size="8" font-weight="bold" y="2.5" class="node-label">G</text></g><g class="noselect gnode" struct_name="m" transform="translate(37.12,3.73)" r="6.5"><circle class="node" r="6" node_type="nucleotide" style="fill: rgb(219, 219, 141);"></circle><text text-anchor="middle" font-size="8" font-weight="bold" y="2.5" class="node-label">A</text></g><g class="noselect gnode" struct_name="m" transform="translate(25.92,-6.56)" r="6.5"><circle class="node" r="6" node_type="nucleotide" style="fill: lightgreen;"></circle><text text-anchor="middle" font-size="8" font-weight="bold" y="2.5" class="node-label">C</text></g><g class="noselect gnode" struct_name="m" transform="translate(13.18,-25.61)" r="6.5"><circle class="node" r="6" node_type="nucleotide" style="fill: lightgreen;"></circle><text text-anchor="middle" font-size="8" font-weight="bold" y="2.5" class="node-label">U</text></g><g class="noselect gnode" struct_name="m" transform="translate(13.97,-42.71)" r="6.5"><circle class="node" r="6" node_type="nucleotide" style="fill: lightgreen;"></circle><text text-anchor="middle" font-size="8" font-weight="bold" y="2.5" class="node-label">C</text></g><g class="noselect gnode" struct_name="m" transform="translate(17.33,-59.10)" r="6.5"><circle class="node" r="6" node_type="nucleotide" style="fill: lightgreen;"></circle><text text-anchor="middle" font-size="8" font-weight="bold" y="2.5" class="node-label">C</text></g><g class="noselect gnode" struct_name="m" transform="translate(21.87,-75.08)" r="6.5"><circle class="node" r="6" node_type="nucleotide" style="fill: lightgreen;"></circle><text text-anchor="middle" font-size="8" font-weight="bold" y="2.5" class="node-label">G</text></g><g class="noselect gnode" struct_name="m" transform="translate(27.33,-90.45)" r="6.5"><circle class="node" r="6" node_type="nucleotide" style="fill: lightgreen;"></circle><text text-anchor="middle" font-size="8" font-weight="bold" y="2.5" class="node-label">U</text></g><g class="noselect gnode" struct_name="m" transform="translate(33.17,-105.55)" r="6.5"><circle class="node" r="6" node_type="nucleotide" style="fill: lightgreen;"></circle><text text-anchor="middle" font-size="8" font-weight="bold" y="2.5" class="node-label">A</text></g><g class="noselect gnode" struct_name="m" transform="translate(38.88,-120.54)" r="6.5"><circle class="node" r="6" node_type="nucleotide" style="fill: lightgreen;"></circle><text text-anchor="middle" font-size="8" font-weight="bold" y="2.5" class="node-label">C</text></g><g class="noselect gnode" struct_name="m" transform="translate(44.20,-135.49)" r="6.5"><circle class="node" r="6" node_type="nucleotide" style="fill: lightgreen;"></circle><text text-anchor="middle" font-size="8" font-weight="bold" y="2.5" class="node-label">A</text></g><g class="noselect gnode" struct_name="m" transform="translate(48.54,-150.43)" r="6.5"><circle class="node" r="6" node_type="nucleotide" style="fill: lightgreen;"></circle><text text-anchor="middle" font-size="8" font-weight="bold" y="2.5" class="node-label">U</text></g><g class="noselect gnode" struct_name="m" transform="translate(37.78,-161.28)" r="6.5"><circle class="node" r="6" node_type="nucleotide" style="fill: lightblue;"></circle><text text-anchor="middle" font-size="8" font-weight="bold" y="2.5" class="node-label">C</text></g><g class="noselect gnode" struct_name="m" transform="translate(33.66,-175.68)" r="6.5"><circle class="node" r="6" node_type="nucleotide" style="fill: lightblue;"></circle><text text-anchor="middle" font-size="8" font-weight="bold" y="2.5" class="node-label">A</text></g><g class="noselect gnode" struct_name="m" transform="translate(37.17,-190.27)" r="6.5"><circle class="node" r="6" node_type="nucleotide" style="fill: lightblue;"></circle><text text-anchor="middle" font-size="8" font-weight="bold" y="2.5" class="node-label">U</text></g><g class="noselect gnode" struct_name="m" transform="translate(47.66,-201.04)" r="6.5"><circle class="node" r="6" node_type="nucleotide" style="fill: lightblue;"></circle><text text-anchor="middle" font-size="8" font-weight="bold" y="2.5" class="node-label">C</text></g><g class="noselect gnode" struct_name="m" transform="translate(62.13,-204.77)" r="6.5"><circle class="node" r="6" node_type="nucleotide" style="fill: lightblue;"></circle><text text-anchor="middle" font-size="8" font-weight="bold" y="2.5" class="node-label">C</text></g><g class="noselect gnode" struct_name="m" transform="translate(76.64,-201.37)" r="6.5"><circle class="node" r="6" node_type="nucleotide" style="fill: lightblue;"></circle><text text-anchor="middle" font-size="8" font-weight="bold" y="2.5" class="node-label">U</text></g><g class="noselect gnode" struct_name="m" transform="translate(87.62,-191.14)" r="6.5"><circle class="node" r="6" node_type="nucleotide" style="fill: lightblue;"></circle><text text-anchor="middle" font-size="8" font-weight="bold" y="2.5" class="node-label">U</text></g><g class="noselect gnode" struct_name="m" transform="translate(91.79,-176.71)" r="6.5"><circle class="node" r="6" node_type="nucleotide" style="fill: lightblue;"></circle><text text-anchor="middle" font-size="8" font-weight="bold" y="2.5" class="node-label">A</text></g><g class="noselect gnode" struct_name="m" transform="translate(88.01,-162.11)" r="6.5"><circle class="node" r="6" node_type="nucleotide" style="fill: lightblue;"></circle><text text-anchor="middle" font-size="8" font-weight="bold" y="2.5" class="node-label">U</text></g><g class="noselect gnode" struct_name="m" transform="translate(77.66,-151.29)" r="6.5"><circle class="node" r="6" node_type="nucleotide" style="fill: lightblue;"></circle><text text-anchor="middle" font-size="8" font-weight="bold" y="2.5" class="node-label">A</text></g><g class="noselect gnode" struct_name="m" transform="translate(62.94,-146.48)" r="6.5"><circle class="node" r="6" node_type="nucleotide" style="fill: lightgreen;"></circle><text text-anchor="middle" font-size="8" font-weight="bold" y="2.5" class="node-label">A</text></g><g class="noselect gnode" struct_name="m" transform="translate(57.96,-130.94)" r="6.5"><circle class="node" r="6" node_type="nucleotide" style="fill: lightgreen;"></circle><text text-anchor="middle" font-size="8" font-weight="bold" y="2.5" class="node-label">U</text></g><g class="noselect gnode" struct_name="m" transform="translate(52.53,-115.50)" r="6.5"><circle class="node" r="6" node_type="nucleotide" style="fill: lightgreen;"></circle><text text-anchor="middle" font-size="8" font-weight="bold" y="2.5" class="node-label">G</text></g><g class="noselect gnode" struct_name="m" transform="translate(46.71,-100.32)" r="6.5"><circle class="node" r="6" node_type="nucleotide" style="fill: lightgreen;"></circle><text text-anchor="middle" font-size="8" font-weight="bold" y="2.5" class="node-label">U</text></g><g class="noselect gnode" struct_name="m" transform="translate(41.00,-85.35)" r="6.5"><circle class="node" r="6" node_type="nucleotide" style="fill: lightgreen;"></circle><text text-anchor="middle" font-size="8" font-weight="bold" y="2.5" class="node-label">A</text></g><g class="noselect gnode" struct_name="m" transform="translate(35.76,-70.59)" r="6.5"><circle class="node" r="6" node_type="nucleotide" style="fill: lightgreen;"></circle><text text-anchor="middle" font-size="8" font-weight="bold" y="2.5" class="node-label">U</text></g><g class="noselect gnode" struct_name="m" transform="translate(31.42,-55.65)" r="6.5"><circle class="node" r="6" node_type="nucleotide" style="fill: lightgreen;"></circle><text text-anchor="middle" font-size="8" font-weight="bold" y="2.5" class="node-label">G</text></g><g class="noselect gnode" struct_name="m" transform="translate(28.50,-40.51)" r="6.5"><circle class="node" r="6" node_type="nucleotide" style="fill: lightgreen;"></circle><text text-anchor="middle" font-size="8" font-weight="bold" y="2.5" class="node-label">G</text></g><g class="noselect gnode" struct_name="m" transform="translate(25.71,-24.93)" r="6.5"><circle class="node" r="6" node_type="nucleotide" style="fill: lightgreen;"></circle><text text-anchor="middle" font-size="8" font-weight="bold" y="2.5" class="node-label">A</text></g><g class="noselect gnode" struct_name="m" transform="translate(12.05,-6.41)" r="6.5"><circle class="node" r="6" node_type="nucleotide" style="fill: lightgreen;"></circle><text text-anchor="middle" font-size="8" font-weight="bold" y="2.5" class="node-label">G</text></g><g class="noselect gnode" struct_name="m" transform="translate(3.95,8.22)" r="6.5"><circle class="node" r="6" node_type="nucleotide" style="fill: lightgreen;"></circle><text text-anchor="middle" font-size="8" font-weight="bold" y="2.5" class="node-label">G</text></g><g class="noselect gnode" struct_name="m" transform="translate(17.99,21.71)" r="6.5"><circle class="node" r="6" node_type="nucleotide" style="fill: lightgreen;"></circle><text text-anchor="middle" font-size="8" font-weight="bold" y="2.5" class="node-label">C</text></g><g class="noselect gnode" struct_name="m" transform="translate(23.94,40.16)" r="6.5"><circle class="node" r="6" node_type="nucleotide" style="fill: lightgreen;"></circle><text text-anchor="middle" font-size="8" font-weight="bold" y="2.5" class="node-label">U</text></g><g class="noselect gnode" struct_name="m" transform="translate(28.17,57.24)" r="6.5"><circle class="node" r="6" node_type="nucleotide" style="fill: lightgreen;"></circle><text text-anchor="middle" font-size="8" font-weight="bold" y="2.5" class="node-label">C</text></g><g class="noselect gnode" struct_name="m" transform="translate(30.88,74.40)" r="6.5"><circle class="node" r="6" node_type="nucleotide" style="fill: lightgreen;"></circle><text text-anchor="middle" font-size="8" font-weight="bold" y="2.5" class="node-label">A</text></g><g class="noselect gnode" struct_name="m" transform="translate(32.41,91.38)" r="6.5"><circle class="node" r="6" node_type="nucleotide" style="fill: lightgreen;"></circle><text text-anchor="middle" font-size="8" font-weight="bold" y="2.5" class="node-label">U</text></g><g class="noselect gnode" struct_name="m" transform="translate(40.45,104.87)" r="6.5"><circle class="node" r="6" node_type="nucleotide" style="fill: rgb(219, 219, 141);"></circle><text text-anchor="middle" font-size="8" font-weight="bold" y="2.5" class="node-label">G</text></g><g class="noselect gnode" struct_name="m" transform="translate(32.80,118.42)" r="6.5"><circle class="node" r="6" node_type="nucleotide" style="fill: lightgreen;"></circle><text text-anchor="middle" font-size="8" font-weight="bold" y="2.5" class="node-label">C</text></g><g class="noselect gnode" struct_name="m" transform="translate(32.09,134.93)" r="6.5"><circle class="node" r="6" node_type="nucleotide" style="fill: lightgreen;"></circle><text text-anchor="middle" font-size="8" font-weight="bold" y="2.5" class="node-label">G</text></g><g class="noselect gnode" struct_name="m" transform="translate(30.81,151.13)" r="6.5"><circle class="node" r="6" node_type="nucleotide" style="fill: lightgreen;"></circle><text text-anchor="middle" font-size="8" font-weight="bold" y="2.5" class="node-label">U</text></g><g class="noselect gnode" struct_name="m" transform="translate(29.24,167.01)" r="6.5"><circle class="node" r="6" node_type="nucleotide" style="fill: lightgreen;"></circle><text text-anchor="middle" font-size="8" font-weight="bold" y="2.5" class="node-label">A</text></g><g class="noselect gnode" struct_name="m" transform="translate(27.66,182.51)" r="6.5"><circle class="node" r="6" node_type="nucleotide" style="fill: lightgreen;"></circle><text text-anchor="middle" font-size="8" font-weight="bold" y="2.5" class="node-label">C</text></g><g class="noselect gnode" struct_name="m" transform="translate(26.08,197.83)" r="6.5"><circle class="node" r="6" node_type="nucleotide" style="fill: lightgreen;"></circle><text text-anchor="middle" font-size="8" font-weight="bold" y="2.5" class="node-label">C</text></g><g class="noselect gnode" struct_name="m" transform="translate(-0.24,65.62)" r="6.5"><circle class="node label" r="6" node_type="label"></circle><text text-anchor="middle" font-size="8" font-weight="bold" y="2.5" class="node-label">10</text></g><g class="noselect gnode" struct_name="m" transform="translate(-1.57,-44.81)" r="6.5"><circle class="node label" r="6" node_type="label"></circle><text text-anchor="middle" font-size="8" font-weight="bold" y="2.5" class="node-label">20</text></g><g class="noselect gnode" struct_name="m" transform="translate(23.59,-197.64)" r="6.5"><circle class="node label" r="6" node_type="label"></circle><text text-anchor="middle" font-size="8" font-weight="bold" y="2.5" class="node-label">30</text></g><g class="noselect gnode" struct_name="m" transform="translate(67.52,-111.07)" r="6.5"><circle class="node label" r="6" node_type="label"></circle><text text-anchor="middle" font-size="8" font-weight="bold" y="2.5" class="node-label">40</text></g><g class="noselect gnode" struct_name="m" transform="translate(39.66,40.77)" r="6.5"><circle class="node label" r="6" node_type="label"></circle><text text-anchor="middle" font-size="8" font-weight="bold" y="2.5" class="node-label">50</text></g><g class="noselect gnode" struct_name="m" transform="translate(34.55,210.74)" r="6.5"><circle class="node label" r="6" node_type="label"></circle><text text-anchor="middle" font-size="8" font-weight="bold" y="2.5" class="node-label">60</text></g><g class="noselect gnode" transform="translate(24.83,83.43)" r="6.5"><circle class="node" r="0" node_type="middle"></circle><text text-anchor="middle" font-size="8" font-weight="bold" y="2.5" class="node-label"></text></g><g class="noselect gnode" transform="translate(22.89,66.91)" r="6.5"><circle class="node" r="0" node_type="middle"></circle><text text-anchor="middle" font-size="8" font-weight="bold" y="2.5" class="node-label"></text></g><g class="noselect gnode" transform="translate(19.59,50.38)" r="6.5"><circle class="node" r="0" node_type="middle"></circle><text text-anchor="middle" font-size="8" font-weight="bold" y="2.5" class="node-label"></text></g><g class="noselect gnode" transform="translate(14.84,34.20)" r="6.5"><circle class="node" r="0" node_type="middle"></circle><text text-anchor="middle" font-size="8" font-weight="bold" y="2.5" class="node-label"></text></g><g class="noselect gnode" transform="translate(5.35,22.18)" r="6.5"><circle class="node" r="0" node_type="middle"></circle><text text-anchor="middle" font-size="8" font-weight="bold" y="2.5" class="node-label"></text></g><g class="noselect gnode" transform="translate(19.06,-15.82)" r="6.5"><circle class="node" r="0" node_type="middle"></circle><text text-anchor="middle" font-size="8" font-weight="bold" y="2.5" class="node-label"></text></g><g class="noselect gnode" transform="translate(19.97,-33.42)" r="6.5"><circle class="node" r="0" node_type="middle"></circle><text text-anchor="middle" font-size="8" font-weight="bold" y="2.5" class="node-label"></text></g><g class="noselect gnode" transform="translate(22.43,-49.50)" r="6.5"><circle class="node" r="0" node_type="middle"></circle><text text-anchor="middle" font-size="8" font-weight="bold" y="2.5" class="node-label"></text></g><g class="noselect gnode" transform="translate(26.28,-65.20)" r="6.5"><circle class="node" r="0" node_type="middle"></circle><text text-anchor="middle" font-size="8" font-weight="bold" y="2.5" class="node-label"></text></g><g class="noselect gnode" transform="translate(31.31,-80.39)" r="6.5"><circle class="node" r="0" node_type="middle"></circle><text text-anchor="middle" font-size="8" font-weight="bold" y="2.5" class="node-label"></text></g><g class="noselect gnode" transform="translate(37.00,-95.41)" r="6.5"><circle class="node" r="0" node_type="middle"></circle><text text-anchor="middle" font-size="8" font-weight="bold" y="2.5" class="node-label"></text></g><g class="noselect gnode" transform="translate(42.88,-110.46)" r="6.5"><circle class="node" r="0" node_type="middle"></circle><text text-anchor="middle" font-size="8" font-weight="bold" y="2.5" class="node-label"></text></g><g class="noselect gnode" transform="translate(48.53,-125.60)" r="6.5"><circle class="node" r="0" node_type="middle"></circle><text text-anchor="middle" font-size="8" font-weight="bold" y="2.5" class="node-label"></text></g><g class="noselect gnode" transform="translate(53.64,-140.88)" r="6.5"><circle class="node" r="0" node_type="middle"></circle><text text-anchor="middle" font-size="8" font-weight="bold" y="2.5" class="node-label"></text></g><g class="noselect gnode" transform="translate(19.44,189.46)" r="6.5"><circle class="node" r="0" node_type="middle"></circle><text text-anchor="middle" font-size="8" font-weight="bold" y="2.5" class="node-label"></text></g><g class="noselect gnode" transform="translate(21.05,174.08)" r="6.5"><circle class="node" r="0" node_type="middle"></circle><text text-anchor="middle" font-size="8" font-weight="bold" y="2.5" class="node-label"></text></g><g class="noselect gnode" transform="translate(22.76,158.40)" r="6.5"><circle class="node" r="0" node_type="middle"></circle><text text-anchor="middle" font-size="8" font-weight="bold" y="2.5" class="node-label"></text></g><g class="noselect gnode" transform="translate(24.30,142.51)" r="6.5"><circle class="node" r="0" node_type="middle"></circle><text text-anchor="middle" font-size="8" font-weight="bold" y="2.5" class="node-label"></text></g><g class="noselect gnode" transform="translate(25.37,126.48)" r="6.5"><circle class="node" r="0" node_type="middle"></circle><text text-anchor="middle" font-size="8" font-weight="bold" y="2.5" class="node-label"></text></g><g class="noselect gnode" transform="translate(62.64,-175.89)" r="6.5"><circle class="node" r="0" node_type="middle"></circle><text text-anchor="middle" font-size="8" font-weight="bold" y="2.5" class="node-label"></text></g><g class="noselect gnode" transform="translate(21.48,11.45)" r="6.5"><circle class="node" r="0" node_type="middle"></circle><text text-anchor="middle" font-size="8" font-weight="bold" y="2.5" class="node-label"></text></g><g class="noselect gnode" transform="translate(25.50,105.03)" r="6.5"><circle class="node" r="0" node_type="middle"></circle><text text-anchor="middle" font-size="8" font-weight="bold" y="2.5" class="node-label"></text></g></g><line class="drag_line" x1="0" y1="0" x2="0" y2="0"></line></g></g></svg>