<svg xmlns="http://www.w3.org/2000/svg" viewBox="0 0 760 640" width="760" height="640"><style>svg {
  display: block;
  min-width: 100%;
  width: 100%;
  min-height: 100%;
}

circle.node {
  stroke: #ccc;
  stroke-width: 1px;
  opacity: 1;
  fill: white;
}

circle.node.label {
    stroke: transparent;
    stroke-width: 0;
    fill: white;
}

circle.outline_node {
    stroke-width: 1px;
    fill: red;
}

circle.protein {
    fill: gray;
    fill-opacity: 0.5;
    stroke-width: 4;
}

circle.hidden_outline {
    stroke-width: 0px;
}


line.link {
  stroke: #999;
  stroke-opacity: 0.8;
  stroke-width: 2;
}

line.basepair {
  stroke: red;
}

line.intermolecule {
  stroke: blue;
}

line.chain_chain {
  stroke-dasharray: 3,3;
}

line.fake {
  stroke: green;
}

.transparent {
    fill: transparent;
    stroke-width: 0;
    stroke-opacity: 0;
    opacity: 0;
    visibility: hidden;
}

.drag_line {
  stroke: #999;
  stroke-width: 2;
  pointer-events: none;
}

.drag_line_hidden {
  stroke: #999;
  stroke-width: 0;
  pointer-events: none;
}

.d3-tip {
    line-height: 1;
    font-weight: bold;
    padding: 6px;
    background: rgba(0, 0, 0, 0.6);
    color: #fff;
    border-radius: 4px;
    pointer-events: none;
          }

text.node-label {
    font-weight: bold;
    font-family: Tahoma, Geneva, sans-serif;
    color: rgb(100,100,100);
    pointer-events: none;
}

text {
    pointer-events: none;
}

g.gnode {

}

circle.outline_node.selected {
    visibility: visible;
}

circle.outline_node {
    visibility: hidden;
}

.brush .extent {
  fill-opacity: .1;
  stroke: #fff;
  shape-rendering: crispEdges;
}

.noselect {
    -webkit-touch-callout: none;
    -webkit-user-select: none;
    -khtml-user-select: none;
    -moz-user-select: none;
    -ms-user-select: none;
    user-select: none;
}

svg {
  display: block;
  min-width: 100%;
  width: 100%;
  min-height: 100%;
}

circle.node {
  stroke: #ccc;
  stroke-width: 1px;
  opacity: 1;
  fill: white;
}

circle.node.label {
    stroke: transparent;
    stroke-width: 0;
    fill: white;
}

circle.outline_node {
    stroke-width: 1px;
    fill: red;
}

circle.protein {
    fill: gray;
    fill-opacity: 0.5;
    stroke-width: 4;
}

circle.hidden_outline {
    stroke-width: 0px;
}


line.link {
  stroke: #999;
  stroke-opacity: 0.8;
  stroke-width: 2;
}

line.basepair {
  stroke: red;
}

line.intermolecule {
  stroke: blue;
}

line.chain_chain {
  stroke-dasharray: 3,3;
}

line.fake {
  stroke: green;
}

.transparent {
    fill: transparent;
    stroke-width: 0;
    stroke-opacity: 0;
    opacity: 0;
    visibility: hidden;
}

.drag_line {
  stroke: #999;
  stroke-width: 2;
  pointer-events: none;
}

.drag_line_hidden {
  stroke: #999;
  stroke-width: 0;
  pointer-events: none;
}

.d3-tip {
    line-height: 1;
    font-weight: bold;
    padding: 6px;
    background: rgba(0, 0, 0, 0.6);
    color: #fff;
    border-radius: 4px;
    pointer-events: none;
          }

text.node-label {
    font-weight: bold;
    font-family: Tahoma, Geneva, sans-serif;
    color: rgb(100,100,100);
    pointer-events: none;
}

text {
    pointer-events: none;
}

g.gnode {

}

circle.outline_node.selected {
    visibility: visible;
}

circle.outline_node {
    visibility: hidden;
}

.brush .extent {
  fill-opacity: .1;
  stroke: #fff;
  shape-rendering: crispEdges;
}

.noselect {
    -webkit-touch-callout: none;
    -webkit-user-select: none;
    -khtml-user-select: none;
    -moz-user-select: none;
    -ms-user-select: none;
    user-select: none;
}
/*# sourceURL=/Users/yumanakamura/ipy_sandbox/sandbox/claude_sandbox/mrna-transformer/scripts/eval/prerender/forna_vendor/fornac.css*/</style><style></style><g><g class="brush" style="pointer-events: all; -webkit-tap-highlight-color: rgba(0, 0, 0, 0);"><rect class="background" x="0" width="760" y="0" height="640" style="visibility: hidden; cursor: auto;"></rect><rect class="extent" x="0" width="0" y="0" height="0" style="cursor: move;"></rect><g class="resize n" transform="translate(0,0)" style="cursor: ns-resize; display: none;"><rect y="-3" width="0" height="6" style="visibility: hidden;"></rect></g><g class="resize e" transform="translate(0,0)" style="cursor: ew-resize; display: none;"><rect x="-3" width="6" height="0" style="visibility: hidden;"></rect></g><g class="resize s" transform="translate(0,0)" style="cursor: ns-resize; display: none;"><rect y="-3" width="0" height="6" style="visibility: hidden;"></rect></g><g class="resize w" transform="translate(0,0)" style="cursor: ew-resize; display: none;"><rect x="-3" width="6" height="0" style="visibility: hidden;"></rect></g><g class="resize nw" transform="translate(0,0)" style="cursor: nwse-resize; display: none;"><rect x="-3" y="-3" width="6" height="6" style="visibility: hidden;"></rect></g><g class="resize ne" transform="translate(0,0)" style="cursor: nesw-resize; display: none;"><rect x="-3" y="-3" width="6" height="6" style="visibility: hidden;"></rect></g><g class="resize se" transform="translate(0,0)" style="cursor: nwse-resize; display: none;"><rect x="-3" y="-3" width="6" height="6" style="visibility: hidden;"></rect></g><g class="resize sw" transform="translate(0,0)" style="cursor: nesw-resize; display: none;"><rect x="-3" y="-3" width="6" height="6" style="visibility: hidden;"></rect></g></g><g transform="translate(76.75,178.68) scale(1.50)"><g><line class="link backbone" x1="186.38" y1="141.02" x2="171.96" y2="144.46"></line><line class="link backbone" x1="171.96" y1="144.46" x2="157.34" y2="141.01"></line><line class="link backbone" x1="157.34" y1="141.01" x2="146.14" y2="131.23"></line><line class="link backbone" x1="146.14" y1="131.23" x2="139.14" y2="117.94"></line><line class="link basepair" x1="138.98" y1="102.69" x2="144.51" y2="88.76"></line><line class="link backbone" x1="139.14" y1="117.94" x2="138.98" y2="102.69"></line><line class="link basepair" x1="124.85" y1="97.86" x2="128.53" y2="83.76"></line><line class="link backbone" x1="138.98" y1="102.69" x2="124.85" y2="97.86"></line><line class="link basepair" x1="110.11" y1="95.01" x2="111.94" y2="80.54"></line><line class="link backbone" x1="124.85" y1="97.86" x2="110.11" y2="95.01"></line><line class="link basepair" x1="95.05" y1="94.09" x2="94.87" y2="79.61"></line><line class="link backbone" x1="110.11" y1="95.01" x2="95.05" y2="94.09"></line><line class="link basepair" x1="80.19" y1="95.46" x2="77.79" y2="80.85"></line><line class="link backbone" x1="95.05" y1="94.09" x2="80.19" y2="95.46"></line><line class="link backbone" x1="80.19" y1="95.46" x2="67.02" y2="103.31"></line><line class="link basepair" x1="55.63" y1="93.08" x2="60.93" y2="79.23"></line><line class="link backbone" x1="67.02" y1="103.31" x2="55.63" y2="93.08"></line><line class="link basepair" x1="41.15" y1="88.52" x2="44.90" y2="74.45"></line><line class="link backbone" x1="55.63" y1="93.08" x2="41.15" y2="88.52"></line><line class="link basepair" x1="25.92" y1="85.03" x2="29.05" y2="70.69"></line><line class="link backbone" x1="41.15" y1="88.52" x2="25.92" y2="85.03"></line><line class="link basepair" x1="10.69" y1="82.05" x2="13.69" y2="67.32"></line><line class="link backbone" x1="25.92" y1="85.03" x2="10.69" y2="82.05"></line><line class="link backbone" x1="10.69" y1="82.05" x2="-4.84" y2="83.92"></line><line class="link backbone" x1="-4.84" y1="83.92" x2="-11.13" y2="69.97"></line><line class="link backbone" x1="-11.13" y1="69.97" x2="0.07" y2="59.56"></line><line class="link basepair" x1="13.69" y1="67.32" x2="10.69" y2="82.05"></line><line class="link backbone" x1="0.07" y1="59.56" x2="13.69" y2="67.32"></line><line class="link basepair" x1="29.05" y1="70.69" x2="25.92" y2="85.03"></line><line class="link backbone" x1="13.69" y1="67.32" x2="29.05" y2="70.69"></line><line class="link basepair" x1="44.90" y1="74.45" x2="41.15" y2="88.52"></line><line class="link backbone" x1="29.05" y1="70.69" x2="44.90" y2="74.45"></line><line class="link basepair" x1="60.93" y1="79.23" x2="55.63" y2="93.08"></line><line class="link backbone" x1="44.90" y1="74.45" x2="60.93" y2="79.23"></line><line class="link basepair" x1="77.79" y1="80.85" x2="80.19" y2="95.46"></line><line class="link backbone" x1="60.93" y1="79.23" x2="77.79" y2="80.85"></line><line class="link basepair" x1="94.87" y1="79.61" x2="95.05" y2="94.09"></line><line class="link backbone" x1="77.79" y1="80.85" x2="94.87" y2="79.61"></line><line class="link basepair" x1="111.94" y1="80.54" x2="110.11" y2="95.01"></line><line class="link backbone" x1="94.87" y1="79.61" x2="111.94" y2="80.54"></line><line class="link basepair" x1="128.53" y1="83.76" x2="124.85" y2="97.86"></line><line class="link backbone" x1="111.94" y1="80.54" x2="128.53" y2="83.76"></line><line class="link basepair" x1="144.51" y1="88.76" x2="138.98" y2="102.69"></line><line class="link backbone" x1="128.53" y1="83.76" x2="144.51" y2="88.76"></line><line class="link backbone" x1="144.51" y1="88.76" x2="157.49" y2="79.90"></line><line class="link backbone" x1="157.49" y1="79.90" x2="172.34" y2="76.96"></line><line class="link backbone" x1="172.34" y1="76.96" x2="187.18" y2="80.37"></line><line class="link basepair" x1="199.82" y1="89.73" x2="205.03" y2="103.71"></line><line class="link backbone" x1="187.18" y1="80.37" x2="199.82" y2="89.73"></line><line class="link basepair" x1="216.33" y1="85.34" x2="219.30" y2="99.53"></line><line class="link backbone" x1="199.82" y1="89.73" x2="216.33" y2="85.34"></line><line class="link basepair" x1="233.09" y1="82.93" x2="234.28" y2="97.46"></line><line class="link backbone" x1="216.33" y1="85.34" x2="233.09" y2="82.93"></line><line class="link basepair" x1="249.92" y1="82.54" x2="249.56" y2="97.09"></line><line class="link backbone" x1="233.09" y1="82.93" x2="249.92" y2="82.54"></line><line class="link basepair" x1="266.55" y1="83.71" x2="265.00" y2="98.20"></line><line class="link backbone" x1="249.92" y1="82.54" x2="266.55" y2="83.71"></line><line class="link basepair" x1="282.78" y1="85.98" x2="280.54" y2="100.35"></line><line class="link backbone" x1="266.55" y1="83.71" x2="282.78" y2="85.98"></line><line class="link basepair" x1="298.68" y1="88.47" x2="296.12" y2="103.15"></line><line class="link backbone" x1="282.78" y1="85.98" x2="298.68" y2="88.47"></line><line class="link backbone" x1="298.68" y1="88.47" x2="310.90" y2="78.83"></line><line class="link backbone" x1="310.90" y1="78.83" x2="325.94" y2="79.03"></line><line class="link basepair" x1="337.93" y1="88.99" x2="340.12" y2="103.72"></line><line class="link backbone" x1="325.94" y1="79.03" x2="337.93" y2="88.99"></line><line class="link basepair" x1="353.87" y1="86.91" x2="355.91" y2="101.23"></line><line class="link backbone" x1="337.93" y1="88.99" x2="353.87" y2="86.91"></line><line class="link basepair" x1="369.75" y1="84.55" x2="371.86" y2="99.01"></line><line class="link backbone" x1="353.87" y1="86.91" x2="369.75" y2="84.55"></line><line class="link basepair" x1="385.20" y1="82.04" x2="387.45" y2="96.89"></line><line class="link backbone" x1="369.75" y1="84.55" x2="385.20" y2="82.04"></line><line class="link backbone" x1="385.20" y1="82.04" x2="399.18" y2="74.95"></line><line class="link backbone" x1="399.18" y1="74.95" x2="409.85" y2="85.90"></line><line class="link backbone" x1="409.85" y1="85.90" x2="402.90" y2="99.52"></line><line class="link basepair" x1="387.45" y1="96.89" x2="385.20" y2="82.04"></line><line class="link backbone" x1="402.90" y1="99.52" x2="387.45" y2="96.89"></line><line class="link basepair" x1="371.86" y1="99.01" x2="369.75" y2="84.55"></line><line class="link backbone" x1="387.45" y1="96.89" x2="371.86" y2="99.01"></line><line class="link basepair" x1="355.91" y1="101.23" x2="353.87" y2="86.91"></line><line class="link backbone" x1="371.86" y1="99.01" x2="355.91" y2="101.23"></line><line class="link basepair" x1="340.12" y1="103.72" x2="337.93" y2="88.99"></line><line class="link backbone" x1="355.91" y1="101.23" x2="340.12" y2="103.72"></line><line class="link backbone" x1="340.12" y1="103.72" x2="332.14" y2="116.90"></line><line class="link backbone" x1="332.14" y1="116.90" x2="317.88" y2="121.92"></line><line class="link backbone" x1="317.88" y1="121.92" x2="303.74" y2="116.55"></line><line class="link basepair" x1="296.12" y1="103.15" x2="298.68" y2="88.47"></line><line class="link backbone" x1="303.74" y1="116.55" x2="296.12" y2="103.15"></line><line class="link basepair" x1="280.54" y1="100.35" x2="282.78" y2="85.98"></line><line class="link backbone" x1="296.12" y1="103.15" x2="280.54" y2="100.35"></line><line class="link basepair" x1="265.00" y1="98.20" x2="266.55" y2="83.71"></line><line class="link backbone" x1="280.54" y1="100.35" x2="265.00" y2="98.20"></line><line class="link basepair" x1="249.56" y1="97.09" x2="249.92" y2="82.54"></line><line class="link backbone" x1="265.00" y1="98.20" x2="249.56" y2="97.09"></line><line class="link basepair" x1="234.28" y1="97.46" x2="233.09" y2="82.93"></line><line class="link backbone" x1="249.56" y1="97.09" x2="234.28" y2="97.46"></line><line class="link basepair" x1="219.30" y1="99.53" x2="216.33" y2="85.34"></line><line class="link backbone" x1="234.28" y1="97.46" x2="219.30" y2="99.53"></line><line class="link basepair" x1="205.03" y1="103.71" x2="199.82" y2="89.73"></line><line class="link backbone" x1="219.30" y1="99.53" x2="205.03" y2="103.71"></line><line class="link label_link" x1="80.19" y1="95.46" x2="79.62" y2="111.04"></line><line class="link label_link" x1="29.05" y1="70.69" x2="27.18" y2="55.25"></line><line class="link label_link" x1="187.18" y1="80.37" x2="186.60" y2="64.85"></line><line class="link label_link" x1="337.93" y1="88.99" x2="337.91" y2="73.46"></line><line class="link label_link" x1="340.12" y1="103.72" x2="344.35" y2="118.70"></line><line class="link label_link" x1="205.03" y1="103.71" x2="197.41" y2="116.99"></line><line class="link fake transparent" x1="337.93" y1="88.99" x2="346.85" y2="95.22"></line><line class="link fake transparent" x1="337.93" y1="88.99" x2="355.91" y2="101.23"></line><line class="link fake transparent" x1="353.87" y1="86.91" x2="346.85" y2="95.22"></line><line class="link fake transparent" x1="355.91" y1="101.23" x2="346.85" y2="95.22"></line><line class="link fake transparent" x1="340.12" y1="103.72" x2="346.85" y2="95.22"></line><line class="link fake transparent" x1="353.87" y1="86.91" x2="362.91" y2="92.93"></line><line class="link fake transparent" x1="369.75" y1="84.55" x2="362.91" y2="92.93"></line><line class="link fake transparent" x1="371.86" y1="99.01" x2="362.91" y2="92.93"></line><line class="link fake transparent" x1="355.91" y1="101.23" x2="362.91" y2="92.93"></line><line class="link fake transparent" x1="369.75" y1="84.55" x2="378.72" y2="90.62"></line><line class="link fake transparent" x1="385.20" y1="82.04" x2="378.72" y2="90.62"></line><line class="link fake transparent" x1="387.45" y1="96.89" x2="378.72" y2="90.62"></line><line class="link fake transparent" x1="371.86" y1="99.01" x2="378.72" y2="90.62"></line><line class="link fake transparent" x1="138.98" y1="102.69" x2="134.51" y2="92.90"></line><line class="link fake transparent" x1="124.85" y1="97.86" x2="134.51" y2="92.90"></line><line class="link fake transparent" x1="128.53" y1="83.76" x2="134.51" y2="92.90"></line><line class="link fake transparent" x1="144.51" y1="88.76" x2="134.51" y2="92.90"></line><line class="link fake transparent" x1="124.85" y1="97.86" x2="118.98" y2="88.77"></line><line class="link fake transparent" x1="110.11" y1="95.01" x2="118.98" y2="88.77"></line><line class="link fake transparent" x1="111.94" y1="80.54" x2="118.98" y2="88.77"></line><line class="link fake transparent" x1="128.53" y1="83.76" x2="118.98" y2="88.77"></line><line class="link fake transparent" x1="110.11" y1="95.01" x2="103.07" y2="86.75"></line><line class="link fake transparent" x1="95.05" y1="94.09" x2="103.07" y2="86.75"></line><line class="link fake transparent" x1="94.87" y1="79.61" x2="103.07" y2="86.75"></line><line class="link fake transparent" x1="111.94" y1="80.54" x2="103.07" y2="86.75"></line><line class="link fake transparent" x1="95.05" y1="94.09" x2="86.89" y2="86.94"></line><line class="link fake transparent" x1="80.19" y1="95.46" x2="86.89" y2="86.94"></line><line class="link fake transparent" x1="77.79" y1="80.85" x2="86.89" y2="86.94"></line><line class="link fake transparent" x1="94.87" y1="79.61" x2="86.89" y2="86.94"></line><line class="link fake transparent" x1="199.82" y1="89.73" x2="209.86" y2="94.11"></line><line class="link fake transparent" x1="216.33" y1="85.34" x2="209.86" y2="94.11"></line><line class="link fake transparent" x1="219.30" y1="99.53" x2="209.86" y2="94.11"></line><line class="link fake transparent" x1="205.03" y1="103.71" x2="209.86" y2="94.11"></line><line class="link fake transparent" x1="216.33" y1="85.34" x2="225.73" y2="90.82"></line><line class="link fake transparent" x1="233.09" y1="82.93" x2="225.73" y2="90.82"></line><line class="link fake transparent" x1="234.28" y1="97.46" x2="225.73" y2="90.82"></line><line class="link fake transparent" x1="219.30" y1="99.53" x2="225.73" y2="90.82"></line><line class="link fake transparent" x1="233.09" y1="82.93" x2="241.70" y2="89.55"></line><line class="link fake transparent" x1="249.92" y1="82.54" x2="241.70" y2="89.55"></line><line class="link fake transparent" x1="249.56" y1="97.09" x2="241.70" y2="89.55"></line><line class="link fake transparent" x1="234.28" y1="97.46" x2="241.70" y2="89.55"></line><line class="link fake transparent" x1="249.92" y1="82.54" x2="257.79" y2="90.03"></line><line class="link fake transparent" x1="266.55" y1="83.71" x2="257.79" y2="90.03"></line><line class="link fake transparent" x1="265.00" y1="98.20" x2="257.79" y2="90.03"></line><line class="link fake transparent" x1="249.56" y1="97.09" x2="257.79" y2="90.03"></line><line class="link fake transparent" x1="266.55" y1="83.71" x2="273.78" y2="91.85"></line><line class="link fake transparent" x1="282.78" y1="85.98" x2="273.78" y2="91.85"></line><line class="link fake transparent" x1="280.54" y1="100.35" x2="273.78" y2="91.85"></line><line class="link fake transparent" x1="265.00" y1="98.20" x2="273.78" y2="91.85"></line><line class="link fake transparent" x1="282.78" y1="85.98" x2="289.64" y2="94.47"></line><line class="link fake transparent" x1="298.68" y1="88.47" x2="289.64" y2="94.47"></line><line class="link fake transparent" x1="296.12" y1="103.15" x2="289.64" y2="94.47"></line><line class="link fake transparent" x1="280.54" y1="100.35" x2="289.64" y2="94.47"></line><line class="link fake transparent" x1="55.63" y1="93.08" x2="50.79" y2="83.50"></line><line class="link fake transparent" x1="41.15" y1="88.52" x2="50.79" y2="83.50"></line><line class="link fake transparent" x1="44.90" y1="74.45" x2="50.79" y2="83.50"></line><line class="link fake transparent" x1="60.93" y1="79.23" x2="50.79" y2="83.50"></line><line class="link fake transparent" x1="41.15" y1="88.52" x2="35.24" y2="79.52"></line><line class="link fake transparent" x1="25.92" y1="85.03" x2="35.24" y2="79.52"></line><line class="link fake transparent" x1="29.05" y1="70.69" x2="35.24" y2="79.52"></line><line class="link fake transparent" x1="44.90" y1="74.45" x2="35.24" y2="79.52"></line><line class="link fake transparent" x1="25.92" y1="85.03" x2="19.71" y2="76.22"></line><line class="link fake transparent" x1="10.69" y1="82.05" x2="19.71" y2="76.22"></line><line class="link fake transparent" x1="13.69" y1="67.32" x2="19.71" y2="76.22"></line><line class="link fake transparent" x1="29.05" y1="70.69" x2="19.71" y2="76.22"></line><line class="link fake transparent" x1="186.38" y1="141.02" x2="171.88" y2="110.13"></line><line class="link fake transparent" x1="186.38" y1="141.02" x2="157.49" y2="79.90"></line><line class="link fake transparent" x1="171.96" y1="144.46" x2="171.88" y2="110.13"></line><line class="link fake transparent" x1="171.96" y1="144.46" x2="172.34" y2="76.96"></line><line class="link fake transparent" x1="157.34" y1="141.01" x2="171.88" y2="110.13"></line><line class="link fake transparent" x1="157.34" y1="141.01" x2="187.18" y2="80.37"></line><line class="link fake transparent" x1="146.14" y1="131.23" x2="171.88" y2="110.13"></line><line class="link fake transparent" x1="146.14" y1="131.23" x2="199.82" y2="89.73"></line><line class="link fake transparent" x1="139.14" y1="117.94" x2="171.88" y2="110.13"></line><line class="link fake transparent" x1="139.14" y1="117.94" x2="205.03" y2="103.71"></line><line class="link fake transparent" x1="138.98" y1="102.69" x2="171.88" y2="110.13"></line><line class="link fake transparent" x1="138.98" y1="102.69" x2="204.55" y2="119.03"></line><line class="link fake transparent" x1="144.51" y1="88.76" x2="171.88" y2="110.13"></line><line class="link fake transparent" x1="144.51" y1="88.76" x2="196.47" y2="132.08"></line><line class="link fake transparent" x1="157.49" y1="79.90" x2="171.88" y2="110.13"></line><line class="link fake transparent" x1="157.49" y1="79.90" x2="186.38" y2="141.02"></line><line class="link fake transparent" x1="172.34" y1="76.96" x2="171.88" y2="110.13"></line><line class="link fake transparent" x1="172.34" y1="76.96" x2="171.96" y2="144.46"></line><line class="link fake transparent" x1="187.18" y1="80.37" x2="171.88" y2="110.13"></line><line class="link fake transparent" x1="187.18" y1="80.37" x2="157.34" y2="141.01"></line><line class="link fake transparent" x1="199.82" y1="89.73" x2="171.88" y2="110.13"></line><line class="link fake transparent" x1="199.82" y1="89.73" x2="146.14" y2="131.23"></line><line class="link fake transparent" x1="205.03" y1="103.71" x2="171.88" y2="110.13"></line><line class="link fake transparent" x1="205.03" y1="103.71" x2="139.14" y2="117.94"></line><line class="link fake transparent" x1="385.20" y1="82.04" x2="396.90" y2="87.87"></line><line class="link fake transparent" x1="385.20" y1="82.04" x2="409.85" y2="85.90"></line><line class="link fake transparent" x1="399.18" y1="74.95" x2="396.90" y2="87.87"></line><line class="link fake transparent" x1="399.18" y1="74.95" x2="402.90" y2="99.52"></line><line class="link fake transparent" x1="409.85" y1="85.90" x2="396.90" y2="87.87"></line><line class="link fake transparent" x1="409.85" y1="85.90" x2="387.45" y2="96.89"></line><line class="link fake transparent" x1="402.90" y1="99.52" x2="396.90" y2="87.87"></line><line class="link fake transparent" x1="402.90" y1="99.52" x2="385.20" y2="82.04"></line><line class="link fake transparent" x1="387.45" y1="96.89" x2="396.90" y2="87.87"></line><line class="link fake transparent" x1="387.45" y1="96.89" x2="399.18" y2="74.95"></line><line class="link fake transparent" x1="10.69" y1="82.05" x2="1.72" y2="72.56"></line><line class="link fake transparent" x1="10.69" y1="82.05" x2="-11.13" y2="69.97"></line><line class="link fake transparent" x1="-4.84" y1="83.92" x2="1.72" y2="72.56"></line><line class="link fake transparent" x1="-4.84" y1="83.92" x2="0.07" y2="59.56"></line><line class="link fake transparent" x1="-11.13" y1="69.97" x2="1.72" y2="72.56"></line><line class="link fake transparent" x1="-11.13" y1="69.97" x2="13.69" y2="67.32"></line><line class="link fake transparent" x1="0.07" y1="59.56" x2="1.72" y2="72.56"></line><line class="link fake transparent" x1="0.07" y1="59.56" x2="10.69" y2="82.05"></line><line class="link fake transparent" x1="13.69" y1="67.32" x2="1.72" y2="72.56"></line><line class="link fake transparent" x1="13.69" y1="67.32" x2="-4.84" y2="83.92"></line><line class="link fake transparent" x1="80.19" y1="95.46" x2="68.35" y2="89.95"></line><line class="link fake transparent" x1="80.19" y1="95.46" x2="55.63" y2="93.08"></line><line class="link fake transparent" x1="67.02" y1="103.31" x2="68.35" y2="89.95"></line><line class="link fake transparent" x1="67.02" y1="103.31" x2="60.93" y2="79.23"></line><line class="link fake transparent" x1="55.63" y1="93.08" x2="68.35" y2="89.95"></line><line class="link fake transparent" x1="55.63" y1="93.08" x2="77.79" y2="80.85"></line><line class="link fake transparent" x1="60.93" y1="79.23" x2="68.35" y2="89.95"></line><line class="link fake transparent" x1="60.93" y1="79.23" x2="80.19" y2="95.46"></line><line class="link fake transparent" x1="77.79" y1="80.85" x2="68.35" y2="89.95"></line><line class="link fake transparent" x1="77.79" y1="80.85" x2="67.02" y2="103.31"></line><line class="link fake transparent" x1="298.68" y1="88.47" x2="318.17" y2="99.65"></line><line class="link fake transparent" x1="298.68" y1="88.47" x2="340.12" y2="103.72"></line><line class="link fake transparent" x1="310.90" y1="78.83" x2="318.17" y2="99.65"></line><line class="link fake transparent" x1="310.90" y1="78.83" x2="332.14" y2="116.90"></line><line class="link fake transparent" x1="325.94" y1="79.03" x2="318.17" y2="99.65"></line><line class="link fake transparent" x1="325.94" y1="79.03" x2="317.88" y2="121.92"></line><line class="link fake transparent" x1="337.93" y1="88.99" x2="318.17" y2="99.65"></line><line class="link fake transparent" x1="337.93" y1="88.99" x2="303.74" y2="116.55"></line><line class="link fake transparent" x1="340.12" y1="103.72" x2="318.17" y2="99.65"></line><line class="link fake transparent" x1="340.12" y1="103.72" x2="296.12" y2="103.15"></line><line class="link fake transparent" x1="332.14" y1="116.90" x2="318.17" y2="99.65"></line><line class="link fake transparent" x1="332.14" y1="116.90" x2="298.68" y2="88.47"></line><line class="link fake transparent" x1="317.88" y1="121.92" x2="318.17" y2="99.65"></line><line class="link fake transparent" x1="317.88" y1="121.92" x2="310.90" y2="78.83"></line><line class="link fake transparent" x1="303.74" y1="116.55" x2="318.17" y2="99.65"></line><line class="link fake transparent" x1="303.74" y1="116.55" x2="325.94" y2="79.03"></line><line class="link fake transparent" x1="296.12" y1="103.15" x2="318.17" y2="99.65"></line><line class="link fake transparent" x1="296.12" y1="103.15" x2="337.93" y2="88.99"></line></g><g><g class="noselect gnode" struct_name="m" transform="translate(186.38,141.02)" r="6.5"><circle class="node" r="6" node_type="nucleotide" style="fill: lightsalmon;"></circle><text text-anchor="middle" font-size="8" font-weight="bold" y="2.5" class="node-label">C</text></g><g class="noselect gnode" struct_name="m" transform="translate(171.96,144.46)" r="6.5"><circle class="node" r="6" node_type="nucleotide" style="fill: lightsalmon;"></circle><text text-anchor="middle" font-size="8" font-weight="bold" y="2.5" class="node-label">A</text></g><g class="noselect gnode" struct_name="m" transform="translate(157.34,141.01)" r="6.5"><circle class="node" r="6" node_type="nucleotide" style="fill: lightsalmon;"></circle><text text-anchor="middle" font-size="8" font-weight="bold" y="2.5" class="node-label">G</text></g><g class="noselect gnode" struct_name="m" transform="translate(146.14,131.23)" r="6.5"><circle class="node" r="6" node_type="nucleotide" style="fill: lightsalmon;"></circle><text text-anchor="middle" font-size="8" font-weight="bold" y="2.5" class="node-label">A</text></g><g class="noselect gnode" struct_name="m" transform="translate(139.14,117.94)" r="6.5"><circle class="node" r="6" node_type="nucleotide" style="fill: lightsalmon;"></circle><text text-anchor="middle" font-size="8" font-weight="bold" y="2.5" class="node-label">C</text></g><g class="noselect gnode" struct_name="m" transform="translate(138.98,102.69)" r="6.5"><circle class="node" r="6" node_type="nucleotide" style="fill: lightgreen;"></circle><text text-anchor="middle" font-size="8" font-weight="bold" y="2.5" class="node-label">G</text></g><g class="noselect gnode" struct_name="m" transform="translate(124.85,97.86)" r="6.5"><circle class="node" r="6" node_type="nucleotide" style="fill: lightgreen;"></circle><text text-anchor="middle" font-size="8" font-weight="bold" y="2.5" class="node-label">U</text></g><g class="noselect gnode" struct_name="m" transform="translate(110.11,95.01)" r="6.5"><circle class="node" r="6" node_type="nucleotide" style="fill: lightgreen;"></circle><text text-anchor="middle" font-size="8" font-weight="bold" y="2.5" class="node-label">C</text></g><g class="noselect gnode" struct_name="m" transform="translate(95.05,94.09)" r="6.5"><circle class="node" r="6" node_type="nucleotide" style="fill: lightgreen;"></circle><text text-anchor="middle" font-size="8" font-weight="bold" y="2.5" class="node-label">C</text></g><g class="noselect gnode" struct_name="m" transform="translate(80.19,95.46)" r="6.5"><circle class="node" r="6" node_type="nucleotide" style="fill: lightgreen;"></circle><text text-anchor="middle" font-size="8" font-weight="bold" y="2.5" class="node-label">A</text></g><g class="noselect gnode" struct_name="m" transform="translate(67.02,103.31)" r="6.5"><circle class="node" r="6" node_type="nucleotide" style="fill: rgb(219, 219, 141);"></circle><text text-anchor="middle" font-size="8" font-weight="bold" y="2.5" class="node-label">A</text></g><g class="noselect gnode" struct_name="m" transform="translate(55.63,93.08)" r="6.5"><circle class="node" r="6" node_type="nucleotide" style="fill: lightgreen;"></circle><text text-anchor="middle" font-size="8" font-weight="bold" y="2.5" class="node-label">G</text></g><g class="noselect gnode" struct_name="m" transform="translate(41.15,88.52)" r="6.5"><circle class="node" r="6" node_type="nucleotide" style="fill: lightgreen;"></circle><text text-anchor="middle" font-size="8" font-weight="bold" y="2.5" class="node-label">G</text></g><g class="noselect gnode" struct_name="m" transform="translate(25.92,85.03)" r="6.5"><circle class="node" r="6" node_type="nucleotide" style="fill: lightgreen;"></circle><text text-anchor="middle" font-size="8" font-weight="bold" y="2.5" class="node-label">U</text></g><g class="noselect gnode" struct_name="m" transform="translate(10.69,82.05)" r="6.5"><circle class="node" r="6" node_type="nucleotide" style="fill: lightgreen;"></circle><text text-anchor="middle" font-size="8" font-weight="bold" y="2.5" class="node-label">G</text></g><g class="noselect gnode" struct_name="m" transform="translate(-4.84,83.92)" r="6.5"><circle class="node" r="6" node_type="nucleotide" style="fill: lightblue;"></circle><text text-anchor="middle" font-size="8" font-weight="bold" y="2.5" class="node-label">A</text></g><g class="noselect gnode" struct_name="m" transform="translate(-11.13,69.97)" r="6.5"><circle class="node" r="6" node_type="nucleotide" style="fill: lightblue;"></circle><text text-anchor="middle" font-size="8" font-weight="bold" y="2.5" class="node-label">U</text></g><g class="noselect gnode" struct_name="m" transform="translate(0.07,59.56)" r="6.5"><circle class="node" r="6" node_type="nucleotide" style="fill: lightblue;"></circle><text text-anchor="middle" font-size="8" font-weight="bold" y="2.5" class="node-label">A</text></g><g class="noselect gnode" struct_name="m" transform="translate(13.69,67.32)" r="6.5"><circle class="node" r="6" node_type="nucleotide" style="fill: lightgreen;"></circle><text text-anchor="middle" font-size="8" font-weight="bold" y="2.5" class="node-label">C</text></g><g class="noselect gnode" struct_name="m" transform="translate(29.05,70.69)" r="6.5"><circle class="node" r="6" node_type="nucleotide" style="fill: lightgreen;"></circle><text text-anchor="middle" font-size="8" font-weight="bold" y="2.5" class="node-label">A</text></g><g class="noselect gnode" struct_name="m" transform="translate(44.90,74.45)" r="6.5"><circle class="node" r="6" node_type="nucleotide" style="fill: lightgreen;"></circle><text text-anchor="middle" font-size="8" font-weight="bold" y="2.5" class="node-label">C</text></g><g class="noselect gnode" struct_name="m" transform="translate(60.93,79.23)" r="6.5"><circle class="node" r="6" node_type="nucleotide" style="fill: lightgreen;"></circle><text text-anchor="middle" font-size="8" font-weight="bold" y="2.5" class="node-label">C</text></g><g class="noselect gnode" struct_name="m" transform="translate(77.79,80.85)" r="6.5"><circle class="node" r="6" node_type="nucleotide" style="fill: lightgreen;"></circle><text text-anchor="middle" font-size="8" font-weight="bold" y="2.5" class="node-label">U</text></g><g class="noselect gnode" struct_name="m" transform="translate(94.87,79.61)" r="6.5"><circle class="node" r="6" node_type="nucleotide" style="fill: lightgreen;"></circle><text text-anchor="middle" font-size="8" font-weight="bold" y="2.5" class="node-label">G</text></g><g class="noselect gnode" struct_name="m" transform="translate(111.94,80.54)" r="6.5"><circle class="node" r="6" node_type="nucleotide" style="fill: lightgreen;"></circle><text text-anchor="middle" font-size="8" font-weight="bold" y="2.5" class="node-label">G</text></g><g class="noselect gnode" struct_name="m" transform="translate(128.53,83.76)" r="6.5"><circle class="node" r="6" node_type="nucleotide" style="fill: lightgreen;"></circle><text text-anchor="middle" font-size="8" font-weight="bold" y="2.5" class="node-label">A</text></g><g class="noselect gnode" struct_name="m" transform="translate(144.51,88.76)" r="6.5"><circle class="node" r="6" node_type="nucleotide" style="fill: lightgreen;"></circle><text text-anchor="middle" font-size="8" font-weight="bold" y="2.5" class="node-label">C</text></g><g class="noselect gnode" struct_name="m" transform="translate(157.49,79.90)" r="6.5"><circle class="node" r="6" node_type="nucleotide" style="fill: lightsalmon;"></circle><text text-anchor="middle" font-size="8" font-weight="bold" y="2.5" class="node-label">U</text></g><g class="noselect gnode" struct_name="m" transform="translate(172.34,76.96)" r="6.5"><circle class="node" r="6" node_type="nucleotide" style="fill: lightsalmon;"></circle><text text-anchor="middle" font-size="8" font-weight="bold" y="2.5" class="node-label">U</text></g><g class="noselect gnode" struct_name="m" transform="translate(187.18,80.37)" r="6.5"><circle class="node" r="6" node_type="nucleotide" style="fill: lightsalmon;"></circle><text text-anchor="middle" font-size="8" font-weight="bold" y="2.5" class="node-label">C</text></g><g class="noselect gnode" struct_name="m" transform="translate(199.82,89.73)" r="6.5"><circle class="node" r="6" node_type="nucleotide" style="fill: lightgreen;"></circle><text text-anchor="middle" font-size="8" font-weight="bold" y="2.5" class="node-label">G</text></g><g class="noselect gnode" struct_name="m" transform="translate(216.33,85.34)" r="6.5"><circle class="node" r="6" node_type="nucleotide" style="fill: lightgreen;"></circle><text text-anchor="middle" font-size="8" font-weight="bold" y="2.5" class="node-label">G</text></g><g class="noselect gnode" struct_name="m" transform="translate(233.09,82.93)" r="6.5"><circle class="node" r="6" node_type="nucleotide" style="fill: lightgreen;"></circle><text text-anchor="middle" font-size="8" font-weight="bold" y="2.5" class="node-label">A</text></g><g class="noselect gnode" struct_name="m" transform="translate(249.92,82.54)" r="6.5"><circle class="node" r="6" node_type="nucleotide" style="fill: lightgreen;"></circle><text text-anchor="middle" font-size="8" font-weight="bold" y="2.5" class="node-label">G</text></g><g class="noselect gnode" struct_name="m" transform="translate(266.55,83.71)" r="6.5"><circle class="node" r="6" node_type="nucleotide" style="fill: lightgreen;"></circle><text text-anchor="middle" font-size="8" font-weight="bold" y="2.5" class="node-label">A</text></g><g class="noselect gnode" struct_name="m" transform="translate(282.78,85.98)" r="6.5"><circle class="node" r="6" node_type="nucleotide" style="fill: lightgreen;"></circle><text text-anchor="middle" font-size="8" font-weight="bold" y="2.5" class="node-label">G</text></g><g class="noselect gnode" struct_name="m" transform="translate(298.68,88.47)" r="6.5"><circle class="node" r="6" node_type="nucleotide" style="fill: lightgreen;"></circle><text text-anchor="middle" font-size="8" font-weight="bold" y="2.5" class="node-label">G</text></g><g class="noselect gnode" struct_name="m" transform="translate(310.90,78.83)" r="6.5"><circle class="node" r="6" node_type="nucleotide" style="fill: rgb(219, 219, 141);"></circle><text text-anchor="middle" font-size="8" font-weight="bold" y="2.5" class="node-label">A</text></g><g class="noselect gnode" struct_name="m" transform="translate(325.94,79.03)" r="6.5"><circle class="node" r="6" node_type="nucleotide" style="fill: rgb(219, 219, 141);"></circle><text text-anchor="middle" font-size="8" font-weight="bold" y="2.5" class="node-label">A</text></g><g class="noselect gnode" struct_name="m" transform="translate(337.93,88.99)" r="6.5"><circle class="node" r="6" node_type="nucleotide" style="fill: lightgreen;"></circle><text text-anchor="middle" font-size="8" font-weight="bold" y="2.5" class="node-label">U</text></g><g class="noselect gnode" struct_name="m" transform="translate(353.87,86.91)" r="6.5"><circle class="node" r="6" node_type="nucleotide" style="fill: lightgreen;"></circle><text text-anchor="middle" font-size="8" font-weight="bold" y="2.5" class="node-label">G</text></g><g class="noselect gnode" struct_name="m" transform="translate(369.75,84.55)" r="6.5"><circle class="node" r="6" node_type="nucleotide" style="fill: lightgreen;"></circle><text text-anchor="middle" font-size="8" font-weight="bold" y="2.5" class="node-label">C</text></g><g class="noselect gnode" struct_name="m" transform="translate(385.20,82.04)" r="6.5"><circle class="node" r="6" node_type="nucleotide" style="fill: lightgreen;"></circle><text text-anchor="middle" font-size="8" font-weight="bold" y="2.5" class="node-label">A</text></g><g class="noselect gnode" struct_name="m" transform="translate(399.18,74.95)" r="6.5"><circle class="node" r="6" node_type="nucleotide" style="fill: lightblue;"></circle><text text-anchor="middle" font-size="8" font-weight="bold" y="2.5" class="node-label">C</text></g><g class="noselect gnode" struct_name="m" transform="translate(409.85,85.90)" r="6.5"><circle class="node" r="6" node_type="nucleotide" style="fill: lightblue;"></circle><text text-anchor="middle" font-size="8" font-weight="bold" y="2.5" class="node-label">U</text></g><g class="noselect gnode" struct_name="m" transform="translate(402.90,99.52)" r="6.5"><circle class="node" r="6" node_type="nucleotide" style="fill: lightblue;"></circle><text text-anchor="middle" font-size="8" font-weight="bold" y="2.5" class="node-label">G</text></g><g class="noselect gnode" struct_name="m" transform="translate(387.45,96.89)" r="6.5"><circle class="node" r="6" node_type="nucleotide" style="fill: lightgreen;"></circle><text text-anchor="middle" font-size="8" font-weight="bold" y="2.5" class="node-label">U</text></g><g class="noselect gnode" struct_name="m" transform="translate(371.86,99.01)" r="6.5"><circle class="node" r="6" node_type="nucleotide" style="fill: lightgreen;"></circle><text text-anchor="middle" font-size="8" font-weight="bold" y="2.5" class="node-label">G</text></g><g class="noselect gnode" struct_name="m" transform="translate(355.91,101.23)" r="6.5"><circle class="node" r="6" node_type="nucleotide" style="fill: lightgreen;"></circle><text text-anchor="middle" font-size="8" font-weight="bold" y="2.5" class="node-label">C</text></g><g class="noselect gnode" struct_name="m" transform="translate(340.12,103.72)" r="6.5"><circle class="node" r="6" node_type="nucleotide" style="fill: lightgreen;"></circle><text text-anchor="middle" font-size="8" font-weight="bold" y="2.5" class="node-label">A</text></g><g class="noselect gnode" struct_name="m" transform="translate(332.14,116.90)" r="6.5"><circle class="node" r="6" node_type="nucleotide" style="fill: rgb(219, 219, 141);"></circle><text text-anchor="middle" font-size="8" font-weight="bold" y="2.5" class="node-label">G</text></g><g class="noselect gnode" struct_name="m" transform="translate(317.88,121.92)" r="6.5"><circle class="node" r="6" node_type="nucleotide" style="fill: rgb(219, 219, 141);"></circle><text text-anchor="middle" font-size="8" font-weight="bold" y="2.5" class="node-label">A</text></g><g class="noselect gnode" struct_name="m" transform="translate(303.74,116.55)" r="6.5"><circle class="node" r="6" node_type="nucleotide" style="fill: rgb(219, 219, 141);"></circle><text text-anchor="middle" font-size="8" font-weight="bold" y="2.5" class="node-label">A</text></g><g class="noselect gnode" struct_name="m" transform="translate(296.12,103.15)" r="6.5"><circle class="node" r="6" node_type="nucleotide" style="fill: lightgreen;"></circle><text text-anchor="middle" font-size="8" font-weight="bold" y="2.5" class="node-label">C</text></g><g class="noselect gnode" struct_name="m" transform="translate(280.54,100.35)" r="6.5"><circle class="node" r="6" node_type="nucleotide" style="fill: lightgreen;"></circle><text text-anchor="middle" font-size="8" font-weight="bold" y="2.5" class="node-label">C</text></g><g class="noselect gnode" struct_name="m" transform="translate(265.00,98.20)" r="6.5"><circle class="node" r="6" node_type="nucleotide" style="fill: lightgreen;"></circle><text text-anchor="middle" font-size="8" font-weight="bold" y="2.5" class="node-label">U</text></g><g class="noselect gnode" struct_name="m" transform="translate(249.56,97.09)" r="6.5"><circle class="node" r="6" node_type="nucleotide" style="fill: lightgreen;"></circle><text text-anchor="middle" font-size="8" font-weight="bold" y="2.5" class="node-label">C</text></g><g class="noselect gnode" struct_name="m" transform="translate(234.28,97.46)" r="6.5"><circle class="node" r="6" node_type="nucleotide" style="fill: lightgreen;"></circle><text text-anchor="middle" font-size="8" font-weight="bold" y="2.5" class="node-label">U</text></g><g class="noselect gnode" struct_name="m" transform="translate(219.30,99.53)" r="6.5"><circle class="node" r="6" node_type="nucleotide" style="fill: lightgreen;"></circle><text text-anchor="middle" font-size="8" font-weight="bold" y="2.5" class="node-label">U</text></g><g class="noselect gnode" struct_name="m" transform="translate(205.03,103.71)" r="6.5"><circle class="node" r="6" node_type="nucleotide" style="fill: lightgreen;"></circle><text text-anchor="middle" font-size="8" font-weight="bold" y="2.5" class="node-label">C</text></g><g class="noselect gnode" struct_name="m" transform="translate(79.62,111.04)" r="6.5"><circle class="node label" r="6" node_type="label"></circle><text text-anchor="middle" font-size="8" font-weight="bold" y="2.5" class="node-label">10</text></g><g class="noselect gnode" struct_name="m" transform="translate(27.18,55.25)" r="6.5"><circle class="node label" r="6" node_type="label"></circle><text text-anchor="middle" font-size="8" font-weight="bold" y="2.5" class="node-label">20</text></g><g class="noselect gnode" struct_name="m" transform="translate(186.60,64.85)" r="6.5"><circle class="node label" r="6" node_type="label"></circle><text text-anchor="middle" font-size="8" font-weight="bold" y="2.5" class="node-label">30</text></g><g class="noselect gnode" struct_name="m" transform="translate(337.91,73.46)" r="6.5"><circle class="node label" r="6" node_type="label"></circle><text text-anchor="middle" font-size="8" font-weight="bold" y="2.5" class="node-label">40</text></g><g class="noselect gnode" struct_name="m" transform="translate(344.35,118.70)" r="6.5"><circle class="node label" r="6" node_type="label"></circle><text text-anchor="middle" font-size="8" font-weight="bold" y="2.5" class="node-label">50</text></g><g class="noselect gnode" struct_name="m" transform="translate(197.41,116.99)" r="6.5"><circle class="node label" r="6" node_type="label"></circle><text text-anchor="middle" font-size="8" font-weight="bold" y="2.5" class="node-label">60</text></g><g class="noselect gnode" transform="translate(346.85,95.22)" r="6.5"><circle class="node" r="0" node_type="middle"></circle><text text-anchor="middle" font-size="8" font-weight="bold" y="2.5" class="node-label"></text></g><g class="noselect gnode" transform="translate(362.91,92.93)" r="6.5"><circle class="node" r="0" node_type="middle"></circle><text text-anchor="middle" font-size="8" font-weight="bold" y="2.5" class="node-label"></text></g><g class="noselect gnode" transform="translate(378.72,90.62)" r="6.5"><circle class="node" r="0" node_type="middle"></circle><text text-anchor="middle" font-size="8" font-weight="bold" y="2.5" class="node-label"></text></g><g class="noselect gnode" transform="translate(134.51,92.90)" r="6.5"><circle class="node" r="0" node_type="middle"></circle><text text-anchor="middle" font-size="8" font-weight="bold" y="2.5" class="node-label"></text></g><g class="noselect gnode" transform="translate(118.98,88.77)" r="6.5"><circle class="node" r="0" node_type="middle"></circle><text text-anchor="middle" font-size="8" font-weight="bold" y="2.5" class="node-label"></text></g><g class="noselect gnode" transform="translate(103.07,86.75)" r="6.5"><circle class="node" r="0" node_type="middle"></circle><text text-anchor="middle" font-size="8" font-weight="bold" y="2.5" class="node-label"></text></g><g class="noselect gnode" transform="translate(86.89,86.94)" r="6.5"><circle class="node" r="0" node_type="middle"></circle><text text-anchor="middle" font-size="8" font-weight="bold" y="2.5" class="node-label"></text></g><g class="noselect gnode" transform="translate(209.86,94.11)" r="6.5"><circle class="node" r="0" node_type="middle"></circle><text text-anchor="middle" font-size="8" font-weight="bold" y="2.5" class="node-label"></text></g><g class="noselect gnode" transform="translate(225.73,90.82)" r="6.5"><circle class="node" r="0" node_type="middle"></circle><text text-anchor="middle" font-size="8" font-weight="bold" y="2.5" class="node-label"></text></g><g class="noselect gnode" transform="translate(241.70,89.55)" r="6.5"><circle class="node" r="0" node_type="middle"></circle><text text-anchor="middle" font-size="8" font-weight="bold" y="2.5" class="node-label"></text></g><g class="noselect gnode" transform="translate(257.79,90.03)" r="6.5"><circle class="node" r="0" node_type="middle"></circle><text text-anchor="middle" font-size="8" font-weight="bold" y="2.5" class="node-label"></text></g><g class="noselect gnode" transform="translate(273.78,91.85)" r="6.5"><circle class="node" r="0" node_type="middle"></circle><text text-anchor="middle" font-size="8" font-weight="bold" y="2.5" class="node-label"></text></g><g class="noselect gnode" transform="translate(289.64,94.47)" r="6.5"><circle class="node" r="0" node_type="middle"></circle><text text-anchor="middle" font-size="8" font-weight="bold" y="2.5" class="node-label"></text></g><g class="noselect gnode" transform="translate(50.79,83.50)" r="6.5"><circle class="node" r="0" node_type="middle"></circle><text text-anchor="middle" font-size="8" font-weight="bold" y="2.5" class="node-label"></text></g><g class="noselect gnode" transform="translate(35.24,79.52)" r="6.5"><circle class="node" r="0" node_type="middle"></circle><text text-anchor="middle" font-size="8" font-weight="bold" y="2.5" class="node-label"></text></g><g class="noselect gnode" transform="translate(19.71,76.22)" r="6.5"><circle class="node" r="0" node_type="middle"></circle><text text-anchor="middle" font-size="8" font-weight="bold" y="2.5" class="node-label"></text></g><g class="noselect gnode" transform="translate(204.55,119.03)" r="6.5"><circle class="node" r="0" node_type="middle"></circle><text text-anchor="middle" font-size="8" font-weight="bold" y="2.5" class="node-label"></text></g><g class="noselect gnode" transform="translate(196.47,132.08)" r="6.5"><circle class="node" r="0" node_type="middle"></circle><text text-anchor="middle" font-size="8" font-weight="bold" y="2.5" class="node-label"></text></g><g class="noselect gnode" transform="translate(171.88,110.13)" r="6.5"><circle class="node" r="0" node_type="middle"></circle><text text-anchor="middle" font-size="8" font-weight="bold" y="2.5" class="node-label"></text></g><g class="noselect gnode" transform="translate(396.90,87.87)" r="6.5"><circle class="node" r="0" node_type="middle"></circle><text text-anchor="middle" font-size="8" font-weight="bold" y="2.5" class="node-label"></text></g><g class="noselect gnode" transform="translate(1.72,72.56)" r="6.5"><circle class="node" r="0" node_type="middle"></circle><text text-anchor="middle" font-size="8" font-weight="bold" y="2.5" class="node-label"></text></g><g class="noselect gnode" transform="translate(68.35,89.95)" r="6.5"><circle class="node" r="0" node_type="middle"></circle><text text-anchor="middle" font-size="8" font-weight="bold" y="2.5" class="node-label"></text></g><g class="noselect gnode" transform="translate(318.17,99.65)" r="6.5"><circle class="node" r="0" node_type="middle"></circle><text text-anchor="middle" font-size="8" font-weight="bold" y="2.5" class="node-label"></text></g></g><line class="drag_line" x1="0" y1="0" x2="0" y2="0"></line></g></g></svg>