<svg xmlns="http://www.w3.org/2000/svg" viewBox="0 0 760 640" width="760" height="640"><style>svg {
  display: block;
  min-width: 100%;
  width: 100%;
  min-height: 100%;
}

circle.node {
  stroke: #ccc;
  stroke-width: 1px;
  opacity: 1;
  fill: white;
}

circle.node.label {
    stroke: transparent;
    stroke-width: 0;
    fill: white;
}

circle.outline_node {
    stroke-width: 1px;
    fill: red;
}

circle.protein {
    fill: gray;
    fill-opacity: 0.5;
    stroke-width: 4;
}

circle.hidden_outline {
    stroke-width: 0px;
}


line.link {
  stroke: #999;
  stroke-opacity: 0.8;
  stroke-width: 2;
}

line.basepair {
  stroke: red;
}

line.intermolecule {
  stroke: blue;
}

line.chain_chain {
  stroke-dasharray: 3,3;
}

line.fake {
  stroke: green;
}

.transparent {
    fill: transparent;
    stroke-width: 0;
    stroke-opacity: 0;
    opacity: 0;
    visibility: hidden;
}

.drag_line {
  stroke: #999;
  stroke-width: 2;
  pointer-events: none;
}

.drag_line_hidden {
  stroke: #999;
  stroke-width: 0;
  pointer-events: none;
}

.d3-tip {
    line-height: 1;
    font-weight: bold;
    padding: 6px;
    background: rgba(0, 0, 0, 0.6);
    color: #fff;
    border-radius: 4px;
    pointer-events: none;
          }

text.node-label {
    font-weight: bold;
    font-family: Tahoma, Geneva, sans-serif;
    color: rgb(100,100,100);
    pointer-events: none;
}

text {
    pointer-events: none;
}

g.gnode {

}

circle.outline_node.selected {
    visibility: visible;
}

circle.outline_node {
    visibility: hidden;
}

.brush .extent {
  fill-opacity: .1;
  stroke: #fff;
  shape-rendering: crispEdges;
}

.noselect {
    -webkit-touch-callout: none;
    -webkit-user-select: none;
    -khtml-user-select: none;
    -moz-user-select: none;
    -ms-user-select: none;
    user-select: none;
}

svg {
  display: block;
  min-width: 100%;
  width: 100%;
  min-height: 100%;
}

circle.node {
  stroke: #ccc;
  stroke-width: 1px;
  opacity: 1;
  fill: white;
}

circle.node.label {
    stroke: transparent;
    stroke-width: 0;
    fill: white;
}

circle.outline_node {
    stroke-width: 1px;
    fill: red;
}

circle.protein {
    fill: gray;
    fill-opacity: 0.5;
    stroke-width: 4;
}

circle.hidden_outline {
    stroke-width: 0px;
}


line.link {
  stroke: #999;
  stroke-opacity: 0.8;
  stroke-width: 2;
}

line.basepair {
  stroke: red;
}

line.intermolecule {
  stroke: blue;
}

line.chain_chain {
  stroke-dasharray: 3,3;
}

line.fake {
  stroke: green;
}

.transparent {
    fill: transparent;
    stroke-width: 0;
    stroke-opacity: 0;
    opacity: 0;
    visibility: hidden;
}

.drag_line {
  stroke: #999;
  stroke-width: 2;
  pointer-events: none;
}

.drag_line_hidden {
  stroke: #999;
  stroke-width: 0;
  pointer-events: none;
}

.d3-tip {
    line-height: 1;
    font-weight: bold;
    padding: 6px;
    background: rgba(0, 0, 0, 0.6);
    color: #fff;
    border-radius: 4px;
    pointer-events: none;
          }

text.node-label {
    font-weight: bold;
    font-family: Tahoma, Geneva, sans-serif;
    color: rgb(100,100,100);
    pointer-events: none;
}

text {
    pointer-events: none;
}

g.gnode {

}

circle.outline_node.selected {
    visibility: visible;
}

circle.outline_node {
    visibility: hidden;
}

.brush .extent {
  fill-opacity: .1;
  stroke: #fff;
  shape-rendering: crispEdges;
}

.noselect {
    -webkit-touch-callout: none;
    -webkit-user-select: none;
    -khtml-user-select: none;
    -moz-user-select: none;
    -ms-user-select: none;
    user-select: none;
}
/*# sourceURL=/Users/yumanakamura/ipy_sandbox/sandbox/claude_sandbox/mrna-transformer-worktrees/feat-issue57-switch-derna-knotty/scripts/eval/prerender/forna_vendor/fornac.css*/</style><style></style><g><g class="brush" style="pointer-events: all; -webkit-tap-highlight-color: rgba(0, 0, 0, 0);"><rect class="background" x="0" width="760" y="0" height="640" style="visibility: hidden; cursor: auto;"></rect><rect class="extent" x="0" width="0" y="0" height="0" style="cursor: move;"></rect><g class="resize n" transform="translate(0,0)" style="cursor: ns-resize; display: none;"><rect y="-3" width="0" height="6" style="visibility: hidden;"></rect></g><g class="resize e" transform="translate(0,0)" style="cursor: ew-resize; display: none;"><rect x="-3" width="6" height="0" style="visibility: hidden;"></rect></g><g class="resize s" transform="translate(0,0)" style="cursor: ns-resize; display: none;"><rect y="-3" width="0" height="6" style="visibility: hidden;"></rect></g><g class="resize w" transform="translate(0,0)" style="cursor: ew-resize; display: none;"><rect x="-3" width="6" height="0" style="visibility: hidden;"></rect></g><g class="resize nw" transform="translate(0,0)" style="cursor: nwse-resize; display: none;"><rect x="-3" y="-3" width="6" height="6" style="visibility: hidden;"></rect></g><g class="resize ne" transform="translate(0,0)" style="cursor: nesw-resize; display: none;"><rect x="-3" y="-3" width="6" height="6" style="visibility: hidden;"></rect></g><g class="resize se" transform="translate(0,0)" style="cursor: nwse-resize; display: none;"><rect x="-3" y="-3" width="6" height="6" style="visibility: hidden;"></rect></g><g class="resize sw" transform="translate(0,0)" style="cursor: nesw-resize; display: none;"><rect x="-3" y="-3" width="6" height="6" style="visibility: hidden;"></rect></g></g><g transform="translate(76.98,119.72) scale(1.96)"><g><line class="link backbone" x1="120.31" y1="154.94" x2="116.15" y2="169.12"></line><line class="link backbone" x1="116.15" y1="169.12" x2="107.79" y2="181.41"></line><line class="link backbone" x1="107.79" y1="181.41" x2="96.18" y2="190.51"></line><line class="link backbone" x1="96.18" y1="190.51" x2="82.29" y2="195.77"></line><line class="link backbone" x1="82.29" y1="195.77" x2="67.45" y2="195.03"></line><line class="link backbone" x1="67.45" y1="195.03" x2="53.43" y2="191.01"></line><line class="link backbone" x1="53.43" y1="191.01" x2="40.15" y2="184.38"></line><line class="link backbone" x1="40.15" y1="184.38" x2="30.93" y2="172.69"></line><line class="link backbone" x1="30.93" y1="172.69" x2="25.58" y2="158.91"></line><line class="link backbone" x1="25.58" y1="158.91" x2="24.80" y2="144.11"></line><line class="link backbone" x1="24.80" y1="144.11" x2="28.51" y2="129.64"></line><line class="link backbone" x1="28.51" y1="129.64" x2="36.57" y2="116.93"></line><line class="link backbone" x1="36.57" y1="116.93" x2="48.26" y2="107.29"></line><line class="link basepair" x1="62.74" y1="101.95" x2="77.13" y2="98.98"></line><line class="link backbone" x1="48.26" y1="107.29" x2="62.74" y2="101.95"></line><line class="link basepair" x1="57.64" y1="88.17" x2="70.33" y2="81.98"></line><line class="link backbone" x1="62.74" y1="101.95" x2="57.64" y2="88.17"></line><line class="link basepair" x1="49.63" y1="74.53" x2="61.67" y2="66.85"></line><line class="link backbone" x1="57.64" y1="88.17" x2="49.63" y2="74.53"></line><line class="link basepair" x1="40.51" y1="61.37" x2="52.16" y2="52.91"></line><line class="link backbone" x1="49.63" y1="74.53" x2="40.51" y2="61.37"></line><line class="link basepair" x1="30.81" y1="48.71" x2="42.27" y2="39.75"></line><line class="link backbone" x1="40.51" y1="61.37" x2="30.81" y2="48.71"></line><line class="link basepair" x1="20.88" y1="36.59" x2="32.42" y2="27.19"></line><line class="link backbone" x1="30.81" y1="48.71" x2="20.88" y2="36.59"></line><line class="link backbone" x1="20.88" y1="36.59" x2="6.49" y2="31.02"></line><line class="link backbone" x1="6.49" y1="31.02" x2="4.19" y2="16.37"></line><line class="link backbone" x1="4.19" y1="16.37" x2="15.75" y2="6.84"></line><line class="link backbone" x1="15.75" y1="6.84" x2="29.83" y2="12.03"></line><line class="link basepair" x1="32.42" y1="27.19" x2="20.88" y2="36.59"></line><line class="link backbone" x1="29.83" y1="12.03" x2="32.42" y2="27.19"></line><line class="link basepair" x1="42.27" y1="39.75" x2="30.81" y2="48.71"></line><line class="link backbone" x1="32.42" y1="27.19" x2="42.27" y2="39.75"></line><line class="link basepair" x1="52.16" y1="52.91" x2="40.51" y2="61.37"></line><line class="link backbone" x1="42.27" y1="39.75" x2="52.16" y2="52.91"></line><line class="link basepair" x1="61.67" y1="66.85" x2="49.63" y2="74.53"></line><line class="link backbone" x1="52.16" y1="52.91" x2="61.67" y2="66.85"></line><line class="link basepair" x1="70.33" y1="81.98" x2="57.64" y2="88.17"></line><line class="link backbone" x1="61.67" y1="66.85" x2="70.33" y2="81.98"></line><line class="link basepair" x1="77.13" y1="98.98" x2="62.74" y2="101.95"></line><line class="link backbone" x1="70.33" y1="81.98" x2="77.13" y2="98.98"></line><line class="link basepair" x1="93.78" y1="103.21" x2="104.24" y2="113.29"></line><line class="link backbone" x1="77.13" y1="98.98" x2="93.78" y2="103.21"></line><line class="link basepair" x1="109.92" y1="92.88" x2="115.99" y2="105.68"></line><line class="link backbone" x1="93.78" y1="103.21" x2="109.92" y2="92.88"></line><line class="link basepair" x1="126.91" y1="87.01" x2="130.38" y2="100.81"></line><line class="link backbone" x1="109.92" y1="92.88" x2="126.91" y2="87.01"></line><line class="link basepair" x1="144.02" y1="83.87" x2="145.66" y2="98.14"></line><line class="link backbone" x1="126.91" y1="87.01" x2="144.02" y2="83.87"></line><line class="link basepair" x1="161.08" y1="82.90" x2="161.21" y2="97.32"></line><line class="link backbone" x1="144.02" y1="83.87" x2="161.08" y2="82.90"></line><line class="link basepair" x1="177.85" y1="83.45" x2="176.95" y2="97.85"></line><line class="link backbone" x1="161.08" y1="82.90" x2="177.85" y2="83.45"></line><line class="link basepair" x1="194.36" y1="84.89" x2="192.94" y2="99.25"></line><line class="link backbone" x1="177.85" y1="83.45" x2="194.36" y2="84.89"></line><line class="link basepair" x1="210.65" y1="86.67" x2="209.12" y2="101.01"></line><line class="link backbone" x1="194.36" y1="84.89" x2="210.65" y2="86.67"></line><line class="link basepair" x1="226.72" y1="88.31" x2="225.51" y2="102.65"></line><line class="link backbone" x1="210.65" y1="86.67" x2="226.72" y2="88.31"></line><line class="link basepair" x1="242.80" y1="89.46" x2="241.98" y2="103.87"></line><line class="link backbone" x1="226.72" y1="88.31" x2="242.80" y2="89.46"></line><line class="link basepair" x1="258.85" y1="90.08" x2="258.49" y2="104.54"></line><line class="link backbone" x1="242.80" y1="89.46" x2="258.85" y2="90.08"></line><line class="link basepair" x1="274.86" y1="90.23" x2="274.87" y2="104.75"></line><line class="link backbone" x1="258.85" y1="90.08" x2="274.86" y2="90.23"></line><line class="link basepair" x1="290.61" y1="89.91" x2="290.85" y2="104.78"></line><line class="link backbone" x1="274.86" y1="90.23" x2="290.61" y2="89.91"></line><line class="link backbone" x1="290.61" y1="89.91" x2="303.84" y2="82.03"></line><line class="link backbone" x1="303.84" y1="82.03" x2="316.83" y2="89.34"></line><line class="link backbone" x1="316.83" y1="89.34" x2="317.13" y2="104.32"></line><line class="link backbone" x1="317.13" y1="104.32" x2="304.44" y2="112.15"></line><line class="link basepair" x1="290.85" y1="104.78" x2="290.61" y2="89.91"></line><line class="link backbone" x1="304.44" y1="112.15" x2="290.85" y2="104.78"></line><line class="link basepair" x1="274.87" y1="104.75" x2="274.86" y2="90.23"></line><line class="link backbone" x1="290.85" y1="104.78" x2="274.87" y2="104.75"></line><line class="link basepair" x1="258.49" y1="104.54" x2="258.85" y2="90.08"></line><line class="link backbone" x1="274.87" y1="104.75" x2="258.49" y2="104.54"></line><line class="link basepair" x1="241.98" y1="103.87" x2="242.80" y2="89.46"></line><line class="link backbone" x1="258.49" y1="104.54" x2="241.98" y2="103.87"></line><line class="link basepair" x1="225.51" y1="102.65" x2="226.72" y2="88.31"></line><line class="link backbone" x1="241.98" y1="103.87" x2="225.51" y2="102.65"></line><line class="link basepair" x1="209.12" y1="101.01" x2="210.65" y2="86.67"></line><line class="link backbone" x1="225.51" y1="102.65" x2="209.12" y2="101.01"></line><line class="link basepair" x1="192.94" y1="99.25" x2="194.36" y2="84.89"></line><line class="link backbone" x1="209.12" y1="101.01" x2="192.94" y2="99.25"></line><line class="link basepair" x1="176.95" y1="97.85" x2="177.85" y2="83.45"></line><line class="link backbone" x1="192.94" y1="99.25" x2="176.95" y2="97.85"></line><line class="link basepair" x1="161.21" y1="97.32" x2="161.08" y2="82.90"></line><line class="link backbone" x1="176.95" y1="97.85" x2="161.21" y2="97.32"></line><line class="link basepair" x1="145.66" y1="98.14" x2="144.02" y2="83.87"></line><line class="link backbone" x1="161.21" y1="97.32" x2="145.66" y2="98.14"></line><line class="link basepair" x1="130.38" y1="100.81" x2="126.91" y2="87.01"></line><line class="link backbone" x1="145.66" y1="98.14" x2="130.38" y2="100.81"></line><line class="link basepair" x1="115.99" y1="105.68" x2="109.92" y2="92.88"></line><line class="link backbone" x1="130.38" y1="100.81" x2="115.99" y2="105.68"></line><line class="link basepair" x1="104.24" y1="113.29" x2="93.78" y2="103.21"></line><line class="link backbone" x1="115.99" y1="105.68" x2="104.24" y2="113.29"></line><line class="link label_link" x1="25.58" y1="158.91" x2="10.49" y2="161.73"></line><line class="link label_link" x1="20.88" y1="36.59" x2="6.73" y2="43.01"></line><line class="link label_link" x1="77.13" y1="98.98" x2="86.63" y2="86.79"></line><line class="link label_link" x1="242.80" y1="89.46" x2="243.03" y2="73.89"></line><line class="link label_link" x1="258.49" y1="104.54" x2="260.38" y2="120.04"></line><line class="link label_link" x1="104.24" y1="113.29" x2="101.92" y2="128.60"></line><line class="link fake transparent" x1="93.78" y1="103.21" x2="105.42" y2="102.83"></line><line class="link fake transparent" x1="93.78" y1="103.21" x2="115.99" y2="105.68"></line><line class="link fake transparent" x1="109.92" y1="92.88" x2="105.42" y2="102.83"></line><line class="link fake transparent" x1="115.99" y1="105.68" x2="105.42" y2="102.83"></line><line class="link fake transparent" x1="104.24" y1="113.29" x2="105.42" y2="102.83"></line><line class="link fake transparent" x1="109.92" y1="92.88" x2="120.61" y2="95.95"></line><line class="link fake transparent" x1="126.91" y1="87.01" x2="120.61" y2="95.95"></line><line class="link fake transparent" x1="130.38" y1="100.81" x2="120.61" y2="95.95"></line><line class="link fake transparent" x1="115.99" y1="105.68" x2="120.61" y2="95.95"></line><line class="link fake transparent" x1="126.91" y1="87.01" x2="136.64" y2="91.88"></line><line class="link fake transparent" x1="144.02" y1="83.87" x2="136.64" y2="91.88"></line><line class="link fake transparent" x1="145.66" y1="98.14" x2="136.64" y2="91.88"></line><line class="link fake transparent" x1="130.38" y1="100.81" x2="136.64" y2="91.88"></line><line class="link fake transparent" x1="144.02" y1="83.87" x2="152.95" y2="90.09"></line><line class="link fake transparent" x1="161.08" y1="82.90" x2="152.95" y2="90.09"></line><line class="link fake transparent" x1="161.21" y1="97.32" x2="152.95" y2="90.09"></line><line class="link fake transparent" x1="145.66" y1="98.14" x2="152.95" y2="90.09"></line><line class="link fake transparent" x1="161.08" y1="82.90" x2="169.25" y2="90.06"></line><line class="link fake transparent" x1="177.85" y1="83.45" x2="169.25" y2="90.06"></line><line class="link fake transparent" x1="176.95" y1="97.85" x2="169.25" y2="90.06"></line><line class="link fake transparent" x1="161.21" y1="97.32" x2="169.25" y2="90.06"></line><line class="link fake transparent" x1="177.85" y1="83.45" x2="185.55" y2="91.21"></line><line class="link fake transparent" x1="194.36" y1="84.89" x2="185.55" y2="91.21"></line><line class="link fake transparent" x1="192.94" y1="99.25" x2="185.55" y2="91.21"></line><line class="link fake transparent" x1="176.95" y1="97.85" x2="185.55" y2="91.21"></line><line class="link fake transparent" x1="194.36" y1="84.89" x2="201.76" y2="92.91"></line><line class="link fake transparent" x1="210.65" y1="86.67" x2="201.76" y2="92.91"></line><line class="link fake transparent" x1="209.12" y1="101.01" x2="201.76" y2="92.91"></line><line class="link fake transparent" x1="192.94" y1="99.25" x2="201.76" y2="92.91"></line><line class="link fake transparent" x1="210.65" y1="86.67" x2="217.99" y2="94.75"></line><line class="link fake transparent" x1="226.72" y1="88.31" x2="217.99" y2="94.75"></line><line class="link fake transparent" x1="225.51" y1="102.65" x2="217.99" y2="94.75"></line><line class="link fake transparent" x1="209.12" y1="101.01" x2="217.99" y2="94.75"></line><line class="link fake transparent" x1="226.72" y1="88.31" x2="234.22" y2="96.22"></line><line class="link fake transparent" x1="242.80" y1="89.46" x2="234.22" y2="96.22"></line><line class="link fake transparent" x1="241.98" y1="103.87" x2="234.22" y2="96.22"></line><line class="link fake transparent" x1="225.51" y1="102.65" x2="234.22" y2="96.22"></line><line class="link fake transparent" x1="242.80" y1="89.46" x2="250.53" y2="97.14"></line><line class="link fake transparent" x1="258.85" y1="90.08" x2="250.53" y2="97.14"></line><line class="link fake transparent" x1="258.49" y1="104.54" x2="250.53" y2="97.14"></line><line class="link fake transparent" x1="241.98" y1="103.87" x2="250.53" y2="97.14"></line><line class="link fake transparent" x1="258.85" y1="90.08" x2="266.81" y2="97.49"></line><line class="link fake transparent" x1="274.86" y1="90.23" x2="266.81" y2="97.49"></line><line class="link fake transparent" x1="274.87" y1="104.75" x2="266.81" y2="97.49"></line><line class="link fake transparent" x1="258.49" y1="104.54" x2="266.81" y2="97.49"></line><line class="link fake transparent" x1="274.86" y1="90.23" x2="282.89" y2="97.47"></line><line class="link fake transparent" x1="290.61" y1="89.91" x2="282.89" y2="97.47"></line><line class="link fake transparent" x1="290.85" y1="104.78" x2="282.89" y2="97.47"></line><line class="link fake transparent" x1="274.87" y1="104.75" x2="282.89" y2="97.47"></line><line class="link fake transparent" x1="62.74" y1="101.95" x2="67.64" y2="92.56"></line><line class="link fake transparent" x1="57.64" y1="88.17" x2="67.64" y2="92.56"></line><line class="link fake transparent" x1="70.33" y1="81.98" x2="67.64" y2="92.56"></line><line class="link fake transparent" x1="77.13" y1="98.98" x2="67.64" y2="92.56"></line><line class="link fake transparent" x1="57.64" y1="88.17" x2="60.14" y2="77.66"></line><line class="link fake transparent" x1="49.63" y1="74.53" x2="60.14" y2="77.66"></line><line class="link fake transparent" x1="61.67" y1="66.85" x2="60.14" y2="77.66"></line><line class="link fake transparent" x1="70.33" y1="81.98" x2="60.14" y2="77.66"></line><line class="link fake transparent" x1="49.63" y1="74.53" x2="51.16" y2="63.75"></line><line class="link fake transparent" x1="40.51" y1="61.37" x2="51.16" y2="63.75"></line><line class="link fake transparent" x1="52.16" y1="52.91" x2="51.16" y2="63.75"></line><line class="link fake transparent" x1="61.67" y1="66.85" x2="51.16" y2="63.75"></line><line class="link fake transparent" x1="40.51" y1="61.37" x2="41.53" y2="50.56"></line><line class="link fake transparent" x1="30.81" y1="48.71" x2="41.53" y2="50.56"></line><line class="link fake transparent" x1="42.27" y1="39.75" x2="41.53" y2="50.56"></line><line class="link fake transparent" x1="52.16" y1="52.91" x2="41.53" y2="50.56"></line><line class="link fake transparent" x1="30.81" y1="48.71" x2="31.65" y2="37.97"></line><line class="link fake transparent" x1="20.88" y1="36.59" x2="31.65" y2="37.97"></line><line class="link fake transparent" x1="32.42" y1="27.19" x2="31.65" y2="37.97"></line><line class="link fake transparent" x1="42.27" y1="39.75" x2="31.65" y2="37.97"></line><line class="link fake transparent" x1="120.31" y1="154.94" x2="72.86" y2="147.99"></line><line class="link fake transparent" x1="120.31" y1="154.94" x2="24.80" y2="144.11"></line><line class="link fake transparent" x1="116.15" y1="169.12" x2="72.86" y2="147.99"></line><line class="link fake transparent" x1="116.15" y1="169.12" x2="28.51" y2="129.64"></line><line class="link fake transparent" x1="107.79" y1="181.41" x2="72.86" y2="147.99"></line><line class="link fake transparent" x1="107.79" y1="181.41" x2="36.57" y2="116.93"></line><line class="link fake transparent" x1="96.18" y1="190.51" x2="72.86" y2="147.99"></line><line class="link fake transparent" x1="96.18" y1="190.51" x2="48.26" y2="107.29"></line><line class="link fake transparent" x1="82.29" y1="195.77" x2="72.86" y2="147.99"></line><line class="link fake transparent" x1="82.29" y1="195.77" x2="62.74" y2="101.95"></line><line class="link fake transparent" x1="67.45" y1="195.03" x2="72.86" y2="147.99"></line><line class="link fake transparent" x1="67.45" y1="195.03" x2="77.13" y2="98.98"></line><line class="link fake transparent" x1="53.43" y1="191.01" x2="72.86" y2="147.99"></line><line class="link fake transparent" x1="53.43" y1="191.01" x2="93.78" y2="103.21"></line><line class="link fake transparent" x1="40.15" y1="184.38" x2="72.86" y2="147.99"></line><line class="link fake transparent" x1="40.15" y1="184.38" x2="104.24" y2="113.29"></line><line class="link fake transparent" x1="30.93" y1="172.69" x2="72.86" y2="147.99"></line><line class="link fake transparent" x1="30.93" y1="172.69" x2="114.10" y2="125.21"></line><line class="link fake transparent" x1="25.58" y1="158.91" x2="72.86" y2="147.99"></line><line class="link fake transparent" x1="25.58" y1="158.91" x2="119.39" y2="139.23"></line><line class="link fake transparent" x1="24.80" y1="144.11" x2="72.86" y2="147.99"></line><line class="link fake transparent" x1="24.80" y1="144.11" x2="120.31" y2="154.94"></line><line class="link fake transparent" x1="28.51" y1="129.64" x2="72.86" y2="147.99"></line><line class="link fake transparent" x1="28.51" y1="129.64" x2="116.15" y2="169.12"></line><line class="link fake transparent" x1="36.57" y1="116.93" x2="72.86" y2="147.99"></line><line class="link fake transparent" x1="36.57" y1="116.93" x2="107.79" y2="181.41"></line><line class="link fake transparent" x1="48.26" y1="107.29" x2="72.86" y2="147.99"></line><line class="link fake transparent" x1="48.26" y1="107.29" x2="96.18" y2="190.51"></line><line class="link fake transparent" x1="62.74" y1="101.95" x2="72.86" y2="147.99"></line><line class="link fake transparent" x1="62.74" y1="101.95" x2="82.29" y2="195.77"></line><line class="link fake transparent" x1="77.13" y1="98.98" x2="72.86" y2="147.99"></line><line class="link fake transparent" x1="77.13" y1="98.98" x2="67.45" y2="195.03"></line><line class="link fake transparent" x1="93.78" y1="103.21" x2="72.86" y2="147.99"></line><line class="link fake transparent" x1="93.78" y1="103.21" x2="53.43" y2="191.01"></line><line class="link fake transparent" x1="104.24" y1="113.29" x2="72.86" y2="147.99"></line><line class="link fake transparent" x1="104.24" y1="113.29" x2="40.15" y2="184.38"></line><line class="link fake transparent" x1="290.61" y1="89.91" x2="303.92" y2="97.10"></line><line class="link fake transparent" x1="290.61" y1="89.91" x2="317.13" y2="104.32"></line><line class="link fake transparent" x1="303.84" y1="82.03" x2="303.92" y2="97.10"></line><line class="link fake transparent" x1="303.84" y1="82.03" x2="304.44" y2="112.15"></line><line class="link fake transparent" x1="316.83" y1="89.34" x2="303.92" y2="97.10"></line><line class="link fake transparent" x1="316.83" y1="89.34" x2="290.85" y2="104.78"></line><line class="link fake transparent" x1="317.13" y1="104.32" x2="303.92" y2="97.10"></line><line class="link fake transparent" x1="317.13" y1="104.32" x2="290.61" y2="89.91"></line><line class="link fake transparent" x1="304.44" y1="112.15" x2="303.92" y2="97.10"></line><line class="link fake transparent" x1="304.44" y1="112.15" x2="303.84" y2="82.03"></line><line class="link fake transparent" x1="290.85" y1="104.78" x2="303.92" y2="97.10"></line><line class="link fake transparent" x1="290.85" y1="104.78" x2="316.83" y2="89.34"></line><line class="link fake transparent" x1="20.88" y1="36.59" x2="18.32" y2="21.68"></line><line class="link fake transparent" x1="20.88" y1="36.59" x2="15.75" y2="6.84"></line><line class="link fake transparent" x1="6.49" y1="31.02" x2="18.32" y2="21.68"></line><line class="link fake transparent" x1="6.49" y1="31.02" x2="29.83" y2="12.03"></line><line class="link fake transparent" x1="4.19" y1="16.37" x2="18.32" y2="21.68"></line><line class="link fake transparent" x1="4.19" y1="16.37" x2="32.42" y2="27.19"></line><line class="link fake transparent" x1="15.75" y1="6.84" x2="18.32" y2="21.68"></line><line class="link fake transparent" x1="15.75" y1="6.84" x2="20.88" y2="36.59"></line><line class="link fake transparent" x1="29.83" y1="12.03" x2="18.32" y2="21.68"></line><line class="link fake transparent" x1="29.83" y1="12.03" x2="6.49" y2="31.02"></line><line class="link fake transparent" x1="32.42" y1="27.19" x2="18.32" y2="21.68"></line><line class="link fake transparent" x1="32.42" y1="27.19" x2="4.19" y2="16.37"></line></g><g><g class="noselect gnode" struct_name="m" transform="translate(120.31,154.94)" r="6.5"><circle class="node" r="6" node_type="nucleotide" style="fill: lightsalmon;"></circle><text text-anchor="middle" font-size="8" font-weight="bold" y="2.5" class="node-label">A</text></g><g class="noselect gnode" struct_name="m" transform="translate(116.15,169.12)" r="6.5"><circle class="node" r="6" node_type="nucleotide" style="fill: lightsalmon;"></circle><text text-anchor="middle" font-size="8" font-weight="bold" y="2.5" class="node-label">A</text></g><g class="noselect gnode" struct_name="m" transform="translate(107.79,181.41)" r="6.5"><circle class="node" r="6" node_type="nucleotide" style="fill: lightsalmon;"></circle><text text-anchor="middle" font-size="8" font-weight="bold" y="2.5" class="node-label">U</text></g><g class="noselect gnode" struct_name="m" transform="translate(96.18,190.51)" r="6.5"><circle class="node" r="6" node_type="nucleotide" style="fill: lightsalmon;"></circle><text text-anchor="middle" font-size="8" font-weight="bold" y="2.5" class="node-label">C</text></g><g class="noselect gnode" struct_name="m" transform="translate(82.29,195.77)" r="6.5"><circle class="node" r="6" node_type="nucleotide" style="fill: lightsalmon;"></circle><text text-anchor="middle" font-size="8" font-weight="bold" y="2.5" class="node-label">U</text></g><g class="noselect gnode" struct_name="m" transform="translate(67.45,195.03)" r="6.5"><circle class="node" r="6" node_type="nucleotide" style="fill: lightsalmon;"></circle><text text-anchor="middle" font-size="8" font-weight="bold" y="2.5" class="node-label">U</text></g><g class="noselect gnode" struct_name="m" transform="translate(53.43,191.01)" r="6.5"><circle class="node" r="6" node_type="nucleotide" style="fill: lightsalmon;"></circle><text text-anchor="middle" font-size="8" font-weight="bold" y="2.5" class="node-label">C</text></g><g class="noselect gnode" struct_name="m" transform="translate(40.15,184.38)" r="6.5"><circle class="node" r="6" node_type="nucleotide" style="fill: lightsalmon;"></circle><text text-anchor="middle" font-size="8" font-weight="bold" y="2.5" class="node-label">U</text></g><g class="noselect gnode" struct_name="m" transform="translate(30.93,172.69)" r="6.5"><circle class="node" r="6" node_type="nucleotide" style="fill: lightsalmon;"></circle><text text-anchor="middle" font-size="8" font-weight="bold" y="2.5" class="node-label">U</text></g><g class="noselect gnode" struct_name="m" transform="translate(25.58,158.91)" r="6.5"><circle class="node" r="6" node_type="nucleotide" style="fill: lightsalmon;"></circle><text text-anchor="middle" font-size="8" font-weight="bold" y="2.5" class="node-label">U</text></g><g class="noselect gnode" struct_name="m" transform="translate(24.80,144.11)" r="6.5"><circle class="node" r="6" node_type="nucleotide" style="fill: lightsalmon;"></circle><text text-anchor="middle" font-size="8" font-weight="bold" y="2.5" class="node-label">A</text></g><g class="noselect gnode" struct_name="m" transform="translate(28.51,129.64)" r="6.5"><circle class="node" r="6" node_type="nucleotide" style="fill: lightsalmon;"></circle><text text-anchor="middle" font-size="8" font-weight="bold" y="2.5" class="node-label">U</text></g><g class="noselect gnode" struct_name="m" transform="translate(36.57,116.93)" r="6.5"><circle class="node" r="6" node_type="nucleotide" style="fill: lightsalmon;"></circle><text text-anchor="middle" font-size="8" font-weight="bold" y="2.5" class="node-label">A</text></g><g class="noselect gnode" struct_name="m" transform="translate(48.26,107.29)" r="6.5"><circle class="node" r="6" node_type="nucleotide" style="fill: lightsalmon;"></circle><text text-anchor="middle" font-size="8" font-weight="bold" y="2.5" class="node-label">A</text></g><g class="noselect gnode" struct_name="m" transform="translate(62.74,101.95)" r="6.5"><circle class="node" r="6" node_type="nucleotide" style="fill: lightgreen;"></circle><text text-anchor="middle" font-size="8" font-weight="bold" y="2.5" class="node-label">C</text></g><g class="noselect gnode" struct_name="m" transform="translate(57.64,88.17)" r="6.5"><circle class="node" r="6" node_type="nucleotide" style="fill: lightgreen;"></circle><text text-anchor="middle" font-size="8" font-weight="bold" y="2.5" class="node-label">G</text></g><g class="noselect gnode" struct_name="m" transform="translate(49.63,74.53)" r="6.5"><circle class="node" r="6" node_type="nucleotide" style="fill: lightgreen;"></circle><text text-anchor="middle" font-size="8" font-weight="bold" y="2.5" class="node-label">C</text></g><g class="noselect gnode" struct_name="m" transform="translate(40.51,61.37)" r="6.5"><circle class="node" r="6" node_type="nucleotide" style="fill: lightgreen;"></circle><text text-anchor="middle" font-size="8" font-weight="bold" y="2.5" class="node-label">G</text></g><g class="noselect gnode" struct_name="m" transform="translate(30.81,48.71)" r="6.5"><circle class="node" r="6" node_type="nucleotide" style="fill: lightgreen;"></circle><text text-anchor="middle" font-size="8" font-weight="bold" y="2.5" class="node-label">U</text></g><g class="noselect gnode" struct_name="m" transform="translate(20.88,36.59)" r="6.5"><circle class="node" r="6" node_type="nucleotide" style="fill: lightgreen;"></circle><text text-anchor="middle" font-size="8" font-weight="bold" y="2.5" class="node-label">U</text></g><g class="noselect gnode" struct_name="m" transform="translate(6.49,31.02)" r="6.5"><circle class="node" r="6" node_type="nucleotide" style="fill: lightblue;"></circle><text text-anchor="middle" font-size="8" font-weight="bold" y="2.5" class="node-label">U</text></g><g class="noselect gnode" struct_name="m" transform="translate(4.19,16.37)" r="6.5"><circle class="node" r="6" node_type="nucleotide" style="fill: lightblue;"></circle><text text-anchor="middle" font-size="8" font-weight="bold" y="2.5" class="node-label">C</text></g><g class="noselect gnode" struct_name="m" transform="translate(15.75,6.84)" r="6.5"><circle class="node" r="6" node_type="nucleotide" style="fill: lightblue;"></circle><text text-anchor="middle" font-size="8" font-weight="bold" y="2.5" class="node-label">U</text></g><g class="noselect gnode" struct_name="m" transform="translate(29.83,12.03)" r="6.5"><circle class="node" r="6" node_type="nucleotide" style="fill: lightblue;"></circle><text text-anchor="middle" font-size="8" font-weight="bold" y="2.5" class="node-label">U</text></g><g class="noselect gnode" struct_name="m" transform="translate(32.42,27.19)" r="6.5"><circle class="node" r="6" node_type="nucleotide" style="fill: lightgreen;"></circle><text text-anchor="middle" font-size="8" font-weight="bold" y="2.5" class="node-label">A</text></g><g class="noselect gnode" struct_name="m" transform="translate(42.27,39.75)" r="6.5"><circle class="node" r="6" node_type="nucleotide" style="fill: lightgreen;"></circle><text text-anchor="middle" font-size="8" font-weight="bold" y="2.5" class="node-label">A</text></g><g class="noselect gnode" struct_name="m" transform="translate(52.16,52.91)" r="6.5"><circle class="node" r="6" node_type="nucleotide" style="fill: lightgreen;"></circle><text text-anchor="middle" font-size="8" font-weight="bold" y="2.5" class="node-label">C</text></g><g class="noselect gnode" struct_name="m" transform="translate(61.67,66.85)" r="6.5"><circle class="node" r="6" node_type="nucleotide" style="fill: lightgreen;"></circle><text text-anchor="middle" font-size="8" font-weight="bold" y="2.5" class="node-label">G</text></g><g class="noselect gnode" struct_name="m" transform="translate(70.33,81.98)" r="6.5"><circle class="node" r="6" node_type="nucleotide" style="fill: lightgreen;"></circle><text text-anchor="middle" font-size="8" font-weight="bold" y="2.5" class="node-label">C</text></g><g class="noselect gnode" struct_name="m" transform="translate(77.13,98.98)" r="6.5"><circle class="node" r="6" node_type="nucleotide" style="fill: lightgreen;"></circle><text text-anchor="middle" font-size="8" font-weight="bold" y="2.5" class="node-label">G</text></g><g class="noselect gnode" struct_name="m" transform="translate(93.78,103.21)" r="6.5"><circle class="node" r="6" node_type="nucleotide" style="fill: lightgreen;"></circle><text text-anchor="middle" font-size="8" font-weight="bold" y="2.5" class="node-label">C</text></g><g class="noselect gnode" struct_name="m" transform="translate(109.92,92.88)" r="6.5"><circle class="node" r="6" node_type="nucleotide" style="fill: lightgreen;"></circle><text text-anchor="middle" font-size="8" font-weight="bold" y="2.5" class="node-label">G</text></g><g class="noselect gnode" struct_name="m" transform="translate(126.91,87.01)" r="6.5"><circle class="node" r="6" node_type="nucleotide" style="fill: lightgreen;"></circle><text text-anchor="middle" font-size="8" font-weight="bold" y="2.5" class="node-label">G</text></g><g class="noselect gnode" struct_name="m" transform="translate(144.02,83.87)" r="6.5"><circle class="node" r="6" node_type="nucleotide" style="fill: lightgreen;"></circle><text text-anchor="middle" font-size="8" font-weight="bold" y="2.5" class="node-label">A</text></g><g class="noselect gnode" struct_name="m" transform="translate(161.08,82.90)" r="6.5"><circle class="node" r="6" node_type="nucleotide" style="fill: lightgreen;"></circle><text text-anchor="middle" font-size="8" font-weight="bold" y="2.5" class="node-label">U</text></g><g class="noselect gnode" struct_name="m" transform="translate(177.85,83.45)" r="6.5"><circle class="node" r="6" node_type="nucleotide" style="fill: lightgreen;"></circle><text text-anchor="middle" font-size="8" font-weight="bold" y="2.5" class="node-label">U</text></g><g class="noselect gnode" struct_name="m" transform="translate(194.36,84.89)" r="6.5"><circle class="node" r="6" node_type="nucleotide" style="fill: lightgreen;"></circle><text text-anchor="middle" font-size="8" font-weight="bold" y="2.5" class="node-label">U</text></g><g class="noselect gnode" struct_name="m" transform="translate(210.65,86.67)" r="6.5"><circle class="node" r="6" node_type="nucleotide" style="fill: lightgreen;"></circle><text text-anchor="middle" font-size="8" font-weight="bold" y="2.5" class="node-label">C</text></g><g class="noselect gnode" struct_name="m" transform="translate(226.72,88.31)" r="6.5"><circle class="node" r="6" node_type="nucleotide" style="fill: lightgreen;"></circle><text text-anchor="middle" font-size="8" font-weight="bold" y="2.5" class="node-label">A</text></g><g class="noselect gnode" struct_name="m" transform="translate(242.80,89.46)" r="6.5"><circle class="node" r="6" node_type="nucleotide" style="fill: lightgreen;"></circle><text text-anchor="middle" font-size="8" font-weight="bold" y="2.5" class="node-label">C</text></g><g class="noselect gnode" struct_name="m" transform="translate(258.85,90.08)" r="6.5"><circle class="node" r="6" node_type="nucleotide" style="fill: lightgreen;"></circle><text text-anchor="middle" font-size="8" font-weight="bold" y="2.5" class="node-label">G</text></g><g class="noselect gnode" struct_name="m" transform="translate(274.86,90.23)" r="6.5"><circle class="node" r="6" node_type="nucleotide" style="fill: lightgreen;"></circle><text text-anchor="middle" font-size="8" font-weight="bold" y="2.5" class="node-label">G</text></g><g class="noselect gnode" struct_name="m" transform="translate(290.61,89.91)" r="6.5"><circle class="node" r="6" node_type="nucleotide" style="fill: lightgreen;"></circle><text text-anchor="middle" font-size="8" font-weight="bold" y="2.5" class="node-label">C</text></g><g class="noselect gnode" struct_name="m" transform="translate(303.84,82.03)" r="6.5"><circle class="node" r="6" node_type="nucleotide" style="fill: lightblue;"></circle><text text-anchor="middle" font-size="8" font-weight="bold" y="2.5" class="node-label">U</text></g><g class="noselect gnode" struct_name="m" transform="translate(316.83,89.34)" r="6.5"><circle class="node" r="6" node_type="nucleotide" style="fill: lightblue;"></circle><text text-anchor="middle" font-size="8" font-weight="bold" y="2.5" class="node-label">U</text></g><g class="noselect gnode" struct_name="m" transform="translate(317.13,104.32)" r="6.5"><circle class="node" r="6" node_type="nucleotide" style="fill: lightblue;"></circle><text text-anchor="middle" font-size="8" font-weight="bold" y="2.5" class="node-label">G</text></g><g class="noselect gnode" struct_name="m" transform="translate(304.44,112.15)" r="6.5"><circle class="node" r="6" node_type="nucleotide" style="fill: lightblue;"></circle><text text-anchor="middle" font-size="8" font-weight="bold" y="2.5" class="node-label">C</text></g><g class="noselect gnode" struct_name="m" transform="translate(290.85,104.78)" r="6.5"><circle class="node" r="6" node_type="nucleotide" style="fill: lightgreen;"></circle><text text-anchor="middle" font-size="8" font-weight="bold" y="2.5" class="node-label">G</text></g><g class="noselect gnode" struct_name="m" transform="translate(274.87,104.75)" r="6.5"><circle class="node" r="6" node_type="nucleotide" style="fill: lightgreen;"></circle><text text-anchor="middle" font-size="8" font-weight="bold" y="2.5" class="node-label">C</text></g><g class="noselect gnode" struct_name="m" transform="translate(258.49,104.54)" r="6.5"><circle class="node" r="6" node_type="nucleotide" style="fill: lightgreen;"></circle><text text-anchor="middle" font-size="8" font-weight="bold" y="2.5" class="node-label">C</text></g><g class="noselect gnode" struct_name="m" transform="translate(241.98,103.87)" r="6.5"><circle class="node" r="6" node_type="nucleotide" style="fill: lightgreen;"></circle><text text-anchor="middle" font-size="8" font-weight="bold" y="2.5" class="node-label">G</text></g><g class="noselect gnode" struct_name="m" transform="translate(225.51,102.65)" r="6.5"><circle class="node" r="6" node_type="nucleotide" style="fill: lightgreen;"></circle><text text-anchor="middle" font-size="8" font-weight="bold" y="2.5" class="node-label">U</text></g><g class="noselect gnode" struct_name="m" transform="translate(209.12,101.01)" r="6.5"><circle class="node" r="6" node_type="nucleotide" style="fill: lightgreen;"></circle><text text-anchor="middle" font-size="8" font-weight="bold" y="2.5" class="node-label">G</text></g><g class="noselect gnode" struct_name="m" transform="translate(192.94,99.25)" r="6.5"><circle class="node" r="6" node_type="nucleotide" style="fill: lightgreen;"></circle><text text-anchor="middle" font-size="8" font-weight="bold" y="2.5" class="node-label">G</text></g><g class="noselect gnode" struct_name="m" transform="translate(176.95,97.85)" r="6.5"><circle class="node" r="6" node_type="nucleotide" style="fill: lightgreen;"></circle><text text-anchor="middle" font-size="8" font-weight="bold" y="2.5" class="node-label">A</text></g><g class="noselect gnode" struct_name="m" transform="translate(161.21,97.32)" r="6.5"><circle class="node" r="6" node_type="nucleotide" style="fill: lightgreen;"></circle><text text-anchor="middle" font-size="8" font-weight="bold" y="2.5" class="node-label">A</text></g><g class="noselect gnode" struct_name="m" transform="translate(145.66,98.14)" r="6.5"><circle class="node" r="6" node_type="nucleotide" style="fill: lightgreen;"></circle><text text-anchor="middle" font-size="8" font-weight="bold" y="2.5" class="node-label">U</text></g><g class="noselect gnode" struct_name="m" transform="translate(130.38,100.81)" r="6.5"><circle class="node" r="6" node_type="nucleotide" style="fill: lightgreen;"></circle><text text-anchor="middle" font-size="8" font-weight="bold" y="2.5" class="node-label">C</text></g><g class="noselect gnode" struct_name="m" transform="translate(115.99,105.68)" r="6.5"><circle class="node" r="6" node_type="nucleotide" style="fill: lightgreen;"></circle><text text-anchor="middle" font-size="8" font-weight="bold" y="2.5" class="node-label">C</text></g><g class="noselect gnode" struct_name="m" transform="translate(104.24,113.29)" r="6.5"><circle class="node" r="6" node_type="nucleotide" style="fill: lightgreen;"></circle><text text-anchor="middle" font-size="8" font-weight="bold" y="2.5" class="node-label">G</text></g><g class="noselect gnode" struct_name="m" transform="translate(10.49,161.73)" r="6.5"><circle class="node label" r="6" node_type="label"></circle><text text-anchor="middle" font-size="8" font-weight="bold" y="2.5" class="node-label">10</text></g><g class="noselect gnode" struct_name="m" transform="translate(6.73,43.01)" r="6.5"><circle class="node label" r="6" node_type="label"></circle><text text-anchor="middle" font-size="8" font-weight="bold" y="2.5" class="node-label">20</text></g><g class="noselect gnode" struct_name="m" transform="translate(86.63,86.79)" r="6.5"><circle class="node label" r="6" node_type="label"></circle><text text-anchor="middle" font-size="8" font-weight="bold" y="2.5" class="node-label">30</text></g><g class="noselect gnode" struct_name="m" transform="translate(243.03,73.89)" r="6.5"><circle class="node label" r="6" node_type="label"></circle><text text-anchor="middle" font-size="8" font-weight="bold" y="2.5" class="node-label">40</text></g><g class="noselect gnode" struct_name="m" transform="translate(260.38,120.04)" r="6.5"><circle class="node label" r="6" node_type="label"></circle><text text-anchor="middle" font-size="8" font-weight="bold" y="2.5" class="node-label">50</text></g><g class="noselect gnode" struct_name="m" transform="translate(101.92,128.60)" r="6.5"><circle class="node label" r="6" node_type="label"></circle><text text-anchor="middle" font-size="8" font-weight="bold" y="2.5" class="node-label">60</text></g><g class="noselect gnode" transform="translate(105.42,102.83)" r="6.5"><circle class="node" r="0" node_type="middle"></circle><text text-anchor="middle" font-size="8" font-weight="bold" y="2.5" class="node-label"></text></g><g class="noselect gnode" transform="translate(120.61,95.95)" r="6.5"><circle class="node" r="0" node_type="middle"></circle><text text-anchor="middle" font-size="8" font-weight="bold" y="2.5" class="node-label"></text></g><g class="noselect gnode" transform="translate(136.64,91.88)" r="6.5"><circle class="node" r="0" node_type="middle"></circle><text text-anchor="middle" font-size="8" font-weight="bold" y="2.5" class="node-label"></text></g><g class="noselect gnode" transform="translate(152.95,90.09)" r="6.5"><circle class="node" r="0" node_type="middle"></circle><text text-anchor="middle" font-size="8" font-weight="bold" y="2.5" class="node-label"></text></g><g class="noselect gnode" transform="translate(169.25,90.06)" r="6.5"><circle class="node" r="0" node_type="middle"></circle><text text-anchor="middle" font-size="8" font-weight="bold" y="2.5" class="node-label"></text></g><g class="noselect gnode" transform="translate(185.55,91.21)" r="6.5"><circle class="node" r="0" node_type="middle"></circle><text text-anchor="middle" font-size="8" font-weight="bold" y="2.5" class="node-label"></text></g><g class="noselect gnode" transform="translate(201.76,92.91)" r="6.5"><circle class="node" r="0" node_type="middle"></circle><text text-anchor="middle" font-size="8" font-weight="bold" y="2.5" class="node-label"></text></g><g class="noselect gnode" transform="translate(217.99,94.75)" r="6.5"><circle class="node" r="0" node_type="middle"></circle><text text-anchor="middle" font-size="8" font-weight="bold" y="2.5" class="node-label"></text></g><g class="noselect gnode" transform="translate(234.22,96.22)" r="6.5"><circle class="node" r="0" node_type="middle"></circle><text text-anchor="middle" font-size="8" font-weight="bold" y="2.5" class="node-label"></text></g><g class="noselect gnode" transform="translate(250.53,97.14)" r="6.5"><circle class="node" r="0" node_type="middle"></circle><text text-anchor="middle" font-size="8" font-weight="bold" y="2.5" class="node-label"></text></g><g class="noselect gnode" transform="translate(266.81,97.49)" r="6.5"><circle class="node" r="0" node_type="middle"></circle><text text-anchor="middle" font-size="8" font-weight="bold" y="2.5" class="node-label"></text></g><g class="noselect gnode" transform="translate(282.89,97.47)" r="6.5"><circle class="node" r="0" node_type="middle"></circle><text text-anchor="middle" font-size="8" font-weight="bold" y="2.5" class="node-label"></text></g><g class="noselect gnode" transform="translate(67.64,92.56)" r="6.5"><circle class="node" r="0" node_type="middle"></circle><text text-anchor="middle" font-size="8" font-weight="bold" y="2.5" class="node-label"></text></g><g class="noselect gnode" transform="translate(60.14,77.66)" r="6.5"><circle class="node" r="0" node_type="middle"></circle><text text-anchor="middle" font-size="8" font-weight="bold" y="2.5" class="node-label"></text></g><g class="noselect gnode" transform="translate(51.16,63.75)" r="6.5"><circle class="node" r="0" node_type="middle"></circle><text text-anchor="middle" font-size="8" font-weight="bold" y="2.5" class="node-label"></text></g><g class="noselect gnode" transform="translate(41.53,50.56)" r="6.5"><circle class="node" r="0" node_type="middle"></circle><text text-anchor="middle" font-size="8" font-weight="bold" y="2.5" class="node-label"></text></g><g class="noselect gnode" transform="translate(31.65,37.97)" r="6.5"><circle class="node" r="0" node_type="middle"></circle><text text-anchor="middle" font-size="8" font-weight="bold" y="2.5" class="node-label"></text></g><g class="noselect gnode" transform="translate(114.10,125.21)" r="6.5"><circle class="node" r="0" node_type="middle"></circle><text text-anchor="middle" font-size="8" font-weight="bold" y="2.5" class="node-label"></text></g><g class="noselect gnode" transform="translate(119.39,139.23)" r="6.5"><circle class="node" r="0" node_type="middle"></circle><text text-anchor="middle" font-size="8" font-weight="bold" y="2.5" class="node-label"></text></g><g class="noselect gnode" transform="translate(72.86,147.99)" r="6.5"><circle class="node" r="0" node_type="middle"></circle><text text-anchor="middle" font-size="8" font-weight="bold" y="2.5" class="node-label"></text></g><g class="noselect gnode" transform="translate(303.92,97.10)" r="6.5"><circle class="node" r="0" node_type="middle"></circle><text text-anchor="middle" font-size="8" font-weight="bold" y="2.5" class="node-label"></text></g><g class="noselect gnode" transform="translate(18.32,21.68)" r="6.5"><circle class="node" r="0" node_type="middle"></circle><text text-anchor="middle" font-size="8" font-weight="bold" y="2.5" class="node-label"></text></g></g><line class="drag_line" x1="0" y1="0" x2="0" y2="0"></line></g></g></svg>