<svg xmlns="http://www.w3.org/2000/svg" viewBox="0 0 760 640" width="760" height="640"><style>svg {
  display: block;
  min-width: 100%;
  width: 100%;
  min-height: 100%;
}

circle.node {
  stroke: #ccc;
  stroke-width: 1px;
  opacity: 1;
  fill: white;
}

circle.node.label {
    stroke: transparent;
    stroke-width: 0;
    fill: white;
}

circle.outline_node {
    stroke-width: 1px;
    fill: red;
}

circle.protein {
    fill: gray;
    fill-opacity: 0.5;
    stroke-width: 4;
}

circle.hidden_outline {
    stroke-width: 0px;
}


line.link {
  stroke: #999;
  stroke-opacity: 0.8;
  stroke-width: 2;
}

line.basepair {
  stroke: red;
}

line.intermolecule {
  stroke: blue;
}

line.chain_chain {
  stroke-dasharray: 3,3;
}

line.fake {
  stroke: green;
}

.transparent {
    fill: transparent;
    stroke-width: 0;
    stroke-opacity: 0;
    opacity: 0;
    visibility: hidden;
}

.drag_line {
  stroke: #999;
  stroke-width: 2;
  pointer-events: none;
}

.drag_line_hidden {
  stroke: #999;
  stroke-width: 0;
  pointer-events: none;
}

.d3-tip {
    line-height: 1;
    font-weight: bold;
    padding: 6px;
    background: rgba(0, 0, 0, 0.6);
    color: #fff;
    border-radius: 4px;
    pointer-events: none;
          }

text.node-label {
    font-weight: bold;
    font-family: Tahoma, Geneva, sans-serif;
    color: rgb(100,100,100);
    pointer-events: none;
}

text {
    pointer-events: none;
}

g.gnode {

}

circle.outline_node.selected {
    visibility: visible;
}

circle.outline_node {
    visibility: hidden;
}

.brush .extent {
  fill-opacity: .1;
  stroke: #fff;
  shape-rendering: crispEdges;
}

.noselect {
    -webkit-touch-callout: none;
    -webkit-user-select: none;
    -khtml-user-select: none;
    -moz-user-select: none;
    -ms-user-select: none;
    user-select: none;
}

svg {
  display: block;
  min-width: 100%;
  width: 100%;
  min-height: 100%;
}

circle.node {
  stroke: #ccc;
  stroke-width: 1px;
  opacity: 1;
  fill: white;
}

circle.node.label {
    stroke: transparent;
    stroke-width: 0;
    fill: white;
}

circle.outline_node {
    stroke-width: 1px;
    fill: red;
}

circle.protein {
    fill: gray;
    fill-opacity: 0.5;
    stroke-width: 4;
}

circle.hidden_outline {
    stroke-width: 0px;
}


line.link {
  stroke: #999;
  stroke-opacity: 0.8;
  stroke-width: 2;
}

line.basepair {
  stroke: red;
}

line.intermolecule {
  stroke: blue;
}

line.chain_chain {
  stroke-dasharray: 3,3;
}

line.fake {
  stroke: green;
}

.transparent {
    fill: transparent;
    stroke-width: 0;
    stroke-opacity: 0;
    opacity: 0;
    visibility: hidden;
}

.drag_line {
  stroke: #999;
  stroke-width: 2;
  pointer-events: none;
}

.drag_line_hidden {
  stroke: #999;
  stroke-width: 0;
  pointer-events: none;
}

.d3-tip {
    line-height: 1;
    font-weight: bold;
    padding: 6px;
    background: rgba(0, 0, 0, 0.6);
    color: #fff;
    border-radius: 4px;
    pointer-events: none;
          }

text.node-label {
    font-weight: bold;
    font-family: Tahoma, Geneva, sans-serif;
    color: rgb(100,100,100);
    pointer-events: none;
}

text {
    pointer-events: none;
}

g.gnode {

}

circle.outline_node.selected {
    visibility: visible;
}

circle.outline_node {
    visibility: hidden;
}

.brush .extent {
  fill-opacity: .1;
  stroke: #fff;
  shape-rendering: crispEdges;
}

.noselect {
    -webkit-touch-callout: none;
    -webkit-user-select: none;
    -khtml-user-select: none;
    -moz-user-select: none;
    -ms-user-select: none;
    user-select: none;
}
/*# sourceURL=/Users/yumanakamura/ipy_sandbox/sandbox/claude_sandbox/mrna-transformer-worktrees/feat-issue57-switch-derna-knotty/scripts/eval/prerender/forna_vendor/fornac.css*/</style><style></style><g><g class="brush" style="pointer-events: all; -webkit-tap-highlight-color: rgba(0, 0, 0, 0);"><rect class="background" x="0" width="760" y="0" height="640" style="visibility: hidden; cursor: auto;"></rect><rect class="extent" x="0" width="0" y="0" height="0" style="cursor: move;"></rect><g class="resize n" transform="translate(0,0)" style="cursor: ns-resize; display: none;"><rect y="-3" width="0" height="6" style="visibility: hidden;"></rect></g><g class="resize e" transform="translate(0,0)" style="cursor: ew-resize; display: none;"><rect x="-3" width="6" height="0" style="visibility: hidden;"></rect></g><g class="resize s" transform="translate(0,0)" style="cursor: ns-resize; display: none;"><rect y="-3" width="0" height="6" style="visibility: hidden;"></rect></g><g class="resize w" transform="translate(0,0)" style="cursor: ew-resize; display: none;"><rect x="-3" width="6" height="0" style="visibility: hidden;"></rect></g><g class="resize nw" transform="translate(0,0)" style="cursor: nwse-resize; display: none;"><rect x="-3" y="-3" width="6" height="6" style="visibility: hidden;"></rect></g><g class="resize ne" transform="translate(0,0)" style="cursor: nesw-resize; display: none;"><rect x="-3" y="-3" width="6" height="6" style="visibility: hidden;"></rect></g><g class="resize se" transform="translate(0,0)" style="cursor: nwse-resize; display: none;"><rect x="-3" y="-3" width="6" height="6" style="visibility: hidden;"></rect></g><g class="resize sw" transform="translate(0,0)" style="cursor: nesw-resize; display: none;"><rect x="-3" y="-3" width="6" height="6" style="visibility: hidden;"></rect></g></g><g transform="translate(281.91,284.40) scale(1.28)"><g><line class="link basepair" x1="121.64" y1="192.75" x2="135.78" y2="188.12"></line><line class="link basepair" x1="116.60" y1="177.97" x2="130.39" y2="173.05"></line><line class="link backbone" x1="121.64" y1="192.75" x2="116.60" y2="177.97"></line><line class="link basepair" x1="111.19" y1="162.98" x2="124.92" y2="158.04"></line><line class="link backbone" x1="116.60" y1="177.97" x2="111.19" y2="162.98"></line><line class="link basepair" x1="105.72" y1="147.92" x2="119.64" y2="143.04"></line><line class="link backbone" x1="111.19" y1="162.98" x2="105.72" y2="147.92"></line><line class="link backbone" x1="105.72" y1="147.92" x2="94.08" y2="137.89"></line><line class="link basepair" x1="96.93" y1="122.88" x2="111.01" y2="118.04"></line><line class="link backbone" x1="94.08" y1="137.89" x2="96.93" y2="122.88"></line><line class="link backbone" x1="96.93" y1="122.88" x2="83.27" y2="115.95"></line><line class="link backbone" x1="83.27" y1="115.95" x2="78.50" y2="101.86"></line><line class="link basepair" x1="85.26" y1="88.02" x2="99.32" y2="83.38"></line><line class="link backbone" x1="78.50" y1="101.86" x2="85.26" y2="88.02"></line><line class="link basepair" x1="80.43" y1="72.83" x2="94.37" y2="68.34"></line><line class="link backbone" x1="85.26" y1="88.02" x2="80.43" y2="72.83"></line><line class="link basepair" x1="75.56" y1="57.65" x2="89.45" y2="53.15"></line><line class="link backbone" x1="80.43" y1="72.83" x2="75.56" y2="57.65"></line><line class="link basepair" x1="70.61" y1="42.43" x2="84.49" y2="37.91"></line><line class="link backbone" x1="75.56" y1="57.65" x2="70.61" y2="42.43"></line><line class="link basepair" x1="65.64" y1="27.16" x2="79.54" y2="22.69"></line><line class="link backbone" x1="70.61" y1="42.43" x2="65.64" y2="27.16"></line><line class="link basepair" x1="60.76" y1="11.86" x2="74.70" y2="7.49"></line><line class="link backbone" x1="65.64" y1="27.16" x2="60.76" y2="11.86"></line><line class="link basepair" x1="55.95" y1="-3.33" x2="70.12" y2="-7.64"></line><line class="link backbone" x1="60.76" y1="11.86" x2="55.95" y2="-3.33"></line><line class="link backbone" x1="55.95" y1="-3.33" x2="44.77" y2="-13.81"></line><line class="link basepair" x1="48.33" y1="-28.74" x2="62.50" y2="-32.96"></line><line class="link backbone" x1="44.77" y1="-13.81" x2="48.33" y2="-28.74"></line><line class="link basepair" x1="43.93" y1="-44.06" x2="57.94" y2="-48.18"></line><line class="link backbone" x1="48.33" y1="-28.74" x2="43.93" y2="-44.06"></line><line class="link basepair" x1="39.42" y1="-59.39" x2="53.35" y2="-63.61"></line><line class="link backbone" x1="43.93" y1="-44.06" x2="39.42" y2="-59.39"></line><line class="link basepair" x1="34.67" y1="-74.65" x2="48.53" y2="-79.11"></line><line class="link backbone" x1="39.42" y1="-59.39" x2="34.67" y2="-74.65"></line><line class="link basepair" x1="29.63" y1="-89.81" x2="43.38" y2="-94.55"></line><line class="link backbone" x1="34.67" y1="-74.65" x2="29.63" y2="-89.81"></line><line class="link basepair" x1="24.26" y1="-104.81" x2="37.92" y2="-109.84"></line><line class="link backbone" x1="29.63" y1="-89.81" x2="24.26" y2="-104.81"></line><line class="link basepair" x1="18.59" y1="-119.71" x2="32.19" y2="-124.98"></line><line class="link backbone" x1="24.26" y1="-104.81" x2="18.59" y2="-119.71"></line><line class="link basepair" x1="12.71" y1="-134.48" x2="26.32" y2="-139.93"></line><line class="link backbone" x1="18.59" y1="-119.71" x2="12.71" y2="-134.48"></line><line class="link basepair" x1="6.71" y1="-148.96" x2="20.52" y2="-154.59"></line><line class="link backbone" x1="12.71" y1="-134.48" x2="6.71" y2="-148.96"></line><line class="link backbone" x1="6.71" y1="-148.96" x2="-5.38" y2="-158.42"></line><line class="link backbone" x1="-5.38" y1="-158.42" x2="-3.26" y2="-173.22"></line><line class="link backbone" x1="-3.26" y1="-173.22" x2="10.59" y2="-178.91"></line><line class="link backbone" x1="10.59" y1="-178.91" x2="22.48" y2="-169.84"></line><line class="link basepair" x1="20.52" y1="-154.59" x2="6.71" y2="-148.96"></line><line class="link backbone" x1="22.48" y1="-169.84" x2="20.52" y2="-154.59"></line><line class="link basepair" x1="26.32" y1="-139.93" x2="12.71" y2="-134.48"></line><line class="link backbone" x1="20.52" y1="-154.59" x2="26.32" y2="-139.93"></line><line class="link basepair" x1="32.19" y1="-124.98" x2="18.59" y2="-119.71"></line><line class="link backbone" x1="26.32" y1="-139.93" x2="32.19" y2="-124.98"></line><line class="link basepair" x1="37.92" y1="-109.84" x2="24.26" y2="-104.81"></line><line class="link backbone" x1="32.19" y1="-124.98" x2="37.92" y2="-109.84"></line><line class="link basepair" x1="43.38" y1="-94.55" x2="29.63" y2="-89.81"></line><line class="link backbone" x1="37.92" y1="-109.84" x2="43.38" y2="-94.55"></line><line class="link basepair" x1="48.53" y1="-79.11" x2="34.67" y2="-74.65"></line><line class="link backbone" x1="43.38" y1="-94.55" x2="48.53" y2="-79.11"></line><line class="link basepair" x1="53.35" y1="-63.61" x2="39.42" y2="-59.39"></line><line class="link backbone" x1="48.53" y1="-79.11" x2="53.35" y2="-63.61"></line><line class="link basepair" x1="57.94" y1="-48.18" x2="43.93" y2="-44.06"></line><line class="link backbone" x1="53.35" y1="-63.61" x2="57.94" y2="-48.18"></line><line class="link basepair" x1="62.50" y1="-32.96" x2="48.33" y2="-28.74"></line><line class="link backbone" x1="57.94" y1="-48.18" x2="62.50" y2="-32.96"></line><line class="link backbone" x1="62.50" y1="-32.96" x2="73.63" y2="-22.53"></line><line class="link basepair" x1="70.12" y1="-7.64" x2="55.95" y2="-3.33"></line><line class="link backbone" x1="73.63" y1="-22.53" x2="70.12" y2="-7.64"></line><line class="link basepair" x1="74.70" y1="7.49" x2="60.76" y2="11.86"></line><line class="link backbone" x1="70.12" y1="-7.64" x2="74.70" y2="7.49"></line><line class="link basepair" x1="79.54" y1="22.69" x2="65.64" y2="27.16"></line><line class="link backbone" x1="74.70" y1="7.49" x2="79.54" y2="22.69"></line><line class="link basepair" x1="84.49" y1="37.91" x2="70.61" y2="42.43"></line><line class="link backbone" x1="79.54" y1="22.69" x2="84.49" y2="37.91"></line><line class="link basepair" x1="89.45" y1="53.15" x2="75.56" y2="57.65"></line><line class="link backbone" x1="84.49" y1="37.91" x2="89.45" y2="53.15"></line><line class="link basepair" x1="94.37" y1="68.34" x2="80.43" y2="72.83"></line><line class="link backbone" x1="89.45" y1="53.15" x2="94.37" y2="68.34"></line><line class="link basepair" x1="99.32" y1="83.38" x2="85.26" y2="88.02"></line><line class="link backbone" x1="94.37" y1="68.34" x2="99.32" y2="83.38"></line><line class="link backbone" x1="99.32" y1="83.38" x2="113.00" y2="90.20"></line><line class="link backbone" x1="113.00" y1="90.20" x2="117.74" y2="104.33"></line><line class="link basepair" x1="111.01" y1="118.04" x2="96.93" y2="122.88"></line><line class="link backbone" x1="117.74" y1="104.33" x2="111.01" y2="118.04"></line><line class="link backbone" x1="111.01" y1="118.04" x2="122.54" y2="127.98"></line><line class="link basepair" x1="119.64" y1="143.04" x2="105.72" y2="147.92"></line><line class="link backbone" x1="122.54" y1="127.98" x2="119.64" y2="143.04"></line><line class="link basepair" x1="124.92" y1="158.04" x2="111.19" y2="162.98"></line><line class="link backbone" x1="119.64" y1="143.04" x2="124.92" y2="158.04"></line><line class="link basepair" x1="130.39" y1="173.05" x2="116.60" y2="177.97"></line><line class="link backbone" x1="124.92" y1="158.04" x2="130.39" y2="173.05"></line><line class="link basepair" x1="135.78" y1="188.12" x2="121.64" y2="192.75"></line><line class="link backbone" x1="130.39" y1="173.05" x2="135.78" y2="188.12"></line><line class="link backbone" x1="135.78" y1="188.12" x2="150.20" y2="193.40"></line><line class="link backbone" x1="150.20" y1="193.40" x2="159.01" y2="205.34"></line><line class="link backbone" x1="159.01" y1="205.34" x2="159.21" y2="220.38"></line><line class="link backbone" x1="159.21" y1="220.38" x2="150.27" y2="232.33"></line><line class="link backbone" x1="150.27" y1="232.33" x2="136.18" y2="236.99"></line><line class="link backbone" x1="136.18" y1="236.99" x2="121.85" y2="233.10"></line><line class="link label_link" x1="80.43" y1="72.83" x2="65.22" y2="76.21"></line><line class="link label_link" x1="34.67" y1="-74.65" x2="20.03" y2="-69.24"></line><line class="link label_link" x1="20.52" y1="-154.59" x2="34.00" y2="-162.25"></line><line class="link label_link" x1="70.12" y1="-7.64" x2="85.26" y2="-11.27"></line><line class="link label_link" x1="122.54" y1="127.98" x2="137.15" y2="122.54"></line><line class="link label_link" x1="121.85" y1="233.10" x2="111.91" y2="244.94"></line><line class="link fake transparent" x1="85.26" y1="88.02" x2="89.84" y2="78.19"></line><line class="link fake transparent" x1="85.26" y1="88.02" x2="94.37" y2="68.34"></line><line class="link fake transparent" x1="80.43" y1="72.83" x2="89.84" y2="78.19"></line><line class="link fake transparent" x1="94.37" y1="68.34" x2="89.84" y2="78.19"></line><line class="link fake transparent" x1="99.32" y1="83.38" x2="89.84" y2="78.19"></line><line class="link fake transparent" x1="80.43" y1="72.83" x2="84.98" y2="63.02"></line><line class="link fake transparent" x1="75.56" y1="57.65" x2="84.98" y2="63.02"></line><line class="link fake transparent" x1="89.45" y1="53.15" x2="84.98" y2="63.02"></line><line class="link fake transparent" x1="94.37" y1="68.34" x2="84.98" y2="63.02"></line><line class="link fake transparent" x1="75.56" y1="57.65" x2="80.03" y2="47.78"></line><line class="link fake transparent" x1="70.61" y1="42.43" x2="80.03" y2="47.78"></line><line class="link fake transparent" x1="84.49" y1="37.91" x2="80.03" y2="47.78"></line><line class="link fake transparent" x1="89.45" y1="53.15" x2="80.03" y2="47.78"></line><line class="link fake transparent" x1="70.61" y1="42.43" x2="75.06" y2="32.55"></line><line class="link fake transparent" x1="65.64" y1="27.16" x2="75.06" y2="32.55"></line><line class="link fake transparent" x1="79.54" y1="22.69" x2="75.06" y2="32.55"></line><line class="link fake transparent" x1="84.49" y1="37.91" x2="75.06" y2="32.55"></line><line class="link fake transparent" x1="65.64" y1="27.16" x2="70.12" y2="17.31"></line><line class="link fake transparent" x1="60.76" y1="11.86" x2="70.12" y2="17.31"></line><line class="link fake transparent" x1="74.70" y1="7.49" x2="70.12" y2="17.31"></line><line class="link fake transparent" x1="79.54" y1="22.69" x2="70.12" y2="17.31"></line><line class="link fake transparent" x1="60.76" y1="11.86" x2="65.33" y2="2.10"></line><line class="link fake transparent" x1="55.95" y1="-3.33" x2="65.33" y2="2.10"></line><line class="link fake transparent" x1="70.12" y1="-7.64" x2="65.33" y2="2.10"></line><line class="link fake transparent" x1="74.70" y1="7.49" x2="65.33" y2="2.10"></line><line class="link fake transparent" x1="48.33" y1="-28.74" x2="53.17" y2="-38.49"></line><line class="link fake transparent" x1="43.93" y1="-44.06" x2="53.17" y2="-38.49"></line><line class="link fake transparent" x1="57.94" y1="-48.18" x2="53.17" y2="-38.49"></line><line class="link fake transparent" x1="62.50" y1="-32.96" x2="53.17" y2="-38.49"></line><line class="link fake transparent" x1="43.93" y1="-44.06" x2="48.70" y2="-53.79"></line><line class="link fake transparent" x1="39.42" y1="-59.39" x2="48.70" y2="-53.79"></line><line class="link fake transparent" x1="53.35" y1="-63.61" x2="48.70" y2="-53.79"></line><line class="link fake transparent" x1="57.94" y1="-48.18" x2="48.70" y2="-53.79"></line><line class="link fake transparent" x1="39.42" y1="-59.39" x2="44.07" y2="-69.20"></line><line class="link fake transparent" x1="34.67" y1="-74.65" x2="44.07" y2="-69.20"></line><line class="link fake transparent" x1="48.53" y1="-79.11" x2="44.07" y2="-69.20"></line><line class="link fake transparent" x1="53.35" y1="-63.61" x2="44.07" y2="-69.20"></line><line class="link fake transparent" x1="34.67" y1="-74.65" x2="39.15" y2="-84.56"></line><line class="link fake transparent" x1="29.63" y1="-89.81" x2="39.15" y2="-84.56"></line><line class="link fake transparent" x1="43.38" y1="-94.55" x2="39.15" y2="-84.56"></line><line class="link fake transparent" x1="48.53" y1="-79.11" x2="39.15" y2="-84.56"></line><line class="link fake transparent" x1="29.63" y1="-89.81" x2="33.89" y2="-99.77"></line><line class="link fake transparent" x1="24.26" y1="-104.81" x2="33.89" y2="-99.77"></line><line class="link fake transparent" x1="37.92" y1="-109.84" x2="33.89" y2="-99.77"></line><line class="link fake transparent" x1="43.38" y1="-94.55" x2="33.89" y2="-99.77"></line><line class="link fake transparent" x1="24.26" y1="-104.81" x2="28.30" y2="-114.86"></line><line class="link fake transparent" x1="18.59" y1="-119.71" x2="28.30" y2="-114.86"></line><line class="link fake transparent" x1="32.19" y1="-124.98" x2="28.30" y2="-114.86"></line><line class="link fake transparent" x1="37.92" y1="-109.84" x2="28.30" y2="-114.86"></line><line class="link fake transparent" x1="18.59" y1="-119.71" x2="22.48" y2="-129.81"></line><line class="link fake transparent" x1="12.71" y1="-134.48" x2="22.48" y2="-129.81"></line><line class="link fake transparent" x1="26.32" y1="-139.93" x2="22.48" y2="-129.81"></line><line class="link fake transparent" x1="32.19" y1="-124.98" x2="22.48" y2="-129.81"></line><line class="link fake transparent" x1="12.71" y1="-134.48" x2="16.56" y2="-144.53"></line><line class="link fake transparent" x1="6.71" y1="-148.96" x2="16.56" y2="-144.53"></line><line class="link fake transparent" x1="20.52" y1="-154.59" x2="16.56" y2="-144.53"></line><line class="link fake transparent" x1="26.32" y1="-139.93" x2="16.56" y2="-144.53"></line><line class="link fake transparent" x1="121.64" y1="192.75" x2="126.20" y2="183.04"></line><line class="link fake transparent" x1="116.60" y1="177.97" x2="126.20" y2="183.04"></line><line class="link fake transparent" x1="130.39" y1="173.05" x2="126.20" y2="183.04"></line><line class="link fake transparent" x1="135.78" y1="188.12" x2="126.20" y2="183.04"></line><line class="link fake transparent" x1="116.60" y1="177.97" x2="120.77" y2="168.03"></line><line class="link fake transparent" x1="111.19" y1="162.98" x2="120.77" y2="168.03"></line><line class="link fake transparent" x1="124.92" y1="158.04" x2="120.77" y2="168.03"></line><line class="link fake transparent" x1="130.39" y1="173.05" x2="120.77" y2="168.03"></line><line class="link fake transparent" x1="111.19" y1="162.98" x2="115.33" y2="153.03"></line><line class="link fake transparent" x1="105.72" y1="147.92" x2="115.33" y2="153.03"></line><line class="link fake transparent" x1="119.64" y1="143.04" x2="115.33" y2="153.03"></line><line class="link fake transparent" x1="124.92" y1="158.04" x2="115.33" y2="153.03"></line><line class="link fake transparent" x1="121.64" y1="192.75" x2="135.76" y2="212.71"></line><line class="link fake transparent" x1="121.64" y1="192.75" x2="150.27" y2="232.33"></line><line class="link fake transparent" x1="135.78" y1="188.12" x2="135.76" y2="212.71"></line><line class="link fake transparent" x1="135.78" y1="188.12" x2="136.18" y2="236.99"></line><line class="link fake transparent" x1="150.20" y1="193.40" x2="135.76" y2="212.71"></line><line class="link fake transparent" x1="150.20" y1="193.40" x2="121.85" y2="233.10"></line><line class="link fake transparent" x1="159.01" y1="205.34" x2="135.76" y2="212.71"></line><line class="link fake transparent" x1="159.01" y1="205.34" x2="112.54" y2="221.37"></line><line class="link fake transparent" x1="159.21" y1="220.38" x2="135.76" y2="212.71"></line><line class="link fake transparent" x1="159.21" y1="220.38" x2="111.98" y2="206.81"></line><line class="link fake transparent" x1="150.27" y1="232.33" x2="135.76" y2="212.71"></line><line class="link fake transparent" x1="150.27" y1="232.33" x2="121.64" y2="192.75"></line><line class="link fake transparent" x1="136.18" y1="236.99" x2="135.76" y2="212.71"></line><line class="link fake transparent" x1="136.18" y1="236.99" x2="135.78" y2="188.12"></line><line class="link fake transparent" x1="121.85" y1="233.10" x2="135.76" y2="212.71"></line><line class="link fake transparent" x1="121.85" y1="233.10" x2="150.20" y2="193.40"></line><line class="link fake transparent" x1="6.71" y1="-148.96" x2="8.63" y2="-163.94"></line><line class="link fake transparent" x1="6.71" y1="-148.96" x2="10.59" y2="-178.91"></line><line class="link fake transparent" x1="-5.38" y1="-158.42" x2="8.63" y2="-163.94"></line><line class="link fake transparent" x1="-5.38" y1="-158.42" x2="22.48" y2="-169.84"></line><line class="link fake transparent" x1="-3.26" y1="-173.22" x2="8.63" y2="-163.94"></line><line class="link fake transparent" x1="-3.26" y1="-173.22" x2="20.52" y2="-154.59"></line><line class="link fake transparent" x1="10.59" y1="-178.91" x2="8.63" y2="-163.94"></line><line class="link fake transparent" x1="10.59" y1="-178.91" x2="6.71" y2="-148.96"></line><line class="link fake transparent" x1="22.48" y1="-169.84" x2="8.63" y2="-163.94"></line><line class="link fake transparent" x1="22.48" y1="-169.84" x2="-5.38" y2="-158.42"></line><line class="link fake transparent" x1="20.52" y1="-154.59" x2="8.63" y2="-163.94"></line><line class="link fake transparent" x1="20.52" y1="-154.59" x2="-3.26" y2="-173.22"></line><line class="link fake transparent" x1="55.95" y1="-3.33" x2="59.18" y2="-18.16"></line><line class="link fake transparent" x1="55.95" y1="-3.33" x2="62.50" y2="-32.96"></line><line class="link fake transparent" x1="44.77" y1="-13.81" x2="59.18" y2="-18.16"></line><line class="link fake transparent" x1="44.77" y1="-13.81" x2="73.63" y2="-22.53"></line><line class="link fake transparent" x1="48.33" y1="-28.74" x2="59.18" y2="-18.16"></line><line class="link fake transparent" x1="48.33" y1="-28.74" x2="70.12" y2="-7.64"></line><line class="link fake transparent" x1="62.50" y1="-32.96" x2="59.18" y2="-18.16"></line><line class="link fake transparent" x1="62.50" y1="-32.96" x2="55.95" y2="-3.33"></line><line class="link fake transparent" x1="73.63" y1="-22.53" x2="59.18" y2="-18.16"></line><line class="link fake transparent" x1="73.63" y1="-22.53" x2="44.77" y2="-13.81"></line><line class="link fake transparent" x1="70.12" y1="-7.64" x2="59.18" y2="-18.16"></line><line class="link fake transparent" x1="70.12" y1="-7.64" x2="48.33" y2="-28.74"></line><line class="link fake transparent" x1="105.72" y1="147.92" x2="108.30" y2="132.98"></line><line class="link fake transparent" x1="105.72" y1="147.92" x2="111.01" y2="118.04"></line><line class="link fake transparent" x1="94.08" y1="137.89" x2="108.30" y2="132.98"></line><line class="link fake transparent" x1="94.08" y1="137.89" x2="122.54" y2="127.98"></line><line class="link fake transparent" x1="96.93" y1="122.88" x2="108.30" y2="132.98"></line><line class="link fake transparent" x1="96.93" y1="122.88" x2="119.64" y2="143.04"></line><line class="link fake transparent" x1="111.01" y1="118.04" x2="108.30" y2="132.98"></line><line class="link fake transparent" x1="111.01" y1="118.04" x2="105.72" y2="147.92"></line><line class="link fake transparent" x1="122.54" y1="127.98" x2="108.30" y2="132.98"></line><line class="link fake transparent" x1="122.54" y1="127.98" x2="94.08" y2="137.89"></line><line class="link fake transparent" x1="119.64" y1="143.04" x2="108.30" y2="132.98"></line><line class="link fake transparent" x1="119.64" y1="143.04" x2="96.93" y2="122.88"></line><line class="link fake transparent" x1="96.93" y1="122.88" x2="98.11" y2="103.11"></line><line class="link fake transparent" x1="96.93" y1="122.88" x2="99.32" y2="83.38"></line><line class="link fake transparent" x1="83.27" y1="115.95" x2="98.11" y2="103.11"></line><line class="link fake transparent" x1="83.27" y1="115.95" x2="113.00" y2="90.20"></line><line class="link fake transparent" x1="78.50" y1="101.86" x2="98.11" y2="103.11"></line><line class="link fake transparent" x1="78.50" y1="101.86" x2="117.74" y2="104.33"></line><line class="link fake transparent" x1="85.26" y1="88.02" x2="98.11" y2="103.11"></line><line class="link fake transparent" x1="85.26" y1="88.02" x2="111.01" y2="118.04"></line><line class="link fake transparent" x1="99.32" y1="83.38" x2="98.11" y2="103.11"></line><line class="link fake transparent" x1="99.32" y1="83.38" x2="96.93" y2="122.88"></line><line class="link fake transparent" x1="113.00" y1="90.20" x2="98.11" y2="103.11"></line><line class="link fake transparent" x1="113.00" y1="90.20" x2="83.27" y2="115.95"></line><line class="link fake transparent" x1="117.74" y1="104.33" x2="98.11" y2="103.11"></line><line class="link fake transparent" x1="117.74" y1="104.33" x2="78.50" y2="101.86"></line><line class="link fake transparent" x1="111.01" y1="118.04" x2="98.11" y2="103.11"></line><line class="link fake transparent" x1="111.01" y1="118.04" x2="85.26" y2="88.02"></line></g><g><g class="noselect gnode" struct_name="m" transform="translate(121.64,192.75)" r="6.5"><circle class="node" r="6" node_type="nucleotide" style="fill: lightgreen;"></circle><text text-anchor="middle" font-size="8" font-weight="bold" y="2.5" class="node-label">A</text></g><g class="noselect gnode" struct_name="m" transform="translate(116.60,177.97)" r="6.5"><circle class="node" r="6" node_type="nucleotide" style="fill: lightgreen;"></circle><text text-anchor="middle" font-size="8" font-weight="bold" y="2.5" class="node-label">A</text></g><g class="noselect gnode" struct_name="m" transform="translate(111.19,162.98)" r="6.5"><circle class="node" r="6" node_type="nucleotide" style="fill: lightgreen;"></circle><text text-anchor="middle" font-size="8" font-weight="bold" y="2.5" class="node-label">G</text></g><g class="noselect gnode" struct_name="m" transform="translate(105.72,147.92)" r="6.5"><circle class="node" r="6" node_type="nucleotide" style="fill: lightgreen;"></circle><text text-anchor="middle" font-size="8" font-weight="bold" y="2.5" class="node-label">A</text></g><g class="noselect gnode" struct_name="m" transform="translate(94.08,137.89)" r="6.5"><circle class="node" r="6" node_type="nucleotide" style="fill: rgb(219, 219, 141);"></circle><text text-anchor="middle" font-size="8" font-weight="bold" y="2.5" class="node-label">A</text></g><g class="noselect gnode" struct_name="m" transform="translate(96.93,122.88)" r="6.5"><circle class="node" r="6" node_type="nucleotide" style="fill: lightgreen;"></circle><text text-anchor="middle" font-size="8" font-weight="bold" y="2.5" class="node-label">U</text></g><g class="noselect gnode" struct_name="m" transform="translate(83.27,115.95)" r="6.5"><circle class="node" r="6" node_type="nucleotide" style="fill: rgb(219, 219, 141);"></circle><text text-anchor="middle" font-size="8" font-weight="bold" y="2.5" class="node-label">G</text></g><g class="noselect gnode" struct_name="m" transform="translate(78.50,101.86)" r="6.5"><circle class="node" r="6" node_type="nucleotide" style="fill: rgb(219, 219, 141);"></circle><text text-anchor="middle" font-size="8" font-weight="bold" y="2.5" class="node-label">C</text></g><g class="noselect gnode" struct_name="m" transform="translate(85.26,88.02)" r="6.5"><circle class="node" r="6" node_type="nucleotide" style="fill: lightgreen;"></circle><text text-anchor="middle" font-size="8" font-weight="bold" y="2.5" class="node-label">C</text></g><g class="noselect gnode" struct_name="m" transform="translate(80.43,72.83)" r="6.5"><circle class="node" r="6" node_type="nucleotide" style="fill: lightgreen;"></circle><text text-anchor="middle" font-size="8" font-weight="bold" y="2.5" class="node-label">A</text></g><g class="noselect gnode" struct_name="m" transform="translate(75.56,57.65)" r="6.5"><circle class="node" r="6" node_type="nucleotide" style="fill: lightgreen;"></circle><text text-anchor="middle" font-size="8" font-weight="bold" y="2.5" class="node-label">U</text></g><g class="noselect gnode" struct_name="m" transform="translate(70.61,42.43)" r="6.5"><circle class="node" r="6" node_type="nucleotide" style="fill: lightgreen;"></circle><text text-anchor="middle" font-size="8" font-weight="bold" y="2.5" class="node-label">G</text></g><g class="noselect gnode" struct_name="m" transform="translate(65.64,27.16)" r="6.5"><circle class="node" r="6" node_type="nucleotide" style="fill: lightgreen;"></circle><text text-anchor="middle" font-size="8" font-weight="bold" y="2.5" class="node-label">A</text></g><g class="noselect gnode" struct_name="m" transform="translate(60.76,11.86)" r="6.5"><circle class="node" r="6" node_type="nucleotide" style="fill: lightgreen;"></circle><text text-anchor="middle" font-size="8" font-weight="bold" y="2.5" class="node-label">C</text></g><g class="noselect gnode" struct_name="m" transform="translate(55.95,-3.33)" r="6.5"><circle class="node" r="6" node_type="nucleotide" style="fill: lightgreen;"></circle><text text-anchor="middle" font-size="8" font-weight="bold" y="2.5" class="node-label">C</text></g><g class="noselect gnode" struct_name="m" transform="translate(44.77,-13.81)" r="6.5"><circle class="node" r="6" node_type="nucleotide" style="fill: rgb(219, 219, 141);"></circle><text text-anchor="middle" font-size="8" font-weight="bold" y="2.5" class="node-label">C</text></g><g class="noselect gnode" struct_name="m" transform="translate(48.33,-28.74)" r="6.5"><circle class="node" r="6" node_type="nucleotide" style="fill: lightgreen;"></circle><text text-anchor="middle" font-size="8" font-weight="bold" y="2.5" class="node-label">U</text></g><g class="noselect gnode" struct_name="m" transform="translate(43.93,-44.06)" r="6.5"><circle class="node" r="6" node_type="nucleotide" style="fill: lightgreen;"></circle><text text-anchor="middle" font-size="8" font-weight="bold" y="2.5" class="node-label">C</text></g><g class="noselect gnode" struct_name="m" transform="translate(39.42,-59.39)" r="6.5"><circle class="node" r="6" node_type="nucleotide" style="fill: lightgreen;"></circle><text text-anchor="middle" font-size="8" font-weight="bold" y="2.5" class="node-label">A</text></g><g class="noselect gnode" struct_name="m" transform="translate(34.67,-74.65)" r="6.5"><circle class="node" r="6" node_type="nucleotide" style="fill: lightgreen;"></circle><text text-anchor="middle" font-size="8" font-weight="bold" y="2.5" class="node-label">A</text></g><g class="noselect gnode" struct_name="m" transform="translate(29.63,-89.81)" r="6.5"><circle class="node" r="6" node_type="nucleotide" style="fill: lightgreen;"></circle><text text-anchor="middle" font-size="8" font-weight="bold" y="2.5" class="node-label">G</text></g><g class="noselect gnode" struct_name="m" transform="translate(24.26,-104.81)" r="6.5"><circle class="node" r="6" node_type="nucleotide" style="fill: lightgreen;"></circle><text text-anchor="middle" font-size="8" font-weight="bold" y="2.5" class="node-label">G</text></g><g class="noselect gnode" struct_name="m" transform="translate(18.59,-119.71)" r="6.5"><circle class="node" r="6" node_type="nucleotide" style="fill: lightgreen;"></circle><text text-anchor="middle" font-size="8" font-weight="bold" y="2.5" class="node-label">G</text></g><g class="noselect gnode" struct_name="m" transform="translate(12.71,-134.48)" r="6.5"><circle class="node" r="6" node_type="nucleotide" style="fill: lightgreen;"></circle><text text-anchor="middle" font-size="8" font-weight="bold" y="2.5" class="node-label">C</text></g><g class="noselect gnode" struct_name="m" transform="translate(6.71,-148.96)" r="6.5"><circle class="node" r="6" node_type="nucleotide" style="fill: lightgreen;"></circle><text text-anchor="middle" font-size="8" font-weight="bold" y="2.5" class="node-label">C</text></g><g class="noselect gnode" struct_name="m" transform="translate(-5.38,-158.42)" r="6.5"><circle class="node" r="6" node_type="nucleotide" style="fill: lightblue;"></circle><text text-anchor="middle" font-size="8" font-weight="bold" y="2.5" class="node-label">A</text></g><g class="noselect gnode" struct_name="m" transform="translate(-3.26,-173.22)" r="6.5"><circle class="node" r="6" node_type="nucleotide" style="fill: lightblue;"></circle><text text-anchor="middle" font-size="8" font-weight="bold" y="2.5" class="node-label">A</text></g><g class="noselect gnode" struct_name="m" transform="translate(10.59,-178.91)" r="6.5"><circle class="node" r="6" node_type="nucleotide" style="fill: lightblue;"></circle><text text-anchor="middle" font-size="8" font-weight="bold" y="2.5" class="node-label">G</text></g><g class="noselect gnode" struct_name="m" transform="translate(22.48,-169.84)" r="6.5"><circle class="node" r="6" node_type="nucleotide" style="fill: lightblue;"></circle><text text-anchor="middle" font-size="8" font-weight="bold" y="2.5" class="node-label">A</text></g><g class="noselect gnode" struct_name="m" transform="translate(20.52,-154.59)" r="6.5"><circle class="node" r="6" node_type="nucleotide" style="fill: lightgreen;"></circle><text text-anchor="middle" font-size="8" font-weight="bold" y="2.5" class="node-label">G</text></g><g class="noselect gnode" struct_name="m" transform="translate(26.32,-139.93)" r="6.5"><circle class="node" r="6" node_type="nucleotide" style="fill: lightgreen;"></circle><text text-anchor="middle" font-size="8" font-weight="bold" y="2.5" class="node-label">G</text></g><g class="noselect gnode" struct_name="m" transform="translate(32.19,-124.98)" r="6.5"><circle class="node" r="6" node_type="nucleotide" style="fill: lightgreen;"></circle><text text-anchor="middle" font-size="8" font-weight="bold" y="2.5" class="node-label">C</text></g><g class="noselect gnode" struct_name="m" transform="translate(37.92,-109.84)" r="6.5"><circle class="node" r="6" node_type="nucleotide" style="fill: lightgreen;"></circle><text text-anchor="middle" font-size="8" font-weight="bold" y="2.5" class="node-label">C</text></g><g class="noselect gnode" struct_name="m" transform="translate(43.38,-94.55)" r="6.5"><circle class="node" r="6" node_type="nucleotide" style="fill: lightgreen;"></circle><text text-anchor="middle" font-size="8" font-weight="bold" y="2.5" class="node-label">C</text></g><g class="noselect gnode" struct_name="m" transform="translate(48.53,-79.11)" r="6.5"><circle class="node" r="6" node_type="nucleotide" style="fill: lightgreen;"></circle><text text-anchor="middle" font-size="8" font-weight="bold" y="2.5" class="node-label">U</text></g><g class="noselect gnode" struct_name="m" transform="translate(53.35,-63.61)" r="6.5"><circle class="node" r="6" node_type="nucleotide" style="fill: lightgreen;"></circle><text text-anchor="middle" font-size="8" font-weight="bold" y="2.5" class="node-label">U</text></g><g class="noselect gnode" struct_name="m" transform="translate(57.94,-48.18)" r="6.5"><circle class="node" r="6" node_type="nucleotide" style="fill: lightgreen;"></circle><text text-anchor="middle" font-size="8" font-weight="bold" y="2.5" class="node-label">G</text></g><g class="noselect gnode" struct_name="m" transform="translate(62.50,-32.96)" r="6.5"><circle class="node" r="6" node_type="nucleotide" style="fill: lightgreen;"></circle><text text-anchor="middle" font-size="8" font-weight="bold" y="2.5" class="node-label">A</text></g><g class="noselect gnode" struct_name="m" transform="translate(73.63,-22.53)" r="6.5"><circle class="node" r="6" node_type="nucleotide" style="fill: rgb(219, 219, 141);"></circle><text text-anchor="middle" font-size="8" font-weight="bold" y="2.5" class="node-label">U</text></g><g class="noselect gnode" struct_name="m" transform="translate(70.12,-7.64)" r="6.5"><circle class="node" r="6" node_type="nucleotide" style="fill: lightgreen;"></circle><text text-anchor="middle" font-size="8" font-weight="bold" y="2.5" class="node-label">G</text></g><g class="noselect gnode" struct_name="m" transform="translate(74.70,7.49)" r="6.5"><circle class="node" r="6" node_type="nucleotide" style="fill: lightgreen;"></circle><text text-anchor="middle" font-size="8" font-weight="bold" y="2.5" class="node-label">G</text></g><g class="noselect gnode" struct_name="m" transform="translate(79.54,22.69)" r="6.5"><circle class="node" r="6" node_type="nucleotide" style="fill: lightgreen;"></circle><text text-anchor="middle" font-size="8" font-weight="bold" y="2.5" class="node-label">U</text></g><g class="noselect gnode" struct_name="m" transform="translate(84.49,37.91)" r="6.5"><circle class="node" r="6" node_type="nucleotide" style="fill: lightgreen;"></circle><text text-anchor="middle" font-size="8" font-weight="bold" y="2.5" class="node-label">C</text></g><g class="noselect gnode" struct_name="m" transform="translate(89.45,53.15)" r="6.5"><circle class="node" r="6" node_type="nucleotide" style="fill: lightgreen;"></circle><text text-anchor="middle" font-size="8" font-weight="bold" y="2.5" class="node-label">G</text></g><g class="noselect gnode" struct_name="m" transform="translate(94.37,68.34)" r="6.5"><circle class="node" r="6" node_type="nucleotide" style="fill: lightgreen;"></circle><text text-anchor="middle" font-size="8" font-weight="bold" y="2.5" class="node-label">U</text></g><g class="noselect gnode" struct_name="m" transform="translate(99.32,83.38)" r="6.5"><circle class="node" r="6" node_type="nucleotide" style="fill: lightgreen;"></circle><text text-anchor="middle" font-size="8" font-weight="bold" y="2.5" class="node-label">G</text></g><g class="noselect gnode" struct_name="m" transform="translate(113.00,90.20)" r="6.5"><circle class="node" r="6" node_type="nucleotide" style="fill: rgb(219, 219, 141);"></circle><text text-anchor="middle" font-size="8" font-weight="bold" y="2.5" class="node-label">A</text></g><g class="noselect gnode" struct_name="m" transform="translate(117.74,104.33)" r="6.5"><circle class="node" r="6" node_type="nucleotide" style="fill: rgb(219, 219, 141);"></circle><text text-anchor="middle" font-size="8" font-weight="bold" y="2.5" class="node-label">G</text></g><g class="noselect gnode" struct_name="m" transform="translate(111.01,118.04)" r="6.5"><circle class="node" r="6" node_type="nucleotide" style="fill: lightgreen;"></circle><text text-anchor="middle" font-size="8" font-weight="bold" y="2.5" class="node-label">A</text></g><g class="noselect gnode" struct_name="m" transform="translate(122.54,127.98)" r="6.5"><circle class="node" r="6" node_type="nucleotide" style="fill: rgb(219, 219, 141);"></circle><text text-anchor="middle" font-size="8" font-weight="bold" y="2.5" class="node-label">A</text></g><g class="noselect gnode" struct_name="m" transform="translate(119.64,143.04)" r="6.5"><circle class="node" r="6" node_type="nucleotide" style="fill: lightgreen;"></circle><text text-anchor="middle" font-size="8" font-weight="bold" y="2.5" class="node-label">U</text></g><g class="noselect gnode" struct_name="m" transform="translate(124.92,158.04)" r="6.5"><circle class="node" r="6" node_type="nucleotide" style="fill: lightgreen;"></circle><text text-anchor="middle" font-size="8" font-weight="bold" y="2.5" class="node-label">C</text></g><g class="noselect gnode" struct_name="m" transform="translate(130.39,173.05)" r="6.5"><circle class="node" r="6" node_type="nucleotide" style="fill: lightgreen;"></circle><text text-anchor="middle" font-size="8" font-weight="bold" y="2.5" class="node-label">U</text></g><g class="noselect gnode" struct_name="m" transform="translate(135.78,188.12)" r="6.5"><circle class="node" r="6" node_type="nucleotide" style="fill: lightgreen;"></circle><text text-anchor="middle" font-size="8" font-weight="bold" y="2.5" class="node-label">U</text></g><g class="noselect gnode" struct_name="m" transform="translate(150.20,193.40)" r="6.5"><circle class="node" r="6" node_type="nucleotide" style="fill: lightsalmon;"></circle><text text-anchor="middle" font-size="8" font-weight="bold" y="2.5" class="node-label">C</text></g><g class="noselect gnode" struct_name="m" transform="translate(159.01,205.34)" r="6.5"><circle class="node" r="6" node_type="nucleotide" style="fill: lightsalmon;"></circle><text text-anchor="middle" font-size="8" font-weight="bold" y="2.5" class="node-label">A</text></g><g class="noselect gnode" struct_name="m" transform="translate(159.21,220.38)" r="6.5"><circle class="node" r="6" node_type="nucleotide" style="fill: lightsalmon;"></circle><text text-anchor="middle" font-size="8" font-weight="bold" y="2.5" class="node-label">A</text></g><g class="noselect gnode" struct_name="m" transform="translate(150.27,232.33)" r="6.5"><circle class="node" r="6" node_type="nucleotide" style="fill: lightsalmon;"></circle><text text-anchor="middle" font-size="8" font-weight="bold" y="2.5" class="node-label">C</text></g><g class="noselect gnode" struct_name="m" transform="translate(136.18,236.99)" r="6.5"><circle class="node" r="6" node_type="nucleotide" style="fill: lightsalmon;"></circle><text text-anchor="middle" font-size="8" font-weight="bold" y="2.5" class="node-label">A</text></g><g class="noselect gnode" struct_name="m" transform="translate(121.85,233.10)" r="6.5"><circle class="node" r="6" node_type="nucleotide" style="fill: lightsalmon;"></circle><text text-anchor="middle" font-size="8" font-weight="bold" y="2.5" class="node-label">U</text></g><g class="noselect gnode" struct_name="m" transform="translate(65.22,76.21)" r="6.5"><circle class="node label" r="6" node_type="label"></circle><text text-anchor="middle" font-size="8" font-weight="bold" y="2.5" class="node-label">10</text></g><g class="noselect gnode" struct_name="m" transform="translate(20.03,-69.24)" r="6.5"><circle class="node label" r="6" node_type="label"></circle><text text-anchor="middle" font-size="8" font-weight="bold" y="2.5" class="node-label">20</text></g><g class="noselect gnode" struct_name="m" transform="translate(34.00,-162.25)" r="6.5"><circle class="node label" r="6" node_type="label"></circle><text text-anchor="middle" font-size="8" font-weight="bold" y="2.5" class="node-label">30</text></g><g class="noselect gnode" struct_name="m" transform="translate(85.26,-11.27)" r="6.5"><circle class="node label" r="6" node_type="label"></circle><text text-anchor="middle" font-size="8" font-weight="bold" y="2.5" class="node-label">40</text></g><g class="noselect gnode" struct_name="m" transform="translate(137.15,122.54)" r="6.5"><circle class="node label" r="6" node_type="label"></circle><text text-anchor="middle" font-size="8" font-weight="bold" y="2.5" class="node-label">50</text></g><g class="noselect gnode" struct_name="m" transform="translate(111.91,244.94)" r="6.5"><circle class="node label" r="6" node_type="label"></circle><text text-anchor="middle" font-size="8" font-weight="bold" y="2.5" class="node-label">60</text></g><g class="noselect gnode" transform="translate(89.84,78.19)" r="6.5"><circle class="node" r="0" node_type="middle"></circle><text text-anchor="middle" font-size="8" font-weight="bold" y="2.5" class="node-label"></text></g><g class="noselect gnode" transform="translate(84.98,63.02)" r="6.5"><circle class="node" r="0" node_type="middle"></circle><text text-anchor="middle" font-size="8" font-weight="bold" y="2.5" class="node-label"></text></g><g class="noselect gnode" transform="translate(80.03,47.78)" r="6.5"><circle class="node" r="0" node_type="middle"></circle><text text-anchor="middle" font-size="8" font-weight="bold" y="2.5" class="node-label"></text></g><g class="noselect gnode" transform="translate(75.06,32.55)" r="6.5"><circle class="node" r="0" node_type="middle"></circle><text text-anchor="middle" font-size="8" font-weight="bold" y="2.5" class="node-label"></text></g><g class="noselect gnode" transform="translate(70.12,17.31)" r="6.5"><circle class="node" r="0" node_type="middle"></circle><text text-anchor="middle" font-size="8" font-weight="bold" y="2.5" class="node-label"></text></g><g class="noselect gnode" transform="translate(65.33,2.10)" r="6.5"><circle class="node" r="0" node_type="middle"></circle><text text-anchor="middle" font-size="8" font-weight="bold" y="2.5" class="node-label"></text></g><g class="noselect gnode" transform="translate(53.17,-38.49)" r="6.5"><circle class="node" r="0" node_type="middle"></circle><text text-anchor="middle" font-size="8" font-weight="bold" y="2.5" class="node-label"></text></g><g class="noselect gnode" transform="translate(48.70,-53.79)" r="6.5"><circle class="node" r="0" node_type="middle"></circle><text text-anchor="middle" font-size="8" font-weight="bold" y="2.5" class="node-label"></text></g><g class="noselect gnode" transform="translate(44.07,-69.20)" r="6.5"><circle class="node" r="0" node_type="middle"></circle><text text-anchor="middle" font-size="8" font-weight="bold" y="2.5" class="node-label"></text></g><g class="noselect gnode" transform="translate(39.15,-84.56)" r="6.5"><circle class="node" r="0" node_type="middle"></circle><text text-anchor="middle" font-size="8" font-weight="bold" y="2.5" class="node-label"></text></g><g class="noselect gnode" transform="translate(33.89,-99.77)" r="6.5"><circle class="node" r="0" node_type="middle"></circle><text text-anchor="middle" font-size="8" font-weight="bold" y="2.5" class="node-label"></text></g><g class="noselect gnode" transform="translate(28.30,-114.86)" r="6.5"><circle class="node" r="0" node_type="middle"></circle><text text-anchor="middle" font-size="8" font-weight="bold" y="2.5" class="node-label"></text></g><g class="noselect gnode" transform="translate(22.48,-129.81)" r="6.5"><circle class="node" r="0" node_type="middle"></circle><text text-anchor="middle" font-size="8" font-weight="bold" y="2.5" class="node-label"></text></g><g class="noselect gnode" transform="translate(16.56,-144.53)" r="6.5"><circle class="node" r="0" node_type="middle"></circle><text text-anchor="middle" font-size="8" font-weight="bold" y="2.5" class="node-label"></text></g><g class="noselect gnode" transform="translate(126.20,183.04)" r="6.5"><circle class="node" r="0" node_type="middle"></circle><text text-anchor="middle" font-size="8" font-weight="bold" y="2.5" class="node-label"></text></g><g class="noselect gnode" transform="translate(120.77,168.03)" r="6.5"><circle class="node" r="0" node_type="middle"></circle><text text-anchor="middle" font-size="8" font-weight="bold" y="2.5" class="node-label"></text></g><g class="noselect gnode" transform="translate(115.33,153.03)" r="6.5"><circle class="node" r="0" node_type="middle"></circle><text text-anchor="middle" font-size="8" font-weight="bold" y="2.5" class="node-label"></text></g><g class="noselect gnode" transform="translate(112.54,221.37)" r="6.5"><circle class="node" r="0" node_type="middle"></circle><text text-anchor="middle" font-size="8" font-weight="bold" y="2.5" class="node-label"></text></g><g class="noselect gnode" transform="translate(111.98,206.81)" r="6.5"><circle class="node" r="0" node_type="middle"></circle><text text-anchor="middle" font-size="8" font-weight="bold" y="2.5" class="node-label"></text></g><g class="noselect gnode" transform="translate(135.76,212.71)" r="6.5"><circle class="node" r="0" node_type="middle"></circle><text text-anchor="middle" font-size="8" font-weight="bold" y="2.5" class="node-label"></text></g><g class="noselect gnode" transform="translate(8.63,-163.94)" r="6.5"><circle class="node" r="0" node_type="middle"></circle><text text-anchor="middle" font-size="8" font-weight="bold" y="2.5" class="node-label"></text></g><g class="noselect gnode" transform="translate(59.18,-18.16)" r="6.5"><circle class="node" r="0" node_type="middle"></circle><text text-anchor="middle" font-size="8" font-weight="bold" y="2.5" class="node-label"></text></g><g class="noselect gnode" transform="translate(108.30,132.98)" r="6.5"><circle class="node" r="0" node_type="middle"></circle><text text-anchor="middle" font-size="8" font-weight="bold" y="2.5" class="node-label"></text></g><g class="noselect gnode" transform="translate(98.11,103.11)" r="6.5"><circle class="node" r="0" node_type="middle"></circle><text text-anchor="middle" font-size="8" font-weight="bold" y="2.5" class="node-label"></text></g></g><line class="drag_line" x1="0" y1="0" x2="0" y2="0"></line></g></g></svg>