<svg xmlns="http://www.w3.org/2000/svg" viewBox="0 0 760 640" width="760" height="640"><style>svg {
  display: block;
  min-width: 100%;
  width: 100%;
  min-height: 100%;
}

circle.node {
  stroke: #ccc;
  stroke-width: 1px;
  opacity: 1;
  fill: white;
}

circle.node.label {
    stroke: transparent;
    stroke-width: 0;
    fill: white;
}

circle.outline_node {
    stroke-width: 1px;
    fill: red;
}

circle.protein {
    fill: gray;
    fill-opacity: 0.5;
    stroke-width: 4;
}

circle.hidden_outline {
    stroke-width: 0px;
}


line.link {
  stroke: #999;
  stroke-opacity: 0.8;
  stroke-width: 2;
}

line.basepair {
  stroke: red;
}

line.intermolecule {
  stroke: blue;
}

line.chain_chain {
  stroke-dasharray: 3,3;
}

line.fake {
  stroke: green;
}

.transparent {
    fill: transparent;
    stroke-width: 0;
    stroke-opacity: 0;
    opacity: 0;
    visibility: hidden;
}

.drag_line {
  stroke: #999;
  stroke-width: 2;
  pointer-events: none;
}

.drag_line_hidden {
  stroke: #999;
  stroke-width: 0;
  pointer-events: none;
}

.d3-tip {
    line-height: 1;
    font-weight: bold;
    padding: 6px;
    background: rgba(0, 0, 0, 0.6);
    color: #fff;
    border-radius: 4px;
    pointer-events: none;
          }

text.node-label {
    font-weight: bold;
    font-family: Tahoma, Geneva, sans-serif;
    color: rgb(100,100,100);
    pointer-events: none;
}

text {
    pointer-events: none;
}

g.gnode {

}

circle.outline_node.selected {
    visibility: visible;
}

circle.outline_node {
    visibility: hidden;
}

.brush .extent {
  fill-opacity: .1;
  stroke: #fff;
  shape-rendering: crispEdges;
}

.noselect {
    -webkit-touch-callout: none;
    -webkit-user-select: none;
    -khtml-user-select: none;
    -moz-user-select: none;
    -ms-user-select: none;
    user-select: none;
}

svg {
  display: block;
  min-width: 100%;
  width: 100%;
  min-height: 100%;
}

circle.node {
  stroke: #ccc;
  stroke-width: 1px;
  opacity: 1;
  fill: white;
}

circle.node.label {
    stroke: transparent;
    stroke-width: 0;
    fill: white;
}

circle.outline_node {
    stroke-width: 1px;
    fill: red;
}

circle.protein {
    fill: gray;
    fill-opacity: 0.5;
    stroke-width: 4;
}

circle.hidden_outline {
    stroke-width: 0px;
}


line.link {
  stroke: #999;
  stroke-opacity: 0.8;
  stroke-width: 2;
}

line.basepair {
  stroke: red;
}

line.intermolecule {
  stroke: blue;
}

line.chain_chain {
  stroke-dasharray: 3,3;
}

line.fake {
  stroke: green;
}

.transparent {
    fill: transparent;
    stroke-width: 0;
    stroke-opacity: 0;
    opacity: 0;
    visibility: hidden;
}

.drag_line {
  stroke: #999;
  stroke-width: 2;
  pointer-events: none;
}

.drag_line_hidden {
  stroke: #999;
  stroke-width: 0;
  pointer-events: none;
}

.d3-tip {
    line-height: 1;
    font-weight: bold;
    padding: 6px;
    background: rgba(0, 0, 0, 0.6);
    color: #fff;
    border-radius: 4px;
    pointer-events: none;
          }

text.node-label {
    font-weight: bold;
    font-family: Tahoma, Geneva, sans-serif;
    color: rgb(100,100,100);
    pointer-events: none;
}

text {
    pointer-events: none;
}

g.gnode {

}

circle.outline_node.selected {
    visibility: visible;
}

circle.outline_node {
    visibility: hidden;
}

.brush .extent {
  fill-opacity: .1;
  stroke: #fff;
  shape-rendering: crispEdges;
}

.noselect {
    -webkit-touch-callout: none;
    -webkit-user-select: none;
    -khtml-user-select: none;
    -moz-user-select: none;
    -ms-user-select: none;
    user-select: none;
}
/*# sourceURL=/Users/yumanakamura/ipy_sandbox/sandbox/claude_sandbox/mrna-transformer-worktrees/feat-issue57-switch-derna-knotty/scripts/eval/prerender/forna_vendor/fornac.css*/</style><style></style><g><g class="brush" style="pointer-events: all; -webkit-tap-highlight-color: rgba(0, 0, 0, 0);"><rect class="background" x="0" width="760" y="0" height="640" style="visibility: hidden; cursor: auto;"></rect><rect class="extent" x="0" width="0" y="0" height="0" style="cursor: move;"></rect><g class="resize n" transform="translate(0,0)" style="cursor: ns-resize; display: none;"><rect y="-3" width="0" height="6" style="visibility: hidden;"></rect></g><g class="resize e" transform="translate(0,0)" style="cursor: ew-resize; display: none;"><rect x="-3" width="6" height="0" style="visibility: hidden;"></rect></g><g class="resize s" transform="translate(0,0)" style="cursor: ns-resize; display: none;"><rect y="-3" width="0" height="6" style="visibility: hidden;"></rect></g><g class="resize w" transform="translate(0,0)" style="cursor: ew-resize; display: none;"><rect x="-3" width="6" height="0" style="visibility: hidden;"></rect></g><g class="resize nw" transform="translate(0,0)" style="cursor: nwse-resize; display: none;"><rect x="-3" y="-3" width="6" height="6" style="visibility: hidden;"></rect></g><g class="resize ne" transform="translate(0,0)" style="cursor: nesw-resize; display: none;"><rect x="-3" y="-3" width="6" height="6" style="visibility: hidden;"></rect></g><g class="resize se" transform="translate(0,0)" style="cursor: nwse-resize; display: none;"><rect x="-3" y="-3" width="6" height="6" style="visibility: hidden;"></rect></g><g class="resize sw" transform="translate(0,0)" style="cursor: nesw-resize; display: none;"><rect x="-3" y="-3" width="6" height="6" style="visibility: hidden;"></rect></g></g><g transform="translate(316.79,266.53) scale(1.27)"><g><line class="link backbone" x1="31.06" y1="247.28" x2="27.79" y2="232.61"></line><line class="link basepair" x1="39.14" y1="222.19" x2="53.32" y2="226.96"></line><line class="link backbone" x1="27.79" y1="232.61" x2="39.14" y2="222.19"></line><line class="link basepair" x1="44.59" y1="207.21" x2="58.47" y2="212.98"></line><line class="link backbone" x1="39.14" y1="222.19" x2="44.59" y2="207.21"></line><line class="link basepair" x1="46.46" y1="190.82" x2="61.19" y2="188.46"></line><line class="link backbone" x1="44.59" y1="207.21" x2="46.46" y2="190.82"></line><line class="link basepair" x1="45.21" y1="173.94" x2="59.77" y2="173.78"></line><line class="link backbone" x1="46.46" y1="190.82" x2="45.21" y2="173.94"></line><line class="link basepair" x1="46.41" y1="156.78" x2="60.79" y2="158.94"></line><line class="link backbone" x1="45.21" y1="173.94" x2="46.41" y2="156.78"></line><line class="link basepair" x1="50.37" y1="139.96" x2="64.15" y2="144.37"></line><line class="link backbone" x1="46.41" y1="156.78" x2="50.37" y2="139.96"></line><line class="link basepair" x1="56.59" y1="124.02" x2="69.92" y2="130.75"></line><line class="link backbone" x1="50.37" y1="139.96" x2="56.59" y2="124.02"></line><line class="link backbone" x1="56.59" y1="124.02" x2="48.72" y2="110.40"></line><line class="link backbone" x1="48.72" y1="110.40" x2="47.56" y2="95.42"></line><line class="link basepair" x1="53.22" y1="80.78" x2="65.21" y2="71.83"></line><line class="link backbone" x1="47.56" y1="95.42" x2="53.22" y2="80.78"></line><line class="link basepair" x1="44.28" y1="66.63" x2="56.92" y2="59.44"></line><line class="link backbone" x1="53.22" y1="80.78" x2="44.28" y2="66.63"></line><line class="link basepair" x1="36.82" y1="51.46" x2="50.21" y2="45.76"></line><line class="link backbone" x1="44.28" y1="66.63" x2="36.82" y2="51.46"></line><line class="link basepair" x1="31.03" y1="35.76" x2="44.89" y2="31.28"></line><line class="link backbone" x1="36.82" y1="51.46" x2="31.03" y2="35.76"></line><line class="link basepair" x1="26.51" y1="19.93" x2="40.60" y2="16.22"></line><line class="link backbone" x1="31.03" y1="35.76" x2="26.51" y2="19.93"></line><line class="link basepair" x1="22.61" y1="4.32" x2="36.73" y2="0.70"></line><line class="link backbone" x1="26.51" y1="19.93" x2="22.61" y2="4.32"></line><line class="link basepair" x1="18.43" y1="-10.59" x2="32.54" y2="-15.19"></line><line class="link backbone" x1="22.61" y1="4.32" x2="18.43" y2="-10.59"></line><line class="link backbone" x1="18.43" y1="-10.59" x2="8.85" y2="-22.57"></line><line class="link basepair" x1="17.46" y1="-35.34" x2="31.89" y2="-32.02"></line><line class="link backbone" x1="8.85" y1="-22.57" x2="17.46" y2="-35.34"></line><line class="link basepair" x1="20.02" y1="-50.23" x2="34.41" y2="-48.76"></line><line class="link backbone" x1="17.46" y1="-35.34" x2="20.02" y2="-50.23"></line><line class="link basepair" x1="20.69" y1="-65.64" x2="35.17" y2="-65.73"></line><line class="link backbone" x1="20.02" y1="-50.23" x2="20.69" y2="-65.64"></line><line class="link basepair" x1="19.82" y1="-81.14" x2="34.28" y2="-82.52"></line><line class="link backbone" x1="20.69" y1="-65.64" x2="19.82" y2="-81.14"></line><line class="link basepair" x1="17.72" y1="-96.57" x2="32.06" y2="-99.00"></line><line class="link backbone" x1="19.82" y1="-81.14" x2="17.72" y2="-96.57"></line><line class="link basepair" x1="14.61" y1="-111.92" x2="28.83" y2="-115.15"></line><line class="link backbone" x1="17.72" y1="-96.57" x2="14.61" y2="-111.92"></line><line class="link basepair" x1="10.75" y1="-127.12" x2="24.89" y2="-130.95"></line><line class="link backbone" x1="14.61" y1="-111.92" x2="10.75" y2="-127.12"></line><line class="link basepair" x1="6.27" y1="-141.93" x2="20.70" y2="-146.24"></line><line class="link backbone" x1="10.75" y1="-127.12" x2="6.27" y2="-141.93"></line><line class="link backbone" x1="6.27" y1="-141.93" x2="-2.72" y2="-154.68"></line><line class="link backbone" x1="-2.72" y1="-154.68" x2="6.59" y2="-166.82"></line><line class="link backbone" x1="6.59" y1="-166.82" x2="21.09" y2="-161.87"></line><line class="link basepair" x1="20.70" y1="-146.24" x2="6.27" y2="-141.93"></line><line class="link backbone" x1="21.09" y1="-161.87" x2="20.70" y2="-146.24"></line><line class="link basepair" x1="24.89" y1="-130.95" x2="10.75" y2="-127.12"></line><line class="link backbone" x1="20.70" y1="-146.24" x2="24.89" y2="-130.95"></line><line class="link basepair" x1="28.83" y1="-115.15" x2="14.61" y2="-111.92"></line><line class="link backbone" x1="24.89" y1="-130.95" x2="28.83" y2="-115.15"></line><line class="link basepair" x1="32.06" y1="-99.00" x2="17.72" y2="-96.57"></line><line class="link backbone" x1="28.83" y1="-115.15" x2="32.06" y2="-99.00"></line><line class="link basepair" x1="34.28" y1="-82.52" x2="19.82" y2="-81.14"></line><line class="link backbone" x1="32.06" y1="-99.00" x2="34.28" y2="-82.52"></line><line class="link basepair" x1="35.17" y1="-65.73" x2="20.69" y2="-65.64"></line><line class="link backbone" x1="34.28" y1="-82.52" x2="35.17" y2="-65.73"></line><line class="link basepair" x1="34.41" y1="-48.76" x2="20.02" y2="-50.23"></line><line class="link backbone" x1="35.17" y1="-65.73" x2="34.41" y2="-48.76"></line><line class="link basepair" x1="31.89" y1="-32.02" x2="17.46" y2="-35.34"></line><line class="link backbone" x1="34.41" y1="-48.76" x2="31.89" y2="-32.02"></line><line class="link basepair" x1="32.54" y1="-15.19" x2="18.43" y2="-10.59"></line><line class="link backbone" x1="31.89" y1="-32.02" x2="32.54" y2="-15.19"></line><line class="link basepair" x1="36.73" y1="0.70" x2="22.61" y2="4.32"></line><line class="link backbone" x1="32.54" y1="-15.19" x2="36.73" y2="0.70"></line><line class="link basepair" x1="40.60" y1="16.22" x2="26.51" y2="19.93"></line><line class="link backbone" x1="36.73" y1="0.70" x2="40.60" y2="16.22"></line><line class="link basepair" x1="44.89" y1="31.28" x2="31.03" y2="35.76"></line><line class="link backbone" x1="40.60" y1="16.22" x2="44.89" y2="31.28"></line><line class="link basepair" x1="50.21" y1="45.76" x2="36.82" y2="51.46"></line><line class="link backbone" x1="44.89" y1="31.28" x2="50.21" y2="45.76"></line><line class="link basepair" x1="56.92" y1="59.44" x2="44.28" y2="66.63"></line><line class="link backbone" x1="50.21" y1="45.76" x2="56.92" y2="59.44"></line><line class="link basepair" x1="65.21" y1="71.83" x2="53.22" y2="80.78"></line><line class="link backbone" x1="56.92" y1="59.44" x2="65.21" y2="71.83"></line><line class="link backbone" x1="65.21" y1="71.83" x2="80.17" y2="68.98"></line><line class="link backbone" x1="80.17" y1="68.98" x2="94.49" y2="73.44"></line><line class="link backbone" x1="94.49" y1="73.44" x2="105.30" y2="83.79"></line><line class="link backbone" x1="105.30" y1="83.79" x2="110.19" y2="97.86"></line><line class="link backbone" x1="110.19" y1="97.86" x2="107.67" y2="112.62"></line><line class="link backbone" x1="107.67" y1="112.62" x2="98.63" y2="124.59"></line><line class="link backbone" x1="98.63" y1="124.59" x2="85.16" y2="131.23"></line><line class="link basepair" x1="69.92" y1="130.75" x2="56.59" y2="124.02"></line><line class="link backbone" x1="85.16" y1="131.23" x2="69.92" y2="130.75"></line><line class="link basepair" x1="64.15" y1="144.37" x2="50.37" y2="139.96"></line><line class="link backbone" x1="69.92" y1="130.75" x2="64.15" y2="144.37"></line><line class="link basepair" x1="60.79" y1="158.94" x2="46.41" y2="156.78"></line><line class="link backbone" x1="64.15" y1="144.37" x2="60.79" y2="158.94"></line><line class="link basepair" x1="59.77" y1="173.78" x2="45.21" y2="173.94"></line><line class="link backbone" x1="60.79" y1="158.94" x2="59.77" y2="173.78"></line><line class="link basepair" x1="61.19" y1="188.46" x2="46.46" y2="190.82"></line><line class="link backbone" x1="59.77" y1="173.78" x2="61.19" y2="188.46"></line><line class="link backbone" x1="61.19" y1="188.46" x2="68.85" y2="201.81"></line><line class="link basepair" x1="58.47" y1="212.98" x2="44.59" y2="207.21"></line><line class="link backbone" x1="68.85" y1="201.81" x2="58.47" y2="212.98"></line><line class="link basepair" x1="53.32" y1="226.96" x2="39.14" y2="222.19"></line><line class="link backbone" x1="58.47" y1="212.98" x2="53.32" y2="226.96"></line><line class="link label_link" x1="48.72" y1="110.40" x2="33.22" y2="111.73"></line><line class="link label_link" x1="17.46" y1="-35.34" x2="1.90" y2="-35.39"></line><line class="link label_link" x1="21.09" y1="-161.87" x2="30.30" y2="-174.22"></line><line class="link label_link" x1="36.73" y1="0.70" x2="52.18" y2="-1.31"></line><line class="link label_link" x1="107.67" y1="112.62" x2="123.09" y2="114.49"></line><line class="link label_link" x1="53.32" y1="226.96" x2="39.82" y2="234.16"></line><line class="link fake transparent" x1="53.22" y1="80.78" x2="54.60" y2="70.04"></line><line class="link fake transparent" x1="53.22" y1="80.78" x2="56.92" y2="59.44"></line><line class="link fake transparent" x1="44.28" y1="66.63" x2="54.60" y2="70.04"></line><line class="link fake transparent" x1="56.92" y1="59.44" x2="54.60" y2="70.04"></line><line class="link fake transparent" x1="65.21" y1="71.83" x2="54.60" y2="70.04"></line><line class="link fake transparent" x1="44.28" y1="66.63" x2="46.63" y2="56.06"></line><line class="link fake transparent" x1="36.82" y1="51.46" x2="46.63" y2="56.06"></line><line class="link fake transparent" x1="50.21" y1="45.76" x2="46.63" y2="56.06"></line><line class="link fake transparent" x1="56.92" y1="59.44" x2="46.63" y2="56.06"></line><line class="link fake transparent" x1="36.82" y1="51.46" x2="40.38" y2="41.21"></line><line class="link fake transparent" x1="31.03" y1="35.76" x2="40.38" y2="41.21"></line><line class="link fake transparent" x1="44.89" y1="31.28" x2="40.38" y2="41.21"></line><line class="link fake transparent" x1="50.21" y1="45.76" x2="40.38" y2="41.21"></line><line class="link fake transparent" x1="31.03" y1="35.76" x2="35.51" y2="25.86"></line><line class="link fake transparent" x1="26.51" y1="19.93" x2="35.51" y2="25.86"></line><line class="link fake transparent" x1="40.60" y1="16.22" x2="35.51" y2="25.86"></line><line class="link fake transparent" x1="44.89" y1="31.28" x2="35.51" y2="25.86"></line><line class="link fake transparent" x1="26.51" y1="19.93" x2="31.55" y2="10.29"></line><line class="link fake transparent" x1="22.61" y1="4.32" x2="31.55" y2="10.29"></line><line class="link fake transparent" x1="36.73" y1="0.70" x2="31.55" y2="10.29"></line><line class="link fake transparent" x1="40.60" y1="16.22" x2="31.55" y2="10.29"></line><line class="link fake transparent" x1="22.61" y1="4.32" x2="27.74" y2="-5.28"></line><line class="link fake transparent" x1="18.43" y1="-10.59" x2="27.74" y2="-5.28"></line><line class="link fake transparent" x1="32.54" y1="-15.19" x2="27.74" y2="-5.28"></line><line class="link fake transparent" x1="36.73" y1="0.70" x2="27.74" y2="-5.28"></line><line class="link fake transparent" x1="39.14" y1="222.19" x2="48.69" y2="217.28"></line><line class="link fake transparent" x1="44.59" y1="207.21" x2="48.69" y2="217.28"></line><line class="link fake transparent" x1="58.47" y1="212.98" x2="48.69" y2="217.28"></line><line class="link fake transparent" x1="53.32" y1="226.96" x2="48.69" y2="217.28"></line><line class="link fake transparent" x1="17.46" y1="-35.34" x2="26.42" y2="-41.43"></line><line class="link fake transparent" x1="20.02" y1="-50.23" x2="26.42" y2="-41.43"></line><line class="link fake transparent" x1="34.41" y1="-48.76" x2="26.42" y2="-41.43"></line><line class="link fake transparent" x1="31.89" y1="-32.02" x2="26.42" y2="-41.43"></line><line class="link fake transparent" x1="20.02" y1="-50.23" x2="28.02" y2="-57.57"></line><line class="link fake transparent" x1="20.69" y1="-65.64" x2="28.02" y2="-57.57"></line><line class="link fake transparent" x1="35.17" y1="-65.73" x2="28.02" y2="-57.57"></line><line class="link fake transparent" x1="34.41" y1="-48.76" x2="28.02" y2="-57.57"></line><line class="link fake transparent" x1="20.69" y1="-65.64" x2="27.86" y2="-73.79"></line><line class="link fake transparent" x1="19.82" y1="-81.14" x2="27.86" y2="-73.79"></line><line class="link fake transparent" x1="34.28" y1="-82.52" x2="27.86" y2="-73.79"></line><line class="link fake transparent" x1="35.17" y1="-65.73" x2="27.86" y2="-73.79"></line><line class="link fake transparent" x1="19.82" y1="-81.14" x2="26.27" y2="-89.88"></line><line class="link fake transparent" x1="17.72" y1="-96.57" x2="26.27" y2="-89.88"></line><line class="link fake transparent" x1="32.06" y1="-99.00" x2="26.27" y2="-89.88"></line><line class="link fake transparent" x1="34.28" y1="-82.52" x2="26.27" y2="-89.88"></line><line class="link fake transparent" x1="17.72" y1="-96.57" x2="23.52" y2="-105.72"></line><line class="link fake transparent" x1="14.61" y1="-111.92" x2="23.52" y2="-105.72"></line><line class="link fake transparent" x1="28.83" y1="-115.15" x2="23.52" y2="-105.72"></line><line class="link fake transparent" x1="32.06" y1="-99.00" x2="23.52" y2="-105.72"></line><line class="link fake transparent" x1="14.61" y1="-111.92" x2="19.93" y2="-121.36"></line><line class="link fake transparent" x1="10.75" y1="-127.12" x2="19.93" y2="-121.36"></line><line class="link fake transparent" x1="24.89" y1="-130.95" x2="19.93" y2="-121.36"></line><line class="link fake transparent" x1="28.83" y1="-115.15" x2="19.93" y2="-121.36"></line><line class="link fake transparent" x1="10.75" y1="-127.12" x2="15.72" y2="-136.70"></line><line class="link fake transparent" x1="6.27" y1="-141.93" x2="15.72" y2="-136.70"></line><line class="link fake transparent" x1="20.70" y1="-146.24" x2="15.72" y2="-136.70"></line><line class="link fake transparent" x1="24.89" y1="-130.95" x2="15.72" y2="-136.70"></line><line class="link fake transparent" x1="46.46" y1="190.82" x2="52.58" y2="181.86"></line><line class="link fake transparent" x1="45.21" y1="173.94" x2="52.58" y2="181.86"></line><line class="link fake transparent" x1="59.77" y1="173.78" x2="52.58" y2="181.86"></line><line class="link fake transparent" x1="61.19" y1="188.46" x2="52.58" y2="181.86"></line><line class="link fake transparent" x1="45.21" y1="173.94" x2="52.38" y2="165.81"></line><line class="link fake transparent" x1="46.41" y1="156.78" x2="52.38" y2="165.81"></line><line class="link fake transparent" x1="60.79" y1="158.94" x2="52.38" y2="165.81"></line><line class="link fake transparent" x1="59.77" y1="173.78" x2="52.38" y2="165.81"></line><line class="link fake transparent" x1="46.41" y1="156.78" x2="54.78" y2="149.87"></line><line class="link fake transparent" x1="50.37" y1="139.96" x2="54.78" y2="149.87"></line><line class="link fake transparent" x1="64.15" y1="144.37" x2="54.78" y2="149.87"></line><line class="link fake transparent" x1="60.79" y1="158.94" x2="54.78" y2="149.87"></line><line class="link fake transparent" x1="50.37" y1="139.96" x2="59.76" y2="134.43"></line><line class="link fake transparent" x1="56.59" y1="124.02" x2="59.76" y2="134.43"></line><line class="link fake transparent" x1="69.92" y1="130.75" x2="59.76" y2="134.43"></line><line class="link fake transparent" x1="64.15" y1="144.37" x2="59.76" y2="134.43"></line><line class="link fake transparent" x1="31.06" y1="247.28" x2="42.33" y2="237.22"></line><line class="link fake transparent" x1="31.06" y1="247.28" x2="53.32" y2="226.96"></line><line class="link fake transparent" x1="27.79" y1="232.61" x2="42.33" y2="237.22"></line><line class="link fake transparent" x1="27.79" y1="232.61" x2="56.20" y2="242.51"></line><line class="link fake transparent" x1="39.14" y1="222.19" x2="42.33" y2="237.22"></line><line class="link fake transparent" x1="39.14" y1="222.19" x2="45.97" y2="251.96"></line><line class="link fake transparent" x1="53.32" y1="226.96" x2="42.33" y2="237.22"></line><line class="link fake transparent" x1="53.32" y1="226.96" x2="31.06" y2="247.28"></line><line class="link fake transparent" x1="6.27" y1="-141.93" x2="10.41" y2="-154.27"></line><line class="link fake transparent" x1="6.27" y1="-141.93" x2="6.59" y2="-166.82"></line><line class="link fake transparent" x1="-2.72" y1="-154.68" x2="10.41" y2="-154.27"></line><line class="link fake transparent" x1="-2.72" y1="-154.68" x2="21.09" y2="-161.87"></line><line class="link fake transparent" x1="6.59" y1="-166.82" x2="10.41" y2="-154.27"></line><line class="link fake transparent" x1="6.59" y1="-166.82" x2="20.70" y2="-146.24"></line><line class="link fake transparent" x1="21.09" y1="-161.87" x2="10.41" y2="-154.27"></line><line class="link fake transparent" x1="21.09" y1="-161.87" x2="6.27" y2="-141.93"></line><line class="link fake transparent" x1="20.70" y1="-146.24" x2="10.41" y2="-154.27"></line><line class="link fake transparent" x1="20.70" y1="-146.24" x2="-2.72" y2="-154.68"></line><line class="link fake transparent" x1="18.43" y1="-10.59" x2="22.21" y2="-23.19"></line><line class="link fake transparent" x1="18.43" y1="-10.59" x2="17.46" y2="-35.34"></line><line class="link fake transparent" x1="8.85" y1="-22.57" x2="22.21" y2="-23.19"></line><line class="link fake transparent" x1="8.85" y1="-22.57" x2="31.89" y2="-32.02"></line><line class="link fake transparent" x1="17.46" y1="-35.34" x2="22.21" y2="-23.19"></line><line class="link fake transparent" x1="17.46" y1="-35.34" x2="32.54" y2="-15.19"></line><line class="link fake transparent" x1="31.89" y1="-32.02" x2="22.21" y2="-23.19"></line><line class="link fake transparent" x1="31.89" y1="-32.02" x2="18.43" y2="-10.59"></line><line class="link fake transparent" x1="32.54" y1="-15.19" x2="22.21" y2="-23.19"></line><line class="link fake transparent" x1="32.54" y1="-15.19" x2="8.85" y2="-22.57"></line><line class="link fake transparent" x1="44.59" y1="207.21" x2="55.61" y2="200.24"></line><line class="link fake transparent" x1="44.59" y1="207.21" x2="61.19" y2="188.46"></line><line class="link fake transparent" x1="46.46" y1="190.82" x2="55.61" y2="200.24"></line><line class="link fake transparent" x1="46.46" y1="190.82" x2="68.85" y2="201.81"></line><line class="link fake transparent" x1="61.19" y1="188.46" x2="55.61" y2="200.24"></line><line class="link fake transparent" x1="61.19" y1="188.46" x2="58.47" y2="212.98"></line><line class="link fake transparent" x1="68.85" y1="201.81" x2="55.61" y2="200.24"></line><line class="link fake transparent" x1="68.85" y1="201.81" x2="44.59" y2="207.21"></line><line class="link fake transparent" x1="58.47" y1="212.98" x2="55.61" y2="200.24"></line><line class="link fake transparent" x1="58.47" y1="212.98" x2="46.46" y2="190.82"></line><line class="link fake transparent" x1="56.59" y1="124.02" x2="78.36" y2="100.51"></line><line class="link fake transparent" x1="56.59" y1="124.02" x2="94.49" y2="73.44"></line><line class="link fake transparent" x1="48.72" y1="110.40" x2="78.36" y2="100.51"></line><line class="link fake transparent" x1="48.72" y1="110.40" x2="105.30" y2="83.79"></line><line class="link fake transparent" x1="47.56" y1="95.42" x2="78.36" y2="100.51"></line><line class="link fake transparent" x1="47.56" y1="95.42" x2="110.19" y2="97.86"></line><line class="link fake transparent" x1="53.22" y1="80.78" x2="78.36" y2="100.51"></line><line class="link fake transparent" x1="53.22" y1="80.78" x2="107.67" y2="112.62"></line><line class="link fake transparent" x1="65.21" y1="71.83" x2="78.36" y2="100.51"></line><line class="link fake transparent" x1="65.21" y1="71.83" x2="98.63" y2="124.59"></line><line class="link fake transparent" x1="80.17" y1="68.98" x2="78.36" y2="100.51"></line><line class="link fake transparent" x1="80.17" y1="68.98" x2="85.16" y2="131.23"></line><line class="link fake transparent" x1="94.49" y1="73.44" x2="78.36" y2="100.51"></line><line class="link fake transparent" x1="94.49" y1="73.44" x2="69.92" y2="130.75"></line><line class="link fake transparent" x1="105.30" y1="83.79" x2="78.36" y2="100.51"></line><line class="link fake transparent" x1="105.30" y1="83.79" x2="56.59" y2="124.02"></line><line class="link fake transparent" x1="110.19" y1="97.86" x2="78.36" y2="100.51"></line><line class="link fake transparent" x1="110.19" y1="97.86" x2="48.72" y2="110.40"></line><line class="link fake transparent" x1="107.67" y1="112.62" x2="78.36" y2="100.51"></line><line class="link fake transparent" x1="107.67" y1="112.62" x2="47.56" y2="95.42"></line><line class="link fake transparent" x1="98.63" y1="124.59" x2="78.36" y2="100.51"></line><line class="link fake transparent" x1="98.63" y1="124.59" x2="53.22" y2="80.78"></line><line class="link fake transparent" x1="85.16" y1="131.23" x2="78.36" y2="100.51"></line><line class="link fake transparent" x1="85.16" y1="131.23" x2="65.21" y2="71.83"></line><line class="link fake transparent" x1="69.92" y1="130.75" x2="78.36" y2="100.51"></line><line class="link fake transparent" x1="69.92" y1="130.75" x2="80.17" y2="68.98"></line></g><g><g class="noselect gnode" struct_name="m" transform="translate(31.06,247.28)" r="6.5"><circle class="node" r="6" node_type="nucleotide" style="fill: lightsalmon;"></circle><text text-anchor="middle" font-size="8" font-weight="bold" y="2.5" class="node-label">G</text></g><g class="noselect gnode" struct_name="m" transform="translate(27.79,232.61)" r="6.5"><circle class="node" r="6" node_type="nucleotide" style="fill: lightsalmon;"></circle><text text-anchor="middle" font-size="8" font-weight="bold" y="2.5" class="node-label">U</text></g><g class="noselect gnode" struct_name="m" transform="translate(39.14,222.19)" r="6.5"><circle class="node" r="6" node_type="nucleotide" style="fill: lightgreen;"></circle><text text-anchor="middle" font-size="8" font-weight="bold" y="2.5" class="node-label">G</text></g><g class="noselect gnode" struct_name="m" transform="translate(44.59,207.21)" r="6.5"><circle class="node" r="6" node_type="nucleotide" style="fill: lightgreen;"></circle><text text-anchor="middle" font-size="8" font-weight="bold" y="2.5" class="node-label">G</text></g><g class="noselect gnode" struct_name="m" transform="translate(46.46,190.82)" r="6.5"><circle class="node" r="6" node_type="nucleotide" style="fill: lightgreen;"></circle><text text-anchor="middle" font-size="8" font-weight="bold" y="2.5" class="node-label">C</text></g><g class="noselect gnode" struct_name="m" transform="translate(45.21,173.94)" r="6.5"><circle class="node" r="6" node_type="nucleotide" style="fill: lightgreen;"></circle><text text-anchor="middle" font-size="8" font-weight="bold" y="2.5" class="node-label">C</text></g><g class="noselect gnode" struct_name="m" transform="translate(46.41,156.78)" r="6.5"><circle class="node" r="6" node_type="nucleotide" style="fill: lightgreen;"></circle><text text-anchor="middle" font-size="8" font-weight="bold" y="2.5" class="node-label">C</text></g><g class="noselect gnode" struct_name="m" transform="translate(50.37,139.96)" r="6.5"><circle class="node" r="6" node_type="nucleotide" style="fill: lightgreen;"></circle><text text-anchor="middle" font-size="8" font-weight="bold" y="2.5" class="node-label">G</text></g><g class="noselect gnode" struct_name="m" transform="translate(56.59,124.02)" r="6.5"><circle class="node" r="6" node_type="nucleotide" style="fill: lightgreen;"></circle><text text-anchor="middle" font-size="8" font-weight="bold" y="2.5" class="node-label">U</text></g><g class="noselect gnode" struct_name="m" transform="translate(48.72,110.40)" r="6.5"><circle class="node" r="6" node_type="nucleotide" style="fill: rgb(219, 219, 141);"></circle><text text-anchor="middle" font-size="8" font-weight="bold" y="2.5" class="node-label">G</text></g><g class="noselect gnode" struct_name="m" transform="translate(47.56,95.42)" r="6.5"><circle class="node" r="6" node_type="nucleotide" style="fill: rgb(219, 219, 141);"></circle><text text-anchor="middle" font-size="8" font-weight="bold" y="2.5" class="node-label">C</text></g><g class="noselect gnode" struct_name="m" transform="translate(53.22,80.78)" r="6.5"><circle class="node" r="6" node_type="nucleotide" style="fill: lightgreen;"></circle><text text-anchor="middle" font-size="8" font-weight="bold" y="2.5" class="node-label">C</text></g><g class="noselect gnode" struct_name="m" transform="translate(44.28,66.63)" r="6.5"><circle class="node" r="6" node_type="nucleotide" style="fill: lightgreen;"></circle><text text-anchor="middle" font-size="8" font-weight="bold" y="2.5" class="node-label">U</text></g><g class="noselect gnode" struct_name="m" transform="translate(36.82,51.46)" r="6.5"><circle class="node" r="6" node_type="nucleotide" style="fill: lightgreen;"></circle><text text-anchor="middle" font-size="8" font-weight="bold" y="2.5" class="node-label">G</text></g><g class="noselect gnode" struct_name="m" transform="translate(31.03,35.76)" r="6.5"><circle class="node" r="6" node_type="nucleotide" style="fill: lightgreen;"></circle><text text-anchor="middle" font-size="8" font-weight="bold" y="2.5" class="node-label">G</text></g><g class="noselect gnode" struct_name="m" transform="translate(26.51,19.93)" r="6.5"><circle class="node" r="6" node_type="nucleotide" style="fill: lightgreen;"></circle><text text-anchor="middle" font-size="8" font-weight="bold" y="2.5" class="node-label">U</text></g><g class="noselect gnode" struct_name="m" transform="translate(22.61,4.32)" r="6.5"><circle class="node" r="6" node_type="nucleotide" style="fill: lightgreen;"></circle><text text-anchor="middle" font-size="8" font-weight="bold" y="2.5" class="node-label">G</text></g><g class="noselect gnode" struct_name="m" transform="translate(18.43,-10.59)" r="6.5"><circle class="node" r="6" node_type="nucleotide" style="fill: lightgreen;"></circle><text text-anchor="middle" font-size="8" font-weight="bold" y="2.5" class="node-label">C</text></g><g class="noselect gnode" struct_name="m" transform="translate(8.85,-22.57)" r="6.5"><circle class="node" r="6" node_type="nucleotide" style="fill: rgb(219, 219, 141);"></circle><text text-anchor="middle" font-size="8" font-weight="bold" y="2.5" class="node-label">U</text></g><g class="noselect gnode" struct_name="m" transform="translate(17.46,-35.34)" r="6.5"><circle class="node" r="6" node_type="nucleotide" style="fill: lightgreen;"></circle><text text-anchor="middle" font-size="8" font-weight="bold" y="2.5" class="node-label">G</text></g><g class="noselect gnode" struct_name="m" transform="translate(20.02,-50.23)" r="6.5"><circle class="node" r="6" node_type="nucleotide" style="fill: lightgreen;"></circle><text text-anchor="middle" font-size="8" font-weight="bold" y="2.5" class="node-label">G</text></g><g class="noselect gnode" struct_name="m" transform="translate(20.69,-65.64)" r="6.5"><circle class="node" r="6" node_type="nucleotide" style="fill: lightgreen;"></circle><text text-anchor="middle" font-size="8" font-weight="bold" y="2.5" class="node-label">C</text></g><g class="noselect gnode" struct_name="m" transform="translate(19.82,-81.14)" r="6.5"><circle class="node" r="6" node_type="nucleotide" style="fill: lightgreen;"></circle><text text-anchor="middle" font-size="8" font-weight="bold" y="2.5" class="node-label">G</text></g><g class="noselect gnode" struct_name="m" transform="translate(17.72,-96.57)" r="6.5"><circle class="node" r="6" node_type="nucleotide" style="fill: lightgreen;"></circle><text text-anchor="middle" font-size="8" font-weight="bold" y="2.5" class="node-label">U</text></g><g class="noselect gnode" struct_name="m" transform="translate(14.61,-111.92)" r="6.5"><circle class="node" r="6" node_type="nucleotide" style="fill: lightgreen;"></circle><text text-anchor="middle" font-size="8" font-weight="bold" y="2.5" class="node-label">U</text></g><g class="noselect gnode" struct_name="m" transform="translate(10.75,-127.12)" r="6.5"><circle class="node" r="6" node_type="nucleotide" style="fill: lightgreen;"></circle><text text-anchor="middle" font-size="8" font-weight="bold" y="2.5" class="node-label">U</text></g><g class="noselect gnode" struct_name="m" transform="translate(6.27,-141.93)" r="6.5"><circle class="node" r="6" node_type="nucleotide" style="fill: lightgreen;"></circle><text text-anchor="middle" font-size="8" font-weight="bold" y="2.5" class="node-label">C</text></g><g class="noselect gnode" struct_name="m" transform="translate(-2.72,-154.68)" r="6.5"><circle class="node" r="6" node_type="nucleotide" style="fill: lightblue;"></circle><text text-anchor="middle" font-size="8" font-weight="bold" y="2.5" class="node-label">C</text></g><g class="noselect gnode" struct_name="m" transform="translate(6.59,-166.82)" r="6.5"><circle class="node" r="6" node_type="nucleotide" style="fill: lightblue;"></circle><text text-anchor="middle" font-size="8" font-weight="bold" y="2.5" class="node-label">C</text></g><g class="noselect gnode" struct_name="m" transform="translate(21.09,-161.87)" r="6.5"><circle class="node" r="6" node_type="nucleotide" style="fill: lightblue;"></circle><text text-anchor="middle" font-size="8" font-weight="bold" y="2.5" class="node-label">A</text></g><g class="noselect gnode" struct_name="m" transform="translate(20.70,-146.24)" r="6.5"><circle class="node" r="6" node_type="nucleotide" style="fill: lightgreen;"></circle><text text-anchor="middle" font-size="8" font-weight="bold" y="2.5" class="node-label">G</text></g><g class="noselect gnode" struct_name="m" transform="translate(24.89,-130.95)" r="6.5"><circle class="node" r="6" node_type="nucleotide" style="fill: lightgreen;"></circle><text text-anchor="middle" font-size="8" font-weight="bold" y="2.5" class="node-label">G</text></g><g class="noselect gnode" struct_name="m" transform="translate(28.83,-115.15)" r="6.5"><circle class="node" r="6" node_type="nucleotide" style="fill: lightgreen;"></circle><text text-anchor="middle" font-size="8" font-weight="bold" y="2.5" class="node-label">A</text></g><g class="noselect gnode" struct_name="m" transform="translate(32.06,-99.00)" r="6.5"><circle class="node" r="6" node_type="nucleotide" style="fill: lightgreen;"></circle><text text-anchor="middle" font-size="8" font-weight="bold" y="2.5" class="node-label">A</text></g><g class="noselect gnode" struct_name="m" transform="translate(34.28,-82.52)" r="6.5"><circle class="node" r="6" node_type="nucleotide" style="fill: lightgreen;"></circle><text text-anchor="middle" font-size="8" font-weight="bold" y="2.5" class="node-label">U</text></g><g class="noselect gnode" struct_name="m" transform="translate(35.17,-65.73)" r="6.5"><circle class="node" r="6" node_type="nucleotide" style="fill: lightgreen;"></circle><text text-anchor="middle" font-size="8" font-weight="bold" y="2.5" class="node-label">G</text></g><g class="noselect gnode" struct_name="m" transform="translate(34.41,-48.76)" r="6.5"><circle class="node" r="6" node_type="nucleotide" style="fill: lightgreen;"></circle><text text-anchor="middle" font-size="8" font-weight="bold" y="2.5" class="node-label">C</text></g><g class="noselect gnode" struct_name="m" transform="translate(31.89,-32.02)" r="6.5"><circle class="node" r="6" node_type="nucleotide" style="fill: lightgreen;"></circle><text text-anchor="middle" font-size="8" font-weight="bold" y="2.5" class="node-label">U</text></g><g class="noselect gnode" struct_name="m" transform="translate(32.54,-15.19)" r="6.5"><circle class="node" r="6" node_type="nucleotide" style="fill: lightgreen;"></circle><text text-anchor="middle" font-size="8" font-weight="bold" y="2.5" class="node-label">G</text></g><g class="noselect gnode" struct_name="m" transform="translate(36.73,0.70)" r="6.5"><circle class="node" r="6" node_type="nucleotide" style="fill: lightgreen;"></circle><text text-anchor="middle" font-size="8" font-weight="bold" y="2.5" class="node-label">C</text></g><g class="noselect gnode" struct_name="m" transform="translate(40.60,16.22)" r="6.5"><circle class="node" r="6" node_type="nucleotide" style="fill: lightgreen;"></circle><text text-anchor="middle" font-size="8" font-weight="bold" y="2.5" class="node-label">A</text></g><g class="noselect gnode" struct_name="m" transform="translate(44.89,31.28)" r="6.5"><circle class="node" r="6" node_type="nucleotide" style="fill: lightgreen;"></circle><text text-anchor="middle" font-size="8" font-weight="bold" y="2.5" class="node-label">C</text></g><g class="noselect gnode" struct_name="m" transform="translate(50.21,45.76)" r="6.5"><circle class="node" r="6" node_type="nucleotide" style="fill: lightgreen;"></circle><text text-anchor="middle" font-size="8" font-weight="bold" y="2.5" class="node-label">C</text></g><g class="noselect gnode" struct_name="m" transform="translate(56.92,59.44)" r="6.5"><circle class="node" r="6" node_type="nucleotide" style="fill: lightgreen;"></circle><text text-anchor="middle" font-size="8" font-weight="bold" y="2.5" class="node-label">A</text></g><g class="noselect gnode" struct_name="m" transform="translate(65.21,71.83)" r="6.5"><circle class="node" r="6" node_type="nucleotide" style="fill: lightgreen;"></circle><text text-anchor="middle" font-size="8" font-weight="bold" y="2.5" class="node-label">G</text></g><g class="noselect gnode" struct_name="m" transform="translate(80.17,68.98)" r="6.5"><circle class="node" r="6" node_type="nucleotide" style="fill: rgb(219, 219, 141);"></circle><text text-anchor="middle" font-size="8" font-weight="bold" y="2.5" class="node-label">A</text></g><g class="noselect gnode" struct_name="m" transform="translate(94.49,73.44)" r="6.5"><circle class="node" r="6" node_type="nucleotide" style="fill: rgb(219, 219, 141);"></circle><text text-anchor="middle" font-size="8" font-weight="bold" y="2.5" class="node-label">A</text></g><g class="noselect gnode" struct_name="m" transform="translate(105.30,83.79)" r="6.5"><circle class="node" r="6" node_type="nucleotide" style="fill: rgb(219, 219, 141);"></circle><text text-anchor="middle" font-size="8" font-weight="bold" y="2.5" class="node-label">U</text></g><g class="noselect gnode" struct_name="m" transform="translate(110.19,97.86)" r="6.5"><circle class="node" r="6" node_type="nucleotide" style="fill: rgb(219, 219, 141);"></circle><text text-anchor="middle" font-size="8" font-weight="bold" y="2.5" class="node-label">A</text></g><g class="noselect gnode" struct_name="m" transform="translate(107.67,112.62)" r="6.5"><circle class="node" r="6" node_type="nucleotide" style="fill: rgb(219, 219, 141);"></circle><text text-anchor="middle" font-size="8" font-weight="bold" y="2.5" class="node-label">A</text></g><g class="noselect gnode" struct_name="m" transform="translate(98.63,124.59)" r="6.5"><circle class="node" r="6" node_type="nucleotide" style="fill: rgb(219, 219, 141);"></circle><text text-anchor="middle" font-size="8" font-weight="bold" y="2.5" class="node-label">U</text></g><g class="noselect gnode" struct_name="m" transform="translate(85.16,131.23)" r="6.5"><circle class="node" r="6" node_type="nucleotide" style="fill: rgb(219, 219, 141);"></circle><text text-anchor="middle" font-size="8" font-weight="bold" y="2.5" class="node-label">A</text></g><g class="noselect gnode" struct_name="m" transform="translate(69.92,130.75)" r="6.5"><circle class="node" r="6" node_type="nucleotide" style="fill: lightgreen;"></circle><text text-anchor="middle" font-size="8" font-weight="bold" y="2.5" class="node-label">A</text></g><g class="noselect gnode" struct_name="m" transform="translate(64.15,144.37)" r="6.5"><circle class="node" r="6" node_type="nucleotide" style="fill: lightgreen;"></circle><text text-anchor="middle" font-size="8" font-weight="bold" y="2.5" class="node-label">C</text></g><g class="noselect gnode" struct_name="m" transform="translate(60.79,158.94)" r="6.5"><circle class="node" r="6" node_type="nucleotide" style="fill: lightgreen;"></circle><text text-anchor="middle" font-size="8" font-weight="bold" y="2.5" class="node-label">G</text></g><g class="noselect gnode" struct_name="m" transform="translate(59.77,173.78)" r="6.5"><circle class="node" r="6" node_type="nucleotide" style="fill: lightgreen;"></circle><text text-anchor="middle" font-size="8" font-weight="bold" y="2.5" class="node-label">G</text></g><g class="noselect gnode" struct_name="m" transform="translate(61.19,188.46)" r="6.5"><circle class="node" r="6" node_type="nucleotide" style="fill: lightgreen;"></circle><text text-anchor="middle" font-size="8" font-weight="bold" y="2.5" class="node-label">G</text></g><g class="noselect gnode" struct_name="m" transform="translate(68.85,201.81)" r="6.5"><circle class="node" r="6" node_type="nucleotide" style="fill: rgb(219, 219, 141);"></circle><text text-anchor="middle" font-size="8" font-weight="bold" y="2.5" class="node-label">A</text></g><g class="noselect gnode" struct_name="m" transform="translate(58.47,212.98)" r="6.5"><circle class="node" r="6" node_type="nucleotide" style="fill: lightgreen;"></circle><text text-anchor="middle" font-size="8" font-weight="bold" y="2.5" class="node-label">C</text></g><g class="noselect gnode" struct_name="m" transform="translate(53.32,226.96)" r="6.5"><circle class="node" r="6" node_type="nucleotide" style="fill: lightgreen;"></circle><text text-anchor="middle" font-size="8" font-weight="bold" y="2.5" class="node-label">C</text></g><g class="noselect gnode" struct_name="m" transform="translate(33.22,111.73)" r="6.5"><circle class="node label" r="6" node_type="label"></circle><text text-anchor="middle" font-size="8" font-weight="bold" y="2.5" class="node-label">10</text></g><g class="noselect gnode" struct_name="m" transform="translate(1.90,-35.39)" r="6.5"><circle class="node label" r="6" node_type="label"></circle><text text-anchor="middle" font-size="8" font-weight="bold" y="2.5" class="node-label">20</text></g><g class="noselect gnode" struct_name="m" transform="translate(30.30,-174.22)" r="6.5"><circle class="node label" r="6" node_type="label"></circle><text text-anchor="middle" font-size="8" font-weight="bold" y="2.5" class="node-label">30</text></g><g class="noselect gnode" struct_name="m" transform="translate(52.18,-1.31)" r="6.5"><circle class="node label" r="6" node_type="label"></circle><text text-anchor="middle" font-size="8" font-weight="bold" y="2.5" class="node-label">40</text></g><g class="noselect gnode" struct_name="m" transform="translate(123.09,114.49)" r="6.5"><circle class="node label" r="6" node_type="label"></circle><text text-anchor="middle" font-size="8" font-weight="bold" y="2.5" class="node-label">50</text></g><g class="noselect gnode" struct_name="m" transform="translate(39.82,234.16)" r="6.5"><circle class="node label" r="6" node_type="label"></circle><text text-anchor="middle" font-size="8" font-weight="bold" y="2.5" class="node-label">60</text></g><g class="noselect gnode" transform="translate(54.60,70.04)" r="6.5"><circle class="node" r="0" node_type="middle"></circle><text text-anchor="middle" font-size="8" font-weight="bold" y="2.5" class="node-label"></text></g><g class="noselect gnode" transform="translate(46.63,56.06)" r="6.5"><circle class="node" r="0" node_type="middle"></circle><text text-anchor="middle" font-size="8" font-weight="bold" y="2.5" class="node-label"></text></g><g class="noselect gnode" transform="translate(40.38,41.21)" r="6.5"><circle class="node" r="0" node_type="middle"></circle><text text-anchor="middle" font-size="8" font-weight="bold" y="2.5" class="node-label"></text></g><g class="noselect gnode" transform="translate(35.51,25.86)" r="6.5"><circle class="node" r="0" node_type="middle"></circle><text text-anchor="middle" font-size="8" font-weight="bold" y="2.5" class="node-label"></text></g><g class="noselect gnode" transform="translate(31.55,10.29)" r="6.5"><circle class="node" r="0" node_type="middle"></circle><text text-anchor="middle" font-size="8" font-weight="bold" y="2.5" class="node-label"></text></g><g class="noselect gnode" transform="translate(27.74,-5.28)" r="6.5"><circle class="node" r="0" node_type="middle"></circle><text text-anchor="middle" font-size="8" font-weight="bold" y="2.5" class="node-label"></text></g><g class="noselect gnode" transform="translate(48.69,217.28)" r="6.5"><circle class="node" r="0" node_type="middle"></circle><text text-anchor="middle" font-size="8" font-weight="bold" y="2.5" class="node-label"></text></g><g class="noselect gnode" transform="translate(26.42,-41.43)" r="6.5"><circle class="node" r="0" node_type="middle"></circle><text text-anchor="middle" font-size="8" font-weight="bold" y="2.5" class="node-label"></text></g><g class="noselect gnode" transform="translate(28.02,-57.57)" r="6.5"><circle class="node" r="0" node_type="middle"></circle><text text-anchor="middle" font-size="8" font-weight="bold" y="2.5" class="node-label"></text></g><g class="noselect gnode" transform="translate(27.86,-73.79)" r="6.5"><circle class="node" r="0" node_type="middle"></circle><text text-anchor="middle" font-size="8" font-weight="bold" y="2.5" class="node-label"></text></g><g class="noselect gnode" transform="translate(26.27,-89.88)" r="6.5"><circle class="node" r="0" node_type="middle"></circle><text text-anchor="middle" font-size="8" font-weight="bold" y="2.5" class="node-label"></text></g><g class="noselect gnode" transform="translate(23.52,-105.72)" r="6.5"><circle class="node" r="0" node_type="middle"></circle><text text-anchor="middle" font-size="8" font-weight="bold" y="2.5" class="node-label"></text></g><g class="noselect gnode" transform="translate(19.93,-121.36)" r="6.5"><circle class="node" r="0" node_type="middle"></circle><text text-anchor="middle" font-size="8" font-weight="bold" y="2.5" class="node-label"></text></g><g class="noselect gnode" transform="translate(15.72,-136.70)" r="6.5"><circle class="node" r="0" node_type="middle"></circle><text text-anchor="middle" font-size="8" font-weight="bold" y="2.5" class="node-label"></text></g><g class="noselect gnode" transform="translate(52.58,181.86)" r="6.5"><circle class="node" r="0" node_type="middle"></circle><text text-anchor="middle" font-size="8" font-weight="bold" y="2.5" class="node-label"></text></g><g class="noselect gnode" transform="translate(52.38,165.81)" r="6.5"><circle class="node" r="0" node_type="middle"></circle><text text-anchor="middle" font-size="8" font-weight="bold" y="2.5" class="node-label"></text></g><g class="noselect gnode" transform="translate(54.78,149.87)" r="6.5"><circle class="node" r="0" node_type="middle"></circle><text text-anchor="middle" font-size="8" font-weight="bold" y="2.5" class="node-label"></text></g><g class="noselect gnode" transform="translate(59.76,134.43)" r="6.5"><circle class="node" r="0" node_type="middle"></circle><text text-anchor="middle" font-size="8" font-weight="bold" y="2.5" class="node-label"></text></g><g class="noselect gnode" transform="translate(56.20,242.51)" r="6.5"><circle class="node" r="0" node_type="middle"></circle><text text-anchor="middle" font-size="8" font-weight="bold" y="2.5" class="node-label"></text></g><g class="noselect gnode" transform="translate(45.97,251.96)" r="6.5"><circle class="node" r="0" node_type="middle"></circle><text text-anchor="middle" font-size="8" font-weight="bold" y="2.5" class="node-label"></text></g><g class="noselect gnode" transform="translate(42.33,237.22)" r="6.5"><circle class="node" r="0" node_type="middle"></circle><text text-anchor="middle" font-size="8" font-weight="bold" y="2.5" class="node-label"></text></g><g class="noselect gnode" transform="translate(10.41,-154.27)" r="6.5"><circle class="node" r="0" node_type="middle"></circle><text text-anchor="middle" font-size="8" font-weight="bold" y="2.5" class="node-label"></text></g><g class="noselect gnode" transform="translate(22.21,-23.19)" r="6.5"><circle class="node" r="0" node_type="middle"></circle><text text-anchor="middle" font-size="8" font-weight="bold" y="2.5" class="node-label"></text></g><g class="noselect gnode" transform="translate(55.61,200.24)" r="6.5"><circle class="node" r="0" node_type="middle"></circle><text text-anchor="middle" font-size="8" font-weight="bold" y="2.5" class="node-label"></text></g><g class="noselect gnode" transform="translate(78.36,100.51)" r="6.5"><circle class="node" r="0" node_type="middle"></circle><text text-anchor="middle" font-size="8" font-weight="bold" y="2.5" class="node-label"></text></g></g><line class="drag_line" x1="0" y1="0" x2="0" y2="0"></line></g></g></svg>