<svg xmlns="http://www.w3.org/2000/svg" viewBox="0 0 760 640" width="760" height="640"><style>svg {
  display: block;
  min-width: 100%;
  width: 100%;
  min-height: 100%;
}

circle.node {
  stroke: #ccc;
  stroke-width: 1px;
  opacity: 1;
  fill: white;
}

circle.node.label {
    stroke: transparent;
    stroke-width: 0;
    fill: white;
}

circle.outline_node {
    stroke-width: 1px;
    fill: red;
}

circle.protein {
    fill: gray;
    fill-opacity: 0.5;
    stroke-width: 4;
}

circle.hidden_outline {
    stroke-width: 0px;
}


line.link {
  stroke: #999;
  stroke-opacity: 0.8;
  stroke-width: 2;
}

line.basepair {
  stroke: red;
}

line.intermolecule {
  stroke: blue;
}

line.chain_chain {
  stroke-dasharray: 3,3;
}

line.fake {
  stroke: green;
}

.transparent {
    fill: transparent;
    stroke-width: 0;
    stroke-opacity: 0;
    opacity: 0;
    visibility: hidden;
}

.drag_line {
  stroke: #999;
  stroke-width: 2;
  pointer-events: none;
}

.drag_line_hidden {
  stroke: #999;
  stroke-width: 0;
  pointer-events: none;
}

.d3-tip {
    line-height: 1;
    font-weight: bold;
    padding: 6px;
    background: rgba(0, 0, 0, 0.6);
    color: #fff;
    border-radius: 4px;
    pointer-events: none;
          }

text.node-label {
    font-weight: bold;
    font-family: Tahoma, Geneva, sans-serif;
    color: rgb(100,100,100);
    pointer-events: none;
}

text {
    pointer-events: none;
}

g.gnode {

}

circle.outline_node.selected {
    visibility: visible;
}

circle.outline_node {
    visibility: hidden;
}

.brush .extent {
  fill-opacity: .1;
  stroke: #fff;
  shape-rendering: crispEdges;
}

.noselect {
    -webkit-touch-callout: none;
    -webkit-user-select: none;
    -khtml-user-select: none;
    -moz-user-select: none;
    -ms-user-select: none;
    user-select: none;
}

svg {
  display: block;
  min-width: 100%;
  width: 100%;
  min-height: 100%;
}

circle.node {
  stroke: #ccc;
  stroke-width: 1px;
  opacity: 1;
  fill: white;
}

circle.node.label {
    stroke: transparent;
    stroke-width: 0;
    fill: white;
}

circle.outline_node {
    stroke-width: 1px;
    fill: red;
}

circle.protein {
    fill: gray;
    fill-opacity: 0.5;
    stroke-width: 4;
}

circle.hidden_outline {
    stroke-width: 0px;
}


line.link {
  stroke: #999;
  stroke-opacity: 0.8;
  stroke-width: 2;
}

line.basepair {
  stroke: red;
}

line.intermolecule {
  stroke: blue;
}

line.chain_chain {
  stroke-dasharray: 3,3;
}

line.fake {
  stroke: green;
}

.transparent {
    fill: transparent;
    stroke-width: 0;
    stroke-opacity: 0;
    opacity: 0;
    visibility: hidden;
}

.drag_line {
  stroke: #999;
  stroke-width: 2;
  pointer-events: none;
}

.drag_line_hidden {
  stroke: #999;
  stroke-width: 0;
  pointer-events: none;
}

.d3-tip {
    line-height: 1;
    font-weight: bold;
    padding: 6px;
    background: rgba(0, 0, 0, 0.6);
    color: #fff;
    border-radius: 4px;
    pointer-events: none;
          }

text.node-label {
    font-weight: bold;
    font-family: Tahoma, Geneva, sans-serif;
    color: rgb(100,100,100);
    pointer-events: none;
}

text {
    pointer-events: none;
}

g.gnode {

}

circle.outline_node.selected {
    visibility: visible;
}

circle.outline_node {
    visibility: hidden;
}

.brush .extent {
  fill-opacity: .1;
  stroke: #fff;
  shape-rendering: crispEdges;
}

.noselect {
    -webkit-touch-callout: none;
    -webkit-user-select: none;
    -khtml-user-select: none;
    -moz-user-select: none;
    -ms-user-select: none;
    user-select: none;
}
/*# sourceURL=/Users/yumanakamura/ipy_sandbox/sandbox/claude_sandbox/mrna-transformer-worktrees/feat-issue57-switch-derna-knotty/scripts/eval/prerender/forna_vendor/fornac.css*/</style><style></style><g><g class="brush" style="pointer-events: all; -webkit-tap-highlight-color: rgba(0, 0, 0, 0);"><rect class="background" x="0" width="760" y="0" height="640" style="visibility: hidden; cursor: auto;"></rect><rect class="extent" x="0" width="0" y="0" height="0" style="cursor: move;"></rect><g class="resize n" transform="translate(0,0)" style="cursor: ns-resize; display: none;"><rect y="-3" width="0" height="6" style="visibility: hidden;"></rect></g><g class="resize e" transform="translate(0,0)" style="cursor: ew-resize; display: none;"><rect x="-3" width="6" height="0" style="visibility: hidden;"></rect></g><g class="resize s" transform="translate(0,0)" style="cursor: ns-resize; display: none;"><rect y="-3" width="0" height="6" style="visibility: hidden;"></rect></g><g class="resize w" transform="translate(0,0)" style="cursor: ew-resize; display: none;"><rect x="-3" width="6" height="0" style="visibility: hidden;"></rect></g><g class="resize nw" transform="translate(0,0)" style="cursor: nwse-resize; display: none;"><rect x="-3" y="-3" width="6" height="6" style="visibility: hidden;"></rect></g><g class="resize ne" transform="translate(0,0)" style="cursor: nesw-resize; display: none;"><rect x="-3" y="-3" width="6" height="6" style="visibility: hidden;"></rect></g><g class="resize se" transform="translate(0,0)" style="cursor: nwse-resize; display: none;"><rect x="-3" y="-3" width="6" height="6" style="visibility: hidden;"></rect></g><g class="resize sw" transform="translate(0,0)" style="cursor: nesw-resize; display: none;"><rect x="-3" y="-3" width="6" height="6" style="visibility: hidden;"></rect></g></g><g transform="translate(240.75,181.89) scale(1.41)"><g><line class="link backbone" x1="52.24" y1="275.03" x2="41.96" y2="285.80"></line><line class="link backbone" x1="41.96" y1="285.80" x2="27.77" y2="290.46"></line><line class="link backbone" x1="27.77" y1="290.46" x2="13.03" y2="288.11"></line><line class="link backbone" x1="13.03" y1="288.11" x2="0.83" y2="279.52"></line><line class="link backbone" x1="0.83" y1="279.52" x2="-6.04" y2="266.21"></line><line class="link backbone" x1="-6.04" y1="266.21" x2="-5.88" y2="251.25"></line><line class="link backbone" x1="-5.88" y1="251.25" x2="1.44" y2="238.01"></line><line class="link backbone" x1="1.44" y1="238.01" x2="13.83" y2="229.65"></line><line class="link basepair" x1="29.14" y1="227.31" x2="42.95" y2="232.85"></line><line class="link backbone" x1="13.83" y1="229.65" x2="29.14" y2="227.31"></line><line class="link basepair" x1="35.90" y1="212.44" x2="49.06" y2="218.50"></line><line class="link backbone" x1="29.14" y1="227.31" x2="35.90" y2="212.44"></line><line class="link basepair" x1="42.90" y1="197.74" x2="55.97" y2="204.08"></line><line class="link backbone" x1="35.90" y1="212.44" x2="42.90" y2="197.74"></line><line class="link basepair" x1="50.06" y1="183.20" x2="63.07" y2="189.70"></line><line class="link backbone" x1="42.90" y1="197.74" x2="50.06" y2="183.20"></line><line class="link basepair" x1="57.16" y1="168.83" x2="70.35" y2="175.58"></line><line class="link backbone" x1="50.06" y1="183.20" x2="57.16" y2="168.83"></line><line class="link backbone" x1="57.16" y1="168.83" x2="52.72" y2="154.06"></line><line class="link backbone" x1="52.72" y1="154.06" x2="59.60" y2="140.90"></line><line class="link basepair" x1="74.25" y1="136.16" x2="87.30" y2="143.21"></line><line class="link backbone" x1="59.60" y1="140.90" x2="74.25" y2="136.16"></line><line class="link basepair" x1="82.27" y1="122.16" x2="94.83" y2="129.52"></line><line class="link backbone" x1="74.25" y1="136.16" x2="82.27" y2="122.16"></line><line class="link basepair" x1="90.69" y1="108.22" x2="103.10" y2="116.16"></line><line class="link backbone" x1="82.27" y1="122.16" x2="90.69" y2="108.22"></line><line class="link backbone" x1="90.69" y1="108.22" x2="91.57" y2="92.79"></line><line class="link basepair" x1="105.43" y1="85.82" x2="117.55" y2="94.14"></line><line class="link backbone" x1="91.57" y1="92.79" x2="105.43" y2="85.82"></line><line class="link basepair" x1="115.32" y1="72.50" x2="126.69" y2="82.03"></line><line class="link backbone" x1="105.43" y1="85.82" x2="115.32" y2="72.50"></line><line class="link basepair" x1="122.18" y1="57.27" x2="136.87" y2="59.48"></line><line class="link backbone" x1="115.32" y1="72.50" x2="122.18" y2="57.27"></line><line class="link basepair" x1="125.74" y1="40.99" x2="139.84" y2="44.59"></line><line class="link backbone" x1="122.18" y1="57.27" x2="125.74" y2="40.99"></line><line class="link basepair" x1="130.29" y1="25.16" x2="144.31" y2="29.84"></line><line class="link backbone" x1="125.74" y1="40.99" x2="130.29" y2="25.16"></line><line class="link backbone" x1="130.29" y1="25.16" x2="127.47" y2="9.96"></line><line class="link basepair" x1="139.27" y1="-0.06" x2="153.07" y2="5.11"></line><line class="link backbone" x1="127.47" y1="9.96" x2="139.27" y2="-0.06"></line><line class="link basepair" x1="145.60" y1="-15.24" x2="158.87" y2="-9.43"></line><line class="link backbone" x1="139.27" y1="-0.06" x2="145.60" y2="-15.24"></line><line class="link basepair" x1="152.51" y1="-30.14" x2="165.59" y2="-23.78"></line><line class="link backbone" x1="145.60" y1="-15.24" x2="152.51" y2="-30.14"></line><line class="link basepair" x1="159.80" y1="-44.66" x2="172.77" y2="-38.03"></line><line class="link backbone" x1="152.51" y1="-30.14" x2="159.80" y2="-44.66"></line><line class="link basepair" x1="166.96" y1="-58.87" x2="180.20" y2="-52.02"></line><line class="link backbone" x1="159.80" y1="-44.66" x2="166.96" y2="-58.87"></line><line class="link backbone" x1="166.96" y1="-58.87" x2="162.47" y2="-73.53"></line><line class="link backbone" x1="162.47" y1="-73.53" x2="169.36" y2="-86.84"></line><line class="link backbone" x1="169.36" y1="-86.84" x2="183.72" y2="-91.31"></line><line class="link backbone" x1="183.72" y1="-91.31" x2="197.00" y2="-84.45"></line><line class="link backbone" x1="197.00" y1="-84.45" x2="201.65" y2="-70.14"></line><line class="link backbone" x1="201.65" y1="-70.14" x2="194.77" y2="-56.81"></line><line class="link basepair" x1="180.20" y1="-52.02" x2="166.96" y2="-58.87"></line><line class="link backbone" x1="194.77" y1="-56.81" x2="180.20" y2="-52.02"></line><line class="link basepair" x1="172.77" y1="-38.03" x2="159.80" y2="-44.66"></line><line class="link backbone" x1="180.20" y1="-52.02" x2="172.77" y2="-38.03"></line><line class="link basepair" x1="165.59" y1="-23.78" x2="152.51" y2="-30.14"></line><line class="link backbone" x1="172.77" y1="-38.03" x2="165.59" y2="-23.78"></line><line class="link basepair" x1="158.87" y1="-9.43" x2="145.60" y2="-15.24"></line><line class="link backbone" x1="165.59" y1="-23.78" x2="158.87" y2="-9.43"></line><line class="link basepair" x1="153.07" y1="5.11" x2="139.27" y2="-0.06"></line><line class="link backbone" x1="158.87" y1="-9.43" x2="153.07" y2="5.11"></line><line class="link backbone" x1="153.07" y1="5.11" x2="155.89" y2="20.05"></line><line class="link basepair" x1="144.31" y1="29.84" x2="130.29" y2="25.16"></line><line class="link backbone" x1="155.89" y1="20.05" x2="144.31" y2="29.84"></line><line class="link basepair" x1="139.84" y1="44.59" x2="125.74" y2="40.99"></line><line class="link backbone" x1="144.31" y1="29.84" x2="139.84" y2="44.59"></line><line class="link basepair" x1="136.87" y1="59.48" x2="122.18" y2="57.27"></line><line class="link backbone" x1="139.84" y1="44.59" x2="136.87" y2="59.48"></line><line class="link backbone" x1="136.87" y1="59.48" x2="140.12" y2="74.52"></line><line class="link basepair" x1="126.69" y1="82.03" x2="115.32" y2="72.50"></line><line class="link backbone" x1="140.12" y1="74.52" x2="126.69" y2="82.03"></line><line class="link basepair" x1="117.55" y1="94.14" x2="105.43" y2="85.82"></line><line class="link backbone" x1="126.69" y1="82.03" x2="117.55" y2="94.14"></line><line class="link backbone" x1="117.55" y1="94.14" x2="116.76" y2="109.36"></line><line class="link basepair" x1="103.10" y1="116.16" x2="90.69" y2="108.22"></line><line class="link backbone" x1="116.76" y1="109.36" x2="103.10" y2="116.16"></line><line class="link basepair" x1="94.83" y1="129.52" x2="82.27" y2="122.16"></line><line class="link backbone" x1="103.10" y1="116.16" x2="94.83" y2="129.52"></line><line class="link basepair" x1="87.30" y1="143.21" x2="74.25" y2="136.16"></line><line class="link backbone" x1="94.83" y1="129.52" x2="87.30" y2="143.21"></line><line class="link backbone" x1="87.30" y1="143.21" x2="91.86" y2="157.78"></line><line class="link backbone" x1="91.86" y1="157.78" x2="84.95" y2="170.97"></line><line class="link basepair" x1="70.35" y1="175.58" x2="57.16" y2="168.83"></line><line class="link backbone" x1="84.95" y1="170.97" x2="70.35" y2="175.58"></line><line class="link basepair" x1="63.07" y1="189.70" x2="50.06" y2="183.20"></line><line class="link backbone" x1="70.35" y1="175.58" x2="63.07" y2="189.70"></line><line class="link basepair" x1="55.97" y1="204.08" x2="42.90" y2="197.74"></line><line class="link backbone" x1="63.07" y1="189.70" x2="55.97" y2="204.08"></line><line class="link basepair" x1="49.06" y1="218.50" x2="35.90" y2="212.44"></line><line class="link backbone" x1="55.97" y1="204.08" x2="49.06" y2="218.50"></line><line class="link basepair" x1="42.95" y1="232.85" x2="29.14" y2="227.31"></line><line class="link backbone" x1="49.06" y1="218.50" x2="42.95" y2="232.85"></line><line class="link label_link" x1="29.14" y1="227.31" x2="16.70" y2="218.02"></line><line class="link label_link" x1="91.57" y1="92.79" x2="78.11" y2="84.91"></line><line class="link label_link" x1="159.80" y1="-44.66" x2="146.90" y2="-53.39"></line><line class="link label_link" x1="165.59" y1="-23.78" x2="179.77" y2="-17.29"></line><line class="link label_link" x1="116.76" y1="109.36" x2="130.12" y2="117.44"></line><line class="link label_link" x1="42.95" y1="232.85" x2="46.38" y2="247.77"></line><line class="link fake transparent" x1="105.43" y1="85.82" x2="116.02" y2="83.36"></line><line class="link fake transparent" x1="105.43" y1="85.82" x2="126.69" y2="82.03"></line><line class="link fake transparent" x1="115.32" y1="72.50" x2="116.02" y2="83.36"></line><line class="link fake transparent" x1="126.69" y1="82.03" x2="116.02" y2="83.36"></line><line class="link fake transparent" x1="117.55" y1="94.14" x2="116.02" y2="83.36"></line><line class="link fake transparent" x1="122.18" y1="57.27" x2="130.79" y2="50.58"></line><line class="link fake transparent" x1="125.74" y1="40.99" x2="130.79" y2="50.58"></line><line class="link fake transparent" x1="139.84" y1="44.59" x2="130.79" y2="50.58"></line><line class="link fake transparent" x1="136.87" y1="59.48" x2="130.79" y2="50.58"></line><line class="link fake transparent" x1="125.74" y1="40.99" x2="134.78" y2="35.08"></line><line class="link fake transparent" x1="130.29" y1="25.16" x2="134.78" y2="35.08"></line><line class="link fake transparent" x1="144.31" y1="29.84" x2="134.78" y2="35.08"></line><line class="link fake transparent" x1="139.84" y1="44.59" x2="134.78" y2="35.08"></line><line class="link fake transparent" x1="139.27" y1="-0.06" x2="148.99" y2="-4.97"></line><line class="link fake transparent" x1="145.60" y1="-15.24" x2="148.99" y2="-4.97"></line><line class="link fake transparent" x1="158.87" y1="-9.43" x2="148.99" y2="-4.97"></line><line class="link fake transparent" x1="153.07" y1="5.11" x2="148.99" y2="-4.97"></line><line class="link fake transparent" x1="145.60" y1="-15.24" x2="155.49" y2="-19.75"></line><line class="link fake transparent" x1="152.51" y1="-30.14" x2="155.49" y2="-19.75"></line><line class="link fake transparent" x1="165.59" y1="-23.78" x2="155.49" y2="-19.75"></line><line class="link fake transparent" x1="158.87" y1="-9.43" x2="155.49" y2="-19.75"></line><line class="link fake transparent" x1="152.51" y1="-30.14" x2="162.60" y2="-34.20"></line><line class="link fake transparent" x1="159.80" y1="-44.66" x2="162.60" y2="-34.20"></line><line class="link fake transparent" x1="172.77" y1="-38.03" x2="162.60" y2="-34.20"></line><line class="link fake transparent" x1="165.59" y1="-23.78" x2="162.60" y2="-34.20"></line><line class="link fake transparent" x1="159.80" y1="-44.66" x2="169.95" y2="-48.46"></line><line class="link fake transparent" x1="166.96" y1="-58.87" x2="169.95" y2="-48.46"></line><line class="link fake transparent" x1="180.20" y1="-52.02" x2="169.95" y2="-48.46"></line><line class="link fake transparent" x1="172.77" y1="-38.03" x2="169.95" y2="-48.46"></line><line class="link fake transparent" x1="29.14" y1="227.31" x2="39.07" y2="222.84"></line><line class="link fake transparent" x1="35.90" y1="212.44" x2="39.07" y2="222.84"></line><line class="link fake transparent" x1="49.06" y1="218.50" x2="39.07" y2="222.84"></line><line class="link fake transparent" x1="42.95" y1="232.85" x2="39.07" y2="222.84"></line><line class="link fake transparent" x1="35.90" y1="212.44" x2="45.91" y2="208.15"></line><line class="link fake transparent" x1="42.90" y1="197.74" x2="45.91" y2="208.15"></line><line class="link fake transparent" x1="55.97" y1="204.08" x2="45.91" y2="208.15"></line><line class="link fake transparent" x1="49.06" y1="218.50" x2="45.91" y2="208.15"></line><line class="link fake transparent" x1="42.90" y1="197.74" x2="52.96" y2="193.65"></line><line class="link fake transparent" x1="50.06" y1="183.20" x2="52.96" y2="193.65"></line><line class="link fake transparent" x1="63.07" y1="189.70" x2="52.96" y2="193.65"></line><line class="link fake transparent" x1="55.97" y1="204.08" x2="52.96" y2="193.65"></line><line class="link fake transparent" x1="50.06" y1="183.20" x2="60.15" y2="179.26"></line><line class="link fake transparent" x1="57.16" y1="168.83" x2="60.15" y2="179.26"></line><line class="link fake transparent" x1="70.35" y1="175.58" x2="60.15" y2="179.26"></line><line class="link fake transparent" x1="63.07" y1="189.70" x2="60.15" y2="179.26"></line><line class="link fake transparent" x1="74.25" y1="136.16" x2="84.49" y2="132.76"></line><line class="link fake transparent" x1="82.27" y1="122.16" x2="84.49" y2="132.76"></line><line class="link fake transparent" x1="94.83" y1="129.52" x2="84.49" y2="132.76"></line><line class="link fake transparent" x1="87.30" y1="143.21" x2="84.49" y2="132.76"></line><line class="link fake transparent" x1="82.27" y1="122.16" x2="92.58" y2="118.94"></line><line class="link fake transparent" x1="90.69" y1="108.22" x2="92.58" y2="118.94"></line><line class="link fake transparent" x1="103.10" y1="116.16" x2="92.58" y2="118.94"></line><line class="link fake transparent" x1="94.83" y1="129.52" x2="92.58" y2="118.94"></line><line class="link fake transparent" x1="52.24" y1="275.03" x2="24.87" y2="258.89"></line><line class="link fake transparent" x1="52.24" y1="275.03" x2="-5.88" y2="251.25"></line><line class="link fake transparent" x1="41.96" y1="285.80" x2="24.87" y2="258.89"></line><line class="link fake transparent" x1="41.96" y1="285.80" x2="1.44" y2="238.01"></line><line class="link fake transparent" x1="27.77" y1="290.46" x2="24.87" y2="258.89"></line><line class="link fake transparent" x1="27.77" y1="290.46" x2="13.83" y2="229.65"></line><line class="link fake transparent" x1="13.03" y1="288.11" x2="24.87" y2="258.89"></line><line class="link fake transparent" x1="13.03" y1="288.11" x2="29.14" y2="227.31"></line><line class="link fake transparent" x1="0.83" y1="279.52" x2="24.87" y2="258.89"></line><line class="link fake transparent" x1="0.83" y1="279.52" x2="42.95" y2="232.85"></line><line class="link fake transparent" x1="-6.04" y1="266.21" x2="24.87" y2="258.89"></line><line class="link fake transparent" x1="-6.04" y1="266.21" x2="53.04" y2="244.64"></line><line class="link fake transparent" x1="-5.88" y1="251.25" x2="24.87" y2="258.89"></line><line class="link fake transparent" x1="-5.88" y1="251.25" x2="56.59" y2="258.99"></line><line class="link fake transparent" x1="1.44" y1="238.01" x2="24.87" y2="258.89"></line><line class="link fake transparent" x1="1.44" y1="238.01" x2="52.24" y2="275.03"></line><line class="link fake transparent" x1="13.83" y1="229.65" x2="24.87" y2="258.89"></line><line class="link fake transparent" x1="13.83" y1="229.65" x2="41.96" y2="285.80"></line><line class="link fake transparent" x1="29.14" y1="227.31" x2="24.87" y2="258.89"></line><line class="link fake transparent" x1="29.14" y1="227.31" x2="27.77" y2="290.46"></line><line class="link fake transparent" x1="42.95" y1="232.85" x2="24.87" y2="258.89"></line><line class="link fake transparent" x1="42.95" y1="232.85" x2="13.03" y2="288.11"></line><line class="link fake transparent" x1="166.96" y1="-58.87" x2="181.99" y2="-71.66"></line><line class="link fake transparent" x1="166.96" y1="-58.87" x2="197.00" y2="-84.45"></line><line class="link fake transparent" x1="162.47" y1="-73.53" x2="181.99" y2="-71.66"></line><line class="link fake transparent" x1="162.47" y1="-73.53" x2="201.65" y2="-70.14"></line><line class="link fake transparent" x1="169.36" y1="-86.84" x2="181.99" y2="-71.66"></line><line class="link fake transparent" x1="169.36" y1="-86.84" x2="194.77" y2="-56.81"></line><line class="link fake transparent" x1="183.72" y1="-91.31" x2="181.99" y2="-71.66"></line><line class="link fake transparent" x1="183.72" y1="-91.31" x2="180.20" y2="-52.02"></line><line class="link fake transparent" x1="197.00" y1="-84.45" x2="181.99" y2="-71.66"></line><line class="link fake transparent" x1="197.00" y1="-84.45" x2="166.96" y2="-58.87"></line><line class="link fake transparent" x1="201.65" y1="-70.14" x2="181.99" y2="-71.66"></line><line class="link fake transparent" x1="201.65" y1="-70.14" x2="162.47" y2="-73.53"></line><line class="link fake transparent" x1="194.77" y1="-56.81" x2="181.99" y2="-71.66"></line><line class="link fake transparent" x1="194.77" y1="-56.81" x2="169.36" y2="-86.84"></line><line class="link fake transparent" x1="180.20" y1="-52.02" x2="181.99" y2="-71.66"></line><line class="link fake transparent" x1="180.20" y1="-52.02" x2="183.72" y2="-91.31"></line><line class="link fake transparent" x1="115.32" y1="72.50" x2="127.95" y2="69.03"></line><line class="link fake transparent" x1="115.32" y1="72.50" x2="136.87" y2="59.48"></line><line class="link fake transparent" x1="122.18" y1="57.27" x2="127.95" y2="69.03"></line><line class="link fake transparent" x1="122.18" y1="57.27" x2="140.12" y2="74.52"></line><line class="link fake transparent" x1="136.87" y1="59.48" x2="127.95" y2="69.03"></line><line class="link fake transparent" x1="136.87" y1="59.48" x2="126.69" y2="82.03"></line><line class="link fake transparent" x1="140.12" y1="74.52" x2="127.95" y2="69.03"></line><line class="link fake transparent" x1="140.12" y1="74.52" x2="115.32" y2="72.50"></line><line class="link fake transparent" x1="126.69" y1="82.03" x2="127.95" y2="69.03"></line><line class="link fake transparent" x1="126.69" y1="82.03" x2="122.18" y2="57.27"></line><line class="link fake transparent" x1="130.29" y1="25.16" x2="141.60" y2="14.97"></line><line class="link fake transparent" x1="130.29" y1="25.16" x2="153.07" y2="5.11"></line><line class="link fake transparent" x1="127.47" y1="9.96" x2="141.60" y2="14.97"></line><line class="link fake transparent" x1="127.47" y1="9.96" x2="155.89" y2="20.05"></line><line class="link fake transparent" x1="139.27" y1="-0.06" x2="141.60" y2="14.97"></line><line class="link fake transparent" x1="139.27" y1="-0.06" x2="144.31" y2="29.84"></line><line class="link fake transparent" x1="153.07" y1="5.11" x2="141.60" y2="14.97"></line><line class="link fake transparent" x1="153.07" y1="5.11" x2="130.29" y2="25.16"></line><line class="link fake transparent" x1="155.89" y1="20.05" x2="141.60" y2="14.97"></line><line class="link fake transparent" x1="155.89" y1="20.05" x2="127.47" y2="9.96"></line><line class="link fake transparent" x1="144.31" y1="29.84" x2="141.60" y2="14.97"></line><line class="link fake transparent" x1="144.31" y1="29.84" x2="139.27" y2="-0.06"></line><line class="link fake transparent" x1="57.16" y1="168.83" x2="72.23" y2="155.94"></line><line class="link fake transparent" x1="57.16" y1="168.83" x2="87.30" y2="143.21"></line><line class="link fake transparent" x1="52.72" y1="154.06" x2="72.23" y2="155.94"></line><line class="link fake transparent" x1="52.72" y1="154.06" x2="91.86" y2="157.78"></line><line class="link fake transparent" x1="59.60" y1="140.90" x2="72.23" y2="155.94"></line><line class="link fake transparent" x1="59.60" y1="140.90" x2="84.95" y2="170.97"></line><line class="link fake transparent" x1="74.25" y1="136.16" x2="72.23" y2="155.94"></line><line class="link fake transparent" x1="74.25" y1="136.16" x2="70.35" y2="175.58"></line><line class="link fake transparent" x1="87.30" y1="143.21" x2="72.23" y2="155.94"></line><line class="link fake transparent" x1="87.30" y1="143.21" x2="57.16" y2="168.83"></line><line class="link fake transparent" x1="91.86" y1="157.78" x2="72.23" y2="155.94"></line><line class="link fake transparent" x1="91.86" y1="157.78" x2="52.72" y2="154.06"></line><line class="link fake transparent" x1="84.95" y1="170.97" x2="72.23" y2="155.94"></line><line class="link fake transparent" x1="84.95" y1="170.97" x2="59.60" y2="140.90"></line><line class="link fake transparent" x1="70.35" y1="175.58" x2="72.23" y2="155.94"></line><line class="link fake transparent" x1="70.35" y1="175.58" x2="74.25" y2="136.16"></line><line class="link fake transparent" x1="90.69" y1="108.22" x2="104.11" y2="101.03"></line><line class="link fake transparent" x1="90.69" y1="108.22" x2="117.55" y2="94.14"></line><line class="link fake transparent" x1="91.57" y1="92.79" x2="104.11" y2="101.03"></line><line class="link fake transparent" x1="91.57" y1="92.79" x2="116.76" y2="109.36"></line><line class="link fake transparent" x1="105.43" y1="85.82" x2="104.11" y2="101.03"></line><line class="link fake transparent" x1="105.43" y1="85.82" x2="103.10" y2="116.16"></line><line class="link fake transparent" x1="117.55" y1="94.14" x2="104.11" y2="101.03"></line><line class="link fake transparent" x1="117.55" y1="94.14" x2="90.69" y2="108.22"></line><line class="link fake transparent" x1="116.76" y1="109.36" x2="104.11" y2="101.03"></line><line class="link fake transparent" x1="116.76" y1="109.36" x2="91.57" y2="92.79"></line><line class="link fake transparent" x1="103.10" y1="116.16" x2="104.11" y2="101.03"></line><line class="link fake transparent" x1="103.10" y1="116.16" x2="105.43" y2="85.82"></line></g><g><g class="noselect gnode" struct_name="m" transform="translate(52.24,275.03)" r="6.5"><circle class="node" r="6" node_type="nucleotide" style="fill: lightsalmon;"></circle><text text-anchor="middle" font-size="8" font-weight="bold" y="2.5" class="node-label">U</text></g><g class="noselect gnode" struct_name="m" transform="translate(41.96,285.80)" r="6.5"><circle class="node" r="6" node_type="nucleotide" style="fill: lightsalmon;"></circle><text text-anchor="middle" font-size="8" font-weight="bold" y="2.5" class="node-label">G</text></g><g class="noselect gnode" struct_name="m" transform="translate(27.77,290.46)" r="6.5"><circle class="node" r="6" node_type="nucleotide" style="fill: lightsalmon;"></circle><text text-anchor="middle" font-size="8" font-weight="bold" y="2.5" class="node-label">U</text></g><g class="noselect gnode" struct_name="m" transform="translate(13.03,288.11)" r="6.5"><circle class="node" r="6" node_type="nucleotide" style="fill: lightsalmon;"></circle><text text-anchor="middle" font-size="8" font-weight="bold" y="2.5" class="node-label">U</text></g><g class="noselect gnode" struct_name="m" transform="translate(0.83,279.52)" r="6.5"><circle class="node" r="6" node_type="nucleotide" style="fill: lightsalmon;"></circle><text text-anchor="middle" font-size="8" font-weight="bold" y="2.5" class="node-label">A</text></g><g class="noselect gnode" struct_name="m" transform="translate(-6.04,266.21)" r="6.5"><circle class="node" r="6" node_type="nucleotide" style="fill: lightsalmon;"></circle><text text-anchor="middle" font-size="8" font-weight="bold" y="2.5" class="node-label">U</text></g><g class="noselect gnode" struct_name="m" transform="translate(-5.88,251.25)" r="6.5"><circle class="node" r="6" node_type="nucleotide" style="fill: lightsalmon;"></circle><text text-anchor="middle" font-size="8" font-weight="bold" y="2.5" class="node-label">G</text></g><g class="noselect gnode" struct_name="m" transform="translate(1.44,238.01)" r="6.5"><circle class="node" r="6" node_type="nucleotide" style="fill: lightsalmon;"></circle><text text-anchor="middle" font-size="8" font-weight="bold" y="2.5" class="node-label">A</text></g><g class="noselect gnode" struct_name="m" transform="translate(13.83,229.65)" r="6.5"><circle class="node" r="6" node_type="nucleotide" style="fill: lightsalmon;"></circle><text text-anchor="middle" font-size="8" font-weight="bold" y="2.5" class="node-label">U</text></g><g class="noselect gnode" struct_name="m" transform="translate(29.14,227.31)" r="6.5"><circle class="node" r="6" node_type="nucleotide" style="fill: lightgreen;"></circle><text text-anchor="middle" font-size="8" font-weight="bold" y="2.5" class="node-label">A</text></g><g class="noselect gnode" struct_name="m" transform="translate(35.90,212.44)" r="6.5"><circle class="node" r="6" node_type="nucleotide" style="fill: lightgreen;"></circle><text text-anchor="middle" font-size="8" font-weight="bold" y="2.5" class="node-label">U</text></g><g class="noselect gnode" struct_name="m" transform="translate(42.90,197.74)" r="6.5"><circle class="node" r="6" node_type="nucleotide" style="fill: lightgreen;"></circle><text text-anchor="middle" font-size="8" font-weight="bold" y="2.5" class="node-label">A</text></g><g class="noselect gnode" struct_name="m" transform="translate(50.06,183.20)" r="6.5"><circle class="node" r="6" node_type="nucleotide" style="fill: lightgreen;"></circle><text text-anchor="middle" font-size="8" font-weight="bold" y="2.5" class="node-label">A</text></g><g class="noselect gnode" struct_name="m" transform="translate(57.16,168.83)" r="6.5"><circle class="node" r="6" node_type="nucleotide" style="fill: lightgreen;"></circle><text text-anchor="middle" font-size="8" font-weight="bold" y="2.5" class="node-label">A</text></g><g class="noselect gnode" struct_name="m" transform="translate(52.72,154.06)" r="6.5"><circle class="node" r="6" node_type="nucleotide" style="fill: rgb(219, 219, 141);"></circle><text text-anchor="middle" font-size="8" font-weight="bold" y="2.5" class="node-label">U</text></g><g class="noselect gnode" struct_name="m" transform="translate(59.60,140.90)" r="6.5"><circle class="node" r="6" node_type="nucleotide" style="fill: rgb(219, 219, 141);"></circle><text text-anchor="middle" font-size="8" font-weight="bold" y="2.5" class="node-label">U</text></g><g class="noselect gnode" struct_name="m" transform="translate(74.25,136.16)" r="6.5"><circle class="node" r="6" node_type="nucleotide" style="fill: lightgreen;"></circle><text text-anchor="middle" font-size="8" font-weight="bold" y="2.5" class="node-label">U</text></g><g class="noselect gnode" struct_name="m" transform="translate(82.27,122.16)" r="6.5"><circle class="node" r="6" node_type="nucleotide" style="fill: lightgreen;"></circle><text text-anchor="middle" font-size="8" font-weight="bold" y="2.5" class="node-label">G</text></g><g class="noselect gnode" struct_name="m" transform="translate(90.69,108.22)" r="6.5"><circle class="node" r="6" node_type="nucleotide" style="fill: lightgreen;"></circle><text text-anchor="middle" font-size="8" font-weight="bold" y="2.5" class="node-label">C</text></g><g class="noselect gnode" struct_name="m" transform="translate(91.57,92.79)" r="6.5"><circle class="node" r="6" node_type="nucleotide" style="fill: rgb(219, 219, 141);"></circle><text text-anchor="middle" font-size="8" font-weight="bold" y="2.5" class="node-label">A</text></g><g class="noselect gnode" struct_name="m" transform="translate(105.43,85.82)" r="6.5"><circle class="node" r="6" node_type="nucleotide" style="fill: lightgreen;"></circle><text text-anchor="middle" font-size="8" font-weight="bold" y="2.5" class="node-label">G</text></g><g class="noselect gnode" struct_name="m" transform="translate(115.32,72.50)" r="6.5"><circle class="node" r="6" node_type="nucleotide" style="fill: lightgreen;"></circle><text text-anchor="middle" font-size="8" font-weight="bold" y="2.5" class="node-label">C</text></g><g class="noselect gnode" struct_name="m" transform="translate(122.18,57.27)" r="6.5"><circle class="node" r="6" node_type="nucleotide" style="fill: lightgreen;"></circle><text text-anchor="middle" font-size="8" font-weight="bold" y="2.5" class="node-label">A</text></g><g class="noselect gnode" struct_name="m" transform="translate(125.74,40.99)" r="6.5"><circle class="node" r="6" node_type="nucleotide" style="fill: lightgreen;"></circle><text text-anchor="middle" font-size="8" font-weight="bold" y="2.5" class="node-label">G</text></g><g class="noselect gnode" struct_name="m" transform="translate(130.29,25.16)" r="6.5"><circle class="node" r="6" node_type="nucleotide" style="fill: lightgreen;"></circle><text text-anchor="middle" font-size="8" font-weight="bold" y="2.5" class="node-label">G</text></g><g class="noselect gnode" struct_name="m" transform="translate(127.47,9.96)" r="6.5"><circle class="node" r="6" node_type="nucleotide" style="fill: rgb(219, 219, 141);"></circle><text text-anchor="middle" font-size="8" font-weight="bold" y="2.5" class="node-label">G</text></g><g class="noselect gnode" struct_name="m" transform="translate(139.27,-0.06)" r="6.5"><circle class="node" r="6" node_type="nucleotide" style="fill: lightgreen;"></circle><text text-anchor="middle" font-size="8" font-weight="bold" y="2.5" class="node-label">G</text></g><g class="noselect gnode" struct_name="m" transform="translate(145.60,-15.24)" r="6.5"><circle class="node" r="6" node_type="nucleotide" style="fill: lightgreen;"></circle><text text-anchor="middle" font-size="8" font-weight="bold" y="2.5" class="node-label">G</text></g><g class="noselect gnode" struct_name="m" transform="translate(152.51,-30.14)" r="6.5"><circle class="node" r="6" node_type="nucleotide" style="fill: lightgreen;"></circle><text text-anchor="middle" font-size="8" font-weight="bold" y="2.5" class="node-label">C</text></g><g class="noselect gnode" struct_name="m" transform="translate(159.80,-44.66)" r="6.5"><circle class="node" r="6" node_type="nucleotide" style="fill: lightgreen;"></circle><text text-anchor="middle" font-size="8" font-weight="bold" y="2.5" class="node-label">C</text></g><g class="noselect gnode" struct_name="m" transform="translate(166.96,-58.87)" r="6.5"><circle class="node" r="6" node_type="nucleotide" style="fill: lightgreen;"></circle><text text-anchor="middle" font-size="8" font-weight="bold" y="2.5" class="node-label">A</text></g><g class="noselect gnode" struct_name="m" transform="translate(162.47,-73.53)" r="6.5"><circle class="node" r="6" node_type="nucleotide" style="fill: lightblue;"></circle><text text-anchor="middle" font-size="8" font-weight="bold" y="2.5" class="node-label">G</text></g><g class="noselect gnode" struct_name="m" transform="translate(169.36,-86.84)" r="6.5"><circle class="node" r="6" node_type="nucleotide" style="fill: lightblue;"></circle><text text-anchor="middle" font-size="8" font-weight="bold" y="2.5" class="node-label">U</text></g><g class="noselect gnode" struct_name="m" transform="translate(183.72,-91.31)" r="6.5"><circle class="node" r="6" node_type="nucleotide" style="fill: lightblue;"></circle><text text-anchor="middle" font-size="8" font-weight="bold" y="2.5" class="node-label">U</text></g><g class="noselect gnode" struct_name="m" transform="translate(197.00,-84.45)" r="6.5"><circle class="node" r="6" node_type="nucleotide" style="fill: lightblue;"></circle><text text-anchor="middle" font-size="8" font-weight="bold" y="2.5" class="node-label">G</text></g><g class="noselect gnode" struct_name="m" transform="translate(201.65,-70.14)" r="6.5"><circle class="node" r="6" node_type="nucleotide" style="fill: lightblue;"></circle><text text-anchor="middle" font-size="8" font-weight="bold" y="2.5" class="node-label">G</text></g><g class="noselect gnode" struct_name="m" transform="translate(194.77,-56.81)" r="6.5"><circle class="node" r="6" node_type="nucleotide" style="fill: lightblue;"></circle><text text-anchor="middle" font-size="8" font-weight="bold" y="2.5" class="node-label">A</text></g><g class="noselect gnode" struct_name="m" transform="translate(180.20,-52.02)" r="6.5"><circle class="node" r="6" node_type="nucleotide" style="fill: lightgreen;"></circle><text text-anchor="middle" font-size="8" font-weight="bold" y="2.5" class="node-label">U</text></g><g class="noselect gnode" struct_name="m" transform="translate(172.77,-38.03)" r="6.5"><circle class="node" r="6" node_type="nucleotide" style="fill: lightgreen;"></circle><text text-anchor="middle" font-size="8" font-weight="bold" y="2.5" class="node-label">G</text></g><g class="noselect gnode" struct_name="m" transform="translate(165.59,-23.78)" r="6.5"><circle class="node" r="6" node_type="nucleotide" style="fill: lightgreen;"></circle><text text-anchor="middle" font-size="8" font-weight="bold" y="2.5" class="node-label">G</text></g><g class="noselect gnode" struct_name="m" transform="translate(158.87,-9.43)" r="6.5"><circle class="node" r="6" node_type="nucleotide" style="fill: lightgreen;"></circle><text text-anchor="middle" font-size="8" font-weight="bold" y="2.5" class="node-label">C</text></g><g class="noselect gnode" struct_name="m" transform="translate(153.07,5.11)" r="6.5"><circle class="node" r="6" node_type="nucleotide" style="fill: lightgreen;"></circle><text text-anchor="middle" font-size="8" font-weight="bold" y="2.5" class="node-label">C</text></g><g class="noselect gnode" struct_name="m" transform="translate(155.89,20.05)" r="6.5"><circle class="node" r="6" node_type="nucleotide" style="fill: rgb(219, 219, 141);"></circle><text text-anchor="middle" font-size="8" font-weight="bold" y="2.5" class="node-label">G</text></g><g class="noselect gnode" struct_name="m" transform="translate(144.31,29.84)" r="6.5"><circle class="node" r="6" node_type="nucleotide" style="fill: lightgreen;"></circle><text text-anchor="middle" font-size="8" font-weight="bold" y="2.5" class="node-label">C</text></g><g class="noselect gnode" struct_name="m" transform="translate(139.84,44.59)" r="6.5"><circle class="node" r="6" node_type="nucleotide" style="fill: lightgreen;"></circle><text text-anchor="middle" font-size="8" font-weight="bold" y="2.5" class="node-label">C</text></g><g class="noselect gnode" struct_name="m" transform="translate(136.87,59.48)" r="6.5"><circle class="node" r="6" node_type="nucleotide" style="fill: lightgreen;"></circle><text text-anchor="middle" font-size="8" font-weight="bold" y="2.5" class="node-label">U</text></g><g class="noselect gnode" struct_name="m" transform="translate(140.12,74.52)" r="6.5"><circle class="node" r="6" node_type="nucleotide" style="fill: rgb(219, 219, 141);"></circle><text text-anchor="middle" font-size="8" font-weight="bold" y="2.5" class="node-label">C</text></g><g class="noselect gnode" struct_name="m" transform="translate(126.69,82.03)" r="6.5"><circle class="node" r="6" node_type="nucleotide" style="fill: lightgreen;"></circle><text text-anchor="middle" font-size="8" font-weight="bold" y="2.5" class="node-label">G</text></g><g class="noselect gnode" struct_name="m" transform="translate(117.55,94.14)" r="6.5"><circle class="node" r="6" node_type="nucleotide" style="fill: lightgreen;"></circle><text text-anchor="middle" font-size="8" font-weight="bold" y="2.5" class="node-label">C</text></g><g class="noselect gnode" struct_name="m" transform="translate(116.76,109.36)" r="6.5"><circle class="node" r="6" node_type="nucleotide" style="fill: rgb(219, 219, 141);"></circle><text text-anchor="middle" font-size="8" font-weight="bold" y="2.5" class="node-label">A</text></g><g class="noselect gnode" struct_name="m" transform="translate(103.10,116.16)" r="6.5"><circle class="node" r="6" node_type="nucleotide" style="fill: lightgreen;"></circle><text text-anchor="middle" font-size="8" font-weight="bold" y="2.5" class="node-label">G</text></g><g class="noselect gnode" struct_name="m" transform="translate(94.83,129.52)" r="6.5"><circle class="node" r="6" node_type="nucleotide" style="fill: lightgreen;"></circle><text text-anchor="middle" font-size="8" font-weight="bold" y="2.5" class="node-label">C</text></g><g class="noselect gnode" struct_name="m" transform="translate(87.30,143.21)" r="6.5"><circle class="node" r="6" node_type="nucleotide" style="fill: lightgreen;"></circle><text text-anchor="middle" font-size="8" font-weight="bold" y="2.5" class="node-label">A</text></g><g class="noselect gnode" struct_name="m" transform="translate(91.86,157.78)" r="6.5"><circle class="node" r="6" node_type="nucleotide" style="fill: rgb(219, 219, 141);"></circle><text text-anchor="middle" font-size="8" font-weight="bold" y="2.5" class="node-label">U</text></g><g class="noselect gnode" struct_name="m" transform="translate(84.95,170.97)" r="6.5"><circle class="node" r="6" node_type="nucleotide" style="fill: rgb(219, 219, 141);"></circle><text text-anchor="middle" font-size="8" font-weight="bold" y="2.5" class="node-label">U</text></g><g class="noselect gnode" struct_name="m" transform="translate(70.35,175.58)" r="6.5"><circle class="node" r="6" node_type="nucleotide" style="fill: lightgreen;"></circle><text text-anchor="middle" font-size="8" font-weight="bold" y="2.5" class="node-label">U</text></g><g class="noselect gnode" struct_name="m" transform="translate(63.07,189.70)" r="6.5"><circle class="node" r="6" node_type="nucleotide" style="fill: lightgreen;"></circle><text text-anchor="middle" font-size="8" font-weight="bold" y="2.5" class="node-label">U</text></g><g class="noselect gnode" struct_name="m" transform="translate(55.97,204.08)" r="6.5"><circle class="node" r="6" node_type="nucleotide" style="fill: lightgreen;"></circle><text text-anchor="middle" font-size="8" font-weight="bold" y="2.5" class="node-label">U</text></g><g class="noselect gnode" struct_name="m" transform="translate(49.06,218.50)" r="6.5"><circle class="node" r="6" node_type="nucleotide" style="fill: lightgreen;"></circle><text text-anchor="middle" font-size="8" font-weight="bold" y="2.5" class="node-label">A</text></g><g class="noselect gnode" struct_name="m" transform="translate(42.95,232.85)" r="6.5"><circle class="node" r="6" node_type="nucleotide" style="fill: lightgreen;"></circle><text text-anchor="middle" font-size="8" font-weight="bold" y="2.5" class="node-label">U</text></g><g class="noselect gnode" struct_name="m" transform="translate(16.70,218.02)" r="6.5"><circle class="node label" r="6" node_type="label"></circle><text text-anchor="middle" font-size="8" font-weight="bold" y="2.5" class="node-label">10</text></g><g class="noselect gnode" struct_name="m" transform="translate(78.11,84.91)" r="6.5"><circle class="node label" r="6" node_type="label"></circle><text text-anchor="middle" font-size="8" font-weight="bold" y="2.5" class="node-label">20</text></g><g class="noselect gnode" struct_name="m" transform="translate(146.90,-53.39)" r="6.5"><circle class="node label" r="6" node_type="label"></circle><text text-anchor="middle" font-size="8" font-weight="bold" y="2.5" class="node-label">30</text></g><g class="noselect gnode" struct_name="m" transform="translate(179.77,-17.29)" r="6.5"><circle class="node label" r="6" node_type="label"></circle><text text-anchor="middle" font-size="8" font-weight="bold" y="2.5" class="node-label">40</text></g><g class="noselect gnode" struct_name="m" transform="translate(130.12,117.44)" r="6.5"><circle class="node label" r="6" node_type="label"></circle><text text-anchor="middle" font-size="8" font-weight="bold" y="2.5" class="node-label">50</text></g><g class="noselect gnode" struct_name="m" transform="translate(46.38,247.77)" r="6.5"><circle class="node label" r="6" node_type="label"></circle><text text-anchor="middle" font-size="8" font-weight="bold" y="2.5" class="node-label">60</text></g><g class="noselect gnode" transform="translate(116.02,83.36)" r="6.5"><circle class="node" r="0" node_type="middle"></circle><text text-anchor="middle" font-size="8" font-weight="bold" y="2.5" class="node-label"></text></g><g class="noselect gnode" transform="translate(130.79,50.58)" r="6.5"><circle class="node" r="0" node_type="middle"></circle><text text-anchor="middle" font-size="8" font-weight="bold" y="2.5" class="node-label"></text></g><g class="noselect gnode" transform="translate(134.78,35.08)" r="6.5"><circle class="node" r="0" node_type="middle"></circle><text text-anchor="middle" font-size="8" font-weight="bold" y="2.5" class="node-label"></text></g><g class="noselect gnode" transform="translate(148.99,-4.97)" r="6.5"><circle class="node" r="0" node_type="middle"></circle><text text-anchor="middle" font-size="8" font-weight="bold" y="2.5" class="node-label"></text></g><g class="noselect gnode" transform="translate(155.49,-19.75)" r="6.5"><circle class="node" r="0" node_type="middle"></circle><text text-anchor="middle" font-size="8" font-weight="bold" y="2.5" class="node-label"></text></g><g class="noselect gnode" transform="translate(162.60,-34.20)" r="6.5"><circle class="node" r="0" node_type="middle"></circle><text text-anchor="middle" font-size="8" font-weight="bold" y="2.5" class="node-label"></text></g><g class="noselect gnode" transform="translate(169.95,-48.46)" r="6.5"><circle class="node" r="0" node_type="middle"></circle><text text-anchor="middle" font-size="8" font-weight="bold" y="2.5" class="node-label"></text></g><g class="noselect gnode" transform="translate(39.07,222.84)" r="6.5"><circle class="node" r="0" node_type="middle"></circle><text text-anchor="middle" font-size="8" font-weight="bold" y="2.5" class="node-label"></text></g><g class="noselect gnode" transform="translate(45.91,208.15)" r="6.5"><circle class="node" r="0" node_type="middle"></circle><text text-anchor="middle" font-size="8" font-weight="bold" y="2.5" class="node-label"></text></g><g class="noselect gnode" transform="translate(52.96,193.65)" r="6.5"><circle class="node" r="0" node_type="middle"></circle><text text-anchor="middle" font-size="8" font-weight="bold" y="2.5" class="node-label"></text></g><g class="noselect gnode" transform="translate(60.15,179.26)" r="6.5"><circle class="node" r="0" node_type="middle"></circle><text text-anchor="middle" font-size="8" font-weight="bold" y="2.5" class="node-label"></text></g><g class="noselect gnode" transform="translate(84.49,132.76)" r="6.5"><circle class="node" r="0" node_type="middle"></circle><text text-anchor="middle" font-size="8" font-weight="bold" y="2.5" class="node-label"></text></g><g class="noselect gnode" transform="translate(92.58,118.94)" r="6.5"><circle class="node" r="0" node_type="middle"></circle><text text-anchor="middle" font-size="8" font-weight="bold" y="2.5" class="node-label"></text></g><g class="noselect gnode" transform="translate(53.04,244.64)" r="6.5"><circle class="node" r="0" node_type="middle"></circle><text text-anchor="middle" font-size="8" font-weight="bold" y="2.5" class="node-label"></text></g><g class="noselect gnode" transform="translate(56.59,258.99)" r="6.5"><circle class="node" r="0" node_type="middle"></circle><text text-anchor="middle" font-size="8" font-weight="bold" y="2.5" class="node-label"></text></g><g class="noselect gnode" transform="translate(24.87,258.89)" r="6.5"><circle class="node" r="0" node_type="middle"></circle><text text-anchor="middle" font-size="8" font-weight="bold" y="2.5" class="node-label"></text></g><g class="noselect gnode" transform="translate(181.99,-71.66)" r="6.5"><circle class="node" r="0" node_type="middle"></circle><text text-anchor="middle" font-size="8" font-weight="bold" y="2.5" class="node-label"></text></g><g class="noselect gnode" transform="translate(127.95,69.03)" r="6.5"><circle class="node" r="0" node_type="middle"></circle><text text-anchor="middle" font-size="8" font-weight="bold" y="2.5" class="node-label"></text></g><g class="noselect gnode" transform="translate(141.60,14.97)" r="6.5"><circle class="node" r="0" node_type="middle"></circle><text text-anchor="middle" font-size="8" font-weight="bold" y="2.5" class="node-label"></text></g><g class="noselect gnode" transform="translate(72.23,155.94)" r="6.5"><circle class="node" r="0" node_type="middle"></circle><text text-anchor="middle" font-size="8" font-weight="bold" y="2.5" class="node-label"></text></g><g class="noselect gnode" transform="translate(104.11,101.03)" r="6.5"><circle class="node" r="0" node_type="middle"></circle><text text-anchor="middle" font-size="8" font-weight="bold" y="2.5" class="node-label"></text></g></g><line class="drag_line" x1="0" y1="0" x2="0" y2="0"></line></g></g></svg>