<svg xmlns="http://www.w3.org/2000/svg" viewBox="0 0 760 640" width="760" height="640"><style>svg {
  display: block;
  min-width: 100%;
  width: 100%;
  min-height: 100%;
}

circle.node {
  stroke: #ccc;
  stroke-width: 1px;
  opacity: 1;
  fill: white;
}

circle.node.label {
    stroke: transparent;
    stroke-width: 0;
    fill: white;
}

circle.outline_node {
    stroke-width: 1px;
    fill: red;
}

circle.protein {
    fill: gray;
    fill-opacity: 0.5;
    stroke-width: 4;
}

circle.hidden_outline {
    stroke-width: 0px;
}


line.link {
  stroke: #999;
  stroke-opacity: 0.8;
  stroke-width: 2;
}

line.basepair {
  stroke: red;
}

line.intermolecule {
  stroke: blue;
}

line.chain_chain {
  stroke-dasharray: 3,3;
}

line.fake {
  stroke: green;
}

.transparent {
    fill: transparent;
    stroke-width: 0;
    stroke-opacity: 0;
    opacity: 0;
    visibility: hidden;
}

.drag_line {
  stroke: #999;
  stroke-width: 2;
  pointer-events: none;
}

.drag_line_hidden {
  stroke: #999;
  stroke-width: 0;
  pointer-events: none;
}

.d3-tip {
    line-height: 1;
    font-weight: bold;
    padding: 6px;
    background: rgba(0, 0, 0, 0.6);
    color: #fff;
    border-radius: 4px;
    pointer-events: none;
          }

text.node-label {
    font-weight: bold;
    font-family: Tahoma, Geneva, sans-serif;
    color: rgb(100,100,100);
    pointer-events: none;
}

text {
    pointer-events: none;
}

g.gnode {

}

circle.outline_node.selected {
    visibility: visible;
}

circle.outline_node {
    visibility: hidden;
}

.brush .extent {
  fill-opacity: .1;
  stroke: #fff;
  shape-rendering: crispEdges;
}

.noselect {
    -webkit-touch-callout: none;
    -webkit-user-select: none;
    -khtml-user-select: none;
    -moz-user-select: none;
    -ms-user-select: none;
    user-select: none;
}

svg {
  display: block;
  min-width: 100%;
  width: 100%;
  min-height: 100%;
}

circle.node {
  stroke: #ccc;
  stroke-width: 1px;
  opacity: 1;
  fill: white;
}

circle.node.label {
    stroke: transparent;
    stroke-width: 0;
    fill: white;
}

circle.outline_node {
    stroke-width: 1px;
    fill: red;
}

circle.protein {
    fill: gray;
    fill-opacity: 0.5;
    stroke-width: 4;
}

circle.hidden_outline {
    stroke-width: 0px;
}


line.link {
  stroke: #999;
  stroke-opacity: 0.8;
  stroke-width: 2;
}

line.basepair {
  stroke: red;
}

line.intermolecule {
  stroke: blue;
}

line.chain_chain {
  stroke-dasharray: 3,3;
}

line.fake {
  stroke: green;
}

.transparent {
    fill: transparent;
    stroke-width: 0;
    stroke-opacity: 0;
    opacity: 0;
    visibility: hidden;
}

.drag_line {
  stroke: #999;
  stroke-width: 2;
  pointer-events: none;
}

.drag_line_hidden {
  stroke: #999;
  stroke-width: 0;
  pointer-events: none;
}

.d3-tip {
    line-height: 1;
    font-weight: bold;
    padding: 6px;
    background: rgba(0, 0, 0, 0.6);
    color: #fff;
    border-radius: 4px;
    pointer-events: none;
          }

text.node-label {
    font-weight: bold;
    font-family: Tahoma, Geneva, sans-serif;
    color: rgb(100,100,100);
    pointer-events: none;
}

text {
    pointer-events: none;
}

g.gnode {

}

circle.outline_node.selected {
    visibility: visible;
}

circle.outline_node {
    visibility: hidden;
}

.brush .extent {
  fill-opacity: .1;
  stroke: #fff;
  shape-rendering: crispEdges;
}

.noselect {
    -webkit-touch-callout: none;
    -webkit-user-select: none;
    -khtml-user-select: none;
    -moz-user-select: none;
    -ms-user-select: none;
    user-select: none;
}
/*# sourceURL=/Users/yumanakamura/ipy_sandbox/sandbox/claude_sandbox/mrna-transformer-worktrees/feat-issue57-switch-derna-knotty/scripts/eval/prerender/forna_vendor/fornac.css*/</style><style></style><g><g class="brush" style="pointer-events: all; -webkit-tap-highlight-color: rgba(0, 0, 0, 0);"><rect class="background" x="0" width="760" y="0" height="640" style="visibility: hidden; cursor: auto;"></rect><rect class="extent" x="0" width="0" y="0" height="0" style="cursor: move;"></rect><g class="resize n" transform="translate(0,0)" style="cursor: ns-resize; display: none;"><rect y="-3" width="0" height="6" style="visibility: hidden;"></rect></g><g class="resize e" transform="translate(0,0)" style="cursor: ew-resize; display: none;"><rect x="-3" width="6" height="0" style="visibility: hidden;"></rect></g><g class="resize s" transform="translate(0,0)" style="cursor: ns-resize; display: none;"><rect y="-3" width="0" height="6" style="visibility: hidden;"></rect></g><g class="resize w" transform="translate(0,0)" style="cursor: ew-resize; display: none;"><rect x="-3" width="6" height="0" style="visibility: hidden;"></rect></g><g class="resize nw" transform="translate(0,0)" style="cursor: nwse-resize; display: none;"><rect x="-3" y="-3" width="6" height="6" style="visibility: hidden;"></rect></g><g class="resize ne" transform="translate(0,0)" style="cursor: nesw-resize; display: none;"><rect x="-3" y="-3" width="6" height="6" style="visibility: hidden;"></rect></g><g class="resize se" transform="translate(0,0)" style="cursor: nwse-resize; display: none;"><rect x="-3" y="-3" width="6" height="6" style="visibility: hidden;"></rect></g><g class="resize sw" transform="translate(0,0)" style="cursor: nesw-resize; display: none;"><rect x="-3" y="-3" width="6" height="6" style="visibility: hidden;"></rect></g></g><g transform="translate(137.56,177.49) scale(1.83)"><g><line class="link backbone" x1="112.86" y1="209.61" x2="104.96" y2="196.60"></line><line class="link backbone" x1="104.96" y1="196.60" x2="105.40" y2="181.46"></line><line class="link backbone" x1="105.40" y1="181.46" x2="112.29" y2="167.99"></line><line class="link backbone" x1="112.29" y1="167.99" x2="124.62" y2="158.87"></line><line class="link basepair" x1="139.96" y1="156.69" x2="154.62" y2="157.52"></line><line class="link backbone" x1="124.62" y1="158.87" x2="139.96" y2="156.69"></line><line class="link basepair" x1="138.37" y1="142.38" x2="152.12" y2="139.06"></line><line class="link backbone" x1="139.96" y1="156.69" x2="138.37" y2="142.38"></line><line class="link basepair" x1="133.23" y1="127.87" x2="146.24" y2="122.16"></line><line class="link backbone" x1="138.37" y1="142.38" x2="133.23" y2="127.87"></line><line class="link basepair" x1="125.88" y1="114.26" x2="138.48" y2="106.73"></line><line class="link backbone" x1="133.23" y1="127.87" x2="125.88" y2="114.26"></line><line class="link backbone" x1="125.88" y1="114.26" x2="110.92" y2="111.51"></line><line class="link backbone" x1="110.92" y1="111.51" x2="102.59" y2="99.07"></line><line class="link basepair" x1="105.66" y1="84.33" x2="117.45" y2="75.51"></line><line class="link backbone" x1="102.59" y1="99.07" x2="105.66" y2="84.33"></line><line class="link basepair" x1="95.92" y1="72.22" x2="107.17" y2="62.73"></line><line class="link backbone" x1="105.66" y1="84.33" x2="95.92" y2="72.22"></line><line class="link backbone" x1="95.92" y1="72.22" x2="81.47" y2="67.31"></line><line class="link basepair" x1="78.61" y1="52.27" x2="89.76" y2="42.60"></line><line class="link backbone" x1="81.47" y1="67.31" x2="78.61" y2="52.27"></line><line class="link basepair" x1="68.17" y1="40.10" x2="79.24" y2="30.64"></line><line class="link backbone" x1="78.61" y1="52.27" x2="68.17" y2="40.10"></line><line class="link basepair" x1="57.73" y1="27.59" x2="69.03" y2="18.46"></line><line class="link backbone" x1="68.17" y1="40.10" x2="57.73" y2="27.59"></line><line class="link basepair" x1="47.63" y1="14.57" x2="59.18" y2="5.90"></line><line class="link backbone" x1="57.73" y1="27.59" x2="47.63" y2="14.57"></line><line class="link basepair" x1="37.95" y1="1.20" x2="49.79" y2="-7.10"></line><line class="link backbone" x1="47.63" y1="14.57" x2="37.95" y2="1.20"></line><line class="link basepair" x1="28.71" y1="-12.30" x2="40.76" y2="-20.40"></line><line class="link backbone" x1="37.95" y1="1.20" x2="28.71" y2="-12.30"></line><line class="link basepair" x1="19.77" y1="-25.75" x2="31.91" y2="-33.78"></line><line class="link backbone" x1="28.71" y1="-12.30" x2="19.77" y2="-25.75"></line><line class="link basepair" x1="10.90" y1="-38.88" x2="23.28" y2="-47.10"></line><line class="link backbone" x1="19.77" y1="-25.75" x2="10.90" y2="-38.88"></line><line class="link backbone" x1="10.90" y1="-38.88" x2="-2.87" y2="-45.77"></line><line class="link backbone" x1="-2.87" y1="-45.77" x2="-3.72" y2="-60.70"></line><line class="link backbone" x1="-3.72" y1="-60.70" x2="8.73" y2="-69.01"></line><line class="link backbone" x1="8.73" y1="-69.01" x2="22.20" y2="-62.49"></line><line class="link basepair" x1="23.28" y1="-47.10" x2="10.90" y2="-38.88"></line><line class="link backbone" x1="22.20" y1="-62.49" x2="23.28" y2="-47.10"></line><line class="link basepair" x1="31.91" y1="-33.78" x2="19.77" y2="-25.75"></line><line class="link backbone" x1="23.28" y1="-47.10" x2="31.91" y2="-33.78"></line><line class="link basepair" x1="40.76" y1="-20.40" x2="28.71" y2="-12.30"></line><line class="link backbone" x1="31.91" y1="-33.78" x2="40.76" y2="-20.40"></line><line class="link basepair" x1="49.79" y1="-7.10" x2="37.95" y2="1.20"></line><line class="link backbone" x1="40.76" y1="-20.40" x2="49.79" y2="-7.10"></line><line class="link basepair" x1="59.18" y1="5.90" x2="47.63" y2="14.57"></line><line class="link backbone" x1="49.79" y1="-7.10" x2="59.18" y2="5.90"></line><line class="link basepair" x1="69.03" y1="18.46" x2="57.73" y2="27.59"></line><line class="link backbone" x1="59.18" y1="5.90" x2="69.03" y2="18.46"></line><line class="link basepair" x1="79.24" y1="30.64" x2="68.17" y2="40.10"></line><line class="link backbone" x1="69.03" y1="18.46" x2="79.24" y2="30.64"></line><line class="link basepair" x1="89.76" y1="42.60" x2="78.61" y2="52.27"></line><line class="link backbone" x1="79.24" y1="30.64" x2="89.76" y2="42.60"></line><line class="link backbone" x1="89.76" y1="42.60" x2="104.31" y2="47.61"></line><line class="link basepair" x1="107.17" y1="62.73" x2="95.92" y2="72.22"></line><line class="link backbone" x1="104.31" y1="47.61" x2="107.17" y2="62.73"></line><line class="link basepair" x1="117.45" y1="75.51" x2="105.66" y2="84.33"></line><line class="link backbone" x1="107.17" y1="62.73" x2="117.45" y2="75.51"></line><line class="link backbone" x1="117.45" y1="75.51" x2="132.79" y2="78.89"></line><line class="link backbone" x1="132.79" y1="78.89" x2="141.07" y2="91.14"></line><line class="link basepair" x1="138.48" y1="106.73" x2="125.88" y2="114.26"></line><line class="link backbone" x1="141.07" y1="91.14" x2="138.48" y2="106.73"></line><line class="link basepair" x1="146.24" y1="122.16" x2="133.23" y2="127.87"></line><line class="link backbone" x1="138.48" y1="106.73" x2="146.24" y2="122.16"></line><line class="link basepair" x1="152.12" y1="139.06" x2="138.37" y2="142.38"></line><line class="link backbone" x1="146.24" y1="122.16" x2="152.12" y2="139.06"></line><line class="link basepair" x1="154.62" y1="157.52" x2="139.96" y2="156.69"></line><line class="link backbone" x1="152.12" y1="139.06" x2="154.62" y2="157.52"></line><line class="link basepair" x1="167.70" y1="169.41" x2="170.92" y2="183.75"></line><line class="link backbone" x1="154.62" y1="157.52" x2="167.70" y2="169.41"></line><line class="link basepair" x1="186.10" y1="168.79" x2="185.25" y2="183.02"></line><line class="link backbone" x1="167.70" y1="169.41" x2="186.10" y2="168.79"></line><line class="link basepair" x1="203.32" y1="171.19" x2="200.44" y2="185.36"></line><line class="link backbone" x1="186.10" y1="168.79" x2="203.32" y2="171.19"></line><line class="link basepair" x1="219.60" y1="175.30" x2="215.39" y2="189.26"></line><line class="link backbone" x1="203.32" y1="171.19" x2="219.60" y2="175.30"></line><line class="link basepair" x1="234.94" y1="180.20" x2="230.02" y2="194.25"></line><line class="link backbone" x1="219.60" y1="175.30" x2="234.94" y2="180.20"></line><line class="link backbone" x1="234.94" y1="180.20" x2="250.13" y2="177.62"></line><line class="link backbone" x1="250.13" y1="177.62" x2="259.72" y2="189.15"></line><line class="link backbone" x1="259.72" y1="189.15" x2="254.54" y2="203.25"></line><line class="link backbone" x1="254.54" y1="203.25" x2="239.85" y2="205.95"></line><line class="link basepair" x1="230.02" y1="194.25" x2="234.94" y2="180.20"></line><line class="link backbone" x1="239.85" y1="205.95" x2="230.02" y2="194.25"></line><line class="link basepair" x1="215.39" y1="189.26" x2="219.60" y2="175.30"></line><line class="link backbone" x1="230.02" y1="194.25" x2="215.39" y2="189.26"></line><line class="link basepair" x1="200.44" y1="185.36" x2="203.32" y2="171.19"></line><line class="link backbone" x1="215.39" y1="189.26" x2="200.44" y2="185.36"></line><line class="link basepair" x1="185.25" y1="183.02" x2="186.10" y2="168.79"></line><line class="link backbone" x1="200.44" y1="185.36" x2="185.25" y2="183.02"></line><line class="link basepair" x1="170.92" y1="183.75" x2="167.70" y2="169.41"></line><line class="link backbone" x1="185.25" y1="183.02" x2="170.92" y2="183.75"></line><line class="link backbone" x1="170.92" y1="183.75" x2="170.47" y2="199.18"></line><line class="link backbone" x1="170.47" y1="199.18" x2="163.01" y2="212.44"></line><line class="link backbone" x1="163.01" y1="212.44" x2="150.54" y2="221.04"></line><line class="link label_link" x1="110.92" y1="111.51" x2="97.97" y2="120.07"></line><line class="link label_link" x1="28.71" y1="-12.30" x2="14.31" y2="-6.26"></line><line class="link label_link" x1="49.79" y1="-7.10" x2="62.20" y2="-16.55"></line><line class="link label_link" x1="138.48" y1="106.73" x2="151.20" y2="97.61"></line><line class="link label_link" x1="259.72" y1="189.15" x2="274.36" y2="194.09"></line><line class="link label_link" x1="150.54" y1="221.04" x2="148.26" y2="236.38"></line><line class="link fake transparent" x1="78.61" y1="52.27" x2="78.91" y2="41.44"></line><line class="link fake transparent" x1="78.61" y1="52.27" x2="79.24" y2="30.64"></line><line class="link fake transparent" x1="68.17" y1="40.10" x2="78.91" y2="41.44"></line><line class="link fake transparent" x1="79.24" y1="30.64" x2="78.91" y2="41.44"></line><line class="link fake transparent" x1="89.76" y1="42.60" x2="78.91" y2="41.44"></line><line class="link fake transparent" x1="68.17" y1="40.10" x2="68.43" y2="29.26"></line><line class="link fake transparent" x1="57.73" y1="27.59" x2="68.43" y2="29.26"></line><line class="link fake transparent" x1="69.03" y1="18.46" x2="68.43" y2="29.26"></line><line class="link fake transparent" x1="79.24" y1="30.64" x2="68.43" y2="29.26"></line><line class="link fake transparent" x1="57.73" y1="27.59" x2="58.27" y2="16.75"></line><line class="link fake transparent" x1="47.63" y1="14.57" x2="58.27" y2="16.75"></line><line class="link fake transparent" x1="59.18" y1="5.90" x2="58.27" y2="16.75"></line><line class="link fake transparent" x1="69.03" y1="18.46" x2="58.27" y2="16.75"></line><line class="link fake transparent" x1="47.63" y1="14.57" x2="48.52" y2="3.74"></line><line class="link fake transparent" x1="37.95" y1="1.20" x2="48.52" y2="3.74"></line><line class="link fake transparent" x1="49.79" y1="-7.10" x2="48.52" y2="3.74"></line><line class="link fake transparent" x1="59.18" y1="5.90" x2="48.52" y2="3.74"></line><line class="link fake transparent" x1="37.95" y1="1.20" x2="39.22" y2="-9.61"></line><line class="link fake transparent" x1="28.71" y1="-12.30" x2="39.22" y2="-9.61"></line><line class="link fake transparent" x1="40.76" y1="-20.40" x2="39.22" y2="-9.61"></line><line class="link fake transparent" x1="49.79" y1="-7.10" x2="39.22" y2="-9.61"></line><line class="link fake transparent" x1="28.71" y1="-12.30" x2="30.23" y2="-23.09"></line><line class="link fake transparent" x1="19.77" y1="-25.75" x2="30.23" y2="-23.09"></line><line class="link fake transparent" x1="31.91" y1="-33.78" x2="30.23" y2="-23.09"></line><line class="link fake transparent" x1="40.76" y1="-20.40" x2="30.23" y2="-23.09"></line><line class="link fake transparent" x1="19.77" y1="-25.75" x2="21.44" y2="-36.44"></line><line class="link fake transparent" x1="10.90" y1="-38.88" x2="21.44" y2="-36.44"></line><line class="link fake transparent" x1="23.28" y1="-47.10" x2="21.44" y2="-36.44"></line><line class="link fake transparent" x1="31.91" y1="-33.78" x2="21.44" y2="-36.44"></line><line class="link fake transparent" x1="139.96" y1="156.69" x2="147.22" y2="148.76"></line><line class="link fake transparent" x1="138.37" y1="142.38" x2="147.22" y2="148.76"></line><line class="link fake transparent" x1="152.12" y1="139.06" x2="147.22" y2="148.76"></line><line class="link fake transparent" x1="154.62" y1="157.52" x2="147.22" y2="148.76"></line><line class="link fake transparent" x1="138.37" y1="142.38" x2="143.12" y2="132.63"></line><line class="link fake transparent" x1="133.23" y1="127.87" x2="143.12" y2="132.63"></line><line class="link fake transparent" x1="146.24" y1="122.16" x2="143.12" y2="132.63"></line><line class="link fake transparent" x1="152.12" y1="139.06" x2="143.12" y2="132.63"></line><line class="link fake transparent" x1="133.23" y1="127.87" x2="136.36" y2="117.49"></line><line class="link fake transparent" x1="125.88" y1="114.26" x2="136.36" y2="117.49"></line><line class="link fake transparent" x1="138.48" y1="106.73" x2="136.36" y2="117.49"></line><line class="link fake transparent" x1="146.24" y1="122.16" x2="136.36" y2="117.49"></line><line class="link fake transparent" x1="167.70" y1="169.41" x2="177.50" y2="175.37"></line><line class="link fake transparent" x1="186.10" y1="168.79" x2="177.50" y2="175.37"></line><line class="link fake transparent" x1="185.25" y1="183.02" x2="177.50" y2="175.37"></line><line class="link fake transparent" x1="170.92" y1="183.75" x2="177.50" y2="175.37"></line><line class="link fake transparent" x1="186.10" y1="168.79" x2="193.92" y2="176.58"></line><line class="link fake transparent" x1="203.32" y1="171.19" x2="193.92" y2="176.58"></line><line class="link fake transparent" x1="200.44" y1="185.36" x2="193.92" y2="176.58"></line><line class="link fake transparent" x1="185.25" y1="183.02" x2="193.92" y2="176.58"></line><line class="link fake transparent" x1="203.32" y1="171.19" x2="209.85" y2="179.95"></line><line class="link fake transparent" x1="219.60" y1="175.30" x2="209.85" y2="179.95"></line><line class="link fake transparent" x1="215.39" y1="189.26" x2="209.85" y2="179.95"></line><line class="link fake transparent" x1="200.44" y1="185.36" x2="209.85" y2="179.95"></line><line class="link fake transparent" x1="219.60" y1="175.30" x2="225.11" y2="184.57"></line><line class="link fake transparent" x1="234.94" y1="180.20" x2="225.11" y2="184.57"></line><line class="link fake transparent" x1="230.02" y1="194.25" x2="225.11" y2="184.57"></line><line class="link fake transparent" x1="215.39" y1="189.26" x2="225.11" y2="184.57"></line><line class="link fake transparent" x1="105.66" y1="84.33" x2="106.73" y2="73.58"></line><line class="link fake transparent" x1="95.92" y1="72.22" x2="106.73" y2="73.58"></line><line class="link fake transparent" x1="107.17" y1="62.73" x2="106.73" y2="73.58"></line><line class="link fake transparent" x1="117.45" y1="75.51" x2="106.73" y2="73.58"></line><line class="link fake transparent" x1="112.86" y1="209.61" x2="138.74" y2="188.90"></line><line class="link fake transparent" x1="112.86" y1="209.61" x2="167.70" y2="169.41"></line><line class="link fake transparent" x1="104.96" y1="196.60" x2="138.74" y2="188.90"></line><line class="link fake transparent" x1="104.96" y1="196.60" x2="170.92" y2="183.75"></line><line class="link fake transparent" x1="105.40" y1="181.46" x2="138.74" y2="188.90"></line><line class="link fake transparent" x1="105.40" y1="181.46" x2="170.47" y2="199.18"></line><line class="link fake transparent" x1="112.29" y1="167.99" x2="138.74" y2="188.90"></line><line class="link fake transparent" x1="112.29" y1="167.99" x2="163.01" y2="212.44"></line><line class="link fake transparent" x1="124.62" y1="158.87" x2="138.74" y2="188.90"></line><line class="link fake transparent" x1="124.62" y1="158.87" x2="150.54" y2="221.04"></line><line class="link fake transparent" x1="139.96" y1="156.69" x2="138.74" y2="188.90"></line><line class="link fake transparent" x1="139.96" y1="156.69" x2="136.10" y2="224.38"></line><line class="link fake transparent" x1="154.62" y1="157.52" x2="138.74" y2="188.90"></line><line class="link fake transparent" x1="154.62" y1="157.52" x2="121.59" y2="216.87"></line><line class="link fake transparent" x1="167.70" y1="169.41" x2="138.74" y2="188.90"></line><line class="link fake transparent" x1="167.70" y1="169.41" x2="112.86" y2="209.61"></line><line class="link fake transparent" x1="170.92" y1="183.75" x2="138.74" y2="188.90"></line><line class="link fake transparent" x1="170.92" y1="183.75" x2="104.96" y2="196.60"></line><line class="link fake transparent" x1="170.47" y1="199.18" x2="138.74" y2="188.90"></line><line class="link fake transparent" x1="170.47" y1="199.18" x2="105.40" y2="181.46"></line><line class="link fake transparent" x1="163.01" y1="212.44" x2="138.74" y2="188.90"></line><line class="link fake transparent" x1="163.01" y1="212.44" x2="112.29" y2="167.99"></line><line class="link fake transparent" x1="150.54" y1="221.04" x2="138.74" y2="188.90"></line><line class="link fake transparent" x1="150.54" y1="221.04" x2="124.62" y2="158.87"></line><line class="link fake transparent" x1="10.90" y1="-38.88" x2="9.79" y2="-53.96"></line><line class="link fake transparent" x1="10.90" y1="-38.88" x2="8.73" y2="-69.01"></line><line class="link fake transparent" x1="-2.87" y1="-45.77" x2="9.79" y2="-53.96"></line><line class="link fake transparent" x1="-2.87" y1="-45.77" x2="22.20" y2="-62.49"></line><line class="link fake transparent" x1="-3.72" y1="-60.70" x2="9.79" y2="-53.96"></line><line class="link fake transparent" x1="-3.72" y1="-60.70" x2="23.28" y2="-47.10"></line><line class="link fake transparent" x1="8.73" y1="-69.01" x2="9.79" y2="-53.96"></line><line class="link fake transparent" x1="8.73" y1="-69.01" x2="10.90" y2="-38.88"></line><line class="link fake transparent" x1="22.20" y1="-62.49" x2="9.79" y2="-53.96"></line><line class="link fake transparent" x1="22.20" y1="-62.49" x2="-2.87" y2="-45.77"></line><line class="link fake transparent" x1="23.28" y1="-47.10" x2="9.79" y2="-53.96"></line><line class="link fake transparent" x1="23.28" y1="-47.10" x2="-3.72" y2="-60.70"></line><line class="link fake transparent" x1="234.94" y1="180.20" x2="244.83" y2="191.69"></line><line class="link fake transparent" x1="234.94" y1="180.20" x2="254.54" y2="203.25"></line><line class="link fake transparent" x1="250.13" y1="177.62" x2="244.83" y2="191.69"></line><line class="link fake transparent" x1="250.13" y1="177.62" x2="239.85" y2="205.95"></line><line class="link fake transparent" x1="259.72" y1="189.15" x2="244.83" y2="191.69"></line><line class="link fake transparent" x1="259.72" y1="189.15" x2="230.02" y2="194.25"></line><line class="link fake transparent" x1="254.54" y1="203.25" x2="244.83" y2="191.69"></line><line class="link fake transparent" x1="254.54" y1="203.25" x2="234.94" y2="180.20"></line><line class="link fake transparent" x1="239.85" y1="205.95" x2="244.83" y2="191.69"></line><line class="link fake transparent" x1="239.85" y1="205.95" x2="250.13" y2="177.62"></line><line class="link fake transparent" x1="230.02" y1="194.25" x2="244.83" y2="191.69"></line><line class="link fake transparent" x1="230.02" y1="194.25" x2="259.72" y2="189.15"></line><line class="link fake transparent" x1="125.88" y1="114.26" x2="122.05" y2="95.12"></line><line class="link fake transparent" x1="125.88" y1="114.26" x2="117.45" y2="75.51"></line><line class="link fake transparent" x1="110.92" y1="111.51" x2="122.05" y2="95.12"></line><line class="link fake transparent" x1="110.92" y1="111.51" x2="132.79" y2="78.89"></line><line class="link fake transparent" x1="102.59" y1="99.07" x2="122.05" y2="95.12"></line><line class="link fake transparent" x1="102.59" y1="99.07" x2="141.07" y2="91.14"></line><line class="link fake transparent" x1="105.66" y1="84.33" x2="122.05" y2="95.12"></line><line class="link fake transparent" x1="105.66" y1="84.33" x2="138.48" y2="106.73"></line><line class="link fake transparent" x1="117.45" y1="75.51" x2="122.05" y2="95.12"></line><line class="link fake transparent" x1="117.45" y1="75.51" x2="125.88" y2="114.26"></line><line class="link fake transparent" x1="132.79" y1="78.89" x2="122.05" y2="95.12"></line><line class="link fake transparent" x1="132.79" y1="78.89" x2="110.92" y2="111.51"></line><line class="link fake transparent" x1="141.07" y1="91.14" x2="122.05" y2="95.12"></line><line class="link fake transparent" x1="141.07" y1="91.14" x2="102.59" y2="99.07"></line><line class="link fake transparent" x1="138.48" y1="106.73" x2="122.05" y2="95.12"></line><line class="link fake transparent" x1="138.48" y1="106.73" x2="105.66" y2="84.33"></line><line class="link fake transparent" x1="95.92" y1="72.22" x2="92.91" y2="57.44"></line><line class="link fake transparent" x1="95.92" y1="72.22" x2="89.76" y2="42.60"></line><line class="link fake transparent" x1="81.47" y1="67.31" x2="92.91" y2="57.44"></line><line class="link fake transparent" x1="81.47" y1="67.31" x2="104.31" y2="47.61"></line><line class="link fake transparent" x1="78.61" y1="52.27" x2="92.91" y2="57.44"></line><line class="link fake transparent" x1="78.61" y1="52.27" x2="107.17" y2="62.73"></line><line class="link fake transparent" x1="89.76" y1="42.60" x2="92.91" y2="57.44"></line><line class="link fake transparent" x1="89.76" y1="42.60" x2="95.92" y2="72.22"></line><line class="link fake transparent" x1="104.31" y1="47.61" x2="92.91" y2="57.44"></line><line class="link fake transparent" x1="104.31" y1="47.61" x2="81.47" y2="67.31"></line><line class="link fake transparent" x1="107.17" y1="62.73" x2="92.91" y2="57.44"></line><line class="link fake transparent" x1="107.17" y1="62.73" x2="78.61" y2="52.27"></line></g><g><g class="noselect gnode" struct_name="m" transform="translate(112.86,209.61)" r="6.5"><circle class="node" r="6" node_type="nucleotide" style="fill: lightsalmon;"></circle><text text-anchor="middle" font-size="8" font-weight="bold" y="2.5" class="node-label">A</text></g><g class="noselect gnode" struct_name="m" transform="translate(104.96,196.60)" r="6.5"><circle class="node" r="6" node_type="nucleotide" style="fill: lightsalmon;"></circle><text text-anchor="middle" font-size="8" font-weight="bold" y="2.5" class="node-label">U</text></g><g class="noselect gnode" struct_name="m" transform="translate(105.40,181.46)" r="6.5"><circle class="node" r="6" node_type="nucleotide" style="fill: lightsalmon;"></circle><text text-anchor="middle" font-size="8" font-weight="bold" y="2.5" class="node-label">U</text></g><g class="noselect gnode" struct_name="m" transform="translate(112.29,167.99)" r="6.5"><circle class="node" r="6" node_type="nucleotide" style="fill: lightsalmon;"></circle><text text-anchor="middle" font-size="8" font-weight="bold" y="2.5" class="node-label">A</text></g><g class="noselect gnode" struct_name="m" transform="translate(124.62,158.87)" r="6.5"><circle class="node" r="6" node_type="nucleotide" style="fill: lightsalmon;"></circle><text text-anchor="middle" font-size="8" font-weight="bold" y="2.5" class="node-label">A</text></g><g class="noselect gnode" struct_name="m" transform="translate(139.96,156.69)" r="6.5"><circle class="node" r="6" node_type="nucleotide" style="fill: lightgreen;"></circle><text text-anchor="middle" font-size="8" font-weight="bold" y="2.5" class="node-label">U</text></g><g class="noselect gnode" struct_name="m" transform="translate(138.37,142.38)" r="6.5"><circle class="node" r="6" node_type="nucleotide" style="fill: lightgreen;"></circle><text text-anchor="middle" font-size="8" font-weight="bold" y="2.5" class="node-label">C</text></g><g class="noselect gnode" struct_name="m" transform="translate(133.23,127.87)" r="6.5"><circle class="node" r="6" node_type="nucleotide" style="fill: lightgreen;"></circle><text text-anchor="middle" font-size="8" font-weight="bold" y="2.5" class="node-label">U</text></g><g class="noselect gnode" struct_name="m" transform="translate(125.88,114.26)" r="6.5"><circle class="node" r="6" node_type="nucleotide" style="fill: lightgreen;"></circle><text text-anchor="middle" font-size="8" font-weight="bold" y="2.5" class="node-label">G</text></g><g class="noselect gnode" struct_name="m" transform="translate(110.92,111.51)" r="6.5"><circle class="node" r="6" node_type="nucleotide" style="fill: rgb(219, 219, 141);"></circle><text text-anchor="middle" font-size="8" font-weight="bold" y="2.5" class="node-label">U</text></g><g class="noselect gnode" struct_name="m" transform="translate(102.59,99.07)" r="6.5"><circle class="node" r="6" node_type="nucleotide" style="fill: rgb(219, 219, 141);"></circle><text text-anchor="middle" font-size="8" font-weight="bold" y="2.5" class="node-label">A</text></g><g class="noselect gnode" struct_name="m" transform="translate(105.66,84.33)" r="6.5"><circle class="node" r="6" node_type="nucleotide" style="fill: lightgreen;"></circle><text text-anchor="middle" font-size="8" font-weight="bold" y="2.5" class="node-label">U</text></g><g class="noselect gnode" struct_name="m" transform="translate(95.92,72.22)" r="6.5"><circle class="node" r="6" node_type="nucleotide" style="fill: lightgreen;"></circle><text text-anchor="middle" font-size="8" font-weight="bold" y="2.5" class="node-label">A</text></g><g class="noselect gnode" struct_name="m" transform="translate(81.47,67.31)" r="6.5"><circle class="node" r="6" node_type="nucleotide" style="fill: rgb(219, 219, 141);"></circle><text text-anchor="middle" font-size="8" font-weight="bold" y="2.5" class="node-label">U</text></g><g class="noselect gnode" struct_name="m" transform="translate(78.61,52.27)" r="6.5"><circle class="node" r="6" node_type="nucleotide" style="fill: lightgreen;"></circle><text text-anchor="middle" font-size="8" font-weight="bold" y="2.5" class="node-label">G</text></g><g class="noselect gnode" struct_name="m" transform="translate(68.17,40.10)" r="6.5"><circle class="node" r="6" node_type="nucleotide" style="fill: lightgreen;"></circle><text text-anchor="middle" font-size="8" font-weight="bold" y="2.5" class="node-label">G</text></g><g class="noselect gnode" struct_name="m" transform="translate(57.73,27.59)" r="6.5"><circle class="node" r="6" node_type="nucleotide" style="fill: lightgreen;"></circle><text text-anchor="middle" font-size="8" font-weight="bold" y="2.5" class="node-label">U</text></g><g class="noselect gnode" struct_name="m" transform="translate(47.63,14.57)" r="6.5"><circle class="node" r="6" node_type="nucleotide" style="fill: lightgreen;"></circle><text text-anchor="middle" font-size="8" font-weight="bold" y="2.5" class="node-label">G</text></g><g class="noselect gnode" struct_name="m" transform="translate(37.95,1.20)" r="6.5"><circle class="node" r="6" node_type="nucleotide" style="fill: lightgreen;"></circle><text text-anchor="middle" font-size="8" font-weight="bold" y="2.5" class="node-label">A</text></g><g class="noselect gnode" struct_name="m" transform="translate(28.71,-12.30)" r="6.5"><circle class="node" r="6" node_type="nucleotide" style="fill: lightgreen;"></circle><text text-anchor="middle" font-size="8" font-weight="bold" y="2.5" class="node-label">G</text></g><g class="noselect gnode" struct_name="m" transform="translate(19.77,-25.75)" r="6.5"><circle class="node" r="6" node_type="nucleotide" style="fill: lightgreen;"></circle><text text-anchor="middle" font-size="8" font-weight="bold" y="2.5" class="node-label">C</text></g><g class="noselect gnode" struct_name="m" transform="translate(10.90,-38.88)" r="6.5"><circle class="node" r="6" node_type="nucleotide" style="fill: lightgreen;"></circle><text text-anchor="middle" font-size="8" font-weight="bold" y="2.5" class="node-label">C</text></g><g class="noselect gnode" struct_name="m" transform="translate(-2.87,-45.77)" r="6.5"><circle class="node" r="6" node_type="nucleotide" style="fill: lightblue;"></circle><text text-anchor="middle" font-size="8" font-weight="bold" y="2.5" class="node-label">A</text></g><g class="noselect gnode" struct_name="m" transform="translate(-3.72,-60.70)" r="6.5"><circle class="node" r="6" node_type="nucleotide" style="fill: lightblue;"></circle><text text-anchor="middle" font-size="8" font-weight="bold" y="2.5" class="node-label">A</text></g><g class="noselect gnode" struct_name="m" transform="translate(8.73,-69.01)" r="6.5"><circle class="node" r="6" node_type="nucleotide" style="fill: lightblue;"></circle><text text-anchor="middle" font-size="8" font-weight="bold" y="2.5" class="node-label">A</text></g><g class="noselect gnode" struct_name="m" transform="translate(22.20,-62.49)" r="6.5"><circle class="node" r="6" node_type="nucleotide" style="fill: lightblue;"></circle><text text-anchor="middle" font-size="8" font-weight="bold" y="2.5" class="node-label">U</text></g><g class="noselect gnode" struct_name="m" transform="translate(23.28,-47.10)" r="6.5"><circle class="node" r="6" node_type="nucleotide" style="fill: lightgreen;"></circle><text text-anchor="middle" font-size="8" font-weight="bold" y="2.5" class="node-label">G</text></g><g class="noselect gnode" struct_name="m" transform="translate(31.91,-33.78)" r="6.5"><circle class="node" r="6" node_type="nucleotide" style="fill: lightgreen;"></circle><text text-anchor="middle" font-size="8" font-weight="bold" y="2.5" class="node-label">G</text></g><g class="noselect gnode" struct_name="m" transform="translate(40.76,-20.40)" r="6.5"><circle class="node" r="6" node_type="nucleotide" style="fill: lightgreen;"></circle><text text-anchor="middle" font-size="8" font-weight="bold" y="2.5" class="node-label">C</text></g><g class="noselect gnode" struct_name="m" transform="translate(49.79,-7.10)" r="6.5"><circle class="node" r="6" node_type="nucleotide" style="fill: lightgreen;"></circle><text text-anchor="middle" font-size="8" font-weight="bold" y="2.5" class="node-label">U</text></g><g class="noselect gnode" struct_name="m" transform="translate(59.18,5.90)" r="6.5"><circle class="node" r="6" node_type="nucleotide" style="fill: lightgreen;"></circle><text text-anchor="middle" font-size="8" font-weight="bold" y="2.5" class="node-label">C</text></g><g class="noselect gnode" struct_name="m" transform="translate(69.03,18.46)" r="6.5"><circle class="node" r="6" node_type="nucleotide" style="fill: lightgreen;"></circle><text text-anchor="middle" font-size="8" font-weight="bold" y="2.5" class="node-label">G</text></g><g class="noselect gnode" struct_name="m" transform="translate(79.24,30.64)" r="6.5"><circle class="node" r="6" node_type="nucleotide" style="fill: lightgreen;"></circle><text text-anchor="middle" font-size="8" font-weight="bold" y="2.5" class="node-label">C</text></g><g class="noselect gnode" struct_name="m" transform="translate(89.76,42.60)" r="6.5"><circle class="node" r="6" node_type="nucleotide" style="fill: lightgreen;"></circle><text text-anchor="middle" font-size="8" font-weight="bold" y="2.5" class="node-label">U</text></g><g class="noselect gnode" struct_name="m" transform="translate(104.31,47.61)" r="6.5"><circle class="node" r="6" node_type="nucleotide" style="fill: rgb(219, 219, 141);"></circle><text text-anchor="middle" font-size="8" font-weight="bold" y="2.5" class="node-label">U</text></g><g class="noselect gnode" struct_name="m" transform="translate(107.17,62.73)" r="6.5"><circle class="node" r="6" node_type="nucleotide" style="fill: lightgreen;"></circle><text text-anchor="middle" font-size="8" font-weight="bold" y="2.5" class="node-label">U</text></g><g class="noselect gnode" struct_name="m" transform="translate(117.45,75.51)" r="6.5"><circle class="node" r="6" node_type="nucleotide" style="fill: lightgreen;"></circle><text text-anchor="middle" font-size="8" font-weight="bold" y="2.5" class="node-label">A</text></g><g class="noselect gnode" struct_name="m" transform="translate(132.79,78.89)" r="6.5"><circle class="node" r="6" node_type="nucleotide" style="fill: rgb(219, 219, 141);"></circle><text text-anchor="middle" font-size="8" font-weight="bold" y="2.5" class="node-label">G</text></g><g class="noselect gnode" struct_name="m" transform="translate(141.07,91.14)" r="6.5"><circle class="node" r="6" node_type="nucleotide" style="fill: rgb(219, 219, 141);"></circle><text text-anchor="middle" font-size="8" font-weight="bold" y="2.5" class="node-label">U</text></g><g class="noselect gnode" struct_name="m" transform="translate(138.48,106.73)" r="6.5"><circle class="node" r="6" node_type="nucleotide" style="fill: lightgreen;"></circle><text text-anchor="middle" font-size="8" font-weight="bold" y="2.5" class="node-label">C</text></g><g class="noselect gnode" struct_name="m" transform="translate(146.24,122.16)" r="6.5"><circle class="node" r="6" node_type="nucleotide" style="fill: lightgreen;"></circle><text text-anchor="middle" font-size="8" font-weight="bold" y="2.5" class="node-label">A</text></g><g class="noselect gnode" struct_name="m" transform="translate(152.12,139.06)" r="6.5"><circle class="node" r="6" node_type="nucleotide" style="fill: lightgreen;"></circle><text text-anchor="middle" font-size="8" font-weight="bold" y="2.5" class="node-label">G</text></g><g class="noselect gnode" struct_name="m" transform="translate(154.62,157.52)" r="6.5"><circle class="node" r="6" node_type="nucleotide" style="fill: lightgreen;"></circle><text text-anchor="middle" font-size="8" font-weight="bold" y="2.5" class="node-label">A</text></g><g class="noselect gnode" struct_name="m" transform="translate(167.70,169.41)" r="6.5"><circle class="node" r="6" node_type="nucleotide" style="fill: lightgreen;"></circle><text text-anchor="middle" font-size="8" font-weight="bold" y="2.5" class="node-label">C</text></g><g class="noselect gnode" struct_name="m" transform="translate(186.10,168.79)" r="6.5"><circle class="node" r="6" node_type="nucleotide" style="fill: lightgreen;"></circle><text text-anchor="middle" font-size="8" font-weight="bold" y="2.5" class="node-label">A</text></g><g class="noselect gnode" struct_name="m" transform="translate(203.32,171.19)" r="6.5"><circle class="node" r="6" node_type="nucleotide" style="fill: lightgreen;"></circle><text text-anchor="middle" font-size="8" font-weight="bold" y="2.5" class="node-label">U</text></g><g class="noselect gnode" struct_name="m" transform="translate(219.60,175.30)" r="6.5"><circle class="node" r="6" node_type="nucleotide" style="fill: lightgreen;"></circle><text text-anchor="middle" font-size="8" font-weight="bold" y="2.5" class="node-label">C</text></g><g class="noselect gnode" struct_name="m" transform="translate(234.94,180.20)" r="6.5"><circle class="node" r="6" node_type="nucleotide" style="fill: lightgreen;"></circle><text text-anchor="middle" font-size="8" font-weight="bold" y="2.5" class="node-label">G</text></g><g class="noselect gnode" struct_name="m" transform="translate(250.13,177.62)" r="6.5"><circle class="node" r="6" node_type="nucleotide" style="fill: lightblue;"></circle><text text-anchor="middle" font-size="8" font-weight="bold" y="2.5" class="node-label">U</text></g><g class="noselect gnode" struct_name="m" transform="translate(259.72,189.15)" r="6.5"><circle class="node" r="6" node_type="nucleotide" style="fill: lightblue;"></circle><text text-anchor="middle" font-size="8" font-weight="bold" y="2.5" class="node-label">G</text></g><g class="noselect gnode" struct_name="m" transform="translate(254.54,203.25)" r="6.5"><circle class="node" r="6" node_type="nucleotide" style="fill: lightblue;"></circle><text text-anchor="middle" font-size="8" font-weight="bold" y="2.5" class="node-label">U</text></g><g class="noselect gnode" struct_name="m" transform="translate(239.85,205.95)" r="6.5"><circle class="node" r="6" node_type="nucleotide" style="fill: lightblue;"></circle><text text-anchor="middle" font-size="8" font-weight="bold" y="2.5" class="node-label">C</text></g><g class="noselect gnode" struct_name="m" transform="translate(230.02,194.25)" r="6.5"><circle class="node" r="6" node_type="nucleotide" style="fill: lightgreen;"></circle><text text-anchor="middle" font-size="8" font-weight="bold" y="2.5" class="node-label">C</text></g><g class="noselect gnode" struct_name="m" transform="translate(215.39,189.26)" r="6.5"><circle class="node" r="6" node_type="nucleotide" style="fill: lightgreen;"></circle><text text-anchor="middle" font-size="8" font-weight="bold" y="2.5" class="node-label">G</text></g><g class="noselect gnode" struct_name="m" transform="translate(200.44,185.36)" r="6.5"><circle class="node" r="6" node_type="nucleotide" style="fill: lightgreen;"></circle><text text-anchor="middle" font-size="8" font-weight="bold" y="2.5" class="node-label">A</text></g><g class="noselect gnode" struct_name="m" transform="translate(185.25,183.02)" r="6.5"><circle class="node" r="6" node_type="nucleotide" style="fill: lightgreen;"></circle><text text-anchor="middle" font-size="8" font-weight="bold" y="2.5" class="node-label">U</text></g><g class="noselect gnode" struct_name="m" transform="translate(170.92,183.75)" r="6.5"><circle class="node" r="6" node_type="nucleotide" style="fill: lightgreen;"></circle><text text-anchor="middle" font-size="8" font-weight="bold" y="2.5" class="node-label">G</text></g><g class="noselect gnode" struct_name="m" transform="translate(170.47,199.18)" r="6.5"><circle class="node" r="6" node_type="nucleotide" style="fill: lightsalmon;"></circle><text text-anchor="middle" font-size="8" font-weight="bold" y="2.5" class="node-label">A</text></g><g class="noselect gnode" struct_name="m" transform="translate(163.01,212.44)" r="6.5"><circle class="node" r="6" node_type="nucleotide" style="fill: lightsalmon;"></circle><text text-anchor="middle" font-size="8" font-weight="bold" y="2.5" class="node-label">A</text></g><g class="noselect gnode" struct_name="m" transform="translate(150.54,221.04)" r="6.5"><circle class="node" r="6" node_type="nucleotide" style="fill: lightsalmon;"></circle><text text-anchor="middle" font-size="8" font-weight="bold" y="2.5" class="node-label">U</text></g><g class="noselect gnode" struct_name="m" transform="translate(97.97,120.07)" r="6.5"><circle class="node label" r="6" node_type="label"></circle><text text-anchor="middle" font-size="8" font-weight="bold" y="2.5" class="node-label">10</text></g><g class="noselect gnode" struct_name="m" transform="translate(14.31,-6.26)" r="6.5"><circle class="node label" r="6" node_type="label"></circle><text text-anchor="middle" font-size="8" font-weight="bold" y="2.5" class="node-label">20</text></g><g class="noselect gnode" struct_name="m" transform="translate(62.20,-16.55)" r="6.5"><circle class="node label" r="6" node_type="label"></circle><text text-anchor="middle" font-size="8" font-weight="bold" y="2.5" class="node-label">30</text></g><g class="noselect gnode" struct_name="m" transform="translate(151.20,97.61)" r="6.5"><circle class="node label" r="6" node_type="label"></circle><text text-anchor="middle" font-size="8" font-weight="bold" y="2.5" class="node-label">40</text></g><g class="noselect gnode" struct_name="m" transform="translate(274.36,194.09)" r="6.5"><circle class="node label" r="6" node_type="label"></circle><text text-anchor="middle" font-size="8" font-weight="bold" y="2.5" class="node-label">50</text></g><g class="noselect gnode" struct_name="m" transform="translate(148.26,236.38)" r="6.5"><circle class="node label" r="6" node_type="label"></circle><text text-anchor="middle" font-size="8" font-weight="bold" y="2.5" class="node-label">60</text></g><g class="noselect gnode" transform="translate(78.91,41.44)" r="6.5"><circle class="node" r="0" node_type="middle"></circle><text text-anchor="middle" font-size="8" font-weight="bold" y="2.5" class="node-label"></text></g><g class="noselect gnode" transform="translate(68.43,29.26)" r="6.5"><circle class="node" r="0" node_type="middle"></circle><text text-anchor="middle" font-size="8" font-weight="bold" y="2.5" class="node-label"></text></g><g class="noselect gnode" transform="translate(58.27,16.75)" r="6.5"><circle class="node" r="0" node_type="middle"></circle><text text-anchor="middle" font-size="8" font-weight="bold" y="2.5" class="node-label"></text></g><g class="noselect gnode" transform="translate(48.52,3.74)" r="6.5"><circle class="node" r="0" node_type="middle"></circle><text text-anchor="middle" font-size="8" font-weight="bold" y="2.5" class="node-label"></text></g><g class="noselect gnode" transform="translate(39.22,-9.61)" r="6.5"><circle class="node" r="0" node_type="middle"></circle><text text-anchor="middle" font-size="8" font-weight="bold" y="2.5" class="node-label"></text></g><g class="noselect gnode" transform="translate(30.23,-23.09)" r="6.5"><circle class="node" r="0" node_type="middle"></circle><text text-anchor="middle" font-size="8" font-weight="bold" y="2.5" class="node-label"></text></g><g class="noselect gnode" transform="translate(21.44,-36.44)" r="6.5"><circle class="node" r="0" node_type="middle"></circle><text text-anchor="middle" font-size="8" font-weight="bold" y="2.5" class="node-label"></text></g><g class="noselect gnode" transform="translate(147.22,148.76)" r="6.5"><circle class="node" r="0" node_type="middle"></circle><text text-anchor="middle" font-size="8" font-weight="bold" y="2.5" class="node-label"></text></g><g class="noselect gnode" transform="translate(143.12,132.63)" r="6.5"><circle class="node" r="0" node_type="middle"></circle><text text-anchor="middle" font-size="8" font-weight="bold" y="2.5" class="node-label"></text></g><g class="noselect gnode" transform="translate(136.36,117.49)" r="6.5"><circle class="node" r="0" node_type="middle"></circle><text text-anchor="middle" font-size="8" font-weight="bold" y="2.5" class="node-label"></text></g><g class="noselect gnode" transform="translate(177.50,175.37)" r="6.5"><circle class="node" r="0" node_type="middle"></circle><text text-anchor="middle" font-size="8" font-weight="bold" y="2.5" class="node-label"></text></g><g class="noselect gnode" transform="translate(193.92,176.58)" r="6.5"><circle class="node" r="0" node_type="middle"></circle><text text-anchor="middle" font-size="8" font-weight="bold" y="2.5" class="node-label"></text></g><g class="noselect gnode" transform="translate(209.85,179.95)" r="6.5"><circle class="node" r="0" node_type="middle"></circle><text text-anchor="middle" font-size="8" font-weight="bold" y="2.5" class="node-label"></text></g><g class="noselect gnode" transform="translate(225.11,184.57)" r="6.5"><circle class="node" r="0" node_type="middle"></circle><text text-anchor="middle" font-size="8" font-weight="bold" y="2.5" class="node-label"></text></g><g class="noselect gnode" transform="translate(106.73,73.58)" r="6.5"><circle class="node" r="0" node_type="middle"></circle><text text-anchor="middle" font-size="8" font-weight="bold" y="2.5" class="node-label"></text></g><g class="noselect gnode" transform="translate(136.10,224.38)" r="6.5"><circle class="node" r="0" node_type="middle"></circle><text text-anchor="middle" font-size="8" font-weight="bold" y="2.5" class="node-label"></text></g><g class="noselect gnode" transform="translate(121.59,216.87)" r="6.5"><circle class="node" r="0" node_type="middle"></circle><text text-anchor="middle" font-size="8" font-weight="bold" y="2.5" class="node-label"></text></g><g class="noselect gnode" transform="translate(138.74,188.90)" r="6.5"><circle class="node" r="0" node_type="middle"></circle><text text-anchor="middle" font-size="8" font-weight="bold" y="2.5" class="node-label"></text></g><g class="noselect gnode" transform="translate(9.79,-53.96)" r="6.5"><circle class="node" r="0" node_type="middle"></circle><text text-anchor="middle" font-size="8" font-weight="bold" y="2.5" class="node-label"></text></g><g class="noselect gnode" transform="translate(244.83,191.69)" r="6.5"><circle class="node" r="0" node_type="middle"></circle><text text-anchor="middle" font-size="8" font-weight="bold" y="2.5" class="node-label"></text></g><g class="noselect gnode" transform="translate(122.05,95.12)" r="6.5"><circle class="node" r="0" node_type="middle"></circle><text text-anchor="middle" font-size="8" font-weight="bold" y="2.5" class="node-label"></text></g><g class="noselect gnode" transform="translate(92.91,57.44)" r="6.5"><circle class="node" r="0" node_type="middle"></circle><text text-anchor="middle" font-size="8" font-weight="bold" y="2.5" class="node-label"></text></g></g><line class="drag_line" x1="0" y1="0" x2="0" y2="0"></line></g></g></svg>