<svg xmlns="http://www.w3.org/2000/svg" viewBox="0 0 760 640" width="760" height="640"><style>svg {
  display: block;
  min-width: 100%;
  width: 100%;
  min-height: 100%;
}

circle.node {
  stroke: #ccc;
  stroke-width: 1px;
  opacity: 1;
  fill: white;
}

circle.node.label {
    stroke: transparent;
    stroke-width: 0;
    fill: white;
}

circle.outline_node {
    stroke-width: 1px;
    fill: red;
}

circle.protein {
    fill: gray;
    fill-opacity: 0.5;
    stroke-width: 4;
}

circle.hidden_outline {
    stroke-width: 0px;
}


line.link {
  stroke: #999;
  stroke-opacity: 0.8;
  stroke-width: 2;
}

line.basepair {
  stroke: red;
}

line.intermolecule {
  stroke: blue;
}

line.chain_chain {
  stroke-dasharray: 3,3;
}

line.fake {
  stroke: green;
}

.transparent {
    fill: transparent;
    stroke-width: 0;
    stroke-opacity: 0;
    opacity: 0;
    visibility: hidden;
}

.drag_line {
  stroke: #999;
  stroke-width: 2;
  pointer-events: none;
}

.drag_line_hidden {
  stroke: #999;
  stroke-width: 0;
  pointer-events: none;
}

.d3-tip {
    line-height: 1;
    font-weight: bold;
    padding: 6px;
    background: rgba(0, 0, 0, 0.6);
    color: #fff;
    border-radius: 4px;
    pointer-events: none;
          }

text.node-label {
    font-weight: bold;
    font-family: Tahoma, Geneva, sans-serif;
    color: rgb(100,100,100);
    pointer-events: none;
}

text {
    pointer-events: none;
}

g.gnode {

}

circle.outline_node.selected {
    visibility: visible;
}

circle.outline_node {
    visibility: hidden;
}

.brush .extent {
  fill-opacity: .1;
  stroke: #fff;
  shape-rendering: crispEdges;
}

.noselect {
    -webkit-touch-callout: none;
    -webkit-user-select: none;
    -khtml-user-select: none;
    -moz-user-select: none;
    -ms-user-select: none;
    user-select: none;
}

svg {
  display: block;
  min-width: 100%;
  width: 100%;
  min-height: 100%;
}

circle.node {
  stroke: #ccc;
  stroke-width: 1px;
  opacity: 1;
  fill: white;
}

circle.node.label {
    stroke: transparent;
    stroke-width: 0;
    fill: white;
}

circle.outline_node {
    stroke-width: 1px;
    fill: red;
}

circle.protein {
    fill: gray;
    fill-opacity: 0.5;
    stroke-width: 4;
}

circle.hidden_outline {
    stroke-width: 0px;
}


line.link {
  stroke: #999;
  stroke-opacity: 0.8;
  stroke-width: 2;
}

line.basepair {
  stroke: red;
}

line.intermolecule {
  stroke: blue;
}

line.chain_chain {
  stroke-dasharray: 3,3;
}

line.fake {
  stroke: green;
}

.transparent {
    fill: transparent;
    stroke-width: 0;
    stroke-opacity: 0;
    opacity: 0;
    visibility: hidden;
}

.drag_line {
  stroke: #999;
  stroke-width: 2;
  pointer-events: none;
}

.drag_line_hidden {
  stroke: #999;
  stroke-width: 0;
  pointer-events: none;
}

.d3-tip {
    line-height: 1;
    font-weight: bold;
    padding: 6px;
    background: rgba(0, 0, 0, 0.6);
    color: #fff;
    border-radius: 4px;
    pointer-events: none;
          }

text.node-label {
    font-weight: bold;
    font-family: Tahoma, Geneva, sans-serif;
    color: rgb(100,100,100);
    pointer-events: none;
}

text {
    pointer-events: none;
}

g.gnode {

}

circle.outline_node.selected {
    visibility: visible;
}

circle.outline_node {
    visibility: hidden;
}

.brush .extent {
  fill-opacity: .1;
  stroke: #fff;
  shape-rendering: crispEdges;
}

.noselect {
    -webkit-touch-callout: none;
    -webkit-user-select: none;
    -khtml-user-select: none;
    -moz-user-select: none;
    -ms-user-select: none;
    user-select: none;
}
/*# sourceURL=/Users/yumanakamura/ipy_sandbox/sandbox/claude_sandbox/mrna-transformer/scripts/eval/prerender/forna_vendor/fornac.css*/</style><style></style><g><g class="brush" style="pointer-events: all; -webkit-tap-highlight-color: rgba(0, 0, 0, 0);"><rect class="background" x="0" width="760" y="0" height="640" style="visibility: hidden; cursor: auto;"></rect><rect class="extent" x="0" width="0" y="0" height="0" style="cursor: move;"></rect><g class="resize n" transform="translate(0,0)" style="cursor: ns-resize; display: none;"><rect y="-3" width="0" height="6" style="visibility: hidden;"></rect></g><g class="resize e" transform="translate(0,0)" style="cursor: ew-resize; display: none;"><rect x="-3" width="6" height="0" style="visibility: hidden;"></rect></g><g class="resize s" transform="translate(0,0)" style="cursor: ns-resize; display: none;"><rect y="-3" width="0" height="6" style="visibility: hidden;"></rect></g><g class="resize w" transform="translate(0,0)" style="cursor: ew-resize; display: none;"><rect x="-3" width="6" height="0" style="visibility: hidden;"></rect></g><g class="resize nw" transform="translate(0,0)" style="cursor: nwse-resize; display: none;"><rect x="-3" y="-3" width="6" height="6" style="visibility: hidden;"></rect></g><g class="resize ne" transform="translate(0,0)" style="cursor: nesw-resize; display: none;"><rect x="-3" y="-3" width="6" height="6" style="visibility: hidden;"></rect></g><g class="resize se" transform="translate(0,0)" style="cursor: nwse-resize; display: none;"><rect x="-3" y="-3" width="6" height="6" style="visibility: hidden;"></rect></g><g class="resize sw" transform="translate(0,0)" style="cursor: nesw-resize; display: none;"><rect x="-3" y="-3" width="6" height="6" style="visibility: hidden;"></rect></g></g><g transform="translate(322.65,186.49) scale(1.23)"><g><line class="link backbone" x1="8.94" y1="328.40" x2="-3.75" y2="320.37"></line><line class="link backbone" x1="-3.75" y1="320.37" x2="-8.29" y2="305.94"></line><line class="link backbone" x1="-8.29" y1="305.94" x2="-2.49" y2="292.11"></line><line class="link basepair" x1="10.94" y1="284.64" x2="25.60" y2="287.69"></line><line class="link backbone" x1="-2.49" y1="292.11" x2="10.94" y2="284.64"></line><line class="link basepair" x1="14.41" y1="269.27" x2="28.74" y2="272.35"></line><line class="link backbone" x1="10.94" y1="284.64" x2="14.41" y2="269.27"></line><line class="link basepair" x1="17.72" y1="253.76" x2="32.06" y2="256.70"></line><line class="link backbone" x1="14.41" y1="269.27" x2="17.72" y2="253.76"></line><line class="link basepair" x1="20.81" y1="238.22" x2="35.17" y2="240.93"></line><line class="link backbone" x1="17.72" y1="253.76" x2="20.81" y2="238.22"></line><line class="link basepair" x1="23.56" y1="222.63" x2="37.95" y2="224.97"></line><line class="link backbone" x1="20.81" y1="238.22" x2="23.56" y2="222.63"></line><line class="link basepair" x1="25.91" y1="206.93" x2="40.39" y2="208.97"></line><line class="link backbone" x1="23.56" y1="222.63" x2="25.91" y2="206.93"></line><line class="link basepair" x1="28.01" y1="191.16" x2="42.50" y2="193.07"></line><line class="link backbone" x1="25.91" y1="206.93" x2="28.01" y2="191.16"></line><line class="link basepair" x1="30.15" y1="175.22" x2="44.61" y2="177.32"></line><line class="link backbone" x1="28.01" y1="191.16" x2="30.15" y2="175.22"></line><line class="link basepair" x1="32.72" y1="159.14" x2="47.07" y2="161.74"></line><line class="link backbone" x1="30.15" y1="175.22" x2="32.72" y2="159.14"></line><line class="link basepair" x1="35.98" y1="143.10" x2="50.25" y2="146.46"></line><line class="link backbone" x1="32.72" y1="159.14" x2="35.98" y2="143.10"></line><line class="link basepair" x1="40.22" y1="127.32" x2="54.22" y2="131.49"></line><line class="link backbone" x1="35.98" y1="143.10" x2="40.22" y2="127.32"></line><line class="link basepair" x1="45.12" y1="111.82" x2="59.20" y2="116.90"></line><line class="link backbone" x1="40.22" y1="127.32" x2="45.12" y2="111.82"></line><line class="link backbone" x1="45.12" y1="111.82" x2="40.38" y2="96.97"></line><line class="link basepair" x1="48.91" y1="83.96" x2="63.84" y2="82.79"></line><line class="link backbone" x1="40.38" y1="96.97" x2="48.91" y2="83.96"></line><line class="link basepair" x1="48.29" y1="67.79" x2="62.84" y2="67.31"></line><line class="link backbone" x1="48.91" y1="83.96" x2="48.29" y2="67.79"></line><line class="link basepair" x1="48.01" y1="51.50" x2="62.60" y2="51.49"></line><line class="link backbone" x1="48.29" y1="67.79" x2="48.01" y2="51.50"></line><line class="link basepair" x1="48.22" y1="35.22" x2="62.80" y2="35.65"></line><line class="link backbone" x1="48.01" y1="51.50" x2="48.22" y2="35.22"></line><line class="link basepair" x1="48.97" y1="18.96" x2="63.51" y2="19.92"></line><line class="link backbone" x1="48.22" y1="35.22" x2="48.97" y2="18.96"></line><line class="link basepair" x1="50.38" y1="2.63" x2="64.85" y2="4.17"></line><line class="link backbone" x1="48.97" y1="18.96" x2="50.38" y2="2.63"></line><line class="link basepair" x1="52.46" y1="-13.64" x2="66.83" y2="-11.59"></line><line class="link backbone" x1="50.38" y1="2.63" x2="52.46" y2="-13.64"></line><line class="link basepair" x1="55.00" y1="-29.75" x2="69.36" y2="-27.34"></line><line class="link backbone" x1="52.46" y1="-13.64" x2="55.00" y2="-29.75"></line><line class="link basepair" x1="57.79" y1="-45.62" x2="72.14" y2="-43.08"></line><line class="link backbone" x1="55.00" y1="-29.75" x2="57.79" y2="-45.62"></line><line class="link basepair" x1="60.31" y1="-61.17" x2="75.05" y2="-58.71"></line><line class="link backbone" x1="57.79" y1="-45.62" x2="60.31" y2="-61.17"></line><line class="link backbone" x1="60.31" y1="-61.17" x2="49.74" y2="-72.24"></line><line class="link backbone" x1="49.74" y1="-72.24" x2="47.39" y2="-86.95"></line><line class="link backbone" x1="47.39" y1="-86.95" x2="54.21" y2="-100.44"></line><line class="link backbone" x1="54.21" y1="-100.44" x2="67.74" y2="-106.95"></line><line class="link backbone" x1="67.74" y1="-106.95" x2="82.48" y2="-104.62"></line><line class="link backbone" x1="82.48" y1="-104.62" x2="93.24" y2="-94.17"></line><line class="link backbone" x1="93.24" y1="-94.17" x2="95.46" y2="-79.22"></line><line class="link backbone" x1="95.46" y1="-79.22" x2="88.60" y2="-65.98"></line><line class="link basepair" x1="75.05" y1="-58.71" x2="60.31" y2="-61.17"></line><line class="link backbone" x1="88.60" y1="-65.98" x2="75.05" y2="-58.71"></line><line class="link basepair" x1="72.14" y1="-43.08" x2="57.79" y2="-45.62"></line><line class="link backbone" x1="75.05" y1="-58.71" x2="72.14" y2="-43.08"></line><line class="link basepair" x1="69.36" y1="-27.34" x2="55.00" y2="-29.75"></line><line class="link backbone" x1="72.14" y1="-43.08" x2="69.36" y2="-27.34"></line><line class="link basepair" x1="66.83" y1="-11.59" x2="52.46" y2="-13.64"></line><line class="link backbone" x1="69.36" y1="-27.34" x2="66.83" y2="-11.59"></line><line class="link basepair" x1="64.85" y1="4.17" x2="50.38" y2="2.63"></line><line class="link backbone" x1="66.83" y1="-11.59" x2="64.85" y2="4.17"></line><line class="link basepair" x1="63.51" y1="19.92" x2="48.97" y2="18.96"></line><line class="link backbone" x1="64.85" y1="4.17" x2="63.51" y2="19.92"></line><line class="link basepair" x1="62.80" y1="35.65" x2="48.22" y2="35.22"></line><line class="link backbone" x1="63.51" y1="19.92" x2="62.80" y2="35.65"></line><line class="link basepair" x1="62.60" y1="51.49" x2="48.01" y2="51.50"></line><line class="link backbone" x1="62.80" y1="35.65" x2="62.60" y2="51.49"></line><line class="link basepair" x1="62.84" y1="67.31" x2="48.29" y2="67.79"></line><line class="link backbone" x1="62.60" y1="51.49" x2="62.84" y2="67.31"></line><line class="link basepair" x1="63.84" y1="82.79" x2="48.91" y2="83.96"></line><line class="link backbone" x1="62.84" y1="67.31" x2="63.84" y2="82.79"></line><line class="link backbone" x1="63.84" y1="82.79" x2="74.46" y2="93.95"></line><line class="link backbone" x1="74.46" y1="93.95" x2="72.44" y2="108.92"></line><line class="link basepair" x1="59.20" y1="116.90" x2="45.12" y2="111.82"></line><line class="link backbone" x1="72.44" y1="108.92" x2="59.20" y2="116.90"></line><line class="link basepair" x1="54.22" y1="131.49" x2="40.22" y2="127.32"></line><line class="link backbone" x1="59.20" y1="116.90" x2="54.22" y2="131.49"></line><line class="link basepair" x1="50.25" y1="146.46" x2="35.98" y2="143.10"></line><line class="link backbone" x1="54.22" y1="131.49" x2="50.25" y2="146.46"></line><line class="link basepair" x1="47.07" y1="161.74" x2="32.72" y2="159.14"></line><line class="link backbone" x1="50.25" y1="146.46" x2="47.07" y2="161.74"></line><line class="link basepair" x1="44.61" y1="177.32" x2="30.15" y2="175.22"></line><line class="link backbone" x1="47.07" y1="161.74" x2="44.61" y2="177.32"></line><line class="link basepair" x1="42.50" y1="193.07" x2="28.01" y2="191.16"></line><line class="link backbone" x1="44.61" y1="177.32" x2="42.50" y2="193.07"></line><line class="link basepair" x1="40.39" y1="208.97" x2="25.91" y2="206.93"></line><line class="link backbone" x1="42.50" y1="193.07" x2="40.39" y2="208.97"></line><line class="link basepair" x1="37.95" y1="224.97" x2="23.56" y2="222.63"></line><line class="link backbone" x1="40.39" y1="208.97" x2="37.95" y2="224.97"></line><line class="link basepair" x1="35.17" y1="240.93" x2="20.81" y2="238.22"></line><line class="link backbone" x1="37.95" y1="224.97" x2="35.17" y2="240.93"></line><line class="link basepair" x1="32.06" y1="256.70" x2="17.72" y2="253.76"></line><line class="link backbone" x1="35.17" y1="240.93" x2="32.06" y2="256.70"></line><line class="link basepair" x1="28.74" y1="272.35" x2="14.41" y2="269.27"></line><line class="link backbone" x1="32.06" y1="256.70" x2="28.74" y2="272.35"></line><line class="link basepair" x1="25.60" y1="287.69" x2="10.94" y2="284.64"></line><line class="link backbone" x1="28.74" y1="272.35" x2="25.60" y2="287.69"></line><line class="link backbone" x1="25.60" y1="287.69" x2="35.00" y2="299.72"></line><line class="link label_link" x1="25.91" y1="206.93" x2="10.87" y2="202.76"></line><line class="link label_link" x1="48.01" y1="51.50" x2="32.39" y2="51.21"></line><line class="link label_link" x1="54.21" y1="-100.44" x2="43.10" y2="-111.16"></line><line class="link label_link" x1="64.85" y1="4.17" x2="80.18" y2="7.05"></line><line class="link label_link" x1="50.25" y1="146.46" x2="65.80" y2="147.64"></line><line class="link label_link" x1="35.00" y1="299.72" x2="49.96" y2="303.79"></line><line class="link fake transparent" x1="10.94" y1="284.64" x2="19.89" y2="278.58"></line><line class="link fake transparent" x1="10.94" y1="284.64" x2="28.74" y2="272.35"></line><line class="link fake transparent" x1="14.41" y1="269.27" x2="19.89" y2="278.58"></line><line class="link fake transparent" x1="28.74" y1="272.35" x2="19.89" y2="278.58"></line><line class="link fake transparent" x1="25.60" y1="287.69" x2="19.89" y2="278.58"></line><line class="link fake transparent" x1="14.41" y1="269.27" x2="23.27" y2="263.05"></line><line class="link fake transparent" x1="17.72" y1="253.76" x2="23.27" y2="263.05"></line><line class="link fake transparent" x1="32.06" y1="256.70" x2="23.27" y2="263.05"></line><line class="link fake transparent" x1="28.74" y1="272.35" x2="23.27" y2="263.05"></line><line class="link fake transparent" x1="17.72" y1="253.76" x2="26.50" y2="247.44"></line><line class="link fake transparent" x1="20.81" y1="238.22" x2="26.50" y2="247.44"></line><line class="link fake transparent" x1="35.17" y1="240.93" x2="26.50" y2="247.44"></line><line class="link fake transparent" x1="32.06" y1="256.70" x2="26.50" y2="247.44"></line><line class="link fake transparent" x1="20.81" y1="238.22" x2="29.48" y2="231.73"></line><line class="link fake transparent" x1="23.56" y1="222.63" x2="29.48" y2="231.73"></line><line class="link fake transparent" x1="37.95" y1="224.97" x2="29.48" y2="231.73"></line><line class="link fake transparent" x1="35.17" y1="240.93" x2="29.48" y2="231.73"></line><line class="link fake transparent" x1="23.56" y1="222.63" x2="32.05" y2="215.89"></line><line class="link fake transparent" x1="25.91" y1="206.93" x2="32.05" y2="215.89"></line><line class="link fake transparent" x1="40.39" y1="208.97" x2="32.05" y2="215.89"></line><line class="link fake transparent" x1="37.95" y1="224.97" x2="32.05" y2="215.89"></line><line class="link fake transparent" x1="25.91" y1="206.93" x2="34.26" y2="200.01"></line><line class="link fake transparent" x1="28.01" y1="191.16" x2="34.26" y2="200.01"></line><line class="link fake transparent" x1="42.50" y1="193.07" x2="34.26" y2="200.01"></line><line class="link fake transparent" x1="40.39" y1="208.97" x2="34.26" y2="200.01"></line><line class="link fake transparent" x1="28.01" y1="191.16" x2="36.26" y2="184.19"></line><line class="link fake transparent" x1="30.15" y1="175.22" x2="36.26" y2="184.19"></line><line class="link fake transparent" x1="44.61" y1="177.32" x2="36.26" y2="184.19"></line><line class="link fake transparent" x1="42.50" y1="193.07" x2="36.26" y2="184.19"></line><line class="link fake transparent" x1="30.15" y1="175.22" x2="38.48" y2="168.33"></line><line class="link fake transparent" x1="32.72" y1="159.14" x2="38.48" y2="168.33"></line><line class="link fake transparent" x1="47.07" y1="161.74" x2="38.48" y2="168.33"></line><line class="link fake transparent" x1="44.61" y1="177.32" x2="38.48" y2="168.33"></line><line class="link fake transparent" x1="32.72" y1="159.14" x2="41.27" y2="152.54"></line><line class="link fake transparent" x1="35.98" y1="143.10" x2="41.27" y2="152.54"></line><line class="link fake transparent" x1="50.25" y1="146.46" x2="41.27" y2="152.54"></line><line class="link fake transparent" x1="47.07" y1="161.74" x2="41.27" y2="152.54"></line><line class="link fake transparent" x1="35.98" y1="143.10" x2="44.91" y2="137.02"></line><line class="link fake transparent" x1="40.22" y1="127.32" x2="44.91" y2="137.02"></line><line class="link fake transparent" x1="54.22" y1="131.49" x2="44.91" y2="137.02"></line><line class="link fake transparent" x1="50.25" y1="146.46" x2="44.91" y2="137.02"></line><line class="link fake transparent" x1="40.22" y1="127.32" x2="49.52" y2="121.74"></line><line class="link fake transparent" x1="45.12" y1="111.82" x2="49.52" y2="121.74"></line><line class="link fake transparent" x1="59.20" y1="116.90" x2="49.52" y2="121.74"></line><line class="link fake transparent" x1="54.22" y1="131.49" x2="49.52" y2="121.74"></line><line class="link fake transparent" x1="48.91" y1="83.96" x2="55.82" y2="75.60"></line><line class="link fake transparent" x1="48.29" y1="67.79" x2="55.82" y2="75.60"></line><line class="link fake transparent" x1="62.84" y1="67.31" x2="55.82" y2="75.60"></line><line class="link fake transparent" x1="63.84" y1="82.79" x2="55.82" y2="75.60"></line><line class="link fake transparent" x1="48.29" y1="67.79" x2="55.32" y2="59.54"></line><line class="link fake transparent" x1="48.01" y1="51.50" x2="55.32" y2="59.54"></line><line class="link fake transparent" x1="62.60" y1="51.49" x2="55.32" y2="59.54"></line><line class="link fake transparent" x1="62.84" y1="67.31" x2="55.32" y2="59.54"></line><line class="link fake transparent" x1="48.01" y1="51.50" x2="55.29" y2="43.46"></line><line class="link fake transparent" x1="48.22" y1="35.22" x2="55.29" y2="43.46"></line><line class="link fake transparent" x1="62.80" y1="35.65" x2="55.29" y2="43.46"></line><line class="link fake transparent" x1="62.60" y1="51.49" x2="55.29" y2="43.46"></line><line class="link fake transparent" x1="48.22" y1="35.22" x2="55.72" y2="27.41"></line><line class="link fake transparent" x1="48.97" y1="18.96" x2="55.72" y2="27.41"></line><line class="link fake transparent" x1="63.51" y1="19.92" x2="55.72" y2="27.41"></line><line class="link fake transparent" x1="62.80" y1="35.65" x2="55.72" y2="27.41"></line><line class="link fake transparent" x1="48.97" y1="18.96" x2="56.74" y2="11.42"></line><line class="link fake transparent" x1="50.38" y1="2.63" x2="56.74" y2="11.42"></line><line class="link fake transparent" x1="64.85" y1="4.17" x2="56.74" y2="11.42"></line><line class="link fake transparent" x1="63.51" y1="19.92" x2="56.74" y2="11.42"></line><line class="link fake transparent" x1="50.38" y1="2.63" x2="58.45" y2="-4.63"></line><line class="link fake transparent" x1="52.46" y1="-13.64" x2="58.45" y2="-4.63"></line><line class="link fake transparent" x1="66.83" y1="-11.59" x2="58.45" y2="-4.63"></line><line class="link fake transparent" x1="64.85" y1="4.17" x2="58.45" y2="-4.63"></line><line class="link fake transparent" x1="52.46" y1="-13.64" x2="60.80" y2="-20.61"></line><line class="link fake transparent" x1="55.00" y1="-29.75" x2="60.80" y2="-20.61"></line><line class="link fake transparent" x1="69.36" y1="-27.34" x2="60.80" y2="-20.61"></line><line class="link fake transparent" x1="66.83" y1="-11.59" x2="60.80" y2="-20.61"></line><line class="link fake transparent" x1="55.00" y1="-29.75" x2="63.53" y2="-36.46"></line><line class="link fake transparent" x1="57.79" y1="-45.62" x2="63.53" y2="-36.46"></line><line class="link fake transparent" x1="72.14" y1="-43.08" x2="63.53" y2="-36.46"></line><line class="link fake transparent" x1="69.36" y1="-27.34" x2="63.53" y2="-36.46"></line><line class="link fake transparent" x1="57.79" y1="-45.62" x2="66.38" y2="-52.23"></line><line class="link fake transparent" x1="60.31" y1="-61.17" x2="66.38" y2="-52.23"></line><line class="link fake transparent" x1="75.05" y1="-58.71" x2="66.38" y2="-52.23"></line><line class="link fake transparent" x1="72.14" y1="-43.08" x2="66.38" y2="-52.23"></line><line class="link fake transparent" x1="8.94" y1="328.40" x2="13.84" y2="306.55"></line><line class="link fake transparent" x1="8.94" y1="328.40" x2="10.94" y2="284.64"></line><line class="link fake transparent" x1="-3.75" y1="320.37" x2="13.84" y2="306.55"></line><line class="link fake transparent" x1="-3.75" y1="320.37" x2="25.60" y2="287.69"></line><line class="link fake transparent" x1="-8.29" y1="305.94" x2="13.84" y2="306.55"></line><line class="link fake transparent" x1="-8.29" y1="305.94" x2="35.00" y2="299.72"></line><line class="link fake transparent" x1="-2.49" y1="292.11" x2="13.84" y2="306.55"></line><line class="link fake transparent" x1="-2.49" y1="292.11" x2="35.68" y2="314.27"></line><line class="link fake transparent" x1="10.94" y1="284.64" x2="13.84" y2="306.55"></line><line class="link fake transparent" x1="10.94" y1="284.64" x2="25.81" y2="326.39"></line><line class="link fake transparent" x1="25.60" y1="287.69" x2="13.84" y2="306.55"></line><line class="link fake transparent" x1="25.60" y1="287.69" x2="8.94" y2="328.40"></line><line class="link fake transparent" x1="35.00" y1="299.72" x2="13.84" y2="306.55"></line><line class="link fake transparent" x1="35.00" y1="299.72" x2="-3.75" y2="320.37"></line><line class="link fake transparent" x1="60.31" y1="-61.17" x2="71.42" y2="-82.96"></line><line class="link fake transparent" x1="60.31" y1="-61.17" x2="82.48" y2="-104.62"></line><line class="link fake transparent" x1="49.74" y1="-72.24" x2="71.42" y2="-82.96"></line><line class="link fake transparent" x1="49.74" y1="-72.24" x2="93.24" y2="-94.17"></line><line class="link fake transparent" x1="47.39" y1="-86.95" x2="71.42" y2="-82.96"></line><line class="link fake transparent" x1="47.39" y1="-86.95" x2="95.46" y2="-79.22"></line><line class="link fake transparent" x1="54.21" y1="-100.44" x2="71.42" y2="-82.96"></line><line class="link fake transparent" x1="54.21" y1="-100.44" x2="88.60" y2="-65.98"></line><line class="link fake transparent" x1="67.74" y1="-106.95" x2="71.42" y2="-82.96"></line><line class="link fake transparent" x1="67.74" y1="-106.95" x2="75.05" y2="-58.71"></line><line class="link fake transparent" x1="82.48" y1="-104.62" x2="71.42" y2="-82.96"></line><line class="link fake transparent" x1="82.48" y1="-104.62" x2="60.31" y2="-61.17"></line><line class="link fake transparent" x1="93.24" y1="-94.17" x2="71.42" y2="-82.96"></line><line class="link fake transparent" x1="93.24" y1="-94.17" x2="49.74" y2="-72.24"></line><line class="link fake transparent" x1="95.46" y1="-79.22" x2="71.42" y2="-82.96"></line><line class="link fake transparent" x1="95.46" y1="-79.22" x2="47.39" y2="-86.95"></line><line class="link fake transparent" x1="88.60" y1="-65.98" x2="71.42" y2="-82.96"></line><line class="link fake transparent" x1="88.60" y1="-65.98" x2="54.21" y2="-100.44"></line><line class="link fake transparent" x1="75.05" y1="-58.71" x2="71.42" y2="-82.96"></line><line class="link fake transparent" x1="75.05" y1="-58.71" x2="67.74" y2="-106.95"></line><line class="link fake transparent" x1="45.12" y1="111.82" x2="57.66" y2="99.32"></line><line class="link fake transparent" x1="45.12" y1="111.82" x2="63.84" y2="82.79"></line><line class="link fake transparent" x1="40.38" y1="96.97" x2="57.66" y2="99.32"></line><line class="link fake transparent" x1="40.38" y1="96.97" x2="74.46" y2="93.95"></line><line class="link fake transparent" x1="48.91" y1="83.96" x2="57.66" y2="99.32"></line><line class="link fake transparent" x1="48.91" y1="83.96" x2="72.44" y2="108.92"></line><line class="link fake transparent" x1="63.84" y1="82.79" x2="57.66" y2="99.32"></line><line class="link fake transparent" x1="63.84" y1="82.79" x2="59.20" y2="116.90"></line><line class="link fake transparent" x1="74.46" y1="93.95" x2="57.66" y2="99.32"></line><line class="link fake transparent" x1="74.46" y1="93.95" x2="45.12" y2="111.82"></line><line class="link fake transparent" x1="72.44" y1="108.92" x2="57.66" y2="99.32"></line><line class="link fake transparent" x1="72.44" y1="108.92" x2="40.38" y2="96.97"></line><line class="link fake transparent" x1="59.20" y1="116.90" x2="57.66" y2="99.32"></line><line class="link fake transparent" x1="59.20" y1="116.90" x2="48.91" y2="83.96"></line></g><g><g class="noselect gnode" struct_name="m" transform="translate(8.94,328.40)" r="6.5"><circle class="node" r="6" node_type="nucleotide" style="fill: lightsalmon;"></circle><text text-anchor="middle" font-size="8" font-weight="bold" y="2.5" class="node-label">A</text></g><g class="noselect gnode" struct_name="m" transform="translate(-3.75,320.37)" r="6.5"><circle class="node" r="6" node_type="nucleotide" style="fill: lightsalmon;"></circle><text text-anchor="middle" font-size="8" font-weight="bold" y="2.5" class="node-label">A</text></g><g class="noselect gnode" struct_name="m" transform="translate(-8.29,305.94)" r="6.5"><circle class="node" r="6" node_type="nucleotide" style="fill: lightsalmon;"></circle><text text-anchor="middle" font-size="8" font-weight="bold" y="2.5" class="node-label">U</text></g><g class="noselect gnode" struct_name="m" transform="translate(-2.49,292.11)" r="6.5"><circle class="node" r="6" node_type="nucleotide" style="fill: lightsalmon;"></circle><text text-anchor="middle" font-size="8" font-weight="bold" y="2.5" class="node-label">C</text></g><g class="noselect gnode" struct_name="m" transform="translate(10.94,284.64)" r="6.5"><circle class="node" r="6" node_type="nucleotide" style="fill: lightgreen;"></circle><text text-anchor="middle" font-size="8" font-weight="bold" y="2.5" class="node-label">U</text></g><g class="noselect gnode" struct_name="m" transform="translate(14.41,269.27)" r="6.5"><circle class="node" r="6" node_type="nucleotide" style="fill: lightgreen;"></circle><text text-anchor="middle" font-size="8" font-weight="bold" y="2.5" class="node-label">G</text></g><g class="noselect gnode" struct_name="m" transform="translate(17.72,253.76)" r="6.5"><circle class="node" r="6" node_type="nucleotide" style="fill: lightgreen;"></circle><text text-anchor="middle" font-size="8" font-weight="bold" y="2.5" class="node-label">C</text></g><g class="noselect gnode" struct_name="m" transform="translate(20.81,238.22)" r="6.5"><circle class="node" r="6" node_type="nucleotide" style="fill: lightgreen;"></circle><text text-anchor="middle" font-size="8" font-weight="bold" y="2.5" class="node-label">C</text></g><g class="noselect gnode" struct_name="m" transform="translate(23.56,222.63)" r="6.5"><circle class="node" r="6" node_type="nucleotide" style="fill: lightgreen;"></circle><text text-anchor="middle" font-size="8" font-weight="bold" y="2.5" class="node-label">A</text></g><g class="noselect gnode" struct_name="m" transform="translate(25.91,206.93)" r="6.5"><circle class="node" r="6" node_type="nucleotide" style="fill: lightgreen;"></circle><text text-anchor="middle" font-size="8" font-weight="bold" y="2.5" class="node-label">U</text></g><g class="noselect gnode" struct_name="m" transform="translate(28.01,191.16)" r="6.5"><circle class="node" r="6" node_type="nucleotide" style="fill: lightgreen;"></circle><text text-anchor="middle" font-size="8" font-weight="bold" y="2.5" class="node-label">G</text></g><g class="noselect gnode" struct_name="m" transform="translate(30.15,175.22)" r="6.5"><circle class="node" r="6" node_type="nucleotide" style="fill: lightgreen;"></circle><text text-anchor="middle" font-size="8" font-weight="bold" y="2.5" class="node-label">U</text></g><g class="noselect gnode" struct_name="m" transform="translate(32.72,159.14)" r="6.5"><circle class="node" r="6" node_type="nucleotide" style="fill: lightgreen;"></circle><text text-anchor="middle" font-size="8" font-weight="bold" y="2.5" class="node-label">A</text></g><g class="noselect gnode" struct_name="m" transform="translate(35.98,143.10)" r="6.5"><circle class="node" r="6" node_type="nucleotide" style="fill: lightgreen;"></circle><text text-anchor="middle" font-size="8" font-weight="bold" y="2.5" class="node-label">U</text></g><g class="noselect gnode" struct_name="m" transform="translate(40.22,127.32)" r="6.5"><circle class="node" r="6" node_type="nucleotide" style="fill: lightgreen;"></circle><text text-anchor="middle" font-size="8" font-weight="bold" y="2.5" class="node-label">U</text></g><g class="noselect gnode" struct_name="m" transform="translate(45.12,111.82)" r="6.5"><circle class="node" r="6" node_type="nucleotide" style="fill: lightgreen;"></circle><text text-anchor="middle" font-size="8" font-weight="bold" y="2.5" class="node-label">G</text></g><g class="noselect gnode" struct_name="m" transform="translate(40.38,96.97)" r="6.5"><circle class="node" r="6" node_type="nucleotide" style="fill: rgb(219, 219, 141);"></circle><text text-anchor="middle" font-size="8" font-weight="bold" y="2.5" class="node-label">A</text></g><g class="noselect gnode" struct_name="m" transform="translate(48.91,83.96)" r="6.5"><circle class="node" r="6" node_type="nucleotide" style="fill: lightgreen;"></circle><text text-anchor="middle" font-size="8" font-weight="bold" y="2.5" class="node-label">C</text></g><g class="noselect gnode" struct_name="m" transform="translate(48.29,67.79)" r="6.5"><circle class="node" r="6" node_type="nucleotide" style="fill: lightgreen;"></circle><text text-anchor="middle" font-size="8" font-weight="bold" y="2.5" class="node-label">C</text></g><g class="noselect gnode" struct_name="m" transform="translate(48.01,51.50)" r="6.5"><circle class="node" r="6" node_type="nucleotide" style="fill: lightgreen;"></circle><text text-anchor="middle" font-size="8" font-weight="bold" y="2.5" class="node-label">G</text></g><g class="noselect gnode" struct_name="m" transform="translate(48.22,35.22)" r="6.5"><circle class="node" r="6" node_type="nucleotide" style="fill: lightgreen;"></circle><text text-anchor="middle" font-size="8" font-weight="bold" y="2.5" class="node-label">G</text></g><g class="noselect gnode" struct_name="m" transform="translate(48.97,18.96)" r="6.5"><circle class="node" r="6" node_type="nucleotide" style="fill: lightgreen;"></circle><text text-anchor="middle" font-size="8" font-weight="bold" y="2.5" class="node-label">A</text></g><g class="noselect gnode" struct_name="m" transform="translate(50.38,2.63)" r="6.5"><circle class="node" r="6" node_type="nucleotide" style="fill: lightgreen;"></circle><text text-anchor="middle" font-size="8" font-weight="bold" y="2.5" class="node-label">G</text></g><g class="noselect gnode" struct_name="m" transform="translate(52.46,-13.64)" r="6.5"><circle class="node" r="6" node_type="nucleotide" style="fill: lightgreen;"></circle><text text-anchor="middle" font-size="8" font-weight="bold" y="2.5" class="node-label">G</text></g><g class="noselect gnode" struct_name="m" transform="translate(55.00,-29.75)" r="6.5"><circle class="node" r="6" node_type="nucleotide" style="fill: lightgreen;"></circle><text text-anchor="middle" font-size="8" font-weight="bold" y="2.5" class="node-label">A</text></g><g class="noselect gnode" struct_name="m" transform="translate(57.79,-45.62)" r="6.5"><circle class="node" r="6" node_type="nucleotide" style="fill: lightgreen;"></circle><text text-anchor="middle" font-size="8" font-weight="bold" y="2.5" class="node-label">A</text></g><g class="noselect gnode" struct_name="m" transform="translate(60.31,-61.17)" r="6.5"><circle class="node" r="6" node_type="nucleotide" style="fill: lightgreen;"></circle><text text-anchor="middle" font-size="8" font-weight="bold" y="2.5" class="node-label">C</text></g><g class="noselect gnode" struct_name="m" transform="translate(49.74,-72.24)" r="6.5"><circle class="node" r="6" node_type="nucleotide" style="fill: lightblue;"></circle><text text-anchor="middle" font-size="8" font-weight="bold" y="2.5" class="node-label">G</text></g><g class="noselect gnode" struct_name="m" transform="translate(47.39,-86.95)" r="6.5"><circle class="node" r="6" node_type="nucleotide" style="fill: lightblue;"></circle><text text-anchor="middle" font-size="8" font-weight="bold" y="2.5" class="node-label">U</text></g><g class="noselect gnode" struct_name="m" transform="translate(54.21,-100.44)" r="6.5"><circle class="node" r="6" node_type="nucleotide" style="fill: lightblue;"></circle><text text-anchor="middle" font-size="8" font-weight="bold" y="2.5" class="node-label">U</text></g><g class="noselect gnode" struct_name="m" transform="translate(67.74,-106.95)" r="6.5"><circle class="node" r="6" node_type="nucleotide" style="fill: lightblue;"></circle><text text-anchor="middle" font-size="8" font-weight="bold" y="2.5" class="node-label">C</text></g><g class="noselect gnode" struct_name="m" transform="translate(82.48,-104.62)" r="6.5"><circle class="node" r="6" node_type="nucleotide" style="fill: lightblue;"></circle><text text-anchor="middle" font-size="8" font-weight="bold" y="2.5" class="node-label">A</text></g><g class="noselect gnode" struct_name="m" transform="translate(93.24,-94.17)" r="6.5"><circle class="node" r="6" node_type="nucleotide" style="fill: lightblue;"></circle><text text-anchor="middle" font-size="8" font-weight="bold" y="2.5" class="node-label">U</text></g><g class="noselect gnode" struct_name="m" transform="translate(95.46,-79.22)" r="6.5"><circle class="node" r="6" node_type="nucleotide" style="fill: lightblue;"></circle><text text-anchor="middle" font-size="8" font-weight="bold" y="2.5" class="node-label">U</text></g><g class="noselect gnode" struct_name="m" transform="translate(88.60,-65.98)" r="6.5"><circle class="node" r="6" node_type="nucleotide" style="fill: lightblue;"></circle><text text-anchor="middle" font-size="8" font-weight="bold" y="2.5" class="node-label">G</text></g><g class="noselect gnode" struct_name="m" transform="translate(75.05,-58.71)" r="6.5"><circle class="node" r="6" node_type="nucleotide" style="fill: lightgreen;"></circle><text text-anchor="middle" font-size="8" font-weight="bold" y="2.5" class="node-label">G</text></g><g class="noselect gnode" struct_name="m" transform="translate(72.14,-43.08)" r="6.5"><circle class="node" r="6" node_type="nucleotide" style="fill: lightgreen;"></circle><text text-anchor="middle" font-size="8" font-weight="bold" y="2.5" class="node-label">U</text></g><g class="noselect gnode" struct_name="m" transform="translate(69.36,-27.34)" r="6.5"><circle class="node" r="6" node_type="nucleotide" style="fill: lightgreen;"></circle><text text-anchor="middle" font-size="8" font-weight="bold" y="2.5" class="node-label">U</text></g><g class="noselect gnode" struct_name="m" transform="translate(66.83,-11.59)" r="6.5"><circle class="node" r="6" node_type="nucleotide" style="fill: lightgreen;"></circle><text text-anchor="middle" font-size="8" font-weight="bold" y="2.5" class="node-label">C</text></g><g class="noselect gnode" struct_name="m" transform="translate(64.85,4.17)" r="6.5"><circle class="node" r="6" node_type="nucleotide" style="fill: lightgreen;"></circle><text text-anchor="middle" font-size="8" font-weight="bold" y="2.5" class="node-label">U</text></g><g class="noselect gnode" struct_name="m" transform="translate(63.51,19.92)" r="6.5"><circle class="node" r="6" node_type="nucleotide" style="fill: lightgreen;"></circle><text text-anchor="middle" font-size="8" font-weight="bold" y="2.5" class="node-label">U</text></g><g class="noselect gnode" struct_name="m" transform="translate(62.80,35.65)" r="6.5"><circle class="node" r="6" node_type="nucleotide" style="fill: lightgreen;"></circle><text text-anchor="middle" font-size="8" font-weight="bold" y="2.5" class="node-label">C</text></g><g class="noselect gnode" struct_name="m" transform="translate(62.60,51.49)" r="6.5"><circle class="node" r="6" node_type="nucleotide" style="fill: lightgreen;"></circle><text text-anchor="middle" font-size="8" font-weight="bold" y="2.5" class="node-label">C</text></g><g class="noselect gnode" struct_name="m" transform="translate(62.84,67.31)" r="6.5"><circle class="node" r="6" node_type="nucleotide" style="fill: lightgreen;"></circle><text text-anchor="middle" font-size="8" font-weight="bold" y="2.5" class="node-label">G</text></g><g class="noselect gnode" struct_name="m" transform="translate(63.84,82.79)" r="6.5"><circle class="node" r="6" node_type="nucleotide" style="fill: lightgreen;"></circle><text text-anchor="middle" font-size="8" font-weight="bold" y="2.5" class="node-label">G</text></g><g class="noselect gnode" struct_name="m" transform="translate(74.46,93.95)" r="6.5"><circle class="node" r="6" node_type="nucleotide" style="fill: rgb(219, 219, 141);"></circle><text text-anchor="middle" font-size="8" font-weight="bold" y="2.5" class="node-label">G</text></g><g class="noselect gnode" struct_name="m" transform="translate(72.44,108.92)" r="6.5"><circle class="node" r="6" node_type="nucleotide" style="fill: rgb(219, 219, 141);"></circle><text text-anchor="middle" font-size="8" font-weight="bold" y="2.5" class="node-label">G</text></g><g class="noselect gnode" struct_name="m" transform="translate(59.20,116.90)" r="6.5"><circle class="node" r="6" node_type="nucleotide" style="fill: lightgreen;"></circle><text text-anchor="middle" font-size="8" font-weight="bold" y="2.5" class="node-label">C</text></g><g class="noselect gnode" struct_name="m" transform="translate(54.22,131.49)" r="6.5"><circle class="node" r="6" node_type="nucleotide" style="fill: lightgreen;"></circle><text text-anchor="middle" font-size="8" font-weight="bold" y="2.5" class="node-label">A</text></g><g class="noselect gnode" struct_name="m" transform="translate(50.25,146.46)" r="6.5"><circle class="node" r="6" node_type="nucleotide" style="fill: lightgreen;"></circle><text text-anchor="middle" font-size="8" font-weight="bold" y="2.5" class="node-label">A</text></g><g class="noselect gnode" struct_name="m" transform="translate(47.07,161.74)" r="6.5"><circle class="node" r="6" node_type="nucleotide" style="fill: lightgreen;"></circle><text text-anchor="middle" font-size="8" font-weight="bold" y="2.5" class="node-label">U</text></g><g class="noselect gnode" struct_name="m" transform="translate(44.61,177.32)" r="6.5"><circle class="node" r="6" node_type="nucleotide" style="fill: lightgreen;"></circle><text text-anchor="middle" font-size="8" font-weight="bold" y="2.5" class="node-label">A</text></g><g class="noselect gnode" struct_name="m" transform="translate(42.50,193.07)" r="6.5"><circle class="node" r="6" node_type="nucleotide" style="fill: lightgreen;"></circle><text text-anchor="middle" font-size="8" font-weight="bold" y="2.5" class="node-label">C</text></g><g class="noselect gnode" struct_name="m" transform="translate(40.39,208.97)" r="6.5"><circle class="node" r="6" node_type="nucleotide" style="fill: lightgreen;"></circle><text text-anchor="middle" font-size="8" font-weight="bold" y="2.5" class="node-label">A</text></g><g class="noselect gnode" struct_name="m" transform="translate(37.95,224.97)" r="6.5"><circle class="node" r="6" node_type="nucleotide" style="fill: lightgreen;"></circle><text text-anchor="middle" font-size="8" font-weight="bold" y="2.5" class="node-label">U</text></g><g class="noselect gnode" struct_name="m" transform="translate(35.17,240.93)" r="6.5"><circle class="node" r="6" node_type="nucleotide" style="fill: lightgreen;"></circle><text text-anchor="middle" font-size="8" font-weight="bold" y="2.5" class="node-label">G</text></g><g class="noselect gnode" struct_name="m" transform="translate(32.06,256.70)" r="6.5"><circle class="node" r="6" node_type="nucleotide" style="fill: lightgreen;"></circle><text text-anchor="middle" font-size="8" font-weight="bold" y="2.5" class="node-label">G</text></g><g class="noselect gnode" struct_name="m" transform="translate(28.74,272.35)" r="6.5"><circle class="node" r="6" node_type="nucleotide" style="fill: lightgreen;"></circle><text text-anchor="middle" font-size="8" font-weight="bold" y="2.5" class="node-label">C</text></g><g class="noselect gnode" struct_name="m" transform="translate(25.60,287.69)" r="6.5"><circle class="node" r="6" node_type="nucleotide" style="fill: lightgreen;"></circle><text text-anchor="middle" font-size="8" font-weight="bold" y="2.5" class="node-label">A</text></g><g class="noselect gnode" struct_name="m" transform="translate(35.00,299.72)" r="6.5"><circle class="node" r="6" node_type="nucleotide" style="fill: lightsalmon;"></circle><text text-anchor="middle" font-size="8" font-weight="bold" y="2.5" class="node-label">U</text></g><g class="noselect gnode" struct_name="m" transform="translate(10.87,202.76)" r="6.5"><circle class="node label" r="6" node_type="label"></circle><text text-anchor="middle" font-size="8" font-weight="bold" y="2.5" class="node-label">10</text></g><g class="noselect gnode" struct_name="m" transform="translate(32.39,51.21)" r="6.5"><circle class="node label" r="6" node_type="label"></circle><text text-anchor="middle" font-size="8" font-weight="bold" y="2.5" class="node-label">20</text></g><g class="noselect gnode" struct_name="m" transform="translate(43.10,-111.16)" r="6.5"><circle class="node label" r="6" node_type="label"></circle><text text-anchor="middle" font-size="8" font-weight="bold" y="2.5" class="node-label">30</text></g><g class="noselect gnode" struct_name="m" transform="translate(80.18,7.05)" r="6.5"><circle class="node label" r="6" node_type="label"></circle><text text-anchor="middle" font-size="8" font-weight="bold" y="2.5" class="node-label">40</text></g><g class="noselect gnode" struct_name="m" transform="translate(65.80,147.64)" r="6.5"><circle class="node label" r="6" node_type="label"></circle><text text-anchor="middle" font-size="8" font-weight="bold" y="2.5" class="node-label">50</text></g><g class="noselect gnode" struct_name="m" transform="translate(49.96,303.79)" r="6.5"><circle class="node label" r="6" node_type="label"></circle><text text-anchor="middle" font-size="8" font-weight="bold" y="2.5" class="node-label">60</text></g><g class="noselect gnode" transform="translate(19.89,278.58)" r="6.5"><circle class="node" r="0" node_type="middle"></circle><text text-anchor="middle" font-size="8" font-weight="bold" y="2.5" class="node-label"></text></g><g class="noselect gnode" transform="translate(23.27,263.05)" r="6.5"><circle class="node" r="0" node_type="middle"></circle><text text-anchor="middle" font-size="8" font-weight="bold" y="2.5" class="node-label"></text></g><g class="noselect gnode" transform="translate(26.50,247.44)" r="6.5"><circle class="node" r="0" node_type="middle"></circle><text text-anchor="middle" font-size="8" font-weight="bold" y="2.5" class="node-label"></text></g><g class="noselect gnode" transform="translate(29.48,231.73)" r="6.5"><circle class="node" r="0" node_type="middle"></circle><text text-anchor="middle" font-size="8" font-weight="bold" y="2.5" class="node-label"></text></g><g class="noselect gnode" transform="translate(32.05,215.89)" r="6.5"><circle class="node" r="0" node_type="middle"></circle><text text-anchor="middle" font-size="8" font-weight="bold" y="2.5" class="node-label"></text></g><g class="noselect gnode" transform="translate(34.26,200.01)" r="6.5"><circle class="node" r="0" node_type="middle"></circle><text text-anchor="middle" font-size="8" font-weight="bold" y="2.5" class="node-label"></text></g><g class="noselect gnode" transform="translate(36.26,184.19)" r="6.5"><circle class="node" r="0" node_type="middle"></circle><text text-anchor="middle" font-size="8" font-weight="bold" y="2.5" class="node-label"></text></g><g class="noselect gnode" transform="translate(38.48,168.33)" r="6.5"><circle class="node" r="0" node_type="middle"></circle><text text-anchor="middle" font-size="8" font-weight="bold" y="2.5" class="node-label"></text></g><g class="noselect gnode" transform="translate(41.27,152.54)" r="6.5"><circle class="node" r="0" node_type="middle"></circle><text text-anchor="middle" font-size="8" font-weight="bold" y="2.5" class="node-label"></text></g><g class="noselect gnode" transform="translate(44.91,137.02)" r="6.5"><circle class="node" r="0" node_type="middle"></circle><text text-anchor="middle" font-size="8" font-weight="bold" y="2.5" class="node-label"></text></g><g class="noselect gnode" transform="translate(49.52,121.74)" r="6.5"><circle class="node" r="0" node_type="middle"></circle><text text-anchor="middle" font-size="8" font-weight="bold" y="2.5" class="node-label"></text></g><g class="noselect gnode" transform="translate(55.82,75.60)" r="6.5"><circle class="node" r="0" node_type="middle"></circle><text text-anchor="middle" font-size="8" font-weight="bold" y="2.5" class="node-label"></text></g><g class="noselect gnode" transform="translate(55.32,59.54)" r="6.5"><circle class="node" r="0" node_type="middle"></circle><text text-anchor="middle" font-size="8" font-weight="bold" y="2.5" class="node-label"></text></g><g class="noselect gnode" transform="translate(55.29,43.46)" r="6.5"><circle class="node" r="0" node_type="middle"></circle><text text-anchor="middle" font-size="8" font-weight="bold" y="2.5" class="node-label"></text></g><g class="noselect gnode" transform="translate(55.72,27.41)" r="6.5"><circle class="node" r="0" node_type="middle"></circle><text text-anchor="middle" font-size="8" font-weight="bold" y="2.5" class="node-label"></text></g><g class="noselect gnode" transform="translate(56.74,11.42)" r="6.5"><circle class="node" r="0" node_type="middle"></circle><text text-anchor="middle" font-size="8" font-weight="bold" y="2.5" class="node-label"></text></g><g class="noselect gnode" transform="translate(58.45,-4.63)" r="6.5"><circle class="node" r="0" node_type="middle"></circle><text text-anchor="middle" font-size="8" font-weight="bold" y="2.5" class="node-label"></text></g><g class="noselect gnode" transform="translate(60.80,-20.61)" r="6.5"><circle class="node" r="0" node_type="middle"></circle><text text-anchor="middle" font-size="8" font-weight="bold" y="2.5" class="node-label"></text></g><g class="noselect gnode" transform="translate(63.53,-36.46)" r="6.5"><circle class="node" r="0" node_type="middle"></circle><text text-anchor="middle" font-size="8" font-weight="bold" y="2.5" class="node-label"></text></g><g class="noselect gnode" transform="translate(66.38,-52.23)" r="6.5"><circle class="node" r="0" node_type="middle"></circle><text text-anchor="middle" font-size="8" font-weight="bold" y="2.5" class="node-label"></text></g><g class="noselect gnode" transform="translate(35.68,314.27)" r="6.5"><circle class="node" r="0" node_type="middle"></circle><text text-anchor="middle" font-size="8" font-weight="bold" y="2.5" class="node-label"></text></g><g class="noselect gnode" transform="translate(25.81,326.39)" r="6.5"><circle class="node" r="0" node_type="middle"></circle><text text-anchor="middle" font-size="8" font-weight="bold" y="2.5" class="node-label"></text></g><g class="noselect gnode" transform="translate(13.84,306.55)" r="6.5"><circle class="node" r="0" node_type="middle"></circle><text text-anchor="middle" font-size="8" font-weight="bold" y="2.5" class="node-label"></text></g><g class="noselect gnode" transform="translate(71.42,-82.96)" r="6.5"><circle class="node" r="0" node_type="middle"></circle><text text-anchor="middle" font-size="8" font-weight="bold" y="2.5" class="node-label"></text></g><g class="noselect gnode" transform="translate(57.66,99.32)" r="6.5"><circle class="node" r="0" node_type="middle"></circle><text text-anchor="middle" font-size="8" font-weight="bold" y="2.5" class="node-label"></text></g></g><line class="drag_line" x1="0" y1="0" x2="0" y2="0"></line></g></g></svg>