<svg xmlns="http://www.w3.org/2000/svg" viewBox="0 0 760 640" width="760" height="640"><style>svg {
  display: block;
  min-width: 100%;
  width: 100%;
  min-height: 100%;
}

circle.node {
  stroke: #ccc;
  stroke-width: 1px;
  opacity: 1;
  fill: white;
}

circle.node.label {
    stroke: transparent;
    stroke-width: 0;
    fill: white;
}

circle.outline_node {
    stroke-width: 1px;
    fill: red;
}

circle.protein {
    fill: gray;
    fill-opacity: 0.5;
    stroke-width: 4;
}

circle.hidden_outline {
    stroke-width: 0px;
}


line.link {
  stroke: #999;
  stroke-opacity: 0.8;
  stroke-width: 2;
}

line.basepair {
  stroke: red;
}

line.intermolecule {
  stroke: blue;
}

line.chain_chain {
  stroke-dasharray: 3,3;
}

line.fake {
  stroke: green;
}

.transparent {
    fill: transparent;
    stroke-width: 0;
    stroke-opacity: 0;
    opacity: 0;
    visibility: hidden;
}

.drag_line {
  stroke: #999;
  stroke-width: 2;
  pointer-events: none;
}

.drag_line_hidden {
  stroke: #999;
  stroke-width: 0;
  pointer-events: none;
}

.d3-tip {
    line-height: 1;
    font-weight: bold;
    padding: 6px;
    background: rgba(0, 0, 0, 0.6);
    color: #fff;
    border-radius: 4px;
    pointer-events: none;
          }

text.node-label {
    font-weight: bold;
    font-family: Tahoma, Geneva, sans-serif;
    color: rgb(100,100,100);
    pointer-events: none;
}

text {
    pointer-events: none;
}

g.gnode {

}

circle.outline_node.selected {
    visibility: visible;
}

circle.outline_node {
    visibility: hidden;
}

.brush .extent {
  fill-opacity: .1;
  stroke: #fff;
  shape-rendering: crispEdges;
}

.noselect {
    -webkit-touch-callout: none;
    -webkit-user-select: none;
    -khtml-user-select: none;
    -moz-user-select: none;
    -ms-user-select: none;
    user-select: none;
}

svg {
  display: block;
  min-width: 100%;
  width: 100%;
  min-height: 100%;
}

circle.node {
  stroke: #ccc;
  stroke-width: 1px;
  opacity: 1;
  fill: white;
}

circle.node.label {
    stroke: transparent;
    stroke-width: 0;
    fill: white;
}

circle.outline_node {
    stroke-width: 1px;
    fill: red;
}

circle.protein {
    fill: gray;
    fill-opacity: 0.5;
    stroke-width: 4;
}

circle.hidden_outline {
    stroke-width: 0px;
}


line.link {
  stroke: #999;
  stroke-opacity: 0.8;
  stroke-width: 2;
}

line.basepair {
  stroke: red;
}

line.intermolecule {
  stroke: blue;
}

line.chain_chain {
  stroke-dasharray: 3,3;
}

line.fake {
  stroke: green;
}

.transparent {
    fill: transparent;
    stroke-width: 0;
    stroke-opacity: 0;
    opacity: 0;
    visibility: hidden;
}

.drag_line {
  stroke: #999;
  stroke-width: 2;
  pointer-events: none;
}

.drag_line_hidden {
  stroke: #999;
  stroke-width: 0;
  pointer-events: none;
}

.d3-tip {
    line-height: 1;
    font-weight: bold;
    padding: 6px;
    background: rgba(0, 0, 0, 0.6);
    color: #fff;
    border-radius: 4px;
    pointer-events: none;
          }

text.node-label {
    font-weight: bold;
    font-family: Tahoma, Geneva, sans-serif;
    color: rgb(100,100,100);
    pointer-events: none;
}

text {
    pointer-events: none;
}

g.gnode {

}

circle.outline_node.selected {
    visibility: visible;
}

circle.outline_node {
    visibility: hidden;
}

.brush .extent {
  fill-opacity: .1;
  stroke: #fff;
  shape-rendering: crispEdges;
}

.noselect {
    -webkit-touch-callout: none;
    -webkit-user-select: none;
    -khtml-user-select: none;
    -moz-user-select: none;
    -ms-user-select: none;
    user-select: none;
}
/*# sourceURL=/Users/yumanakamura/ipy_sandbox/sandbox/claude_sandbox/mrna-transformer-worktrees/feat-issue57-switch-derna-knotty/scripts/eval/prerender/forna_vendor/fornac.css*/</style><style></style><g><g class="brush" style="pointer-events: all; -webkit-tap-highlight-color: rgba(0, 0, 0, 0);"><rect class="background" x="0" width="760" y="0" height="640" style="visibility: hidden; cursor: auto;"></rect><rect class="extent" x="0" width="0" y="0" height="0" style="cursor: move;"></rect><g class="resize n" transform="translate(0,0)" style="cursor: ns-resize; display: none;"><rect y="-3" width="0" height="6" style="visibility: hidden;"></rect></g><g class="resize e" transform="translate(0,0)" style="cursor: ew-resize; display: none;"><rect x="-3" width="6" height="0" style="visibility: hidden;"></rect></g><g class="resize s" transform="translate(0,0)" style="cursor: ns-resize; display: none;"><rect y="-3" width="0" height="6" style="visibility: hidden;"></rect></g><g class="resize w" transform="translate(0,0)" style="cursor: ew-resize; display: none;"><rect x="-3" width="6" height="0" style="visibility: hidden;"></rect></g><g class="resize nw" transform="translate(0,0)" style="cursor: nwse-resize; display: none;"><rect x="-3" y="-3" width="6" height="6" style="visibility: hidden;"></rect></g><g class="resize ne" transform="translate(0,0)" style="cursor: nesw-resize; display: none;"><rect x="-3" y="-3" width="6" height="6" style="visibility: hidden;"></rect></g><g class="resize se" transform="translate(0,0)" style="cursor: nwse-resize; display: none;"><rect x="-3" y="-3" width="6" height="6" style="visibility: hidden;"></rect></g><g class="resize sw" transform="translate(0,0)" style="cursor: nesw-resize; display: none;"><rect x="-3" y="-3" width="6" height="6" style="visibility: hidden;"></rect></g></g><g transform="translate(90.48,178.17) scale(1.78)"><g><line class="link backbone" x1="103.61" y1="195.17" x2="97.51" y2="208.75"></line><line class="link backbone" x1="97.51" y1="208.75" x2="87.56" y2="219.81"></line><line class="link backbone" x1="87.56" y1="219.81" x2="74.69" y2="227.27"></line><line class="link backbone" x1="74.69" y1="227.27" x2="60.21" y2="230.41"></line><line class="link backbone" x1="60.21" y1="230.41" x2="45.38" y2="229.00"></line><line class="link backbone" x1="45.38" y1="229.00" x2="31.93" y2="222.65"></line><line class="link backbone" x1="31.93" y1="222.65" x2="20.53" y2="213.14"></line><line class="link backbone" x1="20.53" y1="213.14" x2="12.57" y2="200.52"></line><line class="link backbone" x1="12.57" y1="200.52" x2="9.27" y2="185.95"></line><line class="link backbone" x1="9.27" y1="185.95" x2="10.53" y2="171.11"></line><line class="link backbone" x1="10.53" y1="171.11" x2="16.27" y2="157.32"></line><line class="link backbone" x1="16.27" y1="157.32" x2="25.97" y2="145.97"></line><line class="link backbone" x1="25.97" y1="145.97" x2="38.69" y2="138.11"></line><line class="link backbone" x1="38.69" y1="138.11" x2="53.36" y2="134.61"></line><line class="link backbone" x1="53.36" y1="134.61" x2="68.29" y2="135.77"></line><line class="link basepair" x1="82.80" y1="140.97" x2="93.78" y2="151.07"></line><line class="link backbone" x1="68.29" y1="135.77" x2="82.80" y2="140.97"></line><line class="link basepair" x1="94.64" y1="129.51" x2="104.53" y2="140.15"></line><line class="link backbone" x1="82.80" y1="140.97" x2="94.64" y2="129.51"></line><line class="link basepair" x1="106.76" y1="118.68" x2="116.36" y2="129.92"></line><line class="link backbone" x1="94.64" y1="129.51" x2="106.76" y2="118.68"></line><line class="link backbone" x1="106.76" y1="118.68" x2="111.92" y2="104.26"></line><line class="link basepair" x1="126.96" y1="101.56" x2="136.57" y2="112.93"></line><line class="link backbone" x1="111.92" y1="104.26" x2="126.96" y2="101.56"></line><line class="link backbone" x1="126.96" y1="101.56" x2="132.08" y2="87.23"></line><line class="link basepair" x1="147.15" y1="84.53" x2="156.72" y2="95.78"></line><line class="link backbone" x1="132.08" y1="87.23" x2="147.15" y2="84.53"></line><line class="link basepair" x1="159.32" y1="74.25" x2="168.81" y2="85.30"></line><line class="link backbone" x1="147.15" y1="84.53" x2="159.32" y2="74.25"></line><line class="link basepair" x1="171.45" y1="63.77" x2="180.99" y2="74.78"></line><line class="link backbone" x1="159.32" y1="74.25" x2="171.45" y2="63.77"></line><line class="link basepair" x1="183.59" y1="53.23" x2="193.12" y2="64.28"></line><line class="link backbone" x1="171.45" y1="63.77" x2="183.59" y2="53.23"></line><line class="link basepair" x1="195.70" y1="42.77" x2="205.23" y2="53.86"></line><line class="link backbone" x1="183.59" y1="53.23" x2="195.70" y2="42.77"></line><line class="link basepair" x1="207.82" y1="32.38" x2="217.37" y2="43.42"></line><line class="link backbone" x1="195.70" y1="42.77" x2="207.82" y2="32.38"></line><line class="link basepair" x1="219.85" y1="21.90" x2="229.54" y2="32.79"></line><line class="link backbone" x1="207.82" y1="32.38" x2="219.85" y2="21.90"></line><line class="link basepair" x1="231.45" y1="11.23" x2="241.52" y2="22.05"></line><line class="link backbone" x1="219.85" y1="21.90" x2="231.45" y2="11.23"></line><line class="link backbone" x1="231.45" y1="11.23" x2="235.79" y2="-3.42"></line><line class="link basepair" x1="250.63" y1="-6.92" x2="260.85" y2="3.73"></line><line class="link backbone" x1="235.79" y1="-3.42" x2="250.63" y2="-6.92"></line><line class="link basepair" x1="262.00" y1="-17.94" x2="272.28" y2="-7.60"></line><line class="link backbone" x1="250.63" y1="-6.92" x2="262.00" y2="-17.94"></line><line class="link basepair" x1="273.16" y1="-29.26" x2="283.63" y2="-19.01"></line><line class="link backbone" x1="262.00" y1="-17.94" x2="273.16" y2="-29.26"></line><line class="link basepair" x1="284.22" y1="-40.62" x2="294.73" y2="-30.37"></line><line class="link backbone" x1="273.16" y1="-29.26" x2="284.22" y2="-40.62"></line><line class="link basepair" x1="295.07" y1="-51.96" x2="305.77" y2="-41.58"></line><line class="link backbone" x1="284.22" y1="-40.62" x2="295.07" y2="-51.96"></line><line class="link backbone" x1="295.07" y1="-51.96" x2="298.86" y2="-66.82"></line><line class="link backbone" x1="298.86" y1="-66.82" x2="313.27" y2="-70.85"></line><line class="link backbone" x1="313.27" y1="-70.85" x2="324.04" y2="-60.44"></line><line class="link backbone" x1="324.04" y1="-60.44" x2="320.53" y2="-45.87"></line><line class="link basepair" x1="305.77" y1="-41.58" x2="295.07" y2="-51.96"></line><line class="link backbone" x1="320.53" y1="-45.87" x2="305.77" y2="-41.58"></line><line class="link basepair" x1="294.73" y1="-30.37" x2="284.22" y2="-40.62"></line><line class="link backbone" x1="305.77" y1="-41.58" x2="294.73" y2="-30.37"></line><line class="link basepair" x1="283.63" y1="-19.01" x2="273.16" y2="-29.26"></line><line class="link backbone" x1="294.73" y1="-30.37" x2="283.63" y2="-19.01"></line><line class="link basepair" x1="272.28" y1="-7.60" x2="262.00" y2="-17.94"></line><line class="link backbone" x1="283.63" y1="-19.01" x2="272.28" y2="-7.60"></line><line class="link basepair" x1="260.85" y1="3.73" x2="250.63" y2="-6.92"></line><line class="link backbone" x1="272.28" y1="-7.60" x2="260.85" y2="3.73"></line><line class="link backbone" x1="260.85" y1="3.73" x2="256.50" y2="18.49"></line><line class="link basepair" x1="241.52" y1="22.05" x2="231.45" y2="11.23"></line><line class="link backbone" x1="256.50" y1="18.49" x2="241.52" y2="22.05"></line><line class="link basepair" x1="229.54" y1="32.79" x2="219.85" y2="21.90"></line><line class="link backbone" x1="241.52" y1="22.05" x2="229.54" y2="32.79"></line><line class="link basepair" x1="217.37" y1="43.42" x2="207.82" y2="32.38"></line><line class="link backbone" x1="229.54" y1="32.79" x2="217.37" y2="43.42"></line><line class="link basepair" x1="205.23" y1="53.86" x2="195.70" y2="42.77"></line><line class="link backbone" x1="217.37" y1="43.42" x2="205.23" y2="53.86"></line><line class="link basepair" x1="193.12" y1="64.28" x2="183.59" y2="53.23"></line><line class="link backbone" x1="205.23" y1="53.86" x2="193.12" y2="64.28"></line><line class="link basepair" x1="180.99" y1="74.78" x2="171.45" y2="63.77"></line><line class="link backbone" x1="193.12" y1="64.28" x2="180.99" y2="74.78"></line><line class="link basepair" x1="168.81" y1="85.30" x2="159.32" y2="74.25"></line><line class="link backbone" x1="180.99" y1="74.78" x2="168.81" y2="85.30"></line><line class="link basepair" x1="156.72" y1="95.78" x2="147.15" y2="84.53"></line><line class="link backbone" x1="168.81" y1="85.30" x2="156.72" y2="95.78"></line><line class="link backbone" x1="156.72" y1="95.78" x2="151.57" y2="110.24"></line><line class="link basepair" x1="136.57" y1="112.93" x2="126.96" y2="101.56"></line><line class="link backbone" x1="151.57" y1="110.24" x2="136.57" y2="112.93"></line><line class="link backbone" x1="136.57" y1="112.93" x2="131.39" y2="127.28"></line><line class="link basepair" x1="116.36" y1="129.92" x2="106.76" y2="118.68"></line><line class="link backbone" x1="131.39" y1="127.28" x2="116.36" y2="129.92"></line><line class="link basepair" x1="104.53" y1="140.15" x2="94.64" y2="129.51"></line><line class="link backbone" x1="116.36" y1="129.92" x2="104.53" y2="140.15"></line><line class="link basepair" x1="93.78" y1="151.07" x2="82.80" y2="140.97"></line><line class="link backbone" x1="104.53" y1="140.15" x2="93.78" y2="151.07"></line><line class="link label_link" x1="9.27" y1="185.95" x2="-6.06" y2="185.42"></line><line class="link label_link" x1="111.92" y1="104.26" x2="100.76" y2="93.44"></line><line class="link label_link" x1="231.45" y1="11.23" x2="219.01" y2="1.82"></line><line class="link label_link" x1="320.53" y1="-45.87" x2="335.36" y2="-41.50"></line><line class="link label_link" x1="205.23" y1="53.86" x2="215.44" y2="65.63"></line><line class="link label_link" x1="93.78" y1="151.07" x2="106.81" y2="159.36"></line><line class="link fake transparent" x1="147.15" y1="84.53" x2="158.00" y2="84.98"></line><line class="link fake transparent" x1="147.15" y1="84.53" x2="168.81" y2="85.30"></line><line class="link fake transparent" x1="159.32" y1="74.25" x2="158.00" y2="84.98"></line><line class="link fake transparent" x1="168.81" y1="85.30" x2="158.00" y2="84.98"></line><line class="link fake transparent" x1="156.72" y1="95.78" x2="158.00" y2="84.98"></line><line class="link fake transparent" x1="159.32" y1="74.25" x2="170.15" y2="74.54"></line><line class="link fake transparent" x1="171.45" y1="63.77" x2="170.15" y2="74.54"></line><line class="link fake transparent" x1="180.99" y1="74.78" x2="170.15" y2="74.54"></line><line class="link fake transparent" x1="168.81" y1="85.30" x2="170.15" y2="74.54"></line><line class="link fake transparent" x1="171.45" y1="63.77" x2="182.27" y2="64.00"></line><line class="link fake transparent" x1="183.59" y1="53.23" x2="182.27" y2="64.00"></line><line class="link fake transparent" x1="193.12" y1="64.28" x2="182.27" y2="64.00"></line><line class="link fake transparent" x1="180.99" y1="74.78" x2="182.27" y2="64.00"></line><line class="link fake transparent" x1="183.59" y1="53.23" x2="194.37" y2="53.53"></line><line class="link fake transparent" x1="195.70" y1="42.77" x2="194.37" y2="53.53"></line><line class="link fake transparent" x1="205.23" y1="53.86" x2="194.37" y2="53.53"></line><line class="link fake transparent" x1="193.12" y1="64.28" x2="194.37" y2="53.53"></line><line class="link fake transparent" x1="195.70" y1="42.77" x2="206.54" y2="43.09"></line><line class="link fake transparent" x1="207.82" y1="32.38" x2="206.54" y2="43.09"></line><line class="link fake transparent" x1="217.37" y1="43.42" x2="206.54" y2="43.09"></line><line class="link fake transparent" x1="205.23" y1="53.86" x2="206.54" y2="43.09"></line><line class="link fake transparent" x1="207.82" y1="32.38" x2="218.67" y2="32.67"></line><line class="link fake transparent" x1="219.85" y1="21.90" x2="218.67" y2="32.67"></line><line class="link fake transparent" x1="229.54" y1="32.79" x2="218.67" y2="32.67"></line><line class="link fake transparent" x1="217.37" y1="43.42" x2="218.67" y2="32.67"></line><line class="link fake transparent" x1="219.85" y1="21.90" x2="230.63" y2="22.09"></line><line class="link fake transparent" x1="231.45" y1="11.23" x2="230.63" y2="22.09"></line><line class="link fake transparent" x1="241.52" y1="22.05" x2="230.63" y2="22.09"></line><line class="link fake transparent" x1="229.54" y1="32.79" x2="230.63" y2="22.09"></line><line class="link fake transparent" x1="250.63" y1="-6.92" x2="261.48" y2="-7.13"></line><line class="link fake transparent" x1="262.00" y1="-17.94" x2="261.48" y2="-7.13"></line><line class="link fake transparent" x1="272.28" y1="-7.60" x2="261.48" y2="-7.13"></line><line class="link fake transparent" x1="260.85" y1="3.73" x2="261.48" y2="-7.13"></line><line class="link fake transparent" x1="262.00" y1="-17.94" x2="272.82" y2="-18.43"></line><line class="link fake transparent" x1="273.16" y1="-29.26" x2="272.82" y2="-18.43"></line><line class="link fake transparent" x1="283.63" y1="-19.01" x2="272.82" y2="-18.43"></line><line class="link fake transparent" x1="272.28" y1="-7.60" x2="272.82" y2="-18.43"></line><line class="link fake transparent" x1="273.16" y1="-29.26" x2="283.92" y2="-29.80"></line><line class="link fake transparent" x1="284.22" y1="-40.62" x2="283.92" y2="-29.80"></line><line class="link fake transparent" x1="294.73" y1="-30.37" x2="283.92" y2="-29.80"></line><line class="link fake transparent" x1="283.63" y1="-19.01" x2="283.92" y2="-29.80"></line><line class="link fake transparent" x1="284.22" y1="-40.62" x2="294.97" y2="-41.15"></line><line class="link fake transparent" x1="295.07" y1="-51.96" x2="294.97" y2="-41.15"></line><line class="link fake transparent" x1="305.77" y1="-41.58" x2="294.97" y2="-41.15"></line><line class="link fake transparent" x1="294.73" y1="-30.37" x2="294.97" y2="-41.15"></line><line class="link fake transparent" x1="82.80" y1="140.97" x2="93.62" y2="140.32"></line><line class="link fake transparent" x1="94.64" y1="129.51" x2="93.62" y2="140.32"></line><line class="link fake transparent" x1="104.53" y1="140.15" x2="93.62" y2="140.32"></line><line class="link fake transparent" x1="93.78" y1="151.07" x2="93.62" y2="140.32"></line><line class="link fake transparent" x1="94.64" y1="129.51" x2="105.45" y2="129.46"></line><line class="link fake transparent" x1="106.76" y1="118.68" x2="105.45" y2="129.46"></line><line class="link fake transparent" x1="116.36" y1="129.92" x2="105.45" y2="129.46"></line><line class="link fake transparent" x1="104.53" y1="140.15" x2="105.45" y2="129.46"></line><line class="link fake transparent" x1="103.61" y1="195.17" x2="57.35" y2="182.32"></line><line class="link fake transparent" x1="103.61" y1="195.17" x2="10.53" y2="171.11"></line><line class="link fake transparent" x1="97.51" y1="208.75" x2="57.35" y2="182.32"></line><line class="link fake transparent" x1="97.51" y1="208.75" x2="16.27" y2="157.32"></line><line class="link fake transparent" x1="87.56" y1="219.81" x2="57.35" y2="182.32"></line><line class="link fake transparent" x1="87.56" y1="219.81" x2="25.97" y2="145.97"></line><line class="link fake transparent" x1="74.69" y1="227.27" x2="57.35" y2="182.32"></line><line class="link fake transparent" x1="74.69" y1="227.27" x2="38.69" y2="138.11"></line><line class="link fake transparent" x1="60.21" y1="230.41" x2="57.35" y2="182.32"></line><line class="link fake transparent" x1="60.21" y1="230.41" x2="53.36" y2="134.61"></line><line class="link fake transparent" x1="45.38" y1="229.00" x2="57.35" y2="182.32"></line><line class="link fake transparent" x1="45.38" y1="229.00" x2="68.29" y2="135.77"></line><line class="link fake transparent" x1="31.93" y1="222.65" x2="57.35" y2="182.32"></line><line class="link fake transparent" x1="31.93" y1="222.65" x2="82.80" y2="140.97"></line><line class="link fake transparent" x1="20.53" y1="213.14" x2="57.35" y2="182.32"></line><line class="link fake transparent" x1="20.53" y1="213.14" x2="93.78" y2="151.07"></line><line class="link fake transparent" x1="12.57" y1="200.52" x2="57.35" y2="182.32"></line><line class="link fake transparent" x1="12.57" y1="200.52" x2="101.25" y2="164.71"></line><line class="link fake transparent" x1="9.27" y1="185.95" x2="57.35" y2="182.32"></line><line class="link fake transparent" x1="9.27" y1="185.95" x2="104.99" y2="178.95"></line><line class="link fake transparent" x1="10.53" y1="171.11" x2="57.35" y2="182.32"></line><line class="link fake transparent" x1="10.53" y1="171.11" x2="103.61" y2="195.17"></line><line class="link fake transparent" x1="16.27" y1="157.32" x2="57.35" y2="182.32"></line><line class="link fake transparent" x1="16.27" y1="157.32" x2="97.51" y2="208.75"></line><line class="link fake transparent" x1="25.97" y1="145.97" x2="57.35" y2="182.32"></line><line class="link fake transparent" x1="25.97" y1="145.97" x2="87.56" y2="219.81"></line><line class="link fake transparent" x1="38.69" y1="138.11" x2="57.35" y2="182.32"></line><line class="link fake transparent" x1="38.69" y1="138.11" x2="74.69" y2="227.27"></line><line class="link fake transparent" x1="53.36" y1="134.61" x2="57.35" y2="182.32"></line><line class="link fake transparent" x1="53.36" y1="134.61" x2="60.21" y2="230.41"></line><line class="link fake transparent" x1="68.29" y1="135.77" x2="57.35" y2="182.32"></line><line class="link fake transparent" x1="68.29" y1="135.77" x2="45.38" y2="229.00"></line><line class="link fake transparent" x1="82.80" y1="140.97" x2="57.35" y2="182.32"></line><line class="link fake transparent" x1="82.80" y1="140.97" x2="31.93" y2="222.65"></line><line class="link fake transparent" x1="93.78" y1="151.07" x2="57.35" y2="182.32"></line><line class="link fake transparent" x1="93.78" y1="151.07" x2="20.53" y2="213.14"></line><line class="link fake transparent" x1="295.07" y1="-51.96" x2="309.56" y2="-56.22"></line><line class="link fake transparent" x1="295.07" y1="-51.96" x2="324.04" y2="-60.44"></line><line class="link fake transparent" x1="298.86" y1="-66.82" x2="309.56" y2="-56.22"></line><line class="link fake transparent" x1="298.86" y1="-66.82" x2="320.53" y2="-45.87"></line><line class="link fake transparent" x1="313.27" y1="-70.85" x2="309.56" y2="-56.22"></line><line class="link fake transparent" x1="313.27" y1="-70.85" x2="305.77" y2="-41.58"></line><line class="link fake transparent" x1="324.04" y1="-60.44" x2="309.56" y2="-56.22"></line><line class="link fake transparent" x1="324.04" y1="-60.44" x2="295.07" y2="-51.96"></line><line class="link fake transparent" x1="320.53" y1="-45.87" x2="309.56" y2="-56.22"></line><line class="link fake transparent" x1="320.53" y1="-45.87" x2="298.86" y2="-66.82"></line><line class="link fake transparent" x1="305.77" y1="-41.58" x2="309.56" y2="-56.22"></line><line class="link fake transparent" x1="305.77" y1="-41.58" x2="313.27" y2="-70.85"></line><line class="link fake transparent" x1="231.45" y1="11.23" x2="246.16" y2="7.57"></line><line class="link fake transparent" x1="231.45" y1="11.23" x2="260.85" y2="3.73"></line><line class="link fake transparent" x1="235.79" y1="-3.42" x2="246.16" y2="7.57"></line><line class="link fake transparent" x1="235.79" y1="-3.42" x2="256.50" y2="18.49"></line><line class="link fake transparent" x1="250.63" y1="-6.92" x2="246.16" y2="7.57"></line><line class="link fake transparent" x1="250.63" y1="-6.92" x2="241.52" y2="22.05"></line><line class="link fake transparent" x1="260.85" y1="3.73" x2="246.16" y2="7.57"></line><line class="link fake transparent" x1="260.85" y1="3.73" x2="231.45" y2="11.23"></line><line class="link fake transparent" x1="256.50" y1="18.49" x2="246.16" y2="7.57"></line><line class="link fake transparent" x1="256.50" y1="18.49" x2="235.79" y2="-3.42"></line><line class="link fake transparent" x1="241.52" y1="22.05" x2="246.16" y2="7.57"></line><line class="link fake transparent" x1="241.52" y1="22.05" x2="250.63" y2="-6.92"></line><line class="link fake transparent" x1="106.76" y1="118.68" x2="121.62" y2="115.79"></line><line class="link fake transparent" x1="106.76" y1="118.68" x2="136.57" y2="112.93"></line><line class="link fake transparent" x1="111.92" y1="104.26" x2="121.62" y2="115.79"></line><line class="link fake transparent" x1="111.92" y1="104.26" x2="131.39" y2="127.28"></line><line class="link fake transparent" x1="126.96" y1="101.56" x2="121.62" y2="115.79"></line><line class="link fake transparent" x1="126.96" y1="101.56" x2="116.36" y2="129.92"></line><line class="link fake transparent" x1="136.57" y1="112.93" x2="121.62" y2="115.79"></line><line class="link fake transparent" x1="136.57" y1="112.93" x2="106.76" y2="118.68"></line><line class="link fake transparent" x1="131.39" y1="127.28" x2="121.62" y2="115.79"></line><line class="link fake transparent" x1="131.39" y1="127.28" x2="111.92" y2="104.26"></line><line class="link fake transparent" x1="116.36" y1="129.92" x2="121.62" y2="115.79"></line><line class="link fake transparent" x1="116.36" y1="129.92" x2="126.96" y2="101.56"></line><line class="link fake transparent" x1="126.96" y1="101.56" x2="141.85" y2="98.73"></line><line class="link fake transparent" x1="126.96" y1="101.56" x2="156.72" y2="95.78"></line><line class="link fake transparent" x1="132.08" y1="87.23" x2="141.85" y2="98.73"></line><line class="link fake transparent" x1="132.08" y1="87.23" x2="151.57" y2="110.24"></line><line class="link fake transparent" x1="147.15" y1="84.53" x2="141.85" y2="98.73"></line><line class="link fake transparent" x1="147.15" y1="84.53" x2="136.57" y2="112.93"></line><line class="link fake transparent" x1="156.72" y1="95.78" x2="141.85" y2="98.73"></line><line class="link fake transparent" x1="156.72" y1="95.78" x2="126.96" y2="101.56"></line><line class="link fake transparent" x1="151.57" y1="110.24" x2="141.85" y2="98.73"></line><line class="link fake transparent" x1="151.57" y1="110.24" x2="132.08" y2="87.23"></line><line class="link fake transparent" x1="136.57" y1="112.93" x2="141.85" y2="98.73"></line><line class="link fake transparent" x1="136.57" y1="112.93" x2="147.15" y2="84.53"></line></g><g><g class="noselect gnode" struct_name="m" transform="translate(103.61,195.17)" r="6.5"><circle class="node" r="6" node_type="nucleotide" style="fill: lightsalmon;"></circle><text text-anchor="middle" font-size="8" font-weight="bold" y="2.5" class="node-label">A</text></g><g class="noselect gnode" struct_name="m" transform="translate(97.51,208.75)" r="6.5"><circle class="node" r="6" node_type="nucleotide" style="fill: lightsalmon;"></circle><text text-anchor="middle" font-size="8" font-weight="bold" y="2.5" class="node-label">C</text></g><g class="noselect gnode" struct_name="m" transform="translate(87.56,219.81)" r="6.5"><circle class="node" r="6" node_type="nucleotide" style="fill: lightsalmon;"></circle><text text-anchor="middle" font-size="8" font-weight="bold" y="2.5" class="node-label">U</text></g><g class="noselect gnode" struct_name="m" transform="translate(74.69,227.27)" r="6.5"><circle class="node" r="6" node_type="nucleotide" style="fill: lightsalmon;"></circle><text text-anchor="middle" font-size="8" font-weight="bold" y="2.5" class="node-label">G</text></g><g class="noselect gnode" struct_name="m" transform="translate(60.21,230.41)" r="6.5"><circle class="node" r="6" node_type="nucleotide" style="fill: lightsalmon;"></circle><text text-anchor="middle" font-size="8" font-weight="bold" y="2.5" class="node-label">A</text></g><g class="noselect gnode" struct_name="m" transform="translate(45.38,229.00)" r="6.5"><circle class="node" r="6" node_type="nucleotide" style="fill: lightsalmon;"></circle><text text-anchor="middle" font-size="8" font-weight="bold" y="2.5" class="node-label">A</text></g><g class="noselect gnode" struct_name="m" transform="translate(31.93,222.65)" r="6.5"><circle class="node" r="6" node_type="nucleotide" style="fill: lightsalmon;"></circle><text text-anchor="middle" font-size="8" font-weight="bold" y="2.5" class="node-label">U</text></g><g class="noselect gnode" struct_name="m" transform="translate(20.53,213.14)" r="6.5"><circle class="node" r="6" node_type="nucleotide" style="fill: lightsalmon;"></circle><text text-anchor="middle" font-size="8" font-weight="bold" y="2.5" class="node-label">U</text></g><g class="noselect gnode" struct_name="m" transform="translate(12.57,200.52)" r="6.5"><circle class="node" r="6" node_type="nucleotide" style="fill: lightsalmon;"></circle><text text-anchor="middle" font-size="8" font-weight="bold" y="2.5" class="node-label">U</text></g><g class="noselect gnode" struct_name="m" transform="translate(9.27,185.95)" r="6.5"><circle class="node" r="6" node_type="nucleotide" style="fill: lightsalmon;"></circle><text text-anchor="middle" font-size="8" font-weight="bold" y="2.5" class="node-label">A</text></g><g class="noselect gnode" struct_name="m" transform="translate(10.53,171.11)" r="6.5"><circle class="node" r="6" node_type="nucleotide" style="fill: lightsalmon;"></circle><text text-anchor="middle" font-size="8" font-weight="bold" y="2.5" class="node-label">U</text></g><g class="noselect gnode" struct_name="m" transform="translate(16.27,157.32)" r="6.5"><circle class="node" r="6" node_type="nucleotide" style="fill: lightsalmon;"></circle><text text-anchor="middle" font-size="8" font-weight="bold" y="2.5" class="node-label">G</text></g><g class="noselect gnode" struct_name="m" transform="translate(25.97,145.97)" r="6.5"><circle class="node" r="6" node_type="nucleotide" style="fill: lightsalmon;"></circle><text text-anchor="middle" font-size="8" font-weight="bold" y="2.5" class="node-label">A</text></g><g class="noselect gnode" struct_name="m" transform="translate(38.69,138.11)" r="6.5"><circle class="node" r="6" node_type="nucleotide" style="fill: lightsalmon;"></circle><text text-anchor="middle" font-size="8" font-weight="bold" y="2.5" class="node-label">U</text></g><g class="noselect gnode" struct_name="m" transform="translate(53.36,134.61)" r="6.5"><circle class="node" r="6" node_type="nucleotide" style="fill: lightsalmon;"></circle><text text-anchor="middle" font-size="8" font-weight="bold" y="2.5" class="node-label">G</text></g><g class="noselect gnode" struct_name="m" transform="translate(68.29,135.77)" r="6.5"><circle class="node" r="6" node_type="nucleotide" style="fill: lightsalmon;"></circle><text text-anchor="middle" font-size="8" font-weight="bold" y="2.5" class="node-label">C</text></g><g class="noselect gnode" struct_name="m" transform="translate(82.80,140.97)" r="6.5"><circle class="node" r="6" node_type="nucleotide" style="fill: lightgreen;"></circle><text text-anchor="middle" font-size="8" font-weight="bold" y="2.5" class="node-label">A</text></g><g class="noselect gnode" struct_name="m" transform="translate(94.64,129.51)" r="6.5"><circle class="node" r="6" node_type="nucleotide" style="fill: lightgreen;"></circle><text text-anchor="middle" font-size="8" font-weight="bold" y="2.5" class="node-label">G</text></g><g class="noselect gnode" struct_name="m" transform="translate(106.76,118.68)" r="6.5"><circle class="node" r="6" node_type="nucleotide" style="fill: lightgreen;"></circle><text text-anchor="middle" font-size="8" font-weight="bold" y="2.5" class="node-label">U</text></g><g class="noselect gnode" struct_name="m" transform="translate(111.92,104.26)" r="6.5"><circle class="node" r="6" node_type="nucleotide" style="fill: rgb(219, 219, 141);"></circle><text text-anchor="middle" font-size="8" font-weight="bold" y="2.5" class="node-label">G</text></g><g class="noselect gnode" struct_name="m" transform="translate(126.96,101.56)" r="6.5"><circle class="node" r="6" node_type="nucleotide" style="fill: lightgreen;"></circle><text text-anchor="middle" font-size="8" font-weight="bold" y="2.5" class="node-label">U</text></g><g class="noselect gnode" struct_name="m" transform="translate(132.08,87.23)" r="6.5"><circle class="node" r="6" node_type="nucleotide" style="fill: rgb(219, 219, 141);"></circle><text text-anchor="middle" font-size="8" font-weight="bold" y="2.5" class="node-label">G</text></g><g class="noselect gnode" struct_name="m" transform="translate(147.15,84.53)" r="6.5"><circle class="node" r="6" node_type="nucleotide" style="fill: lightgreen;"></circle><text text-anchor="middle" font-size="8" font-weight="bold" y="2.5" class="node-label">C</text></g><g class="noselect gnode" struct_name="m" transform="translate(159.32,74.25)" r="6.5"><circle class="node" r="6" node_type="nucleotide" style="fill: lightgreen;"></circle><text text-anchor="middle" font-size="8" font-weight="bold" y="2.5" class="node-label">U</text></g><g class="noselect gnode" struct_name="m" transform="translate(171.45,63.77)" r="6.5"><circle class="node" r="6" node_type="nucleotide" style="fill: lightgreen;"></circle><text text-anchor="middle" font-size="8" font-weight="bold" y="2.5" class="node-label">G</text></g><g class="noselect gnode" struct_name="m" transform="translate(183.59,53.23)" r="6.5"><circle class="node" r="6" node_type="nucleotide" style="fill: lightgreen;"></circle><text text-anchor="middle" font-size="8" font-weight="bold" y="2.5" class="node-label">A</text></g><g class="noselect gnode" struct_name="m" transform="translate(195.70,42.77)" r="6.5"><circle class="node" r="6" node_type="nucleotide" style="fill: lightgreen;"></circle><text text-anchor="middle" font-size="8" font-weight="bold" y="2.5" class="node-label">G</text></g><g class="noselect gnode" struct_name="m" transform="translate(207.82,32.38)" r="6.5"><circle class="node" r="6" node_type="nucleotide" style="fill: lightgreen;"></circle><text text-anchor="middle" font-size="8" font-weight="bold" y="2.5" class="node-label">A</text></g><g class="noselect gnode" struct_name="m" transform="translate(219.85,21.90)" r="6.5"><circle class="node" r="6" node_type="nucleotide" style="fill: lightgreen;"></circle><text text-anchor="middle" font-size="8" font-weight="bold" y="2.5" class="node-label">A</text></g><g class="noselect gnode" struct_name="m" transform="translate(231.45,11.23)" r="6.5"><circle class="node" r="6" node_type="nucleotide" style="fill: lightgreen;"></circle><text text-anchor="middle" font-size="8" font-weight="bold" y="2.5" class="node-label">A</text></g><g class="noselect gnode" struct_name="m" transform="translate(235.79,-3.42)" r="6.5"><circle class="node" r="6" node_type="nucleotide" style="fill: rgb(219, 219, 141);"></circle><text text-anchor="middle" font-size="8" font-weight="bold" y="2.5" class="node-label">G</text></g><g class="noselect gnode" struct_name="m" transform="translate(250.63,-6.92)" r="6.5"><circle class="node" r="6" node_type="nucleotide" style="fill: lightgreen;"></circle><text text-anchor="middle" font-size="8" font-weight="bold" y="2.5" class="node-label">U</text></g><g class="noselect gnode" struct_name="m" transform="translate(262.00,-17.94)" r="6.5"><circle class="node" r="6" node_type="nucleotide" style="fill: lightgreen;"></circle><text text-anchor="middle" font-size="8" font-weight="bold" y="2.5" class="node-label">G</text></g><g class="noselect gnode" struct_name="m" transform="translate(273.16,-29.26)" r="6.5"><circle class="node" r="6" node_type="nucleotide" style="fill: lightgreen;"></circle><text text-anchor="middle" font-size="8" font-weight="bold" y="2.5" class="node-label">A</text></g><g class="noselect gnode" struct_name="m" transform="translate(284.22,-40.62)" r="6.5"><circle class="node" r="6" node_type="nucleotide" style="fill: lightgreen;"></circle><text text-anchor="middle" font-size="8" font-weight="bold" y="2.5" class="node-label">C</text></g><g class="noselect gnode" struct_name="m" transform="translate(295.07,-51.96)" r="6.5"><circle class="node" r="6" node_type="nucleotide" style="fill: lightgreen;"></circle><text text-anchor="middle" font-size="8" font-weight="bold" y="2.5" class="node-label">G</text></g><g class="noselect gnode" struct_name="m" transform="translate(298.86,-66.82)" r="6.5"><circle class="node" r="6" node_type="nucleotide" style="fill: lightblue;"></circle><text text-anchor="middle" font-size="8" font-weight="bold" y="2.5" class="node-label">A</text></g><g class="noselect gnode" struct_name="m" transform="translate(313.27,-70.85)" r="6.5"><circle class="node" r="6" node_type="nucleotide" style="fill: lightblue;"></circle><text text-anchor="middle" font-size="8" font-weight="bold" y="2.5" class="node-label">A</text></g><g class="noselect gnode" struct_name="m" transform="translate(324.04,-60.44)" r="6.5"><circle class="node" r="6" node_type="nucleotide" style="fill: lightblue;"></circle><text text-anchor="middle" font-size="8" font-weight="bold" y="2.5" class="node-label">A</text></g><g class="noselect gnode" struct_name="m" transform="translate(320.53,-45.87)" r="6.5"><circle class="node" r="6" node_type="nucleotide" style="fill: lightblue;"></circle><text text-anchor="middle" font-size="8" font-weight="bold" y="2.5" class="node-label">C</text></g><g class="noselect gnode" struct_name="m" transform="translate(305.77,-41.58)" r="6.5"><circle class="node" r="6" node_type="nucleotide" style="fill: lightgreen;"></circle><text text-anchor="middle" font-size="8" font-weight="bold" y="2.5" class="node-label">C</text></g><g class="noselect gnode" struct_name="m" transform="translate(294.73,-30.37)" r="6.5"><circle class="node" r="6" node_type="nucleotide" style="fill: lightgreen;"></circle><text text-anchor="middle" font-size="8" font-weight="bold" y="2.5" class="node-label">G</text></g><g class="noselect gnode" struct_name="m" transform="translate(283.63,-19.01)" r="6.5"><circle class="node" r="6" node_type="nucleotide" style="fill: lightgreen;"></circle><text text-anchor="middle" font-size="8" font-weight="bold" y="2.5" class="node-label">U</text></g><g class="noselect gnode" struct_name="m" transform="translate(272.28,-7.60)" r="6.5"><circle class="node" r="6" node_type="nucleotide" style="fill: lightgreen;"></circle><text text-anchor="middle" font-size="8" font-weight="bold" y="2.5" class="node-label">U</text></g><g class="noselect gnode" struct_name="m" transform="translate(260.85,3.73)" r="6.5"><circle class="node" r="6" node_type="nucleotide" style="fill: lightgreen;"></circle><text text-anchor="middle" font-size="8" font-weight="bold" y="2.5" class="node-label">A</text></g><g class="noselect gnode" struct_name="m" transform="translate(256.50,18.49)" r="6.5"><circle class="node" r="6" node_type="nucleotide" style="fill: rgb(219, 219, 141);"></circle><text text-anchor="middle" font-size="8" font-weight="bold" y="2.5" class="node-label">A</text></g><g class="noselect gnode" struct_name="m" transform="translate(241.52,22.05)" r="6.5"><circle class="node" r="6" node_type="nucleotide" style="fill: lightgreen;"></circle><text text-anchor="middle" font-size="8" font-weight="bold" y="2.5" class="node-label">U</text></g><g class="noselect gnode" struct_name="m" transform="translate(229.54,32.79)" r="6.5"><circle class="node" r="6" node_type="nucleotide" style="fill: lightgreen;"></circle><text text-anchor="middle" font-size="8" font-weight="bold" y="2.5" class="node-label">U</text></g><g class="noselect gnode" struct_name="m" transform="translate(217.37,43.42)" r="6.5"><circle class="node" r="6" node_type="nucleotide" style="fill: lightgreen;"></circle><text text-anchor="middle" font-size="8" font-weight="bold" y="2.5" class="node-label">U</text></g><g class="noselect gnode" struct_name="m" transform="translate(205.23,53.86)" r="6.5"><circle class="node" r="6" node_type="nucleotide" style="fill: lightgreen;"></circle><text text-anchor="middle" font-size="8" font-weight="bold" y="2.5" class="node-label">C</text></g><g class="noselect gnode" struct_name="m" transform="translate(193.12,64.28)" r="6.5"><circle class="node" r="6" node_type="nucleotide" style="fill: lightgreen;"></circle><text text-anchor="middle" font-size="8" font-weight="bold" y="2.5" class="node-label">U</text></g><g class="noselect gnode" struct_name="m" transform="translate(180.99,74.78)" r="6.5"><circle class="node" r="6" node_type="nucleotide" style="fill: lightgreen;"></circle><text text-anchor="middle" font-size="8" font-weight="bold" y="2.5" class="node-label">C</text></g><g class="noselect gnode" struct_name="m" transform="translate(168.81,85.30)" r="6.5"><circle class="node" r="6" node_type="nucleotide" style="fill: lightgreen;"></circle><text text-anchor="middle" font-size="8" font-weight="bold" y="2.5" class="node-label">A</text></g><g class="noselect gnode" struct_name="m" transform="translate(156.72,95.78)" r="6.5"><circle class="node" r="6" node_type="nucleotide" style="fill: lightgreen;"></circle><text text-anchor="middle" font-size="8" font-weight="bold" y="2.5" class="node-label">G</text></g><g class="noselect gnode" struct_name="m" transform="translate(151.57,110.24)" r="6.5"><circle class="node" r="6" node_type="nucleotide" style="fill: rgb(219, 219, 141);"></circle><text text-anchor="middle" font-size="8" font-weight="bold" y="2.5" class="node-label">G</text></g><g class="noselect gnode" struct_name="m" transform="translate(136.57,112.93)" r="6.5"><circle class="node" r="6" node_type="nucleotide" style="fill: lightgreen;"></circle><text text-anchor="middle" font-size="8" font-weight="bold" y="2.5" class="node-label">A</text></g><g class="noselect gnode" struct_name="m" transform="translate(131.39,127.28)" r="6.5"><circle class="node" r="6" node_type="nucleotide" style="fill: rgb(219, 219, 141);"></circle><text text-anchor="middle" font-size="8" font-weight="bold" y="2.5" class="node-label">G</text></g><g class="noselect gnode" struct_name="m" transform="translate(116.36,129.92)" r="6.5"><circle class="node" r="6" node_type="nucleotide" style="fill: lightgreen;"></circle><text text-anchor="middle" font-size="8" font-weight="bold" y="2.5" class="node-label">G</text></g><g class="noselect gnode" struct_name="m" transform="translate(104.53,140.15)" r="6.5"><circle class="node" r="6" node_type="nucleotide" style="fill: lightgreen;"></circle><text text-anchor="middle" font-size="8" font-weight="bold" y="2.5" class="node-label">C</text></g><g class="noselect gnode" struct_name="m" transform="translate(93.78,151.07)" r="6.5"><circle class="node" r="6" node_type="nucleotide" style="fill: lightgreen;"></circle><text text-anchor="middle" font-size="8" font-weight="bold" y="2.5" class="node-label">U</text></g><g class="noselect gnode" struct_name="m" transform="translate(-6.06,185.42)" r="6.5"><circle class="node label" r="6" node_type="label"></circle><text text-anchor="middle" font-size="8" font-weight="bold" y="2.5" class="node-label">10</text></g><g class="noselect gnode" struct_name="m" transform="translate(100.76,93.44)" r="6.5"><circle class="node label" r="6" node_type="label"></circle><text text-anchor="middle" font-size="8" font-weight="bold" y="2.5" class="node-label">20</text></g><g class="noselect gnode" struct_name="m" transform="translate(219.01,1.82)" r="6.5"><circle class="node label" r="6" node_type="label"></circle><text text-anchor="middle" font-size="8" font-weight="bold" y="2.5" class="node-label">30</text></g><g class="noselect gnode" struct_name="m" transform="translate(335.36,-41.50)" r="6.5"><circle class="node label" r="6" node_type="label"></circle><text text-anchor="middle" font-size="8" font-weight="bold" y="2.5" class="node-label">40</text></g><g class="noselect gnode" struct_name="m" transform="translate(215.44,65.63)" r="6.5"><circle class="node label" r="6" node_type="label"></circle><text text-anchor="middle" font-size="8" font-weight="bold" y="2.5" class="node-label">50</text></g><g class="noselect gnode" struct_name="m" transform="translate(106.81,159.36)" r="6.5"><circle class="node label" r="6" node_type="label"></circle><text text-anchor="middle" font-size="8" font-weight="bold" y="2.5" class="node-label">60</text></g><g class="noselect gnode" transform="translate(158.00,84.98)" r="6.5"><circle class="node" r="0" node_type="middle"></circle><text text-anchor="middle" font-size="8" font-weight="bold" y="2.5" class="node-label"></text></g><g class="noselect gnode" transform="translate(170.15,74.54)" r="6.5"><circle class="node" r="0" node_type="middle"></circle><text text-anchor="middle" font-size="8" font-weight="bold" y="2.5" class="node-label"></text></g><g class="noselect gnode" transform="translate(182.27,64.00)" r="6.5"><circle class="node" r="0" node_type="middle"></circle><text text-anchor="middle" font-size="8" font-weight="bold" y="2.5" class="node-label"></text></g><g class="noselect gnode" transform="translate(194.37,53.53)" r="6.5"><circle class="node" r="0" node_type="middle"></circle><text text-anchor="middle" font-size="8" font-weight="bold" y="2.5" class="node-label"></text></g><g class="noselect gnode" transform="translate(206.54,43.09)" r="6.5"><circle class="node" r="0" node_type="middle"></circle><text text-anchor="middle" font-size="8" font-weight="bold" y="2.5" class="node-label"></text></g><g class="noselect gnode" transform="translate(218.67,32.67)" r="6.5"><circle class="node" r="0" node_type="middle"></circle><text text-anchor="middle" font-size="8" font-weight="bold" y="2.5" class="node-label"></text></g><g class="noselect gnode" transform="translate(230.63,22.09)" r="6.5"><circle class="node" r="0" node_type="middle"></circle><text text-anchor="middle" font-size="8" font-weight="bold" y="2.5" class="node-label"></text></g><g class="noselect gnode" transform="translate(261.48,-7.13)" r="6.5"><circle class="node" r="0" node_type="middle"></circle><text text-anchor="middle" font-size="8" font-weight="bold" y="2.5" class="node-label"></text></g><g class="noselect gnode" transform="translate(272.82,-18.43)" r="6.5"><circle class="node" r="0" node_type="middle"></circle><text text-anchor="middle" font-size="8" font-weight="bold" y="2.5" class="node-label"></text></g><g class="noselect gnode" transform="translate(283.92,-29.80)" r="6.5"><circle class="node" r="0" node_type="middle"></circle><text text-anchor="middle" font-size="8" font-weight="bold" y="2.5" class="node-label"></text></g><g class="noselect gnode" transform="translate(294.97,-41.15)" r="6.5"><circle class="node" r="0" node_type="middle"></circle><text text-anchor="middle" font-size="8" font-weight="bold" y="2.5" class="node-label"></text></g><g class="noselect gnode" transform="translate(93.62,140.32)" r="6.5"><circle class="node" r="0" node_type="middle"></circle><text text-anchor="middle" font-size="8" font-weight="bold" y="2.5" class="node-label"></text></g><g class="noselect gnode" transform="translate(105.45,129.46)" r="6.5"><circle class="node" r="0" node_type="middle"></circle><text text-anchor="middle" font-size="8" font-weight="bold" y="2.5" class="node-label"></text></g><g class="noselect gnode" transform="translate(101.25,164.71)" r="6.5"><circle class="node" r="0" node_type="middle"></circle><text text-anchor="middle" font-size="8" font-weight="bold" y="2.5" class="node-label"></text></g><g class="noselect gnode" transform="translate(104.99,178.95)" r="6.5"><circle class="node" r="0" node_type="middle"></circle><text text-anchor="middle" font-size="8" font-weight="bold" y="2.5" class="node-label"></text></g><g class="noselect gnode" transform="translate(57.35,182.32)" r="6.5"><circle class="node" r="0" node_type="middle"></circle><text text-anchor="middle" font-size="8" font-weight="bold" y="2.5" class="node-label"></text></g><g class="noselect gnode" transform="translate(309.56,-56.22)" r="6.5"><circle class="node" r="0" node_type="middle"></circle><text text-anchor="middle" font-size="8" font-weight="bold" y="2.5" class="node-label"></text></g><g class="noselect gnode" transform="translate(246.16,7.57)" r="6.5"><circle class="node" r="0" node_type="middle"></circle><text text-anchor="middle" font-size="8" font-weight="bold" y="2.5" class="node-label"></text></g><g class="noselect gnode" transform="translate(121.62,115.79)" r="6.5"><circle class="node" r="0" node_type="middle"></circle><text text-anchor="middle" font-size="8" font-weight="bold" y="2.5" class="node-label"></text></g><g class="noselect gnode" transform="translate(141.85,98.73)" r="6.5"><circle class="node" r="0" node_type="middle"></circle><text text-anchor="middle" font-size="8" font-weight="bold" y="2.5" class="node-label"></text></g></g><line class="drag_line" x1="0" y1="0" x2="0" y2="0"></line></g></g></svg>